<?xml version="1.0" standalone="no"?>
<!DOCTYPE svg PUBLIC "-//W3C//DTD SVG 1.1//EN" "http://www.w3.org/Graphics/SVG/1.1/DTD/svg11.dtd" >
<svg xmlns="http://www.w3.org/2000/svg" xmlns:xlink="http://www.w3.org/1999/xlink" version="1.1">
<metadata>
Created by FontForge 20201107 at Mon May 12 18:20:37 2025
 By 
Digitised data (c) 2002 Monotype Imaging, Inc. All Rights Reserved.
</metadata>
<defs>
<font id="ScenePro-Light" horiz-adv-x="1208" >
  <font-face 
    font-family="Scene Pro Light"
    font-weight="300"
    font-stretch="normal"
    units-per-em="2048"
    panose-1="2 11 3 4 3 5 4 2 2 4"
    ascent="1638"
    descent="-410"
    x-height="1100"
    cap-height="1477"
    bbox="-182 -530 2550 2032"
    underline-thickness="40"
    underline-position="-271"
    unicode-range="U+0020-FB04"
  />
<missing-glyph horiz-adv-x="1024" 
d="M25 0v1362h972v-1362h-972zM180 1266l332 -498l330 498h-662zM123 1178v-992q0 -1 82.5 123t164.5 249l83 124zM901 1178l-332 -496l332 -498v994zM842 98l-330 496l-332 -496h662z" />
    <glyph glyph-name="f_b" unicode="fb" horiz-adv-x="1949" 
d="M1849 555q0 -150 -37 -265t-103 -184.5t-152.5 -104t-190.5 -34.5q-203 0 -436 119v1425h-346q-117 0 -185.5 -61.5t-68.5 -212.5v-137h381l-21 -86h-360v-1014h-103v1014h-172v86h172v137q0 99 29.5 170.5t82.5 111t117.5 58t143.5 18.5h436v-585q122 73 198 99t152 26
q463 0 463 -580zM1743 555q0 496 -357 496q-141 0 -350 -131v-783q169 -86 330 -86q177 0 277 126t100 378z" />
    <glyph glyph-name="f_f_b" unicode="ffb" horiz-adv-x="2650" 
d="M807 1571l-21 -84q-126 24 -196 24q-260 0 -260 -274v-137h598v137q0 79 19.5 141.5t53 102.5t82 66t101.5 37t116 11h437v-585q122 73 198 99t152 26q463 0 463 -580q0 -150 -37 -265t-103.5 -184.5t-153 -104t-190.5 -34.5q-203 0 -436 119v1425h-346
q-117 0 -185.5 -61.5t-68.5 -212.5v-137h381l-20 -86h-361v-1014h-102v1012h-598v-1012h-103v1012h-172v88h172v137q0 98 29.5 170t81.5 111.5t114.5 58t137.5 18.5q112 0 217 -24zM2443 555q0 496 -356 496q-141 0 -350 -131v-783q169 -86 329 -86q177 0 277 126t100 378z
" />
    <glyph glyph-name="f_f_h" unicode="ffh" horiz-adv-x="2617" 
d="M807 1571l-21 -84q-126 24 -196 24q-260 0 -260 -274v-137h598v137q0 79 19.5 141.5t53 102.5t82 66t101.5 37t116 11h429v-655l129 90q88 62 144 83.5t126 21.5q82 0 147 -22.5t116 -70.5t78.5 -129t27.5 -192v-721h-103v721q0 181 -70 254.5t-196 73.5
q-60 0 -115.5 -23.5t-163.5 -99.5l-120 -86v-840h-101v1511h-344q-117 0 -186.5 -61.5t-69.5 -212.5v-137h383l-20 -84h-363v-1016h-100v1014h-598v-1014h-103v1012h-172v88h172v137q0 98 29.5 170t81.5 111.5t114.5 58t137.5 18.5q112 0 217 -24z" />
    <glyph glyph-name="f_f_j" unicode="ffj" horiz-adv-x="1857" 
d="M807 1571l-21 -84q-126 24 -196 24q-260 0 -260 -274v-137h598v137q0 98 29 170t80.5 111.5t112.5 58t134 18.5q94 0 199 -24l-17 -86q-17 3 -47 9t-47 9t-41.5 5.5t-46.5 2.5q-117 0 -185.5 -61.5t-68.5 -212.5v-137h701v-1325q0 -271 -285 -271h-88v93h88q106 0 144 47
t38 161v1209h-598v-1014h-102v1014h-598v-1014h-103v1014h-172v86h172v137q0 98 29.5 170t81.5 111.5t114.5 58t137.5 18.5q112 0 217 -24zM1729 1485q0 -18 -3.5 -21.5t-19.5 -3.5h-90q-16 0 -19.5 3.5t-3.5 21.5v84q0 11 0.5 15.5t4 7.5t6 3h12.5h90q12 0 15.5 -1t5.5 -6
t2 -19v-84z" />
    <glyph glyph-name="f_f_k" unicode="ffk" horiz-adv-x="2547" 
d="M807 1571l-21 -84q-126 24 -196 24q-260 0 -260 -274v-137h598v137q0 79 19.5 141.5t53 102.5t82 66t101.5 37t116 11h431v-987l620 492h154l-527 -412l529 -688h-137l-472 627l-167 -133v-494h-103v1511h-344q-117 0 -185.5 -61.5t-68.5 -212.5v-137h381l-20 -86h-361
v-1014h-102v1012h-598v-1012h-103v1010h-172v90h172v137q0 98 29.5 170t81.5 111.5t114.5 58t137.5 18.5q112 0 217 -24z" />
    <glyph glyph-name="f_h" unicode="fh" horiz-adv-x="1916" 
d="M1796 0h-102v721q0 94 -20 159.5t-57.5 101.5t-83.5 51.5t-106 15.5t-115 -23.5t-163 -99.5l-121 -86v-840h-100v1511h-344q-117 0 -185.5 -61.5t-68.5 -212.5v-137h381l-21 -86h-360v-1014h-103v1014h-172v86h172v137q0 99 29.5 170.5t82.5 111t117.5 58t143.5 18.5h428
v-655l129 90q88 62 144 83.5t126 21.5q82 0 147 -22.5t116 -70.5t78.5 -129t27.5 -192v-721z" />
    <glyph glyph-name="f_j" unicode="fj" horiz-adv-x="1155" 
d="M1028 -225q0 -57 -12.5 -102.5t-42.5 -85t-87.5 -61.5t-140.5 -22h-88v93h88q106 0 143.5 47t37.5 161v1209h-596v-1014h-103v1014h-172v86h172v137q0 98 29.5 170t81 111.5t112.5 58t134 18.5q93 0 198 -24l-16 -86q-17 3 -47 9t-47 9t-41.5 5.5t-46.5 2.5
q-117 0 -185.5 -61.5t-68.5 -212.5v-137h698v-1325zM1028 1485q0 -18 -3.5 -21.5t-18.5 -3.5h-91q-15 0 -18.5 3.5t-3.5 21.5v84q0 14 2 19t5 6t15 1h91h12t6 -3t3.5 -7.5t0.5 -15.5v-84z" />
    <glyph glyph-name="f_k" unicode="fk" horiz-adv-x="1847" 
d="M1806 0h-137l-471 627l-168 -133v-494h-102v1511h-344q-117 0 -185.5 -61.5t-68.5 -212.5v-137h381l-21 -86h-360v-1014h-103v1014h-172v86h172v137q0 99 29.5 170.5t82.5 111t117.5 58t143.5 18.5h430v-987l621 492h153l-526 -412z" />
    <glyph glyph-name="f_f" unicode="ff" horiz-adv-x="1466" 
d="M1505 1571l-20 -84q-126 24 -197 24q-260 0 -260 -274v-137h381l-20 -88h-361v-1012h-102v1012h-596v-1012h-103v1012h-172v88h172v137q0 98 29.5 170t81.5 111.5t114.5 58t137.5 18.5q112 0 217 -24l-21 -84q-126 24 -196 24q-260 0 -260 -274v-137h596v137
q0 79 19.5 141.5t53 102.5t80.5 66t98.5 37t110.5 11q112 0 217 -24z" />
    <glyph glyph-name="fi" unicode="fi" horiz-adv-x="1155" 
d="M1028 1485q0 -18 -3.5 -21.5t-18.5 -3.5h-91q-15 0 -18.5 3.5t-3.5 21.5v84q0 14 2 19t5 6t15 1h91h12t6 -3t3.5 -7.5t0.5 -15.5v-84zM1028 0h-100v1014h-598v-1014h-103v1014h-172v86h172v137q0 98 29.5 170t81 111.5t112.5 58t134 18.5q93 0 198 -24l-16 -86
q-17 3 -47 9t-47 9t-41.5 5.5t-46.5 2.5q-117 0 -185.5 -61.5t-68.5 -212.5v-137h698v-1100z" />
    <glyph glyph-name="fl" unicode="fl" horiz-adv-x="1280" 
d="M1208 -16h-59q-112 0 -165.5 59t-53.5 188v1280h-346q-117 0 -185.5 -61.5t-68.5 -212.5v-137h381l-21 -86h-360v-1014h-103v1014h-172v86h172v137q0 99 29.5 170.5t82.5 111t117.5 58t143.5 18.5h432v-1364q0 -81 28.5 -116t88.5 -35h59v-96z" />
    <glyph glyph-name="f_f_i" unicode="ffi" horiz-adv-x="1873" 
d="M807 1571l-21 -84q-126 24 -196 24q-260 0 -260 -274v-137h596v137q0 98 29 170t80.5 111.5t112.5 58t134 18.5q94 0 199 -24l-17 -86q-17 3 -47 9t-47 9t-41.5 5.5t-46.5 2.5q-117 0 -185.5 -61.5t-68.5 -212.5v-137h698v-1100h-100v1014h-598v-1014h-102v1012h-596
v-1012h-103v1010h-172v90h172v137q0 98 29.5 170t81.5 111.5t114.5 58t137.5 18.5q112 0 217 -24zM1747 1485q0 -18 -3.5 -21.5t-19.5 -3.5h-90q-16 0 -19 3.5t-3 21.5v84q0 14 2 19t5 6t15 1h90q12 0 15.5 -1t5.5 -6t2 -19v-84z" />
    <glyph glyph-name="f_f_l" unicode="ffl" horiz-adv-x="1910" 
d="M807 1571l-21 -84q-126 24 -196 24q-260 0 -260 -274v-137h598v137q0 79 19.5 141.5t53 102.5t82 66t101.5 37t116 11h429v-1364q0 -82 26.5 -116.5t85.5 -34.5h60v-96h-60q-112 0 -165.5 59t-53.5 188v1280h-338q-117 0 -185.5 -61.5t-68.5 -212.5v-137h381l-20 -86
h-361v-1014h-102v1012h-598v-1012h-103v1010h-172v90h172v137q0 98 29.5 170t81.5 111.5t114.5 58t137.5 18.5q112 0 217 -24z" />
    <glyph glyph-name=".notdef" horiz-adv-x="1024" 
d="M25 0v1362h972v-1362h-972zM180 1266l332 -498l330 498h-662zM123 1178v-992q0 -1 82.5 123t164.5 249l83 124zM901 1178l-332 -496l332 -498v994zM842 98l-330 496l-332 -496h662z" />
    <glyph glyph-name=".null" horiz-adv-x="0" 
 />
    <glyph glyph-name="nonmarkingreturn" horiz-adv-x="682" 
 />
    <glyph glyph-name="space" unicode=" " horiz-adv-x="471" 
 />
    <glyph glyph-name="exclam" unicode="!" horiz-adv-x="518" 
d="M313 799l-26 -414h-58l-24 414v796h108v-796zM336 23q0 -17 -3 -20t-18 -3h-114q-15 0 -18 3t-3 20v108q0 18 3 21.5t18 3.5h114q15 0 18 -3.5t3 -21.5v-108z" />
    <glyph glyph-name="quotedbl" unicode="&#x22;" horiz-adv-x="679" 
d="M580 1477l-62 -480q-3 -18 -7.5 -23t-16.5 -5h-11q-15 0 -19.5 5.5t-4.5 22.5v480h121zM238 1477l-62 -480q-3 -18 -7.5 -23t-16.5 -5h-11q-15 0 -19.5 5.5t-4.5 22.5v480h121z" />
    <glyph glyph-name="numbersign" unicode="#" horiz-adv-x="1175" 
d="M1083 489h-292l-58 -409h-76l56 409h-348l-56 -409h-78l54 409h-193v76h203l51 357h-254v75h262l58 408h77l-55 -408h348l58 408h75l-55 -408h223v-75h-229l-51 -357h280v-76zM772 922h-346l-53 -357h348z" />
    <glyph glyph-name="dollar" unicode="$" 
d="M1047 492q0 -63 -25 -123.5t-73 -113.5t-130 -87.5t-186 -38.5v-272h-80v270q-179 0 -279 82t-110 199h100q9 -94 91.5 -145.5t236.5 -51.5q160 0 258 76t98 205q0 113 -39.5 162.5t-152.5 66.5l-324 49q-138 22 -192 95t-54 190q0 46 10.5 88t36.5 84t66.5 73.5
t105.5 53.5t148 28v222h80v-220q184 -9 279.5 -90t105.5 -209h-96q-19 213 -326 213q-161 0 -236 -66t-75 -177q0 -90 37.5 -134t136.5 -59l305 -47q139 -21 211 -96.5t72 -226.5z" />
    <glyph glyph-name="percent" unicode="%" horiz-adv-x="1738" 
d="M668 1085q0 -89 -6.5 -154t-24.5 -125.5t-49 -97.5t-81.5 -59t-121.5 -22t-122.5 22t-82.5 59t-49 97.5t-24.5 125.5t-6.5 154q0 85 7 149t26 121t51 93t82 57t119 21q84 0 141 -30.5t87.5 -91.5t42.5 -136.5t12 -182.5zM575 1085q0 60 -2 100t-8 85t-19 73.5t-33.5 53
t-52.5 36t-75 11.5q-44 0 -76 -11.5t-53 -36t-34 -53t-19 -73.5t-8 -85t-2 -100q0 -62 2 -104t8 -89t19 -77t34 -56t53 -38t76 -12t76 12t52.5 38t33 55.5t18.5 77.5t8 89t2 104zM1403 1509l-993 -1542h-86l995 1542h84zM1638 440q0 -90 -6 -154.5t-24 -125t-49 -97.5
t-81.5 -59t-121.5 -22t-122.5 22t-82.5 59t-49 97.5t-24.5 125.5t-6.5 154q0 85 7 149t26 121t51 93t82 57t119 21q84 0 141 -30.5t87 -91.5t42 -136.5t12 -182.5zM1546 440q0 60 -2 100t-8 85t-19 73.5t-33.5 53t-52.5 36t-75 11.5q-52 0 -88.5 -18.5t-56.5 -46.5
t-31 -78.5t-14 -97t-3 -118.5q0 -75 3 -123.5t14 -101.5t31 -83t56.5 -49.5t88.5 -19.5q44 0 76 12t52.5 38.5t33 56t18.5 77.5t8 89t2 104z" />
    <glyph glyph-name="ampersand" unicode="&#x26;" horiz-adv-x="1302" 
d="M1309 -6l-111 -27l-192 203q-153 -203 -420 -203q-80 0 -149.5 13t-132.5 43.5t-108 76.5t-71.5 115.5t-26.5 157.5v61q0 233 219 334l86 39l-67 70q-105 108 -105 280v37q0 162 99 238.5t260 76.5q76 0 140 -18t114.5 -54.5t79 -98.5t28.5 -144v-37q0 -109 -48 -177
t-148 -114l-191 -88l428 -450q64 147 64 344v57h96v-57q0 -240 -92 -416zM852 1157v37q0 50 -11.5 89t-39 73t-81 52.5t-130.5 18.5t-129.5 -18t-79.5 -51.5t-38 -72.5t-11 -91v-37q0 -86 18 -127t78 -106l68 -74l196 90q95 43 127.5 84.5t32.5 132.5zM942 236l-473 499
l-92 -41q-85 -37 -131.5 -95t-46.5 -165v-61q0 -87 29.5 -151t83.5 -100.5t121.5 -53.5t152.5 -17q229 0 356 185z" />
    <glyph glyph-name="quotesingle" unicode="'" horiz-adv-x="327" 
d="M238 1477l-62 -480q-3 -18 -8 -23t-18 -5h-11q-15 0 -18.5 5t-3.5 23v480h121z" />
    <glyph glyph-name="parenleft" unicode="(" horiz-adv-x="645" 
d="M594 -334q-77 6 -138.5 38.5t-104 83t-74 125t-50 151.5t-29.5 176.5t-14.5 187.5t-3.5 195t3.5 195t14.5 187.5t29.5 176.5t50 151.5t74 124.5t104 82.5t138.5 38.5v-70q-55 -5 -100.5 -32t-76 -77t-53.5 -99.5t-36.5 -127.5t-21.5 -131.5t-11 -141t-3.5 -126.5
t-0.5 -116v-35v-38q-1 -39 0 -86.5t1.5 -99.5t5.5 -107.5t11 -110t18.5 -108t27.5 -101.5t38.5 -89t51.5 -72.5t66 -51t83 -23.5v-70z" />
    <glyph glyph-name="parenright" unicode=")" horiz-adv-x="645" 
d="M465 623q0 -107 -3.5 -195t-14.5 -187.5t-29.5 -176.5t-50 -151.5t-74 -125t-104 -83t-138.5 -38.5v70q45 4 83 23.5t66 51t51.5 72.5t38.5 89t27.5 101.5t18.5 108t11 110t5.5 107.5t1.5 99.5t0 86.5v38v35v102t-2.5 111.5t-7.5 123.5t-15.5 120t-25 118.5t-38 101.5
t-53 87.5t-71 57.5t-90.5 29v70q77 -6 138.5 -38.5t104 -82.5t74 -124.5t50 -151.5t29.5 -176.5t14.5 -187.5t3.5 -195z" />
    <glyph glyph-name="asterisk" unicode="*" horiz-adv-x="808" 
d="M737 1192q0 -6 -8 -6l-280 -53l194 -218q4 -4 4 -6t-10 -12l-70 -51q-8 -8 -14 -8l-4 4l-141 254l-142 -254q-2 -4 -6 -4q-5 0 -16 8l-72 49q-8 5 -8 10q0 4 4 8l194 213l-284 58q-6 0 -6 6t2 12l28 82q4 14 9 14q1 0 2 -1t2 -1l260 -120l-29 290v4q0 7 14 7h89
q14 0 14 -7v-4l-35 -288l264 120q1 0 3 1t3 1q8 0 11 -14l24 -80q4 -12 4 -14z" />
    <glyph glyph-name="plus" unicode="+" 
d="M1102 694h-451v-454h-90v454h-455v86h455v455h90v-455h451v-86z" />
    <glyph glyph-name="comma" unicode="," horiz-adv-x="450" 
d="M307 25q0 -97 -47 -180t-129 -144l-29 27q75 69 106.5 131t31.5 141h-68q-15 0 -17.5 3t-2.5 20v108q0 19 2.5 22t17.5 3h115q15 0 17.5 -3t2.5 -22v-106z" />
    <glyph glyph-name="hyphen" unicode="-" horiz-adv-x="722" 
d="M657 627h-591v96h591v-96z" />
    <glyph glyph-name="period" unicode="." horiz-adv-x="450" 
d="M303 23q0 -17 -2.5 -20t-17.5 -3h-115q-15 0 -18 3t-3 20v108q0 18 3 21.5t18 3.5h115q15 0 17.5 -3t2.5 -22v-108z" />
    <glyph glyph-name="slash" unicode="/" horiz-adv-x="1028" 
d="M913 1509l-700 -1542h-98l700 1542h98z" />
    <glyph glyph-name="zero" unicode="0" 
d="M1079 756q0 -108 -5 -193t-18.5 -169.5t-36 -147t-58.5 -117.5t-85.5 -89t-117.5 -53.5t-154 -19.5t-154 19.5t-117.5 53.5t-85.5 89t-58.5 117.5t-36 147t-18.5 169.5t-5 193q0 145 12 254.5t43.5 207t84 159t136.5 97t199 35.5t199 -35.5t136.5 -97t84 -159t43.5 -207
t12 -254.5zM973 756q0 72 -1.5 125.5t-6 114.5t-12.5 105.5t-22 91.5t-33.5 79.5t-47 62.5t-63 47.5t-81.5 28t-102 10.5q-72 0 -127.5 -17.5t-94 -45.5t-66 -77t-43 -99t-24 -125t-11 -141t-2.5 -160q0 -76 1.5 -131.5t5.5 -120t12 -111t22 -96.5t33 -84t46.5 -66t63 -51
t82 -30t102.5 -11q72 0 128 18.5t94.5 48.5t66 82t43 104.5t24 131.5t11 148t2.5 168z" />
    <glyph glyph-name="one" unicode="1" 
d="M1004 0h-797v86h346v1303l-346 -78v88l452 102v-1415h345v-86z" />
    <glyph glyph-name="two" unicode="2" 
d="M1059 1110q0 -95 -38.5 -176t-102 -141.5t-141 -117.5t-161 -116.5t-156.5 -124t-131.5 -154.5t-82.5 -194h719v225h90v-311h-922q4 99 34.5 186.5t79 154t110.5 126t129 109.5t134 97.5t127 95.5t106 98t73.5 112t27.5 131q0 161 -84 236t-231 75q-96 0 -168 -19.5
t-116 -56.5t-68.5 -81t-36.5 -101h-92q7 51 25 96.5t55 92.5t88.5 80.5t132 55t180.5 21.5q189 0 304.5 -102.5t115.5 -296.5z" />
    <glyph glyph-name="three" unicode="3" 
d="M1092 418q0 -221 -133 -336t-363 -115q-188 0 -303 65t-191 208l86 43q46 -84 96.5 -133t126.5 -75t185 -26q188 0 289.5 95t101.5 274q0 154 -94 237.5t-242 83.5h-213l-24 95h237q61 0 114 17t97.5 51.5t70 96t25.5 142.5q0 286 -333 286q-141 0 -238 -46.5
t-154 -159.5l-79 39q66 128 181.5 188.5t289.5 60.5q118 0 205 -29t136.5 -81.5t73 -116.5t23.5 -141q0 -50 -11.5 -97.5t-37.5 -95.5t-74 -89.5t-115 -70.5q134 -48 200.5 -144.5t66.5 -225.5z" />
    <glyph glyph-name="four" unicode="4" 
d="M1151 414h-168v-414h-98v414h-793v116l762 947h129v-975h168v-88zM885 502v866l-695 -866h695z" />
    <glyph glyph-name="five" unicode="5" 
d="M1079 434q0 -101 -29.5 -184t-89 -147.5t-159.5 -100t-232 -35.5q-188 0 -302.5 65t-190.5 208l86 43q68 -124 157 -176t250 -52q201 0 301.5 100t100.5 279q0 111 -26 187t-79.5 119t-125 61t-171.5 18q-220 0 -374 -57l-58 47l78 668h805l-25 -86h-700l-62 -527
q153 45 336 45q115 0 204.5 -24t160 -77.5t108 -148t37.5 -225.5z" />
    <glyph glyph-name="six" unicode="6" 
d="M1087 477q0 -123 -24.5 -213.5t-79 -159t-149 -103t-228.5 -34.5q-101 0 -178.5 21t-128 49t-85.5 87.5t-52 103t-26 130.5t-10 136t-1 151v39q0 256 13 363q33 263 175 372q119 90 324 90q132 0 234.5 -39t162.5 -112l-63 -60q-123 123 -334 123q-107 0 -181 -28
t-126 -94t-76.5 -177.5t-24.5 -275.5q0 -10 1 -31t1 -33q146 164 375 164q257 0 369 -114.5t112 -354.5zM983 477q0 208 -89 294.5t-288 86.5q-170 0 -273.5 -98.5t-103.5 -282.5q0 -225 89.5 -323.5t287.5 -98.5t287.5 98.5t89.5 323.5z" />
    <glyph glyph-name="seven" unicode="7" 
d="M1096 1366l-709 -1366h-121l731 1391h-759v-228h-91v314h949v-111z" />
    <glyph glyph-name="eight" unicode="8" 
d="M1096 418q0 -222 -113.5 -336.5t-366.5 -114.5t-366 114.5t-113 336.5q0 265 236 370q-215 96 -215 332q0 196 111.5 292.5t346.5 96.5t347 -96.5t112 -292.5q0 -236 -215 -332q236 -105 236 -370zM973 1120q0 77 -20 132.5t-51.5 87.5t-81 51t-96 24.5t-108.5 5.5
t-108.5 -5.5t-95.5 -24.5t-80.5 -51t-51.5 -87.5t-20 -132.5q0 -75 25 -133.5t65.5 -91t85.5 -48.5t92 -16h177q47 0 92 16t85.5 48.5t65.5 91t25 133.5zM991 418q0 86 -31 156.5t-97.5 116.5t-157.5 46h-177q-91 0 -157.5 -46t-97.5 -116.5t-31 -156.5q0 -200 91 -281.5
t283 -81.5t283.5 81.5t91.5 281.5z" />
    <glyph glyph-name="nine" unicode="9" 
d="M1083 793q0 -257 -13 -364q-33 -264 -176 -373q-119 -89 -323 -89q-132 0 -234.5 39t-162.5 113l64 59q123 -123 333 -123q107 0 181 28.5t126 94.5t76.5 177.5t24.5 275.5q0 10 -1 30.5t-1 32.5q-146 -164 -375 -164q-257 0 -369 114.5t-112 354.5q0 123 24.5 213.5
t79 159t149 103t228.5 34.5q101 0 178.5 -21t128 -49t85.5 -87t52 -102.5t26 -130.5t10 -136t1 -151v-39zM979 999q0 225 -89.5 323.5t-287.5 98.5t-287.5 -98.5t-89.5 -323.5q0 -208 89 -294.5t288 -86.5q170 0 273.5 98.5t103.5 282.5z" />
    <glyph glyph-name="colon" unicode=":" horiz-adv-x="450" 
d="M303 967q0 -17 -2.5 -20t-17.5 -3h-115q-15 0 -18 3t-3 20v108q0 18 3 21.5t18 3.5h115q15 0 17.5 -3t2.5 -22v-108zM303 23q0 -17 -2.5 -20t-17.5 -3h-115q-15 0 -18 3t-3 20v108q0 18 3 21.5t18 3.5h115q15 0 17.5 -3t2.5 -22v-108z" />
    <glyph glyph-name="semicolon" unicode=";" horiz-adv-x="450" 
d="M301 967q0 -17 -2.5 -20t-17.5 -3h-115q-15 0 -18 3t-3 20v108q0 18 3 21.5t18 3.5h115q15 0 17.5 -3t2.5 -22v-108zM301 25q0 -96 -47 -180t-129 -144l-23 20q131 128 131 279h-67q-15 0 -18 3t-3 20v108q0 18 3 21.5t18 3.5h115q15 0 17.5 -3t2.5 -22v-106z" />
    <glyph glyph-name="less" unicode="&#x3c;" 
d="M958 164h-127l-575 573l575 574h119l-567 -574z" />
    <glyph glyph-name="equal" unicode="=" 
d="M1092 979h-975v84h975v-84zM1092 416h-975v88h975v-88z" />
    <glyph glyph-name="greater" unicode="&#x3e;" 
d="M954 737l-575 -573h-127l575 573l-567 574h119z" />
    <glyph glyph-name="question" unicode="?" horiz-adv-x="1003" 
d="M928 1200q0 -104 -49.5 -180.5t-147.5 -159.5q-118 -101 -146 -131q-63 -69 -76 -155q-5 -33 -5 -76v-131h-109v131q0 32 4.5 62.5t10 54.5t18.5 50.5t21.5 43.5t29 41t30 36t35 35t34.5 31t38.5 32.5t36.5 30.5q105 88 135.5 143t30.5 142v41q0 148 -69.5 222.5
t-225.5 74.5q-181 0 -259.5 -64.5t-86.5 -207.5h-100q2 57 12.5 104.5t40.5 97.5t77 84t128 56t188 22q194 0 299 -96.5t105 -292.5v-41zM530 23q0 -17 -2.5 -20t-17.5 -3h-115q-15 0 -17.5 3t-2.5 20v108q0 19 2.5 22t17.5 3h115q15 0 17.5 -3t2.5 -22v-108z" />
    <glyph glyph-name="at" unicode="@" horiz-adv-x="1927" 
d="M1772 659q0 -162 -55.5 -297.5t-163 -218t-246.5 -82.5h-181l25 160q-74 -66 -128 -103t-120 -60t-141 -23q-104 0 -170 79t-66 248q0 139 30.5 253t92.5 201.5t165 136t239 48.5q128 0 266 -30q24 -70 24 -148q0 -26 -8 -80l-86 -593h58q169 0 268.5 144t99.5 365
q0 97 -22.5 183t-73.5 162.5t-127 131.5t-188.5 87t-251.5 32q-148 0 -273 -41.5t-212.5 -113.5t-149 -169.5t-90.5 -208t-29 -230.5q0 -137 41 -262.5t118.5 -225.5t201 -159.5t276.5 -59.5q218 0 410 104l47 -79q-122 -59 -226.5 -87t-230.5 -28q-142 0 -263.5 43.5
t-207.5 119.5t-147.5 177.5t-91 217t-29.5 239.5q0 131 33 255t102.5 235.5t168.5 194.5t241.5 132t310.5 49q190 0 337.5 -54t238.5 -149.5t137.5 -221t46.5 -274.5zM1239 823q0 35 -6 70q-109 20 -180 20q-418 0 -418 -551q0 -128 37.5 -180.5t103.5 -52.5q96 0 181 51.5
t221 177.5l55 379q6 38 6 86z" />
    <glyph glyph-name="A" unicode="A" horiz-adv-x="1318" 
d="M1257 0h-104l-172 479h-651l-172 -479h-97l533 1477h133zM948 571l-293 826l-293 -826h586z" />
    <glyph glyph-name="B" unicode="B" horiz-adv-x="1232" 
d="M1151 426q0 -426 -518 -426h-500v1477h500q232 0 339 -91.5t107 -273.5q0 -117 -58.5 -206.5t-158.5 -121.5q129 -22 209 -119.5t80 -238.5zM975 1112q0 70 -19 121.5t-49 81.5t-76.5 47.5t-92 23t-105.5 5.5h-400v-568h422q63 0 116.5 14.5t101 46t75 90t27.5 138.5z
M1047 426q0 65 -19 117t-53 84.5t-73 55t-86 33t-84.5 15t-76.5 4.5h-422v-649h400q224 0 319 77.5t95 262.5z" />
    <glyph glyph-name="C" unicode="C" horiz-adv-x="1226" 
d="M1155 231q-135 -264 -473 -264q-139 0 -243.5 38.5t-170 104.5t-105.5 166.5t-55.5 211t-15.5 251.5q0 155 18 273.5t59 214t107.5 156.5t163.5 93.5t226 32.5q96 0 174 -20.5t131 -53.5t91 -79t57.5 -93t27.5 -100h-88q-25 117 -121 187.5t-274 70.5q-88 0 -157.5 -19
t-118 -50t-83.5 -82t-55.5 -104.5t-32.5 -128t-16 -142t-4 -156.5q0 -81 4 -145.5t16 -138t33 -129t58 -108.5t87 -87.5t123 -55t164 -20.5q284 0 399 224z" />
    <glyph glyph-name="D" unicode="D" horiz-adv-x="1302" 
d="M1231 756q0 -132 -23.5 -243.5t-76.5 -207.5t-133 -162.5t-199.5 -104.5t-270.5 -38h-395v1477h395q185 0 322.5 -53t219.5 -151t121.5 -226.5t39.5 -290.5zM1126 756q0 635 -598 635h-295v-1305h295q598 0 598 670z" />
    <glyph glyph-name="E" unicode="E" horiz-adv-x="1118" 
d="M1036 0h-903v1477h901v-86h-801v-566h705l-25 -88h-680v-651h803v-86z" />
    <glyph glyph-name="F" unicode="F" horiz-adv-x="980" 
d="M920 1477l-25 -86h-662v-588h564v-86h-564v-717h-100v1477h787z" />
    <glyph glyph-name="G" unicode="G" horiz-adv-x="1327" 
d="M1194 162q-46 -40 -86 -68.5t-101 -60.5t-137.5 -49t-164.5 -17q-321 0 -467 192t-146 580q0 143 19 258t63 212.5t113.5 162.5t174 101t240.5 36q119 0 210.5 -29.5t147 -80.5t86 -109.5t40.5 -126.5h-88q-25 120 -121 189t-275 69q-122 0 -213 -34.5t-146.5 -92
t-89 -147t-46 -186.5t-12.5 -222q0 -119 12 -213t46 -185t89 -151.5t147.5 -97.5t215.5 -37q127 0 212 36t177 106v444h-394l-22 84h516v-563z" />
    <glyph glyph-name="H" unicode="H" horiz-adv-x="1386" 
d="M1253 0h-100v733h-920v-733h-100v1477h100v-646h920v646h100v-1477z" />
    <glyph glyph-name="I" unicode="I" horiz-adv-x="366" 
d="M233 0h-100v1477h100v-1477z" />
    <glyph glyph-name="J" unicode="J" horiz-adv-x="839" 
d="M707 412q0 -125 -28 -212.5t-82.5 -138t-126.5 -72.5t-169 -22q-144 0 -250 76l47 68q91 -62 203 -62q165 0 235 85t70 278v1065h101v-1065z" />
    <glyph glyph-name="K" unicode="K" horiz-adv-x="1232" 
d="M1192 0h-125l-594 782l-240 -235v-547h-100v1477h100v-807l822 807h125l-637 -627z" />
    <glyph glyph-name="L" unicode="L" horiz-adv-x="991" 
d="M930 0h-797v1477h100v-1391h697v-86z" />
    <glyph glyph-name="M" unicode="M" horiz-adv-x="1613" 
d="M1483 0h-99l-96 1325l-428 -960h-106l-428 960l-97 -1325h-98l105 1477h122l449 -1012l448 1012h123z" />
    <glyph glyph-name="N" unicode="N" horiz-adv-x="1411" 
d="M1278 0h-107l-938 1321v-1321h-100v1477h107l940 -1323l-2 1323h100v-1477z" />
    <glyph glyph-name="O" unicode="O" horiz-adv-x="1361" 
d="M1270 756q0 -151 -16.5 -267.5t-57 -217t-107 -166t-170 -102t-241.5 -36.5t-240.5 36.5t-168.5 101.5t-106 166t-55.5 217t-15.5 268q0 136 15.5 244t56 206t105.5 162.5t168.5 102.5t240.5 38t241 -38t170 -102.5t107.5 -162t57.5 -206t16 -244.5zM1165 756
q0 128 -13.5 226t-47 183t-88 139.5t-139.5 85.5t-199 31q-115 0 -199.5 -31t-138 -85.5t-86 -140t-45 -183t-12.5 -225.5q0 -141 12.5 -245t45 -193.5t86.5 -145t138 -86.5t199 -31q143 0 239 45.5t150 139.5t76 217t22 299z" />
    <glyph glyph-name="P" unicode="P" horiz-adv-x="1169" 
d="M1098 1028q0 -96 -29 -175.5t-88.5 -141.5t-158.5 -96.5t-230 -34.5h-359v-580h-100v1477h459q134 0 233.5 -34.5t158 -97.5t86.5 -142t28 -175zM995 1028q0 363 -403 363h-359v-725h359q196 0 299.5 86.5t103.5 275.5z" />
    <glyph glyph-name="Q" unicode="Q" horiz-adv-x="1343" 
d="M1270 760q0 -67 -3 -124.5t-10.5 -122.5t-20.5 -119t-34.5 -110t-50 -100t-69 -83.5t-90.5 -66.5t-116 -43.5t-143 -19.5q75 -5 123 -20l404 -148l-43 -92l-738 273q-114 41 -172 90q-57 48 -98 113.5t-63 129.5t-35 147t-16 147.5t-3 148.5q0 136 15.5 243.5t56 204.5
t105.5 161.5t168.5 102t240.5 37.5t241 -37.5t170 -102.5t107.5 -162t57.5 -205t16 -242zM1165 760q0 127 -13.5 224.5t-47 182t-88 139t-139.5 85t-199 30.5q-115 0 -199.5 -31t-138 -85t-86 -139t-45 -181.5t-12.5 -224.5q0 -140 12.5 -244t45 -194t86 -147t138 -88.5
t199.5 -31.5q116 0 201.5 31.5t140 88t87 146.5t45.5 194.5t13 244.5z" />
    <glyph glyph-name="R" unicode="R" horiz-adv-x="1193" 
d="M1092 0h-117l-410 647h-332v-647h-100v1477h445q135 0 233.5 -30.5t156 -87.5t84.5 -131t27 -169q0 -164 -96.5 -271t-304.5 -139zM975 1059q0 182 -99.5 257t-297.5 75h-345v-656h342q400 0 400 324z" />
    <glyph glyph-name="S" unicode="S" horiz-adv-x="1187" 
d="M1106 406q0 -86 -30.5 -162.5t-91.5 -139.5t-164.5 -100t-237.5 -37q-173 0 -304 67.5t-188 198.5l84 43q60 -116 160 -168.5t248 -52.5q111 0 194.5 30t130.5 81t69.5 111t22.5 129q0 130 -57.5 202.5t-191.5 96.5l-328 59q-301 55 -301 371q0 58 13 108.5t46 100.5
t84.5 85.5t135.5 57.5t192 22q82 0 151 -14t113.5 -34.5t81 -51t56.5 -56t38 -57.5l-86 -43q-53 84 -134.5 126t-219.5 42q-369 0 -369 -286q0 -124 50.5 -188t175.5 -87l327 -57q169 -30 249.5 -133.5t80.5 -263.5z" />
    <glyph glyph-name="T" unicode="T" horiz-adv-x="1163" 
d="M1102 1391h-469v-1391h-101v1391h-471v86h1041v-86z" />
    <glyph glyph-name="U" unicode="U" horiz-adv-x="1380" 
d="M1257 602q0 -169 -40.5 -293t-117 -198t-178 -109t-231.5 -35t-231.5 35t-178 109t-117 198t-40.5 293v875h100v-875q0 -282 117.5 -414.5t349.5 -132.5t349.5 132t117.5 415v875h100v-875z" />
    <glyph glyph-name="V" unicode="V" horiz-adv-x="1316" 
d="M1255 1477l-530 -1477h-131l-533 1477h105l493 -1379l492 1379h104z" />
    <glyph glyph-name="W" unicode="W" horiz-adv-x="1746" 
d="M1686 1477l-334 -1477h-152l-330 1286l-323 -1286h-152l-334 1477h101l311 -1403l338 1353h123l340 -1353l311 1403h101z" />
    <glyph glyph-name="X" unicode="X" horiz-adv-x="1280" 
d="M1208 0h-116l-441 682l-463 -682h-116l526 764l-463 713h117l410 -635l419 635h115l-483 -713z" />
    <glyph glyph-name="Y" unicode="Y" horiz-adv-x="1251" 
d="M1190 1477l-514 -877v-600h-101v600l-514 877h107l459 -787l458 787h105z" />
    <glyph glyph-name="Z" unicode="Z" horiz-adv-x="1142" 
d="M1051 1376l-852 -1290h835v-86h-942v98l852 1293h-807l-24 86h938v-101z" />
    <glyph glyph-name="bracketleft" unicode="[" horiz-adv-x="675" 
d="M625 -334h-383v1913h383v-76l-285 -20v-1721l285 -20v-76z" />
    <glyph glyph-name="backslash" unicode="\" horiz-adv-x="1028" 
d="M913 -33h-98l-700 1542h98z" />
    <glyph glyph-name="bracketright" unicode="]" horiz-adv-x="675" 
d="M434 -334h-383v76l285 20v1721l-285 20v76h383v-1913z" />
    <glyph glyph-name="asciicircum" unicode="^" 
d="M901 1112l-57 -43l-240 295l-239 -295l-58 43l262 369q19 28 35 28t35 -28z" />
    <glyph glyph-name="underscore" unicode="_" horiz-adv-x="1003" 
d="M1024 -229h-1044v96h1044v-96z" />
    <glyph glyph-name="grave" unicode="`" horiz-adv-x="669" 
d="M137 1528l352 -291q12 -9 25 4l25 23q10 10 2 18l-308 346z" />
    <glyph glyph-name="a" unicode="a" horiz-adv-x="1107" 
d="M965 0h-68l-25 125q-186 -158 -421 -158q-177 0 -264 93.5t-87 258.5q0 76 23 136t61 97t91 60.5t108 33t117 9.5q161 0 364 -63v231q0 47 -14 86t-45 72t-88 51.5t-135 18.5q-126 0 -201 -22t-127 -87l-70 47q56 79 154.5 112.5t243.5 33.5q91 0 161.5 -21t111.5 -53.5
t66.5 -76t34.5 -82t9 -79.5v-823zM864 209v307q-198 59 -364 59q-41 0 -77 -5t-78 -21.5t-71 -43t-49 -74.5t-20 -112q0 -268 246 -268q117 0 204 34t209 124z" />
    <glyph glyph-name="b" unicode="b" horiz-adv-x="1159" 
d="M1059 555q0 -150 -37 -265t-103.5 -184.5t-153 -104t-190.5 -34.5q-199 0 -432 119v1509h103v-585q122 73 198 99t152 26q463 0 463 -580zM952 555q0 496 -356 496q-141 0 -350 -131v-783q169 -86 329 -86q177 0 277 126t100 378z" />
    <glyph glyph-name="c" unicode="c" horiz-adv-x="1050" 
d="M995 174q-56 -103 -149 -155t-254 -52q-262 0 -377 145t-115 439t115 439t377 145q160 0 253.5 -52.5t149.5 -156.5l-86 -35q-48 83 -122 121.5t-191 38.5q-203 0 -297 -118t-94 -382t94 -382t297 -118q117 0 191 38.5t122 121.5z" />
    <glyph glyph-name="d" unicode="d" horiz-adv-x="1157" 
d="M1014 0h-49l-52 94q-154 -127 -327 -127q-78 0 -146.5 17.5t-132 60.5t-108.5 108t-72 166t-27 230q0 586 463 586q180 0 348 -101v561h103v-1595zM911 190v750q-112 66 -185 87.5t-163 21.5q-187 0 -272.5 -124.5t-85.5 -375.5q0 -79 10 -147.5t36.5 -134.5t68.5 -112.5
t110 -75t156 -28.5q85 0 157.5 33t167.5 106z" />
    <glyph glyph-name="e" unicode="e" horiz-adv-x="1134" 
d="M1040 532h-839q6 -250 94 -365.5t295 -115.5q238 0 330 160l86 -37q-55 -102 -154.5 -154.5t-261.5 -52.5q-255 0 -372.5 138t-117.5 448q0 147 25 252t81.5 180.5t152 112.5t233.5 37q448 0 448 -572v-31zM934 616q0 93 -17.5 167.5t-55.5 135.5t-106.5 94.5
t-162.5 33.5q-132 0 -214 -39t-126.5 -134.5t-48.5 -257.5h731z" />
    <glyph glyph-name="f" unicode="f" horiz-adv-x="768" 
d="M807 1571l-21 -84q-126 24 -196 24q-260 0 -260 -274v-137h381l-21 -88h-360v-1012h-103v1012h-172v88h172v137q0 98 29.5 170t81.5 111.5t114.5 58t137.5 18.5q112 0 217 -24z" />
    <glyph glyph-name="g" unicode="g" horiz-adv-x="1173" 
d="M1118 1135l-22 -127h-178q83 -103 83 -244q0 -180 -102.5 -273.5t-323.5 -93.5q-49 0 -165 17q-12 2 -33 2q-58 0 -91.5 -32t-33.5 -77q0 -46 23.5 -63.5t72.5 -26.5l457 -84q80 -15 135 -44t84 -70t41 -85.5t12 -99.5q0 -90 -36 -154.5t-104.5 -102t-158 -54.5
t-205.5 -17q-84 0 -150 7t-135.5 29.5t-116 60t-76 103.5t-29.5 155q0 184 172 299q-43 26 -61.5 58t-18.5 89q0 52 31.5 97t93.5 65q-136 107 -136 295q0 96 33 169t92 116t135 64.5t168 21.5q86 0 152 -16.5t137 -57.5l183 74h71zM893 764q0 138 -80 212.5t-238 74.5
q-319 0 -319 -287q0 -283 319 -283q79 0 133 11.5t98 41.5t65.5 87t21.5 143zM969 -166q0 95 -39 145.5t-133 67.5l-478 86q-82 -49 -113.5 -115.5t-31.5 -156.5q0 -80 26.5 -134t81 -83.5t123.5 -41.5t168 -12q217 0 306.5 62.5t89.5 181.5z" />
    <glyph glyph-name="h" unicode="h" horiz-adv-x="1134" 
d="M1014 0h-103v721q0 181 -70 254.5t-196 73.5q-60 0 -115 -23.5t-163 -99.5l-121 -86v-840h-103v1595h103v-655l129 90q88 62 144 83.5t126 21.5q82 0 147 -22.5t116 -70.5t78.5 -129t27.5 -192v-721z" />
    <glyph glyph-name="i" unicode="i" horiz-adv-x="389" 
d="M262 1485q0 -18 -3 -21.5t-19 -3.5h-90q-16 0 -19.5 3.5t-3.5 21.5v84q0 11 0.5 15.5t4 7.5t6 3h12.5h90h12t6 -3t3.5 -7.5t0.5 -15.5v-84zM246 0h-103v1100h103v-1100z" />
    <glyph glyph-name="j" unicode="j" horiz-adv-x="389" 
d="M262 1485q0 -18 -3 -21.5t-19 -3.5h-90q-16 0 -19.5 3.5t-3.5 21.5v84q0 11 0.5 15.5t4 7.5t6 3h12.5h90h12t6 -3t3.5 -7.5t0.5 -15.5v-84zM246 -225q0 -57 -12.5 -102.5t-42.5 -85t-87.5 -61.5t-140.5 -22h-88v93h88q106 0 142 47t36 161v1295h105v-1325z" />
    <glyph glyph-name="k" unicode="k" horiz-adv-x="1062" 
d="M1022 0h-137l-471 627l-168 -133v-494h-103v1595h103v-987l620 492h154l-526 -412z" />
    <glyph glyph-name="l" unicode="l" horiz-adv-x="454" 
d="M444 -16h-82q-111 0 -165 60t-54 187v1364h103v-1364q0 -84 27.5 -117.5t88.5 -33.5h82v-96z" />
    <glyph glyph-name="m" unicode="m" horiz-adv-x="1748" 
d="M1616 0h-100v707q0 83 -8.5 141t-31 106.5t-65.5 72.5t-108 24q-42 0 -95 -22t-91 -46t-105 -70l-90 -61q10 -78 10 -127v-725h-103v725q0 62 -9 114t-30.5 103t-66 80t-107.5 29q-23 0 -47.5 -7.5t-59 -27.5t-50 -29.5t-60 -42t-49.5 -35.5l-104 -73v-836h-103v1100h72
l31 -162l119 84q2 1 24.5 17t27 19t25 16.5t28 17t26 13.5t29.5 13t28 8.5t32 7t31 1.5q209 0 285 -199l111 78q89 62 152.5 91.5t138.5 29.5q163 0 238 -100.5t75 -323.5v-711z" />
    <glyph glyph-name="n" unicode="n" horiz-adv-x="1144" 
d="M1014 0h-103v719q0 94 -19.5 160t-57 102t-83.5 52t-106 16t-116 -24t-162 -101l-121 -86v-838h-103v1100h70l33 -162l129 90q88 61 144.5 84t125.5 23q82 0 147.5 -23t116 -71t78 -129.5t27.5 -192.5v-719z" />
    <glyph glyph-name="o" unicode="o" horiz-adv-x="1142" 
d="M1042 553q0 -294 -110 -440t-361 -146t-361 146t-110 440q0 293 110 437.5t361 144.5t361 -144.5t110 -437.5zM934 553q0 268 -82.5 383t-280.5 115q-197 0 -281.5 -115.5t-84.5 -382.5t84 -384.5t282 -117.5q197 0 280 117.5t83 384.5z" />
    <glyph glyph-name="p" unicode="p" horiz-adv-x="1159" 
d="M1059 573q0 -291 -122 -448.5t-372 -157.5q-76 0 -150 23t-169 94v-578h-103v1594h76l21 -135q110 88 190 129t176 41q227 0 340 -150t113 -412zM952 573q0 478 -346 478q-60 0 -128 -28t-103.5 -52t-110.5 -81q-12 -9 -18 -13v-693q179 -133 319 -133q387 0 387 522z
" />
    <glyph glyph-name="q" unicode="q" horiz-adv-x="1159" 
d="M1016 -494h-103v562q-170 -101 -331 -101q-86 0 -156 16.5t-132 57t-104 105t-66 164t-24 229.5q0 136 23.5 239.5t64.5 170.5t103 109t133 59.5t160 17.5q190 0 432 -64v-1565zM913 158v848q-180 45 -329 45q-91 0 -158 -25t-118 -82.5t-77 -158.5t-26 -246
q0 -141 28 -239t81 -151t117.5 -75.5t150.5 -22.5q77 0 154 25.5t177 81.5z" />
    <glyph glyph-name="r" unicode="r" horiz-adv-x="690" 
d="M643 1032q-54 8 -74 8q-64 0 -115.5 -23.5t-121.5 -76.5l-94 -72v-868h-103v1100h66l30 -135l70 51q77 56 143.5 87.5t135.5 31.5q36 0 63 -7v-96z" />
    <glyph glyph-name="s" unicode="s" horiz-adv-x="976" 
d="M901 307q0 -158 -115 -249t-299 -91q-155 0 -259.5 52.5t-149.5 154.5l94 33q38 -78 123 -117t192 -39q132 0 221 65.5t89 190.5q0 173 -181 201l-280 47q-109 18 -171.5 85.5t-62.5 184.5q0 103 57.5 175t143.5 103.5t189 31.5q115 0 215 -41.5t149 -116.5l-82 -41
q-42 58 -117.5 86.5t-164.5 28.5q-61 0 -111.5 -12.5t-91 -38.5t-63.5 -70.5t-23 -104.5q0 -73 34.5 -118.5t124.5 -59.5l279 -45q118 -20 189 -95t71 -200z" />
    <glyph glyph-name="t" unicode="t" horiz-adv-x="804" 
d="M791 35q-113 -68 -275 -68q-123 0 -200.5 69.5t-77.5 215.5v762h-199v86h194v387l105 26v-413h389l-27 -86h-362v-762q0 -201 199 -201q104 0 194 55z" />
    <glyph glyph-name="u" unicode="u" horiz-adv-x="1144" 
d="M1001 0h-67l-33 164l-129 -90q-88 -61 -145.5 -84t-126.5 -23q-169 0 -268 100t-99 316v717h100v-717q0 -181 70.5 -255.5t196.5 -74.5q59 0 114 23.5t164 99.5l123 86v838h100v-1100z" />
    <glyph glyph-name="v" unicode="v" horiz-adv-x="1032" 
d="M985 1100l-399 -1100h-140l-397 1100h105l364 -1018l363 1018h104z" />
    <glyph glyph-name="w" unicode="w" horiz-adv-x="1568" 
d="M1520 1100l-330 -1100h-121l-285 967l-284 -967h-121l-330 1100h107l278 -985l291 985h117l291 -985l280 985h107z" />
    <glyph glyph-name="x" unicode="x" horiz-adv-x="1054" 
d="M1006 0h-123l-359 492l-352 -492h-119l402 559l-377 541h123l325 -465l328 465h117l-375 -531z" />
    <glyph glyph-name="y" unicode="y" horiz-adv-x="1032" 
d="M985 1100l-510 -1401q-40 -110 -111.5 -152.5t-197.5 -42.5h-103v97h103q101 0 142.5 25.5t76.5 121.5l78 213l-414 1139h105l364 -1016l363 1016h104z" />
    <glyph glyph-name="z" unicode="z" horiz-adv-x="991" 
d="M891 0h-791v121l684 891h-647l-26 88h776v-123l-690 -889h694v-88z" />
    <glyph glyph-name="braceleft" unicode="{" horiz-adv-x="696" 
d="M657 -334h-137q-233 0 -233 215v518q0 151 -133 179v92q133 28 133 178v516q0 215 233 215h137v-78h-137q-71 0 -102 -30.5t-31 -106.5v-516q0 -38 -16.5 -82t-54 -85t-87.5 -56q79 -24 118.5 -92.5t39.5 -133.5v-518q0 -76 31 -106.5t102 -30.5h137v-78z" />
    <glyph glyph-name="bar" unicode="|" horiz-adv-x="552" 
d="M326 -102h-97v1681h97v-1681z" />
    <glyph glyph-name="braceright" unicode="}" horiz-adv-x="696" 
d="M543 578q-133 -28 -133 -179v-518q0 -215 -234 -215h-137v78h137q71 0 102 30.5t31 106.5v518q0 40 13.5 82.5t50.5 84.5t90 57q-44 13 -76 40t-48 60.5t-23 64t-7 60.5v516q0 76 -31 106.5t-102 30.5h-137v78h137q234 0 234 -215v-516q0 -150 133 -178v-92z" />
    <glyph glyph-name="asciitilde" unicode="~" 
d="M1102 860q-52 -74 -118.5 -107.5t-156.5 -33.5q-53 0 -104 18t-91.5 44t-79.5 52t-83.5 44t-87.5 18q-90 0 -156.5 -33.5t-118.5 -107.5v92q52 74 118.5 107.5t156.5 33.5q59 0 113 -18t93.5 -44t76.5 -52t79 -44t84 -18q90 0 156.5 33.5t118.5 107.5v-92z" />
    <glyph glyph-name="uni00A0" unicode="&#xa0;" horiz-adv-x="471" 
 />
    <glyph glyph-name="exclamdown" unicode="&#xa1;" horiz-adv-x="518" 
d="M336 969q0 -18 -3 -21.5t-18 -3.5h-114q-15 0 -18 3.5t-3 21.5v108q0 17 3 20t18 3h114q15 0 18 -3t3 -20v-108zM313 -496h-108v797l26 414h58l24 -414v-797z" />
    <glyph glyph-name="cent" unicode="&#xa2;" 
d="M1026 1004h-86q-52 180 -283 180q-104 0 -174.5 -30.5t-110 -92.5t-55.5 -143t-16 -195q0 -241 79 -351t271 -110q111 0 175 33t106 86l72 -39q-61 -81 -131.5 -118.5t-176.5 -41.5v-284h-82v284q-225 10 -320 144t-95 397t95 397t320 144v299h82v-299q141 -9 225 -80
t105 -180z" />
    <glyph glyph-name="sterling" unicode="&#xa3;" 
d="M1090 1393l-68 -62q-115 94 -315 94q-163 0 -236.5 -68.5t-73.5 -213.5v-352h443v-89h-443v-421q0 -53 -18.5 -107t-52.5 -86h761v-88h-854v88q39 51 52.5 93.5t13.5 99.5v421h-178v89h178v352q0 170 96.5 268t311.5 98q251 0 383 -116z" />
    <glyph glyph-name="currency" unicode="&#xa4;" horiz-adv-x="1187" 
d="M1075 330q0 -15 -10 -25l-14 -14q-10 -10 -23 -10q-17 0 -31 14l-166 168q-107 -84 -239 -84q-134 0 -238 82l-164 -164q-14 -14 -30 -14q-13 0 -23 10l-14 14q-10 10 -10 23q0 16 14 30l162 162q-86 109 -86 244q0 133 84 240l-160 159q-14 14 -14 31q0 15 10 25l14 14
q8 8 21 8q18 0 32 -14l160 -160q107 84 240 84q135 0 244 -86l163 164q14 14 31 14q13 0 23 -10l14 -14q10 -10 10 -23q0 -17 -14 -31l-164 -163q82 -104 82 -238q0 -133 -84 -240l166 -166q14 -14 14 -30zM895 766q0 125 -89 213t-214 88q-126 0 -214.5 -87.5t-88.5 -213.5
t88.5 -214.5t214.5 -88.5t214.5 88.5t88.5 214.5z" />
    <glyph glyph-name="yen" unicode="&#xa5;" 
d="M1139 631h-463l-29 -60v-571h-102v571l-29 60h-461v78h420l-117 233h-303v78h264l-227 457h107l397 -818l397 818h107l-228 -457h267v-78h-305l-117 -233h422v-78z" />
    <glyph glyph-name="brokenbar" unicode="&#xa6;" horiz-adv-x="552" 
d="M328 961h-101v575h101v-575zM328 0h-101v575h101v-575z" />
    <glyph glyph-name="section" unicode="&#xa7;" horiz-adv-x="1187" 
d="M995 154q0 -200 -106 -291.5t-311 -91.5h-400v297h88v-213h312q175 0 248 66.5t73 232.5q0 107 -43 174t-143 94l-285 74q-136 35 -192 127t-56 245v224q0 200 98 292.5t291 92.5h426v-248h-88v162h-338q-165 0 -230 -70.5t-65 -235.5q0 -49 16.5 -90.5t60 -77.5
t110.5 -53l284 -71q250 -63 250 -369v-270zM901 412q0 140 -38.5 204t-145.5 91l-283 71q-100 26 -166 105q0 -128 39.5 -201t149.5 -102l282 -74q103 -28 162 -94z" />
    <glyph glyph-name="dieresis" unicode="&#xa8;" horiz-adv-x="868" 
d="M737 1382q0 -18 -3 -21t-19 -3h-103q-16 0 -19 3t-3 21v97q0 5 0.5 8.5t0 6.5t1 4.5t1.5 2.5t3 1.5t4 0.5h5.5h6.5h103h6.5h5.5t4 -0.5t3 -1.5t1.5 -2.5t1 -4.5t0 -6.5t0.5 -8.5v-97zM281 1382q0 -18 -3.5 -21t-19.5 -3h-100q-16 0 -19.5 3t-3.5 21v97q0 18 3 21t15 3h5
h100h5q12 0 15 -3t3 -21v-97z" />
    <glyph glyph-name="copyright" unicode="&#xa9;" horiz-adv-x="1769" 
d="M1657 739q0 -209 -103.5 -386.5t-281 -280.5t-387.5 -103t-387.5 103t-281 280.5t-103.5 386.5q0 157 61 300t164.5 246.5t246.5 164.5t300 61t300 -61t246.5 -164.5t164.5 -246.5t61 -300zM1571 739q0 140 -54.5 267t-146 219.5t-218.5 147t-267 54.5t-267 -54.5
t-218.5 -147t-146 -219.5t-54.5 -267q0 -186 92 -344t250 -250t344 -92t344 92t250 250t92 344zM1219 424q-19 -37 -42 -65t-60 -54.5t-93 -40.5t-127 -14q-98 0 -169.5 24.5t-114.5 65.5t-69 105t-35 131.5t-9 156.5q0 121 17.5 205.5t60 149t119 95.5t188.5 31
q83 0 145.5 -19t99 -53t56.5 -72.5t26 -84.5h-79q-32 158 -248 158q-59 0 -104.5 -11t-77 -29t-54 -49t-35 -62t-19.5 -77t-9 -86t-2 -96q0 -51 2 -89t10 -83t21 -77t36.5 -64t56 -52t80 -32t107.5 -12q95 0 156 32.5t100 106.5z" />
    <glyph glyph-name="ordfeminine" unicode="&#xaa;" horiz-adv-x="690" 
d="M578 932h-50l-24 53q-91 -70 -203 -70q-96 0 -142 49.5t-46 135.5q0 174 202 174q92 0 187 -25v97q0 47 -26 73.5t-101 26.5q-115 0 -166 -64l-57 35q60 92 223 92q64 0 106.5 -14t62.5 -39t27 -50.5t7 -59.5v-414zM502 1044v152q-98 16 -160 16q-149 0 -149 -112
q0 -65 30 -95t78 -30q56 0 100 16.5t101 52.5z" />
    <glyph glyph-name="guillemotleft" unicode="&#xab;" horiz-adv-x="1122" 
d="M989 229l-67 -57l-349 379l349 379l67 -58l-270 -321zM545 229l-66 -57l-346 379l346 379l66 -58l-271 -321z" />
    <glyph glyph-name="logicalnot" unicode="&#xac;" 
d="M1114 367h-84v665h-936v84h1020v-749z" />
    <glyph glyph-name="uni00AD" unicode="&#xad;" horiz-adv-x="722" 
d="M657 627h-591v96h591v-96z" />
    <glyph glyph-name="registered" unicode="&#xae;" horiz-adv-x="1769" 
d="M1657 739q0 -209 -103.5 -386.5t-281 -280.5t-387.5 -103t-387.5 103t-281 280.5t-103.5 386.5q0 157 61 300t164.5 246.5t246.5 164.5t300 61t300 -61t246.5 -164.5t164.5 -246.5t61 -300zM1571 739q0 140 -54.5 267t-146 219.5t-218.5 147t-267 54.5t-267 -54.5
t-218.5 -147t-146 -219.5t-54.5 -267q0 -186 92 -344t250 -250t344 -92t344 92t250 250t92 344zM1235 276h-98l-224 345q-15 29 -20 55h-264v-400h-80v934h342q170 0 249 -71t79 -195q0 -103 -57 -169.5t-189 -94.5zM1137 944q0 197 -244 197h-264v-391h262q119 0 182.5 44
t63.5 150z" />
    <glyph glyph-name="macron" unicode="&#xaf;" horiz-adv-x="897" 
d="M766 1362h-633v94h633v-94z" />
    <glyph glyph-name="degree" unicode="&#xb0;" horiz-adv-x="667" 
d="M596 1245q0 -109 -76.5 -185.5t-185.5 -76.5t-185.5 76.5t-76.5 185.5t76.5 185.5t185.5 76.5t185.5 -76.5t76.5 -185.5zM510 1245q0 74 -51 126t-125 52t-125 -52t-51 -126q0 -73 51 -124.5t125 -51.5t125 51.5t51 124.5z" />
    <glyph glyph-name="plusminus" unicode="&#xb1;" 
d="M1143 780h-492v-491h-90v491h-495v86h495v490h90v-490h492v-86zM1143 -2h-1077v86h1077v-86z" />
    <glyph glyph-name="two.superior" unicode="&#xb2;" horiz-adv-x="694" 
d="M618 1286q0 -49 -17 -92t-52 -80.5t-66 -63t-80 -59.5q-89 -62 -149 -124t-86 -142h367v127h81v-207h-550q3 62 21.5 117t40.5 91.5t63 77t68.5 61.5t76.5 57q49 35 75 55t57.5 51.5t45.5 63t14 67.5q0 158 -161 158q-176 0 -205 -144h-84q7 42 23.5 78.5t48.5 71.5
t87.5 55.5t129.5 20.5q113 0 182 -62t69 -178z" />
    <glyph glyph-name="three.superior" unicode="&#xb3;" horiz-adv-x="694" 
d="M637 895q0 -132 -79 -200t-216 -68q-111 0 -180 41.5t-119 134.5l76 39q42 -73 90.5 -105t132.5 -32q99 0 152 49t53 141q0 80 -48 123t-124 43h-135l-23 84h158q66 0 110.5 38.5t44.5 119.5q0 145 -172 145q-73 0 -125 -27.5t-86 -93.5l-75 35q44 85 113.5 124.5
t172.5 39.5q138 0 200.5 -62.5t62.5 -160.5q0 -56 -27.5 -109t-83.5 -88q62 -32 94.5 -87t32.5 -124z" />
    <glyph glyph-name="acute" unicode="&#xb4;" horiz-adv-x="669" 
d="M543 1528l-353 -291q-11 -9 -24 4l-25 23q-10 10 -2 18l307 346z" />
    <glyph glyph-name="mu" unicode="&#xb5;" horiz-adv-x="1132" 
d="M1001 0h-69l-33 162l-129 -90q-83 -57 -146 -81t-126 -24q-174 0 -265 94v-479h-100v1518h100v-719q0 -93 19.5 -159.5t56.5 -103t83 -53t106 -16.5q57 0 115 26t163 101l123 88v836h102v-1100z" />
    <glyph glyph-name="paragraph" unicode="&#xb6;" horiz-adv-x="1017" 
d="M864 0h-80v1397h-112v-1397h-80v793h-139q-136 0 -233 100.5t-97 241.5t97 241.5t233 100.5h411v-1477z" />
    <glyph glyph-name="periodcentered" unicode="&#xb7;" horiz-adv-x="466" 
d="M313 819q0 -19 -2.5 -21.5t-17.5 -2.5h-125q-16 0 -19.5 3t-3.5 21v117q0 19 3.5 23t19.5 4h125q15 0 17.5 -3.5t2.5 -23.5v-117z" />
    <glyph glyph-name="cedilla" unicode="&#xb8;" horiz-adv-x="618" 
d="M498 -221q0 -146 -205 -146q-45 0 -96 7l-74 10l8 55l72 -10q36 -4 69 -4q138 0 138 88q0 32 -23 49.5t-57 17.5h-131l-52 70l72 86l62 -4l-60 -90h109q168 0 168 -129z" />
    <glyph glyph-name="one.superior" unicode="&#xb9;" horiz-adv-x="694" 
d="M582 645h-482v80h195v696q-40 -9 -195 -43v84l287 62v-799h195v-80z" />
    <glyph glyph-name="ordmasculine" unicode="&#xba;" horiz-adv-x="729" 
d="M616 1212q0 -147 -59 -222t-192 -75q-134 0 -193 75t-59 222t59 222t193 75q133 0 192 -75t59 -222zM539 1212q0 127 -40 181.5t-134 54.5t-134.5 -54.5t-40.5 -181.5t40.5 -181t134.5 -54t134 54t40 181z" />
    <glyph glyph-name="guillemotright" unicode="&#xbb;" horiz-adv-x="1122" 
d="M989 551l-348 -379l-63 57l270 322l-270 321l63 58zM549 551l-350 -379l-66 57l270 322l-270 321l66 58z" />
    <glyph glyph-name="onequarter" unicode="&#xbc;" horiz-adv-x="1603" 
d="M582 645h-482v80h195v696q-40 -9 -195 -43v84l287 62v-799h195v-80zM1366 1509l-993 -1542h-86l995 1542h84zM1503 231h-92v-231h-88v231h-446v88l438 543h96v-549h92v-82zM1323 313v428l-342 -428h342z" />
    <glyph glyph-name="onehalf" unicode="&#xbd;" horiz-adv-x="1662" 
d="M582 645h-482v80h195v696q-40 -9 -195 -43v84l287 62v-799h195v-80zM1366 1509l-993 -1542h-86l995 1542h84zM1563 641q0 -49 -17 -92t-52 -80.5t-66 -63t-80 -59.5q-89 -63 -149.5 -124.5t-86.5 -141.5h367v127h82v-207h-551q2 45 12 86t23 72t36.5 63t42 53t50.5 48
t51.5 41t54.5 40q49 34 75 55t58 52t46 63t14 68q0 158 -162 158q-176 0 -205 -144h-84q7 42 23.5 78.5t48.5 71.5t87.5 55.5t129.5 20.5q113 0 182.5 -62t69.5 -178z" />
    <glyph glyph-name="threequarters" unicode="&#xbe;" horiz-adv-x="1660" 
d="M1423 1509l-993 -1542h-86l995 1542h84zM1561 231h-93v-231h-88v231h-446v88l438 543h96v-549h93v-82zM1380 313v428l-342 -428h342zM694 895q0 -132 -79 -200t-216 -68q-111 0 -180 41.5t-119 134.5l76 39q42 -73 90.5 -105t132.5 -32q99 0 152 49t53 141q0 80 -48 123
t-124 43h-135l-23 84h158q67 0 111.5 38.5t44.5 119.5q0 145 -172 145q-73 0 -125 -27.5t-86 -93.5l-76 35q44 84 114 124t173 40q138 0 200 -62.5t62 -160.5q0 -56 -27.5 -109t-83.5 -88q62 -32 94.5 -87t32.5 -124z" />
    <glyph glyph-name="questiondown" unicode="&#xbf;" horiz-adv-x="1003" 
d="M643 969q0 -19 -2.5 -22t-17.5 -3h-115q-15 0 -18 3.5t-3 21.5v108q0 17 3 20t18 3h115q15 0 17.5 -3t2.5 -20v-108zM940 -166q-2 -57 -12.5 -104.5t-40.5 -97.5t-77 -84t-128 -56t-188 -22q-194 0 -299 96.5t-105 292.5v41q0 104 49.5 180.5t147.5 159.5
q118 101 146 131q63 69 76 155q5 33 5 76v131h109v-131q0 -59 -13.5 -110t-34 -88.5t-53 -74.5t-61.5 -63t-68 -59q-19 -15 -28 -23q-105 -89 -135.5 -143t-30.5 -141v-41q0 -148 69.5 -222.5t225.5 -74.5q181 0 259.5 64.5t86.5 207.5h100z" />
    <glyph glyph-name="Agrave" unicode="&#xc0;" horiz-adv-x="1318" 
d="M1257 0h-104l-172 479h-651l-172 -479h-97l533 1477h133zM948 571l-293 826l-293 -826h586zM371 1870l352 -291q12 -9 25 4l24 23q10 10 2 18l-307 346z" />
    <glyph glyph-name="Aacute" unicode="&#xc1;" horiz-adv-x="1318" 
d="M1257 0h-104l-172 479h-651l-172 -479h-97l533 1477h133zM948 571l-293 826l-293 -826h586zM944 1870l-352 -291q-12 -9 -25 4l-24 23q-10 10 -2 18l307 346z" />
    <glyph glyph-name="Acircumflex" unicode="&#xc2;" horiz-adv-x="1318" 
d="M1257 0h-104l-172 479h-651l-172 -479h-97l533 1477h133zM948 571l-293 826l-293 -826h586zM958 1620l-47 -45l-252 235l-251 -235l-48 45l261 311q23 29 38 29q16 0 39 -29z" />
    <glyph glyph-name="Atilde" unicode="&#xc3;" horiz-adv-x="1318" 
d="M1257 0h-104l-172 479h-651l-172 -479h-97l533 1477h133zM948 571l-293 826l-293 -826h586zM1026 1806l-131 -176q-35 -47 -82 -47q-39 0 -82 27l-182 110q-30 19 -43 19q-8 0 -15 -3t-10 -6.5t-12 -13.5t-14 -16l-113 -125l-49 39l129 178q33 45 82 45q38 0 82 -27
l186 -112q24 -15 39 -15q11 0 19 4t12.5 8.5t19.5 22.5l113 129z" />
    <glyph glyph-name="Adieresis" unicode="&#xc4;" horiz-adv-x="1318" 
d="M1257 0h-104l-172 479h-651l-172 -479h-97l533 1477h133zM948 571l-293 826l-293 -826h586zM956 1700q0 -18 -3 -21.5t-19 -3.5h-103q-15 0 -18.5 3.5t-3.5 21.5v96q0 19 3 22t19 3h103h12t6 -2.5t4 -7v-15.5v-96zM500 1700q0 -18 -3.5 -21.5t-19.5 -3.5h-100
q-16 0 -19.5 3.5t-3.5 21.5v96q0 19 3.5 22t19.5 3h100q18 0 20.5 -4.5t2.5 -20.5v-96z" />
    <glyph glyph-name="Aring" unicode="&#xc5;" horiz-adv-x="1318" 
d="M1257 0h-104l-172 479h-651l-172 -479h-97l533 1477h133zM948 571l-293 826l-293 -826h586zM883 1800q0 -92 -66.5 -157.5t-159.5 -65.5q-92 0 -157.5 65.5t-65.5 157.5t65.5 157.5t157.5 65.5q93 0 159.5 -65.5t66.5 -157.5zM805 1800q0 61 -43 103.5t-105 42.5
q-61 0 -103 -42t-42 -104t42 -104.5t103 -42.5q62 0 105 43t43 104z" />
    <glyph glyph-name="AE" unicode="&#xc6;" horiz-adv-x="2009" 
d="M1927 0h-903v479h-555l-293 -479h-108l899 1477h958v-86h-801v-566h705l-25 -88h-680v-651h803v-86zM1024 571v820l-500 -820h500z" />
    <glyph glyph-name="Ccedilla" unicode="&#xc7;" horiz-adv-x="1226" 
d="M1155 231q-127 -264 -473 -264h-33l-35 -53h101q155 0 155 -119q0 -135 -190 -135q-48 0 -88 6l-68 10l6 52l68 -11q36 -4 64 -4q126 0 126 82q0 30 -21 47t-52 17h-121l-47 63l41 49q-116 12 -203 56.5t-142.5 111.5t-89.5 163.5t-47.5 201t-13.5 235.5q0 192 29 330.5
t95 239.5t177.5 150.5t272.5 49.5q96 0 174 -20.5t131 -53.5t91 -79t57.5 -93t27.5 -100h-88q-25 117 -121 187.5t-274 70.5q-89 0 -159.5 -19t-119 -50t-83.5 -82t-55 -104.5t-31.5 -128.5t-15 -141.5t-3.5 -156.5q0 -81 4 -145.5t16 -138t33 -129t58 -108.5t87 -87.5
t123 -55t164 -20.5q284 0 399 224z" />
    <glyph glyph-name="Egrave" unicode="&#xc8;" horiz-adv-x="1118" 
d="M1036 0h-903v1477h901v-86h-801v-566h705l-25 -88h-680v-651h803v-86zM272 1870l353 -291q11 -9 24 4l25 23q10 10 2 18l-307 346z" />
    <glyph glyph-name="Eacute" unicode="&#xc9;" horiz-adv-x="1118" 
d="M1036 0h-903v1477h901v-86h-801v-566h705l-25 -88h-680v-651h803v-86zM844 1870l-352 -291q-12 -9 -25 4l-25 23q-10 10 -2 18l308 346z" />
    <glyph glyph-name="Ecircumflex" unicode="&#xca;" horiz-adv-x="1118" 
d="M1036 0h-903v1477h901v-86h-801v-566h705l-25 -88h-680v-651h803v-86zM879 1620l-48 -45l-251 235l-252 -235l-47 45l260 311q23 29 39 29q15 0 38 -29z" />
    <glyph glyph-name="Edieresis" unicode="&#xcb;" horiz-adv-x="1118" 
d="M1036 0h-903v1477h901v-86h-801v-566h705l-25 -88h-680v-651h803v-86zM887 1698q0 -18 -3.5 -21.5t-19.5 -3.5h-102q-16 0 -19.5 3.5t-3.5 21.5v96q0 19 3.5 22t19.5 3h102q18 0 20.5 -4.5t2.5 -20.5v-96zM430 1698q0 -18 -3 -21.5t-19 -3.5h-101q-15 0 -18.5 3.5
t-3.5 21.5v96q0 19 3 22t19 3h101h12t6 -2.5t4 -7v-15.5v-96z" />
    <glyph glyph-name="Igrave" unicode="&#xcc;" horiz-adv-x="366" 
d="M233 0h-100v1477h100v-1477zM-102 1870l352 -291q11 -9 24 4l25 23q10 10 2 18l-307 346z" />
    <glyph glyph-name="Iacute" unicode="&#xcd;" horiz-adv-x="366" 
d="M233 0h-100v1477h100v-1477zM469 1872l-352 -291q-12 -9 -25 4l-24 23q-10 10 -2 18l307 346z" />
    <glyph glyph-name="Icircumflex" unicode="&#xce;" horiz-adv-x="366" 
d="M233 0h-100v1477h100v-1477zM483 1620l-47 -45l-252 235l-252 -235l-47 45l260 311q23 29 39 29t39 -29z" />
    <glyph glyph-name="Idieresis" unicode="&#xcf;" horiz-adv-x="366" 
d="M233 0h-100v1477h100v-1477zM485 1698q0 -18 -3.5 -21.5t-18.5 -3.5h-103q-16 0 -19 3.5t-3 21.5v96q0 19 3 22t19 3h103h12t6 -2.5t4 -7v-15.5v-96zM29 1698q0 -18 -3.5 -21.5t-19.5 -3.5h-100q-16 0 -19.5 3.5t-3.5 21.5v96q0 19 3.5 22t19.5 3h100q18 0 20.5 -4.5
t2.5 -20.5v-96z" />
    <glyph glyph-name="Eth" unicode="&#xd0;" horiz-adv-x="1302" 
d="M1231 756q0 -132 -23.5 -243.5t-76.5 -207.5t-133 -162.5t-199.5 -104.5t-270.5 -38h-393v737h-178v82h178v658h393q185 0 322.5 -53t219.5 -151t121.5 -226.5t39.5 -290.5zM1126 756q0 635 -598 635h-292v-572h253l-22 -82h-231v-651h292q598 0 598 670z" />
    <glyph glyph-name="Ntilde" unicode="&#xd1;" horiz-adv-x="1411" 
d="M1278 0h-107l-938 1321v-1321h-100v1477h107l940 -1323l-2 1323h100v-1477zM1071 1802l-131 -176q-35 -47 -82 -47q-38 0 -82 27l-182 110q-30 19 -43 19q-8 0 -15 -3t-10 -6.5t-12 -13.5t-14 -16l-113 -125l-49 39l129 178q33 45 82 45q39 0 82 -27l186 -112
q24 -15 39 -15q11 0 19 4t12.5 8.5t19.5 22.5l113 129z" />
    <glyph glyph-name="Ograve" unicode="&#xd2;" horiz-adv-x="1361" 
d="M1270 756q0 -151 -16.5 -267.5t-57 -217t-107 -166t-170 -102t-241.5 -36.5t-240.5 36.5t-168.5 101.5t-106 166t-55.5 217t-15.5 268q0 136 15.5 244t56 206t105.5 162.5t168.5 102.5t240.5 38t241 -38t170 -102.5t107.5 -162t57.5 -206t16 -244.5zM1165 756
q0 128 -13.5 226t-47 183t-88 139.5t-139.5 85.5t-199 31q-115 0 -199.5 -31t-138 -85.5t-86 -140t-45 -183t-12.5 -225.5q0 -141 12.5 -245t45 -193.5t86.5 -145t138 -86.5t199 -31q143 0 239 45.5t150 139.5t76 217t22 299zM414 1870l352 -291q12 -9 25 4l24 23
q10 10 2 18l-307 346z" />
    <glyph glyph-name="Oacute" unicode="&#xd3;" horiz-adv-x="1361" 
d="M1270 756q0 -151 -16.5 -267.5t-57 -217t-107 -166t-170 -102t-241.5 -36.5t-240.5 36.5t-168.5 101.5t-106 166t-55.5 217t-15.5 268q0 136 15.5 244t56 206t105.5 162.5t168.5 102.5t240.5 38t241 -38t170 -102.5t107.5 -162t57.5 -206t16 -244.5zM1165 756
q0 128 -13.5 226t-47 183t-88 139.5t-139.5 85.5t-199 31q-115 0 -199.5 -31t-138 -85.5t-86 -140t-45 -183t-12.5 -225.5q0 -141 12.5 -245t45 -193.5t86.5 -145t138 -86.5t199 -31q143 0 239 45.5t150 139.5t76 217t22 299zM967 1874l-353 -291q-11 -9 -24 4l-25 23
q-10 10 -2 18l307 346z" />
    <glyph glyph-name="Ocircumflex" unicode="&#xd4;" horiz-adv-x="1361" 
d="M1270 756q0 -151 -16.5 -267.5t-57 -217t-107 -166t-170 -102t-241.5 -36.5t-240.5 36.5t-168.5 101.5t-106 166t-55.5 217t-15.5 268q0 136 15.5 244t56 206t105.5 162.5t168.5 102.5t240.5 38t241 -38t170 -102.5t107.5 -162t57.5 -206t16 -244.5zM1165 756
q0 128 -13.5 226t-47 183t-88 139.5t-139.5 85.5t-199 31q-115 0 -199.5 -31t-138 -85.5t-86 -140t-45 -183t-12.5 -225.5q0 -141 12.5 -245t45 -193.5t86.5 -145t138 -86.5t199 -31q143 0 239 45.5t150 139.5t76 217t22 299zM979 1622l-47 -45l-252 235l-252 -235l-47 45
l260 311q23 29 39 29t39 -29z" />
    <glyph glyph-name="Otilde" unicode="&#xd5;" horiz-adv-x="1361" 
d="M1270 756q0 -151 -16.5 -267.5t-57 -217t-107 -166t-170 -102t-241.5 -36.5t-240.5 36.5t-168.5 101.5t-106 166t-55.5 217t-15.5 268q0 136 15.5 244t56 206t105.5 162.5t168.5 102.5t240.5 38t241 -38t170 -102.5t107.5 -162t57.5 -206t16 -244.5zM1165 756
q0 128 -13.5 226t-47 183t-88 139.5t-139.5 85.5t-199 31q-115 0 -199.5 -31t-138 -85.5t-86 -140t-45 -183t-12.5 -225.5q0 -141 12.5 -245t45 -193.5t86.5 -145t138 -86.5t199 -31q143 0 239 45.5t150 139.5t76 217t22 299zM1047 1806l-132 -176q-35 -47 -81 -47
q-38 0 -82 27l-183 110q-30 19 -43 19q-8 0 -15 -3t-10 -6.5t-12 -13.5t-14 -16l-113 -125l-49 39l129 178q33 45 82 45q38 0 82 -27l187 -112q24 -15 38 -15q16 0 24.5 6t27.5 29l112 129z" />
    <glyph glyph-name="Odieresis" unicode="&#xd6;" horiz-adv-x="1361" 
d="M1270 756q0 -151 -16.5 -267.5t-57 -217t-107 -166t-170 -102t-241.5 -36.5t-240.5 36.5t-168.5 101.5t-106 166t-55.5 217t-15.5 268q0 136 15.5 244t56 206t105.5 162.5t168.5 102.5t240.5 38t241 -38t170 -102.5t107.5 -162t57.5 -206t16 -244.5zM1165 756
q0 128 -13.5 226t-47 183t-88 139.5t-139.5 85.5t-199 31q-115 0 -199.5 -31t-138 -85.5t-86 -140t-45 -183t-12.5 -225.5q0 -141 12.5 -245t45 -193.5t86.5 -145t138 -86.5t199 -31q143 0 239 45.5t150 139.5t76 217t22 299zM981 1696q0 -18 -3.5 -21.5t-19.5 -3.5h-102
q-16 0 -19 3.5t-3 21.5v96q0 19 3 22t19 3h102q18 0 20.5 -4.5t2.5 -20.5v-96zM524 1696q0 -18 -3 -21.5t-19 -3.5h-101q-15 0 -18.5 3.5t-3.5 21.5v96q0 19 3 22t19 3h101h12t6 -2.5t4 -7v-15.5v-96z" />
    <glyph glyph-name="multiply" unicode="&#xd7;" 
d="M1047 1114l-381 -379l376 -377l-59 -61l-377 377l-381 -379l-61 63l379 379l-379 381l59 60l379 -379l381 379z" />
    <glyph glyph-name="Oslash" unicode="&#xd8;" horiz-adv-x="1361" 
d="M1311 1509l-162 -215q121 -182 121 -538q0 -151 -16.5 -267.5t-57 -217t-107 -166t-170 -102t-241.5 -36.5q-276 0 -416 146l-106 -146h-103l158 211q-119 185 -119 578q0 136 15.5 244t56 206t105.5 162.5t168.5 102.5t240.5 38q272 0 418 -149l112 149h103zM1036 1282
q-117 139 -358 139q-115 0 -199.5 -31t-138 -85.5t-86 -140t-45 -183t-12.5 -225.5q0 -331 79 -490zM1165 756q0 301 -80 454l-761 -1017q113 -138 354 -138q143 0 239 45.5t150 139.5t76 217t22 299z" />
    <glyph glyph-name="Ugrave" unicode="&#xd9;" horiz-adv-x="1380" 
d="M1257 602q0 -169 -40.5 -293t-117 -198t-178 -109t-231.5 -35t-231.5 35t-178 109t-117 198t-40.5 293v875h100v-875q0 -282 117.5 -414.5t349.5 -132.5t349.5 132t117.5 415v875h100v-875zM403 1870l353 -291q11 -9 24 4l25 23q10 10 2 18l-307 346z" />
    <glyph glyph-name="Uacute" unicode="&#xda;" horiz-adv-x="1380" 
d="M1257 602q0 -169 -40.5 -293t-117 -198t-178 -109t-231.5 -35t-231.5 35t-178 109t-117 198t-40.5 293v875h100v-875q0 -282 117.5 -414.5t349.5 -132.5t349.5 132t117.5 415v875h100v-875zM979 1870l-352 -291q-12 -9 -25 4l-24 23q-10 10 -3 18l308 346z" />
    <glyph glyph-name="Ucircumflex" unicode="&#xdb;" horiz-adv-x="1380" 
d="M1257 602q0 -169 -40.5 -293t-117 -198t-178 -109t-231.5 -35t-231.5 35t-178 109t-117 198t-40.5 293v875h100v-875q0 -282 117.5 -414.5t349.5 -132.5t349.5 132t117.5 415v875h100v-875zM989 1622l-47 -45l-252 235l-252 -235l-47 45l260 311q23 29 39 29t39 -29z" />
    <glyph glyph-name="Udieresis" unicode="&#xdc;" horiz-adv-x="1380" 
d="M1257 602q0 -169 -40.5 -293t-117 -198t-178 -109t-231.5 -35t-231.5 35t-178 109t-117 198t-40.5 293v875h100v-875q0 -282 117.5 -414.5t349.5 -132.5t349.5 132t117.5 415v875h100v-875zM991 1696q0 -18 -3 -21.5t-19 -3.5h-103q-16 0 -19 3.5t-3 21.5v96q0 19 3 22
t19 3h103h12t6 -2.5t4 -7v-15.5v-96zM535 1696q0 -18 -3.5 -21.5t-19.5 -3.5h-100q-16 0 -19.5 3.5t-3.5 21.5v96q0 19 3.5 22t19.5 3h100q18 0 20.5 -4.5t2.5 -20.5v-96z" />
    <glyph glyph-name="Yacute" unicode="&#xdd;" horiz-adv-x="1251" 
d="M1190 1477l-514 -877v-600h-101v600l-514 877h107l459 -787l458 787h105zM911 1874l-352 -291q-11 -9 -24 4l-25 23q-10 10 -2 18l307 346z" />
    <glyph glyph-name="Thorn" unicode="&#xde;" horiz-adv-x="1169" 
d="M1098 784q0 -96 -28 -174.5t-86 -141t-158 -97.5t-234 -35h-359v-336h-100v1477h100v-244h359q134 0 233.5 -34.5t158 -97.5t86.5 -142t28 -175zM995 784q0 363 -403 363h-359v-725h359q403 0 403 362z" />
    <glyph glyph-name="germandbls" unicode="&#xdf;" horiz-adv-x="1196" 
d="M1085 426q0 -215 -132 -337t-392 -122v76q221 0 318.5 93.5t97.5 289.5q0 70 -20.5 126.5t-57 92.5t-79 61.5t-93 38t-92 18t-82.5 5.5h-45v80h45q90 0 169.5 42t132 126t52.5 192q0 165 -85 250.5t-238 85.5q-173 0 -254.5 -72t-81.5 -237v-1235h-105v1235
q0 194 111.5 293.5t329.5 99.5q108 0 191.5 -34.5t133 -94t74.5 -133t25 -158.5q0 -123 -72 -230.5t-205 -160.5q170 -25 262 -137.5t92 -253.5z" />
    <glyph glyph-name="agrave" unicode="&#xe0;" horiz-adv-x="1107" 
d="M965 0h-68l-25 125q-186 -158 -421 -158q-177 0 -264 93.5t-87 258.5q0 76 23 136t61 97t91 60.5t108 33t117 9.5q161 0 364 -63v231q0 47 -14 86t-45 72t-88 51.5t-135 18.5q-126 0 -201 -22t-127 -87l-70 47q56 79 154.5 112.5t243.5 33.5q91 0 161.5 -21t111.5 -53.5
t66.5 -76t34.5 -82t9 -79.5v-823zM864 209v307q-198 59 -364 59q-41 0 -77 -5t-78 -21.5t-71 -43t-49 -74.5t-20 -112q0 -268 246 -268q117 0 204 34t209 124zM272 1528l353 -291q11 -9 24 4l25 23q10 10 2 18l-307 346z" />
    <glyph glyph-name="aacute" unicode="&#xe1;" horiz-adv-x="1107" 
d="M965 0h-68l-25 125q-186 -158 -421 -158q-177 0 -264 93.5t-87 258.5q0 76 23 136t61 97t91 60.5t108 33t117 9.5q161 0 364 -63v231q0 47 -14 86t-45 72t-88 51.5t-135 18.5q-126 0 -201 -22t-127 -87l-70 47q56 79 154.5 112.5t243.5 33.5q91 0 161.5 -21t111.5 -53.5
t66.5 -76t34.5 -82t9 -79.5v-823zM864 209v307q-198 59 -364 59q-41 0 -77 -5t-78 -21.5t-71 -43t-49 -74.5t-20 -112q0 -268 246 -268q117 0 204 34t209 124zM877 1528l-353 -291q-11 -9 -24 4l-25 23q-10 10 -2 18l307 346z" />
    <glyph glyph-name="acircumflex" unicode="&#xe2;" horiz-adv-x="1107" 
d="M965 0h-68l-25 125q-186 -158 -421 -158q-177 0 -264 93.5t-87 258.5q0 76 23 136t61 97t91 60.5t108 33t117 9.5q161 0 364 -63v231q0 47 -14 86t-45 72t-88 51.5t-135 18.5q-126 0 -201 -22t-127 -87l-70 47q56 79 154.5 112.5t243.5 33.5q91 0 161.5 -21t111.5 -53.5
t66.5 -76t34.5 -82t9 -79.5v-823zM864 209v307q-198 59 -364 59q-41 0 -77 -5t-78 -21.5t-71 -43t-49 -74.5t-20 -112q0 -268 246 -268q117 0 204 34t209 124zM852 1272l-47 -45l-252 235l-252 -235l-47 45l260 311q23 29 39 29t39 -29z" />
    <glyph glyph-name="atilde" unicode="&#xe3;" horiz-adv-x="1107" 
d="M965 0h-68l-25 125q-186 -158 -421 -158q-177 0 -264 93.5t-87 258.5q0 76 23 136t61 97t91 60.5t108 33t117 9.5q161 0 364 -63v231q0 47 -14 86t-45 72t-88 51.5t-135 18.5q-126 0 -201 -22t-127 -87l-70 47q56 79 154.5 112.5t243.5 33.5q91 0 161.5 -21t111.5 -53.5
t66.5 -76t34.5 -82t9 -79.5v-823zM864 209v307q-198 59 -364 59q-41 0 -77 -5t-78 -21.5t-71 -43t-49 -74.5t-20 -112q0 -268 246 -268q117 0 204 34t209 124zM920 1499l-132 -176q-35 -47 -81 -47q-39 0 -82 27l-183 110q-30 19 -43 19q-8 0 -15 -3t-10 -6.5t-12 -13.5
t-14 -16l-112 -125l-50 39l129 178q33 45 82 45q39 0 82 -27l187 -112q24 -15 39 -15q11 0 19 4t12.5 8.5t19.5 22.5l112 129z" />
    <glyph glyph-name="adieresis" unicode="&#xe4;" horiz-adv-x="1107" 
d="M965 0h-68l-25 125q-186 -158 -421 -158q-177 0 -264 93.5t-87 258.5q0 76 23 136t61 97t91 60.5t108 33t117 9.5q161 0 364 -63v231q0 47 -14 86t-45 72t-88 51.5t-135 18.5q-126 0 -201 -22t-127 -87l-70 47q56 79 154.5 112.5t243.5 33.5q91 0 161.5 -21t111.5 -53.5
t66.5 -76t34.5 -82t9 -79.5v-823zM864 209v307q-198 59 -364 59q-41 0 -77 -5t-78 -21.5t-71 -43t-49 -74.5t-20 -112q0 -268 246 -268q117 0 204 34t209 124zM854 1382q0 -18 -3.5 -21t-19.5 -3h-102q-16 0 -19 3t-3 21v97q0 5 0.5 8.5t0 6.5t1 4.5t1.5 2.5t3 1.5t4 0.5
h5.5h6.5h102h5q12 0 15 -3t3 -21v-97zM397 1382q0 -18 -3 -21t-19 -3h-101q-16 0 -19 3t-3 21v97q0 5 0.5 8.5t0 6.5t1 4.5t1.5 2.5t3 1.5t4 0.5h5.5h6.5h101h6.5h5.5t4 -0.5t3 -1.5t1.5 -2.5t1 -4.5t0 -6.5t0.5 -8.5v-97z" />
    <glyph glyph-name="aring" unicode="&#xe5;" horiz-adv-x="1107" 
d="M965 0h-68l-25 125q-186 -158 -421 -158q-177 0 -264 93.5t-87 258.5q0 76 23 136t61 97t91 60.5t108 33t117 9.5q161 0 364 -63v231q0 47 -14 86t-45 72t-88 51.5t-135 18.5q-126 0 -201 -22t-127 -87l-70 47q56 79 154.5 112.5t243.5 33.5q91 0 161.5 -21t111.5 -53.5
t66.5 -76t34.5 -82t9 -79.5v-823zM864 209v307q-198 59 -364 59q-41 0 -77 -5t-78 -21.5t-71 -43t-49 -74.5t-20 -112q0 -268 246 -268q117 0 204 34t209 124zM778 1456q0 -92 -66.5 -157.5t-158.5 -65.5t-157.5 65.5t-65.5 157.5t65.5 157.5t157.5 65.5t158.5 -65.5
t66.5 -157.5zM700 1456q0 61 -42.5 103.5t-104.5 42.5q-61 0 -103 -42t-42 -104t42 -104.5t103 -42.5t104 42.5t43 104.5z" />
    <glyph glyph-name="ae" unicode="&#xe6;" horiz-adv-x="1863" 
d="M1769 532h-806v-108q0 -182 90.5 -278.5t275.5 -96.5q233 0 324 162l88 -37q-55 -102 -153 -154.5t-259 -52.5q-145 0 -239 44.5t-162 148.5q-65 -51 -110 -81t-104 -58.5t-124 -41t-144 -12.5q-177 0 -261.5 94.5t-84.5 260.5q0 96 33 165t92 106.5t128.5 54t154.5 16.5
q162 0 348 -54v217q0 51 -11 88.5t-39.5 70t-84 49t-137.5 16.5q-229 0 -326 -119l-76 49q54 76 159 115t243 39q145 0 224 -41.5t130 -135.5q114 177 393 177q81 0 145.5 -15.5t110 -42.5t78.5 -69.5t53 -89t31.5 -109t15.5 -121.5t4 -135v-21zM1659 616q0 85 -8 148
t-29.5 119.5t-57.5 91.5t-94.5 55.5t-138.5 20.5q-175 0 -271.5 -88t-96.5 -289v-58h696zM856 205v325q-211 48 -328 48q-319 0 -319 -256q0 -143 66 -208t171 -65q40 0 74.5 3.5t60.5 7t54.5 14.5t45 17.5t44 23.5t40 25.5t45 31.5t46.5 33z" />
    <glyph glyph-name="ccedilla" unicode="&#xe7;" horiz-adv-x="1050" 
d="M995 174q-35 -65 -80 -107t-102.5 -63.5t-114.5 -29t-135 -7.5h-2l-37 -57q11 0 41 0.5t46.5 0.5t45 -2t45.5 -6.5t38 -14t33 -23t20 -35t8 -49.5q0 -146 -205 -146q-49 0 -170 17l8 55q110 -14 141 -14q138 0 138 88q0 32 -23.5 49.5t-56.5 17.5h-131l-51 70l45 55
q-94 11 -165 48t-114.5 89t-70 125.5t-36.5 148.5t-10 167q0 109 14 195t49 160.5t90.5 123.5t140.5 77t198 28q143 0 241.5 -47t161.5 -162l-86 -35q-52 88 -128 124t-185 36q-94 0 -164 -25.5t-113 -68.5t-69 -108.5t-35.5 -136t-9.5 -161.5t9.5 -161.5t35.5 -136
t69 -108.5t113 -68.5t164 -25.5q109 0 185 36t128 124z" />
    <glyph glyph-name="egrave" unicode="&#xe8;" horiz-adv-x="1134" 
d="M1040 532h-839q6 -250 94 -365.5t295 -115.5q238 0 330 160l86 -37q-55 -102 -154.5 -154.5t-261.5 -52.5q-255 0 -372.5 138t-117.5 448q0 147 25 252t81.5 180.5t152 112.5t233.5 37q448 0 448 -572v-31zM934 616q0 93 -17.5 167.5t-55.5 135.5t-106.5 94.5
t-162.5 33.5q-132 0 -214 -39t-126.5 -134.5t-48.5 -257.5h731zM319 1528l353 -291q11 -9 24 4l25 23q10 10 2 18l-307 346z" />
    <glyph glyph-name="eacute" unicode="&#xe9;" horiz-adv-x="1134" 
d="M1040 532h-839q6 -250 94 -365.5t295 -115.5q238 0 330 160l86 -37q-55 -102 -154.5 -154.5t-261.5 -52.5q-255 0 -372.5 138t-117.5 448q0 147 25 252t81.5 180.5t152 112.5t233.5 37q448 0 448 -572v-31zM934 616q0 93 -17.5 167.5t-55.5 135.5t-106.5 94.5
t-162.5 33.5q-132 0 -214 -39t-126.5 -134.5t-48.5 -257.5h731zM895 1528l-352 -291q-12 -9 -25 4l-24 23q-10 10 -2 18l307 346z" />
    <glyph glyph-name="ecircumflex" unicode="&#xea;" horiz-adv-x="1134" 
d="M1040 532h-839q6 -250 94 -365.5t295 -115.5q238 0 330 160l86 -37q-55 -102 -154.5 -154.5t-261.5 -52.5q-255 0 -372.5 138t-117.5 448q0 147 25 252t81.5 180.5t152 112.5t233.5 37q448 0 448 -572v-31zM934 616q0 93 -17.5 167.5t-55.5 135.5t-106.5 94.5
t-162.5 33.5q-132 0 -214 -39t-126.5 -134.5t-48.5 -257.5h731zM866 1272l-47 -45l-252 235l-252 -235l-47 45l260 311q23 29 39 29t39 -29z" />
    <glyph glyph-name="edieresis" unicode="&#xeb;" horiz-adv-x="1134" 
d="M1040 532h-839q6 -250 94 -365.5t295 -115.5q238 0 330 160l86 -37q-55 -102 -154.5 -154.5t-261.5 -52.5q-255 0 -372.5 138t-117.5 448q0 147 25 252t81.5 180.5t152 112.5t233.5 37q448 0 448 -572v-31zM934 616q0 93 -17.5 167.5t-55.5 135.5t-106.5 94.5
t-162.5 33.5q-132 0 -214 -39t-126.5 -134.5t-48.5 -257.5h731zM868 1382q0 -18 -3 -21t-19 -3h-103q-16 0 -19 3t-3 21v97q0 5 0.5 8.5t0 6.5t1 4.5t1.5 2.5t3 1.5t4 0.5h5.5h6.5h103h6.5h5.5t4 -0.5t3 -1.5t1.5 -2.5t1 -4.5t0 -6.5t0.5 -8.5v-97zM412 1382q0 -18 -3.5 -21
t-19.5 -3h-100q-16 0 -19.5 3t-3.5 21v97q0 18 3 21t15 3h5h100h5q12 0 15 -3t3 -21v-97z" />
    <glyph glyph-name="igrave" unicode="&#xec;" horiz-adv-x="389" 
d="M246 0h-103v1100h103v-1100zM-70 1528l353 -291q11 -9 24 4l25 23q10 10 2 18l-307 346z" />
    <glyph glyph-name="iacute" unicode="&#xed;" horiz-adv-x="389" 
d="M246 0h-103v1100h103v-1100zM461 1528l-352 -291q-12 -9 -25 4l-25 23q-10 10 -2 18l308 346z" />
    <glyph glyph-name="icircumflex" unicode="&#xee;" horiz-adv-x="389" 
d="M246 0h-103v1100h103v-1100zM494 1272l-48 -45l-251 235l-252 -235l-47 45l260 311q23 29 39 29q15 0 38 -29z" />
    <glyph glyph-name="idieresis" unicode="&#xef;" horiz-adv-x="389" 
d="M246 0h-103v1100h103v-1100zM496 1382q0 -18 -3.5 -21t-19.5 -3h-102q-16 0 -19.5 3t-3.5 21v97q0 18 3 21t15 3h5h102h5q12 0 15 -3t3 -21v-97zM39 1382q0 -18 -3.5 -21t-19.5 -3h-100q-16 0 -19 3t-3 21v97q0 5 0.5 8.5t0 6.5t1 4.5t1.5 2.5t3 1.5t4 0.5h5.5h6.5h100h5
q12 0 15 -3t3 -21v-97z" />
    <glyph glyph-name="eth" unicode="&#xf0;" horiz-adv-x="1142" 
d="M1042 553q0 -294 -110 -440t-361 -146t-361 146t-110 440q0 293 110 437.5t361 144.5q184 0 295 -82q-98 206 -295 348l-149 -119l-55 45l141 113q-116 71 -236 116l43 70q143 -53 265 -129l170 137l55 -49l-164 -129q97 -70 168 -149t115.5 -160.5t71 -179.5t36.5 -195
t10 -219zM934 553q0 268 -82.5 383t-280.5 115q-197 0 -281.5 -115.5t-84.5 -382.5t84 -384.5t282 -117.5q197 0 280 117.5t83 384.5z" />
    <glyph glyph-name="ntilde" unicode="&#xf1;" horiz-adv-x="1144" 
d="M1014 0h-103v719q0 94 -19.5 160t-57 102t-83.5 52t-106 16t-116 -24t-162 -101l-121 -86v-838h-103v1100h70l33 -162l129 90q88 61 144.5 84t125.5 23q82 0 147.5 -23t116 -71t78 -129.5t27.5 -192.5v-719zM938 1499l-131 -176q-35 -47 -82 -47q-39 0 -82 27l-182 110
q-30 19 -43 19q-8 0 -15 -3t-10 -6.5t-12 -13.5t-14 -16l-113 -125l-49 39l129 178q33 45 82 45q38 0 82 -27l186 -112q24 -15 39 -15q11 0 19 4t12.5 8.5t19.5 22.5l113 129z" />
    <glyph glyph-name="ograve" unicode="&#xf2;" horiz-adv-x="1142" 
d="M1042 553q0 -294 -110 -440t-361 -146t-361 146t-110 440q0 293 110 437.5t361 144.5t361 -144.5t110 -437.5zM934 553q0 268 -82.5 383t-280.5 115q-197 0 -281.5 -115.5t-84.5 -382.5t84 -384.5t282 -117.5q197 0 280 117.5t83 384.5zM305 1528l352 -291q12 -9 25 4
l25 23q10 10 2 18l-308 346z" />
    <glyph glyph-name="oacute" unicode="&#xf3;" horiz-adv-x="1142" 
d="M1042 553q0 -294 -110 -440t-361 -146t-361 146t-110 440q0 293 110 437.5t361 144.5t361 -144.5t110 -437.5zM934 553q0 268 -82.5 383t-280.5 115q-197 0 -281.5 -115.5t-84.5 -382.5t84 -384.5t282 -117.5q197 0 280 117.5t83 384.5zM836 1528l-353 -291q-11 -9 -24 4
l-25 23q-10 10 -2 18l307 346z" />
    <glyph glyph-name="ocircumflex" unicode="&#xf4;" horiz-adv-x="1142" 
d="M1042 553q0 -294 -110 -440t-361 -146t-361 146t-110 440q0 293 110 437.5t361 144.5t361 -144.5t110 -437.5zM934 553q0 268 -82.5 383t-280.5 115q-197 0 -281.5 -115.5t-84.5 -382.5t84 -384.5t282 -117.5q197 0 280 117.5t83 384.5zM870 1272l-47 -45l-252 235
l-252 -235l-47 45l260 311q23 29 39 29t39 -29z" />
    <glyph glyph-name="otilde" unicode="&#xf5;" horiz-adv-x="1142" 
d="M1042 553q0 -294 -110 -440t-361 -146t-361 146t-110 440q0 293 110 437.5t361 144.5t361 -144.5t110 -437.5zM934 553q0 268 -82.5 383t-280.5 115q-197 0 -281.5 -115.5t-84.5 -382.5t84 -384.5t282 -117.5q197 0 280 117.5t83 384.5zM938 1499l-131 -176
q-35 -47 -82 -47q-39 0 -82 27l-182 110q-30 19 -43 19q-8 0 -15 -3t-10 -6.5t-12 -13.5t-14 -16l-113 -125l-49 39l129 178q33 45 82 45q38 0 82 -27l186 -112q24 -15 39 -15q11 0 19 4t12.5 8.5t19.5 22.5l113 129z" />
    <glyph glyph-name="odieresis" unicode="&#xf6;" horiz-adv-x="1142" 
d="M1042 553q0 -294 -110 -440t-361 -146t-361 146t-110 440q0 293 110 437.5t361 144.5t361 -144.5t110 -437.5zM934 553q0 268 -82.5 383t-280.5 115q-197 0 -281.5 -115.5t-84.5 -382.5t84 -384.5t282 -117.5q197 0 280 117.5t83 384.5zM872 1382q0 -18 -3 -21t-19 -3
h-102q-16 0 -19.5 3t-3.5 21v97q0 18 3 21t15 3h5h102h6.5h5.5t4 -0.5t3 -1.5t1.5 -2.5t1 -4.5t0 -6.5t0.5 -8.5v-97zM416 1382q0 -18 -3.5 -21t-19.5 -3h-100q-16 0 -19.5 3t-3.5 21v97q0 18 3 21t15 3h5h100h5q12 0 15 -3t3 -21v-97z" />
    <glyph glyph-name="divide" unicode="&#xf7;" 
d="M672 1356v-125q0 -10 -3.5 -12t-13.5 -2h-123q-12 0 -14 2.5t-2 15.5v121q0 10 3 13t13 3h123q11 0 14 -3t3 -13zM1102 694h-996v86h996v-86zM672 242v-125q0 -10 -3.5 -12.5t-13.5 -2.5h-123q-8 0 -11.5 1.5t-4 5t-0.5 12.5v121q0 10 3 13t13 3h123q11 0 14 -3t3 -13z
" />
    <glyph glyph-name="oslash" unicode="&#xf8;" horiz-adv-x="1142" 
d="M1085 1135l-135 -170q92 -140 92 -412q0 -294 -110 -440t-361 -146q-212 0 -325 107l-84 -107h-107l138 172q-93 145 -93 414q0 293 110 437.5t361 144.5q213 0 326 -107l86 107h102zM838 952q-83 99 -267 99q-197 0 -281.5 -115.5t-84.5 -382.5q0 -215 53 -330zM934 553
q0 212 -51 326l-578 -732q80 -96 266 -96q197 0 280 117.5t83 384.5z" />
    <glyph glyph-name="ugrave" unicode="&#xf9;" horiz-adv-x="1144" 
d="M1001 0h-67l-33 164l-129 -90q-88 -61 -145.5 -84t-126.5 -23q-169 0 -268 100t-99 316v717h100v-717q0 -181 70.5 -255.5t196.5 -74.5q59 0 114 23.5t164 99.5l123 86v838h100v-1100zM305 1528l352 -291q12 -9 25 4l25 23q10 10 2 18l-308 346z" />
    <glyph glyph-name="uacute" unicode="&#xfa;" horiz-adv-x="1144" 
d="M1001 0h-67l-33 164l-129 -90q-88 -61 -145.5 -84t-126.5 -23q-169 0 -268 100t-99 316v717h100v-717q0 -181 70.5 -255.5t196.5 -74.5q59 0 114 23.5t164 99.5l123 86v838h100v-1100zM858 1528l-352 -291q-12 -9 -25 4l-24 23q-10 10 -2 18l307 346z" />
    <glyph glyph-name="ucircumflex" unicode="&#xfb;" horiz-adv-x="1144" 
d="M1001 0h-67l-33 164l-129 -90q-88 -61 -145.5 -84t-126.5 -23q-169 0 -268 100t-99 316v717h100v-717q0 -181 70.5 -255.5t196.5 -74.5q59 0 114 23.5t164 99.5l123 86v838h100v-1100zM870 1272l-47 -45l-252 235l-252 -235l-47 45l260 311q23 29 39 29t39 -29z" />
    <glyph glyph-name="udieresis" unicode="&#xfc;" horiz-adv-x="1144" 
d="M1001 0h-67l-33 164l-129 -90q-88 -61 -145.5 -84t-126.5 -23q-169 0 -268 100t-99 316v717h100v-717q0 -181 70.5 -255.5t196.5 -74.5q59 0 114 23.5t164 99.5l123 86v838h100v-1100zM872 1382q0 -18 -3 -21t-19 -3h-102q-16 0 -19.5 3t-3.5 21v97q0 18 3 21t15 3h5h102
h6.5h5.5t4 -0.5t3 -1.5t1.5 -2.5t1 -4.5t0 -6.5t0.5 -8.5v-97zM416 1382q0 -18 -3.5 -21t-19.5 -3h-100q-16 0 -19.5 3t-3.5 21v97q0 18 3 21t15 3h5h100h5q12 0 15 -3t3 -21v-97z" />
    <glyph glyph-name="yacute" unicode="&#xfd;" horiz-adv-x="1032" 
d="M985 1100l-510 -1401q-40 -110 -111.5 -152.5t-197.5 -42.5h-103v97h103q101 0 142.5 25.5t76.5 121.5l78 213l-414 1139h105l364 -1016l363 1016h104zM821 1528l-352 -291q-12 -9 -25 4l-24 23q-10 10 -2 18l307 346z" />
    <glyph glyph-name="thorn" unicode="&#xfe;" horiz-adv-x="1159" 
d="M1059 573q0 -291 -122 -448.5t-372 -157.5q-76 0 -150 23t-169 94v-578h-103v2091h103v-628q108 86 186.5 126t173.5 40q227 0 340 -150t113 -412zM952 573q0 478 -346 478q-60 0 -130.5 -30t-113 -59t-116.5 -85v-693q179 -133 319 -133q387 0 387 522z" />
    <glyph glyph-name="ydieresis" unicode="&#xff;" horiz-adv-x="1032" 
d="M985 1100l-510 -1401q-40 -110 -111.5 -152.5t-197.5 -42.5h-103v97h103q101 0 142.5 25.5t76.5 121.5l78 213l-414 1139h105l364 -1016l363 1016h104zM817 1382q0 -18 -3 -21t-19 -3h-103q-16 0 -19 3t-3 21v97q0 5 0.5 8.5t0 6.5t1 4.5t1.5 2.5t3 1.5t4 0.5h5.5h6.5
h103h6.5h5.5t4 -0.5t3 -1.5t1.5 -2.5t1 -4.5t0 -6.5t0.5 -8.5v-97zM360 1382q0 -18 -3 -21t-19 -3h-100q-16 0 -19.5 3t-3.5 21v97q0 18 3 21t15 3h5h100h6.5h5.5t4 -0.5t3 -1.5t1.5 -2.5t1 -4.5t0 -6.5t0.5 -8.5v-97z" />
    <glyph glyph-name="Amacron" unicode="&#x100;" horiz-adv-x="1318" 
d="M1257 0h-104l-172 479h-651l-172 -479h-97l533 1477h133zM948 571l-293 826l-293 -826h586zM975 1673h-633v94h633v-94z" />
    <glyph glyph-name="amacron" unicode="&#x101;" horiz-adv-x="1107" 
d="M965 0h-68l-25 125q-186 -158 -421 -158q-177 0 -264 93.5t-87 258.5q0 76 23 136t61 97t91 60.5t108 33t117 9.5q161 0 364 -63v231q0 47 -14 86t-45 72t-88 51.5t-135 18.5q-126 0 -201 -22t-127 -87l-70 47q56 79 154.5 112.5t243.5 33.5q91 0 161.5 -21t111.5 -53.5
t66.5 -76t34.5 -82t9 -79.5v-823zM864 209v307q-198 59 -364 59q-41 0 -77 -5t-78 -21.5t-71 -43t-49 -74.5t-20 -112q0 -268 246 -268q117 0 204 34t209 124zM870 1362h-632v94h632v-94z" />
    <glyph glyph-name="Abreve" unicode="&#x102;" horiz-adv-x="1318" 
d="M1257 0h-104l-172 479h-651l-172 -479h-97l533 1477h133zM948 571l-293 826l-293 -826h586zM967 1843q-54 -134 -126 -201t-182 -67t-181.5 67t-125.5 201l62 39q63 -116 114 -163.5t131 -47.5t131.5 47.5t114.5 163.5z" />
    <glyph glyph-name="abreve" unicode="&#x103;" horiz-adv-x="1107" 
d="M965 0h-68l-25 125q-186 -158 -421 -158q-177 0 -264 93.5t-87 258.5q0 76 23 136t61 97t91 60.5t108 33t117 9.5q161 0 364 -63v231q0 47 -14 86t-45 72t-88 51.5t-135 18.5q-126 0 -201 -22t-127 -87l-70 47q56 79 154.5 112.5t243.5 33.5q91 0 161.5 -21t111.5 -53.5
t66.5 -76t34.5 -82t9 -79.5v-823zM864 209v307q-198 59 -364 59q-41 0 -77 -5t-78 -21.5t-71 -43t-49 -74.5t-20 -112q0 -268 246 -268q117 0 204 34t209 124zM860 1550q-54 -134 -125.5 -201t-181.5 -67t-181.5 67t-125.5 201l61 39q63 -116 114.5 -163.5t131.5 -47.5
t131.5 47.5t114.5 163.5z" />
    <glyph glyph-name="Aogonek" unicode="&#x104;" horiz-adv-x="1318" 
d="M1257 0l-153 -98q-66 -42 -66 -129q0 -35 26.5 -57.5t80.5 -22.5q36 0 82 8l63 12l17 -57l-74 -16q-57 -11 -109 -11q-76 0 -125 37.5t-49 104.5q0 31 6 54.5t32.5 57t76.5 64.5l88 53l-172 479h-651l-172 -479h-97l533 1477h133zM948 571l-293 826l-293 -826h586z" />
    <glyph glyph-name="aogonek" unicode="&#x105;" horiz-adv-x="1107" 
d="M965 0l-168 -100q-48 -29 -65 -58t-17 -69q0 -35 26 -57.5t80 -22.5q39 0 146 20l16 -57q-121 -27 -182 -27q-76 0 -125 37.5t-49 104.5q0 47 21 84.5t89 76.5l156 88l-21 105q-186 -158 -421 -158q-177 0 -264 93.5t-87 258.5q0 76 23 136t61 97t91 60.5t108 33t117 9.5
q161 0 364 -63v231q0 47 -14 86t-45 72t-88 51.5t-135 18.5q-126 0 -201 -22t-127 -87l-70 47q56 79 154.5 112.5t243.5 33.5q91 0 161.5 -21t111.5 -53.5t66.5 -76t34.5 -82t9 -79.5v-823zM864 209v307q-198 59 -364 59q-41 0 -77 -5t-78 -21.5t-71 -43t-49 -74.5t-20 -112
q0 -268 246 -268q117 0 204 34t209 124z" />
    <glyph glyph-name="Cacute" unicode="&#x106;" horiz-adv-x="1226" 
d="M1155 231q-135 -264 -473 -264q-139 0 -243.5 38.5t-170 104.5t-105.5 166.5t-55.5 211t-15.5 251.5q0 155 18 273.5t59 214t107.5 156.5t163.5 93.5t226 32.5q96 0 174 -20.5t131 -53.5t91 -79t57.5 -93t27.5 -100h-88q-25 117 -121 187.5t-274 70.5q-88 0 -157.5 -19
t-118 -50t-83.5 -82t-55.5 -104.5t-32.5 -128t-16 -142t-4 -156.5q0 -81 4 -145.5t16 -138t33 -129t58 -108.5t87 -87.5t123 -55t164 -20.5q284 0 399 224zM944 1872l-352 -291q-12 -9 -25 4l-24 23q-10 10 -2 18l307 346z" />
    <glyph glyph-name="cacute" unicode="&#x107;" horiz-adv-x="1050" 
d="M995 174q-56 -103 -149 -155t-254 -52q-262 0 -377 145t-115 439t115 439t377 145q160 0 253.5 -52.5t149.5 -156.5l-86 -35q-48 83 -122 121.5t-191 38.5q-203 0 -297 -118t-94 -382t94 -382t297 -118q117 0 191 38.5t122 121.5zM848 1528l-352 -291q-12 -9 -25 4
l-25 23q-10 10 -2 18l308 346z" />
    <glyph glyph-name="Ccircumflex" unicode="&#x108;" horiz-adv-x="1226" 
d="M1155 231q-135 -264 -473 -264q-139 0 -243.5 38.5t-170 104.5t-105.5 166.5t-55.5 211t-15.5 251.5q0 155 18 273.5t59 214t107.5 156.5t163.5 93.5t226 32.5q96 0 174 -20.5t131 -53.5t91 -79t57.5 -93t27.5 -100h-88q-25 117 -121 187.5t-274 70.5q-88 0 -157.5 -19
t-118 -50t-83.5 -82t-55.5 -104.5t-32.5 -128t-16 -142t-4 -156.5q0 -81 4 -145.5t16 -138t33 -129t58 -108.5t87 -87.5t123 -55t164 -20.5q284 0 399 224zM952 1620l-47 -45l-252 235l-252 -235l-47 45l260 311q23 29 39 29t39 -29z" />
    <glyph glyph-name="ccircumflex" unicode="&#x109;" horiz-adv-x="1050" 
d="M995 174q-56 -103 -149 -155t-254 -52q-262 0 -377 145t-115 439t115 439t377 145q160 0 253.5 -52.5t149.5 -156.5l-86 -35q-48 83 -122 121.5t-191 38.5q-203 0 -297 -118t-94 -382t94 -382t297 -118q117 0 191 38.5t122 121.5zM864 1272l-47 -45l-252 235l-252 -235
l-47 45l260 311q23 29 39 29t39 -29z" />
    <glyph glyph-name="Cdotaccent" unicode="&#x10a;" horiz-adv-x="1226" 
d="M1155 231q-135 -264 -473 -264q-139 0 -243.5 38.5t-170 104.5t-105.5 166.5t-55.5 211t-15.5 251.5q0 155 18 273.5t59 214t107.5 156.5t163.5 93.5t226 32.5q96 0 174 -20.5t131 -53.5t91 -79t57.5 -93t27.5 -100h-88q-25 117 -121 187.5t-274 70.5q-88 0 -157.5 -19
t-118 -50t-83.5 -82t-55.5 -104.5t-32.5 -128t-16 -142t-4 -156.5q0 -81 4 -145.5t16 -138t33 -129t58 -108.5t87 -87.5t123 -55t164 -20.5q284 0 399 224zM748 1698q0 -18 -3.5 -21.5t-19.5 -3.5h-102q-16 0 -19.5 3.5t-3.5 21.5v94q0 19 3.5 23t19.5 4h102q16 0 19.5 -4
t3.5 -23v-94z" />
    <glyph glyph-name="cdotaccent" unicode="&#x10b;" horiz-adv-x="1050" 
d="M995 174q-56 -103 -149 -155t-254 -52q-262 0 -377 145t-115 439t115 439t377 145q160 0 253.5 -52.5t149.5 -156.5l-86 -35q-48 83 -122 121.5t-191 38.5q-203 0 -297 -118t-94 -382t94 -382t297 -118q117 0 191 38.5t122 121.5zM676 1350q0 -18 -3.5 -21.5t-19.5 -3.5
h-102q-16 0 -19.5 3.5t-3.5 21.5v94q0 11 0.5 15.5t4 7.5t6 3h12.5h102q12 0 15.5 -1t5.5 -6t2 -19v-94z" />
    <glyph glyph-name="Ccaron" unicode="&#x10c;" horiz-adv-x="1226" 
d="M1155 231q-135 -264 -473 -264q-139 0 -243.5 38.5t-170 104.5t-105.5 166.5t-55.5 211t-15.5 251.5q0 155 18 273.5t59 214t107.5 156.5t163.5 93.5t226 32.5q96 0 174 -20.5t131 -53.5t91 -79t57.5 -93t27.5 -100h-88q-25 117 -121 187.5t-274 70.5q-88 0 -157.5 -19
t-118 -50t-83.5 -82t-55.5 -104.5t-32.5 -128t-16 -142t-4 -156.5q0 -81 4 -145.5t16 -138t33 -129t58 -108.5t87 -87.5t123 -55t164 -20.5q284 0 399 224zM952 1907l-258 -303q-23 -29 -41 -29q-16 0 -39 29l-258 303l45 45l252 -242l254 242z" />
    <glyph glyph-name="ccaron" unicode="&#x10d;" horiz-adv-x="1050" 
d="M995 174q-56 -103 -149 -155t-254 -52q-262 0 -377 145t-115 439t115 439t377 145q160 0 253.5 -52.5t149.5 -156.5l-86 -35q-48 83 -122 121.5t-191 38.5q-203 0 -297 -118t-94 -382t94 -382t297 -118q117 0 191 38.5t122 121.5zM881 1561l-258 -304q-22 -28 -41 -28
q-17 0 -39 28l-258 304l45 45l252 -242l254 242z" />
    <glyph glyph-name="Dcaron" unicode="&#x10e;" horiz-adv-x="1302" 
d="M1231 756q0 -132 -23.5 -243.5t-76.5 -207.5t-133 -162.5t-199.5 -104.5t-270.5 -38h-395v1477h395q185 0 322.5 -53t219.5 -151t121.5 -226.5t39.5 -290.5zM1126 756q0 635 -598 635h-295v-1305h295q598 0 598 670zM887 1909l-258 -303q-23 -29 -41 -29q-16 0 -39 29
l-258 303l45 45l252 -242l254 242z" />
    <glyph glyph-name="dcaron" unicode="&#x10f;" horiz-adv-x="1210" 
d="M1014 0h-49l-52 94q-154 -127 -327 -127q-78 0 -146.5 17.5t-132 60.5t-108.5 108t-72 166t-27 230q0 586 463 586q180 0 348 -101v561h103v-1595zM911 190v750q-112 66 -185 87.5t-163 21.5q-187 0 -272.5 -124.5t-85.5 -375.5q0 -79 10 -147.5t36.5 -134.5t68.5 -112.5
t110 -75t156 -28.5q85 0 157.5 33t167.5 106zM1384 1599l-122 -479q-3 -18 -8.5 -23t-18.5 -5h-10q-15 0 -19 5t-4 23l62 479h120z" />
    <glyph glyph-name="Dcroat" unicode="&#x110;" horiz-adv-x="1302" 
d="M1231 756q0 -132 -23.5 -243.5t-76.5 -207.5t-133 -162.5t-199.5 -104.5t-270.5 -38h-393v737h-178v82h178v658h393q185 0 322.5 -53t219.5 -151t121.5 -226.5t39.5 -290.5zM1126 756q0 635 -598 635h-292v-572h253l-22 -82h-231v-651h292q598 0 598 670z" />
    <glyph glyph-name="dcroat" unicode="&#x111;" horiz-adv-x="1157" 
d="M1014 0h-49l-52 94q-154 -127 -327 -127q-78 0 -146.5 17.5t-132 60.5t-108.5 108t-72 166t-27 230q0 586 463 586q180 0 348 -101v258h-462v86h462v217h103v-217h116v-86h-116v-1292zM911 190v750q-112 66 -185 87.5t-163 21.5q-187 0 -272.5 -124.5t-85.5 -375.5
q0 -79 10 -147.5t36.5 -134.5t68.5 -112.5t110 -75t156 -28.5q85 0 157.5 33t167.5 106z" />
    <glyph glyph-name="Emacron" unicode="&#x112;" horiz-adv-x="1118" 
d="M1036 0h-903v1477h901v-86h-801v-566h705l-25 -88h-680v-651h803v-86zM895 1673h-633v94h633v-94z" />
    <glyph glyph-name="emacron" unicode="&#x113;" horiz-adv-x="1134" 
d="M1040 532h-839q6 -250 94 -365.5t295 -115.5q238 0 330 160l86 -37q-55 -102 -154.5 -154.5t-261.5 -52.5q-255 0 -372.5 138t-117.5 448q0 147 25 252t81.5 180.5t152 112.5t233.5 37q448 0 448 -572v-31zM934 616q0 93 -17.5 167.5t-55.5 135.5t-106.5 94.5
t-162.5 33.5q-132 0 -214 -39t-126.5 -134.5t-48.5 -257.5h731zM883 1362h-633v94h633v-94z" />
    <glyph glyph-name="Ebreve" unicode="&#x114;" horiz-adv-x="1118" 
d="M1036 0h-903v1477h901v-86h-801v-566h705l-25 -88h-680v-651h803v-86zM883 1845q-54 -134 -126 -201t-182 -67t-181.5 67t-125.5 201l62 39q63 -116 114 -163.5t131 -47.5t131.5 47.5t114.5 163.5z" />
    <glyph glyph-name="ebreve" unicode="&#x115;" horiz-adv-x="1134" 
d="M1040 532h-839q6 -250 94 -365.5t295 -115.5q238 0 330 160l86 -37q-55 -102 -154.5 -154.5t-261.5 -52.5q-255 0 -372.5 138t-117.5 448q0 147 25 252t81.5 180.5t152 112.5t233.5 37q448 0 448 -572v-31zM934 616q0 93 -17.5 167.5t-55.5 135.5t-106.5 94.5
t-162.5 33.5q-132 0 -214 -39t-126.5 -134.5t-48.5 -257.5h731zM874 1550q-54 -134 -125.5 -201t-181.5 -67t-181.5 67t-125.5 201l62 39q63 -116 114 -163.5t131 -47.5t131.5 47.5t114.5 163.5z" />
    <glyph glyph-name="Edotaccent" unicode="&#x116;" horiz-adv-x="1118" 
d="M1036 0h-903v1477h901v-86h-801v-566h705l-25 -88h-680v-651h803v-86zM653 1698q0 -18 -3.5 -21.5t-18.5 -3.5h-103q-16 0 -19 3.5t-3 21.5v94q0 20 3 23.5t19 3.5h103q15 0 18.5 -3.5t3.5 -23.5v-94z" />
    <glyph glyph-name="edotaccent" unicode="&#x117;" horiz-adv-x="1134" 
d="M1040 532h-839q6 -250 94 -365.5t295 -115.5q238 0 330 160l86 -37q-55 -102 -154.5 -154.5t-261.5 -52.5q-255 0 -372.5 138t-117.5 448q0 147 25 252t81.5 180.5t152 112.5t233.5 37q448 0 448 -572v-31zM934 616q0 93 -17.5 167.5t-55.5 135.5t-106.5 94.5
t-162.5 33.5q-132 0 -214 -39t-126.5 -134.5t-48.5 -257.5h731zM641 1350q0 -18 -3.5 -21.5t-19.5 -3.5h-102q-15 0 -18.5 3.5t-3.5 21.5v94q0 14 2 19t5 6t15 1h102q12 0 15.5 -1t5.5 -6t2 -19v-94z" />
    <glyph glyph-name="Eogonek" unicode="&#x118;" horiz-adv-x="1118" 
d="M1036 0h-90l-119 -117q-29 -27 -42 -51t-13 -59t26.5 -57.5t80.5 -22.5q36 0 82 8l63 12l16 -57l-73 -16q-57 -11 -109 -11q-76 0 -125 37.5t-49 104.5q0 80 57 131l109 98h-717v1477h901v-86h-801v-566h705l-25 -88h-680v-651h803v-86z" />
    <glyph glyph-name="eogonek" unicode="&#x119;" horiz-adv-x="1134" 
d="M1040 532h-839q6 -250 94 -365.5t295 -115.5q238 0 330 160l86 -37q-45 -78 -101 -121l-178 -170q-29 -27 -42 -51t-13 -59t26 -57.5t80 -22.5q36 0 82 8l64 12l16 -57l-74 -16q-57 -11 -108 -11q-76 0 -125 37.5t-49 104.5q0 80 57 131l84 78q-67 -13 -135 -13
q-255 0 -372.5 138t-117.5 448q0 147 25 252t81.5 180.5t152 112.5t233.5 37q448 0 448 -572v-31zM934 616q0 93 -17.5 167.5t-55.5 135.5t-106.5 94.5t-162.5 33.5q-132 0 -214 -39t-126.5 -134.5t-48.5 -257.5h731z" />
    <glyph glyph-name="Ecaron" unicode="&#x11a;" horiz-adv-x="1118" 
d="M1036 0h-903v1477h901v-86h-801v-566h705l-25 -88h-680v-651h803v-86zM897 1909l-258 -303q-23 -29 -41 -29q-16 0 -39 29l-258 303l45 45l252 -242l254 242z" />
    <glyph glyph-name="ecaron" unicode="&#x11b;" horiz-adv-x="1134" 
d="M1040 532h-839q6 -250 94 -365.5t295 -115.5q238 0 330 160l86 -37q-55 -102 -154.5 -154.5t-261.5 -52.5q-255 0 -372.5 138t-117.5 448q0 147 25 252t81.5 180.5t152 112.5t233.5 37q448 0 448 -572v-31zM934 616q0 93 -17.5 167.5t-55.5 135.5t-106.5 94.5
t-162.5 33.5q-132 0 -214 -39t-126.5 -134.5t-48.5 -257.5h731zM864 1581l-258 -303q-23 -29 -41 -29q-16 0 -39 29l-258 303l45 45l252 -242l254 242z" />
    <glyph glyph-name="Gcircumflex" unicode="&#x11c;" horiz-adv-x="1327" 
d="M1194 162q-46 -40 -86 -68.5t-101 -60.5t-137.5 -49t-164.5 -17q-321 0 -467 192t-146 580q0 143 19 258t63 212.5t113.5 162.5t174 101t240.5 36q119 0 210.5 -29.5t147 -80.5t86 -109.5t40.5 -126.5h-88q-25 120 -121 189t-275 69q-122 0 -213 -34.5t-146.5 -92
t-89 -147t-46 -186.5t-12.5 -222q0 -119 12 -213t46 -185t89 -151.5t147.5 -97.5t215.5 -37q127 0 212 36t177 106v444h-394l-22 84h516v-563zM993 1622l-47 -45l-252 235l-252 -235l-47 45l260 311q23 29 39 29t39 -29z" />
    <glyph glyph-name="gcircumflex" unicode="&#x11d;" horiz-adv-x="1173" 
d="M1118 1135l-22 -127h-178q83 -103 83 -244q0 -180 -102.5 -273.5t-323.5 -93.5q-49 0 -165 17q-12 2 -33 2q-58 0 -91.5 -32t-33.5 -77q0 -46 23.5 -63.5t72.5 -26.5l457 -84q80 -15 135 -44t84 -70t41 -85.5t12 -99.5q0 -90 -36 -154.5t-104.5 -102t-158 -54.5
t-205.5 -17q-84 0 -150 7t-135.5 29.5t-116 60t-76 103.5t-29.5 155q0 184 172 299q-43 26 -61.5 58t-18.5 89q0 52 31.5 97t93.5 65q-136 107 -136 295q0 96 33 169t92 116t135 64.5t168 21.5q86 0 152 -16.5t137 -57.5l183 74h71zM893 764q0 138 -80 212.5t-238 74.5
q-319 0 -319 -287q0 -283 319 -283q79 0 133 11.5t98 41.5t65.5 87t21.5 143zM969 -166q0 95 -39 145.5t-133 67.5l-478 86q-82 -49 -113.5 -115.5t-31.5 -156.5q0 -80 26.5 -134t81 -83.5t123.5 -41.5t168 -12q217 0 306.5 62.5t89.5 181.5zM885 1272l-47 -45l-252 235
l-252 -235l-47 45l260 311q23 29 39 29t39 -29z" />
    <glyph glyph-name="Gbreve" unicode="&#x11e;" horiz-adv-x="1327" 
d="M1194 162q-46 -40 -86 -68.5t-101 -60.5t-137.5 -49t-164.5 -17q-321 0 -467 192t-146 580q0 143 19 258t63 212.5t113.5 162.5t174 101t240.5 36q119 0 210.5 -29.5t147 -80.5t86 -109.5t40.5 -126.5h-88q-25 120 -121 189t-275 69q-122 0 -213 -34.5t-146.5 -92
t-89 -147t-46 -186.5t-12.5 -222q0 -119 12 -213t46 -185t89 -151.5t147.5 -97.5t215.5 -37q127 0 212 36t177 106v444h-394l-22 84h516v-563zM971 1845q-54 -134 -125.5 -201t-181.5 -67t-182 67t-126 201l62 39q63 -116 114.5 -163.5t131.5 -47.5t131 47.5t114 163.5z" />
    <glyph glyph-name="gbreve" unicode="&#x11f;" horiz-adv-x="1173" 
d="M1118 1135l-22 -127h-178q83 -103 83 -244q0 -180 -102.5 -273.5t-323.5 -93.5q-49 0 -165 17q-12 2 -33 2q-58 0 -91.5 -32t-33.5 -77q0 -46 23.5 -63.5t72.5 -26.5l457 -84q80 -15 135 -44t84 -70t41 -85.5t12 -99.5q0 -90 -36 -154.5t-104.5 -102t-158 -54.5
t-205.5 -17q-84 0 -150 7t-135.5 29.5t-116 60t-76 103.5t-29.5 155q0 184 172 299q-43 26 -61.5 58t-18.5 89q0 52 31.5 97t93.5 65q-136 107 -136 295q0 96 33 169t92 116t135 64.5t168 21.5q86 0 152 -16.5t137 -57.5l183 74h71zM893 764q0 138 -80 212.5t-238 74.5
q-319 0 -319 -287q0 -283 319 -283q79 0 133 11.5t98 41.5t65.5 87t21.5 143zM969 -166q0 95 -39 145.5t-133 67.5l-478 86q-82 -49 -113.5 -115.5t-31.5 -156.5q0 -80 26.5 -134t81 -83.5t123.5 -41.5t168 -12q217 0 306.5 62.5t89.5 181.5zM893 1550q-54 -134 -125.5 -201
t-181.5 -67t-181.5 67t-125.5 201l61 39q63 -116 114.5 -163.5t131.5 -47.5t131 47.5t114 163.5z" />
    <glyph glyph-name="Gdotaccent" unicode="&#x120;" horiz-adv-x="1327" 
d="M1194 162q-46 -40 -86 -68.5t-101 -60.5t-137.5 -49t-164.5 -17q-321 0 -467 192t-146 580q0 143 19 258t63 212.5t113.5 162.5t174 101t240.5 36q119 0 210.5 -29.5t147 -80.5t86 -109.5t40.5 -126.5h-88q-25 120 -121 189t-275 69q-122 0 -213 -34.5t-146.5 -92
t-89 -147t-46 -186.5t-12.5 -222q0 -119 12 -213t46 -185t89 -151.5t147.5 -97.5t215.5 -37q127 0 212 36t177 106v444h-394l-22 84h516v-563zM760 1698q0 -18 -3.5 -21.5t-19.5 -3.5h-102q-16 0 -19.5 3.5t-3.5 21.5v94q0 19 3.5 23t19.5 4h102q16 0 19.5 -4t3.5 -23v-94z
" />
    <glyph glyph-name="gdotaccent" unicode="&#x121;" horiz-adv-x="1173" 
d="M1118 1135l-22 -127h-178q83 -103 83 -244q0 -180 -102.5 -273.5t-323.5 -93.5q-49 0 -165 17q-12 2 -33 2q-58 0 -91.5 -32t-33.5 -77q0 -46 23.5 -63.5t72.5 -26.5l457 -84q80 -15 135 -44t84 -70t41 -85.5t12 -99.5q0 -90 -36 -154.5t-104.5 -102t-158 -54.5
t-205.5 -17q-84 0 -150 7t-135.5 29.5t-116 60t-76 103.5t-29.5 155q0 184 172 299q-43 26 -61.5 58t-18.5 89q0 52 31.5 97t93.5 65q-136 107 -136 295q0 96 33 169t92 116t135 64.5t168 21.5q86 0 152 -16.5t137 -57.5l183 74h71zM893 764q0 138 -80 212.5t-238 74.5
q-319 0 -319 -287q0 -283 319 -283q79 0 133 11.5t98 41.5t65.5 87t21.5 143zM969 -166q0 95 -39 145.5t-133 67.5l-478 86q-82 -49 -113.5 -115.5t-31.5 -156.5q0 -80 26.5 -134t81 -83.5t123.5 -41.5t168 -12q217 0 306.5 62.5t89.5 181.5zM659 1350q0 -18 -3.5 -21.5
t-18.5 -3.5h-102q-16 0 -19.5 3.5t-3.5 21.5v94q0 11 0.5 15.5t4 7.5t6 3h12.5h102h12t6 -3t3.5 -7.5t0.5 -15.5v-94z" />
    <glyph glyph-name="Gcommaaccent" unicode="&#x122;" horiz-adv-x="1327" 
d="M1194 162q-46 -40 -86 -68.5t-101 -60.5t-137.5 -49t-164.5 -17q-321 0 -467 192t-146 580q0 143 19 258t63 212.5t113.5 162.5t174 101t240.5 36q119 0 210.5 -29.5t147 -80.5t86 -109.5t40.5 -126.5h-88q-25 120 -121 189t-275 69q-122 0 -213 -34.5t-146.5 -92
t-89 -147t-46 -186.5t-12.5 -222q0 -119 12 -213t46 -185t89 -151.5t147.5 -97.5t215.5 -37q127 0 212 36t177 106v444h-394l-22 84h516v-563zM627 -512l-39 25q86 99 86 221h-68q-14 0 -17 4t-3 18v109q0 18 3.5 21t16.5 3h115q14 0 17 -4t3 -20v-107q0 -156 -114 -270z
" />
    <glyph glyph-name="gcommaaccent" unicode="&#x123;" horiz-adv-x="1173" 
d="M1118 1135l-22 -127h-178q83 -103 83 -244q0 -180 -102.5 -273.5t-323.5 -93.5q-49 0 -165 17q-12 2 -33 2q-58 0 -91.5 -32t-33.5 -77q0 -46 23.5 -63.5t72.5 -26.5l457 -84q80 -15 135 -44t84 -70t41 -85.5t12 -99.5q0 -90 -36 -154.5t-104.5 -102t-158 -54.5
t-205.5 -17q-84 0 -150 7t-135.5 29.5t-116 60t-76 103.5t-29.5 155q0 184 172 299q-43 26 -61.5 58t-18.5 89q0 52 31.5 97t93.5 65q-136 107 -136 295q0 96 33 169t92 116t135 64.5t168 21.5q86 0 152 -16.5t137 -57.5l183 74h71zM893 764q0 138 -80 212.5t-238 74.5
q-319 0 -319 -287q0 -283 319 -283q79 0 133 11.5t98 41.5t65.5 87t21.5 143zM969 -166q0 95 -39 145.5t-133 67.5l-478 86q-82 -49 -113.5 -115.5t-31.5 -156.5q0 -80 26.5 -134t81 -83.5t123.5 -41.5t168 -12q217 0 306.5 62.5t89.5 181.5zM623 1655l39 -25
q-87 -100 -87 -221h68q14 0 17.5 -5t3.5 -18v-108q0 -18 -4 -21.5t-17 -3.5h-115q-14 0 -17 4.5t-3 20.5v106q0 156 115 271z" />
    <glyph glyph-name="Hcircumflex" unicode="&#x124;" horiz-adv-x="1386" 
d="M1253 0h-100v733h-920v-733h-100v1477h100v-646h920v646h100v-1477zM991 1622l-47 -45l-252 235l-252 -235l-47 45l260 311q23 29 39 29t39 -29z" />
    <glyph glyph-name="hcircumflex" unicode="&#x125;" horiz-adv-x="1134" 
d="M1014 0h-103v721q0 181 -70 254.5t-196 73.5q-60 0 -115 -23.5t-163 -99.5l-121 -86v-840h-103v1595h103v-655l129 90q88 62 144 83.5t126 21.5q82 0 147 -22.5t116 -70.5t78.5 -129t27.5 -192v-721zM907 1616l-47 -45l-252 235l-252 -235l-47 45l260 311q23 29 39 29
t39 -29z" />
    <glyph glyph-name="Hbar" unicode="&#x126;" horiz-adv-x="1386" 
d="M0 1102v98h133v277h100v-277h920v277h100v-277h113v-98h-113v-1102h-100v733h-920v-733h-100v1102h-133zM233 831h920v271h-920v-271z" />
    <glyph glyph-name="hbar" unicode="&#x127;" horiz-adv-x="1134" 
d="M682 1292h-436v-352l129 90q88 62 144 83.5t126 21.5q82 0 147 -22.5t116 -70.5t78.5 -129t27.5 -192v-721h-103v721q0 181 -70 254.5t-196 73.5q-60 0 -115 -23.5t-163 -99.5l-121 -86v-840h-103v1292h-143v86h143v217h103v-217h436v-86z" />
    <glyph glyph-name="Itilde" unicode="&#x128;" horiz-adv-x="366" 
d="M233 0h-100v1477h100v-1477zM551 1800l-131 -176q-35 -47 -82 -47q-38 0 -82 27l-182 110q-30 19 -43 19q-8 0 -15 -3t-10 -6.5t-12 -13.5t-14 -16l-113 -125l-49 39l129 178q33 45 82 45q39 0 82 -27l186 -112q24 -15 39 -15q11 0 19 4t12.5 8.5t19.5 22.5l113 129z" />
    <glyph glyph-name="itilde" unicode="&#x129;" horiz-adv-x="389" 
d="M246 0h-103v1100h103v-1100zM561 1499l-131 -176q-35 -47 -82 -47q-38 0 -82 27l-182 110q-30 19 -43 19q-8 0 -15 -3t-10 -6.5t-12 -13.5t-14 -16l-113 -125l-49 39l129 178q33 45 82 45q39 0 82 -27l186 -112q24 -15 39 -15q11 0 19 4t12.5 8.5t19.5 22.5l113 129z" />
    <glyph glyph-name="Imacron" unicode="&#x12a;" horiz-adv-x="366" 
d="M233 0h-100v1477h100v-1477zM500 1673h-633v94h633v-94z" />
    <glyph glyph-name="imacron" unicode="&#x12b;" horiz-adv-x="389" 
d="M246 0h-103v1100h103v-1100zM512 1362h-633v94h633v-94z" />
    <glyph glyph-name="Ibreve" unicode="&#x12c;" horiz-adv-x="366" 
d="M233 0h-100v1477h100v-1477zM492 1843q-54 -134 -126 -201t-182 -67t-181.5 67t-125.5 201l62 39q63 -116 114 -163.5t131 -47.5t131.5 47.5t114.5 163.5z" />
    <glyph glyph-name="ibreve" unicode="&#x12d;" horiz-adv-x="389" 
d="M246 0h-103v1100h103v-1100zM502 1550q-54 -134 -125.5 -201t-181.5 -67t-182 67t-126 201l62 39q63 -116 114.5 -163.5t131.5 -47.5t131 47.5t114 163.5z" />
    <glyph glyph-name="Iogonek" unicode="&#x12e;" horiz-adv-x="366" 
d="M233 0q-82 -88 -110.5 -132t-28.5 -95q0 -35 26.5 -57.5t80.5 -22.5q36 0 82 8l63 12l16 -57l-73 -16q-57 -11 -109 -11q-76 0 -125 37.5t-49 104.5q0 57 27.5 108.5t99.5 120.5v1477h100v-1477z" />
    <glyph glyph-name="iogonek" unicode="&#x12f;" horiz-adv-x="389" 
d="M246 0l-74 -70q-38 -36 -53 -64t-15 -73q0 -100 107 -100q51 0 145 20l17 -57q-89 -27 -172 -27q-86 0 -135.5 40.5t-49.5 123.5q0 59 18 92t81 90l28 25v1100h103v-1100zM262 1485q0 -18 -3 -21.5t-19 -3.5h-90q-16 0 -19.5 3.5t-3.5 21.5v84q0 11 0.5 15.5t4 7.5t6 3
h12.5h90h12t6 -3t3.5 -7.5t0.5 -15.5v-84z" />
    <glyph glyph-name="Idotaccent" unicode="&#x130;" horiz-adv-x="366" 
d="M233 0h-100v1477h100v-1477zM258 1696q0 -18 -3 -21.5t-19 -3.5h-103q-15 0 -18.5 3.5t-3.5 21.5v94q0 20 3.5 23.5t18.5 3.5h103q16 0 19 -3.5t3 -23.5v-94z" />
    <glyph glyph-name="dotlessi" unicode="&#x131;" horiz-adv-x="389" 
d="M246 0h-103v1100h103v-1100z" />
    <glyph glyph-name="IJ" unicode="&#x132;" horiz-adv-x="1206" 
d="M233 0h-100v1477h100v-1477zM1073 412q0 -125 -28 -212.5t-82.5 -138t-126 -72.5t-168.5 -22q-144 0 -250 76l47 68q91 -62 203 -62q165 0 235 85t70 278v1065h100v-1065z" />
    <glyph glyph-name="ij" unicode="&#x133;" horiz-adv-x="778" 
d="M262 1485q0 -18 -3 -21.5t-19 -3.5h-90q-16 0 -19.5 3.5t-3.5 21.5v84q0 11 0.5 15.5t4 7.5t6 3h12.5h90h12t6 -3t3.5 -7.5t0.5 -15.5v-84zM246 0h-103v1100h103v-1100zM651 1485q0 -18 -3.5 -21.5t-18.5 -3.5h-90q-16 0 -19.5 3.5t-3.5 21.5v84q0 11 0.5 15.5t4 7.5t6 3
h12.5h90h12t6 -3t3.5 -7.5t0.5 -15.5v-84zM635 -225q0 -57 -12.5 -102.5t-42.5 -85t-87.5 -61.5t-140.5 -22h-88v93h88q106 0 142 47t36 161v1295h105v-1325z" />
    <glyph glyph-name="Jcircumflex" unicode="&#x134;" horiz-adv-x="839" 
d="M707 412q0 -125 -28 -212.5t-82.5 -138t-126.5 -72.5t-169 -22q-144 0 -250 76l47 68q91 -62 203 -62q165 0 235 85t70 278v1065h101v-1065zM956 1620l-47 -45l-252 235l-251 -235l-48 45l260 311q23 29 39 29t39 -29z" />
    <glyph glyph-name="jcircumflex" unicode="&#x135;" horiz-adv-x="389" 
d="M246 -225q0 -57 -12.5 -102.5t-42.5 -85t-87.5 -61.5t-140.5 -22h-88v93h88q106 0 142 47t36 161v1295h105v-1325zM494 1272l-48 -45l-251 235l-252 -235l-47 45l260 311q23 29 39 29q15 0 38 -29z" />
    <glyph glyph-name="Kcommaaccent" unicode="&#x136;" horiz-adv-x="1232" 
d="M1192 0h-125l-594 782l-240 -235v-547h-100v1477h100v-807l822 807h125l-637 -627zM580 -512l-39 25q86 99 86 221h-68q-14 0 -17 4t-3 18v109q0 18 3.5 21t16.5 3h115q14 0 17 -4t3 -20v-107q0 -156 -114 -270z" />
    <glyph glyph-name="kcommaaccent" unicode="&#x137;" horiz-adv-x="1062" 
d="M1022 0h-137l-471 627l-168 -133v-494h-103v1595h103v-987l620 492h154l-526 -412zM494 -512l-39 25q86 99 86 221h-68q-14 0 -17 4t-3 18v109q0 18 3.5 21t16.5 3h115q14 0 17 -4t3 -20v-107q0 -156 -114 -270z" />
    <glyph glyph-name="kgreenlandic" unicode="&#x138;" horiz-adv-x="1062" 
d="M1022 0h-137l-471 627l-168 -133v-494h-103v1100h103v-492l620 492h154l-526 -412z" />
    <glyph glyph-name="Lacute" unicode="&#x139;" horiz-adv-x="991" 
d="M930 0h-797v1477h100v-1391h697v-86zM834 1868l-353 -291q-11 -9 -24 4l-25 23q-10 10 -2 18l307 346z" />
    <glyph glyph-name="lacute" unicode="&#x13a;" horiz-adv-x="454" 
d="M444 -16h-82q-111 0 -165 60t-54 187v1364h103v-1364q0 -84 27.5 -117.5t88.5 -33.5h82v-96zM514 1905l-352 -291q-12 -9 -25 4l-24 22q-11 10 -2 19l307 346z" />
    <glyph glyph-name="Lcommaaccent" unicode="&#x13b;" horiz-adv-x="991" 
d="M930 0h-797v1477h100v-1391h697v-86zM459 -512l-39 25q86 99 86 221h-68q-14 0 -17 4t-3 18v109q0 18 3.5 21t16.5 3h115q14 0 17 -4t3 -20v-107q0 -156 -114 -270z" />
    <glyph glyph-name="lcommaaccent" unicode="&#x13c;" horiz-adv-x="454" 
d="M444 -16h-82q-111 0 -165 60t-54 187v1364h103v-1364q0 -84 27.5 -117.5t88.5 -33.5h82v-96zM190 -512l-38 25q86 99 86 221h-68q-14 0 -17 4t-3 18v109q0 18 3.5 21t16.5 3h115q14 0 17 -4t3 -20v-107q0 -155 -115 -270z" />
    <glyph glyph-name="Lcaron" unicode="&#x13d;" horiz-adv-x="991" 
d="M930 0h-797v1477h100v-1391h697v-86zM750 1475l-123 -480q-3 -18 -8.5 -23t-18.5 -5h-10q-15 0 -19 5t-4 23l62 480h121z" />
    <glyph glyph-name="lcaron" unicode="&#x13e;" horiz-adv-x="495" 
d="M444 -16h-82q-111 0 -165 60t-54 187v1364h103v-1364q0 -84 27.5 -117.5t88.5 -33.5h82v-96zM670 1599l-123 -479q-3 -18 -8.5 -23t-18.5 -5h-10q-15 0 -19 5t-4 23l62 479h121z" />
    <glyph glyph-name="Ldot" unicode="&#x13f;" horiz-adv-x="991" 
d="M930 0h-797v1477h100v-1391h697v-86zM713 700q0 -18 -3.5 -21t-19.5 -3h-102q-16 0 -19.5 3t-3.5 21v95q0 11 0.5 15.5t4 7.5t6 3h12.5h102q12 0 15.5 -1t5.5 -6t2 -19v-95z" />
    <glyph glyph-name="ldot" unicode="&#x140;" horiz-adv-x="770" 
d="M444 -16h-82q-111 0 -165 60t-54 187v1364h103v-1364q0 -84 27.5 -117.5t88.5 -33.5h82v-96zM649 776q0 -18 -3 -21t-19 -3h-103q-16 0 -19 3t-3 21v94q0 20 3 23.5t19 3.5h103q15 0 18.5 -3.5t3.5 -23.5v-94z" />
    <glyph glyph-name="Lslash" unicode="&#x141;" horiz-adv-x="991" 
d="M930 0h-778v700l-125 -77v104l125 78v672h100v-613l268 164v-102l-268 -164v-676h678v-86z" />
    <glyph glyph-name="lslash" unicode="&#x142;" horiz-adv-x="485" 
d="M178 1595h103v-585l172 100v-111l-172 -102v-666q0 -84 27.5 -117.5t88.5 -33.5h82v-96h-82q-111 0 -165 60t-54 187v607l-143 -86v114l143 84v645z" />
    <glyph glyph-name="Nacute" unicode="&#x143;" horiz-adv-x="1411" 
d="M1278 0h-107l-938 1321v-1321h-100v1477h107l940 -1323l-2 1323h100v-1477zM1012 1868l-353 -291q-11 -9 -24 4l-25 23q-10 10 -2 18l307 346z" />
    <glyph glyph-name="nacute" unicode="&#x144;" horiz-adv-x="1144" 
d="M1014 0h-103v719q0 94 -19.5 160t-57 102t-83.5 52t-106 16t-116 -24t-162 -101l-121 -86v-838h-103v1100h70l33 -162l129 90q88 61 144.5 84t125.5 23q82 0 147.5 -23t116 -71t78 -129.5t27.5 -192.5v-719zM858 1528l-352 -291q-12 -9 -25 4l-24 23q-10 10 -2 18
l307 346z" />
    <glyph glyph-name="Ncommaaccent" unicode="&#x145;" horiz-adv-x="1411" 
d="M1278 0h-107l-938 1321v-1321h-100v1477h107l940 -1323l-2 1323h100v-1477zM668 -512l-39 25q86 99 86 221h-68q-14 0 -17 4t-3 18v109q0 18 3.5 21t16.5 3h115q14 0 17 -4t3 -20v-107q0 -156 -114 -270z" />
    <glyph glyph-name="ncommaaccent" unicode="&#x146;" horiz-adv-x="1144" 
d="M1014 0h-103v719q0 94 -19.5 160t-57 102t-83.5 52t-106 16t-116 -24t-162 -101l-121 -86v-838h-103v1100h70l33 -162l129 90q88 61 144.5 84t125.5 23q82 0 147.5 -23t116 -71t78 -129.5t27.5 -192.5v-719zM535 -512l-39 25q86 99 86 221h-68q-14 0 -17 4t-3 18v109
q0 18 3.5 21t16.5 3h115q14 0 17 -4t3 -20v-107q0 -156 -114 -270z" />
    <glyph glyph-name="Ncaron" unicode="&#x147;" horiz-adv-x="1411" 
d="M1278 0h-107l-938 1321v-1321h-100v1477h107l940 -1323l-2 1323h100v-1477zM1004 1907l-259 -303q-23 -29 -40 -29q-16 0 -39 29l-258 303l45 45l252 -242l253 242z" />
    <glyph glyph-name="ncaron" unicode="&#x148;" horiz-adv-x="1144" 
d="M1014 0h-103v719q0 94 -19.5 160t-57 102t-83.5 52t-106 16t-116 -24t-162 -101l-121 -86v-838h-103v1100h70l33 -162l129 90q88 61 144.5 84t125.5 23q82 0 147.5 -23t116 -71t78 -129.5t27.5 -192.5v-719zM870 1581l-258 -303q-23 -29 -41 -29q-16 0 -39 29l-258 303
l45 45l252 -242l254 242z" />
    <glyph glyph-name="napostrophe" unicode="&#x149;" horiz-adv-x="1472" 
d="M246 1346q0 -97 -47 -180t-129 -144l-29 27q75 69 106 130.5t31 141.5h-67q-16 0 -18.5 2.5t-2.5 19.5v109q0 18 3 21.5t18 3.5h114q15 0 18 -3.5t3 -21.5v-106zM1225 0h-103v719q0 94 -19.5 160t-57 102t-83.5 52t-106 16t-116 -24t-162 -101l-121 -86v-838h-103v1100
h70l33 -162l129 90q88 61 144.5 84t125.5 23q82 0 147.5 -23t116 -71t78 -129.5t27.5 -192.5v-719z" />
    <glyph glyph-name="Eng" unicode="&#x14a;" horiz-adv-x="1411" 
d="M1278 -66q0 -125 -28 -212.5t-82.5 -137.5t-126.5 -72t-169 -22q-143 0 -249 76l47 67q89 -61 202 -61q166 0 236 85t70 277v66l-945 1321v-1321h-100v1477h107l938 -1315v1315h100v-1543z" />
    <glyph glyph-name="eng" unicode="&#x14b;" horiz-adv-x="1144" 
d="M1014 -225q0 -58 -12.5 -103t-42 -85t-86.5 -61.5t-140 -21.5h-88v93h88q106 0 142 47t36 161v914q0 94 -19.5 160t-57 102t-83.5 52t-106 16t-116 -24t-162 -101l-121 -86v-838h-103v1100h70l33 -162l129 90q88 61 144.5 84t125.5 23q82 0 147.5 -23t116 -71t78 -129.5
t27.5 -192.5v-944z" />
    <glyph glyph-name="Omacron" unicode="&#x14c;" horiz-adv-x="1361" 
d="M1270 756q0 -151 -16.5 -267.5t-57 -217t-107 -166t-170 -102t-241.5 -36.5t-240.5 36.5t-168.5 101.5t-106 166t-55.5 217t-15.5 268q0 136 15.5 244t56 206t105.5 162.5t168.5 102.5t240.5 38t241 -38t170 -102.5t107.5 -162t57.5 -206t16 -244.5zM1165 756
q0 128 -13.5 226t-47 183t-88 139.5t-139.5 85.5t-199 31q-115 0 -199.5 -31t-138 -85.5t-86 -140t-45 -183t-12.5 -225.5q0 -141 12.5 -245t45 -193.5t86.5 -145t138 -86.5t199 -31q143 0 239 45.5t150 139.5t76 217t22 299zM993 1671h-633v94h633v-94z" />
    <glyph glyph-name="omacron" unicode="&#x14d;" horiz-adv-x="1142" 
d="M1042 553q0 -294 -110 -440t-361 -146t-361 146t-110 440q0 293 110 437.5t361 144.5t361 -144.5t110 -437.5zM934 553q0 268 -82.5 383t-280.5 115q-197 0 -281.5 -115.5t-84.5 -382.5t84 -384.5t282 -117.5q197 0 280 117.5t83 384.5zM887 1362h-633v94h633v-94z" />
    <glyph glyph-name="Obreve" unicode="&#x14e;" horiz-adv-x="1361" 
d="M1270 756q0 -151 -16.5 -267.5t-57 -217t-107 -166t-170 -102t-241.5 -36.5t-240.5 36.5t-168.5 101.5t-106 166t-55.5 217t-15.5 268q0 136 15.5 244t56 206t105.5 162.5t168.5 102.5t240.5 38t241 -38t170 -102.5t107.5 -162t57.5 -206t16 -244.5zM1165 756
q0 128 -13.5 226t-47 183t-88 139.5t-139.5 85.5t-199 31q-115 0 -199.5 -31t-138 -85.5t-86 -140t-45 -183t-12.5 -225.5q0 -141 12.5 -245t45 -193.5t86.5 -145t138 -86.5t199 -31q143 0 239 45.5t150 139.5t76 217t22 299zM987 1849q-54 -134 -125.5 -201t-181.5 -67
t-181.5 67t-125.5 201l61 39q63 -116 114.5 -163.5t131.5 -47.5t131.5 47.5t114.5 163.5z" />
    <glyph glyph-name="obreve" unicode="&#x14f;" horiz-adv-x="1142" 
d="M1042 553q0 -294 -110 -440t-361 -146t-361 146t-110 440q0 293 110 437.5t361 144.5t361 -144.5t110 -437.5zM934 553q0 268 -82.5 383t-280.5 115q-197 0 -281.5 -115.5t-84.5 -382.5t84 -384.5t282 -117.5q197 0 280 117.5t83 384.5zM879 1550q-54 -134 -126 -201
t-182 -67t-181.5 67t-125.5 201l62 39q63 -116 114 -163.5t131 -47.5t131.5 47.5t114.5 163.5z" />
    <glyph glyph-name="Ohungarumlaut" unicode="&#x150;" horiz-adv-x="1361" 
d="M1270 756q0 -151 -16.5 -267.5t-57 -217t-107 -166t-170 -102t-241.5 -36.5t-240.5 36.5t-168.5 101.5t-106 166t-55.5 217t-15.5 268q0 136 15.5 244t56 206t105.5 162.5t168.5 102.5t240.5 38t241 -38t170 -102.5t107.5 -162t57.5 -206t16 -244.5zM1165 756
q0 128 -13.5 226t-47 183t-88 139.5t-139.5 85.5t-199 31q-115 0 -199.5 -31t-138 -85.5t-86 -140t-45 -183t-12.5 -225.5q0 -141 12.5 -245t45 -193.5t86.5 -145t138 -86.5t199 -31q143 0 239 45.5t150 139.5t76 217t22 299zM752 1870l-353 -291q-11 -9 -24 4l-25 23
q-6 6 -7 9t5 9l307 346zM1223 1870l-353 -291q-11 -9 -24 4l-25 23q-7 6 -7 9t5 9l307 346z" />
    <glyph glyph-name="ohungarumlaut" unicode="&#x151;" horiz-adv-x="1142" 
d="M1042 553q0 -294 -110 -440t-361 -146t-361 146t-110 440q0 293 110 437.5t361 144.5t361 -144.5t110 -437.5zM934 553q0 268 -82.5 383t-280.5 115q-197 0 -281.5 -115.5t-84.5 -382.5t84 -384.5t282 -117.5q197 0 280 117.5t83 384.5zM643 1528l-352 -291q-12 -9 -25 4
l-24 23q-6 6 -7 9t5 9l307 346zM1114 1528l-352 -291q-12 -9 -25 4l-24 23q-7 6 -7 9t5 9l307 346z" />
    <glyph glyph-name="OE" unicode="&#x152;" horiz-adv-x="2152" 
d="M2071 0h-904v211q-135 -244 -489 -244q-138 0 -240.5 36.5t-168.5 101.5t-106 166t-55.5 217t-15.5 268q0 136 15.5 244t56 206t105.5 162.5t168.5 102.5t240.5 38q352 0 489 -243v211h901v-86h-800v-566h704l-24 -88h-680v-651h803v-86zM1165 756q0 128 -13.5 226
t-47 183t-88 139.5t-139.5 85.5t-199 31q-115 0 -199.5 -31t-138 -85.5t-86 -140t-45 -183t-12.5 -225.5q0 -141 12.5 -245t45 -193.5t86.5 -145t138 -86.5t199 -31q143 0 239 45.5t150 139.5t76 217t22 299z" />
    <glyph glyph-name="oe" unicode="&#x153;" horiz-adv-x="1961" 
d="M1868 532h-826q6 -253 89.5 -367t289.5 -114q236 0 328 160l88 -37q-55 -102 -154.5 -154.5t-261.5 -52.5q-169 0 -275 57.5t-159 182.5q-103 -240 -416 -240q-251 0 -361 146t-110 440q0 293 110 437.5t361 144.5q311 0 416 -240q52 120 158.5 180t279.5 60
q82 0 147 -15.5t111 -42.5t79.5 -69.5t53.5 -89t32 -109t16 -121.5t4 -135v-21zM1757 616q0 107 -14 181.5t-49 134.5t-102 89.5t-167 29.5q-91 0 -157 -22t-115.5 -72t-76.5 -134t-34 -207h715zM932 553q0 63 -3 112t-12 103t-25 93.5t-43 77t-64.5 61t-91.5 37.5t-122 14
q-197 0 -281.5 -115.5t-84.5 -382.5t84 -384.5t282 -117.5q68 0 122 14.5t91.5 38.5t64.5 62t43 78t25 94.5t12 103t3 111.5z" />
    <glyph glyph-name="Racute" unicode="&#x154;" horiz-adv-x="1193" 
d="M1092 0h-117l-410 647h-332v-647h-100v1477h445q135 0 233.5 -30.5t156 -87.5t84.5 -131t27 -169q0 -164 -96.5 -271t-304.5 -139zM975 1059q0 182 -99.5 257t-297.5 75h-345v-656h342q400 0 400 324zM883 1872l-353 -291q-11 -9 -24 4l-25 23q-10 10 -2 18l307 346z" />
    <glyph glyph-name="racute" unicode="&#x155;" horiz-adv-x="690" 
d="M643 1032q-54 8 -74 8q-64 0 -115.5 -23.5t-121.5 -76.5l-94 -72v-868h-103v1100h66l30 -135l70 51q77 56 143.5 87.5t135.5 31.5q36 0 63 -7v-96zM631 1528l-352 -291q-12 -9 -25 4l-25 23q-10 10 -2 18l308 346z" />
    <glyph glyph-name="Rcommaaccent" unicode="&#x156;" horiz-adv-x="1193" 
d="M1092 0h-117l-410 647h-332v-647h-100v1477h445q135 0 233.5 -30.5t156 -87.5t84.5 -131t27 -169q0 -164 -96.5 -271t-304.5 -139zM975 1059q0 182 -99.5 257t-297.5 75h-345v-656h342q400 0 400 324zM559 -512l-39 25q86 99 86 221h-67q-14 0 -17.5 4.5t-3.5 17.5v109
q0 9 0.5 14t4 7.5t6 2.5h10.5h114q14 0 17.5 -4t3.5 -20v-107q0 -155 -115 -270z" />
    <glyph glyph-name="rcommaaccent" unicode="&#x157;" horiz-adv-x="690" 
d="M643 1032q-54 8 -74 8q-64 0 -115.5 -23.5t-121.5 -76.5l-94 -72v-868h-103v1100h66l30 -135l70 51q77 56 143.5 87.5t135.5 31.5q36 0 63 -7v-96zM307 -512l-39 25q86 99 86 221h-67q-14 0 -17.5 4.5t-3.5 17.5v109q0 9 0.5 14t4 7.5t6 2.5h10.5h114q14 0 17.5 -4
t3.5 -20v-107q0 -155 -115 -270z" />
    <glyph glyph-name="Rcaron" unicode="&#x158;" horiz-adv-x="1193" 
d="M1092 0h-117l-410 647h-332v-647h-100v1477h445q135 0 233.5 -30.5t156 -87.5t84.5 -131t27 -169q0 -164 -96.5 -271t-304.5 -139zM975 1059q0 182 -99.5 257t-297.5 75h-345v-656h342q400 0 400 324zM874 1911l-258 -303q-23 -29 -41 -29q-15 0 -38 29l-258 303l45 45
l251 -242l254 242z" />
    <glyph glyph-name="rcaron" unicode="&#x159;" horiz-adv-x="690" 
d="M643 1032q-54 8 -74 8q-64 0 -115.5 -23.5t-121.5 -76.5l-94 -72v-868h-103v1100h66l30 -135l70 51q77 56 143.5 87.5t135.5 31.5q36 0 63 -7v-96zM643 1581l-258 -303q-23 -29 -41 -29q-16 0 -39 29l-258 303l45 45l252 -242l254 242z" />
    <glyph glyph-name="Sacute" unicode="&#x15a;" horiz-adv-x="1187" 
d="M1106 406q0 -86 -30.5 -162.5t-91.5 -139.5t-164.5 -100t-237.5 -37q-173 0 -304 67.5t-188 198.5l84 43q60 -116 160 -168.5t248 -52.5q111 0 194.5 30t130.5 81t69.5 111t22.5 129q0 130 -57.5 202.5t-191.5 96.5l-328 59q-301 55 -301 371q0 58 13 108.5t46 100.5
t84.5 85.5t135.5 57.5t192 22q82 0 151 -14t113.5 -34.5t81 -51t56.5 -56t38 -57.5l-86 -43q-53 84 -134.5 126t-219.5 42q-369 0 -369 -286q0 -124 50.5 -188t175.5 -87l327 -57q169 -30 249.5 -133.5t80.5 -263.5zM860 1872l-352 -291q-12 -9 -25 4l-24 23q-10 10 -2 18
l307 346z" />
    <glyph glyph-name="sacute" unicode="&#x15b;" horiz-adv-x="976" 
d="M901 307q0 -158 -115 -249t-299 -91q-155 0 -259.5 52.5t-149.5 154.5l94 33q38 -78 123 -117t192 -39q132 0 221 65.5t89 190.5q0 173 -181 201l-280 47q-109 18 -171.5 85.5t-62.5 184.5q0 103 57.5 175t143.5 103.5t189 31.5q115 0 215 -41.5t149 -116.5l-82 -41
q-42 58 -117.5 86.5t-164.5 28.5q-61 0 -111.5 -12.5t-91 -38.5t-63.5 -70.5t-23 -104.5q0 -73 34.5 -118.5t124.5 -59.5l279 -45q118 -20 189 -95t71 -200zM754 1528l-353 -291q-11 -9 -24 4l-25 23q-10 10 -2 18l307 346z" />
    <glyph glyph-name="Scircumflex" unicode="&#x15c;" horiz-adv-x="1187" 
d="M1106 406q0 -86 -30.5 -162.5t-91.5 -139.5t-164.5 -100t-237.5 -37q-173 0 -304 67.5t-188 198.5l84 43q60 -116 160 -168.5t248 -52.5q111 0 194.5 30t130.5 81t69.5 111t22.5 129q0 130 -57.5 202.5t-191.5 96.5l-328 59q-301 55 -301 371q0 58 13 108.5t46 100.5
t84.5 85.5t135.5 57.5t192 22q82 0 151 -14t113.5 -34.5t81 -51t56.5 -56t38 -57.5l-86 -43q-53 84 -134.5 126t-219.5 42q-369 0 -369 -286q0 -124 50.5 -188t175.5 -87l327 -57q169 -30 249.5 -133.5t80.5 -263.5zM893 1620l-47 -45l-252 235l-252 -235l-47 45l260 311
q23 29 39 29t39 -29z" />
    <glyph glyph-name="scircumflex" unicode="&#x15d;" horiz-adv-x="976" 
d="M901 307q0 -158 -115 -249t-299 -91q-155 0 -259.5 52.5t-149.5 154.5l94 33q38 -78 123 -117t192 -39q132 0 221 65.5t89 190.5q0 173 -181 201l-280 47q-109 18 -171.5 85.5t-62.5 184.5q0 103 57.5 175t143.5 103.5t189 31.5q115 0 215 -41.5t149 -116.5l-82 -41
q-42 58 -117.5 86.5t-164.5 28.5q-61 0 -111.5 -12.5t-91 -38.5t-63.5 -70.5t-23 -104.5q0 -73 34.5 -118.5t124.5 -59.5l279 -45q118 -20 189 -95t71 -200zM786 1272l-47 -45l-252 235l-251 -235l-48 45l261 311q23 29 38 29q16 0 39 -29z" />
    <glyph glyph-name="uni015E" unicode="&#x15e;" horiz-adv-x="1187" 
d="M780 -221q0 -146 -205 -146q-45 0 -96 7l-73 10l8 55l71 -10q36 -4 70 -4q137 0 137 88q0 32 -23 49.5t-57 17.5h-131l-51 70l47 59q-137 18 -238 82.5t-149 175.5l84 43q60 -116 160 -168.5t248 -52.5q111 0 194.5 30t130.5 81t69.5 111t22.5 129q0 130 -57.5 202.5
t-191.5 96.5l-328 59q-301 55 -301 371q0 58 13 108.5t46 100.5t84.5 85.5t135.5 57.5t192 22q82 0 151 -14t113.5 -34.5t81 -51t56.5 -56t38 -57.5l-86 -43q-53 84 -134.5 126t-219.5 42q-369 0 -369 -286q0 -124 50.5 -188t175.5 -87l327 -57q169 -30 249.5 -133.5
t80.5 -263.5q0 -86 -30.5 -162.5t-91.5 -139.5t-164.5 -100t-237.5 -37q-27 0 -39 2l-39 -61h108q168 0 168 -129z" />
    <glyph glyph-name="uni015F" unicode="&#x15f;" horiz-adv-x="976" 
d="M676 -221q0 -146 -205 -146q-45 0 -96 7l-74 10l8 55l72 -10q36 -4 70 -4q137 0 137 88q0 32 -23 49.5t-57 17.5h-131l-51 70l49 59q-225 36 -297 199l94 33q38 -78 123 -117t192 -39q132 0 221 65.5t89 190.5q0 173 -181 201l-280 47q-109 18 -171.5 85.5t-62.5 184.5
q0 103 57.5 175t143.5 103.5t189 31.5q115 0 215 -41.5t149 -116.5l-82 -41q-42 58 -117.5 86.5t-164.5 28.5q-61 0 -111.5 -12.5t-91 -38.5t-63.5 -70.5t-23 -104.5q0 -73 34.5 -118.5t124.5 -59.5l279 -45q118 -20 189 -95t71 -200q0 -158 -115 -249t-299 -91q-33 0 -49 2
l-39 -61h109q168 0 168 -129z" />
    <glyph glyph-name="Scaron" unicode="&#x160;" horiz-adv-x="1187" 
d="M1106 406q0 -86 -30.5 -162.5t-91.5 -139.5t-164.5 -100t-237.5 -37q-173 0 -304 67.5t-188 198.5l84 43q60 -116 160 -168.5t248 -52.5q111 0 194.5 30t130.5 81t69.5 111t22.5 129q0 130 -57.5 202.5t-191.5 96.5l-328 59q-301 55 -301 371q0 58 13 108.5t46 100.5
t84.5 85.5t135.5 57.5t192 22q82 0 151 -14t113.5 -34.5t81 -51t56.5 -56t38 -57.5l-86 -43q-53 84 -134.5 126t-219.5 42q-369 0 -369 -286q0 -124 50.5 -188t175.5 -87l327 -57q169 -30 249.5 -133.5t80.5 -263.5zM891 1909l-258 -303q-23 -29 -41 -29q-16 0 -39 29
l-258 303l45 45l252 -242l254 242z" />
    <glyph glyph-name="scaron" unicode="&#x161;" horiz-adv-x="976" 
d="M901 307q0 -158 -115 -249t-299 -91q-155 0 -259.5 52.5t-149.5 154.5l94 33q38 -78 123 -117t192 -39q132 0 221 65.5t89 190.5q0 173 -181 201l-280 47q-109 18 -171.5 85.5t-62.5 184.5q0 103 57.5 175t143.5 103.5t189 31.5q115 0 215 -41.5t149 -116.5l-82 -41
q-42 58 -117.5 86.5t-164.5 28.5q-61 0 -111.5 -12.5t-91 -38.5t-63.5 -70.5t-23 -104.5q0 -73 34.5 -118.5t124.5 -59.5l279 -45q118 -20 189 -95t71 -200zM786 1581l-258 -303q-23 -29 -41 -29q-15 0 -38 29l-259 303l46 45l251 -242l254 242z" />
    <glyph glyph-name="Tcommaaccent" unicode="&#x162;" horiz-adv-x="1163" 
d="M1102 1391h-469v-1391h-101v1391h-471v86h1041v-86zM545 -512l-39 25q86 99 86 221h-68q-14 0 -17 4t-3 18v109q0 18 3.5 21t16.5 3h115q14 0 17 -4t3 -20v-107q0 -156 -114 -270z" />
    <glyph glyph-name="tcommaaccent" unicode="&#x163;" horiz-adv-x="804" 
d="M791 35q-113 -68 -275 -68q-123 0 -200.5 69.5t-77.5 215.5v762h-199v86h194v387l105 26v-413h389l-27 -86h-362v-762q0 -201 199 -201q104 0 194 55zM430 -512l-39 25q86 99 86 221h-67q-14 0 -17.5 4.5t-3.5 17.5v109q0 9 0.5 14t4 7.5t6 2.5h10.5h114q14 0 17.5 -4
t3.5 -20v-107q0 -155 -115 -270z" />
    <glyph glyph-name="Tcaron" unicode="&#x164;" horiz-adv-x="1163" 
d="M1102 1391h-469v-1391h-101v1391h-471v86h1041v-86zM879 1909l-258 -303q-23 -29 -41 -29q-16 0 -39 29l-258 303l45 45l252 -242l254 242z" />
    <glyph glyph-name="tcaron" unicode="&#x165;" horiz-adv-x="864" 
d="M791 35q-113 -68 -275 -68q-123 0 -200.5 69.5t-77.5 215.5v762h-199v86h194v387l105 26v-413h389l-27 -86h-362v-762q0 -201 199 -201q104 0 194 55zM1038 1597l-123 -479q-3 -18 -8 -23t-18 -5h-10q-15 0 -19 5t-4 23l62 479h120z" />
    <glyph glyph-name="Tbar" unicode="&#x166;" horiz-adv-x="1163" 
d="M1102 1014h-469v-1014h-101v1014h-471v86h471v291h-471v86h1041v-86h-469v-291h469v-86z" />
    <glyph glyph-name="tbar" unicode="&#x167;" horiz-adv-x="804" 
d="M700 666h-362v-414q0 -201 199 -201q104 0 194 55l60 -71q-113 -68 -275 -68q-123 0 -200.5 69.5t-77.5 215.5v414h-199v86h199v262h-199v86h194v387l105 26v-413h389l-27 -86h-362v-262h389z" />
    <glyph glyph-name="Utilde" unicode="&#x168;" horiz-adv-x="1380" 
d="M1257 602q0 -169 -40.5 -293t-117 -198t-178 -109t-231.5 -35t-231.5 35t-178 109t-117 198t-40.5 293v875h100v-875q0 -282 117.5 -414.5t349.5 -132.5t349.5 132t117.5 415v875h100v-875zM1057 1804l-131 -176q-35 -47 -82 -47q-38 0 -82 27l-182 110q-30 19 -43 19
q-7 0 -12 -1.5t-10 -5.5t-8 -7t-10 -11.5t-12 -13.5l-112 -125l-49 39l129 178q33 45 82 45q37 0 81 -27l187 -112q24 -15 39 -15q11 0 19 4t12.5 8.5t19.5 22.5l113 129z" />
    <glyph glyph-name="utilde" unicode="&#x169;" horiz-adv-x="1144" 
d="M1001 0h-67l-33 164l-129 -90q-88 -61 -145.5 -84t-126.5 -23q-169 0 -268 100t-99 316v717h100v-717q0 -181 70.5 -255.5t196.5 -74.5q59 0 114 23.5t164 99.5l123 86v838h100v-1100zM938 1499l-131 -176q-35 -47 -82 -47q-39 0 -82 27l-182 110q-30 19 -43 19
q-8 0 -15 -3t-10 -6.5t-12 -13.5t-14 -16l-113 -125l-49 39l129 178q33 45 82 45q38 0 82 -27l186 -112q24 -15 39 -15q11 0 19 4t12.5 8.5t19.5 22.5l113 129z" />
    <glyph glyph-name="Umacron" unicode="&#x16a;" horiz-adv-x="1380" 
d="M1257 602q0 -169 -40.5 -293t-117 -198t-178 -109t-231.5 -35t-231.5 35t-178 109t-117 198t-40.5 293v875h100v-875q0 -282 117.5 -414.5t349.5 -132.5t349.5 132t117.5 415v875h100v-875zM1006 1673h-633v94h633v-94z" />
    <glyph glyph-name="umacron" unicode="&#x16b;" horiz-adv-x="1144" 
d="M1001 0h-67l-33 164l-129 -90q-88 -61 -145.5 -84t-126.5 -23q-169 0 -268 100t-99 316v717h100v-717q0 -181 70.5 -255.5t196.5 -74.5q59 0 114 23.5t164 99.5l123 86v838h100v-1100zM889 1362h-633v94h633v-94z" />
    <glyph glyph-name="Ubreve" unicode="&#x16c;" horiz-adv-x="1380" 
d="M1257 602q0 -169 -40.5 -293t-117 -198t-178 -109t-231.5 -35t-231.5 35t-178 109t-117 198t-40.5 293v875h100v-875q0 -282 117.5 -414.5t349.5 -132.5t349.5 132t117.5 415v875h100v-875zM997 1841q-54 -134 -125.5 -201t-181.5 -67t-181.5 67t-125.5 201l61 39
q63 -116 114.5 -163.5t131.5 -47.5t131.5 47.5t114.5 163.5z" />
    <glyph glyph-name="ubreve" unicode="&#x16d;" horiz-adv-x="1144" 
d="M1001 0h-67l-33 164l-129 -90q-88 -61 -145.5 -84t-126.5 -23q-169 0 -268 100t-99 316v717h100v-717q0 -181 70.5 -255.5t196.5 -74.5q59 0 114 23.5t164 99.5l123 86v838h100v-1100zM879 1550q-54 -134 -126 -201t-182 -67t-181.5 67t-125.5 201l62 39
q63 -116 114 -163.5t131 -47.5t131.5 47.5t114.5 163.5z" />
    <glyph glyph-name="Uring" unicode="&#x16e;" horiz-adv-x="1380" 
d="M1257 602q0 -169 -40.5 -293t-117 -198t-178 -109t-231.5 -35t-231.5 35t-178 109t-117 198t-40.5 293v875h100v-875q0 -282 117.5 -414.5t349.5 -132.5t349.5 132t117.5 415v875h100v-875zM913 1800q0 -92 -66.5 -157.5t-158.5 -65.5t-157.5 65.5t-65.5 157.5
t65.5 157.5t157.5 65.5t158.5 -65.5t66.5 -157.5zM836 1800q0 61 -43 103.5t-105 42.5q-61 0 -103 -42t-42 -104t42 -104.5t103 -42.5q62 0 105 43t43 104z" />
    <glyph glyph-name="uring" unicode="&#x16f;" horiz-adv-x="1144" 
d="M1001 0h-67l-33 164l-129 -90q-88 -61 -145.5 -84t-126.5 -23q-169 0 -268 100t-99 316v717h100v-717q0 -181 70.5 -255.5t196.5 -74.5q59 0 114 23.5t164 99.5l123 86v838h100v-1100zM797 1456q0 -92 -66.5 -157.5t-159.5 -65.5q-92 0 -157.5 65.5t-65.5 157.5
t65.5 157.5t157.5 65.5q93 0 159.5 -65.5t66.5 -157.5zM719 1456q0 61 -43 103.5t-105 42.5q-61 0 -103 -42t-42 -104t42 -104.5t103 -42.5q62 0 105 43t43 104z" />
    <glyph glyph-name="Uhungarumlaut" unicode="&#x170;" horiz-adv-x="1380" 
d="M1257 602q0 -169 -40.5 -293t-117 -198t-178 -109t-231.5 -35t-231.5 35t-178 109t-117 198t-40.5 293v875h100v-875q0 -282 117.5 -414.5t349.5 -132.5t349.5 132t117.5 415v875h100v-875zM760 1872l-352 -291q-12 -9 -25 4l-25 23q-6 6 -7 9t5 9l308 346zM1231 1872
l-352 -291q-12 -9 -25 4l-25 23q-7 6 -7 9t5 9l308 346z" />
    <glyph glyph-name="uhungarumlaut" unicode="&#x171;" horiz-adv-x="1144" 
d="M1001 0h-67l-33 164l-129 -90q-88 -61 -145.5 -84t-126.5 -23q-169 0 -268 100t-99 316v717h100v-717q0 -181 70.5 -255.5t196.5 -74.5q59 0 114 23.5t164 99.5l123 86v838h100v-1100zM643 1528l-352 -291q-12 -9 -25 4l-24 23q-6 6 -7 9t5 9l307 346zM1114 1528
l-352 -291q-12 -9 -25 4l-24 23q-7 6 -7 9t5 9l307 346z" />
    <glyph glyph-name="Uogonek" unicode="&#x172;" horiz-adv-x="1380" 
d="M1257 602q0 -402 -229 -549l-182 -170q-29 -27 -42 -51t-13 -59t26 -57.5t80 -22.5q36 0 82 8l63 12l17 -57l-74 -16q-57 -11 -108 -11q-76 0 -125.5 37.5t-49.5 104.5q0 79 58 131l92 82q-87 -17 -162 -17q-130 0 -231.5 35t-178 109t-117 198t-40.5 293v875h100v-875
q0 -282 117.5 -414.5t349.5 -132.5t349.5 132t117.5 415v875h100v-875z" />
    <glyph glyph-name="uogonek" unicode="&#x173;" horiz-adv-x="1144" 
d="M1001 0l-155 -106q-80 -54 -80 -121q0 -35 26 -57.5t80 -22.5q56 0 146 20l16 -57q-100 -27 -182 -27q-76 0 -125 37.5t-49 104.5q0 30 7 53t33.5 55t74.5 64l135 90l-27 131l-129 -90q-88 -61 -145.5 -84t-126.5 -23q-169 0 -268 100t-99 316v717h100v-717
q0 -181 70.5 -255.5t196.5 -74.5q59 0 114 23.5t164 99.5l123 86v838h100v-1100z" />
    <glyph glyph-name="Wcircumflex" unicode="&#x174;" horiz-adv-x="1746" 
d="M1686 1477l-334 -1477h-152l-330 1286l-323 -1286h-152l-334 1477h101l311 -1403l338 1353h123l340 -1353l311 1403h101zM1171 1620l-47 -45l-252 235l-251 -235l-48 45l261 311q23 29 38 29q16 0 39 -29z" />
    <glyph glyph-name="wcircumflex" unicode="&#x175;" horiz-adv-x="1568" 
d="M1520 1100l-330 -1100h-121l-285 967l-284 -967h-121l-330 1100h107l278 -985l291 985h117l291 -985l280 985h107zM1083 1272l-47 -45l-252 235l-252 -235l-47 45l260 311q23 29 39 29t39 -29z" />
    <glyph glyph-name="Ycircumflex" unicode="&#x176;" horiz-adv-x="1251" 
d="M1190 1477l-514 -877v-600h-101v600l-514 877h107l459 -787l458 787h105zM924 1620l-47 -45l-252 235l-252 -235l-47 45l260 311q23 29 39 29t39 -29z" />
    <glyph glyph-name="ycircumflex" unicode="&#x177;" horiz-adv-x="1032" 
d="M985 1100l-510 -1401q-40 -110 -111.5 -152.5t-197.5 -42.5h-103v97h103q101 0 142.5 25.5t76.5 121.5l78 213l-414 1139h105l364 -1016l363 1016h104zM815 1272l-47 -45l-252 235l-252 -235l-47 45l260 311q23 29 39 29t39 -29z" />
    <glyph glyph-name="Ydieresis" unicode="&#x178;" horiz-adv-x="1251" 
d="M1190 1477l-514 -877v-600h-101v600l-514 877h107l459 -787l458 787h105zM926 1698q0 -18 -3.5 -21.5t-19.5 -3.5h-102q-16 0 -19.5 3.5t-3.5 21.5v96q0 19 3.5 22t19.5 3h102q18 0 20.5 -4.5t2.5 -20.5v-96zM469 1698q0 -18 -3.5 -21.5t-19.5 -3.5h-100q-16 0 -19 3.5
t-3 21.5v96q0 19 3 22t19 3h100q18 0 20.5 -4.5t2.5 -20.5v-96z" />
    <glyph glyph-name="Zacute" unicode="&#x179;" horiz-adv-x="1142" 
d="M1051 1376l-852 -1290h835v-86h-942v98l852 1293h-807l-24 86h938v-101zM909 1870l-352 -291q-12 -9 -25 4l-24 23q-10 10 -2 18l307 346z" />
    <glyph glyph-name="zacute" unicode="&#x17a;" horiz-adv-x="991" 
d="M891 0h-791v121l684 891h-647l-26 88h776v-123l-690 -889h694v-88zM780 1528l-352 -291q-12 -9 -25 4l-24 23q-10 10 -2 18l307 346z" />
    <glyph glyph-name="Zdotaccent" unicode="&#x17b;" horiz-adv-x="1142" 
d="M1051 1376l-852 -1290h835v-86h-942v98l852 1293h-807l-24 86h938v-101zM666 1698q0 -18 -3.5 -21.5t-19.5 -3.5h-102q-16 0 -19.5 3.5t-3.5 21.5v94q0 19 3.5 23t19.5 4h102q16 0 19.5 -4t3.5 -23v-94z" />
    <glyph glyph-name="zdotaccent" unicode="&#x17c;" horiz-adv-x="991" 
d="M891 0h-791v121l684 891h-647l-26 88h776v-123l-690 -889h694v-88zM569 1382q0 -18 -3 -21t-19 -3h-103q-16 0 -19 3t-3 21v95q0 14 2 19t5 6t15 1h103h12t6 -3t3.5 -7.5t0.5 -15.5v-95z" />
    <glyph glyph-name="Zcaron" unicode="&#x17d;" horiz-adv-x="1142" 
d="M1051 1376l-852 -1290h835v-86h-942v98l852 1293h-807l-24 86h938v-101zM868 1911l-258 -303q-23 -29 -41 -29q-16 0 -39 29l-258 303l45 45l252 -242l254 242z" />
    <glyph glyph-name="zcaron" unicode="&#x17e;" horiz-adv-x="991" 
d="M891 0h-791v121l684 891h-647l-26 88h776v-123l-690 -889h694v-88zM793 1581l-258 -303q-23 -29 -41 -29q-16 0 -39 29l-258 303l45 45l252 -242l254 242z" />
    <glyph glyph-name="florin" unicode="&#x192;" 
d="M1098 1456l-29 -84q-85 21 -160 21q-60 0 -95 -18t-59 -71.5t-36 -154.5l-37 -303h365l-33 -84h-342l-78 -662q-21 -177 -101 -251t-219 -74q-70 0 -161 16l28 86q99 -18 146 -18q90 0 140.5 52.5t64.5 182.5l77 668h-278l35 84h254l34 297q23 186 92.5 260t202.5 74
q95 0 189 -21z" />
    <glyph glyph-name="AEacute" unicode="&#x1fc;" horiz-adv-x="2009" 
d="M1927 0h-903v479h-555l-293 -479h-108l899 1477h958v-86h-801v-566h705l-25 -88h-680v-651h803v-86zM1024 571v820l-500 -820h500zM1421 1870l-352 -291q-12 -9 -25 4l-24 23q-10 10 -2 18l307 346z" />
    <glyph glyph-name="aeacute" unicode="&#x1fd;" horiz-adv-x="1863" 
d="M1769 532h-806v-108q0 -182 90.5 -278.5t275.5 -96.5q233 0 324 162l88 -37q-55 -102 -153 -154.5t-259 -52.5q-145 0 -239 44.5t-162 148.5q-65 -51 -110 -81t-104 -58.5t-124 -41t-144 -12.5q-177 0 -261.5 94.5t-84.5 260.5q0 96 33 165t92 106.5t128.5 54t154.5 16.5
q162 0 348 -54v217q0 51 -11 88.5t-39.5 70t-84 49t-137.5 16.5q-229 0 -326 -119l-76 49q54 76 159 115t243 39q145 0 224 -41.5t130 -135.5q114 177 393 177q81 0 145.5 -15.5t110 -42.5t78.5 -69.5t53 -89t31.5 -109t15.5 -121.5t4 -135v-21zM1659 616q0 85 -8 148
t-29.5 119.5t-57.5 91.5t-94.5 55.5t-138.5 20.5q-175 0 -271.5 -88t-96.5 -289v-58h696zM856 205v325q-211 48 -328 48q-319 0 -319 -256q0 -143 66 -208t171 -65q40 0 74.5 3.5t60.5 7t54.5 14.5t45 17.5t44 23.5t40 25.5t45 31.5t46.5 33zM1325 1528l-352 -291
q-12 -9 -25 4l-24 23q-10 10 -2 18l307 346z" />
    <glyph glyph-name="Oslashacute" unicode="&#x1fe;" horiz-adv-x="1361" 
d="M1311 1509l-162 -215q121 -182 121 -538q0 -151 -16.5 -267.5t-57 -217t-107 -166t-170 -102t-241.5 -36.5q-276 0 -416 146l-106 -146h-103l158 211q-119 185 -119 578q0 136 15.5 244t56 206t105.5 162.5t168.5 102.5t240.5 38q272 0 418 -149l112 149h103zM1036 1282
q-117 139 -358 139q-115 0 -199.5 -31t-138 -85.5t-86 -140t-45 -183t-12.5 -225.5q0 -331 79 -490zM1165 756q0 301 -80 454l-761 -1017q113 -138 354 -138q143 0 239 45.5t150 139.5t76 217t22 299zM967 1872l-353 -291q-11 -9 -24 4l-25 23q-10 10 -2 18l307 346z" />
    <glyph glyph-name="oslashacute" unicode="&#x1ff;" horiz-adv-x="1142" 
d="M1085 1135l-135 -170q92 -140 92 -412q0 -294 -110 -440t-361 -146q-212 0 -325 107l-84 -107h-107l138 172q-93 145 -93 414q0 293 110 437.5t361 144.5q213 0 326 -107l86 107h102zM838 952q-83 99 -267 99q-197 0 -281.5 -115.5t-84.5 -382.5q0 -215 53 -330zM934 553
q0 212 -51 326l-578 -732q80 -96 266 -96q197 0 280 117.5t83 384.5zM836 1528l-353 -291q-11 -9 -24 4l-25 23q-10 10 -2 18l307 346z" />
    <glyph glyph-name="uni0218" unicode="&#x218;" horiz-adv-x="1187" 
d="M1106 406q0 -86 -30.5 -162.5t-91.5 -139.5t-164.5 -100t-237.5 -37q-173 0 -304 67.5t-188 198.5l84 43q60 -116 160 -168.5t248 -52.5q111 0 194.5 30t130.5 81t69.5 111t22.5 129q0 130 -57.5 202.5t-191.5 96.5l-328 59q-301 55 -301 371q0 58 13 108.5t46 100.5
t84.5 85.5t135.5 57.5t192 22q82 0 151 -14t113.5 -34.5t81 -51t56.5 -56t38 -57.5l-86 -43q-53 84 -134.5 126t-219.5 42q-369 0 -369 -286q0 -124 50.5 -188t175.5 -87l327 -57q169 -30 249.5 -133.5t80.5 -263.5zM557 -512l-39 25q86 99 86 221h-67q-14 0 -17.5 4.5
t-3.5 17.5v109q0 9 0.5 14t4 7.5t6 2.5h10.5h114q14 0 17.5 -4t3.5 -20v-107q0 -155 -115 -270z" />
    <glyph glyph-name="uni0219" unicode="&#x219;" horiz-adv-x="976" 
d="M901 307q0 -158 -115 -249t-299 -91q-155 0 -259.5 52.5t-149.5 154.5l94 33q38 -78 123 -117t192 -39q132 0 221 65.5t89 190.5q0 173 -181 201l-280 47q-109 18 -171.5 85.5t-62.5 184.5q0 103 57.5 175t143.5 103.5t189 31.5q115 0 215 -41.5t149 -116.5l-82 -41
q-42 58 -117.5 86.5t-164.5 28.5q-61 0 -111.5 -12.5t-91 -38.5t-63.5 -70.5t-23 -104.5q0 -73 34.5 -118.5t124.5 -59.5l279 -45q118 -20 189 -95t71 -200zM451 -512l-39 25q86 99 86 221h-68q-14 0 -17 4t-3 18v109q0 18 3.5 21t16.5 3h115q14 0 17 -4t3 -20v-107
q0 -156 -114 -270z" />
    <glyph glyph-name="circumflex" unicode="&#x2c6;" horiz-adv-x="884" 
d="M741 1272l-47 -45l-252 235l-252 -235l-47 45l260 311q23 29 39 29t39 -29z" />
    <glyph glyph-name="caron" unicode="&#x2c7;" horiz-adv-x="907" 
d="M752 1581l-258 -303q-23 -29 -41 -29q-16 0 -39 29l-258 303l45 45l252 -242l254 242z" />
    <glyph glyph-name="uni02C9" unicode="&#x2c9;" horiz-adv-x="897" 
d="M766 1362h-633v94h633v-94z" />
    <glyph glyph-name="breve" unicode="&#x2d8;" horiz-adv-x="884" 
d="M750 1550q-54 -134 -126 -201t-182 -67t-181.5 67t-125.5 201l62 39q63 -116 114 -163.5t131 -47.5t131.5 47.5t114.5 163.5z" />
    <glyph glyph-name="dotaccent" unicode="&#x2d9;" horiz-adv-x="444" 
d="M297 1350q0 -18 -3.5 -21.5t-19.5 -3.5h-102q-16 0 -19 3.5t-3 21.5v94q0 14 2 19t5 6t15 1h102q12 0 15.5 -1t5.5 -6t2 -19v-94z" />
    <glyph glyph-name="ring" unicode="&#x2da;" horiz-adv-x="690" 
d="M569 1456q0 -92 -66.5 -157.5t-158.5 -65.5t-157.5 65.5t-65.5 157.5t65.5 157.5t157.5 65.5t158.5 -65.5t66.5 -157.5zM492 1456q0 61 -43 103.5t-105 42.5q-61 0 -103 -42t-42 -104t42 -104.5t103 -42.5q62 0 105 43t43 104z" />
    <glyph glyph-name="ogonek" unicode="&#x2db;" horiz-adv-x="618" 
d="M496 -344l-74 -16q-57 -11 -109 -11q-76 0 -125 37.5t-49 104.5q0 79 58 131l131 118h96l-141 -137q-29 -27 -42.5 -51.5t-13.5 -58.5q0 -35 26.5 -57.5t80.5 -22.5q36 0 82 8l63 12z" />
    <glyph glyph-name="tilde" unicode="&#x2dc;" horiz-adv-x="985" 
d="M860 1499l-131 -176q-35 -47 -82 -47q-39 0 -82 27l-182 110q-30 19 -43 19q-8 0 -15 -3t-10 -6.5t-12 -13.5t-14 -16l-113 -125l-49 39l129 178q33 45 82 45q38 0 82 -27l186 -112q24 -15 39 -15q11 0 19 4t12.5 8.5t19.5 22.5l113 129z" />
    <glyph glyph-name="hungarumlaut" unicode="&#x2dd;" horiz-adv-x="1159" 
d="M543 1528l-353 -291q-11 -9 -24 4l-25 23q-7 6 -7 9t5 9l307 346zM1014 1528l-352 -291q-12 -9 -25 4l-25 23q-6 6 -7 9t5 9l308 346z" />
    <glyph glyph-name="uni03A9" unicode="&#x3a9;" horiz-adv-x="1355" 
d="M1264 844q0 -122 -22 -222.5t-68.5 -182.5t-125.5 -133.5t-186 -65.5v-156h352v-84h-434v324q89 0 156 25.5t109 69.5t68 111.5t36 142.5t10 171q0 101 -12.5 182.5t-45 157t-85.5 126.5t-138.5 81t-199.5 30q-95 0 -170.5 -20.5t-127.5 -59t-88.5 -89t-56.5 -117
t-29 -135.5t-9 -152q0 -123 16.5 -212.5t57.5 -163t117 -111t187 -37.5v-324h-434v84h353v156q-87 11 -155 47.5t-114 91t-76 129t-43.5 158.5t-13.5 182q0 108 15.5 199t56 179t105 148.5t169 97.5t240.5 37q586 0 586 -665z" />
    <glyph glyph-name="uni03BC" unicode="&#x3bc;" horiz-adv-x="1132" 
d="M1001 0h-69l-33 162l-129 -90q-83 -57 -146 -81t-126 -24q-174 0 -265 94v-479h-100v1518h100v-719q0 -93 19.5 -159.5t56.5 -103t83 -53t106 -16.5q57 0 115 26t163 101l123 88v836h102v-1100z" />
    <glyph glyph-name="pi" unicode="&#x3c0;" horiz-adv-x="1347" 
d="M1255 -16h-81q-111 0 -165.5 60t-54.5 187v762h-594v-993h-100v993h-168v99h1131v-99h-166v-762q0 -84 28 -117.5t89 -33.5h81v-96z" />
    <glyph glyph-name="Wgrave" unicode="&#x1e80;" horiz-adv-x="1746" 
d="M1686 1477l-334 -1477h-152l-330 1286l-323 -1286h-152l-334 1477h101l311 -1403l338 1353h123l340 -1353l311 1403h101zM606 1870l352 -291q12 -9 25 4l25 23q10 10 2 18l-308 346z" />
    <glyph glyph-name="wgrave" unicode="&#x1e81;" horiz-adv-x="1568" 
d="M1520 1100l-330 -1100h-121l-285 967l-284 -967h-121l-330 1100h107l278 -985l291 985h117l291 -985l280 985h107zM518 1528l352 -291q12 -9 25 4l25 23q10 10 2 18l-308 346z" />
    <glyph glyph-name="Wacute" unicode="&#x1e82;" horiz-adv-x="1746" 
d="M1686 1477l-334 -1477h-152l-330 1286l-323 -1286h-152l-334 1477h101l311 -1403l338 1353h123l340 -1353l311 1403h101zM1159 1872l-352 -291q-12 -9 -25 4l-24 23q-10 10 -2 18l307 346z" />
    <glyph glyph-name="wacute" unicode="&#x1e83;" horiz-adv-x="1568" 
d="M1520 1100l-330 -1100h-121l-285 967l-284 -967h-121l-330 1100h107l278 -985l291 985h117l291 -985l280 985h107zM1049 1528l-353 -291q-11 -9 -24 4l-25 23q-10 10 -2 18l307 346z" />
    <glyph glyph-name="Wdieresis" unicode="&#x1e84;" horiz-adv-x="1746" 
d="M1686 1477l-334 -1477h-152l-330 1286l-323 -1286h-152l-334 1477h101l311 -1403l338 1353h123l340 -1353l311 1403h101zM1174 1698q0 -18 -3.5 -21.5t-19.5 -3.5h-102q-16 0 -19.5 3.5t-3.5 21.5v96q0 19 3.5 22t19.5 3h102q18 0 20.5 -4.5t2.5 -20.5v-96zM717 1698
q0 -18 -3.5 -21.5t-19.5 -3.5h-100q-16 0 -19.5 3.5t-3.5 21.5v96q0 19 3.5 22t19.5 3h100q18 0 20.5 -4.5t2.5 -20.5v-96z" />
    <glyph glyph-name="wdieresis" unicode="&#x1e85;" horiz-adv-x="1568" 
d="M1520 1100l-330 -1100h-121l-285 967l-284 -967h-121l-330 1100h107l278 -985l291 985h117l291 -985l280 985h107zM1085 1382q0 -18 -3 -21t-19 -3h-102q-16 0 -19.5 3t-3.5 21v97q0 18 3 21t15 3h5h102h6.5h5.5t4 -0.5t3 -1.5t1.5 -2.5t1 -4.5t0 -6.5t0.5 -8.5v-97z
M629 1382q0 -18 -3.5 -21t-19.5 -3h-100q-16 0 -19.5 3t-3.5 21v97q0 18 3 21t15 3h5h100h5q12 0 15 -3t3 -21v-97z" />
    <glyph glyph-name="Ygrave" unicode="&#x1ef2;" horiz-adv-x="1251" 
d="M1190 1477l-514 -877v-600h-101v600l-514 877h107l459 -787l458 787h105zM358 1872l353 -291q11 -9 24 4l25 23q10 10 2 18l-307 346z" />
    <glyph glyph-name="ygrave" unicode="&#x1ef3;" horiz-adv-x="1032" 
d="M985 1100l-510 -1401q-40 -110 -111.5 -152.5t-197.5 -42.5h-103v97h103q101 0 142.5 25.5t76.5 121.5l78 213l-414 1139h105l364 -1016l363 1016h104zM229 1528l353 -291q11 -9 24 4l25 23q10 10 2 18l-307 346z" />
    <glyph glyph-name="endash" unicode="&#x2013;" horiz-adv-x="894" 
d="M829 618h-763v111h763v-111z" />
    <glyph glyph-name="emdash" unicode="&#x2014;" horiz-adv-x="1822" 
d="M1757 618h-1691v111h1691v-111z" />
    <glyph glyph-name="quoteleft" unicode="&#x2018;" horiz-adv-x="327" 
d="M287 1477q-75 -69 -106 -131t-31 -142h67q16 0 18.5 -2.5t2.5 -19.5v-109q0 -18 -3 -21t-18 -3h-115q-15 0 -17.5 2.5t-2.5 21.5v107q0 97 47 179.5t129 143.5z" />
    <glyph glyph-name="quoteright" unicode="&#x2019;" horiz-adv-x="327" 
d="M246 1346q0 -97 -47 -180t-129 -144l-29 27q75 69 106 130.5t31 141.5h-67q-16 0 -18.5 2.5t-2.5 19.5v109q0 18 3 21.5t18 3.5h114q15 0 18 -3.5t3 -21.5v-106z" />
    <glyph glyph-name="quotesinglbase" unicode="&#x201a;" horiz-adv-x="327" 
d="M246 25q0 -97 -47 -180t-129 -144l-29 27q75 69 106 130.5t31 141.5h-67q-15 0 -18 3t-3 20v108q0 18 3 21.5t18 3.5h114q15 0 18 -3.5t3 -21.5v-106z" />
    <glyph glyph-name="quotedblleft" unicode="&#x201c;" horiz-adv-x="679" 
d="M639 1477q-75 -69 -106 -131t-31 -142h67q16 0 18.5 -2.5t2.5 -19.5v-109q0 -18 -3 -21t-18 -3h-114q-15 0 -18 3t-3 21v107q0 97 47 179.5t129 143.5zM287 1477q-75 -69 -106 -131t-31 -142h67q16 0 18.5 -2.5t2.5 -19.5v-109q0 -18 -3 -21t-18 -3h-115q-15 0 -17.5 2.5
t-2.5 21.5v107q0 97 47 179.5t129 143.5z" />
    <glyph glyph-name="quotedblright" unicode="&#x201d;" horiz-adv-x="679" 
d="M598 1346q0 -97 -47 -180t-129 -144l-29 27q75 69 106 130.5t31 141.5h-67q-16 0 -18.5 2.5t-2.5 19.5v109q0 18 3 21.5t18 3.5h115q15 0 17.5 -3t2.5 -22v-106zM246 1346q0 -97 -47 -180t-129 -144l-29 27q75 69 106 130.5t31 141.5h-67q-16 0 -18.5 2.5t-2.5 19.5v109
q0 18 3 21.5t18 3.5h114q15 0 18 -3.5t3 -21.5v-106z" />
    <glyph glyph-name="quotedblbase" unicode="&#x201e;" horiz-adv-x="679" 
d="M598 25q0 -97 -47 -180t-129 -144l-29 27q75 69 106 130.5t31 141.5h-67q-15 0 -18 3t-3 20v108q0 18 3 21.5t18 3.5h115q15 0 17.5 -3t2.5 -22v-106zM246 25q0 -97 -47 -180t-129 -144l-29 27q75 69 106 130.5t31 141.5h-67q-15 0 -18 3t-3 20v108q0 18 3 21.5t18 3.5
h114q15 0 18 -3.5t3 -21.5v-106z" />
    <glyph glyph-name="dagger" unicode="&#x2020;" horiz-adv-x="1218" 
d="M1112 944h-381l-92 19l18 -101v-862h-92v860l27 103l-105 -19h-381v82h381l109 -22l-31 98v493h92v-495l-20 -99l98 25h377v-82z" />
    <glyph glyph-name="daggerdbl" unicode="&#x2021;" horiz-adv-x="1218" 
d="M1112 580h-381l-92 18l18 -100v-498h-92v496l27 102l-105 -18h-381v82h381l109 -23l-31 98v174l27 103l-105 -19h-381v82h381l109 -22l-31 98v442h92v-444l-20 -98l98 24h377v-82h-381l-92 19l18 -101v-178l-20 -98l98 25h377v-82z" />
    <glyph glyph-name="bullet" unicode="&#x2022;" horiz-adv-x="956" 
d="M791 590q0 -129 -92.5 -220t-221.5 -91t-220 91t-91 220t91 221t220 92t221.5 -92t92.5 -221z" />
    <glyph glyph-name="ellipsis" unicode="&#x2026;" horiz-adv-x="1337" 
d="M1190 23q0 -17 -3 -20t-18 -3h-114q-15 0 -18 3t-3 20v108q0 18 3 21.5t18 3.5h114q15 0 18 -3.5t3 -21.5v-108zM748 23q0 -17 -3 -20t-18 -3h-115q-15 0 -17.5 3t-2.5 20v108q0 19 2.5 22t17.5 3h115q15 0 18 -3.5t3 -21.5v-108zM303 23q0 -17 -2.5 -20t-17.5 -3h-115
q-15 0 -18 3t-3 20v108q0 18 3 21.5t18 3.5h115q15 0 17.5 -3t2.5 -22v-108z" />
    <glyph glyph-name="perthousand" unicode="&#x2030;" horiz-adv-x="2449" 
d="M668 1085q0 -89 -6.5 -154t-24.5 -125.5t-49 -97.5t-81.5 -59t-121.5 -22t-122.5 22t-82.5 59t-49 97.5t-24.5 125.5t-6.5 154q0 85 7 149t26 121t51 93t82 57t119 21q84 0 141 -30.5t87.5 -91.5t42.5 -136.5t12 -182.5zM575 1085q0 60 -2 100t-8 85t-19 73.5t-33.5 53
t-52.5 36t-75 11.5q-44 0 -76 -11.5t-53 -36t-34 -53t-19 -73.5t-8 -85t-2 -100q0 -62 2 -104t8 -89t19 -77t34 -56t53 -38t76 -12t76 12t52.5 38t33 55.5t18.5 77.5t8 89t2 104zM1403 1509l-993 -1542h-86l995 1542h84zM1638 440q0 -90 -6 -154.5t-24 -125t-49 -97.5
t-81.5 -59t-121.5 -22t-122.5 22t-82.5 59t-49 97.5t-24.5 125.5t-6.5 154q0 85 7 149t26 121t51 93t82 57t119 21q84 0 141 -30.5t87 -91.5t42 -136.5t12 -182.5zM1546 440q0 60 -2 100t-8 85t-19 73.5t-33.5 53t-52.5 36t-75 11.5q-52 0 -88.5 -18.5t-56.5 -46.5
t-31 -78.5t-14 -97t-3 -118.5q0 -75 3 -123.5t14 -101.5t31 -83t56.5 -49.5t88.5 -19.5q44 0 76 12t52.5 38.5t33 56t18.5 77.5t8 89t2 104zM2349 440q0 -89 -6.5 -154t-24.5 -125.5t-49 -97.5t-81.5 -59t-121.5 -22t-122.5 22t-82.5 59t-49 97.5t-24 125t-6 154.5
q0 107 12 182.5t42.5 136.5t87.5 91.5t142 30.5q84 0 141 -30.5t87.5 -91.5t42.5 -136.5t12 -182.5zM2257 440q0 50 -1.5 86t-6 76t-12.5 67.5t-22 53.5t-34 41.5t-49 25t-66 9.5q-44 0 -76 -11.5t-53 -36t-34 -53t-19 -73.5t-8 -85t-2 -100q0 -62 2 -104t8 -89.5t19 -77.5
t34 -56t53 -38t76 -12q52 0 88 19.5t56 49.5t31 83t13.5 101t2.5 124z" />
    <glyph glyph-name="guilsinglleft" unicode="&#x2039;" horiz-adv-x="696" 
d="M563 225l-63 -51l-367 377l367 377l63 -51l-291 -326z" />
    <glyph glyph-name="guilsinglright" unicode="&#x203a;" horiz-adv-x="696" 
d="M563 551l-366 -377l-64 51l291 326l-291 326l64 51z" />
    <glyph glyph-name="fraction" unicode="&#x2044;" horiz-adv-x="698" 
d="M1004 1509l-994 -1542h-86l996 1542h84z" />
    <glyph glyph-name="n.superior" unicode="&#x207f;" horiz-adv-x="720" 
d="M633 645h-80v436q0 185 -147 185q-88 0 -228 -121v-500h-80v670h58l20 -88q116 108 230 108q105 0 166 -60.5t61 -193.5v-436z" />
    <glyph glyph-name="Euro" unicode="&#x20ac;" 
d="M1122 229q-23 -54 -52.5 -95.5t-77 -82t-119 -62.5t-162.5 -22q-132 0 -226.5 40.5t-152.5 121.5t-88.5 186t-42.5 250h-125l22 80h99q-1 26 -1 42.5t0.5 29.5t0.5 22v70h-111l23 78h90q11 161 42 273.5t89 192.5t149 118t219 38q86 0 155 -20t114 -53t77 -79t48 -93
t22 -101h-82q-10 57 -30.5 100t-57.5 81t-100 58.5t-148 20.5q-69 0 -124 -13.5t-95 -37t-69.5 -62t-48 -80t-30.5 -100t-18 -114t-10 -129.5h657l-18 -78h-641v-70q0 -9 -0.5 -22t-0.5 -29.5t1 -42.5h588l-21 -80h-565q6 -78 16.5 -138.5t29 -121.5t48.5 -104t72.5 -77.5
t104 -51.5t139.5 -17q131 0 208 49t128 164z" />
    <glyph glyph-name="afii61289" unicode="&#x2113;" horiz-adv-x="694" 
d="M487 1237q0 -58 -12.5 -122.5t-42.5 -145.5t-92.5 -168.5t-151.5 -163.5v-406q0 -84 28 -117.5t89 -33.5h82v-96h-82q-111 0 -165 60t-54 187v326q-44 -31 -104 -68l-41 82q85 54 145 103v465q0 58 1 97t5.5 90t13 84.5t24.5 69.5t38 57t55.5 34.5t75.5 13.5q31 0 56 -7
t43.5 -17.5t33 -30t23.5 -36t15.5 -45.5t9.5 -48.5t5 -54t2 -53.5v-56zM385 1237q0 75 -1.5 109t-9 74.5t-26 55.5t-49.5 15q-25 0 -44 -11.5t-31 -36.5t-19.5 -53.5t-11 -75t-4.5 -87t-1 -103.5v-358q60 62 101 125.5t61 124.5t27.5 112.5t7.5 108.5z" />
    <glyph glyph-name="trademark" unicode="&#x2122;" horiz-adv-x="1447" 
d="M1333 780h-71l-43 568l-183 -402h-75l-183 402l-43 -568h-69l49 697h76l208 -457l207 457h78zM602 1411h-217v-631h-74v631h-219v66h510v-66z" />
    <glyph glyph-name="Omega" unicode="&#x2126;" horiz-adv-x="1355" 
d="M1264 844q0 -122 -22 -222.5t-68.5 -182.5t-125.5 -133.5t-186 -65.5v-156h352v-84h-434v324q89 0 156 25.5t109 69.5t68 111.5t36 142.5t10 171q0 101 -12.5 182.5t-45 157t-85.5 126.5t-138.5 81t-199.5 30q-95 0 -170.5 -20.5t-127.5 -59t-88.5 -89t-56.5 -117
t-29 -135.5t-9 -152q0 -123 16.5 -212.5t57.5 -163t117 -111t187 -37.5v-324h-434v84h353v156q-87 11 -155 47.5t-114 91t-76 129t-43.5 158.5t-13.5 182q0 108 15.5 199t56 179t105 148.5t169 97.5t240.5 37q586 0 586 -665z" />
    <glyph glyph-name="estimated" unicode="&#x212e;" horiz-adv-x="1241" 
d="M1182 578h-879v-396q135 -129 311 -129q67 0 124.5 14.5t99.5 36.5t81 58t66.5 70t58.5 81l64 -39q-43 -67 -87 -115.5t-103 -89.5t-135 -62t-169 -21q-163 0 -291 81.5t-196 216.5t-68 296q0 164 67 298t197 215t300 81q169 0 298 -82.5t195 -217t66 -296.5zM936 645
v334q-59 54 -143.5 90.5t-169.5 36.5q-196 0 -320 -127v-334h633z" />
    <glyph glyph-name="onethird" unicode="&#x2153;" horiz-adv-x="1681" 
d="M582 645h-482v80h195v696q-40 -9 -195 -43v84l287 62v-799h195v-80zM1366 1509l-993 -1542h-86l995 1542h84zM1581 250q0 -132 -79 -200t-216 -68q-111 0 -180 41.5t-119 134.5l76 39q42 -73 90.5 -105.5t132.5 -32.5q98 0 151.5 49.5t53.5 141.5q0 80 -48 123t-124 43
h-135l-23 84h158q67 0 111.5 38.5t44.5 118.5q0 146 -172 146q-73 0 -125 -27.5t-86 -93.5l-76 35q44 84 114 124t173 40q138 0 200 -63t62 -161q0 -56 -27.5 -108.5t-83.5 -87.5q62 -32 94.5 -87t32.5 -124z" />
    <glyph glyph-name="twothirds" unicode="&#x2154;" horiz-adv-x="1716" 
d="M1401 1509l-993 -1542h-86l995 1542h84zM1616 250q0 -132 -79 -200t-216 -68q-111 0 -180 41.5t-119 134.5l76 39q42 -73 90.5 -105.5t132.5 -32.5q98 0 151.5 49.5t53.5 141.5q0 80 -48 123t-124 43h-135l-23 84h158q67 0 111 38t44 119q0 146 -172 146
q-73 0 -125 -27.5t-86 -93.5l-75 35q44 85 113.5 124.5t172.5 39.5q138 0 200 -63t62 -161q0 -56 -27 -109t-83 -87q62 -32 94.5 -87t32.5 -124zM653 1286q0 -49 -17 -92t-52 -80.5t-66 -63t-80 -59.5q-89 -62 -149 -124t-86 -142h366v127h82v-207h-551q2 52 13.5 97.5
t34.5 84t43.5 66.5t57 59.5t59 49t63.5 47.5q49 35 75 55t57.5 51.5t45.5 63t14 67.5q0 158 -162 158q-97 0 -144 -38.5t-60 -105.5h-84q7 42 23.5 78.5t48 71.5t87 55.5t129.5 20.5q113 0 182.5 -62t69.5 -178z" />
    <glyph glyph-name="oneeighth" unicode="&#x215b;" horiz-adv-x="1736" 
d="M582 645h-482v80h195v696q-40 -9 -195 -43v84l287 62v-799h195v-80zM1366 1509l-993 -1542h-86l995 1542h84zM1636 242q0 -133 -67 -201t-219 -68q-151 0 -218 68t-67 201q0 147 115 209q-105 60 -105 188q0 117 67 175t208 58t207.5 -58t66.5 -175q0 -128 -104 -188
q116 -68 116 -209zM1544 242q0 69 -38 116.5t-107 47.5h-99q-69 0 -107 -47.5t-38 -116.5q0 -103 47.5 -145t147.5 -42t147 42t47 145zM1534 639q0 48 -14.5 79.5t-42.5 46.5t-57 20.5t-70 5.5t-70.5 -5.5t-57.5 -20.5t-42.5 -46.5t-14.5 -79.5q0 -75 41.5 -112.5
t93.5 -37.5h99q52 0 93.5 37.5t41.5 112.5z" />
    <glyph glyph-name="threeeighths" unicode="&#x215c;" horiz-adv-x="1794" 
d="M1423 1509l-993 -1542h-86l995 1542h84zM1694 242q0 -133 -67.5 -201t-219.5 -68q-151 0 -218 68t-67 201q0 147 115 209q-104 60 -104 188q0 117 66.5 175t207.5 58t207.5 -58t66.5 -175q0 -128 -104 -188q117 -69 117 -209zM1602 242q0 69 -38.5 116.5t-107.5 47.5h-98
q-69 0 -107.5 -47.5t-38.5 -116.5q0 -103 47.5 -145t147.5 -42t147.5 42t47.5 145zM1591 639q0 48 -14.5 79.5t-42.5 46.5t-57 20.5t-70 5.5t-70 -5.5t-57 -20.5t-42.5 -46.5t-14.5 -79.5q0 -75 41.5 -112.5t93.5 -37.5h98q52 0 93.5 37.5t41.5 112.5zM694 895
q0 -132 -79 -200t-216 -68q-111 0 -180 41.5t-119 134.5l76 39q42 -73 90.5 -105t132.5 -32q99 0 152 49t53 141q0 80 -48 123t-124 43h-135l-23 84h158q67 0 111.5 38.5t44.5 119.5q0 145 -172 145q-73 0 -125 -27.5t-86 -93.5l-76 35q44 84 114 124t173 40
q138 0 200 -62.5t62 -160.5q0 -56 -27.5 -109t-83.5 -88q62 -32 94.5 -87t32.5 -124z" />
    <glyph glyph-name="fiveeighths" unicode="&#x215d;" horiz-adv-x="1810" 
d="M1440 1509l-994 -1542h-86l996 1542h84zM1710 242q0 -133 -67.5 -201t-219.5 -68q-151 0 -217.5 68t-66.5 201q0 148 114 209q-104 60 -104 188q0 117 66.5 175t207.5 58t208 -58t67 -175q0 -128 -105 -188q117 -69 117 -209zM1618 242q0 69 -38 116.5t-107 47.5h-99
q-69 0 -107 -47.5t-38 -116.5q0 -103 47 -145t147 -42t147.5 42t47.5 145zM1608 639q0 48 -14.5 79.5t-42.5 46.5t-57.5 20.5t-70.5 5.5t-70 -5.5t-57 -20.5t-42.5 -46.5t-14.5 -79.5q0 -75 41.5 -112.5t93.5 -37.5h99q52 0 93.5 37.5t41.5 112.5zM705 905
q0 -126 -74.5 -202t-229.5 -76q-111 0 -181 42t-120 134l78 39q41 -72 89.5 -102.5t133.5 -30.5q105 0 158 51.5t53 144.5q0 112 -52 156.5t-159 44.5q-120 0 -213 -35l-45 39l43 397h490l-25 -82h-387q-5 -45 -16.5 -126.5t-16.5 -129.5q83 19 170 19q304 0 304 -283z" />
    <glyph glyph-name="seveneighths" unicode="&#x215e;" horiz-adv-x="1579" 
d="M1208 1509l-993 -1542h-86l995 1542h84zM1479 242q0 -133 -67.5 -201t-219.5 -68q-151 0 -218 68t-67 201q0 147 115 209q-104 60 -104 188q0 117 66.5 175t207.5 58t207.5 -58t66.5 -175q0 -128 -104 -188q117 -69 117 -209zM1386 242q0 69 -38 116.5t-107 47.5h-98
q-69 0 -107.5 -47.5t-38.5 -116.5q0 -103 47.5 -145t147.5 -42t147 42t47 145zM1376 639q0 48 -14.5 79.5t-42.5 46.5t-57 20.5t-70 5.5t-70 -5.5t-57 -20.5t-42.5 -46.5t-14.5 -79.5q0 -75 41.5 -112.5t93.5 -37.5h98q52 0 93.5 37.5t41.5 112.5zM668 1425l-406 -780h-102
l409 780h-385v-125h-84v207h568v-82z" />
    <glyph glyph-name="partialdiff" unicode="&#x2202;" horiz-adv-x="1245" 
d="M1112 952q0 -244 -33 -422q-52 -291 -185 -427t-386 -136q-196 0 -285.5 100t-89.5 293q0 102 21 222q52 290 182 421.5t383 131.5q178 0 285 -93q-1 73 -12 134t-43.5 124t-84.5 106.5t-140.5 71t-205.5 27.5q-60 0 -131 -6l14 82q88 10 152 10q129 0 226 -30t160 -83.5
t102 -135t55 -175.5t16 -215zM999 762q0 152 -69.5 220.5t-224.5 68.5q-198 0 -304 -116t-153 -382q-21 -117 -21 -205q0 -155 71 -226t226 -71q197 0 301 117.5t152 384.5q22 126 22 209z" />
    <glyph glyph-name="Delta" unicode="&#x2206;" horiz-adv-x="1380" 
d="M1288 0h-1196l533 1477h133zM1147 92l-461 1305l-461 -1305h922z" />
    <glyph glyph-name="product" unicode="&#x220f;" horiz-adv-x="1441" 
d="M1350 1391h-166v-1391h-101v1391h-723v-1391h-100v1391h-168v86h1258v-86z" />
    <glyph glyph-name="summation" unicode="&#x2211;" horiz-adv-x="1087" 
d="M995 0h-903v84l434 698l-434 609v86h901v-86h-792l434 -609l-434 -696h794v-86z" />
    <glyph glyph-name="minus" unicode="&#x2212;" 
d="M1102 690h-996v94h996v-94z" />
    <glyph glyph-name="uni2215" unicode="&#x2215;" horiz-adv-x="698" 
d="M1004 1509l-994 -1542h-86l996 1542h84z" />
    <glyph glyph-name="uni2219" unicode="&#x2219;" horiz-adv-x="466" 
d="M313 819q0 -19 -2.5 -21.5t-17.5 -2.5h-125q-16 0 -19.5 3t-3.5 21v117q0 19 3.5 23t19.5 4h125q15 0 17.5 -3.5t2.5 -23.5v-117z" />
    <glyph glyph-name="radical" unicode="&#x221a;" horiz-adv-x="1662" 
d="M1571 1378h-395l-439 -1378h-131l-264 887h-250v98h326l254 -887l430 1379h469v-99z" />
    <glyph glyph-name="infinity" unicode="&#x221e;" horiz-adv-x="1351" 
d="M1219 772q0 -463 -306 -463q-167 0 -278 121q-78 -125 -211 -125q-54 0 -97.5 15t-73.5 39.5t-52 61.5t-35 75.5t-20.5 88t-10 92.5t-2.5 95q0 72 6.5 132t26 124t52 107.5t88.5 71.5t130 28q157 0 275 -123q46 67 96.5 96t122.5 29q54 0 97.5 -14.5t73.5 -38.5t52 -61.5
t34.5 -75.5t19.5 -87.5t9.5 -92t2.5 -95.5zM1114 772q0 69 -3.5 119.5t-15 101t-31.5 82t-53.5 51t-80.5 19.5q-93 0 -133 -78t-72 -295q-28 -189 -49 -256q105 -117 237 -117q58 0 98.5 28.5t62.5 82t31 117t9 145.5zM670 1030q-100 113 -232 113q-59 0 -99 -28.5t-61 -83
t-29.5 -117.5t-8.5 -146q0 -55 2.5 -97t9 -87t19.5 -76.5t32.5 -58t50 -39.5t70.5 -13q90 0 131.5 81t71.5 302q22 166 43 250z" />
    <glyph glyph-name="integral" unicode="&#x222b;" horiz-adv-x="1243" 
d="M1151 1571l-21 -92q-126 24 -196 24q-57 0 -100 -11.5t-81 -39.5t-58.5 -82.5t-20.5 -132.5l-2 -1300q0 -98 -29.5 -170t-81.5 -112t-114.5 -58.5t-137.5 -18.5q-108 0 -217 25l21 94q131 -25 196 -25q256 0 256 275v1290q0 98 30.5 170t83.5 111.5t116.5 58t138.5 18.5
q112 0 217 -24z" />
    <glyph glyph-name="approxequal" unicode="&#x2248;" 
d="M1102 1065q-52 -74 -118.5 -107.5t-156.5 -33.5q-53 0 -104 18t-91.5 44t-79.5 52t-83.5 44t-87.5 18q-90 0 -156.5 -34t-118.5 -108v93q52 74 118.5 107.5t156.5 33.5q59 0 113 -18t93.5 -44t76.5 -52t79 -44t84 -18q90 0 156.5 33.5t118.5 107.5v-92zM1102 573
q-52 -74 -118.5 -107.5t-156.5 -33.5q-53 0 -104 18t-91.5 44t-79.5 52t-83.5 44t-87.5 18q-90 0 -156.5 -33.5t-118.5 -107.5v92q52 74 118.5 107.5t156.5 33.5q59 0 113 -18t93.5 -44t76.5 -52t79 -44t84 -18q90 0 156.5 34t118.5 108v-93z" />
    <glyph glyph-name="notequal" unicode="&#x2260;" 
d="M995 1509l-202 -446h299v-84h-338l-215 -475h553v-88h-594l-203 -449h-98l202 449h-282v88h323l215 475h-538v84h577l203 446h98z" />
    <glyph glyph-name="lessequal" unicode="&#x2264;" 
d="M958 164h-127l-575 573l575 574h119l-567 -574zM1143 -2h-1077v86h1077v-86z" />
    <glyph glyph-name="greaterequal" unicode="&#x2265;" 
d="M954 737l-575 -573h-127l575 573l-567 574h119zM1143 -2h-1077v86h1077v-86z" />
    <glyph glyph-name="lozenge" unicode="&#x25ca;" horiz-adv-x="1245" 
d="M1153 776l-530 -653l-531 653l531 654zM1010 776l-387 512l-390 -512l390 -512z" />
    <glyph glyph-name="I.alt" unicode="&#xe000;" horiz-adv-x="647" 
d="M555 0h-463v86h182v1307h-182v84h463v-84h-180v-1307h180v-86z" />
    <glyph glyph-name="IJ.alt" unicode="&#xe001;" horiz-adv-x="1564" 
d="M1395 412q0 -125 -28 -212.5t-82.5 -138t-126.5 -72.5t-169 -22q-144 0 -250 76l47 68q91 -62 203 -62q165 0 235 85t70 278v979h-405l-25 86h531v-1065zM555 0h-463v86h182v1307h-182v84h463v-84h-180v-1307h180v-86z" />
    <glyph glyph-name="Iacute.alt" unicode="&#xe002;" horiz-adv-x="647" 
d="M545 1872l-352 -291q-8 -4 -9 -4q-8 0 -16 8l-25 23q-6 6 -6 10l4 8l308 346zM555 0h-463v86h182v1307h-182v84h463v-84h-180v-1307h180v-86z" />
    <glyph glyph-name="Ibreve.alt" unicode="&#xe003;" horiz-adv-x="647" 
d="M633 1825q-54 -134 -125.5 -201.5t-181.5 -67.5t-182 67.5t-126 201.5l62 39q63 -116 114.5 -163.5t131.5 -47.5t131 47.5t114 163.5zM555 0h-463v86h182v1307h-182v84h463v-84h-180v-1307h180v-86z" />
    <glyph glyph-name="Icircumflex.alt" unicode="&#xe004;" horiz-adv-x="647" 
d="M627 1622l-47 -45l-252 235l-252 -235l-47 45l260 311q23 29 39 29t39 -29zM555 0h-463v86h182v1307h-182v84h463v-84h-180v-1307h180v-86z" />
    <glyph glyph-name="Idieresis.alt" unicode="&#xe005;" horiz-adv-x="647" 
d="M629 1698q0 -18 -3.5 -21.5t-19.5 -3.5h-102q-16 0 -19.5 3.5t-3.5 21.5v96q0 19 3.5 22t19.5 3h102q18 0 20.5 -4.5t2.5 -20.5v-96zM172 1698q0 -18 -3 -21.5t-19 -3.5h-101q-15 0 -18.5 3.5t-3.5 21.5v96q0 19 3 22t19 3h101h12t6 -2.5t4 -7v-15.5v-96zM555 0h-463v86
h182v1307h-182v84h463v-84h-180v-1307h180v-86z" />
    <glyph glyph-name="Idotaccent.alt" unicode="&#xe006;" horiz-adv-x="647" 
d="M397 1692q0 -18 -3.5 -21.5t-18.5 -3.5h-103q-16 0 -19 3.5t-3 21.5v94q0 14 2 19t5 6t15 1h103h12t6 -3t3.5 -7.5t0.5 -15.5v-94zM555 0h-463v86h182v1307h-182v84h463v-84h-180v-1307h180v-86z" />
    <glyph glyph-name="Igrave.alt" unicode="&#xe007;" horiz-adv-x="647" 
d="M535 1618q0 -1 -9 -10l-22 -23q-8 -8 -17 -8l-8 4l-352 291l94 100l309 -346q1 -2 2 -3.5t2 -2.5t1 -2zM555 0h-463v86h182v1307h-182v84h463v-84h-180v-1307h180v-86z" />
    <glyph glyph-name="Imacron.alt" unicode="&#xe008;" horiz-adv-x="647" 
d="M637 1659h-633v94h633v-94zM555 0h-463v86h182v1307h-182v84h463v-84h-180v-1307h180v-86z" />
    <glyph glyph-name="Iogonek.alt" unicode="&#xe009;" horiz-adv-x="647" 
d="M477 -344l-74 -16q-57 -11 -108 -11q-76 0 -125 37.5t-49 104.5q0 80 57 131l109 98h-195v86h182v1307h-182v84h463v-84h-180v-1307h180v-86h-172l-119 -117q-29 -27 -42 -51t-13 -59t26 -57.5t80 -22.5q36 0 82 8l64 12z" />
    <glyph glyph-name="Itilde.alt" unicode="&#xe00a;" horiz-adv-x="647" 
d="M719 1788l-131 -176q-35 -47 -82 -47q-40 0 -82 26l-182 111q-29 18 -43 18q-7 0 -12 -1.5t-10 -5.5t-8 -7t-10 -11.5t-12 -13.5l-112 -125l-49 39l129 179q33 45 82 45q39 0 82 -27l186 -113q22 -14 39 -14q11 0 19 4t12.5 8.5t19.5 22.5l113 129zM555 0h-463v86h182
v1307h-182v84h463v-84h-180v-1307h180v-86z" />
    <glyph glyph-name="J.alt" unicode="&#xe00b;" horiz-adv-x="839" 
d="M707 412q0 -125 -28 -212.5t-82.5 -138t-126.5 -72.5t-169 -22q-144 0 -250 76l47 68q91 -62 203 -62q165 0 235 85t70 278v979h-405l-25 86h531v-1065z" />
    <glyph glyph-name="Jcircumflex.alt" unicode="&#xe00c;" horiz-adv-x="876" 
d="M942 1599l-47 -45l-252 236l-252 -236l-47 45l260 312q22 28 39 28t39 -28zM707 412q0 -125 -28 -212.5t-82.5 -138t-126.5 -72.5t-169 -22q-144 0 -250 76l47 68q91 -62 203 -62q165 0 235 85t70 278v979h-405l-25 86h531v-1065z" />
    <glyph glyph-name="a.alt" unicode="&#xe00d;" horiz-adv-x="1157" 
d="M1112 0h-53q-151 0 -182 129q-188 -162 -426 -162q-177 0 -264 93.5t-87 258.5q0 76 23 136t61 97t91 60.5t108 33t117 9.5q161 0 364 -63v231q0 47 -14 86t-45 72t-88 51.5t-135 18.5q-126 0 -201 -22t-127 -87l-70 47q56 79 154.5 112.5t243.5 33.5q91 0 162 -21
t112 -53.5t67 -76t35 -82.5t9 -79v-604q0 -73 22.5 -100t69.5 -27h53v-92zM864 209v307q-198 59 -364 59q-41 0 -77 -5t-78 -21.5t-71 -43t-49 -74.5t-20 -112q0 -268 246 -268q117 0 204 34t209 124z" />
    <glyph glyph-name="aacute.alt" unicode="&#xe00e;" horiz-adv-x="1157" 
d="M846 1522l-352 -291q-8 -4 -9 -4q-8 0 -16 8l-25 22q-6 6 -6 11l4 8l308 346zM1112 0h-53q-151 0 -182 129q-188 -162 -426 -162q-177 0 -264 93.5t-87 258.5q0 76 23 136t61 97t91 60.5t108 33t117 9.5q161 0 364 -63v231q0 47 -14 86t-45 72t-88 51.5t-135 18.5
q-126 0 -201 -22t-127 -87l-70 47q56 79 154.5 112.5t243.5 33.5q91 0 162 -21t112 -53.5t67 -76t35 -82.5t9 -79v-604q0 -73 22.5 -100t69.5 -27h53v-92zM864 209v307q-198 59 -364 59q-41 0 -77 -5t-78 -21.5t-71 -43t-49 -74.5t-20 -112q0 -268 246 -268q117 0 204 34
t209 124z" />
    <glyph glyph-name="abreve.alt" unicode="&#xe00f;" horiz-adv-x="1157" 
d="M901 1503q-54 -134 -125.5 -201t-181.5 -67t-181.5 67t-125.5 201l61 39q63 -116 114.5 -163.5t131.5 -47.5t131.5 47.5t114.5 163.5zM1112 0h-53q-151 0 -182 129q-188 -162 -426 -162q-177 0 -264 93.5t-87 258.5q0 76 23 136t61 97t91 60.5t108 33t117 9.5
q161 0 364 -63v231q0 47 -14 86t-45 72t-88 51.5t-135 18.5q-126 0 -201 -22t-127 -87l-70 47q56 79 154.5 112.5t243.5 33.5q91 0 162 -21t112 -53.5t67 -76t35 -82.5t9 -79v-604q0 -73 22.5 -100t69.5 -27h53v-92zM864 209v307q-198 59 -364 59q-41 0 -77 -5t-78 -21.5
t-71 -43t-49 -74.5t-20 -112q0 -268 246 -268q117 0 204 34t209 124z" />
    <glyph glyph-name="acircumflex.alt" unicode="&#xe010;" horiz-adv-x="1157" 
d="M872 1272l-47 -45l-252 235l-251 -235l-48 45l261 311q23 29 38 29q16 0 39 -29zM1112 0h-53q-151 0 -182 129q-188 -162 -426 -162q-177 0 -264 93.5t-87 258.5q0 76 23 136t61 97t91 60.5t108 33t117 9.5q161 0 364 -63v231q0 47 -14 86t-45 72t-88 51.5t-135 18.5
q-126 0 -201 -22t-127 -87l-70 47q56 79 154.5 112.5t243.5 33.5q91 0 162 -21t112 -53.5t67 -76t35 -82.5t9 -79v-604q0 -73 22.5 -100t69.5 -27h53v-92zM864 209v307q-198 59 -364 59q-41 0 -77 -5t-78 -21.5t-71 -43t-49 -74.5t-20 -112q0 -268 246 -268q117 0 204 34
t209 124z" />
    <glyph glyph-name="adieresis.alt" unicode="&#xe011;" horiz-adv-x="1157" 
d="M872 1382q0 -18 -3 -21t-19 -3h-102q-16 0 -19.5 3t-3.5 21v97q0 18 3 21t15 3h5h102h6.5h5.5t4 -0.5t3 -1.5t1.5 -2.5t1 -4.5t0 -6.5t0.5 -8.5v-97zM416 1382q0 -18 -3.5 -21t-19.5 -3h-100q-16 0 -19.5 3t-3.5 21v97q0 18 3 21t15 3h5h100h5q12 0 15 -3t3 -21v-97z
M1112 0h-53q-151 0 -182 129q-188 -162 -426 -162q-177 0 -264 93.5t-87 258.5q0 76 23 136t61 97t91 60.5t108 33t117 9.5q161 0 364 -63v231q0 47 -14 86t-45 72t-88 51.5t-135 18.5q-126 0 -201 -22t-127 -87l-70 47q56 79 154.5 112.5t243.5 33.5q91 0 162 -21
t112 -53.5t67 -76t35 -82.5t9 -79v-604q0 -73 22.5 -100t69.5 -27h53v-92zM864 209v307q-198 59 -364 59q-41 0 -77 -5t-78 -21.5t-71 -43t-49 -74.5t-20 -112q0 -268 246 -268q117 0 204 34t209 124z" />
    <glyph glyph-name="agrave.alt" unicode="&#xe012;" horiz-adv-x="1157" 
d="M741 1268q0 -3 -8 -11l-22 -22q-8 -8 -17 -8l-8 4l-352 291l94 100l309 -346q4 -4 4 -8zM1112 0h-53q-151 0 -182 129q-188 -162 -426 -162q-177 0 -264 93.5t-87 258.5q0 76 23 136t61 97t91 60.5t108 33t117 9.5q161 0 364 -63v231q0 47 -14 86t-45 72t-88 51.5
t-135 18.5q-126 0 -201 -22t-127 -87l-70 47q56 79 154.5 112.5t243.5 33.5q91 0 162 -21t112 -53.5t67 -76t35 -82.5t9 -79v-604q0 -73 22.5 -100t69.5 -27h53v-92zM864 209v307q-198 59 -364 59q-41 0 -77 -5t-78 -21.5t-71 -43t-49 -74.5t-20 -112q0 -268 246 -268
q117 0 204 34t209 124z" />
    <glyph glyph-name="amacron.alt" unicode="&#xe013;" horiz-adv-x="1157" 
d="M1112 0h-53q-151 0 -182 129q-188 -162 -426 -162q-177 0 -264 93.5t-87 258.5q0 76 23 136t61 97t91 60.5t108 33t117 9.5q161 0 364 -63v231q0 47 -14 86t-45 72t-88 51.5t-135 18.5q-126 0 -201 -22t-127 -87l-70 47q56 79 154.5 112.5t243.5 33.5q91 0 162 -21
t112 -53.5t67 -76t35 -82.5t9 -79v-604q0 -73 22.5 -100t69.5 -27h53v-92zM864 209v307q-198 59 -364 59q-41 0 -77 -5t-78 -21.5t-71 -43t-49 -74.5t-20 -112q0 -268 246 -268q117 0 204 34t209 124zM870 1362h-632v94h632v-94z" />
    <glyph glyph-name="aogonek.alt" unicode="&#xe014;" horiz-adv-x="1157" 
d="M1124 -344l-73 -16q-57 -11 -109 -11q-76 0 -125 37.5t-49 104.5q0 80 57 131l131 118q-60 28 -79 109q-188 -162 -426 -162q-177 0 -264 93.5t-87 258.5q0 76 23 136t61 97t91 60.5t108 33t117 9.5q161 0 364 -63v231q0 47 -14 86t-45 72t-88 51.5t-135 18.5
q-126 0 -201 -22t-127 -87l-70 47q56 79 154.5 112.5t243.5 33.5q91 0 162 -21t112 -53.5t67 -76t35 -82.5t9 -79v-604q0 -73 22.5 -100t69.5 -27h53v-92h-53h-27l-121 -117q-29 -27 -42 -51t-13 -59t26.5 -57.5t80.5 -22.5q35 0 81 8l64 12zM864 209v307q-198 59 -364 59
q-41 0 -77 -5t-78 -21.5t-71 -43t-49 -74.5t-20 -112q0 -268 246 -268q117 0 204 34t209 124z" />
    <glyph glyph-name="apple" unicode="&#xe015;" horiz-adv-x="1617" 
d="M1419 756q0 -147 -16.5 -261.5t-59 -216t-110.5 -168.5t-175.5 -105t-250.5 -38q-144 0 -251 38.5t-174.5 104.5t-109 168t-57.5 216.5t-16 261.5q0 133 16 239.5t57.5 205t108.5 164.5t174.5 105t249.5 39q143 0 251.5 -39t176.5 -105t110.5 -164t59 -205.5t16.5 -239.5
zM1255 514q0 141 -75.5 238.5t-225.5 124.5l-225 41q-54 9 -69 26t-15 70q0 27 4 43t19 32.5t49 23.5t90 7q78 0 122.5 -24.5t74.5 -81.5l53 -17l143 74l21 55q-120 238 -412 238q-110 0 -192 -27t-130 -75.5t-71 -110t-23 -137.5q0 -283 269 -338l237 -47q62 -12 83.5 -36
t21.5 -79q0 -152 -199 -152q-85 0 -134.5 32t-86.5 116l-56 20l-141 -73l-22 -51q37 -101 105.5 -166t150.5 -92t182 -27q109 0 196 30.5t141.5 84.5t83.5 125t29 153h2zM1174 514q0 -135 -93.5 -223t-275.5 -88q-257 0 -350 198l71 37q46 -84 112.5 -120.5t164.5 -36.5
q146 0 214 66.5t68 166.5q0 85 -47 132.5t-123 62.5l-237 45q-203 36 -203 260q0 268 332 268q222 0 321 -158l-73 -37q-42 59 -100.5 87t-145.5 28q-136 0 -191 -47.5t-55 -140.5q0 -82 33.5 -122.5t114.5 -55.5l225 -43q235 -44 235 -279h3z" />
    <glyph glyph-name="aring.alt" unicode="&#xe016;" horiz-adv-x="1157" 
d="M795 1450q0 -92 -66.5 -157.5t-159.5 -65.5q-92 0 -157.5 65.5t-65.5 157.5t65.5 157.5t157.5 65.5q93 0 159.5 -65.5t66.5 -157.5zM1112 0h-53q-151 0 -182 129q-188 -162 -426 -162q-177 0 -264 93.5t-87 258.5q0 76 23 136t61 97t91 60.5t108 33t117 9.5
q161 0 364 -63v231q0 47 -14 86t-45 72t-88 51.5t-135 18.5q-126 0 -201 -22t-127 -87l-70 47q56 79 154.5 112.5t243.5 33.5q91 0 162 -21t112 -53.5t67 -76t35 -82.5t9 -79v-604q0 -73 22.5 -100t69.5 -27h53v-92zM717 1450q0 61 -43 103t-105 42q-61 0 -103 -41.5
t-42 -103.5t42 -104.5t103 -42.5q62 0 105 43t43 104zM864 209v307q-198 59 -364 59q-41 0 -77 -5t-78 -21.5t-71 -43t-49 -74.5t-20 -112q0 -268 246 -268q117 0 204 34t209 124z" />
    <glyph glyph-name="arrow" unicode="&#xe017;" horiz-adv-x="1617" 
d="M1507 737q0 -142 -55.5 -271t-149 -222.5t-222.5 -149t-271 -55.5t-271 55.5t-222.5 149t-149 222.5t-55.5 271q0 189 93.5 350t254.5 255t350 94t350 -94t254.5 -255t93.5 -350zM1350 739l-428 428l-70 -65l305 -311h-858v-97h868l-313 -319l68 -68z" />
    <glyph glyph-name="atilde.alt" unicode="&#xe018;" horiz-adv-x="1157" 
d="M938 1499l-131 -176q-35 -47 -82 -47q-35 0 -82 27l-182 110q-30 19 -43 19q-8 0 -15 -3t-10 -6.5t-12 -13.5t-14 -16l-113 -125l-49 39l129 178q33 45 82 45q38 0 82 -27l186 -112q24 -15 39 -15q11 0 19 4t12.5 8.5t19.5 22.5l113 129zM1112 0h-53q-151 0 -182 129
q-188 -162 -426 -162q-177 0 -264 93.5t-87 258.5q0 76 23 136t61 97t91 60.5t108 33t117 9.5q161 0 364 -63v231q0 47 -14 86t-45 72t-88 51.5t-135 18.5q-126 0 -201 -22t-127 -87l-70 47q56 79 154.5 112.5t243.5 33.5q91 0 162 -21t112 -53.5t67 -76t35 -82.5t9 -79
v-604q0 -73 22.5 -100t69.5 -27h53v-92zM864 209v307q-198 59 -364 59q-41 0 -77 -5t-78 -21.5t-71 -43t-49 -74.5t-20 -112q0 -268 246 -268q117 0 204 34t209 124z" />
    <glyph glyph-name="caronalt" unicode="&#xe019;" horiz-adv-x="409" 
d="M311 1599l-123 -479q-3 -18 -8 -23t-18 -5h-10q-15 0 -19 5t-4 23l61 479h121z" />
    <glyph glyph-name="commaaccentalt" unicode="&#xe01a;" horiz-adv-x="409" 
d="M238 1655l38 -25q-86 -99 -86 -221h68q14 0 17.5 -5t3.5 -18v-108q0 -18 -4 -21.5t-17 -3.5h-115q-14 0 -17 4.5t-3 20.5v106q0 156 115 271z" />
    <glyph glyph-name="dotlessi.alt" unicode="&#xe01b;" horiz-adv-x="565" 
d="M522 -14h-82q-110 0 -164.5 58.5t-54.5 186.5v783h-176v86h279v-869q0 -83 27 -119t89 -36h82v-90z" />
    <glyph glyph-name="f_i.alt" unicode="&#xe022;" horiz-adv-x="1269" 
d="M1028 1485q0 -18 -3.5 -21.5t-18.5 -3.5h-91q-15 0 -18.5 3.5t-3.5 21.5v84q0 14 2 19t5 6t15 1h91h12t6 -3t3.5 -7.5t0.5 -15.5v-84zM1227 -16h-82q-111 0 -164 59t-53 188v783h-598v-1014h-103v1014h-172v86h172v137q0 98 29.5 170t81 111.5t112.5 58t134 18.5
q93 0 198 -24l-16 -86q-17 3 -47 9t-47 9t-41.5 5.5t-46.5 2.5q-117 0 -185.5 -61.5t-68.5 -212.5v-137h698v-869q0 -81 28.5 -116t88.5 -35h82v-96z" />
    <glyph glyph-name="i.alt" unicode="&#xe025;" horiz-adv-x="565" 
d="M324 1485q0 -18 -3.5 -21.5t-19.5 -3.5h-90q-16 0 -19.5 3.5t-3.5 21.5v84q0 11 0.5 15.5t4 7.5t6 3h12.5h90q12 0 15.5 -1t5.5 -6t2 -19v-84zM522 -14h-82q-110 0 -164.5 58.5t-54.5 186.5v783h-176v86h279v-869q0 -83 27 -119t89 -36h82v-90z" />
    <glyph glyph-name="iacute.alt" unicode="&#xe026;" horiz-adv-x="565" 
d="M471 1522l-352 -291l-8 -4q-9 0 -17 8l-24 22q-7 7 -7 11q0 1 1 2t2 2.5t2 3.5l307 346zM522 -14h-82q-110 0 -164.5 58.5t-54.5 186.5v783h-176v86h279v-869q0 -83 27 -119t89 -36h82v-90z" />
    <glyph glyph-name="ibreve.alt" unicode="&#xe027;" horiz-adv-x="565" 
d="M586 1550q-54 -134 -125.5 -201t-181.5 -67t-182 67t-126 201l62 39q63 -116 114.5 -163.5t131.5 -47.5t131 47.5t114 163.5zM522 -14h-82q-110 0 -164.5 58.5t-54.5 186.5v783h-176v86h279v-869q0 -83 27 -119t89 -36h82v-90z" />
    <glyph glyph-name="icircumflex.alt" unicode="&#xe028;" horiz-adv-x="565" 
d="M561 1272l-47 -45l-252 235l-252 -235l-47 45l260 311q23 29 39 29t39 -29zM522 -14h-82q-110 0 -164.5 58.5t-54.5 186.5v783h-176v86h279v-869q0 -83 27 -119t89 -36h82v-90z" />
    <glyph glyph-name="idieresis.alt" unicode="&#xe029;" horiz-adv-x="565" 
d="M559 1382q0 -18 -3 -21t-19 -3h-103q-16 0 -19 3t-3 21v97q0 5 0.5 8.5t0 6.5t1 4.5t1.5 2.5t3 1.5t4 0.5h5.5h6.5h103h6.5h5.5t4 -0.5t3 -1.5t1.5 -2.5t1 -4.5t0 -6.5t0.5 -8.5v-97zM102 1382q0 -18 -3 -21t-19 -3h-100q-16 0 -19.5 3t-3.5 21v97q0 18 3 21t15 3h5h100
h6.5h5.5t4 -0.5t3 -1.5t1.5 -2.5t1 -4.5t0 -6.5t0.5 -8.5v-97zM522 -14h-82q-110 0 -164.5 58.5t-54.5 186.5v783h-176v86h279v-869q0 -83 27 -119t89 -36h82v-90z" />
    <glyph glyph-name="igrave.alt" unicode="&#xe02a;" horiz-adv-x="565" 
d="M367 1268q0 -2 -9 -11l-22 -22q-8 -8 -17 -8l-8 4l-352 291l94 100l309 -346q1 -2 2 -3.5t2 -2.5t1 -2zM522 -14h-82q-110 0 -164.5 58.5t-54.5 186.5v783h-176v86h279v-869q0 -83 27 -119t89 -36h82v-90z" />
    <glyph glyph-name="ij.alt" unicode="&#xe02b;" horiz-adv-x="1091" 
d="M324 1485q0 -18 -3.5 -21.5t-19.5 -3.5h-90q-16 0 -19.5 3.5t-3.5 21.5v84q0 11 0.5 15.5t4 7.5t6 3h12.5h90q12 0 15.5 -1t5.5 -6t2 -19v-84zM522 -14h-82q-110 0 -164.5 58.5t-54.5 186.5v783h-176v86h279v-869q0 -83 27 -119t89 -36h82v-90zM903 1485
q0 -18 -3.5 -21.5t-18.5 -3.5h-90q-16 0 -19.5 3.5t-3.5 21.5v84q0 11 0.5 15.5t4 7.5t6 3h12.5h90h12t6 -3t3.5 -7.5t0.5 -15.5v-84zM903 -225q0 -45 -7 -82.5t-26 -73.5t-49.5 -60.5t-80.5 -39.5t-117 -15h-88v93h88q106 0 142 47t36 161v1209h-176v86h278v-1325z" />
    <glyph glyph-name="imacron.alt" unicode="&#xe02c;" horiz-adv-x="565" 
d="M590 1331h-633v94h633v-94zM522 -14h-82q-110 0 -164.5 58.5t-54.5 186.5v783h-176v86h279v-869q0 -83 27 -119t89 -36h82v-90z" />
    <glyph glyph-name="iogonek.alt" unicode="&#xe02d;" horiz-adv-x="565" 
d="M530 -344l-73 -16q-57 -11 -109 -11q-76 0 -125 37.5t-49 104.5q0 80 57 131l111 100q-121 44 -121 229v783h-176v86h279v-869q0 -83 27 -119t89 -36h82v-90h-82h-18l-105 -103q-29 -27 -42 -51t-13 -59t26.5 -57.5t80.5 -22.5q36 0 82 8l63 12zM324 1485
q0 -18 -3.5 -21.5t-19.5 -3.5h-90q-16 0 -19.5 3.5t-3.5 21.5v84q0 11 0.5 15.5t4 7.5t6 3h12.5h90q12 0 15.5 -1t5.5 -6t2 -19v-84z" />
    <glyph glyph-name="itilde.alt" unicode="&#xe02e;" horiz-adv-x="565" 
d="M637 1470l-131 -176q-35 -47 -82 -47q-38 0 -82 27l-182 110q-30 19 -43 19q-8 0 -15 -3t-10 -6.5t-12 -13.5t-14 -16l-113 -125l-49 39l129 178q33 45 82 45q40 0 82 -26l186 -113q22 -14 39 -14q16 0 24 6t27 28l113 129zM522 -14h-82q-110 0 -164.5 58.5t-54.5 186.5
v783h-176v86h279v-869q0 -83 27 -119t89 -36h82v-90z" />
    <glyph glyph-name="j.alt" unicode="&#xe02f;" horiz-adv-x="466" 
d="M324 1485q0 -18 -3.5 -21.5t-19.5 -3.5h-90q-16 0 -19.5 3.5t-3.5 21.5v84q0 11 0.5 15.5t4 7.5t6 3h12.5h90q12 0 15.5 -1t5.5 -6t2 -19v-84zM324 -225q0 -58 -12.5 -103t-42 -85t-86.5 -61.5t-140 -21.5h-88v93h88q106 0 142 47t36 161v1209h-176v86h279v-1325z" />
    <glyph glyph-name="j.dotless" unicode="&#xe030;" horiz-adv-x="389" 
d="M246 -225q0 -57 -12.5 -102.5t-42.5 -85t-87.5 -61.5t-140.5 -22h-88v93h88q106 0 142 47t36 161v1295h105v-1325z" />
    <glyph glyph-name="jcircumflex.alt" unicode="&#xe031;" horiz-adv-x="528" 
d="M324 -225q0 -58 -12.5 -103t-42 -85t-86.5 -61.5t-140 -21.5h-88v93h88q106 0 142 47t36 161v1209h-176v86h279v-1325zM580 1272l-48 -45l-251 235l-252 -235l-47 45l260 311q23 29 39 29q15 0 38 -29z" />
    <glyph glyph-name="l.alt" unicode="&#xe032;" horiz-adv-x="485" 
d="M479 -16h-82q-111 0 -165 60t-54 187v1278h-172v86h275v-1364q0 -84 27.5 -117.5t88.5 -33.5h82v-96z" />
    <glyph glyph-name="lacute.alt" unicode="&#xe033;" horiz-adv-x="561" 
d="M532 1931l-352 -291q-11 -8 -24 5l-25 22q-11 11 -2 19l307 346zM479 -16h-82q-111 0 -165 60t-54 187v1278h-172v86h275v-1364q0 -84 27.5 -117.5t88.5 -33.5h82v-96z" />
    <glyph glyph-name="lcaron.alt" unicode="&#xe034;" horiz-adv-x="681" 
d="M733 1599l-123 -479q-3 -18 -8 -23t-18 -5h-11q-15 0 -18.5 5t-3.5 23l61 479h121zM479 -16h-82q-111 0 -165 60t-54 187v1278h-172v86h275v-1364q0 -84 27.5 -117.5t88.5 -33.5h82v-96z" />
    <glyph glyph-name="lcommaaccent.alt" unicode="&#xe035;" horiz-adv-x="561" 
d="M479 -16h-82q-111 0 -165 60t-54 187v1278h-172v86h275v-1364q0 -84 27.5 -117.5t88.5 -33.5h82v-96zM283 -512l-39 25q86 99 86 221h-68q-14 0 -17 4t-3 18v109q0 18 3.5 21t16.5 3h115q14 0 17 -4t3 -20v-107q0 -156 -114 -270z" />
    <glyph glyph-name="ldot.alt" unicode="&#xe036;" horiz-adv-x="790" 
d="M666 788q0 -18 -3.5 -21t-19.5 -3h-102q-16 0 -19.5 3t-3.5 21v95q0 11 0.5 15.5t4 7.5t6 3h12.5h102q12 0 15.5 -1t5.5 -6t2 -19v-95zM479 -16h-82q-111 0 -165 60t-54 187v1278h-172v86h275v-1364q0 -84 27.5 -117.5t88.5 -33.5h82v-96z" />
    <glyph glyph-name="lslash.alt" unicode="&#xe037;" horiz-adv-x="485" 
d="M479 -16h-82q-111 0 -165 60t-54 187v607l-143 -86v114l143 84v559h-172v86h275v-585l172 100v-111l-172 -102v-666q0 -84 27.5 -117.5t88.5 -33.5h82v-96z" />
    <glyph glyph-name="uni2014.alt" unicode="&#xe038;" horiz-adv-x="1255" 
d="M1190 618h-1124v111h1124v-111z" />
    <glyph glyph-name="h.superior" unicode="&#xf637;" horiz-adv-x="720" 
d="M633 645h-80v436q0 185 -147 185q-88 0 -228 -121v-500h-80v963h80v-381q116 108 228 108q105 0 166 -60.5t61 -193.5v-436z" />
    <glyph glyph-name="zero.fitted" unicode="&#xf639;" 
d="M1079 756q0 -108 -5 -193t-18.5 -169.5t-36 -147t-58.5 -117.5t-85.5 -89t-117.5 -53.5t-154 -19.5t-154 19.5t-117.5 53.5t-85.5 89t-58.5 117.5t-36 147t-18.5 169.5t-5 193q0 145 12 254.5t43.5 207t84 159t136.5 97t199 35.5t199 -35.5t136.5 -97t84 -159t43.5 -207
t12 -254.5zM973 756q0 72 -1.5 125.5t-6 114.5t-12.5 105.5t-22 91.5t-33.5 79.5t-47 62.5t-63 47.5t-81.5 28t-102 10.5q-72 0 -127.5 -17.5t-94 -45.5t-66 -77t-43 -99t-24 -125t-11 -141t-2.5 -160q0 -76 1.5 -131.5t5.5 -120t12 -111t22 -96.5t33 -84t46.5 -66t63 -51
t82 -30t102.5 -11q72 0 128 18.5t94.5 48.5t66 82t43 104.5t24 131.5t11 148t2.5 168z" />
    <glyph glyph-name="two.fitted" unicode="&#xf63a;" 
d="M1059 1110q0 -95 -38.5 -176t-102 -141.5t-141 -117.5t-161 -116.5t-156.5 -124t-131.5 -154.5t-82.5 -194h719v225h90v-311h-922q4 99 34.5 186.5t79 154t110.5 126t129 109.5t134 97.5t127 95.5t106 98t73.5 112t27.5 131q0 161 -84 236t-231 75q-96 0 -168 -19.5
t-116 -56.5t-68.5 -81t-36.5 -101h-92q7 51 25 96.5t55 92.5t88.5 80.5t132 55t180.5 21.5q189 0 304.5 -102.5t115.5 -296.5z" />
    <glyph glyph-name="three.fitted" unicode="&#xf63b;" 
d="M1092 418q0 -221 -133 -336t-363 -115q-188 0 -303 65t-191 208l86 43q46 -84 96.5 -133t126.5 -75t185 -26q188 0 289.5 95t101.5 274q0 154 -94 237.5t-242 83.5h-213l-24 95h237q61 0 114 17t97.5 51.5t70 96t25.5 142.5q0 286 -333 286q-141 0 -238 -46.5
t-154 -159.5l-79 39q66 128 181.5 188.5t289.5 60.5q118 0 205 -29t136.5 -81.5t73 -116.5t23.5 -141q0 -50 -11.5 -97.5t-37.5 -95.5t-74 -89.5t-115 -70.5q134 -48 200.5 -144.5t66.5 -225.5z" />
    <glyph glyph-name="four.fitted" unicode="&#xf63c;" 
d="M1151 414h-168v-414h-98v414h-793v116l762 947h129v-975h168v-88zM885 502v866l-695 -866h695z" />
    <glyph glyph-name="five.fitted" unicode="&#xf63d;" 
d="M1079 434q0 -101 -29.5 -184t-89 -147.5t-159.5 -100t-232 -35.5q-188 0 -302.5 65t-190.5 208l86 43q68 -124 157 -176t250 -52q201 0 301.5 100t100.5 279q0 111 -26 187t-79.5 119t-125 61t-171.5 18q-220 0 -374 -57l-58 47l78 668h805l-25 -86h-700l-62 -527
q153 45 336 45q115 0 204.5 -24t160 -77.5t108 -148t37.5 -225.5z" />
    <glyph glyph-name="six.fitted" unicode="&#xf63e;" 
d="M1087 477q0 -123 -24.5 -213.5t-79 -159t-149 -103t-228.5 -34.5q-101 0 -178.5 21t-128 49t-85.5 87.5t-52 103t-26 130.5t-10 136t-1 151v39q0 256 13 363q33 263 175 372q119 90 324 90q132 0 234.5 -39t162.5 -112l-63 -60q-123 123 -334 123q-107 0 -181 -28
t-126 -94t-76.5 -177.5t-24.5 -275.5q0 -10 1 -31t1 -33q146 164 375 164q257 0 369 -114.5t112 -354.5zM983 477q0 208 -89 294.5t-288 86.5q-170 0 -273.5 -98.5t-103.5 -282.5q0 -225 89.5 -323.5t287.5 -98.5t287.5 98.5t89.5 323.5z" />
    <glyph glyph-name="seven.fitted" unicode="&#xf63f;" horiz-adv-x="1114" 
d="M1036 1366l-708 -1366h-121l731 1391h-760v-228h-90v314h948v-111z" />
    <glyph glyph-name="eight.fitted" unicode="&#xf640;" 
d="M1096 418q0 -222 -113.5 -336.5t-366.5 -114.5t-366 114.5t-113 336.5q0 265 236 370q-215 96 -215 332q0 196 111.5 292.5t346.5 96.5t347 -96.5t112 -292.5q0 -236 -215 -332q236 -105 236 -370zM973 1120q0 77 -20 132.5t-51.5 87.5t-81 51t-96 24.5t-108.5 5.5
t-108.5 -5.5t-95.5 -24.5t-80.5 -51t-51.5 -87.5t-20 -132.5q0 -75 25 -133.5t65.5 -91t85.5 -48.5t92 -16h177q47 0 92 16t85.5 48.5t65.5 91t25 133.5zM991 418q0 86 -31 156.5t-97.5 116.5t-157.5 46h-177q-91 0 -157.5 -46t-97.5 -116.5t-31 -156.5q0 -200 91 -281.5
t283 -81.5t283.5 81.5t91.5 281.5z" />
    <glyph glyph-name="nine.fitted" unicode="&#xf641;" 
d="M1083 793q0 -257 -13 -364q-33 -264 -176 -373q-119 -89 -323 -89q-132 0 -234.5 39t-162.5 113l64 59q123 -123 333 -123q107 0 181 28.5t126 94.5t76.5 177.5t24.5 275.5q0 10 -1 30.5t-1 32.5q-146 -164 -375 -164q-257 0 -369 114.5t-112 354.5q0 123 24.5 213.5
t79 159t149 103t228.5 34.5q101 0 178.5 -21t128 -49t85.5 -87t52 -102.5t26 -130.5t10 -136t1 -151v-39zM979 999q0 225 -89.5 323.5t-287.5 98.5t-287.5 -98.5t-89.5 -323.5q0 -208 89 -294.5t288 -86.5q170 0 273.5 98.5t103.5 282.5z" />
    <glyph glyph-name="zero.taboldstyle" unicode="&#xf643;" 
d="M1055 549q0 -109 -10.5 -191.5t-40.5 -158.5t-79.5 -125t-130 -78t-190.5 -29t-190.5 29t-130 77.5t-79 125t-40 159t-10.5 191.5t10.5 191t40 158.5t79 125t130 77.5t190.5 29t190.5 -29t130 -77.5t79.5 -125t40.5 -158.5t10.5 -191zM954 549q0 103 -8 176.5t-30.5 138
t-61.5 103t-101 60.5t-149 22t-149 -22t-101 -60.5t-61.5 -103t-30.5 -138t-8 -176.5t8 -176.5t30.5 -138t61.5 -103t101 -60.5t149 -22t149 22t101 60.5t61.5 103t30.5 138t8 176.5z" />
    <glyph glyph-name="one.taboldstyle" unicode="&#xf644;" 
d="M1001 0h-796v86h346v934l-346 -78v88l452 103v-1047h344v-86z" />
    <glyph glyph-name="two.taboldstyle" unicode="&#xf645;" 
d="M1067 0h-926q4 103 33.5 187t73 140.5t107.5 101t126 70.5t140 48q102 28 166 57.5t98.5 66.5t46.5 75.5t12 95.5q0 211 -315 211q-333 0 -350 -250h-97q5 67 30.5 123.5t76 105t137.5 76t203 27.5q204 0 312 -77t108 -216t-90.5 -230t-307.5 -151q-185 -50 -277 -133.5
t-124 -237.5h719v133h98v-223z" />
    <glyph glyph-name="three.taboldstyle" unicode="&#xf646;" 
d="M1098 43q0 -221 -133 -336t-363 -115q-188 0 -302.5 65t-190.5 208l86 43q46 -84 96 -133t126 -75t185 -26q188 0 289.5 95t101.5 274q0 154 -94.5 238t-241.5 84h-213l-24 94h237q48 0 92 10t84 33.5t69 58t46 87.5t17 118q0 287 -334 287q-141 0 -237.5 -47
t-153.5 -160l-80 39q66 128 181.5 189t289.5 61q95 0 170.5 -19.5t125 -53.5t82 -81.5t46.5 -100.5t14 -114q0 -69 -19.5 -130t-75 -122.5t-143.5 -99.5q134 -48 200.5 -145t66.5 -226z" />
    <glyph glyph-name="four.taboldstyle" unicode="&#xf647;" 
d="M1133 0h-168v-414h-99v414h-792v117l762 1018h129v-1047h168v-88zM866 88v928l-694 -928h694z" />
    <glyph glyph-name="five.taboldstyle" unicode="&#xf648;" 
d="M1106 57q0 -101 -29.5 -184t-89 -147.5t-159.5 -100t-232 -35.5q-188 0 -303 65t-191 208l86 43q68 -124 157.5 -176t250.5 -52q201 0 301 100t100 279q0 111 -26 187t-79.5 119t-124.5 61t-171 18q-221 0 -375 -57l-57 47l78 668h805l-25 -86h-700l-62 -527
q153 45 336 45q115 0 204.5 -24t160 -77.5t108 -148t37.5 -225.5z" />
    <glyph glyph-name="six.taboldstyle" unicode="&#xf649;" 
d="M1085 477q0 -123 -24.5 -213.5t-79 -159t-149 -103t-228.5 -34.5q-101 0 -178.5 21t-128 49t-85.5 87.5t-52 103t-26 130.5t-10 136t-1 151v39q0 256 13 363q33 263 175 372q119 90 324 90q131 0 241 -44.5t171 -118.5l-64 -60q-135 135 -348 135q-107 0 -181 -28
t-126 -94t-76.5 -177.5t-24.5 -275.5q0 -10 1 -31t1 -33q146 164 375 164q257 0 369 -114.5t112 -354.5zM981 477q0 208 -89 294.5t-288 86.5q-170 0 -273.5 -98.5t-103.5 -282.5q0 -225 89.5 -323.5t287.5 -98.5t287.5 98.5t89.5 323.5z" />
    <glyph glyph-name="seven.taboldstyle" unicode="&#xf64a;" 
d="M1077 989l-708 -1366h-121l731 1391h-760v-228h-90v314h948v-111z" />
    <glyph glyph-name="eight.taboldstyle" unicode="&#xf64b;" 
d="M1083 418q0 -222 -113 -336.5t-366 -114.5t-366 114.5t-113 336.5q0 265 235 370q-215 96 -215 332q0 196 112 292.5t347 96.5t347 -96.5t112 -292.5q0 -236 -215 -332q235 -105 235 -370zM961 1120q0 77 -20 132.5t-51.5 87.5t-81 51t-96 24.5t-108.5 5.5t-108.5 -5.5
t-95.5 -24.5t-80.5 -51t-51.5 -87.5t-20 -132.5q0 -75 25 -133.5t65.5 -91t85.5 -48.5t92 -16h176q47 0 92 16t86 48.5t66 91t25 133.5zM979 418q0 85 -31 156t-98 117t-158 46h-176q-91 0 -158 -46t-98 -117t-31 -156q0 -200 91.5 -281.5t283.5 -81.5t283.5 81.5
t91.5 281.5z" />
    <glyph glyph-name="nine.taboldstyle" unicode="&#xf64c;" 
d="M1083 418q0 -257 -13 -364q-33 -264 -176 -373q-119 -89 -323 -89q-130 0 -240 44.5t-171 119.5l63 60q135 -135 348 -135q107 0 181 28t126 94t76.5 177.5t24.5 275.5q0 10 -1 30.5t-1 32.5q-145 -163 -375 -163q-257 0 -369 114.5t-112 354.5q0 123 24.5 213.5t79 159
t149 103t228.5 34.5q101 0 178.5 -21t128 -49t85.5 -87.5t52 -103t26 -130.5t10 -136t1 -151v-39zM979 625q0 225 -89.5 323.5t-287.5 98.5t-287.5 -98.5t-89.5 -323.5q0 -208 89 -294.5t288 -86.5q170 0 273.5 98.5t103.5 282.5z" />
    <glyph glyph-name="zero.denominator" unicode="&#xf655;" horiz-adv-x="694" 
d="M631 440q0 -89 -6.5 -154t-24.5 -125.5t-49 -97.5t-81.5 -59t-121.5 -22t-122.5 22t-82.5 59t-49 97.5t-24.5 125.5t-6.5 154q0 85 7 149t26 121t51 93t82 57t119 21q84 0 141 -30.5t87.5 -91.5t42.5 -136.5t12 -182.5zM539 440q0 50 -1.5 86t-6 76t-12.5 67.5t-22 53.5
t-34 41.5t-49 25t-66 9.5q-44 0 -76 -11.5t-53 -36t-34 -53t-19 -73.5t-8 -85t-2 -100q0 -62 2 -104t8 -89.5t19 -77.5t34 -56t53 -38t76 -12q52 0 88 19.5t56 49.5t31 83t13.5 101t2.5 124z" />
    <glyph glyph-name="one.denominator" unicode="&#xf656;" horiz-adv-x="694" 
d="M582 0h-482v80h195v696q-40 -9 -195 -43v84l287 62v-799h195v-80z" />
    <glyph glyph-name="two.denominator" unicode="&#xf657;" horiz-adv-x="694" 
d="M618 641q0 -49 -17 -92t-52 -80.5t-66 -63t-80 -59.5q-89 -62 -149 -124t-86 -142h367v127h81v-207h-550q2 45 12 86t23 72t36.5 63t42 53t50.5 48t51.5 41t54.5 40q48 34 74.5 55t58 52t45.5 63t14 68q0 158 -161 158q-176 0 -205 -144h-84q7 42 23.5 78.5t48.5 71.5
t87.5 55.5t129.5 20.5q113 0 182 -62t69 -178z" />
    <glyph glyph-name="three.denominator" unicode="&#xf658;" horiz-adv-x="694" 
d="M637 250q0 -132 -79 -200t-216 -68q-111 0 -180 41.5t-119 134.5l76 39q42 -73 90.5 -105.5t132.5 -32.5q98 0 151.5 49.5t53.5 141.5q0 80 -48 123t-124 43h-135l-23 84h158q67 0 111 38t44 119q0 146 -172 146q-73 0 -125 -27.5t-86 -93.5l-75 35q44 85 113.5 124.5
t172.5 39.5q138 0 200.5 -63t62.5 -161q0 -56 -27.5 -108.5t-83.5 -87.5q62 -32 94.5 -87t32.5 -124z" />
    <glyph glyph-name="four.denominator" unicode="&#xf659;" horiz-adv-x="694" 
d="M670 231h-92v-231h-89v231h-446v88l438 543h97v-549h92v-82zM489 313v428l-342 -428h342z" />
    <glyph glyph-name="five.denominator" unicode="&#xf65a;" horiz-adv-x="694" 
d="M631 260q0 -127 -74 -202.5t-229 -75.5q-111 0 -181 42t-120 134l77 39q42 -72 90.5 -103t133.5 -31q105 0 158 52t53 145q0 112 -52 156.5t-159 44.5q-120 0 -213 -35l-45 39l43 397h489l-24 -82h-388q-5 -45 -16 -126.5t-16 -129.5q83 19 170 19q143 0 223 -65.5
t80 -217.5z" />
    <glyph glyph-name="six.denominator" unicode="&#xf65b;" horiz-adv-x="694" 
d="M635 285q0 -150 -65 -226.5t-222 -76.5q-47 0 -85.5 8t-66.5 19.5t-50 34t-36 41.5t-24 53.5t-14.5 57.5t-7 66t-3 67t-0.5 72q0 64 1 98.5t6.5 93.5t16.5 92.5t33.5 76t54.5 65t81 38.5t113 16q163 0 243 -105l-55 -53q-80 76 -188 76q-114 0 -164.5 -67.5t-50.5 -237.5
q79 71 196 71q154 0 220.5 -68.5t66.5 -211.5zM545 285q0 107 -47.5 152.5t-149.5 45.5q-88 0 -142 -51.5t-54 -146.5q0 -118 47 -170t149 -52t149.5 52.5t47.5 169.5z" />
    <glyph glyph-name="seven.denominator" unicode="&#xf65c;" horiz-adv-x="694" 
d="M641 780l-405 -780h-103l410 780h-385v-125h-84v207h567v-82z" />
    <glyph glyph-name="eight.denominator" unicode="&#xf65d;" horiz-adv-x="694" 
d="M641 250q0 -132 -67.5 -200t-219.5 -68q-151 0 -217.5 67.5t-66.5 200.5q0 148 114 209q-104 60 -104 188q0 117 66.5 175.5t207.5 58.5t208 -58.5t67 -175.5q0 -128 -105 -188q117 -69 117 -209zM549 250q0 69 -38.5 116.5t-107.5 47.5h-98q-69 0 -107 -47.5t-38 -116.5
q0 -103 47 -145t147 -42t147.5 42t47.5 145zM539 647q0 48 -14.5 79.5t-42.5 46.5t-57.5 20.5t-70.5 5.5t-70 -5.5t-57 -20.5t-42.5 -46.5t-14.5 -79.5q0 -75 41.5 -112t93.5 -37h98q52 0 94 37t42 112z" />
    <glyph glyph-name="nine.denominator" unicode="&#xf65e;" horiz-adv-x="694" 
d="M633 463q0 -66 -1 -100t-6.5 -94t-16.5 -93t-33 -75.5t-54 -64.5t-81 -38t-113 -16q-162 0 -244 102l59 53q78 -74 185 -74q114 0 164.5 68t50.5 238q-78 -70 -197 -70q-153 0 -220 69t-67 212q0 147 66 224t221 77q47 0 85 -8t66 -19.5t50 -34t36 -42t24 -53t15 -57.5
t7.5 -66t3 -67t0.5 -71zM543 580q0 117 -47 168t-150 51t-149.5 -51t-46.5 -168q0 -110 46 -154.5t150 -44.5q89 0 143 51t54 148z" />
    <glyph glyph-name="zero.numerator" unicode="&#xf661;" horiz-adv-x="694" 
d="M631 1085q0 -89 -6.5 -154t-24.5 -125.5t-49 -97.5t-81.5 -59t-121.5 -22t-122.5 22t-82.5 59t-49 97.5t-24.5 125.5t-6.5 154q0 85 7 149t26 121t51 93t82 57t119 21q84 0 141 -30.5t87.5 -91.5t42.5 -136.5t12 -182.5zM539 1085q0 50 -1.5 86t-6 76t-12.5 67.5
t-22 53.5t-34 41.5t-49 25t-66 9.5q-44 0 -76 -11.5t-53 -36t-34 -53t-19 -73.5t-8 -85t-2 -100q0 -62 2 -104t8 -89t19 -77t34 -56t53 -38t76 -12t76 12t52.5 38t33.5 55.5t19 77t8 89.5t2 104z" />
    <glyph glyph-name="one.numerator" unicode="&#xf662;" horiz-adv-x="694" 
d="M582 645h-482v80h195v696q-40 -9 -195 -43v84l287 62v-799h195v-80z" />
    <glyph glyph-name="two.numerator" unicode="&#xf663;" horiz-adv-x="694" 
d="M618 1286q0 -49 -17 -92t-52 -80.5t-66 -63t-80 -59.5q-89 -62 -149 -124t-86 -142h367v127h81v-207h-550q3 62 21.5 117t40.5 91.5t63 77t68.5 61.5t76.5 57q49 35 75 55t57.5 51.5t45.5 63t14 67.5q0 158 -161 158q-176 0 -205 -144h-84q7 42 23.5 78.5t48.5 71.5
t87.5 55.5t129.5 20.5q113 0 182 -62t69 -178z" />
    <glyph glyph-name="three.numerator" unicode="&#xf664;" horiz-adv-x="694" 
d="M637 895q0 -132 -79 -200t-216 -68q-111 0 -180 41.5t-119 134.5l76 39q42 -73 90.5 -105t132.5 -32q99 0 152 49t53 141q0 80 -48 123t-124 43h-135l-23 84h158q66 0 110.5 38.5t44.5 119.5q0 145 -172 145q-73 0 -125 -27.5t-86 -93.5l-75 35q44 85 113.5 124.5
t172.5 39.5q138 0 200.5 -62.5t62.5 -160.5q0 -56 -27.5 -109t-83.5 -88q62 -32 94.5 -87t32.5 -124z" />
    <glyph glyph-name="four.numerator" unicode="&#xf665;" horiz-adv-x="694" 
d="M670 877h-92v-232h-89v232h-446v88l438 542h97v-549h92v-81zM489 958v428l-342 -428h342z" />
    <glyph glyph-name="five.numerator" unicode="&#xf666;" horiz-adv-x="694" 
d="M631 905q0 -127 -74 -202.5t-229 -75.5q-111 0 -181 42t-120 134l77 39q41 -72 90 -102.5t134 -30.5q105 0 158 51.5t53 144.5q0 112 -52 156.5t-159 44.5q-120 0 -213 -35l-45 39l43 397h489l-24 -82h-388q-5 -45 -16 -126.5t-16 -129.5q83 19 170 19q143 0 223 -65.5
t80 -217.5z" />
    <glyph glyph-name="six.numerator" unicode="&#xf667;" horiz-adv-x="694" 
d="M635 930q0 -150 -65 -226.5t-222 -76.5q-83 0 -140 25.5t-85.5 58t-43 98.5t-16.5 109t-2 129q0 64 1 98.5t6.5 93.5t16.5 92.5t33.5 75.5t54.5 64.5t81 38.5t113 16q163 0 243 -105l-55 -53q-80 76 -188 76q-114 0 -164.5 -67.5t-50.5 -237.5q79 71 196 71
q154 0 220.5 -68.5t66.5 -211.5zM545 930q0 107 -47.5 152.5t-149.5 45.5q-88 0 -142 -51.5t-54 -146.5q0 -117 47 -169t149 -52t149.5 52t47.5 169z" />
    <glyph glyph-name="seven.numerator" unicode="&#xf668;" horiz-adv-x="694" 
d="M641 1425l-405 -780h-103l410 780h-385v-125h-84v207h567v-82z" />
    <glyph glyph-name="eight.numerator" unicode="&#xf669;" horiz-adv-x="694" 
d="M641 895q0 -132 -67.5 -200t-219.5 -68q-151 0 -217.5 67.5t-66.5 200.5q0 148 114 209q-104 60 -104 188q0 117 66.5 175.5t207.5 58.5t208 -58.5t67 -175.5q0 -128 -105 -188q117 -69 117 -209zM549 895q0 69 -38.5 116.5t-107.5 47.5h-98q-69 0 -107 -47.5t-38 -116.5
q0 -103 47 -144.5t147 -41.5q101 0 148 42t47 144zM539 1292q0 48 -14.5 79.5t-42.5 46.5t-57.5 20.5t-70.5 5.5t-70 -5.5t-57 -20.5t-42.5 -46.5t-14.5 -79.5q0 -75 41.5 -112t93.5 -37h98q52 0 94 37t42 112z" />
    <glyph glyph-name="nine.numerator" unicode="&#xf66a;" horiz-adv-x="694" 
d="M633 1108q0 -66 -1 -100t-6.5 -94t-16.5 -93t-33 -75.5t-54 -64.5t-81 -38t-113 -16q-162 0 -244 102l59 53q77 -73 185 -73q114 0 164.5 67.5t50.5 237.5q-78 -70 -197 -70q-153 0 -220 69t-67 212q0 147 66 224t221 77q47 0 85 -8t66 -19.5t50 -34t36 -42t24 -53
t15 -57.5t7.5 -66t3 -67t0.5 -71zM543 1225q0 117 -47 168t-150 51t-149.5 -51t-46.5 -168q0 -110 46 -154.5t150 -44.5q89 0 143 51t54 148z" />
    <glyph glyph-name="commaaccent" unicode="&#xf6c3;" horiz-adv-x="636" 
d="M283 -512l-39 25q86 99 86 221h-68q-14 0 -17 4t-3 18v109q0 18 3.5 21t16.5 3h115q14 0 17 -4t3 -20v-107q0 -156 -114 -270z" />
    <glyph glyph-name="one.fitted" unicode="&#xf6dc;" horiz-adv-x="956" 
d="M885 0h-797v86h346v1303l-346 -78v88l453 102v-1415h344v-86z" />
    <glyph glyph-name="a.superior" unicode="&#xf6e9;" horiz-adv-x="698" 
d="M594 645h-59l-15 66q-103 -86 -241 -86q-109 0 -163.5 59.5t-54.5 161.5q0 58 21 100t58 64.5t78 32.5t89 10q103 0 207 -33v123q0 54 -37 89.5t-121 35.5q-71 0 -114 -14t-78 -56l-58 41q39 53 99.5 74.5t150.5 21.5q70 0 119.5 -18.5t74 -49.5t34.5 -61t10 -63v-498z
M514 782v170q-106 35 -207 35q-164 0 -164 -141q0 -150 136 -150q67 0 116.5 18t118.5 68z" />
    <glyph glyph-name="b.superior" unicode="&#xf6ea;" horiz-adv-x="727" 
d="M659 985q0 -181 -81 -270.5t-213 -89.5q-117 0 -267 75v908h80v-336q118 63 199 63q282 0 282 -350zM578 985q0 283 -201 283q-86 0 -199 -76v-451q95 -45 187 -45q100 0 156.5 71.5t56.5 217.5z" />
    <glyph glyph-name="d.superior" unicode="&#xf6eb;" horiz-adv-x="724" 
d="M627 645h-43l-27 53q-93 -73 -192 -73q-62 0 -113 18.5t-94.5 58t-67.5 110.5t-24 169q0 354 284 354q110 0 197 -49v322h80v-963zM547 772v432q-64 37 -105 49.5t-92 12.5q-203 0 -203 -285q0 -58 10 -105.5t33.5 -90t67.5 -66t107 -23.5q48 0 89 18t93 58z" />
    <glyph glyph-name="e.superior" unicode="&#xf6ec;" horiz-adv-x="704" 
d="M643 961h-498q5 -138 55.5 -201.5t166.5 -63.5q137 0 190 97l70 -29q-39 -68 -100.5 -103.5t-159.5 -35.5q-157 0 -229 84t-72 274q0 179 68.5 265.5t232.5 86.5q276 0 276 -346v-28zM367 1266q-109 0 -162.5 -53.5t-59.5 -182.5h416q-2 106 -47.5 171t-146.5 65z" />
    <glyph glyph-name="i.superior" unicode="&#xf6ed;" horiz-adv-x="266" 
d="M174 645h-82v670h82v-670zM184 1534q0 -18 -4 -21.5t-20 -3.5h-54q-16 0 -20 3.5t-4 21.5v49q0 18 4 21.5t20 3.5h54q16 0 20 -3.5t4 -21.5v-49z" />
    <glyph glyph-name="l.superior" unicode="&#xf6ee;" horiz-adv-x="290" 
d="M293 635h-57q-140 0 -140 158v815h80v-815q0 -45 14 -62.5t46 -17.5h57v-78z" />
    <glyph glyph-name="m.superior" unicode="&#xf6ef;" horiz-adv-x="1087" 
d="M993 645h-80v428q0 98 -23 146.5t-91 48.5q-27 0 -72 -22.5t-66.5 -37.5t-74.5 -53q4 -25 4 -72v-438h-82v438q0 185 -115 185q-17 0 -36.5 -6.5t-35 -14t-38 -23t-33.5 -24.5t-35.5 -28.5t-30.5 -24.5v-502h-82v670h62l16 -86q36 31 61 49.5t69 37.5t85 19
q125 0 172 -110q45 34 74.5 53.5t74 38t83.5 18.5q101 0 147.5 -61t46.5 -199v-430z" />
    <glyph glyph-name="o.superior" unicode="&#xf6f0;" horiz-adv-x="710" 
d="M643 983q0 -180 -67 -269t-222 -89q-154 0 -221 89.5t-67 268.5q0 177 67 264.5t221 87.5q155 0 222 -87t67 -265zM561 983q0 152 -47.5 218.5t-159.5 66.5q-110 0 -158.5 -67t-48.5 -218q0 -152 47.5 -219.5t159.5 -67.5t159.5 67.5t47.5 219.5z" />
    <glyph glyph-name="r.superior" unicode="&#xf6f1;" horiz-adv-x="436" 
d="M412 1262h-11q-69 0 -111.5 -17.5t-115.5 -77.5v-522h-82v670h58l16 -70q58 46 112.5 68t122.5 22h11v-73z" />
    <glyph glyph-name="s.superior" unicode="&#xf6f2;" horiz-adv-x="602" 
d="M555 838q0 -98 -71 -155.5t-183 -57.5q-94 0 -160.5 36t-95.5 103l72 27q49 -95 184 -95q74 0 123 35.5t49 106.5q0 52 -27.5 76.5t-93.5 35.5l-116 21q-80 13 -126.5 56t-46.5 118q0 95 69.5 142.5t170.5 47.5q71 0 134 -27t95 -79l-65 -33q-52 72 -164 72
q-70 0 -116 -30.5t-46 -92.5q0 -37 24 -63t89 -38l111 -20q96 -16 143 -59t47 -127z" />
    <glyph glyph-name="t.superior" unicode="&#xf6f3;" horiz-adv-x="487" 
d="M442 729l43 -57q-66 -47 -172 -47q-78 0 -126 43.5t-48 136.5v440h-119v70h115v229l82 19v-248h236l-23 -70h-213v-440q0 -109 107 -109q57 0 118 33z" />
    <glyph glyph-name="zero.oldstyle" unicode="&#xf730;" horiz-adv-x="1081" 
d="M995 549q0 -109 -10.5 -191.5t-40 -159t-79 -125t-130 -77.5t-190.5 -29t-190.5 29t-130 78t-79.5 125t-40.5 158.5t-10.5 191.5t10.5 191t40.5 158.5t79.5 125t130 77.5t190.5 29t190.5 -29t130 -77.5t79 -125t40 -158.5t10.5 -191zM895 549q0 103 -8 176.5t-30.5 138
t-61.5 103t-101 60.5t-149 22t-149 -22t-101 -60.5t-61.5 -103t-30.5 -138t-8 -176.5t8 -176.5t30.5 -138t61.5 -103t101 -60.5t149 -22t149 22t101 60.5t61.5 103t30.5 138t8 176.5z" />
    <glyph glyph-name="one.oldstyle" unicode="&#xf731;" horiz-adv-x="1001" 
d="M899 0h-797v86h347v934l-347 -78v88l453 103v-1047h344v-86z" />
    <glyph glyph-name="two.oldstyle" unicode="&#xf732;" horiz-adv-x="1171" 
d="M1044 0h-925q4 103 33.5 187t72.5 140.5t107 101t126 70.5t140 48q135 37 206 80t94.5 91t23.5 124q0 211 -316 211q-333 0 -350 -250h-96q5 67 30.5 123.5t75.5 105t137 76t203 27.5q204 0 312 -77t108 -216t-90 -230.5t-307 -150.5q-185 -51 -277.5 -134t-124.5 -237
h719v133h98v-223z" />
    <glyph glyph-name="three.oldstyle" unicode="&#xf733;" 
d="M1092 43q0 -221 -133 -336t-363 -115q-188 0 -303 65t-191 208l86 43q46 -84 96.5 -133t126.5 -75t185 -26q188 0 289.5 95t101.5 274q0 154 -94.5 238t-241.5 84h-213l-24 94h237q61 0 114 17t97.5 51.5t70 96t25.5 142.5q0 287 -333 287q-141 0 -238 -47t-154 -160
l-79 39q66 128 181.5 189t289.5 61q95 0 170.5 -19.5t125 -53.5t82 -81.5t46.5 -100.5t14 -114q0 -69 -19.5 -130t-75 -122.5t-143.5 -99.5q134 -48 200.5 -145t66.5 -226z" />
    <glyph glyph-name="four.oldstyle" unicode="&#xf734;" 
d="M1151 0h-168v-414h-98v414h-793v117l762 1018h129v-1047h168v-88zM885 88v928l-695 -928h695z" />
    <glyph glyph-name="five.oldstyle" unicode="&#xf735;" horiz-adv-x="1245" 
d="M1106 57q0 -101 -29.5 -184t-89 -147.5t-159.5 -100t-232 -35.5q-188 0 -303 65t-191 208l86 43q68 -124 157.5 -176t250.5 -52q201 0 301 100t100 279q0 111 -26 187t-79.5 119t-124.5 61t-171 18q-221 0 -375 -57l-57 47l78 668h805l-25 -86h-700l-62 -527
q153 45 336 45q115 0 204.5 -24t160 -77.5t108 -148t37.5 -225.5z" />
    <glyph glyph-name="six.oldstyle" unicode="&#xf736;" 
d="M1087 477q0 -123 -24.5 -213.5t-79 -159t-149 -103t-228.5 -34.5q-101 0 -178.5 21t-128 49t-85.5 87.5t-52 103t-26 130.5t-10 136t-1 151v39q0 256 13 363q33 263 175 372q119 90 324 90q131 0 241 -44.5t171 -118.5l-64 -60q-135 135 -348 135q-107 0 -181 -28
t-126 -94t-76.5 -177.5t-24.5 -275.5q0 -10 1 -31t1 -33q146 164 375 164q257 0 369 -114.5t112 -354.5zM983 477q0 208 -89 294.5t-288 86.5q-170 0 -273.5 -98.5t-103.5 -282.5q0 -225 89.5 -323.5t287.5 -98.5t287.5 98.5t89.5 323.5z" />
    <glyph glyph-name="seven.oldstyle" unicode="&#xf737;" 
d="M1096 989l-709 -1366h-121l731 1391h-759v-228h-91v314h949v-111z" />
    <glyph glyph-name="eight.oldstyle" unicode="&#xf738;" 
d="M1083 418q0 -222 -113 -336.5t-366 -114.5t-366 114.5t-113 336.5q0 265 235 370q-215 96 -215 332q0 196 112 292.5t347 96.5t347 -96.5t112 -292.5q0 -236 -215 -332q235 -105 235 -370zM961 1120q0 77 -20 132.5t-51.5 87.5t-81 51t-96 24.5t-108.5 5.5t-108.5 -5.5
t-95.5 -24.5t-80.5 -51t-51.5 -87.5t-20 -132.5q0 -75 25 -133.5t65.5 -91t85.5 -48.5t92 -16h176q47 0 92 16t86 48.5t66 91t25 133.5zM979 418q0 85 -31 156t-98 117t-158 46h-176q-91 0 -158 -46t-98 -117t-31 -156q0 -200 91.5 -281.5t283.5 -81.5t283.5 81.5
t91.5 281.5z" />
    <glyph glyph-name="nine.oldstyle" unicode="&#xf739;" 
d="M1083 418q0 -257 -13 -364q-33 -264 -176 -373q-119 -89 -323 -89q-130 0 -240 44.5t-171 119.5l63 60q135 -135 348 -135q107 0 181 28t126 94t76.5 177.5t24.5 275.5q0 10 -1 30.5t-1 32.5q-145 -163 -375 -163q-257 0 -369 114.5t-112 354.5q0 123 24.5 213.5t79 159
t149 103t228.5 34.5q101 0 178.5 -21t128 -49t85.5 -87.5t52 -103t26 -130.5t10 -136t1 -151v-39zM979 625q0 225 -89.5 323.5t-287.5 98.5t-287.5 -98.5t-89.5 -323.5q0 -208 89 -294.5t288 -86.5q170 0 273.5 98.5t103.5 282.5z" />
    </font>
</defs>
</svg>
