<?xml version="1.0" standalone="no"?>
<!DOCTYPE svg PUBLIC "-//W3C//DTD SVG 1.1//EN" "http://www.w3.org/Graphics/SVG/1.1/DTD/svg11.dtd" >
<svg xmlns="http://www.w3.org/2000/svg" xmlns:xlink="http://www.w3.org/1999/xlink" version="1.1">
<metadata>
Created by FontForge 20201107 at Mon May 12 18:20:40 2025
 By 
Digitised data (c) 2002 Monotype Imaging, Inc. All Rights Reserved.
</metadata>
<defs>
<font id="ScenePro-Medium" horiz-adv-x="1245" >
  <font-face 
    font-family="Scene Pro Medium"
    font-weight="500"
    font-stretch="normal"
    units-per-em="2048"
    panose-1="2 11 7 4 3 5 4 2 2 4"
    ascent="1638"
    descent="-410"
    x-height="1100"
    cap-height="1477"
    bbox="-160 -559 2648 2056"
    underline-thickness="40"
    underline-position="-271"
    unicode-range="U+0020-FB04"
  />
<missing-glyph horiz-adv-x="1024" 
d="M25 0v1362h972v-1362h-972zM180 1266l332 -498l330 498h-662zM123 1178v-992q0 -1 82.5 123t164.5 249l83 124zM901 1178l-332 -496l332 -498v994zM842 98l-330 496l-332 -496h662z" />
    <glyph glyph-name="f_b" unicode="fb" horiz-adv-x="1986" 
d="M1901 549q0 -304 -129.5 -442t-395.5 -138q-119 0 -226.5 18.5t-229.5 73.5v1360h-320q-91 0 -138.5 -49.5t-47.5 -167.5v-104h346l-41 -178h-305v-922h-215v840q0 50 24 82h-184v178h162v104q0 391 403 391h531v-462q0 -37 -19 -86q69 39 148.5 61t138.5 22
q251 0 374.5 -142.5t123.5 -438.5zM1683 549q0 220 -65.5 312.5t-220.5 92.5q-116 0 -262 -73v-715q99 -35 241 -35q92 0 153 27t94.5 83.5t46.5 129t13 178.5z" />
    <glyph glyph-name="f_f_b" unicode="ffb" horiz-adv-x="2707" 
d="M2621 549q0 -304 -129 -442t-395 -138q-119 0 -227 18.5t-230 73.5v1360h-319q-91 0 -138.5 -49.5t-47.5 -167.5v-104h346l-41 -178h-305v-922h-215v840q0 50 24 82h-530v-922h-215v846q0 18 20 76h-180v178h160v104q0 391 407 391q31 0 67.5 -4.5t61 -9t68 -13.5
t61.5 -12l-39 -170q-127 35 -221 35q-91 0 -140.5 -49.5t-49.5 -167.5v-104h508v104q0 391 403 391h530v-462q0 -40 -18 -86q69 39 148.5 61t138.5 22q250 0 373.5 -142.5t123.5 -438.5zM2404 549q0 220 -65.5 312.5t-220.5 92.5q-117 0 -263 -73v-715q99 -35 242 -35
q92 0 153 27t94.5 83.5t46.5 129t13 178.5z" />
    <glyph glyph-name="f_f_h" unicode="ffh" horiz-adv-x="2703" 
d="M2585 0h-215v698q0 136 -53 197t-138 61q-111 0 -229 -75l-90 -58v-823h-215v1421h-322q-91 0 -138.5 -49.5t-47.5 -167.5v-104h346l-41 -178h-305v-922h-215v840q0 50 24 82h-532v-922h-215v846q0 18 20 76h-180v178h160v104q0 391 407 391q31 0 67.5 -4.5t61 -9
t68 -13.5t61.5 -12l-39 -170q-127 35 -221 35q-91 0 -140.5 -49.5t-49.5 -167.5v-104h510v104q0 391 403 391h533v-510q0 -48 -21 -106l92 63q127 88 275 88q79 0 145.5 -25t119.5 -75.5t83.5 -135.5t30.5 -196v-698z" />
    <glyph glyph-name="f_f_j" unicode="ffj" horiz-adv-x="1968" 
d="M946 922h-532v-922h-215v846q0 18 20 76h-180v178h160v104q0 391 407 391q31 0 67.5 -4.5t61 -9t68 -13.5t61.5 -12l-39 -170q-127 35 -221 35q-91 0 -140.5 -49.5t-49.5 -167.5v-104h510v104q0 90 22 159.5t58 112.5t88 70.5t106 38t117 10.5q109 0 221 -24l-41 -172
q-83 22 -184 22q-174 0 -174 -217v-104h721v-1303q0 -134 -79 -213.5t-243 -79.5h-117v174h117q59 0 82.5 29t23.5 90v1125h-505v-922h-215v848q0 17 3.5 29.5t12 28t8.5 16.5zM1608 1575v-207q0 -12 3.5 -16t12.5 -4h219q17 0 17 20v207q0 20 -17 20h-219q-9 0 -12.5 -4
t-3.5 -16z" />
    <glyph glyph-name="f_f_k" unicode="ffk" horiz-adv-x="2666" 
d="M944 922h-530v-922h-215v846q0 18 20 76h-180v178h160v104q0 391 407 391q31 0 67.5 -4.5t61 -9t68 -13.5t61.5 -12l-39 -170q-127 35 -221 35q-91 0 -140.5 -49.5t-49.5 -167.5v-104h508v104q0 391 403 391h533v-856l454 361h328l-526 -412l534 -688h-274l-394 502
q-7 9 -24 61l-98 -74v-489h-216v1421h-321q-91 0 -138.5 -49.5t-47.5 -167.5v-104h346l-41 -178h-305v-922h-215v840q0 50 24 82z" />
    <glyph glyph-name="f_h" unicode="fh" horiz-adv-x="1980" 
d="M1862 0h-215v698q0 136 -53 197t-138 61q-111 0 -229 -75l-90 -58v-823h-215v1421h-322q-91 0 -138.5 -49.5t-47.5 -167.5v-104h346l-41 -178h-305v-922h-215v840q0 50 24 82h-184v178h162v104q0 391 403 391h533v-510q0 -48 -21 -106l92 63q127 88 275 88
q79 0 145.5 -25t119.5 -75.5t83.5 -135.5t30.5 -196v-698z" />
    <glyph glyph-name="f_j" unicode="fj" 
d="M39 922v178h162v104q0 90 22 159.5t58 112.5t88 70.5t106 38t117 10.5q109 0 221 -24l-41 -172q-83 22 -184 22q-174 0 -174 -217v-104h721v-1303q0 -134 -79 -213.5t-243 -79.5h-117v174h117q59 0 83 29t24 90v1125h-506v-922h-215v848q0 13 2.5 25t5 18.5t8 17
t6.5 13.5h-182zM885 1575v-207q0 -12 3.5 -16t12.5 -4h219q17 0 17 20v207q0 20 -17 20h-219q-9 0 -12.5 -4t-3.5 -16z" />
    <glyph glyph-name="f_k" unicode="fk" horiz-adv-x="1945" 
d="M1927 0h-274l-393 502q-8 11 -25 61l-98 -74v-489h-215v1421h-322q-91 0 -138.5 -49.5t-47.5 -167.5v-104h346l-41 -178h-305v-922h-215v840q0 50 24 82h-184v178h162v104q0 391 403 391h533v-856l454 361h328l-526 -412z" />
    <glyph glyph-name="f_f" unicode="ff" horiz-adv-x="1531" 
d="M1585 1556l-39 -170q-127 35 -221 35q-91 0 -140.5 -49.5t-49.5 -167.5v-104h348l-41 -178h-307v-922h-215v846q0 18 20 76h-526v-922h-215v846q0 18 20 76h-180v178h160v104q0 391 407 391q31 0 67.5 -4.5t61 -9t68 -13.5t61.5 -12l-39 -170q-127 35 -221 35
q-91 0 -140.5 -49.5t-49.5 -167.5v-104h506v104q0 391 407 391q31 0 67.5 -4.5t61 -9t68 -13.5t61.5 -12z" />
    <glyph glyph-name="fi" unicode="fi" 
d="M1135 0h-213v854q0 26 22 68h-530v-922h-215v848q0 13 2.5 25t5 18.5t8 17t6.5 13.5h-182v178h162v104q0 90 22 159.5t58 112.5t88 70.5t106 38t117 10.5q109 0 221 -24l-41 -172q-83 22 -184 22q-174 0 -174 -217v-104h721v-1100zM885 1575v-207q0 -12 3.5 -16t12.5 -4
h219q17 0 17 20v207q0 20 -17 20h-219q-9 0 -12.5 -4t-3.5 -16z" />
    <glyph glyph-name="fl" unicode="fl" horiz-adv-x="1347" 
d="M1296 -16h-129q-127 0 -186 61.5t-59 206.5v1169h-322q-91 0 -138.5 -49.5t-47.5 -167.5v-104h346l-41 -178h-305v-922h-215v840q0 50 24 82h-184v178h162v104q0 391 403 391h531v-1343q0 -52 14 -68t43 -16h104v-184z" />
    <glyph glyph-name="f_f_i" unicode="ffi" horiz-adv-x="1968" 
d="M1858 0h-213v854q0 26 22 68h-530v-922h-215v848q0 13 2.5 25t5 18.5t8 17t6.5 13.5h-530v-922h-215v846q0 18 20 76h-180v178h160v104q0 391 407 391q31 0 67.5 -4.5t61 -9t68 -13.5t61.5 -12l-39 -170q-127 35 -221 35q-91 0 -140.5 -49.5t-49.5 -167.5v-104h510v104
q0 90 22 159.5t58 112.5t88 70.5t106 38t117 10.5q109 0 221 -24l-41 -172q-83 22 -184 22q-174 0 -174 -217v-104h721v-1100zM1608 1575v-207q0 -12 3.5 -16t12.5 -4h219q17 0 17 20v207q0 20 -17 20h-219q-9 0 -12.5 -4t-3.5 -16z" />
    <glyph glyph-name="f_f_l" unicode="ffl" horiz-adv-x="2068" 
d="M2017 -16h-129q-127 0 -186.5 61.5t-59.5 206.5v1169h-321q-91 0 -138.5 -49.5t-47.5 -167.5v-104h346l-41 -178h-305v-922h-215v840q0 50 24 82h-530v-922h-215v846q0 18 20 76h-180v178h160v104q0 391 407 391q31 0 67.5 -4.5t61 -9t68 -13.5t61.5 -12l-39 -170
q-127 35 -221 35q-91 0 -140.5 -49.5t-49.5 -167.5v-104h508v104q0 391 403 391h530v-1343q0 -52 14.5 -68t43.5 -16h104v-184z" />
    <glyph glyph-name=".notdef" horiz-adv-x="1024" 
d="M25 0v1362h972v-1362h-972zM180 1266l332 -498l330 498h-662zM123 1178v-992q0 -1 82.5 123t164.5 249l83 124zM901 1178l-332 -496l332 -498v994zM842 98l-330 496l-332 -496h662z" />
    <glyph glyph-name=".null" horiz-adv-x="0" 
 />
    <glyph glyph-name="nonmarkingreturn" horiz-adv-x="682" 
 />
    <glyph glyph-name="space" unicode=" " horiz-adv-x="507" 
 />
    <glyph glyph-name="exclam" unicode="!" horiz-adv-x="534" 
d="M379 797l-33 -426h-158l-30 426v798h221v-798zM401 23q0 -16 -3.5 -19.5t-16.5 -3.5h-227q-15 0 -18 3t-3 20v221q0 18 3 21t18 3h227q15 0 17.5 -3t2.5 -21v-221z" />
    <glyph glyph-name="quotedbl" unicode="&#x22;" horiz-adv-x="833" 
d="M721 1477l-72 -469q-3 -21 -8 -30t-16 -9h-103q-24 0 -24 39v469h223zM393 1477l-71 -469q-6 -39 -25 -39h-102q-25 0 -25 39v469h223z" />
    <glyph glyph-name="numbersign" unicode="#" horiz-adv-x="1171" 
d="M1102 467h-287l-53 -387h-156l53 387h-253l-54 -387h-155l51 387h-178v149h200l37 254h-237v150h256l55 385h156l-54 -385h254l54 385h155l-53 -385h209v-150h-228l-36 -254h264v-149zM717 870h-252l-39 -254h254z" />
    <glyph glyph-name="dollar" unicode="$" 
d="M1083 504q0 -139 -99.5 -243t-281.5 -132v-272h-167v268q-100 8 -173.5 39.5t-116.5 81t-63 111t-20 137.5h200q0 -47 10 -81.5t35.5 -63.5t73.5 -43.5t119 -14.5q75 0 130.5 19t85 51t43 67.5t13.5 75.5q0 76 -26.5 116.5t-91.5 49.5l-297 43q-277 40 -277 336
q0 59 20.5 113t61.5 100.5t111 79t162 42.5v220h167v-220q76 -8 135 -31.5t98 -57t64.5 -78t36.5 -93.5t11 -106h-199q0 49 -9.5 82.5t-34 60.5t-70.5 40t-116 13q-131 0 -181 -43t-50 -122q0 -69 27 -100.5t86 -39.5l295 -43q288 -43 288 -362z" />
    <glyph glyph-name="percent" unicode="%" horiz-adv-x="1908" 
d="M1536 1509l-1004 -1540h-170l1004 1540h170zM735 1065q0 -83 -6 -144.5t-24.5 -124t-50.5 -102t-87.5 -64t-132.5 -24.5t-132.5 24.5t-87.5 64t-50.5 102t-24.5 124t-6 144.5q0 79 6.5 140t26 119.5t52.5 96.5t87.5 61t128.5 23t128 -23t87 -61t52.5 -96.5t26.5 -119.5
t7 -140zM578 1065q0 166 -27.5 234.5t-116.5 68.5q-38 0 -64.5 -13t-42.5 -35t-24.5 -62t-11 -83.5t-2.5 -109.5q0 -70 2.5 -115.5t11 -88.5t24.5 -66.5t42.5 -37.5t64.5 -14t64 14t41.5 38t24 66.5t11.5 88.5t3 115zM1776 426q0 -83 -6 -144.5t-24.5 -124t-50.5 -102
t-87.5 -64t-132.5 -24.5t-132.5 24.5t-87.5 64t-50.5 102t-24.5 124t-6 144.5q0 79 6.5 140t26 119.5t52.5 96.5t87.5 61t128.5 23t128 -23t87 -61t52.5 -96.5t26.5 -119.5t7 -140zM1618 426q0 166 -27 234.5t-116 68.5q-38 0 -64.5 -13t-42.5 -35t-24.5 -62t-11.5 -83.5
t-3 -109.5q0 -69 3 -115t11.5 -88.5t24.5 -66.5t42.5 -38t64.5 -14t64 14t41.5 38t24 66.5t11 88t2.5 115.5z" />
    <glyph glyph-name="ampersand" unicode="&#x26;" horiz-adv-x="1339" 
d="M1366 18l-238 -49l-163 168q-165 -168 -392 -168q-66 0 -128 9.5t-121.5 29.5t-108.5 54.5t-86.5 80.5t-58.5 111.5t-21 144.5v58q0 137 65 223t187 143l-18 21q-105 117 -105 282v35q0 87 33.5 155t91 109.5t128.5 62.5t151 21q79 0 149.5 -21.5t127 -63t89.5 -109.5
t33 -154v-35q0 -219 -223 -319l-111 -49l293 -301q33 87 33 219v106h198v-106q0 -207 -88 -369zM778 1126v35q0 37 -7 63t-26.5 50t-60.5 36.5t-102 12.5q-62 0 -103.5 -12.5t-62 -36.5t-28 -50t-7.5 -63v-35q0 -93 63 -159l56 -60l153 68q68 30 96.5 65.5t28.5 85.5z
M831 272l-387 398q-68 -31 -102.5 -55.5t-54 -62t-19.5 -95.5v-58q0 -117 77.5 -178t227.5 -61q155 0 258 112z" />
    <glyph glyph-name="quotesingle" unicode="'" horiz-adv-x="438" 
d="M328 1477l-80 -480q-3 -18 -9 -23t-24 -5h-72q-15 0 -19.5 5t-4.5 23v480h209z" />
    <glyph glyph-name="parenleft" unicode="(" horiz-adv-x="653" 
d="M621 -336q-72 0 -132.5 20t-105.5 53.5t-81.5 85t-61 106.5t-42.5 127t-28 136.5t-16 145.5t-7.5 144t-1.5 141t1.5 141t7.5 144t16 145.5t28 136.5t42.5 126.5t61 106t81.5 85t105.5 53.5t132.5 20v-184q-104 0 -157.5 -59.5t-78.5 -180.5q-11 -50 -17.5 -101t-9 -116.5
t-3 -98t0 -116.5t0.5 -102t-0.5 -102t0 -117t3 -98.5t9 -116.5t17.5 -101q25 -121 78.5 -180.5t157.5 -59.5v-184z" />
    <glyph glyph-name="parenright" unicode=")" horiz-adv-x="653" 
d="M508 623q0 -78 -1.5 -141t-7.5 -144t-16 -145.5t-28 -136.5t-42 -127t-60.5 -106.5t-81.5 -85t-105.5 -53.5t-132.5 -20v184q104 0 157 59.5t78 180.5q11 50 17.5 101t9 116.5t3 98.5t0 117t-0.5 102t0.5 102t0 116.5t-3 98t-9 116.5t-17.5 101q-25 121 -78 180.5
t-157 59.5v184q72 0 132.5 -20t105.5 -53.5t81.5 -85t60.5 -106t42 -126.5t28 -136.5t16 -145.5t7.5 -144t1.5 -141z" />
    <glyph glyph-name="asterisk" unicode="*" horiz-adv-x="743" 
d="M696 1184q6 -17 4 -22t-14 -7l-240 -45l170 -180q8 -8 7 -14.5t-15 -16.5l-102 -74q-15 -10 -20 -9.5t-11 11.5l-117 211l-118 -215q-6 -11 -12 -11.5t-21 9.5l-101 74q-14 10 -15 16.5t7 14.5l166 176l-241 47q-13 3 -15.5 8.5t2.5 22.5l39 118q6 16 11.5 19t15.5 -2
l219 -103l-31 244q-2 13 2.5 17t22.5 4h125q18 0 22 -4t2 -17l-28 -239l221 104q10 5 15 2t11 -20z" />
    <glyph glyph-name="plus" unicode="+" 
d="M1202 643h-483v-485h-191v485h-485v188h485v486h191v-486h483v-188z" />
    <glyph glyph-name="comma" unicode="," horiz-adv-x="487" 
d="M375 25q0 -102 -61.5 -201t-168.5 -176l-86 80q79 78 107.5 132.5t28.5 141.5h-68q-15 0 -18 3t-3 20v219q0 18 3 21t18 3h227q15 0 18 -3t3 -21v-219z" />
    <glyph glyph-name="hyphen" unicode="-" horiz-adv-x="684" 
d="M631 506h-578v196h578v-196z" />
    <glyph glyph-name="period" unicode="." horiz-adv-x="487" 
d="M379 23q0 -16 -4 -19.5t-17 -3.5h-227q-15 0 -17.5 3t-2.5 20v221q0 18 2 21t16 3h227q16 0 19.5 -3t3.5 -21v-221z" />
    <glyph glyph-name="slash" unicode="/" horiz-adv-x="940" 
d="M897 1509l-684 -1540h-170l684 1540h170z" />
    <glyph glyph-name="zero" unicode="0" 
d="M1128 756q0 -100 -4.5 -179t-18 -163.5t-36.5 -147.5t-61 -121.5t-90.5 -95t-127 -58.5t-167.5 -22t-167.5 22t-127 58.5t-91 95t-61.5 121.5t-36.5 147.5t-18 163.5t-4.5 179q0 95 5.5 173.5t20.5 158t39 141t63 115.5t91 89.5t124.5 55.5t162.5 20t162 -20t124.5 -55.5
t91 -89.5t63 -115.5t39 -141t20 -158t5.5 -173.5zM909 756q0 103 -3.5 173.5t-14 139.5t-30 111.5t-51 76.5t-78 49t-109.5 15t-109.5 -15t-78 -48.5t-51 -76.5t-30.5 -111.5t-14.5 -139.5t-3.5 -174q0 -107 3.5 -181.5t14 -147.5t30.5 -119t51.5 -82.5t78 -53t109.5 -16.5
q54 0 96 13t72 36.5t51 63.5t34 85t20.5 111.5t10 133t2.5 157.5z" />
    <glyph glyph-name="one" unicode="1" 
d="M1024 0h-799v195h291v1003q0 48 14 76l-307 -60v191l508 102v-1312h293v-195z" />
    <glyph glyph-name="two" unicode="2" 
d="M1108 1081q0 -80 -27 -151t-71.5 -125t-103.5 -106.5t-121.5 -94.5t-128 -90.5t-121 -93.5t-101 -103.5t-67.5 -121.5h534v211h203v-406h-983q0 109 26.5 204t71 165.5t102 132t121.5 110t128 93t121.5 87t102 85t71 94.5t26.5 110q0 117 -62.5 178.5t-173.5 61.5
q-86 0 -146 -18.5t-94 -55t-50.5 -77.5t-24.5 -99h-201q4 66 21.5 125.5t56 118t94.5 100.5t144.5 68t199.5 26q196 0 324.5 -114.5t128.5 -313.5z" />
    <glyph glyph-name="three" unicode="3" 
d="M1141 442q0 -231 -143 -352t-380 -121q-201 0 -329 69t-213 230l168 80q63 -117 146 -160t228 -43q152 0 229 78t77 219q0 116 -70.5 182t-194.5 66h-237l-53 184h290q106 0 171 61t65 175q0 106 -60 161.5t-196 55.5q-147 0 -230 -40.5t-145 -156.5l-168 80
q85 160 214.5 229.5t330.5 69.5q128 0 222 -32t147.5 -88.5t78.5 -125.5t25 -153q0 -209 -176 -317q97 -44 150 -138t53 -213z" />
    <glyph glyph-name="four" unicode="4" 
d="M1200 381h-158v-381h-215v381h-747v186l751 910h211v-897h158v-199zM844 1165l-486 -585h469v503q0 33 17 82z" />
    <glyph glyph-name="five" unicode="5" 
d="M1147 465q0 -227 -130.5 -361.5t-387.5 -134.5q-201 0 -329.5 69t-213.5 230l168 80q63 -116 146 -158.5t229 -42.5q159 0 230 81t71 237q0 92 -26 154.5t-75 94.5t-104.5 45t-128.5 13q-84 0 -187 -13t-180 -38l-75 61l79 695h879l-53 -187h-651l-46 -368q86 24 263 24
q93 0 170 -16t143.5 -52t112 -91t71 -136.5t25.5 -185.5z" />
    <glyph glyph-name="six" unicode="6" 
d="M1137 498q0 -122 -26.5 -215.5t-85 -165.5t-159.5 -110t-241 -38t-241 38t-159.5 110t-85 165.5t-26.5 215.5q0 41 -1 127q-4 76 -1.5 155t5 155.5t18 148.5t38 136t64.5 117t97.5 91.5t136.5 59.5t183 21q313 0 453 -206l-143 -132q-66 75 -133 112.5t-177 37.5
q-83 0 -138.5 -19t-96.5 -67t-61 -131.5t-23 -210.5q119 96 291 96q512 0 512 -491zM920 498q0 166 -67.5 236.5t-227.5 70.5q-295 0 -295 -307q0 -188 67.5 -265t227.5 -77q158 0 226.5 77.5t68.5 264.5z" />
    <glyph glyph-name="seven" unicode="7" 
d="M1145 1303l-688 -1303h-248l645 1214q17 33 55 68h-571v-211h-203v406h1010v-174z" />
    <glyph glyph-name="eight" unicode="8" 
d="M1147 442q0 -473 -510 -473q-512 0 -512 473q0 238 180 340q-160 92 -160 310q0 202 124.5 309.5t365.5 107.5t366 -107.5t125 -309.5q0 -219 -159 -310q180 -102 180 -340zM911 1092q0 69 -19 115t-57 70.5t-85.5 34t-114.5 9.5t-114.5 -9.5t-85.5 -34t-56.5 -70.5
t-18.5 -115q0 -111 54.5 -165.5t128.5 -54.5h186q74 0 128 54.5t54 165.5zM930 442q0 104 -56 175t-155 71h-166q-99 0 -155 -71t-56 -175q0 -160 68 -223t225 -63q158 0 226.5 63.5t68.5 222.5z" />
    <glyph glyph-name="nine" unicode="9" 
d="M1130 981q0 -41 1 -127q4 -76 1.5 -155t-5 -155.5t-18 -149t-38 -136.5t-64.5 -117t-97.5 -91t-136.5 -59.5t-183 -21.5q-312 0 -453 207l142 129q65 -74 133 -111.5t178 -37.5t176 36t102.5 131t40.5 263q-120 -97 -291 -97q-512 0 -512 492q0 122 26.5 215.5t85 165
t159.5 109.5t241 38t241 -38t159.5 -109.5t85 -165t26.5 -215.5zM913 981q0 187 -67.5 263.5t-227.5 76.5q-159 0 -226.5 -76.5t-67.5 -263.5q0 -166 67.5 -236.5t226.5 -70.5q295 0 295 307z" />
    <glyph glyph-name="colon" unicode=":" horiz-adv-x="487" 
d="M379 854q0 -16 -4 -19.5t-17 -3.5h-227q-15 0 -17.5 3t-2.5 20v221q0 19 2.5 22t15.5 3h227q16 0 19.5 -3.5t3.5 -21.5v-221zM379 23q0 -16 -4 -19.5t-17 -3.5h-227q-15 0 -17.5 3t-2.5 20v221q0 18 2 21t16 3h227q16 0 19.5 -3t3.5 -21v-221z" />
    <glyph glyph-name="semicolon" unicode=";" horiz-adv-x="487" 
d="M373 854q0 -16 -4 -19.5t-17 -3.5h-227q-15 0 -18 3t-3 20v221q0 18 3 21.5t18 3.5h227q15 0 18 -3.5t3 -21.5v-221zM373 29q0 -101 -65.5 -195.5t-170.5 -152.5l-78 63q69 67 103.5 125t34.5 131h-76q-12 0 -14.5 2.5t-2.5 15.5v230q0 15 2.5 17.5t14.5 2.5h235
q12 0 14.5 -2.5t2.5 -17.5v-219z" />
    <glyph glyph-name="less" unicode="&#x3c;" 
d="M1028 164h-250l-577 573l577 574h250l-577 -574z" />
    <glyph glyph-name="equal" unicode="=" 
d="M1130 887h-1015v196h1015v-196zM1130 395h-1015v197h1015v-197z" />
    <glyph glyph-name="greater" unicode="&#x3e;" 
d="M1044 737l-577 -573h-250l578 573l-578 574h250z" />
    <glyph glyph-name="question" unicode="?" horiz-adv-x="1075" 
d="M995 1171q0 -56 -13.5 -106t-30.5 -83.5t-49.5 -70.5t-54 -56.5t-61.5 -51.5q-91 -73 -121 -109q-67 -78 -67 -174v-141h-217v141q0 58 12.5 109.5t30.5 88t48.5 74t54.5 60t61 53.5q8 7 42.5 35t46 38.5t37 37t35.5 46t19.5 49t9.5 60.5q0 132 -47 200.5t-172 68.5
q-151 0 -211.5 -65.5t-62.5 -198.5h-205q0 52 5.5 96t19 91.5t35.5 85t59 72.5t86 58t118.5 37t155.5 14q436 0 436 -459zM623 23q0 -16 -4 -19.5t-17 -3.5h-227q-15 0 -18 3t-3 20v221q0 18 3 21t18 3h227q15 0 18 -3t3 -21v-221z" />
    <glyph glyph-name="at" unicode="@" horiz-adv-x="1918" 
d="M1790 643q0 -115 -32.5 -220t-92 -186.5t-151.5 -130.5t-203 -49h-172l-19 144q-193 -170 -366 -170q-124 0 -197.5 82.5t-73.5 263.5q0 160 42.5 283t120.5 199.5t182 115.5t231 39q136 0 272 -39q31 -63 31 -193q0 -44 -4 -67l-70 -502h41q95 0 163.5 62t100 157.5
t31.5 210.5q0 139 -48.5 249t-133 179t-194.5 105t-236 36q-109 0 -212 -27.5t-195.5 -85.5t-161.5 -141t-109.5 -202t-40.5 -260q0 -104 22 -200t69.5 -182.5t116 -150.5t169 -101.5t221.5 -37.5q85 0 195 24.5t212 79.5l76 -112q-265 -121 -483 -121q-149 0 -275.5 44.5
t-214.5 121t-150.5 179t-92 218t-29.5 238.5q0 162 45.5 300.5t127.5 240.5t192.5 174.5t242 108.5t275.5 36q167 0 309 -47t246.5 -135.5t163.5 -224.5t59 -306zM1171 782q0 39 -4 66q-75 10 -116 10q-194 0 -279.5 -123t-85.5 -358q0 -180 107 -180q45 0 89.5 14.5
t90 44.5t74.5 52.5t75 62.5l47 360q2 16 2 51z" />
    <glyph glyph-name="A" unicode="A" horiz-adv-x="1368" 
d="M1348 0h-228l-164 436h-550l-164 -436h-222l551 1477h228zM887 627l-182 495q-10 25 -23 101q-11 -65 -23 -99l-182 -497h410z" />
    <glyph glyph-name="B" unicode="B" horiz-adv-x="1290" 
d="M1221 451q0 -228 -143.5 -339.5t-405.5 -111.5h-531v1477h531q481 0 481 -396q0 -105 -46.5 -180t-125.5 -108q100 -29 170 -117t70 -225zM936 1081q0 119 -65 164t-199 45h-316v-420h338q109 0 175.5 50.5t66.5 160.5zM1006 451q0 55 -20 97t-51 66.5t-74 40.5t-83 21.5
t-84 5.5h-338v-496h316q187 0 260.5 64.5t73.5 200.5z" />
    <glyph glyph-name="C" unicode="C" horiz-adv-x="1292" 
d="M1221 295q-144 -328 -525 -328q-147 0 -257.5 41t-177.5 109.5t-108.5 170.5t-57 209.5t-15.5 241.5q0 146 18 261t61 212.5t111 161.5t171.5 99.5t240.5 35.5q107 0 193.5 -24.5t144.5 -65.5t98.5 -98.5t60 -119t23.5 -130.5h-201q-33 250 -321 250q-72 0 -128 -14.5
t-96 -39t-68.5 -65.5t-45.5 -85.5t-27 -108.5t-13 -125t-3 -144q0 -74 3.5 -132.5t14 -121t28.5 -109.5t48 -90t71 -70.5t100 -43.5t132 -16q127 0 211.5 57.5t141.5 185.5z" />
    <glyph glyph-name="D" unicode="D" horiz-adv-x="1359" 
d="M1280 756q0 -128 -24 -238.5t-79 -207t-137.5 -164.5t-206 -107t-278.5 -39h-434v1477h434q152 0 274 -35.5t205.5 -99.5t139 -154.5t81 -198t25.5 -233.5zM1061 756q0 271 -124.5 402.5t-381.5 131.5h-219v-1104h219q257 0 381.5 142t124.5 428z" />
    <glyph glyph-name="E" unicode="E" horiz-adv-x="1165" 
d="M1085 0h-964v1477h962v-195h-747v-405h676l-56 -199h-634q14 -37 14 -64v-419h749v-195z" />
    <glyph glyph-name="F" unicode="F" horiz-adv-x="1153" 
d="M1071 1477l-55 -195h-680v-424h602v-199h-614q12 -30 12 -57v-602h-215v1477h950z" />
    <glyph glyph-name="G" unicode="G" horiz-adv-x="1363" 
d="M1243 174q-58 -48 -104.5 -79.5t-111.5 -63t-141.5 -47t-166.5 -15.5q-334 0 -486.5 196.5t-152.5 573.5q0 137 19.5 249.5t65.5 211t118 165.5t182 105.5t252 38.5q132 0 233.5 -36.5t161.5 -99.5t91.5 -138.5t37.5 -163.5h-201q-33 250 -323 250q-100 0 -174 -27
t-120.5 -74t-74.5 -122t-38.5 -160t-10.5 -199q0 -108 10.5 -190.5t38 -159t74 -126t121.5 -78.5t176 -29t169.5 22.5t139.5 69.5v297q0 10 10 43h-321l-55 196h581v-610z" />
    <glyph glyph-name="H" unicode="H" horiz-adv-x="1423" 
d="M1303 0h-216v680h-751v-680h-215v1477h215v-598h751v598h216v-1477z" />
    <glyph glyph-name="I" unicode="I" horiz-adv-x="454" 
d="M334 0h-213v1477h213v-1477z" />
    <glyph glyph-name="J" unicode="J" horiz-adv-x="876" 
d="M756 436q0 -249 -111 -358t-317 -109q-90 0 -161.5 25t-150.5 90l103 147q101 -81 207 -81q121 0 168 63t47 223v1041h215v-1041z" />
    <glyph glyph-name="K" unicode="K" horiz-adv-x="1314" 
d="M1321 1477l-676 -639l660 -838h-273l-520 655q-9 11 -18 39l-158 -155v-539h-215v1477h215v-658l686 658h299z" />
    <glyph glyph-name="L" unicode="L" horiz-adv-x="1046" 
d="M977 0h-856v1477h215v-1282h641v-195z" />
    <glyph glyph-name="M" unicode="M" horiz-adv-x="1658" 
d="M1550 0h-207l-73 967q-2 14 -2 45q0 11 1.5 29t2.5 44l-346 -747h-193l-348 752q0 -14 3 -36t3 -42v-41l-76 -971h-206l108 1477h203l385 -832q16 -37 24 -100q2 7 5.5 28t8.5 40.5t11 33.5l385 830h203z" />
    <glyph glyph-name="N" unicode="N" horiz-adv-x="1447" 
d="M1327 0h-192l-811 1112q12 -60 12 -84v-1028h-215v1477h192l811 -1112q-1 6 -4 22.5t-5.5 34.5t-2.5 33v1022h215v-1477z" />
    <glyph glyph-name="O" unicode="O" horiz-adv-x="1398" 
d="M1319 756q0 -144 -16.5 -257t-59 -215t-112 -169.5t-179 -106.5t-256.5 -39q-146 0 -255.5 39.5t-177.5 106.5t-110 170t-57.5 215t-15.5 256q0 107 11 197t37 178t72.5 154.5t113 118t163.5 78.5t219 27q146 0 256.5 -40t179 -107t111.5 -166t59.5 -205t16.5 -235z
M1100 756q0 114 -11.5 200t-40 157t-74.5 115.5t-115 68.5t-163 24q-117 0 -195 -35.5t-122 -110t-62 -174.5t-18 -245q0 -160 18 -267t63 -184.5t122 -113t194 -35.5t195 35.5t124.5 112.5t65.5 185t19 267z" />
    <glyph glyph-name="P" unicode="P" horiz-adv-x="1226" 
d="M1147 1006q0 -99 -31 -182t-94 -148t-168 -101t-244 -36h-286q12 -24 12 -52v-487h-215v1477h489q137 0 242 -36.5t168.5 -102t95 -149t31.5 -183.5zM928 1006q0 140 -81.5 212t-236.5 72h-274v-565h274q159 0 238.5 67.5t79.5 213.5z" />
    <glyph glyph-name="Q" unicode="Q" horiz-adv-x="1380" 
d="M1325 -117l-86 -182l-752 272q-99 36 -171.5 92t-117.5 124t-71.5 160t-36.5 186.5t-10 216.5q0 108 11 198.5t37 178.5t72.5 155t113 119t163.5 79t219 27q146 0 256.5 -40.5t179 -108t111.5 -167t59.5 -205.5t16.5 -236q0 -137 -15.5 -247t-53 -212.5t-109 -177
t-174.5 -115.5q43 0 88 -18zM1100 752q0 144 -19 245.5t-64.5 176.5t-124.5 111t-196 36q-94 0 -162.5 -24t-113.5 -68.5t-72 -116.5t-38 -158t-11 -202q0 -160 18 -268t63 -185.5t122 -113t194 -35.5t195 35.5t124.5 112.5t65.5 186t19 268z" />
    <glyph glyph-name="R" unicode="R" horiz-adv-x="1247" 
d="M1192 0h-260l-346 530q-19 26 -25 72h-225v-602h-215v1477h475q270 0 402 -119.5t132 -323.5q0 -330 -342 -413zM911 1034q0 256 -313 256h-262v-499h260q163 0 239 55t76 188z" />
    <glyph glyph-name="S" unicode="S" horiz-adv-x="1243" 
d="M1171 426q0 -98 -33.5 -180t-100 -145t-176.5 -98.5t-253 -35.5q-200 0 -333 78.5t-199 218.5l180 92q109 -198 352 -198q181 0 261.5 74t80.5 194q0 95 -46.5 150t-153.5 73l-312 53q-336 57 -336 402q0 84 27.5 154t85.5 128t161 90.5t242 32.5q110 0 198 -21.5
t146.5 -61t95 -79.5t66.5 -92l-182 -92q-98 158 -324 158q-163 0 -231 -56t-68 -161q0 -93 37.5 -136.5t130.5 -58.5l308 -51q180 -30 278 -137.5t98 -294.5z" />
    <glyph glyph-name="T" unicode="T" horiz-adv-x="1220" 
d="M1161 1290h-442v-1290h-215v1290h-445v187h1102v-187z" />
    <glyph glyph-name="U" unicode="U" horiz-adv-x="1417" 
d="M1307 610q0 -168 -43.5 -293t-125 -200t-189 -111.5t-242.5 -36.5t-242 36t-187.5 111.5t-123.5 200.5t-43 293v867h215v-867q0 -240 94.5 -347t286.5 -107q193 0 289 107t96 347v867h215v-867z" />
    <glyph glyph-name="V" unicode="V" horiz-adv-x="1380" 
d="M1354 1477l-551 -1477h-228l-548 1477h227l405 -1094q27 -79 35 -131q11 73 31 131l408 1094h221z" />
    <glyph glyph-name="W" unicode="W" horiz-adv-x="1781" 
d="M1751 1477l-350 -1477h-242l-270 1026l-268 -1026h-240l-350 1477h221l240 -1008q11 -49 20 -158q10 108 23 158l251 963h209l254 -986q14 -55 19 -147q4 79 18 147l244 1031h221z" />
    <glyph glyph-name="X" unicode="X" horiz-adv-x="1343" 
d="M1331 0h-262l-362 537q-20 30 -29 71q-9 -40 -31 -73l-375 -535h-262l543 766l-477 711h262l321 -486q20 -31 29 -69q2 5 5.5 16t5.5 17.5t7 16.5t11 19l336 486h266l-500 -715z" />
    <glyph glyph-name="Y" unicode="Y" horiz-adv-x="1312" 
d="M1296 1477l-530 -881v-596h-215v596l-535 881h240l377 -623q16 -24 24 -78q13 58 27 82l375 619h237z" />
    <glyph glyph-name="Z" unicode="Z" horiz-adv-x="1179" 
d="M1100 1303l-713 -1055q-21 -34 -55 -53h751v-195h-1003v172l711 1053q22 32 57 57h-711l-57 195h1020v-174z" />
    <glyph glyph-name="bracketleft" unicode="[" horiz-adv-x="665" 
d="M627 -334h-455v1913h455v-145l-250 -19v-1583l250 -18v-148z" />
    <glyph glyph-name="backslash" unicode="\" horiz-adv-x="940" 
d="M897 -31h-170l-684 1540h170z" />
    <glyph glyph-name="bracketright" unicode="]" horiz-adv-x="665" 
d="M494 -334h-455v148l250 18v1583l-250 19v145h455v-1913z" />
    <glyph glyph-name="asciicircum" unicode="^" 
d="M1024 1036l-113 -98l-288 342l-289 -342l-113 98l326 432q32 41 76 41q43 0 75 -41z" />
    <glyph glyph-name="underscore" unicode="_" horiz-adv-x="1040" 
d="M1073 -291h-1106v158h1106v-158z" />
    <glyph glyph-name="grave" unicode="`" horiz-adv-x="710" 
d="M121 1493l147 143l312 -325q14 -15 0 -29l-64 -57q-14 -14 -39 4z" />
    <glyph glyph-name="a" unicode="a" horiz-adv-x="1128" 
d="M997 0h-176l-22 80q-167 -111 -346 -111q-195 0 -292.5 100.5t-97.5 270.5q0 352 420 352q141 0 299 -35v142q0 80 -47 118.5t-155 38.5q-100 0 -173 -29.5t-124 -103.5l-162 95q123 212 463 212q102 0 178 -20t120 -51t70.5 -76.5t35.5 -89t9 -96.5v-797zM782 252v246
q-173 26 -256 26q-245 0 -245 -184q0 -193 172 -193q96 0 169 24.5t160 80.5z" />
    <glyph glyph-name="b" unicode="b" horiz-adv-x="1198" 
d="M1112 549q0 -304 -129 -442t-395 -138q-119 0 -227 18.5t-230 73.5v1534h215v-462q0 -40 -18 -86q69 39 148 61t138 22q251 0 374.5 -142.5t123.5 -438.5zM895 549q0 220 -66 312.5t-221 92.5q-116 0 -262 -73v-715q99 -35 242 -35q92 0 153 27t94.5 83.5t46.5 129
t13 178.5z" />
    <glyph glyph-name="c" unicode="c" horiz-adv-x="1101" 
d="M1049 199q-86 -123 -184.5 -176.5t-243.5 -53.5q-144 0 -246 39.5t-162.5 116.5t-87.5 181t-27 243t27 243t87.5 181.5t162.5 117t246 39.5q142 0 246 -55t182 -176l-168 -86q-25 33 -44 53t-50 42.5t-72 33t-94 10.5q-165 0 -235.5 -89t-70.5 -314t70 -313.5t236 -88.5
q61 0 112 22t79 49t60 69z" />
    <glyph glyph-name="d" unicode="d" horiz-adv-x="1200" 
d="M1069 0h-149l-31 80q-145 -111 -307 -111q-496 0 -496 580q0 293 123.5 437t372.5 144q73 0 151 -20.5t139 -60.5q-2 9 -6.5 22.5t-6.5 20t-3.5 18t-1.5 25.5v460h215v-1595zM854 236v649q-117 67 -272 67q-99 0 -158.5 -35.5t-91 -124.5t-31.5 -243q0 -76 6.5 -133.5
t24.5 -111.5t49 -88t81.5 -54.5t119.5 -20.5q76 0 139.5 24.5t132.5 70.5z" />
    <glyph glyph-name="e" unicode="e" horiz-adv-x="1179" 
d="M1094 483h-793q3 -177 71 -256.5t232 -79.5q109 0 180 37.5t115 122.5l182 -69q-68 -139 -181 -204t-296 -65q-268 0 -393 141t-125 441q0 140 26 243t84.5 180.5t160.5 116.5t247 39q88 0 160.5 -19.5t122.5 -52.5t88 -80t60 -97t36 -110t18.5 -111.5t4.5 -108.5v-68z
M866 657q-3 136 -66.5 215.5t-195.5 79.5q-152 0 -221.5 -65t-79.5 -230h563z" />
    <glyph glyph-name="f" unicode="f" horiz-adv-x="811" 
d="M864 1556l-39 -170q-127 35 -221 35q-91 0 -140.5 -49.5t-49.5 -167.5v-104h348l-41 -178h-307v-922h-215v846q0 18 20 76h-180v178h160v104q0 391 407 391q31 0 67.5 -4.5t61 -9t68 -13.5t61.5 -12z" />
    <glyph glyph-name="g" unicode="g" horiz-adv-x="1214" 
d="M1186 1130l-37 -198h-55q-50 0 -115 33q80 -104 80 -230q0 -201 -118 -294t-345 -93q-46 0 -154 17q-40 8 -63 8q-68 0 -68 -64q0 -32 19.5 -45t58.5 -20l436 -78q91 -17 152.5 -45t95 -69t47 -87.5t13.5 -109.5q0 -93 -39 -161.5t-112.5 -109.5t-170 -60.5t-219.5 -19.5
q-56 0 -103 3t-104.5 12.5t-102.5 26t-89.5 46t-74 69t-47.5 98t-18 130.5q0 164 150 287q-58 45 -58 133q0 45 26 82t69 58q-109 119 -109 286q0 105 38 183t104.5 123.5t147 67t175.5 21.5q170 0 281 -57l157 57h152zM840 735q0 109 -60.5 167.5t-183.5 58.5
q-122 0 -184 -55t-62 -171q0 -117 64 -166t182 -49q133 0 188.5 45t55.5 170zM915 -145q0 130 -120 153l-447 82q-78 -55 -78 -201q0 -114 75.5 -168.5t246.5 -54.5q176 0 249.5 47t73.5 142z" />
    <glyph glyph-name="h" unicode="h" horiz-adv-x="1187" 
d="M1069 0h-215v698q0 137 -52.5 197.5t-137.5 60.5q-112 0 -230 -75l-90 -58v-823h-215v1595h215v-510q0 -51 -20 -106l92 63q127 88 248 88q183 0 294 -106.5t111 -325.5v-698z" />
    <glyph glyph-name="i" unicode="i" horiz-adv-x="471" 
d="M111 1575v-207q0 -12 3.5 -16t12.5 -4h219q9 0 12.5 4t3.5 16v207q0 12 -3.5 16t-12.5 4h-219q-9 0 -12.5 -4t-3.5 -16zM342 0h-213v1100h213v-1100z" />
    <glyph glyph-name="j" unicode="j" horiz-adv-x="471" 
d="M342 -203q0 -134 -77.5 -213.5t-241.5 -79.5h-117v174h117q59 0 82.5 29t23.5 90v1303h213v-1303zM111 1575v-207q0 -12 3.5 -16t12.5 -4h219q9 0 12.5 4t3.5 16v207q0 12 -3.5 16t-12.5 4h-219q-9 0 -12.5 -4t-3.5 -16z" />
    <glyph glyph-name="k" unicode="k" horiz-adv-x="1155" 
d="M1137 0h-275l-393 502q-8 11 -25 61l-98 -74v-489h-215v1595h215v-856l455 361h327l-526 -412z" />
    <glyph glyph-name="l" unicode="l" horiz-adv-x="579" 
d="M528 -18h-153q-126 0 -186 68t-60 208v1337h215v-1337q0 -53 13 -69.5t42 -16.5h129v-190z" />
    <glyph glyph-name="m" unicode="m" horiz-adv-x="1787" 
d="M1669 0h-215v717q0 121 -33 180t-112 59q-83 0 -152 -33t-156 -98q7 -54 7 -108v-717h-215v717q0 120 -34.5 179.5t-113.5 59.5q-28 0 -58 -6.5t-48.5 -11.5t-54 -24t-43.5 -23t-50.5 -31.5t-44.5 -28.5v-831h-215v1100h170l37 -109q87 66 162 102.5t151 36.5
q117 0 194 -33t132 -126q101 84 173.5 121.5t172.5 37.5q184 0 265 -95.5t81 -317.5v-717z" />
    <glyph glyph-name="n" unicode="n" horiz-adv-x="1187" 
d="M1069 0h-215v698q0 137 -52.5 197.5t-137.5 60.5q-112 0 -230 -75l-90 -58v-823h-215v1100h176l31 -111l80 53q129 88 248 88q183 0 294 -106.5t111 -325.5v-698z" />
    <glyph glyph-name="o" unicode="o" horiz-adv-x="1181" 
d="M1096 551q0 -139 -27.5 -243.5t-86 -182t-157 -117t-235.5 -39.5t-235 39.5t-156.5 117t-85.5 182t-27 243.5q0 283 118 431t386 148t387 -148t119 -431zM877 551q0 226 -65.5 315.5t-221.5 89.5t-222.5 -90t-66.5 -315q0 -226 66.5 -317t222.5 -91t221.5 91t65.5 317z
" />
    <glyph glyph-name="p" unicode="p" horiz-adv-x="1198" 
d="M1114 567q0 -115 -15 -204.5t-52 -165t-96.5 -124.5t-150.5 -76.5t-212 -27.5q-135 0 -244 66v-531h-215v1596h147l46 -94q85 70 154.5 97t150.5 27q128 0 222.5 -41t152 -117t85 -177t27.5 -228zM895 567q0 199 -63 294t-205 95q-77 0 -141.5 -24t-141.5 -80v-645
q112 -76 244 -76q90 0 150 26t94.5 82.5t48.5 134.5t14 193z" />
    <glyph glyph-name="q" unicode="q" horiz-adv-x="1200" 
d="M1069 -496h-215v527q-108 -62 -252 -62q-516 0 -516 568q0 140 26.5 245.5t71.5 170.5t112 105.5t139.5 56t162.5 15.5q208 0 471 -71v-1555zM854 197v731q-132 30 -256 30q-59 0 -102.5 -10.5t-81.5 -38t-61.5 -74.5t-36.5 -121.5t-13 -176.5q0 -218 73 -309t226 -91
q121 0 252 60z" />
    <glyph glyph-name="r" unicode="r" horiz-adv-x="759" 
d="M729 934q-86 12 -137 12q-113 0 -174 -51l-72 -59v-836h-215v1100h176l27 -105l76 64q85 71 217 71q32 0 102 -8v-188z" />
    <glyph glyph-name="s" unicode="s" horiz-adv-x="1060" 
d="M971 332q0 -96 -37 -167.5t-102.5 -113.5t-146 -62t-175.5 -20q-150 0 -265 59.5t-171 180.5l182 65q71 -133 254 -133q115 0 180.5 42t65.5 130q0 117 -123 138l-268 47q-129 22 -199 100t-70 211q0 151 114 236t316 85q304 0 416 -202l-166 -84q-75 112 -248 112
q-221 0 -221 -147q0 -103 109 -121l258 -43q133 -22 215 -98t82 -215z" />
    <glyph glyph-name="t" unicode="t" horiz-adv-x="882" 
d="M872 88q-62 -57 -146.5 -88t-172.5 -31q-70 0 -128 15.5t-108 49.5t-78 97t-28 150v571q0 34 20 70h-200v178h180v373l215 63v-436h387l-57 -178h-330v-641q0 -68 39.5 -101t101.5 -33q84 0 181 66z" />
    <glyph glyph-name="u" unicode="u" horiz-adv-x="1187" 
d="M1059 0h-176l-31 111l-80 -54q-129 -88 -248 -88q-183 0 -294 106.5t-111 325.5v699h215v-699q0 -137 52.5 -197.5t137.5 -60.5q110 0 230 76l90 57v824h215v-1100z" />
    <glyph glyph-name="v" unicode="v" horiz-adv-x="1126" 
d="M1096 1100l-422 -1100h-223l-420 1100h227l268 -709q7 -18 13 -41t9 -38t8 -43.5t7 -39.5q22 108 41 160l266 711h226z" />
    <glyph glyph-name="w" unicode="w" horiz-adv-x="1646" 
d="M1610 1100l-353 -1100h-194l-209 635q-27 80 -31 135q-3 -52 -32 -135l-209 -635h-195l-352 1100h211l207 -647q17 -54 30 -197q16 128 37 193l209 651h186l209 -651q21 -65 37 -193q12 138 31 197l207 647h211z" />
    <glyph glyph-name="x" unicode="x" horiz-adv-x="1132" 
d="M1116 0h-256l-254 350q-27 39 -45 82q-23 -52 -41 -80l-248 -352h-256l414 569l-385 531h254l242 -330q15 -22 34 -76q27 66 33 76l223 330h256l-385 -539z" />
    <glyph glyph-name="y" unicode="y" horiz-adv-x="1124" 
d="M1094 1100l-519 -1376q-45 -120 -125.5 -170t-224.5 -50h-164v191h164q71 0 98.5 19.5t57.5 95.5l70 176l-420 1114h227l262 -703q34 -92 43 -172q16 97 45 172l262 703h224z" />
    <glyph glyph-name="z" unicode="z" horiz-adv-x="1048" 
d="M956 0h-858v184l514 643q1 2 11.5 14.5t13 15.5t12 13.5t16 15.5t17.5 13t23 16h-558l-59 185h862v-185l-508 -634q-7 -8 -22 -28t-22 -27.5t-22 -19.5t-34 -22h614v-184z" />
    <glyph glyph-name="braceleft" unicode="{" horiz-adv-x="710" 
d="M690 1438h-129q-68 0 -88 -20t-20 -81v-489q0 -23 -4 -47.5t-15.5 -55.5t-30 -55.5t-51.5 -43t-76 -21.5q43 -3 75.5 -22t50.5 -43.5t29 -56t14.5 -56.5t3.5 -48v-489q0 -61 20 -80.5t88 -19.5h129v-144h-170q-128 0 -198 56t-70 186v491q0 22 -1.5 38.5t-9 40.5t-21 40
t-40 27.5t-63.5 11.5v133q139 0 139 158v491q0 130 70 186t198 56h170v-143z" />
    <glyph glyph-name="bar" unicode="|" horiz-adv-x="589" 
d="M383 -334h-176v1913h176v-1913z" />
    <glyph glyph-name="braceright" unicode="}" horiz-adv-x="710" 
d="M598 557q-37 0 -63.5 -11.5t-40 -27.5t-21 -40t-9 -40.5t-1.5 -38.5v-491q0 -130 -70 -186t-198 -56h-170v144h129q68 0 88 19.5t20 80.5v489q0 31 6.5 62.5t23 69.5t53 64t89.5 30q-43 3 -76 21.5t-51 43t-30 55.5t-15.5 55.5t-3.5 47.5v489q0 61 -20 81t-88 20h-130
v143h170q128 0 198.5 -56t70.5 -186v-491q0 -158 139 -158v-133z" />
    <glyph glyph-name="asciitilde" unicode="~" 
d="M1120 788q-52 -74 -118 -107.5t-156 -33.5q-53 0 -104.5 18t-92 44t-79.5 52t-83.5 44t-87.5 18q-90 0 -156 -33.5t-118 -107.5v217q52 74 118 107.5t156 33.5q59 0 113 -18t94 -44t77 -52t79 -44t84 -18q90 0 156 34t118 108v-218z" />
    <glyph glyph-name="uni00A0" unicode="&#xa0;" horiz-adv-x="507" 
 />
    <glyph glyph-name="exclamdown" unicode="&#xa1;" horiz-adv-x="534" 
d="M401 889q0 -19 -2.5 -22t-17.5 -3h-227q-15 0 -18 3.5t-3 21.5v221q0 16 4 19.5t17 3.5h227q15 0 17.5 -3t2.5 -20v-221zM379 -463h-221v799l30 426h158l33 -426v-799z" />
    <glyph glyph-name="cent" unicode="&#xa2;" 
d="M1079 410q-75 -112 -158 -163.5t-196 -60.5v-288h-168v297q-373 62 -373 536q0 116 19 205.5t61.5 161.5t116 116.5t176.5 59.5v289h168v-287q298 -37 336 -352h-197q-12 78 -65.5 127t-155.5 49q-137 0 -191.5 -93t-54.5 -276q0 -86 12 -150t40.5 -115t80.5 -77.5
t127 -26.5q54 0 94.5 9t70 29.5t48.5 40t43 53.5z" />
    <glyph glyph-name="sterling" unicode="&#xa3;" 
d="M1130 0h-915v164q34 42 46.5 73t12.5 80v328h-157v195h157v272q0 69 10.5 124t39.5 107.5t76.5 87.5t125 56.5t181.5 21.5q269 0 413 -161l-139 -123q-59 57 -114 81.5t-160 24.5q-132 0 -178 -49t-46 -170v-272h381v-195h-381v-328q0 -30 -12.5 -65.5t-30.5 -56.5h690
v-195z" />
    <glyph glyph-name="currency" unicode="&#xa4;" horiz-adv-x="1239" 
d="M1122 1176q0 -17 -14 -31l-168 -168q68 -95 68 -213q0 -119 -70 -217l168 -168q14 -14 14 -31q0 -14 -10 -24l-55 -56q-10 -10 -23 -10q-17 0 -31 14l-172 172q-94 -67 -208 -67q-119 0 -213 67l-168 -168q-16 -16 -33 -16q-11 0 -21 10l-55 58q-10 13 -10 22q0 17 14 31
l166 166q-70 94 -70 217q0 119 66 211l-166 166q-14 14 -14 30q0 17 10 25l57 55q11 11 23 11q14 0 31 -17l163 -164q98 70 217 70q120 0 218 -70l168 168q15 15 30 15q12 0 23 -11l55 -55q10 -10 10 -22zM862 764q0 101 -72.5 172.5t-173.5 71.5t-173 -71.5t-72 -172.5
t72 -173.5t173 -72.5t173.5 72.5t72.5 173.5z" />
    <glyph glyph-name="yen" unicode="&#xa5;" 
d="M1223 1477l-236 -424h197v-150h-279l-90 -162h369v-149h-451v-592h-215v592h-461v149h379l-92 164h-287v148h205l-237 424h231l336 -623q23 -46 33 -86q12 46 34 90l334 619h230z" />
    <glyph glyph-name="brokenbar" unicode="&#xa6;" horiz-adv-x="589" 
d="M399 887h-209v649h209v-649zM399 0h-209v649h209v-649z" />
    <glyph glyph-name="section" unicode="&#xa7;" horiz-adv-x="1224" 
d="M1044 182q0 -212 -118.5 -311.5t-329.5 -99.5h-397v368h192v-192h205q137 0 193.5 50t56.5 161q0 67 -28 101t-105 54l-273 70q-272 70 -272 440v221q0 433 420 433h418v-318h-185v141h-233q-117 0 -170 -42.5t-53 -147.5q0 -53 28.5 -91t104.5 -58l272 -70
q152 -39 213 -137.5t61 -257.5v-314zM846 453v57q0 85 -27.5 125.5t-101.5 60.5l-271 70q-61 15 -86 49q0 -107 30.5 -160t103.5 -73l270 -72q53 -12 82 -57z" />
    <glyph glyph-name="dieresis" unicode="&#xa8;" horiz-adv-x="909" 
d="M113 1552v-200q0 -17 14 -17h199q14 0 14 17v200q0 17 -14 17h-199q-14 0 -14 -17zM569 1552v-200q0 -17 15 -17h198q15 0 15 17v200q0 17 -15 17h-198q-15 0 -15 -17z" />
    <glyph glyph-name="copyright" unicode="&#xa9;" horiz-adv-x="1744" 
d="M1645 739q0 -157 -61.5 -299.5t-165 -245.5t-246.5 -164t-300 -61q-210 0 -387.5 103t-281 280.5t-103.5 386.5t103.5 386.5t281 280.5t387.5 103q157 0 300 -61t246.5 -164t165 -245.5t61.5 -299.5zM1501 739q0 128 -49.5 244.5t-134 201t-201 134t-244.5 49.5
q-171 0 -315.5 -84t-228.5 -229t-84 -316t84 -315.5t228.5 -228.5t315.5 -84t316 84t229 228.5t84 315.5zM1231 459q-22 -48 -47.5 -82.5t-65.5 -67.5t-99 -50t-136 -17q-100 0 -173.5 26.5t-117.5 70t-70.5 109.5t-35.5 133t-9 152q0 117 17.5 202t60.5 152.5t121.5 101.5
t193.5 34q90 0 156.5 -23.5t106 -65t59.5 -92t25 -112.5h-150q-10 74 -52.5 112.5t-144.5 38.5q-64 0 -108.5 -16.5t-69.5 -42.5t-38.5 -74t-17 -94.5t-3.5 -120.5q0 -67 4.5 -113t19 -94.5t41 -77t73 -47t112.5 -18.5q81 0 130 34.5t89 119.5z" />
    <glyph glyph-name="ordfeminine" unicode="&#xaa;" horiz-adv-x="665" 
d="M571 932h-92l-14 31q-74 -50 -164 -50q-86 0 -146.5 51t-60.5 148q0 182 219 182q57 0 129 -14v53q0 15 -2 25t-10 21t-26.5 16.5t-47.5 5.5q-43 0 -70.5 -12t-58.5 -41l-94 59q43 60 94 81t129 21q215 0 215 -176v-401zM442 1059v121q-73 10 -110 10q-107 0 -107 -78
q0 -90 82 -90q79 0 135 37z" />
    <glyph glyph-name="guillemotleft" unicode="&#xab;" horiz-adv-x="1122" 
d="M1022 254l-115 -96l-366 393l366 393l115 -98l-250 -295zM580 254l-115 -96l-365 393l365 393l115 -98l-252 -295z" />
    <glyph glyph-name="logicalnot" unicode="&#xac;" 
d="M1130 416h-188v461h-827v186h1015v-647z" />
    <glyph glyph-name="uni00AD" unicode="&#xad;" horiz-adv-x="684" 
d="M631 506h-578v196h578v-196z" />
    <glyph glyph-name="registered" unicode="&#xae;" horiz-adv-x="1744" 
d="M1645 739q0 -157 -61.5 -299.5t-165 -245.5t-246.5 -164t-300 -61q-210 0 -387.5 103t-281 280.5t-103.5 386.5t103.5 386.5t281 280.5t387.5 103q157 0 300 -61t246.5 -164t165 -245.5t61.5 -299.5zM1501 739q0 128 -49.5 244.5t-134 201t-201 134t-244.5 49.5
q-171 0 -315.5 -84t-228.5 -229t-84 -316t84 -315.5t228.5 -228.5t315.5 -84t316 84t229 228.5t84 315.5zM1268 268h-185l-211 328q-12 16 -12 45h-184v-373h-152v951h355q172 0 257 -78t85 -211q0 -101 -51 -172t-154 -101zM1067 930q0 76 -45 110.5t-141 34.5h-205v-287
h203q99 0 143.5 32t44.5 110z" />
    <glyph glyph-name="macron" unicode="&#xaf;" horiz-adv-x="937" 
d="M819 1350h-700v168h700v-168z" />
    <glyph glyph-name="degree" unicode="&#xb0;" horiz-adv-x="684" 
d="M614 1245q0 -108 -79.5 -185t-192.5 -77t-192.5 77t-79.5 185t79.5 185t192.5 77t192.5 -77t79.5 -185zM457 1245q0 47 -34 80t-81 33t-81 -33t-34 -80q0 -46 34 -78t81 -32t81 32t34 78z" />
    <glyph glyph-name="plusminus" unicode="&#xb1;" 
d="M1161 719h-442v-447h-191v447h-444v190h444v447h191v-447h442v-190zM1161 0h-1077v195h1077v-195z" />
    <glyph glyph-name="two.superior" unicode="&#xb2;" horiz-adv-x="747" 
d="M662 1249q0 -44 -14.5 -84t-31.5 -66t-54 -59.5t-57 -48.5t-67 -47q-141 -97 -184 -178h258v119h147v-260h-585q0 70 18 131t41.5 101.5t66 83t70.5 64t76 54.5q79 54 119.5 97t40.5 93q0 58 -30 88.5t-85 30.5q-85 0 -119.5 -36.5t-44.5 -104.5h-143q3 42 13 80t33 75
t57 63.5t86 43t118 16.5q118 0 194.5 -67.5t76.5 -188.5z" />
    <glyph glyph-name="three.superior" unicode="&#xb3;" horiz-adv-x="735" 
d="M672 889q0 -137 -85 -210t-225 -73q-118 0 -195.5 45t-133.5 150l123 57q39 -69 83.5 -94t122.5 -25q154 0 154 150q0 59 -34 91t-97 32h-147l-39 137h186q52 0 83.5 29.5t31.5 87.5q0 52 -29.5 79t-97.5 27q-78 0 -122 -24.5t-83 -94.5l-123 58q56 105 134 149.5
t196 44.5q147 0 214.5 -66.5t67.5 -172.5q0 -112 -84 -176q45 -31 72 -85.5t27 -115.5z" />
    <glyph glyph-name="acute" unicode="&#xb4;" horiz-adv-x="710" 
d="M578 1493l-357 -264q-21 -15 -35 -4l-65 57q-13 14 0 27l313 327z" />
    <glyph glyph-name="mu" unicode="&#xb5;" horiz-adv-x="1187" 
d="M1059 0h-176l-31 111l-80 -54q-129 -88 -248 -88q-109 0 -190 37v-502h-215v1596h215v-699q0 -137 52.5 -197.5t137.5 -60.5q110 0 230 76l90 57v824h215v-1100z" />
    <glyph glyph-name="paragraph" unicode="&#xb6;" horiz-adv-x="1079" 
d="M940 0h-135v1348h-111v-1348h-135v723h-53q-112 0 -196.5 30t-134 83t-73.5 119.5t-24 146.5t24.5 146.5t74.5 118.5t134 81t195 29h434v-1477z" />
    <glyph glyph-name="periodcentered" unicode="&#xb7;" horiz-adv-x="505" 
d="M385 764q0 -16 -3.5 -19.5t-16.5 -3.5h-228q-15 0 -17.5 3t-2.5 20v221q0 19 2.5 22t17.5 3h228q15 0 17.5 -3t2.5 -22v-221z" />
    <glyph glyph-name="cedilla" unicode="&#xb8;" horiz-adv-x="610" 
d="M530 -248q0 -93 -64 -133.5t-167 -40.5q-123 0 -213 41l33 76q89 -27 160 -27q116 0 116 84q0 66 -84 66h-116l-60 94l78 96h125l-78 -92h51q113 0 166 -36.5t53 -127.5z" />
    <glyph glyph-name="one.superior" unicode="&#xb9;" horiz-adv-x="579" 
d="M532 625h-481v141h162v547q0 14 2 24l-84 -18q-32 -8 -80 -16v141l318 63v-741h163v-141z" />
    <glyph glyph-name="ordmasculine" unicode="&#xba;" horiz-adv-x="704" 
d="M610 1212q0 -297 -258 -297q-256 0 -256 297t256 297q258 0 258 -297zM479 1212q0 106 -29 146.5t-98 40.5t-98 -40.5t-29 -146.5q0 -108 29 -148t98 -40t98 40t29 148z" />
    <glyph glyph-name="guillemotright" unicode="&#xbb;" horiz-adv-x="1122" 
d="M1022 551l-365 -393l-116 96l252 297l-252 295l116 98zM580 551l-365 -393l-115 96l248 297l-248 295l115 98z" />
    <glyph glyph-name="onequarter" unicode="&#xbc;" horiz-adv-x="1769" 
d="M614 625h-481v141h162v547q0 14 2 24l-84 -18q-32 -8 -80 -16v141l318 63v-741h163v-141zM1499 1509l-991 -1540h-170l991 1540h170zM1636 213h-90v-213h-153v213h-422v129l434 520h141v-504h90v-145zM1182 358h211v258z" />
    <glyph glyph-name="onehalf" unicode="&#xbd;" horiz-adv-x="1853" 
d="M614 625h-481v141h162v547q0 14 2 24l-84 -18q-32 -8 -80 -16v141l318 63v-741h163v-141zM1499 1509l-991 -1540h-170l991 1540h170zM1720 625q0 -44 -14 -84t-31.5 -67t-53.5 -59.5t-57.5 -48.5t-66.5 -47q-141 -97 -184 -178h258v119h147v-260h-585q0 70 18 131
t41.5 101.5t66 83t70.5 64t76 54.5q78 54 119 97.5t41 93.5q0 58 -30 88t-85 30q-85 0 -119.5 -36.5t-44.5 -104.5h-143q3 42 13 80t33 75.5t56.5 64t86 43t118.5 16.5q118 0 194 -67.5t76 -188.5z" />
    <glyph glyph-name="threequarters" unicode="&#xbe;" horiz-adv-x="1845" 
d="M1575 1509l-991 -1540h-170l991 1540h170zM1712 213h-90v-213h-154v213h-421v129l434 520h141v-504h90v-145zM1257 358h211v258zM772 889q0 -137 -84.5 -210t-224.5 -73q-118 0 -196 45t-134 150l123 57q39 -69 84 -94t123 -25q153 0 153 150q0 59 -34 91t-97 32h-147
l-39 137h186q52 0 83.5 29.5t31.5 87.5q0 52 -29.5 79t-97.5 27q-78 0 -122 -24.5t-83 -94.5l-123 58q56 105 134 149.5t196 44.5q147 0 215 -66.5t68 -172.5q0 -112 -84 -176q45 -31 71.5 -85.5t26.5 -115.5z" />
    <glyph glyph-name="questiondown" unicode="&#xbf;" horiz-adv-x="1075" 
d="M739 887q0 -19 -2.5 -22t-17.5 -3h-227q-15 0 -18 3.5t-3 21.5v221q0 16 3.5 19t17.5 3h227q15 0 17.5 -2.5t2.5 -19.5v-221zM1014 -45q-1 -74 -11 -133.5t-41 -122t-81.5 -104.5t-138.5 -68.5t-207 -26.5q-437 0 -437 459q0 56 13 106t30.5 84t50 70.5t54.5 56.5t61 52
q90 73 119 105q70 79 70 177v142h217v-142q0 -58 -12.5 -109.5t-30.5 -88t-48.5 -74t-54.5 -60t-61 -53.5q-9 -7 -43 -34.5t-46 -38.5t-37.5 -37.5t-35.5 -46t-19.5 -49t-9.5 -60.5q0 -132 47.5 -200t172.5 -68q151 0 211.5 65.5t62.5 198.5h205z" />
    <glyph glyph-name="Agrave" unicode="&#xc0;" horiz-adv-x="1368" 
d="M1348 0h-228l-164 436h-550l-164 -436h-222l551 1477h228zM887 627l-182 495q-10 25 -23 101q-11 -65 -23 -99l-182 -497h410zM389 1858l148 143l311 -326q14 -14 0 -28l-64 -58q-14 -14 -39 4z" />
    <glyph glyph-name="Aacute" unicode="&#xc1;" horiz-adv-x="1368" 
d="M1348 0h-228l-164 436h-550l-164 -436h-222l551 1477h228zM887 627l-182 495q-10 25 -23 101q-11 -65 -23 -99l-182 -497h410zM977 1853l-356 -264q-21 -15 -35 -4l-66 57q-14 14 0 27l314 328z" />
    <glyph glyph-name="Acircumflex" unicode="&#xc2;" horiz-adv-x="1368" 
d="M1348 0h-228l-164 436h-550l-164 -436h-222l551 1477h228zM887 627l-182 495q-10 25 -23 101q-11 -65 -23 -99l-182 -497h410zM1030 1665l-90 -88l-256 219l-256 -219l-92 88l293 305q26 29 53 29q28 0 57 -29z" />
    <glyph glyph-name="Atilde" unicode="&#xc3;" horiz-adv-x="1368" 
d="M1348 0h-228l-164 436h-550l-164 -436h-222l551 1477h228zM887 627l-182 495q-10 25 -23 101q-11 -65 -23 -99l-182 -497h410zM1071 1819l-147 -185q-42 -53 -93 -53q-33 0 -81 25l-177 88q-19 8 -32 8q-17 0 -31 -14l-100 -109l-113 76l139 182q42 55 88 55q34 0 84 -24
l178 -88q30 -15 39 -15q10 0 25 15l104 114z" />
    <glyph glyph-name="Adieresis" unicode="&#xc4;" horiz-adv-x="1368" 
d="M1348 0h-228l-164 436h-550l-164 -436h-222l551 1477h228zM887 627l-182 495q-10 25 -23 101q-11 -65 -23 -99l-182 -497h410zM342 1853v-200q0 -17 14 -17h199q14 0 14 17v200q0 17 -14 17h-199q-14 0 -14 -17zM799 1853v-200q0 -17 14 -17h199q14 0 14 17v200
q0 17 -14 17h-199q-14 0 -14 -17z" />
    <glyph glyph-name="Aring" unicode="&#xc5;" horiz-adv-x="1368" 
d="M1348 0h-228l-164 436h-550l-164 -436h-222l551 1477h228zM887 627l-182 495q-10 25 -23 101q-11 -65 -23 -99l-182 -497h410zM915 1751q0 -95 -68 -163t-163 -68t-163 68t-68 163t68 163t163 68t163 -68t68 -163zM788 1751q0 41 -31 70.5t-73 29.5q-41 0 -71.5 -29.5
t-30.5 -70.5t30.5 -71.5t71.5 -30.5t72.5 30.5t31.5 71.5z" />
    <glyph glyph-name="AE" unicode="&#xc6;" horiz-adv-x="2105" 
d="M2025 0h-985v440h-483l-276 -440h-254l917 1477h1079v-195h-766v-405h695l-58 -199h-643q6 -42 6 -49v-434h768v-195zM1040 643v569l-356 -569h356z" />
    <glyph glyph-name="Ccedilla" unicode="&#xc7;" horiz-adv-x="1292" 
d="M1221 295q-144 -328 -525 -328h-14l-37 -43h33q103 0 153 -34.5t50 -118.5q0 -87 -60.5 -124.5t-154.5 -37.5q-108 0 -199 41l35 80q84 -25 145 -25q101 0 101 66q0 53 -70 53h-109l-57 92l49 61q-113 17 -199 66.5t-139 118t-85.5 164t-45 194.5t-12.5 219q0 146 18 261
t61 212.5t111 161.5t171.5 99.5t240.5 35.5q107 0 193.5 -24.5t144.5 -65.5t98.5 -98.5t60 -119t23.5 -130.5h-201q-33 250 -321 250q-72 0 -128 -14.5t-96 -39t-68.5 -65.5t-45.5 -85.5t-27 -108.5t-13 -125t-3 -144q0 -74 3.5 -132.5t14 -121t28.5 -109.5t48 -90t71 -70.5
t100 -43.5t132 -16q127 0 211.5 57.5t141.5 185.5z" />
    <glyph glyph-name="Egrave" unicode="&#xc8;" horiz-adv-x="1165" 
d="M1085 0h-964v1477h962v-195h-747v-405h676l-56 -199h-634q14 -37 14 -64v-419h749v-195zM289 1858l147 143l312 -326q14 -14 0 -28l-64 -58q-14 -14 -39 4z" />
    <glyph glyph-name="Eacute" unicode="&#xc9;" horiz-adv-x="1165" 
d="M1085 0h-964v1477h962v-195h-747v-405h676l-56 -199h-634q14 -37 14 -64v-419h749v-195zM915 1855l-356 -264q-21 -15 -35 -4l-65 58q-13 13 0 26l313 328z" />
    <glyph glyph-name="Ecircumflex" unicode="&#xca;" horiz-adv-x="1165" 
d="M1085 0h-964v1477h962v-195h-747v-405h676l-56 -199h-634q14 -37 14 -64v-419h749v-195zM930 1667l-90 -88l-256 219l-256 -219l-92 88l292 305q26 29 54 29t57 -29z" />
    <glyph glyph-name="Edieresis" unicode="&#xcb;" horiz-adv-x="1165" 
d="M1085 0h-964v1477h962v-195h-747v-405h676l-56 -199h-634q14 -37 14 -64v-419h749v-195zM260 1853v-200q0 -17 14 -17h199q14 0 14 17v200q0 17 -14 17h-199q-14 0 -14 -17zM717 1853v-200q0 -17 14 -17h199q14 0 14 17v200q0 17 -14 17h-199q-14 0 -14 -17z" />
    <glyph glyph-name="Igrave" unicode="&#xcc;" horiz-adv-x="454" 
d="M334 0h-213v1477h213v-1477zM-66 1858l148 143l311 -326q14 -14 0 -28l-63 -58q-14 -14 -39 4z" />
    <glyph glyph-name="Iacute" unicode="&#xcd;" horiz-adv-x="454" 
d="M334 0h-213v1477h213v-1477zM520 1855l-356 -264q-21 -15 -35 -4l-66 58q-13 13 0 26l314 328z" />
    <glyph glyph-name="Icircumflex" unicode="&#xce;" horiz-adv-x="454" 
d="M334 0h-213v1477h213v-1477zM575 1669l-90 -88l-256 219l-256 -219l-92 88l293 305q26 29 53 29q29 0 58 -29z" />
    <glyph glyph-name="Idieresis" unicode="&#xcf;" horiz-adv-x="454" 
d="M334 0h-213v1477h213v-1477zM-115 1851v-200q0 -17 15 -17h198q15 0 15 17v200q0 17 -15 17h-198q-15 0 -15 -17zM342 1851v-200q0 -17 14 -17h199q14 0 14 17v200q0 17 -14 17h-199q-14 0 -14 -17z" />
    <glyph glyph-name="Eth" unicode="&#xd0;" horiz-adv-x="1359" 
d="M1280 756q0 -128 -24 -238.5t-79 -207t-137.5 -164.5t-206 -107t-278.5 -39h-434v684h-170v180h170v613h434q152 0 274 -35.5t205.5 -99.5t139 -154.5t81 -198t25.5 -233.5zM1061 756q0 271 -124.5 402.5t-381.5 131.5h-219v-426h262l-53 -180h-209v-498h219
q257 0 381.5 142t124.5 428z" />
    <glyph glyph-name="Ntilde" unicode="&#xd1;" horiz-adv-x="1447" 
d="M1327 0h-192l-811 1112q12 -60 12 -84v-1028h-215v1477h192l811 -1112q-1 6 -4 22.5t-5.5 34.5t-2.5 33v1022h215v-1477zM1124 1819l-147 -185q-42 -53 -92 -53q-34 0 -82 25l-176 88q-19 8 -33 8q-17 0 -31 -14l-100 -109l-113 76l139 182q42 55 89 55q34 0 84 -24
l178 -88q30 -15 39 -15t24 15l105 114z" />
    <glyph glyph-name="Ograve" unicode="&#xd2;" horiz-adv-x="1398" 
d="M1319 756q0 -144 -16.5 -257t-59 -215t-112 -169.5t-179 -106.5t-256.5 -39q-146 0 -255.5 39.5t-177.5 106.5t-110 170t-57.5 215t-15.5 256q0 107 11 197t37 178t72.5 154.5t113 118t163.5 78.5t219 27q146 0 256.5 -40t179 -107t111.5 -166t59.5 -205t16.5 -235z
M1100 756q0 114 -11.5 200t-40 157t-74.5 115.5t-115 68.5t-163 24q-117 0 -195 -35.5t-122 -110t-62 -174.5t-18 -245q0 -160 18 -267t63 -184.5t122 -113t194 -35.5t195 35.5t124.5 112.5t65.5 185t19 267zM406 1853l147 144l311 -326q14 -15 0 -29l-63 -57q-14 -14 -39 4
z" />
    <glyph glyph-name="Oacute" unicode="&#xd3;" horiz-adv-x="1398" 
d="M1319 756q0 -144 -16.5 -257t-59 -215t-112 -169.5t-179 -106.5t-256.5 -39q-146 0 -255.5 39.5t-177.5 106.5t-110 170t-57.5 215t-15.5 256q0 107 11 197t37 178t72.5 154.5t113 118t163.5 78.5t219 27q146 0 256.5 -40t179 -107t111.5 -166t59.5 -205t16.5 -235z
M1100 756q0 114 -11.5 200t-40 157t-74.5 115.5t-115 68.5t-163 24q-117 0 -195 -35.5t-122 -110t-62 -174.5t-18 -245q0 -160 18 -267t63 -184.5t122 -113t194 -35.5t195 35.5t124.5 112.5t65.5 185t19 267zM1012 1855l-357 -264q-20 -15 -34 -4l-66 58q-13 13 0 26
l313 328z" />
    <glyph glyph-name="Ocircumflex" unicode="&#xd4;" horiz-adv-x="1398" 
d="M1319 756q0 -144 -16.5 -257t-59 -215t-112 -169.5t-179 -106.5t-256.5 -39q-146 0 -255.5 39.5t-177.5 106.5t-110 170t-57.5 215t-15.5 256q0 107 11 197t37 178t72.5 154.5t113 118t163.5 78.5t219 27q146 0 256.5 -40t179 -107t111.5 -166t59.5 -205t16.5 -235z
M1100 756q0 114 -11.5 200t-40 157t-74.5 115.5t-115 68.5t-163 24q-117 0 -195 -35.5t-122 -110t-62 -174.5t-18 -245q0 -160 18 -267t63 -184.5t122 -113t194 -35.5t195 35.5t124.5 112.5t65.5 185t19 267zM1047 1667l-91 -88l-256 219l-256 -219l-92 88l293 305
q26 29 53 29q29 0 58 -29z" />
    <glyph glyph-name="Otilde" unicode="&#xd5;" horiz-adv-x="1398" 
d="M1319 756q0 -144 -16.5 -257t-59 -215t-112 -169.5t-179 -106.5t-256.5 -39q-146 0 -255.5 39.5t-177.5 106.5t-110 170t-57.5 215t-15.5 256q0 107 11 197t37 178t72.5 154.5t113 118t163.5 78.5t219 27q146 0 256.5 -40t179 -107t111.5 -166t59.5 -205t16.5 -235z
M1100 756q0 114 -11.5 200t-40 157t-74.5 115.5t-115 68.5t-163 24q-117 0 -195 -35.5t-122 -110t-62 -174.5t-18 -245q0 -160 18 -267t63 -184.5t122 -113t194 -35.5t195 35.5t124.5 112.5t65.5 185t19 267zM1085 1819l-147 -185q-42 -53 -92 -53q-34 0 -82 25l-176 88
q-19 8 -33 8q-17 0 -31 -14l-100 -109l-113 76l140 182q42 55 88 55q35 0 84 -24l178 -88q30 -15 39 -15t24 15l105 114z" />
    <glyph glyph-name="Odieresis" unicode="&#xd6;" horiz-adv-x="1398" 
d="M1319 756q0 -144 -16.5 -257t-59 -215t-112 -169.5t-179 -106.5t-256.5 -39q-146 0 -255.5 39.5t-177.5 106.5t-110 170t-57.5 215t-15.5 256q0 107 11 197t37 178t72.5 154.5t113 118t163.5 78.5t219 27q146 0 256.5 -40t179 -107t111.5 -166t59.5 -205t16.5 -235z
M1100 756q0 114 -11.5 200t-40 157t-74.5 115.5t-115 68.5t-163 24q-117 0 -195 -35.5t-122 -110t-62 -174.5t-18 -245q0 -160 18 -267t63 -184.5t122 -113t194 -35.5t195 35.5t124.5 112.5t65.5 185t19 267zM356 1853v-200q0 -17 15 -17h198q15 0 15 17v200q0 17 -15 17
h-198q-15 0 -15 -17zM813 1853v-200q0 -17 14 -17h199q14 0 14 17v200q0 17 -14 17h-199q-14 0 -14 -17z" />
    <glyph glyph-name="multiply" unicode="&#xd7;" 
d="M1096 432l-131 -127l-340 342l-342 -342l-131 127l342 344l-340 344l129 129l340 -342l342 342l131 -127l-342 -346z" />
    <glyph glyph-name="Oslash" unicode="&#xd8;" horiz-adv-x="1398" 
d="M1427 1528l-213 -277q105 -182 105 -495q0 -144 -16.5 -257t-59 -215t-112 -169.5t-179 -106.5t-256.5 -39q-246 0 -387 107l-98 -127h-199l189 244q-121 185 -121 563q0 107 11 197t37 178t72.5 154.5t113 118t163.5 78.5t219 27q269 0 418 -133l117 152h196zM987 1212
q-95 109 -291 109q-117 0 -195 -35.5t-122 -110t-62 -174.5t-18 -245q0 -249 45 -377zM1100 756q0 185 -33 303l-633 -821q91 -82 262 -82q117 0 195 35.5t124.5 112.5t65.5 185t19 267z" />
    <glyph glyph-name="Ugrave" unicode="&#xd9;" horiz-adv-x="1417" 
d="M1307 610q0 -168 -43.5 -293t-125 -200t-189 -111.5t-242.5 -36.5t-242 36t-187.5 111.5t-123.5 200.5t-43 293v867h215v-867q0 -240 94.5 -347t286.5 -107q193 0 289 107t96 347v867h215v-867zM414 1853l147 144l311 -326q14 -15 0 -29l-63 -57q-14 -14 -39 4z" />
    <glyph glyph-name="Uacute" unicode="&#xda;" horiz-adv-x="1417" 
d="M1307 610q0 -168 -43.5 -293t-125 -200t-189 -111.5t-242.5 -36.5t-242 36t-187.5 111.5t-123.5 200.5t-43 293v867h215v-867q0 -240 94.5 -347t286.5 -107q193 0 289 107t96 347v867h215v-867zM1022 1855l-356 -264q-21 -15 -35 -4l-66 58q-13 13 0 26l314 328z" />
    <glyph glyph-name="Ucircumflex" unicode="&#xdb;" horiz-adv-x="1417" 
d="M1307 610q0 -168 -43.5 -293t-125 -200t-189 -111.5t-242.5 -36.5t-242 36t-187.5 111.5t-123.5 200.5t-43 293v867h215v-867q0 -240 94.5 -347t286.5 -107q193 0 289 107t96 347v867h215v-867zM1055 1667l-90 -88l-256 219l-256 -219l-93 88l293 305q26 29 54 29t57 -29
z" />
    <glyph glyph-name="Udieresis" unicode="&#xdc;" horiz-adv-x="1417" 
d="M1307 610q0 -168 -43.5 -293t-125 -200t-189 -111.5t-242.5 -36.5t-242 36t-187.5 111.5t-123.5 200.5t-43 293v867h215v-867q0 -240 94.5 -347t286.5 -107q193 0 289 107t96 347v867h215v-867zM367 1853v-200q0 -17 14 -17h199q14 0 14 17v200q0 17 -14 17h-199
q-14 0 -14 -17zM823 1853v-200q0 -17 15 -17h198q15 0 15 17v200q0 17 -15 17h-198q-15 0 -15 -17z" />
    <glyph glyph-name="Yacute" unicode="&#xdd;" horiz-adv-x="1312" 
d="M1296 1477l-530 -881v-596h-215v596l-535 881h240l377 -623q16 -24 24 -78q13 58 27 82l375 619h237zM989 1853l-356 -264q-21 -15 -35 -4l-66 57q-14 14 0 27l314 328z" />
    <glyph glyph-name="Thorn" unicode="&#xde;" horiz-adv-x="1226" 
d="M1147 780q0 -99 -31 -182.5t-94 -148.5t-168 -101.5t-244 -36.5h-288q12 -24 12 -51v-260h-213v1477h213v-222h276q137 0 242 -37t168.5 -103t95 -150.5t31.5 -184.5zM930 780q0 140 -83 214.5t-237 74.5h-276v-571h276q159 0 239.5 68t80.5 214z" />
    <glyph glyph-name="germandbls" unicode="&#xdf;" horiz-adv-x="1247" 
d="M1151 451q0 -479 -612 -482v181q154 1 240.5 34t119.5 96t33 171q0 62 -22.5 110t-57 76.5t-82 47.5t-91.5 25.5t-91 6.5h-101v178h101q113 0 192.5 72.5t79.5 201.5q0 127 -60.5 185.5t-183.5 58.5q-140 0 -201 -58t-61 -186v-1169h-213v1169q0 208 123.5 317t351.5 109
q103 0 183.5 -24.5t132 -65t85 -96.5t47 -115t13.5 -125q0 -227 -205 -344q130 -48 204.5 -146t74.5 -228z" />
    <glyph glyph-name="agrave" unicode="&#xe0;" horiz-adv-x="1128" 
d="M997 0h-176l-22 80q-167 -111 -346 -111q-195 0 -292.5 100.5t-97.5 270.5q0 352 420 352q141 0 299 -35v142q0 80 -47 118.5t-155 38.5q-100 0 -173 -29.5t-124 -103.5l-162 95q123 212 463 212q102 0 178 -20t120 -51t70.5 -76.5t35.5 -89t9 -96.5v-797zM782 252v246
q-173 26 -256 26q-245 0 -245 -184q0 -193 172 -193q96 0 169 24.5t160 80.5zM283 1493l147 143l311 -325q6 -6 6 -14.5t-6 -14.5l-63 -57q-14 -14 -39 4z" />
    <glyph glyph-name="aacute" unicode="&#xe1;" horiz-adv-x="1128" 
d="M997 0h-176l-22 80q-167 -111 -346 -111q-195 0 -292.5 100.5t-97.5 270.5q0 352 420 352q141 0 299 -35v142q0 80 -47 118.5t-155 38.5q-100 0 -173 -29.5t-124 -103.5l-162 95q123 212 463 212q102 0 178 -20t120 -51t70.5 -76.5t35.5 -89t9 -96.5v-797zM782 252v246
q-173 26 -256 26q-245 0 -245 -184q0 -193 172 -193q96 0 169 24.5t160 80.5zM915 1493l-356 -264q-21 -15 -35 -4l-65 57q-13 14 0 27l313 327z" />
    <glyph glyph-name="acircumflex" unicode="&#xe2;" horiz-adv-x="1128" 
d="M997 0h-176l-22 80q-167 -111 -346 -111q-195 0 -292.5 100.5t-97.5 270.5q0 352 420 352q141 0 299 -35v142q0 80 -47 118.5t-155 38.5q-100 0 -173 -29.5t-124 -103.5l-162 95q123 212 463 212q102 0 178 -20t120 -51t70.5 -76.5t35.5 -89t9 -96.5v-797zM782 252v246
q-173 26 -256 26q-245 0 -245 -184q0 -193 172 -193q96 0 169 24.5t160 80.5zM911 1307l-90 -88l-256 219l-256 -219l-92 88l293 305q25 28 53 28q30 0 58 -28z" />
    <glyph glyph-name="atilde" unicode="&#xe3;" horiz-adv-x="1128" 
d="M997 0h-176l-22 80q-167 -111 -346 -111q-195 0 -292.5 100.5t-97.5 270.5q0 352 420 352q141 0 299 -35v142q0 80 -47 118.5t-155 38.5q-100 0 -173 -29.5t-124 -103.5l-162 95q123 212 463 212q102 0 178 -20t120 -51t70.5 -76.5t35.5 -89t9 -96.5v-797zM782 252v246
q-173 26 -256 26q-245 0 -245 -184q0 -193 172 -193q96 0 169 24.5t160 80.5zM950 1505l-147 -184q-42 -53 -92 -53q-35 0 -82 24l-176 88q-21 9 -33 9q-16 0 -31 -15l-100 -108l-113 75l139 183q42 55 88 55q32 0 84 -25l179 -88q28 -14 39 -14q10 0 24 14l105 115z" />
    <glyph glyph-name="adieresis" unicode="&#xe4;" horiz-adv-x="1128" 
d="M997 0h-176l-22 80q-167 -111 -346 -111q-195 0 -292.5 100.5t-97.5 270.5q0 352 420 352q141 0 299 -35v142q0 80 -47 118.5t-155 38.5q-100 0 -173 -29.5t-124 -103.5l-162 95q123 212 463 212q102 0 178 -20t120 -51t70.5 -76.5t35.5 -89t9 -96.5v-797zM782 252v246
q-173 26 -256 26q-245 0 -245 -184q0 -193 172 -193q96 0 169 24.5t160 80.5zM221 1552v-200q0 -17 15 -17h198q15 0 15 17v200q0 17 -15 17h-198q-15 0 -15 -17zM678 1552v-200q0 -17 14 -17h199q14 0 14 17v200q0 17 -14 17h-199q-14 0 -14 -17z" />
    <glyph glyph-name="aring" unicode="&#xe5;" horiz-adv-x="1128" 
d="M997 0h-176l-22 80q-167 -111 -346 -111q-195 0 -292.5 100.5t-97.5 270.5q0 352 420 352q141 0 299 -35v142q0 80 -47 118.5t-155 38.5q-100 0 -173 -29.5t-124 -103.5l-162 95q123 212 463 212q102 0 178 -20t120 -51t70.5 -76.5t35.5 -89t9 -96.5v-797zM782 252v246
q-173 26 -256 26q-245 0 -245 -184q0 -193 172 -193q96 0 169 24.5t160 80.5zM795 1452q0 -95 -68.5 -163t-163.5 -68t-163 68t-68 163t68 163t163 68t163.5 -68t68.5 -163zM668 1452q0 41 -31.5 70.5t-73.5 29.5q-41 0 -71.5 -29.5t-30.5 -70.5t30.5 -71.5t71.5 -30.5
q42 0 73.5 30.5t31.5 71.5z" />
    <glyph glyph-name="ae" unicode="&#xe6;" horiz-adv-x="1863" 
d="M1778 483h-772q3 -168 70.5 -253t226.5 -85q108 0 175.5 38t110.5 124l183 -69q-69 -140 -178 -204.5t-291 -64.5q-147 0 -241 44.5t-153 138.5q-138 -93 -183 -116q-126 -67 -275 -67q-194 0 -291 100.5t-97 270.5q0 352 416 352q143 0 301 -35v142q0 80 -47 117.5
t-155 37.5q-101 0 -173.5 -29t-123.5 -102l-160 95q123 212 461 212q263 0 360 -135q60 69 145.5 102t217.5 33q88 0 158.5 -17.5t119 -46.5t84.5 -74t57 -92t33.5 -109t16.5 -117t4 -123v-68zM1559 657q-5 146 -65.5 222.5t-193.5 76.5q-136 0 -204.5 -69t-85.5 -230h549z
M780 258v240q-169 26 -256 26q-245 0 -245 -184q0 -105 47.5 -150t124.5 -45q93 0 166.5 27t162.5 86z" />
    <glyph glyph-name="ccedilla" unicode="&#xe7;" horiz-adv-x="1101" 
d="M1049 203q-85 -122 -181.5 -177.5t-236.5 -56.5l-51 -59h47q111 0 162 -36t51 -126q0 -170 -228 -170q-121 0 -211 41l35 78q84 -27 154 -27q115 0 115 78q0 64 -78 64h-119l-57 94l57 71q-112 17 -192 63.5t-127.5 121.5t-69 170.5t-21.5 218.5q0 139 27 243t87 181.5
t162.5 117.5t246.5 40q141 0 245 -56t183 -178l-170 -88q-26 34 -44 53.5t-49 42t-71.5 33t-93.5 10.5q-163 0 -232.5 -88.5t-69.5 -310.5t69 -310.5t233 -88.5q61 0 111.5 22.5t78 49t59.5 69.5z" />
    <glyph glyph-name="egrave" unicode="&#xe8;" horiz-adv-x="1179" 
d="M1094 483h-793q3 -177 71 -256.5t232 -79.5q109 0 180 37.5t115 122.5l182 -69q-68 -139 -181 -204t-296 -65q-268 0 -393 141t-125 441q0 140 26 243t84.5 180.5t160.5 116.5t247 39q88 0 160.5 -19.5t122.5 -52.5t88 -80t60 -97t36 -110t18.5 -111.5t4.5 -108.5v-68z
M866 657q-3 136 -66.5 215.5t-195.5 79.5q-152 0 -221.5 -65t-79.5 -230h563zM289 1493l147 143l312 -325q14 -15 0 -29l-64 -57q-14 -14 -39 4z" />
    <glyph glyph-name="eacute" unicode="&#xe9;" horiz-adv-x="1179" 
d="M1094 483h-793q3 -177 71 -256.5t232 -79.5q109 0 180 37.5t115 122.5l182 -69q-68 -139 -181 -204t-296 -65q-268 0 -393 141t-125 441q0 140 26 243t84.5 180.5t160.5 116.5t247 39q88 0 160.5 -19.5t122.5 -52.5t88 -80t60 -97t36 -110t18.5 -111.5t4.5 -108.5v-68z
M866 657q-3 136 -66.5 215.5t-195.5 79.5q-152 0 -221.5 -65t-79.5 -230h563zM924 1493l-357 -264q-21 -15 -35 -4l-65 57q-13 14 0 27l313 327z" />
    <glyph glyph-name="ecircumflex" unicode="&#xea;" horiz-adv-x="1179" 
d="M1094 483h-793q3 -177 71 -256.5t232 -79.5q109 0 180 37.5t115 122.5l182 -69q-68 -139 -181 -204t-296 -65q-268 0 -393 141t-125 441q0 140 26 243t84.5 180.5t160.5 116.5t247 39q88 0 160.5 -19.5t122.5 -52.5t88 -80t60 -97t36 -110t18.5 -111.5t4.5 -108.5v-68z
M866 657q-3 136 -66.5 215.5t-195.5 79.5q-152 0 -221.5 -65t-79.5 -230h563zM936 1307l-90 -88l-256 219l-256 -219l-92 88l293 305q25 28 53 28q29 0 57 -28z" />
    <glyph glyph-name="edieresis" unicode="&#xeb;" horiz-adv-x="1179" 
d="M1094 483h-793q3 -177 71 -256.5t232 -79.5q109 0 180 37.5t115 122.5l182 -69q-68 -139 -181 -204t-296 -65q-268 0 -393 141t-125 441q0 140 26 243t84.5 180.5t160.5 116.5t247 39q88 0 160.5 -19.5t122.5 -52.5t88 -80t60 -97t36 -110t18.5 -111.5t4.5 -108.5v-68z
M866 657q-3 136 -66.5 215.5t-195.5 79.5q-152 0 -221.5 -65t-79.5 -230h563zM248 1552v-200q0 -17 14 -17h199q14 0 14 17v200q0 17 -14 17h-199q-14 0 -14 -17zM705 1552v-200q0 -17 14 -17h199q14 0 14 17v200q0 17 -14 17h-199q-14 0 -14 -17z" />
    <glyph glyph-name="igrave" unicode="&#xec;" horiz-adv-x="471" 
d="M342 0h-213v1100h213v-1100zM-39 1493l148 143l311 -325q14 -15 0 -29l-64 -57q-14 -14 -39 4z" />
    <glyph glyph-name="iacute" unicode="&#xed;" horiz-adv-x="471" 
d="M342 0h-213v1100h213v-1100zM528 1493l-356 -264q-21 -15 -35 -4l-65 57q-14 14 0 27l313 327z" />
    <glyph glyph-name="icircumflex" unicode="&#xee;" horiz-adv-x="471" 
d="M342 0h-213v1100h213v-1100zM584 1307l-90 -88l-256 219l-256 -219l-93 88l293 305q25 28 54 28t57 -28z" />
    <glyph glyph-name="idieresis" unicode="&#xef;" horiz-adv-x="471" 
d="M342 0h-213v1100h213v-1100zM-106 1552v-200q0 -17 14 -17h198q15 0 15 17v200q0 17 -15 17h-198q-14 0 -14 -17zM350 1552v-200q0 -17 15 -17h198q15 0 15 17v200q0 17 -15 17h-198q-15 0 -15 -17z" />
    <glyph glyph-name="eth" unicode="&#xf0;" horiz-adv-x="1181" 
d="M1096 543q0 -285 -118.5 -430.5t-387.5 -145.5t-386.5 145.5t-117.5 430.5q0 141 27 246t85.5 182t156.5 116t235 39q63 0 162 -22q-76 119 -207 211l-115 -90l-123 100l94 74q-106 56 -186 86l96 160q137 -49 254 -115l162 125l121 -101l-143 -112q198 -153 294.5 -374
t96.5 -525zM877 543q0 58 -2 97.5t-8.5 85.5t-18 76t-33 60t-51.5 47.5t-74 28t-100 10.5q-157 0 -223 -88.5t-66 -316.5q0 -154 30.5 -240.5t91.5 -121t167 -34.5t166.5 34.5t90.5 121t30 240.5z" />
    <glyph glyph-name="ntilde" unicode="&#xf1;" horiz-adv-x="1187" 
d="M1069 0h-215v698q0 137 -52.5 197.5t-137.5 60.5q-112 0 -230 -75l-90 -58v-823h-215v1100h176l31 -111l80 53q129 88 248 88q183 0 294 -106.5t111 -325.5v-698zM981 1505l-147 -184q-42 -53 -93 -53q-35 0 -82 24l-176 88q-21 9 -32 9q-16 0 -31 -15l-101 -108l-112 75
l139 183q42 55 88 55q32 0 84 -25l178 -88q28 -14 39 -14t25 14l104 115z" />
    <glyph glyph-name="ograve" unicode="&#xf2;" horiz-adv-x="1181" 
d="M1096 551q0 -139 -27.5 -243.5t-86 -182t-157 -117t-235.5 -39.5t-235 39.5t-156.5 117t-85.5 182t-27 243.5q0 283 118 431t386 148t387 -148t119 -431zM877 551q0 226 -65.5 315.5t-221.5 89.5t-222.5 -90t-66.5 -315q0 -226 66.5 -317t222.5 -91t221.5 91t65.5 317z
M315 1493l148 143l311 -325q14 -15 0 -29l-63 -57q-14 -14 -39 4z" />
    <glyph glyph-name="oacute" unicode="&#xf3;" horiz-adv-x="1181" 
d="M1096 551q0 -139 -27.5 -243.5t-86 -182t-157 -117t-235.5 -39.5t-235 39.5t-156.5 117t-85.5 182t-27 243.5q0 283 118 431t386 148t387 -148t119 -431zM877 551q0 226 -65.5 315.5t-221.5 89.5t-222.5 -90t-66.5 -315q0 -226 66.5 -317t222.5 -91t221.5 91t65.5 317z
M903 1493l-356 -264q-21 -15 -35 -4l-66 57q-14 14 0 27l314 327z" />
    <glyph glyph-name="ocircumflex" unicode="&#xf4;" horiz-adv-x="1181" 
d="M1096 551q0 -139 -27.5 -243.5t-86 -182t-157 -117t-235.5 -39.5t-235 39.5t-156.5 117t-85.5 182t-27 243.5q0 283 118 431t386 148t387 -148t119 -431zM877 551q0 226 -65.5 315.5t-221.5 89.5t-222.5 -90t-66.5 -315q0 -226 66.5 -317t222.5 -91t221.5 91t65.5 317z
M938 1307l-90 -88l-256 219l-256 -219l-92 88l293 305q25 28 53 28q29 0 57 -28z" />
    <glyph glyph-name="otilde" unicode="&#xf5;" horiz-adv-x="1181" 
d="M1096 551q0 -139 -27.5 -243.5t-86 -182t-157 -117t-235.5 -39.5t-235 39.5t-156.5 117t-85.5 182t-27 243.5q0 283 118 431t386 148t387 -148t119 -431zM877 551q0 226 -65.5 315.5t-221.5 89.5t-222.5 -90t-66.5 -315q0 -226 66.5 -317t222.5 -91t221.5 91t65.5 317z
M977 1505l-148 -184q-42 -53 -92 -53q-35 0 -82 24l-176 88q-21 9 -33 9q-15 0 -30 -15l-101 -108l-112 75l139 183q42 55 88 55q32 0 84 -25l178 -88q28 -14 39 -14t25 14l104 115z" />
    <glyph glyph-name="odieresis" unicode="&#xf6;" horiz-adv-x="1181" 
d="M1096 551q0 -139 -27.5 -243.5t-86 -182t-157 -117t-235.5 -39.5t-235 39.5t-156.5 117t-85.5 182t-27 243.5q0 283 118 431t386 148t387 -148t119 -431zM877 551q0 226 -65.5 315.5t-221.5 89.5t-222.5 -90t-66.5 -315q0 -226 66.5 -317t222.5 -91t221.5 91t65.5 317z
M248 1552v-200q0 -17 14 -17h199q14 0 14 17v200q0 17 -14 17h-199q-14 0 -14 -17zM705 1552v-200q0 -17 14 -17h199q14 0 14 17v200q0 17 -14 17h-199q-14 0 -14 -17z" />
    <glyph glyph-name="divide" unicode="&#xf7;" 
d="M748 1358v-217q0 -10 -3.5 -12.5t-13.5 -2.5h-215q-8 0 -11.5 1.5t-4 5t-0.5 12.5v213q0 10 3 13t13 3h215q11 0 14 -3t3 -13zM1120 645h-995v184h995v-184zM748 334v-217q0 -10 -3.5 -12.5t-13.5 -2.5h-215q-8 0 -11.5 1.5t-4 5t-0.5 12.5v213q0 10 3 13t13 3h215
q11 0 14 -3t3 -13z" />
    <glyph glyph-name="oslash" unicode="&#xf8;" horiz-adv-x="1181" 
d="M1198 1130l-180 -212q76 -146 76 -367q0 -283 -119 -432.5t-385 -149.5q-190 0 -303 72l-64 -72h-192l151 178q-96 147 -96 404q0 139 27 243t86 181t157 116t234 39q214 0 336 -96l82 96h190zM797 885q-36 39 -84.5 53t-122.5 14q-157 0 -223 -88t-66 -313
q0 -119 29 -232zM874 551q0 95 -14 180l-450 -541q63 -43 180 -43q156 0 220 89t64 315z" />
    <glyph glyph-name="ugrave" unicode="&#xf9;" horiz-adv-x="1187" 
d="M1059 0h-176l-31 111l-80 -54q-129 -88 -248 -88q-183 0 -294 106.5t-111 325.5v699h215v-699q0 -137 52.5 -197.5t137.5 -60.5q110 0 230 76l90 57v824h215v-1100zM299 1493l147 143l312 -325q14 -15 0 -29l-64 -57q-14 -14 -39 4z" />
    <glyph glyph-name="uacute" unicode="&#xfa;" horiz-adv-x="1187" 
d="M1059 0h-176l-31 111l-80 -54q-129 -88 -248 -88q-183 0 -294 106.5t-111 325.5v699h215v-699q0 -137 52.5 -197.5t137.5 -60.5q110 0 230 76l90 57v824h215v-1100zM928 1493l-357 -264q-20 -15 -34 -4l-66 57q-13 14 0 27l313 327z" />
    <glyph glyph-name="ucircumflex" unicode="&#xfb;" horiz-adv-x="1187" 
d="M1059 0h-176l-31 111l-80 -54q-129 -88 -248 -88q-183 0 -294 106.5t-111 325.5v699h215v-699q0 -137 52.5 -197.5t137.5 -60.5q110 0 230 76l90 57v824h215v-1100zM940 1307l-90 -88l-256 219l-256 -219l-92 88l293 305q25 28 53 28q29 0 57 -28z" />
    <glyph glyph-name="udieresis" unicode="&#xfc;" horiz-adv-x="1187" 
d="M1059 0h-176l-31 111l-80 -54q-129 -88 -248 -88q-183 0 -294 106.5t-111 325.5v699h215v-699q0 -137 52.5 -197.5t137.5 -60.5q110 0 230 76l90 57v824h215v-1100zM252 1552v-200q0 -17 14 -17h199q14 0 14 17v200q0 17 -14 17h-199q-14 0 -14 -17zM709 1552v-200
q0 -17 14 -17h199q14 0 14 17v200q0 17 -14 17h-199q-14 0 -14 -17z" />
    <glyph glyph-name="yacute" unicode="&#xfd;" horiz-adv-x="1124" 
d="M1094 1100l-519 -1376q-45 -120 -125.5 -170t-224.5 -50h-164v191h164q71 0 98.5 19.5t57.5 95.5l70 176l-420 1114h227l262 -703q34 -92 43 -172q16 97 45 172l262 703h224zM895 1493l-356 -264q-21 -15 -35 -4l-66 57q-14 14 0 27l314 327z" />
    <glyph glyph-name="thorn" unicode="&#xfe;" horiz-adv-x="1198" 
d="M1110 565q0 -286 -128 -441t-396 -155q-135 0 -244 66v-531h-213v2091h213v-575q80 60 145.5 85t137.5 25q125 0 219.5 -41.5t152 -118.5t85.5 -178t28 -227zM893 565q0 188 -62 287.5t-206 99.5q-77 0 -140.5 -24t-142.5 -82v-637q112 -76 244 -76q157 0 232 105.5
t75 326.5z" />
    <glyph glyph-name="ydieresis" unicode="&#xff;" horiz-adv-x="1124" 
d="M1094 1100l-519 -1376q-45 -120 -125.5 -170t-224.5 -50h-164v191h164q71 0 98.5 19.5t57.5 95.5l70 176l-420 1114h227l262 -703q34 -92 43 -172q16 97 45 172l262 703h224zM219 1552v-200q0 -17 14 -17h199q14 0 14 17v200q0 17 -14 17h-199q-14 0 -14 -17zM676 1552
v-200q0 -17 14 -17h199q14 0 14 17v200q0 17 -14 17h-199q-14 0 -14 -17z" />
    <glyph glyph-name="Amacron" unicode="&#x100;" horiz-adv-x="1368" 
d="M1348 0h-228l-164 436h-550l-164 -436h-222l551 1477h228zM887 627l-182 495q-10 25 -23 101q-11 -65 -23 -99l-182 -497h410zM1034 1636h-700v168h700v-168z" />
    <glyph glyph-name="amacron" unicode="&#x101;" horiz-adv-x="1128" 
d="M997 0h-176l-22 80q-167 -111 -346 -111q-195 0 -292.5 100.5t-97.5 270.5q0 352 420 352q141 0 299 -35v142q0 80 -47 118.5t-155 38.5q-100 0 -173 -29.5t-124 -103.5l-162 95q123 212 463 212q102 0 178 -20t120 -51t70.5 -76.5t35.5 -89t9 -96.5v-797zM782 252v246
q-173 26 -256 26q-245 0 -245 -184q0 -193 172 -193q96 0 169 24.5t160 80.5zM913 1350h-700v168h700v-168z" />
    <glyph glyph-name="Abreve" unicode="&#x102;" horiz-adv-x="1368" 
d="M1348 0h-228l-164 436h-550l-164 -436h-222l551 1477h228zM887 627l-182 495q-10 25 -23 101q-11 -65 -23 -99l-182 -497h410zM1034 1835q-42 -84 -86 -136.5t-110.5 -85t-153.5 -32.5q-127 0 -208 63.5t-144 190.5l121 78q64 -97 111.5 -130.5t117.5 -33.5t119 33.5
t112 130.5z" />
    <glyph glyph-name="abreve" unicode="&#x103;" horiz-adv-x="1128" 
d="M997 0h-176l-22 80q-167 -111 -346 -111q-195 0 -292.5 100.5t-97.5 270.5q0 352 420 352q141 0 299 -35v142q0 80 -47 118.5t-155 38.5q-100 0 -173 -29.5t-124 -103.5l-162 95q123 212 463 212q102 0 178 -20t120 -51t70.5 -76.5t35.5 -89t9 -96.5v-797zM782 252v246
q-173 26 -256 26q-245 0 -245 -184q0 -193 172 -193q96 0 169 24.5t160 80.5zM915 1528q-42 -84 -86 -136.5t-110.5 -85t-153.5 -32.5q-127 0 -208 63.5t-144 190.5l121 78q64 -97 111.5 -130.5t117.5 -33.5q71 0 120 34t112 130z" />
    <glyph glyph-name="Aogonek" unicode="&#x104;" horiz-adv-x="1368" 
d="M1348 0q-125 -73 -188.5 -119t-78 -67.5t-14.5 -46.5q0 -44 31 -63t78 -19q66 0 157 26l33 -80q-103 -45 -219 -45q-98 0 -161.5 44t-63.5 137q0 51 44.5 112.5t153.5 120.5l-164 436h-550l-164 -436h-222l551 1477h228zM887 627l-182 495q-10 25 -23 101
q-11 -65 -23 -99l-182 -497h410z" />
    <glyph glyph-name="aogonek" unicode="&#x105;" horiz-adv-x="1128" 
d="M997 0l-188 -127q-39 -26 -59.5 -47t-24.5 -32t-4 -27q0 -82 108 -82q67 0 158 26l33 -80q-103 -45 -219 -45q-99 0 -162.5 44t-63.5 137q0 84 78 137l164 110l-18 66q-167 -111 -346 -111q-195 0 -292.5 100.5t-97.5 270.5q0 352 420 352q141 0 299 -35v142
q0 80 -47 118.5t-155 38.5q-100 0 -173 -29.5t-124 -103.5l-162 95q123 212 463 212q102 0 178 -20t120 -51t70.5 -76.5t35.5 -89t9 -96.5v-797zM782 252v246q-173 26 -256 26q-245 0 -245 -184q0 -193 172 -193q96 0 169 24.5t160 80.5z" />
    <glyph glyph-name="Cacute" unicode="&#x106;" horiz-adv-x="1292" 
d="M1221 295q-144 -328 -525 -328q-147 0 -257.5 41t-177.5 109.5t-108.5 170.5t-57 209.5t-15.5 241.5q0 146 18 261t61 212.5t111 161.5t171.5 99.5t240.5 35.5q107 0 193.5 -24.5t144.5 -65.5t98.5 -98.5t60 -119t23.5 -130.5h-201q-33 250 -321 250q-72 0 -128 -14.5
t-96 -39t-68.5 -65.5t-45.5 -85.5t-27 -108.5t-13 -125t-3 -144q0 -74 3.5 -132.5t14 -121t28.5 -109.5t48 -90t71 -70.5t100 -43.5t132 -16q127 0 211.5 57.5t141.5 185.5zM1020 1860l-356 -265q-21 -15 -35 -4l-66 58q-13 13 0 26l314 328z" />
    <glyph glyph-name="cacute" unicode="&#x107;" horiz-adv-x="1101" 
d="M1049 199q-86 -123 -184.5 -176.5t-243.5 -53.5q-144 0 -246 39.5t-162.5 116.5t-87.5 181t-27 243t27 243t87.5 181.5t162.5 117t246 39.5q142 0 246 -55t182 -176l-168 -86q-25 33 -44 53t-50 42.5t-72 33t-94 10.5q-165 0 -235.5 -89t-70.5 -314t70 -313.5t236 -88.5
q61 0 112 22t79 49t60 69zM942 1493l-356 -264q-21 -15 -35 -4l-66 57q-13 14 0 27l314 327z" />
    <glyph glyph-name="Ccircumflex" unicode="&#x108;" horiz-adv-x="1292" 
d="M1221 295q-144 -328 -525 -328q-147 0 -257.5 41t-177.5 109.5t-108.5 170.5t-57 209.5t-15.5 241.5q0 146 18 261t61 212.5t111 161.5t171.5 99.5t240.5 35.5q107 0 193.5 -24.5t144.5 -65.5t98.5 -98.5t60 -119t23.5 -130.5h-201q-33 250 -321 250q-72 0 -128 -14.5
t-96 -39t-68.5 -65.5t-45.5 -85.5t-27 -108.5t-13 -125t-3 -144q0 -74 3.5 -132.5t14 -121t28.5 -109.5t48 -90t71 -70.5t100 -43.5t132 -16q127 0 211.5 57.5t141.5 185.5zM1034 1669l-90 -88l-256 219l-256 -219l-92 88l293 305q26 29 53 29q28 0 57 -29z" />
    <glyph glyph-name="ccircumflex" unicode="&#x109;" horiz-adv-x="1101" 
d="M1049 199q-86 -123 -184.5 -176.5t-243.5 -53.5q-144 0 -246 39.5t-162.5 116.5t-87.5 181t-27 243t27 243t87.5 181.5t162.5 117t246 39.5q142 0 246 -55t182 -176l-168 -86q-25 33 -44 53t-50 42.5t-72 33t-94 10.5q-165 0 -235.5 -89t-70.5 -314t70 -313.5t236 -88.5
q61 0 112 22t79 49t60 69zM954 1307l-90 -88l-256 219l-256 -219l-92 88l293 305q25 28 53 28q30 0 58 -28z" />
    <glyph glyph-name="Cdotaccent" unicode="&#x10a;" horiz-adv-x="1292" 
d="M1221 295q-144 -328 -525 -328q-147 0 -257.5 41t-177.5 109.5t-108.5 170.5t-57 209.5t-15.5 241.5q0 146 18 261t61 212.5t111 161.5t171.5 99.5t240.5 35.5q107 0 193.5 -24.5t144.5 -65.5t98.5 -98.5t60 -119t23.5 -130.5h-201q-33 250 -321 250q-72 0 -128 -14.5
t-96 -39t-68.5 -65.5t-45.5 -85.5t-27 -108.5t-13 -125t-3 -144q0 -74 3.5 -132.5t14 -121t28.5 -109.5t48 -90t71 -70.5t100 -43.5t132 -16q127 0 211.5 57.5t141.5 185.5zM547 1882v-227q0 -21 16 -21h236q16 0 16 21v227q0 21 -16 21h-236q-16 0 -16 -21z" />
    <glyph glyph-name="cdotaccent" unicode="&#x10b;" horiz-adv-x="1101" 
d="M1049 199q-86 -123 -184.5 -176.5t-243.5 -53.5q-144 0 -246 39.5t-162.5 116.5t-87.5 181t-27 243t27 243t87.5 181.5t162.5 117t246 39.5q142 0 246 -55t182 -176l-168 -86q-25 33 -44 53t-50 42.5t-72 33t-94 10.5q-165 0 -235.5 -89t-70.5 -314t70 -313.5t236 -88.5
q61 0 112 22t79 49t60 69zM467 1518v-228q0 -12 3.5 -16t12.5 -4h236q9 0 12.5 4t3.5 16v228q0 12 -3.5 16t-12.5 4h-236q-9 0 -12.5 -4t-3.5 -16z" />
    <glyph glyph-name="Ccaron" unicode="&#x10c;" horiz-adv-x="1292" 
d="M1221 295q-144 -328 -525 -328q-147 0 -257.5 41t-177.5 109.5t-108.5 170.5t-57 209.5t-15.5 241.5q0 146 18 261t61 212.5t111 161.5t171.5 99.5t240.5 35.5q107 0 193.5 -24.5t144.5 -65.5t98.5 -98.5t60 -119t23.5 -130.5h-201q-33 250 -321 250q-72 0 -128 -14.5
t-96 -39t-68.5 -65.5t-45.5 -85.5t-27 -108.5t-13 -125t-3 -144q0 -74 3.5 -132.5t14 -121t28.5 -109.5t48 -90t71 -70.5t100 -43.5t132 -16q127 0 211.5 57.5t141.5 185.5zM1014 1915l-291 -305q-26 -29 -53 -29q-31 0 -60 29l-291 305l93 88l256 -219l256 219z" />
    <glyph glyph-name="ccaron" unicode="&#x10d;" horiz-adv-x="1101" 
d="M1049 199q-86 -123 -184.5 -176.5t-243.5 -53.5q-144 0 -246 39.5t-162.5 116.5t-87.5 181t-27 243t27 243t87.5 181.5t162.5 117t246 39.5q142 0 246 -55t182 -176l-168 -86q-25 33 -44 53t-50 42.5t-72 33t-94 10.5q-165 0 -235.5 -89t-70.5 -314t70 -313.5t236 -88.5
q61 0 112 22t79 49t60 69zM961 1552l-291 -305q-25 -28 -54 -28q-31 0 -59 28l-291 305l92 88l256 -219l256 219z" />
    <glyph glyph-name="Dcaron" unicode="&#x10e;" horiz-adv-x="1359" 
d="M1280 756q0 -128 -24 -238.5t-79 -207t-137.5 -164.5t-206 -107t-278.5 -39h-434v1477h434q152 0 274 -35.5t205.5 -99.5t139 -154.5t81 -198t25.5 -233.5zM1061 756q0 271 -124.5 402.5t-381.5 131.5h-219v-1104h219q257 0 381.5 142t124.5 428zM985 1915l-291 -305
q-26 -29 -53 -29q-30 0 -59 29l-291 305l92 88l256 -219l256 219z" />
    <glyph glyph-name="dcaron" unicode="&#x10f;" horiz-adv-x="1343" 
d="M1069 0h-149l-31 80q-145 -111 -307 -111q-496 0 -496 580q0 293 123.5 437t372.5 144q73 0 151 -20.5t139 -60.5q-2 9 -6.5 22.5t-6.5 20t-3.5 18t-1.5 25.5v460h215v-1595zM854 236v649q-117 67 -272 67q-99 0 -158.5 -35.5t-91 -124.5t-31.5 -243q0 -76 6.5 -133.5
t24.5 -111.5t49 -88t81.5 -54.5t119.5 -20.5q76 0 139.5 24.5t132.5 70.5zM1528 1595l-142 -479q-3 -19 -9 -24t-23 -5h-72q-15 0 -20 5.5t-5 23.5l62 479h209z" />
    <glyph glyph-name="Dcroat" unicode="&#x110;" horiz-adv-x="1359" 
d="M1280 756q0 -128 -24 -238.5t-79 -207t-137.5 -164.5t-206 -107t-278.5 -39h-434v684h-170v180h170v613h434q152 0 274 -35.5t205.5 -99.5t139 -154.5t81 -198t25.5 -233.5zM1061 756q0 271 -124.5 402.5t-381.5 131.5h-219v-426h262l-53 -180h-209v-498h219
q257 0 381.5 142t124.5 428z" />
    <glyph glyph-name="dcroat" unicode="&#x111;" horiz-adv-x="1200" 
d="M1069 0h-149l-31 80q-145 -111 -307 -111q-496 0 -496 580q0 293 123.5 437t372.5 144q73 0 151 -20.5t139 -60.5q-2 9 -6.5 22.5t-6.5 20t-3.5 18t-1.5 25.5v104h-410v178h410v178h215v-178h131v-178h-131v-1239zM854 236v649q-117 67 -272 67q-99 0 -158.5 -35.5
t-91 -124.5t-31.5 -243q0 -76 6.5 -133.5t24.5 -111.5t49 -88t81.5 -54.5t119.5 -20.5q76 0 139.5 24.5t132.5 70.5z" />
    <glyph glyph-name="Emacron" unicode="&#x112;" horiz-adv-x="1165" 
d="M1085 0h-964v1477h962v-195h-747v-405h676l-56 -199h-634q14 -37 14 -64v-419h749v-195zM950 1636h-700v168h700v-168z" />
    <glyph glyph-name="emacron" unicode="&#x113;" horiz-adv-x="1179" 
d="M1094 483h-793q3 -177 71 -256.5t232 -79.5q109 0 180 37.5t115 122.5l182 -69q-68 -139 -181 -204t-296 -65q-268 0 -393 141t-125 441q0 140 26 243t84.5 180.5t160.5 116.5t247 39q88 0 160.5 -19.5t122.5 -52.5t88 -80t60 -97t36 -110t18.5 -111.5t4.5 -108.5v-68z
M866 657q-3 136 -66.5 215.5t-195.5 79.5q-152 0 -221.5 -65t-79.5 -230h563zM940 1350h-700v168h700v-168z" />
    <glyph glyph-name="Ebreve" unicode="&#x114;" horiz-adv-x="1165" 
d="M1085 0h-964v1477h962v-195h-747v-405h676l-56 -199h-634q14 -37 14 -64v-419h749v-195zM934 1835q-42 -84 -86 -136.5t-110.5 -85t-153.5 -32.5q-128 0 -209 63.5t-144 190.5l121 78q63 -97 111.5 -130.5t118.5 -33.5t119 33.5t112 130.5z" />
    <glyph glyph-name="ebreve" unicode="&#x115;" horiz-adv-x="1179" 
d="M1094 483h-793q3 -177 71 -256.5t232 -79.5q109 0 180 37.5t115 122.5l182 -69q-68 -139 -181 -204t-296 -65q-268 0 -393 141t-125 441q0 140 26 243t84.5 180.5t160.5 116.5t247 39q88 0 160.5 -19.5t122.5 -52.5t88 -80t60 -97t36 -110t18.5 -111.5t4.5 -108.5v-68z
M866 657q-3 136 -66.5 215.5t-195.5 79.5q-152 0 -221.5 -65t-79.5 -230h563zM940 1528q-42 -84 -86 -136.5t-110.5 -85t-153.5 -32.5q-127 0 -208 63.5t-144 190.5l120 78q63 -97 111.5 -130.5t118.5 -33.5t119 33.5t112 130.5z" />
    <glyph glyph-name="Edotaccent" unicode="&#x116;" horiz-adv-x="1165" 
d="M1085 0h-964v1477h962v-195h-747v-405h676l-56 -199h-634q14 -37 14 -64v-419h749v-195zM463 1884v-227q0 -21 16 -21h236q16 0 16 21v227q0 21 -16 21h-236q-16 0 -16 -21z" />
    <glyph glyph-name="edotaccent" unicode="&#x117;" horiz-adv-x="1179" 
d="M1094 483h-793q3 -177 71 -256.5t232 -79.5q109 0 180 37.5t115 122.5l182 -69q-68 -139 -181 -204t-296 -65q-268 0 -393 141t-125 441q0 140 26 243t84.5 180.5t160.5 116.5t247 39q88 0 160.5 -19.5t122.5 -52.5t88 -80t60 -97t36 -110t18.5 -111.5t4.5 -108.5v-68z
M866 657q-3 136 -66.5 215.5t-195.5 79.5q-152 0 -221.5 -65t-79.5 -230h563zM455 1518v-228q0 -12 3.5 -16t12.5 -4h236q9 0 12.5 4t3.5 16v228q0 12 -3.5 16t-12.5 4h-236q-9 0 -12.5 -4t-3.5 -16z" />
    <glyph glyph-name="Eogonek" unicode="&#x118;" horiz-adv-x="1165" 
d="M1085 0h-96l-170 -168q-26 -26 -26 -65q0 -82 108 -82q67 0 158 26l33 -80q-103 -45 -220 -45q-98 0 -161.5 44t-63.5 137q0 39 18.5 70t59.5 67l104 96h-708v1477h962v-195h-747v-405h676l-56 -199h-634q14 -37 14 -64v-419h749v-195z" />
    <glyph glyph-name="eogonek" unicode="&#x119;" horiz-adv-x="1179" 
d="M1094 483h-793q3 -177 71 -256.5t232 -79.5q109 0 180 37.5t115 122.5l182 -69q-80 -160 -209 -220l-188 -186q-27 -27 -27 -65q0 -44 31 -63t78 -19q67 0 158 26l32 -80q-103 -45 -219 -45q-98 0 -161.5 44t-63.5 137q0 39 18.5 70t59.5 67l74 67q-20 -2 -60 -2
q-268 0 -393 141t-125 441q0 140 26 243t84.5 180.5t160.5 116.5t247 39q88 0 160.5 -19.5t122.5 -52.5t88 -80t60 -97t36 -110t18.5 -111.5t4.5 -108.5v-68zM866 657q-3 136 -66.5 215.5t-195.5 79.5q-152 0 -221.5 -65t-79.5 -230h563z" />
    <glyph glyph-name="Ecaron" unicode="&#x11a;" horiz-adv-x="1165" 
d="M1085 0h-964v1477h962v-195h-747v-405h676l-56 -199h-634q14 -37 14 -64v-419h749v-195zM950 1915l-291 -305q-26 -29 -53 -29q-30 0 -59 29l-291 305l92 88l256 -219l256 219z" />
    <glyph glyph-name="ecaron" unicode="&#x11b;" horiz-adv-x="1179" 
d="M1094 483h-793q3 -177 71 -256.5t232 -79.5q109 0 180 37.5t115 122.5l182 -69q-68 -139 -181 -204t-296 -65q-268 0 -393 141t-125 441q0 140 26 243t84.5 180.5t160.5 116.5t247 39q88 0 160.5 -19.5t122.5 -52.5t88 -80t60 -97t36 -110t18.5 -111.5t4.5 -108.5v-68z
M866 657q-3 136 -66.5 215.5t-195.5 79.5q-152 0 -221.5 -65t-79.5 -230h563zM936 1552l-291 -305q-25 -28 -53 -28q-32 0 -60 28l-290 305l92 88l256 -219l256 219z" />
    <glyph glyph-name="Gcircumflex" unicode="&#x11c;" horiz-adv-x="1363" 
d="M1243 174q-58 -48 -104.5 -79.5t-111.5 -63t-141.5 -47t-166.5 -15.5q-334 0 -486.5 196.5t-152.5 573.5q0 137 19.5 249.5t65.5 211t118 165.5t182 105.5t252 38.5q132 0 233.5 -36.5t161.5 -99.5t91.5 -138.5t37.5 -163.5h-201q-33 250 -323 250q-100 0 -174 -27
t-120.5 -74t-74.5 -122t-38.5 -160t-10.5 -199q0 -108 10.5 -190.5t38 -159t74 -126t121.5 -78.5t176 -29t169.5 22.5t139.5 69.5v297q0 10 10 43h-321l-55 196h581v-610zM1069 1667l-90 -88l-256 219l-256 -219l-92 88l293 305q26 29 53 29q28 0 57 -29z" />
    <glyph glyph-name="gcircumflex" unicode="&#x11d;" horiz-adv-x="1214" 
d="M1186 1130l-37 -198h-55q-50 0 -115 33q80 -104 80 -230q0 -201 -118 -294t-345 -93q-46 0 -154 17q-40 8 -63 8q-68 0 -68 -64q0 -32 19.5 -45t58.5 -20l436 -78q91 -17 152.5 -45t95 -69t47 -87.5t13.5 -109.5q0 -93 -39 -161.5t-112.5 -109.5t-170 -60.5t-219.5 -19.5
q-56 0 -103 3t-104.5 12.5t-102.5 26t-89.5 46t-74 69t-47.5 98t-18 130.5q0 164 150 287q-58 45 -58 133q0 45 26 82t69 58q-109 119 -109 286q0 105 38 183t104.5 123.5t147 67t175.5 21.5q170 0 281 -57l157 57h152zM840 735q0 109 -60.5 167.5t-183.5 58.5
q-122 0 -184 -55t-62 -171q0 -117 64 -166t182 -49q133 0 188.5 45t55.5 170zM915 -145q0 130 -120 153l-447 82q-78 -55 -78 -201q0 -114 75.5 -168.5t246.5 -54.5q176 0 249.5 47t73.5 142zM954 1307l-90 -88l-256 219l-256 -219l-92 88l293 305q25 28 53 28q30 0 58 -28z
" />
    <glyph glyph-name="Gbreve" unicode="&#x11e;" horiz-adv-x="1363" 
d="M1243 174q-58 -48 -104.5 -79.5t-111.5 -63t-141.5 -47t-166.5 -15.5q-334 0 -486.5 196.5t-152.5 573.5q0 137 19.5 249.5t65.5 211t118 165.5t182 105.5t252 38.5q132 0 233.5 -36.5t161.5 -99.5t91.5 -138.5t37.5 -163.5h-201q-33 250 -323 250q-100 0 -174 -27
t-120.5 -74t-74.5 -122t-38.5 -160t-10.5 -199q0 -108 10.5 -190.5t38 -159t74 -126t121.5 -78.5t176 -29t169.5 22.5t139.5 69.5v297q0 10 10 43h-321l-55 196h581v-610zM1032 1835q-42 -84 -86 -136.5t-110.5 -85t-153.5 -32.5q-127 0 -208 63.5t-144 190.5l121 78
q64 -97 111.5 -130.5t117.5 -33.5t119 33.5t112 130.5z" />
    <glyph glyph-name="gbreve" unicode="&#x11f;" horiz-adv-x="1214" 
d="M1186 1130l-37 -198h-55q-50 0 -115 33q80 -104 80 -230q0 -201 -118 -294t-345 -93q-46 0 -154 17q-40 8 -63 8q-68 0 -68 -64q0 -32 19.5 -45t58.5 -20l436 -78q91 -17 152.5 -45t95 -69t47 -87.5t13.5 -109.5q0 -93 -39 -161.5t-112.5 -109.5t-170 -60.5t-219.5 -19.5
q-56 0 -103 3t-104.5 12.5t-102.5 26t-89.5 46t-74 69t-47.5 98t-18 130.5q0 164 150 287q-58 45 -58 133q0 45 26 82t69 58q-109 119 -109 286q0 105 38 183t104.5 123.5t147 67t175.5 21.5q170 0 281 -57l157 57h152zM840 735q0 109 -60.5 167.5t-183.5 58.5
q-122 0 -184 -55t-62 -171q0 -117 64 -166t182 -49q133 0 188.5 45t55.5 170zM915 -145q0 130 -120 153l-447 82q-78 -55 -78 -201q0 -114 75.5 -168.5t246.5 -54.5q176 0 249.5 47t73.5 142zM958 1528q-42 -84 -86 -136.5t-110.5 -85t-153.5 -32.5q-127 0 -208 63.5
t-144 190.5l121 78q64 -97 111.5 -130.5t117.5 -33.5q71 0 120 34t112 130z" />
    <glyph glyph-name="Gdotaccent" unicode="&#x120;" horiz-adv-x="1363" 
d="M1243 174q-58 -48 -104.5 -79.5t-111.5 -63t-141.5 -47t-166.5 -15.5q-334 0 -486.5 196.5t-152.5 573.5q0 137 19.5 249.5t65.5 211t118 165.5t182 105.5t252 38.5q132 0 233.5 -36.5t161.5 -99.5t91.5 -138.5t37.5 -163.5h-201q-33 250 -323 250q-100 0 -174 -27
t-120.5 -74t-74.5 -122t-38.5 -160t-10.5 -199q0 -108 10.5 -190.5t38 -159t74 -126t121.5 -78.5t176 -29t169.5 22.5t139.5 69.5v297q0 10 10 43h-321l-55 196h581v-610zM567 1884v-227q0 -21 17 -21h235q17 0 17 21v227q0 21 -17 21h-235q-17 0 -17 -21z" />
    <glyph glyph-name="gdotaccent" unicode="&#x121;" horiz-adv-x="1214" 
d="M1186 1130l-37 -198h-55q-50 0 -115 33q80 -104 80 -230q0 -201 -118 -294t-345 -93q-46 0 -154 17q-40 8 -63 8q-68 0 -68 -64q0 -32 19.5 -45t58.5 -20l436 -78q91 -17 152.5 -45t95 -69t47 -87.5t13.5 -109.5q0 -93 -39 -161.5t-112.5 -109.5t-170 -60.5t-219.5 -19.5
q-56 0 -103 3t-104.5 12.5t-102.5 26t-89.5 46t-74 69t-47.5 98t-18 130.5q0 164 150 287q-58 45 -58 133q0 45 26 82t69 58q-109 119 -109 286q0 105 38 183t104.5 123.5t147 67t175.5 21.5q170 0 281 -57l157 57h152zM840 735q0 109 -60.5 167.5t-183.5 58.5
q-122 0 -184 -55t-62 -171q0 -117 64 -166t182 -49q133 0 188.5 45t55.5 170zM915 -145q0 130 -120 153l-447 82q-78 -55 -78 -201q0 -114 75.5 -168.5t246.5 -54.5q176 0 249.5 47t73.5 142zM473 1518v-228q0 -12 3.5 -16t12.5 -4h236q9 0 12.5 4t3.5 16v228q0 12 -3.5 16
t-12.5 4h-236q-9 0 -12.5 -4t-3.5 -16z" />
    <glyph glyph-name="Gcommaaccent" unicode="&#x122;" horiz-adv-x="1363" 
d="M1243 174q-58 -48 -104.5 -79.5t-111.5 -63t-141.5 -47t-166.5 -15.5q-334 0 -486.5 196.5t-152.5 573.5q0 137 19.5 249.5t65.5 211t118 165.5t182 105.5t252 38.5q132 0 233.5 -36.5t161.5 -99.5t91.5 -138.5t37.5 -163.5h-201q-33 250 -323 250q-100 0 -174 -27
t-120.5 -74t-74.5 -122t-38.5 -160t-10.5 -199q0 -108 10.5 -190.5t38 -159t74 -126t121.5 -78.5t176 -29t169.5 22.5t139.5 69.5v297q0 10 10 43h-321l-55 196h581v-610zM739 -559l-92 63q51 69 51 174h-104q-14 0 -17.5 5t-3.5 18v188q0 17 5.5 21t15.5 4h227q21 0 21 -25
v-139q0 -96 -20.5 -167.5t-82.5 -141.5z" />
    <glyph glyph-name="gcommaaccent" unicode="&#x123;" horiz-adv-x="1214" 
d="M1186 1130l-37 -198h-55q-50 0 -115 33q80 -104 80 -230q0 -201 -118 -294t-345 -93q-46 0 -154 17q-40 8 -63 8q-68 0 -68 -64q0 -32 19.5 -45t58.5 -20l436 -78q91 -17 152.5 -45t95 -69t47 -87.5t13.5 -109.5q0 -93 -39 -161.5t-112.5 -109.5t-170 -60.5t-219.5 -19.5
q-56 0 -103 3t-104.5 12.5t-102.5 26t-89.5 46t-74 69t-47.5 98t-18 130.5q0 164 150 287q-58 45 -58 133q0 45 26 82t69 58q-109 119 -109 286q0 105 38 183t104.5 123.5t147 67t175.5 21.5q170 0 281 -57l157 57h152zM840 735q0 109 -60.5 167.5t-183.5 58.5
q-122 0 -184 -55t-62 -171q0 -117 64 -166t182 -49q133 0 188.5 45t55.5 170zM915 -145q0 130 -120 153l-447 82q-78 -55 -78 -201q0 -114 75.5 -168.5t246.5 -54.5q176 0 249.5 47t73.5 142zM573 1726l93 -63q-52 -70 -52 -174h105q14 0 17 -4.5t3 -18.5v-188q0 -17 -5 -21
t-15 -4h-227q-21 0 -21 25v139q0 97 20 168t82 141z" />
    <glyph glyph-name="Hcircumflex" unicode="&#x124;" horiz-adv-x="1423" 
d="M1303 0h-216v680h-751v-680h-215v1477h215v-598h751v598h216v-1477zM1069 1669l-90 -88l-256 219l-256 -219l-92 88l293 305q26 29 53 29q28 0 57 -29z" />
    <glyph glyph-name="hcircumflex" unicode="&#x125;" horiz-adv-x="1187" 
d="M1069 0h-215v698q0 137 -52.5 197.5t-137.5 60.5q-112 0 -230 -75l-90 -58v-823h-215v1595h215v-510q0 -51 -20 -106l92 63q127 88 248 88q183 0 294 -106.5t111 -325.5v-698zM940 1722l-90 -88l-256 219l-256 -219l-92 88l293 306q25 28 53 28q29 0 57 -28z" />
    <glyph glyph-name="Hbar" unicode="&#x126;" horiz-adv-x="1423" 
d="M0 1081v191h121v205h215v-205h751v205h216v-205h120v-191h-120v-1081h-216v680h-751v-680h-215v1081h-121zM336 879h751v202h-751v-202z" />
    <glyph glyph-name="hbar" unicode="&#x127;" horiz-adv-x="1187" 
d="M754 1239h-410v-154q0 -51 -20 -106l92 63q127 88 248 88q183 0 294 -106.5t111 -325.5v-698h-215v698q0 137 -52.5 197.5t-137.5 60.5q-112 0 -230 -75l-90 -58v-823h-215v1239h-131v178h131v178h215v-178h410v-178z" />
    <glyph glyph-name="Itilde" unicode="&#x128;" horiz-adv-x="454" 
d="M334 0h-213v1477h213v-1477zM614 1823l-147 -185q-42 -53 -92 -53q-34 0 -82 25l-176 88q-19 8 -33 8q-17 0 -31 -14l-100 -109l-113 76l140 182q42 55 88 55q35 0 84 -24l178 -88q30 -15 39 -15t24 15l105 114z" />
    <glyph glyph-name="itilde" unicode="&#x129;" horiz-adv-x="471" 
d="M342 0h-213v1100h213v-1100zM623 1505l-148 -184q-42 -53 -92 -53q-35 0 -82 24l-176 88q-21 9 -33 9q-16 0 -31 -15l-100 -108l-113 75l140 183q42 55 88 55q32 0 84 -25l178 -88q28 -14 39 -14q10 0 24 14l105 115z" />
    <glyph glyph-name="Imacron" unicode="&#x12a;" horiz-adv-x="454" 
d="M334 0h-213v1477h213v-1477zM578 1636h-701v168h701v-168z" />
    <glyph glyph-name="imacron" unicode="&#x12b;" horiz-adv-x="471" 
d="M342 0h-213v1100h213v-1100zM586 1350h-701v168h701v-168z" />
    <glyph glyph-name="Ibreve" unicode="&#x12c;" horiz-adv-x="454" 
d="M334 0h-213v1477h213v-1477zM580 1835q-42 -84 -86 -136.5t-111 -85t-154 -32.5q-127 0 -208 63.5t-144 190.5l121 78q64 -97 111.5 -130.5t117.5 -33.5q71 0 120 34t112 130z" />
    <glyph glyph-name="ibreve" unicode="&#x12d;" horiz-adv-x="471" 
d="M342 0h-213v1100h213v-1100zM588 1528q-42 -84 -86 -136.5t-110.5 -85t-153.5 -32.5q-128 0 -209 63.5t-144 190.5l121 78q63 -97 111.5 -130.5t118.5 -33.5t119 33.5t112 130.5z" />
    <glyph glyph-name="Iogonek" unicode="&#x12e;" horiz-adv-x="454" 
d="M334 0q-100 -83 -142 -133.5t-42 -95.5q0 -44 31.5 -65t78.5 -21q67 0 158 26l31 -80q-99 -45 -218 -45q-229 0 -229 185q0 61 25 109.5t94 119.5v1477h213v-1477z" />
    <glyph glyph-name="iogonek" unicode="&#x12f;" horiz-adv-x="471" 
d="M342 0h-2l-133 -143q-47 -52 -47 -95q0 -45 29.5 -61t78.5 -16q67 0 158 26l33 -80q-103 -45 -219 -45q-97 0 -162.5 55.5t-65.5 163.5q0 54 22 91.5t66 76.5l29 27v1100h213v-1100zM111 1575v-207q0 -12 3.5 -16t12.5 -4h219q9 0 12.5 4t3.5 16v207q0 12 -3.5 16
t-12.5 4h-219q-9 0 -12.5 -4t-3.5 -16z" />
    <glyph glyph-name="Idotaccent" unicode="&#x130;" horiz-adv-x="454" 
d="M334 0h-213v1477h213v-1477zM94 1882v-227q0 -21 17 -21h235q16 0 16 21v227q0 21 -16 21h-235q-17 0 -17 -21z" />
    <glyph glyph-name="dotlessi" unicode="&#x131;" horiz-adv-x="471" 
d="M342 0h-213v1100h213v-1100z" />
    <glyph glyph-name="IJ" unicode="&#x132;" horiz-adv-x="1331" 
d="M334 0h-213v1477h213v-1477zM1210 436q0 -249 -111 -358t-317 -109q-90 0 -161 25t-150 90l102 147q101 -81 207 -81q121 0 168 63t47 223v1041h215v-1041z" />
    <glyph glyph-name="ij" unicode="&#x133;" horiz-adv-x="942" 
d="M111 1575v-207q0 -12 3.5 -16t12.5 -4h219q9 0 12.5 4t3.5 16v207q0 12 -3.5 16t-12.5 4h-219q-9 0 -12.5 -4t-3.5 -16zM342 0h-213v1100h213v-1100zM813 -203q0 -134 -77.5 -213.5t-241.5 -79.5h-117v174h117q59 0 82.5 29t23.5 90v1303h213v-1303zM582 1575v-207
q0 -12 3.5 -16t12.5 -4h219q17 0 17 20v207q0 20 -17 20h-219q-9 0 -12.5 -4t-3.5 -16z" />
    <glyph glyph-name="Jcircumflex" unicode="&#x134;" horiz-adv-x="876" 
d="M756 436q0 -249 -111 -358t-317 -109q-90 0 -161.5 25t-150.5 90l103 147q101 -81 207 -81q121 0 168 63t47 223v1041h215v-1041zM995 1665l-90 -88l-256 219l-256 -219l-92 88l293 305q26 29 53 29q29 0 58 -29z" />
    <glyph glyph-name="jcircumflex" unicode="&#x135;" horiz-adv-x="471" 
d="M342 -203q0 -134 -77.5 -213.5t-241.5 -79.5h-117v174h117q59 0 82.5 29t23.5 90v1303h213v-1303zM584 1307l-90 -88l-256 219l-256 -219l-93 88l293 305q25 28 54 28t57 -28z" />
    <glyph glyph-name="Kcommaaccent" unicode="&#x136;" horiz-adv-x="1314" 
d="M1321 1477l-676 -639l660 -838h-273l-520 655q-9 11 -18 39l-158 -155v-539h-215v1477h215v-658l686 658h299zM688 -559l-92 63q51 69 51 174h-104q-14 0 -17.5 5t-3.5 18v188q0 17 5.5 21t15.5 4h227q21 0 21 -25v-139q0 -96 -20.5 -167.5t-82.5 -141.5z" />
    <glyph glyph-name="kcommaaccent" unicode="&#x137;" horiz-adv-x="1155" 
d="M1137 0h-275l-393 502q-8 11 -25 61l-98 -74v-489h-215v1595h215v-856l455 361h327l-526 -412zM608 -559l-92 63q51 69 51 174h-104q-14 0 -17.5 5t-3.5 18v188q0 17 5.5 21t15.5 4h227q21 0 21 -25v-139q0 -96 -20.5 -167.5t-82.5 -141.5z" />
    <glyph glyph-name="kgreenlandic" unicode="&#x138;" horiz-adv-x="1155" 
d="M1137 0h-275l-393 502q-8 11 -25 61l-98 -74v-489h-215v1100h215v-361l455 361h327l-526 -412z" />
    <glyph glyph-name="Lacute" unicode="&#x139;" horiz-adv-x="1046" 
d="M977 0h-856v1477h215v-1282h641v-195zM836 1853l-357 -264q-21 -15 -35 -4l-65 57q-13 14 0 27l313 328z" />
    <glyph glyph-name="lacute" unicode="&#x13a;" horiz-adv-x="579" 
d="M528 -18h-153q-126 0 -186 68t-60 208v1337h215v-1337q0 -53 13 -69.5t42 -16.5h129v-190zM545 1909l-357 -264q-21 -16 -34 -5l-66 58q-13 13 0 26l313 328z" />
    <glyph glyph-name="Lcommaaccent" unicode="&#x13b;" horiz-adv-x="1046" 
d="M977 0h-856v1477h215v-1282h641v-195zM575 -559l-92 63q52 70 52 174h-105q-14 0 -17 4.5t-3 18.5v188q0 17 5 21t15 4h227q21 0 21 -25v-139q0 -96 -20.5 -167.5t-82.5 -141.5z" />
    <glyph glyph-name="lcommaaccent" unicode="&#x13c;" horiz-adv-x="579" 
d="M528 -18h-153q-126 0 -186 68t-60 208v1337h215v-1337q0 -53 13 -69.5t42 -16.5h129v-190zM322 -559l-93 63q52 70 52 174h-105q-14 0 -17 4.5t-3 18.5v188q0 17 5 21t15 4h227q21 0 21 -25v-139q0 -97 -20 -168t-82 -141z" />
    <glyph glyph-name="Lcaron" unicode="&#x13d;" horiz-adv-x="1046" 
d="M977 0h-856v1477h215v-1282h641v-195zM909 1579l-141 -479q-3 -18 -9 -23.5t-24 -5.5h-71q-15 0 -20 5.5t-5 23.5l61 479h209z" />
    <glyph glyph-name="lcaron" unicode="&#x13e;" horiz-adv-x="598" 
d="M528 -18h-153q-126 0 -186 68t-60 208v1337h215v-1337q0 -53 13 -69.5t42 -16.5h129v-190zM782 1595l-141 -479q-3 -18 -9 -23.5t-24 -5.5h-71q-15 0 -20 5.5t-5 23.5l61 479h209z" />
    <glyph glyph-name="Ldot" unicode="&#x13f;" horiz-adv-x="1046" 
d="M977 0h-856v1477h215v-1282h641v-195zM573 899v-227q0 -21 17 -21h235q17 0 17 21v227q0 21 -17 21h-235q-17 0 -17 -21z" />
    <glyph glyph-name="ldot" unicode="&#x140;" horiz-adv-x="905" 
d="M528 -18h-153q-126 0 -186 68t-60 208v1337h215v-1337q0 -53 13 -69.5t42 -16.5h129v-190zM561 950v-227q0 -21 17 -21h235q16 0 16 21v227q0 21 -16 21h-235q-17 0 -17 -21z" />
    <glyph glyph-name="Lslash" unicode="&#x141;" horiz-adv-x="1046" 
d="M977 0h-856v610l-119 -71v215l119 71v652h213v-527l252 152v-213l-252 -152v-542h643v-195z" />
    <glyph glyph-name="lslash" unicode="&#x142;" horiz-adv-x="579" 
d="M528 -18h-153q-126 0 -186 68t-60 208v490l-135 -84v221l135 84v626h215v-495l133 82v-221l-133 -82v-621q0 -53 13 -69.5t42 -16.5h129v-190z" />
    <glyph glyph-name="Nacute" unicode="&#x143;" horiz-adv-x="1447" 
d="M1327 0h-192l-811 1112q12 -60 12 -84v-1028h-215v1477h192l811 -1112q-1 6 -4 22.5t-5.5 34.5t-2.5 33v1022h215v-1477zM1065 1858l-356 -265q-21 -15 -35 -4l-66 58q-13 13 0 26l314 328z" />
    <glyph glyph-name="nacute" unicode="&#x144;" horiz-adv-x="1187" 
d="M1069 0h-215v698q0 137 -52.5 197.5t-137.5 60.5q-112 0 -230 -75l-90 -58v-823h-215v1100h176l31 -111l80 53q129 88 248 88q183 0 294 -106.5t111 -325.5v-698zM887 1493l-357 -264q-20 -15 -34 -4l-66 57q-14 14 0 27l313 327z" />
    <glyph glyph-name="Ncommaaccent" unicode="&#x145;" horiz-adv-x="1447" 
d="M1327 0h-192l-811 1112q12 -60 12 -84v-1028h-215v1477h192l811 -1112q-1 6 -4 22.5t-5.5 34.5t-2.5 33v1022h215v-1477zM756 -559l-92 63q51 69 51 174h-105q-14 0 -17 4.5t-3 18.5v188q0 17 5 21t15 4h228q11 0 15.5 -5t4.5 -20v-139q0 -97 -20 -168t-82 -141z" />
    <glyph glyph-name="ncommaaccent" unicode="&#x146;" horiz-adv-x="1187" 
d="M1069 0h-215v698q0 137 -52.5 197.5t-137.5 60.5q-112 0 -230 -75l-90 -58v-823h-215v1100h176l31 -111l80 53q129 88 248 88q183 0 294 -106.5t111 -325.5v-698zM625 -559l-93 63q52 70 52 174h-105q-14 0 -17 4.5t-3 18.5v188q0 17 5 21t15 4h228q11 0 15.5 -5t4.5 -20
v-139q0 -97 -20 -168t-82 -141z" />
    <glyph glyph-name="Ncaron" unicode="&#x147;" horiz-adv-x="1447" 
d="M1327 0h-192l-811 1112q12 -60 12 -84v-1028h-215v1477h192l811 -1112q-1 6 -4 22.5t-5.5 34.5t-2.5 33v1022h215v-1477zM1071 1917l-291 -305q-26 -29 -53 -29q-30 0 -59 29l-291 305l92 88l256 -219l256 219z" />
    <glyph glyph-name="ncaron" unicode="&#x148;" horiz-adv-x="1187" 
d="M1069 0h-215v698q0 137 -52.5 197.5t-137.5 60.5q-112 0 -230 -75l-90 -58v-823h-215v1100h176l31 -111l80 53q129 88 248 88q183 0 294 -106.5t111 -325.5v-698zM940 1552l-291 -305q-25 -28 -53 -28q-31 0 -59 28l-291 305l92 88l256 -219l256 219z" />
    <glyph glyph-name="napostrophe" unicode="&#x149;" horiz-adv-x="1626" 
d="M340 1251q0 -95 -56 -185.5t-155 -162.5l-80 76q72 70 97.5 121t25.5 129h-59q-16 0 -18.5 2.5t-2.5 19.5v201q0 18 3 21.5t18 3.5h206q15 0 18 -3.5t3 -21.5v-201zM1507 0h-215v698q0 137 -52.5 197.5t-137.5 60.5q-112 0 -230 -75l-90 -58v-823h-215v1100h176l31 -111
l80 53q129 88 248 88q183 0 294 -106.5t111 -325.5v-698z" />
    <glyph glyph-name="Eng" unicode="&#x14a;" horiz-adv-x="1447" 
d="M1327 -51q0 -249 -111 -358t-317 -109q-90 0 -161 25t-150 90l102 147q102 -82 207 -82q121 0 168 63.5t47 223.5v82l-788 1081q12 -60 12 -84v-1028h-215v1477h192l799 -1096v1096h215v-1528z" />
    <glyph glyph-name="eng" unicode="&#x14b;" horiz-adv-x="1187" 
d="M1069 -203q0 -134 -77.5 -213.5t-241.5 -79.5h-117v174h117q59 0 81.5 28.5t22.5 90.5v901q0 137 -52.5 197.5t-137.5 60.5q-112 0 -230 -75l-90 -58v-823h-215v1100h176l31 -111l80 53q129 88 248 88q183 0 294 -106.5t111 -325.5v-901z" />
    <glyph glyph-name="Omacron" unicode="&#x14c;" horiz-adv-x="1398" 
d="M1319 756q0 -144 -16.5 -257t-59 -215t-112 -169.5t-179 -106.5t-256.5 -39q-146 0 -255.5 39.5t-177.5 106.5t-110 170t-57.5 215t-15.5 256q0 107 11 197t37 178t72.5 154.5t113 118t163.5 78.5t219 27q146 0 256.5 -40t179 -107t111.5 -166t59.5 -205t16.5 -235z
M1100 756q0 114 -11.5 200t-40 157t-74.5 115.5t-115 68.5t-163 24q-117 0 -195 -35.5t-122 -110t-62 -174.5t-18 -245q0 -160 18 -267t63 -184.5t122 -113t194 -35.5t195 35.5t124.5 112.5t65.5 185t19 267zM1049 1636h-701v168h701v-168z" />
    <glyph glyph-name="omacron" unicode="&#x14d;" horiz-adv-x="1181" 
d="M1096 551q0 -139 -27.5 -243.5t-86 -182t-157 -117t-235.5 -39.5t-235 39.5t-156.5 117t-85.5 182t-27 243.5q0 283 118 431t386 148t387 -148t119 -431zM877 551q0 226 -65.5 315.5t-221.5 89.5t-222.5 -90t-66.5 -315q0 -226 66.5 -317t222.5 -91t221.5 91t65.5 317z
M940 1350h-700v168h700v-168z" />
    <glyph glyph-name="Obreve" unicode="&#x14e;" horiz-adv-x="1398" 
d="M1319 756q0 -144 -16.5 -257t-59 -215t-112 -169.5t-179 -106.5t-256.5 -39q-146 0 -255.5 39.5t-177.5 106.5t-110 170t-57.5 215t-15.5 256q0 107 11 197t37 178t72.5 154.5t113 118t163.5 78.5t219 27q146 0 256.5 -40t179 -107t111.5 -166t59.5 -205t16.5 -235z
M1100 756q0 114 -11.5 200t-40 157t-74.5 115.5t-115 68.5t-163 24q-117 0 -195 -35.5t-122 -110t-62 -174.5t-18 -245q0 -160 18 -267t63 -184.5t122 -113t194 -35.5t195 35.5t124.5 112.5t65.5 185t19 267zM1051 1833q-42 -84 -86 -136.5t-111 -85t-154 -32.5
q-127 0 -208 63.5t-144 190.5l121 78q64 -97 111.5 -130.5t117.5 -33.5q71 0 120 34t112 130z" />
    <glyph glyph-name="obreve" unicode="&#x14f;" horiz-adv-x="1181" 
d="M1096 551q0 -139 -27.5 -243.5t-86 -182t-157 -117t-235.5 -39.5t-235 39.5t-156.5 117t-85.5 182t-27 243.5q0 283 118 431t386 148t387 -148t119 -431zM877 551q0 226 -65.5 315.5t-221.5 89.5t-222.5 -90t-66.5 -315q0 -226 66.5 -317t222.5 -91t221.5 91t65.5 317z
M942 1528q-42 -84 -86 -136.5t-110.5 -85t-153.5 -32.5q-127 0 -208 63.5t-144 190.5l120 78q63 -97 111.5 -130.5t118.5 -33.5t119 33.5t112 130.5z" />
    <glyph glyph-name="Ohungarumlaut" unicode="&#x150;" horiz-adv-x="1398" 
d="M1319 756q0 -144 -16.5 -257t-59 -215t-112 -169.5t-179 -106.5t-256.5 -39q-146 0 -255.5 39.5t-177.5 106.5t-110 170t-57.5 215t-15.5 256q0 107 11 197t37 178t72.5 154.5t113 118t163.5 78.5t219 27q146 0 256.5 -40t179 -107t111.5 -166t59.5 -205t16.5 -235z
M1100 756q0 114 -11.5 200t-40 157t-74.5 115.5t-115 68.5t-163 24q-117 0 -195 -35.5t-122 -110t-62 -174.5t-18 -245q0 -160 18 -267t63 -184.5t122 -113t194 -35.5t195 35.5t124.5 112.5t65.5 185t19 267zM1276 1851l-356 -264q-21 -15 -35 -4l-66 57q-13 14 0 27
l314 328zM799 1851l-357 -264q-20 -15 -34 -4l-66 57q-14 14 0 27l313 328z" />
    <glyph glyph-name="ohungarumlaut" unicode="&#x151;" horiz-adv-x="1181" 
d="M1096 551q0 -139 -27.5 -243.5t-86 -182t-157 -117t-235.5 -39.5t-235 39.5t-156.5 117t-85.5 182t-27 243.5q0 283 118 431t386 148t387 -148t119 -431zM877 551q0 226 -65.5 315.5t-221.5 89.5t-222.5 -90t-66.5 -315q0 -226 66.5 -317t222.5 -91t221.5 91t65.5 317z
M1167 1493l-356 -264q-21 -15 -35 -4l-65 57q-13 14 0 27l313 327zM690 1493l-356 -264q-21 -15 -35 -4l-66 57q-13 14 0 27l314 327z" />
    <glyph glyph-name="OE" unicode="&#x152;" horiz-adv-x="2152" 
d="M2073 0h-965v106q-79 -68 -172 -102.5t-240 -34.5q-146 0 -255.5 39.5t-177.5 106.5t-110 170t-57.5 215t-15.5 256q0 107 11 197t37 178t72.5 154.5t113 118t163.5 78.5t219 27q263 0 412 -143v111h963v-195h-750v-405h678l-55 -199h-623v-483h752v-195zM1100 756
q0 114 -11.5 200t-40 157t-74.5 115.5t-115 68.5t-163 24q-117 0 -195 -35.5t-122 -110t-62 -174.5t-18 -245q0 -160 18 -267t63 -184.5t122 -113t194 -35.5t195 35.5t124.5 112.5t65.5 185t19 267z" />
    <glyph glyph-name="oe" unicode="&#x153;" horiz-adv-x="1970" 
d="M1884 483h-792q3 -177 71 -256.5t232 -79.5q109 0 180 37.5t115 122.5l182 -69q-68 -139 -181 -204t-296 -65q-290 0 -410 166q-122 -166 -395 -166q-137 0 -235 39.5t-156.5 117t-85.5 182t-27 243.5q0 283 118 431t386 148q275 0 395 -163q120 163 410 163
q88 0 160.5 -20t122 -52.5t87.5 -79.5t60 -97t36 -110t18.5 -111.5t4.5 -108.5v-68zM1657 657q-3 136 -67 215.5t-195 79.5q-152 0 -221.5 -65t-79.5 -230h563zM877 551q0 226 -65.5 315.5t-221.5 89.5t-222.5 -90t-66.5 -315q0 -226 66.5 -317t222.5 -91t221.5 91t65.5 317
z" />
    <glyph glyph-name="Racute" unicode="&#x154;" horiz-adv-x="1247" 
d="M1192 0h-260l-346 530q-19 26 -25 72h-225v-602h-215v1477h475q270 0 402 -119.5t132 -323.5q0 -330 -342 -413zM911 1034q0 256 -313 256h-262v-499h260q163 0 239 55t76 188zM928 1855l-357 -264q-20 -15 -34 -4l-66 58q-13 13 0 26l313 328z" />
    <glyph glyph-name="racute" unicode="&#x155;" horiz-adv-x="759" 
d="M729 934q-86 12 -137 12q-113 0 -174 -51l-72 -59v-836h-215v1100h176l27 -105l76 64q85 71 217 71q32 0 102 -8v-188zM713 1493l-357 -264q-20 -15 -34 -4l-66 57q-14 14 0 27l313 327z" />
    <glyph glyph-name="Rcommaaccent" unicode="&#x156;" horiz-adv-x="1247" 
d="M1192 0h-260l-346 530q-19 26 -25 72h-225v-602h-215v1477h475q270 0 402 -119.5t132 -323.5q0 -330 -342 -413zM911 1034q0 256 -313 256h-262v-499h260q163 0 239 55t76 188zM655 -559l-92 63q51 69 51 174h-104q-14 0 -17.5 5t-3.5 18v188q0 17 5.5 21t15.5 4h227
q21 0 21 -25v-139q0 -96 -20.5 -167.5t-82.5 -141.5z" />
    <glyph glyph-name="rcommaaccent" unicode="&#x157;" horiz-adv-x="759" 
d="M729 934q-86 12 -137 12q-113 0 -174 -51l-72 -59v-836h-215v1100h176l27 -105l76 64q85 71 217 71q32 0 102 -8v-188zM412 -559l-93 63q52 70 52 174h-105q-14 0 -17 4.5t-3 18.5v188q0 17 5 21t15 4h228q11 0 15.5 -5t4.5 -20v-139q0 -97 -20 -168t-82 -141z" />
    <glyph glyph-name="Rcaron" unicode="&#x158;" horiz-adv-x="1247" 
d="M1192 0h-260l-346 530q-19 26 -25 72h-225v-602h-215v1477h475q270 0 402 -119.5t132 -323.5q0 -330 -342 -413zM911 1034q0 256 -313 256h-262v-499h260q163 0 239 55t76 188zM971 1913l-291 -305q-26 -29 -53 -29q-31 0 -60 29l-291 305l93 88l256 -219l256 219z" />
    <glyph glyph-name="rcaron" unicode="&#x159;" horiz-adv-x="759" 
d="M729 934q-86 12 -137 12q-113 0 -174 -51l-72 -59v-836h-215v1100h176l27 -105l76 64q85 71 217 71q32 0 102 -8v-188zM727 1552l-291 -305q-25 -28 -53 -28q-31 0 -59 28l-291 305l92 88l256 -219l256 219z" />
    <glyph glyph-name="Sacute" unicode="&#x15a;" horiz-adv-x="1243" 
d="M1171 426q0 -98 -33.5 -180t-100 -145t-176.5 -98.5t-253 -35.5q-200 0 -333 78.5t-199 218.5l180 92q109 -198 352 -198q181 0 261.5 74t80.5 194q0 95 -46.5 150t-153.5 73l-312 53q-336 57 -336 402q0 84 27.5 154t85.5 128t161 90.5t242 32.5q110 0 198 -21.5
t146.5 -61t95 -79.5t66.5 -92l-182 -92q-98 158 -324 158q-163 0 -231 -56t-68 -161q0 -93 37.5 -136.5t130.5 -58.5l308 -51q180 -30 278 -137.5t98 -294.5zM934 1855l-356 -264q-21 -15 -35 -4l-66 58q-13 13 0 26l314 328z" />
    <glyph glyph-name="sacute" unicode="&#x15b;" horiz-adv-x="1060" 
d="M971 332q0 -96 -37 -167.5t-102.5 -113.5t-146 -62t-175.5 -20q-150 0 -265 59.5t-171 180.5l182 65q71 -133 254 -133q115 0 180.5 42t65.5 130q0 117 -123 138l-268 47q-129 22 -199 100t-70 211q0 151 114 236t316 85q304 0 416 -202l-166 -84q-75 112 -248 112
q-221 0 -221 -147q0 -103 109 -121l258 -43q133 -22 215 -98t82 -215zM844 1493l-357 -264q-20 -15 -34 -4l-66 57q-13 14 0 27l313 327z" />
    <glyph glyph-name="Scircumflex" unicode="&#x15c;" horiz-adv-x="1243" 
d="M1171 426q0 -98 -33.5 -180t-100 -145t-176.5 -98.5t-253 -35.5q-200 0 -333 78.5t-199 218.5l180 92q109 -198 352 -198q181 0 261.5 74t80.5 194q0 95 -46.5 150t-153.5 73l-312 53q-336 57 -336 402q0 84 27.5 154t85.5 128t161 90.5t242 32.5q110 0 198 -21.5
t146.5 -61t95 -79.5t66.5 -92l-182 -92q-98 158 -324 158q-163 0 -231 -56t-68 -161q0 -93 37.5 -136.5t130.5 -58.5l308 -51q180 -30 278 -137.5t98 -294.5zM969 1667l-90 -88l-256 219l-256 -219l-93 88l293 305q26 29 54 29t57 -29z" />
    <glyph glyph-name="scircumflex" unicode="&#x15d;" horiz-adv-x="1060" 
d="M971 332q0 -96 -37 -167.5t-102.5 -113.5t-146 -62t-175.5 -20q-150 0 -265 59.5t-171 180.5l182 65q71 -133 254 -133q115 0 180.5 42t65.5 130q0 117 -123 138l-268 47q-129 22 -199 100t-70 211q0 151 114 236t316 85q304 0 416 -202l-166 -84q-75 112 -248 112
q-221 0 -221 -147q0 -103 109 -121l258 -43q133 -22 215 -98t82 -215zM877 1307l-91 -88l-256 219l-256 -219l-92 88l293 305q25 28 53 28q30 0 58 -28z" />
    <glyph glyph-name="uni015E" unicode="&#x15e;" horiz-adv-x="1243" 
d="M1171 426q0 -202 -139 -329t-416 -130l-43 -51h52q113 0 166 -36.5t53 -127.5q0 -93 -64.5 -133.5t-167.5 -40.5q-123 0 -213 41l33 76q89 -27 160 -27q117 0 117 84q0 66 -84 66h-117l-59 94l49 63q-305 39 -422 289l180 92q109 -198 352 -198q181 0 261.5 74t80.5 194
q0 95 -46.5 150t-153.5 73l-312 53q-336 57 -336 402q0 84 27.5 154t85.5 128t161 90.5t242 32.5q110 0 198 -21.5t146.5 -61t95 -79.5t66.5 -92l-182 -92q-98 158 -324 158q-163 0 -231 -56t-68 -161q0 -93 37.5 -136.5t130.5 -58.5l308 -51q180 -30 278 -137.5t98 -294.5z
" />
    <glyph glyph-name="uni015F" unicode="&#x15f;" horiz-adv-x="1060" 
d="M752 -248q0 -93 -64.5 -133.5t-167.5 -40.5q-123 0 -213 41l33 76q89 -27 160 -27q116 0 116 84q0 66 -84 66h-116l-60 94l52 65q-245 38 -334 232l182 65q71 -133 254 -133q115 0 180.5 42t65.5 130q0 117 -123 138l-268 47q-129 22 -199 100t-70 211q0 151 114 236
t316 85q304 0 416 -202l-166 -84q-75 112 -248 112q-221 0 -221 -147q0 -103 109 -121l258 -43q133 -22 215 -98t82 -215q0 -93 -36 -164t-99 -113t-140.5 -63t-169.5 -23l-45 -53h51q113 0 166.5 -36.5t53.5 -127.5z" />
    <glyph glyph-name="Scaron" unicode="&#x160;" horiz-adv-x="1243" 
d="M1171 426q0 -98 -33.5 -180t-100 -145t-176.5 -98.5t-253 -35.5q-200 0 -333 78.5t-199 218.5l180 92q109 -198 352 -198q181 0 261.5 74t80.5 194q0 95 -46.5 150t-153.5 73l-312 53q-336 57 -336 402q0 84 27.5 154t85.5 128t161 90.5t242 32.5q110 0 198 -21.5
t146.5 -61t95 -79.5t66.5 -92l-182 -92q-98 158 -324 158q-163 0 -231 -56t-68 -161q0 -93 37.5 -136.5t130.5 -58.5l308 -51q180 -30 278 -137.5t98 -294.5zM969 1913l-291 -305q-26 -29 -53 -29q-31 0 -60 29l-291 305l93 88l256 -219l256 219z" />
    <glyph glyph-name="scaron" unicode="&#x161;" horiz-adv-x="1060" 
d="M971 332q0 -96 -37 -167.5t-102.5 -113.5t-146 -62t-175.5 -20q-150 0 -265 59.5t-171 180.5l182 65q71 -133 254 -133q115 0 180.5 42t65.5 130q0 117 -123 138l-268 47q-129 22 -199 100t-70 211q0 151 114 236t316 85q304 0 416 -202l-166 -84q-75 112 -248 112
q-221 0 -221 -147q0 -103 109 -121l258 -43q133 -22 215 -98t82 -215zM877 1552l-291 -305q-25 -28 -54 -28q-31 0 -59 28l-291 305l92 88l256 -219l256 219z" />
    <glyph glyph-name="Tcommaaccent" unicode="&#x162;" horiz-adv-x="1220" 
d="M1161 1290h-442v-1290h-215v1290h-445v187h1102v-187zM641 -559l-92 63q51 69 51 174h-104q-14 0 -17.5 5t-3.5 18v188q0 17 5.5 21t15.5 4h227q11 0 15.5 -5t4.5 -20v-139q0 -97 -20 -168t-82 -141z" />
    <glyph glyph-name="tcommaaccent" unicode="&#x163;" horiz-adv-x="882" 
d="M872 88q-62 -57 -146.5 -88t-172.5 -31q-70 0 -128 15.5t-108 49.5t-78 97t-28 150v571q0 34 20 70h-200v178h180v373l215 63v-436h387l-57 -178h-330v-641q0 -68 39.5 -101t101.5 -33q84 0 181 66zM473 -559l-92 63q51 69 51 174h-104q-14 0 -17.5 5t-3.5 18v188
q0 17 5.5 21t15.5 4h227q11 0 15.5 -5t4.5 -20v-139q0 -97 -20 -168t-82 -141z" />
    <glyph glyph-name="Tcaron" unicode="&#x164;" horiz-adv-x="1220" 
d="M1161 1290h-442v-1290h-215v1290h-445v187h1102v-187zM956 1913l-290 -305q-26 -29 -54 -29q-30 0 -59 29l-291 305l92 88l256 -219l256 219z" />
    <glyph glyph-name="tcaron" unicode="&#x165;" horiz-adv-x="1026" 
d="M872 88q-62 -57 -146.5 -88t-172.5 -31q-70 0 -128 15.5t-108 49.5t-78 97t-28 150v571q0 34 20 70h-200v178h180v373l215 63v-436h387l-57 -178h-330v-641q0 -68 39.5 -101t101.5 -33q84 0 181 66zM1210 1595l-141 -479q-3 -18 -9 -23.5t-24 -5.5h-71q-15 0 -20 5.5
t-5 23.5l61 479h209z" />
    <glyph glyph-name="Tbar" unicode="&#x166;" horiz-adv-x="1220" 
d="M1161 819h-442v-819h-215v819h-445v187h445v284h-445v187h1102v-187h-442v-284h442v-187z" />
    <glyph glyph-name="tbar" unicode="&#x167;" horiz-adv-x="882" 
d="M426 553v-272q0 -68 39.5 -101t101.5 -33q84 0 181 66l124 -125q-62 -57 -146.5 -88t-172.5 -31q-70 0 -128 15.5t-108 49.5t-78 97t-28 150v272h-180v178h180v121q0 34 20 70h-200v178h180v373l215 63v-436h387l-57 -178h-330v-191h387l-57 -178h-330z" />
    <glyph glyph-name="Utilde" unicode="&#x168;" horiz-adv-x="1417" 
d="M1307 610q0 -168 -43.5 -293t-125 -200t-189 -111.5t-242.5 -36.5t-242 36t-187.5 111.5t-123.5 200.5t-43 293v867h215v-867q0 -240 94.5 -347t286.5 -107q193 0 289 107t96 347v867h215v-867zM1096 1823l-148 -185q-42 -53 -92 -53q-34 0 -82 25l-176 88q-19 8 -33 8
q-16 0 -30 -14l-101 -109l-112 76l139 182q42 55 88 55q35 0 84 -24l178 -88q30 -15 39 -15t24 15l105 114z" />
    <glyph glyph-name="utilde" unicode="&#x169;" horiz-adv-x="1187" 
d="M1059 0h-176l-31 111l-80 -54q-129 -88 -248 -88q-183 0 -294 106.5t-111 325.5v699h215v-699q0 -137 52.5 -197.5t137.5 -60.5q110 0 230 76l90 57v824h215v-1100zM981 1505l-147 -184q-42 -53 -93 -53q-35 0 -82 24l-176 88q-21 9 -32 9q-16 0 -31 -15l-101 -108
l-112 75l139 183q42 55 88 55q32 0 84 -25l178 -88q28 -14 39 -14t25 14l104 115z" />
    <glyph glyph-name="Umacron" unicode="&#x16a;" horiz-adv-x="1417" 
d="M1307 610q0 -168 -43.5 -293t-125 -200t-189 -111.5t-242.5 -36.5t-242 36t-187.5 111.5t-123.5 200.5t-43 293v867h215v-867q0 -240 94.5 -347t286.5 -107q193 0 289 107t96 347v867h215v-867zM1059 1636h-701v168h701v-168z" />
    <glyph glyph-name="umacron" unicode="&#x16b;" horiz-adv-x="1187" 
d="M1059 0h-176l-31 111l-80 -54q-129 -88 -248 -88q-183 0 -294 106.5t-111 325.5v699h215v-699q0 -137 52.5 -197.5t137.5 -60.5q110 0 230 76l90 57v824h215v-1100zM944 1350h-700v168h700v-168z" />
    <glyph glyph-name="Ubreve" unicode="&#x16c;" horiz-adv-x="1417" 
d="M1307 610q0 -168 -43.5 -293t-125 -200t-189 -111.5t-242.5 -36.5t-242 36t-187.5 111.5t-123.5 200.5t-43 293v867h215v-867q0 -240 94.5 -347t286.5 -107q193 0 289 107t96 347v867h215v-867zM1059 1833q-42 -84 -86 -136.5t-110.5 -85t-153.5 -32.5q-128 0 -209 63.5
t-144 190.5l121 78q63 -97 111.5 -130.5t118.5 -33.5t119 33.5t112 130.5z" />
    <glyph glyph-name="ubreve" unicode="&#x16d;" horiz-adv-x="1187" 
d="M1059 0h-176l-31 111l-80 -54q-129 -88 -248 -88q-183 0 -294 106.5t-111 325.5v699h215v-699q0 -137 52.5 -197.5t137.5 -60.5q110 0 230 76l90 57v824h215v-1100zM944 1528q-42 -84 -86 -136.5t-110.5 -85t-153.5 -32.5q-127 0 -208 63.5t-144 190.5l120 78
q63 -97 111.5 -130.5t118.5 -33.5t119 33.5t112 130.5z" />
    <glyph glyph-name="Uring" unicode="&#x16e;" horiz-adv-x="1417" 
d="M1307 610q0 -168 -43.5 -293t-125 -200t-189 -111.5t-242.5 -36.5t-242 36t-187.5 111.5t-123.5 200.5t-43 293v867h215v-867q0 -240 94.5 -347t286.5 -107q193 0 289 107t96 347v867h215v-867zM940 1796q0 -95 -68 -163t-163 -68t-163.5 68t-68.5 163t68.5 163.5
t163.5 68.5t163 -68.5t68 -163.5zM813 1796q0 41 -31 70.5t-73 29.5t-72.5 -29.5t-30.5 -70.5t31 -71.5t72 -30.5t72.5 30.5t31.5 71.5z" />
    <glyph glyph-name="uring" unicode="&#x16f;" horiz-adv-x="1187" 
d="M1059 0h-176l-31 111l-80 -54q-129 -88 -248 -88q-183 0 -294 106.5t-111 325.5v699h215v-699q0 -137 52.5 -197.5t137.5 -60.5q110 0 230 76l90 57v824h215v-1100zM825 1452q0 -95 -68 -163t-163 -68t-163.5 68t-68.5 163t68.5 163t163.5 68t163 -68t68 -163zM698 1452
q0 41 -31 70.5t-73 29.5q-41 0 -71.5 -29.5t-30.5 -70.5t30.5 -71.5t71.5 -30.5t72.5 30.5t31.5 71.5z" />
    <glyph glyph-name="Uhungarumlaut" unicode="&#x170;" horiz-adv-x="1417" 
d="M1307 610q0 -168 -43.5 -293t-125 -200t-189 -111.5t-242.5 -36.5t-242 36t-187.5 111.5t-123.5 200.5t-43 293v867h215v-867q0 -240 94.5 -347t286.5 -107q193 0 289 107t96 347v867h215v-867zM1264 1849l-357 -264q-21 -15 -35 -4l-65 57q-13 14 0 27l313 328z
M786 1849l-356 -264q-21 -15 -35 -4l-65 57q-14 14 0 27l313 328z" />
    <glyph glyph-name="uhungarumlaut" unicode="&#x171;" horiz-adv-x="1187" 
d="M1059 0h-176l-31 111l-80 -54q-129 -88 -248 -88q-183 0 -294 106.5t-111 325.5v699h215v-699q0 -137 52.5 -197.5t137.5 -60.5q110 0 230 76l90 57v824h215v-1100zM1169 1493l-356 -264q-21 -15 -35 -4l-65 57q-13 14 0 27l313 327zM692 1493l-356 -264q-21 -15 -35 -4
l-65 57q-14 14 0 27l313 327z" />
    <glyph glyph-name="Uogonek" unicode="&#x172;" horiz-adv-x="1417" 
d="M1307 610q0 -404 -250 -555h2l-240 -223q-26 -26 -26 -65q0 -82 108 -82q67 0 158 26l33 -80q-103 -45 -220 -45q-98 0 -161.5 44t-63.5 137q0 39 18.5 70t59.5 67l76 69q-62 -4 -94 -4q-135 0 -242 36t-187.5 111.5t-123.5 200.5t-43 293v867h215v-867q0 -240 94.5 -347
t286.5 -107q193 0 289 107t96 347v867h215v-867z" />
    <glyph glyph-name="uogonek" unicode="&#x173;" horiz-adv-x="1187" 
d="M1059 0l-178 -125q-57 -40 -72.5 -61t-15.5 -47q0 -82 108 -82q67 0 158 26l33 -80q-103 -45 -220 -45q-98 0 -161.5 44t-63.5 137q0 46 21.5 85t83.5 85l122 90l-22 84l-80 -54q-129 -88 -248 -88q-183 0 -294 106.5t-111 325.5v699h215v-699q0 -137 52.5 -197.5
t137.5 -60.5q110 0 230 76l90 57v824h215v-1100z" />
    <glyph glyph-name="Wcircumflex" unicode="&#x174;" horiz-adv-x="1781" 
d="M1751 1477l-350 -1477h-242l-270 1026l-268 -1026h-240l-350 1477h221l240 -1008q11 -49 20 -158q10 108 23 158l251 963h209l254 -986q14 -55 19 -147q4 79 18 147l244 1031h221zM1237 1667l-90 -88l-256 219l-256 -219l-92 88l293 305q26 29 53 29q28 0 57 -29z" />
    <glyph glyph-name="wcircumflex" unicode="&#x175;" horiz-adv-x="1646" 
d="M1610 1100l-353 -1100h-194l-209 635q-27 80 -31 135q-3 -52 -32 -135l-209 -635h-195l-352 1100h211l207 -647q17 -54 30 -197q16 128 37 193l209 651h186l209 -651q21 -65 37 -193q12 138 31 197l207 647h211zM1169 1307l-90 -88l-256 219l-256 -219l-92 88l293 305
q25 28 53 28q30 0 58 -28z" />
    <glyph glyph-name="Ycircumflex" unicode="&#x176;" horiz-adv-x="1312" 
d="M1296 1477l-530 -881v-596h-215v596l-535 881h240l377 -623q16 -24 24 -78q13 58 27 82l375 619h237zM1004 1667l-91 -88l-256 219l-256 -219l-92 88l293 305q26 29 53 29q29 0 58 -29z" />
    <glyph glyph-name="ycircumflex" unicode="&#x177;" horiz-adv-x="1124" 
d="M1094 1100l-519 -1376q-45 -120 -125.5 -170t-224.5 -50h-164v191h164q71 0 98.5 19.5t57.5 95.5l70 176l-420 1114h227l262 -703q34 -92 43 -172q16 97 45 172l262 703h224zM909 1307l-90 -88l-256 219l-256 -219l-92 88l293 305q25 28 53 28q29 0 57 -28z" />
    <glyph glyph-name="Ydieresis" unicode="&#x178;" horiz-adv-x="1312" 
d="M1296 1477l-530 -881v-596h-215v596l-535 881h240l377 -623q16 -24 24 -78q13 58 27 82l375 619h237zM313 1851v-200q0 -17 15 -17h198q15 0 15 17v200q0 17 -15 17h-198q-15 0 -15 -17zM770 1851v-200q0 -17 14 -17h199q14 0 14 17v200q0 17 -14 17h-199q-14 0 -14 -17z
" />
    <glyph glyph-name="Zacute" unicode="&#x179;" horiz-adv-x="1179" 
d="M1100 1303l-713 -1055q-21 -34 -55 -53h751v-195h-1003v172l711 1053q22 32 57 57h-711l-57 195h1020v-174zM924 1853l-357 -264q-21 -15 -35 -4l-65 57q-13 14 0 27l313 328z" />
    <glyph glyph-name="zacute" unicode="&#x17a;" horiz-adv-x="1048" 
d="M956 0h-858v184l514 643q1 2 11.5 14.5t13 15.5t12 13.5t16 15.5t17.5 13t23 16h-558l-59 185h862v-185l-508 -634q-7 -8 -22 -28t-22 -27.5t-22 -19.5t-34 -22h614v-184zM848 1493l-356 -264q-21 -15 -35 -4l-66 57q-13 14 0 27l314 327z" />
    <glyph glyph-name="Zdotaccent" unicode="&#x17b;" horiz-adv-x="1179" 
d="M1100 1303l-713 -1055q-21 -34 -55 -53h751v-195h-1003v172l711 1053q22 32 57 57h-711l-57 195h1020v-174zM455 1884v-227q0 -21 16 -21h236q16 0 16 21v227q0 21 -16 21h-236q-16 0 -16 -21z" />
    <glyph glyph-name="zdotaccent" unicode="&#x17c;" horiz-adv-x="1048" 
d="M956 0h-858v184l514 643q1 2 11.5 14.5t13 15.5t12 13.5t16 15.5t17.5 13t23 16h-558l-59 185h862v-185l-508 -634q-7 -8 -22 -28t-22 -27.5t-22 -19.5t-34 -22h614v-184zM389 1518v-228q0 -20 17 -20h235q9 0 12.5 4t3.5 16v228q0 12 -3.5 16t-12.5 4h-235
q-17 0 -17 -20z" />
    <glyph glyph-name="Zcaron" unicode="&#x17d;" horiz-adv-x="1179" 
d="M1100 1303l-713 -1055q-21 -34 -55 -53h751v-195h-1003v172l711 1053q22 32 57 57h-711l-57 195h1020v-174zM956 1913l-290 -305q-26 -29 -54 -29q-30 0 -59 29l-291 305l92 88l256 -219l256 219z" />
    <glyph glyph-name="zcaron" unicode="&#x17e;" horiz-adv-x="1048" 
d="M956 0h-858v184l514 643q1 2 11.5 14.5t13 15.5t12 13.5t16 15.5t17.5 13t23 16h-558l-59 185h862v-185l-508 -634q-7 -8 -22 -28t-22 -27.5t-22 -19.5t-34 -22h614v-184zM870 1552l-290 -305q-25 -28 -54 -28q-31 0 -59 28l-291 305l92 88l256 -219l256 219z" />
    <glyph glyph-name="florin" unicode="&#x192;" 
d="M1147 1446l-53 -158q-94 23 -160 23q-67 0 -102 -45.5t-48 -157.5l-26 -221h340l-60 -178h-299l-67 -580q-42 -358 -363 -358q-112 0 -211 26l56 162q92 -20 151 -20q79 0 110.5 41t45.5 155l63 533q0 19 19 41h-273l60 178h219l24 227q19 181 102.5 272t242.5 91
q112 0 229 -31z" />
    <glyph glyph-name="AEacute" unicode="&#x1fc;" horiz-adv-x="2105" 
d="M2025 0h-985v440h-483l-276 -440h-254l917 1477h1079v-195h-766v-405h695l-58 -199h-643q6 -42 6 -49v-434h768v-195zM1040 643v569l-356 -569h356zM1579 1858l-356 -265q-21 -15 -35 -4l-66 58q-13 13 0 26l314 328z" />
    <glyph glyph-name="aeacute" unicode="&#x1fd;" horiz-adv-x="1863" 
d="M1778 483h-772q3 -168 70.5 -253t226.5 -85q108 0 175.5 38t110.5 124l183 -69q-69 -140 -178 -204.5t-291 -64.5q-147 0 -241 44.5t-153 138.5q-138 -93 -183 -116q-126 -67 -275 -67q-194 0 -291 100.5t-97 270.5q0 352 416 352q143 0 301 -35v142q0 80 -47 117.5
t-155 37.5q-101 0 -173.5 -29t-123.5 -102l-160 95q123 212 461 212q263 0 360 -135q60 69 145.5 102t217.5 33q88 0 158.5 -17.5t119 -46.5t84.5 -74t57 -92t33.5 -109t16.5 -117t4 -123v-68zM1559 657q-5 146 -65.5 222.5t-193.5 76.5q-136 0 -204.5 -69t-85.5 -230h549z
M780 258v240q-169 26 -256 26q-245 0 -245 -184q0 -105 47.5 -150t124.5 -45q93 0 166.5 27t162.5 86zM1352 1493l-357 -264q-20 -15 -34 -4l-66 57q-13 14 0 27l313 327z" />
    <glyph glyph-name="Oslashacute" unicode="&#x1fe;" horiz-adv-x="1398" 
d="M1427 1528l-213 -277q105 -182 105 -495q0 -144 -16.5 -257t-59 -215t-112 -169.5t-179 -106.5t-256.5 -39q-246 0 -387 107l-98 -127h-199l189 244q-121 185 -121 563q0 107 11 197t37 178t72.5 154.5t113 118t163.5 78.5t219 27q269 0 418 -133l117 152h196zM987 1212
q-95 109 -291 109q-117 0 -195 -35.5t-122 -110t-62 -174.5t-18 -245q0 -249 45 -377zM1100 756q0 185 -33 303l-633 -821q91 -82 262 -82q117 0 195 35.5t124.5 112.5t65.5 185t19 267zM1028 1858l-356 -265q-21 -15 -35 -4l-66 58q-13 13 0 26l314 328z" />
    <glyph glyph-name="oslashacute" unicode="&#x1ff;" horiz-adv-x="1181" 
d="M1198 1130l-180 -212q76 -146 76 -367q0 -283 -119 -432.5t-385 -149.5q-190 0 -303 72l-64 -72h-192l151 178q-96 147 -96 404q0 139 27 243t86 181t157 116t234 39q214 0 336 -96l82 96h190zM797 885q-36 39 -84.5 53t-122.5 14q-157 0 -223 -88t-66 -313
q0 -119 29 -232zM874 551q0 95 -14 180l-450 -541q63 -43 180 -43q156 0 220 89t64 315zM903 1493l-356 -264q-21 -15 -35 -4l-66 57q-14 14 0 27l314 327z" />
    <glyph glyph-name="uni0218" unicode="&#x218;" horiz-adv-x="1243" 
d="M1171 426q0 -98 -33.5 -180t-100 -145t-176.5 -98.5t-253 -35.5q-200 0 -333 78.5t-199 218.5l180 92q109 -198 352 -198q181 0 261.5 74t80.5 194q0 95 -46.5 150t-153.5 73l-312 53q-336 57 -336 402q0 84 27.5 154t85.5 128t161 90.5t242 32.5q110 0 198 -21.5
t146.5 -61t95 -79.5t66.5 -92l-182 -92q-98 158 -324 158q-163 0 -231 -56t-68 -161q0 -93 37.5 -136.5t130.5 -58.5l308 -51q180 -30 278 -137.5t98 -294.5zM653 -559l-92 63q51 69 51 174h-104q-14 0 -17.5 5t-3.5 18v188q0 17 5.5 21t15.5 4h227q21 0 21 -25v-139
q0 -96 -20.5 -167.5t-82.5 -141.5z" />
    <glyph glyph-name="uni0219" unicode="&#x219;" horiz-adv-x="1060" 
d="M971 332q0 -96 -37 -167.5t-102.5 -113.5t-146 -62t-175.5 -20q-150 0 -265 59.5t-171 180.5l182 65q71 -133 254 -133q115 0 180.5 42t65.5 130q0 117 -123 138l-268 47q-129 22 -199 100t-70 211q0 151 114 236t316 85q304 0 416 -202l-166 -84q-75 112 -248 112
q-221 0 -221 -147q0 -103 109 -121l258 -43q133 -22 215 -98t82 -215zM561 -559l-92 63q51 69 51 174h-104q-14 0 -17.5 5t-3.5 18v188q0 17 5.5 21t15.5 4h227q21 0 21 -25v-139q0 -96 -20.5 -167.5t-82.5 -141.5z" />
    <glyph glyph-name="circumflex" unicode="&#x2c6;" horiz-adv-x="923" 
d="M809 1307l-90 -88l-256 219l-256 -219l-92 88l293 305q25 28 53 28q29 0 57 -28z" />
    <glyph glyph-name="caron" unicode="&#x2c7;" horiz-adv-x="923" 
d="M807 1552l-291 -305q-25 -28 -53 -28q-32 0 -60 28l-290 305l92 88l256 -219l256 219z" />
    <glyph glyph-name="uni02C9" unicode="&#x2c9;" horiz-adv-x="937" 
d="M819 1350h-700v168h700v-168z" />
    <glyph glyph-name="breve" unicode="&#x2d8;" horiz-adv-x="923" 
d="M815 1528q-42 -84 -86 -136.5t-110.5 -85t-153.5 -32.5q-127 0 -208 63.5t-144 190.5l120 78q63 -97 111.5 -130.5t118.5 -33.5t119 33.5t112 130.5z" />
    <glyph glyph-name="dotaccent" unicode="&#x2d9;" horiz-adv-x="505" 
d="M119 1518v-228q0 -12 3.5 -16t12.5 -4h236q9 0 12.5 4t3.5 16v228q0 12 -3.5 16t-12.5 4h-236q-9 0 -12.5 -4t-3.5 -16z" />
    <glyph glyph-name="ring" unicode="&#x2da;" horiz-adv-x="663" 
d="M563 1452q0 -95 -68 -163t-163 -68t-163.5 68t-68.5 163t68.5 163t163.5 68t163 -68t68 -163zM436 1452q0 41 -31 70.5t-73 29.5t-72.5 -29.5t-30.5 -70.5t31 -71.5t72 -30.5t72.5 30.5t31.5 71.5z" />
    <glyph glyph-name="ogonek" unicode="&#x2db;" horiz-adv-x="591" 
d="M549 -369q-103 -45 -219 -45q-99 0 -162.5 44t-63.5 137q0 39 18.5 70t59.5 67l135 123h156l-197 -195q-26 -26 -26 -65q0 -82 108 -82q67 0 158 26z" />
    <glyph glyph-name="tilde" unicode="&#x2dc;" horiz-adv-x="958" 
d="M877 1505l-148 -184q-42 -53 -92 -53q-35 0 -82 24l-176 88q-21 9 -33 9q-16 0 -31 -15l-100 -108l-113 75l140 183q42 55 88 55q32 0 84 -25l178 -88q28 -14 39 -14q10 0 24 14l105 115z" />
    <glyph glyph-name="hungarumlaut" unicode="&#x2dd;" horiz-adv-x="710" 
d="M1055 1493l-357 -264q-20 -15 -34 -4l-66 57q-14 14 0 27l313 327zM578 1493l-357 -264q-21 -15 -35 -4l-65 57q-13 14 0 27l313 327z" />
    <glyph glyph-name="uni03A9" unicode="&#x3a9;" horiz-adv-x="1474" 
d="M1282 862q0 -115 -21 -209t-66.5 -172t-122.5 -128.5t-183 -69.5v-129h344v-154h-475v391q89 5 149.5 36.5t95 91.5t48.5 137.5t14 187.5q0 112 -20.5 197.5t-66 153t-127 103t-196.5 35.5q-116 0 -197.5 -35.5t-126.5 -102.5t-65 -151.5t-20 -195.5t14 -189.5t48.5 -139
t95 -92t149.5 -36.5v-391h-477v154h346v129q-393 69 -393 581q0 105 18.5 195.5t63.5 174.5t114.5 144t179.5 95.5t250 35.5t249.5 -35.5t179.5 -95.5t115.5 -144.5t64 -175.5t18.5 -196z" />
    <glyph glyph-name="uni03BC" unicode="&#x3bc;" horiz-adv-x="1187" 
d="M1059 0h-176l-31 111l-80 -54q-129 -88 -248 -88q-109 0 -190 37v-502h-215v1596h215v-699q0 -137 52.5 -197.5t137.5 -60.5q110 0 230 76l90 57v824h215v-1100z" />
    <glyph glyph-name="pi" unicode="&#x3c0;" horiz-adv-x="1474" 
d="M1276 -16h-129q-128 0 -193 68.5t-65 215.5v662h-483v-930h-213v928h-156v186h1218v-186h-153v-660q0 -66 21.5 -92t70.5 -26h82v-166z" />
    <glyph glyph-name="Wgrave" unicode="&#x1e80;" horiz-adv-x="1781" 
d="M1751 1477l-350 -1477h-242l-270 1026l-268 -1026h-240l-350 1477h221l240 -1008q11 -49 20 -158q10 108 23 158l251 963h209l254 -986q14 -55 19 -147q4 79 18 147l244 1031h221zM575 1853l148 144l311 -326q14 -15 0 -29l-63 -57q-14 -14 -39 4z" />
    <glyph glyph-name="wgrave" unicode="&#x1e81;" horiz-adv-x="1646" 
d="M1610 1100l-353 -1100h-194l-209 635q-27 80 -31 135q-3 -52 -32 -135l-209 -635h-195l-352 1100h211l207 -647q17 -54 30 -197q16 128 37 193l209 651h186l209 -651q21 -65 37 -193q12 138 31 197l207 647h211zM508 1493l147 143l312 -325q6 -6 6 -14.5t-6 -14.5
l-64 -57q-14 -14 -39 4z" />
    <glyph glyph-name="Wacute" unicode="&#x1e82;" horiz-adv-x="1781" 
d="M1751 1477l-350 -1477h-242l-270 1026l-268 -1026h-240l-350 1477h221l240 -1008q11 -49 20 -158q10 108 23 158l251 963h209l254 -986q14 -55 19 -147q4 79 18 147l244 1031h221zM1225 1855l-357 -264q-20 -15 -34 -4l-66 58q-13 13 0 26l313 328z" />
    <glyph glyph-name="wacute" unicode="&#x1e83;" horiz-adv-x="1646" 
d="M1610 1100l-353 -1100h-194l-209 635q-27 80 -31 135q-3 -52 -32 -135l-209 -635h-195l-352 1100h211l207 -647q17 -54 30 -197q16 128 37 193l209 651h186l209 -651q21 -65 37 -193q12 138 31 197l207 647h211zM1137 1493l-357 -264q-21 -15 -35 -4l-65 57q-14 14 0 27
l313 327z" />
    <glyph glyph-name="Wdieresis" unicode="&#x1e84;" horiz-adv-x="1781" 
d="M1751 1477l-350 -1477h-242l-270 1026l-268 -1026h-240l-350 1477h221l240 -1008q11 -49 20 -158q10 108 23 158l251 963h209l254 -986q14 -55 19 -147q4 79 18 147l244 1031h221zM549 1851v-200q0 -17 14 -17h199q14 0 14 17v200q0 17 -14 17h-199q-14 0 -14 -17z
M1006 1851v-200q0 -17 14 -17h199q14 0 14 17v200q0 17 -14 17h-199q-14 0 -14 -17z" />
    <glyph glyph-name="wdieresis" unicode="&#x1e85;" horiz-adv-x="1646" 
d="M1610 1100l-353 -1100h-194l-209 635q-27 80 -31 135q-3 -52 -32 -135l-209 -635h-195l-352 1100h211l207 -647q17 -54 30 -197q16 128 37 193l209 651h186l209 -651q21 -65 37 -193q12 138 31 197l207 647h211zM481 1552v-200q0 -17 15 -17h198q15 0 15 17v200
q0 17 -15 17h-198q-15 0 -15 -17zM938 1552v-200q0 -17 14 -17h199q14 0 14 17v200q0 17 -14 17h-199q-14 0 -14 -17z" />
    <glyph glyph-name="Ygrave" unicode="&#x1ef2;" horiz-adv-x="1312" 
d="M1296 1477l-530 -881v-596h-215v596l-535 881h240l377 -623q16 -24 24 -78q13 58 27 82l375 619h237zM362 1855l148 144l311 -326q14 -14 0 -28l-63 -58q-14 -14 -39 4z" />
    <glyph glyph-name="ygrave" unicode="&#x1ef3;" horiz-adv-x="1124" 
d="M1094 1100l-519 -1376q-45 -120 -125.5 -170t-224.5 -50h-164v191h164q71 0 98.5 19.5t57.5 95.5l70 176l-420 1114h227l262 -703q34 -92 43 -172q16 97 45 172l262 703h224zM248 1493l147 143l312 -325q6 -6 6 -14.5t-6 -14.5l-64 -57q-14 -14 -39 4z" />
    <glyph glyph-name="endash" unicode="&#x2013;" horiz-adv-x="935" 
d="M883 506h-830v196h830v-196z" />
    <glyph glyph-name="emdash" unicode="&#x2014;" horiz-adv-x="1861" 
d="M1808 506h-1755v196h1755v-196z" />
    <glyph glyph-name="quoteleft" unicode="&#x2018;" horiz-adv-x="438" 
d="M389 1546q-72 -70 -97.5 -121t-25.5 -129h60q15 0 17.5 -2.5t2.5 -19.5v-201q0 -19 -2.5 -21.5t-17.5 -2.5h-207q-15 0 -18 3t-3 21v201q0 95 56 185.5t155 162.5z" />
    <glyph glyph-name="quoteright" unicode="&#x2019;" horiz-adv-x="438" 
d="M340 1251q0 -95 -56 -185.5t-155 -162.5l-80 76q72 70 97.5 121t25.5 129h-59q-16 0 -18.5 2.5t-2.5 19.5v201q0 18 3 21.5t18 3.5h206q15 0 18 -3.5t3 -21.5v-201z" />
    <glyph glyph-name="quotesinglbase" unicode="&#x201a;" horiz-adv-x="438" 
d="M348 25q0 -102 -61.5 -201.5t-167.5 -175.5l-86 80q79 77 107 132t28 142h-68q-15 0 -17.5 3t-2.5 20v219q0 18 2.5 21t17.5 3h228q15 0 17.5 -3t2.5 -21v-219z" />
    <glyph glyph-name="quotedblleft" unicode="&#x201c;" horiz-adv-x="833" 
d="M784 1548q-72 -70 -97 -121t-25 -129h59q15 0 17.5 -2.5t2.5 -19.5v-201q0 -19 -2.5 -21.5t-17.5 -2.5h-207q-15 0 -17.5 2.5t-2.5 21.5v201q0 95 56 185.5t155 162.5zM354 1548q-72 -70 -97.5 -121t-25.5 -129h60q15 0 17.5 -2.5t2.5 -19.5v-201q0 -19 -2.5 -21.5
t-17.5 -2.5h-207q-15 0 -18 3t-3 21v201q0 95 56 185.5t155 162.5z" />
    <glyph glyph-name="quotedblright" unicode="&#x201d;" horiz-adv-x="833" 
d="M770 1251q0 -95 -56 -185.5t-155 -162.5l-80 76q72 70 97.5 121t25.5 129h-59q-16 0 -18.5 2.5t-2.5 19.5v201q0 18 3 21.5t18 3.5h207q15 0 17.5 -3t2.5 -22v-201zM340 1251q0 -95 -56 -185.5t-155 -162.5l-80 76q72 70 97.5 121t25.5 129h-59q-16 0 -18.5 2.5
t-2.5 19.5v201q0 18 3 21.5t18 3.5h206q15 0 18 -3.5t3 -21.5v-201z" />
    <glyph glyph-name="quotedblbase" unicode="&#x201e;" horiz-adv-x="833" 
d="M782 25q0 -102 -61.5 -201.5t-167.5 -175.5l-86 80q79 77 107 132t28 142h-67q-15 0 -18 3t-3 20v219q0 18 3 21t18 3h227q15 0 17.5 -3t2.5 -21v-219zM309 25q0 -102 -61.5 -201.5t-167.5 -175.5l-86 80q79 77 107 132t28 142h-68q-15 0 -17.5 3t-2.5 20v219
q0 18 2.5 21t17.5 3h228q15 0 17.5 -3t2.5 -21v-219z" />
    <glyph glyph-name="dagger" unicode="&#x2020;" horiz-adv-x="1116" 
d="M1061 866h-363l-43 15l11 -50v-831h-211v831l14 50l-51 -15h-363v207h363l51 -12l-14 49v485h211v-485l-11 -49l43 12h363v-207z" />
    <glyph glyph-name="daggerdbl" unicode="&#x2021;" horiz-adv-x="1116" 
d="M1061 500h-363l-43 14l11 -45v-469h-211v467l14 47l-51 -14h-363v207h363l51 -13l-14 49v129l14 48l-51 -13h-363v205h363l51 -10l-14 49v444h211v-444l-11 -49l43 10h363v-205h-363l-43 13l11 -48v-129l-11 -49l43 13h363v-207z" />
    <glyph glyph-name="bullet" unicode="&#x2022;" horiz-adv-x="929" 
d="M831 590q0 -152 -107 -259.5t-259 -107.5t-259.5 107.5t-107.5 259.5t107.5 260t259.5 108t259 -108t107 -260z" />
    <glyph glyph-name="ellipsis" unicode="&#x2026;" horiz-adv-x="1384" 
d="M1288 20q0 -14 -3 -17t-15 -3h-223q-9 0 -12.5 1t-5 5t-1.5 14v226q0 16 3 19t16 3h223h7t4.5 -0.5t3.5 -1.5t1.5 -4t1.5 -6.5v-9.5v-226zM838 6l-2 -4q-3 -2 -5 -2h-10h-223h-9.5t-5 2.5t-3 6t-0.5 11.5v226q0 16 2.5 19t15.5 3h223h10l5 -2q2 -2 2 -20v-226v-14z
M356 20q0 -14 -3 -17t-15 -3h-223h-11l-4 2q-2 2 -2 18v226q0 18 2 20t4 2h11h223h7t4.5 -0.5t3.5 -1.5t1.5 -4t1.5 -6.5v-9.5v-226z" />
    <glyph glyph-name="perthousand" unicode="&#x2030;" horiz-adv-x="2639" 
d="M1536 1509l-1004 -1540h-170l1004 1540h170zM735 1065q0 -83 -6 -144.5t-24.5 -124t-50.5 -102t-87.5 -64t-132.5 -24.5t-132.5 24.5t-87.5 64t-50.5 102t-24.5 124t-6 144.5q0 79 6.5 140t26 119.5t52.5 96.5t87.5 61t128.5 23t128 -23t87 -61t52.5 -96.5t26.5 -119.5
t7 -140zM578 1065q0 166 -27.5 234.5t-116.5 68.5q-38 0 -64.5 -13t-42.5 -35t-24.5 -62t-11 -83.5t-2.5 -109.5q0 -70 2.5 -115.5t11 -88.5t24.5 -66.5t42.5 -37.5t64.5 -14t64 14t41.5 38t24 66.5t11.5 88.5t3 115zM1776 426q0 -83 -6 -144.5t-24.5 -124t-50.5 -102
t-87.5 -64t-132.5 -24.5t-132.5 24.5t-87.5 64t-50.5 102t-24.5 124t-6 144.5q0 79 6.5 140t26 119.5t52.5 96.5t87.5 61t128.5 23t128 -23t87 -61t52.5 -96.5t26.5 -119.5t7 -140zM1618 426q0 166 -27 234.5t-116 68.5q-38 0 -64.5 -13t-42.5 -35t-24.5 -62t-11.5 -83.5
t-3 -109.5q0 -69 3 -115t11.5 -88.5t24.5 -66.5t42.5 -38t64.5 -14t64 14t41.5 38t24 66.5t11 88t2.5 115.5zM2507 426q0 -83 -6 -144.5t-24.5 -124t-50.5 -102t-87.5 -64t-132.5 -24.5t-132.5 24.5t-87.5 64t-50.5 102t-24.5 124t-6 144.5q0 79 6.5 140t26 119.5t52.5 96.5
t87.5 61t128.5 23t128 -23t87 -61t52.5 -96.5t26.5 -119.5t7 -140zM2349 426q0 166 -27 234.5t-116 68.5q-38 0 -64.5 -13t-42.5 -35t-24.5 -62t-11.5 -83.5t-3 -109.5q0 -69 3 -115t11.5 -88.5t24.5 -66.5t42.5 -38t64.5 -14t64 14t41.5 38t24 66.5t11 88t2.5 115.5z" />
    <glyph glyph-name="guilsinglleft" unicode="&#x2039;" horiz-adv-x="684" 
d="M584 252l-115 -94l-369 393l369 393l115 -96l-254 -297z" />
    <glyph glyph-name="guilsinglright" unicode="&#x203a;" horiz-adv-x="684" 
d="M584 551l-369 -393l-115 94l252 299l-252 297l115 96z" />
    <glyph glyph-name="fraction" unicode="&#x2044;" horiz-adv-x="798" 
d="M1106 1509l-991 -1540h-170l991 1540h170z" />
    <glyph glyph-name="n.superior" unicode="&#x207f;" horiz-adv-x="745" 
d="M664 625h-148v424q0 74 -29 107.5t-73 33.5q-32 0 -70 -14.5t-108 -59.5v-491h-148v669h121l16 -57q101 76 217 76q95 0 158.5 -65t63.5 -199v-424z" />
    <glyph glyph-name="Euro" unicode="&#x20ac;" 
d="M1180 297q-22 -55 -45.5 -97t-63 -87.5t-86.5 -75.5t-116.5 -49t-153.5 -19q-110 0 -197 28.5t-145 77t-99.5 119.5t-63.5 147t-34 169h-176l55 149h111q0 13 -1 40t-1 40v56h-144l58 147h94q8 98 26 176.5t56.5 154t95.5 125.5t146.5 80.5t205.5 30.5q99 0 177 -25
t128 -66t84 -99.5t50 -118.5t20 -129h-188q-7 58 -22.5 100t-45.5 78t-81.5 54t-123.5 18q-74 0 -129.5 -21t-89.5 -55t-56 -85t-31.5 -102t-12.5 -116h625l-54 -147h-573v-56v-80h532l-55 -149h-467q7 -60 20 -108.5t38 -96t60 -79t88 -51t120 -19.5q111 0 175 50t116 179z
" />
    <glyph glyph-name="afii61289" unicode="&#x2113;" horiz-adv-x="802" 
d="M643 1229q0 -95 -27.5 -190t-101 -204t-186.5 -198v-369q0 -65 22.5 -91.5t71.5 -26.5h82v-166h-131q-126 0 -191 71.5t-65 212.5v256q-12 -6 -50.5 -25.5t-60.5 -29.5l-37 109q90 44 148 79v504q0 76 5.5 134.5t23.5 120t48 101.5t82 65.5t123 25.5q40 0 72.5 -8.5
t56.5 -20.5t42.5 -34t30.5 -41t20.5 -51t12.5 -53.5t6 -58t2.5 -56t0.5 -56.5zM516 1229q0 125 -15.5 175t-68.5 50q-42 0 -65.5 -39t-31 -101t-7.5 -163v-363q188 182 188 441z" />
    <glyph glyph-name="trademark" unicode="&#x2122;" horiz-adv-x="1492" 
d="M1393 780h-148l-31 394l-118 -246h-121l-117 246l-33 -394h-143l51 697h133l170 -353l170 353h133zM637 1341h-205v-561h-147v561h-205v136h557v-136z" />
    <glyph glyph-name="Omega" unicode="&#x2126;" horiz-adv-x="1474" 
d="M1282 862q0 -115 -21 -209t-66.5 -172t-122.5 -128.5t-183 -69.5v-129h344v-154h-475v391q89 5 149.5 36.5t95 91.5t48.5 137.5t14 187.5q0 112 -20.5 197.5t-66 153t-127 103t-196.5 35.5q-116 0 -197.5 -35.5t-126.5 -102.5t-65 -151.5t-20 -195.5t14 -189.5t48.5 -139
t95 -92t149.5 -36.5v-391h-477v154h346v129q-393 69 -393 581q0 105 18.5 195.5t63.5 174.5t114.5 144t179.5 95.5t250 35.5t249.5 -35.5t179.5 -95.5t115.5 -144.5t64 -175.5t18.5 -196z" />
    <glyph glyph-name="estimated" unicode="&#x212e;" horiz-adv-x="1241" 
d="M1182 578h-879v-396q135 -129 311 -129q67 0 124.5 14.5t99.5 36.5t81 58t66.5 70t58.5 81l64 -39q-43 -67 -87 -115.5t-103 -89.5t-135 -62t-169 -21q-163 0 -291 81.5t-196 216.5t-68 296q0 164 67 298t197 215t300 81q169 0 298 -82.5t195 -217t66 -296.5zM936 645
v334q-59 54 -143.5 90.5t-169.5 36.5q-196 0 -320 -127v-334h633z" />
    <glyph glyph-name="onethird" unicode="&#x2153;" horiz-adv-x="1884" 
d="M614 625h-481v141h162v547q0 14 2 24l-84 -18q-32 -8 -80 -16v141l318 63v-741h163v-141zM1499 1509l-991 -1540h-170l991 1540h170zM1751 264q0 -137 -84.5 -209.5t-224.5 -72.5q-119 0 -196.5 45t-133.5 149l123 57q39 -69 83.5 -93.5t123.5 -24.5q153 0 153 149
q0 59 -34 91t-97 32h-147l-39 137h186q52 0 83.5 29.5t31.5 87.5q0 107 -127 107q-78 0 -122 -24.5t-83 -94.5l-123 57q56 105 134 150t196 45q147 0 215 -67t68 -173q0 -112 -84 -176q45 -31 71.5 -85.5t26.5 -115.5z" />
    <glyph glyph-name="twothirds" unicode="&#x2154;" horiz-adv-x="1988" 
d="M1604 1509l-992 -1540h-170l992 1540h170zM1855 264q0 -137 -84.5 -209.5t-224.5 -72.5q-118 0 -195.5 44.5t-133.5 149.5l122 57q39 -69 83.5 -93.5t123.5 -24.5q154 0 154 149q0 59 -34 91t-97 32h-148l-39 137h187q52 0 83 29.5t31 87.5q0 107 -127 107
q-77 0 -121 -24.5t-83 -94.5l-123 57q56 105 134 150t196 45q147 0 214.5 -67t67.5 -173q0 -112 -84 -176q45 -31 71.5 -85.5t26.5 -115.5zM721 1249q0 -37 -8 -69.5t-27 -61.5t-34.5 -49t-48.5 -46.5t-49.5 -39t-55.5 -39.5q-67 -46 -113.5 -88t-71.5 -90h258v119h148v-260
h-586q0 50 9.5 96t23 81t37.5 69.5t44 57t52.5 50t52.5 42t54 38.5q78 54 118.5 97t40.5 93q0 58 -29.5 88.5t-84.5 30.5q-85 0 -119.5 -36.5t-44.5 -104.5h-144q3 42 13.5 80t33.5 75t56.5 63.5t86 43t118.5 16.5q118 0 194 -67.5t76 -188.5z" />
    <glyph glyph-name="oneeighth" unicode="&#x215b;" horiz-adv-x="1902" 
d="M614 625h-481v141h162v547q0 14 2 24l-84 -18q-32 -8 -80 -16v141l318 63v-741h163v-141zM1499 1509l-991 -1540h-170l991 1540h170zM1769 264q0 -136 -74.5 -209t-228.5 -73q-305 0 -305 282q0 128 90 193q-77 60 -77 172q0 124 73 188t217 64t218.5 -64.5t74.5 -187.5
q0 -111 -78 -172q90 -65 90 -193zM1614 264q0 52 -26.5 86.5t-74.5 34.5h-96q-48 0 -74 -34.5t-26 -86.5q0 -82 33.5 -113.5t113.5 -31.5q81 0 115.5 31.5t34.5 113.5zM1604 629q0 66 -35 90t-105 24q-69 0 -103 -24t-34 -90q0 -53 25 -80t59 -27h109q34 0 59 27t25 80z" />
    <glyph glyph-name="threeeighths" unicode="&#x215c;" horiz-adv-x="1978" 
d="M1575 1509l-991 -1540h-170l991 1540h170zM1845 264q0 -136 -74.5 -209t-228.5 -73q-305 0 -305 282q0 128 90 193q-78 61 -78 172q0 124 73.5 188t217.5 64t218.5 -64.5t74.5 -187.5q0 -111 -78 -172q90 -65 90 -193zM1690 264q0 52 -26.5 86.5t-74.5 34.5h-96
q-48 0 -74 -34.5t-26 -86.5q0 -82 33.5 -113.5t113.5 -31.5q81 0 115.5 31.5t34.5 113.5zM1679 629q0 66 -34.5 90t-104.5 24q-69 0 -103 -24t-34 -90q0 -53 25 -80t59 -27h108q34 0 59 27t25 80zM772 889q0 -137 -84.5 -210t-224.5 -73q-118 0 -196 45t-134 150l123 57
q39 -69 84 -94t123 -25q153 0 153 150q0 59 -34 91t-97 32h-147l-39 137h186q52 0 83.5 29.5t31.5 87.5q0 52 -29.5 79t-97.5 27q-78 0 -122 -24.5t-83 -94.5l-123 58q56 105 134 149.5t196 44.5q147 0 215 -66.5t68 -172.5q0 -112 -84 -176q45 -31 71.5 -85.5t26.5 -115.5z
" />
    <glyph glyph-name="fiveeighths" unicode="&#x215d;" horiz-adv-x="1976" 
d="M1573 1509l-991 -1540h-170l991 1540h170zM1843 264q0 -136 -74.5 -209t-228.5 -73q-305 0 -305 282q0 128 90 193q-78 61 -78 172q0 124 73.5 188t217.5 64t218.5 -64.5t74.5 -187.5q0 -111 -78 -172q90 -65 90 -193zM1688 264q0 52 -26.5 86.5t-74.5 34.5h-96
q-48 0 -74 -34.5t-26 -86.5q0 -82 33.5 -113.5t113.5 -31.5q81 0 115.5 31.5t34.5 113.5zM1677 629q0 66 -34.5 90t-104.5 24q-69 0 -103 -24t-34 -90q0 -53 25 -80t59 -27h108q34 0 59 27t25 80zM770 903q0 -136 -77.5 -216.5t-229.5 -80.5q-118 0 -196 45t-134 150l123 57
q37 -69 83 -94t124 -25q151 0 151 164q0 46 -13.5 78t-39 48.5t-54 23t-65.5 6.5q-108 0 -206 -33l-58 49l47 412h531l-41 -137h-367q-2 -15 -4 -43.5t-4 -42.5q-2 -16 -4 -41t-4 -41q41 8 127 8q145 0 228 -68.5t83 -218.5z" />
    <glyph glyph-name="seveneighths" unicode="&#x215e;" horiz-adv-x="1818" 
d="M1415 1509l-991 -1540h-170l991 1540h170zM1686 264q0 -136 -75 -209t-229 -73q-305 0 -305 282q0 128 90 193q-77 60 -77 172q0 124 73 188t217 64t218.5 -64.5t74.5 -187.5q0 -111 -78 -172q91 -65 91 -193zM1530 264q0 52 -26 86.5t-74 34.5h-97q-48 0 -74 -34.5
t-26 -86.5q0 -82 33.5 -113.5t113.5 -31.5q81 0 115.5 31.5t34.5 113.5zM1520 629q0 66 -35 90t-105 24q-69 0 -103 -24t-34 -90q0 -53 25 -80t59 -27h109q34 0 59 27t25 80zM549 1346h-268v-119h-148v260h600v-115l-395 -747h-172z" />
    <glyph glyph-name="partialdiff" unicode="&#x2202;" horiz-adv-x="1474" 
d="M1171 938q0 -196 -28 -360q-57 -315 -205 -463t-426 -148q-426 0 -426 406q0 91 18 196q48 282 189 423t395 141q154 0 258 -70q-1 67 -13 122.5t-43.5 109t-81.5 90t-131 59t-188 22.5q-61 0 -135 -6l11 144q88 10 155 10q148 0 261 -33.5t186 -92t119.5 -145t65.5 -185
t19 -220.5zM940 731q0 132 -58.5 189t-187.5 57q-163 0 -252 -97t-131 -329q-18 -105 -18 -180q0 -132 60 -190t188 -58q164 0 252 98t129 330q18 105 18 180z" />
    <glyph glyph-name="Delta" unicode="&#x2206;" horiz-adv-x="1474" 
d="M1274 0h-1315l555 1477h209zM985 174l-375 1069l-370 -1069h745z" />
    <glyph glyph-name="product" unicode="&#x220f;" horiz-adv-x="1474" 
d="M1305 1298h-168v-1298h-211v1298h-619v-1298h-211v1298h-170v179h1379v-179z" />
    <glyph glyph-name="summation" unicode="&#x2211;" horiz-adv-x="1474" 
d="M1149 0h-979v172l405 598l-405 533v174h979v-179h-756l406 -528l-406 -592h756v-178z" />
    <glyph glyph-name="minus" unicode="&#x2212;" 
d="M1130 645h-1015v186h1015v-186z" />
    <glyph glyph-name="uni2215" unicode="&#x2215;" horiz-adv-x="798" 
d="M1106 1509l-991 -1540h-170l991 1540h170z" />
    <glyph glyph-name="uni2219" unicode="&#x2219;" horiz-adv-x="505" 
d="M385 764q0 -16 -3.5 -19.5t-16.5 -3.5h-228q-15 0 -17.5 3t-2.5 20v221q0 19 2.5 22t17.5 3h228q15 0 17.5 -3t2.5 -22v-221z" />
    <glyph glyph-name="radical" unicode="&#x221a;" horiz-adv-x="1474" 
d="M1479 1292h-332l-430 -1292h-217l-262 813h-236v184h395l211 -739l377 1219h494v-185z" />
    <glyph glyph-name="infinity" unicode="&#x221e;" horiz-adv-x="1474" 
d="M1245 772q0 -496 -340 -496q-165 0 -274 107q-82 -113 -213 -113q-60 0 -109 16t-82.5 42.5t-58 66.5t-39 81.5t-23 94.5t-11.5 99.5t-3 101.5q0 498 336 498q153 0 272 -111q46 59 99 86t125 27q70 0 124.5 -20t88.5 -58t56.5 -82.5t33 -106t14.5 -114t4 -119.5z
M1073 772q0 79 -5.5 134.5t-20.5 105.5t-45.5 75t-77.5 25q-75 0 -108 -72t-64 -274q-25 -166 -45 -240q89 -94 198 -94q168 0 168 340zM625 1020q-83 90 -193 90q-49 0 -82.5 -26.5t-51 -76t-25 -107t-7.5 -132.5q0 -61 2.5 -105t12 -90.5t25.5 -75t44.5 -47t67.5 -18.5
q71 0 106 76.5t62 275.5q21 153 39 236z" />
    <glyph glyph-name="integral" unicode="&#x222b;" horiz-adv-x="1474" 
d="M1217 1559l-41 -156q-141 29 -207 29q-48 0 -85 -10t-69.5 -33.5t-49.5 -69t-17 -111.5l-3 -1239q0 -91 -21.5 -159.5t-58 -111t-89.5 -69.5t-109 -37t-125 -10q-149 0 -279 37l41 158q132 -31 207 -31q48 0 85 10.5t68.5 35.5t48.5 71t17 112v1233q0 387 410 387
q139 0 277 -36z" />
    <glyph glyph-name="approxequal" unicode="&#x2248;" 
d="M1120 1094q-52 -74 -118 -108t-156 -34q-53 0 -104.5 18t-92 44t-79.5 52t-83.5 44t-87.5 18q-90 0 -156 -33.5t-118 -107.5v217q52 74 118 108t156 34q59 0 113 -18t94 -44t77 -52.5t79 -44.5t84 -18q90 0 156 34t118 108v-217zM1120 582q-52 -74 -118 -108t-156 -34
q-53 0 -104.5 18t-92 44t-79.5 52t-83.5 44t-87.5 18q-90 0 -156 -33.5t-118 -107.5v217q52 74 118 108t156 34q59 0 113 -18t94 -44t77 -52.5t79 -44.5t84 -18q90 0 156 34t118 108v-217z" />
    <glyph glyph-name="notequal" unicode="&#x2260;" 
d="M1044 1509l-190 -426h276v-196h-362l-131 -295h493v-197h-581l-189 -426h-170l189 426h-264v197h352l131 295h-483v196h569l190 426h170z" />
    <glyph glyph-name="lessequal" unicode="&#x2264;" 
d="M1028 287h-250l-577 573l577 574h250l-577 -574zM1161 0h-1077v195h1077v-195z" />
    <glyph glyph-name="greaterequal" unicode="&#x2265;" 
d="M1044 860l-577 -573h-250l578 573l-578 574h250zM1161 0h-1077v195h1077v-195z" />
    <glyph glyph-name="lozenge" unicode="&#x25ca;" horiz-adv-x="1433" 
d="M1217 754l-562 -676l-561 676l561 678zM987 754l-332 430l-336 -430l336 -430z" />
    <glyph glyph-name="I.alt" unicode="&#xe000;" horiz-adv-x="667" 
d="M594 0h-520v133h159v1213h-159v131h520v-131h-148v-1213h148v-133z" />
    <glyph glyph-name="IJ.alt" unicode="&#xe001;" horiz-adv-x="1564" 
d="M1444 436q0 -249 -111 -358t-317 -109q-90 0 -161 25t-150 90l102 147q101 -81 207 -81q121 0 168 63t47 223v795q0 30 12 51h-364l-56 195h623v-1041zM594 0h-520v133h159v1213h-159v131h520v-131h-148v-1213h148v-133z" />
    <glyph glyph-name="Iacute.alt" unicode="&#xe002;" horiz-adv-x="667" 
d="M582 1855l-357 -264l-6 -6q-8 -4 -12 -4q-8 0 -17 6l-65 58q-6 6 -6 10q0 10 6 16l313 328zM594 0h-520v133h159v1213h-159v131h520v-131h-148v-1213h148v-133z" />
    <glyph glyph-name="Ibreve.alt" unicode="&#xe003;" horiz-adv-x="667" 
d="M682 1802q-42 -84 -86 -136.5t-110.5 -85t-153.5 -32.5q-127 0 -208 63.5t-144 190.5l120 78q63 -97 111.5 -130.5t118.5 -33.5t119 33.5t112 130.5zM594 0h-520v133h159v1213h-159v131h520v-131h-148v-1213h148v-133z" />
    <glyph glyph-name="Icircumflex.alt" unicode="&#xe004;" horiz-adv-x="667" 
d="M680 1669l-90 -88l-256 219l-256 -219l-92 88l293 305q26 29 53 29q28 0 57 -29zM594 0h-520v133h159v1213h-159v131h520v-131h-148v-1213h148v-133z" />
    <glyph glyph-name="Idieresis.alt" unicode="&#xe005;" horiz-adv-x="667" 
d="M672 1640l-2 -2h-4h-9h-198h-6h-7q-2 2 -2 13v204q0 11 3 14t12 3h198q9 0 12 -3t3 -14v-204v-11zM215 1640l-2 -2h-6h-6h-199h-8h-4q-2 2 -2 13v204q0 12 2.5 14.5t11.5 2.5h199q9 0 11.5 -2.5t2.5 -14.5v-204v-11zM594 0h-520v133h159v1213h-159v131h520v-131h-148
v-1213h148v-133z" />
    <glyph glyph-name="Idotaccent.alt" unicode="&#xe006;" horiz-adv-x="667" 
d="M199 1860v-228q0 -12 3.5 -16t12.5 -4h236q9 0 12.5 4t3.5 16v228q0 12 -3.5 16t-12.5 4h-236q-9 0 -12.5 -4t-3.5 -16zM594 0h-520v133h159v1213h-159v131h520v-131h-148v-1213h148v-133z" />
    <glyph glyph-name="Igrave.alt" unicode="&#xe007;" horiz-adv-x="667" 
d="M557 1657q0 -6 -6 -12l-64 -58q-6 -6 -18 -6q-10 0 -20 10l-357 264l148 144l311 -326q6 -9 6 -16zM594 0h-520v133h159v1213h-159v131h520v-131h-148v-1213h148v-133z" />
    <glyph glyph-name="Imacron.alt" unicode="&#xe008;" horiz-adv-x="667" 
d="M666 1647h-701v168h701v-168zM582 0h-521v133h160v1213h-160v131h521v-131h-148v-1213h148v-133z" />
    <glyph glyph-name="Iogonek.alt" unicode="&#xe009;" horiz-adv-x="667" 
d="M512 -369q-103 -45 -219 -45q-98 0 -161.5 44t-63.5 137q0 40 18.5 70.5t58.5 66.5l105 96h-176v133h159v1213h-159v131h520v-131h-148v-1213h148v-133h-184l-170 -168q-27 -27 -27 -65q0 -44 31 -63t78 -19q66 0 157 26z" />
    <glyph glyph-name="Itilde.alt" unicode="&#xe00a;" horiz-adv-x="667" 
d="M735 1794l-147 -184q-43 -54 -92 -54q-34 0 -82 25l-176 88q-19 8 -33 8q-17 0 -31 -14l-100 -109l-113 76l139 182q42 56 88 56q32 0 84 -25l179 -88q28 -14 38 -14q11 0 25 14l104 115zM594 0h-520v133h159v1213h-159v131h520v-131h-148v-1213h148v-133z" />
    <glyph glyph-name="J.alt" unicode="&#xe00b;" horiz-adv-x="876" 
d="M756 436q0 -249 -111 -358t-317 -109q-90 0 -161.5 25t-150.5 90l103 147q101 -81 207 -81q121 0 168 63t47 223v795q0 30 12 51h-365l-55 195h623v-1041z" />
    <glyph glyph-name="Jcircumflex.alt" unicode="&#xe00c;" horiz-adv-x="876" 
d="M1010 1634l-90 -88l-256 219l-256 -219l-93 88l293 305q26 29 54 29t57 -29zM756 436q0 -249 -111 -358t-317 -109q-90 0 -161.5 25t-150.5 90l103 147q101 -81 207 -81q121 0 168 63t47 223v795q0 30 12 51h-365l-55 195h623v-1041z" />
    <glyph glyph-name="a.alt" unicode="&#xe00d;" horiz-adv-x="1163" 
d="M1133 0h-127q-71 0 -114 21t-61 71q-170 -123 -370 -123q-195 0 -292 100t-97 271q0 352 420 352q142 0 299 -35v142q0 80 -47.5 118.5t-155.5 38.5q-100 0 -173 -29.5t-124 -103.5l-162 95q123 212 463 212q102 0 178 -20t120 -51t71 -76.5t36 -89t9 -96.5v-531
q0 -21 1.5 -32.5t7 -23.5t18.5 -17t34 -5h66v-188zM791 252v246q-173 26 -256 26q-246 0 -246 -184q0 -193 172 -193q96 0 169.5 24.5t160.5 80.5z" />
    <glyph glyph-name="aacute.alt" unicode="&#xe00e;" horiz-adv-x="1163" 
d="M881 1493l-357 -264l-6 -6q-8 -4 -12 -4q-11 0 -17 6l-65 57q-6 4 -6 10q0 11 6 17l313 327zM1133 0h-127q-71 0 -114 21t-61 71q-170 -123 -370 -123q-195 0 -292 100t-97 271q0 352 420 352q142 0 299 -35v142q0 80 -47.5 118.5t-155.5 38.5q-100 0 -173 -29.5
t-124 -103.5l-162 95q123 212 463 212q102 0 178 -20t120 -51t71 -76.5t36 -89t9 -96.5v-531q0 -21 1.5 -32.5t7 -23.5t18.5 -17t34 -5h66v-188zM791 252v246q-173 26 -256 26q-246 0 -246 -184q0 -193 172 -193q96 0 169.5 24.5t160.5 80.5z" />
    <glyph glyph-name="abreve.alt" unicode="&#xe00f;" horiz-adv-x="1150" 
d="M926 1481q-42 -84 -86 -136.5t-111 -85t-154 -32.5q-127 0 -208 63.5t-144 190.5l121 78q64 -97 111.5 -130.5t117.5 -33.5q71 0 120 34t112 130zM1133 0h-127q-71 0 -114 21t-61 71q-170 -123 -370 -123q-195 0 -292 100t-97 271q0 352 420 352q142 0 299 -35v142
q0 80 -47.5 118.5t-155.5 38.5q-100 0 -173 -29.5t-124 -103.5l-162 95q123 212 463 212q102 0 178 -20t120 -51t71 -76.5t36 -89t9 -96.5v-531q0 -21 1.5 -32.5t7 -23.5t18.5 -17t34 -5h66v-188zM791 252v246q-173 26 -256 26q-246 0 -246 -184q0 -193 172 -193
q96 0 169.5 24.5t160.5 80.5z" />
    <glyph glyph-name="acircumflex.alt" unicode="&#xe010;" horiz-adv-x="1163" 
d="M915 1307l-90 -88l-256 219l-256 -219l-92 88l293 305q25 28 53 28q30 0 58 -28zM1133 0h-127q-71 0 -114 21t-61 71q-170 -123 -370 -123q-195 0 -292 100t-97 271q0 352 420 352q142 0 299 -35v142q0 80 -47.5 118.5t-155.5 38.5q-100 0 -173 -29.5t-124 -103.5
l-162 95q123 212 463 212q102 0 178 -20t120 -51t71 -76.5t36 -89t9 -96.5v-531q0 -21 1.5 -32.5t7 -23.5t18.5 -17t34 -5h66v-188zM791 252v246q-173 26 -256 26q-246 0 -246 -184q0 -193 172 -193q96 0 169.5 24.5t160.5 80.5z" />
    <glyph glyph-name="adieresis.alt" unicode="&#xe011;" horiz-adv-x="1163" 
d="M911 1337l-2 -2h-4h-8h-199h-6h-6q-2 2 -2 13v204q0 12 2.5 14.5t11.5 2.5h199q9 0 11.5 -2.5t2.5 -14.5v-204v-11zM455 1337l-2 -2h-7h-6h-198h-9h-4q-2 2 -2 13v204q0 12 2.5 14.5t12.5 2.5h198q10 0 12.5 -2.5t2.5 -14.5v-204v-11zM1133 0h-127q-71 0 -114 21t-61 71
q-170 -123 -370 -123q-195 0 -292 100t-97 271q0 352 420 352q142 0 299 -35v142q0 80 -47.5 118.5t-155.5 38.5q-100 0 -173 -29.5t-124 -103.5l-162 95q123 212 463 212q102 0 178 -20t120 -51t71 -76.5t36 -89t9 -96.5v-531q0 -21 1.5 -32.5t7 -23.5t18.5 -17t34 -5h66
v-188zM791 252v246q-173 26 -256 26q-246 0 -246 -184q0 -193 172 -193q96 0 169.5 24.5t160.5 80.5z" />
    <glyph glyph-name="agrave.alt" unicode="&#xe012;" horiz-adv-x="1163" 
d="M762 1294q0 -8 -6 -12l-64 -57q-6 -6 -18 -6q-9 0 -21 10l-356 264l147 143l312 -325q6 -6 6 -17zM1133 0h-127q-71 0 -114 21t-61 71q-170 -123 -370 -123q-195 0 -292 100t-97 271q0 352 420 352q142 0 299 -35v142q0 80 -47.5 118.5t-155.5 38.5q-100 0 -173 -29.5
t-124 -103.5l-162 95q123 212 463 212q102 0 178 -20t120 -51t71 -76.5t36 -89t9 -96.5v-531q0 -21 1.5 -32.5t7 -23.5t18.5 -17t34 -5h66v-188zM791 252v246q-173 26 -256 26q-246 0 -246 -184q0 -193 172 -193q96 0 169.5 24.5t160.5 80.5z" />
    <glyph glyph-name="amacron.alt" unicode="&#xe013;" horiz-adv-x="1163" 
d="M1133 0h-127q-71 0 -114 21t-61 71q-170 -123 -370 -123q-195 0 -292 100t-97 271q0 352 420 352q142 0 299 -35v142q0 80 -47.5 118.5t-155.5 38.5q-100 0 -173 -29.5t-124 -103.5l-162 95q123 212 463 212q102 0 178 -20t120 -51t71 -76.5t36 -89t9 -96.5v-531
q0 -21 1.5 -32.5t7 -23.5t18.5 -17t34 -5h66v-188zM791 252v246q-173 26 -256 26q-246 0 -246 -184q0 -193 172 -193q96 0 169.5 24.5t160.5 80.5zM913 1350h-700v168h700v-168z" />
    <glyph glyph-name="aogonek.alt" unicode="&#xe014;" horiz-adv-x="1163" 
d="M1163 -369q-103 -45 -219 -45q-98 0 -161.5 44t-63.5 137q0 39 18.5 70t59.5 67l118 106q-64 22 -84 82q-170 -123 -370 -123q-195 0 -292 100t-97 271q0 352 420 352q142 0 299 -35v142q0 80 -47.5 118.5t-155.5 38.5q-100 0 -173 -29.5t-124 -103.5l-162 95
q123 212 463 212q102 0 178 -20t120 -51t71 -76.5t36 -89t9 -96.5v-531q0 -21 1.5 -32.5t7 -23.5t18.5 -17t34 -5h66v-188h-72l-170 -168q-27 -27 -27 -65q0 -44 31 -63t78 -19q66 0 157 26zM791 252v246q-173 26 -256 26q-246 0 -246 -184q0 -193 172 -193q96 0 169.5 24.5
t160.5 80.5z" />
    <glyph glyph-name="apple" unicode="&#xe015;" horiz-adv-x="1617" 
d="M1419 756q0 -147 -16.5 -261.5t-59 -216t-110.5 -168.5t-175.5 -105t-250.5 -38q-144 0 -251 38.5t-174.5 104.5t-109 168t-57.5 216.5t-16 261.5q0 133 16 239.5t57.5 205t108.5 164.5t174.5 105t249.5 39q143 0 251.5 -39t176.5 -105t110.5 -164t59 -205.5t16.5 -239.5
zM1255 514q0 141 -75.5 238.5t-225.5 124.5l-225 41q-54 9 -69 26t-15 70q0 27 4 43t19 32.5t49 23.5t90 7q78 0 122.5 -24.5t74.5 -81.5l53 -17l143 74l21 55q-120 238 -412 238q-110 0 -192 -27t-130 -75.5t-71 -110t-23 -137.5q0 -283 269 -338l237 -47q62 -12 83.5 -36
t21.5 -79q0 -152 -199 -152q-85 0 -134.5 32t-86.5 116l-56 20l-141 -73l-22 -51q37 -101 105.5 -166t150.5 -92t182 -27q109 0 196 30.5t141.5 84.5t83.5 125t29 153h2zM1174 514q0 -135 -93.5 -223t-275.5 -88q-257 0 -350 198l71 37q46 -84 112.5 -120.5t164.5 -36.5
q146 0 214 66.5t68 166.5q0 85 -47 132.5t-123 62.5l-237 45q-203 36 -203 260q0 268 332 268q222 0 321 -158l-73 -37q-42 59 -100.5 87t-145.5 28q-136 0 -191 -47.5t-55 -140.5q0 -82 33.5 -122.5t114.5 -55.5l225 -43q235 -44 235 -279h3z" />
    <glyph glyph-name="aring.alt" unicode="&#xe016;" horiz-adv-x="1163" 
d="M809 1450q0 -96 -67.5 -163.5t-163.5 -67.5q-95 0 -163.5 68t-68.5 163t68.5 163t163.5 68q96 0 163.5 -67.5t67.5 -163.5zM1133 0h-127q-71 0 -114 21t-61 71q-170 -123 -370 -123q-195 0 -292 100t-97 271q0 352 420 352q142 0 299 -35v142q0 80 -47.5 118.5
t-155.5 38.5q-100 0 -173 -29.5t-124 -103.5l-162 95q123 212 463 212q102 0 178 -20t120 -51t71 -76.5t36 -89t9 -96.5v-531q0 -21 1.5 -32.5t7 -23.5t18.5 -17t34 -5h66v-188zM682 1450q0 41 -30.5 70.5t-73.5 29.5q-42 0 -72.5 -29.5t-30.5 -70.5t31 -71.5t72 -30.5
q43 0 73.5 30.5t30.5 71.5zM791 252v246q-173 26 -256 26q-246 0 -246 -184q0 -193 172 -193q96 0 169.5 24.5t160.5 80.5z" />
    <glyph glyph-name="arrow" unicode="&#xe017;" horiz-adv-x="1617" 
d="M1509 748q0 -142 -55.5 -271.5t-149.5 -223t-223.5 -149t-271.5 -55.5q-190 0 -351.5 94t-255 255t-93.5 350q0 142 55.5 271t149 222.5t222.5 149t271 55.5q143 0 272.5 -55.5t224 -149t150 -222.5t55.5 -271zM1419 750l-497 491l-138 -131l260 -262h-790v-191h801
l-269 -270l134 -133z" />
    <glyph glyph-name="atilde.alt" unicode="&#xe018;" horiz-adv-x="1163" 
d="M961 1505l-148 -184q-42 -53 -92 -53q-33 0 -82 24l-176 88q-18 9 -33 9q-16 0 -31 -15l-100 -108l-113 75l140 183q42 55 88 55q32 0 84 -25l178 -88q33 -14 39 -14q13 0 24 14l105 115zM1133 0h-127q-71 0 -114 21t-61 71q-170 -123 -370 -123q-195 0 -292 100t-97 271
q0 352 420 352q142 0 299 -35v142q0 80 -47.5 118.5t-155.5 38.5q-100 0 -173 -29.5t-124 -103.5l-162 95q123 212 463 212q102 0 178 -20t120 -51t71 -76.5t36 -89t9 -96.5v-531q0 -21 1.5 -32.5t7 -23.5t18.5 -17t34 -5h66v-188zM791 252v246q-173 26 -256 26
q-246 0 -246 -184q0 -193 172 -193q96 0 169.5 24.5t160.5 80.5z" />
    <glyph glyph-name="caronalt" unicode="&#xe019;" horiz-adv-x="409" 
d="M328 1477l-142 -480q-3 -18 -8.5 -23t-23.5 -5h-72q-16 0 -20.5 5t-4.5 23l62 480h209z" />
    <glyph glyph-name="commaaccentalt" unicode="&#xe01a;" horiz-adv-x="409" 
d="M170 1726l92 -63q-51 -69 -51 -174h104q14 0 17.5 -5t3.5 -18v-188q0 -17 -5.5 -21t-15.5 -4h-227q-11 0 -15.5 5t-4.5 20v139q0 97 20 168t82 141z" />
    <glyph glyph-name="dotlessi.alt" unicode="&#xe01b;" horiz-adv-x="624" 
d="M586 -16h-129q-127 0 -186.5 63t-59.5 201v616q0 23 18 58h-194v178h389v-852q0 -37 8 -55t18.5 -21.5t32.5 -3.5h103v-184z" />
    <glyph glyph-name="f_i.alt" unicode="&#xe022;" horiz-adv-x="1335" 
d="M1137 1366q0 -13 -2.5 -15.5t-14.5 -2.5h-219q-12 0 -14 2t-2 16v209q0 15 2 17.5t14 2.5h219q12 0 14.5 -2.5t2.5 -17.5v-209zM1296 -16h-129q-124 0 -184.5 61.5t-60.5 198.5v610q0 26 22 68h-530v-922h-215v848q0 13 2.5 25t5 18.5t8 17t6.5 13.5h-182v178h162v104
q0 90 22 159.5t58 112.5t88 70.5t106 38t117 10.5q109 0 221 -24l-41 -172q-83 22 -184 22q-174 0 -174 -217v-104h721v-856q0 -27 4 -43t14 -23t18.5 -8.5t24.5 -1.5h100v-184z" />
    <glyph glyph-name="i.alt" unicode="&#xe025;" horiz-adv-x="624" 
d="M426 1366q0 -14 -2 -16t-14 -2h-220q-12 0 -14 2t-2 16v209q0 15 2 17.5t14 2.5h220q12 0 14 -2.5t2 -17.5v-209zM586 -16h-129q-127 0 -186.5 63t-59.5 201v616q0 23 18 58h-194v178h389v-852q0 -37 8 -55t18.5 -21.5t32.5 -3.5h103v-184z" />
    <glyph glyph-name="iacute.alt" unicode="&#xe026;" horiz-adv-x="624" 
d="M539 1493l-357 -264l-6 -6q-8 -4 -12 -4q-8 0 -17 6l-65 57q-6 4 -6 10q0 11 6 17l313 327zM586 -16h-129q-127 0 -186.5 63t-59.5 201v616q0 23 18 58h-194v178h389v-852q0 -37 8 -55t18.5 -21.5t32.5 -3.5h103v-184z" />
    <glyph glyph-name="ibreve.alt" unicode="&#xe027;" horiz-adv-x="624" 
d="M651 1528q-42 -84 -86 -136.5t-110.5 -85t-153.5 -32.5q-127 0 -208 63.5t-144 190.5l121 78q64 -97 111.5 -130.5t117.5 -33.5t119 33.5t112 130.5zM586 -16h-129q-127 0 -186.5 63t-59.5 201v616q0 23 18 58h-194v178h389v-852q0 -37 8 -55t18.5 -21.5t32.5 -3.5h103
v-184z" />
    <glyph glyph-name="icircumflex.alt" unicode="&#xe028;" horiz-adv-x="624" 
d="M647 1307l-90 -88l-256 219l-256 -219l-92 88l293 305q28 28 53 28q32 0 57 -28zM586 -16h-129q-127 0 -186.5 63t-59.5 201v616q0 23 18 58h-194v178h389v-852q0 -37 8 -55t18.5 -21.5t32.5 -3.5h103v-184z" />
    <glyph glyph-name="idieresis.alt" unicode="&#xe029;" horiz-adv-x="624" 
d="M659 1337l-2 -2h-4h-8h-199h-6h-6q-2 2 -2 13v204q0 12 2.5 14.5t11.5 2.5h199q9 0 11.5 -2.5t2.5 -14.5v-204v-11zM203 1337l-2 -2h-6h-7h-198h-8h-5q-2 2 -2 13v204q0 12 2.5 14.5t12.5 2.5h198q10 0 12.5 -2.5t2.5 -14.5v-204v-11zM586 -16h-129q-127 0 -186.5 63
t-59.5 201v616q0 23 18 58h-194v178h389v-852q0 -37 8 -55t18.5 -21.5t32.5 -3.5h103v-184z" />
    <glyph glyph-name="igrave.alt" unicode="&#xe02a;" horiz-adv-x="624" 
d="M489 1294q0 -6 -6 -12l-63 -57q-6 -6 -19 -6q-7 0 -20 10l-356 264l147 143l311 -325q6 -6 6 -17zM586 -16h-129q-127 0 -186.5 63t-59.5 201v616q0 23 18 58h-194v178h389v-852q0 -37 8 -55t18.5 -21.5t32.5 -3.5h103v-184z" />
    <glyph glyph-name="ij.alt" unicode="&#xe02b;" horiz-adv-x="1091" 
d="M426 1366q0 -14 -2 -16t-14 -2h-220q-12 0 -14 2t-2 16v209q0 15 2 17.5t14 2.5h220q12 0 14 -2.5t2 -17.5v-209zM586 -16h-129q-127 0 -186.5 63t-59.5 201v616q0 23 18 58h-194v178h389v-852q0 -37 8 -55t18.5 -21.5t32.5 -3.5h103v-184zM1008 1366q0 -13 -2.5 -15.5
t-14.5 -2.5h-221q-12 0 -14 2t-2 16v209q0 15 2 17.5t14 2.5h221q12 0 14.5 -2.5t2.5 -17.5v-209zM1004 -203q0 -134 -78 -213.5t-242 -79.5h-117v174h117q59 0 83 29t24 90v1071q0 18 18 54h-195v178h390v-1303z" />
    <glyph glyph-name="imacron.alt" unicode="&#xe02c;" horiz-adv-x="624" 
d="M653 1319h-700v168h700v-168zM586 -16h-129q-127 0 -186.5 63t-59.5 201v616q0 23 18 58h-194v178h389v-852q0 -37 8 -55t18.5 -21.5t32.5 -3.5h103v-184z" />
    <glyph glyph-name="iogonek.alt" unicode="&#xe02d;" horiz-adv-x="624" 
d="M610 -369q-103 -45 -219 -45q-98 0 -161.5 44t-63.5 137q0 39 18.5 70t59.5 67l104 96q-70 22 -103.5 82t-33.5 166v616q0 23 18 58h-194v178h389v-852q0 -37 8 -55t18.5 -21.5t32.5 -3.5h103v-184h-94l-154 -152q-27 -27 -27 -65q0 -44 31 -63t78 -19q67 0 158 26z
M426 1366q0 -14 -2 -16t-14 -2h-220q-12 0 -14 2t-2 16v209q0 15 2 17.5t14 2.5h220q12 0 14 -2.5t2 -17.5v-209z" />
    <glyph glyph-name="itilde.alt" unicode="&#xe02e;" horiz-adv-x="624" 
d="M680 1477l-148 -185q-42 -53 -92 -53q-34 0 -82 25l-176 88q-19 8 -32 8q-17 0 -31 -14l-101 -109l-112 76l139 182q42 55 88 55q35 0 84 -24l178 -88q30 -15 39 -15q10 0 25 15l104 114zM586 -16h-129q-127 0 -186.5 63t-59.5 201v616q0 23 18 58h-194v178h389v-852
q0 -37 8 -55t18.5 -21.5t32.5 -3.5h103v-184z" />
    <glyph glyph-name="j.alt" unicode="&#xe02f;" horiz-adv-x="559" 
d="M428 1366q0 -14 -2 -16t-14 -2h-222q-12 0 -14 2t-2 16v209q0 15 2 17.5t14 2.5h222q12 0 14 -2.5t2 -17.5v-209zM424 -203q0 -134 -78 -213.5t-242 -79.5h-116v174h116q59 0 83 29t24 90v1071q0 18 18 54h-194v178h389v-1303z" />
    <glyph glyph-name="j.dotless" unicode="&#xe030;" horiz-adv-x="471" 
d="M342 -203q0 -134 -77.5 -213.5t-241.5 -79.5h-117v174h117q59 0 82.5 29t23.5 90v1303h213v-1303z" />
    <glyph glyph-name="jcircumflex.alt" unicode="&#xe031;" horiz-adv-x="528" 
d="M424 -203q0 -134 -78 -213.5t-242 -79.5h-116v174h116q59 0 83 29t24 90v1071q0 18 18 54h-194v178h389v-1303zM647 1307l-90 -88l-256 219l-256 -219l-92 88l293 305q25 28 53 28q29 0 57 -28z" />
    <glyph glyph-name="l.alt" unicode="&#xe032;" horiz-adv-x="593" 
d="M573 -18h-153q-126 0 -186 68t-60 208v1149h-194v188h409v-1337q0 -53 13 -69.5t42 -16.5h129v-190z" />
    <glyph glyph-name="lacute.alt" unicode="&#xe033;" horiz-adv-x="561" 
d="M567 1896l-356 -264q-21 -15 -35 -4l-65 58q-13 13 0 26l313 328zM573 -18h-153q-126 0 -186 68t-60 208v1149h-194v188h409v-1337q0 -53 13 -69.5t42 -16.5h129v-190z" />
    <glyph glyph-name="lcaron.alt" unicode="&#xe034;" horiz-adv-x="604" 
d="M788 1593l-141 -479q-3 -18 -9 -23.5t-24 -5.5h-71q-15 0 -20 5.5t-5 23.5l62 479h208zM573 -18h-153q-126 0 -186 68t-60 208v1149h-194v188h409v-1337q0 -53 13 -69.5t42 -16.5h129v-190z" />
    <glyph glyph-name="lcommaaccent.alt" unicode="&#xe035;" horiz-adv-x="561" 
d="M573 -18h-153q-126 0 -186 68t-60 208v1149h-194v188h409v-1337q0 -53 13 -69.5t42 -16.5h129v-190zM350 -559l-92 63q51 69 51 174h-104q-14 0 -17.5 5t-3.5 18v188q0 17 5.5 21t15.5 4h227q21 0 21 -25v-139q0 -96 -20.5 -167.5t-82.5 -141.5z" />
    <glyph glyph-name="ldot.alt" unicode="&#xe036;" horiz-adv-x="790" 
d="M487 956v-227q0 -20 17 -20h235q17 0 17 20v227q0 21 -17 21h-235q-17 0 -17 -21zM573 -18h-153q-126 0 -186 68t-60 208v1149h-194v188h409v-1337q0 -53 13 -69.5t42 -16.5h129v-190z" />
    <glyph glyph-name="lslash.alt" unicode="&#xe037;" horiz-adv-x="593" 
d="M573 -18h-153q-126 0 -186 68t-60 208v485l-131 -79v221l131 80v442h-194v188h409v-497l137 84v-221l-137 -84v-619q0 -53 13 -69.5t42 -16.5h129v-190z" />
    <glyph glyph-name="uni2014.alt" unicode="&#xe038;" horiz-adv-x="1253" 
d="M1200 506h-1147v196h1147v-196z" />
    <glyph glyph-name="h.superior" unicode="&#xf637;" horiz-adv-x="745" 
d="M664 625h-148v424q0 74 -29 107.5t-73 33.5q-32 0 -70 -14.5t-108 -59.5v-491h-148v962h148v-344q93 70 206 70q95 0 158.5 -65t63.5 -199v-424z" />
    <glyph glyph-name="zero.fitted" unicode="&#xf639;" 
d="M1128 756q0 -100 -4.5 -179t-18 -163.5t-36.5 -147.5t-61 -121.5t-90.5 -95t-127 -58.5t-167.5 -22t-167.5 22t-127 58.5t-91 95t-61.5 121.5t-36.5 147.5t-18 163.5t-4.5 179q0 95 5.5 173.5t20.5 158t39 141t63 115.5t91 89.5t124.5 55.5t162.5 20t162 -20t124.5 -55.5
t91 -89.5t63 -115.5t39 -141t20 -158t5.5 -173.5zM909 756q0 103 -3.5 173.5t-14 139.5t-30 111.5t-51 76.5t-78 49t-109.5 15t-109.5 -15t-78 -48.5t-51 -76.5t-30.5 -111.5t-14.5 -139.5t-3.5 -174q0 -107 3.5 -181.5t14 -147.5t30.5 -119t51.5 -82.5t78 -53t109.5 -16.5
q54 0 96 13t72 36.5t51 63.5t34 85t20.5 111.5t10 133t2.5 157.5z" />
    <glyph glyph-name="two.fitted" unicode="&#xf63a;" 
d="M1108 1081q0 -80 -27 -151t-71.5 -125t-103.5 -106.5t-121.5 -94.5t-128 -90.5t-121 -93.5t-101 -103.5t-67.5 -121.5h534v211h203v-406h-983q0 109 26.5 204t71 165.5t102 132t121.5 110t128 93t121.5 87t102 85t71 94.5t26.5 110q0 117 -62.5 178.5t-173.5 61.5
q-86 0 -146 -18.5t-94 -55t-50.5 -77.5t-24.5 -99h-201q4 66 21.5 125.5t56 118t94.5 100.5t144.5 68t199.5 26q196 0 324.5 -114.5t128.5 -313.5z" />
    <glyph glyph-name="three.fitted" unicode="&#xf63b;" 
d="M1141 442q0 -231 -143 -352t-380 -121q-201 0 -329 69t-213 230l168 80q63 -117 146 -160t228 -43q152 0 229 78t77 219q0 116 -70.5 182t-194.5 66h-237l-53 184h290q106 0 171 61t65 175q0 106 -60 161.5t-196 55.5q-147 0 -230 -40.5t-145 -156.5l-168 80
q85 160 214.5 229.5t330.5 69.5q128 0 222 -32t147.5 -88.5t78.5 -125.5t25 -153q0 -209 -176 -317q97 -44 150 -138t53 -213z" />
    <glyph glyph-name="four.fitted" unicode="&#xf63c;" 
d="M1200 381h-158v-381h-215v381h-747v186l751 910h211v-897h158v-199zM844 1165l-486 -585h469v503q0 33 17 82z" />
    <glyph glyph-name="five.fitted" unicode="&#xf63d;" 
d="M1147 465q0 -227 -130.5 -361.5t-387.5 -134.5q-201 0 -329.5 69t-213.5 230l168 80q63 -116 146 -158.5t229 -42.5q159 0 230 81t71 237q0 92 -26 154.5t-75 94.5t-104.5 45t-128.5 13q-84 0 -187 -13t-180 -38l-75 61l79 695h879l-53 -187h-651l-46 -368q86 24 263 24
q93 0 170 -16t143.5 -52t112 -91t71 -136.5t25.5 -185.5z" />
    <glyph glyph-name="six.fitted" unicode="&#xf63e;" 
d="M1137 498q0 -122 -26.5 -215.5t-85 -165.5t-159.5 -110t-241 -38t-241 38t-159.5 110t-85 165.5t-26.5 215.5q0 41 -1 127q-4 76 -1.5 155t5 155.5t18 148.5t38 136t64.5 117t97.5 91.5t136.5 59.5t183 21q313 0 453 -206l-143 -132q-66 75 -133 112.5t-177 37.5
q-83 0 -138.5 -19t-96.5 -67t-61 -131.5t-23 -210.5q119 96 291 96q512 0 512 -491zM920 498q0 166 -67.5 236.5t-227.5 70.5q-295 0 -295 -307q0 -188 67.5 -265t227.5 -77q158 0 226.5 77.5t68.5 264.5z" />
    <glyph glyph-name="seven.fitted" unicode="&#xf63f;" horiz-adv-x="1163" 
d="M1102 1303l-688 -1303h-248l645 1214q17 33 55 68h-571v-211h-203v406h1010v-174z" />
    <glyph glyph-name="eight.fitted" unicode="&#xf640;" 
d="M1147 442q0 -473 -510 -473q-512 0 -512 473q0 238 180 340q-160 92 -160 310q0 202 124.5 309.5t365.5 107.5t366 -107.5t125 -309.5q0 -219 -159 -310q180 -102 180 -340zM911 1092q0 69 -19 115t-57 70.5t-85.5 34t-114.5 9.5t-114.5 -9.5t-85.5 -34t-56.5 -70.5
t-18.5 -115q0 -111 54.5 -165.5t128.5 -54.5h186q74 0 128 54.5t54 165.5zM930 442q0 104 -56 175t-155 71h-166q-99 0 -155 -71t-56 -175q0 -160 68 -223t225 -63q158 0 226.5 63.5t68.5 222.5z" />
    <glyph glyph-name="nine.fitted" unicode="&#xf641;" 
d="M1130 981q0 -41 1 -127q4 -76 1.5 -155t-5 -155.5t-18 -149t-38 -136.5t-64.5 -117t-97.5 -91t-136.5 -59.5t-183 -21.5q-312 0 -453 207l142 129q65 -74 133 -111.5t178 -37.5t176 36t102.5 131t40.5 263q-120 -97 -291 -97q-512 0 -512 492q0 122 26.5 215.5t85 165
t159.5 109.5t241 38t241 -38t159.5 -109.5t85 -165t26.5 -215.5zM913 981q0 187 -67.5 263.5t-227.5 76.5q-159 0 -226.5 -76.5t-67.5 -263.5q0 -166 67.5 -236.5t226.5 -70.5q295 0 295 307z" />
    <glyph glyph-name="zero.taboldstyle" unicode="&#xf643;" 
d="M1087 559q0 -100 -11 -180.5t-41.5 -159.5t-80.5 -132t-134.5 -85.5t-196.5 -32.5t-196.5 32.5t-135 85.5t-81 132t-41.5 159.5t-11 180.5q0 96 12.5 176t44.5 155t83.5 126.5t134 82.5t190.5 31t190.5 -31t133.5 -82.5t83 -126.5t44.5 -155t12.5 -176zM872 559
q0 102 -9.5 169t-36 119.5t-76.5 76.5t-127 24t-127 -24t-76.5 -76.5t-36.5 -119.5t-10 -169q0 -86 6 -147t22 -114t43.5 -85t72 -50t106.5 -18t106 18t72 50t43.5 85.5t21.5 114t6 146.5z" />
    <glyph glyph-name="one.taboldstyle" unicode="&#xf644;" 
d="M1022 0h-799v195h291v624q0 48 14 76l-307 -59v190l508 102v-933h293v-195z" />
    <glyph glyph-name="two.taboldstyle" unicode="&#xf645;" 
d="M1106 0h-967q0 108 25.5 198t67 152t100 110.5t118.5 77t130 48.5q102 29 153.5 47.5t86 43.5t43.5 52t9 74q0 79 -53 117t-180 38q-147 0 -202.5 -53t-55.5 -168h-199q0 86 25.5 155.5t78 123.5t142.5 84t211 30q446 0 446 -327q0 -42 -7.5 -79t-18.5 -66t-33 -55
t-41 -44.5t-52.5 -37.5t-58.5 -31t-68.5 -27t-72 -23.5t-78.5 -23.5q-116 -33 -180.5 -86.5t-101.5 -143.5h522v127h211v-313z" />
    <glyph glyph-name="three.taboldstyle" unicode="&#xf646;" 
d="M1141 63q0 -231 -143 -352t-380 -121q-201 0 -329 69t-213 230l168 80q63 -117 145.5 -159.5t228.5 -42.5q152 0 229 77.5t77 218.5q0 116 -70.5 182t-194.5 66h-237l-53 185h290q106 0 171 60.5t65 174.5q0 106 -60 161.5t-196 55.5q-148 0 -230.5 -40t-144.5 -156
l-168 79q85 160 214.5 229.5t330.5 69.5q128 0 222 -32t147.5 -88.5t78.5 -125.5t25 -153q0 -209 -176 -317q97 -44 150 -138t53 -213z" />
    <glyph glyph-name="four.taboldstyle" unicode="&#xf647;" 
d="M1200 0h-158v-377h-215v377h-747v186l751 914h211v-901h158v-199zM844 788l-486 -589h469v508q0 32 17 81z" />
    <glyph glyph-name="five.taboldstyle" unicode="&#xf648;" 
d="M1147 88q0 -227 -130.5 -361.5t-387.5 -134.5q-201 0 -329.5 69t-213.5 230l168 82q63 -117 146 -159.5t229 -42.5q159 0 230 81t71 236q0 92 -26 154.5t-75 94.5t-104.5 45t-128.5 13q-84 0 -187 -13t-180 -38l-75 62l79 694h879l-53 -187h-651l-46 -368q86 24 263 24
q93 0 170 -16t143.5 -52t112 -91t71 -136.5t25.5 -185.5z" />
    <glyph glyph-name="six.taboldstyle" unicode="&#xf649;" 
d="M1137 498q0 -122 -26.5 -215.5t-85 -165.5t-159.5 -110t-241 -38t-241 38t-159.5 110t-85 165.5t-26.5 215.5q0 41 -1 127q-4 76 -1.5 155t5 155.5t18 148.5t38 136t64.5 117t97.5 91.5t136.5 59.5t183 21q313 0 453 -206l-143 -132q-66 75 -133 112.5t-177 37.5
q-83 0 -138.5 -19t-96.5 -67t-61 -131.5t-23 -210.5q119 96 291 96q512 0 512 -491zM920 498q0 166 -67.5 236.5t-227.5 70.5q-295 0 -295 -307q0 -188 67.5 -265t227.5 -77q158 0 226.5 77.5t68.5 264.5z" />
    <glyph glyph-name="seven.taboldstyle" unicode="&#xf64a;" 
d="M1145 926l-688 -1303h-248l645 1215q16 31 55 67h-571v-211h-203v406h1010v-174z" />
    <glyph glyph-name="eight.taboldstyle" unicode="&#xf64b;" horiz-adv-x="1288" 
d="M1155 442q0 -473 -510 -473q-512 0 -512 473q0 238 180 340q-159 91 -159 310q0 203 124 310t365 107q242 0 367 -107.5t125 -309.5q0 -218 -160 -310q180 -102 180 -340zM920 1092q0 132 -69 180.5t-208 48.5q-67 0 -114 -9.5t-85 -34t-56.5 -70.5t-18.5 -115
q0 -111 54 -165.5t128 -54.5h186q74 0 128.5 54.5t54.5 165.5zM938 442q0 104 -56 175t-155 71h-166q-99 0 -155 -71t-56 -175q0 -160 68 -223t225 -63q158 0 226.5 63.5t68.5 222.5z" />
    <glyph glyph-name="nine.taboldstyle" unicode="&#xf64c;" horiz-adv-x="1294" 
d="M1157 602q0 -41 1 -125q4 -77 1.5 -156t-5 -155.5t-18 -149t-38 -136.5t-64.5 -117.5t-97.5 -91.5t-137 -59.5t-183.5 -21.5q-311 0 -452 207l141 129q65 -74 133 -111.5t178 -37.5q111 0 176.5 36t102.5 131t41 263q-119 -96 -291 -96q-512 0 -512 491q0 122 26.5 215.5
t85 165t159.5 109.5t241 38t241 -38t159.5 -109.5t85 -165t26.5 -215.5zM940 602q0 187 -67.5 263.5t-227.5 76.5q-159 0 -227 -76.5t-68 -263.5q0 -166 67.5 -236.5t227.5 -70.5q295 0 295 307z" />
    <glyph glyph-name="zero.denominator" unicode="&#xf655;" horiz-adv-x="745" 
d="M674 440q0 -83 -6 -144.5t-24.5 -124t-50.5 -101.5t-87.5 -63.5t-132.5 -24.5t-132.5 24.5t-87.5 63.5t-50.5 101.5t-24.5 124t-6 144.5q0 79 6.5 140t26 120t52.5 97t87.5 61t128.5 23t128 -23t87 -61t52.5 -97t26.5 -120t7 -140zM516 440q0 166 -27 234.5t-116 68.5
q-38 0 -64.5 -13t-42.5 -35t-24.5 -62t-11.5 -83.5t-3 -109.5q0 -69 3 -115t11.5 -88.5t24.5 -66t42.5 -37.5t64.5 -14t64 14t41.5 37.5t24 66t11 88t2.5 115.5z" />
    <glyph glyph-name="one.denominator" unicode="&#xf656;" horiz-adv-x="579" 
d="M532 0h-481v141h162v547q0 15 2 25l-84 -19q-32 -8 -80 -16v141l318 64v-742h163v-141z" />
    <glyph glyph-name="two.denominator" unicode="&#xf657;" horiz-adv-x="747" 
d="M662 625q0 -44 -14.5 -84t-31.5 -66.5t-53.5 -59.5t-57.5 -48.5t-67 -47.5q-141 -97 -184 -178h258v119h147v-260h-585q0 70 18 131t41.5 101.5t66 83t70.5 64t76 54.5q78 54 119 97.5t41 93.5q0 58 -30 88t-85 30q-85 0 -119.5 -36.5t-44.5 -104.5h-143q3 42 13 80
t33 75.5t56.5 64t86 43t118.5 16.5q118 0 194.5 -67.5t76.5 -188.5z" />
    <glyph glyph-name="three.denominator" unicode="&#xf658;" horiz-adv-x="735" 
d="M672 264q0 -137 -85 -209.5t-225 -72.5q-118 0 -195.5 44.5t-133.5 149.5l123 57q39 -69 83.5 -93.5t122.5 -24.5q154 0 154 149q0 59 -34 91t-97 32h-147l-39 137h186q52 0 83.5 29.5t31.5 87.5q0 107 -127 107q-78 0 -122 -24.5t-83 -94.5l-123 57q56 105 134 150
t196 45q147 0 214.5 -67t67.5 -173q0 -112 -84 -176q45 -31 72 -85.5t27 -115.5z" />
    <glyph glyph-name="four.denominator" unicode="&#xf659;" horiz-adv-x="729" 
d="M709 213h-91v-213h-153v213h-422v129l434 520h141v-504h91v-145zM254 358h211v258z" />
    <glyph glyph-name="five.denominator" unicode="&#xf65a;" horiz-adv-x="735" 
d="M678 279q0 -136 -77.5 -216.5t-229.5 -80.5q-119 0 -196.5 45t-133.5 149l123 57q37 -69 82.5 -93.5t124.5 -24.5q151 0 151 164q0 46 -13.5 78t-39 48t-54 22.5t-65.5 6.5q-109 0 -207 -33l-57 50l47 411h531l-41 -137h-367q-2 -15 -4 -43.5t-4 -42.5q-2 -16 -4 -41
t-4 -41q41 8 127 8q311 0 311 -286z" />
    <glyph glyph-name="six.denominator" unicode="&#xf65b;" horiz-adv-x="741" 
d="M676 297q0 -315 -305 -315q-303 0 -303 315v149q0 45 2 80t7 77t15 74t25.5 65.5t40 57t56 43t75.5 29t98 9.5q181 0 279 -133l-105 -97q-26 30 -45.5 47t-53.5 31t-75 14q-81 0 -118.5 -40.5t-43.5 -151.5q59 39 146 39q305 0 305 -293zM520 297q0 84 -34 120t-115 36
q-148 0 -148 -156q0 -98 34 -138t114 -40t114.5 40.5t34.5 137.5z" />
    <glyph glyph-name="seven.denominator" unicode="&#xf65c;" horiz-adv-x="686" 
d="M469 721h-268v-119h-148v260h600v-114l-395 -748h-172z" />
    <glyph glyph-name="eight.denominator" unicode="&#xf65d;" horiz-adv-x="741" 
d="M684 264q0 -136 -74.5 -209t-228.5 -73q-305 0 -305 282q0 128 90 193q-78 61 -78 172q0 124 73.5 188t217.5 64t218.5 -64.5t74.5 -187.5q0 -111 -78 -172q90 -65 90 -193zM528 264q0 52 -26 86.5t-74 34.5h-96q-48 0 -74.5 -34.5t-26.5 -86.5q0 -81 34 -113t114 -32
q81 0 115 31.5t34 113.5zM518 629q0 66 -34.5 90t-104.5 24q-69 0 -103 -24t-34 -90q0 -53 25 -80t59 -27h108q34 0 59 27t25 80z" />
    <glyph glyph-name="nine.denominator" unicode="&#xf65e;" horiz-adv-x="743" 
d="M672 567v-151q0 -51 -2 -91t-10 -87t-21.5 -82t-37.5 -69.5t-57 -56t-82 -35t-110 -13.5q-181 0 -276 135l100 94q42 -46 80.5 -69t95.5 -23q81 0 118.5 41t43.5 153q-59 -39 -145 -39q-306 0 -306 293q0 314 306 314q303 0 303 -314zM516 567q0 96 -33.5 136t-113.5 40
t-115 -40t-35 -136q0 -85 34 -121t116 -36q147 0 147 157z" />
    <glyph glyph-name="zero.numerator" unicode="&#xf661;" horiz-adv-x="745" 
d="M674 1065q0 -83 -6 -144.5t-24.5 -124t-50.5 -102t-87.5 -64t-132.5 -24.5t-132.5 24.5t-87.5 64t-50.5 102t-24.5 124t-6 144.5q0 79 6.5 140t26 119.5t52.5 96.5t87.5 61t128.5 23t128 -23t87 -61t52.5 -96.5t26.5 -119.5t7 -140zM516 1065q0 166 -27 234.5t-116 68.5
q-38 0 -64.5 -13t-42.5 -35t-24.5 -62t-11.5 -83.5t-3 -109.5q0 -69 3 -115t11.5 -88.5t24.5 -66.5t42.5 -38t64.5 -14t64 14t41.5 38t24 66.5t11 88t2.5 115.5z" />
    <glyph glyph-name="one.numerator" unicode="&#xf662;" horiz-adv-x="579" 
d="M532 625h-481v141h162v547q0 14 2 24l-84 -18q-32 -8 -80 -16v141l318 63v-741h163v-141z" />
    <glyph glyph-name="two.numerator" unicode="&#xf663;" horiz-adv-x="747" 
d="M662 1249q0 -44 -14.5 -84t-31.5 -66t-54 -59.5t-57 -48.5t-67 -47q-141 -97 -184 -178h258v119h147v-260h-585q0 70 18 131t41.5 101.5t66 83t70.5 64t76 54.5q79 54 119.5 97t40.5 93q0 58 -30 88.5t-85 30.5q-85 0 -119.5 -36.5t-44.5 -104.5h-143q3 42 13 80t33 75
t57 63.5t86 43t118 16.5q118 0 194.5 -67.5t76.5 -188.5z" />
    <glyph glyph-name="three.numerator" unicode="&#xf664;" horiz-adv-x="735" 
d="M672 889q0 -137 -85 -210t-225 -73q-118 0 -195.5 45t-133.5 150l123 57q39 -69 83.5 -94t122.5 -25q154 0 154 150q0 59 -34 91t-97 32h-147l-39 137h186q52 0 83.5 29.5t31.5 87.5q0 52 -29.5 79t-97.5 27q-78 0 -122 -24.5t-83 -94.5l-123 58q56 105 134 149.5
t196 44.5q147 0 214.5 -66.5t67.5 -172.5q0 -112 -84 -176q45 -31 72 -85.5t27 -115.5z" />
    <glyph glyph-name="four.numerator" unicode="&#xf665;" horiz-adv-x="729" 
d="M709 838h-91v-213h-153v213h-422v129l434 520h141v-504h91v-145zM254 983h211v258z" />
    <glyph glyph-name="five.numerator" unicode="&#xf666;" horiz-adv-x="735" 
d="M678 903q0 -136 -77.5 -216.5t-229.5 -80.5q-118 0 -196 45t-134 150l123 57q37 -69 83 -94t124 -25q151 0 151 164q0 46 -13.5 78t-39 48.5t-54 23t-65.5 6.5q-109 0 -207 -33l-57 49l47 412h531l-41 -137h-367q-2 -15 -4 -43.5t-4 -42.5q-2 -16 -4 -41t-4 -41
q41 8 127 8q145 0 228 -68.5t83 -218.5z" />
    <glyph glyph-name="six.numerator" unicode="&#xf667;" horiz-adv-x="741" 
d="M676 922q0 -316 -305 -316q-303 0 -303 316v149q0 52 2 91t10 86.5t21.5 82.5t37.5 69.5t57 56t81.5 35t109.5 13.5q181 0 279 -133l-105 -96q-26 30 -45.5 47t-53.5 31t-75 14q-81 0 -118.5 -40.5t-43.5 -151.5q58 38 146 38q305 0 305 -292zM520 922q0 84 -34 119.5
t-115 35.5q-148 0 -148 -155q0 -98 34 -138.5t114 -40.5t114.5 40.5t34.5 138.5z" />
    <glyph glyph-name="seven.numerator" unicode="&#xf668;" horiz-adv-x="686" 
d="M469 1346h-268v-119h-148v260h600v-115l-395 -747h-172z" />
    <glyph glyph-name="eight.numerator" unicode="&#xf669;" horiz-adv-x="741" 
d="M684 889q0 -136 -74.5 -209.5t-228.5 -73.5q-305 0 -305 283q0 127 90 192q-78 61 -78 172q0 124 73.5 188t217.5 64t218.5 -64.5t74.5 -187.5q0 -111 -78 -172q90 -65 90 -192zM528 889q0 52 -26 86.5t-74 34.5h-96q-48 0 -74.5 -34.5t-26.5 -86.5q0 -82 34 -114
t114 -32q81 0 115 32t34 114zM518 1253q0 66 -35 90.5t-104 24.5t-103 -24.5t-34 -90.5q0 -53 25 -79.5t59 -26.5h108q34 0 59 26.5t25 79.5z" />
    <glyph glyph-name="nine.numerator" unicode="&#xf66a;" horiz-adv-x="743" 
d="M672 1192v-152q0 -51 -2 -91t-10 -87t-21.5 -82t-37.5 -69.5t-57 -56t-82 -35t-110 -13.5q-181 0 -276 135l100 95q43 -47 81 -70t95 -23q81 0 118.5 41.5t43.5 153.5q-59 -39 -145 -39q-306 0 -306 293q0 313 306 313q303 0 303 -313zM516 1192q0 96 -33.5 136
t-113.5 40t-115 -40t-35 -136q0 -85 34.5 -121.5t115.5 -36.5q147 0 147 158z" />
    <glyph glyph-name="commaaccent" unicode="&#xf6c3;" horiz-adv-x="636" 
d="M350 -559l-92 63q51 69 51 174h-104q-14 0 -17.5 5t-3.5 18v188q0 17 5.5 21t15.5 4h227q21 0 21 -25v-139q0 -96 -20.5 -167.5t-82.5 -141.5z" />
    <glyph glyph-name="one.fitted" unicode="&#xf6dc;" horiz-adv-x="976" 
d="M889 0h-799v195h291v1003q0 48 14 76l-307 -60v191l508 102v-1312h293v-195z" />
    <glyph glyph-name="a.superior" unicode="&#xf6e9;" horiz-adv-x="704" 
d="M612 625h-120l-13 41q-92 -60 -198 -60q-122 0 -181 62t-59 170q0 217 258 217q83 0 166 -17v70q0 42 -25.5 62t-83.5 20q-115 0 -172 -80l-114 66q80 137 288 137q77 0 130 -18t78.5 -49.5t35.5 -65t10 -74.5v-481zM465 791v131q-5 1 -13.5 1t-13.5 1q-74 12 -114 12
q-136 0 -136 -98q0 -57 26.5 -82t66.5 -25q55 0 95.5 14t88.5 46z" />
    <glyph glyph-name="b.superior" unicode="&#xf6ea;" horiz-adv-x="745" 
d="M690 961q0 -187 -79 -271t-242 -84q-147 0 -281 58v923h148v-282q0 -22 -3 -31q77 39 152 39q153 0 229 -86.5t76 -265.5zM541 961q0 124 -37 176.5t-123 52.5q-62 0 -145 -39v-410q61 -20 133 -20q99 0 135.5 58.5t36.5 181.5z" />
    <glyph glyph-name="d.superior" unicode="&#xf6eb;" horiz-adv-x="749" 
d="M657 625h-106l-14 41q-87 -60 -179 -60q-303 0 -303 355q0 352 303 352q83 0 156 -37l-4 8v303h147v-962zM510 780v371q-63 37 -152 37q-81 0 -118 -50.5t-37 -176.5q0 -43 3.5 -75.5t13.5 -64t27 -51t45 -31.5t66 -12q72 0 152 53z" />
    <glyph glyph-name="e.superior" unicode="&#xf6ec;" horiz-adv-x="729" 
d="M672 911h-469q5 -93 44 -136.5t126 -43.5q63 0 103.5 22.5t66.5 75.5l127 -47q-47 -91 -116.5 -133.5t-180.5 -42.5q-164 0 -241 86t-77 269q0 174 72.5 263t245.5 89q74 0 130 -23t87 -58t50.5 -84.5t25.5 -93t6 -93.5v-50zM373 1188q-85 0 -123.5 -33t-44.5 -121h313
q-5 70 -40.5 112t-104.5 42z" />
    <glyph glyph-name="i.superior" unicode="&#xf6ed;" horiz-adv-x="311" 
d="M227 625h-143v669h143v-669zM72 1565v-121q0 -13 3.5 -18t14.5 -5h131q11 0 15 5t4 18v121q0 13 -3.5 17.5t-15.5 4.5h-131q-11 0 -14.5 -4.5t-3.5 -17.5z" />
    <glyph glyph-name="l.superior" unicode="&#xf6ee;" horiz-adv-x="368" 
d="M342 614h-100q-156 0 -156 174v799h147v-799q0 -27 5.5 -35t17.5 -8h86v-131z" />
    <glyph glyph-name="m.superior" unicode="&#xf6ef;" horiz-adv-x="1107" 
d="M1024 625h-147v434q0 131 -78 131q-45 0 -82.5 -17.5t-87.5 -52.5q2 -18 2 -61v-434h-146v434q0 66 -18 98.5t-59 32.5q-31 0 -63 -11t-52.5 -23t-52.5 -34v-497h-148v669h119l20 -55q53 36 99 55t108 19q111 0 168 -88q57 48 101 68t114 20q106 0 154.5 -59t48.5 -195
v-434z" />
    <glyph glyph-name="o.superior" unicode="&#xf6f0;" horiz-adv-x="729" 
d="M674 961q0 -172 -73 -263.5t-236 -91.5q-164 0 -237 91.5t-73 263.5t73 262t237 90q163 0 236 -90t73 -262zM524 961q0 127 -36.5 178t-122.5 51t-124 -51t-38 -178t38 -179.5t124 -52.5t122.5 52t36.5 180z" />
    <glyph glyph-name="r.superior" unicode="&#xf6f1;" horiz-adv-x="475" 
d="M463 1309v-127q-58 0 -80 -1.5t-61.5 -14.5t-88.5 -42v-499h-147v669h123l14 -49q71 68 168 68q43 0 72 -4z" />
    <glyph glyph-name="s.superior" unicode="&#xf6f2;" horiz-adv-x="657" 
d="M596 831q0 -79 -40 -131t-101.5 -73t-141.5 -21q-91 0 -162 39t-108 119l125 45q45 -82 145 -82q136 0 136 94q0 58 -64 70l-158 29q-168 29 -168 194q0 94 70 146.5t195 52.5q186 0 258 -133l-115 -58q-43 68 -141 68q-121 0 -121 -76q0 -51 55 -61l152 -27
q184 -32 184 -195z" />
    <glyph glyph-name="t.superior" unicode="&#xf6f3;" horiz-adv-x="532" 
d="M451 774l77 -94q-77 -74 -194 -74q-213 0 -213 195v338q0 22 4 30h-111v125h107v219l147 43v-262h232l-39 -125h-193v-368q0 -35 21 -52.5t53 -17.5q41 0 109 43z" />
    <glyph glyph-name="zero.oldstyle" unicode="&#xf730;" horiz-adv-x="1134" 
d="M1032 559q0 -100 -11 -180.5t-41.5 -159.5t-81 -132t-135 -85.5t-196.5 -32.5t-196.5 32.5t-135 85.5t-81 132t-41.5 159.5t-11 180.5q0 96 12.5 176t44.5 155t83.5 126.5t134 82.5t190.5 31t190.5 -31t134 -82.5t83.5 -126.5t44.5 -155t12.5 -176zM817 559
q0 102 -10 169t-36.5 119.5t-76.5 76.5t-127 24t-127 -24t-76.5 -76.5t-36.5 -119.5t-10 -169q0 -86 6 -147t22 -114t43.5 -85t72 -50t106.5 -18t106.5 18t72 50t43.5 85t22 114t6 147z" />
    <glyph glyph-name="one.oldstyle" unicode="&#xf731;" horiz-adv-x="1005" 
d="M903 0h-799v195h291v624q0 46 15 76l-308 -59v190l508 102v-933h293v-195z" />
    <glyph glyph-name="two.oldstyle" unicode="&#xf732;" horiz-adv-x="1228" 
d="M1092 0h-967q0 108 25.5 198t66.5 152t100 110.5t118.5 77t129.5 48.5q82 23 128 39t83 33.5t52.5 38t22.5 44.5t7 62q0 79 -53 117t-180 38q-147 0 -202.5 -53t-55.5 -168h-199q0 86 25.5 155.5t78 123.5t142.5 84t211 30q446 0 446 -327q0 -42 -7.5 -79t-18.5 -66
t-33 -55t-41 -44.5t-52.5 -37.5t-58.5 -31t-68.5 -27t-72 -23.5t-78.5 -23.5q-116 -33 -181 -86.5t-102 -143.5h523v127h211v-313z" />
    <glyph glyph-name="three.oldstyle" unicode="&#xf733;" 
d="M1141 63q0 -231 -143 -352t-380 -121q-201 0 -329 69t-213 230l168 80q63 -117 145.5 -159.5t228.5 -42.5q152 0 229 77.5t77 218.5q0 116 -70.5 182t-194.5 66h-237l-53 185h290q106 0 171 60.5t65 174.5q0 106 -60 161.5t-196 55.5q-148 0 -230.5 -40t-144.5 -156
l-168 79q85 160 214.5 229.5t330.5 69.5q128 0 222 -32t147.5 -88.5t78.5 -125.5t25 -153q0 -209 -176 -317q97 -44 150 -138t53 -213z" />
    <glyph glyph-name="four.oldstyle" unicode="&#xf734;" 
d="M1200 0h-158v-377h-215v377h-747v186l751 914h211v-901h158v-199zM844 788l-486 -589h469v508q0 32 17 81z" />
    <glyph glyph-name="five.oldstyle" unicode="&#xf735;" 
d="M1147 88q0 -227 -130.5 -361.5t-387.5 -134.5q-201 0 -329.5 69t-213.5 230l168 82q63 -117 146 -159.5t229 -42.5q159 0 230 81t71 236q0 92 -26 154.5t-75 94.5t-104.5 45t-128.5 13q-84 0 -187 -13t-180 -38l-75 62l79 694h879l-53 -187h-651l-46 -368q86 24 263 24
q93 0 170 -16t143.5 -52t112 -91t71 -136.5t25.5 -185.5z" />
    <glyph glyph-name="six.oldstyle" unicode="&#xf736;" 
d="M1137 498q0 -122 -26.5 -215.5t-85 -165.5t-159.5 -110t-241 -38t-241 38t-159.5 110t-85 165.5t-26.5 215.5q0 41 -1 127q-4 76 -1.5 155t5 155.5t18 148.5t38 136t64.5 117t97.5 91.5t136.5 59.5t183 21q313 0 453 -206l-143 -132q-66 75 -133 112.5t-177 37.5
q-83 0 -138.5 -19t-96.5 -67t-61 -131.5t-23 -210.5q119 96 291 96q512 0 512 -491zM920 498q0 166 -67.5 236.5t-227.5 70.5q-295 0 -295 -307q0 -188 67.5 -265t227.5 -77q158 0 226.5 77.5t68.5 264.5z" />
    <glyph glyph-name="seven.oldstyle" unicode="&#xf737;" 
d="M1145 926l-688 -1303h-248l645 1215q16 31 55 67h-571v-211h-203v406h1010v-174z" />
    <glyph glyph-name="eight.oldstyle" unicode="&#xf738;" 
d="M1147 442q0 -473 -510 -473q-512 0 -512 473q0 238 180 340q-160 92 -160 310q0 202 124.5 309.5t365.5 107.5t366 -107.5t125 -309.5q0 -219 -159 -310q180 -102 180 -340zM911 1092q0 69 -19 115t-57 70.5t-85.5 34t-114.5 9.5t-114.5 -9.5t-85.5 -34t-56.5 -70.5
t-18.5 -115q0 -111 54.5 -165.5t128.5 -54.5h186q74 0 128 54.5t54 165.5zM930 442q0 104 -56 175t-155 71h-166q-99 0 -155 -71t-56 -175q0 -160 68 -223t225 -63q158 0 226.5 63.5t68.5 222.5z" />
    <glyph glyph-name="nine.oldstyle" unicode="&#xf739;" 
d="M1130 602q0 -41 1 -127q4 -76 1.5 -155t-5 -155.5t-18 -149t-38 -136.5t-64.5 -117t-97.5 -91t-136.5 -59.5t-183 -21.5q-312 0 -453 207l142 129q65 -74 133 -111.5t178 -37.5t176 36t102.5 131t40.5 263q-119 -96 -291 -96q-512 0 -512 491q0 122 26.5 215.5t85 165
t159.5 109.5t241 38t241 -38t159.5 -109.5t85 -165t26.5 -215.5zM913 602q0 187 -67.5 263.5t-227.5 76.5q-159 0 -226.5 -76.5t-67.5 -263.5q0 -166 67.5 -236.5t226.5 -70.5q295 0 295 307z" />
    </font>
</defs>
</svg>
