<?xml version="1.0" standalone="no"?>
<!DOCTYPE svg PUBLIC "-//W3C//DTD SVG 1.1//EN" "http://www.w3.org/Graphics/SVG/1.1/DTD/svg11.dtd" >
<svg xmlns="http://www.w3.org/2000/svg" xmlns:xlink="http://www.w3.org/1999/xlink" version="1.1">
<metadata>
Created by FontForge 20201107 at Mon May 12 18:20:39 2025
 By 
Digitised data (c) 2002 Monotype Imaging, Inc. All Rights Reserved.
</metadata>
<defs>
<font id="ScenePro-Regular" horiz-adv-x="1245" >
  <font-face 
    font-family="Scene Pro"
    font-weight="400"
    font-stretch="normal"
    units-per-em="2048"
    panose-1="2 11 5 4 3 5 4 2 2 4"
    ascent="1638"
    descent="-410"
    x-height="1100"
    cap-height="1477"
    bbox="-160 -545 2687 2032"
    underline-thickness="40"
    underline-position="-271"
    unicode-range="U+0020-FB04"
  />
<missing-glyph horiz-adv-x="1024" 
d="M25 0v1362h972v-1362h-972zM180 1266l332 -498l330 498h-662zM123 1178v-992q0 -1 82.5 123t164.5 249l83 124zM901 1178l-332 -496l332 -498v994zM842 98l-330 496l-332 -496h662z" />
    <glyph glyph-name="f_b" unicode="fb" horiz-adv-x="2033" 
d="M1935 551q0 -151 -38 -264.5t-107 -182.5t-159.5 -103t-200.5 -34q-125 0 -233.5 21t-221.5 78v1390h-369q-99 0 -161 -56t-62 -179v-121h379l-35 -139h-344v-961h-160v870q0 36 19 91h-189v139h170v121q0 183 105 278.5t278 95.5h529v-491q0 -12 -11 -80
q189 109 324 109q487 0 487 -582zM1772 551q0 233 -77.5 340.5t-246.5 107.5q-52 0 -113.5 -18t-95.5 -33.5t-104 -50.5v-760q52 -20 104 -30t87.5 -11.5t107.5 -1.5q162 0 250 111t88 346z" />
    <glyph glyph-name="f_f_b" unicode="ffb" horiz-adv-x="2785" 
d="M854 1567l-31 -140q-14 2 -102 19q-55 10 -115 10q-99 0 -161 -56t-62 -179v-121h592v121q0 183 105 278.5t278 95.5h528v-491q0 -18 -10 -80q189 109 324 109q487 0 487 -582q0 -150 -38.5 -264t-107.5 -183t-159.5 -103t-200.5 -34q-125 0 -233.5 21t-221.5 78v1390
h-368q-99 0 -161 -56t-62 -179v-121h378l-34 -139h-344v-961h-160v870q0 39 18 91h-610v-961h-160v870q0 36 19 91h-189v139h170v121q0 183 105 278.5t278 95.5q37 0 71.5 -2.5t55 -5.5t59.5 -10t62 -10zM2523 551q0 233 -77 340.5t-246 107.5q-53 0 -114 -18t-96 -34
t-104 -50v-760q52 -20 104 -30t87.5 -11.5t107.5 -1.5q162 0 250 111t88 346z" />
    <glyph glyph-name="f_f_h" unicode="ffh" horiz-adv-x="2772" 
d="M854 1567l-31 -140q-14 2 -102 19q-55 10 -115 10q-99 0 -161 -56t-62 -179v-121h592v121q0 183 105 278.5t278 95.5h526v-569q0 -31 -16 -74l100 70q160 111 283 111q179 0 285 -103t106 -319v-711h-160v705q0 86 -17 145.5t-50 91t-72 44.5t-92 13q-67 0 -121.5 -21.5
t-134.5 -74.5l-109 -72v-831h-160v1456h-368q-99 0 -161 -56t-62 -179v-121h378l-34 -139h-344v-961h-160v870q0 39 18 91h-610v-961h-160v870q0 36 19 91h-189v139h170v121q0 183 105 278.5t278 95.5q37 0 71.5 -2.5t55 -5.5t59.5 -10t62 -10z" />
    <glyph glyph-name="f_f_j" unicode="ffj" horiz-adv-x="2013" 
d="M854 1567l-31 -140q-14 2 -102 19q-55 10 -115 10q-99 0 -161 -56t-62 -179v-121h592v121q0 183 105 278.5t278 95.5q37 0 71.5 -2.5t55 -5.5t59.5 -10t62 -10l-31 -140q-19 3 -53.5 9.5t-55.5 10t-51 6.5t-57 3q-99 0 -161 -56t-62 -179v-121h753v-1280q0 -78 -14 -134
t-48 -98t-93.5 -63t-147.5 -21h-117v131h117q83 0 112 40.5t29 144.5v1069q0 29 15 72h-606v-961h-160v870q0 39 18 91h-610v-961h-160v870q0 36 19 91h-189v139h170v121q0 183 105 278.5t278 95.5q37 0 71.5 -2.5t55 -5.5t59.5 -10t62 -10zM1886 1415q0 -10 -2.5 -13
t-11.5 -3h-166q-10 0 -12 2.5t-2 13.5v160q0 12 2.5 16t11.5 4h166q9 0 11.5 -3.5t2.5 -16.5v-160z" />
    <glyph glyph-name="f_f_k" unicode="ffk" horiz-adv-x="2701" 
d="M854 1567l-31 -140q-14 2 -102 19q-55 10 -115 10q-99 0 -161 -56t-62 -179v-121h592v121q0 183 105 278.5t278 95.5h528v-923l545 428h244l-535 -412l541 -688h-207l-408 520q-17 22 -30 86l-150 -114v-492h-160v1456h-368q-99 0 -161 -56t-62 -179v-121h378l-34 -139
h-344v-961h-160v870q0 39 18 91h-610v-961h-160v870q0 36 19 91h-189v139h170v121q0 183 105 278.5t278 95.5q37 0 71.5 -2.5t55 -5.5t59.5 -10t62 -10z" />
    <glyph glyph-name="f_h" unicode="fh" horiz-adv-x="2021" 
d="M1890 0h-159v705q0 86 -17 145.5t-50.5 91t-72.5 44.5t-92 13q-67 0 -121.5 -21.5t-134.5 -74.5l-108 -72v-831h-160v1456h-369q-99 0 -161 -56t-62 -179v-121h379l-35 -139h-344v-961h-160v870q0 36 19 91h-189v139h170v121q0 183 105 278.5t278 95.5h527v-569
q0 -29 -17 -74l101 70q160 111 282 111q179 0 285 -103t106 -319v-711z" />
    <glyph glyph-name="f_j" unicode="fj" horiz-adv-x="1261" 
d="M1137 -180q0 -78 -14 -134t-48 -98t-93.5 -63t-147.5 -21h-117v131h117q83 0 112 40.5t29 144.5v1069q0 32 14 72h-606v-961h-160v870q0 36 19 91h-189v139h170v121q0 183 105 278.5t278 95.5q37 0 71.5 -2.5t55 -5.5t59.5 -10t62 -10l-31 -140q-19 3 -53.5 9.5t-55.5 10
t-51 6.5t-57 3q-99 0 -161 -56t-62 -179v-121h754v-1280zM1135 1415q0 -10 -3 -13t-12 -3h-166q-10 0 -12 2.5t-2 13.5v160q0 12 2.5 16t11.5 4h166q9 0 12 -3.5t3 -16.5v-160z" />
    <glyph glyph-name="f_k" unicode="fk" horiz-adv-x="1949" 
d="M1929 0h-207l-407 520q-18 23 -31 86l-149 -114v-492h-160v1456h-369q-99 0 -161 -56t-62 -179v-121h379l-35 -139h-344v-961h-160v870q0 36 19 91h-189v139h170v121q0 183 105 278.5t278 95.5h529v-923l544 428h244l-534 -412z" />
    <glyph glyph-name="f_f" unicode="ff" horiz-adv-x="1558" 
d="M854 1567l-31 -140q-14 2 -102 19q-55 10 -115 10q-99 0 -161 -56t-62 -179v-121h592v121q0 183 105 278.5t278 95.5q37 0 71.5 -2.5t55 -5.5t59.5 -10t62 -10l-31 -140q-14 2 -102 19q-55 10 -115 10q-99 0 -161 -56t-62 -179v-121h378l-34 -139h-344v-961h-160v870
q0 39 18 91h-610v-961h-160v870q0 36 19 91h-189v139h170v121q0 183 105 278.5t278 95.5q37 0 71.5 -2.5t55 -5.5t59.5 -10t62 -10z" />
    <glyph glyph-name="fi" unicode="fi" horiz-adv-x="1257" 
d="M1135 1415q0 -10 -3 -13t-12 -3h-166q-10 0 -12 2.5t-2 13.5v160q0 12 2.5 16t11.5 4h166q9 0 12 -3.5t3 -16.5v-160zM1135 0h-160v889q0 32 14 72h-606v-961h-160v870q0 36 19 91h-189v139h170v121q0 183 105 278.5t278 95.5q37 0 71.5 -2.5t55 -5.5t59.5 -10t62 -10
l-31 -140q-19 3 -53.5 9.5t-55.5 10t-51 6.5t-57 3q-99 0 -161 -56t-62 -179v-121h752v-1100z" />
    <glyph glyph-name="fl" unicode="fl" horiz-adv-x="1345" 
d="M1303 -18h-82q-246 0 -246 266v1208h-369q-99 0 -161 -56t-62 -179v-121h379l-35 -139h-344v-961h-160v870q0 36 19 91h-189v139h170v121q0 183 105 278.5t278 95.5h529v-1347q0 -67 21.5 -95t68.5 -28h78v-143z" />
    <glyph glyph-name="f_f_i" unicode="ffi" horiz-adv-x="2009" 
d="M854 1567l-31 -140q-14 2 -102 19q-55 10 -115 10q-99 0 -161 -56t-62 -179v-121h592v121q0 183 105 278.5t278 95.5q37 0 71.5 -2.5t55 -5.5t59.5 -10t62 -10l-31 -140q-19 3 -53.5 9.5t-55.5 10t-51 6.5t-57 3q-99 0 -161 -56t-62 -179v-121h751v-1100h-160v889
q0 29 15 72h-606v-961h-160v870q0 39 18 91h-610v-961h-160v870q0 36 19 91h-189v139h170v121q0 183 105 278.5t278 95.5q37 0 71.5 -2.5t55 -5.5t59.5 -10t62 -10zM1886 1415q0 -10 -2.5 -13t-11.5 -3h-166q-10 0 -12 2.5t-2 13.5v160q0 12 2.5 16t11.5 4h166
q9 0 11.5 -3.5t2.5 -16.5v-160z" />
    <glyph glyph-name="f_f_l" unicode="ffl" horiz-adv-x="2097" 
d="M854 1567l-31 -140q-14 2 -102 19q-55 10 -115 10q-99 0 -161 -56t-62 -179v-121h592v121q0 183 105 278.5t278 95.5h528v-1347q0 -67 21.5 -95t68.5 -28h78v-143h-82q-246 0 -246 266v1208h-368q-99 0 -161 -56t-62 -179v-121h378l-34 -139h-344v-961h-160v870
q0 39 18 91h-610v-961h-160v870q0 36 19 91h-189v139h170v121q0 183 105 278.5t278 95.5q37 0 71.5 -2.5t55 -5.5t59.5 -10t62 -10z" />
    <glyph glyph-name=".notdef" horiz-adv-x="1024" 
d="M25 0v1362h972v-1362h-972zM180 1266l332 -498l330 498h-662zM123 1178v-992q0 -1 82.5 123t164.5 249l83 124zM901 1178l-332 -496l332 -498v994zM842 98l-330 496l-332 -496h662z" />
    <glyph glyph-name=".null" horiz-adv-x="0" 
 />
    <glyph glyph-name="nonmarkingreturn" horiz-adv-x="682" 
 />
    <glyph glyph-name="space" unicode=" " horiz-adv-x="507" 
 />
    <glyph glyph-name="exclam" unicode="!" horiz-adv-x="512" 
d="M342 799l-20 -414h-129l-23 414v796h172v-796zM358 20q0 -15 -3 -17.5t-17 -2.5h-162q-14 0 -17 2.5t-3 17.5v160q0 18 3 21.5t17 3.5h162q14 0 17 -3.5t3 -21.5v-160z" />
    <glyph glyph-name="quotedbl" unicode="&#x22;" horiz-adv-x="714" 
d="M610 1477l-71 -469q-6 -39 -25 -39h-61q-25 0 -25 39v469h182zM283 1477l-72 -469q-6 -39 -25 -39h-61q-25 0 -25 39v469h183z" />
    <glyph glyph-name="numbersign" unicode="#" horiz-adv-x="1212" 
d="M1122 475h-293l-55 -395h-129l55 395h-292l-56 -395h-129l53 395h-186v123h205l43 291h-248v123h262l58 393h129l-56 -393h293l55 393h130l-56 -393h217v-123h-231l-43 -291h274v-123zM760 889h-291l-45 -291h293z" />
    <glyph glyph-name="dollar" unicode="$" 
d="M1073 500q0 -141 -94.5 -243.5t-284.5 -123.5v-276h-151v272q-371 18 -371 324h152q0 -92 62.5 -140.5t215.5 -48.5q313 0 313 236q0 94 -29 138.5t-122 57.5l-309 45q-265 39 -265 320q0 46 10.5 88t36 82.5t64.5 71.5t101 52t141 27v222h151v-222q340 -25 340 -333
h-151q0 46 -11 79t-39 61t-81 42t-131 14q-151 0 -213 -48.5t-62 -135.5q0 -86 30 -125t113 -51l310 -45q274 -40 274 -340z" />
    <glyph glyph-name="percent" unicode="%" horiz-adv-x="1816" 
d="M696 1067q0 -86 -6 -149t-24.5 -125.5t-50.5 -101t-86.5 -62t-129.5 -23.5t-129.5 23.5t-86.5 62t-50.5 101t-24.5 125.5t-6 149q0 82 7 144.5t26.5 121t52 95.5t85.5 59t126 22t126 -22t85.5 -59t52 -95.5t26.5 -121t7 -144.5zM563 1067q0 69 -2.5 112t-12 87t-27 67.5
t-48 38t-74.5 14.5t-74.5 -14.5t-48.5 -38.5t-27.5 -67t-12.5 -87t-3 -112q0 -59 2 -99t7.5 -82.5t16.5 -69t29 -49t46 -32.5t65 -10t64 10t45 32.5t29 49t16.5 69t7.5 82.5t2 99zM1718 442q0 -86 -6 -149t-24.5 -125t-50.5 -100.5t-86.5 -62t-129.5 -23.5t-129.5 23.5
t-86.5 62t-50.5 100.5t-24.5 125t-6 149q0 83 7 145.5t26.5 120.5t52 95.5t85.5 59.5t126 22t126 -22t85.5 -59.5t52 -95.5t26.5 -120.5t7 -145.5zM1585 442q0 57 -2 95t-7.5 77.5t-16.5 64t-29 45t-45 29.5t-64 9q-44 0 -74.5 -14.5t-48.5 -38.5t-27.5 -67.5t-12.5 -87.5
t-3 -112q0 -59 2 -99t7.5 -82.5t16.5 -69t29 -49t46 -32.5t65 -10t64 10t45 32.5t29 49t16.5 69t7.5 82.5t2 99zM1468 1509l-991 -1540h-139l991 1540h139z" />
    <glyph glyph-name="ampersand" unicode="&#x26;" horiz-adv-x="1339" 
d="M1331 4l-174 -37l-182 189q-165 -189 -406 -189q-81 0 -152.5 13t-138 44t-114.5 78t-76.5 119t-28.5 162v63q0 108 62 202t170 143l51 22q-149 168 -149 330v35q0 160 110.5 245.5t274.5 85.5t274.5 -85.5t110.5 -245.5v-35q0 -81 -29 -141.5t-74 -97t-112 -66.5
l-156 -70l366 -375q52 107 52 281v80h145v-80q0 -93 -23 -201t-71 -190zM815 1143v35q0 44 -10 77t-34.5 63t-73 46t-119.5 16q-134 0 -186 -55t-52 -147v-35q0 -49 22 -97.5t45 -76.5t66 -75q9 -10 14 -15l177 77q81 36 116 76.5t35 110.5zM874 260l-430 445l-71 -33
q-73 -33 -112.5 -82.5t-39.5 -143.5v-63q0 -137 91 -207t257 -70q181 0 305 154z" />
    <glyph glyph-name="quotesingle" unicode="'" horiz-adv-x="364" 
d="M283 1477l-72 -469q-6 -39 -25 -39h-61q-25 0 -25 39v469h183z" />
    <glyph glyph-name="parenleft" unicode="(" horiz-adv-x="630" 
d="M618 -336q-86 0 -155 31t-116 81.5t-81.5 128.5t-53.5 156.5t-30 181.5t-14.5 188.5t-3.5 191.5t3.5 191t14.5 188.5t30 181.5t53.5 156t81.5 128.5t116 81.5t155 31v-129q-42 0 -78 -11t-63 -36.5t-48.5 -51t-36.5 -73t-26 -82t-18 -98t-10.5 -101.5t-5.5 -112.5
t-2 -110v-114.5v-39v-39v-114.5t2 -110.5t5.5 -112t10.5 -102t18 -98t26 -82.5t36.5 -72.5t48.5 -51.5t63 -36.5t78 -11v-129z" />
    <glyph glyph-name="parenright" unicode=")" horiz-adv-x="630" 
d="M467 623q0 -81 -2 -148.5t-8 -148t-16 -146.5t-27.5 -136t-41.5 -124t-58.5 -103.5t-77 -82t-100 -51.5t-124.5 -19v129q53 0 95.5 17t72 56.5t51 77.5t34.5 107.5t21 118t11 137.5t3.5 136.5t0.5 143.5v36v36q0 94 -0.5 143t-3.5 137t-11 137t-21 118t-34.5 107.5
t-51 77.5t-72 56t-95.5 17v129q86 0 155.5 -31t116 -81.5t81 -128t54 -156t30.5 -181.5t14.5 -188.5t3.5 -191.5z" />
    <glyph glyph-name="asterisk" unicode="*" horiz-adv-x="743" 
d="M702 1208q5 -19 2 -24.5t-14 -7.5l-254 -50l176 -196q8 -8 7 -15.5t-15 -17.5l-67 -49q-15 -10 -21 -10t-12 10l-127 229l-129 -229q-6 -9 -11.5 -9.5t-23.5 9.5l-70 47q-23 16 -6 33l176 192l-258 54q-13 3 -15 8t3 22l29 80q6 18 10 20t14 -4l238 -108l-27 264
q-2 13 2.5 17t22.5 4h84q18 0 22 -4t2 -17l-30 -262l239 109q10 6 17.5 2.5t11.5 -19.5z" />
    <glyph glyph-name="plus" unicode="+" 
d="M1202 659h-500v-501h-157v501h-502v156h502v502h157v-502h500v-156z" />
    <glyph glyph-name="comma" unicode="," horiz-adv-x="505" 
d="M369 20q0 -103 -52.5 -194t-142.5 -156l-65 56q66 61 96.5 124.5t30.5 149.5h-70q-12 0 -15.5 3.5t-3.5 16.5v175q0 15 3.5 18.5t15.5 3.5h184q12 0 15.5 -3.5t3.5 -18.5v-175z" />
    <glyph glyph-name="hyphen" unicode="-" horiz-adv-x="661" 
d="M608 532h-555v144h555v-144z" />
    <glyph glyph-name="period" unicode="." horiz-adv-x="505" 
d="M365 20q0 -13 -3.5 -16.5t-15.5 -3.5h-186q-12 0 -15.5 3.5t-3.5 16.5v181q0 17 2.5 19.5t16.5 2.5h186q14 0 16.5 -2.5t2.5 -19.5v-181z" />
    <glyph glyph-name="slash" unicode="/" horiz-adv-x="1052" 
d="M938 1509l-684 -1542h-139l684 1542h139z" />
    <glyph glyph-name="zero" unicode="0" 
d="M1118 756q0 -104 -5 -186t-18.5 -167t-36 -147.5t-60 -119t-89 -92.5t-123.5 -56.5t-163 -20.5t-163 20.5t-123.5 56.5t-89 92.5t-60.5 119t-36.5 147.5t-18.5 167t-5 186q0 140 11.5 246.5t44 205.5t87 162.5t143.5 101t210 37.5t210 -37.5t143 -101t86.5 -162.5
t44 -205t11.5 -247zM952 756q0 91 -2.5 155t-10.5 132t-22.5 113.5t-38.5 88t-59 66.5t-84 38.5t-112 14.5t-112 -14.5t-84 -38.5t-59.5 -66.5t-39 -88t-22.5 -113.5t-10.5 -132t-2.5 -155q0 -83 2 -143t7.5 -126t16 -112t27 -91.5t41 -75.5t58 -53.5t78 -34.5t100.5 -11
t100.5 11t78 34.5t58 53t41 75.5t27 92t15.5 112t7 126t2 143z" />
    <glyph glyph-name="one" unicode="1" 
d="M1032 0h-819v143h326v1119q0 33 12 69l-340 -69v147l491 100v-1366h330v-143z" />
    <glyph glyph-name="two" unicode="2" 
d="M1098 1096q0 -73 -23.5 -139t-64.5 -118.5t-94 -101t-113 -92t-121.5 -86.5t-121 -89t-108 -94t-85.5 -108t-52 -125h629v217h150v-360h-963q0 131 44.5 242.5t115 189.5t156 146.5t171.5 127t156.5 115t115 127t44.5 148.5q0 134 -74 201t-203 67q-95 0 -163 -19.5
t-107 -55.5t-59 -77.5t-27 -95.5h-149q4 54 20 105.5t53.5 104.5t92 92t142 64t197.5 25q194 0 317.5 -108.5t123.5 -302.5z" />
    <glyph glyph-name="three" unicode="3" 
d="M1130 430q0 -227 -139.5 -345t-374.5 -118q-190 0 -310.5 65.5t-199.5 207.5l132 63q62 -106 146 -152.5t232 -46.5q171 0 261 83.5t90 242.5q0 134 -82 208.5t-223 74.5h-226l-41 143h267q122 0 199 68t77 200q0 125 -71 189.5t-224 64.5q-100 0 -171 -23t-118.5 -66
t-89.5 -115l-131 63q79 142 199 207t311 65q101 0 181 -20.5t131.5 -55.5t85 -85t47.5 -105t14 -119q0 -102 -47.5 -189t-147.5 -144q103 -40 163 -136t60 -225z" />
    <glyph glyph-name="four" unicode="4" 
d="M1190 397h-164v-397h-160v397h-776v152l764 928h172v-934h164v-146zM883 1274l-600 -731h583v643q0 18 2.5 32.5t7.5 30.5t7 25z" />
    <glyph glyph-name="five" unicode="5" 
d="M1130 446q0 -105 -30.5 -191t-91.5 -151t-161 -101t-231 -36q-190 0 -310.5 65.5t-199.5 207.5l132 63q62 -107 146.5 -154t231.5 -47q179 0 265 91t86 253q0 84 -18.5 145.5t-48.5 97.5t-77 57.5t-93 28.5t-107 7q-189 0 -359 -45l-78 54l78 686h821l-41 -144h-647
l-53 -440q56 17 138 26t141 9q507 0 507 -482z" />
    <glyph glyph-name="six" unicode="6" 
d="M1126 487q0 -97 -15.5 -174.5t-52 -143.5t-94 -109.5t-143 -68t-196.5 -24.5t-196.5 24t-143 68t-94 109.5t-52.5 143.5t-16 175q0 39 -1 129.5t-0.5 153t3.5 117.5q3 82 11 147.5t25.5 131.5t43.5 116.5t66.5 94.5t94 72t126.5 44t163 16q141 0 264 -50t187 -142
l-102 -94q-135 151 -349 151q-133 0 -210.5 -46t-116.5 -161t-39 -317q134 119 336 119q261 0 381 -123.5t120 -358.5zM963 487q0 187 -78 261.5t-260 74.5q-338 0 -338 -336q0 -206 79 -293.5t259 -87.5t259 87.5t79 293.5z" />
    <glyph glyph-name="seven" unicode="7" 
d="M1135 1333l-705 -1333h-188l673 1272q15 30 54 61h-674v-217h-150v361h990v-144z" />
    <glyph glyph-name="eight" unicode="8" 
d="M1135 430q0 -226 -120.5 -344.5t-379.5 -118.5t-379.5 118.5t-120.5 344.5q0 247 197 356q-75 39 -125.5 121t-50.5 199q0 196 119.5 299.5t359.5 103.5t359.5 -103.5t119.5 -299.5q0 -117 -50.5 -199t-125.5 -121q197 -109 197 -356zM952 1106q0 66 -16.5 113t-43 75
t-69.5 44t-86 21t-102 5q-75 0 -126.5 -9t-98 -35t-70 -79.5t-23.5 -134.5q0 -66 19.5 -116t52.5 -77.5t71 -41t79 -13.5h192q41 0 78.5 13.5t70.5 41t52.5 77.5t19.5 116zM971 430q0 118 -66 197.5t-184 79.5h-172q-118 0 -184 -79.5t-66 -197.5q0 -178 79.5 -247.5
t256.5 -69.5t256.5 69.5t79.5 247.5z" />
    <glyph glyph-name="nine" unicode="9" 
d="M1120 989q0 -39 1 -129.5t0.5 -152.5t-3.5 -117q-3 -82 -11 -148t-25.5 -132t-43.5 -116t-66.5 -94t-94 -72.5t-126.5 -44.5t-163 -16q-140 0 -263.5 50.5t-187.5 142.5l103 94q136 -152 348 -152q100 0 166.5 25t112.5 85.5t66.5 161t20.5 253.5q-134 -119 -336 -119
q-262 0 -381.5 123.5t-119.5 357.5q0 97 15.5 174.5t52 143.5t94 109.5t143 68t196.5 24.5t196.5 -24t143 -68t94 -109.5t52.5 -143.5t16 -175zM956 989q0 206 -79 293.5t-259 87.5t-258.5 -87.5t-78.5 -293.5q0 -187 77.5 -261.5t259.5 -74.5q338 0 338 336z" />
    <glyph glyph-name="colon" unicode=":" horiz-adv-x="505" 
d="M365 905q0 -13 -3.5 -16.5t-15.5 -3.5h-186q-12 0 -15.5 3.5t-3.5 16.5v172q0 15 3 19t16 4h186q13 0 16 -4t3 -19v-172zM365 20q0 -13 -3.5 -16.5t-15.5 -3.5h-186q-12 0 -15.5 3.5t-3.5 16.5v173q0 15 3 18.5t16 3.5h186q13 0 16 -3.5t3 -18.5v-173z" />
    <glyph glyph-name="semicolon" unicode=";" horiz-adv-x="505" 
d="M367 905q0 -13 -3.5 -16.5t-15.5 -3.5h-184q-12 0 -15.5 3.5t-3.5 16.5v172q0 15 3.5 19t15.5 4h184q12 0 15.5 -4t3.5 -19v-172zM367 23q0 -102 -52.5 -192t-142.5 -155l-63 56q65 60 94.5 122.5t29.5 147.5h-69q-12 0 -15.5 4t-3.5 17v172q0 15 3.5 18.5t15.5 3.5h184
q12 0 15.5 -3.5t3.5 -18.5v-172z" />
    <glyph glyph-name="less" unicode="&#x3c;" 
d="M1016 164h-209l-578 573l578 574h209l-578 -574z" />
    <glyph glyph-name="equal" unicode="=" 
d="M1130 907h-1015v156h1015v-156zM1130 416h-1015v155h1015v-155z" />
    <glyph glyph-name="greater" unicode="&#x3e;" 
d="M1016 737l-578 -573h-209l578 573l-578 574h209z" />
    <glyph glyph-name="question" unicode="?" horiz-adv-x="1075" 
d="M985 1188q0 -54 -12.5 -101.5t-30 -82t-47.5 -69.5t-54.5 -57t-62.5 -53q-97 -79 -129 -114q-80 -88 -80 -203v-154h-166v154q0 42 7 80.5t15 67t28 60t33.5 50.5t43.5 48t46 43t54 45.5t54 45.5q65 57 99 112t34 128q0 70 -11 119.5t-38 91.5t-79 63t-130 21
q-88 0 -148 -18t-93 -54t-47 -81t-15 -107h-166q1 64 10.5 115.5t39 108t79 95t136.5 63.5t204 25q214 0 320 -108.5t106 -333.5zM582 16q0 -14 -2 -16h-15h-162h-14v16v158q0 14 2 17.5t12 3.5h162q11 0 14 -4t3 -17v-158z" />
    <glyph glyph-name="at" unicode="@" horiz-adv-x="1968" 
d="M1815 651q0 -156 -53.5 -290.5t-158 -219t-237.5 -84.5h-199l-12 146q-203 -172 -371 -172q-120 0 -189 83t-69 257q0 138 33 253t99 203t174 137.5t249 49.5q156 0 271 -33q28 -73 28 -172q0 -28 -4 -68l-84 -561h72q93 0 166 64t110 166t37 221q0 88 -21.5 170.5
t-71.5 160.5t-123 135.5t-184 92.5t-247 35q-145 0 -268 -40.5t-208.5 -110t-145.5 -162t-88.5 -196t-28.5 -212.5q0 -132 43 -253.5t122.5 -219t206 -155.5t281.5 -58q80 0 191 30.5t196 77.5l70 -110q-239 -121 -486 -121q-146 0 -271 44t-214 120.5t-152 178t-93.5 217.5
t-30.5 239q0 130 34 254t105.5 235t173 194t247.5 132t318 49q162 0 295.5 -40.5t222.5 -109t150 -160.5t88 -191.5t27 -205.5zM1241 803q0 35 -8 71q-112 19 -160 19q-113 0 -194 -40.5t-125.5 -114t-64 -161t-19.5 -196.5q0 -219 133 -219q78 0 168 52.5t209 152.5l55 372
q6 34 6 64z" />
    <glyph glyph-name="A" unicode="A" horiz-adv-x="1380" 
d="M1331 0h-170l-170 459h-608l-170 -459h-164l547 1477h190zM936 608l-205 559q-28 82 -43 148q-20 -89 -43 -148l-207 -559h498z" />
    <glyph glyph-name="B" unicode="B" horiz-adv-x="1290" 
d="M1210 438q0 -222 -138 -330t-400 -108h-520v1477h520q239 0 354 -95.5t115 -285.5q0 -209 -168 -295q-21 -10 -55 -13q31 0 55 -8q237 -83 237 -342zM977 1096q0 59 -15.5 102.5t-41 69t-66.5 40.5t-83 20t-99 5h-359v-483h381q58 0 106 12.5t89 39.5t64.5 76.5
t23.5 117.5zM1049 438q0 66 -24.5 115.5t-61 77.5t-87 45.5t-93.5 23t-89 5.5h-381v-562h359q210 0 293.5 66.5t83.5 228.5z" />
    <glyph glyph-name="C" unicode="C" horiz-adv-x="1292" 
d="M1202 264q-19 -44 -45 -83t-68.5 -79.5t-95.5 -69t-129 -47t-166 -18.5q-104 0 -189 20.5t-147.5 56.5t-110 91t-78 118.5t-49.5 144t-26.5 162.5t-7.5 179q0 150 18 266.5t60.5 213t110.5 159t169.5 97t235.5 34.5q105 0 190 -23.5t141 -62t95.5 -90.5t57.5 -106
t22 -111h-148q-15 111 -100.5 179.5t-259.5 68.5q-81 0 -144.5 -16.5t-108 -43.5t-76.5 -72.5t-50.5 -94t-29 -117t-14 -132t-3.5 -149.5q0 -78 3.5 -138.5t15 -128.5t31 -118t53 -97.5t79 -77.5t111.5 -48t149 -18q140 0 233.5 55t145.5 172z" />
    <glyph glyph-name="D" unicode="D" horiz-adv-x="1339" 
d="M1270 756q0 -130 -24 -241t-78.5 -207t-137 -163.5t-205 -106t-276.5 -38.5h-418v1477h418q189 0 330 -53.5t225.5 -152t125 -227t40.5 -288.5zM1106 756q0 293 -137.5 435t-419.5 142h-258v-1190h258q282 0 419.5 153t137.5 460z" />
    <glyph glyph-name="E" unicode="E" horiz-adv-x="1165" 
d="M1075 0h-944v1477h942v-144h-782v-481h698l-41 -145h-669q12 -45 12 -82v-482h784v-143z" />
    <glyph glyph-name="F" unicode="F" horiz-adv-x="1058" 
d="M969 1477l-41 -144h-637v-502h549v-143h-561q12 -45 12 -82v-606h-160v1477h838z" />
    <glyph glyph-name="G" unicode="G" horiz-adv-x="1363" 
d="M1233 170q-48 -41 -88 -69.5t-104.5 -63t-145.5 -52.5t-174 -18q-149 0 -259.5 35.5t-181.5 99t-113.5 162.5t-59.5 212.5t-17 262.5q0 194 31.5 332.5t103.5 239t194.5 149.5t299.5 49q105 0 190.5 -23.5t142 -62t96.5 -90.5t58.5 -106t22.5 -111h-148
q-15 111 -101.5 179.5t-260.5 68.5q-81 0 -145.5 -13t-113.5 -37.5t-84 -64.5t-58.5 -88.5t-37.5 -115t-20 -140t-6 -166.5q0 -126 10.5 -216.5t40 -172t80.5 -131t134 -78t198 -28.5q106 0 184.5 26.5t171.5 89.5v318q0 16 6 41l6 26h-391l-39 142h578v-586z" />
    <glyph glyph-name="H" unicode="H" horiz-adv-x="1423" 
d="M1292 0h-159v707h-842v-707h-160v1477h160v-619h842v619h159v-1477z" />
    <glyph glyph-name="I" unicode="I" horiz-adv-x="421" 
d="M291 0h-160v1477h160v-1477z" />
    <glyph glyph-name="J" unicode="J" horiz-adv-x="876" 
d="M745 424q0 -126 -29.5 -216t-86.5 -142t-132 -75.5t-175 -23.5q-88 0 -154.5 22t-130.5 74l82 115q93 -72 203 -72q146 0 205 71.5t59 246.5v1053h159v-1053z" />
    <glyph glyph-name="K" unicode="K" horiz-adv-x="1314" 
d="M1266 1477l-664 -631l662 -846h-205l-529 672q-17 22 -26 80l-213 -201v-551h-160v1477h160v-727l756 727h219z" />
    <glyph glyph-name="L" unicode="L" horiz-adv-x="1046" 
d="M967 0h-836v1477h160v-1334h676v-143z" />
    <glyph glyph-name="M" unicode="M" horiz-adv-x="1658" 
d="M1538 0h-152l-86 1126l7 99l-398 -873h-159l-398 873l6 -92l-86 -1133h-151l106 1477h162l410 -895l30 -84q17 53 31 84l410 895h162z" />
    <glyph glyph-name="N" unicode="N" horiz-adv-x="1447" 
d="M1317 0h-152l-889 1227q15 -50 15 -90v-1137h-160v1477h152l886 -1223q-12 56 -12 80v1143h160v-1477z" />
    <glyph glyph-name="O" unicode="O" horiz-adv-x="1398" 
d="M1309 756q0 -147 -16.5 -261.5t-58.5 -216t-110.5 -168.5t-176 -105t-251.5 -38t-250.5 38.5t-174 104.5t-108.5 168t-57 216.5t-16 261.5q0 133 15.5 239.5t57 205t108.5 164.5t174.5 105t250.5 39t251 -39t176 -105t110.5 -164t59 -205t16.5 -240zM1145 756
q0 121 -12.5 212.5t-43.5 168t-82 125.5t-128.5 75.5t-182.5 26.5t-182 -27t-126.5 -75.5t-79.5 -126t-42 -168t-12 -211.5q0 -133 12 -231t42 -178.5t80.5 -130.5t126.5 -76.5t181 -26.5q131 0 218.5 39.5t138 123.5t71.5 198.5t21 281.5z" />
    <glyph glyph-name="P" unicode="P" horiz-adv-x="1226" 
d="M1137 1016q0 -98 -30 -179t-91 -145.5t-164.5 -100.5t-241.5 -36h-327q8 -36 8 -74v-481h-160v1477h479q136 0 239.5 -36t165 -100t92 -145.5t30.5 -179.5zM973 1016q0 159 -95 238t-268 79h-319v-635h319q177 0 270 75.5t93 242.5z" />
    <glyph glyph-name="Q" unicode="Q" horiz-adv-x="1380" 
d="M1311 -147l-70 -144l-749 273q-81 29 -143.5 71t-106.5 96.5t-74 117t-47 142t-24 162t-7 185.5q0 133 15.5 239.5t57 205t108.5 164.5t174.5 105t250.5 39t251 -39t176 -105t110.5 -164t59 -205t16.5 -240q0 -132 -13 -237t-45.5 -201t-85.5 -163.5t-135 -114
t-192 -63.5h80q58 0 118 -20zM1145 756q0 121 -12.5 212.5t-43.5 168t-82 125.5t-128.5 75.5t-182.5 26.5t-182 -27t-126.5 -75.5t-79.5 -126t-42 -168t-12 -211.5q0 -133 12 -231t42 -178.5t80.5 -130.5t126.5 -76.5t181 -26.5q131 0 218.5 39.5t138 123.5t71.5 198.5
t21 281.5z" />
    <glyph glyph-name="R" unicode="R" horiz-adv-x="1247" 
d="M1157 0h-196l-351 539q-7 12 -14.5 40t-7.5 42h-297v-621h-160v1477h463q270 0 397 -114.5t127 -315.5q0 -346 -373 -416zM954 1047q0 155 -91 220.5t-267 65.5h-305v-567h303q179 0 269.5 63.5t90.5 217.5z" />
    <glyph glyph-name="S" unicode="S" 
d="M1157 418q0 -94 -33 -174t-98 -142.5t-171.5 -98.5t-244.5 -36q-193 0 -329 74.5t-191 226.5l135 68q55 -118 147.5 -171.5t237.5 -53.5q103 0 180 25.5t120.5 69.5t64 97t20.5 115q0 113 -52 175t-173 83l-321 57q-90 16 -155.5 54t-101 91t-51.5 112t-16 128
q0 391 496 391q90 0 166.5 -17t126 -42t89.5 -60t61 -63.5t38 -60.5l-137 -68q-95 168 -344 168q-186 0 -260 -62.5t-74 -185.5q0 -109 43.5 -161t154.5 -72l322 -56q179 -31 264.5 -138t85.5 -273z" />
    <glyph glyph-name="T" unicode="T" horiz-adv-x="1220" 
d="M1151 1333h-461v-1333h-160v1333h-460v144h1081v-144z" />
    <glyph glyph-name="U" unicode="U" horiz-adv-x="1417" 
d="M1296 606q0 -168 -42 -292.5t-121.5 -199.5t-184.5 -111t-239 -36t-239.5 36t-184.5 111t-121.5 199.5t-42.5 292.5v871h160v-871q0 -260 106 -377.5t320 -117.5q215 0 322.5 118t107.5 377v871h159v-871z" />
    <glyph glyph-name="V" unicode="V" horiz-adv-x="1380" 
d="M1331 1477l-547 -1477h-190l-545 1477h170l430 -1168q28 -82 43 -147q18 80 43 147l432 1168h164z" />
    <glyph glyph-name="W" unicode="W" horiz-adv-x="1781" 
d="M1733 1477l-344 -1477h-199l-275 1067q-17 65 -24 129q-8 -49 -27 -129l-274 -1067h-197l-344 1477h162l256 -1071q9 -39 35 -216q22 151 39 216l266 1024h168l266 -1024q23 -85 37 -213q25 169 35 213l258 1071h162z" />
    <glyph glyph-name="X" unicode="X" horiz-adv-x="1343" 
d="M1294 0h-196l-389 580q-10 16 -18 32.5t-11 25.5l-2 9q-11 -34 -31 -65l-403 -582h-195l537 766l-471 711h194l355 -541q9 -14 15 -26.5t7 -18.5l2 -6q7 24 25 51l368 541h199l-494 -713z" />
    <glyph glyph-name="Y" unicode="Y" horiz-adv-x="1312" 
d="M1264 1477l-527 -879v-598h-159v598l-529 879h176l406 -674q16 -29 26 -68q16 48 29 70l404 672h174z" />
    <glyph glyph-name="Z" unicode="Z" horiz-adv-x="1179" 
d="M1090 1335l-773 -1142q-36 -48 -38 -50h794v-143h-983v139l774 1147q19 27 39 47h-762l-41 144h990v-142z" />
    <glyph glyph-name="bracketleft" unicode="[" horiz-adv-x="681" 
d="M709 -334h-457v1913h457v-102l-297 -21v-1667l297 -20v-103z" />
    <glyph glyph-name="backslash" unicode="\" horiz-adv-x="1052" 
d="M938 -33h-139l-684 1542h139z" />
    <glyph glyph-name="bracketright" unicode="]" horiz-adv-x="681" 
d="M432 -334h-459v103l299 20v1667l-299 21v102h459v-1913z" />
    <glyph glyph-name="asciicircum" unicode="^" 
d="M1020 1071l-100 -88l-297 313l-297 -313l-101 88l328 399q32 39 70 39q37 0 69 -39z" />
    <glyph glyph-name="underscore" unicode="_" horiz-adv-x="1040" 
d="M1063 -256h-1086v123h1086v-123z" />
    <glyph glyph-name="grave" unicode="`" horiz-adv-x="710" 
d="M582 1288q0 -3 -9 -12l-49 -43q-8 -8 -16 -8t-23 12l-352 266l125 125l307 -317q3 -3 7 -8t6 -7z" />
    <glyph glyph-name="a" unicode="a" horiz-adv-x="1150" 
d="M1010 0h-127l-27 98q-95 -73 -180 -102t-205 -29q-180 0 -276.5 92.5t-96.5 270.5q0 94 32 162.5t91 107.5t133 57.5t166 18.5q175 0 330 -47v182q0 58 -17.5 96.5t-52.5 58t-75 26.5t-97 7q-228 0 -315 -125l-125 76q59 99 179.5 141t260.5 42q92 0 162 -15.5
t125.5 -51.5t85 -100.5t29.5 -156.5v-809zM850 225v287q-11 2 -82.5 14t-122.5 17.5t-100 5.5q-283 0 -283 -219q0 -109 51.5 -170.5t157.5 -61.5q108 0 194 30.5t185 96.5z" />
    <glyph glyph-name="b" unicode="b" horiz-adv-x="1200" 
d="M1102 551q0 -150 -38.5 -264t-107.5 -183t-159.5 -103t-200.5 -34q-125 0 -233.5 21t-221.5 78v1529h160v-491q0 -18 -10 -80q189 109 323 109q488 0 488 -582zM938 551q0 233 -77.5 340.5t-246.5 107.5q-52 0 -113.5 -18t-95.5 -33.5t-104 -50.5v-760q52 -20 104 -30
t87.5 -11.5t107.5 -1.5q162 0 250 111t88 346z" />
    <glyph glyph-name="c" unicode="c" horiz-adv-x="1101" 
d="M1018 178q-76 -110 -173.5 -160.5t-232.5 -50.5q-142 0 -242.5 38.5t-159.5 115t-85.5 181t-26.5 247.5q0 146 26.5 251.5t86 181.5t159 113.5t242.5 37.5q142 0 235 -49.5t165 -153.5l-129 -66q-1 1 -8.5 11t-9 11.5t-8 10t-8.5 10.5t-8 9t-10 10t-9.5 8.5t-11 9.5
t-11.5 8q-66 47 -187 47q-93 0 -156 -20.5t-108.5 -71t-66.5 -138t-21 -220.5q0 -174 37 -272t111.5 -137.5t203.5 -39.5q59 0 103 10t77 33t53 43.5t48 57.5z" />
    <glyph glyph-name="d" unicode="d" horiz-adv-x="1198" 
d="M1057 0h-101l-43 90q-151 -123 -307 -123q-81 0 -152 17.5t-137.5 60t-114 107.5t-76 166.5t-28.5 230.5q0 584 486 584q80 0 169.5 -33t161.5 -82q-18 39 -18 92v485h160v-1595zM897 217v678q-8 4 -48.5 23t-53.5 25t-47.5 20t-55 19t-50.5 10t-58 5q-168 0 -245 -107
t-77 -341q0 -451 344 -451q120 0 291 119z" />
    <glyph glyph-name="e" unicode="e" horiz-adv-x="1175" 
d="M1077 504h-809q6 -213 80.5 -308.5t261.5 -95.5q230 0 310 160l139 -55q-58 -119 -163.5 -178.5t-285.5 -59.5q-265 0 -388.5 139.5t-123.5 444.5q0 143 26.5 247.5t85.5 181t159 115t243 38.5q86 0 155 -16.5t117.5 -44.5t83.5 -71.5t56 -90t33 -109.5t16 -120t4 -130
v-47zM911 639q0 89 -12.5 150.5t-44.5 111.5t-92 74t-150 24q-167 0 -249.5 -81t-94.5 -279h643z" />
    <glyph glyph-name="f" unicode="f" horiz-adv-x="806" 
d="M854 1567l-31 -140q-14 2 -102 19q-55 10 -115 10q-99 0 -161 -56t-62 -179v-121h379l-35 -139h-344v-961h-160v870q0 36 19 91h-189v139h170v121q0 183 105 278.5t278 95.5q37 0 71.5 -2.5t55 -5.5t59.5 -10t62 -10z" />
    <glyph glyph-name="g" unicode="g" horiz-adv-x="1214" 
d="M1161 1133l-28 -158h-80q-57 0 -103 14q46 -52 68 -117.5t22 -126.5q0 -191 -111 -283.5t-339 -92.5q-33 0 -127 12q-8 1 -24.5 4.5t-29.5 5.5t-24 2q-47 0 -69.5 -23.5t-22.5 -62.5q0 -61 78 -76l454 -79q87 -16 146 -45.5t89 -71.5t42 -86t12 -99q0 -344 -526 -344
q-69 0 -125 5t-120 17.5t-112 39t-88.5 65.5t-62 101t-21.5 141q0 177 156 291q-68 57 -68 143q0 98 113 156q-64 59 -92.5 126t-28.5 154q0 100 36 176.5t99.5 121.5t142.5 67.5t173 22.5q172 0 291 -66l170 66h110zM877 745q0 126 -73 191t-214 65q-287 0 -287 -256
q0 -71 21.5 -120.5t62.5 -76.5t90 -38.5t113 -11.5q146 0 216.5 53t70.5 194zM950 -150q0 75 -34.5 118.5t-112.5 56.5l-471 84q-109 -72 -109 -234q0 -134 89 -189t276 -55q193 0 277.5 56.5t84.5 162.5z" />
    <glyph glyph-name="h" unicode="h" horiz-adv-x="1187" 
d="M1057 0h-160v705q0 86 -17 145.5t-50 91t-72 44.5t-92 13q-67 0 -121.5 -21.5t-134.5 -74.5l-109 -72v-831h-160v1595h158v-569q0 -31 -16 -74l100 70q160 111 283 111q179 0 285 -103t106 -319v-711z" />
    <glyph glyph-name="i" unicode="i" horiz-adv-x="442" 
d="M319 1415q0 -10 -2.5 -13t-11.5 -3h-166q-10 0 -12 2.5t-2 13.5v160q0 12 2.5 16t11.5 4h166q9 0 11.5 -3.5t2.5 -16.5v-160zM301 0h-160v1100h160v-1100z" />
    <glyph glyph-name="j" unicode="j" horiz-adv-x="444" 
d="M319 1415q0 -10 -2.5 -13t-11.5 -3h-166q-10 0 -12 2.5t-2 13.5v160q0 12 2.5 16t11.5 4h166q9 0 11.5 -3.5t2.5 -16.5v-160zM301 -180q0 -78 -14 -134t-48 -98t-93.5 -63t-147.5 -21h-117v131h117q83 0 112 40.5t29 144.5v1280h162v-1280z" />
    <glyph glyph-name="k" unicode="k" horiz-adv-x="1116" 
d="M1096 0h-207l-408 520q-17 22 -30 86l-150 -114v-492h-160v1595h160v-923l545 428h244l-535 -412z" />
    <glyph glyph-name="l" unicode="l" horiz-adv-x="512" 
d="M469 -18h-82q-246 0 -246 266v1347h160v-1347q0 -67 21.5 -95t68.5 -28h78v-143z" />
    <glyph glyph-name="m" unicode="m" horiz-adv-x="1787" 
d="M1659 0h-160v700q0 65 -7.5 114.5t-26 93.5t-55 67.5t-89.5 23.5q-60 0 -122.5 -25.5t-149.5 -86.5l-74 -51q8 -49 8 -136v-700h-160v700q0 299 -182 299q-48 0 -96 -17.5t-74.5 -34.5t-79.5 -54l-90 -64v-829h-160v1100h129l31 -133l76 51q88 59 147.5 87t116.5 28
q212 0 297 -175l78 56q61 44 94.5 64t89.5 37.5t121 17.5q171 0 254.5 -103.5t83.5 -329.5v-700z" />
    <glyph glyph-name="n" unicode="n" horiz-adv-x="1185" 
d="M1057 0h-160v705q0 86 -17 145.5t-50 91t-72 44.5t-92 13q-67 0 -121.5 -21.5t-134.5 -74.5l-109 -72v-831h-160v1100h127l35 -133l80 55q160 111 283 111q179 0 285 -103t106 -319v-711z" />
    <glyph glyph-name="o" unicode="o" horiz-adv-x="1181" 
d="M1083 551q0 -288 -116 -436t-377 -148t-376.5 147.5t-115.5 436.5q0 288 115.5 435t376.5 147t377 -147t116 -435zM920 551q0 246 -75 347t-255 101t-255 -101t-75 -347q0 -247 75 -349t255 -102t255 102t75 349z" />
    <glyph glyph-name="p" unicode="p" horiz-adv-x="1200" 
d="M1102 573q0 -289 -127.5 -447.5t-388.5 -158.5q-151 0 -285 103v-566h-160v1596h101l57 -115q105 83 178 115.5t150 32.5q240 0 357.5 -150t117.5 -410zM938 573q0 97 -15.5 172t-50.5 134t-96.5 90.5t-148.5 31.5q-52 0 -113.5 -24.5t-102 -50t-110.5 -74.5v-651
q141 -103 291 -103q180 0 263 118t83 357z" />
    <glyph glyph-name="q" unicode="q" horiz-adv-x="1198" 
d="M1057 -496h-160v547q-164 -84 -295 -84q-109 0 -200 35.5t-159.5 105t-106.5 179.5t-38 252q0 140 26 245.5t70 171t109.5 106t136 56t158.5 15.5q74 0 162 -12t137.5 -22.5t159.5 -35.5v-1559zM899 182v776q-179 43 -297 43q-68 0 -118.5 -12.5t-93.5 -43.5t-70 -83
t-41.5 -132.5t-14.5 -190.5q0 -119 25 -205.5t72 -136.5t106.5 -73.5t134.5 -23.5q69 0 129.5 17.5t167.5 64.5z" />
    <glyph glyph-name="r" unicode="r" horiz-adv-x="749" 
d="M696 967q-44 8 -96 8q-70 0 -121.5 -17.5t-113.5 -70.5l-64 -53v-834h-160v1100h133l27 -115l94 78q45 38 102.5 54t102.5 16q39 0 96 -11v-155z" />
    <glyph glyph-name="s" unicode="s" horiz-adv-x="1062" 
d="M956 317q0 -92 -35 -161t-97.5 -109.5t-141 -60t-172.5 -19.5q-149 0 -266 63.5t-158 182.5l147 47q32 -78 104.5 -119t172.5 -41q285 0 285 217q0 138 -152 162l-276 45q-118 20 -186 91t-68 194q0 149 108.5 236.5t308.5 87.5q290 0 392 -189l-131 -65q-37 58 -97 89
t-162 31q-133 0 -198.5 -50.5t-65.5 -139.5q0 -59 28 -93.5t107 -47.5l273 -43q124 -20 202 -100t78 -208z" />
    <glyph glyph-name="t" unicode="t" horiz-adv-x="870" 
d="M848 57q-108 -90 -328 -90q-65 0 -114 13.5t-90.5 46t-63 93t-21.5 148.5v609q0 18 2.5 30t9 30t7.5 21h-207v142h188v373l160 47v-420h397l-47 -142h-350v-690q0 -95 42.5 -132.5t137.5 -37.5q82 0 177 62z" />
    <glyph glyph-name="u" unicode="u" horiz-adv-x="1185" 
d="M1044 0h-126l-35 133l-80 -55q-160 -111 -283 -111q-179 0 -285 103t-106 319v711h160v-705q0 -86 17 -146t50 -91.5t72 -44.5t92 -13q66 0 120.5 21.5t135.5 75.5l109 71v832h159v-1100z" />
    <glyph glyph-name="v" unicode="v" horiz-adv-x="1126" 
d="M1069 1100l-414 -1100h-184l-414 1100h166l301 -811q9 -25 18.5 -67t15.5 -72l5 -29q18 111 41 170l297 809h168z" />
    <glyph glyph-name="w" unicode="w" horiz-adv-x="1646" 
d="M1589 1100l-344 -1100h-158l-227 735q-9 30 -19 81t-16 86l-6 36q-13 -135 -33 -203l-229 -735h-158l-342 1100h156l227 -752q8 -25 18 -75.5t16 -88.5l5 -37q19 138 39 201l230 752h151l229 -752q8 -28 17 -79t13 -89l5 -37q23 142 41 205l230 752h155z" />
    <glyph glyph-name="x" unicode="x" horiz-adv-x="1132" 
d="M1075 0h-188l-279 389q-30 42 -47 90q-16 -47 -45 -92l-270 -387h-189l410 571l-381 529h186l258 -363q3 -4 10.5 -15t11 -16.5t9 -15.5t9 -19t5.5 -20q16 47 41 86l242 363h189l-381 -539z" />
    <glyph glyph-name="y" unicode="y" horiz-adv-x="1124" 
d="M1069 1100l-520 -1389q-43 -115 -117.5 -161t-214.5 -46h-141v144h141q93 0 127.5 25t63.5 104l71 194l-424 1129h168l303 -809q8 -21 37 -139q23 98 39 139l301 809h166z" />
    <glyph glyph-name="z" unicode="z" horiz-adv-x="1052" 
d="M944 0h-835v154l596 747q17 21 79 57h-630l-43 142h829v-154l-604 -756q-26 -31 -82 -51h690v-139z" />
    <glyph glyph-name="braceleft" unicode="{" horiz-adv-x="727" 
d="M715 -334h-140q-66 0 -111.5 8.5t-85.5 30.5t-59.5 66t-19.5 110v518q0 6 -1 17t-8 38t-20 48t-40.5 38t-65.5 17v133q38 0 65.5 16.5t40 39.5t19.5 46t7 40l1 16v516q0 66 20 110t60 66t86 30.5t112 8.5h140v-113h-140q-69 0 -93.5 -21t-24.5 -81v-516q0 -4 -0.5 -11.5
t-4 -29t-9.5 -41.5t-19 -44.5t-30.5 -43.5t-45.5 -34t-63 -19q48 -7 83 -33t52 -57.5t26.5 -62.5t11.5 -52l1 -21v-518q0 -60 23.5 -81t92.5 -21h140v-113z" />
    <glyph glyph-name="bar" unicode="|" horiz-adv-x="589" 
d="M373 -334h-156v1913h156v-1913z" />
    <glyph glyph-name="braceright" unicode="}" horiz-adv-x="727" 
d="M563 557q-38 0 -65.5 -16.5t-40.5 -39.5t-20 -46t-8 -39l-1 -17v-518q0 -66 -19.5 -110t-59.5 -66t-85.5 -30.5t-111.5 -8.5h-140v113h140q69 0 92.5 21t23.5 81v518q0 8 1.5 22t11 50t26 64.5t52 55.5t83.5 34q-48 6 -83 31t-51.5 56.5t-26 62.5t-10.5 52l-1 21v516
q0 60 -24.5 81t-93.5 21h-140v113h140q66 0 112 -8.5t86 -30.5t60 -66t20 -110v-516q0 -6 0.5 -17t7.5 -38t19.5 -48t40 -38t65.5 -17v-133z" />
    <glyph glyph-name="asciitilde" unicode="~" 
d="M1120 809q-52 -74 -118 -107.5t-156 -33.5q-53 0 -104.5 18t-92 44t-79.5 52t-83.5 44t-87.5 18q-90 0 -156 -34t-118 -108v175q52 74 118 107.5t156 33.5q59 0 113 -18t94 -44t77 -52t79 -44t84 -18q90 0 156 33.5t118 107.5v-174z" />
    <glyph glyph-name="uni00A0" unicode="&#xa0;" horiz-adv-x="507" 
 />
    <glyph glyph-name="exclamdown" unicode="&#xa1;" horiz-adv-x="512" 
d="M352 954q0 -11 -3 -14.5t-11 -3.5h-164q-14 0 -14 18v160q0 16 14 16h164q14 0 14 -16v-160zM342 -463h-172v797l23 411h126l23 -411v-797z" />
    <glyph glyph-name="cent" unicode="&#xa2;" 
d="M1047 385q-65 -97 -144.5 -142t-189.5 -50v-295h-152v299q-196 24 -285.5 159.5t-89.5 374.5q0 246 87 381t288 156v295h152v-293q144 -10 223.5 -91t95.5 -216h-145q-13 88 -71.5 133t-184.5 45q-94 0 -154 -36t-94.5 -128t-34.5 -246q0 -100 14 -171.5t48 -126.5
t95 -82t150 -27q59 0 102 8.5t74 27.5t50.5 38.5t42.5 50.5z" />
    <glyph glyph-name="sterling" unicode="&#xa3;" 
d="M1094 0h-893v129q33 41 47 77t14 93v375h-147v143h147v309q0 385 418 385q270 0 405 -147l-112 -94q-56 51 -123 75.5t-170 24.5q-144 0 -201 -58t-57 -186v-309h442v-143h-442v-375q0 -81 -62 -156h734v-143z" />
    <glyph glyph-name="currency" unicode="&#xa4;" horiz-adv-x="1239" 
d="M1122 1176q0 -17 -14 -31l-168 -168q68 -95 68 -213q0 -119 -70 -217l168 -168q14 -14 14 -31q0 -14 -10 -24l-55 -56q-10 -10 -23 -10q-17 0 -31 14l-172 172q-94 -67 -208 -67q-119 0 -213 67l-168 -168q-16 -16 -33 -16q-11 0 -21 10l-55 58q-10 13 -10 22q0 17 14 31
l166 166q-70 94 -70 217q0 119 66 211l-166 166q-14 14 -14 30q0 17 10 25l57 55q11 11 23 11q14 0 31 -17l163 -164q98 70 217 70q120 0 218 -70l168 168q15 15 30 15q12 0 23 -11l55 -55q10 -10 10 -22zM862 764q0 101 -72.5 172.5t-173.5 71.5t-173 -71.5t-72 -172.5
t72 -173.5t173 -72.5t173.5 72.5t72.5 173.5z" />
    <glyph glyph-name="yen" unicode="&#xa5;" 
d="M1186 610h-463l-18 -39v-571h-164v571l-19 39h-461v129h394l-86 170h-308v125h242l-225 443h174l342 -672l29 -66l28 66l342 672h174l-225 -443h244v-125h-309l-86 -170h395v-129z" />
    <glyph glyph-name="brokenbar" unicode="&#xa6;" horiz-adv-x="589" 
d="M350 922h-155v614h155v-614zM350 0h-155v614h155v-614z" />
    <glyph glyph-name="section" unicode="&#xa7;" horiz-adv-x="1224" 
d="M1034 166q0 -395 -438 -395h-377v342h137v-217h240q163 0 228 59.5t65 210.5q0 92 -36 138t-128 69l-285 71q-146 36 -204 132.5t-58 254.5v228q0 211 101.5 314.5t308.5 103.5h405v-293h-137v168h-268q-153 0 -209.5 -55t-56.5 -203q0 -139 163 -181l285 -71
q147 -36 205.5 -129t58.5 -248v-299zM891 426q0 135 -31 191t-131 81l-283 74q-39 10 -74.5 36.5t-56.5 65.5q0 -54 5.5 -93t22 -80t51 -69t87.5 -42l283 -74q91 -22 127 -90z" />
    <glyph glyph-name="dieresis" unicode="&#xa8;" horiz-adv-x="841" 
d="M739 1335q0 -15 -2.5 -17.5t-15.5 -2.5h-152q-13 0 -15.5 2.5t-2.5 17.5v148q0 16 2.5 19t15.5 3h152h7t4.5 -0.5t3.5 -1.5t1.5 -4t1.5 -6.5v-9.5v-148zM291 1335q0 -14 -3 -17t-16 -3h-151h-9.5t-5.5 1t-4 3.5t-1.5 6t-0.5 9.5v148q0 16 3 19t18 3h151q10 0 12.5 -0.5
t4.5 -5t2 -16.5v-148z" />
    <glyph glyph-name="copyright" unicode="&#xa9;" horiz-adv-x="1785" 
d="M1665 739q0 -209 -103.5 -386.5t-281 -280.5t-387.5 -103t-387.5 103t-281 280.5t-103.5 386.5q0 157 61 300t164.5 246.5t246.5 164.5t300 61t300 -61t246.5 -164.5t164.5 -246.5t61 -300zM1540 739q0 132 -51 252t-137.5 207.5t-206.5 139t-252 51.5t-252 -51.5
t-206.5 -139t-137.5 -207.5t-51 -252q0 -176 86.5 -325t235.5 -235.5t325 -86.5t325 86.5t235.5 235.5t86.5 325zM1245 440q-15 -32 -32 -57.5t-45.5 -53t-63 -45.5t-86 -30t-113.5 -12q-100 0 -173.5 26t-117.5 68.5t-71 108t-36 133t-9 155.5q0 120 18 205.5t61 152
t121.5 99.5t194.5 33q90 0 157 -22.5t105 -62t57 -84t23 -96.5h-119q-10 73 -59.5 113.5t-163.5 40.5q-74 0 -125 -19t-79.5 -48.5t-44 -82.5t-19.5 -102t-4 -127q0 -58 3.5 -100t13 -88.5t29 -78.5t50 -59t78 -40t110.5 -13q92 0 147.5 34t92.5 112z" />
    <glyph glyph-name="ordfeminine" unicode="&#xaa;" horiz-adv-x="706" 
d="M586 932h-76l-18 37q-73 -54 -179 -54q-97 0 -144.5 52.5t-47.5 140.5q0 52 17.5 89t48.5 56.5t65.5 28t75.5 8.5q81 0 147 -16v63q0 18 -2.5 29t-11.5 22.5t-29.5 17t-52.5 5.5q-101 0 -146 -68l-83 56q62 110 229 110q63 0 106 -14.5t64 -41t29 -54t8 -62.5v-405z
M475 1067v113q-86 14 -125 14q-57 0 -87 -19t-30 -67q0 -96 80 -96q79 0 162 55z" />
    <glyph glyph-name="guillemotleft" unicode="&#xab;" horiz-adv-x="1134" 
d="M1001 242l-88 -76l-356 385l356 385l88 -76l-260 -309zM578 242l-89 -76l-356 385l356 385l89 -76l-263 -309z" />
    <glyph glyph-name="logicalnot" unicode="&#xac;" 
d="M1130 416h-157v491h-858v156h1015v-647z" />
    <glyph glyph-name="uni00AD" unicode="&#xad;" horiz-adv-x="661" 
d="M608 532h-555v144h555v-144z" />
    <glyph glyph-name="registered" unicode="&#xae;" horiz-adv-x="1785" 
d="M1665 739q0 -209 -103.5 -386.5t-281 -280.5t-387.5 -103t-387.5 103t-281 280.5t-103.5 386.5q0 157 61 300t164.5 246.5t246.5 164.5t300 61t300 -61t246.5 -164.5t164.5 -246.5t61 -300zM1540 739q0 132 -51 252t-137.5 207.5t-206.5 139t-252 51.5t-252 -51.5
t-206.5 -139t-137.5 -207.5t-51 -252q0 -176 86.5 -325t235.5 -235.5t325 -86.5t325 86.5t235.5 235.5t86.5 325zM1272 268h-146l-223 344q-10 16 -18 45h-221v-389h-119v951h354q174 0 257 -75.5t83 -205.5q0 -220 -227 -270zM1118 938q0 90 -55 131t-162 41h-237v-340h235
q110 0 164.5 38t54.5 130z" />
    <glyph glyph-name="macron" unicode="&#xaf;" horiz-adv-x="937" 
d="M807 1348h-676v137h676v-137z" />
    <glyph glyph-name="degree" unicode="&#xb0;" horiz-adv-x="684" 
d="M604 1245q0 -109 -76.5 -185.5t-185.5 -76.5t-185.5 76.5t-76.5 185.5t76.5 185.5t185.5 76.5t185.5 -76.5t76.5 -185.5zM481 1245q0 59 -40.5 100t-98.5 41t-98.5 -41t-40.5 -100t40.5 -99t98.5 -40t98.5 40t40.5 99z" />
    <glyph glyph-name="plusminus" unicode="&#xb1;" 
d="M1161 739h-459v-460h-157v460h-461v156h461v461h157v-461h459v-156zM1161 0h-1077v156h1077v-156z" />
    <glyph glyph-name="two.superior" unicode="&#xb2;" horiz-adv-x="716" 
d="M643 1257q0 -36 -8 -67.5t-27 -60.5t-35.5 -50t-49 -48t-51.5 -41t-58 -42q-39 -27 -64 -46.5t-55 -46.5t-50.5 -55t-31.5 -57h305v123h123v-241h-578q0 49 9.5 93t21.5 76.5t37 67t43 55.5t53 50t53 42t56 40q58 39 90 64t59 64.5t27 79.5q0 64 -35.5 96.5t-97.5 32.5
q-93 0 -133 -37t-49 -102h-123q2 47 18.5 90t49.5 82.5t94 63.5t143 24q117 0 190.5 -66.5t73.5 -183.5z" />
    <glyph glyph-name="three.superior" unicode="&#xb3;" horiz-adv-x="716" 
d="M662 885q0 -137 -84 -208t-224 -71q-115 0 -188.5 42.5t-124.5 137.5l111 54q35 -62 80.5 -89.5t121.5 -27.5q85 0 130.5 42t45.5 120q0 65 -40 101t-109 36h-143l-33 121h176q59 0 96 33t37 98q0 121 -143 121q-76 0 -122 -28.5t-83 -92.5l-111 53q55 94 129.5 138
t186.5 44q76 0 131 -19t85 -53t44 -74t14 -89q0 -116 -88 -184q47 -32 76 -86t29 -119z" />
    <glyph glyph-name="acute" unicode="&#xb4;" horiz-adv-x="659" 
d="M553 1503l-352 -266q-15 -12 -23 -12t-16 8l-49 43q-9 9 -9 12q0 6 17 23l307 317z" />
    <glyph glyph-name="mu" unicode="&#xb5;" horiz-adv-x="1187" 
d="M1047 0h-127l-35 135l-80 -55q-63 -43 -96 -63t-82 -35t-105 -15q-120 0 -229 68v-455h-162v1520h162v-762q0 -238 229 -238q69 0 122.5 21t133.5 76l109 73v830h160v-1100z" />
    <glyph glyph-name="paragraph" unicode="&#xb6;" horiz-adv-x="1060" 
d="M909 0h-112v1364h-113v-1364h-113v723h-53q-112 0 -196.5 30t-134 83t-73.5 119.5t-24 146.5t24.5 146.5t74.5 118.5t134 81t195 29h391v-1477z" />
    <glyph glyph-name="periodcentered" unicode="&#xb7;" horiz-adv-x="485" 
d="M354 786q0 -13 -3 -16.5t-15 -3.5h-186q-12 0 -15.5 3.5t-3.5 16.5v181q0 17 2.5 19.5t16.5 2.5h186q14 0 16 -2.5t2 -19.5v-181z" />
    <glyph glyph-name="cedilla" unicode="&#xb8;" horiz-adv-x="636" 
d="M526 -250q0 -88 -51.5 -123t-161.5 -35q-114 0 -204 41l28 76q82 -26 176 -26q49 0 67.5 18t18.5 49q0 70 -86 70h-102l-55 92l71 90h125l-78 -92h39q110 0 161.5 -36.5t51.5 -123.5z" />
    <glyph glyph-name="one.superior" unicode="&#xb9;" horiz-adv-x="567" 
d="M535 625h-500v118h182v607v14q-7 -1 -80 -17t-104 -22v125l315 63v-770h187v-118z" />
    <glyph glyph-name="ordmasculine" unicode="&#xba;" horiz-adv-x="745" 
d="M625 1212q0 -297 -252 -297t-252 297t252 297t252 -297zM512 1212q0 113 -32 156t-107 43q-76 0 -108 -43t-32 -156t31.5 -156.5t108.5 -43.5q76 0 107.5 43t31.5 157z" />
    <glyph glyph-name="guillemotright" unicode="&#xbb;" horiz-adv-x="1134" 
d="M1001 551l-356 -385l-88 76l262 309l-262 309l88 76zM578 551l-357 -385l-88 76l260 309l-260 309l88 76z" />
    <glyph glyph-name="onequarter" unicode="&#xbc;" horiz-adv-x="1685" 
d="M594 625h-500v118h182v607v14q-7 -1 -80 -17t-104 -22v125l316 63v-770h186v-118zM1444 1509l-991 -1540h-140l992 1540h139zM1593 223h-90v-223h-129v223h-434v111l436 532h127v-524h90v-119zM1110 342h264v324z" />
    <glyph glyph-name="onehalf" unicode="&#xbd;" horiz-adv-x="1759" 
d="M594 625h-500v118h182v607v14q-7 -1 -80 -17t-104 -22v125l316 63v-770h186v-118zM1444 1509l-991 -1540h-140l992 1540h139zM1667 633q0 -36 -8 -67.5t-27 -60.5t-35.5 -50t-49 -48t-51.5 -41t-58 -42q-39 -27 -64 -46.5t-55 -46.5t-50.5 -55t-31.5 -57h305v123h123
v-242h-578q0 49 9.5 93t21.5 76.5t37 67t43 55.5t53 50t53 42t56 40q43 29 68.5 48.5t53.5 46.5t41 55t13 59q0 64 -35.5 96.5t-97.5 32.5q-93 0 -133 -37t-49 -102h-123q2 47 18.5 90t49.5 82.5t94 63.5t143 24q117 0 190.5 -66.5t73.5 -183.5z" />
    <glyph glyph-name="threequarters" unicode="&#xbe;" horiz-adv-x="1718" 
d="M1477 1509l-992 -1540h-139l991 1540h140zM1626 223h-90v-223h-129v223h-434v111l436 532h127v-524h90v-119zM1143 342h264v324zM713 885q0 -137 -83.5 -208t-223.5 -71q-115 0 -189 43t-125 137l111 54q35 -62 81 -89.5t122 -27.5q85 0 130.5 42t45.5 120
q0 65 -40.5 101t-109.5 36h-143l-33 121h176q59 0 96 33t37 98q0 121 -143 121q-76 0 -122 -28.5t-83 -92.5l-111 53q55 94 129.5 138t186.5 44q76 0 131 -19t85 -53t44 -74t14 -89q0 -116 -88 -184q47 -32 76 -86t29 -119z" />
    <glyph glyph-name="questiondown" unicode="&#xbf;" horiz-adv-x="1075" 
d="M682 954q0 -11 -3 -14.5t-11 -3.5h-164q-15 0 -15 18v160q0 16 15 16h164q14 0 14 -16v-160zM979 -92q0 -44 -5 -82t-18 -81t-34.5 -77t-57.5 -66.5t-83.5 -54t-116.5 -34.5t-154 -13q-214 0 -319 108.5t-105 334.5q0 54 12.5 101.5t29.5 81t48 69t54.5 56.5t62.5 52
q47 38 65 53.5t53.5 51t50 61.5t27.5 66.5t13 85.5v155h164v-155q0 -42 -7 -80t-15 -66.5t-28 -60t-33.5 -50t-43.5 -48t-45.5 -43t-54 -45.5t-54.5 -46q-65 -57 -99 -111.5t-34 -127.5q0 -70 11 -119.5t38 -91.5t79 -63t130 -21q88 0 148.5 18t94 54t47.5 81t15 107h164z
" />
    <glyph glyph-name="Agrave" unicode="&#xc0;" horiz-adv-x="1380" 
d="M1331 0h-170l-170 459h-608l-170 -459h-164l547 1477h190zM936 608l-205 559q-28 82 -43 148q-20 -89 -43 -148l-207 -559h498zM831 1612q0 -5 -8 -13l-49 -43q-8 -8 -16 -8q-7 0 -23 13l-352 266l125 125l307 -318q3 -3 6.5 -7.5t5.5 -6.5z" />
    <glyph glyph-name="Aacute" unicode="&#xc1;" horiz-adv-x="1380" 
d="M1331 0h-170l-170 459h-608l-170 -459h-164l547 1477h190zM936 608l-205 559q-28 82 -43 148q-20 -89 -43 -148l-207 -559h498zM995 1827l-352 -266q-16 -13 -22 -13q-9 0 -17 8l-49 43q-8 8 -8 13q0 6 16 22l307 318z" />
    <glyph glyph-name="Acircumflex" unicode="&#xc2;" horiz-adv-x="1380" 
d="M1331 0h-170l-170 459h-608l-170 -459h-164l547 1477h190zM936 608l-205 559q-28 82 -43 148q-20 -89 -43 -148l-207 -559h498zM1020 1618l-78 -70l-252 215l-252 -215l-78 70l275 283q32 32 55 32t55 -32z" />
    <glyph glyph-name="Atilde" unicode="&#xc3;" horiz-adv-x="1380" 
d="M1331 0h-170l-170 459h-608l-170 -459h-164l547 1477h190zM936 608l-205 559q-28 82 -43 148q-20 -89 -43 -148l-207 -559h498zM1061 1782l-129 -201q-26 -43 -78 -43q-12 0 -24 3t-19 6.5t-21 11t-20 10.5l-186 96q-24 14 -45 14t-43 -26l-88 -107l-89 51l130 201
q26 43 77 43q12 0 24 -3t19 -6.5t21 -11t20 -10.5l187 -96q25 -14 45 -14q21 0 43 26l88 107z" />
    <glyph glyph-name="Adieresis" unicode="&#xc4;" horiz-adv-x="1380" 
d="M1331 0h-170l-170 459h-608l-170 -459h-164l547 1477h190zM936 608l-205 559q-28 82 -43 148q-20 -89 -43 -148l-207 -559h498zM1008 1661q0 -15 -3 -18t-16 -3h-151q-12 0 -15.5 3t-3.5 18v147q0 16 3 19.5t16 3.5h151q9 0 12.5 -1t5 -5.5t1.5 -16.5v-147zM559 1661
q0 -15 -3 -18t-15 -3h-152q-14 0 -17 3t-3 18v147q0 17 3 20t17 3h152q13 0 15.5 -3t2.5 -20v-147z" />
    <glyph glyph-name="Aring" unicode="&#xc5;" horiz-adv-x="1380" 
d="M1331 0h-170l-170 459h-608l-170 -459h-164l547 1477h190zM936 608l-205 559q-28 82 -43 148q-20 -89 -43 -148l-207 -559h498zM913 1743q0 -92 -65.5 -157.5t-157.5 -65.5t-157.5 65.5t-65.5 157.5t65.5 157.5t157.5 65.5t157.5 -65.5t65.5 -157.5zM817 1743
q0 53 -37.5 90t-89.5 37q-53 0 -91 -37t-38 -90t38.5 -91t90.5 -38q53 0 90 38t37 91z" />
    <glyph glyph-name="AE" unicode="&#xc6;" horiz-adv-x="2113" 
d="M2023 0h-944v459h-544l-279 -459h-176l899 1477h1042v-144h-782v-481h698l-41 -145h-669q12 -45 12 -82v-482h784v-143zM1079 608v738l-450 -738h450z" />
    <glyph glyph-name="Ccedilla" unicode="&#xc7;" horiz-adv-x="1292" 
d="M1202 264q-25 -57 -61 -104.5t-94 -93t-146.5 -72t-198.5 -27.5l-40 -49h24q102 0 149.5 -33t47.5 -114q0 -82 -48 -115t-149 -33q-107 0 -192 39l30 76q83 -25 162 -25q74 0 74 58q0 57 -74 57h-96l-53 88l47 57q-116 14 -203.5 61t-142 115t-88.5 164.5t-47 198.5
t-13 227q0 150 18 266.5t60.5 213t110.5 159t169.5 97t235.5 34.5q105 0 190 -23.5t141 -62t95.5 -90.5t57.5 -106t22 -111h-148q-15 111 -100.5 179.5t-259.5 68.5q-81 0 -144.5 -16.5t-108 -43.5t-76.5 -72.5t-50.5 -94t-29 -117t-14 -132t-3.5 -149.5q0 -78 3.5 -138.5
t15 -128.5t31 -118t53 -97.5t79 -77.5t111.5 -48t149 -18q140 0 233.5 55t145.5 172z" />
    <glyph glyph-name="Egrave" unicode="&#xc8;" horiz-adv-x="1165" 
d="M1075 0h-944v1477h942v-144h-782v-481h698l-41 -145h-669q12 -45 12 -82v-482h784v-143zM729 1614q0 -4 -8 -12l-49 -43q-9 -9 -17 -9q-6 0 -22 13l-352 266l125 125l307 -318q3 -3 6.5 -7.5t5.5 -6.5z" />
    <glyph glyph-name="Eacute" unicode="&#xc9;" horiz-adv-x="1165" 
d="M1075 0h-944v1477h942v-144h-782v-481h698l-41 -145h-669q12 -45 12 -82v-482h784v-143zM930 1829l-352 -266q-16 -13 -23 -13t-16 9l-50 43q-8 8 -8 12q0 5 17 22l307 318z" />
    <glyph glyph-name="Ecircumflex" unicode="&#xca;" horiz-adv-x="1165" 
d="M1075 0h-944v1477h942v-144h-782v-481h698l-41 -145h-669q12 -45 12 -82v-482h784v-143zM911 1622l-77 -70l-252 215l-252 -215l-78 70l274 283q32 32 56 32q23 0 55 -32z" />
    <glyph glyph-name="Edieresis" unicode="&#xcb;" horiz-adv-x="1165" 
d="M1075 0h-944v1477h942v-144h-782v-481h698l-41 -145h-669q12 -45 12 -82v-482h784v-143zM922 1661q0 -15 -3 -18t-16 -3h-151q-12 0 -15.5 3t-3.5 18v147q0 16 3 19.5t16 3.5h151q9 0 12.5 -1t5 -5.5t1.5 -16.5v-147zM473 1661q0 -15 -3 -18t-15 -3h-152q-14 0 -17 3
t-3 18v147q0 17 3 20t17 3h152q13 0 15.5 -3t2.5 -20v-147z" />
    <glyph glyph-name="Igrave" unicode="&#xcc;" horiz-adv-x="421" 
d="M291 0h-160v1477h160v-1477zM375 1614q0 -4 -8 -12l-50 -43q-9 -9 -16 -9q-6 0 -22 13l-353 266l125 125l307 -318q3 -3 7 -7.5t6 -6.5z" />
    <glyph glyph-name="Iacute" unicode="&#xcd;" horiz-adv-x="421" 
d="M291 0h-160v1477h160v-1477zM498 1829l-353 -266q-16 -13 -22 -13q-8 0 -17 9l-49 43q-8 8 -8 12q0 5 17 22l307 318z" />
    <glyph glyph-name="Icircumflex" unicode="&#xce;" horiz-adv-x="421" 
d="M291 0h-160v1477h160v-1477zM541 1620l-78 -70l-252 215l-252 -215l-78 70l275 283q32 32 55 32t55 -32z" />
    <glyph glyph-name="Idieresis" unicode="&#xcf;" horiz-adv-x="421" 
d="M291 0h-160v1477h160v-1477zM530 1661q0 -15 -3 -18t-15 -3h-152q-12 0 -15 3t-3 18v147q0 17 3 20t15 3h152q12 0 15 -3t3 -20v-147zM82 1661q0 -15 -3 -18t-16 -3h-151q-14 0 -17.5 3t-3.5 18v147q0 17 3.5 20t17.5 3h151q9 0 12.5 -1t5 -5.5t1.5 -16.5v-147z" />
    <glyph glyph-name="Eth" unicode="&#xd0;" horiz-adv-x="1339" 
d="M1270 756q0 -130 -24 -241t-78.5 -207t-137 -163.5t-205 -106t-276.5 -38.5h-418v707h-176v139h176v631h418q189 0 330 -53.5t225.5 -152t125 -227t40.5 -288.5zM1106 756q0 293 -137.5 435t-419.5 142h-258v-487h260l-41 -139h-219v-564h258q282 0 419.5 153t137.5 460z
" />
    <glyph glyph-name="Ntilde" unicode="&#xd1;" horiz-adv-x="1447" 
d="M1317 0h-152l-889 1227q15 -50 15 -90v-1137h-160v1477h152l886 -1223q-12 56 -12 80v1143h160v-1477zM1118 1790l-129 -201q-26 -43 -78 -43q-12 0 -24 3t-19 6.5t-21 11t-20 10.5l-186 96q-26 15 -45 15q-20 0 -43 -27l-88 -107l-88 52l129 200q26 43 78 43q12 0 24 -3
t18.5 -6t21.5 -10.5t20 -10.5l186 -97q24 -14 45 -14q20 0 43 27l88 106z" />
    <glyph glyph-name="Ograve" unicode="&#xd2;" horiz-adv-x="1398" 
d="M1309 756q0 -147 -16.5 -261.5t-58.5 -216t-110.5 -168.5t-176 -105t-251.5 -38t-250.5 38.5t-174 104.5t-108.5 168t-57 216.5t-16 261.5q0 133 15.5 239.5t57 205t108.5 164.5t174.5 105t250.5 39t251 -39t176 -105t110.5 -164t59 -205t16.5 -240zM1145 756
q0 121 -12.5 212.5t-43.5 168t-82 125.5t-128.5 75.5t-182.5 26.5t-182 -27t-126.5 -75.5t-79.5 -126t-42 -168t-12 -211.5q0 -133 12 -231t42 -178.5t80.5 -130.5t126.5 -76.5t181 -26.5q131 0 218.5 39.5t138 123.5t71.5 198.5t21 281.5zM838 1614q0 -3 -9 -12l-49 -43
q-9 -9 -16 -9t-23 13l-352 266l125 125l307 -318q3 -3 7 -7.5t6 -6.5z" />
    <glyph glyph-name="Oacute" unicode="&#xd3;" horiz-adv-x="1398" 
d="M1309 756q0 -147 -16.5 -261.5t-58.5 -216t-110.5 -168.5t-176 -105t-251.5 -38t-250.5 38.5t-174 104.5t-108.5 168t-57 216.5t-16 261.5q0 133 15.5 239.5t57 205t108.5 164.5t174.5 105t250.5 39t251 -39t176 -105t110.5 -164t59 -205t16.5 -240zM1145 756
q0 121 -12.5 212.5t-43.5 168t-82 125.5t-128.5 75.5t-182.5 26.5t-182 -27t-126.5 -75.5t-79.5 -126t-42 -168t-12 -211.5q0 -133 12 -231t42 -178.5t80.5 -130.5t126.5 -76.5t181 -26.5q131 0 218.5 39.5t138 123.5t71.5 198.5t21 281.5zM1022 1829l-352 -266
q-16 -13 -23 -13t-16 9l-49 43q-9 9 -9 12q0 5 17 22l307 318z" />
    <glyph glyph-name="Ocircumflex" unicode="&#xd4;" horiz-adv-x="1398" 
d="M1309 756q0 -147 -16.5 -261.5t-58.5 -216t-110.5 -168.5t-176 -105t-251.5 -38t-250.5 38.5t-174 104.5t-108.5 168t-57 216.5t-16 261.5q0 133 15.5 239.5t57 205t108.5 164.5t174.5 105t250.5 39t251 -39t176 -105t110.5 -164t59 -205t16.5 -240zM1145 756
q0 121 -12.5 212.5t-43.5 168t-82 125.5t-128.5 75.5t-182.5 26.5t-182 -27t-126.5 -75.5t-79.5 -126t-42 -168t-12 -211.5q0 -133 12 -231t42 -178.5t80.5 -130.5t126.5 -76.5t181 -26.5q131 0 218.5 39.5t138 123.5t71.5 198.5t21 281.5zM1028 1618l-78 -70l-252 215
l-252 -215l-77 70l274 283q32 32 55 32q24 0 56 -32z" />
    <glyph glyph-name="Otilde" unicode="&#xd5;" horiz-adv-x="1398" 
d="M1309 756q0 -147 -16.5 -261.5t-58.5 -216t-110.5 -168.5t-176 -105t-251.5 -38t-250.5 38.5t-174 104.5t-108.5 168t-57 216.5t-16 261.5q0 133 15.5 239.5t57 205t108.5 164.5t174.5 105t250.5 39t251 -39t176 -105t110.5 -164t59 -205t16.5 -240zM1145 756
q0 121 -12.5 212.5t-43.5 168t-82 125.5t-128.5 75.5t-182.5 26.5t-182 -27t-126.5 -75.5t-79.5 -126t-42 -168t-12 -211.5q0 -133 12 -231t42 -178.5t80.5 -130.5t126.5 -76.5t181 -26.5q131 0 218.5 39.5t138 123.5t71.5 198.5t21 281.5zM1069 1798l-129 -201
q-26 -43 -78 -43q-12 0 -24 3t-19 6.5t-21 11t-20 10.5l-186 96q-26 15 -45 15q-20 0 -43 -27l-88 -106l-88 51l129 201q26 43 78 43q12 0 23.5 -3t19 -6.5t20.5 -11t20 -10.5l187 -96q26 -15 45 -15q20 0 43 27l88 106z" />
    <glyph glyph-name="Odieresis" unicode="&#xd6;" horiz-adv-x="1398" 
d="M1309 756q0 -147 -16.5 -261.5t-58.5 -216t-110.5 -168.5t-176 -105t-251.5 -38t-250.5 38.5t-174 104.5t-108.5 168t-57 216.5t-16 261.5q0 133 15.5 239.5t57 205t108.5 164.5t174.5 105t250.5 39t251 -39t176 -105t110.5 -164t59 -205t16.5 -240zM1145 756
q0 121 -12.5 212.5t-43.5 168t-82 125.5t-128.5 75.5t-182.5 26.5t-182 -27t-126.5 -75.5t-79.5 -126t-42 -168t-12 -211.5q0 -133 12 -231t42 -178.5t80.5 -130.5t126.5 -76.5t181 -26.5q131 0 218.5 39.5t138 123.5t71.5 198.5t21 281.5zM1018 1661q0 -15 -3 -18t-16 -3
h-151q-12 0 -15.5 3t-3.5 18v147q0 16 3 19.5t16 3.5h151q9 0 12.5 -1t5 -5.5t1.5 -16.5v-147zM569 1661q0 -15 -3 -18t-15 -3h-152q-14 0 -17 3t-3 18v147q0 17 3 20t17 3h152q13 0 15.5 -3t2.5 -20v-147z" />
    <glyph glyph-name="multiply" unicode="&#xd7;" 
d="M1090 422l-113 -111l-352 355l-355 -355l-112 111l354 354l-352 357l110 110l353 -352l354 352l113 -110l-355 -357z" />
    <glyph glyph-name="Oslash" unicode="&#xd8;" horiz-adv-x="1398" 
d="M1386 1528l-192 -252q115 -181 115 -520q0 -147 -16.5 -261.5t-58.5 -216t-110.5 -168.5t-176 -105t-251.5 -38q-261 0 -405 125l-111 -143h-166l189 248q-113 183 -113 559q0 133 15.5 239.5t57 205t108.5 164.5t174.5 105t250.5 39q260 0 410 -131l115 150h165z
M1012 1255q-106 109 -316 109q-105 0 -182 -27t-126.5 -75.5t-79.5 -126t-42 -168t-12 -211.5q0 -280 57 -418zM1145 756q0 242 -58 381l-700 -918q103 -106 309 -106q131 0 218.5 39.5t138 123.5t71.5 198.5t21 281.5z" />
    <glyph glyph-name="Ugrave" unicode="&#xd9;" horiz-adv-x="1417" 
d="M1296 606q0 -168 -42 -292.5t-121.5 -199.5t-184.5 -111t-239 -36t-239.5 36t-184.5 111t-121.5 199.5t-42.5 292.5v871h160v-871q0 -260 106 -377.5t320 -117.5q215 0 322.5 118t107.5 377v871h159v-871zM838 1614q0 -3 -9 -12l-49 -43q-9 -9 -16 -9t-23 13l-352 266
l125 125l307 -318q3 -3 7 -7.5t6 -6.5z" />
    <glyph glyph-name="Uacute" unicode="&#xda;" horiz-adv-x="1417" 
d="M1296 606q0 -168 -42 -292.5t-121.5 -199.5t-184.5 -111t-239 -36t-239.5 36t-184.5 111t-121.5 199.5t-42.5 292.5v871h160v-871q0 -260 106 -377.5t320 -117.5q215 0 322.5 118t107.5 377v871h159v-871zM1036 1829l-352 -266q-16 -13 -22 -13q-8 0 -17 9l-49 43
q-8 8 -8 12q0 6 16 22l307 318z" />
    <glyph glyph-name="Ucircumflex" unicode="&#xdb;" horiz-adv-x="1417" 
d="M1296 606q0 -168 -42 -292.5t-121.5 -199.5t-184.5 -111t-239 -36t-239.5 36t-184.5 111t-121.5 199.5t-42.5 292.5v871h160v-871q0 -260 106 -377.5t320 -117.5q215 0 322.5 118t107.5 377v871h159v-871zM1038 1618l-77 -70l-252 215l-252 -215l-78 70l274 283
q32 32 56 32q23 0 55 -32z" />
    <glyph glyph-name="Udieresis" unicode="&#xdc;" horiz-adv-x="1417" 
d="M1296 606q0 -168 -42 -292.5t-121.5 -199.5t-184.5 -111t-239 -36t-239.5 36t-184.5 111t-121.5 199.5t-42.5 292.5v871h160v-871q0 -260 106 -377.5t320 -117.5q215 0 322.5 118t107.5 377v871h159v-871zM1026 1661q0 -15 -3 -18t-15 -3h-152q-12 0 -15 3t-3 18v147
q0 17 3 20t15 3h152q12 0 15 -3t3 -20v-147zM578 1661q0 -15 -3 -18t-16 -3h-151q-14 0 -17.5 3t-3.5 18v147q0 17 3.5 20t17.5 3h151q9 0 12.5 -1t5 -5.5t1.5 -16.5v-147z" />
    <glyph glyph-name="Yacute" unicode="&#xdd;" horiz-adv-x="1312" 
d="M1264 1477l-527 -879v-598h-159v598l-529 879h176l406 -674q16 -29 26 -68q16 48 29 70l404 672h174zM971 1831l-353 -266q-16 -13 -22 -13q-7 0 -16 9l-50 43q-8 8 -8 12q0 5 17 22l307 318z" />
    <glyph glyph-name="Thorn" unicode="&#xde;" horiz-adv-x="1226" 
d="M1137 784q0 -98 -30 -179t-91 -145t-164.5 -100t-241.5 -36h-327q8 -40 8 -58v-266h-160v1477h160v-232h319q136 0 239.5 -36t165 -100t92 -145.5t30.5 -179.5zM973 784q0 159 -95 238.5t-268 79.5h-319v-635h319q178 0 270.5 75t92.5 242z" />
    <glyph glyph-name="germandbls" unicode="&#xdf;" horiz-adv-x="1247" 
d="M1139 438q0 -468 -574 -471v131q226 1 318 80t92 260q0 73 -27 128.5t-67 87.5t-95 52t-102.5 26.5t-97.5 6.5h-74v135h74q127 0 220 92.5t93 241.5q0 146 -71.5 211.5t-213.5 65.5q-159 0 -230 -65t-71 -212v-1208h-159v1208q0 200 117.5 304t342.5 104q125 0 216 -34.5
t140 -94.5t71 -129t22 -150q0 -56 -14 -112t-43 -110t-81 -99t-120 -72q160 -27 247 -127.5t87 -249.5z" />
    <glyph glyph-name="agrave" unicode="&#xe0;" horiz-adv-x="1150" 
d="M1010 0h-127l-27 98q-95 -73 -180 -102t-205 -29q-180 0 -276.5 92.5t-96.5 270.5q0 94 32 162.5t91 107.5t133 57.5t166 18.5q175 0 330 -47v182q0 58 -17.5 96.5t-52.5 58t-75 26.5t-97 7q-228 0 -315 -125l-125 76q59 99 179.5 141t260.5 42q92 0 162 -15.5
t125.5 -51.5t85 -100.5t29.5 -156.5v-809zM850 225v287q-11 2 -82.5 14t-122.5 17.5t-100 5.5q-283 0 -283 -219q0 -109 51.5 -170.5t157.5 -61.5q108 0 194 30.5t185 96.5zM743 1288q0 -4 -8 -12l-49 -43q-8 -8 -16 -8t-23 12l-352 266l125 125l307 -317q3 -3 6.5 -8
t5.5 -7z" />
    <glyph glyph-name="aacute" unicode="&#xe1;" horiz-adv-x="1150" 
d="M1010 0h-127l-27 98q-95 -73 -180 -102t-205 -29q-180 0 -276.5 92.5t-96.5 270.5q0 94 32 162.5t91 107.5t133 57.5t166 18.5q175 0 330 -47v182q0 58 -17.5 96.5t-52.5 58t-75 26.5t-97 7q-228 0 -315 -125l-125 76q59 99 179.5 141t260.5 42q92 0 162 -15.5
t125.5 -51.5t85 -100.5t29.5 -156.5v-809zM850 225v287q-11 2 -82.5 14t-122.5 17.5t-100 5.5q-283 0 -283 -219q0 -109 51.5 -170.5t157.5 -61.5q108 0 194 30.5t185 96.5zM932 1503l-352 -266q-15 -12 -23 -12t-16 8l-49 43q-9 9 -9 12q0 6 17 23l307 317z" />
    <glyph glyph-name="acircumflex" unicode="&#xe2;" horiz-adv-x="1150" 
d="M1010 0h-127l-27 98q-95 -73 -180 -102t-205 -29q-180 0 -276.5 92.5t-96.5 270.5q0 94 32 162.5t91 107.5t133 57.5t166 18.5q175 0 330 -47v182q0 58 -17.5 96.5t-52.5 58t-75 26.5t-97 7q-228 0 -315 -125l-125 76q59 99 179.5 141t260.5 42q92 0 162 -15.5
t125.5 -51.5t85 -100.5t29.5 -156.5v-809zM850 225v287q-11 2 -82.5 14t-122.5 17.5t-100 5.5q-283 0 -283 -219q0 -109 51.5 -170.5t157.5 -61.5q108 0 194 30.5t185 96.5zM905 1290l-78 -69l-252 215l-251 -215l-78 69l274 283q33 33 55 33q23 0 56 -33z" />
    <glyph glyph-name="atilde" unicode="&#xe3;" horiz-adv-x="1150" 
d="M1010 0h-127l-27 98q-95 -73 -180 -102t-205 -29q-180 0 -276.5 92.5t-96.5 270.5q0 94 32 162.5t91 107.5t133 57.5t166 18.5q175 0 330 -47v182q0 58 -17.5 96.5t-52.5 58t-75 26.5t-97 7q-228 0 -315 -125l-125 76q59 99 179.5 141t260.5 42q92 0 162 -15.5
t125.5 -51.5t85 -100.5t29.5 -156.5v-809zM850 225v287q-11 2 -82.5 14t-122.5 17.5t-100 5.5q-283 0 -283 -219q0 -109 51.5 -170.5t157.5 -61.5q108 0 194 30.5t185 96.5zM983 1497l-129 -201q-26 -43 -78 -43q-12 0 -24 3t-19 6.5t-21 11t-20 10.5l-186 96q-26 15 -45 15
q-20 0 -43 -27l-88 -106l-88 51l129 200q26 43 78 43q12 0 23.5 -3t18.5 -6t21 -10.5t20 -10.5l187 -96q26 -15 45 -15q20 0 43 27l88 106z" />
    <glyph glyph-name="adieresis" unicode="&#xe4;" horiz-adv-x="1150" 
d="M1010 0h-127l-27 98q-95 -73 -180 -102t-205 -29q-180 0 -276.5 92.5t-96.5 270.5q0 94 32 162.5t91 107.5t133 57.5t166 18.5q175 0 330 -47v182q0 58 -17.5 96.5t-52.5 58t-75 26.5t-97 7q-228 0 -315 -125l-125 76q59 99 179.5 141t260.5 42q92 0 162 -15.5
t125.5 -51.5t85 -100.5t29.5 -156.5v-809zM850 225v287q-11 2 -82.5 14t-122.5 17.5t-100 5.5q-283 0 -283 -219q0 -109 51.5 -170.5t157.5 -61.5q108 0 194 30.5t185 96.5zM915 1335q0 -15 -2.5 -17.5t-15.5 -2.5h-152q-13 0 -15.5 2.5t-2.5 17.5v148q0 16 2.5 19t15.5 3
h152h7t4.5 -0.5t3.5 -1.5t1.5 -4t1.5 -6.5v-9.5v-148zM467 1335q0 -15 -2.5 -17.5t-15.5 -2.5h-152h-9.5t-5.5 1t-4 3.5t-1.5 6t-0.5 9.5v148q0 16 3 19t18 3h152h7t4.5 -0.5t3.5 -1.5t1.5 -4t1.5 -6.5v-9.5v-148z" />
    <glyph glyph-name="aring" unicode="&#xe5;" horiz-adv-x="1150" 
d="M1010 0h-127l-27 98q-95 -73 -180 -102t-205 -29q-180 0 -276.5 92.5t-96.5 270.5q0 94 32 162.5t91 107.5t133 57.5t166 18.5q175 0 330 -47v182q0 58 -17.5 96.5t-52.5 58t-75 26.5t-97 7q-228 0 -315 -125l-125 76q59 99 179.5 141t260.5 42q92 0 162 -15.5
t125.5 -51.5t85 -100.5t29.5 -156.5v-809zM850 225v287q-11 2 -82.5 14t-122.5 17.5t-100 5.5q-283 0 -283 -219q0 -109 51.5 -170.5t157.5 -61.5q108 0 194 30.5t185 96.5zM819 1450q0 -92 -65.5 -157.5t-157.5 -65.5t-157.5 65.5t-65.5 157.5t65.5 157.5t157.5 65.5
t157.5 -65.5t65.5 -157.5zM723 1450q0 52 -37.5 89.5t-89.5 37.5q-53 0 -91 -37t-38 -90q0 -52 38.5 -90.5t90.5 -38.5q53 0 90 38t37 91z" />
    <glyph glyph-name="ae" unicode="&#xe6;" horiz-adv-x="1910" 
d="M1812 504h-804q0 -212 76.5 -308t263.5 -96q227 0 307 160l139 -55q-56 -119 -162 -178.5t-284 -59.5q-289 0 -408 176q-127 -97 -239.5 -136.5t-229.5 -39.5q-189 0 -281 97.5t-92 265.5q0 348 400 348q87 0 184.5 -14t163.5 -35v182q0 43 -8.5 73t-32.5 58.5t-74 42.5
t-125 14q-229 0 -315 -125l-123 76q54 92 169 137.5t269 45.5q267 0 359 -142q127 142 385 142q86 0 154.5 -16.5t116.5 -44.5t83 -71.5t55.5 -90t32.5 -109.5t16 -120t4 -130v-47zM1647 639q0 71 -7 123t-26.5 98.5t-52.5 76t-86 46t-125 16.5q-167 0 -249.5 -81
t-94.5 -279h641zM846 225v287q-19 3 -66 10.5t-78 12t-75 8.5t-80 4q-287 0 -287 -217q0 -123 59 -177.5t152 -54.5q109 0 192 30t183 97z" />
    <glyph glyph-name="ccedilla" unicode="&#xe7;" horiz-adv-x="1101" 
d="M1018 178q-76 -110 -173.5 -160.5t-232.5 -50.5h-4l-47 -57h39q110 0 161.5 -36.5t51.5 -123.5q0 -88 -51.5 -123t-161.5 -35q-115 0 -205 41l29 76q82 -26 176 -26q49 0 67.5 18t18.5 49q0 70 -86 70h-102l-56 92l50 63q-212 30 -303 173t-91 401q0 146 26.5 251.5
t86 181.5t159 113.5t242.5 37.5q142 0 235 -49.5t165 -153.5l-129 -66q-1 1 -8.5 11t-9 11.5t-8 10t-8.5 10.5t-8 9t-10 10t-9.5 8.5t-11 9.5t-11.5 8q-66 47 -187 47q-93 0 -156 -20.5t-108.5 -71t-66.5 -138t-21 -220.5q0 -174 37 -272t111.5 -137.5t203.5 -39.5
q59 0 103 10t77 33t53 43.5t48 57.5z" />
    <glyph glyph-name="egrave" unicode="&#xe8;" horiz-adv-x="1175" 
d="M1077 504h-809q6 -213 80.5 -308.5t261.5 -95.5q230 0 310 160l139 -55q-58 -119 -163.5 -178.5t-285.5 -59.5q-265 0 -388.5 139.5t-123.5 444.5q0 143 26.5 247.5t85.5 181t159 115t243 38.5q86 0 155 -16.5t117.5 -44.5t83.5 -71.5t56 -90t33 -109.5t16 -120t4 -130
v-47zM911 639q0 89 -12.5 150.5t-44.5 111.5t-92 74t-150 24q-167 0 -249.5 -81t-94.5 -279h643zM721 1288q0 -4 -8 -12l-49 -43q-8 -8 -17 -8q-7 0 -22 12l-353 266l125 125l308 -317q3 -3 6.5 -8t5.5 -7z" />
    <glyph glyph-name="eacute" unicode="&#xe9;" horiz-adv-x="1175" 
d="M1077 504h-809q6 -213 80.5 -308.5t261.5 -95.5q230 0 310 160l139 -55q-58 -119 -163.5 -178.5t-285.5 -59.5q-265 0 -388.5 139.5t-123.5 444.5q0 143 26.5 247.5t85.5 181t159 115t243 38.5q86 0 155 -16.5t117.5 -44.5t83.5 -71.5t56 -90t33 -109.5t16 -120t4 -130
v-47zM911 639q0 89 -12.5 150.5t-44.5 111.5t-92 74t-150 24q-167 0 -249.5 -81t-94.5 -279h643zM940 1503l-352 -266q-15 -12 -23 -12t-16 8l-49 43q-8 8 -8 12q0 7 16 23l307 317z" />
    <glyph glyph-name="ecircumflex" unicode="&#xea;" horiz-adv-x="1175" 
d="M1077 504h-809q6 -213 80.5 -308.5t261.5 -95.5q230 0 310 160l139 -55q-58 -119 -163.5 -178.5t-285.5 -59.5q-265 0 -388.5 139.5t-123.5 444.5q0 143 26.5 247.5t85.5 181t159 115t243 38.5q86 0 155 -16.5t117.5 -44.5t83.5 -71.5t56 -90t33 -109.5t16 -120t4 -130
v-47zM911 639q0 89 -12.5 150.5t-44.5 111.5t-92 74t-150 24q-167 0 -249.5 -81t-94.5 -279h643zM918 1290l-78 -69l-252 215l-252 -215l-78 69l274 283q33 33 56 33q22 0 55 -33z" />
    <glyph glyph-name="edieresis" unicode="&#xeb;" horiz-adv-x="1175" 
d="M932 1335q0 -13 -3.5 -15.5t-17.5 -2.5h-149q-14 0 -17.5 2.5t-3.5 15.5v150q0 12 4 16t17 4h149q13 0 17 -4t4 -16v-150zM483 1335q0 -13 -3 -15.5t-17 -2.5h-150q-14 0 -17 2.5t-3 15.5v150q0 12 3.5 16t16.5 4h150q13 0 16.5 -4t3.5 -16v-150zM1077 504h-809
q6 -213 80.5 -308.5t261.5 -95.5q230 0 310 160l139 -55q-58 -119 -163.5 -178.5t-285.5 -59.5q-265 0 -388.5 139.5t-123.5 444.5q0 143 26.5 247.5t85.5 181t159 115t243 38.5q86 0 155 -16.5t117.5 -44.5t83.5 -71.5t56 -90t33 -109.5t16 -120t4 -130v-47zM911 639
q0 89 -12.5 150.5t-44.5 111.5t-92 74t-150 24q-167 0 -249.5 -81t-94.5 -279h643z" />
    <glyph glyph-name="igrave" unicode="&#xec;" horiz-adv-x="442" 
d="M301 0h-160v1100h160v-1100zM375 1288q0 -4 -8 -12l-50 -43q-8 -8 -16 -8q-7 0 -22 12l-353 266l125 125l307 -317q3 -3 7 -8t6 -7z" />
    <glyph glyph-name="iacute" unicode="&#xed;" horiz-adv-x="442" 
d="M301 0h-160v1100h160v-1100zM528 1503l-352 -266q-15 -12 -22 -12q-9 0 -17 8l-49 43q-8 8 -8 12q0 7 16 23l307 317z" />
    <glyph glyph-name="icircumflex" unicode="&#xee;" horiz-adv-x="442" 
d="M301 0h-160v1100h160v-1100zM551 1290l-78 -69l-252 215l-252 -215l-78 69l275 283q33 33 55 33t55 -33z" />
    <glyph glyph-name="idieresis" unicode="&#xef;" horiz-adv-x="442" 
d="M301 0h-160v1100h160v-1100zM539 1335q0 -14 -3 -17t-16 -3h-151q-9 0 -12.5 1t-5 5t-1.5 14v148q0 16 3 19t16 3h151q10 0 12.5 -0.5t4.5 -5t2 -16.5v-148zM90 1335q0 -15 -3 -17.5t-15 -2.5h-152q-14 0 -17 2.5t-3 17.5v148q0 17 3 19.5t17 2.5h152h7t4.5 -0.5
t3.5 -1.5t1.5 -4t1.5 -6.5v-9.5v-148z" />
    <glyph glyph-name="eth" unicode="&#xf0;" horiz-adv-x="1181" 
d="M1083 549q0 -288 -116 -435t-377 -147t-376.5 147t-115.5 435t115.5 433.5t376.5 145.5q128 0 229 -41q-66 147 -231 267l-150 -121l-94 76l139 108q-117 65 -225 105l70 108q139 -50 268 -127l172 135l92 -75l-162 -125q98 -73 176 -170q209 -258 209 -719zM920 549
q0 47 -1 79.5t-4.5 74t-10.5 70.5t-19 62t-28.5 55t-41.5 44t-57 34.5t-74.5 20.5t-93.5 8q-180 0 -255 -101t-75 -347q0 -247 75 -349t255 -102t255 102t75 349z" />
    <glyph glyph-name="ntilde" unicode="&#xf1;" horiz-adv-x="1185" 
d="M1057 0h-160v705q0 86 -17 145.5t-50 91t-72 44.5t-92 13q-67 0 -121.5 -21.5t-134.5 -74.5l-109 -72v-831h-160v1100h127l35 -133l80 55q160 111 283 111q179 0 285 -103t106 -319v-711zM1004 1468l-130 -200q-26 -43 -77 -43q-12 0 -24 3t-18.5 6t-21.5 10.5t-20 10.5
l-187 97q-25 14 -45 14t-43 -27l-88 -106l-88 51l129 201q26 43 78 43q12 0 24 -3t19 -6.5t21 -11t20 -10.5l186 -96q26 -15 45 -15q20 0 43 27l88 107z" />
    <glyph glyph-name="ograve" unicode="&#xf2;" horiz-adv-x="1181" 
d="M1083 551q0 -288 -116 -436t-377 -148t-376.5 147.5t-115.5 436.5q0 288 115.5 435t376.5 147t377 -147t116 -435zM920 551q0 246 -75 347t-255 101t-255 -101t-75 -347q0 -247 75 -349t255 -102t255 102t75 349zM727 1288q0 -4 -8 -12l-49 -43q-8 -8 -17 -8q-7 0 -22 12
l-352 266l124 125l308 -317q3 -3 6.5 -8t5.5 -7z" />
    <glyph glyph-name="oacute" unicode="&#xf3;" horiz-adv-x="1181" 
d="M1083 551q0 -288 -116 -436t-377 -148t-376.5 147.5t-115.5 436.5q0 288 115.5 435t376.5 147t377 -147t116 -435zM920 551q0 246 -75 347t-255 101t-255 -101t-75 -347q0 -247 75 -349t255 -102t255 102t75 349zM903 1503l-352 -266q-15 -12 -23 -12t-16 8l-49 43
q-8 8 -8 12q0 7 16 23l307 317z" />
    <glyph glyph-name="ocircumflex" unicode="&#xf4;" horiz-adv-x="1181" 
d="M1083 551q0 -288 -116 -436t-377 -148t-376.5 147.5t-115.5 436.5q0 288 115.5 435t376.5 147t377 -147t116 -435zM920 551q0 246 -75 347t-255 101t-255 -101t-75 -347q0 -247 75 -349t255 -102t255 102t75 349zM920 1290l-78 -69l-252 215l-252 -215l-78 69l275 283
q33 33 55 33t55 -33z" />
    <glyph glyph-name="otilde" unicode="&#xf5;" horiz-adv-x="1181" 
d="M1083 551q0 -288 -116 -436t-377 -148t-376.5 147.5t-115.5 436.5q0 288 115.5 435t376.5 147t377 -147t116 -435zM920 551q0 246 -75 347t-255 101t-255 -101t-75 -347q0 -247 75 -349t255 -102t255 102t75 349zM961 1464l-130 -200q-26 -43 -77 -43q-12 0 -24 3
t-18.5 6t-21.5 10.5t-20 10.5l-187 97q-25 14 -45 14t-43 -27l-88 -106l-88 51l129 201q26 43 78 43q12 0 24 -3t19 -6.5t21 -11t20 -10.5l186 -96q26 -15 45 -15q20 0 43 27l88 107z" />
    <glyph glyph-name="odieresis" unicode="&#xf6;" horiz-adv-x="1181" 
d="M1083 551q0 -288 -116 -436t-377 -148t-376.5 147.5t-115.5 436.5q0 288 115.5 435t376.5 147t377 -147t116 -435zM920 551q0 246 -75 347t-255 101t-255 -101t-75 -347q0 -247 75 -349t255 -102t255 102t75 349zM907 1335q0 -15 -2.5 -17.5t-15.5 -2.5h-152
q-13 0 -15.5 2.5t-2.5 17.5v148q0 16 2.5 19t15.5 3h152h7t4.5 -0.5t3.5 -1.5t1.5 -4t1.5 -6.5v-9.5v-148zM459 1335q0 -14 -3 -17t-16 -3h-151h-9.5t-5.5 1t-4 3.5t-1.5 6t-0.5 9.5v148q0 16 3 19t18 3h151q10 0 12.5 -0.5t4.5 -5t2 -16.5v-148z" />
    <glyph glyph-name="divide" unicode="&#xf7;" 
d="M727 1358v-176q0 -10 -3 -12.5t-13 -2.5h-174q-12 0 -14.5 3.5t-2.5 15.5v172q0 10 3 13t14 3h174q11 0 13.5 -3t2.5 -13zM1120 659h-995v156h995v-156zM727 293v-176q0 -10 -3 -12.5t-13 -2.5h-174q-12 0 -14.5 3.5t-2.5 15.5v172q0 10 3 13t14 3h174q11 0 13.5 -2.5
t2.5 -13.5z" />
    <glyph glyph-name="oslash" unicode="&#xf8;" horiz-adv-x="1181" 
d="M1161 1133l-157 -195q81 -139 81 -387q0 -288 -116 -436t-377 -148q-195 0 -316 86l-73 -88h-166l151 187q-90 143 -90 399q0 288 116.5 435t377.5 147q208 0 326 -93l75 93h168zM823 924q-78 75 -231 75q-180 0 -256 -101t-76 -347q0 -162 35 -268zM922 551
q0 139 -31 254l-524 -639q80 -66 225 -66q179 0 254.5 102t75.5 349z" />
    <glyph glyph-name="ugrave" unicode="&#xf9;" horiz-adv-x="1185" 
d="M1044 0h-126l-35 133l-80 -55q-160 -111 -283 -111q-179 0 -285 103t-106 319v711h160v-705q0 -86 17 -146t50 -91.5t72 -44.5t92 -13q66 0 120.5 21.5t135.5 75.5l109 71v832h159v-1100zM707 1288q0 -3 -9 -12l-49 -43q-8 -8 -16 -8t-23 12l-352 266l125 125l307 -317
q3 -3 6.5 -8t5.5 -7q1 -2 2 -3.5t2 -2.5t1 -2z" />
    <glyph glyph-name="uacute" unicode="&#xfa;" horiz-adv-x="1185" 
d="M1044 0h-126l-35 133l-80 -55q-160 -111 -283 -111q-179 0 -285 103t-106 319v711h160v-705q0 -86 17 -146t50 -91.5t72 -44.5t92 -13q66 0 120.5 21.5t135.5 75.5l109 71v832h159v-1100zM905 1503l-352 -266q-15 -12 -23 -12t-16 8l-49 43q-8 8 -8 12q0 7 16 23l307 317
z" />
    <glyph glyph-name="ucircumflex" unicode="&#xfb;" horiz-adv-x="1185" 
d="M1044 0h-126l-35 133l-80 -55q-160 -111 -283 -111q-179 0 -285 103t-106 319v711h160v-705q0 -86 17 -146t50 -91.5t72 -44.5t92 -13q66 0 120.5 21.5t135.5 75.5l109 71v832h159v-1100zM922 1290l-78 -69l-252 215l-252 -215l-78 69l275 283q33 33 55 33t55 -33z" />
    <glyph glyph-name="udieresis" unicode="&#xfc;" horiz-adv-x="1185" 
d="M1044 0h-126l-35 133l-80 -55q-160 -111 -283 -111q-179 0 -285 103t-106 319v711h160v-705q0 -86 17 -146t50 -91.5t72 -44.5t92 -13q66 0 120.5 21.5t135.5 75.5l109 71v832h159v-1100zM909 1335q0 -15 -2.5 -17.5t-15.5 -2.5h-152q-13 0 -15.5 2.5t-2.5 17.5v148
q0 16 2.5 19t15.5 3h152h7t4.5 -0.5t3.5 -1.5t1.5 -4t1.5 -6.5v-9.5v-148zM461 1335q0 -14 -3 -17t-16 -3h-151h-9.5t-5.5 1t-4 3.5t-1.5 6t-0.5 9.5v148q0 16 3 19t18 3h151q10 0 12.5 -0.5t4.5 -5t2 -16.5v-148z" />
    <glyph glyph-name="yacute" unicode="&#xfd;" horiz-adv-x="1124" 
d="M1069 1100l-520 -1389q-43 -115 -117.5 -161t-214.5 -46h-141v144h141q93 0 127.5 25t63.5 104l71 194l-424 1129h168l303 -809q8 -21 37 -139q23 98 39 139l301 809h166zM903 1503l-352 -266q-15 -12 -23 -12t-16 8l-49 43q-8 8 -8 12q0 7 16 23l307 317z" />
    <glyph glyph-name="thorn" unicode="&#xfe;" horiz-adv-x="1200" 
d="M1102 571q0 -288 -127 -445t-389 -157q-74 0 -140.5 23.5t-144.5 77.5v-566h-160v2091h156v-614q102 79 176.5 114t153.5 35q240 0 357.5 -149.5t117.5 -409.5zM938 571q0 97 -15.5 172t-50.5 134t-96.5 90.5t-148.5 31.5q-52 0 -113.5 -24.5t-102 -50t-110.5 -74.5v-649
q138 -101 291 -101q180 0 263 116.5t83 354.5z" />
    <glyph glyph-name="ydieresis" unicode="&#xff;" horiz-adv-x="1124" 
d="M1069 1100l-520 -1389q-43 -115 -117.5 -161t-214.5 -46h-141v144h141q93 0 127.5 25t63.5 104l71 194l-424 1129h168l303 -809q8 -21 37 -139q23 98 39 139l301 809h166zM883 1335q0 -14 -3 -17t-16 -3h-151q-9 0 -12.5 1t-5 5t-1.5 14v148q0 16 3 19t16 3h151
q10 0 12.5 -0.5t4.5 -5t2 -16.5v-148zM434 1335q0 -15 -3 -17.5t-15 -2.5h-152q-14 0 -17 2.5t-3 17.5v148q0 17 3 19.5t17 2.5h152h7t4.5 -0.5t3.5 -1.5t1.5 -4t1.5 -6.5v-9.5v-148z" />
    <glyph glyph-name="Amacron" unicode="&#x100;" horiz-adv-x="1380" 
d="M1331 0h-170l-170 459h-608l-170 -459h-164l547 1477h190zM936 608l-205 559q-28 82 -43 148q-20 -89 -43 -148l-207 -559h498zM1028 1645h-676v137h676v-137z" />
    <glyph glyph-name="amacron" unicode="&#x101;" horiz-adv-x="1150" 
d="M1010 0h-127l-27 98q-95 -73 -180 -102t-205 -29q-180 0 -276.5 92.5t-96.5 270.5q0 94 32 162.5t91 107.5t133 57.5t166 18.5q175 0 330 -47v182q0 58 -17.5 96.5t-52.5 58t-75 26.5t-97 7q-228 0 -315 -125l-125 76q59 99 179.5 141t260.5 42q92 0 162 -15.5
t125.5 -51.5t85 -100.5t29.5 -156.5v-809zM850 225v287q-11 2 -82.5 14t-122.5 17.5t-100 5.5q-283 0 -283 -219q0 -109 51.5 -170.5t157.5 -61.5q108 0 194 30.5t185 96.5zM934 1323h-676v137h676v-137z" />
    <glyph glyph-name="Abreve" unicode="&#x102;" horiz-adv-x="1380" 
d="M1331 0h-170l-170 459h-608l-170 -459h-164l547 1477h190zM936 608l-205 559q-28 82 -43 148q-20 -89 -43 -148l-207 -559h498zM1020 1810q-58 -130 -133.5 -197t-196.5 -67t-198 67t-134 197l76 56q59 -100 114 -139t140 -39t141.5 38.5t114.5 139.5z" />
    <glyph glyph-name="abreve" unicode="&#x103;" horiz-adv-x="1150" 
d="M1010 0h-127l-27 98q-95 -73 -180 -102t-205 -29q-180 0 -276.5 92.5t-96.5 270.5q0 94 32 162.5t91 107.5t133 57.5t166 18.5q175 0 330 -47v182q0 58 -17.5 96.5t-52.5 58t-75 26.5t-97 7q-228 0 -315 -125l-125 76q59 99 179.5 141t260.5 42q92 0 162 -15.5
t125.5 -51.5t85 -100.5t29.5 -156.5v-809zM850 225v287q-11 2 -82.5 14t-122.5 17.5t-100 5.5q-283 0 -283 -219q0 -109 51.5 -170.5t157.5 -61.5q108 0 194 30.5t185 96.5zM905 1491q-58 -130 -133.5 -197t-196.5 -67t-197 67t-134 197l75 55q59 -100 114 -139t140 -39
t141.5 38.5t114.5 139.5z" />
    <glyph glyph-name="Aogonek" unicode="&#x104;" horiz-adv-x="1380" 
d="M1331 0l-194 -145q-29 -22 -42 -33.5t-26.5 -31.5t-13.5 -40q0 -31 23.5 -49t64.5 -18q94 0 176 26l29 -76q-90 -41 -205 -41q-106 0 -168 38.5t-62 136.5q0 86 136 170l110 67l-168 455h-608l-170 -459h-164l547 1477h190zM936 608l-205 559q-28 82 -43 148
q-20 -89 -43 -148l-207 -559h498z" />
    <glyph glyph-name="aogonek" unicode="&#x105;" horiz-adv-x="1150" 
d="M1010 0l-211 -143q-44 -32 -57 -50t-13 -40q0 -84 88 -84q94 0 176 26l29 -76q-90 -41 -205 -41q-106 0 -167.5 38.5t-61.5 136.5q0 47 23 82t100 77l166 92l-21 80q-95 -73 -180 -102t-205 -29q-180 0 -276.5 92.5t-96.5 270.5q0 94 32 162.5t91 107.5t133 57.5
t166 18.5q175 0 330 -47v182q0 58 -17.5 96.5t-52.5 58t-75 26.5t-97 7q-228 0 -315 -125l-125 76q59 99 179.5 141t260.5 42q92 0 162 -15.5t125.5 -51.5t85 -100.5t29.5 -156.5v-809zM850 225v287q-11 2 -82.5 14t-122.5 17.5t-100 5.5q-283 0 -283 -219
q0 -109 51.5 -170.5t157.5 -61.5q108 0 194 30.5t185 96.5z" />
    <glyph glyph-name="Cacute" unicode="&#x106;" horiz-adv-x="1292" 
d="M1202 264q-19 -44 -45 -83t-68.5 -79.5t-95.5 -69t-129 -47t-166 -18.5q-104 0 -189 20.5t-147.5 56.5t-110 91t-78 118.5t-49.5 144t-26.5 162.5t-7.5 179q0 150 18 266.5t60.5 213t110.5 159t169.5 97t235.5 34.5q105 0 190 -23.5t141 -62t95.5 -90.5t57.5 -106
t22 -111h-148q-15 111 -100.5 179.5t-259.5 68.5q-81 0 -144.5 -16.5t-108 -43.5t-76.5 -72.5t-50.5 -94t-29 -117t-14 -132t-3.5 -149.5q0 -78 3.5 -138.5t15 -128.5t31 -118t53 -97.5t79 -77.5t111.5 -48t149 -18q140 0 233.5 55t145.5 172zM983 1829l-352 -266
q-16 -13 -23 -13t-16 9l-49 43q-8 8 -8 12q0 6 16 22l307 318z" />
    <glyph glyph-name="cacute" unicode="&#x107;" horiz-adv-x="1101" 
d="M1018 178q-76 -110 -173.5 -160.5t-232.5 -50.5q-142 0 -242.5 38.5t-159.5 115t-85.5 181t-26.5 247.5q0 146 26.5 251.5t86 181.5t159 113.5t242.5 37.5q142 0 235 -49.5t165 -153.5l-129 -66q-1 1 -8.5 11t-9 11.5t-8 10t-8.5 10.5t-8 9t-10 10t-9.5 8.5t-11 9.5
t-11.5 8q-66 47 -187 47q-93 0 -156 -20.5t-108.5 -71t-66.5 -138t-21 -220.5q0 -174 37 -272t111.5 -137.5t203.5 -39.5q59 0 103 10t77 33t53 43.5t48 57.5zM901 1503l-352 -266q-15 -12 -23 -12t-16 8l-49 43q-8 8 -8 12q0 7 16 23l307 317z" />
    <glyph glyph-name="Ccircumflex" unicode="&#x108;" horiz-adv-x="1292" 
d="M1202 264q-19 -44 -45 -83t-68.5 -79.5t-95.5 -69t-129 -47t-166 -18.5q-104 0 -189 20.5t-147.5 56.5t-110 91t-78 118.5t-49.5 144t-26.5 162.5t-7.5 179q0 150 18 266.5t60.5 213t110.5 159t169.5 97t235.5 34.5q105 0 190 -23.5t141 -62t95.5 -90.5t57.5 -106
t22 -111h-148q-15 111 -100.5 179.5t-259.5 68.5q-81 0 -144.5 -16.5t-108 -43.5t-76.5 -72.5t-50.5 -94t-29 -117t-14 -132t-3.5 -149.5q0 -78 3.5 -138.5t15 -128.5t31 -118t53 -97.5t79 -77.5t111.5 -48t149 -18q140 0 233.5 55t145.5 172zM975 1620l-78 -70l-252 215
l-252 -215l-78 70l275 283q32 32 55 32t55 -32z" />
    <glyph glyph-name="ccircumflex" unicode="&#x109;" horiz-adv-x="1101" 
d="M1018 178q-76 -110 -173.5 -160.5t-232.5 -50.5q-142 0 -242.5 38.5t-159.5 115t-85.5 181t-26.5 247.5q0 146 26.5 251.5t86 181.5t159 113.5t242.5 37.5q142 0 235 -49.5t165 -153.5l-129 -66q-1 1 -8.5 11t-9 11.5t-8 10t-8.5 10.5t-8 9t-10 10t-9.5 8.5t-11 9.5
t-11.5 8q-66 47 -187 47q-93 0 -156 -20.5t-108.5 -71t-66.5 -138t-21 -220.5q0 -174 37 -272t111.5 -137.5t203.5 -39.5q59 0 103 10t77 33t53 43.5t48 57.5zM920 1290l-78 -69l-252 215l-252 -215l-78 69l275 283q33 33 55 33t55 -33z" />
    <glyph glyph-name="Cdotaccent" unicode="&#x10a;" horiz-adv-x="1292" 
d="M1202 264q-19 -44 -45 -83t-68.5 -79.5t-95.5 -69t-129 -47t-166 -18.5q-104 0 -189 20.5t-147.5 56.5t-110 91t-78 118.5t-49.5 144t-26.5 162.5t-7.5 179q0 150 18 266.5t60.5 213t110.5 159t169.5 97t235.5 34.5q105 0 190 -23.5t141 -62t95.5 -90.5t57.5 -106
t22 -111h-148q-15 111 -100.5 179.5t-259.5 68.5q-81 0 -144.5 -16.5t-108 -43.5t-76.5 -72.5t-50.5 -94t-29 -117t-14 -132t-3.5 -149.5q0 -78 3.5 -138.5t15 -128.5t31 -118t53 -97.5t79 -77.5t111.5 -48t149 -18q140 0 233.5 55t145.5 172zM772 1665q0 -13 -3 -16.5
t-15 -3.5h-187q-12 0 -15 3.5t-3 16.5v180q0 17 2.5 20t15.5 3h187q14 0 16 -3t2 -20v-180z" />
    <glyph glyph-name="cdotaccent" unicode="&#x10b;" horiz-adv-x="1101" 
d="M1018 178q-76 -110 -173.5 -160.5t-232.5 -50.5q-142 0 -242.5 38.5t-159.5 115t-85.5 181t-26.5 247.5q0 146 26.5 251.5t86 181.5t159 113.5t242.5 37.5q142 0 235 -49.5t165 -153.5l-129 -66q-1 1 -8.5 11t-9 11.5t-8 10t-8.5 10.5t-8 9t-10 10t-9.5 8.5t-11 9.5
t-11.5 8q-66 47 -187 47q-93 0 -156 -20.5t-108.5 -71t-66.5 -138t-21 -220.5q0 -174 37 -272t111.5 -137.5t203.5 -39.5q59 0 103 10t77 33t53 43.5t48 57.5zM702 1341q0 -13 -3 -16.5t-15 -3.5h-186q-12 0 -15.5 3.5t-3.5 16.5v181q0 17 2.5 19.5t16.5 2.5h186
q14 0 16 -2.5t2 -19.5v-181z" />
    <glyph glyph-name="Ccaron" unicode="&#x10c;" horiz-adv-x="1292" 
d="M1202 264q-19 -44 -45 -83t-68.5 -79.5t-95.5 -69t-129 -47t-166 -18.5q-104 0 -189 20.5t-147.5 56.5t-110 91t-78 118.5t-49.5 144t-26.5 162.5t-7.5 179q0 150 18 266.5t60.5 213t110.5 159t169.5 97t235.5 34.5q105 0 190 -23.5t141 -62t95.5 -90.5t57.5 -106
t22 -111h-148q-15 111 -100.5 179.5t-259.5 68.5q-81 0 -144.5 -16.5t-108 -43.5t-76.5 -72.5t-50.5 -94t-29 -117t-14 -132t-3.5 -149.5q0 -78 3.5 -138.5t15 -128.5t31 -118t53 -97.5t79 -77.5t111.5 -48t149 -18q140 0 233.5 55t145.5 172zM1001 1868l-274 -283
q-35 -35 -55 -35q-25 0 -54 31l-276 287l78 55l252 -199l252 211z" />
    <glyph glyph-name="ccaron" unicode="&#x10d;" horiz-adv-x="1101" 
d="M1018 178q-76 -110 -173.5 -160.5t-232.5 -50.5q-142 0 -242.5 38.5t-159.5 115t-85.5 181t-26.5 247.5q0 146 26.5 251.5t86 181.5t159 113.5t242.5 37.5q142 0 235 -49.5t165 -153.5l-129 -66q-1 1 -8.5 11t-9 11.5t-8 10t-8.5 10.5t-8 9t-10 10t-9.5 8.5t-11 9.5
t-11.5 8q-66 47 -187 47q-93 0 -156 -20.5t-108.5 -71t-66.5 -138t-21 -220.5q0 -174 37 -272t111.5 -137.5t203.5 -39.5q59 0 103 10t77 33t53 43.5t48 57.5zM930 1542l-275 -282q-35 -35 -55 -35q-25 0 -53 30l-277 287l78 55l252 -198l252 211z" />
    <glyph glyph-name="Dcaron" unicode="&#x10e;" horiz-adv-x="1339" 
d="M1270 756q0 -130 -24 -241t-78.5 -207t-137 -163.5t-205 -106t-276.5 -38.5h-418v1477h418q189 0 330 -53.5t225.5 -152t125 -227t40.5 -288.5zM1106 756q0 293 -137.5 435t-419.5 142h-258v-1190h258q282 0 419.5 153t137.5 460zM928 1870l-275 -283q-35 -35 -55 -35
q-24 0 -53 31l-277 287l78 55l252 -199l252 211z" />
    <glyph glyph-name="dcaron" unicode="&#x10f;" horiz-adv-x="1431" 
d="M1057 0h-101l-43 90q-151 -123 -307 -123q-81 0 -152 17.5t-137.5 60t-114 107.5t-76 166.5t-28.5 230.5q0 584 486 584q80 0 169.5 -33t161.5 -82q-18 39 -18 92v485h160v-1595zM897 217v678q-8 4 -48.5 23t-53.5 25t-47.5 20t-55 19t-50.5 10t-58 5q-168 0 -245 -107
t-77 -341q0 -451 344 -451q120 0 291 119zM1534 1599l-125 -479q-4 -18 -10.5 -23t-20.5 -5h-57q-21 0 -21 18v10l70 479h164z" />
    <glyph glyph-name="Dcroat" unicode="&#x110;" horiz-adv-x="1339" 
d="M1270 756q0 -130 -24 -241t-78.5 -207t-137 -163.5t-205 -106t-276.5 -38.5h-418v707h-176v139h176v631h418q189 0 330 -53.5t225.5 -152t125 -227t40.5 -288.5zM1106 756q0 293 -137.5 435t-419.5 142h-258v-487h260l-41 -139h-219v-564h258q282 0 419.5 153t137.5 460z
" />
    <glyph glyph-name="dcroat" unicode="&#x111;" horiz-adv-x="1198" 
d="M1057 0h-101l-43 90q-151 -123 -307 -123q-81 0 -152 17.5t-137.5 60t-114 107.5t-76 166.5t-28.5 230.5q0 584 486 584q80 0 169.5 -33t161.5 -82q-18 39 -18 92v150h-410v141h410v194h160v-194h108v-141h-108v-1260zM897 217v678q-8 4 -48.5 23t-53.5 25t-47.5 20
t-55 19t-50.5 10t-58 5q-168 0 -245 -107t-77 -341q0 -451 344 -451q120 0 291 119z" />
    <glyph glyph-name="Emacron" unicode="&#x112;" horiz-adv-x="1165" 
d="M1075 0h-944v1477h942v-144h-782v-481h698l-41 -145h-669q12 -45 12 -82v-482h784v-143zM952 1645h-676v137h676v-137z" />
    <glyph glyph-name="emacron" unicode="&#x113;" horiz-adv-x="1175" 
d="M1077 504h-809q6 -213 80.5 -308.5t261.5 -95.5q230 0 310 160l139 -55q-58 -119 -163.5 -178.5t-285.5 -59.5q-265 0 -388.5 139.5t-123.5 444.5q0 143 26.5 247.5t85.5 181t159 115t243 38.5q86 0 155 -16.5t117.5 -44.5t83.5 -71.5t56 -90t33 -109.5t16 -120t4 -130
v-47zM911 639q0 89 -12.5 150.5t-44.5 111.5t-92 74t-150 24q-167 0 -249.5 -81t-94.5 -279h643zM926 1321h-676v137h676v-137z" />
    <glyph glyph-name="Ebreve" unicode="&#x114;" horiz-adv-x="1165" 
d="M1075 0h-944v1477h942v-144h-782v-481h698l-41 -145h-669q12 -45 12 -82v-482h784v-143zM954 1817q-58 -131 -133 -198t-196 -67t-197.5 67.5t-134.5 197.5l76 55q59 -100 114 -139t140 -39t141.5 38.5t114.5 139.5z" />
    <glyph glyph-name="ebreve" unicode="&#x115;" horiz-adv-x="1175" 
d="M1077 504h-809q6 -213 80.5 -308.5t261.5 -95.5q230 0 310 160l139 -55q-58 -119 -163.5 -178.5t-285.5 -59.5q-265 0 -388.5 139.5t-123.5 444.5q0 143 26.5 247.5t85.5 181t159 115t243 38.5q86 0 155 -16.5t117.5 -44.5t83.5 -71.5t56 -90t33 -109.5t16 -120t4 -130
v-47zM911 639q0 89 -12.5 150.5t-44.5 111.5t-92 74t-150 24q-167 0 -249.5 -81t-94.5 -279h643zM918 1538q-58 -130 -133.5 -197t-196.5 -67t-198 67t-134 197l76 55q59 -100 114 -139t140 -39t141.5 38.5t114.5 139.5z" />
    <glyph glyph-name="Edotaccent" unicode="&#x116;" horiz-adv-x="1165" 
d="M1075 0h-944v1477h942v-144h-782v-481h698l-41 -145h-669q12 -45 12 -82v-482h784v-143zM733 1665q0 -13 -3 -16.5t-15 -3.5h-187q-12 0 -15 3.5t-3 16.5v180q0 17 2 20t16 3h187q13 0 15.5 -3t2.5 -20v-180z" />
    <glyph glyph-name="edotaccent" unicode="&#x117;" horiz-adv-x="1175" 
d="M1077 504h-809q6 -213 80.5 -308.5t261.5 -95.5q230 0 310 160l139 -55q-58 -119 -163.5 -178.5t-285.5 -59.5q-265 0 -388.5 139.5t-123.5 444.5q0 143 26.5 247.5t85.5 181t159 115t243 38.5q86 0 155 -16.5t117.5 -44.5t83.5 -71.5t56 -90t33 -109.5t16 -120t4 -130
v-47zM911 639q0 89 -12.5 150.5t-44.5 111.5t-92 74t-150 24q-167 0 -249.5 -81t-94.5 -279h643zM709 1337q0 -13 -3.5 -16.5t-15.5 -3.5h-186q-12 0 -15.5 3.5t-3.5 16.5v181q0 17 2.5 19.5t16.5 2.5h186q14 0 16.5 -2.5t2.5 -19.5v-181z" />
    <glyph glyph-name="Eogonek" unicode="&#x118;" horiz-adv-x="1165" 
d="M1075 0h-90l-168 -166q-29 -29 -29 -67q0 -84 89 -84q94 0 176 26l28 -76q-90 -41 -204 -41q-106 0 -168 38.5t-62 136.5q0 39 16 67.5t54 63.5l112 102h-698v1477h942v-144h-782v-481h698l-41 -145h-669q12 -45 12 -82v-482h784v-143z" />
    <glyph glyph-name="eogonek" unicode="&#x119;" horiz-adv-x="1175" 
d="M928 43l-219 -209q-29 -29 -29 -67q0 -84 88 -84q94 0 176 26l29 -76q-90 -41 -205 -41q-106 0 -167.5 38.5t-61.5 136.5q0 39 15.5 67.5t53.5 63.5l80 73q-50 -4 -78 -4q-265 0 -388.5 139.5t-123.5 444.5q0 143 26.5 247.5t85.5 181t159 115t243 38.5q86 0 155 -16.5
t117.5 -44.5t83.5 -71.5t56 -90t33 -109.5t16 -120t4 -130v-47h-809q6 -213 80.5 -308.5t261.5 -95.5q230 0 310 160l139 -55q-51 -108 -131 -162zM911 639q0 89 -12.5 150.5t-44.5 111.5t-92 74t-150 24q-167 0 -249.5 -81t-94.5 -279h643z" />
    <glyph glyph-name="Ecaron" unicode="&#x11a;" horiz-adv-x="1165" 
d="M1075 0h-944v1477h942v-144h-782v-481h698l-41 -145h-669q12 -45 12 -82v-482h784v-143zM952 1870l-274 -283q-35 -35 -55 -35q-25 0 -54 31l-276 287l78 55l252 -199l251 211z" />
    <glyph glyph-name="ecaron" unicode="&#x11b;" horiz-adv-x="1175" 
d="M1077 504h-809q6 -213 80.5 -308.5t261.5 -95.5q230 0 310 160l139 -55q-58 -119 -163.5 -178.5t-285.5 -59.5q-265 0 -388.5 139.5t-123.5 444.5q0 143 26.5 247.5t85.5 181t159 115t243 38.5q86 0 155 -16.5t117.5 -44.5t83.5 -71.5t56 -90t33 -109.5t16 -120t4 -130
v-47zM911 639q0 89 -12.5 150.5t-44.5 111.5t-92 74t-150 24q-167 0 -249.5 -81t-94.5 -279h643zM918 1571l-275 -283q-35 -35 -55 -35q-24 0 -53 31l-277 287l78 55l252 -199l252 211z" />
    <glyph glyph-name="Gcircumflex" unicode="&#x11c;" horiz-adv-x="1363" 
d="M1233 170q-48 -41 -88 -69.5t-104.5 -63t-145.5 -52.5t-174 -18q-149 0 -259.5 35.5t-181.5 99t-113.5 162.5t-59.5 212.5t-17 262.5q0 194 31.5 332.5t103.5 239t194.5 149.5t299.5 49q105 0 190.5 -23.5t142 -62t96.5 -90.5t58.5 -106t22.5 -111h-148
q-15 111 -101.5 179.5t-260.5 68.5q-81 0 -145.5 -13t-113.5 -37.5t-84 -64.5t-58.5 -88.5t-37.5 -115t-20 -140t-6 -166.5q0 -126 10.5 -216.5t40 -172t80.5 -131t134 -78t198 -28.5q106 0 184.5 26.5t171.5 89.5v318q0 16 6 41l6 26h-391l-39 142h578v-586zM1053 1620
l-78 -70l-252 215l-252 -215l-78 70l275 283q32 32 55 32t55 -32z" />
    <glyph glyph-name="gcircumflex" unicode="&#x11d;" horiz-adv-x="1214" 
d="M1161 1133l-28 -158h-80q-57 0 -103 14q46 -52 68 -117.5t22 -126.5q0 -191 -111 -283.5t-339 -92.5q-33 0 -127 12q-8 1 -24.5 4.5t-29.5 5.5t-24 2q-47 0 -69.5 -23.5t-22.5 -62.5q0 -61 78 -76l454 -79q87 -16 146 -45.5t89 -71.5t42 -86t12 -99q0 -344 -526 -344
q-69 0 -125 5t-120 17.5t-112 39t-88.5 65.5t-62 101t-21.5 141q0 177 156 291q-68 57 -68 143q0 98 113 156q-64 59 -92.5 126t-28.5 154q0 100 36 176.5t99.5 121.5t142.5 67.5t173 22.5q172 0 291 -66l170 66h110zM877 745q0 126 -73 191t-214 65q-287 0 -287 -256
q0 -71 21.5 -120.5t62.5 -76.5t90 -38.5t113 -11.5q146 0 216.5 53t70.5 194zM950 -150q0 75 -34.5 118.5t-112.5 56.5l-471 84q-109 -72 -109 -234q0 -134 89 -189t276 -55q193 0 277.5 56.5t84.5 162.5zM936 1290l-78 -69l-252 215l-252 -215l-78 69l275 283q33 33 55 33
q23 0 56 -33z" />
    <glyph glyph-name="Gbreve" unicode="&#x11e;" horiz-adv-x="1363" 
d="M1233 170q-48 -41 -88 -69.5t-104.5 -63t-145.5 -52.5t-174 -18q-149 0 -259.5 35.5t-181.5 99t-113.5 162.5t-59.5 212.5t-17 262.5q0 194 31.5 332.5t103.5 239t194.5 149.5t299.5 49q105 0 190.5 -23.5t142 -62t96.5 -90.5t58.5 -106t22.5 -111h-148
q-15 111 -101.5 179.5t-260.5 68.5q-81 0 -145.5 -13t-113.5 -37.5t-84 -64.5t-58.5 -88.5t-37.5 -115t-20 -140t-6 -166.5q0 -126 10.5 -216.5t40 -172t80.5 -131t134 -78t198 -28.5q106 0 184.5 26.5t171.5 89.5v318q0 16 6 41l6 26h-391l-39 142h578v-586zM1032 1815
q-38 -85 -78.5 -140t-104.5 -90t-147 -35q-121 0 -197 67.5t-134 197.5l75 55q59 -100 114 -139t140 -39t141.5 38.5t114.5 139.5z" />
    <glyph glyph-name="gbreve" unicode="&#x11f;" horiz-adv-x="1214" 
d="M1161 1133l-28 -158h-80q-57 0 -103 14q46 -52 68 -117.5t22 -126.5q0 -191 -111 -283.5t-339 -92.5q-33 0 -127 12q-8 1 -24.5 4.5t-29.5 5.5t-24 2q-47 0 -69.5 -23.5t-22.5 -62.5q0 -61 78 -76l454 -79q87 -16 146 -45.5t89 -71.5t42 -86t12 -99q0 -344 -526 -344
q-69 0 -125 5t-120 17.5t-112 39t-88.5 65.5t-62 101t-21.5 141q0 177 156 291q-68 57 -68 143q0 98 113 156q-64 59 -92.5 126t-28.5 154q0 100 36 176.5t99.5 121.5t142.5 67.5t173 22.5q172 0 291 -66l170 66h110zM877 745q0 126 -73 191t-214 65q-287 0 -287 -256
q0 -71 21.5 -120.5t62.5 -76.5t90 -38.5t113 -11.5q146 0 216.5 53t70.5 194zM950 -150q0 75 -34.5 118.5t-112.5 56.5l-471 84q-109 -72 -109 -234q0 -134 89 -189t276 -55q193 0 277.5 56.5t84.5 162.5zM938 1538q-58 -130 -133.5 -197t-196.5 -67t-198 67t-134 197l76 55
q59 -100 114 -139t140 -39t141.5 38.5t114.5 139.5z" />
    <glyph glyph-name="Gdotaccent" unicode="&#x120;" horiz-adv-x="1363" 
d="M1233 170q-48 -41 -88 -69.5t-104.5 -63t-145.5 -52.5t-174 -18q-149 0 -259.5 35.5t-181.5 99t-113.5 162.5t-59.5 212.5t-17 262.5q0 194 31.5 332.5t103.5 239t194.5 149.5t299.5 49q105 0 190.5 -23.5t142 -62t96.5 -90.5t58.5 -106t22.5 -111h-148
q-15 111 -101.5 179.5t-260.5 68.5q-81 0 -145.5 -13t-113.5 -37.5t-84 -64.5t-58.5 -88.5t-37.5 -115t-20 -140t-6 -166.5q0 -126 10.5 -216.5t40 -172t80.5 -131t134 -78t198 -28.5q106 0 184.5 26.5t171.5 89.5v318q0 16 6 41l6 26h-391l-39 142h578v-586zM813 1665
q0 -13 -3 -16.5t-15 -3.5h-187q-12 0 -15 3.5t-3 16.5v180q0 17 2 20t16 3h187q13 0 15.5 -3t2.5 -20v-180z" />
    <glyph glyph-name="gdotaccent" unicode="&#x121;" horiz-adv-x="1214" 
d="M1161 1133l-28 -158h-80q-57 0 -103 14q46 -52 68 -117.5t22 -126.5q0 -191 -111 -283.5t-339 -92.5q-33 0 -127 12q-8 1 -24.5 4.5t-29.5 5.5t-24 2q-47 0 -69.5 -23.5t-22.5 -62.5q0 -61 78 -76l454 -79q87 -16 146 -45.5t89 -71.5t42 -86t12 -99q0 -344 -526 -344
q-69 0 -125 5t-120 17.5t-112 39t-88.5 65.5t-62 101t-21.5 141q0 177 156 291q-68 57 -68 143q0 98 113 156q-64 59 -92.5 126t-28.5 154q0 100 36 176.5t99.5 121.5t142.5 67.5t173 22.5q172 0 291 -66l170 66h110zM877 745q0 126 -73 191t-214 65q-287 0 -287 -256
q0 -71 21.5 -120.5t62.5 -76.5t90 -38.5t113 -11.5q146 0 216.5 53t70.5 194zM950 -150q0 75 -34.5 118.5t-112.5 56.5l-471 84q-109 -72 -109 -234q0 -134 89 -189t276 -55q193 0 277.5 56.5t84.5 162.5zM719 1337q0 -13 -3.5 -16.5t-15.5 -3.5h-186q-12 0 -15 3.5t-3 16.5
v181q0 17 2 19.5t16 2.5h186q14 0 16.5 -2.5t2.5 -19.5v-181z" />
    <glyph glyph-name="Gcommaaccent" unicode="&#x122;" horiz-adv-x="1363" 
d="M1233 170q-48 -41 -88 -69.5t-104.5 -63t-145.5 -52.5t-174 -18q-149 0 -259.5 35.5t-181.5 99t-113.5 162.5t-59.5 212.5t-17 262.5q0 194 31.5 332.5t103.5 239t194.5 149.5t299.5 49q105 0 190.5 -23.5t142 -62t96.5 -90.5t58.5 -106t22.5 -111h-148
q-15 111 -101.5 179.5t-260.5 68.5q-81 0 -145.5 -13t-113.5 -37.5t-84 -64.5t-58.5 -88.5t-37.5 -115t-20 -140t-6 -166.5q0 -126 10.5 -216.5t40 -172t80.5 -131t134 -78t198 -28.5q106 0 184.5 26.5t171.5 89.5v318q0 16 6 41l6 26h-391l-39 142h578v-586zM713 -545
l-82 58q49 76 49 184h-70q-12 0 -15 3.5t-3 16.5v174q0 15 3 19t15 4h185q12 0 15 -4t3 -19v-174q0 -141 -100 -262z" />
    <glyph glyph-name="gcommaaccent" unicode="&#x123;" horiz-adv-x="1214" 
d="M1161 1133l-28 -158h-80q-57 0 -103 14q46 -52 68 -117.5t22 -126.5q0 -191 -111 -283.5t-339 -92.5q-33 0 -127 12q-8 1 -24.5 4.5t-29.5 5.5t-24 2q-47 0 -69.5 -23.5t-22.5 -62.5q0 -61 78 -76l454 -79q87 -16 146 -45.5t89 -71.5t42 -86t12 -99q0 -344 -526 -344
q-69 0 -125 5t-120 17.5t-112 39t-88.5 65.5t-62 101t-21.5 141q0 177 156 291q-68 57 -68 143q0 98 113 156q-64 59 -92.5 126t-28.5 154q0 100 36 176.5t99.5 121.5t142.5 67.5t173 22.5q172 0 291 -66l170 66h110zM877 745q0 126 -73 191t-214 65q-287 0 -287 -256
q0 -71 21.5 -120.5t62.5 -76.5t90 -38.5t113 -11.5q146 0 216.5 53t70.5 194zM950 -150q0 75 -34.5 118.5t-112.5 56.5l-471 84q-109 -72 -109 -234q0 -134 89 -189t276 -55q193 0 277.5 56.5t84.5 162.5zM709 1278q0 -15 -4.5 -20t-16.5 -5h-162q-22 0 -22 25v108
q0 137 92 252l84 -22q-66 -86 -66 -195h74q12 0 16.5 -4.5t4.5 -17.5v-121z" />
    <glyph glyph-name="Hcircumflex" unicode="&#x124;" horiz-adv-x="1423" 
d="M1292 0h-159v707h-842v-707h-160v1477h160v-619h842v619h159v-1477zM1040 1618l-77 -70l-252 215l-252 -215l-78 70l274 283q32 32 56 32q23 0 55 -32z" />
    <glyph glyph-name="hcircumflex" unicode="&#x125;" horiz-adv-x="1187" 
d="M1057 0h-160v705q0 86 -17 145.5t-50 91t-72 44.5t-92 13q-67 0 -121.5 -21.5t-134.5 -74.5l-109 -72v-831h-160v1595h158v-569q0 -31 -16 -74l100 70q160 111 283 111q179 0 285 -103t106 -319v-711zM924 1645l-78 -70l-252 215l-252 -215l-78 70l275 282q33 33 55 33
t55 -33z" />
    <glyph glyph-name="Hbar" unicode="&#x126;" horiz-adv-x="1423" 
d="M1292 0h-159v707h-842v-707h-160v1085h-131v152h131v240h160v-240h842v240h159v-240h131v-152h-131v-1085zM291 858h842v227h-842v-227z" />
    <glyph glyph-name="hbar" unicode="&#x127;" horiz-adv-x="1187" 
d="M709 1260h-410v-234q0 -31 -16 -74l100 70q160 111 283 111q179 0 285 -103t106 -319v-711h-160v705q0 86 -17 145.5t-50 91t-72 44.5t-92 13q-67 0 -121.5 -21.5t-134.5 -74.5l-109 -72v-831h-160v1260h-110v141h110v194h158v-194h410v-141z" />
    <glyph glyph-name="Itilde" unicode="&#x128;" horiz-adv-x="421" 
d="M291 0h-160v1477h160v-1477zM582 1786l-129 -201q-26 -43 -78 -43q-12 0 -24 3t-19 6.5t-21 11t-20 10.5l-187 96q-25 14 -45 14q-21 0 -43 -26l-88 -107l-88 52l129 200q26 43 78 43q12 0 24 -3t18.5 -6t21.5 -10.5t20 -10.5l186 -97q24 -14 45 -14t44 27l88 106z" />
    <glyph glyph-name="itilde" unicode="&#x129;" horiz-adv-x="442" 
d="M301 0h-160v1100h160v-1100zM592 1468l-129 -200q-26 -43 -78 -43q-12 0 -24 3t-18.5 6t-21.5 10.5t-20 10.5l-186 97q-24 14 -45 14q-20 0 -43 -27l-88 -106l-89 51l130 201q26 43 77 43q12 0 24 -3t19 -6.5t21 -11t20 -10.5l187 -96q26 -15 45 -15q20 0 43 27l88 107z
" />
    <glyph glyph-name="Imacron" unicode="&#x12a;" horiz-adv-x="421" 
d="M291 0h-160v1477h160v-1477zM545 1645h-676v137h676v-137z" />
    <glyph glyph-name="imacron" unicode="&#x12b;" horiz-adv-x="442" 
d="M301 0h-160v1100h160v-1100zM559 1317h-676v137h676v-137z" />
    <glyph glyph-name="Ibreve" unicode="&#x12c;" horiz-adv-x="421" 
d="M291 0h-160v1477h160v-1477zM543 1812q-58 -130 -133.5 -197t-196.5 -67t-198 67t-134 197l76 56q59 -100 114 -139t140 -39t141.5 38.5t114.5 139.5z" />
    <glyph glyph-name="ibreve" unicode="&#x12d;" horiz-adv-x="442" 
d="M301 0h-160v1100h160v-1100zM553 1538q-58 -130 -133.5 -197t-196.5 -67t-198 67t-134 197l76 55q59 -100 114 -139t140 -39t141.5 38.5t114.5 139.5z" />
    <glyph glyph-name="Iogonek" unicode="&#x12e;" horiz-adv-x="421" 
d="M291 0l-103 -111q-53 -53 -53 -122q0 -84 88 -84q94 0 176 26l29 -76q-90 -41 -205 -41q-106 0 -167.5 38.5t-61.5 136.5q0 39 23 88t59 86l55 59v1477h160v-1477z" />
    <glyph glyph-name="iogonek" unicode="&#x12f;" horiz-adv-x="442" 
d="M319 1415q0 -10 -2.5 -13t-11.5 -3h-166q-10 0 -12 2.5t-2 13.5v160q0 12 2.5 16t11.5 4h166q9 0 11.5 -3.5t2.5 -16.5v-160zM301 0l-94 -100q-36 -38 -49 -64.5t-13 -62.5q0 -90 88 -90q95 0 177 26l28 -76q-90 -41 -205 -41q-106 0 -167.5 38.5t-61.5 136.5q0 43 20 91
t60 87l57 55v1100h160v-1100z" />
    <glyph glyph-name="Idotaccent" unicode="&#x130;" horiz-adv-x="421" 
d="M291 0h-160v1477h160v-1477zM324 1665q0 -13 -3.5 -16.5t-15.5 -3.5h-186q-12 0 -15.5 3.5t-3.5 16.5v180q0 17 2.5 20t16.5 3h186q14 0 16.5 -3t2.5 -20v-180z" />
    <glyph glyph-name="dotlessi" unicode="&#x131;" horiz-adv-x="442" 
d="M301 0h-160v1100h160v-1100z" />
    <glyph glyph-name="IJ" unicode="&#x132;" horiz-adv-x="1298" 
d="M291 0h-160v1477h160v-1477zM1167 424q0 -126 -29.5 -216t-87 -142t-132.5 -75.5t-175 -23.5q-87 0 -153.5 22t-130.5 74l82 115q93 -72 202 -72q146 0 205.5 71.5t59.5 246.5v1053h159v-1053z" />
    <glyph glyph-name="ij" unicode="&#x133;" horiz-adv-x="886" 
d="M319 1415q0 -10 -2.5 -13t-11.5 -3h-166q-10 0 -12 2.5t-2 13.5v160q0 12 2.5 16t11.5 4h166q9 0 11.5 -3.5t2.5 -16.5v-160zM301 0h-160v1100h160v-1100zM762 1415q0 -10 -2.5 -13t-11.5 -3h-166q-10 0 -12.5 2.5t-2.5 13.5v160q0 12 3 16t12 4h166q9 0 11.5 -3.5
t2.5 -16.5v-160zM743 -180q0 -78 -14 -134t-48 -98t-93.5 -63t-147.5 -21h-116v131h116q83 0 112.5 40.5t29.5 144.5v1280h161v-1280z" />
    <glyph glyph-name="Jcircumflex" unicode="&#x134;" horiz-adv-x="876" 
d="M745 424q0 -126 -29.5 -216t-86.5 -142t-132 -75.5t-175 -23.5q-88 0 -154.5 22t-130.5 74l82 115q93 -72 203 -72q146 0 205 71.5t59 246.5v1053h159v-1053zM993 1618l-78 -70l-251 215l-252 -215l-78 70l274 283q32 32 56 32q23 0 55 -32z" />
    <glyph glyph-name="jcircumflex" unicode="&#x135;" horiz-adv-x="444" 
d="M301 -180q0 -78 -14 -134t-48 -98t-93.5 -63t-147.5 -21h-117v131h117q83 0 112 40.5t29 144.5v1280h162v-1280zM553 1290l-78 -69l-252 215l-252 -215l-77 69l274 283q33 33 55 33q23 0 56 -33z" />
    <glyph glyph-name="Kcommaaccent" unicode="&#x136;" horiz-adv-x="1314" 
d="M1266 1477l-664 -631l662 -846h-205l-529 672q-17 22 -26 80l-213 -201v-551h-160v1477h160v-727l756 727h219zM621 -545l-82 58q49 76 49 184h-70q-12 0 -15 3.5t-3 16.5v174q0 15 3 19t15 4h184q12 0 15.5 -4t3.5 -19v-174q0 -141 -100 -262z" />
    <glyph glyph-name="kcommaaccent" unicode="&#x137;" horiz-adv-x="1116" 
d="M1096 0h-207l-408 520q-17 22 -30 86l-150 -114v-492h-160v1595h160v-923l545 428h244l-535 -412zM567 -545l-82 58q50 77 50 184h-70q-12 0 -15.5 3.5t-3.5 16.5v174q0 15 3.5 19t15.5 4h184q12 0 15.5 -4t3.5 -19v-174q0 -139 -101 -262z" />
    <glyph glyph-name="kgreenlandic" unicode="&#x138;" horiz-adv-x="1116" 
d="M1096 0h-207l-408 520q-17 22 -30 86l-150 -114v-492h-160v1100h160v-428l545 428h244l-535 -412z" />
    <glyph glyph-name="Lacute" unicode="&#x139;" horiz-adv-x="1046" 
d="M967 0h-836v1477h160v-1334h676v-143zM850 1829l-352 -266q-16 -13 -23 -13t-16 9l-49 43q-9 9 -9 12q0 5 17 22l307 318z" />
    <glyph glyph-name="lacute" unicode="&#x13a;" horiz-adv-x="512" 
d="M469 -18h-82q-246 0 -246 266v1347h160v-1347q0 -67 21.5 -95t68.5 -28h78v-143zM543 1907l-353 -267q-15 -12 -22 -12q-8 0 -16 8l-50 43q-8 8 -8 13t17 22l307 318z" />
    <glyph glyph-name="Lcommaaccent" unicode="&#x13b;" horiz-adv-x="1046" 
d="M967 0h-836v1477h160v-1334h676v-143zM575 -545l-81 58q49 76 49 184h-70q-12 0 -15 3.5t-3 16.5v174q0 15 3 19t15 4h184q12 0 15.5 -4t3.5 -19v-174q0 -139 -101 -262z" />
    <glyph glyph-name="lcommaaccent" unicode="&#x13c;" horiz-adv-x="512" 
d="M469 -18h-82q-246 0 -246 266v1347h160v-1347q0 -67 21.5 -95t68.5 -28h78v-143zM246 -545l-82 58q49 76 49 184h-70q-12 0 -15 3.5t-3 16.5v174q0 15 3 19t15 4h185q12 0 15 -4t3 -19v-174q0 -141 -100 -262z" />
    <glyph glyph-name="Lcaron" unicode="&#x13d;" horiz-adv-x="1046" 
d="M967 0h-836v1477h160v-1334h676v-143zM893 1479l-125 -480q-4 -18 -10.5 -23t-20.5 -5h-57q-21 0 -21 18v10l70 480h164z" />
    <glyph glyph-name="lcaron" unicode="&#x13e;" horiz-adv-x="655" 
d="M469 -18h-82q-246 0 -246 266v1347h160v-1347q0 -67 21.5 -95t68.5 -28h78v-143zM758 1599l-125 -479q-4 -18 -10.5 -23t-20.5 -5h-57q-21 0 -21 18v10l70 479h164z" />
    <glyph glyph-name="Ldot" unicode="&#x13f;" horiz-adv-x="1046" 
d="M967 0h-836v1477h160v-1334h676v-143zM864 778q0 -13 -3 -16.5t-15 -3.5h-187q-12 0 -15 3.5t-3 16.5v180q0 17 2.5 20t15.5 3h187q14 0 16 -3t2 -20v-180z" />
    <glyph glyph-name="ldot" unicode="&#x140;" horiz-adv-x="790" 
d="M469 -18h-82q-246 0 -246 266v1347h160v-1347q0 -67 21.5 -95t68.5 -28h78v-143zM723 762q0 -14 -3 -17.5t-15 -3.5h-187q-12 0 -15 3.5t-3 17.5v180q0 17 2 20t16 3h187q13 0 15.5 -3t2.5 -20v-180z" />
    <glyph glyph-name="Lslash" unicode="&#x141;" horiz-adv-x="1046" 
d="M967 0h-815v647l-123 -74v172l123 74v658h159v-564l262 158v-170l-262 -158v-600h656v-143z" />
    <glyph glyph-name="lslash" unicode="&#x142;" horiz-adv-x="512" 
d="M471 -18h-86q-244 0 -244 266v518l-135 -80v176l135 80v653h162v-561l166 99v-175l-166 -96v-622q0 -66 23.5 -90.5t70.5 -24.5h74v-143z" />
    <glyph glyph-name="Nacute" unicode="&#x143;" horiz-adv-x="1447" 
d="M1317 0h-152l-889 1227q15 -50 15 -90v-1137h-160v1477h152l886 -1223q-12 56 -12 80v1143h160v-1477zM1063 1829l-352 -266q-16 -13 -23 -13t-16 9l-49 43q-9 9 -9 12q0 5 17 22l307 318z" />
    <glyph glyph-name="nacute" unicode="&#x144;" horiz-adv-x="1185" 
d="M1057 0h-160v705q0 86 -17 145.5t-50 91t-72 44.5t-92 13q-67 0 -121.5 -21.5t-134.5 -74.5l-109 -72v-831h-160v1100h127l35 -133l80 55q160 111 283 111q179 0 285 -103t106 -319v-711zM907 1503l-352 -266q-15 -12 -23 -12t-16 8l-49 43q-8 8 -8 12q0 7 16 23l307 317
z" />
    <glyph glyph-name="Ncommaaccent" unicode="&#x145;" horiz-adv-x="1447" 
d="M1317 0h-152l-889 1227q15 -50 15 -90v-1137h-160v1477h152l886 -1223q-12 56 -12 80v1143h160v-1477zM735 -545l-82 58q49 76 49 184h-69q-12 0 -15.5 3.5t-3.5 16.5v174q0 15 3.5 19t15.5 4h184q12 0 15.5 -4t3.5 -19v-174q0 -139 -101 -262z" />
    <glyph glyph-name="ncommaaccent" unicode="&#x146;" horiz-adv-x="1185" 
d="M1057 0h-160v705q0 86 -17 145.5t-50 91t-72 44.5t-92 13q-67 0 -121.5 -21.5t-134.5 -74.5l-109 -72v-831h-160v1100h127l35 -133l80 55q160 111 283 111q179 0 285 -103t106 -319v-711zM606 -545l-82 58q49 76 49 184h-69q-12 0 -15.5 3.5t-3.5 16.5v174q0 15 3.5 19
t15.5 4h184q12 0 15.5 -4t3.5 -19v-174q0 -139 -101 -262z" />
    <glyph glyph-name="Ncaron" unicode="&#x147;" horiz-adv-x="1447" 
d="M1317 0h-152l-889 1227q15 -50 15 -90v-1137h-160v1477h152l886 -1223q-12 56 -12 80v1143h160v-1477zM1053 1868l-275 -283q-35 -35 -55 -35q-24 0 -53 31l-277 287l78 55l252 -199l252 211z" />
    <glyph glyph-name="ncaron" unicode="&#x148;" horiz-adv-x="1185" 
d="M1057 0h-160v705q0 86 -17 145.5t-50 91t-72 44.5t-92 13q-67 0 -121.5 -21.5t-134.5 -74.5l-109 -72v-831h-160v1100h127l35 -133l80 55q160 111 283 111q179 0 285 -103t106 -319v-711zM922 1542l-275 -282q-35 -35 -55 -35q-25 0 -53 30l-277 287l78 55l252 -198
l252 211z" />
    <glyph glyph-name="napostrophe" unicode="&#x149;" horiz-adv-x="1462" 
d="M283 1292q0 -95 -48 -178.5t-131 -144.5l-63 57q59 56 87 113t28 131h-60q-15 0 -17.5 2.5t-2.5 19.5v160q0 19 2.5 22t17.5 3h166q15 0 18 -3.5t3 -21.5v-160zM1333 0h-159v705q0 86 -17 145.5t-50.5 91t-72.5 44.5t-92 13q-67 0 -121.5 -21.5t-134.5 -74.5l-108 -72
v-831h-160v1100h127l35 -133l79 55q160 111 283 111q179 0 285 -103t106 -319v-711z" />
    <glyph glyph-name="Eng" unicode="&#x14a;" horiz-adv-x="1447" 
d="M1317 -61q0 -126 -29.5 -216t-87 -142t-132.5 -75.5t-175 -23.5q-88 0 -154.5 22t-130.5 74l82 115q93 -72 203 -72q146 0 205 71.5t59 246.5v71l-881 1217q15 -50 15 -90v-1137h-160v1477h152l874 -1207v1207h160v-1538z" />
    <glyph glyph-name="eng" unicode="&#x14b;" horiz-adv-x="1185" 
d="M1059 -180q0 -78 -14 -134t-48 -98t-93.5 -63t-147.5 -21h-117v131h117q83 0 112 40.5t29 144.5v885q0 86 -17 145.5t-50 91t-72 44.5t-92 13q-67 0 -121.5 -21.5t-134.5 -74.5l-109 -72v-831h-160v1100h127l35 -133l80 55q160 111 283 111q86 0 156 -24t124 -73
t83.5 -131.5t29.5 -193.5v-891z" />
    <glyph glyph-name="Omacron" unicode="&#x14c;" horiz-adv-x="1398" 
d="M1309 756q0 -147 -16.5 -261.5t-58.5 -216t-110.5 -168.5t-176 -105t-251.5 -38t-250.5 38.5t-174 104.5t-108.5 168t-57 216.5t-16 261.5q0 133 15.5 239.5t57 205t108.5 164.5t174.5 105t250.5 39t251 -39t176 -105t110.5 -164t59 -205t16.5 -240zM1145 756
q0 121 -12.5 212.5t-43.5 168t-82 125.5t-128.5 75.5t-182.5 26.5t-182 -27t-126.5 -75.5t-79.5 -126t-42 -168t-12 -211.5q0 -133 12 -231t42 -178.5t80.5 -130.5t126.5 -76.5t181 -26.5q131 0 218.5 39.5t138 123.5t71.5 198.5t21 281.5zM1036 1645h-676v137h676v-137z
" />
    <glyph glyph-name="omacron" unicode="&#x14d;" horiz-adv-x="1181" 
d="M1083 551q0 -288 -116 -436t-377 -148t-376.5 147.5t-115.5 436.5q0 288 115.5 435t376.5 147t377 -147t116 -435zM920 551q0 246 -75 347t-255 101t-255 -101t-75 -347q0 -247 75 -349t255 -102t255 102t75 349zM920 1317h-676v137h676v-137z" />
    <glyph glyph-name="Obreve" unicode="&#x14e;" horiz-adv-x="1398" 
d="M1309 756q0 -147 -16.5 -261.5t-58.5 -216t-110.5 -168.5t-176 -105t-251.5 -38t-250.5 38.5t-174 104.5t-108.5 168t-57 216.5t-16 261.5q0 133 15.5 239.5t57 205t108.5 164.5t174.5 105t250.5 39t251 -39t176 -105t110.5 -164t59 -205t16.5 -240zM1145 756
q0 121 -12.5 212.5t-43.5 168t-82 125.5t-128.5 75.5t-182.5 26.5t-182 -27t-126.5 -75.5t-79.5 -126t-42 -168t-12 -211.5q0 -133 12 -231t42 -178.5t80.5 -130.5t126.5 -76.5t181 -26.5q131 0 218.5 39.5t138 123.5t71.5 198.5t21 281.5zM1030 1815q-38 -85 -78.5 -140
t-104.5 -90t-147 -35q-121 0 -197 67.5t-134 197.5l75 55q59 -100 114 -139t140 -39t141.5 38.5t114.5 139.5z" />
    <glyph glyph-name="obreve" unicode="&#x14f;" horiz-adv-x="1181" 
d="M1083 551q0 -288 -116 -436t-377 -148t-376.5 147.5t-115.5 436.5q0 288 115.5 435t376.5 147t377 -147t116 -435zM920 551q0 246 -75 347t-255 101t-255 -101t-75 -347q0 -247 75 -349t255 -102t255 102t75 349zM922 1538q-58 -130 -133.5 -197t-196.5 -67t-198 67
t-134 197l76 55q59 -100 114 -139t140 -39t141.5 38.5t114.5 139.5z" />
    <glyph glyph-name="Ohungarumlaut" unicode="&#x150;" horiz-adv-x="1398" 
d="M1309 756q0 -147 -16.5 -261.5t-58.5 -216t-110.5 -168.5t-176 -105t-251.5 -38t-250.5 38.5t-174 104.5t-108.5 168t-57 216.5t-16 261.5q0 133 15.5 239.5t57 205t108.5 164.5t174.5 105t250.5 39t251 -39t176 -105t110.5 -164t59 -205t16.5 -240zM1145 756
q0 121 -12.5 212.5t-43.5 168t-82 125.5t-128.5 75.5t-182.5 26.5t-182 -27t-126.5 -75.5t-79.5 -126t-42 -168t-12 -211.5q0 -133 12 -231t42 -178.5t80.5 -130.5t126.5 -76.5t181 -26.5q131 0 218.5 39.5t138 123.5t71.5 198.5t21 281.5zM1243 1806l-323 -245
q-15 -11 -21 -11q-11 0 -20 9l-43 38q-9 9 -9 15q0 7 9 16l286 297zM776 1806l-323 -245q-15 -11 -21 -11q-11 0 -20 9l-43 38q-9 9 -9 15q0 7 9 16l286 297z" />
    <glyph glyph-name="ohungarumlaut" unicode="&#x151;" horiz-adv-x="1181" 
d="M1083 551q0 -288 -116 -436t-377 -148t-376.5 147.5t-115.5 436.5q0 288 115.5 435t376.5 147t377 -147t116 -435zM920 551q0 246 -75 347t-255 101t-255 -101t-75 -347q0 -247 75 -349t255 -102t255 102t75 349zM1130 1493l-323 -246q-13 -10 -21 -10q-12 0 -20 8
l-43 39q-8 8 -8 14q0 9 8 17l287 297zM664 1493l-324 -246q-13 -10 -21 -10q-12 0 -20 8l-43 39q-8 8 -8 14q0 9 8 17l287 297z" />
    <glyph glyph-name="OE" unicode="&#x152;" horiz-adv-x="2179" 
d="M2089 0h-944v152q-145 -185 -449 -185q-144 0 -250.5 38.5t-174 104.5t-108.5 168t-57 216.5t-16 261.5q0 133 15.5 239.5t57 205t108.5 164.5t174.5 105t250.5 39q324 0 449 -184v152h942v-144h-782l-2 -481h700l-41 -145h-657v-564h784v-143zM1145 756
q0 121 -12.5 212.5t-43.5 168t-82 125.5t-128.5 75.5t-182.5 26.5t-182 -27t-126.5 -75.5t-79.5 -126t-42 -168t-12 -211.5q0 -133 12 -231t42 -178.5t80.5 -130.5t126.5 -76.5t181 -26.5q131 0 218.5 39.5t138 123.5t71.5 198.5t21 281.5z" />
    <glyph glyph-name="oe" unicode="&#x153;" horiz-adv-x="1986" 
d="M1888 504h-798q-6 -197 70 -300.5t263 -103.5q228 0 308 160l141 -55q-56 -118 -163 -178t-286 -60q-151 0 -253 44.5t-166 140.5q-119 -185 -410 -185q-140 0 -237 38t-153.5 115.5t-81 182t-24.5 248.5t24.5 248t81 181t153.5 115t237 38q152 0 251.5 -45.5
t158.5 -137.5q124 183 423 183q119 0 205 -32t134.5 -82.5t76.5 -130.5t36.5 -156.5t8.5 -180.5v-47zM1724 639q0 71 -7 123t-26.5 98.5t-52.5 76t-86 46t-125 16.5q-168 0 -255 -80.5t-87 -269.5v-10h639zM924 551q0 249 -72 348.5t-258 99.5q-187 0 -260.5 -99.5
t-73.5 -348.5t74 -350t260 -101t258 100.5t72 350.5z" />
    <glyph glyph-name="Racute" unicode="&#x154;" horiz-adv-x="1247" 
d="M1157 0h-196l-351 539q-7 12 -14.5 40t-7.5 42h-297v-621h-160v1477h463q270 0 397 -114.5t127 -315.5q0 -346 -373 -416zM954 1047q0 155 -91 220.5t-267 65.5h-305v-567h303q179 0 269.5 63.5t90.5 217.5zM909 1829l-352 -266q-16 -13 -22 -13q-8 0 -17 9l-49 43
q-8 8 -8 12q0 6 16 22l307 318z" />
    <glyph glyph-name="racute" unicode="&#x155;" horiz-adv-x="749" 
d="M696 967q-44 8 -96 8q-70 0 -121.5 -17.5t-113.5 -70.5l-64 -53v-834h-160v1100h133l27 -115l94 78q45 38 102.5 54t102.5 16q39 0 96 -11v-155zM725 1503l-352 -266q-15 -12 -23 -12t-16 8l-49 43q-9 9 -9 12q0 6 17 23l307 317z" />
    <glyph glyph-name="Rcommaaccent" unicode="&#x156;" horiz-adv-x="1247" 
d="M1157 0h-196l-351 539q-7 12 -14.5 40t-7.5 42h-297v-621h-160v1477h463q270 0 397 -114.5t127 -315.5q0 -346 -373 -416zM954 1047q0 155 -91 220.5t-267 65.5h-305v-567h303q179 0 269.5 63.5t90.5 217.5zM610 -545l-82 58q50 77 50 184h-70q-12 0 -15.5 3.5t-3.5 16.5
v174q0 15 3.5 19t15.5 4h184q12 0 15.5 -4t3.5 -19v-174q0 -139 -101 -262z" />
    <glyph glyph-name="rcommaaccent" unicode="&#x157;" horiz-adv-x="749" 
d="M696 967q-44 8 -96 8q-70 0 -121.5 -17.5t-113.5 -70.5l-64 -53v-834h-160v1100h133l27 -115l94 78q45 38 102.5 54t102.5 16q39 0 96 -11v-155zM371 -545l-82 58q49 76 49 184h-70q-12 0 -15 3.5t-3 16.5v174q0 15 3 19t15 4h185q12 0 15 -4t3 -19v-174
q0 -141 -100 -262z" />
    <glyph glyph-name="Rcaron" unicode="&#x158;" horiz-adv-x="1247" 
d="M1157 0h-196l-351 539q-7 12 -14.5 40t-7.5 42h-297v-621h-160v1477h463q270 0 397 -114.5t127 -315.5q0 -346 -373 -416zM954 1047q0 155 -91 220.5t-267 65.5h-305v-567h303q179 0 269.5 63.5t90.5 217.5zM911 1868l-274 -283q-35 -35 -55 -35q-25 0 -54 31l-276 287
l78 55l252 -199l252 211z" />
    <glyph glyph-name="rcaron" unicode="&#x159;" horiz-adv-x="749" 
d="M696 967q-44 8 -96 8q-70 0 -121.5 -17.5t-113.5 -70.5l-64 -53v-834h-160v1100h133l27 -115l94 78q45 38 102.5 54t102.5 16q39 0 96 -11v-155zM705 1571l-275 -283q-35 -35 -55 -35q-24 0 -53 31l-277 287l78 55l252 -199l252 211z" />
    <glyph glyph-name="Sacute" unicode="&#x15a;" 
d="M1157 418q0 -94 -33 -174t-98 -142.5t-171.5 -98.5t-244.5 -36q-193 0 -329 74.5t-191 226.5l135 68q55 -118 147.5 -171.5t237.5 -53.5q103 0 180 25.5t120.5 69.5t64 97t20.5 115q0 113 -52 175t-173 83l-321 57q-90 16 -155.5 54t-101 91t-51.5 112t-16 128
q0 391 496 391q90 0 166.5 -17t126 -42t89.5 -60t61 -63.5t38 -60.5l-137 -68q-95 168 -344 168q-186 0 -260 -62.5t-74 -185.5q0 -109 43.5 -161t154.5 -72l322 -56q179 -31 264.5 -138t85.5 -273zM924 1831l-353 -266q-16 -13 -22 -13q-8 0 -17 9l-49 43q-8 8 -8 12
q0 5 17 22l307 318z" />
    <glyph glyph-name="sacute" unicode="&#x15b;" horiz-adv-x="1062" 
d="M956 317q0 -92 -35 -161t-97.5 -109.5t-141 -60t-172.5 -19.5q-149 0 -266 63.5t-158 182.5l147 47q32 -78 104.5 -119t172.5 -41q285 0 285 217q0 138 -152 162l-276 45q-118 20 -186 91t-68 194q0 149 108.5 236.5t308.5 87.5q290 0 392 -189l-131 -65q-37 58 -97 89
t-162 31q-133 0 -198.5 -50.5t-65.5 -139.5q0 -59 28 -93.5t107 -47.5l273 -43q124 -20 202 -100t78 -208zM827 1503l-352 -266q-15 -12 -22 -12q-9 0 -17 8l-49 43q-8 8 -8 12q0 7 16 23l307 317z" />
    <glyph glyph-name="Scircumflex" unicode="&#x15c;" 
d="M1157 418q0 -94 -33 -174t-98 -142.5t-171.5 -98.5t-244.5 -36q-193 0 -329 74.5t-191 226.5l135 68q55 -118 147.5 -171.5t237.5 -53.5q103 0 180 25.5t120.5 69.5t64 97t20.5 115q0 113 -52 175t-173 83l-321 57q-90 16 -155.5 54t-101 91t-51.5 112t-16 128
q0 391 496 391q90 0 166.5 -17t126 -42t89.5 -60t61 -63.5t38 -60.5l-137 -68q-95 168 -344 168q-186 0 -260 -62.5t-74 -185.5q0 -109 43.5 -161t154.5 -72l322 -56q179 -31 264.5 -138t85.5 -273zM952 1620l-78 -70l-251 215l-252 -215l-78 70l274 283q32 32 56 32
q23 0 55 -32z" />
    <glyph glyph-name="scircumflex" unicode="&#x15d;" horiz-adv-x="1062" 
d="M956 317q0 -92 -35 -161t-97.5 -109.5t-141 -60t-172.5 -19.5q-149 0 -266 63.5t-158 182.5l147 47q32 -78 104.5 -119t172.5 -41q285 0 285 217q0 138 -152 162l-276 45q-118 20 -186 91t-68 194q0 149 108.5 236.5t308.5 87.5q290 0 392 -189l-131 -65q-37 58 -97 89
t-162 31q-133 0 -198.5 -50.5t-65.5 -139.5q0 -59 28 -93.5t107 -47.5l273 -43q124 -20 202 -100t78 -208zM860 1290l-78 -69l-252 215l-251 -215l-78 69l274 283q33 33 55 33q23 0 56 -33z" />
    <glyph glyph-name="uni015E" unicode="&#x15e;" 
d="M831 -250q0 -88 -51.5 -123t-161.5 -35q-114 0 -204 41l28 76q82 -26 176 -26q87 0 87 67q0 70 -87 70h-102l-55 92l47 61q-154 18 -262 91t-156 204l135 68q55 -118 147.5 -171.5t237.5 -53.5q103 0 180 25.5t120.5 69.5t64 97t20.5 115q0 113 -52 175t-173 83l-321 57
q-90 16 -155.5 54t-101 91t-51.5 112t-16 128q0 391 496 391q90 0 166.5 -17t126 -42t89.5 -60t61 -63.5t38 -60.5l-137 -68q-95 168 -344 168q-186 0 -260 -62.5t-74 -185.5q0 -109 43.5 -161t154.5 -72l322 -56q179 -31 264.5 -138t85.5 -273q0 -92 -32 -171t-95 -141.5
t-166 -99.5t-237 -39l-47 -57h38q110 0 161.5 -36.5t51.5 -123.5z" />
    <glyph glyph-name="uni015F" unicode="&#x15f;" horiz-adv-x="1062" 
d="M739 -250q0 -88 -51.5 -123t-161.5 -35q-114 0 -204 41l28 76q82 -26 176 -26q49 0 67.5 18t18.5 49q0 70 -86 70h-102l-55 92l49 61q-120 18 -209 79t-123 161l147 47q32 -78 104.5 -119t172.5 -41q285 0 285 217q0 138 -152 162l-276 45q-118 20 -186 91t-68 194
q0 149 108.5 236.5t308.5 87.5q290 0 392 -189l-131 -65q-37 58 -97 89t-162 31q-133 0 -198.5 -50.5t-65.5 -139.5q0 -59 28 -93.5t107 -47.5l273 -43q124 -20 202 -100t78 -208q0 -89 -32.5 -156.5t-91.5 -108t-132.5 -61.5t-162.5 -24l-50 -57h39q110 0 161.5 -36.5
t51.5 -123.5z" />
    <glyph glyph-name="Scaron" unicode="&#x160;" 
d="M1157 418q0 -94 -33 -174t-98 -142.5t-171.5 -98.5t-244.5 -36q-193 0 -329 74.5t-191 226.5l135 68q55 -118 147.5 -171.5t237.5 -53.5q103 0 180 25.5t120.5 69.5t64 97t20.5 115q0 113 -52 175t-173 83l-321 57q-90 16 -155.5 54t-101 91t-51.5 112t-16 128
q0 391 496 391q90 0 166.5 -17t126 -42t89.5 -60t61 -63.5t38 -60.5l-137 -68q-95 168 -344 168q-186 0 -260 -62.5t-74 -185.5q0 -109 43.5 -161t154.5 -72l322 -56q179 -31 264.5 -138t85.5 -273zM952 1868l-274 -283q-35 -35 -55 -35q-25 0 -54 31l-276 287l78 55
l252 -199l251 211z" />
    <glyph glyph-name="scaron" unicode="&#x161;" horiz-adv-x="1062" 
d="M956 317q0 -92 -35 -161t-97.5 -109.5t-141 -60t-172.5 -19.5q-149 0 -266 63.5t-158 182.5l147 47q32 -78 104.5 -119t172.5 -41q285 0 285 217q0 138 -152 162l-276 45q-118 20 -186 91t-68 194q0 149 108.5 236.5t308.5 87.5q290 0 392 -189l-131 -65q-37 58 -97 89
t-162 31q-133 0 -198.5 -50.5t-65.5 -139.5q0 -59 28 -93.5t107 -47.5l273 -43q124 -20 202 -100t78 -208zM860 1552l-274 -282q-35 -35 -56 -35q-24 0 -53 31l-276 286l78 56l251 -199l252 211z" />
    <glyph glyph-name="Tcommaaccent" unicode="&#x162;" horiz-adv-x="1220" 
d="M1151 1333h-461v-1333h-160v1333h-460v144h1081v-144zM618 -545l-81 58q49 76 49 184h-70q-12 0 -15 3.5t-3 16.5v174q0 15 3 19t15 4h184q12 0 15.5 -4t3.5 -19v-174q0 -139 -101 -262z" />
    <glyph glyph-name="tcommaaccent" unicode="&#x163;" horiz-adv-x="870" 
d="M848 57q-108 -90 -328 -90q-65 0 -114 13.5t-90.5 46t-63 93t-21.5 148.5v609q0 18 2.5 30t9 30t7.5 21h-207v142h188v373l160 47v-420h397l-47 -142h-350v-690q0 -95 42.5 -132.5t137.5 -37.5q82 0 177 62zM459 -545l-82 58q49 76 49 184h-70q-12 0 -15 3.5t-3 16.5v174
q0 15 3 19t15 4h185q12 0 15 -4t3 -19v-174q0 -141 -100 -262z" />
    <glyph glyph-name="Tcaron" unicode="&#x164;" horiz-adv-x="1220" 
d="M1151 1333h-461v-1333h-160v1333h-460v144h1081v-144zM940 1870l-274 -283q-35 -35 -56 -35q-24 0 -53 31l-276 287l77 55l252 -199l252 211z" />
    <glyph glyph-name="tcaron" unicode="&#x165;" horiz-adv-x="1019" 
d="M848 57q-108 -90 -328 -90q-65 0 -114 13.5t-90.5 46t-63 93t-21.5 148.5v609q0 18 2.5 30t9 30t7.5 21h-207v142h188v373l160 47v-420h397l-47 -142h-350v-690q0 -95 42.5 -132.5t137.5 -37.5q82 0 177 62zM1122 1599l-125 -479q-4 -18 -10 -23t-20 -5h-58q-20 0 -20 18
v10l69 479h164z" />
    <glyph glyph-name="Tbar" unicode="&#x166;" horiz-adv-x="1220" 
d="M1151 817h-461v-817h-160v817h-460v144h460v372h-460v144h1081v-144h-461v-372h461v-144z" />
    <glyph glyph-name="tbar" unicode="&#x167;" horiz-adv-x="870" 
d="M741 610h-350v-342q0 -95 42.5 -132.5t137.5 -37.5q82 0 177 62l100 -103q-108 -90 -328 -90q-65 0 -114 13.5t-90.5 46t-63 93t-21.5 148.5v342h-188v142h188v125q0 18 2.5 30t9 30t7.5 21h-207v142h188v373l160 47v-420h397l-47 -142h-350v-206h397z" />
    <glyph glyph-name="Utilde" unicode="&#x168;" horiz-adv-x="1417" 
d="M1296 606q0 -168 -42 -292.5t-121.5 -199.5t-184.5 -111t-239 -36t-239.5 36t-184.5 111t-121.5 199.5t-42.5 292.5v871h160v-871q0 -260 106 -377.5t320 -117.5q215 0 322.5 118t107.5 377v871h159v-871zM1079 1794l-129 -201q-26 -43 -78 -43q-12 0 -24 3t-19 6.5
t-21 11t-20 10.5l-186 96q-26 15 -45 15q-20 0 -43 -27l-88 -106l-88 51l129 200q26 43 78 43q12 0 24 -3t18.5 -6t21.5 -10.5t20 -10.5l186 -97q25 -14 45 -14t43 27l88 106z" />
    <glyph glyph-name="utilde" unicode="&#x169;" horiz-adv-x="1185" 
d="M1044 0h-126l-35 133l-80 -55q-160 -111 -283 -111q-179 0 -285 103t-106 319v711h160v-705q0 -86 17 -146t50 -91.5t72 -44.5t92 -13q66 0 120.5 21.5t135.5 75.5l109 71v832h159v-1100zM963 1497l-129 -201q-26 -43 -78 -43q-12 0 -24 3t-19 6.5t-21 11t-20 10.5
l-187 96q-26 15 -45 15q-20 0 -43 -27l-88 -106l-88 51l129 200q26 43 78 43q12 0 24 -3t18.5 -6t21.5 -10.5t20 -10.5l186 -96q26 -15 45 -15q20 0 43 27l88 106z" />
    <glyph glyph-name="Umacron" unicode="&#x16a;" horiz-adv-x="1417" 
d="M1296 606q0 -168 -42 -292.5t-121.5 -199.5t-184.5 -111t-239 -36t-239.5 36t-184.5 111t-121.5 199.5t-42.5 292.5v871h160v-871q0 -260 106 -377.5t320 -117.5q215 0 322.5 118t107.5 377v871h159v-871zM1047 1645h-676v137h676v-137z" />
    <glyph glyph-name="umacron" unicode="&#x16b;" horiz-adv-x="1185" 
d="M1044 0h-126l-35 133l-80 -55q-160 -111 -283 -111q-179 0 -285 103t-106 319v711h160v-705q0 -86 17 -146t50 -91.5t72 -44.5t92 -13q66 0 120.5 21.5t135.5 75.5l109 71v832h159v-1100zM930 1317h-676v137h676v-137z" />
    <glyph glyph-name="Ubreve" unicode="&#x16c;" horiz-adv-x="1417" 
d="M1296 606q0 -168 -42 -292.5t-121.5 -199.5t-184.5 -111t-239 -36t-239.5 36t-184.5 111t-121.5 199.5t-42.5 292.5v871h160v-871q0 -260 106 -377.5t320 -117.5q215 0 322.5 118t107.5 377v871h159v-871zM1038 1815q-58 -131 -133 -198t-196 -67t-197.5 67.5
t-134.5 197.5l76 55q59 -100 114 -139t140 -39t141.5 38.5t114.5 139.5z" />
    <glyph glyph-name="ubreve" unicode="&#x16d;" horiz-adv-x="1185" 
d="M1044 0h-126l-35 133l-80 -55q-160 -111 -283 -111q-179 0 -285 103t-106 319v711h160v-705q0 -86 17 -146t50 -91.5t72 -44.5t92 -13q66 0 120.5 21.5t135.5 75.5l109 71v832h159v-1100zM924 1538q-58 -130 -133.5 -197t-196.5 -67t-198 67t-134 197l76 55
q59 -100 114 -139t140 -39t141.5 38.5t114.5 139.5z" />
    <glyph glyph-name="Uring" unicode="&#x16e;" horiz-adv-x="1417" 
d="M1296 606q0 -168 -42 -292.5t-121.5 -199.5t-184.5 -111t-239 -36t-239.5 36t-184.5 111t-121.5 199.5t-42.5 292.5v871h160v-871q0 -260 106 -377.5t320 -117.5q215 0 322.5 118t107.5 377v871h159v-871zM932 1774q0 -92 -65.5 -158t-157.5 -66t-158 66t-66 158
t66 157.5t158 65.5t157.5 -65.5t65.5 -157.5zM836 1774q0 52 -37 89.5t-90 37.5t-91 -37t-38 -90q0 -52 38 -90.5t91 -38.5t90 38t37 91z" />
    <glyph glyph-name="uring" unicode="&#x16f;" horiz-adv-x="1185" 
d="M1044 0h-126l-35 133l-80 -55q-160 -111 -283 -111q-179 0 -285 103t-106 319v711h160v-705q0 -86 17 -146t50 -91.5t72 -44.5t92 -13q66 0 120.5 21.5t135.5 75.5l109 71v832h159v-1100zM815 1456q0 -92 -65.5 -157.5t-157.5 -65.5t-157.5 65.5t-65.5 157.5t65.5 157.5
t157.5 65.5t157.5 -65.5t65.5 -157.5zM719 1456q0 52 -37.5 89.5t-89.5 37.5q-53 0 -91 -37t-38 -90q0 -52 38.5 -90.5t90.5 -38.5q53 0 90 38t37 91z" />
    <glyph glyph-name="Uhungarumlaut" unicode="&#x170;" horiz-adv-x="1417" 
d="M1296 606q0 -168 -42 -292.5t-121.5 -199.5t-184.5 -111t-239 -36t-239.5 36t-184.5 111t-121.5 199.5t-42.5 292.5v871h160v-871q0 -260 106 -377.5t320 -117.5q215 0 322.5 118t107.5 377v871h159v-871zM1231 1804l-324 -245q-15 -11 -20 -11q-13 0 -21 8l-43 39
q-8 8 -8 15q0 8 8 16l287 297zM764 1804l-324 -245q-15 -11 -20 -11q-13 0 -21 8l-43 39q-8 8 -8 15q0 8 8 16l287 297z" />
    <glyph glyph-name="uhungarumlaut" unicode="&#x171;" horiz-adv-x="1185" 
d="M1044 0h-126l-35 133l-80 -55q-160 -111 -283 -111q-179 0 -285 103t-106 319v711h160v-705q0 -86 17 -146t50 -91.5t72 -44.5t92 -13q66 0 120.5 21.5t135.5 75.5l109 71v832h159v-1100zM1163 1493l-323 -246q-13 -10 -21 -10q-12 0 -20 8l-43 39q-8 8 -8 14q0 9 8 17
l286 297zM696 1493l-323 -246q-13 -10 -21 -10q-12 0 -20 8l-43 39q-8 8 -8 14q0 9 8 17l286 297z" />
    <glyph glyph-name="Uogonek" unicode="&#x172;" horiz-adv-x="1417" 
d="M1042 45l-233 -211q-29 -29 -29 -67q0 -84 88 -84q94 0 176 26l29 -76q-90 -41 -205 -41q-106 0 -167.5 38.5t-61.5 136.5q0 39 16 67.5t54 63.5l90 73q-58 -4 -90 -4q-134 0 -239.5 36t-184.5 111t-121.5 199.5t-42.5 292.5v871h160v-871q0 -260 106 -377.5t320 -117.5
q215 0 322.5 118t107.5 377v871h159v-871q0 -413 -254 -561z" />
    <glyph glyph-name="uogonek" unicode="&#x173;" horiz-adv-x="1185" 
d="M1044 0l-190 -133q-36 -24 -53.5 -44t-21 -32.5t-3.5 -34.5q0 -35 23 -54t65 -19q94 0 176 26l29 -76q-90 -41 -205 -41q-229 0 -229 152q0 62 37 112t151 124l84 55l-24 98l-80 -55q-160 -111 -283 -111q-179 0 -285 103t-106 319v711h160v-705q0 -86 17 -146t50 -91.5
t72 -44.5t92 -13q66 0 120.5 21.5t135.5 75.5l109 71v832h159v-1100z" />
    <glyph glyph-name="Wcircumflex" unicode="&#x174;" horiz-adv-x="1781" 
d="M1733 1477l-344 -1477h-199l-275 1067q-17 65 -24 129q-8 -49 -27 -129l-274 -1067h-197l-344 1477h162l256 -1071q9 -39 35 -216q22 151 39 216l266 1024h168l266 -1024q23 -85 37 -213q25 169 35 213l258 1071h162zM1221 1620l-78 -70l-252 215l-252 -215l-78 70
l275 283q32 32 55 32t55 -32z" />
    <glyph glyph-name="wcircumflex" unicode="&#x175;" horiz-adv-x="1646" 
d="M1589 1100l-344 -1100h-158l-227 735q-9 30 -19 81t-16 86l-6 36q-13 -135 -33 -203l-229 -735h-158l-342 1100h156l227 -752q8 -25 18 -75.5t16 -88.5l5 -37q19 138 39 201l230 752h151l229 -752q8 -28 17 -79t13 -89l5 -37q23 142 41 205l230 752h155zM1153 1290
l-78 -69l-252 215l-252 -215l-77 69l274 283q33 33 55 33q23 0 56 -33z" />
    <glyph glyph-name="Ycircumflex" unicode="&#x176;" horiz-adv-x="1312" 
d="M1264 1477l-527 -879v-598h-159v598l-529 879h176l406 -674q16 -29 26 -68q16 48 29 70l404 672h174zM985 1616l-78 -70l-252 215l-252 -215l-77 70l274 282q33 33 55 33q23 0 56 -33z" />
    <glyph glyph-name="ycircumflex" unicode="&#x177;" horiz-adv-x="1124" 
d="M1069 1100l-520 -1389q-43 -115 -117.5 -161t-214.5 -46h-141v144h141q93 0 127.5 25t63.5 104l71 194l-424 1129h168l303 -809q8 -21 37 -139q23 98 39 139l301 809h166zM891 1290l-78 -69l-252 215l-252 -215l-78 69l275 283q33 33 55 33t55 -33z" />
    <glyph glyph-name="Ydieresis" unicode="&#x178;" horiz-adv-x="1312" 
d="M1264 1477l-527 -879v-598h-159v598l-529 879h176l406 -674q16 -29 26 -68q16 48 29 70l404 672h174zM975 1661q0 -15 -3.5 -18t-15.5 -3h-151q-13 0 -16 3t-3 18v147q0 16 3 19.5t16 3.5h151q9 0 12.5 -1t5 -5.5t1.5 -16.5v-147zM526 1661q0 -15 -3 -18t-15 -3h-152
q-14 0 -17 3t-3 18v147q0 17 3 20t17 3h152q12 0 15 -3t3 -20v-147z" />
    <glyph glyph-name="Zacute" unicode="&#x179;" horiz-adv-x="1179" 
d="M1090 1335l-773 -1142q-36 -48 -38 -50h794v-143h-983v139l774 1147q19 27 39 47h-762l-41 144h990v-142zM934 1829l-352 -266q-16 -13 -23 -13t-16 9l-49 43q-9 9 -9 12q0 5 17 22l307 318z" />
    <glyph glyph-name="zacute" unicode="&#x17a;" horiz-adv-x="1052" 
d="M944 0h-835v154l596 747q17 21 79 57h-630l-43 142h829v-154l-604 -756q-26 -31 -82 -51h690v-139zM866 1503l-352 -266q-15 -12 -22 -12q-9 0 -17 8l-49 43q-8 8 -8 12q0 7 16 23l307 317z" />
    <glyph glyph-name="Zdotaccent" unicode="&#x17b;" horiz-adv-x="1179" 
d="M1090 1335l-773 -1142q-36 -48 -38 -50h794v-143h-983v139l774 1147q19 27 39 47h-762l-41 144h990v-142zM721 1665q0 -13 -3.5 -16.5t-15.5 -3.5h-186q-12 0 -15 3.5t-3 16.5v180q0 17 2 20t16 3h186q14 0 16.5 -3t2.5 -20v-180z" />
    <glyph glyph-name="zdotaccent" unicode="&#x17c;" horiz-adv-x="1052" 
d="M944 0h-835v154l596 747q17 21 79 57h-630l-43 142h829v-154l-604 -756q-26 -31 -82 -51h690v-139zM643 1337q0 -13 -3 -16.5t-15 -3.5h-187q-12 0 -15 3.5t-3 16.5v181q0 17 2 19.5t16 2.5h187q14 0 16 -2.5t2 -19.5v-181z" />
    <glyph glyph-name="Zcaron" unicode="&#x17d;" horiz-adv-x="1179" 
d="M1090 1335l-773 -1142q-36 -48 -38 -50h794v-143h-983v139l774 1147q19 27 39 47h-762l-41 144h990v-142zM920 1868l-275 -283q-35 -35 -55 -35q-24 0 -53 31l-277 287l78 55l252 -199l252 211z" />
    <glyph glyph-name="zcaron" unicode="&#x17e;" horiz-adv-x="1052" 
d="M944 0h-835v154l596 747q17 21 79 57h-630l-43 142h829v-154l-604 -756q-26 -31 -82 -51h690v-139zM856 1571l-274 -283q-35 -35 -56 -35q-24 0 -53 31l-276 287l77 55l252 -199l252 211z" />
    <glyph glyph-name="florin" unicode="&#x192;" 
d="M1126 1450l-47 -135q-96 22 -161 22q-72 0 -107.5 -45.5t-50.5 -167.5l-31 -258h348l-45 -135h-317l-70 -614q-15 -130 -59 -207.5t-108 -107t-159 -29.5q-97 0 -200 20l49 141q81 -20 149 -20q81 0 119 42t51 163l60 543q3 30 22 69h-278l45 135h235l31 260
q22 191 99.5 271t216.5 80q91 0 208 -27z" />
    <glyph glyph-name="AEacute" unicode="&#x1fc;" horiz-adv-x="2113" 
d="M2023 0h-944v459h-544l-279 -459h-176l899 1477h1042v-144h-782v-481h698l-41 -145h-669q12 -45 12 -82v-482h784v-143zM1079 608v738l-450 -738h450zM1497 1829l-352 -266q-16 -13 -23 -13t-16 9l-49 43q-8 8 -8 12q0 6 16 22l307 318z" />
    <glyph glyph-name="aeacute" unicode="&#x1fd;" horiz-adv-x="1910" 
d="M1812 504h-804q0 -212 76.5 -308t263.5 -96q227 0 307 160l139 -55q-56 -119 -162 -178.5t-284 -59.5q-289 0 -408 176q-127 -97 -239.5 -136.5t-229.5 -39.5q-189 0 -281 97.5t-92 265.5q0 348 400 348q87 0 184.5 -14t163.5 -35v182q0 43 -8.5 73t-32.5 58.5t-74 42.5
t-125 14q-229 0 -315 -125l-123 76q54 92 169 137.5t269 45.5q267 0 359 -142q127 142 385 142q86 0 154.5 -16.5t116.5 -44.5t83 -71.5t55.5 -90t32.5 -109.5t16 -120t4 -130v-47zM1647 639q0 71 -7 123t-26.5 98.5t-52.5 76t-86 46t-125 16.5q-167 0 -249.5 -81
t-94.5 -279h641zM846 225v287q-19 3 -66 10.5t-78 12t-75 8.5t-80 4q-287 0 -287 -217q0 -123 59 -177.5t152 -54.5q109 0 192 30t183 97zM1350 1503l-353 -266q-15 -12 -22 -12q-9 0 -17 8l-49 43q-8 8 -8 12q0 6 17 23l307 317z" />
    <glyph glyph-name="Oslashacute" unicode="&#x1fe;" horiz-adv-x="1398" 
d="M1386 1528l-192 -252q115 -181 115 -520q0 -147 -16.5 -261.5t-58.5 -216t-110.5 -168.5t-176 -105t-251.5 -38q-261 0 -405 125l-111 -143h-166l189 248q-113 183 -113 559q0 133 15.5 239.5t57 205t108.5 164.5t174.5 105t250.5 39q260 0 410 -131l115 150h165z
M1012 1255q-106 109 -316 109q-105 0 -182 -27t-126.5 -75.5t-79.5 -126t-42 -168t-12 -211.5q0 -280 57 -418zM1145 756q0 242 -58 381l-700 -918q103 -106 309 -106q131 0 218.5 39.5t138 123.5t71.5 198.5t21 281.5zM1006 1829l-353 -266q-16 -13 -22 -13q-8 0 -17 9
l-49 43q-8 8 -8 12q0 6 16 22l308 318z" />
    <glyph glyph-name="oslashacute" unicode="&#x1ff;" horiz-adv-x="1181" 
d="M1161 1133l-157 -195q81 -139 81 -387q0 -288 -116 -436t-377 -148q-195 0 -316 86l-73 -88h-166l151 187q-90 143 -90 399q0 288 116.5 435t377.5 147q208 0 326 -93l75 93h168zM823 924q-78 75 -231 75q-180 0 -256 -101t-76 -347q0 -162 35 -268zM922 551
q0 139 -31 254l-524 -639q80 -66 225 -66q179 0 254.5 102t75.5 349zM889 1503l-352 -266q-15 -12 -23 -12t-16 8l-49 43q-9 9 -9 12q0 6 17 23l307 317z" />
    <glyph glyph-name="uni0218" unicode="&#x218;" 
d="M1157 418q0 -94 -33 -174t-98 -142.5t-171.5 -98.5t-244.5 -36q-193 0 -329 74.5t-191 226.5l135 68q55 -118 147.5 -171.5t237.5 -53.5q103 0 180 25.5t120.5 69.5t64 97t20.5 115q0 113 -52 175t-173 83l-321 57q-90 16 -155.5 54t-101 91t-51.5 112t-16 128
q0 391 496 391q90 0 166.5 -17t126 -42t89.5 -60t61 -63.5t38 -60.5l-137 -68q-95 168 -344 168q-186 0 -260 -62.5t-74 -185.5q0 -109 43.5 -161t154.5 -72l322 -56q179 -31 264.5 -138t85.5 -273zM637 -545l-82 58q49 76 49 184h-69q-12 0 -15.5 3.5t-3.5 16.5v174
q0 15 3.5 19t15.5 4h184q12 0 15 -4t3 -19v-174q0 -141 -100 -262z" />
    <glyph glyph-name="uni0219" unicode="&#x219;" horiz-adv-x="1062" 
d="M956 317q0 -92 -35 -161t-97.5 -109.5t-141 -60t-172.5 -19.5q-149 0 -266 63.5t-158 182.5l147 47q32 -78 104.5 -119t172.5 -41q285 0 285 217q0 138 -152 162l-276 45q-118 20 -186 91t-68 194q0 149 108.5 236.5t308.5 87.5q290 0 392 -189l-131 -65q-37 58 -97 89
t-162 31q-133 0 -198.5 -50.5t-65.5 -139.5q0 -59 28 -93.5t107 -47.5l273 -43q124 -20 202 -100t78 -208zM532 -545l-81 58q49 76 49 184h-70q-12 0 -15 3.5t-3 16.5v174q0 15 3 19t15 4h184q12 0 15.5 -4t3.5 -19v-174q0 -139 -101 -262z" />
    <glyph glyph-name="circumflex" unicode="&#x2c6;" horiz-adv-x="923" 
d="M793 1290l-78 -69l-252 215l-252 -215l-78 69l275 283q33 33 55 33t55 -33z" />
    <glyph glyph-name="caron" unicode="&#x2c7;" horiz-adv-x="923" 
d="M793 1571l-275 -283q-35 -35 -55 -35q-24 0 -53 31l-277 287l78 55l252 -199l252 211z" />
    <glyph glyph-name="uni02C9" unicode="&#x2c9;" horiz-adv-x="937" 
d="M807 1348h-676v137h676v-137z" />
    <glyph glyph-name="breve" unicode="&#x2d8;" horiz-adv-x="923" 
d="M795 1538q-58 -130 -133.5 -197t-196.5 -67t-198 67t-134 197l76 55q59 -100 114 -139t140 -39t141.5 38.5t114.5 139.5z" />
    <glyph glyph-name="dotaccent" unicode="&#x2d9;" horiz-adv-x="485" 
d="M354 1323q0 -13 -3 -16.5t-15 -3.5h-186q-12 0 -15.5 3.5t-3.5 16.5v180q0 17 2.5 20t16.5 3h186q14 0 16 -3t2 -20v-180z" />
    <glyph glyph-name="ring" unicode="&#x2da;" horiz-adv-x="708" 
d="M578 1456q0 -92 -66 -157.5t-158 -65.5t-157.5 65.5t-65.5 157.5t65.5 157.5t157.5 65.5t158 -65.5t66 -157.5zM481 1456q0 52 -37.5 89.5t-89.5 37.5q-53 0 -91 -37t-38 -90q0 -52 38.5 -90.5t90.5 -38.5q53 0 90 38t37 91z" />
    <glyph glyph-name="ogonek" unicode="&#x2db;" horiz-adv-x="636" 
d="M555 -367q-90 -41 -205 -41q-106 0 -167.5 38.5t-61.5 136.5q0 39 15.5 67.5t53.5 63.5l136 122h153l-188 -186q-29 -29 -29 -67q0 -84 88 -84q94 0 176 26z" />
    <glyph glyph-name="tilde" unicode="&#x2dc;" horiz-adv-x="1001" 
d="M870 1497l-129 -201q-26 -43 -77 -43q-12 0 -24 3t-19 6.5t-21 11t-20 10.5l-187 96q-26 15 -45 15q-20 0 -43 -27l-88 -106l-88 51l129 200q26 43 78 43q12 0 24 -3t18.5 -6t21.5 -10.5t20 -10.5l186 -96q26 -15 45 -15q20 0 43 27l88 106z" />
    <glyph glyph-name="hungarumlaut" unicode="&#x2dd;" horiz-adv-x="1024" 
d="M1026 1493l-324 -246q-13 -10 -20 -10q-12 0 -20 8l-44 39q-8 8 -8 14q0 9 8 17l287 297zM559 1493l-323 -246q-13 -10 -21 -10q-12 0 -20 8l-43 39q-9 9 -9 14q0 8 9 17l286 297z" />
    <glyph glyph-name="uni03A9" unicode="&#x3a9;" horiz-adv-x="1474" 
d="M1245 854q0 -245 -95 -401.5t-302 -190.5v-139h348v-123h-457v360q99 3 166.5 37.5t105 100.5t53 149t15.5 197q0 119 -20.5 209.5t-68.5 165t-137 114t-216 39.5q-102 0 -180 -26.5t-127 -72.5t-80 -114t-43 -143t-12 -168q0 -116 15.5 -200t53 -150t105 -100.5
t166.5 -37.5v-360h-457v123h348v139q-107 17 -185 68.5t-123.5 131.5t-67 177.5t-21.5 216.5q0 106 17 197.5t60 177t110.5 146t174.5 96.5t246 36q138 0 245 -36t174.5 -96.5t111 -146.5t60.5 -177.5t17 -198.5z" />
    <glyph glyph-name="uni03BC" unicode="&#x3bc;" horiz-adv-x="1187" 
d="M1047 0h-127l-35 135l-80 -55q-63 -43 -96 -63t-82 -35t-105 -15q-120 0 -229 68v-455h-162v1520h162v-762q0 -238 229 -238q69 0 122.5 21t133.5 76l109 73v830h160v-1100z" />
    <glyph glyph-name="pi" unicode="&#x3c0;" horiz-adv-x="1474" 
d="M1241 -16h-108q-120 0 -180 65t-60 203v706h-535v-958h-159v958h-162v146h1180v-146h-162v-706q0 -73 25 -103t79 -30h82v-135z" />
    <glyph glyph-name="Wgrave" unicode="&#x1e80;" horiz-adv-x="1781" 
d="M1733 1477l-344 -1477h-199l-275 1067q-17 65 -24 129q-8 -49 -27 -129l-274 -1067h-197l-344 1477h162l256 -1071q9 -39 35 -216q22 151 39 216l266 1024h168l266 -1024q23 -85 37 -213q25 169 35 213l258 1071h162zM1059 1614q0 -4 -8 -12l-50 -43q-9 -9 -16 -9
q-6 0 -22 13l-353 266l125 125l307 -318q3 -3 7 -7.5t6 -6.5z" />
    <glyph glyph-name="wgrave" unicode="&#x1e81;" horiz-adv-x="1646" 
d="M1589 1100l-344 -1100h-158l-227 735q-9 30 -19 81t-16 86l-6 36q-13 -135 -33 -203l-229 -735h-158l-342 1100h156l227 -752q8 -25 18 -75.5t16 -88.5l5 -37q19 138 39 201l230 752h151l229 -752q8 -28 17 -79t13 -89l5 -37q23 142 41 205l230 752h155zM963 1288
q0 -3 -9 -12l-49 -43q-8 -8 -16 -8t-23 12l-352 266l125 125l307 -317q3 -3 6.5 -8t5.5 -7q1 -2 2 -3.5t2 -2.5t1 -2z" />
    <glyph glyph-name="Wacute" unicode="&#x1e82;" horiz-adv-x="1781" 
d="M1733 1477l-344 -1477h-199l-275 1067q-17 65 -24 129q-8 -49 -27 -129l-274 -1067h-197l-344 1477h162l256 -1071q9 -39 35 -216q22 151 39 216l266 1024h168l266 -1024q23 -85 37 -213q25 169 35 213l258 1071h162zM1219 1829l-353 -266q-16 -13 -22 -13q-8 0 -17 9
l-49 43q-8 8 -8 12q0 6 16 22l308 318z" />
    <glyph glyph-name="wacute" unicode="&#x1e83;" horiz-adv-x="1646" 
d="M1589 1100l-344 -1100h-158l-227 735q-9 30 -19 81t-16 86l-6 36q-13 -135 -33 -203l-229 -735h-158l-342 1100h156l227 -752q8 -25 18 -75.5t16 -88.5l5 -37q19 138 39 201l230 752h151l229 -752q8 -28 17 -79t13 -89l5 -37q23 142 41 205l230 752h155zM1141 1503
l-353 -266q-15 -12 -22 -12q-8 0 -16 8l-50 43q-8 8 -8 12q0 6 17 23l307 317z" />
    <glyph glyph-name="Wdieresis" unicode="&#x1e84;" horiz-adv-x="1781" 
d="M1733 1477l-344 -1477h-199l-275 1067q-17 65 -24 129q-8 -49 -27 -129l-274 -1067h-197l-344 1477h162l256 -1071q9 -39 35 -216q22 151 39 216l266 1024h168l266 -1024q23 -85 37 -213q25 169 35 213l258 1071h162zM1208 1661q0 -15 -3 -18t-15 -3h-152q-12 0 -15 3
t-3 18v147q0 17 3 20t15 3h152q12 0 15 -3t3 -20v-147zM760 1661q0 -15 -3 -18t-16 -3h-151q-14 0 -17.5 3t-3.5 18v147q0 17 3.5 20t17.5 3h151q9 0 12.5 -1t5 -5.5t1.5 -16.5v-147z" />
    <glyph glyph-name="wdieresis" unicode="&#x1e85;" horiz-adv-x="1646" 
d="M1589 1100l-344 -1100h-158l-227 735q-9 30 -19 81t-16 86l-6 36q-13 -135 -33 -203l-229 -735h-158l-342 1100h156l227 -752q8 -25 18 -75.5t16 -88.5l5 -37q19 138 39 201l230 752h151l229 -752q8 -28 17 -79t13 -89l5 -37q23 142 41 205l230 752h155zM1143 1335
q0 -14 -3 -17t-16 -3h-151q-9 0 -12.5 1t-5 5t-1.5 14v148q0 16 3 19t16 3h151q10 0 12.5 -0.5t4.5 -5t2 -16.5v-148zM694 1335q0 -15 -3 -17.5t-15 -2.5h-152q-14 0 -17 2.5t-3 17.5v148q0 17 3 19.5t17 2.5h152h7t4.5 -0.5t3.5 -1.5t1.5 -4t1.5 -6.5v-9.5v-148z" />
    <glyph glyph-name="Ygrave" unicode="&#x1ef2;" horiz-adv-x="1312" 
d="M1264 1477l-527 -879v-598h-159v598l-529 879h176l406 -674q16 -29 26 -68q16 48 29 70l404 672h174zM834 1614q0 -3 -9 -12l-49 -43q-9 -9 -16 -9t-23 13l-352 266l125 125l307 -318q3 -3 6.5 -7.5t5.5 -6.5q1 -2 2 -3.5t2 -2.5t1 -2z" />
    <glyph glyph-name="ygrave" unicode="&#x1ef3;" horiz-adv-x="1124" 
d="M1069 1100l-520 -1389q-43 -115 -117.5 -161t-214.5 -46h-141v144h141q93 0 127.5 25t63.5 104l71 194l-424 1129h168l303 -809q8 -21 37 -139q23 98 39 139l301 809h166zM717 1288q0 -4 -8 -12l-50 -43q-8 -8 -16 -8q-7 0 -22 12l-353 266l125 125l307 -317q3 -3 7 -8
t6 -7z" />
    <glyph glyph-name="endash" unicode="&#x2013;" horiz-adv-x="1095" 
d="M1028 575h-962v154h962v-154z" />
    <glyph glyph-name="emdash" unicode="&#x2014;" horiz-adv-x="1867" 
d="M1800 575h-1734v154h1734v-154z" />
    <glyph glyph-name="quoteleft" unicode="&#x2018;" horiz-adv-x="364" 
d="M324 1501q-59 -56 -87 -113t-28 -131h59q16 0 18.5 -2.5t2.5 -19.5v-160q0 -18 -3 -21t-18 -3h-166q-15 0 -17.5 2.5t-2.5 21.5v160q0 95 48 179t130 145z" />
    <glyph glyph-name="quoteright" unicode="&#x2019;" horiz-adv-x="364" 
d="M283 1292q0 -95 -48 -178.5t-131 -144.5l-63 57q59 56 87 113t28 131h-60q-15 0 -17.5 2.5t-2.5 19.5v160q0 19 2.5 22t17.5 3h166q15 0 18 -3.5t3 -21.5v-160z" />
    <glyph glyph-name="quotesinglbase" unicode="&#x201a;" horiz-adv-x="364" 
d="M301 23q0 -103 -52.5 -194.5t-142.5 -156.5l-65 56q66 61 96.5 124.5t30.5 149.5h-70q-12 0 -15 3.5t-3 17.5v174q0 15 3 18.5t15 3.5h185q12 0 15 -3.5t3 -18.5v-174z" />
    <glyph glyph-name="quotedblleft" unicode="&#x201c;" horiz-adv-x="714" 
d="M674 1499q-59 -56 -87 -113t-28 -131h59q16 0 18.5 -2.5t2.5 -19.5v-160q0 -18 -3 -21t-18 -3h-165q-15 0 -18 3t-3 21v160q0 95 48 178.5t130 144.5zM324 1499q-59 -56 -87 -113t-28 -131h59q16 0 18.5 -2.5t2.5 -19.5v-160q0 -18 -3 -21t-18 -3h-166q-15 0 -17.5 2.5
t-2.5 21.5v160q0 95 48 178.5t130 144.5z" />
    <glyph glyph-name="quotedblright" unicode="&#x201d;" horiz-adv-x="714" 
d="M633 1292q0 -95 -48 -178.5t-130 -144.5l-64 57q59 56 87 113t28 131h-60q-15 0 -17.5 2.5t-2.5 19.5v160q0 19 2.5 22t17.5 3h166q15 0 18 -3.5t3 -21.5v-160zM283 1292q0 -95 -48 -178.5t-131 -144.5l-63 57q59 56 87 113t28 131h-60q-15 0 -17.5 2.5t-2.5 19.5v160
q0 19 2.5 22t17.5 3h166q15 0 18 -3.5t3 -21.5v-160z" />
    <glyph glyph-name="quotedblbase" unicode="&#x201e;" horiz-adv-x="714" 
d="M692 20q0 -103 -51 -194t-139 -156l-64 56q64 61 94.5 124.5t30.5 149.5h-69q-12 0 -15.5 3.5t-3.5 16.5v175q0 15 3.5 18.5t15.5 3.5h180q12 0 15 -3.5t3 -18.5v-175zM246 20q0 -103 -51 -194t-140 -156l-63 56q64 61 94.5 124.5t30.5 149.5h-70q-12 0 -15 3.5t-3 16.5
v175q0 15 3 18.5t15 3.5h180q12 0 15.5 -3.5t3.5 -18.5v-175z" />
    <glyph glyph-name="dagger" unicode="&#x2020;" horiz-adv-x="1218" 
d="M1112 905h-391l-41 8l8 -51v-862h-153v862l14 51l-51 -8h-392v146h392l51 -11l-14 43v512h153v-512l-8 -43l41 11h391v-146z" />
    <glyph glyph-name="daggerdbl" unicode="&#x2021;" horiz-adv-x="1218" 
d="M1112 555h-391l-41 8l8 -49v-514h-153v514l14 49l-51 -8h-392v145h392l51 -10l-14 45v176l14 52l-51 -11h-392v148h392l51 -13l-14 46v462h153v-462l-8 -46l41 13h391v-148h-391l-41 11l8 -52v-176l-8 -45l41 10h391v-145z" />
    <glyph glyph-name="bullet" unicode="&#x2022;" horiz-adv-x="972" 
d="M842 590q0 -148 -103.5 -252.5t-251.5 -104.5t-252 104.5t-104 252.5t104 252t252 104t251.5 -104t103.5 -252z" />
    <glyph glyph-name="ellipsis" unicode="&#x2026;" horiz-adv-x="1435" 
d="M1305 20q0 -13 -3.5 -16.5t-15.5 -3.5h-178q-12 0 -15 3.5t-3 16.5v181q0 16 2.5 19t15.5 3h178q10 0 12.5 -0.5t4.5 -5t2 -16.5v-181zM836 20q0 -13 -3.5 -16.5t-15.5 -3.5h-178q-12 0 -15 3.5t-3 16.5v181q0 16 2.5 19t15.5 3h178q10 0 12.5 -0.5t4.5 -5t2 -16.5v-181z
M346 20q0 -13 -3 -16.5t-15 -3.5h-178q-12 0 -15.5 3.5t-3.5 16.5v181q0 16 3 19t16 3h178h7t4.5 -0.5t3.5 -1.5t1.5 -4t1.5 -6.5v-9.5v-181z" />
    <glyph glyph-name="perthousand" unicode="&#x2030;" horiz-adv-x="2549" 
d="M696 1067q0 -86 -6 -149t-24.5 -125.5t-50.5 -101t-86.5 -62t-129.5 -23.5t-129.5 23.5t-86.5 62t-50.5 101t-24.5 125.5t-6 149q0 82 7 144.5t26.5 121t52 95.5t85.5 59t126 22t126 -22t85.5 -59t52 -95.5t26.5 -121t7 -144.5zM563 1067q0 69 -2.5 112t-12 87t-27 67.5
t-48 38t-74.5 14.5t-74.5 -14.5t-48.5 -38.5t-27.5 -67t-12.5 -87t-3 -112q0 -59 2 -99t7.5 -82.5t16.5 -69t29 -49t46 -32.5t65 -10t64 10t45 32.5t29 49t16.5 69t7.5 82.5t2 99zM1718 442q0 -86 -6 -149t-24.5 -125t-50.5 -100.5t-86.5 -62t-129.5 -23.5t-129.5 23.5
t-86.5 62t-50.5 100.5t-24.5 125t-6 149q0 83 7 145.5t26.5 120.5t52 95.5t85.5 59.5t126 22t126 -22t85.5 -59.5t52 -95.5t26.5 -120.5t7 -145.5zM1585 442q0 57 -2 95t-7.5 77.5t-16.5 64t-29 45t-45 29.5t-64 9q-44 0 -74.5 -14.5t-48.5 -38.5t-27.5 -67.5t-12.5 -87.5
t-3 -112q0 -59 2 -99t7.5 -82.5t16.5 -69t29 -49t46 -32.5t65 -10t64 10t45 32.5t29 49t16.5 69t7.5 82.5t2 99zM1468 1509l-991 -1540h-139l991 1540h139zM2447 442q0 -86 -6 -149t-24.5 -125t-50.5 -100.5t-86.5 -62t-129.5 -23.5t-129.5 23.5t-86.5 62t-50.5 100.5
t-24.5 125t-6 149q0 83 7 145.5t26.5 120.5t52 95.5t85.5 59.5t126 22t126 -22t85.5 -59.5t52 -95.5t26.5 -120.5t7 -145.5zM2314 442q0 57 -2 95t-7.5 77.5t-16.5 64t-29 45t-45 29.5t-64 9q-44 0 -74.5 -14.5t-48.5 -38.5t-27.5 -67.5t-12 -87.5t-2.5 -112
q0 -60 1.5 -99.5t7 -82.5t17 -69t29.5 -48.5t45.5 -32.5t64.5 -10t64 10t45 32.5t29 49t16.5 69t7.5 82.5t2 99z" />
    <glyph glyph-name="guilsinglleft" unicode="&#x2039;" horiz-adv-x="714" 
d="M582 242l-88 -76l-361 385l361 385l88 -76l-265 -309z" />
    <glyph glyph-name="guilsinglright" unicode="&#x203a;" horiz-adv-x="714" 
d="M582 551l-361 -385l-88 76l264 309l-264 309l88 76z" />
    <glyph glyph-name="fraction" unicode="&#x2044;" horiz-adv-x="776" 
d="M1075 1509l-991 -1540h-139l991 1540h139z" />
    <glyph glyph-name="n.superior" unicode="&#x207f;" horiz-adv-x="737" 
d="M662 621h-134v430q0 87 -30 120t-86 33q-42 0 -86 -21.5t-107 -66.5v-495h-133v682h111l18 -64q103 84 219 84q98 0 163 -66t65 -202v-434z" />
    <glyph glyph-name="Euro" unicode="&#x20ac;" 
d="M1174 264q-19 -46 -40 -83t-58 -78.5t-82 -69t-113 -46t-150 -18.5q-110 0 -195.5 28t-141.5 74.5t-95.5 116.5t-59 143.5t-30.5 164.5h-154l47 127h97q-2 39 -2 116v68h-136l50 125h92q8 99 26 178.5t56 156.5t93 128t142 82.5t199 31.5q96 0 172 -22t124 -58
t80.5 -87.5t47 -106t18.5 -119.5h-149q-5 44 -15 78t-31 68t-52 56t-81 36t-116 14q-83 0 -145 -24.5t-99.5 -64t-62 -98.5t-34.5 -117t-14 -132h619l-45 -125h-576v-68q0 -77 2 -116h521l-45 -127h-467q7 -65 21 -118t41 -104t65.5 -85t97.5 -55t135 -21q118 0 192.5 50
t120.5 167z" />
    <glyph glyph-name="afii61289" unicode="&#x2113;" horiz-adv-x="753" 
d="M573 1233q0 -64 -14.5 -132.5t-47.5 -147.5t-96.5 -161.5t-150.5 -154.5v-385q0 -73 25.5 -103t79.5 -30h82v-135h-109q-240 0 -240 268v287q-92 -53 -108 -60l-37 94q85 50 145 93v485q0 77 4.5 134.5t19.5 119.5t41.5 101.5t73 65t111.5 25.5q36 0 65.5 -7.5t51.5 -19
t38.5 -32.5t27.5 -39t18.5 -48t11.5 -51t5.5 -56.5t2 -55t0.5 -55.5zM457 1233q0 45 -0.5 71.5t-3.5 57.5t-8.5 48t-15 32.5t-24 21.5t-34.5 6q-65 0 -86 -80t-21 -251v-361q109 109 151 221.5t42 233.5z" />
    <glyph glyph-name="trademark" unicode="&#x2122;" horiz-adv-x="1464" 
d="M1343 780h-110l-37 475l-149 -319h-99l-149 319l-37 -475h-109l52 697h104l188 -402l189 402h106zM635 1374h-211v-594h-113v594h-211v103h535v-103z" />
    <glyph glyph-name="Omega" unicode="&#x2126;" horiz-adv-x="1474" 
d="M1245 854q0 -245 -95 -401.5t-302 -190.5v-139h348v-123h-457v360q99 3 166.5 37.5t105 100.5t53 149t15.5 197q0 119 -20.5 209.5t-68.5 165t-137 114t-216 39.5q-102 0 -180 -26.5t-127 -72.5t-80 -114t-43 -143t-12 -168q0 -116 15.5 -200t53 -150t105 -100.5
t166.5 -37.5v-360h-457v123h348v139q-107 17 -185 68.5t-123.5 131.5t-67 177.5t-21.5 216.5q0 106 17 197.5t60 177t110.5 146t174.5 96.5t246 36q138 0 245 -36t174.5 -96.5t111 -146.5t60.5 -177.5t17 -198.5z" />
    <glyph glyph-name="estimated" unicode="&#x212e;" horiz-adv-x="1241" 
d="M1182 578h-879v-396q135 -129 311 -129q67 0 124.5 14.5t99.5 36.5t81 58t66.5 70t58.5 81l64 -39q-43 -67 -87 -115.5t-103 -89.5t-135 -62t-169 -21q-163 0 -291 81.5t-196 216.5t-68 296q0 164 67 298t197 215t300 81q169 0 298 -82.5t195 -217t66 -296.5zM936 645
v334q-59 54 -143.5 90.5t-169.5 36.5q-196 0 -320 -127v-334h633z" />
    <glyph glyph-name="onethird" unicode="&#x2153;" horiz-adv-x="1779" 
d="M594 625h-500v118h182v607v14q-7 -1 -80 -17t-104 -22v125l316 63v-770h186v-118zM1444 1509l-991 -1540h-140l992 1540h139zM1688 260q0 -136 -84 -207t-224 -71q-115 0 -188.5 42.5t-124.5 137.5l111 53q35 -62 80.5 -89.5t121.5 -27.5q85 0 130.5 42t45.5 120
q0 65 -40 101t-109 36h-143l-33 121h176q59 0 96 33t37 98q0 121 -143 121q-76 0 -122 -28.5t-83 -92.5l-111 53q55 94 129.5 138.5t186.5 44.5q75 0 130.5 -19t85.5 -53t44 -74.5t14 -89.5q0 -116 -88 -184q47 -32 76 -86t29 -119z" />
    <glyph glyph-name="twothirds" unicode="&#x2154;" horiz-adv-x="1830" 
d="M1495 1509l-991 -1540h-139l991 1540h139zM1739 260q0 -137 -83.5 -207.5t-223.5 -70.5q-115 0 -189 43t-125 137l111 53q35 -62 81 -89.5t122 -27.5q85 0 130.5 42t45.5 120q0 65 -40.5 101t-109.5 36h-143l-33 121h176q59 0 96 33t37 98q0 121 -143 121
q-76 0 -122 -28.5t-83 -92.5l-110 53q55 94 129 138.5t186 44.5q75 0 130.5 -19t85.5 -53t44 -74.5t14 -89.5q0 -116 -88 -184q47 -32 76 -86t29 -119zM672 1257q0 -31 -7.5 -60t-17 -51t-30.5 -47t-35.5 -40.5t-44.5 -39.5t-45 -35t-50 -36q-80 -56 -129.5 -103t-70.5 -102
h305v123h123v-241h-578q0 49 9.5 93t21.5 76.5t37 67t43 55.5t53 50t53 42t56 40q58 39 90 64t59 64.5t27 79.5q0 64 -35.5 96.5t-97.5 32.5q-94 0 -134 -37t-49 -102h-123q2 47 18.5 90t50 82.5t94.5 63.5t143 24q117 0 190.5 -66.5t73.5 -183.5z" />
    <glyph glyph-name="oneeighth" unicode="&#x215b;" horiz-adv-x="1773" 
d="M594 625h-500v118h182v607v14q-7 -1 -80 -17t-104 -22v125l316 63v-770h186v-118zM1444 1509l-991 -1540h-140l992 1540h139zM1681 264q0 -278 -301 -278q-155 0 -227 71t-72 207q0 123 93 199q-34 27 -57 73.5t-23 104.5q0 119 71 182.5t215 63.5t216.5 -63.5
t72.5 -182.5q0 -111 -82 -178q94 -74 94 -199zM1550 264q0 58 -32.5 95.5t-90.5 37.5h-94q-57 0 -89 -37.5t-32 -95.5q0 -89 40 -123.5t128 -34.5q89 0 129.5 34.5t40.5 123.5zM1538 641q0 75 -40.5 100t-117.5 25t-117 -25t-40 -100q0 -61 31 -90t73 -29h107q43 0 73.5 29
t30.5 90z" />
    <glyph glyph-name="threeeighths" unicode="&#x215c;" horiz-adv-x="1806" 
d="M1477 1509l-992 -1540h-139l991 1540h140zM1714 264q0 -278 -301 -278q-155 0 -227 71t-72 207q0 124 92 199q-34 27 -57 73.5t-23 104.5q0 119 71.5 182.5t215.5 63.5t216.5 -63.5t72.5 -182.5q0 -111 -82 -178q94 -74 94 -199zM1583 264q0 58 -32.5 95.5t-90.5 37.5
h-94q-57 0 -89 -37.5t-32 -95.5q0 -89 40 -123.5t128 -34.5q89 0 129.5 34.5t40.5 123.5zM1571 641q0 75 -40.5 100t-117.5 25t-117.5 -25t-40.5 -100q0 -61 31.5 -90t73.5 -29h106q44 0 74.5 29t30.5 90zM713 885q0 -137 -83.5 -208t-223.5 -71q-115 0 -189 43t-125 137
l111 54q35 -62 81 -89.5t122 -27.5q85 0 130.5 42t45.5 120q0 65 -40.5 101t-109.5 36h-143l-33 121h176q59 0 96 33t37 98q0 121 -143 121q-76 0 -122 -28.5t-83 -92.5l-111 53q55 94 129.5 138t186.5 44q76 0 131 -19t85 -53t44 -74t14 -89q0 -116 -88 -184q47 -32 76 -86
t29 -119z" />
    <glyph glyph-name="fiveeighths" unicode="&#x215d;" horiz-adv-x="1806" 
d="M1477 1509l-992 -1540h-139l991 1540h140zM1714 264q0 -278 -301 -278q-155 0 -227 71t-72 207q0 124 92 199q-34 27 -57 73.5t-23 104.5q0 119 71.5 182.5t215.5 63.5t216.5 -63.5t72.5 -182.5q0 -111 -82 -178q94 -74 94 -199zM1583 264q0 58 -32.5 95.5t-90.5 37.5
h-94q-57 0 -89 -37.5t-32 -95.5q0 -89 40 -123.5t128 -34.5q89 0 129.5 34.5t40.5 123.5zM1571 641q0 75 -40.5 100t-117.5 25t-117.5 -25t-40.5 -100q0 -61 31.5 -90t73.5 -29h106q44 0 74.5 29t30.5 90zM713 893q0 -130 -76.5 -208.5t-230.5 -78.5q-115 0 -189 43
t-125 137l111 54q35 -62 81 -89.5t122 -27.5q90 0 133 45t43 125q0 99 -45.5 134.5t-126.5 35.5q-98 0 -205 -29l-62 43l47 414h506l-37 -121h-358l-22 -199q59 11 131 11q303 0 303 -289z" />
    <glyph glyph-name="seveneighths" unicode="&#x215e;" horiz-adv-x="1630" 
d="M1300 1509l-991 -1540h-139l991 1540h139zM1538 264q0 -278 -301 -278q-155 0 -227 71t-72 207q0 124 92 199q-34 27 -57 73.5t-23 104.5q0 119 71.5 182.5t215.5 63.5t216.5 -63.5t72.5 -182.5q0 -111 -82 -178q94 -74 94 -199zM1407 264q0 58 -32.5 95.5t-90.5 37.5
h-94q-57 0 -89 -37.5t-32 -95.5q0 -89 40 -123.5t128 -34.5q89 0 129.5 34.5t40.5 123.5zM1395 641q0 75 -40.5 100t-117.5 25t-117.5 -25t-40.5 -100q0 -61 31.5 -90t73.5 -29h106q44 0 74.5 29t30.5 90zM686 1382l-403 -757h-150l389 737v4q2 2 6 4h-313v-123h-123v244
h594v-109z" />
    <glyph glyph-name="partialdiff" unicode="&#x2202;" horiz-adv-x="1474" 
d="M1122 944q0 -235 -28 -387q-55 -304 -197 -447t-408 -143q-211 0 -307 103t-96 297q0 94 18 208q52 286 188 423t390 137q162 0 268 -82q-1 58 -9 107t-27.5 99.5t-54.5 89.5t-85.5 70t-124.5 47.5t-168 16.5q-63 0 -133 -6l12 116q97 11 154 11q139 0 244.5 -32
t174 -88.5t111.5 -141t60.5 -181t17.5 -217.5zM946 745q0 140 -64 203.5t-204 63.5q-179 0 -275.5 -106.5t-140.5 -354.5q-20 -103 -20 -191q0 -142 65 -206t205 -64q179 0 274.5 107t139.5 356q20 123 20 192z" />
    <glyph glyph-name="Delta" unicode="&#x2206;" horiz-adv-x="1474" 
d="M1221 0h-1262l545 1477h174zM999 137l-415 1176l-412 -1176h827z" />
    <glyph glyph-name="product" unicode="&#x220f;" horiz-adv-x="1474" 
d="M1249 1341h-166v-1341h-161v1341h-666v-1341h-162v1341h-168v136h1323v-136z" />
    <glyph glyph-name="summation" unicode="&#x2211;" horiz-adv-x="1474" 
d="M1114 0h-944v133l418 643l-418 567v134h944v-136h-772l418 -565l-418 -641h772v-135z" />
    <glyph glyph-name="minus" unicode="&#x2212;" 
d="M1120 659h-995v156h995v-156z" />
    <glyph glyph-name="uni2215" unicode="&#x2215;" horiz-adv-x="776" 
d="M1075 1509l-991 -1540h-139l991 1540h139z" />
    <glyph glyph-name="uni2219" unicode="&#x2219;" horiz-adv-x="485" 
d="M354 786q0 -13 -3 -16.5t-15 -3.5h-186q-12 0 -15.5 3.5t-3.5 16.5v181q0 17 2.5 19.5t16.5 2.5h186q14 0 16 -2.5t2 -19.5v-181z" />
    <glyph glyph-name="radical" unicode="&#x221a;" horiz-adv-x="1474" 
d="M1479 1331h-361l-432 -1331h-178l-264 846h-242v145h365l229 -805l401 1291h482v-146z" />
    <glyph glyph-name="infinity" unicode="&#x221e;" horiz-adv-x="1474" 
d="M1214 772q0 -74 -7 -136.5t-27.5 -128.5t-55 -111.5t-94 -75t-139.5 -29.5q-167 0 -277 112q-44 -63 -95.5 -89.5t-117.5 -26.5q-57 0 -103 15.5t-78 41t-55.5 64t-37 78.5t-22 91.5t-11 96.5t-2.5 98q0 481 322 481q155 0 272 -114q45 63 96.5 89.5t124.5 26.5
q58 0 104 -15.5t77.5 -40.5t55 -63.5t36.5 -78t21 -91t10.5 -96t2.5 -98.5zM1073 772q0 83 -6 140.5t-23 109.5t-51 78t-86 26q-83 0 -119 -74.5t-67 -281.5q-25 -177 -47 -248q97 -104 217 -104q53 0 89.5 27t56 77.5t28 111t8.5 138.5zM627 1024q-92 100 -211 100
q-53 0 -89.5 -27t-55.5 -78.5t-27 -111.5t-8 -139q0 -52 2 -91.5t8 -82.5t17.5 -73t29 -55t45 -37.5t63.5 -12.5q80 0 118.5 78.5t66.5 287.5q19 150 41 242z" />
    <glyph glyph-name="integral" unicode="&#x222b;" horiz-adv-x="1474" 
d="M1174 1565l-31 -127q-143 26 -203 26q-53 0 -93 -10.5t-75 -36t-53.5 -75t-18.5 -121.5l-2 -1268q0 -373 -385 -373q-126 0 -250 31l33 129q122 -27 201 -27q109 0 173.5 56t64.5 194v1258q0 85 21 151t56.5 107.5t86.5 68t105.5 37t119.5 10.5q130 0 250 -30z" />
    <glyph glyph-name="approxequal" unicode="&#x2248;" 
d="M1120 1034q-52 -74 -118 -107.5t-156 -33.5q-53 0 -104.5 18t-92 44t-79.5 52t-83.5 44t-87.5 18q-90 0 -156 -33.5t-118 -107.5v174q52 74 118 107.5t156 33.5q59 0 113 -18t94 -44t77 -52t79 -44t84 -18q90 0 156 33.5t118 107.5v-174zM1120 606q-52 -74 -118 -107.5
t-156 -33.5q-53 0 -104.5 18t-92 44t-79.5 52t-83.5 44t-87.5 18q-90 0 -156 -33.5t-118 -107.5v174q52 74 118 107.5t156 33.5q59 0 113 -18t94 -44t77 -52t79 -44t84 -18q90 0 156 33.5t118 107.5v-174z" />
    <glyph glyph-name="notequal" unicode="&#x2260;" 
d="M1008 1509l-199 -446h321v-156h-389l-149 -336h538v-155h-608l-198 -449h-140l199 449h-268v155h336l149 336h-485v156h555l198 446h140z" />
    <glyph glyph-name="lessequal" unicode="&#x2264;" 
d="M995 266h-209l-577 574l577 573h209l-577 -573zM1161 0h-1077v156h1077v-156z" />
    <glyph glyph-name="greaterequal" unicode="&#x2265;" 
d="M1036 840l-577 -574h-209l577 574l-577 573h209zM1161 0h-1077v156h1077v-156z" />
    <glyph glyph-name="lozenge" unicode="&#x25ca;" horiz-adv-x="1433" 
d="M1188 764l-547 -666l-547 666l547 668zM999 764l-358 467l-358 -467l358 -467z" />
    <glyph glyph-name="I.alt" unicode="&#xe000;" horiz-adv-x="643" 
d="M573 0h-503v121h172v1235h-172v121h503v-121h-172v-1235h172v-121z" />
    <glyph glyph-name="IJ.alt" unicode="&#xe001;" horiz-adv-x="1564" 
d="M1434 424q0 -126 -29.5 -216t-87 -142t-132.5 -75.5t-175 -23.5q-88 0 -154.5 22t-130.5 74l82 115q93 -72 203 -72q146 0 205 71.5t59 246.5v842q0 39 14 67h-399l-41 144h586v-1053zM573 0h-503v121h172v1235h-172v121h503v-121h-172v-1235h172v-121z" />
    <glyph glyph-name="Iacute.alt" unicode="&#xe002;" horiz-adv-x="643" 
d="M557 1849l-352 -266q-15 -12 -23 -12t-16 8l-49 43q-8 8 -8 12q0 7 16 23l307 317zM573 0h-503v121h172v1235h-172v121h503v-121h-172v-1235h172v-121z" />
    <glyph glyph-name="Ibreve.alt" unicode="&#xe003;" horiz-adv-x="643" 
d="M662 1812q-58 -130 -133.5 -197t-196.5 -67t-198 67t-134 197l76 56q59 -100 114 -139t140 -39t141.5 38.5t114.5 139.5zM573 0h-503v121h172v1235h-172v121h503v-121h-172v-1235h172v-121z" />
    <glyph glyph-name="Icircumflex.alt" unicode="&#xe004;" horiz-adv-x="643" 
d="M645 1640l-78 -69l-252 215l-252 -215l-77 69l274 283q33 33 55 33q25 0 56 -33zM573 0h-503v121h172v1235h-172v121h503v-121h-172v-1235h172v-121z" />
    <glyph glyph-name="Idieresis.alt" unicode="&#xe005;" horiz-adv-x="643" 
d="M616 1655q0 -13 -3 -16t-15 -3h-139q-12 0 -15.5 3t-3.5 16v137q0 14 3 17t16 3h139h9.5t5 -2.5t3 -6t0.5 -11.5v-137zM201 1655q0 -13 -3.5 -16t-15.5 -3h-139q-12 0 -15 3t-3 16v137q0 14 2.5 17t15.5 3h139q9 0 12.5 -1t5 -5t1.5 -14v-137zM573 0h-503v121h172v1235
h-172v121h503v-121h-172v-1235h172v-121z" />
    <glyph glyph-name="Idotaccent.alt" unicode="&#xe006;" horiz-adv-x="643" 
d="M434 1665q0 -13 -3 -16.5t-15 -3.5h-187q-12 0 -15 3.5t-3 16.5v180q0 17 2.5 20t15.5 3h187q14 0 16 -3t2 -20v-180zM573 0h-503v121h172v1235h-172v121h503v-121h-172v-1235h172v-121z" />
    <glyph glyph-name="Igrave.alt" unicode="&#xe007;" horiz-adv-x="643" 
d="M549 1634q0 -4 -8 -12l-49 -43q-8 -8 -17 -8q-7 0 -22 12l-353 266l125 125l307 -317q3 -3 7 -8t6 -7zM573 0h-503v121h172v1235h-172v121h503v-121h-172v-1235h172v-121z" />
    <glyph glyph-name="Imacron.alt" unicode="&#xe008;" horiz-adv-x="643" 
d="M653 1645h-676v137h676v-137zM573 0h-503v121h172v1235h-172v121h503v-121h-172v-1235h172v-121z" />
    <glyph glyph-name="Iogonek.alt" unicode="&#xe009;" horiz-adv-x="643" 
d="M522 -367q-90 -41 -205 -41q-106 0 -167.5 38.5t-61.5 136.5q0 39 16 67.5t54 63.5l112 102h-200v121h172v1235h-172v121h503v-121h-172v-1235h172v-121h-147l-168 -166q-29 -29 -29 -67q0 -84 88 -84q95 0 177 26z" />
    <glyph glyph-name="Itilde.alt" unicode="&#xe00a;" horiz-adv-x="643" 
d="M729 1786l-129 -201q-26 -43 -78 -43q-12 0 -24 3t-19 6.5t-21 11t-20 10.5l-186 96q-24 14 -45 14t-43 -26l-88 -107l-88 52l129 200q26 43 78 43q12 0 24 -3t18.5 -6t21.5 -10.5t20 -10.5l186 -97q25 -14 45 -14t43 27l88 106zM573 0h-503v121h172v1235h-172v121h503
v-121h-172v-1235h172v-121z" />
    <glyph glyph-name="J.alt" unicode="&#xe00b;" horiz-adv-x="876" 
d="M745 424q0 -126 -29.5 -216t-86.5 -142t-132 -75.5t-175 -23.5q-88 0 -154.5 22t-130.5 74l82 115q93 -72 203 -72q146 0 205 71.5t59 246.5v842q0 39 14 67h-399l-41 144h585v-1053z" />
    <glyph glyph-name="Jcircumflex.alt" unicode="&#xe00c;" horiz-adv-x="876" 
d="M993 1618l-78 -70l-251 215l-252 -215l-78 70l274 283q32 32 56 32q23 0 55 -32zM745 424q0 -126 -29.5 -216t-86.5 -142t-132 -75.5t-175 -23.5q-88 0 -154.5 22t-130.5 74l82 115q93 -72 203 -72q146 0 205 71.5t59 246.5v842q0 39 14 67h-399l-41 144h585v-1053z" />
    <glyph glyph-name="a.alt" unicode="&#xe00d;" horiz-adv-x="1185" 
d="M1141 0h-78q-72 0 -119.5 22.5t-73.5 86.5q-100 -79 -188 -110.5t-211 -31.5q-180 0 -276.5 92.5t-96.5 270.5q0 94 32 162.5t91 107.5t133 57.5t166 18.5q175 0 330 -47v182q0 58 -17.5 96.5t-52.5 58t-75 26.5t-97 7q-228 0 -315 -125l-125 76q59 99 179.5 141
t260.5 42q92 0 162 -15.5t125.5 -51.5t85 -100.5t29.5 -156.5v-590q0 -48 13 -63t40 -15h78v-141zM850 225v287q-11 2 -82.5 14t-122.5 17.5t-100 5.5q-283 0 -283 -219q0 -109 51.5 -170.5t157.5 -61.5q108 0 194 30.5t185 96.5z" />
    <glyph glyph-name="aacute.alt" unicode="&#xe00e;" horiz-adv-x="1185" 
d="M1141 0h-78q-72 0 -119.5 22.5t-73.5 86.5q-100 -79 -188 -110.5t-211 -31.5q-180 0 -276.5 92.5t-96.5 270.5q0 94 32 162.5t91 107.5t133 57.5t166 18.5q175 0 330 -47v182q0 58 -17.5 96.5t-52.5 58t-75 26.5t-97 7q-228 0 -315 -125l-125 76q59 99 179.5 141
t260.5 42q92 0 162 -15.5t125.5 -51.5t85 -100.5t29.5 -156.5v-590q0 -48 13 -63t40 -15h78v-141zM850 225v287q-11 2 -82.5 14t-122.5 17.5t-100 5.5q-283 0 -283 -219q0 -109 51.5 -170.5t157.5 -61.5q108 0 194 30.5t185 96.5zM928 1503l-353 -266q-15 -12 -22 -12
q-8 0 -16 8l-50 43q-8 8 -8 12q0 6 17 23l307 317z" />
    <glyph glyph-name="abreve.alt" unicode="&#xe00f;" horiz-adv-x="1150" 
d="M956 1491q-38 -85 -78.5 -140t-104 -89.5t-146.5 -34.5q-121 0 -198 67t-134 197l76 55q59 -100 114 -139t140 -39t141.5 38.5t114.5 139.5zM1141 0h-78q-72 0 -119.5 22.5t-73.5 86.5q-100 -79 -188 -110.5t-211 -31.5q-180 0 -276.5 92.5t-96.5 270.5q0 94 32 162.5
t91 107.5t133 57.5t166 18.5q175 0 330 -47v182q0 58 -17.5 96.5t-52.5 58t-75 26.5t-97 7q-228 0 -315 -125l-125 76q59 99 179.5 141t260.5 42q92 0 162 -15.5t125.5 -51.5t85 -100.5t29.5 -156.5v-590q0 -48 13 -63t40 -15h78v-141zM850 225v287q-11 2 -82.5 14
t-122.5 17.5t-100 5.5q-283 0 -283 -219q0 -109 51.5 -170.5t157.5 -61.5q108 0 194 30.5t185 96.5z" />
    <glyph glyph-name="acircumflex.alt" unicode="&#xe010;" horiz-adv-x="1185" 
d="M1141 0h-78q-72 0 -119.5 22.5t-73.5 86.5q-100 -79 -188 -110.5t-211 -31.5q-180 0 -276.5 92.5t-96.5 270.5q0 94 32 162.5t91 107.5t133 57.5t166 18.5q175 0 330 -47v182q0 58 -17.5 96.5t-52.5 58t-75 26.5t-97 7q-228 0 -315 -125l-125 76q59 99 179.5 141
t260.5 42q92 0 162 -15.5t125.5 -51.5t85 -100.5t29.5 -156.5v-590q0 -48 13 -63t40 -15h78v-141zM850 225v287q-11 2 -82.5 14t-122.5 17.5t-100 5.5q-283 0 -283 -219q0 -109 51.5 -170.5t157.5 -61.5q108 0 194 30.5t185 96.5zM915 1290l-77 -69l-252 215l-252 -215
l-78 69l274 283q33 33 56 33q22 0 55 -33z" />
    <glyph glyph-name="adieresis.alt" unicode="&#xe011;" horiz-adv-x="1185" 
d="M1141 0h-78q-72 0 -119.5 22.5t-73.5 86.5q-100 -79 -188 -110.5t-211 -31.5q-180 0 -276.5 92.5t-96.5 270.5q0 94 32 162.5t91 107.5t133 57.5t166 18.5q175 0 330 -47v182q0 58 -17.5 96.5t-52.5 58t-75 26.5t-97 7q-228 0 -315 -125l-125 76q59 99 179.5 141
t260.5 42q92 0 162 -15.5t125.5 -51.5t85 -100.5t29.5 -156.5v-590q0 -48 13 -63t40 -15h78v-141zM850 225v287q-11 2 -82.5 14t-122.5 17.5t-100 5.5q-283 0 -283 -219q0 -109 51.5 -170.5t157.5 -61.5q108 0 194 30.5t185 96.5zM911 1335q0 -15 -2.5 -17.5t-15.5 -2.5
h-152q-13 0 -15.5 2.5t-2.5 17.5v148q0 16 2.5 19t15.5 3h152h7t4.5 -0.5t3.5 -1.5t1.5 -4t1.5 -6.5v-9.5v-148zM463 1335q0 -14 -3 -17t-16 -3h-151h-9.5t-5.5 1t-4 3.5t-1.5 6t-0.5 9.5v148q0 16 3 19t18 3h151q10 0 12.5 -0.5t4.5 -5t2 -16.5v-148z" />
    <glyph glyph-name="agrave.alt" unicode="&#xe012;" horiz-adv-x="1185" 
d="M1141 0h-78q-72 0 -119.5 22.5t-73.5 86.5q-100 -79 -188 -110.5t-211 -31.5q-180 0 -276.5 92.5t-96.5 270.5q0 94 32 162.5t91 107.5t133 57.5t166 18.5q175 0 330 -47v182q0 58 -17.5 96.5t-52.5 58t-75 26.5t-97 7q-228 0 -315 -125l-125 76q59 99 179.5 141
t260.5 42q92 0 162 -15.5t125.5 -51.5t85 -100.5t29.5 -156.5v-590q0 -48 13 -63t40 -15h78v-141zM850 225v287q-11 2 -82.5 14t-122.5 17.5t-100 5.5q-283 0 -283 -219q0 -109 51.5 -170.5t157.5 -61.5q108 0 194 30.5t185 96.5zM762 1288q0 -4 -8 -12l-49 -43
q-8 -8 -17 -8q-7 0 -22 12l-353 266l125 125l307 -317q3 -3 7 -8t6 -7z" />
    <glyph glyph-name="amacron.alt" unicode="&#xe013;" horiz-adv-x="1185" 
d="M1141 0h-78q-72 0 -119.5 22.5t-73.5 86.5q-100 -79 -188 -110.5t-211 -31.5q-180 0 -276.5 92.5t-96.5 270.5q0 94 32 162.5t91 107.5t133 57.5t166 18.5q175 0 330 -47v182q0 58 -17.5 96.5t-52.5 58t-75 26.5t-97 7q-228 0 -315 -125l-125 76q59 99 179.5 141
t260.5 42q92 0 162 -15.5t125.5 -51.5t85 -100.5t29.5 -156.5v-590q0 -48 13 -63t40 -15h78v-141zM850 225v287q-11 2 -82.5 14t-122.5 17.5t-100 5.5q-283 0 -283 -219q0 -109 51.5 -170.5t157.5 -61.5q108 0 194 30.5t185 96.5zM934 1323h-676v137h676v-137z" />
    <glyph glyph-name="aogonek.alt" unicode="&#xe014;" horiz-adv-x="1185" 
d="M1171 -367q-90 -41 -204 -41q-106 0 -168 38.5t-62 136.5q0 39 16 67.5t54 63.5l135 122h4q-49 22 -76 89q-100 -79 -188 -110.5t-211 -31.5q-180 0 -276.5 92.5t-96.5 270.5q0 94 32 162.5t91 107.5t133 57.5t166 18.5q175 0 330 -47v182q0 58 -17.5 96.5t-52.5 58
t-75 26.5t-97 7q-228 0 -315 -125l-125 76q59 99 179.5 141t260.5 42q92 0 162 -15.5t125.5 -51.5t85 -100.5t29.5 -156.5v-590q0 -48 13 -63t40 -15h78v-141h-66l-168 -166q-28 -28 -28 -67q0 -84 88 -84q94 0 176 26zM850 225v287q-11 2 -82.5 14t-122.5 17.5t-100 5.5
q-283 0 -283 -219q0 -109 51.5 -170.5t157.5 -61.5q108 0 194 30.5t185 96.5z" />
    <glyph glyph-name="apple" unicode="&#xe015;" horiz-adv-x="1617" 
d="M1419 756q0 -147 -16.5 -261.5t-59 -216t-110.5 -168.5t-175.5 -105t-250.5 -38q-144 0 -251 38.5t-174.5 104.5t-109 168t-57.5 216.5t-16 261.5q0 133 16 239.5t57.5 205t108.5 164.5t174.5 105t249.5 39q143 0 251.5 -39t176.5 -105t110.5 -164t59 -205.5t16.5 -239.5
zM1255 514q0 141 -75.5 238.5t-225.5 124.5l-225 41q-54 9 -69 26t-15 70q0 27 4 43t19 32.5t49 23.5t90 7q78 0 122.5 -24.5t74.5 -81.5l53 -17l143 74l21 55q-120 238 -412 238q-110 0 -192 -27t-130 -75.5t-71 -110t-23 -137.5q0 -283 269 -338l237 -47q62 -12 83.5 -36
t21.5 -79q0 -152 -199 -152q-85 0 -134.5 32t-86.5 116l-56 20l-141 -73l-22 -51q37 -101 105.5 -166t150.5 -92t182 -27q109 0 196 30.5t141.5 84.5t83.5 125t29 153h2zM1174 514q0 -135 -93.5 -223t-275.5 -88q-257 0 -350 198l71 37q46 -84 112.5 -120.5t164.5 -36.5
q146 0 214 66.5t68 166.5q0 85 -47 132.5t-123 62.5l-237 45q-203 36 -203 260q0 268 332 268q222 0 321 -158l-73 -37q-42 59 -100.5 87t-145.5 28q-136 0 -191 -47.5t-55 -140.5q0 -82 33.5 -122.5t114.5 -55.5l225 -43q235 -44 235 -279h3z" />
    <glyph glyph-name="aring.alt" unicode="&#xe016;" horiz-adv-x="1185" 
d="M1141 0h-78q-72 0 -119.5 22.5t-73.5 86.5q-100 -79 -188 -110.5t-211 -31.5q-180 0 -276.5 92.5t-96.5 270.5q0 94 32 162.5t91 107.5t133 57.5t166 18.5q175 0 330 -47v182q0 58 -17.5 96.5t-52.5 58t-75 26.5t-97 7q-228 0 -315 -125l-125 76q59 99 179.5 141
t260.5 42q92 0 162 -15.5t125.5 -51.5t85 -100.5t29.5 -156.5v-590q0 -48 13 -63t40 -15h78v-141zM850 225v287q-11 2 -82.5 14t-122.5 17.5t-100 5.5q-283 0 -283 -219q0 -109 51.5 -170.5t157.5 -61.5q108 0 194 30.5t185 96.5zM823 1456q0 -92 -65.5 -157.5t-157.5 -65.5
t-157.5 65.5t-65.5 157.5t65.5 157.5t157.5 65.5t157.5 -65.5t65.5 -157.5zM727 1456q0 52 -37.5 89.5t-89.5 37.5q-53 0 -91 -37t-38 -90q0 -52 38.5 -90.5t90.5 -38.5q53 0 90 38t37 91z" />
    <glyph glyph-name="arrow" unicode="&#xe017;" horiz-adv-x="1617" 
d="M1507 739q0 -142 -55.5 -271t-149 -222.5t-222.5 -149t-271 -55.5t-271 55.5t-222.5 149t-149 222.5t-55.5 271q0 189 93.5 350t254.5 255t350 94t350 -94t254.5 -255t93.5 -350zM1411 741l-485 484l-111 -109l291 -293h-852v-157h860l-295 -304l107 -106z" />
    <glyph glyph-name="atilde.alt" unicode="&#xe018;" horiz-adv-x="1185" 
d="M1141 0h-78q-72 0 -119.5 22.5t-73.5 86.5q-100 -79 -188 -110.5t-211 -31.5q-180 0 -276.5 92.5t-96.5 270.5q0 94 32 162.5t91 107.5t133 57.5t166 18.5q175 0 330 -47v182q0 58 -17.5 96.5t-52.5 58t-75 26.5t-97 7q-228 0 -315 -125l-125 76q59 99 179.5 141
t260.5 42q92 0 162 -15.5t125.5 -51.5t85 -100.5t29.5 -156.5v-590q0 -48 13 -63t40 -15h78v-141zM850 225v287q-11 2 -82.5 14t-122.5 17.5t-100 5.5q-283 0 -283 -219q0 -109 51.5 -170.5t157.5 -61.5q108 0 194 30.5t185 96.5zM958 1497l-129 -201q-26 -43 -77 -43
q-12 0 -24 3t-19 6.5t-21 11t-20 10.5l-187 96q-26 15 -45 15q-20 0 -43 -27l-88 -106l-88 51l129 200q26 43 78 43q12 0 24 -3t18.5 -6t21.5 -10.5t20 -10.5l186 -96q26 -15 45 -15q20 0 43 27l88 106z" />
    <glyph glyph-name="caronalt" unicode="&#xe019;" horiz-adv-x="409" 
d="M336 1599l-125 -479q-4 -18 -10.5 -23t-20.5 -5h-57q-21 0 -21 18v10l70 479h164z" />
    <glyph glyph-name="commaaccentalt" unicode="&#xe01a;" horiz-adv-x="409" 
d="M307 1278q0 -15 -4 -20t-16 -5h-162q-23 0 -23 25v108q0 136 93 252l84 -22q-66 -86 -66 -195h74q12 0 16 -4.5t4 -17.5v-121z" />
    <glyph glyph-name="dotlessi.alt" unicode="&#xe01b;" horiz-adv-x="604" 
d="M551 -18h-86q-242 0 -242 264v643q0 29 15 72h-185v139h330v-854q0 -121 82 -121h86v-143z" />
    <glyph glyph-name="f_i.alt" unicode="&#xe022;" horiz-adv-x="1355" 
d="M1135 1415q0 -10 -3 -13t-12 -3h-166q-10 0 -12 2.5t-2 13.5v160q0 12 2.5 16t11.5 4h166q9 0 12 -3.5t3 -16.5v-160zM1303 -18h-86q-242 0 -242 264v643q0 32 14 72h-606v-961h-160v870q0 36 19 91h-189v139h170v121q0 183 105 278.5t278 95.5q37 0 71.5 -2.5t55 -5.5
t59.5 -10t62 -10l-31 -140q-19 3 -53.5 9.5t-55.5 10t-51 6.5t-57 3q-99 0 -161 -56t-62 -179v-121h752v-854q0 -121 82 -121h86v-143z" />
    <glyph glyph-name="i.alt" unicode="&#xe025;" horiz-adv-x="604" 
d="M383 1415q0 -10 -2.5 -13t-11.5 -3h-166q-10 0 -12.5 2.5t-2.5 13.5v160q0 12 3 16t12 4h166q9 0 11.5 -3.5t2.5 -16.5v-160zM551 -18h-86q-242 0 -242 264v643q0 29 15 72h-185v139h330v-854q0 -121 82 -121h86v-143z" />
    <glyph glyph-name="iacute.alt" unicode="&#xe026;" horiz-adv-x="604" 
d="M551 -18h-86q-242 0 -242 264v643q0 29 15 72h-185v139h330v-854q0 -121 82 -121h86v-143zM594 1503l-352 -266q-15 -12 -23 -12t-16 8l-49 43q-9 9 -9 12q0 6 17 23l307 317z" />
    <glyph glyph-name="ibreve.alt" unicode="&#xe027;" horiz-adv-x="604" 
d="M631 1538q-58 -130 -133.5 -197t-196.5 -67t-198 67t-134 197l76 55q59 -100 114 -139t140 -39t141.5 38.5t114.5 139.5zM551 -18h-86q-242 0 -242 264v643q0 29 15 72h-185v139h330v-854q0 -121 82 -121h86v-143z" />
    <glyph glyph-name="icircumflex.alt" unicode="&#xe028;" horiz-adv-x="604" 
d="M551 -18h-86q-242 0 -242 264v643q0 29 15 72h-185v139h330v-854q0 -121 82 -121h86v-143zM631 1290l-78 -69l-252 215l-252 -215l-78 69l275 283q33 33 55 33t55 -33z" />
    <glyph glyph-name="idieresis.alt" unicode="&#xe029;" horiz-adv-x="604" 
d="M551 -18h-86q-242 0 -242 264v643q0 29 15 72h-185v139h330v-854q0 -121 82 -121h86v-143zM618 1335q0 -15 -3 -17.5t-15 -2.5h-151q-9 0 -12.5 1t-5 5t-1.5 14v148q0 16 3 19t16 3h151h7t4.5 -0.5t3.5 -1.5t1.5 -4t1.5 -6.5v-9.5v-148zM170 1335q0 -15 -3 -17.5
t-15 -2.5h-152q-14 0 -17 2.5t-3 17.5v148q0 17 3 19.5t17 2.5h152h7t4.5 -0.5t3.5 -1.5t1.5 -4t1.5 -6.5v-9.5v-148z" />
    <glyph glyph-name="igrave.alt" unicode="&#xe02a;" horiz-adv-x="604" 
d="M551 -18h-86q-242 0 -242 264v643q0 29 15 72h-185v139h330v-854q0 -121 82 -121h86v-143zM442 1288q0 -4 -8 -12l-49 -43q-8 -8 -16 -8t-23 12l-352 266l125 125l307 -317q3 -3 6.5 -8t5.5 -7z" />
    <glyph glyph-name="ij.alt" unicode="&#xe02b;" horiz-adv-x="1091" 
d="M383 1415q0 -10 -2.5 -13t-11.5 -3h-166q-10 0 -12.5 2.5t-2.5 13.5v160q0 12 3 16t12 4h166q9 0 11.5 -3.5t2.5 -16.5v-160zM551 -18h-86q-242 0 -242 264v643q0 29 15 72h-185v139h330v-854q0 -121 82 -121h86v-143zM967 1415q0 -10 -3 -13t-12 -3h-166q-10 0 -12 2.5
t-2 13.5v160q0 12 2.5 16t11.5 4h166q9 0 12 -3.5t3 -16.5v-160zM967 -180q0 -78 -14 -134t-48 -98t-93.5 -63t-147.5 -21h-117v131h117q83 0 112 40.5t29 144.5v1052q0 32 16 86h-188v142h334v-1280z" />
    <glyph glyph-name="imacron.alt" unicode="&#xe02c;" horiz-adv-x="604" 
d="M641 1317h-676v137h676v-137zM551 -18h-86q-242 0 -242 264v643q0 29 15 72h-185v139h330v-854q0 -121 82 -121h86v-143z" />
    <glyph glyph-name="iogonek.alt" unicode="&#xe02d;" horiz-adv-x="604" 
d="M578 -367q-90 -41 -205 -41q-106 0 -168 38.5t-62 136.5q0 39 16 67.5t54 63.5l121 110q-111 57 -111 238v643q0 29 15 72h-185v139h330v-854q0 -121 82 -121h86v-143h-86h-2l-150 -148q-28 -28 -28 -67q0 -84 88 -84q94 0 176 26zM383 1415q0 -10 -2.5 -13t-11.5 -3
h-166q-10 0 -12.5 2.5t-2.5 13.5v160q0 12 3 16t12 4h166q9 0 11.5 -3.5t2.5 -16.5v-160z" />
    <glyph glyph-name="itilde.alt" unicode="&#xe02e;" horiz-adv-x="604" 
d="M674 1468l-129 -200q-26 -43 -78 -43q-12 0 -24 3t-18.5 6t-21.5 10.5t-20 10.5l-186 97q-24 14 -45 14q-20 0 -43 -27l-89 -106l-88 51l129 201q26 43 78 43q12 0 24 -3t19 -6.5t21 -11t20 -10.5l187 -96q26 -15 45 -15q20 0 43 27l88 107zM551 -18h-86q-242 0 -242 264
v643q0 29 15 72h-185v139h330v-854q0 -121 82 -121h86v-143z" />
    <glyph glyph-name="j.alt" unicode="&#xe02f;" horiz-adv-x="528" 
d="M387 1415q0 -10 -2.5 -13t-11.5 -3h-166q-10 0 -12 2.5t-2 13.5v160q0 12 2.5 16t11.5 4h166q9 0 11.5 -3.5t2.5 -16.5v-160zM387 -180q0 -78 -14 -134t-48 -98t-93.5 -63t-147.5 -21h-117v131h117q83 0 112 40.5t29 144.5v1052q0 29 17 86h-189v142h334v-1280z" />
    <glyph glyph-name="j.dotless" unicode="&#xe030;" horiz-adv-x="444" 
d="M301 -180q0 -78 -14 -134t-48 -98t-93.5 -63t-147.5 -21h-117v131h117q83 0 112 40.5t29 144.5v1280h162v-1280z" />
    <glyph glyph-name="jcircumflex.alt" unicode="&#xe031;" horiz-adv-x="528" 
d="M387 -180q0 -78 -14 -134t-48 -98t-93.5 -63t-147.5 -21h-117v131h117q83 0 112 40.5t29 144.5v1052q0 29 17 86h-189v142h334v-1280zM631 1290l-78 -69l-252 215l-252 -215l-78 69l275 283q33 33 55 33t55 -33z" />
    <glyph glyph-name="l.alt" unicode="&#xe032;" horiz-adv-x="561" 
d="M518 -18h-82q-246 0 -246 266v1208h-170v139h330v-1347q0 -67 21.5 -95t68.5 -28h78v-143z" />
    <glyph glyph-name="lacute.alt" unicode="&#xe033;" horiz-adv-x="561" 
d="M543 1907l-353 -267q-15 -12 -22 -12q-8 0 -16 8l-50 43q-8 8 -8 13t17 22l307 318zM518 -18h-82q-246 0 -246 266v1208h-170v139h330v-1347q0 -67 21.5 -95t68.5 -28h78v-143z" />
    <glyph glyph-name="lcaron.alt" unicode="&#xe034;" horiz-adv-x="655" 
d="M758 1599l-125 -479q-4 -18 -10.5 -23t-20.5 -5h-57q-21 0 -21 18v10l70 479h164zM518 -18h-82q-246 0 -246 266v1208h-170v139h330v-1347q0 -67 21.5 -95t68.5 -28h78v-143z" />
    <glyph glyph-name="lcommaaccent.alt" unicode="&#xe035;" horiz-adv-x="561" 
d="M518 -18h-82q-246 0 -246 266v1208h-170v139h330v-1347q0 -67 21.5 -95t68.5 -28h78v-143zM328 -545l-82 58q49 76 49 184h-70q-12 0 -15 3.5t-3 16.5v174q0 15 3 19t15 4h185q12 0 15 -4t3 -19v-174q0 -141 -100 -262z" />
    <glyph glyph-name="ldot.alt" unicode="&#xe036;" horiz-adv-x="790" 
d="M723 762q0 -14 -3 -17.5t-15 -3.5h-187q-12 0 -15 3.5t-3 17.5v180q0 17 2 20t16 3h187q13 0 15.5 -3t2.5 -20v-180zM518 -18h-82q-246 0 -246 266v1208h-170v139h330v-1347q0 -67 21.5 -95t68.5 -28h78v-143z" />
    <glyph glyph-name="lslash.alt" unicode="&#xe037;" horiz-adv-x="561" 
d="M518 -18h-82q-246 0 -246 266v551l-161 -94v176l161 94v481h-170v139h330v-526l142 82v-174l-142 -84v-645q0 -67 21.5 -95t68.5 -28h78v-143z" />
    <glyph glyph-name="uni2014.alt" unicode="&#xe038;" horiz-adv-x="1175" 
d="M1110 575h-1044v154h1044v-154z" />
    <glyph glyph-name="h.superior" unicode="&#xf637;" horiz-adv-x="737" 
d="M662 621h-134v430q0 87 -30 120t-86 33q-42 0 -86 -21.5t-107 -66.5v-495h-133v970h133v-352q103 84 215 84q98 0 163 -66t65 -202v-434z" />
    <glyph glyph-name="zero.fitted" unicode="&#xf639;" 
d="M1118 756q0 -104 -5 -186t-18.5 -167t-36 -147.5t-60 -119t-89 -92.5t-123.5 -56.5t-163 -20.5t-163 20.5t-123.5 56.5t-89 92.5t-60.5 119t-36.5 147.5t-18.5 167t-5 186q0 140 11.5 246.5t44 205.5t87 162.5t143.5 101t210 37.5t210 -37.5t143 -101t86.5 -162.5
t44 -205t11.5 -247zM952 756q0 91 -2.5 155t-10.5 132t-22.5 113.5t-38.5 88t-59 66.5t-84 38.5t-112 14.5t-112 -14.5t-84 -38.5t-59.5 -66.5t-39 -88t-22.5 -113.5t-10.5 -132t-2.5 -155q0 -83 2 -143t7.5 -126t16 -112t27 -91.5t41 -75.5t58 -53.5t78 -34.5t100.5 -11
t100.5 11t78 34.5t58 53t41 75.5t27 92t15.5 112t7 126t2 143z" />
    <glyph glyph-name="two.fitted" unicode="&#xf63a;" 
d="M1098 1096q0 -73 -23.5 -139t-64.5 -118.5t-94 -101t-113 -92t-121.5 -86.5t-121 -89t-108 -94t-85.5 -108t-52 -125h629v217h150v-360h-963q0 131 44.5 242.5t115 189.5t156 146.5t171.5 127t156.5 115t115 127t44.5 148.5q0 134 -74 201t-203 67q-95 0 -163 -19.5
t-107 -55.5t-59 -77.5t-27 -95.5h-149q4 54 20 105.5t53.5 104.5t92 92t142 64t197.5 25q194 0 317.5 -108.5t123.5 -302.5z" />
    <glyph glyph-name="three.fitted" unicode="&#xf63b;" 
d="M1130 430q0 -227 -139.5 -345t-374.5 -118q-190 0 -310.5 65.5t-199.5 207.5l132 63q62 -106 146 -152.5t232 -46.5q171 0 261 83.5t90 242.5q0 134 -82 208.5t-223 74.5h-226l-41 143h267q122 0 199 68t77 200q0 125 -71 189.5t-224 64.5q-100 0 -171 -23t-118.5 -66
t-89.5 -115l-131 63q79 142 199 207t311 65q101 0 181 -20.5t131.5 -55.5t85 -85t47.5 -105t14 -119q0 -102 -47.5 -189t-147.5 -144q103 -40 163 -136t60 -225z" />
    <glyph glyph-name="four.fitted" unicode="&#xf63c;" 
d="M1190 397h-164v-397h-160v397h-776v152l764 928h172v-934h164v-146zM883 1274l-600 -731h583v643q0 18 2.5 32.5t7.5 30.5t7 25z" />
    <glyph glyph-name="five.fitted" unicode="&#xf63d;" 
d="M1130 446q0 -105 -30.5 -191t-91.5 -151t-161 -101t-231 -36q-190 0 -310.5 65.5t-199.5 207.5l132 63q62 -107 146.5 -154t231.5 -47q179 0 265 91t86 253q0 84 -18.5 145.5t-48.5 97.5t-77 57.5t-93 28.5t-107 7q-189 0 -359 -45l-78 54l78 686h821l-41 -144h-647
l-53 -440q56 17 138 26t141 9q507 0 507 -482z" />
    <glyph glyph-name="six.fitted" unicode="&#xf63e;" 
d="M1126 487q0 -97 -15.5 -174.5t-52 -143.5t-94 -109.5t-143 -68t-196.5 -24.5t-196.5 24t-143 68t-94 109.5t-52.5 143.5t-16 175q0 39 -1 129.5t-0.5 153t3.5 117.5q3 82 11 147.5t25.5 131.5t43.5 116.5t66.5 94.5t94 72t126.5 44t163 16q141 0 264 -50t187 -142
l-102 -94q-135 151 -349 151q-133 0 -210.5 -46t-116.5 -161t-39 -317q134 119 336 119q261 0 381 -123.5t120 -358.5zM963 487q0 187 -78 261.5t-260 74.5q-338 0 -338 -336q0 -206 79 -293.5t259 -87.5t259 87.5t79 293.5z" />
    <glyph glyph-name="seven.fitted" unicode="&#xf63f;" horiz-adv-x="1208" 
d="M1135 1333l-705 -1333h-188l673 1272q15 30 54 61h-674v-217h-150v361h990v-144z" />
    <glyph glyph-name="eight.fitted" unicode="&#xf640;" 
d="M1135 430q0 -226 -120.5 -344.5t-379.5 -118.5t-379.5 118.5t-120.5 344.5q0 247 197 356q-75 39 -125.5 121t-50.5 199q0 196 119.5 299.5t359.5 103.5t359.5 -103.5t119.5 -299.5q0 -117 -50.5 -199t-125.5 -121q197 -109 197 -356zM952 1106q0 66 -16.5 113t-43 75
t-69.5 44t-86 21t-102 5q-75 0 -126.5 -9t-98 -35t-70 -79.5t-23.5 -134.5q0 -66 19.5 -116t52.5 -77.5t71 -41t79 -13.5h192q41 0 78.5 13.5t70.5 41t52.5 77.5t19.5 116zM971 430q0 118 -66 197.5t-184 79.5h-172q-118 0 -184 -79.5t-66 -197.5q0 -178 79.5 -247.5
t256.5 -69.5t256.5 69.5t79.5 247.5z" />
    <glyph glyph-name="nine.fitted" unicode="&#xf641;" 
d="M1120 989q0 -39 1 -129.5t0.5 -152.5t-3.5 -117q-3 -82 -11 -148t-25.5 -132t-43.5 -116t-66.5 -94t-94 -72.5t-126.5 -44.5t-163 -16q-140 0 -263.5 50.5t-187.5 142.5l103 94q136 -152 348 -152q100 0 166.5 25t112.5 85.5t66.5 161t20.5 253.5q-134 -119 -336 -119
q-262 0 -381.5 123.5t-119.5 357.5q0 97 15.5 174.5t52 143.5t94 109.5t143 68t196.5 24.5t196.5 -24t143 -68t94 -109.5t52.5 -143.5t16 -175zM956 989q0 206 -79 293.5t-259 87.5t-258.5 -87.5t-78.5 -293.5q0 -187 77.5 -261.5t259.5 -74.5q338 0 338 336z" />
    <glyph glyph-name="zero.taboldstyle" unicode="&#xf643;" 
d="M1077 561q0 -104 -10.5 -186t-41 -161t-79.5 -131.5t-131 -84t-192 -31.5t-192 31.5t-131.5 84t-79.5 131t-41 161t-11 186.5q0 99 12.5 180t44 156t82 125.5t130.5 80.5t186 30t186 -30t130.5 -80.5t82 -125.5t43.5 -156t12 -180zM915 561q0 111 -11.5 184t-42 132
t-89.5 86.5t-149 27.5t-149 -27.5t-90 -86t-42.5 -132t-11.5 -184.5q0 -92 7 -158.5t25.5 -125.5t51 -95.5t84.5 -57t125 -20.5t125 20.5t84 56.5t51 95.5t25.5 126t6.5 158.5z" />
    <glyph glyph-name="one.taboldstyle" unicode="&#xf644;" 
d="M1032 0h-819v143h326v756q0 34 12 70l-340 -70v148l491 100v-1004h330v-143z" />
    <glyph glyph-name="two.taboldstyle" unicode="&#xf645;" 
d="M1081 0h-950q0 109 30 198t76 147t113.5 104t128.5 71t135 45q117 32 181 69.5t85 78t21 102.5q0 186 -276 186q-162 0 -230.5 -61t-68.5 -176h-154q0 74 23.5 137t74 116.5t141.5 84.5t214 31q201 0 318.5 -84t117.5 -234q0 -154 -95.5 -238t-306.5 -141
q-151 -39 -233.5 -110.5t-110.5 -182.5h609v127h157v-270z" />
    <glyph glyph-name="three.taboldstyle" unicode="&#xf646;" 
d="M1130 53q0 -227 -139.5 -345t-374.5 -118q-190 0 -310.5 65.5t-199.5 207.5l132 63q62 -106 146 -152t232 -46q172 0 261.5 83.5t89.5 241.5q0 134 -82 208.5t-223 74.5h-226l-41 143h267q122 0 199 68.5t77 200.5q0 125 -71 189t-224 64q-100 0 -171 -23t-118.5 -66
t-89.5 -115l-131 63q79 142 199.5 207.5t310.5 65.5q101 0 181 -20.5t131.5 -55.5t85 -85t47.5 -105t14 -119q0 -102 -47.5 -189.5t-147.5 -144.5q103 -40 163 -136t60 -225z" />
    <glyph glyph-name="four.taboldstyle" unicode="&#xf647;" 
d="M1190 0h-164v-397h-160v397h-776v152l764 948h172v-955h164v-145zM883 897l-600 -752h583v664q0 18 2.5 32.5t7.5 30.5t7 25z" />
    <glyph glyph-name="five.taboldstyle" unicode="&#xf648;" 
d="M1130 70q0 -105 -30.5 -191t-91.5 -151.5t-161 -101.5t-231 -36q-190 0 -310.5 65.5t-199.5 207.5l132 63q62 -107 146 -153.5t232 -46.5q179 0 265 91t86 253q0 84 -18.5 145.5t-48.5 97.5t-77 57.5t-93 28.5t-107 7q-185 0 -359 -46l-78 54l78 686h821l-41 -144h-647
l-53 -440q56 17 138 26t141 9q507 0 507 -481z" />
    <glyph glyph-name="six.taboldstyle" unicode="&#xf649;" 
d="M1126 487q0 -97 -15.5 -174.5t-52 -143.5t-94 -109.5t-143 -68t-196.5 -24.5t-196.5 24t-143 68t-94 109.5t-52.5 143.5t-16 175q0 39 -1 129.5t-0.5 153t3.5 117.5q3 82 11 147.5t25.5 131.5t43.5 116.5t66.5 94.5t94 72t126.5 44t163 16q141 0 264 -50t187 -142
l-102 -94q-135 151 -349 151q-133 0 -210.5 -46t-116.5 -161t-39 -317q134 119 336 119q261 0 381 -123.5t120 -358.5zM963 487q0 187 -78 261.5t-260 74.5q-338 0 -338 -336q0 -206 79 -293.5t259 -87.5t259 87.5t79 293.5z" />
    <glyph glyph-name="seven.taboldstyle" unicode="&#xf64a;" 
d="M1135 956l-705 -1333h-188l673 1272q15 30 54 61h-674v-217h-150v361h990v-144z" />
    <glyph glyph-name="eight.taboldstyle" unicode="&#xf64b;" 
d="M1122 430q0 -226 -120 -344.5t-379 -118.5t-379.5 118.5t-120.5 344.5q0 248 196 356q-75 39 -125.5 121t-50.5 199q0 196 120 299.5t360 103.5t359.5 -103.5t119.5 -299.5q0 -117 -50.5 -199t-125.5 -121q196 -108 196 -356zM940 1106q0 66 -16.5 113t-43 75t-69.5 44
t-86 21t-102 5q-75 0 -126.5 -9t-98 -35t-70 -79.5t-23.5 -134.5q0 -66 19.5 -116t52.5 -77.5t70.5 -41t78.5 -13.5h193q41 0 78.5 13.5t70.5 41t52.5 77.5t19.5 116zM958 430q0 119 -65.5 198t-183.5 79h-172q-118 0 -184 -79.5t-66 -197.5q0 -178 79.5 -247.5t256.5 -69.5
t256 69t79 248z" />
    <glyph glyph-name="nine.taboldstyle" unicode="&#xf64c;" 
d="M1120 612q0 -39 1 -129.5t0.5 -152.5t-3.5 -117q-3 -82 -11 -148t-25.5 -132t-43.5 -116t-66.5 -94t-94 -72.5t-126.5 -44.5t-163 -16q-140 0 -263.5 50.5t-187.5 142.5l103 94q135 -151 348 -151q133 0 210.5 46t116.5 161t39 317q-134 -119 -336 -119
q-262 0 -381.5 123.5t-119.5 357.5q0 122 26 214.5t83 163t155.5 107t236.5 36.5t237 -36.5t156 -106.5t83 -163t26 -215zM956 612q0 206 -79 293.5t-259 87.5t-258.5 -87.5t-78.5 -293.5q0 -187 77.5 -261.5t259.5 -74.5q338 0 338 336z" />
    <glyph glyph-name="zero.denominator" unicode="&#xf655;" horiz-adv-x="716" 
d="M655 442q0 -86 -6 -149t-24.5 -125t-50.5 -100.5t-86.5 -62t-129.5 -23.5t-129.5 23.5t-86.5 62t-50.5 100.5t-24.5 125t-6 149q0 83 7 145.5t26.5 120.5t52 95.5t85.5 59.5t126 22t126 -22t85.5 -59.5t52 -95.5t26.5 -120.5t7 -145.5zM522 442q0 57 -2 95t-7.5 77.5
t-16.5 64t-29 45t-45 29.5t-64 9q-44 0 -74.5 -14.5t-48.5 -38.5t-27.5 -67.5t-12 -87.5t-2.5 -112q0 -60 1.5 -99.5t7 -82.5t17 -69t29.5 -48.5t45.5 -32.5t64.5 -10t64 10t45 32.5t29 49t16.5 69t7.5 82.5t2 99z" />
    <glyph glyph-name="one.denominator" unicode="&#xf656;" horiz-adv-x="567" 
d="M535 0h-500v119h182v606v14q-7 -1 -80 -17t-104 -22v125l315 64v-770h187v-119z" />
    <glyph glyph-name="two.denominator" unicode="&#xf657;" horiz-adv-x="716" 
d="M643 633q0 -36 -8 -67.5t-27 -60.5t-35.5 -50t-49 -48t-51.5 -41t-58 -42q-39 -27 -64 -46.5t-55 -46.5t-50.5 -55t-31.5 -57h305v123h123v-242h-578q0 49 9.5 93t21.5 76.5t37 67t43 55.5t53 50t53 42t56 40q43 29 68.5 48.5t53.5 46.5t41 55t13 59q0 64 -35.5 96.5
t-97.5 32.5q-93 0 -133 -37t-49 -102h-123q2 47 18.5 90t49.5 82.5t94 63.5t143 24q117 0 190.5 -66.5t73.5 -183.5z" />
    <glyph glyph-name="three.denominator" unicode="&#xf658;" horiz-adv-x="716" 
d="M662 260q0 -136 -84 -207t-224 -71q-115 0 -188.5 42.5t-124.5 137.5l111 53q35 -62 80.5 -89.5t121.5 -27.5q85 0 130.5 42t45.5 120q0 65 -40 101t-109 36h-143l-33 121h176q59 0 96 33t37 98q0 121 -143 121q-76 0 -122 -28.5t-83 -92.5l-111 53q55 94 129.5 138.5
t186.5 44.5q75 0 130.5 -19t85.5 -53t44 -74.5t14 -89.5q0 -116 -88 -184q47 -32 76 -86t29 -119z" />
    <glyph glyph-name="four.denominator" unicode="&#xf659;" horiz-adv-x="716" 
d="M694 223h-90v-223h-129v223h-434v111l436 532h127v-524h90v-119zM211 342h264v324z" />
    <glyph glyph-name="five.denominator" unicode="&#xf65a;" horiz-adv-x="716" 
d="M662 268q0 -130 -76.5 -208t-231.5 -78q-115 0 -188.5 42.5t-124.5 137.5l111 53q35 -62 80.5 -89.5t121.5 -27.5q90 0 133 45t43 125q0 99 -45.5 134.5t-126.5 35.5q-100 0 -204 -28l-62 43l47 413h506l-37 -121h-358q-17 -149 -23 -198q54 10 131 10q304 0 304 -289z
" />
    <glyph glyph-name="six.denominator" unicode="&#xf65b;" horiz-adv-x="716" 
d="M659 293q0 -149 -69.5 -230t-231.5 -81q-161 0 -230 80.5t-69 230.5v80v143q3 87 17.5 148.5t48 114.5t96.5 79.5t156 26.5q82 0 158.5 -35t119.5 -96l-86 -80q-79 94 -192 94q-68 0 -105.5 -17.5t-58.5 -67.5t-23 -144q70 43 168 43q301 0 301 -289zM528 293
q0 92 -39.5 130t-130.5 38q-168 0 -168 -168q0 -104 39.5 -148.5t128.5 -44.5q90 0 130 44t40 149z" />
    <glyph glyph-name="seven.denominator" unicode="&#xf65c;" horiz-adv-x="716" 
d="M666 758l-404 -758h-149l389 737v4q2 2 6 4h-313v-122h-123v243h594v-108z" />
    <glyph glyph-name="eight.denominator" unicode="&#xf65d;" horiz-adv-x="716" 
d="M655 264q0 -278 -301 -278q-155 0 -227 71t-72 207q0 124 92 199q-34 27 -56.5 73.5t-22.5 104.5q0 119 71 182.5t215 63.5t216.5 -63.5t72.5 -182.5q0 -111 -82 -178q94 -74 94 -199zM524 264q0 58 -32.5 95.5t-90.5 37.5h-94q-57 0 -89 -37.5t-32 -95.5
q0 -89 40 -123.5t128 -34.5q89 0 129.5 34.5t40.5 123.5zM512 641q0 75 -40.5 100t-117.5 25t-117 -25t-40 -100q0 -61 31 -90t73 -29h107q43 0 73.5 29t30.5 90z" />
    <glyph glyph-name="nine.denominator" unicode="&#xf65e;" horiz-adv-x="716" 
d="M657 573v-59q0 -115 -2 -164q-3 -68 -12.5 -119t-31 -100t-55.5 -80t-89 -50t-129 -19q-83 0 -159.5 34.5t-117.5 96.5l84 75q82 -90 193 -90q93 0 136.5 50.5t49.5 179.5q-70 -43 -168 -43q-157 0 -229 74t-72 214q0 149 69.5 230.5t231.5 81.5q301 0 301 -312zM526 573
q0 103 -40.5 148t-129.5 45q-90 0 -130 -45t-40 -148q0 -94 39.5 -132t130.5 -38q170 0 170 170z" />
    <glyph glyph-name="zero.numerator" unicode="&#xf661;" horiz-adv-x="716" 
d="M655 1067q0 -86 -6 -149t-24.5 -125.5t-50.5 -101t-86.5 -62t-129.5 -23.5t-129.5 23.5t-86.5 62t-50.5 101t-24.5 125.5t-6 149q0 82 7 144.5t26.5 121t52 95.5t85.5 59t126 22t126 -22t85.5 -59t52 -95.5t26.5 -121t7 -144.5zM522 1067q0 69 -2.5 112t-12 87t-27 67.5
t-48 38t-74.5 14.5t-74.5 -14.5t-48.5 -38.5t-27.5 -67t-12 -87t-2.5 -112q0 -60 1.5 -99.5t7 -82.5t17 -69t29.5 -48.5t45.5 -32.5t64.5 -10t64 10t45 32.5t29 49t16.5 69t7.5 82.5t2 99z" />
    <glyph glyph-name="one.numerator" unicode="&#xf662;" horiz-adv-x="567" 
d="M535 625h-500v118h182v607v14q-7 -1 -80 -17t-104 -22v125l315 63v-770h187v-118z" />
    <glyph glyph-name="two.numerator" unicode="&#xf663;" horiz-adv-x="716" 
d="M643 1257q0 -36 -8 -67.5t-27 -60.5t-35.5 -50t-49 -48t-51.5 -41t-58 -42q-39 -27 -64 -46.5t-55 -46.5t-50.5 -55t-31.5 -57h305v123h123v-241h-578q0 49 9.5 93t21.5 76.5t37 67t43 55.5t53 50t53 42t56 40q58 39 90 64t59 64.5t27 79.5q0 64 -35.5 96.5t-97.5 32.5
q-93 0 -133 -37t-49 -102h-123q2 47 18.5 90t49.5 82.5t94 63.5t143 24q117 0 190.5 -66.5t73.5 -183.5z" />
    <glyph glyph-name="three.numerator" unicode="&#xf664;" horiz-adv-x="716" 
d="M662 885q0 -137 -84 -208t-224 -71q-115 0 -188.5 42.5t-124.5 137.5l111 54q35 -62 80.5 -89.5t121.5 -27.5q85 0 130.5 42t45.5 120q0 65 -40 101t-109 36h-143l-33 121h176q59 0 96 33t37 98q0 121 -143 121q-76 0 -122 -28.5t-83 -92.5l-111 53q55 94 129.5 138
t186.5 44q76 0 131 -19t85 -53t44 -74t14 -89q0 -116 -88 -184q47 -32 76 -86t29 -119z" />
    <glyph glyph-name="four.numerator" unicode="&#xf665;" horiz-adv-x="716" 
d="M694 848h-90v-223h-129v223h-434v110l436 533h127v-524h90v-119zM211 967h264v323z" />
    <glyph glyph-name="five.numerator" unicode="&#xf666;" horiz-adv-x="716" 
d="M662 893q0 -130 -77 -208.5t-231 -78.5q-115 0 -188.5 42.5t-124.5 137.5l111 54q35 -62 80.5 -89.5t121.5 -27.5q90 0 133 45t43 125q0 99 -45.5 134.5t-126.5 35.5q-97 0 -204 -29l-62 43l47 414h506l-37 -121h-358q-17 -156 -23 -199q59 11 131 11q304 0 304 -289z
" />
    <glyph glyph-name="six.numerator" unicode="&#xf667;" horiz-adv-x="716" 
d="M659 918q0 -149 -69.5 -230.5t-231.5 -81.5q-161 0 -230 81t-69 231v79v144q3 87 17.5 148.5t48 114t96.5 79t156 26.5q82 0 158.5 -35t119.5 -96l-86 -80q-79 95 -192 95q-67 0 -105 -17.5t-59 -68t-23 -144.5q70 43 168 43q301 0 301 -288zM528 918q0 92 -39.5 129.5
t-130.5 37.5q-168 0 -168 -167q0 -104 39.5 -148.5t128.5 -44.5q90 0 130 44t40 149z" />
    <glyph glyph-name="seven.numerator" unicode="&#xf668;" horiz-adv-x="716" 
d="M666 1382l-404 -757h-149l389 737v4q2 2 6 4h-313v-123h-123v244h594v-109z" />
    <glyph glyph-name="eight.numerator" unicode="&#xf669;" horiz-adv-x="716" 
d="M655 889q0 -279 -301 -279q-299 0 -299 279q0 123 92 198q-34 27 -56.5 74t-22.5 105q0 119 71 182t215 63t216.5 -63t72.5 -182q0 -112 -82 -179q94 -74 94 -198zM524 889q0 58 -32.5 95.5t-90.5 37.5h-94q-57 0 -89 -37.5t-32 -95.5q0 -89 40 -123.5t128 -34.5
q89 0 129.5 34.5t40.5 123.5zM512 1266q0 75 -40.5 100t-117.5 25t-117 -25t-40 -100q0 -61 31 -90t73 -29h107q43 0 73.5 29t30.5 90z" />
    <glyph glyph-name="nine.numerator" unicode="&#xf66a;" horiz-adv-x="716" 
d="M657 1198v-59q0 -115 -2 -164q-3 -68 -12.5 -119.5t-31 -100.5t-55.5 -80t-89 -50t-129 -19q-83 0 -159.5 34.5t-117.5 96.5l84 76q82 -90 193 -90q94 0 137 50t49 179q-70 -43 -168 -43q-157 0 -229 74t-72 215q0 149 69.5 230t231.5 81q301 0 301 -311zM526 1198
q0 103 -40.5 148t-129.5 45q-90 0 -130 -44.5t-40 -148.5q0 -94 39.5 -132t130.5 -38q170 0 170 170z" />
    <glyph glyph-name="commaaccent" unicode="&#xf6c3;" horiz-adv-x="636" 
d="M328 -545l-82 58q49 76 49 184h-70q-12 0 -15 3.5t-3 16.5v174q0 15 3 19t15 4h185q12 0 15 -4t3 -19v-174q0 -141 -100 -262z" />
    <glyph glyph-name="one.fitted" unicode="&#xf6dc;" horiz-adv-x="985" 
d="M903 0h-819v143h326v1119q0 33 12 69l-340 -69v147l491 100v-1366h330v-143z" />
    <glyph glyph-name="a.superior" unicode="&#xf6e9;" horiz-adv-x="712" 
d="M627 621h-109l-12 45q-91 -64 -213 -64q-115 0 -176.5 59t-61.5 173q0 116 71 168.5t193 52.5q91 0 175 -19v78q0 53 -31 71.5t-90 18.5q-124 0 -178 -82l-107 64q43 74 121 105.5t164 31.5q58 0 102 -10t79.5 -33.5t54 -65.5t18.5 -102v-491zM494 782v140
q-94 20 -158 20q-146 0 -146 -108q0 -115 103 -115q60 0 104.5 14t96.5 49z" />
    <glyph glyph-name="b.superior" unicode="&#xf6ea;" horiz-adv-x="743" 
d="M688 963q0 -182 -86 -271.5t-229 -89.5q-154 0 -287 66v923h133v-315q89 47 164 47q305 0 305 -360zM553 963q0 126 -41 183.5t-129 57.5q-64 0 -164 -51v-418q55 -18 156 -18q178 0 178 246z" />
    <glyph glyph-name="d.superior" unicode="&#xf6eb;" horiz-adv-x="741" 
d="M655 621h-92l-18 41q-79 -60 -172 -60q-64 0 -118.5 18.5t-100.5 58t-72.5 112.5t-26.5 172q0 360 303 360q75 0 164 -47v315h133v-970zM522 778v373q-100 51 -164 51q-88 0 -128 -57t-40 -182q0 -244 183 -244q60 0 149 59z" />
    <glyph glyph-name="e.superior" unicode="&#xf6ec;" horiz-adv-x="720" 
d="M668 915h-473q5 -105 44.5 -150.5t135.5 -45.5q120 0 168 98l119 -47q-79 -168 -287 -168q-320 0 -320 361q0 79 16.5 141.5t52.5 113t99.5 78t151.5 27.5q75 0 129.5 -21.5t85.5 -54t49 -82.5t23.5 -96t5.5 -106v-48zM375 1204q-80 0 -124 -40t-54 -130h333
q-3 85 -37 127.5t-118 42.5z" />
    <glyph glyph-name="i.superior" unicode="&#xf6ed;" horiz-adv-x="286" 
d="M209 621h-133v682h133v-682zM221 1468q0 -19 -6 -24.5t-25 -5.5h-94q-18 0 -23 5t-5 25v91q0 20 5.5 26t22.5 6h94q19 0 25 -5.5t6 -26.5v-91z" />
    <glyph glyph-name="l.superior" unicode="&#xf6ee;" horiz-adv-x="321" 
d="M309 610h-67q-162 0 -162 176v805h133v-805q0 -51 33 -51h63v-125z" />
    <glyph glyph-name="m.superior" unicode="&#xf6ef;" horiz-adv-x="1099" 
d="M1018 621h-135v428q0 72 -17 113.5t-65 41.5q-49 0 -89.5 -21.5t-90.5 -64.5q2 -20 2 -69v-428h-134v428q0 155 -86 155q-38 0 -73 -19t-105 -73v-491h-135v682h113l16 -66q86 86 195 86q110 0 170 -92q60 47 108 69.5t109 22.5q111 0 164 -65t53 -209v-428z" />
    <glyph glyph-name="o.superior" unicode="&#xf6f0;" horiz-adv-x="724" 
d="M670 963q0 -169 -74 -265t-234 -96q-307 0 -307 361q0 360 307 360q160 0 234 -96t74 -264zM535 963q0 132 -40 186.5t-133 54.5q-94 0 -134 -54t-40 -187t40 -188.5t134 -55.5t133.5 55.5t39.5 188.5z" />
    <glyph glyph-name="r.superior" unicode="&#xf6f1;" horiz-adv-x="464" 
d="M444 1323v-139q-16 2 -47 2q-105 0 -182 -62v-503h-133v682h115l10 -52q82 86 237 72z" />
    <glyph glyph-name="s.superior" unicode="&#xf6f2;" horiz-adv-x="653" 
d="M592 825q0 -113 -78.5 -168t-202.5 -55q-91 0 -167 46t-105 130l121 39q45 -98 151 -98q80 0 114 27.5t34 78.5q0 35 -24.5 52.5t-86.5 29.5l-98 19q-40 7 -70 18t-59 31.5t-44.5 55t-15.5 81.5q0 97 69 154t194 57q180 0 256 -139l-111 -58q-26 39 -58 58.5t-85 19.5
q-66 0 -99.5 -23t-33.5 -61q0 -33 21.5 -47.5t64.5 -21.5l94 -19q109 -20 164 -68t55 -139z" />
    <glyph glyph-name="t.superior" unicode="&#xf6f3;" horiz-adv-x="524" 
d="M446 760l82 -88q-87 -70 -217 -70q-87 0 -136.5 43.5t-49.5 153.5v354q0 13 4 29h-115v121h111v213l133 36v-249h240l-41 -121h-199v-383q0 -44 20 -62t64 -18q40 0 104 41z" />
    <glyph glyph-name="zero.oldstyle" unicode="&#xf730;" 
d="M1077 561q0 -104 -10.5 -186t-41 -161t-79.5 -131.5t-131 -84t-192 -31.5t-192 31.5t-131.5 84t-79.5 131t-41 161t-11 186.5q0 99 12.5 180t44 156t82 125.5t130.5 80.5t186 30t186 -30t130.5 -80.5t82 -125.5t43.5 -156t12 -180zM915 561q0 111 -11.5 184t-42 132
t-89.5 86.5t-149 27.5t-149 -27.5t-90 -86t-42.5 -132t-11.5 -184.5q0 -92 7 -158.5t25.5 -125.5t51 -95.5t84.5 -57t125 -20.5t125 20.5t84 56.5t51 95.5t25.5 126t6.5 158.5z" />
    <glyph glyph-name="one.oldstyle" unicode="&#xf731;" 
d="M1032 0h-819v143h326v756q0 34 12 70l-340 -70v148l491 100v-1004h330v-143z" />
    <glyph glyph-name="two.oldstyle" unicode="&#xf732;" 
d="M1081 0h-950q0 109 30 198t76 147t113.5 104t128.5 71t135 45q117 32 181 69.5t85 78t21 102.5q0 186 -276 186q-162 0 -230.5 -61t-68.5 -176h-154q0 74 23.5 137t74 116.5t141.5 84.5t214 31q201 0 318.5 -84t117.5 -234q0 -154 -95.5 -238t-306.5 -141
q-151 -39 -233.5 -110.5t-110.5 -182.5h609v127h157v-270z" />
    <glyph glyph-name="three.oldstyle" unicode="&#xf733;" 
d="M1130 53q0 -227 -139.5 -345t-374.5 -118q-190 0 -310.5 65.5t-199.5 207.5l132 63q62 -106 146 -152t232 -46q172 0 261.5 83.5t89.5 241.5q0 134 -82 208.5t-223 74.5h-226l-41 143h267q122 0 199 68.5t77 200.5q0 125 -71 189t-224 64q-100 0 -171 -23t-118.5 -66
t-89.5 -115l-131 63q79 142 199.5 207.5t310.5 65.5q101 0 181 -20.5t131.5 -55.5t85 -85t47.5 -105t14 -119q0 -102 -47.5 -189.5t-147.5 -144.5q103 -40 163 -136t60 -225z" />
    <glyph glyph-name="four.oldstyle" unicode="&#xf734;" 
d="M1190 0h-164v-397h-160v397h-776v152l764 948h172v-955h164v-145zM883 897l-600 -752h583v664q0 18 2.5 32.5t7.5 30.5t7 25z" />
    <glyph glyph-name="five.oldstyle" unicode="&#xf735;" 
d="M1130 70q0 -105 -30.5 -191t-91.5 -151.5t-161 -101.5t-231 -36q-190 0 -310.5 65.5t-199.5 207.5l132 63q62 -107 146 -153.5t232 -46.5q179 0 265 91t86 253q0 84 -18.5 145.5t-48.5 97.5t-77 57.5t-93 28.5t-107 7q-185 0 -359 -46l-78 54l78 686h821l-41 -144h-647
l-53 -440q56 17 138 26t141 9q507 0 507 -481z" />
    <glyph glyph-name="six.oldstyle" unicode="&#xf736;" 
d="M1126 487q0 -97 -15.5 -174.5t-52 -143.5t-94 -109.5t-143 -68t-196.5 -24.5t-196.5 24t-143 68t-94 109.5t-52.5 143.5t-16 175q0 39 -1 129.5t-0.5 153t3.5 117.5q3 82 11 147.5t25.5 131.5t43.5 116.5t66.5 94.5t94 72t126.5 44t163 16q141 0 264 -50t187 -142
l-102 -94q-135 151 -349 151q-133 0 -210.5 -46t-116.5 -161t-39 -317q134 119 336 119q261 0 381 -123.5t120 -358.5zM963 487q0 187 -78 261.5t-260 74.5q-338 0 -338 -336q0 -206 79 -293.5t259 -87.5t259 87.5t79 293.5z" />
    <glyph glyph-name="seven.oldstyle" unicode="&#xf737;" 
d="M1135 956l-705 -1333h-188l673 1272q15 30 54 61h-674v-217h-150v361h990v-144z" />
    <glyph glyph-name="eight.oldstyle" unicode="&#xf738;" 
d="M1122 430q0 -226 -120 -344.5t-379 -118.5t-379.5 118.5t-120.5 344.5q0 248 196 356q-75 39 -125.5 121t-50.5 199q0 196 120 299.5t360 103.5t359.5 -103.5t119.5 -299.5q0 -117 -50.5 -199t-125.5 -121q196 -108 196 -356zM940 1106q0 66 -16.5 113t-43 75t-69.5 44
t-86 21t-102 5q-75 0 -126.5 -9t-98 -35t-70 -79.5t-23.5 -134.5q0 -66 19.5 -116t52.5 -77.5t70.5 -41t78.5 -13.5h193q41 0 78.5 13.5t70.5 41t52.5 77.5t19.5 116zM958 430q0 119 -65.5 198t-183.5 79h-172q-118 0 -184 -79.5t-66 -197.5q0 -178 79.5 -247.5t256.5 -69.5
t256 69t79 248z" />
    <glyph glyph-name="nine.oldstyle" unicode="&#xf739;" 
d="M1120 612q0 -39 1 -129.5t0.5 -152.5t-3.5 -117q-3 -82 -11 -148t-25.5 -132t-43.5 -116t-66.5 -94t-94 -72.5t-126.5 -44.5t-163 -16q-140 0 -263.5 50.5t-187.5 142.5l103 94q135 -151 348 -151q133 0 210.5 46t116.5 161t39 317q-134 -119 -336 -119
q-262 0 -381.5 123.5t-119.5 357.5q0 122 26 214.5t83 163t155.5 107t236.5 36.5t237 -36.5t156 -106.5t83 -163t26 -215zM956 612q0 206 -79 293.5t-259 87.5t-258.5 -87.5t-78.5 -293.5q0 -187 77.5 -261.5t259.5 -74.5q338 0 338 336z" />
    </font>
</defs>
</svg>
