<?xml version="1.0" standalone="no"?>
<!DOCTYPE svg PUBLIC "-//W3C//DTD SVG 1.1//EN" "http://www.w3.org/Graphics/SVG/1.1/DTD/svg11.dtd" >
<svg xmlns="http://www.w3.org/2000/svg" xmlns:xlink="http://www.w3.org/1999/xlink" version="1.1">
<metadata>
Created by FontForge 20201107 at Mon May 12 18:20:40 2025
 By 
Digitised data (c) 2002 Monotype Imaging, Inc. All Rights Reserved.
</metadata>
<defs>
<font id="ScenePro-UltraBlackIt" horiz-adv-x="1390" >
  <font-face 
    font-family="Scene Pro Ultra Black"
    font-weight="950"
    font-style="italic"
    font-stretch="normal"
    units-per-em="2048"
    panose-1="2 11 10 4 3 5 4 9 2 4"
    ascent="1638"
    descent="-410"
    x-height="1100"
    cap-height="1477"
    bbox="-178 -520 3346 2146"
    underline-thickness="40"
    underline-position="-271"
    slope="-12"
    unicode-range="U+0020-FB04"
  />
<missing-glyph horiz-adv-x="1024" 
d="M25 0v1362h972v-1362h-972zM180 1266l332 -498l330 498h-662zM123 1178v-992q0 -1 82.5 123t164.5 249l83 124zM901 1178l-332 -496l332 -498v994zM842 98l-330 496l-332 -496h662z" />
    <glyph glyph-name="f_b" unicode="fb" horiz-adv-x="2301" 
d="M1253 1290h-319q-66 0 -105.5 -29.5t-50.5 -107.5l-8 -53h340l-123 -299h-260l-162 -1114h-430l150 1032q7 51 43 82h-181l43 299h148l8 53q17 112 56.5 193.5t89.5 128.5t121.5 75t139.5 36.5t156 8.5h824l-62 -430q-4 -28 -12.5 -43t-28.5 -39q103 50 207 50
q510 0 510 -441q0 -55 -10 -133q-44 -310 -222 -451t-483 -141q-128 0 -275.5 33.5t-273.5 93.5zM1907 680q0 91 -33 134.5t-105 43.5q-73 0 -145 -27l-84 -571q74 -14 133 -14q105 0 151.5 71.5t71.5 241.5q11 82 11 121z" />
    <glyph glyph-name="f_f_b" unicode="ffb" horiz-adv-x="3192" 
d="M1219 801h-492l-160 -1114h-432l150 1032q7 51 43 82h-181l43 299h148l8 53q12 81 35.5 146t53 110.5t70 79.5t82.5 54.5t95.5 32.5t103 16.5t111.5 4.5q118 0 204 -15t189 -46l-125 -287q-3 1 -21 6t-22 6t-20.5 5.5t-22.5 5.5t-21 4.5t-22.5 5t-21 3.5t-23 3t-22 1.5
t-23.5 0.5q-148 0 -168 -137l-8 -53h459l8 53q17 112 56.5 193.5t89.5 128.5t121.5 75t139.5 36.5t156 8.5h823l-61 -430q-4 -28 -12.5 -43t-28.5 -39q103 50 207 50q510 0 510 -441q0 -55 -10 -133q-44 -310 -222 -451t-483 -141q-128 0 -275.5 33.5t-273.5 93.5l170 1196
h-319q-66 0 -105.5 -29.5t-50.5 -107.5l-8 -53h340l-123 -299h-260l-162 -1114h-430l150 1032q7 51 43 82zM2798 680q0 91 -33 134.5t-105 43.5q-73 0 -145 -27l-84 -571q74 -14 133 -14q105 0 151.5 71.5t71.5 241.5q11 82 11 121z" />
    <glyph glyph-name="f_f_h" unicode="ffh" horiz-adv-x="3176" 
d="M1219 801h-492l-160 -1114h-432l150 1032q7 51 43 82h-181l43 299h148l8 53q12 81 35.5 146t53 110.5t70 79.5t82.5 54.5t95.5 32.5t103 16.5t111.5 4.5q118 0 204 -15t189 -46l-125 -287q-3 1 -21 6t-22 6t-20.5 5.5t-22.5 5.5t-21 4.5t-22.5 5t-21 3.5t-23 3t-22 1.5
t-23.5 0.5q-148 0 -168 -137l-8 -53h459l8 53q17 112 56.5 193.5t89.5 128.5t121.5 75t139.5 36.5t156 8.5h821l-79 -561q120 99 254 99q204 0 300.5 -93.5t96.5 -263.5q0 -48 -6 -100l-99 -676h-436l98 676q5 34 5 67q0 52 -19.5 74.5t-62.5 22.5q-67 0 -166 -62l-113 -778
h-438l184 1290h-315q-66 0 -105.5 -29.5t-50.5 -107.5l-8 -53h340l-123 -299h-260l-162 -1114h-430l150 1032q7 51 43 82z" />
    <glyph glyph-name="f_f_j" unicode="ffj" horiz-adv-x="2521" 
d="M2660 1573l-45 -313q-1 -12 -5 -15.5t-15 -3.5h-400q-17 0 -14 19l45 313q2 15 5 18.5t16 3.5h393q14 0 18 -5t2 -17zM1229 1100l8 53q12 81 35.5 146t53 110.5t70 79.5t82.5 54.5t95.5 32.5t103 16.5t111.5 4.5q118 0 204 -15t189 -46l-125 -287q-3 1 -21 6t-22 6
t-20.5 5.5t-22.5 5.5t-21 4.5t-22.5 5t-21 3.5t-23 3t-22 1.5t-23.5 0.5q-148 0 -168 -137l-8 -53h930l-178 -1235q-23 -161 -124.5 -259t-281.5 -98h-276l45 306h153q26 0 35 12t12 39l135 936h-493l-160 -1114h-432l150 1032q7 51 43 82h-492l-160 -1114h-432l150 1032
q7 51 43 82h-181l43 299h148l8 53q12 81 35.5 146t53 110.5t70 79.5t82.5 54.5t95.5 32.5t103 16.5t111.5 4.5q118 0 204 -15t189 -46l-125 -287q-3 1 -21 6t-22 6t-20.5 5.5t-22.5 5.5t-21 4.5t-22.5 5t-21 3.5t-23 3t-22 1.5t-23.5 0.5q-148 0 -168 -137l-8 -53h459z" />
    <glyph glyph-name="f_f_k" unicode="ffk" horiz-adv-x="3225" 
d="M1219 801h-492l-160 -1114h-432l150 1032q7 51 43 82h-181l43 299h148l8 53q12 81 35.5 146t53 110.5t70 79.5t82.5 54.5t95.5 32.5t103 16.5t111.5 4.5q118 0 204 -15t189 -46l-125 -287q-3 1 -21 6t-22 6t-20.5 5.5t-22.5 5.5t-21 4.5t-22.5 5t-21 3.5t-23 3t-22 1.5
t-23.5 0.5q-148 0 -168 -137l-8 -53h459l8 53q17 112 56.5 193.5t89.5 128.5t121.5 75t139.5 36.5t156 8.5h821l-110 -776l311 281h524l-530 -432l403 -668h-524l-188 379q-13 23 -13 39q0 6 3 18l-48 -37l-57 -399h-438l184 1290h-313q-66 0 -105.5 -29.5t-50.5 -107.5
l-8 -53h340l-123 -299h-260l-162 -1114h-430l150 1032q7 51 43 82z" />
    <glyph glyph-name="f_h" unicode="fh" horiz-adv-x="2285" 
d="M2302 776q0 -48 -6 -100l-98 -676h-437l99 676q4 27 4 67q0 52 -19.5 74.5t-62.5 22.5q-67 0 -166 -62l-113 -778h-438l184 1290h-315q-66 0 -105.5 -29.5t-50.5 -107.5l-8 -53h340l-123 -299h-260l-162 -1114h-430l150 1032q7 51 43 82h-181l43 299h148l8 53
q17 112 56.5 193.5t89.5 128.5t121.5 75t139.5 36.5t156 8.5h822l-80 -561q120 99 254 99q204 0 300.5 -93.5t96.5 -263.5z" />
    <glyph glyph-name="f_j" unicode="fj" horiz-adv-x="1630" 
d="M1700 1100l-178 -1235q-23 -161 -124.5 -259t-281.5 -98h-276l45 306h153q26 0 35 12t12 39l136 936h-494l-160 -1114h-432l150 1032q7 51 43 82h-181l43 299h148l8 53q12 81 35.5 146t53 110.5t70 79.5t82.5 54.5t95.5 32.5t103 16.5t111.5 4.5q118 0 204 -15t189 -46
l-125 -287q-3 1 -21 6t-22 6t-20.5 5.5t-22.5 5.5t-21 4.5t-22.5 5t-21 3.5t-23 3t-22 1.5t-23.5 0.5q-148 0 -168 -137l-8 -53h930zM1769 1573l-45 -313q-1 -12 -5 -15.5t-15 -3.5h-399q-18 0 -15 19l45 313q2 15 5 18.5t16 3.5h393q14 0 18 -5t2 -17z" />
    <glyph glyph-name="f_k" unicode="fk" horiz-adv-x="2334" 
d="M2456 1100l-531 -432l404 -668h-525l-188 379q-12 21 -12 39q0 10 2 18l-47 -37l-58 -399h-438l184 1290h-313q-66 0 -105.5 -29.5t-50.5 -107.5l-8 -53h340l-123 -299h-260l-162 -1114h-430l150 1032q7 51 43 82h-181l43 299h148l8 53q17 112 56.5 193.5t89.5 128.5
t121.5 75t139.5 36.5t156 8.5h822l-111 -776l311 281h525z" />
    <glyph glyph-name="f_f" unicode="ff" horiz-adv-x="1906" 
d="M1229 1100l8 51q13 81 36 146t53 110.5t70 79.5t82 54.5t95.5 32.5t103 16.5t111.5 4.5q118 0 204 -15t189 -46l-125 -287q-3 1 -21 6t-22 6t-20.5 5.5t-22.5 5.5t-21 4.5t-22.5 5t-21 3.5t-23 3t-22 1.5t-23.5 0.5q-68 0 -112 -30t-56 -107l-8 -51h340l-123 -299h-260
l-160 -1114h-432l152 1046q4 36 43 68h-494l-160 -1114h-432l150 1032q7 51 43 82h-181l43 299h148l8 53q12 81 35.5 146t53 110.5t70 79.5t82.5 54.5t95.5 32.5t103 16.5t111.5 4.5q118 0 204 -15t189 -46l-125 -287q-3 1 -21 6t-22 6t-20.5 5.5t-22.5 5.5t-21 4.5t-22.5 5
t-21 3.5t-23 3t-22 1.5t-23.5 0.5q-148 0 -168 -137l-8 -53h459z" />
    <glyph glyph-name="fi" unicode="fi" horiz-adv-x="1630" 
d="M1769 1573l-45 -313q-1 -8 -1.5 -11t-2.5 -5.5t-5.5 -2.5h-10.5h-399q-18 0 -15 19l45 313q2 15 5 18.5t16 3.5h399q10 0 13 -4.5t1 -17.5zM1700 1100l-160 -1100h-436l117 801h-494l-160 -1114h-432l150 1032q7 51 43 82h-181l43 299h148l8 53q12 81 35.5 146t53 110.5
t70 79.5t82.5 54.5t95.5 32.5t103 16.5t111.5 4.5q118 0 204 -15t189 -46l-125 -287q-3 1 -21 6t-22 6t-20.5 5.5t-22.5 5.5t-21 4.5t-22.5 5t-21 3.5t-23 3t-22 1.5t-23.5 0.5q-148 0 -168 -137l-8 -53h930z" />
    <glyph glyph-name="fl" unicode="fl" horiz-adv-x="1699" 
d="M1731 1595l-181 -1249q-2 -8 -2 -22q0 -19 8.5 -26t30.5 -7h84l-43 -309h-229q-138 0 -214.5 75.5t-76.5 210.5q0 38 6 78l137 944h-317q-66 0 -105.5 -29.5t-50.5 -107.5l-8 -53h340l-123 -299h-260l-162 -1114h-430l150 1032q7 51 43 82h-181l43 299h148l8 53
q17 112 56.5 193.5t89.5 128.5t121.5 75t139.5 36.5t156 8.5h822z" />
    <glyph glyph-name="f_f_i" unicode="ffi" horiz-adv-x="2521" 
d="M2660 1573l-45 -313q-1 -8 -1.5 -11t-2.5 -5.5t-5.5 -2.5h-10.5h-400q-17 0 -14 19l45 313q2 15 5 18.5t16 3.5h399q10 0 13 -4.5t1 -17.5zM1219 801h-492l-160 -1114h-432l150 1032q7 51 43 82h-181l43 299h148l8 53q12 81 35.5 146t53 110.5t70 79.5t82.5 54.5
t95.5 32.5t103 16.5t111.5 4.5q118 0 204 -15t189 -46l-125 -287q-3 1 -21 6t-22 6t-20.5 5.5t-22.5 5.5t-21 4.5t-22.5 5t-21 3.5t-23 3t-22 1.5t-23.5 0.5q-148 0 -168 -137l-8 -53h459l8 53q12 81 35.5 146t53 110.5t70 79.5t82.5 54.5t95.5 32.5t103 16.5t111.5 4.5
q118 0 204 -15t189 -46l-125 -287q-3 1 -21 6t-22 6t-20.5 5.5t-22.5 5.5t-21 4.5t-22.5 5t-21 3.5t-23 3t-22 1.5t-23.5 0.5q-148 0 -168 -137l-8 -53h930l-160 -1100h-436l116 801h-493l-160 -1114h-432l150 1032q7 51 43 82z" />
    <glyph glyph-name="f_f_l" unicode="ffl" horiz-adv-x="2590" 
d="M1219 801h-492l-160 -1114h-432l150 1032q7 51 43 82h-181l43 299h148l8 53q12 81 35.5 146t53 110.5t70 79.5t82.5 54.5t95.5 32.5t103 16.5t111.5 4.5q118 0 204 -15t189 -46l-125 -287q-3 1 -21 6t-22 6t-20.5 5.5t-22.5 5.5t-21 4.5t-22.5 5t-21 3.5t-23 3t-22 1.5
t-23.5 0.5q-148 0 -168 -137l-8 -53h459l8 53q17 112 56.5 193.5t89.5 128.5t121.5 75t139.5 36.5t156 8.5h821l-180 -1249q-2 -8 -2 -22q0 -19 8.5 -26t30.5 -7h84l-43 -309h-229q-138 0 -214.5 75.5t-76.5 210.5q0 38 6 78l137 944h-317q-66 0 -105.5 -29.5t-50.5 -107.5
l-8 -53h340l-123 -299h-260l-162 -1114h-430l150 1032q7 51 43 82z" />
    <glyph glyph-name=".notdef" horiz-adv-x="1024" 
d="M25 0v1362h972v-1362h-972zM180 1266l332 -498l330 498h-662zM123 1178v-992q0 -1 82.5 123t164.5 249l83 124zM901 1178l-332 -496l332 -498v994zM842 98l-330 496l-332 -496h662z" />
    <glyph glyph-name=".null" horiz-adv-x="0" 
 />
    <glyph glyph-name="nonmarkingreturn" horiz-adv-x="682" 
 />
    <glyph glyph-name="space" unicode=" " horiz-adv-x="466" 
 />
    <glyph glyph-name="exclam" unicode="!" horiz-adv-x="581" 
d="M729 1595l-104 -733l-93 -334h-325v336l104 731h418zM553 373l-51 -355q-2 -18 -19 -18h-383q-12 0 -14 3t0 15l51 355q3 22 17 22h387q15 0 12 -22z" />
    <glyph glyph-name="quotedbl" unicode="&#x22;" horiz-adv-x="1005" 
d="M1130 1477l-145 -480q-6 -18 -13.5 -23t-23.5 -5h-209q-14 0 -18 6.5t-2 21.5l69 480h342zM670 1477l-146 -480q-6 -18 -13.5 -23t-23.5 -5h-208q-14 0 -18.5 6.5t-2.5 21.5l70 480h342z" />
    <glyph glyph-name="numbersign" unicode="#" horiz-adv-x="1193" 
d="M1282 1065l-33 -225h-205l-51 -193h230l-33 -225h-258l-94 -342h-215l92 342h-203l-94 -342h-215l92 342h-148l33 225h178l52 193h-203l33 225h231l92 340h217l-92 -340h203l92 340h217l-92 -340h174zM829 840h-204l-52 -193h205z" />
    <glyph glyph-name="dollar" unicode="$" 
d="M1358 1073q0 -44 -4 -69h-330q2 12 2 32q0 51 -37.5 78t-130.5 27q-33 0 -55 -1.5t-50.5 -8t-45.5 -19t-29 -36t-12 -56.5q0 -59 57 -66l270 -36q173 -24 254.5 -92.5t81.5 -213.5q0 -211 -121 -334.5t-340 -156.5l-39 -264h-311l39 264q-174 25 -258 103t-84 225
q0 43 6 92h326q-2 -14 -2 -39q0 -66 45 -96.5t151 -30.5q46 0 82 6t69 21.5t51 47.5t18 78q0 35 -16.5 52.5t-53.5 23.5l-307 45q-129 19 -206 92.5t-77 208.5q0 202 112.5 304t323.5 130l33 220h311l-32 -220q155 -21 232 -101.5t77 -209.5z" />
    <glyph glyph-name="percent" unicode="%" horiz-adv-x="1941" 
d="M1778 1509l-1170 -1540h-311l1171 1540h310zM838 1063q-7 -50 -14.5 -90t-22.5 -89t-34.5 -86.5t-50.5 -75t-69.5 -62t-93 -39.5t-119.5 -15q-69 0 -121.5 17t-84 44.5t-51.5 68.5t-27 83t-7 94q0 44 13 150q10 69 24.5 124.5t44.5 116.5t72 102t109 68t153 27
q68 0 119.5 -16.5t83 -43.5t51.5 -66.5t27.5 -81.5t7.5 -93q0 -62 -10 -137zM569 1063q15 99 15 147q0 50 -13 68t-41 18q-27 0 -44 -17t-32.5 -68t-29.5 -148q-14 -98 -14 -158q0 -53 12.5 -73.5t38.5 -20.5q27 0 44.5 19t33.5 74.5t30 158.5zM1929 426q-7 -50 -15 -89.5
t-23.5 -89t-34.5 -87t-50 -75t-69.5 -62t-93 -39.5t-119.5 -15q-85 0 -144 24.5t-89.5 69t-43 95t-12.5 114.5q0 56 12 154q10 69 24.5 124.5t44.5 116.5t71.5 102t108.5 68t153 27q290 0 290 -305q0 -61 -10 -133zM1661 426q12 99 12 147q0 50 -11.5 68t-39.5 18
q-41 0 -64 -46t-42 -187q-17 -122 -17 -162q0 -51 12.5 -70.5t38.5 -19.5q27 0 45 19t34.5 74.5t31.5 158.5z" />
    <glyph glyph-name="ampersand" unicode="&#x26;" horiz-adv-x="1488" 
d="M1513 29l-407 -78l-82 96q-169 -78 -340 -78q-180 0 -309.5 40.5t-204 129t-74.5 219.5q0 154 84 266.5t232 180.5l-13 12q-112 112 -112 252q0 94 35.5 170t93 125.5t135.5 82.5t159 47.5t167 14.5q64 0 125 -8t126.5 -30.5t114 -57.5t80 -93.5t31.5 -133.5
q0 -165 -78 -271t-238 -174l-92 -39l152 -180q36 68 49 146h342q-31 -221 -178 -400zM967 1151q0 94 -127 94q-89 0 -129.5 -41.5t-40.5 -126.5q0 -24 10.5 -45.5t38.5 -54.5l24 -29l121 53q55 24 79 58t24 92zM821 299l-211 258q-92 -47 -92 -149q0 -121 211 -121
q49 0 92 12z" />
    <glyph glyph-name="quotesingle" unicode="'" horiz-adv-x="544" 
d="M670 1477l-146 -480q-6 -18 -13.5 -23t-23.5 -5h-208q-14 0 -18.5 6.5t-2.5 21.5l70 480h342z" />
    <glyph glyph-name="parenleft" unicode="(" horiz-adv-x="710" 
d="M897 1579l-39 -270q-95 0 -147 -57.5t-90 -170.5q-41 -121 -91 -458q-45 -317 -45 -435q0 -42 3 -74t14 -67t29 -57.5t50.5 -37.5t77.5 -15l-38 -271q-244 0 -364 166t-120 477q0 137 25 314q35 246 91.5 420.5t144 296.5t210.5 180.5t289 58.5z" />
    <glyph glyph-name="parenright" unicode=")" horiz-adv-x="710" 
d="M750 936q0 -136 -25 -313q-35 -246 -91.5 -421t-144 -297t-210.5 -180.5t-289 -58.5l39 271q95 0 147 57t90 170q39 114 90 459q45 317 45 434q0 53 -6 92.5t-23 78.5t-53.5 60t-91.5 21l39 270q244 0 364 -166t120 -477z" />
    <glyph glyph-name="asterisk" unicode="*" horiz-adv-x="765" 
d="M903 1151q12 -40 -24 -43l-185 -14l144 -119q31 -25 -7 -51l-159 -115q-36 -25 -49 8l-70 172l-70 -174q-13 -33 -49 -8l-160 115q-37 26 -6 51l142 119l-187 12q-36 3 -24 43l61 188q12 41 45 21l160 -99l-49 183q-8 37 35 37h196q44 0 35 -37l-45 -180l158 100
q35 21 47 -21z" />
    <glyph glyph-name="plus" unicode="+" 
d="M1391 588h-430v-430h-302v430h-430v301h430v428h302v-428h430v-301z" />
    <glyph glyph-name="comma" unicode="," horiz-adv-x="587" 
d="M541 377l-49 -334q-20 -132 -120 -246.5t-245 -173.5l-88 139q93 53 134 108.5t52 129.5h-102q-14 0 -16 2.5t-1 15.5l54 359q1 11 2 15t5 5.5t13 1.5h346q13 0 15 -3t0 -19z" />
    <glyph glyph-name="hyphen" unicode="-" horiz-adv-x="700" 
d="M743 827l-49 -340h-547l50 340h546z" />
    <glyph glyph-name="period" unicode="." horiz-adv-x="587" 
d="M539 377l-54 -359q-2 -16 -6 -17q-2 -1 -12 -1h-346q-14 0 -16 2.5t-1 15.5l54 359q1 11 2 15t5 5.5t13 1.5h346q13 0 15 -3t0 -19z" />
    <glyph glyph-name="slash" unicode="/" horiz-adv-x="1030" 
d="M1196 1509l-860 -1540h-289l860 1540h289z" />
    <glyph glyph-name="zero" unicode="0" 
d="M1409 993q0 -81 -20 -237q-13 -86 -27 -154.5t-40.5 -153.5t-60 -149.5t-87 -129t-119 -106.5t-158 -68t-203.5 -26q-117 0 -205.5 28.5t-142.5 75.5t-88 116t-46.5 141t-12.5 159q0 109 22 267q12 82 27.5 151.5t42.5 149t62.5 142.5t88.5 122.5t118.5 99.5t155.5 64
t197 24q116 0 204 -28t142.5 -74.5t89 -114.5t47.5 -140t13 -159zM977 1012q0 100 -27 137t-82 37q-53 0 -88 -31.5t-66.5 -127.5t-56.5 -271q-24 -179 -24 -277q0 -107 25.5 -147.5t78.5 -40.5q51 0 87 35.5t68.5 139.5t59.5 290q25 173 25 256z" />
    <glyph glyph-name="one" unicode="1" 
d="M1284 336l-49 -336h-1047l50 336h307l100 706q4 31 33 70l-338 -61l47 327l758 140l-170 -1182h309z" />
    <glyph glyph-name="two" unicode="2" 
d="M1419 1155q0 -42 -4 -65q-22 -156 -109.5 -263.5t-320.5 -257.5q-13 -9 -61.5 -39t-74.5 -47.5t-66 -45.5t-69 -55t-50 -54h272l16 112h367l-64 -440h-1146q14 97 42.5 184t62 154t83.5 130.5t93.5 108t107 93t109.5 79t114 72.5q122 74 172.5 112.5t65.5 63.5t22 72
q2 10 2 27q0 92 -104 92t-173.5 -55.5t-87.5 -178.5h-358q38 263 213.5 409t450.5 146q239 0 367 -94.5t128 -259.5z" />
    <glyph glyph-name="three" unicode="3" 
d="M1436 1151q0 -33 -6 -68q-14 -99 -67.5 -177.5t-131.5 -127.5q145 -91 145 -258q0 -8 -1 -18t-2.5 -22t-2.5 -19q-17 -119 -82 -215t-159.5 -155.5t-206 -90.5t-228.5 -31q-87 0 -167.5 17.5t-159.5 56t-142.5 111.5t-99.5 174l336 141q50 -101 112.5 -138.5t161.5 -37.5
q179 0 203 164q2 10 2 30q0 56 -32.5 90.5t-94.5 34.5h-162l-49 308h244q71 0 106.5 41.5t44.5 103.5q2 8 2 25q0 100 -137 100q-94 0 -168.5 -36t-136.5 -120l-297 135q225 340 666 340q134 0 234.5 -27.5t159.5 -77t87.5 -113t28.5 -140.5z" />
    <glyph glyph-name="four" unicode="4" 
d="M1427 651l-49 -332h-155l-45 -319h-430l45 319h-682l45 302l862 856h373l-119 -826h155zM901 934l-293 -283h234l26 189q5 37 33 94z" />
    <glyph glyph-name="five" unicode="5" 
d="M1505 1477l-141 -336h-606l-43 -156q98 10 135 10q245 0 383.5 -98.5t138.5 -298.5q0 -195 -91.5 -339.5t-246 -217t-350.5 -72.5q-411 0 -539 359l338 141q41 -100 94 -138t146 -38q103 0 154 67.5t51 171.5q0 69 -45.5 105.5t-153.5 36.5q-145 0 -303 -56l-150 140
l195 719h1034z" />
    <glyph glyph-name="six" unicode="6" 
d="M1456 1253l-268 -209q-64 81 -130 115.5t-167 34.5q-93 0 -157 -58.5t-89 -164.5q43 25 105.5 40t107.5 15q243 0 373.5 -105.5t130.5 -306.5q0 -304 -183 -474.5t-493 -170.5q-138 0 -239 32.5t-161 93.5t-88 139.5t-28 177.5q0 52 5.5 105t19 135.5t16.5 103.5
q9 62 18.5 112t26 114t37 114.5t51.5 107t69 99t91 83t115 66.5t143 41.5t174 15.5q358 0 520 -256zM926 578q0 143 -131 143q-57 0 -98.5 -25t-63.5 -68t-31.5 -90t-9.5 -100q0 -86 36.5 -117.5t102.5 -31.5q45 0 80 18t56 46.5t35 67.5t19 77t5 80z" />
    <glyph glyph-name="seven" unicode="7" 
d="M1513 1477l-40 -287l-832 -1190h-498l770 1083q27 37 80 66h-342l-20 -133h-371l68 461h1185z" />
    <glyph glyph-name="eight" unicode="8" 
d="M1440 1151q0 -41 -6 -90q-12 -80 -62.5 -158t-118.5 -125q121 -109 121 -256q0 -17 -4 -57q-73 -496 -665 -496q-272 0 -402.5 103t-130.5 295q0 28 8 98q25 182 207 313q-46 40 -74 104t-28 134q0 17 4 45q34 238 196 343t441 105q250 0 382 -85t132 -273zM1016 1092
q0 104 -135 104q-152 0 -170 -135q-4 -28 -4 -41q0 -90 67 -90h133q41 0 69.5 32.5t37.5 98.5q2 10 2 31zM944 504q0 52 -22 84.5t-70 32.5h-109q-52 0 -89 -42.5t-48 -113.5q-6 -35 -6 -57q0 -68 35.5 -92.5t114.5 -24.5q93 0 135 36t57 138q2 12 2 39z" />
    <glyph glyph-name="nine" unicode="9" 
d="M1427 1065q0 -64 -8 -119l-33 -223q-12 -82 -25 -145.5t-39 -145.5t-60 -143.5t-89.5 -124.5t-124.5 -103.5t-168 -66t-218 -25.5q-359 0 -521 256l269 209q63 -80 129 -114.5t168 -34.5q93 0 156.5 58.5t88.5 164.5q-43 -25 -105.5 -40t-107.5 -15q-243 0 -373 105
t-130 306q0 31 8 101q17 121 63.5 217t125 171t200 115.5t278.5 40.5q138 0 239 -33t161 -93.5t88 -139.5t28 -178zM1006 1040q0 86 -37 118t-103 32q-80 0 -124.5 -48t-63.5 -177q-6 -34 -6 -64q0 -143 131 -143q167 0 196 207q7 51 7 75z" />
    <glyph glyph-name="colon" unicode=":" horiz-adv-x="587" 
d="M639 1077l-51 -358q-2 -14 -5 -16.5t-16 -2.5h-346q-13 0 -14.5 3t0.5 16l51 358q2 16 5 19.5t16 3.5h346q13 0 14.5 -4t-0.5 -19zM539 377l-54 -359q-2 -16 -6 -17q-2 -1 -12 -1h-346q-14 0 -16 2.5t-1 15.5l54 359q1 11 2 15t5 5.5t13 1.5h346q13 0 15 -3t0 -19z" />
    <glyph glyph-name="semicolon" unicode=";" horiz-adv-x="587" 
d="M639 1077l-51 -358q-2 -14 -5 -16.5t-16 -2.5h-346q-13 0 -14.5 3t0.5 16l51 358q2 16 5 19.5t16 3.5h346q13 0 14.5 -4t-0.5 -19zM541 377l-49 -334q-20 -132 -120 -246.5t-245 -173.5l-88 139q93 53 134 108.5t52 129.5h-102q-14 0 -16 2.5t-1 15.5l54 359q1 11 2 15
t5 5.5t13 1.5h346q13 0 15 -3t0 -19z" />
    <glyph glyph-name="less" unicode="&#x3c;" 
d="M1169 164h-432l-450 573l450 574h432l-452 -574z" />
    <glyph glyph-name="equal" unicode="=" 
d="M1317 866h-1016v320h1016v-320zM1317 293h-1016v319h1016v-319z" />
    <glyph glyph-name="greater" unicode="&#x3e;" 
d="M1288 737l-450 -573h-432l452 573l-452 574h432z" />
    <glyph glyph-name="question" unicode="?" horiz-adv-x="1234" 
d="M1333 1270q0 -73 -14 -134t-36 -106t-63.5 -92t-81 -81.5t-104.5 -84.5q-118 -90 -158.5 -131t-48.5 -92l-10 -66h-371l11 66q11 74 32 129t58 102.5t76 82.5t106 85q10 8 36 27t36.5 27t31.5 26t30.5 29.5t24 30.5t20.5 36t11 39.5t5 46.5q0 117 -133 117
q-100 0 -152.5 -50.5t-69.5 -162.5h-362q18 123 59 213.5t113.5 161t186.5 106t270 35.5q255 0 376 -95.5t121 -264.5zM827 373l-51 -355q-1 -11 -5.5 -14.5t-12.5 -3.5h-383q-12 0 -14.5 3t-0.5 15l52 355q3 22 16 22h387q15 0 12 -22z" />
    <glyph glyph-name="at" unicode="@" horiz-adv-x="2125" 
d="M2099 717q0 -130 -36.5 -247.5t-105.5 -209.5t-179 -146.5t-246 -54.5h-318l-6 125q-98 -90 -169 -123.5t-177 -33.5q-143 0 -219 80.5t-76 238.5q0 318 190.5 494t510.5 176q87 0 193.5 -14t183.5 -35q28 -60 28 -142q0 -63 -14 -118l-115 -471h33q82 0 145 47t97 121
t50.5 151.5t16.5 153.5q0 133 -51 235.5t-139 164t-197 92t-233 30.5q-181 0 -340.5 -60.5t-277 -167.5t-185.5 -263t-68 -339q0 -151 48 -264.5t133.5 -181t193.5 -100.5t238 -33q220 0 460 90l72 -133q-287 -119 -573 -119q-129 0 -245 30t-214.5 91t-170.5 148
t-112.5 207.5t-40.5 262.5q0 237 84.5 428.5t232.5 316t346 191t429 66.5q173 0 323 -47t261 -133t175 -216t64 -288zM1305 813q-49 6 -68 6q-68 0 -121 -31t-84.5 -78t-52 -111t-28 -123t-7.5 -120q0 -57 18 -79.5t62 -22.5q38 0 78 26t119 93l71 305q13 59 13 135z" />
    <glyph glyph-name="A" unicode="A" horiz-adv-x="1562" 
d="M1561 0h-453l-68 256h-471l-139 -256h-428l811 1477h365zM950 594l-41 201q-11 76 -8 110q-13 -61 -41 -110l-106 -201h196z" />
    <glyph glyph-name="B" unicode="B" horiz-adv-x="1392" 
d="M1440 1133q0 -113 -47.5 -202t-145.5 -136q88 -34 132 -106.5t44 -164.5q0 -115 -42 -206.5t-111 -150t-163 -97t-190.5 -54.5t-201.5 -16h-633l213 1477h633q262 0 387 -86.5t125 -257.5zM993 1063q0 40 -25.5 63t-90.5 23h-197l-33 -227h197q149 0 149 141zM975 504
q0 53 -38 78.5t-138 25.5h-197l-41 -278h197q109 0 163 36.5t54 137.5z" />
    <glyph glyph-name="C" unicode="C" horiz-adv-x="1449" 
d="M1559 997q0 -31 -3 -65h-399q-1 127 -53 174t-168 47q-152 0 -219 -88.5t-101 -325.5q-16 -112 -16 -182q0 -123 49.5 -178t167.5 -55t196 52.5t163 186.5l301 -190q-55 -96 -117 -165.5t-146 -125.5t-196 -84.5t-252 -28.5q-610 0 -610 574q0 104 14 196
q20 138 57 250.5t102 211t154.5 165.5t217 105t286.5 38q288 0 430 -133.5t142 -378.5z" />
    <glyph glyph-name="D" unicode="D" horiz-adv-x="1472" 
d="M1528 895q0 -61 -10 -139q-18 -123 -58.5 -231t-114 -205.5t-172.5 -167.5t-241.5 -111t-313.5 -41h-536l213 1477h536q183 0 319.5 -43.5t218 -123t120.5 -183t39 -232.5zM1081 866q0 136 -71 199t-230 63h-98l-113 -782h99q182 0 278 98.5t127 311.5q8 55 8 110z" />
    <glyph glyph-name="E" unicode="E" horiz-adv-x="1288" 
d="M1430 1477l-52 -353h-698l-27 -186h641l-168 -352h-532q4 -16 4 -23v-14l-29 -197h699l-51 -352h-1135l213 1477h1135z" />
    <glyph glyph-name="F" unicode="F" horiz-adv-x="1236" 
d="M1430 1477l-168 -353h-584l-29 -202h533l-49 -340h-537q3 -10 0 -33l-80 -549h-434l213 1477h1135z" />
    <glyph glyph-name="G" unicode="G" horiz-adv-x="1544" 
d="M1604 1006q0 -40 -2 -60h-414q-2 99 -47.5 153t-153.5 54q-56 0 -96.5 -5.5t-80.5 -21.5t-68.5 -45t-54 -74.5t-43 -112t-30.5 -155.5q-14 -92 -14 -166q0 -66 13 -112t34 -73t58 -41.5t73.5 -18.5t91.5 -4q111 0 207 47l17 110q6 22 8 27h-199l-47 328h727l-92 -643
q-342 -224 -672 -224q-333 0 -498 141.5t-165 436.5q0 94 14 192q55 386 264.5 578t603.5 192q285 0 425.5 -133.5t140.5 -369.5z" />
    <glyph glyph-name="H" unicode="H" horiz-adv-x="1525" 
d="M1657 1477l-213 -1477h-438l86 590h-486l-86 -590h-438l213 1477h438l-76 -525h486l76 525h438z" />
    <glyph glyph-name="I" unicode="I" horiz-adv-x="602" 
d="M733 1477l-213 -1477h-438l213 1477h438z" />
    <glyph glyph-name="J" unicode="J" horiz-adv-x="1064" 
d="M1157 1477l-145 -1014q-35 -243 -190.5 -369.5t-418.5 -126.5q-121 0 -209 23t-169 80l258 295q29 -19 75.5 -30t85.5 -11q61 0 89.5 32.5t39.5 106.5l146 1014h438z" />
    <glyph glyph-name="K" unicode="K" horiz-adv-x="1435" 
d="M1642 1477l-720 -701l518 -776h-563l-259 418q-21 35 -24 92l-74 -510h-438l213 1477h438l-65 -447l399 447h575z" />
    <glyph glyph-name="L" unicode="L" horiz-adv-x="1146" 
d="M1149 367l-53 -367h-1014l213 1477h440l-160 -1110h574z" />
    <glyph glyph-name="M" unicode="M" horiz-adv-x="1759" 
d="M1767 1477l-90 -1477h-415l36 565q2 46 31 131l-260 -411h-303l-141 411q0 -9 1 -26t1 -25q0 -39 -9 -80l-126 -565h-416l336 1477h366l197 -588q14 -41 14 -111q17 62 47 111l365 588h366z" />
    <glyph glyph-name="N" unicode="N" horiz-adv-x="1544" 
d="M1675 1477l-213 -1477h-377l-485 762q4 -50 4 -62q0 -20 -2 -32l-96 -668h-424l213 1477h371l497 -770q-10 48 -10 71q0 21 2 33l96 666h424z" />
    <glyph glyph-name="O" unicode="O" horiz-adv-x="1544" 
d="M1604 940q0 -70 -15 -184q-13 -91 -32.5 -171t-53 -161.5t-77.5 -147.5t-108 -125t-142 -98.5t-182 -62.5t-226 -23q-140 0 -247.5 30t-175.5 81.5t-111 126.5t-60.5 157t-17.5 181q0 98 16 213q109 753 817 753q141 0 249 -31t176.5 -82.5t112 -126t60.5 -154.5t17 -175
zM1159 922q0 129 -51.5 180t-169.5 51q-147 0 -218 -85t-104 -312q-16 -122 -16 -193q0 -136 52 -188.5t167 -52.5q98 0 158.5 36t102 131t65.5 267q14 88 14 166z" />
    <glyph glyph-name="P" unicode="P" horiz-adv-x="1335" 
d="M1432 1069q0 -125 -36.5 -226.5t-100.5 -170.5t-153.5 -116t-193.5 -68t-223 -21h-147q4 -10 4 -31v-16l-62 -420h-438l213 1477h575q92 0 170 -11t152 -40t126 -74t83 -117t31 -166zM987 1016q0 68 -40.5 99.5t-123.5 31.5h-137l-51 -350h137q106 0 160.5 57t54.5 162z
" />
    <glyph glyph-name="Q" unicode="Q" horiz-adv-x="1540" 
d="M1604 940q0 -72 -15 -186q-14 -96 -35 -178.5t-57.5 -169.5t-95 -163t-135.5 -134h39q39 0 69 -9l150 -45l-236 -360l-784 285q-348 125 -348 561q0 95 16 213q109 755 817 755q141 0 249 -31t176.5 -82.5t112 -126t60.5 -154.5t17 -175zM1159 920q0 129 -52 181t-169 52
q-147 0 -218 -86t-104 -313q-16 -122 -16 -195q0 -138 51.5 -192t165.5 -54q98 0 159 37.5t103 134t66 269.5q14 92 14 166z" />
    <glyph glyph-name="R" unicode="R" horiz-adv-x="1402" 
d="M1423 1090q0 -177 -83.5 -311t-245.5 -197l295 -582h-506l-226 446q-14 28 -14 78h-47l-76 -524h-438l213 1477h571q557 0 557 -387zM975 1030q0 119 -156 119h-133l-43 -301h133q199 0 199 182z" />
    <glyph glyph-name="S" unicode="S" horiz-adv-x="1363" 
d="M1470 1196l-360 -162q-36 73 -94.5 104t-161.5 31q-38 0 -65.5 -3t-60.5 -13.5t-51 -34.5t-18 -61q0 -58 62 -68q32 -5 90.5 -13t94 -13.5t90 -16t89.5 -20.5t80 -27.5t73.5 -37.5t59.5 -49.5t48 -64.5t28.5 -81.5t11.5 -100.5q0 -151 -56 -267.5t-154 -187t-223.5 -106
t-272.5 -35.5q-236 0 -385.5 96t-214.5 300l360 157q30 -76 63 -118.5t87.5 -64.5t138.5 -22q48 0 84 6.5t69.5 22.5t51.5 49t18 82q0 34 -20.5 53.5t-71.5 28.5l-305 51q-162 28 -247 121.5t-85 241.5q0 112 38.5 203t103.5 152t153 102.5t184.5 60t200.5 18.5
q212 0 351 -72t216 -241z" />
    <glyph glyph-name="T" unicode="T" horiz-adv-x="1382" 
d="M1544 1477l-51 -353h-420l-162 -1124h-438l162 1124h-422l51 353h1280z" />
    <glyph glyph-name="U" unicode="U" horiz-adv-x="1542" 
d="M1673 1477l-123 -850q-24 -167 -94.5 -295t-175.5 -207t-235 -118.5t-281 -39.5q-278 0 -440 131.5t-162 393.5q0 57 10 135l123 850h438l-123 -850q-8 -49 -8 -99q0 -113 53.5 -159.5t159.5 -46.5q126 0 197 67.5t96 237.5l123 850h442z" />
    <glyph glyph-name="V" unicode="V" horiz-adv-x="1544" 
d="M1751 1477l-784 -1477h-392l-358 1477h479l156 -744q4 -28 4 -53q0 -27 -4 -117q30 128 51 170l369 744h479z" />
    <glyph glyph-name="W" unicode="W" horiz-adv-x="1925" 
d="M2128 1477l-586 -1477h-401l-64 588q-8 78 -8 131v22q-9 -33 -53 -153l-232 -588h-401l-160 1477h439l40 -637q0 -4 1.5 -18.5t1.5 -24.5q0 -42 -7 -131q16 78 50 174l233 592h377l61 -592q4 -40 4 -78q0 -22 -4 -96q19 95 45 174l226 637h438z" />
    <glyph glyph-name="X" unicode="X" horiz-adv-x="1490" 
d="M1667 1477l-506 -742l332 -735h-537l-131 350q-12 35 -12 82q0 29 2 45q-2 -6 -7 -23t-7 -24.5t-7 -21.5t-8.5 -22.5t-8.5 -19t-11 -18.5l-227 -348h-541l551 748l-301 729h534l103 -330q8 -31 8 -94v-27q22 84 41 119l192 332h541z" />
    <glyph glyph-name="Y" unicode="Y" horiz-adv-x="1540" 
d="M1743 1477l-668 -889l-84 -588h-440l84 588l-412 889h504l160 -449q12 -32 12 -88v-33q12 75 41 121l301 449h502z" />
    <glyph glyph-name="Z" unicode="Z" horiz-adv-x="1308" 
d="M1470 1477l-43 -301l-667 -770q-13 -15 -38.5 -33t-49.5 -25h618l-49 -348h-1157l43 299l676 774q27 30 76 55h-560l-61 349h1212z" />
    <glyph glyph-name="bracketleft" unicode="[" horiz-adv-x="700" 
d="M948 1579l-37 -254l-272 -18l-197 -1368l267 -19l-35 -254h-639l274 1913h639z" />
    <glyph glyph-name="backslash" unicode="\" horiz-adv-x="1030" 
d="M975 -31h-289l-418 1540h289z" />
    <glyph glyph-name="bracketright" unicode="]" horiz-adv-x="700" 
d="M846 1579l-275 -1913h-639l35 254l275 19l196 1368l-268 18l37 254h639z" />
    <glyph glyph-name="asciicircum" unicode="^" 
d="M1300 1018l-174 -133l-231 327l-326 -327l-137 133l399 440q46 51 107 51q57 0 90 -51z" />
    <glyph glyph-name="underscore" unicode="_" horiz-adv-x="1028" 
d="M1026 -92l-33 -225h-1050l32 225h1051z" />
    <glyph glyph-name="grave" unicode="`" horiz-adv-x="716" 
d="M811 1321l-137 -115q-18 -18 -37 2l-338 301l236 203l276 -356q18 -20 0 -35z" />
    <glyph glyph-name="a" unicode="a" horiz-adv-x="1251" 
d="M1278 825q0 -31 -6 -65l-109 -760h-321l-19 72q-145 -105 -311 -105q-206 0 -313 79.5t-107 232.5q0 35 6 73q14 98 61 167.5t117.5 106t147.5 52.5t168 16q108 0 231 -20l13 86q0 3 1 8.5t1 7.5q0 36 -29.5 53t-95.5 17q-135 0 -205 -68l-244 152q97 105 223.5 154
t305.5 49q485 0 485 -308zM795 475q-46 6 -97 6q-152 0 -166 -108q-2 -8 -2 -27q0 -94 109 -94q46 0 129 31z" />
    <glyph glyph-name="b" unicode="b" horiz-adv-x="1320" 
d="M1366 692q0 -55 -10 -133q-44 -310 -222 -451t-483 -141q-128 0 -275.5 33.5t-273.5 93.5l215 1501h435l-62 -430q-4 -28 -12.5 -43t-28.5 -39q103 50 207 50q510 0 510 -441zM926 680q0 91 -33 134.5t-105 43.5q-73 0 -145 -27l-84 -571q74 -14 133 -14
q105 0 151.5 71.5t71.5 241.5q11 82 11 121z" />
    <glyph glyph-name="c" unicode="c" horiz-adv-x="1220" 
d="M1317 844l-311 -142q-39 75 -81 106.5t-124 31.5q-96 0 -154.5 -64t-81.5 -225q-10 -72 -10 -111q0 -100 40.5 -140t121.5 -40q83 0 135 31.5t111 105.5l270 -141q-190 -289 -557 -289q-288 0 -424.5 119t-136.5 338q0 55 10 127q19 131 69 235t135 183t215.5 121.5
t299.5 42.5q366 0 473 -289z" />
    <glyph glyph-name="d" unicode="d" horiz-adv-x="1323" 
d="M1464 1595l-229 -1595h-334l-14 70q-142 -103 -305 -103q-101 0 -184.5 27.5t-147 83t-98.5 146t-35 208.5q0 55 10 133q20 141 80.5 250.5t151.5 178.5t205 104t247 35q106 0 174 -41q-18 37 -18 53q0 3 1 9t1 9l61 432h434zM922 836q-56 20 -119 20q-195 0 -236 -291
q-8 -52 -8 -110q0 -211 143 -211q60 0 140 35z" />
    <glyph glyph-name="e" unicode="e" horiz-adv-x="1290" 
d="M1329 655q0 -51 -18 -204h-774q-5 -40 -5 -48q0 -147 177 -147q144 0 229 98l311 -100q-204 -287 -581 -287q-276 0 -414.5 115.5t-138.5 341.5q0 52 10 127q41 285 220 433.5t464 148.5q260 0 390 -121.5t130 -356.5zM938 684v8q0 78 -42.5 117t-109.5 39
q-156 0 -213 -164h365z" />
    <glyph glyph-name="f" unicode="f" horiz-adv-x="1015" 
d="M1290 1534l-125 -287q-3 1 -21 6t-22 6t-20.5 5.5t-22.5 5.5t-21 4.5t-22.5 5t-21 3.5t-23 3t-22 1.5t-23.5 0.5q-68 0 -112 -30t-56 -107l-8 -51h340l-123 -299h-260l-160 -1114h-432l152 1046q4 36 43 68h-183l43 299h148l8 51q13 81 36 146t53 110.5t70 79.5t82 54.5
t95.5 32.5t103 16.5t111.5 4.5q118 0 204 -15t189 -46z" />
    <glyph glyph-name="g" unicode="g" horiz-adv-x="1388" 
d="M1552 1133l-92 -306h-47q-43 0 -96 31q22 -68 22 -119q0 -24 -2 -34q-32 -223 -190 -327t-442 -104q-55 0 -152 13q-8 1 -21 4.5t-24.5 5.5t-22.5 2q-27 0 -30 -27v-8q0 -13 11 -19t46 -12l422 -75q90 -16 149.5 -34.5t109.5 -48.5t73.5 -76.5t23.5 -111.5q0 -38 -4 -61
q-13 -86 -53.5 -148t-120 -107.5t-209 -68t-311.5 -22.5q-306 0 -449 76t-143 264q0 24 8 90q24 164 185 258q-31 34 -31 88q0 17 2 25q12 86 117 125q-91 88 -91 221q0 31 7 78q14 97 53 171.5t95 122.5t134 78.5t162.5 43t187.5 12.5q217 0 314 -64l119 64h290zM922 745
q0 58 -31.5 86.5t-99.5 28.5q-79 0 -119 -38.5t-51 -116.5q-5 -40 -5 -43q0 -56 30 -83.5t99 -27.5q81 0 122.5 38.5t52.5 115.5q2 14 2 40zM829 -96q0 57 -61 67l-313 58q-38 -49 -49 -121q-3 -12 -3 -25q0 -131 230 -131q176 0 192 109q4 28 4 43z" />
    <glyph glyph-name="h" unicode="h" horiz-adv-x="1308" 
d="M1325 776q0 -48 -6 -100l-98 -676h-437l99 676q4 27 4 67q0 52 -19.5 74.5t-62.5 22.5q-67 0 -166 -62l-113 -778h-438l229 1595h437l-80 -561q120 99 254 99q204 0 300.5 -93.5t96.5 -263.5z" />
    <glyph glyph-name="i" unicode="i" horiz-adv-x="612" 
d="M752 1573l-45 -313q-2 -14 -5 -16.5t-16 -2.5h-399q-13 0 -15 2.5t0 16.5l45 313q2 15 5 18.5t16 3.5h399q13 0 15 -3t0 -19zM682 1100l-158 -1100h-436l158 1100h436z" />
    <glyph glyph-name="j" unicode="j" horiz-adv-x="612" 
d="M752 1573l-45 -313q-2 -14 -5 -16.5t-16 -2.5h-399q-13 0 -15 2.5t0 16.5l45 313q2 15 5 18.5t16 3.5h399q13 0 15 -3t0 -19zM682 1100l-178 -1235q-23 -161 -124.5 -259t-281.5 -98h-276l45 306h153q26 0 35.5 12t12.5 39l178 1235h436z" />
    <glyph glyph-name="k" unicode="k" horiz-adv-x="1359" 
d="M1481 1100l-531 -432l404 -668h-525l-188 379q-12 21 -12 39q0 10 2 18l-47 -37l-58 -399h-438l229 1595h439l-111 -776l311 281h525z" />
    <glyph glyph-name="l" unicode="l" horiz-adv-x="722" 
d="M754 1595l-181 -1249q-2 -8 -2 -22q0 -19 8.5 -26t30.5 -7h84l-43 -309h-229q-138 0 -214.5 75.5t-76.5 210.5q0 38 6 78l180 1249h437z" />
    <glyph glyph-name="m" unicode="m" horiz-adv-x="1927" 
d="M1958 811q0 -55 -10 -133l-99 -678h-434l98 678q5 31 5 61q0 54 -20.5 77.5t-63.5 23.5q-34 0 -63 -14t-79 -48q0 -34 -8 -100l-98 -678h-434l98 678q6 47 6 76q0 47 -17.5 66.5t-56.5 19.5q-23 0 -48 -9t-41.5 -19t-53.5 -34l-113 -778h-438l158 1100h364l27 -99
q132 132 311 132q106 0 177.5 -38.5t119.5 -119.5q96 83 181.5 120.5t189.5 37.5q181 0 261.5 -81t80.5 -241z" />
    <glyph glyph-name="n" unicode="n" horiz-adv-x="1298" 
d="M1325 776q0 -48 -6 -100l-98 -676h-437l99 676q4 27 4 67q0 52 -19.5 74.5t-62.5 22.5q-67 0 -166 -62l-113 -778h-438l158 1100h364l25 -99q141 132 293 132q204 0 300.5 -93.5t96.5 -263.5z" />
    <glyph glyph-name="o" unicode="o" horiz-adv-x="1335" 
d="M1380 674q0 -66 -8 -123q-19 -130 -68 -233.5t-132.5 -183.5t-212.5 -123.5t-295 -43.5q-283 0 -416 122.5t-133 336.5q0 51 10 123q15 103 48.5 190t90.5 160.5t135.5 125t188 80t243.5 28.5q146 0 253 -33t171 -95t94.5 -144t30.5 -187zM940 662q0 98 -37.5 135
t-114.5 37q-95 0 -147 -60.5t-76 -224.5q-10 -72 -10 -113q0 -96 37.5 -133t114.5 -37q95 0 148 60.5t77 224.5q8 57 8 111z" />
    <glyph glyph-name="p" unicode="p" horiz-adv-x="1323" 
d="M1368 692q0 -55 -10 -137q-41 -288 -219.5 -438t-468.5 -150q-89 0 -164 41q12 -40 12 -53v-12l-63 -441h-439l230 1598h334l14 -72q141 105 307 105q105 0 188 -24.5t147 -76t98 -137.5t34 -203zM926 666q0 93 -34.5 141.5t-113.5 48.5q-56 0 -133 -35l-80 -555
q71 -22 113 -22q104 0 161 77t79 234q8 55 8 111z" />
    <glyph glyph-name="q" unicode="q" horiz-adv-x="1327" 
d="M1391 1051l-224 -1549h-436l62 420q4 28 34 76q-91 -31 -198 -31q-516 0 -516 441q0 52 10 127q20 140 65 244.5t107 171.5t148 108t180 57.5t211 16.5q247 0 557 -82zM924 836q-66 18 -131 18q-100 0 -151.5 -72t-76.5 -247q-10 -82 -10 -123q0 -94 34 -131t109 -37
q83 0 144 22z" />
    <glyph glyph-name="r" unicode="r" horiz-adv-x="931" 
d="M1049 1124l-50 -336q-63 13 -133 13q-142 0 -229 -41l-109 -760h-440l158 1100h366l25 -101q117 134 313 134q50 0 99 -9z" />
    <glyph glyph-name="s" unicode="s" horiz-adv-x="1177" 
d="M1245 911l-301 -141q-34 42 -94.5 67t-132.5 25q-117 0 -117 -80q0 -40 43 -49l215 -39q169 -31 248.5 -91t79.5 -181q0 -97 -34 -175.5t-91 -129.5t-134 -85.5t-160 -49.5t-173 -15q-120 0 -213 24.5t-151.5 67.5t-93 91.5t-52.5 107.5l313 94q50 -114 236 -114
q55 0 95 21t40 71q0 48 -66 59l-249 43q-117 20 -185.5 97.5t-68.5 179.5q0 35 6 75q17 118 94.5 198t192.5 115.5t264 35.5q169 0 296 -60.5t193 -161.5z" />
    <glyph glyph-name="t" unicode="t" horiz-adv-x="1071" 
d="M1204 1100l-145 -303h-305l-66 -453v-12q0 -47 55 -47q33 0 74 15t66 36l202 -223q-89 -69 -207.5 -107.5t-236.5 -38.5q-82 0 -149.5 15t-124 48.5t-88 94.5t-31.5 145q0 34 6 74l55 383q6 36 45 70h-204l43 303h169l52 344l450 119l-67 -463h407z" />
    <glyph glyph-name="u" unicode="u" horiz-adv-x="1296" 
d="M1368 1100l-158 -1100h-364l-25 98q-140 -131 -291 -131q-204 0 -301.5 94t-97.5 263q0 30 8 100l97 676h436l-97 -676q-6 -41 -6 -68q0 -52 19.5 -74t62.5 -22q69 0 168 62l111 778h438z" />
    <glyph glyph-name="v" unicode="v" horiz-adv-x="1323" 
d="M1466 1100l-610 -1100h-393l-291 1100h440l93 -557q8 -49 8 -111q0 -14 -1 -44t-1 -44q6 21 17 63t21 75t23 61l256 557h438z" />
    <glyph glyph-name="w" unicode="w" horiz-adv-x="1794" 
d="M1935 1100l-505 -1100h-373l-53 438q-11 91 -11 178v70q-53 -183 -80 -248l-180 -438h-373l-190 1100h428l29 -455q6 -75 6 -119q0 -57 -2 -92q25 75 74 211l178 455h340l47 -455q12 -99 16 -211q8 38 18 74.5t17 57.5t16 46.5t11 32.5l159 455h428z" />
    <glyph glyph-name="x" unicode="x" horiz-adv-x="1386" 
d="M1497 1100l-432 -539l305 -561h-508l-108 236q-15 34 -15 122q-33 -105 -45 -122l-164 -236h-514l486 563l-303 537h510l79 -201q14 -38 17 -139q25 100 51 139l135 201h506z" />
    <glyph glyph-name="y" unicode="y" horiz-adv-x="1345" 
d="M1489 1100l-729 -1331q-77 -143 -199 -204t-338 -61h-200l45 314h200q42 0 65.5 19t51.5 69l76 137l-289 1057h451l98 -606q10 -63 10 -74q0 -19 -2 -29q9 40 35 103l266 606h459z" />
    <glyph glyph-name="z" unicode="z" horiz-adv-x="1138" 
d="M1237 1100l-41 -287l-455 -428q-47 -44 -108 -57h497l-47 -328h-1011l41 285l456 432q33 33 105 53h-420l-51 330h1034z" />
    <glyph glyph-name="braceleft" unicode="{" horiz-adv-x="796" 
d="M1044 1579l-36 -256h-195q-41 0 -61.5 -15.5t-26.5 -60.5l-57 -399q-10 -78 -57 -141t-136 -86q133 -36 133 -181q0 -15 -4 -43l-57 -399q-2 -8 -2 -23q0 -30 17 -41.5t52 -11.5h193l-37 -256h-383q-102 0 -160.5 55t-58.5 160q0 22 4 62l59 413q5 35 5 43
q0 102 -111 117l31 215q77 10 109.5 51t41.5 107l60 414q20 134 97.5 205t194.5 71h385z" />
    <glyph glyph-name="bar" unicode="|" horiz-adv-x="591" 
d="M592 -334h-367v1913h367v-1913z" />
    <glyph glyph-name="braceright" unicode="}" horiz-adv-x="796" 
d="M850 731l-31 -215q-77 -10 -109.5 -52t-41.5 -108l-60 -413q-20 -134 -98 -205.5t-195 -71.5h-383l37 256h193q41 0 61.5 15.5t26.5 60.5l57 399q10 77 58 139t137 85q-131 35 -131 182q0 17 4 45l57 399q2 8 2 23q0 30 -17 41.5t-52 11.5h-195l37 256h385
q102 0 160.5 -55t58.5 -160q0 -21 -4 -61l-59 -414q-5 -35 -5 -45q0 -46 23.5 -75.5t83.5 -37.5z" />
    <glyph glyph-name="asciitilde" unicode="~" 
d="M1350 1061l-50 -336q-62 -74 -133 -107.5t-161 -33.5q-53 0 -101.5 18t-85.5 44t-72.5 52t-77.5 44t-85 18q-90 0 -160 -34t-133 -108l47 336q119 142 295 142q59 0 110.5 -18t87.5 -44t69.5 -52t73 -44t81.5 -18q177 0 295 141z" />
    <glyph glyph-name="uni00A0" unicode="&#xa0;" horiz-adv-x="466" 
 />
    <glyph glyph-name="exclamdown" unicode="&#xa1;" horiz-adv-x="581" 
d="M657 1114l-51 -354q-3 -23 -16 -23h-387q-16 0 -13 23l52 354q2 19 18 19h383q12 0 14 -3t0 -16zM537 268l-105 -731h-418l105 733l92 334h326v-336z" />
    <glyph glyph-name="cent" unicode="&#xa2;" 
d="M1362 932q0 -16 -4 -62h-307v11q0 56 -37 86t-123 30q-85 0 -137 -57t-74 -203q-8 -52 -8 -100q0 -91 35 -126.5t108 -35.5q75 0 121 29t102 98l258 -133q-133 -205 -364 -256l-35 -244h-326l35 242q-348 64 -348 410q0 61 8 116q15 103 51 188t95 154.5t146.5 116.5
t199.5 66l35 247h325l-35 -247q279 -56 279 -330z" />
    <glyph glyph-name="sterling" unicode="&#xa3;" 
d="M1483 1333l-252 -243q-64 64 -117.5 87t-130.5 23q-87 0 -139 -35t-66 -139l-20 -149h295l-47 -320h-295l-17 -119q-10 -76 -71 -114h680l-48 -324h-1091l45 307q37 24 56 52t26 79l16 119h-143l47 320h143l21 149q32 230 185 356.5t425 126.5q175 0 290.5 -39.5
t207.5 -136.5z" />
    <glyph glyph-name="currency" unicode="&#xa4;" horiz-adv-x="1320" 
d="M1194 1141q0 -17 -14 -31l-176 -174q47 -83 47 -176q0 -99 -50 -185l173 -172q14 -14 14 -30q0 -13 -10 -23l-117 -117q-10 -10 -23 -10q-15 0 -30 15l-177 178q-76 -43 -167 -43q-97 0 -177 45l-174 -174q-17 -17 -32 -17q-10 0 -21 11l-117 116q-10 10 -10 25
q0 17 14 31l175 172q-48 85 -48 178q0 96 41 168l-174 176q-14 14 -14 31q0 12 10 22l117 117q10 10 22 10q17 0 31 -14l170 -170q81 47 187 47q96 0 176 -45l174 174q14 14 30 14q13 0 23 -10l117 -117q10 -10 10 -22zM840 766q0 70 -50.5 120t-121.5 50t-122.5 -50
t-51.5 -120t51.5 -121t122.5 -51q70 0 121 51t51 121z" />
    <glyph glyph-name="yen" unicode="&#xa5;" 
d="M1626 1477l-299 -422h141l-32 -232h-273l-100 -143h352l-33 -231h-403l-66 -449h-432l66 449h-406l33 231h354l-59 143h-274l32 232h142l-176 422h464l158 -482q12 -40 12 -92q2 6 5 22t5 23.5t8 21t15 27.5l303 480h463z" />
    <glyph glyph-name="brokenbar" unicode="&#xa6;" horiz-adv-x="702" 
d="M631 887h-330v649h330v-649zM631 0h-330v649h330v-649z" />
    <glyph glyph-name="section" unicode="&#xa7;" horiz-adv-x="1306" 
d="M1382 1477l-59 -416h-315l20 143h-276q-60 0 -82.5 -27.5t-22.5 -86.5q0 -32 17 -47t67 -29l221 -62q49 -13 81 -23.5t69 -25.5t60 -30.5t46 -37.5t35.5 -48t20.5 -60.5t8 -77.5q0 -26 -8 -96l-52 -354q-23 -161 -91 -253t-196 -133.5t-341 -41.5h-488l60 413h315
l-20 -141h172q35 0 52 0.5t45 3t41.5 7.5t31.5 15.5t26.5 25.5t14.5 38t6 53q0 33 -19 50.5t-67 29.5l-248 66q-146 39 -215.5 115.5t-69.5 201.5q0 39 6 82l49 334q32 222 161.5 317t353.5 95h591zM899 606q0 38 -18.5 58.5t-61.5 31.5l-186 49q-24 7 -31 48l-10 -72
q-4 -28 -4 -39q0 -38 18.5 -61t59.5 -33l188 -51q22 -7 31 -48l12 84q2 12 2 33z" />
    <glyph glyph-name="dieresis" unicode="&#xa8;" horiz-adv-x="1130" 
d="M1247 1606l-47 -324q-1 -11 -5.5 -14.5t-12.5 -3.5h-301q-12 0 -14.5 3t-0.5 15l47 324q3 22 17 22h305q15 0 12 -22zM698 1606l-47 -324q-1 -11 -5.5 -14.5t-12.5 -3.5h-301q-12 0 -14.5 3t-0.5 15l48 324q3 22 16 22h305q15 0 12 -22z" />
    <glyph glyph-name="copyright" unicode="&#xa9;" horiz-adv-x="1775" 
d="M1808 733q0 -210 -110 -386t-297 -277t-406 -101t-404 101t-293 277t-108 386q0 157 63.5 300.5t171 247.5t257 166t313.5 62q218 0 405.5 -104.5t297.5 -283.5t110 -388zM1602 733q0 156 -81.5 290t-221.5 213t-304 79t-302.5 -79t-218 -213t-79.5 -290t80 -287
t218 -206.5t302 -75.5t304 76t221.5 207t81.5 286zM1366 831h-231q-8 77 -44 107.5t-98 30.5q-81 0 -112 -51.5t-31 -184.5q0 -128 30.5 -182.5t112.5 -54.5q50 0 91.5 25t80.5 100l191 -113q-125 -225 -363 -225q-97 0 -170 25t-116.5 65.5t-70.5 101t-36.5 121.5t-9.5 137
q0 104 20.5 183t65.5 140.5t125 93.5t192 32q175 0 271 -95t102 -256z" />
    <glyph glyph-name="ordfeminine" unicode="&#xaa;" horiz-adv-x="720" 
d="M829 1350q0 -21 -2 -33l-55 -383h-135l-21 49q-82 -68 -180 -68q-105 0 -159 41.5t-54 120.5q0 25 2 37q24 172 252 172q59 0 117 -10l6 41v8q0 33 -59 33q-70 0 -105 -35l-127 80q52 55 116 80.5t155 25.5q249 0 249 -159zM580 1174q-28 4 -48 4q-71 0 -79 -54v-14
q0 -45 49 -45q28 0 63 14z" />
    <glyph glyph-name="guillemotleft" unicode="&#xab;" horiz-adv-x="1304" 
d="M1374 874l-287 -301l199 -301l-207 -163l-338 464l471 465zM750 874l-287 -301l199 -301l-207 -163l-338 464l471 465z" />
    <glyph glyph-name="logicalnot" unicode="&#xac;" 
d="M1272 537h-311v348h-658v299h969v-647z" />
    <glyph glyph-name="uni00AD" unicode="&#xad;" horiz-adv-x="700" 
d="M743 827l-49 -340h-547l50 340h546z" />
    <glyph glyph-name="registered" unicode="&#xae;" horiz-adv-x="1775" 
d="M1808 733q0 -210 -110 -386t-297 -277t-406 -101t-404 101t-293 277t-108 386q0 157 63.5 300.5t171 247.5t257 166t313.5 62q218 0 405.5 -104.5t297.5 -283.5t110 -388zM1602 733q0 156 -81.5 290t-221.5 213t-304 79t-302.5 -79t-218 -213t-79.5 -290t80 -287
t218 -206.5t302 -75.5t304 76t221.5 207t81.5 286zM1333 315h-252l-143 281q-4 8 -4 33h-51v-314h-226v856h318q149 0 235 -73t86 -199q0 -80 -41 -146.5t-116 -97.5zM1067 899q0 51 -28 76.5t-89 25.5h-67v-215h67q64 0 90.5 29t26.5 84z" />
    <glyph glyph-name="macron" unicode="&#xaf;" horiz-adv-x="917" 
d="M1024 1567l-43 -307h-664l43 307h664z" />
    <glyph glyph-name="degree" unicode="&#xb0;" horiz-adv-x="681" 
d="M807 1219q0 -120 -85.5 -204.5t-205.5 -84.5t-204.5 84.5t-84.5 204.5t84.5 204t204.5 84t205.5 -84t85.5 -204zM625 1219q0 44 -32.5 77t-76.5 33t-76 -33t-32 -77t32 -76.5t76 -32.5t76.5 32.5t32.5 76.5z" />
    <glyph glyph-name="plusminus" unicode="&#xb1;" 
d="M1376 786h-430v-430h-301v430h-430v301h430v429h301v-429h430v-301zM1346 0h-1098v254h1098v-254z" />
    <glyph glyph-name="two.superior" unicode="&#xb2;" horiz-adv-x="798" 
d="M616 821l9 53h227l-37 -249h-672q12 81 39.5 149t58.5 114.5t79.5 91t86 70.5t93.5 60q91 57 113.5 80t27.5 61q0 47 -59 47q-46 0 -81 -31.5t-46 -101.5h-224q23 159 126.5 247.5t263.5 88.5q140 0 215 -56.5t75 -154.5q0 -109 -54 -183.5t-198 -156.5
q-125 -73 -188 -129h145z" />
    <glyph glyph-name="three.superior" unicode="&#xb3;" horiz-adv-x="798" 
d="M428 1159h147q40 0 58 19.5t18 70.5q0 49 -67 49q-100 0 -172 -92l-185 84q143 211 396 211q153 0 226 -57.5t73 -153.5q0 -68 -31.5 -125.5t-87.5 -89.5q80 -41 80 -143q0 -77 -35 -140.5t-92 -103t-126.5 -61t-142.5 -21.5q-50 0 -96.5 11t-92.5 35t-83 68.5t-59 106.5
l206 88q31 -60 65 -82t87 -22q47 0 72.5 23.5t31.5 76.5q0 31 -14.5 50.5t-44.5 19.5h-104z" />
    <glyph glyph-name="acute" unicode="&#xb4;" horiz-adv-x="716" 
d="M850 1509l-426 -303q-24 -16 -35 0l-102 125q-13 16 4 33l379 356z" />
    <glyph glyph-name="mu" unicode="&#xb5;" horiz-adv-x="1296" 
d="M1368 1100l-158 -1100h-364l-25 98q-140 -131 -291 -131h-22l-68 -463h-434l230 1596h436l-97 -676q-6 -41 -6 -68q0 -52 19.5 -74t62.5 -22q69 0 168 62l111 778h438z" />
    <glyph glyph-name="paragraph" unicode="&#xb6;" horiz-adv-x="1159" 
d="M1184 0h-234l-2 1257h-119l2 -1257h-233v684h-70q-192 0 -300.5 106t-108.5 293q0 83 24 153t72.5 125t128 85.5t184.5 30.5h656v-1477z" />
    <glyph glyph-name="periodcentered" unicode="&#xb7;" horiz-adv-x="649" 
d="M657 1049l-51 -355q-1 -11 -5.5 -14.5t-12.5 -3.5h-383q-12 0 -14.5 3t-0.5 15l52 355q3 22 16 22h387q15 0 12 -22z" />
    <glyph glyph-name="cedilla" unicode="&#xb8;" horiz-adv-x="917" 
d="M717 -236q0 -24 -2 -38q-8 -57 -41 -98.5t-83.5 -64t-107.5 -32.5t-123 -10q-86 0 -169.5 15t-135.5 38l58 121q127 -29 194 -29q117 0 127 68q2 8 2 22q0 27 -19 39t-65 12h-135l-43 101l135 123h168l-102 -109h39q163 0 233 -36.5t70 -121.5z" />
    <glyph glyph-name="one.superior" unicode="&#xb9;" horiz-adv-x="716" 
d="M743 625h-614l31 211h174l57 391q0 12 8 24q-14 -2 -82.5 -14.5t-101.5 -17.5l31 204l450 84l-98 -671h176z" />
    <glyph glyph-name="ordmasculine" unicode="&#xba;" horiz-adv-x="708" 
d="M848 1276q0 -30 -6 -64q-20 -137 -107.5 -217t-249.5 -80q-142 0 -208 62.5t-66 171.5q0 40 4 63q20 138 107 217.5t249 79.5q143 0 210 -62t67 -171zM623 1270q0 47 -18.5 64.5t-55.5 17.5q-46 0 -72 -29t-37 -111q-4 -23 -4 -57q0 -48 17.5 -66t54.5 -18
q46 0 71.5 29.5t36.5 111.5q7 40 7 58z" />
    <glyph glyph-name="guillemotright" unicode="&#xbb;" horiz-adv-x="1304" 
d="M1352 573l-469 -464l-162 163l285 301l-197 301l207 164zM727 573l-469 -464l-162 163l285 301l-197 301l207 164z" />
    <glyph glyph-name="onequarter" unicode="&#xbc;" horiz-adv-x="1882" 
d="M758 625h-615l31 211h174l58 391q0 12 8 24q-12 -2 -81.5 -14.5t-103.5 -17.5l31 204l451 84l-99 -671h176zM1831 1509l-1174 -1540h-311l1176 1540h309zM1849 182h-86l-24 -182h-264l24 182h-387l27 183l497 493h226l-68 -469h86zM1540 381l25 172l-170 -172h145z" />
    <glyph glyph-name="onehalf" unicode="&#xbd;" horiz-adv-x="2007" 
d="M758 625h-615l31 211h174l58 391q0 12 8 24q-12 -2 -81.5 -14.5t-103.5 -17.5l31 204l451 84l-99 -671h176zM1831 1509l-1174 -1540h-311l1176 1540h309zM2001 629q-14 -97 -65 -162t-185 -141q-125 -73 -188 -129h145l8 53h228l-35 -250h-672q11 81 38 149t58 114.5
t79.5 91t85.5 70.5t93 60q91 57 114 78.5t28 52.5q3 26 -10.5 42t-49.5 16q-46 0 -80.5 -31.5t-44.5 -101.5h-223q23 160 125 248t262 88q153 0 228.5 -67t60.5 -181z" />
    <glyph glyph-name="threequarters" unicode="&#xbe;" horiz-adv-x="1916" 
d="M1866 1509l-1174 -1540h-311l1175 1540h310zM1884 182h-86l-24 -182h-265l25 182h-387l27 183l497 493h225l-67 -469h86zM1575 381l24 172l-169 -172h145zM416 1159h147q40 0 58 19.5t18 70.5q0 49 -68 49q-100 0 -172 -92l-184 84q143 211 395 211q153 0 226 -57.5
t73 -153.5q0 -69 -31 -126t-87 -89q79 -40 79 -143q0 -101 -60 -177.5t-148 -112.5t-187 -36q-50 0 -96.5 11t-92.5 35t-83.5 68.5t-59.5 106.5l207 88q31 -60 65 -82t87 -22q47 0 72.5 23.5t31.5 76.5q0 31 -14.5 50.5t-44.5 19.5h-105z" />
    <glyph glyph-name="questiondown" unicode="&#xbf;" horiz-adv-x="1234" 
d="M1042 1114l-51 -354q-3 -23 -16 -23h-387q-16 0 -13 23l52 354q2 19 18 19h383q12 0 14 -3t0 -16zM1196 18q-18 -123 -59 -213.5t-113.5 -161t-186.5 -106t-270 -35.5q-255 0 -376 96t-121 265q0 73 14 133.5t36 106t63.5 92t81 81t104.5 84.5q116 89 157 130.5t49 93.5
l11 65h370l-10 -65q-15 -97 -51.5 -168.5t-84 -118t-136.5 -113.5q-10 -8 -36 -27t-36.5 -27t-31.5 -26t-30.5 -29.5t-24 -30.5t-20.5 -36t-11 -39.5t-5 -46.5q0 -117 133 -117q100 0 152.5 50.5t69.5 162.5h362z" />
    <glyph glyph-name="Agrave" unicode="&#xc0;" horiz-adv-x="1562" 
d="M1561 0h-453l-68 256h-471l-139 -256h-428l811 1477h365zM950 594l-41 201q-11 76 -8 110q-13 -61 -41 -110l-106 -201h196zM1241 1688l-137 -115q-18 -17 -37 2l-338 301l236 203l276 -357q17 -20 0 -34z" />
    <glyph glyph-name="Aacute" unicode="&#xc1;" horiz-adv-x="1562" 
d="M1561 0h-453l-68 256h-471l-139 -256h-428l811 1477h365zM950 594l-41 201q-11 76 -8 110q-13 -61 -41 -110l-106 -201h196zM1378 1876l-426 -303q-23 -15 -34 0l-103 125q-13 16 4 33l379 356z" />
    <glyph glyph-name="Acircumflex" unicode="&#xc2;" horiz-adv-x="1562" 
d="M1561 0h-453l-68 256h-471l-139 -256h-428l811 1477h365zM950 594l-41 201q-11 76 -8 110q-13 -61 -41 -110l-106 -201h196zM1397 1710l-166 -147l-201 196l-252 -196l-121 147l398 354q11 11 24 11t21 -11z" />
    <glyph glyph-name="Atilde" unicode="&#xc3;" horiz-adv-x="1562" 
d="M1561 0h-453l-68 256h-471l-139 -256h-428l811 1477h365zM950 594l-41 201q-11 76 -8 110q-13 -61 -41 -110l-106 -201h196zM1497 1853l-215 -241q-43 -49 -102 -49q-50 0 -78 22l-146 117q-10 10 -22 10q-11 0 -19 -8l-149 -154l-150 113l236 256q43 49 100 49
q50 0 80 -24l142 -107q6 -6 20 -6q15 0 27 12l127 129z" />
    <glyph glyph-name="Adieresis" unicode="&#xc4;" horiz-adv-x="1562" 
d="M1561 0h-453l-68 256h-471l-139 -256h-428l811 1477h365zM950 594l-41 201q-11 76 -8 110q-13 -61 -41 -110l-106 -201h196zM1499 1929l-47 -323q-2 -19 -18 -19h-301q-12 0 -14.5 3.5t-0.5 15.5l47 323q3 23 17 23h305q15 0 12 -23zM950 1929l-47 -323q-2 -19 -18 -19
h-301q-12 0 -14.5 3.5t-0.5 15.5l47 323q3 23 17 23h305q15 0 12 -23z" />
    <glyph glyph-name="Aring" unicode="&#xc5;" horiz-adv-x="1562" 
d="M1561 0h-453l-68 256h-471l-139 -256h-428l811 1477h365zM950 594l-41 201q-11 76 -8 110q-13 -61 -41 -110l-106 -201h196zM1255 1784q0 -107 -76.5 -182.5t-183.5 -75.5t-181.5 75.5t-74.5 182.5t74.5 182.5t181.5 75.5t183.5 -75.5t76.5 -182.5zM1096 1782
q0 41 -30 70.5t-71 29.5t-69.5 -29.5t-28.5 -70.5t28.5 -70t69.5 -29t71 29t30 70z" />
    <glyph glyph-name="AE" unicode="&#xc6;" horiz-adv-x="2082" 
d="M2224 1477l-51 -349h-707l-26 -190h665l-166 -342h-567q14 -21 10 -51l-28 -197h706l-49 -348h-1147l37 256h-332l-141 -256h-426l811 1477h1411zM1030 1133q-33 -96 -41 -111l-225 -414h188z" />
    <glyph glyph-name="Ccedilla" unicode="&#xc7;" horiz-adv-x="1449" 
d="M1559 997q0 -31 -3 -65h-399q-1 127 -53 174t-168 47q-152 0 -219 -88.5t-101 -325.5q-16 -112 -16 -182q0 -123 49.5 -178t167.5 -55t196 52.5t163 186.5l301 -190q-55 -96 -117 -165.5t-146 -125.5t-196 -84.5t-252 -28.5h-10l-43 -47h39q161 0 231 -36.5t70 -121.5
q0 -24 -2 -38q-8 -57 -40.5 -98.5t-83 -64t-107 -32.5t-122.5 -10q-86 0 -169.5 15t-135.5 38l58 121q127 -29 194 -29q115 0 125 68q2 8 2 24q0 27 -18 38t-64 11h-135l-43 101l82 74q-438 73 -438 561q0 104 14 196q20 138 57 250.5t102 211t154.5 165.5t217 105t286.5 38
q288 0 430 -133.5t142 -378.5z" />
    <glyph glyph-name="Egrave" unicode="&#xc8;" horiz-adv-x="1288" 
d="M1430 1477l-52 -353h-698l-27 -186h641l-168 -352h-532q4 -16 4 -23v-14l-29 -197h699l-51 -352h-1135l213 1477h1135zM1083 1692l-137 -115q-18 -17 -37 2l-338 301l236 203l276 -357q17 -20 0 -34z" />
    <glyph glyph-name="Eacute" unicode="&#xc9;" horiz-adv-x="1288" 
d="M1430 1477l-52 -353h-698l-27 -186h641l-168 -352h-532q4 -16 4 -23v-14l-29 -197h699l-51 -352h-1135l213 1477h1135zM1255 1878l-426 -303q-23 -15 -34 0l-103 125q-13 16 4 33l379 356z" />
    <glyph glyph-name="Ecircumflex" unicode="&#xca;" horiz-adv-x="1288" 
d="M1430 1477l-52 -353h-698l-27 -186h641l-168 -352h-532q4 -16 4 -23v-14l-29 -197h699l-51 -352h-1135l213 1477h1135zM1255 1710l-165 -147l-201 196l-252 -196l-121 147l397 354q11 11 25 11q12 0 20 -11z" />
    <glyph glyph-name="Edieresis" unicode="&#xcb;" horiz-adv-x="1288" 
d="M1430 1477l-52 -353h-698l-27 -186h641l-168 -352h-532q4 -16 4 -23v-14l-29 -197h699l-51 -352h-1135l213 1477h1135zM1376 1931l-47 -323q-2 -19 -18 -19h-301q-12 0 -14.5 3.5t-0.5 15.5l47 323q3 23 17 23h305q15 0 12 -23zM827 1931l-47 -323q-2 -19 -18 -19h-301
q-12 0 -14.5 3.5t-0.5 15.5l48 323q3 23 16 23h305q15 0 12 -23z" />
    <glyph glyph-name="Igrave" unicode="&#xcc;" horiz-adv-x="602" 
d="M733 1477l-213 -1477h-438l213 1477h438zM831 1692l-137 -115q-18 -17 -37 2l-338 301l236 203l276 -357q17 -20 0 -34z" />
    <glyph glyph-name="Iacute" unicode="&#xcd;" horiz-adv-x="602" 
d="M733 1477l-213 -1477h-438l213 1477h438zM862 1880l-426 -303q-24 -16 -35 0l-102 125q-13 16 4 33l379 356z" />
    <glyph glyph-name="Icircumflex" unicode="&#xce;" horiz-adv-x="602" 
d="M733 1477l-213 -1477h-438l213 1477h438zM920 1712l-166 -147l-201 196l-252 -196l-121 147l398 354q11 11 24 11t21 -11z" />
    <glyph glyph-name="Idieresis" unicode="&#xcf;" horiz-adv-x="602" 
d="M733 1477l-213 -1477h-438l213 1477h438zM1030 1929l-47 -323q-2 -19 -18 -19h-301q-12 0 -14.5 3.5t-0.5 15.5l47 323q3 23 17 23h305q15 0 12 -23zM481 1929l-47 -323q-2 -19 -18 -19h-301q-12 0 -14.5 3.5t-0.5 15.5l47 323q3 23 17 23h305q15 0 12 -23z" />
    <glyph glyph-name="Eth" unicode="&#xd0;" horiz-adv-x="1472" 
d="M1528 897q0 -59 -10 -141q-18 -123 -58.5 -230.5t-113.5 -205.5t-172 -168t-241.5 -111t-314.5 -41h-540l86 596h-148l50 342h147l78 539h540q183 0 319.5 -43t218 -122.5t120.5 -182.5t39 -232zM1081 868q0 136 -71 198t-230 62h-100l-27 -190h236l-166 -342h-119
l-37 -250h101q183 0 277.5 98t125.5 312q10 68 10 112z" />
    <glyph glyph-name="Ntilde" unicode="&#xd1;" horiz-adv-x="1544" 
d="M1675 1477l-213 -1477h-377l-485 762q4 -50 4 -62q0 -20 -2 -32l-96 -668h-424l213 1477h371l497 -770q-10 48 -10 71q0 21 2 33l96 666h424zM1477 1853l-215 -241q-43 -49 -103 -49q-51 0 -78 22l-145 117q-10 10 -23 10q-10 0 -18 -8l-150 -154l-149 113l235 256
q43 49 101 49q50 0 80 -24l141 -107q6 -6 21 -6q14 0 26 12l127 129z" />
    <glyph glyph-name="Ograve" unicode="&#xd2;" horiz-adv-x="1544" 
d="M1604 940q0 -70 -15 -184q-13 -91 -32.5 -171t-53 -161.5t-77.5 -147.5t-108 -125t-142 -98.5t-182 -62.5t-226 -23q-140 0 -247.5 30t-175.5 81.5t-111 126.5t-60.5 157t-17.5 181q0 98 16 213q109 753 817 753q141 0 249 -31t176.5 -82.5t112 -126t60.5 -154.5t17 -175
zM1159 922q0 129 -51.5 180t-169.5 51q-147 0 -218 -85t-104 -312q-16 -122 -16 -193q0 -136 52 -188.5t167 -52.5q98 0 158.5 36t102 131t65.5 267q14 88 14 166zM1253 1692l-137 -115q-18 -17 -37 2l-338 301l236 203l276 -357q17 -20 0 -34z" />
    <glyph glyph-name="Oacute" unicode="&#xd3;" horiz-adv-x="1544" 
d="M1604 940q0 -70 -15 -184q-13 -91 -32.5 -171t-53 -161.5t-77.5 -147.5t-108 -125t-142 -98.5t-182 -62.5t-226 -23q-140 0 -247.5 30t-175.5 81.5t-111 126.5t-60.5 157t-17.5 181q0 98 16 213q109 753 817 753q141 0 249 -31t176.5 -82.5t112 -126t60.5 -154.5t17 -175
zM1159 922q0 129 -51.5 180t-169.5 51q-147 0 -218 -85t-104 -312q-16 -122 -16 -193q0 -136 52 -188.5t167 -52.5q98 0 158.5 36t102 131t65.5 267q14 88 14 166zM1397 1880l-426 -303q-24 -16 -35 0l-102 125q-13 16 4 33l379 356z" />
    <glyph glyph-name="Ocircumflex" unicode="&#xd4;" horiz-adv-x="1544" 
d="M1604 940q0 -70 -15 -184q-13 -91 -32.5 -171t-53 -161.5t-77.5 -147.5t-108 -125t-142 -98.5t-182 -62.5t-226 -23q-140 0 -247.5 30t-175.5 81.5t-111 126.5t-60.5 157t-17.5 181q0 98 16 213q109 753 817 753q141 0 249 -31t176.5 -82.5t112 -126t60.5 -154.5t17 -175
zM1159 922q0 129 -51.5 180t-169.5 51q-147 0 -218 -85t-104 -312q-16 -122 -16 -193q0 -136 52 -188.5t167 -52.5q98 0 158.5 36t102 131t65.5 267q14 88 14 166zM1384 1708l-165 -147l-201 196l-252 -196l-121 147l397 354q11 11 25 11q12 0 20 -11z" />
    <glyph glyph-name="Otilde" unicode="&#xd5;" horiz-adv-x="1544" 
d="M1604 940q0 -70 -15 -184q-13 -91 -32.5 -171t-53 -161.5t-77.5 -147.5t-108 -125t-142 -98.5t-182 -62.5t-226 -23q-140 0 -247.5 30t-175.5 81.5t-111 126.5t-60.5 157t-17.5 181q0 98 16 213q109 753 817 753q141 0 249 -31t176.5 -82.5t112 -126t60.5 -154.5t17 -175
zM1159 922q0 129 -51.5 180t-169.5 51q-147 0 -218 -85t-104 -312q-16 -122 -16 -193q0 -136 52 -188.5t167 -52.5q98 0 158.5 36t102 131t65.5 267q14 88 14 166zM1485 1862l-215 -242q-43 -49 -103 -49q-49 0 -77 22l-146 117q-10 10 -22 10q-11 0 -19 -8l-149 -153
l-150 112l236 256q43 49 100 49q50 0 80 -24l141 -107q6 -6 21 -6q14 0 26 12l127 129z" />
    <glyph glyph-name="Odieresis" unicode="&#xd6;" horiz-adv-x="1544" 
d="M1604 940q0 -70 -15 -184q-13 -91 -32.5 -171t-53 -161.5t-77.5 -147.5t-108 -125t-142 -98.5t-182 -62.5t-226 -23q-140 0 -247.5 30t-175.5 81.5t-111 126.5t-60.5 157t-17.5 181q0 98 16 213q109 753 817 753q141 0 249 -31t176.5 -82.5t112 -126t60.5 -154.5t17 -175
zM1159 922q0 129 -51.5 180t-169.5 51q-147 0 -218 -85t-104 -312q-16 -122 -16 -193q0 -136 52 -188.5t167 -52.5q98 0 158.5 36t102 131t65.5 267q14 88 14 166zM1483 1927l-47 -323q-2 -19 -19 -19h-301q-12 0 -14 3t0 16l47 323q3 23 16 23h305q16 0 13 -23zM934 1927
l-47 -323q-2 -19 -19 -19h-301q-12 0 -14 3t0 16l47 323q3 23 16 23h306q15 0 12 -23z" />
    <glyph glyph-name="multiply" unicode="&#xd7;" 
d="M1317 487l-211 -213l-305 306l-303 -306l-213 213l303 306l-303 303l213 213l303 -303l305 303l211 -213l-303 -303z" />
    <glyph glyph-name="Oslash" unicode="&#xd8;" horiz-adv-x="1544" 
d="M1739 1528l-221 -242q86 -131 86 -342q0 -70 -15 -188q-13 -92 -32.5 -172t-53 -161.5t-77.5 -147t-107.5 -124t-142 -98t-182.5 -62t-226 -22.5q-231 0 -375 80l-90 -100h-278l217 239q-86 131 -86 353q0 97 16 215q109 753 817 753q229 0 377 -82l94 101h279z
M1092 1124q-52 37 -152 37q-151 0 -223 -87.5t-105 -317.5q-14 -98 -14 -178zM1163 897l-493 -545q52 -37 147 -37q101 0 163 37.5t103.5 133.5t65.5 270q11 70 14 141z" />
    <glyph glyph-name="Ugrave" unicode="&#xd9;" horiz-adv-x="1542" 
d="M1673 1477l-123 -850q-24 -167 -94.5 -295t-175.5 -207t-235 -118.5t-281 -39.5q-278 0 -440 131.5t-162 393.5q0 57 10 135l123 850h438l-123 -850q-8 -49 -8 -99q0 -113 53.5 -159.5t159.5 -46.5q126 0 197 67.5t96 237.5l123 850h442zM1217 1688l-138 -115
q-17 -17 -37 2l-337 301l235 203l277 -357q17 -20 0 -34z" />
    <glyph glyph-name="Uacute" unicode="&#xda;" horiz-adv-x="1542" 
d="M1673 1477l-123 -850q-24 -167 -94.5 -295t-175.5 -207t-235 -118.5t-281 -39.5q-278 0 -440 131.5t-162 393.5q0 57 10 135l123 850h438l-123 -850q-8 -49 -8 -99q0 -113 53.5 -159.5t159.5 -46.5q126 0 197 67.5t96 237.5l123 850h442zM1407 1878l-426 -303
q-24 -16 -35 0l-102 125q-13 16 4 33l379 356z" />
    <glyph glyph-name="Ucircumflex" unicode="&#xdb;" horiz-adv-x="1542" 
d="M1673 1477l-123 -850q-24 -167 -94.5 -295t-175.5 -207t-235 -118.5t-281 -39.5q-278 0 -440 131.5t-162 393.5q0 57 10 135l123 850h438l-123 -850q-8 -49 -8 -99q0 -113 53.5 -159.5t159.5 -46.5q126 0 197 67.5t96 237.5l123 850h442zM1374 1708l-166 -147l-200 196
l-252 -196l-121 147l397 354q11 11 25 11q12 0 20 -11z" />
    <glyph glyph-name="Udieresis" unicode="&#xdc;" horiz-adv-x="1542" 
d="M1673 1477l-123 -850q-24 -167 -94.5 -295t-175.5 -207t-235 -118.5t-281 -39.5q-278 0 -440 131.5t-162 393.5q0 57 10 135l123 850h438l-123 -850q-8 -49 -8 -99q0 -113 53.5 -159.5t159.5 -46.5q126 0 197 67.5t96 237.5l123 850h442zM1489 1931l-47 -323
q-2 -19 -19 -19h-301q-12 0 -14 3t0 16l47 323q3 23 16 23h306q15 0 12 -23zM940 1931l-47 -323q-2 -19 -19 -19h-301q-12 0 -14 3t0 16l47 323q3 23 17 23h305q15 0 12 -23z" />
    <glyph glyph-name="Yacute" unicode="&#xdd;" horiz-adv-x="1540" 
d="M1743 1477l-668 -889l-84 -588h-440l84 588l-412 889h504l160 -449q12 -32 12 -88v-33q12 75 41 121l301 449h502zM1399 1878l-426 -303q-24 -16 -35 0l-102 125q-13 16 4 33l379 356z" />
    <glyph glyph-name="Thorn" unicode="&#xde;" horiz-adv-x="1335" 
d="M1399 846q0 -44 -6 -96q-17 -116 -65.5 -206t-115 -145.5t-155 -91.5t-177 -49.5t-188.5 -13.5h-147q4 -10 4 -31v-16l-29 -197h-438l213 1477h438l-33 -224h138q92 0 170 -11t152 -39.5t125.5 -73.5t82.5 -117t31 -166zM954 793q0 68 -40 99.5t-123 31.5h-138l-51 -351
h137q95 0 147.5 42.5t65.5 134.5q2 14 2 43z" />
    <glyph glyph-name="germandbls" unicode="&#xdf;" horiz-adv-x="1449" 
d="M1493 1212q0 -139 -75.5 -247.5t-207.5 -147.5q114 -28 185 -102t71 -187q0 -100 -24.5 -181.5t-66 -139t-103.5 -101t-129 -69.5t-151.5 -42t-163 -22t-169.5 -6l43 299q332 0 332 252q0 158 -211 158h-96l35 252h96q107 0 158 71.5t51 182.5q0 69 -39 109t-123 40
q-107 0 -156.5 -57.5t-68.5 -192.5l-156 -1081h-436l156 1081q41 288 221.5 418.5t482.5 130.5q121 0 216 -24t156 -64t100.5 -95t56 -112.5t16.5 -122.5z" />
    <glyph glyph-name="agrave" unicode="&#xe0;" horiz-adv-x="1251" 
d="M1278 825q0 -31 -6 -65l-109 -760h-321l-19 72q-145 -105 -311 -105q-206 0 -313 79.5t-107 232.5q0 35 6 73q14 98 61 167.5t117.5 106t147.5 52.5t168 16q108 0 231 -20l13 86q0 3 1 8.5t1 7.5q0 36 -29.5 53t-95.5 17q-135 0 -205 -68l-244 152q97 105 223.5 154
t305.5 49q485 0 485 -308zM795 475q-46 6 -97 6q-152 0 -166 -108q-2 -8 -2 -27q0 -94 109 -94q46 0 129 31zM1075 1321l-137 -115q-18 -18 -37 2l-338 301l236 203l276 -356q18 -20 0 -35z" />
    <glyph glyph-name="aacute" unicode="&#xe1;" horiz-adv-x="1251" 
d="M1278 825q0 -31 -6 -65l-109 -760h-321l-19 72q-145 -105 -311 -105q-206 0 -313 79.5t-107 232.5q0 35 6 73q14 98 61 167.5t117.5 106t147.5 52.5t168 16q108 0 231 -20l13 86q0 3 1 8.5t1 7.5q0 36 -29.5 53t-95.5 17q-135 0 -205 -68l-244 152q97 105 223.5 154
t305.5 49q485 0 485 -308zM795 475q-46 6 -97 6q-152 0 -166 -108q-2 -8 -2 -27q0 -94 109 -94q46 0 129 31zM1241 1509l-426 -303q-24 -16 -35 0l-102 125q-13 16 4 33l379 356z" />
    <glyph glyph-name="acircumflex" unicode="&#xe2;" horiz-adv-x="1251" 
d="M1278 825q0 -31 -6 -65l-109 -760h-321l-19 72q-145 -105 -311 -105q-206 0 -313 79.5t-107 232.5q0 35 6 73q14 98 61 167.5t117.5 106t147.5 52.5t168 16q108 0 231 -20l13 86q0 3 1 8.5t1 7.5q0 36 -29.5 53t-95.5 17q-135 0 -205 -68l-244 152q97 105 223.5 154
t305.5 49q485 0 485 -308zM795 475q-46 6 -97 6q-152 0 -166 -108q-2 -8 -2 -27q0 -94 109 -94q46 0 129 31zM1219 1346l-166 -148l-201 197l-252 -197l-121 148l398 354q10 10 24 10q13 0 21 -10z" />
    <glyph glyph-name="atilde" unicode="&#xe3;" horiz-adv-x="1251" 
d="M1278 825q0 -31 -6 -65l-109 -760h-321l-19 72q-145 -105 -311 -105q-206 0 -313 79.5t-107 232.5q0 35 6 73q14 98 61 167.5t117.5 106t147.5 52.5t168 16q108 0 231 -20l13 86q0 3 1 8.5t1 7.5q0 36 -29.5 53t-95.5 17q-135 0 -205 -68l-244 152q97 105 223.5 154
t305.5 49q485 0 485 -308zM795 475q-46 6 -97 6q-152 0 -166 -108q-2 -8 -2 -27q0 -94 109 -94q46 0 129 31zM1298 1524l-215 -242q-43 -49 -102 -49q-50 0 -78 22l-145 117q-10 10 -23 10q-10 0 -18 -8l-150 -153l-149 112l235 256q43 49 101 49q50 0 80 -24l141 -107
q6 -6 20 -6q15 0 27 12l127 129z" />
    <glyph glyph-name="adieresis" unicode="&#xe4;" horiz-adv-x="1251" 
d="M1278 825q0 -31 -6 -65l-109 -760h-321l-19 72q-145 -105 -311 -105q-206 0 -313 79.5t-107 232.5q0 35 6 73q14 98 61 167.5t117.5 106t147.5 52.5t168 16q108 0 231 -20l13 86q0 3 1 8.5t1 7.5q0 36 -29.5 53t-95.5 17q-135 0 -205 -68l-244 152q97 105 223.5 154
t305.5 49q485 0 485 -308zM795 475q-46 6 -97 6q-152 0 -166 -108q-2 -8 -2 -27q0 -94 109 -94q46 0 129 31zM1303 1606l-48 -324q-1 -11 -5.5 -14.5t-12.5 -3.5h-301q-12 0 -14 3t0 15l47 324q3 22 16 22h305q16 0 13 -22zM754 1606l-47 -324q-2 -18 -19 -18h-301
q-12 0 -14 3t0 15l47 324q3 22 16 22h305q16 0 13 -22z" />
    <glyph glyph-name="aring" unicode="&#xe5;" horiz-adv-x="1251" 
d="M1278 825q0 -31 -6 -65l-109 -760h-321l-19 72q-145 -105 -311 -105q-206 0 -313 79.5t-107 232.5q0 35 6 73q14 98 61 167.5t117.5 106t147.5 52.5t168 16q108 0 231 -20l13 86q0 3 1 8.5t1 7.5q0 36 -29.5 53t-95.5 17q-135 0 -205 -68l-244 152q97 105 223.5 154
t305.5 49q485 0 485 -308zM795 475q-46 6 -97 6q-152 0 -166 -108q-2 -8 -2 -27q0 -94 109 -94q46 0 129 31zM1126 1456q0 -107 -76.5 -182.5t-183.5 -75.5t-181.5 75.5t-74.5 182.5t74.5 182.5t181.5 75.5t183.5 -75.5t76.5 -182.5zM967 1454q0 41 -30 70.5t-71 29.5
t-69.5 -29.5t-28.5 -70.5t28.5 -69.5t69.5 -28.5q42 0 71.5 28.5t29.5 69.5z" />
    <glyph glyph-name="ae" unicode="&#xe6;" horiz-adv-x="1978" 
d="M2017 657q0 -49 -18 -206h-772q-4 -32 -4 -45q0 -150 176 -150q142 0 227 98l311 -100q-201 -287 -579 -287q-320 0 -457 158q-92 -73 -196.5 -115.5t-194.5 -42.5q-206 0 -312 79t-106 233q0 111 39 193t109 129.5t157.5 70t194.5 22.5q106 0 229 -20l13 86q0 3 1 8.5
t1 7.5q0 36 -29.5 53t-95.5 17q-135 0 -205 -68l-242 152q97 105 223.5 154t303.5 49q115 0 195.5 -22.5t156.5 -82.5q153 105 356 105q518 0 518 -476zM1626 684q3 75 -36 119.5t-113 44.5q-156 0 -213 -164h362zM793 475q-47 6 -97 6q-166 0 -166 -135q0 -94 107 -94
q46 0 129 31z" />
    <glyph glyph-name="ccedilla" unicode="&#xe7;" horiz-adv-x="1220" 
d="M1317 844l-311 -142q-39 75 -81 106.5t-124 31.5q-96 0 -154.5 -64t-81.5 -225q-10 -72 -10 -111q0 -100 40.5 -140t121.5 -40q83 0 135 31.5t111 105.5l270 -141q-190 -289 -557 -289h-19h-8l-43 -45h39q163 0 233 -36.5t70 -121.5q0 -24 -2 -38q-8 -57 -41 -98.5
t-83.5 -64t-107 -32.5t-122.5 -10q-86 0 -169.5 15t-135.5 38l57 121q127 -29 195 -29q117 0 127 68q2 8 2 22q0 27 -19 39t-65 12h-135l-43 101l83 76q-374 70 -374 442q0 53 10 125q19 131 69 235t135 183t215.5 121.5t299.5 42.5q366 0 473 -289z" />
    <glyph glyph-name="egrave" unicode="&#xe8;" horiz-adv-x="1290" 
d="M1329 655q0 -51 -18 -204h-774q-5 -40 -5 -48q0 -147 177 -147q144 0 229 98l311 -100q-204 -287 -581 -287q-276 0 -414.5 115.5t-138.5 341.5q0 52 10 127q41 285 220 433.5t464 148.5q260 0 390 -121.5t130 -356.5zM938 684v8q0 78 -42.5 117t-109.5 39
q-156 0 -213 -164h365zM1096 1321l-138 -115q-17 -17 -36 2l-338 301l235 203l277 -356q18 -20 0 -35z" />
    <glyph glyph-name="eacute" unicode="&#xe9;" horiz-adv-x="1290" 
d="M1329 655q0 -51 -18 -204h-774q-5 -40 -5 -48q0 -147 177 -147q144 0 229 98l311 -100q-204 -287 -581 -287q-276 0 -414.5 115.5t-138.5 341.5q0 52 10 127q41 285 220 433.5t464 148.5q260 0 390 -121.5t130 -356.5zM938 684v8q0 78 -42.5 117t-109.5 39
q-156 0 -213 -164h365zM1180 1509l-426 -303q-24 -16 -35 0l-103 125q-13 15 5 33l378 356z" />
    <glyph glyph-name="ecircumflex" unicode="&#xea;" horiz-adv-x="1290" 
d="M1329 655q0 -51 -18 -204h-774q-5 -40 -5 -48q0 -147 177 -147q144 0 229 98l311 -100q-204 -287 -581 -287q-276 0 -414.5 115.5t-138.5 341.5q0 52 10 127q41 285 220 433.5t464 148.5q260 0 390 -121.5t130 -356.5zM938 684v8q0 78 -42.5 117t-109.5 39
q-156 0 -213 -164h365zM1219 1346l-166 -148l-201 197l-252 -197l-121 148l398 354q10 10 24 10q13 0 21 -10z" />
    <glyph glyph-name="edieresis" unicode="&#xeb;" horiz-adv-x="1290" 
d="M1329 655q0 -51 -18 -204h-774q-5 -40 -5 -48q0 -147 177 -147q144 0 229 98l311 -100q-204 -287 -581 -287q-276 0 -414.5 115.5t-138.5 341.5q0 52 10 127q41 285 220 433.5t464 148.5q260 0 390 -121.5t130 -356.5zM938 684v8q0 78 -42.5 117t-109.5 39
q-156 0 -213 -164h365zM1286 1606l-47 -324q-1 -11 -5.5 -14.5t-12.5 -3.5h-301q-12 0 -14.5 3t-0.5 15l47 324q3 22 17 22h305q15 0 12 -22zM737 1606l-47 -324q-1 -11 -5.5 -14.5t-12.5 -3.5h-301q-12 0 -14.5 3t-0.5 15l47 324q3 22 17 22h305q15 0 12 -22z" />
    <glyph glyph-name="igrave" unicode="&#xec;" horiz-adv-x="612" 
d="M682 1100l-158 -1100h-436l158 1100h436zM752 1321l-138 -115q-17 -17 -36 2l-338 301l235 203l277 -356q18 -20 0 -35z" />
    <glyph glyph-name="iacute" unicode="&#xed;" horiz-adv-x="612" 
d="M682 1100l-158 -1100h-436l158 1100h436zM862 1509l-426 -303q-24 -16 -35 0l-102 125q-13 16 4 33l379 356z" />
    <glyph glyph-name="icircumflex" unicode="&#xee;" horiz-adv-x="612" 
d="M682 1100l-158 -1100h-436l158 1100h436zM877 1346l-166 -148l-201 197l-252 -197l-121 148l398 354q10 10 24 10q13 0 21 -10z" />
    <glyph glyph-name="idieresis" unicode="&#xef;" horiz-adv-x="612" 
d="M682 1100l-158 -1100h-436l158 1100h436zM969 1606l-47 -324q-2 -18 -19 -18h-301q-12 0 -14 3t0 15l47 324q3 22 16 22h305q16 0 13 -22zM420 1606l-47 -324q-2 -18 -19 -18h-301q-12 0 -14 3t0 15l47 324q3 22 16 22h306q15 0 12 -22z" />
    <glyph glyph-name="eth" unicode="&#xf0;" horiz-adv-x="1335" 
d="M1389 807q0 -85 -15 -184q-47 -328 -220.5 -492t-498.5 -164q-145 0 -252 33t-171 94.5t-95 143.5t-31 186q0 58 9 123q19 131 67.5 233.5t129.5 180t204.5 118.5t282.5 41q45 0 129 -22q-71 111 -203 202l-176 -131l-113 111l144 106q-80 42 -172 78l159 219
q165 -58 271 -106l166 125l110 -109l-127 -94q128 -79 214 -171.5t137 -225t51 -295.5zM932 659q0 96 -38.5 133t-115.5 37q-63 0 -104 -22.5t-72 -85.5t-47 -174q-8 -57 -8 -113q0 -96 37 -132t114 -36q63 0 105 23t73.5 86t47.5 174q8 57 8 110z" />
    <glyph glyph-name="ntilde" unicode="&#xf1;" horiz-adv-x="1298" 
d="M1325 776q0 -48 -6 -100l-98 -676h-437l99 676q4 27 4 67q0 52 -19.5 74.5t-62.5 22.5q-67 0 -166 -62l-113 -778h-438l158 1100h364l25 -99q141 132 293 132q204 0 300.5 -93.5t96.5 -263.5zM1274 1524l-215 -242q-43 -49 -103 -49q-50 0 -77 22l-146 117q-10 10 -22 10
q-11 0 -19 -8l-149 -153l-150 112l236 256q43 49 100 49q50 0 80 -24l141 -107q6 -6 21 -6q14 0 26 12l127 129z" />
    <glyph glyph-name="ograve" unicode="&#xf2;" horiz-adv-x="1335" 
d="M1380 674q0 -66 -8 -123q-19 -130 -68 -233.5t-132.5 -183.5t-212.5 -123.5t-295 -43.5q-283 0 -416 122.5t-133 336.5q0 51 10 123q15 103 48.5 190t90.5 160.5t135.5 125t188 80t243.5 28.5q146 0 253 -33t171 -95t94.5 -144t30.5 -187zM940 662q0 98 -37.5 135
t-114.5 37q-95 0 -147 -60.5t-76 -224.5q-10 -72 -10 -113q0 -96 37.5 -133t114.5 -37q95 0 148 60.5t77 224.5q8 57 8 111zM1083 1321l-137 -115q-18 -18 -37 2l-338 301l236 203l276 -356q17 -20 0 -35z" />
    <glyph glyph-name="oacute" unicode="&#xf3;" horiz-adv-x="1335" 
d="M1380 674q0 -66 -8 -123q-19 -130 -68 -233.5t-132.5 -183.5t-212.5 -123.5t-295 -43.5q-283 0 -416 122.5t-133 336.5q0 51 10 123q15 103 48.5 190t90.5 160.5t135.5 125t188 80t243.5 28.5q146 0 253 -33t171 -95t94.5 -144t30.5 -187zM940 662q0 98 -37.5 135
t-114.5 37q-95 0 -147 -60.5t-76 -224.5q-10 -72 -10 -113q0 -96 37.5 -133t114.5 -37q95 0 148 60.5t77 224.5q8 57 8 111zM1214 1509l-426 -303q-23 -15 -34 0l-103 125q-13 16 4 33l379 356z" />
    <glyph glyph-name="ocircumflex" unicode="&#xf4;" horiz-adv-x="1335" 
d="M1380 674q0 -66 -8 -123q-19 -130 -68 -233.5t-132.5 -183.5t-212.5 -123.5t-295 -43.5q-283 0 -416 122.5t-133 336.5q0 51 10 123q15 103 48.5 190t90.5 160.5t135.5 125t188 80t243.5 28.5q146 0 253 -33t171 -95t94.5 -144t30.5 -187zM940 662q0 98 -37.5 135
t-114.5 37q-95 0 -147 -60.5t-76 -224.5q-10 -72 -10 -113q0 -96 37.5 -133t114.5 -37q95 0 148 60.5t77 224.5q8 57 8 111zM1221 1346l-166 -148l-201 197l-252 -197l-121 148l398 354q10 10 24 10q13 0 21 -10z" />
    <glyph glyph-name="otilde" unicode="&#xf5;" horiz-adv-x="1335" 
d="M1380 674q0 -66 -8 -123q-19 -130 -68 -233.5t-132.5 -183.5t-212.5 -123.5t-295 -43.5q-283 0 -416 122.5t-133 336.5q0 51 10 123q15 103 48.5 190t90.5 160.5t135.5 125t188 80t243.5 28.5q146 0 253 -33t171 -95t94.5 -144t30.5 -187zM940 662q0 98 -37.5 135
t-114.5 37q-95 0 -147 -60.5t-76 -224.5q-10 -72 -10 -113q0 -96 37.5 -133t114.5 -37q95 0 148 60.5t77 224.5q8 57 8 111zM1307 1524l-215 -242q-43 -49 -103 -49q-51 0 -78 22l-145 117q-10 10 -23 10q-10 0 -18 -8l-150 -153l-149 112l236 256q43 49 100 49q50 0 80 -24
l141 -107q6 -6 21 -6q14 0 26 12l127 129z" />
    <glyph glyph-name="odieresis" unicode="&#xf6;" horiz-adv-x="1335" 
d="M1380 674q0 -66 -8 -123q-19 -130 -68 -233.5t-132.5 -183.5t-212.5 -123.5t-295 -43.5q-283 0 -416 122.5t-133 336.5q0 51 10 123q15 103 48.5 190t90.5 160.5t135.5 125t188 80t243.5 28.5q146 0 253 -33t171 -95t94.5 -144t30.5 -187zM940 662q0 98 -37.5 135
t-114.5 37q-95 0 -147 -60.5t-76 -224.5q-10 -72 -10 -113q0 -96 37.5 -133t114.5 -37q95 0 148 60.5t77 224.5q8 57 8 111zM1315 1606l-47 -324q-2 -18 -19 -18h-301q-12 0 -14 3t0 15l47 324q3 22 16 22h306q15 0 12 -22zM766 1606l-47 -324q-2 -18 -19 -18h-301
q-12 0 -14 3t0 15l47 324q3 22 17 22h305q15 0 12 -22z" />
    <glyph glyph-name="divide" unicode="&#xf7;" 
d="M1008 1047q0 -17 -3 -20t-18 -3h-344q-16 0 -19 3t-3 15v5v323q0 18 3.5 21.5t18.5 3.5h344q14 0 17.5 -5t3.5 -20v-323zM1337 526h-1046v340h1046v-340zM1008 23q0 -17 -3 -20t-18 -3h-344q-20 0 -22 10v13v323q0 18 3.5 21.5t18.5 3.5h344q17 0 19 -9q0 -2 1 -7t1 -9
v-323z" />
    <glyph glyph-name="oslash" unicode="&#xf8;" horiz-adv-x="1335" 
d="M1401 1133l-133 -142q112 -118 112 -321q0 -64 -8 -119q-19 -130 -68 -233.5t-132.5 -183.5t-212.5 -123.5t-295 -43.5q-189 0 -308 51l-49 -51h-203l125 135q-114 117 -114 322q0 53 10 125q15 103 48.5 190t90.5 160.5t135.5 125t188 80t243.5 28.5q182 0 314 -58
l53 58h203zM891 807q-42 27 -103 27q-95 0 -148 -60.5t-77 -224.5q-5 -41 -8 -100zM940 643l-332 -354q40 -23 99 -23q95 0 148 60.5t77 224.5q5 36 8 92z" />
    <glyph glyph-name="ugrave" unicode="&#xf9;" horiz-adv-x="1296" 
d="M1368 1100l-158 -1100h-364l-25 98q-140 -131 -291 -131q-204 0 -301.5 94t-97.5 263q0 30 8 100l97 676h436l-97 -676q-6 -41 -6 -68q0 -52 19.5 -74t62.5 -22q69 0 168 62l111 778h438zM1032 1321l-137 -115q-17 -18 -37 2l-338 301l236 203l276 -356q18 -20 0 -35z
" />
    <glyph glyph-name="uacute" unicode="&#xfa;" horiz-adv-x="1296" 
d="M1368 1100l-158 -1100h-364l-25 98q-140 -131 -291 -131q-204 0 -301.5 94t-97.5 263q0 30 8 100l97 676h436l-97 -676q-6 -41 -6 -68q0 -52 19.5 -74t62.5 -22q69 0 168 62l111 778h438zM1212 1509l-426 -303q-23 -15 -34 0l-103 125q-13 16 4 33l379 356z" />
    <glyph glyph-name="ucircumflex" unicode="&#xfb;" horiz-adv-x="1296" 
d="M1368 1100l-158 -1100h-364l-25 98q-140 -131 -291 -131q-204 0 -301.5 94t-97.5 263q0 30 8 100l97 676h436l-97 -676q-6 -41 -6 -68q0 -52 19.5 -74t62.5 -22q69 0 168 62l111 778h438zM1194 1346l-166 -148l-201 197l-252 -197l-120 148l397 354q10 10 25 10
q13 0 20 -10z" />
    <glyph glyph-name="udieresis" unicode="&#xfc;" horiz-adv-x="1296" 
d="M1368 1100l-158 -1100h-364l-25 98q-140 -131 -291 -131q-204 0 -301.5 94t-97.5 263q0 30 8 100l97 676h436l-97 -676q-6 -41 -6 -68q0 -52 19.5 -74t62.5 -22q69 0 168 62l111 778h438zM1315 1606l-47 -324q-2 -18 -19 -18h-301q-12 0 -14 3t0 15l47 324q3 22 16 22
h306q15 0 12 -22zM766 1606l-47 -324q-2 -18 -19 -18h-301q-12 0 -14 3t0 15l47 324q3 22 17 22h305q15 0 12 -22z" />
    <glyph glyph-name="yacute" unicode="&#xfd;" horiz-adv-x="1345" 
d="M1489 1100l-729 -1331q-77 -143 -199 -204t-338 -61h-200l45 314h200q42 0 65.5 19t51.5 69l76 137l-289 1057h451l98 -606q10 -63 10 -74q0 -19 -2 -29q9 40 35 103l266 606h459zM1262 1509l-426 -303q-24 -16 -35 0l-103 125q-13 16 4 33l379 356z" />
    <glyph glyph-name="thorn" unicode="&#xfe;" horiz-adv-x="1323" 
d="M1368 676q0 -49 -10 -121q-41 -288 -219.5 -438t-468.5 -150q-89 0 -164 41q12 -40 12 -53v-12l-63 -441h-439l301 2091h439l-74 -512q107 52 219 52q95 0 177 -26t148 -79.5t104 -143.5t38 -208zM926 666q0 93 -34.5 141.5t-113.5 48.5q-56 0 -133 -35l-80 -555
q71 -22 113 -22q104 0 161 77t79 234q8 55 8 111z" />
    <glyph glyph-name="ydieresis" unicode="&#xff;" horiz-adv-x="1345" 
d="M1489 1100l-729 -1331q-77 -143 -199 -204t-338 -61h-200l45 314h200q42 0 65.5 19t51.5 69l76 137l-289 1057h451l98 -606q10 -63 10 -74q0 -19 -2 -29q9 40 35 103l266 606h459zM1331 1606l-47 -324q-1 -11 -5.5 -14.5t-12.5 -3.5h-301q-12 0 -14.5 3t-0.5 15l47 324
q3 22 17 22h305q15 0 12 -22zM782 1606l-47 -324q-1 -11 -5.5 -14.5t-12.5 -3.5h-301q-12 0 -14.5 3t-0.5 15l48 324q3 22 16 22h305q15 0 12 -22z" />
    <glyph glyph-name="Amacron" unicode="&#x100;" horiz-adv-x="1562" 
d="M1561 0h-453l-68 256h-471l-139 -256h-428l811 1477h365zM950 594l-41 201q-11 76 -8 110q-13 -61 -41 -110l-106 -201h196zM1391 1896l-43 -307h-664l43 307h664z" />
    <glyph glyph-name="amacron" unicode="&#x101;" horiz-adv-x="1251" 
d="M1278 825q0 -31 -6 -65l-109 -760h-321l-19 72q-145 -105 -311 -105q-206 0 -313 79.5t-107 232.5q0 35 6 73q14 98 61 167.5t117.5 106t147.5 52.5t168 16q108 0 231 -20l13 86q0 3 1 8.5t1 7.5q0 36 -29.5 53t-95.5 17q-135 0 -205 -68l-244 152q97 105 223.5 154
t305.5 49q485 0 485 -308zM795 475q-46 6 -97 6q-152 0 -166 -108q-2 -8 -2 -27q0 -94 109 -94q46 0 129 31zM1178 1567l-43 -307h-664l43 307h664z" />
    <glyph glyph-name="Abreve" unicode="&#x102;" horiz-adv-x="1562" 
d="M1561 0h-453l-68 256h-471l-139 -256h-428l811 1477h365zM950 594l-41 201q-11 76 -8 110q-13 -61 -41 -110l-106 -201h196zM1384 1841q-46 -70 -84 -116t-85.5 -85t-103 -57t-122.5 -18q-129 0 -200 68t-121 208l170 101q52 -100 87.5 -128t92.5 -28t100 28t125 128z
" />
    <glyph glyph-name="abreve" unicode="&#x103;" horiz-adv-x="1251" 
d="M1278 825q0 -31 -6 -65l-109 -760h-321l-19 72q-145 -105 -311 -105q-206 0 -313 79.5t-107 232.5q0 35 6 73q14 98 61 167.5t117.5 106t147.5 52.5t168 16q108 0 231 -20l13 86q0 3 1 8.5t1 7.5q0 36 -29.5 53t-95.5 17q-135 0 -205 -68l-244 152q97 105 223.5 154
t305.5 49q485 0 485 -308zM795 475q-46 6 -97 6q-152 0 -166 -108q-2 -8 -2 -27q0 -94 109 -94q46 0 129 31zM1245 1536q-46 -70 -84 -116t-85.5 -85t-103 -57t-122.5 -18q-130 0 -201 68t-121 208l170 100q52 -100 88 -127.5t93 -27.5t100.5 27.5t124.5 127.5z" />
    <glyph glyph-name="Aogonek" unicode="&#x104;" horiz-adv-x="1562" 
d="M1561 0q-146 -56 -216.5 -111t-70.5 -114q0 -33 17 -49.5t67 -16.5q36 0 158 27l-5 -158q-140 -37 -245 -37q-100 0 -175 65t-75 171q0 151 86 246l-62 233h-471l-139 -256h-428l811 1477h365zM950 594l-41 201q-8 56 -8 110q-13 -61 -41 -110l-106 -201h196z" />
    <glyph glyph-name="aogonek" unicode="&#x105;" horiz-adv-x="1251" 
d="M1278 825q0 -31 -6 -65l-109 -760q-51 -25 -85 -43.5t-73 -44t-62 -48t-38.5 -50.5t-15.5 -56q0 -49 59 -49q27 0 56.5 4t69 12t56.5 11l-4 -158q-140 -37 -245 -37q-236 0 -236 183q0 156 195 278l-17 70q-145 -105 -311 -105q-206 0 -313 79.5t-107 232.5q0 35 6 73
q14 98 61 167.5t117.5 106t147.5 52.5t168 16q108 0 231 -20l13 86q0 3 1 8.5t1 7.5q0 36 -29.5 53t-95.5 17q-135 0 -205 -68l-244 152q97 105 223.5 154t305.5 49q485 0 485 -308zM795 475q-46 6 -97 6q-152 0 -166 -108q-2 -8 -2 -27q0 -94 109 -94q46 0 129 31z" />
    <glyph glyph-name="Cacute" unicode="&#x106;" horiz-adv-x="1449" 
d="M1559 997q0 -31 -3 -65h-399q-1 127 -53 174t-168 47q-152 0 -219 -88.5t-101 -325.5q-16 -112 -16 -182q0 -123 49.5 -178t167.5 -55t196 52.5t163 186.5l301 -190q-55 -96 -117 -165.5t-146 -125.5t-196 -84.5t-252 -28.5q-610 0 -610 574q0 104 14 196
q20 138 57 250.5t102 211t154.5 165.5t217 105t286.5 38q288 0 430 -133.5t142 -378.5zM1346 1878l-426 -303q-24 -16 -35 0l-103 125q-13 16 4 33l379 356z" />
    <glyph glyph-name="cacute" unicode="&#x107;" horiz-adv-x="1220" 
d="M1317 844l-311 -142q-39 75 -81 106.5t-124 31.5q-96 0 -154.5 -64t-81.5 -225q-10 -72 -10 -111q0 -100 40.5 -140t121.5 -40q83 0 135 31.5t111 105.5l270 -141q-190 -289 -557 -289q-288 0 -424.5 119t-136.5 338q0 55 10 127q19 131 69 235t135 183t215.5 121.5
t299.5 42.5q366 0 473 -289zM1212 1509l-426 -303q-23 -15 -34 0l-103 125q-13 16 4 33l379 356z" />
    <glyph glyph-name="Ccircumflex" unicode="&#x108;" horiz-adv-x="1449" 
d="M1559 997q0 -31 -3 -65h-399q-1 127 -53 174t-168 47q-152 0 -219 -88.5t-101 -325.5q-16 -112 -16 -182q0 -123 49.5 -178t167.5 -55t196 52.5t163 186.5l301 -190q-55 -96 -117 -165.5t-146 -125.5t-196 -84.5t-252 -28.5q-610 0 -610 574q0 104 14 196
q20 138 57 250.5t102 211t154.5 165.5t217 105t286.5 38q288 0 430 -133.5t142 -378.5zM1368 1706l-166 -147l-201 196l-251 -196l-121 147l397 354q11 11 25 11q12 0 20 -11z" />
    <glyph glyph-name="ccircumflex" unicode="&#x109;" horiz-adv-x="1220" 
d="M1317 844l-311 -142q-39 75 -81 106.5t-124 31.5q-96 0 -154.5 -64t-81.5 -225q-10 -72 -10 -111q0 -100 40.5 -140t121.5 -40q83 0 135 31.5t111 105.5l270 -141q-190 -289 -557 -289q-288 0 -424.5 119t-136.5 338q0 55 10 127q19 131 69 235t135 183t215.5 121.5
t299.5 42.5q366 0 473 -289zM1188 1346l-166 -148l-201 197l-252 -197l-120 148l397 354q10 10 24 10t21 -10z" />
    <glyph glyph-name="Cdotaccent" unicode="&#x10a;" horiz-adv-x="1449" 
d="M1559 997q0 -31 -3 -65h-399q-1 127 -53 174t-168 47q-152 0 -219 -88.5t-101 -325.5q-16 -112 -16 -182q0 -123 49.5 -178t167.5 -55t196 52.5t163 186.5l301 -190q-55 -96 -117 -165.5t-146 -125.5t-196 -84.5t-252 -28.5q-610 0 -610 574q0 104 14 196
q20 138 57 250.5t102 211t154.5 165.5t217 105t286.5 38q288 0 430 -133.5t142 -378.5zM1268 1960l-51 -354q-2 -19 -19 -19h-383q-12 0 -14 3t0 16l51 354q3 22 16 22h387q16 0 13 -22z" />
    <glyph glyph-name="cdotaccent" unicode="&#x10b;" horiz-adv-x="1220" 
d="M1317 844l-311 -142q-39 75 -81 106.5t-124 31.5q-96 0 -154.5 -64t-81.5 -225q-10 -72 -10 -111q0 -100 40.5 -140t121.5 -40q83 0 135 31.5t111 105.5l270 -141q-190 -289 -557 -289q-288 0 -424.5 119t-136.5 338q0 55 10 127q19 131 69 235t135 183t215.5 121.5
t299.5 42.5q366 0 473 -289zM1044 1622l-51 -354q-2 -19 -18 -19h-383q-12 0 -14 3t0 16l51 354q3 23 16 23h387q15 0 12 -23z" />
    <glyph glyph-name="Ccaron" unicode="&#x10c;" horiz-adv-x="1449" 
d="M1559 997q0 -31 -3 -65h-399q-1 127 -53 174t-168 47q-152 0 -219 -88.5t-101 -325.5q-16 -112 -16 -182q0 -123 49.5 -178t167.5 -55t196 52.5t163 186.5l301 -190q-55 -96 -117 -165.5t-146 -125.5t-196 -84.5t-252 -28.5q-610 0 -610 574q0 104 14 196
q20 138 57 250.5t102 211t154.5 165.5t217 105t286.5 38q288 0 430 -133.5t142 -378.5zM1407 1929l-399 -354q-10 -10 -25 -10q-13 0 -20 10l-295 354l163 148l201 -197l252 197z" />
    <glyph glyph-name="ccaron" unicode="&#x10d;" horiz-adv-x="1220" 
d="M1317 844l-311 -142q-39 75 -81 106.5t-124 31.5q-96 0 -154.5 -64t-81.5 -225q-10 -72 -10 -111q0 -100 40.5 -140t121.5 -40q83 0 135 31.5t111 105.5l270 -141q-190 -289 -557 -289q-288 0 -424.5 119t-136.5 338q0 55 10 127q19 131 69 235t135 183t215.5 121.5
t299.5 42.5q366 0 473 -289zM1237 1563l-399 -355q-10 -10 -25 -10q-13 0 -20 10l-295 355l164 147l200 -197l252 197z" />
    <glyph glyph-name="Dcaron" unicode="&#x10e;" horiz-adv-x="1472" 
d="M1528 895q0 -61 -10 -139q-18 -123 -58.5 -231t-114 -205.5t-172.5 -167.5t-241.5 -111t-313.5 -41h-536l213 1477h536q183 0 319.5 -43.5t218 -123t120.5 -183t39 -232.5zM1081 866q0 136 -71 199t-230 63h-98l-113 -782h99q182 0 278 98.5t127 311.5q8 55 8 110z
M1278 1925l-399 -354q-10 -10 -25 -10q-12 0 -20 10l-295 354l163 148l201 -197l252 197z" />
    <glyph glyph-name="dcaron" unicode="&#x10f;" horiz-adv-x="1490" 
d="M1464 1595l-229 -1595h-334l-14 70q-142 -103 -305 -103q-101 0 -184.5 27.5t-147 83t-98.5 146t-35 208.5q0 55 10 133q20 141 80.5 250.5t151.5 178.5t205 104t247 35q106 0 174 -41q-18 37 -18 53q0 3 1 9t1 9l61 432h434zM922 836q-56 20 -119 20q-195 0 -236 -291
q-8 -52 -8 -110q0 -211 143 -211q60 0 140 35zM1982 1595l-223 -479q-9 -19 -15.5 -24t-21.5 -5h-209q-27 0 -20 29l147 479h342z" />
    <glyph glyph-name="Dcroat" unicode="&#x110;" horiz-adv-x="1472" 
d="M1528 897q0 -59 -10 -141q-18 -123 -58.5 -230.5t-113.5 -205.5t-172 -168t-241.5 -111t-314.5 -41h-540l86 596h-148l50 342h147l78 539h540q183 0 319.5 -43t218 -122.5t120.5 -182.5t39 -232zM1081 868q0 136 -71 198t-230 62h-100l-27 -190h236l-166 -342h-119
l-37 -250h101q183 0 277.5 98t125.5 312q10 68 10 112z" />
    <glyph glyph-name="dcroat" unicode="&#x111;" horiz-adv-x="1323" 
d="M1499 1249h-86l-178 -1249h-334l-14 70q-142 -103 -305 -103q-101 0 -184.5 27.5t-147 83t-98.5 146t-35 208.5q0 55 10 133q20 141 80.5 250.5t151.5 178.5t205 104t247 35q106 0 174 -41q-20 31 -16 71l12 86h-391l35 242h391l14 104h434l-16 -104h86zM922 836
q-56 20 -119 20q-195 0 -236 -291q-8 -52 -8 -110q0 -211 143 -211q60 0 140 35z" />
    <glyph glyph-name="Emacron" unicode="&#x112;" horiz-adv-x="1288" 
d="M1430 1477l-52 -353h-698l-27 -186h641l-168 -352h-532q4 -16 4 -23v-14l-29 -197h699l-51 -352h-1135l213 1477h1135zM1255 1896l-43 -307h-663l43 307h663z" />
    <glyph glyph-name="emacron" unicode="&#x113;" horiz-adv-x="1290" 
d="M1329 655q0 -51 -18 -204h-774q-5 -40 -5 -48q0 -147 177 -147q144 0 229 98l311 -100q-204 -287 -581 -287q-276 0 -414.5 115.5t-138.5 341.5q0 52 10 127q41 285 220 433.5t464 148.5q260 0 390 -121.5t130 -356.5zM938 684v8q0 78 -42.5 117t-109.5 39
q-156 0 -213 -164h365zM1159 1567l-43 -307h-663l43 307h663z" />
    <glyph glyph-name="Ebreve" unicode="&#x114;" horiz-adv-x="1288" 
d="M1430 1477l-52 -353h-698l-27 -186h641l-168 -352h-532q4 -16 4 -23v-14l-29 -197h699l-51 -352h-1135l213 1477h1135zM1260 1839q-45 -70 -83.5 -116t-86 -84.5t-103.5 -57t-123 -18.5q-129 0 -200 68t-121 208l170 100q52 -100 87.5 -127.5t92.5 -27.5t100.5 27.5
t124.5 127.5z" />
    <glyph glyph-name="ebreve" unicode="&#x115;" horiz-adv-x="1290" 
d="M1329 655q0 -51 -18 -204h-774q-5 -40 -5 -48q0 -147 177 -147q144 0 229 98l311 -100q-204 -287 -581 -287q-276 0 -414.5 115.5t-138.5 341.5q0 52 10 127q41 285 220 433.5t464 148.5q260 0 390 -121.5t130 -356.5zM938 684v8q0 78 -42.5 117t-109.5 39
q-156 0 -213 -164h365zM1227 1536q-45 -70 -83.5 -116t-86 -84.5t-103.5 -57t-123 -18.5q-129 0 -200 68t-121 208l170 100q52 -100 87.5 -127.5t92.5 -27.5t100.5 27.5t124.5 127.5z" />
    <glyph glyph-name="Edotaccent" unicode="&#x116;" horiz-adv-x="1288" 
d="M1430 1477l-52 -353h-698l-27 -186h641l-168 -352h-532q4 -16 4 -23v-14l-29 -197h699l-51 -352h-1135l213 1477h1135zM1114 1960l-51 -354q-2 -19 -19 -19h-382q-12 0 -14.5 3.5t-0.5 15.5l51 354q3 22 17 22h387q15 0 12 -22z" />
    <glyph glyph-name="edotaccent" unicode="&#x117;" horiz-adv-x="1290" 
d="M1329 655q0 -51 -18 -204h-774q-5 -40 -5 -48q0 -147 177 -147q144 0 229 98l311 -100q-204 -287 -581 -287q-276 0 -414.5 115.5t-138.5 341.5q0 52 10 127q41 285 220 433.5t464 148.5q260 0 390 -121.5t130 -356.5zM938 684v8q0 78 -42.5 117t-109.5 39
q-156 0 -213 -164h365zM1063 1622l-51 -354q-2 -19 -19 -19h-383q-12 0 -14 3t0 16l51 354q3 23 17 23h387q15 0 12 -23z" />
    <glyph glyph-name="Eogonek" unicode="&#x118;" horiz-adv-x="1288" 
d="M1430 1477l-52 -353h-698l-27 -186h641l-168 -352h-532q4 -16 4 -23v-14l-29 -197h699l-51 -352h-105q-110 -78 -157 -127t-54 -104q0 -1 -1 -5t-1 -6q0 -49 59 -49q27 0 56.5 4t69.5 12t57 11l-4 -158q-140 -37 -246 -37q-236 0 -236 166q0 25 2 37q10 72 69 138
t146 118h-790l213 1477h1135z" />
    <glyph glyph-name="eogonek" unicode="&#x119;" horiz-adv-x="1290" 
d="M1034 53q-19 -14 -52 -37.5t-48.5 -35t-41.5 -31t-38.5 -30.5t-31.5 -27.5t-28 -27t-20.5 -25t-16.5 -27t-8.5 -26.5t-3.5 -28q0 -20 14 -34.5t46 -14.5q27 0 56.5 4t69 12t56.5 11l-4 -158q-140 -37 -246 -37q-235 0 -235 183q0 131 164 243q-274 0 -412.5 115.5
t-138.5 341.5q0 52 10 127q41 285 220 433.5t464 148.5q260 0 390 -121.5t130 -356.5q0 -51 -18 -204h-774q-5 -40 -5 -48q0 -147 177 -147q144 0 229 98l311 -100q-94 -133 -215 -201zM938 684v8q0 78 -42.5 117t-109.5 39q-156 0 -213 -164h365z" />
    <glyph glyph-name="Ecaron" unicode="&#x11a;" horiz-adv-x="1288" 
d="M1430 1477l-52 -353h-698l-27 -186h641l-168 -352h-532q4 -16 4 -23v-14l-29 -197h699l-51 -352h-1135l213 1477h1135zM1296 1927l-399 -354q-10 -10 -25 -10q-12 0 -20 10l-295 354l164 148l201 -197l252 197z" />
    <glyph glyph-name="ecaron" unicode="&#x11b;" horiz-adv-x="1290" 
d="M1329 655q0 -51 -18 -204h-774q-5 -40 -5 -48q0 -147 177 -147q144 0 229 98l311 -100q-204 -287 -581 -287q-276 0 -414.5 115.5t-138.5 341.5q0 52 10 127q41 285 220 433.5t464 148.5q260 0 390 -121.5t130 -356.5zM938 684v8q0 78 -42.5 117t-109.5 39
q-156 0 -213 -164h365zM1233 1563l-399 -355q-10 -10 -25 -10q-14 0 -21 10l-294 355l163 147l201 -197l252 197z" />
    <glyph glyph-name="Gcircumflex" unicode="&#x11c;" horiz-adv-x="1544" 
d="M1604 1006q0 -40 -2 -60h-414q-2 99 -47.5 153t-153.5 54q-56 0 -96.5 -5.5t-80.5 -21.5t-68.5 -45t-54 -74.5t-43 -112t-30.5 -155.5q-14 -92 -14 -166q0 -66 13 -112t34 -73t58 -41.5t73.5 -18.5t91.5 -4q111 0 207 47l17 110q6 22 8 27h-199l-47 328h727l-92 -643
q-342 -224 -672 -224q-333 0 -498 141.5t-165 436.5q0 94 14 192q55 386 264.5 578t603.5 192q285 0 425.5 -133.5t140.5 -369.5zM1425 1712l-165 -147l-201 196l-252 -196l-121 147l397 354q11 11 25 11q12 0 20 -11z" />
    <glyph glyph-name="gcircumflex" unicode="&#x11d;" horiz-adv-x="1388" 
d="M1552 1133l-92 -306h-47q-43 0 -96 31q22 -68 22 -119q0 -24 -2 -34q-32 -223 -190 -327t-442 -104q-55 0 -152 13q-8 1 -21 4.5t-24.5 5.5t-22.5 2q-27 0 -30 -27v-8q0 -13 11 -19t46 -12l422 -75q90 -16 149.5 -34.5t109.5 -48.5t73.5 -76.5t23.5 -111.5q0 -38 -4 -61
q-13 -86 -53.5 -148t-120 -107.5t-209 -68t-311.5 -22.5q-306 0 -449 76t-143 264q0 24 8 90q24 164 185 258q-31 34 -31 88q0 17 2 25q12 86 117 125q-91 88 -91 221q0 31 7 78q14 97 53 171.5t95 122.5t134 78.5t162.5 43t187.5 12.5q217 0 314 -64l119 64h290zM922 745
q0 58 -31.5 86.5t-99.5 28.5q-79 0 -119 -38.5t-51 -116.5q-5 -40 -5 -43q0 -56 30 -83.5t99 -27.5q81 0 122.5 38.5t52.5 115.5q2 14 2 40zM829 -96q0 57 -61 67l-313 58q-38 -49 -49 -121q-3 -12 -3 -25q0 -131 230 -131q176 0 192 109q4 28 4 43zM1208 1346l-166 -148
l-200 197l-252 -197l-121 148l397 354q10 10 25 10q12 0 20 -10z" />
    <glyph glyph-name="Gbreve" unicode="&#x11e;" horiz-adv-x="1544" 
d="M1604 1006q0 -40 -2 -60h-414q-2 99 -47.5 153t-153.5 54q-56 0 -96.5 -5.5t-80.5 -21.5t-68.5 -45t-54 -74.5t-43 -112t-30.5 -155.5q-14 -92 -14 -166q0 -66 13 -112t34 -73t58 -41.5t73.5 -18.5t91.5 -4q111 0 207 47l17 110q6 22 8 27h-199l-47 328h727l-92 -643
q-342 -224 -672 -224q-333 0 -498 141.5t-165 436.5q0 94 14 192q55 386 264.5 578t603.5 192q285 0 425.5 -133.5t140.5 -369.5zM1419 1841q-46 -70 -84 -116t-85.5 -85t-103 -57t-122.5 -18q-130 0 -201 68t-121 208l170 101q52 -100 88 -128t93 -28t100 28t125 128z" />
    <glyph glyph-name="gbreve" unicode="&#x11f;" horiz-adv-x="1388" 
d="M1552 1133l-92 -306h-47q-43 0 -96 31q22 -68 22 -119q0 -24 -2 -34q-32 -223 -190 -327t-442 -104q-55 0 -152 13q-8 1 -21 4.5t-24.5 5.5t-22.5 2q-27 0 -30 -27v-8q0 -13 11 -19t46 -12l422 -75q90 -16 149.5 -34.5t109.5 -48.5t73.5 -76.5t23.5 -111.5q0 -38 -4 -61
q-13 -86 -53.5 -148t-120 -107.5t-209 -68t-311.5 -22.5q-306 0 -449 76t-143 264q0 24 8 90q24 164 185 258q-31 34 -31 88q0 17 2 25q12 86 117 125q-91 88 -91 221q0 31 7 78q14 97 53 171.5t95 122.5t134 78.5t162.5 43t187.5 12.5q217 0 314 -64l119 64h290zM922 745
q0 58 -31.5 86.5t-99.5 28.5q-79 0 -119 -38.5t-51 -116.5q-5 -40 -5 -43q0 -56 30 -83.5t99 -27.5q81 0 122.5 38.5t52.5 115.5q2 14 2 40zM829 -96q0 57 -61 67l-313 58q-38 -49 -49 -121q-3 -12 -3 -25q0 -131 230 -131q176 0 192 109q4 28 4 43zM1241 1536
q-46 -70 -84 -116t-85.5 -85t-103 -57t-122.5 -18q-130 0 -201 68t-121 208l170 100q52 -100 87.5 -127.5t92.5 -27.5t101 27.5t125 127.5z" />
    <glyph glyph-name="Gdotaccent" unicode="&#x120;" horiz-adv-x="1544" 
d="M1604 1006q0 -40 -2 -60h-414q-2 99 -47.5 153t-153.5 54q-56 0 -96.5 -5.5t-80.5 -21.5t-68.5 -45t-54 -74.5t-43 -112t-30.5 -155.5q-14 -92 -14 -166q0 -66 13 -112t34 -73t58 -41.5t73.5 -18.5t91.5 -4q111 0 207 47l17 110q6 22 8 27h-199l-47 328h727l-92 -643
q-342 -224 -672 -224q-333 0 -498 141.5t-165 436.5q0 94 14 192q55 386 264.5 578t603.5 192q285 0 425.5 -133.5t140.5 -369.5zM1303 1960l-52 -354q-2 -19 -18 -19h-383q-12 0 -14 3t0 16l51 354q3 22 16 22h387q16 0 13 -22z" />
    <glyph glyph-name="gdotaccent" unicode="&#x121;" horiz-adv-x="1388" 
d="M1552 1133l-92 -306h-47q-43 0 -96 31q22 -68 22 -119q0 -24 -2 -34q-32 -223 -190 -327t-442 -104q-55 0 -152 13q-8 1 -21 4.5t-24.5 5.5t-22.5 2q-27 0 -30 -27v-8q0 -13 11 -19t46 -12l422 -75q90 -16 149.5 -34.5t109.5 -48.5t73.5 -76.5t23.5 -111.5q0 -38 -4 -61
q-13 -86 -53.5 -148t-120 -107.5t-209 -68t-311.5 -22.5q-306 0 -449 76t-143 264q0 24 8 90q24 164 185 258q-31 34 -31 88q0 17 2 25q12 86 117 125q-91 88 -91 221q0 31 7 78q14 97 53 171.5t95 122.5t134 78.5t162.5 43t187.5 12.5q217 0 314 -64l119 64h290zM922 745
q0 58 -31.5 86.5t-99.5 28.5q-79 0 -119 -38.5t-51 -116.5q-5 -40 -5 -43q0 -56 30 -83.5t99 -27.5q81 0 122.5 38.5t52.5 115.5q2 14 2 40zM829 -96q0 57 -61 67l-313 58q-38 -49 -49 -121q-3 -12 -3 -25q0 -131 230 -131q176 0 192 109q4 28 4 43zM1090 1622l-52 -354
q-2 -19 -18 -19h-383q-12 0 -14 3t0 16l51 354q3 23 16 23h387q16 0 13 -23z" />
    <glyph glyph-name="Gcommaaccent" unicode="&#x122;" horiz-adv-x="1544" 
d="M1604 1006q0 -40 -2 -60h-414q-2 99 -47.5 153t-153.5 54q-56 0 -96.5 -5.5t-80.5 -21.5t-68.5 -45t-54 -74.5t-43 -112t-30.5 -155.5q-14 -92 -14 -166q0 -66 13 -112t34 -73t58 -41.5t73.5 -18.5t91.5 -4q111 0 207 47l17 110q6 22 8 27h-199l-47 328h727l-92 -643
q-342 -224 -672 -224q-333 0 -498 141.5t-165 436.5q0 94 14 192q55 386 264.5 578t603.5 192q285 0 425.5 -133.5t140.5 -369.5zM965 -225v-2q-25 -158 -117 -271h-260q34 38 58 92.5t30 102.5h-98q-13 0 -17 5t-2 19l25 175q3 22 22 22h355q11 0 14 -0.5t6.5 -5.5
t-0.5 -16z" />
    <glyph glyph-name="gcommaaccent" unicode="&#x123;" horiz-adv-x="1388" 
d="M1552 1133l-92 -306h-47q-43 0 -96 31q22 -68 22 -119q0 -24 -2 -34q-32 -223 -190 -327t-442 -104q-55 0 -152 13q-8 1 -21 4.5t-24.5 5.5t-22.5 2q-27 0 -30 -27v-8q0 -13 11 -19t46 -12l422 -75q90 -16 149.5 -34.5t109.5 -48.5t73.5 -76.5t23.5 -111.5q0 -38 -4 -61
q-13 -86 -53.5 -148t-120 -107.5t-209 -68t-311.5 -22.5q-306 0 -449 76t-143 264q0 24 8 90q24 164 185 258q-31 34 -31 88q0 17 2 25q12 86 117 125q-91 88 -91 221q0 31 7 78q14 97 53 171.5t95 122.5t134 78.5t162.5 43t187.5 12.5q217 0 314 -64l119 64h290zM922 745
q0 58 -31.5 86.5t-99.5 28.5q-79 0 -119 -38.5t-51 -116.5q-5 -40 -5 -43q0 -56 30 -83.5t99 -27.5q81 0 122.5 38.5t52.5 115.5q2 14 2 40zM829 -96q0 57 -61 67l-313 58q-38 -49 -49 -121q-3 -12 -3 -25q0 -131 230 -131q176 0 192 109q4 28 4 43zM1047 1274
q-6 -27 -27 -27h-348q-28 0 -23 29l17 117q22 157 114 270h260q-33 -38 -56.5 -92t-31.5 -103h99q13 0 17 -5t1 -19z" />
    <glyph glyph-name="Hcircumflex" unicode="&#x124;" horiz-adv-x="1525" 
d="M1657 1477l-213 -1477h-438l86 590h-486l-86 -590h-438l213 1477h438l-76 -525h486l76 525h438zM1380 1712l-166 -147l-200 196l-252 -196l-121 147l397 354q11 11 25 11q12 0 20 -11z" />
    <glyph glyph-name="hcircumflex" unicode="&#x125;" horiz-adv-x="1308" 
d="M1325 776q0 -48 -6 -100l-98 -676h-437l99 676q4 27 4 67q0 52 -19.5 74.5t-62.5 22.5q-67 0 -166 -62l-113 -778h-438l229 1595h437l-80 -561q120 99 254 99q204 0 300.5 -93.5t96.5 -263.5zM1255 1755l-165 -147l-201 196l-252 -196l-121 147l397 354q11 11 25 11
q12 0 20 -11z" />
    <glyph glyph-name="Hbar" unicode="&#x126;" horiz-adv-x="1525" 
d="M156 1087l34 248h82l21 142h438l-20 -142h485l21 142h438l-21 -142h82l-35 -248h-82l-155 -1087h-438l84 590h-486l-84 -590h-438l156 1087h-82zM657 952h486l18 135h-485z" />
    <glyph glyph-name="hbar" unicode="&#x127;" horiz-adv-x="1308" 
d="M1325 776q0 -48 -6 -100l-98 -676h-437l99 676q4 27 4 67q0 52 -19.5 74.5t-62.5 22.5q-67 0 -166 -62l-113 -778h-438l178 1249h-84l35 242h84l16 104h437l-15 -104h387l-34 -242h-387l-31 -215q120 99 254 99q204 0 300.5 -93.5t96.5 -263.5z" />
    <glyph glyph-name="Itilde" unicode="&#x128;" horiz-adv-x="602" 
d="M733 1477l-213 -1477h-438l213 1477h438zM1008 1868l-215 -242q-43 -49 -103 -49q-50 0 -78 22l-145 117q-10 10 -23 10q-10 0 -18 -8l-150 -153l-149 112l235 256q43 49 101 49q50 0 80 -24l141 -107q6 -6 21 -6q13 0 26 13l127 129z" />
    <glyph glyph-name="itilde" unicode="&#x129;" horiz-adv-x="612" 
d="M682 1100l-158 -1100h-436l158 1100h436zM987 1524l-215 -242q-43 -49 -102 -49q-50 0 -78 22l-146 117q-10 10 -22 10q-10 0 -18 -8l-150 -153l-150 112l236 256q43 49 100 49q50 0 80 -24l142 -107q6 -6 20 -6q15 0 27 12l127 129z" />
    <glyph glyph-name="Imacron" unicode="&#x12a;" horiz-adv-x="602" 
d="M733 1477l-213 -1477h-438l213 1477h438zM918 1892l-44 -307h-663l43 307h664z" />
    <glyph glyph-name="imacron" unicode="&#x12b;" horiz-adv-x="612" 
d="M682 1100l-158 -1100h-436l158 1100h436zM874 1567l-43 -307h-663l43 307h663z" />
    <glyph glyph-name="Ibreve" unicode="&#x12c;" horiz-adv-x="602" 
d="M733 1477l-213 -1477h-438l213 1477h438zM924 1841q-45 -70 -83.5 -116t-86 -84.5t-103.5 -57t-123 -18.5q-129 0 -200 68t-121 208l170 101q52 -100 87.5 -128t92.5 -28t100 28t125 128z" />
    <glyph glyph-name="ibreve" unicode="&#x12d;" horiz-adv-x="612" 
d="M682 1100l-158 -1100h-436l158 1100h436zM887 1536q-46 -70 -84 -116t-85.5 -85t-103 -57t-122.5 -18q-130 0 -201 68t-121 208l170 100q52 -100 87.5 -127.5t92.5 -27.5t100.5 27.5t124.5 127.5z" />
    <glyph glyph-name="Iogonek" unicode="&#x12e;" horiz-adv-x="602" 
d="M293 1477l-211 -1477q-74 -64 -103.5 -121t-29.5 -141q0 -47 15.5 -82.5t41 -57t64.5 -34.5t80 -18t94 -5q108 0 248 37l4 158q-16 -3 -57 -11t-71 -12t-57 -4q-57 0 -57 47q0 36 16 65.5t56.5 60.5t79 54t114.5 64l211 1477h-438z" />
    <glyph glyph-name="iogonek" unicode="&#x12f;" horiz-adv-x="612" 
d="M682 1100l-158 -1100q-160 -92 -212 -136.5t-52 -103.5q0 -51 57 -51q27 0 56 4t71.5 12.5t53.5 10.5v-158q-140 -37 -248 -37q-127 0 -193.5 62t-66.5 161q0 138 98 236l158 1100h436zM705 1260q-1 -9 -4 -13t-6 -5t-9 -1h-399q-13 0 -16 4.5t-1 14.5v0v0v0v0v0v0v0v0v0
v0v0v0l45 313q3 15 8 18.5t23 3.5h383q12 0 17.5 -6.5t3.5 -15.5z" />
    <glyph glyph-name="Idotaccent" unicode="&#x130;" horiz-adv-x="602" 
d="M733 1477l-213 -1477h-438l213 1477h438zM795 1962l-52 -354q-2 -19 -18 -19h-383q-12 0 -14 3t0 16l51 354q3 23 16 23h387q16 0 13 -23z" />
    <glyph glyph-name="dotlessi" unicode="&#x131;" horiz-adv-x="612" 
d="M682 1100l-158 -1100h-436l158 1100h436z" />
    <glyph glyph-name="IJ" unicode="&#x132;" horiz-adv-x="1667" 
d="M733 1477l-213 -1477h-438l213 1477h438zM1759 1477l-145 -1014q-35 -243 -190 -369.5t-418 -126.5q-121 0 -209.5 23t-169.5 80l258 295q29 -19 76 -30t86 -11q61 0 89.5 32.5t39.5 106.5l145 1014h438z" />
    <glyph glyph-name="ij" unicode="&#x133;" horiz-adv-x="1224" 
d="M752 1573l-45 -313q-2 -14 -5 -16.5t-16 -2.5h-399q-13 0 -15 2.5t0 16.5l45 313q2 15 5 18.5t16 3.5h399q13 0 15 -3t0 -19zM682 1100l-158 -1100h-436l158 1100h436zM1364 1573l-45 -313q-2 -14 -5 -16.5t-16 -2.5h-399q-13 0 -14.5 2.5t0.5 16.5l45 313q1 11 2 15
t5 5.5t13 1.5h400q13 0 14.5 -3.5t-0.5 -18.5zM1294 1100l-178 -1235q-23 -161 -124 -259t-281 -98h-277l45 306h154q26 0 35 12t12 39l178 1235h436z" />
    <glyph glyph-name="Jcircumflex" unicode="&#x134;" horiz-adv-x="1064" 
d="M1157 1477l-145 -1014q-35 -243 -190.5 -369.5t-418.5 -126.5q-121 0 -209 23t-169 80l258 295q29 -19 75.5 -30t85.5 -11q61 0 89.5 32.5t39.5 106.5l146 1014h438zM1343 1708l-165 -147l-201 196l-252 -196l-121 147l397 354q11 11 25 11q13 0 21 -11z" />
    <glyph glyph-name="jcircumflex" unicode="&#x135;" horiz-adv-x="612" 
d="M504 -135q-23 -161 -124.5 -259t-281.5 -98h-274l43 306h151q26 0 36.5 12.5t13.5 38.5l178 1235h436zM866 1346l-166 -148l-200 197l-252 -197l-121 148l397 354q10 10 25 10q13 0 20 -10z" />
    <glyph glyph-name="Kcommaaccent" unicode="&#x136;" horiz-adv-x="1435" 
d="M1642 1477l-720 -701l518 -776h-563l-259 418q-21 35 -24 92l-74 -510h-438l213 1477h438l-65 -447l399 447h575zM911 -225v-2q-25 -159 -116 -271h-260q34 38 58 92.5t30 102.5h-99q-13 0 -16.5 5t-1.5 19l24 175q3 22 23 22h354q11 0 14 -0.5t7 -5.5t0 -16z" />
    <glyph glyph-name="kcommaaccent" unicode="&#x137;" horiz-adv-x="1359" 
d="M1481 1100l-531 -432l404 -668h-525l-188 379q-12 21 -12 39q0 10 2 18l-47 -37l-58 -399h-438l229 1595h439l-111 -776l311 281h525zM872 -225v-2q-25 -159 -116 -271h-260q34 38 58 92.5t30 102.5h-99q-13 0 -16.5 5t-1.5 19l25 175q3 22 22 22h354q11 0 14 -0.5
t7 -5.5t0 -16z" />
    <glyph glyph-name="kgreenlandic" unicode="&#x138;" horiz-adv-x="1359" 
d="M1481 1100l-531 -432l404 -668h-525l-188 379q-12 21 -12 39q0 10 2 18l-47 -37l-58 -399h-438l160 1100h438l-41 -281l311 281h525z" />
    <glyph glyph-name="Lacute" unicode="&#x139;" horiz-adv-x="1146" 
d="M1149 367l-53 -367h-1014l213 1477h440l-160 -1110h574zM1139 1878l-426 -303q-24 -16 -35 0l-103 125q-13 15 5 33l378 356z" />
    <glyph glyph-name="lacute" unicode="&#x13a;" horiz-adv-x="722" 
d="M754 1595l-181 -1249q-2 -8 -2 -22q0 -19 8.5 -26t30.5 -7h84l-43 -309h-229q-138 0 -214.5 75.5t-76.5 210.5q0 38 6 78l180 1249h437zM1018 1935l-426 -303q-24 -16 -35 0l-102 125q-13 16 4 33l379 356z" />
    <glyph glyph-name="Lcommaaccent" unicode="&#x13b;" horiz-adv-x="1146" 
d="M1149 367l-53 -367h-1014l213 1477h440l-160 -1110h574zM766 -225v-2q-25 -158 -117 -271h-260q34 38 58 92.5t30 102.5h-98q-13 0 -17 5t-2 19l25 175q3 22 23 22h354q11 0 14 -0.5t6.5 -5.5t-0.5 -16z" />
    <glyph glyph-name="lcommaaccent" unicode="&#x13c;" horiz-adv-x="722" 
d="M754 1595l-181 -1249q-2 -8 -2 -22q0 -19 8.5 -26t30.5 -7h84l-43 -309h-229q-138 0 -214.5 75.5t-76.5 210.5q0 38 6 78l180 1249h437zM555 -225v-2q-25 -158 -117 -271h-260q34 38 58 92.5t30 102.5h-98q-13 0 -16.5 5t-1.5 19l24 175q3 22 23 22h354q11 0 14 -0.5
t6.5 -5.5t-0.5 -16z" />
    <glyph glyph-name="Lcaron" unicode="&#x13d;" horiz-adv-x="1146" 
d="M1149 367l-53 -367h-1014l213 1477h440l-160 -1110h574zM1327 1565l-223 -480q-9 -18 -15.5 -23t-21.5 -5h-209q-27 0 -20 28l147 480h342z" />
    <glyph glyph-name="lcaron" unicode="&#x13e;" horiz-adv-x="782" 
d="M754 1595l-181 -1249q-2 -8 -2 -22q0 -19 8.5 -26t30.5 -7h84l-43 -309h-229q-138 0 -214.5 75.5t-76.5 210.5q0 38 6 78l180 1249h437zM1274 1595l-223 -479q-9 -19 -15.5 -24t-21.5 -5h-209q-28 0 -21 29l148 479h342z" />
    <glyph glyph-name="Ldot" unicode="&#x13f;" horiz-adv-x="1146" 
d="M1149 367l-53 -367h-1014l213 1477h440l-160 -1110h574zM1290 1096l-51 -355q-1 -11 -5.5 -14.5t-12.5 -3.5h-383q-12 0 -14.5 3t-0.5 15l51 355q3 22 17 22h387q15 0 12 -22z" />
    <glyph glyph-name="ldot" unicode="&#x140;" horiz-adv-x="1034" 
d="M754 1595l-181 -1249q-2 -8 -2 -22q0 -19 8.5 -26t30.5 -7h84l-43 -309h-229q-138 0 -214.5 75.5t-76.5 210.5q0 38 6 78l180 1249h437zM1245 948l-51 -354q-2 -19 -18 -19h-383q-12 0 -14.5 3.5t-0.5 15.5l51 354q3 23 17 23h387q15 0 12 -23z" />
    <glyph glyph-name="Lslash" unicode="&#x141;" horiz-adv-x="1146" 
d="M1149 367l-53 -367h-1018l72 498l-132 -76l43 305l134 78l96 672h440l-57 -398l192 113l-45 -307l-192 -113l-58 -405h578z" />
    <glyph glyph-name="lslash" unicode="&#x142;" horiz-adv-x="722" 
d="M879 1243l-41 -289l-195 -114l-72 -500q0 -3 -1 -8.5t-1 -7.5q0 -35 37 -35h88l-43 -307h-231q-139 0 -215 73t-76 207q0 38 6 78l31 213l-193 -117l41 289l193 115l110 755h435l-68 -469z" />
    <glyph glyph-name="Nacute" unicode="&#x143;" horiz-adv-x="1544" 
d="M1675 1477l-213 -1477h-377l-485 762q4 -50 4 -62q0 -20 -2 -32l-96 -668h-424l213 1477h371l497 -770q-10 48 -10 71q0 21 2 33l96 666h424zM1399 1878l-426 -303q-24 -16 -35 0l-102 125q-13 16 4 33l379 356z" />
    <glyph glyph-name="nacute" unicode="&#x144;" horiz-adv-x="1298" 
d="M1325 776q0 -48 -6 -100l-98 -676h-437l99 676q4 27 4 67q0 52 -19.5 74.5t-62.5 22.5q-67 0 -166 -62l-113 -778h-438l158 1100h364l25 -99q141 132 293 132q204 0 300.5 -93.5t96.5 -263.5zM1151 1509l-426 -303q-24 -16 -35 0l-102 125q-13 16 4 33l379 356z" />
    <glyph glyph-name="Ncommaaccent" unicode="&#x145;" horiz-adv-x="1544" 
d="M1675 1477l-213 -1477h-377l-485 762q4 -50 4 -62q0 -20 -2 -32l-96 -668h-424l213 1477h371l497 -770q-10 48 -10 71q0 21 2 33l96 666h424zM965 -225v-2q-25 -158 -117 -271h-260q34 38 58 92.5t30 102.5h-98q-13 0 -17 5t-2 19l25 175q3 22 22 22h355q11 0 14 -0.5
t6.5 -5.5t-0.5 -16z" />
    <glyph glyph-name="ncommaaccent" unicode="&#x146;" horiz-adv-x="1298" 
d="M1325 776q0 -48 -6 -100l-98 -676h-437l99 676q4 27 4 67q0 52 -19.5 74.5t-62.5 22.5q-67 0 -166 -62l-113 -778h-438l158 1100h364l25 -99q141 132 293 132q204 0 300.5 -93.5t96.5 -263.5zM842 -225v-2q-25 -158 -117 -271h-260q34 38 58 92.5t30 102.5h-98
q-13 0 -17 5t-2 19l25 175q3 22 22 22h355q11 0 14 -0.5t6.5 -5.5t-0.5 -16z" />
    <glyph glyph-name="Ncaron" unicode="&#x147;" horiz-adv-x="1544" 
d="M1675 1477l-213 -1477h-377l-485 762q4 -50 4 -62q0 -20 -2 -32l-96 -668h-424l213 1477h371l497 -770q-10 48 -10 71q0 21 2 33l96 666h424zM1417 1925l-399 -354q-10 -10 -25 -10q-13 0 -20 10l-295 354l164 148l200 -197l252 197z" />
    <glyph glyph-name="ncaron" unicode="&#x148;" horiz-adv-x="1298" 
d="M1325 776q0 -48 -6 -100l-98 -676h-437l99 676q4 27 4 67q0 52 -19.5 74.5t-62.5 22.5q-67 0 -166 -62l-113 -778h-438l158 1100h364l25 -99q141 132 293 132q204 0 300.5 -93.5t96.5 -263.5zM1219 1563l-400 -355q-10 -10 -24 -10q-13 0 -21 10l-295 355l164 147
l201 -197l252 197z" />
    <glyph glyph-name="napostrophe" unicode="&#x149;" horiz-adv-x="1843" 
d="M676 1456l-45 -309q-18 -118 -120.5 -223.5t-240.5 -161.5l-80 127q86 48 124 100t48 119h-100q-11 0 -15 3t-3 13l49 332q2 14 5 17.5t15 3.5h351q16 0 12 -21zM1870 776q0 -48 -6 -100l-99 -676h-436l98 676q5 34 5 67q0 52 -19.5 74.5t-62.5 22.5q-67 0 -166 -62
l-113 -778h-438l158 1100h364l25 -99q141 132 293 132q204 0 300.5 -93.5t96.5 -263.5z" />
    <glyph glyph-name="Eng" unicode="&#x14a;" horiz-adv-x="1544" 
d="M1460 -8q-35 -239 -180.5 -367.5t-364.5 -128.5q-165 0 -261.5 22.5t-180.5 80.5l258 295q29 -19 76 -30t86 -11q63 0 96.5 33.5t44.5 105.5l10 69l-446 701q7 -62 2 -94l-94 -668h-424l211 1477h371l479 -742l106 742h424z" />
    <glyph glyph-name="eng" unicode="&#x14b;" horiz-adv-x="1298" 
d="M1325 776q0 -48 -6 -100l-119 -811q-23 -161 -124 -259t-281 -98h-277l45 306h154q26 0 35 12t12 39l119 811q4 27 4 67q0 52 -19.5 74.5t-62.5 22.5q-67 0 -166 -62l-113 -778h-438l158 1100h364l25 -99q141 132 293 132q204 0 300.5 -93.5t96.5 -263.5z" />
    <glyph glyph-name="Omacron" unicode="&#x14c;" horiz-adv-x="1544" 
d="M1604 940q0 -70 -15 -184q-13 -91 -32.5 -171t-53 -161.5t-77.5 -147.5t-108 -125t-142 -98.5t-182 -62.5t-226 -23q-140 0 -247.5 30t-175.5 81.5t-111 126.5t-60.5 157t-17.5 181q0 98 16 213q109 753 817 753q141 0 249 -31t176.5 -82.5t112 -126t60.5 -154.5t17 -175
zM1159 922q0 129 -51.5 180t-169.5 51q-147 0 -218 -85t-104 -312q-16 -122 -16 -193q0 -136 52 -188.5t167 -52.5q98 0 158.5 36t102 131t65.5 267q14 88 14 166zM1372 1894l-43 -307h-663l43 307h663z" />
    <glyph glyph-name="omacron" unicode="&#x14d;" horiz-adv-x="1335" 
d="M1380 674q0 -66 -8 -123q-19 -130 -68 -233.5t-132.5 -183.5t-212.5 -123.5t-295 -43.5q-283 0 -416 122.5t-133 336.5q0 51 10 123q15 103 48.5 190t90.5 160.5t135.5 125t188 80t243.5 28.5q146 0 253 -33t171 -95t94.5 -144t30.5 -187zM940 662q0 98 -37.5 135
t-114.5 37q-95 0 -147 -60.5t-76 -224.5q-10 -72 -10 -113q0 -96 37.5 -133t114.5 -37q95 0 148 60.5t77 224.5q8 57 8 111zM1210 1567l-43 -307h-663l43 307h663z" />
    <glyph glyph-name="Obreve" unicode="&#x14e;" horiz-adv-x="1544" 
d="M1604 940q0 -70 -15 -184q-13 -91 -32.5 -171t-53 -161.5t-77.5 -147.5t-108 -125t-142 -98.5t-182 -62.5t-226 -23q-140 0 -247.5 30t-175.5 81.5t-111 126.5t-60.5 157t-17.5 181q0 98 16 213q109 753 817 753q141 0 249 -31t176.5 -82.5t112 -126t60.5 -154.5t17 -175
zM1159 922q0 129 -51.5 180t-169.5 51q-147 0 -218 -85t-104 -312q-16 -122 -16 -193q0 -136 52 -188.5t167 -52.5q98 0 158.5 36t102 131t65.5 267q14 88 14 166zM1397 1841q-45 -70 -83.5 -116t-86 -84.5t-103.5 -57t-123 -18.5q-129 0 -200 68t-121 208l170 101
q52 -100 87.5 -128t92.5 -28t100 28t125 128z" />
    <glyph glyph-name="obreve" unicode="&#x14f;" horiz-adv-x="1335" 
d="M1380 674q0 -66 -8 -123q-19 -130 -68 -233.5t-132.5 -183.5t-212.5 -123.5t-295 -43.5q-283 0 -416 122.5t-133 336.5q0 51 10 123q15 103 48.5 190t90.5 160.5t135.5 125t188 80t243.5 28.5q146 0 253 -33t171 -95t94.5 -144t30.5 -187zM940 662q0 98 -37.5 135
t-114.5 37q-95 0 -147 -60.5t-76 -224.5q-10 -72 -10 -113q0 -96 37.5 -133t114.5 -37q95 0 148 60.5t77 224.5q8 57 8 111zM1229 1536q-46 -70 -84 -116t-85.5 -85t-103 -57t-122.5 -18q-130 0 -201 68t-121 208l170 100q52 -100 87.5 -127.5t92.5 -27.5t100.5 27.5
t124.5 127.5z" />
    <glyph glyph-name="Ohungarumlaut" unicode="&#x150;" horiz-adv-x="1544" 
d="M1604 940q0 -70 -15 -184q-13 -91 -32.5 -171t-53 -161.5t-77.5 -147.5t-108 -125t-142 -98.5t-182 -62.5t-226 -23q-140 0 -247.5 30t-175.5 81.5t-111 126.5t-60.5 157t-17.5 181q0 98 16 213q109 753 817 753q141 0 249 -31t176.5 -82.5t112 -126t60.5 -154.5t17 -175
zM1159 922q0 129 -51.5 180t-169.5 51q-147 0 -218 -85t-104 -312q-16 -122 -16 -193q0 -136 52 -188.5t167 -52.5q98 0 158.5 36t102 131t65.5 267q14 88 14 166zM1632 1876l-424 -301q-15 -10 -22 -10t-15 8q-2 2 -16.5 18.5l-29 33t-30.5 35t-26 32t-10 16.5q0 9 14 23
l379 356zM1083 1876l-424 -301q-15 -10 -22 -10q-6 0 -14 8q-2 3 -16.5 19t-29.5 32.5t-31 35t-26 32t-10 16.5q0 9 14 23l379 356z" />
    <glyph glyph-name="ohungarumlaut" unicode="&#x151;" horiz-adv-x="1335" 
d="M1380 674q0 -66 -8 -123q-19 -130 -68 -233.5t-132.5 -183.5t-212.5 -123.5t-295 -43.5q-283 0 -416 122.5t-133 336.5q0 51 10 123q15 103 48.5 190t90.5 160.5t135.5 125t188 80t243.5 28.5q146 0 253 -33t171 -95t94.5 -144t30.5 -187zM940 662q0 98 -37.5 135
t-114.5 37q-95 0 -147 -60.5t-76 -224.5q-10 -72 -10 -113q0 -96 37.5 -133t114.5 -37q95 0 148 60.5t77 224.5q8 57 8 111zM1489 1509l-424 -301q-15 -10 -23 -10q-6 0 -14 8q-2 3 -16.5 19t-29.5 32.5t-31 35t-26 32t-10 16.5q0 8 15 23l379 356zM940 1509l-424 -301
q-15 -10 -22 -10t-15 8q-2 2 -16.5 18.5l-29 33t-30.5 35t-26 32t-10 16.5q0 9 14 23l379 356z" />
    <glyph glyph-name="OE" unicode="&#x152;" horiz-adv-x="2263" 
d="M2404 1477l-49 -347h-706l-29 -192h666l-166 -342h-557q5 -13 2 -37l-31 -213h707l-50 -346h-1147l13 86q-62 -57 -149 -88t-160 -31q-131 0 -233.5 30t-169 81.5t-110 126t-61.5 157.5t-18 181t16 213q17 117 50 220t94.5 203t145.5 171t210 115t280 44
q98 0 178.5 -36.5t114.5 -79.5l12 84h1147zM1165 920q0 129 -52.5 181t-170.5 52q-148 0 -218 -84.5t-103 -312.5q-17 -129 -17 -193q0 -135 51 -187t168 -52q133 0 214.5 105t113.5 327q14 110 14 164z" />
    <glyph glyph-name="oe" unicode="&#x153;" horiz-adv-x="2095" 
d="M2134 655q0 -45 -12 -151l-6 -53h-773q-4 -32 -4 -45q0 -150 179 -150q142 0 227 98l309 -100q-201 -287 -577 -287q-257 0 -387 154q-171 -154 -428 -154q-145 0 -251.5 33t-170.5 94.5t-94.5 143.5t-30.5 186q0 53 10 125q15 103 48 190t90.5 160.5t136 125t187.5 80
t242 28.5q256 0 385 -150q170 150 402 150q518 0 518 -478zM1743 684v8q0 78 -41.5 117t-108.5 39q-156 0 -213 -164h363zM938 662q0 98 -37.5 135t-114.5 37q-95 0 -147 -60.5t-76 -224.5q-10 -72 -10 -113q0 -96 37.5 -133t114.5 -37q95 0 148 60.5t77 224.5q8 57 8 111z
" />
    <glyph glyph-name="Racute" unicode="&#x154;" horiz-adv-x="1402" 
d="M1423 1090q0 -177 -83.5 -311t-245.5 -197l295 -582h-506l-226 446q-14 28 -14 78h-47l-76 -524h-438l213 1477h571q557 0 557 -387zM975 1030q0 119 -156 119h-133l-43 -301h133q199 0 199 182zM1243 1874l-426 -303q-24 -16 -35 0l-102 125q-13 16 4 33l379 356z" />
    <glyph glyph-name="racute" unicode="&#x155;" horiz-adv-x="931" 
d="M1049 1124l-50 -336q-63 13 -133 13q-142 0 -229 -41l-109 -760h-440l158 1100h366l25 -101q117 134 313 134q50 0 99 -9zM1024 1509l-426 -303q-24 -16 -35 0l-102 125q-13 16 4 33l379 356z" />
    <glyph glyph-name="Rcommaaccent" unicode="&#x156;" horiz-adv-x="1402" 
d="M1423 1090q0 -177 -83.5 -311t-245.5 -197l295 -582h-506l-226 446q-14 28 -14 78h-47l-76 -524h-438l213 1477h571q557 0 557 -387zM975 1030q0 119 -156 119h-133l-43 -301h133q199 0 199 182zM895 -225v-2q-25 -158 -117 -271h-260q34 38 58 92.5t30 102.5h-98
q-13 0 -17 5t-2 19l25 175q3 22 23 22h354q11 0 14 -0.5t6.5 -5.5t-0.5 -16z" />
    <glyph glyph-name="rcommaaccent" unicode="&#x157;" horiz-adv-x="931" 
d="M1049 1124l-50 -336q-63 13 -133 13q-142 0 -229 -41l-109 -760h-440l158 1100h366l25 -101q117 134 313 134q50 0 99 -9zM659 -225v-2q-25 -159 -116 -271h-260q34 38 58 92.5t30 102.5h-99q-13 0 -16.5 5t-1.5 19l25 175q3 22 22 22h354q11 0 14 -0.5t7 -5.5t0 -16z
" />
    <glyph glyph-name="Rcaron" unicode="&#x158;" horiz-adv-x="1402" 
d="M1423 1090q0 -177 -83.5 -311t-245.5 -197l295 -582h-506l-226 446q-14 28 -14 78h-47l-76 -524h-438l213 1477h571q557 0 557 -387zM975 1030q0 119 -156 119h-133l-43 -301h133q199 0 199 182zM1231 1929l-400 -354q-10 -10 -24 -10q-13 0 -21 10l-294 354l163 148
l201 -197l252 197z" />
    <glyph glyph-name="rcaron" unicode="&#x159;" horiz-adv-x="931" 
d="M1049 1124l-50 -336q-63 13 -133 13q-142 0 -229 -41l-109 -760h-440l158 1100h366l25 -101q117 134 313 134q50 0 99 -9zM1057 1563l-400 -355q-10 -10 -24 -10q-13 0 -21 10l-295 355l164 147l201 -197l252 197z" />
    <glyph glyph-name="Sacute" unicode="&#x15a;" horiz-adv-x="1363" 
d="M1470 1196l-360 -162q-36 73 -94.5 104t-161.5 31q-38 0 -65.5 -3t-60.5 -13.5t-51 -34.5t-18 -61q0 -58 62 -68q32 -5 90.5 -13t94 -13.5t90 -16t89.5 -20.5t80 -27.5t73.5 -37.5t59.5 -49.5t48 -64.5t28.5 -81.5t11.5 -100.5q0 -151 -56 -267.5t-154 -187t-223.5 -106
t-272.5 -35.5q-236 0 -385.5 96t-214.5 300l360 157q30 -76 63 -118.5t87.5 -64.5t138.5 -22q48 0 84 6.5t69.5 22.5t51.5 49t18 82q0 34 -20.5 53.5t-71.5 28.5l-305 51q-162 28 -247 121.5t-85 241.5q0 112 38.5 203t103.5 152t153 102.5t184.5 60t200.5 18.5
q212 0 351 -72t216 -241zM1284 1880l-426 -303q-24 -16 -35 0l-102 125q-13 16 4 33l379 356z" />
    <glyph glyph-name="sacute" unicode="&#x15b;" horiz-adv-x="1177" 
d="M1245 911l-301 -141q-34 42 -94.5 67t-132.5 25q-117 0 -117 -80q0 -40 43 -49l215 -39q169 -31 248.5 -91t79.5 -181q0 -97 -34 -175.5t-91 -129.5t-134 -85.5t-160 -49.5t-173 -15q-120 0 -213 24.5t-151.5 67.5t-93 91.5t-52.5 107.5l313 94q50 -114 236 -114
q55 0 95 21t40 71q0 48 -66 59l-249 43q-117 20 -185.5 97.5t-68.5 179.5q0 35 6 75q17 118 94.5 198t192.5 115.5t264 35.5q169 0 296 -60.5t193 -161.5zM1149 1509l-426 -303q-24 -16 -35 0l-102 125q-13 16 4 33l379 356z" />
    <glyph glyph-name="Scircumflex" unicode="&#x15c;" horiz-adv-x="1363" 
d="M1470 1196l-360 -162q-36 73 -94.5 104t-161.5 31q-38 0 -65.5 -3t-60.5 -13.5t-51 -34.5t-18 -61q0 -58 62 -68q32 -5 90.5 -13t94 -13.5t90 -16t89.5 -20.5t80 -27.5t73.5 -37.5t59.5 -49.5t48 -64.5t28.5 -81.5t11.5 -100.5q0 -151 -56 -267.5t-154 -187t-223.5 -106
t-272.5 -35.5q-236 0 -385.5 96t-214.5 300l360 157q30 -76 63 -118.5t87.5 -64.5t138.5 -22q48 0 84 6.5t69.5 22.5t51.5 49t18 82q0 34 -20.5 53.5t-71.5 28.5l-305 51q-162 28 -247 121.5t-85 241.5q0 112 38.5 203t103.5 152t153 102.5t184.5 60t200.5 18.5
q212 0 351 -72t216 -241zM1274 1710l-166 -147l-201 196l-252 -196l-120 147l397 354q11 11 24 11t21 -11z" />
    <glyph glyph-name="scircumflex" unicode="&#x15d;" horiz-adv-x="1177" 
d="M1245 911l-301 -141q-34 42 -94.5 67t-132.5 25q-117 0 -117 -80q0 -40 43 -49l215 -39q169 -31 248.5 -91t79.5 -181q0 -97 -34 -175.5t-91 -129.5t-134 -85.5t-160 -49.5t-173 -15q-120 0 -213 24.5t-151.5 67.5t-93 91.5t-52.5 107.5l313 94q50 -114 236 -114
q55 0 95 21t40 71q0 48 -66 59l-249 43q-117 20 -185.5 97.5t-68.5 179.5q0 35 6 75q17 118 94.5 198t192.5 115.5t264 35.5q169 0 296 -60.5t193 -161.5zM1137 1346l-166 -148l-201 197l-252 -197l-121 148l398 354q10 10 24 10q13 0 21 -10z" />
    <glyph glyph-name="uni015E" unicode="&#x15e;" horiz-adv-x="1363" 
d="M1470 1196l-360 -162q-36 73 -94.5 104t-161.5 31q-38 0 -65.5 -3t-60.5 -13.5t-51 -34.5t-18 -61q0 -58 62 -68q32 -5 90.5 -13t94 -13.5t90 -16t89.5 -20.5t80 -27.5t73.5 -37.5t59.5 -49.5t48 -64.5t28.5 -81.5t11.5 -100.5q0 -147 -52.5 -261t-146 -185
t-212.5 -108.5t-260 -41.5l-45 -47h39q163 0 233 -36.5t70 -121.5q0 -24 -2 -38q-8 -57 -41 -98.5t-83.5 -64t-107.5 -32.5t-123 -10q-86 0 -169.5 15t-135.5 38l58 121q127 -29 194 -29q117 0 127 68q2 8 2 22q0 27 -19 39t-65 12h-135l-43 101l76 69q-358 48 -465 388
l360 157q30 -76 63 -118.5t87.5 -64.5t138.5 -22q48 0 84 6.5t69.5 22.5t51.5 49t18 82q0 34 -20.5 53.5t-71.5 28.5l-305 51q-162 28 -247 121.5t-85 241.5q0 112 38.5 203t103.5 152t153 102.5t184.5 60t200.5 18.5q212 0 351 -72t216 -241z" />
    <glyph glyph-name="uni015F" unicode="&#x15f;" horiz-adv-x="1177" 
d="M1245 911l-301 -141q-34 42 -94.5 67t-132.5 25q-117 0 -117 -80q0 -40 43 -49l215 -39q169 -31 248.5 -91t79.5 -181q0 -94 -32 -170.5t-85.5 -127.5t-127.5 -86.5t-153.5 -52t-166.5 -18.5l-43 -45h38q163 0 233.5 -36.5t70.5 -121.5q0 -24 -2 -38q-8 -57 -41 -98.5
t-83.5 -64t-107.5 -32.5t-123 -10q-86 0 -169.5 15t-135.5 38l57 121q127 -29 195 -29q117 0 127 68q2 8 2 22q0 27 -19 39t-65 12h-135l-43 101l76 69q-160 24 -249 100.5t-120 180.5l313 94q50 -114 236 -114q55 0 95 21t40 71q0 48 -66 59l-249 43q-117 20 -185.5 97.5
t-68.5 179.5q0 35 6 75q17 118 94.5 198t192.5 115.5t264 35.5q169 0 296 -60.5t193 -161.5z" />
    <glyph glyph-name="Scaron" unicode="&#x160;" horiz-adv-x="1363" 
d="M1470 1196l-360 -162q-36 73 -94.5 104t-161.5 31q-38 0 -65.5 -3t-60.5 -13.5t-51 -34.5t-18 -61q0 -58 62 -68q32 -5 90.5 -13t94 -13.5t90 -16t89.5 -20.5t80 -27.5t73.5 -37.5t59.5 -49.5t48 -64.5t28.5 -81.5t11.5 -100.5q0 -151 -56 -267.5t-154 -187t-223.5 -106
t-272.5 -35.5q-236 0 -385.5 96t-214.5 300l360 157q30 -76 63 -118.5t87.5 -64.5t138.5 -22q48 0 84 6.5t69.5 22.5t51.5 49t18 82q0 34 -20.5 53.5t-71.5 28.5l-305 51q-162 28 -247 121.5t-85 241.5q0 112 38.5 203t103.5 152t153 102.5t184.5 60t200.5 18.5
q212 0 351 -72t216 -241zM1311 1929l-400 -354q-10 -10 -24 -10t-21 10l-295 354l164 148l201 -197l252 197z" />
    <glyph glyph-name="scaron" unicode="&#x161;" horiz-adv-x="1177" 
d="M1245 911l-301 -141q-34 42 -94.5 67t-132.5 25q-117 0 -117 -80q0 -40 43 -49l215 -39q169 -31 248.5 -91t79.5 -181q0 -97 -34 -175.5t-91 -129.5t-134 -85.5t-160 -49.5t-173 -15q-120 0 -213 24.5t-151.5 67.5t-93 91.5t-52.5 107.5l313 94q50 -114 236 -114
q55 0 95 21t40 71q0 48 -66 59l-249 43q-117 20 -185.5 97.5t-68.5 179.5q0 35 6 75q17 118 94.5 198t192.5 115.5t264 35.5q169 0 296 -60.5t193 -161.5zM1161 1563l-399 -355q-10 -10 -25 -10q-13 0 -20 10l-295 355l164 147l200 -197l252 197z" />
    <glyph glyph-name="Tcommaaccent" unicode="&#x162;" horiz-adv-x="1382" 
d="M1544 1477l-51 -353h-420l-162 -1124h-438l162 1124h-422l51 353h1280zM860 -225v-2q-25 -158 -117 -271h-260q34 38 58 92.5t30 102.5h-98q-13 0 -16.5 5t-1.5 19l24 175q3 22 23 22h354q11 0 14 -0.5t7 -5.5t0 -16z" />
    <glyph glyph-name="tcommaaccent" unicode="&#x163;" horiz-adv-x="1071" 
d="M1204 1100l-145 -303h-305l-66 -453v-12q0 -47 55 -47q33 0 74 15t66 36l202 -223q-89 -69 -207.5 -107.5t-236.5 -38.5q-82 0 -149.5 15t-124 48.5t-88 94.5t-31.5 145q0 34 6 74l55 383q6 36 45 70h-204l43 303h169l52 344l450 119l-67 -463h407zM729 -225v-2
q-25 -158 -117 -271h-260q34 38 58 92.5t30 102.5h-98q-13 0 -16.5 5t-1.5 19l24 175q3 22 23 22h354q11 0 14 -0.5t6.5 -5.5t-0.5 -16z" />
    <glyph glyph-name="Tcaron" unicode="&#x164;" horiz-adv-x="1382" 
d="M1544 1477l-51 -353h-420l-162 -1124h-438l162 1124h-422l51 353h1280zM1323 1925l-399 -354q-10 -10 -25 -10q-13 0 -20 10l-295 354l164 148l200 -197l252 197z" />
    <glyph glyph-name="tcaron" unicode="&#x165;" horiz-adv-x="1232" 
d="M1204 1100l-145 -303h-305l-66 -453v-12q0 -47 55 -47q33 0 74 15t66 36l202 -223q-89 -69 -207.5 -107.5t-236.5 -38.5q-82 0 -149.5 15t-124 48.5t-88 94.5t-31.5 145q0 34 6 74l55 383q6 36 45 70h-204l43 303h169l52 344l450 119l-67 -463h407zM1724 1595l-223 -479
q-9 -19 -15.5 -24t-21.5 -5h-209q-27 0 -20 29l147 479h342z" />
    <glyph glyph-name="Tbar" unicode="&#x166;" horiz-adv-x="1382" 
d="M1407 537h-420l-76 -537h-438l76 537h-422l51 348h422l35 243h-422l49 349h1280l-49 -349h-420l-35 -243h420z" />
    <glyph glyph-name="tbar" unicode="&#x167;" horiz-adv-x="1069" 
d="M1006 428h-306l-8 -59q-4 -29 -4 -37q0 -47 55 -47q33 0 73 15t65 36l202 -223q-89 -69 -207.5 -107.5t-236.5 -38.5q-82 0 -149 15t-123.5 48.5t-87.5 93.5t-31 144q0 36 6 76l12 84h-170l41 283h170l4 37q6 35 45 69h-204l43 303h170l47 324l450 119l-63 -443h407
l-145 -303h-305l-15 -106h408z" />
    <glyph glyph-name="Utilde" unicode="&#x168;" horiz-adv-x="1542" 
d="M1673 1477l-123 -850q-24 -167 -94.5 -295t-175.5 -207t-235 -118.5t-281 -39.5q-278 0 -440 131.5t-162 393.5q0 57 10 135l123 850h438l-123 -850q-8 -49 -8 -99q0 -113 53.5 -159.5t159.5 -46.5q126 0 197 67.5t96 237.5l123 850h442zM1489 1864l-215 -242
q-43 -49 -103 -49q-49 0 -77 22l-146 117q-10 10 -22 10q-11 0 -19 -8l-149 -153l-150 112l236 256q43 49 100 49q50 0 80 -24l141 -107q6 -6 21 -6q14 0 26 12l127 129z" />
    <glyph glyph-name="utilde" unicode="&#x169;" horiz-adv-x="1296" 
d="M1368 1100l-158 -1100h-364l-25 98q-140 -131 -291 -131q-204 0 -301.5 94t-97.5 263q0 30 8 100l97 676h436l-97 -676q-6 -41 -6 -68q0 -52 19.5 -74t62.5 -22q69 0 168 62l111 778h438zM1317 1524l-215 -242q-43 -49 -103 -49q-49 0 -77 22l-146 117q-10 10 -22 10
q-11 0 -19 -8l-149 -153l-150 112l236 256q43 49 100 49q50 0 80 -24l141 -107q6 -6 21 -6q14 0 26 12l127 129z" />
    <glyph glyph-name="Umacron" unicode="&#x16a;" horiz-adv-x="1542" 
d="M1673 1477l-123 -850q-24 -167 -94.5 -295t-175.5 -207t-235 -118.5t-281 -39.5q-278 0 -440 131.5t-162 393.5q0 57 10 135l123 850h438l-123 -850q-8 -49 -8 -99q0 -113 53.5 -159.5t159.5 -46.5q126 0 197 67.5t96 237.5l123 850h442zM1374 1894l-43 -307h-663l43 307
h663z" />
    <glyph glyph-name="umacron" unicode="&#x16b;" horiz-adv-x="1296" 
d="M1368 1100l-158 -1100h-364l-25 98q-140 -131 -291 -131q-204 0 -301.5 94t-97.5 263q0 30 8 100l97 676h436l-97 -676q-6 -41 -6 -68q0 -52 19.5 -74t62.5 -22q69 0 168 62l111 778h438zM1186 1567l-43 -307h-664l43 307h664z" />
    <glyph glyph-name="Ubreve" unicode="&#x16c;" horiz-adv-x="1542" 
d="M1673 1477l-123 -850q-24 -167 -94.5 -295t-175.5 -207t-235 -118.5t-281 -39.5q-278 0 -440 131.5t-162 393.5q0 57 10 135l123 850h438l-123 -850q-8 -49 -8 -99q0 -113 53.5 -159.5t159.5 -46.5q126 0 197 67.5t96 237.5l123 850h442zM1391 1839q-45 -70 -83.5 -116
t-86 -84.5t-103.5 -57t-123 -18.5q-129 0 -200 68t-121 208l170 100q52 -100 87.5 -127.5t92.5 -27.5t100.5 27.5t124.5 127.5z" />
    <glyph glyph-name="ubreve" unicode="&#x16d;" horiz-adv-x="1296" 
d="M1368 1100l-158 -1100h-364l-25 98q-140 -131 -291 -131q-204 0 -301.5 94t-97.5 263q0 30 8 100l97 676h436l-97 -676q-6 -41 -6 -68q0 -52 19.5 -74t62.5 -22q69 0 168 62l111 778h438zM1227 1536q-45 -70 -83.5 -116t-86 -84.5t-103.5 -57t-123 -18.5q-129 0 -200 68
t-121 208l170 100q52 -100 87.5 -127.5t92.5 -27.5t100.5 27.5t124.5 127.5z" />
    <glyph glyph-name="Uring" unicode="&#x16e;" horiz-adv-x="1542" 
d="M1673 1477l-123 -850q-24 -167 -94.5 -295t-175.5 -207t-235 -118.5t-281 -39.5q-278 0 -440 131.5t-162 393.5q0 57 10 135l123 850h438l-123 -850q-8 -49 -8 -99q0 -113 53.5 -159.5t159.5 -46.5q126 0 197 67.5t96 237.5l123 850h442zM1266 1753q0 -107 -76.5 -182.5
t-183.5 -75.5t-181.5 75.5t-74.5 182.5t74.5 182.5t181.5 75.5t183.5 -75.5t76.5 -182.5zM1106 1751q0 41 -29.5 70.5t-70.5 29.5t-70 -29.5t-29 -70.5t29 -69.5t70 -28.5t70.5 28.5t29.5 69.5z" />
    <glyph glyph-name="uring" unicode="&#x16f;" horiz-adv-x="1296" 
d="M1368 1100l-158 -1100h-364l-25 98q-140 -131 -291 -131q-204 0 -301.5 94t-97.5 263q0 30 8 100l97 676h436l-97 -676q-6 -41 -6 -68q0 -52 19.5 -74t62.5 -22q69 0 168 62l111 778h438zM1102 1456q0 -107 -76.5 -182.5t-183.5 -75.5t-181.5 75.5t-74.5 182.5
t74.5 182.5t181.5 75.5t183.5 -75.5t76.5 -182.5zM942 1454q0 41 -29.5 70.5t-70.5 29.5t-70 -29.5t-29 -70.5t29 -69.5t70 -28.5t70.5 28.5t29.5 69.5z" />
    <glyph glyph-name="Uhungarumlaut" unicode="&#x170;" horiz-adv-x="1542" 
d="M1673 1477l-123 -850q-24 -167 -94.5 -295t-175.5 -207t-235 -118.5t-281 -39.5q-278 0 -440 131.5t-162 393.5q0 57 10 135l123 850h438l-123 -850q-8 -49 -8 -99q0 -113 53.5 -159.5t159.5 -46.5q126 0 197 67.5t96 237.5l123 850h442zM1651 1876l-424 -301
q-15 -10 -23 -10q-6 0 -14 8q-2 3 -16.5 19t-29.5 32.5t-31 35t-26 32t-10 16.5q0 8 15 23l378 356zM1102 1876l-424 -301q-15 -10 -23 -10q-6 0 -14 8q-2 3 -16.5 19t-29.5 32.5t-31 35t-26 32t-10 16.5q0 8 15 23l379 356z" />
    <glyph glyph-name="uhungarumlaut" unicode="&#x171;" horiz-adv-x="1296" 
d="M1368 1100l-158 -1100h-364l-25 98q-140 -131 -291 -131q-204 0 -301.5 94t-97.5 263q0 30 8 100l97 676h436l-97 -676q-6 -41 -6 -68q0 -52 19.5 -74t62.5 -22q69 0 168 62l111 778h438zM1481 1509l-424 -301q-15 -10 -23 -10q-6 0 -14 8q-2 3 -16.5 19t-29.5 32.5
t-31 35t-26 32t-10 16.5q0 8 15 23l378 356zM932 1509l-424 -301q-15 -10 -23 -10q-6 0 -14 8q-2 3 -16.5 19t-29.5 32.5t-31 35t-26 32t-10 16.5q0 8 15 23l379 356z" />
    <glyph glyph-name="Uogonek" unicode="&#x172;" horiz-adv-x="1542" 
d="M1673 1477l-123 -850q-53 -369 -321 -537q-78 -57 -125.5 -94.5t-96.5 -83t-71.5 -83t-22.5 -71.5q0 -20 14 -34.5t46 -14.5q27 0 56.5 4t69 12t56.5 11l-4 -158q-140 -37 -246 -37q-235 0 -235 166q0 155 161 262q-11 0 -33 -1t-34 -1q-278 0 -440 131.5t-162 393.5
q0 57 10 135l123 850h438l-123 -850q-8 -49 -8 -99q0 -113 53.5 -159.5t159.5 -46.5q126 0 197 67.5t96 237.5l123 850h442z" />
    <glyph glyph-name="uogonek" unicode="&#x173;" horiz-adv-x="1296" 
d="M1368 1100l-158 -1100q-145 -74 -207.5 -124.5t-62.5 -117.5q0 -49 59 -49q27 0 56.5 4t69.5 12t57 11l-4 -158q-140 -37 -234 -37q-117 0 -182.5 44.5t-65.5 158.5q0 138 148 260l-23 94q-140 -131 -291 -131q-204 0 -301.5 94t-97.5 263q0 30 8 100l97 676h436
l-97 -676q-6 -41 -6 -68q0 -52 19.5 -74t62.5 -22q69 0 168 62l111 778h438z" />
    <glyph glyph-name="Wcircumflex" unicode="&#x174;" horiz-adv-x="1925" 
d="M2128 1477l-586 -1477h-401l-64 588q-8 78 -8 131v22q-9 -33 -53 -153l-232 -588h-401l-160 1477h439l40 -637q0 -4 1.5 -18.5t1.5 -24.5q0 -42 -7 -131q16 78 50 174l233 592h377l61 -592q4 -40 4 -78q0 -22 -4 -96q19 95 45 174l226 637h438zM1575 1710l-166 -147
l-201 196l-252 -196l-120 147l397 354q11 11 24 11t21 -11z" />
    <glyph glyph-name="wcircumflex" unicode="&#x175;" horiz-adv-x="1794" 
d="M1935 1100l-505 -1100h-373l-53 438q-11 91 -11 178v70q-53 -183 -80 -248l-180 -438h-373l-190 1100h428l29 -455q6 -75 6 -119q0 -57 -2 -92q25 75 74 211l178 455h340l47 -455q12 -99 16 -211q8 38 18 74.5t17 57.5t16 46.5t11 32.5l159 455h428zM1452 1346l-166 -148
l-201 197l-251 -197l-121 148l397 354q10 10 25 10q13 0 20 -10z" />
    <glyph glyph-name="Ycircumflex" unicode="&#x176;" horiz-adv-x="1540" 
d="M1743 1477l-668 -889l-84 -588h-440l84 588l-412 889h504l160 -449q12 -32 12 -88v-33q12 75 41 121l301 449h502zM1393 1712l-166 -147l-201 196l-252 -196l-121 147l398 354q11 11 24 11t21 -11z" />
    <glyph glyph-name="ycircumflex" unicode="&#x177;" horiz-adv-x="1345" 
d="M1489 1100l-729 -1331q-77 -143 -199 -204t-338 -61h-200l45 314h200q42 0 65.5 19t51.5 69l76 137l-289 1057h451l98 -606q10 -63 10 -74q0 -19 -2 -29q9 40 35 103l266 606h459zM1231 1346l-166 -148l-201 197l-252 -197l-120 148l397 354q10 10 24 10q13 0 21 -10z
" />
    <glyph glyph-name="Ydieresis" unicode="&#x178;" horiz-adv-x="1540" 
d="M1743 1477l-668 -889l-84 -588h-440l84 588l-412 889h504l160 -449q12 -32 12 -88v-33q12 75 41 121l301 449h502zM1501 1933l-47 -323q-2 -19 -18 -19h-301q-12 0 -14.5 3.5t-0.5 15.5l47 323q3 23 17 23h305q15 0 12 -23zM952 1933l-47 -323q-2 -19 -18 -19h-301
q-12 0 -14.5 3.5t-0.5 15.5l47 323q3 23 17 23h305q15 0 12 -23z" />
    <glyph glyph-name="Zacute" unicode="&#x179;" horiz-adv-x="1308" 
d="M1470 1477l-43 -301l-667 -770q-13 -15 -38.5 -33t-49.5 -25h618l-49 -348h-1157l43 299l676 774q27 30 76 55h-560l-61 349h1212zM1311 1882l-426 -303q-24 -16 -35 0l-102 125q-13 16 4 33l378 356z" />
    <glyph glyph-name="zacute" unicode="&#x17a;" horiz-adv-x="1138" 
d="M1237 1100l-41 -287l-455 -428q-47 -44 -108 -57h497l-47 -328h-1011l41 285l456 432q33 33 105 53h-420l-51 330h1034zM1147 1509l-426 -303q-24 -16 -35 0l-102 125q-13 16 4 33l379 356z" />
    <glyph glyph-name="Zdotaccent" unicode="&#x17b;" horiz-adv-x="1308" 
d="M1470 1477l-43 -301l-667 -770q-13 -15 -38.5 -33t-49.5 -25h618l-49 -348h-1157l43 299l676 774q27 30 76 55h-560l-61 349h1212zM1159 1964l-51 -354q-2 -19 -18 -19h-383q-12 0 -14.5 3.5t-0.5 15.5l51 354q3 23 17 23h387q15 0 12 -23z" />
    <glyph glyph-name="zdotaccent" unicode="&#x17c;" horiz-adv-x="1138" 
d="M1237 1100l-41 -287l-455 -428q-47 -44 -108 -57h497l-47 -328h-1011l41 285l456 432q33 33 105 53h-420l-51 330h1034zM989 1622l-51 -354q-2 -19 -18 -19h-383q-12 0 -14.5 3.5t-0.5 15.5l51 354q3 23 17 23h387q15 0 12 -23z" />
    <glyph glyph-name="Zcaron" unicode="&#x17d;" horiz-adv-x="1308" 
d="M1470 1477l-43 -301l-667 -770q-13 -15 -38.5 -33t-49.5 -25h618l-49 -348h-1157l43 299l676 774q27 30 76 55h-560l-61 349h1212zM1311 1933l-400 -354q-10 -10 -24 -10t-21 10l-295 354l164 148l201 -197l252 197z" />
    <glyph glyph-name="zcaron" unicode="&#x17e;" horiz-adv-x="1138" 
d="M1237 1100l-41 -287l-455 -428q-47 -44 -108 -57h497l-47 -328h-1011l41 285l456 432q33 33 105 53h-420l-51 330h1034zM1174 1563l-400 -355q-10 -10 -24 -10t-21 10l-295 355l164 147l201 -197l252 197z" />
    <glyph glyph-name="florin" unicode="&#x192;" 
d="M1528 1421l-131 -266q-125 33 -197 33q-130 0 -151 -123l-9 -47h314l-131 -285h-238l-108 -547q-81 -419 -510 -419q-159 0 -363 63l131 268q133 -35 191 -35q60 0 96 27.5t49 95.5l92 476q6 38 47 71h-254l62 285h217l8 47q16 94 52 167t84 120t111 77.5t128.5 43
t140.5 12.5q162 0 369 -64z" />
    <glyph glyph-name="AEacute" unicode="&#x1fc;" horiz-adv-x="2082" 
d="M2224 1477l-51 -349h-707l-26 -190h665l-166 -342h-567q14 -21 10 -51l-28 -197h706l-49 -348h-1147l37 256h-332l-141 -256h-426l811 1477h1411zM1030 1133q-33 -96 -41 -111l-225 -414h188zM1911 1880l-426 -303q-24 -16 -35 0l-102 125q-13 16 4 33l379 356z" />
    <glyph glyph-name="aeacute" unicode="&#x1fd;" horiz-adv-x="1978" 
d="M2017 657q0 -49 -18 -206h-772q-4 -32 -4 -45q0 -150 176 -150q142 0 227 98l311 -100q-201 -287 -579 -287q-320 0 -457 158q-92 -73 -196.5 -115.5t-194.5 -42.5q-206 0 -312 79t-106 233q0 111 39 193t109 129.5t157.5 70t194.5 22.5q106 0 229 -20l13 86q0 3 1 8.5
t1 7.5q0 36 -29.5 53t-95.5 17q-135 0 -205 -68l-242 152q97 105 223.5 154t303.5 49q115 0 195.5 -22.5t156.5 -82.5q153 105 356 105q518 0 518 -476zM1626 684q3 75 -36 119.5t-113 44.5q-156 0 -213 -164h362zM793 475q-47 6 -97 6q-166 0 -166 -135q0 -94 107 -94
q46 0 129 31zM1655 1509l-426 -303q-24 -16 -35 0l-102 125q-13 16 4 33l379 356z" />
    <glyph glyph-name="Oslashacute" unicode="&#x1fe;" horiz-adv-x="1544" 
d="M1739 1528l-221 -242q86 -131 86 -342q0 -70 -15 -188q-13 -92 -32.5 -172t-53 -161.5t-77.5 -147t-107.5 -124t-142 -98t-182.5 -62t-226 -22.5q-231 0 -375 80l-90 -100h-278l217 239q-86 131 -86 353q0 97 16 215q109 753 817 753q229 0 377 -82l94 101h279z
M1092 1124q-52 37 -152 37q-151 0 -223 -87.5t-105 -317.5q-14 -98 -14 -178zM1163 897l-493 -545q52 -37 147 -37q101 0 163 37.5t103.5 133.5t65.5 270q11 70 14 141zM1395 1878l-426 -303q-24 -16 -35 0l-103 125q-13 15 5 33l378 356z" />
    <glyph glyph-name="oslashacute" unicode="&#x1ff;" horiz-adv-x="1335" 
d="M1401 1133l-133 -142q112 -118 112 -321q0 -64 -8 -119q-19 -130 -68 -233.5t-132.5 -183.5t-212.5 -123.5t-295 -43.5q-189 0 -308 51l-49 -51h-203l125 135q-114 117 -114 322q0 53 10 125q15 103 48.5 190t90.5 160.5t135.5 125t188 80t243.5 28.5q182 0 314 -58
l53 58h203zM891 807q-42 27 -103 27q-95 0 -148 -60.5t-77 -224.5q-5 -41 -8 -100zM940 643l-332 -354q40 -23 99 -23q95 0 148 60.5t77 224.5q5 36 8 92zM1221 1509l-426 -303q-24 -16 -35 0l-103 125q-13 15 5 33l378 356z" />
    <glyph glyph-name="uni0218" unicode="&#x218;" horiz-adv-x="1363" 
d="M1470 1196l-360 -162q-36 73 -94.5 104t-161.5 31q-38 0 -65.5 -3t-60.5 -13.5t-51 -34.5t-18 -61q0 -58 62 -68q32 -5 90.5 -13t94 -13.5t90 -16t89.5 -20.5t80 -27.5t73.5 -37.5t59.5 -49.5t48 -64.5t28.5 -81.5t11.5 -100.5q0 -151 -56 -267.5t-154 -187t-223.5 -106
t-272.5 -35.5q-236 0 -385.5 96t-214.5 300l360 157q30 -76 63 -118.5t87.5 -64.5t138.5 -22q48 0 84 6.5t69.5 22.5t51.5 49t18 82q0 34 -20.5 53.5t-71.5 28.5l-305 51q-162 28 -247 121.5t-85 241.5q0 112 38.5 203t103.5 152t153 102.5t184.5 60t200.5 18.5
q212 0 351 -72t216 -241zM874 -225v-2q-25 -159 -116 -271h-260q34 38 58 92.5t30 102.5h-99q-13 0 -16.5 5t-1.5 19l25 175q3 22 22 22h354q11 0 14 -0.5t7 -5.5t0 -16z" />
    <glyph glyph-name="uni0219" unicode="&#x219;" horiz-adv-x="1177" 
d="M1245 911l-301 -141q-34 42 -94.5 67t-132.5 25q-117 0 -117 -80q0 -40 43 -49l215 -39q169 -31 248.5 -91t79.5 -181q0 -97 -34 -175.5t-91 -129.5t-134 -85.5t-160 -49.5t-173 -15q-120 0 -213 24.5t-151.5 67.5t-93 91.5t-52.5 107.5l313 94q50 -114 236 -114
q55 0 95 21t40 71q0 48 -66 59l-249 43q-117 20 -185.5 97.5t-68.5 179.5q0 35 6 75q17 118 94.5 198t192.5 115.5t264 35.5q169 0 296 -60.5t193 -161.5zM782 -225v-2q-25 -159 -116 -271h-260q34 38 58 92.5t30 102.5h-99q-13 0 -16.5 5t-1.5 19l24 175q3 22 23 22h354
q11 0 14 -0.5t7 -5.5t0 -16z" />
    <glyph glyph-name="circumflex" unicode="&#x2c6;" horiz-adv-x="917" 
d="M989 1346l-166 -148l-200 197l-252 -197l-121 148l397 354q10 10 25 10q12 0 20 -10z" />
    <glyph glyph-name="caron" unicode="&#x2c7;" horiz-adv-x="917" 
d="M1059 1563l-400 -355q-10 -10 -24 -10q-13 0 -21 10l-295 355l164 147l201 -197l252 197z" />
    <glyph glyph-name="uni02C9" unicode="&#x2c9;" horiz-adv-x="917" 
d="M1024 1567l-43 -307h-664l43 307h664z" />
    <glyph glyph-name="breve" unicode="&#x2d8;" horiz-adv-x="917" 
d="M1040 1536q-46 -70 -84 -116t-85.5 -85t-103 -57t-122.5 -18q-129 0 -200 68t-121 208l170 100q52 -100 87.5 -127.5t92.5 -27.5t100.5 27.5t124.5 127.5z" />
    <glyph glyph-name="dotaccent" unicode="&#x2d9;" horiz-adv-x="917" 
d="M901 1622l-51 -354q-2 -19 -19 -19h-382q-12 0 -14.5 3.5t-0.5 15.5l51 354q3 23 17 23h387q15 0 12 -23z" />
    <glyph glyph-name="ring" unicode="&#x2da;" horiz-adv-x="917" 
d="M719 1456q0 -107 -76.5 -182.5t-183.5 -75.5t-181.5 75.5t-74.5 182.5t74.5 182.5t181.5 75.5t183.5 -75.5t76.5 -182.5zM559 1454q0 41 -29.5 70.5t-70.5 29.5t-70 -29.5t-29 -70.5t29 -69.5t70 -28.5t70.5 28.5t29.5 69.5z" />
    <glyph glyph-name="ogonek" unicode="&#x2db;" horiz-adv-x="917" 
d="M653 45q-150 -103 -208.5 -159t-67.5 -117q0 -1 -1 -5t-1 -6q0 -49 59 -49q27 0 56.5 4t69 12t56.5 11l-4 -158q-140 -37 -245 -37q-236 0 -236 166q0 25 2 37q12 89 96.5 166.5t202.5 134.5h221z" />
    <glyph glyph-name="tilde" unicode="&#x2dc;" horiz-adv-x="917" 
d="M1108 1524l-215 -242q-43 -49 -102 -49q-51 0 -78 22l-146 117q-10 10 -22 10q-11 0 -19 -8l-149 -153l-150 112l236 256q43 49 100 49q50 0 80 -24l141 -107q6 -6 21 -6q14 0 26 12l127 129z" />
    <glyph glyph-name="hungarumlaut" unicode="&#x2dd;" horiz-adv-x="1167" 
d="M1366 1509l-424 -301q-15 -10 -22 -10t-15 8q-2 2 -16.5 18.5l-29 33t-30.5 35t-26 32t-10 16.5q0 9 14 23l379 356zM817 1509l-424 -301q-15 -10 -22 -10t-15 8q-2 2 -16.5 18.5l-29 33t-30.5 35t-26 32t-10 16.5q0 9 14 23l379 356z" />
    <glyph glyph-name="uni03A9" unicode="&#x3a9;" horiz-adv-x="1474" 
d="M1575 897q-31 -206 -137.5 -338.5t-317.5 -189.5l-10 -72h332l-41 -297h-561l75 528q49 17 78.5 35t56.5 53t43.5 90t28.5 140q23 159 -32.5 233t-186.5 74t-208.5 -74t-100.5 -233q-10 -68 -10.5 -117t6.5 -82t25 -55.5t39.5 -36.5t56.5 -27l-76 -528h-561l41 297h331
l11 72q-132 39 -207 115t-92.5 179t0.5 234q18 123 73 230t149.5 194t242 137.5t331.5 50.5q107 0 197.5 -17.5t156.5 -48.5t118.5 -75t83.5 -97t51 -114t21 -126.5t-7 -133.5z" />
    <glyph glyph-name="uni03BC" unicode="&#x3bc;" horiz-adv-x="1296" 
d="M1368 1100l-158 -1100h-364l-25 98q-140 -131 -291 -131h-22l-68 -463h-434l230 1596h436l-97 -676q-6 -41 -6 -68q0 -52 19.5 -74t62.5 -22q69 0 168 62l111 778h438z" />
    <glyph glyph-name="pi" unicode="&#x3c0;" horiz-adv-x="1474" 
d="M1427 -18h-229q-335 0 -283 364l66 453h-260l-115 -799h-438l115 797h-131l51 364h1399l-52 -364h-133l-65 -451q-5 -31 3 -43t34 -12h84z" />
    <glyph glyph-name="Wgrave" unicode="&#x1e80;" horiz-adv-x="1925" 
d="M2128 1477l-586 -1477h-401l-64 588q-8 78 -8 131v22q-9 -33 -53 -153l-232 -588h-401l-160 1477h439l40 -637q0 -4 1.5 -18.5t1.5 -24.5q0 -42 -7 -131q16 78 50 174l233 592h377l61 -592q4 -40 4 -78q0 -22 -4 -96q19 95 45 174l226 637h438zM1413 1692l-137 -115
q-18 -17 -37 2l-338 301l236 203l276 -357q17 -20 0 -34z" />
    <glyph glyph-name="wgrave" unicode="&#x1e81;" horiz-adv-x="1794" 
d="M1935 1100l-505 -1100h-373l-53 438q-11 91 -11 178v70q-53 -183 -80 -248l-180 -438h-373l-190 1100h428l29 -455q6 -75 6 -119q0 -57 -2 -92q25 75 74 211l178 455h340l47 -455q12 -99 16 -211q8 38 18 74.5t17 57.5t16 46.5t11 32.5l159 455h428zM1286 1321l-137 -115
q-17 -18 -37 2l-338 301l236 203l276 -356q18 -20 0 -35z" />
    <glyph glyph-name="Wacute" unicode="&#x1e82;" horiz-adv-x="1925" 
d="M2128 1477l-586 -1477h-401l-64 588q-8 78 -8 131v22q-9 -33 -53 -153l-232 -588h-401l-160 1477h439l40 -637q0 -4 1.5 -18.5t1.5 -24.5q0 -42 -7 -131q16 78 50 174l233 592h377l61 -592q4 -40 4 -78q0 -22 -4 -96q19 95 45 174l226 637h438zM1579 1884l-426 -303
q-24 -16 -35 0l-102 125q-13 16 4 33l379 356z" />
    <glyph glyph-name="wacute" unicode="&#x1e83;" horiz-adv-x="1794" 
d="M1935 1100l-505 -1100h-373l-53 438q-11 91 -11 178v70q-53 -183 -80 -248l-180 -438h-373l-190 1100h428l29 -455q6 -75 6 -119q0 -57 -2 -92q25 75 74 211l178 455h340l47 -455q12 -99 16 -211q8 38 18 74.5t17 57.5t16 46.5t11 32.5l159 455h428zM1440 1509l-426 -303
q-24 -16 -35 0l-102 125q-13 16 4 33l379 356z" />
    <glyph glyph-name="Wdieresis" unicode="&#x1e84;" horiz-adv-x="1925" 
d="M2128 1477l-586 -1477h-401l-64 588q-8 78 -8 131v22q-9 -33 -53 -153l-232 -588h-401l-160 1477h439l40 -637q0 -4 1.5 -18.5t1.5 -24.5q0 -42 -7 -131q16 78 50 174l233 592h377l61 -592q4 -40 4 -78q0 -22 -4 -96q19 95 45 174l226 637h438zM1686 1933l-48 -323
q-2 -19 -18 -19h-301q-12 0 -14 3t0 16l47 323q3 23 16 23h305q16 0 13 -23zM1137 1933l-47 -323q-2 -19 -19 -19h-301q-12 0 -14 3t0 16l47 323q3 23 16 23h305q16 0 13 -23z" />
    <glyph glyph-name="wdieresis" unicode="&#x1e85;" horiz-adv-x="1794" 
d="M1935 1100l-505 -1100h-373l-53 438q-11 91 -11 178v70q-53 -183 -80 -248l-180 -438h-373l-190 1100h428l29 -455q6 -75 6 -119q0 -57 -2 -92q25 75 74 211l178 455h340l47 -455q12 -99 16 -211q8 38 18 74.5t17 57.5t16 46.5t11 32.5l159 455h428zM1571 1606l-47 -324
q-2 -18 -19 -18h-301q-12 0 -14 3t0 15l47 324q3 22 16 22h306q15 0 12 -22zM1022 1606l-47 -324q-2 -18 -19 -18h-301q-12 0 -14 3t0 15l47 324q3 22 17 22h305q15 0 12 -22z" />
    <glyph glyph-name="Ygrave" unicode="&#x1ef2;" horiz-adv-x="1540" 
d="M1743 1477l-668 -889l-84 -588h-440l84 588l-412 889h504l160 -449q12 -32 12 -88v-33q12 75 41 121l301 449h502zM1198 1692l-137 -115q-17 -17 -37 2l-338 301l236 203l276 -357q17 -20 0 -34z" />
    <glyph glyph-name="ygrave" unicode="&#x1ef3;" horiz-adv-x="1345" 
d="M1489 1100l-729 -1331q-77 -143 -199 -204t-338 -61h-200l45 314h200q42 0 65.5 19t51.5 69l76 137l-289 1057h451l98 -606q10 -63 10 -74q0 -19 -2 -29q9 40 35 103l266 606h459zM1065 1321l-137 -115q-18 -18 -37 2l-338 301l235 203l277 -356q17 -20 0 -35z" />
    <glyph glyph-name="endash" unicode="&#x2013;" horiz-adv-x="931" 
d="M979 827l-49 -340h-789l49 340h789z" />
    <glyph glyph-name="emdash" unicode="&#x2014;" horiz-adv-x="1810" 
d="M1860 827l-50 -340h-1669l49 340h1670z" />
    <glyph glyph-name="quoteleft" unicode="&#x2018;" horiz-adv-x="544" 
d="M709 1524q-86 -48 -124 -100t-48 -119h100q11 0 15 -3.5t3 -13.5l-49 -332q-2 -13 -5 -16.5t-15 -3.5h-350q-16 0 -13 20l45 310q18 118 120.5 223.5t240.5 161.5z" />
    <glyph glyph-name="quoteright" unicode="&#x2019;" horiz-adv-x="544" 
d="M676 1456l-45 -309q-18 -118 -120.5 -223.5t-240.5 -161.5l-80 127q86 48 124 100t48 119h-100q-11 0 -15 3t-3 13l49 332q2 14 5 17.5t15 3.5h351q16 0 12 -21z" />
    <glyph glyph-name="quotesinglbase" unicode="&#x201a;" horiz-adv-x="544" 
d="M535 377l-50 -334q-20 -128 -130.5 -244t-260.5 -176l-88 139q93 53 134.5 108.5t52.5 129.5h-109q-12 0 -16 3.5t-2 14.5l53 359q1 11 2 15t5 5.5t13 1.5h381q11 0 14 -5t1 -17z" />
    <glyph glyph-name="quotedblleft" unicode="&#x201c;" horiz-adv-x="1005" 
d="M1202 1524q-86 -48 -124 -100t-48 -119h100q11 0 15.5 -3.5t3.5 -13.5l-49 -332q-1 -13 -5 -16.5t-16 -3.5h-350q-15 0 -12 20l45 310q18 118 120 223.5t240 161.5zM668 1524q-86 -48 -124 -100t-48 -119h100q11 0 15 -3.5t3 -13.5l-49 -332q-1 -13 -4.5 -16.5
t-15.5 -3.5h-350q-16 0 -13 20l45 310q18 118 120.5 223.5t240.5 161.5z" />
    <glyph glyph-name="quotedblright" unicode="&#x201d;" horiz-adv-x="1005" 
d="M1180 1456l-45 -309q-18 -118 -120.5 -223.5t-240.5 -161.5l-80 127q86 48 124 100t48 119h-100q-11 0 -15 3t-3 13l49 332q2 14 5 17.5t15 3.5h350q17 0 13 -21zM645 1456l-45 -309q-18 -118 -120 -223.5t-240 -161.5l-80 127q86 48 124 100t48 119h-101q-11 0 -15 3
t-3 13l49 332q2 14 5.5 17.5t15.5 3.5h350q15 0 12 -21z" />
    <glyph glyph-name="quotedblbase" unicode="&#x201e;" horiz-adv-x="1005" 
d="M1071 377l-49 -334q-20 -128 -130.5 -244t-260.5 -176l-88 139q93 53 134 108.5t52 129.5h-108q-12 0 -16 4t-3 14l53 359q2 15 5 18.5t16 3.5h381q11 0 13.5 -5t0.5 -17zM477 377l-49 -334q-20 -128 -130.5 -244t-260.5 -176l-88 139q93 53 134 108.5t52 129.5h-108
q-12 0 -16 4t-3 14l53 359q2 15 5 18.5t16 3.5h381q11 0 13.5 -5t0.5 -17z" />
    <glyph glyph-name="dagger" unicode="&#x2020;" horiz-adv-x="1171" 
d="M1284 1155l-51 -373h-291l-70 21l9 -76l-105 -727h-373l103 727l35 76l-78 -21h-297l53 373h297l72 -20l-10 82l55 378h373l-56 -378l-30 -82l75 20h289z" />
    <glyph glyph-name="daggerdbl" unicode="&#x2021;" horiz-adv-x="1171" 
d="M1300 1255l-51 -348h-288l-72 21l8 -76l-10 -86l-31 -82l76 18h289l-52 -348h-288l-72 21l10 -76l-43 -299h-373l41 299l33 76l-78 -21h-295l52 348h295l73 -18l-10 82l10 86l33 76l-78 -21h-295l49 348h297l74 -18l-12 82l41 276h373l-39 -276l-31 -82l76 18h288z" />
    <glyph glyph-name="bullet" unicode="&#x2022;" horiz-adv-x="976" 
d="M983 635q0 -170 -121 -291t-291 -121t-290.5 121t-120.5 291t120.5 291t290.5 121t291 -121t121 -291z" />
    <glyph glyph-name="ellipsis" unicode="&#x2026;" horiz-adv-x="1959" 
d="M1896 373l-51 -355q-1 -11 -5.5 -14.5t-12.5 -3.5h-383q-12 0 -14 3t0 15l51 355q3 22 16 22h387q15 0 12 -22zM1241 373l-51 -355q-2 -18 -19 -18h-383q-12 0 -14 3t0 15l51 355q3 22 17 22h387q15 0 12 -22zM586 373l-51 -355q-2 -18 -19 -18h-383q-12 0 -14 3t0 15
l51 355q3 22 16 22h387q16 0 13 -22z" />
    <glyph glyph-name="perthousand" unicode="&#x2030;" horiz-adv-x="2787" 
d="M1841 1509l-1169 -1540h-312l1172 1540h309zM901 1063q-7 -50 -14.5 -90t-22.5 -89t-34.5 -86.5t-50 -75t-69 -62t-93 -39.5t-119.5 -15q-69 0 -121.5 17t-84 44.5t-51.5 68.5t-27 83t-7 94t12 150q10 69 24.5 124.5t45 116.5t72.5 102t109 68t153 27q84 0 142.5 -23.5
t89 -67.5t43.5 -94.5t13 -115.5q0 -62 -10 -137zM633 1063q14 92 14 147q0 50 -12.5 68t-40.5 18q-41 0 -63.5 -46t-43.5 -187q-14 -98 -14 -158q0 -53 12.5 -73.5t38.5 -20.5q27 0 45 19t34 74.5t30 158.5zM1993 426q-7 -50 -15 -90t-23.5 -89t-35 -86.5t-50.5 -75
t-69.5 -62t-93 -39.5t-119.5 -15q-85 0 -144 24.5t-89.5 69t-43 95t-12.5 114.5q0 48 13 154q10 69 24 124.5t44 116.5t71.5 102t108.5 68t153 27q291 0 291 -305q0 -61 -10 -133zM1724 426q13 107 13 147q0 50 -11.5 68t-39.5 18q-27 0 -44.5 -16.5t-33.5 -68t-29 -148.5
q-16 -115 -16 -162q0 -51 12.5 -70.5t38.5 -19.5q40 0 64 50.5t46 201.5zM2775 426q-7 -50 -15 -89.5t-23.5 -89t-34.5 -87t-50 -75t-69.5 -62t-93 -39.5t-119.5 -15q-85 0 -144 24.5t-89.5 69t-43 95t-12.5 114.5q0 56 12 154q10 69 24 124.5t44 116.5t71.5 102t108.5 68
t153 27q291 0 291 -305q0 -61 -10 -133zM2507 426q12 99 12 147q0 50 -11.5 68t-39.5 18q-27 0 -44.5 -16.5t-33.5 -68t-29 -148.5q-16 -115 -16 -162q0 -51 12.5 -70.5t38.5 -19.5q27 0 45 19t34.5 74.5t31.5 158.5z" />
    <glyph glyph-name="guilsinglleft" unicode="&#x2039;" horiz-adv-x="686" 
d="M756 874l-291 -301l203 -301l-209 -163l-342 464l475 465z" />
    <glyph glyph-name="guilsinglright" unicode="&#x203a;" horiz-adv-x="686" 
d="M733 573l-473 -464l-164 163l287 301l-199 301l209 164z" />
    <glyph glyph-name="fraction" unicode="&#x2044;" horiz-adv-x="811" 
d="M1348 1509l-1174 -1540h-311l1175 1540h310z" />
    <glyph glyph-name="n.superior" unicode="&#x207f;" horiz-adv-x="800" 
d="M834 625h-263l60 405q7 54 -3.5 76t-43.5 22q-43 0 -101 -36l-67 -467h-262l96 659h219l14 -59q87 80 174 80q140 0 198 -73.5t38 -201.5z" />
    <glyph glyph-name="Euro" unicode="&#x20ac;" 
d="M1491 1049q0 -45 -2 -68h-346q0 118 -43 157.5t-160 39.5q-105 0 -160 -51t-88 -158h363l-86 -172h-314q-2 -15 -6 -42.5t-7 -50t-5 -42.5h285l-91 -173h-202q8 -97 49 -143.5t135 -46.5q60 0 109 17.5t87.5 53t67 74t60.5 95.5l262 -181q-199 -389 -633 -389
q-254 0 -400 134.5t-155 385.5h-127l82 173h53q7 84 17 135h-107l80 172h67q77 258 260.5 399t450.5 141q239 0 371.5 -113t132.5 -347z" />
    <glyph glyph-name="afii61289" unicode="&#x2113;" horiz-adv-x="1024" 
d="M737 -18h-229q-138 0 -213.5 74.5t-75.5 211.5q0 38 6 78l17 113q-79 -22 -125 -31l-4 160q79 18 153 39l82 579q13 90 46 166.5t89.5 142t147.5 103t207 37.5q75 0 132 -17t90.5 -44.5t54 -67t27.5 -78t7 -84.5q0 -236 -115.5 -423.5t-331.5 -301.5l-40 -293
q-3 -12 -3 -20q0 -19 8.5 -27t30.5 -8h84zM731 834q109 79 171.5 199t62.5 259q0 49 -15 68.5t-49 19.5q-41 0 -72.5 -42.5t-44.5 -131.5z" />
    <glyph glyph-name="trademark" unicode="&#x2122;" horiz-adv-x="1574" 
d="M1696 782h-207l-29 332l-104 -196h-160l-106 196l-27 -332h-207l64 695h188l166 -338l170 338h186zM834 1317h-203v-535h-225v535h-203v160h631v-160z" />
    <glyph glyph-name="Omega" unicode="&#x2126;" horiz-adv-x="1474" 
d="M1575 897q-31 -206 -137.5 -338.5t-317.5 -189.5l-10 -72h332l-41 -297h-561l75 528q49 17 78.5 35t56.5 53t43.5 90t28.5 140q23 159 -32.5 233t-186.5 74t-208.5 -74t-100.5 -233q-10 -68 -10.5 -117t6.5 -82t25 -55.5t39.5 -36.5t56.5 -27l-76 -528h-561l41 297h331
l11 72q-132 39 -207 115t-92.5 179t0.5 234q18 123 73 230t149.5 194t242 137.5t331.5 50.5q107 0 197.5 -17.5t156.5 -48.5t118.5 -75t83.5 -97t51 -114t21 -126.5t-7 -133.5z" />
    <glyph glyph-name="estimated" unicode="&#x212e;" horiz-adv-x="1241" 
d="M1182 578h-879v-396q135 -129 311 -129q67 0 124.5 14.5t99.5 36.5t81 58t66.5 70t58.5 81l64 -39q-43 -67 -87 -115.5t-103 -89.5t-135 -62t-169 -21q-163 0 -291 81.5t-196 216.5t-68 296q0 164 67 298t197 215t300 81q169 0 298 -82.5t195 -217t66 -296.5zM936 645
v334q-59 54 -143.5 90.5t-169.5 36.5q-196 0 -320 -127v-334h633z" />
    <glyph glyph-name="onethird" unicode="&#x2153;" horiz-adv-x="2035" 
d="M758 625h-615l31 211h174l58 391q0 12 8 24q-12 -2 -81.5 -14.5t-103.5 -17.5l31 204l451 84l-99 -671h176zM1831 1509l-1174 -1540h-311l1176 1540h309zM1540 535h148q40 0 57.5 19.5t17.5 70.5q0 49 -67 49q-100 0 -172 -92l-185 84q143 211 396 211q153 0 226 -57.5
t73 -153.5q0 -68 -31.5 -125.5t-87.5 -89.5q80 -41 80 -144q0 -77 -35 -140t-92 -102.5t-126.5 -61t-142.5 -21.5q-50 0 -96.5 11t-92.5 35t-83 68.5t-59 106.5l207 88q31 -60 65 -82.5t86 -22.5q94 0 105 101q0 30 -15 49.5t-45 19.5h-104z" />
    <glyph glyph-name="twothirds" unicode="&#x2154;" horiz-adv-x="2086" 
d="M1882 1509l-1173 -1540h-312l1176 1540h309zM1591 535h148q40 0 58 19.5t18 70.5q0 49 -68 49q-100 0 -172 -92l-184 84q143 211 395 211q153 0 226 -57.5t73 -153.5q0 -68 -31.5 -125.5t-87.5 -89.5q80 -41 80 -144q0 -77 -35 -140t-91.5 -102.5t-126 -61t-142.5 -21.5
q-50 0 -96.5 11t-92.5 35t-83.5 68.5t-59.5 106.5l207 88q31 -60 65 -82.5t86 -22.5q94 0 105 101q0 30 -15 49.5t-45 19.5h-104zM616 821l9 53h227l-37 -249h-672q12 81 39.5 149t58.5 114.5t79.5 91t86 70.5t93.5 60q91 57 113.5 80t27.5 61q0 47 -59 47q-46 0 -81 -31.5
t-46 -101.5h-224q23 159 126.5 247.5t263.5 88.5q140 0 215 -56.5t75 -154.5q0 -109 -54 -183.5t-198 -156.5q-125 -73 -188 -129h145z" />
    <glyph glyph-name="oneeighth" unicode="&#x215b;" horiz-adv-x="2060" 
d="M758 625h-615l31 211h174l58 391q0 12 8 24q-12 -2 -81.5 -14.5t-103.5 -17.5l31 204l451 84l-99 -671h176zM1831 1509l-1174 -1540h-311l1176 1540h309zM1626 -18q183 0 288 84.5t105 232.5q0 48 -23 89t-61 63q62 34 92.5 93t30.5 130q0 203 -303 203
q-170 0 -272.5 -71t-102.5 -214q0 -93 72 -141q-65 -30 -100 -95t-35 -141q0 -233 309 -233zM1655 365h53q28 0 39.5 -12.5t11.5 -39.5q0 -11 -4 -39q-7 -52 -28.5 -70t-69.5 -18q-40 0 -58 13t-18 47q0 18 2 28q7 48 21.5 69.5t50.5 21.5zM1733 535h-54q-24 0 -32.5 8
t-8.5 28q0 19 2 29q6 41 26 59.5t60 18.5q68 0 68 -55q0 -88 -61 -88z" />
    <glyph glyph-name="threeeighths" unicode="&#x215c;" horiz-adv-x="2115" 
d="M1886 1509l-1173 -1540h-312l1176 1540h309zM1681 -18q183 0 288.5 84.5t105.5 232.5q0 48 -23 89t-61 63q62 34 92.5 93t30.5 130q0 203 -304 203q-170 0 -272 -71t-102 -214q0 -93 71 -141q-65 -30 -100 -95t-35 -141q0 -233 309 -233zM1710 365h53q28 0 40 -12.5
t12 -39.5q0 -4 -5 -39q-7 -52 -28.5 -70t-69.5 -18q-40 0 -58 13t-18 47q0 18 2 28q7 48 21.5 69.5t50.5 21.5zM1788 535h-53q-24 0 -32.5 8t-8.5 28q0 19 2 29q6 41 26 59.5t60 18.5q67 0 67 -55q0 -88 -61 -88zM416 1159h147q40 0 58 19.5t18 70.5q0 49 -68 49
q-100 0 -172 -92l-184 84q143 211 395 211q153 0 226 -57.5t73 -153.5q0 -69 -31 -126t-87 -89q79 -40 79 -143q0 -101 -60 -177.5t-148 -112.5t-187 -36q-50 0 -96.5 11t-92.5 35t-83.5 68.5t-59.5 106.5l207 88q31 -60 65 -82t87 -22q47 0 72.5 23.5t31.5 76.5
q0 31 -14.5 50.5t-44.5 19.5h-105z" />
    <glyph glyph-name="fiveeighths" unicode="&#x215d;" horiz-adv-x="2119" 
d="M1890 1509l-1173 -1540h-311l1175 1540h309zM1686 -18q183 0 288 84.5t105 232.5q0 48 -23 89t-61 63q62 34 92.5 93t30.5 130q0 203 -303 203q-170 0 -272.5 -71t-102.5 -214q0 -93 71 -141q-65 -30 -100 -95t-35 -141q0 -233 310 -233zM1714 365h53q28 0 40 -12.5
t12 -39.5q0 -11 -4 -39q-7 -52 -29 -70t-70 -18q-40 0 -58 13t-18 47q0 18 2 28q7 48 21.5 69.5t50.5 21.5zM1792 535h-53q-24 0 -32.5 8t-8.5 28q0 19 2 29q6 41 26 59.5t60 18.5q67 0 67 -55q0 -88 -61 -88zM510 1270l-25 -88q58 12 119 12q123 0 199 -54.5t76 -166.5
q0 -160 -108 -263.5t-296 -103.5q-50 0 -96.5 11t-92.5 35t-83.5 68.5t-59.5 106.5l209 88q29 -59 62 -81.5t75 -22.5q59 0 84 29.5t33 89.5q0 88 -125 88q-74 0 -182 -33l-80 76l113 422h629l-89 -213h-362z" />
    <glyph glyph-name="seveneighths" unicode="&#x215e;" horiz-adv-x="1972" 
d="M1743 1509l-1174 -1540h-311l1176 1540h309zM1538 -18q183 0 288 84.5t105 232.5q0 48 -23 89t-61 63q62 34 92.5 93t30.5 130q0 203 -303 203q-170 0 -272.5 -71t-102.5 -214q0 -93 72 -141q-65 -30 -100 -95t-35 -141q0 -233 309 -233zM1567 365h53q28 0 39.5 -12.5
t11.5 -39.5q0 -11 -4 -39q-7 -52 -28.5 -70t-69.5 -18q-40 0 -58 13t-18 47q0 18 2 28q7 48 21.5 69.5t50.5 21.5zM1645 535h-54q-24 0 -32.5 8t-8.5 28q0 19 2 29q6 41 26 59.5t60 18.5q68 0 68 -55q0 -88 -61 -88zM926 1309l-482 -684h-301l449 628q3 6 20 23h-153
l-10 -76h-234l41 283h694z" />
    <glyph glyph-name="partialdiff" unicode="&#x2202;" horiz-adv-x="1474" 
d="M1389 909q0 -116 -21 -233q-65 -365 -243.5 -537t-506.5 -172q-277 0 -404.5 114t-127.5 318q0 59 14 148q22 129 73 235t128.5 184t185 121t236.5 43q106 0 205 -26q-5 141 -98 210.5t-304 69.5q-66 0 -143 -6v273q85 6 164 6q186 0 332.5 -40.5t240.5 -108.5
t156 -165.5t87.5 -203.5t25.5 -230zM918 672q0 89 -36.5 123t-111.5 34q-63 0 -104 -22.5t-73.5 -85.5t-53.5 -174q-15 -77 -15 -129q0 -86 36 -119t110 -33q95 0 150.5 60.5t84.5 222.5q13 80 13 123z" />
    <glyph glyph-name="Delta" unicode="&#x2206;" horiz-adv-x="1474" 
d="M1518 0h-1559l809 1477h365zM977 338l-117 592l-276 -592h393z" />
    <glyph glyph-name="product" unicode="&#x220f;" horiz-adv-x="1474" 
d="M1710 1112h-172l-160 -1112h-438l160 1114h-404l-159 -1114h-439l160 1112h-172l51 365h1624z" />
    <glyph glyph-name="summation" unicode="&#x2211;" horiz-adv-x="1474" 
d="M1305 0h-1135l49 352l406 393l-293 379l49 353h1135l-52 -363h-678l295 -369l-403 -383h678z" />
    <glyph glyph-name="minus" unicode="&#x2212;" 
d="M1280 569h-965v340h965v-340z" />
    <glyph glyph-name="uni2215" unicode="&#x2215;" horiz-adv-x="811" 
d="M1348 1509l-1174 -1540h-311l1175 1540h310z" />
    <glyph glyph-name="uni2219" unicode="&#x2219;" horiz-adv-x="649" 
d="M657 1049l-51 -355q-1 -11 -5.5 -14.5t-12.5 -3.5h-383q-12 0 -14.5 3t-0.5 15l52 355q3 22 16 22h387q15 0 12 -22z" />
    <glyph glyph-name="radical" unicode="&#x221a;" horiz-adv-x="1474" 
d="M1632 1116h-202l-572 -1116h-391l-162 664h-209l54 360h538l57 -440l396 893h542z" />
    <glyph glyph-name="infinity" unicode="&#x221e;" horiz-adv-x="1474" 
d="M1493 772q-11 -72 -26.5 -134t-40.5 -129t-62.5 -119t-87 -94.5t-119 -65.5t-153.5 -23q-75 0 -137 16t-119 62q-105 -82 -234 -82q-73 0 -129 18t-92 48t-59.5 75t-34 92t-12.5 107t2.5 113t13.5 116q13 88 32.5 161.5t57 151.5t88.5 131t130.5 87t178.5 34
q135 0 250 -80q108 82 244 82q74 0 130.5 -18t92.5 -47t59 -74.5t33 -91.5t11.5 -107t-3.5 -112.5t-14 -116.5zM1184 772q19 114 12 192t-55 78q-37 0 -66 -59.5t-78 -226.5q-58 -184 -67 -207q49 -47 117 -47q54 0 85.5 72t51.5 198zM760 997q-52 43 -111 43
q-98 0 -135 -272q-10 -61 -13.5 -104t-1.5 -83t16.5 -60.5t41.5 -20.5q34 0 65.5 66.5t75.5 226.5q46 160 62 204z" />
    <glyph glyph-name="integral" unicode="&#x222b;" horiz-adv-x="1474" 
d="M1628 1534l-125 -287q-144 41 -219 41q-68 0 -112.5 -30t-55.5 -107l-160 -1118q-13 -94 -40.5 -166.5t-68 -120.5t-86.5 -80t-107 -48.5t-118.5 -23t-129.5 -6.5q-118 0 -204 15t-190 47l125 287q3 -1 21 -6t22 -6t20.5 -5.5t22.5 -5.5t21 -4.5t22.5 -5t21 -3.5t23 -3
t22 -1.5t23.5 -0.5q68 0 112.5 30t55.5 107l160 1118q12 81 35 146t52.5 110.5t70.5 79.5t83.5 54.5t96 32.5t103.5 16.5t112 4.5q118 0 203 -14.5t188 -46.5z" />
    <glyph glyph-name="approxequal" unicode="&#x2248;" 
d="M1286 1126q-54 -74 -119 -107.5t-155 -33.5q-54 0 -105.5 18t-92 44t-79.5 52t-83 44t-87 18q-91 0 -156.5 -33t-119.5 -108v336q54 74 119 107.5t155 33.5q59 0 113 -18t94 -44t77 -52t79 -44t84 -18q91 0 156.5 33t119.5 108v-336zM1286 489q-54 -74 -119 -107.5
t-155 -33.5q-54 0 -105.5 18t-92 44t-79.5 52t-83 44t-87 18q-91 0 -156.5 -33t-119.5 -108v336q54 74 119 107.5t155 33.5q59 0 113 -18t94 -44t77 -52t79 -44t84 -18q91 0 156.5 33t119.5 108v-336z" />
    <glyph glyph-name="notequal" unicode="&#x2260;" 
d="M1253 1509l-135 -323h178v-320h-311l-104 -254h415v-319h-548l-134 -324h-288l133 324h-180v319h313l104 254h-417v320h550l136 323h288z" />
    <glyph glyph-name="lessequal" unicode="&#x2264;" 
d="M1229 348h-432l-451 574l451 573h432l-453 -573zM1337 0h-1097v254h1097v-254z" />
    <glyph glyph-name="greaterequal" unicode="&#x2265;" 
d="M1229 922l-451 -574h-432l453 574l-453 573h432zM1337 0h-1097v254h1097v-254z" />
    <glyph glyph-name="lozenge" unicode="&#x25ca;" horiz-adv-x="1433" 
d="M1442 711l-727 -723l-518 723l727 725zM1042 711l-186 262l-262 -262l186 -265z" />
    <glyph glyph-name="I.alt" unicode="&#xe000;" horiz-adv-x="835" 
d="M1006 1477l-35 -244h-156l-143 -989h155l-34 -244h-750l35 244h155l144 989h-156l35 244h750z" />
    <glyph glyph-name="IJ.alt" unicode="&#xe001;" horiz-adv-x="1912" 
d="M2005 1477l-145 -1014q-35 -243 -190.5 -369.5t-418.5 -126.5q-121 0 -209.5 23t-169.5 80l258 295q29 -19 76 -30t86 -11q61 0 89.5 32.5t39.5 106.5l88 614q3 20 27 51h-291l-49 349h809zM1006 1477l-35 -244h-156l-143 -989h155l-34 -244h-750l35 244h155l144 989
h-156l35 244h750z" />
    <glyph glyph-name="Iacute.alt" unicode="&#xe002;" horiz-adv-x="835" 
d="M1006 1876l-424 -301q-24 -17 -37 -2l-109 125q-10 13 10 33l379 356zM1006 1477l-35 -244h-156l-143 -989h155l-34 -244h-750l35 244h155l144 989h-156l35 244h750z" />
    <glyph glyph-name="Ibreve.alt" unicode="&#xe003;" horiz-adv-x="835" 
d="M1044 1810q-46 -70 -84 -116t-85.5 -85t-103 -57t-122.5 -18q-129 0 -200 68t-121 208l170 101q52 -100 87.5 -128t92.5 -28t100 28t125 128zM1006 1477l-35 -244h-156l-143 -989h155l-34 -244h-750l35 244h155l144 989h-156l35 244h750z" />
    <glyph glyph-name="Icircumflex.alt" unicode="&#xe004;" horiz-adv-x="835" 
d="M1036 1712l-166 -147l-200 196l-252 -196l-121 147l397 354q11 11 25 11q12 0 20 -11zM1006 1477l-35 -244h-156l-143 -989h155l-34 -244h-750l35 244h155l144 989h-156l35 244h750z" />
    <glyph glyph-name="Idieresis.alt" unicode="&#xe005;" horiz-adv-x="835" 
d="M1143 1929l-47 -323q-2 -19 -19 -19h-301q-12 0 -14 3t0 16l47 323q3 23 16 23h305q16 0 13 -23zM594 1929l-47 -323q-2 -19 -19 -19h-301q-12 0 -14 3t0 16l47 323q3 23 16 23h306q15 0 12 -23zM1006 1477l-35 -244h-156l-143 -989h155l-34 -244h-750l35 244h155
l144 989h-156l35 244h750z" />
    <glyph glyph-name="Idotaccent.alt" unicode="&#xe006;" horiz-adv-x="835" 
d="M918 1964l-52 -354q-2 -19 -18 -19h-383q-12 0 -14 3t0 16l51 354q3 23 16 23h387q16 0 13 -23zM1006 1477l-35 -244h-156l-143 -989h155l-34 -244h-750l35 244h155l144 989h-156l35 244h750z" />
    <glyph glyph-name="Igrave.alt" unicode="&#xe007;" horiz-adv-x="835" 
d="M946 1704q0 -7 -12 -16l-137 -115q-8 -8 -17 -8q-7 0 -20 10l-338 301l235 203l277 -357q12 -15 12 -18zM1006 1477l-35 -244h-156l-143 -989h155l-34 -244h-750l35 244h155l144 989h-156l35 244h750z" />
    <glyph glyph-name="Imacron.alt" unicode="&#xe008;" horiz-adv-x="835" 
d="M1018 1864l-43 -308h-664l43 308h664zM1006 1477l-35 -244h-156l-143 -989h155l-34 -244h-750l35 244h155l144 989h-156l35 244h750z" />
    <glyph glyph-name="Iogonek.alt" unicode="&#xe009;" horiz-adv-x="835" 
d="M1006 1477l-35 -244h-156l-143 -989h155l-34 -244h-261q-110 -77 -156.5 -126.5t-53.5 -104.5q0 -1 -1.5 -5t-1.5 -6q0 -20 14 -34.5t46 -14.5q27 0 56.5 4t69 12t56.5 11l-4 -158q-140 -37 -246 -37q-235 0 -235 166q0 25 2 37q10 72 69 138t146 118h-250l35 244h155
l144 989h-156l35 244h750z" />
    <glyph glyph-name="Itilde.alt" unicode="&#xe00a;" horiz-adv-x="835" 
d="M1120 1812l-215 -241q-43 -49 -102 -49q-51 0 -78 22l-145 117q-10 10 -23 10q-10 0 -18 -8l-150 -154l-149 113l235 256q43 49 100 49q50 0 80 -24l142 -107q6 -6 20 -6q15 0 27 12l127 129zM1006 1477l-35 -244h-156l-143 -989h155l-34 -244h-750l35 244h155l144 989
h-156l35 244h750z" />
    <glyph glyph-name="J.alt" unicode="&#xe00b;" horiz-adv-x="1064" 
d="M1157 1477l-145 -1014q-35 -243 -190.5 -369.5t-418.5 -126.5q-121 0 -209 23t-169 80l258 295q29 -19 75.5 -30t85.5 -11q61 0 89.5 32.5t39.5 106.5l89 614q4 21 26 51h-291l-49 349h809z" />
    <glyph glyph-name="Jcircumflex.alt" unicode="&#xe00c;" horiz-adv-x="1064" 
d="M1331 1673l-166 -147l-200 196l-252 -196l-121 147l397 355q10 10 25 10q12 0 20 -10zM1157 1477l-145 -1014q-35 -243 -190.5 -369.5t-418.5 -126.5q-121 0 -209 23t-169 80l258 295q29 -19 75.5 -30t85.5 -11q61 0 89.5 32.5t39.5 106.5l89 614q4 21 26 51h-291
l-49 349h809z" />
    <glyph glyph-name="a.alt" unicode="&#xe00d;" horiz-adv-x="1300" 
d="M1313 307l-45 -307h-224q-76 0 -118 23.5t-60 80.5q-87 -72 -172 -104.5t-182 -32.5q-206 0 -313 79.5t-107 232.5q0 89 25.5 160t70.5 118t109 78.5t137 45t158 13.5q108 0 231 -20l13 86q0 3 1 8.5t1 7.5q0 36 -29.5 53t-95.5 17q-135 0 -205 -68l-244 152
q97 105 223.5 154t305.5 49q485 0 485 -308q0 -31 -6 -65l-58 -410q0 -3 -1 -7.5t-1 -6.5q0 -17 8 -23t29 -6h64zM795 475q-46 6 -97 6q-168 0 -168 -135q0 -94 109 -94q46 0 129 31z" />
    <glyph glyph-name="aacute.alt" unicode="&#xe00e;" horiz-adv-x="1300" 
d="M1188 1509l-424 -301q-20 -10 -23 -10q-10 0 -14 8q-22 22 -67.5 74t-45.5 61q0 8 15 23l379 356zM1313 307l-45 -307h-224q-76 0 -118 23.5t-60 80.5q-87 -72 -172 -104.5t-182 -32.5q-206 0 -313 79.5t-107 232.5q0 89 25.5 160t70.5 118t109 78.5t137 45t158 13.5
q108 0 231 -20l13 86q0 3 1 8.5t1 7.5q0 36 -29.5 53t-95.5 17q-135 0 -205 -68l-244 152q97 105 223.5 154t305.5 49q485 0 485 -308q0 -31 -6 -65l-58 -410q0 -3 -1 -7.5t-1 -6.5q0 -17 8 -23t29 -6h64zM795 475q-46 6 -97 6q-168 0 -168 -135q0 -94 109 -94q46 0 129 31z
" />
    <glyph glyph-name="abreve.alt" unicode="&#xe00f;" horiz-adv-x="1300" 
d="M1305 1489q-45 -70 -83.5 -116t-86 -85t-103.5 -57.5t-123 -18.5q-129 0 -200 68.5t-121 208.5l170 100q52 -100 87.5 -127.5t92.5 -27.5t100.5 27.5t124.5 127.5zM1313 307l-45 -307h-224q-76 0 -118 23.5t-60 80.5q-87 -72 -172 -104.5t-182 -32.5q-206 0 -313 79.5
t-107 232.5q0 89 25.5 160t70.5 118t109 78.5t137 45t158 13.5q108 0 231 -20l13 86q0 3 1 8.5t1 7.5q0 36 -29.5 53t-95.5 17q-135 0 -205 -68l-244 152q97 105 223.5 154t305.5 49q485 0 485 -308q0 -31 -6 -65l-58 -410q0 -3 -1 -7.5t-1 -6.5q0 -17 8 -23t29 -6h64z
M795 475q-46 6 -97 6q-168 0 -168 -135q0 -94 109 -94q46 0 129 31z" />
    <glyph glyph-name="acircumflex.alt" unicode="&#xe010;" horiz-adv-x="1300" 
d="M1214 1346l-165 -148l-201 197l-252 -197l-121 148l397 354q10 10 25 10q11 0 21 -10zM1313 307l-45 -307h-224q-76 0 -118 23.5t-60 80.5q-87 -72 -172 -104.5t-182 -32.5q-206 0 -313 79.5t-107 232.5q0 89 25.5 160t70.5 118t109 78.5t137 45t158 13.5q108 0 231 -20
l13 86q0 3 1 8.5t1 7.5q0 36 -29.5 53t-95.5 17q-135 0 -205 -68l-244 152q97 105 223.5 154t305.5 49q485 0 485 -308q0 -31 -6 -65l-58 -410q0 -3 -1 -7.5t-1 -6.5q0 -17 8 -23t29 -6h64zM795 475q-46 6 -97 6q-168 0 -168 -135q0 -94 109 -94q46 0 129 31z" />
    <glyph glyph-name="adieresis.alt" unicode="&#xe011;" horiz-adv-x="1300" 
d="M1335 1604l-47 -324q-1 -11 -5.5 -14.5t-12.5 -3.5h-301q-12 0 -14.5 3t-0.5 15l47 324q3 22 17 22h305q15 0 12 -22zM786 1604l-47 -324q-1 -11 -5.5 -14.5t-12.5 -3.5h-301q-12 0 -14 3t0 15l47 324q3 22 16 22h305q15 0 12 -22zM1313 307l-45 -307h-224
q-76 0 -118 23.5t-60 80.5q-87 -72 -172 -104.5t-182 -32.5q-206 0 -313 79.5t-107 232.5q0 89 25.5 160t70.5 118t109 78.5t137 45t158 13.5q108 0 231 -20l13 86q0 3 1 8.5t1 7.5q0 36 -29.5 53t-95.5 17q-135 0 -205 -68l-244 152q97 105 223.5 154t305.5 49
q485 0 485 -308q0 -31 -6 -65l-58 -410q0 -3 -1 -7.5t-1 -6.5q0 -17 8 -23t29 -6h64zM795 475q-46 6 -97 6q-168 0 -168 -135q0 -94 109 -94q46 0 129 31z" />
    <glyph glyph-name="agrave.alt" unicode="&#xe012;" horiz-adv-x="1300" 
d="M1016 1337q0 -7 -12 -16l-138 -115q-8 -8 -16 -8t-21 10l-337 301l235 203l277 -356q12 -15 12 -19zM1313 307l-45 -307h-224q-76 0 -118 23.5t-60 80.5q-87 -72 -172 -104.5t-182 -32.5q-206 0 -313 79.5t-107 232.5q0 89 25.5 160t70.5 118t109 78.5t137 45t158 13.5
q108 0 231 -20l13 86q0 3 1 8.5t1 7.5q0 36 -29.5 53t-95.5 17q-135 0 -205 -68l-244 152q97 105 223.5 154t305.5 49q485 0 485 -308q0 -31 -6 -65l-58 -410q0 -3 -1 -7.5t-1 -6.5q0 -17 8 -23t29 -6h64zM795 475q-46 6 -97 6q-168 0 -168 -135q0 -94 109 -94q46 0 129 31z
" />
    <glyph glyph-name="amacron.alt" unicode="&#xe013;" horiz-adv-x="1300" 
d="M1313 307l-45 -307h-224q-76 0 -118 23.5t-60 80.5q-87 -72 -172 -104.5t-182 -32.5q-206 0 -313 79.5t-107 232.5q0 89 25.5 160t70.5 118t109 78.5t137 45t158 13.5q108 0 231 -20l13 86q0 3 1 8.5t1 7.5q0 36 -29.5 53t-95.5 17q-135 0 -205 -68l-244 152
q97 105 223.5 154t305.5 49q485 0 485 -308q0 -31 -6 -65l-58 -410q0 -3 -1 -7.5t-1 -6.5q0 -17 8 -23t29 -6h64zM795 475q-46 6 -97 6q-168 0 -168 -135q0 -94 109 -94q46 0 129 31zM1178 1567l-43 -307h-664l43 307h664z" />
    <glyph glyph-name="aogonek.alt" unicode="&#xe014;" horiz-adv-x="1300" 
d="M1313 307l-45 -307h-76q-110 -78 -157 -127t-54 -104q0 -1 -1 -5t-1 -6q0 -49 59 -49q27 0 56.5 4t69.5 12t57 11l-4 -158q-140 -37 -246 -37q-236 0 -236 166q0 25 2 37q19 142 228 264q-77 19 -99 96q-87 -72 -172 -104.5t-182 -32.5q-206 0 -313 79.5t-107 232.5
q0 89 25.5 160t70.5 118t109 78.5t137 45t158 13.5q108 0 231 -20l13 86q0 3 1 8.5t1 7.5q0 36 -29.5 53t-95.5 17q-135 0 -205 -68l-244 152q97 105 223.5 154t305.5 49q485 0 485 -308q0 -31 -6 -65l-58 -410q0 -3 -1 -7.5t-1 -6.5q0 -17 8 -23t29 -6h64zM795 475
q-46 6 -97 6q-168 0 -168 -135q0 -94 109 -94q46 0 129 31z" />
    <glyph glyph-name="apple" unicode="&#xe015;" horiz-adv-x="1617" 
d="M1389 756q0 -122 -11 -220.5t-36.5 -190t-69.5 -159t-107.5 -118t-153.5 -76t-204 -25.5q-137 0 -238.5 38.5t-166 104.5t-104 168t-54.5 216.5t-15 261.5q0 133 15 239.5t54 205t103 164.5t166 105t238 39t239 -39t168 -105t105 -164t56 -205.5t16 -239.5zM1233 514
q0 141 -72.5 238.5t-214.5 124.5l-213 41q-51 9 -65.5 26.5t-14.5 69.5q0 28 3.5 43.5t18 32t47 23.5t85.5 7q73 0 114.5 -24.5t71.5 -81.5l51 -17l136 74l20 55q-111 238 -391 238q-104 0 -182 -27t-123.5 -75.5t-67.5 -110t-22 -137.5q0 -284 254 -338l225 -47
q59 -12 79.5 -36t20.5 -79q0 -152 -188 -152q-79 0 -127 32t-84 116l-51 20l-135 -73l-21 -51q35 -101 100 -166t143 -92t173 -27q204 0 316 111t112 282h2zM1155 514q0 -135 -88 -223t-262 -88q-246 0 -334 198l70 37q43 -84 106 -120.5t156 -36.5q139 0 203.5 66.5
t64.5 166.5q0 85 -44.5 132.5t-117.5 62.5l-225 45q-192 36 -192 260q0 59 15 104.5t49 84t97.5 59t153.5 20.5q210 0 305 -158l-70 -37q-75 115 -233 115q-129 0 -181.5 -47.5t-52.5 -140.5q0 -82 32 -122.5t108 -55.5l215 -43q223 -44 223 -279h2z" />
    <glyph glyph-name="aring.alt" unicode="&#xe016;" horiz-adv-x="1300" 
d="M1139 1458q0 -107 -76.5 -182.5t-183.5 -75.5t-181.5 75.5t-74.5 182.5t74.5 182.5t181.5 75.5t183.5 -75.5t76.5 -182.5zM1313 307l-45 -307h-224q-76 0 -118 23.5t-60 80.5q-87 -72 -172 -104.5t-182 -32.5q-206 0 -313 79.5t-107 232.5q0 89 25.5 160t70.5 118
t109 78.5t137 45t158 13.5q108 0 231 -20l13 86q0 3 1 8.5t1 7.5q0 36 -29.5 53t-95.5 17q-135 0 -205 -68l-244 152q97 105 223.5 154t305.5 49q485 0 485 -308q0 -31 -6 -65l-58 -410q0 -3 -1 -7.5t-1 -6.5q0 -17 8 -23t29 -6h64zM979 1456q0 41 -29.5 70.5t-70.5 29.5
t-70 -29.5t-29 -70.5t29 -69.5t70 -28.5t70.5 28.5t29.5 69.5zM795 475q-46 6 -97 6q-168 0 -168 -135q0 -94 109 -94q46 0 129 31z" />
    <glyph glyph-name="arrow" unicode="&#xe017;" horiz-adv-x="1617" 
d="M1608 741q0 -142 -55 -271t-148.5 -222.5t-222.5 -149t-271 -55.5t-271 55.5t-222 149t-148 222.5t-55 271q0 189 93 350t253.5 255t349.5 94q142 0 271 -55.5t222.5 -149t148.5 -223t55 -271.5zM1462 741l-475 469l-170 -170l164 -168h-578v-264h578l-164 -166l170 -172
z" />
    <glyph glyph-name="atilde.alt" unicode="&#xe018;" horiz-adv-x="1300" 
d="M1294 1524l-215 -242q-43 -49 -102 -49q-51 0 -78 22l-145 117q-10 10 -23 10q-10 0 -18 -8l-150 -153l-149 112l235 256q46 49 101 49q49 0 79 -24l142 -107q8 -6 20 -6q15 0 27 12l127 129zM1313 307l-45 -307h-224q-76 0 -118 23.5t-60 80.5q-87 -72 -172 -104.5
t-182 -32.5q-206 0 -313 79.5t-107 232.5q0 89 25.5 160t70.5 118t109 78.5t137 45t158 13.5q108 0 231 -20l13 86q0 3 1 8.5t1 7.5q0 36 -29.5 53t-95.5 17q-135 0 -205 -68l-244 152q97 105 223.5 154t305.5 49q485 0 485 -308q0 -31 -6 -65l-58 -410q0 -3 -1 -7.5
t-1 -6.5q0 -17 8 -23t29 -6h64zM795 475q-46 6 -97 6q-168 0 -168 -135q0 -94 109 -94q46 0 129 31z" />
    <glyph glyph-name="caronalt" unicode="&#xe019;" horiz-adv-x="409" 
d="M766 1612l-223 -479q-9 -19 -15.5 -24t-21.5 -5h-209q-28 0 -21 29l148 479h342z" />
    <glyph glyph-name="commaaccentalt" unicode="&#xe01a;" horiz-adv-x="409" 
d="M686 1223q-6 -27 -27 -27h-348q-14 0 -19.5 6t-2.5 23l16 116q22 157 115 271h260q-33 -38 -56.5 -92t-31.5 -103h98q14 0 18 -5.5t1 -18.5z" />
    <glyph glyph-name="dotlessi.alt" unicode="&#xe01b;" horiz-adv-x="798" 
d="M807 291l-43 -309h-232q-138 0 -213 75.5t-75 212.5q0 51 4 78l55 381q4 34 45 68h-201l43 303h603l-109 -752q-2 -10 -2 -26q0 -18 8 -24.5t29 -6.5h88z" />
    <glyph glyph-name="f_i.alt" unicode="&#xe022;" horiz-adv-x="1705" 
d="M1769 1573l-45 -313q-1 -8 -1.5 -11t-2.5 -5.5t-5.5 -2.5h-10.5h-399q-18 0 -15 19l45 313q2 15 5 18.5t16 3.5h399q10 0 13 -4.5t1 -17.5zM1714 291l-43 -309h-231q-138 0 -213.5 75.5t-75.5 212.5q0 51 4 78l59 402q3 29 41 51h-528l-160 -1114h-432l150 1032
q7 51 43 82h-181l43 299h148l8 53q12 81 35.5 146t53 110.5t70 79.5t82.5 54.5t95.5 32.5t103 16.5t111.5 4.5q118 0 204 -15t189 -46l-125 -287q-3 1 -21 6t-22 6t-20.5 5.5t-22.5 5.5t-21 4.5t-22.5 5t-21 3.5t-23 3t-22 1.5t-23.5 0.5q-148 0 -168 -137l-8 -53h930
l-109 -752q-2 -10 -2 -26q0 -18 8 -24.5t29 -6.5h88z" />
    <glyph glyph-name="i.alt" unicode="&#xe025;" horiz-adv-x="798" 
d="M862 1573l-45 -313q-1 -8 -1.5 -11t-2.5 -5.5t-5.5 -2.5h-10.5h-400q-17 0 -14 19l45 313q2 15 5 18.5t16 3.5h399q10 0 13 -4.5t1 -17.5zM807 291l-43 -309h-232q-138 0 -213 75.5t-75 212.5q0 51 4 78l55 381q4 34 45 68h-201l43 303h603l-109 -752q-2 -10 -2 -26
q0 -18 8 -24.5t29 -6.5h88z" />
    <glyph glyph-name="iacute.alt" unicode="&#xe026;" horiz-adv-x="798" 
d="M940 1507l-424 -301q-24 -17 -37 -2l-108 125q-13 16 10 33l379 356zM807 291l-43 -309h-232q-138 0 -213 75.5t-75 212.5q0 51 4 78l55 381q4 34 45 68h-201l43 303h603l-109 -752q-2 -10 -2 -26q0 -18 8 -24.5t29 -6.5h88z" />
    <glyph glyph-name="ibreve.alt" unicode="&#xe027;" horiz-adv-x="604" 
d="M1010 1536q-45 -70 -83.5 -116t-86 -84.5t-103.5 -57t-123 -18.5q-129 0 -200 68t-121 208l170 100q52 -100 87.5 -127.5t92.5 -27.5t100.5 27.5t124.5 127.5zM807 291l-43 -309h-232q-138 0 -213 75.5t-75 212.5q0 51 4 78l55 381q4 34 45 68h-201l43 303h603l-109 -752
q-2 -10 -2 -26q0 -18 8 -24.5t29 -6.5h88z" />
    <glyph glyph-name="icircumflex.alt" unicode="&#xe028;" horiz-adv-x="798" 
d="M989 1346l-166 -148l-200 197l-252 -197l-121 148l397 354q10 10 25 10q12 0 20 -10zM807 291l-43 -309h-232q-138 0 -213 75.5t-75 212.5q0 51 4 78l55 381q4 34 45 68h-201l43 303h603l-109 -752q-2 -10 -2 -26q0 -18 8 -24.5t29 -6.5h88z" />
    <glyph glyph-name="idieresis.alt" unicode="&#xe029;" horiz-adv-x="798" 
d="M1083 1606l-47 -324q-1 -11 -5.5 -14.5t-12.5 -3.5h-301q-12 0 -14.5 3t-0.5 15l48 324q3 22 16 22h305q15 0 12 -22zM535 1606l-48 -324q-1 -11 -5.5 -14.5t-12.5 -3.5h-301q-12 0 -14 3t0 15l47 324q3 22 16 22h305q16 0 13 -22zM807 291l-43 -309h-232
q-138 0 -213 75.5t-75 212.5q0 51 4 78l55 381q4 34 45 68h-201l43 303h603l-109 -752q-2 -10 -2 -26q0 -18 8 -24.5t29 -6.5h88z" />
    <glyph glyph-name="igrave.alt" unicode="&#xe02a;" horiz-adv-x="798" 
d="M844 1337q0 -6 -13 -16l-137 -115q-8 -8 -16 -8t-21 10l-338 301l236 203l276 -356q13 -16 13 -19zM807 291l-43 -309h-232q-138 0 -213 75.5t-75 212.5q0 51 4 78l55 381q4 34 45 68h-201l43 303h603l-109 -752q-2 -10 -2 -26q0 -18 8 -24.5t29 -6.5h88z" />
    <glyph glyph-name="ij.alt" unicode="&#xe02b;" horiz-adv-x="1499" 
d="M862 1573l-45 -313q-1 -8 -1.5 -11t-2.5 -5.5t-5.5 -2.5h-10.5h-400q-17 0 -14 19l45 313q2 15 5 18.5t16 3.5h399q10 0 13 -4.5t1 -17.5zM807 291l-43 -309h-232q-138 0 -213 75.5t-75 212.5q0 51 4 78l55 381q4 34 45 68h-201l43 303h603l-109 -752q-2 -10 -2 -26
q0 -18 8 -24.5t29 -6.5h88zM1638 1573l-45 -313q-1 -8 -1.5 -11t-2.5 -5.5t-5.5 -2.5h-10.5h-399q-18 0 -15 19l45 313q2 15 5 18.5t16 3.5h399q10 0 13 -4.5t1 -17.5zM1569 1100l-178 -1235q-23 -161 -124.5 -259t-281.5 -98h-276l45 306h153q26 0 35 12t12 39l125 866
q4 32 45 66h-200l43 303h602z" />
    <glyph glyph-name="imacron.alt" unicode="&#xe02c;" horiz-adv-x="604" 
d="M985 1536l-43 -307h-663l43 307h663zM807 291l-43 -309h-232q-138 0 -213 75.5t-75 212.5q0 51 4 78l55 381q4 34 45 68h-201l43 303h603l-109 -752q-2 -10 -2 -26q0 -18 8 -24.5t29 -6.5h88z" />
    <glyph glyph-name="iogonek.alt" unicode="&#xe02d;" horiz-adv-x="798" 
d="M807 291l-43 -309h-115q-94 -67 -135.5 -113.5t-48.5 -99.5q0 -1 -1 -5t-1 -6q0 -49 59 -49q27 0 56.5 4t69.5 12t57 11l-5 -158q-140 -37 -245 -37q-236 0 -236 166q0 25 2 37q19 132 207 252q-89 25 -136.5 95t-47.5 179q0 51 4 78l55 381q4 34 45 68h-201l43 303h603
l-109 -752q-2 -10 -2 -26q0 -18 8 -24.5t29 -6.5h88zM862 1573l-45 -313q-1 -8 -1.5 -11t-2.5 -5.5t-5.5 -2.5h-10.5h-400q-17 0 -14 19l45 313q2 15 5 18.5t16 3.5h399q10 0 13 -4.5t1 -17.5z" />
    <glyph glyph-name="itilde.alt" unicode="&#xe02e;" horiz-adv-x="604" 
d="M1071 1495l-215 -242q-43 -49 -102 -49q-49 0 -78 23l-146 116q-11 11 -22 11t-19 -8l-149 -154l-150 113l236 256q43 49 100 49q49 0 80 -25l142 -106q6 -6 20 -6q15 0 27 12l127 129zM807 291l-43 -309h-232q-138 0 -213 75.5t-75 212.5q0 51 4 78l55 381q4 34 45 68
h-201l43 303h603l-109 -752q-2 -10 -2 -26q0 -18 8 -24.5t29 -6.5h88z" />
    <glyph glyph-name="j.alt" unicode="&#xe02f;" horiz-adv-x="722" 
d="M862 1573l-45 -313q-1 -8 -1.5 -11t-2.5 -5.5t-5.5 -2.5h-10.5h-400q-17 0 -14 19l45 313q2 15 5 18.5t16 3.5h399q10 0 13 -4.5t1 -17.5zM793 1100l-179 -1235q-23 -161 -124 -259t-281 -98h-277l45 306h154q26 0 35 12t12 39l125 866q4 32 45 66h-201l43 303h603z" />
    <glyph glyph-name="j.dotless" unicode="&#xe030;" horiz-adv-x="612" 
d="M504 -135q-23 -161 -124.5 -259t-281.5 -98h-274l43 306h151q26 0 36.5 12.5t13.5 38.5l178 1235h436z" />
    <glyph glyph-name="jcircumflex.alt" unicode="&#xe031;" horiz-adv-x="528" 
d="M793 1100l-179 -1235q-23 -161 -124 -259t-281 -98h-277l45 306h154q26 0 35 12t12 39l125 866q4 32 45 66h-201l43 303h603zM979 1346l-166 -148l-201 197l-252 -197l-120 148l397 354q10 10 25 10q12 0 20 -10z" />
    <glyph glyph-name="l.alt" unicode="&#xe032;" horiz-adv-x="765" 
d="M831 1595l-180 -1249q-2 -8 -2 -22q0 -19 8.5 -26t30.5 -7h84l-43 -309h-229q-138 0 -214.5 75t-76.5 211q0 38 6 78l137 944h-176l43 305h612z" />
    <glyph glyph-name="lacute.alt" unicode="&#xe033;" horiz-adv-x="765" 
d="M1024 1933l-426 -303q-24 -16 -35 0l-102 125q-13 16 4 33l379 356zM831 1595l-180 -1249q-2 -8 -2 -22q0 -19 8.5 -26t30.5 -7h84l-43 -309h-229q-138 0 -214.5 75t-76.5 211q0 38 6 78l137 944h-176l43 305h612z" />
    <glyph glyph-name="lcaron.alt" unicode="&#xe034;" horiz-adv-x="851" 
d="M1343 1595l-223 -479q-9 -19 -15.5 -24t-21.5 -5h-209q-27 0 -20 29l147 479h342zM831 1595l-180 -1249q-2 -8 -2 -22q0 -19 8.5 -26t30.5 -7h84l-43 -309h-229q-138 0 -214.5 75t-76.5 211q0 38 6 78l137 944h-176l43 305h612z" />
    <glyph glyph-name="lcommaaccent.alt" unicode="&#xe035;" horiz-adv-x="765" 
d="M831 1595l-180 -1249q-2 -8 -2 -22q0 -19 8.5 -26t30.5 -7h84l-43 -309h-229q-138 0 -214.5 75t-76.5 211q0 38 6 78l137 944h-176l43 305h612zM473 -225v-2q-25 -158 -117 -271h-260q34 38 58 92.5t30 102.5h-98q-13 0 -16.5 5t-1.5 19l24 175q3 22 23 22h354
q11 0 14 -0.5t6.5 -5.5t-0.5 -16z" />
    <glyph glyph-name="ldot.alt" unicode="&#xe036;" horiz-adv-x="1189" 
d="M1307 1061l-52 -354q-2 -19 -18 -19h-383q-12 0 -14 3t0 16l51 354q3 22 16 22h387q16 0 13 -22zM834 1595l-181 -1249q-2 -8 -2 -22q0 -19 8.5 -26t30.5 -7h84l-43 -309h-229q-138 0 -214.5 75t-76.5 211q0 38 6 78l137 944h-176l43 305h613z" />
    <glyph glyph-name="lslash.alt" unicode="&#xe037;" horiz-adv-x="765" 
d="M958 1243l-40 -289l-195 -114l-72 -500q0 -3 -1 -8.5t-1 -7.5q0 -35 37 -35h88l-43 -307h-231q-139 0 -215 73t-76 207q0 38 6 78l31 213l-193 -117l41 289l193 115l65 450h-176l43 305h612l-67 -469z" />
    <glyph glyph-name="uni2014.alt" unicode="&#xe038;" horiz-adv-x="1331" 
d="M1329 487h-1188l49 340h1188z" />
    <glyph glyph-name="h.superior" unicode="&#xf637;" horiz-adv-x="800" 
d="M834 625h-263l60 405q7 54 -3.5 76t-43.5 22q-43 0 -101 -36l-67 -467h-262l139 956h262l-49 -332q59 56 151 56q140 0 198 -73.5t38 -201.5z" />
    <glyph glyph-name="zero.fitted" unicode="&#xf639;" 
d="M1409 993q0 -81 -20 -237q-13 -86 -27 -154.5t-40.5 -153.5t-60 -149.5t-87 -129t-119 -106.5t-158 -68t-203.5 -26q-117 0 -205.5 28.5t-142.5 75.5t-88 116t-46.5 141t-12.5 159q0 109 22 267q12 82 27.5 151.5t42.5 149t62.5 142.5t88.5 122.5t118.5 99.5t155.5 64
t197 24q116 0 204 -28t142.5 -74.5t89 -114.5t47.5 -140t13 -159zM977 1012q0 100 -27 137t-82 37q-53 0 -88 -31.5t-66.5 -127.5t-56.5 -271q-24 -179 -24 -277q0 -107 25.5 -147.5t78.5 -40.5q51 0 87 35.5t68.5 139.5t59.5 290q25 173 25 256z" />
    <glyph glyph-name="two.fitted" unicode="&#xf63a;" 
d="M1419 1155q0 -42 -4 -65q-22 -156 -109.5 -263.5t-320.5 -257.5q-13 -9 -61.5 -39t-74.5 -47.5t-66 -45.5t-69 -55t-50 -54h272l16 112h367l-64 -440h-1146q14 97 42.5 184t62 154t83.5 130.5t93.5 108t107 93t109.5 79t114 72.5q122 74 172.5 112.5t65.5 63.5t22 72
q2 10 2 27q0 92 -104 92t-173.5 -55.5t-87.5 -178.5h-358q38 263 213.5 409t450.5 146q239 0 367 -94.5t128 -259.5z" />
    <glyph glyph-name="three.fitted" unicode="&#xf63b;" 
d="M1436 1151q0 -33 -6 -68q-14 -99 -67.5 -177.5t-131.5 -127.5q145 -91 145 -258q0 -8 -1 -18t-2.5 -22t-2.5 -19q-17 -119 -82 -215t-159.5 -155.5t-206 -90.5t-228.5 -31q-87 0 -167.5 17.5t-159.5 56t-142.5 111.5t-99.5 174l336 141q50 -101 112.5 -138.5t161.5 -37.5
q179 0 203 164q2 10 2 30q0 56 -32.5 90.5t-94.5 34.5h-162l-49 308h244q71 0 106.5 41.5t44.5 103.5q2 8 2 25q0 100 -137 100q-94 0 -168.5 -36t-136.5 -120l-297 135q225 340 666 340q134 0 234.5 -27.5t159.5 -77t87.5 -113t28.5 -140.5z" />
    <glyph glyph-name="four.fitted" unicode="&#xf63c;" 
d="M1427 651l-49 -332h-155l-45 -319h-430l45 319h-682l45 302l862 856h373l-119 -826h155zM901 934l-293 -283h234l26 189q5 37 33 94z" />
    <glyph glyph-name="five.fitted" unicode="&#xf63d;" 
d="M1505 1477l-141 -336h-606l-43 -156q98 10 135 10q245 0 383.5 -98.5t138.5 -298.5q0 -195 -91.5 -339.5t-246 -217t-350.5 -72.5q-411 0 -539 359l338 141q41 -100 94 -138t146 -38q103 0 154 67.5t51 171.5q0 69 -45.5 105.5t-153.5 36.5q-145 0 -303 -56l-150 140
l195 719h1034z" />
    <glyph glyph-name="six.fitted" unicode="&#xf63e;" 
d="M1456 1253l-268 -209q-64 81 -130 115.5t-167 34.5q-93 0 -157 -58.5t-89 -164.5q43 25 105.5 40t107.5 15q243 0 373.5 -105.5t130.5 -306.5q0 -304 -183 -474.5t-493 -170.5q-138 0 -239 32.5t-161 93.5t-88 139.5t-28 177.5q0 52 5.5 105t19 135.5t16.5 103.5
q9 62 18.5 112t26 114t37 114.5t51.5 107t69 99t91 83t115 66.5t143 41.5t174 15.5q358 0 520 -256zM926 578q0 143 -131 143q-57 0 -98.5 -25t-63.5 -68t-31.5 -90t-9.5 -100q0 -86 36.5 -117.5t102.5 -31.5q45 0 80 18t56 46.5t35 67.5t19 77t5 80z" />
    <glyph glyph-name="seven.fitted" unicode="&#xf63f;" horiz-adv-x="1329" 
d="M1466 1477l-41 -287l-831 -1190h-498l770 1083q27 37 80 66h-342l-20 -133h-371l68 461h1185z" />
    <glyph glyph-name="eight.fitted" unicode="&#xf640;" 
d="M1440 1151q0 -41 -6 -90q-12 -80 -62.5 -158t-118.5 -125q121 -109 121 -256q0 -17 -4 -57q-73 -496 -665 -496q-272 0 -402.5 103t-130.5 295q0 28 8 98q25 182 207 313q-46 40 -74 104t-28 134q0 17 4 45q34 238 196 343t441 105q250 0 382 -85t132 -273zM1016 1092
q0 104 -135 104q-152 0 -170 -135q-4 -28 -4 -41q0 -90 67 -90h133q41 0 69.5 32.5t37.5 98.5q2 10 2 31zM944 504q0 52 -22 84.5t-70 32.5h-109q-52 0 -89 -42.5t-48 -113.5q-6 -35 -6 -57q0 -68 35.5 -92.5t114.5 -24.5q93 0 135 36t57 138q2 12 2 39z" />
    <glyph glyph-name="nine.fitted" unicode="&#xf641;" 
d="M1427 1065q0 -64 -8 -119l-33 -223q-12 -82 -25 -145.5t-39 -145.5t-60 -143.5t-89.5 -124.5t-124.5 -103.5t-168 -66t-218 -25.5q-359 0 -521 256l269 209q63 -80 129 -114.5t168 -34.5q93 0 156.5 58.5t88.5 164.5q-43 -25 -105.5 -40t-107.5 -15q-243 0 -373 105
t-130 306q0 31 8 101q17 121 63.5 217t125 171t200 115.5t278.5 40.5q138 0 239 -33t161 -93.5t88 -139.5t28 -178zM1006 1040q0 86 -37 118t-103 32q-80 0 -124.5 -48t-63.5 -177q-6 -34 -6 -64q0 -143 131 -143q167 0 196 207q7 51 7 75z" />
    <glyph glyph-name="zero.taboldstyle" unicode="&#xf643;" 
d="M1409 823q0 -91 -12 -176q-13 -87 -29.5 -158.5t-44.5 -143.5t-64.5 -127t-90 -103.5t-120.5 -80t-156.5 -49.5t-197.5 -18q-121 0 -214 30t-150 78t-93 116.5t-49.5 138.5t-13.5 151q0 73 14 166q12 86 28.5 156.5t44.5 142.5t64.5 127.5t90.5 105t121 81.5t156.5 50.5
t197.5 18.5q518 0 518 -506zM973 815q0 110 -32.5 150.5t-96.5 40.5q-40 0 -70 -14.5t-59.5 -51.5t-51.5 -110t-38 -183q-15 -102 -15 -166q0 -109 33 -149.5t96 -40.5q40 0 70.5 14t60.5 50.5t52.5 109.5t38.5 182q12 82 12 168z" />
    <glyph glyph-name="one.taboldstyle" unicode="&#xf644;" 
d="M1284 336l-49 -336h-1047l50 336h307l73 518q4 31 33 70l-338 -62l47 328l758 139l-143 -993h309z" />
    <glyph glyph-name="two.taboldstyle" unicode="&#xf645;" 
d="M1403 969q0 -61 -12.5 -113t-31.5 -91.5t-53 -75t-66.5 -60t-82.5 -50.5t-90.5 -43t-101.5 -40q-11 -4 -57.5 -22l-62 -24t-53.5 -22t-55.5 -25t-43 -23t-40.5 -26.5t-26 -25.5h309l12 86h367l-60 -414h-1146q19 132 59.5 242t92 189t120 142t137.5 103.5t150 71.5
q31 12 74 28t67 25t54.5 21.5t47 23t32 24t22 28.5t6.5 34q0 76 -137 76q-107 0 -161.5 -33t-66.5 -115h-358q31 220 196.5 344.5t436.5 124.5q242 0 382 -99.5t140 -260.5z" />
    <glyph glyph-name="three.taboldstyle" unicode="&#xf646;" 
d="M1413 971q0 -113 -55 -213t-150 -160q146 -92 146 -258q0 -8 -1 -18t-2.5 -22t-2.5 -19q-17 -119 -82 -215t-159.5 -155.5t-206 -90.5t-228.5 -31q-69 0 -133.5 10t-132 35.5t-123.5 65t-104 103t-77 144.5l336 142q50 -101 113 -138.5t162 -37.5q178 0 202 163
q3 15 3 31q0 56 -32.5 90.5t-94.5 34.5h-162l-49 307h243q72 0 113 49t41 121q0 101 -137 101q-94 0 -168.5 -36t-136.5 -120l-297 135q225 340 665 340q134 0 234.5 -27.5t159.5 -77t87.5 -113t28.5 -140.5z" />
    <glyph glyph-name="four.taboldstyle" unicode="&#xf647;" 
d="M1401 471l-49 -332h-156l-45 -319h-430l45 319h-682l45 301l862 856h373l-119 -825h156zM874 754l-292 -283h233l27 188q6 41 32 95z" />
    <glyph glyph-name="five.taboldstyle" unicode="&#xf648;" 
d="M1470 1296l-141 -335h-637l-43 -156q79 10 166 10q245 0 383.5 -98.5t138.5 -298.5q0 -196 -90.5 -340t-244 -216.5t-349.5 -72.5q-69 0 -134 10t-133.5 35.5t-125 65t-105 103t-77.5 144.5l336 142q50 -101 112.5 -138.5t161.5 -37.5q103 0 154 67.5t51 171.5
q0 69 -45.5 105.5t-153.5 36.5q-82 0 -174 -14.5t-160 -41.5l-149 140l195 718h1064z" />
    <glyph glyph-name="six.taboldstyle" unicode="&#xf649;" 
d="M1464 1253l-268 -209q-64 81 -130 115.5t-167 34.5q-93 0 -157 -58.5t-89 -164.5q43 25 105.5 40t107.5 15q243 0 373.5 -105.5t130.5 -306.5q0 -304 -183 -474.5t-493 -170.5q-138 0 -239 32.5t-161 93.5t-88 139.5t-28 177.5q0 52 5.5 105t19 135.5t16.5 103.5
q9 62 18.5 112t26 114t37 114.5t51.5 107t69 99t91 83t115 66.5t143 41.5t174 15.5q358 0 520 -256zM934 578q0 143 -131 143q-57 0 -98.5 -25t-63.5 -68t-31.5 -90t-9.5 -100q0 -86 36.5 -117.5t102.5 -31.5q45 0 80 18t56 46.5t35 67.5t19 77t5 80z" />
    <glyph glyph-name="seven.taboldstyle" unicode="&#xf64a;" 
d="M1487 1296l-41 -286l-832 -1190h-497l770 1083q27 37 80 66h-342l-21 -133h-371l68 460h1186z" />
    <glyph glyph-name="eight.taboldstyle" unicode="&#xf64b;" 
d="M1440 1151q0 -41 -6 -90q-12 -80 -62.5 -158t-118.5 -125q121 -109 121 -256q0 -17 -4 -57q-73 -496 -665 -496q-272 0 -402.5 103t-130.5 295q0 28 8 98q25 182 207 313q-46 40 -74 104t-28 134q0 17 4 45q34 238 196 343t441 105q250 0 382 -85t132 -273zM1016 1092
q0 104 -135 104q-152 0 -170 -135q-4 -28 -4 -41q0 -90 67 -90h133q41 0 69.5 32.5t37.5 98.5q2 10 2 31zM944 504q0 52 -22 84.5t-70 32.5h-109q-52 0 -89 -42.5t-48 -113.5q-6 -35 -6 -57q0 -68 35.5 -92.5t114.5 -24.5q93 0 135 36t57 138q2 12 2 39z" />
    <glyph glyph-name="nine.taboldstyle" unicode="&#xf64c;" 
d="M1403 885q0 -64 -8 -119l-33 -223q-12 -82 -25 -145.5t-39.5 -145.5t-60.5 -143.5t-89 -124.5t-124.5 -103.5t-168.5 -66t-218 -25.5q-358 0 -520 256l268 209q64 -81 130 -115.5t167 -34.5q93 0 157 59t89 165q-43 -25 -106 -40.5t-107 -15.5q-243 0 -373.5 105.5
t-130.5 306.5q0 30 8 100q17 121 63.5 217.5t125.5 171t200.5 115.5t278.5 41q138 0 239 -33t161 -93.5t88 -139.5t28 -178zM981 860q0 86 -36.5 118t-102.5 32q-80 0 -125 -48.5t-64 -177.5q-6 -35 -6 -63q0 -143 131 -143q168 0 197 206q6 44 6 76z" />
    <glyph glyph-name="zero.denominator" unicode="&#xf655;" horiz-adv-x="798" 
d="M801 438q-7 -50 -15 -89.5t-23.5 -89t-35 -86.5t-50.5 -74.5t-69.5 -62t-93 -39.5t-119.5 -15q-85 0 -144 24.5t-89.5 69t-43 95t-12.5 114.5q0 47 13 153q11 69 25.5 124.5t44.5 117t71.5 102.5t108.5 68t153 27q291 0 291 -302q0 -47 -12 -137zM532 438q15 102 15 150
t-12.5 66t-38.5 18q-41 0 -64.5 -46.5t-44.5 -187.5q-14 -98 -14 -157q0 -53 12.5 -74t38.5 -21q27 0 44.5 19t33.5 74.5t30 158.5z" />
    <glyph glyph-name="one.denominator" unicode="&#xf656;" horiz-adv-x="716" 
d="M651 0h-614l31 211h174l57 391q0 13 8 25q-20 -3 -85.5 -15.5t-98.5 -17.5l31 205l450 84l-98 -672h176z" />
    <glyph glyph-name="two.denominator" unicode="&#xf657;" horiz-adv-x="798" 
d="M524 197l8 53h228l-37 -250h-672q12 81 39.5 149t58.5 114.5t79.5 91t86 70.5t93.5 60q90 57 113 80.5t28 61.5q0 47 -60 47q-46 0 -81 -31.5t-46 -101.5h-223q23 159 126 247.5t263 88.5q140 0 215.5 -56.5t75.5 -154.5q0 -109 -54 -183.5t-198 -156.5
q-125 -73 -188 -129h145z" />
    <glyph glyph-name="three.denominator" unicode="&#xf658;" horiz-adv-x="798" 
d="M336 535h147q40 0 58 19.5t18 70.5q0 49 -67 49q-101 0 -173 -92l-184 84q143 211 395 211q153 0 226 -57.5t73 -153.5q0 -69 -31 -126t-87 -89q80 -41 80 -144q0 -77 -35 -140t-92 -102.5t-126.5 -61t-142.5 -21.5q-50 0 -96.5 11t-92.5 35t-83.5 68.5t-59.5 106.5
l207 88q31 -60 65 -82.5t87 -22.5q93 0 104 101q0 69 -59 69h-105z" />
    <glyph glyph-name="four.denominator" unicode="&#xf659;" horiz-adv-x="798" 
d="M793 182h-86l-27 -182h-264l26 182h-387l27 183l498 493h225l-68 -469h86zM483 381l25 172l-170 -172h145z" />
    <glyph glyph-name="five.denominator" unicode="&#xf65a;" horiz-adv-x="798" 
d="M418 645l-25 -88q59 12 119 12q123 0 198.5 -54.5t75.5 -166.5q0 -160 -107.5 -263t-295.5 -103q-50 0 -96.5 11t-92.5 35t-83.5 68.5t-59.5 106.5l209 88q29 -59 62 -82t75 -23q117 0 117 119q0 88 -125 88q-74 0 -182 -33l-80 76l113 422h628l-88 -213h-362z" />
    <glyph glyph-name="six.denominator" unicode="&#xf65b;" horiz-adv-x="798" 
d="M379 537q71 28 151 28q109 0 181.5 -58t72.5 -163q0 -159 -102 -260.5t-291 -101.5q-158 0 -230.5 70t-72.5 192q0 32 6 69l19 125q7 48 14.5 84.5t23.5 85t35.5 83.5t52 72t72.5 60.5t98 38.5t128 15q207 0 307 -158l-160 -125q-64 82 -166 82q-58 0 -93 -30t-46 -109z
M453 408q-51 0 -77 -42t-26 -108q0 -43 18 -58.5t52 -15.5q44 0 70 39.5t26 110.5q0 74 -63 74z" />
    <glyph glyph-name="seven.denominator" unicode="&#xf65c;" horiz-adv-x="757" 
d="M846 684l-481 -684h-302l449 629q2 4 20 22h-153l-10 -76h-234l41 283h694z" />
    <glyph glyph-name="eight.denominator" unicode="&#xf65d;" horiz-adv-x="798" 
d="M401 -18q183 0 288.5 84.5t105.5 232.5q0 48 -23 89t-61 63q62 34 92.5 93t30.5 130q0 203 -304 203q-170 0 -272 -71t-102 -214q0 -93 71 -141q-65 -30 -100 -95t-35 -141q0 -233 309 -233zM430 365h53q28 0 40 -12.5t12 -39.5q0 -4 -5 -39q-7 -52 -28.5 -70t-69.5 -18
q-40 0 -58 13t-18 47q0 18 2 28q7 48 21.5 69.5t50.5 21.5zM508 535h-53q-24 0 -32.5 8t-8.5 28q0 19 2 29q6 41 26 59.5t60 18.5q67 0 67 -55q0 -88 -61 -88z" />
    <glyph glyph-name="nine.denominator" unicode="&#xf65e;" horiz-adv-x="798" 
d="M133 559q22 147 116 233.5t273 86.5q158 0 230.5 -70.5t72.5 -192.5q0 -32 -6 -69l-18 -125q-7 -47 -14.5 -84.5t-22.5 -85t-35 -83t-52.5 -72t-73 -60t-98.5 -38.5t-128 -15q-205 0 -307 157l159 125q66 -82 166 -82q58 0 93.5 30.5t46.5 109.5q-71 -29 -152 -29
q-108 0 -180 58.5t-72 162.5q0 29 2 43zM401 559q-2 -12 -2 -37q0 -69 62 -69q86 0 100 106q4 32 4 41q0 44 -19 60t-52 16q-40 0 -62 -25.5t-31 -91.5z" />
    <glyph glyph-name="zero.numerator" unicode="&#xf661;" horiz-adv-x="798" 
d="M893 1063q-7 -50 -15 -90t-23.5 -89t-35 -86.5t-50.5 -75t-69.5 -62t-93 -39.5t-119.5 -15q-69 0 -120.5 16.5t-83 44t-51 68t-26.5 82t-7 92.5q0 56 12 154q11 69 25.5 124.5t44.5 116.5t71.5 102t108.5 68t153 27q291 0 291 -301q0 -47 -12 -137zM625 1063
q14 95 14 149q0 48 -12.5 66t-38.5 18q-41 0 -64.5 -46t-44.5 -187q-14 -98 -14 -158q0 -53 12.5 -73.5t38.5 -20.5q27 0 45 19t34 74.5t30 158.5z" />
    <glyph glyph-name="one.numerator" unicode="&#xf662;" horiz-adv-x="716" 
d="M743 625h-614l31 211h174l57 391q0 12 8 24q-14 -2 -82.5 -14.5t-101.5 -17.5l31 204l450 84l-98 -671h176z" />
    <glyph glyph-name="two.numerator" unicode="&#xf663;" horiz-adv-x="798" 
d="M616 821l9 53h227l-37 -249h-672q12 81 39.5 149t58.5 114.5t79.5 91t86 70.5t93.5 60q91 57 113.5 80t27.5 61q0 47 -59 47q-46 0 -81 -31.5t-46 -101.5h-224q23 159 126.5 247.5t263.5 88.5q140 0 215 -56.5t75 -154.5q0 -109 -54 -183.5t-198 -156.5
q-125 -73 -188 -129h145z" />
    <glyph glyph-name="three.numerator" unicode="&#xf664;" horiz-adv-x="798" 
d="M428 1159h147q40 0 58 19.5t18 70.5q0 49 -67 49q-100 0 -172 -92l-185 84q143 211 396 211q153 0 226 -57.5t73 -153.5q0 -68 -31.5 -125.5t-87.5 -89.5q80 -41 80 -143q0 -77 -35 -140.5t-92 -103t-126.5 -61t-142.5 -21.5q-50 0 -96.5 11t-92.5 35t-83 68.5t-59 106.5
l206 88q31 -60 65 -82t87 -22q47 0 72.5 23.5t31.5 76.5q0 31 -14.5 50.5t-44.5 19.5h-104z" />
    <glyph glyph-name="four.numerator" unicode="&#xf665;" horiz-adv-x="798" 
d="M885 807h-86l-27 -182h-264l27 182h-388l27 182l498 494h225l-68 -469h86zM575 1006l25 172l-170 -172h145z" />
    <glyph glyph-name="five.numerator" unicode="&#xf666;" horiz-adv-x="798" 
d="M510 1270l-25 -88q58 12 119 12q123 0 199 -54.5t76 -166.5q0 -160 -108 -263.5t-296 -103.5q-50 0 -96.5 11t-92.5 35t-83.5 68.5t-59.5 106.5l209 88q29 -59 62 -81.5t75 -22.5q117 0 117 119q0 88 -125 88q-74 0 -182 -33l-80 76l113 422h629l-89 -213h-362z" />
    <glyph glyph-name="six.numerator" unicode="&#xf667;" horiz-adv-x="798" 
d="M471 1161q74 29 152 29q109 0 181.5 -58t72.5 -163q0 -159 -102.5 -261t-291.5 -102q-158 0 -230.5 70t-72.5 192q0 33 6 70l19 125q7 48 14.5 84.5t23.5 85t35.5 83.5t52 72t72.5 60t98 38t128 15q207 0 307 -158l-160 -124q-63 81 -166 81q-58 0 -93 -30t-46 -109z
M545 1032q-51 0 -77 -41.5t-26 -107.5q0 -43 18 -58.5t52 -15.5q44 0 70 39t26 110q0 74 -63 74z" />
    <glyph glyph-name="seven.numerator" unicode="&#xf668;" horiz-adv-x="757" 
d="M938 1309l-481 -684h-301l448 628q2 4 21 23h-154l-10 -76h-234l41 283h695z" />
    <glyph glyph-name="eight.numerator" unicode="&#xf669;" horiz-adv-x="798" 
d="M494 606q183 0 288 85t105 233q0 48 -23 88.5t-61 62.5q62 34 92.5 93t30.5 130q0 203 -303 203q-170 0 -272.5 -70.5t-102.5 -213.5q0 -94 71 -142q-65 -30 -100 -94.5t-35 -140.5q0 -234 310 -234zM522 989h53q29 0 40.5 -12t11.5 -39q0 -11 -4 -39q-7 -52 -29 -70
t-70 -18q-40 0 -57.5 12.5t-17.5 46.5q0 19 2 29q7 48 21 69t50 21zM600 1159h-53q-24 0 -32.5 8.5t-8.5 28.5q0 19 2 29q6 41 26 59.5t60 18.5q68 0 68 -56q0 -88 -62 -88z" />
    <glyph glyph-name="nine.numerator" unicode="&#xf66a;" horiz-adv-x="798" 
d="M225 1184q22 147 116 233t273 86q158 0 231 -70t73 -192q0 -26 -7 -70l-18 -124q-7 -48 -14.5 -85t-23 -84.5t-35 -83.5t-52 -72.5t-73 -60t-98.5 -38.5t-128 -15q-204 0 -307 158l160 125q66 -82 165 -82q58 0 93.5 30t46.5 109q-69 -28 -152 -28q-108 0 -181 58.5
t-73 162.5q0 15 4 43zM494 1184q-2 -12 -2 -37q0 -70 61 -70q86 0 100 107q4 32 4 41q0 43 -18.5 59t-52.5 16q-40 0 -61.5 -25t-30.5 -91z" />
    <glyph glyph-name="commaaccent" unicode="&#xf6c3;" horiz-adv-x="409" 
d="M473 -225v-2q-25 -158 -117 -271h-260q34 38 58 92.5t30 102.5h-98q-13 0 -16.5 5t-1.5 19l24 175q3 22 23 22h354q11 0 14 -0.5t6.5 -5.5t-0.5 -16z" />
    <glyph glyph-name="one.fitted" unicode="&#xf6dc;" horiz-adv-x="1196" 
d="M1180 336l-50 -336h-1046l49 336h307l101 706q4 33 32 70l-337 -61l47 327l757 140l-170 -1182h310z" />
    <glyph glyph-name="a.superior" unicode="&#xf6e9;" horiz-adv-x="770" 
d="M793 625h-193l-12 43q-87 -64 -187 -64q-136 0 -199 59t-48 173q31 204 297 204q71 0 139 -12l8 53q3 26 -15 39t-61 13q-80 0 -123 -41l-145 90q59 64 134 93.5t181 29.5q149 0 228 -52.5t63 -171.5zM555 795l16 114q-32 4 -57 4q-91 0 -100 -65q-4 -36 13 -54t50 -18
q31 0 78 19z" />
    <glyph glyph-name="b.superior" unicode="&#xf6ea;" horiz-adv-x="811" 
d="M915 961q-27 -187 -133.5 -272t-289.5 -85q-164 0 -330 78l131 899h260l-37 -258q-4 -23 -24 -49q58 31 122 31q350 0 301 -344zM651 961q14 93 -3 135.5t-73 42.5q-44 0 -88 -15l-51 -344q44 -8 82 -8q63 0 91 43.5t42 145.5z" />
    <glyph glyph-name="d.superior" unicode="&#xf6eb;" horiz-adv-x="813" 
d="M836 625h-201l-8 41q-82 -62 -183 -62q-144 0 -221.5 90.5t-52.5 270.5q25 166 136.5 253t275.5 87q58 0 104 -25q-13 23 -8 43l37 258h260zM600 793l49 333q-38 13 -71 13q-117 0 -144 -174q-6 -53 -3 -96t25 -71t62 -28q32 0 82 23z" />
    <glyph glyph-name="e.superior" unicode="&#xf6ec;" horiz-adv-x="786" 
d="M881 895h-465q-15 -117 104 -117q85 0 137 60l187 -62q-122 -172 -348 -172q-376 0 -326 350q24 171 131.5 261t278.5 90q180 0 256.5 -95.5t50.5 -281.5zM657 1034q1 50 -24.5 74.5t-67.5 24.5q-93 0 -127 -99h219z" />
    <glyph glyph-name="i.superior" unicode="&#xf6ed;" horiz-adv-x="391" 
d="M526 1380q-2 -8 -3 -9t-9 -1h-240q-9 0 -10.5 1t0.5 9l27 189q1 9 3 10.5t11 1.5h240q6 0 7 -0.5t2 -3t-1 -8.5zM416 625h-262l96 659h262z" />
    <glyph glyph-name="l.superior" unicode="&#xf6ee;" horiz-adv-x="434" 
d="M492 614h-138q-94 0 -139.5 57.5t-30.5 159.5l109 750h262l-109 -750q-3 -18 2.5 -25t20.5 -7h49z" />
    <glyph glyph-name="m.superior" unicode="&#xf6ef;" horiz-adv-x="1179" 
d="M1210 625h-260l60 407q7 53 -4 74.5t-43 21.5q-21 0 -38 -8t-48 -28q0 -12 -3.5 -35.5t-3.5 -24.5l-59 -407h-260l59 407q8 55 -0.5 75.5t-38.5 20.5q-33 0 -88 -36l-67 -467h-262l96 659h219l16 -59q80 80 185 80q119 0 178 -95q60 50 110.5 72.5t110.5 22.5
q129 0 175 -68.5t26 -204.5z" />
    <glyph glyph-name="o.superior" unicode="&#xf6f0;" horiz-adv-x="815" 
d="M920 954q-23 -161 -127.5 -255.5t-298.5 -94.5q-196 0 -272.5 94t-51.5 256q23 162 126 256.5t298 94.5q194 0 271.5 -94.5t54.5 -256.5zM655 954q13 99 -8.5 134.5t-77.5 35.5q-58 0 -90 -36t-45 -134q-14 -98 7 -134t79 -36q56 0 88.5 36.5t46.5 133.5z" />
    <glyph glyph-name="r.superior" unicode="&#xf6f1;" horiz-adv-x="577" 
d="M702 1098q-50 8 -81 8q-82 0 -136 -25l-67 -456h-264l96 659h219l16 -59q69 80 185 80q26 0 61 -7z" />
    <glyph glyph-name="s.superior" unicode="&#xf6f2;" horiz-adv-x="716" 
d="M803 838q-15 -110 -107 -172t-245 -62q-252 0 -306 176l187 56q35 -68 143 -68q72 0 80 49q4 33 -37 41l-149 27q-177 27 -150 211q14 104 103 156.5t225 52.5q102 0 178.5 -36.5t116.5 -97.5l-180 -84q-46 56 -138 56q-62 0 -67 -41q-3 -31 22 -37l131 -25
q113 -20 160 -63.5t33 -138.5z" />
    <glyph glyph-name="t.superior" unicode="&#xf6f3;" horiz-adv-x="645" 
d="M743 692q-54 -41 -124.5 -64.5t-141.5 -23.5q-116 0 -182 52.5t-49 174.5l33 230q4 23 26 41h-123l27 182h102l29 207l270 72l-39 -279h246l-88 -182h-184l-39 -271q-5 -36 33 -36q19 0 44.5 9.5t39.5 20.5z" />
    <glyph glyph-name="zero.oldstyle" unicode="&#xf730;" 
d="M1409 823q0 -91 -12 -176q-13 -87 -29.5 -158.5t-44.5 -143.5t-64.5 -127t-90 -103.5t-120.5 -80t-156.5 -49.5t-197.5 -18q-121 0 -214 30t-150 78t-93 116.5t-49.5 138.5t-13.5 151q0 73 14 166q12 86 28.5 156.5t44.5 142.5t64.5 127.5t90.5 105t121 81.5t156.5 50.5
t197.5 18.5q518 0 518 -506zM973 815q0 110 -32.5 150.5t-96.5 40.5q-40 0 -70 -14.5t-59.5 -51.5t-51.5 -110t-38 -183q-15 -102 -15 -166q0 -109 33 -149.5t96 -40.5q40 0 70.5 14t60.5 50.5t52.5 109.5t38.5 182q12 82 12 168z" />
    <glyph glyph-name="one.oldstyle" unicode="&#xf731;" horiz-adv-x="1251" 
d="M1214 336l-49 -336h-1046l49 336h307l74 518q4 31 33 70l-338 -62l47 328l758 139l-144 -993h309z" />
    <glyph glyph-name="two.oldstyle" unicode="&#xf732;" 
d="M1403 969q0 -61 -12.5 -113t-31.5 -91.5t-53 -75t-66.5 -60t-82.5 -50.5t-90.5 -43t-101.5 -40q-11 -4 -57.5 -22l-62 -24t-53.5 -22t-55.5 -25t-43 -23t-40.5 -26.5t-26 -25.5h309l12 86h367l-60 -414h-1146q19 132 59.5 242t92 189t120 142t137.5 103.5t150 71.5
q31 12 74 28t67 25t54.5 21.5t47 23t32 24t22 28.5t6.5 34q0 76 -137 76q-107 0 -161.5 -33t-66.5 -115h-358q31 220 196.5 344.5t436.5 124.5q242 0 382 -99.5t140 -260.5z" />
    <glyph glyph-name="three.oldstyle" unicode="&#xf733;" 
d="M1413 971q0 -113 -55 -213t-150 -160q146 -92 146 -258q0 -8 -1 -18t-2.5 -22t-2.5 -19q-17 -119 -82 -215t-159.5 -155.5t-206 -90.5t-228.5 -31q-69 0 -133.5 10t-132 35.5t-123.5 65t-104 103t-77 144.5l336 142q50 -101 113 -138.5t162 -37.5q178 0 202 163
q3 15 3 31q0 56 -32.5 90.5t-94.5 34.5h-162l-49 307h243q72 0 113 49t41 121q0 101 -137 101q-94 0 -168.5 -36t-136.5 -120l-297 135q225 340 665 340q134 0 234.5 -27.5t159.5 -77t87.5 -113t28.5 -140.5z" />
    <glyph glyph-name="four.oldstyle" unicode="&#xf734;" 
d="M1401 471l-49 -332h-156l-45 -319h-430l45 319h-682l45 301l862 856h373l-119 -825h156zM874 754l-292 -283h233l27 188q6 41 32 95z" />
    <glyph glyph-name="five.oldstyle" unicode="&#xf735;" 
d="M1470 1296l-141 -335h-637l-43 -156q79 10 166 10q245 0 383.5 -98.5t138.5 -298.5q0 -196 -90.5 -340t-244 -216.5t-349.5 -72.5q-69 0 -134 10t-133.5 35.5t-125 65t-105 103t-77.5 144.5l336 142q50 -101 112.5 -138.5t161.5 -37.5q103 0 154 67.5t51 171.5
q0 69 -45.5 105.5t-153.5 36.5q-82 0 -174 -14.5t-160 -41.5l-149 140l195 718h1064z" />
    <glyph glyph-name="six.oldstyle" unicode="&#xf736;" 
d="M1464 1253l-268 -209q-64 81 -130 115.5t-167 34.5q-93 0 -157 -58.5t-89 -164.5q43 25 105.5 40t107.5 15q243 0 373.5 -105.5t130.5 -306.5q0 -304 -183 -474.5t-493 -170.5q-138 0 -239 32.5t-161 93.5t-88 139.5t-28 177.5q0 52 5.5 105t19 135.5t16.5 103.5
q9 62 18.5 112t26 114t37 114.5t51.5 107t69 99t91 83t115 66.5t143 41.5t174 15.5q358 0 520 -256zM934 578q0 143 -131 143q-57 0 -98.5 -25t-63.5 -68t-31.5 -90t-9.5 -100q0 -86 36.5 -117.5t102.5 -31.5q45 0 80 18t56 46.5t35 67.5t19 77t5 80z" />
    <glyph glyph-name="seven.oldstyle" unicode="&#xf737;" 
d="M1487 1296l-41 -286l-832 -1190h-497l770 1083q27 37 80 66h-342l-21 -133h-371l68 460h1186z" />
    <glyph glyph-name="eight.oldstyle" unicode="&#xf738;" 
d="M1440 1151q0 -41 -6 -90q-12 -80 -62.5 -158t-118.5 -125q121 -109 121 -256q0 -17 -4 -57q-73 -496 -665 -496q-272 0 -402.5 103t-130.5 295q0 28 8 98q25 182 207 313q-46 40 -74 104t-28 134q0 17 4 45q34 238 196 343t441 105q250 0 382 -85t132 -273zM1016 1092
q0 104 -135 104q-152 0 -170 -135q-4 -28 -4 -41q0 -90 67 -90h133q41 0 69.5 32.5t37.5 98.5q2 10 2 31zM944 504q0 52 -22 84.5t-70 32.5h-109q-52 0 -89 -42.5t-48 -113.5q-6 -35 -6 -57q0 -68 35.5 -92.5t114.5 -24.5q93 0 135 36t57 138q2 12 2 39z" />
    <glyph glyph-name="nine.oldstyle" unicode="&#xf739;" 
d="M1403 885q0 -64 -8 -119l-33 -223q-12 -82 -25 -145.5t-39.5 -145.5t-60.5 -143.5t-89 -124.5t-124.5 -103.5t-168.5 -66t-218 -25.5q-358 0 -520 256l268 209q64 -81 130 -115.5t167 -34.5q93 0 157 59t89 165q-43 -25 -106 -40.5t-107 -15.5q-243 0 -373.5 105.5
t-130.5 306.5q0 30 8 100q17 121 63.5 217.5t125.5 171t200.5 115.5t278.5 41q138 0 239 -33t161 -93.5t88 -139.5t28 -178zM981 860q0 86 -36.5 118t-102.5 32q-80 0 -125 -48.5t-64 -177.5q-6 -35 -6 -63q0 -143 131 -143q168 0 197 206q6 44 6 76z" />
    </font>
</defs>
</svg>
