<?xml version="1.0" standalone="no"?>
<!DOCTYPE svg PUBLIC "-//W3C//DTD SVG 1.1//EN" "http://www.w3.org/Graphics/SVG/1.1/DTD/svg11.dtd" >
<svg xmlns="http://www.w3.org/2000/svg" xmlns:xlink="http://www.w3.org/1999/xlink" version="1.1">
<metadata>
Created by FontForge 20201107 at Thu Aug 21 16:28:35 2025
 By www-data
Copyright 2025 The Google Sans Code Project Authors (github.com/googlefonts/googlesans-code)
</metadata>
<defs>
<font id="GoogleSansCode-LightItalic" horiz-adv-x="1200" >
  <font-face 
    font-family="Google Sans Code Light"
    font-weight="300"
    font-style="italic"
    font-stretch="normal"
    units-per-em="2000"
    panose-1="2 11 5 9 3 5 2 4 2 4"
    ascent="1600"
    descent="-400"
    x-height="1045"
    cap-height="1432"
    bbox="-385 -799 1487 2287"
    underline-thickness="168"
    underline-position="-404"
    slope="-10"
    unicode-range="U+000D-FFFD"
  />
<missing-glyph 
d="M174 0v1432h852v-1432h-852zM302 120h596v1192h-596v-1192z" />
    <glyph glyph-name=".notdef" 
d="M174 0v1432h852v-1432h-852zM302 120h596v1192h-596v-1192z" />
    <glyph glyph-name=".null" horiz-adv-x="0" 
 />
    <glyph glyph-name="nonmarkingreturn" horiz-adv-x="666" 
 />
    <glyph glyph-name="NULL" 
 />
    <glyph glyph-name="NULL" 
 />
    <glyph glyph-name="CR" unicode="&#xd;" 
 />
    <glyph glyph-name="space" unicode=" " 
 />
    <glyph glyph-name="exclam" unicode="!" 
d="M519 509l161 983h194l-209 -983h-146zM424 14q-43 44 -43 106t43 106t105 44t105 -44t43 -106t-43 -106t-105 -44t-105 44z" />
    <glyph glyph-name="quotedbl" unicode="&#x22;" 
d="M368 906l97 554h188l-97 -554h-188zM781 906l97 554h188l-97 -554h-188z" />
    <glyph glyph-name="numbersign" unicode="#" 
d="M536 -17l465 1466h132l-465 -1466h-132zM135 -17l464 1466h133l-465 -1466h-132zM24 375l22 124h1026l-22 -124h-1026zM196 933l22 124h1026l-22 -124h-1026z" />
    <glyph glyph-name="dollar" unicode="$" 
d="M598 0q-199 0 -323 96.5t-157 276.5l138 26q46 -269 342 -269q128 0 203 70.5t75 190.5q0 95 -42.5 159t-138.5 110l-152 72q-116 55 -177 137.5t-61 187.5q0 114 51.5 198.5t145.5 130.5t219 46q326 0 413 -289l-134 -39q-57 198 -282 198q-127 0 -200 -63t-73 -175
q0 -135 148 -205l152 -72q140 -66 205.5 -161.5t65.5 -228.5q0 -119 -52 -208.5t-146 -139t-220 -49.5zM423 -226l51 287l8 33l116 657l102 4l-117 -661l1 -33l-51 -287h-110zM599 758l106 598l2 31l48 271h110l-48 -271l-11 -31l-105 -594z" />
    <glyph glyph-name="percent" unicode="%" 
d="M90 266l-76 117l1158 780l76 -117zM808 -31q-121 0 -197.5 80t-76.5 200q0 87 38.5 164.5t109.5 126.5t167 49q122 0 198 -80t76 -200q0 -86 -38.5 -164t-109 -127t-167.5 -49zM814 103q80 0 124.5 58.5t44.5 139.5q0 69 -38 111.5t-102 42.5q-81 0 -125 -58.5
t-44 -139.5q0 -69 37.5 -111.5t102.5 -42.5zM420 843q-121 0 -197.5 80t-76.5 200q0 87 38.5 164.5t109.5 126.5t167 49q122 0 198 -80t76 -200q0 -86 -38.5 -164t-109 -127t-167.5 -49zM426 977q80 0 124.5 58.5t44.5 139.5q0 69 -38 111.5t-102 42.5q-81 0 -125 -58.5
t-44 -139.5q0 -69 37.5 -111.5t102.5 -42.5z" />
    <glyph glyph-name="ampersand" unicode="&#x26;" 
d="M974 -48l-543 723q-98 131 -138 224.5t-40 190.5q0 111 51 195t142.5 130.5t211.5 46.5q145 0 245 -74t146 -216l-145 -55q-62 205 -252 205q-112 0 -180.5 -64t-68.5 -171q0 -71 32 -142.5t110 -175.5l546 -727zM454 -30q-122 0 -215.5 50.5t-146.5 139.5t-53 205
q0 179 101.5 300t294.5 173l56 -114q-155 -43 -229.5 -128.5t-74.5 -222.5q0 -123 72 -193t199 -70q113 0 201.5 70t165.5 226t153 413l151 -47q-85 -272 -187 -450t-223 -265t-265 -87z" />
    <glyph glyph-name="quotesingle" unicode="'" 
d="M574 906l97 554h188l-97 -554h-188z" />
    <glyph glyph-name="parenleft" unicode="(" 
d="M1052 1625l76 -129q-328 -199 -490 -437t-162 -543q0 -403 339 -706l-103 -109q-125 112 -211 241.5t-130.5 274t-44.5 299.5q0 344 182.5 618t543.5 491z" />
    <glyph glyph-name="parenright" unicode=")" 
d="M198 -297l-76 129q329 199 490.5 437.5t161.5 542.5q0 403 -339 706l103 109q125 -111 211 -241t130.5 -274.5t44.5 -299.5q0 -343 -182 -617t-544 -492z" />
    <glyph glyph-name="asterisk" unicode="*" 
d="M163 456l-60 112l517 254l506 270l60 -112l-519 -259zM1049 431l-438 297l-447 282l76 108l437 -302l448 -277zM480 219l196 1110h132l-196 -1110h-132z" />
    <glyph glyph-name="plus" unicode="+" 
d="M470 173l160 904h138l-160 -904h-138zM161 560l22 130h893l-22 -130h-893z" />
    <glyph glyph-name="comma" unicode="," 
d="M334 -340l-61 99q86 51 158 114.5t119 142.5l1 -27q-69 4 -112 42.5t-43 101.5q0 60 43 101t105 41q68 0 109.5 -42.5t41.5 -116.5q0 -75 -47.5 -158t-129 -160.5t-184.5 -137.5z" />
    <glyph glyph-name="hyphen" unicode="-" 
d="M169 553l26 146h872l-26 -146h-872z" />
    <glyph glyph-name="period" unicode="." 
d="M559 -30q-64 0 -107 43t-43 107q0 62 44 105t106 43q64 0 107 -43t43 -105q0 -64 -43 -107t-107 -43z" />
    <glyph glyph-name="slash" unicode="/" 
d="M-36 -176l1110 1636h162l-1110 -1636h-162z" />
    <glyph glyph-name="zero" unicode="0" 
d="M542 -30q-136 0 -228.5 66t-139.5 183t-47 271q0 111 17.5 242t57.5 259.5t109 235t171 171t244 64.5q137 0 229 -66t139 -183t47 -271q0 -111 -17.5 -242t-57.5 -259.5t-109 -235t-171 -171t-244 -64.5zM546 108q112 0 190 58.5t129 153.5t79 206.5t39.5 219.5t11.5 190
q0 170 -62 279t-211 109q-112 0 -190 -58.5t-129 -153.5t-79 -206.5t-39.5 -219.5t-11.5 -190q0 -170 62 -279t211 -109zM186 426l-33 132l931 448l33 -132z" />
    <glyph glyph-name="one" unicode="1" 
d="M518 70l206 1170l-380 -177l-61 128l519 241h108l-240 -1362h-152zM131 0l25 146h866l-25 -146h-866z" />
    <glyph glyph-name="two" unicode="2" 
d="M70 0l26 149l581 542q103 96 161 166t82.5 131.5t24.5 128.5q0 86 -52.5 143.5t-159.5 57.5q-105 0 -187.5 -58t-134.5 -167l-137 57q71 149 192 230.5t269 81.5q112 0 193 -45t125 -124t44 -180q0 -79 -33.5 -158t-105.5 -168t-190 -198l-480 -443v-6h665l-25 -140h-858
z" />
    <glyph glyph-name="three" unicode="3" 
d="M554 -30q-125 0 -224.5 48t-161 133.5t-73.5 196.5l144 20q11 -119 97 -189.5t222 -70.5q146 0 233.5 82t87.5 218q0 121 -73 191.5t-210 70.5h-140l25 140h149q152 0 240 77t88 206q0 110 -62 170.5t-174 60.5q-114 0 -197 -63.5t-121 -171.5l-139 50q55 147 178 235
t283 88q176 0 277 -101.5t101 -262.5q0 -143 -82.5 -237.5t-225.5 -123.5l-1 -8q115 -35 172.5 -118.5t57.5 -197.5q0 -128 -61 -228.5t-167 -157.5t-243 -57z" />
    <glyph glyph-name="four" unicode="4" 
d="M652 0l73 416l10 43l150 851l72 -112h-96l-592 -682l-1 -4h525h38h279l-24 -136h-1027l21 121l812 935h158l-252 -1432h-146z" />
    <glyph glyph-name="five" unicode="5" 
d="M538 -30q-183 0 -302.5 104.5t-139.5 280.5l144 20q14 -127 91.5 -197t210.5 -70q106 0 188.5 49.5t130 136t47.5 196.5q0 128 -65 197.5t-187 69.5q-85 0 -158 -32.5t-141 -95.5l-162 78l236 725h716l-26 -144h-585l-171 -493l3 -2q72 56 150.5 84t169.5 28
q167 0 266.5 -112t99.5 -298q0 -148 -66.5 -267t-182.5 -188.5t-267 -69.5z" />
    <glyph glyph-name="six" unicode="6" 
d="M567 -30q-124 0 -223.5 55.5t-158 154.5t-58.5 228q0 97 25.5 182.5t85.5 174t162 195.5l487 511l106 -100l-348 -353q-45 -45 -90.5 -82t-105.5 -81l5 -6q101 57 214 57t198.5 -54.5t133.5 -148.5t48 -213q0 -152 -61.5 -269.5t-169.5 -184t-250 -66.5zM571 110
q149 0 239 102.5t90 271.5q0 137 -73.5 217.5t-207.5 80.5q-101 0 -179 -46t-121.5 -129t-43.5 -193q0 -142 81.5 -223t214.5 -81z" />
    <glyph glyph-name="seven" unicode="7" 
d="M304 -31l-125 83l831 1232v4h-729l25 144h908l-23 -131z" />
    <glyph glyph-name="eight" unicode="8" 
d="M564 -30q-123 0 -221.5 53t-156 145.5t-57.5 208.5q0 147 90 255t229 149l1 8q-77 48 -118.5 122t-41.5 162q0 109 54.5 197t148.5 140t211 52q110 0 195.5 -47.5t134 -130.5t48.5 -190q0 -118 -69 -210.5t-191 -140.5l-1 -8q98 -51 150.5 -140t52.5 -200
q0 -122 -60 -218t-163.5 -151.5t-235.5 -55.5zM570 108q135 0 221 82t86 210q0 125 -82 204.5t-212 79.5q-136 0 -222 -84t-86 -218q0 -121 82.5 -197.5t212.5 -76.5zM675 832q116 0 188 71t72 186q0 106 -66 170.5t-174 64.5q-115 0 -187.5 -72t-72.5 -185
q0 -106 66 -170.5t174 -64.5z" />
    <glyph glyph-name="nine" unicode="9" 
d="M701 1462q124 0 223.5 -55.5t158 -154t58.5 -228.5q0 -97 -26 -182.5t-85.5 -174t-161.5 -195.5l-487 -511l-106 100l348 353q45 45 90.5 82.5t105.5 80.5l-5 6q-101 -57 -214 -57q-112 0 -198 54.5t-134 148.5t-48 213q0 152 61.5 269.5t170 184t249.5 66.5zM697 1322
q-149 0 -239 -102t-90 -272q0 -137 73.5 -217.5t207.5 -80.5q102 0 179.5 46t121 129t43.5 193q0 142 -81.5 223t-214.5 81z" />
    <glyph glyph-name="colon" unicode=":" 
d="M528 -30q-64 0 -107 43t-43 107q0 62 44 105t106 43q64 0 107 -43t43 -105q0 -64 -43 -107t-107 -43zM671 777q-64 0 -107 43t-43 107q0 62 44 105t106 43q64 0 107 -43t43 -105q0 -64 -43 -107t-107 -43z" />
    <glyph glyph-name="semicolon" unicode=";" 
d="M768 777q-64 0 -107 43t-43 107q0 62 44 105t106 43q64 0 107 -43t43 -105q0 -64 -43 -107t-107 -43zM334 -340l-61 99q86 51 158 114.5t119 142.5l1 -27q-69 4 -112 42.5t-43 101.5q0 60 43 101t105 41q68 0 109.5 -42.5t41.5 -116.5q0 -75 -47.5 -158t-129 -160.5
t-184.5 -137.5z" />
    <glyph glyph-name="less" unicode="&#x3c;" 
d="M952 80l-793 493l26 147l959 453l-32 -177l-774 -359l-2 -8l643 -392z" />
    <glyph glyph-name="equal" unicode="=" 
d="M180 769l25 142h927l-25 -142h-927zM105 341l25 142h927l-25 -142h-927z" />
    <glyph glyph-name="greater" unicode="&#x3e;" 
d="M285 1173l793 -493l-26 -147l-959 -453l32 177l774 359l2 8l-643 392z" />
    <glyph glyph-name="question" unicode="?" 
d="M495 468l46 261l222 110q119 59 175.5 127t56.5 153q0 97 -60.5 151t-167.5 54q-127 0 -228.5 -68t-160.5 -193l-129 64q75 159 210.5 247t304.5 88q173 0 276 -92.5t103 -246.5q0 -130 -75 -226t-245 -180l-149 -74l-31 -175h-148zM533 -30q-65 0 -109 43t-44 107
q0 65 44 107.5t109 42.5t109 -43t44 -107t-44 -107t-109 -43z" />
    <glyph glyph-name="at" unicode="@" 
d="M660 -233q-184 0 -312.5 84t-195 245.5t-66.5 394.5q0 182 33 354t97 320q92 213 240.5 325t339.5 112t301 -111t110 -305q0 -36 -3.5 -74.5t-11.5 -80.5l-140 -794h-146l19 108h-4q-88 -119 -203 -119q-141 0 -226 99t-85 262q0 143 52.5 258t142 182.5t200.5 67.5
q172 0 223 -158h4l18 102q8 42 11 76t3 67q0 138 -68.5 210t-200.5 72q-294 0 -447 -357q-55 -129 -84 -287t-29 -328q0 -292 108.5 -439.5t323.5 -147.5q134 0 262 71l55 -129q-146 -80 -321 -80zM736 360q71 0 128.5 50t91.5 134t34 187q0 107 -47.5 168.5t-130.5 61.5
q-115 0 -187 -102t-72 -266q0 -108 49 -170.5t134 -62.5z" />
    <glyph glyph-name="A" unicode="A" 
d="M-20 0l695 1432h169l192 -1432h-152l-136 1122l-15 137h-6l-62 -137l-527 -1122h-158zM243 400l69 142h584l19 -142h-672z" />
    <glyph glyph-name="B" unicode="B" 
d="M92 0l252 1432h400q170 0 260.5 -86t90.5 -235q0 -148 -68.5 -236.5t-197.5 -132.5v-6q102 -36 152 -117t50 -187q0 -131 -54.5 -228.5t-154 -150.5t-235.5 -53h-495zM260 136h317q147 0 228.5 81t81.5 228q0 233 -240 233h-350l24 136h340q140 0 213 73t73 212
q0 98 -53.5 147.5t-159.5 49.5h-270z" />
    <glyph glyph-name="C" unicode="C" 
d="M606 -30q-144 0 -249.5 71.5t-163 202.5t-57.5 309q0 200 47 366t133 288t203.5 188.5t258.5 66.5q163 0 270 -90t153 -265l-144 -40q-35 133 -103.5 194t-184.5 61q-141 0 -250.5 -99.5t-172 -273.5t-62.5 -398q0 -217 83.5 -329t244.5 -112q114 0 194.5 61t141.5 193
l128 -70q-161 -324 -470 -324z" />
    <glyph glyph-name="D" unicode="D" 
d="M56 0l252 1432h322q239 0 366.5 -149.5t127.5 -426.5q0 -266 -81.5 -458t-233 -295t-362.5 -103h-391zM224 138h225q251 0 389 189t138 525q0 231 -87 336.5t-278 105.5h-183z" />
    <glyph glyph-name="E" unicode="E" 
d="M104 0l252 1432h784l-24 -136h-638l-204 -1160h654l-24 -136h-800zM302 667l24 136h623l-24 -136h-623z" />
    <glyph glyph-name="F" unicode="F" 
d="M104 0l252 1432h800l-24 -136h-654l-228 -1296h-146zM300 654l24 136h659l-24 -136h-659z" />
    <glyph glyph-name="G" unicode="G" 
d="M602 -30q-148 0 -256 68.5t-166.5 195.5t-58.5 302q0 271 79 479.5t226 327.5t352 119q165 0 273.5 -79t154.5 -236l-143 -44q-34 114 -105.5 167.5t-184.5 53.5q-158 0 -271 -101.5t-173 -280t-60 -408.5q0 -205 87 -314.5t250 -109.5q158 0 252.5 107t128.5 325l12 76
h-356l26 149h500l-39 -245q-43 -268 -179 -410t-349 -142z" />
    <glyph glyph-name="H" unicode="H" 
d="M789 0l252 1432h146l-252 -1432h-146zM81 0l252 1432h146l-252 -1432h-146zM274 666l24 136h701l-24 -136h-701z" />
    <glyph glyph-name="I" unicode="I" 
d="M447 75l226 1282h148l-226 -1282h-148zM98 0l24 138h820l-24 -138h-820zM326 1294l24 138h820l-24 -138h-820z" />
    <glyph glyph-name="J" unicode="J" 
d="M541 -30q-170 0 -279 95.5t-135 267.5l148 26q34 -249 270 -249q122 0 194.5 77.5t100.5 235.5l178 1009h146l-181 -1028q-38 -217 -148.5 -325.5t-293.5 -108.5z" />
    <glyph glyph-name="K" unicode="K" 
d="M976 -10q-47 0 -82 17t-63.5 48.5t-58.5 75.5l-408 604v5l722 692h194l-774 -734l11 62l370 -545q32 -46 66.5 -64.5t82.5 -18.5h48l-22 -128q-20 -7 -41.5 -10.5t-44.5 -3.5zM92 0l252 1432h146l-252 -1432h-146z" />
    <glyph glyph-name="L" unicode="L" 
d="M120 0l252 1432h146l-228 -1294h694l-24 -138h-840z" />
    <glyph glyph-name="M" unicode="M" 
d="M6 0l252 1432h134l176 -588l49 -200h4l117 200l378 588h146l-252 -1432h-138l149 844l76 333h-4l-447 -711h-104l-197 711h-4l-48 -333l-149 -844h-138z" />
    <glyph glyph-name="N" unicode="N" 
d="M28 0l252 1432h150l467 -1156h4l46 332l145 824h148l-252 -1432h-122l-487 1202h-4l-46 -332l-153 -870h-148z" />
    <glyph glyph-name="O" unicode="O" 
d="M554 -30q-140 0 -241 65.5t-155 184.5t-54 281q0 146 26 286t77 262t127 215t176.5 145.5t224.5 52.5q203 0 313.5 -141.5t110.5 -389.5q0 -154 -23.5 -296t-71 -263t-120 -211.5t-170 -140.5t-220.5 -50zM558 110q101 0 177 48t128.5 130.5t85 187t47.5 220t15 227.5
q0 197 -68.5 298t-211.5 101q-103 0 -181.5 -49.5t-135 -134t-92.5 -190.5t-53 -219.5t-17 -219.5q0 -196 77.5 -297.5t228.5 -101.5z" />
    <glyph glyph-name="P" unicode="P" 
d="M82 0l252 1432h372q196 0 306.5 -107.5t110.5 -292.5q0 -155 -60 -264t-171.5 -166t-264.5 -57h-369l24 136h343q168 0 259 89.5t91 253.5q0 137 -67.5 204.5t-205.5 67.5h-248l-228 -1296h-144z" />
    <glyph glyph-name="Q" unicode="Q" 
d="M554 -30q-140 0 -241 65.5t-155 184.5t-54 281q0 146 26 286t77 262t127 215t176.5 145.5t224.5 52.5q203 0 313.5 -141.5t110.5 -389.5q0 -154 -23.5 -296t-71 -263t-120 -211.5t-170 -140.5t-220.5 -50zM893 -364q-85 0 -154 39.5t-143 142.5q-41 57 -72 90.5t-61 47.5
t-70 14q-70 0 -118.5 -52t-70.5 -168l-143 27q32 165 125 237.5t214 72.5q96 0 165.5 -42t143.5 -141q59 -78 94.5 -105t84.5 -27q29 0 55.5 10.5t54.5 31.5l64 -122q-37 -28 -80 -42t-89 -14zM558 90q101 0 177 50t128.5 135.5t85 193t47.5 225t15 229.5q0 197 -68.5 298
t-211.5 101q-103 0 -181.5 -49.5t-135 -134t-92.5 -190.5t-53 -219.5t-17 -219.5q0 -203 77.5 -311t228.5 -108z" />
    <glyph glyph-name="R" unicode="R" 
d="M72 0l252 1432h393q132 0 223.5 -50t139 -135.5t47.5 -193.5q0 -137 -55.5 -242.5t-159.5 -165t-249 -59.5h-408l24 136h384q94 0 155.5 29t96.5 76t49.5 103t14.5 111q0 119 -67 187t-201 68h-267l-228 -1296h-144zM1001 -10q-44 0 -78 17.5t-60.5 52.5t-50.5 87
l-228 502h152l205 -442q18 -39 46.5 -57t68.5 -18h43l-22 -128q-19 -8 -36 -11t-40 -3z" />
    <glyph glyph-name="S" unicode="S" 
d="M605 -30q-207 0 -349.5 105t-183.5 289l148 35q29 -138 130 -213.5t258 -75.5q143 0 223 69.5t80 191.5q0 96 -49 158t-166 114l-176 79q-118 53 -181 141.5t-63 209.5q0 118 57 205t160 135.5t242 48.5q172 0 291 -83t168 -237l-146 -41q-69 221 -319 221
q-141 0 -224 -67t-83 -176q0 -79 40 -133.5t137 -98.5l176 -79q139 -62 210.5 -159.5t71.5 -231.5q0 -123 -56 -214.5t-157.5 -142t-238.5 -50.5z" />
    <glyph glyph-name="T" unicode="T" 
d="M435 0l242 1372h146l-242 -1372h-146zM254 1294l24 138h964l-24 -138h-964z" />
    <glyph glyph-name="U" unicode="U" 
d="M555 -30q-119 0 -213 50.5t-148 142t-54 213.5q0 26 2.5 52t6.5 53l167 951h146l-168 -955q-4 -22 -6 -45t-2 -44q0 -135 74.5 -206.5t198.5 -71.5t209.5 83.5t111.5 232.5l178 1006h146l-181 -1029q-34 -197 -159 -315t-309 -118z" />
    <glyph glyph-name="V" unicode="V" 
d="M428 0l-194 1432h150l142 -1108l6 -150h7l59 150l528 1108h160l-698 -1432h-160z" />
    <glyph glyph-name="W" unicode="W" 
d="M138 0l56 1432h142l-67 -1180h6l110 295l256 603h132l46 -603v-295h6l348 1180h153l-447 -1432h-142l-58 733l-1 190h-6l-77 -190l-323 -733h-134z" />
    <glyph glyph-name="X" unicode="X" 
d="M887 0l-303 681l-14 20l-331 731h163l294 -659l14 -20l340 -753h-163zM-34 0l609 766l28 25l509 641h169l-573 -723l-28 -25l-545 -684h-169z" />
    <glyph glyph-name="Y" unicode="Y" 
d="M536 552l-298 880h158l167 -506l61 -214h6l136 214l342 506h174l-608 -880h-138zM435 0l107 611h146l-107 -611h-146z" />
    <glyph glyph-name="Z" unicode="Z" 
d="M66 0l22 127l897 1167h-664l24 138h840l-22 -127l-897 -1167h708l-24 -138h-884z" />
    <glyph glyph-name="bracketleft" unicode="[" 
d="M1180 1582l-21 -122h-501l-280 -1593h500l-21 -122h-643l323 1837h643z" />
    <glyph glyph-name="backslash" unicode="\" 
d="M788 -176l-538 1636h142l538 -1636h-142z" />
    <glyph glyph-name="bracketright" unicode="]" 
d="M70 -252l21 122h501l280 1593h-500l21 122h643l-323 -1837h-643z" />
    <glyph glyph-name="asciicircum" unicode="^" 
d="M141 687l547 745h106l323 -745h-152l-241 569h-6l-413 -569h-164z" />
    <glyph glyph-name="underscore" unicode="_" 
d="M-16 -170l25 140h988l-25 -140h-988z" />
    <glyph glyph-name="grave" unicode="`" 
d="M709 882l-220 578h208l168 -578h-156z" />
    <glyph glyph-name="a" unicode="a" 
d="M440 -30q-160 0 -254.5 115.5t-94.5 311.5q0 192 64.5 345.5t175 243t247.5 89.5q98 0 166.5 -47t114.5 -147h75l-76 -64l43 245h144l-102 -578q-17 -97 -24 -153t-7 -97q0 -102 105 -102h64l-22 -128q-20 -7 -41 -10.5t-45 -3.5q-82 0 -126 46.5t-44 132.5q0 26 6.5 66
t19.5 104l51 -74l-74 15q-55 -151 -149 -230.5t-217 -79.5zM453 102q128 0 224.5 122t133.5 330l30 170q-32 114 -90.5 166.5t-152.5 52.5q-102 0 -184 -72t-130.5 -195t-48.5 -276q0 -142 57 -220t161 -78z" />
    <glyph glyph-name="b" unicode="b" 
d="M569 -30q-199 0 -306 175h-36l38 50l-45 -195h-126l258 1462h141l-110 -626l-62 29h78q69 107 150.5 158.5t181.5 51.5q144 0 226.5 -108.5t82.5 -297.5q0 -203 -61 -361t-167 -248t-243 -90zM534 102q114 0 196 73.5t126 201t44 288.5q0 278 -204 278
q-134 0 -236 -122.5t-138 -329.5l-41 -233q39 -74 106 -115t147 -41z" />
    <glyph glyph-name="c" unicode="c" 
d="M617 -30q-133 0 -233.5 59.5t-156 165.5t-55.5 244q0 182 71.5 326t196 227t282.5 83t254.5 -85.5t115.5 -239.5l-143 -20q-26 207 -231 207q-115 0 -205.5 -64.5t-142.5 -176t-52 -253.5q0 -155 80 -245t219 -90q89 0 160 33t147 109l92 -111q-86 -86 -183.5 -127.5
t-215.5 -41.5z" />
    <glyph glyph-name="d" unicode="d" 
d="M440 -30q-160 0 -254.5 115.5t-94.5 311.5q0 192 64.5 345.5t175 243t247.5 89.5q98 0 166.5 -47t114.5 -147h75l-76 -64l113 643h144l-172 -976q-17 -97 -24 -153t-7 -97q0 -102 105 -102h64l-22 -128q-20 -7 -41 -10.5t-45 -3.5q-82 0 -126 46.5t-44 132.5q0 26 6.5 66
t19.5 104l51 -74l-74 15q-55 -151 -149 -230.5t-217 -79.5zM453 102q128 0 224.5 122t133.5 330l30 170q-32 114 -90.5 166.5t-152.5 52.5q-102 0 -184 -72t-130.5 -195t-48.5 -276q0 -142 57 -220t161 -78z" />
    <glyph glyph-name="e" unicode="e" 
d="M589 -30q-133 0 -234 60t-157.5 166t-56.5 244q0 114 36 227t108 205t179.5 147.5t251.5 55.5q156 0 242.5 -81.5t86.5 -206.5q0 -130 -81.5 -210.5t-258.5 -117t-464 -36.5l-13 115q249 6 396.5 32.5t212 78.5t64.5 134q0 73 -47.5 114.5t-143.5 41.5
q-132 0 -227.5 -71.5t-146.5 -185t-51 -238.5q0 -154 83 -245t225 -91q86 0 154.5 34t138.5 110l98 -105q-86 -92 -181 -134.5t-214 -42.5z" />
    <glyph glyph-name="f" unicode="f" 
d="M120 -450q-112 0 -210 54l64 120q74 -42 156 -42q88 0 134.5 53.5t65.5 178.5l194 1225q28 174 130.5 263.5t274.5 89.5q89 0 160.5 -18.5t143.5 -59.5l-62 -119q-61 35 -118 50t-128 15q-227 0 -266 -240l-34 -214l-4 -26l-156 -990q-27 -173 -111.5 -256.5
t-233.5 -83.5zM197 866l23 132h930l-23 -132h-930z" />
    <glyph glyph-name="g" unicode="g" 
d="M475 -572q-145 0 -262.5 45t-186 126.5t-68.5 190.5q0 88 44 160t127.5 120t201.5 64v-82q-112 -28 -172.5 -91t-60.5 -153q0 -109 105.5 -176t276.5 -67q164 0 260 61t96 155q0 68 -41 111t-141 65l-445 101v7l210 290l91 -26l-106 -184l289 -66q156 -36 219.5 -110
t63.5 -178q0 -111 -65 -192.5t-178 -126t-258 -44.5zM597 291q-110 0 -196.5 46t-136 126.5t-49.5 182.5q0 121 57 218t155 154t220 57q110 0 196 -47t136 -127.5t50 -183.5q0 -120 -57 -216.5t-155 -153t-220 -56.5zM600 411q83 0 148.5 39t103 107t37.5 154q0 104 -69 169
t-179 65q-82 0 -147 -38.5t-102 -105.5t-37 -153q0 -104 69 -170.5t176 -66.5zM906 974l-62 38q56 109 146 164.5t211 55.5l-33 -183q-92 0 -152 -17t-110 -58z" />
    <glyph glyph-name="h" unicode="h" 
d="M919 -10q-84 0 -134.5 48t-50.5 130q0 20 3.5 46t15.5 76l81 337q12 51 18.5 92.5t6.5 75.5q0 70 -40.5 109t-112.5 39q-90 0 -167.5 -50.5t-131.5 -141t-75 -209.5l-96 -542h-144l257 1460h144l-113 -639l-61 52h79q151 202 354 202q117 0 184.5 -72.5t67.5 -197.5
q0 -40 -5.5 -84.5t-19.5 -99.5l-78 -324q-8 -35 -12.5 -57t-4.5 -40q0 -78 89 -78h64l-20 -114q-25 -10 -49 -14t-49 -4z" />
    <glyph glyph-name="i" unicode="i" 
d="M761 -30q-135 0 -215.5 79t-80.5 212q0 35 4 74t13 89l92 524l22 -25h-365l22 122h478l-111 -631q-10 -56 -13.5 -86.5t-3.5 -58.5q0 -78 42.5 -120.5t121.5 -42.5q101 0 188 78l79 -106q-120 -108 -273 -108zM707 1289q-57 0 -97.5 41t-40.5 98t40 96.5t98 39.5
q59 0 97.5 -39t38.5 -98q0 -58 -39.5 -98t-96.5 -40z" />
    <glyph glyph-name="j" unicode="j" 
d="M311 -440q-184 0 -334 128l85 109q117 -101 251 -101q204 0 247 239l196 1110h140l-201 -1140q-29 -166 -128 -255.5t-256 -89.5zM323 923l21 122h519l-21 -122h-519zM866 1289q-56 0 -97 41t-41 98q0 56 40 96t98 40q59 0 97.5 -39t38.5 -98q0 -58 -39.5 -98t-96.5 -40z
" />
    <glyph glyph-name="k" unicode="k" 
d="M782 0l-443 560l1 6l576 479h206l-665 -546l20 112l487 -611h-182zM104 0l258 1460h141l-258 -1460h-141z" />
    <glyph glyph-name="l" unicode="l" 
d="M715 -30q-141 0 -224.5 81t-83.5 207q0 32 4.5 69.5t14.5 96.5l166 940l22 -36h-342l23 132h454l-184 -1046q-10 -60 -14 -92t-4 -58q0 -76 43 -117t123 -41q56 0 108.5 23.5t101.5 69.5l79 -106q-68 -63 -137.5 -93t-149.5 -30z" />
    <glyph glyph-name="m" unicode="m" 
d="M1001 -10q-84 0 -134.5 48t-50.5 130q0 20 3.5 46t14.5 76l108 479q11 50 11 89q0 85 -80 85q-70 0 -122 -71t-75 -198l-119 -674h-144l136 774q5 24 6.5 47t1.5 42q0 80 -79 80q-70 0 -123 -72t-76 -197l-119 -674h-144l184 1045h130l-34 -193l-54 63h73q40 80 95 120
t124 40q73 0 115 -47t42 -129q0 -18 -3 -48l-8 10q34 100 100 157t151 57q88 0 129.5 -55t41.5 -139q0 -25 -4 -55.5t-11 -59.5l-105 -469q-7 -32 -11.5 -54.5t-4.5 -40.5q0 -80 89 -80h64l-20 -114q-46 -18 -98 -18z" />
    <glyph glyph-name="n" unicode="n" 
d="M929 -10q-84 0 -134.5 48t-50.5 130q0 20 3.5 46t15.5 76l81 337q12 51 18.5 92.5t6.5 75.5q0 70 -40.5 109t-112.5 39q-90 0 -167.5 -50.5t-131.5 -141t-75 -209.5l-96 -542h-144l184 1045h143l-40 -226l-60 54h79q151 202 354 202q117 0 184.5 -72.5t67.5 -197.5
q0 -40 -5.5 -84.5t-19.5 -99.5l-78 -324q-8 -35 -12.5 -57t-4.5 -40q0 -78 89 -78h64l-20 -114q-46 -18 -98 -18z" />
    <glyph glyph-name="o" unicode="o" 
d="M548 -30q-127 0 -222 56t-147.5 159t-52.5 243q0 113 33 227.5t99.5 209.5t167 152.5t235.5 57.5q129 0 221.5 -55t141.5 -157.5t49 -245.5q0 -113 -30.5 -227.5t-94 -209.5t-163 -152.5t-237.5 -57.5zM556 106q98 0 168 49t114.5 127t65.5 166t21 165q0 159 -68.5 242.5
t-203.5 83.5q-102 0 -174 -49t-117.5 -127t-66.5 -165.5t-21 -165.5q0 -156 75 -241t207 -85z" />
    <glyph glyph-name="p" unicode="p" 
d="M18 -436l260 1481h126l-21 -209l-62 29h78q69 110 150.5 160t181.5 50q144 0 226.5 -108.5t82.5 -297.5q0 -203 -61 -361t-167 -248t-243 -90q-199 0 -306 175h-36l43 50l-111 -631h-141zM534 102q114 0 196 73.5t126 201t44 288.5q0 278 -204 278q-134 0 -236 -122.5
t-138 -329.5l-41 -233q39 -74 106 -115t147 -41z" />
    <glyph glyph-name="q" unicode="q" 
d="M339 -436l22 122h358l-76 -65l140 718l9 -145l-46 7q-49 -86 -119.5 -132t-165.5 -46q-162 0 -259.5 114t-97.5 304q0 183 62.5 326.5t170 225.5t242.5 82q197 0 286 -194h75l-76 -64l43 245h155l-278 -1427l-33 51h267l-22 -122h-657zM479 156q122 0 214.5 110
t124.5 293l29 165q-34 114 -92.5 166t-152.5 52q-103 0 -182 -63.5t-124.5 -175.5t-45.5 -259q0 -136 59 -212t170 -76z" />
    <glyph glyph-name="r" unicode="r" 
d="M248 0l167 950l16 -26h-244l21 121h358l-47 -267l-21 28h34q146 269 395 269q113 0 210 -47l-58 -143q-45 25 -88.5 36t-99.5 11q-163 0 -273.5 -138.5t-162.5 -434.5l-63 -359h-144zM932 681l56 318l149 29l-61 -347h-144z" />
    <glyph glyph-name="s" unicode="s" 
d="M594 -30q-136 0 -259.5 53.5t-215.5 151.5l92 105q162 -174 385 -174q105 0 166.5 44.5t61.5 120.5q0 123 -175 177l-151 46q-115 35 -178.5 109t-63.5 173q0 87 46.5 154.5t128.5 106t187 38.5q124 0 220.5 -39.5t184.5 -124.5l-92 -105q-72 71 -144.5 102t-170.5 31
q-93 0 -152.5 -44t-59.5 -113q0 -60 39 -97t131 -66l151 -46q122 -37 184.5 -111.5t62.5 -182.5q0 -91 -48 -161t-133 -109t-197 -39z" />
    <glyph glyph-name="t" unicode="t" 
d="M703 -30q-148 0 -233.5 85t-85.5 221q0 23 3.5 55t9.5 68l164 927h143l-166 -938q-6 -33 -8.5 -59t-2.5 -48q0 -85 46 -130t132 -45q59 0 111.5 20t107.5 63l71 -115q-67 -51 -140.5 -77.5t-151.5 -26.5zM191 913l23 132h892l-23 -132h-892z" />
    <glyph glyph-name="u" unicode="u" 
d="M467 -30q-121 0 -196 81.5t-75 213.5q0 34 4.5 76t15.5 103l89 502l11 -22h-219l21 121h350l-107 -609q-11 -63 -15 -101t-4 -74q0 -76 40.5 -117.5t115.5 -41.5q117 0 203 127.5t127 360.5l80 455h144l-99 -561q-17 -97 -24 -153t-7 -97q0 -102 105 -102h64l-22 -128
q-41 -14 -86 -14q-82 0 -126 46.5t-44 132.5q0 26 6 65t20 105l51 -74l-74 15q-61 -157 -147 -233.5t-202 -76.5z" />
    <glyph glyph-name="v" unicode="v" 
d="M434 0l-216 1045h148l130 -661l32 -222h6l112 222l360 661h160l-584 -1045h-148z" />
    <glyph glyph-name="w" unicode="w" 
d="M176 0l-42 1045h135l5 -771l-1 -118h5l40 118l270 653h157l44 -650l-2 -121h6l38 121l275 768h144l-411 -1045h-154l-37 649v132h-6l-45 -132l-265 -649h-156z" />
    <glyph glyph-name="x" unicode="x" 
d="M800 0l-253 498l-6 7l-279 540h154l238 -469l6 -7l294 -569h-154zM62 0l486 566l9 13l395 466h170l-459 -535l-16 -19l-415 -491h-170z" />
    <glyph glyph-name="y" unicode="y" 
d="M166 -440q-139 0 -240 107l93 99q35 -37 70 -54.5t77 -17.5q59 0 100.5 31.5t86.5 111.5l152 273h23l121 260l365 675h162l-696 -1253q-73 -130 -143.5 -181t-170.5 -51zM476 -114l-248 1159h146l138 -675l33 -208h12z" />
    <glyph glyph-name="z" unicode="z" 
d="M104 0l21 121l749 790h-586l24 134h772l-21 -120l-749 -791h621l-24 -134h-807z" />
    <glyph glyph-name="braceleft" unicode="{" 
d="M697 -261q-167 0 -254 52.5t-87 154.5q0 51 27.5 105t76.5 113l66 78q50 60 68.5 89.5t18.5 58.5q0 54 -98 73l-366 69l48 268l401 71q63 11 91 34.5t28 65.5q0 20 -9 47.5t-33 81.5l-34 76q-21 47 -32.5 89t-11.5 78q0 123 105.5 187t310.5 64q47 0 96 -3.5t86 -8.5
l-22 -128q-33 5 -75.5 8t-71.5 3q-145 0 -212.5 -35t-67.5 -111q0 -25 10.5 -58t26.5 -67l26 -53q29 -59 42 -98t13 -74q0 -93 -55.5 -144.5t-170.5 -70.5l-314 -51l-15 -82l251 -43q104 -18 156 -64t52 -120q0 -57 -29 -107t-107 -134l-30 -33q-46 -49 -69 -86t-23 -69
q0 -98 219 -98q42 0 85.5 3.5t81.5 10.5l-24 -127q-87 -15 -175 -15z" />
    <glyph glyph-name="bar" unicode="|" 
d="M371 -346l374 2124h152l-374 -2124h-152z" />
    <glyph glyph-name="braceright" unicode="}" 
d="M239 -263q-47 0 -96 3t-86 8l21 128q33 -4 76 -7.5t71 -3.5q146 0 212.5 35t66.5 111q0 25 -9.5 58t-26.5 67l-25 53q-28 59 -42 98.5t-14 73.5q0 93 56 144.5t171 70.5l313 51l15 82l-252 43q-103 17 -155 64t-52 120q0 57 30 107.5t106 133.5l31 33q45 49 68.5 86
t23.5 69q0 98 -219 98q-42 0 -86 -3t-82 -10l25 126q42 8 86 11.5t88 3.5q168 0 254 -52.5t86 -154.5q0 -51 -26.5 -105t-76.5 -113l-66 -78q-50 -59 -68 -88.5t-18 -58.5q0 -56 97 -74l366 -69l-48 -268l-402 -71q-118 -21 -118 -100q0 -19 9.5 -46.5t33.5 -82.5l33 -76
q20 -47 32 -89t12 -78q0 -123 -105 -186.5t-310 -63.5z" />
    <glyph glyph-name="asciitilde" unicode="~" 
d="M858 581q-81 0 -141.5 37.5t-121.5 126.5q-47 69 -79.5 96t-77.5 27q-57 0 -91.5 -39t-48.5 -116l-22 -125h-138l25 142q23 126 96 198t180 72q81 0 141.5 -37.5t123.5 -129.5q47 -69 80.5 -94.5t74.5 -25.5q111 0 138 155l22 125h138l-25 -142q-22 -127 -94.5 -198.5
t-179.5 -71.5z" />
    <glyph glyph-name="uni00A0" unicode="&#xa0;" 
 />
    <glyph glyph-name="exclamdown" unicode="&#xa1;" 
d="M736 753l-161 -983h-194l209 983h146zM831 1248q43 -44 43 -106t-43 -106t-105 -44t-105 44t-43 106t43 106t105 44t105 -44z" />
    <glyph glyph-name="cent" unicode="&#xa2;" 
d="M600 0q-133 0 -233.5 59.5t-156 165.5t-55.5 244q0 137 41.5 252.5t116.5 202t176 134t221 47.5q163 0 261.5 -80.5t120.5 -225.5l-142 -26q-15 96 -76 145t-168 49q-116 0 -208 -64.5t-144.5 -176t-52.5 -253.5q0 -155 80 -245t219 -90q89 0 159.5 33t146.5 109l92 -111
q-86 -86 -183 -127.5t-215 -41.5zM438 -226l49 282l7 37l82 468h110l-82 -468l-7 -37l-49 -282h-110zM573 543l83 469l7 37l49 282h110l-49 -282l-7 -37l-83 -469h-110z" />
    <glyph glyph-name="sterling" unicode="&#xa3;" 
d="M106 -30l-123 70q37 69 94.5 122.5t137.5 88.5q81 36 111.5 88t30.5 149q0 44 -5 111.5t-11 144t-11 151t-5 132.5q0 130 56.5 228t157.5 152.5t235 54.5q119 0 212 -43t166 -132l-104 -97q-58 71 -123.5 101.5t-156.5 30.5q-139 0 -217 -79.5t-78 -221.5q0 -48 4 -117.5
t9 -146t9 -149t4 -126.5q0 -89 -25.5 -139.5t-87.5 -88.5v-9q59 -8 114.5 -34t114 -48.5t123.5 -22.5q80 0 131.5 44t97.5 144l127 -64q-60 -127 -144.5 -195.5t-203.5 -68.5q-66 0 -122 18t-107 42t-102 42t-107 18q-122 0 -202 -150zM110 703l24 138h862l-24 -138h-862z
" />
    <glyph glyph-name="currency" unicode="&#xa4;" 
d="M595 266q-115 0 -204.5 51.5t-141 142t-51.5 206.5q0 98 36.5 184t101.5 151t150.5 102t182.5 37q115 0 204.5 -52t141 -142t51.5 -206q0 -98 -36.5 -184t-101.5 -151t-150 -102t-183 -37zM131 191l-85 101l245 207l84 -101zM369 912l-208 250l108 91l208 -250zM601 394
q91 0 164 45t115.5 122.5t42.5 174.5q0 125 -71.5 200.5t-188.5 75.5q-91 0 -164 -45t-115.5 -122t-42.5 -175q0 -124 71.5 -200t188.5 -76zM995 153l-208 250l108 91l208 -250zM973 907l-84 101l244 207l85 -101z" />
    <glyph glyph-name="yen" unicode="&#xa5;" 
d="M536 552l-298 880h158l167 -506l61 -214h6l136 214l342 506h174l-608 -880h-138zM435 0l107 611h146l-107 -611h-146zM134 278l21 122h846l-21 -122h-846zM184 559l21 122h846l-21 -122h-846z" />
    <glyph glyph-name="brokenbar" unicode="&#xa6;" 
d="M596 928l150 850h152l-150 -850h-152zM372 -346l150 850h152l-150 -850h-152z" />
    <glyph glyph-name="section" unicode="&#xa7;" 
d="M758 225l-64 94q109 21 167 77t58 140q0 64 -35 111.5t-107 81.5l-225 109q-88 43 -138 120t-50 171q0 96 49.5 171t135 118.5t193.5 43.5q140 0 246.5 -70t143.5 -186l-140 -54q-26 81 -93.5 125.5t-163.5 44.5q-103 0 -164 -49t-61 -132q0 -56 29 -97t87 -70l225 -109
q104 -50 157 -126.5t53 -177.5q0 -125 -78.5 -212.5t-224.5 -123.5zM502 -212q-140 0 -250 70.5t-148 185.5l140 54q27 -79 97.5 -124.5t167.5 -45.5q101 0 159 48t58 133q0 56 -28.5 97.5t-87.5 69.5l-225 109q-104 50 -157 127t-53 178q0 125 79 212t224 123l64 -94
q-109 -21 -167 -77t-58 -140q0 -64 35 -111t107 -82l225 -109q89 -43 138.5 -119.5t49.5 -171.5q0 -97 -47.5 -172t-131 -118t-191.5 -43z" />
    <glyph glyph-name="dieresis" unicode="&#xa8;" 
d="M557 1289q-55 0 -93 38.5t-38 93.5q0 54 38.5 92t92.5 38q56 0 94.5 -37.5t38.5 -92.5t-38.5 -93.5t-94.5 -38.5zM957 1289q-55 0 -93 38.5t-38 93.5q0 54 38.5 92t92.5 38q56 0 94.5 -37.5t38.5 -92.5t-38.5 -93.5t-94.5 -38.5z" />
    <glyph glyph-name="copyright" unicode="&#xa9;" 
d="M320.5 54q-132.5 84 -205.5 238t-73 362v124q0 209 73 362.5t205.5 237.5t313.5 84t313.5 -84t205.5 -237.5t73 -362.5v-124q0 -208 -73 -362t-205.5 -238t-313.5 -84t-313.5 84zM995.5 217.5q130.5 157.5 130.5 435.5v126q0 278 -130.5 435.5t-361.5 157.5
t-361.5 -157.5t-130.5 -435.5v-126q0 -278 130.5 -435.5t361.5 -157.5t361.5 157.5zM657 302q-155 0 -248 108t-93 288v44q0 180 93 288t248 108q128 0 205.5 -75t91.5 -212l-125 -13q-17 176 -174 176q-100 0 -156.5 -70.5t-56.5 -195.5v-56q0 -125 56.5 -195.5
t156.5 -70.5q157 0 174 176l125 -13q-14 -136 -91.5 -211.5t-205.5 -75.5z" />
    <glyph glyph-name="ordfeminine" unicode="&#xaa;" 
d="M527 628q-124 0 -197.5 83t-73.5 228q0 89 23.5 181t71.5 169.5t121 125t171 47.5q74 0 122.5 -37.5t79.5 -106.5h62l-59 -53l34 197h134l-78 -442q-24 -133 -24 -184q0 -74 82 -74h46l-23 -130q-13 -2 -25.5 -3t-26.5 -1q-73 0 -113.5 37.5t-40.5 106.5q0 23 5.5 54.5
t16.5 82.5l35 -62l-60 11q-88 -230 -283 -230zM547 752q95 0 167 93t100 253l19 108q-20 63 -61 97.5t-108 34.5q-74 0 -126 -37.5t-84 -97t-47 -127t-15 -128.5q0 -97 41 -146.5t114 -49.5z" />
    <glyph glyph-name="guillemotleft" unicode="&#xab;" 
d="M927 29l-390 503l537 503l80 -87l-431 -416l295 -431zM500 29l-418 503l509 503l83 -84l-406 -419l323 -431z" />
    <glyph glyph-name="logicalnot" unicode="&#xac;" 
d="M820 163l77 434l37 -44h-765l26 146h872l-95 -536h-152z" />
    <glyph glyph-name="registered" unicode="&#xae;" 
d="M320.5 54q-132.5 84 -205.5 238t-73 362v124q0 209 73 362.5t205.5 237.5t313.5 84t313.5 -84t205.5 -237.5t73 -362.5v-124q0 -208 -73 -362t-205.5 -238t-313.5 -84t-313.5 84zM799 305l-197 368h142l205 -362v-6h-150zM995.5 217.5q130.5 157.5 130.5 435.5v126
q0 278 -130.5 435.5t-361.5 157.5t-361.5 -157.5t-130.5 -435.5v-126q0 -278 130.5 -435.5t361.5 -157.5t361.5 157.5zM376 305v830h265q129 0 204.5 -68t75.5 -184v-12q0 -112 -77.5 -181t-203.5 -69h-187v112h186q74 0 115 35.5t41 97.5v16q0 62 -41 97.5t-115 35.5h-139
v-710h-124z" />
    <glyph glyph-name="macron" unicode="&#xaf;" 
d="M430 1348l25 138h630l-25 -138h-630z" />
    <glyph glyph-name="degree" unicode="&#xb0;" 
d="M497.5 866q-73.5 42 -116 114t-42.5 163t42.5 163t116 114t166 42t165.5 -42t115.5 -114t42.5 -163t-42.5 -163t-115.5 -114t-165.5 -42t-166 42zM795.5 1007q51.5 53 51.5 136t-51.5 136t-132.5 53t-132.5 -53t-51.5 -136t51.5 -136t132.5 -53t132.5 53z" />
    <glyph glyph-name="plusminus" unicode="&#xb1;" 
d="M72 0l25 142h872l-25 -142h-872zM167 604l23 130h894l-23 -130h-894zM483 248l148 842h138l-148 -842h-138z" />
    <glyph glyph-name="uni00B2" unicode="&#xb2;" 
d="M287 700l23 130l421 368q94 82 129.5 133t35.5 110q0 58 -35 92.5t-97 34.5q-67 0 -119 -40.5t-96 -124.5l-130 71q57 110 151 171t203 61q124 0 198.5 -70t74.5 -187q0 -86 -48 -159t-171 -180l-312 -269v-5h458l-24 -136h-662z" />
    <glyph glyph-name="uni00B3" unicode="&#xb3;" 
d="M666 696q-142 0 -238.5 74.5t-120.5 200.5l145 30q15 -77 73 -122t143 -45q86 0 136.5 44t50.5 117q0 151 -182 151h-99l24 132h127q91 0 139.5 43t48.5 117q0 61 -40 95.5t-109 34.5q-137 0 -206 -147l-133 65q49 103 142 161.5t208 58.5q131 0 208.5 -70t77.5 -184
q0 -95 -56 -156t-157 -84l-2 -10q76 -23 116.5 -79t40.5 -134q0 -85 -43.5 -151t-119.5 -104t-174 -38z" />
    <glyph glyph-name="acute" unicode="&#xb4;" 
d="M550 1251l2 10l226 344h190l-2 -10l-266 -344h-150z" />
    <glyph glyph-name="uni00B5" unicode="&#xb5;" 
d="M-8 -436l260 1481h145l-107 -609q-10 -59 -14 -94t-4 -68q0 -79 45 -125.5t125 -46.5q122 0 213 127.5t132 360.5l80 455h144l-99 -561q-17 -97 -24 -153t-7 -97q0 -102 105 -102h63l-22 -128q-41 -14 -85 -14q-82 0 -126 46.5t-44 132.5q0 26 6 65t20 105l51 -74l-74 15
q-66 -156 -150.5 -233t-210.5 -77q-106 0 -173 62t-81 183l73 21l-95 -672h-146z" />
    <glyph glyph-name="paragraph" unicode="&#xb6;" 
d="M467 -415l190 1084l37 -44h-100q-126 0 -218.5 45.5t-143.5 128.5t-51 195q0 101 34 182t98.5 138t155.5 87.5t204 30.5h254l-324 -1847h-136zM759 -415l324 1847h136l-324 -1847h-136z" />
    <glyph glyph-name="periodcentered" unicode="&#xb7;" 
d="M644 626q-64 0 -107 43t-43 107q0 62 44 105t106 43q64 0 107 -43t43 -105q0 -64 -43 -107t-107 -43z" />
    <glyph glyph-name="cedilla" unicode="&#xb8;" 
d="M434 -600q-87 0 -161 39t-118 109l107 74q66 -108 174 -108q71 0 111.5 38t40.5 105q0 56 -29.5 85t-84.5 29q-64 0 -115 -45l-74 73l169 213h112l-170 -210l-56 1q44 36 87 53t92 17q90 0 143.5 -57t53.5 -155q0 -76 -36.5 -135t-100 -92.5t-145.5 -33.5z" />
    <glyph glyph-name="uni00B9" unicode="&#xb9;" 
d="M582 764l133 756l-254 -97l-50 125l394 154h90l-165 -938h-148zM317 700l25 142h659l-25 -142h-659z" />
    <glyph glyph-name="ordmasculine" unicode="&#xba;" 
d="M566 628q-100 0 -176 42t-118.5 120t-42.5 185q0 89 27 175t80.5 157t132.5 113t184 42q153 0 239.5 -92t86.5 -254q0 -89 -24.5 -175.5t-75 -157.5t-128.5 -113t-185 -42zM576 762q68 0 117 34t80 87.5t45.5 115t14.5 115.5q0 104 -48.5 159t-141.5 55
q-72 0 -122.5 -33.5t-83 -87t-47.5 -114.5t-15 -116q0 -103 53.5 -159t147.5 -56z" />
    <glyph glyph-name="guillemotright" unicode="&#xbb;" 
d="M277 1035l390 -503l-537 -503l-80 87l431 416l-295 431zM704 1035l418 -503l-509 -503l-83 84l406 419l-323 431z" />
    <glyph glyph-name="onequarter" unicode="&#xbc;" 
d="M-5 -30l1182 1490h146l-1182 -1490h-146zM310 750l95 540l-220 -85l-43 123l353 132h78l-125 -710h-138zM835 -30l35 201l11 20l66 371l22 -34h-38l-269 -288v-10h263l26 10h169l-20 -116h-602l20 113l420 449h140l-85 -482v-28l-36 -206h-122z" />
    <glyph glyph-name="onehalf" unicode="&#xbd;" 
d="M-44 -30l1162 1490h146l-1162 -1490h-146zM543 -30l24 136l315 221q68 48 94 80.5t26 72.5q0 78 -87 78q-123 0 -158 -148l-134 32q27 113 109 179.5t192 66.5q100 0 159 -55t59 -147q0 -73 -40.5 -130t-147.5 -128l-180 -120v-10h331l-22 -128h-540zM310 750l95 540
l-220 -85l-43 123l353 132h78l-125 -710h-138z" />
    <glyph glyph-name="threequarters" unicode="&#xbe;" 
d="M-5 -30l1182 1490h146l-1182 -1490h-146zM835 -30l35 201l11 20l66 371l22 -34h-38l-269 -288v-10h263l26 10h169l-20 -116h-602l20 113l420 449h140l-85 -482v-28l-36 -206h-122zM343 732q-105 0 -176 54.5t-85 146.5l126 23q17 -106 135 -106q56 0 86.5 29t30.5 78
q0 43 -24.5 67t-82.5 24h-98l19 110h102q58 0 90.5 27t32.5 73q0 85 -94 85q-91 0 -122 -82l-120 45q27 71 93.5 112.5t153.5 41.5q99 0 158 -50t59 -134q0 -65 -37 -110t-105 -63l-1 -7q104 -43 104 -157q0 -88 -70.5 -147.5t-174.5 -59.5z" />
    <glyph glyph-name="questiondown" unicode="&#xbf;" 
d="M705 764l-46 -261l-222 -110q-118 -58 -175 -126.5t-57 -153.5q0 -97 60.5 -151t167.5 -54q127 0 229 68.5t160 192.5l129 -64q-75 -159 -210.5 -247t-304.5 -88q-172 0 -275.5 92.5t-103.5 246.5q0 131 75.5 226.5t244.5 179.5l149 74l31 175h148zM667 1262
q65 0 109 -42.5t44 -107.5q0 -64 -44 -107t-109 -43t-109 43t-44 107q0 65 44 107.5t109 42.5z" />
    <glyph glyph-name="Agrave" unicode="&#xc0;" 
d="M-20 0l695 1432h169l192 -1432h-152l-136 1122l-15 137h-6l-62 -137l-527 -1122h-158zM243 400l69 142h584l19 -142h-672zM726 1638l-146 344l2 10h170l106 -344l-2 -10h-130z" />
    <glyph glyph-name="Aacute" unicode="&#xc1;" 
d="M-20 0l695 1432h169l192 -1432h-152l-136 1122l-15 137h-6l-62 -137l-527 -1122h-158zM243 400l69 142h584l19 -142h-672zM716 1638l2 10l226 344h190l-2 -10l-266 -344h-150z" />
    <glyph glyph-name="Acircumflex" unicode="&#xc2;" 
d="M-20 0l695 1432h169l192 -1432h-152l-136 1122l-15 137h-6l-62 -137l-527 -1122h-158zM243 400l69 142h584l19 -142h-672zM441 1638l2 10l326 344h160l206 -344l-2 -10h-152l-154 275h36l-250 -275h-172z" />
    <glyph glyph-name="Atilde" unicode="&#xc3;" 
d="M-20 0l695 1432h169l192 -1432h-152l-136 1122l-15 137h-6l-62 -137l-527 -1122h-158zM243 400l69 142h584l19 -142h-672zM967 1651q-60 0 -104 26.5t-91 102.5q-32 51 -52.5 67.5t-48.5 16.5q-35 0 -55 -27t-30 -84l-17 -97h-130l17 97q20 114 72 177.5t141 63.5
q60 0 104.5 -26.5t90.5 -102.5q32 -51 52.5 -67.5t48.5 -16.5q35 0 55 27t30 84l17 97h130l-17 -97q-20 -114 -72 -177.5t-141 -63.5z" />
    <glyph glyph-name="Adieresis" unicode="&#xc4;" 
d="M-20 0l695 1432h169l192 -1432h-152l-136 1122l-15 137h-6l-62 -137l-527 -1122h-158zM243 400l69 142h584l19 -142h-672zM609 1676q-55 0 -93 38.5t-38 93.5q0 54 38.5 92t92.5 38q56 0 94.5 -37.5t38.5 -92.5t-38.5 -93.5t-94.5 -38.5zM1009 1676q-55 0 -93 38.5
t-38 93.5q0 54 38.5 92t92.5 38q56 0 94.5 -37.5t38.5 -92.5t-38.5 -93.5t-94.5 -38.5z" />
    <glyph glyph-name="Aring" unicode="&#xc5;" 
d="M-20 0l695 1432h169l192 -1432h-152l-136 1122l-15 137h-6l-62 -137l-527 -1122h-158zM243 400l69 142h584l19 -142h-672zM677 1584.5q-62 34.5 -98 95t-36 136.5q0 77 36 137t98 94.5t140.5 34.5t140 -34.5t97.5 -94.5t36 -137q0 -76 -36 -136.5t-97.5 -95t-140 -34.5
t-140.5 34.5zM917.5 1714.5q39.5 40.5 39.5 102t-39.5 101.5t-100.5 40t-100.5 -40t-39.5 -101.5t39.5 -102t100.5 -40.5t100.5 40.5z" />
    <glyph glyph-name="AE" unicode="&#xc6;" 
d="M-82 0l788 1432h211l-97 -152h-77l-96 -208l-574 -1072h-155zM236 395l49 142h386l-25 -142h-410zM526 0l252 1432h546l-24 -136h-404l-204 -1160h420l-24 -136h-562zM724 667l24 136h395l-24 -136h-395z" />
    <glyph glyph-name="Ccedilla" unicode="&#xc7;" 
d="M606 -30q-144 0 -249.5 71.5t-163 202.5t-57.5 309q0 200 47 366t133 288t203.5 188.5t258.5 66.5q163 0 270 -90t153 -265l-144 -40q-35 133 -103.5 194t-184.5 61q-141 0 -250.5 -99.5t-172 -273.5t-62.5 -398q0 -217 83.5 -329t244.5 -112q114 0 194.5 61t141.5 193
l128 -70q-161 -324 -470 -324zM505 -600q-87 0 -161 39t-118 109l107 74q66 -108 174 -108q71 0 111.5 38t40.5 105q0 56 -29.5 85t-84.5 29q-64 0 -115 -45l-74 73l169 213h112l-170 -210l-56 1q44 36 87 53t92 17q90 0 143.5 -57t53.5 -155q0 -76 -36.5 -135t-100 -92.5
t-145.5 -33.5z" />
    <glyph glyph-name="Egrave" unicode="&#xc8;" 
d="M104 0l252 1432h784l-24 -136h-638l-204 -1160h654l-24 -136h-800zM302 667l24 136h623l-24 -136h-623zM724 1638l-146 344l2 10h170l106 -344l-2 -10h-130z" />
    <glyph glyph-name="Eacute" unicode="&#xc9;" 
d="M104 0l252 1432h784l-24 -136h-638l-204 -1160h654l-24 -136h-800zM302 667l24 136h623l-24 -136h-623zM714 1638l2 10l226 344h190l-2 -10l-266 -344h-150z" />
    <glyph glyph-name="Ecircumflex" unicode="&#xca;" 
d="M104 0l252 1432h784l-24 -136h-638l-204 -1160h654l-24 -136h-800zM302 667l24 136h623l-24 -136h-623zM439 1638l2 10l326 344h160l206 -344l-2 -10h-152l-154 275h36l-250 -275h-172z" />
    <glyph glyph-name="Edieresis" unicode="&#xcb;" 
d="M104 0l252 1432h784l-24 -136h-638l-204 -1160h654l-24 -136h-800zM302 667l24 136h623l-24 -136h-623zM607 1676q-55 0 -93 38.5t-38 93.5q0 54 38.5 92t92.5 38q56 0 94.5 -37.5t38.5 -92.5t-38.5 -93.5t-94.5 -38.5zM1007 1676q-55 0 -93 38.5t-38 93.5q0 54 38.5 92
t92.5 38q56 0 94.5 -37.5t38.5 -92.5t-38.5 -93.5t-94.5 -38.5z" />
    <glyph glyph-name="Igrave" unicode="&#xcc;" 
d="M447 75l226 1282h148l-226 -1282h-148zM98 0l24 138h820l-24 -138h-820zM326 1294l24 138h820l-24 -138h-820zM736 1638l-146 344l2 10h170l106 -344l-2 -10h-130z" />
    <glyph glyph-name="Iacute" unicode="&#xcd;" 
d="M447 75l226 1282h148l-226 -1282h-148zM98 0l24 138h820l-24 -138h-820zM326 1294l24 138h820l-24 -138h-820zM726 1638l2 10l226 344h190l-2 -10l-266 -344h-150z" />
    <glyph glyph-name="Icircumflex" unicode="&#xce;" 
d="M447 75l226 1282h148l-226 -1282h-148zM98 0l24 138h820l-24 -138h-820zM326 1294l24 138h820l-24 -138h-820zM451 1638l2 10l326 344h160l206 -344l-2 -10h-152l-154 275h36l-250 -275h-172z" />
    <glyph glyph-name="Idieresis" unicode="&#xcf;" 
d="M447 75l226 1282h148l-226 -1282h-148zM98 0l24 138h820l-24 -138h-820zM326 1294l24 138h820l-24 -138h-820zM619 1676q-55 0 -93 38.5t-38 93.5q0 54 38.5 92t92.5 38q56 0 94.5 -37.5t38.5 -92.5t-38.5 -93.5t-94.5 -38.5zM1019 1676q-55 0 -93 38.5t-38 93.5
q0 54 38.5 92t92.5 38q56 0 94.5 -37.5t38.5 -92.5t-38.5 -93.5t-94.5 -38.5z" />
    <glyph glyph-name="Eth" unicode="&#xd0;" 
d="M108 0l252 1432h293q239 0 366 -149.5t127 -426.5q0 -266 -81.5 -458t-233 -295t-361.5 -103h-362zM46 668l24 136h666l-24 -136h-666zM276 138h196q250 0 388 189t138 525q0 231 -87 336.5t-277 105.5h-154z" />
    <glyph glyph-name="Ntilde" unicode="&#xd1;" 
d="M28 0l252 1432h150l467 -1156h4l46 332l145 824h148l-252 -1432h-122l-487 1202h-4l-46 -332l-153 -870h-148zM939 1651q-60 0 -104 26.5t-91 102.5q-32 51 -52.5 67.5t-48.5 16.5q-35 0 -55 -27t-30 -84l-17 -97h-130l17 97q20 114 72 177.5t141 63.5q60 0 104.5 -26.5
t90.5 -102.5q32 -51 52.5 -67.5t48.5 -16.5q35 0 55 27t30 84l17 97h130l-17 -97q-20 -114 -72 -177.5t-141 -63.5z" />
    <glyph glyph-name="Ograve" unicode="&#xd2;" 
d="M554 -30q-140 0 -241 65.5t-155 184.5t-54 281q0 146 26 286t77 262t127 215t176.5 145.5t224.5 52.5q203 0 313.5 -141.5t110.5 -389.5q0 -154 -23.5 -296t-71 -263t-120 -211.5t-170 -140.5t-220.5 -50zM558 110q101 0 177 48t128.5 130.5t85 187t47.5 220t15 227.5
q0 197 -68.5 298t-211.5 101q-103 0 -181.5 -49.5t-135 -134t-92.5 -190.5t-53 -219.5t-17 -219.5q0 -196 77.5 -297.5t228.5 -101.5zM716 1638l-146 344l2 10h170l106 -344l-2 -10h-130z" />
    <glyph glyph-name="Oacute" unicode="&#xd3;" 
d="M554 -30q-140 0 -241 65.5t-155 184.5t-54 281q0 146 26 286t77 262t127 215t176.5 145.5t224.5 52.5q203 0 313.5 -141.5t110.5 -389.5q0 -154 -23.5 -296t-71 -263t-120 -211.5t-170 -140.5t-220.5 -50zM558 110q101 0 177 48t128.5 130.5t85 187t47.5 220t15 227.5
q0 197 -68.5 298t-211.5 101q-103 0 -181.5 -49.5t-135 -134t-92.5 -190.5t-53 -219.5t-17 -219.5q0 -196 77.5 -297.5t228.5 -101.5zM706 1638l2 10l226 344h190l-2 -10l-266 -344h-150z" />
    <glyph glyph-name="Ocircumflex" unicode="&#xd4;" 
d="M554 -30q-140 0 -241 65.5t-155 184.5t-54 281q0 146 26 286t77 262t127 215t176.5 145.5t224.5 52.5q203 0 313.5 -141.5t110.5 -389.5q0 -154 -23.5 -296t-71 -263t-120 -211.5t-170 -140.5t-220.5 -50zM558 110q101 0 177 48t128.5 130.5t85 187t47.5 220t15 227.5
q0 197 -68.5 298t-211.5 101q-103 0 -181.5 -49.5t-135 -134t-92.5 -190.5t-53 -219.5t-17 -219.5q0 -196 77.5 -297.5t228.5 -101.5zM431 1638l2 10l326 344h160l206 -344l-2 -10h-152l-154 275h36l-250 -275h-172z" />
    <glyph glyph-name="Otilde" unicode="&#xd5;" 
d="M554 -30q-140 0 -241 65.5t-155 184.5t-54 281q0 146 26 286t77 262t127 215t176.5 145.5t224.5 52.5q203 0 313.5 -141.5t110.5 -389.5q0 -154 -23.5 -296t-71 -263t-120 -211.5t-170 -140.5t-220.5 -50zM558 110q101 0 177 48t128.5 130.5t85 187t47.5 220t15 227.5
q0 197 -68.5 298t-211.5 101q-103 0 -181.5 -49.5t-135 -134t-92.5 -190.5t-53 -219.5t-17 -219.5q0 -196 77.5 -297.5t228.5 -101.5zM957 1651q-60 0 -104 26.5t-91 102.5q-32 51 -52.5 67.5t-48.5 16.5q-35 0 -55 -27t-30 -84l-17 -97h-130l17 97q20 114 72 177.5
t141 63.5q60 0 104.5 -26.5t90.5 -102.5q32 -51 52.5 -67.5t48.5 -16.5q35 0 55 27t30 84l17 97h130l-17 -97q-20 -114 -72 -177.5t-141 -63.5z" />
    <glyph glyph-name="Odieresis" unicode="&#xd6;" 
d="M554 -30q-140 0 -241 65.5t-155 184.5t-54 281q0 146 26 286t77 262t127 215t176.5 145.5t224.5 52.5q203 0 313.5 -141.5t110.5 -389.5q0 -154 -23.5 -296t-71 -263t-120 -211.5t-170 -140.5t-220.5 -50zM558 110q101 0 177 48t128.5 130.5t85 187t47.5 220t15 227.5
q0 197 -68.5 298t-211.5 101q-103 0 -181.5 -49.5t-135 -134t-92.5 -190.5t-53 -219.5t-17 -219.5q0 -196 77.5 -297.5t228.5 -101.5zM599 1676q-55 0 -93 38.5t-38 93.5q0 54 38.5 92t92.5 38q56 0 94.5 -37.5t38.5 -92.5t-38.5 -93.5t-94.5 -38.5zM999 1676
q-55 0 -93 38.5t-38 93.5q0 54 38.5 92t92.5 38q56 0 94.5 -37.5t38.5 -92.5t-38.5 -93.5t-94.5 -38.5z" />
    <glyph glyph-name="multiply" unicode="&#xd7;" 
d="M237 199l-83 99l845 749l83 -99zM877 199l-619 765l101 83l619 -765z" />
    <glyph glyph-name="Oslash" unicode="&#xd8;" 
d="M54 -168l-100 74l1260 1694l100 -74zM558 -30q-137 0 -239 67.5t-158.5 187t-56.5 276.5q0 146 26 286t77 262t126.5 215t175 145.5t222.5 52.5q132 0 228 -66t148 -185.5t52 -279.5q0 -154 -23.5 -296t-71 -263t-119 -211.5t-168.5 -140.5t-219 -50zM558 104
q126 0 214.5 74t143 195t80 265.5t25.5 284.5q0 197 -67 301t-223 104q-102 0 -181.5 -50.5t-137.5 -135.5t-95.5 -192t-56 -221t-18.5 -220q0 -203 72 -304t244 -101z" />
    <glyph glyph-name="Ugrave" unicode="&#xd9;" 
d="M555 -30q-119 0 -213 50.5t-148 142t-54 213.5q0 26 2.5 52t6.5 53l167 951h146l-168 -955q-4 -22 -6 -45t-2 -44q0 -135 74.5 -206.5t198.5 -71.5t209.5 83.5t111.5 232.5l178 1006h146l-181 -1029q-34 -197 -159 -315t-309 -118zM726 1638l-146 344l2 10h170l106 -344
l-2 -10h-130z" />
    <glyph glyph-name="Uacute" unicode="&#xda;" 
d="M555 -30q-119 0 -213 50.5t-148 142t-54 213.5q0 26 2.5 52t6.5 53l167 951h146l-168 -955q-4 -22 -6 -45t-2 -44q0 -135 74.5 -206.5t198.5 -71.5t209.5 83.5t111.5 232.5l178 1006h146l-181 -1029q-34 -197 -159 -315t-309 -118zM716 1638l2 10l226 344h190l-2 -10
l-266 -344h-150z" />
    <glyph glyph-name="Ucircumflex" unicode="&#xdb;" 
d="M555 -30q-119 0 -213 50.5t-148 142t-54 213.5q0 26 2.5 52t6.5 53l167 951h146l-168 -955q-4 -22 -6 -45t-2 -44q0 -135 74.5 -206.5t198.5 -71.5t209.5 83.5t111.5 232.5l178 1006h146l-181 -1029q-34 -197 -159 -315t-309 -118zM441 1638l2 10l326 344h160l206 -344
l-2 -10h-152l-154 275h36l-250 -275h-172z" />
    <glyph glyph-name="Udieresis" unicode="&#xdc;" 
d="M555 -30q-119 0 -213 50.5t-148 142t-54 213.5q0 26 2.5 52t6.5 53l167 951h146l-168 -955q-4 -22 -6 -45t-2 -44q0 -135 74.5 -206.5t198.5 -71.5t209.5 83.5t111.5 232.5l178 1006h146l-181 -1029q-34 -197 -159 -315t-309 -118zM609 1676q-55 0 -93 38.5t-38 93.5
q0 54 38.5 92t92.5 38q56 0 94.5 -37.5t38.5 -92.5t-38.5 -93.5t-94.5 -38.5zM1009 1676q-55 0 -93 38.5t-38 93.5q0 54 38.5 92t92.5 38q56 0 94.5 -37.5t38.5 -92.5t-38.5 -93.5t-94.5 -38.5z" />
    <glyph glyph-name="Yacute" unicode="&#xdd;" 
d="M536 552l-298 880h158l167 -506l61 -214h6l136 214l342 506h174l-608 -880h-138zM435 0l107 611h146l-107 -611h-146zM689 1638l2 10l226 344h190l-2 -10l-266 -344h-150z" />
    <glyph glyph-name="Thorn" unicode="&#xde;" 
d="M222 340l24 136h343q125 0 202 51t112.5 128t35.5 156q0 116 -63.5 175.5t-209.5 59.5h-320l24 136h300q134 0 227 -44t141.5 -125.5t48.5 -193.5q0 -94 -31 -180t-92.5 -153.5t-154.5 -106.5t-218 -39h-369zM82 0l252 1432h144l-252 -1432h-144z" />
    <glyph glyph-name="germandbls" unicode="&#xdf;" 
d="M736 -30q-129 0 -220 63t-123 175l135 51q27 -76 81 -114.5t133 -38.5q84 0 138 49.5t54 125.5q0 68 -32.5 120t-105.5 101l-74 50q-60 41 -90 91t-30 111q0 73 30 121t75 83t89.5 68t74.5 74t30 103q0 73 -49.5 113.5t-138.5 40.5q-117 0 -191 -67.5t-97 -192.5
l-194 -1097h-143l196 1114q32 180 146 278.5t291 98.5q149 0 238.5 -77.5t89.5 -206.5q0 -77 -30 -130t-74.5 -91t-89.5 -69t-75 -64t-30 -77q0 -36 20.5 -63.5t72.5 -62.5l74 -50q83 -56 124 -134t41 -177q0 -92 -45 -164.5t-123 -113.5t-178 -41z" />
    <glyph glyph-name="agrave" unicode="&#xe0;" 
d="M440 -30q-160 0 -254.5 115.5t-94.5 311.5q0 192 64.5 345.5t175 243t247.5 89.5q98 0 166.5 -47t114.5 -147h75l-76 -64l43 245h144l-102 -578q-17 -97 -24 -153t-7 -97q0 -102 105 -102h64l-22 -128q-20 -7 -41 -10.5t-45 -3.5q-82 0 -126 46.5t-44 132.5q0 26 6.5 66
t19.5 104l51 -74l-74 15q-55 -151 -149 -230.5t-217 -79.5zM453 102q128 0 224.5 122t133.5 330l30 170q-32 114 -90.5 166.5t-152.5 52.5q-102 0 -184 -72t-130.5 -195t-48.5 -276q0 -142 57 -220t161 -78zM610 1251l-146 344l2 10h170l106 -344l-2 -10h-130z" />
    <glyph glyph-name="aacute" unicode="&#xe1;" 
d="M440 -30q-160 0 -254.5 115.5t-94.5 311.5q0 192 64.5 345.5t175 243t247.5 89.5q98 0 166.5 -47t114.5 -147h75l-76 -64l43 245h144l-102 -578q-17 -97 -24 -153t-7 -97q0 -102 105 -102h64l-22 -128q-20 -7 -41 -10.5t-45 -3.5q-82 0 -126 46.5t-44 132.5q0 26 6.5 66
t19.5 104l51 -74l-74 15q-55 -151 -149 -230.5t-217 -79.5zM453 102q128 0 224.5 122t133.5 330l30 170q-32 114 -90.5 166.5t-152.5 52.5q-102 0 -184 -72t-130.5 -195t-48.5 -276q0 -142 57 -220t161 -78zM600 1251l2 10l226 344h190l-2 -10l-266 -344h-150z" />
    <glyph glyph-name="acircumflex" unicode="&#xe2;" 
d="M440 -30q-160 0 -254.5 115.5t-94.5 311.5q0 192 64.5 345.5t175 243t247.5 89.5q98 0 166.5 -47t114.5 -147h75l-76 -64l43 245h144l-102 -578q-17 -97 -24 -153t-7 -97q0 -102 105 -102h64l-22 -128q-20 -7 -41 -10.5t-45 -3.5q-82 0 -126 46.5t-44 132.5q0 26 6.5 66
t19.5 104l51 -74l-74 15q-55 -151 -149 -230.5t-217 -79.5zM453 102q128 0 224.5 122t133.5 330l30 170q-32 114 -90.5 166.5t-152.5 52.5q-102 0 -184 -72t-130.5 -195t-48.5 -276q0 -142 57 -220t161 -78zM325 1251l2 10l326 344h160l206 -344l-2 -10h-152l-154 275h36
l-250 -275h-172z" />
    <glyph glyph-name="atilde" unicode="&#xe3;" 
d="M440 -30q-160 0 -254.5 115.5t-94.5 311.5q0 192 64.5 345.5t175 243t247.5 89.5q98 0 166.5 -47t114.5 -147h75l-76 -64l43 245h144l-102 -578q-17 -97 -24 -153t-7 -97q0 -102 105 -102h64l-22 -128q-20 -7 -41 -10.5t-45 -3.5q-82 0 -126 46.5t-44 132.5q0 26 6.5 66
t19.5 104l51 -74l-74 15q-55 -151 -149 -230.5t-217 -79.5zM453 102q128 0 224.5 122t133.5 330l30 170q-32 114 -90.5 166.5t-152.5 52.5q-102 0 -184 -72t-130.5 -195t-48.5 -276q0 -142 57 -220t161 -78zM851 1264q-60 0 -104 26.5t-91 102.5q-32 51 -52.5 67.5
t-48.5 16.5q-35 0 -55 -27t-30 -84l-17 -97h-130l17 97q20 114 72 177.5t141 63.5q60 0 104.5 -26.5t90.5 -102.5q32 -51 52.5 -67.5t48.5 -16.5q35 0 55 27t30 84l17 97h130l-17 -97q-20 -114 -72 -177.5t-141 -63.5z" />
    <glyph glyph-name="adieresis" unicode="&#xe4;" 
d="M440 -30q-160 0 -254.5 115.5t-94.5 311.5q0 192 64.5 345.5t175 243t247.5 89.5q98 0 166.5 -47t114.5 -147h75l-76 -64l43 245h144l-102 -578q-17 -97 -24 -153t-7 -97q0 -102 105 -102h64l-22 -128q-20 -7 -41 -10.5t-45 -3.5q-82 0 -126 46.5t-44 132.5q0 26 6.5 66
t19.5 104l51 -74l-74 15q-55 -151 -149 -230.5t-217 -79.5zM453 102q128 0 224.5 122t133.5 330l30 170q-32 114 -90.5 166.5t-152.5 52.5q-102 0 -184 -72t-130.5 -195t-48.5 -276q0 -142 57 -220t161 -78zM493 1289q-55 0 -93 38.5t-38 93.5q0 54 38.5 92t92.5 38
q56 0 94.5 -37.5t38.5 -92.5t-38.5 -93.5t-94.5 -38.5zM893 1289q-55 0 -93 38.5t-38 93.5q0 54 38.5 92t92.5 38q56 0 94.5 -37.5t38.5 -92.5t-38.5 -93.5t-94.5 -38.5z" />
    <glyph glyph-name="aring" unicode="&#xe5;" 
d="M440 -30q-160 0 -254.5 115.5t-94.5 311.5q0 192 64.5 345.5t175 243t247.5 89.5q98 0 166.5 -47t114.5 -147h75l-76 -64l43 245h144l-102 -578q-17 -97 -24 -153t-7 -97q0 -102 105 -102h64l-22 -128q-20 -7 -41 -10.5t-45 -3.5q-82 0 -126 46.5t-44 132.5q0 26 6.5 66
t19.5 104l51 -74l-74 15q-55 -151 -149 -230.5t-217 -79.5zM453 102q128 0 224.5 122t133.5 330l30 170q-32 114 -90.5 166.5t-152.5 52.5q-102 0 -184 -72t-130.5 -195t-48.5 -276q0 -142 57 -220t161 -78zM561 1197.5q-62 34.5 -98 95t-36 136.5q0 77 36 137t98 94.5
t140.5 34.5t140 -34.5t97.5 -94.5t36 -137q0 -76 -36 -136.5t-97.5 -95t-140 -34.5t-140.5 34.5zM801.5 1327.5q39.5 40.5 39.5 102t-39.5 101.5t-100.5 40t-100.5 -40t-39.5 -101.5t39.5 -102t100.5 -40.5t100.5 40.5z" />
    <glyph glyph-name="ae" unicode="&#xe6;" 
d="M274 -30q-121 0 -197 83.5t-76 232.5q0 102 41.5 186t118 133.5t181.5 49.5q64 0 120 -17t98 -50l-22 -125q-43 35 -88 48.5t-98 13.5q-74 0 -121 -35.5t-68.5 -90t-21.5 -112.5q0 -85 41 -134t111 -49q85 0 138.5 82t84.5 259l45 254q5 24 6.5 45.5t1.5 40.5
q0 156 -142 156q-51 0 -99.5 -23t-93.5 -75l-97 92q125 140 293 140q120 0 186.5 -69.5t66.5 -206.5h-60q48 128 140 202t198 74q124 0 182.5 -71.5t58.5 -172.5q0 -202 -161.5 -302.5t-433.5 -100.5l-13 115q247 9 358 78.5t111 198.5q0 50 -26.5 85.5t-88.5 35.5
q-68 0 -119 -40.5t-86.5 -106t-57 -142.5t-31.5 -151.5t-10 -131.5q0 -124 43.5 -194.5t119.5 -70.5q53 0 103.5 34t96.5 116l108 -65q-70 -119 -150 -169t-169 -50q-81 0 -140 43t-89.5 112t-28.5 147l55 20q-37 -159 -121 -240.5t-198 -81.5z" />
    <glyph glyph-name="ccedilla" unicode="&#xe7;" 
d="M617 -30q-133 0 -233.5 59.5t-156 165.5t-55.5 244q0 182 71.5 326t196 227t282.5 83t254.5 -85.5t115.5 -239.5l-143 -20q-26 207 -231 207q-115 0 -205.5 -64.5t-142.5 -176t-52 -253.5q0 -155 80 -245t219 -90q89 0 160 33t147 109l92 -111q-86 -86 -183.5 -127.5
t-215.5 -41.5zM540 -600q-87 0 -161 39t-118 109l107 74q66 -108 174 -108q71 0 111.5 38t40.5 105q0 56 -29.5 85t-84.5 29q-64 0 -115 -45l-74 73l169 213h112l-170 -210l-56 1q44 36 87 53t92 17q90 0 143.5 -57t53.5 -155q0 -76 -36.5 -135t-100 -92.5t-145.5 -33.5z
" />
    <glyph glyph-name="egrave" unicode="&#xe8;" 
d="M589 -30q-133 0 -234 60t-157.5 166t-56.5 244q0 114 36 227t108 205t179.5 147.5t251.5 55.5q156 0 242.5 -81.5t86.5 -206.5q0 -130 -81.5 -210.5t-258.5 -117t-464 -36.5l-13 115q249 6 396.5 32.5t212 78.5t64.5 134q0 73 -47.5 114.5t-143.5 41.5
q-132 0 -227.5 -71.5t-146.5 -185t-51 -238.5q0 -154 83 -245t225 -91q86 0 154.5 34t138.5 110l98 -105q-86 -92 -181 -134.5t-214 -42.5zM679 1251l-146 344l2 10h170l106 -344l-2 -10h-130z" />
    <glyph glyph-name="eacute" unicode="&#xe9;" 
d="M589 -30q-133 0 -234 60t-157.5 166t-56.5 244q0 114 36 227t108 205t179.5 147.5t251.5 55.5q156 0 242.5 -81.5t86.5 -206.5q0 -130 -81.5 -210.5t-258.5 -117t-464 -36.5l-13 115q249 6 396.5 32.5t212 78.5t64.5 134q0 73 -47.5 114.5t-143.5 41.5
q-132 0 -227.5 -71.5t-146.5 -185t-51 -238.5q0 -154 83 -245t225 -91q86 0 154.5 34t138.5 110l98 -105q-86 -92 -181 -134.5t-214 -42.5zM669 1251l2 10l226 344h190l-2 -10l-266 -344h-150z" />
    <glyph glyph-name="ecircumflex" unicode="&#xea;" 
d="M589 -30q-133 0 -234 60t-157.5 166t-56.5 244q0 114 36 227t108 205t179.5 147.5t251.5 55.5q156 0 242.5 -81.5t86.5 -206.5q0 -130 -81.5 -210.5t-258.5 -117t-464 -36.5l-13 115q249 6 396.5 32.5t212 78.5t64.5 134q0 73 -47.5 114.5t-143.5 41.5
q-132 0 -227.5 -71.5t-146.5 -185t-51 -238.5q0 -154 83 -245t225 -91q86 0 154.5 34t138.5 110l98 -105q-86 -92 -181 -134.5t-214 -42.5zM394 1251l2 10l326 344h160l206 -344l-2 -10h-152l-154 275h36l-250 -275h-172z" />
    <glyph glyph-name="edieresis" unicode="&#xeb;" 
d="M589 -30q-133 0 -234 60t-157.5 166t-56.5 244q0 114 36 227t108 205t179.5 147.5t251.5 55.5q156 0 242.5 -81.5t86.5 -206.5q0 -130 -81.5 -210.5t-258.5 -117t-464 -36.5l-13 115q249 6 396.5 32.5t212 78.5t64.5 134q0 73 -47.5 114.5t-143.5 41.5
q-132 0 -227.5 -71.5t-146.5 -185t-51 -238.5q0 -154 83 -245t225 -91q86 0 154.5 34t138.5 110l98 -105q-86 -92 -181 -134.5t-214 -42.5zM562 1289q-55 0 -93 38.5t-38 93.5q0 54 38.5 92t92.5 38q56 0 94.5 -37.5t38.5 -92.5t-38.5 -93.5t-94.5 -38.5zM962 1289
q-55 0 -93 38.5t-38 93.5q0 54 38.5 92t92.5 38q56 0 94.5 -37.5t38.5 -92.5t-38.5 -93.5t-94.5 -38.5z" />
    <glyph glyph-name="igrave" unicode="&#xec;" 
d="M761 -30q-135 0 -215.5 79t-80.5 212q0 35 4 74t13 89l92 524l22 -25h-365l22 122h478l-111 -631q-10 -56 -13.5 -86.5t-3.5 -58.5q0 -78 42.5 -120.5t121.5 -42.5q101 0 188 78l79 -106q-120 -108 -273 -108zM621 1251l-146 344l2 10h170l106 -344l-2 -10h-130z" />
    <glyph glyph-name="iacute" unicode="&#xed;" 
d="M761 -30q-135 0 -215.5 79t-80.5 212q0 35 4 74t13 89l92 524l22 -25h-365l22 122h478l-111 -631q-10 -56 -13.5 -86.5t-3.5 -58.5q0 -78 42.5 -120.5t121.5 -42.5q101 0 188 78l79 -106q-120 -108 -273 -108zM611 1251l2 10l226 344h190l-2 -10l-266 -344h-150z" />
    <glyph glyph-name="icircumflex" unicode="&#xee;" 
d="M761 -30q-135 0 -215.5 79t-80.5 212q0 35 4 74t13 89l92 524l22 -25h-365l22 122h478l-111 -631q-10 -56 -13.5 -86.5t-3.5 -58.5q0 -78 42.5 -120.5t121.5 -42.5q101 0 188 78l79 -106q-120 -108 -273 -108zM336 1251l2 10l326 344h160l206 -344l-2 -10h-152l-154 275
h36l-250 -275h-172z" />
    <glyph glyph-name="idieresis" unicode="&#xef;" 
d="M761 -30q-135 0 -215.5 79t-80.5 212q0 35 4 74t13 89l92 524l22 -25h-365l22 122h478l-111 -631q-10 -56 -13.5 -86.5t-3.5 -58.5q0 -78 42.5 -120.5t121.5 -42.5q101 0 188 78l79 -106q-120 -108 -273 -108zM504 1289q-55 0 -93 38.5t-38 93.5q0 54 38.5 92t92.5 38
q56 0 94.5 -37.5t38.5 -92.5t-38.5 -93.5t-94.5 -38.5zM904 1289q-55 0 -93 38.5t-38 93.5q0 54 38.5 92t92.5 38q56 0 94.5 -37.5t38.5 -92.5t-38.5 -93.5t-94.5 -38.5z" />
    <glyph glyph-name="eth" unicode="&#xf0;" 
d="M562 -30q-128 0 -226.5 56t-154.5 159t-56 242q0 98 30 199.5t92.5 187.5t158 139t225.5 53q146 0 237 -79.5t110 -217.5l-59 106l35 7q-7 221 -95 390.5t-259 281.5l85 111q151 -113 241 -235.5t130.5 -275t40.5 -354.5q0 -160 -32.5 -300t-99 -245.5t-167 -165
t-236.5 -59.5zM566 106q97 0 165 42.5t110 110t61.5 145t19.5 147.5q0 118 -39 189.5t-103.5 103.5t-142.5 32q-100 0 -170 -41.5t-112.5 -108.5t-62 -144.5t-19.5 -150.5q0 -158 79.5 -241.5t213.5 -83.5zM458 1158l-28 114l399 96l62 -99zM914 1280l-62 99l340 88l28 -114
z" />
    <glyph glyph-name="ntilde" unicode="&#xf1;" 
d="M929 -10q-84 0 -134.5 48t-50.5 130q0 20 3.5 46t15.5 76l81 337q12 51 18.5 92.5t6.5 75.5q0 70 -40.5 109t-112.5 39q-90 0 -167.5 -50.5t-131.5 -141t-75 -209.5l-96 -542h-144l184 1045h143l-40 -226l-60 54h79q151 202 354 202q117 0 184.5 -72.5t67.5 -197.5
q0 -40 -5.5 -84.5t-19.5 -99.5l-78 -324q-8 -35 -12.5 -57t-4.5 -40q0 -78 89 -78h64l-20 -114q-46 -18 -98 -18zM906 1264q-60 0 -104 26.5t-91 102.5q-32 51 -52.5 67.5t-48.5 16.5q-35 0 -55 -27t-30 -84l-17 -97h-130l17 97q20 114 72 177.5t141 63.5q60 0 104.5 -26.5
t90.5 -102.5q32 -51 52.5 -67.5t48.5 -16.5q35 0 55 27t30 84l17 97h130l-17 -97q-20 -114 -72 -177.5t-141 -63.5z" />
    <glyph glyph-name="ograve" unicode="&#xf2;" 
d="M548 -30q-127 0 -222 56t-147.5 159t-52.5 243q0 113 33 227.5t99.5 209.5t167 152.5t235.5 57.5q129 0 221.5 -55t141.5 -157.5t49 -245.5q0 -113 -30.5 -227.5t-94 -209.5t-163 -152.5t-237.5 -57.5zM556 106q98 0 168 49t114.5 127t65.5 166t21 165q0 159 -68.5 242.5
t-203.5 83.5q-102 0 -174 -49t-117.5 -127t-66.5 -165.5t-21 -165.5q0 -156 75 -241t207 -85zM638 1251l-146 344l2 10h170l106 -344l-2 -10h-130z" />
    <glyph glyph-name="oacute" unicode="&#xf3;" 
d="M548 -30q-127 0 -222 56t-147.5 159t-52.5 243q0 113 33 227.5t99.5 209.5t167 152.5t235.5 57.5q129 0 221.5 -55t141.5 -157.5t49 -245.5q0 -113 -30.5 -227.5t-94 -209.5t-163 -152.5t-237.5 -57.5zM556 106q98 0 168 49t114.5 127t65.5 166t21 165q0 159 -68.5 242.5
t-203.5 83.5q-102 0 -174 -49t-117.5 -127t-66.5 -165.5t-21 -165.5q0 -156 75 -241t207 -85zM628 1251l2 10l226 344h190l-2 -10l-266 -344h-150z" />
    <glyph glyph-name="ocircumflex" unicode="&#xf4;" 
d="M548 -30q-127 0 -222 56t-147.5 159t-52.5 243q0 113 33 227.5t99.5 209.5t167 152.5t235.5 57.5q129 0 221.5 -55t141.5 -157.5t49 -245.5q0 -113 -30.5 -227.5t-94 -209.5t-163 -152.5t-237.5 -57.5zM556 106q98 0 168 49t114.5 127t65.5 166t21 165q0 159 -68.5 242.5
t-203.5 83.5q-102 0 -174 -49t-117.5 -127t-66.5 -165.5t-21 -165.5q0 -156 75 -241t207 -85zM353 1251l2 10l326 344h160l206 -344l-2 -10h-152l-154 275h36l-250 -275h-172z" />
    <glyph glyph-name="otilde" unicode="&#xf5;" 
d="M548 -30q-127 0 -222 56t-147.5 159t-52.5 243q0 113 33 227.5t99.5 209.5t167 152.5t235.5 57.5q129 0 221.5 -55t141.5 -157.5t49 -245.5q0 -113 -30.5 -227.5t-94 -209.5t-163 -152.5t-237.5 -57.5zM556 106q98 0 168 49t114.5 127t65.5 166t21 165q0 159 -68.5 242.5
t-203.5 83.5q-102 0 -174 -49t-117.5 -127t-66.5 -165.5t-21 -165.5q0 -156 75 -241t207 -85zM879 1264q-60 0 -104 26.5t-91 102.5q-32 51 -52.5 67.5t-48.5 16.5q-35 0 -55 -27t-30 -84l-17 -97h-130l17 97q20 114 72 177.5t141 63.5q60 0 104.5 -26.5t90.5 -102.5
q32 -51 52.5 -67.5t48.5 -16.5q35 0 55 27t30 84l17 97h130l-17 -97q-20 -114 -72 -177.5t-141 -63.5z" />
    <glyph glyph-name="odieresis" unicode="&#xf6;" 
d="M548 -30q-127 0 -222 56t-147.5 159t-52.5 243q0 113 33 227.5t99.5 209.5t167 152.5t235.5 57.5q129 0 221.5 -55t141.5 -157.5t49 -245.5q0 -113 -30.5 -227.5t-94 -209.5t-163 -152.5t-237.5 -57.5zM556 106q98 0 168 49t114.5 127t65.5 166t21 165q0 159 -68.5 242.5
t-203.5 83.5q-102 0 -174 -49t-117.5 -127t-66.5 -165.5t-21 -165.5q0 -156 75 -241t207 -85zM521 1289q-55 0 -93 38.5t-38 93.5q0 54 38.5 92t92.5 38q56 0 94.5 -37.5t38.5 -92.5t-38.5 -93.5t-94.5 -38.5zM921 1289q-55 0 -93 38.5t-38 93.5q0 54 38.5 92t92.5 38
q56 0 94.5 -37.5t38.5 -92.5t-38.5 -93.5t-94.5 -38.5z" />
    <glyph glyph-name="divide" unicode="&#xf7;" 
d="M169 553l26 146h872l-26 -146h-872zM596 912q-37 36 -37 88.5t37 88t88 35.5t88 -35.5t37 -88t-37 -88.5t-88 -36t-88 36zM464 164q-37 36 -37 88.5t37 88t88 35.5t88 -35.5t37 -88t-37 -88.5t-88 -36t-88 36z" />
    <glyph glyph-name="oslash" unicode="&#xf8;" 
d="M87 -168l-93 78l1119 1303l93 -78zM548 -30q-94 0 -173 34.5t-137 97t-90 146t-32 180.5q0 113 33.5 227.5t101.5 209.5t170.5 152.5t239.5 57.5q127 0 222 -59.5t147.5 -162.5t52.5 -236q0 -113 -31 -227.5t-95.5 -209.5t-166 -152.5t-242.5 -57.5zM556 98
q104 0 177.5 50t120.5 129t69 168.5t22 167.5q0 170 -70 252t-222 82q-107 0 -183 -50t-123.5 -129t-70 -168t-22.5 -168q0 -167 77 -250.5t225 -83.5z" />
    <glyph glyph-name="ugrave" unicode="&#xf9;" 
d="M467 -30q-121 0 -196 81.5t-75 213.5q0 34 4.5 76t15.5 103l89 502l11 -22h-219l21 121h350l-107 -609q-11 -63 -15 -101t-4 -74q0 -76 40.5 -117.5t115.5 -41.5q117 0 203 127.5t127 360.5l80 455h144l-99 -561q-17 -97 -24 -153t-7 -97q0 -102 105 -102h64l-22 -128
q-41 -14 -86 -14q-82 0 -126 46.5t-44 132.5q0 26 6 65t20 105l51 -74l-74 15q-61 -157 -147 -233.5t-202 -76.5zM624 1251l-146 344l2 10h170l106 -344l-2 -10h-130z" />
    <glyph glyph-name="uacute" unicode="&#xfa;" 
d="M467 -30q-121 0 -196 81.5t-75 213.5q0 34 4.5 76t15.5 103l89 502l11 -22h-219l21 121h350l-107 -609q-11 -63 -15 -101t-4 -74q0 -76 40.5 -117.5t115.5 -41.5q117 0 203 127.5t127 360.5l80 455h144l-99 -561q-17 -97 -24 -153t-7 -97q0 -102 105 -102h64l-22 -128
q-41 -14 -86 -14q-82 0 -126 46.5t-44 132.5q0 26 6 65t20 105l51 -74l-74 15q-61 -157 -147 -233.5t-202 -76.5zM614 1251l2 10l226 344h190l-2 -10l-266 -344h-150z" />
    <glyph glyph-name="ucircumflex" unicode="&#xfb;" 
d="M467 -30q-121 0 -196 81.5t-75 213.5q0 34 4.5 76t15.5 103l89 502l11 -22h-219l21 121h350l-107 -609q-11 -63 -15 -101t-4 -74q0 -76 40.5 -117.5t115.5 -41.5q117 0 203 127.5t127 360.5l80 455h144l-99 -561q-17 -97 -24 -153t-7 -97q0 -102 105 -102h64l-22 -128
q-41 -14 -86 -14q-82 0 -126 46.5t-44 132.5q0 26 6 65t20 105l51 -74l-74 15q-61 -157 -147 -233.5t-202 -76.5zM339 1251l2 10l326 344h160l206 -344l-2 -10h-152l-154 275h36l-250 -275h-172z" />
    <glyph glyph-name="udieresis" unicode="&#xfc;" 
d="M467 -30q-121 0 -196 81.5t-75 213.5q0 34 4.5 76t15.5 103l89 502l11 -22h-219l21 121h350l-107 -609q-11 -63 -15 -101t-4 -74q0 -76 40.5 -117.5t115.5 -41.5q117 0 203 127.5t127 360.5l80 455h144l-99 -561q-17 -97 -24 -153t-7 -97q0 -102 105 -102h64l-22 -128
q-41 -14 -86 -14q-82 0 -126 46.5t-44 132.5q0 26 6 65t20 105l51 -74l-74 15q-61 -157 -147 -233.5t-202 -76.5zM507 1289q-55 0 -93 38.5t-38 93.5q0 54 38.5 92t92.5 38q56 0 94.5 -37.5t38.5 -92.5t-38.5 -93.5t-94.5 -38.5zM907 1289q-55 0 -93 38.5t-38 93.5
q0 54 38.5 92t92.5 38q56 0 94.5 -37.5t38.5 -92.5t-38.5 -93.5t-94.5 -38.5z" />
    <glyph glyph-name="yacute" unicode="&#xfd;" 
d="M166 -440q-139 0 -240 107l93 99q35 -37 70 -54.5t77 -17.5q59 0 100.5 31.5t86.5 111.5l152 273h23l121 260l365 675h162l-696 -1253q-73 -130 -143.5 -181t-170.5 -51zM476 -114l-248 1159h146l138 -675l33 -208h12zM629 1251l2 10l226 344h190l-2 -10l-266 -344h-150z
" />
    <glyph glyph-name="thorn" unicode="&#xfe;" 
d="M18 -436l333 1896h141l-110 -624l-41 29h59q69 110 150 160t181 50q144 0 226.5 -108.5t82.5 -297.5q0 -203 -61 -361t-167 -248t-243 -90q-199 0 -306 175h-36l43 50l-111 -631h-141zM534 102q114 0 196 73.5t126 201t44 288.5q0 278 -204 278q-134 0 -236 -122.5
t-138 -329.5l-41 -233q39 -74 106 -115t147 -41z" />
    <glyph glyph-name="ydieresis" unicode="&#xff;" 
d="M166 -440q-139 0 -240 107l93 99q35 -37 70 -54.5t77 -17.5q59 0 100.5 31.5t86.5 111.5l152 273h23l121 260l365 675h162l-696 -1253q-73 -130 -143.5 -181t-170.5 -51zM476 -114l-248 1159h146l138 -675l33 -208h12zM522 1289q-55 0 -93 38.5t-38 93.5q0 54 38.5 92
t92.5 38q56 0 94.5 -37.5t38.5 -92.5t-38.5 -93.5t-94.5 -38.5zM922 1289q-55 0 -93 38.5t-38 93.5q0 54 38.5 92t92.5 38q56 0 94.5 -37.5t38.5 -92.5t-38.5 -93.5t-94.5 -38.5z" />
    <glyph glyph-name="Amacron" unicode="&#x100;" 
d="M-20 0l695 1432h169l192 -1432h-152l-136 1122l-15 137h-6l-62 -137l-527 -1122h-158zM243 400l69 142h584l19 -142h-672zM488 1735l25 138h630l-25 -138h-630z" />
    <glyph glyph-name="amacron" unicode="&#x101;" 
d="M440 -30q-160 0 -254.5 115.5t-94.5 311.5q0 192 64.5 345.5t175 243t247.5 89.5q98 0 166.5 -47t114.5 -147h75l-76 -64l43 245h144l-102 -578q-17 -97 -24 -153t-7 -97q0 -102 105 -102h64l-22 -128q-20 -7 -41 -10.5t-45 -3.5q-82 0 -126 46.5t-44 132.5q0 26 6.5 66
t19.5 104l51 -74l-74 15q-55 -151 -149 -230.5t-217 -79.5zM453 102q128 0 224.5 122t133.5 330l30 170q-32 114 -90.5 166.5t-152.5 52.5q-102 0 -184 -72t-130.5 -195t-48.5 -276q0 -142 57 -220t161 -78zM372 1348l25 138h630l-25 -138h-630z" />
    <glyph glyph-name="Abreve" unicode="&#x102;" 
d="M-20 0l695 1432h169l192 -1432h-152l-136 1122l-15 137h-6l-62 -137l-527 -1122h-158zM243 400l69 142h584l19 -142h-672zM807 1637q-90 0 -157.5 34t-105 96t-37.5 145q0 17 2 34.5t6 45.5h133q-4 -28 -5.5 -42.5t-1.5 -25.5q0 -73 43.5 -115t125.5 -42q93 0 150.5 47
t79.5 178h147q-19 -138 -74 -215t-134.5 -108.5t-171.5 -31.5z" />
    <glyph glyph-name="abreve" unicode="&#x103;" 
d="M440 -30q-160 0 -254.5 115.5t-94.5 311.5q0 192 64.5 345.5t175 243t247.5 89.5q98 0 166.5 -47t114.5 -147h75l-76 -64l43 245h144l-102 -578q-17 -97 -24 -153t-7 -97q0 -102 105 -102h64l-22 -128q-20 -7 -41 -10.5t-45 -3.5q-82 0 -126 46.5t-44 132.5q0 26 6.5 66
t19.5 104l51 -74l-74 15q-55 -151 -149 -230.5t-217 -79.5zM453 102q128 0 224.5 122t133.5 330l30 170q-32 114 -90.5 166.5t-152.5 52.5q-102 0 -184 -72t-130.5 -195t-48.5 -276q0 -142 57 -220t161 -78zM691 1250q-90 0 -157.5 34t-105 96t-37.5 145q0 17 2 34.5t6 45.5
h133q-4 -28 -5.5 -42.5t-1.5 -25.5q0 -73 43.5 -115t125.5 -42q93 0 150.5 47t79.5 178h147q-19 -138 -74 -215t-134.5 -108.5t-171.5 -31.5z" />
    <glyph glyph-name="Aogonek" unicode="&#x104;" 
d="M-20 0l695 1432h169l192 -1432h-152l-136 1122l-15 137h-6l-62 -137l-527 -1122h-158zM243 400l69 142h584l19 -142h-672zM838 -530q-106 0 -172.5 62t-66.5 158q0 125 99.5 218.5t307.5 169.5l31 -78q-157 -70 -228.5 -139.5t-71.5 -150.5q0 -54 34 -85t93 -31
q58 0 112 25l20 -111q-41 -19 -77.5 -28.5t-80.5 -9.5z" />
    <glyph glyph-name="aogonek" unicode="&#x105;" 
d="M440 -30q-160 0 -254.5 115.5t-94.5 311.5q0 192 64.5 345.5t175 243t247.5 89.5q98 0 166.5 -47t114.5 -147h75l-76 -64l43 245h144l-102 -578q-17 -97 -24 -153t-7 -97q0 -102 105 -102h64l-22 -128q-20 -7 -41 -10.5t-45 -3.5q-82 0 -126 46.5t-44 132.5q0 26 6.5 66
t19.5 104l51 -74l-74 15q-55 -151 -149 -230.5t-217 -79.5zM453 102q128 0 224.5 122t133.5 330l30 170q-32 114 -90.5 166.5t-152.5 52.5q-102 0 -184 -72t-130.5 -195t-48.5 -276q0 -142 57 -220t161 -78zM860 -526q-106 0 -172.5 62t-66.5 158q0 125 99.5 218.5
t307.5 169.5l31 -78q-157 -70 -228.5 -139.5t-71.5 -150.5q0 -54 34 -85t93 -31q58 0 112 25l20 -111q-41 -19 -77.5 -28.5t-80.5 -9.5z" />
    <glyph glyph-name="Cacute" unicode="&#x106;" 
d="M606 -30q-144 0 -249.5 71.5t-163 202.5t-57.5 309q0 200 47 366t133 288t203.5 188.5t258.5 66.5q163 0 270 -90t153 -265l-144 -40q-35 133 -103.5 194t-184.5 61q-141 0 -250.5 -99.5t-172 -273.5t-62.5 -398q0 -217 83.5 -329t244.5 -112q114 0 194.5 61t141.5 193
l128 -70q-161 -324 -470 -324zM741 1638l2 10l226 344h190l-2 -10l-266 -344h-150z" />
    <glyph glyph-name="cacute" unicode="&#x107;" 
d="M617 -30q-133 0 -233.5 59.5t-156 165.5t-55.5 244q0 182 71.5 326t196 227t282.5 83t254.5 -85.5t115.5 -239.5l-143 -20q-26 207 -231 207q-115 0 -205.5 -64.5t-142.5 -176t-52 -253.5q0 -155 80 -245t219 -90q89 0 160 33t147 109l92 -111q-86 -86 -183.5 -127.5
t-215.5 -41.5zM674 1251l2 10l226 344h190l-2 -10l-266 -344h-150z" />
    <glyph glyph-name="Cdotaccent" unicode="&#x10a;" 
d="M606 -30q-144 0 -249.5 71.5t-163 202.5t-57.5 309q0 200 47 366t133 288t203.5 188.5t258.5 66.5q163 0 270 -90t153 -265l-144 -40q-35 133 -103.5 194t-184.5 61q-141 0 -250.5 -99.5t-172 -273.5t-62.5 -398q0 -217 83.5 -329t244.5 -112q114 0 194.5 61t141.5 193
l128 -70q-161 -324 -470 -324zM853 1676q-60 0 -99.5 41t-39.5 99q0 59 39.5 98.5t99.5 39.5t100.5 -39.5t40.5 -98.5q0 -58 -40.5 -99t-100.5 -41z" />
    <glyph glyph-name="cdotaccent" unicode="&#x10b;" 
d="M617 -30q-133 0 -233.5 59.5t-156 165.5t-55.5 244q0 182 71.5 326t196 227t282.5 83t254.5 -85.5t115.5 -239.5l-143 -20q-26 207 -231 207q-115 0 -205.5 -64.5t-142.5 -176t-52 -253.5q0 -155 80 -245t219 -90q89 0 160 33t147 109l92 -111q-86 -86 -183.5 -127.5
t-215.5 -41.5zM796 1289q-60 0 -99.5 41t-39.5 99q0 59 39.5 98.5t99.5 39.5t100.5 -39.5t40.5 -98.5q0 -58 -40.5 -99t-100.5 -41z" />
    <glyph glyph-name="Ccaron" unicode="&#x10c;" 
d="M606 -30q-144 0 -249.5 71.5t-163 202.5t-57.5 309q0 200 47 366t133 288t203.5 188.5t258.5 66.5q163 0 270 -90t153 -265l-144 -40q-35 133 -103.5 194t-184.5 61q-141 0 -250.5 -99.5t-172 -273.5t-62.5 -398q0 -217 83.5 -329t244.5 -112q114 0 194.5 61t141.5 193
l128 -70q-161 -324 -470 -324zM731 1638l-206 344l2 10h152l148 -275h-24l244 275h172l-2 -10l-326 -344h-160z" />
    <glyph glyph-name="ccaron" unicode="&#x10d;" 
d="M617 -30q-133 0 -233.5 59.5t-156 165.5t-55.5 244q0 182 71.5 326t196 227t282.5 83t254.5 -85.5t115.5 -239.5l-143 -20q-26 207 -231 207q-115 0 -205.5 -64.5t-142.5 -176t-52 -253.5q0 -155 80 -245t219 -90q89 0 160 33t147 109l92 -111q-86 -86 -183.5 -127.5
t-215.5 -41.5zM664 1251l-206 344l2 10h152l148 -275h-24l244 275h172l-2 -10l-326 -344h-160z" />
    <glyph glyph-name="Dcaron" unicode="&#x10e;" 
d="M56 0l252 1432h322q239 0 366.5 -149.5t127.5 -426.5q0 -266 -81.5 -458t-233 -295t-362.5 -103h-391zM224 138h225q251 0 389 189t138 525q0 231 -87 336.5t-278 105.5h-183zM652 1638l-206 344l2 10h152l148 -275h-24l244 275h172l-2 -10l-326 -344h-160z" />
    <glyph glyph-name="dcaron" unicode="&#x10f;" 
d="M414 -30q-159 0 -252 118.5t-93 318.5q0 141 36.5 262.5t102.5 212.5t154 142t190 51q97 0 163.5 -47t112.5 -147h75l-76 -64l113 643h144l-172 -976q-17 -97 -24 -153t-7 -97q0 -102 105 -102h64l-22 -128q-20 -7 -41 -10.5t-45 -3.5q-82 0 -126 46.5t-44 132.5
q0 26 6.5 66t19.5 104l51 -74l-74 15q-54 -151 -146.5 -230.5t-214.5 -79.5zM427 102q127 0 221.5 122t131.5 330l30 170q-31 114 -88.5 166.5t-149.5 52.5q-76 0 -141 -41t-114 -113.5t-76.5 -169.5t-27.5 -209q0 -147 56 -227.5t158 -80.5zM1216 954l-82 60
q110 172 110 336q0 20 -2.5 42.5t-7.5 48.5l148 26q5 -24 7.5 -47.5t2.5 -47.5q0 -106 -42 -205.5t-134 -212.5z" />
    <glyph glyph-name="Dcroat" unicode="&#x110;" 
d="M108 0l252 1432h293q239 0 366 -149.5t127 -426.5q0 -266 -81.5 -458t-233 -295t-361.5 -103h-362zM46 668l24 136h666l-24 -136h-666zM276 138h196q250 0 388 189t138 525q0 231 -87 336.5t-277 105.5h-154z" />
    <glyph glyph-name="dcroat" unicode="&#x111;" 
d="M442 -30q-160 0 -255.5 114t-95.5 306q0 175 66 315.5t178 223t251 82.5q178 0 268 -154h75l-72 -41l119 674h144l-177 -1006q-16 -95 -23.5 -151.5t-7.5 -98.5q0 -102 105 -102h64l-22 -128q-39 -14 -86 -14q-82 0 -126 46.5t-44 132.5q0 26 6.5 66t19.5 104l51 -74
l-74 15q-55 -151 -149 -230.5t-215 -79.5zM459 102q128 0 221.5 120.5t130.5 331.5l31 175q-73 150 -238 150q-104 0 -188 -64t-132.5 -174t-48.5 -248q0 -139 59 -215t165 -76zM573 1182l22 124h707l-22 -124h-707z" />
    <glyph glyph-name="Emacron" unicode="&#x112;" 
d="M104 0l252 1432h784l-24 -136h-638l-204 -1160h654l-24 -136h-800zM302 667l24 136h623l-24 -136h-623zM486 1735l25 138h630l-25 -138h-630z" />
    <glyph glyph-name="emacron" unicode="&#x113;" 
d="M589 -30q-133 0 -234 60t-157.5 166t-56.5 244q0 114 36 227t108 205t179.5 147.5t251.5 55.5q156 0 242.5 -81.5t86.5 -206.5q0 -130 -81.5 -210.5t-258.5 -117t-464 -36.5l-13 115q249 6 396.5 32.5t212 78.5t64.5 134q0 73 -47.5 114.5t-143.5 41.5
q-132 0 -227.5 -71.5t-146.5 -185t-51 -238.5q0 -154 83 -245t225 -91q86 0 154.5 34t138.5 110l98 -105q-86 -92 -181 -134.5t-214 -42.5zM441 1348l25 138h630l-25 -138h-630z" />
    <glyph glyph-name="Edotaccent" unicode="&#x116;" 
d="M104 0l252 1432h784l-24 -136h-638l-204 -1160h654l-24 -136h-800zM302 667l24 136h623l-24 -136h-623zM816 1676q-60 0 -99.5 41t-39.5 99q0 59 39.5 98.5t99.5 39.5t100.5 -39.5t40.5 -98.5q0 -58 -40.5 -99t-100.5 -41z" />
    <glyph glyph-name="edotaccent" unicode="&#x117;" 
d="M589 -30q-133 0 -234 60t-157.5 166t-56.5 244q0 114 36 227t108 205t179.5 147.5t251.5 55.5q156 0 242.5 -81.5t86.5 -206.5q0 -130 -81.5 -210.5t-258.5 -117t-464 -36.5l-13 115q249 6 396.5 32.5t212 78.5t64.5 134q0 73 -47.5 114.5t-143.5 41.5
q-132 0 -227.5 -71.5t-146.5 -185t-51 -238.5q0 -154 83 -245t225 -91q86 0 154.5 34t138.5 110l98 -105q-86 -92 -181 -134.5t-214 -42.5zM771 1289q-60 0 -99.5 41t-39.5 99q0 59 39.5 98.5t99.5 39.5t100.5 -39.5t40.5 -98.5q0 -58 -40.5 -99t-100.5 -41z" />
    <glyph glyph-name="Eogonek" unicode="&#x118;" 
d="M104 0l252 1432h784l-24 -136h-638l-204 -1160h654l-24 -136h-800zM302 667l24 136h623l-24 -136h-623zM705 -530q-106 0 -172.5 62t-66.5 158q0 125 99.5 218.5t307.5 169.5l31 -78q-157 -70 -228.5 -139.5t-71.5 -150.5q0 -54 34 -85t93 -31q58 0 112 25l20 -111
q-41 -19 -77.5 -28.5t-80.5 -9.5z" />
    <glyph glyph-name="eogonek" unicode="&#x119;" 
d="M589 -30q-133 0 -234 60t-157.5 166t-56.5 244q0 114 36 227t108 205t179.5 147.5t251.5 55.5q156 0 242.5 -81.5t86.5 -206.5q0 -130 -81.5 -210.5t-258.5 -117t-464 -36.5l-13 115q249 6 396.5 32.5t212 78.5t64.5 134q0 73 -47.5 114.5t-143.5 41.5
q-132 0 -227.5 -71.5t-146.5 -185t-51 -238.5q0 -154 83 -245t225 -91q86 0 154.5 34t138.5 110l98 -105q-86 -92 -181 -134.5t-214 -42.5zM611 -514q-106 0 -172.5 62t-66.5 158q0 125 99.5 218.5t307.5 169.5l31 -78q-157 -70 -228.5 -139.5t-71.5 -150.5q0 -54 34 -85
t93 -31q58 0 112 25l20 -111q-41 -19 -77.5 -28.5t-80.5 -9.5z" />
    <glyph glyph-name="Ecaron" unicode="&#x11a;" 
d="M104 0l252 1432h784l-24 -136h-638l-204 -1160h654l-24 -136h-800zM302 667l24 136h623l-24 -136h-623zM704 1638l-206 344l2 10h152l148 -275h-24l244 275h172l-2 -10l-326 -344h-160z" />
    <glyph glyph-name="ecaron" unicode="&#x11b;" 
d="M589 -30q-133 0 -234 60t-157.5 166t-56.5 244q0 114 36 227t108 205t179.5 147.5t251.5 55.5q156 0 242.5 -81.5t86.5 -206.5q0 -130 -81.5 -210.5t-258.5 -117t-464 -36.5l-13 115q249 6 396.5 32.5t212 78.5t64.5 134q0 73 -47.5 114.5t-143.5 41.5
q-132 0 -227.5 -71.5t-146.5 -185t-51 -238.5q0 -154 83 -245t225 -91q86 0 154.5 34t138.5 110l98 -105q-86 -92 -181 -134.5t-214 -42.5zM659 1251l-206 344l2 10h152l148 -275h-24l244 275h172l-2 -10l-326 -344h-160z" />
    <glyph glyph-name="Gbreve" unicode="&#x11e;" 
d="M602 -30q-148 0 -256 68.5t-166.5 195.5t-58.5 302q0 271 79 479.5t226 327.5t352 119q165 0 273.5 -79t154.5 -236l-143 -44q-34 114 -105.5 167.5t-184.5 53.5q-158 0 -271 -101.5t-173 -280t-60 -408.5q0 -205 87 -314.5t250 -109.5q158 0 252.5 107t128.5 325l12 76
h-356l26 149h500l-39 -245q-43 -268 -179 -410t-349 -142zM848 1637q-90 0 -157.5 34t-105 96t-37.5 145q0 17 2 34.5t6 45.5h133q-4 -28 -5.5 -42.5t-1.5 -25.5q0 -73 43.5 -115t125.5 -42q93 0 150.5 47t79.5 178h147q-19 -138 -74 -215t-134.5 -108.5t-171.5 -31.5z" />
    <glyph glyph-name="gbreve" unicode="&#x11f;" 
d="M475 -572q-145 0 -262.5 45t-186 126.5t-68.5 190.5q0 88 44 160t127.5 120t201.5 64v-82q-112 -28 -172.5 -91t-60.5 -153q0 -109 105.5 -176t276.5 -67q164 0 260 61t96 155q0 68 -41 111t-141 65l-445 101v7l210 290l91 -26l-106 -184l289 -66q156 -36 219.5 -110
t63.5 -178q0 -111 -65 -192.5t-178 -126t-258 -44.5zM597 291q-110 0 -196.5 46t-136 126.5t-49.5 182.5q0 121 57 218t155 154t220 57q110 0 196 -47t136 -127.5t50 -183.5q0 -120 -57 -216.5t-155 -153t-220 -56.5zM600 411q83 0 148.5 39t103 107t37.5 154q0 104 -69 169
t-179 65q-82 0 -147 -38.5t-102 -105.5t-37 -153q0 -104 69 -170.5t176 -66.5zM906 974l-62 38q56 109 146 164.5t211 55.5l-33 -183q-92 0 -152 -17t-110 -58zM753 1250q-90 0 -157.5 34t-105 96t-37.5 145q0 17 2 34.5t6 45.5h133q-4 -28 -5.5 -42.5t-1.5 -25.5
q0 -73 43.5 -115t125.5 -42q93 0 150.5 47t79.5 178h147q-19 -138 -74 -215t-134.5 -108.5t-171.5 -31.5z" />
    <glyph glyph-name="Gdotaccent" unicode="&#x120;" 
d="M602 -30q-148 0 -256 68.5t-166.5 195.5t-58.5 302q0 271 79 479.5t226 327.5t352 119q165 0 273.5 -79t154.5 -236l-143 -44q-34 114 -105.5 167.5t-184.5 53.5q-158 0 -271 -101.5t-173 -280t-60 -408.5q0 -205 87 -314.5t250 -109.5q158 0 252.5 107t128.5 325l12 76
h-356l26 149h500l-39 -245q-43 -268 -179 -410t-349 -142zM859 1676q-60 0 -99.5 41t-39.5 99q0 59 39.5 98.5t99.5 39.5t100.5 -39.5t40.5 -98.5q0 -58 -40.5 -99t-100.5 -41z" />
    <glyph glyph-name="gdotaccent" unicode="&#x121;" 
d="M475 -572q-145 0 -262.5 45t-186 126.5t-68.5 190.5q0 88 44 160t127.5 120t201.5 64v-82q-112 -28 -172.5 -91t-60.5 -153q0 -109 105.5 -176t276.5 -67q164 0 260 61t96 155q0 68 -41 111t-141 65l-445 101v7l210 290l91 -26l-106 -184l289 -66q156 -36 219.5 -110
t63.5 -178q0 -111 -65 -192.5t-178 -126t-258 -44.5zM597 291q-110 0 -196.5 46t-136 126.5t-49.5 182.5q0 121 57 218t155 154t220 57q110 0 196 -47t136 -127.5t50 -183.5q0 -120 -57 -216.5t-155 -153t-220 -56.5zM600 411q83 0 148.5 39t103 107t37.5 154q0 104 -69 169
t-179 65q-82 0 -147 -38.5t-102 -105.5t-37 -153q0 -104 69 -170.5t176 -66.5zM906 974l-62 38q56 109 146 164.5t211 55.5l-33 -183q-92 0 -152 -17t-110 -58zM764 1289q-60 0 -99.5 41t-39.5 99q0 59 39.5 98.5t99.5 39.5t100.5 -39.5t40.5 -98.5q0 -58 -40.5 -99
t-100.5 -41z" />
    <glyph glyph-name="uni0122" unicode="&#x122;" 
d="M602 -30q-148 0 -256 68.5t-166.5 195.5t-58.5 302q0 271 79 479.5t226 327.5t352 119q165 0 273.5 -79t154.5 -236l-143 -44q-34 114 -105.5 167.5t-184.5 53.5q-158 0 -271 -101.5t-173 -280t-60 -408.5q0 -205 87 -314.5t250 -109.5q158 0 252.5 107t128.5 325l12 76
h-356l26 149h500l-39 -245q-43 -268 -179 -410t-349 -142zM332 -769l-60 99q77 47 134.5 98.5t103.5 127.5l1 -27q-69 4 -112 42.5t-43 101.5q0 60 43 101t105 41q68 0 109.5 -42.5t41.5 -116.5t-46 -152.5t-120 -149.5t-157 -123z" />
    <glyph glyph-name="uni0123" unicode="&#x123;" 
d="M475 -572q-145 0 -262.5 45t-186 126.5t-68.5 190.5q0 88 44 160t127.5 120t201.5 64v-82q-112 -28 -172.5 -91t-60.5 -153q0 -109 105.5 -176t276.5 -67q164 0 260 61t96 155q0 68 -41 111t-141 65l-445 101v7l210 290l91 -26l-106 -184l289 -66q156 -36 219.5 -110
t63.5 -178q0 -111 -65 -192.5t-178 -126t-258 -44.5zM597 291q-110 0 -196.5 46t-136 126.5t-49.5 182.5q0 121 57 218t155 154t220 57q110 0 196 -47t136 -127.5t50 -183.5q0 -120 -57 -216.5t-155 -153t-220 -56.5zM600 411q83 0 148.5 39t103 107t37.5 154q0 104 -69 169
t-179 65q-82 0 -147 -38.5t-102 -105.5t-37 -153q0 -104 69 -170.5t176 -66.5zM906 974l-62 38q56 109 146 164.5t211 55.5l-33 -183q-92 0 -152 -17t-110 -58zM890 1835l60 -99q-77 -47 -134.5 -98t-103.5 -128l-1 27q69 -4 112 -42.5t43 -101.5q0 -60 -43 -101t-105 -41
q-67 0 -109 43t-42 116q0 74 46 152.5t120 150t157 122.5z" />
    <glyph glyph-name="Hbar" unicode="&#x126;" 
d="M112 0l252 1432h144l-252 -1432h-144zM292 646l23 134h661l-23 -134h-661zM762 0l252 1432h144l-252 -1432h-144zM113 1044l23 134h1160l-23 -134h-1160z" />
    <glyph glyph-name="hbar" unicode="&#x127;" 
d="M919 -10q-84 0 -134.5 48t-50.5 130q0 20 3 46t16 76l68 273q13 51 19 92.5t6 75.5q0 70 -40 109t-112 39q-90 0 -167.5 -50.5t-131.5 -141t-75 -209.5l-84 -478h-144l263 1490h144l-131 -733l-61 52h79q151 202 354 202q117 0 184 -72.5t67 -197.5q0 -40 -5 -84.5
t-19 -99.5l-66 -260q-9 -35 -13 -57t-4 -40q0 -78 89 -78h64l-20 -114q-25 -10 -49 -14t-49 -4zM99 1197l21 120h665l-21 -120h-665z" />
    <glyph glyph-name="Itilde" unicode="&#x128;" 
d="M447 75l226 1282h148l-226 -1282h-148zM98 0l24 138h820l-24 -138h-820zM326 1294l24 138h820l-24 -138h-820zM977 1651q-60 0 -104 26.5t-91 102.5q-32 51 -52.5 67.5t-48.5 16.5q-35 0 -55 -27t-30 -84l-17 -97h-130l17 97q20 114 72 177.5t141 63.5q60 0 104.5 -26.5
t90.5 -102.5q32 -51 52.5 -67.5t48.5 -16.5q35 0 55 27t30 84l17 97h130l-17 -97q-20 -114 -72 -177.5t-141 -63.5z" />
    <glyph glyph-name="itilde" unicode="&#x129;" 
d="M761 -30q-135 0 -215.5 79t-80.5 212q0 35 4 74t13 89l92 524l22 -25h-365l22 122h478l-111 -631q-10 -56 -13.5 -86.5t-3.5 -58.5q0 -78 42.5 -120.5t121.5 -42.5q101 0 188 78l79 -106q-120 -108 -273 -108zM862 1264q-60 0 -104 26.5t-91 102.5q-32 51 -52.5 67.5
t-48.5 16.5q-35 0 -55 -27t-30 -84l-17 -97h-130l17 97q20 114 72 177.5t141 63.5q60 0 104.5 -26.5t90.5 -102.5q32 -51 52.5 -67.5t48.5 -16.5q35 0 55 27t30 84l17 97h130l-17 -97q-20 -114 -72 -177.5t-141 -63.5z" />
    <glyph glyph-name="Imacron" unicode="&#x12a;" 
d="M447 75l226 1282h148l-226 -1282h-148zM98 0l24 138h820l-24 -138h-820zM326 1294l24 138h820l-24 -138h-820zM498 1735l25 138h630l-25 -138h-630z" />
    <glyph glyph-name="imacron" unicode="&#x12b;" 
d="M761 -30q-135 0 -215.5 79t-80.5 212q0 35 4 74t13 89l92 524l22 -25h-365l22 122h478l-111 -631q-10 -56 -13.5 -86.5t-3.5 -58.5q0 -78 42.5 -120.5t121.5 -42.5q101 0 188 78l79 -106q-120 -108 -273 -108zM383 1348l25 138h630l-25 -138h-630z" />
    <glyph glyph-name="Iogonek" unicode="&#x12e;" 
d="M447 75l226 1282h148l-226 -1282h-148zM98 0l24 138h820l-24 -138h-820zM326 1294l24 138h820l-24 -138h-820zM438 -530q-106 0 -172.5 62t-66.5 158q0 125 99.5 218.5t307.5 169.5l31 -78q-157 -70 -228.5 -139.5t-71.5 -150.5q0 -54 34 -85t93 -31q58 0 112 25l20 -111
q-41 -19 -77.5 -28.5t-80.5 -9.5z" />
    <glyph glyph-name="iogonek" unicode="&#x12f;" 
d="M761 -30q-135 0 -215.5 79t-80.5 212q0 35 4 74t13 89l92 524l22 -25h-365l22 122h478l-111 -631q-10 -56 -13.5 -86.5t-3.5 -58.5q0 -78 42.5 -120.5t121.5 -42.5q101 0 188 78l79 -106q-120 -108 -273 -108zM707 1289q-57 0 -97.5 41t-40.5 98t40 96.5t98 39.5
q59 0 97.5 -39t38.5 -98q0 -58 -39.5 -98t-96.5 -40zM714 -530q-106 0 -172.5 62t-66.5 158q0 125 99.5 218.5t307.5 169.5l31 -78q-157 -70 -228.5 -139.5t-71.5 -150.5q0 -54 34 -85t93 -31q58 0 112 25l20 -111q-41 -19 -77.5 -28.5t-80.5 -9.5z" />
    <glyph glyph-name="Idotaccent" unicode="&#x130;" 
d="M447 75l226 1282h148l-226 -1282h-148zM98 0l24 138h820l-24 -138h-820zM326 1294l24 138h820l-24 -138h-820zM828 1676q-60 0 -99.5 41t-39.5 99q0 59 39.5 98.5t99.5 39.5t100.5 -39.5t40.5 -98.5q0 -58 -40.5 -99t-100.5 -41z" />
    <glyph glyph-name="dotlessi" unicode="&#x131;" 
d="M761 -30q-135 0 -215.5 79t-80.5 212q0 35 4 74t13 89l92 524l22 -25h-365l22 122h478l-111 -631q-10 -56 -13.5 -86.5t-3.5 -58.5q0 -78 42.5 -120.5t121.5 -42.5q101 0 188 78l79 -106q-120 -108 -273 -108z" />
    <glyph glyph-name="IJ" unicode="&#x132;" 
d="M557 -30q-169 0 -278.5 96.5t-132.5 266.5l148 26q35 -249 267 -249q126 0 197.5 76t100.5 241l177 1005h148l-181 -1026q-37 -214 -150.5 -325t-295.5 -111zM187 585l149 847h148l-149 -847h-148z" />
    <glyph glyph-name="ij" unicode="&#x133;" 
d="M564 -450q-117 0 -224 51.5t-182 143.5l106 94q125 -153 310 -153q113 0 187 77.5t99 222.5l55 312l57 -123h-84q-116 -165 -306 -165q-100 0 -174 39t-114.5 110t-40.5 167q0 48 10 102l109 617h141l-107 -609q-4 -27 -6.5 -50.5t-2.5 -40.5q0 -98 58 -151t166 -53
q121 0 209 86t113 228l104 590h140l-191 -1085q-34 -197 -146.5 -303.5t-285.5 -106.5zM118 923l22 122h311l-22 -122h-311zM486 1289q-57 0 -97.5 41t-40.5 98t40 96.5t98 39.5q59 0 97.5 -39t38.5 -98q0 -58 -39.5 -98t-96.5 -40zM794 923l22 122h308l-22 -122h-308z
M1160 1289q-56 0 -97 41t-41 98q0 56 40 96t98 40q59 0 97.5 -39t38.5 -98q0 -58 -39.5 -98t-96.5 -40z" />
    <glyph glyph-name="uni0136" unicode="&#x136;" 
d="M976 -10q-47 0 -82 17t-63.5 48.5t-58.5 75.5l-408 604v5l722 692h194l-774 -734l11 62l370 -545q32 -46 66.5 -64.5t82.5 -18.5h48l-22 -128q-20 -7 -41.5 -10.5t-44.5 -3.5zM92 0l252 1432h146l-252 -1432h-146zM369 -769l-60 99q77 47 134.5 98.5t103.5 127.5l1 -27
q-69 4 -112 42.5t-43 101.5q0 60 43 101t105 41q68 0 109.5 -42.5t41.5 -116.5t-46 -152.5t-120 -149.5t-157 -123z" />
    <glyph glyph-name="uni0137" unicode="&#x137;" 
d="M782 0l-443 560l1 6l576 479h206l-665 -546l20 112l487 -611h-182zM104 0l258 1460h141l-258 -1460h-141zM329 -759l-60 99q77 47 134.5 98.5t103.5 127.5l1 -27q-69 4 -112 42.5t-43 101.5q0 60 43 101t105 41q68 0 109.5 -42.5t41.5 -116.5t-46 -152.5t-120 -149.5
t-157 -123z" />
    <glyph glyph-name="kgreenlandic" unicode="&#x138;" 
d="M782 0l-443 560l1 6l576 479h206l-665 -546l20 112l487 -611h-182zM104 0l185 1045h141l-185 -1045h-141z" />
    <glyph glyph-name="Lacute" unicode="&#x139;" 
d="M120 0l252 1432h146l-228 -1294h694l-24 -138h-840zM411 1638l2 10l226 344h190l-2 -10l-266 -344h-150z" />
    <glyph glyph-name="lacute" unicode="&#x13a;" 
d="M715 -30q-141 0 -224.5 81t-83.5 207q0 32 4.5 69.5t14.5 96.5l166 940l22 -36h-342l23 132h454l-184 -1046q-10 -60 -14 -92t-4 -58q0 -76 43 -117t123 -41q56 0 108.5 23.5t101.5 69.5l79 -106q-68 -63 -137.5 -93t-149.5 -30zM645 1666l2 10l226 344h190l-2 -10
l-266 -344h-150z" />
    <glyph glyph-name="uni013B" unicode="&#x13b;" 
d="M120 0l252 1432h146l-228 -1294h694l-24 -138h-840zM367 -769l-60 99q77 47 134.5 98.5t103.5 127.5l1 -27q-69 4 -112 42.5t-43 101.5q0 60 43 101t105 41q68 0 109.5 -42.5t41.5 -116.5t-46 -152.5t-120 -149.5t-157 -123z" />
    <glyph glyph-name="uni013C" unicode="&#x13c;" 
d="M715 -30q-141 0 -224.5 81t-83.5 207q0 32 4.5 69.5t14.5 96.5l166 940l22 -36h-342l23 132h454l-184 -1046q-10 -60 -14 -92t-4 -58q0 -76 43 -117t123 -41q56 0 108.5 23.5t101.5 69.5l79 -106q-68 -63 -137.5 -93t-149.5 -30zM391 -799l-60 99q77 47 134.5 98.5
t103.5 127.5l1 -27q-69 4 -112 42.5t-43 101.5q0 60 43 101t105 41q68 0 109.5 -42.5t41.5 -116.5t-46 -152.5t-120 -149.5t-157 -123z" />
    <glyph glyph-name="Lcaron" unicode="&#x13d;" 
d="M772 945l-88 60q110 172 110 336q0 41 -10 91l154 26q5 -24 7.5 -47.5t2.5 -47.5q0 -106 -42 -205.5t-134 -212.5zM120 0l252 1432h146l-228 -1294h694l-24 -138h-840z" />
    <glyph glyph-name="lcaron" unicode="&#x13e;" 
d="M715 -30q-94 0 -163 37t-107 102t-38 149q0 32 4.5 69.5t14.5 96.5l166 939l22 -35h-341l23 134h453l-184 -1048q-10 -60 -14 -92t-4 -58q0 -76 43 -117t123 -41q56 0 108.5 23.5t101.5 69.5l79 -106q-68 -63 -137.5 -93t-149.5 -30zM937 954l-82 60q57 89 83.5 170.5
t26.5 165.5q0 41 -10 91l148 26q10 -46 10 -95q0 -106 -42 -205.5t-134 -212.5z" />
    <glyph glyph-name="Ldot" unicode="&#x13f;" 
d="M120 0l252 1432h146l-228 -1294h694l-24 -138h-840zM921 626q-64 0 -107 43t-43 107q0 62 44 105t106 43q64 0 107 -43t43 -105q0 -64 -43 -107t-107 -43z" />
    <glyph glyph-name="ldot" unicode="&#x140;" 
d="M715 -30q-141 0 -224.5 81t-83.5 207q0 32 4.5 69.5t14.5 96.5l166 940l22 -36h-342l23 132h454l-184 -1046q-10 -60 -14 -92t-4 -58q0 -76 43 -117t123 -41q56 0 108.5 23.5t101.5 69.5l79 -106q-68 -63 -137.5 -93t-149.5 -30zM1158 626q-64 0 -107 43t-43 107
q0 62 44 105t106 43q64 0 107 -43t43 -105q0 -64 -43 -107t-107 -43z" />
    <glyph glyph-name="Lslash" unicode="&#x141;" 
d="M199 0l252 1432h146l-228 -1294h654l-24 -138h-800zM-4 418l29 165l351 192l91 26l571 309l-29 -164l-607 -326l-74 -16z" />
    <glyph glyph-name="lslash" unicode="&#x142;" 
d="M137 472l29 165l385 198l63 18l450 232l-30 -168l-452 -232l-62 -15zM715 -30q-141 0 -224.5 81t-83.5 207q0 32 4.5 69.5t14.5 96.5l166 940l22 -36h-342l23 132h454l-184 -1046q-10 -60 -14 -92t-4 -58q0 -76 43 -117t123 -41q56 0 108.5 23.5t101.5 69.5l79 -106
q-68 -63 -137.5 -93t-149.5 -30z" />
    <glyph glyph-name="Nacute" unicode="&#x143;" 
d="M28 0l252 1432h150l467 -1156h4l46 332l145 824h148l-252 -1432h-122l-487 1202h-4l-46 -332l-153 -870h-148zM688 1638l2 10l226 344h190l-2 -10l-266 -344h-150z" />
    <glyph glyph-name="nacute" unicode="&#x144;" 
d="M929 -10q-84 0 -134.5 48t-50.5 130q0 20 3.5 46t15.5 76l81 337q12 51 18.5 92.5t6.5 75.5q0 70 -40.5 109t-112.5 39q-90 0 -167.5 -50.5t-131.5 -141t-75 -209.5l-96 -542h-144l184 1045h143l-40 -226l-60 54h79q151 202 354 202q117 0 184.5 -72.5t67.5 -197.5
q0 -40 -5.5 -84.5t-19.5 -99.5l-78 -324q-8 -35 -12.5 -57t-4.5 -40q0 -78 89 -78h64l-20 -114q-46 -18 -98 -18zM655 1251l2 10l226 344h190l-2 -10l-266 -344h-150z" />
    <glyph glyph-name="uni0145" unicode="&#x145;" 
d="M28 0l252 1432h150l467 -1156h4l46 332l145 824h148l-252 -1432h-122l-487 1202h-4l-46 -332l-153 -870h-148zM335 -769l-60 99q77 47 134.5 98.5t103.5 127.5l1 -27q-69 4 -112 42.5t-43 101.5q0 60 43 101t105 41q68 0 109.5 -42.5t41.5 -116.5t-46 -152.5t-120 -149.5
t-157 -123z" />
    <glyph glyph-name="uni0146" unicode="&#x146;" 
d="M929 -10q-84 0 -134.5 48t-50.5 130q0 20 3.5 46t15.5 76l81 337q12 51 18.5 92.5t6.5 75.5q0 70 -40.5 109t-112.5 39q-90 0 -167.5 -50.5t-131.5 -141t-75 -209.5l-96 -542h-144l184 1045h143l-40 -226l-60 54h79q151 202 354 202q117 0 184.5 -72.5t67.5 -197.5
q0 -40 -5.5 -84.5t-19.5 -99.5l-78 -324q-8 -35 -12.5 -57t-4.5 -40q0 -78 89 -78h64l-20 -114q-46 -18 -98 -18zM353 -759l-60 99q77 47 134.5 98.5t103.5 127.5l1 -27q-69 4 -112 42.5t-43 101.5q0 60 43 101t105 41q68 0 109.5 -42.5t41.5 -116.5t-46 -152.5t-120 -149.5
t-157 -123z" />
    <glyph glyph-name="Ncaron" unicode="&#x147;" 
d="M28 0l252 1432h150l467 -1156h4l46 332l145 824h148l-252 -1432h-122l-487 1202h-4l-46 -332l-153 -870h-148zM678 1638l-206 344l2 10h152l148 -275h-24l244 275h172l-2 -10l-326 -344h-160z" />
    <glyph glyph-name="ncaron" unicode="&#x148;" 
d="M929 -10q-84 0 -134.5 48t-50.5 130q0 20 3.5 46t15.5 76l81 337q12 51 18.5 92.5t6.5 75.5q0 70 -40.5 109t-112.5 39q-90 0 -167.5 -50.5t-131.5 -141t-75 -209.5l-96 -542h-144l184 1045h143l-40 -226l-60 54h79q151 202 354 202q117 0 184.5 -72.5t67.5 -197.5
q0 -40 -5.5 -84.5t-19.5 -99.5l-78 -324q-8 -35 -12.5 -57t-4.5 -40q0 -78 89 -78h64l-20 -114q-46 -18 -98 -18zM645 1251l-206 344l2 10h152l148 -275h-24l244 275h172l-2 -10l-326 -344h-160z" />
    <glyph glyph-name="napostrophe" unicode="&#x149;" 
d="M1016 -10q-78 0 -124 48.5t-46 129.5q0 23 4.5 50.5t14.5 71.5l84 347q14 55 19.5 96t5.5 72q0 139 -130 139q-120 0 -206 -106t-120 -296l-96 -542h-138l184 1045h137l-40 -226l-60 65h79q131 191 306 191q110 0 171 -66.5t61 -187.5q0 -38 -6.5 -83.5t-21.5 -106.5
l-81 -334q-10 -44 -13.5 -63t-3.5 -34q0 -78 74 -78h49l-20 -114q-39 -18 -83 -18zM83 882l326 578h188l-356 -578h-158z" />
    <glyph glyph-name="Eng" unicode="&#x14a;" 
d="M583 -440q-93 0 -180 36t-152 100l101 111q107 -107 235 -107q101 0 161.5 58.5t81.5 176.5l174 983q9 51 13 89t4 72q0 122 -59.5 183.5t-178.5 61.5q-102 0 -188 -46.5t-144 -129t-78 -192.5l-169 -956h-146l253 1432h136l-31 -173h6q77 95 184.5 149t216.5 54
q162 0 254 -95t92 -258q0 -45 -4.5 -90.5t-14.5 -101.5l-179 -1012q-29 -166 -130 -255.5t-258 -89.5z" />
    <glyph glyph-name="eng" unicode="&#x14b;" 
d="M494 -440q-78 0 -144.5 29t-122.5 86l93 104q82 -83 176 -83q78 0 127 60t72 169l149 702q11 51 18 92.5t7 75.5q0 70 -40.5 109t-112.5 39q-90 0 -167.5 -50.5t-131.5 -141t-75 -209.5l-96 -542h-144l184 1045h143l-40 -226l-60 54h79q151 202 354 202q116 0 184 -72.5
t68 -197.5q0 -40 -6.5 -84.5t-18.5 -99.5l-153 -719q-35 -167 -118 -254.5t-224 -87.5z" />
    <glyph glyph-name="Omacron" unicode="&#x14c;" 
d="M554 -30q-140 0 -241 65.5t-155 184.5t-54 281q0 146 26 286t77 262t127 215t176.5 145.5t224.5 52.5q203 0 313.5 -141.5t110.5 -389.5q0 -154 -23.5 -296t-71 -263t-120 -211.5t-170 -140.5t-220.5 -50zM558 110q101 0 177 48t128.5 130.5t85 187t47.5 220t15 227.5
q0 197 -68.5 298t-211.5 101q-103 0 -181.5 -49.5t-135 -134t-92.5 -190.5t-53 -219.5t-17 -219.5q0 -196 77.5 -297.5t228.5 -101.5zM478 1735l25 138h630l-25 -138h-630z" />
    <glyph glyph-name="omacron" unicode="&#x14d;" 
d="M548 -30q-127 0 -222 56t-147.5 159t-52.5 243q0 113 33 227.5t99.5 209.5t167 152.5t235.5 57.5q129 0 221.5 -55t141.5 -157.5t49 -245.5q0 -113 -30.5 -227.5t-94 -209.5t-163 -152.5t-237.5 -57.5zM556 106q98 0 168 49t114.5 127t65.5 166t21 165q0 159 -68.5 242.5
t-203.5 83.5q-102 0 -174 -49t-117.5 -127t-66.5 -165.5t-21 -165.5q0 -156 75 -241t207 -85zM400 1348l25 138h630l-25 -138h-630z" />
    <glyph glyph-name="Ohungarumlaut" unicode="&#x150;" 
d="M554 -30q-140 0 -241 65.5t-155 184.5t-54 281q0 146 26 286t77 262t127 215t176.5 145.5t224.5 52.5q203 0 313.5 -141.5t110.5 -389.5q0 -154 -23.5 -296t-71 -263t-120 -211.5t-170 -140.5t-220.5 -50zM558 110q101 0 177 48t128.5 130.5t85 187t47.5 220t15 227.5
q0 197 -68.5 298t-211.5 101q-103 0 -181.5 -49.5t-135 -134t-92.5 -190.5t-53 -219.5t-17 -219.5q0 -196 77.5 -297.5t228.5 -101.5zM886 1638l2 10l226 344h190l-2 -10l-266 -344h-150zM516 1638l2 10l226 344h190l-2 -10l-266 -344h-150z" />
    <glyph glyph-name="ohungarumlaut" unicode="&#x151;" 
d="M548 -30q-127 0 -222 56t-147.5 159t-52.5 243q0 113 33 227.5t99.5 209.5t167 152.5t235.5 57.5q129 0 221.5 -55t141.5 -157.5t49 -245.5q0 -113 -30.5 -227.5t-94 -209.5t-163 -152.5t-237.5 -57.5zM556 106q98 0 168 49t114.5 127t65.5 166t21 165q0 159 -68.5 242.5
t-203.5 83.5q-102 0 -174 -49t-117.5 -127t-66.5 -165.5t-21 -165.5q0 -156 75 -241t207 -85zM808 1251l2 10l226 344h190l-2 -10l-266 -344h-150zM438 1251l2 10l226 344h190l-2 -10l-266 -344h-150z" />
    <glyph glyph-name="OE" unicode="&#x152;" 
d="M336 -30q-129 0 -205.5 124.5t-76.5 365.5q0 104 17.5 236t54.5 266t94 247.5t136.5 183t182.5 69.5q101 0 155 -71t72 -188h6l40 229h512l-24 -136h-384l-204 -1160h400l-24 -136h-528l28 159h-6q-47 -92 -109.5 -140.5t-136.5 -48.5zM360 106q63 0 113.5 46.5t89 124.5
t65.5 173t44.5 192.5t25.5 183.5t8 145q0 191 -39 273t-116 82q-63 0 -114 -46.5t-90 -124t-68 -172t-47 -192t-27 -183t-9 -144.5q0 -191 41 -274.5t123 -83.5zM749 667l24 136h370l-24 -136h-370z" />
    <glyph glyph-name="oe" unicode="&#x153;" 
d="M262 -30q-123 0 -189.5 87.5t-66.5 244.5q0 73 13 173t43 204.5t79 194.5t120.5 145.5t168.5 55.5q106 0 159 -75.5t58 -202.5h-22q45 126 136.5 202t195.5 76q121 0 179 -72.5t58 -172.5q0 -202 -161.5 -302t-433.5 -100l-13 115q247 9 358 78.5t111 197.5q0 50 -26 86
t-88 36q-68 0 -119 -40.5t-86.5 -106t-57.5 -142t-32 -151.5t-10 -132q0 -124 43.5 -194.5t119.5 -70.5q53 0 103.5 34t96.5 116l108 -65q-70 -119 -150 -169t-169 -50q-80 0 -138 43t-88.5 112t-30.5 147h41q-50 -151 -131 -226.5t-179 -75.5zM274 102q64 0 110.5 48.5
t78 126t50.5 164t27 165t8 127.5q0 210 -129 210q-63 0 -109.5 -48.5t-78.5 -126t-51 -164t-27.5 -165t-8.5 -127.5q0 -210 130 -210z" />
    <glyph glyph-name="Racute" unicode="&#x154;" 
d="M72 0l252 1432h393q132 0 223.5 -50t139 -135.5t47.5 -193.5q0 -137 -55.5 -242.5t-159.5 -165t-249 -59.5h-408l24 136h384q94 0 155.5 29t96.5 76t49.5 103t14.5 111q0 119 -67 187t-201 68h-267l-228 -1296h-144zM1001 -10q-44 0 -78 17.5t-60.5 52.5t-50.5 87
l-228 502h152l205 -442q18 -39 46.5 -57t68.5 -18h43l-22 -128q-19 -8 -36 -11t-40 -3zM633 1638l2 10l226 344h190l-2 -10l-266 -344h-150z" />
    <glyph glyph-name="racute" unicode="&#x155;" 
d="M248 0l167 950l16 -26h-244l21 121h358l-47 -267l-21 28h34q146 269 395 269q113 0 210 -47l-58 -143q-45 25 -88.5 36t-99.5 11q-163 0 -273.5 -138.5t-162.5 -434.5l-63 -359h-144zM932 681l56 318l149 29l-61 -347h-144zM668 1251l2 10l226 344h190l-2 -10l-266 -344
h-150z" />
    <glyph glyph-name="Rcaron" unicode="&#x158;" 
d="M72 0l252 1432h393q132 0 223.5 -50t139 -135.5t47.5 -193.5q0 -137 -55.5 -242.5t-159.5 -165t-249 -59.5h-408l24 136h384q94 0 155.5 29t96.5 76t49.5 103t14.5 111q0 119 -67 187t-201 68h-267l-228 -1296h-144zM1001 -10q-44 0 -78 17.5t-60.5 52.5t-50.5 87
l-228 502h152l205 -442q18 -39 46.5 -57t68.5 -18h43l-22 -128q-19 -8 -36 -11t-40 -3zM623 1638l-206 344l2 10h152l148 -275h-24l244 275h172l-2 -10l-326 -344h-160z" />
    <glyph glyph-name="rcaron" unicode="&#x159;" 
d="M248 0l167 950l16 -26h-244l21 121h358l-47 -267l-21 28h34q146 269 395 269q113 0 210 -47l-58 -143q-45 25 -88.5 36t-99.5 11q-163 0 -273.5 -138.5t-162.5 -434.5l-63 -359h-144zM932 681l56 318l149 29l-61 -347h-144zM658 1251l-206 344l2 10h152l148 -275h-24
l244 275h172l-2 -10l-326 -344h-160z" />
    <glyph glyph-name="Sacute" unicode="&#x15a;" 
d="M605 -30q-207 0 -349.5 105t-183.5 289l148 35q29 -138 130 -213.5t258 -75.5q143 0 223 69.5t80 191.5q0 96 -49 158t-166 114l-176 79q-118 53 -181 141.5t-63 209.5q0 118 57 205t160 135.5t242 48.5q172 0 291 -83t168 -237l-146 -41q-69 221 -319 221
q-141 0 -224 -67t-83 -176q0 -79 40 -133.5t137 -98.5l176 -79q139 -62 210.5 -159.5t71.5 -231.5q0 -123 -56 -214.5t-157.5 -142t-238.5 -50.5zM724 1638l2 10l226 344h190l-2 -10l-266 -344h-150z" />
    <glyph glyph-name="sacute" unicode="&#x15b;" 
d="M594 -30q-136 0 -259.5 53.5t-215.5 151.5l92 105q162 -174 385 -174q105 0 166.5 44.5t61.5 120.5q0 123 -175 177l-151 46q-115 35 -178.5 109t-63.5 173q0 87 46.5 154.5t128.5 106t187 38.5q124 0 220.5 -39.5t184.5 -124.5l-92 -105q-72 71 -144.5 102t-170.5 31
q-93 0 -152.5 -44t-59.5 -113q0 -60 39 -97t131 -66l151 -46q122 -37 184.5 -111.5t62.5 -182.5q0 -91 -48 -161t-133 -109t-197 -39zM641 1251l2 10l226 344h190l-2 -10l-266 -344h-150z" />
    <glyph glyph-name="Scedilla" unicode="&#x15e;" 
d="M605 -30q-207 0 -349.5 105t-183.5 289l148 35q29 -138 130 -213.5t258 -75.5q143 0 223 69.5t80 191.5q0 96 -49 158t-166 114l-176 79q-118 53 -181 141.5t-63 209.5q0 118 57 205t160 135.5t242 48.5q172 0 291 -83t168 -237l-146 -41q-69 221 -319 221
q-141 0 -224 -67t-83 -176q0 -79 40 -133.5t137 -98.5l176 -79q139 -62 210.5 -159.5t71.5 -231.5q0 -123 -56 -214.5t-157.5 -142t-238.5 -50.5zM500 -600q-87 0 -161 39t-118 109l107 74q66 -108 174 -108q71 0 111.5 38t40.5 105q0 56 -29.5 85t-84.5 29q-64 0 -115 -45
l-74 73l169 213h112l-170 -210l-56 1q44 36 87 53t92 17q90 0 143.5 -57t53.5 -155q0 -76 -36.5 -135t-100 -92.5t-145.5 -33.5z" />
    <glyph glyph-name="scedilla" unicode="&#x15f;" 
d="M594 -30q-136 0 -259.5 53.5t-215.5 151.5l92 105q162 -174 385 -174q105 0 166.5 44.5t61.5 120.5q0 123 -175 177l-151 46q-115 35 -178.5 109t-63.5 173q0 87 46.5 154.5t128.5 106t187 38.5q124 0 220.5 -39.5t184.5 -124.5l-92 -105q-72 71 -144.5 102t-170.5 31
q-93 0 -152.5 -44t-59.5 -113q0 -60 39 -97t131 -66l151 -46q122 -37 184.5 -111.5t62.5 -182.5q0 -91 -48 -161t-133 -109t-197 -39zM487 -600q-87 0 -161 39t-118 109l107 74q66 -108 174 -108q71 0 111.5 38t40.5 105q0 56 -29.5 85t-84.5 29q-64 0 -115 -45l-74 73
l169 213h112l-170 -210l-56 1q44 36 87 53t92 17q90 0 143.5 -57t53.5 -155q0 -76 -36.5 -135t-100 -92.5t-145.5 -33.5z" />
    <glyph glyph-name="Scaron" unicode="&#x160;" 
d="M605 -30q-207 0 -349.5 105t-183.5 289l148 35q29 -138 130 -213.5t258 -75.5q143 0 223 69.5t80 191.5q0 96 -49 158t-166 114l-176 79q-118 53 -181 141.5t-63 209.5q0 118 57 205t160 135.5t242 48.5q172 0 291 -83t168 -237l-146 -41q-69 221 -319 221
q-141 0 -224 -67t-83 -176q0 -79 40 -133.5t137 -98.5l176 -79q139 -62 210.5 -159.5t71.5 -231.5q0 -123 -56 -214.5t-157.5 -142t-238.5 -50.5zM714 1638l-206 344l2 10h152l148 -275h-24l244 275h172l-2 -10l-326 -344h-160z" />
    <glyph glyph-name="scaron" unicode="&#x161;" 
d="M594 -30q-136 0 -259.5 53.5t-215.5 151.5l92 105q162 -174 385 -174q105 0 166.5 44.5t61.5 120.5q0 123 -175 177l-151 46q-115 35 -178.5 109t-63.5 173q0 87 46.5 154.5t128.5 106t187 38.5q124 0 220.5 -39.5t184.5 -124.5l-92 -105q-72 71 -144.5 102t-170.5 31
q-93 0 -152.5 -44t-59.5 -113q0 -60 39 -97t131 -66l151 -46q122 -37 184.5 -111.5t62.5 -182.5q0 -91 -48 -161t-133 -109t-197 -39zM631 1251l-206 344l2 10h152l148 -275h-24l244 275h172l-2 -10l-326 -344h-160z" />
    <glyph glyph-name="uni0162" unicode="&#x162;" 
d="M435 0l242 1372h146l-242 -1372h-146zM254 1294l24 138h964l-24 -138h-964zM430 -600q-87 0 -161 39t-118 109l107 74q66 -108 174 -108q71 0 111.5 38t40.5 105q0 56 -29.5 85t-84.5 29q-64 0 -115 -45l-74 73l169 213h112l-170 -210l-56 1q44 36 87 53t92 17
q90 0 143.5 -57t53.5 -155q0 -76 -36.5 -135t-100 -92.5t-145.5 -33.5z" />
    <glyph glyph-name="uni0163" unicode="&#x163;" 
d="M703 -30q-148 0 -233.5 85t-85.5 221q0 23 3.5 55t9.5 68l164 927h143l-166 -938q-6 -33 -8.5 -59t-2.5 -48q0 -85 46 -130t132 -45q59 0 111.5 20t107.5 63l71 -115q-67 -51 -140.5 -77.5t-151.5 -26.5zM191 913l23 132h892l-23 -132h-892zM540 -600q-87 0 -161 39
t-118 109l107 74q66 -108 174 -108q71 0 111.5 38t40.5 105q0 56 -29.5 85t-84.5 29q-64 0 -115 -45l-74 73l169 213h112l-170 -210l-56 1q44 36 87 53t92 17q90 0 143.5 -57t53.5 -155q0 -76 -36.5 -135t-100 -92.5t-145.5 -33.5z" />
    <glyph glyph-name="Tcaron" unicode="&#x164;" 
d="M435 0l242 1372h146l-242 -1372h-146zM254 1294l24 138h964l-24 -138h-964zM716 1638l-206 344l2 10h152l148 -275h-24l244 275h172l-2 -10l-326 -344h-160z" />
    <glyph glyph-name="tcaron" unicode="&#x165;" 
d="M655 -30q-148 0 -233.5 85t-85.5 221q0 23 3.5 55t9.5 68l164 927h143l-166 -938q-6 -33 -8.5 -59t-2.5 -48q0 -85 46 -130t132 -45q59 0 111.5 20t107.5 63l71 -115q-67 -51 -140.5 -77.5t-151.5 -26.5zM136 873l23 132h892l-23 -132h-892zM879 1119l-82 60
q89 144 89 280q0 41 -10 91l148 26q10 -46 10 -95q0 -91 -37 -177.5t-118 -184.5z" />
    <glyph glyph-name="Utilde" unicode="&#x168;" 
d="M555 -30q-119 0 -213 50.5t-148 142t-54 213.5q0 26 2.5 52t6.5 53l167 951h146l-168 -955q-4 -22 -6 -45t-2 -44q0 -135 74.5 -206.5t198.5 -71.5t209.5 83.5t111.5 232.5l178 1006h146l-181 -1029q-34 -197 -159 -315t-309 -118zM967 1651q-60 0 -104 26.5t-91 102.5
q-32 51 -52.5 67.5t-48.5 16.5q-35 0 -55 -27t-30 -84l-17 -97h-130l17 97q20 114 72 177.5t141 63.5q60 0 104.5 -26.5t90.5 -102.5q32 -51 52.5 -67.5t48.5 -16.5q35 0 55 27t30 84l17 97h130l-17 -97q-20 -114 -72 -177.5t-141 -63.5z" />
    <glyph glyph-name="utilde" unicode="&#x169;" 
d="M467 -30q-121 0 -196 81.5t-75 213.5q0 34 4.5 76t15.5 103l89 502l11 -22h-219l21 121h350l-107 -609q-11 -63 -15 -101t-4 -74q0 -76 40.5 -117.5t115.5 -41.5q117 0 203 127.5t127 360.5l80 455h144l-99 -561q-17 -97 -24 -153t-7 -97q0 -102 105 -102h64l-22 -128
q-41 -14 -86 -14q-82 0 -126 46.5t-44 132.5q0 26 6 65t20 105l51 -74l-74 15q-61 -157 -147 -233.5t-202 -76.5zM865 1264q-60 0 -104 26.5t-91 102.5q-32 51 -52.5 67.5t-48.5 16.5q-35 0 -55 -27t-30 -84l-17 -97h-130l17 97q20 114 72 177.5t141 63.5q60 0 104.5 -26.5
t90.5 -102.5q32 -51 52.5 -67.5t48.5 -16.5q35 0 55 27t30 84l17 97h130l-17 -97q-20 -114 -72 -177.5t-141 -63.5z" />
    <glyph glyph-name="Umacron" unicode="&#x16a;" 
d="M555 -30q-119 0 -213 50.5t-148 142t-54 213.5q0 26 2.5 52t6.5 53l167 951h146l-168 -955q-4 -22 -6 -45t-2 -44q0 -135 74.5 -206.5t198.5 -71.5t209.5 83.5t111.5 232.5l178 1006h146l-181 -1029q-34 -197 -159 -315t-309 -118zM488 1735l25 138h630l-25 -138h-630z
" />
    <glyph glyph-name="umacron" unicode="&#x16b;" 
d="M467 -30q-121 0 -196 81.5t-75 213.5q0 34 4.5 76t15.5 103l89 502l11 -22h-219l21 121h350l-107 -609q-11 -63 -15 -101t-4 -74q0 -76 40.5 -117.5t115.5 -41.5q117 0 203 127.5t127 360.5l80 455h144l-99 -561q-17 -97 -24 -153t-7 -97q0 -102 105 -102h64l-22 -128
q-41 -14 -86 -14q-82 0 -126 46.5t-44 132.5q0 26 6 65t20 105l51 -74l-74 15q-61 -157 -147 -233.5t-202 -76.5zM386 1348l25 138h630l-25 -138h-630z" />
    <glyph glyph-name="Uring" unicode="&#x16e;" 
d="M555 -30q-119 0 -213 50.5t-148 142t-54 213.5q0 26 2.5 52t6.5 53l167 951h146l-168 -955q-4 -22 -6 -45t-2 -44q0 -135 74.5 -206.5t198.5 -71.5t209.5 83.5t111.5 232.5l178 1006h146l-181 -1029q-34 -197 -159 -315t-309 -118zM677 1584.5q-62 34.5 -98 95t-36 136.5
q0 77 36 137t98 94.5t140.5 34.5t140 -34.5t97.5 -94.5t36 -137q0 -76 -36 -136.5t-97.5 -95t-140 -34.5t-140.5 34.5zM917.5 1714.5q39.5 40.5 39.5 102t-39.5 101.5t-100.5 40t-100.5 -40t-39.5 -101.5t39.5 -102t100.5 -40.5t100.5 40.5z" />
    <glyph glyph-name="uring" unicode="&#x16f;" 
d="M467 -30q-121 0 -196 81.5t-75 213.5q0 34 4.5 76t15.5 103l89 502l11 -22h-219l21 121h350l-107 -609q-11 -63 -15 -101t-4 -74q0 -76 40.5 -117.5t115.5 -41.5q117 0 203 127.5t127 360.5l80 455h144l-99 -561q-17 -97 -24 -153t-7 -97q0 -102 105 -102h64l-22 -128
q-41 -14 -86 -14q-82 0 -126 46.5t-44 132.5q0 26 6 65t20 105l51 -74l-74 15q-61 -157 -147 -233.5t-202 -76.5zM575 1197.5q-62 34.5 -98 95t-36 136.5q0 77 36 137t98 94.5t140.5 34.5t140 -34.5t97.5 -94.5t36 -137q0 -76 -36 -136.5t-97.5 -95t-140 -34.5t-140.5 34.5z
M815.5 1327.5q39.5 40.5 39.5 102t-39.5 101.5t-100.5 40t-100.5 -40t-39.5 -101.5t39.5 -102t100.5 -40.5t100.5 40.5z" />
    <glyph glyph-name="Uhungarumlaut" unicode="&#x170;" 
d="M555 -30q-119 0 -213 50.5t-148 142t-54 213.5q0 26 2.5 52t6.5 53l167 951h146l-168 -955q-4 -22 -6 -45t-2 -44q0 -135 74.5 -206.5t198.5 -71.5t209.5 83.5t111.5 232.5l178 1006h146l-181 -1029q-34 -197 -159 -315t-309 -118zM896 1638l2 10l226 344h190l-2 -10
l-266 -344h-150zM526 1638l2 10l226 344h190l-2 -10l-266 -344h-150z" />
    <glyph glyph-name="uhungarumlaut" unicode="&#x171;" 
d="M467 -30q-121 0 -196 81.5t-75 213.5q0 34 4.5 76t15.5 103l89 502l11 -22h-219l21 121h350l-107 -609q-11 -63 -15 -101t-4 -74q0 -76 40.5 -117.5t115.5 -41.5q117 0 203 127.5t127 360.5l80 455h144l-99 -561q-17 -97 -24 -153t-7 -97q0 -102 105 -102h64l-22 -128
q-41 -14 -86 -14q-82 0 -126 46.5t-44 132.5q0 26 6 65t20 105l51 -74l-74 15q-61 -157 -147 -233.5t-202 -76.5zM794 1251l2 10l226 344h190l-2 -10l-266 -344h-150zM424 1251l2 10l226 344h190l-2 -10l-266 -344h-150z" />
    <glyph glyph-name="Uogonek" unicode="&#x172;" 
d="M555 -30q-119 0 -213 50.5t-148 142t-54 213.5q0 26 2.5 52t6.5 53l167 951h146l-168 -955q-4 -22 -6 -45t-2 -44q0 -135 74.5 -206.5t198.5 -71.5t209.5 83.5t111.5 232.5l178 1006h146l-181 -1029q-34 -197 -159 -315t-309 -118zM534 -526q-106 0 -172.5 62t-66.5 158
q0 125 99.5 218.5t307.5 169.5l31 -78q-157 -70 -228.5 -139.5t-71.5 -150.5q0 -54 34 -85t93 -31q58 0 112 25l20 -111q-41 -19 -77.5 -28.5t-80.5 -9.5z" />
    <glyph glyph-name="uogonek" unicode="&#x173;" 
d="M467 -30q-121 0 -196 81.5t-75 213.5q0 34 4.5 76t15.5 103l89 502l11 -22h-219l21 121h350l-107 -609q-11 -63 -15 -101t-4 -74q0 -76 40.5 -117.5t115.5 -41.5q117 0 203 127.5t127 360.5l80 455h144l-99 -561q-17 -97 -24 -153t-7 -97q0 -102 105 -102h64l-22 -128
q-41 -14 -86 -14q-82 0 -126 46.5t-44 132.5q0 26 6 65t20 105l51 -74l-74 15q-61 -157 -147 -233.5t-202 -76.5zM870 -526q-106 0 -172.5 62t-66.5 158q0 125 99.5 218.5t307.5 169.5l31 -78q-157 -70 -228.5 -139.5t-71.5 -150.5q0 -54 34 -85t93 -31q58 0 112 25l20 -111
q-41 -19 -77.5 -28.5t-80.5 -9.5z" />
    <glyph glyph-name="Wcircumflex" unicode="&#x174;" 
d="M138 0l56 1432h142l-67 -1180h6l110 295l256 603h132l46 -603v-295h6l348 1180h153l-447 -1432h-142l-58 733l-1 190h-6l-77 -190l-323 -733h-134zM446 1638l2 10l326 344h160l206 -344l-2 -10h-152l-154 275h36l-250 -275h-172z" />
    <glyph glyph-name="wcircumflex" unicode="&#x175;" 
d="M176 0l-42 1045h135l5 -771l-1 -118h5l40 118l270 653h157l44 -650l-2 -121h6l38 121l275 768h144l-411 -1045h-154l-37 649v132h-6l-45 -132l-265 -649h-156zM379 1251l2 10l326 344h160l206 -344l-2 -10h-152l-154 275h36l-250 -275h-172z" />
    <glyph glyph-name="Ycircumflex" unicode="&#x176;" 
d="M536 552l-298 880h158l167 -506l61 -214h6l136 214l342 506h174l-608 -880h-138zM435 0l107 611h146l-107 -611h-146zM414 1638l2 10l326 344h160l206 -344l-2 -10h-152l-154 275h36l-250 -275h-172z" />
    <glyph glyph-name="ycircumflex" unicode="&#x177;" 
d="M166 -440q-139 0 -240 107l93 99q35 -37 70 -54.5t77 -17.5q59 0 100.5 31.5t86.5 111.5l152 273h23l121 260l365 675h162l-696 -1253q-73 -130 -143.5 -181t-170.5 -51zM476 -114l-248 1159h146l138 -675l33 -208h12zM354 1251l2 10l326 344h160l206 -344l-2 -10h-152
l-154 275h36l-250 -275h-172z" />
    <glyph glyph-name="Ydieresis" unicode="&#x178;" 
d="M536 552l-298 880h158l167 -506l61 -214h6l136 214l342 506h174l-608 -880h-138zM435 0l107 611h146l-107 -611h-146zM582 1676q-55 0 -93 38.5t-38 93.5q0 54 38.5 92t92.5 38q56 0 94.5 -37.5t38.5 -92.5t-38.5 -93.5t-94.5 -38.5zM982 1676q-55 0 -93 38.5t-38 93.5
q0 54 38.5 92t92.5 38q56 0 94.5 -37.5t38.5 -92.5t-38.5 -93.5t-94.5 -38.5z" />
    <glyph glyph-name="Zacute" unicode="&#x179;" 
d="M66 0l22 127l897 1167h-664l24 138h840l-22 -127l-897 -1167h708l-24 -138h-884zM701 1638l2 10l226 344h190l-2 -10l-266 -344h-150z" />
    <glyph glyph-name="zacute" unicode="&#x17a;" 
d="M104 0l21 121l749 790h-586l24 134h772l-21 -120l-749 -791h621l-24 -134h-807zM654 1251l2 10l226 344h190l-2 -10l-266 -344h-150z" />
    <glyph glyph-name="Zdotaccent" unicode="&#x17b;" 
d="M66 0l22 127l897 1167h-664l24 138h840l-22 -127l-897 -1167h708l-24 -138h-884zM803 1676q-60 0 -99.5 41t-39.5 99q0 59 39.5 98.5t99.5 39.5t100.5 -39.5t40.5 -98.5q0 -58 -40.5 -99t-100.5 -41z" />
    <glyph glyph-name="zdotaccent" unicode="&#x17c;" 
d="M104 0l21 121l749 790h-586l24 134h772l-21 -120l-749 -791h621l-24 -134h-807zM756 1289q-60 0 -99.5 41t-39.5 99q0 59 39.5 98.5t99.5 39.5t100.5 -39.5t40.5 -98.5q0 -58 -40.5 -99t-100.5 -41z" />
    <glyph glyph-name="Zcaron" unicode="&#x17d;" 
d="M66 0l22 127l897 1167h-664l24 138h840l-22 -127l-897 -1167h708l-24 -138h-884zM691 1638l-206 344l2 10h152l148 -275h-24l244 275h172l-2 -10l-326 -344h-160z" />
    <glyph glyph-name="zcaron" unicode="&#x17e;" 
d="M104 0l21 121l749 790h-586l24 134h772l-21 -120l-749 -791h621l-24 -134h-807zM644 1251l-206 344l2 10h152l148 -275h-24l244 275h172l-2 -10l-326 -344h-160z" />
    <glyph glyph-name="longs" unicode="&#x17f;" 
d="M158 -450q-130 0 -244 89l84 114q47 -35 86 -51t80 -16q72 0 110.5 46t54.5 151l199 1256q27 171 128 262t264 91q101 0 181 -38t150 -119l-104 -97q-50 58 -102.5 88t-126.5 30q-102 0 -165.5 -62t-82.5 -179l-198 -1256q-24 -154 -102.5 -231.5t-211.5 -77.5zM201 913
l23 132h360l-23 -132h-360z" />
    <glyph glyph-name="uni0181" unicode="&#x181;" 
d="M310 0l252 1432h312q176 0 263.5 -86t87.5 -235q0 -148 -70 -236.5t-202 -132.5v-6q102 -36 152 -117t50 -187q0 -131 -54.5 -228.5t-154 -150.5t-235.5 -53h-401zM164 895q-47 99 -47 202q0 99 45.5 174.5t125.5 118t185 42.5h155l-24 -136h-138q-93 0 -147 -50.5
t-54 -138.5q0 -40 8.5 -77.5t27.5 -77.5zM474 136h227q147 0 228.5 81t81.5 228q0 221 -252 221h-256l24 136h252q146 0 222 76t76 221q0 98 -55 147.5t-158 49.5h-186z" />
    <glyph glyph-name="uni018A" unicode="&#x18a;" 
d="M286 0l252 1432h204q201 0 317 -137t116 -369q0 -168 -26.5 -311t-78.5 -256.5t-127 -193.5t-171.5 -122.5t-213.5 -42.5h-272zM166 895q-38 96 -38 204q0 149 98 241t258 92h144l-23 -134h-128q-94 0 -147.5 -51.5t-53.5 -143.5q0 -70 31 -164zM453 134h107
q91 0 165.5 36t130.5 104t94 164.5t57.5 218.5t19.5 265q0 194 -69 285t-217 91h-82z" />
    <glyph glyph-name="uni018F" unicode="&#x18f;" 
d="M527 -30q-130 0 -228.5 55t-153.5 152t-55 223q0 92 25.5 181.5t73.5 174.5h874l-25 -144h-803l53 27q-28 -54 -41 -112.5t-13 -118.5q0 -142 79.5 -220t221.5 -78q122 0 209 59t144.5 155t90 208.5t46 221t13.5 191.5q0 194 -72.5 285.5t-223.5 91.5q-114 0 -214 -58.5
t-165 -163.5l-122 76q84 137 217.5 211.5t293.5 74.5q205 0 318.5 -133.5t113.5 -375.5q0 -113 -20 -245.5t-66 -263t-121.5 -237.5t-186.5 -172t-263 -65z" />
    <glyph glyph-name="uni0198" unicode="&#x198;" 
d="M950 -10q-70 0 -115 37.5t-89 103.5l-408 604v5l457 516q69 78 121.5 123t102.5 64t108 19q68 0 117.5 -27.5t86.5 -87.5l-116 -82q-18 29 -40 43t-58 14q-30 0 -59.5 -12.5t-67.5 -46t-96 -97.5l-417 -462l14 56l370 -545q32 -46 66.5 -64.5t82.5 -18.5h48l-22 -128
q-38 -14 -86 -14zM66 0l252 1432h146l-252 -1432h-146z" />
    <glyph glyph-name="uni0199" unicode="&#x199;" 
d="M104 0l203 1150q28 156 123 242t239 86q84 0 146 -27t121 -89l-100 -101q-42 44 -81 61.5t-95 17.5q-178 0 -215 -208l-200 -1132h-141zM782 0l-443 560l1 6l576 479h206l-665 -546l20 112l487 -611h-182z" />
    <glyph glyph-name="Ohorn" unicode="&#x1a0;" 
d="M554 -30q-140 0 -241 65.5t-155 184.5t-54 281q0 146 26 286t77 262t127 215t176.5 145.5t224.5 52.5q132 0 227 -67t146 -186.5t51 -277.5q0 -154 -23.5 -296t-71 -263t-120 -211.5t-170 -140.5t-220.5 -50zM558 110q101 0 177 48t128.5 130.5t85 187t47.5 220t15 227.5
q0 197 -68.5 298t-211.5 101q-103 0 -181.5 -49.5t-135 -134t-92.5 -190.5t-53 -219.5t-17 -219.5q0 -196 77.5 -297.5t228.5 -101.5zM1040 1218l-51 87q107 33 155 82.5t48 123.5q0 47 -21.5 89t-69.5 89l147 103q110 -121 110 -256q0 -116 -80 -196.5t-238 -121.5z" />
    <glyph glyph-name="ohorn" unicode="&#x1a1;" 
d="M548 -30q-127 0 -222 56t-147.5 159t-52.5 243q0 113 33 227.5t99.5 209.5t167 152.5t235.5 57.5q129 0 221.5 -55t141.5 -157.5t49 -245.5q0 -113 -30.5 -227.5t-94 -209.5t-163 -152.5t-237.5 -57.5zM556 106q98 0 168 49t114.5 127t65.5 166t21 165q0 159 -68.5 242.5
t-203.5 83.5q-102 0 -174 -49t-117.5 -127t-66.5 -165.5t-21 -165.5q0 -156 75 -241t207 -85zM963 811l-44 84q183 48 183 198q0 95 -90 191l141 106q113 -118 113 -266q0 -118 -76.5 -195.5t-226.5 -117.5z" />
    <glyph glyph-name="Uhorn" unicode="&#x1af;" 
d="M482 -30q-112 0 -199.5 48.5t-137.5 133.5t-50 193q0 29 3 59t9 65l170 963h146l-170 -965q-6 -32 -9 -59.5t-3 -50.5q0 -118 64 -182.5t181 -64.5t192.5 78.5t101.5 227.5l179 1016h70q78 0 121 32.5t43 92.5q0 35 -13 65.5t-42 62.5l137 107q84 -94 84 -210
q0 -74 -39.5 -131t-110 -89t-163.5 -32q-11 0 -22.5 1.5t-25.5 4.5l103 73l-180 -1019q-35 -200 -150 -310t-289 -110z" />
    <glyph glyph-name="uhorn" unicode="&#x1b0;" 
d="M467 -30q-121 0 -196 81.5t-75 213.5q0 34 4.5 76t15.5 103l89 502l11 -22h-219l21 121h350l-107 -609q-11 -63 -15 -101t-4 -74q0 -76 40.5 -117.5t115.5 -41.5q117 0 203 127.5t127 360.5l80 455h62q76 0 118.5 32t42.5 88q0 54 -43 110l144 94q33 -41 49 -84.5
t16 -91.5q0 -73 -35.5 -126.5t-100.5 -82.5t-155 -29q-33 0 -78 9l118 47l-93 -527q-17 -97 -24 -153t-7 -97q0 -102 105 -102h64l-22 -128q-41 -14 -86 -14q-82 0 -126 46.5t-44 132.5q0 26 6 65t20 105l51 -74l-74 15q-61 -157 -147 -233.5t-202 -76.5z" />
    <glyph glyph-name="uni01B3" unicode="&#x1b3;" 
d="M437 539l-235 893h156l123 -517l42 -214h6l115 214l186 320q71 123 142 175t168 52q59 0 105.5 -24.5t89.5 -76.5l-99 -93q-23 27 -46.5 40.5t-55.5 13.5q-50 0 -90 -33t-88 -113l-381 -637h-138zM338 0l106 600h146l-106 -600h-146z" />
    <glyph glyph-name="uni01B4" unicode="&#x1b4;" 
d="M90 -440q-137 0 -226 94l92 100q57 -60 140 -60q56 0 97 34.5t79 112.5l136 278h26l97 251l311 667q75 161 158.5 237t197.5 76q70 0 118.5 -25.5t90.5 -82.5l-96 -88q-46 62 -112 62q-62 0 -111 -47.5t-105 -161.5l-584 -1190q-67 -138 -139 -197.5t-170 -59.5zM363 -52
l-195 1097h145l107 -675l24 -208h59z" />
    <glyph glyph-name="uni01C4" unicode="&#x1c4;" 
d="M-44 0l253 1432h170q161 0 242.5 -107t81.5 -304q0 -101 -10 -215.5t-34 -229t-64.5 -218t-101.5 -184.5t-144.5 -127.5t-194.5 -46.5h-198zM113 128h60q71 0 127.5 42t100.5 113.5t75.5 163t51.5 191t29.5 197.5t9.5 182q0 150 -44.5 218.5t-142.5 68.5h-60zM556 0
l18 102l584 1196h-346l24 134h500l-18 -102l-584 -1196h390l-24 -134h-544zM1056 1638l-167 344v10h140l117 -275h-24l205 275h160l-2 -10l-289 -344h-140z" />
    <glyph glyph-name="uni01C5" unicode="&#x1c5;" 
d="M-52 0l253 1432h170q161 0 242.5 -107t81.5 -304q0 -101 -10 -215.5t-34 -229t-64.5 -218t-101.5 -184.5t-144.5 -127.5t-194.5 -46.5h-198zM105 128h60q71 0 127.5 42t100.5 113.5t75.5 163t51.5 191t29.5 197.5t9.5 182q0 150 -44.5 218.5t-142.5 68.5h-60zM594 0
l20 110l480 799h-311l24 136h470l-20 -110l-480 -799h345l-24 -136h-504zM1003 1251l-131 344v10h140l83 -275h-30l181 275h152l-2 -10l-253 -344h-140z" />
    <glyph glyph-name="uni01C6" unicode="&#x1c6;" 
d="M216 -30q-100 0 -158 87t-58 239q0 84 14.5 187.5t44 207.5t75 191t107.5 140t141 53q52 0 87.5 -29.5t63.5 -92.5h79l-80 -63l100 570h136l-172 -973q-11 -64 -17 -116.5t-8 -101.5t-2 -105v-164h-120v66q0 36 7 77.5t29 121.5l27 -41l-48 11q-46 -136 -102.5 -200.5
t-145.5 -64.5zM249 104q81 0 133.5 118.5t87.5 317.5l46 260q-16 70 -42 105.5t-70 35.5q-53 0 -95.5 -45t-74 -118t-52.5 -158.5t-31.5 -167t-10.5 -142.5q0 -107 26.5 -156.5t82.5 -49.5zM634 0v106l463 803h-325l24 136h484l-19 -106l-463 -803h334l-24 -136h-474z
M1011 1251l-131 344v10h140l83 -275h-30l181 275h152l-2 -10l-253 -344h-140z" />
    <glyph glyph-name="uni01C7" unicode="&#x1c7;" 
d="M795 -30q-79 0 -151 32.5t-125 90.5l94 101q77 -84 184 -84q154 0 186 183l201 1139h146l-204 -1156q-26 -148 -111.5 -227t-219.5 -79zM-66 0l253 1432h146l-228 -1294h365l-25 -138h-511z" />
    <glyph glyph-name="uni01C8" unicode="&#x1c8;" 
d="M627 -440q-89 0 -170 30t-152 94l85 109q109 -99 239 -99q205 0 248 241l195 1110h140l-201 -1140q-29 -166 -128 -255.5t-256 -89.5zM-16 0l252 1432h146l-228 -1294h475l-24 -138h-621zM639 923l21 122h482l-21 -122h-482zM1183 1289q-56 0 -97 41t-41 98q0 56 40 96
t98 40q59 0 97.5 -39t38.5 -98q0 -58 -39.5 -98t-96.5 -40z" />
    <glyph glyph-name="uni01C9" unicode="&#x1c9;" 
d="M507 0q-125 0 -199.5 73.5t-74.5 187.5q0 30 5 69t15 94l165 939l22 -25h-276l21 122h390l-184 -1044q-9 -51 -13.5 -86.5t-4.5 -62.5q0 -60 35 -96.5t97 -36.5q93 0 182 89l83 -100q-123 -123 -263 -123zM667 -440q-79 0 -151.5 27.5t-132.5 79.5l83 108q93 -81 203 -81
q95 0 149.5 58.5t76.5 182.5l195 1110h140l-201 -1140q-29 -165 -122.5 -255t-239.5 -90zM767 923l21 122h379l-21 -122h-379zM1201 1289q-56 0 -97 41t-41 98q0 56 40 96t98 40q59 0 97.5 -39t38.5 -98q0 -58 -39.5 -98t-96.5 -40z" />
    <glyph glyph-name="uni01CA" unicode="&#x1ca;" 
d="M-66 0l253 1432h176l92 -1176h8l66 512l117 664h130l-253 -1432h-160l-97 1227h-8l-68 -512l-126 -715h-130zM836 -30q-139 0 -237 113l97 93q61 -72 144 -72q116 0 141 145l209 1183h140l-212 -1201q-22 -123 -96 -192t-186 -69z" />
    <glyph glyph-name="uni01CB" unicode="&#x1cb;" 
d="M-66 0l252 1432h176l179 -1166h8l54 492l118 674h134l-252 -1432h-150l-186 1227h-8l-61 -492l-130 -735h-134zM671 -440q-158 0 -263 108l89 103q75 -77 172 -77q150 0 185 197l203 1154h140l-208 -1181q-25 -145 -107.5 -224.5t-210.5 -79.5zM1195 1289q-56 0 -97 41
t-41 98q0 56 40 96t98 40q59 0 97.5 -39t38.5 -98q0 -58 -39.5 -98t-96.5 -40z" />
    <glyph glyph-name="uni01CC" unicode="&#x1cc;" 
d="M670 -440q-80 0 -152.5 30.5t-124.5 80.5l90 103q40 -39 85 -59.5t100 -20.5q164 0 198 196l203 1155h140l-208 -1182q-25 -145 -111.5 -224t-219.5 -79zM640 -10q-64 0 -102 37.5t-38 101.5q0 27 5.5 60.5t21.5 100.5l86 358q12 51 18.5 92.5t6.5 75.5q0 129 -120 129
q-109 0 -189.5 -111t-112.5 -290l-96 -544h-140l184 1045h128l-37 -210l-60 60h79q62 89 136.5 134.5t159.5 45.5q107 0 159 -66t52 -177q0 -42 -6.5 -87.5t-20.5 -102.5l-83 -345q-18 -78 -18 -115q0 -60 64 -60h40l-20 -114q-49 -18 -97 -18zM1207 1289q-56 0 -97 41
t-41 98q0 56 40 96t98 40q59 0 97.5 -39t38.5 -98q0 -58 -39.5 -98t-96.5 -40z" />
    <glyph glyph-name="uni01EA" unicode="&#x1ea;" 
d="M554 -30q-140 0 -241 65.5t-155 184.5t-54 281q0 146 26 286t77 262t127 215t176.5 145.5t224.5 52.5q203 0 313.5 -141.5t110.5 -389.5q0 -154 -23.5 -296t-71 -263t-120 -211.5t-170 -140.5t-220.5 -50zM558 110q101 0 177 48t128.5 130.5t85 187t47.5 220t15 227.5
q0 197 -68.5 298t-211.5 101q-103 0 -181.5 -49.5t-135 -134t-92.5 -190.5t-53 -219.5t-17 -219.5q0 -196 77.5 -297.5t228.5 -101.5zM594 -499q-106 0 -172.5 62t-66.5 158q0 125 99.5 218.5t307.5 169.5l31 -78q-157 -70 -228.5 -139.5t-71.5 -150.5q0 -54 34 -85t93 -31
q58 0 112 25l20 -111q-41 -19 -77.5 -28.5t-80.5 -9.5z" />
    <glyph glyph-name="uni01EB" unicode="&#x1eb;" 
d="M548 -30q-127 0 -222 56t-147.5 159t-52.5 243q0 113 33 227.5t99.5 209.5t167 152.5t235.5 57.5q129 0 221.5 -55t141.5 -157.5t49 -245.5q0 -113 -30.5 -227.5t-94 -209.5t-163 -152.5t-237.5 -57.5zM556 106q98 0 168 49t114.5 127t65.5 166t21 165q0 159 -68.5 242.5
t-203.5 83.5q-102 0 -174 -49t-117.5 -127t-66.5 -165.5t-21 -165.5q0 -156 75 -241t207 -85zM576 -507q-106 0 -172.5 62t-66.5 158q0 125 99.5 218.5t307.5 169.5l31 -78q-157 -70 -228.5 -139.5t-71.5 -150.5q0 -54 34 -85t93 -31q58 0 112 25l20 -111
q-41 -19 -77.5 -28.5t-80.5 -9.5z" />
    <glyph glyph-name="uni01F8" unicode="&#x1f8;" 
d="M28 0l252 1432h150l467 -1156h4l46 332l145 824h148l-252 -1432h-122l-487 1202h-4l-46 -332l-153 -870h-148zM698 1638l-146 344l2 10h170l106 -344l-2 -10h-130z" />
    <glyph glyph-name="uni01F9" unicode="&#x1f9;" 
d="M929 -10q-84 0 -134.5 48t-50.5 130q0 20 3.5 46t15.5 76l81 337q12 51 18.5 92.5t6.5 75.5q0 70 -40.5 109t-112.5 39q-90 0 -167.5 -50.5t-131.5 -141t-75 -209.5l-96 -542h-144l184 1045h143l-40 -226l-60 54h79q151 202 354 202q117 0 184.5 -72.5t67.5 -197.5
q0 -40 -5.5 -84.5t-19.5 -99.5l-78 -324q-8 -35 -12.5 -57t-4.5 -40q0 -78 89 -78h64l-20 -114q-46 -18 -98 -18zM665 1251l-146 344l2 10h170l106 -344l-2 -10h-130z" />
    <glyph glyph-name="AEacute" unicode="&#x1fc;" 
d="M-82 0l788 1432h211l-97 -152h-77l-96 -208l-574 -1072h-155zM236 395l49 142h386l-25 -142h-410zM526 0l252 1432h546l-24 -136h-404l-204 -1160h420l-24 -136h-562zM724 667l24 136h395l-24 -136h-395zM971 1638l2 10l226 344h190l-2 -10l-266 -344h-150z" />
    <glyph glyph-name="aeacute" unicode="&#x1fd;" 
d="M274 -30q-121 0 -197 83.5t-76 232.5q0 102 41.5 186t118 133.5t181.5 49.5q64 0 120 -17t98 -50l-22 -125q-43 35 -88 48.5t-98 13.5q-74 0 -121 -35.5t-68.5 -90t-21.5 -112.5q0 -85 41 -134t111 -49q85 0 138.5 82t84.5 259l45 254q5 24 6.5 45.5t1.5 40.5
q0 156 -142 156q-51 0 -99.5 -23t-93.5 -75l-97 92q125 140 293 140q120 0 186.5 -69.5t66.5 -206.5h-60q48 128 140 202t198 74q124 0 182.5 -71.5t58.5 -172.5q0 -202 -161.5 -302.5t-433.5 -100.5l-13 115q247 9 358 78.5t111 198.5q0 50 -26.5 85.5t-88.5 35.5
q-68 0 -119 -40.5t-86.5 -106t-57 -142.5t-31.5 -151.5t-10 -131.5q0 -124 43.5 -194.5t119.5 -70.5q53 0 103.5 34t96.5 116l108 -65q-70 -119 -150 -169t-169 -50q-81 0 -140 43t-89.5 112t-28.5 147l55 20q-37 -159 -121 -240.5t-198 -81.5zM675 1251l2 10l226 344h190
l-2 -10l-266 -344h-150z" />
    <glyph glyph-name="uni0218" unicode="&#x218;" 
d="M605 -30q-207 0 -349.5 105t-183.5 289l148 35q29 -138 130 -213.5t258 -75.5q143 0 223 69.5t80 191.5q0 96 -49 158t-166 114l-176 79q-118 53 -181 141.5t-63 209.5q0 118 57 205t160 135.5t242 48.5q172 0 291 -83t168 -237l-146 -41q-69 221 -319 221
q-141 0 -224 -67t-83 -176q0 -79 40 -133.5t137 -98.5l176 -79q139 -62 210.5 -159.5t71.5 -231.5q0 -123 -56 -214.5t-157.5 -142t-238.5 -50.5zM334 -769l-60 99q77 47 134.5 98.5t103.5 127.5l1 -27q-69 4 -112 42.5t-43 101.5q0 60 43 101t105 41q68 0 109.5 -42.5
t41.5 -116.5t-46 -152.5t-120 -149.5t-157 -123z" />
    <glyph glyph-name="uni0219" unicode="&#x219;" 
d="M594 -30q-136 0 -259.5 53.5t-215.5 151.5l92 105q162 -174 385 -174q105 0 166.5 44.5t61.5 120.5q0 123 -175 177l-151 46q-115 35 -178.5 109t-63.5 173q0 87 46.5 154.5t128.5 106t187 38.5q124 0 220.5 -39.5t184.5 -124.5l-92 -105q-72 71 -144.5 102t-170.5 31
q-93 0 -152.5 -44t-59.5 -113q0 -60 39 -97t131 -66l151 -46q122 -37 184.5 -111.5t62.5 -182.5q0 -91 -48 -161t-133 -109t-197 -39zM321 -769l-60 99q77 47 134.5 98.5t103.5 127.5l1 -27q-69 4 -112 42.5t-43 101.5q0 60 43 101t105 41q68 0 109.5 -42.5t41.5 -116.5
t-46 -152.5t-120 -149.5t-157 -123z" />
    <glyph glyph-name="uni021A" unicode="&#x21a;" 
d="M435 0l242 1372h146l-242 -1372h-146zM254 1294l24 138h964l-24 -138h-964zM264 -769l-60 99q77 47 134.5 98.5t103.5 127.5l1 -27q-69 4 -112 42.5t-43 101.5q0 60 43 101t105 41q68 0 109.5 -42.5t41.5 -116.5t-46 -152.5t-120 -149.5t-157 -123z" />
    <glyph glyph-name="uni021B" unicode="&#x21b;" 
d="M703 -30q-148 0 -233.5 85t-85.5 221q0 23 3.5 55t9.5 68l164 927h143l-166 -938q-6 -33 -8.5 -59t-2.5 -48q0 -85 46 -130t132 -45q59 0 111.5 20t107.5 63l71 -115q-67 -51 -140.5 -77.5t-151.5 -26.5zM191 913l23 132h892l-23 -132h-892zM367 -799l-60 99
q77 47 134.5 98.5t103.5 127.5l1 -27q-69 4 -112 42.5t-43 101.5q0 60 43 101t105 41q68 0 109.5 -42.5t41.5 -116.5t-46 -152.5t-120 -149.5t-157 -123z" />
    <glyph glyph-name="uni0237" unicode="&#x237;" 
d="M311 -440q-184 0 -334 128l85 109q117 -101 251 -101q204 0 247 239l196 1110h140l-201 -1140q-29 -166 -128 -255.5t-256 -89.5zM323 923l21 122h519l-21 -122h-519z" />
    <glyph glyph-name="uni0253" unicode="&#x253;" 
d="M569 -30q-199 0 -306 175h-36l38 50l-45 -195h-121l195 1131q29 165 131 256t258 91q164 0 278 -129l-100 -95q-40 46 -83 66t-103 20q-202 0 -243 -228l-49 -276l-62 29h78q135 210 332 210q144 0 226.5 -108.5t82.5 -297.5q0 -203 -61 -361t-167 -248t-243 -90z
M534 102q114 0 196 73.5t126 201t44 288.5q0 278 -204 278q-134 0 -236 -122.5t-138 -329.5l-41 -233q39 -74 106 -115t147 -41z" />
    <glyph glyph-name="uni0257" unicode="&#x257;" 
d="M402 -30q-160 0 -254.5 115.5t-94.5 311.5q0 192 64.5 345.5t175 243t247.5 89.5q98 0 166.5 -47t114.5 -147h75l-76 -64l53 369q20 143 93 217.5t193 74.5q69 0 119.5 -25t98.5 -83l-98 -94q-30 35 -57 49.5t-65 14.5q-119 0 -146 -172l-107 -684q-16 -101 -23 -155
t-7 -95q0 -102 105 -102h64l-22 -128q-20 -7 -41 -10.5t-45 -3.5q-82 0 -126 46.5t-44 132.5q0 26 6.5 66t19.5 104l51 -74l-74 15q-55 -151 -149 -230.5t-217 -79.5zM415 102q128 0 224.5 122t133.5 330l30 170q-32 114 -90.5 166.5t-152.5 52.5q-102 0 -184 -72
t-130.5 -195t-48.5 -276q0 -142 57 -220t161 -78z" />
    <glyph glyph-name="uni0259" unicode="&#x259;" 
d="M507 -30q-155 0 -251 79t-96 206q0 201 191.5 290.5t612.5 89.5l13 -120q-249 -6 -396.5 -33t-212 -80t-64.5 -137q0 -76 54.5 -117.5t154.5 -41.5q104 0 181 45.5t127.5 120.5t75.5 166t25 182q0 145 -64.5 231t-204.5 86q-97 0 -176.5 -37t-157.5 -118l-101 102
q95 99 201 145t238 46t223 -57.5t138.5 -159t47.5 -234.5q0 -111 -33.5 -226t-102.5 -212t-174 -156.5t-249 -59.5z" />
    <glyph glyph-name="uni02BB" unicode="&#x2bb;" 
d="M919 1835l60 -99q-77 -47 -134.5 -98t-103.5 -128l-1 27q69 -4 112 -42.5t43 -101.5q0 -60 -43 -101t-105 -41q-67 0 -109 43t-42 116q0 74 46 152.5t120 150t157 122.5z" />
    <glyph glyph-name="uni02BC" unicode="&#x2bc;" 
d="M461 882l358 578h222l-410 -578h-170z" />
    <glyph glyph-name="circumflex" unicode="&#x2c6;" 
d="M382 1251l2 10l326 344h160l206 -344l-2 -10h-152l-154 275h36l-250 -275h-172z" />
    <glyph glyph-name="caron" unicode="&#x2c7;" 
d="M649 1251l-206 344l2 10h152l148 -275h-24l244 275h172l-2 -10l-326 -344h-160z" />
    <glyph glyph-name="breve" unicode="&#x2d8;" 
d="M746 1250q-90 0 -157.5 34t-105 96t-37.5 145q0 17 2 34.5t6 45.5h133q-4 -28 -5.5 -42.5t-1.5 -25.5q0 -73 43.5 -115t125.5 -42q93 0 150.5 47t79.5 178h147q-19 -138 -74 -215t-134.5 -108.5t-171.5 -31.5z" />
    <glyph glyph-name="dotaccent" unicode="&#x2d9;" 
d="M759 1289q-60 0 -99.5 41t-39.5 99q0 59 39.5 98.5t99.5 39.5t100.5 -39.5t40.5 -98.5q0 -58 -40.5 -99t-100.5 -41z" />
    <glyph glyph-name="ring" unicode="&#x2da;" 
d="M620 1197.5q-62 34.5 -98 95t-36 136.5q0 77 36 137t98 94.5t140.5 34.5t140 -34.5t97.5 -94.5t36 -137q0 -76 -36 -136.5t-97.5 -95t-140 -34.5t-140.5 34.5zM860.5 1327.5q39.5 40.5 39.5 102t-39.5 101.5t-100.5 40t-100.5 -40t-39.5 -101.5t39.5 -102t100.5 -40.5
t100.5 40.5z" />
    <glyph glyph-name="ogonek" unicode="&#x2db;" 
d="M480 -530q-106 0 -172.5 62t-66.5 158q0 125 99.5 218.5t307.5 169.5l31 -78q-157 -70 -228.5 -139.5t-71.5 -150.5q0 -54 34 -85t93 -31q58 0 112 25l20 -111q-41 -19 -77.5 -28.5t-80.5 -9.5z" />
    <glyph glyph-name="tilde" unicode="&#x2dc;" 
d="M910 1264q-60 0 -104 26.5t-91 102.5q-32 51 -52.5 67.5t-48.5 16.5q-35 0 -55 -27t-30 -84l-17 -97h-130l17 97q20 114 72 177.5t141 63.5q60 0 104.5 -26.5t90.5 -102.5q32 -51 52.5 -67.5t48.5 -16.5q35 0 55 27t30 84l17 97h130l-17 -97q-20 -114 -72 -177.5
t-141 -63.5z" />
    <glyph glyph-name="hungarumlaut" unicode="&#x2dd;" 
d="M736 1251l2 10l226 344h190l-2 -10l-266 -344h-150zM366 1251l2 10l226 344h190l-2 -10l-266 -344h-150z" />
    <glyph glyph-name="gravecomb" unicode="&#x300;" horiz-adv-x="0" 
d="M67 1251l-146 344l2 10h170l106 -344l-2 -10h-130z" />
    <glyph glyph-name="acutecomb" unicode="&#x301;" horiz-adv-x="0" 
d="M58 1251l2 10l226 344h190l-2 -10l-266 -344h-150z" />
    <glyph glyph-name="uni0302" unicode="&#x302;" horiz-adv-x="0" 
d="M-217 1251l2 10l326 344h160l206 -344l-2 -10h-152l-154 275h36l-250 -275h-172z" />
    <glyph glyph-name="tildecomb" unicode="&#x303;" horiz-adv-x="0" 
d="M309 1264q-60 0 -104 26.5t-91 102.5q-32 51 -52.5 67.5t-48.5 16.5q-35 0 -55 -27t-30 -84l-17 -97h-130l17 97q20 114 72 177.5t141 63.5q60 0 104.5 -26.5t90.5 -102.5q32 -51 52.5 -67.5t48.5 -16.5q35 0 55 27t30 84l17 97h130l-17 -97q-20 -114 -72 -177.5
t-141 -63.5z" />
    <glyph glyph-name="uni0304" unicode="&#x304;" horiz-adv-x="0" 
d="M-170 1348l25 138h630l-25 -138h-630z" />
    <glyph glyph-name="uni0306" unicode="&#x306;" horiz-adv-x="0" 
d="M149 1250q-90 0 -157.5 34t-105 96t-37.5 145q0 17 2 34.5t6 45.5h133q-4 -28 -5.5 -42.5t-1.5 -25.5q0 -73 43.5 -115t125.5 -42q93 0 150.5 47t79.5 178h147q-19 -138 -74 -215t-134.5 -108.5t-171.5 -31.5z" />
    <glyph glyph-name="uni0307" unicode="&#x307;" horiz-adv-x="0" 
d="M160 1289q-60 0 -99.5 41t-39.5 99q0 59 39.5 98.5t99.5 39.5t100.5 -39.5t40.5 -98.5q0 -58 -40.5 -99t-100.5 -41z" />
    <glyph glyph-name="uni0308" unicode="&#x308;" horiz-adv-x="0" 
d="M-49 1289q-55 0 -93 38.5t-38 93.5q0 54 38.5 92t92.5 38q56 0 94.5 -37.5t38.5 -92.5t-38.5 -93.5t-94.5 -38.5zM351 1289q-55 0 -93 38.5t-38 93.5q0 54 38.5 92t92.5 38q56 0 94.5 -37.5t38.5 -92.5t-38.5 -93.5t-94.5 -38.5z" />
    <glyph glyph-name="hookabovecomb" unicode="&#x309;" horiz-adv-x="0" 
d="M108 1183v126q208 0 208 121q0 50 -32 75t-103 25q-91 0 -160 -19l-15 129q44 13 90 19.5t93 6.5q117 0 186 -61t69 -166q0 -115 -88 -183.5t-248 -72.5z" />
    <glyph glyph-name="uni030A" unicode="&#x30a;" horiz-adv-x="0" 
d="M19 1197.5q-62 34.5 -98 95t-36 136.5q0 77 36 137t98 94.5t140.5 34.5t140 -34.5t97.5 -94.5t36 -137q0 -76 -36 -136.5t-97.5 -95t-140 -34.5t-140.5 34.5zM259.5 1327.5q39.5 40.5 39.5 102t-39.5 101.5t-100.5 40t-100.5 -40t-39.5 -101.5t39.5 -102t100.5 -40.5
t100.5 40.5z" />
    <glyph glyph-name="uni030B" unicode="&#x30b;" horiz-adv-x="0" 
d="M238 1251l2 10l226 344h190l-2 -10l-266 -344h-150zM-132 1251l2 10l226 344h190l-2 -10l-266 -344h-150z" />
    <glyph glyph-name="uni030C" unicode="&#x30c;" horiz-adv-x="0" 
d="M48 1251l-206 344l2 10h152l148 -275h-24l244 275h172l-2 -10l-326 -344h-160z" />
    <glyph glyph-name="uni0312" unicode="&#x312;" horiz-adv-x="0" 
d="M325 1835l60 -99q-77 -47 -134.5 -98t-103.5 -128l-1 27q69 -4 112 -42.5t43 -101.5q0 -60 -43 -101t-105 -41q-67 0 -109 43t-42 116q0 74 46 152.5t120 150t157 122.5z" />
    <glyph glyph-name="uni031B" unicode="&#x31b;" horiz-adv-x="0" 
d="M84 1340l16 92h38q77 0 119.5 31t42.5 87q0 53 -42 108l154 101q63 -78 63 -175q0 -71 -40 -126.5t-110 -86.5t-161 -31h-80z" />
    <glyph glyph-name="dotbelowcomb" unicode="&#x323;" horiz-adv-x="0" 
d="M-6 -463q-60 0 -99.5 41t-39.5 99q0 59 39.5 98.5t99.5 39.5t100.5 -39.5t40.5 -98.5q0 -58 -40.5 -99t-100.5 -41z" />
    <glyph glyph-name="uni0326" unicode="&#x326;" horiz-adv-x="0" 
d="M-325 -769l-60 99q77 47 134.5 98.5t103.5 127.5l1 -27q-69 4 -112 42.5t-43 101.5q0 60 43 101t105 41q68 0 109.5 -42.5t41.5 -116.5t-46 -152.5t-120 -149.5t-157 -123z" />
    <glyph glyph-name="uni0327" unicode="&#x327;" horiz-adv-x="0" 
d="M-15 -600q-87 0 -161 39t-118 109l107 74q66 -108 174 -108q71 0 111.5 38t40.5 105q0 56 -29.5 85t-84.5 29q-64 0 -115 -45l-74 73l169 213h112l-170 -210l-56 1q44 36 87 53t92 17q90 0 143.5 -57t53.5 -155q0 -76 -36.5 -135t-100 -92.5t-145.5 -33.5z" />
    <glyph glyph-name="uni0328" unicode="&#x328;" horiz-adv-x="0" 
d="M-90 -530q-106 0 -172.5 62t-66.5 158q0 125 99.5 218.5t307.5 169.5l31 -78q-157 -70 -228.5 -139.5t-71.5 -150.5q0 -54 34 -85t93 -31q58 0 112 25l20 -111q-41 -19 -77.5 -28.5t-80.5 -9.5z" />
    <glyph glyph-name="uni0329" unicode="&#x329;" horiz-adv-x="0" 
d="M-279 -595l70 400h166l-70 -400h-166z" />
    <glyph glyph-name="uni1E44" unicode="&#x1e44;" 
d="M28 0l252 1432h150l467 -1156h4l46 332l145 824h148l-252 -1432h-122l-487 1202h-4l-46 -332l-153 -870h-148zM790 1676q-60 0 -99.5 41t-39.5 99q0 59 39.5 98.5t99.5 39.5t100.5 -39.5t40.5 -98.5q0 -58 -40.5 -99t-100.5 -41z" />
    <glyph glyph-name="uni1E45" unicode="&#x1e45;" 
d="M929 -10q-84 0 -134.5 48t-50.5 130q0 20 3.5 46t15.5 76l81 337q12 51 18.5 92.5t6.5 75.5q0 70 -40.5 109t-112.5 39q-90 0 -167.5 -50.5t-131.5 -141t-75 -209.5l-96 -542h-144l184 1045h143l-40 -226l-60 54h79q151 202 354 202q117 0 184.5 -72.5t67.5 -197.5
q0 -40 -5.5 -84.5t-19.5 -99.5l-78 -324q-8 -35 -12.5 -57t-4.5 -40q0 -78 89 -78h64l-20 -114q-46 -18 -98 -18zM757 1289q-60 0 -99.5 41t-39.5 99q0 59 39.5 98.5t99.5 39.5t100.5 -39.5t40.5 -98.5q0 -58 -40.5 -99t-100.5 -41z" />
    <glyph glyph-name="uni1E62" unicode="&#x1e62;" 
d="M605 -30q-207 0 -349.5 105t-183.5 289l148 35q29 -138 130 -213.5t258 -75.5q143 0 223 69.5t80 191.5q0 96 -49 158t-166 114l-176 79q-118 53 -181 141.5t-63 209.5q0 118 57 205t160 135.5t242 48.5q172 0 291 -83t168 -237l-146 -41q-69 221 -319 221
q-141 0 -224 -67t-83 -176q0 -79 40 -133.5t137 -98.5l176 -79q139 -62 210.5 -159.5t71.5 -231.5q0 -123 -56 -214.5t-157.5 -142t-238.5 -50.5zM509 -463q-60 0 -99.5 41t-39.5 99q0 59 39.5 98.5t99.5 39.5t100.5 -39.5t40.5 -98.5q0 -58 -40.5 -99t-100.5 -41z" />
    <glyph glyph-name="uni1E63" unicode="&#x1e63;" 
d="M594 -30q-136 0 -259.5 53.5t-215.5 151.5l92 105q162 -174 385 -174q105 0 166.5 44.5t61.5 120.5q0 123 -175 177l-151 46q-115 35 -178.5 109t-63.5 173q0 87 46.5 154.5t128.5 106t187 38.5q124 0 220.5 -39.5t184.5 -124.5l-92 -105q-72 71 -144.5 102t-170.5 31
q-93 0 -152.5 -44t-59.5 -113q0 -60 39 -97t131 -66l151 -46q122 -37 184.5 -111.5t62.5 -182.5q0 -91 -48 -161t-133 -109t-197 -39zM496 -463q-60 0 -99.5 41t-39.5 99q0 59 39.5 98.5t99.5 39.5t100.5 -39.5t40.5 -98.5q0 -58 -40.5 -99t-100.5 -41z" />
    <glyph glyph-name="Wgrave" unicode="&#x1e80;" 
d="M138 0l56 1432h142l-67 -1180h6l110 295l256 603h132l46 -603v-295h6l348 1180h153l-447 -1432h-142l-58 733l-1 190h-6l-77 -190l-323 -733h-134zM731 1638l-146 344l2 10h170l106 -344l-2 -10h-130z" />
    <glyph glyph-name="wgrave" unicode="&#x1e81;" 
d="M176 0l-42 1045h135l5 -771l-1 -118h5l40 118l270 653h157l44 -650l-2 -121h6l38 121l275 768h144l-411 -1045h-154l-37 649v132h-6l-45 -132l-265 -649h-156zM664 1251l-146 344l2 10h170l106 -344l-2 -10h-130z" />
    <glyph glyph-name="Wacute" unicode="&#x1e82;" 
d="M138 0l56 1432h142l-67 -1180h6l110 295l256 603h132l46 -603v-295h6l348 1180h153l-447 -1432h-142l-58 733l-1 190h-6l-77 -190l-323 -733h-134zM721 1638l2 10l226 344h190l-2 -10l-266 -344h-150z" />
    <glyph glyph-name="wacute" unicode="&#x1e83;" 
d="M176 0l-42 1045h135l5 -771l-1 -118h5l40 118l270 653h157l44 -650l-2 -121h6l38 121l275 768h144l-411 -1045h-154l-37 649v132h-6l-45 -132l-265 -649h-156zM654 1251l2 10l226 344h190l-2 -10l-266 -344h-150z" />
    <glyph glyph-name="Wdieresis" unicode="&#x1e84;" 
d="M138 0l56 1432h142l-67 -1180h6l110 295l256 603h132l46 -603v-295h6l348 1180h153l-447 -1432h-142l-58 733l-1 190h-6l-77 -190l-323 -733h-134zM614 1676q-55 0 -93 38.5t-38 93.5q0 54 38.5 92t92.5 38q56 0 94.5 -37.5t38.5 -92.5t-38.5 -93.5t-94.5 -38.5z
M1014 1676q-55 0 -93 38.5t-38 93.5q0 54 38.5 92t92.5 38q56 0 94.5 -37.5t38.5 -92.5t-38.5 -93.5t-94.5 -38.5z" />
    <glyph glyph-name="wdieresis" unicode="&#x1e85;" 
d="M176 0l-42 1045h135l5 -771l-1 -118h5l40 118l270 653h157l44 -650l-2 -121h6l38 121l275 768h144l-411 -1045h-154l-37 649v132h-6l-45 -132l-265 -649h-156zM547 1289q-55 0 -93 38.5t-38 93.5q0 54 38.5 92t92.5 38q56 0 94.5 -37.5t38.5 -92.5t-38.5 -93.5
t-94.5 -38.5zM947 1289q-55 0 -93 38.5t-38 93.5q0 54 38.5 92t92.5 38q56 0 94.5 -37.5t38.5 -92.5t-38.5 -93.5t-94.5 -38.5z" />
    <glyph glyph-name="uni1E9E" unicode="&#x1e9e;" 
d="M734 -30q-123 0 -222.5 60.5t-151.5 165.5l128 71q38 -76 100.5 -116.5t147.5 -40.5q79 0 131.5 37.5t82.5 95.5t43 123.5t13 120.5q0 125 -73.5 185t-229.5 60h-66l13 70l269 489q-88 35 -209 35q-149 0 -234 -74t-114 -236l-180 -1016h-144l184 1042q38 216 161.5 318
t334.5 102q110 0 196.5 -25.5t166.5 -76.5l-13 -74l-236 -429l-8 -53l-66 47q190 0 292 -92.5t102 -265.5q0 -78 -20.5 -168t-68 -171t-128 -132.5t-201.5 -51.5z" />
    <glyph glyph-name="uni1EA0" unicode="&#x1ea0;" 
d="M-20 0l695 1432h169l192 -1432h-152l-136 1122l-15 137h-6l-62 -137l-527 -1122h-158zM243 400l69 142h584l19 -142h-672zM473 -443q-60 0 -99.5 41t-39.5 99q0 59 39.5 98.5t99.5 39.5t100.5 -39.5t40.5 -98.5q0 -58 -40.5 -99t-100.5 -41z" />
    <glyph glyph-name="uni1EA1" unicode="&#x1ea1;" 
d="M440 -30q-160 0 -254.5 115.5t-94.5 311.5q0 192 64.5 345.5t175 243t247.5 89.5q98 0 166.5 -47t114.5 -147h75l-76 -64l43 245h144l-102 -578q-17 -97 -24 -153t-7 -97q0 -102 105 -102h64l-22 -128q-20 -7 -41 -10.5t-45 -3.5q-82 0 -126 46.5t-44 132.5q0 26 6.5 66
t19.5 104l51 -74l-74 15q-55 -151 -149 -230.5t-217 -79.5zM453 102q128 0 224.5 122t133.5 330l30 170q-32 114 -90.5 166.5t-152.5 52.5q-102 0 -184 -72t-130.5 -195t-48.5 -276q0 -142 57 -220t161 -78zM516 -493q-60 0 -99.5 41t-39.5 99q0 59 39.5 98.5t99.5 39.5
t100.5 -39.5t40.5 -98.5q0 -58 -40.5 -99t-100.5 -41z" />
    <glyph glyph-name="uni1EA2" unicode="&#x1ea2;" 
d="M-20 0l695 1432h169l192 -1432h-152l-136 1122l-15 137h-6l-62 -137l-527 -1122h-158zM243 400l69 142h584l19 -142h-672zM766 1570v126q208 0 208 121q0 50 -32 75t-103 25q-91 0 -160 -19l-15 129q44 13 90 19.5t93 6.5q117 0 186 -61t69 -166q0 -115 -88 -183.5
t-248 -72.5z" />
    <glyph glyph-name="uni1EA3" unicode="&#x1ea3;" 
d="M440 -30q-160 0 -254.5 115.5t-94.5 311.5q0 192 64.5 345.5t175 243t247.5 89.5q98 0 166.5 -47t114.5 -147h75l-76 -64l43 245h144l-102 -578q-17 -97 -24 -153t-7 -97q0 -102 105 -102h64l-22 -128q-20 -7 -41 -10.5t-45 -3.5q-82 0 -126 46.5t-44 132.5q0 26 6.5 66
t19.5 104l51 -74l-74 15q-55 -151 -149 -230.5t-217 -79.5zM453 102q128 0 224.5 122t133.5 330l30 170q-32 114 -90.5 166.5t-152.5 52.5q-102 0 -184 -72t-130.5 -195t-48.5 -276q0 -142 57 -220t161 -78zM650 1183v126q208 0 208 121q0 50 -32 75t-103 25q-91 0 -160 -19
l-15 129q44 13 90 19.5t93 6.5q117 0 186 -61t69 -166q0 -115 -88 -183.5t-248 -72.5z" />
    <glyph glyph-name="uni1EA4" unicode="&#x1ea4;" 
d="M-20 0l695 1432h169l192 -1432h-152l-136 1122l-15 137h-6l-62 -137l-527 -1122h-158zM243 400l69 142h584l19 -142h-672zM415 1550l2 10l333 328h160l219 -328l-2 -10h-156l-164 261h36l-252 -261h-176zM1021 1849v10l187 344h178v-10l-234 -344h-131z" />
    <glyph glyph-name="uni1EA5" unicode="&#x1ea5;" 
d="M440 -30q-160 0 -254.5 115.5t-94.5 311.5q0 192 64.5 345.5t175 243t247.5 89.5q98 0 166.5 -47t114.5 -147h75l-76 -64l43 245h144l-102 -578q-17 -97 -24 -153t-7 -97q0 -102 105 -102h64l-22 -128q-20 -7 -41 -10.5t-45 -3.5q-82 0 -126 46.5t-44 132.5q0 26 6.5 66
t19.5 104l51 -74l-74 15q-55 -151 -149 -230.5t-217 -79.5zM453 102q128 0 224.5 122t133.5 330l30 170q-32 114 -90.5 166.5t-152.5 52.5q-102 0 -184 -72t-130.5 -195t-48.5 -276q0 -142 57 -220t161 -78zM365 1233l2 10l333 328h160l219 -328l-2 -10h-156l-164 261h36
l-252 -261h-176zM971 1532v10l187 344h178v-10l-234 -344h-131z" />
    <glyph glyph-name="uni1EA6" unicode="&#x1ea6;" 
d="M-20 0l695 1432h169l192 -1432h-152l-136 1122l-15 137h-6l-62 -137l-527 -1122h-158zM243 400l69 142h584l19 -142h-672zM415 1550l2 10l333 328h160l219 -328l-2 -10h-156l-164 261h36l-252 -261h-176zM1122 1838l-154 344l2 10h170l106 -344l-2 -10h-122z" />
    <glyph glyph-name="uni1EA7" unicode="&#x1ea7;" 
d="M440 -30q-160 0 -254.5 115.5t-94.5 311.5q0 192 64.5 345.5t175 243t247.5 89.5q98 0 166.5 -47t114.5 -147h75l-76 -64l43 245h144l-102 -578q-17 -97 -24 -153t-7 -97q0 -102 105 -102h64l-22 -128q-20 -7 -41 -10.5t-45 -3.5q-82 0 -126 46.5t-44 132.5q0 26 6.5 66
t19.5 104l51 -74l-74 15q-55 -151 -149 -230.5t-217 -79.5zM453 102q128 0 224.5 122t133.5 330l30 170q-32 114 -90.5 166.5t-152.5 52.5q-102 0 -184 -72t-130.5 -195t-48.5 -276q0 -142 57 -220t161 -78zM365 1233l2 10l333 328h160l219 -328l-2 -10h-156l-164 261h36
l-252 -261h-176zM1072 1521l-154 344l2 10h170l106 -344l-2 -10h-122z" />
    <glyph glyph-name="uni1EA8" unicode="&#x1ea8;" 
d="M-20 0l695 1432h169l192 -1432h-152l-136 1122l-15 137h-6l-62 -137l-527 -1122h-158zM243 400l69 142h584l19 -142h-672zM415 1550l2 10l333 328h160l219 -328l-2 -10h-156l-164 261h36l-252 -261h-176zM1049 1817v120q92 3 139.5 31t47.5 78q0 86 -123 86
q-57 0 -122 -17l-15 118q71 25 155 25q110 0 170 -56.5t60 -149.5q0 -109 -81.5 -170t-230.5 -65z" />
    <glyph glyph-name="uni1EA9" unicode="&#x1ea9;" 
d="M440 -30q-160 0 -254.5 115.5t-94.5 311.5q0 192 64.5 345.5t175 243t247.5 89.5q98 0 166.5 -47t114.5 -147h75l-76 -64l43 245h144l-102 -578q-17 -97 -24 -153t-7 -97q0 -102 105 -102h64l-22 -128q-20 -7 -41 -10.5t-45 -3.5q-82 0 -126 46.5t-44 132.5q0 26 6.5 66
t19.5 104l51 -74l-74 15q-55 -151 -149 -230.5t-217 -79.5zM453 102q128 0 224.5 122t133.5 330l30 170q-32 114 -90.5 166.5t-152.5 52.5q-102 0 -184 -72t-130.5 -195t-48.5 -276q0 -142 57 -220t161 -78zM365 1233l2 10l333 328h160l219 -328l-2 -10h-156l-164 261h36
l-252 -261h-176zM999 1500v120q92 3 139.5 31t47.5 78q0 86 -123 86q-57 0 -122 -17l-15 118q71 25 155 25q110 0 170 -56.5t60 -149.5q0 -109 -81.5 -170t-230.5 -65z" />
    <glyph glyph-name="uni1EAA" unicode="&#x1eaa;" 
d="M-20 0l695 1432h169l192 -1432h-152l-136 1122l-15 137h-6l-62 -137l-527 -1122h-158zM243 400l69 142h584l19 -142h-672zM415 1550l2 10l333 328h160l219 -328l-2 -10h-156l-164 261h36l-252 -261h-176zM1014 1997q-55 0 -94.5 22t-84.5 78q-30 38 -49 51t-42 13
q-70 0 -90 -111l-9 -51h-130l8 45q23 127 81 184t140 57q52 0 91.5 -22.5t83.5 -77.5q30 -37 50 -50.5t43 -13.5q34 0 54 26t30 85l9 51h130l-8 -45q-23 -129 -78 -185t-135 -56z" />
    <glyph glyph-name="uni1EAB" unicode="&#x1eab;" 
d="M440 -30q-160 0 -254.5 115.5t-94.5 311.5q0 192 64.5 345.5t175 243t247.5 89.5q98 0 166.5 -47t114.5 -147h75l-76 -64l43 245h144l-102 -578q-17 -97 -24 -153t-7 -97q0 -102 105 -102h64l-22 -128q-20 -7 -41 -10.5t-45 -3.5q-82 0 -126 46.5t-44 132.5q0 26 6.5 66
t19.5 104l51 -74l-74 15q-55 -151 -149 -230.5t-217 -79.5zM453 102q128 0 224.5 122t133.5 330l30 170q-32 114 -90.5 166.5t-152.5 52.5q-102 0 -184 -72t-130.5 -195t-48.5 -276q0 -142 57 -220t161 -78zM365 1233l2 10l333 328h160l219 -328l-2 -10h-156l-164 261h36
l-252 -261h-176zM964 1680q-55 0 -94.5 22t-84.5 78q-30 38 -49 51t-42 13q-70 0 -90 -111l-9 -51h-130l8 45q23 127 81 184t140 57q52 0 91.5 -22.5t83.5 -77.5q30 -37 50 -50.5t43 -13.5q34 0 54 26t30 85l9 51h130l-8 -45q-23 -129 -78 -185t-135 -56z" />
    <glyph glyph-name="uni1EAC" unicode="&#x1eac;" 
d="M-20 0l695 1432h169l192 -1432h-152l-136 1122l-15 137h-6l-62 -137l-527 -1122h-158zM243 400l69 142h584l19 -142h-672zM473 -443q-60 0 -99.5 41t-39.5 99q0 59 39.5 98.5t99.5 39.5t100.5 -39.5t40.5 -98.5q0 -58 -40.5 -99t-100.5 -41zM441 1638l2 10l326 344h160
l206 -344l-2 -10h-152l-154 275h36l-250 -275h-172z" />
    <glyph glyph-name="uni1EAD" unicode="&#x1ead;" 
d="M440 -30q-160 0 -254.5 115.5t-94.5 311.5q0 192 64.5 345.5t175 243t247.5 89.5q98 0 166.5 -47t114.5 -147h75l-76 -64l43 245h144l-102 -578q-17 -97 -24 -153t-7 -97q0 -102 105 -102h64l-22 -128q-20 -7 -41 -10.5t-45 -3.5q-82 0 -126 46.5t-44 132.5q0 26 6.5 66
t19.5 104l51 -74l-74 15q-55 -151 -149 -230.5t-217 -79.5zM453 102q128 0 224.5 122t133.5 330l30 170q-32 114 -90.5 166.5t-152.5 52.5q-102 0 -184 -72t-130.5 -195t-48.5 -276q0 -142 57 -220t161 -78zM516 -493q-60 0 -99.5 41t-39.5 99q0 59 39.5 98.5t99.5 39.5
t100.5 -39.5t40.5 -98.5q0 -58 -40.5 -99t-100.5 -41zM325 1251l2 10l326 344h160l206 -344l-2 -10h-152l-154 275h36l-250 -275h-172z" />
    <glyph glyph-name="uni1EAE" unicode="&#x1eae;" 
d="M-20 0l695 1432h169l192 -1432h-152l-136 1122l-15 137h-6l-62 -137l-527 -1122h-158zM243 400l69 142h584l19 -142h-672zM801 1536q-93 0 -166 39.5t-115.5 108.5t-42.5 156q0 34 4 54h132q-4 -17 -4 -50q0 -88 52 -137t144 -49q195 0 232 219l3 17h137l-3 -17
q-28 -165 -124.5 -253t-248.5 -88zM728 1879v10l242 364h175v-10l-297 -364h-120z" />
    <glyph glyph-name="uni1EAF" unicode="&#x1eaf;" 
d="M440 -30q-160 0 -254.5 115.5t-94.5 311.5q0 192 64.5 345.5t175 243t247.5 89.5q98 0 166.5 -47t114.5 -147h75l-76 -64l43 245h144l-102 -578q-17 -97 -24 -153t-7 -97q0 -102 105 -102h64l-22 -128q-20 -7 -41 -10.5t-45 -3.5q-82 0 -126 46.5t-44 132.5q0 26 6.5 66
t19.5 104l51 -74l-74 15q-55 -151 -149 -230.5t-217 -79.5zM453 102q128 0 224.5 122t133.5 330l30 170q-32 114 -90.5 166.5t-152.5 52.5q-102 0 -184 -72t-130.5 -195t-48.5 -276q0 -142 57 -220t161 -78zM751 1209q-93 0 -166 39.5t-115.5 108.5t-42.5 156q0 34 4 54h132
q-4 -17 -4 -50q0 -88 52 -137t144 -49q195 0 232 219l3 17h137l-3 -17q-28 -165 -124.5 -253t-248.5 -88zM678 1552v10l242 364h175v-10l-297 -364h-120z" />
    <glyph glyph-name="uni1EB0" unicode="&#x1eb0;" 
d="M-20 0l695 1432h169l192 -1432h-152l-136 1122l-15 137h-6l-62 -137l-527 -1122h-158zM243 400l69 142h584l19 -142h-672zM801 1536q-93 0 -166 39.5t-115.5 108.5t-42.5 156q0 34 4 54h132q-4 -17 -4 -50q0 -88 52 -137t144 -49q195 0 232 219l3 17h137l-3 -17
q-28 -165 -124.5 -253t-248.5 -88zM818 1879l-151 364l2 10h167l102 -364l-2 -10h-118z" />
    <glyph glyph-name="uni1EB1" unicode="&#x1eb1;" 
d="M440 -30q-160 0 -254.5 115.5t-94.5 311.5q0 192 64.5 345.5t175 243t247.5 89.5q98 0 166.5 -47t114.5 -147h75l-76 -64l43 245h144l-102 -578q-17 -97 -24 -153t-7 -97q0 -102 105 -102h64l-22 -128q-20 -7 -41 -10.5t-45 -3.5q-82 0 -126 46.5t-44 132.5q0 26 6.5 66
t19.5 104l51 -74l-74 15q-55 -151 -149 -230.5t-217 -79.5zM453 102q128 0 224.5 122t133.5 330l30 170q-32 114 -90.5 166.5t-152.5 52.5q-102 0 -184 -72t-130.5 -195t-48.5 -276q0 -142 57 -220t161 -78zM751 1209q-93 0 -166 39.5t-115.5 108.5t-42.5 156q0 34 4 54h132
q-4 -17 -4 -50q0 -88 52 -137t144 -49q195 0 232 219l3 17h137l-3 -17q-28 -165 -124.5 -253t-248.5 -88zM768 1552l-151 364l2 10h167l102 -364l-2 -10h-118z" />
    <glyph glyph-name="uni1EB2" unicode="&#x1eb2;" 
d="M-20 0l695 1432h169l192 -1432h-152l-136 1122l-15 137h-6l-62 -137l-527 -1122h-158zM243 400l69 142h584l19 -142h-672zM802 1536q-96 0 -172.5 39.5t-120.5 108.5t-44 156q0 35 4 54h132q-4 -16 -4 -50q0 -87 55.5 -136.5t153.5 -49.5q102 0 163 55t80 164l3 17h137
l-3 -17q-28 -165 -127.5 -253t-256.5 -88zM728 1842v120q89 0 135 28t46 80q0 46 -30 70.5t-92 24.5q-28 0 -55.5 -3.5t-58.5 -11.5l-15 115q63 22 142 22q106 0 167.5 -56.5t61.5 -151.5q0 -112 -80 -172t-221 -65z" />
    <glyph glyph-name="uni1EB3" unicode="&#x1eb3;" 
d="M440 -30q-160 0 -254.5 115.5t-94.5 311.5q0 192 64.5 345.5t175 243t247.5 89.5q98 0 166.5 -47t114.5 -147h75l-76 -64l43 245h144l-102 -578q-17 -97 -24 -153t-7 -97q0 -102 105 -102h64l-22 -128q-20 -7 -41 -10.5t-45 -3.5q-82 0 -126 46.5t-44 132.5q0 26 6.5 66
t19.5 104l51 -74l-74 15q-55 -151 -149 -230.5t-217 -79.5zM453 102q128 0 224.5 122t133.5 330l30 170q-32 114 -90.5 166.5t-152.5 52.5q-102 0 -184 -72t-130.5 -195t-48.5 -276q0 -142 57 -220t161 -78zM752 1209q-96 0 -172.5 39.5t-120.5 108.5t-44 156q0 35 4 54h132
q-4 -16 -4 -50q0 -87 55.5 -136.5t153.5 -49.5q102 0 163 55t80 164l3 17h137l-3 -17q-28 -165 -127.5 -253t-256.5 -88zM678 1515v120q89 0 135 28t46 80q0 46 -30 70.5t-92 24.5q-28 0 -55.5 -3.5t-58.5 -11.5l-15 115q63 22 142 22q106 0 167.5 -56.5t61.5 -151.5
q0 -112 -80 -172t-221 -65z" />
    <glyph glyph-name="uni1EB4" unicode="&#x1eb4;" 
d="M-20 0l695 1432h169l192 -1432h-152l-136 1122l-15 137h-6l-62 -137l-527 -1122h-158zM243 400l69 142h584l19 -142h-672zM801 1536q-91 0 -163 37t-113.5 101.5t-41.5 145.5q0 18 1 31t3 23h132q-4 -16 -4 -50q0 -77 50.5 -120.5t139.5 -43.5q184 0 219 197l3 17h137
l-3 -17q-27 -155 -120 -238t-240 -83zM1028 1975q-60 0 -106 26t-94 88q-31 40 -52.5 55t-47.5 15q-75 0 -95 -113l-12 -67h-130l11 61q21 119 80 181t152 62q54 0 93 -24t90 -90q29 -38 52.5 -54t54.5 -16q38 0 58.5 29.5t32.5 99.5l9 51h130l-8 -45q-23 -132 -77 -195.5
t-141 -63.5z" />
    <glyph glyph-name="uni1EB5" unicode="&#x1eb5;" 
d="M440 -30q-160 0 -254.5 115.5t-94.5 311.5q0 192 64.5 345.5t175 243t247.5 89.5q98 0 166.5 -47t114.5 -147h75l-76 -64l43 245h144l-102 -578q-17 -97 -24 -153t-7 -97q0 -102 105 -102h64l-22 -128q-20 -7 -41 -10.5t-45 -3.5q-82 0 -126 46.5t-44 132.5q0 26 6.5 66
t19.5 104l51 -74l-74 15q-55 -151 -149 -230.5t-217 -79.5zM453 102q128 0 224.5 122t133.5 330l30 170q-32 114 -90.5 166.5t-152.5 52.5q-102 0 -184 -72t-130.5 -195t-48.5 -276q0 -142 57 -220t161 -78zM751 1209q-91 0 -163 37t-113.5 101.5t-41.5 145.5q0 18 1 31
t3 23h132q-4 -16 -4 -50q0 -77 50.5 -120.5t139.5 -43.5q184 0 219 197l3 17h137l-3 -17q-27 -155 -120 -238t-240 -83zM978 1648q-60 0 -106 26t-94 88q-31 40 -52.5 55t-47.5 15q-75 0 -95 -113l-12 -67h-130l11 61q21 119 80 181t152 62q54 0 93 -24t90 -90
q29 -38 52.5 -54t54.5 -16q38 0 58.5 29.5t32.5 99.5l9 51h130l-8 -45q-23 -132 -77 -195.5t-141 -63.5z" />
    <glyph glyph-name="uni1EB6" unicode="&#x1eb6;" 
d="M-20 0l695 1432h169l192 -1432h-152l-136 1122l-15 137h-6l-62 -137l-527 -1122h-158zM243 400l69 142h584l19 -142h-672zM473 -443q-60 0 -99.5 41t-39.5 99q0 59 39.5 98.5t99.5 39.5t100.5 -39.5t40.5 -98.5q0 -58 -40.5 -99t-100.5 -41zM807 1637q-90 0 -157.5 34
t-105 96t-37.5 145q0 17 2 34.5t6 45.5h133q-4 -28 -5.5 -42.5t-1.5 -25.5q0 -73 43.5 -115t125.5 -42q93 0 150.5 47t79.5 178h147q-19 -138 -74 -215t-134.5 -108.5t-171.5 -31.5z" />
    <glyph glyph-name="uni1EB7" unicode="&#x1eb7;" 
d="M440 -30q-160 0 -254.5 115.5t-94.5 311.5q0 192 64.5 345.5t175 243t247.5 89.5q98 0 166.5 -47t114.5 -147h75l-76 -64l43 245h144l-102 -578q-17 -97 -24 -153t-7 -97q0 -102 105 -102h64l-22 -128q-20 -7 -41 -10.5t-45 -3.5q-82 0 -126 46.5t-44 132.5q0 26 6.5 66
t19.5 104l51 -74l-74 15q-55 -151 -149 -230.5t-217 -79.5zM453 102q128 0 224.5 122t133.5 330l30 170q-32 114 -90.5 166.5t-152.5 52.5q-102 0 -184 -72t-130.5 -195t-48.5 -276q0 -142 57 -220t161 -78zM516 -493q-60 0 -99.5 41t-39.5 99q0 59 39.5 98.5t99.5 39.5
t100.5 -39.5t40.5 -98.5q0 -58 -40.5 -99t-100.5 -41zM691 1250q-90 0 -157.5 34t-105 96t-37.5 145q0 17 2 34.5t6 45.5h133q-4 -28 -5.5 -42.5t-1.5 -25.5q0 -73 43.5 -115t125.5 -42q93 0 150.5 47t79.5 178h147q-19 -138 -74 -215t-134.5 -108.5t-171.5 -31.5z" />
    <glyph glyph-name="uni1EB8" unicode="&#x1eb8;" 
d="M104 0l252 1432h784l-24 -136h-638l-204 -1160h654l-24 -136h-800zM302 667l24 136h623l-24 -136h-623zM466 -463q-60 0 -99.5 41t-39.5 99q0 59 39.5 98.5t99.5 39.5t100.5 -39.5t40.5 -98.5q0 -58 -40.5 -99t-100.5 -41z" />
    <glyph glyph-name="uni1EB9" unicode="&#x1eb9;" 
d="M589 -30q-133 0 -234 60t-157.5 166t-56.5 244q0 114 36 227t108 205t179.5 147.5t251.5 55.5q156 0 242.5 -81.5t86.5 -206.5q0 -130 -81.5 -210.5t-258.5 -117t-464 -36.5l-13 115q249 6 396.5 32.5t212 78.5t64.5 134q0 73 -47.5 114.5t-143.5 41.5
q-132 0 -227.5 -71.5t-146.5 -185t-51 -238.5q0 -154 83 -245t225 -91q86 0 154.5 34t138.5 110l98 -105q-86 -92 -181 -134.5t-214 -42.5zM505 -493q-60 0 -99.5 41t-39.5 99q0 59 39.5 98.5t99.5 39.5t100.5 -39.5t40.5 -98.5q0 -58 -40.5 -99t-100.5 -41z" />
    <glyph glyph-name="uni1EBA" unicode="&#x1eba;" 
d="M104 0l252 1432h784l-24 -136h-638l-204 -1160h654l-24 -136h-800zM302 667l24 136h623l-24 -136h-623zM764 1570v126q208 0 208 121q0 50 -32 75t-103 25q-91 0 -160 -19l-15 129q44 13 90 19.5t93 6.5q117 0 186 -61t69 -166q0 -115 -88 -183.5t-248 -72.5z" />
    <glyph glyph-name="uni1EBB" unicode="&#x1ebb;" 
d="M589 -30q-133 0 -234 60t-157.5 166t-56.5 244q0 114 36 227t108 205t179.5 147.5t251.5 55.5q156 0 242.5 -81.5t86.5 -206.5q0 -130 -81.5 -210.5t-258.5 -117t-464 -36.5l-13 115q249 6 396.5 32.5t212 78.5t64.5 134q0 73 -47.5 114.5t-143.5 41.5
q-132 0 -227.5 -71.5t-146.5 -185t-51 -238.5q0 -154 83 -245t225 -91q86 0 154.5 34t138.5 110l98 -105q-86 -92 -181 -134.5t-214 -42.5zM719 1183v126q208 0 208 121q0 50 -32 75t-103 25q-91 0 -160 -19l-15 129q44 13 90 19.5t93 6.5q117 0 186 -61t69 -166
q0 -115 -88 -183.5t-248 -72.5z" />
    <glyph glyph-name="uni1EBC" unicode="&#x1ebc;" 
d="M104 0l252 1432h784l-24 -136h-638l-204 -1160h654l-24 -136h-800zM302 667l24 136h623l-24 -136h-623zM965 1651q-60 0 -104 26.5t-91 102.5q-32 51 -52.5 67.5t-48.5 16.5q-35 0 -55 -27t-30 -84l-17 -97h-130l17 97q20 114 72 177.5t141 63.5q60 0 104.5 -26.5
t90.5 -102.5q32 -51 52.5 -67.5t48.5 -16.5q35 0 55 27t30 84l17 97h130l-17 -97q-20 -114 -72 -177.5t-141 -63.5z" />
    <glyph glyph-name="uni1EBD" unicode="&#x1ebd;" 
d="M589 -30q-133 0 -234 60t-157.5 166t-56.5 244q0 114 36 227t108 205t179.5 147.5t251.5 55.5q156 0 242.5 -81.5t86.5 -206.5q0 -130 -81.5 -210.5t-258.5 -117t-464 -36.5l-13 115q249 6 396.5 32.5t212 78.5t64.5 134q0 73 -47.5 114.5t-143.5 41.5
q-132 0 -227.5 -71.5t-146.5 -185t-51 -238.5q0 -154 83 -245t225 -91q86 0 154.5 34t138.5 110l98 -105q-86 -92 -181 -134.5t-214 -42.5zM920 1264q-60 0 -104 26.5t-91 102.5q-32 51 -52.5 67.5t-48.5 16.5q-35 0 -55 -27t-30 -84l-17 -97h-130l17 97q20 114 72 177.5
t141 63.5q60 0 104.5 -26.5t90.5 -102.5q32 -51 52.5 -67.5t48.5 -16.5q35 0 55 27t30 84l17 97h130l-17 -97q-20 -114 -72 -177.5t-141 -63.5z" />
    <glyph glyph-name="uni1EBE" unicode="&#x1ebe;" 
d="M104 0l252 1432h784l-24 -136h-638l-204 -1160h654l-24 -136h-800zM302 667l24 136h623l-24 -136h-623zM413 1550l2 10l333 328h160l219 -328l-2 -10h-156l-164 261h36l-252 -261h-176zM1019 1849v10l187 344h178v-10l-234 -344h-131z" />
    <glyph glyph-name="uni1EBF" unicode="&#x1ebf;" 
d="M589 -30q-133 0 -234 60t-157.5 166t-56.5 244q0 114 36 227t108 205t179.5 147.5t251.5 55.5q156 0 242.5 -81.5t86.5 -206.5q0 -130 -81.5 -210.5t-258.5 -117t-464 -36.5l-13 115q249 6 396.5 32.5t212 78.5t64.5 134q0 73 -47.5 114.5t-143.5 41.5
q-132 0 -227.5 -71.5t-146.5 -185t-51 -238.5q0 -154 83 -245t225 -91q86 0 154.5 34t138.5 110l98 -105q-86 -92 -181 -134.5t-214 -42.5zM378 1233l2 10l333 328h160l219 -328l-2 -10h-156l-164 261h36l-252 -261h-176zM984 1532v10l187 344h178v-10l-234 -344h-131z" />
    <glyph glyph-name="uni1EC0" unicode="&#x1ec0;" 
d="M104 0l252 1432h784l-24 -136h-638l-204 -1160h654l-24 -136h-800zM302 667l24 136h623l-24 -136h-623zM413 1550l2 10l333 328h160l219 -328l-2 -10h-156l-164 261h36l-252 -261h-176zM1120 1838l-154 344l2 10h170l106 -344l-2 -10h-122z" />
    <glyph glyph-name="uni1EC1" unicode="&#x1ec1;" 
d="M589 -30q-133 0 -234 60t-157.5 166t-56.5 244q0 114 36 227t108 205t179.5 147.5t251.5 55.5q156 0 242.5 -81.5t86.5 -206.5q0 -130 -81.5 -210.5t-258.5 -117t-464 -36.5l-13 115q249 6 396.5 32.5t212 78.5t64.5 134q0 73 -47.5 114.5t-143.5 41.5
q-132 0 -227.5 -71.5t-146.5 -185t-51 -238.5q0 -154 83 -245t225 -91q86 0 154.5 34t138.5 110l98 -105q-86 -92 -181 -134.5t-214 -42.5zM378 1233l2 10l333 328h160l219 -328l-2 -10h-156l-164 261h36l-252 -261h-176zM1085 1521l-154 344l2 10h170l106 -344l-2 -10h-122
z" />
    <glyph glyph-name="uni1EC2" unicode="&#x1ec2;" 
d="M104 0l252 1432h784l-24 -136h-638l-204 -1160h654l-24 -136h-800zM302 667l24 136h623l-24 -136h-623zM413 1550l2 10l333 328h160l219 -328l-2 -10h-156l-164 261h36l-252 -261h-176zM1047 1817v120q92 3 139.5 31t47.5 78q0 86 -123 86q-57 0 -122 -17l-15 118
q71 25 155 25q110 0 170 -56.5t60 -149.5q0 -109 -81.5 -170t-230.5 -65z" />
    <glyph glyph-name="uni1EC3" unicode="&#x1ec3;" 
d="M589 -30q-133 0 -234 60t-157.5 166t-56.5 244q0 114 36 227t108 205t179.5 147.5t251.5 55.5q156 0 242.5 -81.5t86.5 -206.5q0 -130 -81.5 -210.5t-258.5 -117t-464 -36.5l-13 115q249 6 396.5 32.5t212 78.5t64.5 134q0 73 -47.5 114.5t-143.5 41.5
q-132 0 -227.5 -71.5t-146.5 -185t-51 -238.5q0 -154 83 -245t225 -91q86 0 154.5 34t138.5 110l98 -105q-86 -92 -181 -134.5t-214 -42.5zM378 1233l2 10l333 328h160l219 -328l-2 -10h-156l-164 261h36l-252 -261h-176zM1012 1500v120q92 3 139.5 31t47.5 78q0 86 -123 86
q-57 0 -122 -17l-15 118q71 25 155 25q110 0 170 -56.5t60 -149.5q0 -109 -81.5 -170t-230.5 -65z" />
    <glyph glyph-name="uni1EC4" unicode="&#x1ec4;" 
d="M104 0l252 1432h784l-24 -136h-638l-204 -1160h654l-24 -136h-800zM302 667l24 136h623l-24 -136h-623zM413 1550l2 10l333 328h160l219 -328l-2 -10h-156l-164 261h36l-252 -261h-176zM1012 1997q-55 0 -94.5 22t-84.5 78q-30 38 -49 51t-42 13q-70 0 -90 -111l-9 -51
h-130l8 45q23 127 81 184t140 57q52 0 91.5 -22.5t83.5 -77.5q30 -37 50 -50.5t43 -13.5q34 0 54 26t30 85l9 51h130l-8 -45q-23 -129 -78 -185t-135 -56z" />
    <glyph glyph-name="uni1EC5" unicode="&#x1ec5;" 
d="M589 -30q-133 0 -234 60t-157.5 166t-56.5 244q0 114 36 227t108 205t179.5 147.5t251.5 55.5q156 0 242.5 -81.5t86.5 -206.5q0 -130 -81.5 -210.5t-258.5 -117t-464 -36.5l-13 115q249 6 396.5 32.5t212 78.5t64.5 134q0 73 -47.5 114.5t-143.5 41.5
q-132 0 -227.5 -71.5t-146.5 -185t-51 -238.5q0 -154 83 -245t225 -91q86 0 154.5 34t138.5 110l98 -105q-86 -92 -181 -134.5t-214 -42.5zM378 1233l2 10l333 328h160l219 -328l-2 -10h-156l-164 261h36l-252 -261h-176zM977 1680q-55 0 -94.5 22t-84.5 78q-30 38 -49 51
t-42 13q-70 0 -90 -111l-9 -51h-130l8 45q23 127 81 184t140 57q52 0 91.5 -22.5t83.5 -77.5q30 -37 50 -50.5t43 -13.5q34 0 54 26t30 85l9 51h130l-8 -45q-23 -129 -78 -185t-135 -56z" />
    <glyph glyph-name="uni1EC6" unicode="&#x1ec6;" 
d="M104 0l252 1432h784l-24 -136h-638l-204 -1160h654l-24 -136h-800zM302 667l24 136h623l-24 -136h-623zM466 -463q-60 0 -99.5 41t-39.5 99q0 59 39.5 98.5t99.5 39.5t100.5 -39.5t40.5 -98.5q0 -58 -40.5 -99t-100.5 -41zM439 1638l2 10l326 344h160l206 -344l-2 -10
h-152l-154 275h36l-250 -275h-172z" />
    <glyph glyph-name="uni1EC7" unicode="&#x1ec7;" 
d="M589 -30q-133 0 -234 60t-157.5 166t-56.5 244q0 114 36 227t108 205t179.5 147.5t251.5 55.5q156 0 242.5 -81.5t86.5 -206.5q0 -130 -81.5 -210.5t-258.5 -117t-464 -36.5l-13 115q249 6 396.5 32.5t212 78.5t64.5 134q0 73 -47.5 114.5t-143.5 41.5
q-132 0 -227.5 -71.5t-146.5 -185t-51 -238.5q0 -154 83 -245t225 -91q86 0 154.5 34t138.5 110l98 -105q-86 -92 -181 -134.5t-214 -42.5zM505 -493q-60 0 -99.5 41t-39.5 99q0 59 39.5 98.5t99.5 39.5t100.5 -39.5t40.5 -98.5q0 -58 -40.5 -99t-100.5 -41zM394 1251l2 10
l326 344h160l206 -344l-2 -10h-152l-154 275h36l-250 -275h-172z" />
    <glyph glyph-name="uni1EC8" unicode="&#x1ec8;" 
d="M447 75l226 1282h148l-226 -1282h-148zM98 0l24 138h820l-24 -138h-820zM326 1294l24 138h820l-24 -138h-820zM776 1570v126q208 0 208 121q0 50 -32 75t-103 25q-91 0 -160 -19l-15 129q44 13 90 19.5t93 6.5q117 0 186 -61t69 -166q0 -115 -88 -183.5t-248 -72.5z" />
    <glyph glyph-name="uni1EC9" unicode="&#x1ec9;" 
d="M761 -30q-135 0 -215.5 79t-80.5 212q0 35 4 74t13 89l92 524l22 -25h-365l22 122h478l-111 -631q-10 -56 -13.5 -86.5t-3.5 -58.5q0 -78 42.5 -120.5t121.5 -42.5q101 0 188 78l79 -106q-120 -108 -273 -108zM621 1183v126q208 0 208 121q0 50 -32 75t-103 25
q-91 0 -160 -19l-15 129q44 13 90 19.5t93 6.5q117 0 186 -61t69 -166q0 -115 -88 -183.5t-248 -72.5z" />
    <glyph glyph-name="uni1ECA" unicode="&#x1eca;" 
d="M447 75l226 1282h148l-226 -1282h-148zM98 0l24 138h820l-24 -138h-820zM326 1294l24 138h820l-24 -138h-820zM470 -463q-60 0 -99.5 41t-39.5 99q0 59 39.5 98.5t99.5 39.5t100.5 -39.5t40.5 -98.5q0 -58 -40.5 -99t-100.5 -41z" />
    <glyph glyph-name="uni1ECB" unicode="&#x1ecb;" 
d="M761 -30q-135 0 -215.5 79t-80.5 212q0 35 4 74t13 89l92 524l22 -25h-365l22 122h478l-111 -631q-10 -56 -13.5 -86.5t-3.5 -58.5q0 -78 42.5 -120.5t121.5 -42.5q101 0 188 78l79 -106q-120 -108 -273 -108zM707 1289q-57 0 -97.5 41t-40.5 98t40 96.5t98 39.5
q59 0 97.5 -39t38.5 -98q0 -58 -39.5 -98t-96.5 -40zM641 -463q-60 0 -99.5 41t-39.5 99q0 59 39.5 98.5t99.5 39.5t100.5 -39.5t40.5 -98.5q0 -58 -40.5 -99t-100.5 -41z" />
    <glyph glyph-name="uni1ECC" unicode="&#x1ecc;" 
d="M554 -30q-140 0 -241 65.5t-155 184.5t-54 281q0 146 26 286t77 262t127 215t176.5 145.5t224.5 52.5q203 0 313.5 -141.5t110.5 -389.5q0 -154 -23.5 -296t-71 -263t-120 -211.5t-170 -140.5t-220.5 -50zM558 110q101 0 177 48t128.5 130.5t85 187t47.5 220t15 227.5
q0 197 -68.5 298t-211.5 101q-103 0 -181.5 -49.5t-135 -134t-92.5 -190.5t-53 -219.5t-17 -219.5q0 -196 77.5 -297.5t228.5 -101.5zM464 -493q-60 0 -99.5 41t-39.5 99q0 59 39.5 98.5t99.5 39.5t100.5 -39.5t40.5 -98.5q0 -58 -40.5 -99t-100.5 -41z" />
    <glyph glyph-name="uni1ECD" unicode="&#x1ecd;" 
d="M548 -30q-127 0 -222 56t-147.5 159t-52.5 243q0 113 33 227.5t99.5 209.5t167 152.5t235.5 57.5q129 0 221.5 -55t141.5 -157.5t49 -245.5q0 -113 -30.5 -227.5t-94 -209.5t-163 -152.5t-237.5 -57.5zM556 106q98 0 168 49t114.5 127t65.5 166t21 165q0 159 -68.5 242.5
t-203.5 83.5q-102 0 -174 -49t-117.5 -127t-66.5 -165.5t-21 -165.5q0 -156 75 -241t207 -85zM482 -493q-60 0 -99.5 41t-39.5 99q0 59 39.5 98.5t99.5 39.5t100.5 -39.5t40.5 -98.5q0 -58 -40.5 -99t-100.5 -41z" />
    <glyph glyph-name="uni1ECE" unicode="&#x1ece;" 
d="M554 -30q-140 0 -241 65.5t-155 184.5t-54 281q0 146 26 286t77 262t127 215t176.5 145.5t224.5 52.5q203 0 313.5 -141.5t110.5 -389.5q0 -154 -23.5 -296t-71 -263t-120 -211.5t-170 -140.5t-220.5 -50zM558 110q101 0 177 48t128.5 130.5t85 187t47.5 220t15 227.5
q0 197 -68.5 298t-211.5 101q-103 0 -181.5 -49.5t-135 -134t-92.5 -190.5t-53 -219.5t-17 -219.5q0 -196 77.5 -297.5t228.5 -101.5zM756 1570v126q208 0 208 121q0 50 -32 75t-103 25q-91 0 -160 -19l-15 129q44 13 90 19.5t93 6.5q117 0 186 -61t69 -166
q0 -115 -88 -183.5t-248 -72.5z" />
    <glyph glyph-name="uni1ECF" unicode="&#x1ecf;" 
d="M548 -30q-127 0 -222 56t-147.5 159t-52.5 243q0 113 33 227.5t99.5 209.5t167 152.5t235.5 57.5q129 0 221.5 -55t141.5 -157.5t49 -245.5q0 -113 -30.5 -227.5t-94 -209.5t-163 -152.5t-237.5 -57.5zM556 106q98 0 168 49t114.5 127t65.5 166t21 165q0 159 -68.5 242.5
t-203.5 83.5q-102 0 -174 -49t-117.5 -127t-66.5 -165.5t-21 -165.5q0 -156 75 -241t207 -85zM678 1183v126q208 0 208 121q0 50 -32 75t-103 25q-91 0 -160 -19l-15 129q44 13 90 19.5t93 6.5q117 0 186 -61t69 -166q0 -115 -88 -183.5t-248 -72.5z" />
    <glyph glyph-name="uni1ED0" unicode="&#x1ed0;" 
d="M554 -30q-140 0 -241 65.5t-155 184.5t-54 281q0 146 26 286t77 262t127 215t176.5 145.5t224.5 52.5q203 0 313.5 -141.5t110.5 -389.5q0 -154 -23.5 -296t-71 -263t-120 -211.5t-170 -140.5t-220.5 -50zM558 110q101 0 177 48t128.5 130.5t85 187t47.5 220t15 227.5
q0 197 -68.5 298t-211.5 101q-103 0 -181.5 -49.5t-135 -134t-92.5 -190.5t-53 -219.5t-17 -219.5q0 -196 77.5 -297.5t228.5 -101.5zM405 1550l2 10l333 328h160l219 -328l-2 -10h-156l-164 261h36l-252 -261h-176zM1011 1849v10l187 344h178v-10l-234 -344h-131z" />
    <glyph glyph-name="uni1ED1" unicode="&#x1ed1;" 
d="M548 -30q-127 0 -222 56t-147.5 159t-52.5 243q0 113 33 227.5t99.5 209.5t167 152.5t235.5 57.5q129 0 221.5 -55t141.5 -157.5t49 -245.5q0 -113 -30.5 -227.5t-94 -209.5t-163 -152.5t-237.5 -57.5zM556 106q98 0 168 49t114.5 127t65.5 166t21 165q0 159 -68.5 242.5
t-203.5 83.5q-102 0 -174 -49t-117.5 -127t-66.5 -165.5t-21 -165.5q0 -156 75 -241t207 -85zM357 1233l2 10l333 328h160l219 -328l-2 -10h-156l-164 261h36l-252 -261h-176zM963 1532v10l187 344h178v-10l-234 -344h-131z" />
    <glyph glyph-name="uni1ED2" unicode="&#x1ed2;" 
d="M554 -30q-140 0 -241 65.5t-155 184.5t-54 281q0 146 26 286t77 262t127 215t176.5 145.5t224.5 52.5q203 0 313.5 -141.5t110.5 -389.5q0 -154 -23.5 -296t-71 -263t-120 -211.5t-170 -140.5t-220.5 -50zM558 110q101 0 177 48t128.5 130.5t85 187t47.5 220t15 227.5
q0 197 -68.5 298t-211.5 101q-103 0 -181.5 -49.5t-135 -134t-92.5 -190.5t-53 -219.5t-17 -219.5q0 -196 77.5 -297.5t228.5 -101.5zM405 1550l2 10l333 328h160l219 -328l-2 -10h-156l-164 261h36l-252 -261h-176zM1112 1838l-154 344l2 10h170l106 -344l-2 -10h-122z" />
    <glyph glyph-name="uni1ED3" unicode="&#x1ed3;" 
d="M548 -30q-127 0 -222 56t-147.5 159t-52.5 243q0 113 33 227.5t99.5 209.5t167 152.5t235.5 57.5q129 0 221.5 -55t141.5 -157.5t49 -245.5q0 -113 -30.5 -227.5t-94 -209.5t-163 -152.5t-237.5 -57.5zM556 106q98 0 168 49t114.5 127t65.5 166t21 165q0 159 -68.5 242.5
t-203.5 83.5q-102 0 -174 -49t-117.5 -127t-66.5 -165.5t-21 -165.5q0 -156 75 -241t207 -85zM357 1233l2 10l333 328h160l219 -328l-2 -10h-156l-164 261h36l-252 -261h-176zM1064 1521l-154 344l2 10h170l106 -344l-2 -10h-122z" />
    <glyph glyph-name="uni1ED4" unicode="&#x1ed4;" 
d="M554 -30q-140 0 -241 65.5t-155 184.5t-54 281q0 146 26 286t77 262t127 215t176.5 145.5t224.5 52.5q203 0 313.5 -141.5t110.5 -389.5q0 -154 -23.5 -296t-71 -263t-120 -211.5t-170 -140.5t-220.5 -50zM558 110q101 0 177 48t128.5 130.5t85 187t47.5 220t15 227.5
q0 197 -68.5 298t-211.5 101q-103 0 -181.5 -49.5t-135 -134t-92.5 -190.5t-53 -219.5t-17 -219.5q0 -196 77.5 -297.5t228.5 -101.5zM405 1550l2 10l333 328h160l219 -328l-2 -10h-156l-164 261h36l-252 -261h-176zM1039 1817v120q92 3 139.5 31t47.5 78q0 86 -123 86
q-57 0 -122 -17l-15 118q71 25 155 25q110 0 170 -56.5t60 -149.5q0 -109 -81.5 -170t-230.5 -65z" />
    <glyph glyph-name="uni1ED5" unicode="&#x1ed5;" 
d="M548 -30q-127 0 -222 56t-147.5 159t-52.5 243q0 113 33 227.5t99.5 209.5t167 152.5t235.5 57.5q129 0 221.5 -55t141.5 -157.5t49 -245.5q0 -113 -30.5 -227.5t-94 -209.5t-163 -152.5t-237.5 -57.5zM556 106q98 0 168 49t114.5 127t65.5 166t21 165q0 159 -68.5 242.5
t-203.5 83.5q-102 0 -174 -49t-117.5 -127t-66.5 -165.5t-21 -165.5q0 -156 75 -241t207 -85zM357 1233l2 10l333 328h160l219 -328l-2 -10h-156l-164 261h36l-252 -261h-176zM991 1500v120q92 3 139.5 31t47.5 78q0 86 -123 86q-57 0 -122 -17l-15 118q71 25 155 25
q110 0 170 -56.5t60 -149.5q0 -109 -81.5 -170t-230.5 -65z" />
    <glyph glyph-name="uni1ED6" unicode="&#x1ed6;" 
d="M554 -30q-140 0 -241 65.5t-155 184.5t-54 281q0 146 26 286t77 262t127 215t176.5 145.5t224.5 52.5q203 0 313.5 -141.5t110.5 -389.5q0 -154 -23.5 -296t-71 -263t-120 -211.5t-170 -140.5t-220.5 -50zM558 110q101 0 177 48t128.5 130.5t85 187t47.5 220t15 227.5
q0 197 -68.5 298t-211.5 101q-103 0 -181.5 -49.5t-135 -134t-92.5 -190.5t-53 -219.5t-17 -219.5q0 -196 77.5 -297.5t228.5 -101.5zM405 1550l2 10l333 328h160l219 -328l-2 -10h-156l-164 261h36l-252 -261h-176zM1004 1997q-55 0 -94.5 22t-84.5 78q-30 38 -49 51
t-42 13q-70 0 -90 -111l-9 -51h-130l8 45q23 127 81 184t140 57q52 0 91.5 -22.5t83.5 -77.5q30 -37 50 -50.5t43 -13.5q34 0 54 26t30 85l9 51h130l-8 -45q-23 -129 -78 -185t-135 -56z" />
    <glyph glyph-name="uni1ED7" unicode="&#x1ed7;" 
d="M548 -30q-127 0 -222 56t-147.5 159t-52.5 243q0 113 33 227.5t99.5 209.5t167 152.5t235.5 57.5q129 0 221.5 -55t141.5 -157.5t49 -245.5q0 -113 -30.5 -227.5t-94 -209.5t-163 -152.5t-237.5 -57.5zM556 106q98 0 168 49t114.5 127t65.5 166t21 165q0 159 -68.5 242.5
t-203.5 83.5q-102 0 -174 -49t-117.5 -127t-66.5 -165.5t-21 -165.5q0 -156 75 -241t207 -85zM357 1233l2 10l333 328h160l219 -328l-2 -10h-156l-164 261h36l-252 -261h-176zM956 1680q-55 0 -94.5 22t-84.5 78q-30 38 -49 51t-42 13q-70 0 -90 -111l-9 -51h-130l8 45
q23 127 81 184t140 57q52 0 91.5 -22.5t83.5 -77.5q30 -37 50 -50.5t43 -13.5q34 0 54 26t30 85l9 51h130l-8 -45q-23 -129 -78 -185t-135 -56z" />
    <glyph glyph-name="uni1ED8" unicode="&#x1ed8;" 
d="M554 -30q-140 0 -241 65.5t-155 184.5t-54 281q0 146 26 286t77 262t127 215t176.5 145.5t224.5 52.5q203 0 313.5 -141.5t110.5 -389.5q0 -154 -23.5 -296t-71 -263t-120 -211.5t-170 -140.5t-220.5 -50zM558 110q101 0 177 48t128.5 130.5t85 187t47.5 220t15 227.5
q0 197 -68.5 298t-211.5 101q-103 0 -181.5 -49.5t-135 -134t-92.5 -190.5t-53 -219.5t-17 -219.5q0 -196 77.5 -297.5t228.5 -101.5zM464 -493q-60 0 -99.5 41t-39.5 99q0 59 39.5 98.5t99.5 39.5t100.5 -39.5t40.5 -98.5q0 -58 -40.5 -99t-100.5 -41zM431 1638l2 10
l326 344h160l206 -344l-2 -10h-152l-154 275h36l-250 -275h-172z" />
    <glyph glyph-name="uni1ED9" unicode="&#x1ed9;" 
d="M548 -30q-127 0 -222 56t-147.5 159t-52.5 243q0 113 33 227.5t99.5 209.5t167 152.5t235.5 57.5q129 0 221.5 -55t141.5 -157.5t49 -245.5q0 -113 -30.5 -227.5t-94 -209.5t-163 -152.5t-237.5 -57.5zM556 106q98 0 168 49t114.5 127t65.5 166t21 165q0 159 -68.5 242.5
t-203.5 83.5q-102 0 -174 -49t-117.5 -127t-66.5 -165.5t-21 -165.5q0 -156 75 -241t207 -85zM482 -493q-60 0 -99.5 41t-39.5 99q0 59 39.5 98.5t99.5 39.5t100.5 -39.5t40.5 -98.5q0 -58 -40.5 -99t-100.5 -41zM353 1251l2 10l326 344h160l206 -344l-2 -10h-152l-154 275
h36l-250 -275h-172z" />
    <glyph glyph-name="uni1EDA" unicode="&#x1eda;" 
d="M554 -30q-140 0 -241 65.5t-155 184.5t-54 281q0 146 26 286t77 262t127 215t176.5 145.5t224.5 52.5q132 0 227 -67t146 -186.5t51 -277.5q0 -154 -23.5 -296t-71 -263t-120 -211.5t-170 -140.5t-220.5 -50zM558 110q101 0 177 48t128.5 130.5t85 187t47.5 220t15 227.5
q0 197 -68.5 298t-211.5 101q-103 0 -181.5 -49.5t-135 -134t-92.5 -190.5t-53 -219.5t-17 -219.5q0 -196 77.5 -297.5t228.5 -101.5zM1040 1218l-51 87q107 29 155 72t48 107q0 35 -12.5 67t-41.5 66l144 105q41 -46 58.5 -97t17.5 -104q0 -111 -80 -188t-238 -115z
M704 1654l2 10l226 344h190l-2 -10l-266 -344h-150z" />
    <glyph glyph-name="uni1EDB" unicode="&#x1edb;" 
d="M548 -30q-127 0 -222 56t-147.5 159t-52.5 243q0 113 33 227.5t99.5 209.5t167 152.5t235.5 57.5q129 0 221.5 -55t141.5 -157.5t49 -245.5q0 -113 -30.5 -227.5t-94 -209.5t-163 -152.5t-237.5 -57.5zM556 106q98 0 168 49t114.5 127t65.5 166t21 165q0 159 -68.5 242.5
t-203.5 83.5q-102 0 -174 -49t-117.5 -127t-66.5 -165.5t-21 -165.5q0 -156 75 -241t207 -85zM945 811l-44 84q183 44 183 164q0 72 -70 145l141 106q93 -98 93 -219q0 -103 -79.5 -174.5t-223.5 -105.5zM599 1267l2 10l226 344h190l-2 -10l-266 -344h-150z" />
    <glyph glyph-name="uni1EDC" unicode="&#x1edc;" 
d="M554 -30q-140 0 -241 65.5t-155 184.5t-54 281q0 146 26 286t77 262t127 215t176.5 145.5t224.5 52.5q132 0 227 -67t146 -186.5t51 -277.5q0 -154 -23.5 -296t-71 -263t-120 -211.5t-170 -140.5t-220.5 -50zM558 110q101 0 177 48t128.5 130.5t85 187t47.5 220t15 227.5
q0 197 -68.5 298t-211.5 101q-103 0 -181.5 -49.5t-135 -134t-92.5 -190.5t-53 -219.5t-17 -219.5q0 -196 77.5 -297.5t228.5 -101.5zM1040 1218l-51 87q107 29 155 72t48 107q0 35 -12.5 67t-41.5 66l144 105q41 -46 58.5 -97t17.5 -104q0 -111 -80 -188t-238 -115z
M735 1654l-146 344l2 10h170l106 -344l-2 -10h-130z" />
    <glyph glyph-name="uni1EDD" unicode="&#x1edd;" 
d="M548 -30q-127 0 -222 56t-147.5 159t-52.5 243q0 113 33 227.5t99.5 209.5t167 152.5t235.5 57.5q129 0 221.5 -55t141.5 -157.5t49 -245.5q0 -113 -30.5 -227.5t-94 -209.5t-163 -152.5t-237.5 -57.5zM556 106q98 0 168 49t114.5 127t65.5 166t21 165q0 159 -68.5 242.5
t-203.5 83.5q-102 0 -174 -49t-117.5 -127t-66.5 -165.5t-21 -165.5q0 -156 75 -241t207 -85zM945 811l-44 84q183 44 183 164q0 72 -70 145l141 106q93 -98 93 -219q0 -103 -79.5 -174.5t-223.5 -105.5zM667 1267l-146 344l2 10h170l106 -344l-2 -10h-130z" />
    <glyph glyph-name="uni1EDE" unicode="&#x1ede;" 
d="M554 -30q-140 0 -241 65.5t-155 184.5t-54 281q0 146 26 286t77 262t127 215t176.5 145.5t224.5 52.5q132 0 227 -67t146 -186.5t51 -277.5q0 -154 -23.5 -296t-71 -263t-120 -211.5t-170 -140.5t-220.5 -50zM558 110q101 0 177 48t128.5 130.5t85 187t47.5 220t15 227.5
q0 197 -68.5 298t-211.5 101q-103 0 -181.5 -49.5t-135 -134t-92.5 -190.5t-53 -219.5t-17 -219.5q0 -196 77.5 -297.5t228.5 -101.5zM1040 1218l-51 87q107 29 155 72t48 107q0 35 -12.5 67t-41.5 66l144 105q41 -46 58.5 -97t17.5 -104q0 -111 -80 -188t-238 -115z
M734 1586v126q208 0 208 121q0 50 -32 75t-103 25q-91 0 -160 -19l-15 129q44 13 90 19.5t93 6.5q117 0 186 -61t69 -166q0 -115 -88 -183.5t-248 -72.5z" />
    <glyph glyph-name="uni1EDF" unicode="&#x1edf;" 
d="M548 -30q-127 0 -222 56t-147.5 159t-52.5 243q0 113 33 227.5t99.5 209.5t167 152.5t235.5 57.5q129 0 221.5 -55t141.5 -157.5t49 -245.5q0 -113 -30.5 -227.5t-94 -209.5t-163 -152.5t-237.5 -57.5zM556 106q98 0 168 49t114.5 127t65.5 166t21 165q0 159 -68.5 242.5
t-203.5 83.5q-102 0 -174 -49t-117.5 -127t-66.5 -165.5t-21 -165.5q0 -156 75 -241t207 -85zM945 811l-44 84q183 44 183 164q0 72 -70 145l141 106q93 -98 93 -219q0 -103 -79.5 -174.5t-223.5 -105.5zM628 1199v126q208 0 208 121q0 50 -32 75t-103 25q-91 0 -160 -19
l-15 129q44 13 90 19.5t93 6.5q117 0 186 -61t69 -166q0 -115 -88 -183.5t-248 -72.5z" />
    <glyph glyph-name="uni1EE0" unicode="&#x1ee0;" 
d="M554 -30q-140 0 -241 65.5t-155 184.5t-54 281q0 146 26 286t77 262t127 215t176.5 145.5t224.5 52.5q132 0 227 -67t146 -186.5t51 -277.5q0 -154 -23.5 -296t-71 -263t-120 -211.5t-170 -140.5t-220.5 -50zM558 110q101 0 177 48t128.5 130.5t85 187t47.5 220t15 227.5
q0 197 -68.5 298t-211.5 101q-103 0 -181.5 -49.5t-135 -134t-92.5 -190.5t-53 -219.5t-17 -219.5q0 -196 77.5 -297.5t228.5 -101.5zM1040 1218l-51 87q107 29 155 72t48 107q0 35 -12.5 67t-41.5 66l144 105q41 -46 58.5 -97t17.5 -104q0 -111 -80 -188t-238 -115z
M940 1664q-60 0 -104 26.5t-91 102.5q-32 51 -52.5 67.5t-48.5 16.5q-35 0 -55 -27t-30 -84l-17 -97h-130l17 97q20 114 72 177.5t141 63.5q60 0 104.5 -26.5t90.5 -102.5q32 -51 52.5 -67.5t48.5 -16.5q35 0 55 27t30 84l17 97h130l-17 -97q-20 -114 -72 -177.5t-141 -63.5
z" />
    <glyph glyph-name="uni1EE1" unicode="&#x1ee1;" 
d="M548 -30q-127 0 -222 56t-147.5 159t-52.5 243q0 113 33 227.5t99.5 209.5t167 152.5t235.5 57.5q129 0 221.5 -55t141.5 -157.5t49 -245.5q0 -113 -30.5 -227.5t-94 -209.5t-163 -152.5t-237.5 -57.5zM556 106q98 0 168 49t114.5 127t65.5 166t21 165q0 159 -68.5 242.5
t-203.5 83.5q-102 0 -174 -49t-117.5 -127t-66.5 -165.5t-21 -165.5q0 -156 75 -241t207 -85zM945 811l-44 84q183 44 183 164q0 72 -70 145l141 106q93 -98 93 -219q0 -103 -79.5 -174.5t-223.5 -105.5zM871 1280q-60 0 -104 26.5t-91 102.5q-32 51 -52.5 67.5t-48.5 16.5
q-35 0 -55 -27t-30 -84l-17 -97h-130l17 97q20 114 72 177.5t141 63.5q60 0 104.5 -26.5t90.5 -102.5q32 -51 52.5 -67.5t48.5 -16.5q35 0 55 27t30 84l17 97h130l-17 -97q-20 -114 -72 -177.5t-141 -63.5z" />
    <glyph glyph-name="uni1EE2" unicode="&#x1ee2;" 
d="M554 -30q-140 0 -241 65.5t-155 184.5t-54 281q0 146 26 286t77 262t127 215t176.5 145.5t224.5 52.5q132 0 227 -67t146 -186.5t51 -277.5q0 -154 -23.5 -296t-71 -263t-120 -211.5t-170 -140.5t-220.5 -50zM558 110q101 0 177 48t128.5 130.5t85 187t47.5 220t15 227.5
q0 197 -68.5 298t-211.5 101q-103 0 -181.5 -49.5t-135 -134t-92.5 -190.5t-53 -219.5t-17 -219.5q0 -196 77.5 -297.5t228.5 -101.5zM1040 1218l-51 87q107 33 155 82.5t48 123.5q0 47 -21.5 89t-69.5 89l147 103q110 -121 110 -256q0 -116 -80 -196.5t-238 -121.5z
M464 -493q-60 0 -99.5 41t-39.5 99q0 59 39.5 98.5t99.5 39.5t100.5 -39.5t40.5 -98.5q0 -58 -40.5 -99t-100.5 -41z" />
    <glyph glyph-name="uni1EE3" unicode="&#x1ee3;" 
d="M548 -30q-127 0 -222 56t-147.5 159t-52.5 243q0 113 33 227.5t99.5 209.5t167 152.5t235.5 57.5q129 0 221.5 -55t141.5 -157.5t49 -245.5q0 -113 -30.5 -227.5t-94 -209.5t-163 -152.5t-237.5 -57.5zM556 106q98 0 168 49t114.5 127t65.5 166t21 165q0 159 -68.5 242.5
t-203.5 83.5q-102 0 -174 -49t-117.5 -127t-66.5 -165.5t-21 -165.5q0 -156 75 -241t207 -85zM963 811l-44 84q183 48 183 198q0 95 -90 191l141 106q113 -118 113 -266q0 -118 -76.5 -195.5t-226.5 -117.5zM445 -493q-60 0 -99.5 41t-39.5 99q0 59 39.5 98.5t99.5 39.5
t100.5 -39.5t40.5 -98.5q0 -58 -40.5 -99t-100.5 -41z" />
    <glyph glyph-name="uni1EE4" unicode="&#x1ee4;" 
d="M555 -30q-119 0 -213 50.5t-148 142t-54 213.5q0 26 2.5 52t6.5 53l167 951h146l-168 -955q-4 -22 -6 -45t-2 -44q0 -135 74.5 -206.5t198.5 -71.5t209.5 83.5t111.5 232.5l178 1006h146l-181 -1029q-34 -197 -159 -315t-309 -118zM465 -493q-60 0 -99.5 41t-39.5 99
q0 59 39.5 98.5t99.5 39.5t100.5 -39.5t40.5 -98.5q0 -58 -40.5 -99t-100.5 -41z" />
    <glyph glyph-name="uni1EE5" unicode="&#x1ee5;" 
d="M467 -30q-121 0 -196 81.5t-75 213.5q0 34 4.5 76t15.5 103l89 502l11 -22h-219l21 121h350l-107 -609q-11 -63 -15 -101t-4 -74q0 -76 40.5 -117.5t115.5 -41.5q117 0 203 127.5t127 360.5l80 455h144l-99 -561q-17 -97 -24 -153t-7 -97q0 -102 105 -102h64l-22 -128
q-41 -14 -86 -14q-82 0 -126 46.5t-44 132.5q0 26 6 65t20 105l51 -74l-74 15q-61 -157 -147 -233.5t-202 -76.5zM519 -493q-60 0 -99.5 41t-39.5 99q0 59 39.5 98.5t99.5 39.5t100.5 -39.5t40.5 -98.5q0 -58 -40.5 -99t-100.5 -41z" />
    <glyph glyph-name="uni1EE6" unicode="&#x1ee6;" 
d="M555 -30q-119 0 -213 50.5t-148 142t-54 213.5q0 26 2.5 52t6.5 53l167 951h146l-168 -955q-4 -22 -6 -45t-2 -44q0 -135 74.5 -206.5t198.5 -71.5t209.5 83.5t111.5 232.5l178 1006h146l-181 -1029q-34 -197 -159 -315t-309 -118zM766 1570v126q208 0 208 121
q0 50 -32 75t-103 25q-91 0 -160 -19l-15 129q44 13 90 19.5t93 6.5q117 0 186 -61t69 -166q0 -115 -88 -183.5t-248 -72.5z" />
    <glyph glyph-name="uni1EE7" unicode="&#x1ee7;" 
d="M467 -30q-121 0 -196 81.5t-75 213.5q0 34 4.5 76t15.5 103l89 502l11 -22h-219l21 121h350l-107 -609q-11 -63 -15 -101t-4 -74q0 -76 40.5 -117.5t115.5 -41.5q117 0 203 127.5t127 360.5l80 455h144l-99 -561q-17 -97 -24 -153t-7 -97q0 -102 105 -102h64l-22 -128
q-41 -14 -86 -14q-82 0 -126 46.5t-44 132.5q0 26 6 65t20 105l51 -74l-74 15q-61 -157 -147 -233.5t-202 -76.5zM624 1183v126q208 0 208 121q0 50 -32 75t-103 25q-91 0 -160 -19l-15 129q44 13 90 19.5t93 6.5q117 0 186 -61t69 -166q0 -115 -88 -183.5t-248 -72.5z" />
    <glyph glyph-name="uni1EE8" unicode="&#x1ee8;" 
d="M461 -30q-104 0 -185 48t-127 131.5t-46 191.5q0 29 3 61.5t9 66.5l170 963h146l-170 -965q-6 -33 -9 -61t-3 -49q0 -118 58 -182.5t164 -64.5q225 0 279 306l155 879q144 23 215 78t71 143q0 97 -86 173l147 103q105 -106 105 -250q0 -127 -97.5 -215.5t-275.5 -120.5
l43 38q0 -43 -4 -86.5t-12 -92.5l-119 -675q-35 -201 -147.5 -310.5t-283.5 -109.5zM626 1654l2 10l226 344h190l-2 -10l-266 -344h-150z" />
    <glyph glyph-name="uni1EE9" unicode="&#x1ee9;" 
d="M467 -30q-121 0 -196 81.5t-75 213.5q0 34 4.5 76t15.5 103l89 502l11 -22h-219l21 121h350l-107 -609q-11 -63 -15 -101t-4 -74q0 -76 40.5 -117.5t115.5 -41.5q117 0 203 127.5t127 360.5l69 393l80 10q77 10 110.5 36.5t33.5 72.5q0 26 -11.5 47.5t-35.5 40.5l130 127
q87 -75 87 -179q0 -69 -42.5 -120.5t-116.5 -79.5t-170 -28q-27 0 -48 7l124 49l-85 -482q-17 -97 -24 -153t-7 -97q0 -102 105 -102h64l-22 -128q-41 -14 -86 -14q-82 0 -126 46.5t-44 132.5q0 26 6 65t20 105l51 -74l-74 15q-61 -157 -147 -233.5t-202 -76.5zM582 1267
l2 10l226 344h190l-2 -10l-266 -344h-150z" />
    <glyph glyph-name="uni1EEA" unicode="&#x1eea;" 
d="M461 -30q-104 0 -185 48t-127 131.5t-46 191.5q0 29 3 61.5t9 66.5l170 963h146l-170 -965q-6 -33 -9 -61t-3 -49q0 -118 58 -182.5t164 -64.5q225 0 279 306l155 879q144 23 215 78t71 143q0 97 -86 173l147 103q105 -106 105 -250q0 -127 -97.5 -215.5t-275.5 -120.5
l43 38q0 -43 -4 -86.5t-12 -92.5l-119 -675q-35 -201 -147.5 -310.5t-283.5 -109.5zM715 1654l-146 344l2 10h170l106 -344l-2 -10h-130z" />
    <glyph glyph-name="uni1EEB" unicode="&#x1eeb;" 
d="M467 -30q-121 0 -196 81.5t-75 213.5q0 34 4.5 76t15.5 103l89 502l11 -22h-219l21 121h350l-107 -609q-11 -63 -15 -101t-4 -74q0 -76 40.5 -117.5t115.5 -41.5q117 0 203 127.5t127 360.5l69 393l80 10q77 10 110.5 36.5t33.5 72.5q0 26 -11.5 47.5t-35.5 40.5l130 127
q87 -75 87 -179q0 -69 -42.5 -120.5t-116.5 -79.5t-170 -28q-27 0 -48 7l124 49l-85 -482q-17 -97 -24 -153t-7 -97q0 -102 105 -102h64l-22 -128q-41 -14 -86 -14q-82 0 -126 46.5t-44 132.5q0 26 6 65t20 105l51 -74l-74 15q-61 -157 -147 -233.5t-202 -76.5zM687 1267
l-146 344l2 10h170l106 -344l-2 -10h-130z" />
    <glyph glyph-name="uni1EEC" unicode="&#x1eec;" 
d="M461 -30q-104 0 -185 48t-127 131.5t-46 191.5q0 29 3 61.5t9 66.5l170 963h146l-170 -965q-6 -33 -9 -61t-3 -49q0 -118 58 -182.5t164 -64.5q225 0 279 306l155 879q145 20 215.5 64.5t70.5 118.5q0 68 -54 121l144 111q76 -86 76 -206q0 -118 -97.5 -195.5
t-275.5 -102.5l43 38q0 -43 -4 -86.5t-12 -92.5l-119 -675q-35 -201 -147.5 -310.5t-283.5 -109.5zM678 1586v126q208 0 208 121q0 50 -32 75t-103 25q-91 0 -160 -19l-15 129q44 13 90 19.5t93 6.5q117 0 186 -61t69 -166q0 -115 -88 -183.5t-248 -72.5z" />
    <glyph glyph-name="uni1EED" unicode="&#x1eed;" 
d="M467 -30q-121 0 -196 81.5t-75 213.5q0 34 4.5 76t15.5 103l89 502l11 -22h-219l21 121h350l-107 -609q-11 -63 -15 -101t-4 -74q0 -76 40.5 -117.5t115.5 -41.5q117 0 203 127.5t127 360.5l69 393l80 10q77 10 110.5 36.5t33.5 72.5q0 26 -11.5 47.5t-35.5 40.5l130 127
q87 -75 87 -179q0 -69 -42.5 -120.5t-116.5 -79.5t-170 -28q-27 0 -48 7l124 49l-85 -482q-17 -97 -24 -153t-7 -97q0 -102 105 -102h64l-22 -128q-41 -14 -86 -14q-82 0 -126 46.5t-44 132.5q0 26 6 65t20 105l51 -74l-74 15q-61 -157 -147 -233.5t-202 -76.5zM612 1199
v126q208 0 208 121q0 50 -32 75t-103 25q-91 0 -160 -19l-15 129q44 13 90 19.5t93 6.5q117 0 186 -61t69 -166q0 -115 -88 -183.5t-248 -72.5z" />
    <glyph glyph-name="uni1EEE" unicode="&#x1eee;" 
d="M461 -30q-104 0 -185 48t-127 131.5t-46 191.5q0 29 3 61.5t9 66.5l170 963h146l-170 -965q-6 -33 -9 -61t-3 -49q0 -118 58 -182.5t164 -64.5q225 0 279 306l155 879q145 20 215.5 64.5t70.5 118.5q0 68 -54 121l144 111q76 -86 76 -206q0 -118 -97.5 -195.5
t-275.5 -102.5l43 38q0 -43 -4 -86.5t-12 -92.5l-119 -675q-35 -201 -147.5 -310.5t-283.5 -109.5zM891 1667q-60 0 -104 26.5t-91 102.5q-32 51 -52.5 67.5t-48.5 16.5q-35 0 -55 -27t-30 -84l-17 -97h-130l17 97q20 114 72 177.5t141 63.5q60 0 104.5 -26.5t90.5 -102.5
q32 -51 52.5 -67.5t48.5 -16.5q35 0 55 27t30 84l17 97h130l-17 -97q-20 -114 -72 -177.5t-141 -63.5z" />
    <glyph glyph-name="uni1EEF" unicode="&#x1eef;" 
d="M467 -30q-121 0 -196 81.5t-75 213.5q0 34 4.5 76t15.5 103l89 502l11 -22h-219l21 121h350l-107 -609q-11 -63 -15 -101t-4 -74q0 -76 40.5 -117.5t115.5 -41.5q117 0 203 127.5t127 360.5l69 393l80 10q77 10 110.5 36.5t33.5 72.5q0 26 -11.5 47.5t-35.5 40.5l130 127
q87 -75 87 -179q0 -69 -42.5 -120.5t-116.5 -79.5t-170 -28q-27 0 -48 7l124 49l-85 -482q-17 -97 -24 -153t-7 -97q0 -102 105 -102h64l-22 -128q-41 -14 -86 -14q-82 0 -126 46.5t-44 132.5q0 26 6 65t20 105l51 -74l-74 15q-61 -157 -147 -233.5t-202 -76.5zM830 1280
q-60 0 -104 26.5t-91 102.5q-32 51 -52.5 67.5t-48.5 16.5q-35 0 -55 -27t-30 -84l-17 -97h-130l17 97q20 114 72 177.5t141 63.5q60 0 104.5 -26.5t90.5 -102.5q32 -51 52.5 -67.5t48.5 -16.5q35 0 55 27t30 84l17 97h130l-17 -97q-20 -114 -72 -177.5t-141 -63.5z" />
    <glyph glyph-name="uni1EF0" unicode="&#x1ef0;" 
d="M482 -30q-112 0 -199.5 48.5t-137.5 133.5t-50 193q0 29 3 59t9 65l170 963h146l-170 -965q-6 -32 -9 -59.5t-3 -50.5q0 -118 64 -182.5t181 -64.5t192.5 78.5t101.5 227.5l179 1016h70q78 0 121 32.5t43 92.5q0 35 -13 65.5t-42 62.5l137 107q84 -94 84 -210
q0 -74 -39.5 -131t-110 -89t-163.5 -32q-11 0 -22.5 1.5t-25.5 4.5l103 73l-180 -1019q-35 -200 -150 -310t-289 -110zM426 -493q-60 0 -99.5 41t-39.5 99q0 59 39.5 98.5t99.5 39.5t100.5 -39.5t40.5 -98.5q0 -58 -40.5 -99t-100.5 -41z" />
    <glyph glyph-name="uni1EF1" unicode="&#x1ef1;" 
d="M467 -30q-121 0 -196 81.5t-75 213.5q0 34 4.5 76t15.5 103l89 502l11 -22h-219l21 121h350l-107 -609q-11 -63 -15 -101t-4 -74q0 -76 40.5 -117.5t115.5 -41.5q117 0 203 127.5t127 360.5l80 455h62q76 0 118.5 32t42.5 88q0 54 -43 110l144 94q33 -41 49 -84.5
t16 -91.5q0 -73 -35.5 -126.5t-100.5 -82.5t-155 -29q-33 0 -78 9l118 47l-93 -527q-17 -97 -24 -153t-7 -97q0 -102 105 -102h64l-22 -128q-41 -14 -86 -14q-82 0 -126 46.5t-44 132.5q0 26 6 65t20 105l51 -74l-74 15q-61 -157 -147 -233.5t-202 -76.5zM499 -493
q-60 0 -99.5 41t-39.5 99q0 59 39.5 98.5t99.5 39.5t100.5 -39.5t40.5 -98.5q0 -58 -40.5 -99t-100.5 -41z" />
    <glyph glyph-name="Ygrave" unicode="&#x1ef2;" 
d="M536 552l-298 880h158l167 -506l61 -214h6l136 214l342 506h174l-608 -880h-138zM435 0l107 611h146l-107 -611h-146zM699 1638l-146 344l2 10h170l106 -344l-2 -10h-130z" />
    <glyph glyph-name="ygrave" unicode="&#x1ef3;" 
d="M166 -440q-139 0 -240 107l93 99q35 -37 70 -54.5t77 -17.5q59 0 100.5 31.5t86.5 111.5l152 273h23l121 260l365 675h162l-696 -1253q-73 -130 -143.5 -181t-170.5 -51zM476 -114l-248 1159h146l138 -675l33 -208h12zM639 1251l-146 344l2 10h170l106 -344l-2 -10h-130z
" />
    <glyph glyph-name="uni1EF4" unicode="&#x1ef4;" 
d="M536 552l-298 880h158l167 -506l61 -214h6l136 214l342 506h174l-608 -880h-138zM435 0l107 611h146l-107 -611h-146zM460 -463q-60 0 -99.5 41t-39.5 99q0 59 39.5 98.5t99.5 39.5t100.5 -39.5t40.5 -98.5q0 -58 -40.5 -99t-100.5 -41z" />
    <glyph glyph-name="uni1EF5" unicode="&#x1ef5;" 
d="M166 -440q-139 0 -240 107l93 99q35 -37 70 -54.5t77 -17.5q59 0 100.5 31.5t86.5 111.5l152 273h23l121 260l365 675h162l-696 -1253q-73 -130 -143.5 -181t-170.5 -51zM476 -114l-248 1159h146l138 -675l33 -208h12zM772 -463q-60 0 -99.5 41t-39.5 99q0 59 39.5 98.5
t99.5 39.5t100.5 -39.5t40.5 -98.5q0 -58 -40.5 -99t-100.5 -41z" />
    <glyph glyph-name="uni1EF6" unicode="&#x1ef6;" 
d="M536 552l-298 880h158l167 -506l61 -214h6l136 214l342 506h174l-608 -880h-138zM435 0l107 611h146l-107 -611h-146zM689 1570v126q208 0 208 121q0 50 -32 75t-103 25q-91 0 -160 -19l-15 129q44 13 90 19.5t93 6.5q117 0 186 -61t69 -166q0 -115 -88 -183.5
t-248 -72.5z" />
    <glyph glyph-name="uni1EF7" unicode="&#x1ef7;" 
d="M166 -440q-139 0 -240 107l93 99q35 -37 70 -54.5t77 -17.5q59 0 100.5 31.5t86.5 111.5l152 273h23l121 260l365 675h162l-696 -1253q-73 -130 -143.5 -181t-170.5 -51zM476 -114l-248 1159h146l138 -675l33 -208h12zM639 1183v126q208 0 208 121q0 50 -32 75t-103 25
q-91 0 -160 -19l-15 129q44 13 90 19.5t93 6.5q117 0 186 -61t69 -166q0 -115 -88 -183.5t-248 -72.5z" />
    <glyph glyph-name="uni1EF8" unicode="&#x1ef8;" 
d="M536 552l-298 880h158l167 -506l61 -214h6l136 214l342 506h174l-608 -880h-138zM435 0l107 611h146l-107 -611h-146zM940 1651q-60 0 -104 26.5t-91 102.5q-32 51 -52.5 67.5t-48.5 16.5q-35 0 -55 -27t-30 -84l-17 -97h-130l17 97q20 114 72 177.5t141 63.5
q60 0 104.5 -26.5t90.5 -102.5q32 -51 52.5 -67.5t48.5 -16.5q35 0 55 27t30 84l17 97h130l-17 -97q-20 -114 -72 -177.5t-141 -63.5z" />
    <glyph glyph-name="uni1EF9" unicode="&#x1ef9;" 
d="M166 -440q-139 0 -240 107l93 99q35 -37 70 -54.5t77 -17.5q59 0 100.5 31.5t86.5 111.5l152 273h23l121 260l365 675h162l-696 -1253q-73 -130 -143.5 -181t-170.5 -51zM476 -114l-248 1159h146l138 -675l33 -208h12zM880 1264q-60 0 -104 26.5t-91 102.5
q-32 51 -52.5 67.5t-48.5 16.5q-35 0 -55 -27t-30 -84l-17 -97h-130l17 97q20 114 72 177.5t141 63.5q60 0 104.5 -26.5t90.5 -102.5q32 -51 52.5 -67.5t48.5 -16.5q35 0 55 27t30 84l17 97h130l-17 -97q-20 -114 -72 -177.5t-141 -63.5z" />
    <glyph glyph-name="endash" unicode="&#x2013;" 
d="M125 553l26 146h960l-26 -146h-960z" />
    <glyph glyph-name="emdash" unicode="&#x2014;" 
d="M103 553l26 146h1004l-26 -146h-1004z" />
    <glyph glyph-name="quoteleft" unicode="&#x2018;" 
d="M864 1492l61 -99q-86 -51 -158 -114t-119 -143l-1 27q69 -4 112 -42.5t43 -101.5q0 -60 -43 -101t-105 -41q-67 0 -109 43t-42 116q0 76 47.5 158.5t129.5 160t184 137.5z" />
    <glyph glyph-name="quoteright" unicode="&#x2019;" 
d="M549 877l-61 99q86 51 158 114.5t119 142.5l1 -27q-69 4 -112 42.5t-43 101.5q0 60 43 101t105 41q68 0 109.5 -42.5t41.5 -116.5q0 -75 -47.5 -158t-129 -160.5t-184.5 -137.5z" />
    <glyph glyph-name="quotesinglbase" unicode="&#x201a;" 
d="M334 -340l-61 99q86 51 158 114.5t119 142.5l1 -27q-69 4 -112 42.5t-43 101.5q0 60 43 101t105 41q68 0 109.5 -42.5t41.5 -116.5q0 -75 -47.5 -158t-129 -160.5t-184.5 -137.5z" />
    <glyph glyph-name="quotedblleft" unicode="&#x201c;" 
d="M611 1492l61 -99q-86 -51 -158 -114t-119 -143l-1 27q69 -4 112 -42.5t43 -101.5q0 -60 -43 -101t-105 -41q-67 0 -109 43t-42 116q0 76 47.5 158.5t129.5 160t184 137.5zM1094 1492l61 -99q-86 -51 -158 -114t-119 -143l-1 27q69 -4 112 -42.5t43 -101.5q0 -60 -43 -101
t-105 -41q-67 0 -109 43t-42 116q0 76 47.5 158.5t129.5 160t184 137.5z" />
    <glyph glyph-name="quotedblright" unicode="&#x201d;" 
d="M312 877l-61 99q86 51 158 114.5t119 142.5l1 -27q-69 4 -112 42.5t-43 101.5q0 60 43 101t105 41q68 0 109.5 -42.5t41.5 -116.5q0 -75 -47.5 -158t-129 -160.5t-184.5 -137.5zM795 877l-61 99q86 51 158 114.5t119 142.5l1 -27q-69 4 -112 42.5t-43 101.5q0 60 43 101
t105 41q68 0 109.5 -42.5t41.5 -116.5q0 -75 -47.5 -158t-129 -160.5t-184.5 -137.5z" />
    <glyph glyph-name="quotedblbase" unicode="&#x201e;" 
d="M97 -340l-61 99q86 51 158 114.5t119 142.5l1 -27q-69 4 -112 42.5t-43 101.5q0 60 43 101t105 41q68 0 109.5 -42.5t41.5 -116.5q0 -75 -47.5 -158t-129 -160.5t-184.5 -137.5zM580 -340l-61 99q86 51 158 114.5t119 142.5l1 -27q-69 4 -112 42.5t-43 101.5q0 60 43 101
t105 41q68 0 109.5 -42.5t41.5 -116.5q0 -75 -47.5 -158t-129 -160.5t-184.5 -137.5z" />
    <glyph glyph-name="bullet" unicode="&#x2022;" 
d="M585 437q-66 0 -118 30t-82 82t-30 118t30 118t82 82t118 30t118 -30t82 -82t30 -118t-30 -118t-82 -82t-118 -30z" />
    <glyph glyph-name="ellipsis" unicode="&#x2026;" 
d="M121 -30q-51 0 -86 35t-35 87q0 50 35.5 85t85.5 35q51 0 86 -35t35 -85q0 -52 -34.5 -87t-86.5 -35zM927 -30q-51 0 -86 35t-35 87q0 50 35.5 85t85.5 35q51 0 86 -35t35 -85q0 -52 -34.5 -87t-86.5 -35zM524 -30q-51 0 -86 35t-35 87q0 50 35.5 85t85.5 35q51 0 86 -35
t35 -85q0 -52 -34.5 -87t-86.5 -35z" />
    <glyph glyph-name="minute" unicode="&#x2032;" 
d="M393 846l180 614h204l-210 -614h-174z" />
    <glyph glyph-name="second" unicode="&#x2033;" 
d="M236 846l180 614h204l-210 -614h-174zM626 846l180 614h204l-210 -614h-174z" />
    <glyph glyph-name="guilsinglleft" unicode="&#x2039;" 
d="M730 29l-390 503l537 503l80 -87l-431 -416l295 -431z" />
    <glyph glyph-name="guilsinglright" unicode="&#x203a;" 
d="M474 1035l390 -503l-537 -503l-80 87l431 416l-295 431z" />
    <glyph glyph-name="fraction" unicode="&#x2044;" 
d="M-50 -30l1222 1490h146l-1222 -1490h-146z" />
    <glyph glyph-name="uni2074" unicode="&#x2074;" 
d="M696 700l52 296l11 32l96 542l35 -71h-58l-378 -420v-10h360l34 4h220l-22 -130h-784l22 125l569 634h157l-176 -1002h-138z" />
    <glyph glyph-name="dong" unicode="&#x20ab;" 
d="M492 244q-108 0 -196 50t-139.5 136t-51.5 194q0 89 32.5 168.5t92 140t139.5 95t176 34.5q116 0 193.5 -47t114.5 -130h6l109 617h136l-221 -1258h-126l23 130h-6q-46 -61 -116.5 -95.5t-165.5 -34.5zM-2 -80l26 148h901l-26 -148h-901zM518 376q89 0 157.5 39
t107.5 105.5t39 147.5q0 120 -70.5 191t-195.5 71q-95 0 -163.5 -39t-105 -105.5t-36.5 -149.5q0 -120 71.5 -190t195.5 -70zM574 1230l21 122h681l-21 -122h-681z" />
    <glyph glyph-name="Euro" unicode="&#x20ac;" 
d="M667 -30q-131 0 -230 58t-154.5 168t-55.5 265q0 55 6 112.5t16 118.5l24 136q32 182 101 325.5t183.5 226t281.5 82.5q308 0 393 -290l-133 -45q-54 195 -262 195q-131 0 -214 -64t-131 -177t-74 -259l-26 -147q-10 -58 -14.5 -111.5t-4.5 -102.5q0 -175 78 -263
t216 -88q101 0 169 48t130 163l122 -68q-79 -148 -180 -215.5t-241 -67.5zM15 489l21 122h846l-21 -122h-846zM74 821l21 122h846l-21 -122h-846z" />
    <glyph glyph-name="trademark" unicode="&#x2122;" 
d="M681 626v832h124l128 -367l38 -140h10l38 140l128 367h124v-832h-114v310l8 269h-10l-130 -394h-98l-130 394h-10l8 -269v-310h-114zM295 626v796h122v-796h-122zM111 1340v118h490v-118h-490z" />
    <glyph glyph-name="arrowleft" unicode="&#x2190;" 
d="M570 89l-490 537l490 537l96 -91l-415 -434v-24l415 -434zM607 557l-428 10v118l428 10h505v-138h-505z" />
    <glyph glyph-name="arrowup" unicode="&#x2191;" 
d="M188 621l-91 96l537 490l537 -490l-91 -96l-434 415h-24zM563 45v635l12 428h118l12 -428v-635h-142z" />
    <glyph glyph-name="arrowright" unicode="&#x2192;" 
d="M666 89l-96 91l415 434v24l-415 434l96 91l490 -537zM124 557v138h505l428 -10v-118l-428 -10h-505z" />
    <glyph glyph-name="arrowdown" unicode="&#x2193;" 
d="M602 45l-537 490l91 96l434 -415h24l434 415l91 -96zM543 144l-12 428v635h142v-635l-12 -428h-118z" />
    <glyph glyph-name="arrowdblright" unicode="&#x21d2;" 
d="M664 53l-94 93l463 477v6l-463 477l94 93l542 -573zM72 397v132h910v-112l-332 -20h-578zM72 723v132h578l332 -20v-112h-910z" />
    <glyph glyph-name="minus" unicode="&#x2212;" 
d="M169 553l26 146h872l-26 -146h-872z" />
    <glyph glyph-name="uni2215" unicode="&#x2215;" 
d="M-37 -30l1155 1490h187l-1155 -1490h-187z" />
    <glyph glyph-name="uni2237" unicode="&#x2237;" 
d="M957 842q-61 0 -101.5 40.5t-40.5 102.5t40.5 102.5t101.5 40.5t101.5 -40.5t40.5 -102.5t-40.5 -102.5t-101.5 -40.5zM279 124q-61 0 -101.5 40.5t-40.5 102.5t40.5 102.5t101.5 40.5t101.5 -40.5t40.5 -102.5t-40.5 -102.5t-101.5 -40.5zM728.5 164.5
q-40.5 40.5 -40.5 102.5t40.5 102.5t101.5 40.5t101.5 -40.5t40.5 -102.5t-40.5 -102.5t-101.5 -40.5t-101.5 40.5zM304.5 882.5q-40.5 40.5 -40.5 102.5t40.5 102.5t101.5 40.5t101.5 -40.5t40.5 -102.5t-40.5 -102.5t-101.5 -40.5t-101.5 40.5z" />
    <glyph glyph-name="lessequal" unicode="&#x2264;" 
d="M986 238l-810 352l26 148l934 352l-28 -158l-569 -211l-186 -60l-2 -8l164 -64l496 -211zM72 0l25 142h872l-25 -142h-872z" />
    <glyph glyph-name="greaterequal" unicode="&#x2265;" 
d="M114 238l28 158l569 211l186 60l2 8l-164 64l-496 211l25 140l810 -352l-26 -148zM72 0l25 142h872l-25 -142h-872z" />
    <glyph glyph-name="uni2318" unicode="&#x2318;" 
d="M310 174q-100 0 -162 62t-62 162q0 98 65 157t171 59h86v204h-86q-106 0 -171 59.5t-65 156.5q0 102 62 163t162 61q98 0 158 -64.5t60 -171.5v-88h212v88q0 107 60.5 171.5t157.5 64.5q102 0 163 -61t61 -163q0 -97 -64.5 -156.5t-171.5 -59.5h-86v-204h86
q107 0 171.5 -59t64.5 -157q0 -100 -61 -162t-163 -62q-97 0 -157.5 65t-60.5 171v88h-212v-88q0 -106 -60 -171t-158 -65zM310 292q47 0 72.5 33t25.5 91v82h-84q-54 0 -86 -28t-32 -76t28 -75t76 -27zM324 934h84v82q0 59 -25.5 91.5t-72.5 32.5q-48 0 -76 -27t-28 -75
t32 -76t86 -28zM528 614h212v204h-212v-204zM958 292q48 0 76 27t28 75t-32 76t-86 28h-84v-82q0 -58 26 -91t72 -33zM860 934h84q54 0 86 28t32 76t-28 75t-76 27q-46 0 -72 -32.5t-26 -91.5v-82z" />
    <glyph glyph-name="uni2325" unicode="&#x2325;" 
d="M802 162l-489 1108h150l489 -1108h-150zM58 1120v150h325l20 -150h-345zM865 162l-23 150h368v-150h-345zM747 1120v150h463v-150h-463z" />
    <glyph glyph-name="uni2500" unicode="&#x2500;" 
d="M-70 574v140h1340v-140h-1340z" />
    <glyph glyph-name="uni2501" unicode="&#x2501;" 
d="M-70 518v252h1340v-252h-1340z" />
    <glyph glyph-name="uni2502" unicode="&#x2502;" 
d="M530 -656v2600h140v-2600h-140z" />
    <glyph glyph-name="uni2503" unicode="&#x2503;" 
d="M474 -656v2600h252v-2600h-252z" />
    <glyph glyph-name="uni2504" unicode="&#x2504;" 
d="M867 574v140h266v-140h-266zM67 574v140h266v-140h-266zM467 574v140h266v-140h-266z" />
    <glyph glyph-name="uni2505" unicode="&#x2505;" 
d="M867 518v252h266v-252h-266zM67 518v252h266v-252h-266zM467 518v252h266v-252h-266z" />
    <glyph glyph-name="uni2506" unicode="&#x2506;" 
d="M530 366v556h140v-556h-140zM530 -467v555h140v-555h-140zM530 1200v555h140v-555h-140z" />
    <glyph glyph-name="uni2507" unicode="&#x2507;" 
d="M474 366v556h252v-556h-252zM474 -467v555h252v-555h-252zM474 1200v555h252v-555h-252z" />
    <glyph glyph-name="uni2508" unicode="&#x2508;" 
d="M938 574v140h225v-140h-225zM38 574v140h225v-140h-225zM338 574v140h225v-140h-225zM638 574v140h225v-140h-225z" />
    <glyph glyph-name="uni2509" unicode="&#x2509;" 
d="M938 518v252h225v-252h-225zM38 518v252h225v-252h-225zM338 518v252h225v-252h-225zM638 518v252h225v-252h-225z" />
    <glyph glyph-name="uni250A" unicode="&#x250a;" 
d="M530 1347v469h140v-469h-140zM530 -528v469h140v-469h-140zM530 97v469h140v-469h-140zM530 722v469h140v-469h-140z" />
    <glyph glyph-name="uni250B" unicode="&#x250b;" 
d="M474 1347v469h252v-469h-252zM474 -528v469h252v-469h-252zM474 97v469h252v-469h-252zM474 722v469h252v-469h-252z" />
    <glyph glyph-name="uni250C" unicode="&#x250c;" 
d="M530 -656v1370h740v-140h-600v-1230h-140z" />
    <glyph glyph-name="uni250D" unicode="&#x250d;" 
d="M530 -656v1426h740v-252h-600v-1174h-140z" />
    <glyph glyph-name="uni250E" unicode="&#x250e;" 
d="M474 -656v1370h796v-140h-544v-1230h-252z" />
    <glyph glyph-name="uni250F" unicode="&#x250f;" 
d="M474 -656v1426h796v-252h-544v-1174h-252z" />
    <glyph glyph-name="uni2510" unicode="&#x2510;" 
d="M530 -656v1230h-600v140h740v-1370h-140z" />
    <glyph glyph-name="uni2511" unicode="&#x2511;" 
d="M530 -656v1174h-600v252h740v-1426h-140z" />
    <glyph glyph-name="uni2512" unicode="&#x2512;" 
d="M474 -656v1230h-544v140h796v-1370h-252z" />
    <glyph glyph-name="uni2513" unicode="&#x2513;" 
d="M474 -656v1174h-544v252h796v-1426h-252z" />
    <glyph glyph-name="uni2514" unicode="&#x2514;" 
d="M530 574v1370h140v-1230h600v-140h-740z" />
    <glyph glyph-name="uni2515" unicode="&#x2515;" 
d="M530 518v1426h140v-1174h600v-252h-740z" />
    <glyph glyph-name="uni2516" unicode="&#x2516;" 
d="M474 574v1370h252v-1230h544v-140h-796z" />
    <glyph glyph-name="uni2517" unicode="&#x2517;" 
d="M474 518v1426h252v-1174h544v-252h-796z" />
    <glyph glyph-name="uni2518" unicode="&#x2518;" 
d="M-70 574v140h600v1230h140v-1370h-740z" />
    <glyph glyph-name="uni2519" unicode="&#x2519;" 
d="M-70 518v252h600v1174h140v-1426h-740z" />
    <glyph glyph-name="uni251A" unicode="&#x251a;" 
d="M-70 574v140h544v1230h252v-1370h-796z" />
    <glyph glyph-name="uni251B" unicode="&#x251b;" 
d="M-70 518v252h544v1174h252v-1426h-796z" />
    <glyph glyph-name="uni251C" unicode="&#x251c;" 
d="M530 -656v2600h140v-1230h600v-140h-600v-1230h-140z" />
    <glyph glyph-name="uni251D" unicode="&#x251d;" 
d="M530 -656v2600h140v-1174h600v-252h-600v-1174h-140z" />
    <glyph glyph-name="uni251E" unicode="&#x251e;" 
d="M530 -656v1230h-56v1370h252v-1230h544v-140h-600v-1230h-140z" />
    <glyph glyph-name="uni251F" unicode="&#x251f;" 
d="M474 -656v1370h56v1230h140v-1230h600v-140h-544v-1230h-252z" />
    <glyph glyph-name="uni2520" unicode="&#x2520;" 
d="M474 -656v2600h252v-1230h544v-140h-544v-1230h-252z" />
    <glyph glyph-name="uni2521" unicode="&#x2521;" 
d="M530 -656v1174h-56v1426h252v-1174h544v-252h-600v-1174h-140z" />
    <glyph glyph-name="uni2522" unicode="&#x2522;" 
d="M474 -656v1426h56v1174h140v-1174h600v-252h-544v-1174h-252z" />
    <glyph glyph-name="uni2523" unicode="&#x2523;" 
d="M474 -656v2600h252v-1174h544v-252h-544v-1174h-252z" />
    <glyph glyph-name="uni2524" unicode="&#x2524;" 
d="M530 -656v1230h-600v140h600v1230h140v-2600h-140z" />
    <glyph glyph-name="uni2525" unicode="&#x2525;" 
d="M530 -656v1174h-600v252h600v1174h140v-2600h-140z" />
    <glyph glyph-name="uni2526" unicode="&#x2526;" 
d="M530 -656v1230h-600v140h544v1230h252v-1370h-56v-1230h-140z" />
    <glyph glyph-name="uni2527" unicode="&#x2527;" 
d="M474 -656v1230h-544v140h600v1230h140v-1230h56v-1370h-252z" />
    <glyph glyph-name="uni2528" unicode="&#x2528;" 
d="M474 -656v1230h-544v140h544v1230h252v-2600h-252z" />
    <glyph glyph-name="uni2529" unicode="&#x2529;" 
d="M530 -656v1174h-600v252h544v1174h252v-1426h-56v-1174h-140z" />
    <glyph glyph-name="uni252A" unicode="&#x252a;" 
d="M474 -656v1174h-544v252h600v1174h140v-1174h56v-1426h-252z" />
    <glyph glyph-name="uni252B" unicode="&#x252b;" 
d="M474 -656v1174h-544v252h544v1174h252v-2600h-252z" />
    <glyph glyph-name="uni252C" unicode="&#x252c;" 
d="M530 -656v1230h-600v140h1340v-140h-600v-1230h-140z" />
    <glyph glyph-name="uni252D" unicode="&#x252d;" 
d="M530 -656v1174h-600v252h740v-56h600v-140h-600v-1230h-140z" />
    <glyph glyph-name="uni252E" unicode="&#x252e;" 
d="M530 -656v1230h-600v140h600v56h740v-252h-600v-1174h-140z" />
    <glyph glyph-name="uni252F" unicode="&#x252f;" 
d="M530 -656v1174h-600v252h1340v-252h-600v-1174h-140z" />
    <glyph glyph-name="uni2530" unicode="&#x2530;" 
d="M474 -656v1230h-544v140h1340v-140h-544v-1230h-252z" />
    <glyph glyph-name="uni2531" unicode="&#x2531;" 
d="M474 -656v1174h-544v252h796v-56h544v-140h-544v-1230h-252z" />
    <glyph glyph-name="uni2532" unicode="&#x2532;" 
d="M474 -656v1230h-544v140h544v56h796v-252h-544v-1174h-252z" />
    <glyph glyph-name="uni2533" unicode="&#x2533;" 
d="M474 -656v1174h-544v252h1340v-252h-544v-1174h-252z" />
    <glyph glyph-name="uni2534" unicode="&#x2534;" 
d="M-70 574v140h600v1230h140v-1230h600v-140h-1340z" />
    <glyph glyph-name="uni2535" unicode="&#x2535;" 
d="M-70 518v252h600v1174h140v-1230h600v-140h-600v-56h-740z" />
    <glyph glyph-name="uni2536" unicode="&#x2536;" 
d="M530 518v56h-600v140h600v1230h140v-1174h600v-252h-740z" />
    <glyph glyph-name="uni2537" unicode="&#x2537;" 
d="M-70 518v252h600v1174h140v-1174h600v-252h-1340z" />
    <glyph glyph-name="uni2538" unicode="&#x2538;" 
d="M-70 574v140h544v1230h252v-1230h544v-140h-1340z" />
    <glyph glyph-name="uni2539" unicode="&#x2539;" 
d="M-70 518v252h544v1174h252v-1230h544v-140h-544v-56h-796z" />
    <glyph glyph-name="uni253A" unicode="&#x253a;" 
d="M474 518v56h-544v140h544v1230h252v-1174h544v-252h-796z" />
    <glyph glyph-name="uni253B" unicode="&#x253b;" 
d="M-70 518v252h544v1174h252v-1174h544v-252h-1340z" />
    <glyph glyph-name="uni253C" unicode="&#x253c;" 
d="M530 -656v1230h-600v140h600v1230h140v-1230h600v-140h-600v-1230h-140z" />
    <glyph glyph-name="uni253D" unicode="&#x253d;" 
d="M530 -656v1174h-600v252h600v1174h140v-1230h600v-140h-600v-1230h-140z" />
    <glyph glyph-name="uni253E" unicode="&#x253e;" 
d="M530 -656v1230h-600v140h600v1230h140v-1174h600v-252h-600v-1174h-140z" />
    <glyph glyph-name="uni253F" unicode="&#x253f;" 
d="M530 -656v1174h-600v252h600v1174h140v-1174h600v-252h-600v-1174h-140z" />
    <glyph glyph-name="uni2540" unicode="&#x2540;" 
d="M530 -656v1230h-600v140h544v1230h252v-1230h544v-140h-600v-1230h-140z" />
    <glyph glyph-name="uni2541" unicode="&#x2541;" 
d="M474 -656v1230h-544v140h600v1230h140v-1230h600v-140h-544v-1230h-252z" />
    <glyph glyph-name="uni2542" unicode="&#x2542;" 
d="M474 -656v1230h-544v140h544v1230h252v-1230h544v-140h-544v-1230h-252z" />
    <glyph glyph-name="uni2543" unicode="&#x2543;" 
d="M530 -656v1174h-600v252h544v1174h252v-1230h544v-140h-544v-56h-56v-1174h-140z" />
    <glyph glyph-name="uni2544" unicode="&#x2544;" 
d="M530 -656v1174h-56v56h-544v140h544v1230h252v-1174h544v-252h-600v-1174h-140z" />
    <glyph glyph-name="uni2545" unicode="&#x2545;" 
d="M474 -656v1174h-544v252h600v1174h140v-1174h56v-56h544v-140h-544v-1230h-252z" />
    <glyph glyph-name="uni2546" unicode="&#x2546;" 
d="M474 -656v1230h-544v140h544v56h56v1174h140v-1174h600v-252h-544v-1174h-252z" />
    <glyph glyph-name="uni2547" unicode="&#x2547;" 
d="M530 -656v1174h-600v252h544v1174h252v-1174h544v-252h-600v-1174h-140z" />
    <glyph glyph-name="uni2548" unicode="&#x2548;" 
d="M474 -656v1174h-544v252h600v1174h140v-1174h600v-252h-544v-1174h-252z" />
    <glyph glyph-name="uni2549" unicode="&#x2549;" 
d="M474 -656v1174h-544v252h544v1174h252v-1230h544v-140h-544v-1230h-252z" />
    <glyph glyph-name="uni254A" unicode="&#x254a;" 
d="M474 -656v1230h-544v140h544v1230h252v-1174h544v-252h-544v-1174h-252z" />
    <glyph glyph-name="uni254B" unicode="&#x254b;" 
d="M474 -656v1174h-544v252h544v1174h252v-1174h544v-252h-544v-1174h-252z" />
    <glyph glyph-name="uni254C" unicode="&#x254c;" 
d="M750 574v140h300v-140h-300zM150 574v140h300v-140h-300z" />
    <glyph glyph-name="uni254D" unicode="&#x254d;" 
d="M750 518v252h300v-252h-300zM150 518v252h300v-252h-300z" />
    <glyph glyph-name="uni254E" unicode="&#x254e;" 
d="M530 957v625h140v-625h-140zM530 -293v625h140v-625h-140z" />
    <glyph glyph-name="uni254F" unicode="&#x254f;" 
d="M474 957v625h252v-625h-252zM474 -293v625h252v-625h-252z" />
    <glyph glyph-name="uni2550" unicode="&#x2550;" 
d="M-70 714v140h1340v-140h-1340zM-70 434v140h1340v-140h-1340z" />
    <glyph glyph-name="uni2551" unicode="&#x2551;" 
d="M670 -656v2600h140v-2600h-140zM390 -656v2600h140v-2600h-140z" />
    <glyph glyph-name="uni2552" unicode="&#x2552;" 
d="M530 -656v1510h740v-140h-600v-140h600v-140h-600v-1090h-140z" />
    <glyph glyph-name="uni2553" unicode="&#x2553;" 
d="M390 -656v1370h880v-140h-460v-1230h-140v1230h-140v-1230h-140z" />
    <glyph glyph-name="uni2554" unicode="&#x2554;" 
d="M390 -656v1510h880v-140h-740v-1370h-140zM670 -656v1230h600v-140h-460v-1090h-140z" />
    <glyph glyph-name="uni2555" unicode="&#x2555;" 
d="M530 -656v1090h-600v140h600v140h-600v140h740v-1510h-140z" />
    <glyph glyph-name="uni2556" unicode="&#x2556;" 
d="M390 -656v1230h-460v140h880v-1370h-140v1230h-140v-1230h-140z" />
    <glyph glyph-name="uni2557" unicode="&#x2557;" 
d="M670 -656v1370h-740v140h880v-1510h-140zM390 -656v1090h-460v140h600v-1230h-140z" />
    <glyph glyph-name="uni2558" unicode="&#x2558;" 
d="M530 434v1510h140v-1090h600v-140h-600v-140h600v-140h-740z" />
    <glyph glyph-name="uni2559" unicode="&#x2559;" 
d="M390 574v1370h140v-1230h140v1230h140v-1230h460v-140h-880z" />
    <glyph glyph-name="uni255A" unicode="&#x255a;" 
d="M390 434v1510h140v-1370h740v-140h-880zM670 714v1230h140v-1090h460v-140h-600z" />
    <glyph glyph-name="uni255B" unicode="&#x255b;" 
d="M-70 434v140h600v140h-600v140h600v1090h140v-1510h-740z" />
    <glyph glyph-name="uni255C" unicode="&#x255c;" 
d="M-70 574v140h460v1230h140v-1230h140v1230h140v-1370h-880z" />
    <glyph glyph-name="uni255D" unicode="&#x255d;" 
d="M-70 434v140h740v1370h140v-1510h-880zM-70 714v140h460v1090h140v-1230h-600z" />
    <glyph glyph-name="uni255E" unicode="&#x255e;" 
d="M530 -656v2600h140v-1090h600v-140h-600v-140h600v-140h-600v-1090h-140z" />
    <glyph glyph-name="uni255F" unicode="&#x255f;" 
d="M670 -656v2600h140v-1230h460v-140h-460v-1230h-140zM390 -656v2600h140v-2600h-140z" />
    <glyph glyph-name="uni2560" unicode="&#x2560;" 
d="M670 714v1230h140v-1090h460v-140h-600zM670 -656v1230h600v-140h-460v-1090h-140zM390 -656v2600h140v-2600h-140z" />
    </font>
</defs>
</svg>
