<?xml version="1.0" standalone="no"?>
<!DOCTYPE svg PUBLIC "-//W3C//DTD SVG 1.1//EN" "http://www.w3.org/Graphics/SVG/1.1/DTD/svg11.dtd" >
<svg xmlns="http://www.w3.org/2000/svg" xmlns:xlink="http://www.w3.org/1999/xlink" version="1.1">
<metadata>
Created by FontForge 20201107 at Thu Aug 21 16:28:35 2025
 By www-data
Copyright 2025 The Google Sans Code Project Authors (github.com/googlefonts/googlesans-code)
</metadata>
<defs>
<font id="GoogleSansCode-Bold" horiz-adv-x="1200" >
  <font-face 
    font-family="Google Sans Code"
    font-weight="700"
    font-stretch="normal"
    units-per-em="2000"
    panose-1="2 11 5 9 3 5 2 4 2 4"
    ascent="1600"
    descent="-400"
    x-height="1052"
    cap-height="1432"
    bbox="-464 -897 1361 2359"
    underline-thickness="168"
    underline-position="-404"
    unicode-range="U+000D-FFFD"
  />
<missing-glyph 
d="M174 0v1432h852v-1432h-852zM302 120h596v1192h-596v-1192z" />
    <glyph glyph-name=".notdef" 
d="M174 0v1432h852v-1432h-852zM302 120h596v1192h-596v-1192z" />
    <glyph glyph-name=".null" horiz-adv-x="0" 
 />
    <glyph glyph-name="nonmarkingreturn" horiz-adv-x="666" 
 />
    <glyph glyph-name="NULL" 
 />
    <glyph glyph-name="NULL" 
 />
    <glyph glyph-name="CR" unicode="&#xd;" 
 />
    <glyph glyph-name="space" unicode=" " 
 />
    <glyph glyph-name="exclam" unicode="!" 
d="M451 597l-38 897h374l-38 -897h-298zM453.5 26q-59.5 60 -59.5 146t59.5 146t146.5 60t146.5 -60t59.5 -146t-59.5 -146t-146.5 -60t-146.5 60z" />
    <glyph glyph-name="quotedbl" unicode="&#x22;" 
d="M197 899v561h330v-561h-330zM673 899v561h330v-561h-330z" />
    <glyph glyph-name="numbersign" unicode="#" 
d="M602 -17l203 1467h230l-203 -1467h-230zM165 -17l203 1467h230l-203 -1467h-230zM23 339v231h1081v-231h-1081zM96 863v231h1081v-231h-1081z" />
    <glyph glyph-name="dollar" unicode="$" 
d="M619 0q-210 0 -353.5 102.5t-189.5 292.5l294 92q27 -113 97.5 -169.5t170.5 -56.5q82 0 129.5 38.5t47.5 107.5v8q0 58 -35.5 96t-113.5 66l-195 71q-175 64 -258.5 159t-83.5 225v11q0 119 61 206t172.5 135t263.5 48q181 0 302 -82.5t166 -234.5l-294 -94
q-24 75 -74 114t-130 39q-75 0 -117.5 -33.5t-42.5 -91.5v-3q0 -49 34.5 -81t117.5 -61l195 -72q174 -64 257 -162t83 -246v-10q0 -125 -63.5 -217.5t-176 -144.5t-264.5 -52zM505 -236v341v29v47h243v-47v-29v-341h-243zM505 1244v71v40v313h243v-313v-40v-71h-243z" />
    <glyph glyph-name="percent" unicode="%" 
d="M151 230l-142 182l1040 791l142 -182zM852 -34q-96 0 -167.5 42t-111.5 114t-40 163v8q0 92 40 164t111.5 113.5t167.5 41.5t167.5 -41.5t111 -113.5t39.5 -164v-8q0 -91 -39.5 -163t-111 -114t-167.5 -42zM852 152q53 0 85.5 37t32.5 98v4q0 61 -32.5 98t-85.5 37
q-54 0 -86.5 -37t-32.5 -98v-4q0 -61 32.5 -98t86.5 -37zM349 820q-96 0 -167.5 42t-111.5 114t-40 163v8q0 92 40 164t111.5 113.5t167.5 41.5t167.5 -41.5t111 -113.5t39.5 -164v-8q0 -91 -39.5 -163t-111 -114t-167.5 -42zM349 1006q53 0 85.5 37t32.5 98v4
q0 61 -32.5 98t-85.5 37q-54 0 -86.5 -37t-32.5 -98v-4q0 -61 32.5 -98t86.5 -37z" />
    <glyph glyph-name="ampersand" unicode="&#x26;" 
d="M990 -58l-656 730q-76 86 -123.5 155t-69 132t-21.5 129v2q0 112 53.5 196.5t149.5 132t223 47.5q165 0 277 -87t165 -258l-266 -83q-26 77 -65.5 113t-100.5 36t-97.5 -34t-36.5 -91v-7q0 -41 25 -86.5t83 -108.5l664 -725zM483 -34q-137 0 -240 53t-160 147t-57 215v12
q0 169 90 279.5t249 175.5l119 -175q-77 -31 -117.5 -88.5t-40.5 -145.5v-18q0 -88 53.5 -137.5t149.5 -49.5q91 0 152.5 58.5t100.5 195t61 369.5l283 -39q-42 -271 -134.5 -461.5t-222.5 -290.5t-286 -100z" />
    <glyph glyph-name="quotesingle" unicode="'" 
d="M435 899v561h330v-561h-330z" />
    <glyph glyph-name="parenleft" unicode="(" 
d="M892 1675l168 -221q-224 -166 -331 -357t-107 -433t107 -433t331 -357l-168 -221q-198 145 -325 300t-188 330t-61 381t61 381t188 330t325 300z" />
    <glyph glyph-name="parenright" unicode=")" 
d="M308 -342l-168 221q224 166 331 357t107 433t-107 433t-331 357l168 221q198 -145 325 -300t188 -330t61 -381t-61 -381t-188 -330t-325 -300z" />
    <glyph glyph-name="asterisk" unicode="*" 
d="M173 405l-114 199l505 250l463 289l114 -199l-505 -251zM1027 405l-463 288l-505 251l114 199l463 -289l505 -250zM488 208v1132h224v-1132h-224z" />
    <glyph glyph-name="plus" unicode="+" 
d="M447 159v976h306v-976h-306zM101 502v290h998v-290h-998z" />
    <glyph glyph-name="comma" unicode="," 
d="M493 -375l-168 120l278 358l-6 -93q-44 -3 -88.5 17t-74 61.5t-29.5 101.5q0 83 54.5 139.5t145.5 56.5q99 0 153 -61.5t54 -150.5q0 -65 -24.5 -122.5t-77.5 -129.5z" />
    <glyph glyph-name="hyphen" unicode="-" 
d="M128 493v306h944v-306h-944z" />
    <glyph glyph-name="period" unicode="." 
d="M600 -27q-86 0 -146 59.5t-60 146.5q0 86 60 145.5t146 59.5q88 0 147 -59.5t59 -145.5q0 -87 -59 -146.5t-147 -59.5z" />
    <glyph glyph-name="slash" unicode="/" 
d="M104 -176l695 1636h297l-695 -1636h-297z" />
    <glyph glyph-name="zero" unicode="0" 
d="M219 377l-98 225l860 454l98 -225zM601 -34q-247 0 -386 189t-139 537v49q0 349 139 537t386 188t385 -188t138 -537v-49q0 -348 -138 -537t-385 -189zM592 240q124 0 182 109.5t58 329.5v76q0 224 -55 330.5t-169 106.5q-124 0 -182 -108.5t-58 -328.5v-76
q0 -223 55 -331t169 -108z" />
    <glyph glyph-name="one" unicode="1" 
d="M527 110v957l-296 -148l-130 259l515 254h215v-1322h-304zM154 0v282h1004v-282h-1004z" />
    <glyph glyph-name="two" unicode="2" 
d="M114 0v242l485 533q75 83 102.5 135t27.5 111v7q0 64 -36 100t-100 36q-131 0 -192 -156l-293 109q62 166 196.5 257.5t315.5 91.5q130 0 228 -49.5t152.5 -137.5t54.5 -206v-9q0 -74 -22 -140.5t-75.5 -142t-148.5 -177.5l-286 -307v-10h559v-287h-968z" />
    <glyph glyph-name="three" unicode="3" 
d="M643 -34q-223 0 -369.5 103.5t-200.5 295.5l276 93q29 -100 97.5 -151.5t171.5 -51.5q86 0 137.5 41t51.5 116v20q0 73 -51.5 114t-156.5 41h-186v282h154q93 0 144 39t51 111v17q0 64 -43.5 103t-124.5 39q-76 0 -131 -39t-76 -109l-282 93q49 160 186 251.5t327 91.5
q137 0 239 -47.5t159 -131.5t57 -196v-10q0 -122 -66.5 -211t-190.5 -127v-7q147 -30 223.5 -125.5t76.5 -225.5v-12q0 -120 -60 -212t-166.5 -143.5t-246.5 -51.5z" />
    <glyph glyph-name="four" unicode="4" 
d="M650 0v438l18 49v611l43 -57h-51l-319 -474v-8h439l71 16h293v-270h-1098v244l594 883h310v-1432h-300z" />
    <glyph glyph-name="five" unicode="5" 
d="M595 -34q-128 0 -235 47.5t-181.5 135t-106.5 207.5l274 100q26 -96 91 -148.5t158 -52.5q97 0 155 55.5t58 148.5v20q0 93 -56.5 149t-148.5 56q-64 0 -119.5 -25.5t-95.5 -73.5l-268 83l98 764h814v-277h-596l-48 -339l8 -4q65 63 142.5 94.5t169.5 31.5q123 0 215 -58
t143.5 -162t51.5 -242v-10q0 -149 -65.5 -262t-183.5 -175.5t-274 -62.5z" />
    <glyph glyph-name="six" unicode="6" 
d="M598 -31q-151 0 -267 65.5t-182 180.5t-66 263v10q0 93 24.5 182.5t79 188.5t144.5 218l314 413l251 -182l-228 -267q-37 -43 -72.5 -75.5t-78.5 -63.5l4 -8q85 45 193 45q123 0 213.5 -59t140 -162t49.5 -236v-10q0 -147 -66 -260.5t-183 -178t-270 -64.5zM600 259
q98 0 152.5 58t54.5 152v20q0 95 -54 152.5t-153 57.5q-98 0 -152.5 -57.5t-54.5 -152.5v-20q0 -94 54.5 -152t152.5 -58z" />
    <glyph glyph-name="seven" unicode="7" 
d="M497 -34l-279 130l514 1039v8h-626v289h988v-242z" />
    <glyph glyph-name="eight" unicode="8" 
d="M338 19q-114 53 -178.5 147.5t-64.5 217.5v6q0 122 67.5 221.5t180.5 145.5v8q-93 45 -148 129.5t-55 182.5v4q0 115 58 201.5t161.5 135t240.5 48.5t240.5 -48.5t161.5 -135t58 -201.5v-4q0 -99 -54.5 -182t-148.5 -130v-8q113 -46 180.5 -146t67.5 -221v-6
q0 -123 -64.5 -217.5t-178 -147.5t-262 -53t-262.5 53zM600 237q92 0 146.5 52.5t54.5 138.5v16q0 87 -54.5 139t-146.5 52q-91 0 -145.5 -52t-54.5 -139v-16q0 -86 54.5 -138.5t145.5 -52.5zM719 917.5q45 42.5 45 112.5v14q0 71 -44.5 113.5t-119.5 42.5q-74 0 -119 -42.5
t-45 -113.5v-14q0 -70 45 -112.5t119 -42.5t119 42.5z" />
    <glyph glyph-name="nine" unicode="9" 
d="M602 1463q151 0 267 -65.5t182 -180t66 -263.5v-10q0 -92 -24.5 -182t-78.5 -189t-145 -218l-314 -413l-251 182l228 267q37 43 72.5 75.5t78.5 63.5l-4 8q-85 -45 -193 -45q-123 0 -213.5 59t-140 162t-49.5 236v10q0 148 66 261t183.5 177.5t269.5 64.5zM600 1173
q-98 0 -152.5 -57.5t-54.5 -152.5v-20q0 -94 54 -152t153 -58q98 0 152.5 58t54.5 152v20q0 95 -54.5 152.5t-152.5 57.5z" />
    <glyph glyph-name="colon" unicode=":" 
d="M600 678q-85 0 -145.5 59t-60.5 145t60 145t146 59q88 0 147 -59t59 -145t-59 -145t-147 -59zM600 -30q-85 0 -145.5 59t-60.5 146q0 85 60 144.5t146 59.5q88 0 147 -59.5t59 -144.5q0 -87 -59 -146t-147 -59z" />
    <glyph glyph-name="semicolon" unicode=";" 
d="M607 676q-86 0 -146 59.5t-60 146.5q0 86 60 145.5t146 59.5q88 0 147 -59.5t59 -145.5q0 -87 -59 -146.5t-147 -59.5zM493 -375l-168 120l278 358l-6 -93q-44 -3 -88.5 17t-74 61.5t-29.5 101.5q0 83 54.5 139.5t145.5 56.5q99 0 153 -61.5t54 -150.5
q0 -65 -24.5 -122.5t-77.5 -129.5z" />
    <glyph glyph-name="less" unicode="&#x3c;" 
d="M1060 37l-960 493v232l960 493v-298l-618 -305v-12l618 -305v-298z" />
    <glyph glyph-name="equal" unicode="=" 
d="M110 761v266h980v-266h-980zM110 265v266h980v-266h-980z" />
    <glyph glyph-name="greater" unicode="&#x3e;" 
d="M140 37v298l618 305v12l-618 305v298l960 -493v-232z" />
    <glyph glyph-name="question" unicode="?" 
d="M423 467v267l196 110q92 51 130 95.5t38 99.5v12q0 59 -42.5 93t-115.5 34q-88 0 -154.5 -48.5t-96.5 -135.5l-289 94q60 178 204.5 278t339.5 100q139 0 243.5 -52t162.5 -143.5t58 -212.5v-2q0 -117 -55.5 -206t-177.5 -160l-130 -76v-147h-311zM579 -34
q-83 0 -141.5 59.5t-58.5 141.5t58.5 138t141.5 56t140.5 -56t57.5 -138t-58 -141.5t-140 -59.5z" />
    <glyph glyph-name="at" unicode="@" 
d="M706 -233q-320 0 -491.5 231.5t-171.5 662.5v54q0 437 154 665t449 228q230 0 356.5 -141t126.5 -396v-850h-221v130h-8q-42 -74 -91 -107.5t-117 -33.5q-90 0 -158.5 54.5t-106.5 153t-38 229.5v26q0 132 38.5 230.5t108.5 153.5t163 55q68 0 116 -33t85 -106h8v93
q0 157 -65 236t-193 79q-187 0 -277.5 -163t-90.5 -498v-64q0 -329 105.5 -495t314.5 -166q151 0 284 100l120 -202q-168 -126 -400 -126zM756 425q69 0 107.5 57.5t38.5 160.5v36q0 103 -39 160.5t-107 57.5q-70 0 -110.5 -58.5t-40.5 -159.5v-36q0 -103 40 -160.5
t111 -57.5z" />
    <glyph glyph-name="A" unicode="A" 
d="M16 0l445 1432h282l441 -1432h-316l-221 885l-47 210h-7l-43 -210l-224 -885h-310zM220 276l76 241h592l82 -241h-750z" />
    <glyph glyph-name="B" unicode="B" 
d="M130 0v1432h525q189 0 300.5 -94t111.5 -254v-21q0 -111 -55 -191t-159 -120v-9q128 -33 199.5 -124t71.5 -222v-23q0 -114 -55 -198t-155.5 -130t-238.5 -46h-545zM432 248h201q90 0 138.5 44.5t48.5 126.5v18q0 82 -50.5 126.5t-143.5 44.5h-261v246h226q83 0 127.5 41
t44.5 117v14q0 77 -44.5 117.5t-127.5 40.5h-159v-936z" />
    <glyph glyph-name="C" unicode="C" 
d="M657 -34q-175 0 -305.5 90.5t-203 254t-72.5 383.5v44q0 222 70.5 385.5t198.5 253t302 89.5q185 0 309.5 -102t170.5 -293l-284 -85q-25 98 -72.5 144t-127.5 46q-121 0 -187 -113t-66 -320v-54q0 -204 70.5 -318.5t194.5 -114.5q157 0 206 197l284 -84
q-46 -191 -174 -297t-314 -106z" />
    <glyph glyph-name="D" unicode="D" 
d="M116 0v1432h418q180 0 311.5 -85t203 -240.5t71.5 -368.5v-44q0 -212 -71.5 -368t-203 -241t-311.5 -85h-418zM422 288h108q138 0 207 100.5t69 300.5v54q0 200 -69.5 300.5t-206.5 100.5h-108v-856z" />
    <glyph glyph-name="E" unicode="E" 
d="M144 0v1432h890v-286h-584v-860h600v-286h-906zM333 589v284h621v-284h-621z" />
    <glyph glyph-name="F" unicode="F" 
d="M144 0v1432h906v-288h-598v-1144h-308zM333 538v284h657v-284h-657z" />
    <glyph glyph-name="G" unicode="G" 
d="M649 -34q-181 0 -313 88.5t-203 251.5t-71 389v38q0 226 70.5 390.5t201 253.5t309.5 89q185 0 308.5 -93.5t175.5 -272.5l-277 -95q-25 90 -74.5 131.5t-130.5 41.5q-133 0 -203 -113t-70 -327v-48q0 -215 71.5 -327.5t207.5 -112.5q108 0 167.5 72.5t59.5 202.5v44
h-278v247h562v-228q0 -298 -133.5 -460t-379.5 -162z" />
    <glyph glyph-name="H" unicode="H" 
d="M772 0v1432h308v-1432h-308zM120 0v1432h308v-1432h-308zM313 588v284h586v-284h-586z" />
    <glyph glyph-name="I" unicode="I" 
d="M445 139v1154h310v-1154h-310zM142 0v289h916v-289h-916zM142 1144v288h916v-288h-916z" />
    <glyph glyph-name="J" unicode="J" 
d="M599 -34q-185 0 -316 103.5t-175 285.5l284 84q44 -183 194 -183q79 0 120.5 55t41.5 159v962h310v-970q0 -150 -57 -261.5t-160 -173t-242 -61.5z" />
    <glyph glyph-name="K" unicode="K" 
d="M821 0l-428 719v8l411 705h349l-462 -759v118l483 -791h-353zM94 0v1432h308v-1432h-308z" />
    <glyph glyph-name="L" unicode="L" 
d="M162 0v1432h308v-1142h638v-290h-946z" />
    <glyph glyph-name="M" unicode="M" 
d="M53 0v1432h304l152 -420l84 -285h14l84 285l152 420h304v-1432h-286v487l31 458h-14l-175 -514h-206l-175 514h-14l31 -458v-487h-286z" />
    <glyph glyph-name="N" unicode="N" 
d="M70 0v1432h305l468 -900h8l-20 329v571h299v-1432h-281l-493 944h-8l20 -329v-615h-298z" />
    <glyph glyph-name="O" unicode="O" 
d="M308 53q-122 87 -187 250.5t-65 390.5v44q0 228 65 391t187 250t292 87t292 -87t187 -250t65 -391v-44q0 -227 -65 -390.5t-187 -250.5t-292 -87t-292 87zM771.5 367q58.5 111 58.5 322v54q0 212 -58.5 322.5t-171 110.5t-171.5 -110.5t-59 -322.5v-54q0 -211 59 -322
t171.5 -111t171 111z" />
    <glyph glyph-name="P" unicode="P" 
d="M124 0v1432h464q159 0 274 -57.5t176.5 -164.5t61.5 -256v-22q0 -148 -61.5 -255.5t-176.5 -165t-274 -57.5h-287v278h281q97 0 152.5 52t55.5 143v32q0 91 -55.5 143t-152.5 52h-152v-1154h-306z" />
    <glyph glyph-name="Q" unicode="Q" 
d="M599 16q-163 0 -285 81.5t-190 233.5t-68 363v44q0 228 65 391t187 250t292 87t292 -87t187 -250t65 -391v-44q0 -211 -63.5 -363t-185 -233.5t-296.5 -81.5zM1045 -420q-104 0 -184 51t-162 175q-44 68 -72 102t-49.5 46t-49.5 12q-55 0 -89 -58t-51 -179l-303 53
q32 200 145 305.5t286 105.5q110 0 188 -44.5t151 -138.5q62 -79 105.5 -107.5t95.5 -28.5q43 0 89 21l65 -279q-81 -36 -165 -36zM600 256q112 0 171 106.5t59 320.5v54q0 215 -58.5 327t-171.5 112t-171.5 -112t-58.5 -327v-54q0 -214 59 -320.5t171 -106.5z" />
    <glyph glyph-name="R" unicode="R" 
d="M114 0v1432h465q157 0 270 -54.5t174 -156.5t61 -243v-14q0 -141 -61 -243t-174 -157t-270 -55h-288v260h281q95 0 148.5 47.5t53.5 132.5v24q0 85 -53.5 133t-148.5 48h-152v-1154h-306zM819 0l-348 624h337l358 -624h-347z" />
    <glyph glyph-name="S" unicode="S" 
d="M644 -34q-150 0 -271 52.5t-203 151t-116 234.5l283 75q29 -112 108 -173t198 -61q87 0 135 36.5t48 102.5v7q0 57 -42 95.5t-149 80.5l-195 77q-303 119 -303 398v4q0 125 61.5 219.5t170.5 147.5t254 53q197 0 324.5 -90.5t180.5 -266.5l-281 -80q-47 158 -224 158
q-83 0 -131.5 -34.5t-48.5 -93.5v-6q0 -48 34.5 -81t119.5 -67l195 -77q176 -70 258 -175t82 -263v-8q0 -125 -61 -218.5t-170.5 -145.5t-256.5 -52z" />
    <glyph glyph-name="T" unicode="T" 
d="M445 0v1283h310v-1283h-310zM78 1142v290h1044v-290h-1044z" />
    <glyph glyph-name="U" unicode="U" 
d="M338 29q-112 63 -174 175.5t-62 261.5v966h308v-958q0 -100 50.5 -159t139.5 -59q90 0 140 59t50 159v958h308v-966q0 -149 -62 -261.5t-173.5 -175.5t-262 -63t-262.5 63z" />
    <glyph glyph-name="V" unicode="V" 
d="M467 0l-451 1432h316l221 -850l46 -245h7l47 245l221 850h310l-451 -1432h-266z" />
    <glyph glyph-name="W" unicode="W" 
d="M205 0l-183 1432h283l74 -977h6l45 279l84 416h172l84 -416l45 -279h6l65 977h292l-183 -1432h-248l-105 520l-39 248h-6l-39 -248l-104 -520h-249z" />
    <glyph glyph-name="X" unicode="X" 
d="M848 0l-362 661l-33 19l-418 752h334l329 -598l33 -19l451 -815h-334zM18 0l448 800l31 17l340 615h328l-430 -765l-31 -17l-358 -650h-328z" />
    <glyph glyph-name="Y" unicode="Y" 
d="M477 438l-452 994h333l148 -356l95 -273h8l92 273l149 356h325l-451 -994h-247zM446 0v676h308v-676h-308z" />
    <glyph glyph-name="Z" unicode="Z" 
d="M104 0v258l614 887h-590v287h954v-258l-613 -887h627v-287h-992z" />
    <glyph glyph-name="bracketleft" unicode="[" 
d="M1058 1594v-250h-442v-1349h442v-250h-748v1849h748z" />
    <glyph glyph-name="backslash" unicode="\" 
d="M1096 -176h-297l-695 1636h297z" />
    <glyph glyph-name="bracketright" unicode="]" 
d="M142 -264v250h442v1349h-442v250h748v-1849h-748z" />
    <glyph glyph-name="asciicircum" unicode="^" 
d="M34 640l437 792h258l437 -792h-326l-235 454h-10l-235 -454h-326z" />
    <glyph glyph-name="underscore" unicode="_" 
d="M80 -294v260h1040v-260h-1040z" />
    <glyph glyph-name="grave" unicode="`" 
d="M587 882l-324 578h358l242 -578h-276z" />
    <glyph glyph-name="a" unicode="a" 
d="M463 -34q-103 0 -181.5 42t-122.5 117t-44 173v13q0 161 112.5 257.5t300.5 96.5q77 0 142.5 -13.5t121.5 -39.5v-175q-80 48 -185 48q-90 0 -138.5 -41t-48.5 -118v-14q0 -68 41.5 -105t116.5 -37q57 0 99.5 30.5t66.5 86t24 128.5v245q0 98 -50 147.5t-147 49.5
q-131 0 -245 -108l-156 167q170 170 440 170q221 0 336.5 -106t115.5 -307v-673h-288v135h-9q-45 -81 -123.5 -125t-178.5 -44z" />
    <glyph glyph-name="b" unicode="b" 
d="M721 -34q-97 0 -176 50t-126 140h-9v-156h-292v1460h302v-554h9q53 89 127 134.5t171 45.5q115 0 200.5 -68.5t133 -192.5t47.5 -291v-16q0 -165 -48.5 -289.5t-135.5 -193.5t-203 -69zM613 216q92 0 142.5 78t50.5 220v25q0 143 -50.5 220t-143.5 77q-91 0 -146 -82
t-55 -221v-14q0 -139 55 -221t147 -82z" />
    <glyph glyph-name="c" unicode="c" 
d="M654 -34q-160 0 -279 69t-184.5 193.5t-65.5 290.5v15q0 166 66 290t185.5 193t279.5 69q180 0 299.5 -89.5t161.5 -251.5l-271 -81q-20 81 -68.5 122t-125.5 41q-107 0 -168 -76t-61 -210v-30q0 -130 63.5 -207.5t171.5 -77.5q81 0 133 42.5t74 124.5l270 -89
q-30 -104 -99 -180t-166.5 -117t-215.5 -41z" />
    <glyph glyph-name="d" unicode="d" 
d="M500 -34q-115 0 -207.5 69.5t-146.5 194t-54 289.5v15q0 167 52 291t142.5 192.5t205.5 68.5q95 0 164 -45.5t115 -133.5h9v553h302v-1460h-292v156h-9q-43 -89 -116.5 -139.5t-164.5 -50.5zM593 216q89 0 142.5 81t53.5 222v14q0 140 -53.5 221.5t-142.5 81.5
q-93 0 -146 -77.5t-53 -220.5v-24q0 -143 53 -220.5t146 -77.5z" />
    <glyph glyph-name="e" unicode="e" 
d="M631 -34q-165 0 -287 68t-189 191.5t-67 289.5v22q0 165 67.5 288.5t188.5 192t281 68.5q144 0 251 -60t166.5 -169.5t59.5 -256.5q0 -43 -3 -79.5t-10 -65.5h-844v176h581v-6q0 104 -53 162.5t-146 58.5q-116 0 -183.5 -83.5t-67.5 -229.5v-14q0 -143 68.5 -226
t186.5 -83q145 0 207 142l257 -107q-60 -134 -180 -206.5t-284 -72.5z" />
    <glyph glyph-name="f" unicode="f" 
d="M359 0v1108q0 182 110.5 284t310.5 102q115 0 200.5 -29t163.5 -90l-150 -203q-47 37 -91 54.5t-99 17.5q-75 0 -114.5 -38t-39.5 -114v-137l12 -72v-883h-303zM108 780v228h985v-228h-985z" />
    <glyph glyph-name="g" unicode="g" 
d="M599 -572q-167 0 -293 46.5t-196 129.5t-70 193q0 114 72.5 194.5t202.5 109.5l46 -122q-28 -29 -41.5 -63t-13.5 -75q0 -89 76.5 -137t218.5 -48q139 0 220 44.5t81 120.5q0 106 -136 106h-528v98l212 334l159 -21l-63 -185h276q164 0 256 -80.5t92 -225.5
q0 -129 -69.5 -223t-197.5 -145t-304 -51zM609 274q-134 0 -241.5 53t-170 144.5t-62.5 205.5v6q0 119 58 210t161 142t238 51t242.5 -53t170 -144t62.5 -206v-6q0 -119 -58 -210t-161.5 -142t-238.5 -51zM601 506q92 0 144.5 45t52.5 123v8q0 78 -52.5 123t-144.5 45
t-145 -45t-53 -123v-8q0 -78 53 -123t145 -45zM840 932l-98 59q32 146 133.5 221t265.5 75v-250q-206 0 -301 -105z" />
    <glyph glyph-name="h" unicode="h" 
d="M138 0v1460h302v-547h9q122 173 323 173q146 0 230 -98t84 -268v-720h-302v654q0 180 -152 180q-86 0 -139 -60.5t-53 -158.5v-615h-302z" />
    <glyph glyph-name="i" unicode="i" 
d="M505 80v972h296v-972h-296zM167 0v225h947v-225h-947zM187 826v226h574v-226h-574zM622 1246q-82 0 -140 56.5t-58 137.5q0 84 58 138.5t140 54.5q85 0 140.5 -54.5t55.5 -138.5q0 -81 -55.5 -137.5t-140.5 -56.5z" />
    <glyph glyph-name="j" unicode="j" 
d="M440 -449q-201 0 -368 121l145 225q55 -40 105 -60t104 -20q80 0 123 48t43 137v1050h302v-1040q0 -215 -121 -338t-333 -123zM203 828v224h615v-224h-615zM716 1246q-82 0 -140 56.5t-58 137.5q0 83 57 138t141 55q86 0 141 -54.5t55 -138.5q0 -82 -56 -138t-140 -56z
" />
    <glyph glyph-name="k" unicode="k" 
d="M798 0l-397 563v8l381 481h346l-439 -540v114l453 -626h-344zM112 0v1460h302v-1460h-302z" />
    <glyph glyph-name="l" unicode="l" 
d="M792 -34q-202 0 -315.5 112.5t-113.5 311.5v1070h303v-1048q0 -176 155 -176q42 0 77.5 16t75.5 53l158 -213q-72 -65 -153.5 -95.5t-186.5 -30.5zM72 1226v234h519v-234h-519z" />
    <glyph glyph-name="m" unicode="m" 
d="M51 0v1052h253v-142h9q35 86 86.5 131t127.5 45q84 0 134 -62.5t57 -176.5h-20q33 116 94.5 177.5t146.5 61.5q213 0 213 -335v-751h-269v717q0 62 -15 89t-46 27q-40 0 -63 -38t-23 -109v-686h-269v714q0 63 -15 91t-46 28q-41 0 -63.5 -37.5t-22.5 -110.5v-685h-269z
" />
    <glyph glyph-name="n" unicode="n" 
d="M138 0v1052h287v-160h9q59 93 145 143.5t193 50.5q146 0 230 -99t84 -267v-720h-302v654q0 86 -38 133t-114 47q-86 0 -139 -60.5t-53 -158.5v-615h-302z" />
    <glyph glyph-name="o" unicode="o" 
d="M329 36.5q-118 70.5 -184.5 194.5t-66.5 284v22q0 160 66.5 284t184.5 194.5t271 70.5t270.5 -70.5t184.5 -194.5t67 -284v-22q0 -160 -67 -284t-184.5 -194.5t-270.5 -70.5t-271 70.5zM761.5 310q60.5 78 60.5 209v14q0 131 -60.5 209t-161.5 78t-161.5 -78t-60.5 -209
v-14q0 -131 60.5 -209t161.5 -78t161.5 78z" />
    <glyph glyph-name="p" unicode="p" 
d="M721 1086q116 0 203 -69t135.5 -193t48.5 -290v-16q0 -166 -47.5 -290.5t-133 -193t-200.5 -68.5q-97 0 -171 45.5t-127 134.5h-9v-554h-302v1460h292v-156h9q47 90 126 140t176 50zM613 836q-92 0 -147 -82t-55 -221v-14q0 -139 55 -221t146 -82q93 0 143.5 77.5
t50.5 219.5v25q0 143 -50.5 220.5t-142.5 77.5z" />
    <glyph glyph-name="q" unicode="q" 
d="M500 1086q91 0 164.5 -50.5t116.5 -139.5h9v156h292v-1460h-302v553h-9q-46 -88 -115 -133.5t-164 -45.5q-115 0 -205.5 68.5t-142.5 193t-52 290.5v15q0 166 54 290t146.5 193.5t207.5 69.5zM593 836q-93 0 -146 -77.5t-53 -220.5v-24q0 -142 53 -220t146 -78
q89 0 142.5 81.5t53.5 221.5v14q0 141 -53.5 222t-142.5 81z" />
    <glyph glyph-name="r" unicode="r" 
d="M297 110v942h253v-240h14q47 133 134 203.5t204 70.5q80 0 142 -31.5t126 -105.5l-183 -219q-46 49 -86.5 68.5t-93.5 19.5q-106 0 -161.5 -71t-55.5 -207v-430h-293zM84 0v226h846v-226h-846zM104 826v226h327v-226h-327z" />
    <glyph glyph-name="s" unicode="s" 
d="M645 -33q-195 0 -323.5 79.5t-175.5 229.5l253 84q23 -73 87 -113t155 -40q64 0 99.5 22t35.5 62v4q0 37 -30 58t-121 46l-151 43q-132 38 -202.5 115.5t-70.5 192.5v2q0 152 114 243t306 91q169 0 277.5 -66.5t149.5 -194.5l-253 -85q-38 110 -190 110
q-61 0 -94.5 -20.5t-33.5 -58.5v-1q0 -33 26.5 -53t96.5 -40l151 -42q157 -43 229.5 -124.5t72.5 -212.5v-4q0 -148 -111.5 -237.5t-296.5 -89.5z" />
    <glyph glyph-name="t" unicode="t" 
d="M782 -34q-210 0 -324 116.5t-114 330.5v913h302v-893q0 -99 41 -148t124 -49q86 0 163 70l144 -222q-138 -118 -336 -118zM96 824v228h960v-228h-960z" />
    <glyph glyph-name="u" unicode="u" 
d="M451 -34q-146 0 -229 96.5t-83 262.5v727h302v-658q0 -84 38.5 -129.5t108.5 -45.5q74 0 118.5 59t44.5 160v614h302v-1052h-287v160h-10q-48 -85 -124.5 -139.5t-180.5 -54.5z" />
    <glyph glyph-name="v" unicode="v" 
d="M446 0l-386 1052h320l156 -478l65 -276h9l65 276l148 478h317l-386 -1052h-308z" />
    <glyph glyph-name="w" unicode="w" 
d="M223 0l-220 1052h266l92 -598l15 -117h7l16 118l86 477h245l86 -476l15 -119h7l15 119l94 596h250l-221 -1052h-266l-92 505l-15 117h-7l-16 -117l-91 -505h-266z" />
    <glyph glyph-name="x" unicode="x" 
d="M808 0l-306 475l-45 18l-375 559h325l267 -413l44 -18l414 -621h-324zM68 0l409 601l39 10l292 441h310l-396 -581l-40 -11l-304 -460h-310z" />
    <glyph glyph-name="y" unicode="y" 
d="M325 -449q-178 0 -305 106l145 224q78 -64 152 -64q54 0 87.5 25.5t55.5 85.5l97 265h57l92 381l148 478h312l-437 -1175q-64 -173 -159.5 -249.5t-244.5 -76.5zM511 -87l-424 1139h314l155 -478l70 -276h90z" />
    <glyph glyph-name="z" unicode="z" 
d="M153 0v238l540 564h-519v250h863v-238l-539 -564h549v-250h-894z" />
    <glyph glyph-name="braceleft" unicode="{" 
d="M797 1662q72 0 140.5 -6t138.5 -18v-253q-47 10 -95.5 14.5t-100.5 4.5q-82 0 -121.5 -23t-39.5 -70q0 -28 16.5 -57t61.5 -82l18 -21q53 -61 75 -108.5t22 -99.5q0 -87 -65 -139.5t-186 -62.5l-339 -28v-95l339 -28q121 -10 186 -62.5t65 -139.5q0 -52 -22 -99.5
t-75 -108.5l-18 -21q-45 -52 -61.5 -81.5t-16.5 -57.5q0 -47 39.5 -70t121.5 -23q52 0 100.5 4.5t95.5 14.5v-253q-70 -12 -138.5 -18t-140.5 -6q-196 0 -299.5 67t-103.5 194q0 59 23 109.5t78 111.5l24 27q38 43 53 71t15 57q0 80 -126 95l-389 48v433l389 48
q126 15 126 95q0 29 -15 57t-53 71l-24 27q-55 61 -78 112t-23 109q0 127 103.5 194t299.5 67z" />
    <glyph glyph-name="bar" unicode="|" 
d="M446 -346v2124h308v-2124h-308z" />
    <glyph glyph-name="braceright" unicode="}" 
d="M403 -332q-72 0 -140.5 6t-138.5 18v253q47 -10 95.5 -14.5t100.5 -4.5q82 0 121.5 23t39.5 70q0 28 -16.5 57.5t-61.5 81.5l-18 21q-52 61 -74.5 108.5t-22.5 99.5q0 87 65 139.5t186 62.5l339 28v95l-339 28q-121 10 -186 62.5t-65 139.5q0 52 22.5 99.5t74.5 108.5
l18 21q45 53 61.5 82t16.5 57q0 47 -39.5 70t-121.5 23q-52 0 -100.5 -4.5t-95.5 -14.5v253q70 12 138.5 18t140.5 6q196 0 299.5 -67t103.5 -194q0 -58 -23 -109t-78 -112l-24 -27q-38 -43 -53 -71t-15 -57q0 -80 126 -95l389 -48v-433l-389 -48q-126 -15 -126 -95
q0 -29 15 -57t53 -71l24 -27q55 -61 78 -111.5t23 -109.5q0 -127 -103.5 -194t-299.5 -67z" />
    <glyph glyph-name="asciitilde" unicode="~" 
d="M844 551q-71 0 -132.5 28.5t-141.5 98.5q-49 43 -78 58.5t-58 15.5q-82 0 -82 -106v-90h-282v109q0 179 75.5 272t218.5 93q71 0 130.5 -29t135.5 -97q49 -43 78.5 -59t58.5 -16q81 0 81 107v89h282v-108q0 -179 -73 -272.5t-213 -93.5z" />
    <glyph glyph-name="uni00A0" unicode="&#xa0;" 
 />
    <glyph glyph-name="exclamdown" unicode="&#xa1;" 
d="M451 665h298l38 -897h-374zM746.5 1236q59.5 -60 59.5 -146t-59.5 -146t-146.5 -60t-146.5 60t-59.5 146t59.5 146t146.5 60t146.5 -60z" />
    <glyph glyph-name="cent" unicode="&#xa2;" 
d="M631 0q-159 0 -277.5 69.5t-184 193t-65.5 288.5v18q0 167 66.5 290.5t185.5 192.5t279 69q184 0 307.5 -90t166.5 -254l-274 -79q-22 80 -71.5 121.5t-132.5 41.5q-106 0 -167.5 -74.5t-61.5 -204.5v-44q0 -129 63 -203.5t169 -74.5q81 0 132.5 43t77.5 125l270 -89
q-30 -105 -99 -181t-166.5 -117t-217.5 -41zM503 -236v324l20 37v70h206v-70l30 -37v-324h-256zM523 925v70l-20 37v325h256v-325l-30 -37v-70h-206z" />
    <glyph glyph-name="sterling" unicode="&#xa3;" 
d="M291 -14l-236 127q41 75 89.5 128t114.5 94q65 41 90.5 80.5t25.5 100.5q0 64 -21 127t-49 128t-49 135t-21 149q0 122 58 214.5t162 144.5t242 52q123 0 215 -35.5t180 -116.5l-174 -205q-49 47 -92 68t-102 21q-82 0 -131 -47t-49 -129q0 -87 28.5 -171.5t56.5 -163.5
t28 -151q0 -70 -32 -113t-108 -76v-16q39 -1 72 -10.5t63.5 -21.5t59.5 -21.5t59 -9.5q52 0 79 29t50 100l269 -80q-43 -147 -117.5 -232t-202.5 -85q-54 0 -104 13.5t-97.5 30.5t-94.5 30.5t-95 13.5q-111 0 -167 -102zM65 668v204h915v-204h-915z" />
    <glyph glyph-name="currency" unicode="&#xa4;" 
d="M368 307q-105 61 -168.5 163t-63.5 223v20q0 122 63.5 223.5t168.5 162.5t232 61t232 -61t168.5 -162.5t63.5 -223.5v-20q0 -121 -63.5 -223t-168.5 -163t-232 -61t-232 61zM194 119l-178 178l253 253l177 -178zM600 472q65 0 114.5 28t77.5 77.5t28 113.5v24
q0 64 -28 113.5t-77.5 78t-114.5 28.5q-64 0 -113.5 -28.5t-78 -78t-28.5 -113.5v-24q0 -64 28.5 -113.5t78 -77.5t113.5 -28zM269 857l-253 253l178 177l253 -252zM1007 119l-253 253l177 177l253 -252zM932 857l-178 177l253 253l177 -177z" />
    <glyph glyph-name="yen" unicode="&#xa5;" 
d="M462 525l-437 907h333l144 -356l99 -303h8l96 303l145 356h325l-437 -907h-276zM454 0v676h292v-676h-292zM136 536v184h929v-184h-929zM136 224v184h929v-184h-929z" />
    <glyph glyph-name="brokenbar" unicode="&#xa6;" 
d="M446 928v850h308v-850h-308zM446 -346v850h308v-850h-308z" />
    <glyph glyph-name="section" unicode="&#xa7;" 
d="M809 232l-117 132q77 40 113.5 87.5t36.5 106.5q0 52 -26.5 81.5t-92.5 51.5l-233 76q-120 39 -191.5 133.5t-71.5 211.5q0 105 54.5 185t152 124.5t224.5 44.5q276 0 402 -212l-207 -157q-72 117 -217 117q-67 0 -105 -25.5t-38 -72.5q0 -40 27 -65.5t94 -48.5l186 -61
q161 -52 231.5 -136t70.5 -221q0 -121 -76.5 -212.5t-216.5 -139.5zM575 -216q-294 0 -435 218l209 155q82 -121 225 -121q64 0 98.5 25t34.5 71q0 41 -26 66t-95 48l-186 62q-302 101 -302 351q0 123 76 215.5t217 141.5l86 -166q-61 -28 -90 -67t-29 -91q0 -50 28.5 -82
t89.5 -52l233 -76q124 -40 194 -134t70 -216q0 -103 -50 -181.5t-139.5 -122.5t-208.5 -44z" />
    <glyph glyph-name="dieresis" unicode="&#xa8;" 
d="M328 1246q-80 0 -136 55t-56 134t56 134t136 55q81 0 136.5 -54.5t55.5 -134.5t-55 -134.5t-137 -54.5zM872 1246q-80 0 -136 55t-56 134t56 134t136 55q81 0 136.5 -54.5t55.5 -134.5t-55 -134.5t-137 -54.5z" />
    <glyph glyph-name="copyright" unicode="&#xa9;" 
d="M287 50q-133 84 -206 238t-73 362v132q0 209 73 362.5t206 237.5t313.5 84t313 -84t205.5 -237.5t73 -362.5v-132q0 -208 -73 -362t-205.5 -238t-313 -84t-313.5 84zM961.5 213.5q130.5 157.5 130.5 435.5v134q0 278 -130.5 435.5t-361.5 157.5t-361.5 -157.5
t-130.5 -435.5v-134q0 -278 130.5 -435.5t361.5 -157.5t361.5 157.5zM618 291q-157 0 -248 108t-91 293v57q0 185 91 292.5t248 107.5q134 0 216 -80.5t96 -225.5l-164 -13q-15 163 -151 163q-85 0 -130 -62t-45 -180v-62q0 -118 45 -180t130 -62q136 0 151 163l164 -13
q-14 -144 -96 -225t-216 -81z" />
    <glyph glyph-name="ordfeminine" unicode="&#xaa;" 
d="M442 551q-130 0 -213 74t-83 191v11q0 126 87 201.5t232 75.5q146 0 261 -78v-109q-40 19 -76.5 27t-85.5 8q-73 0 -107.5 -26.5t-34.5 -84.5v-14q0 -106 128 -106q76 0 120 43t44 114v204q0 97 -42.5 138.5t-147.5 41.5q-73 0 -139.5 -17.5t-128.5 -46.5l-74 199
q177 69 392 69q205 0 302.5 -92t97.5 -278v-529h-250v138h-14q-47 -75 -115.5 -114.5t-152.5 -39.5z" />
    <glyph glyph-name="guillemotleft" unicode="&#xab;" 
d="M998 8l-481 524l481 525l172 -150l-322 -375l322 -375zM490 8l-480 524l480 525l174 -147l-323 -378l323 -378z" />
    <glyph glyph-name="logicalnot" unicode="&#xac;" 
d="M782 106v491l100 -98h-758v285h952v-678h-294z" />
    <glyph glyph-name="registered" unicode="&#xae;" 
d="M287 54q-133 84 -206 238t-73 362v128q0 209 73 362.5t206 237.5t313.5 84t313 -84t205.5 -237.5t73 -362.5v-128q0 -208 -73 -362t-205.5 -238t-313 -84t-313.5 84zM748 294l-200 373h181l205 -364v-9h-186zM961.5 217.5q130.5 157.5 130.5 435.5v130
q0 278 -130.5 435.5t-361.5 157.5t-361.5 -157.5t-130.5 -435.5v-130q0 -278 130.5 -435.5t361.5 -157.5t361.5 157.5zM326 294v852h280q139 0 218.5 -71t79.5 -196v-9q0 -124 -80 -196.5t-219 -72.5h-179v144h176q66 0 102 31t36 84v17q0 54 -36 84t-102 30h-113v-697h-163
z" />
    <glyph glyph-name="macron" unicode="&#xaf;" 
d="M277 1315v246h646v-246h-646z" />
    <glyph glyph-name="degree" unicode="&#xb0;" 
d="M384 749q-90 50 -142 137t-52 196q0 110 52 197t142 137t203.5 50t203 -50t141.5 -137t52 -197q0 -109 -52 -196t-141.5 -137t-203 -50t-203.5 50zM697.5 969q42.5 44 42.5 113q0 70 -42.5 114t-110 44t-110.5 -44t-43 -114q0 -69 43 -113t110.5 -44t110 44z" />
    <glyph glyph-name="plusminus" unicode="&#xb1;" 
d="M108 0v276h984v-276h-984zM106 680v274h988v-274h-988zM454 376v882h292v-882h-292z" />
    <glyph glyph-name="uni00B2" unicode="&#xb2;" 
d="M205 687v197l344 347q51 51 71 85.5t20 73.5v4q0 35 -20 56t-55 21q-44 0 -75.5 -31.5t-55.5 -102.5l-249 92q50 143 153 218.5t247 75.5q152 0 242 -82.5t90 -220.5v-5q0 -82 -36 -149.5t-129 -164.5l-151 -157v-7h350v-250h-746z" />
    <glyph glyph-name="uni00B3" unicode="&#xb3;" 
d="M604 677q-168 0 -278 67.5t-154 198.5l255 99q39 -113 161 -113q51 0 80.5 22.5t29.5 61.5v7q0 91 -121 91h-133v188h110q57 0 88 22t31 63v7q0 38 -24 59t-66 21q-95 0 -127 -90l-259 86q48 124 154.5 190t257.5 66q153 0 246.5 -75.5t93.5 -198.5v-7q0 -81 -43 -137.5
t-125 -84.5v-13q93 -22 143 -84.5t50 -157.5v-4q0 -127 -101.5 -205.5t-268.5 -78.5z" />
    <glyph glyph-name="acute" unicode="&#xb4;" 
d="M322 1258v14l208 364h348v-13l-290 -365h-266z" />
    <glyph glyph-name="uni00B5" unicode="&#xb5;" 
d="M127 -407v1459h302v-714q0 -56 29.5 -88t80.5 -32q76 0 121 65.5t45 187.5v581h302v-743q0 -91 77 -91q28 0 56 12l51 -213q-48 -25 -94.5 -38t-99.5 -13q-103 0 -167 57t-75 158h-10q-78 -215 -244 -215q-102 0 -176 62.5t-100 169.5l194 -76l19 -529h-311z" />
    <glyph glyph-name="paragraph" unicode="&#xb6;" 
d="M495 -408v1044l93 -63h-47q-243 0 -371 113.5t-128 311.5v10q0 197 128 310.5t371 113.5h190v-1840h-236zM873 -408v1840h235v-1840h-235z" />
    <glyph glyph-name="periodcentered" unicode="&#xb7;" 
d="M600 628q-86 0 -146 59.5t-60 146.5q0 86 60 145.5t146 59.5q88 0 147 -59.5t59 -145.5q0 -87 -59 -146.5t-147 -59.5z" />
    <glyph glyph-name="cedilla" unicode="&#xb8;" 
d="M606 -658q-99 0 -186 52t-137 139l168 102q61 -105 154 -105q51 0 82 27t31 72q0 46 -28 72.5t-75 26.5q-54 0 -96 -30l-116 100l137 221h156l-165 -260l-80 43q40 41 92 63.5t108 22.5q120 0 192.5 -73t72.5 -194q0 -124 -86 -201.5t-224 -77.5z" />
    <glyph glyph-name="uni00B9" unicode="&#xb9;" 
d="M484 815v585l-212 -90l-100 234l414 169h174v-898h-276zM215 687v254h785v-254h-785z" />
    <glyph glyph-name="ordmasculine" unicode="&#xba;" 
d="M322 631.5q-100 55.5 -157 152.5t-57 221v33q0 124 57 220.5t157 152t228.5 55.5t228 -55.5t156.5 -152t57 -220.5v-33q0 -124 -57 -221t-156.5 -152.5t-228 -55.5t-228.5 55.5zM673 872.5q43 52.5 43 136.5v24q0 83 -43 136t-123 53t-123 -53t-43 -136v-24
q0 -84 43 -136.5t123 -52.5t123 52.5z" />
    <glyph glyph-name="guillemotright" unicode="&#xbb;" 
d="M202 8l-172 149l322 375l-322 375l172 150l481 -525zM710 8l-174 146l323 378l-323 378l174 147l480 -525z" />
    <glyph glyph-name="onequarter" unicode="&#xbc;" 
d="M884 -34v206l9 20v291l28 -34h-38l-148 -192v-10h220l24 8h177v-173h-618v185l323 418h206v-719h-183zM244 750v469l-168 -64l-70 196l306 109h144v-710h-212zM85 -34l861 1494h173l-861 -1494h-173z" />
    <glyph glyph-name="onehalf" unicode="&#xbd;" 
d="M55 -34l861 1494h173l-860 -1494h-174zM616 -34v177l249 182q53 38 73 62.5t20 52.5v3q0 27 -17 43t-49 16q-83 0 -93 -94l-199 21q14 116 98 188.5t208 72.5q119 0 185 -66t66 -166v-4q0 -70 -32.5 -124.5t-108.5 -108.5l-86 -61v-8h236v-186h-550zM240 750v469
l-168 -64l-70 196l306 109h144v-710h-212z" />
    <glyph glyph-name="threequarters" unicode="&#xbe;" 
d="M888 -34v206l8 20v291l28 -34h-38l-148 -192v-10h220l24 8h177v-173h-618v185l323 418h206v-719h-182zM303 718q-115 0 -191 47.5t-101 135.5l183 58q10 -33 34 -51.5t64 -18.5q36 0 57 19t21 50v6q0 36 -24 54t-80 18h-105v112h99q47 0 72 18t25 53v6q0 32 -17.5 48
t-55.5 16q-67 0 -81 -54l-186 50q24 83 97 129t189 46q113 0 177 -50t64 -139v-4q0 -118 -122 -163v-9q135 -38 135 -166v-4q0 -89 -71.5 -148t-182.5 -59zM73 -34l938 1494h177l-937 -1494h-178z" />
    <glyph glyph-name="questiondown" unicode="&#xbf;" 
d="M777 765v-267l-196 -110q-91 -51 -129.5 -95.5t-38.5 -99.5v-12q0 -59 42.5 -93t115.5 -34q89 0 155 48.5t96 135.5l289 -94q-60 -178 -204.5 -278t-339.5 -100q-139 0 -243.5 52t-162.5 144t-58 212v2q0 117 56 206t177 160l130 76v147h311zM621 1266q83 0 141.5 -59
t58.5 -142q0 -82 -58.5 -138t-141.5 -56t-140.5 56t-57.5 138q0 83 58 142t140 59z" />
    <glyph glyph-name="Agrave" unicode="&#xc0;" 
d="M16 0l445 1432h282l441 -1432h-316l-221 885l-47 210h-7l-43 -210l-224 -885h-310zM220 276l76 241h592l82 -241h-750zM469 1638l-289 365v13h348l207 -364v-14h-266z" />
    <glyph glyph-name="Aacute" unicode="&#xc1;" 
d="M16 0l445 1432h282l441 -1432h-316l-221 885l-47 210h-7l-43 -210l-224 -885h-310zM220 276l76 241h592l82 -241h-750zM469 1638v14l208 364h348v-13l-290 -365h-266z" />
    <glyph glyph-name="Acircumflex" unicode="&#xc2;" 
d="M16 0l445 1432h282l441 -1432h-316l-221 885l-47 210h-7l-43 -210l-224 -885h-310zM220 276l76 241h592l82 -241h-750zM165 1638v14l290 364h294l290 -364v-14h-296l-173 295h65l-174 -295h-296z" />
    <glyph glyph-name="Atilde" unicode="&#xc3;" 
d="M16 0l445 1432h282l441 -1432h-316l-221 885l-47 210h-7l-43 -210l-224 -885h-310zM220 276l76 241h592l82 -241h-750zM781 1639q-49 0 -96.5 21.5t-99.5 70.5q-38 36 -61 52t-45 16q-56 0 -56 -74v-83h-216v91q0 138 59 212t170 74q48 0 91 -20.5t93 -70.5
q38 -37 61.5 -53t46.5 -16q53 0 53 73v84h217v-90q0 -139 -53.5 -213t-163.5 -74z" />
    <glyph glyph-name="Adieresis" unicode="&#xc4;" 
d="M16 0l445 1432h282l441 -1432h-316l-221 885l-47 210h-7l-43 -210l-224 -885h-310zM220 276l76 241h592l82 -241h-750zM330 1626q-80 0 -136 55t-56 134t56 134t136 55q81 0 136.5 -54.5t55.5 -134.5t-55 -134.5t-137 -54.5zM874 1626q-80 0 -136 55t-56 134t56 134
t136 55q81 0 136.5 -54.5t55.5 -134.5t-55 -134.5t-137 -54.5z" />
    <glyph glyph-name="Aring" unicode="&#xc5;" 
d="M16 0l445 1432h282l441 -1432h-316l-221 885l-47 210h-7l-43 -210l-224 -885h-310zM220 276l76 241h592l82 -241h-750zM444.5 1571.5q-70.5 40.5 -112.5 108.5t-42 152q0 85 42 153t112.5 108.5t157.5 40.5t157.5 -40.5t112.5 -108.5t42 -153q0 -84 -42 -152
t-112.5 -108.5t-157.5 -40.5t-157.5 40.5zM689.5 1745.5q34.5 34.5 34.5 87t-34.5 87t-87 34.5t-87.5 -34.5t-35 -87t35 -87t87.5 -34.5t87 34.5z" />
    <glyph glyph-name="AE" unicode="&#xc6;" 
d="M4 0l351 1432h362l-14 -264h-160l-48 -293l-193 -875h-298zM194 284l72 236h431v-236h-503zM612 0v1432h567v-277h-327v-878h343v-277h-583zM751 594v273h382v-273h-382z" />
    <glyph glyph-name="Ccedilla" unicode="&#xc7;" 
d="M657 -34q-175 0 -305.5 90.5t-203 254t-72.5 383.5v44q0 222 70.5 385.5t198.5 253t302 89.5q185 0 309.5 -102t170.5 -293l-284 -85q-25 98 -72.5 144t-127.5 46q-121 0 -187 -113t-66 -320v-54q0 -204 70.5 -318.5t194.5 -114.5q157 0 206 197l284 -84
q-46 -191 -174 -297t-314 -106zM660 -658q-99 0 -186 52t-137 139l168 102q61 -105 154 -105q51 0 82 27t31 72q0 46 -28 72.5t-75 26.5q-54 0 -96 -30l-116 100l137 221h156l-165 -260l-80 43q40 41 92 63.5t108 22.5q120 0 192.5 -73t72.5 -194q0 -124 -86 -201.5
t-224 -77.5z" />
    <glyph glyph-name="Egrave" unicode="&#xc8;" 
d="M144 0v1432h890v-286h-584v-860h600v-286h-906zM333 589v284h621v-284h-621zM456 1638l-289 365v13h348l207 -364v-14h-266z" />
    <glyph glyph-name="Eacute" unicode="&#xc9;" 
d="M144 0v1432h890v-286h-584v-860h600v-286h-906zM333 589v284h621v-284h-621zM456 1638v14l208 364h348v-13l-290 -365h-266z" />
    <glyph glyph-name="Ecircumflex" unicode="&#xca;" 
d="M144 0v1432h890v-286h-584v-860h600v-286h-906zM333 589v284h621v-284h-621zM152 1638v14l290 364h294l290 -364v-14h-296l-173 295h65l-174 -295h-296z" />
    <glyph glyph-name="Edieresis" unicode="&#xcb;" 
d="M144 0v1432h890v-286h-584v-860h600v-286h-906zM333 589v284h621v-284h-621zM317 1626q-80 0 -136 55t-56 134t56 134t136 55q81 0 136.5 -54.5t55.5 -134.5t-55 -134.5t-137 -54.5zM861 1626q-80 0 -136 55t-56 134t56 134t136 55q81 0 136.5 -54.5t55.5 -134.5
t-55 -134.5t-137 -54.5z" />
    <glyph glyph-name="Igrave" unicode="&#xcc;" 
d="M445 139v1154h310v-1154h-310zM142 0v289h916v-289h-916zM142 1144v288h916v-288h-916zM467 1638l-289 365v13h348l207 -364v-14h-266z" />
    <glyph glyph-name="Iacute" unicode="&#xcd;" 
d="M445 139v1154h310v-1154h-310zM142 0v289h916v-289h-916zM142 1144v288h916v-288h-916zM467 1638v14l208 364h348v-13l-290 -365h-266z" />
    <glyph glyph-name="Icircumflex" unicode="&#xce;" 
d="M445 139v1154h310v-1154h-310zM142 0v289h916v-289h-916zM142 1144v288h916v-288h-916zM163 1638v14l290 364h294l290 -364v-14h-296l-173 295h65l-174 -295h-296z" />
    <glyph glyph-name="Idieresis" unicode="&#xcf;" 
d="M445 139v1154h310v-1154h-310zM142 0v289h916v-289h-916zM142 1144v288h916v-288h-916zM328 1626q-80 0 -136 55t-56 134t56 134t136 55q81 0 136.5 -54.5t55.5 -134.5t-55 -134.5t-137 -54.5zM872 1626q-80 0 -136 55t-56 134t56 134t136 55q81 0 136.5 -54.5
t55.5 -134.5t-55 -134.5t-137 -54.5z" />
    <glyph glyph-name="Eth" unicode="&#xd0;" 
d="M176 0v1432h400q183 0 314 -83t201 -238.5t70 -372.5v-44q0 -217 -70 -372.5t-201 -238.5t-314 -83h-400zM31 599v272h690v-272h-690zM444 278h131q160 0 231 102.5t71 308.5v54q0 207 -71 309t-231 102h-131v-876z" />
    <glyph glyph-name="Ntilde" unicode="&#xd1;" 
d="M70 0v1432h305l468 -900h8l-20 329v571h299v-1432h-281l-493 944h-8l20 -329v-615h-298zM782 1639q-49 0 -96.5 21.5t-99.5 70.5q-38 36 -61 52t-45 16q-56 0 -56 -74v-83h-216v91q0 138 59 212t170 74q48 0 91 -20.5t93 -70.5q38 -37 61.5 -53t46.5 -16q53 0 53 73v84
h217v-90q0 -139 -53.5 -213t-163.5 -74z" />
    <glyph glyph-name="Ograve" unicode="&#xd2;" 
d="M308 53q-122 87 -187 250.5t-65 390.5v44q0 228 65 391t187 250t292 87t292 -87t187 -250t65 -391v-44q0 -227 -65 -390.5t-187 -250.5t-292 -87t-292 87zM771.5 367q58.5 111 58.5 322v54q0 212 -58.5 322.5t-171 110.5t-171.5 -110.5t-59 -322.5v-54q0 -211 59 -322
t171.5 -111t171 111zM467 1638l-289 365v13h348l207 -364v-14h-266z" />
    <glyph glyph-name="Oacute" unicode="&#xd3;" 
d="M308 53q-122 87 -187 250.5t-65 390.5v44q0 228 65 391t187 250t292 87t292 -87t187 -250t65 -391v-44q0 -227 -65 -390.5t-187 -250.5t-292 -87t-292 87zM771.5 367q58.5 111 58.5 322v54q0 212 -58.5 322.5t-171 110.5t-171.5 -110.5t-59 -322.5v-54q0 -211 59 -322
t171.5 -111t171 111zM467 1638v14l208 364h348v-13l-290 -365h-266z" />
    <glyph glyph-name="Ocircumflex" unicode="&#xd4;" 
d="M308 53q-122 87 -187 250.5t-65 390.5v44q0 228 65 391t187 250t292 87t292 -87t187 -250t65 -391v-44q0 -227 -65 -390.5t-187 -250.5t-292 -87t-292 87zM771.5 367q58.5 111 58.5 322v54q0 212 -58.5 322.5t-171 110.5t-171.5 -110.5t-59 -322.5v-54q0 -211 59 -322
t171.5 -111t171 111zM163 1638v14l290 364h294l290 -364v-14h-296l-173 295h65l-174 -295h-296z" />
    <glyph glyph-name="Otilde" unicode="&#xd5;" 
d="M308 53q-122 87 -187 250.5t-65 390.5v44q0 228 65 391t187 250t292 87t292 -87t187 -250t65 -391v-44q0 -227 -65 -390.5t-187 -250.5t-292 -87t-292 87zM771.5 367q58.5 111 58.5 322v54q0 212 -58.5 322.5t-171 110.5t-171.5 -110.5t-59 -322.5v-54q0 -211 59 -322
t171.5 -111t171 111zM779 1639q-49 0 -96.5 21.5t-99.5 70.5q-38 36 -61 52t-45 16q-56 0 -56 -74v-83h-216v91q0 138 59 212t170 74q48 0 91 -20.5t93 -70.5q38 -37 61.5 -53t46.5 -16q53 0 53 73v84h217v-90q0 -139 -53.5 -213t-163.5 -74z" />
    <glyph glyph-name="Odieresis" unicode="&#xd6;" 
d="M308 53q-122 87 -187 250.5t-65 390.5v44q0 228 65 391t187 250t292 87t292 -87t187 -250t65 -391v-44q0 -227 -65 -390.5t-187 -250.5t-292 -87t-292 87zM771.5 367q58.5 111 58.5 322v54q0 212 -58.5 322.5t-171 110.5t-171.5 -110.5t-59 -322.5v-54q0 -211 59 -322
t171.5 -111t171 111zM328 1626q-80 0 -136 55t-56 134t56 134t136 55q81 0 136.5 -54.5t55.5 -134.5t-55 -134.5t-137 -54.5zM872 1626q-80 0 -136 55t-56 134t56 134t136 55q81 0 136.5 -54.5t55.5 -134.5t-55 -134.5t-137 -54.5z" />
    <glyph glyph-name="multiply" unicode="&#xd7;" 
d="M316 156l-200 199l769 770l199 -200zM885 156l-769 769l200 200l768 -770z" />
    <glyph glyph-name="Oslash" unicode="&#xd8;" 
d="M205 -217l-177 95l967 1771l177 -95zM608 -34q-164 0 -289.5 91t-196 255t-70.5 382v44q0 228 65 391t186 250t289 87q165 0 290 -91t195.5 -254.5t70.5 -382.5v-44q0 -227 -64.5 -390t-185.5 -250.5t-290 -87.5zM584 232q138 0 209 113t71 336v86q0 229 -55 331
t-193 102q-137 0 -208.5 -112.5t-71.5 -336.5v-86q0 -229 55 -331t193 -102z" />
    <glyph glyph-name="Ugrave" unicode="&#xd9;" 
d="M338 29q-112 63 -174 175.5t-62 261.5v966h308v-958q0 -100 50.5 -159t139.5 -59q90 0 140 59t50 159v958h308v-966q0 -149 -62 -261.5t-173.5 -175.5t-262 -63t-262.5 63zM467 1638l-289 365v13h348l207 -364v-14h-266z" />
    <glyph glyph-name="Uacute" unicode="&#xda;" 
d="M338 29q-112 63 -174 175.5t-62 261.5v966h308v-958q0 -100 50.5 -159t139.5 -59q90 0 140 59t50 159v958h308v-966q0 -149 -62 -261.5t-173.5 -175.5t-262 -63t-262.5 63zM467 1638v14l208 364h348v-13l-290 -365h-266z" />
    <glyph glyph-name="Ucircumflex" unicode="&#xdb;" 
d="M338 29q-112 63 -174 175.5t-62 261.5v966h308v-958q0 -100 50.5 -159t139.5 -59q90 0 140 59t50 159v958h308v-966q0 -149 -62 -261.5t-173.5 -175.5t-262 -63t-262.5 63zM163 1638v14l290 364h294l290 -364v-14h-296l-173 295h65l-174 -295h-296z" />
    <glyph glyph-name="Udieresis" unicode="&#xdc;" 
d="M338 29q-112 63 -174 175.5t-62 261.5v966h308v-958q0 -100 50.5 -159t139.5 -59q90 0 140 59t50 159v958h308v-966q0 -149 -62 -261.5t-173.5 -175.5t-262 -63t-262.5 63zM328 1626q-80 0 -136 55t-56 134t56 134t136 55q81 0 136.5 -54.5t55.5 -134.5t-55 -134.5
t-137 -54.5zM872 1626q-80 0 -136 55t-56 134t56 134t136 55q81 0 136.5 -54.5t55.5 -134.5t-55 -134.5t-137 -54.5z" />
    <glyph glyph-name="Yacute" unicode="&#xdd;" 
d="M477 438l-452 994h333l148 -356l95 -273h8l92 273l149 356h325l-451 -994h-247zM446 0v676h308v-676h-308zM471 1638v14l208 364h348v-13l-290 -365h-266z" />
    <glyph glyph-name="Thorn" unicode="&#xde;" 
d="M308 281v272h286q102 0 159 50t57 138v24q0 89 -57 138.5t-159 49.5h-286v272h288q159 0 274 -57t177.5 -161.5t62.5 -249.5v-8q0 -144 -62.5 -249t-177.5 -162t-274 -57h-288zM123 0v1432h304v-1432h-304z" />
    <glyph glyph-name="germandbls" unicode="&#xdf;" 
d="M758 -34q-78 0 -140.5 11t-122.5 33l92 241q34 -14 69 -21.5t77 -7.5q65 0 105 29t40 84v6q0 47 -32.5 83.5t-118.5 80.5l-62 32q-67 35 -100.5 83t-33.5 112v2q0 69 28.5 119t65.5 90t65.5 80t28.5 90v2q0 55 -33.5 89t-98.5 34q-82 0 -128.5 -55t-46.5 -156v-1027h-300
v1038q0 214 129.5 335t350.5 121q186 0 295 -93.5t109 -238.5v-5q0 -72 -26.5 -123t-62 -90t-62 -73t-26.5 -72v-5q0 -33 24.5 -57t77.5 -51l62 -32q97 -50 140 -129.5t43 -190.5v-2q0 -165 -111 -265.5t-297 -100.5z" />
    <glyph glyph-name="agrave" unicode="&#xe0;" 
d="M463 -34q-103 0 -181.5 42t-122.5 117t-44 173v13q0 161 112.5 257.5t300.5 96.5q77 0 142.5 -13.5t121.5 -39.5v-175q-80 48 -185 48q-90 0 -138.5 -41t-48.5 -118v-14q0 -68 41.5 -105t116.5 -37q57 0 99.5 30.5t66.5 86t24 128.5v245q0 98 -50 147.5t-147 49.5
q-131 0 -245 -108l-156 167q170 170 440 170q221 0 336.5 -106t115.5 -307v-673h-288v135h-9q-45 -81 -123.5 -125t-178.5 -44zM517 1258l-289 365v13h348l207 -364v-14h-266z" />
    <glyph glyph-name="aacute" unicode="&#xe1;" 
d="M463 -34q-103 0 -181.5 42t-122.5 117t-44 173v13q0 161 112.5 257.5t300.5 96.5q77 0 142.5 -13.5t121.5 -39.5v-175q-80 48 -185 48q-90 0 -138.5 -41t-48.5 -118v-14q0 -68 41.5 -105t116.5 -37q57 0 99.5 30.5t66.5 86t24 128.5v245q0 98 -50 147.5t-147 49.5
q-131 0 -245 -108l-156 167q170 170 440 170q221 0 336.5 -106t115.5 -307v-673h-288v135h-9q-45 -81 -123.5 -125t-178.5 -44zM441 1258v14l208 364h348v-13l-290 -365h-266z" />
    <glyph glyph-name="acircumflex" unicode="&#xe2;" 
d="M463 -34q-103 0 -181.5 42t-122.5 117t-44 173v13q0 161 112.5 257.5t300.5 96.5q77 0 142.5 -13.5t121.5 -39.5v-175q-80 48 -185 48q-90 0 -138.5 -41t-48.5 -118v-14q0 -68 41.5 -105t116.5 -37q57 0 99.5 30.5t66.5 86t24 128.5v245q0 98 -50 147.5t-147 49.5
q-131 0 -245 -108l-156 167q170 170 440 170q221 0 336.5 -106t115.5 -307v-673h-288v135h-9q-45 -81 -123.5 -125t-178.5 -44zM173 1258v14l290 364h294l290 -364v-14h-296l-173 295h65l-174 -295h-296z" />
    <glyph glyph-name="atilde" unicode="&#xe3;" 
d="M463 -34q-103 0 -181.5 42t-122.5 117t-44 173v13q0 161 112.5 257.5t300.5 96.5q77 0 142.5 -13.5t121.5 -39.5v-175q-80 48 -185 48q-90 0 -138.5 -41t-48.5 -118v-14q0 -68 41.5 -105t116.5 -37q57 0 99.5 30.5t66.5 86t24 128.5v245q0 98 -50 147.5t-147 49.5
q-131 0 -245 -108l-156 167q170 170 440 170q221 0 336.5 -106t115.5 -307v-673h-288v135h-9q-45 -81 -123.5 -125t-178.5 -44zM789 1259q-49 0 -96.5 21.5t-99.5 70.5q-38 36 -61 52t-45 16q-56 0 -56 -74v-83h-216v91q0 138 59 212t170 74q48 0 91 -20.5t93 -70.5
q38 -37 61.5 -53t46.5 -16q53 0 53 73v84h217v-90q0 -139 -53.5 -213t-163.5 -74z" />
    <glyph glyph-name="adieresis" unicode="&#xe4;" 
d="M463 -34q-103 0 -181.5 42t-122.5 117t-44 173v13q0 161 112.5 257.5t300.5 96.5q77 0 142.5 -13.5t121.5 -39.5v-175q-80 48 -185 48q-90 0 -138.5 -41t-48.5 -118v-14q0 -68 41.5 -105t116.5 -37q57 0 99.5 30.5t66.5 86t24 128.5v245q0 98 -50 147.5t-147 49.5
q-131 0 -245 -108l-156 167q170 170 440 170q221 0 336.5 -106t115.5 -307v-673h-288v135h-9q-45 -81 -123.5 -125t-178.5 -44zM338 1246q-80 0 -136 55t-56 134t56 134t136 55q81 0 136.5 -54.5t55.5 -134.5t-55 -134.5t-137 -54.5zM882 1246q-80 0 -136 55t-56 134t56 134
t136 55q81 0 136.5 -54.5t55.5 -134.5t-55 -134.5t-137 -54.5z" />
    <glyph glyph-name="aring" unicode="&#xe5;" 
d="M463 -34q-103 0 -181.5 42t-122.5 117t-44 173v13q0 161 112.5 257.5t300.5 96.5q77 0 142.5 -13.5t121.5 -39.5v-175q-80 48 -185 48q-90 0 -138.5 -41t-48.5 -118v-14q0 -68 41.5 -105t116.5 -37q57 0 99.5 30.5t66.5 86t24 128.5v245q0 98 -50 147.5t-147 49.5
q-131 0 -245 -108l-156 167q170 170 440 170q221 0 336.5 -106t115.5 -307v-673h-288v135h-9q-45 -81 -123.5 -125t-178.5 -44zM452.5 1191.5q-70.5 40.5 -112.5 108.5t-42 152q0 85 42 153t112.5 108.5t157.5 40.5t157.5 -40.5t112.5 -108.5t42 -153q0 -84 -42 -152
t-112.5 -108.5t-157.5 -40.5t-157.5 40.5zM697.5 1365.5q34.5 34.5 34.5 87t-34.5 87t-87 34.5t-87.5 -34.5t-35 -87t35 -87t87.5 -34.5t87 34.5z" />
    <glyph glyph-name="ae" unicode="&#xe6;" 
d="M320 -34q-95 0 -165 41t-108.5 116.5t-38.5 176.5v11q0 159 90.5 256.5t237.5 97.5q88 0 148 -38v-176q-42 32 -94 32t-79.5 -38.5t-27.5 -110.5v-15q0 -64 23 -98.5t66 -34.5q45 0 66.5 43.5t21.5 133.5v326q0 88 -24.5 127.5t-80.5 39.5q-73 0 -143 -86l-165 150
q133 166 322 166q117 0 191.5 -72t103.5 -215h-117q38 136 124 211.5t201 75.5q153 0 235.5 -126t82.5 -360q0 -37 -1 -70.5t-4 -74.5h-580v176h358l-19 -7q0 234 -105 234q-65 0 -99 -83t-34 -242v-29q0 -150 34 -233t102 -83q43 0 69.5 32.5t57.5 116.5l214 -82
q-54 -150 -133.5 -219.5t-194.5 -69.5q-131 0 -221 94t-112 250h135q-44 -178 -125.5 -261t-211.5 -83z" />
    <glyph glyph-name="ccedilla" unicode="&#xe7;" 
d="M654 -34q-160 0 -279 69t-184.5 193.5t-65.5 290.5v15q0 166 66 290t185.5 193t279.5 69q180 0 299.5 -89.5t161.5 -251.5l-271 -81q-20 81 -68.5 122t-125.5 41q-107 0 -168 -76t-61 -210v-30q0 -130 63.5 -207.5t171.5 -77.5q81 0 133 42.5t74 124.5l270 -89
q-30 -104 -99 -180t-166.5 -117t-215.5 -41zM660 -658q-99 0 -186 52t-137 139l168 102q61 -105 154 -105q51 0 82 27t31 72q0 46 -28 72.5t-75 26.5q-54 0 -96 -30l-116 100l137 221h156l-165 -260l-80 43q40 41 92 63.5t108 22.5q120 0 192.5 -73t72.5 -194
q0 -124 -86 -201.5t-224 -77.5z" />
    <glyph glyph-name="egrave" unicode="&#xe8;" 
d="M631 -34q-165 0 -287 68t-189 191.5t-67 289.5v22q0 165 67.5 288.5t188.5 192t281 68.5q144 0 251 -60t166.5 -169.5t59.5 -256.5q0 -43 -3 -79.5t-10 -65.5h-844v176h581v-6q0 104 -53 162.5t-146 58.5q-116 0 -183.5 -83.5t-67.5 -229.5v-14q0 -143 68.5 -226
t186.5 -83q145 0 207 142l257 -107q-60 -134 -180 -206.5t-284 -72.5zM493 1258l-289 365v13h348l207 -364v-14h-266z" />
    <glyph glyph-name="eacute" unicode="&#xe9;" 
d="M631 -34q-165 0 -287 68t-189 191.5t-67 289.5v22q0 165 67.5 288.5t188.5 192t281 68.5q144 0 251 -60t166.5 -169.5t59.5 -256.5q0 -43 -3 -79.5t-10 -65.5h-844v176h581v-6q0 104 -53 162.5t-146 58.5q-116 0 -183.5 -83.5t-67.5 -229.5v-14q0 -143 68.5 -226
t186.5 -83q145 0 207 142l257 -107q-60 -134 -180 -206.5t-284 -72.5zM493 1258v14l208 364h348v-13l-290 -365h-266z" />
    <glyph glyph-name="ecircumflex" unicode="&#xea;" 
d="M631 -34q-165 0 -287 68t-189 191.5t-67 289.5v22q0 165 67.5 288.5t188.5 192t281 68.5q144 0 251 -60t166.5 -169.5t59.5 -256.5q0 -43 -3 -79.5t-10 -65.5h-844v176h581v-6q0 104 -53 162.5t-146 58.5q-116 0 -183.5 -83.5t-67.5 -229.5v-14q0 -143 68.5 -226
t186.5 -83q145 0 207 142l257 -107q-60 -134 -180 -206.5t-284 -72.5zM189 1258v14l290 364h294l290 -364v-14h-296l-173 295h65l-174 -295h-296z" />
    <glyph glyph-name="edieresis" unicode="&#xeb;" 
d="M631 -34q-165 0 -287 68t-189 191.5t-67 289.5v22q0 165 67.5 288.5t188.5 192t281 68.5q144 0 251 -60t166.5 -169.5t59.5 -256.5q0 -43 -3 -79.5t-10 -65.5h-844v176h581v-6q0 104 -53 162.5t-146 58.5q-116 0 -183.5 -83.5t-67.5 -229.5v-14q0 -143 68.5 -226
t186.5 -83q145 0 207 142l257 -107q-60 -134 -180 -206.5t-284 -72.5zM354 1246q-80 0 -136 55t-56 134t56 134t136 55q81 0 136.5 -54.5t55.5 -134.5t-55 -134.5t-137 -54.5zM898 1246q-80 0 -136 55t-56 134t56 134t136 55q81 0 136.5 -54.5t55.5 -134.5t-55 -134.5
t-137 -54.5z" />
    <glyph glyph-name="igrave" unicode="&#xec;" 
d="M505 0v1052h296v-1052h-296zM167 0v225h947v-225h-947zM187 826v226h574v-226h-574zM520 1258l-289 365v13h348l207 -364v-14h-266z" />
    <glyph glyph-name="iacute" unicode="&#xed;" 
d="M505 0v1052h296v-1052h-296zM167 0v225h947v-225h-947zM187 826v226h574v-226h-574zM520 1258v14l208 364h348v-13l-290 -365h-266z" />
    <glyph glyph-name="icircumflex" unicode="&#xee;" 
d="M505 0v1052h296v-1052h-296zM167 0v225h947v-225h-947zM187 826v226h574v-226h-574zM216 1258v14l290 364h294l290 -364v-14h-296l-173 295h65l-174 -295h-296z" />
    <glyph glyph-name="idieresis" unicode="&#xef;" 
d="M505 0v1052h296v-1052h-296zM167 0v225h947v-225h-947zM187 826v226h574v-226h-574zM381 1246q-80 0 -136 55t-56 134t56 134t136 55q81 0 136.5 -54.5t55.5 -134.5t-55 -134.5t-137 -54.5zM925 1246q-80 0 -136 55t-56 134t56 134t136 55q81 0 136.5 -54.5t55.5 -134.5
t-55 -134.5t-137 -54.5z" />
    <glyph glyph-name="eth" unicode="&#xf0;" 
d="M603 -34q-149 0 -264.5 68.5t-181 188.5t-65.5 275v12q0 148 57.5 262.5t160 180t238.5 65.5q116 0 188 -52.5t108 -140.5l-50 33l39 11q-18 135 -67.5 235.5t-142.5 184.5t-242 167l109 180q219 -125 360 -278t209 -340.5t68 -419.5v-12q0 -209 -66.5 -347
t-184.5 -205.5t-273 -67.5zM609 232q103 0 161 74.5t58 199.5v5q0 126 -58 200.5t-161 74.5q-102 0 -160 -74.5t-58 -200.5v-5q0 -125 58 -199.5t160 -74.5zM285 1110l-42 175l419 91l103 -149zM803 1251l-102 149l377 93l43 -175z" />
    <glyph glyph-name="ntilde" unicode="&#xf1;" 
d="M138 0v1052h287v-160h9q59 93 145 143.5t193 50.5q146 0 230 -99t84 -267v-720h-302v654q0 86 -38 133t-114 47q-86 0 -139 -60.5t-53 -158.5v-615h-302zM795 1259q-49 0 -96.5 21.5t-99.5 70.5q-38 36 -61 52t-45 16q-56 0 -56 -74v-83h-216v91q0 138 59 212t170 74
q48 0 91 -20.5t93 -70.5q38 -37 61.5 -53t46.5 -16q53 0 53 73v84h217v-90q0 -139 -53.5 -213t-163.5 -74z" />
    <glyph glyph-name="ograve" unicode="&#xf2;" 
d="M329 36.5q-118 70.5 -184.5 194.5t-66.5 284v22q0 160 66.5 284t184.5 194.5t271 70.5t270.5 -70.5t184.5 -194.5t67 -284v-22q0 -160 -67 -284t-184.5 -194.5t-270.5 -70.5t-271 70.5zM761.5 310q60.5 78 60.5 209v14q0 131 -60.5 209t-161.5 78t-161.5 -78t-60.5 -209
v-14q0 -131 60.5 -209t161.5 -78t161.5 78zM467 1258l-289 365v13h348l207 -364v-14h-266z" />
    <glyph glyph-name="oacute" unicode="&#xf3;" 
d="M329 36.5q-118 70.5 -184.5 194.5t-66.5 284v22q0 160 66.5 284t184.5 194.5t271 70.5t270.5 -70.5t184.5 -194.5t67 -284v-22q0 -160 -67 -284t-184.5 -194.5t-270.5 -70.5t-271 70.5zM761.5 310q60.5 78 60.5 209v14q0 131 -60.5 209t-161.5 78t-161.5 -78t-60.5 -209
v-14q0 -131 60.5 -209t161.5 -78t161.5 78zM467 1258v14l208 364h348v-13l-290 -365h-266z" />
    <glyph glyph-name="ocircumflex" unicode="&#xf4;" 
d="M329 36.5q-118 70.5 -184.5 194.5t-66.5 284v22q0 160 66.5 284t184.5 194.5t271 70.5t270.5 -70.5t184.5 -194.5t67 -284v-22q0 -160 -67 -284t-184.5 -194.5t-270.5 -70.5t-271 70.5zM761.5 310q60.5 78 60.5 209v14q0 131 -60.5 209t-161.5 78t-161.5 -78t-60.5 -209
v-14q0 -131 60.5 -209t161.5 -78t161.5 78zM163 1258v14l290 364h294l290 -364v-14h-296l-173 295h65l-174 -295h-296z" />
    <glyph glyph-name="otilde" unicode="&#xf5;" 
d="M329 36.5q-118 70.5 -184.5 194.5t-66.5 284v22q0 160 66.5 284t184.5 194.5t271 70.5t270.5 -70.5t184.5 -194.5t67 -284v-22q0 -160 -67 -284t-184.5 -194.5t-270.5 -70.5t-271 70.5zM761.5 310q60.5 78 60.5 209v14q0 131 -60.5 209t-161.5 78t-161.5 -78t-60.5 -209
v-14q0 -131 60.5 -209t161.5 -78t161.5 78zM779 1259q-49 0 -96.5 21.5t-99.5 70.5q-38 36 -61 52t-45 16q-56 0 -56 -74v-83h-216v91q0 138 59 212t170 74q48 0 91 -20.5t93 -70.5q38 -37 61.5 -53t46.5 -16q53 0 53 73v84h217v-90q0 -139 -53.5 -213t-163.5 -74z" />
    <glyph glyph-name="odieresis" unicode="&#xf6;" 
d="M329 36.5q-118 70.5 -184.5 194.5t-66.5 284v22q0 160 66.5 284t184.5 194.5t271 70.5t270.5 -70.5t184.5 -194.5t67 -284v-22q0 -160 -67 -284t-184.5 -194.5t-270.5 -70.5t-271 70.5zM761.5 310q60.5 78 60.5 209v14q0 131 -60.5 209t-161.5 78t-161.5 -78t-60.5 -209
v-14q0 -131 60.5 -209t161.5 -78t161.5 78zM328 1246q-80 0 -136 55t-56 134t56 134t136 55q81 0 136.5 -54.5t55.5 -134.5t-55 -134.5t-137 -54.5zM872 1246q-80 0 -136 55t-56 134t56 134t136 55q81 0 136.5 -54.5t55.5 -134.5t-55 -134.5t-137 -54.5z" />
    <glyph glyph-name="divide" unicode="&#xf7;" 
d="M124 499v285h952v-285h-952zM472 932q-52 52 -52 128t52 128t128.5 52t128 -51.5t51.5 -128t-51.5 -128.5t-128 -52t-128.5 52zM472 95q-52 52 -52 128t52 128t128.5 52t128 -51.5t51.5 -128t-51.5 -128.5t-128 -52t-128.5 52z" />
    <glyph glyph-name="oslash" unicode="&#xf8;" 
d="M236 -182l-168 106l897 1311l167 -107zM608 -34q-110 0 -207 44.5t-171 121t-116 175.5t-42 208v22q0 161 66.5 284.5t184 194t269.5 70.5q110 0 207 -44t171 -120.5t116 -175.5t42 -209v-22q0 -159 -66.5 -283t-184 -195t-269.5 -71zM600 186q125 0 196.5 91.5
t71.5 257.5v14q0 173 -64 245t-204 72q-124 0 -196 -91t-72 -258v-14q0 -172 64 -244.5t204 -72.5z" />
    <glyph glyph-name="ugrave" unicode="&#xf9;" 
d="M451 -34q-146 0 -229 96.5t-83 262.5v727h302v-658q0 -84 38.5 -129.5t108.5 -45.5q74 0 118.5 59t44.5 160v614h302v-1052h-287v160h-10q-48 -85 -124.5 -139.5t-180.5 -54.5zM463 1258l-289 365v13h348l207 -364v-14h-266z" />
    <glyph glyph-name="uacute" unicode="&#xfa;" 
d="M451 -34q-146 0 -229 96.5t-83 262.5v727h302v-658q0 -84 38.5 -129.5t108.5 -45.5q74 0 118.5 59t44.5 160v614h302v-1052h-287v160h-10q-48 -85 -124.5 -139.5t-180.5 -54.5zM463 1258v14l208 364h348v-13l-290 -365h-266z" />
    <glyph glyph-name="ucircumflex" unicode="&#xfb;" 
d="M451 -34q-146 0 -229 96.5t-83 262.5v727h302v-658q0 -84 38.5 -129.5t108.5 -45.5q74 0 118.5 59t44.5 160v614h302v-1052h-287v160h-10q-48 -85 -124.5 -139.5t-180.5 -54.5zM159 1258v14l290 364h294l290 -364v-14h-296l-173 295h65l-174 -295h-296z" />
    <glyph glyph-name="udieresis" unicode="&#xfc;" 
d="M451 -34q-146 0 -229 96.5t-83 262.5v727h302v-658q0 -84 38.5 -129.5t108.5 -45.5q74 0 118.5 59t44.5 160v614h302v-1052h-287v160h-10q-48 -85 -124.5 -139.5t-180.5 -54.5zM324 1246q-80 0 -136 55t-56 134t56 134t136 55q81 0 136.5 -54.5t55.5 -134.5t-55 -134.5
t-137 -54.5zM868 1246q-80 0 -136 55t-56 134t56 134t136 55q81 0 136.5 -54.5t55.5 -134.5t-55 -134.5t-137 -54.5z" />
    <glyph glyph-name="yacute" unicode="&#xfd;" 
d="M325 -449q-178 0 -305 106l145 224q78 -64 152 -64q54 0 87.5 25.5t55.5 85.5l97 265h57l92 381l148 478h312l-437 -1175q-64 -173 -159.5 -249.5t-244.5 -76.5zM511 -87l-424 1139h314l155 -478l70 -276h90zM495 1258v14l208 364h348v-13l-290 -365h-266z" />
    <glyph glyph-name="thorn" unicode="&#xfe;" 
d="M118 -408v1868h302v-561h9q47 89 125 138t174 49q114 0 199.5 -68.5t133 -192.5t47.5 -291v-16q0 -166 -47.5 -290t-133 -193t-199.5 -69q-97 0 -171.5 45t-127.5 135h-9v-554h-302zM613 216q92 0 142.5 78t50.5 220v25q0 143 -50 220t-142 77q-93 0 -148 -82t-55 -220
v-15q0 -138 55 -220.5t147 -82.5z" />
    <glyph glyph-name="ydieresis" unicode="&#xff;" 
d="M325 -449q-178 0 -305 106l145 224q78 -64 152 -64q54 0 87.5 25.5t55.5 85.5l97 265h57l92 381l148 478h312l-437 -1175q-64 -173 -159.5 -249.5t-244.5 -76.5zM511 -87l-424 1139h314l155 -478l70 -276h90zM356 1246q-80 0 -136 55t-56 134t56 134t136 55
q81 0 136.5 -54.5t55.5 -134.5t-55 -134.5t-137 -54.5zM900 1246q-80 0 -136 55t-56 134t56 134t136 55q81 0 136.5 -54.5t55.5 -134.5t-55 -134.5t-137 -54.5z" />
    <glyph glyph-name="Amacron" unicode="&#x100;" 
d="M16 0l445 1432h282l441 -1432h-316l-221 885l-47 210h-7l-43 -210l-224 -885h-310zM220 276l76 241h592l82 -241h-750zM279 1695v246h646v-246h-646z" />
    <glyph glyph-name="amacron" unicode="&#x101;" 
d="M463 -34q-103 0 -181.5 42t-122.5 117t-44 173v13q0 161 112.5 257.5t300.5 96.5q77 0 142.5 -13.5t121.5 -39.5v-175q-80 48 -185 48q-90 0 -138.5 -41t-48.5 -118v-14q0 -68 41.5 -105t116.5 -37q57 0 99.5 30.5t66.5 86t24 128.5v245q0 98 -50 147.5t-147 49.5
q-131 0 -245 -108l-156 167q170 170 440 170q221 0 336.5 -106t115.5 -307v-673h-288v135h-9q-45 -81 -123.5 -125t-178.5 -44zM287 1315v246h646v-246h-646z" />
    <glyph glyph-name="Abreve" unicode="&#x102;" 
d="M16 0l445 1432h282l441 -1432h-316l-221 885l-47 210h-7l-43 -210l-224 -885h-310zM220 276l76 241h592l82 -241h-750zM400.5 1674.5q-86.5 47.5 -135 132.5t-48.5 197v12h224v-18q0 -78 43 -122.5t118 -44.5t118 44.5t43 122.5v18h224v-12q0 -112 -48.5 -197
t-135 -132.5t-201.5 -47.5t-201.5 47.5z" />
    <glyph glyph-name="abreve" unicode="&#x103;" 
d="M463 -34q-103 0 -181.5 42t-122.5 117t-44 173v13q0 161 112.5 257.5t300.5 96.5q77 0 142.5 -13.5t121.5 -39.5v-175q-80 48 -185 48q-90 0 -138.5 -41t-48.5 -118v-14q0 -68 41.5 -105t116.5 -37q57 0 99.5 30.5t66.5 86t24 128.5v245q0 98 -50 147.5t-147 49.5
q-131 0 -245 -108l-156 167q170 170 440 170q221 0 336.5 -106t115.5 -307v-673h-288v135h-9q-45 -81 -123.5 -125t-178.5 -44zM408.5 1294.5q-86.5 47.5 -135 132.5t-48.5 197v12h224v-18q0 -78 43 -122.5t118 -44.5t118 44.5t43 122.5v18h224v-12q0 -112 -48.5 -197
t-135 -132.5t-201.5 -47.5t-201.5 47.5z" />
    <glyph glyph-name="Aogonek" unicode="&#x104;" 
d="M16 0l445 1432h282l441 -1432h-316l-221 885l-47 210h-7l-43 -210l-224 -885h-310zM220 276l76 241h592l82 -241h-750zM1035 -548q-83 0 -148.5 36.5t-103.5 99t-38 141.5q0 123 91 217.5t285 165.5l63 -112q-109 -56 -157.5 -108t-48.5 -116q0 -46 32 -75t82 -29
q44 0 85 20l58 -187q-91 -53 -200 -53z" />
    <glyph glyph-name="aogonek" unicode="&#x105;" 
d="M913 -548q-83 0 -148.5 36.5t-103.5 99t-38 141.5q0 123 91 217.5t285 165.5l63 -112q-109 -56 -157.5 -108t-48.5 -116q0 -46 32 -75t82 -29q44 0 85 20l61 -187q-93 -53 -203 -53zM463 -34q-103 0 -181.5 42t-122.5 117t-44 173v13q0 161 112.5 257.5t300.5 96.5
q77 0 142.5 -13.5t121.5 -39.5v-175q-80 48 -185 48q-90 0 -138.5 -41t-48.5 -118v-14q0 -68 41.5 -105t116.5 -37q57 0 99.5 30.5t66.5 86t24 128.5v245q0 98 -50 147.5t-147 49.5q-131 0 -245 -108l-156 167q170 170 440 170q221 0 336.5 -106t115.5 -307v-673h-288v135
h-9q-45 -81 -123.5 -125t-178.5 -44z" />
    <glyph glyph-name="Cacute" unicode="&#x106;" 
d="M657 -34q-175 0 -305.5 90.5t-203 254t-72.5 383.5v44q0 222 70.5 385.5t198.5 253t302 89.5q185 0 309.5 -102t170.5 -293l-284 -85q-25 98 -72.5 144t-127.5 46q-121 0 -187 -113t-66 -320v-54q0 -204 70.5 -318.5t194.5 -114.5q157 0 206 197l284 -84
q-46 -191 -174 -297t-314 -106zM512 1638v14l208 364h348v-13l-290 -365h-266z" />
    <glyph glyph-name="cacute" unicode="&#x107;" 
d="M654 -34q-160 0 -279 69t-184.5 193.5t-65.5 290.5v15q0 166 66 290t185.5 193t279.5 69q180 0 299.5 -89.5t161.5 -251.5l-271 -81q-20 81 -68.5 122t-125.5 41q-107 0 -168 -76t-61 -210v-30q0 -130 63.5 -207.5t171.5 -77.5q81 0 133 42.5t74 124.5l270 -89
q-30 -104 -99 -180t-166.5 -117t-215.5 -41zM521 1258v14l208 364h348v-13l-290 -365h-266z" />
    <glyph glyph-name="Cdotaccent" unicode="&#x10a;" 
d="M657 -34q-175 0 -305.5 90.5t-203 254t-72.5 383.5v44q0 222 70.5 385.5t198.5 253t302 89.5q185 0 309.5 -102t170.5 -293l-284 -85q-25 98 -72.5 144t-127.5 46q-121 0 -187 -113t-66 -320v-54q0 -204 70.5 -318.5t194.5 -114.5q157 0 206 197l284 -84
q-46 -191 -174 -297t-314 -106zM645 1626q-84 0 -142 57.5t-58 141.5q0 83 57.5 141t142.5 58q86 0 143 -58t57 -141q0 -84 -57 -141.5t-143 -57.5z" />
    <glyph glyph-name="cdotaccent" unicode="&#x10b;" 
d="M654 -34q-160 0 -279 69t-184.5 193.5t-65.5 290.5v15q0 166 66 290t185.5 193t279.5 69q180 0 299.5 -89.5t161.5 -251.5l-271 -81q-20 81 -68.5 122t-125.5 41q-107 0 -168 -76t-61 -210v-30q0 -130 63.5 -207.5t171.5 -77.5q81 0 133 42.5t74 124.5l270 -89
q-30 -104 -99 -180t-166.5 -117t-215.5 -41zM654 1246q-84 0 -142 57.5t-58 141.5q0 83 57.5 141t142.5 58q86 0 143 -58t57 -141q0 -84 -57 -141.5t-143 -57.5z" />
    <glyph glyph-name="Ccaron" unicode="&#x10c;" 
d="M657 -34q-175 0 -305.5 90.5t-203 254t-72.5 383.5v44q0 222 70.5 385.5t198.5 253t302 89.5q185 0 309.5 -102t170.5 -293l-284 -85q-25 98 -72.5 144t-127.5 46q-121 0 -187 -113t-66 -320v-54q0 -204 70.5 -318.5t194.5 -114.5q157 0 206 197l284 -84
q-46 -191 -174 -297t-314 -106zM498 1638l-290 364v14h296l170 -295h-57l169 295h296v-14l-290 -364h-294z" />
    <glyph glyph-name="ccaron" unicode="&#x10d;" 
d="M654 -34q-160 0 -279 69t-184.5 193.5t-65.5 290.5v15q0 166 66 290t185.5 193t279.5 69q180 0 299.5 -89.5t161.5 -251.5l-271 -81q-20 81 -68.5 122t-125.5 41q-107 0 -168 -76t-61 -210v-30q0 -130 63.5 -207.5t171.5 -77.5q81 0 133 42.5t74 124.5l270 -89
q-30 -104 -99 -180t-166.5 -117t-215.5 -41zM507 1258l-290 364v14h296l170 -295h-57l169 295h296v-14l-290 -364h-294z" />
    <glyph glyph-name="Dcaron" unicode="&#x10e;" 
d="M116 0v1432h418q180 0 311.5 -85t203 -240.5t71.5 -368.5v-44q0 -212 -71.5 -368t-203 -241t-311.5 -85h-418zM422 288h108q138 0 207 100.5t69 300.5v54q0 200 -69.5 300.5t-206.5 100.5h-108v-856zM425 1638l-290 364v14h296l170 -295h-57l169 295h296v-14l-290 -364
h-294z" />
    <glyph glyph-name="dcaron" unicode="&#x10f;" 
d="M390 -34q-97 0 -175.5 64.5t-124.5 186.5t-46 292v35q0 172 44 293t120.5 185t173.5 64q80 0 138 -45t95 -133h9v552h278v-1460h-268v155h-9q-36 -88 -95.5 -138.5t-139.5 -50.5zM483 209q69 0 109.5 78t40.5 217v44q0 140 -40.5 218t-109.5 78q-72 0 -112.5 -76.5
t-40.5 -219.5v-44q0 -142 41 -218.5t112 -76.5zM976 932l20 528h241l-53 -528h-208z" />
    <glyph glyph-name="Dcroat" unicode="&#x110;" 
d="M176 0v1432h400q183 0 314 -83t201 -238.5t70 -372.5v-44q0 -217 -70 -372.5t-201 -238.5t-314 -83h-400zM31 599v272h690v-272h-690zM444 278h131q160 0 231 102.5t71 308.5v54q0 207 -71 309t-231 102h-131v-876z" />
    <glyph glyph-name="dcroat" unicode="&#x111;" 
d="M470 -34q-114 0 -204.5 66t-143 181.5t-52.5 263.5v15q0 149 50 264t138.5 181t203.5 66q104 0 176 -49t120 -143h9v699h278v-1510h-276v156h-9q-44 -90 -119.5 -140t-170.5 -50zM567 217q91 0 145.5 74.5t54.5 193.5v14q0 119 -54 194t-146 75q-95 0 -149 -71t-54 -193
v-23q0 -121 54 -192.5t149 -71.5zM429 1144v203h790v-203h-790z" />
    <glyph glyph-name="Emacron" unicode="&#x112;" 
d="M144 0v1432h890v-286h-584v-860h600v-286h-906zM333 589v284h621v-284h-621zM266 1695v246h646v-246h-646z" />
    <glyph glyph-name="emacron" unicode="&#x113;" 
d="M631 -34q-165 0 -287 68t-189 191.5t-67 289.5v22q0 165 67.5 288.5t188.5 192t281 68.5q144 0 251 -60t166.5 -169.5t59.5 -256.5q0 -43 -3 -79.5t-10 -65.5h-844v176h581v-6q0 104 -53 162.5t-146 58.5q-116 0 -183.5 -83.5t-67.5 -229.5v-14q0 -143 68.5 -226
t186.5 -83q145 0 207 142l257 -107q-60 -134 -180 -206.5t-284 -72.5zM303 1315v246h646v-246h-646z" />
    <glyph glyph-name="Edotaccent" unicode="&#x116;" 
d="M144 0v1432h890v-286h-584v-860h600v-286h-906zM333 589v284h621v-284h-621zM589 1626q-84 0 -142 57.5t-58 141.5q0 83 57.5 141t142.5 58q86 0 143 -58t57 -141q0 -84 -57 -141.5t-143 -57.5z" />
    <glyph glyph-name="edotaccent" unicode="&#x117;" 
d="M631 -34q-165 0 -287 68t-189 191.5t-67 289.5v22q0 165 67.5 288.5t188.5 192t281 68.5q144 0 251 -60t166.5 -169.5t59.5 -256.5q0 -43 -3 -79.5t-10 -65.5h-844v176h581v-6q0 104 -53 162.5t-146 58.5q-116 0 -183.5 -83.5t-67.5 -229.5v-14q0 -143 68.5 -226
t186.5 -83q145 0 207 142l257 -107q-60 -134 -180 -206.5t-284 -72.5zM626 1246q-84 0 -142 57.5t-58 141.5q0 83 57.5 141t142.5 58q86 0 143 -58t57 -141q0 -84 -57 -141.5t-143 -57.5z" />
    <glyph glyph-name="Eogonek" unicode="&#x118;" 
d="M144 0v1432h890v-286h-584v-860h600v-286h-906zM333 589v284h621v-284h-621zM901 -548q-83 0 -148.5 36.5t-103.5 99t-38 141.5q0 123 91 217.5t285 165.5l63 -112q-109 -56 -157.5 -108t-48.5 -116q0 -46 32 -75t82 -29q44 0 85 20l58 -187q-91 -53 -200 -53z" />
    <glyph glyph-name="eogonek" unicode="&#x119;" 
d="M761 -547q-85 0 -153 35t-107 95.5t-39 137.5q0 125 89 219t287 172l-42 -116q-76 -23 -172 -23q-163 0 -283.5 67t-186.5 189t-66 286v22q0 165 67 288.5t188 192t281 68.5q144 0 251.5 -60t167 -169t59.5 -257q0 -43 -3 -79.5t-10 -65.5h-844v176h592l-11 -6
q0 104 -52.5 162.5t-147.5 58.5q-115 0 -182.5 -83.5t-67.5 -229.5v-14q0 -143 68.5 -226t186.5 -83q143 0 207 142l257 -107q-31 -69 -87 -130.5t-154 -126.5q-90 -60 -124.5 -105.5t-34.5 -101.5q0 -48 32.5 -78t81.5 -30q51 0 98 24l67 -188q-49 -28 -101 -42t-112 -14z
" />
    <glyph glyph-name="Ecaron" unicode="&#x11a;" 
d="M144 0v1432h890v-286h-584v-860h600v-286h-906zM333 589v284h621v-284h-621zM442 1638l-290 364v14h296l170 -295h-57l169 295h296v-14l-290 -364h-294z" />
    <glyph glyph-name="ecaron" unicode="&#x11b;" 
d="M631 -34q-165 0 -287 68t-189 191.5t-67 289.5v22q0 165 67.5 288.5t188.5 192t281 68.5q144 0 251 -60t166.5 -169.5t59.5 -256.5q0 -43 -3 -79.5t-10 -65.5h-844v176h581v-6q0 104 -53 162.5t-146 58.5q-116 0 -183.5 -83.5t-67.5 -229.5v-14q0 -143 68.5 -226
t186.5 -83q145 0 207 142l257 -107q-60 -134 -180 -206.5t-284 -72.5zM479 1258l-290 364v14h296l170 -295h-57l169 295h296v-14l-290 -364h-294z" />
    <glyph glyph-name="Gbreve" unicode="&#x11e;" 
d="M649 -34q-181 0 -313 88.5t-203 251.5t-71 389v38q0 226 70.5 390.5t201 253.5t309.5 89q185 0 308.5 -93.5t175.5 -272.5l-277 -95q-25 90 -74.5 131.5t-130.5 41.5q-133 0 -203 -113t-70 -327v-48q0 -215 71.5 -327.5t207.5 -112.5q108 0 167.5 72.5t59.5 202.5v44
h-278v247h562v-228q0 -298 -133.5 -460t-379.5 -162zM442.5 1674.5q-86.5 47.5 -135 132.5t-48.5 197v12h224v-18q0 -78 43 -122.5t118 -44.5t118 44.5t43 122.5v18h224v-12q0 -112 -48.5 -197t-135 -132.5t-201.5 -47.5t-201.5 47.5z" />
    <glyph glyph-name="gbreve" unicode="&#x11f;" 
d="M599 -572q-167 0 -293 46.5t-196 129.5t-70 193q0 114 72.5 194.5t202.5 109.5l46 -122q-28 -29 -41.5 -63t-13.5 -75q0 -89 76.5 -137t218.5 -48q139 0 220 44.5t81 120.5q0 106 -136 106h-528v98l212 334l159 -21l-63 -185h276q164 0 256 -80.5t92 -225.5
q0 -129 -69.5 -223t-197.5 -145t-304 -51zM609 274q-134 0 -241.5 53t-170 144.5t-62.5 205.5v6q0 119 58 210t161 142t238 51t242.5 -53t170 -144t62.5 -206v-6q0 -119 -58 -210t-161.5 -142t-238.5 -51zM601 506q92 0 144.5 45t52.5 123v8q0 78 -52.5 123t-144.5 45
t-145 -45t-53 -123v-8q0 -78 53 -123t145 -45zM840 932l-98 59q32 146 133.5 221t265.5 75v-250q-206 0 -301 -105zM395.5 1294.5q-86.5 47.5 -135 132.5t-48.5 197v12h224v-18q0 -78 43 -122.5t118 -44.5t118 44.5t43 122.5v18h224v-12q0 -112 -48.5 -197t-135 -132.5
t-201.5 -47.5t-201.5 47.5z" />
    <glyph glyph-name="Gdotaccent" unicode="&#x120;" 
d="M649 -34q-181 0 -313 88.5t-203 251.5t-71 389v38q0 226 70.5 390.5t201 253.5t309.5 89q185 0 308.5 -93.5t175.5 -272.5l-277 -95q-25 90 -74.5 131.5t-130.5 41.5q-133 0 -203 -113t-70 -327v-48q0 -215 71.5 -327.5t207.5 -112.5q108 0 167.5 72.5t59.5 202.5v44
h-278v247h562v-228q0 -298 -133.5 -460t-379.5 -162zM644 1626q-84 0 -142 57.5t-58 141.5q0 83 57.5 141t142.5 58q86 0 143 -58t57 -141q0 -84 -57 -141.5t-143 -57.5z" />
    <glyph glyph-name="gdotaccent" unicode="&#x121;" 
d="M599 -572q-167 0 -293 46.5t-196 129.5t-70 193q0 114 72.5 194.5t202.5 109.5l46 -122q-28 -29 -41.5 -63t-13.5 -75q0 -89 76.5 -137t218.5 -48q139 0 220 44.5t81 120.5q0 106 -136 106h-528v98l212 334l159 -21l-63 -185h276q164 0 256 -80.5t92 -225.5
q0 -129 -69.5 -223t-197.5 -145t-304 -51zM609 274q-134 0 -241.5 53t-170 144.5t-62.5 205.5v6q0 119 58 210t161 142t238 51t242.5 -53t170 -144t62.5 -206v-6q0 -119 -58 -210t-161.5 -142t-238.5 -51zM601 506q92 0 144.5 45t52.5 123v8q0 78 -52.5 123t-144.5 45
t-145 -45t-53 -123v-8q0 -78 53 -123t145 -45zM840 932l-98 59q32 146 133.5 221t265.5 75v-250q-206 0 -301 -105zM597 1246q-84 0 -142 57.5t-58 141.5q0 83 57.5 141t142.5 58q86 0 143 -58t57 -141q0 -84 -57 -141.5t-143 -57.5z" />
    <glyph glyph-name="uni0122" unicode="&#x122;" 
d="M649 -34q-181 0 -313 88.5t-203 251.5t-71 389v38q0 226 70.5 390.5t201 253.5t309.5 89q185 0 308.5 -93.5t175.5 -272.5l-277 -95q-25 90 -74.5 131.5t-130.5 41.5q-133 0 -203 -113t-70 -327v-48q0 -215 71.5 -327.5t207.5 -112.5q108 0 167.5 72.5t59.5 202.5v44
h-278v247h562v-228q0 -298 -133.5 -460t-379.5 -162zM599 -863l-167 117l229 309l-6 -84q-82 5 -134 56.5t-52 127.5q0 80 55 131.5t139 51.5q90 0 146 -57t56 -149q0 -58 -23.5 -119t-79.5 -143z" />
    <glyph glyph-name="uni0123" unicode="&#x123;" 
d="M599 -572q-167 0 -293 46.5t-196 129.5t-70 193q0 114 72.5 194.5t202.5 109.5l46 -122q-28 -29 -41.5 -63t-13.5 -75q0 -89 76.5 -137t218.5 -48q139 0 220 44.5t81 120.5q0 106 -136 106h-528v98l212 334l159 -21l-63 -185h276q164 0 256 -80.5t92 -225.5
q0 -129 -69.5 -223t-197.5 -145t-304 -51zM609 274q-134 0 -241.5 53t-170 144.5t-62.5 205.5v6q0 119 58 210t161 142t238 51t242.5 -53t170 -144t62.5 -206v-6q0 -119 -58 -210t-161.5 -142t-238.5 -51zM601 506q92 0 144.5 45t52.5 123v8q0 78 -52.5 123t-144.5 45
t-145 -45t-53 -123v-8q0 -78 53 -123t145 -45zM840 932l-98 59q32 146 133.5 221t265.5 75v-250q-206 0 -301 -105zM624 1967l167 -117l-229 -309l6 84q82 -4 134 -56t52 -128q0 -79 -55 -131t-139 -52q-90 0 -146 57t-56 149q0 59 24 119.5t79 142.5z" />
    <glyph glyph-name="Hbar" unicode="&#x126;" 
d="M753 0v1432h290v-1432h-290zM158 0v1432h290v-1432h-290zM317 534v270h578v-270h-578zM12 1007v240h1176v-240h-1176z" />
    <glyph glyph-name="hbar" unicode="&#x127;" 
d="M158 0v1510h276v-694h11q126 187 332 187q144 0 225.5 -95.5t81.5 -263.5v-644h-302v579q0 172 -144 172q-80 0 -129 -58t-49 -153v-540h-302zM-16 1144v203h791v-203h-791z" />
    <glyph glyph-name="Itilde" unicode="&#x128;" 
d="M445 139v1154h310v-1154h-310zM142 0v289h916v-289h-916zM142 1144v288h916v-288h-916zM779 1639q-49 0 -96.5 21.5t-99.5 70.5q-38 36 -61 52t-45 16q-56 0 -56 -74v-83h-216v91q0 138 59 212t170 74q48 0 91 -20.5t93 -70.5q38 -37 61.5 -53t46.5 -16q53 0 53 73v84
h217v-90q0 -139 -53.5 -213t-163.5 -74z" />
    <glyph glyph-name="itilde" unicode="&#x129;" 
d="M505 0v1052h296v-1052h-296zM167 0v225h947v-225h-947zM187 826v226h574v-226h-574zM832 1259q-49 0 -96.5 21.5t-99.5 70.5q-38 36 -61 52t-45 16q-56 0 -56 -74v-83h-216v91q0 138 59 212t170 74q48 0 91 -20.5t93 -70.5q38 -37 61.5 -53t46.5 -16q53 0 53 73v84h217
v-90q0 -139 -53.5 -213t-163.5 -74z" />
    <glyph glyph-name="Imacron" unicode="&#x12a;" 
d="M445 139v1154h310v-1154h-310zM142 0v289h916v-289h-916zM142 1144v288h916v-288h-916zM277 1695v246h646v-246h-646z" />
    <glyph glyph-name="imacron" unicode="&#x12b;" 
d="M505 0v1052h296v-1052h-296zM167 0v225h947v-225h-947zM187 826v226h574v-226h-574zM330 1315v246h646v-246h-646z" />
    <glyph glyph-name="Iogonek" unicode="&#x12e;" 
d="M445 139v1154h310v-1154h-310zM142 0v289h916v-289h-916zM142 1144v288h916v-288h-916zM625 -548q-83 0 -148.5 36.5t-103.5 99t-38 141.5q0 123 91 217.5t285 165.5l63 -112q-109 -56 -157.5 -108t-48.5 -116q0 -46 32 -75t82 -29q44 0 85 20l58 -187q-91 -53 -200 -53z
" />
    <glyph glyph-name="iogonek" unicode="&#x12f;" 
d="M505 80v972h296v-972h-296zM167 0v225h947v-225h-947zM187 826v226h574v-226h-574zM622 1246q-82 0 -140 56.5t-58 137.5q0 84 58 138.5t140 54.5q85 0 140.5 -54.5t55.5 -138.5q0 -81 -55.5 -137.5t-140.5 -56.5zM650 -548q-83 0 -148.5 36.5t-103.5 99t-38 141.5
q0 123 91 217.5t285 165.5l63 -112q-109 -56 -157.5 -108t-48.5 -116q0 -46 32 -75t82 -29q44 0 85 20l58 -187q-91 -53 -200 -53z" />
    <glyph glyph-name="Idotaccent" unicode="&#x130;" 
d="M445 139v1154h310v-1154h-310zM142 0v289h916v-289h-916zM142 1144v288h916v-288h-916zM600 1626q-84 0 -142 57.5t-58 141.5q0 83 57.5 141t142.5 58q86 0 143 -58t57 -141q0 -84 -57 -141.5t-143 -57.5z" />
    <glyph glyph-name="dotlessi" unicode="&#x131;" 
d="M505 0v1052h296v-1052h-296zM167 0v225h947v-225h-947zM187 826v226h574v-226h-574z" />
    <glyph glyph-name="IJ" unicode="&#x132;" 
d="M613 -34q-193 0 -322.5 97.5t-182.5 278.5l299 91q49 -169 199 -169q84 0 130 56t46 157v955h310v-963q0 -150 -59.5 -263.5t-167.5 -176.5t-252 -63zM108 615v817h310v-817h-310z" />
    <glyph glyph-name="ij" unicode="&#x133;" 
d="M683 -449q-201 0 -368 121l145 225q55 -40 105 -60t104 -20q82 0 125.5 48t43.5 137v1050h300v-1040q0 -215 -121.5 -338t-333.5 -123zM23 0v225h679v-225h-679zM217 80v972h297v-972h-297zM33 828v224h460v-224h-460zM358 1246q-82 0 -140 56.5t-58 137.5q0 84 58 138.5
t140 54.5q86 0 141 -54.5t55 -138.5q0 -81 -55 -137.5t-141 -56.5zM626 828v224h435v-224h-435zM959 1246q-82 0 -140 56.5t-58 137.5q0 83 57 138t141 55q85 0 140.5 -54.5t55.5 -138.5q0 -82 -56.5 -138t-139.5 -56z" />
    <glyph glyph-name="uni0136" unicode="&#x136;" 
d="M821 0l-428 719v8l411 705h349l-462 -759v118l483 -791h-353zM94 0v1432h308v-1432h-308zM525 -863l-167 117l229 309l-6 -84q-82 5 -134 56.5t-52 127.5q0 80 55 131.5t139 51.5q90 0 146 -57t56 -149q0 -58 -23.5 -119t-79.5 -143z" />
    <glyph glyph-name="uni0137" unicode="&#x137;" 
d="M798 0l-397 563v8l381 481h346l-439 -540v114l453 -626h-344zM112 0v1460h302v-1460h-302zM537 -849l-167 117l229 309l-6 -84q-82 5 -134 56.5t-52 127.5q0 80 55 131.5t139 51.5q90 0 146 -57t56 -149q0 -58 -23.5 -119t-79.5 -143z" />
    <glyph glyph-name="kgreenlandic" unicode="&#x138;" 
d="M798 0l-397 563v8l381 481h346l-439 -540v114l453 -626h-344zM112 0v1052h302v-1052h-302z" />
    <glyph glyph-name="Lacute" unicode="&#x139;" 
d="M162 0v1432h308v-1142h638v-290h-946zM183 1638v14l208 364h348v-13l-290 -365h-266z" />
    <glyph glyph-name="lacute" unicode="&#x13a;" 
d="M792 -34q-202 0 -315.5 112.5t-113.5 311.5v1070h303v-1048q0 -176 155 -176q42 0 77.5 16t75.5 53l158 -213q-72 -65 -153.5 -95.5t-186.5 -30.5zM72 1226v234h519v-234h-519zM382 1666v14l208 364h348v-13l-290 -365h-266z" />
    <glyph glyph-name="uni013B" unicode="&#x13b;" 
d="M162 0v1432h308v-1142h638v-290h-946zM548 -863l-167 117l229 309l-6 -84q-82 5 -134 56.5t-52 127.5q0 80 55 131.5t139 51.5q90 0 146 -57t56 -149q0 -58 -23.5 -119t-79.5 -143z" />
    <glyph glyph-name="uni013C" unicode="&#x13c;" 
d="M792 -34q-202 0 -315.5 112.5t-113.5 311.5v1070h303v-1048q0 -176 155 -176q42 0 77.5 16t75.5 53l158 -213q-72 -65 -153.5 -95.5t-186.5 -30.5zM72 1226v234h519v-234h-519zM670 -897l-167 117l229 309l-6 -84q-82 5 -134 56.5t-52 127.5q0 80 55 131.5t139 51.5
q90 0 146 -57t56 -149q0 -58 -23.5 -119t-79.5 -143z" />
    <glyph glyph-name="Lcaron" unicode="&#x13d;" 
d="M664 888l43 544h312l-103 -544h-252zM162 0v1432h308v-1142h638v-290h-946z" />
    <glyph glyph-name="lcaron" unicode="&#x13e;" 
d="M775 -34q-201 0 -314.5 112.5t-113.5 311.5v1070h304v-1048q0 -176 153 -176q42 0 78 16t76 54l158 -214q-71 -65 -153.5 -95.5t-187.5 -30.5zM81 1226v234h494v-234h-494zM789 916l42 544h286l-102 -544h-226z" />
    <glyph glyph-name="Ldot" unicode="&#x13f;" 
d="M162 0v1432h308v-1142h638v-290h-946zM908 628q-86 0 -146 59.5t-60 146.5q0 86 60 145.5t146 59.5q88 0 147 -59.5t59 -145.5q0 -87 -59 -146.5t-147 -59.5z" />
    <glyph glyph-name="ldot" unicode="&#x140;" 
d="M792 -34q-202 0 -315.5 112.5t-113.5 311.5v1070h303v-1048q0 -176 155 -176q42 0 77.5 16t75.5 53l158 -213q-72 -65 -153.5 -95.5t-186.5 -30.5zM72 1226v234h519v-234h-519zM1105 564q-86 0 -146 59.5t-60 146.5q0 86 60 145.5t146 59.5q88 0 147 -59.5t59 -145.5
q0 -87 -59 -146.5t-147 -59.5z" />
    <glyph glyph-name="Lslash" unicode="&#x141;" 
d="M265 0v1432h284v-1142h576v-290h-860zM3 343v300l286 172l59 19l610 367v-300l-620 -368l-49 -15z" />
    <glyph glyph-name="lslash" unicode="&#x142;" 
d="M97 411v282l404 216l60 -2l451 242v-282l-453 -240l-60 2zM792 -34q-202 0 -315.5 112.5t-113.5 311.5v1070h303v-1048q0 -176 155 -176q42 0 77.5 16t75.5 53l158 -213q-72 -65 -153.5 -95.5t-186.5 -30.5zM72 1226v234h519v-234h-519z" />
    <glyph glyph-name="Nacute" unicode="&#x143;" 
d="M70 0v1432h305l468 -900h8l-20 329v571h299v-1432h-281l-493 944h-8l20 -329v-615h-298zM470 1638v14l208 364h348v-13l-290 -365h-266z" />
    <glyph glyph-name="nacute" unicode="&#x144;" 
d="M138 0v1052h287v-160h9q59 93 145 143.5t193 50.5q146 0 230 -99t84 -267v-720h-302v654q0 86 -38 133t-114 47q-86 0 -139 -60.5t-53 -158.5v-615h-302zM483 1258v14l208 364h348v-13l-290 -365h-266z" />
    <glyph glyph-name="uni0145" unicode="&#x145;" 
d="M70 0v1432h305l468 -900h8l-20 329v571h299v-1432h-281l-493 944h-8l20 -329v-615h-298zM547 -863l-167 117l229 309l-6 -84q-82 5 -134 56.5t-52 127.5q0 80 55 131.5t139 51.5q90 0 146 -57t56 -149q0 -58 -23.5 -119t-79.5 -143z" />
    <glyph glyph-name="uni0146" unicode="&#x146;" 
d="M138 0v1052h287v-160h9q59 93 145 143.5t193 50.5q146 0 230 -99t84 -267v-720h-302v654q0 86 -38 133t-114 47q-86 0 -139 -60.5t-53 -158.5v-615h-302zM541 -849l-167 117l229 309l-6 -84q-82 5 -134 56.5t-52 127.5q0 80 55 131.5t139 51.5q90 0 146 -57t56 -149
q0 -58 -23.5 -119t-79.5 -143z" />
    <glyph glyph-name="Ncaron" unicode="&#x147;" 
d="M70 0v1432h305l468 -900h8l-20 329v571h299v-1432h-281l-493 944h-8l20 -329v-615h-298zM456 1638l-290 364v14h296l170 -295h-57l169 295h296v-14l-290 -364h-294z" />
    <glyph glyph-name="ncaron" unicode="&#x148;" 
d="M138 0v1052h287v-160h9q59 93 145 143.5t193 50.5q146 0 230 -99t84 -267v-720h-302v654q0 86 -38 133t-114 47q-86 0 -139 -60.5t-53 -158.5v-615h-302zM469 1258l-290 364v14h296l170 -295h-57l169 295h296v-14l-290 -364h-294z" />
    <glyph glyph-name="napostrophe" unicode="&#x149;" 
d="M332 0v1052h266v-149h8q105 183 292 183q127 0 194 -90t67 -240v-756h-280v691q0 145 -118 145q-68 0 -108.5 -50t-40.5 -133v-653h-280zM-4 882l185 578h312l-259 -578h-238z" />
    <glyph glyph-name="Eng" unicode="&#x14a;" 
d="M699 -465q-209 0 -365 124l164 238q85 -72 181 -72q71 0 108.5 42t37.5 118v966q0 110 -46.5 167.5t-138.5 57.5q-69 0 -122 -34t-83 -95t-30 -144v-903h-308v1432h293v-196h9q65 110 159 170t219 60q167 0 261.5 -113.5t94.5 -306.5v-1050q0 -138 -54.5 -241.5
t-152 -161.5t-227.5 -58z" />
    <glyph glyph-name="eng" unicode="&#x14b;" 
d="M712 -449q-180 0 -304 94l142 224q38 -28 68 -40t63 -12q103 0 103 121v717q0 179 -152 179q-86 0 -139 -60t-53 -158v-616h-302v1052h287v-160h9q124 194 338 194q146 0 230 -98t84 -267v-778q0 -184 -99 -288t-275 -104z" />
    <glyph glyph-name="Omacron" unicode="&#x14c;" 
d="M308 53q-122 87 -187 250.5t-65 390.5v44q0 228 65 391t187 250t292 87t292 -87t187 -250t65 -391v-44q0 -227 -65 -390.5t-187 -250.5t-292 -87t-292 87zM771.5 367q58.5 111 58.5 322v54q0 212 -58.5 322.5t-171 110.5t-171.5 -110.5t-59 -322.5v-54q0 -211 59 -322
t171.5 -111t171 111zM277 1695v246h646v-246h-646z" />
    <glyph glyph-name="omacron" unicode="&#x14d;" 
d="M329 36.5q-118 70.5 -184.5 194.5t-66.5 284v22q0 160 66.5 284t184.5 194.5t271 70.5t270.5 -70.5t184.5 -194.5t67 -284v-22q0 -160 -67 -284t-184.5 -194.5t-270.5 -70.5t-271 70.5zM761.5 310q60.5 78 60.5 209v14q0 131 -60.5 209t-161.5 78t-161.5 -78t-60.5 -209
v-14q0 -131 60.5 -209t161.5 -78t161.5 78zM277 1315v246h646v-246h-646z" />
    <glyph glyph-name="Ohungarumlaut" unicode="&#x150;" 
d="M308 53q-122 87 -187 250.5t-65 390.5v44q0 228 65 391t187 250t292 87t292 -87t187 -250t65 -391v-44q0 -227 -65 -390.5t-187 -250.5t-292 -87t-292 87zM771.5 367q58.5 111 58.5 322v54q0 212 -58.5 322.5t-171 110.5t-171.5 -110.5t-59 -322.5v-54q0 -211 59 -322
t171.5 -111t171 111zM687 1638v14l160 364h324v-13l-242 -365h-242zM239 1638v14l160 364h324v-13l-242 -365h-242z" />
    <glyph glyph-name="ohungarumlaut" unicode="&#x151;" 
d="M329 36.5q-118 70.5 -184.5 194.5t-66.5 284v22q0 160 66.5 284t184.5 194.5t271 70.5t270.5 -70.5t184.5 -194.5t67 -284v-22q0 -160 -67 -284t-184.5 -194.5t-270.5 -70.5t-271 70.5zM761.5 310q60.5 78 60.5 209v14q0 131 -60.5 209t-161.5 78t-161.5 -78t-60.5 -209
v-14q0 -131 60.5 -209t161.5 -78t161.5 78zM687 1258v14l160 364h324v-13l-242 -365h-242zM239 1258v14l160 364h324v-13l-242 -365h-242z" />
    <glyph glyph-name="OE" unicode="&#x152;" 
d="M394 -34q-172 0 -268 181.5t-96 522.5v92q0 342 96 523t268 181q101 0 166.5 -74t96.5 -211h14l8 251h488v-277h-316v-878h332v-277h-504l-8 251h-14q-31 -136 -96.5 -210.5t-166.5 -74.5zM454 253q74 0 106 103t32 307v106q0 205 -32 308t-106 103t-106.5 -103.5
t-32.5 -309.5v-102q0 -205 32.5 -308.5t106.5 -103.5zM746 594v273h375v-273h-375z" />
    <glyph glyph-name="oe" unicode="&#x153;" 
d="M358 -34q-159 0 -246 140t-87 393v54q0 254 87 393.5t246 139.5q110 0 181.5 -76t96.5 -220h-64q26 136 108 216t196 80q148 0 229 -130t81 -368q0 -36 -1 -66t-4 -66h-572v174h333l-8 -5q0 237 -100 237q-59 0 -90 -81t-31 -248v-30q0 -151 33 -231t94 -80q39 0 66 32
t51 109l222 -64q-89 -303 -311 -303q-138 0 -216 97.5t-91 267.5h75q-16 -177 -87.5 -271t-190.5 -94zM388 210q110 0 110 293v46q0 293 -110 293q-111 0 -111 -293v-46q0 -293 111 -293z" />
    <glyph glyph-name="Racute" unicode="&#x154;" 
d="M114 0v1432h465q157 0 270 -54.5t174 -156.5t61 -243v-14q0 -141 -61 -243t-174 -157t-270 -55h-288v260h281q95 0 148.5 47.5t53.5 132.5v24q0 85 -53.5 133t-148.5 48h-152v-1154h-306zM819 0l-348 624h337l358 -624h-347zM383 1638v14l208 364h348v-13l-290 -365h-266
z" />
    <glyph glyph-name="racute" unicode="&#x155;" 
d="M297 110v942h253v-240h14q47 133 134 203.5t204 70.5q80 0 142 -31.5t126 -105.5l-183 -219q-46 49 -86.5 68.5t-93.5 19.5q-106 0 -161.5 -71t-55.5 -207v-430h-293zM84 0v226h846v-226h-846zM104 826v226h327v-226h-327zM517 1258v14l208 364h348v-13l-290 -365h-266z
" />
    <glyph glyph-name="Rcaron" unicode="&#x158;" 
d="M114 0v1432h465q157 0 270 -54.5t174 -156.5t61 -243v-14q0 -141 -61 -243t-174 -157t-270 -55h-288v260h281q95 0 148.5 47.5t53.5 132.5v24q0 85 -53.5 133t-148.5 48h-152v-1154h-306zM819 0l-348 624h337l358 -624h-347zM369 1638l-290 364v14h296l170 -295h-57
l169 295h296v-14l-290 -364h-294z" />
    <glyph glyph-name="rcaron" unicode="&#x159;" 
d="M297 110v942h253v-240h14q47 133 134 203.5t204 70.5q80 0 142 -31.5t126 -105.5l-183 -219q-46 49 -86.5 68.5t-93.5 19.5q-106 0 -161.5 -71t-55.5 -207v-430h-293zM84 0v226h846v-226h-846zM104 826v226h327v-226h-327zM503 1258l-290 364v14h296l170 -295h-57
l169 295h296v-14l-290 -364h-294z" />
    <glyph glyph-name="Sacute" unicode="&#x15a;" 
d="M644 -34q-150 0 -271 52.5t-203 151t-116 234.5l283 75q29 -112 108 -173t198 -61q87 0 135 36.5t48 102.5v7q0 57 -42 95.5t-149 80.5l-195 77q-303 119 -303 398v4q0 125 61.5 219.5t170.5 147.5t254 53q197 0 324.5 -90.5t180.5 -266.5l-281 -80q-47 158 -224 158
q-83 0 -131.5 -34.5t-48.5 -93.5v-6q0 -48 34.5 -81t119.5 -67l195 -77q176 -70 258 -175t82 -263v-8q0 -125 -61 -218.5t-170.5 -145.5t-256.5 -52zM490 1638v14l208 364h348v-13l-290 -365h-266z" />
    <glyph glyph-name="sacute" unicode="&#x15b;" 
d="M645 -33q-195 0 -323.5 79.5t-175.5 229.5l253 84q23 -73 87 -113t155 -40q64 0 99.5 22t35.5 62v4q0 37 -30 58t-121 46l-151 43q-132 38 -202.5 115.5t-70.5 192.5v2q0 152 114 243t306 91q169 0 277.5 -66.5t149.5 -194.5l-253 -85q-38 110 -190 110
q-61 0 -94.5 -20.5t-33.5 -58.5v-1q0 -33 26.5 -53t96.5 -40l151 -42q157 -43 229.5 -124.5t72.5 -212.5v-4q0 -148 -111.5 -237.5t-296.5 -89.5zM480 1258v14l208 364h348v-13l-290 -365h-266z" />
    <glyph glyph-name="Scedilla" unicode="&#x15e;" 
d="M644 -34q-150 0 -271 52.5t-203 151t-116 234.5l283 75q29 -112 108 -173t198 -61q87 0 135 36.5t48 102.5v7q0 57 -42 95.5t-149 80.5l-195 77q-303 119 -303 398v4q0 125 61.5 219.5t170.5 147.5t254 53q197 0 324.5 -90.5t180.5 -266.5l-281 -80q-47 158 -224 158
q-83 0 -131.5 -34.5t-48.5 -93.5v-6q0 -48 34.5 -81t119.5 -67l195 -77q176 -70 258 -175t82 -263v-8q0 -125 -61 -218.5t-170.5 -145.5t-256.5 -52zM646 -658q-99 0 -186 52t-137 139l168 102q61 -105 154 -105q51 0 82 27t31 72q0 46 -28 72.5t-75 26.5q-54 0 -96 -30
l-116 100l137 221h156l-165 -260l-80 43q40 41 92 63.5t108 22.5q120 0 192.5 -73t72.5 -194q0 -124 -86 -201.5t-224 -77.5z" />
    <glyph glyph-name="scedilla" unicode="&#x15f;" 
d="M645 -33q-195 0 -323.5 79.5t-175.5 229.5l253 84q23 -73 87 -113t155 -40q64 0 99.5 22t35.5 62v4q0 37 -30 58t-121 46l-151 43q-132 38 -202.5 115.5t-70.5 192.5v2q0 152 114 243t306 91q169 0 277.5 -66.5t149.5 -194.5l-253 -85q-38 110 -190 110
q-61 0 -94.5 -20.5t-33.5 -58.5v-1q0 -33 26.5 -53t96.5 -40l151 -42q157 -43 229.5 -124.5t72.5 -212.5v-4q0 -148 -111.5 -237.5t-296.5 -89.5zM617 -658q-99 0 -186 52t-137 139l168 102q61 -105 154 -105q51 0 82 27t31 72q0 46 -28 72.5t-75 26.5q-54 0 -96 -30
l-116 100l137 221h156l-165 -260l-80 43q40 41 92 63.5t108 22.5q120 0 192.5 -73t72.5 -194q0 -124 -86 -201.5t-224 -77.5z" />
    <glyph glyph-name="Scaron" unicode="&#x160;" 
d="M644 -34q-150 0 -271 52.5t-203 151t-116 234.5l283 75q29 -112 108 -173t198 -61q87 0 135 36.5t48 102.5v7q0 57 -42 95.5t-149 80.5l-195 77q-303 119 -303 398v4q0 125 61.5 219.5t170.5 147.5t254 53q197 0 324.5 -90.5t180.5 -266.5l-281 -80q-47 158 -224 158
q-83 0 -131.5 -34.5t-48.5 -93.5v-6q0 -48 34.5 -81t119.5 -67l195 -77q176 -70 258 -175t82 -263v-8q0 -125 -61 -218.5t-170.5 -145.5t-256.5 -52zM476 1638l-290 364v14h296l170 -295h-57l169 295h296v-14l-290 -364h-294z" />
    <glyph glyph-name="scaron" unicode="&#x161;" 
d="M645 -33q-195 0 -323.5 79.5t-175.5 229.5l253 84q23 -73 87 -113t155 -40q64 0 99.5 22t35.5 62v4q0 37 -30 58t-121 46l-151 43q-132 38 -202.5 115.5t-70.5 192.5v2q0 152 114 243t306 91q169 0 277.5 -66.5t149.5 -194.5l-253 -85q-38 110 -190 110
q-61 0 -94.5 -20.5t-33.5 -58.5v-1q0 -33 26.5 -53t96.5 -40l151 -42q157 -43 229.5 -124.5t72.5 -212.5v-4q0 -148 -111.5 -237.5t-296.5 -89.5zM466 1258l-290 364v14h296l170 -295h-57l169 295h296v-14l-290 -364h-294z" />
    <glyph glyph-name="uni0162" unicode="&#x162;" 
d="M445 0v1283h310v-1283h-310zM78 1142v290h1044v-290h-1044zM604 -658q-99 0 -186 52t-137 139l168 102q61 -105 154 -105q51 0 82 27t31 72q0 46 -28 72.5t-75 26.5q-54 0 -96 -30l-116 100l137 221h156l-165 -260l-80 43q40 41 92 63.5t108 22.5q120 0 192.5 -73
t72.5 -194q0 -124 -86 -201.5t-224 -77.5z" />
    <glyph glyph-name="uni0163" unicode="&#x163;" 
d="M782 -34q-210 0 -324 116.5t-114 330.5v913h302v-893q0 -99 41 -148t124 -49q86 0 163 70l144 -222q-138 -118 -336 -118zM96 824v228h960v-228h-960zM703 -658q-99 0 -186 52t-137 139l168 102q61 -105 154 -105q51 0 82 27t31 72q0 46 -28 72.5t-75 26.5q-54 0 -96 -30
l-116 100l137 221h156l-165 -260l-80 43q40 41 92 63.5t108 22.5q120 0 192.5 -73t72.5 -194q0 -124 -86 -201.5t-224 -77.5z" />
    <glyph glyph-name="Tcaron" unicode="&#x164;" 
d="M445 0v1283h310v-1283h-310zM78 1142v290h1044v-290h-1044zM453 1638l-290 364v14h296l170 -295h-57l169 295h296v-14l-290 -364h-294z" />
    <glyph glyph-name="tcaron" unicode="&#x165;" 
d="M774 -34q-209 0 -322 116.5t-113 330.5v913h302v-893q0 -99 40.5 -147.5t122.5 -48.5q87 0 165 71l144 -221q-139 -121 -339 -121zM91 784v228h960v-228h-960zM776 1133l34 442h262l-84 -442h-212z" />
    <glyph glyph-name="Utilde" unicode="&#x168;" 
d="M338 29q-112 63 -174 175.5t-62 261.5v966h308v-958q0 -100 50.5 -159t139.5 -59q90 0 140 59t50 159v958h308v-966q0 -149 -62 -261.5t-173.5 -175.5t-262 -63t-262.5 63zM779 1639q-49 0 -96.5 21.5t-99.5 70.5q-38 36 -61 52t-45 16q-56 0 -56 -74v-83h-216v91
q0 138 59 212t170 74q48 0 91 -20.5t93 -70.5q38 -37 61.5 -53t46.5 -16q53 0 53 73v84h217v-90q0 -139 -53.5 -213t-163.5 -74z" />
    <glyph glyph-name="utilde" unicode="&#x169;" 
d="M451 -34q-146 0 -229 96.5t-83 262.5v727h302v-658q0 -84 38.5 -129.5t108.5 -45.5q74 0 118.5 59t44.5 160v614h302v-1052h-287v160h-10q-48 -85 -124.5 -139.5t-180.5 -54.5zM775 1259q-49 0 -96.5 21.5t-99.5 70.5q-38 36 -61 52t-45 16q-56 0 -56 -74v-83h-216v91
q0 138 59 212t170 74q48 0 91 -20.5t93 -70.5q38 -37 61.5 -53t46.5 -16q53 0 53 73v84h217v-90q0 -139 -53.5 -213t-163.5 -74z" />
    <glyph glyph-name="Umacron" unicode="&#x16a;" 
d="M338 29q-112 63 -174 175.5t-62 261.5v966h308v-958q0 -100 50.5 -159t139.5 -59q90 0 140 59t50 159v958h308v-966q0 -149 -62 -261.5t-173.5 -175.5t-262 -63t-262.5 63zM277 1695v246h646v-246h-646z" />
    <glyph glyph-name="umacron" unicode="&#x16b;" 
d="M451 -34q-146 0 -229 96.5t-83 262.5v727h302v-658q0 -84 38.5 -129.5t108.5 -45.5q74 0 118.5 59t44.5 160v614h302v-1052h-287v160h-10q-48 -85 -124.5 -139.5t-180.5 -54.5zM273 1315v246h646v-246h-646z" />
    <glyph glyph-name="Uring" unicode="&#x16e;" 
d="M338 29q-112 63 -174 175.5t-62 261.5v966h308v-958q0 -100 50.5 -159t139.5 -59q90 0 140 59t50 159v958h308v-966q0 -149 -62 -261.5t-173.5 -175.5t-262 -63t-262.5 63zM442.5 1571.5q-70.5 40.5 -112.5 108.5t-42 152q0 85 42 153t112.5 108.5t157.5 40.5
t157.5 -40.5t112.5 -108.5t42 -153q0 -84 -42 -152t-112.5 -108.5t-157.5 -40.5t-157.5 40.5zM687.5 1745.5q34.5 34.5 34.5 87t-34.5 87t-87 34.5t-87.5 -34.5t-35 -87t35 -87t87.5 -34.5t87 34.5z" />
    <glyph glyph-name="uring" unicode="&#x16f;" 
d="M451 -34q-146 0 -229 96.5t-83 262.5v727h302v-658q0 -84 38.5 -129.5t108.5 -45.5q74 0 118.5 59t44.5 160v614h302v-1052h-287v160h-10q-48 -85 -124.5 -139.5t-180.5 -54.5zM438.5 1191.5q-70.5 40.5 -112.5 108.5t-42 152q0 85 42 153t112.5 108.5t157.5 40.5
t157.5 -40.5t112.5 -108.5t42 -153q0 -84 -42 -152t-112.5 -108.5t-157.5 -40.5t-157.5 40.5zM683.5 1365.5q34.5 34.5 34.5 87t-34.5 87t-87 34.5t-87.5 -34.5t-35 -87t35 -87t87.5 -34.5t87 34.5z" />
    <glyph glyph-name="Uhungarumlaut" unicode="&#x170;" 
d="M338 29q-112 63 -174 175.5t-62 261.5v966h308v-958q0 -100 50.5 -159t139.5 -59q90 0 140 59t50 159v958h308v-966q0 -149 -62 -261.5t-173.5 -175.5t-262 -63t-262.5 63zM687 1638v14l160 364h324v-13l-242 -365h-242zM239 1638v14l160 364h324v-13l-242 -365h-242z
" />
    <glyph glyph-name="uhungarumlaut" unicode="&#x171;" 
d="M451 -34q-146 0 -229 96.5t-83 262.5v727h302v-658q0 -84 38.5 -129.5t108.5 -45.5q74 0 118.5 59t44.5 160v614h302v-1052h-287v160h-10q-48 -85 -124.5 -139.5t-180.5 -54.5zM683 1258v14l160 364h324v-13l-242 -365h-242zM235 1258v14l160 364h324v-13l-242 -365h-242
z" />
    <glyph glyph-name="Uogonek" unicode="&#x172;" 
d="M702 -547q-83 0 -148.5 36t-103.5 98.5t-38 141.5q0 246 376 383l-22 -118q-38 -11 -80 -17t-86 -6q-149 0 -261.5 62t-174.5 173.5t-62 259.5v966h308v-958q0 -100 50.5 -159t139.5 -59t139.5 59t50.5 159v958h308v-966q0 -154 -66 -267t-209 -205q-99 -63 -138.5 -111
t-39.5 -105q0 -47 32 -76t82 -29q46 0 85 19l58 -187q-92 -52 -200 -52z" />
    <glyph glyph-name="uogonek" unicode="&#x173;" 
d="M913 -547q-82 0 -148 36t-104 99t-38 142q0 121 89 215.5t278 166.5l63 -112q-104 -56 -150.5 -107.5t-46.5 -115.5q0 -47 32.5 -75.5t81.5 -28.5q46 0 85 19l59 -187q-90 -52 -201 -52zM451 -34q-146 0 -229 96.5t-83 262.5v727h302v-658q0 -84 38.5 -129.5t108.5 -45.5
q74 0 118.5 59t44.5 160v614h302v-1052h-287v160h-10q-48 -85 -124.5 -139.5t-180.5 -54.5z" />
    <glyph glyph-name="Wcircumflex" unicode="&#x174;" 
d="M205 0l-183 1432h283l74 -977h6l45 279l84 416h172l84 -416l45 -279h6l65 977h292l-183 -1432h-248l-105 520l-39 248h-6l-39 -248l-104 -520h-249zM159 1638v14l290 364h294l290 -364v-14h-296l-173 295h65l-174 -295h-296z" />
    <glyph glyph-name="wcircumflex" unicode="&#x175;" 
d="M223 0l-220 1052h266l92 -598l15 -117h7l16 118l86 477h245l86 -476l15 -119h7l15 119l94 596h250l-221 -1052h-266l-92 505l-15 117h-7l-16 -117l-91 -505h-266zM171 1258v14l290 364h294l290 -364v-14h-296l-173 295h65l-174 -295h-296z" />
    <glyph glyph-name="Ycircumflex" unicode="&#x176;" 
d="M477 438l-452 994h333l148 -356l95 -273h8l92 273l149 356h325l-451 -994h-247zM446 0v676h308v-676h-308zM167 1638v14l290 364h294l290 -364v-14h-296l-173 295h65l-174 -295h-296z" />
    <glyph glyph-name="ycircumflex" unicode="&#x177;" 
d="M325 -449q-178 0 -305 106l145 224q78 -64 152 -64q54 0 87.5 25.5t55.5 85.5l97 265h57l92 381l148 478h312l-437 -1175q-64 -173 -159.5 -249.5t-244.5 -76.5zM511 -87l-424 1139h314l155 -478l70 -276h90zM191 1258v14l290 364h294l290 -364v-14h-296l-173 295h65
l-174 -295h-296z" />
    <glyph glyph-name="Ydieresis" unicode="&#x178;" 
d="M477 438l-452 994h333l148 -356l95 -273h8l92 273l149 356h325l-451 -994h-247zM446 0v676h308v-676h-308zM332 1626q-80 0 -136 55t-56 134t56 134t136 55q81 0 136.5 -54.5t55.5 -134.5t-55 -134.5t-137 -54.5zM876 1626q-80 0 -136 55t-56 134t56 134t136 55
q81 0 136.5 -54.5t55.5 -134.5t-55 -134.5t-137 -54.5z" />
    <glyph glyph-name="Zacute" unicode="&#x179;" 
d="M104 0v258l614 887h-590v287h954v-258l-613 -887h627v-287h-992zM472 1638v14l208 364h348v-13l-290 -365h-266z" />
    <glyph glyph-name="zacute" unicode="&#x17a;" 
d="M153 0v238l540 564h-519v250h863v-238l-539 -564h549v-250h-894zM473 1258v14l208 364h348v-13l-290 -365h-266z" />
    <glyph glyph-name="Zdotaccent" unicode="&#x17b;" 
d="M104 0v258l614 887h-590v287h954v-258l-613 -887h627v-287h-992zM605 1626q-84 0 -142 57.5t-58 141.5q0 83 57.5 141t142.5 58q86 0 143 -58t57 -141q0 -84 -57 -141.5t-143 -57.5z" />
    <glyph glyph-name="zdotaccent" unicode="&#x17c;" 
d="M153 0v238l540 564h-519v250h863v-238l-539 -564h549v-250h-894zM606 1246q-84 0 -142 57.5t-58 141.5q0 83 57.5 141t142.5 58q86 0 143 -58t57 -141q0 -84 -57 -141.5t-143 -57.5z" />
    <glyph glyph-name="Zcaron" unicode="&#x17d;" 
d="M104 0v258l614 887h-590v287h954v-258l-613 -887h627v-287h-992zM458 1638l-290 364v14h296l170 -295h-57l169 295h296v-14l-290 -364h-294z" />
    <glyph glyph-name="zcaron" unicode="&#x17e;" 
d="M153 0v238l540 564h-519v250h863v-238l-539 -564h549v-250h-894zM459 1258l-290 364v14h296l170 -295h-57l169 295h296v-14l-290 -364h-294z" />
    <glyph glyph-name="longs" unicode="&#x17f;" 
d="M341 0v1062q0 131 54.5 228t152 150.5t226.5 53.5q117 0 209.5 -38t168.5 -118l-187 -222q-42 44 -81 65t-88 21q-73 0 -113 -46t-40 -135v-1021h-302zM108 826v226h387v-226h-387z" />
    <glyph glyph-name="uni0181" unicode="&#x181;" 
d="M409 0v1432h338q186 0 295.5 -97t109.5 -264v-21q0 -106 -56 -186.5t-160 -123.5v-9q124 -34 189 -120t65 -216v-23q0 -111 -52 -194.5t-145.5 -130.5t-217.5 -47h-366zM17 810q-25 66 -39 127t-14 108q0 115 52 202t145.5 136t216.5 49h196v-221h-191
q-76 0 -115.5 -44.5t-39.5 -129.5q0 -37 7 -75t21 -76zM663 226h78q87 0 129 45.5t42 139.5v19q0 95 -44 140.5t-135 45.5h-158v222h158q76 0 113.5 44t37.5 133v15q0 91 -36.5 133.5t-114.5 42.5h-70v-980z" />
    <glyph glyph-name="uni018A" unicode="&#x18a;" 
d="M431 0v1432h242q161 0 275 -81t174 -228.5t60 -348.5v-116q0 -200 -60 -348t-174 -229t-275 -81h-242zM57 824q-25 57 -37.5 115.5t-12.5 110.5q0 115 52.5 200.5t146 133.5t215.5 48h138v-220h-134q-73 0 -113 -45.5t-40 -131.5q0 -35 6.5 -68.5t17.5 -66.5zM677 258h41
q102 0 154 95t52 300v126q0 206 -52.5 300.5t-153.5 94.5h-41v-916z" />
    <glyph glyph-name="uni018F" unicode="&#x18f;" 
d="M616 -34q-257 0 -402 178t-145 493q0 46 2.5 85.5t8.5 76.5h908v-246h-638l3 44q0 -169 66 -258t193 -89q131 0 193.5 107.5t62.5 330.5v78q0 216 -60 314t-192 98q-172 0 -307 -161l-216 185q104 131 240.5 197.5t297.5 66.5q264 0 397 -181.5t133 -541.5v-45
q0 -229 -65.5 -392.5t-187.5 -251.5t-292 -88z" />
    <glyph glyph-name="uni0198" unicode="&#x198;" 
d="M801 0l-428 739v8l213 407q84 161 177.5 236.5t235.5 75.5q68 0 117.5 -15t98.5 -46l-119 -258q-19 14 -37 20.5t-44 6.5q-49 0 -89.5 -35t-90.5 -116l-164 -268v56l482 -811h-352zM73 0v1432h308v-1432h-308z" />
    <glyph glyph-name="uni0199" unicode="&#x199;" 
d="M112 0v1033q0 240 128 375t343 135q130 0 250 -52l-97 -252q-62 28 -132 28q-190 0 -190 -249v-1018h-302zM798 0l-397 563v8l381 481h346l-442 -544v123l456 -631h-344z" />
    <glyph glyph-name="Ohorn" unicode="&#x1a0;" 
d="M596 -34q-168 0 -288.5 87.5t-185.5 250.5t-65 390v44q0 229 65.5 391.5t189 249.5t296.5 87q56 0 97.5 -7t87.5 -7q65 0 99.5 29t34.5 83q0 36 -13.5 69t-46.5 75l235 149q97 -125 97 -261q0 -130 -97.5 -205t-264.5 -75h-87l26 93q182 -80 271 -242.5t89 -428.5v-44
q0 -227 -65 -390t-185.5 -250.5t-289.5 -87.5zM596 256q113 0 171.5 110.5t58.5 322.5v70q0 209 -53 316t-165 107q-118 0 -180 -112t-62 -327v-54q0 -212 59 -322.5t171 -110.5z" />
    <glyph glyph-name="ohorn" unicode="&#x1a1;" 
d="M592 -34q-159 0 -274.5 69t-177.5 192.5t-62 287.5v22q0 165 62 288.5t177.5 192t274.5 68.5q64 0 111 -7.5t90 -7.5q126 0 126 107q0 35 -12 67t-40 76l245 130q79 -116 79 -236q0 -126 -95.5 -200t-258.5 -74h-90l25 93q161 -52 247.5 -181t86.5 -316v-22
q0 -167 -63.5 -290.5t-178.5 -191t-272 -67.5zM592 232q103 0 158.5 76t55.5 211v14q0 139 -55.5 216.5t-158.5 77.5q-102 0 -158 -77.5t-56 -216.5v-14q0 -135 56 -211t158 -76z" />
    <glyph glyph-name="Uhorn" unicode="&#x1af;" 
d="M530 -34q-140 0 -245 58t-163.5 163t-58.5 245v1000h294v-987q0 -89 46.5 -140.5t128.5 -51.5q81 0 128 51.5t47 140.5v987h86q72 0 112.5 32t40.5 90q0 38 -14 73.5t-49 82.5l230 147q55 -71 80 -135.5t25 -135.5q0 -133 -100 -209.5t-259 -76.5h-61l199 113v-981
q0 -140 -58 -245t-163 -163t-246 -58z" />
    <glyph glyph-name="uhorn" unicode="&#x1b0;" 
d="M419 -34q-134 0 -212 87.5t-78 241.5v757h289v-693q0 -70 35.5 -109.5t99.5 -39.5q72 0 114 53t42 145v644h73q143 0 143 108q0 32 -12 60.5t-40 64.5l234 151q45 -57 67.5 -114t22.5 -121q0 -125 -95 -198.5t-258 -73.5h-62l217 121v-1050h-288v146h-10
q-48 -85 -120.5 -132.5t-161.5 -47.5z" />
    <glyph glyph-name="uni01B3" unicode="&#x1b3;" 
d="M418 419l-408 1013h333l121 -358l78 -274h8l56 218l25 84q37 123 90.5 203.5t128 120.5t172.5 40q65 0 112 -12t97 -39l-90 -255q-19 10 -36.5 13.5t-39.5 3.5q-42 0 -73 -19.5t-58.5 -65.5t-59.5 -128l-210 -545h-246zM387 0v642h308v-642h-308z" />
    <glyph glyph-name="uni01B4" unicode="&#x1b4;" 
d="M273 -449q-163 0 -287 77l117 233q77 -44 149 -44q62 0 100 30t54 88l71 261h71l58 406l73 331q94 428 445 428q90 0 169 -30l-58 -254q-22 9 -41.5 13.5t-45.5 4.5q-76 0 -124 -51t-80 -170l-257 -958q-48 -178 -152.5 -271.5t-261.5 -93.5zM437 -80l-375 1132h304
l121 -450l64 -304h105z" />
    <glyph glyph-name="uni01C4" unicode="&#x1c4;" 
d="M15 0v1432h265q180 0 266.5 -156t86.5 -482v-156q0 -325 -86.5 -481.5t-266.5 -156.5h-265zM241 242h37q68 0 95.5 87t27.5 304v166q0 217 -27.5 304t-95.5 87h-37v-948zM629 0v191l301 997h-280v244h536v-191l-301 -997h310v-244h-566zM788 1638l-242 365v13h236
l162 -294h-53l161 294h237v-13l-243 -365h-258z" />
    <glyph glyph-name="uni01C5" unicode="&#x1c5;" 
d="M21 0v1432h257q191 0 284 -156t93 -482v-156q0 -325 -93 -481.5t-284 -156.5h-257zM247 242h46q73 0 102.5 87t29.5 304v166q0 217 -29.5 304t-102.5 87h-46v-948zM685 0v190l262 636h-241v226h485v-189l-262 -637h269v-226h-513zM821 1258l-211 365v13h231l130 -279h-47
l130 279h231v-13l-212 -365h-252z" />
    <glyph glyph-name="uni01C6" unicode="&#x1c6;" 
d="M241 -34q-75 0 -129 63.5t-82.5 179.5t-28.5 273v89q0 157 26.5 272.5t76.5 179t122 63.5q57 0 98.5 -41t72.5 -123h9v538h234v-1460h-218v138h-9q-28 -82 -70.5 -127t-101.5 -45zM335 200q44 0 65.5 64.5t21.5 185.5v152q0 121 -21.5 185.5t-66.5 64.5t-67 -61.5
t-22 -183.5v-162q0 -122 22.5 -183.5t67.5 -61.5zM699 0v188l262 640h-252v224h494v-188l-262 -640h272v-224h-514zM847 1258l-211 365v13h230l131 -279h-47l130 279h230v-13l-211 -365h-252z" />
    <glyph glyph-name="uni01C7" unicode="&#x1c7;" 
d="M830 -34q-73 0 -137 16.5t-123 47.5l112 250q50 -36 110 -36q51 0 79 33t28 93v1062h292v-1085q0 -169 -97 -275t-264 -106zM10 0v1432h292v-1158h236v-274h-528z" />
    <glyph glyph-name="uni01C8" unicode="&#x1c8;" 
d="M751 -449q-196 0 -343 117l137 209q92 -68 182 -68q153 0 153 179v1064h280v-1070q0 -198 -111 -314.5t-298 -116.5zM54 0v1432h284v-1156h359v-276h-643zM563 828v224h512v-224h-512zM981 1246q-83 0 -140.5 56.5t-57.5 137.5q0 83 56.5 138t141.5 55q86 0 141 -54.5
t55 -138.5q0 -82 -56.5 -138t-139.5 -56z" />
    <glyph glyph-name="uni01C9" unicode="&#x1c9;" 
d="M800 -449q-181 0 -327 120l137 187q46 -37 86.5 -54.5t89.5 -17.5q143 0 143 156v1110h260v-1111q0 -181 -105 -285.5t-284 -104.5zM592 0q-172 0 -269.5 105.5t-97.5 291.5v1063h260v-1060q0 -150 126 -150q35 0 63.5 13t59.5 44l136 -196q-114 -111 -278 -111zM12 1236
v224h361v-224h-361zM663 828v224h449v-224h-449zM1010 1246q-82 0 -140 56.5t-58 137.5q0 83 57 138t141 55q85 0 140.5 -54.5t55.5 -138.5q0 -82 -56.5 -138t-139.5 -56z" />
    <glyph glyph-name="uni01CA" unicode="&#x1ca;" 
d="M10 0v1432h306l205 -1060h19l-48 690v370h210v-1432h-281l-221 1138h-18l38 -676v-462h-210zM898 -34q-91 0 -164 37l55 212q34 -20 72 -20q92 0 92 117v1120h238v-1130q0 -157 -77.5 -246.5t-215.5 -89.5z" />
    <glyph glyph-name="uni01CB" unicode="&#x1cb;" 
d="M10 0v1432h301l232 -1011h17l-45 631v380h216v-1432h-273l-258 1138h-16l42 -657v-481h-216zM815 -449q-174 0 -318 120l133 181q44 -36 80 -51t78 -15q124 0 124 154v1112h260v-1114q0 -178 -96.5 -282.5t-260.5 -104.5zM1042 1247q-79 0 -130 54t-51 139
q0 86 50.5 139.5t130.5 53.5t130.5 -53.5t50.5 -139.5q0 -85 -51 -139t-130 -54z" />
    <glyph glyph-name="uni01CC" unicode="&#x1cc;" 
d="M766 -449q-90 0 -173.5 29t-157.5 88l133 189q89 -70 177 -70q77 0 118.5 46t41.5 136v1083h262v-1084q0 -194 -107 -305.5t-294 -111.5zM35 0v1052h238v-160h9q98 194 268 194q111 0 170.5 -81t59.5 -233v-772h-262v723q0 133 -90 133q-57 0 -94 -51t-37 -140v-665h-262
zM1036 1247q-79 0 -130 55.5t-51 137.5t51 137.5t130 55.5q80 0 130.5 -55.5t50.5 -137.5t-51 -137.5t-130 -55.5z" />
    <glyph glyph-name="uni01EA" unicode="&#x1ea;" 
d="M308 53q-122 87 -187 250.5t-65 390.5v44q0 228 65 391t187 250t292 87t292 -87t187 -250t65 -391v-44q0 -227 -65 -390.5t-187 -250.5t-292 -87t-292 87zM771.5 367q58.5 111 58.5 322v54q0 212 -58.5 322.5t-171 110.5t-171.5 -110.5t-59 -322.5v-54q0 -211 59 -322
t171.5 -111t171 111zM708 -517q-83 0 -148.5 36.5t-103.5 99t-38 141.5q0 123 91 217.5t285 165.5l63 -112q-109 -56 -157.5 -108t-48.5 -116q0 -46 32 -75t82 -29q44 0 85 20l58 -187q-91 -53 -200 -53z" />
    <glyph glyph-name="uni01EB" unicode="&#x1eb;" 
d="M329 36.5q-118 70.5 -184.5 194.5t-66.5 284v22q0 160 66.5 284t184.5 194.5t271 70.5t270.5 -70.5t184.5 -194.5t67 -284v-22q0 -160 -67 -284t-184.5 -194.5t-270.5 -70.5t-271 70.5zM761.5 310q60.5 78 60.5 209v14q0 131 -60.5 209t-161.5 78t-161.5 -78t-60.5 -209
v-14q0 -131 60.5 -209t161.5 -78t161.5 78zM696 -525q-83 0 -148.5 36.5t-103.5 99t-38 141.5q0 123 91 217.5t285 165.5l63 -112q-109 -56 -157.5 -108t-48.5 -116q0 -46 32 -75t82 -29q44 0 85 20l58 -187q-91 -53 -200 -53z" />
    <glyph glyph-name="uni01F8" unicode="&#x1f8;" 
d="M70 0v1432h305l468 -900h8l-20 329v571h299v-1432h-281l-493 944h-8l20 -329v-615h-298zM470 1638l-289 365v13h348l207 -364v-14h-266z" />
    <glyph glyph-name="uni01F9" unicode="&#x1f9;" 
d="M138 0v1052h287v-160h9q59 93 145 143.5t193 50.5q146 0 230 -99t84 -267v-720h-302v654q0 86 -38 133t-114 47q-86 0 -139 -60.5t-53 -158.5v-615h-302zM483 1258l-289 365v13h348l207 -364v-14h-266z" />
    <glyph glyph-name="AEacute" unicode="&#x1fc;" 
d="M4 0l351 1432h362l-14 -264h-160l-48 -293l-193 -875h-298zM194 284l72 236h431v-236h-503zM612 0v1432h567v-277h-327v-878h343v-277h-583zM751 594v273h382v-273h-382zM604 1638v14l208 364h348v-13l-290 -365h-266z" />
    <glyph glyph-name="aeacute" unicode="&#x1fd;" 
d="M320 -34q-95 0 -165 41t-108.5 116.5t-38.5 176.5v11q0 159 90.5 256.5t237.5 97.5q88 0 148 -38v-176q-42 32 -94 32t-79.5 -38.5t-27.5 -110.5v-15q0 -64 23 -98.5t66 -34.5q45 0 66.5 43.5t21.5 133.5v326q0 88 -24.5 127.5t-80.5 39.5q-73 0 -143 -86l-165 150
q133 166 322 166q117 0 191.5 -72t103.5 -215h-117q38 136 124 211.5t201 75.5q153 0 235.5 -126t82.5 -360q0 -37 -1 -70.5t-4 -74.5h-580v176h358l-19 -7q0 234 -105 234q-65 0 -99 -83t-34 -242v-29q0 -150 34 -233t102 -83q43 0 69.5 32.5t57.5 116.5l214 -82
q-54 -150 -133.5 -219.5t-194.5 -69.5q-131 0 -221 94t-112 250h135q-44 -178 -125.5 -261t-211.5 -83zM486 1258v14l208 364h348v-13l-290 -365h-266z" />
    <glyph glyph-name="uni0218" unicode="&#x218;" 
d="M644 -34q-150 0 -271 52.5t-203 151t-116 234.5l283 75q29 -112 108 -173t198 -61q87 0 135 36.5t48 102.5v7q0 57 -42 95.5t-149 80.5l-195 77q-303 119 -303 398v4q0 125 61.5 219.5t170.5 147.5t254 53q197 0 324.5 -90.5t180.5 -266.5l-281 -80q-47 158 -224 158
q-83 0 -131.5 -34.5t-48.5 -93.5v-6q0 -48 34.5 -81t119.5 -67l195 -77q176 -70 258 -175t82 -263v-8q0 -125 -61 -218.5t-170.5 -145.5t-256.5 -52zM555 -863l-167 117l229 309l-6 -84q-82 5 -134 56.5t-52 127.5q0 80 55 131.5t139 51.5q90 0 146 -57t56 -149
q0 -58 -23.5 -119t-79.5 -143z" />
    <glyph glyph-name="uni0219" unicode="&#x219;" 
d="M645 -33q-195 0 -323.5 79.5t-175.5 229.5l253 84q23 -73 87 -113t155 -40q64 0 99.5 22t35.5 62v4q0 37 -30 58t-121 46l-151 43q-132 38 -202.5 115.5t-70.5 192.5v2q0 152 114 243t306 91q169 0 277.5 -66.5t149.5 -194.5l-253 -85q-38 110 -190 110
q-61 0 -94.5 -20.5t-33.5 -58.5v-1q0 -33 26.5 -53t96.5 -40l151 -42q157 -43 229.5 -124.5t72.5 -212.5v-4q0 -148 -111.5 -237.5t-296.5 -89.5zM554 -863l-167 117l229 309l-6 -84q-82 5 -134 56.5t-52 127.5q0 80 55 131.5t139 51.5q90 0 146 -57t56 -149
q0 -58 -23.5 -119t-79.5 -143z" />
    <glyph glyph-name="uni021A" unicode="&#x21a;" 
d="M445 0v1283h310v-1283h-310zM78 1142v290h1044v-290h-1044zM513 -863l-167 117l229 309l-6 -84q-82 5 -134 56.5t-52 127.5q0 80 55 131.5t139 51.5q90 0 146 -57t56 -149q0 -58 -23.5 -119t-79.5 -143z" />
    <glyph glyph-name="uni021B" unicode="&#x21b;" 
d="M782 -34q-210 0 -324 116.5t-114 330.5v913h302v-893q0 -99 41 -148t124 -49q86 0 163 70l144 -222q-138 -118 -336 -118zM96 824v228h960v-228h-960zM619 -897l-167 117l229 309l-6 -84q-82 5 -134 56.5t-52 127.5q0 80 55 131.5t139 51.5q90 0 146 -57t56 -149
q0 -58 -23.5 -119t-79.5 -143z" />
    <glyph glyph-name="uni0237" unicode="&#x237;" 
d="M440 -449q-201 0 -368 121l145 225q55 -40 105 -60t104 -20q80 0 123 48t43 137v1050h302v-1040q0 -215 -121 -338t-333 -123zM203 828v224h615v-224h-615z" />
    <glyph glyph-name="uni0253" unicode="&#x253;" 
d="M722 -34q-97 0 -176 50t-126 140h-9v-156h-292v1038q0 236 129.5 370.5t355.5 134.5q77 0 139.5 -13.5t123.5 -43.5l-97 -252q-36 18 -69.5 25.5t-77.5 7.5q-99 0 -151 -60t-52 -183v-146h9q52 88 130.5 134t175.5 46q114 0 198 -67t130 -187.5t46 -282.5v-17
q0 -161 -48.5 -282.5t-135.5 -188.5t-203 -67zM614 216q92 0 142.5 74t50.5 210v25q0 136 -50.5 209.5t-143.5 73.5q-91 0 -146 -78.5t-55 -209.5v-15q0 -132 55 -210.5t147 -78.5z" />
    <glyph glyph-name="uni0257" unicode="&#x257;" 
d="M424 -34q-106 0 -186.5 68.5t-125.5 191t-45 283.5v35q0 164 43.5 286t122 189t183.5 67q166 0 246 -178h9v220q0 133 48.5 225.5t133 141t190.5 48.5q51 0 93.5 -7.5t81.5 -22.5l-60 -255q-19 8 -37.5 12.5t-42.5 4.5q-64 0 -96.5 -42.5t-32.5 -131.5v-1101h-268v155h-9
q-79 -189 -248 -189zM518 209q75 0 118.5 79t43.5 216v44q0 137 -43.5 216.5t-118.5 79.5q-79 0 -122 -77.5t-43 -218.5v-44q0 -140 43 -217.5t122 -77.5z" />
    <glyph glyph-name="uni0259" unicode="&#x259;" 
d="M598 -34q-148 0 -259.5 64t-173.5 178t-62 264q0 34 2.5 63t6.5 54h847v-175h-580v6q0 -94 59.5 -154t159.5 -60q112 0 172.5 77.5t60.5 222.5v60q0 132 -60.5 204t-187.5 72q-155 0 -319 -123l-137 197q106 83 225.5 126.5t254.5 43.5q242 0 376 -146t134 -393v-22
q0 -167 -65 -293t-182 -196t-272 -70z" />
    <glyph glyph-name="uni02BB" unicode="&#x2bb;" 
d="M652 1967l167 -117l-229 -309l6 84q82 -4 134 -56t52 -128q0 -79 -55 -131t-139 -52q-90 0 -146 57t-56 149q0 59 24 119.5t79 142.5z" />
    <glyph glyph-name="uni02BC" unicode="&#x2bc;" 
d="M613 882h-276l242 578h358z" />
    <glyph glyph-name="circumflex" unicode="&#x2c6;" 
d="M163 1258v14l290 364h294l290 -364v-14h-296l-173 295h65l-174 -295h-296z" />
    <glyph glyph-name="caron" unicode="&#x2c7;" 
d="M453 1258l-290 364v14h296l170 -295h-57l169 295h296v-14l-290 -364h-294z" />
    <glyph glyph-name="breve" unicode="&#x2d8;" 
d="M398.5 1294.5q-86.5 47.5 -135 132.5t-48.5 197v12h224v-18q0 -78 43 -122.5t118 -44.5t118 44.5t43 122.5v18h224v-12q0 -112 -48.5 -197t-135 -132.5t-201.5 -47.5t-201.5 47.5z" />
    <glyph glyph-name="dotaccent" unicode="&#x2d9;" 
d="M600 1246q-84 0 -142 57.5t-58 141.5q0 83 57.5 141t142.5 58q86 0 143 -58t57 -141q0 -84 -57 -141.5t-143 -57.5z" />
    <glyph glyph-name="ring" unicode="&#x2da;" 
d="M442.5 1191.5q-70.5 40.5 -112.5 108.5t-42 152q0 85 42 153t112.5 108.5t157.5 40.5t157.5 -40.5t112.5 -108.5t42 -153q0 -84 -42 -152t-112.5 -108.5t-157.5 -40.5t-157.5 40.5zM687.5 1365.5q34.5 34.5 34.5 87t-34.5 87t-87 34.5t-87.5 -34.5t-35 -87t35 -87
t87.5 -34.5t87 34.5z" />
    <glyph glyph-name="ogonek" unicode="&#x2db;" 
d="M645 -559q-83 0 -148.5 36.5t-103.5 99t-38 141.5q0 123 91 217.5t285 165.5l63 -112q-109 -56 -157.5 -108t-48.5 -116q0 -46 32 -75t82 -29q44 0 85 20l58 -187q-91 -53 -200 -53z" />
    <glyph glyph-name="tilde" unicode="&#x2dc;" 
d="M778 1259q-49 0 -96.5 21.5t-99.5 70.5q-38 36 -61 52t-45 16q-56 0 -56 -74v-83h-216v91q0 138 59 212t170 74q48 0 91 -20.5t93 -70.5q38 -37 61.5 -53t46.5 -16q53 0 53 73v84h217v-90q0 -139 -53.5 -213t-163.5 -74z" />
    <glyph glyph-name="hungarumlaut" unicode="&#x2dd;" 
d="M582 1258v14l160 364h324v-13l-242 -365h-242zM134 1258v14l160 364h324v-13l-242 -365h-242z" />
    <glyph glyph-name="gravecomb" unicode="&#x300;" horiz-adv-x="0" 
d="M-133 1258l-289 365v13h348l207 -364v-14h-266z" />
    <glyph glyph-name="acutecomb" unicode="&#x301;" horiz-adv-x="0" 
d="M-133 1258v14l208 364h348v-13l-290 -365h-266z" />
    <glyph glyph-name="uni0302" unicode="&#x302;" horiz-adv-x="0" 
d="M-437 1258v14l290 364h294l290 -364v-14h-296l-173 295h65l-174 -295h-296z" />
    <glyph glyph-name="tildecomb" unicode="&#x303;" horiz-adv-x="0" 
d="M179 1259q-49 0 -96.5 21.5t-99.5 70.5q-38 36 -61 52t-45 16q-56 0 -56 -74v-83h-216v91q0 138 59 212t170 74q48 0 91 -20.5t93 -70.5q38 -37 61.5 -53t46.5 -16q53 0 53 73v84h217v-90q0 -139 -53.5 -213t-163.5 -74z" />
    <glyph glyph-name="uni0304" unicode="&#x304;" horiz-adv-x="0" 
d="M-323 1315v246h646v-246h-646z" />
    <glyph glyph-name="uni0306" unicode="&#x306;" horiz-adv-x="0" 
d="M-201.5 1294.5q-86.5 47.5 -135 132.5t-48.5 197v12h224v-18q0 -78 43 -122.5t118 -44.5t118 44.5t43 122.5v18h224v-12q0 -112 -48.5 -197t-135 -132.5t-201.5 -47.5t-201.5 47.5z" />
    <glyph glyph-name="uni0307" unicode="&#x307;" horiz-adv-x="0" 
d="M0 1246q-84 0 -142 57.5t-58 141.5q0 83 57.5 141t142.5 58q86 0 143 -58t57 -141q0 -84 -57 -141.5t-143 -57.5z" />
    <glyph glyph-name="uni0308" unicode="&#x308;" horiz-adv-x="0" 
d="M-272 1246q-80 0 -136 55t-56 134t56 134t136 55q81 0 136.5 -54.5t55.5 -134.5t-55 -134.5t-137 -54.5zM272 1246q-80 0 -136 55t-56 134t56 134t136 55q81 0 136.5 -54.5t55.5 -134.5t-55 -134.5t-137 -54.5z" />
    <glyph glyph-name="hookabovecomb" unicode="&#x309;" horiz-adv-x="0" 
d="M-31 1165l-29 198q86 6 127.5 29.5t41.5 69.5q0 84 -118 84q-90 0 -186 -33l-57 195q58 26 122 40t126 14q147 0 235 -77t88 -205q0 -136 -90.5 -217.5t-259.5 -97.5z" />
    <glyph glyph-name="uni030A" unicode="&#x30a;" horiz-adv-x="0" 
d="M-157.5 1191.5q-70.5 40.5 -112.5 108.5t-42 152q0 85 42 153t112.5 108.5t157.5 40.5t157.5 -40.5t112.5 -108.5t42 -153q0 -84 -42 -152t-112.5 -108.5t-157.5 -40.5t-157.5 40.5zM87.5 1365.5q34.5 34.5 34.5 87t-34.5 87t-87 34.5t-87.5 -34.5t-35 -87t35 -87
t87.5 -34.5t87 34.5z" />
    <glyph glyph-name="uni030B" unicode="&#x30b;" horiz-adv-x="0" 
d="M87 1258v14l160 364h324v-13l-242 -365h-242zM-361 1258v14l160 364h324v-13l-242 -365h-242z" />
    <glyph glyph-name="uni030C" unicode="&#x30c;" horiz-adv-x="0" 
d="M-147 1258l-290 364v14h296l170 -295h-57l169 295h296v-14l-290 -364h-294z" />
    <glyph glyph-name="uni0312" unicode="&#x312;" horiz-adv-x="0" 
d="M83 1967l167 -117l-229 -309l6 84q82 -4 134 -56t52 -128q0 -79 -55 -131t-139 -52q-90 0 -146 57t-56 149q0 59 24 119.5t79 142.5z" />
    <glyph glyph-name="uni031B" unicode="&#x31b;" horiz-adv-x="0" 
d="M-60 1283v149h45q122 0 122 109q0 35 -11 65.5t-40 71.5l259 150q82 -114 82 -238q0 -91 -48 -160.5t-134 -108t-200 -38.5h-75z" />
    <glyph glyph-name="dotbelowcomb" unicode="&#x323;" horiz-adv-x="0" 
d="M0 -552q-84 0 -142 57.5t-58 141.5q0 83 57.5 141t142.5 58q86 0 143 -58t57 -141q0 -84 -57 -141.5t-143 -57.5z" />
    <glyph glyph-name="uni0326" unicode="&#x326;" horiz-adv-x="0" 
d="M-88 -863l-167 117l229 309l-6 -84q-82 5 -134 56.5t-52 127.5q0 80 55 131.5t139 51.5q90 0 146 -57t56 -149q0 -58 -23.5 -119t-79.5 -143z" />
    <glyph glyph-name="uni0327" unicode="&#x327;" horiz-adv-x="0" 
d="M4 -658q-99 0 -186 52t-137 139l168 102q61 -105 154 -105q51 0 82 27t31 72q0 46 -28 72.5t-75 26.5q-54 0 -96 -30l-116 100l137 221h156l-165 -260l-80 43q40 41 92 63.5t108 22.5q120 0 192.5 -73t72.5 -194q0 -124 -86 -201.5t-224 -77.5z" />
    <glyph glyph-name="uni0328" unicode="&#x328;" horiz-adv-x="0" 
d="M-70 -559q-83 0 -148.5 36.5t-103.5 99t-38 141.5q0 123 91 217.5t285 165.5l63 -112q-109 -56 -157.5 -108t-48.5 -116q0 -46 32 -75t82 -29q44 0 85 20l58 -187q-91 -53 -200 -53z" />
    <glyph glyph-name="uni0329" unicode="&#x329;" horiz-adv-x="0" 
d="M-134 -667v496h268v-496h-268z" />
    <glyph glyph-name="uni1E44" unicode="&#x1e44;" 
d="M70 0v1432h305l468 -900h8l-20 329v571h299v-1432h-281l-493 944h-8l20 -329v-615h-298zM603 1626q-84 0 -142 57.5t-58 141.5q0 83 57.5 141t142.5 58q86 0 143 -58t57 -141q0 -84 -57 -141.5t-143 -57.5z" />
    <glyph glyph-name="uni1E45" unicode="&#x1e45;" 
d="M138 0v1052h287v-160h9q59 93 145 143.5t193 50.5q146 0 230 -99t84 -267v-720h-302v654q0 86 -38 133t-114 47q-86 0 -139 -60.5t-53 -158.5v-615h-302zM616 1246q-84 0 -142 57.5t-58 141.5q0 83 57.5 141t142.5 58q86 0 143 -58t57 -141q0 -84 -57 -141.5t-143 -57.5z
" />
    <glyph glyph-name="uni1E62" unicode="&#x1e62;" 
d="M644 -34q-150 0 -271 52.5t-203 151t-116 234.5l283 75q29 -112 108 -173t198 -61q87 0 135 36.5t48 102.5v7q0 57 -42 95.5t-149 80.5l-195 77q-303 119 -303 398v4q0 125 61.5 219.5t170.5 147.5t254 53q197 0 324.5 -90.5t180.5 -266.5l-281 -80q-47 158 -224 158
q-83 0 -131.5 -34.5t-48.5 -93.5v-6q0 -48 34.5 -81t119.5 -67l195 -77q176 -70 258 -175t82 -263v-8q0 -125 -61 -218.5t-170.5 -145.5t-256.5 -52zM642 -552q-84 0 -142 57.5t-58 141.5q0 83 57.5 141t142.5 58q86 0 143 -58t57 -141q0 -84 -57 -141.5t-143 -57.5z" />
    <glyph glyph-name="uni1E63" unicode="&#x1e63;" 
d="M645 -33q-195 0 -323.5 79.5t-175.5 229.5l253 84q23 -73 87 -113t155 -40q64 0 99.5 22t35.5 62v4q0 37 -30 58t-121 46l-151 43q-132 38 -202.5 115.5t-70.5 192.5v2q0 152 114 243t306 91q169 0 277.5 -66.5t149.5 -194.5l-253 -85q-38 110 -190 110
q-61 0 -94.5 -20.5t-33.5 -58.5v-1q0 -33 26.5 -53t96.5 -40l151 -42q157 -43 229.5 -124.5t72.5 -212.5v-4q0 -148 -111.5 -237.5t-296.5 -89.5zM626 -552q-84 0 -142 57.5t-58 141.5q0 83 57.5 141t142.5 58q86 0 143 -58t57 -141q0 -84 -57 -141.5t-143 -57.5z" />
    <glyph glyph-name="Wgrave" unicode="&#x1e80;" 
d="M205 0l-183 1432h283l74 -977h6l45 279l84 416h172l84 -416l45 -279h6l65 977h292l-183 -1432h-248l-105 520l-39 248h-6l-39 -248l-104 -520h-249zM463 1638l-289 365v13h348l207 -364v-14h-266z" />
    <glyph glyph-name="wgrave" unicode="&#x1e81;" 
d="M223 0l-220 1052h266l92 -598l15 -117h7l16 118l86 477h245l86 -476l15 -119h7l15 119l94 596h250l-221 -1052h-266l-92 505l-15 117h-7l-16 -117l-91 -505h-266zM475 1258l-289 365v13h348l207 -364v-14h-266z" />
    <glyph glyph-name="Wacute" unicode="&#x1e82;" 
d="M205 0l-183 1432h283l74 -977h6l45 279l84 416h172l84 -416l45 -279h6l65 977h292l-183 -1432h-248l-105 520l-39 248h-6l-39 -248l-104 -520h-249zM463 1638v14l208 364h348v-13l-290 -365h-266z" />
    <glyph glyph-name="wacute" unicode="&#x1e83;" 
d="M223 0l-220 1052h266l92 -598l15 -117h7l16 118l86 477h245l86 -476l15 -119h7l15 119l94 596h250l-221 -1052h-266l-92 505l-15 117h-7l-16 -117l-91 -505h-266zM475 1258v14l208 364h348v-13l-290 -365h-266z" />
    <glyph glyph-name="Wdieresis" unicode="&#x1e84;" 
d="M205 0l-183 1432h283l74 -977h6l45 279l84 416h172l84 -416l45 -279h6l65 977h292l-183 -1432h-248l-105 520l-39 248h-6l-39 -248l-104 -520h-249zM324 1626q-80 0 -136 55t-56 134t56 134t136 55q81 0 136.5 -54.5t55.5 -134.5t-55 -134.5t-137 -54.5zM868 1626
q-80 0 -136 55t-56 134t56 134t136 55q81 0 136.5 -54.5t55.5 -134.5t-55 -134.5t-137 -54.5z" />
    <glyph glyph-name="wdieresis" unicode="&#x1e85;" 
d="M223 0l-220 1052h266l92 -598l15 -117h7l16 118l86 477h245l86 -476l15 -119h7l15 119l94 596h250l-221 -1052h-266l-92 505l-15 117h-7l-16 -117l-91 -505h-266zM336 1246q-80 0 -136 55t-56 134t56 134t136 55q81 0 136.5 -54.5t55.5 -134.5t-55 -134.5t-137 -54.5z
M880 1246q-80 0 -136 55t-56 134t56 134t136 55q81 0 136.5 -54.5t55.5 -134.5t-55 -134.5t-137 -54.5z" />
    <glyph glyph-name="uni1E9E" unicode="&#x1e9e;" 
d="M756 -34q-79 0 -155.5 20t-135.5 54l128 249q65 -44 137 -44q73 0 113.5 49.5t40.5 138.5v18q0 103 -56 152.5t-172 49.5h-104v150l154 343v8h-109q-106 0 -159.5 -57t-53.5 -172v-925h-302v935q0 247 129.5 372t384.5 125h473v-150l-192 -428v-52l-92 49
q192 0 298.5 -111t106.5 -313v-22q0 -133 -53.5 -232t-151 -153t-229.5 -54z" />
    <glyph glyph-name="uni1EA0" unicode="&#x1ea0;" 
d="M16 0l445 1432h282l441 -1432h-316l-221 885l-47 210h-7l-43 -210l-224 -885h-310zM220 276l76 241h592l82 -241h-750zM597 -528q-84 0 -142 57.5t-58 141.5q0 83 57.5 141t142.5 58q86 0 143 -58t57 -141q0 -84 -57 -141.5t-143 -57.5z" />
    <glyph glyph-name="uni1EA1" unicode="&#x1ea1;" 
d="M463 -34q-103 0 -181.5 42t-122.5 117t-44 173v13q0 161 112.5 257.5t300.5 96.5q77 0 142.5 -13.5t121.5 -39.5v-175q-80 48 -185 48q-90 0 -138.5 -41t-48.5 -118v-14q0 -68 41.5 -105t116.5 -37q57 0 99.5 30.5t66.5 86t24 128.5v245q0 98 -50 147.5t-147 49.5
q-131 0 -245 -108l-156 167q170 170 440 170q221 0 336.5 -106t115.5 -307v-673h-288v135h-9q-45 -81 -123.5 -125t-178.5 -44zM602 -586q-84 0 -142 57.5t-58 141.5q0 83 57.5 141t142.5 58q86 0 143 -58t57 -141q0 -84 -57 -141.5t-143 -57.5z" />
    <glyph glyph-name="uni1EA2" unicode="&#x1ea2;" 
d="M16 0l445 1432h282l441 -1432h-316l-221 885l-47 210h-7l-43 -210l-224 -885h-310zM220 276l76 241h592l82 -241h-750zM571 1545l-29 198q86 6 127.5 29.5t41.5 69.5q0 84 -118 84q-90 0 -186 -33l-57 195q58 26 122 40t126 14q147 0 235 -77t88 -205
q0 -136 -90.5 -217.5t-259.5 -97.5z" />
    <glyph glyph-name="uni1EA3" unicode="&#x1ea3;" 
d="M463 -34q-103 0 -181.5 42t-122.5 117t-44 173v13q0 161 112.5 257.5t300.5 96.5q77 0 142.5 -13.5t121.5 -39.5v-175q-80 48 -185 48q-90 0 -138.5 -41t-48.5 -118v-14q0 -68 41.5 -105t116.5 -37q57 0 99.5 30.5t66.5 86t24 128.5v245q0 98 -50 147.5t-147 49.5
q-131 0 -245 -108l-156 167q170 170 440 170q221 0 336.5 -106t115.5 -307v-673h-288v135h-9q-45 -81 -123.5 -125t-178.5 -44zM579 1165l-29 198q86 6 127.5 29.5t41.5 69.5q0 84 -118 84q-90 0 -186 -33l-57 195q58 26 122 40t126 14q147 0 235 -77t88 -205
q0 -136 -90.5 -217.5t-259.5 -97.5z" />
    <glyph glyph-name="uni1EA4" unicode="&#x1ea4;" 
d="M16 0l445 1432h282l441 -1432h-316l-221 885l-47 210h-7l-43 -210l-224 -885h-310zM220 276l76 241h592l82 -241h-750zM141 1544v13l341 354h240l342 -354v-13h-302l-179 224h39l-179 -224h-302zM833 1851v13l152 405h256v-13l-223 -405h-185z" />
    <glyph glyph-name="uni1EA5" unicode="&#x1ea5;" 
d="M463 -34q-103 0 -181.5 42t-122.5 117t-44 173v13q0 161 112.5 257.5t300.5 96.5q77 0 142.5 -13.5t121.5 -39.5v-175q-80 48 -185 48q-90 0 -138.5 -41t-48.5 -118v-14q0 -68 41.5 -105t116.5 -37q57 0 99.5 30.5t66.5 86t24 128.5v245q0 98 -50 147.5t-147 49.5
q-131 0 -245 -108l-156 167q170 170 440 170q221 0 336.5 -106t115.5 -307v-673h-288v135h-9q-45 -81 -123.5 -125t-178.5 -44zM149 1221v13l341 354h240l342 -354v-13h-302l-179 224h39l-179 -224h-302zM841 1528v13l152 405h256v-13l-223 -405h-185z" />
    <glyph glyph-name="uni1EA6" unicode="&#x1ea6;" 
d="M16 0l445 1432h282l441 -1432h-316l-221 885l-47 210h-7l-43 -210l-224 -885h-310zM220 276l76 241h592l82 -241h-750zM141 1544v13l341 354h240l342 -354v-13h-302l-179 224h39l-179 -224h-302zM963 1849l-268 405v13h263l211 -405v-13h-206z" />
    <glyph glyph-name="uni1EA7" unicode="&#x1ea7;" 
d="M463 -34q-103 0 -181.5 42t-122.5 117t-44 173v13q0 161 112.5 257.5t300.5 96.5q77 0 142.5 -13.5t121.5 -39.5v-175q-80 48 -185 48q-90 0 -138.5 -41t-48.5 -118v-14q0 -68 41.5 -105t116.5 -37q57 0 99.5 30.5t66.5 86t24 128.5v245q0 98 -50 147.5t-147 49.5
q-131 0 -245 -108l-156 167q170 170 440 170q221 0 336.5 -106t115.5 -307v-673h-288v135h-9q-45 -81 -123.5 -125t-178.5 -44zM149 1221v13l341 354h240l342 -354v-13h-302l-179 224h39l-179 -224h-302zM971 1526l-268 405v13h263l211 -405v-13h-206z" />
    <glyph glyph-name="uni1EA8" unicode="&#x1ea8;" 
d="M16 0l445 1432h282l441 -1432h-316l-221 885l-47 210h-7l-43 -210l-224 -885h-310zM220 276l76 241h592l82 -241h-750zM141 1544v13l341 354h240l342 -354v-13h-302l-179 224h39l-179 -224h-302zM919 1796l-23 171q121 9 121 81q0 75 -113 75q-75 0 -148 -22l-43 174
q90 33 197 33q129 0 206 -67t77 -178q0 -113 -72 -183t-202 -84z" />
    <glyph glyph-name="uni1EA9" unicode="&#x1ea9;" 
d="M463 -34q-103 0 -181.5 42t-122.5 117t-44 173v13q0 161 112.5 257.5t300.5 96.5q77 0 142.5 -13.5t121.5 -39.5v-175q-80 48 -185 48q-90 0 -138.5 -41t-48.5 -118v-14q0 -68 41.5 -105t116.5 -37q57 0 99.5 30.5t66.5 86t24 128.5v245q0 98 -50 147.5t-147 49.5
q-131 0 -245 -108l-156 167q170 170 440 170q221 0 336.5 -106t115.5 -307v-673h-288v135h-9q-45 -81 -123.5 -125t-178.5 -44zM149 1221v13l341 354h240l342 -354v-13h-302l-179 224h39l-179 -224h-302zM927 1473l-23 171q121 9 121 81q0 75 -113 75q-75 0 -148 -22
l-43 174q90 33 197 33q129 0 206 -67t77 -178q0 -113 -72 -183t-202 -84z" />
    <glyph glyph-name="uni1EAA" unicode="&#x1eaa;" 
d="M16 0l445 1432h282l441 -1432h-316l-221 885l-47 210h-7l-43 -210l-224 -885h-310zM220 276l76 241h592l82 -241h-750zM141 1544v13l341 354h240l342 -354v-13h-302l-179 224h39l-179 -224h-302zM809 2000q-52 0 -97 17.5t-95 51.5q-55 38 -86 53t-62 15q-65 0 -65 -78
v-56h-210v80q0 122 57 188t157 66q52 0 96 -17.5t93 -52.5q55 -38 85.5 -52.5t57.5 -14.5q61 0 61 77v57h210v-80q0 -125 -52 -189.5t-150 -64.5z" />
    <glyph glyph-name="uni1EAB" unicode="&#x1eab;" 
d="M463 -34q-103 0 -181.5 42t-122.5 117t-44 173v13q0 161 112.5 257.5t300.5 96.5q77 0 142.5 -13.5t121.5 -39.5v-175q-80 48 -185 48q-90 0 -138.5 -41t-48.5 -118v-14q0 -68 41.5 -105t116.5 -37q57 0 99.5 30.5t66.5 86t24 128.5v245q0 98 -50 147.5t-147 49.5
q-131 0 -245 -108l-156 167q170 170 440 170q221 0 336.5 -106t115.5 -307v-673h-288v135h-9q-45 -81 -123.5 -125t-178.5 -44zM149 1221v13l341 354h240l342 -354v-13h-302l-179 224h39l-179 -224h-302zM817 1677q-52 0 -97 17.5t-95 51.5q-55 38 -86 53t-62 15
q-65 0 -65 -78v-56h-210v80q0 122 57 188t157 66q52 0 96 -17.5t93 -52.5q55 -38 85.5 -52.5t57.5 -14.5q61 0 61 77v57h210v-80q0 -125 -52 -189.5t-150 -64.5z" />
    <glyph glyph-name="uni1EAC" unicode="&#x1eac;" 
d="M16 0l445 1432h282l441 -1432h-316l-221 885l-47 210h-7l-43 -210l-224 -885h-310zM220 276l76 241h592l82 -241h-750zM597 -528q-84 0 -142 57.5t-58 141.5q0 83 57.5 141t142.5 58q86 0 143 -58t57 -141q0 -84 -57 -141.5t-143 -57.5zM165 1638v14l290 364h294
l290 -364v-14h-296l-173 295h65l-174 -295h-296z" />
    <glyph glyph-name="uni1EAD" unicode="&#x1ead;" 
d="M463 -34q-103 0 -181.5 42t-122.5 117t-44 173v13q0 161 112.5 257.5t300.5 96.5q77 0 142.5 -13.5t121.5 -39.5v-175q-80 48 -185 48q-90 0 -138.5 -41t-48.5 -118v-14q0 -68 41.5 -105t116.5 -37q57 0 99.5 30.5t66.5 86t24 128.5v245q0 98 -50 147.5t-147 49.5
q-131 0 -245 -108l-156 167q170 170 440 170q221 0 336.5 -106t115.5 -307v-673h-288v135h-9q-45 -81 -123.5 -125t-178.5 -44zM602 -586q-84 0 -142 57.5t-58 141.5q0 83 57.5 141t142.5 58q86 0 143 -58t57 -141q0 -84 -57 -141.5t-143 -57.5zM173 1258v14l290 364h294
l290 -364v-14h-296l-173 295h65l-174 -295h-296z" />
    <glyph glyph-name="uni1EAE" unicode="&#x1eae;" 
d="M16 0l445 1432h282l441 -1432h-316l-221 885l-47 210h-7l-43 -210l-224 -885h-310zM220 276l76 241h592l82 -241h-750zM393 1589q-90 48 -140.5 133t-50.5 196v8h206v-11q0 -86 51.5 -137.5t142.5 -51.5q92 0 143.5 51.5t51.5 137.5v11h206v-8q0 -111 -50.5 -196
t-141 -133t-209.5 -48t-209 48zM486 1903v13l115 385h287v-14l-242 -384h-160z" />
    <glyph glyph-name="uni1EAF" unicode="&#x1eaf;" 
d="M463 -34q-103 0 -181.5 42t-122.5 117t-44 173v13q0 161 112.5 257.5t300.5 96.5q77 0 142.5 -13.5t121.5 -39.5v-175q-80 48 -185 48q-90 0 -138.5 -41t-48.5 -118v-14q0 -68 41.5 -105t116.5 -37q57 0 99.5 30.5t66.5 86t24 128.5v245q0 98 -50 147.5t-147 49.5
q-131 0 -245 -108l-156 167q170 170 440 170q221 0 336.5 -106t115.5 -307v-673h-288v135h-9q-45 -81 -123.5 -125t-178.5 -44zM401 1256q-90 48 -140.5 133t-50.5 196v8h206v-11q0 -86 51.5 -137.5t142.5 -51.5q92 0 143.5 51.5t51.5 137.5v11h206v-8q0 -111 -50.5 -196
t-141 -133t-209.5 -48t-209 48zM494 1570v13l115 385h287v-14l-242 -384h-160z" />
    <glyph glyph-name="uni1EB0" unicode="&#x1eb0;" 
d="M16 0l445 1432h282l441 -1432h-316l-221 885l-47 210h-7l-43 -210l-224 -885h-310zM220 276l76 241h592l82 -241h-750zM393 1589q-90 48 -140.5 133t-50.5 196v8h206v-11q0 -86 51.5 -137.5t142.5 -51.5q92 0 143.5 51.5t51.5 137.5v11h206v-8q0 -111 -50.5 -196
t-141 -133t-209.5 -48t-209 48zM560 1903l-261 384v14h282l147 -385v-13h-168z" />
    <glyph glyph-name="uni1EB1" unicode="&#x1eb1;" 
d="M463 -34q-103 0 -181.5 42t-122.5 117t-44 173v13q0 161 112.5 257.5t300.5 96.5q77 0 142.5 -13.5t121.5 -39.5v-175q-80 48 -185 48q-90 0 -138.5 -41t-48.5 -118v-14q0 -68 41.5 -105t116.5 -37q57 0 99.5 30.5t66.5 86t24 128.5v245q0 98 -50 147.5t-147 49.5
q-131 0 -245 -108l-156 167q170 170 440 170q221 0 336.5 -106t115.5 -307v-673h-288v135h-9q-45 -81 -123.5 -125t-178.5 -44zM401 1256q-90 48 -140.5 133t-50.5 196v8h206v-11q0 -86 51.5 -137.5t142.5 -51.5q92 0 143.5 51.5t51.5 137.5v11h206v-8q0 -111 -50.5 -196
t-141 -133t-209.5 -48t-209 48zM568 1570l-261 384v14h282l147 -385v-13h-168z" />
    <glyph glyph-name="uni1EB2" unicode="&#x1eb2;" 
d="M16 0l445 1432h282l441 -1432h-316l-221 885l-47 210h-7l-43 -210l-224 -885h-310zM220 276l76 241h592l82 -241h-750zM602 1541q-119 0 -212 48.5t-146 134.5t-53 197v9h202v-12q0 -90 53.5 -143t155.5 -53q103 0 156.5 53t53.5 143v12h201v-9q0 -111 -52.5 -197
t-145.5 -134.5t-213 -48.5zM532 1855l-18 160q128 9 128 80q0 72 -118 72q-76 0 -152 -22l-46 173q99 33 204 33q132 0 209.5 -64.5t77.5 -174.5q0 -106 -75.5 -174.5t-209.5 -82.5z" />
    <glyph glyph-name="uni1EB3" unicode="&#x1eb3;" 
d="M463 -34q-103 0 -181.5 42t-122.5 117t-44 173v13q0 161 112.5 257.5t300.5 96.5q77 0 142.5 -13.5t121.5 -39.5v-175q-80 48 -185 48q-90 0 -138.5 -41t-48.5 -118v-14q0 -68 41.5 -105t116.5 -37q57 0 99.5 30.5t66.5 86t24 128.5v245q0 98 -50 147.5t-147 49.5
q-131 0 -245 -108l-156 167q170 170 440 170q221 0 336.5 -106t115.5 -307v-673h-288v135h-9q-45 -81 -123.5 -125t-178.5 -44zM612 1208q-119 0 -212 48.5t-146 134.5t-53 197v9h202v-12q0 -90 53.5 -143t155.5 -53q103 0 156.5 53t53.5 143v12h201v-9q0 -111 -52.5 -197
t-145.5 -134.5t-213 -48.5zM542 1522l-18 160q128 9 128 80q0 72 -118 72q-76 0 -152 -22l-46 173q99 33 204 33q132 0 209.5 -64.5t77.5 -174.5q0 -106 -75.5 -174.5t-209.5 -82.5z" />
    <glyph glyph-name="uni1EB4" unicode="&#x1eb4;" 
d="M16 0l445 1432h282l441 -1432h-316l-221 885l-47 210h-7l-43 -210l-224 -885h-310zM220 276l76 241h592l82 -241h-750zM602 1541q-114 0 -200 46.5t-134 129t-48 190.5v8h211v-11q0 -83 46 -131.5t125.5 -48.5t125.5 48.5t46 131.5v11h211v-8q0 -108 -48 -190.5
t-134 -129t-201 -46.5zM813 2017q-53 0 -99 18t-97 53q-57 40 -88 55t-63 15q-31 0 -48.5 -18.5t-17.5 -53.5v-65h-210v91q0 119 57 183t157 64q53 0 98.5 -19t94.5 -54q57 -40 88 -54.5t59 -14.5q61 0 61 71v67h210v-91q0 -121 -52 -184t-150 -63z" />
    <glyph glyph-name="uni1EB5" unicode="&#x1eb5;" 
d="M463 -34q-103 0 -181.5 42t-122.5 117t-44 173v13q0 161 112.5 257.5t300.5 96.5q77 0 142.5 -13.5t121.5 -39.5v-175q-80 48 -185 48q-90 0 -138.5 -41t-48.5 -118v-14q0 -68 41.5 -105t116.5 -37q57 0 99.5 30.5t66.5 86t24 128.5v245q0 98 -50 147.5t-147 49.5
q-131 0 -245 -108l-156 167q170 170 440 170q221 0 336.5 -106t115.5 -307v-673h-288v135h-9q-45 -81 -123.5 -125t-178.5 -44zM612 1208q-114 0 -200 46.5t-134 129t-48 190.5v8h211v-11q0 -83 46 -131.5t125.5 -48.5t125.5 48.5t46 131.5v11h211v-8q0 -108 -48 -190.5
t-134 -129t-201 -46.5zM823 1684q-53 0 -99 18t-97 53q-57 40 -88 55t-63 15q-31 0 -48.5 -18.5t-17.5 -53.5v-65h-210v91q0 119 57 183t157 64q53 0 98.5 -19t94.5 -54q57 -40 88 -54.5t59 -14.5q61 0 61 71v67h210v-91q0 -121 -52 -184t-150 -63z" />
    <glyph glyph-name="uni1EB6" unicode="&#x1eb6;" 
d="M16 0l445 1432h282l441 -1432h-316l-221 885l-47 210h-7l-43 -210l-224 -885h-310zM220 276l76 241h592l82 -241h-750zM597 -528q-84 0 -142 57.5t-58 141.5q0 83 57.5 141t142.5 58q86 0 143 -58t57 -141q0 -84 -57 -141.5t-143 -57.5zM400.5 1674.5
q-86.5 47.5 -135 132.5t-48.5 197v12h224v-18q0 -78 43 -122.5t118 -44.5t118 44.5t43 122.5v18h224v-12q0 -112 -48.5 -197t-135 -132.5t-201.5 -47.5t-201.5 47.5z" />
    <glyph glyph-name="uni1EB7" unicode="&#x1eb7;" 
d="M463 -34q-103 0 -181.5 42t-122.5 117t-44 173v13q0 161 112.5 257.5t300.5 96.5q77 0 142.5 -13.5t121.5 -39.5v-175q-80 48 -185 48q-90 0 -138.5 -41t-48.5 -118v-14q0 -68 41.5 -105t116.5 -37q57 0 99.5 30.5t66.5 86t24 128.5v245q0 98 -50 147.5t-147 49.5
q-131 0 -245 -108l-156 167q170 170 440 170q221 0 336.5 -106t115.5 -307v-673h-288v135h-9q-45 -81 -123.5 -125t-178.5 -44zM602 -586q-84 0 -142 57.5t-58 141.5q0 83 57.5 141t142.5 58q86 0 143 -58t57 -141q0 -84 -57 -141.5t-143 -57.5zM408.5 1294.5
q-86.5 47.5 -135 132.5t-48.5 197v12h224v-18q0 -78 43 -122.5t118 -44.5t118 44.5t43 122.5v18h224v-12q0 -112 -48.5 -197t-135 -132.5t-201.5 -47.5t-201.5 47.5z" />
    <glyph glyph-name="uni1EB8" unicode="&#x1eb8;" 
d="M144 0v1432h890v-286h-584v-860h600v-286h-906zM333 589v284h621v-284h-621zM597 -552q-84 0 -142 57.5t-58 141.5q0 83 57.5 141t142.5 58q86 0 143 -58t57 -141q0 -84 -57 -141.5t-143 -57.5z" />
    <glyph glyph-name="uni1EB9" unicode="&#x1eb9;" 
d="M631 -34q-165 0 -287 68t-189 191.5t-67 289.5v22q0 165 67.5 288.5t188.5 192t281 68.5q144 0 251 -60t166.5 -169.5t59.5 -256.5q0 -43 -3 -79.5t-10 -65.5h-844v176h581v-6q0 104 -53 162.5t-146 58.5q-116 0 -183.5 -83.5t-67.5 -229.5v-14q0 -143 68.5 -226
t186.5 -83q145 0 207 142l257 -107q-60 -134 -180 -206.5t-284 -72.5zM631 -586q-84 0 -142 57.5t-58 141.5q0 83 57.5 141t142.5 58q86 0 143 -58t57 -141q0 -84 -57 -141.5t-143 -57.5z" />
    <glyph glyph-name="uni1EBA" unicode="&#x1eba;" 
d="M144 0v1432h890v-286h-584v-860h600v-286h-906zM333 589v284h621v-284h-621zM558 1545l-29 198q86 6 127.5 29.5t41.5 69.5q0 84 -118 84q-90 0 -186 -33l-57 195q58 26 122 40t126 14q147 0 235 -77t88 -205q0 -136 -90.5 -217.5t-259.5 -97.5z" />
    <glyph glyph-name="uni1EBB" unicode="&#x1ebb;" 
d="M631 -34q-165 0 -287 68t-189 191.5t-67 289.5v22q0 165 67.5 288.5t188.5 192t281 68.5q144 0 251 -60t166.5 -169.5t59.5 -256.5q0 -43 -3 -79.5t-10 -65.5h-844v176h581v-6q0 104 -53 162.5t-146 58.5q-116 0 -183.5 -83.5t-67.5 -229.5v-14q0 -143 68.5 -226
t186.5 -83q145 0 207 142l257 -107q-60 -134 -180 -206.5t-284 -72.5zM595 1165l-29 198q86 6 127.5 29.5t41.5 69.5q0 84 -118 84q-90 0 -186 -33l-57 195q58 26 122 40t126 14q147 0 235 -77t88 -205q0 -136 -90.5 -217.5t-259.5 -97.5z" />
    <glyph glyph-name="uni1EBC" unicode="&#x1ebc;" 
d="M144 0v1432h890v-286h-584v-860h600v-286h-906zM333 589v284h621v-284h-621zM768 1639q-49 0 -96.5 21.5t-99.5 70.5q-38 36 -61 52t-45 16q-56 0 -56 -74v-83h-216v91q0 138 59 212t170 74q48 0 91 -20.5t93 -70.5q38 -37 61.5 -53t46.5 -16q53 0 53 73v84h217v-90
q0 -139 -53.5 -213t-163.5 -74z" />
    <glyph glyph-name="uni1EBD" unicode="&#x1ebd;" 
d="M631 -34q-165 0 -287 68t-189 191.5t-67 289.5v22q0 165 67.5 288.5t188.5 192t281 68.5q144 0 251 -60t166.5 -169.5t59.5 -256.5q0 -43 -3 -79.5t-10 -65.5h-844v176h581v-6q0 104 -53 162.5t-146 58.5q-116 0 -183.5 -83.5t-67.5 -229.5v-14q0 -143 68.5 -226
t186.5 -83q145 0 207 142l257 -107q-60 -134 -180 -206.5t-284 -72.5zM805 1259q-49 0 -96.5 21.5t-99.5 70.5q-38 36 -61 52t-45 16q-56 0 -56 -74v-83h-216v91q0 138 59 212t170 74q48 0 91 -20.5t93 -70.5q38 -37 61.5 -53t46.5 -16q53 0 53 73v84h217v-90
q0 -139 -53.5 -213t-163.5 -74z" />
    <glyph glyph-name="uni1EBE" unicode="&#x1ebe;" 
d="M144 0v1432h890v-286h-584v-860h600v-286h-906zM333 589v284h621v-284h-621zM128 1544v13l341 354h240l342 -354v-13h-302l-179 224h39l-179 -224h-302zM820 1851v13l152 405h256v-13l-223 -405h-185z" />
    <glyph glyph-name="uni1EBF" unicode="&#x1ebf;" 
d="M631 -34q-165 0 -287 68t-189 191.5t-67 289.5v22q0 165 67.5 288.5t188.5 192t281 68.5q144 0 251 -60t166.5 -169.5t59.5 -256.5q0 -43 -3 -79.5t-10 -65.5h-844v176h581v-6q0 104 -53 162.5t-146 58.5q-116 0 -183.5 -83.5t-67.5 -229.5v-14q0 -143 68.5 -226
t186.5 -83q145 0 207 142l257 -107q-60 -134 -180 -206.5t-284 -72.5zM165 1221v13l341 354h240l342 -354v-13h-302l-179 224h39l-179 -224h-302zM857 1528v13l152 405h256v-13l-223 -405h-185z" />
    <glyph glyph-name="uni1EC0" unicode="&#x1ec0;" 
d="M144 0v1432h890v-286h-584v-860h600v-286h-906zM333 589v284h621v-284h-621zM128 1544v13l341 354h240l342 -354v-13h-302l-179 224h39l-179 -224h-302zM950 1849l-268 405v13h263l211 -405v-13h-206z" />
    <glyph glyph-name="uni1EC1" unicode="&#x1ec1;" 
d="M631 -34q-165 0 -287 68t-189 191.5t-67 289.5v22q0 165 67.5 288.5t188.5 192t281 68.5q144 0 251 -60t166.5 -169.5t59.5 -256.5q0 -43 -3 -79.5t-10 -65.5h-844v176h581v-6q0 104 -53 162.5t-146 58.5q-116 0 -183.5 -83.5t-67.5 -229.5v-14q0 -143 68.5 -226
t186.5 -83q145 0 207 142l257 -107q-60 -134 -180 -206.5t-284 -72.5zM165 1221v13l341 354h240l342 -354v-13h-302l-179 224h39l-179 -224h-302zM987 1526l-268 405v13h263l211 -405v-13h-206z" />
    <glyph glyph-name="uni1EC2" unicode="&#x1ec2;" 
d="M144 0v1432h890v-286h-584v-860h600v-286h-906zM333 589v284h621v-284h-621zM128 1544v13l341 354h240l342 -354v-13h-302l-179 224h39l-179 -224h-302zM906 1796l-23 171q121 9 121 81q0 75 -113 75q-75 0 -148 -22l-43 174q90 33 197 33q129 0 206 -67t77 -178
q0 -113 -72 -183t-202 -84z" />
    <glyph glyph-name="uni1EC3" unicode="&#x1ec3;" 
d="M631 -34q-165 0 -287 68t-189 191.5t-67 289.5v22q0 165 67.5 288.5t188.5 192t281 68.5q144 0 251 -60t166.5 -169.5t59.5 -256.5q0 -43 -3 -79.5t-10 -65.5h-844v176h581v-6q0 104 -53 162.5t-146 58.5q-116 0 -183.5 -83.5t-67.5 -229.5v-14q0 -143 68.5 -226
t186.5 -83q145 0 207 142l257 -107q-60 -134 -180 -206.5t-284 -72.5zM166 1221v13l341 354h240l342 -354v-13h-302l-179 224h39l-179 -224h-302zM944 1473l-23 171q121 9 121 81q0 75 -113 75q-75 0 -148 -22l-43 174q90 33 197 33q129 0 206 -67t77 -178q0 -113 -72 -183
t-202 -84z" />
    <glyph glyph-name="uni1EC4" unicode="&#x1ec4;" 
d="M144 0v1432h890v-286h-584v-860h600v-286h-906zM333 589v284h621v-284h-621zM128 1544v13l341 354h240l342 -354v-13h-302l-179 224h39l-179 -224h-302zM796 2000q-52 0 -97 17.5t-95 51.5q-55 38 -86 53t-62 15q-65 0 -65 -78v-56h-210v80q0 122 57 188t157 66
q52 0 96 -17.5t93 -52.5q55 -38 85.5 -52.5t57.5 -14.5q61 0 61 77v57h210v-80q0 -125 -52 -189.5t-150 -64.5z" />
    <glyph glyph-name="uni1EC5" unicode="&#x1ec5;" 
d="M631 -34q-165 0 -287 68t-189 191.5t-67 289.5v22q0 165 67.5 288.5t188.5 192t281 68.5q144 0 251 -60t166.5 -169.5t59.5 -256.5q0 -43 -3 -79.5t-10 -65.5h-844v176h581v-6q0 104 -53 162.5t-146 58.5q-116 0 -183.5 -83.5t-67.5 -229.5v-14q0 -143 68.5 -226
t186.5 -83q145 0 207 142l257 -107q-60 -134 -180 -206.5t-284 -72.5zM166 1221v13l341 354h240l342 -354v-13h-302l-179 224h39l-179 -224h-302zM834 1677q-52 0 -97 17.5t-95 51.5q-55 38 -86 53t-62 15q-65 0 -65 -78v-56h-210v80q0 122 57 188t157 66q52 0 96 -17.5
t93 -52.5q55 -38 85.5 -52.5t57.5 -14.5q61 0 61 77v57h210v-80q0 -125 -52 -189.5t-150 -64.5z" />
    <glyph glyph-name="uni1EC6" unicode="&#x1ec6;" 
d="M144 0v1432h890v-286h-584v-860h600v-286h-906zM333 589v284h621v-284h-621zM597 -552q-84 0 -142 57.5t-58 141.5q0 83 57.5 141t142.5 58q86 0 143 -58t57 -141q0 -84 -57 -141.5t-143 -57.5zM152 1638v14l290 364h294l290 -364v-14h-296l-173 295h65l-174 -295h-296z
" />
    <glyph glyph-name="uni1EC7" unicode="&#x1ec7;" 
d="M631 -34q-165 0 -287 68t-189 191.5t-67 289.5v22q0 165 67.5 288.5t188.5 192t281 68.5q144 0 251 -60t166.5 -169.5t59.5 -256.5q0 -43 -3 -79.5t-10 -65.5h-844v176h581v-6q0 104 -53 162.5t-146 58.5q-116 0 -183.5 -83.5t-67.5 -229.5v-14q0 -143 68.5 -226
t186.5 -83q145 0 207 142l257 -107q-60 -134 -180 -206.5t-284 -72.5zM631 -586q-84 0 -142 57.5t-58 141.5q0 83 57.5 141t142.5 58q86 0 143 -58t57 -141q0 -84 -57 -141.5t-143 -57.5zM189 1258v14l290 364h294l290 -364v-14h-296l-173 295h65l-174 -295h-296z" />
    <glyph glyph-name="uni1EC8" unicode="&#x1ec8;" 
d="M445 139v1154h310v-1154h-310zM142 0v289h916v-289h-916zM142 1144v288h916v-288h-916zM569 1545l-29 198q86 6 127.5 29.5t41.5 69.5q0 84 -118 84q-90 0 -186 -33l-57 195q58 26 122 40t126 14q147 0 235 -77t88 -205q0 -136 -90.5 -217.5t-259.5 -97.5z" />
    <glyph glyph-name="uni1EC9" unicode="&#x1ec9;" 
d="M505 0v1052h296v-1052h-296zM167 0v225h947v-225h-947zM187 826v226h574v-226h-574zM558 1165l-29 198q86 6 127.5 29.5t41.5 69.5q0 84 -118 84q-90 0 -186 -33l-57 195q58 26 122 40t126 14q147 0 235 -77t88 -205q0 -136 -90.5 -217.5t-259.5 -97.5z" />
    <glyph glyph-name="uni1ECA" unicode="&#x1eca;" 
d="M445 139v1154h310v-1154h-310zM142 0v289h916v-289h-916zM142 1144v288h916v-288h-916zM600 -552q-84 0 -142 57.5t-58 141.5q0 83 57.5 141t142.5 58q86 0 143 -58t57 -141q0 -84 -57 -141.5t-143 -57.5z" />
    <glyph glyph-name="uni1ECB" unicode="&#x1ecb;" 
d="M505 80v972h296v-972h-296zM167 0v225h947v-225h-947zM187 826v226h574v-226h-574zM622 1246q-82 0 -140 56.5t-58 137.5q0 84 58 138.5t140 54.5q85 0 140.5 -54.5t55.5 -138.5q0 -81 -55.5 -137.5t-140.5 -56.5zM653 -552q-84 0 -142 57.5t-58 141.5q0 83 57.5 141
t142.5 58q86 0 143 -58t57 -141q0 -84 -57 -141.5t-143 -57.5z" />
    <glyph glyph-name="uni1ECC" unicode="&#x1ecc;" 
d="M308 53q-122 87 -187 250.5t-65 390.5v44q0 228 65 391t187 250t292 87t292 -87t187 -250t65 -391v-44q0 -227 -65 -390.5t-187 -250.5t-292 -87t-292 87zM771.5 367q58.5 111 58.5 322v54q0 212 -58.5 322.5t-171 110.5t-171.5 -110.5t-59 -322.5v-54q0 -211 59 -322
t171.5 -111t171 111zM600 -586q-84 0 -142 57.5t-58 141.5q0 83 57.5 141t142.5 58q86 0 143 -58t57 -141q0 -84 -57 -141.5t-143 -57.5z" />
    <glyph glyph-name="uni1ECD" unicode="&#x1ecd;" 
d="M329 36.5q-118 70.5 -184.5 194.5t-66.5 284v22q0 160 66.5 284t184.5 194.5t271 70.5t270.5 -70.5t184.5 -194.5t67 -284v-22q0 -160 -67 -284t-184.5 -194.5t-270.5 -70.5t-271 70.5zM761.5 310q60.5 78 60.5 209v14q0 131 -60.5 209t-161.5 78t-161.5 -78t-60.5 -209
v-14q0 -131 60.5 -209t161.5 -78t161.5 78zM600 -586q-84 0 -142 57.5t-58 141.5q0 83 57.5 141t142.5 58q86 0 143 -58t57 -141q0 -84 -57 -141.5t-143 -57.5z" />
    <glyph glyph-name="uni1ECE" unicode="&#x1ece;" 
d="M308 53q-122 87 -187 250.5t-65 390.5v44q0 228 65 391t187 250t292 87t292 -87t187 -250t65 -391v-44q0 -227 -65 -390.5t-187 -250.5t-292 -87t-292 87zM771.5 367q58.5 111 58.5 322v54q0 212 -58.5 322.5t-171 110.5t-171.5 -110.5t-59 -322.5v-54q0 -211 59 -322
t171.5 -111t171 111zM569 1545l-29 198q86 6 127.5 29.5t41.5 69.5q0 84 -118 84q-90 0 -186 -33l-57 195q58 26 122 40t126 14q147 0 235 -77t88 -205q0 -136 -90.5 -217.5t-259.5 -97.5z" />
    <glyph glyph-name="uni1ECF" unicode="&#x1ecf;" 
d="M329 36.5q-118 70.5 -184.5 194.5t-66.5 284v22q0 160 66.5 284t184.5 194.5t271 70.5t270.5 -70.5t184.5 -194.5t67 -284v-22q0 -160 -67 -284t-184.5 -194.5t-270.5 -70.5t-271 70.5zM761.5 310q60.5 78 60.5 209v14q0 131 -60.5 209t-161.5 78t-161.5 -78t-60.5 -209
v-14q0 -131 60.5 -209t161.5 -78t161.5 78zM569 1165l-29 198q86 6 127.5 29.5t41.5 69.5q0 84 -118 84q-90 0 -186 -33l-57 195q58 26 122 40t126 14q147 0 235 -77t88 -205q0 -136 -90.5 -217.5t-259.5 -97.5z" />
    <glyph glyph-name="uni1ED0" unicode="&#x1ed0;" 
d="M308 53q-122 87 -187 250.5t-65 390.5v44q0 228 65 391t187 250t292 87t292 -87t187 -250t65 -391v-44q0 -227 -65 -390.5t-187 -250.5t-292 -87t-292 87zM771.5 367q58.5 111 58.5 322v54q0 212 -58.5 322.5t-171 110.5t-171.5 -110.5t-59 -322.5v-54q0 -211 59 -322
t171.5 -111t171 111zM139 1544v13l341 354h240l342 -354v-13h-302l-179 224h39l-179 -224h-302zM831 1851v13l152 405h256v-13l-223 -405h-185z" />
    <glyph glyph-name="uni1ED1" unicode="&#x1ed1;" 
d="M329 36.5q-118 70.5 -184.5 194.5t-66.5 284v22q0 160 66.5 284t184.5 194.5t271 70.5t270.5 -70.5t184.5 -194.5t67 -284v-22q0 -160 -67 -284t-184.5 -194.5t-270.5 -70.5t-271 70.5zM761.5 310q60.5 78 60.5 209v14q0 131 -60.5 209t-161.5 78t-161.5 -78t-60.5 -209
v-14q0 -131 60.5 -209t161.5 -78t161.5 78zM139 1221v13l341 354h240l342 -354v-13h-302l-179 224h39l-179 -224h-302zM831 1528v13l152 405h256v-13l-223 -405h-185z" />
    <glyph glyph-name="uni1ED2" unicode="&#x1ed2;" 
d="M308 53q-122 87 -187 250.5t-65 390.5v44q0 228 65 391t187 250t292 87t292 -87t187 -250t65 -391v-44q0 -227 -65 -390.5t-187 -250.5t-292 -87t-292 87zM771.5 367q58.5 111 58.5 322v54q0 212 -58.5 322.5t-171 110.5t-171.5 -110.5t-59 -322.5v-54q0 -211 59 -322
t171.5 -111t171 111zM139 1544v13l341 354h240l342 -354v-13h-302l-179 224h39l-179 -224h-302zM961 1849l-268 405v13h263l211 -405v-13h-206z" />
    <glyph glyph-name="uni1ED3" unicode="&#x1ed3;" 
d="M329 36.5q-118 70.5 -184.5 194.5t-66.5 284v22q0 160 66.5 284t184.5 194.5t271 70.5t270.5 -70.5t184.5 -194.5t67 -284v-22q0 -160 -67 -284t-184.5 -194.5t-270.5 -70.5t-271 70.5zM761.5 310q60.5 78 60.5 209v14q0 131 -60.5 209t-161.5 78t-161.5 -78t-60.5 -209
v-14q0 -131 60.5 -209t161.5 -78t161.5 78zM139 1221v13l341 354h240l342 -354v-13h-302l-179 224h39l-179 -224h-302zM961 1526l-268 405v13h263l211 -405v-13h-206z" />
    <glyph glyph-name="uni1ED4" unicode="&#x1ed4;" 
d="M308 53q-122 87 -187 250.5t-65 390.5v44q0 228 65 391t187 250t292 87t292 -87t187 -250t65 -391v-44q0 -227 -65 -390.5t-187 -250.5t-292 -87t-292 87zM771.5 367q58.5 111 58.5 322v54q0 212 -58.5 322.5t-171 110.5t-171.5 -110.5t-59 -322.5v-54q0 -211 59 -322
t171.5 -111t171 111zM139 1544v13l341 354h240l342 -354v-13h-302l-179 224h39l-179 -224h-302zM917 1796l-23 171q121 9 121 81q0 75 -113 75q-75 0 -148 -22l-43 174q90 33 197 33q129 0 206 -67t77 -178q0 -113 -72 -183t-202 -84z" />
    <glyph glyph-name="uni1ED5" unicode="&#x1ed5;" 
d="M329 36.5q-118 70.5 -184.5 194.5t-66.5 284v22q0 160 66.5 284t184.5 194.5t271 70.5t270.5 -70.5t184.5 -194.5t67 -284v-22q0 -160 -67 -284t-184.5 -194.5t-270.5 -70.5t-271 70.5zM761.5 310q60.5 78 60.5 209v14q0 131 -60.5 209t-161.5 78t-161.5 -78t-60.5 -209
v-14q0 -131 60.5 -209t161.5 -78t161.5 78zM139 1221v13l341 354h240l342 -354v-13h-302l-179 224h39l-179 -224h-302zM917 1473l-23 171q121 9 121 81q0 75 -113 75q-75 0 -148 -22l-43 174q90 33 197 33q129 0 206 -67t77 -178q0 -113 -72 -183t-202 -84z" />
    <glyph glyph-name="uni1ED6" unicode="&#x1ed6;" 
d="M308 53q-122 87 -187 250.5t-65 390.5v44q0 228 65 391t187 250t292 87t292 -87t187 -250t65 -391v-44q0 -227 -65 -390.5t-187 -250.5t-292 -87t-292 87zM771.5 367q58.5 111 58.5 322v54q0 212 -58.5 322.5t-171 110.5t-171.5 -110.5t-59 -322.5v-54q0 -211 59 -322
t171.5 -111t171 111zM139 1544v13l341 354h240l342 -354v-13h-302l-179 224h39l-179 -224h-302zM807 2000q-52 0 -97 17.5t-95 51.5q-55 38 -86 53t-62 15q-65 0 -65 -78v-56h-210v80q0 122 57 188t157 66q52 0 96 -17.5t93 -52.5q55 -38 85.5 -52.5t57.5 -14.5q61 0 61 77
v57h210v-80q0 -125 -52 -189.5t-150 -64.5z" />
    <glyph glyph-name="uni1ED7" unicode="&#x1ed7;" 
d="M329 36.5q-118 70.5 -184.5 194.5t-66.5 284v22q0 160 66.5 284t184.5 194.5t271 70.5t270.5 -70.5t184.5 -194.5t67 -284v-22q0 -160 -67 -284t-184.5 -194.5t-270.5 -70.5t-271 70.5zM761.5 310q60.5 78 60.5 209v14q0 131 -60.5 209t-161.5 78t-161.5 -78t-60.5 -209
v-14q0 -131 60.5 -209t161.5 -78t161.5 78zM139 1221v13l341 354h240l342 -354v-13h-302l-179 224h39l-179 -224h-302zM807 1677q-52 0 -97 17.5t-95 51.5q-55 38 -86 53t-62 15q-65 0 -65 -78v-56h-210v80q0 122 57 188t157 66q52 0 96 -17.5t93 -52.5q55 -38 85.5 -52.5
t57.5 -14.5q61 0 61 77v57h210v-80q0 -125 -52 -189.5t-150 -64.5z" />
    <glyph glyph-name="uni1ED8" unicode="&#x1ed8;" 
d="M308 53q-122 87 -187 250.5t-65 390.5v44q0 228 65 391t187 250t292 87t292 -87t187 -250t65 -391v-44q0 -227 -65 -390.5t-187 -250.5t-292 -87t-292 87zM771.5 367q58.5 111 58.5 322v54q0 212 -58.5 322.5t-171 110.5t-171.5 -110.5t-59 -322.5v-54q0 -211 59 -322
t171.5 -111t171 111zM600 -586q-84 0 -142 57.5t-58 141.5q0 83 57.5 141t142.5 58q86 0 143 -58t57 -141q0 -84 -57 -141.5t-143 -57.5zM163 1638v14l290 364h294l290 -364v-14h-296l-173 295h65l-174 -295h-296z" />
    <glyph glyph-name="uni1ED9" unicode="&#x1ed9;" 
d="M329 36.5q-118 70.5 -184.5 194.5t-66.5 284v22q0 160 66.5 284t184.5 194.5t271 70.5t270.5 -70.5t184.5 -194.5t67 -284v-22q0 -160 -67 -284t-184.5 -194.5t-270.5 -70.5t-271 70.5zM761.5 310q60.5 78 60.5 209v14q0 131 -60.5 209t-161.5 78t-161.5 -78t-60.5 -209
v-14q0 -131 60.5 -209t161.5 -78t161.5 78zM600 -586q-84 0 -142 57.5t-58 141.5q0 83 57.5 141t142.5 58q86 0 143 -58t57 -141q0 -84 -57 -141.5t-143 -57.5zM163 1258v14l290 364h294l290 -364v-14h-296l-173 295h65l-174 -295h-296z" />
    <glyph glyph-name="uni1EDA" unicode="&#x1eda;" 
d="M596 -34q-168 0 -288.5 87.5t-185.5 250.5t-65 390v44q0 228 65 391t188.5 250t297.5 87q64 0 113.5 -10t87.5 -10q96 0 96 97q0 35 -6.5 69t-17.5 72l299 69q27 -84 27 -163q0 -124 -97.5 -199t-271.5 -75h-89l21 84q182 -64 274 -229.5t92 -432.5v-44q0 -227 -65 -390
t-185.5 -250.5t-289.5 -87.5zM596 261q113 0 171.5 109t58.5 319v70q0 209 -53 316t-165 107q-118 0 -180 -112t-62 -327v-54q0 -210 59 -319t171 -109zM443 1657v14l208 364h348v-13l-290 -365h-266z" />
    <glyph glyph-name="uni1EDB" unicode="&#x1edb;" 
d="M583 -34q-159 0 -274.5 69t-177.5 192.5t-62 287.5v22q0 165 62 288.5t177.5 192t274.5 68.5q62 0 106 -6.5t87 -6.5q115 0 115 106q0 58 -24 118l290 74q12 -37 18.5 -73.5t6.5 -74.5q0 -130 -98.5 -202.5t-276.5 -72.5h-84l38 84q162 -52 249 -182.5t87 -312.5v-22
q0 -167 -63.5 -290.5t-178.5 -191t-272 -67.5zM583 232q102 0 158 76t56 211v14q0 139 -56 216.5t-158 77.5q-103 0 -158.5 -77.5t-55.5 -216.5v-14q0 -135 55.5 -211t158.5 -76zM435 1277v14l208 364h348v-13l-290 -365h-266z" />
    <glyph glyph-name="uni1EDC" unicode="&#x1edc;" 
d="M596 -34q-168 0 -288.5 87.5t-185.5 250.5t-65 390v44q0 228 65 391t188.5 250t297.5 87q64 0 113.5 -10t87.5 -10q96 0 96 97q0 35 -6.5 69t-17.5 72l299 69q27 -84 27 -163q0 -124 -97.5 -199t-271.5 -75h-89l21 84q182 -64 274 -229.5t92 -432.5v-44q0 -227 -65 -390
t-185.5 -250.5t-289.5 -87.5zM596 261q113 0 171.5 109t58.5 319v70q0 209 -53 316t-165 107q-118 0 -180 -112t-62 -327v-54q0 -210 59 -319t171 -109zM459 1657l-289 365v13h348l207 -364v-14h-266z" />
    <glyph glyph-name="uni1EDD" unicode="&#x1edd;" 
d="M583 -34q-159 0 -274.5 69t-177.5 192.5t-62 287.5v22q0 165 62 288.5t177.5 192t274.5 68.5q62 0 106 -6.5t87 -6.5q115 0 115 106q0 58 -24 118l290 74q12 -37 18.5 -73.5t6.5 -74.5q0 -130 -98.5 -202.5t-276.5 -72.5h-84l38 84q162 -52 249 -182.5t87 -312.5v-22
q0 -167 -63.5 -290.5t-178.5 -191t-272 -67.5zM583 232q102 0 158 76t56 211v14q0 139 -56 216.5t-158 77.5q-103 0 -158.5 -77.5t-55.5 -216.5v-14q0 -135 55.5 -211t158.5 -76zM491 1277l-289 365v13h348l207 -364v-14h-266z" />
    <glyph glyph-name="uni1EDE" unicode="&#x1ede;" 
d="M596 -34q-168 0 -288.5 87.5t-185.5 250.5t-65 390v44q0 228 65 391t188.5 250t297.5 87q64 0 113.5 -10t87.5 -10q96 0 96 97q0 35 -6.5 69t-17.5 72l299 69q27 -84 27 -163q0 -124 -97.5 -199t-271.5 -75h-89l21 84q182 -64 274 -229.5t92 -432.5v-44q0 -227 -65 -390
t-185.5 -250.5t-289.5 -87.5zM596 261q113 0 171.5 109t58.5 319v70q0 209 -53 316t-165 107q-118 0 -180 -112t-62 -327v-54q0 -210 59 -319t171 -109zM506 1580l-29 198q86 6 127.5 29.5t41.5 69.5q0 84 -118 84q-90 0 -186 -33l-57 195q58 26 122 40t126 14
q147 0 235 -77t88 -205q0 -136 -90.5 -217.5t-259.5 -97.5z" />
    <glyph glyph-name="uni1EDF" unicode="&#x1edf;" 
d="M583 -34q-159 0 -274.5 69t-177.5 192.5t-62 287.5v22q0 165 62 288.5t177.5 192t274.5 68.5q62 0 106 -6.5t87 -6.5q115 0 115 106q0 58 -24 118l290 74q12 -37 18.5 -73.5t6.5 -74.5q0 -130 -98.5 -202.5t-276.5 -72.5h-84l38 84q162 -52 249 -182.5t87 -312.5v-22
q0 -167 -63.5 -290.5t-178.5 -191t-272 -67.5zM583 232q102 0 158 76t56 211v14q0 139 -56 216.5t-158 77.5q-103 0 -158.5 -77.5t-55.5 -216.5v-14q0 -135 55.5 -211t158.5 -76zM505 1192l-29 198q86 6 127.5 29.5t41.5 69.5q0 84 -118 84q-90 0 -186 -33l-57 195
q58 26 122 40t126 14q147 0 235 -77t88 -205q0 -136 -90.5 -217.5t-259.5 -97.5z" />
    <glyph glyph-name="uni1EE0" unicode="&#x1ee0;" 
d="M596 -34q-168 0 -288.5 87.5t-185.5 250.5t-65 390v44q0 228 65 391t188.5 250t297.5 87q64 0 113.5 -10t87.5 -10q96 0 96 97q0 35 -6.5 69t-17.5 72l299 69q27 -84 27 -163q0 -124 -97.5 -199t-271.5 -75h-89l21 84q182 -64 274 -229.5t92 -432.5v-44q0 -227 -65 -390
t-185.5 -250.5t-289.5 -87.5zM596 261q113 0 171.5 109t58.5 319v70q0 209 -53 316t-165 107q-118 0 -180 -112t-62 -327v-54q0 -210 59 -319t171 -109zM769 1704q-49 0 -96.5 21.5t-99.5 70.5q-38 36 -61 52t-45 16q-56 0 -56 -74v-83h-216v91q0 138 59 212t170 74
q48 0 91 -20.5t93 -70.5q38 -37 61.5 -53t46.5 -16q53 0 53 73v84h217v-90q0 -139 -53.5 -213t-163.5 -74z" />
    <glyph glyph-name="uni1EE1" unicode="&#x1ee1;" 
d="M583 -34q-159 0 -274.5 69t-177.5 192.5t-62 287.5v22q0 165 62 288.5t177.5 192t274.5 68.5q62 0 106 -6.5t87 -6.5q115 0 115 106q0 58 -24 118l290 74q12 -37 18.5 -73.5t6.5 -74.5q0 -130 -98.5 -202.5t-276.5 -72.5h-84l38 84q162 -52 249 -182.5t87 -312.5v-22
q0 -167 -63.5 -290.5t-178.5 -191t-272 -67.5zM583 232q102 0 158 76t56 211v14q0 139 -56 216.5t-158 77.5q-103 0 -158.5 -77.5t-55.5 -216.5v-14q0 -135 55.5 -211t158.5 -76zM771 1323q-49 0 -96.5 21.5t-99.5 70.5q-38 36 -61 52t-45 16q-56 0 -56 -74v-83h-216v91
q0 138 59 212t170 74q48 0 91 -20.5t93 -70.5q38 -37 61.5 -53t46.5 -16q53 0 53 73v84h217v-90q0 -139 -53.5 -213t-163.5 -74z" />
    <glyph glyph-name="uni1EE2" unicode="&#x1ee2;" 
d="M596 -34q-168 0 -288.5 87.5t-185.5 250.5t-65 390v44q0 229 65.5 391.5t189 249.5t296.5 87q56 0 97.5 -7t87.5 -7q65 0 99.5 29t34.5 83q0 36 -13.5 69t-46.5 75l235 149q97 -125 97 -261q0 -130 -97.5 -205t-264.5 -75h-87l26 93q182 -80 271 -242.5t89 -428.5v-44
q0 -227 -65 -390t-185.5 -250.5t-289.5 -87.5zM596 256q113 0 171.5 110.5t58.5 322.5v70q0 209 -53 316t-165 107q-118 0 -180 -112t-62 -327v-54q0 -212 59 -322.5t171 -110.5zM596 -586q-84 0 -142 57.5t-58 141.5q0 83 57.5 141t142.5 58q86 0 143 -58t57 -141
q0 -84 -57 -141.5t-143 -57.5z" />
    <glyph glyph-name="uni1EE3" unicode="&#x1ee3;" 
d="M592 -34q-159 0 -274.5 69t-177.5 192.5t-62 287.5v22q0 165 62 288.5t177.5 192t274.5 68.5q64 0 111 -7.5t90 -7.5q126 0 126 107q0 35 -12 67t-40 76l245 130q79 -116 79 -236q0 -126 -95.5 -200t-258.5 -74h-90l25 93q161 -52 247.5 -181t86.5 -316v-22
q0 -167 -63.5 -290.5t-178.5 -191t-272 -67.5zM592 232q103 0 158.5 76t55.5 211v14q0 139 -55.5 216.5t-158.5 77.5q-102 0 -158 -77.5t-56 -216.5v-14q0 -135 56 -211t158 -76zM592 -586q-84 0 -142 57.5t-58 141.5q0 83 57.5 141t142.5 58q86 0 143 -58t57 -141
q0 -84 -57 -141.5t-143 -57.5z" />
    <glyph glyph-name="uni1EE4" unicode="&#x1ee4;" 
d="M338 29q-112 63 -174 175.5t-62 261.5v966h308v-958q0 -100 50.5 -159t139.5 -59q90 0 140 59t50 159v958h308v-966q0 -149 -62 -261.5t-173.5 -175.5t-262 -63t-262.5 63zM600 -586q-84 0 -142 57.5t-58 141.5q0 83 57.5 141t142.5 58q86 0 143 -58t57 -141
q0 -84 -57 -141.5t-143 -57.5z" />
    <glyph glyph-name="uni1EE5" unicode="&#x1ee5;" 
d="M451 -34q-146 0 -229 96.5t-83 262.5v727h302v-658q0 -84 38.5 -129.5t108.5 -45.5q74 0 118.5 59t44.5 160v614h302v-1052h-287v160h-10q-48 -85 -124.5 -139.5t-180.5 -54.5zM616 -586q-84 0 -142 57.5t-58 141.5q0 83 57.5 141t142.5 58q86 0 143 -58t57 -141
q0 -84 -57 -141.5t-143 -57.5z" />
    <glyph glyph-name="uni1EE6" unicode="&#x1ee6;" 
d="M338 29q-112 63 -174 175.5t-62 261.5v966h308v-958q0 -100 50.5 -159t139.5 -59q90 0 140 59t50 159v958h308v-966q0 -149 -62 -261.5t-173.5 -175.5t-262 -63t-262.5 63zM569 1545l-29 198q86 6 127.5 29.5t41.5 69.5q0 84 -118 84q-90 0 -186 -33l-57 195
q58 26 122 40t126 14q147 0 235 -77t88 -205q0 -136 -90.5 -217.5t-259.5 -97.5z" />
    <glyph glyph-name="uni1EE7" unicode="&#x1ee7;" 
d="M451 -34q-146 0 -229 96.5t-83 262.5v727h302v-658q0 -84 38.5 -129.5t108.5 -45.5q74 0 118.5 59t44.5 160v614h302v-1052h-287v160h-10q-48 -85 -124.5 -139.5t-180.5 -54.5zM561 1165l-29 198q86 6 127.5 29.5t41.5 69.5q0 84 -118 84q-90 0 -186 -33l-57 195
q58 26 122 40t126 14q147 0 235 -77t88 -205q0 -136 -90.5 -217.5t-259.5 -97.5z" />
    <glyph glyph-name="uni1EE8" unicode="&#x1ee8;" 
d="M284.5 24.5q-105.5 58.5 -163.5 163.5t-58 244v1000h294v-987q0 -89 46.5 -140.5t128.5 -51.5t128.5 51.5t46.5 140.5v987h103q62 0 89.5 26.5t27.5 81.5q0 37 -7.5 79t-20.5 83l287 84q33 -96 33 -183q0 -151 -101.5 -226.5t-271.5 -75.5h-51l202 117v-986
q0 -139 -58.5 -244t-163.5 -163.5t-245 -58.5t-245.5 58.5zM387 1657v14l208 364h348v-13l-290 -365h-266z" />
    <glyph glyph-name="uni1EE9" unicode="&#x1ee9;" 
d="M419 -34q-136 0 -213 88.5t-77 240.5v757h289v-693q0 -70 35.5 -109.5t99.5 -39.5q73 0 115 53.5t42 144.5v644h101q100 0 100 87q0 32 -6 66.5t-16 68.5l286 71q22 -79 22 -152q0 -124 -96 -194t-242 -70h-72l212 121v-1050h-288v146h-10q-44 -79 -115 -129.5
t-167 -50.5zM391 1277v14l208 364h348v-13l-290 -365h-266z" />
    <glyph glyph-name="uni1EEA" unicode="&#x1eea;" 
d="M284.5 24.5q-105.5 58.5 -163.5 163.5t-58 244v1000h294v-987q0 -89 46.5 -140.5t128.5 -51.5t128.5 51.5t46.5 140.5v987h103q62 0 89.5 26.5t27.5 81.5q0 37 -7.5 79t-20.5 83l287 84q33 -96 33 -183q0 -151 -101.5 -226.5t-271.5 -75.5h-51l202 117v-986
q0 -139 -58.5 -244t-163.5 -163.5t-245 -58.5t-245.5 58.5zM413 1657l-289 365v13h348l207 -364v-14h-266z" />
    <glyph glyph-name="uni1EEB" unicode="&#x1eeb;" 
d="M419 -34q-136 0 -213 88.5t-77 240.5v757h289v-693q0 -70 35.5 -109.5t99.5 -39.5q73 0 115 53.5t42 144.5v644h101q100 0 100 87q0 32 -6 66.5t-16 68.5l286 71q22 -79 22 -152q0 -124 -96 -194t-242 -70h-72l212 121v-1050h-288v146h-10q-44 -79 -115 -129.5
t-167 -50.5zM467 1277l-289 365v13h348l207 -364v-14h-266z" />
    <glyph glyph-name="uni1EEC" unicode="&#x1eec;" 
d="M284.5 24.5q-105.5 58.5 -163.5 163.5t-58 244v1000h294v-987q0 -89 46.5 -140.5t128.5 -51.5t128.5 51.5t46.5 140.5v987h103q62 0 89.5 26.5t27.5 81.5q0 37 -7.5 79t-20.5 83l287 84q33 -96 33 -183q0 -151 -101.5 -226.5t-271.5 -75.5h-51l202 117v-986
q0 -139 -58.5 -244t-163.5 -163.5t-245 -58.5t-245.5 58.5zM453 1564l-29 198q86 6 127.5 29.5t41.5 69.5q0 84 -118 84q-90 0 -186 -33l-57 195q58 26 122 40t126 14q147 0 235 -77t88 -205q0 -136 -90.5 -217.5t-259.5 -97.5z" />
    <glyph glyph-name="uni1EED" unicode="&#x1eed;" 
d="M419 -34q-136 0 -213 88.5t-77 240.5v757h289v-693q0 -70 35.5 -109.5t99.5 -39.5q73 0 115 53.5t42 144.5v644h101q100 0 100 87q0 32 -6 66.5t-16 68.5l286 71q22 -79 22 -152q0 -124 -96 -194t-242 -70h-72l212 121v-1050h-288v146h-10q-44 -79 -115 -129.5
t-167 -50.5zM474 1184l-29 198q86 6 127.5 29.5t41.5 69.5q0 84 -118 84q-90 0 -186 -33l-57 195q58 26 122 40t126 14q147 0 235 -77t88 -205q0 -136 -90.5 -217.5t-259.5 -97.5z" />
    <glyph glyph-name="uni1EEE" unicode="&#x1eee;" 
d="M284.5 24.5q-105.5 58.5 -163.5 163.5t-58 244v1000h294v-987q0 -89 46.5 -140.5t128.5 -51.5t128.5 51.5t46.5 140.5v987h103q62 0 89.5 26.5t27.5 81.5q0 37 -7.5 79t-20.5 83l287 84q33 -96 33 -183q0 -151 -101.5 -226.5t-271.5 -75.5h-51l202 117v-986
q0 -139 -58.5 -244t-163.5 -163.5t-245 -58.5t-245.5 58.5zM684 1674q-49 0 -96.5 21.5t-99.5 70.5q-38 36 -61 52t-45 16q-56 0 -56 -74v-83h-216v91q0 138 59 212t170 74q48 0 91 -20.5t93 -70.5q38 -37 61.5 -53t46.5 -16q53 0 53 73v84h217v-90q0 -139 -53.5 -213
t-163.5 -74z" />
    <glyph glyph-name="uni1EEF" unicode="&#x1eef;" 
d="M419 -34q-136 0 -213 88.5t-77 240.5v757h289v-693q0 -70 35.5 -109.5t99.5 -39.5q73 0 115 53.5t42 144.5v644h101q100 0 100 87q0 32 -6 66.5t-16 68.5l286 71q22 -79 22 -152q0 -124 -96 -194t-242 -70h-72l212 121v-1050h-288v146h-10q-44 -79 -115 -129.5
t-167 -50.5zM743 1310q-49 0 -96.5 21.5t-99.5 70.5q-38 36 -61 52t-45 16q-56 0 -56 -74v-83h-216v91q0 138 59 212t170 74q48 0 91 -20.5t93 -70.5q38 -37 61.5 -53t46.5 -16q53 0 53 73v84h217v-90q0 -139 -53.5 -213t-163.5 -74z" />
    <glyph glyph-name="uni1EF0" unicode="&#x1ef0;" 
d="M530 -34q-140 0 -245 58t-163.5 163t-58.5 245v1000h294v-987q0 -89 46.5 -140.5t128.5 -51.5q81 0 128 51.5t47 140.5v987h86q72 0 112.5 32t40.5 90q0 38 -14 73.5t-49 82.5l230 147q55 -71 80 -135.5t25 -135.5q0 -133 -100 -209.5t-259 -76.5h-61l199 113v-981
q0 -140 -58 -245t-163 -163t-246 -58zM532 -586q-84 0 -142 57.5t-58 141.5q0 83 57.5 141t142.5 58q86 0 143 -58t57 -141q0 -84 -57 -141.5t-143 -57.5z" />
    <glyph glyph-name="uni1EF1" unicode="&#x1ef1;" 
d="M419 -34q-134 0 -212 87.5t-78 241.5v757h289v-693q0 -70 35.5 -109.5t99.5 -39.5q72 0 114 53t42 145v644h73q143 0 143 108q0 32 -12 60.5t-40 64.5l234 151q45 -57 67.5 -114t22.5 -121q0 -125 -95 -198.5t-258 -73.5h-62l217 121v-1050h-288v146h-10
q-48 -85 -120.5 -132.5t-161.5 -47.5zM564 -586q-84 0 -142 57.5t-58 141.5q0 83 57.5 141t142.5 58q86 0 143 -58t57 -141q0 -84 -57 -141.5t-143 -57.5z" />
    <glyph glyph-name="Ygrave" unicode="&#x1ef2;" 
d="M477 438l-452 994h333l148 -356l95 -273h8l92 273l149 356h325l-451 -994h-247zM446 0v676h308v-676h-308zM471 1638l-289 365v13h348l207 -364v-14h-266z" />
    <glyph glyph-name="ygrave" unicode="&#x1ef3;" 
d="M325 -449q-178 0 -305 106l145 224q78 -64 152 -64q54 0 87.5 25.5t55.5 85.5l97 265h57l92 381l148 478h312l-437 -1175q-64 -173 -159.5 -249.5t-244.5 -76.5zM511 -87l-424 1139h314l155 -478l70 -276h90zM495 1258l-289 365v13h348l207 -364v-14h-266z" />
    <glyph glyph-name="uni1EF4" unicode="&#x1ef4;" 
d="M477 438l-452 994h333l148 -356l95 -273h8l92 273l149 356h325l-451 -994h-247zM446 0v676h308v-676h-308zM600 -552q-84 0 -142 57.5t-58 141.5q0 83 57.5 141t142.5 58q86 0 143 -58t57 -141q0 -84 -57 -141.5t-143 -57.5z" />
    <glyph glyph-name="uni1EF5" unicode="&#x1ef5;" 
d="M325 -449q-178 0 -305 106l145 224q78 -64 152 -64q54 0 87.5 25.5t55.5 85.5l97 265h57l92 381l148 478h312l-437 -1175q-64 -173 -159.5 -249.5t-244.5 -76.5zM511 -87l-424 1139h314l155 -478l70 -276h90zM937 -552q-84 0 -142 57.5t-58 141.5q0 83 57.5 141t142.5 58
q86 0 143 -58t57 -141q0 -84 -57 -141.5t-143 -57.5z" />
    <glyph glyph-name="uni1EF6" unicode="&#x1ef6;" 
d="M477 438l-452 994h333l148 -356l95 -273h8l92 273l149 356h325l-451 -994h-247zM446 0v676h308v-676h-308zM573 1545l-29 198q86 6 127.5 29.5t41.5 69.5q0 84 -118 84q-90 0 -186 -33l-57 195q58 26 122 40t126 14q147 0 235 -77t88 -205q0 -136 -90.5 -217.5
t-259.5 -97.5z" />
    <glyph glyph-name="uni1EF7" unicode="&#x1ef7;" 
d="M325 -449q-178 0 -305 106l145 224q78 -64 152 -64q54 0 87.5 25.5t55.5 85.5l97 265h57l92 381l148 478h312l-437 -1175q-64 -173 -159.5 -249.5t-244.5 -76.5zM511 -87l-424 1139h314l155 -478l70 -276h90zM577 1165l-29 198q86 6 127.5 29.5t41.5 69.5q0 84 -118 84
q-90 0 -186 -33l-57 195q58 26 122 40t126 14q147 0 235 -77t88 -205q0 -136 -90.5 -217.5t-259.5 -97.5z" />
    <glyph glyph-name="uni1EF8" unicode="&#x1ef8;" 
d="M477 438l-452 994h333l148 -356l95 -273h8l92 273l149 356h325l-451 -994h-247zM446 0v676h308v-676h-308zM783 1639q-49 0 -96.5 21.5t-99.5 70.5q-38 36 -61 52t-45 16q-56 0 -56 -74v-83h-216v91q0 138 59 212t170 74q48 0 91 -20.5t93 -70.5q38 -37 61.5 -53
t46.5 -16q53 0 53 73v84h217v-90q0 -139 -53.5 -213t-163.5 -74z" />
    <glyph glyph-name="uni1EF9" unicode="&#x1ef9;" 
d="M325 -449q-178 0 -305 106l145 224q78 -64 152 -64q54 0 87.5 25.5t55.5 85.5l97 265h57l92 381l148 478h312l-437 -1175q-64 -173 -159.5 -249.5t-244.5 -76.5zM511 -87l-424 1139h314l155 -478l70 -276h90zM807 1259q-49 0 -96.5 21.5t-99.5 70.5q-38 36 -61 52t-45 16
q-56 0 -56 -74v-83h-216v91q0 138 59 212t170 74q48 0 91 -20.5t93 -70.5q38 -37 61.5 -53t46.5 -16q53 0 53 73v84h217v-90q0 -139 -53.5 -213t-163.5 -74z" />
    <glyph glyph-name="endash" unicode="&#x2013;" 
d="M70 493v306h1060v-306h-1060z" />
    <glyph glyph-name="emdash" unicode="&#x2014;" 
d="M53 493v306h1094v-306h-1094z" />
    <glyph glyph-name="quoteleft" unicode="&#x2018;" 
d="M707 1494l168 -120l-278 -358l6 93q44 4 88.5 -16.5t74 -61.5t29.5 -102q0 -82 -54.5 -139t-145.5 -57q-99 0 -153 62t-54 150q0 65 25 122.5t77 129.5z" />
    <glyph glyph-name="quoteright" unicode="&#x2019;" 
d="M493 733l-168 120l278 358l-6 -93q-44 -3 -88.5 17t-74 61.5t-29.5 101.5q0 83 54.5 139.5t145.5 56.5q99 0 153 -61.5t54 -150.5q0 -65 -24.5 -122.5t-77.5 -129.5z" />
    <glyph glyph-name="quotesinglbase" unicode="&#x201a;" 
d="M493 -375l-168 120l278 358l-6 -93q-44 -3 -88.5 17t-74 61.5t-29.5 101.5q0 83 54.5 139.5t145.5 56.5q99 0 153 -61.5t54 -150.5q0 -65 -24.5 -122.5t-77.5 -129.5z" />
    <glyph glyph-name="quotedblleft" unicode="&#x201c;" 
d="M415 1494l168 -120l-278 -358l6 93q44 4 88.5 -16.5t74 -61.5t29.5 -102q0 -82 -54.5 -139t-145.5 -57q-99 0 -153 62t-54 150q0 65 25 122.5t77 129.5zM910 1494l168 -120l-278 -358l6 93q44 4 88.5 -16.5t74 -61.5t29.5 -102q0 -82 -54.5 -139t-145.5 -57
q-99 0 -153 62t-54 150q0 65 25 122.5t77 129.5z" />
    <glyph glyph-name="quotedblright" unicode="&#x201d;" 
d="M290 733l-168 120l278 358l-6 -93q-44 -3 -88.5 17t-74 61.5t-29.5 101.5q0 83 54.5 139.5t145.5 56.5q99 0 153 -61.5t54 -150.5q0 -65 -24.5 -122.5t-77.5 -129.5zM785 733l-168 120l278 358l-6 -93q-44 -3 -88.5 17t-74 61.5t-29.5 101.5q0 83 54.5 139.5t145.5 56.5
q99 0 153 -61.5t54 -150.5q0 -65 -24.5 -122.5t-77.5 -129.5z" />
    <glyph glyph-name="quotedblbase" unicode="&#x201e;" 
d="M290 -375l-168 120l278 358l-6 -93q-44 -3 -88.5 17t-74 61.5t-29.5 101.5q0 83 54.5 139.5t145.5 56.5q99 0 153 -61.5t54 -150.5q0 -65 -24.5 -122.5t-77.5 -129.5zM785 -375l-168 120l278 358l-6 -93q-44 -3 -88.5 17t-74 61.5t-29.5 101.5q0 83 54.5 139.5
t145.5 56.5q99 0 153 -61.5t54 -150.5q0 -65 -24.5 -122.5t-77.5 -129.5z" />
    <glyph glyph-name="bullet" unicode="&#x2022;" 
d="M560 381q-81 0 -145.5 38t-102.5 103t-38 145q0 82 38 146.5t102.5 102t146.5 37.5q81 0 145.5 -37.5t102 -102t37.5 -146.5q0 -81 -37.5 -145.5t-102 -102.5t-146.5 -38z" />
    <glyph glyph-name="ellipsis" unicode="&#x2026;" 
d="M200 -34q-57 0 -95.5 42.5t-38.5 105.5q0 62 38 103.5t96 41.5t96 -41.5t38 -103.5q0 -63 -38.5 -105.5t-95.5 -42.5zM1000 -34q-57 0 -95.5 42.5t-38.5 105.5q0 62 38 103.5t96 41.5t96 -41.5t38 -103.5q0 -63 -38 -105.5t-96 -42.5zM600 -34q-57 0 -95.5 42.5
t-38.5 105.5q0 62 38.5 103.5t95.5 41.5q58 0 96 -41.5t38 -103.5q0 -63 -38.5 -105.5t-95.5 -42.5z" />
    <glyph glyph-name="minute" unicode="&#x2032;" 
d="M294 839l91 621h336l-149 -621h-278z" />
    <glyph glyph-name="second" unicode="&#x2033;" 
d="M140 839l91 621h336l-149 -621h-278zM601 839l91 621h336l-149 -621h-278z" />
    <glyph glyph-name="guilsinglleft" unicode="&#x2039;" 
d="M784 8l-481 524l481 525l206 -179l-311 -346l311 -346z" />
    <glyph glyph-name="guilsinglright" unicode="&#x203a;" 
d="M416 8l-206 178l311 346l-311 346l206 179l481 -525z" />
    <glyph glyph-name="fraction" unicode="&#x2044;" 
d="M83 -34l861 1494h173l-861 -1494h-173z" />
    <glyph glyph-name="uni2074" unicode="&#x2074;" 
d="M591 687v320l32 40v368l23 -26h-36l-208 -279v-14h307l64 24h246v-242h-884v213l466 622h263v-1026h-273z" />
    <glyph glyph-name="dong" unicode="&#x20ab;" 
d="M456 220q-113 0 -204.5 55.5t-144.5 152t-53 218.5v5q0 122 51 218.5t140.5 152t202.5 55.5q104 0 176.5 -39t121.5 -116h10v623h268v-1325h-259v179h-9q-46 -85 -120.5 -132t-179.5 -47zM74 -176v262h1030v-262h-1030zM543 439q60 0 106 26.5t72.5 73.5t26.5 108v3
q0 91 -57.5 150t-147.5 59q-94 0 -149 -57.5t-55 -151.5v-3q0 -94 55.5 -151t148.5 -57zM361 1200v189h827v-189h-827z" />
    <glyph glyph-name="Euro" unicode="&#x20ac;" 
d="M715 -34q-164 0 -284 76t-185 212t-65 315v294q0 182 65 317.5t184.5 210.5t283.5 75q152 0 259.5 -61.5t187.5 -194.5l-208 -141q-46 77 -103.5 111t-140.5 34q-268 0 -268 -350v-296q0 -171 69.5 -260.5t201.5 -89.5q83 0 139.5 34t102.5 113l208 -141
q-81 -135 -188 -196.5t-259 -61.5zM6 460v184h889v-184h-889zM6 790v184h889v-184h-889z" />
    <glyph glyph-name="trademark" unicode="&#x2122;" 
d="M582 610v848h144l116 -333l38 -148h10l38 148l116 333h144v-848h-136v310l22 264h-10l-122 -381h-114l-122 381h-10l22 -264v-310h-136zM189 610v812h154v-812h-154zM12 1324v134h508v-134h-508z" />
    <glyph glyph-name="arrowleft" unicode="&#x2190;" 
d="M630 37l-554 604l554 605l181 -171l-412 -414v-40l412 -413zM696 504l-428 46v182l428 47h468v-275h-468z" />
    <glyph glyph-name="arrowup" unicode="&#x2191;" 
d="M198 584l-170 180l572 523l572 -523l-171 -180l-381 380h-40zM457 -35v702l52 428h182l52 -428v-702h-286z" />
    <glyph glyph-name="arrowright" unicode="&#x2192;" 
d="M610 37l-181 171l412 413v40l-412 414l181 171l554 -605zM76 504v275h468l428 -47v-182l-428 -46h-468z" />
    <glyph glyph-name="arrowdown" unicode="&#x2193;" 
d="M600 -35l-572 524l170 179l382 -380h40l381 380l171 -179zM509 157l-52 428v702h286v-702l-52 -428h-182z" />
    <glyph glyph-name="arrowdblright" unicode="&#x21d2;" 
d="M566 -36l-149 145l446 449v167l-446 449l149 144l622 -677zM25 340v205h902v-108l-454 -97h-448zM25 737v205h448l454 -96v-109h-902z" />
    <glyph glyph-name="minus" unicode="&#x2212;" 
d="M124 499v285h952v-285h-952z" />
    <glyph glyph-name="uni2215" unicode="&#x2215;" 
d="M18 -34l848 1494h316l-848 -1494h-316z" />
    <glyph glyph-name="uni2237" unicode="&#x2237;" 
d="M878 791q-79 0 -132.5 54t-53.5 135q0 80 53.5 134t133 54t132.5 -54t53 -134q0 -81 -53 -135t-133 -54zM323 115q-80 0 -133.5 53.5t-53.5 134.5t53.5 135t133.5 54q79 0 132 -54t53 -135t-53 -134.5t-132 -53.5zM745.5 168.5q-53.5 53.5 -53.5 134.5t53.5 135t132.5 54
q80 0 133 -54t53 -135t-53 -134.5t-132.5 -53.5t-133 53.5zM189.5 845.5q-53.5 54.5 -53.5 134.5t53.5 134t133 54t132.5 -54t53 -134t-53 -134.5t-132.5 -54.5t-133 54.5z" />
    <glyph glyph-name="lessequal" unicode="&#x2264;" 
d="M1092 310l-984 335v279l984 334v-289l-427 -127l-243 -54v-8l243 -54l427 -127v-289zM108 0v257h984v-257h-984z" />
    <glyph glyph-name="greaterequal" unicode="&#x2265;" 
d="M108 310v289l427 127l243 54v8l-243 54l-427 127v289l984 -334v-279zM1092 0h-984v257h984v-257z" />
    <glyph glyph-name="uni2318" unicode="&#x2318;" 
d="M280 132q-120 0 -193.5 71.5t-73.5 187.5q0 122 80 193.5t215 71.5h48v120h-48q-135 0 -215 72t-80 193q0 116 73.5 187.5t193.5 71.5q122 0 192.5 -77.5t70.5 -211.5v-54h114v54q0 134 73 211.5t198 77.5q116 0 187.5 -71.5t71.5 -187.5q0 -121 -80 -193t-216 -72h-47
v-120h47q136 0 216 -71.5t80 -193.5q0 -116 -71.5 -187.5t-188.5 -71.5q-124 0 -197 77.5t-73 210.5v55h-114v-55q0 -133 -70.5 -210.5t-192.5 -77.5zM280 318q42 0 63 28t21 85v52h-48q-58 0 -86.5 -21.5t-28.5 -64.5q0 -36 21 -57.5t58 -21.5zM316 949h48v51
q0 59 -21.5 86.5t-65.5 27.5q-35 0 -55.5 -21.5t-20.5 -58.5q0 -42 29 -63.5t86 -21.5zM540 653h120v126h-120v-126zM919 318q37 0 58.5 21.5t21.5 57.5q0 43 -28.5 64.5t-87.5 21.5h-47v-52q0 -57 20.5 -85t62.5 -28zM836 949h47q58 0 87 21.5t29 63.5q0 37 -20.5 58.5
t-55.5 21.5q-43 0 -65 -27.5t-22 -86.5v-51z" />
    <glyph glyph-name="uni2325" unicode="&#x2325;" 
d="M709 143l-499 1146h280l499 -1146h-280zM19 1019v270h425l36 -270h-461zM768 143l-53 270h466v-270h-413zM720 1019v270h461v-270h-461z" />
    <glyph glyph-name="uni2500" unicode="&#x2500;" 
d="M-150 494v300h1500v-300h-1500z" />
    <glyph glyph-name="uni2501" unicode="&#x2501;" 
d="M-150 374v540h1500v-540h-1500z" />
    <glyph glyph-name="uni2502" unicode="&#x2502;" 
d="M450 -656v2600h300v-2600h-300z" />
    <glyph glyph-name="uni2503" unicode="&#x2503;" 
d="M330 -656v2600h540v-2600h-540z" />
    <glyph glyph-name="uni2504" unicode="&#x2504;" 
d="M867 494v300h266v-300h-266zM67 494v300h266v-300h-266zM467 494v300h266v-300h-266z" />
    <glyph glyph-name="uni2505" unicode="&#x2505;" 
d="M867 374v540h266v-540h-266zM67 374v540h266v-540h-266zM467 374v540h266v-540h-266z" />
    <glyph glyph-name="uni2506" unicode="&#x2506;" 
d="M450 366v556h300v-556h-300zM450 -467v555h300v-555h-300zM450 1200v555h300v-555h-300z" />
    <glyph glyph-name="uni2507" unicode="&#x2507;" 
d="M330 366v556h540v-556h-540zM330 -467v555h540v-555h-540zM330 1200v555h540v-555h-540z" />
    <glyph glyph-name="uni2508" unicode="&#x2508;" 
d="M938 494v300h225v-300h-225zM38 494v300h225v-300h-225zM338 494v300h225v-300h-225zM638 494v300h225v-300h-225z" />
    <glyph glyph-name="uni2509" unicode="&#x2509;" 
d="M938 374v540h225v-540h-225zM38 374v540h225v-540h-225zM338 374v540h225v-540h-225zM638 374v540h225v-540h-225z" />
    <glyph glyph-name="uni250A" unicode="&#x250a;" 
d="M450 1347v469h300v-469h-300zM450 -528v469h300v-469h-300zM450 97v469h300v-469h-300zM450 722v469h300v-469h-300z" />
    <glyph glyph-name="uni250B" unicode="&#x250b;" 
d="M330 1347v469h540v-469h-540zM330 -528v469h540v-469h-540zM330 97v469h540v-469h-540zM330 722v469h540v-469h-540z" />
    <glyph glyph-name="uni250C" unicode="&#x250c;" 
d="M450 -656v1450h900v-300h-600v-1150h-300z" />
    <glyph glyph-name="uni250D" unicode="&#x250d;" 
d="M450 -656v1570h900v-540h-600v-1030h-300z" />
    <glyph glyph-name="uni250E" unicode="&#x250e;" 
d="M330 -656v1450h1020v-300h-480v-1150h-540z" />
    <glyph glyph-name="uni250F" unicode="&#x250f;" 
d="M330 -656v1570h1020v-540h-480v-1030h-540z" />
    <glyph glyph-name="uni2510" unicode="&#x2510;" 
d="M450 -656v1150h-600v300h900v-1450h-300z" />
    <glyph glyph-name="uni2511" unicode="&#x2511;" 
d="M450 -656v1030h-600v540h900v-1570h-300z" />
    <glyph glyph-name="uni2512" unicode="&#x2512;" 
d="M330 -656v1150h-480v300h1020v-1450h-540z" />
    <glyph glyph-name="uni2513" unicode="&#x2513;" 
d="M330 -656v1030h-480v540h1020v-1570h-540z" />
    <glyph glyph-name="uni2514" unicode="&#x2514;" 
d="M450 494v1450h300v-1150h600v-300h-900z" />
    <glyph glyph-name="uni2515" unicode="&#x2515;" 
d="M450 374v1570h300v-1030h600v-540h-900z" />
    <glyph glyph-name="uni2516" unicode="&#x2516;" 
d="M330 494v1450h540v-1150h480v-300h-1020z" />
    <glyph glyph-name="uni2517" unicode="&#x2517;" 
d="M330 374v1570h540v-1030h480v-540h-1020z" />
    <glyph glyph-name="uni2518" unicode="&#x2518;" 
d="M-150 494v300h600v1150h300v-1450h-900z" />
    <glyph glyph-name="uni2519" unicode="&#x2519;" 
d="M-150 374v540h600v1030h300v-1570h-900z" />
    <glyph glyph-name="uni251A" unicode="&#x251a;" 
d="M-150 494v300h480v1150h540v-1450h-1020z" />
    <glyph glyph-name="uni251B" unicode="&#x251b;" 
d="M-150 374v540h480v1030h540v-1570h-1020z" />
    <glyph glyph-name="uni251C" unicode="&#x251c;" 
d="M450 -656v2600h300v-1150h600v-300h-600v-1150h-300z" />
    <glyph glyph-name="uni251D" unicode="&#x251d;" 
d="M450 -656v2600h300v-1030h600v-540h-600v-1030h-300z" />
    <glyph glyph-name="uni251E" unicode="&#x251e;" 
d="M450 -656v1150h-120v1450h540v-1150h480v-300h-600v-1150h-300z" />
    <glyph glyph-name="uni251F" unicode="&#x251f;" 
d="M330 -656v1450h120v1150h300v-1150h600v-300h-480v-1150h-540z" />
    <glyph glyph-name="uni2520" unicode="&#x2520;" 
d="M330 -656v2600h540v-1150h480v-300h-480v-1150h-540z" />
    <glyph glyph-name="uni2521" unicode="&#x2521;" 
d="M450 -656v1030h-120v1570h540v-1030h480v-540h-600v-1030h-300z" />
    <glyph glyph-name="uni2522" unicode="&#x2522;" 
d="M330 -656v1570h120v1030h300v-1030h600v-540h-480v-1030h-540z" />
    <glyph glyph-name="uni2523" unicode="&#x2523;" 
d="M330 -656v2600h540v-1030h480v-540h-480v-1030h-540z" />
    <glyph glyph-name="uni2524" unicode="&#x2524;" 
d="M450 -656v1150h-600v300h600v1150h300v-2600h-300z" />
    <glyph glyph-name="uni2525" unicode="&#x2525;" 
d="M450 -656v1030h-600v540h600v1030h300v-2600h-300z" />
    <glyph glyph-name="uni2526" unicode="&#x2526;" 
d="M450 -656v1150h-600v300h480v1150h540v-1450h-120v-1150h-300z" />
    <glyph glyph-name="uni2527" unicode="&#x2527;" 
d="M330 -656v1150h-480v300h600v1150h300v-1150h120v-1450h-540z" />
    <glyph glyph-name="uni2528" unicode="&#x2528;" 
d="M330 -656v1150h-480v300h480v1150h540v-2600h-540z" />
    <glyph glyph-name="uni2529" unicode="&#x2529;" 
d="M450 -656v1030h-600v540h480v1030h540v-1570h-120v-1030h-300z" />
    <glyph glyph-name="uni252A" unicode="&#x252a;" 
d="M330 -656v1030h-480v540h600v1030h300v-1030h120v-1570h-540z" />
    <glyph glyph-name="uni252B" unicode="&#x252b;" 
d="M330 -656v1030h-480v540h480v1030h540v-2600h-540z" />
    <glyph glyph-name="uni252C" unicode="&#x252c;" 
d="M450 -656v1150h-600v300h1500v-300h-600v-1150h-300z" />
    <glyph glyph-name="uni252D" unicode="&#x252d;" 
d="M450 -656v1030h-600v540h900v-120h600v-300h-600v-1150h-300z" />
    <glyph glyph-name="uni252E" unicode="&#x252e;" 
d="M450 -656v1150h-600v300h600v120h900v-540h-600v-1030h-300z" />
    <glyph glyph-name="uni252F" unicode="&#x252f;" 
d="M450 -656v1030h-600v540h1500v-540h-600v-1030h-300z" />
    <glyph glyph-name="uni2530" unicode="&#x2530;" 
d="M330 -656v1150h-480v300h1500v-300h-480v-1150h-540z" />
    <glyph glyph-name="uni2531" unicode="&#x2531;" 
d="M330 -656v1030h-480v540h1020v-120h480v-300h-480v-1150h-540z" />
    <glyph glyph-name="uni2532" unicode="&#x2532;" 
d="M330 -656v1150h-480v300h480v120h1020v-540h-480v-1030h-540z" />
    <glyph glyph-name="uni2533" unicode="&#x2533;" 
d="M330 -656v1030h-480v540h1500v-540h-480v-1030h-540z" />
    <glyph glyph-name="uni2534" unicode="&#x2534;" 
d="M-150 494v300h600v1150h300v-1150h600v-300h-1500z" />
    <glyph glyph-name="uni2535" unicode="&#x2535;" 
d="M-150 374v540h600v1030h300v-1150h600v-300h-600v-120h-900z" />
    <glyph glyph-name="uni2536" unicode="&#x2536;" 
d="M450 374v120h-600v300h600v1150h300v-1030h600v-540h-900z" />
    <glyph glyph-name="uni2537" unicode="&#x2537;" 
d="M-150 374v540h600v1030h300v-1030h600v-540h-1500z" />
    <glyph glyph-name="uni2538" unicode="&#x2538;" 
d="M-150 494v300h480v1150h540v-1150h480v-300h-1500z" />
    <glyph glyph-name="uni2539" unicode="&#x2539;" 
d="M-150 374v540h480v1030h540v-1150h480v-300h-480v-120h-1020z" />
    <glyph glyph-name="uni253A" unicode="&#x253a;" 
d="M330 374v120h-480v300h480v1150h540v-1030h480v-540h-1020z" />
    <glyph glyph-name="uni253B" unicode="&#x253b;" 
d="M-150 374v540h480v1030h540v-1030h480v-540h-1500z" />
    <glyph glyph-name="uni253C" unicode="&#x253c;" 
d="M450 -656v1150h-600v300h600v1150h300v-1150h600v-300h-600v-1150h-300z" />
    <glyph glyph-name="uni253D" unicode="&#x253d;" 
d="M450 -656v1030h-600v540h600v1030h300v-1150h600v-300h-600v-1150h-300z" />
    <glyph glyph-name="uni253E" unicode="&#x253e;" 
d="M450 -656v1150h-600v300h600v1150h300v-1030h600v-540h-600v-1030h-300z" />
    <glyph glyph-name="uni253F" unicode="&#x253f;" 
d="M450 -656v1030h-600v540h600v1030h300v-1030h600v-540h-600v-1030h-300z" />
    <glyph glyph-name="uni2540" unicode="&#x2540;" 
d="M450 -656v1150h-600v300h480v1150h540v-1150h480v-300h-600v-1150h-300z" />
    <glyph glyph-name="uni2541" unicode="&#x2541;" 
d="M330 -656v1150h-480v300h600v1150h300v-1150h600v-300h-480v-1150h-540z" />
    <glyph glyph-name="uni2542" unicode="&#x2542;" 
d="M330 -656v1150h-480v300h480v1150h540v-1150h480v-300h-480v-1150h-540z" />
    <glyph glyph-name="uni2543" unicode="&#x2543;" 
d="M450 -656v1030h-600v540h480v1030h540v-1150h480v-300h-480v-120h-120v-1030h-300z" />
    <glyph glyph-name="uni2544" unicode="&#x2544;" 
d="M450 -656v1030h-120v120h-480v300h480v1150h540v-1030h480v-540h-600v-1030h-300z" />
    <glyph glyph-name="uni2545" unicode="&#x2545;" 
d="M330 -656v1030h-480v540h600v1030h300v-1030h120v-120h480v-300h-480v-1150h-540z" />
    <glyph glyph-name="uni2546" unicode="&#x2546;" 
d="M330 -656v1150h-480v300h480v120h120v1030h300v-1030h600v-540h-480v-1030h-540z" />
    <glyph glyph-name="uni2547" unicode="&#x2547;" 
d="M450 -656v1030h-600v540h480v1030h540v-1030h480v-540h-600v-1030h-300z" />
    <glyph glyph-name="uni2548" unicode="&#x2548;" 
d="M330 -656v1030h-480v540h600v1030h300v-1030h600v-540h-480v-1030h-540z" />
    <glyph glyph-name="uni2549" unicode="&#x2549;" 
d="M330 -656v1030h-480v540h480v1030h540v-1150h480v-300h-480v-1150h-540z" />
    <glyph glyph-name="uni254A" unicode="&#x254a;" 
d="M330 -656v1150h-480v300h480v1150h540v-1030h480v-540h-480v-1030h-540z" />
    <glyph glyph-name="uni254B" unicode="&#x254b;" 
d="M330 -656v1030h-480v540h480v1030h540v-1030h480v-540h-480v-1030h-540z" />
    <glyph glyph-name="uni254C" unicode="&#x254c;" 
d="M750 494v300h300v-300h-300zM150 494v300h300v-300h-300z" />
    <glyph glyph-name="uni254D" unicode="&#x254d;" 
d="M750 374v540h300v-540h-300zM150 374v540h300v-540h-300z" />
    <glyph glyph-name="uni254E" unicode="&#x254e;" 
d="M450 957v625h300v-625h-300zM450 -293v625h300v-625h-300z" />
    <glyph glyph-name="uni254F" unicode="&#x254f;" 
d="M330 957v625h540v-625h-540zM330 -293v625h540v-625h-540z" />
    <glyph glyph-name="uni2550" unicode="&#x2550;" 
d="M-150 794v300h1500v-300h-1500zM-150 194v300h1500v-300h-1500z" />
    <glyph glyph-name="uni2551" unicode="&#x2551;" 
d="M750 -656v2600h300v-2600h-300zM150 -656v2600h300v-2600h-300z" />
    <glyph glyph-name="uni2552" unicode="&#x2552;" 
d="M450 -656v1750h900v-300h-600v-300h600v-300h-600v-850h-300z" />
    <glyph glyph-name="uni2553" unicode="&#x2553;" 
d="M150 -656v1450h1200v-300h-300v-1150h-300v1150h-300v-1150h-300z" />
    <glyph glyph-name="uni2554" unicode="&#x2554;" 
d="M150 -656v1750h1200v-300h-900v-1450h-300zM750 -656v1150h600v-300h-300v-850h-300z" />
    <glyph glyph-name="uni2555" unicode="&#x2555;" 
d="M450 -656v850h-600v300h600v300h-600v300h900v-1750h-300z" />
    <glyph glyph-name="uni2556" unicode="&#x2556;" 
d="M150 -656v1150h-300v300h1200v-1450h-300v1150h-300v-1150h-300z" />
    <glyph glyph-name="uni2557" unicode="&#x2557;" 
d="M750 -656v1450h-900v300h1200v-1750h-300zM150 -656v850h-300v300h600v-1150h-300z" />
    <glyph glyph-name="uni2558" unicode="&#x2558;" 
d="M450 194v1750h300v-850h600v-300h-600v-300h600v-300h-900z" />
    <glyph glyph-name="uni2559" unicode="&#x2559;" 
d="M150 494v1450h300v-1150h300v1150h300v-1150h300v-300h-1200z" />
    <glyph glyph-name="uni255A" unicode="&#x255a;" 
d="M150 194v1750h300v-1450h900v-300h-1200zM750 794v1150h300v-850h300v-300h-600z" />
    <glyph glyph-name="uni255B" unicode="&#x255b;" 
d="M-150 194v300h600v300h-600v300h600v850h300v-1750h-900z" />
    <glyph glyph-name="uni255C" unicode="&#x255c;" 
d="M-150 494v300h300v1150h300v-1150h300v1150h300v-1450h-1200z" />
    <glyph glyph-name="uni255D" unicode="&#x255d;" 
d="M-150 194v300h900v1450h300v-1750h-1200zM-150 794v300h300v850h300v-1150h-600z" />
    <glyph glyph-name="uni255E" unicode="&#x255e;" 
d="M450 -656v2600h300v-850h600v-300h-600v-300h600v-300h-600v-850h-300z" />
    <glyph glyph-name="uni255F" unicode="&#x255f;" 
d="M750 -656v2600h300v-1150h300v-300h-300v-1150h-300zM150 -656v2600h300v-2600h-300z" />
    <glyph glyph-name="uni2560" unicode="&#x2560;" 
d="M750 794v1150h300v-850h300v-300h-600zM750 -656v1150h600v-300h-300v-850h-300zM150 -656v2600h300v-2600h-300z" />
    <glyph glyph-name="uni2561" unicode="&#x2561;" 
d="M450 -656v850h-600v300h600v300h-600v300h600v850h300v-2600h-300z" />
    <glyph glyph-name="uni2562" unicode="&#x2562;" 
d="M150 -656v1150h-300v300h300v1150h300v-2600h-300zM750 -656v2600h300v-2600h-300z" />
    <glyph glyph-name="uni2563" unicode="&#x2563;" 
d="M-150 794v300h300v850h300v-1150h-600zM150 -656v850h-300v300h600v-1150h-300zM750 -656v2600h300v-2600h-300z" />
    <glyph glyph-name="uni2564" unicode="&#x2564;" 
d="M450 -656v850h-600v300h1500v-300h-600v-850h-300zM-150 794v300h1500v-300h-1500z" />
    <glyph glyph-name="uni2565" unicode="&#x2565;" 
d="M150 -656v1150h-300v300h1500v-300h-300v-1150h-300v1150h-300v-1150h-300z" />
    <glyph glyph-name="uni2566" unicode="&#x2566;" 
d="M750 -656v1150h600v-300h-300v-850h-300zM150 -656v850h-300v300h600v-1150h-300zM-150 794v300h1500v-300h-1500z" />
    <glyph glyph-name="uni2567" unicode="&#x2567;" 
d="M-150 794v300h600v850h300v-850h600v-300h-1500zM-150 194v300h1500v-300h-1500z" />
    <glyph glyph-name="uni2568" unicode="&#x2568;" 
d="M-150 494v300h300v1150h300v-1150h300v1150h300v-1150h300v-300h-1500z" />
    <glyph glyph-name="uni2569" unicode="&#x2569;" 
d="M750 794v1150h300v-850h300v-300h-600zM-150 194v300h1500v-300h-1500zM-150 794v300h300v850h300v-1150h-600z" />
    <glyph glyph-name="uni256A" unicode="&#x256a;" 
d="M450 -656v850h-600v300h600v300h-600v300h600v850h300v-850h600v-300h-600v-300h600v-300h-600v-850h-300z" />
    <glyph glyph-name="uni256B" unicode="&#x256b;" 
d="M150 -656v1150h-300v300h300v1150h300v-1150h300v1150h300v-1150h300v-300h-300v-1150h-300v1150h-300v-1150h-300z" />
    <glyph glyph-name="uni256C" unicode="&#x256c;" 
d="M750 794v1150h300v-850h300v-300h-600zM150 -656v850h-300v300h600v-1150h-300zM750 -656v1150h600v-300h-300v-850h-300zM-150 794v300h300v850h300v-1150h-600z" />
    <glyph glyph-name="uni256D" unicode="&#x256d;" 
d="M450 -656v850q0 187 72 321.5t206.5 206.5t321.5 72h300v-300h-300q-143 0 -221.5 -78.5t-78.5 -221.5v-850h-300z" />
    <glyph glyph-name="uni256E" unicode="&#x256e;" 
d="M450 -656v850q0 143 -78.5 221.5t-221.5 78.5h-300v300h300q187 0 321.5 -72t206.5 -206.5t72 -321.5v-850h-300z" />
    <glyph glyph-name="uni256F" unicode="&#x256f;" 
d="M-150 494v300h300q143 0 221.5 78.5t78.5 221.5v850h300v-850q0 -187 -72 -321.5t-206.5 -206.5t-321.5 -72h-300z" />
    <glyph glyph-name="uni2570" unicode="&#x2570;" 
d="M1050 494q-187 0 -321.5 72t-206.5 206.5t-72 321.5v850h300v-850q0 -143 78.5 -221.5t221.5 -78.5h300v-300h-300z" />
    <glyph glyph-name="uni2571" unicode="&#x2571;" 
d="M0 -606v347l1034 2153h166v-347l-1034 -2153h-166z" />
    <glyph glyph-name="uni2572" unicode="&#x2572;" 
d="M1034 -606l-1034 2153v347h166l1034 -2153v-347h-166z" />
    <glyph glyph-name="uni2573" unicode="&#x2573;" 
d="M0 -606v347l434 903l-434 903v347h166l434 -903l434 903h166v-347l-434 -903l434 -903v-347h-166l-434 903l-434 -903h-166z" />
    <glyph glyph-name="uni2574" unicode="&#x2574;" 
d="M-150 494v300h900v-300h-900z" />
    <glyph glyph-name="uni2575" unicode="&#x2575;" 
d="M450 494v1450h300v-1450h-300z" />
    <glyph glyph-name="uni2576" unicode="&#x2576;" 
d="M450 494v300h900v-300h-900z" />
    <glyph glyph-name="uni2577" unicode="&#x2577;" 
d="M450 -656v1450h300v-1450h-300z" />
    <glyph glyph-name="uni2578" unicode="&#x2578;" 
d="M-150 374v540h900v-540h-900z" />
    <glyph glyph-name="uni2579" unicode="&#x2579;" 
d="M330 494v1450h540v-1450h-540z" />
    <glyph glyph-name="uni257A" unicode="&#x257a;" 
d="M450 374v540h900v-540h-900z" />
    <glyph glyph-name="uni257B" unicode="&#x257b;" 
d="M330 -656v1450h540v-1450h-540z" />
    <glyph glyph-name="uni257C" unicode="&#x257c;" 
d="M450 374v120h-600v300h600v120h900v-540h-900z" />
    <glyph glyph-name="uni257D" unicode="&#x257d;" 
d="M330 -656v1450h120v1150h300v-1150h120v-1450h-540z" />
    <glyph glyph-name="uni257E" unicode="&#x257e;" 
d="M-150 374v540h900v-120h600v-300h-600v-120h-900z" />
    <glyph glyph-name="uni257F" unicode="&#x257f;" 
d="M450 -656v1150h-120v1450h540v-1450h-120v-1150h-300z" />
    <glyph glyph-name="upblock" unicode="&#x2580;" 
d="M0 644v1300h1200v-1300h-1200z" />
    <glyph glyph-name="uni2581" unicode="&#x2581;" 
d="M0 -656v325h1200v-325h-1200z" />
    <glyph glyph-name="uni2582" unicode="&#x2582;" 
d="M0 -656v650h1200v-650h-1200z" />
    <glyph glyph-name="uni2583" unicode="&#x2583;" 
d="M0 -656v975h1200v-975h-1200z" />
    <glyph glyph-name="dnblock" unicode="&#x2584;" 
d="M0 -656v1300h1200v-1300h-1200z" />
    <glyph glyph-name="uni2585" unicode="&#x2585;" 
d="M0 -656v1625h1200v-1625h-1200z" />
    <glyph glyph-name="uni2586" unicode="&#x2586;" 
d="M0 -656v1950h1200v-1950h-1200z" />
    <glyph glyph-name="uni2587" unicode="&#x2587;" 
d="M0 -656v2275h1200v-2275h-1200z" />
    <glyph glyph-name="block" unicode="&#x2588;" 
d="M0 -656v2600h1200v-2600h-1200z" />
    <glyph glyph-name="uni2589" unicode="&#x2589;" 
d="M0 -656v2600h1050v-2600h-1050z" />
    <glyph glyph-name="uni258A" unicode="&#x258a;" 
d="M0 -656v2600h900v-2600h-900z" />
    <glyph glyph-name="uni258B" unicode="&#x258b;" 
d="M0 -656v2600h750v-2600h-750z" />
    <glyph glyph-name="lfblock" unicode="&#x258c;" 
d="M0 -656v2600h600v-2600h-600z" />
    <glyph glyph-name="uni258D" unicode="&#x258d;" 
d="M0 -656v2600h450v-2600h-450z" />
    <glyph glyph-name="uni258E" unicode="&#x258e;" 
d="M0 -656v2600h300v-2600h-300z" />
    <glyph glyph-name="uni258F" unicode="&#x258f;" 
d="M0 -656v2600h150v-2600h-150z" />
    <glyph glyph-name="rtblock" unicode="&#x2590;" 
d="M600 -656v2600h600v-2600h-600z" />
    <glyph glyph-name="ltshade" unicode="&#x2591;" 
d="M1044 1717v114h114v-114h-114zM42 -608v114h114v-114h-114zM42 -251v114h114v-114h-114zM244 -429v114h114v-114h-114zM443 -608v114h114v-114h-114zM42 108v114h114v-114h-114zM244 -71v114h114v-114h-114zM443 -251v114h114v-114h-114zM644 -429v114h114v-114h-114z
M843 -608v114h114v-114h-114zM42 465v114h114v-114h-114zM244 286v114h114v-114h-114zM443 108v114h114v-114h-114zM644 -71v114h114v-114h-114zM843 -250v114h114v-114h-114zM1044 -429v114h114v-114h-114zM42 823v114h114v-114h-114zM244 644v114h114v-114h-114zM443 465
v114h114v-114h-114zM644 286v114h114v-114h-114zM843 108v114h114v-114h-114zM1044 -72v114h114v-114h-114zM42 1181v114h114v-114h-114zM244 1002v114h114v-114h-114zM443 823v114h114v-114h-114zM644 644v114h114v-114h-114zM843 465v114h114v-114h-114zM1044 286v114h114
v-114h-114zM42 1538v114h114v-114h-114zM244 1359v114h114v-114h-114zM443 1181v114h114v-114h-114zM644 1002v114h114v-114h-114zM843 823v114h114v-114h-114zM1044 644v114h114v-114h-114zM244 1717v114h114v-114h-114zM443 1538v114h114v-114h-114zM644 1359v114h114
v-114h-114zM843 1180v114h114v-114h-114zM1044 1002v114h114v-114h-114zM644 1717v114h114v-114h-114zM843 1538v114h114v-114h-114zM1044 1359v114h114v-114h-114z" />
    <glyph glyph-name="shade" unicode="&#x2592;" 
d="M8 1180v188h189v-188h-189zM8 823v188h189v-188h-189zM8 465v188h189v-188h-189zM8 108v188h189v-188h-189zM8 -251v189h189v-189h-189zM208 1708v188h189v-188h-189zM208 1359v189h189v-189h-189zM208 1002v188h189v-188h-189zM208 644v189h189v-189h-189zM208 286v189
h189v-189h-189zM208 -71v188h189v-188h-189zM208 -429v188h189v-188h-189zM406 1538v188h188v-188h-188zM406 1181v188h188v-188h-188zM406 823v188h188v-188h-188zM406 465v188h188v-188h-188zM406 107v189h188v-189h-188zM406 -250v188h188v-188h-188zM606 1708v188h188
v-188h-188zM606 1352v188h189v-188h-189zM606 996v188h189v-188h-189zM606 640v188h189v-188h-189zM606 284v188h189v-188h-189zM606 -73v189h189v-189h-189zM606 -429v188h189v-188h-189zM804 1538v188h188v-188h-188zM804 1181v188h188v-188h-188zM804 823v188h188v-188
h-188zM804 465v188h188v-188h-188zM804 107v189h188v-189h-188zM804 -250v188h188v-188h-188zM1004 1708v188h188v-188h-188zM1004 1352v188h188v-188h-188zM1004 996v188h188v-188h-188zM1004 640v188h188v-188h-188zM1004 284v188h188v-188h-188zM1004 -73v189h188v-189
h-188zM1004 -429v188h188v-188h-188zM8 -608v189h189v-189h-189zM406 -608v189h188v-189h-188zM804 -608v189h188v-189h-188zM8 1538v188h189v-188h-189z" />
    <glyph glyph-name="dkshade" unicode="&#x2593;" 
d="M-6 -608v2504h1212v-2504h-1212zM48 -608h102v102h-102v-102zM48 -250h102v102h-102v-102zM250 -429h102v102h-102v-102zM449 -608h102v102h-102v-102zM48 107h102v102h-102v-102zM250 -71h102v102h-102v-102zM449 -250h102v102h-102v-102zM651 -429h102v102h-102v-102z
M848 -608h102v102h-102v-102zM48 465h102v102h-102v-102zM250 286h102v102h-102v-102zM449 107h102v102h-102v-102zM651 -71h102v102h-102v-102zM848 -250h102v102h-102v-102zM1050 -429h102v102h-102v-102zM48 823h102v102h-102v-102zM250 644h102v102h-102v-102zM449 465
h102v102h-102v-102zM651 286h102v102h-102v-102zM848 107h102v102h-102v-102zM1050 -71h102v102h-102v-102zM48 1181h102v102h-102v-102zM250 1002h102v102h-102v-102zM449 823h102v102h-102v-102zM651 644h102v102h-102v-102zM848 465h102v102h-102v-102zM1050 286h102v102
h-102v-102zM48 1538h102v102h-102v-102zM250 1359h102v102h-102v-102zM448 1181h102v102h-102v-102zM650 1002h102v102h-102v-102zM848 823h102v102h-102v-102zM1050 644h102v102h-102v-102zM250 1717h102v102h-102v-102zM448 1538h102v102h-102v-102zM650 1359h102v102
h-102v-102zM848 1181h102v102h-102v-102zM1050 1002h102v102h-102v-102zM650 1717h102v102h-102v-102zM848 1538h102v102h-102v-102zM1050 1359h102v102h-102v-102zM1050 1717h102v102h-102v-102z" />
    <glyph glyph-name="uni2594" unicode="&#x2594;" 
d="M0 1619v325h1200v-325h-1200z" />
    <glyph glyph-name="uni2595" unicode="&#x2595;" 
d="M1050 -656v2600h150v-2600h-150z" />
    <glyph glyph-name="uni2596" unicode="&#x2596;" 
d="M0 -656v1300h600v-1300h-600z" />
    <glyph glyph-name="uni2597" unicode="&#x2597;" 
d="M600 -656v1300h600v-1300h-600z" />
    <glyph glyph-name="uni2598" unicode="&#x2598;" 
d="M0 644v1300h600v-1300h-600z" />
    <glyph glyph-name="uni2599" unicode="&#x2599;" 
d="M0 -656v2600h600v-1300h600v-1300h-1200z" />
    <glyph glyph-name="uni259A" unicode="&#x259a;" 
d="M0 644v1300h600v-1300h-600zM600 -656v1300h600v-1300h-600z" />
    <glyph glyph-name="uni259B" unicode="&#x259b;" 
d="M0 -656v2600h1200v-1300h-600v-1300h-600z" />
    <glyph glyph-name="uni259C" unicode="&#x259c;" 
d="M600 -656v1300h-600v1300h1200v-2600h-600z" />
    <glyph glyph-name="uni259D" unicode="&#x259d;" 
d="M600 644v1300h600v-1300h-600z" />
    <glyph glyph-name="uni259E" unicode="&#x259e;" 
d="M600 644v1300h600v-1300h-600zM0 -656v1300h600v-1300h-600z" />
    <glyph glyph-name="uni259F" unicode="&#x259f;" 
d="M0 -656v1300h600v1300h600v-2600h-1200z" />
    <glyph glyph-name="filledbox" unicode="&#x25a0;" 
d="M110 226v980h980v-980h-980z" />
    <glyph glyph-name="uni25A1" unicode="&#x25a1;" 
d="M78 194v1044h1044v-1044h-1044zM256 367h688v698h-688v-698z" />
    <glyph glyph-name="uni25AA" unicode="&#x25aa;" 
d="M318 302v564h565v-564h-565z" />
    <glyph glyph-name="uni25AB" unicode="&#x25ab;" 
d="M247 231v706h706v-706h-706zM395 377h409v413h-409v-413z" />
    <glyph glyph-name="filledrect" unicode="&#x25ac;" 
d="M52 369v319h1096v-319h-1096z" />
    <glyph glyph-name="triagup" unicode="&#x25b2;" 
d="M90 190l510 1100l510 -1100h-1020z" />
    <glyph glyph-name="triagrt" unicode="&#x25ba;" 
d="M70 206v1020l1100 -510z" />
    <glyph glyph-name="triagdn" unicode="&#x25bc;" 
d="M600 166l-510 1100h1020z" />
    <glyph glyph-name="triaglf" unicode="&#x25c4;" 
d="M1130 206l-1100 510l1100 510v-1020z" />
    <glyph glyph-name="uni25C6" unicode="&#x25c6;" 
d="M600 184l-532 532l532 532l532 -532z" />
    <glyph glyph-name="uni25C9" unicode="&#x25c9;" 
d="M600 142q-164 0 -294 75t-205 205t-75 294q0 165 75 294.5t205 204.5t294 75q165 0 295 -74.5t204.5 -204.5t74.5 -295q0 -164 -74.5 -294t-204.5 -205t-295 -75zM808 359.5q92 53.5 145 146.5t53 210.5t-53 210t-145 146t-208 53.5t-208 -53.5t-145 -146t-53 -210
t53 -210.5t145 -146.5t208 -53.5t208 53.5zM460.5 472q-61.5 36 -97 99.5t-35.5 144.5t35.5 144.5t97 99.5t140 36t139.5 -36t96.5 -99.5t35.5 -144.5t-35.5 -144.5t-96.5 -99.5t-139.5 -36t-140 36z" />
    <glyph glyph-name="lozenge" unicode="&#x25ca;" 
d="M491 -34l-419 750l419 750h219l418 -750l-418 -750h-219zM600 269l289 533v-172l-289 534l-288 -534v172z" />
    <glyph glyph-name="circle" unicode="&#x25cb;" 
d="M306 217q-130 75 -205 205t-75 294.5t75 294t205 204.5t294 75q165 0 295 -74.5t204.5 -204.5t74.5 -295q0 -164 -75 -294t-204.5 -205t-294 -75t-294.5 75zM802.5 371q88.5 51 139.5 140.5t51 205t-51 205t-139.5 140.5t-202.5 51t-202.5 -51t-139 -140.5t-50.5 -205
t50.5 -205t139 -140.5t202.5 -51t202.5 51z" />
    <glyph glyph-name="uni25CC" unicode="&#x25cc;" 
d="M979 459q-21 21 -21 51t21 51t51 21t51 -21t21 -51t-21 -51t-51 -21t-51 21zM228 223q-30 0 -51 21t-21 51t21 51t51 21q29 0 50 -21t21 -51t-21 -51t-50 -21zM334 87q-21 21 -21 51q0 29 21 50t51 21t51 -21t21 -50q0 -30 -21 -51t-51 -21t-51 21zM119 459
q-21 21 -21 51t21 51t51 21t51 -21t21 -51t-21 -51t-51 -21t-51 21zM549 29q-21 21 -21 51t21 51t51 21t51 -21t21 -51t-21 -51t-51 -21t-51 21zM228 653q-30 0 -51 21t-21 51t21 51t51 21q29 0 50 -21t21 -51t-21 -51t-50 -21zM764 87q-21 21 -21 51q0 29 21 50t51 21
t51 -21t21 -50q0 -30 -21 -51t-51 -21t-51 21zM334 832q-21 21 -21 50q0 30 21 51t51 21t51 -21t21 -51q0 -29 -21 -50t-51 -21t-51 21zM972 223q-29 0 -50 21t-21 51t21 51t50 21q30 0 51 -21t21 -51t-21 -51t-51 -21zM549 889q-21 21 -21 51t21 51t51 21t51 -21t21 -51
t-21 -51t-51 -21t-51 21zM972 653q-29 0 -50 21t-21 51t21 51t50 21q30 0 51 -21t21 -51t-21 -51t-51 -21zM764 832q-21 21 -21 50q0 30 21 51t51 21t51 -21t21 -51q0 -29 -21 -50t-51 -21t-51 21z" />
    <glyph glyph-name="uni25CF" unicode="&#x25cf;" 
d="M339 268q-116 68 -183.5 185t-67.5 263t67.5 263t183.5 185t261 68t261 -68t183.5 -185t67.5 -263t-67.5 -263t-183.5 -185t-261 -68t-261 68z" />
    <glyph glyph-name="invcircle" unicode="&#x25d9;" 
d="M27 143v1146h1146v-1146h-1146zM600 165q156 0 280.5 73t197.5 198t73 280q0 156 -73 281t-197.5 197.5t-280.5 72.5q-155 0 -280 -73t-198 -197.5t-73 -280t73 -280.5t198 -198t280 -73zM407.5 385q-85.5 50 -135 136.5t-49.5 195t49.5 194.5t135 136t192.5 50
t192.5 -50t135 -136t49.5 -194.5t-49.5 -195t-135 -136.5t-192.5 -50t-192.5 50z" />
    <glyph glyph-name="uniFFFD" unicode="&#xfffd;" 
d="M600 138l-590 578l590 578l590 -578zM659.5 350q25.5 26 25.5 63t-25.5 62t-63.5 25q-37 0 -63 -25t-26 -62t26 -63t63.5 -26t63 26zM531 564h118v57l69 41q64 38 91.5 81.5t27.5 101.5q0 86 -59 139.5t-158 53.5q-97 0 -165.5 -48t-97.5 -134l112 -38q36 110 147 110
q103 0 103 -82v-6q0 -59 -85 -109l-103 -61v-106z" />
    <glyph glyph-name="g.ss01" 
d="M607 -459q-131 0 -238.5 44t-173.5 124l183 194q91 -112 223 -112q98 0 152 58.5t54 164.5v196h-9q-38 -90 -113 -138.5t-170 -48.5q-127 0 -222 66t-148 184.5t-53 275.5v12q0 157 51.5 275t143.5 184t213 66q101 0 172 -44.5t115 -135.5h9v146h286v-1028
q0 -148 -58 -256.5t-164.5 -167.5t-252.5 -59zM591 273q92 0 145.5 75.5t53.5 202.5v8q0 127 -53.5 202t-144.5 75q-94 0 -146 -73t-52 -204v-8q0 -131 52 -204.5t145 -73.5z" />
    <glyph glyph-name="Eng.loclNSM" 
d="M697 -465q-103 0 -194.5 32t-168.5 94l167 238q86 -74 179 -74q70 0 108 41t38 120v154l28 -140l-498 944h-8l20 -329v-615h-298v1432h305l468 -906h8l-20 329v577h299v-1436q0 -138 -54.5 -241.5t-152 -161.5t-226.5 -58z" />
    <glyph glyph-name="IJacute" 
d="M613 -34q-193 0 -322.5 97.5t-182.5 278.5l299 91q49 -169 199 -169q84 0 130 56t46 157v955h310v-963q0 -150 -59.5 -263.5t-167.5 -176.5t-252 -63zM108 615v817h310v-817h-310zM90 1638v14l208 364h348v-13l-290 -365h-266zM766 1638v14l208 364h348v-13l-290 -365
h-266z" />
    <glyph glyph-name="ijacute" 
d="M683 -449q-201 0 -368 121l145 225q55 -40 105 -60t104 -20q82 0 125.5 48t43.5 137v1050h300v-1040q0 -215 -121.5 -338t-333.5 -123zM23 0v225h679v-225h-679zM217 80v972h297v-972h-297zM33 828v224h460v-224h-460zM626 828v224h435v-224h-435zM181 1258v14l208 364
h348v-13l-290 -365h-266zM805 1258v14l208 364h348v-13l-290 -365h-266z" />
    <glyph glyph-name="uni03020300" horiz-adv-x="0" 
d="M-461 1164v13l341 354h240l342 -354v-13h-302l-179 224h39l-179 -224h-302zM361 1469l-268 405v13h263l211 -405v-13h-206z" />
    <glyph glyph-name="uni03020301" horiz-adv-x="0" 
d="M-461 1164v13l341 354h240l342 -354v-13h-302l-179 224h39l-179 -224h-302zM231 1471v13l152 405h256v-13l-223 -405h-185z" />
    <glyph glyph-name="uni03020303" horiz-adv-x="0" 
d="M-461 1164v13l341 354h240l342 -354v-13h-302l-179 224h39l-179 -224h-302zM207 1620q-52 0 -97 17.5t-95 51.5q-55 38 -86 53t-62 15q-65 0 -65 -78v-56h-210v80q0 122 57 188t157 66q52 0 96 -17.5t93 -52.5q55 -38 85.5 -52.5t57.5 -14.5q61 0 61 77v57h210v-80
q0 -125 -52 -189.5t-150 -64.5z" />
    <glyph glyph-name="uni03020309" horiz-adv-x="0" 
d="M-461 1164v13l341 354h240l342 -354v-13h-302l-179 224h39l-179 -224h-302zM317 1416l-23 171q121 9 121 81q0 75 -113 75q-75 0 -148 -22l-43 174q90 33 197 33q129 0 206 -67t77 -178q0 -113 -72 -183t-202 -84z" />
    <glyph glyph-name="uni03060300" horiz-adv-x="0" 
d="M-209 1209q-90 48 -140.5 133t-50.5 196v8h206v-11q0 -86 51.5 -137.5t142.5 -51.5q92 0 143.5 51.5t51.5 137.5v11h206v-8q0 -111 -50.5 -196t-141 -133t-209.5 -48t-209 48zM-42 1523l-261 384v14h282l147 -385v-13h-168z" />
    <glyph glyph-name="uni03060301" horiz-adv-x="0" 
d="M-209 1209q-90 48 -140.5 133t-50.5 196v8h206v-11q0 -86 51.5 -137.5t142.5 -51.5q92 0 143.5 51.5t51.5 137.5v11h206v-8q0 -111 -50.5 -196t-141 -133t-209.5 -48t-209 48zM-116 1523v13l115 385h287v-14l-242 -384h-160z" />
    <glyph glyph-name="uni03060303" horiz-adv-x="0" 
d="M0 1161q-114 0 -200 46.5t-134 129t-48 190.5v8h211v-11q0 -83 46 -131.5t125.5 -48.5t125.5 48.5t46 131.5v11h211v-8q0 -108 -48 -190.5t-134 -129t-201 -46.5zM211 1637q-53 0 -99 18t-97 53q-57 40 -88 55t-63 15q-31 0 -48.5 -18.5t-17.5 -53.5v-65h-210v91
q0 119 57 183t157 64q53 0 98.5 -19t94.5 -54q57 -40 88 -54.5t59 -14.5q61 0 61 71v67h210v-91q0 -121 -52 -184t-150 -63z" />
    <glyph glyph-name="uni03060309" horiz-adv-x="0" 
d="M0 1161q-119 0 -212 48.5t-146 134.5t-53 197v9h202v-12q0 -90 53.5 -143t155.5 -53q103 0 156.5 53t53.5 143v12h201v-9q0 -111 -52.5 -197t-145.5 -134.5t-213 -48.5zM-70 1475l-18 160q128 9 128 80q0 72 -118 72q-76 0 -152 -22l-46 173q99 33 204 33
q132 0 209.5 -64.5t77.5 -174.5q0 -106 -75.5 -174.5t-209.5 -82.5z" />
    <glyph glyph-name="Ohorn.alt" 
d="M596 -34q-168 0 -288.5 87.5t-185.5 250.5t-65 390v44q0 228 65 391t188.5 250t297.5 87q64 0 113.5 -10t87.5 -10q96 0 96 97q0 35 -6.5 69t-17.5 72l299 69q27 -84 27 -163q0 -124 -97.5 -199t-271.5 -75h-89l21 84q182 -64 274 -229.5t92 -432.5v-44q0 -227 -65 -390
t-185.5 -250.5t-289.5 -87.5zM596 261q113 0 171.5 109t58.5 319v70q0 209 -53 316t-165 107q-118 0 -180 -112t-62 -327v-54q0 -210 59 -319t171 -109z" />
    <glyph glyph-name="Uhorn.alt" 
d="M284.5 24.5q-105.5 58.5 -163.5 163.5t-58 244v1000h294v-987q0 -89 46.5 -140.5t128.5 -51.5t128.5 51.5t46.5 140.5v987h103q62 0 89.5 26.5t27.5 81.5q0 37 -7.5 79t-20.5 83l287 84q33 -96 33 -183q0 -151 -101.5 -226.5t-271.5 -75.5h-51l202 117v-986
q0 -139 -58.5 -244t-163.5 -163.5t-245 -58.5t-245.5 58.5z" />
    <glyph glyph-name="ohorn.alt" 
d="M583 -34q-159 0 -274.5 69t-177.5 192.5t-62 287.5v22q0 165 62 288.5t177.5 192t274.5 68.5q62 0 106 -6.5t87 -6.5q115 0 115 106q0 58 -24 118l290 74q12 -37 18.5 -73.5t6.5 -74.5q0 -130 -98.5 -202.5t-276.5 -72.5h-84l38 84q162 -52 249 -182.5t87 -312.5v-22
q0 -167 -63.5 -290.5t-178.5 -191t-272 -67.5zM583 232q102 0 158 76t56 211v14q0 139 -56 216.5t-158 77.5q-103 0 -158.5 -77.5t-55.5 -216.5v-14q0 -135 55.5 -211t158.5 -76z" />
    <glyph glyph-name="uhorn.alt" 
d="M419 -34q-136 0 -213 88.5t-77 240.5v757h289v-693q0 -70 35.5 -109.5t99.5 -39.5q73 0 115 53.5t42 144.5v644h101q100 0 100 87q0 32 -6 66.5t-16 68.5l286 71q22 -79 22 -152q0 -124 -96 -194t-242 -70h-72l212 121v-1050h-288v146h-10q-44 -79 -115 -129.5
t-167 -50.5z" />
  </font>
</defs>
</svg>
