<?xml version="1.0" standalone="no"?>
<!DOCTYPE svg PUBLIC "-//W3C//DTD SVG 1.1//EN" "http://www.w3.org/Graphics/SVG/1.1/DTD/svg11.dtd" >
<svg xmlns="http://www.w3.org/2000/svg" xmlns:xlink="http://www.w3.org/1999/xlink" version="1.1">
<metadata>
Created by FontForge 20201107 at Thu Aug 21 16:28:35 2025
 By www-data
Copyright 2025 The Google Sans Code Project Authors (github.com/googlefonts/googlesans-code)
</metadata>
<defs>
<font id="GoogleSansCode-SemiBold" horiz-adv-x="1200" >
  <font-face 
    font-family="Google Sans Code SemiBold"
    font-weight="600"
    font-stretch="normal"
    units-per-em="2000"
    panose-1="2 11 5 9 3 5 2 4 2 4"
    ascent="1600"
    descent="-400"
    x-height="1050"
    cap-height="1432"
    bbox="-435 -868 1335 2340"
    underline-thickness="168"
    underline-position="-404"
    unicode-range="U+000D-FFFD"
  />
<missing-glyph 
d="M174 0v1432h852v-1432h-852zM302 120h596v1192h-596v-1192z" />
    <glyph glyph-name=".notdef" 
d="M174 0v1432h852v-1432h-852zM302 120h596v1192h-596v-1192z" />
    <glyph glyph-name=".null" horiz-adv-x="0" 
 />
    <glyph glyph-name="nonmarkingreturn" horiz-adv-x="666" 
 />
    <glyph glyph-name="NULL" 
 />
    <glyph glyph-name="NULL" 
 />
    <glyph glyph-name="CR" unicode="&#xd;" 
 />
    <glyph glyph-name="space" unicode=" " 
 />
    <glyph glyph-name="exclam" unicode="!" 
d="M468 581l-34 912h332l-34 -912h-264zM463.5 24q-55.5 56 -55.5 136t55.5 136t136.5 56t136.5 -56t55.5 -136t-55.5 -136t-136.5 -56t-136.5 56z" />
    <glyph glyph-name="quotedbl" unicode="&#x22;" 
d="M223 901v559h294v-559h-294zM683 901v559h294v-559h-294z" />
    <glyph glyph-name="numbersign" unicode="#" 
d="M609 -17l205 1467h205l-205 -1467h-205zM181 -17l205 1467h205l-205 -1467h-205zM30 348v204h1066v-204h-1066zM103 881v204h1067v-204h-1067z" />
    <glyph glyph-name="dollar" unicode="$" 
d="M618 0q-203 0 -341.5 100.5t-183.5 284.5l252 80q29 -120 103.5 -180t183.5 -60q96 0 150.5 45.5t54.5 126.5v8q0 70 -39 114.5t-128 77.5l-197 73q-166 62 -246.5 154.5t-80.5 219.5v13q0 114 58.5 198.5t164.5 130.5t250 46q177 0 294 -79t164 -226l-250 -85
q-29 83 -84 125t-143 42q-90 0 -140 -39.5t-50 -107.5v-5q0 -58 37.5 -95.5t125.5 -70.5l198 -74q172 -64 252 -160.5t80 -242.5v-12q0 -122 -60.5 -212.5t-169.5 -140t-255 -49.5zM514 -236v327v46v52h195v-52v-46v-327h-195zM514 1256v46v50v316h195v-316v-50v-46h-195z
" />
    <glyph glyph-name="percent" unicode="%" 
d="M145 238l-130 164l1041 793l129 -165zM857 -33q-92 0 -162 41.5t-110 113t-40 160.5v8q0 91 40 162.5t110 112.5t162 41t162.5 -41t110 -112.5t39.5 -162.5v-8q0 -89 -39.5 -160.5t-110 -113t-162.5 -41.5zM857 140q57 0 92 40t35 105v3q0 65 -35 105t-92 40t-92 -40
t-35 -105v-3q0 -65 35 -105t92 -40zM343 826q-92 0 -162 41.5t-110 113t-40 160.5v8q0 91 40 162.5t110 112.5t162 41t162.5 -41t110 -112.5t39.5 -162.5v-8q0 -89 -39.5 -160.5t-110 -113t-162.5 -41.5zM343 999q57 0 92 40t35 105v3q0 65 -35 105t-92 40t-92 -40t-35 -105
v-3q0 -65 35 -105t92 -40z" />
    <glyph glyph-name="ampersand" unicode="&#x26;" 
d="M1011 -55l-660 726q-81 90 -130.5 161t-71 134t-21.5 129v2q0 109 52 192t145.5 129.5t215.5 46.5q158 0 265.5 -80t167.5 -242l-232 -84q-34 85 -80 123.5t-115 38.5q-71 0 -113 -39t-42 -104v-8q0 -49 29.5 -102t100.5 -129l668 -724zM481 -33q-134 0 -234.5 52.5
t-156.5 146t-56 215.5v14q0 165 86.5 275.5t246.5 175.5l117 -157q-93 -34 -140.5 -97.5t-47.5 -161.5v-22q0 -97 58 -151t161 -54q98 0 165 61.5t112.5 202.5t75.5 380l249 -37q-46 -271 -137 -459t-218 -286t-281 -98z" />
    <glyph glyph-name="quotesingle" unicode="'" 
d="M453 901v559h294v-559h-294z" />
    <glyph glyph-name="parenleft" unicode="(" 
d="M897 1662l148 -195q-228 -168 -337.5 -361.5t-109.5 -441.5t109.5 -441.5t337.5 -361.5l-148 -196q-192 140 -317 293t-186 327t-61 379t61 379t186 326.5t317 292.5z" />
    <glyph glyph-name="parenright" unicode=")" 
d="M303 -331l-148 196q228 168 337.5 361.5t109.5 441.5t-109.5 441.5t-337.5 361.5l148 196q192 -140 317 -293t186 -327t61 -379t-61 -379t-186 -326.5t-317 -293.5z" />
    <glyph glyph-name="asterisk" unicode="*" 
d="M168 413l-102 178l500 254l466 290l102 -178l-500 -256zM1032 413l-466 288l-500 256l102 178l466 -290l500 -254zM499 211v1126h202v-1126h-202z" />
    <glyph glyph-name="plus" unicode="+" 
d="M468 161v958h264v-958h-264zM114 515v250h972v-250h-972z" />
    <glyph glyph-name="comma" unicode="," 
d="M493 -366l-150 106l264 345l-4 -80q-44 -2 -86.5 17.5t-69.5 58.5t-27 95q0 77 51.5 129.5t135.5 52.5q90 0 141.5 -56t51.5 -142q0 -60 -23 -114t-71 -119z" />
    <glyph glyph-name="hyphen" unicode="-" 
d="M137 506v266h926v-266h-926z" />
    <glyph glyph-name="period" unicode="." 
d="M600 -28q-81 0 -136.5 55.5t-55.5 136.5q0 80 56 135.5t136 55.5q82 0 137 -55.5t55 -135.5q0 -81 -55 -136.5t-137 -55.5z" />
    <glyph glyph-name="slash" unicode="/" 
d="M106 -176l727 1636h261l-727 -1636h-261z" />
    <glyph glyph-name="zero" unicode="0" 
d="M212 386l-84 203l861 458l83 -203zM601 -33q-244 0 -381 188.5t-137 532.5v58q0 344 137 531.5t381 187.5t380 -187.5t136 -531.5v-58q0 -344 -136 -532.5t-380 -188.5zM595 206q135 0 201.5 119t66.5 354v76q0 242 -64.5 356.5t-193.5 114.5q-135 0 -201.5 -118
t-66.5 -353v-76q0 -242 64.5 -357.5t193.5 -115.5z" />
    <glyph glyph-name="one" unicode="1" 
d="M545 100v1010l-313 -160l-115 226l507 256h187v-1332h-266zM171 0v248h970v-248h-970z" />
    <glyph glyph-name="two" unicode="2" 
d="M126 0v219l489 542q83 92 113.5 151t30.5 125v8q0 74 -42.5 116t-118.5 42q-149 0 -224 -173l-252 100q66 162 195 248.5t301 86.5q126 0 221.5 -49t148.5 -136t53 -204v-10q0 -73 -22 -139t-74.5 -141.5t-145.5 -176.5l-321 -350v-9h589v-250h-941z" />
    <glyph glyph-name="three" unicode="3" 
d="M636 -33q-213 0 -355.5 102t-194.5 287l242 80q30 -106 104 -162t184 -56q98 0 157 49t59 134v22q0 87 -60.5 136t-177.5 49h-172v246h144q105 0 163.5 46.5t58.5 130.5v18q0 75 -50 120.5t-139 45.5q-86 0 -148 -44t-87 -124l-246 81q51 158 183.5 247.5t315.5 89.5
q132 0 231 -47.5t154.5 -132t55.5 -196.5v-10q0 -122 -65 -209t-187 -125v-7q142 -29 218 -124.5t76 -226.5v-14q0 -119 -59 -211t-163.5 -143.5t-241.5 -51.5z" />
    <glyph glyph-name="four" unicode="4" 
d="M671 0v434l14 46v671l55 -68h-62l-357 -529v-7h463l63 12h287v-236h-1078v213l605 896h272v-1432h-262z" />
    <glyph glyph-name="five" unicode="5" 
d="M597 -33q-126 0 -230 46.5t-176.5 132.5t-105.5 205l240 85q29 -105 99 -161.5t172 -56.5q110 0 175 63.5t65 170.5v23q0 104 -62 165.5t-164 61.5q-70 0 -129.5 -27.5t-105.5 -81.5l-243 75l99 764h791v-244h-597l-54 -382l7 -4q64 63 143 95.5t172 32.5
q124 0 216.5 -58t144 -161t51.5 -240v-13q0 -147 -63.5 -258t-178 -172t-266.5 -61z" />
    <glyph glyph-name="six" unicode="6" 
d="M598 -31q-147 0 -260 64.5t-177.5 177.5t-64.5 258v14q0 89 24 176t76.5 182t137.5 209l330 435l218 -158l-244 -292q-39 -46 -75 -81t-79 -69l4 -7q92 55 208 55q123 0 214.5 -59t142.5 -162.5t51 -235.5v-13q0 -144 -64.5 -255.5t-178.5 -175t-263 -63.5zM600 222
q109 0 171.5 65.5t62.5 171.5v23q0 107 -62 172.5t-172 65.5q-108 0 -171 -65.5t-63 -172.5v-23q0 -106 62.5 -171.5t171.5 -65.5z" />
    <glyph glyph-name="seven" unicode="7" 
d="M473 -33l-243 113l540 1092v7h-654v253h968v-214z" />
    <glyph glyph-name="eight" unicode="8" 
d="M346 20q-111 53 -174.5 147t-63.5 215v9q0 122 67.5 222t180.5 145v7q-93 45 -147 129.5t-54 182.5v6q0 114 56.5 199.5t156.5 134t232 48.5t232 -48.5t156.5 -134t56.5 -199.5v-6q0 -99 -54 -182t-147 -130v-7q113 -45 180.5 -145.5t67.5 -221.5v-9q0 -121 -63.5 -215
t-174 -147t-254 -53t-254.5 53zM600 205q102 0 164.5 58.5t62.5 153.5v18q0 96 -62.5 154t-164.5 58t-164 -58t-62 -154v-18q0 -95 62 -153.5t164 -58.5zM735.5 912q51.5 48 51.5 127v16q0 80 -51 128t-136 48q-84 0 -135.5 -48t-51.5 -128v-16q0 -78 51.5 -126.5
t135.5 -48.5t135.5 48z" />
    <glyph glyph-name="nine" unicode="9" 
d="M602 1463q147 0 260 -64.5t177.5 -177t64.5 -258.5v-14q0 -89 -24 -176t-76 -182t-138 -209l-330 -435l-218 158l244 292q39 46 75 81t79 69l-4 7q-92 -55 -208 -55q-122 0 -214 59t-143 162.5t-51 235.5v13q0 145 64.5 256t179 174.5t262.5 63.5zM600 1210
q-109 0 -171.5 -65t-62.5 -172v-23q0 -107 62 -172.5t172 -65.5q109 0 171.5 66t62.5 172v23q0 107 -62.5 172t-171.5 65z" />
    <glyph glyph-name="colon" unicode=":" 
d="M600 703q-80 0 -136 55t-56 135t56 135t136 55q82 0 137 -55t55 -135t-55 -135t-137 -55zM600 -30q-80 0 -136 55t-56 136q0 80 56 135t136 55q82 0 137 -55t55 -135q0 -81 -55 -136t-137 -55z" />
    <glyph glyph-name="semicolon" unicode=";" 
d="M609 701q-81 0 -136.5 55.5t-55.5 136.5q0 80 56 135.5t136 55.5q82 0 137 -55.5t55 -135.5q0 -81 -55 -136.5t-137 -55.5zM493 -366l-150 106l264 345l-4 -80q-44 -2 -86.5 17.5t-69.5 58.5t-27 95q0 77 51.5 129.5t135.5 52.5q90 0 141.5 -56t51.5 -142q0 -60 -23 -114
t-71 -119z" />
    <glyph glyph-name="less" unicode="&#x3c;" 
d="M1050 46l-933 488v211l933 488v-264l-639 -324v-11l639 -324v-264z" />
    <glyph glyph-name="equal" unicode="=" 
d="M117 762v234h966v-234h-966zM117 282v235h966v-235h-966z" />
    <glyph glyph-name="greater" unicode="&#x3e;" 
d="M150 46v264l639 324v11l-639 324v264l933 -488v-211z" />
    <glyph glyph-name="question" unicode="?" 
d="M444 467v264l201 116q91 52 130 101t39 108v12q0 69 -48 108t-133 39q-99 0 -172 -53.5t-107 -150.5l-252 83q59 175 200.5 273t334.5 98q135 0 235.5 -50.5t156 -139t55.5 -204.5v-3q0 -116 -55.5 -204t-179.5 -161l-135 -80v-156h-270zM579 -33q-78 0 -133 55.5
t-55 132.5q0 78 55 130.5t133 52.5q79 0 133 -52.5t54 -130.5q0 -77 -54.5 -132.5t-132.5 -55.5z" />
    <glyph glyph-name="at" unicode="@" 
d="M706 -233q-318 0 -488 232t-170 664v50q0 437 152 665.5t444 228.5q226 0 352 -141.5t126 -394.5v-846h-202v129h-7q-42 -73 -93.5 -106.5t-122.5 -33.5q-92 0 -161.5 54t-108.5 152t-39 227v26q0 130 39.5 227.5t110.5 152.5t165 55q71 0 122 -33.5t88 -105.5h7v97
q0 166 -69 251t-204 85q-194 0 -288.5 -169t-94.5 -515v-60q0 -340 110.5 -512.5t329.5 -172.5q154 0 289 101l109 -182q-165 -125 -396 -125zM752 409q76 0 119 62t43 172v36q0 110 -43.5 172t-118.5 62q-77 0 -121 -62.5t-44 -171.5v-36q0 -110 44 -172t121 -62z" />
    <glyph glyph-name="A" unicode="A" 
d="M30 0l445 1432h254l441 -1432h-276l-249 944l-44 192h-7l-42 -192l-251 -944h-271zM231 307l68 216h590l73 -216h-731z" />
    <glyph glyph-name="B" unicode="B" 
d="M144 0v1432h499q188 0 297.5 -94t109.5 -252v-24q0 -111 -54.5 -191t-156.5 -119v-8q126 -31 197 -122t71 -222v-24q0 -114 -54 -198.5t-152.5 -131t-232.5 -46.5h-524zM406 220h228q100 0 154 50.5t54 143.5v20q0 93 -56 143t-161 50h-283v216h252q92 0 141.5 45.5
t49.5 130.5v16q0 86 -49 131.5t-142 45.5h-188v-992z" />
    <glyph glyph-name="C" unicode="C" 
d="M656 -33q-173 0 -301.5 90t-199.5 253.5t-71 384.5v42q0 224 69 387.5t195 252t299 88.5q179 0 301 -98t171 -282l-246 -79q-31 108 -86 157.5t-144 49.5q-137 0 -211.5 -122.5t-74.5 -348.5v-52q0 -223 78.5 -347t219.5 -124q177 0 236 211l247 -77
q-49 -185 -174.5 -285.5t-307.5 -100.5z" />
    <glyph glyph-name="D" unicode="D" 
d="M124 0v1432h405q180 0 311 -84.5t201.5 -240t70.5 -370.5v-42q0 -214 -70.5 -370t-201.5 -240.5t-311 -84.5h-405zM389 250h135q157 0 236 110.5t79 329.5v52q0 219 -79.5 329.5t-235.5 110.5h-135v-932z" />
    <glyph glyph-name="E" unicode="E" 
d="M157 0v1432h864v-249h-598v-934h614v-249h-880zM319 608v248h622v-248h-622z" />
    <glyph glyph-name="F" unicode="F" 
d="M157 0v1432h880v-250h-612v-1182h-268zM319 567v247h658v-247h-658z" />
    <glyph glyph-name="G" unicode="G" 
d="M648 -33q-179 0 -309 87.5t-199.5 250.5t-69.5 389v37q0 228 69.5 392.5t198 253t306.5 88.5q179 0 300 -88.5t175 -258.5l-241 -89q-29 96 -85.5 141t-145.5 45q-149 0 -228.5 -124t-79.5 -355v-47q0 -231 80 -352.5t231 -121.5q122 0 188.5 83t66.5 236v47h-296v223
h545v-222q0 -294 -132 -454.5t-374 -160.5z" />
    <glyph glyph-name="H" unicode="H" 
d="M799 0v1432h268v-1432h-268zM133 0v1432h268v-1432h-268zM297 607v248h615v-248h-615z" />
    <glyph glyph-name="I" unicode="I" 
d="M465 123v1186h270v-1186h-270zM154 0v251h892v-251h-892zM154 1182v250h892v-250h-892z" />
    <glyph glyph-name="J" unicode="J" 
d="M601 -33q-180 0 -307 99.5t-173 276.5l247 77q52 -201 223 -201q91 0 138 62t47 182v969h269v-976q0 -150 -54.5 -260t-154 -169.5t-235.5 -59.5z" />
    <glyph glyph-name="K" unicode="K" 
d="M855 0l-479 719v7l461 706h307l-508 -753v104l530 -783h-311zM116 0v1432h267v-1432h-267z" />
    <glyph glyph-name="L" unicode="L" 
d="M174 0v1432h267v-1180h653v-252h-920z" />
    <glyph glyph-name="M" unicode="M" 
d="M64 0v1432h263l183 -462l84 -264h12l84 264l183 462h263v-1432h-250v576l28 430h-12l-212 -566h-180l-212 566h-12l28 -430v-576h-250z" />
    <glyph glyph-name="N" unicode="N" 
d="M83 0v1432h266l520 -964h7l-21 330v634h262v-1432h-242l-545 1009h-7l21 -330v-679h-261z" />
    <glyph glyph-name="O" unicode="O" 
d="M312.5 54.5q-120.5 87.5 -185 250.5t-64.5 390v42q0 227 64.5 390t185 250.5t287.5 87.5t287.5 -87.5t185 -250.5t64.5 -390v-42q0 -227 -64.5 -390t-185 -250.5t-287.5 -87.5t-287.5 87.5zM797 340q68 121 68 350v52q0 229 -68.5 350t-196.5 121t-196.5 -121t-68.5 -350
v-52q0 -229 68.5 -350t197 -121t196.5 121z" />
    <glyph glyph-name="P" unicode="P" 
d="M137 0v1432h460q150 0 260 -56.5t170 -161t60 -248.5v-24q0 -142 -60 -247t-170 -161.5t-260 -56.5h-307v242h301q106 0 166 58t60 161v34q0 102 -60 159.5t-166 57.5h-189v-1189h-265z" />
    <glyph glyph-name="Q" unicode="Q" 
d="M598 5q-161 0 -281.5 83.5t-187 238t-66.5 368.5v42q0 227 64.5 390.5t185 250.5t287.5 87t287.5 -87t185 -250.5t64.5 -390.5v-42q0 -214 -63.5 -368.5t-183.5 -238t-292 -83.5zM1044 -406q-102 0 -180 49t-158 166q-45 66 -74.5 99.5t-53.5 46t-55 12.5
q-59 0 -95 -57.5t-53 -177.5l-266 46q30 190 136.5 290.5t268.5 100.5q105 0 182 -43t147 -134q65 -83 110 -112.5t100 -29.5q45 0 91 21l57 -244q-76 -33 -157 -33zM600 213q128 0 196.5 120t68.5 353v52q0 231 -68.5 353t-196.5 122t-196.5 -122t-68.5 -353v-52
q0 -233 68.5 -353t196.5 -120z" />
    <glyph glyph-name="R" unicode="R" 
d="M129 0v1432h458q151 0 260 -53.5t168.5 -153.5t59.5 -236v-16q0 -137 -59.5 -236.5t-169 -153.5t-259.5 -54h-305v228h299q106 0 165.5 54t59.5 149v26q0 95 -59.5 149t-165.5 54h-186v-1189h-266zM858 0l-364 630h293l372 -630h-301z" />
    <glyph glyph-name="S" unicode="S" 
d="M643 -33q-144 0 -261 50t-198 145t-118 226l246 71q35 -120 119.5 -184t209.5 -64q102 0 158.5 43.5t56.5 121.5v11q0 66 -47 110.5t-162 88.5l-196 74q-303 115 -303 390v5q0 122 60 214.5t166.5 144t247.5 51.5q191 0 316.5 -87t179.5 -256l-245 -75q-55 174 -251 174
q-95 0 -151.5 -41.5t-56.5 -112.5v-8q0 -56 39 -95t130 -74l195 -74q178 -68 261 -171.5t83 -259.5v-8q0 -124 -60 -216t-167.5 -143t-251.5 -51z" />
    <glyph glyph-name="T" unicode="T" 
d="M466 0v1305h268v-1305h-268zM88 1180v252h1024v-252h-1024z" />
    <glyph glyph-name="U" unicode="U" 
d="M345.5 29q-109.5 62 -170 173t-60.5 258v972h268v-963q0 -115 58 -182.5t159 -67.5q102 0 159.5 67.5t57.5 182.5v963h268v-972q0 -147 -60.5 -258t-169.5 -173t-254.5 -62t-255 62z" />
    <glyph glyph-name="V" unicode="V" 
d="M480 0l-449 1432h276l249 -914l43 -222h7l43 222l249 914h271l-449 -1432h-240z" />
    <glyph glyph-name="W" unicode="W" 
d="M211 0l-186 1432h249l91 -1028h6l47 283l101 463h162l101 -463l47 -283h6l84 1028h256l-186 -1432h-220l-127 573l-39 234h-6l-39 -234l-125 -573h-222z" />
    <glyph glyph-name="X" unicode="X" 
d="M879 0l-376 667l-31 17l-426 748h293l348 -615l31 -16l454 -801h-293zM28 0l456 792l28 17l355 623h287l-435 -754l-28 -18l-376 -660h-287z" />
    <glyph glyph-name="Y" unicode="Y" 
d="M491 467l-453 965h292l174 -393l97 -259h7l94 259l176 393h284l-452 -965h-219zM466 0v660h268v-660h-268z" />
    <glyph glyph-name="Z" unicode="Z" 
d="M117 0v225l637 957h-612v250h926v-225l-635 -957h650v-250h-966z" />
    <glyph glyph-name="bracketleft" unicode="[" 
d="M1046 1591v-218h-457v-1410h457v-218h-722v1846h722z" />
    <glyph glyph-name="backslash" unicode="\" 
d="M1094 -176h-261l-727 1636h261z" />
    <glyph glyph-name="bracketright" unicode="]" 
d="M154 -261v218h457v1410h-457v218h722v-1846h-722z" />
    <glyph glyph-name="asciicircum" unicode="^" 
d="M51 652l439 780h220l439 -780h-284l-261 485h-9l-260 -485h-284z" />
    <glyph glyph-name="underscore" unicode="_" 
d="M87 -263v230h1026v-230h-1026z" />
    <glyph glyph-name="grave" unicode="`" 
d="M598 882l-320 578h324l246 -578h-250z" />
    <glyph glyph-name="a" unicode="a" 
d="M484 -33q-105 0 -184.5 42t-124 117t-44.5 173v14q0 161 111.5 257t296.5 96q79 0 147 -15t124 -44v-163q-89 54 -208 54q-97 0 -152 -45t-55 -128v-12q0 -75 47 -116.5t129 -41.5q65 0 114 33.5t76.5 93.5t27.5 139v247q0 102 -52.5 156t-156.5 54q-138 0 -253 -112
l-142 152q163 166 422 166q212 0 324.5 -106t112.5 -300v-678h-249v141h-8q-45 -83 -123 -128.5t-180 -45.5z" />
    <glyph glyph-name="b" unicode="b" 
d="M698 -33q-101 0 -181.5 51t-128.5 143h-8v-161h-251v1460h262v-559h8q54 89 130.5 136t177.5 47q118 0 205.5 -68t136 -191t48.5 -289v-22q0 -164 -50 -287t-139.5 -191.5t-209.5 -68.5zM613 188q104 0 162.5 85.5t58.5 239.5v25q0 155 -58 239.5t-164 84.5
q-104 0 -166.5 -88.5t-62.5 -239.5v-17q0 -151 62.5 -240t167.5 -89z" />
    <glyph glyph-name="c" unicode="c" 
d="M661 -33q-157 0 -274.5 68.5t-182 192.5t-64.5 288v19q0 165 64.5 288t181 191.5t271.5 68.5q169 0 281.5 -81t161.5 -230l-231 -83q-27 82 -80 124t-134 42q-119 0 -187 -83.5t-68 -229.5v-34q0 -142 71 -226.5t192 -84.5q83 0 140 42t89 126l228 -90
q-35 -96 -102 -165.5t-158 -106t-199 -36.5z" />
    <glyph glyph-name="d" unicode="d" 
d="M518 -33q-119 0 -213 69t-148 192.5t-54 286.5v22q0 165 52 288t144.5 190.5t210.5 67.5q99 0 171 -46.5t120 -133.5h8v557h262v-1460h-251v161h-8q-45 -91 -121 -142.5t-173 -51.5zM593 188q102 0 163 88.5t61 240.5v17q0 151 -61 239.5t-163 88.5q-106 0 -166.5 -85
t-60.5 -239v-25q0 -154 60.5 -239.5t166.5 -85.5z" />
    <glyph glyph-name="e" unicode="e" 
d="M631 -33q-161 0 -279.5 67.5t-184 190.5t-65.5 288v27q0 164 65.5 286t183 190t273.5 68q141 0 245 -59.5t162 -167t58 -252.5q0 -41 -3 -77.5t-9 -66.5h-833v165h601v-2q0 115 -59 180.5t-161 65.5q-125 0 -198 -89t-73 -245v-19q0 -154 75 -243.5t203 -89.5
q157 0 230 149l220 -102q-63 -129 -178 -196.5t-273 -67.5z" />
    <glyph glyph-name="f" unicode="f" 
d="M371 0v1114q0 179 106.5 279t297.5 100q112 0 196 -28.5t163 -89.5l-132 -179q-51 40 -100 58.5t-109 18.5q-84 0 -126.5 -43t-42.5 -130v-139l9 -60v-901h-262zM117 804v204h966v-204h-966z" />
    <glyph glyph-name="g" unicode="g" 
d="M597 -572q-163 0 -285 45.5t-189.5 127t-67.5 190.5q0 113 69.5 193.5t194.5 113.5l46 -111q-39 -29 -58.5 -69.5t-19.5 -89.5q0 -95 80 -145t231 -50q148 0 234.5 50.5t86.5 136.5q0 122 -155 122h-516v85l209 330l143 -22l-69 -192h275q164 0 256.5 -80.5t92.5 -224.5
q0 -126 -68 -218t-193 -142t-297 -50zM606 278q-128 0 -231.5 52.5t-164 143.5t-60.5 203v8q0 117 57 207t157 141t231 51q130 0 233 -53t163.5 -143t60.5 -203v-8q0 -117 -57 -207t-157.5 -141t-231.5 -51zM601 482q98 0 156 52.5t58 138.5v11q0 86 -58 138t-156 52
t-156.5 -52t-58.5 -138v-11q0 -86 58.5 -138.5t156.5 -52.5zM838 941l-89 52q33 142 129 216t248 74v-233q-196 0 -288 -109z" />
    <glyph glyph-name="h" unicode="h" 
d="M154 0v1460h261v-550h9q122 174 326 174q150 0 236 -100t86 -275v-709h-261v656q0 206 -175 206q-99 0 -160 -69t-61 -181v-612h-261z" />
    <glyph glyph-name="i" unicode="i" 
d="M523 73v977h256v-977h-256zM179 0v199h923v-199h-923zM199 850v200h536v-200h-536zM622 1257q-76 0 -129.5 52.5t-53.5 127.5q0 77 53.5 128t129.5 51q78 0 129.5 -51t51.5 -129q0 -74 -51.5 -126.5t-129.5 -52.5z" />
    <glyph glyph-name="j" unicode="j" 
d="M441 -447q-193 0 -356 118l127 198q57 -41 109.5 -61.5t108.5 -20.5q87 0 133.5 52t46.5 151v1060h261v-1052q0 -207 -115 -326t-315 -119zM215 852v198h591v-198h-591zM714 1257q-76 0 -129.5 52.5t-53.5 127.5q0 76 53 127.5t130 51.5q79 0 130 -51t51 -128
q0 -76 -52 -128t-129 -52z" />
    <glyph glyph-name="k" unicode="k" 
d="M813 0l-429 562v8l410 480h309l-471 -538v113l489 -625h-308zM133 0v1460h262v-1460h-262z" />
    <glyph glyph-name="l" unicode="l" 
d="M789 -33q-190 0 -297.5 107.5t-107.5 296.5v1089h262v-1068q0 -189 166 -189q45 0 84 17.5t83 57.5l140 -187q-70 -64 -150 -94t-180 -30zM87 1251v209h480v-209h-480z" />
    <glyph glyph-name="m" unicode="m" 
d="M68 0v1050h224v-139h8q33 84 84.5 128.5t126.5 44.5q84 0 134 -62t57 -174l-18 3q31 113 92.5 173t146.5 60q213 0 213 -330v-754h-239v731q0 70 -18.5 100t-55.5 30q-46 0 -74 -43t-28 -123v-695h-239v729q0 71 -18 101.5t-55 30.5q-47 0 -74.5 -42.5t-27.5 -124.5v-694
h-239z" />
    <glyph glyph-name="n" unicode="n" 
d="M154 0v1050h247v-160h9q59 93 145.5 143.5t194.5 50.5q152 0 237 -101.5t85 -273.5v-709h-261v656q0 100 -44 153t-131 53q-99 0 -160 -68.5t-61 -183.5v-610h-261z" />
    <glyph glyph-name="o" unicode="o" 
d="M334.5 36.5q-115.5 69.5 -180 193t-64.5 283.5v24q0 161 64.5 284t180 193t265.5 70t265 -70t180 -193t65 -284v-24q0 -160 -65 -283.5t-180 -193t-265 -69.5t-265.5 69.5zM781 285.5q67 85.5 67 231.5v16q0 146 -67 231.5t-181 85.5t-181 -85.5t-67 -231.5v-16
q0 -146 67 -231.5t181 -85.5t181 85.5z" />
    <glyph glyph-name="p" unicode="p" 
d="M698 1084q120 0 209.5 -68.5t139.5 -191.5t50 -288v-22q0 -164 -48.5 -287.5t-136 -191.5t-205.5 -68q-101 0 -177.5 46.5t-130.5 135.5h-8v-559h-262v1460h251v-161h8q48 92 128.5 143.5t181.5 51.5zM613 862q-105 0 -167.5 -89t-62.5 -239v-18q0 -150 62.5 -239
t166.5 -89q106 0 164 85t58 239v26q0 154 -58.5 239t-162.5 85z" />
    <glyph glyph-name="q" unicode="q" 
d="M518 1083q97 0 173 -51.5t121 -142.5h8v161h251v-1460h-262v558h-8q-48 -88 -120 -134.5t-171 -46.5q-118 0 -210.5 68t-144.5 191t-52 288v21q0 165 54 288t148 191.5t213 68.5zM593 862q-106 0 -166.5 -85.5t-60.5 -239.5v-24q0 -154 60.5 -239.5t166.5 -85.5
q102 0 163 88.5t61 239.5v18q0 151 -61 239.5t-163 88.5z" />
    <glyph glyph-name="r" unicode="r" 
d="M322 93v957h222v-232h12q47 128 134.5 197t202.5 69q80 0 142 -31.5t123 -104.5l-166 -194q-46 51 -89 72t-99 21q-110 0 -169 -79t-59 -226v-449h-254zM96 0v200h820v-200h-820zM116 851v199h323v-199h-323z" />
    <glyph glyph-name="s" unicode="s" 
d="M648 -33q-188 0 -315 77.5t-180 223.5l220 80q30 -79 101.5 -123t169.5 -44q74 0 115.5 27t41.5 75v6q0 45 -34.5 70.5t-130.5 51.5l-149 42q-132 37 -202.5 113t-70.5 190v2q0 149 110.5 237.5t297.5 88.5q162 0 268 -63t151 -186l-220 -81q-48 118 -212 118
q-72 0 -111.5 -25t-39.5 -72v-2q0 -40 30.5 -64.5t106.5 -45.5l149 -40q157 -43 229.5 -122.5t72.5 -207.5v-4q0 -145 -109 -233.5t-289 -88.5z" />
    <glyph glyph-name="t" unicode="t" 
d="M783 -33q-200 0 -310 111.5t-110 314.5v933h262v-915q0 -105 44 -156.5t134 -51.5q93 0 174 76l130 -193q-133 -119 -324 -119zM103 846v204h941v-204h-941z" />
    <glyph glyph-name="u" unicode="u" 
d="M472 -33q-149 0 -235.5 97.5t-86.5 267.5v718h262v-661q0 -97 44 -148.5t126 -51.5q87 0 141.5 68t54.5 181v612h261v-1050h-247v160h-9q-49 -86 -127 -139.5t-184 -53.5z" />
    <glyph glyph-name="v" unicode="v" 
d="M466 0l-389 1050h278l179 -523l67 -263h8l67 263l171 523h276l-389 -1050h-268z" />
    <glyph glyph-name="w" unicode="w" 
d="M234 0l-221 1050h234l104 -641l16 -117h7l17 118l103 521h223l104 -520l16 -119h7l15 119l106 639h222l-222 -1050h-238l-107 541l-17 121h-7l-17 -121l-106 -541h-239z" />
    <glyph glyph-name="x" unicode="x" 
d="M827 0l-314 481l-36 15l-373 554h285l279 -427l35 -15l408 -608h-284zM89 0l405 592l31 11l299 447h272l-390 -569l-33 -13l-312 -468h-272z" />
    <glyph glyph-name="y" unicode="y" 
d="M323 -447q-168 0 -289 101l128 197q78 -64 153 -64q57 0 92.5 27.5t59.5 91.5l96 263h47l92 358l171 523h273l-447 -1193q-60 -161 -149 -232.5t-227 -71.5zM528 -90l-429 1140h275l178 -523l71 -263h70z" />
    <glyph glyph-name="z" unicode="z" 
d="M164 0v209l560 620h-538v221h840v-208l-559 -620h569v-222h-872z" />
    <glyph glyph-name="braceleft" unicode="{" 
d="M808 1643q63 0 124 -5t123 -15v-218q-43 9 -87.5 12.5t-89.5 3.5q-99 0 -146 -24.5t-47 -75.5q0 -28 16.5 -58t58.5 -80l20 -24q52 -62 74 -110t22 -100q0 -86 -62.5 -139t-180.5 -65l-322 -33v-92l322 -34q118 -12 180.5 -65t62.5 -139q0 -52 -22 -100t-74 -110l-20 -24
q-42 -49 -58.5 -79.5t-16.5 -58.5q0 -50 47 -75t146 -25q45 0 89.5 4t87.5 12v-218q-62 -9 -123 -14t-124 -5q-198 0 -299 64t-101 189q0 56 21 104.5t71 105.5l33 41q37 44 51.5 72.5t14.5 57.5q0 79 -116 94l-392 55v387l392 55q116 16 116 95q0 29 -14.5 57.5t-51.5 71.5
l-33 41q-50 57 -71 106t-21 104q0 125 101 189.5t299 64.5z" />
    <glyph glyph-name="bar" unicode="|" 
d="M465 -346v2124h270v-2124h-270z" />
    <glyph glyph-name="braceright" unicode="}" 
d="M392 -313q-63 0 -124 5t-123 15v218q43 -8 87.5 -12t89.5 -4q99 0 146 24.5t47 75.5q0 28 -16.5 58.5t-58.5 79.5l-20 24q-52 62 -74 110t-22 100q0 86 62.5 139t180.5 65l322 33v92l-322 34q-118 12 -180.5 65t-62.5 139q0 52 22 100t74 110l20 24q42 50 58.5 80
t16.5 58q0 51 -47 75.5t-146 24.5q-45 0 -89.5 -4t-87.5 -12v218q62 9 123 14t124 5q198 0 299 -64t101 -189q0 -55 -21 -104t-71 -106l-33 -41q-37 -43 -51.5 -72t-14.5 -58q0 -79 116 -94l392 -55v-387l-392 -55q-116 -16 -116 -95q0 -28 14.5 -57t51.5 -72l33 -41
q50 -57 71 -105.5t21 -104.5q0 -125 -101 -189.5t-299 -64.5z" />
    <glyph glyph-name="asciitilde" unicode="~" 
d="M837 558q-73 0 -134 31t-142 109q-50 48 -80 65.5t-61 17.5q-90 0 -90 -117v-100h-246v113q0 167 74.5 256.5t210.5 89.5q73 0 132.5 -31.5t137.5 -107.5q50 -48 80.5 -66t61.5 -18q89 0 89 118v99h246v-112q0 -167 -72.5 -257t-206.5 -90z" />
    <glyph glyph-name="uni00A0" unicode="&#xa0;" 
 />
    <glyph glyph-name="exclamdown" unicode="&#xa1;" 
d="M468 681h264l34 -912h-332zM736.5 1238q55.5 -56 55.5 -136t-55.5 -136t-136.5 -56t-136.5 56t-55.5 136t55.5 136t136.5 56t136.5 -56z" />
    <glyph glyph-name="cent" unicode="&#xa2;" 
d="M643 0q-157 0 -274.5 68.5t-182 192t-64.5 288.5v19q0 165 65.5 288t183.5 191.5t276 68.5q172 0 286.5 -81t163.5 -230l-231 -83q-28 83 -83 124.5t-138 41.5q-123 0 -193 -83.5t-70 -229.5v-34q0 -142 71 -226.5t192 -84.5q83 0 140.5 42t88.5 126l228 -90
q-36 -96 -102.5 -165t-157 -106t-199.5 -37zM532 -230v294v37v68h195v-68v-37v-294h-195zM532 930v78v37v301h195v-301v-37v-78h-195z" />
    <glyph glyph-name="sterling" unicode="&#xa3;" 
d="M269 -14l-209 111q39 73 85.5 124t110.5 91q69 45 96 86t27 103q0 65 -20.5 130t-47.5 132.5t-47.5 140t-20.5 153.5q0 121 56.5 213t158 143.5t236.5 51.5q121 0 210.5 -34t177.5 -114l-151 -182q-55 49 -103.5 71.5t-113.5 22.5q-93 0 -148 -53t-55 -146
q0 -97 28.5 -187t56 -171.5t27.5 -156.5q0 -69 -30.5 -112t-102.5 -77v-14q47 -2 84 -13.5t70 -26t65 -25.5t67 -11q56 0 88 33t62 115l234 -74q-48 -147 -124.5 -228.5t-198.5 -81.5q-56 0 -106.5 14.5t-98 33.5t-95 33.5t-98.5 14.5q-111 0 -170 -110zM70 678v188h902
v-188h-902z" />
    <glyph glyph-name="currency" unicode="&#xa4;" 
d="M372 311q-103 60 -165 160.5t-62 220.5v22q0 121 62 221t165 160t228 60t228 -60t165 -160t62 -221v-22q0 -120 -62 -220.5t-165 -160.5t-228 -60t-228 60zM186 131l-158 158l248 248l157 -158zM600 453q70 0 123 30.5t83.5 84.5t30.5 123v24q0 69 -30.5 123t-83.5 85
t-123 31q-69 0 -122 -31t-84 -85t-31 -123v-24q0 -69 31 -123t84 -84.5t122 -30.5zM276 870l-248 248l158 157l248 -247zM1015 131l-248 248l157 157l248 -247zM925 870l-158 157l248 248l157 -157z" />
    <glyph glyph-name="yen" unicode="&#xa5;" 
d="M479 532l-441 900h292l171 -393l100 -282h7l97 282l173 393h284l-441 -900h-242zM472 0v660h256v-660h-256zM146 542v168h909v-168h-909zM146 237v169h909v-169h-909z" />
    <glyph glyph-name="brokenbar" unicode="&#xa6;" 
d="M465 928v850h270v-850h-270zM465 -346v850h270v-850h-270z" />
    <glyph glyph-name="section" unicode="&#xa7;" 
d="M810 232l-107 118q79 37 118.5 88t39.5 115q0 58 -29.5 91.5t-102.5 58.5l-237 80q-118 39 -187.5 130.5t-69.5 206.5q0 102 52.5 180t145.5 121.5t215 43.5q277 0 401 -218l-187 -135q-74 129 -230 129q-75 0 -118 -30.5t-43 -86.5q0 -46 29 -76t98 -54l200 -67
q154 -51 223.5 -135.5t69.5 -217.5q0 -117 -73.5 -206t-207.5 -136zM580 -215q-293 0 -429 223l188 133q83 -132 239 -132q72 0 111.5 30t39.5 85q0 46 -28 74.5t-99 53.5l-200 68q-293 100 -293 349q0 118 73 208t208 137l84 -143q-67 -28 -101 -73t-34 -104
q0 -56 31 -91.5t100 -59.5l237 -79q121 -40 189.5 -130.5t68.5 -209.5q0 -100 -48.5 -176.5t-135 -119.5t-201.5 -43z" />
    <glyph glyph-name="dieresis" unicode="&#xa8;" 
d="M346 1257q-74 0 -125.5 50.5t-51.5 123.5t52 124t125 51q75 0 126 -50.5t51 -124t-51 -124t-126 -50.5zM854 1257q-74 0 -125.5 50.5t-51.5 123.5t52 124t125 51q75 0 126 -50.5t51 -124t-51 -124t-126 -50.5z" />
    <glyph glyph-name="copyright" unicode="&#xa9;" 
d="M287 51q-133 84 -206 238t-73 362v130q0 209 73 362.5t206 237.5t313.5 84t313 -84t205.5 -237.5t73 -362.5v-130q0 -208 -73 -362t-205.5 -238t-313 -84t-313.5 84zM961.5 214.5q130.5 157.5 130.5 435.5v132q0 278 -130.5 435.5t-361.5 157.5t-361.5 -157.5
t-130.5 -435.5v-132q0 -278 130.5 -435.5t361.5 -157.5t361.5 157.5zM619 294q-156 0 -247.5 108t-91.5 292v53q0 184 91.5 291.5t247.5 107.5q133 0 214 -79t95 -222l-155 -13q-16 166 -156 166q-89 0 -137 -64t-48 -184v-60q0 -120 48 -184t137 -64q140 0 156 166l155 -13
q-14 -142 -95 -221.5t-214 -79.5z" />
    <glyph glyph-name="ordfeminine" unicode="&#xaa;" 
d="M443 571q-128 0 -209.5 73t-81.5 189v12q0 123 87 198t231 75q145 0 257 -75v-108q-43 22 -83 31.5t-94 9.5q-79 0 -118 -29t-39 -91v-14q0 -115 139 -115q84 0 132.5 49t48.5 130v197q0 96 -43 137.5t-146 41.5q-71 0 -136.5 -17.5t-127.5 -49.5l-70 176q168 74 372 74
q192 0 285.5 -87.5t93.5 -262.5v-532h-219v143h-14q-46 -76 -113.5 -115.5t-151.5 -39.5z" />
    <glyph glyph-name="guillemotleft" unicode="&#xab;" 
d="M998 13l-475 519l475 520l152 -134l-333 -386l333 -386zM502 13l-475 519l475 520l153 -132l-334 -388l334 -388z" />
    <glyph glyph-name="logicalnot" unicode="&#xac;" 
d="M808 120v479l90 -86h-764v250h932v-643h-258z" />
    <glyph glyph-name="registered" unicode="&#xae;" 
d="M287 54q-133 84 -206 238t-73 362v127q0 209 73 362.5t206 237.5t313.5 84t313 -84t205.5 -237.5t73 -362.5v-127q0 -208 -73 -362t-205.5 -238t-313 -84t-313.5 84zM752 297l-199 372h171l205 -364v-8h-177zM961.5 217.5q130.5 157.5 130.5 435.5v129
q0 278 -130.5 435.5t-361.5 157.5t-361.5 -157.5t-130.5 -435.5v-129q0 -278 130.5 -435.5t361.5 -157.5t361.5 157.5zM330 297v846h276q137 0 215.5 -70t78.5 -193v-10q0 -121 -79.5 -192.5t-215.5 -71.5h-181v136h179q68 0 105 32t37 88v16q0 56 -37 87.5t-105 31.5h-120
v-700h-153z" />
    <glyph glyph-name="macron" unicode="&#xaf;" 
d="M279 1324v218h642v-218h-642z" />
    <glyph glyph-name="degree" unicode="&#xb0;" 
d="M385 778q-86 48 -135.5 131.5t-49.5 187.5q0 106 49.5 189t135.5 131t194 48t193.5 -48t135 -131t49.5 -189q0 -104 -49.5 -187.5t-135 -131.5t-193.5 -48t-194 48zM694.5 978.5q44.5 46.5 44.5 118.5q0 74 -44.5 120t-115 46t-116 -46t-45.5 -120q0 -72 45.5 -118.5
t116 -46.5t115 46.5z" />
    <glyph glyph-name="plusminus" unicode="&#xb1;" 
d="M122 0v243h956v-243h-956zM118 662v238h964v-238h-964zM473 345v872h254v-872h-254z" />
    <glyph glyph-name="uni00B2" unicode="&#xb2;" 
d="M217 690v179l347 352q55 56 76.5 94t21.5 82v4q0 44 -24.5 69t-67.5 25q-49 0 -85 -33.5t-63 -106.5l-220 84q50 136 149 208t235 72q146 0 234 -81.5t88 -215.5v-6q0 -81 -36.5 -148.5t-129.5 -164.5l-179 -185v-6h374v-222h-720z" />
    <glyph glyph-name="uni00B3" unicode="&#xb3;" 
d="M603 682q-161 0 -267.5 67.5t-149.5 197.5l226 86q43 -128 178 -128q58 0 91.5 27t33.5 72v8q0 107 -138 107h-130v175h110q63 0 98.5 25.5t35.5 73.5v8q0 44 -28.5 69t-77.5 25q-108 0 -144 -102l-230 77q46 120 148 184.5t246 64.5q149 0 239.5 -75t90.5 -197v-6
q0 -81 -43.5 -137t-125.5 -83v-12q94 -22 144 -84.5t50 -157.5v-4q0 -125 -98.5 -203t-258.5 -78z" />
    <glyph glyph-name="acute" unicode="&#xb4;" 
d="M348 1256v13l197 359h306v-12l-269 -360h-234z" />
    <glyph glyph-name="uni00B5" unicode="&#xb5;" 
d="M135 -409v1459h262v-725q0 -63 34.5 -99.5t95.5 -36.5q91 0 146 75t55 209v577h261v-767q0 -94 80 -94q31 0 62 15l51 -186q-45 -25 -89 -38t-95 -13q-99 0 -160 57t-70 157h-10q-84 -214 -261 -214q-100 0 -172.5 57.5t-100.5 159.5l163 -62l18 -531h-270z" />
    <glyph glyph-name="paragraph" unicode="&#xb6;" 
d="M529 -410v1070l99 -74h-90q-234 0 -359 111.5t-125 307.5v10q0 194 125 305.5t359 111.5h202v-1842h-211zM886 -410v1842h210v-1842h-210z" />
    <glyph glyph-name="periodcentered" unicode="&#xb7;" 
d="M600 627q-81 0 -136.5 55.5t-55.5 136.5q0 80 56 135.5t136 55.5q82 0 137 -55.5t55 -135.5q0 -81 -55 -136.5t-137 -55.5z" />
    <glyph glyph-name="cedilla" unicode="&#xb8;" 
d="M603 -644q-93 0 -175.5 47t-132.5 127l149 98q65 -100 159 -100q53 0 86 28t33 76t-29.5 76.5t-78.5 28.5q-58 0 -99 -32l-109 94l135 218h146l-158 -247l-77 32q38 40 89 61.5t106 21.5q116 0 186.5 -71t70.5 -188q0 -120 -83 -195t-218 -75z" />
    <glyph glyph-name="uni00B9" unicode="&#xb9;" 
d="M500 803v627l-220 -95l-91 207l403 168h152v-907h-244zM232 690v226h752v-226h-752z" />
    <glyph glyph-name="ordmasculine" unicode="&#xba;" 
d="M322.5 643.5q-96.5 54.5 -151.5 150t-55 218.5v32q0 122 55 217t151.5 149.5t220 54.5t219.5 -54.5t151 -149.5t55 -217v-32q0 -123 -55 -218.5t-151 -150t-219.5 -54.5t-220 54.5zM677 863.5q48 57.5 48 151.5v25q0 93 -48 151t-135 58t-135 -58t-48 -151v-25
q0 -94 48 -151.5t135 -57.5t135 57.5z" />
    <glyph glyph-name="guillemotright" unicode="&#xbb;" 
d="M202 13l-152 133l333 386l-333 386l152 134l475 -520zM698 13l-153 131l334 388l-334 388l153 132l475 -520z" />
    <glyph glyph-name="onequarter" unicode="&#xbc;" 
d="M889 -33v205l10 20v312l28 -34h-38l-166 -217v-10h232l24 8h173v-158h-612v165l329 427h188v-718h-168zM258 750v487l-180 -74l-66 177l312 120h128v-710h-194zM82 -33l889 1493h163l-889 -1493h-163z" />
    <glyph glyph-name="onehalf" unicode="&#xbd;" 
d="M44 -33l889 1493h163l-888 -1493h-164zM612 -33v167l252 185q59 43 80.5 70t21.5 57v3q0 31 -19 49t-56 18q-95 0 -106 -106l-185 20q14 117 97 188.5t206 71.5q118 0 183 -65.5t65 -162.5v-4q0 -70 -34 -124.5t-115 -112.5l-105 -74v-8h265v-172h-550zM250 750v487
l-180 -74l-66 177l312 120h128v-710h-194z" />
    <glyph glyph-name="threequarters" unicode="&#xbe;" 
d="M892 -33v205l9 20v312l28 -34h-38l-166 -217v-10h232l24 8h173v-158h-612v165l329 427h188v-718h-167zM304 722q-112 0 -187 48t-99 136l168 52q11 -38 38 -58.5t71 -20.5q39 0 63 21t24 55v6q0 39 -26 58.5t-84 19.5h-102v112h97q48 0 74.5 19.5t26.5 56.5v6
q0 34 -20 51.5t-60 17.5q-75 0 -91 -60l-171 46q24 81 95.5 126.5t182.5 45.5q109 0 172.5 -51t63.5 -140v-4q0 -116 -120 -159v-8q134 -37 134 -167v-4q0 -89 -70.5 -147t-179.5 -58zM75 -33l947 1493h166l-946 -1493h-167z" />
    <glyph glyph-name="questiondown" unicode="&#xbf;" 
d="M756 765v-264l-201 -116q-90 -52 -129.5 -101t-39.5 -108v-12q0 -69 48.5 -108t132.5 -39q100 0 172.5 53.5t106.5 150.5l252 -83q-59 -175 -200.5 -273t-334.5 -98q-135 0 -235.5 50.5t-156 139.5t-55.5 204v3q0 116 56 204t179 161l135 80v156h270zM621 1265
q78 0 133 -55t55 -133t-55 -130.5t-133.5 -52.5t-132.5 52.5t-54 130.5t54.5 133t132.5 55z" />
    <glyph glyph-name="Agrave" unicode="&#xc0;" 
d="M30 0l445 1432h254l441 -1432h-276l-249 944l-44 192h-7l-42 -192l-251 -944h-271zM231 307l68 216h590l73 -216h-731zM485 1638l-268 360v12h306l196 -359v-13h-234z" />
    <glyph glyph-name="Aacute" unicode="&#xc1;" 
d="M30 0l445 1432h254l441 -1432h-276l-249 944l-44 192h-7l-42 -192l-251 -944h-271zM231 307l68 216h590l73 -216h-731zM485 1638v13l197 359h306v-12l-269 -360h-234z" />
    <glyph glyph-name="Acircumflex" unicode="&#xc2;" 
d="M30 0l445 1432h254l441 -1432h-276l-249 944l-44 192h-7l-42 -192l-251 -944h-271zM231 307l68 216h590l73 -216h-731zM188 1638v13l284 359h260l284 -359v-13h-262l-180 290h57l-181 -290h-262z" />
    <glyph glyph-name="Atilde" unicode="&#xc3;" 
d="M30 0l445 1432h254l441 -1432h-276l-249 944l-44 192h-7l-42 -192l-251 -944h-271zM231 307l68 216h590l73 -216h-731zM777 1642q-51 0 -97.5 23t-99.5 79q-39 40 -62 56t-46 16q-59 0 -59 -84v-86h-195v92q0 132 57 203.5t162 71.5q50 0 93 -22t96 -79q38 -40 61.5 -56
t47.5 -16q56 0 56 82v88h196v-92q0 -133 -53 -204.5t-157 -71.5z" />
    <glyph glyph-name="Adieresis" unicode="&#xc4;" 
d="M30 0l445 1432h254l441 -1432h-276l-249 944l-44 192h-7l-42 -192l-251 -944h-271zM231 307l68 216h590l73 -216h-731zM348 1639q-74 0 -125.5 50.5t-51.5 123.5t52 124t125 51q75 0 126 -50.5t51 -124t-51 -124t-126 -50.5zM856 1639q-74 0 -125.5 50.5t-51.5 123.5
t52 124t125 51q75 0 126 -50.5t51 -124t-51 -124t-126 -50.5z" />
    <glyph glyph-name="Aring" unicode="&#xc5;" 
d="M30 0l445 1432h254l441 -1432h-276l-249 944l-44 192h-7l-42 -192l-251 -944h-271zM231 307l68 216h590l73 -216h-731zM448.5 1575q-68.5 39 -109 105t-40.5 148q0 83 40.5 149t109 105t153.5 39t153.5 -39t109 -105t40.5 -149q0 -82 -40.5 -148t-109 -105t-153.5 -39
t-153.5 39zM693 1738q36 36 36 90.5t-36 90.5t-90.5 36t-91 -36t-36.5 -90.5t36.5 -90.5t91 -36t90.5 36z" />
    <glyph glyph-name="AE" unicode="&#xc6;" 
d="M6 0l388 1432h333l-28 -236h-146l-52 -272l-234 -924h-261zM209 312l60 212h419v-212h-479zM613 0v1432h562v-242h-346v-948h362v-242h-578zM737 612v239h386v-239h-386z" />
    <glyph glyph-name="Ccedilla" unicode="&#xc7;" 
d="M656 -33q-173 0 -301.5 90t-199.5 253.5t-71 384.5v42q0 224 69 387.5t195 252t299 88.5q179 0 301 -98t171 -282l-246 -79q-31 108 -86 157.5t-144 49.5q-137 0 -211.5 -122.5t-74.5 -348.5v-52q0 -223 78.5 -347t219.5 -124q177 0 236 211l247 -77
q-49 -185 -174.5 -285.5t-307.5 -100.5zM659 -644q-93 0 -175.5 47t-132.5 127l149 98q65 -100 159 -100q53 0 86 28t33 76t-29.5 76.5t-78.5 28.5q-58 0 -99 -32l-109 94l135 218h146l-158 -247l-77 32q38 40 89 61.5t106 21.5q116 0 186.5 -71t70.5 -188q0 -120 -83 -195
t-218 -75z" />
    <glyph glyph-name="Egrave" unicode="&#xc8;" 
d="M157 0v1432h864v-249h-598v-934h614v-249h-880zM319 608v248h622v-248h-622zM472 1638l-268 360v12h306l196 -359v-13h-234z" />
    <glyph glyph-name="Eacute" unicode="&#xc9;" 
d="M157 0v1432h864v-249h-598v-934h614v-249h-880zM319 608v248h622v-248h-622zM472 1638v13l197 359h306v-12l-269 -360h-234z" />
    <glyph glyph-name="Ecircumflex" unicode="&#xca;" 
d="M157 0v1432h864v-249h-598v-934h614v-249h-880zM319 608v248h622v-248h-622zM175 1638v13l284 359h260l284 -359v-13h-262l-180 290h57l-181 -290h-262z" />
    <glyph glyph-name="Edieresis" unicode="&#xcb;" 
d="M157 0v1432h864v-249h-598v-934h614v-249h-880zM319 608v248h622v-248h-622zM335 1639q-74 0 -125.5 50.5t-51.5 123.5t52 124t125 51q75 0 126 -50.5t51 -124t-51 -124t-126 -50.5zM843 1639q-74 0 -125.5 50.5t-51.5 123.5t52 124t125 51q75 0 126 -50.5t51 -124
t-51 -124t-126 -50.5z" />
    <glyph glyph-name="Igrave" unicode="&#xcc;" 
d="M465 123v1186h270v-1186h-270zM154 0v251h892v-251h-892zM154 1182v250h892v-250h-892zM483 1638l-268 360v12h306l196 -359v-13h-234z" />
    <glyph glyph-name="Iacute" unicode="&#xcd;" 
d="M465 123v1186h270v-1186h-270zM154 0v251h892v-251h-892zM154 1182v250h892v-250h-892zM483 1638v13l197 359h306v-12l-269 -360h-234z" />
    <glyph glyph-name="Icircumflex" unicode="&#xce;" 
d="M465 123v1186h270v-1186h-270zM154 0v251h892v-251h-892zM154 1182v250h892v-250h-892zM186 1638v13l284 359h260l284 -359v-13h-262l-180 290h57l-181 -290h-262z" />
    <glyph glyph-name="Idieresis" unicode="&#xcf;" 
d="M465 123v1186h270v-1186h-270zM154 0v251h892v-251h-892zM154 1182v250h892v-250h-892zM346 1639q-74 0 -125.5 50.5t-51.5 123.5t52 124t125 51q75 0 126 -50.5t51 -124t-51 -124t-126 -50.5zM854 1639q-74 0 -125.5 50.5t-51.5 123.5t52 124t125 51q75 0 126 -50.5
t51 -124t-51 -124t-126 -50.5z" />
    <glyph glyph-name="Eth" unicode="&#xd0;" 
d="M182 0v1432h384q183 0 313 -83t199.5 -238.5t69.5 -373.5v-42q0 -218 -69.5 -373.5t-199.5 -238.5t-313 -83h-384zM28 616v238h684v-238h-684zM419 243h144q174 0 254.5 112t80.5 335v52q0 224 -80.5 335.5t-254.5 111.5h-144v-946z" />
    <glyph glyph-name="Ntilde" unicode="&#xd1;" 
d="M83 0v1432h266l520 -964h7l-21 330v634h262v-1432h-242l-545 1009h-7l21 -330v-679h-261zM777 1642q-51 0 -97.5 23t-99.5 79q-39 40 -62 56t-46 16q-59 0 -59 -84v-86h-195v92q0 132 57 203.5t162 71.5q50 0 93 -22t96 -79q38 -40 61.5 -56t47.5 -16q56 0 56 82v88h196
v-92q0 -133 -53 -204.5t-157 -71.5z" />
    <glyph glyph-name="Ograve" unicode="&#xd2;" 
d="M312.5 54.5q-120.5 87.5 -185 250.5t-64.5 390v42q0 227 64.5 390t185 250.5t287.5 87.5t287.5 -87.5t185 -250.5t64.5 -390v-42q0 -227 -64.5 -390t-185 -250.5t-287.5 -87.5t-287.5 87.5zM797 340q68 121 68 350v52q0 229 -68.5 350t-196.5 121t-196.5 -121t-68.5 -350
v-52q0 -229 68.5 -350t197 -121t196.5 121zM483 1638l-268 360v12h306l196 -359v-13h-234z" />
    <glyph glyph-name="Oacute" unicode="&#xd3;" 
d="M312.5 54.5q-120.5 87.5 -185 250.5t-64.5 390v42q0 227 64.5 390t185 250.5t287.5 87.5t287.5 -87.5t185 -250.5t64.5 -390v-42q0 -227 -64.5 -390t-185 -250.5t-287.5 -87.5t-287.5 87.5zM797 340q68 121 68 350v52q0 229 -68.5 350t-196.5 121t-196.5 -121t-68.5 -350
v-52q0 -229 68.5 -350t197 -121t196.5 121zM483 1638v13l197 359h306v-12l-269 -360h-234z" />
    <glyph glyph-name="Ocircumflex" unicode="&#xd4;" 
d="M312.5 54.5q-120.5 87.5 -185 250.5t-64.5 390v42q0 227 64.5 390t185 250.5t287.5 87.5t287.5 -87.5t185 -250.5t64.5 -390v-42q0 -227 -64.5 -390t-185 -250.5t-287.5 -87.5t-287.5 87.5zM797 340q68 121 68 350v52q0 229 -68.5 350t-196.5 121t-196.5 -121t-68.5 -350
v-52q0 -229 68.5 -350t197 -121t196.5 121zM186 1638v13l284 359h260l284 -359v-13h-262l-180 290h57l-181 -290h-262z" />
    <glyph glyph-name="Otilde" unicode="&#xd5;" 
d="M312.5 54.5q-120.5 87.5 -185 250.5t-64.5 390v42q0 227 64.5 390t185 250.5t287.5 87.5t287.5 -87.5t185 -250.5t64.5 -390v-42q0 -227 -64.5 -390t-185 -250.5t-287.5 -87.5t-287.5 87.5zM797 340q68 121 68 350v52q0 229 -68.5 350t-196.5 121t-196.5 -121t-68.5 -350
v-52q0 -229 68.5 -350t197 -121t196.5 121zM775 1642q-51 0 -97.5 23t-99.5 79q-39 40 -62 56t-46 16q-59 0 -59 -84v-86h-195v92q0 132 57 203.5t162 71.5q50 0 93 -22t96 -79q38 -40 61.5 -56t47.5 -16q56 0 56 82v88h196v-92q0 -133 -53 -204.5t-157 -71.5z" />
    <glyph glyph-name="Odieresis" unicode="&#xd6;" 
d="M312.5 54.5q-120.5 87.5 -185 250.5t-64.5 390v42q0 227 64.5 390t185 250.5t287.5 87.5t287.5 -87.5t185 -250.5t64.5 -390v-42q0 -227 -64.5 -390t-185 -250.5t-287.5 -87.5t-287.5 87.5zM797 340q68 121 68 350v52q0 229 -68.5 350t-196.5 121t-196.5 -121t-68.5 -350
v-52q0 -229 68.5 -350t197 -121t196.5 121zM346 1639q-74 0 -125.5 50.5t-51.5 123.5t52 124t125 51q75 0 126 -50.5t51 -124t-51 -124t-126 -50.5zM854 1639q-74 0 -125.5 50.5t-51.5 123.5t52 124t125 51q75 0 126 -50.5t51 -124t-51 -124t-126 -50.5z" />
    <glyph glyph-name="multiply" unicode="&#xd7;" 
d="M306 167l-174 172l763 767l173 -174zM895 167l-763 765l174 174l762 -767z" />
    <glyph glyph-name="Oslash" unicode="&#xd8;" 
d="M198 -205l-161 88l965 1754l161 -88zM606 -33q-162 0 -285 91t-192 254.5t-69 382.5v42q0 227 64.5 390.5t184 250.5t285.5 87q162 0 285 -90.5t192 -254.5t69 -383v-42q0 -227 -64 -390t-183.5 -250.5t-286.5 -87.5zM588 199q149 0 226.5 123.5t77.5 361.5v76
q0 244 -65 358.5t-215 114.5q-148 0 -226 -123t-78 -362v-76q0 -245 65 -359t215 -114z" />
    <glyph glyph-name="Ugrave" unicode="&#xd9;" 
d="M345.5 29q-109.5 62 -170 173t-60.5 258v972h268v-963q0 -115 58 -182.5t159 -67.5q102 0 159.5 67.5t57.5 182.5v963h268v-972q0 -147 -60.5 -258t-169.5 -173t-254.5 -62t-255 62zM483 1638l-268 360v12h306l196 -359v-13h-234z" />
    <glyph glyph-name="Uacute" unicode="&#xda;" 
d="M345.5 29q-109.5 62 -170 173t-60.5 258v972h268v-963q0 -115 58 -182.5t159 -67.5q102 0 159.5 67.5t57.5 182.5v963h268v-972q0 -147 -60.5 -258t-169.5 -173t-254.5 -62t-255 62zM483 1638v13l197 359h306v-12l-269 -360h-234z" />
    <glyph glyph-name="Ucircumflex" unicode="&#xdb;" 
d="M345.5 29q-109.5 62 -170 173t-60.5 258v972h268v-963q0 -115 58 -182.5t159 -67.5q102 0 159.5 67.5t57.5 182.5v963h268v-972q0 -147 -60.5 -258t-169.5 -173t-254.5 -62t-255 62zM186 1638v13l284 359h260l284 -359v-13h-262l-180 290h57l-181 -290h-262z" />
    <glyph glyph-name="Udieresis" unicode="&#xdc;" 
d="M345.5 29q-109.5 62 -170 173t-60.5 258v972h268v-963q0 -115 58 -182.5t159 -67.5q102 0 159.5 67.5t57.5 182.5v963h268v-972q0 -147 -60.5 -258t-169.5 -173t-254.5 -62t-255 62zM346 1639q-74 0 -125.5 50.5t-51.5 123.5t52 124t125 51q75 0 126 -50.5t51 -124
t-51 -124t-126 -50.5zM854 1639q-74 0 -125.5 50.5t-51.5 123.5t52 124t125 51q75 0 126 -50.5t51 -124t-51 -124t-126 -50.5z" />
    <glyph glyph-name="Yacute" unicode="&#xdd;" 
d="M491 467l-453 965h292l174 -393l97 -259h7l94 259l176 393h284l-452 -965h-219zM466 0v660h268v-660h-268zM487 1638v13l197 359h306v-12l-269 -360h-234z" />
    <glyph glyph-name="Thorn" unicode="&#xde;" 
d="M295 296v238h301q112 0 174 55.5t62 154.5v22q0 100 -62 155t-174 55h-301v238h303q153 0 263.5 -55.5t171.5 -157.5t61 -242v-8q0 -139 -60.5 -241.5t-171.5 -158t-264 -55.5h-303zM136 0v1432h264v-1432h-264z" />
    <glyph glyph-name="germandbls" unicode="&#xdf;" 
d="M768 -33q-88 0 -158.5 23t-128.5 68l107 192q35 -29 75 -44t89 -15q69 0 111 34t42 95v8q0 55 -34.5 95t-122.5 85l-68 35q-69 35 -103.5 85.5t-34.5 116.5v2q0 73 29 123.5t67.5 90.5t67.5 80.5t29 92.5v2q0 60 -38.5 96.5t-109.5 36.5q-94 0 -146 -61t-52 -175v-1033
h-260v1043q0 210 124.5 330t337.5 120q178 0 283.5 -90t105.5 -232v-6q0 -73 -27.5 -125t-65 -92t-65 -75t-27.5 -75v-6q0 -34 24 -58.5t78 -52.5l68 -34q100 -52 146 -132t46 -193v-2q0 -160 -105.5 -256.5t-283.5 -96.5z" />
    <glyph glyph-name="agrave" unicode="&#xe0;" 
d="M484 -33q-105 0 -184.5 42t-124 117t-44.5 173v14q0 161 111.5 257t296.5 96q79 0 147 -15t124 -44v-163q-89 54 -208 54q-97 0 -152 -45t-55 -128v-12q0 -75 47 -116.5t129 -41.5q65 0 114 33.5t76.5 93.5t27.5 139v247q0 102 -52.5 156t-156.5 54q-138 0 -253 -112
l-142 152q163 166 422 166q212 0 324.5 -106t112.5 -300v-678h-249v141h-8q-45 -83 -123 -128.5t-180 -45.5zM530 1256l-268 360v12h306l196 -359v-13h-234z" />
    <glyph glyph-name="aacute" unicode="&#xe1;" 
d="M484 -33q-105 0 -184.5 42t-124 117t-44.5 173v14q0 161 111.5 257t296.5 96q79 0 147 -15t124 -44v-163q-89 54 -208 54q-97 0 -152 -45t-55 -128v-12q0 -75 47 -116.5t129 -41.5q65 0 114 33.5t76.5 93.5t27.5 139v247q0 102 -52.5 156t-156.5 54q-138 0 -253 -112
l-142 152q163 166 422 166q212 0 324.5 -106t112.5 -300v-678h-249v141h-8q-45 -83 -123 -128.5t-180 -45.5zM458 1256v13l197 359h306v-12l-269 -360h-234z" />
    <glyph glyph-name="acircumflex" unicode="&#xe2;" 
d="M484 -33q-105 0 -184.5 42t-124 117t-44.5 173v14q0 161 111.5 257t296.5 96q79 0 147 -15t124 -44v-163q-89 54 -208 54q-97 0 -152 -45t-55 -128v-12q0 -75 47 -116.5t129 -41.5q65 0 114 33.5t76.5 93.5t27.5 139v247q0 102 -52.5 156t-156.5 54q-138 0 -253 -112
l-142 152q163 166 422 166q212 0 324.5 -106t112.5 -300v-678h-249v141h-8q-45 -83 -123 -128.5t-180 -45.5zM193 1256v13l284 359h260l284 -359v-13h-262l-180 290h57l-181 -290h-262z" />
    <glyph glyph-name="atilde" unicode="&#xe3;" 
d="M484 -33q-105 0 -184.5 42t-124 117t-44.5 173v14q0 161 111.5 257t296.5 96q79 0 147 -15t124 -44v-163q-89 54 -208 54q-97 0 -152 -45t-55 -128v-12q0 -75 47 -116.5t129 -41.5q65 0 114 33.5t76.5 93.5t27.5 139v247q0 102 -52.5 156t-156.5 54q-138 0 -253 -112
l-142 152q163 166 422 166q212 0 324.5 -106t112.5 -300v-678h-249v141h-8q-45 -83 -123 -128.5t-180 -45.5zM782 1260q-51 0 -97.5 23t-99.5 79q-39 40 -62 56t-46 16q-59 0 -59 -84v-86h-195v92q0 132 57 203.5t162 71.5q50 0 93 -22t96 -79q38 -40 61.5 -56t47.5 -16
q56 0 56 82v88h196v-92q0 -133 -53 -204.5t-157 -71.5z" />
    <glyph glyph-name="adieresis" unicode="&#xe4;" 
d="M484 -33q-105 0 -184.5 42t-124 117t-44.5 173v14q0 161 111.5 257t296.5 96q79 0 147 -15t124 -44v-163q-89 54 -208 54q-97 0 -152 -45t-55 -128v-12q0 -75 47 -116.5t129 -41.5q65 0 114 33.5t76.5 93.5t27.5 139v247q0 102 -52.5 156t-156.5 54q-138 0 -253 -112
l-142 152q163 166 422 166q212 0 324.5 -106t112.5 -300v-678h-249v141h-8q-45 -83 -123 -128.5t-180 -45.5zM353 1257q-74 0 -125.5 50.5t-51.5 123.5t52 124t125 51q75 0 126 -50.5t51 -124t-51 -124t-126 -50.5zM861 1257q-74 0 -125.5 50.5t-51.5 123.5t52 124t125 51
q75 0 126 -50.5t51 -124t-51 -124t-126 -50.5z" />
    <glyph glyph-name="aring" unicode="&#xe5;" 
d="M484 -33q-105 0 -184.5 42t-124 117t-44.5 173v14q0 161 111.5 257t296.5 96q79 0 147 -15t124 -44v-163q-89 54 -208 54q-97 0 -152 -45t-55 -128v-12q0 -75 47 -116.5t129 -41.5q65 0 114 33.5t76.5 93.5t27.5 139v247q0 102 -52.5 156t-156.5 54q-138 0 -253 -112
l-142 152q163 166 422 166q212 0 324.5 -106t112.5 -300v-678h-249v141h-8q-45 -83 -123 -128.5t-180 -45.5zM453.5 1193q-68.5 39 -109 105t-40.5 148q0 83 40.5 149t109 105t153.5 39t153.5 -39t109 -105t40.5 -149q0 -82 -40.5 -148t-109 -105t-153.5 -39t-153.5 39z
M698 1356q36 36 36 90.5t-36 90.5t-90.5 36t-91 -36t-36.5 -90.5t36.5 -90.5t91 -36t90.5 36z" />
    <glyph glyph-name="ae" unicode="&#xe6;" 
d="M323 -33q-93 0 -163 42t-108.5 118t-38.5 178v10q0 158 89.5 254.5t234.5 96.5q93 0 160 -41v-164q-50 36 -112 36t-96 -43t-34 -121v-16q0 -72 28.5 -112t79.5 -40q56 0 84 54t28 161v312q0 97 -28 141.5t-90 44.5q-82 0 -155 -92l-150 134q129 164 314 164
q119 0 193 -73t100 -216h-105q35 135 120 212t197 77q150 0 231.5 -124.5t81.5 -354.5q0 -34 -1 -68.5t-4 -75.5h-572v164h370l-13 -2q0 256 -120 256q-72 0 -112 -89.5t-40 -253.5v-30q0 -160 40 -249.5t116 -89.5q46 0 76.5 33.5t63.5 116.5l190 -77q-54 -141 -132 -207
t-188 -66q-127 0 -215.5 92.5t-111.5 247.5h119q-38 -172 -119 -256t-208 -84z" />
    <glyph glyph-name="ccedilla" unicode="&#xe7;" 
d="M661 -33q-157 0 -274.5 68.5t-182 192.5t-64.5 288v19q0 165 64.5 288t181 191.5t271.5 68.5q169 0 281.5 -81t161.5 -230l-231 -83q-27 82 -80 124t-134 42q-119 0 -187 -83.5t-68 -229.5v-34q0 -142 71 -226.5t192 -84.5q83 0 140 42t89 126l228 -90
q-35 -96 -102 -165.5t-158 -106t-199 -36.5zM665 -644q-93 0 -175.5 47t-132.5 127l149 98q65 -100 159 -100q53 0 86 28t33 76t-29.5 76.5t-78.5 28.5q-58 0 -99 -32l-109 94l135 218h146l-158 -247l-77 32q38 40 89 61.5t106 21.5q116 0 186.5 -71t70.5 -188
q0 -120 -83 -195t-218 -75z" />
    <glyph glyph-name="egrave" unicode="&#xe8;" 
d="M631 -33q-161 0 -279.5 67.5t-184 190.5t-65.5 288v27q0 164 65.5 286t183 190t273.5 68q141 0 245 -59.5t162 -167t58 -252.5q0 -41 -3 -77.5t-9 -66.5h-833v165h601v-2q0 115 -59 180.5t-161 65.5q-125 0 -198 -89t-73 -245v-19q0 -154 75 -243.5t203 -89.5
q157 0 230 149l220 -102q-63 -129 -178 -196.5t-273 -67.5zM508 1256l-268 360v12h306l196 -359v-13h-234z" />
    <glyph glyph-name="eacute" unicode="&#xe9;" 
d="M631 -33q-161 0 -279.5 67.5t-184 190.5t-65.5 288v27q0 164 65.5 286t183 190t273.5 68q141 0 245 -59.5t162 -167t58 -252.5q0 -41 -3 -77.5t-9 -66.5h-833v165h601v-2q0 115 -59 180.5t-161 65.5q-125 0 -198 -89t-73 -245v-19q0 -154 75 -243.5t203 -89.5
q157 0 230 149l220 -102q-63 -129 -178 -196.5t-273 -67.5zM508 1256v13l197 359h306v-12l-269 -360h-234z" />
    <glyph glyph-name="ecircumflex" unicode="&#xea;" 
d="M631 -33q-161 0 -279.5 67.5t-184 190.5t-65.5 288v27q0 164 65.5 286t183 190t273.5 68q141 0 245 -59.5t162 -167t58 -252.5q0 -41 -3 -77.5t-9 -66.5h-833v165h601v-2q0 115 -59 180.5t-161 65.5q-125 0 -198 -89t-73 -245v-19q0 -154 75 -243.5t203 -89.5
q157 0 230 149l220 -102q-63 -129 -178 -196.5t-273 -67.5zM211 1256v13l284 359h260l284 -359v-13h-262l-180 290h57l-181 -290h-262z" />
    <glyph glyph-name="edieresis" unicode="&#xeb;" 
d="M631 -33q-161 0 -279.5 67.5t-184 190.5t-65.5 288v27q0 164 65.5 286t183 190t273.5 68q141 0 245 -59.5t162 -167t58 -252.5q0 -41 -3 -77.5t-9 -66.5h-833v165h601v-2q0 115 -59 180.5t-161 65.5q-125 0 -198 -89t-73 -245v-19q0 -154 75 -243.5t203 -89.5
q157 0 230 149l220 -102q-63 -129 -178 -196.5t-273 -67.5zM371 1257q-74 0 -125.5 50.5t-51.5 123.5t52 124t125 51q75 0 126 -50.5t51 -124t-51 -124t-126 -50.5zM879 1257q-74 0 -125.5 50.5t-51.5 123.5t52 124t125 51q75 0 126 -50.5t51 -124t-51 -124t-126 -50.5z" />
    <glyph glyph-name="igrave" unicode="&#xec;" 
d="M523 17v1033h256v-1033h-256zM179 0v199h923v-199h-923zM199 850v200h536v-200h-536zM534 1256l-268 360v12h306l196 -359v-13h-234z" />
    <glyph glyph-name="iacute" unicode="&#xed;" 
d="M523 17v1033h256v-1033h-256zM179 0v199h923v-199h-923zM199 850v200h536v-200h-536zM534 1256v13l197 359h306v-12l-269 -360h-234z" />
    <glyph glyph-name="icircumflex" unicode="&#xee;" 
d="M523 17v1033h256v-1033h-256zM179 0v199h923v-199h-923zM199 850v200h536v-200h-536zM237 1256v13l284 359h260l284 -359v-13h-262l-180 290h57l-181 -290h-262z" />
    <glyph glyph-name="idieresis" unicode="&#xef;" 
d="M523 17v1033h256v-1033h-256zM179 0v199h923v-199h-923zM199 850v200h536v-200h-536zM397 1257q-74 0 -125.5 50.5t-51.5 123.5t52 124t125 51q75 0 126 -50.5t51 -124t-51 -124t-126 -50.5zM905 1257q-74 0 -125.5 50.5t-51.5 123.5t52 124t125 51q75 0 126 -50.5
t51 -124t-51 -124t-126 -50.5z" />
    <glyph glyph-name="eth" unicode="&#xf0;" 
d="M604 -33q-148 0 -261 67t-177 186t-64 274v13q0 149 58 263.5t160.5 179.5t238.5 65q118 0 193.5 -53.5t112.5 -142.5l-49 32l38 12q-19 132 -69.5 237t-144 193.5t-243.5 170.5l100 164q215 -124 351.5 -275.5t201.5 -340t65 -425.5v-12q0 -201 -63.5 -336.5
t-178.5 -203.5t-269 -68zM608 200q118 0 182 81.5t64 219.5v6q0 139 -64.5 220.5t-181.5 81.5q-116 0 -180.5 -81.5t-64.5 -220.5v-6q0 -138 64.5 -219.5t180.5 -81.5zM298 1120l-40 161l414 93l97 -136zM803 1260l-96 136l358 91l40 -161z" />
    <glyph glyph-name="ntilde" unicode="&#xf1;" 
d="M154 0v1050h247v-160h9q59 93 145.5 143.5t194.5 50.5q152 0 237 -101.5t85 -273.5v-709h-261v656q0 100 -44 153t-131 53q-99 0 -160 -68.5t-61 -183.5v-610h-261zM791 1260q-51 0 -97.5 23t-99.5 79q-39 40 -62 56t-46 16q-59 0 -59 -84v-86h-195v92q0 132 57 203.5
t162 71.5q50 0 93 -22t96 -79q38 -40 61.5 -56t47.5 -16q56 0 56 82v88h196v-92q0 -133 -53 -204.5t-157 -71.5z" />
    <glyph glyph-name="ograve" unicode="&#xf2;" 
d="M334.5 36.5q-115.5 69.5 -180 193t-64.5 283.5v24q0 161 64.5 284t180 193t265.5 70t265 -70t180 -193t65 -284v-24q0 -160 -65 -283.5t-180 -193t-265 -69.5t-265.5 69.5zM781 285.5q67 85.5 67 231.5v16q0 146 -67 231.5t-181 85.5t-181 -85.5t-67 -231.5v-16
q0 -146 67 -231.5t181 -85.5t181 85.5zM483 1256l-268 360v12h306l196 -359v-13h-234z" />
    <glyph glyph-name="oacute" unicode="&#xf3;" 
d="M334.5 36.5q-115.5 69.5 -180 193t-64.5 283.5v24q0 161 64.5 284t180 193t265.5 70t265 -70t180 -193t65 -284v-24q0 -160 -65 -283.5t-180 -193t-265 -69.5t-265.5 69.5zM781 285.5q67 85.5 67 231.5v16q0 146 -67 231.5t-181 85.5t-181 -85.5t-67 -231.5v-16
q0 -146 67 -231.5t181 -85.5t181 85.5zM483 1256v13l197 359h306v-12l-269 -360h-234z" />
    <glyph glyph-name="ocircumflex" unicode="&#xf4;" 
d="M334.5 36.5q-115.5 69.5 -180 193t-64.5 283.5v24q0 161 64.5 284t180 193t265.5 70t265 -70t180 -193t65 -284v-24q0 -160 -65 -283.5t-180 -193t-265 -69.5t-265.5 69.5zM781 285.5q67 85.5 67 231.5v16q0 146 -67 231.5t-181 85.5t-181 -85.5t-67 -231.5v-16
q0 -146 67 -231.5t181 -85.5t181 85.5zM186 1256v13l284 359h260l284 -359v-13h-262l-180 290h57l-181 -290h-262z" />
    <glyph glyph-name="otilde" unicode="&#xf5;" 
d="M334.5 36.5q-115.5 69.5 -180 193t-64.5 283.5v24q0 161 64.5 284t180 193t265.5 70t265 -70t180 -193t65 -284v-24q0 -160 -65 -283.5t-180 -193t-265 -69.5t-265.5 69.5zM781 285.5q67 85.5 67 231.5v16q0 146 -67 231.5t-181 85.5t-181 -85.5t-67 -231.5v-16
q0 -146 67 -231.5t181 -85.5t181 85.5zM775 1260q-51 0 -97.5 23t-99.5 79q-39 40 -62 56t-46 16q-59 0 -59 -84v-86h-195v92q0 132 57 203.5t162 71.5q50 0 93 -22t96 -79q38 -40 61.5 -56t47.5 -16q56 0 56 82v88h196v-92q0 -133 -53 -204.5t-157 -71.5z" />
    <glyph glyph-name="odieresis" unicode="&#xf6;" 
d="M334.5 36.5q-115.5 69.5 -180 193t-64.5 283.5v24q0 161 64.5 284t180 193t265.5 70t265 -70t180 -193t65 -284v-24q0 -160 -65 -283.5t-180 -193t-265 -69.5t-265.5 69.5zM781 285.5q67 85.5 67 231.5v16q0 146 -67 231.5t-181 85.5t-181 -85.5t-67 -231.5v-16
q0 -146 67 -231.5t181 -85.5t181 85.5zM346 1257q-74 0 -125.5 50.5t-51.5 123.5t52 124t125 51q75 0 126 -50.5t51 -124t-51 -124t-126 -50.5zM854 1257q-74 0 -125.5 50.5t-51.5 123.5t52 124t125 51q75 0 126 -50.5t51 -124t-51 -124t-126 -50.5z" />
    <glyph glyph-name="divide" unicode="&#xf7;" 
d="M134 513v250h932v-250h-932zM482 927q-48 48 -48 118t48 118t118.5 48t118 -47.5t47.5 -118t-47.5 -118.5t-118 -48t-118.5 48zM482 113q-48 48 -48 118t48 118t118.5 48t118 -47.5t47.5 -118t-47.5 -118.5t-118 -48t-118.5 48z" />
    <glyph glyph-name="oslash" unicode="&#xf8;" 
d="M231 -177l-155 97l894 1309l154 -99zM606 -33q-108 0 -202.5 43.5t-166.5 119t-112.5 174.5t-40.5 209v24q0 161 65 284t180 193t265 70q108 0 202.5 -43.5t166.5 -119t112.5 -174.5t40.5 -210v-24q0 -159 -65 -282.5t-180 -193.5t-265 -70zM600 163q134 0 210 96.5
t76 269.5v16q0 183 -68.5 262.5t-217.5 79.5q-133 0 -209.5 -96t-76.5 -270v-16q0 -182 68.5 -262t217.5 -80z" />
    <glyph glyph-name="ugrave" unicode="&#xf9;" 
d="M472 -33q-149 0 -235.5 97.5t-86.5 267.5v718h262v-661q0 -97 44 -148.5t126 -51.5q87 0 141.5 68t54.5 181v612h261v-1050h-247v160h-9q-49 -86 -127 -139.5t-184 -53.5zM478 1256l-268 360v12h306l196 -359v-13h-234z" />
    <glyph glyph-name="uacute" unicode="&#xfa;" 
d="M472 -33q-149 0 -235.5 97.5t-86.5 267.5v718h262v-661q0 -97 44 -148.5t126 -51.5q87 0 141.5 68t54.5 181v612h261v-1050h-247v160h-9q-49 -86 -127 -139.5t-184 -53.5zM478 1256v13l197 359h306v-12l-269 -360h-234z" />
    <glyph glyph-name="ucircumflex" unicode="&#xfb;" 
d="M472 -33q-149 0 -235.5 97.5t-86.5 267.5v718h262v-661q0 -97 44 -148.5t126 -51.5q87 0 141.5 68t54.5 181v612h261v-1050h-247v160h-9q-49 -86 -127 -139.5t-184 -53.5zM181 1256v13l284 359h260l284 -359v-13h-262l-180 290h57l-181 -290h-262z" />
    <glyph glyph-name="udieresis" unicode="&#xfc;" 
d="M472 -33q-149 0 -235.5 97.5t-86.5 267.5v718h262v-661q0 -97 44 -148.5t126 -51.5q87 0 141.5 68t54.5 181v612h261v-1050h-247v160h-9q-49 -86 -127 -139.5t-184 -53.5zM341 1257q-74 0 -125.5 50.5t-51.5 123.5t52 124t125 51q75 0 126 -50.5t51 -124t-51 -124
t-126 -50.5zM849 1257q-74 0 -125.5 50.5t-51.5 123.5t52 124t125 51q75 0 126 -50.5t51 -124t-51 -124t-126 -50.5z" />
    <glyph glyph-name="yacute" unicode="&#xfd;" 
d="M323 -447q-168 0 -289 101l128 197q78 -64 153 -64q57 0 92.5 27.5t59.5 91.5l96 263h47l92 358l171 523h273l-447 -1193q-60 -161 -149 -232.5t-227 -71.5zM528 -90l-429 1140h275l178 -523l71 -263h70zM507 1256v13l197 359h306v-12l-269 -360h-234z" />
    <glyph glyph-name="thorn" unicode="&#xfe;" 
d="M129 -410v1870h262v-565h9q47 90 127 139.5t180 49.5q118 0 205.5 -68t136 -191t48.5 -289v-22q0 -164 -48.5 -287.5t-136 -191.5t-205.5 -68q-101 0 -177.5 46.5t-130.5 135.5h-8v-559h-262zM613 188q105 0 163 85.5t58 239.5v25q0 155 -57.5 239.5t-162.5 84.5
q-106 0 -168.5 -89t-62.5 -239v-18q0 -149 62.5 -238.5t167.5 -89.5z" />
    <glyph glyph-name="ydieresis" unicode="&#xff;" 
d="M323 -447q-168 0 -289 101l128 197q78 -64 153 -64q57 0 92.5 27.5t59.5 91.5l96 263h47l92 358l171 523h273l-447 -1193q-60 -161 -149 -232.5t-227 -71.5zM528 -90l-429 1140h275l178 -523l71 -263h70zM370 1257q-74 0 -125.5 50.5t-51.5 123.5t52 124t125 51
q75 0 126 -50.5t51 -124t-51 -124t-126 -50.5zM878 1257q-74 0 -125.5 50.5t-51.5 123.5t52 124t125 51q75 0 126 -50.5t51 -124t-51 -124t-126 -50.5z" />
    <glyph glyph-name="Amacron" unicode="&#x100;" 
d="M30 0l445 1432h254l441 -1432h-276l-249 944l-44 192h-7l-42 -192l-251 -944h-271zM231 307l68 216h590l73 -216h-731zM281 1706v218h642v-218h-642z" />
    <glyph glyph-name="amacron" unicode="&#x101;" 
d="M484 -33q-105 0 -184.5 42t-124 117t-44.5 173v14q0 161 111.5 257t296.5 96q79 0 147 -15t124 -44v-163q-89 54 -208 54q-97 0 -152 -45t-55 -128v-12q0 -75 47 -116.5t129 -41.5q65 0 114 33.5t76.5 93.5t27.5 139v247q0 102 -52.5 156t-156.5 54q-138 0 -253 -112
l-142 152q163 166 422 166q212 0 324.5 -106t112.5 -300v-678h-249v141h-8q-45 -83 -123 -128.5t-180 -45.5zM286 1324v218h642v-218h-642z" />
    <glyph glyph-name="Abreve" unicode="&#x102;" 
d="M30 0l445 1432h254l441 -1432h-276l-249 944l-44 192h-7l-42 -192l-251 -944h-271zM231 307l68 216h590l73 -216h-731zM407.5 1676.5q-83.5 46.5 -131 129.5t-47.5 192v12h204v-18q0 -82 45.5 -129.5t124 -47.5t123.5 47.5t45 129.5v18h204v-12q0 -109 -47.5 -192
t-131 -129.5t-194.5 -46.5t-194.5 46.5z" />
    <glyph glyph-name="abreve" unicode="&#x103;" 
d="M484 -33q-105 0 -184.5 42t-124 117t-44.5 173v14q0 161 111.5 257t296.5 96q79 0 147 -15t124 -44v-163q-89 54 -208 54q-97 0 -152 -45t-55 -128v-12q0 -75 47 -116.5t129 -41.5q65 0 114 33.5t76.5 93.5t27.5 139v247q0 102 -52.5 156t-156.5 54q-138 0 -253 -112
l-142 152q163 166 422 166q212 0 324.5 -106t112.5 -300v-678h-249v141h-8q-45 -83 -123 -128.5t-180 -45.5zM412.5 1294.5q-83.5 46.5 -131 129.5t-47.5 192v12h204v-18q0 -82 45.5 -129.5t124 -47.5t123.5 47.5t45 129.5v18h204v-12q0 -109 -47.5 -192t-131 -129.5
t-194.5 -46.5t-194.5 46.5z" />
    <glyph glyph-name="Aogonek" unicode="&#x104;" 
d="M30 0l445 1432h254l441 -1432h-276l-249 944l-44 192h-7l-42 -192l-251 -944h-271zM231 307l68 216h590l73 -216h-731zM1029 -544q-81 0 -145.5 35.5t-101.5 96t-37 137.5q0 121 89.5 214.5t277.5 163.5l59 -103q-115 -59 -166 -114t-51 -123q0 -49 33.5 -80t86.5 -31
q49 0 93 22l52 -168q-87 -50 -190 -50z" />
    <glyph glyph-name="aogonek" unicode="&#x105;" 
d="M912 -543q-81 0 -145 35t-101 96t-37 138q0 119 87 212.5t270 165.5l58 -104q-109 -59 -157.5 -114t-48.5 -122q0 -49 33.5 -80t86.5 -31q48 0 93 22l56 -168q-89 -50 -195 -50zM484 -33q-105 0 -184.5 42t-124 117t-44.5 173v14q0 161 111.5 257t296.5 96q79 0 147 -15
t124 -44v-163q-89 54 -208 54q-97 0 -152 -45t-55 -128v-12q0 -75 47 -116.5t129 -41.5q65 0 114 33.5t76.5 93.5t27.5 139v247q0 102 -52.5 156t-156.5 54q-138 0 -253 -112l-142 152q163 166 422 166q212 0 324.5 -106t112.5 -300v-678h-249v141h-8q-45 -83 -123 -128.5
t-180 -45.5z" />
    <glyph glyph-name="Cacute" unicode="&#x106;" 
d="M656 -33q-173 0 -301.5 90t-199.5 253.5t-71 384.5v42q0 224 69 387.5t195 252t299 88.5q179 0 301 -98t171 -282l-246 -79q-31 108 -86 157.5t-144 49.5q-137 0 -211.5 -122.5t-74.5 -348.5v-52q0 -223 78.5 -347t219.5 -124q177 0 236 211l247 -77
q-49 -185 -174.5 -285.5t-307.5 -100.5zM528 1638v13l197 359h306v-12l-269 -360h-234z" />
    <glyph glyph-name="cacute" unicode="&#x107;" 
d="M661 -33q-157 0 -274.5 68.5t-182 192.5t-64.5 288v19q0 165 64.5 288t181 191.5t271.5 68.5q169 0 281.5 -81t161.5 -230l-231 -83q-27 82 -80 124t-134 42q-119 0 -187 -83.5t-68 -229.5v-34q0 -142 71 -226.5t192 -84.5q83 0 140 42t89 126l228 -90
q-35 -96 -102 -165.5t-158 -106t-199 -36.5zM539 1256v13l197 359h306v-12l-269 -360h-234z" />
    <glyph glyph-name="Cdotaccent" unicode="&#x10a;" 
d="M656 -33q-173 0 -301.5 90t-199.5 253.5t-71 384.5v42q0 224 69 387.5t195 252t299 88.5q179 0 301 -98t171 -282l-246 -79q-31 108 -86 157.5t-144 49.5q-137 0 -211.5 -122.5t-74.5 -348.5v-52q0 -223 78.5 -347t219.5 -124q177 0 236 211l247 -77
q-49 -185 -174.5 -285.5t-307.5 -100.5zM645 1639q-78 0 -131.5 53.5t-53.5 130.5t53 130.5t132 53.5t132 -53.5t53 -130.5t-52.5 -130.5t-132.5 -53.5z" />
    <glyph glyph-name="cdotaccent" unicode="&#x10b;" 
d="M661 -33q-157 0 -274.5 68.5t-182 192.5t-64.5 288v19q0 165 64.5 288t181 191.5t271.5 68.5q169 0 281.5 -81t161.5 -230l-231 -83q-27 82 -80 124t-134 42q-119 0 -187 -83.5t-68 -229.5v-34q0 -142 71 -226.5t192 -84.5q83 0 140 42t89 126l228 -90
q-35 -96 -102 -165.5t-158 -106t-199 -36.5zM656 1257q-78 0 -131.5 53.5t-53.5 130.5t53 130.5t132 53.5t132 -53.5t53 -130.5t-52.5 -130.5t-132.5 -53.5z" />
    <glyph glyph-name="Ccaron" unicode="&#x10c;" 
d="M656 -33q-173 0 -301.5 90t-199.5 253.5t-71 384.5v42q0 224 69 387.5t195 252t299 88.5q179 0 301 -98t171 -282l-246 -79q-31 108 -86 157.5t-144 49.5q-137 0 -211.5 -122.5t-74.5 -348.5v-52q0 -223 78.5 -347t219.5 -124q177 0 236 211l247 -77
q-49 -185 -174.5 -285.5t-307.5 -100.5zM515 1638l-284 359v13h262l177 -290h-49l176 290h262v-13l-284 -359h-260z" />
    <glyph glyph-name="ccaron" unicode="&#x10d;" 
d="M661 -33q-157 0 -274.5 68.5t-182 192.5t-64.5 288v19q0 165 64.5 288t181 191.5t271.5 68.5q169 0 281.5 -81t161.5 -230l-231 -83q-27 82 -80 124t-134 42q-119 0 -187 -83.5t-68 -229.5v-34q0 -142 71 -226.5t192 -84.5q83 0 140 42t89 126l228 -90
q-35 -96 -102 -165.5t-158 -106t-199 -36.5zM526 1256l-284 359v13h262l177 -290h-49l176 290h262v-13l-284 -359h-260z" />
    <glyph glyph-name="Dcaron" unicode="&#x10e;" 
d="M124 0v1432h405q180 0 311 -84.5t201.5 -240t70.5 -370.5v-42q0 -214 -70.5 -370t-201.5 -240.5t-311 -84.5h-405zM389 250h135q157 0 236 110.5t79 329.5v52q0 219 -79.5 329.5t-235.5 110.5h-135v-932zM440 1638l-284 359v13h262l177 -290h-49l176 290h262v-13
l-284 -359h-260z" />
    <glyph glyph-name="dcaron" unicode="&#x10f;" 
d="M423 -33q-103 0 -184.5 64.5t-129 185.5t-47.5 288v42q0 169 45.5 288.5t125 183.5t182.5 64q88 0 149 -45.5t100 -132.5h8v555h244v-1460h-233v159h-8q-37 -89 -100.5 -140.5t-151.5 -51.5zM498 183q83 0 132.5 85t49.5 235v45q0 151 -49 235.5t-133 84.5
q-87 0 -136 -83t-49 -237v-45q0 -153 49.5 -236.5t135.5 -83.5zM1003 944l20 516h219l-53 -516h-186z" />
    <glyph glyph-name="Dcroat" unicode="&#x110;" 
d="M182 0v1432h384q183 0 313 -83t199.5 -238.5t69.5 -373.5v-42q0 -218 -69.5 -373.5t-199.5 -238.5t-313 -83h-384zM28 616v238h684v-238h-684zM419 243h144q174 0 254.5 112t80.5 335v52q0 224 -80.5 335.5t-254.5 111.5h-144v-946z" />
    <glyph glyph-name="dcroat" unicode="&#x111;" 
d="M489 -33q-118 0 -210.5 65t-145.5 180t-53 263v22q0 149 51 263.5t141.5 179.5t208.5 65q106 0 180.5 -49t123.5 -143h8v692h243v-1505h-238v161h-8q-46 -92 -124 -143t-177 -51zM567 189q103 0 165 81t62 213v17q0 132 -61.5 213.5t-165.5 81.5q-108 0 -169 -78
t-61 -213v-24q0 -134 61.5 -212.5t168.5 -78.5zM445 1159v180h769v-180h-769z" />
    <glyph glyph-name="Emacron" unicode="&#x112;" 
d="M157 0v1432h864v-249h-598v-934h614v-249h-880zM319 608v248h622v-248h-622zM268 1706v218h642v-218h-642z" />
    <glyph glyph-name="emacron" unicode="&#x113;" 
d="M631 -33q-161 0 -279.5 67.5t-184 190.5t-65.5 288v27q0 164 65.5 286t183 190t273.5 68q141 0 245 -59.5t162 -167t58 -252.5q0 -41 -3 -77.5t-9 -66.5h-833v165h601v-2q0 115 -59 180.5t-161 65.5q-125 0 -198 -89t-73 -245v-19q0 -154 75 -243.5t203 -89.5
q157 0 230 149l220 -102q-63 -129 -178 -196.5t-273 -67.5zM304 1324v218h642v-218h-642z" />
    <glyph glyph-name="Edotaccent" unicode="&#x116;" 
d="M157 0v1432h864v-249h-598v-934h614v-249h-880zM319 608v248h622v-248h-622zM589 1639q-78 0 -131.5 53.5t-53.5 130.5t53 130.5t132 53.5t132 -53.5t53 -130.5t-52.5 -130.5t-132.5 -53.5z" />
    <glyph glyph-name="edotaccent" unicode="&#x117;" 
d="M631 -33q-161 0 -279.5 67.5t-184 190.5t-65.5 288v27q0 164 65.5 286t183 190t273.5 68q141 0 245 -59.5t162 -167t58 -252.5q0 -41 -3 -77.5t-9 -66.5h-833v165h601v-2q0 115 -59 180.5t-161 65.5q-125 0 -198 -89t-73 -245v-19q0 -154 75 -243.5t203 -89.5
q157 0 230 149l220 -102q-63 -129 -178 -196.5t-273 -67.5zM625 1257q-78 0 -131.5 53.5t-53.5 130.5t53 130.5t132 53.5t132 -53.5t53 -130.5t-52.5 -130.5t-132.5 -53.5z" />
    <glyph glyph-name="Eogonek" unicode="&#x118;" 
d="M157 0v1432h864v-249h-598v-934h614v-249h-880zM319 608v248h622v-248h-622zM895 -544q-81 0 -145.5 35.5t-101.5 96t-37 137.5q0 121 89.5 214.5t277.5 163.5l59 -103q-115 -59 -166 -114t-51 -123q0 -49 33.5 -80t86.5 -31q49 0 93 22l52 -168q-87 -50 -190 -50z" />
    <glyph glyph-name="eogonek" unicode="&#x119;" 
d="M766 -543q-83 0 -149 34.5t-103.5 94.5t-37.5 135q0 122 88.5 214.5t278.5 168.5l-49 -109q-75 -23 -168 -23q-159 0 -277 67t-182.5 189t-64.5 285v27q0 164 65 286t183 190t274 68q140 0 244.5 -59.5t162.5 -167t58 -252.5q0 -41 -3 -77.5t-9 -66.5h-833v165h608l-7 -2
q0 115 -58.5 180.5t-162.5 65.5q-124 0 -197 -89t-73 -245v-19q0 -154 74.5 -243.5t203.5 -89.5q156 0 230 149l220 -102q-32 -66 -86.5 -124t-150.5 -123q-90 -62 -125.5 -109t-35.5 -106q0 -51 34.5 -83.5t86.5 -32.5q54 0 102 25l59 -169q-46 -26 -95 -39t-105 -13z" />
    <glyph glyph-name="Ecaron" unicode="&#x11a;" 
d="M157 0v1432h864v-249h-598v-934h614v-249h-880zM319 608v248h622v-248h-622zM459 1638l-284 359v13h262l177 -290h-49l176 290h262v-13l-284 -359h-260z" />
    <glyph glyph-name="ecaron" unicode="&#x11b;" 
d="M631 -33q-161 0 -279.5 67.5t-184 190.5t-65.5 288v27q0 164 65.5 286t183 190t273.5 68q141 0 245 -59.5t162 -167t58 -252.5q0 -41 -3 -77.5t-9 -66.5h-833v165h601v-2q0 115 -59 180.5t-161 65.5q-125 0 -198 -89t-73 -245v-19q0 -154 75 -243.5t203 -89.5
q157 0 230 149l220 -102q-63 -129 -178 -196.5t-273 -67.5zM495 1256l-284 359v13h262l177 -290h-49l176 290h262v-13l-284 -359h-260z" />
    <glyph glyph-name="Gbreve" unicode="&#x11e;" 
d="M648 -33q-179 0 -309 87.5t-199.5 250.5t-69.5 389v37q0 228 69.5 392.5t198 253t306.5 88.5q179 0 300 -88.5t175 -258.5l-241 -89q-29 96 -85.5 141t-145.5 45q-149 0 -228.5 -124t-79.5 -355v-47q0 -231 80 -352.5t231 -121.5q122 0 188.5 83t66.5 236v47h-296v223
h545v-222q0 -294 -132 -454.5t-374 -160.5zM451.5 1676.5q-83.5 46.5 -131 129.5t-47.5 192v12h204v-18q0 -82 45.5 -129.5t124 -47.5t123.5 47.5t45 129.5v18h204v-12q0 -109 -47.5 -192t-131 -129.5t-194.5 -46.5t-194.5 46.5z" />
    <glyph glyph-name="gbreve" unicode="&#x11f;" 
d="M597 -572q-163 0 -285 45.5t-189.5 127t-67.5 190.5q0 113 69.5 193.5t194.5 113.5l46 -111q-39 -29 -58.5 -69.5t-19.5 -89.5q0 -95 80 -145t231 -50q148 0 234.5 50.5t86.5 136.5q0 122 -155 122h-516v85l209 330l143 -22l-69 -192h275q164 0 256.5 -80.5t92.5 -224.5
q0 -126 -68 -218t-193 -142t-297 -50zM606 278q-128 0 -231.5 52.5t-164 143.5t-60.5 203v8q0 117 57 207t157 141t231 51q130 0 233 -53t163.5 -143t60.5 -203v-8q0 -117 -57 -207t-157.5 -141t-231.5 -51zM601 482q98 0 156 52.5t58 138.5v11q0 86 -58 138t-156 52
t-156.5 -52t-58.5 -138v-11q0 -86 58.5 -138.5t156.5 -52.5zM838 941l-89 52q33 142 129 216t248 74v-233q-196 0 -288 -109zM403.5 1294.5q-83.5 46.5 -131 129.5t-47.5 192v12h204v-18q0 -82 45.5 -129.5t124 -47.5t123.5 47.5t45 129.5v18h204v-12q0 -109 -47.5 -192
t-131 -129.5t-194.5 -46.5t-194.5 46.5z" />
    <glyph glyph-name="Gdotaccent" unicode="&#x120;" 
d="M648 -33q-179 0 -309 87.5t-199.5 250.5t-69.5 389v37q0 228 69.5 392.5t198 253t306.5 88.5q179 0 300 -88.5t175 -258.5l-241 -89q-29 96 -85.5 141t-145.5 45q-149 0 -228.5 -124t-79.5 -355v-47q0 -231 80 -352.5t231 -121.5q122 0 188.5 83t66.5 236v47h-296v223
h545v-222q0 -294 -132 -454.5t-374 -160.5zM646 1639q-78 0 -131.5 53.5t-53.5 130.5t53 130.5t132 53.5t132 -53.5t53 -130.5t-52.5 -130.5t-132.5 -53.5z" />
    <glyph glyph-name="gdotaccent" unicode="&#x121;" 
d="M597 -572q-163 0 -285 45.5t-189.5 127t-67.5 190.5q0 113 69.5 193.5t194.5 113.5l46 -111q-39 -29 -58.5 -69.5t-19.5 -89.5q0 -95 80 -145t231 -50q148 0 234.5 50.5t86.5 136.5q0 122 -155 122h-516v85l209 330l143 -22l-69 -192h275q164 0 256.5 -80.5t92.5 -224.5
q0 -126 -68 -218t-193 -142t-297 -50zM606 278q-128 0 -231.5 52.5t-164 143.5t-60.5 203v8q0 117 57 207t157 141t231 51q130 0 233 -53t163.5 -143t60.5 -203v-8q0 -117 -57 -207t-157.5 -141t-231.5 -51zM601 482q98 0 156 52.5t58 138.5v11q0 86 -58 138t-156 52
t-156.5 -52t-58.5 -138v-11q0 -86 58.5 -138.5t156.5 -52.5zM838 941l-89 52q33 142 129 216t248 74v-233q-196 0 -288 -109zM598 1257q-78 0 -131.5 53.5t-53.5 130.5t53 130.5t132 53.5t132 -53.5t53 -130.5t-52.5 -130.5t-132.5 -53.5z" />
    <glyph glyph-name="uni0122" unicode="&#x122;" 
d="M648 -33q-179 0 -309 87.5t-199.5 250.5t-69.5 389v37q0 228 69.5 392.5t198 253t306.5 88.5q179 0 300 -88.5t175 -258.5l-241 -89q-29 96 -85.5 141t-145.5 45q-149 0 -228.5 -124t-79.5 -355v-47q0 -231 80 -352.5t231 -121.5q122 0 188.5 83t66.5 236v47h-296v223
h545v-222q0 -294 -132 -454.5t-374 -160.5zM596 -835l-150 104l215 296l-4 -71q-78 4 -127.5 52.5t-49.5 120.5q0 74 51.5 122.5t129.5 48.5q84 0 136 -53t52 -139q0 -53 -21.5 -110t-72.5 -133z" />
    <glyph glyph-name="uni0123" unicode="&#x123;" 
d="M597 -572q-163 0 -285 45.5t-189.5 127t-67.5 190.5q0 113 69.5 193.5t194.5 113.5l46 -111q-39 -29 -58.5 -69.5t-19.5 -89.5q0 -95 80 -145t231 -50q148 0 234.5 50.5t86.5 136.5q0 122 -155 122h-516v85l209 330l143 -22l-69 -192h275q164 0 256.5 -80.5t92.5 -224.5
q0 -126 -68 -218t-193 -142t-297 -50zM606 278q-128 0 -231.5 52.5t-164 143.5t-60.5 203v8q0 117 57 207t157 141t231 51q130 0 233 -53t163.5 -143t60.5 -203v-8q0 -117 -57 -207t-157.5 -141t-231.5 -51zM601 482q98 0 156 52.5t58 138.5v11q0 86 -58 138t-156 52
t-156.5 -52t-58.5 -138v-11q0 -86 58.5 -138.5t156.5 -52.5zM838 941l-89 52q33 142 129 216t248 74v-233q-196 0 -288 -109zM630 1930l150 -104l-216 -296l5 71q78 -4 127.5 -52.5t49.5 -120.5q0 -74 -51.5 -123t-129.5 -49q-84 0 -136.5 53.5t-52.5 139.5q0 54 22.5 110.5
t72.5 131.5z" />
    <glyph glyph-name="Hbar" unicode="&#x126;" 
d="M778 0v1432h254v-1432h-254zM169 0v1432h254v-1432h-254zM305 560v236h599v-236h-599zM14 1016v214h1172v-214h-1172z" />
    <glyph glyph-name="hbar" unicode="&#x127;" 
d="M166 0v1505h241v-685h10q126 185 334 185q149 0 233 -98t84 -271v-636h-262v583q0 200 -168 200q-95 0 -152.5 -66.5t-57.5 -177.5v-539h-262zM-12 1159v180h765v-180h-765z" />
    <glyph glyph-name="Itilde" unicode="&#x128;" 
d="M465 123v1186h270v-1186h-270zM154 0v251h892v-251h-892zM154 1182v250h892v-250h-892zM775 1642q-51 0 -97.5 23t-99.5 79q-39 40 -62 56t-46 16q-59 0 -59 -84v-86h-195v92q0 132 57 203.5t162 71.5q50 0 93 -22t96 -79q38 -40 61.5 -56t47.5 -16q56 0 56 82v88h196
v-92q0 -133 -53 -204.5t-157 -71.5z" />
    <glyph glyph-name="itilde" unicode="&#x129;" 
d="M523 17v1033h256v-1033h-256zM179 0v199h923v-199h-923zM199 850v200h536v-200h-536zM826 1260q-51 0 -97.5 23t-99.5 79q-39 40 -62 56t-46 16q-59 0 -59 -84v-86h-195v92q0 132 57 203.5t162 71.5q50 0 93 -22t96 -79q38 -40 61.5 -56t47.5 -16q56 0 56 82v88h196v-92
q0 -133 -53 -204.5t-157 -71.5z" />
    <glyph glyph-name="Imacron" unicode="&#x12a;" 
d="M465 123v1186h270v-1186h-270zM154 0v251h892v-251h-892zM154 1182v250h892v-250h-892zM279 1706v218h642v-218h-642z" />
    <glyph glyph-name="imacron" unicode="&#x12b;" 
d="M523 17v1033h256v-1033h-256zM179 0v199h923v-199h-923zM199 850v200h536v-200h-536zM330 1324v218h642v-218h-642z" />
    <glyph glyph-name="Iogonek" unicode="&#x12e;" 
d="M465 123v1186h270v-1186h-270zM154 0v251h892v-251h-892zM154 1182v250h892v-250h-892zM624 -544q-81 0 -145.5 35.5t-101.5 96t-37 137.5q0 121 89.5 214.5t277.5 163.5l59 -103q-115 -59 -166 -114t-51 -123q0 -49 33.5 -80t86.5 -31q49 0 93 22l52 -168
q-87 -50 -190 -50z" />
    <glyph glyph-name="iogonek" unicode="&#x12f;" 
d="M523 73v977h256v-977h-256zM179 0v199h923v-199h-923zM199 850v200h536v-200h-536zM622 1257q-76 0 -129.5 52.5t-53.5 127.5q0 77 53.5 128t129.5 51q78 0 129.5 -51t51.5 -129q0 -74 -51.5 -126.5t-129.5 -52.5zM653 -544q-81 0 -145.5 35.5t-101.5 96t-37 137.5
q0 121 89.5 214.5t277.5 163.5l59 -103q-115 -59 -166 -114t-51 -123q0 -49 33.5 -80t86.5 -31q49 0 93 22l52 -168q-87 -50 -190 -50z" />
    <glyph glyph-name="Idotaccent" unicode="&#x130;" 
d="M465 123v1186h270v-1186h-270zM154 0v251h892v-251h-892zM154 1182v250h892v-250h-892zM600 1639q-78 0 -131.5 53.5t-53.5 130.5t53 130.5t132 53.5t132 -53.5t53 -130.5t-52.5 -130.5t-132.5 -53.5z" />
    <glyph glyph-name="dotlessi" unicode="&#x131;" 
d="M523 17v1033h256v-1033h-256zM179 0v199h923v-199h-923zM199 850v200h536v-200h-536z" />
    <glyph glyph-name="IJ" unicode="&#x132;" 
d="M614 -33q-185 0 -310.5 95.5t-178.5 271.5l259 80q57 -188 224 -188q96 0 146.5 62.5t50.5 179.5v964h270v-971q0 -149 -57 -260t-160.5 -172.5t-243.5 -61.5zM125 605v827h270v-827h-270z" />
    <glyph glyph-name="ij" unicode="&#x133;" 
d="M697 -447q-193 0 -357 118l127 198q57 -41 109.5 -61.5t109.5 -20.5q88 0 134.5 52t46.5 151v1060h260v-1052q0 -207 -115.5 -326t-314.5 -119zM29 0v199h681v-199h-681zM244 77v973h258v-973h-258zM41 852v198h430v-198h-430zM361 1257q-75 0 -129 52.5t-54 127.5
q0 78 54 128.5t129 50.5q79 0 130 -51t51 -128q0 -75 -51 -127.5t-130 -52.5zM643 852v198h418v-198h-418zM969 1257q-76 0 -129.5 52.5t-53.5 127.5q0 76 53 127.5t130 51.5q78 0 129.5 -51t51.5 -128q0 -76 -52 -128t-129 -52z" />
    <glyph glyph-name="uni0136" unicode="&#x136;" 
d="M855 0l-479 719v7l461 706h307l-508 -753v104l530 -783h-311zM116 0v1432h267v-1432h-267zM534 -835l-150 104l215 296l-4 -71q-78 4 -127.5 52.5t-49.5 120.5q0 74 51.5 122.5t129.5 48.5q84 0 136 -53t52 -139q0 -53 -21.5 -110t-72.5 -133z" />
    <glyph glyph-name="uni0137" unicode="&#x137;" 
d="M813 0l-429 562v8l410 480h309l-471 -538v113l489 -625h-308zM133 0v1460h262v-1460h-262zM536 -821l-150 104l215 296l-4 -71q-78 4 -127.5 52.5t-49.5 120.5q0 74 51.5 122.5t129.5 48.5q84 0 136 -53t52 -139q0 -53 -21.5 -110t-72.5 -133z" />
    <glyph glyph-name="kgreenlandic" unicode="&#x138;" 
d="M813 0l-429 562v8l410 480h309l-471 -538v113l489 -625h-308zM133 0v1050h262v-1050h-262z" />
    <glyph glyph-name="Lacute" unicode="&#x139;" 
d="M174 0v1432h267v-1180h653v-252h-920zM191 1638v13l197 359h306v-12l-269 -360h-234z" />
    <glyph glyph-name="lacute" unicode="&#x13a;" 
d="M789 -33q-190 0 -297.5 107.5t-107.5 296.5v1089h262v-1068q0 -189 166 -189q45 0 84 17.5t83 57.5l140 -187q-70 -64 -150 -94t-180 -30zM87 1251v209h480v-209h-480zM398 1666v13l197 359h306v-12l-269 -360h-234z" />
    <glyph glyph-name="uni013B" unicode="&#x13b;" 
d="M174 0v1432h267v-1180h653v-252h-920zM549 -835l-150 104l215 296l-4 -71q-78 4 -127.5 52.5t-49.5 120.5q0 74 51.5 122.5t129.5 48.5q84 0 136 -53t52 -139q0 -53 -21.5 -110t-72.5 -133z" />
    <glyph glyph-name="uni013C" unicode="&#x13c;" 
d="M789 -33q-190 0 -297.5 107.5t-107.5 296.5v1089h262v-1068q0 -189 166 -189q45 0 84 17.5t83 57.5l140 -187q-70 -64 -150 -94t-180 -30zM87 1251v209h480v-209h-480zM675 -868l-150 104l215 296l-4 -71q-78 4 -127.5 52.5t-49.5 120.5q0 74 51.5 122.5t129.5 48.5
q84 0 136 -53t52 -139q0 -53 -21.5 -110t-72.5 -133z" />
    <glyph glyph-name="Lcaron" unicode="&#x13d;" 
d="M651 904l41 528h272l-95 -528h-218zM174 0v1432h267v-1180h653v-252h-920z" />
    <glyph glyph-name="lcaron" unicode="&#x13e;" 
d="M776 -33q-189 0 -296.5 107.5t-107.5 296.5v1089h262v-1068q0 -189 165 -189q45 0 84.5 17.5t83.5 58.5l140 -188q-69 -64 -150 -94t-181 -30zM93 1251v209h462v-209h-462zM785 932l39 528h255l-94 -528h-200z" />
    <glyph glyph-name="Ldot" unicode="&#x13f;" 
d="M174 0v1432h267v-1180h653v-252h-920zM900 627q-81 0 -136.5 55.5t-55.5 136.5q0 80 56 135.5t136 55.5q82 0 137 -55.5t55 -135.5q0 -81 -55 -136.5t-137 -55.5z" />
    <glyph glyph-name="ldot" unicode="&#x140;" 
d="M789 -33q-190 0 -297.5 107.5t-107.5 296.5v1089h262v-1068q0 -189 166 -189q45 0 84 17.5t83 57.5l140 -187q-70 -64 -150 -94t-180 -30zM87 1251v209h480v-209h-480zM1105 579q-81 0 -136.5 55.5t-55.5 136.5q0 80 56 135.5t136 55.5q82 0 137 -55.5t55 -135.5
q0 -81 -55 -136.5t-137 -55.5z" />
    <glyph glyph-name="Lslash" unicode="&#x141;" 
d="M271 0v1432h250v-1180h595v-252h-845zM6 362v264l294 177l65 24l587 352v-264l-603 -357l-54 -18z" />
    <glyph glyph-name="lslash" unicode="&#x142;" 
d="M109 427v250l391 212l60 4l440 239v-250l-442 -238l-60 -4zM789 -33q-190 0 -297.5 107.5t-107.5 296.5v1089h262v-1068q0 -189 166 -189q45 0 84 17.5t83 57.5l140 -187q-70 -64 -150 -94t-180 -30zM87 1251v209h480v-209h-480z" />
    <glyph glyph-name="Nacute" unicode="&#x143;" 
d="M83 0v1432h266l520 -964h7l-21 330v634h262v-1432h-242l-545 1009h-7l21 -330v-679h-261zM485 1638v13l197 359h306v-12l-269 -360h-234z" />
    <glyph glyph-name="nacute" unicode="&#x144;" 
d="M154 0v1050h247v-160h9q59 93 145.5 143.5t194.5 50.5q152 0 237 -101.5t85 -273.5v-709h-261v656q0 100 -44 153t-131 53q-99 0 -160 -68.5t-61 -183.5v-610h-261zM499 1256v13l197 359h306v-12l-269 -360h-234z" />
    <glyph glyph-name="uni0145" unicode="&#x145;" 
d="M83 0v1432h266l520 -964h7l-21 330v634h262v-1432h-242l-545 1009h-7l21 -330v-679h-261zM546 -835l-150 104l215 296l-4 -71q-78 4 -127.5 52.5t-49.5 120.5q0 74 51.5 122.5t129.5 48.5q84 0 136 -53t52 -139q0 -53 -21.5 -110t-72.5 -133z" />
    <glyph glyph-name="uni0146" unicode="&#x146;" 
d="M154 0v1050h247v-160h9q59 93 145.5 143.5t194.5 50.5q152 0 237 -101.5t85 -273.5v-709h-261v656q0 100 -44 153t-131 53q-99 0 -160 -68.5t-61 -183.5v-610h-261zM545 -821l-150 104l215 296l-4 -71q-78 4 -127.5 52.5t-49.5 120.5q0 74 51.5 122.5t129.5 48.5
q84 0 136 -53t52 -139q0 -53 -21.5 -110t-72.5 -133z" />
    <glyph glyph-name="Ncaron" unicode="&#x147;" 
d="M83 0v1432h266l520 -964h7l-21 330v634h262v-1432h-242l-545 1009h-7l21 -330v-679h-261zM472 1638l-284 359v13h262l177 -290h-49l176 290h262v-13l-284 -359h-260z" />
    <glyph glyph-name="ncaron" unicode="&#x148;" 
d="M154 0v1050h247v-160h9q59 93 145.5 143.5t194.5 50.5q152 0 237 -101.5t85 -273.5v-709h-261v656q0 100 -44 153t-131 53q-99 0 -160 -68.5t-61 -183.5v-610h-261zM486 1256l-284 359v13h262l177 -290h-49l176 290h262v-13l-284 -359h-260z" />
    <glyph glyph-name="napostrophe" unicode="&#x149;" 
d="M338 0v1050h231v-149h8q106 182 296 182q133 0 204 -93t71 -250v-740h-245v687q0 176 -142 176q-81 0 -130 -60t-49 -159v-644h-244zM2 882l201 578h280l-263 -578h-218z" />
    <glyph glyph-name="Eng" unicode="&#x14a;" 
d="M705 -459q-205 0 -357 126l146 205q89 -79 195 -79q80 0 121.5 47t41.5 135v987q0 123 -52.5 187t-156.5 64q-78 0 -138 -38t-93.5 -106.5t-33.5 -160.5v-908h-268v1432h254v-196h8q65 109 161.5 169t218.5 60q172 0 270 -115.5t98 -312.5v-1053q0 -134 -52 -233
t-145.5 -154.5t-217.5 -55.5z" />
    <glyph glyph-name="eng" unicode="&#x14b;" 
d="M719 -447q-173 0 -294 96l129 194q38 -29 71.5 -42.5t69.5 -13.5q116 0 116 136v733q0 206 -175 206q-100 0 -160.5 -68.5t-60.5 -181.5v-612h-261v1050h247v-160h9q124 194 340 194q151 0 236.5 -100t85.5 -274v-783q0 -175 -93.5 -274.5t-259.5 -99.5z" />
    <glyph glyph-name="Omacron" unicode="&#x14c;" 
d="M312.5 54.5q-120.5 87.5 -185 250.5t-64.5 390v42q0 227 64.5 390t185 250.5t287.5 87.5t287.5 -87.5t185 -250.5t64.5 -390v-42q0 -227 -64.5 -390t-185 -250.5t-287.5 -87.5t-287.5 87.5zM797 340q68 121 68 350v52q0 229 -68.5 350t-196.5 121t-196.5 -121t-68.5 -350
v-52q0 -229 68.5 -350t197 -121t196.5 121zM279 1706v218h642v-218h-642z" />
    <glyph glyph-name="omacron" unicode="&#x14d;" 
d="M334.5 36.5q-115.5 69.5 -180 193t-64.5 283.5v24q0 161 64.5 284t180 193t265.5 70t265 -70t180 -193t65 -284v-24q0 -160 -65 -283.5t-180 -193t-265 -69.5t-265.5 69.5zM781 285.5q67 85.5 67 231.5v16q0 146 -67 231.5t-181 85.5t-181 -85.5t-67 -231.5v-16
q0 -146 67 -231.5t181 -85.5t181 85.5zM279 1324v218h642v-218h-642z" />
    <glyph glyph-name="Ohungarumlaut" unicode="&#x150;" 
d="M312.5 54.5q-120.5 87.5 -185 250.5t-64.5 390v42q0 227 64.5 390t185 250.5t287.5 87.5t287.5 -87.5t185 -250.5t64.5 -390v-42q0 -227 -64.5 -390t-185 -250.5t-287.5 -87.5t-287.5 87.5zM797 340q68 121 68 350v52q0 229 -68.5 350t-196.5 121t-196.5 -121t-68.5 -350
v-52q0 -229 68.5 -350t197 -121t196.5 121zM693 1638v13l161 359h288v-12l-233 -360h-216zM267 1638v13l161 359h288v-12l-233 -360h-216z" />
    <glyph glyph-name="ohungarumlaut" unicode="&#x151;" 
d="M334.5 36.5q-115.5 69.5 -180 193t-64.5 283.5v24q0 161 64.5 284t180 193t265.5 70t265 -70t180 -193t65 -284v-24q0 -160 -65 -283.5t-180 -193t-265 -69.5t-265.5 69.5zM781 285.5q67 85.5 67 231.5v16q0 146 -67 231.5t-181 85.5t-181 -85.5t-67 -231.5v-16
q0 -146 67 -231.5t181 -85.5t181 85.5zM693 1256v13l161 359h288v-12l-233 -360h-216zM267 1256v13l161 359h288v-12l-233 -360h-216z" />
    <glyph glyph-name="OE" unicode="&#x152;" 
d="M395 -33q-171 0 -267 184.5t-96 525.5v78q0 342 96 526t267 184q99 0 165 -71.5t97 -204.5h13l6 243h490v-242h-333v-948h349v-242h-506l-5 243h-14q-31 -132 -97 -204t-165 -72zM444 216q84 0 122.5 114.5t38.5 337.5v96q0 224 -38.5 338.5t-122.5 114.5
q-83 0 -122.5 -115.5t-39.5 -341.5v-88q0 -225 39.5 -340.5t122.5 -115.5zM741 612v239h373v-239h-373z" />
    <glyph glyph-name="oe" unicode="&#x153;" 
d="M354 -33q-158 0 -243.5 139.5t-85.5 394.5v48q0 256 85.5 395.5t243.5 139.5q109 0 180 -75.5t97 -220.5h-56q26 136 107.5 216t194.5 80q145 0 225 -128.5t80 -361.5q0 -36 -1 -66t-4 -66h-566v162h353h-6q0 259 -116 259q-68 0 -106.5 -88t-38.5 -259v-31
q0 -161 39 -248t110 -87q44 0 75 33.5t59 111.5l195 -65q-94 -283 -307 -283q-133 0 -212.5 95.5t-94.5 260.5h70q-19 -173 -90 -264.5t-187 -91.5zM377 182q129 0 129 323v40q0 323 -129 323t-129 -323v-40q0 -323 129 -323z" />
    <glyph glyph-name="Racute" unicode="&#x154;" 
d="M129 0v1432h458q151 0 260 -53.5t168.5 -153.5t59.5 -236v-16q0 -137 -59.5 -236.5t-169 -153.5t-259.5 -54h-305v228h299q106 0 165.5 54t59.5 149v26q0 95 -59.5 149t-165.5 54h-186v-1189h-266zM858 0l-364 630h293l372 -630h-301zM402 1638v13l197 359h306v-12
l-269 -360h-234z" />
    <glyph glyph-name="racute" unicode="&#x155;" 
d="M322 93v957h222v-232h12q47 128 134.5 197t202.5 69q80 0 142 -31.5t123 -104.5l-166 -194q-46 51 -89 72t-99 21q-110 0 -169 -79t-59 -226v-449h-254zM96 0v200h820v-200h-820zM116 851v199h323v-199h-323zM536 1256v13l197 359h306v-12l-269 -360h-234z" />
    <glyph glyph-name="Rcaron" unicode="&#x158;" 
d="M129 0v1432h458q151 0 260 -53.5t168.5 -153.5t59.5 -236v-16q0 -137 -59.5 -236.5t-169 -153.5t-259.5 -54h-305v228h299q106 0 165.5 54t59.5 149v26q0 95 -59.5 149t-165.5 54h-186v-1189h-266zM858 0l-364 630h293l372 -630h-301zM389 1638l-284 359v13h262l177 -290
h-49l176 290h262v-13l-284 -359h-260z" />
    <glyph glyph-name="rcaron" unicode="&#x159;" 
d="M322 93v957h222v-232h12q47 128 134.5 197t202.5 69q80 0 142 -31.5t123 -104.5l-166 -194q-46 51 -89 72t-99 21q-110 0 -169 -79t-59 -226v-449h-254zM96 0v200h820v-200h-820zM116 851v199h323v-199h-323zM523 1256l-284 359v13h262l177 -290h-49l176 290h262v-13
l-284 -359h-260z" />
    <glyph glyph-name="Sacute" unicode="&#x15a;" 
d="M643 -33q-144 0 -261 50t-198 145t-118 226l246 71q35 -120 119.5 -184t209.5 -64q102 0 158.5 43.5t56.5 121.5v11q0 66 -47 110.5t-162 88.5l-196 74q-303 115 -303 390v5q0 122 60 214.5t166.5 144t247.5 51.5q191 0 316.5 -87t179.5 -256l-245 -75q-55 174 -251 174
q-95 0 -151.5 -41.5t-56.5 -112.5v-8q0 -56 39 -95t130 -74l195 -74q178 -68 261 -171.5t83 -259.5v-8q0 -124 -60 -216t-167.5 -143t-251.5 -51zM505 1638v13l197 359h306v-12l-269 -360h-234z" />
    <glyph glyph-name="sacute" unicode="&#x15b;" 
d="M648 -33q-188 0 -315 77.5t-180 223.5l220 80q30 -79 101.5 -123t169.5 -44q74 0 115.5 27t41.5 75v6q0 45 -34.5 70.5t-130.5 51.5l-149 42q-132 37 -202.5 113t-70.5 190v2q0 149 110.5 237.5t297.5 88.5q162 0 268 -63t151 -186l-220 -81q-48 118 -212 118
q-72 0 -111.5 -25t-39.5 -72v-2q0 -40 30.5 -64.5t106.5 -45.5l149 -40q157 -43 229.5 -122.5t72.5 -207.5v-4q0 -145 -109 -233.5t-289 -88.5zM499 1256v13l197 359h306v-12l-269 -360h-234z" />
    <glyph glyph-name="Scedilla" unicode="&#x15e;" 
d="M643 -33q-144 0 -261 50t-198 145t-118 226l246 71q35 -120 119.5 -184t209.5 -64q102 0 158.5 43.5t56.5 121.5v11q0 66 -47 110.5t-162 88.5l-196 74q-303 115 -303 390v5q0 122 60 214.5t166.5 144t247.5 51.5q191 0 316.5 -87t179.5 -256l-245 -75q-55 174 -251 174
q-95 0 -151.5 -41.5t-56.5 -112.5v-8q0 -56 39 -95t130 -74l195 -74q178 -68 261 -171.5t83 -259.5v-8q0 -124 -60 -216t-167.5 -143t-251.5 -51zM644 -644q-93 0 -175.5 47t-132.5 127l149 98q65 -100 159 -100q53 0 86 28t33 76t-29.5 76.5t-78.5 28.5q-58 0 -99 -32
l-109 94l135 218h146l-158 -247l-77 32q38 40 89 61.5t106 21.5q116 0 186.5 -71t70.5 -188q0 -120 -83 -195t-218 -75z" />
    <glyph glyph-name="scedilla" unicode="&#x15f;" 
d="M648 -33q-188 0 -315 77.5t-180 223.5l220 80q30 -79 101.5 -123t169.5 -44q74 0 115.5 27t41.5 75v6q0 45 -34.5 70.5t-130.5 51.5l-149 42q-132 37 -202.5 113t-70.5 190v2q0 149 110.5 237.5t297.5 88.5q162 0 268 -63t151 -186l-220 -81q-48 118 -212 118
q-72 0 -111.5 -25t-39.5 -72v-2q0 -40 30.5 -64.5t106.5 -45.5l149 -40q157 -43 229.5 -122.5t72.5 -207.5v-4q0 -145 -109 -233.5t-289 -88.5zM621 -644q-93 0 -175.5 47t-132.5 127l149 98q65 -100 159 -100q53 0 86 28t33 76t-29.5 76.5t-78.5 28.5q-58 0 -99 -32
l-109 94l135 218h146l-158 -247l-77 32q38 40 89 61.5t106 21.5q116 0 186.5 -71t70.5 -188q0 -120 -83 -195t-218 -75z" />
    <glyph glyph-name="Scaron" unicode="&#x160;" 
d="M643 -33q-144 0 -261 50t-198 145t-118 226l246 71q35 -120 119.5 -184t209.5 -64q102 0 158.5 43.5t56.5 121.5v11q0 66 -47 110.5t-162 88.5l-196 74q-303 115 -303 390v5q0 122 60 214.5t166.5 144t247.5 51.5q191 0 316.5 -87t179.5 -256l-245 -75q-55 174 -251 174
q-95 0 -151.5 -41.5t-56.5 -112.5v-8q0 -56 39 -95t130 -74l195 -74q178 -68 261 -171.5t83 -259.5v-8q0 -124 -60 -216t-167.5 -143t-251.5 -51zM492 1638l-284 359v13h262l177 -290h-49l176 290h262v-13l-284 -359h-260z" />
    <glyph glyph-name="scaron" unicode="&#x161;" 
d="M648 -33q-188 0 -315 77.5t-180 223.5l220 80q30 -79 101.5 -123t169.5 -44q74 0 115.5 27t41.5 75v6q0 45 -34.5 70.5t-130.5 51.5l-149 42q-132 37 -202.5 113t-70.5 190v2q0 149 110.5 237.5t297.5 88.5q162 0 268 -63t151 -186l-220 -81q-48 118 -212 118
q-72 0 -111.5 -25t-39.5 -72v-2q0 -40 30.5 -64.5t106.5 -45.5l149 -40q157 -43 229.5 -122.5t72.5 -207.5v-4q0 -145 -109 -233.5t-289 -88.5zM486 1256l-284 359v13h262l177 -290h-49l176 290h262v-13l-284 -359h-260z" />
    <glyph glyph-name="uni0162" unicode="&#x162;" 
d="M466 0v1305h268v-1305h-268zM88 1180v252h1024v-252h-1024zM603 -644q-93 0 -175.5 47t-132.5 127l149 98q65 -100 159 -100q53 0 86 28t33 76t-29.5 76.5t-78.5 28.5q-58 0 -99 -32l-109 94l135 218h146l-158 -247l-77 32q38 40 89 61.5t106 21.5q116 0 186.5 -71
t70.5 -188q0 -120 -83 -195t-218 -75z" />
    <glyph glyph-name="uni0163" unicode="&#x163;" 
d="M783 -33q-200 0 -310 111.5t-110 314.5v933h262v-915q0 -105 44 -156.5t134 -51.5q93 0 174 76l130 -193q-133 -119 -324 -119zM103 846v204h941v-204h-941zM703 -644q-93 0 -175.5 47t-132.5 127l149 98q65 -100 159 -100q53 0 86 28t33 76t-29.5 76.5t-78.5 28.5
q-58 0 -99 -32l-109 94l135 218h146l-158 -247l-77 32q38 40 89 61.5t106 21.5q116 0 186.5 -71t70.5 -188q0 -120 -83 -195t-218 -75z" />
    <glyph glyph-name="Tcaron" unicode="&#x164;" 
d="M466 0v1305h268v-1305h-268zM88 1180v252h1024v-252h-1024zM470 1638l-284 359v13h262l177 -290h-49l176 290h262v-13l-284 -359h-260z" />
    <glyph glyph-name="tcaron" unicode="&#x165;" 
d="M771 -33q-197 0 -305 111.5t-108 314.5v933h262v-915q0 -105 43 -156t131 -51q95 0 178 79l130 -192q-137 -124 -331 -124zM98 806v204h941v-204h-941zM768 1138l32 434h236l-79 -434h-189z" />
    <glyph glyph-name="Utilde" unicode="&#x168;" 
d="M345.5 29q-109.5 62 -170 173t-60.5 258v972h268v-963q0 -115 58 -182.5t159 -67.5q102 0 159.5 67.5t57.5 182.5v963h268v-972q0 -147 -60.5 -258t-169.5 -173t-254.5 -62t-255 62zM775 1642q-51 0 -97.5 23t-99.5 79q-39 40 -62 56t-46 16q-59 0 -59 -84v-86h-195v92
q0 132 57 203.5t162 71.5q50 0 93 -22t96 -79q38 -40 61.5 -56t47.5 -16q56 0 56 82v88h196v-92q0 -133 -53 -204.5t-157 -71.5z" />
    <glyph glyph-name="utilde" unicode="&#x169;" 
d="M472 -33q-149 0 -235.5 97.5t-86.5 267.5v718h262v-661q0 -97 44 -148.5t126 -51.5q87 0 141.5 68t54.5 181v612h261v-1050h-247v160h-9q-49 -86 -127 -139.5t-184 -53.5zM770 1260q-51 0 -97.5 23t-99.5 79q-39 40 -62 56t-46 16q-59 0 -59 -84v-86h-195v92
q0 132 57 203.5t162 71.5q50 0 93 -22t96 -79q38 -40 61.5 -56t47.5 -16q56 0 56 82v88h196v-92q0 -133 -53 -204.5t-157 -71.5z" />
    <glyph glyph-name="Umacron" unicode="&#x16a;" 
d="M345.5 29q-109.5 62 -170 173t-60.5 258v972h268v-963q0 -115 58 -182.5t159 -67.5q102 0 159.5 67.5t57.5 182.5v963h268v-972q0 -147 -60.5 -258t-169.5 -173t-254.5 -62t-255 62zM279 1706v218h642v-218h-642z" />
    <glyph glyph-name="umacron" unicode="&#x16b;" 
d="M472 -33q-149 0 -235.5 97.5t-86.5 267.5v718h262v-661q0 -97 44 -148.5t126 -51.5q87 0 141.5 68t54.5 181v612h261v-1050h-247v160h-9q-49 -86 -127 -139.5t-184 -53.5zM274 1324v218h642v-218h-642z" />
    <glyph glyph-name="Uring" unicode="&#x16e;" 
d="M345.5 29q-109.5 62 -170 173t-60.5 258v972h268v-963q0 -115 58 -182.5t159 -67.5q102 0 159.5 67.5t57.5 182.5v963h268v-972q0 -147 -60.5 -258t-169.5 -173t-254.5 -62t-255 62zM446.5 1575q-68.5 39 -109 105t-40.5 148q0 83 40.5 149t109 105t153.5 39t153.5 -39
t109 -105t40.5 -149q0 -82 -40.5 -148t-109 -105t-153.5 -39t-153.5 39zM691 1738q36 36 36 90.5t-36 90.5t-90.5 36t-91 -36t-36.5 -90.5t36.5 -90.5t91 -36t90.5 36z" />
    <glyph glyph-name="uring" unicode="&#x16f;" 
d="M472 -33q-149 0 -235.5 97.5t-86.5 267.5v718h262v-661q0 -97 44 -148.5t126 -51.5q87 0 141.5 68t54.5 181v612h261v-1050h-247v160h-9q-49 -86 -127 -139.5t-184 -53.5zM441.5 1193q-68.5 39 -109 105t-40.5 148q0 83 40.5 149t109 105t153.5 39t153.5 -39t109 -105
t40.5 -149q0 -82 -40.5 -148t-109 -105t-153.5 -39t-153.5 39zM686 1356q36 36 36 90.5t-36 90.5t-90.5 36t-91 -36t-36.5 -90.5t36.5 -90.5t91 -36t90.5 36z" />
    <glyph glyph-name="Uhungarumlaut" unicode="&#x170;" 
d="M345.5 29q-109.5 62 -170 173t-60.5 258v972h268v-963q0 -115 58 -182.5t159 -67.5q102 0 159.5 67.5t57.5 182.5v963h268v-972q0 -147 -60.5 -258t-169.5 -173t-254.5 -62t-255 62zM693 1638v13l161 359h288v-12l-233 -360h-216zM267 1638v13l161 359h288v-12l-233 -360
h-216z" />
    <glyph glyph-name="uhungarumlaut" unicode="&#x171;" 
d="M472 -33q-149 0 -235.5 97.5t-86.5 267.5v718h262v-661q0 -97 44 -148.5t126 -51.5q87 0 141.5 68t54.5 181v612h261v-1050h-247v160h-9q-49 -86 -127 -139.5t-184 -53.5zM688 1256v13l161 359h288v-12l-233 -360h-216zM262 1256v13l161 359h288v-12l-233 -360h-216z" />
    <glyph glyph-name="Uogonek" unicode="&#x172;" 
d="M704 -543q-81 0 -145.5 35t-101.5 96t-37 137q0 242 367 379l-29 -111q-36 -11 -76 -16.5t-82 -5.5q-145 0 -254.5 61.5t-170 171.5t-60.5 256v972h268v-963q0 -115 58 -182.5t159 -67.5t159 67.5t58 182.5v963h268v-972q0 -153 -66 -265.5t-211 -206.5
q-101 -64 -140 -113.5t-39 -109.5q0 -50 33.5 -81t86.5 -31q50 0 93 22l52 -169q-87 -49 -190 -49z" />
    <glyph glyph-name="uogonek" unicode="&#x173;" 
d="M915 -543q-81 0 -145 35t-101 96.5t-37 138.5q0 117 85 210.5t264 166.5l58 -104q-105 -59 -152 -113.5t-47 -121.5q0 -50 34 -81t86 -31q50 0 93 22l54 -169q-86 -49 -192 -49zM472 -33q-149 0 -235.5 97.5t-86.5 267.5v718h262v-661q0 -97 44 -148.5t126 -51.5
q87 0 141.5 68t54.5 181v612h261v-1050h-247v160h-9q-49 -86 -127 -139.5t-184 -53.5z" />
    <glyph glyph-name="Wcircumflex" unicode="&#x174;" 
d="M211 0l-186 1432h249l91 -1028h6l47 283l101 463h162l101 -463l47 -283h6l84 1028h256l-186 -1432h-220l-127 573l-39 234h-6l-39 -234l-125 -573h-222zM183 1638v13l284 359h260l284 -359v-13h-262l-180 290h57l-181 -290h-262z" />
    <glyph glyph-name="wcircumflex" unicode="&#x175;" 
d="M234 0l-221 1050h234l104 -641l16 -117h7l17 118l103 521h223l104 -520l16 -119h7l15 119l106 639h222l-222 -1050h-238l-107 541l-17 121h-7l-17 -121l-106 -541h-239zM192 1256v13l284 359h260l284 -359v-13h-262l-180 290h57l-181 -290h-262z" />
    <glyph glyph-name="Ycircumflex" unicode="&#x176;" 
d="M491 467l-453 965h292l174 -393l97 -259h7l94 259l176 393h284l-452 -965h-219zM466 0v660h268v-660h-268zM190 1638v13l284 359h260l284 -359v-13h-262l-180 290h57l-181 -290h-262z" />
    <glyph glyph-name="ycircumflex" unicode="&#x177;" 
d="M323 -447q-168 0 -289 101l128 197q78 -64 153 -64q57 0 92.5 27.5t59.5 91.5l96 263h47l92 358l171 523h273l-447 -1193q-60 -161 -149 -232.5t-227 -71.5zM528 -90l-429 1140h275l178 -523l71 -263h70zM210 1256v13l284 359h260l284 -359v-13h-262l-180 290h57
l-181 -290h-262z" />
    <glyph glyph-name="Ydieresis" unicode="&#x178;" 
d="M491 467l-453 965h292l174 -393l97 -259h7l94 259l176 393h284l-452 -965h-219zM466 0v660h268v-660h-268zM350 1639q-74 0 -125.5 50.5t-51.5 123.5t52 124t125 51q75 0 126 -50.5t51 -124t-51 -124t-126 -50.5zM858 1639q-74 0 -125.5 50.5t-51.5 123.5t52 124t125 51
q75 0 126 -50.5t51 -124t-51 -124t-126 -50.5z" />
    <glyph glyph-name="Zacute" unicode="&#x179;" 
d="M117 0v225l637 957h-612v250h926v-225l-635 -957h650v-250h-966zM488 1638v13l197 359h306v-12l-269 -360h-234z" />
    <glyph glyph-name="zacute" unicode="&#x17a;" 
d="M164 0v209l560 620h-538v221h840v-208l-559 -620h569v-222h-872zM489 1256v13l197 359h306v-12l-269 -360h-234z" />
    <glyph glyph-name="Zdotaccent" unicode="&#x17b;" 
d="M117 0v225l637 957h-612v250h926v-225l-635 -957h650v-250h-966zM605 1639q-78 0 -131.5 53.5t-53.5 130.5t53 130.5t132 53.5t132 -53.5t53 -130.5t-52.5 -130.5t-132.5 -53.5z" />
    <glyph glyph-name="zdotaccent" unicode="&#x17c;" 
d="M164 0v209l560 620h-538v221h840v-208l-559 -620h569v-222h-872zM606 1257q-78 0 -131.5 53.5t-53.5 130.5t53 130.5t132 53.5t132 -53.5t53 -130.5t-52.5 -130.5t-132.5 -53.5z" />
    <glyph glyph-name="Zcaron" unicode="&#x17d;" 
d="M117 0v225l637 957h-612v250h926v-225l-635 -957h650v-250h-966zM475 1638l-284 359v13h262l177 -290h-49l176 290h262v-13l-284 -359h-260z" />
    <glyph glyph-name="zcaron" unicode="&#x17e;" 
d="M164 0v209l560 620h-538v221h840v-208l-559 -620h569v-222h-872zM476 1256l-284 359v13h262l177 -290h-49l176 290h262v-13l-284 -359h-260z" />
    <glyph glyph-name="longs" unicode="&#x17f;" 
d="M361 0v1071q0 128 51.5 223t145 147t217.5 52q112 0 200.5 -36.5t163.5 -114.5l-162 -191q-46 47 -89 69t-97 22q-82 0 -125.5 -51.5t-43.5 -153.5v-1037h-261zM121 850v200h372v-200h-372z" />
    <glyph glyph-name="uni0181" unicode="&#x181;" 
d="M408 0v1432h336q185 0 293.5 -96t108.5 -262v-23q0 -107 -55 -187.5t-159 -123.5v-8q123 -31 189.5 -118t66.5 -217v-24q0 -111 -52 -195t-145 -131t-217 -47h-366zM28 836q-25 62 -38.5 120.5t-13.5 106.5q0 109 50 192t140 130t207 47h185v-200h-181q-81 0 -123.5 -45
t-42.5 -131q0 -37 7 -74.5t22 -75.5zM633 203h113q98 0 147.5 50.5t49.5 151.5v21q0 102 -51.5 152.5t-154.5 50.5h-189v200h185q87 0 131 48.5t44 143.5v17q0 97 -43 144t-132 47h-100v-1026z" />
    <glyph glyph-name="uni018A" unicode="&#x18a;" 
d="M418 0v1432h237q163 0 278.5 -81t176 -229.5t60.5 -352.5v-106q0 -204 -60.5 -352.5t-176 -229.5t-278.5 -81h-237zM59 846q-24 56 -36.5 112t-12.5 107q0 110 50.5 192t140 128.5t206.5 46.5h129v-198h-125q-79 0 -122 -47t-43 -134q0 -35 6.5 -69t19.5 -68zM638 227h53
q124 0 186.5 104.5t62.5 326.5v116q0 223 -63 327t-186 104h-53v-978z" />
    <glyph glyph-name="uni018F" unicode="&#x18f;" 
d="M616 -33q-253 0 -396 175.5t-143 486.5q0 45 2.5 84t8.5 75h910v-218h-674l3 29q0 -188 72.5 -286t212.5 -98q145 0 215.5 117t70.5 358v69q0 237 -67 346.5t-211 109.5q-188 0 -325 -177l-193 158q101 133 235.5 201t293.5 68q260 0 391.5 -182t131.5 -543v-42
q0 -230 -64.5 -393.5t-184.5 -250.5t-289 -87z" />
    <glyph glyph-name="uni0198" unicode="&#x198;" 
d="M834 0l-479 739v7l248 430q85 151 173.5 220t219.5 69q67 0 115 -15.5t97 -50.5l-111 -221q-22 18 -42 25.5t-48 7.5q-51 0 -94 -35.5t-96 -116.5l-201 -308v52l528 -803h-310zM94 0v1432h268v-1432h-268z" />
    <glyph glyph-name="uni0199" unicode="&#x199;" 
d="M133 0v1047q0 225 119 352.5t321 127.5q126 0 241 -53l-88 -219q-62 30 -137 30q-194 0 -194 -251v-1034h-262zM813 0l-429 562v8l410 480h309l-473 -542v121l491 -629h-308z" />
    <glyph glyph-name="Ohorn" unicode="&#x1a0;" 
d="M597 -33q-166 0 -285.5 87.5t-183.5 250.5t-64 390v42q0 229 65 391.5t187 249.5t292 87q60 0 104.5 -7t94.5 -7q70 0 106.5 29.5t36.5 84.5q0 35 -13 68t-45 74l212 134q90 -119 90 -245t-94 -197.5t-252 -71.5h-93l19 84q178 -77 267.5 -244t89.5 -430v-42
q0 -227 -64 -390t-183.5 -250.5t-286.5 -87.5zM597 219q129 0 197 121t68 350v64q0 229 -63 347t-191 118q-133 0 -204.5 -123t-71.5 -354v-52q0 -229 68.5 -350t196.5 -121z" />
    <glyph glyph-name="ohorn" unicode="&#x1a1;" 
d="M594 -33q-155 0 -268 68.5t-174.5 191.5t-61.5 286v24q0 164 61.5 287t174.5 191t268 68q66 0 113.5 -7t94.5 -7q131 0 131 109q0 35 -12 67t-39 74l220 117q75 -111 75 -226q0 -119 -90.5 -189t-244.5 -70h-96l22 83q159 -51 244.5 -180t85.5 -317v-24
q0 -165 -62.5 -288t-175.5 -190.5t-266 -67.5zM594 200q115 0 178.5 84t63.5 233v16q0 153 -63.5 238.5t-178.5 85.5q-114 0 -178 -85.5t-64 -238.5v-16q0 -149 64 -233t178 -84z" />
    <glyph glyph-name="Uhorn" unicode="&#x1af;" 
d="M530 -33q-136 0 -238 57t-159 160t-57 240v1008h257v-995q0 -102 53 -161t146 -59q91 0 144.5 59t53.5 161v995h77q73 0 114 32t41 90q0 38 -14.5 73.5t-47.5 80.5l207 133q51 -67 75 -128.5t24 -129.5q0 -128 -95.5 -201.5t-249.5 -73.5h-53l176 104v-988
q0 -137 -56.5 -240t-158.5 -160t-239 -57z" />
    <glyph glyph-name="uhorn" unicode="&#x1b0;" 
d="M441 -33q-138 0 -218 89t-80 246v748h252v-695q0 -82 40 -127t114 -45q82 0 132 62.5t50 168.5v636h70q144 0 144 111q0 31 -11.5 59.5t-38.5 61.5l210 137q42 -53 63 -107t21 -115q0 -120 -91.5 -190.5t-247.5 -70.5h-54l188 110v-1046h-249v149h-9
q-48 -85 -120.5 -133.5t-164.5 -48.5z" />
    <glyph glyph-name="uni01B3" unicode="&#x1b3;" 
d="M422 449l-404 983h291l145 -398l78 -259h8l59 217l34 102q41 128 94.5 210t125.5 121.5t166 39.5q61 0 107 -12t94 -39l-83 -221q-21 11 -40 16t-44 5q-44 0 -77.5 -21t-63 -72t-65.5 -142l-206 -530h-219zM398 0v632h268v-632h-268z" />
    <glyph glyph-name="uni01B4" unicode="&#x1b4;" 
d="M267 -447q-155 0 -273 78l106 202q76 -47 150 -47q64 0 103.5 32.5t57.5 96.5l70 260h57l58 371l90 390q95 422 430 422q92 0 171 -34l-57 -220q-23 11 -44.5 16t-50.5 5q-80 0 -131 -55.5t-85 -184.5l-266 -993q-44 -165 -142 -252t-244 -87zM444 -76l-379 1126h267
l146 -504l64 -282h81z" />
    <glyph glyph-name="uni01C4" unicode="&#x1c4;" 
d="M23 0v1432h250q185 0 273.5 -157.5t88.5 -485.5v-146q0 -327 -88.5 -485t-273.5 -158h-250zM227 213h43q85 0 121 96.5t36 328.5v156q0 232 -36 328.5t-121 96.5h-43v-1006zM634 0v172l322 1043h-300v217h527v-172l-322 -1043h333v-217h-560zM805 1638l-239 360v12h213
l163 -289h-45l162 289h214v-12l-240 -360h-228z" />
    <glyph glyph-name="uni01C5" unicode="&#x1c5;" 
d="M26 0v1432h244q193 0 286.5 -157.5t93.5 -485.5v-146q0 -327 -93.5 -485t-286.5 -158h-244zM228 213h51q90 0 127.5 96.5t37.5 328.5v156q0 232 -37.5 328.5t-127.5 96.5h-51v-1006zM685 0v172l284 675h-261v203h481v-170l-284 -677h291v-203h-511zM834 1256l-206 360v12
h209l131 -278h-42l130 278h209v-12l-207 -360h-224z" />
    <glyph glyph-name="uni01C6" unicode="&#x1c6;" 
d="M255 -33q-77 0 -133 64.5t-86 182t-30 274.5v75q0 157 27.5 274t80 182t126.5 65q57 0 99 -40t74 -119h8v535h209v-1460h-192v138h-8q-28 -82 -72 -126.5t-103 -44.5zM333 175q51 0 77 74.5t26 211.5v128q0 137 -26.5 211.5t-78.5 74.5q-53 0 -80 -71.5t-27 -210.5v-136
q0 -138 28 -210t81 -72zM698 0v170l283 678h-273v202h491v-170l-282 -678h293v-202h-512zM856 1256l-206 360v12h208l132 -278h-43l131 278h208v-12l-206 -360h-224z" />
    <glyph glyph-name="uni01C7" unicode="&#x1c7;" 
d="M837 -33q-74 0 -138.5 18.5t-122.5 53.5l104 215q58 -43 127 -43q59 0 91 37.5t32 106.5v1077h256v-1096q0 -164 -94 -266.5t-255 -102.5zM14 0v1432h255v-1192h269v-240h-524z" />
    <glyph glyph-name="uni01C8" unicode="&#x1c8;" 
d="M754 -447q-189 0 -337 115l121 186q100 -74 198 -74q170 0 170 199v1071h244v-1075q0 -194 -107.5 -308t-288.5 -114zM60 0v1432h249v-1191h388v-241h-637zM565 852v198h504v-198h-504zM992 1257q-76 0 -129.5 52.5t-53.5 127.5q0 76 52.5 127.5t130.5 51.5q79 0 130 -51
t51 -128q0 -76 -52 -128t-129 -52z" />
    <glyph glyph-name="uni01C9" unicode="&#x1c9;" 
d="M804 -447q-174 0 -317 116l121 168q48 -38 91 -56t94 -18q154 0 154 175v1112h230v-1112q0 -178 -101 -281.5t-272 -103.5zM589 0q-164 0 -258.5 101.5t-94.5 278.5v1080h230v-1076q0 -163 137 -163q39 0 70.5 14.5t65.5 49.5l123 -172q-113 -113 -273 -113zM14 1262v198
h346v-198h-346zM672 852v198h439v-198h-439zM1019 1257q-76 0 -129.5 52.5t-53.5 127.5q0 76 52.5 127.5t130.5 51.5t129.5 -51t51.5 -128q0 -76 -52.5 -128t-128.5 -52z" />
    <glyph glyph-name="uni01CA" unicode="&#x1ca;" 
d="M14 0v1432h277l224 -1089h16l-41 646v443h190v-1432h-254l-240 1160h-15l33 -635v-525h-190zM899 -33q-101 0 -180 50l63 185q41 -30 87 -30q103 0 103 131v1129h214v-1138q0 -152 -76 -239.5t-211 -87.5z" />
    <glyph glyph-name="uni01CB" unicode="&#x1cb;" 
d="M14 0v1432h272l268 -1050h15l-42 597v453h195v-1432h-245l-291 1160h-14l37 -615v-545h-195zM811 -447q-164 0 -301 112l118 164q45 -35 82.5 -50.5t80.5 -15.5q135 0 135 170v1117h230v-1118q0 -174 -93.5 -276.5t-251.5 -102.5zM1041 1258q-74 0 -122.5 50.5
t-48.5 128.5q0 79 48 129t123 50q74 0 121.5 -50t47.5 -129q0 -78 -48 -128.5t-121 -50.5z" />
    <glyph glyph-name="uni01CC" unicode="&#x1cc;" 
d="M773 -447q-84 0 -164 28t-150 84l118 169q89 -70 180 -70q80 0 122.5 48.5t42.5 144.5v1093h231v-1094q0 -187 -101.5 -295t-278.5 -108zM46 0v1050h211v-157h9q98 190 270 190q116 0 179 -83.5t63 -237.5v-762h-232v721q0 157 -111 157q-69 0 -113 -59.5t-44 -159.5
v-659h-232zM1038 1258q-74 0 -122.5 51.5t-48.5 127.5t48.5 127.5t122.5 51.5t121.5 -51.5t47.5 -127.5t-48 -127.5t-121 -51.5z" />
    <glyph glyph-name="uni01EA" unicode="&#x1ea;" 
d="M312.5 54.5q-120.5 87.5 -185 250.5t-64.5 390v42q0 227 64.5 390t185 250.5t287.5 87.5t287.5 -87.5t185 -250.5t64.5 -390v-42q0 -227 -64.5 -390t-185 -250.5t-287.5 -87.5t-287.5 87.5zM797 340q68 121 68 350v52q0 229 -68.5 350t-196.5 121t-196.5 -121t-68.5 -350
v-52q0 -229 68.5 -350t197 -121t196.5 121zM710 -513q-81 0 -145.5 35.5t-101.5 96t-37 137.5q0 121 89.5 214.5t277.5 163.5l59 -103q-115 -59 -166 -114t-51 -123q0 -49 33.5 -80t86.5 -31q49 0 93 22l52 -168q-87 -50 -190 -50z" />
    <glyph glyph-name="uni01EB" unicode="&#x1eb;" 
d="M334.5 36.5q-115.5 69.5 -180 193t-64.5 283.5v24q0 161 64.5 284t180 193t265.5 70t265 -70t180 -193t65 -284v-24q0 -160 -65 -283.5t-180 -193t-265 -69.5t-265.5 69.5zM781 285.5q67 85.5 67 231.5v16q0 146 -67 231.5t-181 85.5t-181 -85.5t-67 -231.5v-16
q0 -146 67 -231.5t181 -85.5t181 85.5zM699 -521q-81 0 -145.5 35.5t-101.5 96t-37 137.5q0 121 89.5 214.5t277.5 163.5l59 -103q-115 -59 -166 -114t-51 -123q0 -49 33.5 -80t86.5 -31q49 0 93 22l52 -168q-87 -50 -190 -50z" />
    <glyph glyph-name="uni01F8" unicode="&#x1f8;" 
d="M83 0v1432h266l520 -964h7l-21 330v634h262v-1432h-242l-545 1009h-7l21 -330v-679h-261zM485 1638l-268 360v12h306l196 -359v-13h-234z" />
    <glyph glyph-name="uni01F9" unicode="&#x1f9;" 
d="M154 0v1050h247v-160h9q59 93 145.5 143.5t194.5 50.5q152 0 237 -101.5t85 -273.5v-709h-261v656q0 100 -44 153t-131 53q-99 0 -160 -68.5t-61 -183.5v-610h-261zM499 1256l-268 360v12h306l196 -359v-13h-234z" />
    <glyph glyph-name="AEacute" unicode="&#x1fc;" 
d="M6 0l388 1432h333l-28 -236h-146l-52 -272l-234 -924h-261zM209 312l60 212h419v-212h-479zM613 0v1432h562v-242h-346v-948h362v-242h-578zM737 612v239h386v-239h-386zM641 1638v13l197 359h306v-12l-269 -360h-234z" />
    <glyph glyph-name="aeacute" unicode="&#x1fd;" 
d="M323 -33q-93 0 -163 42t-108.5 118t-38.5 178v10q0 158 89.5 254.5t234.5 96.5q93 0 160 -41v-164q-50 36 -112 36t-96 -43t-34 -121v-16q0 -72 28.5 -112t79.5 -40q56 0 84 54t28 161v312q0 97 -28 141.5t-90 44.5q-82 0 -155 -92l-150 134q129 164 314 164
q119 0 193 -73t100 -216h-105q35 135 120 212t197 77q150 0 231.5 -124.5t81.5 -354.5q0 -34 -1 -68.5t-4 -75.5h-572v164h370l-13 -2q0 256 -120 256q-72 0 -112 -89.5t-40 -253.5v-30q0 -160 40 -249.5t116 -89.5q46 0 76.5 33.5t63.5 116.5l190 -77q-54 -141 -132 -207
t-188 -66q-127 0 -215.5 92.5t-111.5 247.5h119q-38 -172 -119 -256t-208 -84zM502 1256v13l197 359h306v-12l-269 -360h-234z" />
    <glyph glyph-name="uni0218" unicode="&#x218;" 
d="M643 -33q-144 0 -261 50t-198 145t-118 226l246 71q35 -120 119.5 -184t209.5 -64q102 0 158.5 43.5t56.5 121.5v11q0 66 -47 110.5t-162 88.5l-196 74q-303 115 -303 390v5q0 122 60 214.5t166.5 144t247.5 51.5q191 0 316.5 -87t179.5 -256l-245 -75q-55 174 -251 174
q-95 0 -151.5 -41.5t-56.5 -112.5v-8q0 -56 39 -95t130 -74l195 -74q178 -68 261 -171.5t83 -259.5v-8q0 -124 -60 -216t-167.5 -143t-251.5 -51zM555 -835l-150 104l215 296l-4 -71q-78 4 -127.5 52.5t-49.5 120.5q0 74 51.5 122.5t129.5 48.5q84 0 136 -53t52 -139
q0 -53 -21.5 -110t-72.5 -133z" />
    <glyph glyph-name="uni0219" unicode="&#x219;" 
d="M648 -33q-188 0 -315 77.5t-180 223.5l220 80q30 -79 101.5 -123t169.5 -44q74 0 115.5 27t41.5 75v6q0 45 -34.5 70.5t-130.5 51.5l-149 42q-132 37 -202.5 113t-70.5 190v2q0 149 110.5 237.5t297.5 88.5q162 0 268 -63t151 -186l-220 -81q-48 118 -212 118
q-72 0 -111.5 -25t-39.5 -72v-2q0 -40 30.5 -64.5t106.5 -45.5l149 -40q157 -43 229.5 -122.5t72.5 -207.5v-4q0 -145 -109 -233.5t-289 -88.5zM554 -835l-150 104l215 296l-4 -71q-78 4 -127.5 52.5t-49.5 120.5q0 74 51.5 122.5t129.5 48.5q84 0 136 -53t52 -139
q0 -53 -21.5 -110t-72.5 -133z" />
    <glyph glyph-name="uni021A" unicode="&#x21a;" 
d="M466 0v1305h268v-1305h-268zM88 1180v252h1024v-252h-1024zM515 -835l-150 104l215 296l-4 -71q-78 4 -127.5 52.5t-49.5 120.5q0 74 51.5 122.5t129.5 48.5q84 0 136 -53t52 -139q0 -53 -21.5 -110t-72.5 -133z" />
    <glyph glyph-name="uni021B" unicode="&#x21b;" 
d="M783 -33q-200 0 -310 111.5t-110 314.5v933h262v-915q0 -105 44 -156.5t134 -51.5q93 0 174 76l130 -193q-133 -119 -324 -119zM103 846v204h941v-204h-941zM619 -868l-150 104l215 296l-4 -71q-78 4 -127.5 52.5t-49.5 120.5q0 74 51.5 122.5t129.5 48.5q84 0 136 -53
t52 -139q0 -53 -21.5 -110t-72.5 -133z" />
    <glyph glyph-name="uni0237" unicode="&#x237;" 
d="M441 -447q-193 0 -356 118l127 198q57 -41 109.5 -61.5t108.5 -20.5q87 0 133.5 52t46.5 151v1060h261v-1052q0 -207 -115 -326t-315 -119zM215 852v198h591v-198h-591z" />
    <glyph glyph-name="uni0253" unicode="&#x253;" 
d="M699 -33q-100 0 -181 51t-129 143h-8v-161h-251v1049q0 222 121.5 350t333.5 128q74 0 134 -14t121 -44l-88 -219q-37 19 -71.5 27t-80.5 8q-103 0 -156 -61t-53 -187v-157h8q54 90 134 136t180 46q117 0 203.5 -66.5t134 -187t47.5 -281.5v-23q0 -161 -50 -282
t-139.5 -188t-209.5 -67zM614 188q104 0 162 82.5t58 231.5v26q0 149 -58 231t-163 82q-104 0 -166.5 -86.5t-62.5 -230.5v-18q0 -145 62.5 -231.5t167.5 -86.5z" />
    <glyph glyph-name="uni0257" unicode="&#x257;" 
d="M437 -33q-110 0 -193 67.5t-129.5 189t-46.5 281.5v42q0 162 45 283t126 187.5t190 66.5q175 0 259 -179h8v227q0 125 45 213.5t124 135t179 46.5q50 0 91.5 -8.5t80.5 -26.5l-60 -221q-19 10 -39 15t-44 5q-67 0 -100.5 -44t-33.5 -137v-1110h-232v159h-8
q-81 -192 -262 -192zM513 182q88 0 139.5 86t51.5 235v45q0 148 -51.5 234.5t-139.5 86.5q-93 0 -143.5 -84.5t-50.5 -236.5v-45q0 -151 51 -236t143 -85z" />
    <glyph glyph-name="uni0259" unicode="&#x259;" 
d="M601 -33q-145 0 -254 63t-170 175.5t-61 260.5q0 35 2 63t6 53h836v-165h-600v3q0 -107 66 -173.5t175 -66.5q120 0 186 85.5t66 241.5v53q0 147 -65.5 226.5t-197.5 79.5q-167 0 -325 -134l-129 171q101 89 219 135t253 46q234 0 364.5 -145t130.5 -392v-27
q0 -165 -62.5 -290t-176 -194t-263.5 -69z" />
    <glyph glyph-name="uni02BB" unicode="&#x2bb;" 
d="M654 1930l150 -104l-216 -296l5 71q78 -4 127.5 -52.5t49.5 -120.5q0 -74 -51.5 -123t-129.5 -49q-84 0 -136.5 53.5t-52.5 139.5q0 54 22.5 110.5t72.5 131.5z" />
    <glyph glyph-name="uni02BC" unicode="&#x2bc;" 
d="M602 882h-250l246 578h324z" />
    <glyph glyph-name="circumflex" unicode="&#x2c6;" 
d="M186 1256v13l284 359h260l284 -359v-13h-262l-180 290h57l-181 -290h-262z" />
    <glyph glyph-name="caron" unicode="&#x2c7;" 
d="M470 1256l-284 359v13h262l177 -290h-49l176 290h262v-13l-284 -359h-260z" />
    <glyph glyph-name="breve" unicode="&#x2d8;" 
d="M405.5 1294.5q-83.5 46.5 -131 129.5t-47.5 192v12h204v-18q0 -82 45.5 -129.5t124 -47.5t123.5 47.5t45 129.5v18h204v-12q0 -109 -47.5 -192t-131 -129.5t-194.5 -46.5t-194.5 46.5z" />
    <glyph glyph-name="dotaccent" unicode="&#x2d9;" 
d="M600 1257q-78 0 -131.5 53.5t-53.5 130.5t53 130.5t132 53.5t132 -53.5t53 -130.5t-52.5 -130.5t-132.5 -53.5z" />
    <glyph glyph-name="ring" unicode="&#x2da;" 
d="M446.5 1193q-68.5 39 -109 105t-40.5 148q0 83 40.5 149t109 105t153.5 39t153.5 -39t109 -105t40.5 -149q0 -82 -40.5 -148t-109 -105t-153.5 -39t-153.5 39zM691 1356q36 36 36 90.5t-36 90.5t-90.5 36t-91 -36t-36.5 -90.5t36.5 -90.5t91 -36t90.5 36z" />
    <glyph glyph-name="ogonek" unicode="&#x2db;" 
d="M647 -552q-81 0 -145.5 35.5t-101.5 96t-37 137.5q0 121 89.5 214.5t277.5 163.5l59 -103q-115 -59 -166 -114t-51 -123q0 -49 33.5 -80t86.5 -31q49 0 93 22l52 -168q-87 -50 -190 -50z" />
    <glyph glyph-name="tilde" unicode="&#x2dc;" 
d="M774 1260q-51 0 -97.5 23t-99.5 79q-39 40 -62 56t-46 16q-59 0 -59 -84v-86h-195v92q0 132 57 203.5t162 71.5q50 0 93 -22t96 -79q38 -40 61.5 -56t47.5 -16q56 0 56 82v88h196v-92q0 -133 -53 -204.5t-157 -71.5z" />
    <glyph glyph-name="hungarumlaut" unicode="&#x2dd;" 
d="M588 1256v13l161 359h288v-12l-233 -360h-216zM162 1256v13l161 359h288v-12l-233 -360h-216z" />
    <glyph glyph-name="gravecomb" unicode="&#x300;" horiz-adv-x="0" 
d="M-117 1256l-268 360v12h306l196 -359v-13h-234z" />
    <glyph glyph-name="acutecomb" unicode="&#x301;" horiz-adv-x="0" 
d="M-117 1256v13l197 359h306v-12l-269 -360h-234z" />
    <glyph glyph-name="uni0302" unicode="&#x302;" horiz-adv-x="0" 
d="M-414 1256v13l284 359h260l284 -359v-13h-262l-180 290h57l-181 -290h-262z" />
    <glyph glyph-name="tildecomb" unicode="&#x303;" horiz-adv-x="0" 
d="M175 1260q-51 0 -97.5 23t-99.5 79q-39 40 -62 56t-46 16q-59 0 -59 -84v-86h-195v92q0 132 57 203.5t162 71.5q50 0 93 -22t96 -79q38 -40 61.5 -56t47.5 -16q56 0 56 82v88h196v-92q0 -133 -53 -204.5t-157 -71.5z" />
    <glyph glyph-name="uni0304" unicode="&#x304;" horiz-adv-x="0" 
d="M-321 1324v218h642v-218h-642z" />
    <glyph glyph-name="uni0306" unicode="&#x306;" horiz-adv-x="0" 
d="M-194.5 1294.5q-83.5 46.5 -131 129.5t-47.5 192v12h204v-18q0 -82 45.5 -129.5t124 -47.5t123.5 47.5t45 129.5v18h204v-12q0 -109 -47.5 -192t-131 -129.5t-194.5 -46.5t-194.5 46.5z" />
    <glyph glyph-name="uni0307" unicode="&#x307;" horiz-adv-x="0" 
d="M0 1257q-78 0 -131.5 53.5t-53.5 130.5t53 130.5t132 53.5t132 -53.5t53 -130.5t-52.5 -130.5t-132.5 -53.5z" />
    <glyph glyph-name="uni0308" unicode="&#x308;" horiz-adv-x="0" 
d="M-254 1257q-74 0 -125.5 50.5t-51.5 123.5t52 124t125 51q75 0 126 -50.5t51 -124t-51 -124t-126 -50.5zM254 1257q-74 0 -125.5 50.5t-51.5 123.5t52 124t125 51q75 0 126 -50.5t51 -124t-51 -124t-126 -50.5z" />
    <glyph glyph-name="hookabovecomb" unicode="&#x309;" horiz-adv-x="0" 
d="M-25 1168l-27 180q85 7 127 32.5t42 72.5q0 88 -122 88q-87 0 -179 -33l-53 178q55 24 116 37.5t120 13.5q140 0 223.5 -74t83.5 -196q0 -127 -86 -204.5t-245 -94.5z" />
    <glyph glyph-name="uni030A" unicode="&#x30a;" horiz-adv-x="0" 
d="M-153.5 1193q-68.5 39 -109 105t-40.5 148q0 83 40.5 149t109 105t153.5 39t153.5 -39t109 -105t40.5 -149q0 -82 -40.5 -148t-109 -105t-153.5 -39t-153.5 39zM91 1356q36 36 36 90.5t-36 90.5t-90.5 36t-91 -36t-36.5 -90.5t36.5 -90.5t91 -36t90.5 36z" />
    <glyph glyph-name="uni030B" unicode="&#x30b;" horiz-adv-x="0" 
d="M93 1256v13l161 359h288v-12l-233 -360h-216zM-333 1256v13l161 359h288v-12l-233 -360h-216z" />
    <glyph glyph-name="uni030C" unicode="&#x30c;" horiz-adv-x="0" 
d="M-130 1256l-284 359v13h262l177 -290h-49l176 290h262v-13l-284 -359h-260z" />
    <glyph glyph-name="uni0312" unicode="&#x312;" horiz-adv-x="0" 
d="M83 1930l150 -104l-216 -296l5 71q78 -4 127.5 -52.5t49.5 -120.5q0 -74 -51.5 -123t-129.5 -49q-84 0 -136.5 53.5t-52.5 139.5q0 54 22.5 110.5t72.5 131.5z" />
    <glyph glyph-name="uni031B" unicode="&#x31b;" horiz-adv-x="0" 
d="M-60 1297v135h40q129 0 129 112q0 34 -11 64t-38 69l233 134q76 -109 76 -224q0 -86 -45 -151.5t-125 -102t-187 -36.5h-72z" />
    <glyph glyph-name="dotbelowcomb" unicode="&#x323;" horiz-adv-x="0" 
d="M0 -529q-78 0 -131.5 53.5t-53.5 130.5t53 130.5t132 53.5t132 -53.5t53 -130.5t-52.5 -130.5t-132.5 -53.5z" />
    <glyph glyph-name="uni0326" unicode="&#x326;" horiz-adv-x="0" 
d="M-86 -835l-150 104l215 296l-4 -71q-78 4 -127.5 52.5t-49.5 120.5q0 74 51.5 122.5t129.5 48.5q84 0 136 -53t52 -139q0 -53 -21.5 -110t-72.5 -133z" />
    <glyph glyph-name="uni0327" unicode="&#x327;" horiz-adv-x="0" 
d="M3 -644q-93 0 -175.5 47t-132.5 127l149 98q65 -100 159 -100q53 0 86 28t33 76t-29.5 76.5t-78.5 28.5q-58 0 -99 -32l-109 94l135 218h146l-158 -247l-77 32q38 40 89 61.5t106 21.5q116 0 186.5 -71t70.5 -188q0 -120 -83 -195t-218 -75z" />
    <glyph glyph-name="uni0328" unicode="&#x328;" horiz-adv-x="0" 
d="M-65 -552q-81 0 -145.5 35.5t-101.5 96t-37 137.5q0 121 89.5 214.5t277.5 163.5l59 -103q-115 -59 -166 -114t-51 -123q0 -49 33.5 -80t86.5 -31q49 0 93 22l52 -168q-87 -50 -190 -50z" />
    <glyph glyph-name="uni0329" unicode="&#x329;" horiz-adv-x="0" 
d="M-121 -649v472h242v-472h-242z" />
    <glyph glyph-name="uni1E44" unicode="&#x1e44;" 
d="M83 0v1432h266l520 -964h7l-21 330v634h262v-1432h-242l-545 1009h-7l21 -330v-679h-261zM602 1639q-78 0 -131.5 53.5t-53.5 130.5t53 130.5t132 53.5t132 -53.5t53 -130.5t-52.5 -130.5t-132.5 -53.5z" />
    <glyph glyph-name="uni1E45" unicode="&#x1e45;" 
d="M154 0v1050h247v-160h9q59 93 145.5 143.5t194.5 50.5q152 0 237 -101.5t85 -273.5v-709h-261v656q0 100 -44 153t-131 53q-99 0 -160 -68.5t-61 -183.5v-610h-261zM616 1257q-78 0 -131.5 53.5t-53.5 130.5t53 130.5t132 53.5t132 -53.5t53 -130.5t-52.5 -130.5
t-132.5 -53.5z" />
    <glyph glyph-name="uni1E62" unicode="&#x1e62;" 
d="M643 -33q-144 0 -261 50t-198 145t-118 226l246 71q35 -120 119.5 -184t209.5 -64q102 0 158.5 43.5t56.5 121.5v11q0 66 -47 110.5t-162 88.5l-196 74q-303 115 -303 390v5q0 122 60 214.5t166.5 144t247.5 51.5q191 0 316.5 -87t179.5 -256l-245 -75q-55 174 -251 174
q-95 0 -151.5 -41.5t-56.5 -112.5v-8q0 -56 39 -95t130 -74l195 -74q178 -68 261 -171.5t83 -259.5v-8q0 -124 -60 -216t-167.5 -143t-251.5 -51zM641 -529q-78 0 -131.5 53.5t-53.5 130.5t53 130.5t132 53.5t132 -53.5t53 -130.5t-52.5 -130.5t-132.5 -53.5z" />
    <glyph glyph-name="uni1E63" unicode="&#x1e63;" 
d="M648 -33q-188 0 -315 77.5t-180 223.5l220 80q30 -79 101.5 -123t169.5 -44q74 0 115.5 27t41.5 75v6q0 45 -34.5 70.5t-130.5 51.5l-149 42q-132 37 -202.5 113t-70.5 190v2q0 149 110.5 237.5t297.5 88.5q162 0 268 -63t151 -186l-220 -81q-48 118 -212 118
q-72 0 -111.5 -25t-39.5 -72v-2q0 -40 30.5 -64.5t106.5 -45.5l149 -40q157 -43 229.5 -122.5t72.5 -207.5v-4q0 -145 -109 -233.5t-289 -88.5zM626 -529q-78 0 -131.5 53.5t-53.5 130.5t53 130.5t132 53.5t132 -53.5t53 -130.5t-52.5 -130.5t-132.5 -53.5z" />
    <glyph glyph-name="Wgrave" unicode="&#x1e80;" 
d="M211 0l-186 1432h249l91 -1028h6l47 283l101 463h162l101 -463l47 -283h6l84 1028h256l-186 -1432h-220l-127 573l-39 234h-6l-39 -234l-125 -573h-222zM480 1638l-268 360v12h306l196 -359v-13h-234z" />
    <glyph glyph-name="wgrave" unicode="&#x1e81;" 
d="M234 0l-221 1050h234l104 -641l16 -117h7l17 118l103 521h223l104 -520l16 -119h7l15 119l106 639h222l-222 -1050h-238l-107 541l-17 121h-7l-17 -121l-106 -541h-239zM489 1256l-268 360v12h306l196 -359v-13h-234z" />
    <glyph glyph-name="Wacute" unicode="&#x1e82;" 
d="M211 0l-186 1432h249l91 -1028h6l47 283l101 463h162l101 -463l47 -283h6l84 1028h256l-186 -1432h-220l-127 573l-39 234h-6l-39 -234l-125 -573h-222zM480 1638v13l197 359h306v-12l-269 -360h-234z" />
    <glyph glyph-name="wacute" unicode="&#x1e83;" 
d="M234 0l-221 1050h234l104 -641l16 -117h7l17 118l103 521h223l104 -520l16 -119h7l15 119l106 639h222l-222 -1050h-238l-107 541l-17 121h-7l-17 -121l-106 -541h-239zM489 1256v13l197 359h306v-12l-269 -360h-234z" />
    <glyph glyph-name="Wdieresis" unicode="&#x1e84;" 
d="M211 0l-186 1432h249l91 -1028h6l47 283l101 463h162l101 -463l47 -283h6l84 1028h256l-186 -1432h-220l-127 573l-39 234h-6l-39 -234l-125 -573h-222zM343 1639q-74 0 -125.5 50.5t-51.5 123.5t52 124t125 51q75 0 126 -50.5t51 -124t-51 -124t-126 -50.5zM851 1639
q-74 0 -125.5 50.5t-51.5 123.5t52 124t125 51q75 0 126 -50.5t51 -124t-51 -124t-126 -50.5z" />
    <glyph glyph-name="wdieresis" unicode="&#x1e85;" 
d="M234 0l-221 1050h234l104 -641l16 -117h7l17 118l103 521h223l104 -520l16 -119h7l15 119l106 639h222l-222 -1050h-238l-107 541l-17 121h-7l-17 -121l-106 -541h-239zM352 1257q-74 0 -125.5 50.5t-51.5 123.5t52 124t125 51q75 0 126 -50.5t51 -124t-51 -124
t-126 -50.5zM860 1257q-74 0 -125.5 50.5t-51.5 123.5t52 124t125 51q75 0 126 -50.5t51 -124t-51 -124t-126 -50.5z" />
    <glyph glyph-name="uni1E9E" unicode="&#x1e9e;" 
d="M761 -33q-90 0 -172 29.5t-141 79.5l132 203q69 -68 162 -68q81 0 126.5 57t45.5 158v20q0 114 -62 170.5t-187 56.5h-101v130l170 378v8h-143q-118 0 -176 -62.5t-58 -188.5v-938h-263v947q0 240 125.5 362.5t370.5 122.5h461v-130l-201 -447v-52l-75 48q193 0 299 -111
t106 -315v-24q0 -131 -51.5 -229t-146 -151.5t-221.5 -53.5z" />
    <glyph glyph-name="uni1EA0" unicode="&#x1ea0;" 
d="M30 0l445 1432h254l441 -1432h-276l-249 944l-44 192h-7l-42 -192l-251 -944h-271zM231 307l68 216h590l73 -216h-731zM598 -506q-78 0 -131.5 53.5t-53.5 130.5t53 130.5t132 53.5t132 -53.5t53 -130.5t-52.5 -130.5t-132.5 -53.5z" />
    <glyph glyph-name="uni1EA1" unicode="&#x1ea1;" 
d="M484 -33q-105 0 -184.5 42t-124 117t-44.5 173v14q0 161 111.5 257t296.5 96q79 0 147 -15t124 -44v-163q-89 54 -208 54q-97 0 -152 -45t-55 -128v-12q0 -75 47 -116.5t129 -41.5q65 0 114 33.5t76.5 93.5t27.5 139v247q0 102 -52.5 156t-156.5 54q-138 0 -253 -112
l-142 152q163 166 422 166q212 0 324.5 -106t112.5 -300v-678h-249v141h-8q-45 -83 -123 -128.5t-180 -45.5zM606 -563q-78 0 -131.5 53.5t-53.5 130.5t53 130.5t132 53.5t132 -53.5t53 -130.5t-52.5 -130.5t-132.5 -53.5z" />
    <glyph glyph-name="uni1EA2" unicode="&#x1ea2;" 
d="M30 0l445 1432h254l441 -1432h-276l-249 944l-44 192h-7l-42 -192l-251 -944h-271zM231 307l68 216h590l73 -216h-731zM577 1550l-27 180q85 7 127 32.5t42 72.5q0 88 -122 88q-87 0 -179 -33l-53 178q55 24 116 37.5t120 13.5q140 0 223.5 -74t83.5 -196
q0 -127 -86 -204.5t-245 -94.5z" />
    <glyph glyph-name="uni1EA3" unicode="&#x1ea3;" 
d="M484 -33q-105 0 -184.5 42t-124 117t-44.5 173v14q0 161 111.5 257t296.5 96q79 0 147 -15t124 -44v-163q-89 54 -208 54q-97 0 -152 -45t-55 -128v-12q0 -75 47 -116.5t129 -41.5q65 0 114 33.5t76.5 93.5t27.5 139v247q0 102 -52.5 156t-156.5 54q-138 0 -253 -112
l-142 152q163 166 422 166q212 0 324.5 -106t112.5 -300v-678h-249v141h-8q-45 -83 -123 -128.5t-180 -45.5zM582 1168l-27 180q85 7 127 32.5t42 72.5q0 88 -122 88q-87 0 -179 -33l-53 178q55 24 116 37.5t120 13.5q140 0 223.5 -74t83.5 -196q0 -127 -86 -204.5
t-245 -94.5z" />
    <glyph glyph-name="uni1EA4" unicode="&#x1ea4;" 
d="M30 0l445 1432h254l441 -1432h-276l-249 944l-44 192h-7l-42 -192l-251 -944h-271zM231 307l68 216h590l73 -216h-731zM167 1546v12l325 348h220l326 -348v-12h-268l-187 233h39l-187 -233h-268zM824 1851v12l156 390h234v-12l-221 -390h-169z" />
    <glyph glyph-name="uni1EA5" unicode="&#x1ea5;" 
d="M484 -33q-105 0 -184.5 42t-124 117t-44.5 173v14q0 161 111.5 257t296.5 96q79 0 147 -15t124 -44v-163q-89 54 -208 54q-97 0 -152 -45t-55 -128v-12q0 -75 47 -116.5t129 -41.5q65 0 114 33.5t76.5 93.5t27.5 139v247q0 102 -52.5 156t-156.5 54q-138 0 -253 -112
l-142 152q163 166 422 166q212 0 324.5 -106t112.5 -300v-678h-249v141h-8q-45 -83 -123 -128.5t-180 -45.5zM172 1224v12l325 348h220l326 -348v-12h-268l-187 233h39l-187 -233h-268zM829 1529v12l156 390h234v-12l-221 -390h-169z" />
    <glyph glyph-name="uni1EA6" unicode="&#x1ea6;" 
d="M30 0l445 1432h254l441 -1432h-276l-249 944l-44 192h-7l-42 -192l-251 -944h-271zM231 307l68 216h590l73 -216h-731zM167 1546v12l325 348h220l326 -348v-12h-268l-187 233h39l-187 -233h-268zM950 1847l-254 389v13h240l199 -390v-12h-185z" />
    <glyph glyph-name="uni1EA7" unicode="&#x1ea7;" 
d="M484 -33q-105 0 -184.5 42t-124 117t-44.5 173v14q0 161 111.5 257t296.5 96q79 0 147 -15t124 -44v-163q-89 54 -208 54q-97 0 -152 -45t-55 -128v-12q0 -75 47 -116.5t129 -41.5q65 0 114 33.5t76.5 93.5t27.5 139v247q0 102 -52.5 156t-156.5 54q-138 0 -253 -112
l-142 152q163 166 422 166q212 0 324.5 -106t112.5 -300v-678h-249v141h-8q-45 -83 -123 -128.5t-180 -45.5zM172 1224v12l325 348h220l326 -348v-12h-268l-187 233h39l-187 -233h-268zM955 1525l-254 389v13h240l199 -390v-12h-185z" />
    <glyph glyph-name="uni1EA8" unicode="&#x1ea8;" 
d="M30 0l445 1432h254l441 -1432h-276l-249 944l-44 192h-7l-42 -192l-251 -944h-271zM231 307l68 216h590l73 -216h-731zM167 1546v12l325 348h220l326 -348v-12h-268l-187 233h39l-187 -233h-268zM898 1802l-21 158q128 10 128 87q0 79 -113 79q-72 0 -142 -22l-40 160
q85 32 188 32q123 0 197 -64.5t74 -172.5q0 -109 -71 -176.5t-200 -80.5z" />
    <glyph glyph-name="uni1EA9" unicode="&#x1ea9;" 
d="M484 -33q-105 0 -184.5 42t-124 117t-44.5 173v14q0 161 111.5 257t296.5 96q79 0 147 -15t124 -44v-163q-89 54 -208 54q-97 0 -152 -45t-55 -128v-12q0 -75 47 -116.5t129 -41.5q65 0 114 33.5t76.5 93.5t27.5 139v247q0 102 -52.5 156t-156.5 54q-138 0 -253 -112
l-142 152q163 166 422 166q212 0 324.5 -106t112.5 -300v-678h-249v141h-8q-45 -83 -123 -128.5t-180 -45.5zM172 1224v12l325 348h220l326 -348v-12h-268l-187 233h39l-187 -233h-268zM903 1480l-21 158q128 10 128 87q0 79 -113 79q-72 0 -142 -22l-40 160q85 32 188 32
q123 0 197 -64.5t74 -172.5q0 -109 -71 -176.5t-200 -80.5z" />
    <glyph glyph-name="uni1EAA" unicode="&#x1eaa;" 
d="M30 0l445 1432h254l441 -1432h-276l-249 944l-44 192h-7l-42 -192l-251 -944h-271zM231 307l68 216h590l73 -216h-731zM167 1546v12l325 348h220l326 -348v-12h-268l-187 233h39l-187 -233h-268zM794 2000q-52 0 -95.5 18t-91.5 55q-52 40 -81 55t-58 15q-66 0 -66 -86
v-55h-190v72q0 119 56 184.5t153 65.5q52 0 94 -18t89 -56q52 -39 81 -54t56 -15q62 0 62 85v56h190v-72q0 -121 -52 -185.5t-147 -64.5z" />
    <glyph glyph-name="uni1EAB" unicode="&#x1eab;" 
d="M484 -33q-105 0 -184.5 42t-124 117t-44.5 173v14q0 161 111.5 257t296.5 96q79 0 147 -15t124 -44v-163q-89 54 -208 54q-97 0 -152 -45t-55 -128v-12q0 -75 47 -116.5t129 -41.5q65 0 114 33.5t76.5 93.5t27.5 139v247q0 102 -52.5 156t-156.5 54q-138 0 -253 -112
l-142 152q163 166 422 166q212 0 324.5 -106t112.5 -300v-678h-249v141h-8q-45 -83 -123 -128.5t-180 -45.5zM172 1224v12l325 348h220l326 -348v-12h-268l-187 233h39l-187 -233h-268zM799 1678q-52 0 -95.5 18t-91.5 55q-52 40 -81 55t-58 15q-66 0 -66 -86v-55h-190v72
q0 119 56 184.5t153 65.5q52 0 94 -18t89 -56q52 -39 81 -54t56 -15q62 0 62 85v56h190v-72q0 -121 -52 -185.5t-147 -64.5z" />
    <glyph glyph-name="uni1EAC" unicode="&#x1eac;" 
d="M30 0l445 1432h254l441 -1432h-276l-249 944l-44 192h-7l-42 -192l-251 -944h-271zM231 307l68 216h590l73 -216h-731zM598 -506q-78 0 -131.5 53.5t-53.5 130.5t53 130.5t132 53.5t132 -53.5t53 -130.5t-52.5 -130.5t-132.5 -53.5zM188 1638v13l284 359h260l284 -359
v-13h-262l-180 290h57l-181 -290h-262z" />
    <glyph glyph-name="uni1EAD" unicode="&#x1ead;" 
d="M484 -33q-105 0 -184.5 42t-124 117t-44.5 173v14q0 161 111.5 257t296.5 96q79 0 147 -15t124 -44v-163q-89 54 -208 54q-97 0 -152 -45t-55 -128v-12q0 -75 47 -116.5t129 -41.5q65 0 114 33.5t76.5 93.5t27.5 139v247q0 102 -52.5 156t-156.5 54q-138 0 -253 -112
l-142 152q163 166 422 166q212 0 324.5 -106t112.5 -300v-678h-249v141h-8q-45 -83 -123 -128.5t-180 -45.5zM606 -563q-78 0 -131.5 53.5t-53.5 130.5t53 130.5t132 53.5t132 -53.5t53 -130.5t-52.5 -130.5t-132.5 -53.5zM193 1256v13l284 359h260l284 -359v-13h-262
l-180 290h57l-181 -290h-262z" />
    <glyph glyph-name="uni1EAE" unicode="&#x1eae;" 
d="M30 0l445 1432h254l441 -1432h-276l-249 944l-44 192h-7l-42 -192l-251 -944h-271zM231 307l68 216h590l73 -216h-731zM400 1587q-87 47 -135.5 130.5t-48.5 191.5v9h188v-12q0 -89 52 -143t146 -54q95 0 147 54t52 143v12h188v-9q0 -108 -49 -191.5t-136 -130.5
t-202 -47t-202 47zM490 1897v13l130 379h260v-13l-240 -379h-150z" />
    <glyph glyph-name="uni1EAF" unicode="&#x1eaf;" 
d="M484 -33q-105 0 -184.5 42t-124 117t-44.5 173v14q0 161 111.5 257t296.5 96q79 0 147 -15t124 -44v-163q-89 54 -208 54q-97 0 -152 -45t-55 -128v-12q0 -75 47 -116.5t129 -41.5q65 0 114 33.5t76.5 93.5t27.5 139v247q0 102 -52.5 156t-156.5 54q-138 0 -253 -112
l-142 152q163 166 422 166q212 0 324.5 -106t112.5 -300v-678h-249v141h-8q-45 -83 -123 -128.5t-180 -45.5zM405 1255q-87 47 -135.5 130.5t-48.5 191.5v9h188v-12q0 -89 52 -143t146 -54q95 0 147 54t52 143v12h188v-9q0 -108 -49 -191.5t-136 -130.5t-202 -47t-202 47z
M495 1565v13l130 379h260v-13l-240 -379h-150z" />
    <glyph glyph-name="uni1EB0" unicode="&#x1eb0;" 
d="M30 0l445 1432h254l441 -1432h-276l-249 944l-44 192h-7l-42 -192l-251 -944h-271zM231 307l68 216h590l73 -216h-731zM400 1587q-87 47 -135.5 130.5t-48.5 191.5v9h188v-12q0 -89 52 -143t146 -54q95 0 147 54t52 143v12h188v-9q0 -108 -49 -191.5t-136 -130.5
t-202 -47t-202 47zM568 1897l-250 379v13h254l152 -379v-13h-156z" />
    <glyph glyph-name="uni1EB1" unicode="&#x1eb1;" 
d="M484 -33q-105 0 -184.5 42t-124 117t-44.5 173v14q0 161 111.5 257t296.5 96q79 0 147 -15t124 -44v-163q-89 54 -208 54q-97 0 -152 -45t-55 -128v-12q0 -75 47 -116.5t129 -41.5q65 0 114 33.5t76.5 93.5t27.5 139v247q0 102 -52.5 156t-156.5 54q-138 0 -253 -112
l-142 152q163 166 422 166q212 0 324.5 -106t112.5 -300v-678h-249v141h-8q-45 -83 -123 -128.5t-180 -45.5zM405 1255q-87 47 -135.5 130.5t-48.5 191.5v9h188v-12q0 -89 52 -143t146 -54q95 0 147 54t52 143v12h188v-9q0 -108 -49 -191.5t-136 -130.5t-202 -47t-202 47z
M573 1565l-250 379v13h254l152 -379v-13h-156z" />
    <glyph glyph-name="uni1EB2" unicode="&#x1eb2;" 
d="M30 0l445 1432h254l441 -1432h-276l-249 944l-44 192h-7l-42 -192l-251 -944h-271zM231 307l68 216h590l73 -216h-731zM602 1540q-115 0 -205 47.5t-141.5 131.5t-51.5 192v10h185v-13q0 -91 54.5 -146.5t158.5 -55.5q105 0 159.5 55.5t54.5 146.5v13h184v-10
q0 -108 -51 -192t-141 -131.5t-206 -47.5zM533 1852l-17 150q134 9 134 87t-120 78q-71 0 -143 -22l-44 159q93 31 193 31q126 0 200.5 -62.5t74.5 -169.5q0 -105 -74 -172t-204 -79z" />
    <glyph glyph-name="uni1EB3" unicode="&#x1eb3;" 
d="M484 -33q-105 0 -184.5 42t-124 117t-44.5 173v14q0 161 111.5 257t296.5 96q79 0 147 -15t124 -44v-163q-89 54 -208 54q-97 0 -152 -45t-55 -128v-12q0 -75 47 -116.5t129 -41.5q65 0 114 33.5t76.5 93.5t27.5 139v247q0 102 -52.5 156t-156.5 54q-138 0 -253 -112
l-142 152q163 166 422 166q212 0 324.5 -106t112.5 -300v-678h-249v141h-8q-45 -83 -123 -128.5t-180 -45.5zM611 1208q-115 0 -205 47.5t-141.5 131.5t-51.5 192v10h185v-13q0 -91 54.5 -146.5t158.5 -55.5q105 0 159.5 55.5t54.5 146.5v13h184v-10q0 -108 -51 -192
t-141 -131.5t-206 -47.5zM542 1520l-17 150q134 9 134 87t-120 78q-71 0 -143 -22l-44 159q93 31 193 31q126 0 200.5 -62.5t74.5 -169.5q0 -105 -74 -172t-204 -79z" />
    <glyph glyph-name="uni1EB4" unicode="&#x1eb4;" 
d="M30 0l445 1432h254l441 -1432h-276l-249 944l-44 192h-7l-42 -192l-251 -944h-271zM231 307l68 216h590l73 -216h-731zM602 1540q-111 0 -194.5 45t-129.5 125.5t-46 185.5v9h191v-12q0 -85 48 -135t131.5 -50t131.5 50t48 135v12h191v-9q0 -105 -46 -185.5
t-129.5 -125.5t-195.5 -45zM802 2007q-54 0 -99.5 19.5t-95.5 57.5q-55 43 -84.5 59t-60.5 16t-49.5 -19.5t-18.5 -55.5v-73h-190v94q0 112 56 173.5t153 61.5q54 0 98.5 -20t92.5 -58q56 -43 86 -58.5t59 -15.5q62 0 62 73v75h190v-94q0 -113 -52 -174t-147 -61z" />
    <glyph glyph-name="uni1EB5" unicode="&#x1eb5;" 
d="M484 -33q-105 0 -184.5 42t-124 117t-44.5 173v14q0 161 111.5 257t296.5 96q79 0 147 -15t124 -44v-163q-89 54 -208 54q-97 0 -152 -45t-55 -128v-12q0 -75 47 -116.5t129 -41.5q65 0 114 33.5t76.5 93.5t27.5 139v247q0 102 -52.5 156t-156.5 54q-138 0 -253 -112
l-142 152q163 166 422 166q212 0 324.5 -106t112.5 -300v-678h-249v141h-8q-45 -83 -123 -128.5t-180 -45.5zM611 1208q-111 0 -194.5 45t-129.5 125.5t-46 185.5v9h191v-12q0 -85 48 -135t131.5 -50t131.5 50t48 135v12h191v-9q0 -105 -46 -185.5t-129.5 -125.5t-195.5 -45
zM811 1675q-54 0 -99.5 19.5t-95.5 57.5q-55 43 -84.5 59t-60.5 16t-49.5 -19.5t-18.5 -55.5v-73h-190v94q0 112 56 173.5t153 61.5q54 0 98.5 -20t92.5 -58q56 -43 86 -58.5t59 -15.5q62 0 62 73v75h190v-94q0 -113 -52 -174t-147 -61z" />
    <glyph glyph-name="uni1EB6" unicode="&#x1eb6;" 
d="M30 0l445 1432h254l441 -1432h-276l-249 944l-44 192h-7l-42 -192l-251 -944h-271zM231 307l68 216h590l73 -216h-731zM598 -506q-78 0 -131.5 53.5t-53.5 130.5t53 130.5t132 53.5t132 -53.5t53 -130.5t-52.5 -130.5t-132.5 -53.5zM407.5 1676.5q-83.5 46.5 -131 129.5
t-47.5 192v12h204v-18q0 -82 45.5 -129.5t124 -47.5t123.5 47.5t45 129.5v18h204v-12q0 -109 -47.5 -192t-131 -129.5t-194.5 -46.5t-194.5 46.5z" />
    <glyph glyph-name="uni1EB7" unicode="&#x1eb7;" 
d="M484 -33q-105 0 -184.5 42t-124 117t-44.5 173v14q0 161 111.5 257t296.5 96q79 0 147 -15t124 -44v-163q-89 54 -208 54q-97 0 -152 -45t-55 -128v-12q0 -75 47 -116.5t129 -41.5q65 0 114 33.5t76.5 93.5t27.5 139v247q0 102 -52.5 156t-156.5 54q-138 0 -253 -112
l-142 152q163 166 422 166q212 0 324.5 -106t112.5 -300v-678h-249v141h-8q-45 -83 -123 -128.5t-180 -45.5zM606 -563q-78 0 -131.5 53.5t-53.5 130.5t53 130.5t132 53.5t132 -53.5t53 -130.5t-52.5 -130.5t-132.5 -53.5zM412.5 1294.5q-83.5 46.5 -131 129.5t-47.5 192v12
h204v-18q0 -82 45.5 -129.5t124 -47.5t123.5 47.5t45 129.5v18h204v-12q0 -109 -47.5 -192t-131 -129.5t-194.5 -46.5t-194.5 46.5z" />
    <glyph glyph-name="uni1EB8" unicode="&#x1eb8;" 
d="M157 0v1432h864v-249h-598v-934h614v-249h-880zM319 608v248h622v-248h-622zM597 -529q-78 0 -131.5 53.5t-53.5 130.5t53 130.5t132 53.5t132 -53.5t53 -130.5t-52.5 -130.5t-132.5 -53.5z" />
    <glyph glyph-name="uni1EB9" unicode="&#x1eb9;" 
d="M631 -33q-161 0 -279.5 67.5t-184 190.5t-65.5 288v27q0 164 65.5 286t183 190t273.5 68q141 0 245 -59.5t162 -167t58 -252.5q0 -41 -3 -77.5t-9 -66.5h-833v165h601v-2q0 115 -59 180.5t-161 65.5q-125 0 -198 -89t-73 -245v-19q0 -154 75 -243.5t203 -89.5
q157 0 230 149l220 -102q-63 -129 -178 -196.5t-273 -67.5zM632 -563q-78 0 -131.5 53.5t-53.5 130.5t53 130.5t132 53.5t132 -53.5t53 -130.5t-52.5 -130.5t-132.5 -53.5z" />
    <glyph glyph-name="uni1EBA" unicode="&#x1eba;" 
d="M157 0v1432h864v-249h-598v-934h614v-249h-880zM319 608v248h622v-248h-622zM564 1550l-27 180q85 7 127 32.5t42 72.5q0 88 -122 88q-87 0 -179 -33l-53 178q55 24 116 37.5t120 13.5q140 0 223.5 -74t83.5 -196q0 -127 -86 -204.5t-245 -94.5z" />
    <glyph glyph-name="uni1EBB" unicode="&#x1ebb;" 
d="M631 -33q-161 0 -279.5 67.5t-184 190.5t-65.5 288v27q0 164 65.5 286t183 190t273.5 68q141 0 245 -59.5t162 -167t58 -252.5q0 -41 -3 -77.5t-9 -66.5h-833v165h601v-2q0 115 -59 180.5t-161 65.5q-125 0 -198 -89t-73 -245v-19q0 -154 75 -243.5t203 -89.5
q157 0 230 149l220 -102q-63 -129 -178 -196.5t-273 -67.5zM600 1168l-27 180q85 7 127 32.5t42 72.5q0 88 -122 88q-87 0 -179 -33l-53 178q55 24 116 37.5t120 13.5q140 0 223.5 -74t83.5 -196q0 -127 -86 -204.5t-245 -94.5z" />
    <glyph glyph-name="uni1EBC" unicode="&#x1ebc;" 
d="M157 0v1432h864v-249h-598v-934h614v-249h-880zM319 608v248h622v-248h-622zM764 1642q-51 0 -97.5 23t-99.5 79q-39 40 -62 56t-46 16q-59 0 -59 -84v-86h-195v92q0 132 57 203.5t162 71.5q50 0 93 -22t96 -79q38 -40 61.5 -56t47.5 -16q56 0 56 82v88h196v-92
q0 -133 -53 -204.5t-157 -71.5z" />
    <glyph glyph-name="uni1EBD" unicode="&#x1ebd;" 
d="M631 -33q-161 0 -279.5 67.5t-184 190.5t-65.5 288v27q0 164 65.5 286t183 190t273.5 68q141 0 245 -59.5t162 -167t58 -252.5q0 -41 -3 -77.5t-9 -66.5h-833v165h601v-2q0 115 -59 180.5t-161 65.5q-125 0 -198 -89t-73 -245v-19q0 -154 75 -243.5t203 -89.5
q157 0 230 149l220 -102q-63 -129 -178 -196.5t-273 -67.5zM800 1260q-51 0 -97.5 23t-99.5 79q-39 40 -62 56t-46 16q-59 0 -59 -84v-86h-195v92q0 132 57 203.5t162 71.5q50 0 93 -22t96 -79q38 -40 61.5 -56t47.5 -16q56 0 56 82v88h196v-92q0 -133 -53 -204.5
t-157 -71.5z" />
    <glyph glyph-name="uni1EBE" unicode="&#x1ebe;" 
d="M157 0v1432h864v-249h-598v-934h614v-249h-880zM319 608v248h622v-248h-622zM154 1546v12l325 348h220l326 -348v-12h-268l-187 233h39l-187 -233h-268zM811 1851v12l156 390h234v-12l-221 -390h-169z" />
    <glyph glyph-name="uni1EBF" unicode="&#x1ebf;" 
d="M631 -33q-161 0 -279.5 67.5t-184 190.5t-65.5 288v27q0 164 65.5 286t183 190t273.5 68q141 0 245 -59.5t162 -167t58 -252.5q0 -41 -3 -77.5t-9 -66.5h-833v165h601v-2q0 115 -59 180.5t-161 65.5q-125 0 -198 -89t-73 -245v-19q0 -154 75 -243.5t203 -89.5
q157 0 230 149l220 -102q-63 -129 -178 -196.5t-273 -67.5zM190 1224v12l325 348h220l326 -348v-12h-268l-187 233h39l-187 -233h-268zM847 1529v12l156 390h234v-12l-221 -390h-169z" />
    <glyph glyph-name="uni1EC0" unicode="&#x1ec0;" 
d="M157 0v1432h864v-249h-598v-934h614v-249h-880zM319 608v248h622v-248h-622zM154 1546v12l325 348h220l326 -348v-12h-268l-187 233h39l-187 -233h-268zM937 1847l-254 389v13h240l199 -390v-12h-185z" />
    <glyph glyph-name="uni1EC1" unicode="&#x1ec1;" 
d="M631 -33q-161 0 -279.5 67.5t-184 190.5t-65.5 288v27q0 164 65.5 286t183 190t273.5 68q141 0 245 -59.5t162 -167t58 -252.5q0 -41 -3 -77.5t-9 -66.5h-833v165h601v-2q0 115 -59 180.5t-161 65.5q-125 0 -198 -89t-73 -245v-19q0 -154 75 -243.5t203 -89.5
q157 0 230 149l220 -102q-63 -129 -178 -196.5t-273 -67.5zM190 1224v12l325 348h220l326 -348v-12h-268l-187 233h39l-187 -233h-268zM973 1525l-254 389v13h240l199 -390v-12h-185z" />
    <glyph glyph-name="uni1EC2" unicode="&#x1ec2;" 
d="M157 0v1432h864v-249h-598v-934h614v-249h-880zM319 608v248h622v-248h-622zM154 1546v12l325 348h220l326 -348v-12h-268l-187 233h39l-187 -233h-268zM885 1802l-21 158q128 10 128 87q0 79 -113 79q-72 0 -142 -22l-40 160q85 32 188 32q123 0 197 -64.5t74 -172.5
q0 -109 -71 -176.5t-200 -80.5z" />
    <glyph glyph-name="uni1EC3" unicode="&#x1ec3;" 
d="M631 -33q-161 0 -279.5 67.5t-184 190.5t-65.5 288v27q0 164 65.5 286t183 190t273.5 68q141 0 245 -59.5t162 -167t58 -252.5q0 -41 -3 -77.5t-9 -66.5h-833v165h601v-2q0 115 -59 180.5t-161 65.5q-125 0 -198 -89t-73 -245v-19q0 -154 75 -243.5t203 -89.5
q157 0 230 149l220 -102q-63 -129 -178 -196.5t-273 -67.5zM191 1224v12l325 348h220l326 -348v-12h-268l-187 233h39l-187 -233h-268zM922 1480l-21 158q128 10 128 87q0 79 -113 79q-72 0 -142 -22l-40 160q85 32 188 32q123 0 197 -64.5t74 -172.5q0 -109 -71 -176.5
t-200 -80.5z" />
    <glyph glyph-name="uni1EC4" unicode="&#x1ec4;" 
d="M157 0v1432h864v-249h-598v-934h614v-249h-880zM319 608v248h622v-248h-622zM154 1546v12l325 348h220l326 -348v-12h-268l-187 233h39l-187 -233h-268zM781 2000q-52 0 -95.5 18t-91.5 55q-52 40 -81 55t-58 15q-66 0 -66 -86v-55h-190v72q0 119 56 184.5t153 65.5
q52 0 94 -18t89 -56q52 -39 81 -54t56 -15q62 0 62 85v56h190v-72q0 -121 -52 -185.5t-147 -64.5z" />
    <glyph glyph-name="uni1EC5" unicode="&#x1ec5;" 
d="M631 -33q-161 0 -279.5 67.5t-184 190.5t-65.5 288v27q0 164 65.5 286t183 190t273.5 68q141 0 245 -59.5t162 -167t58 -252.5q0 -41 -3 -77.5t-9 -66.5h-833v165h601v-2q0 115 -59 180.5t-161 65.5q-125 0 -198 -89t-73 -245v-19q0 -154 75 -243.5t203 -89.5
q157 0 230 149l220 -102q-63 -129 -178 -196.5t-273 -67.5zM191 1224v12l325 348h220l326 -348v-12h-268l-187 233h39l-187 -233h-268zM818 1678q-52 0 -95.5 18t-91.5 55q-52 40 -81 55t-58 15q-66 0 -66 -86v-55h-190v72q0 119 56 184.5t153 65.5q52 0 94 -18t89 -56
q52 -39 81 -54t56 -15q62 0 62 85v56h190v-72q0 -121 -52 -185.5t-147 -64.5z" />
    <glyph glyph-name="uni1EC6" unicode="&#x1ec6;" 
d="M157 0v1432h864v-249h-598v-934h614v-249h-880zM319 608v248h622v-248h-622zM597 -529q-78 0 -131.5 53.5t-53.5 130.5t53 130.5t132 53.5t132 -53.5t53 -130.5t-52.5 -130.5t-132.5 -53.5zM175 1638v13l284 359h260l284 -359v-13h-262l-180 290h57l-181 -290h-262z" />
    <glyph glyph-name="uni1EC7" unicode="&#x1ec7;" 
d="M631 -33q-161 0 -279.5 67.5t-184 190.5t-65.5 288v27q0 164 65.5 286t183 190t273.5 68q141 0 245 -59.5t162 -167t58 -252.5q0 -41 -3 -77.5t-9 -66.5h-833v165h601v-2q0 115 -59 180.5t-161 65.5q-125 0 -198 -89t-73 -245v-19q0 -154 75 -243.5t203 -89.5
q157 0 230 149l220 -102q-63 -129 -178 -196.5t-273 -67.5zM632 -563q-78 0 -131.5 53.5t-53.5 130.5t53 130.5t132 53.5t132 -53.5t53 -130.5t-52.5 -130.5t-132.5 -53.5zM211 1256v13l284 359h260l284 -359v-13h-262l-180 290h57l-181 -290h-262z" />
    <glyph glyph-name="uni1EC8" unicode="&#x1ec8;" 
d="M465 123v1186h270v-1186h-270zM154 0v251h892v-251h-892zM154 1182v250h892v-250h-892zM575 1550l-27 180q85 7 127 32.5t42 72.5q0 88 -122 88q-87 0 -179 -33l-53 178q55 24 116 37.5t120 13.5q140 0 223.5 -74t83.5 -196q0 -127 -86 -204.5t-245 -94.5z" />
    <glyph glyph-name="uni1EC9" unicode="&#x1ec9;" 
d="M523 17v1033h256v-1033h-256zM179 0v199h923v-199h-923zM199 850v200h536v-200h-536zM557 1168l-27 180q85 7 127 32.5t42 72.5q0 88 -122 88q-87 0 -179 -33l-53 178q55 24 116 37.5t120 13.5q140 0 223.5 -74t83.5 -196q0 -127 -86 -204.5t-245 -94.5z" />
    <glyph glyph-name="uni1ECA" unicode="&#x1eca;" 
d="M465 123v1186h270v-1186h-270zM154 0v251h892v-251h-892zM154 1182v250h892v-250h-892zM600 -529q-78 0 -131.5 53.5t-53.5 130.5t53 130.5t132 53.5t132 -53.5t53 -130.5t-52.5 -130.5t-132.5 -53.5z" />
    <glyph glyph-name="uni1ECB" unicode="&#x1ecb;" 
d="M523 73v977h256v-977h-256zM179 0v199h923v-199h-923zM199 850v200h536v-200h-536zM622 1257q-76 0 -129.5 52.5t-53.5 127.5q0 77 53.5 128t129.5 51q78 0 129.5 -51t51.5 -129q0 -74 -51.5 -126.5t-129.5 -52.5zM651 -529q-78 0 -131.5 53.5t-53.5 130.5t53 130.5
t132 53.5t132 -53.5t53 -130.5t-52.5 -130.5t-132.5 -53.5z" />
    <glyph glyph-name="uni1ECC" unicode="&#x1ecc;" 
d="M312.5 54.5q-120.5 87.5 -185 250.5t-64.5 390v42q0 227 64.5 390t185 250.5t287.5 87.5t287.5 -87.5t185 -250.5t64.5 -390v-42q0 -227 -64.5 -390t-185 -250.5t-287.5 -87.5t-287.5 87.5zM797 340q68 121 68 350v52q0 229 -68.5 350t-196.5 121t-196.5 -121t-68.5 -350
v-52q0 -229 68.5 -350t197 -121t196.5 121zM600 -563q-78 0 -131.5 53.5t-53.5 130.5t53 130.5t132 53.5t132 -53.5t53 -130.5t-52.5 -130.5t-132.5 -53.5z" />
    <glyph glyph-name="uni1ECD" unicode="&#x1ecd;" 
d="M334.5 36.5q-115.5 69.5 -180 193t-64.5 283.5v24q0 161 64.5 284t180 193t265.5 70t265 -70t180 -193t65 -284v-24q0 -160 -65 -283.5t-180 -193t-265 -69.5t-265.5 69.5zM781 285.5q67 85.5 67 231.5v16q0 146 -67 231.5t-181 85.5t-181 -85.5t-67 -231.5v-16
q0 -146 67 -231.5t181 -85.5t181 85.5zM600 -563q-78 0 -131.5 53.5t-53.5 130.5t53 130.5t132 53.5t132 -53.5t53 -130.5t-52.5 -130.5t-132.5 -53.5z" />
    <glyph glyph-name="uni1ECE" unicode="&#x1ece;" 
d="M312.5 54.5q-120.5 87.5 -185 250.5t-64.5 390v42q0 227 64.5 390t185 250.5t287.5 87.5t287.5 -87.5t185 -250.5t64.5 -390v-42q0 -227 -64.5 -390t-185 -250.5t-287.5 -87.5t-287.5 87.5zM797 340q68 121 68 350v52q0 229 -68.5 350t-196.5 121t-196.5 -121t-68.5 -350
v-52q0 -229 68.5 -350t197 -121t196.5 121zM575 1550l-27 180q85 7 127 32.5t42 72.5q0 88 -122 88q-87 0 -179 -33l-53 178q55 24 116 37.5t120 13.5q140 0 223.5 -74t83.5 -196q0 -127 -86 -204.5t-245 -94.5z" />
    <glyph glyph-name="uni1ECF" unicode="&#x1ecf;" 
d="M334.5 36.5q-115.5 69.5 -180 193t-64.5 283.5v24q0 161 64.5 284t180 193t265.5 70t265 -70t180 -193t65 -284v-24q0 -160 -65 -283.5t-180 -193t-265 -69.5t-265.5 69.5zM781 285.5q67 85.5 67 231.5v16q0 146 -67 231.5t-181 85.5t-181 -85.5t-67 -231.5v-16
q0 -146 67 -231.5t181 -85.5t181 85.5zM575 1168l-27 180q85 7 127 32.5t42 72.5q0 88 -122 88q-87 0 -179 -33l-53 178q55 24 116 37.5t120 13.5q140 0 223.5 -74t83.5 -196q0 -127 -86 -204.5t-245 -94.5z" />
    <glyph glyph-name="uni1ED0" unicode="&#x1ed0;" 
d="M312.5 54.5q-120.5 87.5 -185 250.5t-64.5 390v42q0 227 64.5 390t185 250.5t287.5 87.5t287.5 -87.5t185 -250.5t64.5 -390v-42q0 -227 -64.5 -390t-185 -250.5t-287.5 -87.5t-287.5 87.5zM797 340q68 121 68 350v52q0 229 -68.5 350t-196.5 121t-196.5 -121t-68.5 -350
v-52q0 -229 68.5 -350t197 -121t196.5 121zM165 1546v12l325 348h220l326 -348v-12h-268l-187 233h39l-187 -233h-268zM822 1851v12l156 390h234v-12l-221 -390h-169z" />
    <glyph glyph-name="uni1ED1" unicode="&#x1ed1;" 
d="M334.5 36.5q-115.5 69.5 -180 193t-64.5 283.5v24q0 161 64.5 284t180 193t265.5 70t265 -70t180 -193t65 -284v-24q0 -160 -65 -283.5t-180 -193t-265 -69.5t-265.5 69.5zM781 285.5q67 85.5 67 231.5v16q0 146 -67 231.5t-181 85.5t-181 -85.5t-67 -231.5v-16
q0 -146 67 -231.5t181 -85.5t181 85.5zM165 1224v12l325 348h220l326 -348v-12h-268l-187 233h39l-187 -233h-268zM822 1529v12l156 390h234v-12l-221 -390h-169z" />
    <glyph glyph-name="uni1ED2" unicode="&#x1ed2;" 
d="M312.5 54.5q-120.5 87.5 -185 250.5t-64.5 390v42q0 227 64.5 390t185 250.5t287.5 87.5t287.5 -87.5t185 -250.5t64.5 -390v-42q0 -227 -64.5 -390t-185 -250.5t-287.5 -87.5t-287.5 87.5zM797 340q68 121 68 350v52q0 229 -68.5 350t-196.5 121t-196.5 -121t-68.5 -350
v-52q0 -229 68.5 -350t197 -121t196.5 121zM165 1546v12l325 348h220l326 -348v-12h-268l-187 233h39l-187 -233h-268zM948 1847l-254 389v13h240l199 -390v-12h-185z" />
    <glyph glyph-name="uni1ED3" unicode="&#x1ed3;" 
d="M334.5 36.5q-115.5 69.5 -180 193t-64.5 283.5v24q0 161 64.5 284t180 193t265.5 70t265 -70t180 -193t65 -284v-24q0 -160 -65 -283.5t-180 -193t-265 -69.5t-265.5 69.5zM781 285.5q67 85.5 67 231.5v16q0 146 -67 231.5t-181 85.5t-181 -85.5t-67 -231.5v-16
q0 -146 67 -231.5t181 -85.5t181 85.5zM165 1224v12l325 348h220l326 -348v-12h-268l-187 233h39l-187 -233h-268zM948 1525l-254 389v13h240l199 -390v-12h-185z" />
    <glyph glyph-name="uni1ED4" unicode="&#x1ed4;" 
d="M312.5 54.5q-120.5 87.5 -185 250.5t-64.5 390v42q0 227 64.5 390t185 250.5t287.5 87.5t287.5 -87.5t185 -250.5t64.5 -390v-42q0 -227 -64.5 -390t-185 -250.5t-287.5 -87.5t-287.5 87.5zM797 340q68 121 68 350v52q0 229 -68.5 350t-196.5 121t-196.5 -121t-68.5 -350
v-52q0 -229 68.5 -350t197 -121t196.5 121zM165 1546v12l325 348h220l326 -348v-12h-268l-187 233h39l-187 -233h-268zM896 1802l-21 158q128 10 128 87q0 79 -113 79q-72 0 -142 -22l-40 160q85 32 188 32q123 0 197 -64.5t74 -172.5q0 -109 -71 -176.5t-200 -80.5z" />
    <glyph glyph-name="uni1ED5" unicode="&#x1ed5;" 
d="M334.5 36.5q-115.5 69.5 -180 193t-64.5 283.5v24q0 161 64.5 284t180 193t265.5 70t265 -70t180 -193t65 -284v-24q0 -160 -65 -283.5t-180 -193t-265 -69.5t-265.5 69.5zM781 285.5q67 85.5 67 231.5v16q0 146 -67 231.5t-181 85.5t-181 -85.5t-67 -231.5v-16
q0 -146 67 -231.5t181 -85.5t181 85.5zM165 1224v12l325 348h220l326 -348v-12h-268l-187 233h39l-187 -233h-268zM896 1480l-21 158q128 10 128 87q0 79 -113 79q-72 0 -142 -22l-40 160q85 32 188 32q123 0 197 -64.5t74 -172.5q0 -109 -71 -176.5t-200 -80.5z" />
    <glyph glyph-name="uni1ED6" unicode="&#x1ed6;" 
d="M312.5 54.5q-120.5 87.5 -185 250.5t-64.5 390v42q0 227 64.5 390t185 250.5t287.5 87.5t287.5 -87.5t185 -250.5t64.5 -390v-42q0 -227 -64.5 -390t-185 -250.5t-287.5 -87.5t-287.5 87.5zM797 340q68 121 68 350v52q0 229 -68.5 350t-196.5 121t-196.5 -121t-68.5 -350
v-52q0 -229 68.5 -350t197 -121t196.5 121zM165 1546v12l325 348h220l326 -348v-12h-268l-187 233h39l-187 -233h-268zM792 2000q-52 0 -95.5 18t-91.5 55q-52 40 -81 55t-58 15q-66 0 -66 -86v-55h-190v72q0 119 56 184.5t153 65.5q52 0 94 -18t89 -56q52 -39 81 -54
t56 -15q62 0 62 85v56h190v-72q0 -121 -52 -185.5t-147 -64.5z" />
    <glyph glyph-name="uni1ED7" unicode="&#x1ed7;" 
d="M334.5 36.5q-115.5 69.5 -180 193t-64.5 283.5v24q0 161 64.5 284t180 193t265.5 70t265 -70t180 -193t65 -284v-24q0 -160 -65 -283.5t-180 -193t-265 -69.5t-265.5 69.5zM781 285.5q67 85.5 67 231.5v16q0 146 -67 231.5t-181 85.5t-181 -85.5t-67 -231.5v-16
q0 -146 67 -231.5t181 -85.5t181 85.5zM165 1224v12l325 348h220l326 -348v-12h-268l-187 233h39l-187 -233h-268zM792 1678q-52 0 -95.5 18t-91.5 55q-52 40 -81 55t-58 15q-66 0 -66 -86v-55h-190v72q0 119 56 184.5t153 65.5q52 0 94 -18t89 -56q52 -39 81 -54t56 -15
q62 0 62 85v56h190v-72q0 -121 -52 -185.5t-147 -64.5z" />
    <glyph glyph-name="uni1ED8" unicode="&#x1ed8;" 
d="M312.5 54.5q-120.5 87.5 -185 250.5t-64.5 390v42q0 227 64.5 390t185 250.5t287.5 87.5t287.5 -87.5t185 -250.5t64.5 -390v-42q0 -227 -64.5 -390t-185 -250.5t-287.5 -87.5t-287.5 87.5zM797 340q68 121 68 350v52q0 229 -68.5 350t-196.5 121t-196.5 -121t-68.5 -350
v-52q0 -229 68.5 -350t197 -121t196.5 121zM600 -563q-78 0 -131.5 53.5t-53.5 130.5t53 130.5t132 53.5t132 -53.5t53 -130.5t-52.5 -130.5t-132.5 -53.5zM186 1638v13l284 359h260l284 -359v-13h-262l-180 290h57l-181 -290h-262z" />
    <glyph glyph-name="uni1ED9" unicode="&#x1ed9;" 
d="M334.5 36.5q-115.5 69.5 -180 193t-64.5 283.5v24q0 161 64.5 284t180 193t265.5 70t265 -70t180 -193t65 -284v-24q0 -160 -65 -283.5t-180 -193t-265 -69.5t-265.5 69.5zM781 285.5q67 85.5 67 231.5v16q0 146 -67 231.5t-181 85.5t-181 -85.5t-67 -231.5v-16
q0 -146 67 -231.5t181 -85.5t181 85.5zM600 -563q-78 0 -131.5 53.5t-53.5 130.5t53 130.5t132 53.5t132 -53.5t53 -130.5t-52.5 -130.5t-132.5 -53.5zM186 1256v13l284 359h260l284 -359v-13h-262l-180 290h57l-181 -290h-262z" />
    <glyph glyph-name="uni1EDA" unicode="&#x1eda;" 
d="M597 -33q-166 0 -285.5 88t-183.5 251t-64 389v42q0 227 64.5 390t186 250.5t293.5 87.5q64 0 116 -9.5t95 -9.5q115 0 115 100q0 33 -7 64.5t-19 66.5l261 69q31 -82 31 -160q0 -118 -93 -188.5t-259 -70.5h-98l18 77q179 -66 271 -234t92 -433v-42q0 -226 -64 -389
t-183.5 -251t-286.5 -88zM597 222q129 0 197 120t68 348v64q0 229 -63 347t-191 118q-133 0 -204.5 -123t-71.5 -354v-52q0 -228 68.5 -348t196.5 -120zM465 1656v13l197 359h306v-12l-269 -360h-234z" />
    <glyph glyph-name="uni1EDB" unicode="&#x1edb;" 
d="M587 -33q-154 0 -267.5 68.5t-175 191.5t-61.5 286v24q0 164 61.5 287t175 191.5t267.5 68.5q64 0 112 -7t93 -7q120 0 120 106q0 57 -25 118l257 68q13 -37 20 -73.5t7 -74.5q0 -122 -92 -190t-258 -68h-93l32 76q159 -50 245 -180.5t86 -314.5v-24q0 -165 -62 -288
t-175 -190.5t-267 -67.5zM587 200q115 0 178.5 84t63.5 233v16q0 153 -63.5 238.5t-178.5 85.5t-178.5 -85.5t-63.5 -238.5v-16q0 -149 63.5 -233t178.5 -84zM459 1274v13l197 359h306v-12l-269 -360h-234z" />
    <glyph glyph-name="uni1EDC" unicode="&#x1edc;" 
d="M597 -33q-166 0 -285.5 88t-183.5 251t-64 389v42q0 227 64.5 390t186 250.5t293.5 87.5q64 0 116 -9.5t95 -9.5q115 0 115 100q0 33 -7 64.5t-19 66.5l261 69q31 -82 31 -160q0 -118 -93 -188.5t-259 -70.5h-98l18 77q179 -66 271 -234t92 -433v-42q0 -226 -64 -389
t-183.5 -251t-286.5 -88zM597 222q129 0 197 120t68 348v64q0 229 -63 347t-191 118q-133 0 -204.5 -123t-71.5 -354v-52q0 -228 68.5 -348t196.5 -120zM477 1656l-268 360v12h306l196 -359v-13h-234z" />
    <glyph glyph-name="uni1EDD" unicode="&#x1edd;" 
d="M587 -33q-154 0 -267.5 68.5t-175 191.5t-61.5 286v24q0 164 61.5 287t175 191.5t267.5 68.5q64 0 112 -7t93 -7q120 0 120 106q0 57 -25 118l257 68q13 -37 20 -73.5t7 -74.5q0 -122 -92 -190t-258 -68h-93l32 76q159 -50 245 -180.5t86 -314.5v-24q0 -165 -62 -288
t-175 -190.5t-267 -67.5zM587 200q115 0 178.5 84t63.5 233v16q0 153 -63.5 238.5t-178.5 85.5t-178.5 -85.5t-63.5 -238.5v-16q0 -149 63.5 -233t178.5 -84zM501 1274l-268 360v12h306l196 -359v-13h-234z" />
    <glyph glyph-name="uni1EDE" unicode="&#x1ede;" 
d="M597 -33q-166 0 -285.5 88t-183.5 251t-64 389v42q0 227 64.5 390t186 250.5t293.5 87.5q64 0 116 -9.5t95 -9.5q115 0 115 100q0 33 -7 64.5t-19 66.5l261 69q31 -82 31 -160q0 -118 -93 -188.5t-259 -70.5h-98l18 77q179 -66 271 -234t92 -433v-42q0 -226 -64 -389
t-183.5 -251t-286.5 -88zM597 222q129 0 197 120t68 348v64q0 229 -63 347t-191 118q-133 0 -204.5 -123t-71.5 -354v-52q0 -228 68.5 -348t196.5 -120zM520 1580l-27 180q85 7 127 32.5t42 72.5q0 88 -122 88q-87 0 -179 -33l-53 178q55 24 116 37.5t120 13.5
q140 0 223.5 -74t83.5 -196q0 -127 -86 -204.5t-245 -94.5z" />
    <glyph glyph-name="uni1EDF" unicode="&#x1edf;" 
d="M587 -33q-154 0 -267.5 68.5t-175 191.5t-61.5 286v24q0 164 61.5 287t175 191.5t267.5 68.5q64 0 112 -7t93 -7q120 0 120 106q0 57 -25 118l257 68q13 -37 20 -73.5t7 -74.5q0 -122 -92 -190t-258 -68h-93l32 76q159 -50 245 -180.5t86 -314.5v-24q0 -165 -62 -288
t-175 -190.5t-267 -67.5zM587 200q115 0 178.5 84t63.5 233v16q0 153 -63.5 238.5t-178.5 85.5t-178.5 -85.5t-63.5 -238.5v-16q0 -149 63.5 -233t178.5 -84zM527 1192l-27 180q85 7 127 32.5t42 72.5q0 88 -122 88q-87 0 -179 -33l-53 178q55 24 116 37.5t120 13.5
q140 0 223.5 -74t83.5 -196q0 -127 -86 -204.5t-245 -94.5z" />
    <glyph glyph-name="uni1EE0" unicode="&#x1ee0;" 
d="M597 -33q-166 0 -285.5 88t-183.5 251t-64 389v42q0 227 64.5 390t186 250.5t293.5 87.5q64 0 116 -9.5t95 -9.5q115 0 115 100q0 33 -7 64.5t-19 66.5l261 69q31 -82 31 -160q0 -118 -93 -188.5t-259 -70.5h-98l18 77q179 -66 271 -234t92 -433v-42q0 -226 -64 -389
t-183.5 -251t-286.5 -88zM597 222q129 0 197 120t68 348v64q0 229 -63 347t-191 118q-133 0 -204.5 -123t-71.5 -354v-52q0 -228 68.5 -348t196.5 -120zM765 1696q-51 0 -97.5 23t-99.5 79q-39 40 -62 56t-46 16q-59 0 -59 -84v-86h-195v92q0 132 57 203.5t162 71.5
q50 0 93 -22t96 -79q38 -40 61.5 -56t47.5 -16q56 0 56 82v88h196v-92q0 -133 -53 -204.5t-157 -71.5z" />
    <glyph glyph-name="uni1EE1" unicode="&#x1ee1;" 
d="M587 -33q-154 0 -267.5 68.5t-175 191.5t-61.5 286v24q0 164 61.5 287t175 191.5t267.5 68.5q64 0 112 -7t93 -7q120 0 120 106q0 57 -25 118l257 68q13 -37 20 -73.5t7 -74.5q0 -122 -92 -190t-258 -68h-93l32 76q159 -50 245 -180.5t86 -314.5v-24q0 -165 -62 -288
t-175 -190.5t-267 -67.5zM587 200q115 0 178.5 84t63.5 233v16q0 153 -63.5 238.5t-178.5 85.5t-178.5 -85.5t-63.5 -238.5v-16q0 -149 63.5 -233t178.5 -84zM769 1312q-51 0 -97.5 23t-99.5 79q-39 40 -62 56t-46 16q-59 0 -59 -84v-86h-195v92q0 132 57 203.5t162 71.5
q50 0 93 -22t96 -79q38 -40 61.5 -56t47.5 -16q56 0 56 82v88h196v-92q0 -133 -53 -204.5t-157 -71.5z" />
    <glyph glyph-name="uni1EE2" unicode="&#x1ee2;" 
d="M597 -33q-166 0 -285.5 87.5t-183.5 250.5t-64 390v42q0 229 65 391.5t187 249.5t292 87q60 0 104.5 -7t94.5 -7q70 0 106.5 29.5t36.5 84.5q0 35 -13 68t-45 74l212 134q90 -119 90 -245t-94 -197.5t-252 -71.5h-93l19 84q178 -77 267.5 -244t89.5 -430v-42
q0 -227 -64 -390t-183.5 -250.5t-286.5 -87.5zM597 219q129 0 197 121t68 350v64q0 229 -63 347t-191 118q-133 0 -204.5 -123t-71.5 -354v-52q0 -229 68.5 -350t196.5 -121zM597 -563q-78 0 -131.5 53.5t-53.5 130.5t53 130.5t132 53.5t132 -53.5t53 -130.5t-52.5 -130.5
t-132.5 -53.5z" />
    <glyph glyph-name="uni1EE3" unicode="&#x1ee3;" 
d="M594 -33q-155 0 -268 68.5t-174.5 191.5t-61.5 286v24q0 164 61.5 287t174.5 191t268 68q66 0 113.5 -7t94.5 -7q131 0 131 109q0 35 -12 67t-39 74l220 117q75 -111 75 -226q0 -119 -90.5 -189t-244.5 -70h-96l22 83q159 -51 244.5 -180t85.5 -317v-24
q0 -165 -62.5 -288t-175.5 -190.5t-266 -67.5zM594 200q115 0 178.5 84t63.5 233v16q0 153 -63.5 238.5t-178.5 85.5q-114 0 -178 -85.5t-64 -238.5v-16q0 -149 64 -233t178 -84zM594 -562q-78 0 -131.5 53.5t-53.5 130.5t53 130.5t132 53.5t132 -53.5t53 -130.5
t-52.5 -130.5t-132.5 -53.5z" />
    <glyph glyph-name="uni1EE4" unicode="&#x1ee4;" 
d="M345.5 29q-109.5 62 -170 173t-60.5 258v972h268v-963q0 -115 58 -182.5t159 -67.5q102 0 159.5 67.5t57.5 182.5v963h268v-972q0 -147 -60.5 -258t-169.5 -173t-254.5 -62t-255 62zM600 -563q-78 0 -131.5 53.5t-53.5 130.5t53 130.5t132 53.5t132 -53.5t53 -130.5
t-52.5 -130.5t-132.5 -53.5z" />
    <glyph glyph-name="uni1EE5" unicode="&#x1ee5;" 
d="M472 -33q-149 0 -235.5 97.5t-86.5 267.5v718h262v-661q0 -97 44 -148.5t126 -51.5q87 0 141.5 68t54.5 181v612h261v-1050h-247v160h-9q-49 -86 -127 -139.5t-184 -53.5zM615 -563q-78 0 -131.5 53.5t-53.5 130.5t53 130.5t132 53.5t132 -53.5t53 -130.5t-52.5 -130.5
t-132.5 -53.5z" />
    <glyph glyph-name="uni1EE6" unicode="&#x1ee6;" 
d="M345.5 29q-109.5 62 -170 173t-60.5 258v972h268v-963q0 -115 58 -182.5t159 -67.5q102 0 159.5 67.5t57.5 182.5v963h268v-972q0 -147 -60.5 -258t-169.5 -173t-254.5 -62t-255 62zM575 1550l-27 180q85 7 127 32.5t42 72.5q0 88 -122 88q-87 0 -179 -33l-53 178
q55 24 116 37.5t120 13.5q140 0 223.5 -74t83.5 -196q0 -127 -86 -204.5t-245 -94.5z" />
    <glyph glyph-name="uni1EE7" unicode="&#x1ee7;" 
d="M472 -33q-149 0 -235.5 97.5t-86.5 267.5v718h262v-661q0 -97 44 -148.5t126 -51.5q87 0 141.5 68t54.5 181v612h261v-1050h-247v160h-9q-49 -86 -127 -139.5t-184 -53.5zM562 1168l-27 180q85 7 127 32.5t42 72.5q0 88 -122 88q-87 0 -179 -33l-53 178q55 24 116 37.5
t120 13.5q140 0 223.5 -74t83.5 -196q0 -127 -86 -204.5t-245 -94.5z" />
    <glyph glyph-name="uni1EE8" unicode="&#x1ee8;" 
d="M291.5 24.5q-102.5 57.5 -159 160.5t-56.5 239v1008h257v-995q0 -102 53 -161t146 -59t145.5 59t52.5 161v995h94q64 0 93 26.5t29 80.5q0 36 -7 75t-20 79l256 76q33 -92 33 -177q0 -139 -95 -210.5t-250 -71.5h-57l178 102v-988q0 -136 -57 -239t-159 -160.5
t-238 -57.5t-238.5 57.5zM406 1656v13l197 359h306v-12l-269 -360h-234z" />
    <glyph glyph-name="uni1EE9" unicode="&#x1ee9;" 
d="M441 -33q-139 0 -218.5 90t-79.5 245v748h252v-695q0 -82 40 -127t114 -45q83 0 133 62.5t50 168.5v636h98q103 0 103 90q0 31 -6 64.5t-16 66.5l257 64q21 -75 21 -147q0 -119 -91.5 -186t-233.5 -67h-64l184 111v-1046h-249v149h-9q-45 -81 -116.5 -131.5t-168.5 -50.5
zM416 1274v13l197 359h306v-12l-269 -360h-234z" />
    <glyph glyph-name="uni1EEA" unicode="&#x1eea;" 
d="M291.5 24.5q-102.5 57.5 -159 160.5t-56.5 239v1008h257v-995q0 -102 53 -161t146 -59t145.5 59t52.5 161v995h94q64 0 93 26.5t29 80.5q0 36 -7 75t-20 79l256 76q33 -92 33 -177q0 -139 -95 -210.5t-250 -71.5h-57l178 102v-988q0 -136 -57 -239t-159 -160.5
t-238 -57.5t-238.5 57.5zM438 1656l-268 360v12h306l196 -359v-13h-234z" />
    <glyph glyph-name="uni1EEB" unicode="&#x1eeb;" 
d="M441 -33q-139 0 -218.5 90t-79.5 245v748h252v-695q0 -82 40 -127t114 -45q83 0 133 62.5t50 168.5v636h98q103 0 103 90q0 31 -6 64.5t-16 66.5l257 64q21 -75 21 -147q0 -119 -91.5 -186t-233.5 -67h-64l184 111v-1046h-249v149h-9q-45 -81 -116.5 -131.5t-168.5 -50.5
zM483 1274l-268 360v12h306l196 -359v-13h-234z" />
    <glyph glyph-name="uni1EEC" unicode="&#x1eec;" 
d="M291.5 24.5q-102.5 57.5 -159 160.5t-56.5 239v1008h257v-995q0 -102 53 -161t146 -59t145.5 59t52.5 161v995h94q64 0 93 26.5t29 80.5q0 36 -7 75t-20 79l256 76q33 -92 33 -177q0 -139 -95 -210.5t-250 -71.5h-57l178 102v-988q0 -136 -57 -239t-159 -160.5
t-238 -57.5t-238.5 57.5zM466 1568l-27 180q85 7 127 32.5t42 72.5q0 88 -122 88q-87 0 -179 -33l-53 178q55 24 116 37.5t120 13.5q140 0 223.5 -74t83.5 -196q0 -127 -86 -204.5t-245 -94.5z" />
    <glyph glyph-name="uni1EED" unicode="&#x1eed;" 
d="M441 -33q-139 0 -218.5 90t-79.5 245v748h252v-695q0 -82 40 -127t114 -45q83 0 133 62.5t50 168.5v636h98q103 0 103 90q0 31 -6 64.5t-16 66.5l257 64q21 -75 21 -147q0 -119 -91.5 -186t-233.5 -67h-64l184 111v-1046h-249v149h-9q-45 -81 -116.5 -131.5t-168.5 -50.5
zM489 1186l-27 180q85 7 127 32.5t42 72.5q0 88 -122 88q-87 0 -179 -33l-53 178q55 24 116 37.5t120 13.5q140 0 223.5 -74t83.5 -196q0 -127 -86 -204.5t-245 -94.5z" />
    <glyph glyph-name="uni1EEE" unicode="&#x1eee;" 
d="M291.5 24.5q-102.5 57.5 -159 160.5t-56.5 239v1008h257v-995q0 -102 53 -161t146 -59t145.5 59t52.5 161v995h94q64 0 93 26.5t29 80.5q0 36 -7 75t-20 79l256 76q33 -92 33 -177q0 -139 -95 -210.5t-250 -71.5h-57l178 102v-988q0 -136 -57 -239t-159 -160.5
t-238 -57.5t-238.5 57.5zM686 1672q-51 0 -97.5 23t-99.5 79q-39 40 -62 56t-46 16q-59 0 -59 -84v-86h-195v92q0 132 57 203.5t162 71.5q50 0 93 -22t96 -79q38 -40 61.5 -56t47.5 -16q56 0 56 82v88h196v-92q0 -133 -53 -204.5t-157 -71.5z" />
    <glyph glyph-name="uni1EEF" unicode="&#x1eef;" 
d="M441 -33q-139 0 -218.5 90t-79.5 245v748h252v-695q0 -82 40 -127t114 -45q83 0 133 62.5t50 168.5v636h98q103 0 103 90q0 31 -6 64.5t-16 66.5l257 64q21 -75 21 -147q0 -119 -91.5 -186t-233.5 -67h-64l184 111v-1046h-249v149h-9q-45 -81 -116.5 -131.5t-168.5 -50.5
zM738 1302q-51 0 -97.5 23t-99.5 79q-39 40 -62 56t-46 16q-59 0 -59 -84v-86h-195v92q0 132 57 203.5t162 71.5q50 0 93 -22t96 -79q38 -40 61.5 -56t47.5 -16q56 0 56 82v88h196v-92q0 -133 -53 -204.5t-157 -71.5z" />
    <glyph glyph-name="uni1EF0" unicode="&#x1ef0;" 
d="M530 -33q-136 0 -238 57t-159 160t-57 240v1008h257v-995q0 -102 53 -161t146 -59q91 0 144.5 59t53.5 161v995h77q73 0 114 32t41 90q0 38 -14.5 73.5t-47.5 80.5l207 133q51 -67 75 -128.5t24 -129.5q0 -128 -95.5 -201.5t-249.5 -73.5h-53l176 104v-988
q0 -137 -56.5 -240t-158.5 -160t-239 -57zM532 -562q-78 0 -131.5 53.5t-53.5 130.5t53 130.5t132 53.5t132 -53.5t53 -130.5t-52.5 -130.5t-132.5 -53.5z" />
    <glyph glyph-name="uni1EF1" unicode="&#x1ef1;" 
d="M441 -33q-138 0 -218 89t-80 246v748h252v-695q0 -82 40 -127t114 -45q82 0 132 62.5t50 168.5v636h70q144 0 144 111q0 31 -11.5 59.5t-38.5 61.5l210 137q42 -53 63 -107t21 -115q0 -120 -91.5 -190.5t-247.5 -70.5h-54l188 110v-1046h-249v149h-9
q-48 -85 -120.5 -133.5t-164.5 -48.5zM563 -562q-78 0 -131.5 53.5t-53.5 130.5t53 130.5t132 53.5t132 -53.5t53 -130.5t-52.5 -130.5t-132.5 -53.5z" />
    <glyph glyph-name="Ygrave" unicode="&#x1ef2;" 
d="M491 467l-453 965h292l174 -393l97 -259h7l94 259l176 393h284l-452 -965h-219zM466 0v660h268v-660h-268zM487 1638l-268 360v12h306l196 -359v-13h-234z" />
    <glyph glyph-name="ygrave" unicode="&#x1ef3;" 
d="M323 -447q-168 0 -289 101l128 197q78 -64 153 -64q57 0 92.5 27.5t59.5 91.5l96 263h47l92 358l171 523h273l-447 -1193q-60 -161 -149 -232.5t-227 -71.5zM528 -90l-429 1140h275l178 -523l71 -263h70zM507 1256l-268 360v12h306l196 -359v-13h-234z" />
    <glyph glyph-name="uni1EF4" unicode="&#x1ef4;" 
d="M491 467l-453 965h292l174 -393l97 -259h7l94 259l176 393h284l-452 -965h-219zM466 0v660h268v-660h-268zM600 -529q-78 0 -131.5 53.5t-53.5 130.5t53 130.5t132 53.5t132 -53.5t53 -130.5t-52.5 -130.5t-132.5 -53.5z" />
    <glyph glyph-name="uni1EF5" unicode="&#x1ef5;" 
d="M323 -447q-168 0 -289 101l128 197q78 -64 153 -64q57 0 92.5 27.5t59.5 91.5l96 263h47l92 358l171 523h273l-447 -1193q-60 -161 -149 -232.5t-227 -71.5zM528 -90l-429 1140h275l178 -523l71 -263h70zM930 -529q-78 0 -131.5 53.5t-53.5 130.5t53 130.5t132 53.5
t132 -53.5t53 -130.5t-52.5 -130.5t-132.5 -53.5z" />
    <glyph glyph-name="uni1EF6" unicode="&#x1ef6;" 
d="M491 467l-453 965h292l174 -393l97 -259h7l94 259l176 393h284l-452 -965h-219zM466 0v660h268v-660h-268zM579 1550l-27 180q85 7 127 32.5t42 72.5q0 88 -122 88q-87 0 -179 -33l-53 178q55 24 116 37.5t120 13.5q140 0 223.5 -74t83.5 -196q0 -127 -86 -204.5
t-245 -94.5z" />
    <glyph glyph-name="uni1EF7" unicode="&#x1ef7;" 
d="M323 -447q-168 0 -289 101l128 197q78 -64 153 -64q57 0 92.5 27.5t59.5 91.5l96 263h47l92 358l171 523h273l-447 -1193q-60 -161 -149 -232.5t-227 -71.5zM528 -90l-429 1140h275l178 -523l71 -263h70zM579 1168l-27 180q85 7 127 32.5t42 72.5q0 88 -122 88
q-87 0 -179 -33l-53 178q55 24 116 37.5t120 13.5q140 0 223.5 -74t83.5 -196q0 -127 -86 -204.5t-245 -94.5z" />
    <glyph glyph-name="uni1EF8" unicode="&#x1ef8;" 
d="M491 467l-453 965h292l174 -393l97 -259h7l94 259l176 393h284l-452 -965h-219zM466 0v660h268v-660h-268zM779 1642q-51 0 -97.5 23t-99.5 79q-39 40 -62 56t-46 16q-59 0 -59 -84v-86h-195v92q0 132 57 203.5t162 71.5q50 0 93 -22t96 -79q38 -40 61.5 -56t47.5 -16
q56 0 56 82v88h196v-92q0 -133 -53 -204.5t-157 -71.5z" />
    <glyph glyph-name="uni1EF9" unicode="&#x1ef9;" 
d="M323 -447q-168 0 -289 101l128 197q78 -64 153 -64q57 0 92.5 27.5t59.5 91.5l96 263h47l92 358l171 523h273l-447 -1193q-60 -161 -149 -232.5t-227 -71.5zM528 -90l-429 1140h275l178 -523l71 -263h70zM799 1260q-51 0 -97.5 23t-99.5 79q-39 40 -62 56t-46 16
q-59 0 -59 -84v-86h-195v92q0 132 57 203.5t162 71.5q50 0 93 -22t96 -79q38 -40 61.5 -56t47.5 -16q56 0 56 82v88h196v-92q0 -133 -53 -204.5t-157 -71.5z" />
    <glyph glyph-name="endash" unicode="&#x2013;" 
d="M83 506v266h1034v-266h-1034z" />
    <glyph glyph-name="emdash" unicode="&#x2014;" 
d="M64 506v266h1072v-266h-1072z" />
    <glyph glyph-name="quoteleft" unicode="&#x2018;" 
d="M707 1493l150 -106l-264 -345l4 80q44 3 86.5 -17t69.5 -58.5t27 -95.5q0 -76 -51.5 -129t-135.5 -53q-90 0 -141.5 56t-51.5 142q0 60 23.5 114t70.5 119z" />
    <glyph glyph-name="quoteright" unicode="&#x2019;" 
d="M493 769l-150 106l264 345l-4 -80q-44 -2 -86.5 17.5t-69.5 58.5t-27 95q0 77 51.5 129.5t135.5 52.5q90 0 141.5 -56t51.5 -142q0 -60 -23 -114t-71 -119z" />
    <glyph glyph-name="quotesinglbase" unicode="&#x201a;" 
d="M493 -366l-150 106l264 345l-4 -80q-44 -2 -86.5 17.5t-69.5 58.5t-27 95q0 77 51.5 129.5t135.5 52.5q90 0 141.5 -56t51.5 -142q0 -60 -23 -114t-71 -119z" />
    <glyph glyph-name="quotedblleft" unicode="&#x201c;" 
d="M420 1493l150 -106l-264 -345l4 80q44 3 86.5 -17t69.5 -58.5t27 -95.5q0 -76 -51.5 -129t-135.5 -53q-90 0 -141.5 56t-51.5 142q0 60 23.5 114t70.5 119zM911 1493l150 -106l-264 -345l4 80q44 3 86.5 -17t69.5 -58.5t27 -95.5q0 -76 -51.5 -129t-135.5 -53
q-90 0 -141.5 56t-51.5 142q0 60 23.5 114t70.5 119z" />
    <glyph glyph-name="quotedblright" unicode="&#x201d;" 
d="M289 769l-150 106l264 345l-4 -80q-44 -2 -86.5 17.5t-69.5 58.5t-27 95q0 77 51.5 129.5t135.5 52.5q90 0 141.5 -56t51.5 -142q0 -60 -23 -114t-71 -119zM780 769l-150 106l264 345l-4 -80q-44 -2 -86.5 17.5t-69.5 58.5t-27 95q0 77 51.5 129.5t135.5 52.5
q90 0 141.5 -56t51.5 -142q0 -60 -23 -114t-71 -119z" />
    <glyph glyph-name="quotedblbase" unicode="&#x201e;" 
d="M289 -366l-150 106l264 345l-4 -80q-44 -2 -86.5 17.5t-69.5 58.5t-27 95q0 77 51.5 129.5t135.5 52.5q90 0 141.5 -56t51.5 -142q0 -60 -23 -114t-71 -119zM780 -366l-150 106l264 345l-4 -80q-44 -2 -86.5 17.5t-69.5 58.5t-27 95q0 77 51.5 129.5t135.5 52.5
q90 0 141.5 -56t51.5 -142q0 -60 -23 -114t-71 -119z" />
    <glyph glyph-name="bullet" unicode="&#x2022;" 
d="M560 395q-77 0 -138.5 36t-97.5 97.5t-36 138.5q0 78 36 139.5t97.5 97t138.5 35.5q78 0 139.5 -35.5t97 -97t35.5 -139.5q0 -77 -35.5 -138.5t-97 -97.5t-139.5 -36z" />
    <glyph glyph-name="ellipsis" unicode="&#x2026;" 
d="M199 -33q-55 0 -92.5 40.5t-37.5 101.5q0 59 37 98.5t93 39.5q57 0 94 -39.5t37 -98.5q0 -61 -37.5 -101.5t-93.5 -40.5zM1001 -33q-56 0 -93.5 40.5t-37.5 101.5q0 59 37.5 98.5t93.5 39.5t93 -39.5t37 -98.5q0 -61 -37 -101.5t-93 -40.5zM600 -33q-55 0 -93 40.5
t-38 101.5q0 59 38 98.5t93 39.5q56 0 93.5 -39.5t37.5 -98.5q0 -61 -37.5 -101.5t-93.5 -40.5z" />
    <glyph glyph-name="minute" unicode="&#x2032;" 
d="M306 841l85 619h301l-136 -619h-250z" />
    <glyph glyph-name="second" unicode="&#x2033;" 
d="M150 841l85 619h301l-136 -619h-250zM592 841l85 619h301l-136 -619h-250z" />
    <glyph glyph-name="guilsinglleft" unicode="&#x2039;" 
d="M789 13l-475 519l475 520l178 -156l-325 -364l325 -364z" />
    <glyph glyph-name="guilsinglright" unicode="&#x203a;" 
d="M411 13l-178 155l325 364l-325 364l178 156l475 -520z" />
    <glyph glyph-name="fraction" unicode="&#x2044;" 
d="M74 -33l889 1493h163l-889 -1493h-163z" />
    <glyph glyph-name="uni2074" unicode="&#x2074;" 
d="M608 690v315l26 37v412l31 -37h-44l-231 -315v-13h321l57 19h238v-214h-858v189l466 627h233v-1020h-239z" />
    <glyph glyph-name="dong" unicode="&#x20ab;" 
d="M471 226q-114 0 -205.5 54.5t-144.5 149.5t-53 216v8q0 120 51 215t141 149.5t203 54.5q104 0 176 -38.5t122 -113.5h9v613h235v-1308h-225v174h-9q-46 -82 -120.5 -128t-179.5 -46zM88 -152v234h997v-234h-997zM541 423q65 0 115 29t79.5 80t29.5 116v3q0 99 -63 162.5
t-161 63.5q-103 0 -163.5 -62t-60.5 -164v-3q0 -101 61 -163t163 -62zM386 1206v173h790v-173h-790z" />
    <glyph glyph-name="Euro" unicode="&#x20ac;" 
d="M718 -33q-164 0 -282 76.5t-182 216.5t-64 328v256q0 190 64 329.5t181.5 215.5t280.5 76q150 0 257 -64t181 -198l-188 -120q-45 83 -105.5 120.5t-149.5 37.5q-289 0 -289 -395v-260q0 -194 75 -294.5t220 -100.5q87 0 146.5 38t104.5 123l188 -120
q-75 -136 -181.5 -200.5t-256.5 -64.5zM10 467v169h878v-169h-878zM10 799v169h878v-169h-878z" />
    <glyph glyph-name="trademark" unicode="&#x2122;" 
d="M584 614v844h139l119 -341l38 -146h10l38 146l119 341h139v-844h-131v310l19 265h-10l-124 -384h-110l-124 384h-10l19 -265v-310h-131zM193 614v808h146v-808h-146zM14 1328v130h504v-130h-504z" />
    <glyph glyph-name="arrowleft" unicode="&#x2190;" 
d="M620 50l-538 587l538 588l160 -151l-413 -419v-36l413 -418zM679 517l-428 37v166l428 38h477v-241h-477z" />
    <glyph glyph-name="arrowup" unicode="&#x2191;" 
d="M187 593l-150 159l563 515l563 -515l-151 -159l-394 389h-36zM475 -15v685l42 428h166l42 -428v-685h-250z" />
    <glyph glyph-name="arrowright" unicode="&#x2192;" 
d="M618 50l-160 151l413 418v36l-413 419l160 151l538 -588zM82 517v241h477l428 -38v-166l-428 -37h-477z" />
    <glyph glyph-name="arrowdown" unicode="&#x2193;" 
d="M600 -15l-563 516l150 158l395 -389h36l394 389l151 -158zM517 154l-42 428v685h250v-685l-42 -428h-166z" />
    <glyph glyph-name="arrowdblright" unicode="&#x21d2;" 
d="M584 -14l-135 132l450 456v127l-450 456l135 131l602 -651zM30 354v187h904v-109l-423 -78h-481zM30 734v186h481l423 -77v-109h-904z" />
    <glyph glyph-name="minus" unicode="&#x2212;" 
d="M134 513v250h932v-250h-932z" />
    <glyph glyph-name="uni2215" unicode="&#x2215;" 
d="M29 -33l860 1493h282l-860 -1493h-282z" />
    <glyph glyph-name="uni2237" unicode="&#x2237;" 
d="M878 804q-75 0 -125 50.5t-50 126.5t50 126.5t125 50.5t125 -50.5t50 -126.5t-50 -126.5t-125 -50.5zM323 117q-75 0 -125.5 50.5t-50.5 126.5t50.5 127t125.5 51q74 0 124 -51t50 -127t-49.5 -126.5t-124.5 -50.5zM753 167.5q-50 50.5 -50 126.5t50 127t125 51t125 -51
t50 -127t-50 -126.5t-125 -50.5t-125 50.5zM197.5 855q-50.5 51 -50.5 126q0 76 50.5 126.5t125.5 50.5t124.5 -50.5t49.5 -126.5q0 -75 -50 -126t-124.5 -51t-125 51z" />
    <glyph glyph-name="lessequal" unicode="&#x2264;" 
d="M1078 292l-956 339v247l956 338v-254l-454 -148l-226 -56v-8l226 -56l454 -148v-254zM122 0v228h956v-228h-956z" />
    <glyph glyph-name="greaterequal" unicode="&#x2265;" 
d="M122 292v254l454 148l226 56v8l-226 56l-454 148v254l956 -338v-247zM1078 0h-956v228h956v-228z" />
    <glyph glyph-name="uni2318" unicode="&#x2318;" 
d="M279 142q-115 0 -185.5 69t-70.5 182q0 116 76 184.5t204 68.5h57v140h-57q-128 0 -204 69t-76 184q0 113 70.5 182t185.5 69q116 0 184 -74.5t68 -201.5v-63h138v63q0 127 70 201.5t188 74.5q113 0 181.5 -69t68.5 -182q0 -115 -76 -184t-205 -69h-56v-140h56
q129 0 205 -68.5t76 -184.5q0 -113 -68.5 -182t-182.5 -69q-117 0 -187 74.5t-70 200.5v64h-138v-64q0 -126 -68 -200.5t-184 -74.5zM279 312q43 0 65 29t22 86v60h-57q-56 0 -85.5 -23.5t-29.5 -67.5q0 -39 22.5 -61.5t62.5 -22.5zM309 945h57v59q0 59 -22.5 87.5
t-66.5 28.5q-38 0 -60.5 -23t-22.5 -62q0 -43 29.5 -66.5t85.5 -23.5zM528 643h144v146h-144v-146zM920 312q40 0 63 22.5t23 61.5q0 44 -29.5 67.5t-86.5 23.5h-56v-60q0 -57 21.5 -86t64.5 -29zM834 945h56q56 0 86 23.5t30 66.5q0 39 -22.5 62t-60.5 23
q-44 0 -66.5 -28.5t-22.5 -87.5v-59z" />
    <glyph glyph-name="uni2325" unicode="&#x2325;" 
d="M724 148l-497 1136h248l496 -1136h-247zM20 1044v240h400l32 -240h-432zM784 148l-46 240h442v-240h-396zM718 1044v240h462v-240h-462z" />
    <glyph glyph-name="uni2500" unicode="&#x2500;" 
d="M-130 514v260h1460v-260h-1460z" />
    <glyph glyph-name="uni2501" unicode="&#x2501;" 
d="M-130 410v468h1460v-468h-1460z" />
    <glyph glyph-name="uni2502" unicode="&#x2502;" 
d="M470 -656v2600h260v-2600h-260z" />
    <glyph glyph-name="uni2503" unicode="&#x2503;" 
d="M366 -656v2600h468v-2600h-468z" />
    <glyph glyph-name="uni2504" unicode="&#x2504;" 
d="M867 514v260h266v-260h-266zM67 514v260h266v-260h-266zM467 514v260h266v-260h-266z" />
    <glyph glyph-name="uni2505" unicode="&#x2505;" 
d="M867 410v468h266v-468h-266zM67 410v468h266v-468h-266zM467 410v468h266v-468h-266z" />
    <glyph glyph-name="uni2506" unicode="&#x2506;" 
d="M470 366v556h260v-556h-260zM470 -467v555h260v-555h-260zM470 1200v555h260v-555h-260z" />
    <glyph glyph-name="uni2507" unicode="&#x2507;" 
d="M366 366v556h468v-556h-468zM366 -467v555h468v-555h-468zM366 1200v555h468v-555h-468z" />
    <glyph glyph-name="uni2508" unicode="&#x2508;" 
d="M938 514v260h225v-260h-225zM38 514v260h225v-260h-225zM338 514v260h225v-260h-225zM638 514v260h225v-260h-225z" />
    <glyph glyph-name="uni2509" unicode="&#x2509;" 
d="M938 410v468h225v-468h-225zM38 410v468h225v-468h-225zM338 410v468h225v-468h-225zM638 410v468h225v-468h-225z" />
    <glyph glyph-name="uni250A" unicode="&#x250a;" 
d="M470 1347v469h260v-469h-260zM470 -528v469h260v-469h-260zM470 97v469h260v-469h-260zM470 722v469h260v-469h-260z" />
    <glyph glyph-name="uni250B" unicode="&#x250b;" 
d="M366 1347v469h468v-469h-468zM366 -528v469h468v-469h-468zM366 97v469h468v-469h-468zM366 722v469h468v-469h-468z" />
    <glyph glyph-name="uni250C" unicode="&#x250c;" 
d="M470 -656v1430h860v-260h-600v-1170h-260z" />
    <glyph glyph-name="uni250D" unicode="&#x250d;" 
d="M470 -656v1534h860v-468h-600v-1066h-260z" />
    <glyph glyph-name="uni250E" unicode="&#x250e;" 
d="M366 -656v1430h964v-260h-496v-1170h-468z" />
    <glyph glyph-name="uni250F" unicode="&#x250f;" 
d="M366 -656v1534h964v-468h-496v-1066h-468z" />
    <glyph glyph-name="uni2510" unicode="&#x2510;" 
d="M470 -656v1170h-600v260h860v-1430h-260z" />
    <glyph glyph-name="uni2511" unicode="&#x2511;" 
d="M470 -656v1066h-600v468h860v-1534h-260z" />
    <glyph glyph-name="uni2512" unicode="&#x2512;" 
d="M366 -656v1170h-496v260h964v-1430h-468z" />
    <glyph glyph-name="uni2513" unicode="&#x2513;" 
d="M366 -656v1066h-496v468h964v-1534h-468z" />
    <glyph glyph-name="uni2514" unicode="&#x2514;" 
d="M470 514v1430h260v-1170h600v-260h-860z" />
    <glyph glyph-name="uni2515" unicode="&#x2515;" 
d="M470 410v1534h260v-1066h600v-468h-860z" />
    <glyph glyph-name="uni2516" unicode="&#x2516;" 
d="M366 514v1430h468v-1170h496v-260h-964z" />
    <glyph glyph-name="uni2517" unicode="&#x2517;" 
d="M366 410v1534h468v-1066h496v-468h-964z" />
    <glyph glyph-name="uni2518" unicode="&#x2518;" 
d="M-130 514v260h600v1170h260v-1430h-860z" />
    <glyph glyph-name="uni2519" unicode="&#x2519;" 
d="M-130 410v468h600v1066h260v-1534h-860z" />
    <glyph glyph-name="uni251A" unicode="&#x251a;" 
d="M-130 514v260h496v1170h468v-1430h-964z" />
    <glyph glyph-name="uni251B" unicode="&#x251b;" 
d="M-130 410v468h496v1066h468v-1534h-964z" />
    <glyph glyph-name="uni251C" unicode="&#x251c;" 
d="M470 -656v2600h260v-1170h600v-260h-600v-1170h-260z" />
    <glyph glyph-name="uni251D" unicode="&#x251d;" 
d="M470 -656v2600h260v-1066h600v-468h-600v-1066h-260z" />
    <glyph glyph-name="uni251E" unicode="&#x251e;" 
d="M470 -656v1170h-104v1430h468v-1170h496v-260h-600v-1170h-260z" />
    <glyph glyph-name="uni251F" unicode="&#x251f;" 
d="M366 -656v1430h104v1170h260v-1170h600v-260h-496v-1170h-468z" />
    <glyph glyph-name="uni2520" unicode="&#x2520;" 
d="M366 -656v2600h468v-1170h496v-260h-496v-1170h-468z" />
    <glyph glyph-name="uni2521" unicode="&#x2521;" 
d="M470 -656v1066h-104v1534h468v-1066h496v-468h-600v-1066h-260z" />
    <glyph glyph-name="uni2522" unicode="&#x2522;" 
d="M366 -656v1534h104v1066h260v-1066h600v-468h-496v-1066h-468z" />
    <glyph glyph-name="uni2523" unicode="&#x2523;" 
d="M366 -656v2600h468v-1066h496v-468h-496v-1066h-468z" />
    <glyph glyph-name="uni2524" unicode="&#x2524;" 
d="M470 -656v1170h-600v260h600v1170h260v-2600h-260z" />
    <glyph glyph-name="uni2525" unicode="&#x2525;" 
d="M470 -656v1066h-600v468h600v1066h260v-2600h-260z" />
    <glyph glyph-name="uni2526" unicode="&#x2526;" 
d="M470 -656v1170h-600v260h496v1170h468v-1430h-104v-1170h-260z" />
    <glyph glyph-name="uni2527" unicode="&#x2527;" 
d="M366 -656v1170h-496v260h600v1170h260v-1170h104v-1430h-468z" />
    <glyph glyph-name="uni2528" unicode="&#x2528;" 
d="M366 -656v1170h-496v260h496v1170h468v-2600h-468z" />
    <glyph glyph-name="uni2529" unicode="&#x2529;" 
d="M470 -656v1066h-600v468h496v1066h468v-1534h-104v-1066h-260z" />
    <glyph glyph-name="uni252A" unicode="&#x252a;" 
d="M366 -656v1066h-496v468h600v1066h260v-1066h104v-1534h-468z" />
    <glyph glyph-name="uni252B" unicode="&#x252b;" 
d="M366 -656v1066h-496v468h496v1066h468v-2600h-468z" />
    <glyph glyph-name="uni252C" unicode="&#x252c;" 
d="M470 -656v1170h-600v260h1460v-260h-600v-1170h-260z" />
    <glyph glyph-name="uni252D" unicode="&#x252d;" 
d="M470 -656v1066h-600v468h860v-104h600v-260h-600v-1170h-260z" />
    <glyph glyph-name="uni252E" unicode="&#x252e;" 
d="M470 -656v1170h-600v260h600v104h860v-468h-600v-1066h-260z" />
    <glyph glyph-name="uni252F" unicode="&#x252f;" 
d="M470 -656v1066h-600v468h1460v-468h-600v-1066h-260z" />
    <glyph glyph-name="uni2530" unicode="&#x2530;" 
d="M366 -656v1170h-496v260h1460v-260h-496v-1170h-468z" />
    <glyph glyph-name="uni2531" unicode="&#x2531;" 
d="M366 -656v1066h-496v468h964v-104h496v-260h-496v-1170h-468z" />
    <glyph glyph-name="uni2532" unicode="&#x2532;" 
d="M366 -656v1170h-496v260h496v104h964v-468h-496v-1066h-468z" />
    <glyph glyph-name="uni2533" unicode="&#x2533;" 
d="M366 -656v1066h-496v468h1460v-468h-496v-1066h-468z" />
    <glyph glyph-name="uni2534" unicode="&#x2534;" 
d="M-130 514v260h600v1170h260v-1170h600v-260h-1460z" />
    <glyph glyph-name="uni2535" unicode="&#x2535;" 
d="M-130 410v468h600v1066h260v-1170h600v-260h-600v-104h-860z" />
    <glyph glyph-name="uni2536" unicode="&#x2536;" 
d="M470 410v104h-600v260h600v1170h260v-1066h600v-468h-860z" />
    <glyph glyph-name="uni2537" unicode="&#x2537;" 
d="M-130 410v468h600v1066h260v-1066h600v-468h-1460z" />
    <glyph glyph-name="uni2538" unicode="&#x2538;" 
d="M-130 514v260h496v1170h468v-1170h496v-260h-1460z" />
    <glyph glyph-name="uni2539" unicode="&#x2539;" 
d="M-130 410v468h496v1066h468v-1170h496v-260h-496v-104h-964z" />
    <glyph glyph-name="uni253A" unicode="&#x253a;" 
d="M366 410v104h-496v260h496v1170h468v-1066h496v-468h-964z" />
    <glyph glyph-name="uni253B" unicode="&#x253b;" 
d="M-130 410v468h496v1066h468v-1066h496v-468h-1460z" />
    <glyph glyph-name="uni253C" unicode="&#x253c;" 
d="M470 -656v1170h-600v260h600v1170h260v-1170h600v-260h-600v-1170h-260z" />
    <glyph glyph-name="uni253D" unicode="&#x253d;" 
d="M470 -656v1066h-600v468h600v1066h260v-1170h600v-260h-600v-1170h-260z" />
    <glyph glyph-name="uni253E" unicode="&#x253e;" 
d="M470 -656v1170h-600v260h600v1170h260v-1066h600v-468h-600v-1066h-260z" />
    <glyph glyph-name="uni253F" unicode="&#x253f;" 
d="M470 -656v1066h-600v468h600v1066h260v-1066h600v-468h-600v-1066h-260z" />
    <glyph glyph-name="uni2540" unicode="&#x2540;" 
d="M470 -656v1170h-600v260h496v1170h468v-1170h496v-260h-600v-1170h-260z" />
    <glyph glyph-name="uni2541" unicode="&#x2541;" 
d="M366 -656v1170h-496v260h600v1170h260v-1170h600v-260h-496v-1170h-468z" />
    <glyph glyph-name="uni2542" unicode="&#x2542;" 
d="M366 -656v1170h-496v260h496v1170h468v-1170h496v-260h-496v-1170h-468z" />
    <glyph glyph-name="uni2543" unicode="&#x2543;" 
d="M470 -656v1066h-600v468h496v1066h468v-1170h496v-260h-496v-104h-104v-1066h-260z" />
    <glyph glyph-name="uni2544" unicode="&#x2544;" 
d="M470 -656v1066h-104v104h-496v260h496v1170h468v-1066h496v-468h-600v-1066h-260z" />
    <glyph glyph-name="uni2545" unicode="&#x2545;" 
d="M366 -656v1066h-496v468h600v1066h260v-1066h104v-104h496v-260h-496v-1170h-468z" />
    <glyph glyph-name="uni2546" unicode="&#x2546;" 
d="M366 -656v1170h-496v260h496v104h104v1066h260v-1066h600v-468h-496v-1066h-468z" />
    <glyph glyph-name="uni2547" unicode="&#x2547;" 
d="M470 -656v1066h-600v468h496v1066h468v-1066h496v-468h-600v-1066h-260z" />
    <glyph glyph-name="uni2548" unicode="&#x2548;" 
d="M366 -656v1066h-496v468h600v1066h260v-1066h600v-468h-496v-1066h-468z" />
    <glyph glyph-name="uni2549" unicode="&#x2549;" 
d="M366 -656v1066h-496v468h496v1066h468v-1170h496v-260h-496v-1170h-468z" />
    <glyph glyph-name="uni254A" unicode="&#x254a;" 
d="M366 -656v1170h-496v260h496v1170h468v-1066h496v-468h-496v-1066h-468z" />
    <glyph glyph-name="uni254B" unicode="&#x254b;" 
d="M366 -656v1066h-496v468h496v1066h468v-1066h496v-468h-496v-1066h-468z" />
    <glyph glyph-name="uni254C" unicode="&#x254c;" 
d="M750 514v260h300v-260h-300zM150 514v260h300v-260h-300z" />
    <glyph glyph-name="uni254D" unicode="&#x254d;" 
d="M750 410v468h300v-468h-300zM150 410v468h300v-468h-300z" />
    <glyph glyph-name="uni254E" unicode="&#x254e;" 
d="M470 957v625h260v-625h-260zM470 -293v625h260v-625h-260z" />
    <glyph glyph-name="uni254F" unicode="&#x254f;" 
d="M366 957v625h468v-625h-468zM366 -293v625h468v-625h-468z" />
    <glyph glyph-name="uni2550" unicode="&#x2550;" 
d="M-130 774v260h1460v-260h-1460zM-130 254v260h1460v-260h-1460z" />
    <glyph glyph-name="uni2551" unicode="&#x2551;" 
d="M730 -656v2600h260v-2600h-260zM210 -656v2600h260v-2600h-260z" />
    <glyph glyph-name="uni2552" unicode="&#x2552;" 
d="M470 -656v1690h860v-260h-600v-260h600v-260h-600v-910h-260z" />
    <glyph glyph-name="uni2553" unicode="&#x2553;" 
d="M210 -656v1430h1120v-260h-340v-1170h-260v1170h-260v-1170h-260z" />
    <glyph glyph-name="uni2554" unicode="&#x2554;" 
d="M210 -656v1690h1120v-260h-860v-1430h-260zM730 -656v1170h600v-260h-340v-910h-260z" />
    <glyph glyph-name="uni2555" unicode="&#x2555;" 
d="M470 -656v910h-600v260h600v260h-600v260h860v-1690h-260z" />
    <glyph glyph-name="uni2556" unicode="&#x2556;" 
d="M210 -656v1170h-340v260h1120v-1430h-260v1170h-260v-1170h-260z" />
    <glyph glyph-name="uni2557" unicode="&#x2557;" 
d="M730 -656v1430h-860v260h1120v-1690h-260zM210 -656v910h-340v260h600v-1170h-260z" />
    <glyph glyph-name="uni2558" unicode="&#x2558;" 
d="M470 254v1690h260v-910h600v-260h-600v-260h600v-260h-860z" />
    <glyph glyph-name="uni2559" unicode="&#x2559;" 
d="M210 514v1430h260v-1170h260v1170h260v-1170h340v-260h-1120z" />
    <glyph glyph-name="uni255A" unicode="&#x255a;" 
d="M210 254v1690h260v-1430h860v-260h-1120zM730 774v1170h260v-910h340v-260h-600z" />
    <glyph glyph-name="uni255B" unicode="&#x255b;" 
d="M-130 254v260h600v260h-600v260h600v910h260v-1690h-860z" />
    <glyph glyph-name="uni255C" unicode="&#x255c;" 
d="M-130 514v260h340v1170h260v-1170h260v1170h260v-1430h-1120z" />
    <glyph glyph-name="uni255D" unicode="&#x255d;" 
d="M-130 254v260h860v1430h260v-1690h-1120zM-130 774v260h340v910h260v-1170h-600z" />
    <glyph glyph-name="uni255E" unicode="&#x255e;" 
d="M470 -656v2600h260v-910h600v-260h-600v-260h600v-260h-600v-910h-260z" />
    <glyph glyph-name="uni255F" unicode="&#x255f;" 
d="M730 -656v2600h260v-1170h340v-260h-340v-1170h-260zM210 -656v2600h260v-2600h-260z" />
    <glyph glyph-name="uni2560" unicode="&#x2560;" 
d="M730 774v1170h260v-910h340v-260h-600zM730 -656v1170h600v-260h-340v-910h-260zM210 -656v2600h260v-2600h-260z" />
    <glyph glyph-name="uni2561" unicode="&#x2561;" 
d="M470 -656v910h-600v260h600v260h-600v260h600v910h260v-2600h-260z" />
    <glyph glyph-name="uni2562" unicode="&#x2562;" 
d="M210 -656v1170h-340v260h340v1170h260v-2600h-260zM730 -656v2600h260v-2600h-260z" />
    <glyph glyph-name="uni2563" unicode="&#x2563;" 
d="M-130 774v260h340v910h260v-1170h-600zM210 -656v910h-340v260h600v-1170h-260zM730 -656v2600h260v-2600h-260z" />
    <glyph glyph-name="uni2564" unicode="&#x2564;" 
d="M470 -656v910h-600v260h1460v-260h-600v-910h-260zM-130 774v260h1460v-260h-1460z" />
    <glyph glyph-name="uni2565" unicode="&#x2565;" 
d="M210 -656v1170h-340v260h1460v-260h-340v-1170h-260v1170h-260v-1170h-260z" />
    <glyph glyph-name="uni2566" unicode="&#x2566;" 
d="M730 -656v1170h600v-260h-340v-910h-260zM210 -656v910h-340v260h600v-1170h-260zM-130 774v260h1460v-260h-1460z" />
    <glyph glyph-name="uni2567" unicode="&#x2567;" 
d="M-130 774v260h600v910h260v-910h600v-260h-1460zM-130 254v260h1460v-260h-1460z" />
    <glyph glyph-name="uni2568" unicode="&#x2568;" 
d="M-130 514v260h340v1170h260v-1170h260v1170h260v-1170h340v-260h-1460z" />
    <glyph glyph-name="uni2569" unicode="&#x2569;" 
d="M730 774v1170h260v-910h340v-260h-600zM-130 254v260h1460v-260h-1460zM-130 774v260h340v910h260v-1170h-600z" />
    <glyph glyph-name="uni256A" unicode="&#x256a;" 
d="M470 -656v910h-600v260h600v260h-600v260h600v910h260v-910h600v-260h-600v-260h600v-260h-600v-910h-260z" />
    <glyph glyph-name="uni256B" unicode="&#x256b;" 
d="M210 -656v1170h-340v260h340v1170h260v-1170h260v1170h260v-1170h340v-260h-340v-1170h-260v1170h-260v-1170h-260z" />
    <glyph glyph-name="uni256C" unicode="&#x256c;" 
d="M730 774v1170h260v-910h340v-260h-600zM210 -656v910h-340v260h600v-1170h-260zM730 -656v1170h600v-260h-340v-910h-260zM-130 774v260h340v910h260v-1170h-600z" />
    <glyph glyph-name="uni256D" unicode="&#x256d;" 
d="M470 -656v830q0 186 72.5 320.5t207 207t320.5 72.5h260v-260h-260q-161 0 -250.5 -89.5t-89.5 -250.5v-830h-260z" />
    <glyph glyph-name="uni256E" unicode="&#x256e;" 
d="M470 -656v830q0 161 -89.5 250.5t-250.5 89.5h-260v260h260q186 0 320.5 -72.5t207 -207t72.5 -320.5v-830h-260z" />
    <glyph glyph-name="uni256F" unicode="&#x256f;" 
d="M-130 514v260h260q161 0 250.5 89.5t89.5 250.5v830h260v-830q0 -186 -72.5 -320.5t-207 -207t-320.5 -72.5h-260z" />
    <glyph glyph-name="uni2570" unicode="&#x2570;" 
d="M1070 514q-186 0 -320.5 72.5t-207 207t-72.5 320.5v830h260v-830q0 -161 89.5 -250.5t250.5 -89.5h260v-260h-260z" />
    <glyph glyph-name="uni2571" unicode="&#x2571;" 
d="M0 -606v301l1056 2199h144v-301l-1056 -2199h-144z" />
    <glyph glyph-name="uni2572" unicode="&#x2572;" 
d="M1056 -606l-1056 2199v301h144l1056 -2199v-301h-144z" />
    <glyph glyph-name="uni2573" unicode="&#x2573;" 
d="M0 -606v301l456 949l-456 949v301h144l456 -949l456 949h144v-301l-456 -949l456 -949v-301h-144l-456 949l-456 -949h-144z" />
    <glyph glyph-name="uni2574" unicode="&#x2574;" 
d="M-130 514v260h860v-260h-860z" />
    <glyph glyph-name="uni2575" unicode="&#x2575;" 
d="M470 514v1430h260v-1430h-260z" />
    <glyph glyph-name="uni2576" unicode="&#x2576;" 
d="M470 514v260h860v-260h-860z" />
    <glyph glyph-name="uni2577" unicode="&#x2577;" 
d="M470 -656v1430h260v-1430h-260z" />
    <glyph glyph-name="uni2578" unicode="&#x2578;" 
d="M-130 410v468h860v-468h-860z" />
    <glyph glyph-name="uni2579" unicode="&#x2579;" 
d="M366 514v1430h468v-1430h-468z" />
    <glyph glyph-name="uni257A" unicode="&#x257a;" 
d="M470 410v468h860v-468h-860z" />
    <glyph glyph-name="uni257B" unicode="&#x257b;" 
d="M366 -656v1430h468v-1430h-468z" />
    <glyph glyph-name="uni257C" unicode="&#x257c;" 
d="M470 410v104h-600v260h600v104h860v-468h-860z" />
    <glyph glyph-name="uni257D" unicode="&#x257d;" 
d="M366 -656v1430h104v1170h260v-1170h104v-1430h-468z" />
    <glyph glyph-name="uni257E" unicode="&#x257e;" 
d="M-130 410v468h860v-104h600v-260h-600v-104h-860z" />
    <glyph glyph-name="uni257F" unicode="&#x257f;" 
d="M470 -656v1170h-104v1430h468v-1430h-104v-1170h-260z" />
    <glyph glyph-name="upblock" unicode="&#x2580;" 
d="M0 644v1300h1200v-1300h-1200z" />
    <glyph glyph-name="uni2581" unicode="&#x2581;" 
d="M0 -656v325h1200v-325h-1200z" />
    <glyph glyph-name="uni2582" unicode="&#x2582;" 
d="M0 -656v650h1200v-650h-1200z" />
    <glyph glyph-name="uni2583" unicode="&#x2583;" 
d="M0 -656v975h1200v-975h-1200z" />
    <glyph glyph-name="dnblock" unicode="&#x2584;" 
d="M0 -656v1300h1200v-1300h-1200z" />
    <glyph glyph-name="uni2585" unicode="&#x2585;" 
d="M0 -656v1625h1200v-1625h-1200z" />
    <glyph glyph-name="uni2586" unicode="&#x2586;" 
d="M0 -656v1950h1200v-1950h-1200z" />
    <glyph glyph-name="uni2587" unicode="&#x2587;" 
d="M0 -656v2275h1200v-2275h-1200z" />
    <glyph glyph-name="block" unicode="&#x2588;" 
d="M0 -656v2600h1200v-2600h-1200z" />
    <glyph glyph-name="uni2589" unicode="&#x2589;" 
d="M0 -656v2600h1050v-2600h-1050z" />
    <glyph glyph-name="uni258A" unicode="&#x258a;" 
d="M0 -656v2600h900v-2600h-900z" />
    <glyph glyph-name="uni258B" unicode="&#x258b;" 
d="M0 -656v2600h750v-2600h-750z" />
    <glyph glyph-name="lfblock" unicode="&#x258c;" 
d="M0 -656v2600h600v-2600h-600z" />
    <glyph glyph-name="uni258D" unicode="&#x258d;" 
d="M0 -656v2600h450v-2600h-450z" />
    <glyph glyph-name="uni258E" unicode="&#x258e;" 
d="M0 -656v2600h300v-2600h-300z" />
    <glyph glyph-name="uni258F" unicode="&#x258f;" 
d="M0 -656v2600h150v-2600h-150z" />
    <glyph glyph-name="rtblock" unicode="&#x2590;" 
d="M600 -656v2600h600v-2600h-600z" />
    <glyph glyph-name="ltshade" unicode="&#x2591;" 
d="M1050 1717v106h106v-106h-106zM44 -608v106h106v-106h-106zM44 -251v106h106v-106h-106zM247 -429v106h106v-106h-106zM447 -608v106h106v-106h-106zM44 108v106h106v-106h-106zM247 -71v106h106v-106h-106zM447 -251v106h106v-106h-106zM648 -429v106h106v-106h-106z
M848 -608v106h106v-106h-106zM44 465v106h106v-106h-106zM247 286v106h106v-106h-106zM447 108v106h106v-106h-106zM648 -71v106h106v-106h-106zM848 -250v106h106v-106h-106zM1050 -429v106h106v-106h-106zM44 823v106h106v-106h-106zM247 644v106h106v-106h-106zM447 465
v106h106v-106h-106zM648 286v106h106v-106h-106zM848 108v106h106v-106h-106zM1050 -72v106h106v-106h-106zM44 1181v106h106v-106h-106zM247 1002v106h106v-106h-106zM447 823v106h106v-106h-106zM648 644v106h106v-106h-106zM848 465v106h106v-106h-106zM1050 286v106h106
v-106h-106zM44 1538v106h106v-106h-106zM247 1359v106h106v-106h-106zM447 1181v106h106v-106h-106zM648 1002v106h106v-106h-106zM848 823v106h106v-106h-106zM1050 644v106h106v-106h-106zM247 1717v106h106v-106h-106zM447 1538v106h106v-106h-106zM648 1359v106h106
v-106h-106zM848 1180v106h106v-106h-106zM1050 1002v106h106v-106h-106zM648 1717v106h106v-106h-106zM848 1538v106h106v-106h-106zM1050 1359v106h106v-106h-106z" />
    <glyph glyph-name="shade" unicode="&#x2592;" 
d="M8 1180v186h187v-186h-187zM8 823v186h187v-186h-187zM8 465v186h187v-186h-187zM8 108v186h187v-186h-187zM8 -251v188h187v-188h-187zM208 1710v186h188v-186h-188zM208 1359v187h188v-187h-188zM208 1002v186h188v-186h-188zM208 644v187h188v-187h-188zM208 286v187
h188v-187h-188zM208 -71v186h188v-186h-188zM208 -429v186h188v-186h-188zM407 1538v186h186v-186h-186zM407 1181v186h186v-186h-186zM407 823v186h186v-186h-186zM407 465v186h186v-186h-186zM407 107v187h186v-187h-186zM407 -250v186h186v-186h-186zM607 1710v186h186
v-186h-186zM607 1354v186h187v-186h-187zM607 997v187h187v-187h-187zM607 641v186h187v-186h-187zM607 285v186h187v-186h-187zM607 -73v187h187v-187h-187zM607 -429v186h187v-186h-187zM805 1538v186h187v-186h-187zM805 1181v186h187v-186h-187zM805 823v186h187v-186
h-187zM805 465v186h187v-186h-187zM805 107v187h187v-187h-187zM805 -250v186h187v-186h-187zM1006 1710v186h186v-186h-186zM1006 1354v186h186v-186h-186zM1006 997v187h186v-187h-186zM1006 641v186h186v-186h-186zM1006 285v186h186v-186h-186zM1006 -73v187h186v-187
h-186zM1006 -429v186h186v-186h-186zM8 -608v187h187v-187h-187zM407 -608v187h186v-187h-186zM805 -608v187h187v-187h-187zM8 1538v186h187v-186h-187z" />
    <glyph glyph-name="dkshade" unicode="&#x2593;" 
d="M-6 -608v2504h1212v-2504h-1212zM46 -608h106v106h-106v-106zM46 -250h106v106h-106v-106zM249 -429h106v106h-106v-106zM446 -608h106v106h-106v-106zM46 107h106v106h-106v-106zM249 -71h106v106h-106v-106zM446 -250h106v106h-106v-106zM649 -429h106v106h-106v-106z
M845 -608h106v106h-106v-106zM46 465h106v106h-106v-106zM249 286h106v106h-106v-106zM446 107h106v106h-106v-106zM649 -71h106v106h-106v-106zM845 -250h106v106h-106v-106zM1048 -429h106v106h-106v-106zM46 823h106v106h-106v-106zM249 644h106v106h-106v-106zM446 465
h106v106h-106v-106zM649 286h106v106h-106v-106zM845 107h106v106h-106v-106zM1048 -71h106v106h-106v-106zM46 1181h106v106h-106v-106zM249 1002h106v106h-106v-106zM446 823h106v106h-106v-106zM649 644h106v106h-106v-106zM845 465h106v106h-106v-106zM1048 286h106v106
h-106v-106zM46 1538h106v106h-106v-106zM249 1359h106v106h-106v-106zM446 1181h106v106h-106v-106zM649 1002h106v106h-106v-106zM845 823h106v106h-106v-106zM1048 644h106v106h-106v-106zM249 1717h106v106h-106v-106zM446 1538h106v106h-106v-106zM649 1359h106v106
h-106v-106zM845 1181h106v106h-106v-106zM1048 1002h106v106h-106v-106zM649 1717h106v106h-106v-106zM845 1538h106v106h-106v-106zM1048 1359h106v106h-106v-106zM1048 1717h106v106h-106v-106z" />
    <glyph glyph-name="uni2594" unicode="&#x2594;" 
d="M0 1619v325h1200v-325h-1200z" />
    <glyph glyph-name="uni2595" unicode="&#x2595;" 
d="M1050 -656v2600h150v-2600h-150z" />
    <glyph glyph-name="uni2596" unicode="&#x2596;" 
d="M0 -656v1300h600v-1300h-600z" />
    <glyph glyph-name="uni2597" unicode="&#x2597;" 
d="M600 -656v1300h600v-1300h-600z" />
    <glyph glyph-name="uni2598" unicode="&#x2598;" 
d="M0 644v1300h600v-1300h-600z" />
    <glyph glyph-name="uni2599" unicode="&#x2599;" 
d="M0 -656v2600h600v-1300h600v-1300h-1200z" />
    <glyph glyph-name="uni259A" unicode="&#x259a;" 
d="M0 644v1300h600v-1300h-600zM600 -656v1300h600v-1300h-600z" />
    <glyph glyph-name="uni259B" unicode="&#x259b;" 
d="M0 -656v2600h1200v-1300h-600v-1300h-600z" />
    <glyph glyph-name="uni259C" unicode="&#x259c;" 
d="M600 -656v1300h-600v1300h1200v-2600h-600z" />
    <glyph glyph-name="uni259D" unicode="&#x259d;" 
d="M600 644v1300h600v-1300h-600z" />
    <glyph glyph-name="uni259E" unicode="&#x259e;" 
d="M600 644v1300h600v-1300h-600zM0 -656v1300h600v-1300h-600z" />
    <glyph glyph-name="uni259F" unicode="&#x259f;" 
d="M0 -656v1300h600v1300h600v-2600h-1200z" />
    <glyph glyph-name="filledbox" unicode="&#x25a0;" 
d="M118 234v964h964v-964h-964z" />
    <glyph glyph-name="uni25A1" unicode="&#x25a1;" 
d="M84 200v1032h1032v-1032h-1032zM244 356h712v720h-712v-720z" />
    <glyph glyph-name="uni25AA" unicode="&#x25aa;" 
d="M325 308v551h551v-551h-551z" />
    <glyph glyph-name="uni25AB" unicode="&#x25ab;" 
d="M260 244v680h680v-680h-680zM394 376h411v415h-411v-415z" />
    <glyph glyph-name="filledrect" unicode="&#x25ac;" 
d="M54 382v298h1092v-298h-1092z" />
    <glyph glyph-name="triagup" unicode="&#x25b2;" 
d="M90 190l510 1100l510 -1100h-1020z" />
    <glyph glyph-name="triagrt" unicode="&#x25ba;" 
d="M70 206v1020l1100 -510z" />
    <glyph glyph-name="triagdn" unicode="&#x25bc;" 
d="M600 166l-510 1100h1020z" />
    <glyph glyph-name="triaglf" unicode="&#x25c4;" 
d="M1130 206l-1100 510l1100 510v-1020z" />
    <glyph glyph-name="uni25C6" unicode="&#x25c6;" 
d="M600 188l-528 528l528 528l528 -528z" />
    <glyph glyph-name="uni25C9" unicode="&#x25c9;" 
d="M600 148q-162 0 -291 74t-203 203t-74 291q0 163 74 291.5t203 202.5t291 74q163 0 291.5 -74t202.5 -202t74 -292q0 -162 -74 -291t-202 -203t-292 -74zM814.5 349q94.5 55 149 151t54.5 216.5t-54.5 216t-149 150.5t-214.5 55t-214.5 -55t-149 -150.5t-54.5 -216
t54.5 -216.5t149 -151t214.5 -55t214.5 55zM454 461.5q-64 37.5 -101 104t-37 150.5t37 150.5t101 104t146 37.5t146 -37.5t101 -104t37 -150.5t-37 -150.5t-101 -104t-146 -37.5t-146 37.5z" />
    <glyph glyph-name="lozenge" unicode="&#x25ca;" 
d="M501 -33l-417 749l417 749h199l416 -749l-416 -749h-199zM600 233l306 561v-156l-306 562l-305 -562v156z" />
    <glyph glyph-name="circle" unicode="&#x25cb;" 
d="M309.5 222.5q-128.5 74.5 -203 203t-74.5 291t74.5 290.5t203 202.5t290.5 74.5q163 0 291.5 -74t202.5 -202.5t74 -291.5q0 -162 -74.5 -291t-202.5 -203t-290.5 -74t-291 74.5zM808.5 360.5q91.5 52.5 144 145t52.5 211t-52.5 211t-144 145t-208.5 52.5t-208.5 -52.5
t-143.5 -145t-52 -211t52 -211t143.5 -145t208.5 -52.5t208.5 52.5z" />
    <glyph glyph-name="uni25CC" unicode="&#x25cc;" 
d="M979 459q-21 21 -21 51t21 51t51 21t51 -21t21 -51t-21 -51t-51 -21t-51 21zM228 223q-30 0 -51 21t-21 51t21 51t51 21q29 0 50 -21t21 -51t-21 -51t-50 -21zM334 87q-21 21 -21 51q0 29 21 50t51 21t51 -21t21 -50q0 -30 -21 -51t-51 -21t-51 21zM119 459
q-21 21 -21 51t21 51t51 21t51 -21t21 -51t-21 -51t-51 -21t-51 21zM549 29q-21 21 -21 51t21 51t51 21t51 -21t21 -51t-21 -51t-51 -21t-51 21zM228 653q-30 0 -51 21t-21 51t21 51t51 21q29 0 50 -21t21 -51t-21 -51t-50 -21zM764 87q-21 21 -21 51q0 29 21 50t51 21
t51 -21t21 -50q0 -30 -21 -51t-51 -21t-51 21zM334 832q-21 21 -21 50q0 30 21 51t51 21t51 -21t21 -51q0 -29 -21 -50t-51 -21t-51 21zM972 223q-29 0 -50 21t-21 51t21 51t50 21q30 0 51 -21t21 -51t-21 -51t-51 -21zM549 889q-21 21 -21 51t21 51t51 21t51 -21t21 -51
t-21 -51t-51 -21t-51 21zM972 653q-29 0 -50 21t-21 51t21 51t50 21q30 0 51 -21t21 -51t-21 -51t-51 -21zM764 832q-21 21 -21 50q0 30 21 51t51 21t51 -21t21 -51q0 -29 -21 -50t-51 -21t-51 21z" />
    <glyph glyph-name="uni25CF" unicode="&#x25cf;" 
d="M344 276.5q-114 66.5 -180 181.5t-66 258.5t66 258t180 181t256.5 66.5t256 -66.5t179.5 -181t66 -258t-66 -258.5t-179.5 -181.5t-256 -66.5t-256.5 66.5z" />
    <glyph glyph-name="invcircle" unicode="&#x25d9;" 
d="M32 148v1136h1136v-1136h-1136zM600 171q155 0 278 72t195 195.5t72 277.5q0 155 -72 278.5t-195 195t-278 71.5q-154 0 -277.5 -72t-195.5 -195t-72 -277.5t72 -278t195.5 -195.5t277.5 -72zM401 374.5q-88 51.5 -139 140.5t-51 201.5t51 201t139 140t199 51.5
t199 -51.5t139 -140.5t51 -201t-51 -201t-139 -140.5t-199 -51.5t-199 51.5z" />
    <glyph glyph-name="uniFFFD" unicode="&#xfffd;" 
d="M600 138l-590 578l590 578l590 -578zM659.5 350q25.5 26 25.5 63t-25.5 62t-63.5 25q-37 0 -63 -25t-26 -62t26 -63t63.5 -26t63 26zM531 564h118v57l69 41q64 38 91.5 81.5t27.5 101.5q0 86 -59 139.5t-158 53.5q-97 0 -165.5 -48t-97.5 -134l112 -38q36 110 147 110
q103 0 103 -82v-6q0 -59 -85 -109l-103 -61v-106z" />
    <glyph glyph-name="g.ss01" 
d="M610 -457q-125 0 -230 42.5t-174 121.5l162 171q97 -113 238 -113q107 0 165 65t58 184v195h-8q-41 -89 -118 -137.5t-176 -48.5q-127 0 -222 65.5t-148.5 183t-53.5 272.5v18q0 157 52 274t145.5 182.5t216.5 65.5q103 0 178.5 -48t120.5 -142h8v156h247v-1028
q0 -148 -56 -255t-159 -165.5t-246 -58.5zM591 244q104 0 165.5 82.5t61.5 220.5v12q0 139 -61.5 221.5t-164.5 82.5q-107 0 -166.5 -80.5t-59.5 -223.5v-12q0 -142 59.5 -222.5t165.5 -80.5z" />
    <glyph glyph-name="Eng.loclNSM" 
d="M704 -459q-101 0 -191 33t-164 95l148 205q91 -81 194 -81q79 0 121 46.5t42 136.5v150l27 -126l-551 1009h-7l21 -330v-679h-261v1432h266l520 -970h7l-21 330v640h262v-1448q0 -134 -51.5 -233t-145 -154.5t-216.5 -55.5z" />
    <glyph glyph-name="IJacute" 
d="M614 -33q-185 0 -310.5 95.5t-178.5 271.5l259 80q57 -188 224 -188q96 0 146.5 62.5t50.5 179.5v964h270v-971q0 -149 -57 -260t-160.5 -172.5t-243.5 -61.5zM125 605v827h270v-827h-270zM109 1638v13l197 359h306v-12l-269 -360h-234zM791 1638v13l197 359h306v-12
l-269 -360h-234z" />
    <glyph glyph-name="ijacute" 
d="M697 -447q-193 0 -357 118l127 198q57 -41 109.5 -61.5t109.5 -20.5q88 0 134.5 52t46.5 151v1060h260v-1052q0 -207 -115.5 -326t-314.5 -119zM29 0v199h681v-199h-681zM244 77v973h258v-973h-258zM41 852v198h430v-198h-430zM643 852v198h418v-198h-418zM206 1256v13
l198 359h306v-12l-269 -360h-235zM832 1256v13l197 359h306v-12l-269 -360h-234z" />
    <glyph glyph-name="uni03020300" horiz-adv-x="0" 
d="M-435 1164v12l325 348h220l326 -348v-12h-268l-187 233h39l-187 -233h-268zM348 1465l-254 389v13h240l199 -390v-12h-185z" />
    <glyph glyph-name="uni03020301" horiz-adv-x="0" 
d="M-435 1164v12l325 348h220l326 -348v-12h-268l-187 233h39l-187 -233h-268zM222 1469v12l156 390h234v-12l-221 -390h-169z" />
    <glyph glyph-name="uni03020303" horiz-adv-x="0" 
d="M-435 1164v12l325 348h220l326 -348v-12h-268l-187 233h39l-187 -233h-268zM192 1618q-52 0 -95.5 18t-91.5 55q-52 40 -81 55t-58 15q-66 0 -66 -86v-55h-190v72q0 119 56 184.5t153 65.5q52 0 94 -18t89 -56q52 -39 81 -54t56 -15q62 0 62 85v56h190v-72
q0 -121 -52 -185.5t-147 -64.5z" />
    <glyph glyph-name="uni03020309" horiz-adv-x="0" 
d="M-435 1164v12l325 348h220l326 -348v-12h-268l-187 233h39l-187 -233h-268zM296 1420l-21 158q128 10 128 87q0 79 -113 79q-72 0 -142 -22l-40 160q85 32 188 32q123 0 197 -64.5t74 -172.5q0 -109 -71 -176.5t-200 -80.5z" />
    <glyph glyph-name="uni03060300" horiz-adv-x="0" 
d="M-202 1205q-87 47 -135.5 130.5t-48.5 191.5v9h188v-12q0 -89 52 -143t146 -54q95 0 147 54t52 143v12h188v-9q0 -108 -49 -191.5t-136 -130.5t-202 -47t-202 47zM-34 1515l-250 379v13h254l152 -379v-13h-156z" />
    <glyph glyph-name="uni03060301" horiz-adv-x="0" 
d="M-202 1205q-87 47 -135.5 130.5t-48.5 191.5v9h188v-12q0 -89 52 -143t146 -54q95 0 147 54t52 143v12h188v-9q0 -108 -49 -191.5t-136 -130.5t-202 -47t-202 47zM-112 1515v13l130 379h260v-13l-240 -379h-150z" />
    <glyph glyph-name="uni03060303" horiz-adv-x="0" 
d="M0 1158q-111 0 -194.5 45t-129.5 125.5t-46 185.5v9h191v-12q0 -85 48 -135t131.5 -50t131.5 50t48 135v12h191v-9q0 -105 -46 -185.5t-129.5 -125.5t-195.5 -45zM200 1625q-54 0 -99.5 19.5t-95.5 57.5q-55 43 -84.5 59t-60.5 16t-49.5 -19.5t-18.5 -55.5v-73h-190v94
q0 112 56 173.5t153 61.5q54 0 98.5 -20t92.5 -58q56 -43 86 -58.5t59 -15.5q62 0 62 73v75h190v-94q0 -113 -52 -174t-147 -61z" />
    <glyph glyph-name="uni03060309" horiz-adv-x="0" 
d="M0 1158q-115 0 -205 47.5t-141.5 131.5t-51.5 192v10h185v-13q0 -91 54.5 -146.5t158.5 -55.5q105 0 159.5 55.5t54.5 146.5v13h184v-10q0 -108 -51 -192t-141 -131.5t-206 -47.5zM-69 1470l-17 150q134 9 134 87t-120 78q-71 0 -143 -22l-44 159q93 31 193 31
q126 0 200.5 -62.5t74.5 -169.5q0 -105 -74 -172t-204 -79z" />
    <glyph glyph-name="Ohorn.alt" 
d="M597 -33q-166 0 -285.5 88t-183.5 251t-64 389v42q0 227 64.5 390t186 250.5t293.5 87.5q64 0 116 -9.5t95 -9.5q115 0 115 100q0 33 -7 64.5t-19 66.5l261 69q31 -82 31 -160q0 -118 -93 -188.5t-259 -70.5h-98l18 77q179 -66 271 -234t92 -433v-42q0 -226 -64 -389
t-183.5 -251t-286.5 -88zM597 222q129 0 197 120t68 348v64q0 229 -63 347t-191 118q-133 0 -204.5 -123t-71.5 -354v-52q0 -228 68.5 -348t196.5 -120z" />
    <glyph glyph-name="Uhorn.alt" 
d="M291.5 24.5q-102.5 57.5 -159 160.5t-56.5 239v1008h257v-995q0 -102 53 -161t146 -59t145.5 59t52.5 161v995h94q64 0 93 26.5t29 80.5q0 36 -7 75t-20 79l256 76q33 -92 33 -177q0 -139 -95 -210.5t-250 -71.5h-57l178 102v-988q0 -136 -57 -239t-159 -160.5
t-238 -57.5t-238.5 57.5z" />
    <glyph glyph-name="ohorn.alt" 
d="M587 -33q-154 0 -267.5 68.5t-175 191.5t-61.5 286v24q0 164 61.5 287t175 191.5t267.5 68.5q64 0 112 -7t93 -7q120 0 120 106q0 57 -25 118l257 68q13 -37 20 -73.5t7 -74.5q0 -122 -92 -190t-258 -68h-93l32 76q159 -50 245 -180.5t86 -314.5v-24q0 -165 -62 -288
t-175 -190.5t-267 -67.5zM587 200q115 0 178.5 84t63.5 233v16q0 153 -63.5 238.5t-178.5 85.5t-178.5 -85.5t-63.5 -238.5v-16q0 -149 63.5 -233t178.5 -84z" />
    <glyph glyph-name="uhorn.alt" 
d="M441 -33q-139 0 -218.5 90t-79.5 245v748h252v-695q0 -82 40 -127t114 -45q83 0 133 62.5t50 168.5v636h98q103 0 103 90q0 31 -6 64.5t-16 66.5l257 64q21 -75 21 -147q0 -119 -91.5 -186t-233.5 -67h-64l184 111v-1046h-249v149h-9q-45 -81 -116.5 -131.5t-168.5 -50.5
z" />
  </font>
</defs>
</svg>
