<?xml version="1.0" standalone="no"?>
<!DOCTYPE svg PUBLIC "-//W3C//DTD SVG 1.1//EN" "http://www.w3.org/Graphics/SVG/1.1/DTD/svg11.dtd" >
<svg xmlns="http://www.w3.org/2000/svg" xmlns:xlink="http://www.w3.org/1999/xlink" version="1.1">
<metadata>
Created by FontForge 20201107 at Thu Aug 21 16:28:35 2025
 By www-data
Copyright 2025 The Google Sans Code Project Authors (github.com/googlefonts/googlesans-code)
</metadata>
<defs>
<font id="GoogleSansCode-ExtraBold" horiz-adv-x="1200" >
  <font-face 
    font-family="Google Sans Code ExtraBold"
    font-weight="800"
    font-stretch="normal"
    units-per-em="2000"
    panose-1="2 11 5 9 3 5 2 4 2 4"
    ascent="1600"
    descent="-400"
    x-height="1054"
    cap-height="1432"
    bbox="-496 -926 1387 2377"
    underline-thickness="168"
    underline-position="-404"
    unicode-range="U+000D-FFFD"
  />
<missing-glyph 
d="M174 0v1432h852v-1432h-852zM302 120h596v1192h-596v-1192z" />
    <glyph glyph-name=".notdef" 
d="M174 0v1432h852v-1432h-852zM302 120h596v1192h-596v-1192z" />
    <glyph glyph-name=".null" horiz-adv-x="0" 
 />
    <glyph glyph-name="nonmarkingreturn" horiz-adv-x="666" 
 />
    <glyph glyph-name="NULL" 
 />
    <glyph glyph-name="NULL" 
 />
    <glyph glyph-name="CR" unicode="&#xd;" 
 />
    <glyph glyph-name="space" unicode=" " 
 />
    <glyph glyph-name="exclam" unicode="!" 
d="M434 625l-46 869h424l-46 -869h-332zM444 29q-64 64 -64 156t64 155.5t156 63.5q93 0 156.5 -63.5t63.5 -155.5t-64 -156t-156 -64t-156 64z" />
    <glyph glyph-name="quotedbl" unicode="&#x22;" 
d="M171 897v563h366v-563h-366zM663 897v563h366v-563h-366z" />
    <glyph glyph-name="numbersign" unicode="#" 
d="M595 -17l201 1467h255l-201 -1467h-255zM150 -17l200 1467h255l-200 -1467h-255zM16 330v258h1096v-258h-1096zM89 845v258h1095v-258h-1095z" />
    <glyph glyph-name="dollar" unicode="$" 
d="M618 0q-215 0 -363.5 104t-195.5 299l334 106q26 -106 93.5 -160t155.5 -54q71 0 111 32.5t40 89.5v6q0 47 -32 78.5t-99 55.5l-193 69q-184 66 -270.5 163.5t-86.5 230.5v9q0 123 63.5 213.5t180 140t275.5 49.5q188 0 312 -86.5t168 -242.5l-338 -103q-19 67 -63.5 103
t-117.5 36q-60 0 -95 -28t-35 -75v-1q0 -40 32.5 -66.5t106.5 -53.5l192 -70q178 -64 263 -162.5t85 -248.5v-10q0 -126 -65.5 -221.5t-183 -149t-274.5 -53.5zM484 -236v324v31v37h292v-37v-31v-324h-292zM484 1302v47v34v285h292v-285v-34v-47h-292z" />
    <glyph glyph-name="percent" unicode="%" 
d="M157 222l-154 200l1039 789l155 -199zM847 -35q-100 0 -173 42t-113 115.5t-40 165.5v8q0 93 40 165.5t113 114.5t173 42q99 0 172 -42t112.5 -114.5t39.5 -165.5v-8q0 -92 -39.5 -165.5t-112.5 -115.5t-172 -42zM847 164q50 0 79.5 34.5t29.5 91.5v4q0 57 -29.5 91
t-79.5 34q-51 0 -81 -34t-30 -91v-4q0 -57 30 -91.5t81 -34.5zM355 814q-100 0 -173 42t-113 115.5t-40 165.5v8q0 93 40 165.5t113 114.5t173 42q99 0 172 -42t112.5 -114.5t39.5 -165.5v-8q0 -92 -39.5 -165.5t-112.5 -115.5t-172 -42zM355 1013q50 0 79.5 34.5t29.5 91.5
v4q0 57 -29.5 91t-79.5 34q-51 0 -81 -34t-30 -91v-4q0 -57 30 -91.5t81 -34.5z" />
    <glyph glyph-name="ampersand" unicode="&#x26;" 
d="M970 -61l-653 734q-73 83 -118 151t-66 130t-21 128v2q0 115 55 201t153.5 134t229.5 48q173 0 289.5 -94.5t162.5 -273.5l-301 -82q-17 70 -50 103t-86 33q-52 0 -82.5 -29t-30.5 -77v-5q0 -34 21 -73t65 -88l662 -726zM501 -35q-138 0 -247.5 55t-172.5 152t-63 223v18
q0 161 91 270t254 167l121 -193q-65 -26 -96.5 -72t-31.5 -117v-15q0 -89 48.5 -138.5t136.5 -49.5q89 0 148 55.5t93.5 187.5t49.5 362l317 -41q-38 -272 -131 -465.5t-226 -296t-291 -102.5z" />
    <glyph glyph-name="quotesingle" unicode="'" 
d="M417 897v563h366v-563h-366z" />
    <glyph glyph-name="parenleft" unicode="(" 
d="M887 1687l188 -246q-220 -163 -324.5 -352t-104.5 -425t104.5 -424.5t324.5 -352.5l-188 -246q-204 150 -333 307t-190 333t-61 383t61 383t190 333.5t333 306.5z" />
    <glyph glyph-name="parenright" unicode=")" 
d="M313 -353l-188 246q220 164 324.5 352.5t104.5 424.5t-104.5 425t-324.5 352l188 246q205 -149 333.5 -306.5t189.5 -333.5t61 -383t-61 -383t-189.5 -333t-333.5 -307z" />
    <glyph glyph-name="asterisk" unicode="*" 
d="M179 397l-127 220l510 246l459 288l127 -220l-510 -246zM1021 397l-459 288l-510 246l127 220l459 -288l510 -246zM476 205v1138h248v-1138h-248z" />
    <glyph glyph-name="plus" unicode="+" 
d="M429 147v996h342v-996h-342zM94 485v320h1012v-320h-1012z" />
    <glyph glyph-name="comma" unicode="," 
d="M493 -384l-186 134l292 371l-8 -106q-43 -4 -90 16.5t-79 64t-32 108.5q0 89 58 149.5t155 60.5q108 0 164.5 -67.5t56.5 -158.5q0 -70 -25.5 -130.5t-84.5 -140.5z" />
    <glyph glyph-name="hyphen" unicode="-" 
d="M114 475v340h972v-340h-972z" />
    <glyph glyph-name="period" unicode="." 
d="M600 -30q-91 0 -155.5 63t-64.5 155q0 91 64 154.5t156 63.5q94 0 157 -63.5t63 -154.5q0 -92 -63 -155t-157 -63z" />
    <glyph glyph-name="slash" unicode="/" 
d="M102 -176l663 1636h333l-663 -1636h-333z" />
    <glyph glyph-name="zero" unicode="0" 
d="M226 367l-112 248l860 450l112 -248zM601 -35q-250 0 -391.5 189.5t-141.5 541.5v40q0 353 141.5 542t391.5 189q251 0 391 -189t140 -542v-40q0 -352 -140 -541.5t-391 -189.5zM589 275q113 0 163 100t50 304v76q0 205 -46 303.5t-145 98.5q-112 0 -162.5 -99.5
t-50.5 -302.5v-76q0 -205 46 -304.5t145 -99.5z" />
    <glyph glyph-name="one" unicode="1" 
d="M509 120v904l-279 -136l-145 292l523 252h243v-1312h-342zM137 0v316h1038v-316h-1038z" />
    <glyph glyph-name="two" unicode="2" 
d="M100 0v265l481 524q68 74 92 119t24 97v6q0 53 -29.5 83.5t-81.5 30.5q-112 0 -160 -140l-334 119q58 170 198 266.5t330 96.5q134 0 234.5 -49.5t156.5 -139t56 -209.5v-8q0 -75 -22.5 -141.5t-76.5 -142t-151 -178.5l-250 -265v-10h529v-324h-996z" />
    <glyph glyph-name="three" unicode="3" 
d="M650 -35q-233 0 -383.5 105t-206.5 304l310 106q29 -94 91 -141.5t159 -47.5q74 0 117 33.5t43 97.5v18q0 59 -42.5 92.5t-134.5 33.5h-199v318h164q81 0 124.5 31.5t43.5 91.5v16q0 53 -37.5 85.5t-109.5 32.5q-67 0 -114.5 -34.5t-64.5 -93.5l-318 105
q47 162 188 255.5t339 93.5q141 0 246.5 -47t164 -131.5t58.5 -195.5v-10q0 -122 -68.5 -213t-193.5 -129v-8q152 -30 229 -125.5t77 -224.5v-10q0 -121 -60.5 -213t-169 -143.5t-252.5 -51.5z" />
    <glyph glyph-name="four" unicode="4" 
d="M629 0v442l22 52v551l31 -46h-40l-281 -419v-9h415l79 18h299v-302h-1118v275l583 870h348v-1432h-338z" />
    <glyph glyph-name="five" unicode="5" 
d="M592 -35q-131 0 -240 48.5t-185.5 137.5t-108.5 210l308 115q23 -87 83 -136t144 -49q89 0 138 48.5t49 130.5v17q0 80 -47 129.5t-138 49.5q-59 0 -108.5 -24t-86.5 -65l-292 91l96 764h837v-310h-595l-42 -296l9 -4q66 63 142 93.5t167 30.5q123 0 215 -58.5
t143.5 -163t51.5 -243.5v-7q0 -151 -68 -266t-189.5 -179t-282.5 -64z" />
    <glyph glyph-name="six" unicode="6" 
d="M598 -32q-155 0 -274 66.5t-186.5 184t-67.5 268.5v6q0 96 25 188.5t81.5 195.5t151.5 227l298 391l284 -206l-213 -242q-34 -39 -69 -69.5t-78 -59.5l4 -8q79 34 177 34q124 0 213.5 -58.5t137.5 -161t48 -236.5v-7q0 -150 -68 -266t-187.5 -181.5t-276.5 -65.5z
M600 294q88 0 134 51t46 134v17q0 83 -46 133.5t-134 50.5t-134 -50.5t-46 -133.5v-17q0 -83 46 -134t134 -51z" />
    <glyph glyph-name="seven" unicode="7" 
d="M521 -35l-315 147l488 985v9h-598v326h1008v-270z" />
    <glyph glyph-name="eight" unicode="8" 
d="M330 18q-117 53 -182.5 148t-65.5 220v3q0 122 67 222t181 145v9q-94 45 -149.5 129.5t-55.5 181.5v2q0 117 59.5 204.5t166.5 136t249.5 48.5t249 -48.5t166 -136t59.5 -204.5v-2q0 -97 -55.5 -180.5t-149.5 -130.5v-9q113 -45 180.5 -145.5t67.5 -221.5v-3
q0 -125 -65.5 -220t-182 -148t-270 -53t-270.5 53zM600 269q80 0 127 46t47 124v14q0 78 -47 124t-127 46t-127 -46t-47 -124v-14q0 -78 47 -124t127 -46zM703 922.5q38 36.5 38 98.5v12q0 62 -38 99t-103 37q-64 0 -102.5 -37t-38.5 -99v-12q0 -61 38.5 -98t103 -37
t102.5 36.5z" />
    <glyph glyph-name="nine" unicode="9" 
d="M602 1464q155 0 274 -66.5t186.5 -183.5t67.5 -269v-6q0 -95 -25 -188t-81.5 -195.5t-151.5 -227.5l-298 -391l-284 206l213 242q35 39 69.5 70t77.5 59l-4 8q-79 -34 -177 -34q-124 0 -213.5 58.5t-137.5 161.5t-48 236v7q0 151 68 266.5t188 181t276 65.5zM600 1138
q-88 0 -134 -51t-46 -134v-17q0 -82 46 -133t134 -51t134 50.5t46 133.5v17q0 83 -46 134t-134 51z" />
    <glyph glyph-name="colon" unicode=":" 
d="M600 653q-91 0 -155.5 63t-64.5 155q0 91 64 154.5t156 63.5q94 0 157 -63.5t63 -154.5q0 -92 -63 -155t-157 -63zM600 -30q-91 0 -155.5 63t-64.5 155q0 91 64 154.5t156 63.5q94 0 157 -63.5t63 -154.5q0 -92 -63 -155t-157 -63z" />
    <glyph glyph-name="semicolon" unicode=";" 
d="M605 647q-91 0 -155.5 63t-64.5 155q0 91 64 154.5t156 63.5q94 0 157 -63.5t63 -154.5q0 -92 -63 -155t-157 -63zM493 -384l-186 134l292 371l-8 -106q-43 -4 -90 16.5t-79 64t-32 108.5q0 89 58 149.5t155 60.5q108 0 164.5 -67.5t56.5 -158.5q0 -70 -25.5 -130.5
t-84.5 -140.5z" />
    <glyph glyph-name="less" unicode="&#x3c;" 
d="M1080 9l-990 509v253l990 510v-348l-596 -284v-8l596 -284v-348z" />
    <glyph glyph-name="equal" unicode="=" 
d="M104 738v308h992v-308h-992zM104 244v308h992v-308h-992z" />
    <glyph glyph-name="greater" unicode="&#x3e;" 
d="M120 9v348l596 284v8l-596 284v348l990 -510v-253z" />
    <glyph glyph-name="question" unicode="?" 
d="M402 467v270l191 104q93 50 130 90t37 91v11q0 50 -37 79t-99 29q-76 0 -136 -43.5t-86 -120.5l-326 105q61 180 208.5 282.5t344.5 102.5q143 0 251.5 -53.5t169 -148.5t60.5 -220v-2q0 -117 -55.5 -207t-175.5 -159l-125 -72v-138h-352zM578 -35q-87 0 -149 63t-62 150
q0 86 61.5 145.5t149.5 59.5q89 0 150 -59.5t61 -145.5q0 -87 -62 -150t-149 -63z" />
    <glyph glyph-name="at" unicode="@" 
d="M706 -233q-322 0 -495 231t-173 661v58q0 436 156 664t453 228q234 0 361.5 -140.5t127.5 -398.5v-853h-240v131h-9q-41 -75 -88 -108.5t-112 -33.5q-89 0 -156 55t-104 154.5t-37 231.5v26q0 134 38 233.5t106.5 154.5t160.5 55q65 0 110 -32.5t82 -106.5h9v88
q0 148 -60.5 221.5t-182.5 73.5q-179 0 -266 -157t-87 -481v-68q0 -318 100.5 -477.5t299.5 -159.5q147 0 279 99l131 -222q-170 -127 -404 -127zM759 441q63 0 96.5 52.5t33.5 149.5v36q0 96 -34 149t-96 53q-63 0 -99.5 -54t-36.5 -148v-36q0 -95 36 -148.5t100 -53.5z
" />
    <glyph glyph-name="A" unicode="A" 
d="M2 0l445 1432h310l441 -1432h-356l-193 826l-50 228h-7l-44 -228l-197 -826h-349zM209 245l84 266h594l91 -266h-769z" />
    <glyph glyph-name="B" unicode="B" 
d="M116 0v1432h550q203 0 310 -100t107 -250v-18q0 -112 -56 -191.5t-161 -120.5v-10q134 -36 204 -128.5t70 -220.5v-21q0 -113 -55.5 -197t-158 -129.5t-245.5 -45.5h-565zM456 278h177q81 0 123 41.5t42 116.5v16q0 75 -45 116.5t-126 41.5h-238v234h199q76 0 114.5 39.5
t38.5 109.5v12q0 71 -39.5 110t-113.5 39h-132v-876z" />
    <glyph glyph-name="C" unicode="C" 
d="M658 -35q-177 0 -309.5 91t-206.5 255t-74 382v46q0 221 71.5 384.5t202 253.5t305.5 90q192 0 318.5 -106.5t168.5 -303.5l-321 -91q-19 86 -59.5 126.5t-110.5 40.5q-107 0 -166 -102t-59 -287v-56q0 -182 63 -285.5t173 -103.5q139 0 177 177l321 -91
q-43 -198 -173 -309t-321 -111z" />
    <glyph glyph-name="D" unicode="D" 
d="M108 0v1432h431q179 0 311.5 -85.5t205 -241t72.5 -366.5v-46q0 -211 -72.5 -366.5t-205 -241t-311.5 -85.5h-431zM452 330h84q122 0 182 89.5t60 268.5v56q0 179 -61 268.5t-181 89.5h-84v-772z" />
    <glyph glyph-name="E" unicode="E" 
d="M130 0v1432h916v-322h-572v-788h588v-322h-932zM346 570v318h620v-318h-620z" />
    <glyph glyph-name="F" unicode="F" 
d="M130 0v1432h932v-326h-584v-1106h-348zM346 510v320h656v-320h-656z" />
    <glyph glyph-name="G" unicode="G" 
d="M650 -35q-184 0 -317.5 89t-206 253t-72.5 389v39q0 224 72 388.5t204 254t312 89.5q191 0 317.5 -98.5t175.5 -286.5l-313 -101q-21 85 -63 122.5t-116 37.5q-117 0 -177.5 -102t-60.5 -299v-49q0 -199 63 -302.5t184 -103.5q94 0 146.5 62t52.5 169v41h-260v271h579
v-234q0 -303 -134.5 -466t-385.5 -163z" />
    <glyph glyph-name="H" unicode="H" 
d="M745 0v1432h348v-1432h-348zM107 0v1432h348v-1432h-348zM329 566v326h557v-326h-557z" />
    <glyph glyph-name="I" unicode="I" 
d="M425 155v1122h350v-1122h-350zM130 0v326h940v-326h-940zM130 1106v326h940v-326h-940z" />
    <glyph glyph-name="J" unicode="J" 
d="M600 -35q-192 0 -326 107.5t-178 294.5l321 91q36 -159 165 -159q67 0 103.5 46.5t36.5 131.5v955h350v-963q0 -149 -59.5 -263t-165.5 -177.5t-247 -63.5z" />
    <glyph glyph-name="K" unicode="K" 
d="M786 0l-377 719v9l361 704h390l-416 -765v132l436 -799h-394zM70 0v1432h348v-1432h-348z" />
    <glyph glyph-name="L" unicode="L" 
d="M148 0v1432h348v-1104h624v-328h-972z" />
    <glyph glyph-name="M" unicode="M" 
d="M42 0v1432h346l119 -378l85 -306h16l85 306l119 378h346v-1432h-324v400l34 465h-16l-137 -441h-230l-137 441h-16l34 -465v-400h-324z" />
    <glyph glyph-name="N" unicode="N" 
d="M58 0v1432h344l415 -836h9l-20 328v508h336v-1432h-320l-439 879h-9l20 -328v-551h-336z" />
    <glyph glyph-name="O" unicode="O" 
d="M305 52q-123 87 -189 250t-66 391v46q0 228 66 391t189 250t295 87t295 -87t189 -250t66 -391v-46q0 -228 -66 -391t-189 -250t-295 -87t-295 87zM749.5 397q50.5 98 50.5 291v56q0 193 -50.5 291t-149.5 98t-149.5 -98t-50.5 -291v-56q0 -193 50.5 -291t149.5 -98
t149.5 98z" />
    <glyph glyph-name="P" unicode="P" 
d="M110 0v1432h468q168 0 287.5 -59t183 -168.5t63.5 -263.5v-20q0 -153 -63.5 -263t-183 -169t-287.5 -59h-267v314h265q88 0 139 46.5t51 125.5v30q0 80 -51 126t-139 46h-122v-1118h-344z" />
    <glyph glyph-name="Q" unicode="Q" 
d="M600 25q-168 0 -292 80t-191.5 229.5t-67.5 358.5v46q0 228 66 391t189.5 250t296 87t295.5 -87t189 -250t66 -391v-46q0 -209 -64 -358.5t-187 -229.5t-300 -80zM1046 -434q-106 0 -188.5 53t-165.5 184q-44 70 -70 104.5t-45.5 46t-43.5 11.5q-52 0 -83 -58.5
t-49 -180.5l-340 60q35 211 154 321t302 110q115 0 194.5 -46t155.5 -143q59 -76 101 -103t90 -27q41 0 88 22l73 -316q-87 -38 -173 -38zM600 299q99 0 149.5 92.5t50.5 288.5v56q0 197 -50.5 297t-149.5 100t-149.5 -100t-50.5 -297v-56q0 -196 50.5 -288.5t149.5 -92.5z
" />
    <glyph glyph-name="R" unicode="R" 
d="M100 0v1432h472q168 0 284.5 -57.5t177 -162t60.5 -245.5v-12q0 -141 -60.5 -245.5t-177 -162t-284.5 -57.5h-271v290h269q85 0 131.5 44t46.5 114v22q0 71 -46.5 114.5t-131.5 43.5h-128v-1118h-342zM784 0l-335 618h379l346 -618h-390z" />
    <glyph glyph-name="S" unicode="S" 
d="M636 -35q-151 0 -274 56t-205.5 158t-112.5 241l319 79q21 -105 93 -162.5t181 -57.5q78 0 119.5 31t41.5 87v4q0 50 -38.5 85t-134.5 72l-194 75q-304 117 -304 395v4q0 129 63 227t174.5 153t258.5 55q200 0 332.5 -94.5t184.5 -276.5l-318 -85q-38 142 -197 142
q-70 0 -111 -29t-41 -79v-4q0 -42 32 -71.5t108 -59.5l194 -75q173 -67 255 -172.5t82 -262.5v-8q0 -128 -63.5 -224t-177.5 -149.5t-267 -53.5z" />
    <glyph glyph-name="T" unicode="T" 
d="M425 0v1261h350v-1261h-350zM68 1104v328h1064v-328h-1064z" />
    <glyph glyph-name="U" unicode="U" 
d="M331 28.5q-115 63.5 -178 178t-63 265.5v960h348v-946q0 -85 43 -136t119 -51q77 0 119.5 51t42.5 136v946h348v-960q0 -151 -63 -265.5t-177.5 -178t-269 -63.5t-269.5 63.5z" />
    <glyph glyph-name="V" unicode="V" 
d="M454 0l-452 1432h356l191 -786l50 -268h7l50 268l193 786h349l-452 -1432h-292z" />
    <glyph glyph-name="W" unicode="W" 
d="M199 0l-180 1432h317l57 -926h6l43 275l67 369h182l67 -369l43 -275h6l46 926h328l-180 -1432h-276l-83 467l-39 262h-6l-39 -262l-83 -467h-276z" />
    <glyph glyph-name="X" unicode="X" 
d="M817 0l-348 655l-35 21l-410 756h375l310 -582l35 -21l448 -829h-375zM8 0l440 808l34 16l325 608h369l-425 -776l-34 -16l-340 -640h-369z" />
    <glyph glyph-name="Y" unicode="Y" 
d="M463 409l-451 1023h374l122 -319l93 -288h9l90 288l122 319h366l-451 -1023h-274zM426 0v692h348v-692h-348z" />
    <glyph glyph-name="Z" unicode="Z" 
d="M92 0v291l589 817h-566v324h980v-291l-589 -817h602v-324h-1016z" />
    <glyph glyph-name="bracketleft" unicode="[" 
d="M1070 1597v-282h-427v-1288h427v-282h-774v1852h774z" />
    <glyph glyph-name="backslash" unicode="\" 
d="M1098 -176h-333l-663 1636h333z" />
    <glyph glyph-name="bracketright" unicode="]" 
d="M130 -267v282h427v1288h-427v282h774v-1852h-774z" />
    <glyph glyph-name="asciicircum" unicode="^" 
d="M16 628l436 804h296l436 -804h-368l-210 423h-11l-211 -423h-368z" />
    <glyph glyph-name="underscore" unicode="_" 
d="M72 -325v290h1056v-290h-1056z" />
    <glyph glyph-name="grave" unicode="`" 
d="M576 882l-328 578h392l238 -578h-302z" />
    <glyph glyph-name="a" unicode="a" 
d="M444 -35q-102 0 -180 42.5t-121.5 118t-43.5 173.5v10q0 162 111 258.5t298 96.5q77 0 142.5 -12t123.5 -35v-187q-73 40 -169 40q-79 0 -120 -35.5t-41 -105.5v-16q0 -62 33.5 -95t95.5 -33q53 0 92 27.5t60.5 78t21.5 118.5v243q0 95 -47.5 140t-137.5 45
q-125 0 -237 -105l-170 182q176 175 458 175q230 0 348.5 -106t118.5 -315v-668h-327v129h-10q-46 -78 -123 -121t-176 -43z" />
    <glyph glyph-name="b" unicode="b" 
d="M744 -35q-92 0 -169 49t-124 137h-10v-151h-333v1460h342v-549h10q53 90 124.5 134t163.5 44q112 0 195.5 -69.5t130 -194.5t46.5 -293v-10q0 -167 -47 -292.5t-131.5 -195t-197.5 -69.5zM614 244q80 0 122 70t42 201v24q0 131 -42.5 201t-122.5 70q-79 0 -126 -75.5
t-47 -202.5v-11q0 -127 47.5 -202t126.5 -75z" />
    <glyph glyph-name="c" unicode="c" 
d="M647 -35q-163 0 -283.5 69t-187 194t-66.5 293v12q0 168 67.5 293t190.5 194t287 69q191 0 317.5 -98t161.5 -273l-311 -79q-13 80 -57 120t-117 40q-95 0 -149 -68.5t-54 -190.5v-26q0 -119 54.5 -189t148.5 -70q77 0 124.5 43.5t64.5 122.5l312 -88
q-25 -112 -95.5 -194.5t-175 -128t-232.5 -45.5z" />
    <glyph glyph-name="d" unicode="d" 
d="M481 -35q-111 0 -202 70t-144.5 195.5t-53.5 292.5v8q0 168 51.5 293.5t140 195t200.5 69.5q91 0 157.5 -44.5t110.5 -133.5h10v549h342v-1460h-333v151h-10q-42 -88 -112.5 -137t-156.5 -49zM593 245q77 0 122.5 73.5t45.5 202.5v11q0 129 -45.5 203t-122.5 74
q-80 0 -125.5 -70t-45.5 -201v-23q0 -131 45.5 -200.5t125.5 -69.5z" />
    <glyph glyph-name="e" unicode="e" 
d="M622 -35q-167 0 -290 68t-190.5 192.5t-67.5 291.5v17q0 167 69 291.5t193 194t288 69.5q148 0 258.5 -61t171.5 -172t61 -261q0 -44 -3 -81t-11 -65h-855v187h561v-10q0 94 -47 145.5t-133 51.5q-106 0 -167.5 -78t-61.5 -215v-9q0 -133 59 -209t164 -76q138 0 193 135
l294 -112q-58 -138 -185.5 -216t-300.5 -78z" />
    <glyph glyph-name="f" unicode="f" 
d="M347 0v1102q0 186 114.5 289.5t323.5 103.5q118 0 205 -29.5t164 -90.5l-168 -227q-43 34 -82 50.5t-89 16.5q-66 0 -102.5 -33t-36.5 -98v-135l15 -84v-865h-344zM99 756v252h1004v-252h-1004z" />
    <glyph glyph-name="g" unicode="g" 
d="M601 -572q-170 0 -300 47.5t-203 132.5t-73 195q0 116 75.5 196t210.5 105l46 -133q-17 -29 -24.5 -57t-7.5 -60q0 -83 73 -129t206 -46q130 0 205.5 38.5t75.5 104.5q0 90 -117 90h-540v111l215 338l175 -20l-57 -178h277q164 0 255.5 -80.5t91.5 -226.5
q0 -132 -71 -228t-201.5 -148t-311.5 -52zM612 270q-140 0 -251.5 53.5t-176 145.5t-64.5 208v4q0 121 59.5 212.5t165 143t244.5 51.5q140 0 251.5 -53.5t176.5 -145.5t65 -208v-4q0 -121 -59.5 -212.5t-165.5 -143t-245 -51.5zM601 530q86 0 133 37.5t47 107.5v5
q0 70 -47 108t-133 38q-87 0 -134 -38t-47 -108v-5q0 -70 47 -107.5t134 -37.5zM842 923l-107 66q32 149 138.5 225.5t282.5 76.5v-267q-216 0 -314 -101z" />
    <glyph glyph-name="h" unicode="h" 
d="M122 0v1460h343v-544h9q122 172 320 172q141 0 223.5 -96t82.5 -261v-731h-343v652q0 154 -129 154q-73 0 -118 -52t-45 -136v-618h-343z" />
    <glyph glyph-name="i" unicode="i" 
d="M487 83v971h336v-971h-336zM155 0v250h971v-250h-971zM175 804v250h612v-250h-612zM622 1235q-88 0 -150.5 60.5t-62.5 147.5q0 91 62.5 149t150.5 58q92 0 151.5 -58t59.5 -149q0 -87 -59.5 -147.5t-151.5 -60.5z" />
    <glyph glyph-name="j" unicode="j" 
d="M437 -451q-211 0 -379 124l162 252q53 -40 100.5 -59t99.5 -19q74 0 113.5 44t39.5 123v1040h344v-1028q0 -223 -127.5 -350t-352.5 -127zM190 804v250h639v-250h-639zM717 1235q-89 0 -151 60.5t-62 147.5q0 89 61 148t152 59q92 0 151.5 -58t59.5 -149
q0 -88 -60.5 -148t-150.5 -60z" />
    <glyph glyph-name="k" unicode="k" 
d="M788 0l-371 564v8l357 482h378l-410 -542v114l420 -626h-374zM90 0v1460h342v-1460h-342z" />
    <glyph glyph-name="l" unicode="l" 
d="M795 -35q-214 0 -333 117.5t-119 326.5v1051h344v-1029q0 -162 143 -162q38 0 71 14.5t69 48.5l176 -239q-73 -67 -157 -97.5t-194 -30.5zM58 1200v260h556v-260h-556z" />
    <glyph glyph-name="m" unicode="m" 
d="M34 0v1054h282v-144h10q37 88 88.5 133.5t128.5 45.5q84 0 134 -63t57 -179l-22 -3q35 119 96 182t147 63q213 0 213 -340v-749h-299v704q0 53 -11.5 77.5t-36.5 24.5q-34 0 -52 -33t-18 -95v-678h-299v700q0 56 -12 81t-37 25q-35 0 -52.5 -32.5t-17.5 -96.5v-677h-299z
" />
    <glyph glyph-name="n" unicode="n" 
d="M122 0v1054h327v-159h9q59 93 144.5 143.5t191.5 50.5q141 0 223.5 -96.5t82.5 -260.5v-732h-343v653q0 73 -32 113.5t-97 40.5q-74 0 -118.5 -52.5t-44.5 -135.5v-619h-343z" />
    <glyph glyph-name="o" unicode="o" 
d="M324 36.5q-121 71.5 -189.5 196.5t-68.5 284v20q0 160 68.5 284.5t189.5 196t276.5 71.5t276 -71.5t189 -196t68.5 -284.5v-20q0 -159 -68.5 -284t-189 -196.5t-276 -71.5t-276.5 71.5zM742.5 333.5q53.5 70.5 53.5 187.5v12q0 117 -53.5 187.5t-142 70.5t-142.5 -70.5
t-54 -187.5v-12q0 -117 54 -187.5t142.5 -70.5t142 70.5z" />
    <glyph glyph-name="p" unicode="p" 
d="M744 1089q113 0 197.5 -69.5t131.5 -195t47 -292.5v-10q0 -168 -46.5 -293.5t-130 -194.5t-195.5 -69q-92 0 -163.5 44t-124.5 134h-10v-549h-342v1460h333v-151h10q47 89 124 137.5t169 48.5zM614 810q-79 0 -126.5 -75t-47.5 -202v-11q0 -127 47 -202.5t126 -75.5
q80 0 122.5 70t42.5 201v24q0 131 -42 201t-122 70z" />
    <glyph glyph-name="q" unicode="q" 
d="M481 1089q86 0 156.5 -49t112.5 -137h10v151h333v-1460h-342v549h-10q-44 -88 -110.5 -133t-157.5 -45q-112 0 -200.5 69.5t-140 195t-51.5 293.5v8q0 167 53.5 292.5t144.5 195.5t202 70zM593 809q-80 0 -125.5 -69.5t-45.5 -200.5v-23q0 -131 45.5 -201t125.5 -70
q77 0 122.5 74t45.5 203v11q0 129 -45.5 202.5t-122.5 73.5z" />
    <glyph glyph-name="r" unicode="r" 
d="M272 130v924h284v-247h16q46 137 133.5 209.5t205.5 72.5q79 0 141.5 -31.5t129.5 -106.5l-200 -244q-46 47 -84.5 65t-87.5 18q-102 0 -154 -63t-52 -188v-409h-332zM72 0v252h872v-252h-872zM92 802v252h331v-252h-331z" />
    <glyph glyph-name="s" unicode="s" 
d="M642 -34q-202 0 -332 82t-171 236l285 88q17 -67 73 -103.5t141 -36.5q53 0 82.5 17.5t29.5 49.5v2q0 29 -25 45t-111 41l-153 44q-136 39 -204.5 118t-68.5 195v2q0 156 118 249.5t314 93.5q176 0 287 -70.5t147 -204.5l-285 -88q-29 101 -169 101q-49 0 -76.5 -15.5
t-27.5 -44.5v0q0 -26 22.5 -42t86.5 -34l153 -44q157 -45 229.5 -127.5t72.5 -216.5v-4q0 -151 -114.5 -242t-303.5 -91z" />
    <glyph glyph-name="t" unicode="t" 
d="M780 -35q-220 0 -338 122t-118 346v893h342v-871q0 -93 38 -139.5t114 -46.5q80 0 152 64l158 -251q-143 -117 -348 -117zM88 802v252h979v-252h-979z" />
    <glyph glyph-name="u" unicode="u" 
d="M430 -35q-142 0 -222 95t-80 258v736h342v-655q0 -71 33 -110.5t91 -39.5q61 0 95.5 50.5t34.5 138.5v616h343v-1054h-327v160h-11q-46 -85 -122 -140t-177 -55z" />
    <glyph glyph-name="v" unicode="v" 
d="M426 0l-382 1054h362l132 -433l63 -289h10l63 289l124 433h358l-382 -1054h-348z" />
    <glyph glyph-name="w" unicode="w" 
d="M212 0l-219 1054h298l80 -555l14 -117h7l15 118l69 433h267l68 -432l14 -119h7l15 119l82 553h278l-220 -1054h-294l-77 469l-13 113h-7l-15 -113l-76 -469h-293z" />
    <glyph glyph-name="x" unicode="x" 
d="M788 0l-298 469l-54 21l-374 564h365l253 -399l53 -21l419 -634h-364zM48 0l412 610l47 9l284 435h347l-400 -593l-48 -9l-295 -452h-347z" />
    <glyph glyph-name="y" unicode="y" 
d="M328 -451q-189 0 -321 111l162 252q78 -65 151 -65q50 0 81.5 24.5t51.5 79.5l98 266h67l92 404l124 433h352l-428 -1156q-68 -184 -169.5 -266.5t-260.5 -82.5zM494 -84l-420 1138h354l132 -433l69 -289h110z" />
    <glyph glyph-name="z" unicode="z" 
d="M142 0v267l520 509h-500v278h886v-268l-519 -508h529v-278h-916z" />
    <glyph glyph-name="braceleft" unicode="{" 
d="M786 1681q81 0 157.5 -7t153.5 -21v-288q-51 11 -103.5 16.5t-111.5 5.5q-65 0 -97 -21t-32 -65q0 -28 16.5 -56t64.5 -84l16 -18q53 -60 75.5 -107t22.5 -99q0 -88 -67 -140t-192 -60l-356 -23v-98l356 -22q124 -7 191.5 -59.5t67.5 -140.5q0 -52 -22.5 -99t-75.5 -107
l-16 -18q-48 -55 -64.5 -83.5t-16.5 -56.5q0 -43 32 -64.5t97 -21.5q59 0 111.5 5.5t103.5 16.5v-288q-77 -14 -153.5 -21.5t-157.5 -7.5q-194 0 -300 70.5t-106 198.5q0 62 25 113.5t86 117.5l13 14q39 42 55 69.5t16 56.5q0 81 -136 96l-386 41v479l386 41q136 15 136 95
q0 30 -13.5 58.5t-56.5 68.5l-14 13q-65 61 -88 116t-23 116q0 128 106 198t300 70z" />
    <glyph glyph-name="bar" unicode="|" 
d="M428 -346v2124h344v-2124h-344z" />
    <glyph glyph-name="braceright" unicode="}" 
d="M414 -351q-81 0 -157.5 7t-153.5 21v288q51 -11 104 -16.5t111 -5.5q65 0 97 21.5t32 64.5q0 28 -16.5 56.5t-64.5 83.5l-16 18q-53 60 -75.5 107t-22.5 99q0 88 67.5 140t191.5 60l356 23v98l-356 22q-124 8 -191.5 60t-67.5 140q0 52 22.5 99t75.5 107l16 18
q48 56 64.5 84t16.5 56q0 44 -32 65t-97 21q-58 0 -111 -5.5t-104 -16.5v288q77 14 153.5 21.5t157.5 7.5q194 0 300 -70.5t106 -198.5q0 -61 -24.5 -113t-86.5 -118l-13 -14q-39 -42 -55 -69.5t-16 -56.5q0 -81 136 -96l386 -41v-479l-386 -41q-136 -15 -136 -95
q0 -30 13.5 -58.5t56.5 -68.5l14 -13q65 -61 88 -115.5t23 -116.5q0 -128 -106 -198t-300 -70z" />
    <glyph glyph-name="asciitilde" unicode="~" 
d="M851 544q-70 0 -131.5 26t-140.5 88q-48 38 -75.5 51.5t-55.5 13.5q-74 0 -74 -95v-80h-318v105q0 191 76.5 287.5t226.5 96.5q69 0 128 -27t134 -86q47 -37 75.5 -51.5t55.5 -14.5q74 0 74 95v80h318v-105q0 -190 -73.5 -287t-219.5 -97z" />
    <glyph glyph-name="uni00A0" unicode="&#xa0;" 
 />
    <glyph glyph-name="exclamdown" unicode="&#xa1;" 
d="M434 637h332l46 -869h-424zM756 1233q64 -64 64 -156t-63.5 -155.5t-156.5 -63.5q-92 0 -156 63.5t-64 155.5t64 156t156 64t156 -64z" />
    <glyph glyph-name="cent" unicode="&#xa2;" 
d="M627 0q-163 0 -283.5 69t-187 194t-66.5 293v12q0 168 67.5 293t190.5 194t287 69q196 0 325.5 -98t165.5 -273l-314 -79q-15 77 -59.5 118.5t-122.5 41.5q-96 0 -150 -68t-54 -184v-40q0 -116 55 -184t149 -68q79 0 125 43.5t63 122.5l312 -88q-25 -112 -95.5 -194.5
t-175 -128t-232.5 -45.5zM484 -236v332l26 37v78h230v-78l36 -37v-332h-292zM510 913v78l-26 37v332h292v-332l-36 -37v-78h-230z" />
    <glyph glyph-name="sterling" unicode="&#xa3;" 
d="M313 -15l-263 144q44 78 94.5 132.5t117.5 95.5q61 38 85 75.5t24 98.5q0 63 -21.5 123.5t-50 123t-50.5 130.5t-22 145q0 122 59 215.5t165.5 146t248.5 52.5q125 0 220 -37t181 -120l-196 -227q-43 44 -81 64t-91 20q-71 0 -113.5 -41.5t-42.5 -112.5q0 -77 28.5 -156
t57 -155t28.5 -145q0 -71 -33.5 -114t-114.5 -75v-18q31 0 60.5 -7.5t57.5 -17.5t54.5 -17.5t50.5 -7.5q47 0 69.5 25.5t38.5 83.5l304 -85q-37 -148 -110.5 -236t-206.5 -88q-52 0 -102 12t-97.5 28t-93.5 28t-91 12q-111 0 -164 -95zM60 658v220h928v-220h-928z" />
    <glyph glyph-name="currency" unicode="&#xa4;" 
d="M364.5 303q-107.5 62 -172.5 165.5t-65 225.5v18q0 123 65 226t172.5 165t235.5 62t235.5 -62t172.5 -165t65 -226v-18q0 -122 -65 -225.5t-172.5 -165.5t-235.5 -62t-235.5 62zM202 107l-198 198l257 258l198 -198zM600 491q60 0 105.5 25.5t71.5 71t26 103.5v24
q0 59 -26 104t-71.5 70.5t-105.5 25.5q-59 0 -105 -25.5t-72 -70.5t-26 -104v-24q0 -58 26 -103.5t72 -71t105 -25.5zM262 844l-258 257l198 198l258 -257zM998 107l-258 257l198 198l258 -257zM939 843l-198 198l257 258l198 -198z" />
    <glyph glyph-name="yen" unicode="&#xa5;" 
d="M445 518l-433 914h374l118 -319l97 -302h9l94 302l118 319h366l-433 -914h-310zM436 0v692h328v-692h-328zM125 530v200h950v-200h-950zM125 210v200h950v-200h-950z" />
    <glyph glyph-name="brokenbar" unicode="&#xa6;" 
d="M428 928v850h344v-850h-344zM428 -346v850h344v-850h-344z" />
    <glyph glyph-name="section" unicode="&#xa7;" 
d="M807 232l-127 146q76 44 109 87t33 98q0 47 -23 72t-82 44l-230 73q-120 38 -194.5 135.5t-74.5 216.5q0 108 57 189.5t158.5 127.5t234.5 46q275 0 402 -206l-227 -180q-70 106 -204 106q-60 0 -93 -20.5t-33 -58.5q0 -34 25.5 -55.5t90.5 -42.5l172 -55
q168 -53 239.5 -136.5t71.5 -224.5q0 -124 -79.5 -218t-225.5 -144zM571 -217q-295 0 -441 213l230 177q81 -110 211 -110q56 0 86 20t30 57q0 36 -25 57.5t-91 42.5l-172 55q-311 99 -311 354q0 128 79 223.5t226 145.5l89 -189q-55 -28 -79.5 -61t-24.5 -78t25 -73.5
t80 -45.5l230 -73q125 -40 197 -136t72 -222q0 -106 -51.5 -186.5t-144 -125.5t-215.5 -45z" />
    <glyph glyph-name="dieresis" unicode="&#xa8;" 
d="M310 1235q-86 0 -146 59.5t-60 144.5t60 144.5t146 59.5q87 0 146.5 -59t59.5 -145t-59 -145t-147 -59zM890 1235q-86 0 -146 59.5t-60 144.5t60 144.5t146 59.5q87 0 146.5 -59t59.5 -145t-59 -145t-147 -59z" />
    <glyph glyph-name="copyright" unicode="&#xa9;" 
d="M287 54q-133 84 -206 238t-73 362v129q0 209 73 362.5t206 237.5t313.5 84t313 -84t205.5 -237.5t73 -362.5v-129q0 -208 -73 -362t-205.5 -238t-313 -84t-313.5 84zM961.5 217.5q130.5 157.5 130.5 435.5v131q0 278 -130.5 435.5t-361.5 157.5t-361.5 -157.5
t-130.5 -435.5v-131q0 -278 130.5 -435.5t361.5 -157.5t361.5 157.5zM617 284q-159 0 -251 109t-92 297v60q0 188 92 297t251 109q136 0 220.5 -83t98.5 -232l-182 -13q-14 156 -141 156q-79 0 -120 -59.5t-41 -172.5v-64q0 -113 41 -172.5t120 -59.5q127 0 141 156l182 -13
q-14 -148 -98.5 -231.5t-220.5 -83.5z" />
    <glyph glyph-name="ordfeminine" unicode="&#xaa;" 
d="M440 531q-132 0 -216 75.5t-84 193.5v10q0 128 87 204t232 76q148 0 266 -81v-110q-37 16 -70.5 22.5t-77.5 6.5q-67 0 -97 -24t-30 -77v-14q0 -96 111 -96q71 0 112 36.5t41 97.5v210q0 98 -44.5 138.5t-151.5 40.5q-73 0 -137.5 -14.5t-130.5 -45.5l-76 217
q189 70 410 70q215 0 317.5 -96t102.5 -296v-524h-280v134h-14q-48 -75 -117 -114.5t-153 -39.5z" />
    <glyph glyph-name="guillemotleft" unicode="&#xab;" 
d="M1000 2l-486 530l486 530l192 -166l-311 -364l311 -364zM487 2l-485 530l485 530l195 -162l-313 -368l313 -368z" />
    <glyph glyph-name="logicalnot" unicode="&#xac;" 
d="M756 91v504l110 -110h-752v320h972v-714h-330z" />
    <glyph glyph-name="registered" unicode="&#xae;" 
d="M287 54q-133 84 -206 238t-73 362v129q0 209 73 362.5t206 237.5t313.5 84t313 -84t205.5 -237.5t73 -362.5v-129q0 -208 -73 -362t-205.5 -238t-313 -84t-313.5 84zM744 291l-201 374h190l205 -364v-10h-194zM961.5 217.5q130.5 157.5 130.5 435.5v131
q0 278 -130.5 435.5t-361.5 157.5t-361.5 -157.5t-130.5 -435.5v-131q0 -278 130.5 -435.5t361.5 -157.5t361.5 157.5zM322 291v858h283q142 0 222.5 -72t80.5 -199v-9q0 -127 -80.5 -200t-222.5 -73h-177v152h173q64 0 98.5 29.5t34.5 80.5v17q0 53 -34.5 81.5t-98.5 28.5
h-107v-694h-172z" />
    <glyph glyph-name="macron" unicode="&#xaf;" 
d="M275 1306v274h650v-274h-650z" />
    <glyph glyph-name="degree" unicode="&#xb0;" 
d="M383 719.5q-94 52.5 -148.5 143t-54.5 204.5q0 115 54.5 205t148.5 142.5t212.5 52.5t212 -52.5t148 -142.5t54.5 -205q0 -114 -54.5 -204.5t-148 -143t-212 -52.5t-212.5 52.5zM699.5 959q40.5 42 40.5 108t-40.5 108t-104.5 42t-104.5 -42t-40.5 -108t40.5 -108
t104.5 -42t104.5 42z" />
    <glyph glyph-name="plusminus" unicode="&#xb1;" 
d="M94 0v310h1012v-310h-1012zM94 700v308h1012v-308h-1012zM435 408v892h330v-892h-330z" />
    <glyph glyph-name="uni00B2" unicode="&#xb2;" 
d="M192 684v214l342 342q47 47 65.5 78t18.5 65v3q0 27 -15.5 44t-43.5 17q-39 0 -65.5 -29t-48.5 -100l-277 101q49 149 156.5 228.5t259.5 79.5q158 0 250 -83.5t92 -225.5v-4q0 -82 -35 -150t-129 -166l-124 -129v-7h326v-278h-772z" />
    <glyph glyph-name="uni00B3" unicode="&#xb3;" 
d="M605 672q-175 0 -288.5 67.5t-158.5 199.5l283 112q36 -99 145 -99q44 0 69 18.5t25 51.5v6q0 75 -103 75h-159v200h133q50 0 76.5 18.5t26.5 53.5v6q0 32 -19 49t-54 17q-82 0 -110 -79l-288 96q50 128 161 195.5t269 67.5t253.5 -76t95.5 -201v-7q0 -81 -42.5 -138
t-123.5 -86v-14q94 -23 143 -85.5t49 -157.5v-3q0 -130 -105 -208.5t-278 -78.5z" />
    <glyph glyph-name="acute" unicode="&#xb4;" 
d="M296 1260v14l218 370h390v-14l-310 -370h-298z" />
    <glyph glyph-name="uni00B5" unicode="&#xb5;" 
d="M118 -406v1460h343v-703q0 -49 24 -76.5t66 -27.5q60 0 95.5 56t35.5 166v585h343v-719q0 -88 74 -88q24 0 49 9l52 -241q-51 -25 -100 -37.5t-104 -12.5q-106 0 -173.5 56.5t-80.5 159.5h-10q-72 -216 -227 -216q-103 0 -179.5 67.5t-99.5 179.5l225 -90l20 -528h-353z
" />
    <glyph glyph-name="paragraph" unicode="&#xb6;" 
d="M461 -406v1017l95 -51h-12q-252 0 -383 115.5t-131 315.5v10q0 200 131 315.5t383 115.5h177v-1838h-260zM860 -406v1838h260v-1838h-260z" />
    <glyph glyph-name="periodcentered" unicode="&#xb7;" 
d="M600 625q-91 0 -155.5 63t-64.5 155q0 91 64 154.5t156 63.5q94 0 157 -63.5t63 -154.5q0 -92 -63 -155t-157 -63z" />
    <glyph glyph-name="cedilla" unicode="&#xb8;" 
d="M610 -674q-105 0 -197 57.5t-142 152.5l188 106q57 -110 149 -110q47 0 76 25.5t29 68.5q0 44 -26 68.5t-70 24.5q-49 0 -93 -28l-125 104l139 226h168l-172 -273l-83 54q41 44 94 67t111 23q124 0 198.5 -75.5t74.5 -200.5q0 -128 -89 -209t-230 -81z" />
    <glyph glyph-name="uni00B9" unicode="&#xb9;" 
d="M468 827v542l-201 -84l-111 261l422 169h198v-888h-308zM198 683v284h818v-284h-818z" />
    <glyph glyph-name="ordmasculine" unicode="&#xba;" 
d="M321.5 619.5q-103.5 56.5 -162.5 155t-59 223.5v34q0 125 59 223.5t162.5 155t236.5 56.5t236.5 -56.5t162.5 -155t59 -223.5v-34q0 -125 -59 -223.5t-162.5 -155t-236.5 -56.5t-236.5 56.5zM670 879.5q38 48.5 38 123.5v23q0 75 -38 124t-111.5 49t-112 -49t-38.5 -124
v-23q0 -75 38.5 -123.5t112 -48.5t111.5 48.5z" />
    <glyph glyph-name="guillemotright" unicode="&#xbb;" 
d="M200 2l-192 166l311 364l-311 364l192 166l486 -530zM713 2l-195 162l313 368l-313 368l195 162l485 -530z" />
    <glyph glyph-name="onequarter" unicode="&#xbc;" 
d="M879 -35v207l8 20v270l28 -34h-38l-130 -167v-10h208l24 8h181v-188h-624v205l317 408h224v-719h-198zM230 750v451l-157 -54l-73 214l300 99h160v-710h-230zM88 -35l833 1495h183l-833 -1495h-183z" />
    <glyph glyph-name="onehalf" unicode="&#xbd;" 
d="M66 -35l833 1495h183l-833 -1495h-183zM620 -35v187l246 179q46 33 64.5 55t18.5 47v3q0 24 -15 38t-41 14q-71 0 -80 -82l-213 22q14 115 99 188.5t210 73.5q119 0 186.5 -66.5t67.5 -169.5v-4q0 -70 -31 -124.5t-102 -104.5l-67 -48v-8h207v-200h-550zM230 750v451
l-157 -54l-73 214l300 99h160v-710h-230z" />
    <glyph glyph-name="threequarters" unicode="&#xbe;" 
d="M883 -35v207l8 20v270l28 -34h-38l-130 -167v-10h208l24 8h181v-188h-624v205l317 408h224v-719h-198zM302 714q-118 0 -195 47t-103 135l198 64q9 -28 29.5 -45t57.5 -17q32 0 50.5 17.5t18.5 45.5v6q0 33 -22 49.5t-77 16.5h-107v112h101q47 0 70 16t23 50v6
q0 29 -15.5 44t-50.5 15q-59 0 -71 -48l-201 54q24 84 98.5 131t195.5 47q116 0 181 -49.5t65 -138.5v-4q0 -118 -124 -166v-10q136 -39 136 -165v-4q0 -90 -72.5 -149.5t-185.5 -59.5zM71 -35l929 1495h188l-929 -1495h-188z" />
    <glyph glyph-name="questiondown" unicode="&#xbf;" 
d="M798 765v-270l-191 -104q-93 -50 -130 -90t-37 -91v-11q0 -50 37 -79t99 -29q77 0 136.5 44t85.5 120l326 -105q-61 -180 -208.5 -282.5t-344.5 -102.5q-143 0 -251.5 53.5t-169 148.5t-60.5 220v2q0 117 55.5 207t175.5 159l125 72v138h352zM622 1267q87 0 149 -63
t62 -150q0 -86 -61.5 -145.5t-149.5 -59.5t-149.5 59.5t-61.5 145.5q0 87 62 150t149 63z" />
    <glyph glyph-name="Agrave" unicode="&#xc0;" 
d="M2 0l445 1432h310l441 -1432h-356l-193 826l-50 228h-7l-44 -228l-197 -826h-349zM209 245l84 266h594l91 -266h-769zM453 1638l-310 370v14h390l218 -370v-14h-298z" />
    <glyph glyph-name="Aacute" unicode="&#xc1;" 
d="M2 0l445 1432h310l441 -1432h-356l-193 826l-50 228h-7l-44 -228l-197 -826h-349zM209 245l84 266h594l91 -266h-769zM453 1638v14l218 370h390v-14l-310 -370h-298z" />
    <glyph glyph-name="Acircumflex" unicode="&#xc2;" 
d="M2 0l445 1432h310l441 -1432h-356l-193 826l-50 228h-7l-44 -228l-197 -826h-349zM209 245l84 266h594l91 -266h-769zM142 1638v14l296 370h328l296 -370v-14h-330l-166 299h72l-166 -299h-330z" />
    <glyph glyph-name="Atilde" unicode="&#xc3;" 
d="M2 0l445 1432h310l441 -1432h-356l-193 826l-50 228h-7l-44 -228l-197 -826h-349zM209 245l84 266h594l91 -266h-769zM781 1635q-47 0 -95 20.5t-96 62.5q-37 33 -60 48.5t-44 15.5q-53 0 -53 -64v-80h-238v89q0 145 61.5 221.5t177.5 76.5q47 0 90 -18.5t90 -62.5
q37 -34 61 -50t46 -16q50 0 50 64v80h238v-88q0 -146 -56.5 -222.5t-171.5 -76.5z" />
    <glyph glyph-name="Adieresis" unicode="&#xc4;" 
d="M2 0l445 1432h310l441 -1432h-356l-193 826l-50 228h-7l-44 -228l-197 -826h-349zM209 245l84 266h594l91 -266h-769zM312 1613q-86 0 -146 59.5t-60 144.5t60 144.5t146 59.5q87 0 146.5 -59t59.5 -145t-59 -145t-147 -59zM892 1613q-86 0 -146 59.5t-60 144.5t60 144.5
t146 59.5q87 0 146.5 -59t59.5 -145t-59 -145t-147 -59z" />
    <glyph glyph-name="Aring" unicode="&#xc5;" 
d="M2 0l445 1432h310l441 -1432h-356l-193 826l-50 228h-7l-44 -228l-197 -826h-349zM209 245l84 266h594l91 -266h-769zM440 1567.5q-73 41.5 -116.5 112t-43.5 156.5t43.5 156.5t116.5 112t162 41.5t162 -41.5t116.5 -112t43.5 -156.5t-43.5 -156.5t-116.5 -112
t-162 -41.5t-162 41.5zM686.5 1753q33.5 33 33.5 83t-33.5 83t-84.5 33t-84.5 -33t-33.5 -83t33.5 -83t84.5 -33t84.5 33z" />
    <glyph glyph-name="AE" unicode="&#xc6;" 
d="M2 0l330 1432h375v-292h-181l-44 -314l-145 -826h-335zM179 256l84 260h430v-260h-514zM605 0v1432h577v-312h-307v-808h323v-312h-593zM765 575v308h377v-308h-377z" />
    <glyph glyph-name="Ccedilla" unicode="&#xc7;" 
d="M658 -35q-177 0 -309.5 91t-206.5 255t-74 382v46q0 221 71.5 384.5t202 253.5t305.5 90q192 0 318.5 -106.5t168.5 -303.5l-321 -91q-19 86 -59.5 126.5t-110.5 40.5q-107 0 -166 -102t-59 -287v-56q0 -182 63 -285.5t173 -103.5q139 0 177 177l321 -91
q-43 -198 -173 -309t-321 -111zM661 -674q-105 0 -197 57.5t-142 152.5l188 106q57 -110 149 -110q47 0 76 25.5t29 68.5q0 44 -26 68.5t-70 24.5q-49 0 -93 -28l-125 104l139 226h168l-172 -273l-83 54q41 44 94 67t111 23q124 0 198.5 -75.5t74.5 -200.5q0 -128 -89 -209
t-230 -81z" />
    <glyph glyph-name="Egrave" unicode="&#xc8;" 
d="M130 0v1432h916v-322h-572v-788h588v-322h-932zM346 570v318h620v-318h-620zM439 1638l-310 370v14h390l218 -370v-14h-298z" />
    <glyph glyph-name="Eacute" unicode="&#xc9;" 
d="M130 0v1432h916v-322h-572v-788h588v-322h-932zM346 570v318h620v-318h-620zM439 1638v14l218 370h390v-14l-310 -370h-298z" />
    <glyph glyph-name="Ecircumflex" unicode="&#xca;" 
d="M130 0v1432h916v-322h-572v-788h588v-322h-932zM346 570v318h620v-318h-620zM128 1638v14l296 370h328l296 -370v-14h-330l-166 299h72l-166 -299h-330z" />
    <glyph glyph-name="Edieresis" unicode="&#xcb;" 
d="M130 0v1432h916v-322h-572v-788h588v-322h-932zM346 570v318h620v-318h-620zM298 1613q-86 0 -146 59.5t-60 144.5t60 144.5t146 59.5q87 0 146.5 -59t59.5 -145t-59 -145t-147 -59zM878 1613q-86 0 -146 59.5t-60 144.5t60 144.5t146 59.5q87 0 146.5 -59t59.5 -145
t-59 -145t-147 -59z" />
    <glyph glyph-name="Igrave" unicode="&#xcc;" 
d="M425 155v1122h350v-1122h-350zM130 0v326h940v-326h-940zM130 1106v326h940v-326h-940zM451 1638l-310 370v14h390l218 -370v-14h-298z" />
    <glyph glyph-name="Iacute" unicode="&#xcd;" 
d="M425 155v1122h350v-1122h-350zM130 0v326h940v-326h-940zM130 1106v326h940v-326h-940zM451 1638v14l218 370h390v-14l-310 -370h-298z" />
    <glyph glyph-name="Icircumflex" unicode="&#xce;" 
d="M425 155v1122h350v-1122h-350zM130 0v326h940v-326h-940zM130 1106v326h940v-326h-940zM140 1638v14l296 370h328l296 -370v-14h-330l-166 299h72l-166 -299h-330z" />
    <glyph glyph-name="Idieresis" unicode="&#xcf;" 
d="M425 155v1122h350v-1122h-350zM130 0v326h940v-326h-940zM130 1106v326h940v-326h-940zM310 1613q-86 0 -146 59.5t-60 144.5t60 144.5t146 59.5q87 0 146.5 -59t59.5 -145t-59 -145t-147 -59zM890 1613q-86 0 -146 59.5t-60 144.5t60 144.5t146 59.5q87 0 146.5 -59
t59.5 -145t-59 -145t-147 -59z" />
    <glyph glyph-name="Eth" unicode="&#xd0;" 
d="M170 0v1432h416q184 0 315.5 -83.5t202 -238.5t70.5 -371v-46q0 -216 -70.5 -371.5t-202 -238.5t-315.5 -83h-416zM34 580v308h695v-308h-695zM470 314h117q145 0 206 92.5t61 281.5v56q0 189 -61 281.5t-206 92.5h-117v-804z" />
    <glyph glyph-name="Ntilde" unicode="&#xd1;" 
d="M58 0v1432h344l415 -836h9l-20 328v508h336v-1432h-320l-439 879h-9l20 -328v-551h-336zM783 1635q-47 0 -95 20.5t-96 62.5q-37 33 -60 48.5t-44 15.5q-53 0 -53 -64v-80h-238v89q0 145 61.5 221.5t177.5 76.5q47 0 90 -18.5t90 -62.5q37 -34 61 -50t46 -16q50 0 50 64
v80h238v-88q0 -146 -56.5 -222.5t-171.5 -76.5z" />
    <glyph glyph-name="Ograve" unicode="&#xd2;" 
d="M305 52q-123 87 -189 250t-66 391v46q0 228 66 391t189 250t295 87t295 -87t189 -250t66 -391v-46q0 -228 -66 -391t-189 -250t-295 -87t-295 87zM749.5 397q50.5 98 50.5 291v56q0 193 -50.5 291t-149.5 98t-149.5 -98t-50.5 -291v-56q0 -193 50.5 -291t149.5 -98
t149.5 98zM451 1638l-310 370v14h390l218 -370v-14h-298z" />
    <glyph glyph-name="Oacute" unicode="&#xd3;" 
d="M305 52q-123 87 -189 250t-66 391v46q0 228 66 391t189 250t295 87t295 -87t189 -250t66 -391v-46q0 -228 -66 -391t-189 -250t-295 -87t-295 87zM749.5 397q50.5 98 50.5 291v56q0 193 -50.5 291t-149.5 98t-149.5 -98t-50.5 -291v-56q0 -193 50.5 -291t149.5 -98
t149.5 98zM451 1638v14l218 370h390v-14l-310 -370h-298z" />
    <glyph glyph-name="Ocircumflex" unicode="&#xd4;" 
d="M305 52q-123 87 -189 250t-66 391v46q0 228 66 391t189 250t295 87t295 -87t189 -250t66 -391v-46q0 -228 -66 -391t-189 -250t-295 -87t-295 87zM749.5 397q50.5 98 50.5 291v56q0 193 -50.5 291t-149.5 98t-149.5 -98t-50.5 -291v-56q0 -193 50.5 -291t149.5 -98
t149.5 98zM140 1638v14l296 370h328l296 -370v-14h-330l-166 299h72l-166 -299h-330z" />
    <glyph glyph-name="Otilde" unicode="&#xd5;" 
d="M305 52q-123 87 -189 250t-66 391v46q0 228 66 391t189 250t295 87t295 -87t189 -250t66 -391v-46q0 -228 -66 -391t-189 -250t-295 -87t-295 87zM749.5 397q50.5 98 50.5 291v56q0 193 -50.5 291t-149.5 98t-149.5 -98t-50.5 -291v-56q0 -193 50.5 -291t149.5 -98
t149.5 98zM779 1635q-47 0 -95 20.5t-96 62.5q-37 33 -60 48.5t-44 15.5q-53 0 -53 -64v-80h-238v89q0 145 61.5 221.5t177.5 76.5q47 0 90 -18.5t90 -62.5q37 -34 61 -50t46 -16q50 0 50 64v80h238v-88q0 -146 -56.5 -222.5t-171.5 -76.5z" />
    <glyph glyph-name="Odieresis" unicode="&#xd6;" 
d="M305 52q-123 87 -189 250t-66 391v46q0 228 66 391t189 250t295 87t295 -87t189 -250t66 -391v-46q0 -228 -66 -391t-189 -250t-295 -87t-295 87zM749.5 397q50.5 98 50.5 291v56q0 193 -50.5 291t-149.5 98t-149.5 -98t-50.5 -291v-56q0 -193 50.5 -291t149.5 -98
t149.5 98zM310 1613q-86 0 -146 59.5t-60 144.5t60 144.5t146 59.5q87 0 146.5 -59t59.5 -145t-59 -145t-147 -59zM890 1613q-86 0 -146 59.5t-60 144.5t60 144.5t146 59.5q87 0 146.5 -59t59.5 -145t-59 -145t-147 -59z" />
    <glyph glyph-name="multiply" unicode="&#xd7;" 
d="M326 145l-226 226l774 773l226 -226zM874 145l-774 773l226 226l774 -773z" />
    <glyph glyph-name="Oslash" unicode="&#xd8;" 
d="M212 -229l-192 102l968 1788l192 -102zM610 -35q-167 0 -294.5 91t-199.5 255t-72 382v46q0 228 65 391t187.5 250t293.5 87q167 0 294.5 -91t199.5 -255t72 -382v-46q0 -228 -65 -391t-187.5 -250t-293.5 -87zM580 265q127 0 191.5 102.5t64.5 310.5v96
q0 212 -45.5 302.5t-170.5 90.5q-127 0 -191.5 -102.5t-64.5 -310.5v-96q0 -212 45.5 -302.5t170.5 -90.5z" />
    <glyph glyph-name="Ugrave" unicode="&#xd9;" 
d="M331 28.5q-115 63.5 -178 178t-63 265.5v960h348v-946q0 -85 43 -136t119 -51q77 0 119.5 51t42.5 136v946h348v-960q0 -151 -63 -265.5t-177.5 -178t-269 -63.5t-269.5 63.5zM451 1638l-310 370v14h390l218 -370v-14h-298z" />
    <glyph glyph-name="Uacute" unicode="&#xda;" 
d="M331 28.5q-115 63.5 -178 178t-63 265.5v960h348v-946q0 -85 43 -136t119 -51q77 0 119.5 51t42.5 136v946h348v-960q0 -151 -63 -265.5t-177.5 -178t-269 -63.5t-269.5 63.5zM451 1638v14l218 370h390v-14l-310 -370h-298z" />
    <glyph glyph-name="Ucircumflex" unicode="&#xdb;" 
d="M331 28.5q-115 63.5 -178 178t-63 265.5v960h348v-946q0 -85 43 -136t119 -51q77 0 119.5 51t42.5 136v946h348v-960q0 -151 -63 -265.5t-177.5 -178t-269 -63.5t-269.5 63.5zM140 1638v14l296 370h328l296 -370v-14h-330l-166 299h72l-166 -299h-330z" />
    <glyph glyph-name="Udieresis" unicode="&#xdc;" 
d="M331 28.5q-115 63.5 -178 178t-63 265.5v960h348v-946q0 -85 43 -136t119 -51q77 0 119.5 51t42.5 136v946h348v-960q0 -151 -63 -265.5t-177.5 -178t-269 -63.5t-269.5 63.5zM310 1613q-86 0 -146 59.5t-60 144.5t60 144.5t146 59.5q87 0 146.5 -59t59.5 -145t-59 -145
t-147 -59zM890 1613q-86 0 -146 59.5t-60 144.5t60 144.5t146 59.5q87 0 146.5 -59t59.5 -145t-59 -145t-147 -59z" />
    <glyph glyph-name="Yacute" unicode="&#xdd;" 
d="M463 409l-451 1023h374l122 -319l93 -288h9l90 288l122 319h366l-451 -1023h-274zM426 0v692h348v-692h-348zM455 1638v14l218 370h390v-14l-310 -370h-298z" />
    <glyph glyph-name="Thorn" unicode="&#xde;" 
d="M321 266v306h271q92 0 144 44.5t52 121.5v26q0 77 -52 121.5t-144 44.5h-271v306h273q165 0 284.5 -58t183.5 -166t64 -257v-8q0 -149 -64 -257t-183.5 -166t-284.5 -58h-273zM110 0v1432h344v-1432h-344z" />
    <glyph glyph-name="germandbls" unicode="&#xdf;" 
d="M775 -35q-71 0 -129 8t-123 27l67 257q35 -13 67 -19.5t66 -6.5q65 0 101 28.5t36 80.5v4q0 46 -29 80.5t-106 80.5l-70 42q-64 38 -93.5 85.5t-29.5 111.5v2q0 62 25.5 107.5t59.5 83t59.5 74.5t25.5 82v2q0 49 -29 79t-85 30q-68 0 -108 -46t-40 -130v-1028h-340v1036
q0 215 134 336.5t368 121.5q191 0 305.5 -93t114.5 -247v-4q0 -67 -25.5 -116t-59.5 -86.5t-59.5 -71t-25.5 -69.5v-4q0 -31 18 -55t62 -50l70 -42q92 -55 135 -132.5t43 -190.5v-2q0 -167 -110 -266.5t-295 -99.5z" />
    <glyph glyph-name="agrave" unicode="&#xe0;" 
d="M444 -35q-102 0 -180 42.5t-121.5 118t-43.5 173.5v10q0 162 111 258.5t298 96.5q77 0 142.5 -12t123.5 -35v-187q-73 40 -169 40q-79 0 -120 -35.5t-41 -105.5v-16q0 -62 33.5 -95t95.5 -33q53 0 92 27.5t60.5 78t21.5 118.5v243q0 95 -47.5 140t-137.5 45
q-125 0 -237 -105l-170 182q176 175 458 175q230 0 348.5 -106t118.5 -315v-668h-327v129h-10q-46 -78 -123 -121t-176 -43zM504 1260l-310 370v14h390l218 -370v-14h-298z" />
    <glyph glyph-name="aacute" unicode="&#xe1;" 
d="M444 -35q-102 0 -180 42.5t-121.5 118t-43.5 173.5v10q0 162 111 258.5t298 96.5q77 0 142.5 -12t123.5 -35v-187q-73 40 -169 40q-79 0 -120 -35.5t-41 -105.5v-16q0 -62 33.5 -95t95.5 -33q53 0 92 27.5t60.5 78t21.5 118.5v243q0 95 -47.5 140t-137.5 45
q-125 0 -237 -105l-170 182q176 175 458 175q230 0 348.5 -106t118.5 -315v-668h-327v129h-10q-46 -78 -123 -121t-176 -43zM424 1260v14l218 370h390v-14l-310 -370h-298z" />
    <glyph glyph-name="acircumflex" unicode="&#xe2;" 
d="M444 -35q-102 0 -180 42.5t-121.5 118t-43.5 173.5v10q0 162 111 258.5t298 96.5q77 0 142.5 -12t123.5 -35v-187q-73 40 -169 40q-79 0 -120 -35.5t-41 -105.5v-16q0 -62 33.5 -95t95.5 -33q53 0 92 27.5t60.5 78t21.5 118.5v243q0 95 -47.5 140t-137.5 45
q-125 0 -237 -105l-170 182q176 175 458 175q230 0 348.5 -106t118.5 -315v-668h-327v129h-10q-46 -78 -123 -121t-176 -43zM153 1260v14l296 370h328l296 -370v-14h-330l-166 299h72l-166 -299h-330z" />
    <glyph glyph-name="atilde" unicode="&#xe3;" 
d="M444 -35q-102 0 -180 42.5t-121.5 118t-43.5 173.5v10q0 162 111 258.5t298 96.5q77 0 142.5 -12t123.5 -35v-187q-73 40 -169 40q-79 0 -120 -35.5t-41 -105.5v-16q0 -62 33.5 -95t95.5 -33q53 0 92 27.5t60.5 78t21.5 118.5v243q0 95 -47.5 140t-137.5 45
q-125 0 -237 -105l-170 182q176 175 458 175q230 0 348.5 -106t118.5 -315v-668h-327v129h-10q-46 -78 -123 -121t-176 -43zM792 1257q-47 0 -95 20.5t-96 62.5q-37 33 -60 48.5t-44 15.5q-53 0 -53 -64v-80h-238v89q0 145 61.5 221.5t177.5 76.5q47 0 90 -18.5t90 -62.5
q37 -34 61 -50t46 -16q50 0 50 64v80h238v-88q0 -146 -56.5 -222.5t-171.5 -76.5z" />
    <glyph glyph-name="adieresis" unicode="&#xe4;" 
d="M444 -35q-102 0 -180 42.5t-121.5 118t-43.5 173.5v10q0 162 111 258.5t298 96.5q77 0 142.5 -12t123.5 -35v-187q-73 40 -169 40q-79 0 -120 -35.5t-41 -105.5v-16q0 -62 33.5 -95t95.5 -33q53 0 92 27.5t60.5 78t21.5 118.5v243q0 95 -47.5 140t-137.5 45
q-125 0 -237 -105l-170 182q176 175 458 175q230 0 348.5 -106t118.5 -315v-668h-327v129h-10q-46 -78 -123 -121t-176 -43zM323 1235q-86 0 -146 59.5t-60 144.5t60 144.5t146 59.5q87 0 146.5 -59t59.5 -145t-59 -145t-147 -59zM903 1235q-86 0 -146 59.5t-60 144.5
t60 144.5t146 59.5q87 0 146.5 -59t59.5 -145t-59 -145t-147 -59z" />
    <glyph glyph-name="aring" unicode="&#xe5;" 
d="M444 -35q-102 0 -180 42.5t-121.5 118t-43.5 173.5v10q0 162 111 258.5t298 96.5q77 0 142.5 -12t123.5 -35v-187q-73 40 -169 40q-79 0 -120 -35.5t-41 -105.5v-16q0 -62 33.5 -95t95.5 -33q53 0 92 27.5t60.5 78t21.5 118.5v243q0 95 -47.5 140t-137.5 45
q-125 0 -237 -105l-170 182q176 175 458 175q230 0 348.5 -106t118.5 -315v-668h-327v129h-10q-46 -78 -123 -121t-176 -43zM451 1189.5q-73 41.5 -116.5 112t-43.5 156.5t43.5 156.5t116.5 112t162 41.5t162 -41.5t116.5 -112t43.5 -156.5t-43.5 -156.5t-116.5 -112
t-162 -41.5t-162 41.5zM697.5 1375q33.5 33 33.5 83t-33.5 83t-84.5 33t-84.5 -33t-33.5 -83t33.5 -83t84.5 -33t84.5 33z" />
    <glyph glyph-name="ae" unicode="&#xe6;" 
d="M339 -35q-104 0 -179 41.5t-115 119.5t-40 185v10q0 157 85.5 250t229.5 93q94 0 153 -38v-186q-37 30 -79 30t-63 -31t-21 -92v-16q0 -61 18 -93.5t51 -32.5q35 0 51 38.5t16 125.5v283q0 98 -22 141.5t-72 43.5q-65 0 -142 -85l-170 162q132 175 328 175
q127 0 210.5 -75t110.5 -212h-168q42 140 128 213.5t208 73.5q159 0 246 -129t87 -365q0 -37 -1 -69.5t-4 -76.5h-578v186h325l-10 -9q0 211 -95 211q-55 0 -81.5 -74t-26.5 -233v-29q0 -142 28.5 -219t80.5 -77q37 0 61 34t45 117l249 -87q-48 -157 -129 -230.5t-205 -73.5
q-130 0 -220.5 96t-121.5 268h175q-40 -184 -124.5 -274t-218.5 -90z" />
    <glyph glyph-name="ccedilla" unicode="&#xe7;" 
d="M647 -35q-163 0 -283.5 69t-187 194t-66.5 293v12q0 168 67.5 293t190.5 194t287 69q191 0 317.5 -98t161.5 -273l-311 -79q-13 80 -57 120t-117 40q-95 0 -149 -68.5t-54 -190.5v-26q0 -119 54.5 -189t148.5 -70q77 0 124.5 43.5t64.5 122.5l312 -88
q-25 -112 -95.5 -194.5t-175 -128t-232.5 -45.5zM653 -674q-105 0 -197 57.5t-142 152.5l188 106q57 -110 149 -110q47 0 76 25.5t29 68.5q0 44 -26 68.5t-70 24.5q-49 0 -93 -28l-125 104l139 226h168l-172 -273l-83 54q41 44 94 67t111 23q124 0 198.5 -75.5t74.5 -200.5
q0 -128 -89 -209t-230 -81z" />
    <glyph glyph-name="egrave" unicode="&#xe8;" 
d="M622 -35q-167 0 -290 68t-190.5 192.5t-67.5 291.5v17q0 167 69 291.5t193 194t288 69.5q148 0 258.5 -61t171.5 -172t61 -261q0 -44 -3 -81t-11 -65h-855v187h561v-10q0 94 -47 145.5t-133 51.5q-106 0 -167.5 -78t-61.5 -215v-9q0 -133 59 -209t164 -76q138 0 193 135
l294 -112q-58 -138 -185.5 -216t-300.5 -78zM479 1260l-310 370v14h390l218 -370v-14h-298z" />
    <glyph glyph-name="eacute" unicode="&#xe9;" 
d="M622 -35q-167 0 -290 68t-190.5 192.5t-67.5 291.5v17q0 167 69 291.5t193 194t288 69.5q148 0 258.5 -61t171.5 -172t61 -261q0 -44 -3 -81t-11 -65h-855v187h561v-10q0 94 -47 145.5t-133 51.5q-106 0 -167.5 -78t-61.5 -215v-9q0 -133 59 -209t164 -76q138 0 193 135
l294 -112q-58 -138 -185.5 -216t-300.5 -78zM479 1260v14l218 370h390v-14l-310 -370h-298z" />
    <glyph glyph-name="ecircumflex" unicode="&#xea;" 
d="M622 -35q-167 0 -290 68t-190.5 192.5t-67.5 291.5v17q0 167 69 291.5t193 194t288 69.5q148 0 258.5 -61t171.5 -172t61 -261q0 -44 -3 -81t-11 -65h-855v187h561v-10q0 94 -47 145.5t-133 51.5q-106 0 -167.5 -78t-61.5 -215v-9q0 -133 59 -209t164 -76q138 0 193 135
l294 -112q-58 -138 -185.5 -216t-300.5 -78zM168 1260v14l296 370h328l296 -370v-14h-330l-166 299h72l-166 -299h-330z" />
    <glyph glyph-name="edieresis" unicode="&#xeb;" 
d="M622 -35q-167 0 -290 68t-190.5 192.5t-67.5 291.5v17q0 167 69 291.5t193 194t288 69.5q148 0 258.5 -61t171.5 -172t61 -261q0 -44 -3 -81t-11 -65h-855v187h561v-10q0 94 -47 145.5t-133 51.5q-106 0 -167.5 -78t-61.5 -215v-9q0 -133 59 -209t164 -76q138 0 193 135
l294 -112q-58 -138 -185.5 -216t-300.5 -78zM338 1235q-86 0 -146 59.5t-60 144.5t60 144.5t146 59.5q87 0 146.5 -59t59.5 -145t-59 -145t-147 -59zM918 1235q-86 0 -146 59.5t-60 144.5t60 144.5t146 59.5q87 0 146.5 -59t59.5 -145t-59 -145t-147 -59z" />
    <glyph glyph-name="igrave" unicode="&#xec;" 
d="M487 83v971h336v-971h-336zM155 0v250h971v-250h-971zM175 804v250h612v-250h-612zM506 1260l-310 370v14h390l218 -370v-14h-298z" />
    <glyph glyph-name="iacute" unicode="&#xed;" 
d="M487 83v971h336v-971h-336zM155 0v250h971v-250h-971zM175 804v250h612v-250h-612zM506 1260v14l218 370h390v-14l-310 -370h-298z" />
    <glyph glyph-name="icircumflex" unicode="&#xee;" 
d="M487 83v971h336v-971h-336zM155 0v250h971v-250h-971zM175 804v250h612v-250h-612zM195 1260v14l296 370h328l296 -370v-14h-330l-166 299h72l-166 -299h-330z" />
    <glyph glyph-name="idieresis" unicode="&#xef;" 
d="M487 83v971h336v-971h-336zM155 0v250h971v-250h-971zM175 804v250h612v-250h-612zM365 1235q-86 0 -146 59.5t-60 144.5t60 144.5t146 59.5q87 0 146.5 -59t59.5 -145t-59 -145t-147 -59zM945 1235q-86 0 -146 59.5t-60 144.5t60 144.5t146 59.5q87 0 146.5 -59
t59.5 -145t-59 -145t-147 -59z" />
    <glyph glyph-name="eth" unicode="&#xf0;" 
d="M602 -35q-151 0 -268.5 69.5t-184.5 190.5t-67 276v12q0 147 57 261.5t159.5 180.5t238.5 66q113 0 182 -52t103 -139l-51 35l41 10q-17 134 -67.5 233.5t-144 179t-243.5 152.5l126 204q223 -126 368 -280.5t216 -341.5t71 -413v-12q0 -218 -69.5 -358t-190.5 -207
t-276 -67zM610 263q89 0 140.5 68t51.5 180v4q0 113 -51.5 180.5t-140.5 67.5q-88 0 -140 -67.5t-52 -180.5v-4q0 -112 52 -180t140 -68zM272 1099l-45 193l425 86l108 -162zM803 1242l-108 162l396 95l46 -193z" />
    <glyph glyph-name="ntilde" unicode="&#xf1;" 
d="M122 0v1054h327v-159h9q59 93 144.5 143.5t191.5 50.5q141 0 223.5 -96.5t82.5 -260.5v-732h-343v653q0 73 -32 113.5t-97 40.5q-74 0 -118.5 -52.5t-44.5 -135.5v-619h-343zM794 1257q-47 0 -95 20.5t-96 62.5q-37 33 -60 48.5t-44 15.5q-53 0 -53 -64v-80h-238v89
q0 145 61.5 221.5t177.5 76.5q47 0 90 -18.5t90 -62.5q37 -34 61 -50t46 -16q50 0 50 64v80h238v-88q0 -146 -56.5 -222.5t-171.5 -76.5z" />
    <glyph glyph-name="ograve" unicode="&#xf2;" 
d="M324 36.5q-121 71.5 -189.5 196.5t-68.5 284v20q0 160 68.5 284.5t189.5 196t276.5 71.5t276 -71.5t189 -196t68.5 -284.5v-20q0 -159 -68.5 -284t-189 -196.5t-276 -71.5t-276.5 71.5zM742.5 333.5q53.5 70.5 53.5 187.5v12q0 117 -53.5 187.5t-142 70.5t-142.5 -70.5
t-54 -187.5v-12q0 -117 54 -187.5t142.5 -70.5t142 70.5zM451 1260l-310 370v14h390l218 -370v-14h-298z" />
    <glyph glyph-name="oacute" unicode="&#xf3;" 
d="M324 36.5q-121 71.5 -189.5 196.5t-68.5 284v20q0 160 68.5 284.5t189.5 196t276.5 71.5t276 -71.5t189 -196t68.5 -284.5v-20q0 -159 -68.5 -284t-189 -196.5t-276 -71.5t-276.5 71.5zM742.5 333.5q53.5 70.5 53.5 187.5v12q0 117 -53.5 187.5t-142 70.5t-142.5 -70.5
t-54 -187.5v-12q0 -117 54 -187.5t142.5 -70.5t142 70.5zM451 1260v14l218 370h390v-14l-310 -370h-298z" />
    <glyph glyph-name="ocircumflex" unicode="&#xf4;" 
d="M324 36.5q-121 71.5 -189.5 196.5t-68.5 284v20q0 160 68.5 284.5t189.5 196t276.5 71.5t276 -71.5t189 -196t68.5 -284.5v-20q0 -159 -68.5 -284t-189 -196.5t-276 -71.5t-276.5 71.5zM742.5 333.5q53.5 70.5 53.5 187.5v12q0 117 -53.5 187.5t-142 70.5t-142.5 -70.5
t-54 -187.5v-12q0 -117 54 -187.5t142.5 -70.5t142 70.5zM140 1260v14l296 370h328l296 -370v-14h-330l-166 299h72l-166 -299h-330z" />
    <glyph glyph-name="otilde" unicode="&#xf5;" 
d="M324 36.5q-121 71.5 -189.5 196.5t-68.5 284v20q0 160 68.5 284.5t189.5 196t276.5 71.5t276 -71.5t189 -196t68.5 -284.5v-20q0 -159 -68.5 -284t-189 -196.5t-276 -71.5t-276.5 71.5zM742.5 333.5q53.5 70.5 53.5 187.5v12q0 117 -53.5 187.5t-142 70.5t-142.5 -70.5
t-54 -187.5v-12q0 -117 54 -187.5t142.5 -70.5t142 70.5zM779 1257q-47 0 -95 20.5t-96 62.5q-37 33 -60 48.5t-44 15.5q-53 0 -53 -64v-80h-238v89q0 145 61.5 221.5t177.5 76.5q47 0 90 -18.5t90 -62.5q37 -34 61 -50t46 -16q50 0 50 64v80h238v-88q0 -146 -56.5 -222.5
t-171.5 -76.5z" />
    <glyph glyph-name="odieresis" unicode="&#xf6;" 
d="M324 36.5q-121 71.5 -189.5 196.5t-68.5 284v20q0 160 68.5 284.5t189.5 196t276.5 71.5t276 -71.5t189 -196t68.5 -284.5v-20q0 -159 -68.5 -284t-189 -196.5t-276 -71.5t-276.5 71.5zM742.5 333.5q53.5 70.5 53.5 187.5v12q0 117 -53.5 187.5t-142 70.5t-142.5 -70.5
t-54 -187.5v-12q0 -117 54 -187.5t142.5 -70.5t142 70.5zM310 1235q-86 0 -146 59.5t-60 144.5t60 144.5t146 59.5q87 0 146.5 -59t59.5 -145t-59 -145t-147 -59zM890 1235q-86 0 -146 59.5t-60 144.5t60 144.5t146 59.5q87 0 146.5 -59t59.5 -145t-59 -145t-147 -59z" />
    <glyph glyph-name="divide" unicode="&#xf7;" 
d="M114 485v320h972v-320h-972zM459.5 935q-56.5 56 -56.5 138t56.5 138t140.5 56t140 -55.5t56 -138t-56 -138.5t-140 -56t-140.5 56zM459.5 79q-56.5 56 -56.5 138t56.5 138t140.5 56t140 -55.5t56 -138t-56 -138.5t-140 -56t-140.5 56z" />
    <glyph glyph-name="oslash" unicode="&#xf8;" 
d="M241 -187l-181 115l899 1313l181 -115zM610 -35q-112 0 -211.5 45t-175.5 122.5t-119.5 177t-43.5 207.5v20q0 160 68.5 284.5t188 196t273.5 71.5q112 0 211.5 -45t175.5 -122.5t119.5 -176.5t43.5 -208v-20q0 -159 -68.5 -284t-188 -196.5t-273.5 -71.5zM600 209
q115 0 181.5 86.5t66.5 245.5v12q0 163 -58.5 227.5t-189.5 64.5q-115 0 -181.5 -86.5t-66.5 -245.5v-12q0 -163 59 -227.5t189 -64.5z" />
    <glyph glyph-name="ugrave" unicode="&#xf9;" 
d="M430 -35q-142 0 -222 95t-80 258v736h342v-655q0 -71 33 -110.5t91 -39.5q61 0 95.5 50.5t34.5 138.5v616h343v-1054h-327v160h-11q-46 -85 -122 -140t-177 -55zM448 1260l-310 370v14h390l218 -370v-14h-298z" />
    <glyph glyph-name="uacute" unicode="&#xfa;" 
d="M430 -35q-142 0 -222 95t-80 258v736h342v-655q0 -71 33 -110.5t91 -39.5q61 0 95.5 50.5t34.5 138.5v616h343v-1054h-327v160h-11q-46 -85 -122 -140t-177 -55zM448 1260v14l218 370h390v-14l-310 -370h-298z" />
    <glyph glyph-name="ucircumflex" unicode="&#xfb;" 
d="M430 -35q-142 0 -222 95t-80 258v736h342v-655q0 -71 33 -110.5t91 -39.5q61 0 95.5 50.5t34.5 138.5v616h343v-1054h-327v160h-11q-46 -85 -122 -140t-177 -55zM137 1260v14l296 370h328l296 -370v-14h-330l-166 299h72l-166 -299h-330z" />
    <glyph glyph-name="udieresis" unicode="&#xfc;" 
d="M430 -35q-142 0 -222 95t-80 258v736h342v-655q0 -71 33 -110.5t91 -39.5q61 0 95.5 50.5t34.5 138.5v616h343v-1054h-327v160h-11q-46 -85 -122 -140t-177 -55zM307 1235q-86 0 -146 59.5t-60 144.5t60 144.5t146 59.5q87 0 146.5 -59t59.5 -145t-59 -145t-147 -59z
M887 1235q-86 0 -146 59.5t-60 144.5t60 144.5t146 59.5q87 0 146.5 -59t59.5 -145t-59 -145t-147 -59z" />
    <glyph glyph-name="yacute" unicode="&#xfd;" 
d="M328 -451q-189 0 -321 111l162 252q78 -65 151 -65q50 0 81.5 24.5t51.5 79.5l98 266h67l92 404l124 433h352l-428 -1156q-68 -184 -169.5 -266.5t-260.5 -82.5zM494 -84l-420 1138h354l132 -433l69 -289h110zM483 1260v14l218 370h390v-14l-310 -370h-298z" />
    <glyph glyph-name="thorn" unicode="&#xfe;" 
d="M108 -406v1866h342v-557h10q46 89 121.5 137.5t167.5 48.5q112 0 195 -69.5t129.5 -194.5t46.5 -293v-10q0 -168 -46.5 -293.5t-130 -194.5t-195.5 -69q-92 0 -163.5 44t-124.5 134h-10v-549h-342zM613 244q80 0 122.5 70t42.5 201v24q0 131 -42 201t-122 70
q-79 0 -126.5 -75t-47.5 -202v-11q0 -127 47 -202.5t126 -75.5z" />
    <glyph glyph-name="ydieresis" unicode="&#xff;" 
d="M328 -451q-189 0 -321 111l162 252q78 -65 151 -65q50 0 81.5 24.5t51.5 79.5l98 266h67l92 404l124 433h352l-428 -1156q-68 -184 -169.5 -266.5t-260.5 -82.5zM494 -84l-420 1138h354l132 -433l69 -289h110zM342 1235q-86 0 -146 59.5t-60 144.5t60 144.5t146 59.5
q87 0 146.5 -59t59.5 -145t-59 -145t-147 -59zM922 1235q-86 0 -146 59.5t-60 144.5t60 144.5t146 59.5q87 0 146.5 -59t59.5 -145t-59 -145t-147 -59z" />
    <glyph glyph-name="Amacron" unicode="&#x100;" 
d="M2 0l445 1432h310l441 -1432h-356l-193 826l-50 228h-7l-44 -228l-197 -826h-349zM209 245l84 266h594l91 -266h-769zM277 1684v274h650v-274h-650z" />
    <glyph glyph-name="amacron" unicode="&#x101;" 
d="M444 -35q-102 0 -180 42.5t-121.5 118t-43.5 173.5v10q0 162 111 258.5t298 96.5q77 0 142.5 -12t123.5 -35v-187q-73 40 -169 40q-79 0 -120 -35.5t-41 -105.5v-16q0 -62 33.5 -95t95.5 -33q53 0 92 27.5t60.5 78t21.5 118.5v243q0 95 -47.5 140t-137.5 45
q-125 0 -237 -105l-170 182q176 175 458 175q230 0 348.5 -106t118.5 -315v-668h-327v129h-10q-46 -78 -123 -121t-176 -43zM288 1306v274h650v-274h-650z" />
    <glyph glyph-name="Abreve" unicode="&#x102;" 
d="M2 0l445 1432h310l441 -1432h-356l-193 826l-50 228h-7l-44 -228l-197 -826h-349zM209 245l84 266h594l91 -266h-769zM393 1672.5q-90 48.5 -139.5 135.5t-49.5 202v12h246v-18q0 -73 40.5 -114.5t111.5 -41.5t111.5 41.5t40.5 114.5v18h246v-12q0 -115 -49.5 -202
t-139 -135.5t-209 -48.5t-209.5 48.5z" />
    <glyph glyph-name="abreve" unicode="&#x103;" 
d="M444 -35q-102 0 -180 42.5t-121.5 118t-43.5 173.5v10q0 162 111 258.5t298 96.5q77 0 142.5 -12t123.5 -35v-187q-73 40 -169 40q-79 0 -120 -35.5t-41 -105.5v-16q0 -62 33.5 -95t95.5 -33q53 0 92 27.5t60.5 78t21.5 118.5v243q0 95 -47.5 140t-137.5 45
q-125 0 -237 -105l-170 182q176 175 458 175q230 0 348.5 -106t118.5 -315v-668h-327v129h-10q-46 -78 -123 -121t-176 -43zM404 1294.5q-90 48.5 -139.5 135.5t-49.5 202v12h246v-18q0 -73 40.5 -114.5t111.5 -41.5t111.5 41.5t40.5 114.5v18h246v-12q0 -115 -49.5 -202
t-139 -135.5t-209 -48.5t-209.5 48.5z" />
    <glyph glyph-name="Aogonek" unicode="&#x104;" 
d="M2 0l445 1432h310l441 -1432h-356l-193 826l-50 228h-7l-44 -228l-197 -826h-349zM209 245l84 266h594l91 -266h-769zM1042 -552q-84 0 -151.5 37.5t-106.5 102t-39 145.5q0 125 93 220.5t292 166.5l68 -120q-103 -54 -149 -102.5t-46 -108.5q0 -44 30.5 -70.5
t76.5 -26.5q40 0 78 17l64 -205q-96 -56 -210 -56z" />
    <glyph glyph-name="aogonek" unicode="&#x105;" 
d="M924 -552q-84 0 -151.5 37.5t-106.5 102t-39 145.5q0 125 93 220.5t292 166.5l68 -120q-103 -54 -149 -102.5t-46 -108.5q0 -44 30.5 -70.5t76.5 -26.5q40 0 78 17l64 -205q-96 -56 -210 -56zM444 -35q-102 0 -180 42.5t-121.5 118t-43.5 173.5v10q0 162 111 258.5
t298 96.5q77 0 142.5 -12t123.5 -35v-187q-73 40 -169 40q-79 0 -120 -35.5t-41 -105.5v-16q0 -62 33.5 -95t95.5 -33q53 0 92 27.5t60.5 78t21.5 118.5v243q0 95 -47.5 140t-137.5 45q-125 0 -237 -105l-170 182q176 175 458 175q230 0 348.5 -106t118.5 -315v-668h-327
v129h-10q-46 -78 -123 -121t-176 -43z" />
    <glyph glyph-name="Cacute" unicode="&#x106;" 
d="M658 -35q-177 0 -309.5 91t-206.5 255t-74 382v46q0 221 71.5 384.5t202 253.5t305.5 90q192 0 318.5 -106.5t168.5 -303.5l-321 -91q-19 86 -59.5 126.5t-110.5 40.5q-107 0 -166 -102t-59 -287v-56q0 -182 63 -285.5t173 -103.5q139 0 177 177l321 -91
q-43 -198 -173 -309t-321 -111zM496 1638v14l218 370h390v-14l-310 -370h-298z" />
    <glyph glyph-name="cacute" unicode="&#x107;" 
d="M647 -35q-163 0 -283.5 69t-187 194t-66.5 293v12q0 168 67.5 293t190.5 194t287 69q191 0 317.5 -98t161.5 -273l-311 -79q-13 80 -57 120t-117 40q-95 0 -149 -68.5t-54 -190.5v-26q0 -119 54.5 -189t148.5 -70q77 0 124.5 43.5t64.5 122.5l312 -88
q-25 -112 -95.5 -194.5t-175 -128t-232.5 -45.5zM503 1260v14l218 370h390v-14l-310 -370h-298z" />
    <glyph glyph-name="Cdotaccent" unicode="&#x10a;" 
d="M658 -35q-177 0 -309.5 91t-206.5 255t-74 382v46q0 221 71.5 384.5t202 253.5t305.5 90q192 0 318.5 -106.5t168.5 -303.5l-321 -91q-19 86 -59.5 126.5t-110.5 40.5q-107 0 -166 -102t-59 -287v-56q0 -182 63 -285.5t173 -103.5q139 0 177 177l321 -91
q-43 -198 -173 -309t-321 -111zM645 1613q-90 0 -153 61.5t-63 152.5q0 89 62.5 151.5t153.5 62.5q92 0 154 -62.5t62 -151.5q0 -91 -62 -152.5t-154 -61.5z" />
    <glyph glyph-name="cdotaccent" unicode="&#x10b;" 
d="M647 -35q-163 0 -283.5 69t-187 194t-66.5 293v12q0 168 67.5 293t190.5 194t287 69q191 0 317.5 -98t161.5 -273l-311 -79q-13 80 -57 120t-117 40q-95 0 -149 -68.5t-54 -190.5v-26q0 -119 54.5 -189t148.5 -70q77 0 124.5 43.5t64.5 122.5l312 -88
q-25 -112 -95.5 -194.5t-175 -128t-232.5 -45.5zM652 1235q-90 0 -153 61.5t-63 152.5q0 89 62.5 151.5t153.5 62.5q92 0 154 -62.5t62 -151.5q0 -91 -62 -152.5t-154 -61.5z" />
    <glyph glyph-name="Ccaron" unicode="&#x10c;" 
d="M658 -35q-177 0 -309.5 91t-206.5 255t-74 382v46q0 221 71.5 384.5t202 253.5t305.5 90q192 0 318.5 -106.5t168.5 -303.5l-321 -91q-19 86 -59.5 126.5t-110.5 40.5q-107 0 -166 -102t-59 -287v-56q0 -182 63 -285.5t173 -103.5q139 0 177 177l321 -91
q-43 -198 -173 -309t-321 -111zM481 1638l-296 370v14h330l166 -299h-72l166 299h330v-14l-296 -370h-328z" />
    <glyph glyph-name="ccaron" unicode="&#x10d;" 
d="M647 -35q-163 0 -283.5 69t-187 194t-66.5 293v12q0 168 67.5 293t190.5 194t287 69q191 0 317.5 -98t161.5 -273l-311 -79q-13 80 -57 120t-117 40q-95 0 -149 -68.5t-54 -190.5v-26q0 -119 54.5 -189t148.5 -70q77 0 124.5 43.5t64.5 122.5l312 -88
q-25 -112 -95.5 -194.5t-175 -128t-232.5 -45.5zM488 1260l-296 370v14h330l166 -299h-72l166 299h330v-14l-296 -370h-328z" />
    <glyph glyph-name="Dcaron" unicode="&#x10e;" 
d="M108 0v1432h431q179 0 311.5 -85.5t205 -241t72.5 -366.5v-46q0 -211 -72.5 -366.5t-205 -241t-311.5 -85.5h-431zM452 330h84q122 0 182 89.5t60 268.5v56q0 179 -61 268.5t-181 89.5h-84v-772zM404 1638l-296 370v14h330l166 -299h-72l166 299h330v-14l-296 -370h-328z
" />
    <glyph glyph-name="dcaron" unicode="&#x10f;" 
d="M356 -35q-91 0 -166 64.5t-119.5 187t-44.5 296.5v28q0 175 42.5 297.5t115.5 186.5t164 64q74 0 128 -44.5t90 -133.5h10v549h312v-1460h-303v151h-10q-34 -88 -90 -137t-129 -49zM468 235q54 0 86 71t32 199v43q0 128 -32 199.5t-86 71.5q-57 0 -89 -70t-32 -201v-43
q0 -131 32 -200.5t89 -69.5zM948 920l20 540h264l-54 -540h-230z" />
    <glyph glyph-name="Dcroat" unicode="&#x110;" 
d="M170 0v1432h416q184 0 315.5 -83.5t202 -238.5t70.5 -371v-46q0 -216 -70.5 -371.5t-202 -238.5t-315.5 -83h-416zM34 580v308h695v-308h-695zM470 314h117q145 0 206 92.5t61 281.5v56q0 189 -61 281.5t-206 92.5h-117v-804z" />
    <glyph glyph-name="dcroat" unicode="&#x111;" 
d="M451 -35q-111 0 -199.5 67t-140 183t-51.5 264v8q0 148 49.5 264t136 183t197.5 67q101 0 171 -48.5t117 -143.5h10v706h312v-1515h-313v151h-10q-43 -88 -115.5 -137t-163.5 -49zM567 245q80 0 127 68t47 174v11q0 106 -47 174.5t-127 68.5q-84 0 -131 -64t-47 -173v-22
q0 -109 47 -173t131 -64zM413 1129v226h810v-226h-810z" />
    <glyph glyph-name="Emacron" unicode="&#x112;" 
d="M130 0v1432h916v-322h-572v-788h588v-322h-932zM346 570v318h620v-318h-620zM263 1684v274h650v-274h-650z" />
    <glyph glyph-name="emacron" unicode="&#x113;" 
d="M622 -35q-167 0 -290 68t-190.5 192.5t-67.5 291.5v17q0 167 69 291.5t193 194t288 69.5q148 0 258.5 -61t171.5 -172t61 -261q0 -44 -3 -81t-11 -65h-855v187h561v-10q0 94 -47 145.5t-133 51.5q-106 0 -167.5 -78t-61.5 -215v-9q0 -133 59 -209t164 -76q138 0 193 135
l294 -112q-58 -138 -185.5 -216t-300.5 -78zM303 1306v274h650v-274h-650z" />
    <glyph glyph-name="Edotaccent" unicode="&#x116;" 
d="M130 0v1432h916v-322h-572v-788h588v-322h-932zM346 570v318h620v-318h-620zM588 1613q-90 0 -153 61.5t-63 152.5q0 89 62.5 151.5t153.5 62.5q92 0 154 -62.5t62 -151.5q0 -91 -62 -152.5t-154 -61.5z" />
    <glyph glyph-name="edotaccent" unicode="&#x117;" 
d="M622 -35q-167 0 -290 68t-190.5 192.5t-67.5 291.5v17q0 167 69 291.5t193 194t288 69.5q148 0 258.5 -61t171.5 -172t61 -261q0 -44 -3 -81t-11 -65h-855v187h561v-10q0 94 -47 145.5t-133 51.5q-106 0 -167.5 -78t-61.5 -215v-9q0 -133 59 -209t164 -76q138 0 193 135
l294 -112q-58 -138 -185.5 -216t-300.5 -78zM628 1235q-90 0 -153 61.5t-63 152.5q0 89 62.5 151.5t153.5 62.5q92 0 154 -62.5t62 -151.5q0 -91 -62 -152.5t-154 -61.5z" />
    <glyph glyph-name="Eogonek" unicode="&#x118;" 
d="M130 0v1432h916v-322h-572v-788h588v-322h-932zM346 570v318h620v-318h-620zM906 -552q-84 0 -151.5 37.5t-106.5 102t-39 145.5q0 125 93 220.5t292 166.5l68 -120q-103 -54 -149 -102.5t-46 -108.5q0 -44 30.5 -70.5t76.5 -26.5q40 0 78 17l64 -205q-96 -56 -210 -56z
" />
    <glyph glyph-name="eogonek" unicode="&#x119;" 
d="M756 -552q-88 0 -157.5 35.5t-110 97t-40.5 139.5q0 128 90 224t295 176l-35 -123q-81 -24 -176 -24q-167 0 -290 67.5t-190.5 189.5t-67.5 287v17q0 167 69 291.5t193 194t288 69.5q148 0 258.5 -61t171.5 -172t61 -261q0 -44 -3 -81t-11 -65h-855v187h571l-10 -10
q0 94 -47 145.5t-133 51.5q-106 0 -167.5 -78t-61.5 -215v-9q0 -133 59 -209t164 -76q138 0 193 135l294 -112q-30 -72 -88 -137t-157 -130q-89 -58 -123 -102.5t-34 -96.5q0 -45 30.5 -73t76.5 -28q47 0 94 24l74 -208q-52 -30 -106.5 -45t-118.5 -15z" />
    <glyph glyph-name="Ecaron" unicode="&#x11a;" 
d="M130 0v1432h916v-322h-572v-788h588v-322h-932zM346 570v318h620v-318h-620zM424 1638l-296 370v14h330l166 -299h-72l166 299h330v-14l-296 -370h-328z" />
    <glyph glyph-name="ecaron" unicode="&#x11b;" 
d="M622 -35q-167 0 -290 68t-190.5 192.5t-67.5 291.5v17q0 167 69 291.5t193 194t288 69.5q148 0 258.5 -61t171.5 -172t61 -261q0 -44 -3 -81t-11 -65h-855v187h561v-10q0 94 -47 145.5t-133 51.5q-106 0 -167.5 -78t-61.5 -215v-9q0 -133 59 -209t164 -76q138 0 193 135
l294 -112q-58 -138 -185.5 -216t-300.5 -78zM464 1260l-296 370v14h330l166 -299h-72l166 299h330v-14l-296 -370h-328z" />
    <glyph glyph-name="Gbreve" unicode="&#x11e;" 
d="M650 -35q-184 0 -317.5 89t-206 253t-72.5 389v39q0 224 72 388.5t204 254t312 89.5q191 0 317.5 -98.5t175.5 -286.5l-313 -101q-21 85 -63 122.5t-116 37.5q-117 0 -177.5 -102t-60.5 -299v-49q0 -199 63 -302.5t184 -103.5q94 0 146.5 62t52.5 169v41h-260v271h579
v-234q0 -303 -134.5 -466t-385.5 -163zM434 1672.5q-90 48.5 -139.5 135.5t-49.5 202v12h246v-18q0 -73 40.5 -114.5t111.5 -41.5t111.5 41.5t40.5 114.5v18h246v-12q0 -115 -49.5 -202t-139 -135.5t-209 -48.5t-209.5 48.5z" />
    <glyph glyph-name="gbreve" unicode="&#x11f;" 
d="M601 -572q-170 0 -300 47.5t-203 132.5t-73 195q0 116 75.5 196t210.5 105l46 -133q-17 -29 -24.5 -57t-7.5 -60q0 -83 73 -129t206 -46q130 0 205.5 38.5t75.5 104.5q0 90 -117 90h-540v111l215 338l175 -20l-57 -178h277q164 0 255.5 -80.5t91.5 -226.5
q0 -132 -71 -228t-201.5 -148t-311.5 -52zM612 270q-140 0 -251.5 53.5t-176 145.5t-64.5 208v4q0 121 59.5 212.5t165 143t244.5 51.5q140 0 251.5 -53.5t176.5 -145.5t65 -208v-4q0 -121 -59.5 -212.5t-165.5 -143t-245 -51.5zM601 530q86 0 133 37.5t47 107.5v5
q0 70 -47 108t-133 38q-87 0 -134 -38t-47 -108v-5q0 -70 47 -107.5t134 -37.5zM842 923l-107 66q32 149 138.5 225.5t282.5 76.5v-267q-216 0 -314 -101zM386 1294.5q-90 48.5 -139.5 135.5t-49.5 202v12h246v-18q0 -73 40.5 -114.5t111.5 -41.5t111.5 41.5t40.5 114.5v18
h246v-12q0 -115 -49.5 -202t-139 -135.5t-209 -48.5t-209.5 48.5z" />
    <glyph glyph-name="Gdotaccent" unicode="&#x120;" 
d="M650 -35q-184 0 -317.5 89t-206 253t-72.5 389v39q0 224 72 388.5t204 254t312 89.5q191 0 317.5 -98.5t175.5 -286.5l-313 -101q-21 85 -63 122.5t-116 37.5q-117 0 -177.5 -102t-60.5 -299v-49q0 -199 63 -302.5t184 -103.5q94 0 146.5 62t52.5 169v41h-260v271h579
v-234q0 -303 -134.5 -466t-385.5 -163zM643 1613q-90 0 -153 61.5t-63 152.5q0 89 62.5 151.5t153.5 62.5q92 0 154 -62.5t62 -151.5q0 -91 -62 -152.5t-154 -61.5z" />
    <glyph glyph-name="gdotaccent" unicode="&#x121;" 
d="M601 -572q-170 0 -300 47.5t-203 132.5t-73 195q0 116 75.5 196t210.5 105l46 -133q-17 -29 -24.5 -57t-7.5 -60q0 -83 73 -129t206 -46q130 0 205.5 38.5t75.5 104.5q0 90 -117 90h-540v111l215 338l175 -20l-57 -178h277q164 0 255.5 -80.5t91.5 -226.5
q0 -132 -71 -228t-201.5 -148t-311.5 -52zM612 270q-140 0 -251.5 53.5t-176 145.5t-64.5 208v4q0 121 59.5 212.5t165 143t244.5 51.5q140 0 251.5 -53.5t176.5 -145.5t65 -208v-4q0 -121 -59.5 -212.5t-165.5 -143t-245 -51.5zM601 530q86 0 133 37.5t47 107.5v5
q0 70 -47 108t-133 38q-87 0 -134 -38t-47 -108v-5q0 -70 47 -107.5t134 -37.5zM842 923l-107 66q32 149 138.5 225.5t282.5 76.5v-267q-216 0 -314 -101zM595 1235q-90 0 -153 61.5t-63 152.5q0 89 62.5 151.5t153.5 62.5q92 0 154 -62.5t62 -151.5q0 -91 -62 -152.5
t-154 -61.5z" />
    <glyph glyph-name="uni0122" unicode="&#x122;" 
d="M650 -35q-184 0 -317.5 89t-206 253t-72.5 389v39q0 224 72 388.5t204 254t312 89.5q191 0 317.5 -98.5t175.5 -286.5l-313 -101q-21 85 -63 122.5t-116 37.5q-117 0 -177.5 -102t-60.5 -299v-49q0 -199 63 -302.5t184 -103.5q94 0 146.5 62t52.5 169v41h-260v271h579
v-234q0 -303 -134.5 -466t-385.5 -163zM612 -891l-184 130l243 322l-8 -97q-85 5 -140 60t-55 135q0 85 58.5 140t148.5 55q96 0 155.5 -61t59.5 -159q0 -64 -25.5 -128.5t-85.5 -152.5z" />
    <glyph glyph-name="uni0123" unicode="&#x123;" 
d="M601 -572q-170 0 -300 47.5t-203 132.5t-73 195q0 116 75.5 196t210.5 105l46 -133q-17 -29 -24.5 -57t-7.5 -60q0 -83 73 -129t206 -46q130 0 205.5 38.5t75.5 104.5q0 90 -117 90h-540v111l215 338l175 -20l-57 -178h277q164 0 255.5 -80.5t91.5 -226.5
q0 -132 -71 -228t-201.5 -148t-311.5 -52zM612 270q-140 0 -251.5 53.5t-176 145.5t-64.5 208v4q0 121 59.5 212.5t165 143t244.5 51.5q140 0 251.5 -53.5t176.5 -145.5t65 -208v-4q0 -121 -59.5 -212.5t-165.5 -143t-245 -51.5zM601 530q86 0 133 37.5t47 107.5v5
q0 70 -47 108t-133 38q-87 0 -134 -38t-47 -108v-5q0 -70 47 -107.5t134 -37.5zM842 923l-107 66q32 149 138.5 225.5t282.5 76.5v-267q-216 0 -314 -101zM615 2005l184 -130l-243 -322l8 97q86 -5 140.5 -60t54.5 -135q0 -85 -58.5 -140t-148.5 -55q-96 0 -155.5 61
t-59.5 159q0 64 25.5 128.5t85.5 152.5z" />
    <glyph glyph-name="Hbar" unicode="&#x126;" 
d="M726 0v1432h328v-1432h-328zM146 0v1432h328v-1432h-328zM329 516v306h557v-306h-557zM10 998v266h1180v-266h-1180z" />
    <glyph glyph-name="hbar" unicode="&#x127;" 
d="M150 0v1515h312v-701h11q126 187 330 187q139 0 218 -92.5t79 -256.5v-652h-343v574q0 145 -119 145q-64 0 -104.5 -49.5t-40.5 -129.5v-540h-343zM-20 1129v226h816v-226h-816z" />
    <glyph glyph-name="Itilde" unicode="&#x128;" 
d="M425 155v1122h350v-1122h-350zM130 0v326h940v-326h-940zM130 1106v326h940v-326h-940zM779 1635q-47 0 -95 20.5t-96 62.5q-37 33 -60 48.5t-44 15.5q-53 0 -53 -64v-80h-238v89q0 145 61.5 221.5t177.5 76.5q47 0 90 -18.5t90 -62.5q37 -34 61 -50t46 -16q50 0 50 64
v80h238v-88q0 -146 -56.5 -222.5t-171.5 -76.5z" />
    <glyph glyph-name="itilde" unicode="&#x129;" 
d="M487 83v971h336v-971h-336zM155 0v250h971v-250h-971zM175 804v250h612v-250h-612zM834 1257q-47 0 -95 20.5t-96 62.5q-37 33 -60 48.5t-44 15.5q-53 0 -53 -64v-80h-238v89q0 145 61.5 221.5t177.5 76.5q47 0 90 -18.5t90 -62.5q37 -34 61 -50t46 -16q50 0 50 64v80
h238v-88q0 -146 -56.5 -222.5t-171.5 -76.5z" />
    <glyph glyph-name="Imacron" unicode="&#x12a;" 
d="M425 155v1122h350v-1122h-350zM130 0v326h940v-326h-940zM130 1106v326h940v-326h-940zM275 1684v274h650v-274h-650z" />
    <glyph glyph-name="imacron" unicode="&#x12b;" 
d="M487 83v971h336v-971h-336zM155 0v250h971v-250h-971zM175 804v250h612v-250h-612zM330 1306v274h650v-274h-650z" />
    <glyph glyph-name="Iogonek" unicode="&#x12e;" 
d="M425 155v1122h350v-1122h-350zM130 0v326h940v-326h-940zM130 1106v326h940v-326h-940zM633 -552q-84 0 -151.5 37.5t-106.5 102t-39 145.5q0 125 93 220.5t292 166.5l68 -120q-103 -54 -149 -102.5t-46 -108.5q0 -44 30.5 -70.5t76.5 -26.5q40 0 78 17l64 -205
q-96 -56 -210 -56z" />
    <glyph glyph-name="iogonek" unicode="&#x12f;" 
d="M487 83v971h336v-971h-336zM155 0v250h971v-250h-971zM175 804v250h612v-250h-612zM622 1235q-88 0 -150.5 60.5t-62.5 147.5q0 91 62.5 149t150.5 58q92 0 151.5 -58t59.5 -149q0 -87 -59.5 -147.5t-151.5 -60.5zM651 -552q-84 0 -151.5 37.5t-106.5 102t-39 145.5
q0 125 93 220.5t292 166.5l68 -120q-103 -54 -149 -102.5t-46 -108.5q0 -44 30.5 -70.5t76.5 -26.5q40 0 78 17l64 -205q-96 -56 -210 -56z" />
    <glyph glyph-name="Idotaccent" unicode="&#x130;" 
d="M425 155v1122h350v-1122h-350zM130 0v326h940v-326h-940zM130 1106v326h940v-326h-940zM600 1613q-90 0 -153 61.5t-63 152.5q0 89 62.5 151.5t153.5 62.5q92 0 154 -62.5t62 -151.5q0 -91 -62 -152.5t-154 -61.5z" />
    <glyph glyph-name="dotlessi" unicode="&#x131;" 
d="M487 83v971h336v-971h-336zM155 0v250h971v-250h-971zM175 804v250h612v-250h-612z" />
    <glyph glyph-name="IJ" unicode="&#x132;" 
d="M613 -35q-202 0 -336.5 99.5t-186.5 286.5l339 103q40 -149 176 -149q73 0 114 48.5t41 133.5v945h350v-953q0 -153 -62.5 -268.5t-174.5 -180.5t-260 -65zM90 615v817h350v-817h-350z" />
    <glyph glyph-name="ij" unicode="&#x133;" 
d="M689 -451q-211 0 -379 124l162 252q53 -40 100.5 -59t99.5 -19q76 0 116.5 44t40.5 123v1040h340v-1028q0 -223 -127.5 -350t-352.5 -127zM17 0v250h702v-250h-702zM205 83v971h336v-971h-336zM25 804v250h490v-250h-490zM370 1235q-88 0 -150.5 60.5t-62.5 147.5
q0 91 62.5 149t150.5 58q92 0 151.5 -58t59.5 -149q0 -87 -59.5 -147.5t-151.5 -60.5zM629 804v250h452v-250h-452zM969 1235q-89 0 -151 60.5t-62 147.5q0 89 61 148t152 59q92 0 151.5 -58t59.5 -149q0 -88 -60.5 -148t-150.5 -60z" />
    <glyph glyph-name="uni0136" unicode="&#x136;" 
d="M786 0l-377 719v9l361 704h390l-416 -765v132l436 -799h-394zM70 0v1432h348v-1432h-348zM523 -891l-184 130l243 322l-8 -97q-85 5 -140 60t-55 135q0 85 58.5 140t148.5 55q96 0 155.5 -61t59.5 -159q0 -64 -25.5 -128.5t-85.5 -152.5z" />
    <glyph glyph-name="uni0137" unicode="&#x137;" 
d="M788 0l-371 564v8l357 482h378l-410 -542v114l420 -626h-374zM90 0v1460h342v-1460h-342zM537 -875l-184 130l243 322l-8 -97q-85 5 -140 60t-55 135q0 85 58.5 140t148.5 55q96 0 155.5 -61t59.5 -159q0 -64 -25.5 -128.5t-85.5 -152.5z" />
    <glyph glyph-name="kgreenlandic" unicode="&#x138;" 
d="M788 0l-371 564v8l357 482h378l-410 -542v114l420 -626h-374zM90 0v1054h342v-1054h-342z" />
    <glyph glyph-name="Lacute" unicode="&#x139;" 
d="M148 0v1432h348v-1104h624v-328h-972zM173 1638v14l218 370h390v-14l-310 -370h-298z" />
    <glyph glyph-name="lacute" unicode="&#x13a;" 
d="M795 -35q-214 0 -333 117.5t-119 326.5v1051h344v-1029q0 -162 143 -162q38 0 71 14.5t69 48.5l176 -239q-73 -67 -157 -97.5t-194 -30.5zM58 1200v260h556v-260h-556zM366 1666v14l218 370h390v-14l-310 -370h-298z" />
    <glyph glyph-name="uni013B" unicode="&#x13b;" 
d="M148 0v1432h348v-1104h624v-328h-972zM555 -891l-184 130l243 322l-8 -97q-85 5 -140 60t-55 135q0 85 58.5 140t148.5 55q96 0 155.5 -61t59.5 -159q0 -64 -25.5 -128.5t-85.5 -152.5z" />
    <glyph glyph-name="uni013C" unicode="&#x13c;" 
d="M795 -35q-214 0 -333 117.5t-119 326.5v1051h344v-1029q0 -162 143 -162q38 0 71 14.5t69 48.5l176 -239q-73 -67 -157 -97.5t-194 -30.5zM58 1200v260h556v-260h-556zM674 -926l-184 130l243 322l-8 -97q-85 5 -140 60t-55 135q0 85 58.5 140t148.5 55q96 0 155.5 -61
t59.5 -159q0 -64 -25.5 -128.5t-85.5 -152.5z" />
    <glyph glyph-name="Lcaron" unicode="&#x13d;" 
d="M677 872l45 560h348l-111 -560h-282zM148 0v1432h348v-1104h624v-328h-972z" />
    <glyph glyph-name="lcaron" unicode="&#x13e;" 
d="M774 -35q-213 0 -332 117.5t-119 326.5v1051h344v-1029q0 -162 142 -162q38 0 71 14.5t69 48.5l176 -239q-73 -67 -157 -97.5t-194 -30.5zM68 1200v260h526v-260h-526zM789 900l45 560h318l-111 -560h-252z" />
    <glyph glyph-name="Ldot" unicode="&#x13f;" 
d="M148 0v1432h348v-1104h624v-328h-972zM916 625q-91 0 -155.5 63t-64.5 155q0 91 64 154.5t156 63.5q94 0 157 -63.5t63 -154.5q0 -92 -63 -155t-157 -63z" />
    <glyph glyph-name="ldot" unicode="&#x140;" 
d="M795 -35q-214 0 -333 117.5t-119 326.5v1051h344v-1029q0 -162 143 -162q38 0 71 14.5t69 48.5l176 -239q-73 -67 -157 -97.5t-194 -30.5zM58 1200v260h556v-260h-556zM1105 545q-91 0 -155.5 63t-64.5 155q0 91 64 154.5t156 63.5q94 0 157 -63.5t63 -154.5
q0 -92 -63 -155t-157 -63z" />
    <glyph glyph-name="Lslash" unicode="&#x141;" 
d="M258 0v1432h318v-1104h558v-328h-876zM0 325v334l278 167l53 11l633 381v-334l-638 -379l-43 -8z" />
    <glyph glyph-name="lslash" unicode="&#x142;" 
d="M85 401v302l417 220l60 -7l461 244v-302l-463 -242l-60 7zM795 -35q-214 0 -333 117.5t-119 326.5v1051h344v-1029q0 -162 143 -162q38 0 71 14.5t69 48.5l176 -239q-73 -67 -157 -97.5t-194 -30.5zM58 1200v260h556v-260h-556z" />
    <glyph glyph-name="Nacute" unicode="&#x143;" 
d="M58 0v1432h344l415 -836h9l-20 328v508h336v-1432h-320l-439 879h-9l20 -328v-551h-336zM455 1638v14l218 370h390v-14l-310 -370h-298z" />
    <glyph glyph-name="nacute" unicode="&#x144;" 
d="M122 0v1054h327v-159h9q59 93 144.5 143.5t191.5 50.5q141 0 223.5 -96.5t82.5 -260.5v-732h-343v653q0 73 -32 113.5t-97 40.5q-74 0 -118.5 -52.5t-44.5 -135.5v-619h-343zM466 1260v14l218 370h390v-14l-310 -370h-298z" />
    <glyph glyph-name="uni0145" unicode="&#x145;" 
d="M58 0v1432h344l415 -836h9l-20 328v508h336v-1432h-320l-439 879h-9l20 -328v-551h-336zM548 -891l-184 130l243 322l-8 -97q-85 5 -140 60t-55 135q0 85 58.5 140t148.5 55q96 0 155.5 -61t59.5 -159q0 -64 -25.5 -128.5t-85.5 -152.5z" />
    <glyph glyph-name="uni0146" unicode="&#x146;" 
d="M122 0v1054h327v-159h9q59 93 144.5 143.5t191.5 50.5q141 0 223.5 -96.5t82.5 -260.5v-732h-343v653q0 73 -32 113.5t-97 40.5q-74 0 -118.5 -52.5t-44.5 -135.5v-619h-343zM552 -875l-184 130l243 322l-8 -97q-85 5 -140 60t-55 135q0 85 58.5 140t148.5 55
q96 0 155.5 -61t59.5 -159q0 -64 -25.5 -128.5t-85.5 -152.5z" />
    <glyph glyph-name="Ncaron" unicode="&#x147;" 
d="M58 0v1432h344l415 -836h9l-20 328v508h336v-1432h-320l-439 879h-9l20 -328v-551h-336zM440 1638l-296 370v14h330l166 -299h-72l166 299h330v-14l-296 -370h-328z" />
    <glyph glyph-name="ncaron" unicode="&#x148;" 
d="M122 0v1054h327v-159h9q59 93 144.5 143.5t191.5 50.5q141 0 223.5 -96.5t82.5 -260.5v-732h-343v653q0 73 -32 113.5t-97 40.5q-74 0 -118.5 -52.5t-44.5 -135.5v-619h-343zM451 1260l-296 370v14h330l166 -299h-72l166 299h330v-14l-296 -370h-328z" />
    <glyph glyph-name="napostrophe" unicode="&#x149;" 
d="M326 0v1054h302v-149h8q105 184 287 184q122 0 184.5 -87t62.5 -230v-772h-316v695q0 114 -93 114q-54 0 -86.5 -40.5t-32.5 -107.5v-661h-316zM-12 882l170 578h344l-254 -578h-260z" />
    <glyph glyph-name="Eng" unicode="&#x14a;" 
d="M693 -471q-213 0 -373 122l185 278q81 -66 165 -66q61 0 94.5 37t33.5 102v935q0 95 -40.5 145.5t-120.5 50.5q-61 0 -107 -29.5t-72 -82.5t-26 -125v-896h-348v1432h332v-196h10q65 111 156.5 171t218.5 60q163 0 254 -112t91 -300v-1047q0 -142 -57 -250t-159 -168.5
t-237 -60.5z" />
    <glyph glyph-name="eng" unicode="&#x14b;" 
d="M705 -451q-188 0 -315 91l156 254q37 -26 63.5 -36.5t56.5 -10.5q91 0 91 106v700q0 154 -129 154q-73 0 -118 -51.5t-45 -136.5v-619h-343v1054h327v-159h9q124 194 336 194q141 0 223.5 -96.5t82.5 -260.5v-773q0 -193 -105 -301.5t-290 -108.5z" />
    <glyph glyph-name="Omacron" unicode="&#x14c;" 
d="M305 52q-123 87 -189 250t-66 391v46q0 228 66 391t189 250t295 87t295 -87t189 -250t66 -391v-46q0 -228 -66 -391t-189 -250t-295 -87t-295 87zM749.5 397q50.5 98 50.5 291v56q0 193 -50.5 291t-149.5 98t-149.5 -98t-50.5 -291v-56q0 -193 50.5 -291t149.5 -98
t149.5 98zM275 1684v274h650v-274h-650z" />
    <glyph glyph-name="omacron" unicode="&#x14d;" 
d="M324 36.5q-121 71.5 -189.5 196.5t-68.5 284v20q0 160 68.5 284.5t189.5 196t276.5 71.5t276 -71.5t189 -196t68.5 -284.5v-20q0 -159 -68.5 -284t-189 -196.5t-276 -71.5t-276.5 71.5zM742.5 333.5q53.5 70.5 53.5 187.5v12q0 117 -53.5 187.5t-142 70.5t-142.5 -70.5
t-54 -187.5v-12q0 -117 54 -187.5t142.5 -70.5t142 70.5zM275 1306v274h650v-274h-650z" />
    <glyph glyph-name="Ohungarumlaut" unicode="&#x150;" 
d="M305 52q-123 87 -189 250t-66 391v46q0 228 66 391t189 250t295 87t295 -87t189 -250t66 -391v-46q0 -228 -66 -391t-189 -250t-295 -87t-295 87zM749.5 397q50.5 98 50.5 291v56q0 193 -50.5 291t-149.5 98t-149.5 -98t-50.5 -291v-56q0 -193 50.5 -291t149.5 -98
t149.5 98zM681 1638v14l158 370h360v-14l-250 -370h-268zM211 1638v14l158 370h360v-14l-250 -370h-268z" />
    <glyph glyph-name="ohungarumlaut" unicode="&#x151;" 
d="M324 36.5q-121 71.5 -189.5 196.5t-68.5 284v20q0 160 68.5 284.5t189.5 196t276.5 71.5t276 -71.5t189 -196t68.5 -284.5v-20q0 -159 -68.5 -284t-189 -196.5t-276 -71.5t-276.5 71.5zM742.5 333.5q53.5 70.5 53.5 187.5v12q0 117 -53.5 187.5t-142 70.5t-142.5 -70.5
t-54 -187.5v-12q0 -117 54 -187.5t142.5 -70.5t142 70.5zM681 1260v14l158 370h360v-14l-250 -370h-268zM211 1260v14l158 370h360v-14l-250 -370h-268z" />
    <glyph glyph-name="OE" unicode="&#x152;" 
d="M392 -35q-172 0 -268 178t-96 520v106q0 342 96 520t268 178q102 0 168.5 -75t94.5 -212h20l10 252h483v-312h-299v-808h315v-312h-499l-10 252h-20q-28 -136 -94.5 -211.5t-168.5 -75.5zM464 289q65 0 90 92t25 277v116q0 185 -25 277t-90 92q-64 0 -90 -92t-26 -277
v-116q0 -185 26 -277t90 -92zM751 575v308h377v-308h-377z" />
    <glyph glyph-name="oe" unicode="&#x153;" 
d="M362 -35q-160 0 -249 139.5t-89 392.5v60q0 253 89 392.5t249 139.5q110 0 182 -77t97 -220h-72q26 137 108.5 217t197.5 80q151 0 233 -132t82 -375q0 -37 -1 -66.5t-4 -66.5h-578v187h319l-10 -10q0 223 -90 223q-54 0 -79.5 -76t-25.5 -243v-29q0 -145 29 -220.5
t84 -75.5q35 0 57.5 33t42.5 113l249 -63q-85 -323 -315 -323q-143 0 -219.5 99t-87.5 275h80q-14 -181 -86 -277.5t-193 -96.5zM398 231q100 0 100 270v52q0 270 -100 270t-100 -270v-52q0 -270 100 -270z" />
    <glyph glyph-name="Racute" unicode="&#x154;" 
d="M100 0v1432h472q168 0 284.5 -57.5t177 -162t60.5 -245.5v-12q0 -141 -60.5 -245.5t-177 -162t-284.5 -57.5h-271v290h269q85 0 131.5 44t46.5 114v22q0 71 -46.5 114.5t-131.5 43.5h-128v-1118h-342zM784 0l-335 618h379l346 -618h-390zM377 1638v14l218 370h390v-14
l-310 -370h-298z" />
    <glyph glyph-name="racute" unicode="&#x155;" 
d="M272 130v924h284v-247h16q46 137 133.5 209.5t205.5 72.5q79 0 141.5 -31.5t129.5 -106.5l-200 -244q-46 47 -84.5 65t-87.5 18q-102 0 -154 -63t-52 -188v-409h-332zM72 0v252h872v-252h-872zM92 802v252h331v-252h-331zM505 1260v14l218 370h390v-14l-310 -370h-298z
" />
    <glyph glyph-name="Rcaron" unicode="&#x158;" 
d="M100 0v1432h472q168 0 284.5 -57.5t177 -162t60.5 -245.5v-12q0 -141 -60.5 -245.5t-177 -162t-284.5 -57.5h-271v290h269q85 0 131.5 44t46.5 114v22q0 71 -46.5 114.5t-131.5 43.5h-128v-1118h-342zM784 0l-335 618h379l346 -618h-390zM362 1638l-296 370v14h330
l166 -299h-72l166 299h330v-14l-296 -370h-328z" />
    <glyph glyph-name="rcaron" unicode="&#x159;" 
d="M272 130v924h284v-247h16q46 137 133.5 209.5t205.5 72.5q79 0 141.5 -31.5t129.5 -106.5l-200 -244q-46 47 -84.5 65t-87.5 18q-102 0 -154 -63t-52 -188v-409h-332zM72 0v252h872v-252h-872zM92 802v252h331v-252h-331zM490 1260l-296 370v14h330l166 -299h-72l166 299
h330v-14l-296 -370h-328z" />
    <glyph glyph-name="Sacute" unicode="&#x15a;" 
d="M636 -35q-151 0 -274 56t-205.5 158t-112.5 241l319 79q21 -105 93 -162.5t181 -57.5q78 0 119.5 31t41.5 87v4q0 50 -38.5 85t-134.5 72l-194 75q-304 117 -304 395v4q0 129 63 227t174.5 153t258.5 55q200 0 332.5 -94.5t184.5 -276.5l-318 -85q-38 142 -197 142
q-70 0 -111 -29t-41 -79v-4q0 -42 32 -71.5t108 -59.5l194 -75q173 -67 255 -172.5t82 -262.5v-8q0 -128 -63.5 -224t-177.5 -149.5t-267 -53.5zM475 1638v14l218 370h390v-14l-310 -370h-298z" />
    <glyph glyph-name="sacute" unicode="&#x15b;" 
d="M642 -34q-202 0 -332 82t-171 236l285 88q17 -67 73 -103.5t141 -36.5q53 0 82.5 17.5t29.5 49.5v2q0 29 -25 45t-111 41l-153 44q-136 39 -204.5 118t-68.5 195v2q0 156 118 249.5t314 93.5q176 0 287 -70.5t147 -204.5l-285 -88q-29 101 -169 101q-49 0 -76.5 -15.5
t-27.5 -44.5v0q0 -26 22.5 -42t86.5 -34l153 -44q157 -45 229.5 -127.5t72.5 -216.5v-4q0 -151 -114.5 -242t-303.5 -91zM461 1260v14l218 370h390v-14l-310 -370h-298z" />
    <glyph glyph-name="Scedilla" unicode="&#x15e;" 
d="M636 -35q-151 0 -274 56t-205.5 158t-112.5 241l319 79q21 -105 93 -162.5t181 -57.5q78 0 119.5 31t41.5 87v4q0 50 -38.5 85t-134.5 72l-194 75q-304 117 -304 395v4q0 129 63 227t174.5 153t258.5 55q200 0 332.5 -94.5t184.5 -276.5l-318 -85q-38 142 -197 142
q-70 0 -111 -29t-41 -79v-4q0 -42 32 -71.5t108 -59.5l194 -75q173 -67 255 -172.5t82 -262.5v-8q0 -128 -63.5 -224t-177.5 -149.5t-267 -53.5zM646 -674q-105 0 -197 57.5t-142 152.5l188 106q57 -110 149 -110q47 0 76 25.5t29 68.5q0 44 -26 68.5t-70 24.5
q-49 0 -93 -28l-125 104l139 226h168l-172 -273l-83 54q41 44 94 67t111 23q124 0 198.5 -75.5t74.5 -200.5q0 -128 -89 -209t-230 -81z" />
    <glyph glyph-name="scedilla" unicode="&#x15f;" 
d="M642 -34q-202 0 -332 82t-171 236l285 88q17 -67 73 -103.5t141 -36.5q53 0 82.5 17.5t29.5 49.5v2q0 29 -25 45t-111 41l-153 44q-136 39 -204.5 118t-68.5 195v2q0 156 118 249.5t314 93.5q176 0 287 -70.5t147 -204.5l-285 -88q-29 101 -169 101q-49 0 -76.5 -15.5
t-27.5 -44.5v0q0 -26 22.5 -42t86.5 -34l153 -44q157 -45 229.5 -127.5t72.5 -216.5v-4q0 -151 -114.5 -242t-303.5 -91zM615 -674q-105 0 -197 57.5t-142 152.5l188 106q57 -110 149 -110q47 0 76 25.5t29 68.5q0 44 -26 68.5t-70 24.5q-49 0 -93 -28l-125 104l139 226h168
l-172 -273l-83 54q41 44 94 67t111 23q124 0 198.5 -75.5t74.5 -200.5q0 -128 -89 -209t-230 -81z" />
    <glyph glyph-name="Scaron" unicode="&#x160;" 
d="M636 -35q-151 0 -274 56t-205.5 158t-112.5 241l319 79q21 -105 93 -162.5t181 -57.5q78 0 119.5 31t41.5 87v4q0 50 -38.5 85t-134.5 72l-194 75q-304 117 -304 395v4q0 129 63 227t174.5 153t258.5 55q200 0 332.5 -94.5t184.5 -276.5l-318 -85q-38 142 -197 142
q-70 0 -111 -29t-41 -79v-4q0 -42 32 -71.5t108 -59.5l194 -75q173 -67 255 -172.5t82 -262.5v-8q0 -128 -63.5 -224t-177.5 -149.5t-267 -53.5zM460 1638l-296 370v14h330l166 -299h-72l166 299h330v-14l-296 -370h-328z" />
    <glyph glyph-name="scaron" unicode="&#x161;" 
d="M642 -34q-202 0 -332 82t-171 236l285 88q17 -67 73 -103.5t141 -36.5q53 0 82.5 17.5t29.5 49.5v2q0 29 -25 45t-111 41l-153 44q-136 39 -204.5 118t-68.5 195v2q0 156 118 249.5t314 93.5q176 0 287 -70.5t147 -204.5l-285 -88q-29 101 -169 101q-49 0 -76.5 -15.5
t-27.5 -44.5v0q0 -26 22.5 -42t86.5 -34l153 -44q157 -45 229.5 -127.5t72.5 -216.5v-4q0 -151 -114.5 -242t-303.5 -91zM446 1260l-296 370v14h330l166 -299h-72l166 299h330v-14l-296 -370h-328z" />
    <glyph glyph-name="uni0162" unicode="&#x162;" 
d="M425 0v1261h350v-1261h-350zM68 1104v328h1064v-328h-1064zM605 -674q-105 0 -197 57.5t-142 152.5l188 106q57 -110 149 -110q47 0 76 25.5t29 68.5q0 44 -26 68.5t-70 24.5q-49 0 -93 -28l-125 104l139 226h168l-172 -273l-83 54q41 44 94 67t111 23q124 0 198.5 -75.5
t74.5 -200.5q0 -128 -89 -209t-230 -81z" />
    <glyph glyph-name="uni0163" unicode="&#x163;" 
d="M780 -35q-220 0 -338 122t-118 346v893h342v-871q0 -93 38 -139.5t114 -46.5q80 0 152 64l158 -251q-143 -117 -348 -117zM88 802v252h979v-252h-979zM704 -674q-105 0 -197 57.5t-142 152.5l188 106q57 -110 149 -110q47 0 76 25.5t29 68.5q0 44 -26 68.5t-70 24.5
q-49 0 -93 -28l-125 104l139 226h168l-172 -273l-83 54q41 44 94 67t111 23q124 0 198.5 -75.5t74.5 -200.5q0 -128 -89 -209t-230 -81z" />
    <glyph glyph-name="Tcaron" unicode="&#x164;" 
d="M425 0v1261h350v-1261h-350zM68 1104v328h1064v-328h-1064zM436 1638l-296 370v14h330l166 -299h-72l166 299h330v-14l-296 -370h-328z" />
    <glyph glyph-name="tcaron" unicode="&#x165;" 
d="M776 -35q-220 0 -338 122t-118 346v893h342v-871q0 -93 38 -139.5t114 -46.5q80 0 152 64l158 -251q-143 -117 -348 -117zM84 762v252h979v-252h-979zM782 1128l36 450h290l-90 -450h-236z" />
    <glyph glyph-name="Utilde" unicode="&#x168;" 
d="M331 28.5q-115 63.5 -178 178t-63 265.5v960h348v-946q0 -85 43 -136t119 -51q77 0 119.5 51t42.5 136v946h348v-960q0 -151 -63 -265.5t-177.5 -178t-269 -63.5t-269.5 63.5zM779 1635q-47 0 -95 20.5t-96 62.5q-37 33 -60 48.5t-44 15.5q-53 0 -53 -64v-80h-238v89
q0 145 61.5 221.5t177.5 76.5q47 0 90 -18.5t90 -62.5q37 -34 61 -50t46 -16q50 0 50 64v80h238v-88q0 -146 -56.5 -222.5t-171.5 -76.5z" />
    <glyph glyph-name="utilde" unicode="&#x169;" 
d="M430 -35q-142 0 -222 95t-80 258v736h342v-655q0 -71 33 -110.5t91 -39.5q61 0 95.5 50.5t34.5 138.5v616h343v-1054h-327v160h-11q-46 -85 -122 -140t-177 -55zM776 1257q-47 0 -95 20.5t-96 62.5q-37 33 -60 48.5t-44 15.5q-53 0 -53 -64v-80h-238v89q0 145 61.5 221.5
t177.5 76.5q47 0 90 -18.5t90 -62.5q37 -34 61 -50t46 -16q50 0 50 64v80h238v-88q0 -146 -56.5 -222.5t-171.5 -76.5z" />
    <glyph glyph-name="Umacron" unicode="&#x16a;" 
d="M331 28.5q-115 63.5 -178 178t-63 265.5v960h348v-946q0 -85 43 -136t119 -51q77 0 119.5 51t42.5 136v946h348v-960q0 -151 -63 -265.5t-177.5 -178t-269 -63.5t-269.5 63.5zM275 1684v274h650v-274h-650z" />
    <glyph glyph-name="umacron" unicode="&#x16b;" 
d="M430 -35q-142 0 -222 95t-80 258v736h342v-655q0 -71 33 -110.5t91 -39.5q61 0 95.5 50.5t34.5 138.5v616h343v-1054h-327v160h-11q-46 -85 -122 -140t-177 -55zM272 1306v274h650v-274h-650z" />
    <glyph glyph-name="Uring" unicode="&#x16e;" 
d="M331 28.5q-115 63.5 -178 178t-63 265.5v960h348v-946q0 -85 43 -136t119 -51q77 0 119.5 51t42.5 136v946h348v-960q0 -151 -63 -265.5t-177.5 -178t-269 -63.5t-269.5 63.5zM438 1567.5q-73 41.5 -116.5 112t-43.5 156.5t43.5 156.5t116.5 112t162 41.5t162 -41.5
t116.5 -112t43.5 -156.5t-43.5 -156.5t-116.5 -112t-162 -41.5t-162 41.5zM684.5 1753q33.5 33 33.5 83t-33.5 83t-84.5 33t-84.5 -33t-33.5 -83t33.5 -83t84.5 -33t84.5 33z" />
    <glyph glyph-name="uring" unicode="&#x16f;" 
d="M430 -35q-142 0 -222 95t-80 258v736h342v-655q0 -71 33 -110.5t91 -39.5q61 0 95.5 50.5t34.5 138.5v616h343v-1054h-327v160h-11q-46 -85 -122 -140t-177 -55zM435 1189.5q-73 41.5 -116.5 112t-43.5 156.5t43.5 156.5t116.5 112t162 41.5t162 -41.5t116.5 -112
t43.5 -156.5t-43.5 -156.5t-116.5 -112t-162 -41.5t-162 41.5zM681.5 1375q33.5 33 33.5 83t-33.5 83t-84.5 33t-84.5 -33t-33.5 -83t33.5 -83t84.5 -33t84.5 33z" />
    <glyph glyph-name="Uhungarumlaut" unicode="&#x170;" 
d="M331 28.5q-115 63.5 -178 178t-63 265.5v960h348v-946q0 -85 43 -136t119 -51q77 0 119.5 51t42.5 136v946h348v-960q0 -151 -63 -265.5t-177.5 -178t-269 -63.5t-269.5 63.5zM681 1638v14l158 370h360v-14l-250 -370h-268zM211 1638v14l158 370h360v-14l-250 -370h-268z
" />
    <glyph glyph-name="uhungarumlaut" unicode="&#x171;" 
d="M430 -35q-142 0 -222 95t-80 258v736h342v-655q0 -71 33 -110.5t91 -39.5q61 0 95.5 50.5t34.5 138.5v616h343v-1054h-327v160h-11q-46 -85 -122 -140t-177 -55zM678 1260v14l158 370h360v-14l-250 -370h-268zM208 1260v14l158 370h360v-14l-250 -370h-268z" />
    <glyph glyph-name="Uogonek" unicode="&#x172;" 
d="M700 -552q-84 0 -151.5 37.5t-106.5 102t-39 145.5q0 250 385 387l-15 -125q-40 -12 -83 -18t-90 -6q-153 0 -268 62.5t-178.5 175.5t-63.5 263v960h348v-946q0 -87 43.5 -137t118.5 -50t118.5 50t43.5 137v946h348v-960q0 -155 -65.5 -269t-206.5 -203
q-97 -61 -137 -108t-40 -101q0 -44 30 -71.5t77 -27.5q40 0 78 17l64 -205q-97 -56 -210 -56z" />
    <glyph glyph-name="uogonek" unicode="&#x173;" 
d="M911 -552q-84 0 -151.5 37.5t-106.5 102t-39 145.5q0 125 93 220.5t292 166.5l68 -120q-103 -54 -149 -102.5t-46 -108.5q0 -44 30.5 -70.5t76.5 -26.5q40 0 78 17l64 -205q-96 -56 -210 -56zM430 -35q-142 0 -222 95t-80 258v736h342v-655q0 -71 33 -110.5t91 -39.5
q61 0 95.5 50.5t34.5 138.5v616h343v-1054h-327v160h-11q-46 -85 -122 -140t-177 -55z" />
    <glyph glyph-name="Wcircumflex" unicode="&#x174;" 
d="M199 0l-180 1432h317l57 -926h6l43 275l67 369h182l67 -369l43 -275h6l46 926h328l-180 -1432h-276l-83 467l-39 262h-6l-39 -262l-83 -467h-276zM135 1638v14l296 370h328l296 -370v-14h-330l-166 299h72l-166 -299h-330z" />
    <glyph glyph-name="wcircumflex" unicode="&#x175;" 
d="M212 0l-219 1054h298l80 -555l14 -117h7l15 118l69 433h267l68 -432l14 -119h7l15 119l82 553h278l-220 -1054h-294l-77 469l-13 113h-7l-15 -113l-76 -469h-293zM150 1260v14l296 370h328l296 -370v-14h-330l-166 299h72l-166 -299h-330z" />
    <glyph glyph-name="Ycircumflex" unicode="&#x176;" 
d="M463 409l-451 1023h374l122 -319l93 -288h9l90 288l122 319h366l-451 -1023h-274zM426 0v692h348v-692h-348zM144 1638v14l296 370h328l296 -370v-14h-330l-166 299h72l-166 -299h-330z" />
    <glyph glyph-name="ycircumflex" unicode="&#x177;" 
d="M328 -451q-189 0 -321 111l162 252q78 -65 151 -65q50 0 81.5 24.5t51.5 79.5l98 266h67l92 404l124 433h352l-428 -1156q-68 -184 -169.5 -266.5t-260.5 -82.5zM494 -84l-420 1138h354l132 -433l69 -289h110zM172 1260v14l296 370h328l296 -370v-14h-330l-166 299h72
l-166 -299h-330z" />
    <glyph glyph-name="Ydieresis" unicode="&#x178;" 
d="M463 409l-451 1023h374l122 -319l93 -288h9l90 288l122 319h366l-451 -1023h-274zM426 0v692h348v-692h-348zM314 1613q-86 0 -146 59.5t-60 144.5t60 144.5t146 59.5q87 0 146.5 -59t59.5 -145t-59 -145t-147 -59zM894 1613q-86 0 -146 59.5t-60 144.5t60 144.5
t146 59.5q87 0 146.5 -59t59.5 -145t-59 -145t-147 -59z" />
    <glyph glyph-name="Zacute" unicode="&#x179;" 
d="M92 0v291l589 817h-566v324h980v-291l-589 -817h602v-324h-1016zM456 1638v14l218 370h390v-14l-310 -370h-298z" />
    <glyph glyph-name="zacute" unicode="&#x17a;" 
d="M142 0v267l520 509h-500v278h886v-268l-519 -508h529v-278h-916zM456 1260v14l218 370h390v-14l-310 -370h-298z" />
    <glyph glyph-name="Zdotaccent" unicode="&#x17b;" 
d="M92 0v291l589 817h-566v324h980v-291l-589 -817h602v-324h-1016zM605 1613q-90 0 -153 61.5t-63 152.5q0 89 62.5 151.5t153.5 62.5q92 0 154 -62.5t62 -151.5q0 -91 -62 -152.5t-154 -61.5z" />
    <glyph glyph-name="zdotaccent" unicode="&#x17c;" 
d="M142 0v267l520 509h-500v278h886v-268l-519 -508h529v-278h-916zM605 1235q-90 0 -153 61.5t-63 152.5q0 89 62.5 151.5t153.5 62.5q92 0 154 -62.5t62 -151.5q0 -91 -62 -152.5t-154 -61.5z" />
    <glyph glyph-name="Zcaron" unicode="&#x17d;" 
d="M92 0v291l589 817h-566v324h980v-291l-589 -817h602v-324h-1016zM441 1638l-296 370v14h330l166 -299h-72l166 299h330v-14l-296 -370h-328z" />
    <glyph glyph-name="zcaron" unicode="&#x17e;" 
d="M142 0v267l520 509h-500v278h886v-268l-519 -508h529v-278h-916zM441 1260l-296 370v14h330l166 -299h-72l166 299h330v-14l-296 -370h-328z" />
    <glyph glyph-name="longs" unicode="&#x17f;" 
d="M322 0v1053q0 134 57 233t159 153.5t236 54.5q122 0 219 -39.5t173 -121.5l-212 -253q-38 41 -73 60.5t-79 19.5q-64 0 -100 -40.5t-36 -115.5v-1004h-344zM96 804v250h402v-250h-402z" />
    <glyph glyph-name="uni0181" unicode="&#x181;" 
d="M411 0v1432h339q188 0 298 -98.5t110 -266.5v-18q0 -106 -57 -186t-161 -123v-10q125 -36 189.5 -121.5t64.5 -216.5v-21q0 -110 -52.5 -194t-146 -130.5t-218.5 -46.5h-366zM7 784q-28 65 -41.5 127.5t-13.5 115.5q0 121 54 212t151 142t226 51h207v-242h-201
q-70 0 -106.5 -44t-36.5 -129q0 -37 7 -75t20 -76zM693 248h43q77 0 111.5 40.5t34.5 128.5v17q0 87 -37 128t-115 41h-127v244h130q65 0 96 40t31 122v13q0 86 -30 124t-97 38h-40v-936z" />
    <glyph glyph-name="uni018A" unicode="&#x18a;" 
d="M444 0v1432h247q159 0 271.5 -81t172 -228t59.5 -344v-126q0 -197 -59.5 -344t-172 -228t-271.5 -81h-247zM54 802q-25 57 -37.5 118t-12.5 115q0 120 54.5 209.5t151.5 138.5t225 49h147v-242h-143q-67 0 -104 -44.5t-37 -128.5q0 -35 6 -67.5t16 -65.5zM714 290h31
q80 0 121.5 85.5t41.5 272.5v136q0 188 -41.5 273t-121.5 85h-31v-852z" />
    <glyph glyph-name="uni018F" unicode="&#x18f;" 
d="M616 -35q-261 0 -408.5 180t-147.5 499q0 47 3 88t9 78h905v-260h-601l3 45q0 -151 59.5 -230.5t173.5 -79.5q116 0 171 97.5t55 303.5v87q0 194 -53.5 281t-172.5 87q-156 0 -289 -145l-240 212q108 128 246 193.5t301 65.5q269 0 403.5 -181t134.5 -540v-49
q0 -227 -66.5 -391.5t-190 -252.5t-295.5 -88z" />
    <glyph glyph-name="uni0198" unicode="&#x198;" 
d="M768 0l-377 739v9l178 383q80 173 178.5 254.5t251.5 81.5q70 0 121.5 -14t101.5 -43l-127 -294q-16 11 -32.5 16t-39.5 5q-47 0 -86 -35t-84 -115l-127 -228v60l436 -819h-394zM52 0v1432h348v-1432h-348z" />
    <glyph glyph-name="uni0199" unicode="&#x199;" 
d="M90 0v1019q0 255 137 397.5t366 142.5q133 0 259 -51l-106 -285q-62 26 -128 26q-186 0 -186 -248v-1001h-342zM788 0l-371 564v8l357 482h378l-410 -542v114l420 -626h-374z" />
    <glyph glyph-name="Ohorn" unicode="&#x1a0;" 
d="M595 -35q-170 0 -292.5 87t-187.5 250t-65 391v46q0 228 66 391t190.5 250t301.5 87q51 0 90 -7t81 -7q59 0 92 29t33 81q0 37 -13.5 70t-48.5 76l258 164q104 -131 104 -277q0 -135 -101.5 -213t-276.5 -78h-81l33 102q185 -83 273.5 -241.5t88.5 -426.5v-46
q0 -228 -65 -391t-187 -250t-293 -87zM595 299q97 0 146 98t49 291v76q0 188 -43.5 284.5t-138.5 96.5q-103 0 -155.5 -101t-52.5 -300v-56q0 -193 49 -291t146 -98z" />
    <glyph glyph-name="ohorn" unicode="&#x1a1;" 
d="M590 -35q-163 0 -280.5 69t-180.5 193.5t-63 289.5v20q0 165 63 289.5t180.5 193.5t280.5 69q62 0 108 -8t86 -8q120 0 120 105q0 35 -11.5 67t-40.5 78l270 143q82 -120 82 -247q0 -133 -100 -210.5t-272 -77.5h-84l28 103q163 -54 250.5 -183t87.5 -314v-20
q0 -168 -64.5 -292t-182 -192t-277.5 -68zM590 263q90 0 138 68.5t48 189.5v12q0 125 -48 194.5t-138 69.5t-138 -69.5t-48 -194.5v-12q0 -121 48 -189.5t138 -68.5z" />
    <glyph glyph-name="Uhorn" unicode="&#x1af;" 
d="M530 -35q-144 0 -252 59t-168 166t-60 249v993h330v-979q0 -76 41 -120t111 -44q71 0 111.5 44t40.5 120v979h96q70 0 110 32t40 89q0 38 -14.5 74t-49.5 84l253 162q59 -76 85 -143t26 -141q0 -139 -104.5 -218t-268.5 -79h-70l223 122v-975q0 -142 -60 -249
t-167.5 -166t-252.5 -59z" />
    <glyph glyph-name="uhorn" unicode="&#x1b0;" 
d="M397 -35q-131 0 -206.5 86t-75.5 237v766h326v-691q0 -59 31 -92.5t85 -33.5q62 0 96 43.5t34 121.5v652h76q141 0 141 105q0 32 -12 61.5t-41 67.5l258 164q47 -60 71 -120t24 -127q0 -130 -98.5 -206.5t-267.5 -76.5h-70l246 132v-1054h-327v143h-11
q-48 -85 -120.5 -131.5t-158.5 -46.5z" />
    <glyph glyph-name="uni01B3" unicode="&#x1b3;" 
d="M413 389l-411 1043h374l98 -319l77 -288h9l53 218l16 67q29 119 82 198.5t131 119t180 39.5q67 0 117 -11.5t103 -39.5l-97 -289q-17 8 -33 11t-35 3q-39 0 -68.5 -18t-54.5 -59.5t-53 -114.5l-214 -560h-274zM376 0v652h348v-652h-348z" />
    <glyph glyph-name="uni01B4" unicode="&#x1b4;" 
d="M279 -451q-172 0 -301 75l128 265q78 -42 148 -42q60 0 97 28.5t50 78.5l72 263h85l58 441l56 272q89 434 460 434q87 0 166 -26l-58 -288q-20 8 -38 11t-41 3q-72 0 -117.5 -45.5t-74.5 -155.5l-248 -923q-52 -192 -163.5 -291.5t-278.5 -99.5zM430 -84l-372 1138h342
l96 -396l64 -326h129z" />
    <glyph glyph-name="uni01C4" unicode="&#x1c4;" 
d="M6 0v1432h280q176 0 260 -155t84 -478v-166q0 -323 -84 -478t-260 -155h-280zM254 270h32q51 0 70.5 78t19.5 280v176q0 203 -19.5 280.5t-70.5 77.5h-32v-892zM624 0v210l280 952h-260v270h544v-210l-280 -952h288v-270h-572zM771 1638l-246 370v14h260l160 -299h-60
l160 299h260v-14l-246 -370h-288z" />
    <glyph glyph-name="uni01C5" unicode="&#x1c5;" 
d="M16 0v1432h270q188 0 281 -155t93 -478v-166q0 -323 -93 -478t-281 -155h-270zM264 270h42q57 0 78.5 78t21.5 280v176q0 203 -21.5 280.5t-78.5 77.5h-42v-892zM684 0v208l240 598h-220v248h488v-208l-240 -598h248v-248h-516zM808 1260l-216 370v14h252l130 -280h-52
l130 280h252v-14l-216 -370h-280z" />
    <glyph glyph-name="uni01C6" unicode="&#x1c6;" 
d="M227 -35q-73 0 -124.5 62.5t-79 177t-27.5 270.5v104q0 156 25 270.5t73 177t118 62.5q56 0 97 -44t71 -130h10v545h260v-1460h-244v138h-10q-28 -82 -69.5 -127.5t-99.5 -45.5zM337 225q38 0 54.5 54.5t16.5 159.5v176q0 105 -16.5 159.5t-54.5 54.5q-37 0 -54 -51.5
t-17 -156.5v-188q0 -105 17 -156.5t54 -51.5zM700 0v208l238 598h-228v248h496v-208l-238 -598h248v-248h-516zM838 1260l-216 370v14h252l130 -280h-52l130 280h252v-14l-216 -370h-280z" />
    <glyph glyph-name="uni01C7" unicode="&#x1c7;" 
d="M823 -35q-72 0 -136 14t-123 42l120 284q41 -28 93 -28q43 0 67 28.5t24 79.5v1047h328v-1075q0 -174 -100 -283t-273 -109zM6 0v1432h328v-1124h204v-308h-532z" />
    <glyph glyph-name="uni01C8" unicode="&#x1c8;" 
d="M747 -451q-202 0 -348 119l153 232q84 -63 166 -63q135 0 135 159v1058h316v-1066q0 -202 -114 -320.5t-308 -118.5zM48 0v1432h320v-1122h329v-310h-649zM561 804v250h520v-250h-520zM969 1235q-89 0 -151 60.5t-62 147.5q0 89 61 148t152 59q92 0 151.5 -58.5
t59.5 -148.5q0 -88 -60.5 -148t-150.5 -60z" />
    <glyph glyph-name="uni01C9" unicode="&#x1c9;" 
d="M796 -451q-188 0 -337 123l153 206q44 -35 82.5 -52t84.5 -17q132 0 132 137v1108h290v-1110q0 -185 -108.5 -290t-296.5 -105zM595 0q-180 0 -280.5 109.5t-100.5 304.5v1046h290v-1044q0 -136 115 -136q30 0 56 11.5t54 37.5l149 -221q-114 -108 -283 -108zM10 1210
v250h375v-250h-375zM654 804v250h459v-250h-459zM1001 1235q-89 0 -151 60.5t-62 147.5q0 89 61 148t152 59q92 0 151.5 -58t59.5 -149q0 -88 -60.5 -148t-150.5 -60z" />
    <glyph glyph-name="uni01CA" unicode="&#x1ca;" 
d="M6 0v1432h335l186 -1031h21l-54 734v297h230v-1432h-308l-202 1116h-21l43 -718v-398h-230zM897 -35q-82 0 -148 24l47 239q28 -11 57 -11q81 0 81 104v1111h262v-1122q0 -163 -79 -254t-220 -91z" />
    <glyph glyph-name="uni01CB" unicode="&#x1cb;" 
d="M6 0v1432h330l196 -973h19l-47 666v307h236v-1432h-302l-224 1116h-19l47 -699v-417h-236zM818 -451q-183 0 -334 127l148 199q42 -36 77 -51t76 -15q113 0 113 137v1108h290v-1110q0 -181 -100 -288t-270 -107zM1043 1236q-85 0 -138.5 58t-53.5 149q0 92 53.5 149.5
t138.5 57.5q86 0 139 -57.5t53 -149.5q0 -91 -53.5 -149t-138.5 -58z" />
    <glyph glyph-name="uni01CC" unicode="&#x1cc;" 
d="M759 -451q-95 0 -183 30t-165 92l148 208q90 -68 174 -68q74 0 114.5 43t40.5 127v1073h292v-1075q0 -201 -112 -315.5t-309 -114.5zM24 0v1054h265v-163h9q98 198 265 198q107 0 163 -79t56 -228v-782h-292v725q0 108 -69 108q-45 0 -75 -42.5t-30 -119.5v-671h-292z
M1034 1236q-85 0 -138.5 59.5t-53.5 147.5t53.5 147.5t138.5 59.5t138.5 -59.5t53.5 -147.5t-53.5 -147.5t-138.5 -59.5z" />
    <glyph glyph-name="uni01EA" unicode="&#x1ea;" 
d="M305 52q-123 87 -189 250t-66 391v46q0 228 66 391t189 250t295 87t295 -87t189 -250t66 -391v-46q0 -228 -66 -391t-189 -250t-295 -87t-295 87zM749.5 397q50.5 98 50.5 291v56q0 193 -50.5 291t-149.5 98t-149.5 -98t-50.5 -291v-56q0 -193 50.5 -291t149.5 -98
t149.5 98zM706 -521q-84 0 -151.5 37.5t-106.5 102t-39 145.5q0 125 93 220.5t292 166.5l68 -120q-103 -54 -149 -102.5t-46 -108.5q0 -44 30.5 -70.5t76.5 -26.5q40 0 78 17l64 -205q-96 -56 -210 -56z" />
    <glyph glyph-name="uni01EB" unicode="&#x1eb;" 
d="M324 36.5q-121 71.5 -189.5 196.5t-68.5 284v20q0 160 68.5 284.5t189.5 196t276.5 71.5t276 -71.5t189 -196t68.5 -284.5v-20q0 -159 -68.5 -284t-189 -196.5t-276 -71.5t-276.5 71.5zM742.5 333.5q53.5 70.5 53.5 187.5v12q0 117 -53.5 187.5t-142 70.5t-142.5 -70.5
t-54 -187.5v-12q0 -117 54 -187.5t142.5 -70.5t142 70.5zM694 -529q-84 0 -151.5 37.5t-106.5 102t-39 145.5q0 125 93 220.5t292 166.5l68 -120q-103 -54 -149 -102.5t-46 -108.5q0 -44 30.5 -70.5t76.5 -26.5q40 0 78 17l64 -205q-96 -56 -210 -56z" />
    <glyph glyph-name="uni01F8" unicode="&#x1f8;" 
d="M58 0v1432h344l415 -836h9l-20 328v508h336v-1432h-320l-439 879h-9l20 -328v-551h-336zM455 1638l-310 370v14h390l218 -370v-14h-298z" />
    <glyph glyph-name="uni01F9" unicode="&#x1f9;" 
d="M122 0v1054h327v-159h9q59 93 144.5 143.5t191.5 50.5q141 0 223.5 -96.5t82.5 -260.5v-732h-343v653q0 73 -32 113.5t-97 40.5q-74 0 -118.5 -52.5t-44.5 -135.5v-619h-343zM466 1260l-310 370v14h390l218 -370v-14h-298z" />
    <glyph glyph-name="AEacute" unicode="&#x1fc;" 
d="M2 0l330 1432h375v-292h-181l-44 -314l-145 -826h-335zM179 256l84 260h430v-260h-514zM605 0v1432h577v-312h-307v-808h323v-312h-593zM765 575v308h377v-308h-377zM568 1638v14l218 370h390v-14l-310 -370h-298z" />
    <glyph glyph-name="aeacute" unicode="&#x1fd;" 
d="M339 -35q-104 0 -179 41.5t-115 119.5t-40 185v10q0 157 85.5 250t229.5 93q94 0 153 -38v-186q-37 30 -79 30t-63 -31t-21 -92v-16q0 -61 18 -93.5t51 -32.5q35 0 51 38.5t16 125.5v283q0 98 -22 141.5t-72 43.5q-65 0 -142 -85l-170 162q132 175 328 175
q127 0 210.5 -75t110.5 -212h-168q42 140 128 213.5t208 73.5q159 0 246 -129t87 -365q0 -37 -1 -69.5t-4 -76.5h-578v186h325l-10 -9q0 211 -95 211q-55 0 -81.5 -74t-26.5 -233v-29q0 -142 28.5 -219t80.5 -77q37 0 61 34t45 117l249 -87q-48 -157 -129 -230.5t-205 -73.5
q-130 0 -220.5 96t-121.5 268h175q-40 -184 -124.5 -274t-218.5 -90zM466 1260v14l218 370h390v-14l-310 -370h-298z" />
    <glyph glyph-name="uni0218" unicode="&#x218;" 
d="M636 -35q-151 0 -274 56t-205.5 158t-112.5 241l319 79q21 -105 93 -162.5t181 -57.5q78 0 119.5 31t41.5 87v4q0 50 -38.5 85t-134.5 72l-194 75q-304 117 -304 395v4q0 129 63 227t174.5 153t258.5 55q200 0 332.5 -94.5t184.5 -276.5l-318 -85q-38 142 -197 142
q-70 0 -111 -29t-41 -79v-4q0 -42 32 -71.5t108 -59.5l194 -75q173 -67 255 -172.5t82 -262.5v-8q0 -128 -63.5 -224t-177.5 -149.5t-267 -53.5zM562 -891l-184 130l243 322l-8 -97q-85 5 -140 60t-55 135q0 85 58.5 140t148.5 55q96 0 155.5 -61t59.5 -159
q0 -64 -25.5 -128.5t-85.5 -152.5z" />
    <glyph glyph-name="uni0219" unicode="&#x219;" 
d="M642 -34q-202 0 -332 82t-171 236l285 88q17 -67 73 -103.5t141 -36.5q53 0 82.5 17.5t29.5 49.5v2q0 29 -25 45t-111 41l-153 44q-136 39 -204.5 118t-68.5 195v2q0 156 118 249.5t314 93.5q176 0 287 -70.5t147 -204.5l-285 -88q-29 101 -169 101q-49 0 -76.5 -15.5
t-27.5 -44.5v0q0 -26 22.5 -42t86.5 -34l153 -44q157 -45 229.5 -127.5t72.5 -216.5v-4q0 -151 -114.5 -242t-303.5 -91zM554 -891l-184 130l243 322l-8 -97q-85 5 -140 60t-55 135q0 85 58.5 140t148.5 55q96 0 155.5 -61t59.5 -159q0 -64 -25.5 -128.5t-85.5 -152.5z" />
    <glyph glyph-name="uni021A" unicode="&#x21a;" 
d="M425 0v1261h350v-1261h-350zM68 1104v328h1064v-328h-1064zM521 -891l-184 130l243 322l-8 -97q-85 5 -140 60t-55 135q0 85 58.5 140t148.5 55q96 0 155.5 -61t59.5 -159q0 -64 -25.5 -128.5t-85.5 -152.5z" />
    <glyph glyph-name="uni021B" unicode="&#x21b;" 
d="M780 -35q-220 0 -338 122t-118 346v893h342v-871q0 -93 38 -139.5t114 -46.5q80 0 152 64l158 -251q-143 -117 -348 -117zM88 802v252h979v-252h-979zM620 -926l-184 130l243 322l-8 -97q-85 5 -140 60t-55 135q0 85 58.5 140t148.5 55q96 0 155.5 -61t59.5 -159
q0 -64 -25.5 -128.5t-85.5 -152.5z" />
    <glyph glyph-name="uni0237" unicode="&#x237;" 
d="M437 -451q-211 0 -379 124l162 252q53 -40 100.5 -59t99.5 -19q74 0 113.5 44t39.5 123v1040h344v-1028q0 -223 -127.5 -350t-352.5 -127zM190 804v250h639v-250h-639z" />
    <glyph glyph-name="uni0253" unicode="&#x253;" 
d="M745 -35q-94 0 -171 49t-123 137h-10v-151h-333v1027q0 249 137.5 390.5t376.5 141.5q80 0 145 -13.5t127 -42.5l-106 -285q-34 17 -66.5 24t-75.5 7q-94 0 -145 -59t-51 -179v-135h10q50 86 126 132t171 46q111 0 192.5 -67t126 -188.5t44.5 -283.5v-11
q0 -162 -47.5 -283.5t-131.5 -188.5t-196 -67zM614 244q80 0 122 65.5t42 187.5v25q0 122 -42.5 187.5t-122.5 65.5q-79 0 -126 -70.5t-47 -189.5v-11q0 -119 47.5 -189.5t126.5 -70.5z" />
    <glyph glyph-name="uni0257" unicode="&#x257;" 
d="M411 -35q-102 0 -180 69t-121.5 192.5t-43.5 286.5v28q0 166 42 289t118 191t177 68q157 0 233 -178h10v213q0 140 52.5 237t142 147.5t201.5 50.5q52 0 95 -6.5t83 -19.5l-60 -288q-19 7 -36.5 10.5t-40.5 3.5q-61 0 -93 -41t-32 -126v-1092h-303v151h-10
q-77 -186 -234 -186zM523 235q62 0 97.5 72t35.5 198v43q0 126 -35.5 198.5t-97.5 72.5q-65 0 -100.5 -70.5t-35.5 -200.5v-43q0 -129 35.5 -199.5t100.5 -70.5z" />
    <glyph glyph-name="uni0259" unicode="&#x259;" 
d="M595 -35q-151 0 -264.5 64.5t-177 180t-63.5 267.5q0 34 3 64.5t7 54.5h858v-186h-561v10q0 -82 53.5 -135.5t144.5 -53.5q104 0 159 70t55 204v67q0 118 -56 182.5t-177 64.5q-144 0 -314 -114l-144 224q110 78 231.5 119t256.5 41q251 0 387.5 -147t136.5 -395v-17
q0 -169 -67.5 -296t-187.5 -198t-280 -71z" />
    <glyph glyph-name="uni02BB" unicode="&#x2bb;" 
d="M647 2005l184 -130l-243 -322l8 97q86 -5 140.5 -60t54.5 -135q0 -85 -58.5 -140t-148.5 -55q-96 0 -155.5 61t-59.5 159q0 64 25.5 128.5t85.5 152.5z" />
    <glyph glyph-name="uni02BC" unicode="&#x2bc;" 
d="M624 882h-302l238 578h392z" />
    <glyph glyph-name="circumflex" unicode="&#x2c6;" 
d="M140 1260v14l296 370h328l296 -370v-14h-330l-166 299h72l-166 -299h-330z" />
    <glyph glyph-name="caron" unicode="&#x2c7;" 
d="M436 1260l-296 370v14h330l166 -299h-72l166 299h330v-14l-296 -370h-328z" />
    <glyph glyph-name="breve" unicode="&#x2d8;" 
d="M391 1294.5q-90 48.5 -139.5 135.5t-49.5 202v12h246v-18q0 -73 40.5 -114.5t111.5 -41.5t111.5 41.5t40.5 114.5v18h246v-12q0 -115 -49.5 -202t-139 -135.5t-209 -48.5t-209.5 48.5z" />
    <glyph glyph-name="dotaccent" unicode="&#x2d9;" 
d="M600 1235q-90 0 -153 61.5t-63 152.5q0 89 62.5 151.5t153.5 62.5q92 0 154 -62.5t62 -151.5q0 -91 -62 -152.5t-154 -61.5z" />
    <glyph glyph-name="ring" unicode="&#x2da;" 
d="M438 1189.5q-73 41.5 -116.5 112t-43.5 156.5t43.5 156.5t116.5 112t162 41.5t162 -41.5t116.5 -112t43.5 -156.5t-43.5 -156.5t-116.5 -112t-162 -41.5t-162 41.5zM684.5 1375q33.5 33 33.5 83t-33.5 83t-84.5 33t-84.5 -33t-33.5 -83t33.5 -83t84.5 -33t84.5 33z" />
    <glyph glyph-name="ogonek" unicode="&#x2db;" 
d="M643 -566q-84 0 -151.5 37.5t-106.5 102t-39 145.5q0 125 93 220.5t292 166.5l68 -120q-103 -54 -149 -102.5t-46 -108.5q0 -44 30.5 -70.5t76.5 -26.5q40 0 78 17l64 -205q-96 -56 -210 -56z" />
    <glyph glyph-name="tilde" unicode="&#x2dc;" 
d="M779 1257q-47 0 -95 20.5t-96 62.5q-37 33 -60 48.5t-44 15.5q-53 0 -53 -64v-80h-238v89q0 145 61.5 221.5t177.5 76.5q47 0 90 -18.5t90 -62.5q37 -34 61 -50t46 -16q50 0 50 64v80h238v-88q0 -146 -56.5 -222.5t-171.5 -76.5z" />
    <glyph glyph-name="hungarumlaut" unicode="&#x2dd;" 
d="M576 1260v14l158 370h360v-14l-250 -370h-268zM106 1260v14l158 370h360v-14l-250 -370h-268z" />
    <glyph glyph-name="gravecomb" unicode="&#x300;" horiz-adv-x="0" 
d="M-149 1260l-310 370v14h390l218 -370v-14h-298z" />
    <glyph glyph-name="acutecomb" unicode="&#x301;" horiz-adv-x="0" 
d="M-149 1260v14l218 370h390v-14l-310 -370h-298z" />
    <glyph glyph-name="uni0302" unicode="&#x302;" horiz-adv-x="0" 
d="M-460 1260v14l296 370h328l296 -370v-14h-330l-166 299h72l-166 -299h-330z" />
    <glyph glyph-name="tildecomb" unicode="&#x303;" horiz-adv-x="0" 
d="M179 1257q-47 0 -95 20.5t-96 62.5q-37 33 -60 48.5t-44 15.5q-53 0 -53 -64v-80h-238v89q0 145 61.5 221.5t177.5 76.5q47 0 90 -18.5t90 -62.5q37 -34 61 -50t46 -16q50 0 50 64v80h238v-88q0 -146 -56.5 -222.5t-171.5 -76.5z" />
    <glyph glyph-name="uni0304" unicode="&#x304;" horiz-adv-x="0" 
d="M-325 1306v274h650v-274h-650z" />
    <glyph glyph-name="uni0306" unicode="&#x306;" horiz-adv-x="0" 
d="M-209 1294.5q-90 48.5 -139.5 135.5t-49.5 202v12h246v-18q0 -73 40.5 -114.5t111.5 -41.5t111.5 41.5t40.5 114.5v18h246v-12q0 -115 -49.5 -202t-139 -135.5t-209 -48.5t-209.5 48.5z" />
    <glyph glyph-name="uni0307" unicode="&#x307;" horiz-adv-x="0" 
d="M0 1235q-90 0 -153 61.5t-63 152.5q0 89 62.5 151.5t153.5 62.5q92 0 154 -62.5t62 -151.5q0 -91 -62 -152.5t-154 -61.5z" />
    <glyph glyph-name="uni0308" unicode="&#x308;" horiz-adv-x="0" 
d="M-290 1235q-86 0 -146 59.5t-60 144.5t60 144.5t146 59.5q87 0 146.5 -59t59.5 -145t-59 -145t-147 -59zM290 1235q-86 0 -146 59.5t-60 144.5t60 144.5t146 59.5q87 0 146.5 -59t59.5 -145t-59 -145t-147 -59z" />
    <glyph glyph-name="hookabovecomb" unicode="&#x309;" horiz-adv-x="0" 
d="M-37 1162l-31 216q88 5 128.5 26.5t40.5 66.5q0 80 -114 80q-95 0 -193 -33l-61 212q60 27 128 42t132 15q155 0 246.5 -80t91.5 -214q0 -145 -95 -230.5t-273 -100.5z" />
    <glyph glyph-name="uni030A" unicode="&#x30a;" horiz-adv-x="0" 
d="M-162 1189.5q-73 41.5 -116.5 112t-43.5 156.5t43.5 156.5t116.5 112t162 41.5t162 -41.5t116.5 -112t43.5 -156.5t-43.5 -156.5t-116.5 -112t-162 -41.5t-162 41.5zM84.5 1375q33.5 33 33.5 83t-33.5 83t-84.5 33t-84.5 -33t-33.5 -83t33.5 -83t84.5 -33t84.5 33z" />
    <glyph glyph-name="uni030B" unicode="&#x30b;" horiz-adv-x="0" 
d="M81 1260v14l158 370h360v-14l-250 -370h-268zM-389 1260v14l158 370h360v-14l-250 -370h-268z" />
    <glyph glyph-name="uni030C" unicode="&#x30c;" horiz-adv-x="0" 
d="M-164 1260l-296 370v14h330l166 -299h-72l166 299h330v-14l-296 -370h-328z" />
    <glyph glyph-name="uni0312" unicode="&#x312;" horiz-adv-x="0" 
d="M80 2005l184 -130l-243 -322l8 97q86 -5 140.5 -60t54.5 -135q0 -85 -58.5 -140t-148.5 -55q-96 0 -155.5 61t-59.5 159q0 64 25.5 128.5t85.5 152.5z" />
    <glyph glyph-name="uni031B" unicode="&#x31b;" horiz-adv-x="0" 
d="M-60 1268v164h50q115 0 115 106q0 35 -12 66.5t-41 74.5l285 166q88 -120 88 -253q0 -96 -51 -169t-142.5 -114t-213.5 -41h-78z" />
    <glyph glyph-name="dotbelowcomb" unicode="&#x323;" horiz-adv-x="0" 
d="M0 -574q-90 0 -153 61.5t-63 152.5q0 89 62.5 151.5t153.5 62.5q92 0 154 -62.5t62 -151.5q0 -91 -62 -152.5t-154 -61.5z" />
    <glyph glyph-name="uni0326" unicode="&#x326;" horiz-adv-x="0" 
d="M-80 -891l-184 130l243 322l-8 -97q-85 5 -140 60t-55 135q0 85 58.5 140t148.5 55q96 0 155.5 -61t59.5 -159q0 -64 -25.5 -128.5t-85.5 -152.5z" />
    <glyph glyph-name="uni0327" unicode="&#x327;" horiz-adv-x="0" 
d="M5 -674q-105 0 -197 57.5t-142 152.5l188 106q57 -110 149 -110q47 0 76 25.5t29 68.5q0 44 -26 68.5t-70 24.5q-49 0 -93 -28l-125 104l139 226h168l-172 -273l-83 54q41 44 94 67t111 23q124 0 198.5 -75.5t74.5 -200.5q0 -128 -89 -209t-230 -81z" />
    <glyph glyph-name="uni0328" unicode="&#x328;" horiz-adv-x="0" 
d="M-75 -566q-84 0 -151.5 37.5t-106.5 102t-39 145.5q0 125 93 220.5t292 166.5l68 -120q-103 -54 -149 -102.5t-46 -108.5q0 -44 30.5 -70.5t76.5 -26.5q40 0 78 17l64 -205q-96 -56 -210 -56z" />
    <glyph glyph-name="uni0329" unicode="&#x329;" horiz-adv-x="0" 
d="M-147 -685v520h294v-520h-294z" />
    <glyph glyph-name="uni1E44" unicode="&#x1e44;" 
d="M58 0v1432h344l415 -836h9l-20 328v508h336v-1432h-320l-439 879h-9l20 -328v-551h-336zM604 1613q-90 0 -153 61.5t-63 152.5q0 89 62.5 151.5t153.5 62.5q92 0 154 -62.5t62 -151.5q0 -91 -62 -152.5t-154 -61.5z" />
    <glyph glyph-name="uni1E45" unicode="&#x1e45;" 
d="M122 0v1054h327v-159h9q59 93 144.5 143.5t191.5 50.5q141 0 223.5 -96.5t82.5 -260.5v-732h-343v653q0 73 -32 113.5t-97 40.5q-74 0 -118.5 -52.5t-44.5 -135.5v-619h-343zM615 1235q-90 0 -153 61.5t-63 152.5q0 89 62.5 151.5t153.5 62.5q92 0 154 -62.5t62 -151.5
q0 -91 -62 -152.5t-154 -61.5z" />
    <glyph glyph-name="uni1E62" unicode="&#x1e62;" 
d="M636 -35q-151 0 -274 56t-205.5 158t-112.5 241l319 79q21 -105 93 -162.5t181 -57.5q78 0 119.5 31t41.5 87v4q0 50 -38.5 85t-134.5 72l-194 75q-304 117 -304 395v4q0 129 63 227t174.5 153t258.5 55q200 0 332.5 -94.5t184.5 -276.5l-318 -85q-38 142 -197 142
q-70 0 -111 -29t-41 -79v-4q0 -42 32 -71.5t108 -59.5l194 -75q173 -67 255 -172.5t82 -262.5v-8q0 -128 -63.5 -224t-177.5 -149.5t-267 -53.5zM641 -574q-90 0 -153 61.5t-63 152.5q0 89 62.5 151.5t153.5 62.5q92 0 154 -62.5t62 -151.5q0 -91 -62 -152.5t-154 -61.5z
" />
    <glyph glyph-name="uni1E63" unicode="&#x1e63;" 
d="M642 -34q-202 0 -332 82t-171 236l285 88q17 -67 73 -103.5t141 -36.5q53 0 82.5 17.5t29.5 49.5v2q0 29 -25 45t-111 41l-153 44q-136 39 -204.5 118t-68.5 195v2q0 156 118 249.5t314 93.5q176 0 287 -70.5t147 -204.5l-285 -88q-29 101 -169 101q-49 0 -76.5 -15.5
t-27.5 -44.5v0q0 -26 22.5 -42t86.5 -34l153 -44q157 -45 229.5 -127.5t72.5 -216.5v-4q0 -151 -114.5 -242t-303.5 -91zM626 -574q-90 0 -153 61.5t-63 152.5q0 89 62.5 151.5t153.5 62.5q92 0 154 -62.5t62 -151.5q0 -91 -62 -152.5t-154 -61.5z" />
    <glyph glyph-name="Wgrave" unicode="&#x1e80;" 
d="M199 0l-180 1432h317l57 -926h6l43 275l67 369h182l67 -369l43 -275h6l46 926h328l-180 -1432h-276l-83 467l-39 262h-6l-39 -262l-83 -467h-276zM446 1638l-310 370v14h390l218 -370v-14h-298z" />
    <glyph glyph-name="wgrave" unicode="&#x1e81;" 
d="M212 0l-219 1054h298l80 -555l14 -117h7l15 118l69 433h267l68 -432l14 -119h7l15 119l82 553h278l-220 -1054h-294l-77 469l-13 113h-7l-15 -113l-76 -469h-293zM461 1260l-310 370v14h390l218 -370v-14h-298z" />
    <glyph glyph-name="Wacute" unicode="&#x1e82;" 
d="M199 0l-180 1432h317l57 -926h6l43 275l67 369h182l67 -369l43 -275h6l46 926h328l-180 -1432h-276l-83 467l-39 262h-6l-39 -262l-83 -467h-276zM446 1638v14l218 370h390v-14l-310 -370h-298z" />
    <glyph glyph-name="wacute" unicode="&#x1e83;" 
d="M212 0l-219 1054h298l80 -555l14 -117h7l15 118l69 433h267l68 -432l14 -119h7l15 119l82 553h278l-220 -1054h-294l-77 469l-13 113h-7l-15 -113l-76 -469h-293zM461 1260v14l218 370h390v-14l-310 -370h-298z" />
    <glyph glyph-name="Wdieresis" unicode="&#x1e84;" 
d="M199 0l-180 1432h317l57 -926h6l43 275l67 369h182l67 -369l43 -275h6l46 926h328l-180 -1432h-276l-83 467l-39 262h-6l-39 -262l-83 -467h-276zM305 1613q-86 0 -146 59.5t-60 144.5t60 144.5t146 59.5q87 0 146.5 -59t59.5 -145t-59 -145t-147 -59zM885 1613
q-86 0 -146 59.5t-60 144.5t60 144.5t146 59.5q87 0 146.5 -59t59.5 -145t-59 -145t-147 -59z" />
    <glyph glyph-name="wdieresis" unicode="&#x1e85;" 
d="M212 0l-219 1054h298l80 -555l14 -117h7l15 118l69 433h267l68 -432l14 -119h7l15 119l82 553h278l-220 -1054h-294l-77 469l-13 113h-7l-15 -113l-76 -469h-293zM320 1235q-86 0 -146 59.5t-60 144.5t60 144.5t146 59.5q87 0 146.5 -59t59.5 -145t-59 -145t-147 -59z
M900 1235q-86 0 -146 59.5t-60 144.5t60 144.5t146 59.5q87 0 146.5 -59t59.5 -145t-59 -145t-147 -59z" />
    <glyph glyph-name="uni1E9E" unicode="&#x1e9e;" 
d="M777 -35q-82 0 -160 15t-140 42l120 286q55 -29 114 -29q64 0 99 42t35 119v16q0 92 -50 134.5t-158 42.5h-93v170l138 307v8h-80q-94 0 -142 -52t-48 -154v-912h-342v922q0 254 133.5 382t398.5 128h463v-170l-184 -410v-51l-95 49q191 0 297.5 -110.5t106.5 -310.5v-21
q0 -135 -50.5 -234.5t-143.5 -154t-219 -54.5z" />
    <glyph glyph-name="uni1EA0" unicode="&#x1ea0;" 
d="M2 0l445 1432h310l441 -1432h-356l-193 826l-50 228h-7l-44 -228l-197 -826h-349zM209 245l84 266h594l91 -266h-769zM597 -548q-90 0 -153 61.5t-63 152.5q0 89 62.5 151.5t153.5 62.5q92 0 154 -62.5t62 -151.5q0 -91 -62 -152.5t-154 -61.5z" />
    <glyph glyph-name="uni1EA1" unicode="&#x1ea1;" 
d="M444 -35q-102 0 -180 42.5t-121.5 118t-43.5 173.5v10q0 162 111 258.5t298 96.5q77 0 142.5 -12t123.5 -35v-187q-73 40 -169 40q-79 0 -120 -35.5t-41 -105.5v-16q0 -62 33.5 -95t95.5 -33q53 0 92 27.5t60.5 78t21.5 118.5v243q0 95 -47.5 140t-137.5 45
q-125 0 -237 -105l-170 182q176 175 458 175q230 0 348.5 -106t118.5 -315v-668h-327v129h-10q-46 -78 -123 -121t-176 -43zM602 -609q-90 0 -153 61.5t-63 152.5q0 89 62.5 151.5t153.5 62.5q92 0 154 -62.5t62 -151.5q0 -91 -62 -152.5t-154 -61.5z" />
    <glyph glyph-name="uni1EA2" unicode="&#x1ea2;" 
d="M2 0l445 1432h310l441 -1432h-356l-193 826l-50 228h-7l-44 -228l-197 -826h-349zM209 245l84 266h594l91 -266h-769zM565 1540l-31 216q88 5 128.5 26.5t40.5 66.5q0 80 -114 80q-95 0 -193 -33l-61 212q60 27 128 42t132 15q155 0 246.5 -80t91.5 -214
q0 -145 -95 -230.5t-273 -100.5z" />
    <glyph glyph-name="uni1EA3" unicode="&#x1ea3;" 
d="M444 -35q-102 0 -180 42.5t-121.5 118t-43.5 173.5v10q0 162 111 258.5t298 96.5q77 0 142.5 -12t123.5 -35v-187q-73 40 -169 40q-79 0 -120 -35.5t-41 -105.5v-16q0 -62 33.5 -95t95.5 -33q53 0 92 27.5t60.5 78t21.5 118.5v243q0 95 -47.5 140t-137.5 45
q-125 0 -237 -105l-170 182q176 175 458 175q230 0 348.5 -106t118.5 -315v-668h-327v129h-10q-46 -78 -123 -121t-176 -43zM576 1162l-31 216q88 5 128.5 26.5t40.5 66.5q0 80 -114 80q-95 0 -193 -33l-61 212q60 27 128 42t132 15q155 0 246.5 -80t91.5 -214
q0 -145 -95 -230.5t-273 -100.5z" />
    <glyph glyph-name="uni1EA4" unicode="&#x1ea4;" 
d="M2 0l445 1432h310l441 -1432h-356l-193 826l-50 228h-7l-44 -228l-197 -826h-349zM209 245l84 266h594l91 -266h-769zM114 1542v14l358 360h260l358 -360v-14h-336l-172 215h40l-172 -215h-336zM846 1851v14l148 420h278v-14l-226 -420h-200z" />
    <glyph glyph-name="uni1EA5" unicode="&#x1ea5;" 
d="M444 -35q-102 0 -180 42.5t-121.5 118t-43.5 173.5v10q0 162 111 258.5t298 96.5q77 0 142.5 -12t123.5 -35v-187q-73 40 -169 40q-79 0 -120 -35.5t-41 -105.5v-16q0 -62 33.5 -95t95.5 -33q53 0 92 27.5t60.5 78t21.5 118.5v243q0 95 -47.5 140t-137.5 45
q-125 0 -237 -105l-170 182q176 175 458 175q230 0 348.5 -106t118.5 -315v-668h-327v129h-10q-46 -78 -123 -121t-176 -43zM125 1218v14l358 360h260l358 -360v-14h-336l-172 215h40l-172 -215h-336zM857 1527v14l148 420h278v-14l-226 -420h-200z" />
    <glyph glyph-name="uni1EA6" unicode="&#x1ea6;" 
d="M2 0l445 1432h310l441 -1432h-356l-193 826l-50 228h-7l-44 -228l-197 -826h-349zM209 245l84 266h594l91 -266h-769zM114 1542v14l358 360h260l358 -360v-14h-336l-172 215h40l-172 -215h-336zM976 1851l-282 420v14h286l222 -420v-14h-226z" />
    <glyph glyph-name="uni1EA7" unicode="&#x1ea7;" 
d="M444 -35q-102 0 -180 42.5t-121.5 118t-43.5 173.5v10q0 162 111 258.5t298 96.5q77 0 142.5 -12t123.5 -35v-187q-73 40 -169 40q-79 0 -120 -35.5t-41 -105.5v-16q0 -62 33.5 -95t95.5 -33q53 0 92 27.5t60.5 78t21.5 118.5v243q0 95 -47.5 140t-137.5 45
q-125 0 -237 -105l-170 182q176 175 458 175q230 0 348.5 -106t118.5 -315v-668h-327v129h-10q-46 -78 -123 -121t-176 -43zM125 1218v14l358 360h260l358 -360v-14h-336l-172 215h40l-172 -215h-336zM987 1527l-282 420v14h286l222 -420v-14h-226z" />
    <glyph glyph-name="uni1EA8" unicode="&#x1ea8;" 
d="M2 0l445 1432h310l441 -1432h-356l-193 826l-50 228h-7l-44 -228l-197 -826h-349zM209 245l84 266h594l91 -266h-769zM114 1542v14l358 360h260l358 -360v-14h-336l-172 215h40l-172 -215h-336zM940 1790l-26 184q114 9 114 75q0 71 -112 71q-79 0 -155 -22l-45 188
q95 34 206 34q134 0 215 -69.5t81 -184.5q0 -116 -73.5 -189t-204.5 -87z" />
    <glyph glyph-name="uni1EA9" unicode="&#x1ea9;" 
d="M444 -35q-102 0 -180 42.5t-121.5 118t-43.5 173.5v10q0 162 111 258.5t298 96.5q77 0 142.5 -12t123.5 -35v-187q-73 40 -169 40q-79 0 -120 -35.5t-41 -105.5v-16q0 -62 33.5 -95t95.5 -33q53 0 92 27.5t60.5 78t21.5 118.5v243q0 95 -47.5 140t-137.5 45
q-125 0 -237 -105l-170 182q176 175 458 175q230 0 348.5 -106t118.5 -315v-668h-327v129h-10q-46 -78 -123 -121t-176 -43zM125 1218v14l358 360h260l358 -360v-14h-336l-172 215h40l-172 -215h-336zM951 1466l-26 184q114 9 114 75q0 71 -112 71q-79 0 -155 -22l-45 188
q95 34 206 34q134 0 215 -69.5t81 -184.5q0 -116 -73.5 -189t-204.5 -87z" />
    <glyph glyph-name="uni1EAA" unicode="&#x1eaa;" 
d="M2 0l445 1432h310l441 -1432h-356l-193 826l-50 228h-7l-44 -228l-197 -826h-349zM209 245l84 266h594l91 -266h-769zM114 1542v14l358 360h260l358 -360v-14h-336l-172 215h40l-172 -215h-336zM824 2000q-52 0 -99 17t-98 48q-59 37 -92 51t-65 14q-65 0 -65 -69v-57
h-230v88q0 125 58.5 191.5t161.5 66.5q52 0 98 -17.5t96 -49.5q59 -37 90.5 -50.5t59.5 -13.5q60 0 60 69v58h230v-88q0 -129 -52 -193.5t-153 -64.5z" />
    <glyph glyph-name="uni1EAB" unicode="&#x1eab;" 
d="M444 -35q-102 0 -180 42.5t-121.5 118t-43.5 173.5v10q0 162 111 258.5t298 96.5q77 0 142.5 -12t123.5 -35v-187q-73 40 -169 40q-79 0 -120 -35.5t-41 -105.5v-16q0 -62 33.5 -95t95.5 -33q53 0 92 27.5t60.5 78t21.5 118.5v243q0 95 -47.5 140t-137.5 45
q-125 0 -237 -105l-170 182q176 175 458 175q230 0 348.5 -106t118.5 -315v-668h-327v129h-10q-46 -78 -123 -121t-176 -43zM125 1218v14l358 360h260l358 -360v-14h-336l-172 215h40l-172 -215h-336zM835 1676q-52 0 -99 17t-98 48q-59 37 -92 51t-65 14q-65 0 -65 -69v-57
h-230v88q0 125 58.5 191.5t161.5 66.5q52 0 98 -17.5t96 -49.5q59 -37 90.5 -50.5t59.5 -13.5q60 0 60 69v58h230v-88q0 -129 -52 -193.5t-153 -64.5z" />
    <glyph glyph-name="uni1EAC" unicode="&#x1eac;" 
d="M2 0l445 1432h310l441 -1432h-356l-193 826l-50 228h-7l-44 -228l-197 -826h-349zM209 245l84 266h594l91 -266h-769zM597 -548q-90 0 -153 61.5t-63 152.5q0 89 62.5 151.5t153.5 62.5q92 0 154 -62.5t62 -151.5q0 -91 -62 -152.5t-154 -61.5zM142 1638v14l296 370h328
l296 -370v-14h-330l-166 299h72l-166 -299h-330z" />
    <glyph glyph-name="uni1EAD" unicode="&#x1ead;" 
d="M444 -35q-102 0 -180 42.5t-121.5 118t-43.5 173.5v10q0 162 111 258.5t298 96.5q77 0 142.5 -12t123.5 -35v-187q-73 40 -169 40q-79 0 -120 -35.5t-41 -105.5v-16q0 -62 33.5 -95t95.5 -33q53 0 92 27.5t60.5 78t21.5 118.5v243q0 95 -47.5 140t-137.5 45
q-125 0 -237 -105l-170 182q176 175 458 175q230 0 348.5 -106t118.5 -315v-668h-327v129h-10q-46 -78 -123 -121t-176 -43zM602 -609q-90 0 -153 61.5t-63 152.5q0 89 62.5 151.5t153.5 62.5q92 0 154 -62.5t62 -151.5q0 -91 -62 -152.5t-154 -61.5zM153 1260v14l296 370
h328l296 -370v-14h-330l-166 299h72l-166 -299h-330z" />
    <glyph glyph-name="uni1EAE" unicode="&#x1eae;" 
d="M2 0l445 1432h310l441 -1432h-356l-193 826l-50 228h-7l-44 -228l-197 -826h-349zM209 245l84 266h594l91 -266h-769zM385.5 1590.5q-93.5 48.5 -145.5 135.5t-52 201v7h224v-10q0 -84 51 -133t139 -49t139 49t51 133v10h224v-7q0 -114 -52 -201t-145 -135.5
t-216.5 -48.5t-217 48.5zM482 1908v14l100 390h314v-14l-244 -390h-170z" />
    <glyph glyph-name="uni1EAF" unicode="&#x1eaf;" 
d="M444 -35q-102 0 -180 42.5t-121.5 118t-43.5 173.5v10q0 162 111 258.5t298 96.5q77 0 142.5 -12t123.5 -35v-187q-73 40 -169 40q-79 0 -120 -35.5t-41 -105.5v-16q0 -62 33.5 -95t95.5 -33q53 0 92 27.5t60.5 78t21.5 118.5v243q0 95 -47.5 140t-137.5 45
q-125 0 -237 -105l-170 182q176 175 458 175q230 0 348.5 -106t118.5 -315v-668h-327v129h-10q-46 -78 -123 -121t-176 -43zM396.5 1256.5q-93.5 48.5 -145.5 135.5t-52 201v7h224v-10q0 -84 51 -133t139 -49t139 49t51 133v10h224v-7q0 -114 -52 -201t-145 -135.5
t-216.5 -48.5t-217 48.5zM493 1574v14l100 390h314v-14l-244 -390h-170z" />
    <glyph glyph-name="uni1EB0" unicode="&#x1eb0;" 
d="M2 0l445 1432h310l441 -1432h-356l-193 826l-50 228h-7l-44 -228l-197 -826h-349zM209 245l84 266h594l91 -266h-769zM385.5 1590.5q-93.5 48.5 -145.5 135.5t-52 201v7h224v-10q0 -84 51 -133t139 -49t139 49t51 133v10h224v-7q0 -114 -52 -201t-145 -135.5
t-216.5 -48.5t-217 48.5zM552 1908l-272 390v14h310l142 -390v-14h-180z" />
    <glyph glyph-name="uni1EB1" unicode="&#x1eb1;" 
d="M444 -35q-102 0 -180 42.5t-121.5 118t-43.5 173.5v10q0 162 111 258.5t298 96.5q77 0 142.5 -12t123.5 -35v-187q-73 40 -169 40q-79 0 -120 -35.5t-41 -105.5v-16q0 -62 33.5 -95t95.5 -33q53 0 92 27.5t60.5 78t21.5 118.5v243q0 95 -47.5 140t-137.5 45
q-125 0 -237 -105l-170 182q176 175 458 175q230 0 348.5 -106t118.5 -315v-668h-327v129h-10q-46 -78 -123 -121t-176 -43zM396.5 1256.5q-93.5 48.5 -145.5 135.5t-52 201v7h224v-10q0 -84 51 -133t139 -49t139 49t51 133v10h224v-7q0 -114 -52 -201t-145 -135.5
t-216.5 -48.5t-217 48.5zM563 1574l-272 390v14h310l142 -390v-14h-180z" />
    <glyph glyph-name="uni1EB2" unicode="&#x1eb2;" 
d="M2 0l445 1432h310l441 -1432h-356l-193 826l-50 228h-7l-44 -228l-197 -826h-349zM209 245l84 266h594l91 -266h-769zM602 1542q-124 0 -219.5 49.5t-150 137.5t-54.5 202v7h218v-10q0 -88 53 -139.5t153 -51.5t153 51.5t53 139.5v10h218v-7q0 -114 -54.5 -202
t-150 -137.5t-219.5 -49.5zM531 1858l-19 170q122 9 122 73q0 66 -116 66q-80 0 -161 -23l-48 188q106 35 215 35q137 0 217.5 -66.5t80.5 -179.5q0 -108 -76.5 -177t-214.5 -86z" />
    <glyph glyph-name="uni1EB3" unicode="&#x1eb3;" 
d="M444 -35q-102 0 -180 42.5t-121.5 118t-43.5 173.5v10q0 162 111 258.5t298 96.5q77 0 142.5 -12t123.5 -35v-187q-73 40 -169 40q-79 0 -120 -35.5t-41 -105.5v-16q0 -62 33.5 -95t95.5 -33q53 0 92 27.5t60.5 78t21.5 118.5v243q0 95 -47.5 140t-137.5 45
q-125 0 -237 -105l-170 182q176 175 458 175q230 0 348.5 -106t118.5 -315v-668h-327v129h-10q-46 -78 -123 -121t-176 -43zM613 1208q-124 0 -219.5 49.5t-150 137.5t-54.5 202v7h218v-10q0 -88 53 -139.5t153 -51.5t153 51.5t53 139.5v10h218v-7q0 -114 -54.5 -202
t-150 -137.5t-219.5 -49.5zM542 1524l-19 170q122 9 122 73q0 66 -116 66q-80 0 -161 -23l-48 188q106 35 215 35q137 0 217.5 -66.5t80.5 -179.5q0 -108 -76.5 -177t-214.5 -86z" />
    <glyph glyph-name="uni1EB4" unicode="&#x1eb4;" 
d="M2 0l445 1432h310l441 -1432h-356l-193 826l-50 228h-7l-44 -228l-197 -826h-349zM209 245l84 266h594l91 -266h-769zM602 1542q-117 0 -206 47.5t-138.5 132t-49.5 196.5v7h230v-10q0 -82 44 -129t120 -47t120 47t44 129v10h230v-7q0 -112 -49.5 -196.5t-138 -132
t-206.5 -47.5zM824 2027q-52 0 -99 17t-98 48q-59 37 -92 51t-65 14q-30 0 -47.5 -18t-17.5 -51v-57h-230v88q0 125 58.5 191.5t161.5 66.5q52 0 98 -17.5t96 -49.5q59 -37 90.5 -50.5t59.5 -13.5q60 0 60 69v58h230v-88q0 -129 -52 -193.5t-153 -64.5z" />
    <glyph glyph-name="uni1EB5" unicode="&#x1eb5;" 
d="M444 -35q-102 0 -180 42.5t-121.5 118t-43.5 173.5v10q0 162 111 258.5t298 96.5q77 0 142.5 -12t123.5 -35v-187q-73 40 -169 40q-79 0 -120 -35.5t-41 -105.5v-16q0 -62 33.5 -95t95.5 -33q53 0 92 27.5t60.5 78t21.5 118.5v243q0 95 -47.5 140t-137.5 45
q-125 0 -237 -105l-170 182q176 175 458 175q230 0 348.5 -106t118.5 -315v-668h-327v129h-10q-46 -78 -123 -121t-176 -43zM613 1208q-117 0 -206 47.5t-138.5 132t-49.5 196.5v7h230v-10q0 -82 44 -129t120 -47t120 47t44 129v10h230v-7q0 -112 -49.5 -196.5t-138 -132
t-206.5 -47.5zM835 1693q-52 0 -99 17t-98 48q-59 37 -92 51t-65 14q-30 0 -47.5 -18t-17.5 -51v-57h-230v88q0 125 58.5 191.5t161.5 66.5q52 0 98 -17.5t96 -49.5q59 -37 90.5 -50.5t59.5 -13.5q60 0 60 69v58h230v-88q0 -129 -52 -193.5t-153 -64.5z" />
    <glyph glyph-name="uni1EB6" unicode="&#x1eb6;" 
d="M2 0l445 1432h310l441 -1432h-356l-193 826l-50 228h-7l-44 -228l-197 -826h-349zM209 245l84 266h594l91 -266h-769zM597 -548q-90 0 -153 61.5t-63 152.5q0 89 62.5 151.5t153.5 62.5q92 0 154 -62.5t62 -151.5q0 -91 -62 -152.5t-154 -61.5zM393 1672.5
q-90 48.5 -139.5 135.5t-49.5 202v12h246v-18q0 -73 40.5 -114.5t111.5 -41.5t111.5 41.5t40.5 114.5v18h246v-12q0 -115 -49.5 -202t-139 -135.5t-209 -48.5t-209.5 48.5z" />
    <glyph glyph-name="uni1EB7" unicode="&#x1eb7;" 
d="M444 -35q-102 0 -180 42.5t-121.5 118t-43.5 173.5v10q0 162 111 258.5t298 96.5q77 0 142.5 -12t123.5 -35v-187q-73 40 -169 40q-79 0 -120 -35.5t-41 -105.5v-16q0 -62 33.5 -95t95.5 -33q53 0 92 27.5t60.5 78t21.5 118.5v243q0 95 -47.5 140t-137.5 45
q-125 0 -237 -105l-170 182q176 175 458 175q230 0 348.5 -106t118.5 -315v-668h-327v129h-10q-46 -78 -123 -121t-176 -43zM602 -609q-90 0 -153 61.5t-63 152.5q0 89 62.5 151.5t153.5 62.5q92 0 154 -62.5t62 -151.5q0 -91 -62 -152.5t-154 -61.5zM404 1294.5
q-90 48.5 -139.5 135.5t-49.5 202v12h246v-18q0 -73 40.5 -114.5t111.5 -41.5t111.5 41.5t40.5 114.5v18h246v-12q0 -115 -49.5 -202t-139 -135.5t-209 -48.5t-209.5 48.5z" />
    <glyph glyph-name="uni1EB8" unicode="&#x1eb8;" 
d="M130 0v1432h916v-322h-572v-788h588v-322h-932zM346 570v318h620v-318h-620zM596 -574q-90 0 -153 61.5t-63 152.5q0 89 62.5 151.5t153.5 62.5q92 0 154 -62.5t62 -151.5q0 -91 -62 -152.5t-154 -61.5z" />
    <glyph glyph-name="uni1EB9" unicode="&#x1eb9;" 
d="M622 -35q-167 0 -290 68t-190.5 192.5t-67.5 291.5v17q0 167 69 291.5t193 194t288 69.5q148 0 258.5 -61t171.5 -172t61 -261q0 -44 -3 -81t-11 -65h-855v187h561v-10q0 94 -47 145.5t-133 51.5q-106 0 -167.5 -78t-61.5 -215v-9q0 -133 59 -209t164 -76q138 0 193 135
l294 -112q-58 -138 -185.5 -216t-300.5 -78zM622 -609q-90 0 -153 61.5t-63 152.5q0 89 62.5 151.5t153.5 62.5q92 0 154 -62.5t62 -151.5q0 -91 -62 -152.5t-154 -61.5z" />
    <glyph glyph-name="uni1EBA" unicode="&#x1eba;" 
d="M130 0v1432h916v-322h-572v-788h588v-322h-932zM346 570v318h620v-318h-620zM551 1540l-31 216q88 5 128.5 26.5t40.5 66.5q0 80 -114 80q-95 0 -193 -33l-61 212q60 27 128 42t132 15q155 0 246.5 -80t91.5 -214q0 -145 -95 -230.5t-273 -100.5z" />
    <glyph glyph-name="uni1EBB" unicode="&#x1ebb;" 
d="M622 -35q-167 0 -290 68t-190.5 192.5t-67.5 291.5v17q0 167 69 291.5t193 194t288 69.5q148 0 258.5 -61t171.5 -172t61 -261q0 -44 -3 -81t-11 -65h-855v187h561v-10q0 94 -47 145.5t-133 51.5q-106 0 -167.5 -78t-61.5 -215v-9q0 -133 59 -209t164 -76q138 0 193 135
l294 -112q-58 -138 -185.5 -216t-300.5 -78zM591 1162l-31 216q88 5 128.5 26.5t40.5 66.5q0 80 -114 80q-95 0 -193 -33l-61 212q60 27 128 42t132 15q155 0 246.5 -80t91.5 -214q0 -145 -95 -230.5t-273 -100.5z" />
    <glyph glyph-name="uni1EBC" unicode="&#x1ebc;" 
d="M130 0v1432h916v-322h-572v-788h588v-322h-932zM346 570v318h620v-318h-620zM767 1635q-47 0 -95 20.5t-96 62.5q-37 33 -60 48.5t-44 15.5q-53 0 -53 -64v-80h-238v89q0 145 61.5 221.5t177.5 76.5q47 0 90 -18.5t90 -62.5q37 -34 61 -50t46 -16q50 0 50 64v80h238v-88
q0 -146 -56.5 -222.5t-171.5 -76.5z" />
    <glyph glyph-name="uni1EBD" unicode="&#x1ebd;" 
d="M622 -35q-167 0 -290 68t-190.5 192.5t-67.5 291.5v17q0 167 69 291.5t193 194t288 69.5q148 0 258.5 -61t171.5 -172t61 -261q0 -44 -3 -81t-11 -65h-855v187h561v-10q0 94 -47 145.5t-133 51.5q-106 0 -167.5 -78t-61.5 -215v-9q0 -133 59 -209t164 -76q138 0 193 135
l294 -112q-58 -138 -185.5 -216t-300.5 -78zM807 1257q-47 0 -95 20.5t-96 62.5q-37 33 -60 48.5t-44 15.5q-53 0 -53 -64v-80h-238v89q0 145 61.5 221.5t177.5 76.5q47 0 90 -18.5t90 -62.5q37 -34 61 -50t46 -16q50 0 50 64v80h238v-88q0 -146 -56.5 -222.5t-171.5 -76.5z
" />
    <glyph glyph-name="uni1EBE" unicode="&#x1ebe;" 
d="M130 0v1432h916v-322h-572v-788h588v-322h-932zM346 570v318h620v-318h-620zM100 1542v14l358 360h260l358 -360v-14h-336l-172 215h40l-172 -215h-336zM832 1851v14l148 420h278v-14l-226 -420h-200z" />
    <glyph glyph-name="uni1EBF" unicode="&#x1ebf;" 
d="M622 -35q-167 0 -290 68t-190.5 192.5t-67.5 291.5v17q0 167 69 291.5t193 194t288 69.5q148 0 258.5 -61t171.5 -172t61 -261q0 -44 -3 -81t-11 -65h-855v187h561v-10q0 94 -47 145.5t-133 51.5q-106 0 -167.5 -78t-61.5 -215v-9q0 -133 59 -209t164 -76q138 0 193 135
l294 -112q-58 -138 -185.5 -216t-300.5 -78zM140 1218v14l358 360h260l358 -360v-14h-336l-172 215h40l-172 -215h-336zM872 1527v14l148 420h278v-14l-226 -420h-200z" />
    <glyph glyph-name="uni1EC0" unicode="&#x1ec0;" 
d="M130 0v1432h916v-322h-572v-788h588v-322h-932zM346 570v318h620v-318h-620zM100 1542v14l358 360h260l358 -360v-14h-336l-172 215h40l-172 -215h-336zM962 1851l-282 420v14h286l222 -420v-14h-226z" />
    <glyph glyph-name="uni1EC1" unicode="&#x1ec1;" 
d="M622 -35q-167 0 -290 68t-190.5 192.5t-67.5 291.5v17q0 167 69 291.5t193 194t288 69.5q148 0 258.5 -61t171.5 -172t61 -261q0 -44 -3 -81t-11 -65h-855v187h561v-10q0 94 -47 145.5t-133 51.5q-106 0 -167.5 -78t-61.5 -215v-9q0 -133 59 -209t164 -76q138 0 193 135
l294 -112q-58 -138 -185.5 -216t-300.5 -78zM140 1218v14l358 360h260l358 -360v-14h-336l-172 215h40l-172 -215h-336zM1002 1527l-282 420v14h286l222 -420v-14h-226z" />
    <glyph glyph-name="uni1EC2" unicode="&#x1ec2;" 
d="M130 0v1432h916v-322h-572v-788h588v-322h-932zM346 570v318h620v-318h-620zM100 1542v14l358 360h260l358 -360v-14h-336l-172 215h40l-172 -215h-336zM926 1790l-26 184q114 9 114 75q0 71 -112 71q-79 0 -155 -22l-45 188q95 34 206 34q134 0 215 -69.5t81 -184.5
q0 -116 -73.5 -189t-204.5 -87z" />
    <glyph glyph-name="uni1EC3" unicode="&#x1ec3;" 
d="M622 -35q-167 0 -290 68t-190.5 192.5t-67.5 291.5v17q0 167 69 291.5t193 194t288 69.5q148 0 258.5 -61t171.5 -172t61 -261q0 -44 -3 -81t-11 -65h-855v187h561v-10q0 94 -47 145.5t-133 51.5q-106 0 -167.5 -78t-61.5 -215v-9q0 -133 59 -209t164 -76q138 0 193 135
l294 -112q-58 -138 -185.5 -216t-300.5 -78zM140 1218v14l358 360h260l358 -360v-14h-336l-172 215h40l-172 -215h-336zM966 1466l-26 184q114 9 114 75q0 71 -112 71q-79 0 -155 -22l-45 188q95 34 206 34q134 0 215 -69.5t81 -184.5q0 -116 -73.5 -189t-204.5 -87z" />
    <glyph glyph-name="uni1EC4" unicode="&#x1ec4;" 
d="M130 0v1432h916v-322h-572v-788h588v-322h-932zM346 570v318h620v-318h-620zM100 1542v14l358 360h260l358 -360v-14h-336l-172 215h40l-172 -215h-336zM810 2000q-52 0 -99 17t-98 48q-59 37 -92 51t-65 14q-65 0 -65 -69v-57h-230v88q0 125 58.5 191.5t161.5 66.5
q52 0 98 -17.5t96 -49.5q59 -37 90.5 -50.5t59.5 -13.5q60 0 60 69v58h230v-88q0 -129 -52 -193.5t-153 -64.5z" />
    <glyph glyph-name="uni1EC5" unicode="&#x1ec5;" 
d="M622 -35q-167 0 -290 68t-190.5 192.5t-67.5 291.5v17q0 167 69 291.5t193 194t288 69.5q148 0 258.5 -61t171.5 -172t61 -261q0 -44 -3 -81t-11 -65h-855v187h561v-10q0 94 -47 145.5t-133 51.5q-106 0 -167.5 -78t-61.5 -215v-9q0 -133 59 -209t164 -76q138 0 193 135
l294 -112q-58 -138 -185.5 -216t-300.5 -78zM140 1218v14l358 360h260l358 -360v-14h-336l-172 215h40l-172 -215h-336zM850 1676q-52 0 -99 17t-98 48q-59 37 -92 51t-65 14q-65 0 -65 -69v-57h-230v88q0 125 58.5 191.5t161.5 66.5q52 0 98 -17.5t96 -49.5
q59 -37 90.5 -50.5t59.5 -13.5q60 0 60 69v58h230v-88q0 -129 -52 -193.5t-153 -64.5z" />
    <glyph glyph-name="uni1EC6" unicode="&#x1ec6;" 
d="M130 0v1432h916v-322h-572v-788h588v-322h-932zM346 570v318h620v-318h-620zM596 -574q-90 0 -153 61.5t-63 152.5q0 89 62.5 151.5t153.5 62.5q92 0 154 -62.5t62 -151.5q0 -91 -62 -152.5t-154 -61.5zM128 1638v14l296 370h328l296 -370v-14h-330l-166 299h72
l-166 -299h-330z" />
    <glyph glyph-name="uni1EC7" unicode="&#x1ec7;" 
d="M622 -35q-167 0 -290 68t-190.5 192.5t-67.5 291.5v17q0 167 69 291.5t193 194t288 69.5q148 0 258.5 -61t171.5 -172t61 -261q0 -44 -3 -81t-11 -65h-855v187h561v-10q0 94 -47 145.5t-133 51.5q-106 0 -167.5 -78t-61.5 -215v-9q0 -133 59 -209t164 -76q138 0 193 135
l294 -112q-58 -138 -185.5 -216t-300.5 -78zM622 -609q-90 0 -153 61.5t-63 152.5q0 89 62.5 151.5t153.5 62.5q92 0 154 -62.5t62 -151.5q0 -91 -62 -152.5t-154 -61.5zM168 1260v14l296 370h328l296 -370v-14h-330l-166 299h72l-166 -299h-330z" />
    <glyph glyph-name="uni1EC8" unicode="&#x1ec8;" 
d="M425 155v1122h350v-1122h-350zM130 0v326h940v-326h-940zM130 1106v326h940v-326h-940zM563 1540l-31 216q88 5 128.5 26.5t40.5 66.5q0 80 -114 80q-95 0 -193 -33l-61 212q60 27 128 42t132 15q155 0 246.5 -80t91.5 -214q0 -145 -95 -230.5t-273 -100.5z" />
    <glyph glyph-name="uni1EC9" unicode="&#x1ec9;" 
d="M487 83v971h336v-971h-336zM155 0v250h971v-250h-971zM175 804v250h612v-250h-612zM557 1162l-31 216q88 5 128.5 26.5t40.5 66.5q0 80 -114 80q-95 0 -193 -33l-61 212q60 27 128 42t132 15q155 0 246.5 -80t91.5 -214q0 -145 -95 -230.5t-273 -100.5z" />
    <glyph glyph-name="uni1ECA" unicode="&#x1eca;" 
d="M425 155v1122h350v-1122h-350zM130 0v326h940v-326h-940zM130 1106v326h940v-326h-940zM600 -574q-90 0 -153 61.5t-63 152.5q0 89 62.5 151.5t153.5 62.5q92 0 154 -62.5t62 -151.5q0 -91 -62 -152.5t-154 -61.5z" />
    <glyph glyph-name="uni1ECB" unicode="&#x1ecb;" 
d="M487 83v971h336v-971h-336zM155 0v250h971v-250h-971zM175 804v250h612v-250h-612zM622 1235q-88 0 -150.5 60.5t-62.5 147.5q0 91 62.5 149t150.5 58q92 0 151.5 -58t59.5 -149q0 -87 -59.5 -147.5t-151.5 -60.5zM655 -574q-90 0 -153 61.5t-63 152.5q0 89 62.5 151.5
t153.5 62.5q92 0 154 -62.5t62 -151.5q0 -91 -62 -152.5t-154 -61.5z" />
    <glyph glyph-name="uni1ECC" unicode="&#x1ecc;" 
d="M305 52q-123 87 -189 250t-66 391v46q0 228 66 391t189 250t295 87t295 -87t189 -250t66 -391v-46q0 -228 -66 -391t-189 -250t-295 -87t-295 87zM749.5 397q50.5 98 50.5 291v56q0 193 -50.5 291t-149.5 98t-149.5 -98t-50.5 -291v-56q0 -193 50.5 -291t149.5 -98
t149.5 98zM600 -609q-90 0 -153 61.5t-63 152.5q0 89 62.5 151.5t153.5 62.5q92 0 154 -62.5t62 -151.5q0 -91 -62 -152.5t-154 -61.5z" />
    <glyph glyph-name="uni1ECD" unicode="&#x1ecd;" 
d="M324 36.5q-121 71.5 -189.5 196.5t-68.5 284v20q0 160 68.5 284.5t189.5 196t276.5 71.5t276 -71.5t189 -196t68.5 -284.5v-20q0 -159 -68.5 -284t-189 -196.5t-276 -71.5t-276.5 71.5zM742.5 333.5q53.5 70.5 53.5 187.5v12q0 117 -53.5 187.5t-142 70.5t-142.5 -70.5
t-54 -187.5v-12q0 -117 54 -187.5t142.5 -70.5t142 70.5zM600 -609q-90 0 -153 61.5t-63 152.5q0 89 62.5 151.5t153.5 62.5q92 0 154 -62.5t62 -151.5q0 -91 -62 -152.5t-154 -61.5z" />
    <glyph glyph-name="uni1ECE" unicode="&#x1ece;" 
d="M305 52q-123 87 -189 250t-66 391v46q0 228 66 391t189 250t295 87t295 -87t189 -250t66 -391v-46q0 -228 -66 -391t-189 -250t-295 -87t-295 87zM749.5 397q50.5 98 50.5 291v56q0 193 -50.5 291t-149.5 98t-149.5 -98t-50.5 -291v-56q0 -193 50.5 -291t149.5 -98
t149.5 98zM563 1540l-31 216q88 5 128.5 26.5t40.5 66.5q0 80 -114 80q-95 0 -193 -33l-61 212q60 27 128 42t132 15q155 0 246.5 -80t91.5 -214q0 -145 -95 -230.5t-273 -100.5z" />
    <glyph glyph-name="uni1ECF" unicode="&#x1ecf;" 
d="M324 36.5q-121 71.5 -189.5 196.5t-68.5 284v20q0 160 68.5 284.5t189.5 196t276.5 71.5t276 -71.5t189 -196t68.5 -284.5v-20q0 -159 -68.5 -284t-189 -196.5t-276 -71.5t-276.5 71.5zM742.5 333.5q53.5 70.5 53.5 187.5v12q0 117 -53.5 187.5t-142 70.5t-142.5 -70.5
t-54 -187.5v-12q0 -117 54 -187.5t142.5 -70.5t142 70.5zM563 1162l-31 216q88 5 128.5 26.5t40.5 66.5q0 80 -114 80q-95 0 -193 -33l-61 212q60 27 128 42t132 15q155 0 246.5 -80t91.5 -214q0 -145 -95 -230.5t-273 -100.5z" />
    <glyph glyph-name="uni1ED0" unicode="&#x1ed0;" 
d="M305 52q-123 87 -189 250t-66 391v46q0 228 66 391t189 250t295 87t295 -87t189 -250t66 -391v-46q0 -228 -66 -391t-189 -250t-295 -87t-295 87zM749.5 397q50.5 98 50.5 291v56q0 193 -50.5 291t-149.5 98t-149.5 -98t-50.5 -291v-56q0 -193 50.5 -291t149.5 -98
t149.5 98zM112 1542v14l358 360h260l358 -360v-14h-336l-172 215h40l-172 -215h-336zM844 1851v14l148 420h278v-14l-226 -420h-200z" />
    <glyph glyph-name="uni1ED1" unicode="&#x1ed1;" 
d="M324 36.5q-121 71.5 -189.5 196.5t-68.5 284v20q0 160 68.5 284.5t189.5 196t276.5 71.5t276 -71.5t189 -196t68.5 -284.5v-20q0 -159 -68.5 -284t-189 -196.5t-276 -71.5t-276.5 71.5zM742.5 333.5q53.5 70.5 53.5 187.5v12q0 117 -53.5 187.5t-142 70.5t-142.5 -70.5
t-54 -187.5v-12q0 -117 54 -187.5t142.5 -70.5t142 70.5zM112 1218v14l358 360h260l358 -360v-14h-336l-172 215h40l-172 -215h-336zM844 1527v14l148 420h278v-14l-226 -420h-200z" />
    <glyph glyph-name="uni1ED2" unicode="&#x1ed2;" 
d="M305 52q-123 87 -189 250t-66 391v46q0 228 66 391t189 250t295 87t295 -87t189 -250t66 -391v-46q0 -228 -66 -391t-189 -250t-295 -87t-295 87zM749.5 397q50.5 98 50.5 291v56q0 193 -50.5 291t-149.5 98t-149.5 -98t-50.5 -291v-56q0 -193 50.5 -291t149.5 -98
t149.5 98zM112 1542v14l358 360h260l358 -360v-14h-336l-172 215h40l-172 -215h-336zM974 1851l-282 420v14h286l222 -420v-14h-226z" />
    <glyph glyph-name="uni1ED3" unicode="&#x1ed3;" 
d="M324 36.5q-121 71.5 -189.5 196.5t-68.5 284v20q0 160 68.5 284.5t189.5 196t276.5 71.5t276 -71.5t189 -196t68.5 -284.5v-20q0 -159 -68.5 -284t-189 -196.5t-276 -71.5t-276.5 71.5zM742.5 333.5q53.5 70.5 53.5 187.5v12q0 117 -53.5 187.5t-142 70.5t-142.5 -70.5
t-54 -187.5v-12q0 -117 54 -187.5t142.5 -70.5t142 70.5zM112 1218v14l358 360h260l358 -360v-14h-336l-172 215h40l-172 -215h-336zM974 1527l-282 420v14h286l222 -420v-14h-226z" />
    <glyph glyph-name="uni1ED4" unicode="&#x1ed4;" 
d="M305 52q-123 87 -189 250t-66 391v46q0 228 66 391t189 250t295 87t295 -87t189 -250t66 -391v-46q0 -228 -66 -391t-189 -250t-295 -87t-295 87zM749.5 397q50.5 98 50.5 291v56q0 193 -50.5 291t-149.5 98t-149.5 -98t-50.5 -291v-56q0 -193 50.5 -291t149.5 -98
t149.5 98zM112 1542v14l358 360h260l358 -360v-14h-336l-172 215h40l-172 -215h-336zM938 1790l-26 184q114 9 114 75q0 71 -112 71q-79 0 -155 -22l-45 188q95 34 206 34q134 0 215 -69.5t81 -184.5q0 -116 -73.5 -189t-204.5 -87z" />
    <glyph glyph-name="uni1ED5" unicode="&#x1ed5;" 
d="M324 36.5q-121 71.5 -189.5 196.5t-68.5 284v20q0 160 68.5 284.5t189.5 196t276.5 71.5t276 -71.5t189 -196t68.5 -284.5v-20q0 -159 -68.5 -284t-189 -196.5t-276 -71.5t-276.5 71.5zM742.5 333.5q53.5 70.5 53.5 187.5v12q0 117 -53.5 187.5t-142 70.5t-142.5 -70.5
t-54 -187.5v-12q0 -117 54 -187.5t142.5 -70.5t142 70.5zM112 1218v14l358 360h260l358 -360v-14h-336l-172 215h40l-172 -215h-336zM938 1466l-26 184q114 9 114 75q0 71 -112 71q-79 0 -155 -22l-45 188q95 34 206 34q134 0 215 -69.5t81 -184.5q0 -116 -73.5 -189
t-204.5 -87z" />
    <glyph glyph-name="uni1ED6" unicode="&#x1ed6;" 
d="M305 52q-123 87 -189 250t-66 391v46q0 228 66 391t189 250t295 87t295 -87t189 -250t66 -391v-46q0 -228 -66 -391t-189 -250t-295 -87t-295 87zM749.5 397q50.5 98 50.5 291v56q0 193 -50.5 291t-149.5 98t-149.5 -98t-50.5 -291v-56q0 -193 50.5 -291t149.5 -98
t149.5 98zM112 1542v14l358 360h260l358 -360v-14h-336l-172 215h40l-172 -215h-336zM822 2000q-52 0 -99 17t-98 48q-59 37 -92 51t-65 14q-65 0 -65 -69v-57h-230v88q0 125 58.5 191.5t161.5 66.5q52 0 98 -17.5t96 -49.5q59 -37 90.5 -50.5t59.5 -13.5q60 0 60 69v58h230
v-88q0 -129 -52 -193.5t-153 -64.5z" />
    <glyph glyph-name="uni1ED7" unicode="&#x1ed7;" 
d="M324 36.5q-121 71.5 -189.5 196.5t-68.5 284v20q0 160 68.5 284.5t189.5 196t276.5 71.5t276 -71.5t189 -196t68.5 -284.5v-20q0 -159 -68.5 -284t-189 -196.5t-276 -71.5t-276.5 71.5zM742.5 333.5q53.5 70.5 53.5 187.5v12q0 117 -53.5 187.5t-142 70.5t-142.5 -70.5
t-54 -187.5v-12q0 -117 54 -187.5t142.5 -70.5t142 70.5zM112 1218v14l358 360h260l358 -360v-14h-336l-172 215h40l-172 -215h-336zM822 1676q-52 0 -99 17t-98 48q-59 37 -92 51t-65 14q-65 0 -65 -69v-57h-230v88q0 125 58.5 191.5t161.5 66.5q52 0 98 -17.5t96 -49.5
q59 -37 90.5 -50.5t59.5 -13.5q60 0 60 69v58h230v-88q0 -129 -52 -193.5t-153 -64.5z" />
    <glyph glyph-name="uni1ED8" unicode="&#x1ed8;" 
d="M305 52q-123 87 -189 250t-66 391v46q0 228 66 391t189 250t295 87t295 -87t189 -250t66 -391v-46q0 -228 -66 -391t-189 -250t-295 -87t-295 87zM749.5 397q50.5 98 50.5 291v56q0 193 -50.5 291t-149.5 98t-149.5 -98t-50.5 -291v-56q0 -193 50.5 -291t149.5 -98
t149.5 98zM600 -609q-90 0 -153 61.5t-63 152.5q0 89 62.5 151.5t153.5 62.5q92 0 154 -62.5t62 -151.5q0 -91 -62 -152.5t-154 -61.5zM140 1638v14l296 370h328l296 -370v-14h-330l-166 299h72l-166 -299h-330z" />
    <glyph glyph-name="uni1ED9" unicode="&#x1ed9;" 
d="M324 36.5q-121 71.5 -189.5 196.5t-68.5 284v20q0 160 68.5 284.5t189.5 196t276.5 71.5t276 -71.5t189 -196t68.5 -284.5v-20q0 -159 -68.5 -284t-189 -196.5t-276 -71.5t-276.5 71.5zM742.5 333.5q53.5 70.5 53.5 187.5v12q0 117 -53.5 187.5t-142 70.5t-142.5 -70.5
t-54 -187.5v-12q0 -117 54 -187.5t142.5 -70.5t142 70.5zM600 -609q-90 0 -153 61.5t-63 152.5q0 89 62.5 151.5t153.5 62.5q92 0 154 -62.5t62 -151.5q0 -91 -62 -152.5t-154 -61.5zM140 1260v14l296 370h328l296 -370v-14h-330l-166 299h72l-166 -299h-330z" />
    <glyph glyph-name="uni1EDA" unicode="&#x1eda;" 
d="M595 -35q-170 0 -292.5 87t-187.5 250t-65 391v46q0 228 66 391t190.5 250t301.5 87q63 0 110.5 -10.5t79.5 -10.5q78 0 78 94q0 38 -5.5 74t-16.5 77l337 68q23 -87 23 -166q0 -128 -102 -208t-284 -80h-80l23 91q185 -63 277 -225.5t92 -431.5v-46q0 -228 -65 -391
t-187 -250t-293 -87zM595 299q97 0 146 98t49 291v76q0 188 -43.5 284.5t-138.5 96.5q-103 0 -155.5 -101t-52.5 -300v-56q0 -193 49 -291t146 -98zM421 1658v14l218 370h390v-14l-310 -370h-298z" />
    <glyph glyph-name="uni1EDB" unicode="&#x1edb;" 
d="M578 -35q-163 0 -280.5 69t-180.5 193.5t-63 289.5v20q0 165 63 289.5t180.5 193.5t280.5 69q59 0 100.5 -7t81.5 -7q110 0 110 107q0 58 -24 118l324 80q11 -37 17 -73.5t6 -74.5q0 -139 -105 -215.5t-295 -76.5h-75l44 92q164 -54 252 -185t88 -310v-20
q0 -168 -64.5 -292t-182 -192t-277.5 -68zM578 263q90 0 138 68.5t48 189.5v12q0 125 -48 194.5t-138 69.5t-138 -69.5t-48 -194.5v-12q0 -121 48 -189.5t138 -68.5zM411 1280v14l218 370h390v-14l-310 -370h-298z" />
    <glyph glyph-name="uni1EDC" unicode="&#x1edc;" 
d="M595 -35q-170 0 -292.5 87t-187.5 250t-65 391v46q0 228 66 391t190.5 250t301.5 87q63 0 110.5 -10.5t79.5 -10.5q78 0 78 94q0 38 -5.5 74t-16.5 77l337 68q23 -87 23 -166q0 -128 -102 -208t-284 -80h-80l23 91q185 -63 277 -225.5t92 -431.5v-46q0 -228 -65 -391
t-187 -250t-293 -87zM595 299q97 0 146 98t49 291v76q0 188 -43.5 284.5t-138.5 96.5q-103 0 -155.5 -101t-52.5 -300v-56q0 -193 49 -291t146 -98zM441 1658l-310 370v14h390l218 -370v-14h-298z" />
    <glyph glyph-name="uni1EDD" unicode="&#x1edd;" 
d="M578 -35q-163 0 -280.5 69t-180.5 193.5t-63 289.5v20q0 165 63 289.5t180.5 193.5t280.5 69q59 0 100.5 -7t81.5 -7q110 0 110 107q0 58 -24 118l324 80q11 -37 17 -73.5t6 -74.5q0 -139 -105 -215.5t-295 -76.5h-75l44 92q164 -54 252 -185t88 -310v-20
q0 -168 -64.5 -292t-182 -192t-277.5 -68zM578 263q90 0 138 68.5t48 189.5v12q0 125 -48 194.5t-138 69.5t-138 -69.5t-48 -194.5v-12q0 -121 48 -189.5t138 -68.5zM481 1280l-310 370v14h390l218 -370v-14h-298z" />
    <glyph glyph-name="uni1EDE" unicode="&#x1ede;" 
d="M595 -35q-170 0 -292.5 87t-187.5 250t-65 391v46q0 228 66 391t190.5 250t301.5 87q63 0 110.5 -10.5t79.5 -10.5q78 0 78 94q0 38 -5.5 74t-16.5 77l337 68q23 -87 23 -166q0 -128 -102 -208t-284 -80h-80l23 91q185 -63 277 -225.5t92 -431.5v-46q0 -228 -65 -391
t-187 -250t-293 -87zM595 299q97 0 146 98t49 291v76q0 188 -43.5 284.5t-138.5 96.5q-103 0 -155.5 -101t-52.5 -300v-56q0 -193 49 -291t146 -98zM492 1580l-31 216q88 5 128.5 26.5t40.5 66.5q0 80 -114 80q-95 0 -193 -33l-61 212q60 27 128 42t132 15q155 0 246.5 -80
t91.5 -214q0 -145 -95 -230.5t-273 -100.5z" />
    <glyph glyph-name="uni1EDF" unicode="&#x1edf;" 
d="M578 -35q-163 0 -280.5 69t-180.5 193.5t-63 289.5v20q0 165 63 289.5t180.5 193.5t280.5 69q59 0 100.5 -7t81.5 -7q110 0 110 107q0 58 -24 118l324 80q11 -37 17 -73.5t6 -74.5q0 -139 -105 -215.5t-295 -76.5h-75l44 92q164 -54 252 -185t88 -310v-20
q0 -168 -64.5 -292t-182 -192t-277.5 -68zM578 263q90 0 138 68.5t48 189.5v12q0 125 -48 194.5t-138 69.5t-138 -69.5t-48 -194.5v-12q0 -121 48 -189.5t138 -68.5zM483 1192l-31 216q88 5 128.5 26.5t40.5 66.5q0 80 -114 80q-95 0 -193 -33l-61 212q60 27 128 42t132 15
q155 0 246.5 -80t91.5 -214q0 -145 -95 -230.5t-273 -100.5z" />
    <glyph glyph-name="uni1EE0" unicode="&#x1ee0;" 
d="M595 -35q-170 0 -292.5 87t-187.5 250t-65 391v46q0 228 66 391t190.5 250t301.5 87q63 0 110.5 -10.5t79.5 -10.5q78 0 78 94q0 38 -5.5 74t-16.5 77l337 68q23 -87 23 -166q0 -128 -102 -208t-284 -80h-80l23 91q185 -63 277 -225.5t92 -431.5v-46q0 -228 -65 -391
t-187 -250t-293 -87zM595 299q97 0 146 98t49 291v76q0 188 -43.5 284.5t-138.5 96.5q-103 0 -155.5 -101t-52.5 -300v-56q0 -193 49 -291t146 -98zM769 1711q-47 0 -95 20.5t-96 62.5q-37 33 -60 48.5t-44 15.5q-53 0 -53 -64v-80h-238v89q0 145 61.5 221.5t177.5 76.5
q47 0 90 -18.5t90 -62.5q37 -34 61 -50t46 -16q50 0 50 64v80h238v-88q0 -146 -56.5 -222.5t-171.5 -76.5z" />
    <glyph glyph-name="uni1EE1" unicode="&#x1ee1;" 
d="M578 -35q-163 0 -280.5 69t-180.5 193.5t-63 289.5v20q0 165 63 289.5t180.5 193.5t280.5 69q59 0 100.5 -7t81.5 -7q110 0 110 107q0 58 -24 118l324 80q11 -37 17 -73.5t6 -74.5q0 -139 -105 -215.5t-295 -76.5h-75l44 92q164 -54 252 -185t88 -310v-20
q0 -168 -64.5 -292t-182 -192t-277.5 -68zM578 263q90 0 138 68.5t48 189.5v12q0 125 -48 194.5t-138 69.5t-138 -69.5t-48 -194.5v-12q0 -121 48 -189.5t138 -68.5zM769 1333q-47 0 -95 20.5t-96 62.5q-37 33 -60 48.5t-44 15.5q-53 0 -53 -64v-80h-238v89
q0 145 61.5 221.5t177.5 76.5q47 0 90 -18.5t90 -62.5q37 -34 61 -50t46 -16q50 0 50 64v80h238v-88q0 -146 -56.5 -222.5t-171.5 -76.5z" />
    <glyph glyph-name="uni1EE2" unicode="&#x1ee2;" 
d="M595 -35q-170 0 -292.5 87t-187.5 250t-65 391v46q0 228 66 391t190.5 250t301.5 87q51 0 90 -7t81 -7q59 0 92 29t33 81q0 37 -13.5 70t-48.5 76l258 164q104 -131 104 -277q0 -135 -101.5 -213t-276.5 -78h-81l33 102q185 -83 273.5 -241.5t88.5 -426.5v-46
q0 -228 -65 -391t-187 -250t-293 -87zM595 299q97 0 146 98t49 291v76q0 188 -43.5 284.5t-138.5 96.5q-103 0 -155.5 -101t-52.5 -300v-56q0 -193 49 -291t146 -98zM595 -609q-90 0 -153 61.5t-63 152.5q0 89 62.5 151.5t153.5 62.5q92 0 154 -62.5t62 -151.5
q0 -91 -62 -152.5t-154 -61.5z" />
    <glyph glyph-name="uni1EE3" unicode="&#x1ee3;" 
d="M590 -35q-163 0 -280.5 69t-180.5 193.5t-63 289.5v20q0 165 63 289.5t180.5 193.5t280.5 69q62 0 108 -8t86 -8q120 0 120 105q0 35 -11.5 67t-40.5 78l270 143q82 -120 82 -247q0 -133 -100 -210.5t-272 -77.5h-84l28 103q163 -54 250.5 -183t87.5 -314v-20
q0 -168 -64.5 -292t-182 -192t-277.5 -68zM590 263q90 0 138 68.5t48 189.5v12q0 125 -48 194.5t-138 69.5t-138 -69.5t-48 -194.5v-12q0 -121 48 -189.5t138 -68.5zM590 -609q-90 0 -153 61.5t-63 152.5q0 89 62.5 151.5t153.5 62.5q92 0 154 -62.5t62 -151.5
q0 -91 -62 -152.5t-154 -61.5z" />
    <glyph glyph-name="uni1EE4" unicode="&#x1ee4;" 
d="M331 28.5q-115 63.5 -178 178t-63 265.5v960h348v-946q0 -85 43 -136t119 -51q77 0 119.5 51t42.5 136v946h348v-960q0 -151 -63 -265.5t-177.5 -178t-269 -63.5t-269.5 63.5zM600 -609q-90 0 -153 61.5t-63 152.5q0 89 62.5 151.5t153.5 62.5q92 0 154 -62.5t62 -151.5
q0 -91 -62 -152.5t-154 -61.5z" />
    <glyph glyph-name="uni1EE5" unicode="&#x1ee5;" 
d="M430 -35q-142 0 -222 95t-80 258v736h342v-655q0 -71 33 -110.5t91 -39.5q61 0 95.5 50.5t34.5 138.5v616h343v-1054h-327v160h-11q-46 -85 -122 -140t-177 -55zM616 -609q-90 0 -153 61.5t-63 152.5q0 89 62.5 151.5t153.5 62.5q92 0 154 -62.5t62 -151.5
q0 -91 -62 -152.5t-154 -61.5z" />
    <glyph glyph-name="uni1EE6" unicode="&#x1ee6;" 
d="M331 28.5q-115 63.5 -178 178t-63 265.5v960h348v-946q0 -85 43 -136t119 -51q77 0 119.5 51t42.5 136v946h348v-960q0 -151 -63 -265.5t-177.5 -178t-269 -63.5t-269.5 63.5zM563 1540l-31 216q88 5 128.5 26.5t40.5 66.5q0 80 -114 80q-95 0 -193 -33l-61 212
q60 27 128 42t132 15q155 0 246.5 -80t91.5 -214q0 -145 -95 -230.5t-273 -100.5z" />
    <glyph glyph-name="uni1EE7" unicode="&#x1ee7;" 
d="M430 -35q-142 0 -222 95t-80 258v736h342v-655q0 -71 33 -110.5t91 -39.5q61 0 95.5 50.5t34.5 138.5v616h343v-1054h-327v160h-11q-46 -85 -122 -140t-177 -55zM560 1162l-31 216q88 5 128.5 26.5t40.5 66.5q0 80 -114 80q-95 0 -193 -33l-61 212q60 27 128 42t132 15
q155 0 246.5 -80t91.5 -214q0 -145 -95 -230.5t-273 -100.5z" />
    <glyph glyph-name="uni1EE8" unicode="&#x1ee8;" 
d="M278 24q-108 59 -168 166t-60 249v993h330v-979q0 -76 41 -120t111.5 -44t111 44t40.5 120v979h111q60 0 86 27t26 82q0 38 -7.5 82t-20.5 87l318 93q33 -99 33 -189q0 -163 -108 -242.5t-293 -79.5h-45l226 132v-985q0 -142 -60 -248.5t-168 -166t-252 -59.5t-252 59z
M368 1658v14l218 370h390v-14l-310 -370h-298z" />
    <glyph glyph-name="uni1EE9" unicode="&#x1ee9;" 
d="M397 -35q-133 0 -207.5 87t-74.5 236v766h326v-691q0 -59 31 -92.5t85 -33.5q62 0 96 44t34 121v652h104q98 0 98 84q0 32 -6 67.5t-17 71.5l316 78q22 -82 22 -157q0 -129 -100 -202.5t-250 -73.5h-80l240 132v-1054h-327v143h-11q-43 -77 -113.5 -127.5t-165.5 -50.5z
M366 1280v14l218 370h390v-14l-310 -370h-298z" />
    <glyph glyph-name="uni1EEA" unicode="&#x1eea;" 
d="M278 24q-108 59 -168 166t-60 249v993h330v-979q0 -76 41 -120t111.5 -44t111 44t40.5 120v979h111q60 0 86 27t26 82q0 38 -7.5 82t-20.5 87l318 93q33 -99 33 -189q0 -163 -108 -242.5t-293 -79.5h-45l226 132v-985q0 -142 -60 -248.5t-168 -166t-252 -59.5t-252 59z
M388 1658l-310 370v14h390l218 -370v-14h-298z" />
    <glyph glyph-name="uni1EEB" unicode="&#x1eeb;" 
d="M397 -35q-133 0 -207.5 87t-74.5 236v766h326v-691q0 -59 31 -92.5t85 -33.5q62 0 96 44t34 121v652h104q98 0 98 84q0 32 -6 67.5t-17 71.5l316 78q22 -82 22 -157q0 -129 -100 -202.5t-250 -73.5h-80l240 132v-1054h-327v143h-11q-43 -77 -113.5 -127.5t-165.5 -50.5z
M451 1280l-310 370v14h390l218 -370v-14h-298z" />
    <glyph glyph-name="uni1EEC" unicode="&#x1eec;" 
d="M278 24q-108 59 -168 166t-60 249v993h330v-979q0 -76 41 -120t111.5 -44t111 44t40.5 120v979h111q60 0 86 27t26 82q0 38 -7.5 82t-20.5 87l318 93q33 -99 33 -189q0 -163 -108 -242.5t-293 -79.5h-45l226 132v-985q0 -142 -60 -248.5t-168 -166t-252 -59.5t-252 59z
M440 1560l-31 216q88 5 128.5 26.5t40.5 66.5q0 80 -114 80q-95 0 -193 -33l-61 212q60 27 128 42t132 15q155 0 246.5 -80t91.5 -214q0 -145 -95 -230.5t-273 -100.5z" />
    <glyph glyph-name="uni1EED" unicode="&#x1eed;" 
d="M397 -35q-133 0 -207.5 87t-74.5 236v766h326v-691q0 -59 31 -92.5t85 -33.5q62 0 96 44t34 121v652h104q98 0 98 84q0 32 -6 67.5t-17 71.5l316 78q22 -82 22 -157q0 -129 -100 -202.5t-250 -73.5h-80l240 132v-1054h-327v143h-11q-43 -77 -113.5 -127.5t-165.5 -50.5z
M458 1182l-31 216q88 5 128.5 26.5t40.5 66.5q0 80 -114 80q-95 0 -193 -33l-61 212q60 27 128 42t132 15q155 0 246.5 -80t91.5 -214q0 -145 -95 -230.5t-273 -100.5z" />
    <glyph glyph-name="uni1EEE" unicode="&#x1eee;" 
d="M278 24q-108 59 -168 166t-60 249v993h330v-979q0 -76 41 -120t111.5 -44t111 44t40.5 120v979h111q60 0 86 27t26 82q0 38 -7.5 82t-20.5 87l318 93q33 -99 33 -189q0 -163 -108 -242.5t-293 -79.5h-45l226 132v-985q0 -142 -60 -248.5t-168 -166t-252 -59.5t-252 59z
M678 1675q-47 0 -95 20.5t-96 62.5q-37 33 -60 48.5t-44 15.5q-53 0 -53 -64v-80h-238v89q0 145 61.5 221.5t177.5 76.5q47 0 90 -18.5t90 -62.5q37 -34 61 -50t46 -16q50 0 50 64v80h238v-88q0 -146 -56.5 -222.5t-171.5 -76.5z" />
    <glyph glyph-name="uni1EEF" unicode="&#x1eef;" 
d="M397 -35q-133 0 -207.5 87t-74.5 236v766h326v-691q0 -59 31 -92.5t85 -33.5q62 0 96 44t34 121v652h104q98 0 98 84q0 32 -6 67.5t-17 71.5l316 78q22 -82 22 -157q0 -129 -100 -202.5t-250 -73.5h-80l240 132v-1054h-327v143h-11q-43 -77 -113.5 -127.5t-165.5 -50.5z
M744 1317q-47 0 -95 20.5t-96 62.5q-37 33 -60 48.5t-44 15.5q-53 0 -53 -64v-80h-238v89q0 145 61.5 221.5t177.5 76.5q47 0 90 -18.5t90 -62.5q37 -34 61 -50t46 -16q50 0 50 64v80h238v-88q0 -146 -56.5 -222.5t-171.5 -76.5z" />
    <glyph glyph-name="uni1EF0" unicode="&#x1ef0;" 
d="M530 -35q-144 0 -252 59t-168 166t-60 249v993h330v-979q0 -76 41 -120t111 -44q71 0 111.5 44t40.5 120v979h96q70 0 110 32t40 89q0 38 -14.5 74t-49.5 84l253 162q59 -76 85 -143t26 -141q0 -139 -104.5 -218t-268.5 -79h-70l223 122v-975q0 -142 -60 -249
t-167.5 -166t-252.5 -59zM532 -609q-90 0 -153 61.5t-63 152.5q0 89 62.5 151.5t153.5 62.5q92 0 154 -62.5t62 -151.5q0 -91 -62 -152.5t-154 -61.5z" />
    <glyph glyph-name="uni1EF1" unicode="&#x1ef1;" 
d="M397 -35q-131 0 -206.5 86t-75.5 237v766h326v-691q0 -59 31 -92.5t85 -33.5q62 0 96 43.5t34 121.5v652h76q141 0 141 105q0 32 -12 61.5t-41 67.5l258 164q47 -60 71 -120t24 -127q0 -130 -98.5 -206.5t-267.5 -76.5h-70l246 132v-1054h-327v143h-11
q-48 -85 -120.5 -131.5t-158.5 -46.5zM565 -609q-90 0 -153 61.5t-63 152.5q0 89 62.5 151.5t153.5 62.5q92 0 154 -62.5t62 -151.5q0 -91 -62 -152.5t-154 -61.5z" />
    <glyph glyph-name="Ygrave" unicode="&#x1ef2;" 
d="M463 409l-451 1023h374l122 -319l93 -288h9l90 288l122 319h366l-451 -1023h-274zM426 0v692h348v-692h-348zM455 1638l-310 370v14h390l218 -370v-14h-298z" />
    <glyph glyph-name="ygrave" unicode="&#x1ef3;" 
d="M328 -451q-189 0 -321 111l162 252q78 -65 151 -65q50 0 81.5 24.5t51.5 79.5l98 266h67l92 404l124 433h352l-428 -1156q-68 -184 -169.5 -266.5t-260.5 -82.5zM494 -84l-420 1138h354l132 -433l69 -289h110zM483 1260l-310 370v14h390l218 -370v-14h-298z" />
    <glyph glyph-name="uni1EF4" unicode="&#x1ef4;" 
d="M463 409l-451 1023h374l122 -319l93 -288h9l90 288l122 319h366l-451 -1023h-274zM426 0v692h348v-692h-348zM600 -574q-90 0 -153 61.5t-63 152.5q0 89 62.5 151.5t153.5 62.5q92 0 154 -62.5t62 -151.5q0 -91 -62 -152.5t-154 -61.5z" />
    <glyph glyph-name="uni1EF5" unicode="&#x1ef5;" 
d="M328 -451q-189 0 -321 111l162 252q78 -65 151 -65q50 0 81.5 24.5t51.5 79.5l98 266h67l92 404l124 433h352l-428 -1156q-68 -184 -169.5 -266.5t-260.5 -82.5zM494 -84l-420 1138h354l132 -433l69 -289h110zM943 -574q-90 0 -153 61.5t-63 152.5q0 89 62.5 151.5
t153.5 62.5q92 0 154 -62.5t62 -151.5q0 -91 -62 -152.5t-154 -61.5z" />
    <glyph glyph-name="uni1EF6" unicode="&#x1ef6;" 
d="M463 409l-451 1023h374l122 -319l93 -288h9l90 288l122 319h366l-451 -1023h-274zM426 0v692h348v-692h-348zM567 1540l-31 216q88 5 128.5 26.5t40.5 66.5q0 80 -114 80q-95 0 -193 -33l-61 212q60 27 128 42t132 15q155 0 246.5 -80t91.5 -214q0 -145 -95 -230.5
t-273 -100.5z" />
    <glyph glyph-name="uni1EF7" unicode="&#x1ef7;" 
d="M328 -451q-189 0 -321 111l162 252q78 -65 151 -65q50 0 81.5 24.5t51.5 79.5l98 266h67l92 404l124 433h352l-428 -1156q-68 -184 -169.5 -266.5t-260.5 -82.5zM494 -84l-420 1138h354l132 -433l69 -289h110zM575 1162l-31 216q88 5 128.5 26.5t40.5 66.5q0 80 -114 80
q-95 0 -193 -33l-61 212q60 27 128 42t132 15q155 0 246.5 -80t91.5 -214q0 -145 -95 -230.5t-273 -100.5z" />
    <glyph glyph-name="uni1EF8" unicode="&#x1ef8;" 
d="M463 409l-451 1023h374l122 -319l93 -288h9l90 288l122 319h366l-451 -1023h-274zM426 0v692h348v-692h-348zM783 1635q-47 0 -95 20.5t-96 62.5q-37 33 -60 48.5t-44 15.5q-53 0 -53 -64v-80h-238v89q0 145 61.5 221.5t177.5 76.5q47 0 90 -18.5t90 -62.5q37 -34 61 -50
t46 -16q50 0 50 64v80h238v-88q0 -146 -56.5 -222.5t-171.5 -76.5z" />
    <glyph glyph-name="uni1EF9" unicode="&#x1ef9;" 
d="M328 -451q-189 0 -321 111l162 252q78 -65 151 -65q50 0 81.5 24.5t51.5 79.5l98 266h67l92 404l124 433h352l-428 -1156q-68 -184 -169.5 -266.5t-260.5 -82.5zM494 -84l-420 1138h354l132 -433l69 -289h110zM811 1257q-47 0 -95 20.5t-96 62.5q-37 33 -60 48.5
t-44 15.5q-53 0 -53 -64v-80h-238v89q0 145 61.5 221.5t177.5 76.5q47 0 90 -18.5t90 -62.5q37 -34 61 -50t46 -16q50 0 50 64v80h238v-88q0 -146 -56.5 -222.5t-171.5 -76.5z" />
    <glyph glyph-name="endash" unicode="&#x2013;" 
d="M58 475v340h1084v-340h-1084z" />
    <glyph glyph-name="emdash" unicode="&#x2014;" 
d="M42 475v340h1116v-340h-1116z" />
    <glyph glyph-name="quoteleft" unicode="&#x2018;" 
d="M707 1494l186 -134l-292 -371l8 106q44 5 90.5 -16t78.5 -64.5t32 -108.5q0 -88 -57.5 -149t-155.5 -61q-108 0 -164.5 67.5t-56.5 158.5q0 71 26 131.5t84 139.5z" />
    <glyph glyph-name="quoteright" unicode="&#x2019;" 
d="M493 696l-186 134l292 371l-8 -106q-43 -4 -90 16.5t-79 64t-32 108.5q0 89 58 149.5t155 60.5q108 0 164.5 -67.5t56.5 -158.5q0 -70 -25.5 -130.5t-84.5 -140.5z" />
    <glyph glyph-name="quotesinglbase" unicode="&#x201a;" 
d="M493 -384l-186 134l292 371l-8 -106q-43 -4 -90 16.5t-79 64t-32 108.5q0 89 58 149.5t155 60.5q108 0 164.5 -67.5t56.5 -158.5q0 -70 -25.5 -130.5t-84.5 -140.5z" />
    <glyph glyph-name="quotedblleft" unicode="&#x201c;" 
d="M411 1494l186 -134l-292 -371l8 106q44 5 90.5 -16t78.5 -64.5t32 -108.5q0 -88 -57.5 -149t-155.5 -61q-108 0 -164.5 67.5t-56.5 158.5q0 71 26 131.5t84 139.5zM910 1494l186 -134l-292 -371l8 106q44 5 90.5 -16t78.5 -64.5t32 -108.5q0 -88 -57.5 -149t-155.5 -61
q-108 0 -164.5 67.5t-56.5 158.5q0 71 26 131.5t84 139.5z" />
    <glyph glyph-name="quotedblright" unicode="&#x201d;" 
d="M290 696l-186 134l292 371l-8 -106q-43 -4 -90 16.5t-79 64t-32 108.5q0 89 58 149.5t155 60.5q108 0 164.5 -67.5t56.5 -158.5q0 -70 -25.5 -130.5t-84.5 -140.5zM789 696l-186 134l292 371l-8 -106q-43 -4 -90 16.5t-79 64t-32 108.5q0 89 58 149.5t155 60.5
q108 0 164.5 -67.5t56.5 -158.5q0 -70 -25.5 -130.5t-84.5 -140.5z" />
    <glyph glyph-name="quotedblbase" unicode="&#x201e;" 
d="M290 -384l-186 134l292 371l-8 -106q-43 -4 -90 16.5t-79 64t-32 108.5q0 89 58 149.5t155 60.5q108 0 164.5 -67.5t56.5 -158.5q0 -70 -25.5 -130.5t-84.5 -140.5zM789 -384l-186 134l292 371l-8 -106q-43 -4 -90 16.5t-79 64t-32 108.5q0 89 58 149.5t155 60.5
q108 0 164.5 -67.5t56.5 -158.5q0 -70 -25.5 -130.5t-84.5 -140.5z" />
    <glyph glyph-name="bullet" unicode="&#x2022;" 
d="M560 367q-85 0 -153 39.5t-107.5 107.5t-39.5 153t39.5 153t107.5 107.5t153 39.5t153 -39.5t107.5 -107.5t39.5 -153t-39.5 -153t-107.5 -107.5t-153 -39.5z" />
    <glyph glyph-name="ellipsis" unicode="&#x2026;" 
d="M199 -35q-58 0 -97.5 44t-39.5 110q0 65 39 108.5t98 43.5t98 -43.5t39 -108.5q0 -66 -39 -110t-98 -44zM1001 -35q-58 0 -97.5 44t-39.5 110q0 65 39 108.5t98 43.5t98 -43.5t39 -108.5q0 -66 -39 -110t-98 -44zM600 -35q-58 0 -97.5 44t-39.5 110q0 65 39 108.5
t98 43.5t98 -43.5t39 -108.5q0 -66 -39 -110t-98 -44z" />
    <glyph glyph-name="minute" unicode="&#x2032;" 
d="M282 837l96 623h372l-162 -623h-306z" />
    <glyph glyph-name="second" unicode="&#x2033;" 
d="M130 837l96 623h372l-162 -623h-306zM610 837l96 623h372l-162 -623h-306z" />
    <glyph glyph-name="guilsinglleft" unicode="&#x2039;" 
d="M775 2l-486 530l486 530l235 -202l-297 -328l297 -328z" />
    <glyph glyph-name="guilsinglright" unicode="&#x203a;" 
d="M425 2l-235 202l297 328l-297 328l235 202l486 -530z" />
    <glyph glyph-name="fraction" unicode="&#x2044;" 
d="M92 -35l833 1495h183l-833 -1495h-183z" />
    <glyph glyph-name="uni2074" unicode="&#x2074;" 
d="M574 683v326l42 42v337l15 -15h-29l-193 -256v-14h298l71 28h254v-270h-910v238l466 616h292v-1032h-306z" />
    <glyph glyph-name="dong" unicode="&#x20ab;" 
d="M441 214q-113 0 -204 56.5t-144 154t-53 221.5v2q0 124 51 222t140 154.5t202 56.5q104 0 177 -39.5t121 -118.5h10v632h302v-1341h-293v184h-10q-46 -86 -120.5 -135t-178.5 -49zM60 -200v290h1063v-290h-1063zM545 454q55 0 97 24.5t65.5 68t23.5 99.5v2
q0 84 -51.5 138.5t-134.5 54.5q-85 0 -135 -53t-50 -140v-2q0 -87 50 -139.5t135 -52.5zM356 1190v205h844v-205h-844z" />
    <glyph glyph-name="Euro" unicode="&#x20ac;" 
d="M712 -35q-165 0 -286 76t-187.5 210t-66.5 307v316q0 176 66.5 309.5t187.5 208.5t286 75q155 0 262.5 -59t193.5 -191l-228 -162q-47 71 -101 101.5t-132 30.5q-247 0 -247 -313v-316q0 -152 63.5 -232.5t183.5 -80.5q78 0 132 30.5t101 101.5l228 -162
q-86 -132 -193.5 -191t-262.5 -59zM2 453v200h900v-200h-900zM2 779v200h900v-200h-900z" />
    <glyph glyph-name="trademark" unicode="&#x2122;" 
d="M580 606v852h148l114 -325l38 -150h10l38 150l114 325h148v-852h-140v310l24 263h-10l-120 -380h-118l-120 380h-10l24 -263v-310h-140zM185 606v816h162v-816h-162zM10 1320v138h512v-138h-512z" />
    <glyph glyph-name="arrowleft" unicode="&#x2190;" 
d="M640 24l-570 621l570 621l202 -191l-411 -408v-44l411 -408zM713 490l-428 56v198l428 56h459v-310h-459z" />
    <glyph glyph-name="arrowup" unicode="&#x2191;" 
d="M210 575l-190 200l580 532l580 -532l-190 -200l-368 371h-44zM439 -55v719l62 428h198l62 -428v-719h-322z" />
    <glyph glyph-name="arrowright" unicode="&#x2192;" 
d="M602 24l-202 191l411 408v44l-411 408l202 191l570 -621zM70 490v310h459l428 -56v-198l-428 -56h-459z" />
    <glyph glyph-name="arrowdown" unicode="&#x2193;" 
d="M600 -55l-580 532l190 200l368 -371h44l368 371l190 -200zM501 160l-62 428v719h322v-719l-62 -428h-198z" />
    <glyph glyph-name="arrowdblright" unicode="&#x21d2;" 
d="M548 -58l-162 157l441 442v208l-441 442l162 157l642 -703zM20 326v224h900v-108l-484 -116h-416zM20 740v224h416l484 -116v-108h-900z" />
    <glyph glyph-name="minus" unicode="&#x2212;" 
d="M114 485v320h972v-320h-972z" />
    <glyph glyph-name="uni2215" unicode="&#x2215;" 
d="M8 -35l834 1495h350l-834 -1495h-350z" />
    <glyph glyph-name="uni2237" unicode="&#x2237;" 
d="M876 778q-85 0 -141.5 57.5t-56.5 142.5q0 86 56.5 143t141.5 57t141.5 -57t56.5 -143q0 -85 -56.5 -142.5t-141.5 -57.5zM324 112q-85 0 -141.5 57.5t-56.5 142.5q0 86 56.5 143t141.5 57t141.5 -57t56.5 -143q0 -85 -56.5 -142.5t-141.5 -57.5zM734.5 169.5
q-56.5 57.5 -56.5 143t56.5 142.5t141.5 57t141.5 -57t56.5 -143q0 -85 -56.5 -142.5t-141.5 -57.5t-141.5 57.5zM182.5 835.5q-56.5 57.5 -56.5 142.5q0 86 56.5 143t141.5 57t141.5 -57t56.5 -143q0 -85 -56.5 -142.5t-141.5 -57.5t-141.5 57.5z" />
    <glyph glyph-name="lessequal" unicode="&#x2264;" 
d="M1106 328l-1012 330v312l1012 330v-324l-401 -106l-259 -52v-8l259 -52l401 -106v-324zM94 0v286h1012v-286h-1012z" />
    <glyph glyph-name="greaterequal" unicode="&#x2265;" 
d="M94 328v324l401 106l259 52v8l-259 52l-401 106v324l1012 -330v-312zM1106 0h-1012v286h1012v-286z" />
    <glyph glyph-name="uni2318" unicode="&#x2318;" 
d="M282 122q-124 0 -201 74t-77 194q0 128 84 203t226 75h38v96h-38q-142 0 -226 75t-84 203q0 120 77 194t201 74q128 0 201 -81t73 -221v-46h88v46q0 140 76 221t209 81q119 0 193 -74t74 -194q0 -128 -83.5 -203t-226.5 -75h-38v-96h38q143 0 226.5 -75t83.5 -203
q0 -120 -74 -194t-194 -74q-132 0 -208 81t-76 221v46h-88v-46q0 -140 -73 -221t-201 -81zM282 326q41 0 60.5 26.5t19.5 83.5v44h-38q-58 0 -86 -20t-28 -61q0 -33 19.5 -53t52.5 -20zM324 952h38v44q0 57 -20 83.5t-64 26.5q-31 0 -49.5 -20t-18.5 -53q0 -40 28.5 -60.5
t85.5 -20.5zM552 664h96v104h-96v-104zM918 326q33 0 52.5 20t19.5 53q0 41 -27.5 61t-86.5 20h-38v-44q0 -57 19.5 -83.5t60.5 -26.5zM838 952h38q58 0 86 20.5t28 60.5q0 33 -18.5 53t-48.5 20q-43 0 -64 -26.5t-21 -83.5v-44z" />
    <glyph glyph-name="uni2325" unicode="&#x2325;" 
d="M694 138l-501 1156h312l501 -1156h-312zM18 994v300h450l40 -300h-490zM752 138l-60 300h490v-300h-430zM722 994v300h460v-300h-460z" />
    <glyph glyph-name="uni2500" unicode="&#x2500;" 
d="M-170 474v340h1540v-340h-1540z" />
    <glyph glyph-name="uni2501" unicode="&#x2501;" 
d="M-170 338v612h1540v-612h-1540z" />
    <glyph glyph-name="uni2502" unicode="&#x2502;" 
d="M430 -656v2600h340v-2600h-340z" />
    <glyph glyph-name="uni2503" unicode="&#x2503;" 
d="M294 -656v2600h612v-2600h-612z" />
    <glyph glyph-name="uni2504" unicode="&#x2504;" 
d="M867 474v340h266v-340h-266zM67 474v340h266v-340h-266zM467 474v340h266v-340h-266z" />
    <glyph glyph-name="uni2505" unicode="&#x2505;" 
d="M867 338v612h266v-612h-266zM67 338v612h266v-612h-266zM467 338v612h266v-612h-266z" />
    <glyph glyph-name="uni2506" unicode="&#x2506;" 
d="M430 366v556h340v-556h-340zM430 -467v555h340v-555h-340zM430 1200v555h340v-555h-340z" />
    <glyph glyph-name="uni2507" unicode="&#x2507;" 
d="M294 366v556h612v-556h-612zM294 -467v555h612v-555h-612zM294 1200v555h612v-555h-612z" />
    <glyph glyph-name="uni2508" unicode="&#x2508;" 
d="M938 474v340h225v-340h-225zM38 474v340h225v-340h-225zM338 474v340h225v-340h-225zM638 474v340h225v-340h-225z" />
    <glyph glyph-name="uni2509" unicode="&#x2509;" 
d="M938 338v612h225v-612h-225zM38 338v612h225v-612h-225zM338 338v612h225v-612h-225zM638 338v612h225v-612h-225z" />
    <glyph glyph-name="uni250A" unicode="&#x250a;" 
d="M430 1347v469h340v-469h-340zM430 -528v469h340v-469h-340zM430 97v469h340v-469h-340zM430 722v469h340v-469h-340z" />
    <glyph glyph-name="uni250B" unicode="&#x250b;" 
d="M294 1347v469h612v-469h-612zM294 -528v469h612v-469h-612zM294 97v469h612v-469h-612zM294 722v469h612v-469h-612z" />
    <glyph glyph-name="uni250C" unicode="&#x250c;" 
d="M430 -656v1470h940v-340h-600v-1130h-340z" />
    <glyph glyph-name="uni250D" unicode="&#x250d;" 
d="M430 -656v1606h940v-612h-600v-994h-340z" />
    <glyph glyph-name="uni250E" unicode="&#x250e;" 
d="M294 -656v1470h1076v-340h-464v-1130h-612z" />
    <glyph glyph-name="uni250F" unicode="&#x250f;" 
d="M294 -656v1606h1076v-612h-464v-994h-612z" />
    <glyph glyph-name="uni2510" unicode="&#x2510;" 
d="M430 -656v1130h-600v340h940v-1470h-340z" />
    <glyph glyph-name="uni2511" unicode="&#x2511;" 
d="M430 -656v994h-600v612h940v-1606h-340z" />
    <glyph glyph-name="uni2512" unicode="&#x2512;" 
d="M294 -656v1130h-464v340h1076v-1470h-612z" />
    <glyph glyph-name="uni2513" unicode="&#x2513;" 
d="M294 -656v994h-464v612h1076v-1606h-612z" />
    <glyph glyph-name="uni2514" unicode="&#x2514;" 
d="M430 474v1470h340v-1130h600v-340h-940z" />
    <glyph glyph-name="uni2515" unicode="&#x2515;" 
d="M430 338v1606h340v-994h600v-612h-940z" />
    <glyph glyph-name="uni2516" unicode="&#x2516;" 
d="M294 474v1470h612v-1130h464v-340h-1076z" />
    <glyph glyph-name="uni2517" unicode="&#x2517;" 
d="M294 338v1606h612v-994h464v-612h-1076z" />
    <glyph glyph-name="uni2518" unicode="&#x2518;" 
d="M-170 474v340h600v1130h340v-1470h-940z" />
    <glyph glyph-name="uni2519" unicode="&#x2519;" 
d="M-170 338v612h600v994h340v-1606h-940z" />
    <glyph glyph-name="uni251A" unicode="&#x251a;" 
d="M-170 474v340h464v1130h612v-1470h-1076z" />
    <glyph glyph-name="uni251B" unicode="&#x251b;" 
d="M-170 338v612h464v994h612v-1606h-1076z" />
    <glyph glyph-name="uni251C" unicode="&#x251c;" 
d="M430 -656v2600h340v-1130h600v-340h-600v-1130h-340z" />
    <glyph glyph-name="uni251D" unicode="&#x251d;" 
d="M430 -656v2600h340v-994h600v-612h-600v-994h-340z" />
    <glyph glyph-name="uni251E" unicode="&#x251e;" 
d="M430 -656v1130h-136v1470h612v-1130h464v-340h-600v-1130h-340z" />
    <glyph glyph-name="uni251F" unicode="&#x251f;" 
d="M294 -656v1470h136v1130h340v-1130h600v-340h-464v-1130h-612z" />
    <glyph glyph-name="uni2520" unicode="&#x2520;" 
d="M294 -656v2600h612v-1130h464v-340h-464v-1130h-612z" />
    <glyph glyph-name="uni2521" unicode="&#x2521;" 
d="M430 -656v994h-136v1606h612v-994h464v-612h-600v-994h-340z" />
    <glyph glyph-name="uni2522" unicode="&#x2522;" 
d="M294 -656v1606h136v994h340v-994h600v-612h-464v-994h-612z" />
    <glyph glyph-name="uni2523" unicode="&#x2523;" 
d="M294 -656v2600h612v-994h464v-612h-464v-994h-612z" />
    <glyph glyph-name="uni2524" unicode="&#x2524;" 
d="M430 -656v1130h-600v340h600v1130h340v-2600h-340z" />
    <glyph glyph-name="uni2525" unicode="&#x2525;" 
d="M430 -656v994h-600v612h600v994h340v-2600h-340z" />
    <glyph glyph-name="uni2526" unicode="&#x2526;" 
d="M430 -656v1130h-600v340h464v1130h612v-1470h-136v-1130h-340z" />
    <glyph glyph-name="uni2527" unicode="&#x2527;" 
d="M294 -656v1130h-464v340h600v1130h340v-1130h136v-1470h-612z" />
    <glyph glyph-name="uni2528" unicode="&#x2528;" 
d="M294 -656v1130h-464v340h464v1130h612v-2600h-612z" />
    <glyph glyph-name="uni2529" unicode="&#x2529;" 
d="M430 -656v994h-600v612h464v994h612v-1606h-136v-994h-340z" />
    <glyph glyph-name="uni252A" unicode="&#x252a;" 
d="M294 -656v994h-464v612h600v994h340v-994h136v-1606h-612z" />
    <glyph glyph-name="uni252B" unicode="&#x252b;" 
d="M294 -656v994h-464v612h464v994h612v-2600h-612z" />
    <glyph glyph-name="uni252C" unicode="&#x252c;" 
d="M430 -656v1130h-600v340h1540v-340h-600v-1130h-340z" />
    <glyph glyph-name="uni252D" unicode="&#x252d;" 
d="M430 -656v994h-600v612h940v-136h600v-340h-600v-1130h-340z" />
    <glyph glyph-name="uni252E" unicode="&#x252e;" 
d="M430 -656v1130h-600v340h600v136h940v-612h-600v-994h-340z" />
    <glyph glyph-name="uni252F" unicode="&#x252f;" 
d="M430 -656v994h-600v612h1540v-612h-600v-994h-340z" />
    <glyph glyph-name="uni2530" unicode="&#x2530;" 
d="M294 -656v1130h-464v340h1540v-340h-464v-1130h-612z" />
    <glyph glyph-name="uni2531" unicode="&#x2531;" 
d="M294 -656v994h-464v612h1076v-136h464v-340h-464v-1130h-612z" />
    <glyph glyph-name="uni2532" unicode="&#x2532;" 
d="M294 -656v1130h-464v340h464v136h1076v-612h-464v-994h-612z" />
    <glyph glyph-name="uni2533" unicode="&#x2533;" 
d="M294 -656v994h-464v612h1540v-612h-464v-994h-612z" />
    <glyph glyph-name="uni2534" unicode="&#x2534;" 
d="M-170 474v340h600v1130h340v-1130h600v-340h-1540z" />
    <glyph glyph-name="uni2535" unicode="&#x2535;" 
d="M-170 338v612h600v994h340v-1130h600v-340h-600v-136h-940z" />
    <glyph glyph-name="uni2536" unicode="&#x2536;" 
d="M430 338v136h-600v340h600v1130h340v-994h600v-612h-940z" />
    <glyph glyph-name="uni2537" unicode="&#x2537;" 
d="M-170 338v612h600v994h340v-994h600v-612h-1540z" />
    <glyph glyph-name="uni2538" unicode="&#x2538;" 
d="M-170 474v340h464v1130h612v-1130h464v-340h-1540z" />
    <glyph glyph-name="uni2539" unicode="&#x2539;" 
d="M-170 338v612h464v994h612v-1130h464v-340h-464v-136h-1076z" />
    <glyph glyph-name="uni253A" unicode="&#x253a;" 
d="M294 338v136h-464v340h464v1130h612v-994h464v-612h-1076z" />
    <glyph glyph-name="uni253B" unicode="&#x253b;" 
d="M-170 338v612h464v994h612v-994h464v-612h-1540z" />
    <glyph glyph-name="uni253C" unicode="&#x253c;" 
d="M430 -656v1130h-600v340h600v1130h340v-1130h600v-340h-600v-1130h-340z" />
    <glyph glyph-name="uni253D" unicode="&#x253d;" 
d="M430 -656v994h-600v612h600v994h340v-1130h600v-340h-600v-1130h-340z" />
    <glyph glyph-name="uni253E" unicode="&#x253e;" 
d="M430 -656v1130h-600v340h600v1130h340v-994h600v-612h-600v-994h-340z" />
    <glyph glyph-name="uni253F" unicode="&#x253f;" 
d="M430 -656v994h-600v612h600v994h340v-994h600v-612h-600v-994h-340z" />
    <glyph glyph-name="uni2540" unicode="&#x2540;" 
d="M430 -656v1130h-600v340h464v1130h612v-1130h464v-340h-600v-1130h-340z" />
    <glyph glyph-name="uni2541" unicode="&#x2541;" 
d="M294 -656v1130h-464v340h600v1130h340v-1130h600v-340h-464v-1130h-612z" />
    <glyph glyph-name="uni2542" unicode="&#x2542;" 
d="M294 -656v1130h-464v340h464v1130h612v-1130h464v-340h-464v-1130h-612z" />
    <glyph glyph-name="uni2543" unicode="&#x2543;" 
d="M430 -656v994h-600v612h464v994h612v-1130h464v-340h-464v-136h-136v-994h-340z" />
    <glyph glyph-name="uni2544" unicode="&#x2544;" 
d="M430 -656v994h-136v136h-464v340h464v1130h612v-994h464v-612h-600v-994h-340z" />
    <glyph glyph-name="uni2545" unicode="&#x2545;" 
d="M294 -656v994h-464v612h600v994h340v-994h136v-136h464v-340h-464v-1130h-612z" />
    <glyph glyph-name="uni2546" unicode="&#x2546;" 
d="M294 -656v1130h-464v340h464v136h136v994h340v-994h600v-612h-464v-994h-612z" />
    <glyph glyph-name="uni2547" unicode="&#x2547;" 
d="M430 -656v994h-600v612h464v994h612v-994h464v-612h-600v-994h-340z" />
    <glyph glyph-name="uni2548" unicode="&#x2548;" 
d="M294 -656v994h-464v612h600v994h340v-994h600v-612h-464v-994h-612z" />
    <glyph glyph-name="uni2549" unicode="&#x2549;" 
d="M294 -656v994h-464v612h464v994h612v-1130h464v-340h-464v-1130h-612z" />
    <glyph glyph-name="uni254A" unicode="&#x254a;" 
d="M294 -656v1130h-464v340h464v1130h612v-994h464v-612h-464v-994h-612z" />
    <glyph glyph-name="uni254B" unicode="&#x254b;" 
d="M294 -656v994h-464v612h464v994h612v-994h464v-612h-464v-994h-612z" />
    <glyph glyph-name="uni254C" unicode="&#x254c;" 
d="M750 474v340h300v-340h-300zM150 474v340h300v-340h-300z" />
    <glyph glyph-name="uni254D" unicode="&#x254d;" 
d="M750 338v612h300v-612h-300zM150 338v612h300v-612h-300z" />
    <glyph glyph-name="uni254E" unicode="&#x254e;" 
d="M430 957v625h340v-625h-340zM430 -293v625h340v-625h-340z" />
    <glyph glyph-name="uni254F" unicode="&#x254f;" 
d="M294 957v625h612v-625h-612zM294 -293v625h612v-625h-612z" />
    <glyph glyph-name="uni2550" unicode="&#x2550;" 
d="M-170 814v340h1540v-340h-1540zM-170 134v340h1540v-340h-1540z" />
    <glyph glyph-name="uni2551" unicode="&#x2551;" 
d="M770 -656v2600h340v-2600h-340zM90 -656v2600h340v-2600h-340z" />
    <glyph glyph-name="uni2552" unicode="&#x2552;" 
d="M430 -656v1810h940v-340h-600v-340h600v-340h-600v-790h-340z" />
    <glyph glyph-name="uni2553" unicode="&#x2553;" 
d="M90 -656v1470h1280v-340h-260v-1130h-340v1130h-340v-1130h-340z" />
    <glyph glyph-name="uni2554" unicode="&#x2554;" 
d="M90 -656v1810h1280v-340h-940v-1470h-340zM770 -656v1130h600v-340h-260v-790h-340z" />
    <glyph glyph-name="uni2555" unicode="&#x2555;" 
d="M430 -656v790h-600v340h600v340h-600v340h940v-1810h-340z" />
    <glyph glyph-name="uni2556" unicode="&#x2556;" 
d="M90 -656v1130h-260v340h1280v-1470h-340v1130h-340v-1130h-340z" />
    <glyph glyph-name="uni2557" unicode="&#x2557;" 
d="M770 -656v1470h-940v340h1280v-1810h-340zM90 -656v790h-260v340h600v-1130h-340z" />
    <glyph glyph-name="uni2558" unicode="&#x2558;" 
d="M430 134v1810h340v-790h600v-340h-600v-340h600v-340h-940z" />
    <glyph glyph-name="uni2559" unicode="&#x2559;" 
d="M90 474v1470h340v-1130h340v1130h340v-1130h260v-340h-1280z" />
    <glyph glyph-name="uni255A" unicode="&#x255a;" 
d="M90 134v1810h340v-1470h940v-340h-1280zM770 814v1130h340v-790h260v-340h-600z" />
    <glyph glyph-name="uni255B" unicode="&#x255b;" 
d="M-170 134v340h600v340h-600v340h600v790h340v-1810h-940z" />
    <glyph glyph-name="uni255C" unicode="&#x255c;" 
d="M-170 474v340h260v1130h340v-1130h340v1130h340v-1470h-1280z" />
    <glyph glyph-name="uni255D" unicode="&#x255d;" 
d="M-170 134v340h940v1470h340v-1810h-1280zM-170 814v340h260v790h340v-1130h-600z" />
    <glyph glyph-name="uni255E" unicode="&#x255e;" 
d="M430 -656v2600h340v-790h600v-340h-600v-340h600v-340h-600v-790h-340z" />
    <glyph glyph-name="uni255F" unicode="&#x255f;" 
d="M770 -656v2600h340v-1130h260v-340h-260v-1130h-340zM90 -656v2600h340v-2600h-340z" />
    <glyph glyph-name="uni2560" unicode="&#x2560;" 
d="M770 814v1130h340v-790h260v-340h-600zM770 -656v1130h600v-340h-260v-790h-340zM90 -656v2600h340v-2600h-340z" />
    <glyph glyph-name="uni2561" unicode="&#x2561;" 
d="M430 -656v790h-600v340h600v340h-600v340h600v790h340v-2600h-340z" />
    <glyph glyph-name="uni2562" unicode="&#x2562;" 
d="M90 -656v1130h-260v340h260v1130h340v-2600h-340zM770 -656v2600h340v-2600h-340z" />
    <glyph glyph-name="uni2563" unicode="&#x2563;" 
d="M-170 814v340h260v790h340v-1130h-600zM90 -656v790h-260v340h600v-1130h-340zM770 -656v2600h340v-2600h-340z" />
    <glyph glyph-name="uni2564" unicode="&#x2564;" 
d="M430 -656v790h-600v340h1540v-340h-600v-790h-340zM-170 814v340h1540v-340h-1540z" />
    <glyph glyph-name="uni2565" unicode="&#x2565;" 
d="M90 -656v1130h-260v340h1540v-340h-260v-1130h-340v1130h-340v-1130h-340z" />
    <glyph glyph-name="uni2566" unicode="&#x2566;" 
d="M770 -656v1130h600v-340h-260v-790h-340zM90 -656v790h-260v340h600v-1130h-340zM-170 814v340h1540v-340h-1540z" />
    <glyph glyph-name="uni2567" unicode="&#x2567;" 
d="M-170 814v340h600v790h340v-790h600v-340h-1540zM-170 134v340h1540v-340h-1540z" />
    <glyph glyph-name="uni2568" unicode="&#x2568;" 
d="M-170 474v340h260v1130h340v-1130h340v1130h340v-1130h260v-340h-1540z" />
    <glyph glyph-name="uni2569" unicode="&#x2569;" 
d="M770 814v1130h340v-790h260v-340h-600zM-170 134v340h1540v-340h-1540zM-170 814v340h260v790h340v-1130h-600z" />
    <glyph glyph-name="uni256A" unicode="&#x256a;" 
d="M430 -656v790h-600v340h600v340h-600v340h600v790h340v-790h600v-340h-600v-340h600v-340h-600v-790h-340z" />
    <glyph glyph-name="uni256B" unicode="&#x256b;" 
d="M90 -656v1130h-260v340h260v1130h340v-1130h340v1130h340v-1130h260v-340h-260v-1130h-340v1130h-340v-1130h-340z" />
    <glyph glyph-name="uni256C" unicode="&#x256c;" 
d="M770 814v1130h340v-790h260v-340h-600zM90 -656v790h-260v340h600v-1130h-340zM770 -656v1130h600v-340h-260v-790h-340zM-170 814v340h260v790h340v-1130h-600z" />
    <glyph glyph-name="uni256D" unicode="&#x256d;" 
d="M430 -656v870q0 188 71.5 322.5t206 206t322.5 71.5h340v-340h-340q-125 0 -192.5 -67.5t-67.5 -192.5v-870h-340z" />
    <glyph glyph-name="uni256E" unicode="&#x256e;" 
d="M430 -656v870q0 125 -67.5 192.5t-192.5 67.5h-340v340h340q188 0 322.5 -71.5t206 -206t71.5 -322.5v-870h-340z" />
    <glyph glyph-name="uni256F" unicode="&#x256f;" 
d="M-170 474v340h340q125 0 192.5 67.5t67.5 192.5v870h340v-870q0 -188 -71.5 -322.5t-206 -206t-322.5 -71.5h-340z" />
    <glyph glyph-name="uni2570" unicode="&#x2570;" 
d="M1030 474q-188 0 -322.5 71.5t-206 206t-71.5 322.5v870h340v-870q0 -125 67.5 -192.5t192.5 -67.5h340v-340h-340z" />
    <glyph glyph-name="uni2571" unicode="&#x2571;" 
d="M0 -606v393l1011 2107h189v-393l-1011 -2107h-189z" />
    <glyph glyph-name="uni2572" unicode="&#x2572;" 
d="M1011 -606l-1011 2107v393h189l1011 -2107v-393h-189z" />
    <glyph glyph-name="uni2573" unicode="&#x2573;" 
d="M0 -606v393l411 857l-411 857v393h189l411 -857l411 857h189v-393l-411 -857l411 -857v-393h-189l-411 857l-411 -857h-189z" />
    <glyph glyph-name="uni2574" unicode="&#x2574;" 
d="M-170 474v340h940v-340h-940z" />
    <glyph glyph-name="uni2575" unicode="&#x2575;" 
d="M430 474v1470h340v-1470h-340z" />
    <glyph glyph-name="uni2576" unicode="&#x2576;" 
d="M430 474v340h940v-340h-940z" />
    <glyph glyph-name="uni2577" unicode="&#x2577;" 
d="M430 -656v1470h340v-1470h-340z" />
    <glyph glyph-name="uni2578" unicode="&#x2578;" 
d="M-170 338v612h940v-612h-940z" />
    <glyph glyph-name="uni2579" unicode="&#x2579;" 
d="M294 474v1470h612v-1470h-612z" />
    <glyph glyph-name="uni257A" unicode="&#x257a;" 
d="M430 338v612h940v-612h-940z" />
    <glyph glyph-name="uni257B" unicode="&#x257b;" 
d="M294 -656v1470h612v-1470h-612z" />
    <glyph glyph-name="uni257C" unicode="&#x257c;" 
d="M430 338v136h-600v340h600v136h940v-612h-940z" />
    <glyph glyph-name="uni257D" unicode="&#x257d;" 
d="M294 -656v1470h136v1130h340v-1130h136v-1470h-612z" />
    <glyph glyph-name="uni257E" unicode="&#x257e;" 
d="M-170 338v612h940v-136h600v-340h-600v-136h-940z" />
    <glyph glyph-name="uni257F" unicode="&#x257f;" 
d="M430 -656v1130h-136v1470h612v-1470h-136v-1130h-340z" />
    <glyph glyph-name="upblock" unicode="&#x2580;" 
d="M0 644v1300h1200v-1300h-1200z" />
    <glyph glyph-name="uni2581" unicode="&#x2581;" 
d="M0 -656v325h1200v-325h-1200z" />
    <glyph glyph-name="uni2582" unicode="&#x2582;" 
d="M0 -656v650h1200v-650h-1200z" />
    <glyph glyph-name="uni2583" unicode="&#x2583;" 
d="M0 -656v975h1200v-975h-1200z" />
    <glyph glyph-name="dnblock" unicode="&#x2584;" 
d="M0 -656v1300h1200v-1300h-1200z" />
    <glyph glyph-name="uni2585" unicode="&#x2585;" 
d="M0 -656v1625h1200v-1625h-1200z" />
    <glyph glyph-name="uni2586" unicode="&#x2586;" 
d="M0 -656v1950h1200v-1950h-1200z" />
    <glyph glyph-name="uni2587" unicode="&#x2587;" 
d="M0 -656v2275h1200v-2275h-1200z" />
    <glyph glyph-name="block" unicode="&#x2588;" 
d="M0 -656v2600h1200v-2600h-1200z" />
    <glyph glyph-name="uni2589" unicode="&#x2589;" 
d="M0 -656v2600h1050v-2600h-1050z" />
    <glyph glyph-name="uni258A" unicode="&#x258a;" 
d="M0 -656v2600h900v-2600h-900z" />
    <glyph glyph-name="uni258B" unicode="&#x258b;" 
d="M0 -656v2600h750v-2600h-750z" />
    <glyph glyph-name="lfblock" unicode="&#x258c;" 
d="M0 -656v2600h600v-2600h-600z" />
    <glyph glyph-name="uni258D" unicode="&#x258d;" 
d="M0 -656v2600h450v-2600h-450z" />
    <glyph glyph-name="uni258E" unicode="&#x258e;" 
d="M0 -656v2600h300v-2600h-300z" />
    <glyph glyph-name="uni258F" unicode="&#x258f;" 
d="M0 -656v2600h150v-2600h-150z" />
    <glyph glyph-name="rtblock" unicode="&#x2590;" 
d="M600 -656v2600h600v-2600h-600z" />
    <glyph glyph-name="ltshade" unicode="&#x2591;" 
d="M1038 1717v122h122v-122h-122zM40 -608v122h122v-122h-122zM40 -251v122h122v-122h-122zM241 -429v122h122v-122h-122zM439 -608v122h122v-122h-122zM40 108v122h122v-122h-122zM241 -71v122h122v-122h-122zM439 -251v122h122v-122h-122zM640 -429v122h122v-122h-122z
M837 -608v122h122v-122h-122zM40 465v122h122v-122h-122zM241 286v122h122v-122h-122zM439 108v122h122v-122h-122zM640 -71v122h122v-122h-122zM837 -250v122h122v-122h-122zM1038 -429v122h122v-122h-122zM40 823v122h122v-122h-122zM241 644v122h122v-122h-122zM439 465
v122h122v-122h-122zM640 286v122h122v-122h-122zM837 108v122h122v-122h-122zM1038 -72v122h122v-122h-122zM40 1181v122h122v-122h-122zM241 1002v122h122v-122h-122zM439 823v122h122v-122h-122zM640 644v122h122v-122h-122zM837 465v122h122v-122h-122zM1038 286v122h122
v-122h-122zM40 1538v122h122v-122h-122zM241 1359v122h122v-122h-122zM439 1181v122h122v-122h-122zM640 1002v122h122v-122h-122zM837 823v122h122v-122h-122zM1038 644v122h122v-122h-122zM241 1717v122h122v-122h-122zM439 1538v122h122v-122h-122zM640 1359v122h122
v-122h-122zM837 1180v122h122v-122h-122zM1038 1002v122h122v-122h-122zM640 1717v122h122v-122h-122zM837 1538v122h122v-122h-122zM1038 1359v122h122v-122h-122z" />
    <glyph glyph-name="shade" unicode="&#x2592;" 
d="M8 1180v190h190v-190h-190zM8 823v190h190v-190h-190zM8 465v190h190v-190h-190zM8 108v190h190v-190h-190zM8 -251v190h190v-190h-190zM208 1706v190h190v-190h-190zM208 1359v190h190v-190h-190zM208 1002v190h190v-190h-190zM208 644v190h190v-190h-190zM208 286v190
h190v-190h-190zM208 -71v190h190v-190h-190zM208 -429v190h190v-190h-190zM405 1538v190h190v-190h-190zM405 1181v190h190v-190h-190zM405 823v190h190v-190h-190zM405 465v190h190v-190h-190zM405 107v190h190v-190h-190zM405 -250v190h190v-190h-190zM605 1706v190h190
v-190h-190zM605 1350v190h190v-190h-190zM605 994v190h190v-190h-190zM605 639v190h190v-190h-190zM605 283v190h190v-190h-190zM605 -73v190h190v-190h-190zM605 -429v190h190v-190h-190zM802 1538v190h190v-190h-190zM802 1181v190h190v-190h-190zM802 823v190h190v-190
h-190zM802 465v190h190v-190h-190zM802 107v190h190v-190h-190zM802 -250v190h190v-190h-190zM1002 1706v190h190v-190h-190zM1002 1350v190h190v-190h-190zM1002 994v190h190v-190h-190zM1002 639v190h190v-190h-190zM1002 283v190h190v-190h-190zM1002 -73v190h190v-190
h-190zM1002 -429v190h190v-190h-190zM8 -608v190h190v-190h-190zM405 -608v190h190v-190h-190zM802 -608v190h190v-190h-190zM8 1538v190h190v-190h-190z" />
    <glyph glyph-name="dkshade" unicode="&#x2593;" 
d="M-6 -608v2504h1212v-2504h-1212zM50 -608h98v98h-98v-98zM50 -250h98v98h-98v-98zM251 -429h98v98h-98v-98zM451 -608h98v98h-98v-98zM50 107h98v98h-98v-98zM251 -71h98v98h-98v-98zM451 -250h98v98h-98v-98zM652 -429h98v98h-98v-98zM851 -608h98v98h-98v-98zM50 465
h98v98h-98v-98zM251 286h98v98h-98v-98zM451 107h98v98h-98v-98zM652 -71h98v98h-98v-98zM851 -250h98v98h-98v-98zM1052 -429h98v98h-98v-98zM50 823h98v98h-98v-98zM251 644h98v98h-98v-98zM451 465h98v98h-98v-98zM652 286h98v98h-98v-98zM851 107h98v98h-98v-98z
M1052 -71h98v98h-98v-98zM50 1181h98v98h-98v-98zM251 1002h98v98h-98v-98zM451 823h98v98h-98v-98zM652 644h98v98h-98v-98zM851 465h98v98h-98v-98zM1052 286h98v98h-98v-98zM50 1538h98v98h-98v-98zM251 1359h98v98h-98v-98zM450 1181h98v98h-98v-98zM651 1002h98v98h-98
v-98zM851 823h98v98h-98v-98zM1052 644h98v98h-98v-98zM251 1717h98v98h-98v-98zM450 1538h98v98h-98v-98zM651 1359h98v98h-98v-98zM851 1181h98v98h-98v-98zM1052 1002h98v98h-98v-98zM651 1717h98v98h-98v-98zM851 1538h98v98h-98v-98zM1052 1359h98v98h-98v-98z
M1052 1717h98v98h-98v-98z" />
    <glyph glyph-name="uni2594" unicode="&#x2594;" 
d="M0 1619v325h1200v-325h-1200z" />
    <glyph glyph-name="uni2595" unicode="&#x2595;" 
d="M1050 -656v2600h150v-2600h-150z" />
    <glyph glyph-name="uni2596" unicode="&#x2596;" 
d="M0 -656v1300h600v-1300h-600z" />
    <glyph glyph-name="uni2597" unicode="&#x2597;" 
d="M600 -656v1300h600v-1300h-600z" />
    <glyph glyph-name="uni2598" unicode="&#x2598;" 
d="M0 644v1300h600v-1300h-600z" />
    <glyph glyph-name="uni2599" unicode="&#x2599;" 
d="M0 -656v2600h600v-1300h600v-1300h-1200z" />
    <glyph glyph-name="uni259A" unicode="&#x259a;" 
d="M0 644v1300h600v-1300h-600zM600 -656v1300h600v-1300h-600z" />
    <glyph glyph-name="uni259B" unicode="&#x259b;" 
d="M0 -656v2600h1200v-1300h-600v-1300h-600z" />
    <glyph glyph-name="uni259C" unicode="&#x259c;" 
d="M600 -656v1300h-600v1300h1200v-2600h-600z" />
    <glyph glyph-name="uni259D" unicode="&#x259d;" 
d="M600 644v1300h600v-1300h-600z" />
    <glyph glyph-name="uni259E" unicode="&#x259e;" 
d="M600 644v1300h600v-1300h-600zM0 -656v1300h600v-1300h-600z" />
    <glyph glyph-name="uni259F" unicode="&#x259f;" 
d="M0 -656v1300h600v1300h600v-2600h-1200z" />
    <glyph glyph-name="filledbox" unicode="&#x25a0;" 
d="M102 218v996h996v-996h-996z" />
    <glyph glyph-name="uni25A1" unicode="&#x25a1;" 
d="M72 188v1056h1056v-1056h-1056zM268 378h664v676h-664v-676z" />
    <glyph glyph-name="uni25AA" unicode="&#x25aa;" 
d="M311 295v578h578v-578h-578z" />
    <glyph glyph-name="uni25AB" unicode="&#x25ab;" 
d="M234 217v733h732v-733h-732zM397 377h406v412h-406v-412z" />
    <glyph glyph-name="filledrect" unicode="&#x25ac;" 
d="M50 356v340h1100v-340h-1100z" />
    <glyph glyph-name="triagup" unicode="&#x25b2;" 
d="M90 190l510 1100l510 -1100h-1020z" />
    <glyph glyph-name="triagrt" unicode="&#x25ba;" 
d="M70 206v1020l1100 -510z" />
    <glyph glyph-name="triagdn" unicode="&#x25bc;" 
d="M600 166l-510 1100h1020z" />
    <glyph glyph-name="triaglf" unicode="&#x25c4;" 
d="M1130 206l-1100 510l1100 510v-1020z" />
    <glyph glyph-name="uni25C6" unicode="&#x25c6;" 
d="M600 180l-536 536l536 536l536 -536z" />
    <glyph glyph-name="uni25C9" unicode="&#x25c9;" 
d="M600 136q-166 0 -297 76t-207 207t-76 297t76 297t207 207t297 76q167 0 298 -75.5t206.5 -206.5t75.5 -298q0 -166 -75.5 -297.5t-206.5 -207t-298 -75.5zM802 370q89 52 140.5 142t51.5 204t-51.5 204t-140.5 142t-201.5 52t-202 -52t-141 -142t-51.5 -204t51.5 -204
t141 -142t202 -52t201.5 52zM466.5 482.5q-58.5 34.5 -92.5 95.5t-34 138.5t34 138t92.5 95t133.5 34.5t133.5 -34.5t92.5 -95t34 -138t-34 -138.5t-92.5 -95.5t-133.5 -34.5t-133.5 34.5z" />
    <glyph glyph-name="lozenge" unicode="&#x25ca;" 
d="M480 -35l-420 751l420 751h240l420 -751l-420 -751h-240zM600 304l272 506v-188l-272 506l-272 -506v188z" />
    <glyph glyph-name="circle" unicode="&#x25cb;" 
d="M302.5 211.5q-131.5 75.5 -207 207t-75.5 298t75.5 297.5t207 206.5t297.5 75.5q167 0 298 -75.5t206.5 -206.5t75.5 -298q0 -166 -75.5 -297.5t-206.5 -207t-297.5 -75.5t-298 75.5zM796.5 381q85.5 49 134.5 136t49 199.5t-49 199t-134.5 135.5t-196.5 49t-197 -49
t-134.5 -135.5t-48.5 -199t48.5 -199.5t134.5 -136t197 -49t196.5 49z" />
    <glyph glyph-name="uni25CC" unicode="&#x25cc;" 
d="M979 459q-21 21 -21 51t21 51t51 21t51 -21t21 -51t-21 -51t-51 -21t-51 21zM228 223q-30 0 -51 21t-21 51t21 51t51 21q29 0 50 -21t21 -51t-21 -51t-50 -21zM334 87q-21 21 -21 51q0 29 21 50t51 21t51 -21t21 -50q0 -30 -21 -51t-51 -21t-51 21zM119 459
q-21 21 -21 51t21 51t51 21t51 -21t21 -51t-21 -51t-51 -21t-51 21zM549 29q-21 21 -21 51t21 51t51 21t51 -21t21 -51t-21 -51t-51 -21t-51 21zM228 653q-30 0 -51 21t-21 51t21 51t51 21q29 0 50 -21t21 -51t-21 -51t-50 -21zM764 87q-21 21 -21 51q0 29 21 50t51 21
t51 -21t21 -50q0 -30 -21 -51t-51 -21t-51 21zM334 832q-21 21 -21 50q0 30 21 51t51 21t51 -21t21 -51q0 -29 -21 -50t-51 -21t-51 21zM972 223q-29 0 -50 21t-21 51t21 51t50 21q30 0 51 -21t21 -51t-21 -51t-51 -21zM549 889q-21 21 -21 51t21 51t51 21t51 -21t21 -51
t-21 -51t-51 -21t-51 21zM972 653q-29 0 -50 21t-21 51t21 51t50 21q30 0 51 -21t21 -51t-21 -51t-51 -21zM764 832q-21 21 -21 50q0 30 21 51t51 21t51 -21t21 -51q0 -29 -21 -50t-51 -21t-51 21z" />
    <glyph glyph-name="uni25CF" unicode="&#x25cf;" 
d="M334.5 259.5q-118.5 69.5 -187.5 189t-69 268t69 267.5t187.5 188.5t266 69.5t265.5 -69.5t187 -188.5t69 -267.5t-69 -268t-187 -189t-265.5 -69.5t-266 69.5z" />
    <glyph glyph-name="invcircle" unicode="&#x25d9;" 
d="M22 138v1156h1156v-1156h-1156zM600 160q157 0 283 73.5t199.5 199.5t73.5 283t-73.5 283t-199.5 199.5t-283 73.5q-156 0 -282 -74t-200 -199.5t-74 -282t74 -282.5t200 -200t282 -74zM414.5 396.5q-82.5 48.5 -130.5 132t-48 188t48 187.5t130.5 131.5t186 48.5
t185.5 -48.5t130 -131.5t48 -187.5t-48 -188t-130 -132t-185.5 -48.5t-186 48.5z" />
    <glyph glyph-name="uniFFFD" unicode="&#xfffd;" 
d="M600 138l-590 578l590 578l590 -578zM659.5 350q25.5 26 25.5 63t-25.5 62t-63.5 25q-37 0 -63 -25t-26 -62t26 -63t63.5 -26t63 26zM531 564h118v57l69 41q64 38 91.5 81.5t27.5 101.5q0 86 -59 139.5t-158 53.5q-97 0 -165.5 -48t-97.5 -134l112 -38q36 110 147 110
q103 0 103 -82v-6q0 -59 -85 -109l-103 -61v-106z" />
    <glyph glyph-name="g.ss01" 
d="M604 -461q-136 0 -246.5 45t-173.5 127l204 217q85 -111 208 -111q89 0 139 52.5t50 144.5v197h-10q-35 -91 -107.5 -139.5t-164.5 -48.5q-127 0 -222 66.5t-147.5 186t-52.5 278.5v6q0 157 50.5 276t141.5 185.5t210 66.5q98 0 165 -41t110 -129h10v136h325v-1028
q0 -149 -60 -258.5t-169.5 -169t-259.5 -59.5zM591 302q80 0 125.5 68.5t45.5 184.5v4q0 115 -45.5 182.5t-124.5 67.5q-81 0 -125.5 -65.5t-44.5 -184.5v-4q0 -120 44.5 -186.5t124.5 -66.5z" />
    <glyph glyph-name="Eng.loclNSM" 
d="M689 -471q-105 0 -197.5 30.5t-171.5 91.5l185 278q81 -66 165 -66q61 0 94.5 37t33.5 102v152l26 -154l-441 879h-9l20 -328v-551h-336v1432h340l419 -836h9l-20 328v508h336v-1424q0 -142 -57 -250t-159 -168.5t-237 -60.5z" />
    <glyph glyph-name="IJacute" 
d="M613 -35q-202 0 -336.5 99.5t-186.5 286.5l339 103q40 -149 176 -149q73 0 114 48.5t41 133.5v945h350v-953q0 -153 -62.5 -268.5t-174.5 -180.5t-260 -65zM90 615v817h350v-817h-350zM70 1638v14l218 370h390v-14l-310 -370h-298zM740 1638v14l218 370h390v-14
l-310 -370h-298z" />
    <glyph glyph-name="ijacute" 
d="M689 -451q-211 0 -379 124l162 252q53 -40 100.5 -59t99.5 -19q76 0 116.5 44t40.5 123v1040h340v-1028q0 -223 -127.5 -350t-352.5 -127zM17 0v250h702v-250h-702zM205 83v971h336v-971h-336zM25 804v250h490v-250h-490zM629 804v250h452v-250h-452zM155 1260v14
l218 370h390v-14l-310 -370h-298zM779 1260v14l218 370h390v-14l-310 -370h-298z" />
    <glyph glyph-name="uni03020300" horiz-adv-x="0" 
d="M-488 1164v14l358 360h260l358 -360v-14h-336l-172 215h40l-172 -215h-336zM374 1473l-282 420v14h286l222 -420v-14h-226z" />
    <glyph glyph-name="uni03020301" horiz-adv-x="0" 
d="M-488 1164v14l358 360h260l358 -360v-14h-336l-172 215h40l-172 -215h-336zM244 1473v14l148 420h278v-14l-226 -420h-200z" />
    <glyph glyph-name="uni03020303" horiz-adv-x="0" 
d="M-488 1164v14l358 360h260l358 -360v-14h-336l-172 215h40l-172 -215h-336zM222 1622q-52 0 -99 17t-98 48q-59 37 -92 51t-65 14q-65 0 -65 -69v-57h-230v88q0 125 58.5 191.5t161.5 66.5q52 0 98 -17.5t96 -49.5q59 -37 90.5 -50.5t59.5 -13.5q60 0 60 69v58h230v-88
q0 -129 -52 -193.5t-153 -64.5z" />
    <glyph glyph-name="uni03020309" horiz-adv-x="0" 
d="M-488 1164v14l358 360h260l358 -360v-14h-336l-172 215h40l-172 -215h-336zM338 1412l-26 184q114 9 114 75q0 71 -112 71q-79 0 -155 -22l-45 188q95 34 206 34q134 0 215 -69.5t81 -184.5q0 -116 -73.5 -189t-204.5 -87z" />
    <glyph glyph-name="uni03060300" horiz-adv-x="0" 
d="M-216.5 1212.5q-93.5 48.5 -145.5 135.5t-52 201v7h224v-10q0 -84 51 -133t139 -49t139 49t51 133v10h224v-7q0 -114 -52 -201t-145 -135.5t-216.5 -48.5t-217 48.5zM-50 1530l-272 390v14h310l142 -390v-14h-180z" />
    <glyph glyph-name="uni03060301" horiz-adv-x="0" 
d="M-216.5 1212.5q-93.5 48.5 -145.5 135.5t-52 201v7h224v-10q0 -84 51 -133t139 -49t139 49t51 133v10h224v-7q0 -114 -52 -201t-145 -135.5t-216.5 -48.5t-217 48.5zM-120 1530v14l100 390h314v-14l-244 -390h-170z" />
    <glyph glyph-name="uni03060303" horiz-adv-x="0" 
d="M0 1164q-117 0 -206 47.5t-138.5 132t-49.5 196.5v7h230v-10q0 -82 44 -129t120 -47t120 47t44 129v10h230v-7q0 -112 -49.5 -196.5t-138 -132t-206.5 -47.5zM222 1649q-52 0 -99 17t-98 48q-59 37 -92 51t-65 14q-30 0 -47.5 -18t-17.5 -51v-57h-230v88
q0 125 58.5 191.5t161.5 66.5q52 0 98 -17.5t96 -49.5q59 -37 90.5 -50.5t59.5 -13.5q60 0 60 69v58h230v-88q0 -129 -52 -193.5t-153 -64.5z" />
    <glyph glyph-name="uni03060309" horiz-adv-x="0" 
d="M0 1164q-124 0 -219.5 49.5t-150 137.5t-54.5 202v7h218v-10q0 -88 53 -139.5t153 -51.5t153 51.5t53 139.5v10h218v-7q0 -114 -54.5 -202t-150 -137.5t-219.5 -49.5zM-71 1480l-19 170q122 9 122 73q0 66 -116 66q-80 0 -161 -23l-48 188q106 35 215 35
q137 0 217.5 -66.5t80.5 -179.5q0 -108 -76.5 -177t-214.5 -86z" />
    <glyph glyph-name="Ohorn.alt" 
d="M595 -35q-170 0 -292.5 87t-187.5 250t-65 391v46q0 228 66 391t190.5 250t301.5 87q63 0 110.5 -10.5t79.5 -10.5q78 0 78 94q0 38 -5.5 74t-16.5 77l337 68q23 -87 23 -166q0 -128 -102 -208t-284 -80h-80l23 91q185 -63 277 -225.5t92 -431.5v-46q0 -228 -65 -391
t-187 -250t-293 -87zM595 299q97 0 146 98t49 291v76q0 188 -43.5 284.5t-138.5 96.5q-103 0 -155.5 -101t-52.5 -300v-56q0 -193 49 -291t146 -98z" />
    <glyph glyph-name="Uhorn.alt" 
d="M278 24q-108 59 -168 166t-60 249v993h330v-979q0 -76 41 -120t111.5 -44t111 44t40.5 120v979h111q60 0 86 27t26 82q0 38 -7.5 82t-20.5 87l318 93q33 -99 33 -189q0 -163 -108 -242.5t-293 -79.5h-45l226 132v-985q0 -142 -60 -248.5t-168 -166t-252 -59.5t-252 59z
" />
    <glyph glyph-name="ohorn.alt" 
d="M578 -35q-163 0 -280.5 69t-180.5 193.5t-63 289.5v20q0 165 63 289.5t180.5 193.5t280.5 69q59 0 100.5 -7t81.5 -7q110 0 110 107q0 58 -24 118l324 80q11 -37 17 -73.5t6 -74.5q0 -139 -105 -215.5t-295 -76.5h-75l44 92q164 -54 252 -185t88 -310v-20
q0 -168 -64.5 -292t-182 -192t-277.5 -68zM578 263q90 0 138 68.5t48 189.5v12q0 125 -48 194.5t-138 69.5t-138 -69.5t-48 -194.5v-12q0 -121 48 -189.5t138 -68.5z" />
    <glyph glyph-name="uhorn.alt" 
d="M397 -35q-133 0 -207.5 87t-74.5 236v766h326v-691q0 -59 31 -92.5t85 -33.5q62 0 96 44t34 121v652h104q98 0 98 84q0 32 -6 67.5t-17 71.5l316 78q22 -82 22 -157q0 -129 -100 -202.5t-250 -73.5h-80l240 132v-1054h-327v143h-11q-43 -77 -113.5 -127.5t-165.5 -50.5z
" />
  </font>
</defs>
</svg>
