<?xml version="1.0" standalone="no"?>
<!DOCTYPE svg PUBLIC "-//W3C//DTD SVG 1.1//EN" "http://www.w3.org/Graphics/SVG/1.1/DTD/svg11.dtd" >
<svg xmlns="http://www.w3.org/2000/svg" xmlns:xlink="http://www.w3.org/1999/xlink" version="1.1">
<metadata>
Created by FontForge 20201107 at Thu Aug 21 16:28:35 2025
 By www-data
Copyright 2025 The Google Sans Code Project Authors (github.com/googlefonts/googlesans-code)
</metadata>
<defs>
<font id="GoogleSansCode-Regular" horiz-adv-x="1200" >
  <font-face 
    font-family="Google Sans Code"
    font-weight="400"
    font-stretch="normal"
    units-per-em="2000"
    panose-1="2 11 5 9 3 5 2 4 2 4"
    ascent="1600"
    descent="-400"
    x-height="1047"
    cap-height="1432"
    bbox="-382 -811 1290 2303"
    underline-thickness="168"
    underline-position="-404"
    unicode-range="U+000D-FFFD"
  />
<missing-glyph 
d="M174 0v1432h852v-1432h-852zM302 120h596v1192h-596v-1192z" />
    <glyph glyph-name=".notdef" 
d="M174 0v1432h852v-1432h-852zM302 120h596v1192h-596v-1192z" />
    <glyph glyph-name=".null" horiz-adv-x="0" 
 />
    <glyph glyph-name="nonmarkingreturn" horiz-adv-x="666" 
 />
    <glyph glyph-name="NULL" 
 />
    <glyph glyph-name="NULL" 
 />
    <glyph glyph-name="CR" unicode="&#xd;" 
 />
    <glyph glyph-name="space" unicode=" " 
 />
    <glyph glyph-name="exclam" unicode="!" 
d="M503 550l-28 942h250l-28 -942h-194zM483.5 19q-47.5 48 -47.5 116t47.5 116t116.5 48t116.5 -48t47.5 -116t-47.5 -116t-116.5 -48t-116.5 48z" />
    <glyph glyph-name="quotedbl" unicode="&#x22;" 
d="M274 904v556h224v-556h-224zM703 904v556h224v-556h-224z" />
    <glyph glyph-name="numbersign" unicode="#" 
d="M624 -17l209 1466h153l-209 -1466h-153zM214 -17l209 1466h153l-209 -1466h-153zM43 366v150h1038v-150h-1038zM116 916v150h1041v-150h-1041z" />
    <glyph glyph-name="dollar" unicode="$" 
d="M617 0q-191 0 -318 96t-171 270l168 55q34 -134 114.5 -200.5t210.5 -66.5q123 0 191.5 59t68.5 164v11q0 91 -45.5 148t-157.5 100l-202 78q-147 57 -222 145t-75 209v16q0 106 53.5 184t149.5 121t226 43q166 0 275.5 -71t159.5 -211l-163 -67q-40 101 -105 148
t-168 47q-119 0 -184 -50t-65 -141v-9q0 -76 42.5 -123t145.5 -87l202 -78q167 -64 241.5 -160t74.5 -236v-15q0 -117 -55 -202t-155.5 -131t-236.5 -46zM542 -236v298l6 37v637h130v-637l6 -37v-298h-142zM548 759v580l-6 42v287h142v-287l-6 -42v-580h-130z" />
    <glyph glyph-name="percent" unicode="%" 
d="M132 254l-104 129l1041 795l103 -129zM868 -32q-84 0 -151.5 41t-107 111t-39.5 157v8q0 88 39.5 158t107 111t151.5 41t151.5 -41t107 -111t39.5 -158v-8q0 -87 -39.5 -157t-107 -111t-151.5 -41zM868 116q64 0 104 45.5t40 117.5v4q0 72 -40.5 118t-103.5 46
t-103.5 -46t-40.5 -118v-4q0 -72 40 -117.5t104 -45.5zM332 837q-84 0 -151.5 41t-107 111t-39.5 157v8q0 88 39.5 158t107 111t151.5 41t151.5 -41t107 -111t39.5 -158v-8q0 -87 -39.5 -157t-107 -111t-151.5 -41zM332 985q64 0 104 45.5t40 117.5v4q0 72 -40 118t-104 46
t-104 -46t-40 -118v-4q0 -72 40 -117.5t104 -45.5z" />
    <glyph glyph-name="ampersand" unicode="&#x26;" 
d="M1054 -50l-670 720q-91 98 -143.5 172t-74.5 137.5t-22 129.5v2q0 104 49.5 183.5t137 124.5t201.5 45q142 0 240.5 -66t172.5 -212l-162 -86q-52 101 -111 144.5t-144 43.5q-90 0 -143 -48t-53 -131v-10q0 -63 38 -131t135 -171l677 -723zM477 -32q-127 0 -223.5 52
t-150 144.5t-53.5 215.5v18q0 158 80 268.5t240 176.5l113 -123q-124 -38 -185.5 -114.5t-61.5 -194.5v-28q0 -115 66.5 -179t185.5 -64q110 0 189 68t137 218.5t104 399.5l182 -32q-54 -270 -142.5 -454t-209.5 -278t-271 -94z" />
    <glyph glyph-name="quotesingle" unicode="'" 
d="M488 904v556h224v-556h-224z" />
    <glyph glyph-name="parenleft" unicode="(" 
d="M906 1637l110 -145q-238 -172 -352 -370.5t-114 -458.5t114 -458t352 -371l-110 -145q-178 131 -299.5 279t-183 320t-61.5 375t61.5 375t183 320.5t299.5 278.5z" />
    <glyph glyph-name="parenright" unicode=")" 
d="M294 -308l-110 145q238 173 352 371t114 458t-114 458.5t-352 370.5l110 145q179 -130 300 -278.5t182.5 -320.5t61.5 -375t-61.5 -375t-182.5 -320t-300 -279z" />
    <glyph glyph-name="asterisk" unicode="*" 
d="M157 429l-78 136l490 263l474 291l78 -136l-490 -267zM1043 429l-474 287l-490 267l78 136l474 -291l490 -263zM522 216v1116h156v-1116h-156z" />
    <glyph glyph-name="plus" unicode="+" 
d="M510 164v922h180v-922h-180zM140 541v170h920v-170h-920z" />
    <glyph glyph-name="comma" unicode="," 
d="M494 -349l-116 78l238 320l-1 -55q-45 0 -82.5 18.5t-59.5 53t-22 81.5q0 65 44.5 110.5t114.5 45.5q72 0 119 -45t47 -127q0 -48 -20 -95.5t-57 -98.5z" />
    <glyph glyph-name="hyphen" unicode="-" 
d="M155 533v186h890v-186h-890z" />
    <glyph glyph-name="period" unicode="." 
d="M599 -29q-69 0 -116.5 47t-47.5 117q0 68 48 115t116 47q71 0 118 -47t47 -115q0 -70 -47 -117t-118 -47z" />
    <glyph glyph-name="slash" unicode="/" 
d="M110 -176l792 1636h188l-792 -1636h-188z" />
    <glyph glyph-name="zero" unicode="0" 
d="M197 405l-55 157l862 466l55 -157zM600 -32q-238 0 -370 188t-132 523v76q0 335 132 522t370 187q239 0 370.5 -187t131.5 -522v-76q0 -336 -131.5 -523.5t-370.5 -187.5zM600 138q159 0 241.5 137.5t82.5 402.5v78q0 278 -82.5 408t-241.5 130t-241.5 -136.5
t-82.5 -401.5v-78q0 -278 82.5 -409t241.5 -131z" />
    <glyph glyph-name="one" unicode="1" 
d="M580 80v1117l-345 -185l-86 159l492 261h129v-1352h-190zM206 0v180h900v-180h-900z" />
    <glyph glyph-name="two" unicode="2" 
d="M150 0v172l497 560q98 110 135.5 183t37.5 153v10q0 96 -55.5 149.5t-155.5 53.5q-187 0 -289 -206l-170 82q74 152 192.5 229.5t271.5 77.5q119 0 209 -48t140.5 -134t50.5 -199v-12q0 -71 -22 -137t-73 -140.5t-140 -173.5l-392 -436v-8h649v-176h-886z" />
    <glyph glyph-name="three" unicode="3" 
d="M622 -31q-194 0 -328.5 98.5t-180.5 271.5l172 52q32 -118 118 -182t210 -64q121 0 194.5 64.5t73.5 170.5v26q0 115 -77.5 179t-220.5 64h-144v176h124q129 0 202.5 61.5t73.5 169.5v19q0 97 -62 155t-169 58q-106 0 -181 -53.5t-110 -153.5l-172 57q53 154 177 239.5
t292 85.5q123 0 216 -47.5t145 -132.5t52 -198v-10q0 -122 -61 -205.5t-180 -120.5v-6q132 -28 207 -123.5t75 -228.5v-19q0 -117 -57.5 -208t-158 -143t-230.5 -52z" />
    <glyph glyph-name="four" unicode="4" 
d="M714 0v426l6 40v791l78 -91h-83l-433 -637v-5h510l46 4h276v-170h-1038v152l626 922h196v-1432h-184z" />
    <glyph glyph-name="five" unicode="5" 
d="M601 -31q-121 0 -219 44.5t-167.5 128t-102.5 200.5l172 53q34 -121 114.5 -185.5t200.5 -64.5q135 0 214.5 79.5t79.5 212.5v30q0 125 -73 198.5t-196 73.5q-83 0 -150.5 -32.5t-123.5 -97.5l-194 60l101 763h745v-177h-598l-67 -470l5 -2q62 63 144.5 96.5t177.5 33.5
q124 0 217.5 -57t146 -158.5t52.5 -235.5v-20q0 -143 -59.5 -249.5t-167 -165t-252.5 -58.5z" />
    <glyph glyph-name="six" unicode="6" 
d="M599 -30q-139 0 -246.5 62t-168.5 170.5t-61 249.5v20q0 83 22 164t70.5 169t125.5 191l360 480l154 -112l-276 -341q-43 -53 -81 -93t-81 -78l5 -7q105 77 239 77q121 0 214.5 -60t147.5 -163.5t54 -234.5v-20q0 -138 -61.5 -245t-169 -168t-247.5 -61zM599 148
q131 0 210.5 80.5t79.5 210.5v30q0 131 -78.5 212t-209.5 81q-130 0 -210 -81t-80 -212v-30q0 -130 79 -210.5t209 -80.5z" />
    <glyph glyph-name="seven" unicode="7" 
d="M426 -32l-172 80l591 1199v5h-709v180h928v-159z" />
    <glyph glyph-name="eight" unicode="8" 
d="M361.5 21.5q-105.5 53.5 -166 146.5t-60.5 211v14q0 122 67.5 222.5t180.5 144.5v5q-93 46 -146 129.5t-53 183.5v10q0 110 53.5 194.5t147.5 133t215 48.5t215 -48.5t147.5 -133t53.5 -194.5v-10q0 -101 -53 -184t-146 -129v-5q113 -44 180.5 -144.5t67.5 -222.5v-14
q0 -118 -60.5 -211t-165.5 -146.5t-238.5 -53.5t-239 53.5zM600 140q123 0 201 71.5t78 183.5v22q0 113 -78 184t-201 71t-201 -71t-78 -184v-22q0 -112 78 -183.5t201 -71.5zM768 902q64 59 64 156v20q0 96 -63.5 155t-168.5 59q-104 0 -168 -59t-64 -155v-20
q0 -96 64 -155.5t168 -59.5t168 59z" />
    <glyph glyph-name="nine" unicode="9" 
d="M601 1462q140 0 247 -61.5t168 -170.5t61 -250v-20q0 -83 -22 -164t-70 -169t-126 -191l-360 -480l-154 112l276 341q43 53 81 93t81 78l-5 7q-105 -77 -239 -77q-120 0 -214 60t-148 163.5t-54 234.5v20q0 138 61.5 245t169.5 168t247 61zM601 1284q-131 0 -210.5 -80.5
t-79.5 -210.5v-30q0 -131 79 -212t209 -81q131 0 210.5 81.5t79.5 211.5v30q0 130 -79 210.5t-209 80.5z" />
    <glyph glyph-name="colon" unicode=":" 
d="M599 752q-68 0 -115.5 47t-47.5 117q0 68 48 115t115 47q71 0 118 -47t47 -115q0 -70 -47 -117t-118 -47zM599 -30q-68 0 -115.5 47t-47.5 117q0 68 48 115t115 47q71 0 118 -47t47 -115q0 -70 -47 -117t-118 -47z" />
    <glyph glyph-name="semicolon" unicode=";" 
d="M612 753q-69 0 -116.5 47t-47.5 117q0 68 48 115t116 47q71 0 118 -47t47 -115q0 -70 -47 -117t-118 -47zM494 -349l-116 78l238 320l-1 -55q-45 0 -82.5 18.5t-59.5 53t-22 81.5q0 65 44.5 110.5t114.5 45.5q72 0 119 -45t47 -127q0 -48 -20 -95.5t-57 -98.5z" />
    <glyph glyph-name="less" unicode="&#x3c;" 
d="M1030 63l-880 479v168l880 478v-196l-682 -362v-8l682 -363v-196z" />
    <glyph glyph-name="equal" unicode="=" 
d="M130 763v172h940v-172h-940zM130 317v172h940v-172h-940z" />
    <glyph glyph-name="greater" unicode="&#x3e;" 
d="M170 63v196l682 363v8l-682 362v196l880 -478v-168z" />
    <glyph glyph-name="question" unicode="?" 
d="M486 468v256l211 129q88 54 130 112t42 124v14q0 87 -60 136t-167 49q-123 0 -209 -62.5t-126 -180.5l-178 62q57 169 192.5 262.5t322.5 93.5q127 0 219.5 -47t143 -130t50.5 -190v-3q0 -115 -55.5 -201t-183.5 -164l-145 -88v-172h-187zM580 -31q-70 0 -117.5 47
t-47.5 116t47.5 115t117.5 46t117 -46.5t47 -114.5q0 -69 -47.5 -116t-116.5 -47z" />
    <glyph glyph-name="at" unicode="@" 
d="M705 -233q-312 0 -480 233.5t-168 666.5v42q0 438 149 666.5t435 228.5q218 0 343 -142t125 -390v-839h-165v128h-5q-43 -72 -99 -105.5t-133 -33.5q-95 0 -167.5 53.5t-113 149.5t-40.5 223v26q0 126 41 221.5t114.5 149.5t168.5 54q79 0 135.5 -34t93.5 -104h5v106
q0 184 -77.5 280t-226.5 96q-208 0 -310.5 -180.5t-102.5 -548.5v-52q0 -363 121 -548.5t359 -185.5q162 0 301 103l86 -142q-160 -122 -389 -122zM745 376q89 0 141.5 72t52.5 195v36q0 123 -52.5 194.5t-141.5 71.5q-91 0 -143 -71t-52 -195v-36q0 -125 52 -196t143 -71z
" />
    <glyph glyph-name="A" unicode="A" 
d="M58 0l445 1432h197l443 -1432h-196l-305 1063l-40 155h-6l-41 -155l-303 -1063h-194zM254 369l52 167h586l53 -167h-691z" />
    <glyph glyph-name="B" unicode="B" 
d="M172 0v1432h446q187 0 293 -94t106 -249v-28q0 -112 -53.5 -192t-152.5 -117v-7q123 -26 193 -116.5t70 -221.5v-28q0 -114 -52.5 -199.5t-147 -132.5t-221.5 -47h-481zM354 164h281q120 0 185.5 62t65.5 177v24q0 115 -67 177t-195 62h-329v154h306q110 0 169 55.5
t59 158.5v20q0 104 -58 159t-170 55h-247v-1104z" />
    <glyph glyph-name="C" unicode="C" 
d="M653 -32q-169 0 -293.5 89t-192 252.5t-67.5 387.5v38q0 227 66 390.5t188.5 251t292.5 87.5q166 0 283.5 -90t173.5 -262l-172 -66q-43 127 -112 184.5t-177 57.5q-169 0 -261 -142t-92 -406v-48q0 -262 95.5 -405t270.5 -143q217 0 294 241l173 -64
q-55 -172 -175.5 -262.5t-294.5 -90.5z" />
    <glyph glyph-name="D" unicode="D" 
d="M140 0v1432h378q182 0 311 -83t198 -239t69 -375v-38q0 -218 -69 -374.5t-198 -239.5t-311 -83h-378zM324 174h188q195 0 294.5 131t99.5 387v48q0 256 -99.5 387t-294.5 131h-188v-1084z" />
    <glyph glyph-name="E" unicode="E" 
d="M184 0v1432h810v-174h-624v-1084h640v-174h-826zM292 647v174h622v-174h-622z" />
    <glyph glyph-name="F" unicode="F" 
d="M184 0v1432h826v-174h-640v-1258h-186zM292 624v174h658v-174h-658z" />
    <glyph glyph-name="G" unicode="G" 
d="M646 -32q-175 0 -300.5 86.5t-192.5 248.5t-67 389v34q0 232 67 397t192.5 253t301.5 88q166 0 282 -79.5t174 -231.5l-168 -75q-39 106 -109.5 158t-174.5 52q-181 0 -279 -145t-98 -412v-44q0 -262 96.5 -402.5t276.5 -140.5q152 0 231.5 104.5t79.5 304.5v53h-331v173
h511v-209q0 -285 -129.5 -443.5t-362.5 -158.5z" />
    <glyph glyph-name="H" unicode="H" 
d="M854 0v1432h186v-1432h-186zM160 0v1432h186v-1432h-186zM265 646v174h672v-174h-672z" />
    <glyph glyph-name="I" unicode="I" 
d="M506 91v1250h188v-1250h-188zM178 0v176h844v-176h-844zM178 1257v175h844v-175h-844z" />
    <glyph glyph-name="J" unicode="J" 
d="M604 -32q-169 0 -288.5 92.5t-167.5 258.5l173 64q66 -239 279 -239q115 0 173.5 76.5t58.5 227.5v984h186v-988q0 -149 -49.5 -256t-142 -163.5t-222.5 -56.5z" />
    <glyph glyph-name="K" unicode="K" 
d="M922 0l-581 719v6l562 707h224l-601 -742v76l624 -766h-228zM160 0v1432h186v-1432h-186z" />
    <glyph glyph-name="L" unicode="L" 
d="M198 0v1432h186v-1256h682v-176h-868z" />
    <glyph glyph-name="M" unicode="M" 
d="M87 0v1432h180l245 -546l85 -221h6l85 221l245 546h180v-1432h-176v755l20 372h-6l-286 -668h-130l-286 668h-6l20 -372v-755h-176z" />
    <glyph glyph-name="N" unicode="N" 
d="M108 0v1432h190l622 -1092h5l-21 331v761h188v-1432h-164l-649 1138h-5l22 -332v-806h-188z" />
    <glyph glyph-name="O" unicode="O" 
d="M320.5 56.5q-117.5 88.5 -181 251.5t-63.5 389v38q0 226 63.5 389t181 251.5t279.5 88.5t279.5 -88.5t181 -251.5t63.5 -389v-38q0 -226 -63.5 -389t-181 -251.5t-279.5 -88.5t-279.5 88.5zM847.5 286q86.5 142 86.5 406v48q0 262 -87.5 405t-246.5 143t-246.5 -143
t-87.5 -405v-48q0 -264 87 -406t247.5 -142t247 142z" />
    <glyph glyph-name="P" unicode="P" 
d="M162 0v1432h452q134 0 234 -55t156 -154.5t56 -231.5v-28q0 -132 -56 -231t-156 -154.5t-234 -55.5h-347v172h342q125 0 194 70t69 195v38q0 125 -69 194t-194 69h-263v-1260h-184z" />
    <glyph glyph-name="Q" unicode="Q" 
d="M597 -16q-159 0 -276 87t-181 247t-64 379v38q0 226 63.5 389.5t181 251.5t279.5 88t279.5 -88t181 -251.5t63.5 -389.5v-38q0 -219 -63.5 -379t-181.5 -247t-282 -87zM1042 -378q-97 0 -172 45t-151 148q-45 62 -77.5 95t-62 46t-66.5 13q-67 0 -107.5 -56.5
t-57.5 -175.5l-191 32q26 170 119 260.5t235 90.5q95 0 169.5 -40t139.5 -123q71 -91 118 -123t110 -32q48 0 94 20l41 -172q-65 -28 -141 -28zM600 126q159 0 246.5 147t87.5 418v48q0 263 -87.5 406t-246.5 143t-246.5 -143t-87.5 -406v-48q0 -271 87.5 -418t246.5 -147z
" />
    <glyph glyph-name="R" unicode="R" 
d="M160 0v1432h442q139 0 241 -52t158.5 -147t56.5 -223v-20q0 -128 -56.5 -223t-159 -147t-240.5 -52h-338v166h334q128 0 200 66t72 182v30q0 116 -72 182t-200 66h-254v-1260h-184zM935 0l-395 643h204l402 -643h-211z" />
    <glyph glyph-name="S" unicode="S" 
d="M641 -32q-132 0 -241.5 46t-188.5 133t-121 209l173 63q47 -136 142.5 -206t232.5 -70q131 0 204.5 58t73.5 160v17q0 85 -57 142t-188 103l-197 69q-303 106 -303 374v7q0 117 56.5 205t158 137t234.5 49q179 0 300.5 -80t177.5 -236l-172 -65q-73 206 -305 206
q-119 0 -191.5 -56t-72.5 -150v-12q0 -73 47 -123.5t150 -86.5l197 -69q182 -64 266.5 -165t84.5 -253v-8q0 -120 -58 -209.5t-161.5 -139t-241.5 -49.5z" />
    <glyph glyph-name="T" unicode="T" 
d="M507 0v1350h186v-1350h-186zM108 1256v176h984v-176h-984z" />
    <glyph glyph-name="U" unicode="U" 
d="M360.5 28.5q-103.5 60.5 -161 168.5t-57.5 250v985h186v-974q0 -145 73 -229.5t199 -84.5q127 0 199.5 84.5t72.5 229.5v974h186v-985q0 -142 -57.5 -250t-160.5 -168.5t-239.5 -60.5t-240 60.5z" />
    <glyph glyph-name="V" unicode="V" 
d="M507 0l-447 1432h196l307 -1043l36 -174h6l37 174l304 1043h194l-447 -1432h-186z" />
    <glyph glyph-name="W" unicode="W" 
d="M224 0l-193 1432h182l123 -1129h6l53 291l134 556h142l134 -556l53 -291h6l121 1129h184l-192 -1432h-165l-170 680l-39 204h-6l-39 -204l-168 -680h-166z" />
    <glyph glyph-name="X" unicode="X" 
d="M940 0l-403 680l-26 11l-443 741h212l386 -648l26 -11l460 -773h-212zM48 0l471 775l22 19l385 638h206l-446 -733l-22 -19l-410 -680h-206z" />
    <glyph glyph-name="Y" unicode="Y" 
d="M518 524l-453 908h208l227 -468l100 -229h7l97 229l229 468h202l-452 -908h-165zM507 0v627h186v-627h-186z" />
    <glyph glyph-name="Z" unicode="Z" 
d="M144 0v160l681 1097h-655v175h870v-160l-680 -1097h696v-175h-912z" />
    <glyph glyph-name="bracketleft" unicode="[" 
d="M1022 1585v-154h-486v-1532h486v-154h-670v1840h670z" />
    <glyph glyph-name="backslash" unicode="\" 
d="M1090 -176h-188l-792 1636h188z" />
    <glyph glyph-name="bracketright" unicode="]" 
d="M178 -255v154h486v1532h-486v154h670v-1840h-670z" />
    <glyph glyph-name="asciicircum" unicode="^" 
d="M86 675l442 757h144l442 -757h-200l-312 548h-7l-309 -548h-200z" />
    <glyph glyph-name="underscore" unicode="_" 
d="M100 -202v170h1000v-170h-1000z" />
    <glyph glyph-name="grave" unicode="`" 
d="M621 882l-312 578h256l252 -578h-196z" />
    <glyph glyph-name="a" unicode="a" 
d="M525 -32q-107 0 -189 42.5t-128 118t-46 173.5v15q0 161 109.5 256.5t289.5 95.5q83 0 156 -19t129 -53v-140q-106 68 -253 68q-113 0 -180 -53.5t-67 -147.5v-10q0 -89 57.5 -139.5t154.5 -50.5q81 0 142 39.5t95.5 109.5t34.5 159v251q0 110 -57.5 173t-173.5 63
q-154 0 -270 -118l-113 120q147 158 384 158q194 0 300.5 -106t106.5 -285v-688h-169v152h-7q-46 -86 -123 -135t-183 -49z" />
    <glyph glyph-name="b" unicode="b" 
d="M653 -32q-109 0 -193.5 54t-132.5 150h-7v-172h-168v1460h182v-568h6q54 88 135.5 137.5t190.5 49.5q124 0 216 -67t143 -188t51 -283v-35q0 -161 -53 -282t-148 -188.5t-222 -67.5zM613 132q129 0 203 101t74 277v27q0 177 -73.5 277.5t-203.5 100.5t-208 -102.5
t-78 -276.5v-24q0 -173 78 -276.5t208 -103.5z" />
    <glyph glyph-name="c" unicode="c" 
d="M674 -31q-151 0 -265 68t-177 190t-63 284v26q0 162 61.5 283.5t172.5 189.5t257 68q145 0 244 -65t161 -187l-151 -86q-40 83 -102.5 126.5t-151.5 43.5q-142 0 -224.5 -98t-82.5 -268v-42q0 -166 87 -265t232 -99q89 0 156 41.5t117 129.5l146 -93q-46 -80 -109 -135.5
t-140.5 -83.5t-167.5 -28z" />
    <glyph glyph-name="d" unicode="d" 
d="M555 -31q-127 0 -224.5 67.5t-152 189t-54.5 281.5v35q0 162 53 282.5t148.5 187t221.5 66.5q106 0 184.5 -48.5t128.5 -135.5h6v566h182v-1460h-168v172h-7q-47 -95 -129 -149t-189 -54zM592 133q128 0 204.5 103t76.5 276v24q0 173 -76 275.5t-205 102.5
q-131 0 -206.5 -100t-75.5 -277v-26q0 -175 76 -276.5t206 -101.5z" />
    <glyph glyph-name="e" unicode="e" 
d="M630 -32q-151 0 -263.5 67.5t-174.5 189t-62 284.5v38q0 160 61.5 279.5t172.5 186t259 66.5q133 0 231.5 -57.5t153 -162t54.5 -244.5q0 -38 -2.5 -73.5t-7.5 -69.5h-809v145h639v4q0 137 -70.5 217.5t-190.5 80.5q-142 0 -226.5 -100.5t-84.5 -276.5v-28
q0 -176 87.5 -279t237.5 -103q181 0 274 163l146 -93q-67 -117 -173 -175.5t-252 -58.5z" />
    <glyph glyph-name="f" unicode="f" 
d="M396 0v1127q0 171 98.5 268t271.5 97q104 0 186 -28t162 -90l-97 -130q-59 47 -117 67.5t-129 20.5q-101 0 -150 -53t-49 -163v-142l4 -38v-936h-180zM136 852v156h928v-156h-928z" />
    <glyph glyph-name="g" unicode="g" 
d="M593 -572q-156 0 -269.5 43t-175.5 121.5t-62 186.5q0 110 63.5 191.5t178.5 120.5l44 -87q-59 -31 -91 -83.5t-32 -118.5q0 -106 86.5 -160t257.5 -54q165 0 262 62t97 168q0 154 -193 154h-490v58l201 322l111 -22l-79 -206h271q166 0 258.5 -80.5t92.5 -223.5
q0 -120 -65 -208t-184 -136t-282 -48zM601 287q-118 0 -213.5 51.5t-151 140.5t-55.5 199v10q0 114 54 202.5t149 138.5t217 50q119 0 214 -52t150.5 -140.5t55.5 -198.5v-10q0 -114 -54 -202t-149 -138.5t-217 -50.5zM601 435q109 0 178.5 66.5t69.5 169.5v16
q0 104 -69.5 170t-178.5 66t-178.5 -66t-69.5 -170v-16q0 -103 69.5 -169.5t178.5 -66.5zM833 960l-70 36q35 136 120 208t212 72v-200q-175 0 -262 -116z" />
    <glyph glyph-name="h" unicode="h" 
d="M185 0v1460h181v-555h7q124 174 334 174q158 0 248 -104t90 -287v-688h-181v660q0 258 -221 258q-125 0 -201 -85.5t-76 -226.5v-606h-181z" />
    <glyph glyph-name="i" unicode="i" 
d="M558 60v987h178v-987h-178zM203 0v148h874v-148h-874zM223 899v148h459v-148h-459zM621 1278q-63 0 -108 45t-45 108q0 65 45 107.5t108 42.5q65 0 108 -43t43 -108q0 -62 -43 -107t-108 -45z" />
    <glyph glyph-name="j" unicode="j" 
d="M444 -442q-178 0 -333 112l92 143q59 -43 117 -65t119 -22q101 0 153.5 61t52.5 178v1082h180v-1078q0 -190 -103.5 -300.5t-277.5 -110.5zM239 899v148h543v-148h-543zM710 1278q-63 0 -108 45t-45 108t44.5 106.5t108.5 43.5q65 0 108 -43t43 -108q0 -64 -43.5 -108
t-107.5 -44z" />
    <glyph glyph-name="k" unicode="k" 
d="M842 0l-493 561v6l470 480h233l-533 -536v112l559 -623h-236zM174 0v1460h182v-1460h-182z" />
    <glyph glyph-name="l" unicode="l" 
d="M782 -32q-166 0 -261.5 97.5t-95.5 268.5v1126h180v-1107q0 -215 188 -215q53 0 98.5 20.5t96.5 66.5l104 -137q-65 -61 -142 -90.5t-168 -29.5zM116 1302v158h404v-158h-404z" />
    <glyph glyph-name="m" unicode="m" 
d="M102 0v1047h166v-135h7q27 80 79.5 123.5t125.5 43.5q83 0 133 -60t57 -169l-15 10q27 105 89.5 162t145.5 57q214 0 214 -319v-760h-179v760q0 86 -25 122t-74 36q-58 0 -96 -53t-38 -153v-712h-179v759q0 86 -25 122.5t-73 36.5q-58 0 -96 -53t-38 -153v-712h-179z" />
    <glyph glyph-name="n" unicode="n" 
d="M185 0v1047h169v-160h7q60 93 147 142.5t199 49.5q162 0 250 -106t88 -285v-688h-181v660q0 127 -56 192.5t-165 65.5q-124 0 -200.5 -84t-76.5 -233v-601h-181z" />
    <glyph glyph-name="o" unicode="o" 
d="M345.5 36q-109.5 68 -170.5 190.5t-61 283.5v27q0 162 61 284t170.5 190t254.5 68t254.5 -68t170.5 -190t61 -284v-27q0 -161 -61 -283.5t-170.5 -190.5t-254.5 -68t-254.5 68zM820 237q80 101 80 276v21q0 176 -80 276.5t-219.5 100.5t-220 -100.5t-80.5 -276.5v-21
q0 -175 80.5 -276t220 -101t219.5 101z" />
    <glyph glyph-name="p" unicode="p" 
d="M653 1079q127 0 222 -67.5t148 -188.5t53 -282v-35q0 -161 -51 -282.5t-143 -188.5t-216 -67q-109 0 -190.5 49.5t-135.5 137.5h-6v-568h-182v1460h168v-172h7q48 96 132.5 150t193.5 54zM613 915q-130 0 -208 -103.5t-78 -276.5v-24q0 -174 78 -276.5t208 -102.5
t203.5 100.5t73.5 277.5v27q0 176 -74 277t-203 101z" />
    <glyph glyph-name="q" unicode="q" 
d="M555 1078q107 0 189 -54t129 -149h7v172h168v-1460h-182v566h-6q-50 -87 -128.5 -135.5t-184.5 -48.5q-126 0 -221.5 66.5t-148.5 187t-53 282.5v35q0 161 54.5 282t152 188.5t224.5 67.5zM592 914q-130 0 -206 -101t-76 -277v-26q0 -177 75.5 -277t206.5 -100
q129 0 205 102.5t76 275.5v24q0 173 -76.5 276t-204.5 103z" />
    <glyph glyph-name="r" unicode="r" 
d="M371 60v987h160v-217h9q48 119 135.5 184t199.5 65q81 0 142.5 -31.5t116.5 -100.5l-131 -146q-46 56 -94 80t-110 24q-118 0 -185 -95.5t-67 -263.5v-486h-176zM120 0v147h767v-147h-767zM140 900v147h316v-147h-316z" />
    <glyph glyph-name="s" unicode="s" 
d="M655 -32q-174 0 -298 72.5t-189 211.5l154 73q43 -93 129 -144t200 -51q93 0 147 37t54 101v10q0 59 -44 94.5t-151 63.5l-145 38q-132 35 -202.5 109t-70.5 186v2q0 142 103.5 225t280.5 83q150 0 250 -55t155 -168l-154 -73q-68 134 -256 134q-94 0 -146.5 -35
t-52.5 -98v-6q0 -53 39 -86t128 -56l145 -38q156 -41 228.5 -116.5t72.5 -199.5v-4q0 -139 -103.5 -224.5t-273.5 -85.5z" />
    <glyph glyph-name="t" unicode="t" 
d="M786 -32q-182 0 -283.5 101.5t-101.5 282.5v974h183v-960q0 -117 49.5 -172.5t152.5 -55.5q108 0 196 88l102 -136q-122 -122 -298 -122zM116 891v156h905v-156h-905z" />
    <glyph glyph-name="u" unicode="u" 
d="M515 -32q-157 0 -250 100.5t-93 277.5v701h181v-669q0 -121 56 -184.5t162 -63.5q113 0 186.5 85t73.5 224v608h181v-1047h-169v161h-7q-51 -88 -131.5 -140.5t-189.5 -52.5z" />
    <glyph glyph-name="v" unicode="v" 
d="M506 0l-396 1047h196l223 -615l71 -236h7l70 236l219 615h194l-396 -1047h-188z" />
    <glyph glyph-name="w" unicode="w" 
d="M257 0l-225 1047h171l129 -728l18 -118h5l19 118l138 609h179l140 -606l18 -121h6l17 121l128 725h168l-226 -1047h-182l-136 613l-21 128h-6l-21 -128l-136 -613h-183z" />
    <glyph glyph-name="x" unicode="x" 
d="M864 0l-328 492l-18 10l-370 545h204l303 -455l18 -10l395 -582h-204zM132 0l397 575l15 12l312 460h196l-377 -547l-19 -17l-328 -483h-196z" />
    <glyph glyph-name="y" unicode="y" 
d="M318 -442q-146 0 -255 91l92 141q79 -64 157 -64q63 0 102.5 31.5t65.5 103.5l94 259h27l92 312l219 615h193l-465 -1231q-52 -136 -128 -197t-194 -61zM561 -95l-437 1142h195l224 -615l73 -236h30z" />
    <glyph glyph-name="z" unicode="z" 
d="M185 0v150l600 732h-576v165h794v-150l-599 -732h611v-165h-830z" />
    <glyph glyph-name="braceleft" unicode="{" 
d="M830 1604q46 0 91.5 -3t92.5 -8v-147q-37 5 -73 7t-68 2q-131 0 -193 -27.5t-62 -86.5q0 -27 16.5 -59.5t50.5 -75.5l25 -31q51 -63 72.5 -112.5t21.5 -100.5q0 -85 -58 -138.5t-168 -70.5l-288 -44v-86l288 -44q110 -16 168 -70t58 -139q0 -51 -21.5 -100.5
t-72.5 -112.5l-25 -31q-34 -43 -50.5 -75.5t-16.5 -59.5q0 -58 62 -86t193 -28q32 0 68 2.5t73 6.5v-147q-47 -5 -92.5 -8t-91.5 -3q-201 0 -297.5 58.5t-96.5 180.5q0 49 17.5 93.5t55.5 94.5l53 69q34 44 48 74t14 58q0 77 -97 94l-397 69v294l397 69q97 17 97 94
q0 29 -14 59t-48 73l-53 69q-38 50 -55.5 94.5t-17.5 93.5q0 122 96.5 180.5t297.5 58.5z" />
    <glyph glyph-name="bar" unicode="|" 
d="M504 -346v2124h192v-2124h-192z" />
    <glyph glyph-name="braceright" unicode="}" 
d="M370 -274q-46 0 -91.5 3t-92.5 8v147q37 -4 73 -6.5t68 -2.5q131 0 193 28t62 86q0 27 -16 59.5t-51 75.5l-25 31q-51 63 -72.5 112.5t-21.5 100.5q0 85 58 139t168 70l288 44v86l-288 44q-110 17 -168 70.5t-58 138.5q0 51 21.5 100.5t72.5 112.5l25 31q35 43 51 75.5
t16 59.5q0 59 -62 86.5t-193 27.5q-32 0 -68 -2t-73 -7v147q47 5 92.5 8t91.5 3q201 0 297.5 -58.5t96.5 -180.5q0 -49 -17.5 -93.5t-55.5 -94.5l-53 -69q-34 -43 -48 -73t-14 -59q0 -77 97 -94l397 -69v-294l-397 -69q-97 -17 -97 -94q0 -28 14 -58t48 -74l53 -69
q38 -50 55.5 -94.5t17.5 -93.5q0 -122 -96.5 -180.5t-297.5 -58.5z" />
    <glyph glyph-name="asciitilde" unicode="~" 
d="M823 573q-76 0 -136 36t-145 130q-51 57 -83.5 78.5t-67.5 21.5q-105 0 -105 -140v-119h-174v120q0 143 72 225.5t195 82.5q77 0 136.5 -36t142.5 -129q51 -57 84 -79t68 -22q104 0 104 141v118h174v-119q0 -143 -71.5 -226t-193.5 -83z" />
    <glyph glyph-name="uni00A0" unicode="&#xa0;" 
 />
    <glyph glyph-name="exclamdown" unicode="&#xa1;" 
d="M503 712h194l28 -942h-250zM716.5 1243q47.5 -48 47.5 -116t-47.5 -116t-116.5 -48t-116.5 48t-47.5 116t47.5 116t116.5 48t116.5 -48z" />
    <glyph glyph-name="cent" unicode="&#xa2;" 
d="M644 0q-149 0 -261.5 68t-175 189t-62.5 280v36q0 159 62 280t172.5 188.5t255.5 67.5q146 0 250 -64.5t174 -196.5l-154 -80q-45 89 -110 131.5t-160 42.5q-142 0 -225 -95t-83 -266v-54q0 -171 85 -265.5t230 -94.5q90 0 158.5 42t120.5 130l145 -92
q-47 -80 -110.5 -135.5t-142 -83.5t-169.5 -28zM552 -226v290l5 37v464h134v-464l7 -37v-290h-146zM557 544v464l-5 37v290h146v-290l-7 -37v-464h-134z" />
    <glyph glyph-name="sterling" unicode="&#xa3;" 
d="M224 -13l-155 77q37 70 78.5 116.5t102.5 86.5q78 51 107 95t29 108q0 68 -19.5 137.5t-44.5 142t-44.5 149.5t-19.5 161q0 120 54 211t151 141.5t226 50.5q115 0 200.5 -31.5t173.5 -107.5l-107 -137q-65 54 -124.5 79t-136.5 25q-116 0 -182.5 -65t-66.5 -179
q0 -118 27.5 -218.5t55 -188t27.5 -167.5q0 -67 -28.5 -110t-90.5 -78v-12q62 -2 107 -17.5t82.5 -35t75.5 -34t84 -14.5q64 0 106 41.5t86 145.5l165 -64q-60 -147 -140 -221t-191 -74q-60 0 -111 17t-98 39t-96 39t-105 17q-112 0 -178 -125zM79 698v155h876v-155h-876z
" />
    <glyph glyph-name="currency" unicode="&#xa4;" 
d="M379.5 318.5q-99.5 57.5 -158.5 155t-59 215.5v28q0 119 59 216t158.5 154.5t221 57.5t220.5 -57.5t158 -154.5t59 -216v-28q0 -118 -59 -215.5t-158 -155t-220.5 -57.5t-221 57.5zM169 156l-116 116l238 238l115 -116zM600 414q79 0 139.5 36t95.5 98.5t35 142.5v24
q0 80 -35 143t-95.5 99t-139.5 36q-78 0 -139 -36t-96 -99t-35 -143v-24q0 -80 35 -142.5t96 -98.5t139 -36zM291 897l-238 238l116 115l238 -237zM1032 156l-238 238l115 115l238 -237zM910 897l-116 115l238 238l115 -115z" />
    <glyph glyph-name="yen" unicode="&#xa5;" 
d="M514 545l-449 887h208l225 -468l102 -239h7l99 239l227 468h202l-449 -887h-172zM509 0v627h182v-627h-182zM167 553v138h867v-138h-867zM167 264v138h867v-138h-867z" />
    <glyph glyph-name="brokenbar" unicode="&#xa6;" 
d="M504 928v850h192v-850h-192zM504 -346v850h192v-850h-192z" />
    <glyph glyph-name="section" unicode="&#xa7;" 
d="M813 232l-88 89q82 31 128.5 90t46.5 133q0 70 -36 111.5t-123 72.5l-244 86q-116 41 -180.5 126t-64.5 196q0 97 47.5 170.5t132 115t196.5 41.5q280 0 400 -230l-147 -90q-80 152 -256 152q-91 0 -144 -41t-53 -115q0 -58 32.5 -96t105.5 -64l229 -81
q140 -49 207.5 -134t67.5 -211q0 -109 -67.5 -193t-189.5 -128zM590 -213q-292 0 -418 232l147 89q85 -153 267 -153q88 0 137 40t49 112q0 58 -31.5 93.5t-106.5 62.5l-229 82q-275 98 -275 343q0 110 67.5 194.5t189.5 127.5l80 -98q-78 -28 -122.5 -84.5t-44.5 -128.5
q0 -70 36.5 -112.5t121.5 -72.5l244 -86q117 -41 181.5 -124.5t64.5 -195.5q0 -95 -45 -167.5t-125.5 -113t-187.5 -40.5z" />
    <glyph glyph-name="dieresis" unicode="&#xa8;" 
d="M381 1278q-61 0 -103.5 42.5t-42.5 103.5t43 103.5t103 42.5q62 0 105 -42t43 -103.5t-42.5 -104t-105.5 -42.5zM817 1278q-61 0 -103.5 42.5t-42.5 103.5t43 103.5t103 42.5q62 0 105 -42t43 -103.5t-42.5 -104t-105.5 -42.5z" />
    <glyph glyph-name="copyright" unicode="&#xa9;" 
d="M287 52q-133 84 -206 238t-73 362v128q0 209 73 362.5t206 237.5t313.5 84t313 -84t205.5 -237.5t73 -362.5v-128q0 -208 -73 -362t-205.5 -238t-313 -84t-313.5 84zM961.5 215.5q130.5 157.5 130.5 435.5v130q0 278 -130.5 435.5t-361.5 157.5t-361.5 -157.5
t-130.5 -435.5v-130q0 -278 130.5 -435.5t361.5 -157.5t361.5 157.5zM622 299q-156 0 -248.5 108.5t-92.5 289.5v47q0 182 92.5 289.5t248.5 107.5q129 0 208 -76t93 -216l-135 -13q-17 173 -168 173q-96 0 -150 -68.5t-54 -191.5v-58q0 -123 54 -191.5t150 -68.5
q151 0 168 173l135 -13q-14 -138 -93 -215t-208 -77z" />
    <glyph glyph-name="ordfeminine" unicode="&#xaa;" 
d="M446 610q-124 0 -203 71.5t-79 184.5v14q0 119 87.5 192t229.5 73t248 -68v-106q-48 29 -95 41.5t-111 12.5q-91 0 -139 -35t-48 -105v-14q0 -133 160 -133q100 0 157.5 61.5t57.5 161.5v184q0 93 -44 135t-142 42q-68 0 -132 -18t-126 -54l-62 129q152 85 333 85
q166 0 251.5 -79t85.5 -233v-538h-156v153h-14q-44 -76 -109.5 -116.5t-149.5 -40.5z" />
    <glyph glyph-name="guillemotleft" unicode="&#xab;" 
d="M999 24l-465 508l465 509l111 -101l-354 -408l354 -408zM525 24l-465 508l465 509l111 -100l-354 -409l354 -409z" />
    <glyph glyph-name="logicalnot" unicode="&#xac;" 
d="M860 149v453l70 -62h-776v180h892v-571h-186z" />
    <glyph glyph-name="registered" unicode="&#xae;" 
d="M287 54q-133 84 -206 238t-73 362v125q0 209 73 362.5t206 237.5t313.5 84t313 -84t205.5 -237.5t73 -362.5v-125q0 -208 -73 -362t-205.5 -238t-313 -84t-313.5 84zM761 302l-198 370h152l205 -363v-7h-159zM961.5 217.5q130.5 157.5 130.5 435.5v127
q0 278 -130.5 435.5t-361.5 157.5t-361.5 -157.5t-130.5 -435.5v-127q0 -278 130.5 -435.5t361.5 -157.5t361.5 157.5zM338 302v836h269q131 0 207.5 -68.5t76.5 -187.5v-11q0 -115 -78 -185t-207 -70h-185v120h183q72 0 112 34.5t40 94.5v16q0 60 -40 94t-112 34h-132v-707
h-134z" />
    <glyph glyph-name="macron" unicode="&#xaf;" 
d="M283 1341v164h634v-164h-634z" />
    <glyph glyph-name="degree" unicode="&#xb0;" 
d="M387.5 837q-77.5 44 -122.5 120t-45 171q0 96 45 171.5t122.5 119.5t175 44t174.5 -44t122 -119.5t45 -171.5q0 -95 -45 -171t-122 -120t-174.5 -44t-175 44zM688.5 998q49.5 51 49.5 130q0 80 -49.5 130.5t-126.5 50.5t-126.5 -50.5t-49.5 -130.5q0 -79 49.5 -130
t126.5 -51t126.5 51z" />
    <glyph glyph-name="plusminus" unicode="&#xb1;" 
d="M150 0v176h900v-176h-900zM141 625v166h918v-166h-918zM512 282v852h176v-852h-176z" />
    <glyph glyph-name="uni00B2" unicode="&#xb2;" 
d="M242 697v143l352 362q63 65 88 110.5t25 97.5v6q0 60 -33.5 94t-92.5 34q-60 0 -105 -37.5t-77 -114.5l-164 66q50 122 141.5 187t212.5 65q133 0 216.5 -79t83.5 -205v-7q0 -79 -36.5 -147.5t-129.5 -163.5l-235 -241v-6h422v-164h-668z" />
    <glyph glyph-name="uni00B3" unicode="&#xb3;" 
d="M602 691q-147 0 -247 68t-141 195l169 60q50 -157 210 -157q73 0 115 35.5t42 94.5v9q0 140 -173 140h-123v148h108q77 0 120.5 33t43.5 94v9q0 58 -37 91t-101 33q-134 0 -178 -126l-170 57q41 112 134.5 173.5t223.5 61.5q139 0 224.5 -73.5t85.5 -192.5v-6
q0 -80 -44.5 -135t-127.5 -80v-11q95 -21 145.5 -84t50.5 -156v-6q0 -121 -92 -198t-238 -77z" />
    <glyph glyph-name="acute" unicode="&#xb4;" 
d="M400 1253v11l177 349h222v-11l-227 -349h-172z" />
    <glyph glyph-name="uni00B5" unicode="&#xb5;" 
d="M152 -412v1459h180v-747q0 -79 45.5 -124.5t124.5 -45.5q122 0 196.5 94.5t74.5 253.5v569h180v-817q0 -99 86 -99q36 0 75 21l51 -131q-39 -26 -78.5 -39t-85.5 -13q-93 0 -148 57t-60 155h-9q-95 -212 -296 -212q-96 0 -165.5 48t-101.5 138l101 -34l17 -533h-187z" />
    <glyph glyph-name="paragraph" unicode="&#xb6;" 
d="M598 -413v1122l109 -96h-176q-214 0 -333.5 107.5t-119.5 297.5v10q0 189 119.5 296.5t333.5 107.5h228v-1845h-161zM911 -413v1845h161v-1845h-161z" />
    <glyph glyph-name="periodcentered" unicode="&#xb7;" 
d="M599 627q-69 0 -116.5 47t-47.5 117q0 68 48 115t116 47q71 0 118 -47t47 -115q0 -70 -47 -117t-118 -47z" />
    <glyph glyph-name="cedilla" unicode="&#xb8;" 
d="M598 -615q-82 0 -155 36.5t-123 101.5l110 91q73 -91 168 -91q59 0 95.5 31t36.5 83q0 54 -32.5 86.5t-86.5 32.5q-64 0 -105 -37l-95 81l133 214h124l-142 -223l-72 11q35 37 83.5 57t100.5 20q109 0 175.5 -67t66.5 -177q0 -112 -77.5 -181t-204.5 -69z" />
    <glyph glyph-name="uni00B9" unicode="&#xb9;" 
d="M532 780v710l-237 -106l-71 155l380 166h108v-925h-180zM265 697v170h687v-170h-687z" />
    <glyph glyph-name="ordmasculine" unicode="&#xba;" 
d="M323 668.5q-89 52.5 -140 145t-51 211.5v31q0 119 51 211t140 144.5t203.5 52.5t203 -52.5t139.5 -144.5t51 -211v-31q0 -119 -51 -211.5t-139.5 -145t-203 -52.5t-203.5 52.5zM684.5 845q57.5 67 57.5 182v26q0 115 -57.5 182t-158.5 67t-158.5 -67t-57.5 -182v-26
q0 -115 57.5 -182t158.5 -67t158.5 67z" />
    <glyph glyph-name="guillemotright" unicode="&#xbb;" 
d="M201 24l-111 100l354 408l-354 408l111 101l465 -509zM675 24l-111 99l354 409l-354 409l111 100l465 -509z" />
    <glyph glyph-name="onequarter" unicode="&#xbc;" 
d="M900 -31v202l11 20v354l28 -34h-38l-203 -267v-10h257l24 10h164v-130h-599v127l340 445h153v-717h-137zM286 750v522l-203 -92l-59 139l324 141h95v-710h-157zM75 -31l945 1491h143l-944 -1491h-144z" />
    <glyph glyph-name="onehalf" unicode="&#xbd;" 
d="M23 -31l944 1491h144l-944 -1491h-144zM604 -31v146l257 191q73 54 97.5 85.5t24.5 67.5v3q0 37 -23 59.5t-70 22.5q-119 0 -134 -131l-156 20q14 117 95.5 186.5t202.5 69.5q114 0 177.5 -64.5t63.5 -155.5v-4q0 -70 -36.5 -124.5t-129.5 -119.5l-143 -100v-9h324v-143
h-550zM270 750v522l-203 -92l-59 139l324 141h95v-710h-157z" />
    <glyph glyph-name="threequarters" unicode="&#xbe;" 
d="M901 -31v202l11 20v354l28 -34h-38l-203 -267v-10h257l24 10h163v-130h-598v127l339 445h154v-717h-137zM305 729q-106 0 -178.5 49.5t-95.5 138.5l140 40q12 -48 44.5 -72.5t84.5 -24.5q47 0 76 24t29 64v6q0 45 -30 68t-90 23h-96v111h91q51 0 80 23t29 63v6
q0 38 -24 59.5t-68 21.5q-91 0 -112 -74l-140 38q23 78 91.5 122.5t168.5 44.5q103 0 165.5 -53.5t62.5 -140.5v-4q0 -114 -118 -152v-7q134 -35 134 -169v-4q0 -87 -68.5 -144t-175.5 -57zM80 -31l963 1491h145l-963 -1491h-145z" />
    <glyph glyph-name="questiondown" unicode="&#xbf;" 
d="M714 764v-256l-211 -129q-88 -54 -130 -112t-42 -124v-14q0 -87 60.5 -136t166.5 -49q123 0 209 62.5t126 180.5l178 -62q-57 -169 -192.5 -262.5t-322.5 -93.5q-127 0 -219.5 47t-143 130t-50.5 190v3q0 115 55.5 201t183.5 164l145 88v172h187zM620 1263
q70 0 117.5 -47t47.5 -116t-47.5 -115t-117.5 -46t-117 46.5t-47 114.5q0 69 47.5 116t116.5 47z" />
    <glyph glyph-name="Agrave" unicode="&#xc0;" 
d="M58 0l445 1432h197l443 -1432h-196l-305 1063l-40 155h-6l-41 -155l-303 -1063h-194zM254 369l52 167h586l53 -167h-691zM516 1638l-226 349v11h222l176 -349v-11h-172z" />
    <glyph glyph-name="Aacute" unicode="&#xc1;" 
d="M58 0l445 1432h197l443 -1432h-196l-305 1063l-40 155h-6l-41 -155l-303 -1063h-194zM254 369l52 167h586l53 -167h-691zM516 1638v11l177 349h222v-11l-227 -349h-172z" />
    <glyph glyph-name="Acircumflex" unicode="&#xc2;" 
d="M58 0l445 1432h197l443 -1432h-196l-305 1063l-40 155h-6l-41 -155l-303 -1063h-194zM254 369l52 167h586l53 -167h-691zM233 1638v11l272 349h194l272 -349v-11h-196l-194 280h43l-195 -280h-196z" />
    <glyph glyph-name="Atilde" unicode="&#xc3;" 
d="M58 0l445 1432h197l443 -1432h-196l-305 1063l-40 155h-6l-41 -155l-303 -1063h-194zM254 369l52 167h586l53 -167h-691zM770 1648q-55 0 -99.5 26t-101.5 94q-40 48 -63 64t-49 16q-65 0 -65 -102v-94h-151v96q0 118 53 185t146 67q54 0 96.5 -25.5t100.5 -96.5
q38 -46 61.5 -62t49.5 -16q64 0 64 102v94h152v-96q0 -119 -51 -185.5t-143 -66.5z" />
    <glyph glyph-name="Adieresis" unicode="&#xc4;" 
d="M58 0l445 1432h197l443 -1432h-196l-305 1063l-40 155h-6l-41 -155l-303 -1063h-194zM254 369l52 167h586l53 -167h-691zM384 1663q-61 0 -103.5 42.5t-42.5 103.5t43 103.5t103 42.5q62 0 105 -42t43 -103.5t-42.5 -104t-105.5 -42.5zM820 1663q-61 0 -103.5 42.5
t-42.5 103.5t43 103.5t103 42.5q62 0 105 -42t43 -103.5t-42.5 -104t-105.5 -42.5z" />
    <glyph glyph-name="Aring" unicode="&#xc5;" 
d="M58 0l445 1432h197l443 -1432h-196l-305 1063l-40 155h-6l-41 -155l-303 -1063h-194zM254 369l52 167h586l53 -167h-691zM457 1581q-64 36 -101.5 98.5t-37.5 140.5q0 79 37.5 141t101.5 98t145 36t145 -36t101.5 -98t37.5 -141q0 -78 -37.5 -140.5t-101.5 -98.5
t-145 -36t-145 36zM699.5 1722q38.5 39 38.5 98t-38.5 98t-97.5 39t-97.5 -39t-38.5 -98t38.5 -98t97.5 -39t97.5 39z" />
    <glyph glyph-name="AE" unicode="&#xc6;" 
d="M9 0l464 1432h274l-55 -180h-119l-60 -229l-317 -1023h-187zM238 367l36 166h395v-166h-431zM616 0v1432h552v-171h-385v-1090h401v-171h-568zM709 649v170h395v-170h-395z" />
    <glyph glyph-name="Ccedilla" unicode="&#xc7;" 
d="M653 -32q-169 0 -293.5 89t-192 252.5t-67.5 387.5v38q0 227 66 390.5t188.5 251t292.5 87.5q166 0 283.5 -90t173.5 -262l-172 -66q-43 127 -112 184.5t-177 57.5q-169 0 -261 -142t-92 -406v-48q0 -262 95.5 -405t270.5 -143q217 0 294 241l173 -64
q-55 -172 -175.5 -262.5t-294.5 -90.5zM657 -615q-82 0 -155 36.5t-123 101.5l110 91q73 -91 168 -91q59 0 95.5 31t36.5 83q0 54 -32.5 86.5t-86.5 32.5q-64 0 -105 -37l-95 81l133 214h124l-142 -223l-72 11q35 37 83.5 57t100.5 20q109 0 175.5 -67t66.5 -177
q0 -112 -77.5 -181t-204.5 -69z" />
    <glyph glyph-name="Egrave" unicode="&#xc8;" 
d="M184 0v1432h810v-174h-624v-1084h640v-174h-826zM292 647v174h622v-174h-622zM503 1638l-226 349v11h222l176 -349v-11h-172z" />
    <glyph glyph-name="Eacute" unicode="&#xc9;" 
d="M184 0v1432h810v-174h-624v-1084h640v-174h-826zM292 647v174h622v-174h-622zM503 1638v11l177 349h222v-11l-227 -349h-172z" />
    <glyph glyph-name="Ecircumflex" unicode="&#xca;" 
d="M184 0v1432h810v-174h-624v-1084h640v-174h-826zM292 647v174h622v-174h-622zM220 1638v11l272 349h194l272 -349v-11h-196l-194 280h43l-195 -280h-196z" />
    <glyph glyph-name="Edieresis" unicode="&#xcb;" 
d="M184 0v1432h810v-174h-624v-1084h640v-174h-826zM292 647v174h622v-174h-622zM371 1663q-61 0 -103.5 42.5t-42.5 103.5t43 103.5t103 42.5q62 0 105 -42t43 -103.5t-42.5 -104t-105.5 -42.5zM807 1663q-61 0 -103.5 42.5t-42.5 103.5t43 103.5t103 42.5q62 0 105 -42
t43 -103.5t-42.5 -104t-105.5 -42.5z" />
    <glyph glyph-name="Igrave" unicode="&#xcc;" 
d="M506 91v1250h188v-1250h-188zM178 0v176h844v-176h-844zM178 1257v175h844v-175h-844zM514 1638l-226 349v11h222l176 -349v-11h-172z" />
    <glyph glyph-name="Iacute" unicode="&#xcd;" 
d="M506 91v1250h188v-1250h-188zM178 0v176h844v-176h-844zM178 1257v175h844v-175h-844zM514 1638v11l177 349h222v-11l-227 -349h-172z" />
    <glyph glyph-name="Icircumflex" unicode="&#xce;" 
d="M506 91v1250h188v-1250h-188zM178 0v176h844v-176h-844zM178 1257v175h844v-175h-844zM231 1638v11l272 349h194l272 -349v-11h-196l-194 280h43l-195 -280h-196z" />
    <glyph glyph-name="Idieresis" unicode="&#xcf;" 
d="M506 91v1250h188v-1250h-188zM178 0v176h844v-176h-844zM178 1257v175h844v-175h-844zM382 1663q-61 0 -103.5 42.5t-42.5 103.5t43 103.5t103 42.5q62 0 105 -42t43 -103.5t-42.5 -104t-105.5 -42.5zM818 1663q-61 0 -103.5 42.5t-42.5 103.5t43 103.5t103 42.5
q62 0 105 -42t43 -103.5t-42.5 -104t-105.5 -42.5z" />
    <glyph glyph-name="Eth" unicode="&#xd0;" 
d="M194 0v1432h351q183 0 312 -83t197.5 -238.5t68.5 -375.5v-38q0 -220 -68.5 -375.5t-197.5 -238.5t-312 -83h-351zM23 651v170h672v-170h-672zM368 172h172q200 0 300.5 131.5t100.5 388.5v48q0 258 -100.5 389t-300.5 131h-172v-1088z" />
    <glyph glyph-name="Ntilde" unicode="&#xd1;" 
d="M108 0v1432h190l622 -1092h5l-21 331v761h188v-1432h-164l-649 1138h-5l22 -332v-806h-188zM769 1648q-55 0 -99.5 26t-101.5 94q-40 48 -63 64t-49 16q-65 0 -65 -102v-94h-151v96q0 118 53 185t146 67q54 0 96.5 -25.5t100.5 -96.5q38 -46 61.5 -62t49.5 -16
q64 0 64 102v94h152v-96q0 -119 -51 -185.5t-143 -66.5z" />
    <glyph glyph-name="Ograve" unicode="&#xd2;" 
d="M320.5 56.5q-117.5 88.5 -181 251.5t-63.5 389v38q0 226 63.5 389t181 251.5t279.5 88.5t279.5 -88.5t181 -251.5t63.5 -389v-38q0 -226 -63.5 -389t-181 -251.5t-279.5 -88.5t-279.5 88.5zM847.5 286q86.5 142 86.5 406v48q0 262 -87.5 405t-246.5 143t-246.5 -143
t-87.5 -405v-48q0 -264 87 -406t247.5 -142t247 142zM514 1638l-226 349v11h222l176 -349v-11h-172z" />
    <glyph glyph-name="Oacute" unicode="&#xd3;" 
d="M320.5 56.5q-117.5 88.5 -181 251.5t-63.5 389v38q0 226 63.5 389t181 251.5t279.5 88.5t279.5 -88.5t181 -251.5t63.5 -389v-38q0 -226 -63.5 -389t-181 -251.5t-279.5 -88.5t-279.5 88.5zM847.5 286q86.5 142 86.5 406v48q0 262 -87.5 405t-246.5 143t-246.5 -143
t-87.5 -405v-48q0 -264 87 -406t247.5 -142t247 142zM514 1638v11l177 349h222v-11l-227 -349h-172z" />
    <glyph glyph-name="Ocircumflex" unicode="&#xd4;" 
d="M320.5 56.5q-117.5 88.5 -181 251.5t-63.5 389v38q0 226 63.5 389t181 251.5t279.5 88.5t279.5 -88.5t181 -251.5t63.5 -389v-38q0 -226 -63.5 -389t-181 -251.5t-279.5 -88.5t-279.5 88.5zM847.5 286q86.5 142 86.5 406v48q0 262 -87.5 405t-246.5 143t-246.5 -143
t-87.5 -405v-48q0 -264 87 -406t247.5 -142t247 142zM231 1638v11l272 349h194l272 -349v-11h-196l-194 280h43l-195 -280h-196z" />
    <glyph glyph-name="Otilde" unicode="&#xd5;" 
d="M320.5 56.5q-117.5 88.5 -181 251.5t-63.5 389v38q0 226 63.5 389t181 251.5t279.5 88.5t279.5 -88.5t181 -251.5t63.5 -389v-38q0 -226 -63.5 -389t-181 -251.5t-279.5 -88.5t-279.5 88.5zM847.5 286q86.5 142 86.5 406v48q0 262 -87.5 405t-246.5 143t-246.5 -143
t-87.5 -405v-48q0 -264 87 -406t247.5 -142t247 142zM768 1648q-55 0 -99.5 26t-101.5 94q-40 48 -63 64t-49 16q-65 0 -65 -102v-94h-151v96q0 118 53 185t146 67q54 0 96.5 -25.5t100.5 -96.5q38 -46 61.5 -62t49.5 -16q64 0 64 102v94h152v-96q0 -119 -51 -185.5
t-143 -66.5z" />
    <glyph glyph-name="Odieresis" unicode="&#xd6;" 
d="M320.5 56.5q-117.5 88.5 -181 251.5t-63.5 389v38q0 226 63.5 389t181 251.5t279.5 88.5t279.5 -88.5t181 -251.5t63.5 -389v-38q0 -226 -63.5 -389t-181 -251.5t-279.5 -88.5t-279.5 88.5zM847.5 286q86.5 142 86.5 406v48q0 262 -87.5 405t-246.5 143t-246.5 -143
t-87.5 -405v-48q0 -264 87 -406t247.5 -142t247 142zM382 1663q-61 0 -103.5 42.5t-42.5 103.5t43 103.5t103 42.5q62 0 105 -42t43 -103.5t-42.5 -104t-105.5 -42.5zM818 1663q-61 0 -103.5 42.5t-42.5 103.5t43 103.5t103 42.5q62 0 105 -42t43 -103.5t-42.5 -104
t-105.5 -42.5z" />
    <glyph glyph-name="multiply" unicode="&#xd7;" 
d="M285 188l-121 120l752 759l120 -120zM916 188l-752 759l121 120l751 -759z" />
    <glyph glyph-name="Oslash" unicode="&#xd8;" 
d="M185 -180l-131 73l961 1719l131 -73zM602 -32q-157 0 -275.5 91t-185 254.5t-66.5 383.5v38q0 226 63.5 389.5t181 251.5t278.5 88q157 0 275.5 -90.5t185 -254.5t66.5 -384v-38q0 -226 -63 -389t-180.5 -251.5t-279.5 -88.5zM596 134q170 0 260.5 143.5t90.5 412.5v56
q0 275 -84 413.5t-259 138.5q-169 0 -260 -144t-91 -412v-56q0 -277 84 -414.5t259 -137.5z" />
    <glyph glyph-name="Ugrave" unicode="&#xd9;" 
d="M360.5 28.5q-103.5 60.5 -161 168.5t-57.5 250v985h186v-974q0 -145 73 -229.5t199 -84.5q127 0 199.5 84.5t72.5 229.5v974h186v-985q0 -142 -57.5 -250t-160.5 -168.5t-239.5 -60.5t-240 60.5zM514 1638l-226 349v11h222l176 -349v-11h-172z" />
    <glyph glyph-name="Uacute" unicode="&#xda;" 
d="M360.5 28.5q-103.5 60.5 -161 168.5t-57.5 250v985h186v-974q0 -145 73 -229.5t199 -84.5q127 0 199.5 84.5t72.5 229.5v974h186v-985q0 -142 -57.5 -250t-160.5 -168.5t-239.5 -60.5t-240 60.5zM514 1638v11l177 349h222v-11l-227 -349h-172z" />
    <glyph glyph-name="Ucircumflex" unicode="&#xdb;" 
d="M360.5 28.5q-103.5 60.5 -161 168.5t-57.5 250v985h186v-974q0 -145 73 -229.5t199 -84.5q127 0 199.5 84.5t72.5 229.5v974h186v-985q0 -142 -57.5 -250t-160.5 -168.5t-239.5 -60.5t-240 60.5zM231 1638v11l272 349h194l272 -349v-11h-196l-194 280h43l-195 -280h-196z
" />
    <glyph glyph-name="Udieresis" unicode="&#xdc;" 
d="M360.5 28.5q-103.5 60.5 -161 168.5t-57.5 250v985h186v-974q0 -145 73 -229.5t199 -84.5q127 0 199.5 84.5t72.5 229.5v974h186v-985q0 -142 -57.5 -250t-160.5 -168.5t-239.5 -60.5t-240 60.5zM382 1663q-61 0 -103.5 42.5t-42.5 103.5t43 103.5t103 42.5q62 0 105 -42
t43 -103.5t-42.5 -104t-105.5 -42.5zM818 1663q-61 0 -103.5 42.5t-42.5 103.5t43 103.5t103 42.5q62 0 105 -42t43 -103.5t-42.5 -104t-105.5 -42.5z" />
    <glyph glyph-name="Yacute" unicode="&#xdd;" 
d="M518 524l-453 908h208l227 -468l100 -229h7l97 229l229 468h202l-452 -908h-165zM507 0v627h186v-627h-186zM517 1638v11l177 349h222v-11l-227 -349h-172z" />
    <glyph glyph-name="Thorn" unicode="&#xde;" 
d="M268 325v170h331q133 0 204.5 66.5t71.5 188.5v18q0 122 -71.5 188.5t-204.5 66.5h-331v170h335q139 0 241.5 -53.5t159.5 -150t57 -227.5v-7q0 -130 -56.5 -226.5t-159.5 -150t-242 -53.5h-335zM161 0v1432h184v-1432h-184z" />
    <glyph glyph-name="germandbls" unicode="&#xdf;" 
d="M789 -32q-110 0 -196.5 47.5t-140.5 137.5l139 94q35 -57 86 -87t113 -30q77 0 122.5 44t45.5 117v10q0 71 -38 119t-130 94l-80 40q-73 37 -109.5 91.5t-36.5 126.5v2q0 79 30.5 131.5t71 92.5t71 80.5t30.5 96.5v2q0 71 -48 112t-132 41q-118 0 -180.5 -73t-62.5 -211
v-1046h-180v1052q0 204 114 322t312 118q161 0 260 -83.5t99 -220.5v-7q0 -75 -30.5 -129t-71 -96t-71 -79.5t-30.5 -81.5v-7q0 -36 23 -62t79 -54l80 -40q108 -54 160 -136t52 -197v-3q0 -149 -95.5 -238.5t-255.5 -89.5z" />
    <glyph glyph-name="agrave" unicode="&#xe0;" 
d="M525 -32q-107 0 -189 42.5t-128 118t-46 173.5v15q0 161 109.5 256.5t289.5 95.5q83 0 156 -19t129 -53v-140q-106 68 -253 68q-113 0 -180 -53.5t-67 -147.5v-10q0 -89 57.5 -139.5t154.5 -50.5q81 0 142 39.5t95.5 109.5t34.5 159v251q0 110 -57.5 173t-173.5 63
q-154 0 -270 -118l-113 120q147 158 384 158q194 0 300.5 -106t106.5 -285v-688h-169v152h-7q-46 -86 -123 -135t-183 -49zM555 1253l-226 349v11h222l176 -349v-11h-172z" />
    <glyph glyph-name="aacute" unicode="&#xe1;" 
d="M525 -32q-107 0 -189 42.5t-128 118t-46 173.5v15q0 161 109.5 256.5t289.5 95.5q83 0 156 -19t129 -53v-140q-106 68 -253 68q-113 0 -180 -53.5t-67 -147.5v-10q0 -89 57.5 -139.5t154.5 -50.5q81 0 142 39.5t95.5 109.5t34.5 159v251q0 110 -57.5 173t-173.5 63
q-154 0 -270 -118l-113 120q147 158 384 158q194 0 300.5 -106t106.5 -285v-688h-169v152h-7q-46 -86 -123 -135t-183 -49zM491 1253v11l177 349h222v-11l-227 -349h-172z" />
    <glyph glyph-name="acircumflex" unicode="&#xe2;" 
d="M525 -32q-107 0 -189 42.5t-128 118t-46 173.5v15q0 161 109.5 256.5t289.5 95.5q83 0 156 -19t129 -53v-140q-106 68 -253 68q-113 0 -180 -53.5t-67 -147.5v-10q0 -89 57.5 -139.5t154.5 -50.5q81 0 142 39.5t95.5 109.5t34.5 159v251q0 110 -57.5 173t-173.5 63
q-154 0 -270 -118l-113 120q147 158 384 158q194 0 300.5 -106t106.5 -285v-688h-169v152h-7q-46 -86 -123 -135t-183 -49zM231 1253v11l272 349h194l272 -349v-11h-196l-194 280h43l-195 -280h-196z" />
    <glyph glyph-name="atilde" unicode="&#xe3;" 
d="M525 -32q-107 0 -189 42.5t-128 118t-46 173.5v15q0 161 109.5 256.5t289.5 95.5q83 0 156 -19t129 -53v-140q-106 68 -253 68q-113 0 -180 -53.5t-67 -147.5v-10q0 -89 57.5 -139.5t154.5 -50.5q81 0 142 39.5t95.5 109.5t34.5 159v251q0 110 -57.5 173t-173.5 63
q-154 0 -270 -118l-113 120q147 158 384 158q194 0 300.5 -106t106.5 -285v-688h-169v152h-7q-46 -86 -123 -135t-183 -49zM768 1263q-55 0 -99.5 26t-101.5 94q-40 48 -63 64t-49 16q-65 0 -65 -102v-94h-151v96q0 118 53 185t146 67q54 0 96.5 -25.5t100.5 -96.5
q38 -46 61.5 -62t49.5 -16q64 0 64 102v94h152v-96q0 -119 -51 -185.5t-143 -66.5z" />
    <glyph glyph-name="adieresis" unicode="&#xe4;" 
d="M525 -32q-107 0 -189 42.5t-128 118t-46 173.5v15q0 161 109.5 256.5t289.5 95.5q83 0 156 -19t129 -53v-140q-106 68 -253 68q-113 0 -180 -53.5t-67 -147.5v-10q0 -89 57.5 -139.5t154.5 -50.5q81 0 142 39.5t95.5 109.5t34.5 159v251q0 110 -57.5 173t-173.5 63
q-154 0 -270 -118l-113 120q147 158 384 158q194 0 300.5 -106t106.5 -285v-688h-169v152h-7q-46 -86 -123 -135t-183 -49zM382 1278q-61 0 -103.5 42.5t-42.5 103.5t43 103.5t103 42.5q62 0 105 -42t43 -103.5t-42.5 -104t-105.5 -42.5zM818 1278q-61 0 -103.5 42.5
t-42.5 103.5t43 103.5t103 42.5q62 0 105 -42t43 -103.5t-42.5 -104t-105.5 -42.5z" />
    <glyph glyph-name="aring" unicode="&#xe5;" 
d="M525 -32q-107 0 -189 42.5t-128 118t-46 173.5v15q0 161 109.5 256.5t289.5 95.5q83 0 156 -19t129 -53v-140q-106 68 -253 68q-113 0 -180 -53.5t-67 -147.5v-10q0 -89 57.5 -139.5t154.5 -50.5q81 0 142 39.5t95.5 109.5t34.5 159v251q0 110 -57.5 173t-173.5 63
q-154 0 -270 -118l-113 120q147 158 384 158q194 0 300.5 -106t106.5 -285v-688h-169v152h-7q-46 -86 -123 -135t-183 -49zM455 1196q-64 36 -101.5 98.5t-37.5 140.5q0 79 37.5 141t101.5 98t145 36t145 -36t101.5 -98t37.5 -141q0 -78 -37.5 -140.5t-101.5 -98.5t-145 -36
t-145 36zM697.5 1337q38.5 39 38.5 98t-38.5 98t-97.5 39t-97.5 -39t-38.5 -98t38.5 -98t97.5 -39t97.5 39z" />
    <glyph glyph-name="ae" unicode="&#xe6;" 
d="M329 -32q-90 0 -159 44t-108 122t-39 180v9q0 156 87.5 251t229.5 95q101 0 182 -48v-140q-66 43 -147 43q-83 0 -129.5 -51t-46.5 -143v-17q0 -87 39.5 -138.5t106.5 -51.5q79 0 120 74.5t41 216.5v284q0 115 -35.5 169t-110.5 54q-98 0 -177 -103l-120 103
q120 158 297 158q122 0 196 -75t92 -218h-80q30 134 112 213.5t190 79.5q144 0 223 -121.5t79 -342.5q0 -29 -1 -65t-3 -77h-557v140h393v8q0 300 -150 300q-87 0 -138 -102t-51 -277v-32q0 -181 51.5 -283.5t142.5 -102.5q52 0 91.5 36t76.5 117l140 -67
q-54 -122 -129 -182t-174 -60q-120 0 -205.5 90.5t-110.5 243.5h87q-26 -162 -105 -248t-201 -86z" />
    <glyph glyph-name="ccedilla" unicode="&#xe7;" 
d="M674 -31q-151 0 -265 68t-177 190t-63 284v26q0 162 61.5 283.5t172.5 189.5t257 68q145 0 244 -65t161 -187l-151 -86q-40 83 -102.5 126.5t-151.5 43.5q-142 0 -224.5 -98t-82.5 -268v-42q0 -166 87 -265t232 -99q89 0 156 41.5t117 129.5l146 -93q-46 -80 -109 -135.5
t-140.5 -83.5t-167.5 -28zM675 -615q-82 0 -155 36.5t-123 101.5l110 91q73 -91 168 -91q59 0 95.5 31t36.5 83q0 54 -32.5 86.5t-86.5 32.5q-64 0 -105 -37l-95 81l133 214h124l-142 -223l-72 11q35 37 83.5 57t100.5 20q109 0 175.5 -67t66.5 -177q0 -112 -77.5 -181
t-204.5 -69z" />
    <glyph glyph-name="egrave" unicode="&#xe8;" 
d="M630 -32q-151 0 -263.5 67.5t-174.5 189t-62 284.5v38q0 160 61.5 279.5t172.5 186t259 66.5q133 0 231.5 -57.5t153 -162t54.5 -244.5q0 -38 -2.5 -73.5t-7.5 -69.5h-809v145h639v4q0 137 -70.5 217.5t-190.5 80.5q-142 0 -226.5 -100.5t-84.5 -276.5v-28
q0 -176 87.5 -279t237.5 -103q181 0 274 163l146 -93q-67 -117 -173 -175.5t-252 -58.5zM536 1253l-226 349v11h222l176 -349v-11h-172z" />
    <glyph glyph-name="eacute" unicode="&#xe9;" 
d="M630 -32q-151 0 -263.5 67.5t-174.5 189t-62 284.5v38q0 160 61.5 279.5t172.5 186t259 66.5q133 0 231.5 -57.5t153 -162t54.5 -244.5q0 -38 -2.5 -73.5t-7.5 -69.5h-809v145h639v4q0 137 -70.5 217.5t-190.5 80.5q-142 0 -226.5 -100.5t-84.5 -276.5v-28
q0 -176 87.5 -279t237.5 -103q181 0 274 163l146 -93q-67 -117 -173 -175.5t-252 -58.5zM536 1253v11l177 349h222v-11l-227 -349h-172z" />
    <glyph glyph-name="ecircumflex" unicode="&#xea;" 
d="M630 -32q-151 0 -263.5 67.5t-174.5 189t-62 284.5v38q0 160 61.5 279.5t172.5 186t259 66.5q133 0 231.5 -57.5t153 -162t54.5 -244.5q0 -38 -2.5 -73.5t-7.5 -69.5h-809v145h639v4q0 137 -70.5 217.5t-190.5 80.5q-142 0 -226.5 -100.5t-84.5 -276.5v-28
q0 -176 87.5 -279t237.5 -103q181 0 274 163l146 -93q-67 -117 -173 -175.5t-252 -58.5zM253 1253v11l272 349h194l272 -349v-11h-196l-194 280h43l-195 -280h-196z" />
    <glyph glyph-name="edieresis" unicode="&#xeb;" 
d="M630 -32q-151 0 -263.5 67.5t-174.5 189t-62 284.5v38q0 160 61.5 279.5t172.5 186t259 66.5q133 0 231.5 -57.5t153 -162t54.5 -244.5q0 -38 -2.5 -73.5t-7.5 -69.5h-809v145h639v4q0 137 -70.5 217.5t-190.5 80.5q-142 0 -226.5 -100.5t-84.5 -276.5v-28
q0 -176 87.5 -279t237.5 -103q181 0 274 163l146 -93q-67 -117 -173 -175.5t-252 -58.5zM404 1278q-61 0 -103.5 42.5t-42.5 103.5t43 103.5t103 42.5q62 0 105 -42t43 -103.5t-42.5 -104t-105.5 -42.5zM840 1278q-61 0 -103.5 42.5t-42.5 103.5t43 103.5t103 42.5
q62 0 105 -42t43 -103.5t-42.5 -104t-105.5 -42.5z" />
    <glyph glyph-name="igrave" unicode="&#xec;" 
d="M558 50v997h178v-997h-178zM203 0v148h874v-148h-874zM223 899v148h459v-148h-459zM561 1253l-226 349v11h222l176 -349v-11h-172z" />
    <glyph glyph-name="iacute" unicode="&#xed;" 
d="M558 50v997h178v-997h-178zM203 0v148h874v-148h-874zM223 899v148h459v-148h-459zM561 1253v11l177 349h222v-11l-227 -349h-172z" />
    <glyph glyph-name="icircumflex" unicode="&#xee;" 
d="M558 50v997h178v-997h-178zM203 0v148h874v-148h-874zM223 899v148h459v-148h-459zM278 1253v11l272 349h194l272 -349v-11h-196l-194 280h43l-195 -280h-196z" />
    <glyph glyph-name="idieresis" unicode="&#xef;" 
d="M558 50v997h178v-997h-178zM203 0v148h874v-148h-874zM223 899v148h459v-148h-459zM429 1278q-61 0 -103.5 42.5t-42.5 103.5t43 103.5t103 42.5q62 0 105 -42t43 -103.5t-42.5 -104t-105.5 -42.5zM865 1278q-61 0 -103.5 42.5t-42.5 103.5t43 103.5t103 42.5
q62 0 105 -42t43 -103.5t-42.5 -104t-105.5 -42.5z" />
    <glyph glyph-name="eth" unicode="&#xf0;" 
d="M605 -32q-144 0 -252.5 65t-169.5 182t-61 272v15q0 151 58.5 265t161.5 178t238 64q124 0 205.5 -55.5t122.5 -145.5l-47 28l34 14q-21 128 -73 241.5t-146.5 211t-245.5 177.5l80 133q207 -122 335.5 -270.5t187.5 -339t59 -439.5v-12q0 -184 -57.5 -315t-166.5 -200
t-263 -69zM607 136q146 0 222.5 96t76.5 259v9q0 165 -77.5 260t-221.5 95t-221.5 -95t-77.5 -260v-9q0 -165 77.5 -260t221.5 -95zM323 1139l-34 133l404 98l85 -111zM802 1277l-84 110l321 87l35 -133z" />
    <glyph glyph-name="ntilde" unicode="&#xf1;" 
d="M185 0v1047h169v-160h7q60 93 147 142.5t199 49.5q162 0 250 -106t88 -285v-688h-181v660q0 127 -56 192.5t-165 65.5q-124 0 -200.5 -84t-76.5 -233v-601h-181zM785 1263q-55 0 -99.5 26t-101.5 94q-40 48 -63 64t-49 16q-65 0 -65 -102v-94h-151v96q0 118 53 185
t146 67q54 0 96.5 -25.5t100.5 -96.5q38 -46 61.5 -62t49.5 -16q64 0 64 102v94h152v-96q0 -119 -51 -185.5t-143 -66.5z" />
    <glyph glyph-name="ograve" unicode="&#xf2;" 
d="M345.5 36q-109.5 68 -170.5 190.5t-61 283.5v27q0 162 61 284t170.5 190t254.5 68t254.5 -68t170.5 -190t61 -284v-27q0 -161 -61 -283.5t-170.5 -190.5t-254.5 -68t-254.5 68zM820 237q80 101 80 276v21q0 176 -80 276.5t-219.5 100.5t-220 -100.5t-80.5 -276.5v-21
q0 -175 80.5 -276t220 -101t219.5 101zM514 1253l-226 349v11h222l176 -349v-11h-172z" />
    <glyph glyph-name="oacute" unicode="&#xf3;" 
d="M345.5 36q-109.5 68 -170.5 190.5t-61 283.5v27q0 162 61 284t170.5 190t254.5 68t254.5 -68t170.5 -190t61 -284v-27q0 -161 -61 -283.5t-170.5 -190.5t-254.5 -68t-254.5 68zM820 237q80 101 80 276v21q0 176 -80 276.5t-219.5 100.5t-220 -100.5t-80.5 -276.5v-21
q0 -175 80.5 -276t220 -101t219.5 101zM514 1253v11l177 349h222v-11l-227 -349h-172z" />
    <glyph glyph-name="ocircumflex" unicode="&#xf4;" 
d="M345.5 36q-109.5 68 -170.5 190.5t-61 283.5v27q0 162 61 284t170.5 190t254.5 68t254.5 -68t170.5 -190t61 -284v-27q0 -161 -61 -283.5t-170.5 -190.5t-254.5 -68t-254.5 68zM820 237q80 101 80 276v21q0 176 -80 276.5t-219.5 100.5t-220 -100.5t-80.5 -276.5v-21
q0 -175 80.5 -276t220 -101t219.5 101zM231 1253v11l272 349h194l272 -349v-11h-196l-194 280h43l-195 -280h-196z" />
    <glyph glyph-name="otilde" unicode="&#xf5;" 
d="M345.5 36q-109.5 68 -170.5 190.5t-61 283.5v27q0 162 61 284t170.5 190t254.5 68t254.5 -68t170.5 -190t61 -284v-27q0 -161 -61 -283.5t-170.5 -190.5t-254.5 -68t-254.5 68zM820 237q80 101 80 276v21q0 176 -80 276.5t-219.5 100.5t-220 -100.5t-80.5 -276.5v-21
q0 -175 80.5 -276t220 -101t219.5 101zM768 1263q-55 0 -99.5 26t-101.5 94q-40 48 -63 64t-49 16q-65 0 -65 -102v-94h-151v96q0 118 53 185t146 67q54 0 96.5 -25.5t100.5 -96.5q38 -46 61.5 -62t49.5 -16q64 0 64 102v94h152v-96q0 -119 -51 -185.5t-143 -66.5z" />
    <glyph glyph-name="odieresis" unicode="&#xf6;" 
d="M345.5 36q-109.5 68 -170.5 190.5t-61 283.5v27q0 162 61 284t170.5 190t254.5 68t254.5 -68t170.5 -190t61 -284v-27q0 -161 -61 -283.5t-170.5 -190.5t-254.5 -68t-254.5 68zM820 237q80 101 80 276v21q0 176 -80 276.5t-219.5 100.5t-220 -100.5t-80.5 -276.5v-21
q0 -175 80.5 -276t220 -101t219.5 101zM382 1278q-61 0 -103.5 42.5t-42.5 103.5t43 103.5t103 42.5q62 0 105 -42t43 -103.5t-42.5 -104t-105.5 -42.5zM818 1278q-61 0 -103.5 42.5t-42.5 103.5t43 103.5t103 42.5q62 0 105 -42t43 -103.5t-42.5 -104t-105.5 -42.5z" />
    <glyph glyph-name="divide" unicode="&#xf7;" 
d="M154 540v180h892v-180h-892zM501.5 916q-40.5 40 -40.5 98.5t40.5 98t98.5 39.5t98.5 -39.5t40.5 -98t-40.5 -98.5t-98.5 -40t-98.5 40zM501.5 148q-40.5 40 -40.5 98.5t40.5 98t98.5 39.5t98.5 -39.5t40.5 -98t-40.5 -98.5t-98.5 -40t-98.5 40z" />
    <glyph glyph-name="oslash" unicode="&#xf8;" 
d="M220 -168l-128 80l889 1304l127 -81zM602 -32q-103 0 -192.5 42t-157.5 116t-106 172.5t-38 211.5v27q0 162 61.5 284t172 190t256.5 68q103 0 192.5 -42t157.5 -116t106 -172.5t38 -211.5v-27q0 -161 -61.5 -283.5t-171.5 -190.5t-257 -68zM600 118q152 0 237 105.5
t85 293.5v21q0 201 -77.5 296t-244.5 95q-152 0 -237 -105.5t-85 -293.5v-21q0 -201 77.5 -296t244.5 -95z" />
    <glyph glyph-name="ugrave" unicode="&#xf9;" 
d="M515 -32q-157 0 -250 100.5t-93 277.5v701h181v-669q0 -121 56 -184.5t162 -63.5q113 0 186.5 85t73.5 224v608h181v-1047h-169v161h-7q-51 -88 -131.5 -140.5t-189.5 -52.5zM506 1253l-226 349v11h222l176 -349v-11h-172z" />
    <glyph glyph-name="uacute" unicode="&#xfa;" 
d="M515 -32q-157 0 -250 100.5t-93 277.5v701h181v-669q0 -121 56 -184.5t162 -63.5q113 0 186.5 85t73.5 224v608h181v-1047h-169v161h-7q-51 -88 -131.5 -140.5t-189.5 -52.5zM506 1253v11l177 349h222v-11l-227 -349h-172z" />
    <glyph glyph-name="ucircumflex" unicode="&#xfb;" 
d="M515 -32q-157 0 -250 100.5t-93 277.5v701h181v-669q0 -121 56 -184.5t162 -63.5q113 0 186.5 85t73.5 224v608h181v-1047h-169v161h-7q-51 -88 -131.5 -140.5t-189.5 -52.5zM223 1253v11l272 349h194l272 -349v-11h-196l-194 280h43l-195 -280h-196z" />
    <glyph glyph-name="udieresis" unicode="&#xfc;" 
d="M515 -32q-157 0 -250 100.5t-93 277.5v701h181v-669q0 -121 56 -184.5t162 -63.5q113 0 186.5 85t73.5 224v608h181v-1047h-169v161h-7q-51 -88 -131.5 -140.5t-189.5 -52.5zM374 1278q-61 0 -103.5 42.5t-42.5 103.5t43 103.5t103 42.5q62 0 105 -42t43 -103.5
t-42.5 -104t-105.5 -42.5zM810 1278q-61 0 -103.5 42.5t-42.5 103.5t43 103.5t103 42.5q62 0 105 -42t43 -103.5t-42.5 -104t-105.5 -42.5z" />
    <glyph glyph-name="yacute" unicode="&#xfd;" 
d="M318 -442q-146 0 -255 91l92 141q79 -64 157 -64q63 0 102.5 31.5t65.5 103.5l94 259h27l92 312l219 615h193l-465 -1231q-52 -136 -128 -197t-194 -61zM561 -95l-437 1142h195l224 -615l73 -236h30zM530 1253v11l177 349h222v-11l-227 -349h-172z" />
    <glyph glyph-name="thorn" unicode="&#xfe;" 
d="M152 -413v1873h182v-572h7q48 90 132 140.5t193 50.5q124 0 216 -67t143 -188t51 -283v-35q0 -161 -51 -282.5t-143 -188.5t-216 -67q-109 0 -190 49.5t-136 137.5h-6v-568h-182zM613 132q130 0 203.5 100.5t73.5 277.5v27q0 177 -73 277.5t-204 100.5
q-130 0 -208 -103.5t-78 -276.5v-24q0 -173 78 -276t208 -103z" />
    <glyph glyph-name="ydieresis" unicode="&#xff;" 
d="M318 -442q-146 0 -255 91l92 141q79 -64 157 -64q63 0 102.5 31.5t65.5 103.5l94 259h27l92 312l219 615h193l-465 -1231q-52 -136 -128 -197t-194 -61zM561 -95l-437 1142h195l224 -615l73 -236h30zM398 1278q-61 0 -103.5 42.5t-42.5 103.5t43 103.5t103 42.5
q62 0 105 -42t43 -103.5t-42.5 -104t-105.5 -42.5zM834 1278q-61 0 -103.5 42.5t-42.5 103.5t43 103.5t103 42.5q62 0 105 -42t43 -103.5t-42.5 -104t-105.5 -42.5z" />
    <glyph glyph-name="Amacron" unicode="&#x100;" 
d="M58 0l445 1432h197l443 -1432h-196l-305 1063l-40 155h-6l-41 -155l-303 -1063h-194zM254 369l52 167h586l53 -167h-691zM285 1726v164h634v-164h-634z" />
    <glyph glyph-name="amacron" unicode="&#x101;" 
d="M525 -32q-107 0 -189 42.5t-128 118t-46 173.5v15q0 161 109.5 256.5t289.5 95.5q83 0 156 -19t129 -53v-140q-106 68 -253 68q-113 0 -180 -53.5t-67 -147.5v-10q0 -89 57.5 -139.5t154.5 -50.5q81 0 142 39.5t95.5 109.5t34.5 159v251q0 110 -57.5 173t-173.5 63
q-154 0 -270 -118l-113 120q147 158 384 158q194 0 300.5 -106t106.5 -285v-688h-169v152h-7q-46 -86 -123 -135t-183 -49zM283 1341v164h634v-164h-634z" />
    <glyph glyph-name="Abreve" unicode="&#x102;" 
d="M58 0l445 1432h197l443 -1432h-196l-305 1063l-40 155h-6l-41 -155l-303 -1063h-194zM254 369l52 167h586l53 -167h-691zM421.5 1678.5q-78.5 44.5 -123 123.5t-44.5 182v14h162v-20q0 -89 50.5 -142t136 -53t135.5 53t50 142v20h162v-14q0 -103 -44.5 -182
t-122.5 -123.5t-180.5 -44.5t-181 44.5z" />
    <glyph glyph-name="abreve" unicode="&#x103;" 
d="M525 -32q-107 0 -189 42.5t-128 118t-46 173.5v15q0 161 109.5 256.5t289.5 95.5q83 0 156 -19t129 -53v-140q-106 68 -253 68q-113 0 -180 -53.5t-67 -147.5v-10q0 -89 57.5 -139.5t154.5 -50.5q81 0 142 39.5t95.5 109.5t34.5 159v251q0 110 -57.5 173t-173.5 63
q-154 0 -270 -118l-113 120q147 158 384 158q194 0 300.5 -106t106.5 -285v-688h-169v152h-7q-46 -86 -123 -135t-183 -49zM419.5 1293.5q-78.5 44.5 -123 123.5t-44.5 182v14h162v-20q0 -89 50.5 -142t136 -53t135.5 53t50 142v20h162v-14q0 -103 -44.5 -182t-122.5 -123.5
t-180.5 -44.5t-181 44.5z" />
    <glyph glyph-name="Aogonek" unicode="&#x104;" 
d="M58 0l445 1432h197l443 -1432h-196l-305 1063l-40 155h-6l-41 -155l-303 -1063h-194zM254 369l52 167h586l53 -167h-691zM1015 -534q-77 0 -138.5 33t-96.5 90t-35 129q0 117 86 208.5t263 160.5l49 -87q-126 -63 -182.5 -125t-56.5 -136q0 -55 37.5 -90t96.5 -35
q58 0 107 26l42 -131q-79 -43 -172 -43z" />
    <glyph glyph-name="aogonek" unicode="&#x105;" 
d="M911 -534q-77 0 -138 33t-96 90.5t-35 129.5q0 111 78.5 203t238.5 165l48 -87q-109 -64 -157.5 -125t-48.5 -135q0 -56 37.5 -91t95.5 -35q57 0 108 26l47 -130q-81 -44 -178 -44zM525 -32q-107 0 -189 42.5t-128 118t-46 173.5v15q0 161 109.5 256.5t289.5 95.5
q83 0 156 -19t129 -53v-140q-106 68 -253 68q-113 0 -180 -53.5t-67 -147.5v-10q0 -89 57.5 -139.5t154.5 -50.5q81 0 142 39.5t95.5 109.5t34.5 159v251q0 110 -57.5 173t-173.5 63q-154 0 -270 -118l-113 120q147 158 384 158q194 0 300.5 -106t106.5 -285v-688h-169v152
h-7q-46 -86 -123 -135t-183 -49z" />
    <glyph glyph-name="Cacute" unicode="&#x106;" 
d="M653 -32q-169 0 -293.5 89t-192 252.5t-67.5 387.5v38q0 227 66 390.5t188.5 251t292.5 87.5q166 0 283.5 -90t173.5 -262l-172 -66q-43 127 -112 184.5t-177 57.5q-169 0 -261 -142t-92 -406v-48q0 -262 95.5 -405t270.5 -143q217 0 294 241l173 -64
q-55 -172 -175.5 -262.5t-294.5 -90.5zM559 1638v11l177 349h222v-11l-227 -349h-172z" />
    <glyph glyph-name="cacute" unicode="&#x107;" 
d="M674 -31q-151 0 -265 68t-177 190t-63 284v26q0 162 61.5 283.5t172.5 189.5t257 68q145 0 244 -65t161 -187l-151 -86q-40 83 -102.5 126.5t-151.5 43.5q-142 0 -224.5 -98t-82.5 -268v-42q0 -166 87 -265t232 -99q89 0 156 41.5t117 129.5l146 -93q-46 -80 -109 -135.5
t-140.5 -83.5t-167.5 -28zM574 1253v11l177 349h222v-11l-227 -349h-172z" />
    <glyph glyph-name="Cdotaccent" unicode="&#x10a;" 
d="M653 -32q-169 0 -293.5 89t-192 252.5t-67.5 387.5v38q0 227 66 390.5t188.5 251t292.5 87.5q166 0 283.5 -90t173.5 -262l-172 -66q-43 127 -112 184.5t-177 57.5q-169 0 -261 -142t-92 -406v-48q0 -262 95.5 -405t270.5 -143q217 0 294 241l173 -64
q-55 -172 -175.5 -262.5t-294.5 -90.5zM645 1663q-66 0 -110 45.5t-44 109.5q0 65 44 109t110 44q67 0 111.5 -44t44.5 -109q0 -64 -44.5 -109.5t-111.5 -45.5z" />
    <glyph glyph-name="cdotaccent" unicode="&#x10b;" 
d="M674 -31q-151 0 -265 68t-177 190t-63 284v26q0 162 61.5 283.5t172.5 189.5t257 68q145 0 244 -65t161 -187l-151 -86q-40 83 -102.5 126.5t-151.5 43.5q-142 0 -224.5 -98t-82.5 -268v-42q0 -166 87 -265t232 -99q89 0 156 41.5t117 129.5l146 -93q-46 -80 -109 -135.5
t-140.5 -83.5t-167.5 -28zM660 1278q-66 0 -110 45.5t-44 109.5q0 65 44 109t110 44q67 0 111.5 -44t44.5 -109q0 -64 -44.5 -109.5t-111.5 -45.5z" />
    <glyph glyph-name="Ccaron" unicode="&#x10c;" 
d="M653 -32q-169 0 -293.5 89t-192 252.5t-67.5 387.5v38q0 227 66 390.5t188.5 251t292.5 87.5q166 0 283.5 -90t173.5 -262l-172 -66q-43 127 -112 184.5t-177 57.5q-169 0 -261 -142t-92 -406v-48q0 -262 95.5 -405t270.5 -143q217 0 294 241l173 -64
q-55 -172 -175.5 -262.5t-294.5 -90.5zM548 1638l-272 349v11h196l191 -280h-35l190 280h196v-11l-272 -349h-194z" />
    <glyph glyph-name="ccaron" unicode="&#x10d;" 
d="M674 -31q-151 0 -265 68t-177 190t-63 284v26q0 162 61.5 283.5t172.5 189.5t257 68q145 0 244 -65t161 -187l-151 -86q-40 83 -102.5 126.5t-151.5 43.5q-142 0 -224.5 -98t-82.5 -268v-42q0 -166 87 -265t232 -99q89 0 156 41.5t117 129.5l146 -93q-46 -80 -109 -135.5
t-140.5 -83.5t-167.5 -28zM563 1253l-272 349v11h196l191 -280h-35l190 280h196v-11l-272 -349h-194z" />
    <glyph glyph-name="Dcaron" unicode="&#x10e;" 
d="M140 0v1432h378q182 0 311 -83t198 -239t69 -375v-38q0 -218 -69 -374.5t-198 -239.5t-311 -83h-378zM324 174h188q195 0 294.5 131t99.5 387v48q0 256 -99.5 387t-294.5 131h-188v-1084zM468 1638l-272 349v11h196l191 -280h-35l190 280h196v-11l-272 -349h-194z" />
    <glyph glyph-name="dcaron" unicode="&#x10f;" 
d="M490 -31q-115 0 -203.5 65t-138.5 183.5t-50 279.5v55q0 163 48 280.5t134.5 181.5t201.5 64q102 0 169.5 -47t109.5 -131h6v560h176v-1460h-162v168h-7q-39 -93 -109.5 -146t-174.5 -53zM527 130q113 0 180 99t67 272v46q0 173 -66.5 271.5t-180.5 98.5q-116 0 -182 -97
t-66 -273v-46q0 -175 66.5 -273t181.5 -98zM1058 968l20 492h173l-51 -492h-142z" />
    <glyph glyph-name="Dcroat" unicode="&#x110;" 
d="M194 0v1432h351q183 0 312 -83t197.5 -238.5t68.5 -375.5v-38q0 -220 -68.5 -375.5t-197.5 -238.5t-312 -83h-351zM23 651v170h672v-170h-672zM368 172h172q200 0 300.5 131.5t100.5 388.5v48q0 258 -100.5 389t-300.5 131h-172v-1088z" />
    <glyph glyph-name="dcroat" unicode="&#x111;" 
d="M528 -31q-126 0 -222.5 63t-151 176.5t-54.5 263.5v34q0 151 52.5 264t147 176t220.5 63q109 0 188.5 -49.5t131.5 -141.5h6v677h173v-1495h-164v172h-6q-48 -96 -131 -149.5t-190 -53.5zM566 132q129 0 205.5 94.5t76.5 252.5v24q0 158 -76 252.5t-206 94.5
q-132 0 -207.5 -93t-75.5 -253v-26q0 -160 76 -253t207 -93zM476 1188v136h729v-136h-729z" />
    <glyph glyph-name="Emacron" unicode="&#x112;" 
d="M184 0v1432h810v-174h-624v-1084h640v-174h-826zM292 647v174h622v-174h-622zM272 1726v164h634v-164h-634z" />
    <glyph glyph-name="emacron" unicode="&#x113;" 
d="M630 -32q-151 0 -263.5 67.5t-174.5 189t-62 284.5v38q0 160 61.5 279.5t172.5 186t259 66.5q133 0 231.5 -57.5t153 -162t54.5 -244.5q0 -38 -2.5 -73.5t-7.5 -69.5h-809v145h639v4q0 137 -70.5 217.5t-190.5 80.5q-142 0 -226.5 -100.5t-84.5 -276.5v-28
q0 -176 87.5 -279t237.5 -103q181 0 274 163l146 -93q-67 -117 -173 -175.5t-252 -58.5zM305 1341v164h634v-164h-634z" />
    <glyph glyph-name="Edotaccent" unicode="&#x116;" 
d="M184 0v1432h810v-174h-624v-1084h640v-174h-826zM292 647v174h622v-174h-622zM589 1663q-66 0 -110 45.5t-44 109.5q0 65 44 109t110 44q67 0 111.5 -44t44.5 -109q0 -64 -44.5 -109.5t-111.5 -45.5z" />
    <glyph glyph-name="edotaccent" unicode="&#x117;" 
d="M630 -32q-151 0 -263.5 67.5t-174.5 189t-62 284.5v38q0 160 61.5 279.5t172.5 186t259 66.5q133 0 231.5 -57.5t153 -162t54.5 -244.5q0 -38 -2.5 -73.5t-7.5 -69.5h-809v145h639v4q0 137 -70.5 217.5t-190.5 80.5q-142 0 -226.5 -100.5t-84.5 -276.5v-28
q0 -176 87.5 -279t237.5 -103q181 0 274 163l146 -93q-67 -117 -173 -175.5t-252 -58.5zM622 1278q-66 0 -110 45.5t-44 109.5q0 65 44 109t110 44q67 0 111.5 -44t44.5 -109q0 -64 -44.5 -109.5t-111.5 -45.5z" />
    <glyph glyph-name="Eogonek" unicode="&#x118;" 
d="M184 0v1432h810v-174h-624v-1084h640v-174h-826zM292 647v174h622v-174h-622zM882 -534q-77 0 -138.5 33t-96.5 90t-35 129q0 117 86 208.5t263 160.5l49 -87q-126 -63 -182.5 -125t-56.5 -136q0 -55 37.5 -90t96.5 -35q58 0 107 26l42 -131q-79 -43 -172 -43z" />
    <glyph glyph-name="eogonek" unicode="&#x119;" 
d="M775 -534q-78 0 -139.5 33.5t-97 91.5t-35.5 131q0 116 87.5 205t261.5 160l-63 -95q-73 -21 -160 -21q-151 0 -263 67t-174 188t-62 283v38q0 160 61.5 279.5t172.5 186t259 66.5q133 0 231.5 -57.5t153 -162t54.5 -244.5q0 -38 -2.5 -73.5t-7.5 -69.5h-809v145h639v4
q0 137 -70.5 217.5t-190.5 80.5q-142 0 -226.5 -100.5t-84.5 -276.5v-28q0 -176 87 -279t236 -103q183 0 276 163l146 -93q-34 -59 -85 -110.5t-142 -115.5q-92 -65 -129 -115t-37 -115q0 -58 38 -95t96 -37q61 0 111 27l44 -131q-40 -22 -83.5 -33t-92.5 -11z" />
    <glyph glyph-name="Ecaron" unicode="&#x11a;" 
d="M184 0v1432h810v-174h-624v-1084h640v-174h-826zM292 647v174h622v-174h-622zM492 1638l-272 349v11h196l191 -280h-35l190 280h196v-11l-272 -349h-194z" />
    <glyph glyph-name="ecaron" unicode="&#x11b;" 
d="M630 -32q-151 0 -263.5 67.5t-174.5 189t-62 284.5v38q0 160 61.5 279.5t172.5 186t259 66.5q133 0 231.5 -57.5t153 -162t54.5 -244.5q0 -38 -2.5 -73.5t-7.5 -69.5h-809v145h639v4q0 137 -70.5 217.5t-190.5 80.5q-142 0 -226.5 -100.5t-84.5 -276.5v-28
q0 -176 87.5 -279t237.5 -103q181 0 274 163l146 -93q-67 -117 -173 -175.5t-252 -58.5zM525 1253l-272 349v11h196l191 -280h-35l190 280h196v-11l-272 -349h-194z" />
    <glyph glyph-name="Gbreve" unicode="&#x11e;" 
d="M646 -32q-175 0 -300.5 86.5t-192.5 248.5t-67 389v34q0 232 67 397t192.5 253t301.5 88q166 0 282 -79.5t174 -231.5l-168 -75q-39 106 -109.5 158t-174.5 52q-181 0 -279 -145t-98 -412v-44q0 -262 96.5 -402.5t276.5 -140.5q152 0 231.5 104.5t79.5 304.5v53h-331v173
h511v-209q0 -285 -129.5 -443.5t-362.5 -158.5zM468.5 1678.5q-78.5 44.5 -123 123.5t-44.5 182v14h162v-20q0 -89 50.5 -142t136 -53t135.5 53t50 142v20h162v-14q0 -103 -44.5 -182t-122.5 -123.5t-180.5 -44.5t-181 44.5z" />
    <glyph glyph-name="gbreve" unicode="&#x11f;" 
d="M593 -572q-156 0 -269.5 43t-175.5 121.5t-62 186.5q0 110 63.5 191.5t178.5 120.5l44 -87q-59 -31 -91 -83.5t-32 -118.5q0 -106 86.5 -160t257.5 -54q165 0 262 62t97 168q0 154 -193 154h-490v58l201 322l111 -22l-79 -206h271q166 0 258.5 -80.5t92.5 -223.5
q0 -120 -65 -208t-184 -136t-282 -48zM601 287q-118 0 -213.5 51.5t-151 140.5t-55.5 199v10q0 114 54 202.5t149 138.5t217 50q119 0 214 -52t150.5 -140.5t55.5 -198.5v-10q0 -114 -54 -202t-149 -138.5t-217 -50.5zM601 435q109 0 178.5 66.5t69.5 169.5v16
q0 104 -69.5 170t-178.5 66t-178.5 -66t-69.5 -170v-16q0 -103 69.5 -169.5t178.5 -66.5zM833 960l-70 36q35 136 120 208t212 72v-200q-175 0 -262 -116zM420.5 1293.5q-78.5 44.5 -123 123.5t-44.5 182v14h162v-20q0 -89 50.5 -142t136 -53t135.5 53t50 142v20h162v-14
q0 -103 -44.5 -182t-122.5 -123.5t-180.5 -44.5t-181 44.5z" />
    <glyph glyph-name="Gdotaccent" unicode="&#x120;" 
d="M646 -32q-175 0 -300.5 86.5t-192.5 248.5t-67 389v34q0 232 67 397t192.5 253t301.5 88q166 0 282 -79.5t174 -231.5l-168 -75q-39 106 -109.5 158t-174.5 52q-181 0 -279 -145t-98 -412v-44q0 -262 96.5 -402.5t276.5 -140.5q152 0 231.5 104.5t79.5 304.5v53h-331v173
h511v-209q0 -285 -129.5 -443.5t-362.5 -158.5zM649 1663q-66 0 -110 45.5t-44 109.5q0 65 44 109t110 44q67 0 111.5 -44t44.5 -109q0 -64 -44.5 -109.5t-111.5 -45.5z" />
    <glyph glyph-name="gdotaccent" unicode="&#x121;" 
d="M593 -572q-156 0 -269.5 43t-175.5 121.5t-62 186.5q0 110 63.5 191.5t178.5 120.5l44 -87q-59 -31 -91 -83.5t-32 -118.5q0 -106 86.5 -160t257.5 -54q165 0 262 62t97 168q0 154 -193 154h-490v58l201 322l111 -22l-79 -206h271q166 0 258.5 -80.5t92.5 -223.5
q0 -120 -65 -208t-184 -136t-282 -48zM601 287q-118 0 -213.5 51.5t-151 140.5t-55.5 199v10q0 114 54 202.5t149 138.5t217 50q119 0 214 -52t150.5 -140.5t55.5 -198.5v-10q0 -114 -54 -202t-149 -138.5t-217 -50.5zM601 435q109 0 178.5 66.5t69.5 169.5v16
q0 104 -69.5 170t-178.5 66t-178.5 -66t-69.5 -170v-16q0 -103 69.5 -169.5t178.5 -66.5zM833 960l-70 36q35 136 120 208t212 72v-200q-175 0 -262 -116zM601 1278q-66 0 -110 45.5t-44 109.5q0 65 44 109t110 44q67 0 111.5 -44t44.5 -109q0 -64 -44.5 -109.5
t-111.5 -45.5z" />
    <glyph glyph-name="uni0122" unicode="&#x122;" 
d="M646 -32q-175 0 -300.5 86.5t-192.5 248.5t-67 389v34q0 232 67 397t192.5 253t301.5 88q166 0 282 -79.5t174 -231.5l-168 -75q-39 106 -109.5 158t-174.5 52q-181 0 -279 -145t-98 -412v-44q0 -262 96.5 -402.5t276.5 -140.5q152 0 231.5 104.5t79.5 304.5v53h-331v173
h511v-209q0 -285 -129.5 -443.5t-362.5 -158.5zM588 -779l-116 77l189 271l-1 -45q-71 3 -115.5 45t-44.5 105q0 64 44.5 106.5t110.5 42.5q73 0 117.5 -45.5t44.5 -119.5q0 -44 -18.5 -92.5t-59.5 -111.5z" />
    <glyph glyph-name="uni0123" unicode="&#x123;" 
d="M593 -572q-156 0 -269.5 43t-175.5 121.5t-62 186.5q0 110 63.5 191.5t178.5 120.5l44 -87q-59 -31 -91 -83.5t-32 -118.5q0 -106 86.5 -160t257.5 -54q165 0 262 62t97 168q0 154 -193 154h-490v58l201 322l111 -22l-79 -206h271q166 0 258.5 -80.5t92.5 -223.5
q0 -120 -65 -208t-184 -136t-282 -48zM601 287q-118 0 -213.5 51.5t-151 140.5t-55.5 199v10q0 114 54 202.5t149 138.5t217 50q119 0 214 -52t150.5 -140.5t55.5 -198.5v-10q0 -114 -54 -202t-149 -138.5t-217 -50.5zM601 435q109 0 178.5 66.5t69.5 169.5v16
q0 104 -69.5 170t-178.5 66t-178.5 -66t-69.5 -170v-16q0 -103 69.5 -169.5t178.5 -66.5zM833 960l-70 36q35 136 120 208t212 72v-200q-175 0 -262 -116zM641 1855l116 -77l-189 -271l1 45q71 -3 115.5 -45t44.5 -105q0 -64 -44.5 -106.5t-110.5 -42.5q-73 0 -117.5 45.5
t-44.5 119.5q0 44 18.5 92.5t59.5 111.5z" />
    <glyph glyph-name="Hbar" unicode="&#x126;" 
d="M829 0v1432h180v-1432h-180zM192 0v1432h180v-1432h-180zM281 611v168h640v-168h-640zM18 1035v160h1164v-160h-1164z" />
    <glyph glyph-name="hbar" unicode="&#x127;" 
d="M182 0v1495h172v-668h8q124 182 338 182q158 0 247 -103.5t89 -286.5v-619h-181v592q0 256 -218 256q-124 0 -199 -85t-75 -225v-538h-181zM-4 1188v136h714v-136h-714z" />
    <glyph glyph-name="Itilde" unicode="&#x128;" 
d="M506 91v1250h188v-1250h-188zM178 0v176h844v-176h-844zM178 1257v175h844v-175h-844zM768 1648q-55 0 -99.5 26t-101.5 94q-40 48 -63 64t-49 16q-65 0 -65 -102v-94h-151v96q0 118 53 185t146 67q54 0 96.5 -25.5t100.5 -96.5q38 -46 61.5 -62t49.5 -16q64 0 64 102v94
h152v-96q0 -119 -51 -185.5t-143 -66.5z" />
    <glyph glyph-name="itilde" unicode="&#x129;" 
d="M558 50v997h178v-997h-178zM203 0v148h874v-148h-874zM223 899v148h459v-148h-459zM815 1263q-55 0 -99.5 26t-101.5 94q-40 48 -63 64t-49 16q-65 0 -65 -102v-94h-151v96q0 118 53 185t146 67q54 0 96.5 -25.5t100.5 -96.5q38 -46 61.5 -62t49.5 -16q64 0 64 102v94
h152v-96q0 -119 -51 -185.5t-143 -66.5z" />
    <glyph glyph-name="Imacron" unicode="&#x12a;" 
d="M506 91v1250h188v-1250h-188zM178 0v176h844v-176h-844zM178 1257v175h844v-175h-844zM283 1726v164h634v-164h-634z" />
    <glyph glyph-name="imacron" unicode="&#x12b;" 
d="M558 50v997h178v-997h-178zM203 0v148h874v-148h-874zM223 899v148h459v-148h-459zM330 1341v164h634v-164h-634z" />
    <glyph glyph-name="Iogonek" unicode="&#x12e;" 
d="M506 91v1250h188v-1250h-188zM178 0v176h844v-176h-844zM178 1257v175h844v-175h-844zM622 -534q-77 0 -138.5 33t-96.5 90t-35 129q0 117 86 208.5t263 160.5l49 -87q-126 -63 -182.5 -125t-56.5 -136q0 -55 37.5 -90t96.5 -35q58 0 107 26l42 -131q-79 -43 -172 -43z
" />
    <glyph glyph-name="iogonek" unicode="&#x12f;" 
d="M558 60v987h178v-987h-178zM203 0v148h874v-148h-874zM223 899v148h459v-148h-459zM621 1278q-63 0 -108 45t-45 108q0 65 45 107.5t108 42.5q65 0 108 -43t43 -108q0 -62 -43 -107t-108 -45zM658 -534q-77 0 -138.5 33t-96.5 90t-35 129q0 117 86 208.5t263 160.5
l49 -87q-126 -63 -182.5 -125t-56.5 -136q0 -55 37.5 -90t96.5 -35q58 0 107 26l42 -131q-79 -43 -172 -43z" />
    <glyph glyph-name="Idotaccent" unicode="&#x130;" 
d="M506 91v1250h188v-1250h-188zM178 0v176h844v-176h-844zM178 1257v175h844v-175h-844zM600 1663q-66 0 -110 45.5t-44 109.5q0 65 44 109t110 44q67 0 111.5 -44t44.5 -109q0 -64 -44.5 -109.5t-111.5 -45.5z" />
    <glyph glyph-name="dotlessi" unicode="&#x131;" 
d="M558 50v997h178v-997h-178zM203 0v148h874v-148h-874zM223 899v148h459v-148h-459z" />
    <glyph glyph-name="IJ" unicode="&#x132;" 
d="M615 -31q-169 0 -285.5 91.5t-169.5 257.5l179 57q72 -226 274 -226q118 0 178.5 76t60.5 224v983h188v-988q0 -145 -51 -252t-146 -165t-228 -58zM160 585v847h188v-847h-188z" />
    <glyph glyph-name="ij" unicode="&#x133;" 
d="M724 -442q-177 0 -334 112l92 143q60 -43 118 -65t119 -22q101 0 153.5 61t52.5 178v1082h180v-1078q0 -190 -103.5 -300.5t-277.5 -110.5zM40 0v148h686v-148h-686zM299 70v977h178v-977h-178zM58 899v148h370v-148h-370zM368 1278q-63 0 -108 45t-45 108q0 65 45 107.5
t108 42.5q65 0 108 -43t43 -108q0 -62 -43 -107t-108 -45zM677 899v148h384v-148h-384zM989 1278q-63 0 -108 45t-45 108t44.5 106.5t108.5 43.5q65 0 108 -43t43 -108q0 -64 -43.5 -108t-107.5 -44z" />
    <glyph glyph-name="uni0136" unicode="&#x136;" 
d="M922 0l-581 719v6l562 707h224l-601 -742v76l624 -766h-228zM160 0v1432h186v-1432h-186zM551 -779l-116 77l189 271l-1 -45q-71 3 -115.5 45t-44.5 105q0 64 44.5 106.5t110.5 42.5q73 0 117.5 -45.5t44.5 -119.5q0 -44 -18.5 -92.5t-59.5 -111.5z" />
    <glyph glyph-name="uni0137" unicode="&#x137;" 
d="M842 0l-493 561v6l470 480h233l-533 -536v112l559 -623h-236zM174 0v1460h182v-1460h-182zM533 -766l-116 77l189 271l-1 -45q-71 3 -115.5 45t-44.5 105q0 64 44.5 106.5t110.5 42.5q73 0 117.5 -45.5t44.5 -119.5q0 -44 -18.5 -92.5t-59.5 -111.5z" />
    <glyph glyph-name="kgreenlandic" unicode="&#x138;" 
d="M842 0l-493 561v6l470 480h233l-533 -536v112l559 -623h-236zM174 0v1047h182v-1047h-182z" />
    <glyph glyph-name="Lacute" unicode="&#x139;" 
d="M198 0v1432h186v-1256h682v-176h-868zM205 1638v11l177 349h222v-11l-227 -349h-172z" />
    <glyph glyph-name="lacute" unicode="&#x13a;" 
d="M782 -32q-166 0 -261.5 97.5t-95.5 268.5v1126h180v-1107q0 -215 188 -215q53 0 98.5 20.5t96.5 66.5l104 -137q-65 -61 -142 -90.5t-168 -29.5zM116 1302v158h404v-158h-404zM428 1666v11l177 349h222v-11l-227 -349h-172z" />
    <glyph glyph-name="uni013B" unicode="&#x13b;" 
d="M198 0v1432h186v-1256h682v-176h-868zM549 -779l-116 77l189 271l-1 -45q-71 3 -115.5 45t-44.5 105q0 64 44.5 106.5t110.5 42.5q73 0 117.5 -45.5t44.5 -119.5q0 -44 -18.5 -92.5t-59.5 -111.5z" />
    <glyph glyph-name="uni013C" unicode="&#x13c;" 
d="M782 -32q-166 0 -261.5 97.5t-95.5 268.5v1126h180v-1107q0 -215 188 -215q53 0 98.5 20.5t96.5 66.5l104 -137q-65 -61 -142 -90.5t-168 -29.5zM116 1302v158h404v-158h-404zM685 -810l-116 77l189 271l-1 -45q-71 3 -115.5 45t-44.5 105q0 64 44.5 106.5t110.5 42.5
q73 0 117.5 -45.5t44.5 -119.5q0 -44 -18.5 -92.5t-59.5 -111.5z" />
    <glyph glyph-name="Lcaron" unicode="&#x13d;" 
d="M624 936l39 496h190l-77 -496h-152zM198 0v1432h186v-1256h682v-176h-868z" />
    <glyph glyph-name="lcaron" unicode="&#x13e;" 
d="M778 -32q-166 0 -261.5 97.5t-95.5 268.5v1126h180v-1107q0 -215 187 -215q53 0 99 20.5t97 66.5l104 -137q-64 -60 -141.5 -90t-168.5 -30zM118 1302v158h398v-158h-398zM778 963l33 497h192l-79 -497h-146z" />
    <glyph glyph-name="Ldot" unicode="&#x13f;" 
d="M198 0v1432h186v-1256h682v-176h-868zM884 627q-69 0 -116.5 47t-47.5 117q0 68 48 115t116 47q71 0 118 -47t47 -115q0 -70 -47 -117t-118 -47z" />
    <glyph glyph-name="ldot" unicode="&#x140;" 
d="M782 -32q-166 0 -261.5 97.5t-95.5 268.5v1126h180v-1107q0 -215 188 -215q53 0 98.5 20.5t96.5 66.5l104 -137q-65 -61 -142 -90.5t-168 -29.5zM116 1302v158h404v-158h-404zM1105 611q-69 0 -116.5 47t-47.5 117q0 68 48 115t116 47q71 0 118 -47t47 -115
q0 -70 -47 -117t-118 -47z" />
    <glyph glyph-name="Lslash" unicode="&#x141;" 
d="M284 0v1432h180v-1256h635v-176h-815zM11 400v193l310 187l77 32l541 324v-192l-567 -336l-64 -25z" />
    <glyph glyph-name="lslash" unicode="&#x142;" 
d="M134 458v188l363 203l60 15l420 235v-188l-422 -234l-60 -15zM782 -32q-166 0 -261.5 97.5t-95.5 268.5v1126h180v-1107q0 -215 188 -215q53 0 98.5 20.5t96.5 66.5l104 -137q-65 -61 -142 -90.5t-168 -29.5zM116 1302v158h404v-158h-404z" />
    <glyph glyph-name="Nacute" unicode="&#x143;" 
d="M108 0v1432h190l622 -1092h5l-21 331v761h188v-1432h-164l-649 1138h-5l22 -332v-806h-188zM515 1638v11l177 349h222v-11l-227 -349h-172z" />
    <glyph glyph-name="nacute" unicode="&#x144;" 
d="M185 0v1047h169v-160h7q60 93 147 142.5t199 49.5q162 0 250 -106t88 -285v-688h-181v660q0 127 -56 192.5t-165 65.5q-124 0 -200.5 -84t-76.5 -233v-601h-181zM531 1253v11l177 349h222v-11l-227 -349h-172z" />
    <glyph glyph-name="uni0145" unicode="&#x145;" 
d="M108 0v1432h190l622 -1092h5l-21 331v761h188v-1432h-164l-649 1138h-5l22 -332v-806h-188zM544 -779l-116 77l189 271l-1 -45q-71 3 -115.5 45t-44.5 105q0 64 44.5 106.5t110.5 42.5q73 0 117.5 -45.5t44.5 -119.5q0 -44 -18.5 -92.5t-59.5 -111.5z" />
    <glyph glyph-name="uni0146" unicode="&#x146;" 
d="M185 0v1047h169v-160h7q60 93 147 142.5t199 49.5q162 0 250 -106t88 -285v-688h-181v660q0 127 -56 192.5t-165 65.5q-124 0 -200.5 -84t-76.5 -233v-601h-181zM552 -766l-116 77l189 271l-1 -45q-71 3 -115.5 45t-44.5 105q0 64 44.5 106.5t110.5 42.5
q73 0 117.5 -45.5t44.5 -119.5q0 -44 -18.5 -92.5t-59.5 -111.5z" />
    <glyph glyph-name="Ncaron" unicode="&#x147;" 
d="M108 0v1432h190l622 -1092h5l-21 331v761h188v-1432h-164l-649 1138h-5l22 -332v-806h-188zM504 1638l-272 349v11h196l191 -280h-35l190 280h196v-11l-272 -349h-194z" />
    <glyph glyph-name="ncaron" unicode="&#x148;" 
d="M185 0v1047h169v-160h7q60 93 147 142.5t199 49.5q162 0 250 -106t88 -285v-688h-181v660q0 127 -56 192.5t-165 65.5q-124 0 -200.5 -84t-76.5 -233v-601h-181zM520 1253l-272 349v11h196l191 -280h-35l190 280h196v-11l-272 -349h-194z" />
    <glyph glyph-name="napostrophe" unicode="&#x149;" 
d="M349 0v1047h162v-151h7q109 182 306 182q143 0 222 -99t79 -272v-707h-174v680q0 238 -190 238q-108 0 -173 -80t-65 -211v-627h-174zM15 882l233 578h216l-273 -578h-176z" />
    <glyph glyph-name="Eng" unicode="&#x14a;" 
d="M716 -446q-197 0 -340 128l110 139q98 -91 222 -91q98 0 148.5 57t50.5 167v1031q0 149 -65.5 226t-193.5 77q-95 0 -168.5 -47t-115 -130.5t-41.5 -193.5v-917h-186v1432h175v-195h7q65 107 166 167t218 60q182 0 286 -119.5t104 -326.5v-1059q0 -124 -46.5 -215
t-131.5 -140.5t-199 -49.5z" />
    <glyph glyph-name="eng" unicode="&#x14b;" 
d="M733 -442q-158 0 -273 98l102 136q38 -32 78.5 -49t83.5 -17q140 0 140 167v766q0 259 -221 259q-126 0 -201.5 -85t-75.5 -228v-605h-181v1047h169v-160h7q125 192 346 192q159 0 248.5 -103.5t89.5 -288.5v-791q0 -157 -83.5 -247.5t-228.5 -90.5z" />
    <glyph glyph-name="Omacron" unicode="&#x14c;" 
d="M320.5 56.5q-117.5 88.5 -181 251.5t-63.5 389v38q0 226 63.5 389t181 251.5t279.5 88.5t279.5 -88.5t181 -251.5t63.5 -389v-38q0 -226 -63.5 -389t-181 -251.5t-279.5 -88.5t-279.5 88.5zM847.5 286q86.5 142 86.5 406v48q0 262 -87.5 405t-246.5 143t-246.5 -143
t-87.5 -405v-48q0 -264 87 -406t247.5 -142t247 142zM283 1726v164h634v-164h-634z" />
    <glyph glyph-name="omacron" unicode="&#x14d;" 
d="M345.5 36q-109.5 68 -170.5 190.5t-61 283.5v27q0 162 61 284t170.5 190t254.5 68t254.5 -68t170.5 -190t61 -284v-27q0 -161 -61 -283.5t-170.5 -190.5t-254.5 -68t-254.5 68zM820 237q80 101 80 276v21q0 176 -80 276.5t-219.5 100.5t-220 -100.5t-80.5 -276.5v-21
q0 -175 80.5 -276t220 -101t219.5 101zM283 1341v164h634v-164h-634z" />
    <glyph glyph-name="Ohungarumlaut" unicode="&#x150;" 
d="M320.5 56.5q-117.5 88.5 -181 251.5t-63.5 389v38q0 226 63.5 389t181 251.5t279.5 88.5t279.5 -88.5t181 -251.5t63.5 -389v-38q0 -226 -63.5 -389t-181 -251.5t-279.5 -88.5t-279.5 88.5zM847.5 286q86.5 142 86.5 406v48q0 262 -87.5 405t-246.5 143t-246.5 -143
t-87.5 -405v-48q0 -264 87 -406t247.5 -142t247 142zM704 1638v11l165 349h216v-11l-215 -349h-166zM322 1638v11l165 349h216v-11l-215 -349h-166z" />
    <glyph glyph-name="ohungarumlaut" unicode="&#x151;" 
d="M345.5 36q-109.5 68 -170.5 190.5t-61 283.5v27q0 162 61 284t170.5 190t254.5 68t254.5 -68t170.5 -190t61 -284v-27q0 -161 -61 -283.5t-170.5 -190.5t-254.5 -68t-254.5 68zM820 237q80 101 80 276v21q0 176 -80 276.5t-219.5 100.5t-220 -100.5t-80.5 -276.5v-21
q0 -175 80.5 -276t220 -101t219.5 101zM704 1253v11l165 349h216v-11l-215 -349h-166zM322 1253v11l165 349h216v-11l-215 -349h-166z" />
    <glyph glyph-name="OE" unicode="&#x152;" 
d="M398 -31q-169 0 -265.5 191t-96.5 531v50q0 341 96.5 531.5t265.5 190.5q95 0 162 -66.5t98 -192.5h11v228h496v-171h-367v-1090h383v-171h-510v228h-13q-31 -126 -98 -192.5t-162 -66.5zM425 143q102 0 154 137t52 398v76q0 262 -52 399t-154 137q-103 0 -156.5 -139
t-53.5 -405v-60q0 -265 53.5 -404t156.5 -139zM730 649v170h371v-170h-371z" />
    <glyph glyph-name="oe" unicode="&#x153;" 
d="M345 -32q-154 0 -236.5 139.5t-82.5 398.5v35q0 259 82.5 398.5t236.5 139.5q107 0 177 -74.5t98 -220.5h-40q26 135 107.5 215t191.5 80q138 0 216 -125.5t78 -348.5q0 -34 -1 -65t-3 -65h-555v138h393v8q0 304 -148 304q-88 0 -140.5 -102.5t-52.5 -280.5v-32
q0 -181 51 -282.5t142 -101.5q52 0 92 36.5t75 115.5l140 -66q-103 -244 -298 -244q-123 0 -205.5 92.5t-102.5 246.5h62q-25 -166 -95.5 -252.5t-181.5 -86.5zM356 126q165 0 165 383v29q0 383 -165 383t-165 -383v-29q0 -383 165 -383z" />
    <glyph glyph-name="Racute" unicode="&#x154;" 
d="M160 0v1432h442q139 0 241 -52t158.5 -147t56.5 -223v-20q0 -128 -56.5 -223t-159 -147t-240.5 -52h-338v166h334q128 0 200 66t72 182v30q0 116 -72 182t-200 66h-254v-1260h-184zM935 0l-395 643h204l402 -643h-211zM439 1638v11l177 349h222v-11l-227 -349h-172z" />
    <glyph glyph-name="racute" unicode="&#x155;" 
d="M371 60v987h160v-217h9q48 119 135.5 184t199.5 65q81 0 142.5 -31.5t116.5 -100.5l-131 -146q-46 56 -94 80t-110 24q-118 0 -185 -95.5t-67 -263.5v-486h-176zM120 0v147h767v-147h-767zM140 900v147h316v-147h-316zM574 1253v11l177 349h222v-11l-227 -349h-172z" />
    <glyph glyph-name="Rcaron" unicode="&#x158;" 
d="M160 0v1432h442q139 0 241 -52t158.5 -147t56.5 -223v-20q0 -128 -56.5 -223t-159 -147t-240.5 -52h-338v166h334q128 0 200 66t72 182v30q0 116 -72 182t-200 66h-254v-1260h-184zM935 0l-395 643h204l402 -643h-211zM428 1638l-272 349v11h196l191 -280h-35l190 280
h196v-11l-272 -349h-194z" />
    <glyph glyph-name="rcaron" unicode="&#x159;" 
d="M371 60v987h160v-217h9q48 119 135.5 184t199.5 65q81 0 142.5 -31.5t116.5 -100.5l-131 -146q-46 56 -94 80t-110 24q-118 0 -185 -95.5t-67 -263.5v-486h-176zM120 0v147h767v-147h-767zM140 900v147h316v-147h-316zM563 1253l-272 349v11h196l191 -280h-35l190 280
h196v-11l-272 -349h-194z" />
    <glyph glyph-name="Sacute" unicode="&#x15a;" 
d="M641 -32q-132 0 -241.5 46t-188.5 133t-121 209l173 63q47 -136 142.5 -206t232.5 -70q131 0 204.5 58t73.5 160v17q0 85 -57 142t-188 103l-197 69q-303 106 -303 374v7q0 117 56.5 205t158 137t234.5 49q179 0 300.5 -80t177.5 -236l-172 -65q-73 206 -305 206
q-119 0 -191.5 -56t-72.5 -150v-12q0 -73 47 -123.5t150 -86.5l197 -69q182 -64 266.5 -165t84.5 -253v-8q0 -120 -58 -209.5t-161.5 -139t-241.5 -49.5zM535 1638v11l177 349h222v-11l-227 -349h-172z" />
    <glyph glyph-name="sacute" unicode="&#x15b;" 
d="M655 -32q-174 0 -298 72.5t-189 211.5l154 73q43 -93 129 -144t200 -51q93 0 147 37t54 101v10q0 59 -44 94.5t-151 63.5l-145 38q-132 35 -202.5 109t-70.5 186v2q0 142 103.5 225t280.5 83q150 0 250 -55t155 -168l-154 -73q-68 134 -256 134q-94 0 -146.5 -35
t-52.5 -98v-6q0 -53 39 -86t128 -56l145 -38q156 -41 228.5 -116.5t72.5 -199.5v-4q0 -139 -103.5 -224.5t-273.5 -85.5zM535 1253v11l177 349h222v-11l-227 -349h-172z" />
    <glyph glyph-name="Scedilla" unicode="&#x15e;" 
d="M641 -32q-132 0 -241.5 46t-188.5 133t-121 209l173 63q47 -136 142.5 -206t232.5 -70q131 0 204.5 58t73.5 160v17q0 85 -57 142t-188 103l-197 69q-303 106 -303 374v7q0 117 56.5 205t158 137t234.5 49q179 0 300.5 -80t177.5 -236l-172 -65q-73 206 -305 206
q-119 0 -191.5 -56t-72.5 -150v-12q0 -73 47 -123.5t150 -86.5l197 -69q182 -64 266.5 -165t84.5 -253v-8q0 -120 -58 -209.5t-161.5 -139t-241.5 -49.5zM640 -615q-82 0 -155 36.5t-123 101.5l110 91q73 -91 168 -91q59 0 95.5 31t36.5 83q0 54 -32.5 86.5t-86.5 32.5
q-64 0 -105 -37l-95 81l133 214h124l-142 -223l-72 11q35 37 83.5 57t100.5 20q109 0 175.5 -67t66.5 -177q0 -112 -77.5 -181t-204.5 -69z" />
    <glyph glyph-name="scedilla" unicode="&#x15f;" 
d="M655 -32q-174 0 -298 72.5t-189 211.5l154 73q43 -93 129 -144t200 -51q93 0 147 37t54 101v10q0 59 -44 94.5t-151 63.5l-145 38q-132 35 -202.5 109t-70.5 186v2q0 142 103.5 225t280.5 83q150 0 250 -55t155 -168l-154 -73q-68 134 -256 134q-94 0 -146.5 -35
t-52.5 -98v-6q0 -53 39 -86t128 -56l145 -38q156 -41 228.5 -116.5t72.5 -199.5v-4q0 -139 -103.5 -224.5t-273.5 -85.5zM629 -615q-82 0 -155 36.5t-123 101.5l110 91q73 -91 168 -91q59 0 95.5 31t36.5 83q0 54 -32.5 86.5t-86.5 32.5q-64 0 -105 -37l-95 81l133 214h124
l-142 -223l-72 11q35 37 83.5 57t100.5 20q109 0 175.5 -67t66.5 -177q0 -112 -77.5 -181t-204.5 -69z" />
    <glyph glyph-name="Scaron" unicode="&#x160;" 
d="M641 -32q-132 0 -241.5 46t-188.5 133t-121 209l173 63q47 -136 142.5 -206t232.5 -70q131 0 204.5 58t73.5 160v17q0 85 -57 142t-188 103l-197 69q-303 106 -303 374v7q0 117 56.5 205t158 137t234.5 49q179 0 300.5 -80t177.5 -236l-172 -65q-73 206 -305 206
q-119 0 -191.5 -56t-72.5 -150v-12q0 -73 47 -123.5t150 -86.5l197 -69q182 -64 266.5 -165t84.5 -253v-8q0 -120 -58 -209.5t-161.5 -139t-241.5 -49.5zM524 1638l-272 349v11h196l191 -280h-35l190 280h196v-11l-272 -349h-194z" />
    <glyph glyph-name="scaron" unicode="&#x161;" 
d="M655 -32q-174 0 -298 72.5t-189 211.5l154 73q43 -93 129 -144t200 -51q93 0 147 37t54 101v10q0 59 -44 94.5t-151 63.5l-145 38q-132 35 -202.5 109t-70.5 186v2q0 142 103.5 225t280.5 83q150 0 250 -55t155 -168l-154 -73q-68 134 -256 134q-94 0 -146.5 -35
t-52.5 -98v-6q0 -53 39 -86t128 -56l145 -38q156 -41 228.5 -116.5t72.5 -199.5v-4q0 -139 -103.5 -224.5t-273.5 -85.5zM524 1253l-272 349v11h196l191 -280h-35l190 280h196v-11l-272 -349h-194z" />
    <glyph glyph-name="uni0162" unicode="&#x162;" 
d="M507 0v1350h186v-1350h-186zM108 1256v176h984v-176h-984zM602 -615q-82 0 -155 36.5t-123 101.5l110 91q73 -91 168 -91q59 0 95.5 31t36.5 83q0 54 -32.5 86.5t-86.5 32.5q-64 0 -105 -37l-95 81l133 214h124l-142 -223l-72 11q35 37 83.5 57t100.5 20q109 0 175.5 -67
t66.5 -177q0 -112 -77.5 -181t-204.5 -69z" />
    <glyph glyph-name="uni0163" unicode="&#x163;" 
d="M786 -32q-182 0 -283.5 101.5t-101.5 282.5v974h183v-960q0 -117 49.5 -172.5t152.5 -55.5q108 0 196 88l102 -136q-122 -122 -298 -122zM116 891v156h905v-156h-905zM704 -615q-82 0 -155 36.5t-123 101.5l110 91q73 -91 168 -91q59 0 95.5 31t36.5 83q0 54 -32.5 86.5
t-86.5 32.5q-64 0 -105 -37l-95 81l133 214h124l-142 -223l-72 11q35 37 83.5 57t100.5 20q109 0 175.5 -67t66.5 -177q0 -112 -77.5 -181t-204.5 -69z" />
    <glyph glyph-name="Tcaron" unicode="&#x164;" 
d="M507 0v1350h186v-1350h-186zM108 1256v176h984v-176h-984zM503 1638l-272 349v11h196l191 -280h-35l190 280h196v-11l-272 -349h-194z" />
    <glyph glyph-name="tcaron" unicode="&#x165;" 
d="M766 -31q-175 0 -272.5 101t-97.5 282v974h183v-960q0 -116 47.5 -171.5t146.5 -55.5q111 0 206 95l102 -134q-133 -131 -315 -131zM111 851v156h905v-156h-905zM751 1149l28 416h186l-70 -416h-144z" />
    <glyph glyph-name="Utilde" unicode="&#x168;" 
d="M360.5 28.5q-103.5 60.5 -161 168.5t-57.5 250v985h186v-974q0 -145 73 -229.5t199 -84.5q127 0 199.5 84.5t72.5 229.5v974h186v-985q0 -142 -57.5 -250t-160.5 -168.5t-239.5 -60.5t-240 60.5zM768 1648q-55 0 -99.5 26t-101.5 94q-40 48 -63 64t-49 16q-65 0 -65 -102
v-94h-151v96q0 118 53 185t146 67q54 0 96.5 -25.5t100.5 -96.5q38 -46 61.5 -62t49.5 -16q64 0 64 102v94h152v-96q0 -119 -51 -185.5t-143 -66.5z" />
    <glyph glyph-name="utilde" unicode="&#x169;" 
d="M515 -32q-157 0 -250 100.5t-93 277.5v701h181v-669q0 -121 56 -184.5t162 -63.5q113 0 186.5 85t73.5 224v608h181v-1047h-169v161h-7q-51 -88 -131.5 -140.5t-189.5 -52.5zM760 1263q-55 0 -99.5 26t-101.5 94q-40 48 -63 64t-49 16q-65 0 -65 -102v-94h-151v96
q0 118 53 185t146 67q54 0 96.5 -25.5t100.5 -96.5q38 -46 61.5 -62t49.5 -16q64 0 64 102v94h152v-96q0 -119 -51 -185.5t-143 -66.5z" />
    <glyph glyph-name="Umacron" unicode="&#x16a;" 
d="M360.5 28.5q-103.5 60.5 -161 168.5t-57.5 250v985h186v-974q0 -145 73 -229.5t199 -84.5q127 0 199.5 84.5t72.5 229.5v974h186v-985q0 -142 -57.5 -250t-160.5 -168.5t-239.5 -60.5t-240 60.5zM283 1726v164h634v-164h-634z" />
    <glyph glyph-name="umacron" unicode="&#x16b;" 
d="M515 -32q-157 0 -250 100.5t-93 277.5v701h181v-669q0 -121 56 -184.5t162 -63.5q113 0 186.5 85t73.5 224v608h181v-1047h-169v161h-7q-51 -88 -131.5 -140.5t-189.5 -52.5zM275 1341v164h634v-164h-634z" />
    <glyph glyph-name="Uring" unicode="&#x16e;" 
d="M360.5 28.5q-103.5 60.5 -161 168.5t-57.5 250v985h186v-974q0 -145 73 -229.5t199 -84.5q127 0 199.5 84.5t72.5 229.5v974h186v-985q0 -142 -57.5 -250t-160.5 -168.5t-239.5 -60.5t-240 60.5zM455 1581q-64 36 -101.5 98.5t-37.5 140.5q0 79 37.5 141t101.5 98t145 36
t145 -36t101.5 -98t37.5 -141q0 -78 -37.5 -140.5t-101.5 -98.5t-145 -36t-145 36zM697.5 1722q38.5 39 38.5 98t-38.5 98t-97.5 39t-97.5 -39t-38.5 -98t38.5 -98t97.5 -39t97.5 39z" />
    <glyph glyph-name="uring" unicode="&#x16f;" 
d="M515 -32q-157 0 -250 100.5t-93 277.5v701h181v-669q0 -121 56 -184.5t162 -63.5q113 0 186.5 85t73.5 224v608h181v-1047h-169v161h-7q-51 -88 -131.5 -140.5t-189.5 -52.5zM447 1196q-64 36 -101.5 98.5t-37.5 140.5q0 79 37.5 141t101.5 98t145 36t145 -36t101.5 -98
t37.5 -141q0 -78 -37.5 -140.5t-101.5 -98.5t-145 -36t-145 36zM689.5 1337q38.5 39 38.5 98t-38.5 98t-97.5 39t-97.5 -39t-38.5 -98t38.5 -98t97.5 -39t97.5 39z" />
    <glyph glyph-name="Uhungarumlaut" unicode="&#x170;" 
d="M360.5 28.5q-103.5 60.5 -161 168.5t-57.5 250v985h186v-974q0 -145 73 -229.5t199 -84.5q127 0 199.5 84.5t72.5 229.5v974h186v-985q0 -142 -57.5 -250t-160.5 -168.5t-239.5 -60.5t-240 60.5zM704 1638v11l165 349h216v-11l-215 -349h-166zM322 1638v11l165 349h216
v-11l-215 -349h-166z" />
    <glyph glyph-name="uhungarumlaut" unicode="&#x171;" 
d="M515 -32q-157 0 -250 100.5t-93 277.5v701h181v-669q0 -121 56 -184.5t162 -63.5q113 0 186.5 85t73.5 224v608h181v-1047h-169v161h-7q-51 -88 -131.5 -140.5t-189.5 -52.5zM696 1253v11l165 349h216v-11l-215 -349h-166zM314 1253v11l165 349h216v-11l-215 -349h-166z
" />
    <glyph glyph-name="Uogonek" unicode="&#x172;" 
d="M707 -534q-77 0 -138.5 33t-96.5 90t-35 129q0 232 349 369l-43 -97q-33 -9 -69 -14.5t-74 -5.5q-136 0 -239.5 60.5t-161 168t-57.5 248.5v985h186v-974q0 -145 73 -229.5t199 -84.5t199 84.5t73 229.5v974h186v-985q0 -151 -65 -262t-215 -208q-105 -68 -143.5 -120.5
t-38.5 -117.5q0 -55 37.5 -90t96.5 -35q58 0 107 26l42 -131q-79 -43 -172 -43z" />
    <glyph glyph-name="uogonek" unicode="&#x173;" 
d="M918 -534q-77 0 -138 33t-96 90.5t-35 130.5q0 110 78 202t236 165l49 -87q-109 -64 -157 -124.5t-48 -135.5q0 -56 38 -91t96 -35q56 0 107 26l44 -133q-78 -41 -174 -41zM515 -32q-157 0 -250 100.5t-93 277.5v701h181v-669q0 -121 56 -184.5t162 -63.5q113 0 186.5 85
t73.5 224v608h181v-1047h-169v161h-7q-51 -88 -131.5 -140.5t-189.5 -52.5z" />
    <glyph glyph-name="Wcircumflex" unicode="&#x174;" 
d="M224 0l-193 1432h182l123 -1129h6l53 291l134 556h142l134 -556l53 -291h6l121 1129h184l-192 -1432h-165l-170 680l-39 204h-6l-39 -204l-168 -680h-166zM230 1638v11l272 349h194l272 -349v-11h-196l-194 280h43l-195 -280h-196z" />
    <glyph glyph-name="wcircumflex" unicode="&#x175;" 
d="M257 0l-225 1047h171l129 -728l18 -118h5l19 118l138 609h179l140 -606l18 -121h6l17 121l128 725h168l-226 -1047h-182l-136 613l-21 128h-6l-21 -128l-136 -613h-183zM233 1253v11l272 349h194l272 -349v-11h-196l-194 280h43l-195 -280h-196z" />
    <glyph glyph-name="Ycircumflex" unicode="&#x176;" 
d="M518 524l-453 908h208l227 -468l100 -229h7l97 229l229 468h202l-452 -908h-165zM507 0v627h186v-627h-186zM234 1638v11l272 349h194l272 -349v-11h-196l-194 280h43l-195 -280h-196z" />
    <glyph glyph-name="ycircumflex" unicode="&#x177;" 
d="M318 -442q-146 0 -255 91l92 141q79 -64 157 -64q63 0 102.5 31.5t65.5 103.5l94 259h27l92 312l219 615h193l-465 -1231q-52 -136 -128 -197t-194 -61zM561 -95l-437 1142h195l224 -615l73 -236h30zM247 1253v11l272 349h194l272 -349v-11h-196l-194 280h43l-195 -280
h-196z" />
    <glyph glyph-name="Ydieresis" unicode="&#x178;" 
d="M518 524l-453 908h208l227 -468l100 -229h7l97 229l229 468h202l-452 -908h-165zM507 0v627h186v-627h-186zM385 1663q-61 0 -103.5 42.5t-42.5 103.5t43 103.5t103 42.5q62 0 105 -42t43 -103.5t-42.5 -104t-105.5 -42.5zM821 1663q-61 0 -103.5 42.5t-42.5 103.5
t43 103.5t103 42.5q62 0 105 -42t43 -103.5t-42.5 -104t-105.5 -42.5z" />
    <glyph glyph-name="Zacute" unicode="&#x179;" 
d="M144 0v160l681 1097h-655v175h870v-160l-680 -1097h696v-175h-912zM519 1638v11l177 349h222v-11l-227 -349h-172z" />
    <glyph glyph-name="zacute" unicode="&#x17a;" 
d="M185 0v150l600 732h-576v165h794v-150l-599 -732h611v-165h-830zM520 1253v11l177 349h222v-11l-227 -349h-172z" />
    <glyph glyph-name="Zdotaccent" unicode="&#x17b;" 
d="M144 0v160l681 1097h-655v175h870v-160l-680 -1097h696v-175h-912zM605 1663q-66 0 -110 45.5t-44 109.5q0 65 44 109t110 44q67 0 111.5 -44t44.5 -109q0 -64 -44.5 -109.5t-111.5 -45.5z" />
    <glyph glyph-name="zdotaccent" unicode="&#x17c;" 
d="M185 0v150l600 732h-576v165h794v-150l-599 -732h611v-165h-830zM606 1278q-66 0 -110 45.5t-44 109.5q0 65 44 109t110 44q67 0 111.5 -44t44.5 -109q0 -64 -44.5 -109.5t-111.5 -45.5z" />
    <glyph glyph-name="Zcaron" unicode="&#x17d;" 
d="M144 0v160l681 1097h-655v175h870v-160l-680 -1097h696v-175h-912zM508 1638l-272 349v11h196l191 -280h-35l190 280h196v-11l-272 -349h-194z" />
    <glyph glyph-name="zcaron" unicode="&#x17e;" 
d="M185 0v150l600 732h-576v165h794v-150l-599 -732h611v-165h-830zM509 1253l-272 349v11h196l191 -280h-35l190 280h196v-11l-272 -349h-194z" />
    <glyph glyph-name="longs" unicode="&#x17f;" 
d="M400 0v1088q0 124 46.5 214.5t131 140t199.5 49.5q101 0 181.5 -34t153.5 -107l-112 -130q-52 53 -104 76.5t-115 23.5q-100 0 -150.5 -62.5t-50.5 -188.5v-1070h-180zM146 899v148h342v-148h-342z" />
    <glyph glyph-name="uni0181" unicode="&#x181;" 
d="M405 0v1432h333q183 0 290 -94.5t107 -256.5v-28q0 -109 -54 -190t-156 -123v-7q121 -25 190 -113.5t69 -217.5v-28q0 -111 -52 -195.5t-144.5 -131.5t-216.5 -47h-366zM49 887q-24 56 -36.5 109.5t-12.5 102.5q0 98 46.5 173t128.5 117.5t188 42.5h163v-157h-162
q-91 0 -139.5 -47t-48.5 -133q0 -39 8 -75.5t23 -74.5zM573 158h182q120 0 184.5 60.5t64.5 175.5v24q0 116 -66 176t-194 60h-251v158h240q110 0 167 56.5t57 163.5v21q0 110 -56.5 165.5t-167.5 55.5h-160v-1116z" />
    <glyph glyph-name="uni018A" unicode="&#x18a;" 
d="M391 0v1432h229q167 0 284.5 -80.5t179.5 -231t62 -361.5v-86q0 -211 -62 -361.5t-179.5 -231t-284.5 -80.5h-229zM64 890q-23 55 -35 106t-12 99q0 99 46 175t128 119t189 43h111v-155h-109q-89 0 -138.5 -49.5t-49.5 -138.5q0 -36 7 -70t22 -71zM561 164h75
q169 0 252.5 124.5t83.5 379.5v96q0 256 -83.5 380t-252.5 124h-75v-1104z" />
    <glyph glyph-name="uni018F" unicode="&#x18f;" 
d="M616 -32q-246 0 -384 171t-138 475q0 43 2.5 81t6.5 72h916v-164h-746l1 1q0 -226 85.5 -343t251.5 -117q173 0 259.5 136.5t86.5 412.5v51q0 280 -80 412t-250 132q-220 0 -361 -209l-145 104q93 138 223.5 209.5t287.5 71.5q251 0 379 -184t128 -545v-36
q0 -232 -61.5 -395.5t-178.5 -249.5t-283 -86z" />
    <glyph glyph-name="uni0198" unicode="&#x198;" 
d="M899 0l-581 738v6l320 477q87 130 164.5 186t187.5 56q64 0 110 -17t93 -58l-94 -149q-28 26 -52.5 36t-56.5 10q-55 0 -102.5 -36t-105.5 -117l-276 -390v44l621 -786h-228zM137 0v1432h186v-1432h-186z" />
    <glyph glyph-name="uni0199" unicode="&#x199;" 
d="M174 0v1075q0 195 102 307t277 112q118 0 222 -55l-68 -152q-64 35 -147 35q-204 0 -204 -255v-1067h-182zM842 0l-493 561v6l470 480h233l-535 -538v116l561 -625h-236z" />
    <glyph glyph-name="Ohorn" unicode="&#x1a0;" 
d="M599 -32q-161 0 -278.5 88.5t-180.5 251.5t-63 389v38q0 229 64.5 392t183.5 249.5t282 86.5q68 0 119 -7.5t108 -7.5q80 0 121 30.5t41 88.5q0 33 -12.5 66t-41.5 71l166 104q76 -106 76 -212q0 -117 -86.5 -182t-228.5 -65h-105l7 66q169 -70 260 -246t91 -434v-38
q0 -226 -63 -389t-180.5 -251.5t-279.5 -88.5zM599 144q161 0 247.5 142t86.5 406v52q0 269 -82 408.5t-244 139.5q-163 0 -252.5 -144.5t-89.5 -407.5v-48q0 -264 87 -406t247 -142z" />
    <glyph glyph-name="ohorn" unicode="&#x1a1;" 
d="M598 -31q-146 0 -255 68t-169 189.5t-60 283.5v27q0 163 60 284.5t169 189t255 67.5q69 0 117.5 -7t103.5 -7q143 0 143 113q0 35 -12 67t-38 70l171 91q67 -100 67 -204q0 -105 -81 -168t-218 -63h-106l14 63q155 -47 239 -176.5t84 -319.5v-27q0 -163 -60 -284.5
t-169 -189t-255 -67.5zM598 137q140 0 219 99.5t79 276.5v21q0 179 -79 280.5t-219 101.5q-139 0 -218.5 -101.5t-79.5 -280.5v-21q0 -177 79.5 -276.5t218.5 -99.5z" />
    <glyph glyph-name="Uhorn" unicode="&#x1af;" 
d="M530 -31q-127 0 -223 55.5t-150 154.5t-54 230v1023h183v-1012q0 -127 65.5 -200.5t179.5 -73.5q113 0 178.5 73.5t65.5 200.5v1012h59q77 0 118 32t41 91q0 37 -14.5 72.5t-45.5 77.5l163 103q43 -58 64 -114t21 -116q0 -118 -86 -186t-230 -68h-36l128 86v-1001
q0 -131 -53.5 -230t-149.5 -154.5t-224 -55.5z" />
    <glyph glyph-name="uhorn" unicode="&#x1b0;" 
d="M484 -31q-144 0 -229 92.5t-85 255.5v730h178v-699q0 -106 49.5 -162.5t142.5 -56.5q104 0 169 81t65 217v620h65q147 0 147 115q0 30 -11.5 58t-35.5 57l161 109q38 -47 56 -94.5t18 -103.5q0 -109 -84.5 -173.5t-227.5 -64.5h-39l130 87v-1037h-169v155h-7
q-49 -86 -122 -136t-171 -50z" />
    <glyph glyph-name="uni01B3" unicode="&#x1b3;" 
d="M431 509l-397 923h208l191 -477l80 -229h6l67 215l50 136q51 139 104.5 224t119.5 123.5t153 38.5q52 0 96 -12t90 -40l-71 -152q-24 14 -46.5 21t-51.5 7q-50 0 -87.5 -24t-72 -84.5t-77.5 -168.5l-197 -501h-165zM420 0v611h187v-611h-187z" />
    <glyph glyph-name="uni01B4" unicode="&#x1b4;" 
d="M255 -442q-139 0 -246 80l86 140q74 -53 152 -53q68 0 110 36.5t63 114.5l69 256h28l60 303l122 506q99 412 401 412q96 0 176 -43l-57 -151q-24 13 -49.5 20t-60.5 7q-88 0 -144.5 -65.5t-96.5 -214.5l-283 -1061q-37 -140 -121.5 -213.5t-208.5 -73.5zM457 -68
l-385 1115h192l197 -612l62 -239h35z" />
    <glyph glyph-name="uni01C4" unicode="&#x1c4;" 
d="M40 0v1432h220q194 0 287 -160.5t93 -492.5v-126q0 -332 -93 -492.5t-287 -160.5h-220zM198 156h56q120 0 173 114.5t53 377.5v136q0 263 -53 377.5t-173 114.5h-56v-1120zM643 0v135l364 1135h-338v162h509v-135l-364 -1135h379v-162h-550zM838 1638l-231 349v11h167
l165 -280h-31l164 280h168v-11l-232 -349h-170z" />
    <glyph glyph-name="uni01C5" unicode="&#x1c5;" 
d="M35 0v1432h218q197 0 291.5 -160.5t94.5 -492.5v-126q0 -332 -94.5 -492.5t-291.5 -160.5h-218zM191 156h61q122 0 175.5 114.5t53.5 377.5v136q0 263 -53.5 377.5t-175.5 114.5h-61v-1120zM686 0v135l328 754h-302v158h474v-134l-329 -755h335v-158h-506zM861 1253
l-197 349v11h166l131 -276h-32l131 276h166v-11l-197 -349h-168z" />
    <glyph glyph-name="uni01C6" unicode="&#x1c6;" 
d="M282 -32q-80 0 -140 67t-93.5 187t-33.5 279v45q0 159 30.5 279t87 187t134.5 67q59 0 101.5 -37.5t75.5 -111.5h7v530h160v-1460h-142v137h-6q-28 -82 -74 -125.5t-107 -43.5zM328 126q66 0 101 94.5t35 262.5v81q0 168 -36 262.5t-104 94.5q-67 0 -105 -92t-38 -264
v-83q0 -172 40 -264t107 -92zM697 0v134l323 755h-315v158h487v-134l-323 -755h334v-158h-506zM874 1253l-197 349v11h166l132 -276h-33l131 276h166v-11l-197 -349h-168z" />
    <glyph glyph-name="uni01C7" unicode="&#x1c7;" 
d="M852 -31q-76 0 -141.5 22.5t-123.5 64.5l88 147q75 -59 163 -59q74 0 114.5 47t40.5 134v1107h182v-1117q0 -155 -88 -250.5t-235 -95.5zM22 0v1432h182v-1260h333v-172h-515z" />
    <glyph glyph-name="uni01C8" unicode="&#x1c8;" 
d="M761 -442q-176 0 -327 111l89 138q116 -85 230 -85q204 0 204 240v1085h174v-1085q0 -187 -101 -295.5t-269 -108.5zM71 0v1432h180v-1260h446v-172h-626zM568 899v148h489v-148h-489zM1015 1278q-63 0 -108 45t-45 108t44.5 106.5t108.5 43.5q65 0 108 -43t43 -108
q0 -64 -43.5 -108t-107.5 -44z" />
    <glyph glyph-name="uni01C9" unicode="&#x1c9;" 
d="M811 -442q-159 0 -297 108l91 130q51 -40 98.5 -59.5t102.5 -19.5q176 0 176 212v1118h170v-1116q0 -171 -93 -272t-248 -101zM584 0q-149 0 -237 93t-88 252v1115h170v-1107q0 -191 158 -191q47 0 85 18.5t78 61.5l96 -124q-111 -118 -262 -118zM18 1313v147h317v-147
h-317zM689 899v148h419v-148h-419zM1036 1278q-63 0 -108 45t-45 108t44.5 106.5t108.5 43.5q65 0 108 -43t43 -108q0 -64 -44 -108t-107 -44z" />
    <glyph glyph-name="uni01CA" unicode="&#x1ca;" 
d="M22 0v1432h219l262 -1147h11l-27 557v590h150v-1432h-201l-277 1205h-11l24 -553v-652h-150zM902 -31q-121 0 -212 76l77 131q56 -49 119 -49q125 0 125 159v1146h164v-1153q0 -143 -72.5 -226.5t-200.5 -83.5z" />
    <glyph glyph-name="uni01CB" unicode="&#x1cb;" 
d="M22 0v1432h215l338 -1127h11l-36 527v600h154v-1432h-188l-357 1205h-10l27 -533v-672h-154zM804 -442q-146 0 -269 96l90 129q45 -34 85.5 -50t85.5 -16q157 0 157 203v1127h170v-1126q0 -166 -86.5 -264.5t-232.5 -98.5zM1038 1279q-62 0 -105.5 44t-43.5 108t42.5 107
t106.5 43t105.5 -43t41.5 -108q0 -64 -42.5 -107.5t-104.5 -43.5z" />
    <glyph glyph-name="uni01CC" unicode="&#x1cc;" 
d="M788 -442q-74 0 -146 25.5t-136 75.5l88 130q91 -71 187 -71q86 0 130 54t44 160v1115h171v-1114q0 -173 -91.5 -274t-246.5 -101zM69 0v1047h155v-153h9q100 184 276 184q125 0 194.5 -89t69.5 -247v-742h-171v716q0 207 -153 207q-92 0 -151 -76.5t-59 -199.5v-647
h-170zM1041 1279q-62 0 -105.5 44.5t-43.5 107.5t42.5 106.5t106.5 43.5t105.5 -43t41.5 -108q0 -64 -42.5 -107.5t-104.5 -43.5z" />
    <glyph glyph-name="uni01EA" unicode="&#x1ea;" 
d="M320.5 56.5q-117.5 88.5 -181 251.5t-63.5 389v38q0 226 63.5 389t181 251.5t279.5 88.5t279.5 -88.5t181 -251.5t63.5 -389v-38q0 -226 -63.5 -389t-181 -251.5t-279.5 -88.5t-279.5 88.5zM847.5 286q86.5 142 86.5 406v48q0 262 -87.5 405t-246.5 143t-246.5 -143
t-87.5 -405v-48q0 -264 87 -406t247.5 -142t247 142zM713 -503q-77 0 -138.5 33t-96.5 90t-35 129q0 117 86 208.5t263 160.5l49 -87q-126 -63 -182.5 -125t-56.5 -136q0 -55 37.5 -90t96.5 -35q58 0 107 26l42 -131q-79 -43 -172 -43z" />
    <glyph glyph-name="uni01EB" unicode="&#x1eb;" 
d="M345.5 36q-109.5 68 -170.5 190.5t-61 283.5v27q0 162 61 284t170.5 190t254.5 68t254.5 -68t170.5 -190t61 -284v-27q0 -161 -61 -283.5t-170.5 -190.5t-254.5 -68t-254.5 68zM820 237q80 101 80 276v21q0 176 -80 276.5t-219.5 100.5t-220 -100.5t-80.5 -276.5v-21
q0 -175 80.5 -276t220 -101t219.5 101zM703 -511q-77 0 -138.5 33t-96.5 90t-35 129q0 117 86 208.5t263 160.5l49 -87q-126 -63 -182.5 -125t-56.5 -136q0 -55 37.5 -90t96.5 -35q58 0 107 26l42 -131q-79 -43 -172 -43z" />
    <glyph glyph-name="uni01F8" unicode="&#x1f8;" 
d="M108 0v1432h190l622 -1092h5l-21 331v761h188v-1432h-164l-649 1138h-5l22 -332v-806h-188zM515 1638l-226 349v11h222l176 -349v-11h-172z" />
    <glyph glyph-name="uni01F9" unicode="&#x1f9;" 
d="M185 0v1047h169v-160h7q60 93 147 142.5t199 49.5q162 0 250 -106t88 -285v-688h-181v660q0 127 -56 192.5t-165 65.5q-124 0 -200.5 -84t-76.5 -233v-601h-181zM531 1253l-226 349v11h222l176 -349v-11h-172z" />
    <glyph glyph-name="AEacute" unicode="&#x1fc;" 
d="M9 0l464 1432h274l-55 -180h-119l-60 -229l-317 -1023h-187zM238 367l36 166h395v-166h-431zM616 0v1432h552v-171h-385v-1090h401v-171h-568zM709 649v170h395v-170h-395zM715 1638v11l177 349h222v-11l-227 -349h-172z" />
    <glyph glyph-name="aeacute" unicode="&#x1fd;" 
d="M329 -32q-90 0 -159 44t-108 122t-39 180v9q0 156 87.5 251t229.5 95q101 0 182 -48v-140q-66 43 -147 43q-83 0 -129.5 -51t-46.5 -143v-17q0 -87 39.5 -138.5t106.5 -51.5q79 0 120 74.5t41 216.5v284q0 115 -35.5 169t-110.5 54q-98 0 -177 -103l-120 103
q120 158 297 158q122 0 196 -75t92 -218h-80q30 134 112 213.5t190 79.5q144 0 223 -121.5t79 -342.5q0 -29 -1 -65t-3 -77h-557v140h393v8q0 300 -150 300q-87 0 -138 -102t-51 -277v-32q0 -181 51.5 -283.5t142.5 -102.5q52 0 91.5 36t76.5 117l140 -67
q-54 -122 -129 -182t-174 -60q-120 0 -205.5 90.5t-110.5 243.5h87q-26 -162 -105 -248t-201 -86zM532 1253v11l177 349h222v-11l-227 -349h-172z" />
    <glyph glyph-name="uni0218" unicode="&#x218;" 
d="M641 -32q-132 0 -241.5 46t-188.5 133t-121 209l173 63q47 -136 142.5 -206t232.5 -70q131 0 204.5 58t73.5 160v17q0 85 -57 142t-188 103l-197 69q-303 106 -303 374v7q0 117 56.5 205t158 137t234.5 49q179 0 300.5 -80t177.5 -236l-172 -65q-73 206 -305 206
q-119 0 -191.5 -56t-72.5 -150v-12q0 -73 47 -123.5t150 -86.5l197 -69q182 -64 266.5 -165t84.5 -253v-8q0 -120 -58 -209.5t-161.5 -139t-241.5 -49.5zM555 -779l-116 77l189 271l-1 -45q-71 3 -115.5 45t-44.5 105q0 64 44.5 106.5t110.5 42.5q73 0 117.5 -45.5
t44.5 -119.5q0 -44 -18.5 -92.5t-59.5 -111.5z" />
    <glyph glyph-name="uni0219" unicode="&#x219;" 
d="M655 -32q-174 0 -298 72.5t-189 211.5l154 73q43 -93 129 -144t200 -51q93 0 147 37t54 101v10q0 59 -44 94.5t-151 63.5l-145 38q-132 35 -202.5 109t-70.5 186v2q0 142 103.5 225t280.5 83q150 0 250 -55t155 -168l-154 -73q-68 134 -256 134q-94 0 -146.5 -35
t-52.5 -98v-6q0 -53 39 -86t128 -56l145 -38q156 -41 228.5 -116.5t72.5 -199.5v-4q0 -139 -103.5 -224.5t-273.5 -85.5zM554 -779l-116 77l189 271l-1 -45q-71 3 -115.5 45t-44.5 105q0 64 44.5 106.5t110.5 42.5q73 0 117.5 -45.5t44.5 -119.5q0 -44 -18.5 -92.5
t-59.5 -111.5z" />
    <glyph glyph-name="uni021A" unicode="&#x21a;" 
d="M507 0v1350h186v-1350h-186zM108 1256v176h984v-176h-984zM517 -779l-116 77l189 271l-1 -45q-71 3 -115.5 45t-44.5 105q0 64 44.5 106.5t110.5 42.5q73 0 117.5 -45.5t44.5 -119.5q0 -44 -18.5 -92.5t-59.5 -111.5z" />
    <glyph glyph-name="uni021B" unicode="&#x21b;" 
d="M786 -32q-182 0 -283.5 101.5t-101.5 282.5v974h183v-960q0 -117 49.5 -172.5t152.5 -55.5q108 0 196 88l102 -136q-122 -122 -298 -122zM116 891v156h905v-156h-905zM619 -811l-116 77l189 271l-1 -45q-71 3 -115.5 45t-44.5 105q0 64 44.5 106.5t110.5 42.5
q73 0 117.5 -45.5t44.5 -119.5q0 -44 -18.5 -92.5t-59.5 -111.5z" />
    <glyph glyph-name="uni0237" unicode="&#x237;" 
d="M444 -442q-178 0 -333 112l92 143q59 -43 117 -65t119 -22q101 0 153.5 61t52.5 178v1082h180v-1078q0 -190 -103.5 -300.5t-277.5 -110.5zM239 899v148h543v-148h-543z" />
    <glyph glyph-name="uni0253" unicode="&#x253;" 
d="M653 -32q-106 0 -191 53.5t-135 150.5h-7v-172h-167v1071q0 194 105.5 308.5t289.5 114.5q67 0 122.5 -14t114.5 -46l-68 -153q-40 22 -77 31.5t-87 9.5q-109 0 -164 -64t-55 -195v-178h6q57 92 140.5 139t187.5 47q123 0 214.5 -66.5t142 -186.5t50.5 -280v-35
q0 -160 -53 -280.5t-147.5 -187.5t-221.5 -67zM613 132q128 0 202 100t74 275v26q0 176 -73.5 275t-202.5 99q-130 0 -207.5 -102t-77.5 -272v-24q0 -172 77.5 -274.5t207.5 -102.5z" />
    <glyph glyph-name="uni0257" unicode="&#x257;" 
d="M464 -32q-118 0 -207 66t-138.5 185.5t-49.5 277.5v55q0 160 48 278.5t135 183.5t204 65q193 0 283 -179h6v239q0 111 38 190.5t106 122t158 42.5q47 0 87 -10.5t77 -32.5l-59 -153q-20 13 -42 19.5t-48 6.5q-73 0 -107.5 -47t-34.5 -148v-1129h-162v168h-6
q-85 -200 -288 -200zM502 129q116 0 182.5 100t66.5 272v46q0 172 -66.5 271.5t-182.5 99.5q-119 0 -185.5 -97.5t-66.5 -273.5v-46q0 -174 67 -273t185 -99z" />
    <glyph glyph-name="uni0259" unicode="&#x259;" 
d="M606 -32q-139 0 -243 61t-162 170.5t-58 255.5q0 36 1 62.5t4 50.5h814v-144h-639v-5q0 -131 78 -210.5t205 -79.5q136 0 213 101t77 279v40q0 177 -74.5 271.5t-217.5 94.5q-192 0 -336 -156l-113 119q91 99 206 150t248 51q218 0 342.5 -143t124.5 -388v-38
q0 -162 -58.5 -284t-164.5 -190t-247 -68z" />
    <glyph glyph-name="uni02BB" unicode="&#x2bb;" 
d="M659 1855l116 -77l-189 -271l1 45q71 -3 115.5 -45t44.5 -105q0 -64 -44.5 -106.5t-110.5 -42.5q-73 0 -117.5 45.5t-44.5 119.5q0 44 18.5 92.5t59.5 111.5z" />
    <glyph glyph-name="uni02BC" unicode="&#x2bc;" 
d="M579 882h-196l252 578h256z" />
    <glyph glyph-name="circumflex" unicode="&#x2c6;" 
d="M231 1253v11l272 349h194l272 -349v-11h-196l-194 280h43l-195 -280h-196z" />
    <glyph glyph-name="caron" unicode="&#x2c7;" 
d="M503 1253l-272 349v11h196l191 -280h-35l190 280h196v-11l-272 -349h-194z" />
    <glyph glyph-name="breve" unicode="&#x2d8;" 
d="M419.5 1293.5q-78.5 44.5 -123 123.5t-44.5 182v14h162v-20q0 -89 50.5 -142t136 -53t135.5 53t50 142v20h162v-14q0 -103 -44.5 -182t-122.5 -123.5t-180.5 -44.5t-181 44.5z" />
    <glyph glyph-name="dotaccent" unicode="&#x2d9;" 
d="M599 1278q-66 0 -110 45.5t-44 109.5q0 65 44 109t110 44q67 0 111.5 -44t44.5 -109q0 -64 -44.5 -109.5t-111.5 -45.5z" />
    <glyph glyph-name="ring" unicode="&#x2da;" 
d="M455 1196q-64 36 -101.5 98.5t-37.5 140.5q0 79 37.5 141t101.5 98t145 36t145 -36t101.5 -98t37.5 -141q0 -78 -37.5 -140.5t-101.5 -98.5t-145 -36t-145 36zM697.5 1337q38.5 39 38.5 98t-38.5 98t-97.5 39t-97.5 -39t-38.5 -98t38.5 -98t97.5 -39t97.5 39z" />
    <glyph glyph-name="ogonek" unicode="&#x2db;" 
d="M649 -537q-77 0 -138.5 33t-96.5 90t-35 129q0 117 86 208.5t263 160.5l49 -87q-126 -63 -182.5 -125t-56.5 -136q0 -55 37.5 -90t96.5 -35q58 0 107 26l42 -131q-79 -43 -172 -43z" />
    <glyph glyph-name="tilde" unicode="&#x2dc;" 
d="M767 1263q-55 0 -99.5 26t-101.5 94q-40 48 -63 64t-49 16q-65 0 -65 -102v-94h-151v96q0 118 53 185t146 67q54 0 96.5 -25.5t100.5 -96.5q38 -46 61.5 -62t49.5 -16q64 0 64 102v94h152v-96q0 -119 -51 -185.5t-143 -66.5z" />
    <glyph glyph-name="hungarumlaut" unicode="&#x2dd;" 
d="M600 1253v11l165 349h216v-11l-215 -349h-166zM218 1253v11l165 349h216v-11l-215 -349h-166z" />
    <glyph glyph-name="gravecomb" unicode="&#x300;" horiz-adv-x="0" 
d="M-86 1253l-226 349v11h222l176 -349v-11h-172z" />
    <glyph glyph-name="acutecomb" unicode="&#x301;" horiz-adv-x="0" 
d="M-86 1253v11l177 349h222v-11l-227 -349h-172z" />
    <glyph glyph-name="uni0302" unicode="&#x302;" horiz-adv-x="0" 
d="M-369 1253v11l272 349h194l272 -349v-11h-196l-194 280h43l-195 -280h-196z" />
    <glyph glyph-name="tildecomb" unicode="&#x303;" horiz-adv-x="0" 
d="M168 1263q-55 0 -99.5 26t-101.5 94q-40 48 -63 64t-49 16q-65 0 -65 -102v-94h-151v96q0 118 53 185t146 67q54 0 96.5 -25.5t100.5 -96.5q38 -46 61.5 -62t49.5 -16q64 0 64 102v94h152v-96q0 -119 -51 -185.5t-143 -66.5z" />
    <glyph glyph-name="uni0304" unicode="&#x304;" horiz-adv-x="0" 
d="M-317 1341v164h634v-164h-634z" />
    <glyph glyph-name="uni0306" unicode="&#x306;" horiz-adv-x="0" 
d="M-180.5 1293.5q-78.5 44.5 -123 123.5t-44.5 182v14h162v-20q0 -89 50.5 -142t136 -53t135.5 53t50 142v20h162v-14q0 -103 -44.5 -182t-122.5 -123.5t-180.5 -44.5t-181 44.5z" />
    <glyph glyph-name="uni0307" unicode="&#x307;" horiz-adv-x="0" 
d="M0 1278q-66 0 -110 45.5t-44 109.5q0 65 44 109t110 44q67 0 111.5 -44t44.5 -109q0 -64 -44.5 -109.5t-111.5 -45.5z" />
    <glyph glyph-name="uni0308" unicode="&#x308;" horiz-adv-x="0" 
d="M-218 1278q-61 0 -103.5 42.5t-42.5 103.5t43 103.5t103 42.5q62 0 105 -42t43 -103.5t-42.5 -104t-105.5 -42.5zM218 1278q-61 0 -103.5 42.5t-42.5 103.5t43 103.5t103 42.5q62 0 105 -42t43 -103.5t-42.5 -104t-105.5 -42.5z" />
    <glyph glyph-name="hookabovecomb" unicode="&#x309;" horiz-adv-x="0" 
d="M-14 1175l-23 144q84 9 126.5 38.5t42.5 78.5q0 94 -130 94q-81 0 -165 -31l-45 143q50 21 104.5 32.5t109.5 11.5q125 0 200 -67t75 -177t-77.5 -180t-217.5 -87z" />
    <glyph glyph-name="uni030A" unicode="&#x30a;" horiz-adv-x="0" 
d="M-145 1196q-64 36 -101.5 98.5t-37.5 140.5q0 79 37.5 141t101.5 98t145 36t145 -36t101.5 -98t37.5 -141q0 -78 -37.5 -140.5t-101.5 -98.5t-145 -36t-145 36zM97.5 1337q38.5 39 38.5 98t-38.5 98t-97.5 39t-97.5 -39t-38.5 -98t38.5 -98t97.5 -39t97.5 39z" />
    <glyph glyph-name="uni030B" unicode="&#x30b;" horiz-adv-x="0" 
d="M104 1253v11l165 349h216v-11l-215 -349h-166zM-278 1253v11l165 349h216v-11l-215 -349h-166z" />
    <glyph glyph-name="uni030C" unicode="&#x30c;" horiz-adv-x="0" 
d="M-97 1253l-272 349v11h196l191 -280h-35l190 280h196v-11l-272 -349h-194z" />
    <glyph glyph-name="uni0312" unicode="&#x312;" horiz-adv-x="0" 
d="M83 1855l116 -77l-189 -271l1 45q71 -3 115.5 -45t44.5 -105q0 -64 -44.5 -106.5t-110.5 -42.5q-73 0 -117.5 45.5t-44.5 119.5q0 44 18.5 92.5t59.5 111.5z" />
    <glyph glyph-name="uni031B" unicode="&#x31b;" horiz-adv-x="0" 
d="M-60 1326v106h29q145 0 145 119q0 32 -11 61t-36 63l182 101q63 -97 63 -194q0 -76 -38 -134t-106.5 -90t-160.5 -32h-67z" />
    <glyph glyph-name="dotbelowcomb" unicode="&#x323;" horiz-adv-x="0" 
d="M0 -485q-66 0 -110 45.5t-44 109.5q0 65 44 109t110 44q67 0 111.5 -44t44.5 -109q0 -64 -44.5 -109.5t-111.5 -45.5z" />
    <glyph glyph-name="uni0326" unicode="&#x326;" horiz-adv-x="0" 
d="M-83 -779l-116 77l189 271l-1 -45q-71 3 -115.5 45t-44.5 105q0 64 44.5 106.5t110.5 42.5q73 0 117.5 -45.5t44.5 -119.5q0 -44 -18.5 -92.5t-59.5 -111.5z" />
    <glyph glyph-name="uni0327" unicode="&#x327;" horiz-adv-x="0" 
d="M2 -615q-82 0 -155 36.5t-123 101.5l110 91q73 -91 168 -91q59 0 95.5 31t36.5 83q0 54 -32.5 86.5t-86.5 32.5q-64 0 -105 -37l-95 81l133 214h124l-142 -223l-72 11q35 37 83.5 57t100.5 20q109 0 175.5 -67t66.5 -177q0 -112 -77.5 -181t-204.5 -69z" />
    <glyph glyph-name="uni0328" unicode="&#x328;" horiz-adv-x="0" 
d="M-56 -537q-77 0 -138.5 33t-96.5 90t-35 129q0 117 86 208.5t263 160.5l49 -87q-126 -63 -182.5 -125t-56.5 -136q0 -55 37.5 -90t96.5 -35q58 0 107 26l42 -131q-79 -43 -172 -43z" />
    <glyph glyph-name="uni0329" unicode="&#x329;" horiz-adv-x="0" 
d="M-96 -613v424h192v-424h-192z" />
    <glyph glyph-name="uni1E44" unicode="&#x1e44;" 
d="M108 0v1432h190l622 -1092h5l-21 331v761h188v-1432h-164l-649 1138h-5l22 -332v-806h-188zM601 1663q-66 0 -110 45.5t-44 109.5q0 65 44 109t110 44q67 0 111.5 -44t44.5 -109q0 -64 -44.5 -109.5t-111.5 -45.5z" />
    <glyph glyph-name="uni1E45" unicode="&#x1e45;" 
d="M185 0v1047h169v-160h7q60 93 147 142.5t199 49.5q162 0 250 -106t88 -285v-688h-181v660q0 127 -56 192.5t-165 65.5q-124 0 -200.5 -84t-76.5 -233v-601h-181zM617 1278q-66 0 -110 45.5t-44 109.5q0 65 44 109t110 44q67 0 111.5 -44t44.5 -109q0 -64 -44.5 -109.5
t-111.5 -45.5z" />
    <glyph glyph-name="uni1E62" unicode="&#x1e62;" 
d="M641 -32q-132 0 -241.5 46t-188.5 133t-121 209l173 63q47 -136 142.5 -206t232.5 -70q131 0 204.5 58t73.5 160v17q0 85 -57 142t-188 103l-197 69q-303 106 -303 374v7q0 117 56.5 205t158 137t234.5 49q179 0 300.5 -80t177.5 -236l-172 -65q-73 206 -305 206
q-119 0 -191.5 -56t-72.5 -150v-12q0 -73 47 -123.5t150 -86.5l197 -69q182 -64 266.5 -165t84.5 -253v-8q0 -120 -58 -209.5t-161.5 -139t-241.5 -49.5zM638 -485q-66 0 -110 45.5t-44 109.5q0 65 44 109t110 44q67 0 111.5 -44t44.5 -109q0 -64 -44.5 -109.5t-111.5 -45.5
z" />
    <glyph glyph-name="uni1E63" unicode="&#x1e63;" 
d="M655 -32q-174 0 -298 72.5t-189 211.5l154 73q43 -93 129 -144t200 -51q93 0 147 37t54 101v10q0 59 -44 94.5t-151 63.5l-145 38q-132 35 -202.5 109t-70.5 186v2q0 142 103.5 225t280.5 83q150 0 250 -55t155 -168l-154 -73q-68 134 -256 134q-94 0 -146.5 -35
t-52.5 -98v-6q0 -53 39 -86t128 -56l145 -38q156 -41 228.5 -116.5t72.5 -199.5v-4q0 -139 -103.5 -224.5t-273.5 -85.5zM625 -485q-66 0 -110 45.5t-44 109.5q0 65 44 109t110 44q67 0 111.5 -44t44.5 -109q0 -64 -44.5 -109.5t-111.5 -45.5z" />
    <glyph glyph-name="Wgrave" unicode="&#x1e80;" 
d="M224 0l-193 1432h182l123 -1129h6l53 291l134 556h142l134 -556l53 -291h6l121 1129h184l-192 -1432h-165l-170 680l-39 204h-6l-39 -204l-168 -680h-166zM513 1638l-226 349v11h222l176 -349v-11h-172z" />
    <glyph glyph-name="wgrave" unicode="&#x1e81;" 
d="M257 0l-225 1047h171l129 -728l18 -118h5l19 118l138 609h179l140 -606l18 -121h6l17 121l128 725h168l-226 -1047h-182l-136 613l-21 128h-6l-21 -128l-136 -613h-183zM516 1253l-226 349v11h222l176 -349v-11h-172z" />
    <glyph glyph-name="Wacute" unicode="&#x1e82;" 
d="M224 0l-193 1432h182l123 -1129h6l53 291l134 556h142l134 -556l53 -291h6l121 1129h184l-192 -1432h-165l-170 680l-39 204h-6l-39 -204l-168 -680h-166zM513 1638v11l177 349h222v-11l-227 -349h-172z" />
    <glyph glyph-name="wacute" unicode="&#x1e83;" 
d="M257 0l-225 1047h171l129 -728l18 -118h5l19 118l138 609h179l140 -606l18 -121h6l17 121l128 725h168l-226 -1047h-182l-136 613l-21 128h-6l-21 -128l-136 -613h-183zM516 1253v11l177 349h222v-11l-227 -349h-172z" />
    <glyph glyph-name="Wdieresis" unicode="&#x1e84;" 
d="M224 0l-193 1432h182l123 -1129h6l53 291l134 556h142l134 -556l53 -291h6l121 1129h184l-192 -1432h-165l-170 680l-39 204h-6l-39 -204l-168 -680h-166zM381 1663q-61 0 -103.5 42.5t-42.5 103.5t43 103.5t103 42.5q62 0 105 -42t43 -103.5t-42.5 -104t-105.5 -42.5z
M817 1663q-61 0 -103.5 42.5t-42.5 103.5t43 103.5t103 42.5q62 0 105 -42t43 -103.5t-42.5 -104t-105.5 -42.5z" />
    <glyph glyph-name="wdieresis" unicode="&#x1e85;" 
d="M257 0l-225 1047h171l129 -728l18 -118h5l19 118l138 609h179l140 -606l18 -121h6l17 121l128 725h168l-226 -1047h-182l-136 613l-21 128h-6l-21 -128l-136 -613h-183zM384 1278q-61 0 -103.5 42.5t-42.5 103.5t43 103.5t103 42.5q62 0 105 -42t43 -103.5t-42.5 -104
t-105.5 -42.5zM820 1278q-61 0 -103.5 42.5t-42.5 103.5t43 103.5t103 42.5q62 0 105 -42t43 -103.5t-42.5 -104t-105.5 -42.5z" />
    <glyph glyph-name="uni1E9E" unicode="&#x1e9e;" 
d="M770 -32q-111 0 -204 48.5t-151 132.5l138 110q79 -116 213 -116q97 0 152.5 71.5t55.5 196.5v24q0 137 -74 207t-217 70h-95v90l202 450v8h-210q-142 0 -210 -73.5t-68 -223.5v-963h-184v972q0 224 118 342t342 118h436v-90l-218 -484v-53l-41 47q194 0 299.5 -112
t105.5 -318v-28q0 -129 -48 -225t-135.5 -148.5t-206.5 -52.5z" />
    <glyph glyph-name="uni1EA0" unicode="&#x1ea0;" 
d="M58 0l445 1432h197l443 -1432h-196l-305 1063l-40 155h-6l-41 -155l-303 -1063h-194zM254 369l52 167h586l53 -167h-691zM600 -462q-66 0 -110 45.5t-44 109.5q0 65 44 109t110 44q67 0 111.5 -44t44.5 -109q0 -64 -44.5 -109.5t-111.5 -45.5z" />
    <glyph glyph-name="uni1EA1" unicode="&#x1ea1;" 
d="M525 -32q-107 0 -189 42.5t-128 118t-46 173.5v15q0 161 109.5 256.5t289.5 95.5q83 0 156 -19t129 -53v-140q-106 68 -253 68q-113 0 -180 -53.5t-67 -147.5v-10q0 -89 57.5 -139.5t154.5 -50.5q81 0 142 39.5t95.5 109.5t34.5 159v251q0 110 -57.5 173t-173.5 63
q-154 0 -270 -118l-113 120q147 158 384 158q194 0 300.5 -106t106.5 -285v-688h-169v152h-7q-46 -86 -123 -135t-183 -49zM614 -517q-66 0 -110 45.5t-44 109.5q0 65 44 109t110 44q67 0 111.5 -44t44.5 -109q0 -64 -44.5 -109.5t-111.5 -45.5z" />
    <glyph glyph-name="uni1EA2" unicode="&#x1ea2;" 
d="M58 0l445 1432h197l443 -1432h-196l-305 1063l-40 155h-6l-41 -155l-303 -1063h-194zM254 369l52 167h586l53 -167h-691zM588 1560l-23 144q84 9 126.5 38.5t42.5 78.5q0 94 -130 94q-81 0 -165 -31l-45 143q50 21 104.5 32.5t109.5 11.5q125 0 200 -67t75 -177
t-77.5 -180t-217.5 -87z" />
    <glyph glyph-name="uni1EA3" unicode="&#x1ea3;" 
d="M525 -32q-107 0 -189 42.5t-128 118t-46 173.5v15q0 161 109.5 256.5t289.5 95.5q83 0 156 -19t129 -53v-140q-106 68 -253 68q-113 0 -180 -53.5t-67 -147.5v-10q0 -89 57.5 -139.5t154.5 -50.5q81 0 142 39.5t95.5 109.5t34.5 159v251q0 110 -57.5 173t-173.5 63
q-154 0 -270 -118l-113 120q147 158 384 158q194 0 300.5 -106t106.5 -285v-688h-169v152h-7q-46 -86 -123 -135t-183 -49zM586 1175l-23 144q84 9 126.5 38.5t42.5 78.5q0 94 -130 94q-81 0 -165 -31l-45 143q50 21 104.5 32.5t109.5 11.5q125 0 200 -67t75 -177
t-77.5 -180t-217.5 -87z" />
    <glyph glyph-name="uni1EA4" unicode="&#x1ea4;" 
d="M58 0l445 1432h197l443 -1432h-196l-305 1063l-40 155h-6l-41 -155l-303 -1063h-194zM254 369l52 167h586l53 -167h-691zM220 1548v11l292 335h180l293 -335v-11h-200l-201 252h37l-201 -252h-200zM806 1849v11l163 359h191v-10l-216 -360h-138z" />
    <glyph glyph-name="uni1EA5" unicode="&#x1ea5;" 
d="M525 -32q-107 0 -189 42.5t-128 118t-46 173.5v15q0 161 109.5 256.5t289.5 95.5q83 0 156 -19t129 -53v-140q-106 68 -253 68q-113 0 -180 -53.5t-67 -147.5v-10q0 -89 57.5 -139.5t154.5 -50.5q81 0 142 39.5t95.5 109.5t34.5 159v251q0 110 -57.5 173t-173.5 63
q-154 0 -270 -118l-113 120q147 158 384 158q194 0 300.5 -106t106.5 -285v-688h-169v152h-7q-46 -86 -123 -135t-183 -49zM218 1230v11l292 335h180l293 -335v-11h-200l-201 252h37l-201 -252h-200zM804 1531v11l163 359h191v-10l-216 -360h-138z" />
    <glyph glyph-name="uni1EA6" unicode="&#x1ea6;" 
d="M58 0l445 1432h197l443 -1432h-196l-305 1063l-40 155h-6l-41 -155l-303 -1063h-194zM254 369l52 167h586l53 -167h-691zM220 1548v11l292 335h180l293 -335v-11h-200l-201 252h37l-201 -252h-200zM925 1841l-228 359v11h194l177 -360v-10h-143z" />
    <glyph glyph-name="uni1EA7" unicode="&#x1ea7;" 
d="M525 -32q-107 0 -189 42.5t-128 118t-46 173.5v15q0 161 109.5 256.5t289.5 95.5q83 0 156 -19t129 -53v-140q-106 68 -253 68q-113 0 -180 -53.5t-67 -147.5v-10q0 -89 57.5 -139.5t154.5 -50.5q81 0 142 39.5t95.5 109.5t34.5 159v251q0 110 -57.5 173t-173.5 63
q-154 0 -270 -118l-113 120q147 158 384 158q194 0 300.5 -106t106.5 -285v-688h-169v152h-7q-46 -86 -123 -135t-183 -49zM218 1230v11l292 335h180l293 -335v-11h-200l-201 252h37l-201 -252h-200zM923 1523l-228 359v11h194l177 -360v-10h-143z" />
    <glyph glyph-name="uni1EA8" unicode="&#x1ea8;" 
d="M58 0l445 1432h197l443 -1432h-196l-305 1063l-40 155h-6l-41 -155l-303 -1063h-194zM254 369l52 167h586l53 -167h-691zM220 1548v11l292 335h180l293 -335v-11h-200l-201 252h37l-201 -252h-200zM857 1812l-17 132q142 12 142 99t-115 87q-64 0 -128 -22l-36 132
q75 30 170 30q113 0 180 -59.5t67 -159.5q0 -103 -69 -165.5t-194 -73.5z" />
    <glyph glyph-name="uni1EA9" unicode="&#x1ea9;" 
d="M525 -32q-107 0 -189 42.5t-128 118t-46 173.5v15q0 161 109.5 256.5t289.5 95.5q83 0 156 -19t129 -53v-140q-106 68 -253 68q-113 0 -180 -53.5t-67 -147.5v-10q0 -89 57.5 -139.5t154.5 -50.5q81 0 142 39.5t95.5 109.5t34.5 159v251q0 110 -57.5 173t-173.5 63
q-154 0 -270 -118l-113 120q147 158 384 158q194 0 300.5 -106t106.5 -285v-688h-169v152h-7q-46 -86 -123 -135t-183 -49zM218 1230v11l292 335h180l293 -335v-11h-200l-201 252h37l-201 -252h-200zM855 1494l-17 132q142 12 142 99t-115 87q-64 0 -128 -22l-36 132
q75 30 170 30q113 0 180 -59.5t67 -159.5q0 -103 -69 -165.5t-194 -73.5z" />
    <glyph glyph-name="uni1EAA" unicode="&#x1eaa;" 
d="M58 0l445 1432h197l443 -1432h-196l-305 1063l-40 155h-6l-41 -155l-303 -1063h-194zM254 369l52 167h586l53 -167h-691zM220 1548v11l292 335h180l293 -335v-11h-200l-201 252h37l-201 -252h-200zM765 1998q-52 0 -92.5 19.5t-84.5 61.5q-48 46 -72.5 61t-50.5 15
q-66 0 -66 -103v-52h-150v54q0 113 53 178.5t144 65.5q52 0 90.5 -19.5t82.5 -62.5q45 -43 71.5 -59t52.5 -16q63 0 63 102v53h150v-54q0 -115 -51 -179.5t-140 -64.5z" />
    <glyph glyph-name="uni1EAB" unicode="&#x1eab;" 
d="M525 -32q-107 0 -189 42.5t-128 118t-46 173.5v15q0 161 109.5 256.5t289.5 95.5q83 0 156 -19t129 -53v-140q-106 68 -253 68q-113 0 -180 -53.5t-67 -147.5v-10q0 -89 57.5 -139.5t154.5 -50.5q81 0 142 39.5t95.5 109.5t34.5 159v251q0 110 -57.5 173t-173.5 63
q-154 0 -270 -118l-113 120q147 158 384 158q194 0 300.5 -106t106.5 -285v-688h-169v152h-7q-46 -86 -123 -135t-183 -49zM218 1230v11l292 335h180l293 -335v-11h-200l-201 252h37l-201 -252h-200zM763 1680q-52 0 -92.5 19.5t-84.5 61.5q-48 46 -72.5 61t-50.5 15
q-66 0 -66 -103v-52h-150v54q0 113 53 178.5t144 65.5q52 0 90.5 -19.5t82.5 -62.5q45 -43 71.5 -59t52.5 -16q63 0 63 102v53h150v-54q0 -115 -51 -179.5t-140 -64.5z" />
    <glyph glyph-name="uni1EAC" unicode="&#x1eac;" 
d="M58 0l445 1432h197l443 -1432h-196l-305 1063l-40 155h-6l-41 -155l-303 -1063h-194zM254 369l52 167h586l53 -167h-691zM600 -462q-66 0 -110 45.5t-44 109.5q0 65 44 109t110 44q67 0 111.5 -44t44.5 -109q0 -64 -44.5 -109.5t-111.5 -45.5zM233 1638v11l272 349h194
l272 -349v-11h-196l-194 280h43l-195 -280h-196z" />
    <glyph glyph-name="uni1EAD" unicode="&#x1ead;" 
d="M525 -32q-107 0 -189 42.5t-128 118t-46 173.5v15q0 161 109.5 256.5t289.5 95.5q83 0 156 -19t129 -53v-140q-106 68 -253 68q-113 0 -180 -53.5t-67 -147.5v-10q0 -89 57.5 -139.5t154.5 -50.5q81 0 142 39.5t95.5 109.5t34.5 159v251q0 110 -57.5 173t-173.5 63
q-154 0 -270 -118l-113 120q147 158 384 158q194 0 300.5 -106t106.5 -285v-688h-169v152h-7q-46 -86 -123 -135t-183 -49zM614 -517q-66 0 -110 45.5t-44 109.5q0 65 44 109t110 44q67 0 111.5 -44t44.5 -109q0 -64 -44.5 -109.5t-111.5 -45.5zM231 1253v11l272 349h194
l272 -349v-11h-196l-194 280h43l-195 -280h-196z" />
    <glyph glyph-name="uni1EAE" unicode="&#x1eae;" 
d="M58 0l445 1432h197l443 -1432h-196l-305 1063l-40 155h-6l-41 -155l-303 -1063h-194zM254 369l52 167h586l53 -167h-691zM415 1582.5q-81 45.5 -126.5 125t-45.5 181.5v13h152v-15q0 -94 53 -153t154 -59q102 0 155 59t53 153v15h152v-13q0 -102 -46 -181.5t-127 -125
t-187 -45.5t-187 45.5zM498 1885v11l161 369h204v-11l-235 -369h-130z" />
    <glyph glyph-name="uni1EAF" unicode="&#x1eaf;" 
d="M525 -32q-107 0 -189 42.5t-128 118t-46 173.5v15q0 161 109.5 256.5t289.5 95.5q83 0 156 -19t129 -53v-140q-106 68 -253 68q-113 0 -180 -53.5t-67 -147.5v-10q0 -89 57.5 -139.5t154.5 -50.5q81 0 142 39.5t95.5 109.5t34.5 159v251q0 110 -57.5 173t-173.5 63
q-154 0 -270 -118l-113 120q147 158 384 158q194 0 300.5 -106t106.5 -285v-688h-169v152h-7q-46 -86 -123 -135t-183 -49zM413 1254.5q-81 45.5 -126.5 125t-45.5 181.5v13h152v-15q0 -94 53 -153t154 -59q102 0 155 59t53 153v15h152v-13q0 -102 -46 -181.5t-127 -125
t-187 -45.5t-187 45.5zM496 1557v11l161 369h204v-11l-235 -369h-130z" />
    <glyph glyph-name="uni1EB0" unicode="&#x1eb0;" 
d="M58 0l445 1432h197l443 -1432h-196l-305 1063l-40 155h-6l-41 -155l-303 -1063h-194zM254 369l52 167h586l53 -167h-691zM415 1582.5q-81 45.5 -126.5 125t-45.5 181.5v13h152v-15q0 -94 53 -153t154 -59q102 0 155 59t53 153v15h152v-13q0 -102 -46 -181.5t-127 -125
t-187 -45.5t-187 45.5zM584 1885l-227 369v11h196l162 -369v-11h-131z" />
    <glyph glyph-name="uni1EB1" unicode="&#x1eb1;" 
d="M525 -32q-107 0 -189 42.5t-128 118t-46 173.5v15q0 161 109.5 256.5t289.5 95.5q83 0 156 -19t129 -53v-140q-106 68 -253 68q-113 0 -180 -53.5t-67 -147.5v-10q0 -89 57.5 -139.5t154.5 -50.5q81 0 142 39.5t95.5 109.5t34.5 159v251q0 110 -57.5 173t-173.5 63
q-154 0 -270 -118l-113 120q147 158 384 158q194 0 300.5 -106t106.5 -285v-688h-169v152h-7q-46 -86 -123 -135t-183 -49zM413 1254.5q-81 45.5 -126.5 125t-45.5 181.5v13h152v-15q0 -94 53 -153t154 -59q102 0 155 59t53 153v15h152v-13q0 -102 -46 -181.5t-127 -125
t-187 -45.5t-187 45.5zM582 1557l-227 369v11h196l162 -369v-11h-131z" />
    <glyph glyph-name="uni1EB2" unicode="&#x1eb2;" 
d="M58 0l445 1432h197l443 -1432h-196l-305 1063l-40 155h-6l-41 -155l-303 -1063h-194zM254 369l52 167h586l53 -167h-691zM602 1537q-107 0 -191 45.5t-132 125t-48 182.5v13h151v-15q0 -95 55.5 -154.5t164.5 -59.5q110 0 165.5 59.5t55.5 154.5v15h150v-13
q0 -103 -48 -182.5t-131.5 -125t-191.5 -45.5zM534 1845l-15 130q147 8 147 102q0 88 -124 88q-61 0 -126 -20l-39 129q81 29 170 29q116 0 184.5 -59t68.5 -159q0 -103 -71 -167.5t-195 -72.5z" />
    <glyph glyph-name="uni1EB3" unicode="&#x1eb3;" 
d="M525 -32q-107 0 -189 42.5t-128 118t-46 173.5v15q0 161 109.5 256.5t289.5 95.5q83 0 156 -19t129 -53v-140q-106 68 -253 68q-113 0 -180 -53.5t-67 -147.5v-10q0 -89 57.5 -139.5t154.5 -50.5q81 0 142 39.5t95.5 109.5t34.5 159v251q0 110 -57.5 173t-173.5 63
q-154 0 -270 -118l-113 120q147 158 384 158q194 0 300.5 -106t106.5 -285v-688h-169v152h-7q-46 -86 -123 -135t-183 -49zM609 1209q-107 0 -191 45.5t-132 125t-48 182.5v13h151v-15q0 -95 55.5 -154.5t164.5 -59.5q110 0 165.5 59.5t55.5 154.5v15h150v-13
q0 -103 -48 -182.5t-131.5 -125t-191.5 -45.5zM541 1517l-15 130q147 8 147 102q0 88 -124 88q-61 0 -126 -20l-39 129q81 29 170 29q116 0 184.5 -59t68.5 -159q0 -103 -71 -167.5t-195 -72.5z" />
    <glyph glyph-name="uni1EB4" unicode="&#x1eb4;" 
d="M58 0l445 1432h197l443 -1432h-196l-305 1063l-40 155h-6l-41 -155l-303 -1063h-194zM254 369l52 167h586l53 -167h-691zM602 1537q-104 0 -182.5 42.5t-121.5 118.5t-43 174v12h153v-15q0 -88 51.5 -140.5t142.5 -52.5t143 52.5t52 140.5v15h153v-12q0 -98 -43 -174
t-121.5 -118.5t-183.5 -42.5zM779 1985q-56 0 -100 22.5t-91 66.5q-52 50 -79 67.5t-56 17.5q-31 0 -50.5 -20.5t-19.5 -58.5v-91h-150v100q0 100 53.5 156.5t143.5 56.5q57 0 99 -23t90 -67q52 -49 80.5 -66.5t58.5 -17.5q64 0 64 79v91h150v-100q0 -98 -51.5 -155.5
t-141.5 -57.5z" />
    <glyph glyph-name="uni1EB5" unicode="&#x1eb5;" 
d="M525 -32q-107 0 -189 42.5t-128 118t-46 173.5v15q0 161 109.5 256.5t289.5 95.5q83 0 156 -19t129 -53v-140q-106 68 -253 68q-113 0 -180 -53.5t-67 -147.5v-10q0 -89 57.5 -139.5t154.5 -50.5q81 0 142 39.5t95.5 109.5t34.5 159v251q0 110 -57.5 173t-173.5 63
q-154 0 -270 -118l-113 120q147 158 384 158q194 0 300.5 -106t106.5 -285v-688h-169v152h-7q-46 -86 -123 -135t-183 -49zM609 1209q-104 0 -182.5 42.5t-121.5 118.5t-43 174v12h153v-15q0 -88 51.5 -140.5t142.5 -52.5t143 52.5t52 140.5v15h153v-12q0 -98 -43 -174
t-121.5 -118.5t-183.5 -42.5zM786 1657q-56 0 -100 22.5t-91 66.5q-52 50 -79 67.5t-56 17.5q-31 0 -50.5 -20.5t-19.5 -58.5v-91h-150v100q0 100 53.5 156.5t143.5 56.5q57 0 99 -23t90 -67q52 -49 80.5 -66.5t58.5 -17.5q64 0 64 79v91h150v-100q0 -98 -51.5 -155.5
t-141.5 -57.5z" />
    <glyph glyph-name="uni1EB6" unicode="&#x1eb6;" 
d="M58 0l445 1432h197l443 -1432h-196l-305 1063l-40 155h-6l-41 -155l-303 -1063h-194zM254 369l52 167h586l53 -167h-691zM600 -462q-66 0 -110 45.5t-44 109.5q0 65 44 109t110 44q67 0 111.5 -44t44.5 -109q0 -64 -44.5 -109.5t-111.5 -45.5zM421.5 1678.5
q-78.5 44.5 -123 123.5t-44.5 182v14h162v-20q0 -89 50.5 -142t136 -53t135.5 53t50 142v20h162v-14q0 -103 -44.5 -182t-122.5 -123.5t-180.5 -44.5t-181 44.5z" />
    <glyph glyph-name="uni1EB7" unicode="&#x1eb7;" 
d="M525 -32q-107 0 -189 42.5t-128 118t-46 173.5v15q0 161 109.5 256.5t289.5 95.5q83 0 156 -19t129 -53v-140q-106 68 -253 68q-113 0 -180 -53.5t-67 -147.5v-10q0 -89 57.5 -139.5t154.5 -50.5q81 0 142 39.5t95.5 109.5t34.5 159v251q0 110 -57.5 173t-173.5 63
q-154 0 -270 -118l-113 120q147 158 384 158q194 0 300.5 -106t106.5 -285v-688h-169v152h-7q-46 -86 -123 -135t-183 -49zM614 -517q-66 0 -110 45.5t-44 109.5q0 65 44 109t110 44q67 0 111.5 -44t44.5 -109q0 -64 -44.5 -109.5t-111.5 -45.5zM419.5 1293.5
q-78.5 44.5 -123 123.5t-44.5 182v14h162v-20q0 -89 50.5 -142t136 -53t135.5 53t50 142v20h162v-14q0 -103 -44.5 -182t-122.5 -123.5t-180.5 -44.5t-181 44.5z" />
    <glyph glyph-name="uni1EB8" unicode="&#x1eb8;" 
d="M184 0v1432h810v-174h-624v-1084h640v-174h-826zM292 647v174h622v-174h-622zM597 -485q-66 0 -110 45.5t-44 109.5q0 65 44 109t110 44q67 0 111.5 -44t44.5 -109q0 -64 -44.5 -109.5t-111.5 -45.5z" />
    <glyph glyph-name="uni1EB9" unicode="&#x1eb9;" 
d="M630 -32q-151 0 -263.5 67.5t-174.5 189t-62 284.5v38q0 160 61.5 279.5t172.5 186t259 66.5q133 0 231.5 -57.5t153 -162t54.5 -244.5q0 -38 -2.5 -73.5t-7.5 -69.5h-809v145h639v4q0 137 -70.5 217.5t-190.5 80.5q-142 0 -226.5 -100.5t-84.5 -276.5v-28
q0 -176 87.5 -279t237.5 -103q181 0 274 163l146 -93q-67 -117 -173 -175.5t-252 -58.5zM633 -517q-66 0 -110 45.5t-44 109.5q0 65 44 109t110 44q67 0 111.5 -44t44.5 -109q0 -64 -44.5 -109.5t-111.5 -45.5z" />
    <glyph glyph-name="uni1EBA" unicode="&#x1eba;" 
d="M184 0v1432h810v-174h-624v-1084h640v-174h-826zM292 647v174h622v-174h-622zM575 1560l-23 144q84 9 126.5 38.5t42.5 78.5q0 94 -130 94q-81 0 -165 -31l-45 143q50 21 104.5 32.5t109.5 11.5q125 0 200 -67t75 -177t-77.5 -180t-217.5 -87z" />
    <glyph glyph-name="uni1EBB" unicode="&#x1ebb;" 
d="M630 -32q-151 0 -263.5 67.5t-174.5 189t-62 284.5v38q0 160 61.5 279.5t172.5 186t259 66.5q133 0 231.5 -57.5t153 -162t54.5 -244.5q0 -38 -2.5 -73.5t-7.5 -69.5h-809v145h639v4q0 137 -70.5 217.5t-190.5 80.5q-142 0 -226.5 -100.5t-84.5 -276.5v-28
q0 -176 87.5 -279t237.5 -103q181 0 274 163l146 -93q-67 -117 -173 -175.5t-252 -58.5zM608 1175l-23 144q84 9 126.5 38.5t42.5 78.5q0 94 -130 94q-81 0 -165 -31l-45 143q50 21 104.5 32.5t109.5 11.5q125 0 200 -67t75 -177t-77.5 -180t-217.5 -87z" />
    <glyph glyph-name="uni1EBC" unicode="&#x1ebc;" 
d="M184 0v1432h810v-174h-624v-1084h640v-174h-826zM292 647v174h622v-174h-622zM757 1648q-55 0 -99.5 26t-101.5 94q-40 48 -63 64t-49 16q-65 0 -65 -102v-94h-151v96q0 118 53 185t146 67q54 0 96.5 -25.5t100.5 -96.5q38 -46 61.5 -62t49.5 -16q64 0 64 102v94h152v-96
q0 -119 -51 -185.5t-143 -66.5z" />
    <glyph glyph-name="uni1EBD" unicode="&#x1ebd;" 
d="M630 -32q-151 0 -263.5 67.5t-174.5 189t-62 284.5v38q0 160 61.5 279.5t172.5 186t259 66.5q133 0 231.5 -57.5t153 -162t54.5 -244.5q0 -38 -2.5 -73.5t-7.5 -69.5h-809v145h639v4q0 137 -70.5 217.5t-190.5 80.5q-142 0 -226.5 -100.5t-84.5 -276.5v-28
q0 -176 87.5 -279t237.5 -103q181 0 274 163l146 -93q-67 -117 -173 -175.5t-252 -58.5zM790 1263q-55 0 -99.5 26t-101.5 94q-40 48 -63 64t-49 16q-65 0 -65 -102v-94h-151v96q0 118 53 185t146 67q54 0 96.5 -25.5t100.5 -96.5q38 -46 61.5 -62t49.5 -16q64 0 64 102v94
h152v-96q0 -119 -51 -185.5t-143 -66.5z" />
    <glyph glyph-name="uni1EBE" unicode="&#x1ebe;" 
d="M184 0v1432h810v-174h-624v-1084h640v-174h-826zM292 647v174h622v-174h-622zM207 1548v11l292 335h180l293 -335v-11h-200l-201 252h37l-201 -252h-200zM793 1849v11l163 359h191v-10l-216 -360h-138z" />
    <glyph glyph-name="uni1EBF" unicode="&#x1ebf;" 
d="M630 -32q-151 0 -263.5 67.5t-174.5 189t-62 284.5v38q0 160 61.5 279.5t172.5 186t259 66.5q133 0 231.5 -57.5t153 -162t54.5 -244.5q0 -38 -2.5 -73.5t-7.5 -69.5h-809v145h639v4q0 137 -70.5 217.5t-190.5 80.5q-142 0 -226.5 -100.5t-84.5 -276.5v-28
q0 -176 87.5 -279t237.5 -103q181 0 274 163l146 -93q-67 -117 -173 -175.5t-252 -58.5zM240 1230v11l292 335h180l293 -335v-11h-200l-201 252h37l-201 -252h-200zM826 1531v11l163 359h191v-10l-216 -360h-138z" />
    <glyph glyph-name="uni1EC0" unicode="&#x1ec0;" 
d="M184 0v1432h810v-174h-624v-1084h640v-174h-826zM292 647v174h622v-174h-622zM207 1548v11l292 335h180l293 -335v-11h-200l-201 252h37l-201 -252h-200zM912 1841l-228 359v11h194l177 -360v-10h-143z" />
    <glyph glyph-name="uni1EC1" unicode="&#x1ec1;" 
d="M630 -32q-151 0 -263.5 67.5t-174.5 189t-62 284.5v38q0 160 61.5 279.5t172.5 186t259 66.5q133 0 231.5 -57.5t153 -162t54.5 -244.5q0 -38 -2.5 -73.5t-7.5 -69.5h-809v145h639v4q0 137 -70.5 217.5t-190.5 80.5q-142 0 -226.5 -100.5t-84.5 -276.5v-28
q0 -176 87.5 -279t237.5 -103q181 0 274 163l146 -93q-67 -117 -173 -175.5t-252 -58.5zM240 1230v11l292 335h180l293 -335v-11h-200l-201 252h37l-201 -252h-200zM945 1523l-228 359v11h194l177 -360v-10h-143z" />
    <glyph glyph-name="uni1EC2" unicode="&#x1ec2;" 
d="M184 0v1432h810v-174h-624v-1084h640v-174h-826zM292 647v174h622v-174h-622zM207 1548v11l292 335h180l293 -335v-11h-200l-201 252h37l-201 -252h-200zM844 1812l-17 132q142 12 142 99t-115 87q-64 0 -128 -22l-36 132q75 30 170 30q113 0 180 -59.5t67 -159.5
q0 -103 -69 -165.5t-194 -73.5z" />
    <glyph glyph-name="uni1EC3" unicode="&#x1ec3;" 
d="M630 -32q-151 0 -263.5 67.5t-174.5 189t-62 284.5v38q0 160 61.5 279.5t172.5 186t259 66.5q133 0 231.5 -57.5t153 -162t54.5 -244.5q0 -38 -2.5 -73.5t-7.5 -69.5h-809v145h639v4q0 137 -70.5 217.5t-190.5 80.5q-142 0 -226.5 -100.5t-84.5 -276.5v-28
q0 -176 87.5 -279t237.5 -103q181 0 274 163l146 -93q-67 -117 -173 -175.5t-252 -58.5zM241 1230v11l292 335h180l293 -335v-11h-200l-201 252h37l-201 -252h-200zM878 1494l-17 132q142 12 142 99t-115 87q-64 0 -128 -22l-36 132q75 30 170 30q113 0 180 -59.5t67 -159.5
q0 -103 -69 -165.5t-194 -73.5z" />
    <glyph glyph-name="uni1EC4" unicode="&#x1ec4;" 
d="M184 0v1432h810v-174h-624v-1084h640v-174h-826zM292 647v174h622v-174h-622zM207 1548v11l292 335h180l293 -335v-11h-200l-201 252h37l-201 -252h-200zM752 1998q-52 0 -92.5 19.5t-84.5 61.5q-48 46 -72.5 61t-50.5 15q-66 0 -66 -103v-52h-150v54q0 113 53 178.5
t144 65.5q52 0 90.5 -19.5t82.5 -62.5q45 -43 71.5 -59t52.5 -16q63 0 63 102v53h150v-54q0 -115 -51 -179.5t-140 -64.5z" />
    <glyph glyph-name="uni1EC5" unicode="&#x1ec5;" 
d="M630 -32q-151 0 -263.5 67.5t-174.5 189t-62 284.5v38q0 160 61.5 279.5t172.5 186t259 66.5q133 0 231.5 -57.5t153 -162t54.5 -244.5q0 -38 -2.5 -73.5t-7.5 -69.5h-809v145h639v4q0 137 -70.5 217.5t-190.5 80.5q-142 0 -226.5 -100.5t-84.5 -276.5v-28
q0 -176 87.5 -279t237.5 -103q181 0 274 163l146 -93q-67 -117 -173 -175.5t-252 -58.5zM241 1230v11l292 335h180l293 -335v-11h-200l-201 252h37l-201 -252h-200zM786 1680q-52 0 -92.5 19.5t-84.5 61.5q-48 46 -72.5 61t-50.5 15q-66 0 -66 -103v-52h-150v54
q0 113 53 178.5t144 65.5q52 0 90.5 -19.5t82.5 -62.5q45 -43 71.5 -59t52.5 -16q63 0 63 102v53h150v-54q0 -115 -51 -179.5t-140 -64.5z" />
    <glyph glyph-name="uni1EC6" unicode="&#x1ec6;" 
d="M184 0v1432h810v-174h-624v-1084h640v-174h-826zM292 647v174h622v-174h-622zM597 -485q-66 0 -110 45.5t-44 109.5q0 65 44 109t110 44q67 0 111.5 -44t44.5 -109q0 -64 -44.5 -109.5t-111.5 -45.5zM220 1638v11l272 349h194l272 -349v-11h-196l-194 280h43l-195 -280
h-196z" />
    <glyph glyph-name="uni1EC7" unicode="&#x1ec7;" 
d="M630 -32q-151 0 -263.5 67.5t-174.5 189t-62 284.5v38q0 160 61.5 279.5t172.5 186t259 66.5q133 0 231.5 -57.5t153 -162t54.5 -244.5q0 -38 -2.5 -73.5t-7.5 -69.5h-809v145h639v4q0 137 -70.5 217.5t-190.5 80.5q-142 0 -226.5 -100.5t-84.5 -276.5v-28
q0 -176 87.5 -279t237.5 -103q181 0 274 163l146 -93q-67 -117 -173 -175.5t-252 -58.5zM633 -517q-66 0 -110 45.5t-44 109.5q0 65 44 109t110 44q67 0 111.5 -44t44.5 -109q0 -64 -44.5 -109.5t-111.5 -45.5zM253 1253v11l272 349h194l272 -349v-11h-196l-194 280h43
l-195 -280h-196z" />
    <glyph glyph-name="uni1EC8" unicode="&#x1ec8;" 
d="M506 91v1250h188v-1250h-188zM178 0v176h844v-176h-844zM178 1257v175h844v-175h-844zM586 1560l-23 144q84 9 126.5 38.5t42.5 78.5q0 94 -130 94q-81 0 -165 -31l-45 143q50 21 104.5 32.5t109.5 11.5q125 0 200 -67t75 -177t-77.5 -180t-217.5 -87z" />
    <glyph glyph-name="uni1EC9" unicode="&#x1ec9;" 
d="M558 50v997h178v-997h-178zM203 0v148h874v-148h-874zM223 899v148h459v-148h-459zM555 1175l-23 144q84 9 126.5 38.5t42.5 78.5q0 94 -130 94q-81 0 -165 -31l-45 143q50 21 104.5 32.5t109.5 11.5q125 0 200 -67t75 -177t-77.5 -180t-217.5 -87z" />
    <glyph glyph-name="uni1ECA" unicode="&#x1eca;" 
d="M506 91v1250h188v-1250h-188zM178 0v176h844v-176h-844zM178 1257v175h844v-175h-844zM600 -485q-66 0 -110 45.5t-44 109.5q0 65 44 109t110 44q67 0 111.5 -44t44.5 -109q0 -64 -44.5 -109.5t-111.5 -45.5z" />
    <glyph glyph-name="uni1ECB" unicode="&#x1ecb;" 
d="M558 60v987h178v-987h-178zM203 0v148h874v-148h-874zM223 899v148h459v-148h-459zM621 1278q-63 0 -108 45t-45 108q0 65 45 107.5t108 42.5q65 0 108 -43t43 -108q0 -62 -43 -107t-108 -45zM647 -485q-66 0 -110 45.5t-44 109.5q0 65 44 109t110 44q67 0 111.5 -44
t44.5 -109q0 -64 -44.5 -109.5t-111.5 -45.5z" />
    <glyph glyph-name="uni1ECC" unicode="&#x1ecc;" 
d="M320.5 56.5q-117.5 88.5 -181 251.5t-63.5 389v38q0 226 63.5 389t181 251.5t279.5 88.5t279.5 -88.5t181 -251.5t63.5 -389v-38q0 -226 -63.5 -389t-181 -251.5t-279.5 -88.5t-279.5 88.5zM847.5 286q86.5 142 86.5 406v48q0 262 -87.5 405t-246.5 143t-246.5 -143
t-87.5 -405v-48q0 -264 87 -406t247.5 -142t247 142zM600 -517q-66 0 -110 45.5t-44 109.5q0 65 44 109t110 44q67 0 111.5 -44t44.5 -109q0 -64 -44.5 -109.5t-111.5 -45.5z" />
    <glyph glyph-name="uni1ECD" unicode="&#x1ecd;" 
d="M345.5 36q-109.5 68 -170.5 190.5t-61 283.5v27q0 162 61 284t170.5 190t254.5 68t254.5 -68t170.5 -190t61 -284v-27q0 -161 -61 -283.5t-170.5 -190.5t-254.5 -68t-254.5 68zM820 237q80 101 80 276v21q0 176 -80 276.5t-219.5 100.5t-220 -100.5t-80.5 -276.5v-21
q0 -175 80.5 -276t220 -101t219.5 101zM600 -517q-66 0 -110 45.5t-44 109.5q0 65 44 109t110 44q67 0 111.5 -44t44.5 -109q0 -64 -44.5 -109.5t-111.5 -45.5z" />
    <glyph glyph-name="uni1ECE" unicode="&#x1ece;" 
d="M320.5 56.5q-117.5 88.5 -181 251.5t-63.5 389v38q0 226 63.5 389t181 251.5t279.5 88.5t279.5 -88.5t181 -251.5t63.5 -389v-38q0 -226 -63.5 -389t-181 -251.5t-279.5 -88.5t-279.5 88.5zM847.5 286q86.5 142 86.5 406v48q0 262 -87.5 405t-246.5 143t-246.5 -143
t-87.5 -405v-48q0 -264 87 -406t247.5 -142t247 142zM586 1560l-23 144q84 9 126.5 38.5t42.5 78.5q0 94 -130 94q-81 0 -165 -31l-45 143q50 21 104.5 32.5t109.5 11.5q125 0 200 -67t75 -177t-77.5 -180t-217.5 -87z" />
    <glyph glyph-name="uni1ECF" unicode="&#x1ecf;" 
d="M345.5 36q-109.5 68 -170.5 190.5t-61 283.5v27q0 162 61 284t170.5 190t254.5 68t254.5 -68t170.5 -190t61 -284v-27q0 -161 -61 -283.5t-170.5 -190.5t-254.5 -68t-254.5 68zM820 237q80 101 80 276v21q0 176 -80 276.5t-219.5 100.5t-220 -100.5t-80.5 -276.5v-21
q0 -175 80.5 -276t220 -101t219.5 101zM586 1175l-23 144q84 9 126.5 38.5t42.5 78.5q0 94 -130 94q-81 0 -165 -31l-45 143q50 21 104.5 32.5t109.5 11.5q125 0 200 -67t75 -177t-77.5 -180t-217.5 -87z" />
    <glyph glyph-name="uni1ED0" unicode="&#x1ed0;" 
d="M320.5 56.5q-117.5 88.5 -181 251.5t-63.5 389v38q0 226 63.5 389t181 251.5t279.5 88.5t279.5 -88.5t181 -251.5t63.5 -389v-38q0 -226 -63.5 -389t-181 -251.5t-279.5 -88.5t-279.5 88.5zM847.5 286q86.5 142 86.5 406v48q0 262 -87.5 405t-246.5 143t-246.5 -143
t-87.5 -405v-48q0 -264 87 -406t247.5 -142t247 142zM218 1548v11l292 335h180l293 -335v-11h-200l-201 252h37l-201 -252h-200zM804 1849v11l163 359h191v-10l-216 -360h-138z" />
    <glyph glyph-name="uni1ED1" unicode="&#x1ed1;" 
d="M345.5 36q-109.5 68 -170.5 190.5t-61 283.5v27q0 162 61 284t170.5 190t254.5 68t254.5 -68t170.5 -190t61 -284v-27q0 -161 -61 -283.5t-170.5 -190.5t-254.5 -68t-254.5 68zM820 237q80 101 80 276v21q0 176 -80 276.5t-219.5 100.5t-220 -100.5t-80.5 -276.5v-21
q0 -175 80.5 -276t220 -101t219.5 101zM218 1230v11l292 335h180l293 -335v-11h-200l-201 252h37l-201 -252h-200zM804 1531v11l163 359h191v-10l-216 -360h-138z" />
    <glyph glyph-name="uni1ED2" unicode="&#x1ed2;" 
d="M320.5 56.5q-117.5 88.5 -181 251.5t-63.5 389v38q0 226 63.5 389t181 251.5t279.5 88.5t279.5 -88.5t181 -251.5t63.5 -389v-38q0 -226 -63.5 -389t-181 -251.5t-279.5 -88.5t-279.5 88.5zM847.5 286q86.5 142 86.5 406v48q0 262 -87.5 405t-246.5 143t-246.5 -143
t-87.5 -405v-48q0 -264 87 -406t247.5 -142t247 142zM218 1548v11l292 335h180l293 -335v-11h-200l-201 252h37l-201 -252h-200zM923 1841l-228 359v11h194l177 -360v-10h-143z" />
    <glyph glyph-name="uni1ED3" unicode="&#x1ed3;" 
d="M345.5 36q-109.5 68 -170.5 190.5t-61 283.5v27q0 162 61 284t170.5 190t254.5 68t254.5 -68t170.5 -190t61 -284v-27q0 -161 -61 -283.5t-170.5 -190.5t-254.5 -68t-254.5 68zM820 237q80 101 80 276v21q0 176 -80 276.5t-219.5 100.5t-220 -100.5t-80.5 -276.5v-21
q0 -175 80.5 -276t220 -101t219.5 101zM218 1230v11l292 335h180l293 -335v-11h-200l-201 252h37l-201 -252h-200zM923 1523l-228 359v11h194l177 -360v-10h-143z" />
    <glyph glyph-name="uni1ED4" unicode="&#x1ed4;" 
d="M320.5 56.5q-117.5 88.5 -181 251.5t-63.5 389v38q0 226 63.5 389t181 251.5t279.5 88.5t279.5 -88.5t181 -251.5t63.5 -389v-38q0 -226 -63.5 -389t-181 -251.5t-279.5 -88.5t-279.5 88.5zM847.5 286q86.5 142 86.5 406v48q0 262 -87.5 405t-246.5 143t-246.5 -143
t-87.5 -405v-48q0 -264 87 -406t247.5 -142t247 142zM218 1548v11l292 335h180l293 -335v-11h-200l-201 252h37l-201 -252h-200zM855 1812l-17 132q142 12 142 99t-115 87q-64 0 -128 -22l-36 132q75 30 170 30q113 0 180 -59.5t67 -159.5q0 -103 -69 -165.5t-194 -73.5z
" />
    <glyph glyph-name="uni1ED5" unicode="&#x1ed5;" 
d="M345.5 36q-109.5 68 -170.5 190.5t-61 283.5v27q0 162 61 284t170.5 190t254.5 68t254.5 -68t170.5 -190t61 -284v-27q0 -161 -61 -283.5t-170.5 -190.5t-254.5 -68t-254.5 68zM820 237q80 101 80 276v21q0 176 -80 276.5t-219.5 100.5t-220 -100.5t-80.5 -276.5v-21
q0 -175 80.5 -276t220 -101t219.5 101zM218 1230v11l292 335h180l293 -335v-11h-200l-201 252h37l-201 -252h-200zM855 1494l-17 132q142 12 142 99t-115 87q-64 0 -128 -22l-36 132q75 30 170 30q113 0 180 -59.5t67 -159.5q0 -103 -69 -165.5t-194 -73.5z" />
    <glyph glyph-name="uni1ED6" unicode="&#x1ed6;" 
d="M320.5 56.5q-117.5 88.5 -181 251.5t-63.5 389v38q0 226 63.5 389t181 251.5t279.5 88.5t279.5 -88.5t181 -251.5t63.5 -389v-38q0 -226 -63.5 -389t-181 -251.5t-279.5 -88.5t-279.5 88.5zM847.5 286q86.5 142 86.5 406v48q0 262 -87.5 405t-246.5 143t-246.5 -143
t-87.5 -405v-48q0 -264 87 -406t247.5 -142t247 142zM218 1548v11l292 335h180l293 -335v-11h-200l-201 252h37l-201 -252h-200zM763 1998q-52 0 -92.5 19.5t-84.5 61.5q-48 46 -72.5 61t-50.5 15q-66 0 -66 -103v-52h-150v54q0 113 53 178.5t144 65.5q52 0 90.5 -19.5
t82.5 -62.5q45 -43 71.5 -59t52.5 -16q63 0 63 102v53h150v-54q0 -115 -51 -179.5t-140 -64.5z" />
    <glyph glyph-name="uni1ED7" unicode="&#x1ed7;" 
d="M345.5 36q-109.5 68 -170.5 190.5t-61 283.5v27q0 162 61 284t170.5 190t254.5 68t254.5 -68t170.5 -190t61 -284v-27q0 -161 -61 -283.5t-170.5 -190.5t-254.5 -68t-254.5 68zM820 237q80 101 80 276v21q0 176 -80 276.5t-219.5 100.5t-220 -100.5t-80.5 -276.5v-21
q0 -175 80.5 -276t220 -101t219.5 101zM218 1230v11l292 335h180l293 -335v-11h-200l-201 252h37l-201 -252h-200zM763 1680q-52 0 -92.5 19.5t-84.5 61.5q-48 46 -72.5 61t-50.5 15q-66 0 -66 -103v-52h-150v54q0 113 53 178.5t144 65.5q52 0 90.5 -19.5t82.5 -62.5
q45 -43 71.5 -59t52.5 -16q63 0 63 102v53h150v-54q0 -115 -51 -179.5t-140 -64.5z" />
    <glyph glyph-name="uni1ED8" unicode="&#x1ed8;" 
d="M320.5 56.5q-117.5 88.5 -181 251.5t-63.5 389v38q0 226 63.5 389t181 251.5t279.5 88.5t279.5 -88.5t181 -251.5t63.5 -389v-38q0 -226 -63.5 -389t-181 -251.5t-279.5 -88.5t-279.5 88.5zM847.5 286q86.5 142 86.5 406v48q0 262 -87.5 405t-246.5 143t-246.5 -143
t-87.5 -405v-48q0 -264 87 -406t247.5 -142t247 142zM600 -517q-66 0 -110 45.5t-44 109.5q0 65 44 109t110 44q67 0 111.5 -44t44.5 -109q0 -64 -44.5 -109.5t-111.5 -45.5zM231 1638v11l272 349h194l272 -349v-11h-196l-194 280h43l-195 -280h-196z" />
    <glyph glyph-name="uni1ED9" unicode="&#x1ed9;" 
d="M345.5 36q-109.5 68 -170.5 190.5t-61 283.5v27q0 162 61 284t170.5 190t254.5 68t254.5 -68t170.5 -190t61 -284v-27q0 -161 -61 -283.5t-170.5 -190.5t-254.5 -68t-254.5 68zM820 237q80 101 80 276v21q0 176 -80 276.5t-219.5 100.5t-220 -100.5t-80.5 -276.5v-21
q0 -175 80.5 -276t220 -101t219.5 101zM600 -517q-66 0 -110 45.5t-44 109.5q0 65 44 109t110 44q67 0 111.5 -44t44.5 -109q0 -64 -44.5 -109.5t-111.5 -45.5zM231 1253v11l272 349h194l272 -349v-11h-196l-194 280h43l-195 -280h-196z" />
    <glyph glyph-name="uni1EDA" unicode="&#x1eda;" 
d="M599 -31q-161 0 -278.5 88.5t-180.5 251.5t-63 388v38q0 226 63.5 389t182 251t284.5 88q66 0 122 -8.5t111 -8.5q151 0 151 107q0 27 -7.5 54t-21.5 55l184 71q40 -78 40 -154q0 -108 -83.5 -169t-235.5 -61h-114l12 63q173 -70 265 -243.5t92 -433.5v-38
q0 -225 -63 -388t-180.5 -251.5t-279.5 -88.5zM599 145q161 0 247.5 141.5t86.5 405.5v52q0 269 -82.5 408.5t-243.5 139.5q-163 0 -252.5 -144t-89.5 -408v-48q0 -264 87 -405.5t247 -141.5zM508 1655v11l177 349h222v-11l-227 -349h-172z" />
    <glyph glyph-name="uni1EDB" unicode="&#x1edb;" 
d="M596 -32q-146 0 -255 68t-169 190t-60 284v27q0 163 60 285t169 189.5t255 67.5q68 0 123 -7t105 -7q131 0 131 106q0 54 -27 117l189 57q16 -38 23.5 -74.5t7.5 -74.5q0 -106 -79 -165t-221 -59h-109l18 59q155 -46 239 -176t84 -318v-27q0 -163 -60 -285t-169 -189.5
t-255 -67.5zM596 136q140 0 219 100t79 277v21q0 180 -79 281.5t-219 101.5t-219 -101.5t-79 -281.5v-21q0 -177 79 -277t219 -100zM506 1270v11l177 349h222v-11l-227 -349h-172z" />
    <glyph glyph-name="uni1EDC" unicode="&#x1edc;" 
d="M599 -31q-161 0 -278.5 88.5t-180.5 251.5t-63 388v38q0 226 63.5 389t182 251t284.5 88q66 0 122 -8.5t111 -8.5q151 0 151 107q0 27 -7.5 54t-21.5 55l184 71q40 -78 40 -154q0 -108 -83.5 -169t-235.5 -61h-114l12 63q173 -70 265 -243.5t92 -433.5v-38
q0 -225 -63 -388t-180.5 -251.5t-279.5 -88.5zM599 145q161 0 247.5 141.5t86.5 405.5v52q0 269 -82.5 408.5t-243.5 139.5q-163 0 -252.5 -144t-89.5 -408v-48q0 -264 87 -405.5t247 -141.5zM512 1655l-226 349v11h222l176 -349v-11h-172z" />
    <glyph glyph-name="uni1EDD" unicode="&#x1edd;" 
d="M596 -32q-146 0 -255 68t-169 190t-60 284v27q0 163 60 285t169 189.5t255 67.5q68 0 123 -7t105 -7q131 0 131 106q0 54 -27 117l189 57q16 -38 23.5 -74.5t7.5 -74.5q0 -106 -79 -165t-221 -59h-109l18 59q155 -46 239 -176t84 -318v-27q0 -163 -60 -285t-169 -189.5
t-255 -67.5zM596 136q140 0 219 100t79 277v21q0 180 -79 281.5t-219 101.5t-219 -101.5t-79 -281.5v-21q0 -177 79 -277t219 -100zM520 1270l-226 349v11h222l176 -349v-11h-172z" />
    <glyph glyph-name="uni1EDE" unicode="&#x1ede;" 
d="M599 -31q-161 0 -278.5 88.5t-180.5 251.5t-63 388v38q0 226 63.5 389t182 251t284.5 88q66 0 122 -8.5t111 -8.5q151 0 151 107q0 27 -7.5 54t-21.5 55l184 71q40 -78 40 -154q0 -108 -83.5 -169t-235.5 -61h-114l12 63q173 -70 265 -243.5t92 -433.5v-38
q0 -225 -63 -388t-180.5 -251.5t-279.5 -88.5zM599 145q161 0 247.5 141.5t86.5 405.5v52q0 269 -82.5 408.5t-243.5 139.5q-163 0 -252.5 -144t-89.5 -408v-48q0 -264 87 -405.5t247 -141.5zM548 1581l-23 144q84 9 126.5 38.5t42.5 78.5q0 94 -130 94q-81 0 -165 -31
l-45 143q50 21 104.5 32.5t109.5 11.5q125 0 200 -67t75 -177t-77.5 -180t-217.5 -87z" />
    <glyph glyph-name="uni1EDF" unicode="&#x1edf;" 
d="M596 -32q-146 0 -255 68t-169 190t-60 284v27q0 163 60 285t169 189.5t255 67.5q68 0 123 -7t105 -7q131 0 131 106q0 54 -27 117l189 57q16 -38 23.5 -74.5t7.5 -74.5q0 -106 -79 -165t-221 -59h-109l18 59q155 -46 239 -176t84 -318v-27q0 -163 -60 -285t-169 -189.5
t-255 -67.5zM596 136q140 0 219 100t79 277v21q0 180 -79 281.5t-219 101.5t-219 -101.5t-79 -281.5v-21q0 -177 79 -277t219 -100zM570 1194l-23 144q84 9 126.5 38.5t42.5 78.5q0 94 -130 94q-81 0 -165 -31l-45 143q50 21 104.5 32.5t109.5 11.5q125 0 200 -67t75 -177
t-77.5 -180t-217.5 -87z" />
    <glyph glyph-name="uni1EE0" unicode="&#x1ee0;" 
d="M599 -31q-161 0 -278.5 88.5t-180.5 251.5t-63 388v38q0 226 63.5 389t182 251t284.5 88q66 0 122 -8.5t111 -8.5q151 0 151 107q0 27 -7.5 54t-21.5 55l184 71q40 -78 40 -154q0 -108 -83.5 -169t-235.5 -61h-114l12 63q173 -70 265 -243.5t92 -433.5v-38
q0 -225 -63 -388t-180.5 -251.5t-279.5 -88.5zM599 145q161 0 247.5 141.5t86.5 405.5v52q0 269 -82.5 408.5t-243.5 139.5q-163 0 -252.5 -144t-89.5 -408v-48q0 -264 87 -405.5t247 -141.5zM758 1682q-55 0 -99.5 26t-101.5 94q-40 48 -63 64t-49 16q-65 0 -65 -102v-94
h-151v96q0 118 53 185t146 67q54 0 96.5 -25.5t100.5 -96.5q38 -46 61.5 -62t49.5 -16q64 0 64 102v94h152v-96q0 -119 -51 -185.5t-143 -66.5z" />
    <glyph glyph-name="uni1EE1" unicode="&#x1ee1;" 
d="M596 -32q-146 0 -255 68t-169 190t-60 284v27q0 163 60 285t169 189.5t255 67.5q68 0 123 -7t105 -7q131 0 131 106q0 54 -27 117l189 57q16 -38 23.5 -74.5t7.5 -74.5q0 -106 -79 -165t-221 -59h-109l18 59q155 -46 239 -176t84 -318v-27q0 -163 -60 -285t-169 -189.5
t-255 -67.5zM596 136q140 0 219 100t79 277v21q0 180 -79 281.5t-219 101.5t-219 -101.5t-79 -281.5v-21q0 -177 79 -277t219 -100zM766 1291q-55 0 -99.5 26t-101.5 94q-40 48 -63 64t-49 16q-65 0 -65 -102v-94h-151v96q0 118 53 185t146 67q54 0 96.5 -25.5t100.5 -96.5
q38 -46 61.5 -62t49.5 -16q64 0 64 102v94h152v-96q0 -119 -51 -185.5t-143 -66.5z" />
    <glyph glyph-name="uni1EE2" unicode="&#x1ee2;" 
d="M599 -32q-161 0 -278.5 88.5t-180.5 251.5t-63 389v38q0 229 64.5 392t183.5 249.5t282 86.5q68 0 119 -7.5t108 -7.5q80 0 121 30.5t41 88.5q0 33 -12.5 66t-41.5 71l166 104q76 -106 76 -212q0 -117 -86.5 -182t-228.5 -65h-105l7 66q169 -70 260 -246t91 -434v-38
q0 -226 -63 -389t-180.5 -251.5t-279.5 -88.5zM599 144q161 0 247.5 142t86.5 406v52q0 269 -82 408.5t-244 139.5q-163 0 -252.5 -144.5t-89.5 -407.5v-48q0 -264 87 -406t247 -142zM599 -517q-66 0 -110 45.5t-44 109.5q0 65 44 109t110 44q67 0 111.5 -44t44.5 -109
q0 -64 -44.5 -109.5t-111.5 -45.5z" />
    <glyph glyph-name="uni1EE3" unicode="&#x1ee3;" 
d="M598 -31q-146 0 -255 68t-169 189.5t-60 283.5v27q0 163 60 284.5t169 189t255 67.5q69 0 117.5 -7t103.5 -7q143 0 143 113q0 35 -12 67t-38 70l171 91q67 -100 67 -204q0 -105 -81 -168t-218 -63h-106l14 63q155 -47 239 -176.5t84 -319.5v-27q0 -163 -60 -284.5
t-169 -189t-255 -67.5zM598 137q140 0 219 99.5t79 276.5v21q0 179 -79 280.5t-219 101.5q-139 0 -218.5 -101.5t-79.5 -280.5v-21q0 -177 79.5 -276.5t218.5 -99.5zM598 -516q-66 0 -110 45.5t-44 109.5q0 65 44 109t110 44q67 0 111.5 -44t44.5 -109q0 -64 -44.5 -109.5
t-111.5 -45.5z" />
    <glyph glyph-name="uni1EE4" unicode="&#x1ee4;" 
d="M360.5 28.5q-103.5 60.5 -161 168.5t-57.5 250v985h186v-974q0 -145 73 -229.5t199 -84.5q127 0 199.5 84.5t72.5 229.5v974h186v-985q0 -142 -57.5 -250t-160.5 -168.5t-239.5 -60.5t-240 60.5zM600 -517q-66 0 -110 45.5t-44 109.5q0 65 44 109t110 44q67 0 111.5 -44
t44.5 -109q0 -64 -44.5 -109.5t-111.5 -45.5z" />
    <glyph glyph-name="uni1EE5" unicode="&#x1ee5;" 
d="M515 -32q-157 0 -250 100.5t-93 277.5v701h181v-669q0 -121 56 -184.5t162 -63.5q113 0 186.5 85t73.5 224v608h181v-1047h-169v161h-7q-51 -88 -131.5 -140.5t-189.5 -52.5zM612 -517q-66 0 -110 45.5t-44 109.5q0 65 44 109t110 44q67 0 111.5 -44t44.5 -109
q0 -64 -44.5 -109.5t-111.5 -45.5z" />
    <glyph glyph-name="uni1EE6" unicode="&#x1ee6;" 
d="M360.5 28.5q-103.5 60.5 -161 168.5t-57.5 250v985h186v-974q0 -145 73 -229.5t199 -84.5q127 0 199.5 84.5t72.5 229.5v974h186v-985q0 -142 -57.5 -250t-160.5 -168.5t-239.5 -60.5t-240 60.5zM586 1560l-23 144q84 9 126.5 38.5t42.5 78.5q0 94 -130 94
q-81 0 -165 -31l-45 143q50 21 104.5 32.5t109.5 11.5q125 0 200 -67t75 -177t-77.5 -180t-217.5 -87z" />
    <glyph glyph-name="uni1EE7" unicode="&#x1ee7;" 
d="M515 -32q-157 0 -250 100.5t-93 277.5v701h181v-669q0 -121 56 -184.5t162 -63.5q113 0 186.5 85t73.5 224v608h181v-1047h-169v161h-7q-51 -88 -131.5 -140.5t-189.5 -52.5zM562 1175l-23 144q84 9 126.5 38.5t42.5 78.5q0 94 -130 94q-81 0 -165 -31l-45 143
q50 21 104.5 32.5t109.5 11.5q125 0 200 -67t75 -177t-77.5 -180t-217.5 -87z" />
    <glyph glyph-name="uni1EE8" unicode="&#x1ee8;" 
d="M306 24q-96 56 -149.5 155.5t-53.5 229.5v1023h183v-1012q0 -127 65 -201.5t180 -74.5t179.5 74.5t64.5 201.5v1012h78q66 0 99 26t33 80q0 33 -6.5 66.5t-20.5 71.5l196 60q31 -84 31 -167q0 -114 -81.5 -178t-206.5 -64h-69l129 73v-991q0 -130 -53.5 -229.5
t-149.5 -155.5t-224 -56t-224 56zM442 1655v11l177 349h222v-11l-227 -349h-172z" />
    <glyph glyph-name="uni1EE9" unicode="&#x1ee9;" 
d="M484 -32q-145 0 -229.5 93t-84.5 256v730h178v-699q0 -106 49 -163t143 -57q104 0 169.5 81.5t65.5 217.5v620h94q107 0 107 95q0 29 -5 60t-15 62l197 50q21 -66 21 -137q0 -107 -82.5 -168t-217.5 -61h-49l128 89v-1037h-169v155h-7q-47 -85 -120 -136t-173 -51z
M466 1270v11l177 349h222v-11l-227 -349h-172z" />
    <glyph glyph-name="uni1EEA" unicode="&#x1eea;" 
d="M306 24q-96 56 -149.5 155.5t-53.5 229.5v1023h183v-1012q0 -127 65 -201.5t180 -74.5t179.5 74.5t64.5 201.5v1012h78q66 0 99 26t33 80q0 33 -6.5 66.5t-20.5 71.5l196 60q31 -84 31 -167q0 -114 -81.5 -178t-206.5 -64h-69l129 73v-991q0 -130 -53.5 -229.5
t-149.5 -155.5t-224 -56t-224 56zM486 1655l-226 349v11h222l176 -349v-11h-172z" />
    <glyph glyph-name="uni1EEB" unicode="&#x1eeb;" 
d="M484 -32q-145 0 -229.5 93t-84.5 256v730h178v-699q0 -106 49 -163t143 -57q104 0 169.5 81.5t65.5 217.5v620h94q107 0 107 95q0 29 -5 60t-15 62l197 50q21 -66 21 -137q0 -107 -82.5 -168t-217.5 -61h-49l128 89v-1037h-169v155h-7q-47 -85 -120 -136t-173 -51z
M514 1270l-226 349v11h222l176 -349v-11h-172z" />
    <glyph glyph-name="uni1EEC" unicode="&#x1eec;" 
d="M306 24q-96 56 -149.5 155.5t-53.5 229.5v1023h183v-1012q0 -127 65 -201.5t180 -74.5t179.5 74.5t64.5 201.5v1012h78q66 0 99 26t33 80q0 33 -6.5 66.5t-20.5 71.5l196 60q31 -84 31 -167q0 -114 -81.5 -178t-206.5 -64h-69l129 73v-991q0 -130 -53.5 -229.5
t-149.5 -155.5t-224 -56t-224 56zM490 1577l-23 144q84 9 126.5 38.5t42.5 78.5q0 94 -130 94q-81 0 -165 -31l-45 143q50 21 104.5 32.5t109.5 11.5q125 0 200 -67t75 -177t-77.5 -180t-217.5 -87z" />
    <glyph glyph-name="uni1EED" unicode="&#x1eed;" 
d="M484 -32q-145 0 -229.5 93t-84.5 256v730h178v-699q0 -106 49 -163t143 -57q104 0 169.5 81.5t65.5 217.5v620h94q107 0 107 95q0 29 -5 60t-15 62l197 50q21 -66 21 -137q0 -107 -82.5 -168t-217.5 -61h-49l128 89v-1037h-169v155h-7q-47 -85 -120 -136t-173 -51z
M519 1192l-23 144q84 9 126.5 38.5t42.5 78.5q0 94 -130 94q-81 0 -165 -31l-45 143q50 21 104.5 32.5t109.5 11.5q125 0 200 -67t75 -177t-77.5 -180t-217.5 -87z" />
    <glyph glyph-name="uni1EEE" unicode="&#x1eee;" 
d="M306 24q-96 56 -149.5 155.5t-53.5 229.5v1023h183v-1012q0 -127 65 -201.5t180 -74.5t179.5 74.5t64.5 201.5v1012h78q66 0 99 26t33 80q0 33 -6.5 66.5t-20.5 71.5l196 60q31 -84 31 -167q0 -114 -81.5 -178t-206.5 -64h-69l129 73v-991q0 -130 -53.5 -229.5
t-149.5 -155.5t-224 -56t-224 56zM692 1669q-55 0 -99.5 26t-101.5 94q-40 48 -63 64t-49 16q-65 0 -65 -102v-94h-151v96q0 118 53 185t146 67q54 0 96.5 -25.5t100.5 -96.5q38 -46 61.5 -62t49.5 -16q64 0 64 102v94h152v-96q0 -119 -51 -185.5t-143 -66.5z" />
    <glyph glyph-name="uni1EEF" unicode="&#x1eef;" 
d="M484 -32q-145 0 -229.5 93t-84.5 256v730h178v-699q0 -106 49 -163t143 -57q104 0 169.5 81.5t65.5 217.5v620h94q107 0 107 95q0 29 -5 60t-15 62l197 50q21 -66 21 -137q0 -107 -82.5 -168t-217.5 -61h-49l128 89v-1037h-169v155h-7q-47 -85 -120 -136t-173 -51z
M730 1288q-55 0 -99.5 26t-101.5 94q-40 48 -63 64t-49 16q-65 0 -65 -102v-94h-151v96q0 118 53 185t146 67q54 0 96.5 -25.5t100.5 -96.5q38 -46 61.5 -62t49.5 -16q64 0 64 102v94h152v-96q0 -119 -51 -185.5t-143 -66.5z" />
    <glyph glyph-name="uni1EF0" unicode="&#x1ef0;" 
d="M530 -31q-127 0 -223 55.5t-150 154.5t-54 230v1023h183v-1012q0 -127 65.5 -200.5t179.5 -73.5q113 0 178.5 73.5t65.5 200.5v1012h59q77 0 118 32t41 91q0 37 -14.5 72.5t-45.5 77.5l163 103q43 -58 64 -114t21 -116q0 -118 -86 -186t-230 -68h-36l128 86v-1001
q0 -131 -53.5 -230t-149.5 -154.5t-224 -55.5zM531 -516q-66 0 -110 45.5t-44 109.5q0 65 44 109t110 44q67 0 111.5 -44t44.5 -109q0 -64 -44.5 -109.5t-111.5 -45.5z" />
    <glyph glyph-name="uni1EF1" unicode="&#x1ef1;" 
d="M484 -31q-144 0 -229 92.5t-85 255.5v730h178v-699q0 -106 49.5 -162.5t142.5 -56.5q104 0 169 81t65 217v620h65q147 0 147 115q0 30 -11.5 58t-35.5 57l161 109q38 -47 56 -94.5t18 -103.5q0 -109 -84.5 -173.5t-227.5 -64.5h-39l130 87v-1037h-169v155h-7
q-49 -86 -122 -136t-171 -50zM562 -516q-66 0 -110 45.5t-44 109.5q0 65 44 109t110 44q67 0 111.5 -44t44.5 -109q0 -64 -44.5 -109.5t-111.5 -45.5z" />
    <glyph glyph-name="Ygrave" unicode="&#x1ef2;" 
d="M518 524l-453 908h208l227 -468l100 -229h7l97 229l229 468h202l-452 -908h-165zM507 0v627h186v-627h-186zM517 1638l-226 349v11h222l176 -349v-11h-172z" />
    <glyph glyph-name="ygrave" unicode="&#x1ef3;" 
d="M318 -442q-146 0 -255 91l92 141q79 -64 157 -64q63 0 102.5 31.5t65.5 103.5l94 259h27l92 312l219 615h193l-465 -1231q-52 -136 -128 -197t-194 -61zM561 -95l-437 1142h195l224 -615l73 -236h30zM530 1253l-226 349v11h222l176 -349v-11h-172z" />
    <glyph glyph-name="uni1EF4" unicode="&#x1ef4;" 
d="M518 524l-453 908h208l227 -468l100 -229h7l97 229l229 468h202l-452 -908h-165zM507 0v627h186v-627h-186zM600 -485q-66 0 -110 45.5t-44 109.5q0 65 44 109t110 44q67 0 111.5 -44t44.5 -109q0 -64 -44.5 -109.5t-111.5 -45.5z" />
    <glyph glyph-name="uni1EF5" unicode="&#x1ef5;" 
d="M318 -442q-146 0 -255 91l92 141q79 -64 157 -64q63 0 102.5 31.5t65.5 103.5l94 259h27l92 312l219 615h193l-465 -1231q-52 -136 -128 -197t-194 -61zM561 -95l-437 1142h195l224 -615l73 -236h30zM917 -485q-66 0 -110 45.5t-44 109.5q0 65 44 109t110 44
q67 0 111.5 -44t44.5 -109q0 -64 -44.5 -109.5t-111.5 -45.5z" />
    <glyph glyph-name="uni1EF6" unicode="&#x1ef6;" 
d="M518 524l-453 908h208l227 -468l100 -229h7l97 229l229 468h202l-452 -908h-165zM507 0v627h186v-627h-186zM589 1560l-23 144q84 9 126.5 38.5t42.5 78.5q0 94 -130 94q-81 0 -165 -31l-45 143q50 21 104.5 32.5t109.5 11.5q125 0 200 -67t75 -177t-77.5 -180
t-217.5 -87z" />
    <glyph glyph-name="uni1EF7" unicode="&#x1ef7;" 
d="M318 -442q-146 0 -255 91l92 141q79 -64 157 -64q63 0 102.5 31.5t65.5 103.5l94 259h27l92 312l219 615h193l-465 -1231q-52 -136 -128 -197t-194 -61zM561 -95l-437 1142h195l224 -615l73 -236h30zM581 1175l-23 144q84 9 126.5 38.5t42.5 78.5q0 94 -130 94
q-81 0 -165 -31l-45 143q50 21 104.5 32.5t109.5 11.5q125 0 200 -67t75 -177t-77.5 -180t-217.5 -87z" />
    <glyph glyph-name="uni1EF8" unicode="&#x1ef8;" 
d="M518 524l-453 908h208l227 -468l100 -229h7l97 229l229 468h202l-452 -908h-165zM507 0v627h186v-627h-186zM771 1648q-55 0 -99.5 26t-101.5 94q-40 48 -63 64t-49 16q-65 0 -65 -102v-94h-151v96q0 118 53 185t146 67q54 0 96.5 -25.5t100.5 -96.5q38 -46 61.5 -62
t49.5 -16q64 0 64 102v94h152v-96q0 -119 -51 -185.5t-143 -66.5z" />
    <glyph glyph-name="uni1EF9" unicode="&#x1ef9;" 
d="M318 -442q-146 0 -255 91l92 141q79 -64 157 -64q63 0 102.5 31.5t65.5 103.5l94 259h27l92 312l219 615h193l-465 -1231q-52 -136 -128 -197t-194 -61zM561 -95l-437 1142h195l224 -615l73 -236h30zM784 1263q-55 0 -99.5 26t-101.5 94q-40 48 -63 64t-49 16
q-65 0 -65 -102v-94h-151v96q0 118 53 185t146 67q54 0 96.5 -25.5t100.5 -96.5q38 -46 61.5 -62t49.5 -16q64 0 64 102v94h152v-96q0 -119 -51 -185.5t-143 -66.5z" />
    <glyph glyph-name="endash" unicode="&#x2013;" 
d="M108 533v186h984v-186h-984z" />
    <glyph glyph-name="emdash" unicode="&#x2014;" 
d="M87 533v186h1026v-186h-1026z" />
    <glyph glyph-name="quoteleft" unicode="&#x2018;" 
d="M706 1492l116 -78l-238 -320l1 55q45 0 82.5 -18.5t59.5 -53t22 -81.5q0 -64 -44.5 -110t-114.5 -46q-72 0 -119 45t-47 127q0 48 20 95.5t57 98.5z" />
    <glyph glyph-name="quoteright" unicode="&#x2019;" 
d="M494 840l-116 78l238 320l-1 -55q-45 0 -82.5 18.5t-59.5 53t-22 81.5q0 65 44.5 110.5t114.5 45.5q72 0 119 -45t47 -127q0 -48 -20 -95.5t-57 -98.5z" />
    <glyph glyph-name="quotesinglbase" unicode="&#x201a;" 
d="M494 -349l-116 78l238 320l-1 -55q-45 0 -82.5 18.5t-59.5 53t-22 81.5q0 65 44.5 110.5t114.5 45.5q72 0 119 -45t47 -127q0 -48 -20 -95.5t-57 -98.5z" />
    <glyph glyph-name="quotedblleft" unicode="&#x201c;" 
d="M430 1492l116 -78l-238 -320l1 55q45 0 82.5 -18.5t59.5 -53t22 -81.5q0 -64 -44.5 -110t-114.5 -46q-72 0 -119 45t-47 127q0 48 20 95.5t57 98.5zM912 1492l116 -78l-238 -320l1 55q45 0 82.5 -18.5t59.5 -53t22 -81.5q0 -64 -44.5 -110t-114.5 -46q-72 0 -119 45
t-47 127q0 48 20 95.5t57 98.5z" />
    <glyph glyph-name="quotedblright" unicode="&#x201d;" 
d="M288 840l-116 78l238 320l-1 -55q-45 0 -82.5 18.5t-59.5 53t-22 81.5q0 65 44.5 110.5t114.5 45.5q72 0 119 -45t47 -127q0 -48 -20 -95.5t-57 -98.5zM770 840l-116 78l238 320l-1 -55q-45 0 -82.5 18.5t-59.5 53t-22 81.5q0 65 44.5 110.5t114.5 45.5q72 0 119 -45
t47 -127q0 -48 -20 -95.5t-57 -98.5z" />
    <glyph glyph-name="quotedblbase" unicode="&#x201e;" 
d="M288 -350l-116 78l238 320l-1 -55q-45 0 -82.5 18.5t-59.5 53t-22 81.5q0 65 44.5 110.5t114.5 45.5q72 0 119 -45t47 -127q0 -48 -20 -95.5t-57 -98.5zM770 -349l-116 78l238 320l-1 -55q-45 0 -82.5 18.5t-59.5 53t-22 81.5q0 65 44.5 110.5t114.5 45.5q72 0 119 -45
t47 -127q0 -48 -20 -95.5t-57 -98.5z" />
    <glyph glyph-name="bullet" unicode="&#x2022;" 
d="M560 423q-70 0 -125 32t-87 87.5t-32 124.5q0 70 32 125t87 87t125 32t125 -32t87 -87t32 -125q0 -69 -32 -124.5t-87 -87.5t-125 -32z" />
    <glyph glyph-name="ellipsis" unicode="&#x2026;" 
d="M198 -31q-52 0 -88 37t-36 92q0 53 36 89.5t88 36.5q53 0 88.5 -36.5t35.5 -89.5q0 -55 -35.5 -92t-88.5 -37zM1002 -31q-52 0 -88 37t-36 92q0 53 36 89.5t88 36.5q53 0 88.5 -36.5t35.5 -89.5q0 -55 -35.5 -92t-88.5 -37zM600 -31q-52 0 -88 37t-36 92q0 53 36 89.5
t88 36.5q53 0 88.5 -36.5t35.5 -89.5q0 -55 -35.5 -92t-88.5 -37z" />
    <glyph glyph-name="minute" unicode="&#x2032;" 
d="M329 844l75 616h230l-110 -616h-195z" />
    <glyph glyph-name="second" unicode="&#x2033;" 
d="M170 844l75 616h230l-110 -616h-195zM574 844l75 616h230l-110 -616h-195z" />
    <glyph glyph-name="guilsinglleft" unicode="&#x2039;" 
d="M800 24l-465 508l465 509l120 -108l-351 -401l351 -401z" />
    <glyph glyph-name="guilsinglright" unicode="&#x203a;" 
d="M400 24l-120 107l351 401l-351 401l120 108l465 -509z" />
    <glyph glyph-name="fraction" unicode="&#x2044;" 
d="M56 -31l944 1491h144l-944 -1491h-144z" />
    <glyph glyph-name="uni2074" unicode="&#x2074;" 
d="M642 697v304l13 32v498l47 -59h-58l-279 -385v-11h351l41 9h222v-158h-804v141l464 637h175v-1008h-172z" />
    <glyph glyph-name="dong" unicode="&#x20ab;" 
d="M500 238q-114 0 -206 53t-145.5 145t-53.5 209v14q0 117 52 209t142 145t203 53q106 0 177 -38.5t123 -109.5h7v595h169v-1275h-159v163h-7q-46 -76 -120.5 -119.5t-181.5 -43.5zM115 -104v177h933v-177h-933zM536 392q75 0 134 33t93.5 91.5t34.5 133.5v4
q0 113 -74 185.5t-188 72.5q-119 0 -190.5 -71t-71.5 -187v-4q0 -116 72 -187t190 -71zM435 1219v140h717v-140h-717z" />
    <glyph glyph-name="Euro" unicode="&#x20ac;" 
d="M723 -32q-162 0 -277 78.5t-176 226.5t-61 354v178q0 206 61 353.5t175 226.5t274 79q146 0 252.5 -69.5t169.5 -205.5l-148 -78q-43 95 -110.5 140t-168.5 45q-331 0 -331 -487v-186q0 -242 87 -364.5t256 -122.5q95 0 160.5 46.5t108.5 143.5l148 -78
q-62 -139 -167.5 -209.5t-252.5 -70.5zM17 482v138h856v-138h-856zM17 817v138h856v-138h-856z" />
    <glyph glyph-name="trademark" unicode="&#x2122;" 
d="M588 622v836h129l125 -358l38 -142h10l38 142l125 358h129v-836h-120v310l12 268h-10l-128 -392h-102l-128 392h-10l12 -268v-310h-120zM200 622v800h130v-800h-130zM18 1336v122h495v-122h-495z" />
    <glyph glyph-name="arrowleft" unicode="&#x2190;" 
d="M600 76l-506 554l506 554l117 -111l-414 -429v-28l414 -429zM644 544l-428 19v134l428 19h496v-172h-496z" />
    <glyph glyph-name="arrowup" unicode="&#x2191;" 
d="M164 612l-110 117l546 498l546 -498l-111 -117l-421 406h-28zM511 25v652l22 428h134l22 -428v-652h-178z" />
    <glyph glyph-name="arrowright" unicode="&#x2192;" 
d="M634 76l-117 111l414 429v28l-414 429l117 111l506 -554zM94 544v172h496l428 -19v-134l-428 -19h-496z" />
    <glyph glyph-name="arrowdown" unicode="&#x2193;" 
d="M600 25l-546 499l110 116l422 -406h28l421 406l111 -116zM533 147l-22 428v652h178v-652l-22 -428h-134z" />
    <glyph glyph-name="arrowdblright" unicode="&#x21d2;" 
d="M620 31l-108 106l459 470v46l-459 470l108 106l562 -599zM40 383v150h908v-111l-362 -39h-546zM40 727v150h546l362 -39v-111h-908z" />
    <glyph glyph-name="minus" unicode="&#x2212;" 
d="M154 540v180h892v-180h-892z" />
    <glyph glyph-name="uni2215" unicode="&#x2215;" 
d="M50 -32l886 1492h214l-886 -1492h-214z" />
    <glyph glyph-name="uni2237" unicode="&#x2237;" 
d="M877 829q-66 0 -109.5 44t-43.5 111t43.5 110.5t109.5 43.5t109.5 -44t43.5 -110q0 -67 -44 -111t-109 -44zM323 122q-66 0 -109.5 44t-43.5 110q0 67 43.5 111t109.5 44q65 0 109 -44t44 -111q0 -66 -43.5 -110t-109.5 -44zM767.5 165.5q-43.5 43.5 -43.5 110.5
t43.5 111t109.5 44q65 0 109 -44t44 -111q0 -66 -43.5 -110t-109.5 -44t-109.5 43.5zM214 873q-44 44 -44 111q0 66 43.5 110t109.5 44t109.5 -44t43.5 -110q0 -67 -44 -111t-109 -44t-109 44z" />
    <glyph glyph-name="lessequal" unicode="&#x2264;" 
d="M1050 256l-900 348v181l900 347v-185l-507 -189l-192 -60v-8l192 -60l507 -189v-185zM150 0v171h900v-171h-900z" />
    <glyph glyph-name="greaterequal" unicode="&#x2265;" 
d="M150 256v185l507 189l192 60v8l-192 60l-507 189v185l900 -347v-181zM1050 0h-900v171h900v-171z" />
    <glyph glyph-name="uni2318" unicode="&#x2318;" 
d="M276 163q-105 0 -169.5 64t-64.5 169q0 104 68.5 166.5t181.5 62.5h77v182h-77q-113 0 -181.5 63t-68.5 166q0 106 64.5 169.5t169.5 63.5q104 0 167 -68.5t63 -181.5v-79h188v79q0 113 63.5 181.5t167.5 68.5q106 0 169.5 -63.5t63.5 -169.5q0 -103 -68.5 -166
t-182.5 -63h-76v-182h76q114 0 182.5 -62.5t68.5 -166.5q0 -105 -63.5 -169t-169.5 -64q-104 0 -167.5 68t-63.5 181v80h-188v-80q0 -113 -63 -181t-167 -68zM276 299q46 0 70.5 31.5t24.5 88.5v75h-75q-54 0 -85 -26.5t-31 -73.5q0 -44 26 -69.5t70 -25.5zM296 938h75v74
q0 58 -24.5 89t-70.5 31q-44 0 -70 -25.5t-26 -69.5q0 -46 31 -72.5t85 -26.5zM505 624h190v184h-190v-184zM923 299q44 0 70.5 25.5t26.5 69.5q0 47 -31 73.5t-86 26.5h-74v-75q0 -57 24 -88.5t70 -31.5zM829 938h74q54 0 85.5 26.5t31.5 72.5q0 44 -26 69.5t-70 25.5
q-46 0 -70.5 -31t-24.5 -89v-74z" />
    <glyph glyph-name="uni2325" unicode="&#x2325;" 
d="M753 157l-491 1118h182l492 -1118h-183zM23 1095v180h350l24 -180h-374zM815 157l-30 180h392v-180h-362zM715 1095v180h462v-180h-462z" />
    <glyph glyph-name="uni2500" unicode="&#x2500;" 
d="M-90 554v180h1380v-180h-1380z" />
    <glyph glyph-name="uni2501" unicode="&#x2501;" 
d="M-90 482v324h1380v-324h-1380z" />
    <glyph glyph-name="uni2502" unicode="&#x2502;" 
d="M510 -656v2600h180v-2600h-180z" />
    <glyph glyph-name="uni2503" unicode="&#x2503;" 
d="M438 -656v2600h324v-2600h-324z" />
    <glyph glyph-name="uni2504" unicode="&#x2504;" 
d="M867 554v180h266v-180h-266zM67 554v180h266v-180h-266zM467 554v180h266v-180h-266z" />
    <glyph glyph-name="uni2505" unicode="&#x2505;" 
d="M867 482v324h266v-324h-266zM67 482v324h266v-324h-266zM467 482v324h266v-324h-266z" />
    <glyph glyph-name="uni2506" unicode="&#x2506;" 
d="M510 366v556h180v-556h-180zM510 -467v555h180v-555h-180zM510 1200v555h180v-555h-180z" />
    <glyph glyph-name="uni2507" unicode="&#x2507;" 
d="M438 366v556h324v-556h-324zM438 -467v555h324v-555h-324zM438 1200v555h324v-555h-324z" />
    <glyph glyph-name="uni2508" unicode="&#x2508;" 
d="M938 554v180h225v-180h-225zM38 554v180h225v-180h-225zM338 554v180h225v-180h-225zM638 554v180h225v-180h-225z" />
    <glyph glyph-name="uni2509" unicode="&#x2509;" 
d="M938 482v324h225v-324h-225zM38 482v324h225v-324h-225zM338 482v324h225v-324h-225zM638 482v324h225v-324h-225z" />
    <glyph glyph-name="uni250A" unicode="&#x250a;" 
d="M510 1347v469h180v-469h-180zM510 -528v469h180v-469h-180zM510 97v469h180v-469h-180zM510 722v469h180v-469h-180z" />
    <glyph glyph-name="uni250B" unicode="&#x250b;" 
d="M438 1347v469h324v-469h-324zM438 -528v469h324v-469h-324zM438 97v469h324v-469h-324zM438 722v469h324v-469h-324z" />
    <glyph glyph-name="uni250C" unicode="&#x250c;" 
d="M510 -656v1390h780v-180h-600v-1210h-180z" />
    <glyph glyph-name="uni250D" unicode="&#x250d;" 
d="M510 -656v1462h780v-324h-600v-1138h-180z" />
    <glyph glyph-name="uni250E" unicode="&#x250e;" 
d="M438 -656v1390h852v-180h-528v-1210h-324z" />
    <glyph glyph-name="uni250F" unicode="&#x250f;" 
d="M438 -656v1462h852v-324h-528v-1138h-324z" />
    <glyph glyph-name="uni2510" unicode="&#x2510;" 
d="M510 -656v1210h-600v180h780v-1390h-180z" />
    <glyph glyph-name="uni2511" unicode="&#x2511;" 
d="M510 -656v1138h-600v324h780v-1462h-180z" />
    <glyph glyph-name="uni2512" unicode="&#x2512;" 
d="M438 -656v1210h-528v180h852v-1390h-324z" />
    <glyph glyph-name="uni2513" unicode="&#x2513;" 
d="M438 -656v1138h-528v324h852v-1462h-324z" />
    <glyph glyph-name="uni2514" unicode="&#x2514;" 
d="M510 554v1390h180v-1210h600v-180h-780z" />
    <glyph glyph-name="uni2515" unicode="&#x2515;" 
d="M510 482v1462h180v-1138h600v-324h-780z" />
    <glyph glyph-name="uni2516" unicode="&#x2516;" 
d="M438 554v1390h324v-1210h528v-180h-852z" />
    <glyph glyph-name="uni2517" unicode="&#x2517;" 
d="M438 482v1462h324v-1138h528v-324h-852z" />
    <glyph glyph-name="uni2518" unicode="&#x2518;" 
d="M-90 554v180h600v1210h180v-1390h-780z" />
    <glyph glyph-name="uni2519" unicode="&#x2519;" 
d="M-90 482v324h600v1138h180v-1462h-780z" />
    <glyph glyph-name="uni251A" unicode="&#x251a;" 
d="M-90 554v180h528v1210h324v-1390h-852z" />
    <glyph glyph-name="uni251B" unicode="&#x251b;" 
d="M-90 482v324h528v1138h324v-1462h-852z" />
    <glyph glyph-name="uni251C" unicode="&#x251c;" 
d="M510 -656v2600h180v-1210h600v-180h-600v-1210h-180z" />
    <glyph glyph-name="uni251D" unicode="&#x251d;" 
d="M510 -656v2600h180v-1138h600v-324h-600v-1138h-180z" />
    <glyph glyph-name="uni251E" unicode="&#x251e;" 
d="M510 -656v1210h-72v1390h324v-1210h528v-180h-600v-1210h-180z" />
    <glyph glyph-name="uni251F" unicode="&#x251f;" 
d="M438 -656v1390h72v1210h180v-1210h600v-180h-528v-1210h-324z" />
    <glyph glyph-name="uni2520" unicode="&#x2520;" 
d="M438 -656v2600h324v-1210h528v-180h-528v-1210h-324z" />
    <glyph glyph-name="uni2521" unicode="&#x2521;" 
d="M510 -656v1138h-72v1462h324v-1138h528v-324h-600v-1138h-180z" />
    <glyph glyph-name="uni2522" unicode="&#x2522;" 
d="M438 -656v1462h72v1138h180v-1138h600v-324h-528v-1138h-324z" />
    <glyph glyph-name="uni2523" unicode="&#x2523;" 
d="M438 -656v2600h324v-1138h528v-324h-528v-1138h-324z" />
    <glyph glyph-name="uni2524" unicode="&#x2524;" 
d="M510 -656v1210h-600v180h600v1210h180v-2600h-180z" />
    <glyph glyph-name="uni2525" unicode="&#x2525;" 
d="M510 -656v1138h-600v324h600v1138h180v-2600h-180z" />
    <glyph glyph-name="uni2526" unicode="&#x2526;" 
d="M510 -656v1210h-600v180h528v1210h324v-1390h-72v-1210h-180z" />
    <glyph glyph-name="uni2527" unicode="&#x2527;" 
d="M438 -656v1210h-528v180h600v1210h180v-1210h72v-1390h-324z" />
    <glyph glyph-name="uni2528" unicode="&#x2528;" 
d="M438 -656v1210h-528v180h528v1210h324v-2600h-324z" />
    <glyph glyph-name="uni2529" unicode="&#x2529;" 
d="M510 -656v1138h-600v324h528v1138h324v-1462h-72v-1138h-180z" />
    <glyph glyph-name="uni252A" unicode="&#x252a;" 
d="M438 -656v1138h-528v324h600v1138h180v-1138h72v-1462h-324z" />
    <glyph glyph-name="uni252B" unicode="&#x252b;" 
d="M438 -656v1138h-528v324h528v1138h324v-2600h-324z" />
    <glyph glyph-name="uni252C" unicode="&#x252c;" 
d="M510 -656v1210h-600v180h1380v-180h-600v-1210h-180z" />
    <glyph glyph-name="uni252D" unicode="&#x252d;" 
d="M510 -656v1138h-600v324h780v-72h600v-180h-600v-1210h-180z" />
    <glyph glyph-name="uni252E" unicode="&#x252e;" 
d="M510 -656v1210h-600v180h600v72h780v-324h-600v-1138h-180z" />
    <glyph glyph-name="uni252F" unicode="&#x252f;" 
d="M510 -656v1138h-600v324h1380v-324h-600v-1138h-180z" />
    <glyph glyph-name="uni2530" unicode="&#x2530;" 
d="M438 -656v1210h-528v180h1380v-180h-528v-1210h-324z" />
    <glyph glyph-name="uni2531" unicode="&#x2531;" 
d="M438 -656v1138h-528v324h852v-72h528v-180h-528v-1210h-324z" />
    <glyph glyph-name="uni2532" unicode="&#x2532;" 
d="M438 -656v1210h-528v180h528v72h852v-324h-528v-1138h-324z" />
    <glyph glyph-name="uni2533" unicode="&#x2533;" 
d="M438 -656v1138h-528v324h1380v-324h-528v-1138h-324z" />
    <glyph glyph-name="uni2534" unicode="&#x2534;" 
d="M-90 554v180h600v1210h180v-1210h600v-180h-1380z" />
    <glyph glyph-name="uni2535" unicode="&#x2535;" 
d="M-90 482v324h600v1138h180v-1210h600v-180h-600v-72h-780z" />
    <glyph glyph-name="uni2536" unicode="&#x2536;" 
d="M510 482v72h-600v180h600v1210h180v-1138h600v-324h-780z" />
    <glyph glyph-name="uni2537" unicode="&#x2537;" 
d="M-90 482v324h600v1138h180v-1138h600v-324h-1380z" />
    <glyph glyph-name="uni2538" unicode="&#x2538;" 
d="M-90 554v180h528v1210h324v-1210h528v-180h-1380z" />
    <glyph glyph-name="uni2539" unicode="&#x2539;" 
d="M-90 482v324h528v1138h324v-1210h528v-180h-528v-72h-852z" />
    <glyph glyph-name="uni253A" unicode="&#x253a;" 
d="M438 482v72h-528v180h528v1210h324v-1138h528v-324h-852z" />
    <glyph glyph-name="uni253B" unicode="&#x253b;" 
d="M-90 482v324h528v1138h324v-1138h528v-324h-1380z" />
    <glyph glyph-name="uni253C" unicode="&#x253c;" 
d="M510 -656v1210h-600v180h600v1210h180v-1210h600v-180h-600v-1210h-180z" />
    <glyph glyph-name="uni253D" unicode="&#x253d;" 
d="M510 -656v1138h-600v324h600v1138h180v-1210h600v-180h-600v-1210h-180z" />
    <glyph glyph-name="uni253E" unicode="&#x253e;" 
d="M510 -656v1210h-600v180h600v1210h180v-1138h600v-324h-600v-1138h-180z" />
    <glyph glyph-name="uni253F" unicode="&#x253f;" 
d="M510 -656v1138h-600v324h600v1138h180v-1138h600v-324h-600v-1138h-180z" />
    <glyph glyph-name="uni2540" unicode="&#x2540;" 
d="M510 -656v1210h-600v180h528v1210h324v-1210h528v-180h-600v-1210h-180z" />
    <glyph glyph-name="uni2541" unicode="&#x2541;" 
d="M438 -656v1210h-528v180h600v1210h180v-1210h600v-180h-528v-1210h-324z" />
    <glyph glyph-name="uni2542" unicode="&#x2542;" 
d="M438 -656v1210h-528v180h528v1210h324v-1210h528v-180h-528v-1210h-324z" />
    <glyph glyph-name="uni2543" unicode="&#x2543;" 
d="M510 -656v1138h-600v324h528v1138h324v-1210h528v-180h-528v-72h-72v-1138h-180z" />
    <glyph glyph-name="uni2544" unicode="&#x2544;" 
d="M510 -656v1138h-72v72h-528v180h528v1210h324v-1138h528v-324h-600v-1138h-180z" />
    <glyph glyph-name="uni2545" unicode="&#x2545;" 
d="M438 -656v1138h-528v324h600v1138h180v-1138h72v-72h528v-180h-528v-1210h-324z" />
    <glyph glyph-name="uni2546" unicode="&#x2546;" 
d="M438 -656v1210h-528v180h528v72h72v1138h180v-1138h600v-324h-528v-1138h-324z" />
    <glyph glyph-name="uni2547" unicode="&#x2547;" 
d="M510 -656v1138h-600v324h528v1138h324v-1138h528v-324h-600v-1138h-180z" />
    <glyph glyph-name="uni2548" unicode="&#x2548;" 
d="M438 -656v1138h-528v324h600v1138h180v-1138h600v-324h-528v-1138h-324z" />
    <glyph glyph-name="uni2549" unicode="&#x2549;" 
d="M438 -656v1138h-528v324h528v1138h324v-1210h528v-180h-528v-1210h-324z" />
    <glyph glyph-name="uni254A" unicode="&#x254a;" 
d="M438 -656v1210h-528v180h528v1210h324v-1138h528v-324h-528v-1138h-324z" />
    <glyph glyph-name="uni254B" unicode="&#x254b;" 
d="M438 -656v1138h-528v324h528v1138h324v-1138h528v-324h-528v-1138h-324z" />
    <glyph glyph-name="uni254C" unicode="&#x254c;" 
d="M750 554v180h300v-180h-300zM150 554v180h300v-180h-300z" />
    <glyph glyph-name="uni254D" unicode="&#x254d;" 
d="M750 482v324h300v-324h-300zM150 482v324h300v-324h-300z" />
    <glyph glyph-name="uni254E" unicode="&#x254e;" 
d="M510 957v625h180v-625h-180zM510 -293v625h180v-625h-180z" />
    <glyph glyph-name="uni254F" unicode="&#x254f;" 
d="M438 957v625h324v-625h-324zM438 -293v625h324v-625h-324z" />
    <glyph glyph-name="uni2550" unicode="&#x2550;" 
d="M-90 734v180h1380v-180h-1380zM-90 374v180h1380v-180h-1380z" />
    <glyph glyph-name="uni2551" unicode="&#x2551;" 
d="M690 -656v2600h180v-2600h-180zM330 -656v2600h180v-2600h-180z" />
    <glyph glyph-name="uni2552" unicode="&#x2552;" 
d="M510 -656v1570h780v-180h-600v-180h600v-180h-600v-1030h-180z" />
    <glyph glyph-name="uni2553" unicode="&#x2553;" 
d="M330 -656v1390h960v-180h-420v-1210h-180v1210h-180v-1210h-180z" />
    <glyph glyph-name="uni2554" unicode="&#x2554;" 
d="M330 -656v1570h960v-180h-780v-1390h-180zM690 -656v1210h600v-180h-420v-1030h-180z" />
    <glyph glyph-name="uni2555" unicode="&#x2555;" 
d="M510 -656v1030h-600v180h600v180h-600v180h780v-1570h-180z" />
    <glyph glyph-name="uni2556" unicode="&#x2556;" 
d="M330 -656v1210h-420v180h960v-1390h-180v1210h-180v-1210h-180z" />
    <glyph glyph-name="uni2557" unicode="&#x2557;" 
d="M690 -656v1390h-780v180h960v-1570h-180zM330 -656v1030h-420v180h600v-1210h-180z" />
    <glyph glyph-name="uni2558" unicode="&#x2558;" 
d="M510 374v1570h180v-1030h600v-180h-600v-180h600v-180h-780z" />
    <glyph glyph-name="uni2559" unicode="&#x2559;" 
d="M330 554v1390h180v-1210h180v1210h180v-1210h420v-180h-960z" />
    <glyph glyph-name="uni255A" unicode="&#x255a;" 
d="M330 374v1570h180v-1390h780v-180h-960zM690 734v1210h180v-1030h420v-180h-600z" />
    <glyph glyph-name="uni255B" unicode="&#x255b;" 
d="M-90 374v180h600v180h-600v180h600v1030h180v-1570h-780z" />
    <glyph glyph-name="uni255C" unicode="&#x255c;" 
d="M-90 554v180h420v1210h180v-1210h180v1210h180v-1390h-960z" />
    <glyph glyph-name="uni255D" unicode="&#x255d;" 
d="M-90 374v180h780v1390h180v-1570h-960zM-90 734v180h420v1030h180v-1210h-600z" />
    <glyph glyph-name="uni255E" unicode="&#x255e;" 
d="M510 -656v2600h180v-1030h600v-180h-600v-180h600v-180h-600v-1030h-180z" />
    <glyph glyph-name="uni255F" unicode="&#x255f;" 
d="M690 -656v2600h180v-1210h420v-180h-420v-1210h-180zM330 -656v2600h180v-2600h-180z" />
    <glyph glyph-name="uni2560" unicode="&#x2560;" 
d="M690 734v1210h180v-1030h420v-180h-600zM690 -656v1210h600v-180h-420v-1030h-180zM330 -656v2600h180v-2600h-180z" />
    <glyph glyph-name="uni2561" unicode="&#x2561;" 
d="M510 -656v1030h-600v180h600v180h-600v180h600v1030h180v-2600h-180z" />
    <glyph glyph-name="uni2562" unicode="&#x2562;" 
d="M330 -656v1210h-420v180h420v1210h180v-2600h-180zM690 -656v2600h180v-2600h-180z" />
    <glyph glyph-name="uni2563" unicode="&#x2563;" 
d="M-90 734v180h420v1030h180v-1210h-600zM330 -656v1030h-420v180h600v-1210h-180zM690 -656v2600h180v-2600h-180z" />
    <glyph glyph-name="uni2564" unicode="&#x2564;" 
d="M510 -656v1030h-600v180h1380v-180h-600v-1030h-180zM-90 734v180h1380v-180h-1380z" />
    <glyph glyph-name="uni2565" unicode="&#x2565;" 
d="M330 -656v1210h-420v180h1380v-180h-420v-1210h-180v1210h-180v-1210h-180z" />
    <glyph glyph-name="uni2566" unicode="&#x2566;" 
d="M690 -656v1210h600v-180h-420v-1030h-180zM330 -656v1030h-420v180h600v-1210h-180zM-90 734v180h1380v-180h-1380z" />
    <glyph glyph-name="uni2567" unicode="&#x2567;" 
d="M-90 734v180h600v1030h180v-1030h600v-180h-1380zM-90 374v180h1380v-180h-1380z" />
    <glyph glyph-name="uni2568" unicode="&#x2568;" 
d="M-90 554v180h420v1210h180v-1210h180v1210h180v-1210h420v-180h-1380z" />
    <glyph glyph-name="uni2569" unicode="&#x2569;" 
d="M690 734v1210h180v-1030h420v-180h-600zM-90 374v180h1380v-180h-1380zM-90 734v180h420v1030h180v-1210h-600z" />
    <glyph glyph-name="uni256A" unicode="&#x256a;" 
d="M510 -656v1030h-600v180h600v180h-600v180h600v1030h180v-1030h600v-180h-600v-180h600v-180h-600v-1030h-180z" />
    <glyph glyph-name="uni256B" unicode="&#x256b;" 
d="M330 -656v1210h-420v180h420v1210h180v-1210h180v1210h180v-1210h420v-180h-420v-1210h-180v1210h-180v-1210h-180z" />
    <glyph glyph-name="uni256C" unicode="&#x256c;" 
d="M690 734v1210h180v-1030h420v-180h-600zM330 -656v1030h-420v180h600v-1210h-180zM690 -656v1210h600v-180h-420v-1030h-180zM-90 734v180h420v1030h180v-1210h-600z" />
    <glyph glyph-name="uni256D" unicode="&#x256d;" 
d="M510 -656v790q0 184 73.5 318.5t208 208t318.5 73.5h180v-180h-180q-196 0 -308 -111.5t-112 -308.5v-790h-180z" />
    <glyph glyph-name="uni256E" unicode="&#x256e;" 
d="M510 -656v790q0 197 -111.5 308.5t-308.5 111.5h-180v180h180q184 0 318.5 -73.5t208 -208t73.5 -318.5v-790h-180z" />
    <glyph glyph-name="uni256F" unicode="&#x256f;" 
d="M-90 554v180h180q197 0 308.5 112t111.5 308v790h180v-790q0 -184 -73.5 -318.5t-208 -208t-318.5 -73.5h-180z" />
    <glyph glyph-name="uni2570" unicode="&#x2570;" 
d="M1110 554q-184 0 -318.5 73.5t-208 208t-73.5 318.5v790h180v-790q0 -196 112 -308t308 -112h180v-180h-180z" />
    <glyph glyph-name="uni2571" unicode="&#x2571;" 
d="M0 -606v208l1100 2292h100v-208l-1100 -2292h-100z" />
    <glyph glyph-name="uni2572" unicode="&#x2572;" 
d="M1100 -606l-1100 2292v208h100l1100 -2292v-208h-100z" />
    <glyph glyph-name="uni2573" unicode="&#x2573;" 
d="M0 -606v208l500 1042l-500 1042v208h100l500 -1042l500 1042h100v-208l-500 -1042l500 -1042v-208h-100l-500 1042l-500 -1042h-100z" />
    <glyph glyph-name="uni2574" unicode="&#x2574;" 
d="M-90 554v180h780v-180h-780z" />
    <glyph glyph-name="uni2575" unicode="&#x2575;" 
d="M510 554v1390h180v-1390h-180z" />
    <glyph glyph-name="uni2576" unicode="&#x2576;" 
d="M510 554v180h780v-180h-780z" />
    <glyph glyph-name="uni2577" unicode="&#x2577;" 
d="M510 -656v1390h180v-1390h-180z" />
    <glyph glyph-name="uni2578" unicode="&#x2578;" 
d="M-90 482v324h780v-324h-780z" />
    <glyph glyph-name="uni2579" unicode="&#x2579;" 
d="M438 554v1390h324v-1390h-324z" />
    <glyph glyph-name="uni257A" unicode="&#x257a;" 
d="M510 482v324h780v-324h-780z" />
    <glyph glyph-name="uni257B" unicode="&#x257b;" 
d="M438 -656v1390h324v-1390h-324z" />
    <glyph glyph-name="uni257C" unicode="&#x257c;" 
d="M510 482v72h-600v180h600v72h780v-324h-780z" />
    <glyph glyph-name="uni257D" unicode="&#x257d;" 
d="M438 -656v1390h72v1210h180v-1210h72v-1390h-324z" />
    <glyph glyph-name="uni257E" unicode="&#x257e;" 
d="M-90 482v324h780v-72h600v-180h-600v-72h-780z" />
    <glyph glyph-name="uni257F" unicode="&#x257f;" 
d="M510 -656v1210h-72v1390h324v-1390h-72v-1210h-180z" />
    <glyph glyph-name="upblock" unicode="&#x2580;" 
d="M0 644v1300h1200v-1300h-1200z" />
    <glyph glyph-name="uni2581" unicode="&#x2581;" 
d="M0 -656v325h1200v-325h-1200z" />
    <glyph glyph-name="uni2582" unicode="&#x2582;" 
d="M0 -656v650h1200v-650h-1200z" />
    <glyph glyph-name="uni2583" unicode="&#x2583;" 
d="M0 -656v975h1200v-975h-1200z" />
    <glyph glyph-name="dnblock" unicode="&#x2584;" 
d="M0 -656v1300h1200v-1300h-1200z" />
    <glyph glyph-name="uni2585" unicode="&#x2585;" 
d="M0 -656v1625h1200v-1625h-1200z" />
    <glyph glyph-name="uni2586" unicode="&#x2586;" 
d="M0 -656v1950h1200v-1950h-1200z" />
    <glyph glyph-name="uni2587" unicode="&#x2587;" 
d="M0 -656v2275h1200v-2275h-1200z" />
    <glyph glyph-name="block" unicode="&#x2588;" 
d="M0 -656v2600h1200v-2600h-1200z" />
    <glyph glyph-name="uni2589" unicode="&#x2589;" 
d="M0 -656v2600h1050v-2600h-1050z" />
    <glyph glyph-name="uni258A" unicode="&#x258a;" 
d="M0 -656v2600h900v-2600h-900z" />
    <glyph glyph-name="uni258B" unicode="&#x258b;" 
d="M0 -656v2600h750v-2600h-750z" />
    <glyph glyph-name="lfblock" unicode="&#x258c;" 
d="M0 -656v2600h600v-2600h-600z" />
    <glyph glyph-name="uni258D" unicode="&#x258d;" 
d="M0 -656v2600h450v-2600h-450z" />
    <glyph glyph-name="uni258E" unicode="&#x258e;" 
d="M0 -656v2600h300v-2600h-300z" />
    <glyph glyph-name="uni258F" unicode="&#x258f;" 
d="M0 -656v2600h150v-2600h-150z" />
    <glyph glyph-name="rtblock" unicode="&#x2590;" 
d="M600 -656v2600h600v-2600h-600z" />
    <glyph glyph-name="ltshade" unicode="&#x2591;" 
d="M1062 1717v90h90v-90h-90zM48 -608v90h90v-90h-90zM48 -250v90h90v-90h-90zM252 -429v90h90v-90h-90zM454 -608v90h90v-90h-90zM48 107v90h90v-90h-90zM252 -71v90h90v-90h-90zM454 -250v90h90v-90h-90zM657 -429v90h90v-90h-90zM859 -608v90h90v-90h-90zM48 465v90h90
v-90h-90zM252 286v90h90v-90h-90zM454 107v90h90v-90h-90zM657 -71v90h90v-90h-90zM859 -250v90h90v-90h-90zM1062 -429v90h90v-90h-90zM48 823v90h90v-90h-90zM252 644v90h90v-90h-90zM454 465v90h90v-90h-90zM657 286v90h90v-90h-90zM859 107v90h90v-90h-90zM1062 -71v90
h90v-90h-90zM48 1181v90h90v-90h-90zM252 1002v90h90v-90h-90zM454 823v90h90v-90h-90zM657 644v90h90v-90h-90zM859 465v90h90v-90h-90zM1062 286v90h90v-90h-90zM48 1538v90h90v-90h-90zM252 1359v90h90v-90h-90zM454 1180v90h90v-90h-90zM657 1001v90h90v-90h-90z
M859 823v90h90v-90h-90zM1062 644v90h90v-90h-90zM252 1717v90h90v-90h-90zM454 1538v90h90v-90h-90zM657 1360v90h90v-90h-90zM859 1180v90h90v-90h-90zM1062 1001v90h90v-90h-90zM657 1717v90h90v-90h-90zM859 1538v90h90v-90h-90zM1062 1360v90h90v-90h-90z" />
    <glyph glyph-name="shade" unicode="&#x2592;" 
d="M8 1179v184h184v-184h-184zM8 822v183h184v-183h-184zM8 464v184h184v-184h-184zM8 107v183h184v-183h-184zM8 -250v184h184v-184h-184zM209 1713v183h184v-183h-184zM209 1359v184h184v-184h-184zM209 1001v184h184v-184h-184zM209 644v184h184v-184h-184zM209 286v184
h184v-184h-184zM209 -72v184h184v-184h-184zM209 -430v184h184v-184h-184zM408 1537v183h183v-183h-183zM408 1180v183h184v-183h-184zM408 822v183h184v-183h-184zM408 464v184h184v-184h-184zM408 107v184h184v-184h-184zM408 -251v184h184v-184h-184zM608 1713v183h184
v-183h-184zM609 1357v184h184v-184h-184zM609 1000v183h184v-183h-184zM609 642v184h184v-184h-184zM609 286v183h184v-183h-184zM609 -73v184h184v-184h-184zM609 -430v184h184v-184h-184zM808 1537v183h183v-183h-183zM808 1180v183h183v-183h-183zM808 822v183h183v-183
h-183zM808 464v184h183v-184h-183zM808 107v184h183v-184h-183zM808 -251v184h183v-184h-183zM1009 1713v183h183v-183h-183zM1009 1357v184h183v-184h-183zM1009 1000v183h183v-183h-183zM1009 642v184h183v-184h-183zM1009 286v183h183v-183h-183zM1009 -73v184h183v-184
h-183zM1009 -430v184h183v-184h-183zM8 -608v184h184v-184h-184zM408 -608v184h184v-184h-184zM808 -608v184h183v-184h-183zM8 1537v183h184v-183h-184z" />
    <glyph glyph-name="dkshade" unicode="&#x2593;" 
d="M-6 -608v2504h1212v-2504h-1212zM42 -608h114v114h-114v-114zM42 -250h114v114h-114v-114zM247 -429h114v114h-114v-114zM441 -608h114v114h-114v-114zM42 107h114v114h-114v-114zM247 -71h114v114h-114v-114zM441 -250h114v114h-114v-114zM646 -429h114v114h-114v-114z
M839 -608h114v114h-114v-114zM42 465h114v114h-114v-114zM247 286h114v114h-114v-114zM441 107h114v114h-114v-114zM646 -71h114v114h-114v-114zM839 -250h114v114h-114v-114zM1044 -429h114v114h-114v-114zM42 823h114v114h-114v-114zM247 644h114v114h-114v-114zM441 465
h114v114h-114v-114zM646 286h114v114h-114v-114zM839 107h114v114h-114v-114zM1044 -71h114v114h-114v-114zM42 1181h114v114h-114v-114zM247 1002h114v114h-114v-114zM441 823h114v114h-114v-114zM646 644h114v114h-114v-114zM839 465h114v114h-114v-114zM1044 286h114v114
h-114v-114zM42 1538h114v114h-114v-114zM247 1359h114v114h-114v-114zM441 1180h114v114h-114v-114zM646 1002h114v114h-114v-114zM839 823h114v114h-114v-114zM1044 644h114v114h-114v-114zM247 1717h114v114h-114v-114zM441 1538h114v114h-114v-114zM646 1359h114v114
h-114v-114zM839 1181h114v114h-114v-114zM1044 1002h114v114h-114v-114zM646 1717h114v114h-114v-114zM839 1538h114v114h-114v-114zM1044 1359h114v114h-114v-114zM1044 1717h114v114h-114v-114z" />
    <glyph glyph-name="uni2594" unicode="&#x2594;" 
d="M0 1619v325h1200v-325h-1200z" />
    <glyph glyph-name="uni2595" unicode="&#x2595;" 
d="M1050 -656v2600h150v-2600h-150z" />
    <glyph glyph-name="uni2596" unicode="&#x2596;" 
d="M0 -656v1300h600v-1300h-600z" />
    <glyph glyph-name="uni2597" unicode="&#x2597;" 
d="M600 -656v1300h600v-1300h-600z" />
    <glyph glyph-name="uni2598" unicode="&#x2598;" 
d="M0 644v1300h600v-1300h-600z" />
    <glyph glyph-name="uni2599" unicode="&#x2599;" 
d="M0 -656v2600h600v-1300h600v-1300h-1200z" />
    <glyph glyph-name="uni259A" unicode="&#x259a;" 
d="M0 644v1300h600v-1300h-600zM600 -656v1300h600v-1300h-600z" />
    <glyph glyph-name="uni259B" unicode="&#x259b;" 
d="M0 -656v2600h1200v-1300h-600v-1300h-600z" />
    <glyph glyph-name="uni259C" unicode="&#x259c;" 
d="M600 -656v1300h-600v1300h1200v-2600h-600z" />
    <glyph glyph-name="uni259D" unicode="&#x259d;" 
d="M600 644v1300h600v-1300h-600z" />
    <glyph glyph-name="uni259E" unicode="&#x259e;" 
d="M600 644v1300h600v-1300h-600zM0 -656v1300h600v-1300h-600z" />
    <glyph glyph-name="uni259F" unicode="&#x259f;" 
d="M0 -656v1300h600v1300h600v-2600h-1200z" />
    <glyph glyph-name="filledbox" unicode="&#x25a0;" 
d="M134 250v932h932v-932h-932z" />
    <glyph glyph-name="uni25A1" unicode="&#x25a1;" 
d="M96 212v1008h1008v-1008h-1008zM220 333h760v766h-760v-766z" />
    <glyph glyph-name="uni25AA" unicode="&#x25aa;" 
d="M338 321v525h525v-525h-525z" />
    <glyph glyph-name="uni25AB" unicode="&#x25ab;" 
d="M287 271v626h626v-626h-626zM393 375h413v418h-413v-418z" />
    <glyph glyph-name="filledrect" unicode="&#x25ac;" 
d="M58 407v257h1084v-257h-1084z" />
    <glyph glyph-name="triagup" unicode="&#x25b2;" 
d="M90 190l510 1100l510 -1100h-1020z" />
    <glyph glyph-name="triagrt" unicode="&#x25ba;" 
d="M70 206v1020l1100 -510z" />
    <glyph glyph-name="triagdn" unicode="&#x25bc;" 
d="M600 166l-510 1100h1020z" />
    <glyph glyph-name="triaglf" unicode="&#x25c4;" 
d="M1130 206l-1100 510l1100 510v-1020z" />
    <glyph glyph-name="uni25C6" unicode="&#x25c6;" 
d="M600 196l-520 520l520 520l520 -520z" />
    <glyph glyph-name="uni25C9" unicode="&#x25c9;" 
d="M600 160q-159 0 -285 72.5t-198.5 198.5t-72.5 285q0 160 72.5 285.5t198.5 198t285 72.5q160 0 285.5 -72.5t198 -198t72.5 -285.5q0 -159 -72.5 -285t-198 -198.5t-285.5 -72.5zM826.5 328.5q99.5 58.5 157.5 159.5t58 228.5t-58 228t-157.5 159t-226.5 58.5
t-226.5 -58.5t-157.5 -159t-58 -228t58 -228.5t157.5 -159.5t226.5 -58.5t226.5 58.5zM441.5 441q-69.5 41 -109.5 112.5t-40 162.5t40 162.5t109.5 112.5t158.5 41t158.5 -41t109.5 -112.5t40 -162.5t-40 -162.5t-109.5 -112.5t-158.5 -41t-158.5 41z" />
    <glyph glyph-name="lozenge" unicode="&#x25ca;" 
d="M522 -32l-414 748l414 748h157l413 -748l-413 -748h-157zM600 161l339 617v-124l-339 618l-338 -618v124z" />
    <glyph glyph-name="circle" unicode="&#x25cb;" 
d="M316 233q-126 73 -199 199t-73 284.5t73 284t199 198.5t284 73q159 0 284.5 -72.5t198.5 -198.5t73 -285t-73 -285t-198.5 -198.5t-284 -72.5t-284.5 73zM821 339.5q97 56.5 153 154.5t56 222.5t-56 222.5t-153 154.5t-221 56.5t-220.5 -56.5t-152.5 -154.5t-56 -222.5
t56 -222.5t152.5 -154.5t220.5 -56.5t221 56.5z" />
    <glyph glyph-name="uni25CC" unicode="&#x25cc;" 
d="M979 459q-21 21 -21 51t21 51t51 21t51 -21t21 -51t-21 -51t-51 -21t-51 21zM228 223q-30 0 -51 21t-21 51t21 51t51 21q29 0 50 -21t21 -51t-21 -51t-50 -21zM334 87q-21 21 -21 51q0 29 21 50t51 21t51 -21t21 -50q0 -30 -21 -51t-51 -21t-51 21zM119 459
q-21 21 -21 51t21 51t51 21t51 -21t21 -51t-21 -51t-51 -21t-51 21zM549 29q-21 21 -21 51t21 51t51 21t51 -21t21 -51t-21 -51t-51 -21t-51 21zM228 653q-30 0 -51 21t-21 51t21 51t51 21q29 0 50 -21t21 -51t-21 -51t-50 -21zM764 87q-21 21 -21 51q0 29 21 50t51 21
t51 -21t21 -50q0 -30 -21 -51t-51 -21t-51 21zM334 832q-21 21 -21 50q0 30 21 51t51 21t51 -21t21 -51q0 -29 -21 -50t-51 -21t-51 21zM972 223q-29 0 -50 21t-21 51t21 51t50 21q30 0 51 -21t21 -51t-21 -51t-51 -21zM549 889q-21 21 -21 51t21 51t51 21t51 -21t21 -51
t-21 -51t-51 -21t-51 21zM972 653q-29 0 -50 21t-21 51t21 51t50 21q30 0 51 -21t21 -51t-21 -51t-51 -21zM764 832q-21 21 -21 50q0 30 21 51t51 21t51 -21t21 -51q0 -29 -21 -50t-51 -21t-51 21z" />
    <glyph glyph-name="uni25CF" unicode="&#x25cf;" 
d="M353.5 294q-109.5 64 -172.5 174t-63 248.5t63 248t172.5 173.5t247 64t246.5 -64t172 -173.5t63 -248t-63 -248.5t-172 -174t-246.5 -64t-247 64z" />
    <glyph glyph-name="invcircle" unicode="&#x25d9;" 
d="M41 157v1118h1118v-1118h-1118zM600 182q152 0 273 70.5t191 191.5t70 272q0 152 -70 273t-191 191t-273 70q-151 0 -272 -70.5t-191.5 -191t-70.5 -272t70.5 -272.5t191.5 -191.5t272 -70.5zM389 354.5q-93 54.5 -147 148.5t-54 213t54 213t147 148.5t211 54.5
t211 -54.5t147 -148.5t54 -213t-54 -213t-147 -148.5t-211 -54.5t-211 54.5z" />
    <glyph glyph-name="uniFFFD" unicode="&#xfffd;" 
d="M600 138l-590 578l590 578l590 -578zM659.5 350q25.5 26 25.5 63t-25.5 62t-63.5 25q-37 0 -63 -25t-26 -62t26 -63t63.5 -26t63 26zM531 564h118v57l69 41q64 38 91.5 81.5t27.5 101.5q0 86 -59 139.5t-158 53.5q-97 0 -165.5 -48t-97.5 -134l112 -38q36 110 147 110
q103 0 103 -82v-6q0 -59 -85 -109l-103 -61v-106z" />
    <glyph glyph-name="g.ss01" 
d="M617 -452q-115 0 -214.5 39.5t-173.5 114.5l120 127q108 -117 268 -117q125 0 191 78t66 225v193h-6q-47 -88 -129 -136.5t-187 -48.5q-127 0 -223 64t-149.5 179.5t-53.5 268.5v30q0 155 53 270.5t149 179.5t224 64q107 0 191 -54t130 -155h6v177h169v-1029
q0 -147 -51.5 -252t-148 -161.5t-231.5 -56.5zM591 185q128 0 205.5 97t77.5 258v20q0 162 -77.5 259.5t-205.5 97.5q-131 0 -205.5 -95t-74.5 -262v-20q0 -166 74.5 -260.5t205.5 -94.5z" />
    <glyph glyph-name="Eng.loclNSM" 
d="M717 -446q-96 0 -182.5 34t-154.5 96l108 139q102 -93 224 -93q97 0 148 57.5t51 169.5v142l23 -99l-655 1138h-5l22 -332v-806h-188v1432h190l622 -1098h5l-21 331v767h188v-1473q0 -124 -46.5 -215t-131 -140.5t-197.5 -49.5z" />
    <glyph glyph-name="IJacute" 
d="M615 -31q-169 0 -285.5 91.5t-169.5 257.5l179 57q72 -226 274 -226q118 0 178.5 76t60.5 224v983h188v-988q0 -145 -51 -252t-146 -165t-228 -58zM160 585v847h188v-847h-188zM147 1638v11l177 349h222v-11l-227 -349h-172zM841 1638v11l177 349h222v-11l-227 -349h-172
z" />
    <glyph glyph-name="ijacute" 
d="M724 -442q-177 0 -334 112l92 143q60 -43 118 -65t119 -22q101 0 153.5 61t52.5 178v1082h180v-1078q0 -190 -103.5 -300.5t-277.5 -110.5zM40 0v148h686v-148h-686zM299 70v977h178v-977h-178zM58 899v148h370v-148h-370zM677 899v148h384v-148h-384zM257 1253v11
l177 349h222v-11l-227 -349h-172zM885 1253v11l177 349h222v-11l-227 -349h-172z" />
    <glyph glyph-name="uni03020300" horiz-adv-x="0" 
d="M-382 1163v11l292 335h180l293 -335v-11h-200l-201 252h37l-201 -252h-200zM323 1456l-228 359v11h194l177 -360v-10h-143z" />
    <glyph glyph-name="uni03020301" horiz-adv-x="0" 
d="M-382 1163v11l292 335h180l293 -335v-11h-200l-201 252h37l-201 -252h-200zM204 1464v11l163 359h191v-10l-216 -360h-138z" />
    <glyph glyph-name="uni03020303" horiz-adv-x="0" 
d="M-382 1163v11l292 335h180l293 -335v-11h-200l-201 252h37l-201 -252h-200zM163 1613q-52 0 -92.5 19.5t-84.5 61.5q-48 46 -72.5 61t-50.5 15q-66 0 -66 -103v-52h-150v54q0 113 53 178.5t144 65.5q52 0 90.5 -19.5t82.5 -62.5q45 -43 71.5 -59t52.5 -16q63 0 63 102v53
h150v-54q0 -115 -51 -179.5t-140 -64.5z" />
    <glyph glyph-name="uni03020309" horiz-adv-x="0" 
d="M-382 1163v11l292 335h180l293 -335v-11h-200l-201 252h37l-201 -252h-200zM255 1427l-17 132q142 12 142 99t-115 87q-64 0 -128 -22l-36 132q75 30 170 30q113 0 180 -59.5t67 -159.5q0 -103 -69 -165.5t-194 -73.5z" />
    <glyph glyph-name="uni03060300" horiz-adv-x="0" 
d="M-187 1197.5q-81 45.5 -126.5 125t-45.5 181.5v13h152v-15q0 -94 53 -153t154 -59q102 0 155 59t53 153v15h152v-13q0 -102 -46 -181.5t-127 -125t-187 -45.5t-187 45.5zM-18 1500l-227 369v11h196l162 -369v-11h-131z" />
    <glyph glyph-name="uni03060301" horiz-adv-x="0" 
d="M-187 1197.5q-81 45.5 -126.5 125t-45.5 181.5v13h152v-15q0 -94 53 -153t154 -59q102 0 155 59t53 153v15h152v-13q0 -102 -46 -181.5t-127 -125t-187 -45.5t-187 45.5zM-104 1500v11l161 369h204v-11l-235 -369h-130z" />
    <glyph glyph-name="uni03060303" horiz-adv-x="0" 
d="M0 1152q-104 0 -182.5 42.5t-121.5 118.5t-43 174v12h153v-15q0 -88 51.5 -140.5t142.5 -52.5t143 52.5t52 140.5v15h153v-12q0 -98 -43 -174t-121.5 -118.5t-183.5 -42.5zM177 1600q-56 0 -100 22.5t-91 66.5q-52 50 -79 67.5t-56 17.5q-31 0 -50.5 -20.5t-19.5 -58.5
v-91h-150v100q0 100 53.5 156.5t143.5 56.5q57 0 99 -23t90 -67q52 -49 80.5 -66.5t58.5 -17.5q64 0 64 79v91h150v-100q0 -98 -51.5 -155.5t-141.5 -57.5z" />
    <glyph glyph-name="uni03060309" horiz-adv-x="0" 
d="M0 1152q-107 0 -191 45.5t-132 125t-48 182.5v13h151v-15q0 -95 55.5 -154.5t164.5 -59.5q110 0 165.5 59.5t55.5 154.5v15h150v-13q0 -103 -48 -182.5t-131.5 -125t-191.5 -45.5zM-68 1460l-15 130q147 8 147 102q0 88 -124 88q-61 0 -126 -20l-39 129q81 29 170 29
q116 0 184.5 -59t68.5 -159q0 -103 -71 -167.5t-195 -72.5z" />
    <glyph glyph-name="Ohorn.alt" 
d="M599 -31q-161 0 -278.5 88.5t-180.5 251.5t-63 388v38q0 226 63.5 389t182 251t284.5 88q66 0 122 -8.5t111 -8.5q151 0 151 107q0 27 -7.5 54t-21.5 55l184 71q40 -78 40 -154q0 -108 -83.5 -169t-235.5 -61h-114l12 63q173 -70 265 -243.5t92 -433.5v-38
q0 -225 -63 -388t-180.5 -251.5t-279.5 -88.5zM599 145q161 0 247.5 141.5t86.5 405.5v52q0 269 -82.5 408.5t-243.5 139.5q-163 0 -252.5 -144t-89.5 -408v-48q0 -264 87 -405.5t247 -141.5z" />
    <glyph glyph-name="Uhorn.alt" 
d="M306 24q-96 56 -149.5 155.5t-53.5 229.5v1023h183v-1012q0 -127 65 -201.5t180 -74.5t179.5 74.5t64.5 201.5v1012h78q66 0 99 26t33 80q0 33 -6.5 66.5t-20.5 71.5l196 60q31 -84 31 -167q0 -114 -81.5 -178t-206.5 -64h-69l129 73v-991q0 -130 -53.5 -229.5
t-149.5 -155.5t-224 -56t-224 56z" />
    <glyph glyph-name="ohorn.alt" 
d="M596 -32q-146 0 -255 68t-169 190t-60 284v27q0 163 60 285t169 189.5t255 67.5q68 0 123 -7t105 -7q131 0 131 106q0 54 -27 117l189 57q16 -38 23.5 -74.5t7.5 -74.5q0 -106 -79 -165t-221 -59h-109l18 59q155 -46 239 -176t84 -318v-27q0 -163 -60 -285t-169 -189.5
t-255 -67.5zM596 136q140 0 219 100t79 277v21q0 180 -79 281.5t-219 101.5t-219 -101.5t-79 -281.5v-21q0 -177 79 -277t219 -100z" />
    <glyph glyph-name="uhorn.alt" 
d="M484 -32q-145 0 -229.5 93t-84.5 256v730h178v-699q0 -106 49 -163t143 -57q104 0 169.5 81.5t65.5 217.5v620h94q107 0 107 95q0 29 -5 60t-15 62l197 50q21 -66 21 -137q0 -107 -82.5 -168t-217.5 -61h-49l128 89v-1037h-169v155h-7q-47 -85 -120 -136t-173 -51z" />
  </font>
</defs>
</svg>
