<?xml version="1.0" standalone="no"?>
<!DOCTYPE svg PUBLIC "-//W3C//DTD SVG 1.1//EN" "http://www.w3.org/Graphics/SVG/1.1/DTD/svg11.dtd" >
<svg xmlns="http://www.w3.org/2000/svg" xmlns:xlink="http://www.w3.org/1999/xlink" version="1.1">
<metadata>
Created by FontForge 20201107 at Thu Aug 21 16:28:35 2025
 By www-data
Copyright 2025 The Google Sans Code Project Authors (github.com/googlefonts/googlesans-code)
</metadata>
<defs>
<font id="GoogleSansCode-BoldItalic" horiz-adv-x="1200" >
  <font-face 
    font-family="Google Sans Code"
    font-weight="700"
    font-style="italic"
    font-stretch="normal"
    units-per-em="2000"
    panose-1="2 11 5 9 3 5 2 4 2 4"
    ascent="1600"
    descent="-400"
    x-height="1052"
    cap-height="1432"
    bbox="-447 -909 1606 2359"
    underline-thickness="168"
    underline-position="-404"
    slope="-10"
    unicode-range="U+000D-FFFD"
  />
<missing-glyph 
d="M174 0v1432h852v-1432h-852zM302 120h596v1192h-596v-1192z" />
    <glyph glyph-name=".notdef" 
d="M174 0v1432h852v-1432h-852zM302 120h596v1192h-596v-1192z" />
    <glyph glyph-name=".null" horiz-adv-x="0" 
 />
    <glyph glyph-name="nonmarkingreturn" horiz-adv-x="666" 
 />
    <glyph glyph-name="NULL" 
 />
    <glyph glyph-name="NULL" 
 />
    <glyph glyph-name="CR" unicode="&#xd;" 
 />
    <glyph glyph-name="space" unicode=" " 
 />
    <glyph glyph-name="exclam" unicode="!" 
d="M458 597l132 897h374l-208 -897h-298zM392 26q-60 60 -60 146t60 145.5t146 59.5q87 0 146.5 -59.5t59.5 -145.5t-60 -146t-146 -60t-146 60z" />
    <glyph glyph-name="quotedbl" unicode="&#x22;" 
d="M263 899l99 561h330l-99 -561h-330zM739 899l99 561h330l-99 -561h-330z" />
    <glyph glyph-name="numbersign" unicode="#" 
d="M514 -17l455 1467h235l-455 -1467h-235zM64 -17l455 1467h235l-454 -1467h-236zM-9 339l40 231h1085l-41 -231h-1084zM151 863l41 231h1084l-40 -231h-1085z" />
    <glyph glyph-name="dollar" unicode="$" 
d="M602 0q-196 0 -340 93.5t-221 269.5l255 136q104 -238 309 -238q86 0 137.5 43.5t51.5 117.5q0 55 -31 92.5t-99 65.5l-167 70q-136 57 -209.5 154t-73.5 219q0 121 60 213t167.5 144t248.5 52q378 0 515 -331l-263 -120q-70 193 -248 193q-80 0 -123.5 -34t-43.5 -96
q0 -95 119 -143l166 -70q152 -64 223 -157.5t71 -226.5q0 -135 -61.5 -236t-175.5 -156t-267 -55zM371 -236l57 323l7 39l7 39h242l-6 -39l-8 -39l-56 -323h-243zM638 1278l7 37l4 25l58 328h243l-58 -328l-4 -25l-8 -37h-242z" />
    <glyph glyph-name="percent" unicode="%" 
d="M113 275l-113 187l1154 695l113 -188zM797 -34q-133 0 -216.5 81.5t-83.5 210.5q0 100 44 180t121.5 127.5t176.5 47.5q134 0 216.5 -81.5t82.5 -210.5q0 -99 -44 -179.5t-121 -128t-176 -47.5zM806 151q59 0 95.5 45.5t36.5 111.5q0 56 -29 88t-79 32q-58 0 -95.5 -45.5
t-37.5 -111.5q0 -55 29.5 -87.5t79.5 -32.5zM430 820q-133 0 -216.5 81.5t-83.5 210.5q0 100 44 180t121.5 127.5t176.5 47.5q134 0 216.5 -81.5t82.5 -210.5q0 -99 -44 -179.5t-121 -128t-176 -47.5zM439 1005q58 0 95 45.5t37 111.5q0 56 -29.5 88t-79.5 32
q-58 0 -95 -45.5t-37 -111.5q0 -55 29.5 -87.5t79.5 -32.5z" />
    <glyph glyph-name="ampersand" unicode="&#x26;" 
d="M884 -58l-517 743q-79 113 -116.5 199t-37.5 176q0 121 55.5 212.5t155 142.5t231.5 51q184 0 296 -98.5t138 -285.5l-278 -45q-24 150 -151 150q-65 0 -105 -38.5t-40 -102.5q0 -44 18.5 -88.5t59.5 -102.5l527 -746zM455 -34q-131 0 -231.5 53.5t-157 148t-56.5 217.5
q0 184 112 303.5t327 167.5l60 -185q-102 -29 -150.5 -90t-48.5 -159q0 -87 52 -137.5t142 -50.5q103 0 172.5 63t118 201.5t88.5 364.5l287 -60q-65 -257 -174 -445t-247.5 -290t-293.5 -102z" />
    <glyph glyph-name="quotesingle" unicode="'" 
d="M501 899l99 561h330l-99 -561h-330z" />
    <glyph glyph-name="parenleft" unicode="(" 
d="M1020 1675l140 -240q-292 -166 -435 -387.5t-143 -513.5q0 -409 297 -678l-191 -203q-131 119 -222.5 262.5t-139.5 301t-48 317.5q0 359 187 647.5t555 493.5z" />
    <glyph glyph-name="parenright" unicode=")" 
d="M229 -342l-140 240q293 167 435.5 388t142.5 513q0 410 -297 678l191 203q131 -118 222.5 -262t139.5 -301.5t48 -317.5q0 -359 -187 -647.5t-555 -493.5z" />
    <glyph glyph-name="asterisk" unicode="*" 
d="M184 426l-100 197l535 235l484 265l100 -197l-531 -235zM1028 388l-434 311l-465 261l131 200l434 -311l465 -261zM432 208l199 1132h225l-199 -1132h-225z" />
    <glyph glyph-name="plus" unicode="+" 
d="M383 159l172 976h306l-172 -976h-306zM97 502l52 290h997l-52 -290h-997z" />
    <glyph glyph-name="comma" unicode="," 
d="M333 -375l-109 175q99 55 177 119t142 152l-6 -63q-86 6 -139 56t-53 127q0 85 56.5 140t144.5 55q92 0 149 -61t57 -159q0 -105 -53.5 -204t-147.5 -184.5t-218 -152.5z" />
    <glyph glyph-name="hyphen" unicode="-" 
d="M122 493l54 306h944l-54 -306h-944z" />
    <glyph glyph-name="period" unicode="." 
d="M569 -30q-87 0 -146.5 59.5t-59.5 145.5q0 85 60 144.5t146 59.5q87 0 146.5 -59t59.5 -145q0 -87 -59 -146t-147 -59z" />
    <glyph glyph-name="slash" unicode="/" 
d="M-49 -176l981 1636h317l-981 -1636h-317z" />
    <glyph glyph-name="zero" unicode="0" 
d="M541 -34q-141 0 -241 63.5t-153 182t-53 281.5q0 104 18 233t60 258.5t114 239t180 176t259 66.5q141 0 241 -63.5t153.5 -181.5t53.5 -281q0 -104 -18 -233t-60.5 -259t-114.5 -239.5t-180.5 -176t-258.5 -66.5zM557 240q82 0 139 52.5t93 136t56.5 178t28 180.5
t7.5 141q0 128 -40 196t-132 68q-81 0 -138 -52.5t-93 -136t-56 -178t-28 -180t-8 -141.5q0 -127 40 -195.5t131 -68.5zM218 387l-83 225l916 433l83 -224z" />
    <glyph glyph-name="one" unicode="1" 
d="M453 110l167 950l-292 -132l-109 265l554 239h217l-233 -1322h-304zM62 0l49 282h1003l-49 -282h-1003z" />
    <glyph glyph-name="two" unicode="2" 
d="M20 0l43 242l568 528q68 63 107 109.5t56 86t17 80.5q0 53 -29.5 85.5t-87.5 32.5q-64 0 -115 -40.5t-95 -132.5l-272 124q87 178 217.5 264.5t304.5 86.5q124 0 214 -48.5t139.5 -133.5t49.5 -194q0 -87 -32.5 -163t-103 -157.5t-186.5 -187.5l-311 -285v-10h536
l-52 -287h-968z" />
    <glyph glyph-name="three" unicode="3" 
d="M591 -34q-147 0 -262.5 54t-188 151.5t-89.5 227.5l286 58q15 -97 75.5 -149.5t158.5 -52.5q93 0 148.5 50t55.5 133q0 73 -45 111t-135 38h-190l50 282h183q106 0 162.5 46t56.5 131q0 63 -39.5 97.5t-111.5 34.5q-76 0 -133 -40t-83 -111l-279 95q59 158 196.5 251
t328.5 93q208 0 320 -104.5t112 -277.5q0 -139 -86.5 -235t-238.5 -129l-1 -8q121 -30 182.5 -111.5t61.5 -208.5q0 -122 -64.5 -218.5t-176 -152t-254.5 -55.5z" />
    <glyph glyph-name="four" unicode="4" 
d="M571 0l77 437l27 50l107 611l33 -71h-53l-396 -460v-8h419l74 15h303l-48 -269h-1107l43 244l762 883h310l-252 -1432h-299z" />
    <glyph glyph-name="five" unicode="5" 
d="M571 -34q-208 0 -347 113t-176 311l288 66q19 -96 80 -148.5t155 -52.5q67 0 117.5 29.5t79 82t28.5 120.5q0 91 -50.5 144t-142.5 53q-62 0 -116 -23.5t-98 -68.5l-246 98l236 742h804l-49 -277h-577l-108 -311l7 -4q67 50 140.5 74t155.5 24q167 0 260.5 -113.5
t93.5 -310.5q0 -159 -69 -283t-189.5 -194.5t-276.5 -70.5z" />
    <glyph glyph-name="six" unicode="6" 
d="M576 -34q-145 0 -257 61.5t-175.5 170t-63.5 248.5q0 109 32.5 207t107 203t199.5 233l390 401l218 -209l-255 -237q-46 -43 -91 -74.5t-103 -62.5l3 -7q68 27 144 27q113 0 198 -53t133 -147t48 -219q0 -158 -68 -280.5t-187 -192t-273 -69.5zM586 256q97 0 152.5 64
t55.5 175q0 96 -49 150t-138 54q-66 0 -115 -29.5t-75.5 -83t-26.5 -127.5q0 -93 53 -148t143 -55z" />
    <glyph glyph-name="seven" unicode="7" 
d="M403 -34l-253 169l667 1000v8h-601l50 289h987l-42 -242z" />
    <glyph glyph-name="eight" unicode="8" 
d="M579 -34q-146 0 -259 54t-177.5 150t-64.5 222q0 138 84 241.5t225 149.5l1 12q-79 50 -120.5 123t-41.5 158q0 114 59.5 202t165 138t244.5 50q137 0 235.5 -47t152 -131.5t53.5 -197.5q0 -119 -71 -211t-193 -139l-2 -12q99 -52 152 -136.5t53 -197.5
q0 -123 -63.5 -220t-175 -152.5t-257.5 -55.5zM566 237q95 0 152.5 60.5t57.5 159.5q0 82 -50.5 130t-136.5 48q-93 0 -151.5 -61.5t-58.5 -160.5q0 -77 52.5 -126.5t134.5 -49.5zM669 875q78 0 127.5 49t49.5 125q0 69 -41.5 110t-111.5 41q-79 0 -128 -48.5t-49 -125.5
q0 -69 41.5 -110t111.5 -41z" />
    <glyph glyph-name="nine" unicode="9" 
d="M691 1466q145 0 257 -61.5t175.5 -170t63.5 -248.5q0 -108 -32.5 -206.5t-107 -203t-199.5 -233.5l-390 -401l-218 209l255 237q47 43 91.5 74.5t102.5 62.5l-3 7q-67 -27 -144 -27q-112 0 -197.5 53t-133.5 147.5t-48 218.5q0 158 68 280.5t187 192t273 69.5zM681 1176
q-97 0 -152.5 -64t-55.5 -175q0 -96 49.5 -150t137.5 -54q67 0 115.5 29.5t75 83.5t26.5 127q0 93 -53 148t-143 55z" />
    <glyph glyph-name="colon" unicode=":" 
d="M539 -30q-87 0 -146.5 59.5t-59.5 145.5q0 85 60 144.5t146 59.5q87 0 146.5 -59t59.5 -145q0 -87 -59 -146t-147 -59zM662 678q-86 0 -146 59.5t-60 144.5q0 86 60 145t146 59q88 0 147 -59t59 -145t-59 -145t-147 -59z" />
    <glyph glyph-name="semicolon" unicode=";" 
d="M736 672q-87 0 -146.5 59.5t-59.5 145.5q0 85 60 144.5t146 59.5q87 0 146.5 -59t59.5 -145q0 -87 -59 -146t-147 -59zM333 -375l-109 175q99 55 177 119t142 152l-6 -63q-86 6 -139 56t-53 127q0 85 56.5 140t144.5 55q92 0 149 -61t57 -159q0 -105 -53.5 -204
t-147.5 -184.5t-218 -152.5z" />
    <glyph glyph-name="less" unicode="&#x3c;" 
d="M971 37l-870 492l41 232l1046 494l-58 -330l-671 -289l-2 -12l566 -292z" />
    <glyph glyph-name="equal" unicode="=" 
d="M151 761l47 266h980l-47 -266h-980zM64 265l47 266h980l-47 -266h-980z" />
    <glyph glyph-name="greater" unicode="&#x3e;" 
d="M271 1255l870 -492l-41 -232l-1046 -494l58 330l671 289l2 12l-566 292z" />
    <glyph glyph-name="question" unicode="?" 
d="M405 467l69 299l201 83q110 45 157 92t47 111q0 59 -38.5 92.5t-109.5 33.5q-86 0 -156.5 -48.5t-112.5 -135.5l-269 119q80 169 228 261t335 92q199 0 316 -102.5t117 -275.5q0 -138 -73.5 -239.5t-228.5 -175.5l-139 -67l-32 -139h-311zM536 -34q-82 0 -141 59t-59 142
q0 81 58 137.5t142 56.5q83 0 141 -56t58 -138q0 -83 -58.5 -142t-140.5 -59z" />
    <glyph glyph-name="at" unicode="@" 
d="M669 -233q-184 0 -320 89t-210 251.5t-74 383.5q0 180 35 355t99 320q97 218 249 330t351 112q206 0 320 -111t114 -311q0 -35 -4 -74.5t-12 -85.5l-142 -805h-221l20 113h-8q-79 -124 -196 -124q-118 0 -190 99.5t-72 264.5q0 152 48.5 274t131 193t185.5 71
q159 0 202 -156h9l14 79q7 37 9.5 65t2.5 57q0 107 -57.5 165.5t-162.5 58.5q-251 0 -383 -316q-52 -125 -78 -264.5t-26 -297.5q0 -247 94.5 -377.5t273.5 -130.5q119 0 246 64l83 -212q-154 -80 -331 -80zM753 425q53 0 95 39.5t66.5 108t24.5 153.5q0 81 -33.5 126
t-94.5 45q-82 0 -134.5 -85t-52.5 -216q0 -81 34 -126t95 -45z" />
    <glyph glyph-name="A" unicode="A" 
d="M-76 0l695 1432h282l191 -1432h-310l-67 885l-12 210h-7l-78 -210l-378 -885h-316zM177 276l118 241h592l39 -241h-749z" />
    <glyph glyph-name="B" unicode="B" 
d="M38 0l252 1432h446q202 0 310.5 -89.5t108.5 -255.5q0 -131 -66.5 -220.5t-200.5 -139.5v-10q104 -42 156 -121t52 -193q0 -121 -62 -212t-174.5 -141t-263.5 -50h-558zM383 248h191q103 0 160.5 53t57.5 147q0 160 -184 160h-225l38 246h228q99 0 150.5 47t51.5 138
q0 73 -39.5 109t-119.5 36h-144z" />
    <glyph glyph-name="C" unicode="C" 
d="M609 -34q-154 0 -267.5 73.5t-175 208.5t-61.5 318q0 199 47 364t134.5 285t208.5 185.5t269 65.5q194 0 310 -109.5t143 -309.5l-294 -49q-13 90 -55 134t-118 44q-96 0 -171 -78t-117.5 -214t-42.5 -310q0 -156 53 -237t155 -81q75 0 127.5 47.5t86.5 150.5l272 -109
q-143 -379 -504 -379z" />
    <glyph glyph-name="D" unicode="D" 
d="M24 0l252 1432h333q261 0 401 -157.5t140 -448.5q0 -262 -79.5 -447t-228.5 -282t-358 -97h-460zM381 288h119q161 0 248.5 138.5t87.5 390.5q0 172 -53.5 249.5t-175.5 77.5h-76z" />
    <glyph glyph-name="E" unicode="E" 
d="M51 0l252 1432h890l-50 -286h-584l-152 -860h600l-50 -286h-906zM344 589l50 284h621l-50 -284h-621z" />
    <glyph glyph-name="F" unicode="F" 
d="M52 0l252 1432h906l-51 -288h-598l-201 -1144h-308zM336 538l50 284h657l-50 -284h-657z" />
    <glyph glyph-name="G" unicode="G" 
d="M627 -34q-163 0 -283.5 72.5t-187 203.5t-66.5 307q0 277 83.5 483t235 320t354.5 114q191 0 309.5 -101t152.5 -295l-289 -49q-16 79 -63 118t-125 39q-107 0 -185.5 -75.5t-120.5 -214.5t-42 -331q0 -148 60.5 -227.5t172.5 -79.5q101 0 162.5 68.5t80.5 201.5l7 49
h-278l44 247h552l-45 -318q-36 -255 -173.5 -393.5t-355.5 -138.5z" />
    <glyph glyph-name="H" unicode="H" 
d="M680 0l252 1432h308l-252 -1432h-308zM28 0l252 1432h308l-252 -1432h-308zM324 588l50 284h586l-50 -284h-586z" />
    <glyph glyph-name="I" unicode="I" 
d="M378 139l203 1154h310l-204 -1154h-309zM50 0l51 289h915l-51 -289h-915zM252 1144l50 288h915l-50 -288h-915z" />
    <glyph glyph-name="J" unicode="J" 
d="M559 -34q-194 0 -321.5 110.5t-155.5 300.5l299 61q22 -182 174 -182q74 0 119 52t64 158l170 966h310l-181 -1022q-38 -217 -158 -330.5t-320 -113.5z" />
    <glyph glyph-name="K" unicode="K" 
d="M949 -29q-70 0 -122.5 25.5t-97 88.5t-92.5 173l-207 484l1 8l525 682h361l-603 -770l21 118l194 -424q25 -53 60 -77t96 -24h34l-46 -261q-28 -11 -59 -17t-65 -6zM1 0l252 1432h307l-252 -1432h-307z" />
    <glyph glyph-name="L" unicode="L" 
d="M70 0l252 1432h308l-201 -1142h637l-51 -290h-945z" />
    <glyph glyph-name="M" unicode="M" 
d="M-39 0l252 1432h293l81 -420l34 -285h14l134 285l220 420h317l-252 -1432h-287l86 489l108 456h-14l-262 -512h-205l-87 512h-13l-46 -456l-86 -489h-287z" />
    <glyph glyph-name="N" unicode="N" 
d="M-21 0l252 1432h290l319 -900h8l42 329l101 571h298l-252 -1432h-266l-335 944h-8l-43 -329l-108 -615h-298z" />
    <glyph glyph-name="O" unicode="O" 
d="M544 -34q-144 0 -249.5 64.5t-163 186t-57.5 291.5q0 123 22 256.5t70 258t125.5 225t188 159.5t258.5 59q215 0 334 -145t119 -402q0 -125 -21 -258t-68 -257t-122 -223t-183 -157t-253 -58zM570 256q70 0 121.5 42.5t87 113.5t57 157t31.5 174t10 164q0 130 -41 199.5
t-125 69.5q-71 0 -124.5 -43.5t-91.5 -115.5t-61.5 -159t-34.5 -175t-11 -163q0 -133 46.5 -198.5t135.5 -65.5z" />
    <glyph glyph-name="P" unicode="P" 
d="M32 0l252 1432h368q254 0 384.5 -124.5t130.5 -343.5q0 -158 -65 -272.5t-184.5 -176t-283.5 -61.5h-345l49 278h293q109 0 167.5 59.5t58.5 166.5q0 94 -50.5 145t-148.5 51h-117l-203 -1154h-306z" />
    <glyph glyph-name="Q" unicode="Q" 
d="M550 22q-148 0 -254.5 58.5t-164 174t-57.5 285.5q0 113 22 240t70 248t125.5 220t188 157.5t258.5 58.5q215 0 334 -145t119 -400q0 -120 -20.5 -246t-66.5 -242.5t-120.5 -208.5t-181.5 -146t-252 -54zM921 -420q-101 0 -179.5 49.5t-148.5 163.5q-43 71 -70 108
t-49.5 51t-53.5 14q-61 0 -98 -59.5t-56 -179.5l-294 56q31 193 142.5 300t275.5 107q128 0 212.5 -47t151.5 -152q47 -72 79.5 -100t72.5 -28q30 0 54.5 11t53.5 33l129 -260q-53 -34 -105 -50.5t-117 -16.5zM570 256q70 0 122 43t88 114t57.5 157t31.5 174t10 163
q0 128 -41 197.5t-126 69.5q-71 0 -125 -43.5t-92.5 -114.5t-62.5 -156t-35 -170t-11 -154q0 -138 47 -209t137 -71z" />
    <glyph glyph-name="R" unicode="R" 
d="M21 0l252 1432h397q163 0 271 -52.5t161.5 -144t53.5 -208.5q0 -159 -63.5 -275.5t-180.5 -179.5t-278 -63h-347l46 260h308q54 0 93.5 16t65 45t37.5 69.5t12 88.5q0 75 -47 120.5t-151 45.5h-125l-203 -1154h-302zM949 -29q-67 0 -121 26t-98.5 89.5t-84.5 175.5
l-127 362h294l125 -269q26 -55 59 -77.5t88 -22.5h35l-46 -261q-28 -11 -59.5 -17t-64.5 -6z" />
    <glyph glyph-name="S" unicode="S" 
d="M605 -34q-229 0 -380.5 122t-188.5 338l293 53q17 -112 89 -173t186 -61q92 0 143 40.5t51 113.5q0 62 -35.5 102.5t-120.5 78.5l-184 84q-115 53 -177.5 145t-62.5 219q0 130 63.5 228.5t178 154t266.5 55.5q209 0 337.5 -98.5t164.5 -284.5l-292 -54q-32 158 -220 158
q-90 0 -141 -39t-51 -105q0 -47 27.5 -79.5t88.5 -61.5l180 -83q149 -68 216.5 -165.5t67.5 -241.5q0 -133 -62.5 -233.5t-174.5 -156.5t-262 -56z" />
    <glyph glyph-name="T" unicode="T" 
d="M353 0l226 1283h310l-226 -1283h-310zM187 1142l51 290h1044l-51 -290h-1044z" />
    <glyph glyph-name="U" unicode="U" 
d="M565 -34q-140 0 -247 54.5t-167 151t-60 223.5q0 36 4 73t12 83l155 881h308l-162 -921q-4 -28 -6.5 -50t-2.5 -41q0 -76 46 -120t124 -44q85 0 139 56t73 162l169 958h308l-179 -1010q-38 -217 -172.5 -336.5t-341.5 -119.5z" />
    <glyph glyph-name="V" unicode="V" 
d="M375 0l-198 1432h311l78 -818l1 -277h7l89 277l366 818h315l-703 -1432h-266z" />
    <glyph glyph-name="W" unicode="W" 
d="M113 0l69 1432h276l-98 -977h6l101 279l150 416h172l17 -416l-10 -279h6l236 977h300l-435 -1432h-255l-11 520l12 248h-6l-90 -248l-198 -520h-242z" />
    <glyph glyph-name="X" unicode="X" 
d="M763 0l-250 660l-15 21l-304 751h327l232 -597l14 -21l322 -814h-326zM-75 0l591 799l25 18l454 615h329l-567 -764l-25 -18l-478 -650h-329z" />
    <glyph glyph-name="Y" unicode="Y" 
d="M462 438l-277 994h312l88 -356l46 -273h9l140 273l209 356h346l-626 -994h-247zM354 0l119 676h308l-119 -676h-308z" />
    <glyph glyph-name="Z" unicode="Z" 
d="M12 0l45 258l752 887h-572l50 287h954l-45 -258l-752 -887h610l-51 -287h-991z" />
    <glyph glyph-name="bracketleft" unicode="[" 
d="M1201 1594l-43 -250h-442l-237 -1349h442l-44 -250h-748l324 1849h748z" />
    <glyph glyph-name="backslash" unicode="\" 
d="M666 -176l-409 1636h277l409 -1636h-277z" />
    <glyph glyph-name="bracketright" unicode="]" 
d="M48 -264l43 250h442l237 1349h-442l44 250h748l-324 -1849h-748z" />
    <glyph glyph-name="asciicircum" unicode="^" 
d="M54 640l563 792h258l311 -792h-312l-168 452h-10l-302 -452h-340z" />
    <glyph glyph-name="underscore" unicode="_" 
d="M-65 -294l46 260h1040l-46 -260h-1040z" />
    <glyph glyph-name="grave" unicode="`" 
d="M663 882l-235 578h346l152 -578h-263z" />
    <glyph glyph-name="a" unicode="a" 
d="M407 -34q-166 0 -263 120t-97 323q0 194 63.5 347t172.5 241.5t247 88.5q101 0 161.5 -47.5t92.5 -134.5h80l-83 -93l45 260h281l-104 -587q-9 -50 -12.5 -80.5t-3.5 -53.5q0 -83 95 -83h42l-46 -262q-29 -11 -58.5 -17t-63.5 -6q-97 0 -150.5 59t-53.5 166
q0 29 5.5 60.5t18.5 79.5l49 -105l-80 11q-47 -139 -134 -213t-204 -74zM499 232q83 0 139 90.5t89 271.5l21 116q-24 56 -61.5 83t-93.5 27q-73 0 -130 -48.5t-90 -133t-33 -191.5q0 -104 41.5 -159.5t117.5 -55.5z" />
    <glyph glyph-name="b" unicode="b" 
d="M647 -34q-201 0 -292 179h-69l78 59l-70 -204h-265l258 1461h302l-107 -608l-56 42h76q61 96 139.5 143.5t176.5 47.5q138 0 213.5 -103t75.5 -291q0 -211 -59.5 -375t-163 -257.5t-237.5 -93.5zM556 232q72 0 127.5 50.5t87 138.5t31.5 200q0 199 -140 199
q-91 0 -154 -91t-95 -269l-23 -131q28 -47 71 -72t95 -25z" />
    <glyph glyph-name="c" unicode="c" 
d="M653 -34q-159 0 -279 65t-187 181.5t-67 268.5q0 179 72.5 315t202 213t298.5 77q191 0 310 -101.5t138 -280.5l-290 -32q-17 155 -164 155q-77 0 -138 -44.5t-96 -122t-35 -176.5q0 -111 66.5 -176.5t179.5 -65.5q69 0 126 27.5t118 91.5l170 -219q-93 -91 -195 -133.5
t-230 -42.5z" />
    <glyph glyph-name="d" unicode="d" 
d="M399 -34q-162 0 -257 120t-95 323q0 194 63.5 347t172.5 241.5t247 88.5q95 0 162.5 -48t92.5 -134h80l-84 -93l115 649h281l-174 -976q-9 -50 -12.5 -80.5t-3.5 -53.5q0 -83 95 -83h42l-46 -262q-29 -11 -58.5 -17t-63.5 -6q-97 0 -150.5 59t-53.5 166q0 29 5.5 60.5
t18.5 79.5l49 -105l-80 11q-49 -139 -137.5 -213t-208.5 -74zM499 233q83 0 139 89.5t89 271.5l21 116q-26 57 -63.5 83.5t-91.5 26.5q-73 0 -130 -48.5t-90 -133t-33 -191.5q0 -103 41.5 -158.5t117.5 -55.5z" />
    <glyph glyph-name="e" unicode="e" 
d="M605 -34q-153 0 -269 66t-181.5 180.5t-65.5 261.5q0 124 42 234.5t122.5 195.5t195.5 133.5t260 48.5q192 0 289 -90t97 -229q0 -128 -84 -205t-261.5 -110.5t-459.5 -33.5l-15 175q181 4 301.5 19t181 47t60.5 86q0 43 -31.5 66.5t-96.5 23.5q-96 0 -167.5 -49
t-111 -129.5t-39.5 -175.5q0 -117 63 -182t177 -65q74 0 135.5 28.5t122.5 92.5l165 -209q-89 -92 -192.5 -136t-237.5 -44z" />
    <glyph glyph-name="f" unicode="f" 
d="M139 -467q-144 0 -260 54l102 244q62 -36 134 -36q77 0 120 42.5t58 136.5l173 1088q32 205 164.5 317.5t339.5 112.5q93 0 167.5 -16t144.5 -53l-102 -244q-49 27 -98.5 39.5t-109.5 12.5q-190 0 -219 -182l-17 -108l3 -73l-147 -933q-32 -204 -150 -303t-303 -99z
M140 748l40 228h1004l-40 -228h-1004z" />
    <glyph glyph-name="g" unicode="g" 
d="M482 -573q-165 0 -295 46.5t-205 130.5t-75 196q0 91 51 165t143 121.5t214 58.5l15 -116q-76 -31 -113.5 -82.5t-37.5 -114.5q0 -91 85 -140t228 -49q134 0 205.5 39.5t71.5 105.5q0 47 -31 75.5t-108 44.5l-488 98v42l247 312l155 -32l-67 -146l263 -52
q162 -32 230.5 -110t68.5 -194q0 -119 -71 -209t-196.5 -140t-289.5 -50zM618 274q-131 0 -235.5 50.5t-164.5 138.5t-60 198q0 107 56.5 204t164.5 159t263 62q127 0 228.5 -52t161.5 -140t60 -198q0 -109 -58 -205.5t-164.5 -156.5t-251.5 -60zM623 508q60 0 104.5 23
t68.5 64.5t24 94.5q0 73 -50 116t-134 43q-66 0 -112 -25t-70 -66.5t-24 -93.5q0 -72 52 -114t141 -42zM915 941l-98 60q59 155 175 216.5t282 61.5l-45 -249q-105 0 -177.5 -18t-136.5 -71z" />
    <glyph glyph-name="h" unicode="h" 
d="M916 -18q-117 0 -184 68t-67 186q0 39 6.5 78.5t19.5 95.5l47 194q11 43 15 75t4 59q0 49 -22.5 72.5t-66.5 23.5q-57 0 -107 -42t-87 -118t-55 -178l-87 -496h-306l257 1460h306l-109 -616l-37 46h55q142 196 329 196q110 0 172 -63.5t62 -176.5q0 -40 -6 -84.5
t-19 -98.5l-55 -232q-10 -41 -13.5 -59.5t-3.5 -31.5q0 -75 91 -75h43l-46 -259q-34 -12 -67.5 -18t-68.5 -6z" />
    <glyph glyph-name="i" unicode="i" 
d="M786 -34q-176 0 -278.5 94.5t-102.5 257.5q0 33 4 74t14 96l82 467l71 -129h-387l39 226h594l-102 -576q-6 -34 -9 -59.5t-3 -45.5q0 -58 32 -90t91 -32q66 0 132 47l117 -237q-129 -93 -294 -93zM727 1246q-82 0 -140 56.5t-58 137.5q0 83 57 138t141 55q86 0 141 -54.5
t55 -138.5q0 -82 -56 -138t-140 -56z" />
    <glyph glyph-name="j" unicode="j" 
d="M330 -449q-232 0 -403 156l178 199q98 -89 207 -89q154 0 186 179l186 1056h303l-186 -1062q-37 -210 -160 -324.5t-311 -114.5zM256 828l39 224h615l-39 -224h-615zM873 1246q-83 0 -140.5 56.5t-57.5 137.5q0 83 56.5 138t141.5 55q86 0 141 -54.5t55 -138.5
q0 -82 -56.5 -138t-139.5 -56z" />
    <glyph glyph-name="k" unicode="k" 
d="M723 0l-316 563l1 8l451 481h368l-552 -560l20 114l354 -606h-326zM19 0l258 1460h301l-258 -1460h-301z" />
    <glyph glyph-name="l" unicode="l" 
d="M737 -34q-181 0 -290.5 95.5t-109.5 249.5q0 36 5 78.5t15 101.5l152 860l110 -125h-424l42 234h594l-176 -999q-6 -34 -9 -57.5t-3 -41.5q0 -59 37.5 -92.5t101.5 -33.5q40 0 75 13.5t76 44.5l117 -236q-77 -47 -151.5 -69.5t-161.5 -22.5z" />
    <glyph glyph-name="m" unicode="m" 
d="M1012 -18q-111 0 -174 61.5t-63 169.5q0 40 5 75.5t17 87.5l83 365q8 33 8 63q0 46 -44 46q-40 0 -72 -47t-52 -163l-112 -640h-255l131 742q3 16 4 30.5t1 27.5q0 50 -44 50q-40 0 -72 -47.5t-52 -162.5l-113 -640h-254l185 1052h242l-37 -206l-56 64h80q40 95 98 135.5
t127 40.5q79 0 117 -50t38 -137q0 -23 -3 -52h-14q40 119 108 179t154 60q88 0 127.5 -51t39.5 -131q0 -34 -5 -71t-15 -81l-86 -381q-7 -29 -10 -48t-3 -33q0 -71 79 -71h38l-35 -213q-57 -24 -111 -24z" />
    <glyph glyph-name="n" unicode="n" 
d="M928 -18q-121 0 -190 68t-69 186q0 39 6.5 78.5t19.5 95.5l47 194q11 45 17 79t6 62q0 44 -21.5 66.5t-64.5 22.5q-57 0 -106.5 -42.5t-86 -119t-54.5 -178.5l-87 -494h-306l186 1052h291l-37 -209l-37 47h54q145 196 348 196q115 0 177.5 -63.5t62.5 -171.5
q0 -42 -7.5 -87.5t-20.5 -100.5l-55 -232q-10 -41 -13.5 -59.5t-3.5 -31.5q0 -75 91 -75h43l-46 -259q-72 -24 -144 -24z" />
    <glyph glyph-name="o" unicode="o" 
d="M555 -34q-138 0 -246 59t-170 168.5t-62 261.5q0 128 39.5 241.5t115 201.5t182 138t241.5 50q144 0 248.5 -60t161 -169.5t56.5 -258.5q0 -131 -37.5 -245.5t-110 -201.5t-177.5 -136t-241 -49zM567 232q69 0 117.5 34.5t78.5 89.5t44 119t14 122q0 104 -44.5 163.5
t-134.5 59.5q-70 0 -120.5 -34.5t-82.5 -89.5t-47 -118.5t-15 -122.5q0 -103 50 -163t140 -60z" />
    <glyph glyph-name="p" unicode="p" 
d="M-41 -436l262 1488h265l5 -231l-65 74h76q61 97 139.5 144t176.5 47q138 0 213.5 -103t75.5 -291q0 -211 -59.5 -375t-163 -257.5t-237.5 -93.5q-190 0 -275 162h-69l70 76l-112 -640h-302zM547 233q75 0 132.5 50.5t90 138t32.5 199.5q0 199 -135 199q-92 0 -157 -92
t-97 -268l-25 -137q26 -43 68 -66.5t91 -23.5z" />
    <glyph glyph-name="q" unicode="q" 
d="M277 -436l43 225h391l-171 -129l119 615l30 -130l-67 10q-47 -64 -104.5 -98t-133.5 -34q-154 0 -243.5 116t-89.5 309q0 185 60.5 329t165.5 226.5t238 82.5q196 0 262 -182h78l-82 -93l50 260h295l-282 -1448l-45 166h264l-43 -225h-735zM494 267q81 0 140 83t87 244
l24 137q-23 57 -60 84t-92 27q-72 0 -128.5 -47.5t-88.5 -131.5t-32 -193q0 -97 39 -150t111 -53z" />
    <glyph glyph-name="r" unicode="r" 
d="M155 0l168 956l91 -129h-316l39 225h459l-53 -299l-60 38h81q150 295 408 295q126 0 220 -60l-103 -269q-52 32 -98.5 45.5t-106.5 13.5q-144 0 -237.5 -118.5t-137.5 -366.5l-58 -331h-296zM842 571l75 426l275 29l-80 -455h-270z" />
    <glyph glyph-name="s" unicode="s" 
d="M587 -34q-137 0 -269 52.5t-235 146.5l155 198q169 -157 354 -157q68 0 104 23.5t36 67.5q0 64 -93 95l-149 49q-133 44 -204 124t-71 195q0 99 50 172t141 113.5t212 40.5q126 0 230.5 -38.5t206.5 -119.5l-155 -199q-74 62 -144 91.5t-143 29.5q-56 0 -89 -22t-33 -60
q0 -31 21 -51.5t69 -36.5l149 -49q145 -48 212.5 -124.5t67.5 -195.5q0 -103 -53.5 -180.5t-148.5 -121t-221 -43.5z" />
    <glyph glyph-name="t" unicode="t" 
d="M730 -34q-185 0 -295 102t-110 274q0 36 3 71.5t10 73.5l148 839h302l-149 -842q-7 -38 -10 -64t-3 -47q0 -63 39 -99.5t106 -36.5q43 0 81 13.5t79 42.5l103 -242q-76 -44 -148.5 -64.5t-155.5 -20.5zM149 824l40 228h961l-40 -228h-961z" />
    <glyph glyph-name="u" unicode="u" 
d="M421 -34q-134 0 -217 88.5t-83 231.5q0 36 3 68t9 66l95 535l84 -128h-262l40 225h453l-105 -592q-8 -45 -11.5 -77.5t-3.5 -57.5q0 -51 23.5 -79t66.5 -28q73 0 127.5 98t88.5 289l79 447h306l-101 -568q-8 -48 -12 -79t-4 -55q0 -83 95 -83h42l-46 -262
q-57 -23 -118 -23q-99 0 -153.5 59t-54.5 166q0 30 5.5 62t18.5 78l49 -105l-80 11q-60 -149 -140.5 -218t-193.5 -69z" />
    <glyph glyph-name="v" unicode="v" 
d="M353 0l-200 1052h310l71 -478l25 -276h9l105 276l232 478h328l-572 -1052h-308z" />
    <glyph glyph-name="w" unicode="w" 
d="M132 0l-36 1052h255l-13 -598l-5 -117h7l37 118l169 477h245l3 -476l-6 -119h7l36 119l198 596h261l-405 -1052h-266l-4 505l6 117h-7l-37 -117l-179 -505h-266z" />
    <glyph glyph-name="x" unicode="x" 
d="M739 0l-237 475l-34 18l-290 559h300l204 -412l36 -21l321 -619h-300zM-25 0l512 601l26 10l367 441h330l-495 -581l-26 -10l-384 -461h-330z" />
    <glyph glyph-name="y" unicode="y" 
d="M184 -449q-172 0 -287 109l148 222q35 -33 68.5 -49t76.5 -16q48 0 79 24t62 79l153 276h78l135 381l230 475h332l-660 -1193q-89 -162 -184.5 -235t-230.5 -73zM419 -114l-240 1166h306l75 -475l24 -279h97z" />
    <glyph glyph-name="z" unicode="z" 
d="M60 0l42 238l619 566h-498l44 248h863l-42 -238l-619 -566h529l-44 -248h-894z" />
    <glyph glyph-name="braceleft" unicode="{" 
d="M643 -331q-172 0 -265 56t-93 162q0 68 37 128.5t108 136.5l26 28q47 51 70 82.5t23 60.5q0 64 -116 79l-376 47l76 433l395 47q76 9 111.5 34.5t35.5 71.5q0 27 -11 53.5t-37 64.5l-18 27q-32 49 -49.5 92t-17.5 91q0 141 118 220t331 79q74 0 142.5 -6t135.5 -19
l-44 -253q-46 10 -95.5 15t-101.5 5q-88 0 -131.5 -28t-43.5 -84q0 -22 12.5 -49.5t40.5 -74.5l16 -26q33 -53 48.5 -91.5t15.5 -79.5q0 -107 -80 -163t-202 -67l-350 -30l-17 -94l330 -27q109 -9 166 -52.5t57 -117.5q0 -57 -31.5 -113.5t-105.5 -126.5l-22 -21
q-54 -50 -79 -87.5t-25 -69.5q0 -75 139 -75q55 0 106.5 5t101.5 15l-46 -253q-144 -25 -285 -25z" />
    <glyph glyph-name="bar" unicode="|" 
d="M293 -346l374 2124h307l-374 -2124h-307z" />
    <glyph glyph-name="braceright" unicode="}" 
d="M258 -332q-73 0 -142 6t-136 19l44 253q46 -10 95.5 -15t101.5 -5q88 0 131.5 28.5t43.5 83.5q0 23 -12 50.5t-41 73.5l-16 26q-33 53 -48.5 92t-15.5 79q0 107 80.5 163.5t201.5 66.5l350 30l17 94l-330 27q-109 9 -166 53t-57 117q0 57 31.5 113.5t105.5 126.5l22 21
q54 50 79 87.5t25 69.5q0 75 -139 75q-55 0 -106.5 -4.5t-101.5 -15.5l46 253q74 13 144 19t141 6q173 0 265.5 -56t92.5 -162q0 -68 -37 -128t-108 -137l-26 -28q-47 -51 -70 -82.5t-23 -60.5q0 -64 116 -79l376 -47l-76 -433l-395 -47q-147 -17 -147 -106
q0 -27 11.5 -53.5t36.5 -64.5l18 -27q32 -49 49.5 -92t17.5 -91q0 -141 -118 -220t-331 -79z" />
    <glyph glyph-name="asciitilde" unicode="~" 
d="M881 552q-70 0 -132.5 26.5t-129.5 85.5q-59 53 -89 70.5t-61 17.5q-40 0 -63 -26.5t-34 -85.5l-15 -84h-282l25 141q29 163 112 248t219 85q71 0 126 -27.5t121 -85.5q59 -52 88.5 -70t62.5 -18q73 0 92 111l15 85h282l-25 -142q-29 -166 -107 -248.5t-205 -82.5z" />
    <glyph glyph-name="uni00A0" unicode="&#xa0;" 
 />
    <glyph glyph-name="exclamdown" unicode="&#xa1;" 
d="M838 665l-132 -897h-374l208 897h298zM904 1236q60 -60 60 -146t-60 -145.5t-146 -59.5q-87 0 -146.5 59.5t-59.5 145.5t60 146t146 60t146 -60z" />
    <glyph glyph-name="cent" unicode="&#xa2;" 
d="M638 0q-160 0 -280 63.5t-187 175.5t-67 260q0 122 37.5 233t111 198.5t182 139t250.5 51.5q195 0 316 -97.5t139 -268.5l-291 -39q-8 72 -50.5 108.5t-119.5 36.5q-90 0 -152 -52t-93 -132t-31 -164q0 -117 67.5 -185t182.5 -68q71 0 129.5 27.5t121.5 92.5l159 -203
q-92 -92 -202 -134.5t-223 -42.5zM359 -256l57 324l26 37l13 70h207l-13 -70l22 -37l-57 -324h-255zM593 925l13 70l-14 37l57 325h256l-58 -325l-35 -37l-12 -70h-207z" />
    <glyph glyph-name="sterling" unicode="&#xa3;" 
d="M213 -34l-249 97q39 93 94.5 153t131.5 98q85 43 117.5 93.5t32.5 140.5q0 43 -5.5 104.5t-13 130t-13 133.5t-5.5 114q0 134 60.5 231.5t166 151t239.5 53.5q132 0 229.5 -46t174.5 -141l-200 -179q-41 53 -82.5 75.5t-98.5 22.5q-85 0 -132.5 -51t-47.5 -143
q0 -54 3.5 -114.5t7.5 -121t7.5 -117.5t3.5 -104q0 -79 -37.5 -128.5t-111.5 -77.5v-16q38 -3 79 -17t83 -27t81 -13q51 0 84 33t57 106l265 -92q-47 -145 -135.5 -230t-225.5 -85q-58 0 -108.5 13.5t-97 32t-91.5 32t-90 13.5q-119 0 -173 -125zM81 667l36 204h914
l-36 -204h-914z" />
    <glyph glyph-name="currency" unicode="&#xa4;" 
d="M593 246q-122 0 -219 56t-153 152t-56 217q0 99 40 187.5t110 156.5t161 106.5t194 38.5q122 0 218.5 -56t153 -152t56.5 -217q0 -99 -40 -187.5t-110 -156t-161.5 -106.5t-193.5 -39zM147 140l-147 179l272 231l147 -178zM336 866l-222 267l192 160l222 -267zM612 472
q71 0 126 33.5t86 92t31 133.5q0 95 -54.5 149.5t-149.5 54.5q-71 0 -126 -33.5t-86 -91.5t-31 -134q0 -94 55.5 -149t148.5 -55zM957 113l-223 267l192 161l223 -267zM991 856l-147 179l272 231l147 -178z" />
    <glyph glyph-name="yen" unicode="&#xa5;" 
d="M471 525l-286 907h318l89 -356l47 -303h8l137 303l210 356h341l-605 -907h-259zM362 0l119 676h292l-119 -676h-292zM83 224l32 184h929l-32 -184h-929zM138 536l32 184h929l-32 -184h-929z" />
    <glyph glyph-name="brokenbar" unicode="&#xa6;" 
d="M517 928l150 850h307l-150 -850h-307zM293 -346l150 850h307l-150 -850h-307z" />
    <glyph glyph-name="section" unicode="&#xa7;" 
d="M748 226l-91 152q89 26 137.5 71.5t48.5 103.5q0 47 -25.5 79t-81.5 57l-191 85q-102 45 -162 132.5t-60 191.5q0 110 55 192.5t153.5 129t227.5 46.5q148 0 256 -63.5t161 -181.5l-237 -129q-26 59 -80 90.5t-131 31.5q-65 0 -102 -26t-37 -72q0 -35 23.5 -61t78.5 -51
l173 -77q127 -56 185.5 -135t58.5 -195q0 -136 -94 -233t-266 -138zM497 -216q-154 0 -268 64.5t-170 181.5l237 128q27 -59 83 -90.5t133 -31.5q63 0 98.5 26t35.5 72q0 36 -23.5 62t-78.5 51l-173 77q-127 57 -186 135.5t-59 193.5q0 137 94.5 233.5t266.5 137.5l90 -152
q-89 -25 -137 -70.5t-48 -104.5q0 -46 25 -78.5t81 -57.5l192 -85q102 -45 162 -132.5t60 -191.5q0 -109 -52.5 -192t-145.5 -129.5t-217 -46.5z" />
    <glyph glyph-name="dieresis" unicode="&#xa8;" 
d="M486 1246q-80 0 -136 55t-56 134t56 134t136 55q81 0 136.5 -54.5t55.5 -134.5t-55 -134.5t-137 -54.5zM1030 1246q-80 0 -136 55t-56 134t56 134t136 55q81 0 136.5 -54.5t55.5 -134.5t-55 -134.5t-137 -54.5z" />
    <glyph glyph-name="copyright" unicode="&#xa9;" 
d="M319.5 50q-132.5 84 -205.5 238t-73 362v132q0 209 73 362.5t205.5 237.5t313.5 84t313.5 -84t205.5 -237.5t73 -362.5v-132q0 -208 -73 -362t-205.5 -238t-313.5 -84t-313.5 84zM994.5 213.5q130.5 157.5 130.5 435.5v134q0 278 -130.5 435.5t-361.5 157.5
t-361.5 -157.5t-130.5 -435.5v-134q0 -278 130.5 -435.5t361.5 -157.5t361.5 157.5zM651 291q-157 0 -248 108t-91 293v57q0 185 91 292.5t248 107.5q134 0 216 -80.5t96 -225.5l-164 -13q-15 163 -151 163q-85 0 -130 -62t-45 -180v-62q0 -118 45 -180t130 -62
q136 0 151 163l164 -13q-14 -144 -96 -225t-216 -81z" />
    <glyph glyph-name="ordfeminine" unicode="&#xaa;" 
d="M510 551q-135 0 -213 97.5t-78 266.5q0 95 26.5 192t78 178t125 131t166.5 50q76 0 123.5 -34.5t73.5 -107.5h74l-70 -81l42 223h264l-91 -476q-14 -73 -14 -108q0 -69 80 -69h29l-49 -257q-21 -4 -39 -4.5t-41 -0.5q-88 0 -136.5 46t-48.5 129q0 33 5 68t17 86l27 -91
l-68 8q-81 -246 -283 -246zM596 797q66 0 106 67.5t70 223.5l14 75q-21 30 -46 43.5t-60 13.5q-49 0 -85 -27t-59 -69.5t-34 -91.5t-11 -93q0 -68 27 -105t78 -37z" />
    <glyph glyph-name="guillemotleft" unicode="&#xab;" 
d="M931 8l-408 524l537 525l160 -150l-370 -380l255 -384zM468 8l-449 524l518 525l159 -151l-346 -379l285 -383z" />
    <glyph glyph-name="logicalnot" unicode="&#xac;" 
d="M707 106l78 441l27 -48h-692l50 285h952l-120 -678h-295z" />
    <glyph glyph-name="registered" unicode="&#xae;" 
d="M320.5 54q-132.5 84 -205.5 238t-73 362v128q0 209 73 362.5t205.5 237.5t313.5 84t313.5 -84t205.5 -237.5t73 -362.5v-128q0 -208 -73 -362t-205.5 -238t-313.5 -84t-313.5 84zM782 294l-200 373h181l205 -364v-9h-186zM995.5 217.5q130.5 157.5 130.5 435.5v130
q0 278 -130.5 435.5t-361.5 157.5t-361.5 -157.5t-130.5 -435.5v-130q0 -278 130.5 -435.5t361.5 -157.5t361.5 157.5zM360 294v852h280q139 0 218.5 -71t79.5 -196v-9q0 -124 -80 -196.5t-219 -72.5h-179v144h176q66 0 102 31t36 84v17q0 54 -36 84t-102 30h-113v-697h-163
z" />
    <glyph glyph-name="macron" unicode="&#xaf;" 
d="M416 1315l44 246h646l-44 -246h-646z" />
    <glyph glyph-name="degree" unicode="&#xb0;" 
d="M482 749q-90 50 -142 137t-52 196q0 110 52 197t142 137t203.5 50t203 -50t141.5 -137t52 -197q0 -109 -52 -196t-141.5 -137t-203 -50t-203.5 50zM795.5 969q42.5 44 42.5 113q0 70 -42.5 114t-110 44t-110.5 -44t-43 -114q0 -69 43 -113t110.5 -44t110 44z" />
    <glyph glyph-name="plusminus" unicode="&#xb1;" 
d="M15 0l49 276h984l-49 -276h-984zM133 680l48 274h988l-48 -274h-988zM427 376l156 882h292l-156 -882h-292z" />
    <glyph glyph-name="uni00B2" unicode="&#xb2;" 
d="M238 687l35 198l433 371q57 49 79 79.5t22 64.5q0 33 -19.5 52t-53.5 19q-47 0 -82 -32.5t-66 -106.5l-240 113q58 132 168 205t252 73q146 0 231.5 -77t85.5 -208q0 -88 -47.5 -163.5t-163.5 -173.5l-186 -157v-7h356l-44 -250h-760z" />
    <glyph glyph-name="uni00B3" unicode="&#xb3;" 
d="M684 677q-168 0 -283.5 80.5t-150.5 212.5l258 67q14 -52 55.5 -80t102.5 -28q56 0 86 25t30 71q0 87 -113 87h-139l33 186h153q58 0 89.5 25.5t31.5 69.5q0 36 -23 57t-67 21q-96 0 -138 -92l-241 109q53 110 163.5 172.5t252.5 62.5q155 0 241.5 -73t86.5 -194
q0 -100 -56.5 -163.5t-153.5 -89.5l-2 -12q76 -25 116 -82t40 -138q0 -88 -46.5 -154.5t-130.5 -103t-195 -36.5z" />
    <glyph glyph-name="acute" unicode="&#xb4;" 
d="M447 1258l2 14l272 364h358l-3 -13l-353 -365h-276z" />
    <glyph glyph-name="uni00B5" unicode="&#xb5;" 
d="M-49 -436l262 1488h306l-121 -592q-9 -46 -12.5 -75.5t-3.5 -55.5q0 -53 26.5 -82t75.5 -29q79 0 136.5 99.5t90.5 287.5l79 447h306l-101 -568q-9 -52 -12.5 -81.5t-3.5 -52.5q0 -83 95 -83h42l-46 -262q-59 -23 -117 -23q-100 0 -154.5 59t-54.5 166q0 29 5.5 60
t18.5 80l49 -105l-80 11q-65 -148 -139.5 -217.5t-190.5 -69.5q-118 0 -178 77.5t-65 212.5l159 -42l-66 -650h-306z" />
    <glyph glyph-name="paragraph" unicode="&#xb6;" 
d="M331 -408l181 1031l77 -50h-62q-120 0 -210.5 47t-140.5 132t-50 197q0 92 29 178t91 155t161.5 109.5t241.5 40.5h241l-324 -1840h-235zM708 -408l324 1840h235l-324 -1840h-235z" />
    <glyph glyph-name="periodcentered" unicode="&#xb7;" 
d="M653 625q-87 0 -146.5 59.5t-59.5 145.5q0 85 60 144.5t146 59.5q87 0 146.5 -59t59.5 -145q0 -87 -59 -146t-147 -59z" />
    <glyph glyph-name="cedilla" unicode="&#xb8;" 
d="M444 -658q-121 0 -209 61.5t-127 152.5l186 86q47 -112 150 -112q52 0 84 30t32 80q0 41 -24.5 64.5t-71.5 23.5q-46 0 -93 -30l-95 103l171 218h157l-210 -260l-68 59q43 35 92.5 52.5t100.5 17.5q101 0 171 -62t70 -184q0 -85 -39 -153t-110 -107.5t-167 -39.5z" />
    <glyph glyph-name="uni00B9" unicode="&#xb9;" 
d="M540 815l102 583l-222 -80l-82 231l452 164h178l-159 -898h-269zM260 687l45 255h787l-45 -255h-787z" />
    <glyph glyph-name="ordmasculine" unicode="&#xba;" 
d="M575 576q-116 0 -208 47t-145 134.5t-53 208.5q0 106 33.5 197t97 159t152 106t198.5 38q183 0 290 -105.5t107 -284.5q0 -109 -32 -200.5t-93 -158.5t-148.5 -104t-198.5 -37zM589 820q51 0 86 23t56.5 60t31.5 81.5t10 86.5q0 71 -34 111t-103 40q-51 0 -88 -23
t-60 -60.5t-34 -81.5t-11 -86q0 -70 38.5 -110.5t107.5 -40.5z" />
    <glyph glyph-name="guillemotright" unicode="&#xbb;" 
d="M271 1056l408 -524l-537 -525l-160 150l370 380l-255 384zM734 1056l449 -524l-518 -525l-159 151l346 379l-285 383z" />
    <glyph glyph-name="onequarter" unicode="&#xbc;" 
d="M6 -34l1098 1494h176l-1097 -1494h-177zM277 750l86 484l-172 -53l-50 190l307 89h159l-125 -710h-205zM819 -34l37 208l8 18l52 291l22 -35h-38l-187 -194v-10h219l28 11h179l-31 -173h-619l32 183l402 420h201l-87 -492l2 -18l-37 -209h-183z" />
    <glyph glyph-name="onehalf" unicode="&#xbd;" 
d="M-17 -34l1086 1494h176l-1085 -1494h-177zM556 -34l31 177l273 188q60 41 81 66t21 53q0 52 -58 52q-77 0 -100 -101l-192 40q27 113 113 181t202 68q110 0 172 -58t62 -162q0 -73 -39 -130t-133 -121l-87 -59v-8h228l-33 -186h-541zM277 750l86 484l-172 -53l-50 190
l307 89h159l-125 -710h-205z" />
    <glyph glyph-name="threequarters" unicode="&#xbe;" 
d="M-5 -34l1164 1494h184l-1163 -1494h-185zM817 -34l36 208l14 18l51 291l22 -35h-38l-191 -194l-1 -10h219l29 11h178l-30 -173h-620l32 183l414 420h189l-86 -492l1 -18l-36 -209h-183zM344 717q-117 0 -190.5 52.5t-90.5 149.5l183 40q12 -70 91 -70q40 0 63 21t23 56
t-20.5 52.5t-66.5 17.5h-102l19 112h118q48 0 75 21.5t27 58.5q0 62 -69 62q-67 0 -90 -62l-176 66q32 80 105.5 123t174.5 43q110 0 174.5 -53.5t64.5 -145.5q0 -64 -38.5 -108.5t-109.5 -64.5l-2 -9q100 -42 100 -149q0 -92 -74.5 -152.5t-188.5 -60.5z" />
    <glyph glyph-name="questiondown" unicode="&#xbf;" 
d="M795 765l-69 -299l-201 -83q-109 -45 -156.5 -92t-47.5 -111q0 -59 39 -92.5t109 -33.5q86 0 156.5 48.5t112.5 135.5l269 -119q-80 -169 -227.5 -261t-335.5 -92q-199 0 -316 102.5t-117 275.5q0 138 74 239.5t228 175.5l139 67l32 139h311zM664 1266q83 0 141.5 -59
t58.5 -142q0 -81 -58 -137.5t-142 -56.5q-83 0 -141 56t-58 138q0 83 58.5 142t140.5 59z" />
    <glyph glyph-name="Agrave" unicode="&#xc0;" 
d="M-76 0l695 1432h282l191 -1432h-310l-67 885l-12 210h-7l-78 -210l-378 -885h-316zM177 276l118 241h592l39 -241h-749zM661 1638l-225 365l2 13h338l144 -364l-3 -14h-256z" />
    <glyph glyph-name="Aacute" unicode="&#xc1;" 
d="M-76 0l695 1432h282l191 -1432h-310l-67 885l-12 210h-7l-78 -210l-378 -885h-316zM177 276l118 241h592l39 -241h-749zM651 1638l2 14l272 364h358l-3 -13l-353 -365h-276z" />
    <glyph glyph-name="Acircumflex" unicode="&#xc2;" 
d="M-76 0l695 1432h282l191 -1432h-310l-67 885l-12 210h-7l-78 -210l-378 -885h-316zM177 276l118 241h592l39 -241h-749zM347 1638l2 14l354 364h294l226 -364l-2 -14h-285l-121 295h65l-226 -295h-307z" />
    <glyph glyph-name="Atilde" unicode="&#xc3;" 
d="M-76 0l695 1432h282l191 -1432h-310l-67 885l-12 210h-7l-78 -210l-378 -885h-316zM177 276l118 241h592l39 -241h-749zM971 1639q-59 0 -99 20.5t-89 70.5q-37 38 -58 53.5t-44 15.5q-26 0 -40 -18.5t-20 -54.5l-15 -84h-217l16 91q25 138 90.5 212t168.5 74
q59 0 99 -20.5t89 -70.5q38 -38 58.5 -53.5t43.5 -15.5q26 0 40 18.5t20 54.5l15 84h217l-16 -91q-25 -138 -90 -212t-169 -74z" />
    <glyph glyph-name="Adieresis" unicode="&#xc4;" 
d="M-76 0l695 1432h282l191 -1432h-310l-67 885l-12 210h-7l-78 -210l-378 -885h-316zM177 276l118 241h592l39 -241h-749zM540 1626q-80 0 -136 55t-56 134t56 134t136 55q81 0 136.5 -54.5t55.5 -134.5t-55 -134.5t-137 -54.5zM1084 1626q-80 0 -136 55t-56 134t56 134
t136 55q81 0 136.5 -54.5t55.5 -134.5t-55 -134.5t-137 -54.5z" />
    <glyph glyph-name="Aring" unicode="&#xc5;" 
d="M-76 0l695 1432h282l191 -1432h-310l-67 885l-12 210h-7l-78 -210l-378 -885h-316zM177 276l118 241h592l39 -241h-749zM661.5 1571.5q-70.5 40.5 -112.5 108.5t-42 152q0 85 42 153t112.5 108.5t157.5 40.5t157.5 -40.5t112.5 -108.5t42 -153q0 -84 -42 -152
t-112.5 -108.5t-157.5 -40.5t-157.5 40.5zM906.5 1745.5q34.5 34.5 34.5 87t-34.5 87t-87 34.5t-87.5 -34.5t-35 -87t35 -87t87.5 -34.5t87 34.5z" />
    <glyph glyph-name="AE" unicode="&#xc6;" 
d="M-89 0l603 1432h362l-60 -264h-158l-97 -293l-346 -875h-304zM152 284l114 236h421l-42 -236h-493zM521 0l252 1432h565l-49 -277h-319l-155 -878h336l-49 -277h-581zM763 594l48 273h381l-48 -273h-381z" />
    <glyph glyph-name="Ccedilla" unicode="&#xc7;" 
d="M609 -34q-154 0 -267.5 73.5t-175 208.5t-61.5 318q0 199 47 364t134.5 285t208.5 185.5t269 65.5q194 0 310 -109.5t143 -309.5l-294 -49q-13 90 -55 134t-118 44q-96 0 -171 -78t-117.5 -214t-42.5 -310q0 -156 53 -237t155 -81q75 0 127.5 47.5t86.5 150.5l272 -109
q-143 -379 -504 -379zM509 -658q-121 0 -209 61.5t-127 152.5l186 86q47 -112 150 -112q52 0 84 30t32 80q0 41 -24.5 64.5t-71.5 23.5q-46 0 -93 -30l-95 103l171 218h157l-210 -260l-68 59q43 35 92.5 52.5t100.5 17.5q101 0 171 -62t70 -184q0 -85 -39 -153t-110 -107.5
t-167 -39.5z" />
    <glyph glyph-name="Egrave" unicode="&#xc8;" 
d="M51 0l252 1432h890l-50 -286h-584l-152 -860h600l-50 -286h-906zM344 589l50 284h621l-50 -284h-621zM662 1638l-225 365l2 13h338l144 -364l-3 -14h-256z" />
    <glyph glyph-name="Eacute" unicode="&#xc9;" 
d="M51 0l252 1432h890l-50 -286h-584l-152 -860h600l-50 -286h-906zM344 589l50 284h621l-50 -284h-621zM652 1638l2 14l272 364h358l-3 -13l-353 -365h-276z" />
    <glyph glyph-name="Ecircumflex" unicode="&#xca;" 
d="M51 0l252 1432h890l-50 -286h-584l-152 -860h600l-50 -286h-906zM344 589l50 284h621l-50 -284h-621zM348 1638l2 14l354 364h294l226 -364l-2 -14h-285l-121 295h65l-226 -295h-307z" />
    <glyph glyph-name="Edieresis" unicode="&#xcb;" 
d="M51 0l252 1432h890l-50 -286h-584l-152 -860h600l-50 -286h-906zM344 589l50 284h621l-50 -284h-621zM541 1626q-80 0 -136 55t-56 134t56 134t136 55q81 0 136.5 -54.5t55.5 -134.5t-55 -134.5t-137 -54.5zM1085 1626q-80 0 -136 55t-56 134t56 134t136 55
q81 0 136.5 -54.5t55.5 -134.5t-55 -134.5t-137 -54.5z" />
    <glyph glyph-name="Igrave" unicode="&#xcc;" 
d="M378 139l203 1154h310l-204 -1154h-309zM50 0l51 289h915l-51 -289h-915zM252 1144l50 288h915l-50 -288h-915zM673 1638l-225 365l2 13h338l144 -364l-3 -14h-256z" />
    <glyph glyph-name="Iacute" unicode="&#xcd;" 
d="M378 139l203 1154h310l-204 -1154h-309zM50 0l51 289h915l-51 -289h-915zM252 1144l50 288h915l-50 -288h-915zM663 1638l2 14l272 364h358l-3 -13l-353 -365h-276z" />
    <glyph glyph-name="Icircumflex" unicode="&#xce;" 
d="M378 139l203 1154h310l-204 -1154h-309zM50 0l51 289h915l-51 -289h-915zM252 1144l50 288h915l-50 -288h-915zM359 1638l2 14l354 364h294l226 -364l-2 -14h-285l-121 295h65l-226 -295h-307z" />
    <glyph glyph-name="Idieresis" unicode="&#xcf;" 
d="M378 139l203 1154h310l-204 -1154h-309zM50 0l51 289h915l-51 -289h-915zM252 1144l50 288h915l-50 -288h-915zM552 1626q-80 0 -136 55t-56 134t56 134t136 55q81 0 136.5 -54.5t55.5 -134.5t-55 -134.5t-137 -54.5zM1096 1626q-80 0 -136 55t-56 134t56 134t136 55
q81 0 136.5 -54.5t55.5 -134.5t-55 -134.5t-137 -54.5z" />
    <glyph glyph-name="Eth" unicode="&#xd0;" 
d="M84 0l252 1432h313q264 0 406 -147t142 -419t-80 -466t-231 -297t-364 -103h-438zM44 599l48 272h690l-48 -272h-690zM401 278h137q179 0 277 152t98 427q0 157 -63 227t-204 70h-91z" />
    <glyph glyph-name="Ntilde" unicode="&#xd1;" 
d="M-21 0l252 1432h290l319 -900h8l42 329l101 571h298l-252 -1432h-266l-335 944h-8l-43 -329l-108 -615h-298zM946 1639q-59 0 -99 20.5t-89 70.5q-37 38 -58 53.5t-44 15.5q-26 0 -40 -18.5t-20 -54.5l-15 -84h-217l16 91q25 138 90.5 212t168.5 74q59 0 99 -20.5
t89 -70.5q38 -38 58.5 -53.5t43.5 -15.5q26 0 40 18.5t20 54.5l15 84h217l-16 -91q-25 -138 -90 -212t-169 -74z" />
    <glyph glyph-name="Ograve" unicode="&#xd2;" 
d="M544 -34q-144 0 -249.5 64.5t-163 186t-57.5 291.5q0 123 22 256.5t70 258t125.5 225t188 159.5t258.5 59q215 0 334 -145t119 -402q0 -125 -21 -258t-68 -257t-122 -223t-183 -157t-253 -58zM570 256q70 0 121.5 42.5t87 113.5t57 157t31.5 174t10 164q0 130 -41 199.5
t-125 69.5q-71 0 -124.5 -43.5t-91.5 -115.5t-61.5 -159t-34.5 -175t-11 -163q0 -133 46.5 -198.5t135.5 -65.5zM663 1638l-225 365l2 13h338l144 -364l-3 -14h-256z" />
    <glyph glyph-name="Oacute" unicode="&#xd3;" 
d="M544 -34q-144 0 -249.5 64.5t-163 186t-57.5 291.5q0 123 22 256.5t70 258t125.5 225t188 159.5t258.5 59q215 0 334 -145t119 -402q0 -125 -21 -258t-68 -257t-122 -223t-183 -157t-253 -58zM570 256q70 0 121.5 42.5t87 113.5t57 157t31.5 174t10 164q0 130 -41 199.5
t-125 69.5q-71 0 -124.5 -43.5t-91.5 -115.5t-61.5 -159t-34.5 -175t-11 -163q0 -133 46.5 -198.5t135.5 -65.5zM653 1638l2 14l272 364h358l-3 -13l-353 -365h-276z" />
    <glyph glyph-name="Ocircumflex" unicode="&#xd4;" 
d="M544 -34q-144 0 -249.5 64.5t-163 186t-57.5 291.5q0 123 22 256.5t70 258t125.5 225t188 159.5t258.5 59q215 0 334 -145t119 -402q0 -125 -21 -258t-68 -257t-122 -223t-183 -157t-253 -58zM570 256q70 0 121.5 42.5t87 113.5t57 157t31.5 174t10 164q0 130 -41 199.5
t-125 69.5q-71 0 -124.5 -43.5t-91.5 -115.5t-61.5 -159t-34.5 -175t-11 -163q0 -133 46.5 -198.5t135.5 -65.5zM349 1638l2 14l354 364h294l226 -364l-2 -14h-285l-121 295h65l-226 -295h-307z" />
    <glyph glyph-name="Otilde" unicode="&#xd5;" 
d="M544 -34q-144 0 -249.5 64.5t-163 186t-57.5 291.5q0 123 22 256.5t70 258t125.5 225t188 159.5t258.5 59q215 0 334 -145t119 -402q0 -125 -21 -258t-68 -257t-122 -223t-183 -157t-253 -58zM570 256q70 0 121.5 42.5t87 113.5t57 157t31.5 174t10 164q0 130 -41 199.5
t-125 69.5q-71 0 -124.5 -43.5t-91.5 -115.5t-61.5 -159t-34.5 -175t-11 -163q0 -133 46.5 -198.5t135.5 -65.5zM973 1639q-59 0 -99 20.5t-89 70.5q-37 38 -58 53.5t-44 15.5q-26 0 -40 -18.5t-20 -54.5l-15 -84h-217l16 91q25 138 90.5 212t168.5 74q59 0 99 -20.5
t89 -70.5q38 -38 58.5 -53.5t43.5 -15.5q26 0 40 18.5t20 54.5l15 84h217l-16 -91q-25 -138 -90 -212t-169 -74z" />
    <glyph glyph-name="Odieresis" unicode="&#xd6;" 
d="M544 -34q-144 0 -249.5 64.5t-163 186t-57.5 291.5q0 123 22 256.5t70 258t125.5 225t188 159.5t258.5 59q215 0 334 -145t119 -402q0 -125 -21 -258t-68 -257t-122 -223t-183 -157t-253 -58zM570 256q70 0 121.5 42.5t87 113.5t57 157t31.5 174t10 164q0 130 -41 199.5
t-125 69.5q-71 0 -124.5 -43.5t-91.5 -115.5t-61.5 -159t-34.5 -175t-11 -163q0 -133 46.5 -198.5t135.5 -65.5zM542 1626q-80 0 -136 55t-56 134t56 134t136 55q81 0 136.5 -54.5t55.5 -134.5t-55 -134.5t-137 -54.5zM1086 1626q-80 0 -136 55t-56 134t56 134t136 55
q81 0 136.5 -54.5t55.5 -134.5t-55 -134.5t-137 -54.5z" />
    <glyph glyph-name="multiply" unicode="&#xd7;" 
d="M266 156l-173 217l882 752l174 -217zM832 156l-642 787l219 182l642 -788z" />
    <glyph glyph-name="Oslash" unicode="&#xd8;" 
d="M76 -217l-158 120l1274 1746l157 -119zM562 -34q-139 0 -249.5 67t-174.5 188.5t-64 286.5q0 123 22 256.5t69.5 258t124 225t185 159.5t253.5 59q139 0 243 -68t162 -190.5t58 -288.5q0 -125 -21 -258t-67 -257t-119.5 -223t-178 -157t-243.5 -58zM543 232
q99 0 170 64.5t116 168t66.5 222.5t21.5 228q0 146 -41.5 215.5t-147.5 69.5q-79 0 -141 -43.5t-107 -116t-74.5 -162t-43.5 -183t-14 -177.5q0 -147 43 -216.5t152 -69.5z" />
    <glyph glyph-name="Ugrave" unicode="&#xd9;" 
d="M565 -34q-140 0 -247 54.5t-167 151t-60 223.5q0 36 4 73t12 83l155 881h308l-162 -921q-4 -28 -6.5 -50t-2.5 -41q0 -76 46 -120t124 -44q85 0 139 56t73 162l169 958h308l-179 -1010q-38 -217 -172.5 -336.5t-341.5 -119.5zM658 1640l-225 365l2 13h338l144 -364
l-3 -14h-256z" />
    <glyph glyph-name="Uacute" unicode="&#xda;" 
d="M565 -34q-140 0 -247 54.5t-167 151t-60 223.5q0 36 4 73t12 83l155 881h308l-162 -921q-4 -28 -6.5 -50t-2.5 -41q0 -76 46 -120t124 -44q85 0 139 56t73 162l169 958h308l-179 -1010q-38 -217 -172.5 -336.5t-341.5 -119.5zM648 1640l2 14l272 364h358l-3 -13
l-353 -365h-276z" />
    <glyph glyph-name="Ucircumflex" unicode="&#xdb;" 
d="M565 -34q-140 0 -247 54.5t-167 151t-60 223.5q0 36 4 73t12 83l155 881h308l-162 -921q-4 -28 -6.5 -50t-2.5 -41q0 -76 46 -120t124 -44q85 0 139 56t73 162l169 958h308l-179 -1010q-38 -217 -172.5 -336.5t-341.5 -119.5zM344 1640l2 14l354 364h294l226 -364l-2 -14
h-285l-121 295h65l-226 -295h-307z" />
    <glyph glyph-name="Udieresis" unicode="&#xdc;" 
d="M565 -34q-140 0 -247 54.5t-167 151t-60 223.5q0 36 4 73t12 83l155 881h308l-162 -921q-4 -28 -6.5 -50t-2.5 -41q0 -76 46 -120t124 -44q85 0 139 56t73 162l169 958h308l-179 -1010q-38 -217 -172.5 -336.5t-341.5 -119.5zM537 1628q-80 0 -136 55t-56 134t56 134
t136 55q81 0 136.5 -54.5t55.5 -134.5t-55 -134.5t-137 -54.5zM1081 1628q-80 0 -136 55t-56 134t56 134t136 55q81 0 136.5 -54.5t55.5 -134.5t-55 -134.5t-137 -54.5z" />
    <glyph glyph-name="Yacute" unicode="&#xdd;" 
d="M462 438l-277 994h312l88 -356l46 -273h9l140 273l209 356h346l-626 -994h-247zM354 0l119 676h308l-119 -676h-308zM627 1638l2 14l272 364h358l-3 -13l-353 -365h-276z" />
    <glyph glyph-name="Thorn" unicode="&#xde;" 
d="M271 281l49 272h289q84 0 137 33.5t78 85.5t25 107q0 88 -51 131t-155 43h-267l49 272h253q139 0 245 -47.5t166 -143t60 -240.5q0 -96 -33 -187.5t-100.5 -165t-170 -117t-241.5 -43.5h-333zM31 0l252 1432h304l-252 -1432h-304z" />
    <glyph glyph-name="germandbls" unicode="&#xdf;" 
d="M727 -34q-88 0 -167 19t-147 61l117 230q38 -25 79 -39.5t88 -14.5q63 0 101.5 31.5t38.5 83.5q0 42 -20 75.5t-70 72.5l-66 51q-54 42 -82.5 88t-28.5 104q0 64 26 110t64 80.5t75.5 65.5t63.5 64.5t26 77.5q0 53 -34 82.5t-95 29.5q-76 0 -125.5 -49t-66.5 -141
l-185 -1048h-300l189 1073q35 199 169.5 310t339.5 111q181 0 283.5 -89.5t102.5 -247.5q0 -70 -24.5 -119.5t-61 -85.5t-73.5 -63.5t-61.5 -54.5t-24.5 -59q0 -28 15.5 -51t52.5 -56l63 -57q68 -62 102 -128t34 -155q0 -103 -50.5 -185t-140 -129.5t-207.5 -47.5z" />
    <glyph glyph-name="agrave" unicode="&#xe0;" 
d="M407 -34q-166 0 -263 120t-97 323q0 194 63.5 347t172.5 241.5t247 88.5q101 0 161.5 -47.5t92.5 -134.5h80l-83 -93l45 260h281l-104 -587q-9 -50 -12.5 -80.5t-3.5 -53.5q0 -83 95 -83h42l-46 -262q-29 -11 -58.5 -17t-63.5 -6q-97 0 -150.5 59t-53.5 166
q0 29 5.5 60.5t18.5 79.5l49 -105l-80 11q-47 -139 -134 -213t-204 -74zM499 232q83 0 139 90.5t89 271.5l21 116q-24 56 -61.5 83t-93.5 27q-73 0 -130 -48.5t-90 -133t-33 -191.5q0 -104 41.5 -159.5t117.5 -55.5zM562 1258l-225 365l2 13h338l144 -364l-3 -14h-256z" />
    <glyph glyph-name="aacute" unicode="&#xe1;" 
d="M407 -34q-166 0 -263 120t-97 323q0 194 63.5 347t172.5 241.5t247 88.5q101 0 161.5 -47.5t92.5 -134.5h80l-83 -93l45 260h281l-104 -587q-9 -50 -12.5 -80.5t-3.5 -53.5q0 -83 95 -83h42l-46 -262q-29 -11 -58.5 -17t-63.5 -6q-97 0 -150.5 59t-53.5 166
q0 29 5.5 60.5t18.5 79.5l49 -105l-80 11q-47 -139 -134 -213t-204 -74zM499 232q83 0 139 90.5t89 271.5l21 116q-24 56 -61.5 83t-93.5 27q-73 0 -130 -48.5t-90 -133t-33 -191.5q0 -104 41.5 -159.5t117.5 -55.5zM552 1258l2 14l272 364h358l-3 -13l-353 -365h-276z" />
    <glyph glyph-name="acircumflex" unicode="&#xe2;" 
d="M407 -34q-166 0 -263 120t-97 323q0 194 63.5 347t172.5 241.5t247 88.5q101 0 161.5 -47.5t92.5 -134.5h80l-83 -93l45 260h281l-104 -587q-9 -50 -12.5 -80.5t-3.5 -53.5q0 -83 95 -83h42l-46 -262q-29 -11 -58.5 -17t-63.5 -6q-97 0 -150.5 59t-53.5 166
q0 29 5.5 60.5t18.5 79.5l49 -105l-80 11q-47 -139 -134 -213t-204 -74zM499 232q83 0 139 90.5t89 271.5l21 116q-24 56 -61.5 83t-93.5 27q-73 0 -130 -48.5t-90 -133t-33 -191.5q0 -104 41.5 -159.5t117.5 -55.5zM248 1258l2 14l354 364h294l226 -364l-2 -14h-285
l-121 295h65l-226 -295h-307z" />
    <glyph glyph-name="atilde" unicode="&#xe3;" 
d="M407 -34q-166 0 -263 120t-97 323q0 194 63.5 347t172.5 241.5t247 88.5q101 0 161.5 -47.5t92.5 -134.5h80l-83 -93l45 260h281l-104 -587q-9 -50 -12.5 -80.5t-3.5 -53.5q0 -83 95 -83h42l-46 -262q-29 -11 -58.5 -17t-63.5 -6q-97 0 -150.5 59t-53.5 166
q0 29 5.5 60.5t18.5 79.5l49 -105l-80 11q-47 -139 -134 -213t-204 -74zM499 232q83 0 139 90.5t89 271.5l21 116q-24 56 -61.5 83t-93.5 27q-73 0 -130 -48.5t-90 -133t-33 -191.5q0 -104 41.5 -159.5t117.5 -55.5zM872 1259q-59 0 -99 20.5t-89 70.5q-37 38 -58 53.5
t-44 15.5q-26 0 -40 -18.5t-20 -54.5l-15 -84h-217l16 91q25 138 90.5 212t168.5 74q59 0 99 -20.5t89 -70.5q38 -38 58.5 -53.5t43.5 -15.5q26 0 40 18.5t20 54.5l15 84h217l-16 -91q-25 -138 -90 -212t-169 -74z" />
    <glyph glyph-name="adieresis" unicode="&#xe4;" 
d="M407 -34q-166 0 -263 120t-97 323q0 194 63.5 347t172.5 241.5t247 88.5q101 0 161.5 -47.5t92.5 -134.5h80l-83 -93l45 260h281l-104 -587q-9 -50 -12.5 -80.5t-3.5 -53.5q0 -83 95 -83h42l-46 -262q-29 -11 -58.5 -17t-63.5 -6q-97 0 -150.5 59t-53.5 166
q0 29 5.5 60.5t18.5 79.5l49 -105l-80 11q-47 -139 -134 -213t-204 -74zM499 232q83 0 139 90.5t89 271.5l21 116q-24 56 -61.5 83t-93.5 27q-73 0 -130 -48.5t-90 -133t-33 -191.5q0 -104 41.5 -159.5t117.5 -55.5zM441 1246q-80 0 -136 55t-56 134t56 134t136 55
q81 0 136.5 -54.5t55.5 -134.5t-55 -134.5t-137 -54.5zM985 1246q-80 0 -136 55t-56 134t56 134t136 55q81 0 136.5 -54.5t55.5 -134.5t-55 -134.5t-137 -54.5z" />
    <glyph glyph-name="aring" unicode="&#xe5;" 
d="M407 -34q-166 0 -263 120t-97 323q0 194 63.5 347t172.5 241.5t247 88.5q101 0 161.5 -47.5t92.5 -134.5h80l-83 -93l45 260h281l-104 -587q-9 -50 -12.5 -80.5t-3.5 -53.5q0 -83 95 -83h42l-46 -262q-29 -11 -58.5 -17t-63.5 -6q-97 0 -150.5 59t-53.5 166
q0 29 5.5 60.5t18.5 79.5l49 -105l-80 11q-47 -139 -134 -213t-204 -74zM499 232q83 0 139 90.5t89 271.5l21 116q-24 56 -61.5 83t-93.5 27q-73 0 -130 -48.5t-90 -133t-33 -191.5q0 -104 41.5 -159.5t117.5 -55.5zM562.5 1191.5q-70.5 40.5 -112.5 108.5t-42 152
q0 85 42 153t112.5 108.5t157.5 40.5t157.5 -40.5t112.5 -108.5t42 -153q0 -84 -42 -152t-112.5 -108.5t-157.5 -40.5t-157.5 40.5zM807.5 1365.5q34.5 34.5 34.5 87t-34.5 87t-87 34.5t-87.5 -34.5t-35 -87t35 -87t87.5 -34.5t87 34.5z" />
    <glyph glyph-name="ae" unicode="&#xe6;" 
d="M288 -34q-135 0 -221.5 89.5t-86.5 238.5q0 107 44 192t125 134.5t192 49.5q50 0 92.5 -11t79.5 -32l-27 -162q-22 16 -45 23t-54 7q-50 0 -84.5 -25t-52.5 -68t-18 -99q0 -55 24 -86t64 -31q45 0 75 42.5t45 128.5l54 305q4 22 7 44t3 38q0 100 -118 100
q-46 0 -91.5 -14t-95.5 -44l-78 220q135 80 280 80q134 0 211 -79.5t82 -225.5h-132q53 146 153 225.5t228 79.5q132 0 204.5 -81t72.5 -206q0 -193 -144.5 -289.5t-427.5 -103.5l-15 160q179 18 261 67.5t82 133.5q0 41 -19.5 66t-63.5 25q-47 0 -81.5 -28.5t-58 -75
t-37 -100.5t-19.5 -106t-6 -92q0 -116 42.5 -174t128.5 -58q38 0 71.5 13t68.5 42l113 -223q-52 -46 -113 -68t-132 -22q-103 0 -178.5 46.5t-117.5 132t-47 202.5l110 4q-34 -180 -121.5 -282.5t-227.5 -102.5z" />
    <glyph glyph-name="ccedilla" unicode="&#xe7;" 
d="M653 -34q-159 0 -279 65t-187 181.5t-67 268.5q0 179 72.5 315t202 213t298.5 77q191 0 310 -101.5t138 -280.5l-290 -32q-17 155 -164 155q-77 0 -138 -44.5t-96 -122t-35 -176.5q0 -111 66.5 -176.5t179.5 -65.5q69 0 126 27.5t118 91.5l170 -219q-93 -91 -195 -133.5
t-230 -42.5zM519 -658q-121 0 -209 61.5t-127 152.5l186 86q47 -112 150 -112q52 0 84 30t32 80q0 41 -24.5 64.5t-71.5 23.5q-46 0 -93 -30l-95 103l171 218h157l-210 -260l-68 59q43 35 92.5 52.5t100.5 17.5q101 0 171 -62t70 -184q0 -85 -39 -153t-110 -107.5
t-167 -39.5z" />
    <glyph glyph-name="egrave" unicode="&#xe8;" 
d="M605 -34q-153 0 -269 66t-181.5 180.5t-65.5 261.5q0 124 42 234.5t122.5 195.5t195.5 133.5t260 48.5q192 0 289 -90t97 -229q0 -128 -84 -205t-261.5 -110.5t-459.5 -33.5l-15 175q181 4 301.5 19t181 47t60.5 86q0 43 -31.5 66.5t-96.5 23.5q-96 0 -167.5 -49
t-111 -129.5t-39.5 -175.5q0 -117 63 -182t177 -65q74 0 135.5 28.5t122.5 92.5l165 -209q-89 -92 -192.5 -136t-237.5 -44zM622 1258l-225 365l2 13h338l144 -364l-3 -14h-256z" />
    <glyph glyph-name="eacute" unicode="&#xe9;" 
d="M605 -34q-153 0 -269 66t-181.5 180.5t-65.5 261.5q0 124 42 234.5t122.5 195.5t195.5 133.5t260 48.5q192 0 289 -90t97 -229q0 -128 -84 -205t-261.5 -110.5t-459.5 -33.5l-15 175q181 4 301.5 19t181 47t60.5 86q0 43 -31.5 66.5t-96.5 23.5q-96 0 -167.5 -49
t-111 -129.5t-39.5 -175.5q0 -117 63 -182t177 -65q74 0 135.5 28.5t122.5 92.5l165 -209q-89 -92 -192.5 -136t-237.5 -44zM612 1258l2 14l272 364h358l-3 -13l-353 -365h-276z" />
    <glyph glyph-name="ecircumflex" unicode="&#xea;" 
d="M605 -34q-153 0 -269 66t-181.5 180.5t-65.5 261.5q0 124 42 234.5t122.5 195.5t195.5 133.5t260 48.5q192 0 289 -90t97 -229q0 -128 -84 -205t-261.5 -110.5t-459.5 -33.5l-15 175q181 4 301.5 19t181 47t60.5 86q0 43 -31.5 66.5t-96.5 23.5q-96 0 -167.5 -49
t-111 -129.5t-39.5 -175.5q0 -117 63 -182t177 -65q74 0 135.5 28.5t122.5 92.5l165 -209q-89 -92 -192.5 -136t-237.5 -44zM308 1258l2 14l354 364h294l226 -364l-2 -14h-285l-121 295h65l-226 -295h-307z" />
    <glyph glyph-name="edieresis" unicode="&#xeb;" 
d="M605 -34q-153 0 -269 66t-181.5 180.5t-65.5 261.5q0 124 42 234.5t122.5 195.5t195.5 133.5t260 48.5q192 0 289 -90t97 -229q0 -128 -84 -205t-261.5 -110.5t-459.5 -33.5l-15 175q181 4 301.5 19t181 47t60.5 86q0 43 -31.5 66.5t-96.5 23.5q-96 0 -167.5 -49
t-111 -129.5t-39.5 -175.5q0 -117 63 -182t177 -65q74 0 135.5 28.5t122.5 92.5l165 -209q-89 -92 -192.5 -136t-237.5 -44zM501 1246q-80 0 -136 55t-56 134t56 134t136 55q81 0 136.5 -54.5t55.5 -134.5t-55 -134.5t-137 -54.5zM1045 1246q-80 0 -136 55t-56 134t56 134
t136 55q81 0 136.5 -54.5t55.5 -134.5t-55 -134.5t-137 -54.5z" />
    <glyph glyph-name="igrave" unicode="&#xec;" 
d="M786 -34q-176 0 -278.5 94.5t-102.5 257.5q0 33 4 74t14 96l82 467l71 -129h-387l39 226h594l-102 -576q-6 -34 -9 -59.5t-3 -45.5q0 -58 32 -90t91 -32q66 0 132 47l117 -237q-129 -93 -294 -93zM566 1258l-225 365l2 13h338l144 -364l-3 -14h-256z" />
    <glyph glyph-name="iacute" unicode="&#xed;" 
d="M786 -34q-176 0 -278.5 94.5t-102.5 257.5q0 33 4 74t14 96l82 467l71 -129h-387l39 226h594l-102 -576q-6 -34 -9 -59.5t-3 -45.5q0 -58 32 -90t91 -32q66 0 132 47l117 -237q-129 -93 -294 -93zM556 1258l2 14l272 364h358l-3 -13l-353 -365h-276z" />
    <glyph glyph-name="icircumflex" unicode="&#xee;" 
d="M786 -34q-176 0 -278.5 94.5t-102.5 257.5q0 33 4 74t14 96l82 467l71 -129h-387l39 226h594l-102 -576q-6 -34 -9 -59.5t-3 -45.5q0 -58 32 -90t91 -32q66 0 132 47l117 -237q-129 -93 -294 -93zM252 1258l2 14l354 364h294l226 -364l-2 -14h-285l-121 295h65l-226 -295
h-307z" />
    <glyph glyph-name="idieresis" unicode="&#xef;" 
d="M786 -34q-176 0 -278.5 94.5t-102.5 257.5q0 33 4 74t14 96l82 467l71 -129h-387l39 226h594l-102 -576q-6 -34 -9 -59.5t-3 -45.5q0 -58 32 -90t91 -32q66 0 132 47l117 -237q-129 -93 -294 -93zM445 1246q-80 0 -136 55t-56 134t56 134t136 55q81 0 136.5 -54.5
t55.5 -134.5t-55 -134.5t-137 -54.5zM989 1246q-80 0 -136 55t-56 134t56 134t136 55q81 0 136.5 -54.5t55.5 -134.5t-55 -134.5t-137 -54.5z" />
    <glyph glyph-name="eth" unicode="&#xf0;" 
d="M567 -34q-135 0 -244 59t-173 166t-64 251q0 96 31 197t93.5 187t156.5 139t221 53q124 0 202.5 -64.5t107.5 -184.5l-50 61l41 7q-5 209 -89.5 358t-274.5 266l132 175q167 -115 274 -252t159 -302.5t52 -367.5q0 -138 -32.5 -271t-101.5 -241t-178.5 -172t-262.5 -64z
M577 232q70 0 118 32.5t77.5 84t43 110.5t13.5 111q0 72 -23.5 120t-64.5 72t-93 24q-69 0 -118.5 -31t-82 -81.5t-48 -110t-15.5 -116.5q0 -99 53 -157t140 -58zM370 1122l-28 173l439 73l55 -157zM885 1224l-54 158l392 68l28 -173z" />
    <glyph glyph-name="ntilde" unicode="&#xf1;" 
d="M928 -18q-121 0 -190 68t-69 186q0 39 6.5 78.5t19.5 95.5l47 194q11 45 17 79t6 62q0 44 -21.5 66.5t-64.5 22.5q-57 0 -106.5 -42.5t-86 -119t-54.5 -178.5l-87 -494h-306l186 1052h291l-37 -209l-37 47h54q145 196 348 196q115 0 177.5 -63.5t62.5 -171.5
q0 -42 -7.5 -87.5t-20.5 -100.5l-55 -232q-10 -41 -13.5 -59.5t-3.5 -31.5q0 -75 91 -75h43l-46 -259q-72 -24 -144 -24zM902 1259q-59 0 -99 20.5t-89 70.5q-37 38 -58 53.5t-44 15.5q-26 0 -40 -18.5t-20 -54.5l-15 -84h-217l16 91q25 138 90.5 212t168.5 74
q59 0 99 -20.5t89 -70.5q38 -38 58.5 -53.5t43.5 -15.5q26 0 40 18.5t20 54.5l15 84h217l-16 -91q-25 -138 -90 -212t-169 -74z" />
    <glyph glyph-name="ograve" unicode="&#xf2;" 
d="M555 -34q-138 0 -246 59t-170 168.5t-62 261.5q0 128 39.5 241.5t115 201.5t182 138t241.5 50q144 0 248.5 -60t161 -169.5t56.5 -258.5q0 -131 -37.5 -245.5t-110 -201.5t-177.5 -136t-241 -49zM567 232q69 0 117.5 34.5t78.5 89.5t44 119t14 122q0 104 -44.5 163.5
t-134.5 59.5q-70 0 -120.5 -34.5t-82.5 -89.5t-47 -118.5t-15 -122.5q0 -103 50 -163t140 -60zM566 1258l-225 365l2 13h338l144 -364l-3 -14h-256z" />
    <glyph glyph-name="oacute" unicode="&#xf3;" 
d="M555 -34q-138 0 -246 59t-170 168.5t-62 261.5q0 128 39.5 241.5t115 201.5t182 138t241.5 50q144 0 248.5 -60t161 -169.5t56.5 -258.5q0 -131 -37.5 -245.5t-110 -201.5t-177.5 -136t-241 -49zM567 232q69 0 117.5 34.5t78.5 89.5t44 119t14 122q0 104 -44.5 163.5
t-134.5 59.5q-70 0 -120.5 -34.5t-82.5 -89.5t-47 -118.5t-15 -122.5q0 -103 50 -163t140 -60zM556 1258l2 14l272 364h358l-3 -13l-353 -365h-276z" />
    <glyph glyph-name="ocircumflex" unicode="&#xf4;" 
d="M555 -34q-138 0 -246 59t-170 168.5t-62 261.5q0 128 39.5 241.5t115 201.5t182 138t241.5 50q144 0 248.5 -60t161 -169.5t56.5 -258.5q0 -131 -37.5 -245.5t-110 -201.5t-177.5 -136t-241 -49zM567 232q69 0 117.5 34.5t78.5 89.5t44 119t14 122q0 104 -44.5 163.5
t-134.5 59.5q-70 0 -120.5 -34.5t-82.5 -89.5t-47 -118.5t-15 -122.5q0 -103 50 -163t140 -60zM252 1258l2 14l354 364h294l226 -364l-2 -14h-285l-121 295h65l-226 -295h-307z" />
    <glyph glyph-name="otilde" unicode="&#xf5;" 
d="M555 -34q-138 0 -246 59t-170 168.5t-62 261.5q0 128 39.5 241.5t115 201.5t182 138t241.5 50q144 0 248.5 -60t161 -169.5t56.5 -258.5q0 -131 -37.5 -245.5t-110 -201.5t-177.5 -136t-241 -49zM567 232q69 0 117.5 34.5t78.5 89.5t44 119t14 122q0 104 -44.5 163.5
t-134.5 59.5q-70 0 -120.5 -34.5t-82.5 -89.5t-47 -118.5t-15 -122.5q0 -103 50 -163t140 -60zM876 1259q-59 0 -99 20.5t-89 70.5q-37 38 -58 53.5t-44 15.5q-26 0 -40 -18.5t-20 -54.5l-15 -84h-217l16 91q25 138 90.5 212t168.5 74q59 0 99 -20.5t89 -70.5
q38 -38 58.5 -53.5t43.5 -15.5q26 0 40 18.5t20 54.5l15 84h217l-16 -91q-25 -138 -90 -212t-169 -74z" />
    <glyph glyph-name="odieresis" unicode="&#xf6;" 
d="M555 -34q-138 0 -246 59t-170 168.5t-62 261.5q0 128 39.5 241.5t115 201.5t182 138t241.5 50q144 0 248.5 -60t161 -169.5t56.5 -258.5q0 -131 -37.5 -245.5t-110 -201.5t-177.5 -136t-241 -49zM567 232q69 0 117.5 34.5t78.5 89.5t44 119t14 122q0 104 -44.5 163.5
t-134.5 59.5q-70 0 -120.5 -34.5t-82.5 -89.5t-47 -118.5t-15 -122.5q0 -103 50 -163t140 -60zM445 1246q-80 0 -136 55t-56 134t56 134t136 55q81 0 136.5 -54.5t55.5 -134.5t-55 -134.5t-137 -54.5zM989 1246q-80 0 -136 55t-56 134t56 134t136 55q81 0 136.5 -54.5
t55.5 -134.5t-55 -134.5t-137 -54.5z" />
    <glyph glyph-name="divide" unicode="&#xf7;" 
d="M119 499l50 285h952l-50 -285h-952zM566 932q-52 52 -52 128t52 128t128.5 52t128 -51.5t51.5 -128t-51.5 -128.5t-128 -52t-128.5 52zM418 95q-52 52 -52 128t52 128t128.5 52t128 -51.5t51.5 -128t-51.5 -128.5t-128 -52t-128.5 52z" />
    <glyph glyph-name="oslash" unicode="&#xf8;" 
d="M108 -182l-143 126l1127 1292l143 -126zM571 -34q-101 0 -191 38t-159 105.5t-108.5 158t-39.5 195.5q0 126 38.5 238t112.5 199t178.5 136.5t236.5 49.5q142 0 251.5 -66.5t172.5 -179t63 -250.5q0 -129 -36.5 -242.5t-107.5 -199t-174 -134t-237 -48.5zM551 186
q86 0 146 39.5t97.5 103t54.5 136.5t17 140q0 134 -48 197.5t-160 63.5q-86 0 -148 -39.5t-101 -102.5t-57.5 -136t-18.5 -141q0 -134 54 -197.5t164 -63.5z" />
    <glyph glyph-name="ugrave" unicode="&#xf9;" 
d="M421 -34q-134 0 -217 88.5t-83 231.5q0 36 3 68t9 66l95 535l84 -128h-262l40 225h453l-105 -592q-8 -45 -11.5 -77.5t-3.5 -57.5q0 -51 23.5 -79t66.5 -28q73 0 127.5 98t88.5 289l79 447h306l-101 -568q-8 -48 -12 -79t-4 -55q0 -83 95 -83h42l-46 -262
q-57 -23 -118 -23q-99 0 -153.5 59t-54.5 166q0 30 5.5 62t18.5 78l49 -105l-80 11q-60 -149 -140.5 -218t-193.5 -69zM562 1258l-225 365l2 13h338l144 -364l-3 -14h-256z" />
    <glyph glyph-name="uacute" unicode="&#xfa;" 
d="M421 -34q-134 0 -217 88.5t-83 231.5q0 36 3 68t9 66l95 535l84 -128h-262l40 225h453l-105 -592q-8 -45 -11.5 -77.5t-3.5 -57.5q0 -51 23.5 -79t66.5 -28q73 0 127.5 98t88.5 289l79 447h306l-101 -568q-8 -48 -12 -79t-4 -55q0 -83 95 -83h42l-46 -262
q-57 -23 -118 -23q-99 0 -153.5 59t-54.5 166q0 30 5.5 62t18.5 78l49 -105l-80 11q-60 -149 -140.5 -218t-193.5 -69zM552 1258l2 14l272 364h358l-3 -13l-353 -365h-276z" />
    <glyph glyph-name="ucircumflex" unicode="&#xfb;" 
d="M421 -34q-134 0 -217 88.5t-83 231.5q0 36 3 68t9 66l95 535l84 -128h-262l40 225h453l-105 -592q-8 -45 -11.5 -77.5t-3.5 -57.5q0 -51 23.5 -79t66.5 -28q73 0 127.5 98t88.5 289l79 447h306l-101 -568q-8 -48 -12 -79t-4 -55q0 -83 95 -83h42l-46 -262
q-57 -23 -118 -23q-99 0 -153.5 59t-54.5 166q0 30 5.5 62t18.5 78l49 -105l-80 11q-60 -149 -140.5 -218t-193.5 -69zM248 1258l2 14l354 364h294l226 -364l-2 -14h-285l-121 295h65l-226 -295h-307z" />
    <glyph glyph-name="udieresis" unicode="&#xfc;" 
d="M421 -34q-134 0 -217 88.5t-83 231.5q0 36 3 68t9 66l95 535l84 -128h-262l40 225h453l-105 -592q-8 -45 -11.5 -77.5t-3.5 -57.5q0 -51 23.5 -79t66.5 -28q73 0 127.5 98t88.5 289l79 447h306l-101 -568q-8 -48 -12 -79t-4 -55q0 -83 95 -83h42l-46 -262
q-57 -23 -118 -23q-99 0 -153.5 59t-54.5 166q0 30 5.5 62t18.5 78l49 -105l-80 11q-60 -149 -140.5 -218t-193.5 -69zM441 1246q-80 0 -136 55t-56 134t56 134t136 55q81 0 136.5 -54.5t55.5 -134.5t-55 -134.5t-137 -54.5zM985 1246q-80 0 -136 55t-56 134t56 134t136 55
q81 0 136.5 -54.5t55.5 -134.5t-55 -134.5t-137 -54.5z" />
    <glyph glyph-name="yacute" unicode="&#xfd;" 
d="M184 -449q-172 0 -287 109l148 222q35 -33 68.5 -49t76.5 -16q48 0 79 24t62 79l153 276h78l135 381l230 475h332l-660 -1193q-89 -162 -184.5 -235t-230.5 -73zM419 -114l-240 1166h306l75 -475l24 -279h97zM584 1258l2 14l272 364h358l-3 -13l-353 -365h-276z" />
    <glyph glyph-name="thorn" unicode="&#xfe;" 
d="M-41 -436l334 1896h302l-111 -639l-46 89h76q59 89 135 132.5t171 43.5q137 0 212 -103t75 -291q0 -211 -59.5 -375t-163 -257.5t-237.5 -93.5q-190 0 -275 162h-69l70 76l-112 -640h-302zM547 233q75 0 132.5 50.5t90 138t32.5 199.5q0 199 -135 199q-92 0 -157 -92
t-97 -268l-25 -137q26 -43 68 -66.5t91 -23.5z" />
    <glyph glyph-name="ydieresis" unicode="&#xff;" 
d="M184 -449q-172 0 -287 109l148 222q35 -33 68.5 -49t76.5 -16q48 0 79 24t62 79l153 276h78l135 381l230 475h332l-660 -1193q-89 -162 -184.5 -235t-230.5 -73zM419 -114l-240 1166h306l75 -475l24 -279h97zM473 1246q-80 0 -136 55t-56 134t56 134t136 55
q81 0 136.5 -54.5t55.5 -134.5t-55 -134.5t-137 -54.5zM1017 1246q-80 0 -136 55t-56 134t56 134t136 55q81 0 136.5 -54.5t55.5 -134.5t-55 -134.5t-137 -54.5z" />
    <glyph glyph-name="Amacron" unicode="&#x100;" 
d="M-76 0l695 1432h282l191 -1432h-310l-67 885l-12 210h-7l-78 -210l-378 -885h-316zM177 276l118 241h592l39 -241h-749zM471 1695l44 246h646l-44 -246h-646z" />
    <glyph glyph-name="amacron" unicode="&#x101;" 
d="M407 -34q-166 0 -263 120t-97 323q0 194 63.5 347t172.5 241.5t247 88.5q101 0 161.5 -47.5t92.5 -134.5h80l-83 -93l45 260h281l-104 -587q-9 -50 -12.5 -80.5t-3.5 -53.5q0 -83 95 -83h42l-46 -262q-29 -11 -58.5 -17t-63.5 -6q-97 0 -150.5 59t-53.5 166
q0 29 5.5 60.5t18.5 79.5l49 -105l-80 11q-47 -139 -134 -213t-204 -74zM499 232q83 0 139 90.5t89 271.5l21 116q-24 56 -61.5 83t-93.5 27q-73 0 -130 -48.5t-90 -133t-33 -191.5q0 -104 41.5 -159.5t117.5 -55.5zM372 1315l44 246h646l-44 -246h-646z" />
    <glyph glyph-name="Abreve" unicode="&#x102;" 
d="M-76 0l695 1432h282l191 -1432h-310l-67 885l-12 210h-7l-78 -210l-378 -885h-316zM177 276l118 241h592l39 -241h-749zM802 1627q-111 0 -188.5 39.5t-117.5 108t-40 155.5q0 21 2.5 41t6.5 45h214q-4 -16 -5.5 -30t-1.5 -28q0 -60 36.5 -93.5t107.5 -33.5
q72 0 119.5 41t65.5 144h234q-26 -149 -89 -234t-151.5 -120t-192.5 -35z" />
    <glyph glyph-name="abreve" unicode="&#x103;" 
d="M407 -34q-166 0 -263 120t-97 323q0 194 63.5 347t172.5 241.5t247 88.5q101 0 161.5 -47.5t92.5 -134.5h80l-83 -93l45 260h281l-104 -587q-9 -50 -12.5 -80.5t-3.5 -53.5q0 -83 95 -83h42l-46 -262q-29 -11 -58.5 -17t-63.5 -6q-97 0 -150.5 59t-53.5 166
q0 29 5.5 60.5t18.5 79.5l49 -105l-80 11q-47 -139 -134 -213t-204 -74zM499 232q83 0 139 90.5t89 271.5l21 116q-24 56 -61.5 83t-93.5 27q-73 0 -130 -48.5t-90 -133t-33 -191.5q0 -104 41.5 -159.5t117.5 -55.5zM703 1247q-111 0 -188.5 39.5t-117.5 108t-40 155.5
q0 21 2.5 41t6.5 45h214q-4 -16 -5.5 -30t-1.5 -28q0 -60 36.5 -93.5t107.5 -33.5q72 0 119.5 41t65.5 144h234q-26 -149 -89 -234t-151.5 -120t-192.5 -35z" />
    <glyph glyph-name="Aogonek" unicode="&#x104;" 
d="M-76 0l695 1432h282l191 -1432h-310l-67 885l-12 210h-7l-78 -210l-378 -885h-316zM177 276l118 241h592l39 -241h-749zM856 -548q-115 0 -185.5 67t-70.5 176q0 132 111.5 236t336.5 181l43 -112q-130 -61 -188.5 -118t-58.5 -121q0 -40 25 -64.5t68 -24.5q50 0 93 20
l26 -187q-46 -26 -96.5 -39.5t-103.5 -13.5z" />
    <glyph glyph-name="aogonek" unicode="&#x105;" 
d="M407 -34q-166 0 -263 120t-97 323q0 194 63.5 347t172.5 241.5t247 88.5q101 0 161.5 -47.5t92.5 -134.5h80l-83 -93l45 260h281l-104 -587q-9 -50 -12.5 -80.5t-3.5 -53.5q0 -83 95 -83h42l-46 -262q-29 -11 -58.5 -17t-63.5 -6q-97 0 -150.5 59t-53.5 166
q0 29 5.5 60.5t18.5 79.5l49 -105l-80 11q-47 -139 -134 -213t-204 -74zM499 232q83 0 139 90.5t89 271.5l21 116q-24 56 -61.5 83t-93.5 27q-73 0 -130 -48.5t-90 -133t-33 -191.5q0 -104 41.5 -159.5t117.5 -55.5zM843 -543q-115 0 -185.5 67t-70.5 176q0 132 111.5 236
t336.5 181l43 -112q-130 -61 -188.5 -118t-58.5 -121q0 -40 25 -64.5t68 -24.5q50 0 93 20l26 -187q-46 -26 -96.5 -39.5t-103.5 -13.5z" />
    <glyph glyph-name="Cacute" unicode="&#x106;" 
d="M609 -34q-154 0 -267.5 73.5t-175 208.5t-61.5 318q0 199 47 364t134.5 285t208.5 185.5t269 65.5q194 0 310 -109.5t143 -309.5l-294 -49q-13 90 -55 134t-118 44q-96 0 -171 -78t-117.5 -214t-42.5 -310q0 -156 53 -237t155 -81q75 0 127.5 47.5t86.5 150.5l272 -109
q-143 -379 -504 -379zM668 1638l2 14l272 364h358l-3 -13l-353 -365h-276z" />
    <glyph glyph-name="cacute" unicode="&#x107;" 
d="M653 -34q-159 0 -279 65t-187 181.5t-67 268.5q0 179 72.5 315t202 213t298.5 77q191 0 310 -101.5t138 -280.5l-290 -32q-17 155 -164 155q-77 0 -138 -44.5t-96 -122t-35 -176.5q0 -111 66.5 -176.5t179.5 -65.5q69 0 126 27.5t118 91.5l170 -219q-93 -91 -195 -133.5
t-230 -42.5zM595 1258l2 14l272 364h358l-3 -13l-353 -365h-276z" />
    <glyph glyph-name="Cdotaccent" unicode="&#x10a;" 
d="M609 -34q-154 0 -267.5 73.5t-175 208.5t-61.5 318q0 199 47 364t134.5 285t208.5 185.5t269 65.5q194 0 310 -109.5t143 -309.5l-294 -49q-13 90 -55 134t-118 44q-96 0 -171 -78t-117.5 -214t-42.5 -310q0 -156 53 -237t155 -81q75 0 127.5 47.5t86.5 150.5l272 -109
q-143 -379 -504 -379zM845 1626q-84 0 -142 57.5t-58 141.5q0 83 57.5 141t142.5 58q86 0 143 -58t57 -141q0 -84 -57 -141.5t-143 -57.5z" />
    <glyph glyph-name="cdotaccent" unicode="&#x10b;" 
d="M653 -34q-159 0 -279 65t-187 181.5t-67 268.5q0 179 72.5 315t202 213t298.5 77q191 0 310 -101.5t138 -280.5l-290 -32q-17 155 -164 155q-77 0 -138 -44.5t-96 -122t-35 -176.5q0 -111 66.5 -176.5t179.5 -65.5q69 0 126 27.5t118 91.5l170 -219q-93 -91 -195 -133.5
t-230 -42.5zM793 1246q-84 0 -142 57.5t-58 141.5q0 83 57.5 141t142.5 58q86 0 143 -58t57 -141q0 -84 -57 -141.5t-143 -57.5z" />
    <glyph glyph-name="Ccaron" unicode="&#x10c;" 
d="M609 -34q-154 0 -267.5 73.5t-175 208.5t-61.5 318q0 199 47 364t134.5 285t208.5 185.5t269 65.5q194 0 310 -109.5t143 -309.5l-294 -49q-13 90 -55 134t-118 44q-96 0 -171 -78t-117.5 -214t-42.5 -310q0 -156 53 -237t155 -81q75 0 127.5 47.5t86.5 150.5l272 -109
q-143 -379 -504 -379zM654 1638l-226 364l2 14h286l118 -295h-57l221 295h306l-2 -14l-354 -364h-294z" />
    <glyph glyph-name="ccaron" unicode="&#x10d;" 
d="M653 -34q-159 0 -279 65t-187 181.5t-67 268.5q0 179 72.5 315t202 213t298.5 77q191 0 310 -101.5t138 -280.5l-290 -32q-17 155 -164 155q-77 0 -138 -44.5t-96 -122t-35 -176.5q0 -111 66.5 -176.5t179.5 -65.5q69 0 126 27.5t118 91.5l170 -219q-93 -91 -195 -133.5
t-230 -42.5zM581 1258l-226 364l2 14h286l118 -295h-57l221 295h306l-2 -14l-354 -364h-294z" />
    <glyph glyph-name="Dcaron" unicode="&#x10e;" 
d="M24 0l252 1432h333q261 0 401 -157.5t140 -448.5q0 -262 -79.5 -447t-228.5 -282t-358 -97h-460zM381 288h119q161 0 248.5 138.5t87.5 390.5q0 172 -53.5 249.5t-175.5 77.5h-76zM591 1638l-226 364l2 14h286l118 -295h-57l221 295h306l-2 -14l-354 -364h-294z" />
    <glyph glyph-name="dcaron" unicode="&#x10f;" 
d="M325 -34q-148 0 -237.5 116t-89.5 321q0 114 25.5 234t78.5 221.5t135 164.5t195 63q94 0 151.5 -48.5t86.5 -133.5h80l-84 -93l115 649h257l-180 -1017q-9 -50 -13 -80.5t-4 -53.5q0 -84 99 -84h46l-40 -222q-25 -10 -51.5 -15.5t-57.5 -5.5q-95 0 -147.5 59t-52.5 166
q0 29 5.5 60.5t18.5 79.5l49 -97l-82 3q-41 -132 -116.5 -209.5t-186.5 -77.5zM407 216q75 0 123 93.5t82 284.5l28 157q-22 43 -52.5 64t-75.5 21q-57 0 -99.5 -38t-71.5 -100t-43.5 -135.5t-14.5 -145.5q0 -97 32.5 -149t91.5 -52zM1159 901l-118 88q90 171 90 328
q0 29 -3 59.5t-11 62.5l236 48q8 -31 11 -62.5t3 -63.5q0 -116 -49.5 -225.5t-158.5 -234.5z" />
    <glyph glyph-name="Dcroat" unicode="&#x110;" 
d="M84 0l252 1432h313q264 0 406 -147t142 -419t-80 -466t-231 -297t-364 -103h-438zM44 599l48 272h690l-48 -272h-690zM401 278h137q179 0 277 152t98 427q0 157 -63 227t-204 70h-91z" />
    <glyph glyph-name="dcroat" unicode="&#x111;" 
d="M397 -34q-160 0 -257.5 116.5t-97.5 309.5q0 174 61.5 312t167 218t237.5 80q194 0 263 -174h93l-88 -39l127 721h276l-181 -1026q-9 -50 -12.5 -80.5t-3.5 -53.5q0 -83 95 -83h47l-46 -262q-59 -23 -118 -23q-99 0 -153.5 59t-54.5 166q0 29 5.5 60.5t18.5 79.5l49 -105
l-80 11q-49 -138 -139.5 -212.5t-208.5 -74.5zM492 228q87 0 146.5 85t89.5 251l21 116q-54 70 -156 70q-73 0 -129.5 -42t-89 -116.5t-32.5 -170.5q0 -91 39.5 -142t110.5 -51zM512 1129l36 205h788l-37 -205h-787z" />
    <glyph glyph-name="Emacron" unicode="&#x112;" 
d="M51 0l252 1432h890l-50 -286h-584l-152 -860h600l-50 -286h-906zM344 589l50 284h621l-50 -284h-621zM472 1695l44 246h646l-44 -246h-646z" />
    <glyph glyph-name="emacron" unicode="&#x113;" 
d="M605 -34q-153 0 -269 66t-181.5 180.5t-65.5 261.5q0 124 42 234.5t122.5 195.5t195.5 133.5t260 48.5q192 0 289 -90t97 -229q0 -128 -84 -205t-261.5 -110.5t-459.5 -33.5l-15 175q181 4 301.5 19t181 47t60.5 86q0 43 -31.5 66.5t-96.5 23.5q-96 0 -167.5 -49
t-111 -129.5t-39.5 -175.5q0 -117 63 -182t177 -65q74 0 135.5 28.5t122.5 92.5l165 -209q-89 -92 -192.5 -136t-237.5 -44zM432 1315l44 246h646l-44 -246h-646z" />
    <glyph glyph-name="Edotaccent" unicode="&#x116;" 
d="M51 0l252 1432h890l-50 -286h-584l-152 -860h600l-50 -286h-906zM344 589l50 284h621l-50 -284h-621zM818 1626q-84 0 -142 57.5t-58 141.5q0 83 57.5 141t142.5 58q86 0 143 -58t57 -141q0 -84 -57 -141.5t-143 -57.5z" />
    <glyph glyph-name="edotaccent" unicode="&#x117;" 
d="M605 -34q-153 0 -269 66t-181.5 180.5t-65.5 261.5q0 124 42 234.5t122.5 195.5t195.5 133.5t260 48.5q192 0 289 -90t97 -229q0 -128 -84 -205t-261.5 -110.5t-459.5 -33.5l-15 175q181 4 301.5 19t181 47t60.5 86q0 43 -31.5 66.5t-96.5 23.5q-96 0 -167.5 -49
t-111 -129.5t-39.5 -175.5q0 -117 63 -182t177 -65q74 0 135.5 28.5t122.5 92.5l165 -209q-89 -92 -192.5 -136t-237.5 -44zM778 1246q-84 0 -142 57.5t-58 141.5q0 83 57.5 141t142.5 58q86 0 143 -58t57 -141q0 -84 -57 -141.5t-143 -57.5z" />
    <glyph glyph-name="Eogonek" unicode="&#x118;" 
d="M51 0l252 1432h890l-50 -286h-584l-152 -860h600l-50 -286h-906zM344 589l50 284h621l-50 -284h-621zM722 -548q-115 0 -185.5 67t-70.5 176q0 132 111.5 236t336.5 181l43 -112q-130 -61 -188.5 -118t-58.5 -121q0 -40 25 -64.5t68 -24.5q50 0 93 20l26 -187
q-46 -26 -96.5 -39.5t-103.5 -13.5z" />
    <glyph glyph-name="eogonek" unicode="&#x119;" 
d="M605 -34q-153 0 -269 66t-181.5 180.5t-65.5 261.5q0 124 42 234.5t122.5 195.5t195.5 133.5t260 48.5q192 0 289 -90t97 -229q0 -128 -84 -205t-261.5 -110.5t-459.5 -33.5l-15 175q181 4 301.5 19t181 47t60.5 86q0 43 -31.5 66.5t-96.5 23.5q-96 0 -167.5 -49
t-111 -129.5t-39.5 -175.5q0 -117 63 -182t177 -65q74 0 135.5 28.5t122.5 92.5l165 -209q-89 -92 -192.5 -136t-237.5 -44zM621 -532q-115 0 -185.5 67t-70.5 176q0 132 111.5 236t336.5 181l43 -112q-130 -61 -188.5 -118t-58.5 -121q0 -40 25 -64.5t68 -24.5q50 0 93 20
l26 -187q-46 -26 -96.5 -39.5t-103.5 -13.5z" />
    <glyph glyph-name="Ecaron" unicode="&#x11a;" 
d="M51 0l252 1432h890l-50 -286h-584l-152 -860h600l-50 -286h-906zM344 589l50 284h621l-50 -284h-621zM638 1638l-226 364l2 14h286l118 -295h-57l221 295h306l-2 -14l-354 -364h-294z" />
    <glyph glyph-name="ecaron" unicode="&#x11b;" 
d="M605 -34q-153 0 -269 66t-181.5 180.5t-65.5 261.5q0 124 42 234.5t122.5 195.5t195.5 133.5t260 48.5q192 0 289 -90t97 -229q0 -128 -84 -205t-261.5 -110.5t-459.5 -33.5l-15 175q181 4 301.5 19t181 47t60.5 86q0 43 -31.5 66.5t-96.5 23.5q-96 0 -167.5 -49
t-111 -129.5t-39.5 -175.5q0 -117 63 -182t177 -65q74 0 135.5 28.5t122.5 92.5l165 -209q-89 -92 -192.5 -136t-237.5 -44zM598 1258l-226 364l2 14h286l118 -295h-57l221 295h306l-2 -14l-354 -364h-294z" />
    <glyph glyph-name="Gbreve" unicode="&#x11e;" 
d="M627 -34q-163 0 -283.5 72.5t-187 203.5t-66.5 307q0 277 83.5 483t235 320t354.5 114q191 0 309.5 -101t152.5 -295l-289 -49q-16 79 -63 118t-125 39q-107 0 -185.5 -75.5t-120.5 -214.5t-42 -331q0 -148 60.5 -227.5t172.5 -79.5q101 0 162.5 68.5t80.5 201.5l7 49
h-278l44 247h552l-45 -318q-36 -255 -173.5 -393.5t-355.5 -138.5zM848 1627q-111 0 -188.5 39.5t-117.5 108t-40 155.5q0 21 2.5 41t6.5 45h214q-4 -16 -5.5 -30t-1.5 -28q0 -60 36.5 -93.5t107.5 -33.5q72 0 119.5 41t65.5 144h234q-26 -149 -89 -234t-151.5 -120
t-192.5 -35z" />
    <glyph glyph-name="gbreve" unicode="&#x11f;" 
d="M482 -573q-165 0 -295 46.5t-205 130.5t-75 196q0 91 51 165t143 121.5t214 58.5l15 -116q-76 -31 -113.5 -82.5t-37.5 -114.5q0 -91 85 -140t228 -49q134 0 205.5 39.5t71.5 105.5q0 47 -31 75.5t-108 44.5l-488 98v42l247 312l155 -32l-67 -146l263 -52
q162 -32 230.5 -110t68.5 -194q0 -119 -71 -209t-196.5 -140t-289.5 -50zM618 274q-131 0 -235.5 50.5t-164.5 138.5t-60 198q0 107 56.5 204t164.5 159t263 62q127 0 228.5 -52t161.5 -140t60 -198q0 -109 -58 -205.5t-164.5 -156.5t-251.5 -60zM623 508q60 0 104.5 23
t68.5 64.5t24 94.5q0 73 -50 116t-134 43q-66 0 -112 -25t-70 -66.5t-24 -93.5q0 -72 52 -114t141 -42zM915 941l-98 60q59 155 175 216.5t282 61.5l-45 -249q-105 0 -177.5 -18t-136.5 -71zM743 1247q-111 0 -188.5 39.5t-117.5 108t-40 155.5q0 21 2.5 41t6.5 45h214
q-4 -16 -5.5 -30t-1.5 -28q0 -60 36.5 -93.5t107.5 -33.5q72 0 119.5 41t65.5 144h234q-26 -149 -89 -234t-151.5 -120t-192.5 -35z" />
    <glyph glyph-name="Gdotaccent" unicode="&#x120;" 
d="M627 -34q-163 0 -283.5 72.5t-187 203.5t-66.5 307q0 277 83.5 483t235 320t354.5 114q191 0 309.5 -101t152.5 -295l-289 -49q-16 79 -63 118t-125 39q-107 0 -185.5 -75.5t-120.5 -214.5t-42 -331q0 -148 60.5 -227.5t172.5 -79.5q101 0 162.5 68.5t80.5 201.5l7 49
h-278l44 247h552l-45 -318q-36 -255 -173.5 -393.5t-355.5 -138.5zM863 1626q-84 0 -142 57.5t-58 141.5q0 83 57.5 141t142.5 58q86 0 143 -58t57 -141q0 -84 -57 -141.5t-143 -57.5z" />
    <glyph glyph-name="gdotaccent" unicode="&#x121;" 
d="M482 -573q-165 0 -295 46.5t-205 130.5t-75 196q0 91 51 165t143 121.5t214 58.5l15 -116q-76 -31 -113.5 -82.5t-37.5 -114.5q0 -91 85 -140t228 -49q134 0 205.5 39.5t71.5 105.5q0 47 -31 75.5t-108 44.5l-488 98v42l247 312l155 -32l-67 -146l263 -52
q162 -32 230.5 -110t68.5 -194q0 -119 -71 -209t-196.5 -140t-289.5 -50zM618 274q-131 0 -235.5 50.5t-164.5 138.5t-60 198q0 107 56.5 204t164.5 159t263 62q127 0 228.5 -52t161.5 -140t60 -198q0 -109 -58 -205.5t-164.5 -156.5t-251.5 -60zM623 508q60 0 104.5 23
t68.5 64.5t24 94.5q0 73 -50 116t-134 43q-66 0 -112 -25t-70 -66.5t-24 -93.5q0 -72 52 -114t141 -42zM915 941l-98 60q59 155 175 216.5t282 61.5l-45 -249q-105 0 -177.5 -18t-136.5 -71zM758 1246q-84 0 -142 57.5t-58 141.5q0 83 57.5 141t142.5 58q86 0 143 -58
t57 -141q0 -84 -57 -141.5t-143 -57.5z" />
    <glyph glyph-name="uni0122" unicode="&#x122;" 
d="M627 -34q-163 0 -283.5 72.5t-187 203.5t-66.5 307q0 277 83.5 483t235 320t354.5 114q191 0 309.5 -101t152.5 -295l-289 -49q-16 79 -63 118t-125 39q-107 0 -185.5 -75.5t-120.5 -214.5t-42 -331q0 -148 60.5 -227.5t172.5 -79.5q101 0 162.5 68.5t80.5 201.5l7 49
h-278l44 247h552l-45 -318q-36 -255 -173.5 -393.5t-355.5 -138.5zM345 -875l-108 169q85 50 152.5 108.5t124.5 137.5l-6 -61q-83 6 -134.5 54t-51.5 123q0 83 55 136.5t140 53.5q90 0 145.5 -59t55.5 -154q0 -97 -47 -189t-131 -173t-195 -146z" />
    <glyph glyph-name="uni0123" unicode="&#x123;" 
d="M482 -573q-165 0 -295 46.5t-205 130.5t-75 196q0 91 51 165t143 121.5t214 58.5l15 -116q-76 -31 -113.5 -82.5t-37.5 -114.5q0 -91 85 -140t228 -49q134 0 205.5 39.5t71.5 105.5q0 47 -31 75.5t-108 44.5l-488 98v42l247 312l155 -32l-67 -146l263 -52
q162 -32 230.5 -110t68.5 -194q0 -119 -71 -209t-196.5 -140t-289.5 -50zM618 274q-131 0 -235.5 50.5t-164.5 138.5t-60 198q0 107 56.5 204t164.5 159t263 62q127 0 228.5 -52t161.5 -140t60 -198q0 -109 -58 -205.5t-164.5 -156.5t-251.5 -60zM623 508q60 0 104.5 23
t68.5 64.5t24 94.5q0 73 -50 116t-134 43q-66 0 -112 -25t-70 -66.5t-24 -93.5q0 -72 52 -114t141 -42zM915 941l-98 60q59 155 175 216.5t282 61.5l-45 -249q-105 0 -177.5 -18t-136.5 -71zM885 1979l108 -169q-85 -50 -152.5 -108.5t-124.5 -137.5l6 61q83 -6 134.5 -54
t51.5 -123q0 -83 -55 -136.5t-140 -53.5q-90 0 -145.5 59t-55.5 154q0 98 47 190t131 173t195 145z" />
    <glyph glyph-name="Hbar" unicode="&#x126;" 
d="M66 0l252 1432h290l-252 -1432h-290zM319 534l48 270h578l-48 -270h-578zM661 0l252 1432h290l-252 -1432h-290zM97 1007l43 240h1176l-43 -240h-1176z" />
    <glyph glyph-name="hbar" unicode="&#x127;" 
d="M914 -18q-117 0 -184 67.5t-67 185.5q0 40 6.5 80t19.5 95l27 111q11 42 16 74.5t5 59.5q0 48 -19.5 72t-61.5 24q-53 0 -94.5 -40t-71.5 -112t-47 -170l-75 -429h-303l265 1510h279l-133 -750l-37 47h54q141 196 329 196q102 0 159.5 -63.5t57.5 -176.5q0 -40 -6 -84.5
t-19 -98.5l-34 -145q-10 -40 -13.5 -59t-3.5 -33q0 -78 93 -78h40l-46 -259q-35 -12 -68 -18t-68 -6zM88 1138l36 205h786l-35 -205h-787z" />
    <glyph glyph-name="Itilde" unicode="&#x128;" 
d="M378 139l203 1154h310l-204 -1154h-309zM50 0l51 289h915l-51 -289h-915zM252 1144l50 288h915l-50 -288h-915zM983 1639q-59 0 -99 20.5t-89 70.5q-37 38 -58 53.5t-44 15.5q-26 0 -40 -18.5t-20 -54.5l-15 -84h-217l16 91q25 138 90.5 212t168.5 74q59 0 99 -20.5
t89 -70.5q38 -38 58.5 -53.5t43.5 -15.5q26 0 40 18.5t20 54.5l15 84h217l-16 -91q-25 -138 -90 -212t-169 -74z" />
    <glyph glyph-name="itilde" unicode="&#x129;" 
d="M786 -34q-176 0 -278.5 94.5t-102.5 257.5q0 33 4 74t14 96l82 467l71 -129h-387l39 226h594l-102 -576q-6 -34 -9 -59.5t-3 -45.5q0 -58 32 -90t91 -32q66 0 132 47l117 -237q-129 -93 -294 -93zM876 1259q-59 0 -99 20.5t-89 70.5q-37 38 -58 53.5t-44 15.5
q-26 0 -40 -18.5t-20 -54.5l-15 -84h-217l16 91q25 138 90.5 212t168.5 74q59 0 99 -20.5t89 -70.5q38 -38 58.5 -53.5t43.5 -15.5q26 0 40 18.5t20 54.5l15 84h217l-16 -91q-25 -138 -90 -212t-169 -74z" />
    <glyph glyph-name="Imacron" unicode="&#x12a;" 
d="M378 139l203 1154h310l-204 -1154h-309zM50 0l51 289h915l-51 -289h-915zM252 1144l50 288h915l-50 -288h-915zM483 1695l44 246h646l-44 -246h-646z" />
    <glyph glyph-name="imacron" unicode="&#x12b;" 
d="M786 -34q-176 0 -278.5 94.5t-102.5 257.5q0 33 4 74t14 96l82 467l71 -129h-387l39 226h594l-102 -576q-6 -34 -9 -59.5t-3 -45.5q0 -58 32 -90t91 -32q66 0 132 47l117 -237q-129 -93 -294 -93zM376 1315l44 246h646l-44 -246h-646z" />
    <glyph glyph-name="Iogonek" unicode="&#x12e;" 
d="M378 139l203 1154h310l-204 -1154h-309zM50 0l51 289h915l-51 -289h-915zM252 1144l50 288h915l-50 -288h-915zM446 -548q-115 0 -185.5 67t-70.5 176q0 132 111.5 236t336.5 181l43 -112q-130 -61 -188.5 -118t-58.5 -121q0 -40 25 -64.5t68 -24.5q50 0 93 20l26 -187
q-46 -26 -96.5 -39.5t-103.5 -13.5z" />
    <glyph glyph-name="iogonek" unicode="&#x12f;" 
d="M786 -34q-176 0 -278.5 94.5t-102.5 257.5q0 33 4 74t14 96l82 467l71 -129h-387l39 226h594l-102 -576q-6 -34 -9 -59.5t-3 -45.5q0 -58 32 -90t91 -32q66 0 132 47l117 -237q-129 -93 -294 -93zM727 1246q-82 0 -140 56.5t-58 137.5q0 83 57 138t141 55q86 0 141 -54.5
t55 -138.5q0 -82 -56 -138t-140 -56zM736 -548q-115 0 -185.5 67t-70.5 176q0 132 111.5 236t336.5 181l43 -112q-130 -61 -188.5 -118t-58.5 -121q0 -40 25 -64.5t68 -24.5q50 0 93 20l26 -187q-46 -26 -96.5 -39.5t-103.5 -13.5z" />
    <glyph glyph-name="Idotaccent" unicode="&#x130;" 
d="M378 139l203 1154h310l-204 -1154h-309zM50 0l51 289h915l-51 -289h-915zM252 1144l50 288h915l-50 -288h-915zM829 1626q-84 0 -142 57.5t-58 141.5q0 83 57.5 141t142.5 58q86 0 143 -58t57 -141q0 -84 -57 -141.5t-143 -57.5z" />
    <glyph glyph-name="dotlessi" unicode="&#x131;" 
d="M786 -34q-176 0 -278.5 94.5t-102.5 257.5q0 33 4 74t14 96l82 467l71 -129h-387l39 226h594l-102 -576q-6 -34 -9 -59.5t-3 -45.5q0 -58 32 -90t91 -32q66 0 132 47l117 -237q-129 -93 -294 -93z" />
    <glyph glyph-name="IJ" unicode="&#x132;" 
d="M572 -34q-201 0 -333 110.5t-158 299.5l316 62q23 -174 181 -174q80 0 128 51t66 154l169 963h310l-175 -994q-41 -234 -168 -353t-336 -119zM123 615l144 817h310l-144 -817h-310z" />
    <glyph glyph-name="ij" unicode="&#x133;" 
d="M516 -459q-145 0 -269.5 61t-207.5 172l206 170q115 -153 275 -153q95 0 155 59.5t80 174.5l43 248l53 -103h-82q-102 -168 -294 -168q-85 0 -151.5 37.5t-104 102.5t-37.5 149q0 48 14 130l111 631h302l-106 -601q-4 -21 -5.5 -37.5t-1.5 -30.5q0 -59 37 -93t101 -34
q78 0 129 53.5t69 153.5l104 589h302l-183 -1041q-40 -224 -180 -347t-359 -123zM85 828l40 224h438l-39 -224h-439zM496 1246q-82 0 -140 56.5t-58 137.5q0 83 57 138t141 55q86 0 141 -54.5t55 -138.5q0 -82 -56.5 -138t-139.5 -56zM722 828l40 224h394l-39 -224h-395z
M1128 1246q-82 0 -140 56.5t-58 137.5q0 83 56.5 138t141.5 55q86 0 141 -54.5t55 -138.5q0 -82 -56.5 -138t-139.5 -56z" />
    <glyph glyph-name="uni0136" unicode="&#x136;" 
d="M949 -29q-70 0 -122.5 25.5t-97 88.5t-92.5 173l-207 484l1 8l525 682h361l-603 -770l21 118l194 -424q25 -53 60 -77t96 -24h34l-46 -261q-28 -11 -59 -17t-65 -6zM1 0l252 1432h307l-252 -1432h-307zM354 -875l-108 169q85 50 152.5 108.5t124.5 137.5l-6 -61
q-83 6 -134.5 54t-51.5 123q0 83 55 136.5t140 53.5q90 0 145.5 -59t55.5 -154q0 -97 -47 -189t-131 -173t-195 -146z" />
    <glyph glyph-name="uni0137" unicode="&#x137;" 
d="M723 0l-316 563l1 8l451 481h368l-552 -560l20 114l354 -606h-326zM19 0l258 1460h301l-258 -1460h-301zM327 -861l-108 169q85 50 152.5 108.5t124.5 137.5l-6 -61q-83 6 -134.5 54t-51.5 123q0 83 55 136.5t140 53.5q90 0 145.5 -59t55.5 -154q0 -97 -47 -189
t-131 -173t-195 -146z" />
    <glyph glyph-name="kgreenlandic" unicode="&#x138;" 
d="M723 0l-316 563l1 8l451 481h368l-552 -560l20 114l354 -606h-326zM19 0l186 1052h301l-186 -1052h-301z" />
    <glyph glyph-name="Lacute" unicode="&#x139;" 
d="M70 0l252 1432h308l-201 -1142h637l-51 -290h-945zM379 1638l2 14l272 364h358l-3 -13l-353 -365h-276z" />
    <glyph glyph-name="lacute" unicode="&#x13a;" 
d="M737 -34q-181 0 -290.5 95.5t-109.5 249.5q0 36 5 78.5t15 101.5l152 860l110 -125h-424l42 234h594l-176 -999q-6 -34 -9 -57.5t-3 -41.5q0 -59 37.5 -92.5t101.5 -33.5q40 0 75 13.5t76 44.5l117 -236q-77 -47 -151.5 -69.5t-161.5 -22.5zM582 1666l2 14l272 364h358
l-3 -13l-353 -365h-276z" />
    <glyph glyph-name="uni013B" unicode="&#x13b;" 
d="M70 0l252 1432h308l-201 -1142h637l-51 -290h-945zM373 -875l-108 169q85 50 152.5 108.5t124.5 137.5l-6 -61q-83 6 -134.5 54t-51.5 123q0 83 55 136.5t140 53.5q90 0 145.5 -59t55.5 -154q0 -97 -47 -189t-131 -173t-195 -146z" />
    <glyph glyph-name="uni013C" unicode="&#x13c;" 
d="M737 -34q-181 0 -290.5 95.5t-109.5 249.5q0 36 5 78.5t15 101.5l152 860l110 -125h-424l42 234h594l-176 -999q-6 -34 -9 -57.5t-3 -41.5q0 -59 37.5 -92.5t101.5 -33.5q40 0 75 13.5t76 44.5l117 -236q-77 -47 -151.5 -69.5t-161.5 -22.5zM375 -909l-108 169
q85 50 152.5 108.5t124.5 137.5l-6 -61q-83 6 -134.5 54t-51.5 123q0 83 55 136.5t140 53.5q90 0 145.5 -59t55.5 -154q0 -97 -47 -189t-131 -173t-195 -146z" />
    <glyph glyph-name="Lcaron" unicode="&#x13d;" 
d="M903 830l-161 110q111 171 111 334q0 62 -18 132l300 54q10 -35 14 -71t4 -71q0 -124 -59.5 -240t-190.5 -248zM70 0l252 1432h308l-201 -1142h637l-51 -290h-945z" />
    <glyph glyph-name="lcaron" unicode="&#x13e;" 
d="M705 -34q-119 0 -208.5 47.5t-138.5 132t-49 195.5q0 30 4 65.5t12 82.5l153 866l110 -128h-400l42 234h569l-176 -1002q-6 -34 -8.5 -56t-2.5 -41q0 -58 35 -92t94 -34q45 0 81.5 13.5t79.5 43.5l117 -235q-78 -47 -151.5 -69.5t-162.5 -22.5zM970 874l-133 111
q56 84 80.5 162t24.5 158q0 61 -16 134l275 48q15 -67 15 -139q0 -119 -58.5 -232.5t-187.5 -241.5z" />
    <glyph glyph-name="Ldot" unicode="&#x13f;" 
d="M70 0l252 1432h308l-201 -1142h637l-51 -290h-945zM961 625q-87 0 -146.5 59.5t-59.5 145.5q0 85 60 144.5t146 59.5q87 0 146.5 -59t59.5 -145q0 -87 -59 -146t-147 -59z" />
    <glyph glyph-name="ldot" unicode="&#x140;" 
d="M737 -34q-181 0 -290.5 95.5t-109.5 249.5q0 36 5 78.5t15 101.5l152 860l110 -125h-424l42 234h594l-176 -999q-6 -34 -9 -57.5t-3 -41.5q0 -59 37.5 -92.5t101.5 -33.5q40 0 75 13.5t76 44.5l117 -236q-77 -47 -151.5 -69.5t-161.5 -22.5zM1162 561q-87 0 -146.5 59.5
t-59.5 145.5q0 85 60 144.5t146 59.5q87 0 146.5 -59t59.5 -145q0 -87 -59 -146t-147 -59z" />
    <glyph glyph-name="Lslash" unicode="&#x141;" 
d="M173 0l252 1432h284l-201 -1142h576l-51 -290h-860zM-30 338l55 310l316 172l63 1l674 367l-56 -310l-684 -368l-52 3z" />
    <glyph glyph-name="lslash" unicode="&#x142;" 
d="M78 415l50 283l442 216l59 -2l494 241l-51 -288l-496 -240l-58 4zM737 -34q-181 0 -290.5 95.5t-109.5 249.5q0 36 5 78.5t15 101.5l152 860l110 -125h-424l42 234h594l-176 -999q-6 -34 -9 -57.5t-3 -41.5q0 -59 37.5 -92.5t101.5 -33.5q40 0 75 13.5t76 44.5l117 -236
q-77 -47 -151.5 -69.5t-161.5 -22.5z" />
    <glyph glyph-name="Nacute" unicode="&#x143;" 
d="M-21 0l252 1432h290l319 -900h8l42 329l101 571h298l-252 -1432h-266l-335 944h-8l-43 -329l-108 -615h-298zM626 1638l2 14l272 364h358l-3 -13l-353 -365h-276z" />
    <glyph glyph-name="nacute" unicode="&#x144;" 
d="M928 -18q-121 0 -190 68t-69 186q0 39 6.5 78.5t19.5 95.5l47 194q11 45 17 79t6 62q0 44 -21.5 66.5t-64.5 22.5q-57 0 -106.5 -42.5t-86 -119t-54.5 -178.5l-87 -494h-306l186 1052h291l-37 -209l-37 47h54q145 196 348 196q115 0 177.5 -63.5t62.5 -171.5
q0 -42 -7.5 -87.5t-20.5 -100.5l-55 -232q-10 -41 -13.5 -59.5t-3.5 -31.5q0 -75 91 -75h43l-46 -259q-72 -24 -144 -24zM582 1258l2 14l272 364h358l-3 -13l-353 -365h-276z" />
    <glyph glyph-name="uni0145" unicode="&#x145;" 
d="M-21 0l252 1432h290l319 -900h8l42 329l101 571h298l-252 -1432h-266l-335 944h-8l-43 -329l-108 -615h-298zM352 -875l-108 169q85 50 152.5 108.5t124.5 137.5l-6 -61q-83 6 -134.5 54t-51.5 123q0 83 55 136.5t140 53.5q90 0 145.5 -59t55.5 -154q0 -97 -47 -189
t-131 -173t-195 -146z" />
    <glyph glyph-name="uni0146" unicode="&#x146;" 
d="M928 -18q-121 0 -190 68t-69 186q0 39 6.5 78.5t19.5 95.5l47 194q11 45 17 79t6 62q0 44 -21.5 66.5t-64.5 22.5q-57 0 -106.5 -42.5t-86 -119t-54.5 -178.5l-87 -494h-306l186 1052h291l-37 -209l-37 47h54q145 196 348 196q115 0 177.5 -63.5t62.5 -171.5
q0 -42 -7.5 -87.5t-20.5 -100.5l-55 -232q-10 -41 -13.5 -59.5t-3.5 -31.5q0 -75 91 -75h43l-46 -259q-72 -24 -144 -24zM388 -861l-108 169q85 50 152.5 108.5t124.5 137.5l-6 -61q-83 6 -134.5 54t-51.5 123q0 83 55 136.5t140 53.5q90 0 145.5 -59t55.5 -154
q0 -97 -47 -189t-131 -173t-195 -146z" />
    <glyph glyph-name="Ncaron" unicode="&#x147;" 
d="M-21 0l252 1432h290l319 -900h8l42 329l101 571h298l-252 -1432h-266l-335 944h-8l-43 -329l-108 -615h-298zM612 1638l-226 364l2 14h286l118 -295h-57l221 295h306l-2 -14l-354 -364h-294z" />
    <glyph glyph-name="ncaron" unicode="&#x148;" 
d="M928 -18q-121 0 -190 68t-69 186q0 39 6.5 78.5t19.5 95.5l47 194q11 45 17 79t6 62q0 44 -21.5 66.5t-64.5 22.5q-57 0 -106.5 -42.5t-86 -119t-54.5 -178.5l-87 -494h-306l186 1052h291l-37 -209l-37 47h54q145 196 348 196q115 0 177.5 -63.5t62.5 -171.5
q0 -42 -7.5 -87.5t-20.5 -100.5l-55 -232q-10 -41 -13.5 -59.5t-3.5 -31.5q0 -75 91 -75h43l-46 -259q-72 -24 -144 -24zM568 1258l-226 364l2 14h286l118 -295h-57l221 295h306l-2 -14l-354 -364h-294z" />
    <glyph glyph-name="napostrophe" unicode="&#x149;" 
d="M1007 -18q-96 0 -153 60t-57 161q0 35 7 78.5t23 111.5l51 213q12 50 17.5 87.5t5.5 64.5q0 88 -73 88q-78 0 -130.5 -88t-84.5 -264l-88 -494h-283l185 1052h269l-36 -209l-39 44h54q130 199 313 199q98 0 147.5 -59t49.5 -170q0 -40 -7 -86.5t-21 -105.5l-61 -254
q-10 -44 -13.5 -65t-3.5 -37q0 -68 67 -68h20l-40 -235q-60 -24 -119 -24zM56 882l256 578h320l-335 -578h-241z" />
    <glyph glyph-name="Eng" unicode="&#x14a;" 
d="M555 -465q-115 0 -212 37t-165 106l205 227q76 -80 165 -80q74 0 121.5 47t63.5 135l154 872q7 37 10 65t3 52q0 87 -41 133.5t-118 46.5q-68 0 -123 -31.5t-91.5 -90t-51.5 -139.5l-162 -915h-308l253 1432h292l-31 -179h9q71 99 171.5 156t209.5 57q150 0 234 -88
t84 -244q0 -40 -4 -81.5t-12 -85.5l-177 -999q-36 -204 -162 -318.5t-317 -114.5z" />
    <glyph glyph-name="eng" unicode="&#x14b;" 
d="M497 -449q-97 0 -180 36t-140 102l196 186q47 -58 112 -58q50 0 82 37.5t48 117.5l132 632q10 47 14 79.5t4 59.5q0 44 -22 67.5t-64 23.5q-57 0 -106.5 -42t-86 -118.5t-54.5 -179.5l-87 -494h-306l186 1052h291l-37 -209l-37 47h54q145 196 350 196q112 0 175.5 -63.5
t63.5 -174.5q0 -40 -5.5 -82t-18.5 -103l-151 -719q-40 -192 -145.5 -292.5t-267.5 -100.5z" />
    <glyph glyph-name="Omacron" unicode="&#x14c;" 
d="M544 -34q-144 0 -249.5 64.5t-163 186t-57.5 291.5q0 123 22 256.5t70 258t125.5 225t188 159.5t258.5 59q215 0 334 -145t119 -402q0 -125 -21 -258t-68 -257t-122 -223t-183 -157t-253 -58zM570 256q70 0 121.5 42.5t87 113.5t57 157t31.5 174t10 164q0 130 -41 199.5
t-125 69.5q-71 0 -124.5 -43.5t-91.5 -115.5t-61.5 -159t-34.5 -175t-11 -163q0 -133 46.5 -198.5t135.5 -65.5zM473 1695l44 246h646l-44 -246h-646z" />
    <glyph glyph-name="omacron" unicode="&#x14d;" 
d="M555 -34q-138 0 -246 59t-170 168.5t-62 261.5q0 128 39.5 241.5t115 201.5t182 138t241.5 50q144 0 248.5 -60t161 -169.5t56.5 -258.5q0 -131 -37.5 -245.5t-110 -201.5t-177.5 -136t-241 -49zM567 232q69 0 117.5 34.5t78.5 89.5t44 119t14 122q0 104 -44.5 163.5
t-134.5 59.5q-70 0 -120.5 -34.5t-82.5 -89.5t-47 -118.5t-15 -122.5q0 -103 50 -163t140 -60zM376 1315l44 246h646l-44 -246h-646z" />
    <glyph glyph-name="Ohungarumlaut" unicode="&#x150;" 
d="M544 -34q-144 0 -249.5 64.5t-163 186t-57.5 291.5q0 123 22 256.5t70 258t125.5 225t188 159.5t258.5 59q215 0 334 -145t119 -402q0 -125 -21 -258t-68 -257t-122 -223t-183 -157t-253 -58zM570 256q70 0 121.5 42.5t87 113.5t57 157t31.5 174t10 164q0 130 -41 199.5
t-125 69.5q-71 0 -124.5 -43.5t-91.5 -115.5t-61.5 -159t-34.5 -175t-11 -163q0 -133 46.5 -198.5t135.5 -65.5zM873 1638l2 14l224 364h324l-2 -13l-306 -365h-242zM425 1638l2 14l224 364h324l-2 -13l-306 -365h-242z" />
    <glyph glyph-name="ohungarumlaut" unicode="&#x151;" 
d="M555 -34q-138 0 -246 59t-170 168.5t-62 261.5q0 128 39.5 241.5t115 201.5t182 138t241.5 50q144 0 248.5 -60t161 -169.5t56.5 -258.5q0 -131 -37.5 -245.5t-110 -201.5t-177.5 -136t-241 -49zM567 232q69 0 117.5 34.5t78.5 89.5t44 119t14 122q0 104 -44.5 163.5
t-134.5 59.5q-70 0 -120.5 -34.5t-82.5 -89.5t-47 -118.5t-15 -122.5q0 -103 50 -163t140 -60zM776 1258l2 14l224 364h324l-2 -13l-306 -365h-242zM328 1258l2 14l224 364h324l-2 -13l-306 -365h-242z" />
    <glyph glyph-name="OE" unicode="&#x152;" 
d="M332 -34q-130 0 -208.5 124t-78.5 361q0 104 16.5 237.5t51.5 269.5t91.5 251.5t137 186t187.5 70.5q110 0 166 -82t71 -228h15l57 276h488l-49 -277h-316l-154 -878h332l-49 -277h-504l30 210h-15q-48 -123 -117 -183.5t-152 -60.5zM429 253q41 0 74 39.5t58.5 104.5
t44 144.5t30 160.5t17 152t5.5 119q0 110 -21 158.5t-68 48.5q-42 0 -76.5 -39.5t-61 -104.5t-45.5 -144.5t-31 -160.5t-18 -152t-6 -119q0 -109 23.5 -158t74.5 -49zM755 594l48 273h378l-49 -273h-377z" />
    <glyph glyph-name="oe" unicode="&#x153;" 
d="M275 -34q-125 0 -197.5 96t-72.5 266q0 74 12.5 172t41.5 200.5t78 190t121.5 141.5t172.5 54q118 0 181.5 -83t68.5 -223h-101q50 146 145.5 226t216.5 80q133 0 205.5 -81t72.5 -205q0 -195 -144.5 -291t-427.5 -103l-15 160q182 19 262.5 68t80.5 133q0 41 -19.5 66
t-63.5 25q-48 0 -82.5 -28.5t-57.5 -75t-36.5 -100.5t-19.5 -106t-6 -92q0 -116 42.5 -174t128.5 -58q38 0 72 13.5t68 41.5l113 -223q-53 -46 -115 -68t-134 -22q-95 0 -165.5 41.5t-112.5 118.5t-53 181h73q-54 -169 -136.5 -255t-196.5 -86zM333 205q44 0 76 41.5
t54.5 105.5t36 134.5t19.5 130.5t6 91q0 139 -79 139q-43 0 -75 -41t-54.5 -105t-37 -134.5t-21 -130.5t-6.5 -92q0 -139 81 -139z" />
    <glyph glyph-name="Racute" unicode="&#x154;" 
d="M21 0l252 1432h397q163 0 271 -52.5t161.5 -144t53.5 -208.5q0 -159 -63.5 -275.5t-180.5 -179.5t-278 -63h-347l46 260h308q54 0 93.5 16t65 45t37.5 69.5t12 88.5q0 75 -47 120.5t-151 45.5h-125l-203 -1154h-302zM949 -29q-67 0 -121 26t-98.5 89.5t-84.5 175.5
l-127 362h294l125 -269q26 -55 59 -77.5t88 -22.5h35l-46 -261q-28 -11 -59.5 -17t-64.5 -6zM559 1638l2 14l272 364h358l-3 -13l-353 -365h-276z" />
    <glyph glyph-name="racute" unicode="&#x155;" 
d="M155 0l168 956l91 -129h-316l39 225h459l-53 -299l-60 38h81q150 295 408 295q126 0 220 -60l-103 -269q-52 32 -98.5 45.5t-106.5 13.5q-144 0 -237.5 -118.5t-137.5 -366.5l-58 -331h-296zM842 571l75 426l275 29l-80 -455h-270zM594 1258l2 14l272 364h358l-3 -13
l-353 -365h-276z" />
    <glyph glyph-name="Rcaron" unicode="&#x158;" 
d="M21 0l252 1432h397q163 0 271 -52.5t161.5 -144t53.5 -208.5q0 -159 -63.5 -275.5t-180.5 -179.5t-278 -63h-347l46 260h308q54 0 93.5 16t65 45t37.5 69.5t12 88.5q0 75 -47 120.5t-151 45.5h-125l-203 -1154h-302zM949 -29q-67 0 -121 26t-98.5 89.5t-84.5 175.5
l-127 362h294l125 -269q26 -55 59 -77.5t88 -22.5h35l-46 -261q-28 -11 -59.5 -17t-64.5 -6zM545 1638l-226 364l2 14h286l118 -295h-57l221 295h306l-2 -14l-354 -364h-294z" />
    <glyph glyph-name="rcaron" unicode="&#x159;" 
d="M155 0l168 956l91 -129h-316l39 225h459l-53 -299l-60 38h81q150 295 408 295q126 0 220 -60l-103 -269q-52 32 -98.5 45.5t-106.5 13.5q-144 0 -237.5 -118.5t-137.5 -366.5l-58 -331h-296zM842 571l75 426l275 29l-80 -455h-270zM580 1258l-226 364l2 14h286l118 -295
h-57l221 295h306l-2 -14l-354 -364h-294z" />
    <glyph glyph-name="Sacute" unicode="&#x15a;" 
d="M605 -34q-229 0 -380.5 122t-188.5 338l293 53q17 -112 89 -173t186 -61q92 0 143 40.5t51 113.5q0 62 -35.5 102.5t-120.5 78.5l-184 84q-115 53 -177.5 145t-62.5 219q0 130 63.5 228.5t178 154t266.5 55.5q209 0 337.5 -98.5t164.5 -284.5l-292 -54q-32 158 -220 158
q-90 0 -141 -39t-51 -105q0 -47 27.5 -79.5t88.5 -61.5l180 -83q149 -68 216.5 -165.5t67.5 -241.5q0 -133 -62.5 -233.5t-174.5 -156.5t-262 -56zM656 1638l2 14l272 364h358l-3 -13l-353 -365h-276z" />
    <glyph glyph-name="sacute" unicode="&#x15b;" 
d="M587 -34q-137 0 -269 52.5t-235 146.5l155 198q169 -157 354 -157q68 0 104 23.5t36 67.5q0 64 -93 95l-149 49q-133 44 -204 124t-71 195q0 99 50 172t141 113.5t212 40.5q126 0 230.5 -38.5t206.5 -119.5l-155 -199q-74 62 -144 91.5t-143 29.5q-56 0 -89 -22t-33 -60
q0 -31 21 -51.5t69 -36.5l149 -49q145 -48 212.5 -124.5t67.5 -195.5q0 -103 -53.5 -180.5t-148.5 -121t-221 -43.5zM569 1258l2 14l272 364h358l-3 -13l-353 -365h-276z" />
    <glyph glyph-name="Scedilla" unicode="&#x15e;" 
d="M605 -34q-229 0 -380.5 122t-188.5 338l293 53q17 -112 89 -173t186 -61q92 0 143 40.5t51 113.5q0 62 -35.5 102.5t-120.5 78.5l-184 84q-115 53 -177.5 145t-62.5 219q0 130 63.5 228.5t178 154t266.5 55.5q209 0 337.5 -98.5t164.5 -284.5l-292 -54q-32 158 -220 158
q-90 0 -141 -39t-51 -105q0 -47 27.5 -79.5t88.5 -61.5l180 -83q149 -68 216.5 -165.5t67.5 -241.5q0 -133 -62.5 -233.5t-174.5 -156.5t-262 -56zM507 -658q-121 0 -209 61.5t-127 152.5l186 86q47 -112 150 -112q52 0 84 30t32 80q0 41 -24.5 64.5t-71.5 23.5
q-46 0 -93 -30l-95 103l171 218h157l-210 -260l-68 59q43 35 92.5 52.5t100.5 17.5q101 0 171 -62t70 -184q0 -85 -39 -153t-110 -107.5t-167 -39.5z" />
    <glyph glyph-name="scedilla" unicode="&#x15f;" 
d="M587 -34q-137 0 -269 52.5t-235 146.5l155 198q169 -157 354 -157q68 0 104 23.5t36 67.5q0 64 -93 95l-149 49q-133 44 -204 124t-71 195q0 99 50 172t141 113.5t212 40.5q126 0 230.5 -38.5t206.5 -119.5l-155 -199q-74 62 -144 91.5t-143 29.5q-56 0 -89 -22t-33 -60
q0 -31 21 -51.5t69 -36.5l149 -49q145 -48 212.5 -124.5t67.5 -195.5q0 -103 -53.5 -180.5t-148.5 -121t-221 -43.5zM486 -658q-121 0 -209 61.5t-127 152.5l186 86q47 -112 150 -112q52 0 84 30t32 80q0 41 -24.5 64.5t-71.5 23.5q-46 0 -93 -30l-95 103l171 218h157
l-210 -260l-68 59q43 35 92.5 52.5t100.5 17.5q101 0 171 -62t70 -184q0 -85 -39 -153t-110 -107.5t-167 -39.5z" />
    <glyph glyph-name="Scaron" unicode="&#x160;" 
d="M605 -34q-229 0 -380.5 122t-188.5 338l293 53q17 -112 89 -173t186 -61q92 0 143 40.5t51 113.5q0 62 -35.5 102.5t-120.5 78.5l-184 84q-115 53 -177.5 145t-62.5 219q0 130 63.5 228.5t178 154t266.5 55.5q209 0 337.5 -98.5t164.5 -284.5l-292 -54q-32 158 -220 158
q-90 0 -141 -39t-51 -105q0 -47 27.5 -79.5t88.5 -61.5l180 -83q149 -68 216.5 -165.5t67.5 -241.5q0 -133 -62.5 -233.5t-174.5 -156.5t-262 -56zM642 1638l-226 364l2 14h286l118 -295h-57l221 295h306l-2 -14l-354 -364h-294z" />
    <glyph glyph-name="scaron" unicode="&#x161;" 
d="M587 -34q-137 0 -269 52.5t-235 146.5l155 198q169 -157 354 -157q68 0 104 23.5t36 67.5q0 64 -93 95l-149 49q-133 44 -204 124t-71 195q0 99 50 172t141 113.5t212 40.5q126 0 230.5 -38.5t206.5 -119.5l-155 -199q-74 62 -144 91.5t-143 29.5q-56 0 -89 -22t-33 -60
q0 -31 21 -51.5t69 -36.5l149 -49q145 -48 212.5 -124.5t67.5 -195.5q0 -103 -53.5 -180.5t-148.5 -121t-221 -43.5zM555 1258l-226 364l2 14h286l118 -295h-57l221 295h306l-2 -14l-354 -364h-294z" />
    <glyph glyph-name="uni0162" unicode="&#x162;" 
d="M353 0l226 1283h310l-226 -1283h-310zM187 1142l51 290h1044l-51 -290h-1044zM445 -658q-121 0 -209 61.5t-127 152.5l186 86q47 -112 150 -112q52 0 84 30t32 80q0 41 -24.5 64.5t-71.5 23.5q-46 0 -93 -30l-95 103l171 218h157l-210 -260l-68 59q43 35 92.5 52.5
t100.5 17.5q101 0 171 -62t70 -184q0 -85 -39 -153t-110 -107.5t-167 -39.5z" />
    <glyph glyph-name="uni0163" unicode="&#x163;" 
d="M730 -34q-185 0 -295 102t-110 274q0 36 3 71.5t10 73.5l148 839h302l-149 -842q-7 -38 -10 -64t-3 -47q0 -63 39 -99.5t106 -36.5q43 0 81 13.5t79 42.5l103 -242q-76 -44 -148.5 -64.5t-155.5 -20.5zM149 824l40 228h961l-40 -228h-961zM545 -658q-121 0 -209 61.5
t-127 152.5l186 86q47 -112 150 -112q52 0 84 30t32 80q0 41 -24.5 64.5t-71.5 23.5q-46 0 -93 -30l-95 103l171 218h157l-210 -260l-68 59q43 35 92.5 52.5t100.5 17.5q101 0 171 -62t70 -184q0 -85 -39 -153t-110 -107.5t-167 -39.5z" />
    <glyph glyph-name="Tcaron" unicode="&#x164;" 
d="M353 0l226 1283h310l-226 -1283h-310zM187 1142l51 290h1044l-51 -290h-1044zM649 1638l-226 364l2 14h286l118 -295h-57l221 295h306l-2 -14l-354 -364h-294z" />
    <glyph glyph-name="tcaron" unicode="&#x165;" 
d="M681 -34q-185 0 -295 102t-110 274q0 36 3 71.5t10 73.5l148 839h302l-149 -842q-7 -38 -10 -64t-3 -47q0 -63 39 -99.5t106 -36.5q43 0 81 13.5t79 42.5l103 -242q-76 -44 -148.5 -64.5t-155.5 -20.5zM93 784l40 228h961l-40 -228h-961zM959 1086l-133 111
q68 119 68 235q0 57 -16 125l275 48q16 -67 16 -130q0 -103 -50 -194.5t-160 -194.5z" />
    <glyph glyph-name="Utilde" unicode="&#x168;" 
d="M565 -34q-140 0 -247 54.5t-167 151t-60 223.5q0 36 4 73t12 83l155 881h308l-162 -921q-4 -28 -6.5 -50t-2.5 -41q0 -76 46 -120t124 -44q85 0 139 56t73 162l169 958h308l-179 -1010q-38 -217 -172.5 -336.5t-341.5 -119.5zM968 1641q-59 0 -99 20.5t-89 70.5
q-37 38 -58 53.5t-44 15.5q-26 0 -40 -18.5t-20 -54.5l-15 -84h-217l16 91q25 138 90.5 212t168.5 74q59 0 99 -20.5t89 -70.5q38 -38 58.5 -53.5t43.5 -15.5q26 0 40 18.5t20 54.5l15 84h217l-16 -91q-25 -138 -90 -212t-169 -74z" />
    <glyph glyph-name="utilde" unicode="&#x169;" 
d="M421 -34q-134 0 -217 88.5t-83 231.5q0 36 3 68t9 66l95 535l84 -128h-262l40 225h453l-105 -592q-8 -45 -11.5 -77.5t-3.5 -57.5q0 -51 23.5 -79t66.5 -28q73 0 127.5 98t88.5 289l79 447h306l-101 -568q-8 -48 -12 -79t-4 -55q0 -83 95 -83h42l-46 -262
q-57 -23 -118 -23q-99 0 -153.5 59t-54.5 166q0 30 5.5 62t18.5 78l49 -105l-80 11q-60 -149 -140.5 -218t-193.5 -69zM872 1259q-59 0 -99 20.5t-89 70.5q-37 38 -58 53.5t-44 15.5q-26 0 -40 -18.5t-20 -54.5l-15 -84h-217l16 91q25 138 90.5 212t168.5 74q59 0 99 -20.5
t89 -70.5q38 -38 58.5 -53.5t43.5 -15.5q26 0 40 18.5t20 54.5l15 84h217l-16 -91q-25 -138 -90 -212t-169 -74z" />
    <glyph glyph-name="Umacron" unicode="&#x16a;" 
d="M565 -34q-140 0 -247 54.5t-167 151t-60 223.5q0 36 4 73t12 83l155 881h308l-162 -921q-4 -28 -6.5 -50t-2.5 -41q0 -76 46 -120t124 -44q85 0 139 56t73 162l169 958h308l-179 -1010q-38 -217 -172.5 -336.5t-341.5 -119.5zM468 1697l44 246h646l-44 -246h-646z" />
    <glyph glyph-name="umacron" unicode="&#x16b;" 
d="M421 -34q-134 0 -217 88.5t-83 231.5q0 36 3 68t9 66l95 535l84 -128h-262l40 225h453l-105 -592q-8 -45 -11.5 -77.5t-3.5 -57.5q0 -51 23.5 -79t66.5 -28q73 0 127.5 98t88.5 289l79 447h306l-101 -568q-8 -48 -12 -79t-4 -55q0 -83 95 -83h42l-46 -262
q-57 -23 -118 -23q-99 0 -153.5 59t-54.5 166q0 30 5.5 62t18.5 78l49 -105l-80 11q-60 -149 -140.5 -218t-193.5 -69zM372 1315l44 246h646l-44 -246h-646z" />
    <glyph glyph-name="Uring" unicode="&#x16e;" 
d="M565 -34q-140 0 -247 54.5t-167 151t-60 223.5q0 36 4 73t12 83l155 881h308l-162 -921q-4 -28 -6.5 -50t-2.5 -41q0 -76 46 -120t124 -44q85 0 139 56t73 162l169 958h308l-179 -1010q-38 -217 -172.5 -336.5t-341.5 -119.5zM658.5 1573.5q-70.5 40.5 -112.5 108.5
t-42 152q0 85 42 153t112.5 108.5t157.5 40.5t157.5 -40.5t112.5 -108.5t42 -153q0 -84 -42 -152t-112.5 -108.5t-157.5 -40.5t-157.5 40.5zM903.5 1747.5q34.5 34.5 34.5 87t-34.5 87t-87 34.5t-87.5 -34.5t-35 -87t35 -87t87.5 -34.5t87 34.5z" />
    <glyph glyph-name="uring" unicode="&#x16f;" 
d="M421 -34q-134 0 -217 88.5t-83 231.5q0 36 3 68t9 66l95 535l84 -128h-262l40 225h453l-105 -592q-8 -45 -11.5 -77.5t-3.5 -57.5q0 -51 23.5 -79t66.5 -28q73 0 127.5 98t88.5 289l79 447h306l-101 -568q-8 -48 -12 -79t-4 -55q0 -83 95 -83h42l-46 -262
q-57 -23 -118 -23q-99 0 -153.5 59t-54.5 166q0 30 5.5 62t18.5 78l49 -105l-80 11q-60 -149 -140.5 -218t-193.5 -69zM562.5 1191.5q-70.5 40.5 -112.5 108.5t-42 152q0 85 42 153t112.5 108.5t157.5 40.5t157.5 -40.5t112.5 -108.5t42 -153q0 -84 -42 -152t-112.5 -108.5
t-157.5 -40.5t-157.5 40.5zM807.5 1365.5q34.5 34.5 34.5 87t-34.5 87t-87 34.5t-87.5 -34.5t-35 -87t35 -87t87.5 -34.5t87 34.5z" />
    <glyph glyph-name="Uhungarumlaut" unicode="&#x170;" 
d="M565 -34q-140 0 -247 54.5t-167 151t-60 223.5q0 36 4 73t12 83l155 881h308l-162 -921q-4 -28 -6.5 -50t-2.5 -41q0 -76 46 -120t124 -44q85 0 139 56t73 162l169 958h308l-179 -1010q-38 -217 -172.5 -336.5t-341.5 -119.5zM868 1640l2 14l224 364h324l-2 -13
l-306 -365h-242zM420 1640l2 14l224 364h324l-2 -13l-306 -365h-242z" />
    <glyph glyph-name="uhungarumlaut" unicode="&#x171;" 
d="M421 -34q-134 0 -217 88.5t-83 231.5q0 36 3 68t9 66l95 535l84 -128h-262l40 225h453l-105 -592q-8 -45 -11.5 -77.5t-3.5 -57.5q0 -51 23.5 -79t66.5 -28q73 0 127.5 98t88.5 289l79 447h306l-101 -568q-8 -48 -12 -79t-4 -55q0 -83 95 -83h42l-46 -262
q-57 -23 -118 -23q-99 0 -153.5 59t-54.5 166q0 30 5.5 62t18.5 78l49 -105l-80 11q-60 -149 -140.5 -218t-193.5 -69zM772 1258l2 14l224 364h324l-2 -13l-306 -365h-242zM324 1258l2 14l224 364h324l-2 -13l-306 -365h-242z" />
    <glyph glyph-name="Uogonek" unicode="&#x172;" 
d="M565 -34q-140 0 -247 54.5t-167 151t-60 223.5q0 36 4 73t12 83l155 881h308l-162 -921q-4 -28 -6.5 -50t-2.5 -41q0 -76 46 -120t124 -44q85 0 139 56t73 162l169 958h308l-179 -1010q-38 -217 -172.5 -336.5t-341.5 -119.5zM545 -542q-115 0 -185.5 67t-70.5 176
q0 132 111.5 236t336.5 181l43 -112q-130 -61 -188.5 -118t-58.5 -121q0 -40 25 -64.5t68 -24.5q50 0 93 20l26 -187q-46 -26 -96.5 -39.5t-103.5 -13.5z" />
    <glyph glyph-name="uogonek" unicode="&#x173;" 
d="M421 -34q-134 0 -217 88.5t-83 231.5q0 36 3 68t9 66l95 535l84 -128h-262l40 225h453l-105 -592q-8 -45 -11.5 -77.5t-3.5 -57.5q0 -51 23.5 -79t66.5 -28q73 0 127.5 98t88.5 289l79 447h306l-101 -568q-8 -48 -12 -79t-4 -55q0 -83 95 -83h42l-46 -262
q-57 -23 -118 -23q-99 0 -153.5 59t-54.5 166q0 30 5.5 62t18.5 78l49 -105l-80 11q-60 -149 -140.5 -218t-193.5 -69zM853 -543q-115 0 -185.5 67t-70.5 176q0 132 111.5 236t336.5 181l43 -112q-130 -61 -188.5 -118t-58.5 -121q0 -40 25 -64.5t68 -24.5q50 0 93 20
l26 -187q-46 -26 -96.5 -39.5t-103.5 -13.5z" />
    <glyph glyph-name="Wcircumflex" unicode="&#x174;" 
d="M113 0l69 1432h276l-98 -977h6l101 279l150 416h172l17 -416l-10 -279h6l236 977h300l-435 -1432h-255l-11 520l12 248h-6l-90 -248l-198 -520h-242zM347 1638l2 14l354 364h294l226 -364l-2 -14h-285l-121 295h65l-226 -295h-307z" />
    <glyph glyph-name="wcircumflex" unicode="&#x175;" 
d="M132 0l-36 1052h255l-13 -598l-5 -117h7l37 118l169 477h245l3 -476l-6 -119h7l36 119l198 596h261l-405 -1052h-266l-4 505l6 117h-7l-37 -117l-179 -505h-266zM289 1258l2 14l354 364h294l226 -364l-2 -14h-285l-121 295h65l-226 -295h-307z" />
    <glyph glyph-name="Ycircumflex" unicode="&#x176;" 
d="M462 438l-277 994h312l88 -356l46 -273h9l140 273l209 356h346l-626 -994h-247zM354 0l119 676h308l-119 -676h-308zM323 1638l2 14l354 364h294l226 -364l-2 -14h-285l-121 295h65l-226 -295h-307z" />
    <glyph glyph-name="ycircumflex" unicode="&#x177;" 
d="M184 -449q-172 0 -287 109l148 222q35 -33 68.5 -49t76.5 -16q48 0 79 24t62 79l153 276h78l135 381l230 475h332l-660 -1193q-89 -162 -184.5 -235t-230.5 -73zM419 -114l-240 1166h306l75 -475l24 -279h97zM280 1258l2 14l354 364h294l226 -364l-2 -14h-285l-121 295
h65l-226 -295h-307z" />
    <glyph glyph-name="Ydieresis" unicode="&#x178;" 
d="M462 438l-277 994h312l88 -356l46 -273h9l140 273l209 356h346l-626 -994h-247zM354 0l119 676h308l-119 -676h-308zM516 1626q-80 0 -136 55t-56 134t56 134t136 55q81 0 136.5 -54.5t55.5 -134.5t-55 -134.5t-137 -54.5zM1060 1626q-80 0 -136 55t-56 134t56 134
t136 55q81 0 136.5 -54.5t55.5 -134.5t-55 -134.5t-137 -54.5z" />
    <glyph glyph-name="Zacute" unicode="&#x179;" 
d="M12 0l45 258l752 887h-572l50 287h954l-45 -258l-752 -887h610l-51 -287h-991zM638 1638l2 14l272 364h358l-3 -13l-353 -365h-276z" />
    <glyph glyph-name="zacute" unicode="&#x17a;" 
d="M60 0l42 238l619 566h-498l44 248h863l-42 -238l-619 -566h529l-44 -248h-894zM592 1258l2 14l272 364h358l-3 -13l-353 -365h-276z" />
    <glyph glyph-name="Zdotaccent" unicode="&#x17b;" 
d="M12 0l45 258l752 887h-572l50 287h954l-45 -258l-752 -887h610l-51 -287h-991zM804 1626q-84 0 -142 57.5t-58 141.5q0 83 57.5 141t142.5 58q86 0 143 -58t57 -141q0 -84 -57 -141.5t-143 -57.5z" />
    <glyph glyph-name="zdotaccent" unicode="&#x17c;" 
d="M60 0l42 238l619 566h-498l44 248h863l-42 -238l-619 -566h529l-44 -248h-894zM758 1246q-84 0 -142 57.5t-58 141.5q0 83 57.5 141t142.5 58q86 0 143 -58t57 -141q0 -84 -57 -141.5t-143 -57.5z" />
    <glyph glyph-name="Zcaron" unicode="&#x17d;" 
d="M12 0l45 258l752 887h-572l50 287h954l-45 -258l-752 -887h610l-51 -287h-991zM624 1638l-226 364l2 14h286l118 -295h-57l221 295h306l-2 -14l-354 -364h-294z" />
    <glyph glyph-name="zcaron" unicode="&#x17e;" 
d="M60 0l42 238l619 566h-498l44 248h863l-42 -238l-619 -566h529l-44 -248h-894zM578 1258l-226 364l2 14h286l118 -295h-57l221 295h306l-2 -14l-354 -364h-294z" />
    <glyph glyph-name="longs" unicode="&#x17f;" 
d="M128 -467q-149 0 -266 63l118 268q35 -20 68 -30.5t71 -10.5q72 0 111.5 45t55.5 146l166 1048q32 205 158.5 318.5t325.5 113.5q118 0 207 -37.5t167 -109.5l-186 -230q-45 43 -90 65t-100 22q-82 0 -130 -48.5t-64 -146.5l-166 -1048q-34 -211 -148.5 -319.5
t-297.5 -108.5zM146 824l40 228h489l-39 -228h-490z" />
    <glyph glyph-name="uni0181" unicode="&#x181;" 
d="M329 0l252 1432h296q201 0 302 -89t101 -241q0 -145 -75.5 -236t-197.5 -130l-2 -9q101 -36 149.5 -113.5t48.5 -185.5q0 -128 -59.5 -224.5t-169 -150t-260.5 -53.5h-385zM94 831q-27 90 -27 175q0 128 53 224t154 149t244 53h220l-39 -221h-201q-79 0 -120.5 -50
t-41.5 -144q0 -37 4 -72t12 -73zM624 234h95q95 0 150.5 58t55.5 164q0 160 -166 160h-152l39 222h164q97 0 149.5 57.5t52.5 162.5q0 66 -35 103.5t-106 37.5h-77z" />
    <glyph glyph-name="uni018A" unicode="&#x18a;" 
d="M338 0l252 1432h200q209 0 322.5 -130t113.5 -361q0 -114 -16 -243t-55 -252.5t-106.5 -224.5t-169.5 -161t-246 -60h-295zM125 821q-29 92 -29 177q0 194 116.5 314t331.5 120h175l-39 -220h-156q-77 0 -117.5 -52.5t-40.5 -151.5q0 -73 19 -149zM629 258h53
q60 0 106.5 43.5t80.5 116.5t56 162t32.5 180.5t10.5 171.5q0 132 -34 187t-114 55h-30z" />
    <glyph glyph-name="uni018F" unicode="&#x18f;" 
d="M554 -34q-143 0 -252.5 62.5t-170.5 174t-61 257.5q0 85 19 172t56 167h880l-40 -246h-667l74 84q-19 -42 -28.5 -83.5t-9.5 -82.5q0 -103 57.5 -162t157.5 -59q95 0 158 47.5t101 125t57.5 167.5t25.5 177t6 152q0 132 -50.5 195t-154.5 63q-86 0 -161 -40t-140 -120
l-219 182q108 131 246.5 199t301.5 68q231 0 350.5 -138.5t119.5 -407.5q0 -99 -19.5 -225t-64.5 -253.5t-120.5 -235.5t-187 -174t-264.5 -66z" />
    <glyph glyph-name="uni0198" unicode="&#x198;" 
d="M929 -30q-115 0 -181 68t-132 222l-206 482l1 8l279 431q65 100 128 163t132.5 92.5t151.5 29.5q84 0 143.5 -27t114.5 -85l-172 -221q-21 22 -41.5 31.5t-49.5 9.5q-33 0 -61.5 -13t-57 -43t-62.5 -81l-236 -356l30 114l200 -441q25 -55 59.5 -77t93.5 -22h37l-46 -262
q-58 -23 -125 -23zM-19 0l252 1432h307l-252 -1432h-307z" />
    <glyph glyph-name="uni0199" unicode="&#x199;" 
d="M19 0l191 1081q40 224 168 343t330 119q96 0 172.5 -24.5t143.5 -77.5l-148 -224q-37 28 -71.5 39t-81.5 11q-179 0 -215 -203l-188 -1064h-301zM723 0l-316 563l1 8l451 481h368l-549 -556l14 114l357 -610h-326z" />
    <glyph glyph-name="Ohorn" unicode="&#x1a0;" 
d="M544 -34q-144 0 -249.5 64.5t-163 186t-57.5 291.5q0 123 22.5 256.5t70.5 258t125 225t185.5 159.5t252.5 59q138 0 240.5 -72t159 -199.5t56.5 -295.5q0 -123 -21 -253.5t-67.5 -251.5t-121 -217.5t-182 -153.5t-250.5 -57zM570 256q70 0 121.5 42.5t87 113.5t57 157
t31.5 174t10 164q0 129 -40.5 199t-124.5 70q-71 0 -124.5 -43.5t-91.5 -115.5t-62 -159t-35 -175.5t-11 -162.5q0 -132 46.5 -198t135.5 -66zM967 1153l-35 120q89 31 133 78.5t44 120.5q0 53 -24 100.5t-77 97.5l243 187q138 -138 138 -313q0 -153 -112 -254.5
t-310 -136.5z" />
    <glyph glyph-name="ohorn" unicode="&#x1a1;" 
d="M535 -34q-135 0 -241 59t-166.5 168.5t-60.5 261.5q0 128 39 241.5t112.5 201.5t179 138t238.5 50q141 0 243.5 -63t158 -173t55.5 -252q0 -131 -37 -245.5t-108.5 -201.5t-175 -136t-237.5 -49zM548 232q67 0 113.5 34.5t75.5 89.5t42.5 119t13.5 122q0 104 -42.5 164
t-127.5 60q-68 0 -116.5 -34.5t-79.5 -89.5t-45.5 -119t-14.5 -123q0 -103 48 -163t133 -60zM914 754l-56 120q193 48 193 194q0 93 -106 187l217 196q157 -135 157 -310q0 -143 -102.5 -241t-302.5 -146z" />
    <glyph glyph-name="Uhorn" unicode="&#x1af;" 
d="M481 -34q-127 0 -224 52t-152 144t-55 212q0 37 3.5 75t11.5 84l159 899h293l-165 -939q-5 -28 -6.5 -45.5t-1.5 -34.5q0 -73 42.5 -116.5t114.5 -43.5q78 0 127 51t67 152l172 976h99q79 0 122 32t43 90q0 32 -14.5 66t-47.5 74l246 163q96 -115 96 -253
q0 -97 -48.5 -167t-131.5 -107t-189 -37q-15 0 -29.5 2t-30.5 5l172 113l-178 -1010q-37 -212 -166 -324.5t-329 -112.5z" />
    <glyph glyph-name="uhorn" unicode="&#x1b0;" 
d="M421 -34q-134 0 -217 88.5t-83 232.5q0 35 3 67t9 66l95 535l84 -128h-262l40 225h453l-105 -592q-7 -42 -11 -74t-4 -60q0 -53 24 -80.5t67 -27.5q72 0 126.5 98.5t88.5 288.5l79 447h79q74 0 116.5 29t42.5 81q0 59 -57 124l246 150q46 -52 67 -106.5t21 -113.5
q0 -88 -46.5 -153t-125.5 -100.5t-176 -35.5q-39 0 -76 8l207 74l-93 -525q-9 -51 -12.5 -81t-3.5 -53q0 -83 95 -83h42l-46 -262q-59 -23 -118 -23q-99 0 -153.5 59t-54.5 166q0 29 5.5 60t18.5 80l49 -105l-80 11q-61 -150 -141 -218.5t-193 -68.5z" />
    <glyph glyph-name="uni01B3" unicode="&#x1b3;" 
d="M399 419l-229 1013h318l58 -358l30 -274h8l100 218l73 144q82 161 169.5 232.5t220.5 71.5q71 0 128 -20.5t113 -66.5l-140 -232q-19 16 -36.5 23t-40.5 7q-46 0 -85 -32.5t-83 -109.5l-357 -616h-247zM295 0l113 642h308l-113 -642h-308z" />
    <glyph glyph-name="uni01B4" unicode="&#x1b4;" 
d="M121 -449q-166 0 -270 96l147 222q56 -52 125 -52q46 0 78.5 23t57.5 72l157 309h77l122 380l169 382q86 196 187 287t236 91q71 0 121.5 -21.5t98.5 -62.5l-130 -210q-30 28 -71 28q-50 0 -87.5 -38t-84.5 -132l-524 -1065q-82 -166 -178.5 -237.5t-230.5 -71.5z
M334 -58l-179 1110h293l43 -451l12 -303h126z" />
    <glyph glyph-name="uni01C4" unicode="&#x1c4;" 
d="M-77 0l252 1432h202q158 0 244.5 -88t86.5 -288q0 -62 -7 -163.5t-25 -220.5t-52.5 -237.5t-89 -217t-133.5 -158t-188 -59.5h-290zM190 242h39q41 0 75 46t62 121.5t49 166t35 180.5t21 165.5t7 118.5q0 83 -22.5 117t-69.5 34h-28zM537 0l28 157l471 1032h-268l43 243
h535l-28 -156l-471 -1033h299l-43 -243h-566zM986 1638l-178 365v13h228l110 -294h-53l211 294h247v-13l-307 -365h-258z" />
    <glyph glyph-name="uni01C5" unicode="&#x1c5;" 
d="M-71 0l252 1432h201q165 0 255 -90.5t90 -293.5q0 -62 -6.5 -162.5t-25 -219t-53.5 -236t-91 -215t-138.5 -156.5t-196.5 -59h-287zM196 242h43q44 0 80 45.5t65 120.5t50 164.5t35 178.5t21 163.5t7 117.5q0 87 -26 123t-79 36h-28zM592 0l32 181l365 646h-230l40 225
h485l-32 -180l-366 -646h259l-40 -226h-513zM950 1258l-147 365l3 13h221l81 -279h-48l180 279h241l-3 -13l-276 -365h-252z" />
    <glyph glyph-name="uni01C6" unicode="&#x1c6;" 
d="M199 -34q-103 0 -159.5 91t-56.5 236q0 82 12.5 186.5t38.5 210.5t67.5 196t99 145t132.5 55q56 0 88 -30.5t50 -88.5h80l-79 -66l99 559h235l-164 -927q-15 -88 -24.5 -151.5t-13.5 -115.5t-4 -106v-160h-169v34q0 48 9.5 104.5t30.5 144.5l52 -48l-78 15
q-45 -142 -102.5 -213t-143.5 -71zM287 201q41 0 68.5 66.5t53.5 218.5l55 315q-8 26 -21 38.5t-35 12.5q-38 0 -68 -39t-52 -102t-36 -135.5t-21 -141t-7 -117.5q0 -56 15.5 -86t47.5 -30zM657 0v172l348 655h-243l40 225h493l-30 -171l-348 -655h243l-40 -226h-463z
M976 1258l-147 365l2 13h221l82 -279h-48l179 279h241l-3 -13l-275 -365h-252z" />
    <glyph glyph-name="uni01C7" unicode="&#x1c7;" 
d="M776 -34q-82 0 -155.5 24t-129.5 68l147 233q52 -46 116 -46q95 0 115 112l189 1075h292l-194 -1105q-30 -170 -130.5 -265.5t-249.5 -95.5zM-82 0l252 1432h292l-204 -1158h236l-48 -274h-528z" />
    <glyph glyph-name="uni01C8" unicode="&#x1c8;" 
d="M622 -449q-101 0 -189.5 37.5t-161.5 110.5l165 188q81 -78 178 -78q139 0 167 162l190 1081h281l-193 -1094q-35 -200 -145.5 -303.5t-291.5 -103.5zM-39 0l253 1432h284l-204 -1156h359l-49 -276h-643zM616 828l39 224h457l-40 -224h-456zM1138 1246q-83 0 -140.5 56.5
t-57.5 137.5q0 83 56.5 138t141.5 55q86 0 141 -54.5t55 -138.5q0 -82 -56.5 -138t-139.5 -56z" />
    <glyph glyph-name="uni01C9" unicode="&#x1c9;" 
d="M532 0q-150 0 -240.5 89.5t-90.5 233.5q0 39 6 85t18 114l146 828l68 -114h-301l39 224h473l-176 -998q-5 -31 -8.5 -57t-3.5 -47q0 -49 28.5 -78.5t74.5 -29.5q54 0 110 47l116 -199q-121 -98 -259 -98zM684 -449q-105 0 -186.5 35t-154.5 108l157 172q77 -80 167 -80
q68 0 107 40t54 127l194 1099h260l-200 -1134q-31 -177 -135 -272t-263 -95zM717 828l39 224h444l-39 -224h-444zM1168 1246q-83 0 -140.5 56.5t-57.5 137.5q0 83 56.5 138t141.5 55q86 0 141 -54.5t55 -138.5q0 -82 -56.5 -138t-139.5 -56z" />
    <glyph glyph-name="uni01CA" unicode="&#x1ca;" 
d="M-82 0l252 1432h292l40 -1060h19l67 690l65 370h210l-253 -1432h-265l-43 1138h-18l-75 -676l-81 -462h-210zM837 -34q-105 0 -190 55l90 201q37 -27 82 -27q76 0 92 89l202 1148h238l-209 -1182q-24 -136 -103.5 -210t-201.5 -74z" />
    <glyph glyph-name="uni01CB" unicode="&#x1cb;" 
d="M-83 0l253 1432h269l95 -1011h17l59 631l67 380h214l-253 -1432h-240l-100 1138h-16l-65 -657l-86 -481h-214zM691 -449q-196 0 -327 143l156 164q67 -71 151 -71q112 0 135 134l199 1131h260l-205 -1160q-28 -157 -122.5 -249t-246.5 -92zM1190 1247q-76 0 -123.5 48
t-47.5 125q0 89 56 151t138 62q77 0 124 -47.5t47 -125.5q0 -90 -56 -151.5t-138 -61.5z" />
    <glyph glyph-name="uni01CC" unicode="&#x1cc;" 
d="M647 -449q-101 0 -187.5 34.5t-151.5 99.5l142 178q41 -40 85 -60t96 -20q145 0 174 166l194 1103h261l-200 -1141q-29 -167 -136 -263.5t-277 -96.5zM620 -18q-94 0 -148.5 55.5t-54.5 152.5q0 41 7.5 85.5t25.5 114.5l56 218q17 65 24 106t7 69q0 73 -57 73
q-60 0 -107 -78t-73 -227l-97 -551h-262l186 1052h237l-34 -195l-28 64h50q56 80 123.5 122.5t149.5 42.5q98 0 142 -60t44 -155q0 -40 -7.5 -89t-24.5 -115l-73 -288q-18 -72 -18 -106q0 -64 64 -64h30l-36 -204q-64 -23 -126 -23zM1186 1247q-76 0 -124 48t-48 125
q0 89 56 151t138 62q77 0 124 -47.5t47 -125.5q0 -90 -56 -151.5t-137 -61.5z" />
    <glyph glyph-name="uni01EA" unicode="&#x1ea;" 
d="M544 -34q-144 0 -249.5 64.5t-163 186t-57.5 291.5q0 123 22 256.5t70 258t125.5 225t188 159.5t258.5 59q215 0 334 -145t119 -402q0 -125 -21 -258t-68 -257t-122 -223t-183 -157t-253 -58zM570 256q70 0 121.5 42.5t87 113.5t57 157t31.5 174t10 164q0 130 -41 199.5
t-125 69.5q-71 0 -124.5 -43.5t-91.5 -115.5t-61.5 -159t-34.5 -175t-11 -163q0 -133 46.5 -198.5t135.5 -65.5zM572 -517q-115 0 -185.5 67t-70.5 176q0 132 111.5 236t336.5 181l43 -112q-130 -61 -188.5 -118t-58.5 -121q0 -40 25 -64.5t68 -24.5q50 0 93 20l26 -187
q-46 -26 -96.5 -39.5t-103.5 -13.5z" />
    <glyph glyph-name="uni01EB" unicode="&#x1eb;" 
d="M555 -34q-138 0 -246 59t-170 168.5t-62 261.5q0 128 39.5 241.5t115 201.5t182 138t241.5 50q144 0 248.5 -60t161 -169.5t56.5 -258.5q0 -131 -37.5 -245.5t-110 -201.5t-177.5 -136t-241 -49zM567 232q69 0 117.5 34.5t78.5 89.5t44 119t14 122q0 104 -44.5 163.5
t-134.5 59.5q-70 0 -120.5 -34.5t-82.5 -89.5t-47 -118.5t-15 -122.5q0 -103 50 -163t140 -60zM576 -525q-115 0 -185.5 67t-70.5 176q0 132 111.5 236t336.5 181l43 -112q-130 -61 -188.5 -118t-58.5 -121q0 -40 25 -64.5t68 -24.5q50 0 93 20l26 -187q-46 -26 -96.5 -39.5
t-103.5 -13.5z" />
    <glyph glyph-name="uni01F8" unicode="&#x1f8;" 
d="M-21 0l252 1432h290l319 -900h8l42 329l101 571h298l-252 -1432h-266l-335 944h-8l-43 -329l-108 -615h-298zM636 1638l-225 365l2 13h338l144 -364l-3 -14h-256z" />
    <glyph glyph-name="uni01F9" unicode="&#x1f9;" 
d="M928 -18q-121 0 -190 68t-69 186q0 39 6.5 78.5t19.5 95.5l47 194q11 45 17 79t6 62q0 44 -21.5 66.5t-64.5 22.5q-57 0 -106.5 -42.5t-86 -119t-54.5 -178.5l-87 -494h-306l186 1052h291l-37 -209l-37 47h54q145 196 348 196q115 0 177.5 -63.5t62.5 -171.5
q0 -42 -7.5 -87.5t-20.5 -100.5l-55 -232q-10 -41 -13.5 -59.5t-3.5 -31.5q0 -75 91 -75h43l-46 -259q-72 -24 -144 -24zM592 1258l-225 365l2 13h338l144 -364l-3 -14h-256z" />
    <glyph glyph-name="AEacute" unicode="&#x1fc;" 
d="M-89 0l603 1432h362l-60 -264h-158l-97 -293l-346 -875h-304zM152 284l114 236h421l-42 -236h-493zM521 0l252 1432h565l-49 -277h-319l-155 -878h336l-49 -277h-581zM763 594l48 273h381l-48 -273h-381zM799 1638l2 14l272 364h358l-3 -13l-353 -365h-276z" />
    <glyph glyph-name="aeacute" unicode="&#x1fd;" 
d="M288 -34q-135 0 -221.5 89.5t-86.5 238.5q0 107 44 192t125 134.5t192 49.5q50 0 92.5 -11t79.5 -32l-27 -162q-22 16 -45 23t-54 7q-50 0 -84.5 -25t-52.5 -68t-18 -99q0 -55 24 -86t64 -31q45 0 75 42.5t45 128.5l54 305q4 22 7 44t3 38q0 100 -118 100
q-46 0 -91.5 -14t-95.5 -44l-78 220q135 80 280 80q134 0 211 -79.5t82 -225.5h-132q53 146 153 225.5t228 79.5q132 0 204.5 -81t72.5 -206q0 -193 -144.5 -289.5t-427.5 -103.5l-15 160q179 18 261 67.5t82 133.5q0 41 -19.5 66t-63.5 25q-47 0 -81.5 -28.5t-58 -75
t-37 -100.5t-19.5 -106t-6 -92q0 -116 42.5 -174t128.5 -58q38 0 71.5 13t68.5 42l113 -223q-52 -46 -113 -68t-132 -22q-103 0 -178.5 46.5t-117.5 132t-47 202.5l110 4q-34 -180 -121.5 -282.5t-227.5 -102.5zM615 1258l2 14l272 364h358l-3 -13l-353 -365h-276z" />
    <glyph glyph-name="uni0218" unicode="&#x218;" 
d="M605 -34q-229 0 -380.5 122t-188.5 338l293 53q17 -112 89 -173t186 -61q92 0 143 40.5t51 113.5q0 62 -35.5 102.5t-120.5 78.5l-184 84q-115 53 -177.5 145t-62.5 219q0 130 63.5 228.5t178 154t266.5 55.5q209 0 337.5 -98.5t164.5 -284.5l-292 -54q-32 158 -220 158
q-90 0 -141 -39t-51 -105q0 -47 27.5 -79.5t88.5 -61.5l180 -83q149 -68 216.5 -165.5t67.5 -241.5q0 -133 -62.5 -233.5t-174.5 -156.5t-262 -56zM325 -875l-108 169q85 50 152.5 108.5t124.5 137.5l-6 -61q-83 6 -134.5 54t-51.5 123q0 83 55 136.5t140 53.5
q90 0 145.5 -59t55.5 -154q0 -97 -47 -189t-131 -173t-195 -146z" />
    <glyph glyph-name="uni0219" unicode="&#x219;" 
d="M587 -34q-137 0 -269 52.5t-235 146.5l155 198q169 -157 354 -157q68 0 104 23.5t36 67.5q0 64 -93 95l-149 49q-133 44 -204 124t-71 195q0 99 50 172t141 113.5t212 40.5q126 0 230.5 -38.5t206.5 -119.5l-155 -199q-74 62 -144 91.5t-143 29.5q-56 0 -89 -22t-33 -60
q0 -31 21 -51.5t69 -36.5l149 -49q145 -48 212.5 -124.5t67.5 -195.5q0 -103 -53.5 -180.5t-148.5 -121t-221 -43.5zM304 -875l-108 169q85 50 152.5 108.5t124.5 137.5l-6 -61q-83 6 -134.5 54t-51.5 123q0 83 55 136.5t140 53.5q90 0 145.5 -59t55.5 -154q0 -97 -47 -189
t-131 -173t-195 -146z" />
    <glyph glyph-name="uni021A" unicode="&#x21a;" 
d="M353 0l226 1283h310l-226 -1283h-310zM187 1142l51 290h1044l-51 -290h-1044zM263 -875l-108 169q85 50 152.5 108.5t124.5 137.5l-6 -61q-83 6 -134.5 54t-51.5 123q0 83 55 136.5t140 53.5q90 0 145.5 -59t55.5 -154q0 -97 -47 -189t-131 -173t-195 -146z" />
    <glyph glyph-name="uni021B" unicode="&#x21b;" 
d="M730 -34q-185 0 -295 102t-110 274q0 36 3 71.5t10 73.5l148 839h302l-149 -842q-7 -38 -10 -64t-3 -47q0 -63 39 -99.5t106 -36.5q43 0 81 13.5t79 42.5l103 -242q-76 -44 -148.5 -64.5t-155.5 -20.5zM149 824l40 228h961l-40 -228h-961zM362 -909l-108 169
q85 50 152.5 108.5t124.5 137.5l-6 -61q-83 6 -134.5 54t-51.5 123q0 83 55 136.5t140 53.5q90 0 145.5 -59t55.5 -154q0 -97 -47 -189t-131 -173t-195 -146z" />
    <glyph glyph-name="uni0237" unicode="&#x237;" 
d="M325 -449q-229 0 -398 156l178 199q98 -89 207 -89q154 0 185 173l187 1062h303l-193 -1094q-34 -196 -155 -301.5t-314 -105.5zM256 828l39 224h615l-39 -224h-615z" />
    <glyph glyph-name="uni0253" unicode="&#x253;" 
d="M647 -34q-201 0 -292 179h-69l78 59l-70 -204h-264l191 1083q39 223 171 341.5t338 118.5q202 0 335 -117l-148 -222q-40 35 -79 49t-92 14q-190 0 -228 -213l-36 -201l-62 21h78q126 181 325 181q134 0 208.5 -95t74.5 -268q0 -211 -59.5 -375t-163 -257.5t-236.5 -93.5
zM547 233q75 0 132 50.5t89.5 138t32.5 199.5q0 176 -134 176q-95 0 -159.5 -86.5t-94.5 -250.5l-25 -137q26 -44 68 -67t91 -23z" />
    <glyph glyph-name="uni0257" unicode="&#x257;" 
d="M390 -34q-155 0 -245.5 120t-90.5 323q0 194 61 347t166 241.5t238 88.5q90 0 153 -48t87 -134h80l-84 -93l43 353q23 192 120.5 285.5t243.5 93.5q68 0 122 -16.5t105 -51.5l-116 -225q-19 14 -37 20.5t-45 6.5q-98 0 -117 -128l-98 -663q-7 -46 -11 -79.5t-4 -56.5
q0 -83 95 -83h42l-46 -262q-28 -11 -56 -17t-61 -6q-99 0 -154 59t-55 166q0 29 5.5 61t18.5 79l49 -105l-80 11q-46 -139 -130.5 -213t-198.5 -74zM489 233q77 0 129 89t84 272l20 116q-23 57 -56.5 83.5t-83.5 26.5q-67 0 -120.5 -48.5t-84.5 -133t-31 -191.5
q0 -103 37.5 -158.5t105.5 -55.5z" />
    <glyph glyph-name="uni0259" unicode="&#x259;" 
d="M516 -34q-190 0 -295.5 88t-105.5 220q0 191 194.5 278t609.5 87l15 -161q-189 -4 -309 -20t-177 -50.5t-57 -92.5q0 -46 33 -72t103 -26q84 0 143 35.5t96 92.5t54 124t17 130q0 106 -52 164.5t-158 58.5q-79 0 -149.5 -32t-129.5 -94l-191 191q104 103 221 151t259 48
q149 0 257.5 -61.5t167.5 -169t59 -245.5q0 -100 -34.5 -212t-107.5 -210t-188 -160t-275 -62z" />
    <glyph glyph-name="uni02BB" unicode="&#x2bb;" 
d="M941 1979l108 -169q-85 -50 -152.5 -108.5t-124.5 -137.5l6 61q83 -6 134.5 -54t51.5 -123q0 -83 -55 -136.5t-140 -53.5q-90 0 -145.5 59t-55.5 154q0 98 47 190t131 173t195 145z" />
    <glyph glyph-name="uni02BC" unicode="&#x2bc;" 
d="M400 882l344 578h358l-426 -578h-276z" />
    <glyph glyph-name="circumflex" unicode="&#x2c6;" 
d="M292 1258l2 14l354 364h294l226 -364l-2 -14h-285l-121 295h65l-226 -295h-307z" />
    <glyph glyph-name="caron" unicode="&#x2c7;" 
d="M582 1258l-226 364l2 14h286l118 -295h-57l221 295h306l-2 -14l-354 -364h-294z" />
    <glyph glyph-name="breve" unicode="&#x2d8;" 
d="M747 1247q-111 0 -188.5 39.5t-117.5 108t-40 155.5q0 21 2.5 41t6.5 45h214q-4 -16 -5.5 -30t-1.5 -28q0 -60 36.5 -93.5t107.5 -33.5q72 0 119.5 41t65.5 144h234q-26 -149 -89 -234t-151.5 -120t-192.5 -35z" />
    <glyph glyph-name="dotaccent" unicode="&#x2d9;" 
d="M762 1246q-84 0 -142 57.5t-58 141.5q0 83 57.5 141t142.5 58q86 0 143 -58t57 -141q0 -84 -57 -141.5t-143 -57.5z" />
    <glyph glyph-name="ring" unicode="&#x2da;" 
d="M606.5 1191.5q-70.5 40.5 -112.5 108.5t-42 152q0 85 42 153t112.5 108.5t157.5 40.5t157.5 -40.5t112.5 -108.5t42 -153q0 -84 -42 -152t-112.5 -108.5t-157.5 -40.5t-157.5 40.5zM851.5 1365.5q34.5 34.5 34.5 87t-34.5 87t-87 34.5t-87.5 -34.5t-35 -87t35 -87
t87.5 -34.5t87 34.5z" />
    <glyph glyph-name="ogonek" unicode="&#x2db;" 
d="M464 -559q-115 0 -185.5 67t-70.5 176q0 132 111.5 236t336.5 181l43 -112q-130 -61 -188.5 -118t-58.5 -121q0 -40 25 -64.5t68 -24.5q50 0 93 20l26 -187q-46 -26 -96.5 -39.5t-103.5 -13.5z" />
    <glyph glyph-name="tilde" unicode="&#x2dc;" 
d="M915 1259q-59 0 -99 20.5t-89 70.5q-37 38 -58 53.5t-44 15.5q-26 0 -40 -18.5t-20 -54.5l-15 -84h-217l16 91q25 138 90.5 212t168.5 74q59 0 99 -20.5t89 -70.5q38 -38 58.5 -53.5t43.5 -15.5q26 0 40 18.5t20 54.5l15 84h217l-16 -91q-25 -138 -90 -212t-169 -74z" />
    <glyph glyph-name="hungarumlaut" unicode="&#x2dd;" 
d="M712 1258l2 14l224 364h324l-2 -13l-306 -365h-242zM264 1258l2 14l224 364h324l-2 -13l-306 -365h-242z" />
    <glyph glyph-name="gravecomb" unicode="&#x300;" horiz-adv-x="0" 
d="M5 1258l-225 365l2 13h338l144 -364l-3 -14h-256z" />
    <glyph glyph-name="acutecomb" unicode="&#x301;" horiz-adv-x="0" 
d="M-5 1258l2 14l272 364h358l-3 -13l-353 -365h-276z" />
    <glyph glyph-name="uni0302" unicode="&#x302;" horiz-adv-x="0" 
d="M-308 1258l2 14l354 364h294l226 -364l-2 -14h-285l-121 295h65l-226 -295h-307z" />
    <glyph glyph-name="tildecomb" unicode="&#x303;" horiz-adv-x="0" 
d="M315 1259q-59 0 -99 20.5t-89 70.5q-37 38 -58 53.5t-44 15.5q-26 0 -40 -18.5t-20 -54.5l-15 -84h-217l16 91q25 138 90.5 212t168.5 74q59 0 99 -20.5t89 -70.5q38 -38 58.5 -53.5t43.5 -15.5q26 0 40 18.5t20 54.5l15 84h217l-16 -91q-25 -138 -90 -212t-169 -74z" />
    <glyph glyph-name="uni0304" unicode="&#x304;" horiz-adv-x="0" 
d="M-184 1315l44 246h646l-44 -246h-646z" />
    <glyph glyph-name="uni0306" unicode="&#x306;" horiz-adv-x="0" 
d="M147 1247q-111 0 -188.5 39.5t-117.5 108t-40 155.5q0 21 2.5 41t6.5 45h214q-4 -16 -5.5 -30t-1.5 -28q0 -60 36.5 -93.5t107.5 -33.5q72 0 119.5 41t65.5 144h234q-26 -149 -89 -234t-151.5 -120t-192.5 -35z" />
    <glyph glyph-name="uni0307" unicode="&#x307;" horiz-adv-x="0" 
d="M162 1246q-84 0 -142 57.5t-58 141.5q0 83 57.5 141t142.5 58q86 0 143 -58t57 -141q0 -84 -57 -141.5t-143 -57.5z" />
    <glyph glyph-name="uni0308" unicode="&#x308;" horiz-adv-x="0" 
d="M-115 1246q-80 0 -136 55t-56 134t56 134t136 55q81 0 136.5 -54.5t55.5 -134.5t-55 -134.5t-137 -54.5zM429 1246q-80 0 -136 55t-56 134t56 134t136 55q81 0 136.5 -54.5t55.5 -134.5t-55 -134.5t-137 -54.5z" />
    <glyph glyph-name="hookabovecomb" unicode="&#x309;" horiz-adv-x="0" 
d="M87 1172l5 200q205 0 205 97q0 40 -32.5 59t-106.5 19q-87 0 -177 -19l-22 203q53 16 112.5 24t118.5 8q147 0 232 -75t85 -200q0 -147 -109.5 -229t-310.5 -87z" />
    <glyph glyph-name="uni030A" unicode="&#x30a;" horiz-adv-x="0" 
d="M6.5 1191.5q-70.5 40.5 -112.5 108.5t-42 152q0 85 42 153t112.5 108.5t157.5 40.5t157.5 -40.5t112.5 -108.5t42 -153q0 -84 -42 -152t-112.5 -108.5t-157.5 -40.5t-157.5 40.5zM251.5 1365.5q34.5 34.5 34.5 87t-34.5 87t-87 34.5t-87.5 -34.5t-35 -87t35 -87
t87.5 -34.5t87 34.5z" />
    <glyph glyph-name="uni030B" unicode="&#x30b;" horiz-adv-x="0" 
d="M216 1258l2 14l224 364h324l-2 -13l-306 -365h-242zM-232 1258l2 14l224 364h324l-2 -13l-306 -365h-242z" />
    <glyph glyph-name="uni030C" unicode="&#x30c;" horiz-adv-x="0" 
d="M-18 1258l-226 364l2 14h286l118 -295h-57l221 295h306l-2 -14l-354 -364h-294z" />
    <glyph glyph-name="uni0312" unicode="&#x312;" horiz-adv-x="0" 
d="M334 1979l108 -169q-85 -50 -152.5 -108.5t-124.5 -137.5l6 61q83 -6 134.5 -54t51.5 -123q0 -83 -55 -136.5t-140 -53.5q-90 0 -145.5 59t-55.5 154q0 98 47 190t131 173t195 145z" />
    <glyph glyph-name="uni031B" unicode="&#x31b;" horiz-adv-x="0" 
d="M74 1283l25 149h44q73 0 111 29.5t38 76.5q0 57 -54 120l257 170q95 -110 95 -233q0 -95 -53.5 -165t-145 -108.5t-204.5 -38.5h-113z" />
    <glyph glyph-name="dotbelowcomb" unicode="&#x323;" horiz-adv-x="0" 
d="M-6 -552q-84 0 -142 57.5t-58 141.5q0 83 57.5 141t142.5 58q86 0 143 -58t57 -141q0 -84 -57 -141.5t-143 -57.5z" />
    <glyph glyph-name="uni0326" unicode="&#x326;" horiz-adv-x="0" 
d="M-339 -875l-108 169q85 50 152.5 108.5t124.5 137.5l-6 -61q-83 6 -134.5 54t-51.5 123q0 83 55 136.5t140 53.5q90 0 145.5 -59t55.5 -154q0 -97 -47 -189t-131 -173t-195 -146z" />
    <glyph glyph-name="uni0327" unicode="&#x327;" horiz-adv-x="0" 
d="M-7 -658q-121 0 -209 61.5t-127 152.5l186 86q47 -112 150 -112q52 0 84 30t32 80q0 41 -24.5 64.5t-71.5 23.5q-46 0 -93 -30l-95 103l171 218h157l-210 -260l-68 59q43 35 92.5 52.5t100.5 17.5q101 0 171 -62t70 -184q0 -85 -39 -153t-110 -107.5t-167 -39.5z" />
    <glyph glyph-name="uni0328" unicode="&#x328;" horiz-adv-x="0" 
d="M-118 -559q-115 0 -185.5 67t-70.5 176q0 132 111.5 236t336.5 181l43 -112q-130 -61 -188.5 -118t-58.5 -121q0 -40 25 -64.5t68 -24.5q50 0 93 20l26 -187q-46 -26 -96.5 -39.5t-103.5 -13.5z" />
    <glyph glyph-name="uni0329" unicode="&#x329;" horiz-adv-x="0" 
d="M-344 -667l87 496h269l-87 -496h-269z" />
    <glyph glyph-name="uni1E44" unicode="&#x1e44;" 
d="M-21 0l252 1432h290l319 -900h8l42 329l101 571h298l-252 -1432h-266l-335 944h-8l-43 -329l-108 -615h-298zM792 1626q-84 0 -142 57.5t-58 141.5q0 83 57.5 141t142.5 58q86 0 143 -58t57 -141q0 -84 -57 -141.5t-143 -57.5z" />
    <glyph glyph-name="uni1E45" unicode="&#x1e45;" 
d="M928 -18q-121 0 -190 68t-69 186q0 39 6.5 78.5t19.5 95.5l47 194q11 45 17 79t6 62q0 44 -21.5 66.5t-64.5 22.5q-57 0 -106.5 -42.5t-86 -119t-54.5 -178.5l-87 -494h-306l186 1052h291l-37 -209l-37 47h54q145 196 348 196q115 0 177.5 -63.5t62.5 -171.5
q0 -42 -7.5 -87.5t-20.5 -100.5l-55 -232q-10 -41 -13.5 -59.5t-3.5 -31.5q0 -75 91 -75h43l-46 -259q-72 -24 -144 -24zM748 1246q-84 0 -142 57.5t-58 141.5q0 83 57.5 141t142.5 58q86 0 143 -58t57 -141q0 -84 -57 -141.5t-143 -57.5z" />
    <glyph glyph-name="uni1E62" unicode="&#x1e62;" 
d="M605 -34q-229 0 -380.5 122t-188.5 338l293 53q17 -112 89 -173t186 -61q92 0 143 40.5t51 113.5q0 62 -35.5 102.5t-120.5 78.5l-184 84q-115 53 -177.5 145t-62.5 219q0 130 63.5 228.5t178 154t266.5 55.5q209 0 337.5 -98.5t164.5 -284.5l-292 -54q-32 158 -220 158
q-90 0 -141 -39t-51 -105q0 -47 27.5 -79.5t88.5 -61.5l180 -83q149 -68 216.5 -165.5t67.5 -241.5q0 -133 -62.5 -233.5t-174.5 -156.5t-262 -56zM508 -552q-84 0 -142 57.5t-58 141.5q0 83 57.5 141t142.5 58q86 0 143 -58t57 -141q0 -84 -57 -141.5t-143 -57.5z" />
    <glyph glyph-name="uni1E63" unicode="&#x1e63;" 
d="M587 -34q-137 0 -269 52.5t-235 146.5l155 198q169 -157 354 -157q68 0 104 23.5t36 67.5q0 64 -93 95l-149 49q-133 44 -204 124t-71 195q0 99 50 172t141 113.5t212 40.5q126 0 230.5 -38.5t206.5 -119.5l-155 -199q-74 62 -144 91.5t-143 29.5q-56 0 -89 -22t-33 -60
q0 -31 21 -51.5t69 -36.5l149 -49q145 -48 212.5 -124.5t67.5 -195.5q0 -103 -53.5 -180.5t-148.5 -121t-221 -43.5zM487 -552q-84 0 -142 57.5t-58 141.5q0 83 57.5 141t142.5 58q86 0 143 -58t57 -141q0 -84 -57 -141.5t-143 -57.5z" />
    <glyph glyph-name="Wgrave" unicode="&#x1e80;" 
d="M113 0l69 1432h276l-98 -977h6l101 279l150 416h172l17 -416l-10 -279h6l236 977h300l-435 -1432h-255l-11 520l12 248h-6l-90 -248l-198 -520h-242zM661 1638l-225 365l2 13h338l144 -364l-3 -14h-256z" />
    <glyph glyph-name="wgrave" unicode="&#x1e81;" 
d="M132 0l-36 1052h255l-13 -598l-5 -117h7l37 118l169 477h245l3 -476l-6 -119h7l36 119l198 596h261l-405 -1052h-266l-4 505l6 117h-7l-37 -117l-179 -505h-266zM603 1258l-225 365l2 13h338l144 -364l-3 -14h-256z" />
    <glyph glyph-name="Wacute" unicode="&#x1e82;" 
d="M113 0l69 1432h276l-98 -977h6l101 279l150 416h172l17 -416l-10 -279h6l236 977h300l-435 -1432h-255l-11 520l12 248h-6l-90 -248l-198 -520h-242zM651 1638l2 14l272 364h358l-3 -13l-353 -365h-276z" />
    <glyph glyph-name="wacute" unicode="&#x1e83;" 
d="M132 0l-36 1052h255l-13 -598l-5 -117h7l37 118l169 477h245l3 -476l-6 -119h7l36 119l198 596h261l-405 -1052h-266l-4 505l6 117h-7l-37 -117l-179 -505h-266zM593 1258l2 14l272 364h358l-3 -13l-353 -365h-276z" />
    <glyph glyph-name="Wdieresis" unicode="&#x1e84;" 
d="M113 0l69 1432h276l-98 -977h6l101 279l150 416h172l17 -416l-10 -279h6l236 977h300l-435 -1432h-255l-11 520l12 248h-6l-90 -248l-198 -520h-242zM540 1626q-80 0 -136 55t-56 134t56 134t136 55q81 0 136.5 -54.5t55.5 -134.5t-55 -134.5t-137 -54.5zM1084 1626
q-80 0 -136 55t-56 134t56 134t136 55q81 0 136.5 -54.5t55.5 -134.5t-55 -134.5t-137 -54.5z" />
    <glyph glyph-name="wdieresis" unicode="&#x1e85;" 
d="M132 0l-36 1052h255l-13 -598l-5 -117h7l37 118l169 477h245l3 -476l-6 -119h7l36 119l198 596h261l-405 -1052h-266l-4 505l6 117h-7l-37 -117l-179 -505h-266zM482 1246q-80 0 -136 55t-56 134t56 134t136 55q81 0 136.5 -54.5t55.5 -134.5t-55 -134.5t-137 -54.5z
M1026 1246q-80 0 -136 55t-56 134t56 134t136 55q81 0 136.5 -54.5t55.5 -134.5t-55 -134.5t-137 -54.5z" />
    <glyph glyph-name="uni1E9E" unicode="&#x1e9e;" 
d="M717 -34q-97 0 -182.5 28.5t-156.5 80.5l153 225q32 -24 70.5 -39t85.5 -15q53 0 88 23t55.5 59.5t29 77.5t8.5 77q0 81 -51 125.5t-162 44.5h-68l22 126l215 393q-49 16 -111 16q-105 0 -168 -54t-83 -169l-170 -965h-303l175 987q44 248 190.5 363.5t398.5 115.5
q119 0 217.5 -24t192.5 -73l-18 -99l-228 -417l-9 -51l-95 53q179 -15 269 -109.5t90 -261.5q0 -103 -29.5 -196t-87.5 -165.5t-142.5 -114.5t-195.5 -42z" />
    <glyph glyph-name="uni1EA0" unicode="&#x1ea0;" 
d="M-76 0l695 1432h282l191 -1432h-310l-67 885l-12 210h-7l-78 -210l-378 -885h-316zM177 276l118 241h592l39 -241h-749zM476 -528q-84 0 -142 57.5t-58 141.5q0 83 57.5 141t142.5 58q86 0 143 -58t57 -141q0 -84 -57 -141.5t-143 -57.5z" />
    <glyph glyph-name="uni1EA1" unicode="&#x1ea1;" 
d="M407 -34q-166 0 -263 120t-97 323q0 194 63.5 347t172.5 241.5t247 88.5q101 0 161.5 -47.5t92.5 -134.5h80l-83 -93l45 260h281l-104 -587q-9 -50 -12.5 -80.5t-3.5 -53.5q0 -83 95 -83h42l-46 -262q-29 -11 -58.5 -17t-63.5 -6q-97 0 -150.5 59t-53.5 166
q0 29 5.5 60.5t18.5 79.5l49 -105l-80 11q-47 -139 -134 -213t-204 -74zM499 232q83 0 139 90.5t89 271.5l21 116q-24 56 -61.5 83t-93.5 27q-73 0 -130 -48.5t-90 -133t-33 -191.5q0 -104 41.5 -159.5t117.5 -55.5zM514 -586q-84 0 -142 57.5t-58 141.5q0 83 57.5 141
t142.5 58q86 0 143 -58t57 -141q0 -84 -57 -141.5t-143 -57.5z" />
    <glyph glyph-name="uni1EA2" unicode="&#x1ea2;" 
d="M-76 0l695 1432h282l191 -1432h-310l-67 885l-12 210h-7l-78 -210l-378 -885h-316zM177 276l118 241h592l39 -241h-749zM742 1552l5 200q205 0 205 97q0 40 -32.5 59t-106.5 19q-87 0 -177 -19l-22 203q53 16 112.5 24t118.5 8q147 0 232 -75t85 -200q0 -147 -109.5 -229
t-310.5 -87z" />
    <glyph glyph-name="uni1EA3" unicode="&#x1ea3;" 
d="M407 -34q-166 0 -263 120t-97 323q0 194 63.5 347t172.5 241.5t247 88.5q101 0 161.5 -47.5t92.5 -134.5h80l-83 -93l45 260h281l-104 -587q-9 -50 -12.5 -80.5t-3.5 -53.5q0 -83 95 -83h42l-46 -262q-29 -11 -58.5 -17t-63.5 -6q-97 0 -150.5 59t-53.5 166
q0 29 5.5 60.5t18.5 79.5l49 -105l-80 11q-47 -139 -134 -213t-204 -74zM499 232q83 0 139 90.5t89 271.5l21 116q-24 56 -61.5 83t-93.5 27q-73 0 -130 -48.5t-90 -133t-33 -191.5q0 -104 41.5 -159.5t117.5 -55.5zM643 1172l5 200q205 0 205 97q0 40 -32.5 59t-106.5 19
q-87 0 -177 -19l-22 203q53 16 112.5 24t118.5 8q147 0 232 -75t85 -200q0 -147 -109.5 -229t-310.5 -87z" />
    <glyph glyph-name="uni1EA4" unicode="&#x1ea4;" 
d="M-76 0l695 1432h282l191 -1432h-310l-67 885l-12 210h-7l-78 -210l-378 -885h-316zM177 276l118 241h592l39 -241h-749zM306 1544l3 13l403 354h240l280 -354l-3 -13h-290l-136 224h40l-223 -224h-314zM1059 1851v13l181 405h264v-13l-252 -405h-193z" />
    <glyph glyph-name="uni1EA5" unicode="&#x1ea5;" 
d="M407 -34q-166 0 -263 120t-97 323q0 194 63.5 347t172.5 241.5t247 88.5q101 0 161.5 -47.5t92.5 -134.5h80l-83 -93l45 260h281l-104 -587q-9 -50 -12.5 -80.5t-3.5 -53.5q0 -83 95 -83h42l-46 -262q-29 -11 -58.5 -17t-63.5 -6q-97 0 -150.5 59t-53.5 166
q0 29 5.5 60.5t18.5 79.5l49 -105l-80 11q-47 -139 -134 -213t-204 -74zM499 232q83 0 139 90.5t89 271.5l21 116q-24 56 -61.5 83t-93.5 27q-73 0 -130 -48.5t-90 -133t-33 -191.5q0 -104 41.5 -159.5t117.5 -55.5zM261 1221l3 13l403 354h240l280 -354l-3 -13h-290
l-136 224h40l-223 -224h-314zM1014 1528v13l181 405h264v-13l-252 -405h-193z" />
    <glyph glyph-name="uni1EA6" unicode="&#x1ea6;" 
d="M-76 0l695 1432h282l191 -1432h-310l-67 885l-12 210h-7l-78 -210l-378 -885h-316zM177 276l118 241h592l39 -241h-749zM306 1544l3 13l403 354h240l280 -354l-3 -13h-290l-136 224h40l-223 -224h-314zM1165 1849l-197 405l2 13h262l140 -405l-3 -13h-204z" />
    <glyph glyph-name="uni1EA7" unicode="&#x1ea7;" 
d="M407 -34q-166 0 -263 120t-97 323q0 194 63.5 347t172.5 241.5t247 88.5q101 0 161.5 -47.5t92.5 -134.5h80l-83 -93l45 260h281l-104 -587q-9 -50 -12.5 -80.5t-3.5 -53.5q0 -83 95 -83h42l-46 -262q-29 -11 -58.5 -17t-63.5 -6q-97 0 -150.5 59t-53.5 166
q0 29 5.5 60.5t18.5 79.5l49 -105l-80 11q-47 -139 -134 -213t-204 -74zM499 232q83 0 139 90.5t89 271.5l21 116q-24 56 -61.5 83t-93.5 27q-73 0 -130 -48.5t-90 -133t-33 -191.5q0 -104 41.5 -159.5t117.5 -55.5zM261 1221l3 13l403 354h240l280 -354l-3 -13h-290
l-136 224h40l-223 -224h-314zM1120 1526l-197 405l2 13h262l140 -405l-3 -13h-204z" />
    <glyph glyph-name="uni1EA8" unicode="&#x1ea8;" 
d="M-76 0l695 1432h282l191 -1432h-310l-67 885l-12 210h-7l-78 -210l-378 -885h-316zM177 276l118 241h592l39 -241h-749zM306 1544l3 13l403 354h240l280 -354l-3 -13h-290l-136 224h40l-223 -224h-314zM1125 1796v171q80 0 117 21.5t37 61.5q0 73 -122 73q-67 0 -150 -18
l-19 178q90 25 187 25q140 0 210.5 -66.5t70.5 -177.5q0 -118 -89 -190.5t-242 -77.5z" />
    <glyph glyph-name="uni1EA9" unicode="&#x1ea9;" 
d="M407 -34q-166 0 -263 120t-97 323q0 194 63.5 347t172.5 241.5t247 88.5q101 0 161.5 -47.5t92.5 -134.5h80l-83 -93l45 260h281l-104 -587q-9 -50 -12.5 -80.5t-3.5 -53.5q0 -83 95 -83h42l-46 -262q-29 -11 -58.5 -17t-63.5 -6q-97 0 -150.5 59t-53.5 166
q0 29 5.5 60.5t18.5 79.5l49 -105l-80 11q-47 -139 -134 -213t-204 -74zM499 232q83 0 139 90.5t89 271.5l21 116q-24 56 -61.5 83t-93.5 27q-73 0 -130 -48.5t-90 -133t-33 -191.5q0 -104 41.5 -159.5t117.5 -55.5zM261 1221l3 13l403 354h240l280 -354l-3 -13h-290
l-136 224h40l-223 -224h-314zM1080 1473v171q80 0 117 21.5t37 61.5q0 73 -122 73q-67 0 -150 -18l-19 178q90 25 187 25q140 0 210.5 -66.5t70.5 -177.5q0 -118 -89 -190.5t-242 -77.5z" />
    <glyph glyph-name="uni1EAA" unicode="&#x1eaa;" 
d="M-76 0l695 1432h282l191 -1432h-310l-67 885l-12 210h-7l-78 -210l-378 -885h-316zM177 276l118 241h592l39 -241h-749zM306 1544l3 13l403 354h240l280 -354l-3 -13h-290l-136 224h40l-223 -224h-314zM1070 2000q-55 0 -102 20t-101 64q-41 34 -67.5 47.5t-53.5 13.5
q-71 0 -86 -86l-10 -56h-210l14 80q22 125 83.5 189.5t155.5 64.5q51 0 97.5 -19.5t99.5 -64.5q41 -34 67 -47.5t54 -13.5q35 0 56.5 20.5t28.5 64.5l9 57h210l-13 -80q-22 -133 -79 -193.5t-153 -60.5z" />
    <glyph glyph-name="uni1EAB" unicode="&#x1eab;" 
d="M407 -34q-166 0 -263 120t-97 323q0 194 63.5 347t172.5 241.5t247 88.5q101 0 161.5 -47.5t92.5 -134.5h80l-83 -93l45 260h281l-104 -587q-9 -50 -12.5 -80.5t-3.5 -53.5q0 -83 95 -83h42l-46 -262q-29 -11 -58.5 -17t-63.5 -6q-97 0 -150.5 59t-53.5 166
q0 29 5.5 60.5t18.5 79.5l49 -105l-80 11q-47 -139 -134 -213t-204 -74zM499 232q83 0 139 90.5t89 271.5l21 116q-24 56 -61.5 83t-93.5 27q-73 0 -130 -48.5t-90 -133t-33 -191.5q0 -104 41.5 -159.5t117.5 -55.5zM261 1221l3 13l403 354h240l280 -354l-3 -13h-290
l-136 224h40l-223 -224h-314zM1025 1677q-55 0 -102 20t-101 64q-41 34 -67.5 47.5t-53.5 13.5q-71 0 -86 -86l-10 -56h-210l14 80q22 125 83.5 189.5t155.5 64.5q51 0 97.5 -19.5t99.5 -64.5q41 -34 67 -47.5t54 -13.5q35 0 56.5 20.5t28.5 64.5l9 57h210l-13 -80
q-22 -133 -79 -193.5t-153 -60.5z" />
    <glyph glyph-name="uni1EAC" unicode="&#x1eac;" 
d="M-76 0l695 1432h282l191 -1432h-310l-67 885l-12 210h-7l-78 -210l-378 -885h-316zM177 276l118 241h592l39 -241h-749zM476 -528q-84 0 -142 57.5t-58 141.5q0 83 57.5 141t142.5 58q86 0 143 -58t57 -141q0 -84 -57 -141.5t-143 -57.5zM347 1638l2 14l354 364h294
l226 -364l-2 -14h-285l-121 295h65l-226 -295h-307z" />
    <glyph glyph-name="uni1EAD" unicode="&#x1ead;" 
d="M407 -34q-166 0 -263 120t-97 323q0 194 63.5 347t172.5 241.5t247 88.5q101 0 161.5 -47.5t92.5 -134.5h80l-83 -93l45 260h281l-104 -587q-9 -50 -12.5 -80.5t-3.5 -53.5q0 -83 95 -83h42l-46 -262q-29 -11 -58.5 -17t-63.5 -6q-97 0 -150.5 59t-53.5 166
q0 29 5.5 60.5t18.5 79.5l49 -105l-80 11q-47 -139 -134 -213t-204 -74zM499 232q83 0 139 90.5t89 271.5l21 116q-24 56 -61.5 83t-93.5 27q-73 0 -130 -48.5t-90 -133t-33 -191.5q0 -104 41.5 -159.5t117.5 -55.5zM514 -586q-84 0 -142 57.5t-58 141.5q0 83 57.5 141
t142.5 58q86 0 143 -58t57 -141q0 -84 -57 -141.5t-143 -57.5zM248 1258l2 14l354 364h294l226 -364l-2 -14h-285l-121 295h65l-226 -295h-307z" />
    <glyph glyph-name="uni1EAE" unicode="&#x1eae;" 
d="M-76 0l695 1432h282l191 -1432h-310l-67 885l-12 210h-7l-78 -210l-378 -885h-316zM177 276l118 241h592l39 -241h-749zM810 1541q-112 0 -198.5 41.5t-135.5 115.5t-49 169q0 32 6 59h200q-4 -19 -4 -41q0 -72 50.5 -115.5t133.5 -43.5q180 0 210 183l3 17h210l-2 -13
q-28 -178 -139 -275t-285 -97zM715 1903v13l186 385h284v-14l-310 -384h-160z" />
    <glyph glyph-name="uni1EAF" unicode="&#x1eaf;" 
d="M407 -34q-166 0 -263 120t-97 323q0 194 63.5 347t172.5 241.5t247 88.5q101 0 161.5 -47.5t92.5 -134.5h80l-83 -93l45 260h281l-104 -587q-9 -50 -12.5 -80.5t-3.5 -53.5q0 -83 95 -83h42l-46 -262q-29 -11 -58.5 -17t-63.5 -6q-97 0 -150.5 59t-53.5 166
q0 29 5.5 60.5t18.5 79.5l49 -105l-80 11q-47 -139 -134 -213t-204 -74zM499 232q83 0 139 90.5t89 271.5l21 116q-24 56 -61.5 83t-93.5 27q-73 0 -130 -48.5t-90 -133t-33 -191.5q0 -104 41.5 -159.5t117.5 -55.5zM765 1208q-112 0 -198.5 41.5t-135.5 115.5t-49 169
q0 32 6 59h200q-4 -19 -4 -41q0 -72 50.5 -115.5t133.5 -43.5q180 0 210 183l3 17h210l-2 -13q-28 -178 -139 -275t-285 -97zM670 1570v13l186 385h284v-14l-310 -384h-160z" />
    <glyph glyph-name="uni1EB0" unicode="&#x1eb0;" 
d="M-76 0l695 1432h282l191 -1432h-310l-67 885l-12 210h-7l-78 -210l-378 -885h-316zM177 276l118 241h592l39 -241h-749zM810 1541q-112 0 -198.5 41.5t-135.5 115.5t-49 169q0 32 6 59h200q-4 -19 -4 -41q0 -72 50.5 -115.5t133.5 -43.5q180 0 210 183l3 17h210l-2 -13
q-28 -178 -139 -275t-285 -97zM789 1903l-193 384l3 14h281l79 -385l-3 -13h-167z" />
    <glyph glyph-name="uni1EB1" unicode="&#x1eb1;" 
d="M407 -34q-166 0 -263 120t-97 323q0 194 63.5 347t172.5 241.5t247 88.5q101 0 161.5 -47.5t92.5 -134.5h80l-83 -93l45 260h281l-104 -587q-9 -50 -12.5 -80.5t-3.5 -53.5q0 -83 95 -83h42l-46 -262q-29 -11 -58.5 -17t-63.5 -6q-97 0 -150.5 59t-53.5 166
q0 29 5.5 60.5t18.5 79.5l49 -105l-80 11q-47 -139 -134 -213t-204 -74zM499 232q83 0 139 90.5t89 271.5l21 116q-24 56 -61.5 83t-93.5 27q-73 0 -130 -48.5t-90 -133t-33 -191.5q0 -104 41.5 -159.5t117.5 -55.5zM765 1208q-112 0 -198.5 41.5t-135.5 115.5t-49 169
q0 32 6 59h200q-4 -19 -4 -41q0 -72 50.5 -115.5t133.5 -43.5q180 0 210 183l3 17h210l-2 -13q-28 -178 -139 -275t-285 -97zM744 1570l-193 384l3 14h281l79 -385l-3 -13h-167z" />
    <glyph glyph-name="uni1EB2" unicode="&#x1eb2;" 
d="M-76 0l695 1432h282l191 -1432h-310l-67 885l-12 210h-7l-78 -210l-378 -885h-316zM177 276l118 241h592l39 -241h-749zM809 1541q-114 0 -202.5 42.5t-139 117.5t-50.5 172q0 35 5 57h193q-4 -15 -4 -40q0 -76 55 -122t146 -46q92 0 149.5 48.5t73.5 141.5l3 18h208
l-2 -14q-28 -179 -142 -277t-293 -98zM727 1860v160q77 0 111.5 20t34.5 57q0 35 -28 52.5t-91 17.5q-32 0 -67 -3.5t-74 -11.5l-21 176q85 23 180 23q127 0 196 -64.5t69 -174.5q0 -112 -83.5 -179.5t-226.5 -72.5z" />
    <glyph glyph-name="uni1EB3" unicode="&#x1eb3;" 
d="M407 -34q-166 0 -263 120t-97 323q0 194 63.5 347t172.5 241.5t247 88.5q101 0 161.5 -47.5t92.5 -134.5h80l-83 -93l45 260h281l-104 -587q-9 -50 -12.5 -80.5t-3.5 -53.5q0 -83 95 -83h42l-46 -262q-29 -11 -58.5 -17t-63.5 -6q-97 0 -150.5 59t-53.5 166
q0 29 5.5 60.5t18.5 79.5l49 -105l-80 11q-47 -139 -134 -213t-204 -74zM499 232q83 0 139 90.5t89 271.5l21 116q-24 56 -61.5 83t-93.5 27q-73 0 -130 -48.5t-90 -133t-33 -191.5q0 -104 41.5 -159.5t117.5 -55.5zM766 1208q-114 0 -202.5 42.5t-139 117.5t-50.5 172
q0 35 5 57h193q-4 -15 -4 -40q0 -76 55 -122t146 -46q92 0 149.5 48.5t73.5 141.5l3 18h208l-2 -14q-28 -179 -142 -277t-293 -98zM684 1527v160q77 0 111.5 20t34.5 57q0 35 -28 52.5t-91 17.5q-32 0 -67 -3.5t-74 -11.5l-21 176q85 23 180 23q127 0 196 -64.5t69 -174.5
q0 -112 -83.5 -179.5t-226.5 -72.5z" />
    <glyph glyph-name="uni1EB4" unicode="&#x1eb4;" 
d="M-76 0l695 1432h282l191 -1432h-310l-67 885l-12 210h-7l-78 -210l-378 -885h-316zM177 276l118 241h592l39 -241h-749zM801 1541q-105 0 -186 40.5t-127 111.5t-46 163q0 17 1 32t4 27h200q-3 -19 -3 -43q0 -68 44.5 -108t119.5 -40q158 0 188 173l3 18h216l-2 -14
q-27 -171 -135 -265.5t-277 -94.5zM1079 2017q-53 0 -100 19t-102 59q-49 37 -76 50t-53 13q-76 0 -91 -89l-8 -48h-210l15 83q22 123 84.5 189t159.5 66q50 0 94 -18.5t102 -63.5q44 -34 72 -47t56 -13q35 0 55 22.5t28 70.5l8 45h210l-14 -80q-24 -134 -79 -196t-151 -62z
" />
    <glyph glyph-name="uni1EB5" unicode="&#x1eb5;" 
d="M407 -34q-166 0 -263 120t-97 323q0 194 63.5 347t172.5 241.5t247 88.5q101 0 161.5 -47.5t92.5 -134.5h80l-83 -93l45 260h281l-104 -587q-9 -50 -12.5 -80.5t-3.5 -53.5q0 -83 95 -83h42l-46 -262q-29 -11 -58.5 -17t-63.5 -6q-97 0 -150.5 59t-53.5 166
q0 29 5.5 60.5t18.5 79.5l49 -105l-80 11q-47 -139 -134 -213t-204 -74zM499 232q83 0 139 90.5t89 271.5l21 116q-24 56 -61.5 83t-93.5 27q-73 0 -130 -48.5t-90 -133t-33 -191.5q0 -104 41.5 -159.5t117.5 -55.5zM758 1208q-105 0 -186 40.5t-127 111.5t-46 163
q0 17 1 32t4 27h200q-3 -19 -3 -43q0 -68 44.5 -108t119.5 -40q158 0 188 173l3 18h216l-2 -14q-27 -171 -135 -265.5t-277 -94.5zM1036 1684q-53 0 -100 19t-102 59q-49 37 -76 50t-53 13q-76 0 -91 -89l-8 -48h-210l15 83q22 123 84.5 189t159.5 66q50 0 94 -18.5
t102 -63.5q44 -34 72 -47t56 -13q35 0 55 22.5t28 70.5l8 45h210l-14 -80q-24 -134 -79 -196t-151 -62z" />
    <glyph glyph-name="uni1EB6" unicode="&#x1eb6;" 
d="M-76 0l695 1432h282l191 -1432h-310l-67 885l-12 210h-7l-78 -210l-378 -885h-316zM177 276l118 241h592l39 -241h-749zM476 -528q-84 0 -142 57.5t-58 141.5q0 83 57.5 141t142.5 58q86 0 143 -58t57 -141q0 -84 -57 -141.5t-143 -57.5zM802 1627q-111 0 -188.5 39.5
t-117.5 108t-40 155.5q0 21 2.5 41t6.5 45h214q-4 -16 -5.5 -30t-1.5 -28q0 -60 36.5 -93.5t107.5 -33.5q72 0 119.5 41t65.5 144h234q-26 -149 -89 -234t-151.5 -120t-192.5 -35z" />
    <glyph glyph-name="uni1EB7" unicode="&#x1eb7;" 
d="M407 -34q-166 0 -263 120t-97 323q0 194 63.5 347t172.5 241.5t247 88.5q101 0 161.5 -47.5t92.5 -134.5h80l-83 -93l45 260h281l-104 -587q-9 -50 -12.5 -80.5t-3.5 -53.5q0 -83 95 -83h42l-46 -262q-29 -11 -58.5 -17t-63.5 -6q-97 0 -150.5 59t-53.5 166
q0 29 5.5 60.5t18.5 79.5l49 -105l-80 11q-47 -139 -134 -213t-204 -74zM499 232q83 0 139 90.5t89 271.5l21 116q-24 56 -61.5 83t-93.5 27q-73 0 -130 -48.5t-90 -133t-33 -191.5q0 -104 41.5 -159.5t117.5 -55.5zM514 -586q-84 0 -142 57.5t-58 141.5q0 83 57.5 141
t142.5 58q86 0 143 -58t57 -141q0 -84 -57 -141.5t-143 -57.5zM703 1247q-111 0 -188.5 39.5t-117.5 108t-40 155.5q0 21 2.5 41t6.5 45h214q-4 -16 -5.5 -30t-1.5 -28q0 -60 36.5 -93.5t107.5 -33.5q72 0 119.5 41t65.5 144h234q-26 -149 -89 -234t-151.5 -120t-192.5 -35z
" />
    <glyph glyph-name="uni1EB8" unicode="&#x1eb8;" 
d="M51 0l252 1432h890l-50 -286h-584l-152 -860h600l-50 -286h-906zM344 589l50 284h621l-50 -284h-621zM472 -552q-84 0 -142 57.5t-58 141.5q0 83 57.5 141t142.5 58q86 0 143 -58t57 -141q0 -84 -57 -141.5t-143 -57.5z" />
    <glyph glyph-name="uni1EB9" unicode="&#x1eb9;" 
d="M605 -34q-153 0 -269 66t-181.5 180.5t-65.5 261.5q0 124 42 234.5t122.5 195.5t195.5 133.5t260 48.5q192 0 289 -90t97 -229q0 -128 -84 -205t-261.5 -110.5t-459.5 -33.5l-15 175q181 4 301.5 19t181 47t60.5 86q0 43 -31.5 66.5t-96.5 23.5q-96 0 -167.5 -49
t-111 -129.5t-39.5 -175.5q0 -117 63 -182t177 -65q74 0 135.5 28.5t122.5 92.5l165 -209q-89 -92 -192.5 -136t-237.5 -44zM510 -586q-84 0 -142 57.5t-58 141.5q0 83 57.5 141t142.5 58q86 0 143 -58t57 -141q0 -84 -57 -141.5t-143 -57.5z" />
    <glyph glyph-name="uni1EBA" unicode="&#x1eba;" 
d="M51 0l252 1432h890l-50 -286h-584l-152 -860h600l-50 -286h-906zM344 589l50 284h621l-50 -284h-621zM743 1552l5 200q205 0 205 97q0 40 -32.5 59t-106.5 19q-87 0 -177 -19l-22 203q53 16 112.5 24t118.5 8q147 0 232 -75t85 -200q0 -147 -109.5 -229t-310.5 -87z" />
    <glyph glyph-name="uni1EBB" unicode="&#x1ebb;" 
d="M605 -34q-153 0 -269 66t-181.5 180.5t-65.5 261.5q0 124 42 234.5t122.5 195.5t195.5 133.5t260 48.5q192 0 289 -90t97 -229q0 -128 -84 -205t-261.5 -110.5t-459.5 -33.5l-15 175q181 4 301.5 19t181 47t60.5 86q0 43 -31.5 66.5t-96.5 23.5q-96 0 -167.5 -49
t-111 -129.5t-39.5 -175.5q0 -117 63 -182t177 -65q74 0 135.5 28.5t122.5 92.5l165 -209q-89 -92 -192.5 -136t-237.5 -44zM703 1172l5 200q205 0 205 97q0 40 -32.5 59t-106.5 19q-87 0 -177 -19l-22 203q53 16 112.5 24t118.5 8q147 0 232 -75t85 -200
q0 -147 -109.5 -229t-310.5 -87z" />
    <glyph glyph-name="uni1EBC" unicode="&#x1ebc;" 
d="M51 0l252 1432h890l-50 -286h-584l-152 -860h600l-50 -286h-906zM344 589l50 284h621l-50 -284h-621zM972 1639q-59 0 -99 20.5t-89 70.5q-37 38 -58 53.5t-44 15.5q-26 0 -40 -18.5t-20 -54.5l-15 -84h-217l16 91q25 138 90.5 212t168.5 74q59 0 99 -20.5t89 -70.5
q38 -38 58.5 -53.5t43.5 -15.5q26 0 40 18.5t20 54.5l15 84h217l-16 -91q-25 -138 -90 -212t-169 -74z" />
    <glyph glyph-name="uni1EBD" unicode="&#x1ebd;" 
d="M605 -34q-153 0 -269 66t-181.5 180.5t-65.5 261.5q0 124 42 234.5t122.5 195.5t195.5 133.5t260 48.5q192 0 289 -90t97 -229q0 -128 -84 -205t-261.5 -110.5t-459.5 -33.5l-15 175q181 4 301.5 19t181 47t60.5 86q0 43 -31.5 66.5t-96.5 23.5q-96 0 -167.5 -49
t-111 -129.5t-39.5 -175.5q0 -117 63 -182t177 -65q74 0 135.5 28.5t122.5 92.5l165 -209q-89 -92 -192.5 -136t-237.5 -44zM932 1259q-59 0 -99 20.5t-89 70.5q-37 38 -58 53.5t-44 15.5q-26 0 -40 -18.5t-20 -54.5l-15 -84h-217l16 91q25 138 90.5 212t168.5 74
q59 0 99 -20.5t89 -70.5q38 -38 58.5 -53.5t43.5 -15.5q26 0 40 18.5t20 54.5l15 84h217l-16 -91q-25 -138 -90 -212t-169 -74z" />
    <glyph glyph-name="uni1EBE" unicode="&#x1ebe;" 
d="M51 0l252 1432h890l-50 -286h-584l-152 -860h600l-50 -286h-906zM344 589l50 284h621l-50 -284h-621zM307 1544l3 13l403 354h240l280 -354l-3 -13h-290l-136 224h40l-223 -224h-314zM1060 1851v13l181 405h264v-13l-252 -405h-193z" />
    <glyph glyph-name="uni1EBF" unicode="&#x1ebf;" 
d="M605 -34q-153 0 -269 66t-181.5 180.5t-65.5 261.5q0 124 42 234.5t122.5 195.5t195.5 133.5t260 48.5q192 0 289 -90t97 -229q0 -128 -84 -205t-261.5 -110.5t-459.5 -33.5l-15 175q181 4 301.5 19t181 47t60.5 86q0 43 -31.5 66.5t-96.5 23.5q-96 0 -167.5 -49
t-111 -129.5t-39.5 -175.5q0 -117 63 -182t177 -65q74 0 135.5 28.5t122.5 92.5l165 -209q-89 -92 -192.5 -136t-237.5 -44zM277 1221l3 13l403 354h240l280 -354l-3 -13h-290l-136 224h40l-223 -224h-314zM1030 1528v13l181 405h264v-13l-252 -405h-193z" />
    <glyph glyph-name="uni1EC0" unicode="&#x1ec0;" 
d="M51 0l252 1432h890l-50 -286h-584l-152 -860h600l-50 -286h-906zM344 589l50 284h621l-50 -284h-621zM307 1544l3 13l403 354h240l280 -354l-3 -13h-290l-136 224h40l-223 -224h-314zM1166 1849l-197 405l2 13h262l140 -405l-3 -13h-204z" />
    <glyph glyph-name="uni1EC1" unicode="&#x1ec1;" 
d="M605 -34q-153 0 -269 66t-181.5 180.5t-65.5 261.5q0 124 42 234.5t122.5 195.5t195.5 133.5t260 48.5q192 0 289 -90t97 -229q0 -128 -84 -205t-261.5 -110.5t-459.5 -33.5l-15 175q181 4 301.5 19t181 47t60.5 86q0 43 -31.5 66.5t-96.5 23.5q-96 0 -167.5 -49
t-111 -129.5t-39.5 -175.5q0 -117 63 -182t177 -65q74 0 135.5 28.5t122.5 92.5l165 -209q-89 -92 -192.5 -136t-237.5 -44zM277 1221l3 13l403 354h240l280 -354l-3 -13h-290l-136 224h40l-223 -224h-314zM1136 1526l-197 405l2 13h262l140 -405l-3 -13h-204z" />
    <glyph glyph-name="uni1EC2" unicode="&#x1ec2;" 
d="M51 0l252 1432h890l-50 -286h-584l-152 -860h600l-50 -286h-906zM344 589l50 284h621l-50 -284h-621zM307 1544l3 13l403 354h240l280 -354l-3 -13h-290l-136 224h40l-223 -224h-314zM1126 1796v171q80 0 117 21.5t37 61.5q0 73 -122 73q-67 0 -150 -18l-19 178
q90 25 187 25q140 0 210.5 -66.5t70.5 -177.5q0 -118 -89 -190.5t-242 -77.5z" />
    <glyph glyph-name="uni1EC3" unicode="&#x1ec3;" 
d="M605 -34q-153 0 -269 66t-181.5 180.5t-65.5 261.5q0 124 42 234.5t122.5 195.5t195.5 133.5t260 48.5q192 0 289 -90t97 -229q0 -128 -84 -205t-261.5 -110.5t-459.5 -33.5l-15 175q181 4 301.5 19t181 47t60.5 86q0 43 -31.5 66.5t-96.5 23.5q-96 0 -167.5 -49
t-111 -129.5t-39.5 -175.5q0 -117 63 -182t177 -65q74 0 135.5 28.5t122.5 92.5l165 -209q-89 -92 -192.5 -136t-237.5 -44zM278 1221l3 13l403 354h240l280 -354l-3 -13h-290l-136 224h40l-223 -224h-314zM1097 1473v171q80 0 117 21.5t37 61.5q0 73 -122 73
q-67 0 -150 -18l-19 178q90 25 187 25q140 0 210.5 -66.5t70.5 -177.5q0 -118 -89 -190.5t-242 -77.5z" />
    <glyph glyph-name="uni1EC4" unicode="&#x1ec4;" 
d="M51 0l252 1432h890l-50 -286h-584l-152 -860h600l-50 -286h-906zM344 589l50 284h621l-50 -284h-621zM307 1544l3 13l403 354h240l280 -354l-3 -13h-290l-136 224h40l-223 -224h-314zM1071 2000q-55 0 -102 20t-101 64q-41 34 -67.5 47.5t-53.5 13.5q-71 0 -86 -86
l-10 -56h-210l14 80q22 125 83.5 189.5t155.5 64.5q51 0 97.5 -19.5t99.5 -64.5q41 -34 67 -47.5t54 -13.5q35 0 56.5 20.5t28.5 64.5l9 57h210l-13 -80q-22 -133 -79 -193.5t-153 -60.5z" />
    <glyph glyph-name="uni1EC5" unicode="&#x1ec5;" 
d="M605 -34q-153 0 -269 66t-181.5 180.5t-65.5 261.5q0 124 42 234.5t122.5 195.5t195.5 133.5t260 48.5q192 0 289 -90t97 -229q0 -128 -84 -205t-261.5 -110.5t-459.5 -33.5l-15 175q181 4 301.5 19t181 47t60.5 86q0 43 -31.5 66.5t-96.5 23.5q-96 0 -167.5 -49
t-111 -129.5t-39.5 -175.5q0 -117 63 -182t177 -65q74 0 135.5 28.5t122.5 92.5l165 -209q-89 -92 -192.5 -136t-237.5 -44zM278 1221l3 13l403 354h240l280 -354l-3 -13h-290l-136 224h40l-223 -224h-314zM1042 1677q-55 0 -102 20t-101 64q-41 34 -67.5 47.5t-53.5 13.5
q-71 0 -86 -86l-10 -56h-210l14 80q22 125 83.5 189.5t155.5 64.5q51 0 97.5 -19.5t99.5 -64.5q41 -34 67 -47.5t54 -13.5q35 0 56.5 20.5t28.5 64.5l9 57h210l-13 -80q-22 -133 -79 -193.5t-153 -60.5z" />
    <glyph glyph-name="uni1EC6" unicode="&#x1ec6;" 
d="M51 0l252 1432h890l-50 -286h-584l-152 -860h600l-50 -286h-906zM344 589l50 284h621l-50 -284h-621zM472 -552q-84 0 -142 57.5t-58 141.5q0 83 57.5 141t142.5 58q86 0 143 -58t57 -141q0 -84 -57 -141.5t-143 -57.5zM348 1638l2 14l354 364h294l226 -364l-2 -14h-285
l-121 295h65l-226 -295h-307z" />
    <glyph glyph-name="uni1EC7" unicode="&#x1ec7;" 
d="M605 -34q-153 0 -269 66t-181.5 180.5t-65.5 261.5q0 124 42 234.5t122.5 195.5t195.5 133.5t260 48.5q192 0 289 -90t97 -229q0 -128 -84 -205t-261.5 -110.5t-459.5 -33.5l-15 175q181 4 301.5 19t181 47t60.5 86q0 43 -31.5 66.5t-96.5 23.5q-96 0 -167.5 -49
t-111 -129.5t-39.5 -175.5q0 -117 63 -182t177 -65q74 0 135.5 28.5t122.5 92.5l165 -209q-89 -92 -192.5 -136t-237.5 -44zM510 -586q-84 0 -142 57.5t-58 141.5q0 83 57.5 141t142.5 58q86 0 143 -58t57 -141q0 -84 -57 -141.5t-143 -57.5zM308 1258l2 14l354 364h294
l226 -364l-2 -14h-285l-121 295h65l-226 -295h-307z" />
    <glyph glyph-name="uni1EC8" unicode="&#x1ec8;" 
d="M378 139l203 1154h310l-204 -1154h-309zM50 0l51 289h915l-51 -289h-915zM252 1144l50 288h915l-50 -288h-915zM754 1552l5 200q205 0 205 97q0 40 -32.5 59t-106.5 19q-87 0 -177 -19l-22 203q53 16 112.5 24t118.5 8q147 0 232 -75t85 -200q0 -147 -109.5 -229
t-310.5 -87z" />
    <glyph glyph-name="uni1EC9" unicode="&#x1ec9;" 
d="M786 -34q-176 0 -278.5 94.5t-102.5 257.5q0 33 4 74t14 96l82 467l71 -129h-387l39 226h594l-102 -576q-6 -34 -9 -59.5t-3 -45.5q0 -58 32 -90t91 -32q66 0 132 47l117 -237q-129 -93 -294 -93zM615 1172l5 200q205 0 205 97q0 40 -32.5 59t-106.5 19q-87 0 -177 -19
l-22 203q53 16 112.5 24t118.5 8q147 0 232 -75t85 -200q0 -147 -109.5 -229t-310.5 -87z" />
    <glyph glyph-name="uni1ECA" unicode="&#x1eca;" 
d="M378 139l203 1154h310l-204 -1154h-309zM50 0l51 289h915l-51 -289h-915zM252 1144l50 288h915l-50 -288h-915zM465 -552q-84 0 -142 57.5t-58 141.5q0 83 57.5 141t142.5 58q86 0 143 -58t57 -141q0 -84 -57 -141.5t-143 -57.5z" />
    <glyph glyph-name="uni1ECB" unicode="&#x1ecb;" 
d="M786 -34q-176 0 -278.5 94.5t-102.5 257.5q0 33 4 74t14 96l82 467l71 -129h-387l39 226h594l-102 -576q-6 -34 -9 -59.5t-3 -45.5q0 -58 32 -90t91 -32q66 0 132 47l117 -237q-129 -93 -294 -93zM727 1246q-82 0 -140 56.5t-58 137.5q0 83 57 138t141 55q86 0 141 -54.5
t55 -138.5q0 -82 -56 -138t-140 -56zM644 -552q-84 0 -142 57.5t-58 141.5q0 83 57.5 141t142.5 58q86 0 143 -58t57 -141q0 -84 -57 -141.5t-143 -57.5z" />
    <glyph glyph-name="uni1ECC" unicode="&#x1ecc;" 
d="M544 -34q-144 0 -249.5 64.5t-163 186t-57.5 291.5q0 123 22 256.5t70 258t125.5 225t188 159.5t258.5 59q215 0 334 -145t119 -402q0 -125 -21 -258t-68 -257t-122 -223t-183 -157t-253 -58zM570 256q70 0 121.5 42.5t87 113.5t57 157t31.5 174t10 164q0 130 -41 199.5
t-125 69.5q-71 0 -124.5 -43.5t-91.5 -115.5t-61.5 -159t-34.5 -175t-11 -163q0 -133 46.5 -198.5t135.5 -65.5zM469 -586q-84 0 -142 57.5t-58 141.5q0 83 57.5 141t142.5 58q86 0 143 -58t57 -141q0 -84 -57 -141.5t-143 -57.5z" />
    <glyph glyph-name="uni1ECD" unicode="&#x1ecd;" 
d="M555 -34q-138 0 -246 59t-170 168.5t-62 261.5q0 128 39.5 241.5t115 201.5t182 138t241.5 50q144 0 248.5 -60t161 -169.5t56.5 -258.5q0 -131 -37.5 -245.5t-110 -201.5t-177.5 -136t-241 -49zM567 232q69 0 117.5 34.5t78.5 89.5t44 119t14 122q0 104 -44.5 163.5
t-134.5 59.5q-70 0 -120.5 -34.5t-82.5 -89.5t-47 -118.5t-15 -122.5q0 -103 50 -163t140 -60zM475 -586q-84 0 -142 57.5t-58 141.5q0 83 57.5 141t142.5 58q86 0 143 -58t57 -141q0 -84 -57 -141.5t-143 -57.5z" />
    <glyph glyph-name="uni1ECE" unicode="&#x1ece;" 
d="M544 -34q-144 0 -249.5 64.5t-163 186t-57.5 291.5q0 123 22 256.5t70 258t125.5 225t188 159.5t258.5 59q215 0 334 -145t119 -402q0 -125 -21 -258t-68 -257t-122 -223t-183 -157t-253 -58zM570 256q70 0 121.5 42.5t87 113.5t57 157t31.5 174t10 164q0 130 -41 199.5
t-125 69.5q-71 0 -124.5 -43.5t-91.5 -115.5t-61.5 -159t-34.5 -175t-11 -163q0 -133 46.5 -198.5t135.5 -65.5zM744 1552l5 200q205 0 205 97q0 40 -32.5 59t-106.5 19q-87 0 -177 -19l-22 203q53 16 112.5 24t118.5 8q147 0 232 -75t85 -200q0 -147 -109.5 -229
t-310.5 -87z" />
    <glyph glyph-name="uni1ECF" unicode="&#x1ecf;" 
d="M555 -34q-138 0 -246 59t-170 168.5t-62 261.5q0 128 39.5 241.5t115 201.5t182 138t241.5 50q144 0 248.5 -60t161 -169.5t56.5 -258.5q0 -131 -37.5 -245.5t-110 -201.5t-177.5 -136t-241 -49zM567 232q69 0 117.5 34.5t78.5 89.5t44 119t14 122q0 104 -44.5 163.5
t-134.5 59.5q-70 0 -120.5 -34.5t-82.5 -89.5t-47 -118.5t-15 -122.5q0 -103 50 -163t140 -60zM647 1172l5 200q205 0 205 97q0 40 -32.5 59t-106.5 19q-87 0 -177 -19l-22 203q53 16 112.5 24t118.5 8q147 0 232 -75t85 -200q0 -147 -109.5 -229t-310.5 -87z" />
    <glyph glyph-name="uni1ED0" unicode="&#x1ed0;" 
d="M544 -34q-144 0 -249.5 64.5t-163 186t-57.5 291.5q0 123 22 256.5t70 258t125.5 225t188 159.5t258.5 59q215 0 334 -145t119 -402q0 -125 -21 -258t-68 -257t-122 -223t-183 -157t-253 -58zM570 256q70 0 121.5 42.5t87 113.5t57 157t31.5 174t10 164q0 130 -41 199.5
t-125 69.5q-71 0 -124.5 -43.5t-91.5 -115.5t-61.5 -159t-34.5 -175t-11 -163q0 -133 46.5 -198.5t135.5 -65.5zM308 1544l3 13l403 354h240l280 -354l-3 -13h-290l-136 224h40l-223 -224h-314zM1061 1851v13l181 405h264v-13l-252 -405h-193z" />
    <glyph glyph-name="uni1ED1" unicode="&#x1ed1;" 
d="M555 -34q-138 0 -246 59t-170 168.5t-62 261.5q0 128 39.5 241.5t115 201.5t182 138t241.5 50q144 0 248.5 -60t161 -169.5t56.5 -258.5q0 -131 -37.5 -245.5t-110 -201.5t-177.5 -136t-241 -49zM567 232q69 0 117.5 34.5t78.5 89.5t44 119t14 122q0 104 -44.5 163.5
t-134.5 59.5q-70 0 -120.5 -34.5t-82.5 -89.5t-47 -118.5t-15 -122.5q0 -103 50 -163t140 -60zM251 1221l3 13l403 354h240l280 -354l-3 -13h-290l-136 224h40l-223 -224h-314zM1004 1528v13l181 405h264v-13l-252 -405h-193z" />
    <glyph glyph-name="uni1ED2" unicode="&#x1ed2;" 
d="M544 -34q-144 0 -249.5 64.5t-163 186t-57.5 291.5q0 123 22 256.5t70 258t125.5 225t188 159.5t258.5 59q215 0 334 -145t119 -402q0 -125 -21 -258t-68 -257t-122 -223t-183 -157t-253 -58zM570 256q70 0 121.5 42.5t87 113.5t57 157t31.5 174t10 164q0 130 -41 199.5
t-125 69.5q-71 0 -124.5 -43.5t-91.5 -115.5t-61.5 -159t-34.5 -175t-11 -163q0 -133 46.5 -198.5t135.5 -65.5zM308 1544l3 13l403 354h240l280 -354l-3 -13h-290l-136 224h40l-223 -224h-314zM1167 1849l-197 405l2 13h262l140 -405l-3 -13h-204z" />
    <glyph glyph-name="uni1ED3" unicode="&#x1ed3;" 
d="M555 -34q-138 0 -246 59t-170 168.5t-62 261.5q0 128 39.5 241.5t115 201.5t182 138t241.5 50q144 0 248.5 -60t161 -169.5t56.5 -258.5q0 -131 -37.5 -245.5t-110 -201.5t-177.5 -136t-241 -49zM567 232q69 0 117.5 34.5t78.5 89.5t44 119t14 122q0 104 -44.5 163.5
t-134.5 59.5q-70 0 -120.5 -34.5t-82.5 -89.5t-47 -118.5t-15 -122.5q0 -103 50 -163t140 -60zM251 1221l3 13l403 354h240l280 -354l-3 -13h-290l-136 224h40l-223 -224h-314zM1110 1526l-197 405l2 13h262l140 -405l-3 -13h-204z" />
    <glyph glyph-name="uni1ED4" unicode="&#x1ed4;" 
d="M544 -34q-144 0 -249.5 64.5t-163 186t-57.5 291.5q0 123 22 256.5t70 258t125.5 225t188 159.5t258.5 59q215 0 334 -145t119 -402q0 -125 -21 -258t-68 -257t-122 -223t-183 -157t-253 -58zM570 256q70 0 121.5 42.5t87 113.5t57 157t31.5 174t10 164q0 130 -41 199.5
t-125 69.5q-71 0 -124.5 -43.5t-91.5 -115.5t-61.5 -159t-34.5 -175t-11 -163q0 -133 46.5 -198.5t135.5 -65.5zM308 1544l3 13l403 354h240l280 -354l-3 -13h-290l-136 224h40l-223 -224h-314zM1127 1796v171q80 0 117 21.5t37 61.5q0 73 -122 73q-67 0 -150 -18l-19 178
q90 25 187 25q140 0 210.5 -66.5t70.5 -177.5q0 -118 -89 -190.5t-242 -77.5z" />
    <glyph glyph-name="uni1ED5" unicode="&#x1ed5;" 
d="M555 -34q-138 0 -246 59t-170 168.5t-62 261.5q0 128 39.5 241.5t115 201.5t182 138t241.5 50q144 0 248.5 -60t161 -169.5t56.5 -258.5q0 -131 -37.5 -245.5t-110 -201.5t-177.5 -136t-241 -49zM567 232q69 0 117.5 34.5t78.5 89.5t44 119t14 122q0 104 -44.5 163.5
t-134.5 59.5q-70 0 -120.5 -34.5t-82.5 -89.5t-47 -118.5t-15 -122.5q0 -103 50 -163t140 -60zM251 1221l3 13l403 354h240l280 -354l-3 -13h-290l-136 224h40l-223 -224h-314zM1070 1473v171q80 0 117 21.5t37 61.5q0 73 -122 73q-67 0 -150 -18l-19 178q90 25 187 25
q140 0 210.5 -66.5t70.5 -177.5q0 -118 -89 -190.5t-242 -77.5z" />
    <glyph glyph-name="uni1ED6" unicode="&#x1ed6;" 
d="M544 -34q-144 0 -249.5 64.5t-163 186t-57.5 291.5q0 123 22 256.5t70 258t125.5 225t188 159.5t258.5 59q215 0 334 -145t119 -402q0 -125 -21 -258t-68 -257t-122 -223t-183 -157t-253 -58zM570 256q70 0 121.5 42.5t87 113.5t57 157t31.5 174t10 164q0 130 -41 199.5
t-125 69.5q-71 0 -124.5 -43.5t-91.5 -115.5t-61.5 -159t-34.5 -175t-11 -163q0 -133 46.5 -198.5t135.5 -65.5zM308 1544l3 13l403 354h240l280 -354l-3 -13h-290l-136 224h40l-223 -224h-314zM1072 2000q-55 0 -102 20t-101 64q-41 34 -67.5 47.5t-53.5 13.5
q-71 0 -86 -86l-10 -56h-210l14 80q22 125 83.5 189.5t155.5 64.5q51 0 97.5 -19.5t99.5 -64.5q41 -34 67 -47.5t54 -13.5q35 0 56.5 20.5t28.5 64.5l9 57h210l-13 -80q-22 -133 -79 -193.5t-153 -60.5z" />
    <glyph glyph-name="uni1ED7" unicode="&#x1ed7;" 
d="M555 -34q-138 0 -246 59t-170 168.5t-62 261.5q0 128 39.5 241.5t115 201.5t182 138t241.5 50q144 0 248.5 -60t161 -169.5t56.5 -258.5q0 -131 -37.5 -245.5t-110 -201.5t-177.5 -136t-241 -49zM567 232q69 0 117.5 34.5t78.5 89.5t44 119t14 122q0 104 -44.5 163.5
t-134.5 59.5q-70 0 -120.5 -34.5t-82.5 -89.5t-47 -118.5t-15 -122.5q0 -103 50 -163t140 -60zM251 1221l3 13l403 354h240l280 -354l-3 -13h-290l-136 224h40l-223 -224h-314zM1015 1677q-55 0 -102 20t-101 64q-41 34 -67.5 47.5t-53.5 13.5q-71 0 -86 -86l-10 -56h-210
l14 80q22 125 83.5 189.5t155.5 64.5q51 0 97.5 -19.5t99.5 -64.5q41 -34 67 -47.5t54 -13.5q35 0 56.5 20.5t28.5 64.5l9 57h210l-13 -80q-22 -133 -79 -193.5t-153 -60.5z" />
    <glyph glyph-name="uni1ED8" unicode="&#x1ed8;" 
d="M544 -34q-144 0 -249.5 64.5t-163 186t-57.5 291.5q0 123 22 256.5t70 258t125.5 225t188 159.5t258.5 59q215 0 334 -145t119 -402q0 -125 -21 -258t-68 -257t-122 -223t-183 -157t-253 -58zM570 256q70 0 121.5 42.5t87 113.5t57 157t31.5 174t10 164q0 130 -41 199.5
t-125 69.5q-71 0 -124.5 -43.5t-91.5 -115.5t-61.5 -159t-34.5 -175t-11 -163q0 -133 46.5 -198.5t135.5 -65.5zM469 -586q-84 0 -142 57.5t-58 141.5q0 83 57.5 141t142.5 58q86 0 143 -58t57 -141q0 -84 -57 -141.5t-143 -57.5zM349 1638l2 14l354 364h294l226 -364
l-2 -14h-285l-121 295h65l-226 -295h-307z" />
    <glyph glyph-name="uni1ED9" unicode="&#x1ed9;" 
d="M555 -34q-138 0 -246 59t-170 168.5t-62 261.5q0 128 39.5 241.5t115 201.5t182 138t241.5 50q144 0 248.5 -60t161 -169.5t56.5 -258.5q0 -131 -37.5 -245.5t-110 -201.5t-177.5 -136t-241 -49zM567 232q69 0 117.5 34.5t78.5 89.5t44 119t14 122q0 104 -44.5 163.5
t-134.5 59.5q-70 0 -120.5 -34.5t-82.5 -89.5t-47 -118.5t-15 -122.5q0 -103 50 -163t140 -60zM475 -586q-84 0 -142 57.5t-58 141.5q0 83 57.5 141t142.5 58q86 0 143 -58t57 -141q0 -84 -57 -141.5t-143 -57.5zM252 1258l2 14l354 364h294l226 -364l-2 -14h-285l-121 295
h65l-226 -295h-307z" />
    <glyph glyph-name="uni1EDA" unicode="&#x1eda;" 
d="M544 -34q-144 0 -249.5 64.5t-163 186t-57.5 291.5q0 123 22.5 256.5t70.5 258t125 225t185.5 159.5t252.5 59q138 0 240.5 -72t159 -199.5t56.5 -295.5q0 -123 -21 -253.5t-67.5 -251.5t-121 -217.5t-182 -153.5t-250.5 -57zM570 256q70 0 121.5 42.5t87 113.5t57 157
t31.5 174t10 164q0 129 -40.5 199t-124.5 70q-71 0 -124.5 -43.5t-91.5 -115.5t-62 -159t-35 -175.5t-11 -162.5q0 -132 46.5 -198t135.5 -66zM967 1137l-35 120q94 26 140.5 66.5t46.5 102.5q0 41 -19.5 77t-66.5 75l240 202q61 -60 89.5 -125.5t28.5 -142.5
q0 -146 -112 -244t-312 -131zM588 1657l2 14l272 364h358l-3 -13l-353 -365h-276z" />
    <glyph glyph-name="uni1EDB" unicode="&#x1edb;" 
d="M535 -34q-135 0 -241 59t-166.5 168.5t-60.5 261.5q0 128 39.5 241.5t113.5 201.5t179 138t236 50q146 0 248 -67.5t155.5 -182t53.5 -254.5q0 -127 -36.5 -239t-108 -196.5t-175 -132.5t-237.5 -48zM548 232q67 0 113.5 34.5t75.5 89.5t42.5 119t13.5 122
q0 104 -42.5 164t-127.5 60q-68 0 -116.5 -34.5t-79.5 -89.5t-45.5 -119t-14.5 -123q0 -103 48 -163t133 -60zM914 754l-56 120q193 42 193 162q0 69 -77 137l231 188q114 -105 114 -240q0 -140 -107 -233t-298 -134zM505 1277l2 14l272 364h358l-3 -13l-353 -365h-276z" />
    <glyph glyph-name="uni1EDC" unicode="&#x1edc;" 
d="M544 -34q-144 0 -249.5 64.5t-163 186t-57.5 291.5q0 123 22.5 256.5t70.5 258t125 225t185.5 159.5t252.5 59q138 0 240.5 -72t159 -199.5t56.5 -295.5q0 -123 -21 -253.5t-67.5 -251.5t-121 -217.5t-182 -153.5t-250.5 -57zM570 256q70 0 121.5 42.5t87 113.5t57 157
t31.5 174t10 164q0 129 -40.5 199t-124.5 70q-71 0 -124.5 -43.5t-91.5 -115.5t-62 -159t-35 -175.5t-11 -162.5q0 -132 46.5 -198t135.5 -66zM967 1137l-35 120q94 26 140.5 66.5t46.5 102.5q0 41 -19.5 77t-66.5 75l240 202q61 -60 89.5 -125.5t28.5 -142.5
q0 -146 -112 -244t-312 -131zM664 1657l-225 365l2 13h338l144 -364l-3 -14h-256z" />
    <glyph glyph-name="uni1EDD" unicode="&#x1edd;" 
d="M535 -34q-135 0 -241 59t-166.5 168.5t-60.5 261.5q0 128 39.5 241.5t113.5 201.5t179 138t236 50q146 0 248 -67.5t155.5 -182t53.5 -254.5q0 -127 -36.5 -239t-108 -196.5t-175 -132.5t-237.5 -48zM548 232q67 0 113.5 34.5t75.5 89.5t42.5 119t13.5 122
q0 104 -42.5 164t-127.5 60q-68 0 -116.5 -34.5t-79.5 -89.5t-45.5 -119t-14.5 -123q0 -103 48 -163t133 -60zM914 754l-56 120q193 42 193 162q0 69 -77 137l231 188q114 -105 114 -240q0 -140 -107 -233t-298 -134zM605 1277l-225 365l2 13h338l144 -364l-3 -14h-256z" />
    <glyph glyph-name="uni1EDE" unicode="&#x1ede;" 
d="M544 -34q-144 0 -249.5 64.5t-163 186t-57.5 291.5q0 123 22.5 256.5t70.5 258t125 225t185.5 159.5t252.5 59q138 0 240.5 -72t159 -199.5t56.5 -295.5q0 -123 -21 -253.5t-67.5 -251.5t-121 -217.5t-182 -153.5t-250.5 -57zM570 256q70 0 121.5 42.5t87 113.5t57 157
t31.5 174t10 164q0 129 -40.5 199t-124.5 70q-71 0 -124.5 -43.5t-91.5 -115.5t-62 -159t-35 -175.5t-11 -162.5q0 -132 46.5 -198t135.5 -66zM967 1137l-35 120q94 26 140.5 66.5t46.5 102.5q0 41 -19.5 77t-66.5 75l240 202q61 -60 89.5 -125.5t28.5 -142.5
q0 -146 -112 -244t-312 -131zM672 1587l5 200q205 0 205 97q0 40 -32.5 59t-106.5 19q-87 0 -177 -19l-22 203q53 16 112.5 24t118.5 8q147 0 232 -75t85 -200q0 -147 -109.5 -229t-310.5 -87z" />
    <glyph glyph-name="uni1EDF" unicode="&#x1edf;" 
d="M535 -34q-135 0 -241 59t-166.5 168.5t-60.5 261.5q0 128 39.5 241.5t113.5 201.5t179 138t236 50q146 0 248 -67.5t155.5 -182t53.5 -254.5q0 -127 -36.5 -239t-108 -196.5t-175 -132.5t-237.5 -48zM548 232q67 0 113.5 34.5t75.5 89.5t42.5 119t13.5 122
q0 104 -42.5 164t-127.5 60q-68 0 -116.5 -34.5t-79.5 -89.5t-45.5 -119t-14.5 -123q0 -103 48 -163t133 -60zM914 754l-56 120q193 42 193 162q0 69 -77 137l231 188q114 -105 114 -240q0 -140 -107 -233t-298 -134zM579 1199l5 200q205 0 205 97q0 40 -32.5 59t-106.5 19
q-87 0 -177 -19l-22 203q53 16 112.5 24t118.5 8q147 0 232 -75t85 -200q0 -147 -109.5 -229t-310.5 -87z" />
    <glyph glyph-name="uni1EE0" unicode="&#x1ee0;" 
d="M544 -34q-144 0 -249.5 64.5t-163 186t-57.5 291.5q0 123 22.5 256.5t70.5 258t125 225t185.5 159.5t252.5 59q138 0 240.5 -72t159 -199.5t56.5 -295.5q0 -123 -21 -253.5t-67.5 -251.5t-121 -217.5t-182 -153.5t-250.5 -57zM570 256q70 0 121.5 42.5t87 113.5t57 157
t31.5 174t10 164q0 129 -40.5 199t-124.5 70q-71 0 -124.5 -43.5t-91.5 -115.5t-62 -159t-35 -175.5t-11 -162.5q0 -132 46.5 -198t135.5 -66zM967 1137l-35 120q94 26 140.5 66.5t46.5 102.5q0 41 -19.5 77t-66.5 75l240 202q61 -60 89.5 -125.5t28.5 -142.5
q0 -146 -112 -244t-312 -131zM935 1702q-59 0 -99 20.5t-89 70.5q-37 38 -58 53.5t-44 15.5q-26 0 -40 -18.5t-20 -54.5l-15 -84h-217l16 91q25 138 90.5 212t168.5 74q59 0 99 -20.5t89 -70.5q38 -38 58.5 -53.5t43.5 -15.5q26 0 40 18.5t20 54.5l15 84h217l-16 -91
q-25 -138 -90 -212t-169 -74z" />
    <glyph glyph-name="uni1EE1" unicode="&#x1ee1;" 
d="M535 -34q-135 0 -241 59t-166.5 168.5t-60.5 261.5q0 128 39.5 241.5t113.5 201.5t179 138t236 50q146 0 248 -67.5t155.5 -182t53.5 -254.5q0 -127 -36.5 -239t-108 -196.5t-175 -132.5t-237.5 -48zM548 232q67 0 113.5 34.5t75.5 89.5t42.5 119t13.5 122
q0 104 -42.5 164t-127.5 60q-68 0 -116.5 -34.5t-79.5 -89.5t-45.5 -119t-14.5 -123q0 -103 48 -163t133 -60zM914 754l-56 120q193 42 193 162q0 69 -77 137l231 188q114 -105 114 -240q0 -140 -107 -233t-298 -134zM874 1310q-59 0 -99 20.5t-89 70.5q-37 38 -58 53.5
t-44 15.5q-26 0 -40 -18.5t-20 -54.5l-15 -84h-217l16 91q25 138 90.5 212t168.5 74q59 0 99 -20.5t89 -70.5q38 -38 58.5 -53.5t43.5 -15.5q26 0 40 18.5t20 54.5l15 84h217l-16 -91q-25 -138 -90 -212t-169 -74z" />
    <glyph glyph-name="uni1EE2" unicode="&#x1ee2;" 
d="M544 -34q-144 0 -249.5 64.5t-163 186t-57.5 291.5q0 123 22.5 256.5t70.5 258t125 225t185.5 159.5t252.5 59q138 0 240.5 -72t159 -199.5t56.5 -295.5q0 -123 -21 -253.5t-67.5 -251.5t-121 -217.5t-182 -153.5t-250.5 -57zM570 256q70 0 121.5 42.5t87 113.5t57 157
t31.5 174t10 164q0 129 -40.5 199t-124.5 70q-71 0 -124.5 -43.5t-91.5 -115.5t-62 -159t-35 -175.5t-11 -162.5q0 -132 46.5 -198t135.5 -66zM967 1153l-35 120q89 31 133 78.5t44 120.5q0 53 -24 100.5t-77 97.5l243 187q138 -138 138 -313q0 -153 -112 -254.5
t-310 -136.5zM438 -586q-84 0 -142 57.5t-58 141.5q0 83 57.5 141t142.5 58q86 0 143 -58t57 -141q0 -84 -57 -141.5t-143 -57.5z" />
    <glyph glyph-name="uni1EE3" unicode="&#x1ee3;" 
d="M535 -34q-135 0 -241 59t-166.5 168.5t-60.5 261.5q0 128 39 241.5t112.5 201.5t179 138t238.5 50q141 0 243.5 -63t158 -173t55.5 -252q0 -131 -37 -245.5t-108.5 -201.5t-175 -136t-237.5 -49zM548 232q67 0 113.5 34.5t75.5 89.5t42.5 119t13.5 122q0 104 -42.5 164
t-127.5 60q-68 0 -116.5 -34.5t-79.5 -89.5t-45.5 -119t-14.5 -123q0 -103 48 -163t133 -60zM914 754l-56 120q193 48 193 194q0 93 -106 187l217 196q157 -135 157 -310q0 -143 -102.5 -241t-302.5 -146zM431 -586q-84 0 -142 57.5t-58 141.5q0 83 57.5 141t142.5 58
q86 0 143 -58t57 -141q0 -84 -57 -141.5t-143 -57.5z" />
    <glyph glyph-name="uni1EE4" unicode="&#x1ee4;" 
d="M565 -34q-140 0 -247 54.5t-167 151t-60 223.5q0 36 4 73t12 83l155 881h308l-162 -921q-4 -28 -6.5 -50t-2.5 -41q0 -76 46 -120t124 -44q85 0 139 56t73 162l169 958h308l-179 -1010q-38 -217 -172.5 -336.5t-341.5 -119.5zM469 -586q-84 0 -142 57.5t-58 141.5
q0 83 57.5 141t142.5 58q86 0 143 -58t57 -141q0 -84 -57 -141.5t-143 -57.5z" />
    <glyph glyph-name="uni1EE5" unicode="&#x1ee5;" 
d="M421 -34q-134 0 -217 88.5t-83 231.5q0 36 3 68t9 66l95 535l84 -128h-262l40 225h453l-105 -592q-8 -45 -11.5 -77.5t-3.5 -57.5q0 -51 23.5 -79t66.5 -28q73 0 127.5 98t88.5 289l79 447h306l-101 -568q-8 -48 -12 -79t-4 -55q0 -83 95 -83h42l-46 -262
q-57 -23 -118 -23q-99 0 -153.5 59t-54.5 166q0 30 5.5 62t18.5 78l49 -105l-80 11q-60 -149 -140.5 -218t-193.5 -69zM497 -586q-84 0 -142 57.5t-58 141.5q0 83 57.5 141t142.5 58q86 0 143 -58t57 -141q0 -84 -57 -141.5t-143 -57.5z" />
    <glyph glyph-name="uni1EE6" unicode="&#x1ee6;" 
d="M565 -34q-140 0 -247 54.5t-167 151t-60 223.5q0 36 4 73t12 83l155 881h308l-162 -921q-4 -28 -6.5 -50t-2.5 -41q0 -76 46 -120t124 -44q85 0 139 56t73 162l169 958h308l-179 -1010q-38 -217 -172.5 -336.5t-341.5 -119.5zM739 1554l5 200q205 0 205 97q0 40 -32.5 59
t-106.5 19q-87 0 -177 -19l-22 203q53 16 112.5 24t118.5 8q147 0 232 -75t85 -200q0 -147 -109.5 -229t-310.5 -87z" />
    <glyph glyph-name="uni1EE7" unicode="&#x1ee7;" 
d="M421 -34q-134 0 -217 88.5t-83 231.5q0 36 3 68t9 66l95 535l84 -128h-262l40 225h453l-105 -592q-8 -45 -11.5 -77.5t-3.5 -57.5q0 -51 23.5 -79t66.5 -28q73 0 127.5 98t88.5 289l79 447h306l-101 -568q-8 -48 -12 -79t-4 -55q0 -83 95 -83h42l-46 -262
q-57 -23 -118 -23q-99 0 -153.5 59t-54.5 166q0 30 5.5 62t18.5 78l49 -105l-80 11q-60 -149 -140.5 -218t-193.5 -69zM604 1172l5 200q205 0 205 97q0 40 -32.5 59t-106.5 19q-87 0 -177 -19l-22 203q53 16 112.5 24t118.5 8q147 0 232 -75t85 -200q0 -147 -109.5 -229
t-310.5 -87z" />
    <glyph glyph-name="uni1EE8" unicode="&#x1ee8;" 
d="M479 -34q-123 0 -217.5 50.5t-147.5 140t-53 207.5q0 35 4 70t11 79l162 919h296l-169 -959q-4 -26 -6 -45t-2 -36q0 -64 35 -101.5t96 -37.5q127 0 156 166l156 887q165 11 241 53.5t76 116.5q0 69 -66 129l231 189q108 -108 108 -250q0 -146 -116 -240.5t-334 -126.5
l122 76q0 -65 -4.5 -130.5t-16.5 -132.5l-110 -619q-34 -193 -152.5 -299t-299.5 -106zM534 1657l2 14l272 364h358l-3 -13l-353 -365h-276z" />
    <glyph glyph-name="uni1EE9" unicode="&#x1ee9;" 
d="M410 -34q-130 0 -210.5 85t-80.5 223q0 35 3.5 70t10.5 76l95 535l84 -128h-248l41 225h438l-105 -592q-10 -53 -13.5 -86.5t-3.5 -59.5q0 -45 24 -70.5t67 -25.5q72 0 128 99.5t89 287.5l66 373l101 18q83 15 119.5 42t36.5 71q0 28 -13.5 51.5t-47.5 52.5l219 201
q115 -103 115 -230q0 -87 -48.5 -153t-135 -102.5t-200.5 -36.5q-41 0 -70 7l237 122l-95 -537q-10 -53 -13 -82t-3 -52q0 -83 95 -83h42l-46 -262q-59 -23 -118 -23q-99 0 -153.5 59t-54.5 166q0 29 5.5 60t18.5 80l49 -105l-80 11q-62 -148 -145 -217.5t-200 -69.5z
M454 1277l2 14l272 364h358l-3 -13l-353 -365h-276z" />
    <glyph glyph-name="uni1EEA" unicode="&#x1eea;" 
d="M479 -34q-123 0 -217.5 50.5t-147.5 140t-53 207.5q0 35 4 70t11 79l162 919h296l-169 -959q-4 -26 -6 -45t-2 -36q0 -64 35 -101.5t96 -37.5q127 0 156 166l156 887q165 11 241 53.5t76 116.5q0 69 -66 129l231 189q108 -108 108 -250q0 -146 -116 -240.5t-334 -126.5
l122 76q0 -65 -4.5 -130.5t-16.5 -132.5l-110 -619q-34 -193 -152.5 -299t-299.5 -106zM617 1657l-225 365l2 13h338l144 -364l-3 -14h-256z" />
    <glyph glyph-name="uni1EEB" unicode="&#x1eeb;" 
d="M410 -34q-130 0 -210.5 85t-80.5 223q0 35 3.5 70t10.5 76l95 535l84 -128h-248l41 225h438l-105 -592q-10 -53 -13.5 -86.5t-3.5 -59.5q0 -45 24 -70.5t67 -25.5q72 0 128 99.5t89 287.5l66 373l101 18q83 15 119.5 42t36.5 71q0 28 -13.5 51.5t-47.5 52.5l219 201
q115 -103 115 -230q0 -87 -48.5 -153t-135 -102.5t-200.5 -36.5q-41 0 -70 7l237 122l-95 -537q-10 -53 -13 -82t-3 -52q0 -83 95 -83h42l-46 -262q-59 -23 -118 -23q-99 0 -153.5 59t-54.5 166q0 29 5.5 60t18.5 80l49 -105l-80 11q-62 -148 -145 -217.5t-200 -69.5z
M580 1277l-225 365l2 13h338l144 -364l-3 -14h-256z" />
    <glyph glyph-name="uni1EEC" unicode="&#x1eec;" 
d="M479 -34q-123 0 -217.5 50.5t-147.5 140t-53 207.5q0 35 4 70.5t11 78.5l162 919h296l-169 -959q-4 -26 -6 -45t-2 -36q0 -64 35 -101.5t96 -37.5q127 0 156 166l156 887q167 11 242 51t75 112q0 62 -60 118l231 190q102 -102 102 -241q0 -144 -116 -236.5t-334 -122.5
l122 76q0 -65 -4.5 -130.5t-16.5 -132.5l-110 -619q-34 -193 -152.5 -299t-299.5 -106zM599 1571l5 200q205 0 205 97q0 40 -32.5 59t-106.5 19q-87 0 -177 -19l-22 203q53 16 112.5 24t118.5 8q147 0 232 -75t85 -200q0 -147 -109.5 -229t-310.5 -87z" />
    <glyph glyph-name="uni1EED" unicode="&#x1eed;" 
d="M410 -34q-130 0 -210.5 85t-80.5 223q0 35 3.5 70t10.5 76l95 535l84 -128h-248l41 225h438l-105 -592q-10 -53 -13.5 -86.5t-3.5 -59.5q0 -45 24 -70.5t67 -25.5q72 0 128 99.5t89 287.5l66 373l101 18q83 15 119.5 42t36.5 71q0 28 -13.5 51.5t-47.5 52.5l219 201
q115 -103 115 -230q0 -87 -48.5 -153t-135 -102.5t-200.5 -36.5q-41 0 -70 7l237 122l-95 -537q-10 -53 -13 -82t-3 -52q0 -83 95 -83h42l-46 -262q-59 -23 -118 -23q-99 0 -153.5 59t-54.5 166q0 29 5.5 60t18.5 80l49 -105l-80 11q-62 -148 -145 -217.5t-200 -69.5z
M533 1191l5 200q205 0 205 97q0 40 -32.5 59t-106.5 19q-87 0 -177 -19l-22 203q53 16 112.5 24t118.5 8q147 0 232 -75t85 -200q0 -147 -109.5 -229t-310.5 -87z" />
    <glyph glyph-name="uni1EEE" unicode="&#x1eee;" 
d="M479 -34q-123 0 -217.5 50.5t-147.5 140t-53 207.5q0 35 4 70.5t11 78.5l162 919h296l-169 -959q-4 -26 -6 -45t-2 -36q0 -64 35 -101.5t96 -37.5q127 0 156 166l156 887q167 11 242 51t75 112q0 62 -60 118l231 190q102 -102 102 -241q0 -144 -116 -236.5t-334 -122.5
l122 76q0 -65 -4.5 -130.5t-16.5 -132.5l-110 -619q-34 -193 -152.5 -299t-299.5 -106zM887 1674q-59 0 -99 20.5t-89 70.5q-37 38 -58 53.5t-44 15.5q-26 0 -40 -18.5t-20 -54.5l-15 -84h-217l16 91q25 138 90.5 212t168.5 74q59 0 99 -20.5t89 -70.5q38 -38 58.5 -53.5
t43.5 -15.5q26 0 40 18.5t20 54.5l15 84h217l-16 -91q-25 -138 -90 -212t-169 -74z" />
    <glyph glyph-name="uni1EEF" unicode="&#x1eef;" 
d="M410 -34q-130 0 -210.5 85t-80.5 223q0 35 3.5 70t10.5 76l95 535l84 -128h-248l41 225h438l-105 -592q-10 -53 -13.5 -86.5t-3.5 -59.5q0 -45 24 -70.5t67 -25.5q72 0 128 99.5t89 287.5l66 373l101 18q83 15 119.5 42t36.5 71q0 28 -13.5 51.5t-47.5 52.5l219 201
q115 -103 115 -230q0 -87 -48.5 -153t-135 -102.5t-200.5 -36.5q-41 0 -70 7l237 122l-95 -537q-10 -53 -13 -82t-3 -52q0 -83 95 -83h42l-46 -262q-59 -23 -118 -23q-99 0 -153.5 59t-54.5 166q0 29 5.5 60t18.5 80l49 -105l-80 11q-62 -148 -145 -217.5t-200 -69.5z
M818 1286q-59 0 -99 20.5t-89 70.5q-37 38 -58 53.5t-44 15.5q-26 0 -40 -18.5t-20 -54.5l-15 -84h-217l16 91q25 138 90.5 212t168.5 74q59 0 99 -20.5t89 -70.5q38 -38 58.5 -53.5t43.5 -15.5q26 0 40 18.5t20 54.5l15 84h217l-16 -91q-25 -138 -90 -212t-169 -74z" />
    <glyph glyph-name="uni1EF0" unicode="&#x1ef0;" 
d="M481 -34q-127 0 -224 52t-152 144t-55 212q0 37 3.5 75t11.5 84l159 899h293l-165 -939q-5 -28 -6.5 -45.5t-1.5 -34.5q0 -73 42.5 -116.5t114.5 -43.5q78 0 127 51t67 152l172 976h99q79 0 122 32t43 90q0 32 -14.5 66t-47.5 74l246 163q96 -115 96 -253
q0 -97 -48.5 -167t-131.5 -107t-189 -37q-15 0 -29.5 2t-30.5 5l172 113l-178 -1010q-37 -212 -166 -324.5t-329 -112.5zM381 -586q-84 0 -142 57.5t-58 141.5q0 83 57.5 141t142.5 58q86 0 143 -58t57 -141q0 -84 -57 -141.5t-143 -57.5z" />
    <glyph glyph-name="uni1EF1" unicode="&#x1ef1;" 
d="M421 -34q-134 0 -217 88.5t-83 232.5q0 35 3 67t9 66l95 535l84 -128h-262l40 225h453l-105 -592q-7 -42 -11 -74t-4 -60q0 -53 24 -80.5t67 -27.5q72 0 126.5 98.5t88.5 288.5l79 447h79q74 0 116.5 29t42.5 81q0 59 -57 124l246 150q46 -52 67 -106.5t21 -113.5
q0 -88 -46.5 -153t-125.5 -100.5t-176 -35.5q-39 0 -76 8l207 74l-93 -525q-9 -51 -12.5 -81t-3.5 -53q0 -83 95 -83h42l-46 -262q-59 -23 -118 -23q-99 0 -153.5 59t-54.5 166q0 29 5.5 60t18.5 80l49 -105l-80 11q-61 -150 -141 -218.5t-193 -68.5zM507 -586
q-84 0 -142 57.5t-58 141.5q0 83 57.5 141t142.5 58q86 0 143 -58t57 -141q0 -84 -57 -141.5t-143 -57.5z" />
    <glyph glyph-name="Ygrave" unicode="&#x1ef2;" 
d="M462 438l-277 994h312l88 -356l46 -273h9l140 273l209 356h346l-626 -994h-247zM354 0l119 676h308l-119 -676h-308zM637 1638l-225 365l2 13h338l144 -364l-3 -14h-256z" />
    <glyph glyph-name="ygrave" unicode="&#x1ef3;" 
d="M184 -449q-172 0 -287 109l148 222q35 -33 68.5 -49t76.5 -16q48 0 79 24t62 79l153 276h78l135 381l230 475h332l-660 -1193q-89 -162 -184.5 -235t-230.5 -73zM419 -114l-240 1166h306l75 -475l24 -279h97zM594 1258l-225 365l2 13h338l144 -364l-3 -14h-256z" />
    <glyph glyph-name="uni1EF4" unicode="&#x1ef4;" 
d="M462 438l-277 994h312l88 -356l46 -273h9l140 273l209 356h346l-626 -994h-247zM354 0l119 676h308l-119 -676h-308zM455 -552q-84 0 -142 57.5t-58 141.5q0 83 57.5 141t142.5 58q86 0 143 -58t57 -141q0 -84 -57 -141.5t-143 -57.5z" />
    <glyph glyph-name="uni1EF5" unicode="&#x1ef5;" 
d="M184 -449q-172 0 -287 109l148 222q35 -33 68.5 -49t76.5 -16q48 0 79 24t62 79l153 276h78l135 381l230 475h332l-660 -1193q-89 -162 -184.5 -235t-230.5 -73zM419 -114l-240 1166h306l75 -475l24 -279h97zM793 -552q-84 0 -142 57.5t-58 141.5q0 83 57.5 141t142.5 58
q86 0 143 -58t57 -141q0 -84 -57 -141.5t-143 -57.5z" />
    <glyph glyph-name="uni1EF6" unicode="&#x1ef6;" 
d="M462 438l-277 994h312l88 -356l46 -273h9l140 273l209 356h346l-626 -994h-247zM354 0l119 676h308l-119 -676h-308zM668 1552l5 200q205 0 205 97q0 40 -32.5 59t-106.5 19q-87 0 -177 -19l-22 203q53 16 112.5 24t118.5 8q147 0 232 -75t85 -200q0 -147 -109.5 -229
t-310.5 -87z" />
    <glyph glyph-name="uni1EF7" unicode="&#x1ef7;" 
d="M184 -449q-172 0 -287 109l148 222q35 -33 68.5 -49t76.5 -16q48 0 79 24t62 79l153 276h78l135 381l230 475h332l-660 -1193q-89 -162 -184.5 -235t-230.5 -73zM419 -114l-240 1166h306l75 -475l24 -279h97zM630 1172l5 200q205 0 205 97q0 40 -32.5 59t-106.5 19
q-87 0 -177 -19l-22 203q53 16 112.5 24t118.5 8q147 0 232 -75t85 -200q0 -147 -109.5 -229t-310.5 -87z" />
    <glyph glyph-name="uni1EF8" unicode="&#x1ef8;" 
d="M462 438l-277 994h312l88 -356l46 -273h9l140 273l209 356h346l-626 -994h-247zM354 0l119 676h308l-119 -676h-308zM947 1639q-59 0 -99 20.5t-89 70.5q-37 38 -58 53.5t-44 15.5q-26 0 -40 -18.5t-20 -54.5l-15 -84h-217l16 91q25 138 90.5 212t168.5 74q59 0 99 -20.5
t89 -70.5q38 -38 58.5 -53.5t43.5 -15.5q26 0 40 18.5t20 54.5l15 84h217l-16 -91q-25 -138 -90 -212t-169 -74z" />
    <glyph glyph-name="uni1EF9" unicode="&#x1ef9;" 
d="M184 -449q-172 0 -287 109l148 222q35 -33 68.5 -49t76.5 -16q48 0 79 24t62 79l153 276h78l135 381l230 475h332l-660 -1193q-89 -162 -184.5 -235t-230.5 -73zM419 -114l-240 1166h306l75 -475l24 -279h97zM904 1259q-59 0 -99 20.5t-89 70.5q-37 38 -58 53.5t-44 15.5
q-26 0 -40 -18.5t-20 -54.5l-15 -84h-217l16 91q25 138 90.5 212t168.5 74q59 0 99 -20.5t89 -70.5q38 -38 58.5 -53.5t43.5 -15.5q26 0 40 18.5t20 54.5l15 84h217l-16 -91q-25 -138 -90 -212t-169 -74z" />
    <glyph glyph-name="endash" unicode="&#x2013;" 
d="M64 493l54 306h1060l-54 -306h-1060z" />
    <glyph glyph-name="emdash" unicode="&#x2014;" 
d="M47 493l54 306h1094l-54 -306h-1094z" />
    <glyph glyph-name="quoteleft" unicode="&#x2018;" 
d="M877 1492l109 -175q-99 -55 -176.5 -118.5t-142.5 -152.5l6 63q86 -6 139 -56t53 -127q0 -85 -56.5 -140t-144.5 -55q-91 0 -148.5 61t-57.5 159q0 105 53.5 204t148 185t217.5 152z" />
    <glyph glyph-name="quoteright" unicode="&#x2019;" 
d="M529 731l-109 175q99 55 177 119t142 152l-6 -63q-86 6 -139 56t-53 127q0 85 56.5 140t144.5 55q92 0 149 -61t57 -159q0 -105 -53.5 -204t-147.5 -184.5t-218 -152.5z" />
    <glyph glyph-name="quotesinglbase" unicode="&#x201a;" 
d="M333 -375l-109 175q99 55 177 119t142 152l-6 -63q-86 6 -139 56t-53 127q0 85 56.5 140t144.5 55q92 0 149 -61t57 -159q0 -105 -53.5 -204t-147.5 -184.5t-218 -152.5z" />
    <glyph glyph-name="quotedblleft" unicode="&#x201c;" 
d="M589 1492l109 -175q-99 -55 -176.5 -118.5t-142.5 -152.5l6 63q86 -6 139 -56t53 -127q0 -85 -56.5 -140t-144.5 -55q-91 0 -148.5 61t-57.5 159q0 105 53.5 204t148 185t217.5 152zM1102 1492l109 -175q-99 -55 -176.5 -118.5t-142.5 -152.5l6 63q86 -6 139 -56t53 -127
q0 -85 -56.5 -140t-144.5 -55q-91 0 -148.5 61t-57.5 159q0 105 53.5 204t148 185t217.5 152z" />
    <glyph glyph-name="quotedblright" unicode="&#x201d;" 
d="M298 731l-109 175q99 55 177 119t142 152l-6 -63q-86 6 -139 56t-53 127q0 85 56.5 140t144.5 55q92 0 149 -61t57 -159q0 -105 -53.5 -204t-147.5 -184.5t-218 -152.5zM811 731l-109 175q99 55 177 119t142 152l-6 -63q-86 6 -139 56t-53 127q0 85 56.5 140t144.5 55
q92 0 149 -61t57 -159q0 -105 -53.5 -204t-147.5 -184.5t-218 -152.5z" />
    <glyph glyph-name="quotedblbase" unicode="&#x201e;" 
d="M103 -375l-109 175q99 55 177 119t142 152l-6 -63q-86 6 -139 56t-53 127q0 85 56.5 140t144.5 55q92 0 149 -61t57 -159q0 -105 -53.5 -204t-147.5 -184.5t-218 -152.5zM616 -375l-109 175q99 55 177 119t142 152l-6 -63q-86 6 -139 56t-53 127q0 85 56.5 140t144.5 55
q92 0 149 -61t57 -159q0 -105 -53.5 -204t-147.5 -184.5t-218 -152.5z" />
    <glyph glyph-name="bullet" unicode="&#x2022;" 
d="M585 381q-81 0 -145.5 38t-102.5 103t-38 145q0 82 38 146.5t103 102t145 37.5q82 0 146.5 -37.5t102 -102t37.5 -146.5q0 -81 -37.5 -145.5t-102 -102.5t-146.5 -38z" />
    <glyph glyph-name="ellipsis" unicode="&#x2026;" 
d="M128 -34q-57 0 -95.5 42.5t-38.5 105.5q0 62 38 103.5t96 41.5t96 -41.5t38 -103.5q0 -63 -38.5 -105.5t-95.5 -42.5zM928 -34q-57 0 -95.5 42.5t-38.5 105.5q0 62 38 103.5t96 41.5t96 -41.5t38 -103.5q0 -63 -38 -105.5t-96 -42.5zM528 -34q-57 0 -95.5 42.5
t-38.5 105.5q0 62 38.5 103.5t95.5 41.5q58 0 96 -41.5t38 -103.5q0 -63 -38.5 -105.5t-95.5 -42.5z" />
    <glyph glyph-name="minute" unicode="&#x2032;" 
d="M343 839l204 621h349l-265 -621h-288z" />
    <glyph glyph-name="second" unicode="&#x2033;" 
d="M196 839l204 621h349l-265 -621h-288zM667 839l204 621h349l-265 -621h-288z" />
    <glyph glyph-name="guilsinglleft" unicode="&#x2039;" 
d="M721 8l-421 524l556 525l180 -184l-359 -346l247 -366z" />
    <glyph glyph-name="guilsinglright" unicode="&#x203a;" 
d="M481 1056l421 -524l-556 -525l-180 184l359 346l-247 366z" />
    <glyph glyph-name="fraction" unicode="&#x2044;" 
d="M-16 -34l1121 1494h177l-1121 -1494h-177z" />
    <glyph glyph-name="uni2074" unicode="&#x2074;" 
d="M629 687l56 320l39 40l65 368l9 -26h-27l-263 -279v-14h302l68 24h255l-43 -242h-893l42 233l581 602h257l-180 -1026h-268z" />
    <glyph glyph-name="dong" unicode="&#x20ab;" 
d="M423 220q-106 0 -191 50t-134.5 138.5t-49.5 203.5q0 86 30 168.5t86.5 149.5t137.5 107t183 40q115 0 189.5 -46.5t117.5 -139.5h9l115 654h269l-234 -1325h-259l26 149h-10q-48 -74 -119 -111.5t-166 -37.5zM-71 -176l46 262h1031l-46 -262h-1031zM529 439
q67 0 117.5 32.5t79 85t28.5 113.5q0 85 -52.5 137t-141.5 52q-75 0 -125 -33t-75.5 -85.5t-25.5 -109.5q0 -87 55 -139.5t140 -52.5zM477 1198l34 189h812l-34 -189h-812z" />
    <glyph glyph-name="Euro" unicode="&#x20ac;" 
d="M670 -34q-149 0 -259 66t-170 180t-60 259q0 32 3.5 69.5t11.5 82.5l50 280q29 160 103 287.5t193 201.5t280 74q316 0 437 -291l-225 -114q-61 153 -224 153q-90 0 -152 -42.5t-100 -117.5t-56 -173l-50 -281q-7 -37 -9.5 -66.5t-2.5 -58.5q0 -121 62.5 -189t166.5 -68
q77 0 132 34.5t101 113.5l207 -143q-79 -131 -187.5 -194t-251.5 -63zM-5 460l32 185h890l-33 -185h-889zM53 788l32 184h889l-32 -184h-889z" />
    <glyph glyph-name="trademark" unicode="&#x2122;" 
d="M662 610v848h144l116 -333l38 -148h10l38 148l116 333h144v-848h-136v310l22 264h-10l-122 -381h-114l-122 381h-10l22 -264v-310h-136zM269 610v812h154v-812h-154zM92 1324v134h508v-134h-508z" />
    <glyph glyph-name="arrowleft" unicode="&#x2190;" 
d="M595 37l-554 604l554 605l180 -171l-411 -414v-40l411 -413zM660 504l-428 46v182l428 47h470v-275h-470z" />
    <glyph glyph-name="arrowup" unicode="&#x2191;" 
d="M240 584l-170 180l572 523l572 -523l-171 -180l-381 380h-40zM499 -35v702l52 428h182l52 -428v-702h-286z" />
    <glyph glyph-name="arrowright" unicode="&#x2192;" 
d="M645 37l-181 171l412 413v40l-412 414l181 171l554 -605zM111 504v275h468l428 -47v-182l-428 -46h-468z" />
    <glyph glyph-name="arrowdown" unicode="&#x2193;" 
d="M593 -35l-572 524l170 179l382 -380h40l381 380l171 -179zM502 157l-52 428v702h286v-702l-52 -428h-182z" />
    <glyph glyph-name="arrowdblright" unicode="&#x21d2;" 
d="M606 -36l-149 145l446 449v167l-446 449l149 144l622 -677zM65 340v205h902v-108l-454 -97h-448zM65 737v205h448l454 -96v-109h-902z" />
    <glyph glyph-name="minus" unicode="&#x2212;" 
d="M119 499l50 285h952l-50 -285h-952z" />
    <glyph glyph-name="uni2215" unicode="&#x2215;" 
d="M-81 -34l1098 1494h330l-1098 -1494h-330z" />
    <glyph glyph-name="uni2237" unicode="&#x2237;" 
d="M955 791q-79 0 -132.5 54t-53.5 135q0 80 53.5 134t133 54t132.5 -54t53 -134q0 -81 -53 -135t-133 -54zM287 115q-80 0 -133.5 53.5t-53.5 134.5t53.5 135t133.5 54q79 0 132 -54t53 -135t-53 -134.5t-132 -53.5zM702.5 168.5q-53.5 53.5 -53.5 134.5t53.5 135t132.5 54
q80 0 133 -54t53 -135t-53 -134.5t-132.5 -53.5t-133 53.5zM273.5 845.5q-53.5 54.5 -53.5 134.5t53.5 134t133 54t132.5 -54t53 -134t-53 -134.5t-132.5 -54.5t-133 54.5z" />
    <glyph glyph-name="lessequal" unicode="&#x2264;" 
d="M1053 309l-924 335l49 279l1043 334l-53 -300l-448 -127l-252 -50l-2 -8l233 -58l403 -133zM15 -1l46 258h983l-45 -258h-984z" />
    <glyph glyph-name="greaterequal" unicode="&#x2265;" 
d="M70 309l53 300l448 127l252 50l2 8l-233 58l-403 133l49 272l924 -335l-49 -279zM15 -1l46 258h983l-45 -258h-984z" />
    <glyph glyph-name="uni2318" unicode="&#x2318;" 
d="M313 132q-120 0 -193.5 71.5t-73.5 187.5q0 122 80 193.5t215 71.5h48v120h-48q-135 0 -215 72t-80 193q0 116 73.5 187.5t193.5 71.5q122 0 192.5 -77.5t70.5 -211.5v-54h114v54q0 134 73 211.5t198 77.5q116 0 187.5 -71.5t71.5 -187.5q0 -121 -80 -193t-216 -72h-47
v-120h47q136 0 216 -71.5t80 -193.5q0 -116 -71.5 -187.5t-188.5 -71.5q-124 0 -197 77.5t-73 210.5v55h-114v-55q0 -133 -70.5 -210.5t-192.5 -77.5zM313 318q42 0 63 28t21 85v52h-48q-58 0 -86.5 -21.5t-28.5 -64.5q0 -36 21 -57.5t58 -21.5zM349 949h48v51
q0 59 -21.5 86.5t-65.5 27.5q-35 0 -55.5 -21.5t-20.5 -58.5q0 -42 29 -63.5t86 -21.5zM573 653h120v126h-120v-126zM952 318q37 0 58.5 21.5t21.5 57.5q0 43 -28.5 64.5t-87.5 21.5h-47v-52q0 -57 20.5 -85t62.5 -28zM869 949h47q58 0 87 21.5t29 63.5q0 37 -20.5 58.5
t-55.5 21.5q-43 0 -65 -27.5t-22 -86.5v-51z" />
    <glyph glyph-name="uni2325" unicode="&#x2325;" 
d="M742 143l-499 1146h280l499 -1146h-280zM52 1019v270h425l36 -270h-461zM801 143l-53 270h466v-270h-413zM753 1019v270h461v-270h-461z" />
    <glyph glyph-name="uni2500" unicode="&#x2500;" 
d="M-150 494v300h1500v-300h-1500z" />
    <glyph glyph-name="uni2501" unicode="&#x2501;" 
d="M-150 374v540h1500v-540h-1500z" />
    <glyph glyph-name="uni2502" unicode="&#x2502;" 
d="M450 -656v2600h300v-2600h-300z" />
    <glyph glyph-name="uni2503" unicode="&#x2503;" 
d="M330 -656v2600h540v-2600h-540z" />
    <glyph glyph-name="uni2504" unicode="&#x2504;" 
d="M867 494v300h266v-300h-266zM67 494v300h266v-300h-266zM467 494v300h266v-300h-266z" />
    <glyph glyph-name="uni2505" unicode="&#x2505;" 
d="M867 374v540h266v-540h-266zM67 374v540h266v-540h-266zM467 374v540h266v-540h-266z" />
    <glyph glyph-name="uni2506" unicode="&#x2506;" 
d="M450 366v556h300v-556h-300zM450 -467v555h300v-555h-300zM450 1200v555h300v-555h-300z" />
    <glyph glyph-name="uni2507" unicode="&#x2507;" 
d="M330 366v556h540v-556h-540zM330 -467v555h540v-555h-540zM330 1200v555h540v-555h-540z" />
    <glyph glyph-name="uni2508" unicode="&#x2508;" 
d="M938 494v300h225v-300h-225zM38 494v300h225v-300h-225zM338 494v300h225v-300h-225zM638 494v300h225v-300h-225z" />
    <glyph glyph-name="uni2509" unicode="&#x2509;" 
d="M938 374v540h225v-540h-225zM38 374v540h225v-540h-225zM338 374v540h225v-540h-225zM638 374v540h225v-540h-225z" />
    <glyph glyph-name="uni250A" unicode="&#x250a;" 
d="M450 1347v469h300v-469h-300zM450 -528v469h300v-469h-300zM450 97v469h300v-469h-300zM450 722v469h300v-469h-300z" />
    <glyph glyph-name="uni250B" unicode="&#x250b;" 
d="M330 1347v469h540v-469h-540zM330 -528v469h540v-469h-540zM330 97v469h540v-469h-540zM330 722v469h540v-469h-540z" />
    <glyph glyph-name="uni250C" unicode="&#x250c;" 
d="M450 -656v1450h900v-300h-600v-1150h-300z" />
    <glyph glyph-name="uni250D" unicode="&#x250d;" 
d="M450 -656v1570h900v-540h-600v-1030h-300z" />
    <glyph glyph-name="uni250E" unicode="&#x250e;" 
d="M330 -656v1450h1020v-300h-480v-1150h-540z" />
    <glyph glyph-name="uni250F" unicode="&#x250f;" 
d="M330 -656v1570h1020v-540h-480v-1030h-540z" />
    <glyph glyph-name="uni2510" unicode="&#x2510;" 
d="M450 -656v1150h-600v300h900v-1450h-300z" />
    <glyph glyph-name="uni2511" unicode="&#x2511;" 
d="M450 -656v1030h-600v540h900v-1570h-300z" />
    <glyph glyph-name="uni2512" unicode="&#x2512;" 
d="M330 -656v1150h-480v300h1020v-1450h-540z" />
    <glyph glyph-name="uni2513" unicode="&#x2513;" 
d="M330 -656v1030h-480v540h1020v-1570h-540z" />
    <glyph glyph-name="uni2514" unicode="&#x2514;" 
d="M450 494v1450h300v-1150h600v-300h-900z" />
    <glyph glyph-name="uni2515" unicode="&#x2515;" 
d="M450 374v1570h300v-1030h600v-540h-900z" />
    <glyph glyph-name="uni2516" unicode="&#x2516;" 
d="M330 494v1450h540v-1150h480v-300h-1020z" />
    <glyph glyph-name="uni2517" unicode="&#x2517;" 
d="M330 374v1570h540v-1030h480v-540h-1020z" />
    <glyph glyph-name="uni2518" unicode="&#x2518;" 
d="M-150 494v300h600v1150h300v-1450h-900z" />
    <glyph glyph-name="uni2519" unicode="&#x2519;" 
d="M-150 374v540h600v1030h300v-1570h-900z" />
    <glyph glyph-name="uni251A" unicode="&#x251a;" 
d="M-150 494v300h480v1150h540v-1450h-1020z" />
    <glyph glyph-name="uni251B" unicode="&#x251b;" 
d="M-150 374v540h480v1030h540v-1570h-1020z" />
    <glyph glyph-name="uni251C" unicode="&#x251c;" 
d="M450 -656v2600h300v-1150h600v-300h-600v-1150h-300z" />
    <glyph glyph-name="uni251D" unicode="&#x251d;" 
d="M450 -656v2600h300v-1030h600v-540h-600v-1030h-300z" />
    <glyph glyph-name="uni251E" unicode="&#x251e;" 
d="M450 -656v1150h-120v1450h540v-1150h480v-300h-600v-1150h-300z" />
    <glyph glyph-name="uni251F" unicode="&#x251f;" 
d="M330 -656v1450h120v1150h300v-1150h600v-300h-480v-1150h-540z" />
    <glyph glyph-name="uni2520" unicode="&#x2520;" 
d="M330 -656v2600h540v-1150h480v-300h-480v-1150h-540z" />
    <glyph glyph-name="uni2521" unicode="&#x2521;" 
d="M450 -656v1030h-120v1570h540v-1030h480v-540h-600v-1030h-300z" />
    <glyph glyph-name="uni2522" unicode="&#x2522;" 
d="M330 -656v1570h120v1030h300v-1030h600v-540h-480v-1030h-540z" />
    <glyph glyph-name="uni2523" unicode="&#x2523;" 
d="M330 -656v2600h540v-1030h480v-540h-480v-1030h-540z" />
    <glyph glyph-name="uni2524" unicode="&#x2524;" 
d="M450 -656v1150h-600v300h600v1150h300v-2600h-300z" />
    <glyph glyph-name="uni2525" unicode="&#x2525;" 
d="M450 -656v1030h-600v540h600v1030h300v-2600h-300z" />
    <glyph glyph-name="uni2526" unicode="&#x2526;" 
d="M450 -656v1150h-600v300h480v1150h540v-1450h-120v-1150h-300z" />
    <glyph glyph-name="uni2527" unicode="&#x2527;" 
d="M330 -656v1150h-480v300h600v1150h300v-1150h120v-1450h-540z" />
    <glyph glyph-name="uni2528" unicode="&#x2528;" 
d="M330 -656v1150h-480v300h480v1150h540v-2600h-540z" />
    <glyph glyph-name="uni2529" unicode="&#x2529;" 
d="M450 -656v1030h-600v540h480v1030h540v-1570h-120v-1030h-300z" />
    <glyph glyph-name="uni252A" unicode="&#x252a;" 
d="M330 -656v1030h-480v540h600v1030h300v-1030h120v-1570h-540z" />
    <glyph glyph-name="uni252B" unicode="&#x252b;" 
d="M330 -656v1030h-480v540h480v1030h540v-2600h-540z" />
    <glyph glyph-name="uni252C" unicode="&#x252c;" 
d="M450 -656v1150h-600v300h1500v-300h-600v-1150h-300z" />
    <glyph glyph-name="uni252D" unicode="&#x252d;" 
d="M450 -656v1030h-600v540h900v-120h600v-300h-600v-1150h-300z" />
    <glyph glyph-name="uni252E" unicode="&#x252e;" 
d="M450 -656v1150h-600v300h600v120h900v-540h-600v-1030h-300z" />
    <glyph glyph-name="uni252F" unicode="&#x252f;" 
d="M450 -656v1030h-600v540h1500v-540h-600v-1030h-300z" />
    <glyph glyph-name="uni2530" unicode="&#x2530;" 
d="M330 -656v1150h-480v300h1500v-300h-480v-1150h-540z" />
    <glyph glyph-name="uni2531" unicode="&#x2531;" 
d="M330 -656v1030h-480v540h1020v-120h480v-300h-480v-1150h-540z" />
    <glyph glyph-name="uni2532" unicode="&#x2532;" 
d="M330 -656v1150h-480v300h480v120h1020v-540h-480v-1030h-540z" />
    <glyph glyph-name="uni2533" unicode="&#x2533;" 
d="M330 -656v1030h-480v540h1500v-540h-480v-1030h-540z" />
    <glyph glyph-name="uni2534" unicode="&#x2534;" 
d="M-150 494v300h600v1150h300v-1150h600v-300h-1500z" />
    <glyph glyph-name="uni2535" unicode="&#x2535;" 
d="M-150 374v540h600v1030h300v-1150h600v-300h-600v-120h-900z" />
    <glyph glyph-name="uni2536" unicode="&#x2536;" 
d="M450 374v120h-600v300h600v1150h300v-1030h600v-540h-900z" />
    <glyph glyph-name="uni2537" unicode="&#x2537;" 
d="M-150 374v540h600v1030h300v-1030h600v-540h-1500z" />
    <glyph glyph-name="uni2538" unicode="&#x2538;" 
d="M-150 494v300h480v1150h540v-1150h480v-300h-1500z" />
    <glyph glyph-name="uni2539" unicode="&#x2539;" 
d="M-150 374v540h480v1030h540v-1150h480v-300h-480v-120h-1020z" />
    <glyph glyph-name="uni253A" unicode="&#x253a;" 
d="M330 374v120h-480v300h480v1150h540v-1030h480v-540h-1020z" />
    <glyph glyph-name="uni253B" unicode="&#x253b;" 
d="M-150 374v540h480v1030h540v-1030h480v-540h-1500z" />
    <glyph glyph-name="uni253C" unicode="&#x253c;" 
d="M450 -656v1150h-600v300h600v1150h300v-1150h600v-300h-600v-1150h-300z" />
    <glyph glyph-name="uni253D" unicode="&#x253d;" 
d="M450 -656v1030h-600v540h600v1030h300v-1150h600v-300h-600v-1150h-300z" />
    <glyph glyph-name="uni253E" unicode="&#x253e;" 
d="M450 -656v1150h-600v300h600v1150h300v-1030h600v-540h-600v-1030h-300z" />
    <glyph glyph-name="uni253F" unicode="&#x253f;" 
d="M450 -656v1030h-600v540h600v1030h300v-1030h600v-540h-600v-1030h-300z" />
    <glyph glyph-name="uni2540" unicode="&#x2540;" 
d="M450 -656v1150h-600v300h480v1150h540v-1150h480v-300h-600v-1150h-300z" />
    <glyph glyph-name="uni2541" unicode="&#x2541;" 
d="M330 -656v1150h-480v300h600v1150h300v-1150h600v-300h-480v-1150h-540z" />
    <glyph glyph-name="uni2542" unicode="&#x2542;" 
d="M330 -656v1150h-480v300h480v1150h540v-1150h480v-300h-480v-1150h-540z" />
    <glyph glyph-name="uni2543" unicode="&#x2543;" 
d="M450 -656v1030h-600v540h480v1030h540v-1150h480v-300h-480v-120h-120v-1030h-300z" />
    <glyph glyph-name="uni2544" unicode="&#x2544;" 
d="M450 -656v1030h-120v120h-480v300h480v1150h540v-1030h480v-540h-600v-1030h-300z" />
    <glyph glyph-name="uni2545" unicode="&#x2545;" 
d="M330 -656v1030h-480v540h600v1030h300v-1030h120v-120h480v-300h-480v-1150h-540z" />
    <glyph glyph-name="uni2546" unicode="&#x2546;" 
d="M330 -656v1150h-480v300h480v120h120v1030h300v-1030h600v-540h-480v-1030h-540z" />
    <glyph glyph-name="uni2547" unicode="&#x2547;" 
d="M450 -656v1030h-600v540h480v1030h540v-1030h480v-540h-600v-1030h-300z" />
    <glyph glyph-name="uni2548" unicode="&#x2548;" 
d="M330 -656v1030h-480v540h600v1030h300v-1030h600v-540h-480v-1030h-540z" />
    <glyph glyph-name="uni2549" unicode="&#x2549;" 
d="M330 -656v1030h-480v540h480v1030h540v-1150h480v-300h-480v-1150h-540z" />
    <glyph glyph-name="uni254A" unicode="&#x254a;" 
d="M330 -656v1150h-480v300h480v1150h540v-1030h480v-540h-480v-1030h-540z" />
    <glyph glyph-name="uni254B" unicode="&#x254b;" 
d="M330 -656v1030h-480v540h480v1030h540v-1030h480v-540h-480v-1030h-540z" />
    <glyph glyph-name="uni254C" unicode="&#x254c;" 
d="M750 494v300h300v-300h-300zM150 494v300h300v-300h-300z" />
    <glyph glyph-name="uni254D" unicode="&#x254d;" 
d="M750 374v540h300v-540h-300zM150 374v540h300v-540h-300z" />
    <glyph glyph-name="uni254E" unicode="&#x254e;" 
d="M450 957v625h300v-625h-300zM450 -293v625h300v-625h-300z" />
    <glyph glyph-name="uni254F" unicode="&#x254f;" 
d="M330 957v625h540v-625h-540zM330 -293v625h540v-625h-540z" />
    <glyph glyph-name="uni2550" unicode="&#x2550;" 
d="M-150 794v300h1500v-300h-1500zM-150 194v300h1500v-300h-1500z" />
    <glyph glyph-name="uni2551" unicode="&#x2551;" 
d="M750 -656v2600h300v-2600h-300zM150 -656v2600h300v-2600h-300z" />
    <glyph glyph-name="uni2552" unicode="&#x2552;" 
d="M450 -656v1750h900v-300h-600v-300h600v-300h-600v-850h-300z" />
    <glyph glyph-name="uni2553" unicode="&#x2553;" 
d="M150 -656v1450h1200v-300h-300v-1150h-300v1150h-300v-1150h-300z" />
    <glyph glyph-name="uni2554" unicode="&#x2554;" 
d="M150 -656v1750h1200v-300h-900v-1450h-300zM750 -656v1150h600v-300h-300v-850h-300z" />
    <glyph glyph-name="uni2555" unicode="&#x2555;" 
d="M450 -656v850h-600v300h600v300h-600v300h900v-1750h-300z" />
    <glyph glyph-name="uni2556" unicode="&#x2556;" 
d="M150 -656v1150h-300v300h1200v-1450h-300v1150h-300v-1150h-300z" />
    <glyph glyph-name="uni2557" unicode="&#x2557;" 
d="M750 -656v1450h-900v300h1200v-1750h-300zM150 -656v850h-300v300h600v-1150h-300z" />
    <glyph glyph-name="uni2558" unicode="&#x2558;" 
d="M450 194v1750h300v-850h600v-300h-600v-300h600v-300h-900z" />
    <glyph glyph-name="uni2559" unicode="&#x2559;" 
d="M150 494v1450h300v-1150h300v1150h300v-1150h300v-300h-1200z" />
    <glyph glyph-name="uni255A" unicode="&#x255a;" 
d="M150 194v1750h300v-1450h900v-300h-1200zM750 794v1150h300v-850h300v-300h-600z" />
    <glyph glyph-name="uni255B" unicode="&#x255b;" 
d="M-150 194v300h600v300h-600v300h600v850h300v-1750h-900z" />
    <glyph glyph-name="uni255C" unicode="&#x255c;" 
d="M-150 494v300h300v1150h300v-1150h300v1150h300v-1450h-1200z" />
    <glyph glyph-name="uni255D" unicode="&#x255d;" 
d="M-150 194v300h900v1450h300v-1750h-1200zM-150 794v300h300v850h300v-1150h-600z" />
    <glyph glyph-name="uni255E" unicode="&#x255e;" 
d="M450 -656v2600h300v-850h600v-300h-600v-300h600v-300h-600v-850h-300z" />
    <glyph glyph-name="uni255F" unicode="&#x255f;" 
d="M750 -656v2600h300v-1150h300v-300h-300v-1150h-300zM150 -656v2600h300v-2600h-300z" />
    <glyph glyph-name="uni2560" unicode="&#x2560;" 
d="M750 794v1150h300v-850h300v-300h-600zM750 -656v1150h600v-300h-300v-850h-300zM150 -656v2600h300v-2600h-300z" />
    <glyph glyph-name="uni2561" unicode="&#x2561;" 
d="M450 -656v850h-600v300h600v300h-600v300h600v850h300v-2600h-300z" />
    <glyph glyph-name="uni2562" unicode="&#x2562;" 
d="M150 -656v1150h-300v300h300v1150h300v-2600h-300zM750 -656v2600h300v-2600h-300z" />
    <glyph glyph-name="uni2563" unicode="&#x2563;" 
d="M-150 794v300h300v850h300v-1150h-600zM150 -656v850h-300v300h600v-1150h-300zM750 -656v2600h300v-2600h-300z" />
    </font>
</defs>
</svg>
