<?xml version="1.0" standalone="no"?>
<!DOCTYPE svg PUBLIC "-//W3C//DTD SVG 1.1//EN" "http://www.w3.org/Graphics/SVG/1.1/DTD/svg11.dtd" >
<svg xmlns="http://www.w3.org/2000/svg" xmlns:xlink="http://www.w3.org/1999/xlink" version="1.1">
<metadata>
Created by FontForge 20201107 at Thu Aug 21 16:28:35 2025
 By www-data
Copyright 2025 The Google Sans Code Project Authors (github.com/googlefonts/googlesans-code)
</metadata>
<defs>
<font id="GoogleSansCode-ExtraBoldItalic" horiz-adv-x="1200" >
  <font-face 
    font-family="Google Sans Code ExtraBold"
    font-weight="800"
    font-style="italic"
    font-stretch="normal"
    units-per-em="2000"
    panose-1="2 11 5 9 3 5 2 4 2 4"
    ascent="1600"
    descent="-400"
    x-height="1054"
    cap-height="1432"
    bbox="-444 -930 1637 2377"
    underline-thickness="168"
    underline-position="-404"
    slope="-10"
    unicode-range="U+000D-FFFD"
  />
<missing-glyph 
d="M174 0v1432h852v-1432h-852zM302 120h596v1192h-596v-1192z" />
    <glyph glyph-name=".notdef" 
d="M174 0v1432h852v-1432h-852zM302 120h596v1192h-596v-1192z" />
    <glyph glyph-name=".null" horiz-adv-x="0" 
 />
    <glyph glyph-name="nonmarkingreturn" horiz-adv-x="666" 
 />
    <glyph glyph-name="NULL" 
 />
    <glyph glyph-name="NULL" 
 />
    <glyph glyph-name="CR" unicode="&#xd;" 
 />
    <glyph glyph-name="space" unicode=" " 
 />
    <glyph glyph-name="exclam" unicode="!" 
d="M446 625l119 869h424l-211 -869h-332zM384 29q-64 64 -64 156t64 155.5t156 63.5q93 0 156.5 -63.5t63.5 -155.5t-64 -156t-156 -64t-156 64z" />
    <glyph glyph-name="quotedbl" unicode="&#x22;" 
d="M237 897l99 563h366l-99 -563h-366zM729 897l99 563h366l-99 -563h-366z" />
    <glyph glyph-name="numbersign" unicode="#" 
d="M504 -17l453 1467h261l-453 -1467h-261zM48 -17l452 1467h261l-452 -1467h-261zM-18 330l45 258h1101l-45 -258h-1101zM139 845l45 258h1101l-45 -258h-1101z" />
    <glyph glyph-name="dollar" unicode="$" 
d="M606 0q-196 0 -345.5 92.5t-236.5 267.5l286 164q119 -229 300 -229q74 0 117.5 35.5t43.5 95.5q0 47 -26.5 77.5t-86.5 55.5l-171 70q-141 58 -217.5 157t-76.5 224q0 124 62.5 219t173.5 149t255 54q391 0 539 -342l-295 -140q-74 189 -238 189q-67 0 -104 -27.5
t-37 -77.5q0 -78 111 -123l171 -70q152 -62 224 -156t72 -229q0 -139 -64 -241.5t-181 -158.5t-276 -56zM349 -236l59 332l7 42l7 38h292l-7 -38l-8 -42l-58 -332h-292zM616 1276l9 49l4 25l56 318h292l-56 -318l-4 -25l-9 -49h-292z" />
    <glyph glyph-name="percent" unicode="%" 
d="M118 277l-122 205l1153 673l122 -205zM794 -35q-136 0 -221 82t-85 213q0 103 45.5 184t124.5 128t178 47q137 0 221.5 -82t84.5 -213q0 -102 -45.5 -183.5t-124 -128.5t-178.5 -47zM804 163q53 0 88 42.5t35 104.5q0 52 -27 81.5t-74 29.5q-52 0 -87.5 -42.5
t-35.5 -104.5q0 -52 27.5 -81.5t73.5 -29.5zM432 814q-136 0 -221 82t-85 213q0 103 45.5 184t124.5 128t178 47q137 0 221.5 -82t84.5 -213q0 -102 -45.5 -183.5t-124 -128.5t-178.5 -47zM442 1012q53 0 88 42.5t35 104.5q0 52 -27 81.5t-74 29.5q-52 0 -87.5 -42.5
t-35.5 -104.5q0 -52 27.5 -81.5t73.5 -29.5z" />
    <glyph glyph-name="ampersand" unicode="&#x26;" 
d="M864 -61l-513 748q-76 112 -112 205t-36 178q0 119 56 208.5t157 139t235 49.5q195 0 310.5 -105t137.5 -303l-312 -42q-13 136 -125 136q-53 0 -86 -32.5t-33 -85.5q0 -37 14.5 -74.5t47.5 -84.5l524 -751zM455 -35q-133 0 -235 54t-160 150t-58 221q0 185 114 304
t336 166l61 -203q-88 -25 -130.5 -79.5t-42.5 -143.5q0 -78 47.5 -123.5t127.5 -45.5q93 0 158 61t110 195t76 353l321 -63q-60 -265 -167 -454.5t-249 -290.5t-309 -101z" />
    <glyph glyph-name="quotesingle" unicode="'" 
d="M483 897l99 563h366l-99 -563h-366z" />
    <glyph glyph-name="parenleft" unicode="(" 
d="M1012 1687l157 -267q-284 -159 -422 -376t-138 -505q0 -410 286 -672l-212 -226q-133 120 -226 267t-142 308.5t-49 322.5q0 363 188 655t558 493z" />
    <glyph glyph-name="parenright" unicode=")" 
d="M237 -353l-157 267q284 159 422 376t138 505q0 410 -286 672l212 226q133 -120 226 -267t142 -308t49 -323q0 -363 -188 -655t-558 -493z" />
    <glyph glyph-name="asterisk" unicode="*" 
d="M189 418l-110 218l539 231l480 263l110 -218l-535 -229zM1024 380l-434 311l-472 257l145 220l435 -311l471 -257zM420 205l200 1138h248l-200 -1138h-248z" />
    <glyph glyph-name="plus" unicode="+" 
d="M362 147l176 996h342l-176 -996h-342zM87 485l56 320h1012l-56 -320h-1012z" />
    <glyph glyph-name="comma" unicode="," 
d="M334 -384l-121 194q102 56 181 120t148 155l-8 -73q-91 7 -146 59.5t-55 133.5q0 92 60 150.5t154 58.5q98 0 159 -65.5t61 -170.5q0 -112 -54.5 -215t-152 -191t-226.5 -156z" />
    <glyph glyph-name="hyphen" unicode="-" 
d="M105 475l60 340h972l-60 -340h-972z" />
    <glyph glyph-name="period" unicode="." 
d="M571 -30q-92 0 -156 63.5t-64 154.5t64 154.5t156 63.5q93 0 156.5 -63t63.5 -155t-63 -155t-157 -63z" />
    <glyph glyph-name="slash" unicode="/" 
d="M-51 -176l949 1636h353l-949 -1636h-353z" />
    <glyph glyph-name="zero" unicode="0" 
d="M536 -35q-145 0 -246 63t-154 181.5t-53 283.5q0 102 19 230.5t63 259t118.5 240.5t184.5 177t262 67q146 0 247 -63t154 -181t53 -284q0 -102 -19 -230.5t-63.5 -259t-119 -240.5t-184.5 -177t-262 -67zM560 275q75 0 126.5 51t84.5 131t51 170t25 170t7 129
q0 116 -34.5 173.5t-113.5 57.5q-74 0 -125.5 -51t-84.5 -131t-51 -170t-25 -170t-7 -129q0 -115 34.5 -173t112.5 -58zM226 377l-96 248l912 430l96 -248z" />
    <glyph glyph-name="one" unicode="1" 
d="M436 120l158 895l-272 -121l-120 299l563 239h245l-231 -1312h-343zM44 0l55 316h1038l-55 -316h-1038z" />
    <glyph glyph-name="two" unicode="2" 
d="M7 0l47 265l565 525q59 55 93.5 95.5t49.5 74.5t15 68q0 44 -23.5 70.5t-69.5 26.5q-55 0 -98 -36.5t-86 -123.5l-306 141q91 185 224.5 273t315.5 88q126 0 219 -49.5t143.5 -136t50.5 -199.5q0 -86 -32 -160.5t-102.5 -155.5t-185.5 -186l-269 -246v-10h502l-58 -324
h-995z" />
    <glyph glyph-name="three" unicode="3" 
d="M600 -35q-152 0 -272 55t-195 155.5t-93 235.5l321 68q17 -92 71 -140t142 -48q80 0 127.5 42t47.5 112q0 61 -38 91t-117 30h-202l56 318h192q94 0 143 38.5t49 111.5q0 51 -34 79t-96 28q-67 0 -117.5 -34t-73.5 -96l-314 107q60 161 201 255t340 94q216 0 331 -105.5
t115 -281.5q0 -138 -87 -234t-242 -131l-1 -8q122 -28 184.5 -109t62.5 -212q0 -121 -65 -216t-178.5 -150t-257.5 -55z" />
    <glyph glyph-name="four" unicode="4" 
d="M549 0l78 442l31 52l97 551l24 -54h-42l-354 -411v-9h399l83 18h308l-54 -302h-1127l49 275l750 870h348l-252 -1432h-338z" />
    <glyph glyph-name="five" unicode="5" 
d="M576 -35q-213 0 -356.5 115t-184.5 318l324 78q20 -88 76.5 -136.5t140.5 -48.5q58 0 101.5 25.5t67.5 71t24 105.5q0 80 -49 126.5t-132 46.5q-56 0 -105.5 -21.5t-87.5 -62.5l-267 103l236 747h827l-55 -310h-575l-92 -266l8 -4q65 47 137 70.5t152 23.5
q167 0 261 -112.5t94 -307.5q0 -163 -70 -290t-193 -199t-282 -72z" />
    <glyph glyph-name="six" unicode="6" 
d="M579 -35q-149 0 -264.5 62.5t-181 172.5t-65.5 253q0 113 33.5 213.5t109.5 207.5t205 239l373 382l246 -237l-232 -208q-46 -42 -91 -72t-102 -58l3 -8q57 20 124 20q114 0 200 -52.5t133.5 -146t47.5 -218.5q0 -160 -69.5 -284.5t-191 -195t-278.5 -70.5zM589 294
q84 0 133.5 52.5t49.5 152.5q0 84 -44 132.5t-124 48.5q-58 0 -100.5 -25t-66 -72t-23.5 -114q0 -79 49 -127t126 -48z" />
    <glyph glyph-name="seven" unicode="7" 
d="M427 -35l-285 191l627 941v9h-570l57 326h1007l-47 -270z" />
    <glyph glyph-name="eight" unicode="8" 
d="M582 -35q-151 0 -268 54t-183 151t-66 225q0 137 82.5 239t223.5 149l2 13q-79 50 -121 123t-42 158q0 115 60.5 202.5t169.5 137.5t253 50q143 0 245 -47t156.5 -132t54.5 -199q0 -120 -71 -212t-194 -138l-2 -13q100 -52 153 -135.5t53 -197.5q0 -123 -64 -220
t-178 -152.5t-264 -55.5zM565 269q84 0 134.5 55.5t50.5 146.5q0 71 -42.5 111.5t-117.5 40.5q-82 0 -133.5 -56t-51.5 -147q0 -66 45 -108.5t115 -42.5zM667 886q69 0 112.5 43.5t43.5 109.5q0 60 -35.5 95t-95.5 35q-70 0 -113 -42.5t-43 -110.5q0 -60 35.5 -95t95.5 -35z
" />
    <glyph glyph-name="nine" unicode="9" 
d="M688 1467q150 0 265 -62.5t180.5 -172.5t65.5 -253q0 -112 -33 -213t-109.5 -208t-205.5 -239l-373 -382l-246 237l232 208q47 42 91.5 72t101.5 58l-3 8q-57 -20 -124 -20q-114 0 -200 52.5t-133.5 146.5t-47.5 218q0 161 69.5 285t191 194.5t278.5 70.5zM678 1138
q-84 0 -133.5 -52.5t-49.5 -152.5q0 -84 44.5 -132.5t123.5 -48.5q58 0 100.5 25t66 72.5t23.5 113.5q0 79 -49 127t-126 48z" />
    <glyph glyph-name="colon" unicode=":" 
d="M541 -30q-92 0 -156 63.5t-64 154.5t64 154.5t156 63.5q93 0 156.5 -63t63.5 -155t-63 -155t-157 -63zM660 653q-92 0 -156 63.5t-64 154.5t64 154.5t156 63.5q93 0 156.5 -63t63.5 -155t-63 -155t-157 -63z" />
    <glyph glyph-name="semicolon" unicode=";" 
d="M727 646q-92 0 -156 63.5t-64 154.5t64 154.5t156 63.5q93 0 156.5 -63t63.5 -155t-63 -155t-157 -63zM334 -384l-121 194q102 56 181 120t148 155l-8 -73q-91 7 -146 59.5t-55 133.5q0 92 60 150.5t154 58.5q98 0 159 -65.5t61 -170.5q0 -112 -54.5 -215t-152 -191
t-226.5 -156z" />
    <glyph glyph-name="less" unicode="&#x3c;" 
d="M989 9l-900 509l44 253l1080 510l-65 -365l-652 -290l-2 -8l553 -278z" />
    <glyph glyph-name="equal" unicode="=" 
d="M141 738l55 308h991l-55 -308h-991zM54 244l55 308h991l-55 -308h-991z" />
    <glyph glyph-name="greater" unicode="&#x3e;" 
d="M253 1281l900 -509l-44 -253l-1080 -510l65 365l652 290l2 8l-553 278z" />
    <glyph glyph-name="question" unicode="?" 
d="M391 467l53 302l209 82q107 42 152 84t45 100q0 50 -33.5 78t-94.5 28q-76 0 -138.5 -43.5t-100.5 -121.5l-304 133q82 171 232 264.5t343 93.5q205 0 325.5 -104.5t120.5 -283.5q0 -140 -73 -242.5t-224 -174.5l-137 -65l-23 -130h-352zM536 -35q-86 0 -148.5 62.5
t-62.5 150.5q0 86 61.5 145.5t149.5 59.5q89 0 150 -59.5t61 -145.5q0 -88 -62.5 -150.5t-148.5 -62.5z" />
    <glyph glyph-name="at" unicode="@" 
d="M679 -233q-190 0 -329 88.5t-215 251.5t-76 384q0 178 35 352.5t101 322.5q98 221 250 332t355 111q209 0 324 -111t115 -312q0 -34 -4 -74t-12 -87l-142 -808h-240l20 114h-9q-77 -125 -194 -125q-113 0 -181.5 99.5t-68.5 265.5q0 155 47 278t128 195t182 72
q156 0 197 -156h10l14 79q6 32 8.5 59t2.5 53q0 99 -55 154t-153 55q-239 0 -367 -306q-52 -124 -76.5 -258.5t-24.5 -289.5q0 -236 91 -362.5t261 -126.5q115 0 241 63l90 -233q-153 -80 -325 -80zM757 441q49 0 87 37t60 101.5t22 145.5q0 74 -30 115t-86 41
q-73 0 -121 -81t-48 -203q0 -74 30.5 -115t85.5 -41z" />
    <glyph glyph-name="A" unicode="A" 
d="M-90 0l695 1432h310l191 -1432h-350l-49 826l-12 228h-7l-82 -228l-341 -826h-355zM160 245l130 266h594l45 -266h-769z" />
    <glyph glyph-name="B" unicode="B" 
d="M24 0l252 1432h458q221 0 328.5 -95.5t107.5 -256.5q0 -130 -70 -220t-198 -135v-10q103 -45 156 -123.5t53 -194.5q0 -119 -59.5 -208.5t-166.5 -139t-250 -49.5h-611zM413 278h175q94 0 142.5 50.5t48.5 138.5q0 143 -162 143h-213l42 234h215q84 0 130.5 46t46.5 131
q0 62 -33.5 97.5t-108.5 35.5h-129z" />
    <glyph glyph-name="C" unicode="C" 
d="M609 -35q-156 0 -271 74t-177.5 209.5t-62.5 320.5q0 199 48 363.5t136.5 284.5t209.5 185t268 65q198 0 315.5 -117.5t145.5 -317.5l-326 -51q-10 76 -47 114t-100 38q-86 0 -154 -72.5t-107 -197.5t-39 -284q0 -137 46.5 -208.5t136.5 -71.5q66 0 110 43t73 134
l308 -119q-137 -392 -513 -392z" />
    <glyph glyph-name="D" unicode="D" 
d="M16 0l252 1432h338q268 0 409.5 -157.5t141.5 -456.5q0 -258 -78.5 -441t-227 -280t-358.5 -97h-477zM418 330h95q140 0 217 125t77 353q0 155 -47 224.5t-153 69.5h-53z" />
    <glyph glyph-name="E" unicode="E" 
d="M38 0l252 1432h916l-57 -322h-572l-138 -788h587l-57 -322h-931zM354 570l56 318h620l-56 -318h-620z" />
    <glyph glyph-name="F" unicode="F" 
d="M38 0l252 1432h931l-57 -326h-583l-195 -1106h-348zM344 510l56 320h656l-56 -320h-656z" />
    <glyph glyph-name="G" unicode="G" 
d="M627 -35q-163 0 -286 73t-191 205.5t-68 308.5q0 276 84.5 482t236.5 319.5t356 113.5q198 0 319 -106.5t152 -309.5l-326 -51q-12 71 -52.5 106t-109.5 35q-96 0 -165.5 -70t-107 -199.5t-37.5 -309.5q0 -133 55 -205t155 -72q88 0 140 57t67 170l6 45h-256l48 271h563
l-47 -336q-35 -253 -175 -390t-361 -137z" />
    <glyph glyph-name="H" unicode="H" 
d="M652 0l252 1432h348l-252 -1432h-348zM15 0l252 1432h348l-252 -1432h-348zM336 566l57 326h557l-57 -326h-557z" />
    <glyph glyph-name="I" unicode="I" 
d="M360 155l198 1122h350l-198 -1122h-350zM38 0l57 326h939l-57 -326h-939zM233 1106l57 326h939l-57 -326h-939z" />
    <glyph glyph-name="J" unicode="J" 
d="M565 -35q-202 0 -336 114t-158 309l336 70q19 -159 150 -159q64 0 102.5 44t54.5 134l168 955h350l-180 -1021q-38 -216 -161 -331t-326 -115z" />
    <glyph glyph-name="K" unicode="K" 
d="M942 -35q-76 0 -136 27t-109.5 98t-94.5 202l-155 451l1 9l476 680h402l-560 -779l24 132l151 -396q21 -55 56 -79.5t98 -24.5h34l-52 -295q-30 -12 -65 -18.5t-70 -6.5zM-22 0l252 1432h348l-252 -1432h-348z" />
    <glyph glyph-name="L" unicode="L" 
d="M56 0l252 1432h348l-194 -1104h623l-58 -328h-971z" />
    <glyph glyph-name="M" unicode="M" 
d="M-50 0l252 1432h332l57 -378l31 -306h16l139 306l180 378h360l-252 -1432h-324l70 400l114 465h-16l-215 -441h-230l-60 441h-16l-44 -465l-70 -400h-324z" />
    <glyph glyph-name="N" unicode="N" 
d="M-34 0l252 1432h326l281 -836h9l42 328l89 508h336l-252 -1432h-302l-297 879h-9l-42 -328l-97 -551h-336z" />
    <glyph glyph-name="O" unicode="O" 
d="M541 -35q-145 0 -251.5 64.5t-165 186t-58.5 293.5q0 118 21 249.5t68.5 257t125.5 227.5t191 163t267 61q218 0 339 -146.5t121 -404.5q0 -118 -20.5 -249t-67 -255.5t-123 -225.5t-187 -161t-260.5 -60zM573 299q63 0 109.5 41t78.5 108t51.5 147.5t28 161t8.5 146.5
q0 109 -35 169.5t-107 60.5q-64 0 -112.5 -41.5t-82.5 -110t-55 -150t-31 -162.5t-10 -147q0 -113 40 -168t117 -55z" />
    <glyph glyph-name="P" unicode="P" 
d="M18 0l252 1432h367q258 0 398.5 -126.5t140.5 -356.5q0 -160 -66 -276.5t-187.5 -179.5t-288.5 -63h-339l55 314h292q90 0 139 51.5t49 145.5q0 87 -44 132t-129 45h-98l-197 -1118h-344z" />
    <glyph glyph-name="Q" unicode="Q" 
d="M549 35q-150 0 -258 57t-166.5 171t-58.5 286q0 106 21 230t68.5 245.5t125.5 221.5t191 160.5t267 60.5q218 0 339 -146.5t121 -404.5q0 -112 -20 -234t-65 -237t-120 -207.5t-185 -147.5t-260 -55zM928 -434q-106 0 -186.5 52.5t-149.5 168.5q-43 74 -69 112t-47 52
t-49 14q-59 0 -93.5 -61.5t-52.5 -182.5l-331 63q30 200 146 316t291 116q137 0 224.5 -48t153.5 -155q44 -70 75.5 -98.5t69.5 -28.5q30 0 54 10.5t54 33.5l145 -294q-57 -36 -111.5 -53t-123.5 -17zM573 299q63 0 109.5 41t78.5 108t51.5 147.5t28 161t8.5 146.5
q0 109 -35 169.5t-107 60.5q-64 0 -112.5 -41.5t-82.5 -108.5t-55 -146.5t-31 -157t-10 -137.5q0 -121 40 -182t117 -61z" />
    <glyph glyph-name="R" unicode="R" 
d="M8 0l252 1432h398q171 0 283 -53t167 -146t55 -213q0 -163 -65 -282t-185.5 -183.5t-285.5 -64.5h-332l51 290h289q51 0 85.5 15t56 41.5t31 62t9.5 75.5q0 65 -42 104.5t-139 39.5h-89l-197 -1118h-342zM937 -35q-73 0 -134 26.5t-110 97.5t-90 203l-100 326h327
l111 -234q26 -53 58 -76t91 -23h34l-52 -295q-30 -12 -65 -18.5t-70 -6.5z" />
    <glyph glyph-name="S" unicode="S" 
d="M607 -35q-235 0 -388.5 126.5t-189.5 349.5l329 58q15 -105 79.5 -162.5t167.5 -57.5q79 0 122.5 33t43.5 94q0 53 -32 88.5t-108 69.5l-186 85q-115 53 -177 146t-62 221q0 133 65 234.5t182 159t273 57.5q218 0 349 -102.5t164 -296.5l-329 -57q-23 142 -195 142
q-77 0 -120 -32t-43 -87q0 -40 23.5 -67.5t76.5 -51.5l181 -83q150 -69 217 -167t67 -244q0 -135 -64 -238t-178.5 -160.5t-267.5 -57.5z" />
    <glyph glyph-name="T" unicode="T" 
d="M333 0l222 1261h350l-222 -1261h-350zM170 1104l58 328h1064l-58 -328h-1064z" />
    <glyph glyph-name="U" unicode="U" 
d="M556 -35q-141 0 -248.5 55t-167.5 153t-60 228q0 39 4 78.5t13 88.5l153 864h348l-161 -913q-5 -29 -7 -46t-2 -34q0 -64 39.5 -102t106.5 -38q73 0 119 48t62 139l167 946h348l-178 -1006q-39 -220 -178.5 -340.5t-357.5 -120.5z" />
    <glyph glyph-name="V" unicode="V" 
d="M362 0l-200 1432h352l62 -746v-308h7l96 308l325 746h354l-704 -1432h-292z" />
    <glyph glyph-name="W" unicode="W" 
d="M107 0l72 1432h309l-105 -926h6l98 275l124 369h182l10 -369l-13 -275h6l208 926h337l-432 -1432h-284l1 467l15 262h-6l-93 -262l-167 -467h-268z" />
    <glyph glyph-name="X" unicode="X" 
d="M732 0l-235 655l-15 21l-299 756h367l214 -582l15 -21l320 -829h-367zM-85 0l578 808l35 16l438 608h369l-558 -776l-35 -16l-458 -640h-369z" />
    <glyph glyph-name="Y" unicode="Y" 
d="M443 409l-271 1023h356l68 -319l45 -288h9l134 288l176 319h388l-631 -1023h-274zM334 0l122 692h348l-122 -692h-348z" />
    <glyph glyph-name="Z" unicode="Z" 
d="M-1 0l51 291l713 817h-546l57 324h980l-51 -291l-713 -817h582l-57 -324h-1016z" />
    <glyph glyph-name="bracketleft" unicode="[" 
d="M1207 1597l-49 -282h-427l-226 -1288h427l-49 -282h-775l325 1852h774z" />
    <glyph glyph-name="backslash" unicode="\" 
d="M612 -176l-377 1636h313l377 -1636h-313z" />
    <glyph glyph-name="bracketright" unicode="]" 
d="M42 -267l49 282h427l226 1288h-427l49 282h775l-325 -1852h-774z" />
    <glyph glyph-name="asciicircum" unicode="^" 
d="M34 628l566 804h296l306 -804h-352l-147 423h-11l-274 -423h-384z" />
    <glyph glyph-name="underscore" unicode="_" 
d="M-78 -325l51 290h1056l-51 -290h-1056z" />
    <glyph glyph-name="grave" unicode="`" 
d="M651 882l-238 578h380l148 -578h-290z" />
    <glyph glyph-name="a" unicode="a" 
d="M389 -35q-163 0 -258 121t-95 326q0 194 63 347t172 241.5t247 88.5q94 0 160.5 -48.5t86.5 -131.5h81l-85 -100l46 264h315l-104 -589q-7 -38 -10 -62t-3 -43q0 -79 93 -79h36l-52 -295q-30 -12 -60 -18.5t-65 -6.5q-103 0 -160.5 62t-57.5 174q0 29 5 59t18 74l49 -113
l-82 10q-46 -136 -133.5 -208.5t-206.5 -72.5zM510 265q71 0 118 81.5t78 257.5l18 102q-25 43 -57 63t-76 20q-65 0 -116 -42.5t-80 -117.5t-29 -171q0 -93 37.5 -143t106.5 -50z" />
    <glyph glyph-name="b" unicode="b" 
d="M666 -35q-201 0 -288 180h-77l88 61l-77 -206h-299l258 1460h342l-106 -603l-55 45h75q59 94 137 140.5t176 46.5q135 0 208.5 -102t73.5 -290q0 -212 -59 -377.5t-161.5 -260t-235.5 -94.5zM550 265q65 0 116 45t80.5 122.5t29.5 177.5q0 179 -117 179q-82 0 -138 -84
t-86 -253l-20 -113q23 -36 58 -55t77 -19z" />
    <glyph glyph-name="c" unicode="c" 
d="M643 -35q-160 0 -281 65t-189 181.5t-68 268.5q0 182 74 319t205.5 213.5t305.5 76.5q215 0 335 -118t127 -328l-329 -26q0 182 -145 182q-70 0 -123.5 -41t-83.5 -110t-30 -154q0 -100 60 -159.5t160 -59.5q68 0 125 26.5t116 86.5l190 -245q-100 -92 -206 -135
t-243 -43z" />
    <glyph glyph-name="d" unicode="d" 
d="M389 -35q-163 0 -258 121t-95 326q0 194 63 347t172 241.5t247 88.5q95 0 161.5 -48.5t86.5 -131.5h81l-86 -100l116 651h315l-174 -976q-7 -38 -10 -62t-3 -43q0 -79 93 -79h36l-52 -295q-30 -12 -60 -18.5t-65 -6.5q-103 0 -160.5 62t-57.5 174q0 29 5 59t18 74
l49 -113l-82 10q-46 -136 -133.5 -208.5t-206.5 -72.5zM510 265q71 0 118 81.5t78 257.5l18 102q-25 43 -57 63t-76 20q-65 0 -116 -42.5t-80 -117.5t-29 -171q0 -93 37.5 -143t106.5 -50z" />
    <glyph glyph-name="e" unicode="e" 
d="M609 -35q-157 0 -277 67t-187.5 184t-67.5 266q0 124 42 233.5t122.5 193.5t195 132t259.5 48q203 0 307 -94t104 -234q0 -126 -84.5 -201.5t-262.5 -109t-458 -33.5l-15 172q174 3 287 16.5t168 42.5t55 79q0 38 -26.5 60t-85.5 22q-88 0 -153 -43.5t-101 -116
t-36 -159.5q0 -108 58 -166.5t164 -58.5q71 0 130.5 27.5t118.5 88.5l182 -235q-91 -92 -196.5 -136.5t-242.5 -44.5z" />
    <glyph glyph-name="f" unicode="f" 
d="M144 -471q-155 0 -273 53l112 275q61 -34 128 -34q74 0 117 40t56 126l167 1053q34 213 173.5 331.5t355.5 118.5q95 0 169.5 -15.5t144.5 -51.5l-112 -275q-46 25 -93.5 36.5t-104.5 11.5q-181 0 -208 -167l-13 -82l5 -84l-145 -919q-34 -212 -159.5 -314.5
t-319.5 -102.5zM126 718l44 252h1022l-44 -252h-1022z" />
    <glyph glyph-name="g" unicode="g" 
d="M483 -574q-170 0 -303.5 47t-209.5 132t-76 197q0 92 52.5 166.5t146.5 122t218 57.5l19 -125q-71 -32 -103.5 -80.5t-32.5 -104.5q0 -89 81 -135t220 -46q129 0 195 36t66 97q0 43 -28.5 70t-102.5 41l-500 97v45l256 318l171 -33l-64 -139l265 -51
q164 -31 233.5 -108.5t69.5 -195.5q0 -120 -72.5 -212t-201.5 -144t-299 -52zM623 270q-137 0 -245.5 51.5t-171 141t-62.5 201.5q0 103 56 200.5t167 161t274 63.5q131 0 236.5 -53t168 -143.5t62.5 -201.5q0 -107 -58.5 -203.5t-167 -157t-259.5 -60.5zM628 530
q56 0 96 19.5t62 54.5t22 80q0 66 -47 104.5t-127 38.5q-63 0 -105.5 -21.5t-63.5 -57.5t-21 -80q0 -65 49 -101.5t135 -36.5zM915 933l-108 65q61 166 182.5 229.5t299.5 63.5l-47 -266q-109 0 -184.5 -18.5t-142.5 -73.5z" />
    <glyph glyph-name="h" unicode="h" 
d="M913 -20q-126 0 -197 72.5t-71 199.5q0 44 7.5 87t20.5 101l38 158q10 41 14 71t4 55q0 43 -17.5 63t-54.5 20q-49 0 -92.5 -40t-76 -112.5t-49.5 -170.5l-85 -484h-346l257 1460h346l-107 -611l-31 45h48q141 195 324 195q107 0 167.5 -61.5t60.5 -171.5q0 -40 -6 -84.5
t-19 -98.5l-49 -204q-10 -40 -13 -58.5t-3 -31.5q0 -79 94 -79h33l-52 -295q-37 -12 -72.5 -18.5t-72.5 -6.5z" />
    <glyph glyph-name="i" unicode="i" 
d="M801 -35q-189 0 -300 102t-111 279q0 29 4.5 64.5t12.5 82.5l82 464l82 -153h-392l44 250h620l-101 -575q-4 -25 -6 -42.5t-2 -35.5q0 -63 29 -97.5t86 -34.5q53 0 114 40l127 -268q-130 -76 -289 -76zM733 1235q-88 0 -150.5 60.5t-62.5 147.5q0 89 61 148t152 59
q92 0 151.5 -58.5t59.5 -148.5q0 -88 -60.5 -148t-150.5 -60z" />
    <glyph glyph-name="j" unicode="j" 
d="M334 -451q-243 0 -420 162l202 222q92 -86 196 -86q141 0 170 164l184 1043h344l-183 -1043q-38 -220 -167.5 -341t-325.5 -121zM239 804l44 250h639l-44 -250h-639zM874 1235q-89 0 -151 60.5t-62 147.5q0 89 61 148t152 59q92 0 151.5 -58.5t59.5 -148.5
q0 -88 -60.5 -148t-150.5 -60z" />
    <glyph glyph-name="k" unicode="k" 
d="M707 0l-283 564l1 8l426 482h402l-521 -559l20 114l317 -609h-362zM-3 0l258 1460h342l-258 -1460h-342z" />
    <glyph glyph-name="l" unicode="l" 
d="M742 -35q-191 0 -307 98.5t-116 260.5q0 35 5 78.5t15 102.5l149 842l132 -147h-443l46 260h629l-175 -990q-4 -25 -7 -46.5t-3 -37.5q0 -54 34.5 -85.5t92.5 -31.5q37 0 69 11t72 37l127 -268q-79 -43 -155 -63.5t-165 -20.5z" />
    <glyph glyph-name="m" unicode="m" 
d="M1014 -20q-117 0 -183 64.5t-66 179.5q0 44 5.5 82t17.5 91l76 337q8 37 8 56q0 36 -36 36q-33 0 -59 -41t-46 -154l-111 -631h-282l129 734q2 14 3.5 26t1.5 24q0 42 -36 42q-32 0 -58.5 -41t-46.5 -154l-111 -631h-282l185 1054h270l-37 -210l-57 65h82q40 99 99 139.5
t128 40.5q80 0 117 -50.5t37 -139.5q0 -24 -3 -53l-15 -3q41 125 109.5 185.5t154.5 60.5q88 0 127 -50t39 -130q0 -36 -5 -75t-16 -86l-81 -359q-7 -28 -10 -46.5t-3 -30.5q0 -69 77 -69h32l-39 -238q-61 -25 -115 -25z" />
    <glyph glyph-name="n" unicode="n" 
d="M928 -20q-130 0 -204 72.5t-74 199.5q0 44 7.5 87t20.5 101l38 158q11 44 17 75.5t6 58.5q0 37 -17 56t-53 19q-49 0 -91.5 -40.5t-74.5 -113.5t-49 -171l-85 -482h-346l186 1053h328l-36 -204l-31 45h48q144 195 349 195q113 0 173.5 -61.5t60.5 -165.5q0 -42 -7 -88
t-21 -101l-49 -204q-10 -40 -13 -58.5t-3 -31.5q0 -79 94 -79h33l-52 -295q-81 -25 -155 -25z" />
    <glyph glyph-name="o" unicode="o" 
d="M556 -35q-140 0 -251 59.5t-175 171t-64 265.5q0 131 41 245t118.5 200t185.5 134.5t242 48.5q148 0 255 -61.5t165.5 -172.5t58.5 -262q0 -136 -39 -250.5t-114 -199t-181.5 -131.5t-241.5 -47zM570 263q62 0 104.5 30.5t69 80.5t38.5 107.5t12 111.5q0 91 -38.5 144.5
t-116.5 53.5q-62 0 -106.5 -30.5t-73 -80.5t-42 -107.5t-13.5 -111.5q0 -91 43.5 -144.5t122.5 -53.5z" />
    <glyph glyph-name="p" unicode="p" 
d="M-56 -436l263 1490h300l11 -237l-66 85h75q59 94 137 140.5t176 46.5q135 0 208.5 -102t73.5 -290q0 -212 -59 -377.5t-161.5 -260t-235.5 -94.5q-187 0 -267 159h-77l77 82l-113 -642h-342zM550 265q65 0 116 45t80.5 122.5t29.5 177.5q0 179 -117 179q-82 0 -138 -84
t-86 -253l-20 -113q23 -36 58 -55t77 -19z" />
    <glyph glyph-name="q" unicode="q" 
d="M261 -436l48 250h400l-195 -144l114 589l35 -127l-72 11q-47 -58 -101 -89t-125 -31q-152 0 -240 116t-88 311q0 185 60 329t164.5 227t237.5 83q195 0 256 -180h78l-83 -100l52 264h330l-283 -1453l-48 194h263l-48 -250h-755zM498 295q71 0 120.5 76t77.5 232l23 130
q-20 43 -52 63.5t-77 20.5q-65 0 -115.5 -44t-79 -120.5t-28.5 -176.5q0 -87 34 -134t97 -47z" />
    <glyph glyph-name="r" unicode="r" 
d="M132 0l168 957l110 -155h-335l44 252h484l-54 -307l-70 40h93q150 302 411 302q131 0 221 -64l-113 -300q-53 34 -100.5 48t-108.5 14q-139 0 -229 -113.5t-131 -349.5l-57 -324h-333zM819 543l80 453l305 29l-85 -482h-300z" />
    <glyph glyph-name="s" unicode="s" 
d="M585 -35q-138 0 -271.5 51.5t-238.5 145.5l171 222q170 -152 345 -152q58 0 87.5 19.5t29.5 55.5q0 47 -72 71l-148 50q-137 47 -210 131.5t-73 197.5q0 100 51.5 174.5t144.5 116t217 41.5q127 0 233 -38.5t212 -118.5l-171 -222q-75 60 -145 89.5t-135 29.5
q-47 0 -73 -16.5t-26 -48.5q0 -23 16.5 -39.5t53.5 -29.5l148 -50q151 -51 219 -129.5t68 -201.5q0 -103 -55 -182t-152.5 -123t-225.5 -44z" />
    <glyph glyph-name="t" unicode="t" 
d="M744 -35q-199 0 -318 105.5t-119 286.5q0 39 3.5 74.5t10.5 76.5l144 818h342l-144 -816q-7 -38 -10.5 -65t-3.5 -49q0 -58 38 -92.5t102 -34.5q38 0 72 12.5t71 37.5l111 -274q-76 -43 -146.5 -61.5t-152.5 -18.5zM137 802l44 252h976l-44 -252h-976z" />
    <glyph glyph-name="u" unicode="u" 
d="M396 -35q-133 0 -215 86t-82 225q0 35 3 68t10 70l96 543l103 -155h-255l45 252h460l-104 -588q-9 -50 -13 -83t-4 -56q0 -37 20 -58.5t55 -21.5q61 0 109.5 93t79.5 268l79 446h346l-101 -570q-7 -41 -10 -64.5t-3 -40.5q0 -79 93 -79h36l-52 -295q-63 -25 -125 -25
q-103 0 -160.5 62t-57.5 174q0 29 5 59t18 74l49 -113l-82 10q-63 -147 -144.5 -214t-198.5 -67z" />
    <glyph glyph-name="v" unicode="v" 
d="M333 0l-196 1054h350l56 -433l23 -289h10l103 289l200 433h370l-568 -1054h-348z" />
    <glyph glyph-name="w" unicode="w" 
d="M121 0l-35 1054h287l-17 -555l-6 -117h7l35 118l145 433h267l-7 -432l-7 -119h7l36 119l178 553h289l-404 -1054h-294l5 469l7 113h-7l-35 -113l-158 -469h-293z" />
    <glyph glyph-name="x" unicode="x" 
d="M714 0l-222 469l-45 21l-292 564h345l191 -399l43 -21l325 -634h-345zM-45 0l520 610l26 9l360 435h370l-505 -593l-26 -9l-375 -452h-370z" />
    <glyph glyph-name="y" unicode="y" 
d="M188 -451q-179 0 -299 109l162 253q35 -31 68.5 -47.5t76.5 -16.5q45 0 73.5 22.5t55.5 71.5l153 276h92l139 412l196 425h374l-650 -1179q-93 -169 -195 -247.5t-246 -78.5zM405 -114l-238 1168h346l59 -425l22 -297h118z" />
    <glyph glyph-name="z" unicode="z" 
d="M49 0l47 267l587 511h-476l48 276h886l-47 -268l-586 -510h505l-48 -276h-916z" />
    <glyph glyph-name="braceleft" unicode="{" 
d="M630 -351q-175 0 -269 57.5t-94 164.5q0 73 36.5 138t119.5 140l15 14q50 45 72.5 79t22.5 63q0 67 -121 80l-379 41l84 479l393 41q79 8 117 37.5t38 81.5q0 26 -12 50t-38 53l-12 13q-39 44 -57 85.5t-18 89.5q0 152 122 238.5t336 86.5q81 0 156 -7t150 -21l-51 -288
q-49 11 -100.5 16.5t-110.5 5.5q-71 0 -108 -26.5t-37 -76.5q0 -22 12 -49t46 -74l13 -18q35 -49 50.5 -88t15.5 -78q0 -113 -87 -172.5t-211 -67.5l-360 -23l-18 -98l353 -22q110 -7 168.5 -49.5t58.5 -116.5q0 -58 -32 -116t-105 -124l-20 -18q-56 -50 -81.5 -87.5
t-25.5 -69.5q0 -69 116 -69q59 0 112.5 5.5t106.5 16.5l-51 -288q-159 -29 -316 -29z" />
    <glyph glyph-name="bar" unicode="|" 
d="M275 -346l374 2124h343l-374 -2124h-343z" />
    <glyph glyph-name="braceright" unicode="}" 
d="M263 -351q-81 0 -156 7t-150 21l51 288q49 -11 101 -16.5t110 -5.5q71 0 108 26.5t37 76.5q0 22 -11.5 49t-46.5 74l-13 18q-35 49 -50.5 88t-15.5 78q0 113 87 172.5t211 67.5l360 23l18 98l-353 22q-109 7 -168 50t-59 116q0 58 32 116t105 124l20 18q56 50 81.5 88
t25.5 69q0 69 -116 69q-58 0 -112 -5.5t-107 -16.5l51 288q83 15 160 22t156 7q175 0 269 -57.5t94 -164.5q0 -73 -36.5 -138t-119.5 -140l-15 -14q-49 -45 -72 -79t-23 -63q0 -67 121 -80l379 -41l-84 -479l-393 -41q-155 -16 -155 -119q0 -25 12 -49.5t38 -53.5l12 -13
q39 -43 57 -85t18 -90q0 -152 -121.5 -238.5t-336.5 -86.5z" />
    <glyph glyph-name="asciitilde" unicode="~" 
d="M885 544q-67 0 -129 23.5t-130 75.5q-63 48 -93 64t-56 16q-37 0 -56.5 -23t-29.5 -78l-13 -74h-318l25 140q31 173 117 261t229 88q68 0 122.5 -24t119.5 -75q61 -48 90.5 -64t58.5 -16q63 0 80 102l13 73h318l-25 -140q-31 -176 -111.5 -262.5t-211.5 -86.5z" />
    <glyph glyph-name="uni00A0" unicode="&#xa0;" 
 />
    <glyph glyph-name="exclamdown" unicode="&#xa1;" 
d="M863 637l-119 -869h-424l211 869h332zM925 1233q64 -64 64 -156t-64 -155.5t-156 -63.5q-93 0 -156.5 63.5t-63.5 155.5t64 156t156 64t156 -64z" />
    <glyph glyph-name="cent" unicode="&#xa2;" 
d="M628 0q-160 0 -281 65t-189 181.5t-68 268.5q0 136 42.5 248t121 192.5t186.5 124.5t240 44q220 0 341.5 -111t131.5 -309l-328 -32q-4 80 -40.5 121t-116.5 41q-71 0 -126 -42.5t-85.5 -113.5t-30.5 -159q0 -104 60.5 -166.5t161.5 -62.5q71 0 130.5 27.5t121.5 90.5
l178 -230q-103 -91 -219 -134.5t-231 -43.5zM346 -256l59 332l32 37l14 78h230l-14 -78l30 -37l-59 -332h-292zM588 913l14 78l-20 37l59 332h292l-59 -332l-42 -37l-14 -78h-230z" />
    <glyph glyph-name="sterling" unicode="&#xa3;" 
d="M240 -35l-281 104q40 99 95 160.5t130 100.5q86 44 119 94.5t33 138.5q0 43 -6 103t-13.5 126t-13.5 128.5t-6 109.5q0 135 61.5 233t168 151t240.5 53q136 0 234 -46t177 -144l-224 -200q-37 49 -72 69.5t-84 20.5q-71 0 -111 -44t-40 -123q0 -56 3 -114t7.5 -115
t7.5 -110t3 -98q0 -77 -40.5 -126t-117.5 -74v-18q32 -2 69.5 -13t75.5 -21.5t70 -10.5q44 0 72 31t46 95l300 -98q-44 -150 -134 -239t-230 -89q-55 0 -104.5 12.5t-95 29t-88.5 29t-86 12.5q-117 0 -165 -118zM73 658l39 220h928l-39 -220h-928z" />
    <glyph glyph-name="currency" unicode="&#xa4;" 
d="M592 241q-123 0 -222 57t-156.5 154.5t-57.5 219.5q0 100 40.5 189t112 157.5t164.5 107.5t197 39q124 0 222.5 -57t156 -154.5t57.5 -219.5q0 -99 -41 -188t-112.5 -157.5t-164 -108t-196.5 -39.5zM151 127l-163 198l279 238l163 -198zM328 854l-226 271l213 178
l226 -271zM614 491q66 0 116.5 30.5t79 84t28.5 123.5q0 88 -50 137t-140 49q-66 0 -116.5 -30.5t-79 -84t-28.5 -123.5q0 -85 51.5 -135.5t138.5 -50.5zM947 103l-226 271l213 178l226 -271zM995 843l-163 198l279 238l163 -198z" />
    <glyph glyph-name="yen" unicode="&#xa5;" 
d="M454 518l-282 914h356l68 -319l46 -302h9l133 302l176 319h388l-604 -914h-290zM344 0l122 692h328l-122 -692h-328zM70 210l35 200h950l-35 -200h-950zM126 530l35 200h950l-35 -200h-950z" />
    <glyph glyph-name="brokenbar" unicode="&#xa6;" 
d="M499 928l150 850h343l-150 -850h-343zM275 -346l150 850h343l-150 -850h-343z" />
    <glyph glyph-name="section" unicode="&#xa7;" 
d="M745 226l-97 167q86 27 131 69.5t45 94.5q0 43 -22.5 71.5t-75.5 50.5l-183 79q-106 46 -168.5 136t-62.5 196q0 113 56.5 198t158 132t236.5 47q150 0 258 -62t166 -181l-262 -147q-26 54 -77 82t-122 28q-55 0 -86.5 -20.5t-31.5 -56.5q0 -31 22 -53t77 -46l160 -69
q133 -57 193 -137t60 -199q0 -139 -98 -238t-277 -142zM496 -217q-157 0 -273 62.5t-176 180.5l262 147q27 -54 79 -82t125 -28q53 0 83 20.5t30 56.5q0 31 -22 53t-77 46l-160 69q-133 57 -193 137t-60 199q0 139 98 238t277 142l97 -167q-85 -27 -130.5 -69t-45.5 -95
q0 -43 23 -71t75 -51l183 -79q106 -46 168.5 -135.5t62.5 -196.5q0 -113 -53.5 -198t-149 -132t-223.5 -47z" />
    <glyph glyph-name="dieresis" unicode="&#xa8;" 
d="M471 1235q-86 0 -146 59.5t-60 144.5t60 144.5t146 59.5q87 0 146.5 -59t59.5 -145t-59 -145t-147 -59zM1051 1235q-86 0 -146 59.5t-60 144.5t60 144.5t146 59.5q87 0 146.5 -59t59.5 -145t-59 -145t-147 -59z" />
    <glyph glyph-name="copyright" unicode="&#xa9;" 
d="M319.5 54q-132.5 84 -205.5 238t-73 362v129q0 209 73 362.5t205.5 237.5t313.5 84t313.5 -84t205.5 -237.5t73 -362.5v-129q0 -208 -73 -362t-205.5 -238t-313.5 -84t-313.5 84zM994.5 217.5q130.5 157.5 130.5 435.5v131q0 278 -130.5 435.5t-361.5 157.5
t-361.5 -157.5t-130.5 -435.5v-131q0 -278 130.5 -435.5t361.5 -157.5t361.5 157.5zM650 284q-159 0 -251 109t-92 297v60q0 188 92 297t251 109q136 0 220.5 -83t98.5 -232l-182 -13q-14 156 -141 156q-79 0 -120 -59.5t-41 -172.5v-64q0 -113 41 -172.5t120 -59.5
q127 0 141 156l182 -13q-14 -148 -98.5 -231.5t-220.5 -83.5z" />
    <glyph glyph-name="ordfeminine" unicode="&#xaa;" 
d="M505 531q-137 0 -216.5 101.5t-79.5 276.5q0 96 27.5 194t79.5 180.5t126 133t166 50.5q76 0 123.5 -34t72.5 -108h77l-73 -88l44 230h296l-94 -485q-11 -55 -11 -89q0 -68 79 -68h25l-56 -288q-21 -4 -41.5 -5t-45.5 -1q-91 0 -142 48t-51 135q0 36 5.5 72t17.5 87
l24 -99l-70 7q-80 -250 -283 -250zM608 808q59 0 91 61.5t62 215.5l13 67q-21 20 -42 28.5t-48 8.5q-43 0 -75 -24t-53 -62.5t-31 -82t-10 -83.5q0 -61 24 -95t69 -34z" />
    <glyph glyph-name="guillemotleft" unicode="&#xab;" 
d="M932 2l-413 530l537 530l180 -166l-354 -370l244 -373zM460 2l-457 530l520 530l178 -168l-331 -368l276 -372z" />
    <glyph glyph-name="logicalnot" unicode="&#xac;" 
d="M679 91l78 443l24 -49h-674l56 320h972l-126 -714h-330z" />
    <glyph glyph-name="registered" unicode="&#xae;" 
d="M319.5 54q-132.5 84 -205.5 238t-73 362v129q0 209 73 362.5t205.5 237.5t313.5 84t313.5 -84t205.5 -237.5t73 -362.5v-129q0 -208 -73 -362t-205.5 -238t-313.5 -84t-313.5 84zM777 291l-201 374h190l205 -364v-10h-194zM994.5 217.5q130.5 157.5 130.5 435.5v131
q0 278 -130.5 435.5t-361.5 157.5t-361.5 -157.5t-130.5 -435.5v-131q0 -278 130.5 -435.5t361.5 -157.5t361.5 157.5zM355 291v858h283q142 0 222.5 -72t80.5 -199v-9q0 -127 -80.5 -200t-222.5 -73h-177v152h173q64 0 98.5 29.5t34.5 80.5v17q0 53 -34.5 81.5t-98.5 28.5
h-107v-694h-172z" />
    <glyph glyph-name="macron" unicode="&#xaf;" 
d="M412 1306l48 274h650l-48 -274h-650z" />
    <glyph glyph-name="degree" unicode="&#xb0;" 
d="M478 719.5q-94 52.5 -148.5 143t-54.5 204.5q0 115 54.5 205t148.5 142.5t212.5 52.5t212 -52.5t148 -142.5t54.5 -205q0 -114 -54.5 -204.5t-148 -143t-212 -52.5t-212.5 52.5zM794.5 959q40.5 42 40.5 108t-40.5 108t-104.5 42t-104.5 -42t-40.5 -108t40.5 -108
t104.5 -42t104.5 42z" />
    <glyph glyph-name="plusminus" unicode="&#xb1;" 
d="M1 0l55 310h1012l-55 -310h-1012zM125 700l54 308h1012l-54 -308h-1012zM414 408l158 892h330l-158 -892h-330z" />
    <glyph glyph-name="uni00B2" unicode="&#xb2;" 
d="M225 684l38 214l437 372q48 41 66 66.5t18 53.5q0 26 -15.5 41.5t-42.5 15.5q-42 0 -72.5 -31t-58.5 -102l-267 123q58 138 172 214t264 76q151 0 239.5 -79t88.5 -213q0 -88 -47 -164.5t-162 -172.5l-154 -129l-1 -7h328l-49 -278h-782z" />
    <glyph glyph-name="uni00B3" unicode="&#xb3;" 
d="M688 672q-174 0 -294.5 82t-157.5 215l286 77q14 -44 51 -69t92 -25q48 0 73 21t25 59q0 71 -95 71h-149l35 200h160q50 0 77 21t27 57q0 30 -19 48t-57 18q-84 0 -120 -79l-269 120q53 112 169 175.5t264 63.5q161 0 249.5 -74t88.5 -196q0 -101 -57 -165t-152 -91
l-2 -13q77 -25 116.5 -82.5t39.5 -139.5q0 -89 -47.5 -155.5t-133 -102.5t-200.5 -36z" />
    <glyph glyph-name="acute" unicode="&#xb4;" 
d="M420 1260l3 14l283 370h400l-3 -14l-375 -370h-308z" />
    <glyph glyph-name="uni00B5" unicode="&#xb5;" 
d="M-59 -436l262 1490h346l-124 -588q-9 -43 -12.5 -71t-3.5 -52q0 -47 22.5 -71.5t62.5 -24.5q68 0 117.5 93t80.5 268l79 446h346l-101 -570q-7 -41 -10 -64.5t-3 -40.5q0 -79 93 -79h36l-52 -295q-63 -25 -125 -25q-103 0 -160.5 62t-57.5 174q0 29 5 59t18 74l49 -113
l-82 10q-64 -146 -136 -213.5t-186 -67.5q-121 0 -180.5 81t-59.5 220l180 -58l-58 -644h-346z" />
    <glyph glyph-name="paragraph" unicode="&#xb6;" 
d="M297 -406l179 1017l86 -51h-52q-119 0 -209 47.5t-139.5 132.5t-49.5 197q0 89 27.5 177t89 160t163.5 115t251 43h238l-324 -1838h-260zM695 -406l324 1838h260l-324 -1838h-260z" />
    <glyph glyph-name="periodcentered" unicode="&#xb7;" 
d="M655 625q-92 0 -156 63.5t-64 154.5t64 154.5t156 63.5q93 0 156.5 -63t63.5 -155t-63 -155t-157 -63z" />
    <glyph glyph-name="cedilla" unicode="&#xb8;" 
d="M447 -674q-134 0 -225 69.5t-126 163.5l206 88q41 -115 143 -115q47 0 78 29t31 75q0 39 -23 61t-69 22q-43 0 -89 -28l-126 77l198 253h168l-220 -273l-67 72q43 35 93 53.5t101 18.5q105 0 177.5 -63.5t72.5 -189.5q0 -91 -40.5 -161.5t-113 -111t-169.5 -40.5z" />
    <glyph glyph-name="uni00B9" unicode="&#xb9;" 
d="M529 827l95 540l-215 -75l-89 257l466 166h200l-157 -888h-300zM246 683l50 284h818l-50 -284h-818z" />
    <glyph glyph-name="ordmasculine" unicode="&#xba;" 
d="M610 563q-121 0 -216.5 48t-151.5 137.5t-56 214.5q0 110 35.5 202.5t101 160t157 104.5t202.5 37q191 0 303 -109t112 -292q0 -114 -34 -207t-97.5 -159t-153.5 -101.5t-202 -35.5zM625 831q46 0 78 20.5t51.5 54t28 74t8.5 80.5q0 64 -30.5 101.5t-93.5 37.5
q-46 0 -79.5 -21t-54.5 -55t-31 -74.5t-10 -79.5q0 -64 35 -101t98 -37z" />
    <glyph glyph-name="guillemotright" unicode="&#xbb;" 
d="M270 1062l413 -530l-537 -530l-180 166l354 370l-244 373zM742 1062l457 -530l-520 -530l-178 168l331 368l-276 372z" />
    <glyph glyph-name="onequarter" unicode="&#xbc;" 
d="M9 -35l1076 1495h184l-1076 -1495h-184zM269 750l83 470l-160 -45l-51 206l295 79h179l-125 -710h-221zM815 -35l37 209l8 18l48 271l22 -35h-38l-166 -171l-1 -10h208l29 12h181l-33 -188h-624l35 201l398 412h216l-87 -494l2 -16l-37 -209h-198z" />
    <glyph glyph-name="onehalf" unicode="&#xbd;" 
d="M-10 -35l1066 1495h184l-1066 -1495h-184zM559 -35l33 187l262 180q59 41 78.5 63t19.5 47q0 46 -51 46q-65 0 -86 -89l-206 41q27 114 113.5 182t204.5 68q113 0 176 -59t63 -165q0 -73 -39 -130.5t-130 -119.5l-63 -43v-8h202l-36 -200h-541zM269 750l83 470l-160 -45
l-51 206l295 79h179l-125 -710h-221z" />
    <glyph glyph-name="threequarters" unicode="&#xbe;" 
d="M-5 -35l1159 1495h194l-1159 -1495h-194zM812 -35l37 209l14 18l48 271l22 -35h-38l-172 -171l-1 -10h208l29 12h181l-33 -188h-624l35 201l412 412h202l-87 -494l2 -16l-37 -209h-198zM344 713q-120 0 -194 52.5t-92 149.5l197 44q12 -61 80 -61q36 0 57.5 19.5
t21.5 50.5q0 34 -19.5 49.5t-62.5 15.5h-103l19 112h121q46 0 71.5 20t25.5 55q0 56 -62 56t-83 -56l-189 71q34 82 108.5 125.5t179.5 43.5q113 0 178.5 -54t65.5 -149q0 -63 -38.5 -107.5t-110.5 -65.5l-2 -10q99 -41 99 -146q0 -94 -76 -154.5t-192 -60.5z" />
    <glyph glyph-name="questiondown" unicode="&#xbf;" 
d="M809 765l-53 -302l-209 -82q-107 -42 -152 -83.5t-45 -100.5q0 -50 33.5 -78t94.5 -28q77 0 139.5 43.5t99.5 121.5l304 -133q-82 -171 -232 -264.5t-343 -93.5q-205 0 -325.5 105t-120.5 283q0 140 73 242.5t224 174.5l137 65l23 130h352zM664 1267q86 0 148.5 -62.5
t62.5 -150.5q0 -85 -61 -145t-150 -60q-88 0 -149.5 59.5t-61.5 145.5q0 88 62.5 150.5t148.5 62.5z" />
    <glyph glyph-name="Agrave" unicode="&#xc0;" 
d="M-90 0l695 1432h310l191 -1432h-350l-49 826l-12 228h-7l-82 -228l-341 -826h-355zM160 245l130 266h594l45 -266h-769zM649 1638l-245 370l3 14h380l153 -370l-3 -14h-288z" />
    <glyph glyph-name="Aacute" unicode="&#xc1;" 
d="M-90 0l695 1432h310l191 -1432h-350l-49 826l-12 228h-7l-82 -228l-341 -826h-355zM160 245l130 266h594l45 -266h-769zM639 1638l3 14l283 370h400l-3 -14l-375 -370h-308z" />
    <glyph glyph-name="Acircumflex" unicode="&#xc2;" 
d="M-90 0l695 1432h310l191 -1432h-350l-49 826l-12 228h-7l-82 -228l-341 -826h-355zM160 245l130 266h594l45 -266h-769zM328 1638l3 14l361 370h328l231 -370l-3 -14h-317l-113 299h72l-219 -299h-343z" />
    <glyph glyph-name="Atilde" unicode="&#xc3;" 
d="M-90 0l695 1432h310l191 -1432h-350l-49 826l-12 228h-7l-82 -228l-341 -826h-355zM160 245l130 266h594l45 -266h-769zM974 1635q-55 0 -98 20.5t-87 60.5q-40 38 -60.5 52t-43.5 14t-33.5 -16t-16.5 -48l-16 -80h-238l16 89q26 145 95 221.5t177 76.5q56 0 99 -20
t86 -61q40 -37 60.5 -51.5t43.5 -14.5t34 16.5t16 47.5l14 80h240l-16 -89q-25 -145 -94.5 -221.5t-177.5 -76.5z" />
    <glyph glyph-name="Adieresis" unicode="&#xc4;" 
d="M-90 0l695 1432h310l191 -1432h-350l-49 826l-12 228h-7l-82 -228l-341 -826h-355zM160 245l130 266h594l45 -266h-769zM530 1613q-86 0 -146 59.5t-60 144.5t60 144.5t146 59.5q87 0 146.5 -59t59.5 -145t-59 -145t-147 -59zM1110 1613q-86 0 -146 59.5t-60 144.5
t60 144.5t146 59.5q87 0 146.5 -59t59.5 -145t-59 -145t-147 -59z" />
    <glyph glyph-name="Aring" unicode="&#xc5;" 
d="M-90 0l695 1432h310l191 -1432h-350l-49 826l-12 228h-7l-82 -228l-341 -826h-355zM160 245l130 266h594l45 -266h-769zM662 1567.5q-73 41.5 -116.5 112t-43.5 156.5t43.5 156.5t116.5 112t162 41.5t162 -41.5t116.5 -112t43.5 -156.5t-43.5 -156.5t-116.5 -112
t-162 -41.5t-162 41.5zM908.5 1753q33.5 33 33.5 83t-33.5 83t-84.5 33t-84.5 -33t-33.5 -83t33.5 -83t84.5 -33t84.5 33z" />
    <glyph glyph-name="AE" unicode="&#xc6;" 
d="M-91 0l582 1432h375l-51 -292h-175l-97 -314l-290 -826h-344zM131 256l130 260h430l-46 -260h-514zM520 0l252 1432h569l-55 -312h-299l-142 -808h315l-55 -312h-585zM773 575l54 308h377l-54 -308h-377z" />
    <glyph glyph-name="Ccedilla" unicode="&#xc7;" 
d="M609 -35q-156 0 -271 74t-177.5 209.5t-62.5 320.5q0 199 48 363.5t136.5 284.5t209.5 185t268 65q198 0 315.5 -117.5t145.5 -317.5l-326 -51q-10 76 -47 114t-100 38q-86 0 -154 -72.5t-107 -197.5t-39 -284q0 -137 46.5 -208.5t136.5 -71.5q66 0 110 43t73 134
l308 -119q-137 -392 -513 -392zM511 -674q-134 0 -225 69.5t-126 163.5l206 88q41 -115 143 -115q47 0 78 29t31 75q0 39 -23 61t-69 22q-43 0 -89 -28l-126 77l198 253h168l-220 -273l-67 72q43 35 93 53.5t101 18.5q105 0 177.5 -63.5t72.5 -189.5q0 -91 -40.5 -161.5
t-113 -111t-169.5 -40.5z" />
    <glyph glyph-name="Egrave" unicode="&#xc8;" 
d="M38 0l252 1432h916l-57 -322h-572l-138 -788h587l-57 -322h-931zM354 570l56 318h620l-56 -318h-620zM645 1638l-245 370l3 14h380l153 -370l-3 -14h-288z" />
    <glyph glyph-name="Eacute" unicode="&#xc9;" 
d="M38 0l252 1432h916l-57 -322h-572l-138 -788h587l-57 -322h-931zM354 570l56 318h620l-56 -318h-620zM635 1638l3 14l283 370h400l-3 -14l-375 -370h-308z" />
    <glyph glyph-name="Ecircumflex" unicode="&#xca;" 
d="M38 0l252 1432h916l-57 -322h-572l-138 -788h587l-57 -322h-931zM354 570l56 318h620l-56 -318h-620zM324 1638l3 14l361 370h328l231 -370l-3 -14h-317l-113 299h72l-219 -299h-343z" />
    <glyph glyph-name="Edieresis" unicode="&#xcb;" 
d="M38 0l252 1432h916l-57 -322h-572l-138 -788h587l-57 -322h-931zM354 570l56 318h620l-56 -318h-620zM526 1613q-86 0 -146 59.5t-60 144.5t60 144.5t146 59.5q87 0 146.5 -59t59.5 -145t-59 -145t-147 -59zM1106 1613q-86 0 -146 59.5t-60 144.5t60 144.5t146 59.5
q87 0 146.5 -59t59.5 -145t-59 -145t-147 -59z" />
    <glyph glyph-name="Igrave" unicode="&#xcc;" 
d="M360 155l198 1122h350l-198 -1122h-350zM38 0l57 326h939l-57 -326h-939zM233 1106l57 326h939l-57 -326h-939zM657 1638l-245 370l3 14h380l153 -370l-3 -14h-288z" />
    <glyph glyph-name="Iacute" unicode="&#xcd;" 
d="M360 155l198 1122h350l-198 -1122h-350zM38 0l57 326h939l-57 -326h-939zM233 1106l57 326h939l-57 -326h-939zM647 1638l3 14l283 370h400l-3 -14l-375 -370h-308z" />
    <glyph glyph-name="Icircumflex" unicode="&#xce;" 
d="M360 155l198 1122h350l-198 -1122h-350zM38 0l57 326h939l-57 -326h-939zM233 1106l57 326h939l-57 -326h-939zM336 1638l3 14l361 370h328l231 -370l-3 -14h-317l-113 299h72l-219 -299h-343z" />
    <glyph glyph-name="Idieresis" unicode="&#xcf;" 
d="M360 155l198 1122h350l-198 -1122h-350zM38 0l57 326h939l-57 -326h-939zM233 1106l57 326h939l-57 -326h-939zM538 1613q-86 0 -146 59.5t-60 144.5t60 144.5t146 59.5q87 0 146.5 -59t59.5 -145t-59 -145t-147 -59zM1118 1613q-86 0 -146 59.5t-60 144.5t60 144.5
t146 59.5q87 0 146.5 -59t59.5 -145t-59 -145t-147 -59z" />
    <glyph glyph-name="Eth" unicode="&#xd0;" 
d="M78 0l252 1432h318q270 0 416 -146.5t146 -417.5q0 -274 -80 -468t-231 -297t-364 -103h-457zM44 580l54 308h695l-54 -308h-695zM433 314h122q160 0 247.5 142.5t87.5 401.5q0 137 -56.5 198.5t-184.5 61.5h-74z" />
    <glyph glyph-name="Ntilde" unicode="&#xd1;" 
d="M-34 0l252 1432h326l281 -836h9l42 328l89 508h336l-252 -1432h-302l-297 879h-9l-42 -328l-97 -551h-336zM936 1635q-55 0 -98 20.5t-87 60.5q-40 38 -60.5 52t-43.5 14t-33.5 -16t-16.5 -48l-16 -80h-238l16 89q26 145 95 221.5t177 76.5q56 0 99 -20t86 -61
q40 -37 60.5 -51.5t43.5 -14.5t34 16.5t16 47.5l14 80h240l-16 -89q-25 -145 -94.5 -221.5t-177.5 -76.5z" />
    <glyph glyph-name="Ograve" unicode="&#xd2;" 
d="M541 -35q-145 0 -251.5 64.5t-165 186t-58.5 293.5q0 118 21 249.5t68.5 257t125.5 227.5t191 163t267 61q218 0 339 -146.5t121 -404.5q0 -118 -20.5 -249t-67 -255.5t-123 -225.5t-187 -161t-260.5 -60zM573 299q63 0 109.5 41t78.5 108t51.5 147.5t28 161t8.5 146.5
q0 109 -35 169.5t-107 60.5q-64 0 -112.5 -41.5t-82.5 -110t-55 -150t-31 -162.5t-10 -147q0 -113 40 -168t117 -55zM637 1638l-245 370l3 14h380l153 -370l-3 -14h-288z" />
    <glyph glyph-name="Oacute" unicode="&#xd3;" 
d="M541 -35q-145 0 -251.5 64.5t-165 186t-58.5 293.5q0 118 21 249.5t68.5 257t125.5 227.5t191 163t267 61q218 0 339 -146.5t121 -404.5q0 -118 -20.5 -249t-67 -255.5t-123 -225.5t-187 -161t-260.5 -60zM573 299q63 0 109.5 41t78.5 108t51.5 147.5t28 161t8.5 146.5
q0 109 -35 169.5t-107 60.5q-64 0 -112.5 -41.5t-82.5 -110t-55 -150t-31 -162.5t-10 -147q0 -113 40 -168t117 -55zM627 1638l3 14l283 370h400l-3 -14l-375 -370h-308z" />
    <glyph glyph-name="Ocircumflex" unicode="&#xd4;" 
d="M541 -35q-145 0 -251.5 64.5t-165 186t-58.5 293.5q0 118 21 249.5t68.5 257t125.5 227.5t191 163t267 61q218 0 339 -146.5t121 -404.5q0 -118 -20.5 -249t-67 -255.5t-123 -225.5t-187 -161t-260.5 -60zM573 299q63 0 109.5 41t78.5 108t51.5 147.5t28 161t8.5 146.5
q0 109 -35 169.5t-107 60.5q-64 0 -112.5 -41.5t-82.5 -110t-55 -150t-31 -162.5t-10 -147q0 -113 40 -168t117 -55zM316 1638l3 14l361 370h328l231 -370l-3 -14h-317l-113 299h72l-219 -299h-343z" />
    <glyph glyph-name="Otilde" unicode="&#xd5;" 
d="M541 -35q-145 0 -251.5 64.5t-165 186t-58.5 293.5q0 118 21 249.5t68.5 257t125.5 227.5t191 163t267 61q218 0 339 -146.5t121 -404.5q0 -118 -20.5 -249t-67 -255.5t-123 -225.5t-187 -161t-260.5 -60zM573 299q63 0 109.5 41t78.5 108t51.5 147.5t28 161t8.5 146.5
q0 109 -35 169.5t-107 60.5q-64 0 -112.5 -41.5t-82.5 -110t-55 -150t-31 -162.5t-10 -147q0 -113 40 -168t117 -55zM962 1635q-55 0 -98 20.5t-87 60.5q-40 38 -60.5 52t-43.5 14t-33.5 -16t-16.5 -48l-16 -80h-238l16 89q26 145 95 221.5t177 76.5q56 0 99 -20t86 -61
q40 -37 60.5 -51.5t43.5 -14.5t34 16.5t16 47.5l14 80h240l-16 -89q-25 -145 -94.5 -221.5t-177.5 -76.5z" />
    <glyph glyph-name="Odieresis" unicode="&#xd6;" 
d="M541 -35q-145 0 -251.5 64.5t-165 186t-58.5 293.5q0 118 21 249.5t68.5 257t125.5 227.5t191 163t267 61q218 0 339 -146.5t121 -404.5q0 -118 -20.5 -249t-67 -255.5t-123 -225.5t-187 -161t-260.5 -60zM573 299q63 0 109.5 41t78.5 108t51.5 147.5t28 161t8.5 146.5
q0 109 -35 169.5t-107 60.5q-64 0 -112.5 -41.5t-82.5 -110t-55 -150t-31 -162.5t-10 -147q0 -113 40 -168t117 -55zM518 1613q-86 0 -146 59.5t-60 144.5t60 144.5t146 59.5q87 0 146.5 -59t59.5 -145t-59 -145t-147 -59zM1098 1613q-86 0 -146 59.5t-60 144.5t60 144.5
t146 59.5q87 0 146.5 -59t59.5 -145t-59 -145t-147 -59z" />
    <glyph glyph-name="multiply" unicode="&#xd7;" 
d="M272 145l-196 246l893 753l196 -246zM821 145l-649 793l248 206l649 -793z" />
    <glyph glyph-name="Oslash" unicode="&#xd8;" 
d="M72 -229l-164 118l1287 1772l164 -118zM563 -35q-140 0 -253 66.5t-178.5 188.5t-65.5 289q0 118 21 249.5t68 257t123.5 227.5t187.5 163t261 61q141 0 247 -68t165.5 -192t59.5 -291q0 -118 -20.5 -249t-66 -255.5t-119.5 -225.5t-180.5 -161t-249.5 -60zM539 265
q93 0 160 62t110 160.5t63.5 211.5t20.5 214q0 131 -36 192.5t-130 61.5q-74 0 -132 -41.5t-100 -110.5t-69 -154t-40.5 -173.5t-13.5 -167.5q0 -132 36.5 -193.5t130.5 -61.5z" />
    <glyph glyph-name="Ugrave" unicode="&#xd9;" 
d="M556 -35q-141 0 -248.5 55t-167.5 153t-60 228q0 39 4 78.5t13 88.5l153 864h348l-161 -913q-5 -29 -7 -46t-2 -34q0 -64 39.5 -102t106.5 -38q73 0 119 48t62 139l167 946h348l-178 -1006q-39 -220 -178.5 -340.5t-357.5 -120.5zM642 1638l-245 370l3 14h380l153 -370
l-3 -14h-288z" />
    <glyph glyph-name="Uacute" unicode="&#xda;" 
d="M556 -35q-141 0 -248.5 55t-167.5 153t-60 228q0 39 4 78.5t13 88.5l153 864h348l-161 -913q-5 -29 -7 -46t-2 -34q0 -64 39.5 -102t106.5 -38q73 0 119 48t62 139l167 946h348l-178 -1006q-39 -220 -178.5 -340.5t-357.5 -120.5zM632 1638l3 14l283 370h400l-3 -14
l-375 -370h-308z" />
    <glyph glyph-name="Ucircumflex" unicode="&#xdb;" 
d="M556 -35q-141 0 -248.5 55t-167.5 153t-60 228q0 39 4 78.5t13 88.5l153 864h348l-161 -913q-5 -29 -7 -46t-2 -34q0 -64 39.5 -102t106.5 -38q73 0 119 48t62 139l167 946h348l-178 -1006q-39 -220 -178.5 -340.5t-357.5 -120.5zM321 1638l3 14l361 370h328l231 -370
l-3 -14h-317l-113 299h72l-219 -299h-343z" />
    <glyph glyph-name="Udieresis" unicode="&#xdc;" 
d="M556 -35q-141 0 -248.5 55t-167.5 153t-60 228q0 39 4 78.5t13 88.5l153 864h348l-161 -913q-5 -29 -7 -46t-2 -34q0 -64 39.5 -102t106.5 -38q73 0 119 48t62 139l167 946h348l-178 -1006q-39 -220 -178.5 -340.5t-357.5 -120.5zM523 1613q-86 0 -146 59.5t-60 144.5
t60 144.5t146 59.5q87 0 146.5 -59t59.5 -145t-59 -145t-147 -59zM1103 1613q-86 0 -146 59.5t-60 144.5t60 144.5t146 59.5q87 0 146.5 -59t59.5 -145t-59 -145t-147 -59z" />
    <glyph glyph-name="Yacute" unicode="&#xdd;" 
d="M443 409l-271 1023h356l68 -319l45 -288h9l134 288l176 319h388l-631 -1023h-274zM334 0l122 692h348l-122 -692h-348zM601 1638l3 14l283 370h400l-3 -14l-375 -370h-308z" />
    <glyph glyph-name="Thorn" unicode="&#xde;" 
d="M283 266l55 306h275q74 0 120.5 29t69 74.5t22.5 95.5q0 80 -48.5 119.5t-140.5 39.5h-253l55 306h241q140 0 249 -48.5t172 -148t63 -252.5q0 -96 -33.5 -189t-102.5 -168t-173.5 -119.5t-247.5 -44.5h-323zM18 0l252 1432h344l-252 -1432h-344z" />
    <glyph glyph-name="germandbls" unicode="&#xdf;" 
d="M725 -35q-75 0 -148.5 15t-147.5 47l107 246q39 -22 75.5 -32t78.5 -10q61 0 95 30t34 83q0 33 -15.5 65t-63.5 71l-64 52q-51 41 -77.5 86.5t-26.5 102.5q0 63 23 108.5t57.5 80t68.5 64.5t57 61t23 69q0 44 -26.5 72t-81.5 28q-64 0 -106.5 -43t-56.5 -126l-183 -1035
h-340l188 1063q34 193 170.5 312t362.5 119q200 0 296.5 -88t96.5 -226q0 -71 -23 -121.5t-57 -87t-68.5 -66t-57.5 -59t-23 -65.5q0 -27 13.5 -49.5t45.5 -53.5l61 -58q66 -62 96.5 -131.5t30.5 -158.5q0 -105 -52.5 -187.5t-146 -130t-215.5 -47.5z" />
    <glyph glyph-name="agrave" unicode="&#xe0;" 
d="M389 -35q-163 0 -258 121t-95 326q0 194 63 347t172 241.5t247 88.5q94 0 160.5 -48.5t86.5 -131.5h81l-85 -100l46 264h315l-104 -589q-7 -38 -10 -62t-3 -43q0 -79 93 -79h36l-52 -295q-30 -12 -60 -18.5t-65 -6.5q-103 0 -160.5 62t-57.5 174q0 29 5 59t18 74l49 -113
l-82 10q-46 -136 -133.5 -208.5t-206.5 -72.5zM510 265q71 0 118 81.5t78 257.5l18 102q-25 43 -57 63t-76 20q-65 0 -116 -42.5t-80 -117.5t-29 -171q0 -93 37.5 -143t106.5 -50zM566 1260l-245 370l3 14h380l153 -370l-3 -14h-288z" />
    <glyph glyph-name="aacute" unicode="&#xe1;" 
d="M389 -35q-163 0 -258 121t-95 326q0 194 63 347t172 241.5t247 88.5q94 0 160.5 -48.5t86.5 -131.5h81l-85 -100l46 264h315l-104 -589q-7 -38 -10 -62t-3 -43q0 -79 93 -79h36l-52 -295q-30 -12 -60 -18.5t-65 -6.5q-103 0 -160.5 62t-57.5 174q0 29 5 59t18 74l49 -113
l-82 10q-46 -136 -133.5 -208.5t-206.5 -72.5zM510 265q71 0 118 81.5t78 257.5l18 102q-25 43 -57 63t-76 20q-65 0 -116 -42.5t-80 -117.5t-29 -171q0 -93 37.5 -143t106.5 -50zM556 1260l3 14l283 370h400l-3 -14l-375 -370h-308z" />
    <glyph glyph-name="acircumflex" unicode="&#xe2;" 
d="M389 -35q-163 0 -258 121t-95 326q0 194 63 347t172 241.5t247 88.5q94 0 160.5 -48.5t86.5 -131.5h81l-85 -100l46 264h315l-104 -589q-7 -38 -10 -62t-3 -43q0 -79 93 -79h36l-52 -295q-30 -12 -60 -18.5t-65 -6.5q-103 0 -160.5 62t-57.5 174q0 29 5 59t18 74l49 -113
l-82 10q-46 -136 -133.5 -208.5t-206.5 -72.5zM510 265q71 0 118 81.5t78 257.5l18 102q-25 43 -57 63t-76 20q-65 0 -116 -42.5t-80 -117.5t-29 -171q0 -93 37.5 -143t106.5 -50zM245 1260l3 14l361 370h328l231 -370l-3 -14h-317l-113 299h72l-219 -299h-343z" />
    <glyph glyph-name="atilde" unicode="&#xe3;" 
d="M389 -35q-163 0 -258 121t-95 326q0 194 63 347t172 241.5t247 88.5q94 0 160.5 -48.5t86.5 -131.5h81l-85 -100l46 264h315l-104 -589q-7 -38 -10 -62t-3 -43q0 -79 93 -79h36l-52 -295q-30 -12 -60 -18.5t-65 -6.5q-103 0 -160.5 62t-57.5 174q0 29 5 59t18 74l49 -113
l-82 10q-46 -136 -133.5 -208.5t-206.5 -72.5zM510 265q71 0 118 81.5t78 257.5l18 102q-25 43 -57 63t-76 20q-65 0 -116 -42.5t-80 -117.5t-29 -171q0 -93 37.5 -143t106.5 -50zM891 1257q-55 0 -98 20.5t-87 60.5q-40 38 -60.5 52t-43.5 14t-33.5 -16t-16.5 -48l-16 -80
h-238l16 89q26 145 95 221.5t177 76.5q56 0 99 -20t86 -61q40 -37 60.5 -51.5t43.5 -14.5t34 16.5t16 47.5l14 80h240l-16 -89q-25 -145 -94.5 -221.5t-177.5 -76.5z" />
    <glyph glyph-name="adieresis" unicode="&#xe4;" 
d="M389 -35q-163 0 -258 121t-95 326q0 194 63 347t172 241.5t247 88.5q94 0 160.5 -48.5t86.5 -131.5h81l-85 -100l46 264h315l-104 -589q-7 -38 -10 -62t-3 -43q0 -79 93 -79h36l-52 -295q-30 -12 -60 -18.5t-65 -6.5q-103 0 -160.5 62t-57.5 174q0 29 5 59t18 74l49 -113
l-82 10q-46 -136 -133.5 -208.5t-206.5 -72.5zM510 265q71 0 118 81.5t78 257.5l18 102q-25 43 -57 63t-76 20q-65 0 -116 -42.5t-80 -117.5t-29 -171q0 -93 37.5 -143t106.5 -50zM447 1235q-86 0 -146 59.5t-60 144.5t60 144.5t146 59.5q87 0 146.5 -59t59.5 -145t-59 -145
t-147 -59zM1027 1235q-86 0 -146 59.5t-60 144.5t60 144.5t146 59.5q87 0 146.5 -59t59.5 -145t-59 -145t-147 -59z" />
    <glyph glyph-name="aring" unicode="&#xe5;" 
d="M389 -35q-163 0 -258 121t-95 326q0 194 63 347t172 241.5t247 88.5q94 0 160.5 -48.5t86.5 -131.5h81l-85 -100l46 264h315l-104 -589q-7 -38 -10 -62t-3 -43q0 -79 93 -79h36l-52 -295q-30 -12 -60 -18.5t-65 -6.5q-103 0 -160.5 62t-57.5 174q0 29 5 59t18 74l49 -113
l-82 10q-46 -136 -133.5 -208.5t-206.5 -72.5zM510 265q71 0 118 81.5t78 257.5l18 102q-25 43 -57 63t-76 20q-65 0 -116 -42.5t-80 -117.5t-29 -171q0 -93 37.5 -143t106.5 -50zM579 1189.5q-73 41.5 -116.5 112t-43.5 156.5t43.5 156.5t116.5 112t162 41.5t162 -41.5
t116.5 -112t43.5 -156.5t-43.5 -156.5t-116.5 -112t-162 -41.5t-162 41.5zM825.5 1375q33.5 33 33.5 83t-33.5 83t-84.5 33t-84.5 -33t-33.5 -83t33.5 -83t84.5 -33t84.5 33z" />
    <glyph glyph-name="ae" unicode="&#xe6;" 
d="M293 -35q-139 0 -227.5 91t-88.5 240q0 108 44.5 193t126.5 134.5t194 49.5q47 0 85.5 -9.5t75.5 -26.5l-28 -172q-16 11 -34 16.5t-43 5.5q-44 0 -75.5 -22t-48.5 -62.5t-17 -95.5q0 -49 19 -75.5t52 -26.5q35 0 59.5 33t35.5 97l56 317q4 22 7 44t3 38q0 85 -112 85
q-44 0 -89 -11.5t-96 -36.5l-73 253q139 65 276 65q138 0 217.5 -82.5t86.5 -230.5h-151q55 151 156.5 232t233.5 81q136 0 212 -81.5t76 -208.5q0 -196 -140.5 -293t-425.5 -106l-15 172q161 20 236 64.5t75 116.5q0 39 -19 61.5t-59 22.5q-41 0 -70.5 -25.5t-49.5 -67
t-31.5 -90t-16.5 -95t-5 -81.5q0 -114 38.5 -168.5t114.5 -54.5q36 0 67.5 13.5t66.5 43.5l128 -254q-51 -46 -111.5 -69.5t-131.5 -23.5q-104 0 -180.5 47.5t-120 137t-50.5 216.5h124q-34 -185 -122 -293t-235 -108z" />
    <glyph glyph-name="ccedilla" unicode="&#xe7;" 
d="M643 -35q-160 0 -281 65t-189 181.5t-68 268.5q0 182 74 319t205.5 213.5t305.5 76.5q215 0 335 -118t127 -328l-329 -26q0 182 -145 182q-70 0 -123.5 -41t-83.5 -110t-30 -154q0 -100 60 -159.5t160 -59.5q68 0 125 26.5t116 86.5l190 -245q-100 -92 -206 -135
t-243 -43zM513 -674q-134 0 -225 69.5t-126 163.5l206 88q41 -115 143 -115q47 0 78 29t31 75q0 39 -23 61t-69 22q-43 0 -89 -28l-126 77l198 253h168l-220 -273l-67 72q43 35 93 53.5t101 18.5q105 0 177.5 -63.5t72.5 -189.5q0 -91 -40.5 -161.5t-113 -111t-169.5 -40.5z
" />
    <glyph glyph-name="egrave" unicode="&#xe8;" 
d="M609 -35q-157 0 -277 67t-187.5 184t-67.5 266q0 124 42 233.5t122.5 193.5t195 132t259.5 48q203 0 307 -94t104 -234q0 -126 -84.5 -201.5t-262.5 -109t-458 -33.5l-15 172q174 3 287 16.5t168 42.5t55 79q0 38 -26.5 60t-85.5 22q-88 0 -153 -43.5t-101 -116
t-36 -159.5q0 -108 58 -166.5t164 -58.5q71 0 130.5 27.5t118.5 88.5l182 -235q-91 -92 -196.5 -136.5t-242.5 -44.5zM598 1260l-245 370l3 14h380l153 -370l-3 -14h-288z" />
    <glyph glyph-name="eacute" unicode="&#xe9;" 
d="M609 -35q-157 0 -277 67t-187.5 184t-67.5 266q0 124 42 233.5t122.5 193.5t195 132t259.5 48q203 0 307 -94t104 -234q0 -126 -84.5 -201.5t-262.5 -109t-458 -33.5l-15 172q174 3 287 16.5t168 42.5t55 79q0 38 -26.5 60t-85.5 22q-88 0 -153 -43.5t-101 -116
t-36 -159.5q0 -108 58 -166.5t164 -58.5q71 0 130.5 27.5t118.5 88.5l182 -235q-91 -92 -196.5 -136.5t-242.5 -44.5zM588 1260l3 14l283 370h400l-3 -14l-375 -370h-308z" />
    <glyph glyph-name="ecircumflex" unicode="&#xea;" 
d="M609 -35q-157 0 -277 67t-187.5 184t-67.5 266q0 124 42 233.5t122.5 193.5t195 132t259.5 48q203 0 307 -94t104 -234q0 -126 -84.5 -201.5t-262.5 -109t-458 -33.5l-15 172q174 3 287 16.5t168 42.5t55 79q0 38 -26.5 60t-85.5 22q-88 0 -153 -43.5t-101 -116
t-36 -159.5q0 -108 58 -166.5t164 -58.5q71 0 130.5 27.5t118.5 88.5l182 -235q-91 -92 -196.5 -136.5t-242.5 -44.5zM277 1260l3 14l361 370h328l231 -370l-3 -14h-317l-113 299h72l-219 -299h-343z" />
    <glyph glyph-name="edieresis" unicode="&#xeb;" 
d="M609 -35q-157 0 -277 67t-187.5 184t-67.5 266q0 124 42 233.5t122.5 193.5t195 132t259.5 48q203 0 307 -94t104 -234q0 -126 -84.5 -201.5t-262.5 -109t-458 -33.5l-15 172q174 3 287 16.5t168 42.5t55 79q0 38 -26.5 60t-85.5 22q-88 0 -153 -43.5t-101 -116
t-36 -159.5q0 -108 58 -166.5t164 -58.5q71 0 130.5 27.5t118.5 88.5l182 -235q-91 -92 -196.5 -136.5t-242.5 -44.5zM479 1235q-86 0 -146 59.5t-60 144.5t60 144.5t146 59.5q87 0 146.5 -59t59.5 -145t-59 -145t-147 -59zM1059 1235q-86 0 -146 59.5t-60 144.5t60 144.5
t146 59.5q87 0 146.5 -59t59.5 -145t-59 -145t-147 -59z" />
    <glyph glyph-name="igrave" unicode="&#xec;" 
d="M801 -35q-189 0 -300 102t-111 279q0 29 4.5 64.5t12.5 82.5l82 464l82 -153h-392l44 250h620l-101 -575q-4 -25 -6 -42.5t-2 -35.5q0 -63 29 -97.5t86 -34.5q53 0 114 40l127 -268q-130 -76 -289 -76zM552 1260l-245 370l3 14h380l153 -370l-3 -14h-288z" />
    <glyph glyph-name="iacute" unicode="&#xed;" 
d="M801 -35q-189 0 -300 102t-111 279q0 29 4.5 64.5t12.5 82.5l82 464l82 -153h-392l44 250h620l-101 -575q-4 -25 -6 -42.5t-2 -35.5q0 -63 29 -97.5t86 -34.5q53 0 114 40l127 -268q-130 -76 -289 -76zM542 1260l3 14l283 370h400l-3 -14l-375 -370h-308z" />
    <glyph glyph-name="icircumflex" unicode="&#xee;" 
d="M801 -35q-189 0 -300 102t-111 279q0 29 4.5 64.5t12.5 82.5l82 464l82 -153h-392l44 250h620l-101 -575q-4 -25 -6 -42.5t-2 -35.5q0 -63 29 -97.5t86 -34.5q53 0 114 40l127 -268q-130 -76 -289 -76zM231 1260l3 14l361 370h328l231 -370l-3 -14h-317l-113 299h72
l-219 -299h-343z" />
    <glyph glyph-name="idieresis" unicode="&#xef;" 
d="M801 -35q-189 0 -300 102t-111 279q0 29 4.5 64.5t12.5 82.5l82 464l82 -153h-392l44 250h620l-101 -575q-4 -25 -6 -42.5t-2 -35.5q0 -63 29 -97.5t86 -34.5q53 0 114 40l127 -268q-130 -76 -289 -76zM433 1235q-86 0 -146 59.5t-60 144.5t60 144.5t146 59.5
q87 0 146.5 -59t59.5 -145t-59 -145t-147 -59zM1013 1235q-86 0 -146 59.5t-60 144.5t60 144.5t146 59.5q87 0 146.5 -59t59.5 -145t-59 -145t-147 -59z" />
    <glyph glyph-name="eth" unicode="&#xf0;" 
d="M568 -35q-137 0 -248.5 59.5t-177.5 167.5t-66 253q0 95 31 196t93.5 187t156.5 139.5t220 53.5q119 0 194.5 -61.5t106.5 -175.5l-48 50l42 6q-4 205 -87.5 349.5t-278.5 262.5l144 192q171 -116 282.5 -256.5t166 -309.5t54.5 -371q0 -132 -32.5 -263t-102 -239.5
t-181 -174t-269.5 -65.5zM579 263q63 0 106.5 30t70 77.5t38.5 102t12 102.5q0 60 -20 102t-54.5 64t-80.5 22q-61 0 -106 -28.5t-74.5 -75t-44 -101t-14.5 -107.5q0 -85 46 -136.5t121 -51.5zM348 1113l-28 188l449 67l53 -172zM878 1210l-53 173l406 63l28 -188z" />
    <glyph glyph-name="ntilde" unicode="&#xf1;" 
d="M928 -20q-130 0 -204 72.5t-74 199.5q0 44 7.5 87t20.5 101l38 158q11 44 17 75.5t6 58.5q0 37 -17 56t-53 19q-49 0 -91.5 -40.5t-74.5 -113.5t-49 -171l-85 -482h-346l186 1053h328l-36 -204l-31 45h48q144 195 349 195q113 0 173.5 -61.5t60.5 -165.5q0 -42 -7 -88
t-21 -101l-49 -204q-10 -40 -13 -58.5t-3 -31.5q0 -79 94 -79h33l-52 -295q-81 -25 -155 -25zM910 1257q-55 0 -98 20.5t-87 60.5q-40 38 -60.5 52t-43.5 14t-33.5 -16t-16.5 -48l-16 -80h-238l16 89q26 145 95 221.5t177 76.5q56 0 99 -20t86 -61q40 -37 60.5 -51.5
t43.5 -14.5t34 16.5t16 47.5l14 80h240l-16 -89q-25 -145 -94.5 -221.5t-177.5 -76.5z" />
    <glyph glyph-name="ograve" unicode="&#xf2;" 
d="M556 -35q-140 0 -251 59.5t-175 171t-64 265.5q0 131 41 245t118.5 200t185.5 134.5t242 48.5q148 0 255 -61.5t165.5 -172.5t58.5 -262q0 -136 -39 -250.5t-114 -199t-181.5 -131.5t-241.5 -47zM570 263q62 0 104.5 30.5t69 80.5t38.5 107.5t12 111.5q0 91 -38.5 144.5
t-116.5 53.5q-62 0 -106.5 -30.5t-73 -80.5t-42 -107.5t-13.5 -111.5q0 -91 43.5 -144.5t122.5 -53.5zM550 1260l-245 370l3 14h380l153 -370l-3 -14h-288z" />
    <glyph glyph-name="oacute" unicode="&#xf3;" 
d="M556 -35q-140 0 -251 59.5t-175 171t-64 265.5q0 131 41 245t118.5 200t185.5 134.5t242 48.5q148 0 255 -61.5t165.5 -172.5t58.5 -262q0 -136 -39 -250.5t-114 -199t-181.5 -131.5t-241.5 -47zM570 263q62 0 104.5 30.5t69 80.5t38.5 107.5t12 111.5q0 91 -38.5 144.5
t-116.5 53.5q-62 0 -106.5 -30.5t-73 -80.5t-42 -107.5t-13.5 -111.5q0 -91 43.5 -144.5t122.5 -53.5zM540 1260l3 14l283 370h400l-3 -14l-375 -370h-308z" />
    <glyph glyph-name="ocircumflex" unicode="&#xf4;" 
d="M556 -35q-140 0 -251 59.5t-175 171t-64 265.5q0 131 41 245t118.5 200t185.5 134.5t242 48.5q148 0 255 -61.5t165.5 -172.5t58.5 -262q0 -136 -39 -250.5t-114 -199t-181.5 -131.5t-241.5 -47zM570 263q62 0 104.5 30.5t69 80.5t38.5 107.5t12 111.5q0 91 -38.5 144.5
t-116.5 53.5q-62 0 -106.5 -30.5t-73 -80.5t-42 -107.5t-13.5 -111.5q0 -91 43.5 -144.5t122.5 -53.5zM229 1260l3 14l361 370h328l231 -370l-3 -14h-317l-113 299h72l-219 -299h-343z" />
    <glyph glyph-name="otilde" unicode="&#xf5;" 
d="M556 -35q-140 0 -251 59.5t-175 171t-64 265.5q0 131 41 245t118.5 200t185.5 134.5t242 48.5q148 0 255 -61.5t165.5 -172.5t58.5 -262q0 -136 -39 -250.5t-114 -199t-181.5 -131.5t-241.5 -47zM570 263q62 0 104.5 30.5t69 80.5t38.5 107.5t12 111.5q0 91 -38.5 144.5
t-116.5 53.5q-62 0 -106.5 -30.5t-73 -80.5t-42 -107.5t-13.5 -111.5q0 -91 43.5 -144.5t122.5 -53.5zM875 1257q-55 0 -98 20.5t-87 60.5q-40 38 -60.5 52t-43.5 14t-33.5 -16t-16.5 -48l-16 -80h-238l16 89q26 145 95 221.5t177 76.5q56 0 99 -20t86 -61
q40 -37 60.5 -51.5t43.5 -14.5t34 16.5t16 47.5l14 80h240l-16 -89q-25 -145 -94.5 -221.5t-177.5 -76.5z" />
    <glyph glyph-name="odieresis" unicode="&#xf6;" 
d="M556 -35q-140 0 -251 59.5t-175 171t-64 265.5q0 131 41 245t118.5 200t185.5 134.5t242 48.5q148 0 255 -61.5t165.5 -172.5t58.5 -262q0 -136 -39 -250.5t-114 -199t-181.5 -131.5t-241.5 -47zM570 263q62 0 104.5 30.5t69 80.5t38.5 107.5t12 111.5q0 91 -38.5 144.5
t-116.5 53.5q-62 0 -106.5 -30.5t-73 -80.5t-42 -107.5t-13.5 -111.5q0 -91 43.5 -144.5t122.5 -53.5zM431 1235q-86 0 -146 59.5t-60 144.5t60 144.5t146 59.5q87 0 146.5 -59t59.5 -145t-59 -145t-147 -59zM1011 1235q-86 0 -146 59.5t-60 144.5t60 144.5t146 59.5
q87 0 146.5 -59t59.5 -145t-59 -145t-147 -59z" />
    <glyph glyph-name="divide" unicode="&#xf7;" 
d="M107 485l56 320h972l-56 -320h-972zM555.5 935q-56.5 56 -56.5 138t56.5 138t140.5 56t140 -55.5t56 -138t-56 -138.5t-140 -56t-140.5 56zM405.5 79q-56.5 56 -56.5 138t56.5 138t140.5 56t140 -55.5t56 -138t-56 -138.5t-140 -56t-140.5 56z" />
    <glyph glyph-name="oslash" unicode="&#xf8;" 
d="M105 -187l-148 130l1138 1298l148 -130zM576 -35q-102 0 -195 38.5t-164.5 107.5t-113 161t-41.5 199q0 129 40 241t115 197t180.5 132.5t235.5 47.5q145 0 259 -69t179.5 -183.5t65.5 -253.5q0 -133 -38 -246t-111 -196.5t-176.5 -129.5t-235.5 -46zM550 209
q81 0 137.5 36.5t91 96t50.5 128.5t16 133q0 125 -42.5 183.5t-143.5 58.5q-81 0 -138.5 -36.5t-94.5 -96t-54.5 -128t-17.5 -133.5q0 -125 48 -183.5t148 -58.5z" />
    <glyph glyph-name="ugrave" unicode="&#xf9;" 
d="M396 -35q-133 0 -215 86t-82 225q0 35 3 68t10 70l96 543l103 -155h-255l45 252h460l-104 -588q-9 -50 -13 -83t-4 -56q0 -37 20 -58.5t55 -21.5q61 0 109.5 93t79.5 268l79 446h346l-101 -570q-7 -41 -10 -64.5t-3 -40.5q0 -79 93 -79h36l-52 -295q-63 -25 -125 -25
q-103 0 -160.5 62t-57.5 174q0 29 5 59t18 74l49 -113l-82 10q-63 -147 -144.5 -214t-198.5 -67zM537 1260l-245 370l3 14h380l153 -370l-3 -14h-288z" />
    <glyph glyph-name="uacute" unicode="&#xfa;" 
d="M396 -35q-133 0 -215 86t-82 225q0 35 3 68t10 70l96 543l103 -155h-255l45 252h460l-104 -588q-9 -50 -13 -83t-4 -56q0 -37 20 -58.5t55 -21.5q61 0 109.5 93t79.5 268l79 446h346l-101 -570q-7 -41 -10 -64.5t-3 -40.5q0 -79 93 -79h36l-52 -295q-63 -25 -125 -25
q-103 0 -160.5 62t-57.5 174q0 29 5 59t18 74l49 -113l-82 10q-63 -147 -144.5 -214t-198.5 -67zM527 1260l3 14l283 370h400l-3 -14l-375 -370h-308z" />
    <glyph glyph-name="ucircumflex" unicode="&#xfb;" 
d="M396 -35q-133 0 -215 86t-82 225q0 35 3 68t10 70l96 543l103 -155h-255l45 252h460l-104 -588q-9 -50 -13 -83t-4 -56q0 -37 20 -58.5t55 -21.5q61 0 109.5 93t79.5 268l79 446h346l-101 -570q-7 -41 -10 -64.5t-3 -40.5q0 -79 93 -79h36l-52 -295q-63 -25 -125 -25
q-103 0 -160.5 62t-57.5 174q0 29 5 59t18 74l49 -113l-82 10q-63 -147 -144.5 -214t-198.5 -67zM216 1260l3 14l361 370h328l231 -370l-3 -14h-317l-113 299h72l-219 -299h-343z" />
    <glyph glyph-name="udieresis" unicode="&#xfc;" 
d="M396 -35q-133 0 -215 86t-82 225q0 35 3 68t10 70l96 543l103 -155h-255l45 252h460l-104 -588q-9 -50 -13 -83t-4 -56q0 -37 20 -58.5t55 -21.5q61 0 109.5 93t79.5 268l79 446h346l-101 -570q-7 -41 -10 -64.5t-3 -40.5q0 -79 93 -79h36l-52 -295q-63 -25 -125 -25
q-103 0 -160.5 62t-57.5 174q0 29 5 59t18 74l49 -113l-82 10q-63 -147 -144.5 -214t-198.5 -67zM418 1235q-86 0 -146 59.5t-60 144.5t60 144.5t146 59.5q87 0 146.5 -59t59.5 -145t-59 -145t-147 -59zM998 1235q-86 0 -146 59.5t-60 144.5t60 144.5t146 59.5
q87 0 146.5 -59t59.5 -145t-59 -145t-147 -59z" />
    <glyph glyph-name="yacute" unicode="&#xfd;" 
d="M188 -451q-179 0 -299 109l162 253q35 -31 68.5 -47.5t76.5 -16.5q45 0 73.5 22.5t55.5 71.5l153 276h92l139 412l196 425h374l-650 -1179q-93 -169 -195 -247.5t-246 -78.5zM405 -114l-238 1168h346l59 -425l22 -297h118zM572 1260l3 14l283 370h400l-3 -14l-375 -370
h-308z" />
    <glyph glyph-name="thorn" unicode="&#xfe;" 
d="M-56 -436l333 1896h342l-113 -643l-53 92h82q58 90 135 135t172 45q136 0 208 -102t72 -290q0 -212 -59 -377.5t-161.5 -260t-235.5 -94.5q-187 0 -267 159h-77l77 82l-113 -642h-342zM550 265q65 0 116 45t80.5 122.5t29.5 177.5q0 179 -117 179q-82 0 -138 -84
t-86 -253l-20 -113q23 -36 58 -55t77 -19z" />
    <glyph glyph-name="ydieresis" unicode="&#xff;" 
d="M188 -451q-179 0 -299 109l162 253q35 -31 68.5 -47.5t76.5 -16.5q45 0 73.5 22.5t55.5 71.5l153 276h92l139 412l196 425h374l-650 -1179q-93 -169 -195 -247.5t-246 -78.5zM405 -114l-238 1168h346l59 -425l22 -297h118zM463 1235q-86 0 -146 59.5t-60 144.5t60 144.5
t146 59.5q87 0 146.5 -59t59.5 -145t-59 -145t-147 -59zM1043 1235q-86 0 -146 59.5t-60 144.5t60 144.5t146 59.5q87 0 146.5 -59t59.5 -145t-59 -145t-147 -59z" />
    <glyph glyph-name="Amacron" unicode="&#x100;" 
d="M-90 0l695 1432h310l191 -1432h-350l-49 826l-12 228h-7l-82 -228l-341 -826h-355zM160 245l130 266h594l45 -266h-769zM471 1684l48 274h650l-48 -274h-650z" />
    <glyph glyph-name="amacron" unicode="&#x101;" 
d="M389 -35q-163 0 -258 121t-95 326q0 194 63 347t172 241.5t247 88.5q94 0 160.5 -48.5t86.5 -131.5h81l-85 -100l46 264h315l-104 -589q-7 -38 -10 -62t-3 -43q0 -79 93 -79h36l-52 -295q-30 -12 -60 -18.5t-65 -6.5q-103 0 -160.5 62t-57.5 174q0 29 5 59t18 74l49 -113
l-82 10q-46 -136 -133.5 -208.5t-206.5 -72.5zM510 265q71 0 118 81.5t78 257.5l18 102q-25 43 -57 63t-76 20q-65 0 -116 -42.5t-80 -117.5t-29 -171q0 -93 37.5 -143t106.5 -50zM388 1306l48 274h650l-48 -274h-650z" />
    <glyph glyph-name="Abreve" unicode="&#x102;" 
d="M-90 0l695 1432h310l191 -1432h-350l-49 826l-12 228h-7l-82 -228l-341 -826h-355zM160 245l130 266h594l45 -266h-769zM808 1624q-103 0 -184.5 37.5t-128 106.5t-46.5 161q0 28 2.5 47t6.5 46h242q-3 -14 -5 -28.5t-2 -29.5q0 -55 34.5 -85.5t101.5 -30.5
q74 0 118 41.5t57 132.5h250q-21 -146 -80.5 -233.5t-152 -126t-213.5 -38.5z" />
    <glyph glyph-name="abreve" unicode="&#x103;" 
d="M389 -35q-163 0 -258 121t-95 326q0 194 63 347t172 241.5t247 88.5q94 0 160.5 -48.5t86.5 -131.5h81l-85 -100l46 264h315l-104 -589q-7 -38 -10 -62t-3 -43q0 -79 93 -79h36l-52 -295q-30 -12 -60 -18.5t-65 -6.5q-103 0 -160.5 62t-57.5 174q0 29 5 59t18 74l49 -113
l-82 10q-46 -136 -133.5 -208.5t-206.5 -72.5zM510 265q71 0 118 81.5t78 257.5l18 102q-25 43 -57 63t-76 20q-65 0 -116 -42.5t-80 -117.5t-29 -171q0 -93 37.5 -143t106.5 -50zM725 1246q-103 0 -184.5 37.5t-128 106.5t-46.5 161q0 28 2.5 47t6.5 46h242
q-3 -14 -5 -28.5t-2 -29.5q0 -55 34.5 -85.5t101.5 -30.5q74 0 118 41.5t57 132.5h250q-21 -146 -80.5 -233.5t-152 -126t-213.5 -38.5z" />
    <glyph glyph-name="Aogonek" unicode="&#x104;" 
d="M-90 0l695 1432h310l191 -1432h-350l-49 826l-12 228h-7l-82 -228l-341 -826h-355zM160 245l130 266h594l45 -266h-769zM875 -552q-125 0 -199.5 65.5t-74.5 175.5q0 128 109.5 231t347.5 200l47 -120q-123 -59 -178.5 -113t-55.5 -113q0 -38 24.5 -60t66.5 -22
q39 0 82 17l28 -205q-47 -28 -95.5 -42t-101.5 -14z" />
    <glyph glyph-name="aogonek" unicode="&#x105;" 
d="M389 -35q-163 0 -258 121t-95 326q0 194 63 347t172 241.5t247 88.5q94 0 160.5 -48.5t86.5 -131.5h81l-85 -100l46 264h315l-104 -589q-7 -38 -10 -62t-3 -43q0 -79 93 -79h36l-52 -295q-30 -12 -60 -18.5t-65 -6.5q-103 0 -160.5 62t-57.5 174q0 29 5 59t18 74l49 -113
l-82 10q-46 -136 -133.5 -208.5t-206.5 -72.5zM510 265q71 0 118 81.5t78 257.5l18 102q-25 43 -57 63t-76 20q-65 0 -116 -42.5t-80 -117.5t-29 -171q0 -93 37.5 -143t106.5 -50zM852 -547q-125 0 -199.5 65.5t-74.5 175.5q0 128 109.5 231t347.5 200l47 -120
q-123 -59 -178.5 -113t-55.5 -113q0 -38 24.5 -60t66.5 -22q39 0 82 17l28 -205q-47 -28 -95.5 -42t-101.5 -14z" />
    <glyph glyph-name="Cacute" unicode="&#x106;" 
d="M609 -35q-156 0 -271 74t-177.5 209.5t-62.5 320.5q0 199 48 363.5t136.5 284.5t209.5 185t268 65q198 0 315.5 -117.5t145.5 -317.5l-326 -51q-10 76 -47 114t-100 38q-86 0 -154 -72.5t-107 -197.5t-39 -284q0 -137 46.5 -208.5t136.5 -71.5q66 0 110 43t73 134
l308 -119q-137 -392 -513 -392zM650 1638l3 14l283 370h400l-3 -14l-375 -370h-308z" />
    <glyph glyph-name="cacute" unicode="&#x107;" 
d="M643 -35q-160 0 -281 65t-189 181.5t-68 268.5q0 182 74 319t205.5 213.5t305.5 76.5q215 0 335 -118t127 -328l-329 -26q0 182 -145 182q-70 0 -123.5 -41t-83.5 -110t-30 -154q0 -100 60 -159.5t160 -59.5q68 0 125 26.5t116 86.5l190 -245q-100 -92 -206 -135
t-243 -43zM579 1260l3 14l283 370h400l-3 -14l-375 -370h-308z" />
    <glyph glyph-name="Cdotaccent" unicode="&#x10a;" 
d="M609 -35q-156 0 -271 74t-177.5 209.5t-62.5 320.5q0 199 48 363.5t136.5 284.5t209.5 185t268 65q198 0 315.5 -117.5t145.5 -317.5l-326 -51q-10 76 -47 114t-100 38q-86 0 -154 -72.5t-107 -197.5t-39 -284q0 -137 46.5 -208.5t136.5 -71.5q66 0 110 43t73 134
l308 -119q-137 -392 -513 -392zM842 1613q-90 0 -153 61.5t-63 152.5q0 89 62.5 151.5t153.5 62.5q92 0 154 -62.5t62 -151.5q0 -91 -62 -152.5t-154 -61.5z" />
    <glyph glyph-name="cdotaccent" unicode="&#x10b;" 
d="M643 -35q-160 0 -281 65t-189 181.5t-68 268.5q0 182 74 319t205.5 213.5t305.5 76.5q215 0 335 -118t127 -328l-329 -26q0 182 -145 182q-70 0 -123.5 -41t-83.5 -110t-30 -154q0 -100 60 -159.5t160 -59.5q68 0 125 26.5t116 86.5l190 -245q-100 -92 -206 -135
t-243 -43zM791 1235q-90 0 -153 61.5t-63 152.5q0 89 62.5 151.5t153.5 62.5q92 0 154 -62.5t62 -151.5q0 -91 -62 -152.5t-154 -61.5z" />
    <glyph glyph-name="Ccaron" unicode="&#x10c;" 
d="M609 -35q-156 0 -271 74t-177.5 209.5t-62.5 320.5q0 199 48 363.5t136.5 284.5t209.5 185t268 65q198 0 315.5 -117.5t145.5 -317.5l-326 -51q-10 76 -47 114t-100 38q-86 0 -154 -72.5t-107 -197.5t-39 -284q0 -137 46.5 -208.5t136.5 -71.5q66 0 110 43t73 134
l308 -119q-137 -392 -513 -392zM635 1638l-231 370l3 14h320l113 -299h-72l219 299h340l-3 -14l-361 -370h-328z" />
    <glyph glyph-name="ccaron" unicode="&#x10d;" 
d="M643 -35q-160 0 -281 65t-189 181.5t-68 268.5q0 182 74 319t205.5 213.5t305.5 76.5q215 0 335 -118t127 -328l-329 -26q0 182 -145 182q-70 0 -123.5 -41t-83.5 -110t-30 -154q0 -100 60 -159.5t160 -59.5q68 0 125 26.5t116 86.5l190 -245q-100 -92 -206 -135
t-243 -43zM564 1260l-231 370l3 14h320l113 -299h-72l219 299h340l-3 -14l-361 -370h-328z" />
    <glyph glyph-name="Dcaron" unicode="&#x10e;" 
d="M16 0l252 1432h338q268 0 409.5 -157.5t141.5 -456.5q0 -258 -78.5 -441t-227 -280t-358.5 -97h-477zM418 330h95q140 0 217 125t77 353q0 155 -47 224.5t-153 69.5h-53zM580 1638l-231 370l3 14h320l113 -299h-72l219 299h340l-3 -14l-361 -370h-328z" />
    <glyph glyph-name="dcaron" unicode="&#x10f;" 
d="M303 -35q-145 0 -234 115.5t-89 321.5q0 107 22.5 226.5t72.5 224t130.5 170.5t196.5 66q93 0 148 -49t80 -131h81l-86 -100l116 651h285l-182 -1028q-7 -38 -10 -62t-3 -43q0 -79 97 -79h42l-45 -245q-27 -11 -54.5 -17t-59.5 -6q-99 0 -153.5 62t-54.5 174q0 29 5 59
t18 74l49 -103h-84q-38 -127 -109 -204t-179 -77zM402 245q62 0 98.5 86.5t69.5 272.5l27 153q-20 26 -43.5 39t-56.5 13q-52 0 -89.5 -37t-61 -96.5t-35 -127.5t-11.5 -130q0 -83 26.5 -128t75.5 -45zM1144 888l-127 94q85 170 85 327q0 31 -3 63t-11 66l257 54
q8 -33 11.5 -67t3.5 -67q0 -119 -51.5 -230.5t-164.5 -239.5z" />
    <glyph glyph-name="Dcroat" unicode="&#x110;" 
d="M78 0l252 1432h318q270 0 416 -146.5t146 -417.5q0 -274 -80 -468t-231 -297t-364 -103h-457zM44 580l54 308h695l-54 -308h-695zM433 314h122q160 0 247.5 142.5t87.5 401.5q0 137 -56.5 198.5t-184.5 61.5h-74z" />
    <glyph glyph-name="dcroat" unicode="&#x111;" 
d="M385 -35q-160 0 -257.5 117t-97.5 310q0 174 61.5 312t168.5 217.5t241 79.5q189 0 249 -180h97l-91 -39l129 733h308l-181 -1031q-7 -39 -10 -63t-3 -42q0 -79 93 -79h42l-52 -295q-65 -25 -125 -25q-103 0 -160.5 62t-57.5 174q0 29 5 59t18 74l49 -113l-82 10
q-47 -135 -136.5 -208t-207.5 -73zM500 255q77 0 128 77t79 234l18 102q-49 61 -135 61q-67 0 -119 -38.5t-81.5 -106t-29.5 -156.5q0 -82 37 -127.5t103 -45.5zM496 1115l40 226h808l-40 -226h-808z" />
    <glyph glyph-name="Emacron" unicode="&#x112;" 
d="M38 0l252 1432h916l-57 -322h-572l-138 -788h587l-57 -322h-931zM354 570l56 318h620l-56 -318h-620zM467 1684l48 274h650l-48 -274h-650z" />
    <glyph glyph-name="emacron" unicode="&#x113;" 
d="M609 -35q-157 0 -277 67t-187.5 184t-67.5 266q0 124 42 233.5t122.5 193.5t195 132t259.5 48q203 0 307 -94t104 -234q0 -126 -84.5 -201.5t-262.5 -109t-458 -33.5l-15 172q174 3 287 16.5t168 42.5t55 79q0 38 -26.5 60t-85.5 22q-88 0 -153 -43.5t-101 -116
t-36 -159.5q0 -108 58 -166.5t164 -58.5q71 0 130.5 27.5t118.5 88.5l182 -235q-91 -92 -196.5 -136.5t-242.5 -44.5zM420 1306l48 274h650l-48 -274h-650z" />
    <glyph glyph-name="Edotaccent" unicode="&#x116;" 
d="M38 0l252 1432h916l-57 -322h-572l-138 -788h587l-57 -322h-931zM354 570l56 318h620l-56 -318h-620zM817 1613q-90 0 -153 61.5t-63 152.5q0 89 62.5 151.5t153.5 62.5q92 0 154 -62.5t62 -151.5q0 -91 -62 -152.5t-154 -61.5z" />
    <glyph glyph-name="edotaccent" unicode="&#x117;" 
d="M609 -35q-157 0 -277 67t-187.5 184t-67.5 266q0 124 42 233.5t122.5 193.5t195 132t259.5 48q203 0 307 -94t104 -234q0 -126 -84.5 -201.5t-262.5 -109t-458 -33.5l-15 172q174 3 287 16.5t168 42.5t55 79q0 38 -26.5 60t-85.5 22q-88 0 -153 -43.5t-101 -116
t-36 -159.5q0 -108 58 -166.5t164 -58.5q71 0 130.5 27.5t118.5 88.5l182 -235q-91 -92 -196.5 -136.5t-242.5 -44.5zM770 1235q-90 0 -153 61.5t-63 152.5q0 89 62.5 151.5t153.5 62.5q92 0 154 -62.5t62 -151.5q0 -91 -62 -152.5t-154 -61.5z" />
    <glyph glyph-name="Eogonek" unicode="&#x118;" 
d="M38 0l252 1432h916l-57 -322h-572l-138 -788h587l-57 -322h-931zM354 570l56 318h620l-56 -318h-620zM739 -552q-125 0 -199.5 65.5t-74.5 175.5q0 128 109.5 231t347.5 200l47 -120q-123 -59 -178.5 -113t-55.5 -113q0 -38 24.5 -60t66.5 -22q39 0 82 17l28 -205
q-47 -28 -95.5 -42t-101.5 -14z" />
    <glyph glyph-name="eogonek" unicode="&#x119;" 
d="M609 -35q-157 0 -277 67t-187.5 184t-67.5 266q0 124 42 233.5t122.5 193.5t195 132t259.5 48q203 0 307 -94t104 -234q0 -126 -84.5 -201.5t-262.5 -109t-458 -33.5l-15 172q174 3 287 16.5t168 42.5t55 79q0 38 -26.5 60t-85.5 22q-88 0 -153 -43.5t-101 -116
t-36 -159.5q0 -108 58 -166.5t164 -58.5q71 0 130.5 27.5t118.5 88.5l182 -235q-91 -92 -196.5 -136.5t-242.5 -44.5zM613 -546q-125 0 -199.5 65.5t-74.5 175.5q0 128 109.5 231t347.5 200l47 -120q-123 -59 -178.5 -113t-55.5 -113q0 -38 24.5 -60t66.5 -22q39 0 82 17
l28 -205q-47 -28 -95.5 -42t-101.5 -14z" />
    <glyph glyph-name="Ecaron" unicode="&#x11a;" 
d="M38 0l252 1432h916l-57 -322h-572l-138 -788h587l-57 -322h-931zM354 570l56 318h620l-56 -318h-620zM620 1638l-231 370l3 14h320l113 -299h-72l219 299h340l-3 -14l-361 -370h-328z" />
    <glyph glyph-name="ecaron" unicode="&#x11b;" 
d="M609 -35q-157 0 -277 67t-187.5 184t-67.5 266q0 124 42 233.5t122.5 193.5t195 132t259.5 48q203 0 307 -94t104 -234q0 -126 -84.5 -201.5t-262.5 -109t-458 -33.5l-15 172q174 3 287 16.5t168 42.5t55 79q0 38 -26.5 60t-85.5 22q-88 0 -153 -43.5t-101 -116
t-36 -159.5q0 -108 58 -166.5t164 -58.5q71 0 130.5 27.5t118.5 88.5l182 -235q-91 -92 -196.5 -136.5t-242.5 -44.5zM573 1260l-231 370l3 14h320l113 -299h-72l219 299h340l-3 -14l-361 -370h-328z" />
    <glyph glyph-name="Gbreve" unicode="&#x11e;" 
d="M627 -35q-163 0 -286 73t-191 205.5t-68 308.5q0 276 84.5 482t236.5 319.5t356 113.5q198 0 319 -106.5t152 -309.5l-326 -51q-12 71 -52.5 106t-109.5 35q-96 0 -165.5 -70t-107 -199.5t-37.5 -309.5q0 -133 55 -205t155 -72q88 0 140 57t67 170l6 45h-256l48 271h563
l-47 -336q-35 -253 -175 -390t-361 -137zM849 1624q-103 0 -184.5 37.5t-128 106.5t-46.5 161q0 28 2.5 47t6.5 46h242q-3 -14 -5 -28.5t-2 -29.5q0 -55 34.5 -85.5t101.5 -30.5q74 0 118 41.5t57 132.5h250q-21 -146 -80.5 -233.5t-152 -126t-213.5 -38.5z" />
    <glyph glyph-name="gbreve" unicode="&#x11f;" 
d="M483 -574q-170 0 -303.5 47t-209.5 132t-76 197q0 92 52.5 166.5t146.5 122t218 57.5l19 -125q-71 -32 -103.5 -80.5t-32.5 -104.5q0 -89 81 -135t220 -46q129 0 195 36t66 97q0 43 -28.5 70t-102.5 41l-500 97v45l256 318l171 -33l-64 -139l265 -51
q164 -31 233.5 -108.5t69.5 -195.5q0 -120 -72.5 -212t-201.5 -144t-299 -52zM623 270q-137 0 -245.5 51.5t-171 141t-62.5 201.5q0 103 56 200.5t167 161t274 63.5q131 0 236.5 -53t168 -143.5t62.5 -201.5q0 -107 -58.5 -203.5t-167 -157t-259.5 -60.5zM628 530
q56 0 96 19.5t62 54.5t22 80q0 66 -47 104.5t-127 38.5q-63 0 -105.5 -21.5t-63.5 -57.5t-21 -80q0 -65 49 -101.5t135 -36.5zM915 933l-108 65q61 166 182.5 229.5t299.5 63.5l-47 -266q-109 0 -184.5 -18.5t-142.5 -73.5zM744 1246q-103 0 -184.5 37.5t-128 106.5
t-46.5 161q0 28 2.5 47t6.5 46h242q-3 -14 -5 -28.5t-2 -29.5q0 -55 34.5 -85.5t101.5 -30.5q74 0 118 41.5t57 132.5h250q-21 -146 -80.5 -233.5t-152 -126t-213.5 -38.5z" />
    <glyph glyph-name="Gdotaccent" unicode="&#x120;" 
d="M627 -35q-163 0 -286 73t-191 205.5t-68 308.5q0 276 84.5 482t236.5 319.5t356 113.5q198 0 319 -106.5t152 -309.5l-326 -51q-12 71 -52.5 106t-109.5 35q-96 0 -165.5 -70t-107 -199.5t-37.5 -309.5q0 -133 55 -205t155 -72q88 0 140 57t67 170l6 45h-256l48 271h563
l-47 -336q-35 -253 -175 -390t-361 -137zM862 1613q-90 0 -153 61.5t-63 152.5q0 89 62.5 151.5t153.5 62.5q92 0 154 -62.5t62 -151.5q0 -91 -62 -152.5t-154 -61.5z" />
    <glyph glyph-name="gdotaccent" unicode="&#x121;" 
d="M483 -574q-170 0 -303.5 47t-209.5 132t-76 197q0 92 52.5 166.5t146.5 122t218 57.5l19 -125q-71 -32 -103.5 -80.5t-32.5 -104.5q0 -89 81 -135t220 -46q129 0 195 36t66 97q0 43 -28.5 70t-102.5 41l-500 97v45l256 318l171 -33l-64 -139l265 -51
q164 -31 233.5 -108.5t69.5 -195.5q0 -120 -72.5 -212t-201.5 -144t-299 -52zM623 270q-137 0 -245.5 51.5t-171 141t-62.5 201.5q0 103 56 200.5t167 161t274 63.5q131 0 236.5 -53t168 -143.5t62.5 -201.5q0 -107 -58.5 -203.5t-167 -157t-259.5 -60.5zM628 530
q56 0 96 19.5t62 54.5t22 80q0 66 -47 104.5t-127 38.5q-63 0 -105.5 -21.5t-63.5 -57.5t-21 -80q0 -65 49 -101.5t135 -36.5zM915 933l-108 65q61 166 182.5 229.5t299.5 63.5l-47 -266q-109 0 -184.5 -18.5t-142.5 -73.5zM757 1235q-90 0 -153 61.5t-63 152.5
q0 89 62.5 151.5t153.5 62.5q92 0 154 -62.5t62 -151.5q0 -91 -62 -152.5t-154 -61.5z" />
    <glyph glyph-name="uni0122" unicode="&#x122;" 
d="M627 -35q-163 0 -286 73t-191 205.5t-68 308.5q0 276 84.5 482t236.5 319.5t356 113.5q198 0 319 -106.5t152 -309.5l-326 -51q-12 71 -52.5 106t-109.5 35q-96 0 -165.5 -70t-107 -199.5t-37.5 -309.5q0 -133 55 -205t155 -72q88 0 140 57t67 170l6 45h-256l48 271h563
l-47 -336q-35 -253 -175 -390t-361 -137zM372 -895l-116 191q81 48 146 105t123 133l-8 -71q-88 7 -141.5 58t-53.5 130q0 89 58.5 146t149.5 57q95 0 154.5 -63.5t59.5 -166.5q0 -101 -46.5 -195t-130 -176t-195.5 -148z" />
    <glyph glyph-name="uni0123" unicode="&#x123;" 
d="M483 -574q-170 0 -303.5 47t-209.5 132t-76 197q0 92 52.5 166.5t146.5 122t218 57.5l19 -125q-71 -32 -103.5 -80.5t-32.5 -104.5q0 -89 81 -135t220 -46q129 0 195 36t66 97q0 43 -28.5 70t-102.5 41l-500 97v45l256 318l171 -33l-64 -139l265 -51
q164 -31 233.5 -108.5t69.5 -195.5q0 -120 -72.5 -212t-201.5 -144t-299 -52zM623 270q-137 0 -245.5 51.5t-171 141t-62.5 201.5q0 103 56 200.5t167 161t274 63.5q131 0 236.5 -53t168 -143.5t62.5 -201.5q0 -107 -58.5 -203.5t-167 -157t-259.5 -60.5zM628 530
q56 0 96 19.5t62 54.5t22 80q0 66 -47 104.5t-127 38.5q-63 0 -105.5 -21.5t-63.5 -57.5t-21 -80q0 -65 49 -101.5t135 -36.5zM915 933l-108 65q61 166 182.5 229.5t299.5 63.5l-47 -266q-109 0 -184.5 -18.5t-142.5 -73.5zM864 2009l116 -191q-81 -48 -146 -104.5
t-123 -133.5l8 71q88 -7 141.5 -58t53.5 -130q0 -89 -58 -146t-150 -57q-95 0 -154.5 63.5t-59.5 166.5q0 101 46.5 195t130.5 176t195 148z" />
    <glyph glyph-name="Hbar" unicode="&#x126;" 
d="M53 0l252 1432h328l-252 -1432h-328zM327 516l54 306h557l-54 -306h-557zM633 0l252 1432h328l-252 -1432h-328zM93 998l47 266h1180l-47 -266h-1180z" />
    <glyph glyph-name="hbar" unicode="&#x127;" 
d="M913 -20q-126 0 -197 72.5t-71 199.5q0 44 7.5 88t20.5 100l17 70q10 40 15 70.5t5 55.5q0 43 -14.5 63t-49.5 20q-43 0 -76 -37.5t-56.5 -105.5t-39.5 -160l-73 -416h-343l266 1515h312l-133 -754l-31 45h48q138 195 322 195q98 0 153.5 -61.5t55.5 -171.5q0 -40 -6 -84
t-19 -99l-27 -116q-10 -41 -13 -59t-3 -31q0 -79 94 -79h33l-52 -295q-37 -12 -72.5 -18.5t-72.5 -6.5zM85 1123l40 226h816l-39 -226h-817z" />
    <glyph glyph-name="Itilde" unicode="&#x128;" 
d="M360 155l198 1122h350l-198 -1122h-350zM38 0l57 326h939l-57 -326h-939zM233 1106l57 326h939l-57 -326h-939zM982 1635q-55 0 -98 20.5t-87 60.5q-40 38 -60.5 52t-43.5 14t-33.5 -16t-16.5 -48l-16 -80h-238l16 89q26 145 95 221.5t177 76.5q56 0 99 -20t86 -61
q40 -37 60.5 -51.5t43.5 -14.5t34 16.5t16 47.5l14 80h240l-16 -89q-25 -145 -94.5 -221.5t-177.5 -76.5z" />
    <glyph glyph-name="itilde" unicode="&#x129;" 
d="M801 -35q-189 0 -300 102t-111 279q0 29 4.5 64.5t12.5 82.5l82 464l82 -153h-392l44 250h620l-101 -575q-4 -25 -6 -42.5t-2 -35.5q0 -63 29 -97.5t86 -34.5q53 0 114 40l127 -268q-130 -76 -289 -76zM877 1257q-55 0 -98 20.5t-87 60.5q-40 38 -60.5 52t-43.5 14
t-33.5 -16t-16.5 -48l-16 -80h-238l16 89q26 145 95 221.5t177 76.5q56 0 99 -20t86 -61q40 -37 60.5 -51.5t43.5 -14.5t34 16.5t16 47.5l14 80h240l-16 -89q-25 -145 -94.5 -221.5t-177.5 -76.5z" />
    <glyph glyph-name="Imacron" unicode="&#x12a;" 
d="M360 155l198 1122h350l-198 -1122h-350zM38 0l57 326h939l-57 -326h-939zM233 1106l57 326h939l-57 -326h-939zM479 1684l48 274h650l-48 -274h-650z" />
    <glyph glyph-name="imacron" unicode="&#x12b;" 
d="M801 -35q-189 0 -300 102t-111 279q0 29 4.5 64.5t12.5 82.5l82 464l82 -153h-392l44 250h620l-101 -575q-4 -25 -6 -42.5t-2 -35.5q0 -63 29 -97.5t86 -34.5q53 0 114 40l127 -268q-130 -76 -289 -76zM374 1306l48 274h650l-48 -274h-650z" />
    <glyph glyph-name="Iogonek" unicode="&#x12e;" 
d="M360 155l198 1122h350l-198 -1122h-350zM38 0l57 326h939l-57 -326h-939zM233 1106l57 326h939l-57 -326h-939zM466 -552q-125 0 -199.5 65.5t-74.5 175.5q0 128 109.5 231t347.5 200l47 -120q-123 -59 -178.5 -113t-55.5 -113q0 -38 24.5 -60t66.5 -22q39 0 82 17
l28 -205q-47 -28 -95.5 -42t-101.5 -14z" />
    <glyph glyph-name="iogonek" unicode="&#x12f;" 
d="M801 -35q-189 0 -300 102t-111 279q0 29 4.5 64.5t12.5 82.5l82 464l82 -153h-392l44 250h620l-101 -575q-4 -25 -6 -42.5t-2 -35.5q0 -63 29 -97.5t86 -34.5q53 0 114 40l127 -268q-130 -76 -289 -76zM733 1235q-88 0 -150.5 60.5t-62.5 147.5q0 89 61 148t152 59
q92 0 151.5 -58.5t59.5 -148.5q0 -88 -60.5 -148t-150.5 -60zM773 -552q-125 0 -199.5 65.5t-74.5 175.5q0 128 109.5 231t347.5 200l47 -120q-123 -59 -178.5 -113t-55.5 -113q0 -38 24.5 -60t66.5 -22q39 0 82 17l28 -205q-47 -28 -95.5 -42t-101.5 -14z" />
    <glyph glyph-name="Idotaccent" unicode="&#x130;" 
d="M360 155l198 1122h350l-198 -1122h-350zM38 0l57 326h939l-57 -326h-939zM233 1106l57 326h939l-57 -326h-939zM829 1613q-90 0 -153 61.5t-63 152.5q0 89 62.5 151.5t153.5 62.5q92 0 154 -62.5t62 -151.5q0 -91 -62 -152.5t-154 -61.5z" />
    <glyph glyph-name="dotlessi" unicode="&#x131;" 
d="M801 -35q-189 0 -300 102t-111 279q0 29 4.5 64.5t12.5 82.5l82 464l82 -153h-392l44 250h620l-101 -575q-4 -25 -6 -42.5t-2 -35.5q0 -63 29 -97.5t86 -34.5q53 0 114 40l127 -268q-130 -76 -289 -76z" />
    <glyph glyph-name="IJ" unicode="&#x132;" 
d="M571 -35q-207 0 -343.5 113.5t-162.5 308.5l357 71q20 -153 157 -153q71 0 114.5 43.5t58.5 128.5l168 955h350l-177 -999q-41 -231 -173 -349.5t-349 -118.5zM107 615l143 817h350l-143 -817h-350z" />
    <glyph glyph-name="ij" unicode="&#x133;" 
d="M504 -461q-151 0 -280.5 63.5t-214.5 178.5l231 189q112 -153 266 -153q91 0 147 55.5t75 161.5l41 232l51 -97h-81q-99 -169 -291 -169q-82 0 -146 37t-101 100.5t-37 144.5q0 52 15 137l112 635h342l-106 -599q-4 -20 -5.5 -35t-1.5 -28q0 -49 32 -78.5t85 -29.5
q68 0 109.5 45.5t57.5 135.5l104 589h344l-181 -1030q-40 -232 -188 -358.5t-379 -126.5zM77 804l44 250h470l-44 -250h-470zM497 1235q-88 0 -150.5 60.5t-62.5 147.5q0 89 61 148t152 59q92 0 151.5 -58.5t59.5 -148.5q0 -88 -60.5 -148t-150.5 -60zM704 804l44 250h416
l-44 -250h-416zM1119 1235q-89 0 -151 60.5t-62 147.5q0 89 61 148t152 59q92 0 151.5 -58.5t59.5 -148.5q0 -88 -60.5 -148t-150.5 -60z" />
    <glyph glyph-name="uni0136" unicode="&#x136;" 
d="M942 -35q-76 0 -136 27t-109.5 98t-94.5 202l-155 451l1 9l476 680h402l-560 -779l24 132l151 -396q21 -55 56 -79.5t98 -24.5h34l-52 -295q-30 -12 -65 -18.5t-70 -6.5zM-22 0l252 1432h348l-252 -1432h-348zM369 -895l-116 191q81 48 146 105t123 133l-8 -71
q-88 7 -141.5 58t-53.5 130q0 89 58.5 146t149.5 57q95 0 154.5 -63.5t59.5 -166.5q0 -101 -46.5 -195t-130 -176t-195.5 -148z" />
    <glyph glyph-name="uni0137" unicode="&#x137;" 
d="M707 0l-283 564l1 8l426 482h402l-521 -559l20 114l317 -609h-362zM-3 0l258 1460h342l-258 -1460h-342zM341 -879l-116 191q81 48 146 105t123 133l-8 -71q-88 7 -141.5 58t-53.5 130q0 89 58.5 146t149.5 57q95 0 154.5 -63.5t59.5 -166.5q0 -101 -46.5 -195t-130 -176
t-195.5 -148z" />
    <glyph glyph-name="kgreenlandic" unicode="&#x138;" 
d="M707 0l-283 564l1 8l426 482h402l-521 -559l20 114l317 -609h-362zM-3 0l186 1054h342l-186 -1054h-342z" />
    <glyph glyph-name="Lacute" unicode="&#x139;" 
d="M56 0l252 1432h348l-194 -1104h623l-58 -328h-971zM369 1638l3 14l283 370h400l-3 -14l-375 -370h-308z" />
    <glyph glyph-name="lacute" unicode="&#x13a;" 
d="M742 -35q-191 0 -307 98.5t-116 260.5q0 35 5 78.5t15 102.5l149 842l132 -147h-443l46 260h629l-175 -990q-4 -25 -7 -46.5t-3 -37.5q0 -54 34.5 -85.5t92.5 -31.5q37 0 69 11t72 37l127 -268q-79 -43 -155 -63.5t-165 -20.5zM567 1666l3 14l283 370h400l-3 -14
l-375 -370h-308z" />
    <glyph glyph-name="uni013B" unicode="&#x13b;" 
d="M56 0l252 1432h348l-194 -1104h623l-58 -328h-971zM387 -895l-116 191q81 48 146 105t123 133l-8 -71q-88 7 -141.5 58t-53.5 130q0 89 58.5 146t149.5 57q95 0 154.5 -63.5t59.5 -166.5q0 -101 -46.5 -195t-130 -176t-195.5 -148z" />
    <glyph glyph-name="uni013C" unicode="&#x13c;" 
d="M742 -35q-191 0 -307 98.5t-116 260.5q0 35 5 78.5t15 102.5l149 842l132 -147h-443l46 260h629l-175 -990q-4 -25 -7 -46.5t-3 -37.5q0 -54 34.5 -85.5t92.5 -31.5q37 0 69 11t72 37l127 -268q-79 -43 -155 -63.5t-165 -20.5zM389 -930l-116 191q81 48 146 105t123 133
l-8 -71q-88 7 -141.5 58t-53.5 130q0 89 58.5 146t149.5 57q95 0 154.5 -63.5t59.5 -166.5q0 -101 -46.5 -195t-130 -176t-195.5 -148z" />
    <glyph glyph-name="Lcaron" unicode="&#x13d;" 
d="M936 801l-180 123q111 169 111 333q0 71 -20 142l337 61q11 -38 15.5 -77t4.5 -77q0 -128 -63.5 -248t-204.5 -257zM56 0l252 1432h348l-194 -1104h623l-58 -328h-971z" />
    <glyph glyph-name="lcaron" unicode="&#x13e;" 
d="M703 -35q-126 0 -220.5 48.5t-147.5 136t-53 202.5q0 32 4 67t13 86l150 848l132 -153h-414l46 260h599l-175 -990q-4 -25 -6.5 -45t-2.5 -38q0 -54 35.5 -86t90.5 -32q39 0 71.5 10.5t72.5 34.5l126 -259q-78 -46 -153.5 -68t-167.5 -22zM978 854l-146 123q56 83 80 160
t24 156q0 66 -18 145l307 54q17 -74 17 -150q0 -123 -63 -240t-201 -248z" />
    <glyph glyph-name="Ldot" unicode="&#x13f;" 
d="M56 0l252 1432h348l-194 -1104h623l-58 -328h-971zM971 625q-92 0 -156 63.5t-64 154.5t64 154.5t156 63.5q93 0 156.5 -63t63.5 -155t-63 -155t-157 -63z" />
    <glyph glyph-name="ldot" unicode="&#x140;" 
d="M742 -35q-191 0 -307 98.5t-116 260.5q0 35 5 78.5t15 102.5l149 842l132 -147h-443l46 260h629l-175 -990q-4 -25 -7 -46.5t-3 -37.5q0 -54 34.5 -85.5t92.5 -31.5q37 0 69 11t72 37l127 -268q-79 -43 -155 -63.5t-165 -20.5zM1167 545q-92 0 -156 63.5t-64 154.5
t64 154.5t156 63.5q93 0 156.5 -63t63.5 -155t-63 -155t-157 -63z" />
    <glyph glyph-name="Lslash" unicode="&#x141;" 
d="M165 0l252 1432h318l-194 -1104h558l-58 -328h-876zM-36 320l61 344l307 167l55 -4l700 381l-62 -344l-704 -379l-44 7z" />
    <glyph glyph-name="lslash" unicode="&#x142;" 
d="M63 401l55 312l457 220l58 -7l504 244l-56 -318l-507 -242l-57 9zM742 -35q-191 0 -307 98.5t-116 260.5q0 35 5 78.5t15 102.5l149 842l132 -147h-443l46 260h629l-175 -990q-4 -25 -7 -46.5t-3 -37.5q0 -54 34.5 -85.5t92.5 -31.5q37 0 69 11t72 37l127 -268
q-79 -43 -155 -63.5t-165 -20.5z" />
    <glyph glyph-name="Nacute" unicode="&#x143;" 
d="M-34 0l252 1432h326l281 -836h9l42 328l89 508h336l-252 -1432h-302l-297 879h-9l-42 -328l-97 -551h-336zM601 1638l3 14l283 370h400l-3 -14l-375 -370h-308z" />
    <glyph glyph-name="nacute" unicode="&#x144;" 
d="M928 -20q-130 0 -204 72.5t-74 199.5q0 44 7.5 87t20.5 101l38 158q11 44 17 75.5t6 58.5q0 37 -17 56t-53 19q-49 0 -91.5 -40.5t-74.5 -113.5t-49 -171l-85 -482h-346l186 1053h328l-36 -204l-31 45h48q144 195 349 195q113 0 173.5 -61.5t60.5 -165.5q0 -42 -7 -88
t-21 -101l-49 -204q-10 -40 -13 -58.5t-3 -31.5q0 -79 94 -79h33l-52 -295q-81 -25 -155 -25zM575 1260l3 14l283 370h400l-3 -14l-375 -370h-308z" />
    <glyph glyph-name="uni0145" unicode="&#x145;" 
d="M-34 0l252 1432h326l281 -836h9l42 328l89 508h336l-252 -1432h-302l-297 879h-9l-42 -328l-97 -551h-336zM365 -895l-116 191q81 48 146 105t123 133l-8 -71q-88 7 -141.5 58t-53.5 130q0 89 58.5 146t149.5 57q95 0 154.5 -63.5t59.5 -166.5q0 -101 -46.5 -195
t-130 -176t-195.5 -148z" />
    <glyph glyph-name="uni0146" unicode="&#x146;" 
d="M928 -20q-130 0 -204 72.5t-74 199.5q0 44 7.5 87t20.5 101l38 158q11 44 17 75.5t6 58.5q0 37 -17 56t-53 19q-49 0 -91.5 -40.5t-74.5 -113.5t-49 -171l-85 -482h-346l186 1053h328l-36 -204l-31 45h48q144 195 349 195q113 0 173.5 -61.5t60.5 -165.5q0 -42 -7 -88
t-21 -101l-49 -204q-10 -40 -13 -58.5t-3 -31.5q0 -79 94 -79h33l-52 -295q-81 -25 -155 -25zM403 -879l-116 191q81 48 146 105t123 133l-8 -71q-88 7 -141.5 58t-53.5 130q0 89 58.5 146t149.5 57q95 0 154.5 -63.5t59.5 -166.5q0 -101 -46.5 -195t-130 -176t-195.5 -148z
" />
    <glyph glyph-name="Ncaron" unicode="&#x147;" 
d="M-34 0l252 1432h326l281 -836h9l42 328l89 508h336l-252 -1432h-302l-297 879h-9l-42 -328l-97 -551h-336zM586 1638l-231 370l3 14h320l113 -299h-72l219 299h340l-3 -14l-361 -370h-328z" />
    <glyph glyph-name="ncaron" unicode="&#x148;" 
d="M928 -20q-130 0 -204 72.5t-74 199.5q0 44 7.5 87t20.5 101l38 158q11 44 17 75.5t6 58.5q0 37 -17 56t-53 19q-49 0 -91.5 -40.5t-74.5 -113.5t-49 -171l-85 -482h-346l186 1053h328l-36 -204l-31 45h48q144 195 349 195q113 0 173.5 -61.5t60.5 -165.5q0 -42 -7 -88
t-21 -101l-49 -204q-10 -40 -13 -58.5t-3 -31.5q0 -79 94 -79h33l-52 -295q-81 -25 -155 -25zM560 1260l-231 370l3 14h320l113 -299h-72l219 299h340l-3 -14l-361 -370h-328z" />
    <glyph glyph-name="napostrophe" unicode="&#x149;" 
d="M1005 -20q-101 0 -161 62.5t-60 168.5q0 39 7.5 86.5t25.5 121.5l43 179q12 49 17.5 85.5t5.5 62.5q0 77 -59 77q-67 0 -112 -84t-76 -257l-85 -482h-320l186 1053h302l-36 -204l-33 38h48q130 202 314 202q95 0 141.5 -57t46.5 -166q0 -41 -6.5 -87.5t-20.5 -105.5
l-56 -234q-10 -44 -14 -65.5t-4 -37.5q0 -66 66 -66h13l-45 -265q-65 -25 -128 -25zM49 882l238 578h354l-330 -578h-262z" />
    <glyph glyph-name="Eng" unicode="&#x14a;" 
d="M545 -471q-116 0 -214 36.5t-171 107.5l230 256q66 -66 151 -66q65 0 110 43t58 119l149 844q6 33 8.5 59t2.5 47q0 76 -37.5 117t-107.5 41q-57 0 -103 -27.5t-77 -78.5t-44 -123l-160 -904h-348l252 1432h332l-32 -181h10q71 101 169.5 158.5t206.5 57.5q147 0 229 -86
t82 -241q0 -38 -3.5 -78t-11.5 -83l-176 -995q-37 -214 -171.5 -334.5t-333.5 -120.5z" />
    <glyph glyph-name="eng" unicode="&#x14b;" 
d="M498 -451q-102 0 -189.5 38t-144.5 105l222 207q38 -52 96 -52q44 0 71 32t42 105l127 614q10 47 13.5 77t3.5 55q0 38 -17.5 57.5t-52.5 19.5q-48 0 -90.5 -40t-74.5 -112.5t-50 -172.5l-85 -482h-346l186 1053h328l-36 -204l-31 45h48q144 195 349 195
q110 0 172.5 -61.5t62.5 -168.5q0 -40 -5 -82t-18 -104l-151 -719q-41 -196 -152 -300.5t-278 -104.5z" />
    <glyph glyph-name="Omacron" unicode="&#x14c;" 
d="M541 -35q-145 0 -251.5 64.5t-165 186t-58.5 293.5q0 118 21 249.5t68.5 257t125.5 227.5t191 163t267 61q218 0 339 -146.5t121 -404.5q0 -118 -20.5 -249t-67 -255.5t-123 -225.5t-187 -161t-260.5 -60zM573 299q63 0 109.5 41t78.5 108t51.5 147.5t28 161t8.5 146.5
q0 109 -35 169.5t-107 60.5q-64 0 -112.5 -41.5t-82.5 -110t-55 -150t-31 -162.5t-10 -147q0 -113 40 -168t117 -55zM459 1684l48 274h650l-48 -274h-650z" />
    <glyph glyph-name="omacron" unicode="&#x14d;" 
d="M556 -35q-140 0 -251 59.5t-175 171t-64 265.5q0 131 41 245t118.5 200t185.5 134.5t242 48.5q148 0 255 -61.5t165.5 -172.5t58.5 -262q0 -136 -39 -250.5t-114 -199t-181.5 -131.5t-241.5 -47zM570 263q62 0 104.5 30.5t69 80.5t38.5 107.5t12 111.5q0 91 -38.5 144.5
t-116.5 53.5q-62 0 -106.5 -30.5t-73 -80.5t-42 -107.5t-13.5 -111.5q0 -91 43.5 -144.5t122.5 -53.5zM372 1306l48 274h650l-48 -274h-650z" />
    <glyph glyph-name="Ohungarumlaut" unicode="&#x150;" 
d="M541 -35q-145 0 -251.5 64.5t-165 186t-58.5 293.5q0 118 21 249.5t68.5 257t125.5 227.5t191 163t267 61q218 0 339 -146.5t121 -404.5q0 -118 -20.5 -249t-67 -255.5t-123 -225.5t-187 -161t-260.5 -60zM573 299q63 0 109.5 41t78.5 108t51.5 147.5t28 161t8.5 146.5
q0 109 -35 169.5t-107 60.5q-64 0 -112.5 -41.5t-82.5 -110t-55 -150t-31 -162.5t-10 -147q0 -113 40 -168t117 -55zM857 1638l3 14l223 370h360l-3 -14l-315 -370h-268zM387 1638l3 14l223 370h360l-3 -14l-315 -370h-268z" />
    <glyph glyph-name="ohungarumlaut" unicode="&#x151;" 
d="M556 -35q-140 0 -251 59.5t-175 171t-64 265.5q0 131 41 245t118.5 200t185.5 134.5t242 48.5q148 0 255 -61.5t165.5 -172.5t58.5 -262q0 -136 -39 -250.5t-114 -199t-181.5 -131.5t-241.5 -47zM570 263q62 0 104.5 30.5t69 80.5t38.5 107.5t12 111.5q0 91 -38.5 144.5
t-116.5 53.5q-62 0 -106.5 -30.5t-73 -80.5t-42 -107.5t-13.5 -111.5q0 -91 43.5 -144.5t122.5 -53.5zM770 1260l3 14l223 370h360l-3 -14l-315 -370h-268zM300 1260l3 14l223 370h360l-3 -14l-315 -370h-268z" />
    <glyph glyph-name="OE" unicode="&#x152;" 
d="M332 -35q-130 0 -209 124t-79 360q0 104 15.5 238t50 270.5t90 252t135 186.5t185.5 71q114 0 172 -85.5t72 -239.5h18l62 290h483l-55 -312h-299l-142 -808h315l-55 -312h-499l30 222h-18q-48 -130 -118 -193.5t-154 -63.5zM447 289q36 0 64.5 37.5t51 99.5t38.5 137.5
t26 153t15 144.5t5 112q0 89 -17 129.5t-55 40.5q-37 0 -67.5 -37.5t-53.5 -99.5t-39.5 -137.5t-27.5 -153t-16 -144.5t-5 -112q0 -89 19 -129.5t62 -40.5zM758 575l54 308h378l-54 -308h-378z" />
    <glyph glyph-name="oe" unicode="&#x153;" 
d="M284 -35q-128 0 -203.5 91.5t-75.5 252.5q0 76 13.5 177.5t44 206.5t81 195t124.5 145.5t174 55.5q119 0 181.5 -84t62.5 -229h-138q55 151 156.5 232t233.5 81q136 0 212 -81.5t76 -208.5q0 -196 -140.5 -293t-425.5 -106l-15 172q161 20 236 64.5t75 117.5
q0 38 -19 60.5t-59 22.5q-41 0 -70.5 -25.5t-49.5 -67t-31.5 -90t-16.5 -95t-5 -81.5q0 -114 38.5 -168.5t114.5 -54.5q36 0 67.5 13.5t66.5 43.5l128 -254q-51 -46 -111.5 -69.5t-131.5 -23.5q-97 0 -170 41.5t-118 120t-59 189.5h81q-45 -163 -129.5 -257t-197.5 -94z
M348 231q38 0 66.5 39.5t48.5 100.5t32.5 127.5t18 122t5.5 81.5q0 121 -69 121q-39 0 -67.5 -39t-48.5 -100t-32 -127t-17.5 -122t-5.5 -83q0 -121 69 -121z" />
    <glyph glyph-name="Racute" unicode="&#x154;" 
d="M8 0l252 1432h398q171 0 283 -53t167 -146t55 -213q0 -163 -65 -282t-185.5 -183.5t-285.5 -64.5h-332l51 290h289q51 0 85.5 15t56 41.5t31 62t9.5 75.5q0 65 -42 104.5t-139 39.5h-89l-197 -1118h-342zM937 -35q-73 0 -134 26.5t-110 97.5t-90 203l-100 326h327
l111 -234q26 -53 58 -76t91 -23h34l-52 -295q-30 -12 -65 -18.5t-70 -6.5zM543 1638l3 14l283 370h400l-3 -14l-375 -370h-308z" />
    <glyph glyph-name="racute" unicode="&#x155;" 
d="M132 0l168 957l110 -155h-335l44 252h484l-54 -307l-70 40h93q150 302 411 302q131 0 221 -64l-113 -300q-53 34 -100.5 48t-108.5 14q-139 0 -229 -113.5t-131 -349.5l-57 -324h-333zM819 543l80 453l305 29l-85 -482h-300zM584 1260l3 14l283 370h400l-3 -14l-375 -370
h-308z" />
    <glyph glyph-name="Rcaron" unicode="&#x158;" 
d="M8 0l252 1432h398q171 0 283 -53t167 -146t55 -213q0 -163 -65 -282t-185.5 -183.5t-285.5 -64.5h-332l51 290h289q51 0 85.5 15t56 41.5t31 62t9.5 75.5q0 65 -42 104.5t-139 39.5h-89l-197 -1118h-342zM937 -35q-73 0 -134 26.5t-110 97.5t-90 203l-100 326h327
l111 -234q26 -53 58 -76t91 -23h34l-52 -295q-30 -12 -65 -18.5t-70 -6.5zM528 1638l-231 370l3 14h320l113 -299h-72l219 299h340l-3 -14l-361 -370h-328z" />
    <glyph glyph-name="rcaron" unicode="&#x159;" 
d="M132 0l168 957l110 -155h-335l44 252h484l-54 -307l-70 40h93q150 302 411 302q131 0 221 -64l-113 -300q-53 34 -100.5 48t-108.5 14q-139 0 -229 -113.5t-131 -349.5l-57 -324h-333zM819 543l80 453l305 29l-85 -482h-300zM569 1260l-231 370l3 14h320l113 -299h-72
l219 299h340l-3 -14l-361 -370h-328z" />
    <glyph glyph-name="Sacute" unicode="&#x15a;" 
d="M607 -35q-235 0 -388.5 126.5t-189.5 349.5l329 58q15 -105 79.5 -162.5t167.5 -57.5q79 0 122.5 33t43.5 94q0 53 -32 88.5t-108 69.5l-186 85q-115 53 -177 146t-62 221q0 133 65 234.5t182 159t273 57.5q218 0 349 -102.5t164 -296.5l-329 -57q-23 142 -195 142
q-77 0 -120 -32t-43 -87q0 -40 23.5 -67.5t76.5 -51.5l181 -83q150 -69 217 -167t67 -244q0 -135 -64 -238t-178.5 -160.5t-267.5 -57.5zM631 1638l3 14l283 370h400l-3 -14l-375 -370h-308z" />
    <glyph glyph-name="sacute" unicode="&#x15b;" 
d="M585 -35q-138 0 -271.5 51.5t-238.5 145.5l171 222q170 -152 345 -152q58 0 87.5 19.5t29.5 55.5q0 47 -72 71l-148 50q-137 47 -210 131.5t-73 197.5q0 100 51.5 174.5t144.5 116t217 41.5q127 0 233 -38.5t212 -118.5l-171 -222q-75 60 -145 89.5t-135 29.5
q-47 0 -73 -16.5t-26 -48.5q0 -23 16.5 -39.5t53.5 -29.5l148 -50q151 -51 219 -129.5t68 -201.5q0 -103 -55 -182t-152.5 -123t-225.5 -44zM560 1260l3 14l283 370h400l-3 -14l-375 -370h-308z" />
    <glyph glyph-name="Scedilla" unicode="&#x15e;" 
d="M607 -35q-235 0 -388.5 126.5t-189.5 349.5l329 58q15 -105 79.5 -162.5t167.5 -57.5q79 0 122.5 33t43.5 94q0 53 -32 88.5t-108 69.5l-186 85q-115 53 -177 146t-62 221q0 133 65 234.5t182 159t273 57.5q218 0 349 -102.5t164 -296.5l-329 -57q-23 142 -195 142
q-77 0 -120 -32t-43 -87q0 -40 23.5 -67.5t76.5 -51.5l181 -83q150 -69 217 -167t67 -244q0 -135 -64 -238t-178.5 -160.5t-267.5 -57.5zM502 -674q-134 0 -225 69.5t-126 163.5l206 88q41 -115 143 -115q47 0 78 29t31 75q0 39 -23 61t-69 22q-43 0 -89 -28l-126 77
l198 253h168l-220 -273l-67 72q43 35 93 53.5t101 18.5q105 0 177.5 -63.5t72.5 -189.5q0 -91 -40.5 -161.5t-113 -111t-169.5 -40.5z" />
    <glyph glyph-name="scedilla" unicode="&#x15f;" 
d="M585 -35q-138 0 -271.5 51.5t-238.5 145.5l171 222q170 -152 345 -152q58 0 87.5 19.5t29.5 55.5q0 47 -72 71l-148 50q-137 47 -210 131.5t-73 197.5q0 100 51.5 174.5t144.5 116t217 41.5q127 0 233 -38.5t212 -118.5l-171 -222q-75 60 -145 89.5t-135 29.5
q-47 0 -73 -16.5t-26 -48.5q0 -23 16.5 -39.5t53.5 -29.5l148 -50q151 -51 219 -129.5t68 -201.5q0 -103 -55 -182t-152.5 -123t-225.5 -44zM505 -674q-134 0 -225 69.5t-126 163.5l206 88q41 -115 143 -115q47 0 78 29t31 75q0 39 -23 61t-69 22q-43 0 -89 -28l-126 77
l198 253h168l-220 -273l-67 72q43 35 93 53.5t101 18.5q105 0 177.5 -63.5t72.5 -189.5q0 -91 -40.5 -161.5t-113 -111t-169.5 -40.5z" />
    <glyph glyph-name="Scaron" unicode="&#x160;" 
d="M607 -35q-235 0 -388.5 126.5t-189.5 349.5l329 58q15 -105 79.5 -162.5t167.5 -57.5q79 0 122.5 33t43.5 94q0 53 -32 88.5t-108 69.5l-186 85q-115 53 -177 146t-62 221q0 133 65 234.5t182 159t273 57.5q218 0 349 -102.5t164 -296.5l-329 -57q-23 142 -195 142
q-77 0 -120 -32t-43 -87q0 -40 23.5 -67.5t76.5 -51.5l181 -83q150 -69 217 -167t67 -244q0 -135 -64 -238t-178.5 -160.5t-267.5 -57.5zM616 1638l-231 370l3 14h320l113 -299h-72l219 299h340l-3 -14l-361 -370h-328z" />
    <glyph glyph-name="scaron" unicode="&#x161;" 
d="M585 -35q-138 0 -271.5 51.5t-238.5 145.5l171 222q170 -152 345 -152q58 0 87.5 19.5t29.5 55.5q0 47 -72 71l-148 50q-137 47 -210 131.5t-73 197.5q0 100 51.5 174.5t144.5 116t217 41.5q127 0 233 -38.5t212 -118.5l-171 -222q-75 60 -145 89.5t-135 29.5
q-47 0 -73 -16.5t-26 -48.5q0 -23 16.5 -39.5t53.5 -29.5l148 -50q151 -51 219 -129.5t68 -201.5q0 -103 -55 -182t-152.5 -123t-225.5 -44zM545 1260l-231 370l3 14h320l113 -299h-72l219 299h340l-3 -14l-361 -370h-328z" />
    <glyph glyph-name="uni0162" unicode="&#x162;" 
d="M333 0l222 1261h350l-222 -1261h-350zM170 1104l58 328h1064l-58 -328h-1064zM455 -674q-134 0 -225 69.5t-126 163.5l206 88q41 -115 143 -115q47 0 78 29t31 75q0 39 -23 61t-69 22q-43 0 -89 -28l-126 77l198 253h168l-220 -273l-67 72q43 35 93 53.5t101 18.5
q105 0 177.5 -63.5t72.5 -189.5q0 -91 -40.5 -161.5t-113 -111t-169.5 -40.5z" />
    <glyph glyph-name="uni0163" unicode="&#x163;" 
d="M744 -35q-199 0 -318 105.5t-119 286.5q0 39 3.5 74.5t10.5 76.5l144 818h342l-144 -816q-7 -38 -10.5 -65t-3.5 -49q0 -58 38 -92.5t102 -34.5q38 0 72 12.5t71 37.5l111 -274q-76 -43 -146.5 -61.5t-152.5 -18.5zM137 802l44 252h976l-44 -252h-976zM547 -674
q-134 0 -225 69.5t-126 163.5l206 88q41 -115 143 -115q47 0 78 29t31 75q0 39 -23 61t-69 22q-43 0 -89 -28l-126 77l198 253h168l-220 -273l-67 72q43 35 93 53.5t101 18.5q105 0 177.5 -63.5t72.5 -189.5q0 -91 -40.5 -161.5t-113 -111t-169.5 -40.5z" />
    <glyph glyph-name="Tcaron" unicode="&#x164;" 
d="M333 0l222 1261h350l-222 -1261h-350zM170 1104l58 328h1064l-58 -328h-1064zM632 1638l-231 370l3 14h320l113 -299h-72l219 299h340l-3 -14l-361 -370h-328z" />
    <glyph glyph-name="tcaron" unicode="&#x165;" 
d="M696 -35q-199 0 -318 105.5t-119 286.5q0 39 3.5 74.5t10.5 76.5l144 818h342l-144 -816q-7 -38 -10.5 -65t-3.5 -49q0 -58 38 -92.5t102 -34.5q38 0 72 12.5t71 37.5l111 -274q-76 -43 -146.5 -61.5t-152.5 -18.5zM82 762l44 252h976l-44 -252h-976zM979 1078l-146 123
q63 114 63 224q0 60 -18 133l307 54q17 -70 17 -139q0 -105 -53 -198t-170 -197z" />
    <glyph glyph-name="Utilde" unicode="&#x168;" 
d="M556 -35q-141 0 -248.5 55t-167.5 153t-60 228q0 39 4 78.5t13 88.5l153 864h348l-161 -913q-5 -29 -7 -46t-2 -34q0 -64 39.5 -102t106.5 -38q73 0 119 48t62 139l167 946h348l-178 -1006q-39 -220 -178.5 -340.5t-357.5 -120.5zM967 1635q-55 0 -98 20.5t-87 60.5
q-40 38 -60.5 52t-43.5 14t-33.5 -16t-16.5 -48l-16 -80h-238l16 89q26 145 95 221.5t177 76.5q56 0 99 -20t86 -61q40 -37 60.5 -51.5t43.5 -14.5t34 16.5t16 47.5l14 80h240l-16 -89q-25 -145 -94.5 -221.5t-177.5 -76.5z" />
    <glyph glyph-name="utilde" unicode="&#x169;" 
d="M396 -35q-133 0 -215 86t-82 225q0 35 3 68t10 70l96 543l103 -155h-255l45 252h460l-104 -588q-9 -50 -13 -83t-4 -56q0 -37 20 -58.5t55 -21.5q61 0 109.5 93t79.5 268l79 446h346l-101 -570q-7 -41 -10 -64.5t-3 -40.5q0 -79 93 -79h36l-52 -295q-63 -25 -125 -25
q-103 0 -160.5 62t-57.5 174q0 29 5 59t18 74l49 -113l-82 10q-63 -147 -144.5 -214t-198.5 -67zM862 1257q-55 0 -98 20.5t-87 60.5q-40 38 -60.5 52t-43.5 14t-33.5 -16t-16.5 -48l-16 -80h-238l16 89q26 145 95 221.5t177 76.5q56 0 99 -20t86 -61q40 -37 60.5 -51.5
t43.5 -14.5t34 16.5t16 47.5l14 80h240l-16 -89q-25 -145 -94.5 -221.5t-177.5 -76.5z" />
    <glyph glyph-name="Umacron" unicode="&#x16a;" 
d="M556 -35q-141 0 -248.5 55t-167.5 153t-60 228q0 39 4 78.5t13 88.5l153 864h348l-161 -913q-5 -29 -7 -46t-2 -34q0 -64 39.5 -102t106.5 -38q73 0 119 48t62 139l167 946h348l-178 -1006q-39 -220 -178.5 -340.5t-357.5 -120.5zM464 1684l48 274h650l-48 -274h-650z
" />
    <glyph glyph-name="umacron" unicode="&#x16b;" 
d="M396 -35q-133 0 -215 86t-82 225q0 35 3 68t10 70l96 543l103 -155h-255l45 252h460l-104 -588q-9 -50 -13 -83t-4 -56q0 -37 20 -58.5t55 -21.5q61 0 109.5 93t79.5 268l79 446h346l-101 -570q-7 -41 -10 -64.5t-3 -40.5q0 -79 93 -79h36l-52 -295q-63 -25 -125 -25
q-103 0 -160.5 62t-57.5 174q0 29 5 59t18 74l49 -113l-82 10q-63 -147 -144.5 -214t-198.5 -67zM359 1306l48 274h650l-48 -274h-650z" />
    <glyph glyph-name="Uring" unicode="&#x16e;" 
d="M556 -35q-141 0 -248.5 55t-167.5 153t-60 228q0 39 4 78.5t13 88.5l153 864h348l-161 -913q-5 -29 -7 -46t-2 -34q0 -64 39.5 -102t106.5 -38q73 0 119 48t62 139l167 946h348l-178 -1006q-39 -220 -178.5 -340.5t-357.5 -120.5zM655 1567.5q-73 41.5 -116.5 112
t-43.5 156.5t43.5 156.5t116.5 112t162 41.5t162 -41.5t116.5 -112t43.5 -156.5t-43.5 -156.5t-116.5 -112t-162 -41.5t-162 41.5zM901.5 1753q33.5 33 33.5 83t-33.5 83t-84.5 33t-84.5 -33t-33.5 -83t33.5 -83t84.5 -33t84.5 33z" />
    <glyph glyph-name="uring" unicode="&#x16f;" 
d="M396 -35q-133 0 -215 86t-82 225q0 35 3 68t10 70l96 543l103 -155h-255l45 252h460l-104 -588q-9 -50 -13 -83t-4 -56q0 -37 20 -58.5t55 -21.5q61 0 109.5 93t79.5 268l79 446h346l-101 -570q-7 -41 -10 -64.5t-3 -40.5q0 -79 93 -79h36l-52 -295q-63 -25 -125 -25
q-103 0 -160.5 62t-57.5 174q0 29 5 59t18 74l49 -113l-82 10q-63 -147 -144.5 -214t-198.5 -67zM550 1189.5q-73 41.5 -116.5 112t-43.5 156.5t43.5 156.5t116.5 112t162 41.5t162 -41.5t116.5 -112t43.5 -156.5t-43.5 -156.5t-116.5 -112t-162 -41.5t-162 41.5z
M796.5 1375q33.5 33 33.5 83t-33.5 83t-84.5 33t-84.5 -33t-33.5 -83t33.5 -83t84.5 -33t84.5 33z" />
    <glyph glyph-name="Uhungarumlaut" unicode="&#x170;" 
d="M556 -35q-141 0 -248.5 55t-167.5 153t-60 228q0 39 4 78.5t13 88.5l153 864h348l-161 -913q-5 -29 -7 -46t-2 -34q0 -64 39.5 -102t106.5 -38q73 0 119 48t62 139l167 946h348l-178 -1006q-39 -220 -178.5 -340.5t-357.5 -120.5zM862 1638l3 14l223 370h360l-3 -14
l-315 -370h-268zM392 1638l3 14l223 370h360l-3 -14l-315 -370h-268z" />
    <glyph glyph-name="uhungarumlaut" unicode="&#x171;" 
d="M396 -35q-133 0 -215 86t-82 225q0 35 3 68t10 70l96 543l103 -155h-255l45 252h460l-104 -588q-9 -50 -13 -83t-4 -56q0 -37 20 -58.5t55 -21.5q61 0 109.5 93t79.5 268l79 446h346l-101 -570q-7 -41 -10 -64.5t-3 -40.5q0 -79 93 -79h36l-52 -295q-63 -25 -125 -25
q-103 0 -160.5 62t-57.5 174q0 29 5 59t18 74l49 -113l-82 10q-63 -147 -144.5 -214t-198.5 -67zM757 1260l3 14l223 370h360l-3 -14l-315 -370h-268zM287 1260l3 14l223 370h360l-3 -14l-315 -370h-268z" />
    <glyph glyph-name="Uogonek" unicode="&#x172;" 
d="M556 -35q-141 0 -248.5 55t-167.5 153t-60 228q0 39 4 78.5t13 88.5l153 864h348l-161 -913q-5 -29 -7 -46t-2 -34q0 -64 39.5 -102t106.5 -38q73 0 119 48t62 139l167 946h348l-178 -1006q-39 -220 -178.5 -340.5t-357.5 -120.5zM547 -548q-125 0 -199.5 65.5
t-74.5 175.5q0 128 109.5 231t347.5 200l47 -120q-123 -59 -178.5 -113t-55.5 -113q0 -38 24.5 -60t66.5 -22q39 0 82 17l28 -205q-47 -28 -95.5 -42t-101.5 -14z" />
    <glyph glyph-name="uogonek" unicode="&#x173;" 
d="M396 -35q-133 0 -215 86t-82 225q0 35 3 68t10 70l96 543l103 -155h-255l45 252h460l-104 -588q-9 -50 -13 -83t-4 -56q0 -37 20 -58.5t55 -21.5q61 0 109.5 93t79.5 268l79 446h346l-101 -570q-7 -41 -10 -64.5t-3 -40.5q0 -79 93 -79h36l-52 -295q-63 -25 -125 -25
q-103 0 -160.5 62t-57.5 174q0 29 5 59t18 74l49 -113l-82 10q-63 -147 -144.5 -214t-198.5 -67zM862 -547q-125 0 -199.5 65.5t-74.5 175.5q0 128 109.5 231t347.5 200l47 -120q-123 -59 -178.5 -113t-55.5 -113q0 -38 24.5 -60t66.5 -22q39 0 82 17l28 -205
q-47 -28 -95.5 -42t-101.5 -14z" />
    <glyph glyph-name="Wcircumflex" unicode="&#x174;" 
d="M107 0l72 1432h309l-105 -926h6l98 275l124 369h182l10 -369l-13 -275h6l208 926h337l-432 -1432h-284l1 467l15 262h-6l-93 -262l-167 -467h-268zM322 1638l3 14l361 370h328l231 -370l-3 -14h-317l-113 299h72l-219 -299h-343z" />
    <glyph glyph-name="wcircumflex" unicode="&#x175;" 
d="M121 0l-35 1054h287l-17 -555l-6 -117h7l35 118l145 433h267l-7 -432l-7 -119h7l36 119l178 553h289l-404 -1054h-294l5 469l7 113h-7l-35 -113l-158 -469h-293zM268 1260l3 14l361 370h328l231 -370l-3 -14h-317l-113 299h72l-219 -299h-343z" />
    <glyph glyph-name="Ycircumflex" unicode="&#x176;" 
d="M443 409l-271 1023h356l68 -319l45 -288h9l134 288l176 319h388l-631 -1023h-274zM334 0l122 692h348l-122 -692h-348zM290 1638l3 14l361 370h328l231 -370l-3 -14h-317l-113 299h72l-219 -299h-343z" />
    <glyph glyph-name="ycircumflex" unicode="&#x177;" 
d="M188 -451q-179 0 -299 109l162 253q35 -31 68.5 -47.5t76.5 -16.5q45 0 73.5 22.5t55.5 71.5l153 276h92l139 412l196 425h374l-650 -1179q-93 -169 -195 -247.5t-246 -78.5zM405 -114l-238 1168h346l59 -425l22 -297h118zM261 1260l3 14l361 370h328l231 -370l-3 -14
h-317l-113 299h72l-219 -299h-343z" />
    <glyph glyph-name="Ydieresis" unicode="&#x178;" 
d="M443 409l-271 1023h356l68 -319l45 -288h9l134 288l176 319h388l-631 -1023h-274zM334 0l122 692h348l-122 -692h-348zM492 1613q-86 0 -146 59.5t-60 144.5t60 144.5t146 59.5q87 0 146.5 -59t59.5 -145t-59 -145t-147 -59zM1072 1613q-86 0 -146 59.5t-60 144.5
t60 144.5t146 59.5q87 0 146.5 -59t59.5 -145t-59 -145t-147 -59z" />
    <glyph glyph-name="Zacute" unicode="&#x179;" 
d="M-1 0l51 291l713 817h-546l57 324h980l-51 -291l-713 -817h582l-57 -324h-1016zM622 1638l3 14l283 370h400l-3 -14l-375 -370h-308z" />
    <glyph glyph-name="zacute" unicode="&#x17a;" 
d="M49 0l47 267l587 511h-476l48 276h886l-47 -268l-586 -510h505l-48 -276h-916zM575 1260l3 14l283 370h400l-3 -14l-375 -370h-308z" />
    <glyph glyph-name="Zdotaccent" unicode="&#x17b;" 
d="M-1 0l51 291l713 817h-546l57 324h980l-51 -291l-713 -817h582l-57 -324h-1016zM804 1613q-90 0 -153 61.5t-63 152.5q0 89 62.5 151.5t153.5 62.5q92 0 154 -62.5t62 -151.5q0 -91 -62 -152.5t-154 -61.5z" />
    <glyph glyph-name="zdotaccent" unicode="&#x17c;" 
d="M49 0l47 267l587 511h-476l48 276h886l-47 -268l-586 -510h505l-48 -276h-916zM757 1235q-90 0 -153 61.5t-63 152.5q0 89 62.5 151.5t153.5 62.5q92 0 154 -62.5t62 -151.5q0 -91 -62 -152.5t-154 -61.5z" />
    <glyph glyph-name="Zcaron" unicode="&#x17d;" 
d="M-1 0l51 291l713 817h-546l57 324h980l-51 -291l-713 -817h582l-57 -324h-1016zM607 1638l-231 370l3 14h320l113 -299h-72l219 299h340l-3 -14l-361 -370h-328z" />
    <glyph glyph-name="zcaron" unicode="&#x17e;" 
d="M49 0l47 267l587 511h-476l48 276h886l-47 -268l-586 -510h505l-48 -276h-916zM560 1260l-231 370l3 14h320l113 -299h-72l219 299h340l-3 -14l-361 -370h-328z" />
    <glyph glyph-name="longs" unicode="&#x17f;" 
d="M120 -471q-156 0 -271 56l126 307q32 -16 63.5 -25.5t68.5 -9.5q72 0 112 44.5t56 144.5l158 996q34 214 166.5 333t340.5 119q122 0 213.5 -37t171.5 -107l-207 -264q-43 40 -86.5 60t-93.5 20q-77 0 -121.5 -45.5t-59.5 -138.5l-158 -996q-36 -225 -159.5 -341
t-319.5 -116zM132 802l44 252h522l-44 -252h-522z" />
    <glyph glyph-name="uni0181" unicode="&#x181;" 
d="M334 0l252 1432h292q207 0 311 -90t104 -242q0 -144 -76 -236t-197 -130l-2 -10q100 -36 148.5 -112t48.5 -185q0 -127 -60.5 -223t-172.5 -150t-267 -54h-381zM76 815q-22 90 -22 168q0 136 55 236.5t161 156.5t259 56h236l-42 -242h-217q-76 0 -114 -50.5t-38 -145.5
q0 -37 3 -71t8 -71zM661 258h62q82 0 131 52t49 149q0 144 -144 144h-126l43 244h142q84 0 130.5 53t46.5 147q0 59 -30 93t-92 34h-50z" />
    <glyph glyph-name="uni018A" unicode="&#x18a;" 
d="M351 0l252 1432h199q210 0 322.5 -128.5t112.5 -359.5q0 -101 -13.5 -226t-49 -251t-101 -232t-169 -170.5t-253.5 -64.5h-300zM115 802q-27 91 -27 171q0 204 121 331.5t350 127.5h182l-42 -242h-163q-73 0 -110.5 -52.5t-37.5 -153.5q0 -74 16 -145zM672 290h40
q52 0 91.5 45.5t67.5 119.5t45.5 160.5t26 170.5t8.5 148q0 116 -24.5 162t-86.5 46h-18z" />
    <glyph glyph-name="uni018F" unicode="&#x18f;" 
d="M561 -35q-147 0 -258.5 64.5t-174.5 179.5t-63 266q0 83 17.5 169.5t51.5 165.5h881l-43 -260h-634l79 86q-17 -38 -25 -75.5t-8 -74.5q0 -93 52 -147t141 -54q88 0 145 45t90.5 117.5t49 157t20 165.5t4.5 142q0 117 -44.5 173t-137.5 56q-79 0 -147 -35t-134 -110
l-244 208q115 131 254.5 197t303.5 66q238 0 358.5 -139.5t120.5 -415.5q0 -96 -19.5 -220t-64 -251t-120 -235t-187 -174.5t-264.5 -66.5z" />
    <glyph glyph-name="uni0198" unicode="&#x198;" 
d="M924 -35q-125 0 -201.5 73.5t-138.5 253.5l-155 451l1 9l234 410q61 107 127 174.5t141.5 99t164.5 31.5q88 0 150 -27t121 -85l-186 -255q-22 21 -41.5 29t-47.5 8q-34 0 -62.5 -13.5t-55 -42.5t-53.5 -76l-191 -330l34 129l158 -415q22 -57 57 -80.5t97 -23.5h34
l-52 -295q-62 -25 -135 -25zM-40 0l252 1432h348l-252 -1432h-348z" />
    <glyph glyph-name="uni0199" unicode="&#x199;" 
d="M-3 0l189 1071q42 237 178 362.5t353 125.5q100 0 179.5 -24t149.5 -75l-160 -254q-34 23 -68 33t-79 10q-178 0 -216 -210l-184 -1039h-342zM707 0l-283 564l1 8l426 482h402l-521 -559l20 114l317 -609h-362z" />
    <glyph glyph-name="Ohorn" unicode="&#x1a0;" 
d="M541 -35q-145 0 -251.5 64.5t-165 186t-58.5 293.5q0 118 21.5 249.5t69 257t124.5 227.5t188 163t260 61q139 0 243.5 -73.5t162.5 -203t58 -299.5q0 -115 -20.5 -242.5t-66.5 -248.5t-121.5 -219.5t-185 -157t-258.5 -58.5zM573 299q63 0 109.5 41t78.5 108t51.5 147.5
t28 161t8.5 146.5q0 109 -35 169.5t-107 60.5q-64 0 -112.5 -41.5t-82.5 -110t-55 -150t-31 -162.5t-10 -147q0 -113 40 -168t117 -55zM949 1137l-32 128q86 31 128.5 77.5t42.5 119.5q0 55 -24 103t-80 100l267 208q145 -142 145 -327q0 -162 -119.5 -269t-327.5 -140z" />
    <glyph glyph-name="ohorn" unicode="&#x1a1;" 
d="M532 -35q-137 0 -246 59.5t-171.5 171t-62.5 265.5q0 131 40.5 245t116 200t182 134.5t238.5 48.5q144 0 249 -65t162.5 -177.5t57.5 -253.5q0 -136 -38.5 -250.5t-112 -199t-178 -131.5t-237.5 -47zM546 263q59 0 100 30.5t66 80.5t36.5 107.5t11.5 111.5
q0 91 -36 144.5t-109 53.5q-59 0 -101.5 -30.5t-70 -80.5t-40.5 -107.5t-13 -111.5q0 -91 41 -144.5t115 -53.5zM902 740l-59 129q195 48 195 192q0 92 -110 186l236 219q168 -139 168 -321q0 -149 -109.5 -252t-320.5 -153z" />
    <glyph glyph-name="Uhorn" unicode="&#x1af;" 
d="M483 -35q-131 0 -231.5 53t-157 147t-56.5 216q0 39 3.5 79t12.5 89l156 883h330l-164 -933q-4 -26 -5 -41.5t-1 -30.5q0 -63 37 -100.5t98 -37.5q68 0 110.5 44.5t58.5 132.5l170 966h106q79 0 122 31.5t43 89.5q0 32 -14.5 66t-49.5 77l274 177q99 -121 99 -264
q0 -103 -50.5 -175.5t-137 -111t-195.5 -38.5q-16 0 -31.5 2t-31.5 5l189 123l-178 -1008q-37 -214 -168.5 -327.5t-337.5 -113.5z" />
    <glyph glyph-name="uhorn" unicode="&#x1b0;" 
d="M396 -35q-133 0 -215 86t-82 225q0 35 3 68t10 70l96 543l103 -155h-255l45 252h460l-104 -588q-9 -50 -13 -83t-4 -56q0 -37 20 -58.5t55 -21.5q61 0 109.5 93t79.5 268l79 446h83q74 0 116.5 27.5t42.5 79.5q0 59 -61 128l272 163q48 -53 70.5 -111t22.5 -120
q0 -92 -49.5 -159.5t-131.5 -104.5t-181 -37q-39 0 -75 7l229 82l-93 -525q-7 -41 -10 -64.5t-3 -40.5q0 -79 93 -79h36l-52 -295q-63 -25 -125 -25q-103 0 -160.5 62t-57.5 174q0 29 5 59t18 74l49 -113l-82 10q-63 -147 -144.5 -214t-198.5 -67z" />
    <glyph glyph-name="uni01B3" unicode="&#x1b3;" 
d="M389 389l-227 1043h358l42 -319l27 -288h9l96 218l45 101q78 175 172.5 249t237.5 74q74 0 133.5 -20t118.5 -64l-150 -266q-18 13 -34.5 18.5t-36.5 5.5q-45 0 -83.5 -33t-82.5 -109l-351 -610h-274zM284 0l115 652h348l-115 -652h-348z" />
    <glyph glyph-name="uni01B4" unicode="&#x1b4;" 
d="M128 -451q-174 0 -281 96l161 253q57 -51 122 -51q43 0 73.5 20.5t52.5 62.5l162 316h89l129 412l133 311q87 204 193.5 299.5t246.5 95.5q72 0 123 -20.5t100 -57.5l-139 -241q-25 19 -60 19q-48 0 -82.5 -35.5t-78.5 -124.5l-510 -1033q-85 -172 -188 -247t-246 -75z
M326 -60l-175 1114h331l26 -396l10 -326h142z" />
    <glyph glyph-name="uni01C4" unicode="&#x1c4;" 
d="M-86 0l252 1432h210q158 0 245.5 -83.5t87.5 -283.5q0 -53 -6 -151t-23 -218.5t-49.5 -242.5t-86 -224.5t-131.5 -165.5t-186 -63h-313zM209 270h34q33 0 61.5 47t52.5 123.5t42 167t30.5 178t19 157t6.5 102.5q0 66 -17 91.5t-51 25.5h-20zM532 0l30 170l443 992h-248
l47 270h544l-30 -170l-443 -992h276l-47 -270h-572zM968 1638l-181 370v14h251l108 -299h-60l212 299h269v-14l-311 -370h-288z" />
    <glyph glyph-name="uni01C5" unicode="&#x1c5;" 
d="M-76 0l252 1432h208q167 0 259 -87t92 -290q0 -52 -5.5 -149.5t-23 -216.5t-51 -240t-88.5 -223t-137 -164t-197 -62h-309zM219 270h38q38 0 69 46.5t56 122t43.5 164.5t31 176t18.5 155t6 101q0 72 -21 99.5t-63 27.5h-20zM591 0l35 198l337 608h-210l44 248h488
l-35 -198l-337 -608h238l-44 -248h-516zM937 1260l-151 370l3 14h241l81 -280h-52l179 280h263l-3 -14l-281 -370h-280z" />
    <glyph glyph-name="uni01C6" unicode="&#x1c6;" 
d="M194 -35q-103 0 -159 92t-56 235q0 82 12 186.5t37 211.5t65 197.5t96.5 146t131.5 55.5q56 0 87.5 -31.5t46.5 -87.5h81l-79 -66l98 556h260l-162 -916q-16 -94 -26.5 -160t-15 -118.5t-4.5 -106.5v-159h-181v26q0 51 10 111t31 150l58 -50l-85 17
q-44 -142 -102.5 -215.5t-143.5 -73.5zM296 225q31 0 51.5 54t45.5 193l58 329q-6 14 -16 21t-26 7q-34 0 -61 -37.5t-46.5 -97.5t-32 -129.5t-18.5 -135t-6 -111.5q0 -43 12.5 -68t38.5 -25zM663 0v188l319 618h-223l44 248h496l-33 -188l-319 -618h220l-44 -248h-460z
M967 1260l-151 370l3 14h241l81 -280h-52l179 280h263l-3 -14l-281 -370h-280z" />
    <glyph glyph-name="uni01C7" unicode="&#x1c7;" 
d="M771 -35q-83 0 -157 22t-130 62l159 264q45 -36 99 -36q83 0 99 96l186 1059h328l-192 -1092q-31 -175 -135 -275t-257 -100zM-86 0l252 1432h328l-198 -1124h204l-54 -308h-532z" />
    <glyph glyph-name="uni01C8" unicode="&#x1c8;" 
d="M631 -451q-107 0 -200.5 39t-168.5 114l185 208q74 -73 163 -73q122 0 147 143l189 1074h316l-194 -1104q-35 -202 -143.5 -301.5t-293.5 -99.5zM-45 0l253 1432h320l-198 -1122h329l-55 -310h-649zM610 804l44 250h450l-44 -250h-450zM1126 1235q-89 0 -151 60.5
t-62 147.5q0 89 61 148t152 59q92 0 151.5 -58.5t59.5 -148.5q0 -88 -60.5 -148t-150.5 -60z" />
    <glyph glyph-name="uni01C9" unicode="&#x1c9;" 
d="M528 0q-151 0 -243 93.5t-92 244.5q0 41 5.5 88t18.5 118l142 803l80 -137h-308l44 250h494l-175 -992q-4 -25 -7 -47t-3 -41q0 -45 26.5 -72.5t67.5 -27.5q46 0 93 36l125 -224q-126 -92 -268 -92zM687 -451q-112 0 -195.5 36t-159.5 115l175 188q73 -79 158 -79
q62 0 97 33t48 109l194 1103h290l-200 -1133q-31 -178 -138 -275t-269 -97zM703 804l44 250h460l-44 -250h-460zM1159 1235q-89 0 -151 60.5t-62 147.5q0 89 61 148t152 59q92 0 151.5 -58.5t59.5 -148.5q0 -88 -60.5 -148t-150.5 -60z" />
    <glyph glyph-name="uni01CA" unicode="&#x1ca;" 
d="M-86 0l252 1432h320l28 -1031h21l67 734l52 297h230l-252 -1432h-292l-29 1116h-21l-76 -718l-70 -398h-230zM837 -35q-98 0 -178 40l88 228q32 -16 66 -16q66 0 80 75l201 1140h262l-208 -1178q-24 -138 -105 -213.5t-206 -75.5z" />
    <glyph glyph-name="uni01CB" unicode="&#x1cb;" 
d="M-87 0l253 1432h304l62 -973h19l61 666l54 307h234l-253 -1432h-276l-65 1116h-19l-66 -699l-74 -417h-234zM696 -451q-206 0 -343 151l172 179q66 -70 146 -70q101 0 122 120l198 1125h290l-204 -1155q-28 -160 -126 -255t-255 -95zM1191 1236q-81 0 -130.5 50
t-49.5 132q0 98 60 165t148 67q82 0 131 -49.5t49 -132.5q0 -98 -60 -165t-148 -67z" />
    <glyph glyph-name="uni01CC" unicode="&#x1cc;" 
d="M641 -451q-106 0 -196 34.5t-158 104.5l155 202q41 -40 85 -59.5t94 -19.5q141 0 168 153l192 1090h292l-199 -1132q-30 -172 -142 -272.5t-291 -100.5zM615 -20q-103 0 -161 59.5t-58 165.5q0 44 8 91t27 119l48 183q18 69 25.5 109t7.5 68q0 58 -42 58q-47 0 -85.5 -70
t-63.5 -210l-98 -553h-292l186 1054h265l-34 -192l-19 65h42q56 80 121.5 121t146.5 41q95 0 137 -58.5t42 -149.5q0 -40 -8 -90t-25 -118l-70 -274q-19 -75 -19 -103q0 -66 65 -66h27l-40 -226q-67 -24 -133 -24zM1180 1236q-81 0 -130.5 50t-49.5 132q0 98 60 165t148 67
q82 0 131 -49.5t49 -132.5q0 -98 -60 -165t-148 -67z" />
    <glyph glyph-name="uni01EA" unicode="&#x1ea;" 
d="M541 -35q-145 0 -251.5 64.5t-165 186t-58.5 293.5q0 118 21 249.5t68.5 257t125.5 227.5t191 163t267 61q218 0 339 -146.5t121 -404.5q0 -118 -20.5 -249t-67 -255.5t-123 -225.5t-187 -161t-260.5 -60zM573 299q63 0 109.5 41t78.5 108t51.5 147.5t28 161t8.5 146.5
q0 109 -35 169.5t-107 60.5q-64 0 -112.5 -41.5t-82.5 -110t-55 -150t-31 -162.5t-10 -147q0 -113 40 -168t117 -55zM580 -521q-125 0 -199.5 65.5t-74.5 175.5q0 128 109.5 231t347.5 200l47 -120q-123 -59 -178.5 -113t-55.5 -113q0 -38 24.5 -60t66.5 -22q39 0 82 17
l28 -205q-47 -28 -95.5 -42t-101.5 -14z" />
    <glyph glyph-name="uni01EB" unicode="&#x1eb;" 
d="M556 -35q-140 0 -251 59.5t-175 171t-64 265.5q0 131 41 245t118.5 200t185.5 134.5t242 48.5q148 0 255 -61.5t165.5 -172.5t58.5 -262q0 -136 -39 -250.5t-114 -199t-181.5 -131.5t-241.5 -47zM570 263q62 0 104.5 30.5t69 80.5t38.5 107.5t12 111.5q0 91 -38.5 144.5
t-116.5 53.5q-62 0 -106.5 -30.5t-73 -80.5t-42 -107.5t-13.5 -111.5q0 -91 43.5 -144.5t122.5 -53.5zM591 -529q-125 0 -199.5 65.5t-74.5 175.5q0 128 109.5 231t347.5 200l47 -120q-123 -59 -178.5 -113t-55.5 -113q0 -38 24.5 -60t66.5 -22q39 0 82 17l28 -205
q-47 -28 -95.5 -42t-101.5 -14z" />
    <glyph glyph-name="uni01F8" unicode="&#x1f8;" 
d="M-34 0l252 1432h326l281 -836h9l42 328l89 508h336l-252 -1432h-302l-297 879h-9l-42 -328l-97 -551h-336zM611 1638l-245 370l3 14h380l153 -370l-3 -14h-288z" />
    <glyph glyph-name="uni01F9" unicode="&#x1f9;" 
d="M928 -20q-130 0 -204 72.5t-74 199.5q0 44 7.5 87t20.5 101l38 158q11 44 17 75.5t6 58.5q0 37 -17 56t-53 19q-49 0 -91.5 -40.5t-74.5 -113.5t-49 -171l-85 -482h-346l186 1053h328l-36 -204l-31 45h48q144 195 349 195q113 0 173.5 -61.5t60.5 -165.5q0 -42 -7 -88
t-21 -101l-49 -204q-10 -40 -13 -58.5t-3 -31.5q0 -79 94 -79h33l-52 -295q-81 -25 -155 -25zM585 1260l-245 370l3 14h380l153 -370l-3 -14h-288z" />
    <glyph glyph-name="AEacute" unicode="&#x1fc;" 
d="M-91 0l582 1432h375l-51 -292h-175l-97 -314l-290 -826h-344zM131 256l130 260h430l-46 -260h-514zM520 0l252 1432h569l-55 -312h-299l-142 -808h315l-55 -312h-585zM773 575l54 308h377l-54 -308h-377zM763 1638l3 14l283 370h400l-3 -14l-375 -370h-308z" />
    <glyph glyph-name="aeacute" unicode="&#x1fd;" 
d="M293 -35q-139 0 -227.5 91t-88.5 240q0 108 44.5 193t126.5 134.5t194 49.5q47 0 85.5 -9.5t75.5 -26.5l-28 -172q-16 11 -34 16.5t-43 5.5q-44 0 -75.5 -22t-48.5 -62.5t-17 -95.5q0 -49 19 -75.5t52 -26.5q35 0 59.5 33t35.5 97l56 317q4 22 7 44t3 38q0 85 -112 85
q-44 0 -89 -11.5t-96 -36.5l-73 253q139 65 276 65q138 0 217.5 -82.5t86.5 -230.5h-151q55 151 156.5 232t233.5 81q136 0 212 -81.5t76 -208.5q0 -196 -140.5 -293t-425.5 -106l-15 172q161 20 236 64.5t75 116.5q0 39 -19 61.5t-59 22.5q-41 0 -70.5 -25.5t-49.5 -67
t-31.5 -90t-16.5 -95t-5 -81.5q0 -114 38.5 -168.5t114.5 -54.5q36 0 67.5 13.5t66.5 43.5l128 -254q-51 -46 -111.5 -69.5t-131.5 -23.5q-104 0 -180.5 47.5t-120 137t-50.5 216.5h124q-34 -185 -122 -293t-235 -108zM595 1260l3 14l283 370h400l-3 -14l-375 -370h-308z
" />
    <glyph glyph-name="uni0218" unicode="&#x218;" 
d="M607 -35q-235 0 -388.5 126.5t-189.5 349.5l329 58q15 -105 79.5 -162.5t167.5 -57.5q79 0 122.5 33t43.5 94q0 53 -32 88.5t-108 69.5l-186 85q-115 53 -177 146t-62 221q0 133 65 234.5t182 159t273 57.5q218 0 349 -102.5t164 -296.5l-329 -57q-23 142 -195 142
q-77 0 -120 -32t-43 -87q0 -40 23.5 -67.5t76.5 -51.5l181 -83q150 -69 217 -167t67 -244q0 -135 -64 -238t-178.5 -160.5t-267.5 -57.5zM329 -895l-116 191q81 48 146 105t123 133l-8 -71q-88 7 -141.5 58t-53.5 130q0 89 58.5 146t149.5 57q95 0 154.5 -63.5t59.5 -166.5
q0 -101 -46.5 -195t-130 -176t-195.5 -148z" />
    <glyph glyph-name="uni0219" unicode="&#x219;" 
d="M585 -35q-138 0 -271.5 51.5t-238.5 145.5l171 222q170 -152 345 -152q58 0 87.5 19.5t29.5 55.5q0 47 -72 71l-148 50q-137 47 -210 131.5t-73 197.5q0 100 51.5 174.5t144.5 116t217 41.5q127 0 233 -38.5t212 -118.5l-171 -222q-75 60 -145 89.5t-135 29.5
q-47 0 -73 -16.5t-26 -48.5q0 -23 16.5 -39.5t53.5 -29.5l148 -50q151 -51 219 -129.5t68 -201.5q0 -103 -55 -182t-152.5 -123t-225.5 -44zM332 -895l-116 191q81 48 146 105t123 133l-8 -71q-88 7 -141.5 58t-53.5 130q0 89 58.5 146t149.5 57q95 0 154.5 -63.5
t59.5 -166.5q0 -101 -46.5 -195t-130 -176t-195.5 -148z" />
    <glyph glyph-name="uni021A" unicode="&#x21a;" 
d="M333 0l222 1261h350l-222 -1261h-350zM170 1104l58 328h1064l-58 -328h-1064zM282 -895l-116 191q81 48 146 105t123 133l-8 -71q-88 7 -141.5 58t-53.5 130q0 89 58.5 146t149.5 57q95 0 154.5 -63.5t59.5 -166.5q0 -101 -46.5 -195t-130 -176t-195.5 -148z" />
    <glyph glyph-name="uni021B" unicode="&#x21b;" 
d="M744 -35q-199 0 -318 105.5t-119 286.5q0 39 3.5 74.5t10.5 76.5l144 818h342l-144 -816q-7 -38 -10.5 -65t-3.5 -49q0 -58 38 -92.5t102 -34.5q38 0 72 12.5t71 37.5l111 -274q-76 -43 -146.5 -61.5t-152.5 -18.5zM137 802l44 252h976l-44 -252h-976zM365 -930l-116 191
q81 48 146 105t123 133l-8 -71q-88 7 -141.5 58t-53.5 130q0 89 58.5 146t149.5 57q95 0 154.5 -63.5t59.5 -166.5q0 -101 -46.5 -195t-130 -176t-195.5 -148z" />
    <glyph glyph-name="uni0237" unicode="&#x237;" 
d="M328 -451q-240 0 -414 162l202 222q92 -86 196 -86q141 0 169 157l185 1050h344l-191 -1083q-36 -204 -162.5 -313t-328.5 -109zM239 804l44 250h639l-44 -250h-639z" />
    <glyph glyph-name="uni0253" unicode="&#x253;" 
d="M666 -35q-201 0 -288 180h-77l88 61l-77 -206h-299l189 1071q42 239 181.5 363.5t358.5 124.5q211 0 349 -114l-160 -254q-39 32 -77.5 45t-89.5 13q-188 0 -225 -210l-32 -182l-62 19h78q123 174 323 174q132 0 204 -91.5t72 -261.5q0 -212 -59 -377.5t-161.5 -260
t-235.5 -94.5zM550 265q65 0 116 45t80.5 122.5t29.5 177.5q0 150 -117 150q-85 0 -140.5 -76.5t-83.5 -231.5l-20 -113q23 -36 58 -55t77 -19z" />
    <glyph glyph-name="uni0257" unicode="&#x257;" 
d="M390 -35q-154 0 -243.5 121t-89.5 326q0 194 60 347t164 241.5t236 88.5q88 0 149.5 -48.5t80.5 -131.5h81l-86 -100l40 349q23 206 127 303.5t257 97.5q68 0 123.5 -14.5t107.5 -45.5l-121 -258q-16 10 -32.5 15t-40.5 5q-93 0 -110 -117l-96 -658q-6 -39 -8.5 -63.5
t-2.5 -43.5q0 -79 93 -79h36l-52 -295q-30 -12 -60 -18.5t-65 -6.5q-103 0 -160.5 62t-57.5 174q0 29 5 59t18 74l49 -113l-82 10q-43 -136 -125.5 -208.5t-194.5 -72.5zM511 265q64 0 104.5 82t71.5 257l18 102q-21 43 -48 63t-66 20q-59 0 -105 -42.5t-72.5 -117.5
t-26.5 -171q0 -93 32.5 -143t91.5 -50z" />
    <glyph glyph-name="uni0259" unicode="&#x259;" 
d="M518 -35q-198 0 -306.5 90.5t-108.5 223.5q0 188 196 274.5t609 86.5l15 -172q-174 -3 -287 -16.5t-168 -43t-55 -81.5q0 -38 27.5 -60t89.5 -22q78 0 133 33t88.5 85.5t49 113.5t15.5 117q0 96 -49 147.5t-147 51.5q-75 0 -142.5 -31t-122.5 -88l-214 213
q106 104 226 153t265 49q153 0 265.5 -63t174.5 -172t62 -248q0 -97 -35 -208t-109 -209.5t-191 -161t-281 -62.5z" />
    <glyph glyph-name="uni02BB" unicode="&#x2bb;" 
d="M930 2009l116 -191q-81 -48 -146 -104.5t-123 -133.5l8 71q88 -7 141.5 -58t53.5 -130q0 -89 -58 -146t-150 -57q-95 0 -154.5 63.5t-59.5 166.5q0 101 46.5 195t130.5 176t195 148z" />
    <glyph glyph-name="uni02BC" unicode="&#x2bc;" 
d="M385 882l340 578h392l-430 -578h-302z" />
    <glyph glyph-name="circumflex" unicode="&#x2c6;" 
d="M269 1260l3 14l361 370h328l231 -370l-3 -14h-317l-113 299h72l-219 -299h-343z" />
    <glyph glyph-name="caron" unicode="&#x2c7;" 
d="M565 1260l-231 370l3 14h320l113 -299h-72l219 299h340l-3 -14l-361 -370h-328z" />
    <glyph glyph-name="breve" unicode="&#x2d8;" 
d="M749 1246q-103 0 -184.5 37.5t-128 106.5t-46.5 161q0 28 2.5 47t6.5 46h242q-3 -14 -5 -28.5t-2 -29.5q0 -55 34.5 -85.5t101.5 -30.5q74 0 118 41.5t57 132.5h250q-21 -146 -80.5 -233.5t-152 -126t-213.5 -38.5z" />
    <glyph glyph-name="dotaccent" unicode="&#x2d9;" 
d="M762 1235q-90 0 -153 61.5t-63 152.5q0 89 62.5 151.5t153.5 62.5q92 0 154 -62.5t62 -151.5q0 -91 -62 -152.5t-154 -61.5z" />
    <glyph glyph-name="ring" unicode="&#x2da;" 
d="M602 1189.5q-73 41.5 -116.5 112t-43.5 156.5t43.5 156.5t116.5 112t162 41.5t162 -41.5t116.5 -112t43.5 -156.5t-43.5 -156.5t-116.5 -112t-162 -41.5t-162 41.5zM848.5 1375q33.5 33 33.5 83t-33.5 83t-84.5 33t-84.5 -33t-33.5 -83t33.5 -83t84.5 -33t84.5 33z" />
    <glyph glyph-name="ogonek" unicode="&#x2db;" 
d="M474 -566q-125 0 -199.5 65.5t-74.5 175.5q0 128 109.5 231t347.5 200l47 -120q-123 -59 -178.5 -113t-55.5 -113q0 -38 24.5 -60t66.5 -22q39 0 82 17l28 -205q-47 -28 -95.5 -42t-101.5 -14z" />
    <glyph glyph-name="tilde" unicode="&#x2dc;" 
d="M915 1257q-55 0 -98 20.5t-87 60.5q-40 38 -60.5 52t-43.5 14t-33.5 -16t-16.5 -48l-16 -80h-238l16 89q26 145 95 221.5t177 76.5q56 0 99 -20t86 -61q40 -37 60.5 -51.5t43.5 -14.5t34 16.5t16 47.5l14 80h240l-16 -89q-25 -145 -94.5 -221.5t-177.5 -76.5z" />
    <glyph glyph-name="hungarumlaut" unicode="&#x2dd;" 
d="M705 1260l3 14l223 370h360l-3 -14l-315 -370h-268zM235 1260l3 14l223 370h360l-3 -14l-315 -370h-268z" />
    <glyph glyph-name="gravecomb" unicode="&#x300;" horiz-adv-x="0" 
d="M-11 1260l-245 370l3 14h380l153 -370l-3 -14h-288z" />
    <glyph glyph-name="acutecomb" unicode="&#x301;" horiz-adv-x="0" 
d="M-22 1260l3 14l283 370h400l-3 -14l-375 -370h-308z" />
    <glyph glyph-name="uni0302" unicode="&#x302;" horiz-adv-x="0" 
d="M-331 1260l3 14l361 370h328l231 -370l-3 -14h-317l-113 299h72l-219 -299h-343z" />
    <glyph glyph-name="tildecomb" unicode="&#x303;" horiz-adv-x="0" 
d="M315 1257q-55 0 -98 20.5t-87 60.5q-40 38 -60.5 52t-43.5 14t-33.5 -16t-16.5 -48l-16 -80h-238l16 89q26 145 95 221.5t177 76.5q56 0 99 -20t86 -61q40 -37 60.5 -51.5t43.5 -14.5t34 16.5t16 47.5l14 80h240l-16 -89q-25 -145 -94.5 -221.5t-177.5 -76.5z" />
    <glyph glyph-name="uni0304" unicode="&#x304;" horiz-adv-x="0" 
d="M-188 1306l48 274h650l-48 -274h-650z" />
    <glyph glyph-name="uni0306" unicode="&#x306;" horiz-adv-x="0" 
d="M149 1246q-103 0 -184.5 37.5t-128 106.5t-46.5 161q0 28 2.5 47t6.5 46h242q-3 -14 -5 -28.5t-2 -29.5q0 -55 34.5 -85.5t101.5 -30.5q74 0 118 41.5t57 132.5h250q-21 -146 -80.5 -233.5t-152 -126t-213.5 -38.5z" />
    <glyph glyph-name="uni0307" unicode="&#x307;" horiz-adv-x="0" 
d="M162 1235q-90 0 -153 61.5t-63 152.5q0 89 62.5 151.5t153.5 62.5q92 0 154 -62.5t62 -151.5q0 -91 -62 -152.5t-154 -61.5z" />
    <glyph glyph-name="uni0308" unicode="&#x308;" horiz-adv-x="0" 
d="M-129 1235q-86 0 -146 59.5t-60 144.5t60 144.5t146 59.5q87 0 146.5 -59t59.5 -145t-59 -145t-147 -59zM451 1235q-86 0 -146 59.5t-60 144.5t60 144.5t146 59.5q87 0 146.5 -59t59.5 -145t-59 -145t-147 -59z" />
    <glyph glyph-name="hookabovecomb" unicode="&#x309;" horiz-adv-x="0" 
d="M82 1169l6 218q204 0 204 91q0 38 -32.5 55.5t-107.5 17.5q-86 0 -181 -19l-24 221q56 17 118.5 25.5t124.5 8.5q155 0 243.5 -78.5t88.5 -208.5q0 -154 -114 -239.5t-326 -91.5z" />
    <glyph glyph-name="uni030A" unicode="&#x30a;" horiz-adv-x="0" 
d="M3 1189.5q-73 41.5 -116.5 112t-43.5 156.5t43.5 156.5t116.5 112t162 41.5t162 -41.5t116.5 -112t43.5 -156.5t-43.5 -156.5t-116.5 -112t-162 -41.5t-162 41.5zM249.5 1375q33.5 33 33.5 83t-33.5 83t-84.5 33t-84.5 -33t-33.5 -83t33.5 -83t84.5 -33t84.5 33z" />
    <glyph glyph-name="uni030B" unicode="&#x30b;" horiz-adv-x="0" 
d="M210 1260l3 14l223 370h360l-3 -14l-315 -370h-268zM-260 1260l3 14l223 370h360l-3 -14l-315 -370h-268z" />
    <glyph glyph-name="uni030C" unicode="&#x30c;" horiz-adv-x="0" 
d="M-35 1260l-231 370l3 14h320l113 -299h-72l219 299h340l-3 -14l-361 -370h-328z" />
    <glyph glyph-name="uni0312" unicode="&#x312;" horiz-adv-x="0" 
d="M320 2009l116 -191q-81 -48 -146 -104.5t-123 -133.5l8 71q88 -7 141.5 -58t53.5 -130q0 -89 -58 -146t-150 -57q-95 0 -154.5 63.5t-59.5 166.5q0 101 46.5 195t130.5 176t195 148z" />
    <glyph glyph-name="uni031B" unicode="&#x31b;" horiz-adv-x="0" 
d="M71 1268l28 164h45q71 0 108.5 29t37.5 74q0 57 -57 123l282 187q103 -116 103 -247q0 -101 -57 -175t-153.5 -114.5t-215.5 -40.5h-121z" />
    <glyph glyph-name="dotbelowcomb" unicode="&#x323;" horiz-adv-x="0" 
d="M-5 -574q-90 0 -153 61.5t-63 152.5q0 89 62.5 151.5t153.5 62.5q92 0 154 -62.5t62 -151.5q0 -91 -62 -152.5t-154 -61.5z" />
    <glyph glyph-name="uni0326" unicode="&#x326;" horiz-adv-x="0" 
d="M-328 -895l-116 191q81 48 146 105t123 133l-8 -71q-88 7 -141.5 58t-53.5 130q0 89 58.5 146t149.5 57q95 0 154.5 -63.5t59.5 -166.5q0 -101 -46.5 -195t-130 -176t-195.5 -148z" />
    <glyph glyph-name="uni0327" unicode="&#x327;" horiz-adv-x="0" 
d="M-4 -674q-134 0 -225 69.5t-126 163.5l206 88q41 -115 143 -115q47 0 78 29t31 75q0 39 -23 61t-69 22q-43 0 -89 -28l-126 77l198 253h168l-220 -273l-67 72q43 35 93 53.5t101 18.5q105 0 177.5 -63.5t72.5 -189.5q0 -91 -40.5 -161.5t-113 -111t-169.5 -40.5z" />
    <glyph glyph-name="uni0328" unicode="&#x328;" horiz-adv-x="0" 
d="M-111 -566q-125 0 -199.5 65.5t-74.5 175.5q0 128 109.5 231t347.5 200l47 -120q-123 -59 -178.5 -113t-55.5 -113q0 -38 24.5 -60t66.5 -22q39 0 82 17l28 -205q-47 -28 -95.5 -42t-101.5 -14z" />
    <glyph glyph-name="uni0329" unicode="&#x329;" horiz-adv-x="0" 
d="M-360 -685l91 520h294l-91 -520h-294z" />
    <glyph glyph-name="uni1E44" unicode="&#x1e44;" 
d="M-34 0l252 1432h326l281 -836h9l42 328l89 508h336l-252 -1432h-302l-297 879h-9l-42 -328l-97 -551h-336zM783 1613q-90 0 -153 61.5t-63 152.5q0 89 62.5 151.5t153.5 62.5q92 0 154 -62.5t62 -151.5q0 -91 -62 -152.5t-154 -61.5z" />
    <glyph glyph-name="uni1E45" unicode="&#x1e45;" 
d="M928 -20q-130 0 -204 72.5t-74 199.5q0 44 7.5 87t20.5 101l38 158q11 44 17 75.5t6 58.5q0 37 -17 56t-53 19q-49 0 -91.5 -40.5t-74.5 -113.5t-49 -171l-85 -482h-346l186 1053h328l-36 -204l-31 45h48q144 195 349 195q113 0 173.5 -61.5t60.5 -165.5q0 -42 -7 -88
t-21 -101l-49 -204q-10 -40 -13 -58.5t-3 -31.5q0 -79 94 -79h33l-52 -295q-81 -25 -155 -25zM757 1235q-90 0 -153 61.5t-63 152.5q0 89 62.5 151.5t153.5 62.5q92 0 154 -62.5t62 -151.5q0 -91 -62 -152.5t-154 -61.5z" />
    <glyph glyph-name="uni1E62" unicode="&#x1e62;" 
d="M607 -35q-235 0 -388.5 126.5t-189.5 349.5l329 58q15 -105 79.5 -162.5t167.5 -57.5q79 0 122.5 33t43.5 94q0 53 -32 88.5t-108 69.5l-186 85q-115 53 -177 146t-62 221q0 133 65 234.5t182 159t273 57.5q218 0 349 -102.5t164 -296.5l-329 -57q-23 142 -195 142
q-77 0 -120 -32t-43 -87q0 -40 23.5 -67.5t76.5 -51.5l181 -83q150 -69 217 -167t67 -244q0 -135 -64 -238t-178.5 -160.5t-267.5 -57.5zM501 -574q-90 0 -153 61.5t-63 152.5q0 89 62.5 151.5t153.5 62.5q92 0 154 -62.5t62 -151.5q0 -91 -62 -152.5t-154 -61.5z" />
    <glyph glyph-name="uni1E63" unicode="&#x1e63;" 
d="M585 -35q-138 0 -271.5 51.5t-238.5 145.5l171 222q170 -152 345 -152q58 0 87.5 19.5t29.5 55.5q0 47 -72 71l-148 50q-137 47 -210 131.5t-73 197.5q0 100 51.5 174.5t144.5 116t217 41.5q127 0 233 -38.5t212 -118.5l-171 -222q-75 60 -145 89.5t-135 29.5
q-47 0 -73 -16.5t-26 -48.5q0 -23 16.5 -39.5t53.5 -29.5l148 -50q151 -51 219 -129.5t68 -201.5q0 -103 -55 -182t-152.5 -123t-225.5 -44zM504 -574q-90 0 -153 61.5t-63 152.5q0 89 62.5 151.5t153.5 62.5q92 0 154 -62.5t62 -151.5q0 -91 -62 -152.5t-154 -61.5z" />
    <glyph glyph-name="Wgrave" unicode="&#x1e80;" 
d="M107 0l72 1432h309l-105 -926h6l98 275l124 369h182l10 -369l-13 -275h6l208 926h337l-432 -1432h-284l1 467l15 262h-6l-93 -262l-167 -467h-268zM643 1638l-245 370l3 14h380l153 -370l-3 -14h-288z" />
    <glyph glyph-name="wgrave" unicode="&#x1e81;" 
d="M121 0l-35 1054h287l-17 -555l-6 -117h7l35 118l145 433h267l-7 -432l-7 -119h7l36 119l178 553h289l-404 -1054h-294l5 469l7 113h-7l-35 -113l-158 -469h-293zM589 1260l-245 370l3 14h380l153 -370l-3 -14h-288z" />
    <glyph glyph-name="Wacute" unicode="&#x1e82;" 
d="M107 0l72 1432h309l-105 -926h6l98 275l124 369h182l10 -369l-13 -275h6l208 926h337l-432 -1432h-284l1 467l15 262h-6l-93 -262l-167 -467h-268zM633 1638l3 14l283 370h400l-3 -14l-375 -370h-308z" />
    <glyph glyph-name="wacute" unicode="&#x1e83;" 
d="M121 0l-35 1054h287l-17 -555l-6 -117h7l35 118l145 433h267l-7 -432l-7 -119h7l36 119l178 553h289l-404 -1054h-294l5 469l7 113h-7l-35 -113l-158 -469h-293zM579 1260l3 14l283 370h400l-3 -14l-375 -370h-308z" />
    <glyph glyph-name="Wdieresis" unicode="&#x1e84;" 
d="M107 0l72 1432h309l-105 -926h6l98 275l124 369h182l10 -369l-13 -275h6l208 926h337l-432 -1432h-284l1 467l15 262h-6l-93 -262l-167 -467h-268zM524 1613q-86 0 -146 59.5t-60 144.5t60 144.5t146 59.5q87 0 146.5 -59t59.5 -145t-59 -145t-147 -59zM1104 1613
q-86 0 -146 59.5t-60 144.5t60 144.5t146 59.5q87 0 146.5 -59t59.5 -145t-59 -145t-147 -59z" />
    <glyph glyph-name="wdieresis" unicode="&#x1e85;" 
d="M121 0l-35 1054h287l-17 -555l-6 -117h7l35 118l145 433h267l-7 -432l-7 -119h7l36 119l178 553h289l-404 -1054h-294l5 469l7 113h-7l-35 -113l-158 -469h-293zM470 1235q-86 0 -146 59.5t-60 144.5t60 144.5t146 59.5q87 0 146.5 -59t59.5 -145t-59 -145t-147 -59z
M1050 1235q-86 0 -146 59.5t-60 144.5t60 144.5t146 59.5q87 0 146.5 -59t59.5 -145t-59 -145t-147 -59z" />
    <glyph glyph-name="uni1E9E" unicode="&#x1e9e;" 
d="M712 -35q-86 0 -163.5 18t-149.5 58l135 283q32 -20 64.5 -32.5t71.5 -12.5q48 0 79.5 19.5t49.5 50.5t26 66.5t8 66.5q0 70 -45 110.5t-145 40.5h-69l25 140l201 369q-37 11 -87 11q-94 0 -151 -49t-75 -152l-168 -952h-342l172 973q45 257 197.5 375.5t414.5 118.5
q121 0 223 -24t199 -72l-19 -105l-226 -414l-9 -51l-102 55q175 -15 263 -112.5t88 -261.5q0 -109 -32 -203t-92.5 -164.5t-146.5 -110t-195 -39.5z" />
    <glyph glyph-name="uni1EA0" unicode="&#x1ea0;" 
d="M-90 0l695 1432h310l191 -1432h-350l-49 826l-12 228h-7l-82 -228l-341 -826h-355zM160 245l130 266h594l45 -266h-769zM487 -548q-90 0 -153 61.5t-63 152.5q0 89 62.5 151.5t153.5 62.5q92 0 154 -62.5t62 -151.5q0 -91 -62 -152.5t-154 -61.5z" />
    <glyph glyph-name="uni1EA1" unicode="&#x1ea1;" 
d="M389 -35q-163 0 -258 121t-95 326q0 194 63 347t172 241.5t247 88.5q94 0 160.5 -48.5t86.5 -131.5h81l-85 -100l46 264h315l-104 -589q-7 -38 -10 -62t-3 -43q0 -79 93 -79h36l-52 -295q-30 -12 -60 -18.5t-65 -6.5q-103 0 -160.5 62t-57.5 174q0 29 5 59t18 74l49 -113
l-82 10q-46 -136 -133.5 -208.5t-206.5 -72.5zM510 265q71 0 118 81.5t78 257.5l18 102q-25 43 -57 63t-76 20q-65 0 -116 -42.5t-80 -117.5t-29 -171q0 -93 37.5 -143t106.5 -50zM513 -609q-90 0 -153 61.5t-63 152.5q0 89 62.5 151.5t153.5 62.5q92 0 154 -62.5t62 -151.5
q0 -91 -62 -152.5t-154 -61.5z" />
    <glyph glyph-name="uni1EA2" unicode="&#x1ea2;" 
d="M-90 0l695 1432h310l191 -1432h-350l-49 826l-12 228h-7l-82 -228l-341 -826h-355zM160 245l130 266h594l45 -266h-769zM741 1547l6 218q204 0 204 91q0 38 -32.5 55.5t-107.5 17.5q-86 0 -181 -19l-24 221q56 17 118.5 25.5t124.5 8.5q155 0 243.5 -78.5t88.5 -208.5
q0 -154 -114 -239.5t-326 -91.5z" />
    <glyph glyph-name="uni1EA3" unicode="&#x1ea3;" 
d="M389 -35q-163 0 -258 121t-95 326q0 194 63 347t172 241.5t247 88.5q94 0 160.5 -48.5t86.5 -131.5h81l-85 -100l46 264h315l-104 -589q-7 -38 -10 -62t-3 -43q0 -79 93 -79h36l-52 -295q-30 -12 -60 -18.5t-65 -6.5q-103 0 -160.5 62t-57.5 174q0 29 5 59t18 74l49 -113
l-82 10q-46 -136 -133.5 -208.5t-206.5 -72.5zM510 265q71 0 118 81.5t78 257.5l18 102q-25 43 -57 63t-76 20q-65 0 -116 -42.5t-80 -117.5t-29 -171q0 -93 37.5 -143t106.5 -50zM658 1169l6 218q204 0 204 91q0 38 -32.5 55.5t-107.5 17.5q-86 0 -181 -19l-24 221
q56 17 118.5 25.5t124.5 8.5q155 0 243.5 -78.5t88.5 -208.5q0 -154 -114 -239.5t-326 -91.5z" />
    <glyph glyph-name="uni1EA4" unicode="&#x1ea4;" 
d="M-90 0l695 1432h310l191 -1432h-350l-49 826l-12 228h-7l-82 -228l-341 -826h-355zM160 245l130 266h594l45 -266h-769zM283 1542l3 14l421 360h260l295 -360l-3 -14h-323l-129 215h40l-215 -215h-349zM1073 1851v14l180 420h285v-14l-256 -420h-209z" />
    <glyph glyph-name="uni1EA5" unicode="&#x1ea5;" 
d="M389 -35q-163 0 -258 121t-95 326q0 194 63 347t172 241.5t247 88.5q94 0 160.5 -48.5t86.5 -131.5h81l-85 -100l46 264h315l-104 -589q-7 -38 -10 -62t-3 -43q0 -79 93 -79h36l-52 -295q-30 -12 -60 -18.5t-65 -6.5q-103 0 -160.5 62t-57.5 174q0 29 5 59t18 74l49 -113
l-82 10q-46 -136 -133.5 -208.5t-206.5 -72.5zM510 265q71 0 118 81.5t78 257.5l18 102q-25 43 -57 63t-76 20q-65 0 -116 -42.5t-80 -117.5t-29 -171q0 -93 37.5 -143t106.5 -50zM237 1218l3 14l421 360h260l295 -360l-3 -14h-323l-129 215h40l-215 -215h-349zM1027 1527
v14l180 420h285v-14l-256 -420h-209z" />
    <glyph glyph-name="uni1EA6" unicode="&#x1ea6;" 
d="M-90 0l695 1432h310l191 -1432h-350l-49 826l-12 228h-7l-82 -228l-341 -826h-355zM160 245l130 266h594l45 -266h-769zM283 1542l3 14l421 360h260l295 -360l-3 -14h-323l-129 215h40l-215 -215h-349zM1180 1851l-208 420l3 14h285l148 -420l-3 -14h-225z" />
    <glyph glyph-name="uni1EA7" unicode="&#x1ea7;" 
d="M389 -35q-163 0 -258 121t-95 326q0 194 63 347t172 241.5t247 88.5q94 0 160.5 -48.5t86.5 -131.5h81l-85 -100l46 264h315l-104 -589q-7 -38 -10 -62t-3 -43q0 -79 93 -79h36l-52 -295q-30 -12 -60 -18.5t-65 -6.5q-103 0 -160.5 62t-57.5 174q0 29 5 59t18 74l49 -113
l-82 10q-46 -136 -133.5 -208.5t-206.5 -72.5zM510 265q71 0 118 81.5t78 257.5l18 102q-25 43 -57 63t-76 20q-65 0 -116 -42.5t-80 -117.5t-29 -171q0 -93 37.5 -143t106.5 -50zM237 1218l3 14l421 360h260l295 -360l-3 -14h-323l-129 215h40l-215 -215h-349zM1134 1527
l-208 420l3 14h285l148 -420l-3 -14h-225z" />
    <glyph glyph-name="uni1EA8" unicode="&#x1ea8;" 
d="M-90 0l695 1432h310l191 -1432h-350l-49 826l-12 228h-7l-82 -228l-341 -826h-355zM160 245l130 266h594l45 -266h-769zM283 1542l3 14l421 360h260l295 -360l-3 -14h-323l-129 215h40l-215 -215h-349zM1149 1790v184q76 0 110.5 19.5t34.5 56.5q0 70 -122 70
q-70 0 -157 -18l-20 193q94 25 195 25q149 0 221.5 -69t72.5 -185q0 -121 -90 -196t-245 -80z" />
    <glyph glyph-name="uni1EA9" unicode="&#x1ea9;" 
d="M389 -35q-163 0 -258 121t-95 326q0 194 63 347t172 241.5t247 88.5q94 0 160.5 -48.5t86.5 -131.5h81l-85 -100l46 264h315l-104 -589q-7 -38 -10 -62t-3 -43q0 -79 93 -79h36l-52 -295q-30 -12 -60 -18.5t-65 -6.5q-103 0 -160.5 62t-57.5 174q0 29 5 59t18 74l49 -113
l-82 10q-46 -136 -133.5 -208.5t-206.5 -72.5zM510 265q71 0 118 81.5t78 257.5l18 102q-25 43 -57 63t-76 20q-65 0 -116 -42.5t-80 -117.5t-29 -171q0 -93 37.5 -143t106.5 -50zM237 1218l3 14l421 360h260l295 -360l-3 -14h-323l-129 215h40l-215 -215h-349zM1103 1466
v184q76 0 110.5 19.5t34.5 56.5q0 70 -122 70q-70 0 -157 -18l-20 193q94 25 195 25q149 0 221.5 -69t72.5 -185q0 -121 -90 -196t-245 -80z" />
    <glyph glyph-name="uni1EAA" unicode="&#x1eaa;" 
d="M-90 0l695 1432h310l191 -1432h-350l-49 826l-12 228h-7l-82 -228l-341 -826h-355zM160 245l130 266h594l45 -266h-769zM283 1542l3 14l421 360h260l295 -360l-3 -14h-323l-129 215h40l-215 -215h-349zM1088 2000q-55 0 -104 19t-105 61q-44 33 -71.5 46.5t-56.5 13.5
q-71 0 -85 -79l-10 -57h-230l15 88q21 126 84 192t160 66q51 0 99 -19t103 -62q44 -34 72 -47t56 -13q36 0 57 19.5t28 59.5l10 58h230l-15 -88q-22 -134 -79 -196t-158 -62z" />
    <glyph glyph-name="uni1EAB" unicode="&#x1eab;" 
d="M389 -35q-163 0 -258 121t-95 326q0 194 63 347t172 241.5t247 88.5q94 0 160.5 -48.5t86.5 -131.5h81l-85 -100l46 264h315l-104 -589q-7 -38 -10 -62t-3 -43q0 -79 93 -79h36l-52 -295q-30 -12 -60 -18.5t-65 -6.5q-103 0 -160.5 62t-57.5 174q0 29 5 59t18 74l49 -113
l-82 10q-46 -136 -133.5 -208.5t-206.5 -72.5zM510 265q71 0 118 81.5t78 257.5l18 102q-25 43 -57 63t-76 20q-65 0 -116 -42.5t-80 -117.5t-29 -171q0 -93 37.5 -143t106.5 -50zM237 1218l3 14l421 360h260l295 -360l-3 -14h-323l-129 215h40l-215 -215h-349zM1042 1676
q-55 0 -104 19t-105 61q-44 33 -71.5 46.5t-56.5 13.5q-71 0 -85 -79l-10 -57h-230l15 88q21 126 84 192t160 66q51 0 99 -19t103 -62q44 -34 72 -47t56 -13q36 0 57 19.5t28 59.5l10 58h230l-15 -88q-22 -134 -79 -196t-158 -62z" />
    <glyph glyph-name="uni1EAC" unicode="&#x1eac;" 
d="M-90 0l695 1432h310l191 -1432h-350l-49 826l-12 228h-7l-82 -228l-341 -826h-355zM160 245l130 266h594l45 -266h-769zM487 -548q-90 0 -153 61.5t-63 152.5q0 89 62.5 151.5t153.5 62.5q92 0 154 -62.5t62 -151.5q0 -91 -62 -152.5t-154 -61.5zM328 1638l3 14l361 370
h328l231 -370l-3 -14h-317l-113 299h72l-219 -299h-343z" />
    <glyph glyph-name="uni1EAD" unicode="&#x1ead;" 
d="M389 -35q-163 0 -258 121t-95 326q0 194 63 347t172 241.5t247 88.5q94 0 160.5 -48.5t86.5 -131.5h81l-85 -100l46 264h315l-104 -589q-7 -38 -10 -62t-3 -43q0 -79 93 -79h36l-52 -295q-30 -12 -60 -18.5t-65 -6.5q-103 0 -160.5 62t-57.5 174q0 29 5 59t18 74l49 -113
l-82 10q-46 -136 -133.5 -208.5t-206.5 -72.5zM510 265q71 0 118 81.5t78 257.5l18 102q-25 43 -57 63t-76 20q-65 0 -116 -42.5t-80 -117.5t-29 -171q0 -93 37.5 -143t106.5 -50zM513 -609q-90 0 -153 61.5t-63 152.5q0 89 62.5 151.5t153.5 62.5q92 0 154 -62.5t62 -151.5
q0 -91 -62 -152.5t-154 -61.5zM245 1260l3 14l361 370h328l231 -370l-3 -14h-317l-113 299h72l-219 -299h-343z" />
    <glyph glyph-name="uni1EAE" unicode="&#x1eae;" 
d="M-90 0l695 1432h310l191 -1432h-350l-49 826l-12 228h-7l-82 -228l-341 -826h-355zM160 245l130 266h594l45 -266h-769zM817 1542q-117 0 -206.5 42t-140.5 117t-51 172q0 34 6 61h217q-3 -19 -3 -39q0 -68 50 -110.5t130 -42.5q176 0 205 174l3 18h228l-2 -13
q-28 -180 -142.5 -279.5t-293.5 -99.5zM716 1908v14l172 390h311v-14l-313 -390h-170z" />
    <glyph glyph-name="uni1EAF" unicode="&#x1eaf;" 
d="M389 -35q-163 0 -258 121t-95 326q0 194 63 347t172 241.5t247 88.5q94 0 160.5 -48.5t86.5 -131.5h81l-85 -100l46 264h315l-104 -589q-7 -38 -10 -62t-3 -43q0 -79 93 -79h36l-52 -295q-30 -12 -60 -18.5t-65 -6.5q-103 0 -160.5 62t-57.5 174q0 29 5 59t18 74l49 -113
l-82 10q-46 -136 -133.5 -208.5t-206.5 -72.5zM510 265q71 0 118 81.5t78 257.5l18 102q-25 43 -57 63t-76 20q-65 0 -116 -42.5t-80 -117.5t-29 -171q0 -93 37.5 -143t106.5 -50zM771 1208q-117 0 -206.5 42t-140.5 117t-51 172q0 34 6 61h217q-3 -19 -3 -39
q0 -68 50 -110.5t130 -42.5q176 0 205 174l3 18h228l-2 -13q-28 -180 -142.5 -279.5t-293.5 -99.5zM670 1574v14l172 390h311v-14l-313 -390h-170z" />
    <glyph glyph-name="uni1EB0" unicode="&#x1eb0;" 
d="M-90 0l695 1432h310l191 -1432h-350l-49 826l-12 228h-7l-82 -228l-341 -826h-355zM160 245l130 266h594l45 -266h-769zM817 1542q-117 0 -206.5 42t-140.5 117t-51 172q0 34 6 61h217q-3 -19 -3 -39q0 -68 50 -110.5t130 -42.5q176 0 205 174l3 18h228l-2 -13
q-28 -180 -142.5 -279.5t-293.5 -99.5zM786 1908l-203 390l3 14h310l73 -390l-3 -14h-180z" />
    <glyph glyph-name="uni1EB1" unicode="&#x1eb1;" 
d="M389 -35q-163 0 -258 121t-95 326q0 194 63 347t172 241.5t247 88.5q94 0 160.5 -48.5t86.5 -131.5h81l-85 -100l46 264h315l-104 -589q-7 -38 -10 -62t-3 -43q0 -79 93 -79h36l-52 -295q-30 -12 -60 -18.5t-65 -6.5q-103 0 -160.5 62t-57.5 174q0 29 5 59t18 74l49 -113
l-82 10q-46 -136 -133.5 -208.5t-206.5 -72.5zM510 265q71 0 118 81.5t78 257.5l18 102q-25 43 -57 63t-76 20q-65 0 -116 -42.5t-80 -117.5t-29 -171q0 -93 37.5 -143t106.5 -50zM771 1208q-117 0 -206.5 42t-140.5 117t-51 172q0 34 6 61h217q-3 -19 -3 -39
q0 -68 50 -110.5t130 -42.5q176 0 205 174l3 18h228l-2 -13q-28 -180 -142.5 -279.5t-293.5 -99.5zM740 1574l-203 390l3 14h310l73 -390l-3 -14h-180z" />
    <glyph glyph-name="uni1EB2" unicode="&#x1eb2;" 
d="M-90 0l695 1432h310l191 -1432h-350l-49 826l-12 228h-7l-82 -228l-341 -826h-355zM160 245l130 266h594l45 -266h-769zM815 1542q-119 0 -210.5 43.5t-143.5 120t-52 175.5q0 30 6 57h208q-4 -13 -4 -37q0 -74 54.5 -119t144.5 -45t146.5 47.5t71.5 135.5l3 18h226
l-2 -13q-28 -182 -145.5 -282.5t-302.5 -100.5zM731 1864v170q74 0 105.5 18t31.5 51q0 32 -27.5 48t-90.5 16q-33 0 -69 -3.5t-79 -11.5l-22 191q93 24 189 24q132 0 203 -66.5t71 -180.5q0 -112 -84 -181.5t-228 -74.5z" />
    <glyph glyph-name="uni1EB3" unicode="&#x1eb3;" 
d="M389 -35q-163 0 -258 121t-95 326q0 194 63 347t172 241.5t247 88.5q94 0 160.5 -48.5t86.5 -131.5h81l-85 -100l46 264h315l-104 -589q-7 -38 -10 -62t-3 -43q0 -79 93 -79h36l-52 -295q-30 -12 -60 -18.5t-65 -6.5q-103 0 -160.5 62t-57.5 174q0 29 5 59t18 74l49 -113
l-82 10q-46 -136 -133.5 -208.5t-206.5 -72.5zM510 265q71 0 118 81.5t78 257.5l18 102q-25 43 -57 63t-76 20q-65 0 -116 -42.5t-80 -117.5t-29 -171q0 -93 37.5 -143t106.5 -50zM769 1208q-119 0 -210.5 43.5t-143.5 120t-52 175.5q0 30 6 57h208q-4 -13 -4 -37
q0 -74 54.5 -119t144.5 -45t146.5 47.5t71.5 135.5l3 18h226l-2 -13q-28 -182 -145.5 -282.5t-302.5 -100.5zM685 1530v170q74 0 105.5 18t31.5 51q0 32 -27.5 48t-90.5 16q-33 0 -69 -3.5t-79 -11.5l-22 191q93 24 189 24q132 0 203 -66.5t71 -180.5q0 -112 -84 -181.5
t-228 -74.5z" />
    <glyph glyph-name="uni1EB4" unicode="&#x1eb4;" 
d="M-90 0l695 1432h310l191 -1432h-350l-49 826l-12 228h-7l-82 -228l-341 -826h-355zM160 245l130 266h594l45 -266h-769zM805 1542q-108 0 -191.5 41t-130.5 114t-47 167q0 17 1.5 33t4.5 28h217q-3 -21 -3 -41q0 -66 43 -105.5t114 -39.5q152 0 180 168l3 18h236l-2 -13
q-27 -175 -138.5 -272.5t-286.5 -97.5zM1096 2027q-52 0 -99.5 16t-102.5 53q-54 36 -82 48.5t-55 12.5q-73 0 -89 -83l-8 -43h-230l16 88q23 126 86 192t161 66q49 0 94 -16.5t106 -57.5q50 -33 78 -45t55 -12q34 0 54 20.5t27 63.5l8 43h230l-16 -88
q-24 -135 -79.5 -196.5t-153.5 -61.5z" />
    <glyph glyph-name="uni1EB5" unicode="&#x1eb5;" 
d="M389 -35q-163 0 -258 121t-95 326q0 194 63 347t172 241.5t247 88.5q94 0 160.5 -48.5t86.5 -131.5h81l-85 -100l46 264h315l-104 -589q-7 -38 -10 -62t-3 -43q0 -79 93 -79h36l-52 -295q-30 -12 -60 -18.5t-65 -6.5q-103 0 -160.5 62t-57.5 174q0 29 5 59t18 74l49 -113
l-82 10q-46 -136 -133.5 -208.5t-206.5 -72.5zM510 265q71 0 118 81.5t78 257.5l18 102q-25 43 -57 63t-76 20q-65 0 -116 -42.5t-80 -117.5t-29 -171q0 -93 37.5 -143t106.5 -50zM759 1208q-108 0 -191.5 41t-130.5 114t-47 167q0 17 1.5 33t4.5 28h217q-3 -21 -3 -41
q0 -66 43 -105.5t114 -39.5q152 0 180 168l3 18h236l-2 -13q-27 -175 -138.5 -272.5t-286.5 -97.5zM1050 1693q-52 0 -99.5 16t-102.5 53q-54 36 -82 48.5t-55 12.5q-73 0 -89 -83l-8 -43h-230l16 88q23 126 86 192t161 66q49 0 94 -16.5t106 -57.5q50 -33 78 -45t55 -12
q34 0 54 20.5t27 63.5l8 43h230l-16 -88q-24 -135 -79.5 -196.5t-153.5 -61.5z" />
    <glyph glyph-name="uni1EB6" unicode="&#x1eb6;" 
d="M-90 0l695 1432h310l191 -1432h-350l-49 826l-12 228h-7l-82 -228l-341 -826h-355zM160 245l130 266h594l45 -266h-769zM487 -548q-90 0 -153 61.5t-63 152.5q0 89 62.5 151.5t153.5 62.5q92 0 154 -62.5t62 -151.5q0 -91 -62 -152.5t-154 -61.5zM808 1624
q-103 0 -184.5 37.5t-128 106.5t-46.5 161q0 28 2.5 47t6.5 46h242q-3 -14 -5 -28.5t-2 -29.5q0 -55 34.5 -85.5t101.5 -30.5q74 0 118 41.5t57 132.5h250q-21 -146 -80.5 -233.5t-152 -126t-213.5 -38.5z" />
    <glyph glyph-name="uni1EB7" unicode="&#x1eb7;" 
d="M389 -35q-163 0 -258 121t-95 326q0 194 63 347t172 241.5t247 88.5q94 0 160.5 -48.5t86.5 -131.5h81l-85 -100l46 264h315l-104 -589q-7 -38 -10 -62t-3 -43q0 -79 93 -79h36l-52 -295q-30 -12 -60 -18.5t-65 -6.5q-103 0 -160.5 62t-57.5 174q0 29 5 59t18 74l49 -113
l-82 10q-46 -136 -133.5 -208.5t-206.5 -72.5zM510 265q71 0 118 81.5t78 257.5l18 102q-25 43 -57 63t-76 20q-65 0 -116 -42.5t-80 -117.5t-29 -171q0 -93 37.5 -143t106.5 -50zM513 -609q-90 0 -153 61.5t-63 152.5q0 89 62.5 151.5t153.5 62.5q92 0 154 -62.5t62 -151.5
q0 -91 -62 -152.5t-154 -61.5zM725 1246q-103 0 -184.5 37.5t-128 106.5t-46.5 161q0 28 2.5 47t6.5 46h242q-3 -14 -5 -28.5t-2 -29.5q0 -55 34.5 -85.5t101.5 -30.5q74 0 118 41.5t57 132.5h250q-21 -146 -80.5 -233.5t-152 -126t-213.5 -38.5z" />
    <glyph glyph-name="uni1EB8" unicode="&#x1eb8;" 
d="M38 0l252 1432h916l-57 -322h-572l-138 -788h587l-57 -322h-931zM354 570l56 318h620l-56 -318h-620zM481 -574q-90 0 -153 61.5t-63 152.5q0 89 62.5 151.5t153.5 62.5q92 0 154 -62.5t62 -151.5q0 -91 -62 -152.5t-154 -61.5z" />
    <glyph glyph-name="uni1EB9" unicode="&#x1eb9;" 
d="M609 -35q-157 0 -277 67t-187.5 184t-67.5 266q0 124 42 233.5t122.5 193.5t195 132t259.5 48q203 0 307 -94t104 -234q0 -126 -84.5 -201.5t-262.5 -109t-458 -33.5l-15 172q174 3 287 16.5t168 42.5t55 79q0 38 -26.5 60t-85.5 22q-88 0 -153 -43.5t-101 -116
t-36 -159.5q0 -108 58 -166.5t164 -58.5q71 0 130.5 27.5t118.5 88.5l182 -235q-91 -92 -196.5 -136.5t-242.5 -44.5zM509 -609q-90 0 -153 61.5t-63 152.5q0 89 62.5 151.5t153.5 62.5q92 0 154 -62.5t62 -151.5q0 -91 -62 -152.5t-154 -61.5z" />
    <glyph glyph-name="uni1EBA" unicode="&#x1eba;" 
d="M38 0l252 1432h916l-57 -322h-572l-138 -788h587l-57 -322h-931zM354 570l56 318h620l-56 -318h-620zM737 1547l6 218q204 0 204 91q0 38 -32.5 55.5t-107.5 17.5q-86 0 -181 -19l-24 221q56 17 118.5 25.5t124.5 8.5q155 0 243.5 -78.5t88.5 -208.5q0 -154 -114 -239.5
t-326 -91.5z" />
    <glyph glyph-name="uni1EBB" unicode="&#x1ebb;" 
d="M609 -35q-157 0 -277 67t-187.5 184t-67.5 266q0 124 42 233.5t122.5 193.5t195 132t259.5 48q203 0 307 -94t104 -234q0 -126 -84.5 -201.5t-262.5 -109t-458 -33.5l-15 172q174 3 287 16.5t168 42.5t55 79q0 38 -26.5 60t-85.5 22q-88 0 -153 -43.5t-101 -116
t-36 -159.5q0 -108 58 -166.5t164 -58.5q71 0 130.5 27.5t118.5 88.5l182 -235q-91 -92 -196.5 -136.5t-242.5 -44.5zM690 1169l6 218q204 0 204 91q0 38 -32.5 55.5t-107.5 17.5q-86 0 -181 -19l-24 221q56 17 118.5 25.5t124.5 8.5q155 0 243.5 -78.5t88.5 -208.5
q0 -154 -114 -239.5t-326 -91.5z" />
    <glyph glyph-name="uni1EBC" unicode="&#x1ebc;" 
d="M38 0l252 1432h916l-57 -322h-572l-138 -788h587l-57 -322h-931zM354 570l56 318h620l-56 -318h-620zM970 1635q-55 0 -98 20.5t-87 60.5q-40 38 -60.5 52t-43.5 14t-33.5 -16t-16.5 -48l-16 -80h-238l16 89q26 145 95 221.5t177 76.5q56 0 99 -20t86 -61
q40 -37 60.5 -51.5t43.5 -14.5t34 16.5t16 47.5l14 80h240l-16 -89q-25 -145 -94.5 -221.5t-177.5 -76.5z" />
    <glyph glyph-name="uni1EBD" unicode="&#x1ebd;" 
d="M609 -35q-157 0 -277 67t-187.5 184t-67.5 266q0 124 42 233.5t122.5 193.5t195 132t259.5 48q203 0 307 -94t104 -234q0 -126 -84.5 -201.5t-262.5 -109t-458 -33.5l-15 172q174 3 287 16.5t168 42.5t55 79q0 38 -26.5 60t-85.5 22q-88 0 -153 -43.5t-101 -116
t-36 -159.5q0 -108 58 -166.5t164 -58.5q71 0 130.5 27.5t118.5 88.5l182 -235q-91 -92 -196.5 -136.5t-242.5 -44.5zM923 1257q-55 0 -98 20.5t-87 60.5q-40 38 -60.5 52t-43.5 14t-33.5 -16t-16.5 -48l-16 -80h-238l16 89q26 145 95 221.5t177 76.5q56 0 99 -20t86 -61
q40 -37 60.5 -51.5t43.5 -14.5t34 16.5t16 47.5l14 80h240l-16 -89q-25 -145 -94.5 -221.5t-177.5 -76.5z" />
    <glyph glyph-name="uni1EBE" unicode="&#x1ebe;" 
d="M38 0l252 1432h916l-57 -322h-572l-138 -788h587l-57 -322h-931zM354 570l56 318h620l-56 -318h-620zM279 1542l3 14l421 360h260l295 -360l-3 -14h-323l-129 215h40l-215 -215h-349zM1069 1851v14l180 420h285v-14l-256 -420h-209z" />
    <glyph glyph-name="uni1EBF" unicode="&#x1ebf;" 
d="M609 -35q-157 0 -277 67t-187.5 184t-67.5 266q0 124 42 233.5t122.5 193.5t195 132t259.5 48q203 0 307 -94t104 -234q0 -126 -84.5 -201.5t-262.5 -109t-458 -33.5l-15 172q174 3 287 16.5t168 42.5t55 79q0 38 -26.5 60t-85.5 22q-88 0 -153 -43.5t-101 -116
t-36 -159.5q0 -108 58 -166.5t164 -58.5q71 0 130.5 27.5t118.5 88.5l182 -235q-91 -92 -196.5 -136.5t-242.5 -44.5zM252 1218l3 14l421 360h260l295 -360l-3 -14h-323l-129 215h40l-215 -215h-349zM1042 1527v14l180 420h285v-14l-256 -420h-209z" />
    <glyph glyph-name="uni1EC0" unicode="&#x1ec0;" 
d="M38 0l252 1432h916l-57 -322h-572l-138 -788h587l-57 -322h-931zM354 570l56 318h620l-56 -318h-620zM279 1542l3 14l421 360h260l295 -360l-3 -14h-323l-129 215h40l-215 -215h-349zM1176 1851l-208 420l3 14h285l148 -420l-3 -14h-225z" />
    <glyph glyph-name="uni1EC1" unicode="&#x1ec1;" 
d="M609 -35q-157 0 -277 67t-187.5 184t-67.5 266q0 124 42 233.5t122.5 193.5t195 132t259.5 48q203 0 307 -94t104 -234q0 -126 -84.5 -201.5t-262.5 -109t-458 -33.5l-15 172q174 3 287 16.5t168 42.5t55 79q0 38 -26.5 60t-85.5 22q-88 0 -153 -43.5t-101 -116
t-36 -159.5q0 -108 58 -166.5t164 -58.5q71 0 130.5 27.5t118.5 88.5l182 -235q-91 -92 -196.5 -136.5t-242.5 -44.5zM252 1218l3 14l421 360h260l295 -360l-3 -14h-323l-129 215h40l-215 -215h-349zM1149 1527l-208 420l3 14h285l148 -420l-3 -14h-225z" />
    <glyph glyph-name="uni1EC2" unicode="&#x1ec2;" 
d="M38 0l252 1432h916l-57 -322h-572l-138 -788h587l-57 -322h-931zM354 570l56 318h620l-56 -318h-620zM279 1542l3 14l421 360h260l295 -360l-3 -14h-323l-129 215h40l-215 -215h-349zM1145 1790v184q76 0 110.5 19.5t34.5 56.5q0 70 -122 70q-70 0 -157 -18l-20 193
q94 25 195 25q149 0 221.5 -69t72.5 -185q0 -121 -90 -196t-245 -80z" />
    <glyph glyph-name="uni1EC3" unicode="&#x1ec3;" 
d="M609 -35q-157 0 -277 67t-187.5 184t-67.5 266q0 124 42 233.5t122.5 193.5t195 132t259.5 48q203 0 307 -94t104 -234q0 -126 -84.5 -201.5t-262.5 -109t-458 -33.5l-15 172q174 3 287 16.5t168 42.5t55 79q0 38 -26.5 60t-85.5 22q-88 0 -153 -43.5t-101 -116
t-36 -159.5q0 -108 58 -166.5t164 -58.5q71 0 130.5 27.5t118.5 88.5l182 -235q-91 -92 -196.5 -136.5t-242.5 -44.5zM252 1218l3 14l421 360h260l295 -360l-3 -14h-323l-129 215h40l-215 -215h-349zM1118 1466v184q76 0 110.5 19.5t34.5 56.5q0 70 -122 70q-70 0 -157 -18
l-20 193q94 25 195 25q149 0 221.5 -69t72.5 -185q0 -121 -90 -196t-245 -80z" />
    <glyph glyph-name="uni1EC4" unicode="&#x1ec4;" 
d="M38 0l252 1432h916l-57 -322h-572l-138 -788h587l-57 -322h-931zM354 570l56 318h620l-56 -318h-620zM279 1542l3 14l421 360h260l295 -360l-3 -14h-323l-129 215h40l-215 -215h-349zM1084 2000q-55 0 -104 19t-105 61q-44 33 -71.5 46.5t-56.5 13.5q-71 0 -85 -79
l-10 -57h-230l15 88q21 126 84 192t160 66q51 0 99 -19t103 -62q44 -34 72 -47t56 -13q36 0 57 19.5t28 59.5l10 58h230l-15 -88q-22 -134 -79 -196t-158 -62z" />
    <glyph glyph-name="uni1EC5" unicode="&#x1ec5;" 
d="M609 -35q-157 0 -277 67t-187.5 184t-67.5 266q0 124 42 233.5t122.5 193.5t195 132t259.5 48q203 0 307 -94t104 -234q0 -126 -84.5 -201.5t-262.5 -109t-458 -33.5l-15 172q174 3 287 16.5t168 42.5t55 79q0 38 -26.5 60t-85.5 22q-88 0 -153 -43.5t-101 -116
t-36 -159.5q0 -108 58 -166.5t164 -58.5q71 0 130.5 27.5t118.5 88.5l182 -235q-91 -92 -196.5 -136.5t-242.5 -44.5zM252 1218l3 14l421 360h260l295 -360l-3 -14h-323l-129 215h40l-215 -215h-349zM1057 1676q-55 0 -104 19t-105 61q-44 33 -71.5 46.5t-56.5 13.5
q-71 0 -85 -79l-10 -57h-230l15 88q21 126 84 192t160 66q51 0 99 -19t103 -62q44 -34 72 -47t56 -13q36 0 57 19.5t28 59.5l10 58h230l-15 -88q-22 -134 -79 -196t-158 -62z" />
    <glyph glyph-name="uni1EC6" unicode="&#x1ec6;" 
d="M38 0l252 1432h916l-57 -322h-572l-138 -788h587l-57 -322h-931zM354 570l56 318h620l-56 -318h-620zM481 -574q-90 0 -153 61.5t-63 152.5q0 89 62.5 151.5t153.5 62.5q92 0 154 -62.5t62 -151.5q0 -91 -62 -152.5t-154 -61.5zM324 1638l3 14l361 370h328l231 -370
l-3 -14h-317l-113 299h72l-219 -299h-343z" />
    <glyph glyph-name="uni1EC7" unicode="&#x1ec7;" 
d="M609 -35q-157 0 -277 67t-187.5 184t-67.5 266q0 124 42 233.5t122.5 193.5t195 132t259.5 48q203 0 307 -94t104 -234q0 -126 -84.5 -201.5t-262.5 -109t-458 -33.5l-15 172q174 3 287 16.5t168 42.5t55 79q0 38 -26.5 60t-85.5 22q-88 0 -153 -43.5t-101 -116
t-36 -159.5q0 -108 58 -166.5t164 -58.5q71 0 130.5 27.5t118.5 88.5l182 -235q-91 -92 -196.5 -136.5t-242.5 -44.5zM509 -609q-90 0 -153 61.5t-63 152.5q0 89 62.5 151.5t153.5 62.5q92 0 154 -62.5t62 -151.5q0 -91 -62 -152.5t-154 -61.5zM277 1260l3 14l361 370h328
l231 -370l-3 -14h-317l-113 299h72l-219 -299h-343z" />
    <glyph glyph-name="uni1EC8" unicode="&#x1ec8;" 
d="M360 155l198 1122h350l-198 -1122h-350zM38 0l57 326h939l-57 -326h-939zM233 1106l57 326h939l-57 -326h-939zM749 1547l6 218q204 0 204 91q0 38 -32.5 55.5t-107.5 17.5q-86 0 -181 -19l-24 221q56 17 118.5 25.5t124.5 8.5q155 0 243.5 -78.5t88.5 -208.5
q0 -154 -114 -239.5t-326 -91.5z" />
    <glyph glyph-name="uni1EC9" unicode="&#x1ec9;" 
d="M801 -35q-189 0 -300 102t-111 279q0 29 4.5 64.5t12.5 82.5l82 464l82 -153h-392l44 250h620l-101 -575q-4 -25 -6 -42.5t-2 -35.5q0 -63 29 -97.5t86 -34.5q53 0 114 40l127 -268q-130 -76 -289 -76zM614 1169l6 218q204 0 204 91q0 38 -32.5 55.5t-107.5 17.5
q-86 0 -181 -19l-24 221q56 17 118.5 25.5t124.5 8.5q155 0 243.5 -78.5t88.5 -208.5q0 -154 -114 -239.5t-326 -91.5z" />
    <glyph glyph-name="uni1ECA" unicode="&#x1eca;" 
d="M360 155l198 1122h350l-198 -1122h-350zM38 0l57 326h939l-57 -326h-939zM233 1106l57 326h939l-57 -326h-939zM475 -574q-90 0 -153 61.5t-63 152.5q0 89 62.5 151.5t153.5 62.5q92 0 154 -62.5t62 -151.5q0 -91 -62 -152.5t-154 -61.5z" />
    <glyph glyph-name="uni1ECB" unicode="&#x1ecb;" 
d="M801 -35q-189 0 -300 102t-111 279q0 29 4.5 64.5t12.5 82.5l82 464l82 -153h-392l44 250h620l-101 -575q-4 -25 -6 -42.5t-2 -35.5q0 -63 29 -97.5t86 -34.5q53 0 114 40l127 -268q-130 -76 -289 -76zM733 1235q-88 0 -150.5 60.5t-62.5 147.5q0 89 61 148t152 59
q92 0 151.5 -58.5t59.5 -148.5q0 -88 -60.5 -148t-150.5 -60zM646 -574q-90 0 -153 61.5t-63 152.5q0 89 62.5 151.5t153.5 62.5q92 0 154 -62.5t62 -151.5q0 -91 -62 -152.5t-154 -61.5z" />
    <glyph glyph-name="uni1ECC" unicode="&#x1ecc;" 
d="M541 -35q-145 0 -251.5 64.5t-165 186t-58.5 293.5q0 118 21 249.5t68.5 257t125.5 227.5t191 163t267 61q218 0 339 -146.5t121 -404.5q0 -118 -20.5 -249t-67 -255.5t-123 -225.5t-187 -161t-260.5 -60zM573 299q63 0 109.5 41t78.5 108t51.5 147.5t28 161t8.5 146.5
q0 109 -35 169.5t-107 60.5q-64 0 -112.5 -41.5t-82.5 -110t-55 -150t-31 -162.5t-10 -147q0 -113 40 -168t117 -55zM478 -609q-90 0 -153 61.5t-63 152.5q0 89 62.5 151.5t153.5 62.5q92 0 154 -62.5t62 -151.5q0 -91 -62 -152.5t-154 -61.5z" />
    <glyph glyph-name="uni1ECD" unicode="&#x1ecd;" 
d="M556 -35q-140 0 -251 59.5t-175 171t-64 265.5q0 131 41 245t118.5 200t185.5 134.5t242 48.5q148 0 255 -61.5t165.5 -172.5t58.5 -262q0 -136 -39 -250.5t-114 -199t-181.5 -131.5t-241.5 -47zM570 263q62 0 104.5 30.5t69 80.5t38.5 107.5t12 111.5q0 91 -38.5 144.5
t-116.5 53.5q-62 0 -106.5 -30.5t-73 -80.5t-42 -107.5t-13.5 -111.5q0 -91 43.5 -144.5t122.5 -53.5zM474 -609q-90 0 -153 61.5t-63 152.5q0 89 62.5 151.5t153.5 62.5q92 0 154 -62.5t62 -151.5q0 -91 -62 -152.5t-154 -61.5z" />
    <glyph glyph-name="uni1ECE" unicode="&#x1ece;" 
d="M541 -35q-145 0 -251.5 64.5t-165 186t-58.5 293.5q0 118 21 249.5t68.5 257t125.5 227.5t191 163t267 61q218 0 339 -146.5t121 -404.5q0 -118 -20.5 -249t-67 -255.5t-123 -225.5t-187 -161t-260.5 -60zM573 299q63 0 109.5 41t78.5 108t51.5 147.5t28 161t8.5 146.5
q0 109 -35 169.5t-107 60.5q-64 0 -112.5 -41.5t-82.5 -110t-55 -150t-31 -162.5t-10 -147q0 -113 40 -168t117 -55zM729 1547l6 218q204 0 204 91q0 38 -32.5 55.5t-107.5 17.5q-86 0 -181 -19l-24 221q56 17 118.5 25.5t124.5 8.5q155 0 243.5 -78.5t88.5 -208.5
q0 -154 -114 -239.5t-326 -91.5z" />
    <glyph glyph-name="uni1ECF" unicode="&#x1ecf;" 
d="M556 -35q-140 0 -251 59.5t-175 171t-64 265.5q0 131 41 245t118.5 200t185.5 134.5t242 48.5q148 0 255 -61.5t165.5 -172.5t58.5 -262q0 -136 -39 -250.5t-114 -199t-181.5 -131.5t-241.5 -47zM570 263q62 0 104.5 30.5t69 80.5t38.5 107.5t12 111.5q0 91 -38.5 144.5
t-116.5 53.5q-62 0 -106.5 -30.5t-73 -80.5t-42 -107.5t-13.5 -111.5q0 -91 43.5 -144.5t122.5 -53.5zM642 1169l6 218q204 0 204 91q0 38 -32.5 55.5t-107.5 17.5q-86 0 -181 -19l-24 221q56 17 118.5 25.5t124.5 8.5q155 0 243.5 -78.5t88.5 -208.5q0 -154 -114 -239.5
t-326 -91.5z" />
    <glyph glyph-name="uni1ED0" unicode="&#x1ed0;" 
d="M541 -35q-145 0 -251.5 64.5t-165 186t-58.5 293.5q0 118 21 249.5t68.5 257t125.5 227.5t191 163t267 61q218 0 339 -146.5t121 -404.5q0 -118 -20.5 -249t-67 -255.5t-123 -225.5t-187 -161t-260.5 -60zM573 299q63 0 109.5 41t78.5 108t51.5 147.5t28 161t8.5 146.5
q0 109 -35 169.5t-107 60.5q-64 0 -112.5 -41.5t-82.5 -110t-55 -150t-31 -162.5t-10 -147q0 -113 40 -168t117 -55zM271 1542l3 14l421 360h260l295 -360l-3 -14h-323l-129 215h40l-215 -215h-349zM1061 1851v14l180 420h285v-14l-256 -420h-209z" />
    <glyph glyph-name="uni1ED1" unicode="&#x1ed1;" 
d="M556 -35q-140 0 -251 59.5t-175 171t-64 265.5q0 131 41 245t118.5 200t185.5 134.5t242 48.5q148 0 255 -61.5t165.5 -172.5t58.5 -262q0 -136 -39 -250.5t-114 -199t-181.5 -131.5t-241.5 -47zM570 263q62 0 104.5 30.5t69 80.5t38.5 107.5t12 111.5q0 91 -38.5 144.5
t-116.5 53.5q-62 0 -106.5 -30.5t-73 -80.5t-42 -107.5t-13.5 -111.5q0 -91 43.5 -144.5t122.5 -53.5zM224 1218l3 14l421 360h260l295 -360l-3 -14h-323l-129 215h40l-215 -215h-349zM1014 1527v14l180 420h285v-14l-256 -420h-209z" />
    <glyph glyph-name="uni1ED2" unicode="&#x1ed2;" 
d="M541 -35q-145 0 -251.5 64.5t-165 186t-58.5 293.5q0 118 21 249.5t68.5 257t125.5 227.5t191 163t267 61q218 0 339 -146.5t121 -404.5q0 -118 -20.5 -249t-67 -255.5t-123 -225.5t-187 -161t-260.5 -60zM573 299q63 0 109.5 41t78.5 108t51.5 147.5t28 161t8.5 146.5
q0 109 -35 169.5t-107 60.5q-64 0 -112.5 -41.5t-82.5 -110t-55 -150t-31 -162.5t-10 -147q0 -113 40 -168t117 -55zM271 1542l3 14l421 360h260l295 -360l-3 -14h-323l-129 215h40l-215 -215h-349zM1168 1851l-208 420l3 14h285l148 -420l-3 -14h-225z" />
    <glyph glyph-name="uni1ED3" unicode="&#x1ed3;" 
d="M556 -35q-140 0 -251 59.5t-175 171t-64 265.5q0 131 41 245t118.5 200t185.5 134.5t242 48.5q148 0 255 -61.5t165.5 -172.5t58.5 -262q0 -136 -39 -250.5t-114 -199t-181.5 -131.5t-241.5 -47zM570 263q62 0 104.5 30.5t69 80.5t38.5 107.5t12 111.5q0 91 -38.5 144.5
t-116.5 53.5q-62 0 -106.5 -30.5t-73 -80.5t-42 -107.5t-13.5 -111.5q0 -91 43.5 -144.5t122.5 -53.5zM224 1218l3 14l421 360h260l295 -360l-3 -14h-323l-129 215h40l-215 -215h-349zM1121 1527l-208 420l3 14h285l148 -420l-3 -14h-225z" />
    <glyph glyph-name="uni1ED4" unicode="&#x1ed4;" 
d="M541 -35q-145 0 -251.5 64.5t-165 186t-58.5 293.5q0 118 21 249.5t68.5 257t125.5 227.5t191 163t267 61q218 0 339 -146.5t121 -404.5q0 -118 -20.5 -249t-67 -255.5t-123 -225.5t-187 -161t-260.5 -60zM573 299q63 0 109.5 41t78.5 108t51.5 147.5t28 161t8.5 146.5
q0 109 -35 169.5t-107 60.5q-64 0 -112.5 -41.5t-82.5 -110t-55 -150t-31 -162.5t-10 -147q0 -113 40 -168t117 -55zM271 1542l3 14l421 360h260l295 -360l-3 -14h-323l-129 215h40l-215 -215h-349zM1137 1790v184q76 0 110.5 19.5t34.5 56.5q0 70 -122 70q-70 0 -157 -18
l-20 193q94 25 195 25q149 0 221.5 -69t72.5 -185q0 -121 -90 -196t-245 -80z" />
    <glyph glyph-name="uni1ED5" unicode="&#x1ed5;" 
d="M556 -35q-140 0 -251 59.5t-175 171t-64 265.5q0 131 41 245t118.5 200t185.5 134.5t242 48.5q148 0 255 -61.5t165.5 -172.5t58.5 -262q0 -136 -39 -250.5t-114 -199t-181.5 -131.5t-241.5 -47zM570 263q62 0 104.5 30.5t69 80.5t38.5 107.5t12 111.5q0 91 -38.5 144.5
t-116.5 53.5q-62 0 -106.5 -30.5t-73 -80.5t-42 -107.5t-13.5 -111.5q0 -91 43.5 -144.5t122.5 -53.5zM224 1218l3 14l421 360h260l295 -360l-3 -14h-323l-129 215h40l-215 -215h-349zM1090 1466v184q76 0 110.5 19.5t34.5 56.5q0 70 -122 70q-70 0 -157 -18l-20 193
q94 25 195 25q149 0 221.5 -69t72.5 -185q0 -121 -90 -196t-245 -80z" />
    <glyph glyph-name="uni1ED6" unicode="&#x1ed6;" 
d="M541 -35q-145 0 -251.5 64.5t-165 186t-58.5 293.5q0 118 21 249.5t68.5 257t125.5 227.5t191 163t267 61q218 0 339 -146.5t121 -404.5q0 -118 -20.5 -249t-67 -255.5t-123 -225.5t-187 -161t-260.5 -60zM573 299q63 0 109.5 41t78.5 108t51.5 147.5t28 161t8.5 146.5
q0 109 -35 169.5t-107 60.5q-64 0 -112.5 -41.5t-82.5 -110t-55 -150t-31 -162.5t-10 -147q0 -113 40 -168t117 -55zM271 1542l3 14l421 360h260l295 -360l-3 -14h-323l-129 215h40l-215 -215h-349zM1076 2000q-55 0 -104 19t-105 61q-44 33 -71.5 46.5t-56.5 13.5
q-71 0 -85 -79l-10 -57h-230l15 88q21 126 84 192t160 66q51 0 99 -19t103 -62q44 -34 72 -47t56 -13q36 0 57 19.5t28 59.5l10 58h230l-15 -88q-22 -134 -79 -196t-158 -62z" />
    <glyph glyph-name="uni1ED7" unicode="&#x1ed7;" 
d="M556 -35q-140 0 -251 59.5t-175 171t-64 265.5q0 131 41 245t118.5 200t185.5 134.5t242 48.5q148 0 255 -61.5t165.5 -172.5t58.5 -262q0 -136 -39 -250.5t-114 -199t-181.5 -131.5t-241.5 -47zM570 263q62 0 104.5 30.5t69 80.5t38.5 107.5t12 111.5q0 91 -38.5 144.5
t-116.5 53.5q-62 0 -106.5 -30.5t-73 -80.5t-42 -107.5t-13.5 -111.5q0 -91 43.5 -144.5t122.5 -53.5zM224 1218l3 14l421 360h260l295 -360l-3 -14h-323l-129 215h40l-215 -215h-349zM1029 1676q-55 0 -104 19t-105 61q-44 33 -71.5 46.5t-56.5 13.5q-71 0 -85 -79l-10 -57
h-230l15 88q21 126 84 192t160 66q51 0 99 -19t103 -62q44 -34 72 -47t56 -13q36 0 57 19.5t28 59.5l10 58h230l-15 -88q-22 -134 -79 -196t-158 -62z" />
    <glyph glyph-name="uni1ED8" unicode="&#x1ed8;" 
d="M541 -35q-145 0 -251.5 64.5t-165 186t-58.5 293.5q0 118 21 249.5t68.5 257t125.5 227.5t191 163t267 61q218 0 339 -146.5t121 -404.5q0 -118 -20.5 -249t-67 -255.5t-123 -225.5t-187 -161t-260.5 -60zM573 299q63 0 109.5 41t78.5 108t51.5 147.5t28 161t8.5 146.5
q0 109 -35 169.5t-107 60.5q-64 0 -112.5 -41.5t-82.5 -110t-55 -150t-31 -162.5t-10 -147q0 -113 40 -168t117 -55zM478 -609q-90 0 -153 61.5t-63 152.5q0 89 62.5 151.5t153.5 62.5q92 0 154 -62.5t62 -151.5q0 -91 -62 -152.5t-154 -61.5zM316 1638l3 14l361 370h328
l231 -370l-3 -14h-317l-113 299h72l-219 -299h-343z" />
    <glyph glyph-name="uni1ED9" unicode="&#x1ed9;" 
d="M556 -35q-140 0 -251 59.5t-175 171t-64 265.5q0 131 41 245t118.5 200t185.5 134.5t242 48.5q148 0 255 -61.5t165.5 -172.5t58.5 -262q0 -136 -39 -250.5t-114 -199t-181.5 -131.5t-241.5 -47zM570 263q62 0 104.5 30.5t69 80.5t38.5 107.5t12 111.5q0 91 -38.5 144.5
t-116.5 53.5q-62 0 -106.5 -30.5t-73 -80.5t-42 -107.5t-13.5 -111.5q0 -91 43.5 -144.5t122.5 -53.5zM474 -609q-90 0 -153 61.5t-63 152.5q0 89 62.5 151.5t153.5 62.5q92 0 154 -62.5t62 -151.5q0 -91 -62 -152.5t-154 -61.5zM229 1260l3 14l361 370h328l231 -370l-3 -14
h-317l-113 299h72l-219 -299h-343z" />
    <glyph glyph-name="uni1EDA" unicode="&#x1eda;" 
d="M541 -35q-145 0 -251.5 64.5t-165 186t-58.5 293.5q0 118 21.5 249.5t69 257t124.5 227.5t188 163t260 61q139 0 243.5 -73.5t162.5 -203t58 -299.5q0 -115 -20.5 -242.5t-66.5 -248.5t-121.5 -219.5t-185 -157t-258.5 -58.5zM573 299q63 0 109.5 41t78.5 108t51.5 147.5
t28 161t8.5 146.5q0 109 -35 169.5t-107 60.5q-64 0 -112.5 -41.5t-82.5 -110t-55 -150t-31 -162.5t-10 -147q0 -113 40 -168t117 -55zM949 1117l-32 128q92 26 138 65.5t46 100.5q0 42 -22 79.5t-72 77.5l264 226q65 -63 96.5 -132.5t31.5 -151.5q0 -155 -120.5 -258
t-329.5 -135zM558 1658l3 14l283 370h400l-3 -14l-375 -370h-308z" />
    <glyph glyph-name="uni1EDB" unicode="&#x1edb;" 
d="M532 -35q-137 0 -246 59.5t-171.5 171t-62.5 265.5q0 131 41 245t117 200t182 134.5t236 48.5q150 0 254.5 -71t159 -188t54.5 -257q0 -131 -38.5 -242t-111.5 -193t-177.5 -127.5t-236.5 -45.5zM546 263q59 0 100 30.5t66 80.5t36.5 107.5t11.5 111.5q0 91 -36 144.5
t-109 53.5q-59 0 -101.5 -30.5t-70 -80.5t-40.5 -107.5t-13 -111.5q0 -91 41 -144.5t115 -53.5zM902 740l-59 129q195 41 195 161q0 67 -79 135l254 209q119 -107 119 -246q0 -149 -113.5 -247t-316.5 -141zM488 1280l3 14l283 370h400l-3 -14l-375 -370h-308z" />
    <glyph glyph-name="uni1EDC" unicode="&#x1edc;" 
d="M541 -35q-145 0 -251.5 64.5t-165 186t-58.5 293.5q0 118 21.5 249.5t69 257t124.5 227.5t188 163t260 61q139 0 243.5 -73.5t162.5 -203t58 -299.5q0 -115 -20.5 -242.5t-66.5 -248.5t-121.5 -219.5t-185 -157t-258.5 -58.5zM573 299q63 0 109.5 41t78.5 108t51.5 147.5
t28 161t8.5 146.5q0 109 -35 169.5t-107 60.5q-64 0 -112.5 -41.5t-82.5 -110t-55 -150t-31 -162.5t-10 -147q0 -113 40 -168t117 -55zM949 1117l-32 128q92 26 138 65.5t46 100.5q0 42 -22 79.5t-72 77.5l264 226q65 -63 96.5 -132.5t31.5 -151.5q0 -155 -120.5 -258
t-329.5 -135zM646 1658l-245 370l3 14h380l153 -370l-3 -14h-288z" />
    <glyph glyph-name="uni1EDD" unicode="&#x1edd;" 
d="M532 -35q-137 0 -246 59.5t-171.5 171t-62.5 265.5q0 131 41 245t117 200t182 134.5t236 48.5q150 0 254.5 -71t159 -188t54.5 -257q0 -131 -38.5 -242t-111.5 -193t-177.5 -127.5t-236.5 -45.5zM546 263q59 0 100 30.5t66 80.5t36.5 107.5t11.5 111.5q0 91 -36 144.5
t-109 53.5q-59 0 -101.5 -30.5t-70 -80.5t-40.5 -107.5t-13 -111.5q0 -91 41 -144.5t115 -53.5zM902 740l-59 129q195 41 195 161q0 67 -79 135l254 209q119 -107 119 -246q0 -149 -113.5 -247t-316.5 -141zM589 1280l-245 370l3 14h380l153 -370l-3 -14h-288z" />
    <glyph glyph-name="uni1EDE" unicode="&#x1ede;" 
d="M541 -35q-145 0 -251.5 64.5t-165 186t-58.5 293.5q0 118 21.5 249.5t69 257t124.5 227.5t188 163t260 61q139 0 243.5 -73.5t162.5 -203t58 -299.5q0 -115 -20.5 -242.5t-66.5 -248.5t-121.5 -219.5t-185 -157t-258.5 -58.5zM573 299q63 0 109.5 41t78.5 108t51.5 147.5
t28 161t8.5 146.5q0 109 -35 169.5t-107 60.5q-64 0 -112.5 -41.5t-82.5 -110t-55 -150t-31 -162.5t-10 -147q0 -113 40 -168t117 -55zM949 1117l-32 128q92 26 138 65.5t46 100.5q0 42 -22 79.5t-72 77.5l264 226q65 -63 96.5 -132.5t31.5 -151.5q0 -155 -120.5 -258
t-329.5 -135zM649 1587l6 218q204 0 204 91q0 38 -32.5 55.5t-107.5 17.5q-86 0 -181 -19l-24 221q56 17 118.5 25.5t124.5 8.5q155 0 243.5 -78.5t88.5 -208.5q0 -154 -114 -239.5t-326 -91.5z" />
    <glyph glyph-name="uni1EDF" unicode="&#x1edf;" 
d="M532 -35q-137 0 -246 59.5t-171.5 171t-62.5 265.5q0 131 41 245t117 200t182 134.5t236 48.5q150 0 254.5 -71t159 -188t54.5 -257q0 -131 -38.5 -242t-111.5 -193t-177.5 -127.5t-236.5 -45.5zM546 263q59 0 100 30.5t66 80.5t36.5 107.5t11.5 111.5q0 91 -36 144.5
t-109 53.5q-59 0 -101.5 -30.5t-70 -80.5t-40.5 -107.5t-13 -111.5q0 -91 41 -144.5t115 -53.5zM902 740l-59 129q195 41 195 161q0 67 -79 135l254 209q119 -107 119 -246q0 -149 -113.5 -247t-316.5 -141zM573 1199l6 218q204 0 204 91q0 38 -32.5 55.5t-107.5 17.5
q-86 0 -181 -19l-24 221q56 17 118.5 25.5t124.5 8.5q155 0 243.5 -78.5t88.5 -208.5q0 -154 -114 -239.5t-326 -91.5z" />
    <glyph glyph-name="uni1EE0" unicode="&#x1ee0;" 
d="M541 -35q-145 0 -251.5 64.5t-165 186t-58.5 293.5q0 118 21.5 249.5t69 257t124.5 227.5t188 163t260 61q139 0 243.5 -73.5t162.5 -203t58 -299.5q0 -115 -20.5 -242.5t-66.5 -248.5t-121.5 -219.5t-185 -157t-258.5 -58.5zM573 299q63 0 109.5 41t78.5 108t51.5 147.5
t28 161t8.5 146.5q0 109 -35 169.5t-107 60.5q-64 0 -112.5 -41.5t-82.5 -110t-55 -150t-31 -162.5t-10 -147q0 -113 40 -168t117 -55zM949 1117l-32 128q92 26 138 65.5t46 100.5q0 42 -22 79.5t-72 77.5l264 226q65 -63 96.5 -132.5t31.5 -151.5q0 -155 -120.5 -258
t-329.5 -135zM925 1711q-55 0 -98 20.5t-87 60.5q-40 38 -60.5 52t-43.5 14t-33.5 -16t-16.5 -48l-16 -80h-238l16 89q26 145 95 221.5t177 76.5q56 0 99 -20t86 -61q40 -37 60.5 -51.5t43.5 -14.5t34 16.5t16 47.5l14 80h240l-16 -89q-25 -145 -94.5 -221.5t-177.5 -76.5z
" />
    <glyph glyph-name="uni1EE1" unicode="&#x1ee1;" 
d="M532 -35q-137 0 -246 59.5t-171.5 171t-62.5 265.5q0 131 41 245t117 200t182 134.5t236 48.5q150 0 254.5 -71t159 -188t54.5 -257q0 -131 -38.5 -242t-111.5 -193t-177.5 -127.5t-236.5 -45.5zM546 263q59 0 100 30.5t66 80.5t36.5 107.5t11.5 111.5q0 91 -36 144.5
t-109 53.5q-59 0 -101.5 -30.5t-70 -80.5t-40.5 -107.5t-13 -111.5q0 -91 41 -144.5t115 -53.5zM902 740l-59 129q195 41 195 161q0 67 -79 135l254 209q119 -107 119 -246q0 -149 -113.5 -247t-316.5 -141zM873 1317q-55 0 -98 20.5t-87 60.5q-40 38 -60.5 52t-43.5 14
t-33.5 -16t-16.5 -48l-16 -80h-238l16 89q26 145 95 221.5t177 76.5q56 0 99 -20t86 -61q40 -37 60.5 -51.5t43.5 -14.5t34 16.5t16 47.5l14 80h240l-16 -89q-25 -145 -94.5 -221.5t-177.5 -76.5z" />
    <glyph glyph-name="uni1EE2" unicode="&#x1ee2;" 
d="M541 -35q-145 0 -251.5 64.5t-165 186t-58.5 293.5q0 118 21.5 249.5t69 257t124.5 227.5t188 163t260 61q139 0 243.5 -73.5t162.5 -203t58 -299.5q0 -115 -20.5 -242.5t-66.5 -248.5t-121.5 -219.5t-185 -157t-258.5 -58.5zM573 299q63 0 109.5 41t78.5 108t51.5 147.5
t28 161t8.5 146.5q0 109 -35 169.5t-107 60.5q-64 0 -112.5 -41.5t-82.5 -110t-55 -150t-31 -162.5t-10 -147q0 -113 40 -168t117 -55zM949 1137l-32 128q86 31 128.5 77.5t42.5 119.5q0 55 -24 103t-80 100l267 208q145 -142 145 -327q0 -162 -119.5 -269t-327.5 -140z
M433 -609q-90 0 -153 61.5t-63 152.5q0 89 62.5 151.5t153.5 62.5q92 0 154 -62.5t62 -151.5q0 -91 -62 -152.5t-154 -61.5z" />
    <glyph glyph-name="uni1EE3" unicode="&#x1ee3;" 
d="M532 -35q-137 0 -246 59.5t-171.5 171t-62.5 265.5q0 131 40.5 245t116 200t182 134.5t238.5 48.5q144 0 249 -65t162.5 -177.5t57.5 -253.5q0 -136 -38.5 -250.5t-112 -199t-178 -131.5t-237.5 -47zM546 263q59 0 100 30.5t66 80.5t36.5 107.5t11.5 111.5
q0 91 -36 144.5t-109 53.5q-59 0 -101.5 -30.5t-70 -80.5t-40.5 -107.5t-13 -111.5q0 -91 41 -144.5t115 -53.5zM902 740l-59 129q195 48 195 192q0 92 -110 186l236 219q168 -139 168 -321q0 -149 -109.5 -252t-320.5 -153zM428 -609q-90 0 -153 61.5t-63 152.5
q0 89 62.5 151.5t153.5 62.5q92 0 154 -62.5t62 -151.5q0 -91 -62 -152.5t-154 -61.5z" />
    <glyph glyph-name="uni1EE4" unicode="&#x1ee4;" 
d="M556 -35q-141 0 -248.5 55t-167.5 153t-60 228q0 39 4 78.5t13 88.5l153 864h348l-161 -913q-5 -29 -7 -46t-2 -34q0 -64 39.5 -102t106.5 -38q73 0 119 48t62 139l167 946h348l-178 -1006q-39 -220 -178.5 -340.5t-357.5 -120.5zM469 -609q-90 0 -153 61.5t-63 152.5
q0 89 62.5 151.5t153.5 62.5q92 0 154 -62.5t62 -151.5q0 -91 -62 -152.5t-154 -61.5z" />
    <glyph glyph-name="uni1EE5" unicode="&#x1ee5;" 
d="M396 -35q-133 0 -215 86t-82 225q0 35 3 68t10 70l96 543l103 -155h-255l45 252h460l-104 -588q-9 -50 -13 -83t-4 -56q0 -37 20 -58.5t55 -21.5q61 0 109.5 93t79.5 268l79 446h346l-101 -570q-7 -41 -10 -64.5t-3 -40.5q0 -79 93 -79h36l-52 -295q-63 -25 -125 -25
q-103 0 -160.5 62t-57.5 174q0 29 5 59t18 74l49 -113l-82 10q-63 -147 -144.5 -214t-198.5 -67zM497 -609q-90 0 -153 61.5t-63 152.5q0 89 62.5 151.5t153.5 62.5q92 0 154 -62.5t62 -151.5q0 -91 -62 -152.5t-154 -61.5z" />
    <glyph glyph-name="uni1EE6" unicode="&#x1ee6;" 
d="M556 -35q-141 0 -248.5 55t-167.5 153t-60 228q0 39 4 78.5t13 88.5l153 864h348l-161 -913q-5 -29 -7 -46t-2 -34q0 -64 39.5 -102t106.5 -38q73 0 119 48t62 139l167 946h348l-178 -1006q-39 -220 -178.5 -340.5t-357.5 -120.5zM734 1547l6 218q204 0 204 91
q0 38 -32.5 55.5t-107.5 17.5q-86 0 -181 -19l-24 221q56 17 118.5 25.5t124.5 8.5q155 0 243.5 -78.5t88.5 -208.5q0 -154 -114 -239.5t-326 -91.5z" />
    <glyph glyph-name="uni1EE7" unicode="&#x1ee7;" 
d="M396 -35q-133 0 -215 86t-82 225q0 35 3 68t10 70l96 543l103 -155h-255l45 252h460l-104 -588q-9 -50 -13 -83t-4 -56q0 -37 20 -58.5t55 -21.5q61 0 109.5 93t79.5 268l79 446h346l-101 -570q-7 -41 -10 -64.5t-3 -40.5q0 -79 93 -79h36l-52 -295q-63 -25 -125 -25
q-103 0 -160.5 62t-57.5 174q0 29 5 59t18 74l49 -113l-82 10q-63 -147 -144.5 -214t-198.5 -67zM599 1169l6 218q204 0 204 91q0 38 -32.5 55.5t-107.5 17.5q-86 0 -181 -19l-24 221q56 17 118.5 25.5t124.5 8.5q155 0 243.5 -78.5t88.5 -208.5q0 -154 -114 -239.5
t-326 -91.5z" />
    <glyph glyph-name="uni1EE8" unicode="&#x1ee8;" 
d="M483 -35q-128 0 -226 51t-152.5 142t-54.5 211q0 37 4 73t12 82l160 908h334l-169 -958q-4 -23 -5.5 -40.5t-1.5 -33.5q0 -51 29.5 -81t78.5 -30q102 0 125 131l156 888q172 9 248.5 48t76.5 110q0 61 -61 118l252 210q109 -107 109 -250q0 -151 -121 -247t-348 -127
l142 85q0 -70 -5 -141.5t-18 -142.5l-107 -605q-34 -192 -154 -296.5t-304 -104.5zM519 1658l3 14l283 370h400l-3 -14l-375 -370h-308z" />
    <glyph glyph-name="uni1EE9" unicode="&#x1ee9;" 
d="M396 -35q-133 0 -215 86t-82 225q0 35 3 68t10 70l96 543l103 -155h-255l45 252h460l-104 -588q-9 -50 -13 -83t-4 -56q0 -37 20 -58.5t55 -21.5q61 0 109.5 93t79.5 268l65 368l106 21q86 17 123 43.5t37 70.5q0 28 -14.5 52.5t-50.5 55.5l241 219q122 -110 122 -243
q0 -91 -50.5 -160.5t-140 -108.5t-207.5 -39q-43 0 -75 7l265 141l-97 -551q-7 -41 -10 -64.5t-3 -40.5q0 -79 93 -79h36l-52 -295q-63 -25 -125 -25q-103 0 -160.5 62t-57.5 174q0 29 5 59t18 74l49 -113l-82 10q-63 -147 -144.5 -214t-198.5 -67zM438 1280l3 14l283 370
h400l-3 -14l-375 -370h-308z" />
    <glyph glyph-name="uni1EEA" unicode="&#x1eea;" 
d="M483 -35q-128 0 -226 51t-152.5 142t-54.5 211q0 37 4 73t12 82l160 908h334l-169 -958q-4 -23 -5.5 -40.5t-1.5 -33.5q0 -51 29.5 -81t78.5 -30q102 0 125 131l156 888q172 9 248.5 48t76.5 110q0 61 -61 118l252 210q109 -107 109 -250q0 -151 -121 -247t-348 -127
l142 85q0 -70 -5 -141.5t-18 -142.5l-107 -605q-34 -192 -154 -296.5t-304 -104.5zM603 1658l-245 370l3 14h380l153 -370l-3 -14h-288z" />
    <glyph glyph-name="uni1EEB" unicode="&#x1eeb;" 
d="M396 -35q-133 0 -215 86t-82 225q0 35 3 68t10 70l96 543l103 -155h-255l45 252h460l-104 -588q-9 -50 -13 -83t-4 -56q0 -37 20 -58.5t55 -21.5q61 0 109.5 93t79.5 268l65 368l106 21q86 17 123 43.5t37 70.5q0 28 -14.5 52.5t-50.5 55.5l241 219q122 -110 122 -243
q0 -91 -50.5 -160.5t-140 -108.5t-207.5 -39q-43 0 -75 7l265 141l-97 -551q-7 -41 -10 -64.5t-3 -40.5q0 -79 93 -79h36l-52 -295q-63 -25 -125 -25q-103 0 -160.5 62t-57.5 174q0 29 5 59t18 74l49 -113l-82 10q-63 -147 -144.5 -214t-198.5 -67zM574 1280l-245 370l3 14
h380l153 -370l-3 -14h-288z" />
    <glyph glyph-name="uni1EEC" unicode="&#x1eec;" 
d="M483 -35q-128 0 -226 51t-152.5 142t-54.5 211q0 37 4 73t12 82l160 908h334l-169 -958q-4 -23 -5.5 -40.5t-1.5 -33.5q0 -51 29.5 -81t78.5 -30q102 0 125 131l156 888q172 9 248.5 48t76.5 110q0 61 -61 118l252 210q109 -107 109 -250q0 -151 -121 -247t-348 -127
l142 85q0 -70 -5 -141.5t-18 -142.5l-107 -605q-34 -192 -154 -296.5t-304 -104.5zM599 1567l6 218q204 0 204 91q0 38 -32.5 55.5t-107.5 17.5q-86 0 -181 -19l-24 221q56 17 118.5 25.5t124.5 8.5q155 0 243.5 -78.5t88.5 -208.5q0 -154 -114 -239.5t-326 -91.5z" />
    <glyph glyph-name="uni1EED" unicode="&#x1eed;" 
d="M396 -35q-133 0 -215 86t-82 225q0 35 3 68t10 70l96 543l103 -155h-255l45 252h460l-104 -588q-9 -50 -13 -83t-4 -56q0 -37 20 -58.5t55 -21.5q61 0 109.5 93t79.5 268l65 368l106 21q86 17 123 43.5t37 70.5q0 28 -14.5 52.5t-50.5 55.5l241 219q122 -110 122 -243
q0 -91 -50.5 -160.5t-140 -108.5t-207.5 -39q-43 0 -75 7l265 141l-97 -551q-7 -41 -10 -64.5t-3 -40.5q0 -79 93 -79h36l-52 -295q-63 -25 -125 -25q-103 0 -160.5 62t-57.5 174q0 29 5 59t18 74l49 -113l-82 10q-63 -147 -144.5 -214t-198.5 -67zM527 1189l6 218
q204 0 204 91q0 38 -32.5 55.5t-107.5 17.5q-86 0 -181 -19l-24 221q56 17 118.5 25.5t124.5 8.5q155 0 243.5 -78.5t88.5 -208.5q0 -154 -114 -239.5t-326 -91.5z" />
    <glyph glyph-name="uni1EEE" unicode="&#x1eee;" 
d="M483 -35q-128 0 -226 51t-152.5 142t-54.5 211q0 37 4 73t12 82l160 908h334l-169 -958q-4 -23 -5.5 -40.5t-1.5 -33.5q0 -51 29.5 -81t78.5 -30q102 0 125 131l156 888q172 9 248.5 48t76.5 110q0 61 -61 118l252 210q109 -107 109 -250q0 -151 -121 -247t-348 -127
l142 85q0 -70 -5 -141.5t-18 -142.5l-107 -605q-34 -192 -154 -296.5t-304 -104.5zM887 1675q-55 0 -98 20.5t-87 60.5q-40 38 -60.5 52t-43.5 14t-33.5 -16t-16.5 -48l-16 -80h-238l16 89q26 145 95 221.5t177 76.5q56 0 99 -20t86 -61q40 -37 60.5 -51.5t43.5 -14.5
t34 16.5t16 47.5l14 80h240l-16 -89q-25 -145 -94.5 -221.5t-177.5 -76.5z" />
    <glyph glyph-name="uni1EEF" unicode="&#x1eef;" 
d="M396 -35q-133 0 -215 86t-82 225q0 35 3 68t10 70l96 543l103 -155h-255l45 252h460l-104 -588q-9 -50 -13 -83t-4 -56q0 -37 20 -58.5t55 -21.5q61 0 109.5 93t79.5 268l65 368l106 21q86 17 123 43.5t37 70.5q0 28 -14.5 52.5t-50.5 55.5l241 219q122 -110 122 -243
q0 -91 -50.5 -160.5t-140 -108.5t-207.5 -39q-43 0 -75 7l265 141l-97 -551q-7 -41 -10 -64.5t-3 -40.5q0 -79 93 -79h36l-52 -295q-63 -25 -125 -25q-103 0 -160.5 62t-57.5 174q0 29 5 59t18 74l49 -113l-82 10q-63 -147 -144.5 -214t-198.5 -67zM818 1287q-55 0 -98 20.5
t-87 60.5q-40 38 -60.5 52t-43.5 14t-33.5 -16t-16.5 -48l-16 -80h-238l16 89q26 145 95 221.5t177 76.5q56 0 99 -20t86 -61q40 -37 60.5 -51.5t43.5 -14.5t34 16.5t16 47.5l14 80h240l-16 -89q-25 -145 -94.5 -221.5t-177.5 -76.5z" />
    <glyph glyph-name="uni1EF0" unicode="&#x1ef0;" 
d="M483 -35q-131 0 -231.5 53t-157 147t-56.5 216q0 39 3.5 79t12.5 89l156 883h330l-164 -933q-4 -26 -5 -41.5t-1 -30.5q0 -63 37 -100.5t98 -37.5q68 0 110.5 44.5t58.5 132.5l170 966h106q79 0 122 31.5t43 89.5q0 32 -14.5 66t-49.5 77l274 177q99 -121 99 -264
q0 -103 -50.5 -175.5t-137 -111t-195.5 -38.5q-16 0 -31.5 2t-31.5 5l189 123l-178 -1008q-37 -214 -168.5 -327.5t-337.5 -113.5zM371 -609q-90 0 -153 61.5t-63 152.5q0 89 62.5 151.5t153.5 62.5q92 0 154 -62.5t62 -151.5q0 -91 -62 -152.5t-154 -61.5z" />
    <glyph glyph-name="uni1EF1" unicode="&#x1ef1;" 
d="M396 -35q-133 0 -215 86t-82 225q0 35 3 68t10 70l96 543l103 -155h-255l45 252h460l-104 -588q-9 -50 -13 -83t-4 -56q0 -37 20 -58.5t55 -21.5q61 0 109.5 93t79.5 268l79 446h83q74 0 116.5 27.5t42.5 79.5q0 59 -61 128l272 163q48 -53 70.5 -111t22.5 -120
q0 -92 -49.5 -159.5t-131.5 -104.5t-181 -37q-39 0 -75 7l229 82l-93 -525q-7 -41 -10 -64.5t-3 -40.5q0 -79 93 -79h36l-52 -295q-63 -25 -125 -25q-103 0 -160.5 62t-57.5 174q0 29 5 59t18 74l49 -113l-82 10q-63 -147 -144.5 -214t-198.5 -67zM507 -609q-90 0 -153 61.5
t-63 152.5q0 89 62.5 151.5t153.5 62.5q92 0 154 -62.5t62 -151.5q0 -91 -62 -152.5t-154 -61.5z" />
    <glyph glyph-name="Ygrave" unicode="&#x1ef2;" 
d="M443 409l-271 1023h356l68 -319l45 -288h9l134 288l176 319h388l-631 -1023h-274zM334 0l122 692h348l-122 -692h-348zM611 1638l-245 370l3 14h380l153 -370l-3 -14h-288z" />
    <glyph glyph-name="ygrave" unicode="&#x1ef3;" 
d="M188 -451q-179 0 -299 109l162 253q35 -31 68.5 -47.5t76.5 -16.5q45 0 73.5 22.5t55.5 71.5l153 276h92l139 412l196 425h374l-650 -1179q-93 -169 -195 -247.5t-246 -78.5zM405 -114l-238 1168h346l59 -425l22 -297h118zM582 1260l-245 370l3 14h380l153 -370l-3 -14
h-288z" />
    <glyph glyph-name="uni1EF4" unicode="&#x1ef4;" 
d="M443 409l-271 1023h356l68 -319l45 -288h9l134 288l176 319h388l-631 -1023h-274zM334 0l122 692h348l-122 -692h-348zM455 -574q-90 0 -153 61.5t-63 152.5q0 89 62.5 151.5t153.5 62.5q92 0 154 -62.5t62 -151.5q0 -91 -62 -152.5t-154 -61.5z" />
    <glyph glyph-name="uni1EF5" unicode="&#x1ef5;" 
d="M188 -451q-179 0 -299 109l162 253q35 -31 68.5 -47.5t76.5 -16.5q45 0 73.5 22.5t55.5 71.5l153 276h92l139 412l196 425h374l-650 -1179q-93 -169 -195 -247.5t-246 -78.5zM405 -114l-238 1168h346l59 -425l22 -297h118zM799 -574q-90 0 -153 61.5t-63 152.5
q0 89 62.5 151.5t153.5 62.5q92 0 154 -62.5t62 -151.5q0 -91 -62 -152.5t-154 -61.5z" />
    <glyph glyph-name="uni1EF6" unicode="&#x1ef6;" 
d="M443 409l-271 1023h356l68 -319l45 -288h9l134 288l176 319h388l-631 -1023h-274zM334 0l122 692h348l-122 -692h-348zM663 1547l6 218q204 0 204 91q0 38 -32.5 55.5t-107.5 17.5q-86 0 -181 -19l-24 221q56 17 118.5 25.5t124.5 8.5q155 0 243.5 -78.5t88.5 -208.5
q0 -154 -114 -239.5t-326 -91.5z" />
    <glyph glyph-name="uni1EF7" unicode="&#x1ef7;" 
d="M188 -451q-179 0 -299 109l162 253q35 -31 68.5 -47.5t76.5 -16.5q45 0 73.5 22.5t55.5 71.5l153 276h92l139 412l196 425h374l-650 -1179q-93 -169 -195 -247.5t-246 -78.5zM405 -114l-238 1168h346l59 -425l22 -297h118zM628 1169l6 218q204 0 204 91q0 38 -32.5 55.5
t-107.5 17.5q-86 0 -181 -19l-24 221q56 17 118.5 25.5t124.5 8.5q155 0 243.5 -78.5t88.5 -208.5q0 -154 -114 -239.5t-326 -91.5z" />
    <glyph glyph-name="uni1EF8" unicode="&#x1ef8;" 
d="M443 409l-271 1023h356l68 -319l45 -288h9l134 288l176 319h388l-631 -1023h-274zM334 0l122 692h348l-122 -692h-348zM936 1635q-55 0 -98 20.5t-87 60.5q-40 38 -60.5 52t-43.5 14t-33.5 -16t-16.5 -48l-16 -80h-238l16 89q26 145 95 221.5t177 76.5q56 0 99 -20
t86 -61q40 -37 60.5 -51.5t43.5 -14.5t34 16.5t16 47.5l14 80h240l-16 -89q-25 -145 -94.5 -221.5t-177.5 -76.5z" />
    <glyph glyph-name="uni1EF9" unicode="&#x1ef9;" 
d="M188 -451q-179 0 -299 109l162 253q35 -31 68.5 -47.5t76.5 -16.5q45 0 73.5 22.5t55.5 71.5l153 276h92l139 412l196 425h374l-650 -1179q-93 -169 -195 -247.5t-246 -78.5zM405 -114l-238 1168h346l59 -425l22 -297h118zM907 1257q-55 0 -98 20.5t-87 60.5
q-40 38 -60.5 52t-43.5 14t-33.5 -16t-16.5 -48l-16 -80h-238l16 89q26 145 95 221.5t177 76.5q56 0 99 -20t86 -61q40 -37 60.5 -51.5t43.5 -14.5t34 16.5t16 47.5l14 80h240l-16 -89q-25 -145 -94.5 -221.5t-177.5 -76.5z" />
    <glyph glyph-name="endash" unicode="&#x2013;" 
d="M49 475l60 340h1084l-60 -340h-1084z" />
    <glyph glyph-name="emdash" unicode="&#x2014;" 
d="M33 475l60 340h1116l-60 -340h-1116z" />
    <glyph glyph-name="quoteleft" unicode="&#x2018;" 
d="M876 1492l121 -194q-102 -55 -181 -119t-148 -156l8 73q91 -7 146 -59.5t55 -133.5q0 -91 -60 -150t-154 -59q-97 0 -158.5 65.5t-61.5 170.5q0 112 54.5 215t152.5 191t226 156z" />
    <glyph glyph-name="quoteright" unicode="&#x2019;" 
d="M524 694l-121 194q102 56 181 120t148 155l-8 -73q-91 7 -146 59.5t-55 133.5q0 92 60 150.5t154 58.5q98 0 159 -65.5t61 -170.5q0 -112 -54.5 -215t-152 -191t-226.5 -156z" />
    <glyph glyph-name="quotesinglbase" unicode="&#x201a;" 
d="M334 -384l-121 194q102 56 181 120t148 155l-8 -73q-91 7 -146 59.5t-55 133.5q0 92 60 150.5t154 58.5q98 0 159 -65.5t61 -170.5q0 -112 -54.5 -215t-152 -191t-226.5 -156z" />
    <glyph glyph-name="quotedblleft" unicode="&#x201c;" 
d="M579 1492l121 -194q-102 -55 -181 -119t-148 -156l8 73q91 -7 146 -59.5t55 -133.5q0 -91 -60 -150t-154 -59q-97 0 -158.5 65.5t-61.5 170.5q0 112 54.5 215t152.5 191t226 156zM1099 1492l121 -194q-102 -55 -181 -119t-148 -156l8 73q91 -7 146 -59.5t55 -133.5
q0 -91 -60 -150t-154 -59q-97 0 -158.5 65.5t-61.5 170.5q0 112 54.5 215t152.5 191t226 156z" />
    <glyph glyph-name="quotedblright" unicode="&#x201d;" 
d="M291 694l-121 194q102 56 181 120t148 155l-8 -73q-91 7 -146 59.5t-55 133.5q0 92 60 150.5t154 58.5q98 0 159 -65.5t61 -170.5q0 -112 -54.5 -215t-152 -191t-226.5 -156zM811 694l-121 194q102 56 181 120t148 155l-8 -73q-91 7 -146 59.5t-55 133.5q0 92 60 150.5
t154 58.5q98 0 159 -65.5t61 -170.5q0 -112 -54.5 -215t-152 -191t-226.5 -156z" />
    <glyph glyph-name="quotedblbase" unicode="&#x201e;" 
d="M101 -384l-121 194q102 56 181 120t148 155l-8 -73q-91 7 -146 59.5t-55 133.5q0 92 60 150.5t154 58.5q98 0 159 -65.5t61 -170.5q0 -112 -54.5 -215t-152 -191t-226.5 -156zM621 -384l-121 194q102 56 181 120t148 155l-8 -73q-91 7 -146 59.5t-55 133.5q0 92 60 150.5
t154 58.5q98 0 159 -65.5t61 -170.5q0 -112 -54.5 -215t-152 -191t-226.5 -156z" />
    <glyph glyph-name="bullet" unicode="&#x2022;" 
d="M585 367q-85 0 -153 39.5t-107.5 107.5t-39.5 153t39.5 153t107.5 107.5t153 39.5t153 -39.5t107.5 -107.5t39.5 -153t-39.5 -153t-107.5 -107.5t-153 -39.5z" />
    <glyph glyph-name="ellipsis" unicode="&#x2026;" 
d="M127 -35q-58 0 -97.5 44t-39.5 110q0 65 39 108.5t98 43.5t98 -43.5t39 -108.5q0 -66 -39 -110t-98 -44zM929 -35q-58 0 -97.5 44t-39.5 110q0 65 39 108.5t98 43.5t98 -43.5t39 -108.5q0 -66 -39 -110t-98 -44zM528 -35q-58 0 -97.5 44t-39.5 110q0 65 39 108.5t98 43.5
t98 -43.5t39 -108.5q0 -66 -39 -110t-98 -44z" />
    <glyph glyph-name="minute" unicode="&#x2032;" 
d="M330 837l210 623h385l-278 -623h-317z" />
    <glyph glyph-name="second" unicode="&#x2033;" 
d="M185 837l210 623h385l-278 -623h-317zM676 837l210 623h385l-278 -623h-317z" />
    <glyph glyph-name="guilsinglleft" unicode="&#x2039;" 
d="M718 2l-428 530l560 530l205 -208l-341 -328l236 -350z" />
    <glyph glyph-name="guilsinglright" unicode="&#x203a;" 
d="M484 1062l428 -530l-560 -530l-205 208l341 328l-236 350z" />
    <glyph glyph-name="fraction" unicode="&#x2044;" 
d="M-7 -35l1096 1495h184l-1096 -1495h-184z" />
    <glyph glyph-name="uni2074" unicode="&#x2074;" 
d="M612 683l57 326l46 42l57 325l3 -15h-20l-234 -244v-14h288l76 28h264l-48 -270h-920l46 260l584 594h283l-182 -1032h-300z" />
    <glyph glyph-name="dong" unicode="&#x20ab;" 
d="M405 214q-105 0 -189 50t-133 139.5t-49 205.5q0 85 29 168.5t85.5 152t137.5 110t184 41.5q114 0 188.5 -47t117.5 -142h10l117 663h302l-237 -1341h-293l27 154h-11q-48 -76 -119.5 -115t-166.5 -39zM-88 -200l51 290h1063l-51 -290h-1063zM532 454q62 0 108 30.5
t71.5 80t25.5 105.5q0 77 -48 124t-128 47q-70 0 -116 -31.5t-68.5 -80.5t-22.5 -100q0 -78 51 -126.5t127 -48.5zM453 1190l37 205h844l-37 -205h-844z" />
    <glyph glyph-name="Euro" unicode="&#x20ac;" 
d="M671 -35q-154 0 -267 67.5t-174 183t-61 257.5q0 26 3.5 59.5t10.5 73.5l56 315q28 155 103.5 278.5t195.5 195.5t279 72q320 0 449 -292l-248 -131q-64 143 -215 143q-79 0 -136 -36.5t-92.5 -102t-51.5 -152.5l-56 -315q-5 -30 -7.5 -55t-2.5 -48q0 -106 58.5 -169.5
t153.5 -63.5q71 0 122 31t94 101l228 -162q-78 -126 -188.5 -188t-253.5 -62zM-10 453l35 200h900l-35 -200h-900zM47 779l35 200h900l-35 -200h-900z" />
    <glyph glyph-name="trademark" unicode="&#x2122;" 
d="M669 606v852h148l114 -325l38 -150h10l38 150l114 325h148v-852h-140v310l24 263h-10l-120 -380h-118l-120 380h-10l24 -263v-310h-140zM274 606v816h162v-816h-162zM99 1320v138h512v-138h-512z" />
    <glyph glyph-name="arrowleft" unicode="&#x2190;" 
d="M603 24l-570 621l570 621l202 -191l-411 -408v-44l411 -408zM676 490l-428 56v198l428 56h458v-310h-458z" />
    <glyph glyph-name="arrowup" unicode="&#x2191;" 
d="M254 575l-190 200l580 532l580 -532l-190 -200l-368 371h-44zM483 -55v719l62 428h198l62 -428v-719h-322z" />
    <glyph glyph-name="arrowright" unicode="&#x2192;" 
d="M639 24l-202 191l411 408v44l-411 408l202 191l570 -621zM107 490v310h459l428 -56v-198l-428 -56h-459z" />
    <glyph glyph-name="arrowdown" unicode="&#x2193;" 
d="M591 -55l-580 532l190 200l368 -371h44l368 371l190 -200zM492 160l-62 428v719h322v-719l-62 -428h-198z" />
    <glyph glyph-name="arrowdblright" unicode="&#x21d2;" 
d="M592 -58l-162 157l441 442v208l-441 442l162 157l642 -703zM64 326v224h900v-108l-484 -116h-416zM64 740v224h416l484 -116v-108h-900z" />
    <glyph glyph-name="minus" unicode="&#x2212;" 
d="M107 485l56 320h972l-56 -320h-972z" />
    <glyph glyph-name="uni2215" unicode="&#x2215;" 
d="M-91 -35l1082 1495h366l-1082 -1495h-366z" />
    <glyph glyph-name="uni2237" unicode="&#x2237;" 
d="M952 778q-85 0 -141.5 57.5t-56.5 142.5q0 86 56.5 143t141.5 57t141.5 -57t56.5 -143q0 -85 -56.5 -142.5t-141.5 -57.5zM290 112q-85 0 -141.5 57.5t-56.5 142.5q0 86 56.5 143t141.5 57t141.5 -57t56.5 -143q0 -85 -56.5 -142.5t-141.5 -57.5zM692.5 169.5
q-56.5 57.5 -56.5 143t56.5 142.5t141.5 57t141.5 -57t56.5 -143q0 -85 -56.5 -142.5t-141.5 -57.5t-141.5 57.5zM266.5 835.5q-56.5 57.5 -56.5 142.5q0 86 56.5 143t141.5 57t141.5 -57t56.5 -143q0 -85 -56.5 -142.5t-141.5 -57.5t-141.5 57.5z" />
    <glyph glyph-name="lessequal" unicode="&#x2264;" 
d="M1070 327l-953 330l55 312l1070 330l-59 -336l-418 -106l-268 -48l-2 -8l250 -56l379 -113zM1 -1l51 286h1011l-51 -286h-1011z" />
    <glyph glyph-name="greaterequal" unicode="&#x2265;" 
d="M59 327l59 336l418 106l268 48l2 8l-250 56l-379 113l54 305l953 -330l-55 -312zM1 -1l51 286h1011l-51 -286h-1011z" />
    <glyph glyph-name="uni2318" unicode="&#x2318;" 
d="M315 122q-124 0 -201 74t-77 194q0 128 84 203t226 75h38v96h-38q-142 0 -226 75t-84 203q0 120 77 194t201 74q128 0 201 -81t73 -221v-46h88v46q0 140 76 221t209 81q119 0 193 -74t74 -194q0 -128 -83.5 -203t-226.5 -75h-38v-96h38q143 0 226.5 -75t83.5 -203
q0 -120 -74 -194t-194 -74q-132 0 -208 81t-76 221v46h-88v-46q0 -140 -73 -221t-201 -81zM315 326q41 0 60.5 26.5t19.5 83.5v44h-38q-58 0 -86 -20t-28 -61q0 -33 19.5 -53t52.5 -20zM357 952h38v44q0 57 -20 83.5t-64 26.5q-31 0 -49.5 -20t-18.5 -53q0 -40 28.5 -60.5
t85.5 -20.5zM585 664h96v104h-96v-104zM951 326q33 0 52.5 20t19.5 53q0 41 -27.5 61t-86.5 20h-38v-44q0 -57 19.5 -83.5t60.5 -26.5zM871 952h38q58 0 86 20.5t28 60.5q0 33 -18.5 53t-48.5 20q-43 0 -64 -26.5t-21 -83.5v-44z" />
    <glyph glyph-name="uni2325" unicode="&#x2325;" 
d="M727 138l-501 1156h312l501 -1156h-312zM51 994v300h450l40 -300h-490zM785 138l-60 300h490v-300h-430zM755 994v300h460v-300h-460z" />
    <glyph glyph-name="uni2500" unicode="&#x2500;" 
d="M-170 474v340h1540v-340h-1540z" />
    <glyph glyph-name="uni2501" unicode="&#x2501;" 
d="M-170 338v612h1540v-612h-1540z" />
    <glyph glyph-name="uni2502" unicode="&#x2502;" 
d="M430 -656v2600h340v-2600h-340z" />
    <glyph glyph-name="uni2503" unicode="&#x2503;" 
d="M294 -656v2600h612v-2600h-612z" />
    <glyph glyph-name="uni2504" unicode="&#x2504;" 
d="M867 474v340h266v-340h-266zM67 474v340h266v-340h-266zM467 474v340h266v-340h-266z" />
    <glyph glyph-name="uni2505" unicode="&#x2505;" 
d="M867 338v612h266v-612h-266zM67 338v612h266v-612h-266zM467 338v612h266v-612h-266z" />
    <glyph glyph-name="uni2506" unicode="&#x2506;" 
d="M430 366v556h340v-556h-340zM430 -467v555h340v-555h-340zM430 1200v555h340v-555h-340z" />
    <glyph glyph-name="uni2507" unicode="&#x2507;" 
d="M294 366v556h612v-556h-612zM294 -467v555h612v-555h-612zM294 1200v555h612v-555h-612z" />
    <glyph glyph-name="uni2508" unicode="&#x2508;" 
d="M938 474v340h225v-340h-225zM38 474v340h225v-340h-225zM338 474v340h225v-340h-225zM638 474v340h225v-340h-225z" />
    <glyph glyph-name="uni2509" unicode="&#x2509;" 
d="M938 338v612h225v-612h-225zM38 338v612h225v-612h-225zM338 338v612h225v-612h-225zM638 338v612h225v-612h-225z" />
    <glyph glyph-name="uni250A" unicode="&#x250a;" 
d="M430 1347v469h340v-469h-340zM430 -528v469h340v-469h-340zM430 97v469h340v-469h-340zM430 722v469h340v-469h-340z" />
    <glyph glyph-name="uni250B" unicode="&#x250b;" 
d="M294 1347v469h612v-469h-612zM294 -528v469h612v-469h-612zM294 97v469h612v-469h-612zM294 722v469h612v-469h-612z" />
    <glyph glyph-name="uni250C" unicode="&#x250c;" 
d="M430 -656v1470h940v-340h-600v-1130h-340z" />
    <glyph glyph-name="uni250D" unicode="&#x250d;" 
d="M430 -656v1606h940v-612h-600v-994h-340z" />
    <glyph glyph-name="uni250E" unicode="&#x250e;" 
d="M294 -656v1470h1076v-340h-464v-1130h-612z" />
    <glyph glyph-name="uni250F" unicode="&#x250f;" 
d="M294 -656v1606h1076v-612h-464v-994h-612z" />
    <glyph glyph-name="uni2510" unicode="&#x2510;" 
d="M430 -656v1130h-600v340h940v-1470h-340z" />
    <glyph glyph-name="uni2511" unicode="&#x2511;" 
d="M430 -656v994h-600v612h940v-1606h-340z" />
    <glyph glyph-name="uni2512" unicode="&#x2512;" 
d="M294 -656v1130h-464v340h1076v-1470h-612z" />
    <glyph glyph-name="uni2513" unicode="&#x2513;" 
d="M294 -656v994h-464v612h1076v-1606h-612z" />
    <glyph glyph-name="uni2514" unicode="&#x2514;" 
d="M430 474v1470h340v-1130h600v-340h-940z" />
    <glyph glyph-name="uni2515" unicode="&#x2515;" 
d="M430 338v1606h340v-994h600v-612h-940z" />
    <glyph glyph-name="uni2516" unicode="&#x2516;" 
d="M294 474v1470h612v-1130h464v-340h-1076z" />
    <glyph glyph-name="uni2517" unicode="&#x2517;" 
d="M294 338v1606h612v-994h464v-612h-1076z" />
    <glyph glyph-name="uni2518" unicode="&#x2518;" 
d="M-170 474v340h600v1130h340v-1470h-940z" />
    <glyph glyph-name="uni2519" unicode="&#x2519;" 
d="M-170 338v612h600v994h340v-1606h-940z" />
    <glyph glyph-name="uni251A" unicode="&#x251a;" 
d="M-170 474v340h464v1130h612v-1470h-1076z" />
    <glyph glyph-name="uni251B" unicode="&#x251b;" 
d="M-170 338v612h464v994h612v-1606h-1076z" />
    <glyph glyph-name="uni251C" unicode="&#x251c;" 
d="M430 -656v2600h340v-1130h600v-340h-600v-1130h-340z" />
    <glyph glyph-name="uni251D" unicode="&#x251d;" 
d="M430 -656v2600h340v-994h600v-612h-600v-994h-340z" />
    <glyph glyph-name="uni251E" unicode="&#x251e;" 
d="M430 -656v1130h-136v1470h612v-1130h464v-340h-600v-1130h-340z" />
    <glyph glyph-name="uni251F" unicode="&#x251f;" 
d="M294 -656v1470h136v1130h340v-1130h600v-340h-464v-1130h-612z" />
    <glyph glyph-name="uni2520" unicode="&#x2520;" 
d="M294 -656v2600h612v-1130h464v-340h-464v-1130h-612z" />
    <glyph glyph-name="uni2521" unicode="&#x2521;" 
d="M430 -656v994h-136v1606h612v-994h464v-612h-600v-994h-340z" />
    <glyph glyph-name="uni2522" unicode="&#x2522;" 
d="M294 -656v1606h136v994h340v-994h600v-612h-464v-994h-612z" />
    <glyph glyph-name="uni2523" unicode="&#x2523;" 
d="M294 -656v2600h612v-994h464v-612h-464v-994h-612z" />
    <glyph glyph-name="uni2524" unicode="&#x2524;" 
d="M430 -656v1130h-600v340h600v1130h340v-2600h-340z" />
    <glyph glyph-name="uni2525" unicode="&#x2525;" 
d="M430 -656v994h-600v612h600v994h340v-2600h-340z" />
    <glyph glyph-name="uni2526" unicode="&#x2526;" 
d="M430 -656v1130h-600v340h464v1130h612v-1470h-136v-1130h-340z" />
    <glyph glyph-name="uni2527" unicode="&#x2527;" 
d="M294 -656v1130h-464v340h600v1130h340v-1130h136v-1470h-612z" />
    <glyph glyph-name="uni2528" unicode="&#x2528;" 
d="M294 -656v1130h-464v340h464v1130h612v-2600h-612z" />
    <glyph glyph-name="uni2529" unicode="&#x2529;" 
d="M430 -656v994h-600v612h464v994h612v-1606h-136v-994h-340z" />
    <glyph glyph-name="uni252A" unicode="&#x252a;" 
d="M294 -656v994h-464v612h600v994h340v-994h136v-1606h-612z" />
    <glyph glyph-name="uni252B" unicode="&#x252b;" 
d="M294 -656v994h-464v612h464v994h612v-2600h-612z" />
    <glyph glyph-name="uni252C" unicode="&#x252c;" 
d="M430 -656v1130h-600v340h1540v-340h-600v-1130h-340z" />
    <glyph glyph-name="uni252D" unicode="&#x252d;" 
d="M430 -656v994h-600v612h940v-136h600v-340h-600v-1130h-340z" />
    <glyph glyph-name="uni252E" unicode="&#x252e;" 
d="M430 -656v1130h-600v340h600v136h940v-612h-600v-994h-340z" />
    <glyph glyph-name="uni252F" unicode="&#x252f;" 
d="M430 -656v994h-600v612h1540v-612h-600v-994h-340z" />
    <glyph glyph-name="uni2530" unicode="&#x2530;" 
d="M294 -656v1130h-464v340h1540v-340h-464v-1130h-612z" />
    <glyph glyph-name="uni2531" unicode="&#x2531;" 
d="M294 -656v994h-464v612h1076v-136h464v-340h-464v-1130h-612z" />
    <glyph glyph-name="uni2532" unicode="&#x2532;" 
d="M294 -656v1130h-464v340h464v136h1076v-612h-464v-994h-612z" />
    <glyph glyph-name="uni2533" unicode="&#x2533;" 
d="M294 -656v994h-464v612h1540v-612h-464v-994h-612z" />
    <glyph glyph-name="uni2534" unicode="&#x2534;" 
d="M-170 474v340h600v1130h340v-1130h600v-340h-1540z" />
    <glyph glyph-name="uni2535" unicode="&#x2535;" 
d="M-170 338v612h600v994h340v-1130h600v-340h-600v-136h-940z" />
    <glyph glyph-name="uni2536" unicode="&#x2536;" 
d="M430 338v136h-600v340h600v1130h340v-994h600v-612h-940z" />
    <glyph glyph-name="uni2537" unicode="&#x2537;" 
d="M-170 338v612h600v994h340v-994h600v-612h-1540z" />
    <glyph glyph-name="uni2538" unicode="&#x2538;" 
d="M-170 474v340h464v1130h612v-1130h464v-340h-1540z" />
    <glyph glyph-name="uni2539" unicode="&#x2539;" 
d="M-170 338v612h464v994h612v-1130h464v-340h-464v-136h-1076z" />
    <glyph glyph-name="uni253A" unicode="&#x253a;" 
d="M294 338v136h-464v340h464v1130h612v-994h464v-612h-1076z" />
    <glyph glyph-name="uni253B" unicode="&#x253b;" 
d="M-170 338v612h464v994h612v-994h464v-612h-1540z" />
    <glyph glyph-name="uni253C" unicode="&#x253c;" 
d="M430 -656v1130h-600v340h600v1130h340v-1130h600v-340h-600v-1130h-340z" />
    <glyph glyph-name="uni253D" unicode="&#x253d;" 
d="M430 -656v994h-600v612h600v994h340v-1130h600v-340h-600v-1130h-340z" />
    <glyph glyph-name="uni253E" unicode="&#x253e;" 
d="M430 -656v1130h-600v340h600v1130h340v-994h600v-612h-600v-994h-340z" />
    <glyph glyph-name="uni253F" unicode="&#x253f;" 
d="M430 -656v994h-600v612h600v994h340v-994h600v-612h-600v-994h-340z" />
    <glyph glyph-name="uni2540" unicode="&#x2540;" 
d="M430 -656v1130h-600v340h464v1130h612v-1130h464v-340h-600v-1130h-340z" />
    <glyph glyph-name="uni2541" unicode="&#x2541;" 
d="M294 -656v1130h-464v340h600v1130h340v-1130h600v-340h-464v-1130h-612z" />
    <glyph glyph-name="uni2542" unicode="&#x2542;" 
d="M294 -656v1130h-464v340h464v1130h612v-1130h464v-340h-464v-1130h-612z" />
    <glyph glyph-name="uni2543" unicode="&#x2543;" 
d="M430 -656v994h-600v612h464v994h612v-1130h464v-340h-464v-136h-136v-994h-340z" />
    <glyph glyph-name="uni2544" unicode="&#x2544;" 
d="M430 -656v994h-136v136h-464v340h464v1130h612v-994h464v-612h-600v-994h-340z" />
    <glyph glyph-name="uni2545" unicode="&#x2545;" 
d="M294 -656v994h-464v612h600v994h340v-994h136v-136h464v-340h-464v-1130h-612z" />
    <glyph glyph-name="uni2546" unicode="&#x2546;" 
d="M294 -656v1130h-464v340h464v136h136v994h340v-994h600v-612h-464v-994h-612z" />
    <glyph glyph-name="uni2547" unicode="&#x2547;" 
d="M430 -656v994h-600v612h464v994h612v-994h464v-612h-600v-994h-340z" />
    <glyph glyph-name="uni2548" unicode="&#x2548;" 
d="M294 -656v994h-464v612h600v994h340v-994h600v-612h-464v-994h-612z" />
    <glyph glyph-name="uni2549" unicode="&#x2549;" 
d="M294 -656v994h-464v612h464v994h612v-1130h464v-340h-464v-1130h-612z" />
    <glyph glyph-name="uni254A" unicode="&#x254a;" 
d="M294 -656v1130h-464v340h464v1130h612v-994h464v-612h-464v-994h-612z" />
    <glyph glyph-name="uni254B" unicode="&#x254b;" 
d="M294 -656v994h-464v612h464v994h612v-994h464v-612h-464v-994h-612z" />
    <glyph glyph-name="uni254C" unicode="&#x254c;" 
d="M750 474v340h300v-340h-300zM150 474v340h300v-340h-300z" />
    <glyph glyph-name="uni254D" unicode="&#x254d;" 
d="M750 338v612h300v-612h-300zM150 338v612h300v-612h-300z" />
    <glyph glyph-name="uni254E" unicode="&#x254e;" 
d="M430 957v625h340v-625h-340zM430 -293v625h340v-625h-340z" />
    <glyph glyph-name="uni254F" unicode="&#x254f;" 
d="M294 957v625h612v-625h-612zM294 -293v625h612v-625h-612z" />
    <glyph glyph-name="uni2550" unicode="&#x2550;" 
d="M-170 814v340h1540v-340h-1540zM-170 134v340h1540v-340h-1540z" />
    <glyph glyph-name="uni2551" unicode="&#x2551;" 
d="M770 -656v2600h340v-2600h-340zM90 -656v2600h340v-2600h-340z" />
    <glyph glyph-name="uni2552" unicode="&#x2552;" 
d="M430 -656v1810h940v-340h-600v-340h600v-340h-600v-790h-340z" />
    <glyph glyph-name="uni2553" unicode="&#x2553;" 
d="M90 -656v1470h1280v-340h-260v-1130h-340v1130h-340v-1130h-340z" />
    <glyph glyph-name="uni2554" unicode="&#x2554;" 
d="M90 -656v1810h1280v-340h-940v-1470h-340zM770 -656v1130h600v-340h-260v-790h-340z" />
    <glyph glyph-name="uni2555" unicode="&#x2555;" 
d="M430 -656v790h-600v340h600v340h-600v340h940v-1810h-340z" />
    <glyph glyph-name="uni2556" unicode="&#x2556;" 
d="M90 -656v1130h-260v340h1280v-1470h-340v1130h-340v-1130h-340z" />
    <glyph glyph-name="uni2557" unicode="&#x2557;" 
d="M770 -656v1470h-940v340h1280v-1810h-340zM90 -656v790h-260v340h600v-1130h-340z" />
    <glyph glyph-name="uni2558" unicode="&#x2558;" 
d="M430 134v1810h340v-790h600v-340h-600v-340h600v-340h-940z" />
    <glyph glyph-name="uni2559" unicode="&#x2559;" 
d="M90 474v1470h340v-1130h340v1130h340v-1130h260v-340h-1280z" />
    <glyph glyph-name="uni255A" unicode="&#x255a;" 
d="M90 134v1810h340v-1470h940v-340h-1280zM770 814v1130h340v-790h260v-340h-600z" />
    <glyph glyph-name="uni255B" unicode="&#x255b;" 
d="M-170 134v340h600v340h-600v340h600v790h340v-1810h-940z" />
    <glyph glyph-name="uni255C" unicode="&#x255c;" 
d="M-170 474v340h260v1130h340v-1130h340v1130h340v-1470h-1280z" />
    <glyph glyph-name="uni255D" unicode="&#x255d;" 
d="M-170 134v340h940v1470h340v-1810h-1280zM-170 814v340h260v790h340v-1130h-600z" />
    <glyph glyph-name="uni255E" unicode="&#x255e;" 
d="M430 -656v2600h340v-790h600v-340h-600v-340h600v-340h-600v-790h-340z" />
    <glyph glyph-name="uni255F" unicode="&#x255f;" 
d="M770 -656v2600h340v-1130h260v-340h-260v-1130h-340zM90 -656v2600h340v-2600h-340z" />
    <glyph glyph-name="uni2560" unicode="&#x2560;" 
d="M770 814v1130h340v-790h260v-340h-600zM770 -656v1130h600v-340h-260v-790h-340zM90 -656v2600h340v-2600h-340z" />
    <glyph glyph-name="uni2561" unicode="&#x2561;" 
d="M430 -656v790h-600v340h600v340h-600v340h600v790h340v-2600h-340z" />
    <glyph glyph-name="uni2562" unicode="&#x2562;" 
d="M90 -656v1130h-260v340h260v1130h340v-2600h-340zM770 -656v2600h340v-2600h-340z" />
    <glyph glyph-name="uni2563" unicode="&#x2563;" 
d="M-170 814v340h260v790h340v-1130h-600zM90 -656v790h-260v340h600v-1130h-340zM770 -656v2600h340v-2600h-340z" />
    <glyph glyph-name="uni2564" unicode="&#x2564;" 
d="M430 -656v790h-600v340h1540v-340h-600v-790h-340zM-170 814v340h1540v-340h-1540z" />
    <glyph glyph-name="uni2565" unicode="&#x2565;" 
d="M90 -656v1130h-260v340h1540v-340h-260v-1130h-340v1130h-340v-1130h-340z" />
    <glyph glyph-name="uni2566" unicode="&#x2566;" 
d="M770 -656v1130h600v-340h-260v-790h-340zM90 -656v790h-260v340h600v-1130h-340zM-170 814v340h1540v-340h-1540z" />
    <glyph glyph-name="uni2567" unicode="&#x2567;" 
d="M-170 814v340h600v790h340v-790h600v-340h-1540zM-170 134v340h1540v-340h-1540z" />
    </font>
</defs>
</svg>
