<?xml version="1.0" standalone="no"?>
<!DOCTYPE svg PUBLIC "-//W3C//DTD SVG 1.1//EN" "http://www.w3.org/Graphics/SVG/1.1/DTD/svg11.dtd" >
<svg xmlns="http://www.w3.org/2000/svg" xmlns:xlink="http://www.w3.org/1999/xlink" version="1.1">
<metadata>
Created by FontForge 20201107 at Fri Nov 14 04:01:44 2025
 By 
Copyright 2025 CoType Foundry. All Rights Reserved.
</metadata>
<defs>
<font id="AeonikExtendedProTRIAL-LightItalic" horiz-adv-x="1771" >
  <font-face 
    font-family="Aeonik Extended Pro TRIAL Light"
    font-weight="300"
    font-style="italic"
    font-stretch="expanded"
    units-per-em="2048"
    panose-1="2 11 4 3 3 3 0 0 0 0"
    ascent="1638"
    descent="-410"
    x-height="1038"
    cap-height="1434"
    bbox="-348 -422 2423 1835"
    underline-thickness="77"
    underline-position="-212"
    slope="-10"
    unicode-range="U+0020-04EF"
  />
<missing-glyph horiz-adv-x="1232" 
d="M123 -223v1698h1024v-1698h-1024zM322 -18h94v112h57q62 0 99.5 34t37.5 91q0 58 -37.5 92.5t-99.5 34.5h-151v-364zM416 172v96h49q22 0 35.5 -13t13.5 -36q0 -22 -13.5 -34.5t-35.5 -12.5h-49zM692 -18h256v81h-160v64h123v76h-123v61h154v82h-250v-364zM391 455h96
v282h103v82h-299v-82h100v-282zM758 455h96v135l131 229h-106l-72 -133l-68 133h-112l131 -229v-135zM444 926q66 0 106.5 38t45.5 99h-94q-13 -59 -62 -59q-71 0 -71 106q0 107 71 107q48 0 62 -62h94q-5 63 -45.5 101t-106.5 38q-84 0 -129 -49t-45 -135t45 -135t129 -49z
M807 926q81 0 129.5 51.5t48.5 132.5q0 80 -49 132t-129 52q-81 0 -129.5 -52t-48.5 -132q0 -81 48 -132.5t130 -51.5zM807 1004q-39 0 -59.5 29.5t-20.5 76.5q0 48 21 77.5t59 29.5t59 -29.5t21 -77.5q0 -47 -20.5 -76.5t-59.5 -29.5z" />
    <glyph glyph-name=".notdef" horiz-adv-x="1232" 
d="M123 -223v1698h1024v-1698h-1024zM322 -18h94v112h57q62 0 99.5 34t37.5 91q0 58 -37.5 92.5t-99.5 34.5h-151v-364zM416 172v96h49q22 0 35.5 -13t13.5 -36q0 -22 -13.5 -34.5t-35.5 -12.5h-49zM692 -18h256v81h-160v64h123v76h-123v61h154v82h-250v-364zM391 455h96
v282h103v82h-299v-82h100v-282zM758 455h96v135l131 229h-106l-72 -133l-68 133h-112l131 -229v-135zM444 926q66 0 106.5 38t45.5 99h-94q-13 -59 -62 -59q-71 0 -71 106q0 107 71 107q48 0 62 -62h94q-5 63 -45.5 101t-106.5 38q-84 0 -129 -49t-45 -135t45 -135t129 -49z
M807 926q81 0 129.5 51.5t48.5 132.5q0 80 -49 132t-129 52q-81 0 -129.5 -52t-48.5 -132q0 -81 48 -132.5t130 -51.5zM807 1004q-39 0 -59.5 29.5t-20.5 76.5q0 48 21 77.5t59 29.5t59 -29.5t21 -77.5q0 -47 -20.5 -76.5t-59.5 -29.5z" />
    <glyph glyph-name=".null" horiz-adv-x="0" 
 />
    <glyph glyph-name="nonmarkingreturn" horiz-adv-x="682" 
 />
    <glyph glyph-name="space" unicode=" " horiz-adv-x="579" 
 />
    <glyph glyph-name="comma" unicode="," horiz-adv-x="380" 
d="M-74 -262l6 61q86 6 150.5 54.5t64.5 117.5q0 25 -16 47q-20 -28 -57 -28q-29 0 -48.5 17.5t-19.5 47.5q0 37 27.5 62.5t70.5 25.5q55 0 88 -39.5t33 -101.5q0 -110 -85 -184.5t-214 -79.5z" />
    <glyph glyph-name="hyphen" unicode="-" horiz-adv-x="1030" 
d="M121 532l18 93h787l-17 -93h-788z" />
    <glyph glyph-name="period" unicode="." horiz-adv-x="380" 
d="M100 -10q-31 0 -50 19t-19 48q0 35 26.5 60.5t63.5 25.5q32 0 50.5 -17.5t18.5 -47.5q0 -36 -26 -62t-64 -26z" />
    <glyph glyph-name="zero" unicode="0" horiz-adv-x="1417" 
d="M616 -12q-235 0 -368 144.5t-133 393.5q0 116 28 240t89.5 246t148 218t213.5 156t276 60q234 0 368 -145t134 -394q0 -96 -20.5 -198.5t-60.5 -206t-104.5 -195.5t-145.5 -163.5t-191 -113.5t-234 -42zM623 86q109 0 205 39.5t164 105.5t121.5 149.5t85.5 175
t48.5 177.5t16.5 162q0 214 -106 333.5t-296 119.5q-94 0 -178 -29.5t-147 -79.5t-116 -117t-89 -141.5t-61 -153t-36.5 -151t-11.5 -137.5q0 -214 105 -333.5t295 -119.5z" />
    <glyph glyph-name="one" unicode="1" horiz-adv-x="669" 
d="M319 0l191 1079q-38 -35 -115 -35h-297l17 97h297q54 0 88 28.5t43 81.5l32 183h105l-254 -1434h-107z" />
    <glyph glyph-name="two" unicode="2" horiz-adv-x="1247" 
d="M-47 0l16 92l797 506q195 125 286 235t91 234q0 132 -103.5 207.5t-287.5 75.5q-212 0 -340.5 -99.5t-163.5 -289.5h-107q89 485 619 485q230 0 361.5 -100t131.5 -267q0 -89 -30 -166t-92.5 -146.5t-139.5 -128.5t-188 -128l-662 -412h967l-18 -98h-1137z" />
    <glyph glyph-name="three" unicode="3" horiz-adv-x="1345" 
d="M623 -12q-260 0 -416 108t-156 307v15h107v-15q0 -151 129 -235t346 -84q224 0 356.5 89.5t132.5 242.5q0 129 -108.5 197.5t-302.5 68.5h-172l16 100h156q221 0 351 82.5t130 220.5q0 123 -111 194t-307 71q-205 0 -333 -80.5t-154 -227.5h-109q35 196 190.5 300
t413.5 104q235 0 378 -96t143 -254q0 -147 -104.5 -239.5t-295.5 -125.5q157 -25 242.5 -105.5t85.5 -203.5q0 -200 -164 -317t-444 -117z" />
    <glyph glyph-name="four" unicode="4" horiz-adv-x="1398" 
d="M877 0l65 377h-928l17 108l1059 949h147l-170 -959h299l-18 -98h-299l-66 -377h-106zM166 475h795l147 844z" />
    <glyph glyph-name="five" unicode="5" horiz-adv-x="1318" 
d="M616 -12q-242 0 -388.5 106.5t-149.5 296.5h106q4 -151 119 -229t318 -78q233 0 370 120t137 308q0 162 -114.5 252t-319.5 90q-161 0 -278.5 -61t-173.5 -172l-103 8l203 805h952l-18 -99h-854l-141 -549q150 164 434 164q232 0 378 -115.5t146 -312.5q0 -238 -169 -386
t-454 -148z" />
    <glyph glyph-name="six" unicode="6" horiz-adv-x="1359" 
d="M672 -12q-270 0 -411.5 134t-141.5 386q0 129 22 250q27 151 81.5 274.5t137.5 217t200.5 145t260.5 51.5q215 0 345.5 -96t150.5 -263h-109q-51 265 -397 265q-112 0 -203.5 -38.5t-152 -101t-105.5 -151.5t-69.5 -180t-38.5 -197q60 119 187.5 186.5t295.5 67.5
q250 0 392.5 -114.5t142.5 -315.5q0 -233 -162.5 -376.5t-425.5 -143.5zM674 82q217 0 348 114t131 302q0 163 -116.5 253.5t-325.5 90.5q-213 0 -344 -113t-131 -295q0 -164 115 -258t323 -94z" />
    <glyph glyph-name="seven" unicode="7" horiz-adv-x="1228" 
d="M176 0l1032 1335h-1048l18 99h1182l-10 -78l-1047 -1356h-127z" />
    <glyph glyph-name="eight" unicode="8" horiz-adv-x="1368" 
d="M618 -12q-259 0 -408 95.5t-149 260.5q0 159 122.5 267t332.5 134q-130 25 -205 105.5t-75 196.5q0 184 157 291.5t430 107.5q231 0 368.5 -93.5t137.5 -250.5q0 -142 -106.5 -241t-282.5 -124q151 -28 234 -112.5t83 -210.5q0 -194 -173 -310t-466 -116zM621 82
q247 0 386.5 89t139.5 243q0 126 -120.5 200t-324.5 74q-243 0 -386.5 -90t-143.5 -242q0 -125 120.5 -199.5t328.5 -74.5zM756 791q212 0 338.5 83.5t126.5 221.5q0 119 -109.5 187.5t-302.5 68.5q-214 0 -338.5 -82.5t-124.5 -222.5q0 -123 105.5 -189.5t304.5 -66.5z" />
    <glyph glyph-name="nine" unicode="9" horiz-adv-x="1359" 
d="M760 1446q270 0 411.5 -134t141.5 -386q0 -105 -23 -250q-28 -151 -83 -274.5t-137.5 -217t-200 -145t-259.5 -51.5q-216 0 -345.5 95t-149.5 263h106q54 -264 400 -264q112 0 203 38.5t151.5 101t105.5 151.5t70 180t39 197q-60 -119 -188 -186.5t-297 -67.5
q-249 0 -392 114.5t-143 315.5q0 233 163.5 376.5t426.5 143.5zM756 1352q-216 0 -348 -114.5t-132 -301.5q0 -163 117 -253.5t328 -90.5q212 0 343.5 112.5t131.5 294.5q0 164 -116 258.5t-324 94.5z" />
    <glyph glyph-name="A" unicode="A" horiz-adv-x="1521" 
d="M-59 0l921 1434h129l408 -1434h-115l-125 438h-811l-282 -438h-125zM412 541h721l-222 782z" />
    <glyph glyph-name="B" unicode="B" horiz-adv-x="1415" 
d="M49 0l254 1434h602q204 0 321 -91.5t117 -252.5q0 -145 -85 -239t-242 -122q140 -26 213.5 -104t73.5 -201q0 -198 -151 -311t-415 -113h-688zM178 100h578q204 0 319 85.5t115 236.5q0 124 -98 192t-277 68h-534zM299 782h543q181 0 286 80.5t105 218.5q0 121 -87 186.5
t-247 65.5h-502z" />
    <glyph glyph-name="C" unicode="C" horiz-adv-x="1636" 
d="M829 -12q-322 0 -513 179.5t-191 475.5q0 167 62 315.5t170.5 255.5t263.5 169.5t333 62.5q270 0 450 -121t212 -334h-111q-32 170 -179.5 261t-373.5 91q-155 0 -288.5 -53t-227.5 -146t-147 -222t-53 -277q0 -256 159 -405.5t436 -149.5q217 0 372 88.5t224 263.5h111
q-76 -217 -263.5 -335.5t-445.5 -118.5z" />
    <glyph glyph-name="D" unicode="D" horiz-adv-x="1593" 
d="M49 0l254 1434h506q330 0 528.5 -172t198.5 -459q0 -242 -104 -424t-296 -280.5t-448 -98.5h-639zM178 102h520q333 0 530 189t197 510q0 246 -168 388t-458 142h-404z" />
    <glyph glyph-name="E" unicode="E" horiz-adv-x="1267" 
d="M49 0l254 1434h1034l-18 -103h-924l-96 -547h774l-18 -102h-774l-103 -580h957l-19 -102h-1067z" />
    <glyph glyph-name="F" unicode="F" horiz-adv-x="1191" 
d="M49 0l254 1434h997l-18 -103h-887l-100 -567h737l-18 -102h-738l-116 -662h-111z" />
    <glyph glyph-name="G" unicode="G" horiz-adv-x="1728" 
d="M844 -12q-324 0 -521.5 177t-197.5 470q0 173 62 323.5t172 257.5t266 168.5t338 61.5q293 0 472.5 -119t217.5 -334h-111q-38 170 -190 260t-398 90q-208 0 -372 -91t-255 -251.5t-91 -361.5q0 -251 166.5 -400t445.5 -149q263 0 439 131.5t214 360.5l10 63h-573l18 103
h682l-133 -748h-94l45 305q-77 -144 -232 -230.5t-380 -86.5z" />
    <glyph glyph-name="H" unicode="H" horiz-adv-x="1513" 
d="M49 0l254 1434h111l-115 -652h1008l116 652h111l-254 -1434h-111l121 680h-1009l-121 -680h-111z" />
    <glyph glyph-name="I" unicode="I" horiz-adv-x="395" 
d="M49 0l254 1434h111l-254 -1434h-111z" />
    <glyph glyph-name="J" unicode="J" horiz-adv-x="761" 
d="M-47 0l18 102h265q104 0 161.5 55t79.5 175l193 1102h110l-194 -1119q-29 -160 -114.5 -237.5t-231.5 -77.5h-287z" />
    <glyph glyph-name="K" unicode="K" horiz-adv-x="1433" 
d="M49 0l254 1434h111l-158 -895l1110 895h160l-740 -596l537 -838h-133l-494 766l-467 -379l-69 -387h-111z" />
    <glyph glyph-name="L" unicode="L" horiz-adv-x="1132" 
d="M49 0l254 1434h111l-236 -1332h836l-19 -102h-946z" />
    <glyph glyph-name="M" unicode="M" horiz-adv-x="1929" 
d="M49 0l254 1434h131l463 -1301l918 1301h135l-254 -1434h-111l221 1247l-882 -1247h-99l-444 1247l-221 -1247h-111z" />
    <glyph glyph-name="N" unicode="N" horiz-adv-x="1542" 
d="M49 0l254 1434h105l821 -1270l223 1270h109l-254 -1434h-103l-821 1270l-225 -1270h-109z" />
    <glyph glyph-name="O" unicode="O" 
d="M848 -12q-159 0 -294 47.5t-229 133t-147 207.5t-53 267q0 169 66.5 318t181.5 255.5t276.5 168t343.5 61.5q159 0 294 -47.5t229 -133t147 -207.5t53 -267q0 -169 -66.5 -318t-181.5 -255.5t-276.5 -168t-343.5 -61.5zM850 90q160 0 300 53.5t240 145.5t158 221t58 276
q0 252 -168.5 404.5t-446.5 152.5q-160 0 -300 -53.5t-240 -145.5t-157.5 -222t-57.5 -277q0 -252 168 -403.5t446 -151.5z" />
    <glyph glyph-name="P" unicode="P" horiz-adv-x="1366" 
d="M49 0l254 1434h645q198 0 322.5 -108t124.5 -279q0 -204 -144 -326.5t-387 -122.5h-598l-106 -598h-111zM285 700h581q192 0 304 93.5t112 248.5q0 132 -93.5 210.5t-248.5 78.5h-545z" />
    <glyph glyph-name="Q" unicode="Q" 
d="M1573 0q-68 0 -113.5 12.5t-70 30.5t-58.5 55l-10 13q-213 -123 -473 -123q-159 0 -294 47.5t-229 133t-147 207.5t-53 267q0 169 66.5 318t181.5 255.5t276.5 168t343.5 61.5q159 0 294 -47.5t229 -133t147 -207.5t53 -267q0 -189 -81 -350.5t-226 -270.5
q39 -39 74 -53.5t108 -14.5h88l-18 -102h-88zM850 90q216 0 397 96l-119 125q-41 42 -75 59t-97 17h-116l18 102h123q81 0 122.5 -22.5t94.5 -77.5l139 -143q127 95 198 235t71 305q0 252 -168.5 404.5t-446.5 152.5q-160 0 -300 -53.5t-240 -145.5t-157.5 -222t-57.5 -277
q0 -252 168 -403.5t446 -151.5z" />
    <glyph glyph-name="R" unicode="R" horiz-adv-x="1388" 
d="M49 0l254 1434h637q205 0 330 -108t125 -286q0 -191 -128.5 -308t-359.5 -132l299 -600h-127l-295 598h-518l-106 -598h-111zM285 700h565q204 0 318 91t114 249q0 134 -95 212.5t-257 78.5h-535z" />
    <glyph glyph-name="S" unicode="S" horiz-adv-x="1411" 
d="M717 -12q-298 0 -468.5 119t-176.5 333h110q2 -164 144.5 -258t392.5 -94q216 0 337.5 78.5t121.5 218.5q0 106 -98.5 170t-348.5 119q-293 63 -409.5 146t-116.5 229q0 180 156.5 288.5t414.5 108.5q271 0 428.5 -107t169.5 -301h-110q-19 149 -146.5 228.5t-347.5 79.5
q-210 0 -332.5 -79t-122.5 -214q0 -105 95.5 -165.5t349.5 -115.5q282 -58 405 -146t123 -231q0 -189 -153.5 -298t-417.5 -109z" />
    <glyph glyph-name="T" unicode="T" horiz-adv-x="1396" 
d="M551 0l235 1331h-600l19 103h1308l-18 -103h-598l-235 -1331h-111z" />
    <glyph glyph-name="U" unicode="U" horiz-adv-x="1503" 
d="M700 -12q-277 0 -424 120.5t-147 346.5q0 52 14 141l150 838h110l-151 -850q-12 -82 -12 -123q0 -182 119 -276.5t343 -94.5q254 0 389.5 122.5t182.5 377.5l149 844h111l-150 -844q-54 -303 -216 -452.5t-468 -149.5z" />
    <glyph glyph-name="V" unicode="V" horiz-adv-x="1464" 
d="M575 0l-393 1434h115l360 -1315l824 1315h125l-901 -1434h-130z" />
    <glyph glyph-name="W" unicode="W" horiz-adv-x="2301" 
d="M473 0l-270 1434h112l242 -1301l696 1301h113l231 -1301l707 1301h119l-781 -1434h-133l-225 1274l-680 -1274h-131z" />
    <glyph glyph-name="X" unicode="X" horiz-adv-x="1429" 
d="M-51 0l741 737l-450 697h131l399 -615l610 615h142l-697 -703l475 -731h-133l-422 649l-655 -649h-141z" />
    <glyph glyph-name="Y" unicode="Y" horiz-adv-x="1470" 
d="M588 0l94 528l-500 906h125l443 -799l723 799h137l-817 -906l-95 -528h-110z" />
    <glyph glyph-name="Z" unicode="Z" horiz-adv-x="1409" 
d="M-37 0l12 82l1342 1249h-1084l19 103h1245l-12 -82l-1342 -1250h1139l-18 -102h-1301z" />
    <glyph glyph-name="a" unicode="a" horiz-adv-x="1273" 
d="M453 -12q-199 0 -306.5 73t-107.5 209q0 324 512 324h453l8 45q8 58 8 84q0 120 -83.5 177.5t-254.5 57.5q-341 0 -420 -210h-106q99 303 536 303q432 0 432 -318q0 -56 -10 -110l-72 -398q-12 -60 5.5 -94.5t87.5 -34.5h47l-17 -96h-71q-92 0 -129 49t-29 131
q-74 -92 -198.5 -142t-284.5 -50zM461 78q213 0 347 89t163 253l16 84h-455q-197 0 -291 -55.5t-94 -172.5q0 -97 79.5 -147.5t234.5 -50.5z" />
    <glyph glyph-name="b" unicode="b" horiz-adv-x="1384" 
d="M670 -12q-191 0 -314 72.5t-166 209.5l-61 -270h-92l254 1434h104l-108 -625q78 115 211 178.5t293 63.5q236 0 375 -124.5t139 -336.5q0 -126 -49 -237.5t-133 -191.5t-202 -126.5t-251 -46.5zM662 82q232 0 384 142.5t152 359.5q0 177 -116 275.5t-322 98.5
q-230 0 -382.5 -144t-152.5 -361q0 -175 115.5 -273t321.5 -98z" />
    <glyph glyph-name="c" unicode="c" horiz-adv-x="1273" 
d="M616 -12q-241 0 -386.5 128t-145.5 339q0 262 172.5 429t448.5 167q209 0 343 -92.5t160 -253.5h-102q-23 118 -132 185.5t-278 67.5q-224 0 -366 -140t-142 -357q0 -177 116.5 -278t318.5 -101q154 0 271 68.5t161 185.5h106q-47 -158 -196 -253t-349 -95z" />
    <glyph glyph-name="d" unicode="d" horiz-adv-x="1384" 
d="M594 -12q-236 0 -374 124.5t-138 338.5q0 167 83 305t228.5 216.5t321.5 78.5q192 0 315 -72.5t164 -210.5l119 666h104l-254 -1434h-90l29 231q-78 -114 -212.5 -178.5t-295.5 -64.5zM625 82q230 0 382 143.5t152 360.5q0 175 -115.5 273.5t-320.5 98.5
q-232 0 -384.5 -142.5t-152.5 -360.5q0 -175 116.5 -274t322.5 -99z" />
    <glyph glyph-name="e" unicode="e" horiz-adv-x="1302" 
d="M606 -12q-234 0 -379 128.5t-145 338.5q0 172 80.5 308t226.5 212t332 76q231 0 368.5 -118.5t137.5 -316.5q0 -57 -8 -98h-1026q-5 -45 -5 -57q0 -176 114.5 -277.5t311.5 -101.5q162 0 282.5 68t178.5 194h105q-58 -168 -211 -262t-363 -94zM209 606h907v25
q0 159 -108.5 243t-294.5 84t-322.5 -96.5t-181.5 -255.5z" />
    <glyph glyph-name="f" unicode="f" horiz-adv-x="749" 
d="M156 0l166 942h-236l16 96h236l27 146q23 133 90 191.5t198 58.5h242l-16 -97h-222q-89 0 -132 -36t-58 -123l-25 -140h379l-16 -96h-379l-166 -942h-104z" />
    <glyph glyph-name="g" unicode="g" horiz-adv-x="1384" 
d="M549 -422q-491 0 -526 340h104q30 -246 426 -246q230 0 358 95.5t160 291.5l29 174q-78 -116 -210.5 -180.5t-291.5 -64.5q-239 0 -377.5 124t-138.5 339q0 168 82.5 305.5t227 216t319.5 78.5q194 0 317 -72t166 -209l61 268h93l-174 -989q-44 -244 -196.5 -357.5
t-428.5 -113.5zM629 82q229 0 379.5 143t150.5 361q0 177 -115.5 274.5t-324.5 97.5q-230 0 -381.5 -142t-151.5 -359q0 -178 116.5 -276.5t326.5 -98.5z" />
    <glyph glyph-name="h" unicode="h" horiz-adv-x="1284" 
d="M37 0l254 1434h104l-106 -611q67 109 185.5 168.5t260.5 59.5q215 0 330 -103t115 -295q0 -58 -17 -147l-88 -506h-104l88 508q14 71 14 135q0 311 -346 311q-192 0 -321.5 -103.5t-165.5 -299.5l-99 -551h-104z" />
    <glyph glyph-name="i" unicode="i" horiz-adv-x="362" 
d="M37 0l184 1038h105l-185 -1038h-104zM322 1262q-32 0 -51 18t-19 49q0 32 22 54t56 22q33 0 52 -19t19 -49q0 -33 -22.5 -54t-56.5 -21z" />
    <glyph glyph-name="j" unicode="j" horiz-adv-x="372" 
d="M-348 -410l16 97h178q78 0 120 39t57 129l208 1183h105l-211 -1190q-23 -135 -88.5 -196.5t-188.5 -61.5h-196zM330 1262q-32 0 -51 18t-19 49q0 32 22 54t56 22q33 0 52.5 -19t19.5 -49q0 -33 -23 -54t-57 -21z" />
    <glyph glyph-name="k" unicode="k" horiz-adv-x="1163" 
d="M37 0l254 1434h104l-178 -1014l836 618h155l-585 -432l436 -606h-125l-393 545l-348 -256l-52 -289h-104z" />
    <glyph glyph-name="l" unicode="l" horiz-adv-x="364" 
d="M37 0l254 1434h104l-254 -1434h-104z" />
    <glyph glyph-name="m" unicode="m" horiz-adv-x="2080" 
d="M37 0l184 1038h92l-20 -200q68 100 175 156.5t232 56.5q171 0 272 -74.5t124 -218.5q62 135 187.5 214t281.5 79q198 0 303.5 -102.5t105.5 -295.5q0 -51 -14 -147l-90 -506h-105l88 508q15 74 15 135q0 311 -312 311q-181 0 -302 -118t-158 -330l-90 -506h-105l90 508
q13 80 13 131q0 315 -312 315q-180 0 -298.5 -105.5t-153.5 -297.5l-99 -551h-104z" />
    <glyph glyph-name="n" unicode="n" horiz-adv-x="1284" 
d="M37 0l184 1038h92l-20 -200q68 101 186 157t256 56q215 0 330 -103t115 -295q0 -58 -17 -147l-88 -506h-104l88 508q14 71 14 135q0 311 -346 311q-192 0 -321.5 -103.5t-165.5 -299.5l-99 -551h-104z" />
    <glyph glyph-name="o" unicode="o" horiz-adv-x="1347" 
d="M629 -12q-248 0 -397.5 128.5t-149.5 338.5q0 126 48.5 236.5t132.5 189.5t202.5 124.5t253.5 45.5q248 0 397.5 -127.5t149.5 -337.5q0 -126 -48.5 -236.5t-132.5 -190t-202.5 -125.5t-253.5 -46zM637 82q227 0 374.5 142t147.5 356q0 175 -118.5 276.5t-327.5 101.5
q-228 0 -376.5 -141.5t-148.5 -355.5q0 -174 120 -276.5t329 -102.5z" />
    <glyph glyph-name="p" unicode="p" horiz-adv-x="1384" 
d="M-35 -410l256 1448h90l-28 -231q76 115 211 179.5t297 64.5q236 0 374 -124.5t138 -336.5q0 -168 -83 -306t-228.5 -217t-321.5 -79q-193 0 -317 73.5t-165 210.5l-118 -682h-105zM662 82q231 0 383.5 143t152.5 359q0 177 -116.5 275.5t-323.5 98.5q-150 0 -272.5 -65.5
t-191.5 -181t-69 -258.5q0 -175 115.5 -273t321.5 -98z" />
    <glyph glyph-name="q" unicode="q" horiz-adv-x="1384" 
d="M987 -410l111 639q-76 -114 -210 -177.5t-294 -63.5q-236 0 -374 124.5t-138 338.5q0 167 83 305t228.5 216.5t321.5 78.5q191 0 313.5 -72t165.5 -209l61 268h93l-256 -1448h-105zM625 82q230 0 382 143.5t152 360.5q0 175 -115.5 273.5t-320.5 98.5
q-232 0 -384.5 -142.5t-152.5 -360.5q0 -175 116.5 -274t322.5 -99z" />
    <glyph glyph-name="r" unicode="r" horiz-adv-x="720" 
d="M37 0l184 1038h92l-18 -178q117 178 346 178h139l-16 -100h-146q-159 0 -253 -102t-132 -316l-92 -520h-104z" />
    <glyph glyph-name="s" unicode="s" horiz-adv-x="1140" 
d="M530 -12q-140 0 -249.5 40t-173 115.5t-66.5 175.5h104q7 -114 113.5 -177.5t271.5 -63.5q175 0 280 55t105 154q0 79 -76 122t-270 74q-237 37 -333.5 97.5t-96.5 175.5q0 138 127 216.5t350 78.5q206 0 332.5 -80.5t130.5 -220.5h-104q-6 98 -104.5 154.5t-254.5 56.5
q-174 0 -273 -51t-99 -142q0 -79 73 -119t273 -74q236 -40 333 -101t97 -175q0 -146 -134 -228.5t-356 -82.5z" />
    <glyph glyph-name="t" unicode="t" horiz-adv-x="751" 
d="M440 0q-239 0 -239 213q0 30 8 96l113 633h-236l16 96h236l53 291h105l-54 -291h351l-17 -96h-350l-113 -641q-6 -35 -6 -68q0 -137 158 -137h162l-19 -96h-168z" />
    <glyph glyph-name="u" unicode="u" horiz-adv-x="1265" 
d="M539 -12q-207 0 -320 103.5t-113 295.5q0 69 15 148l90 503h104l-90 -506q-14 -89 -14 -135q0 -155 85.5 -234t250.5 -79q187 0 316 104.5t163 300.5l98 549h105l-185 -1038h-90l19 201q-70 -100 -186 -156.5t-248 -56.5z" />
    <glyph glyph-name="v" unicode="v" horiz-adv-x="1153" 
d="M422 0l-307 1038h108l279 -929l602 929h119l-676 -1038h-125z" />
    <glyph glyph-name="w" unicode="w" horiz-adv-x="1892" 
d="M362 0l-245 1038h108l215 -925l549 925h98l220 -925l538 925h113l-610 -1038h-113l-219 897l-541 -897h-113z" />
    <glyph glyph-name="x" unicode="x" horiz-adv-x="1122" 
d="M-78 0l580 537l-369 501h125l322 -436l471 436h137l-555 -512l385 -526h-125l-336 459l-498 -459h-137z" />
    <glyph glyph-name="y" unicode="y" horiz-adv-x="1155" 
d="M-92 -410l16 97h172q76 0 122.5 30t107.5 121l106 158l-317 1042h106l283 -925l602 925h117l-805 -1237q-82 -124 -147 -167.5t-171 -43.5h-192z" />
    <glyph glyph-name="z" unicode="z" horiz-adv-x="1103" 
d="M-45 0l14 84l973 858h-792l16 96h948l-14 -82l-975 -860h858l-16 -96h-1012z" />
    <glyph glyph-name="uni00A0" unicode="&#xa0;" horiz-adv-x="579" 
 />
    <glyph glyph-name="Alphatonos" unicode="&#x386;" horiz-adv-x="1521" 
d="M-59 0l921 1434h129l408 -1434h-115l-125 438h-811l-282 -438h-125zM412 541h721l-222 782zM317 1139l140 293h112l-176 -293h-76z" />
    <glyph glyph-name="Epsilontonos" unicode="&#x388;" horiz-adv-x="1386" 
d="M168 0l252 1434h1034l-18 -103h-924l-96 -547h776l-18 -102h-775l-102 -580h954l-16 -102h-1067zM47 1139l139 293h115l-176 -293h-78z" />
    <glyph glyph-name="Etatonos" unicode="&#x389;" horiz-adv-x="1632" 
d="M168 0l254 1434h110l-116 -652h1009l115 652h111l-254 -1434h-111l121 680h-1008l-120 -680h-111zM49 1139l139 293h113l-176 -293h-76z" />
    <glyph glyph-name="Iotatonos" unicode="&#x38a;" horiz-adv-x="512" 
d="M168 0l254 1434h110l-253 -1434h-111zM49 1139l139 293h113l-176 -293h-76z" />
    <glyph glyph-name="Omicrontonos" unicode="&#x38c;" horiz-adv-x="1783" 
d="M860 -12q-159 0 -294 47.5t-229 133t-147 207.5t-53 267q0 169 67 318t182 255.5t276.5 168t343.5 61.5q159 0 294 -47.5t229 -133t147 -207.5t53 -267q0 -169 -67 -318t-182 -255.5t-276.5 -168t-343.5 -61.5zM862 90q160 0 300 53.5t240 145.5t158 221t58 276
q0 252 -168 404.5t-446 152.5q-213 0 -386 -90.5t-271.5 -250.5t-98.5 -357q0 -252 168 -403.5t446 -151.5zM57 1139l140 293h112l-176 -293h-76z" />
    <glyph glyph-name="Upsilontonos" unicode="&#x38e;" horiz-adv-x="1591" 
d="M709 0l94 528l-500 906h125l442 -799l723 799h138l-818 -906l-94 -528h-110zM8 1139l139 293h115l-176 -293h-78z" />
    <glyph glyph-name="Omegatonos" unicode="&#x38f;" 
d="M39 0l18 102h494l14 78q-197 77 -301 215t-104 328q0 210 106.5 375.5t297 257.5t431.5 92q337 0 535.5 -160.5t198.5 -429.5q0 -260 -151 -437.5t-437 -242.5l-13 -76h492l-16 -102h-586l41 229q278 68 418.5 226t140.5 391q0 234 -166 367t-459 133q-211 0 -375.5 -78
t-256 -219.5t-91.5 -323.5q0 -349 396 -496l-39 -229h-588zM61 1139l140 293h114l-176 -293h-78z" />
    <glyph glyph-name="iotadieresistonos" unicode="&#x390;" horiz-adv-x="532" 
d="M279 0q-213 0 -213 180q0 41 8 82l137 776h104l-137 -778q-6 -27 -6 -53q0 -56 32 -83.5t101 -27.5h131l-16 -96h-141zM242 1169l75 293h105l-103 -293h-77zM88 1257q-29 0 -47 17t-18 43q0 32 21.5 53t53.5 21q29 0 46.5 -16.5t17.5 -43.5q0 -32 -21.5 -53t-52.5 -21z
M545 1257q-29 0 -47.5 17t-18.5 43q0 32 22 53t54 21q28 0 45.5 -17t17.5 -43q0 -32 -21 -53t-52 -21z" />
    <glyph glyph-name="Alpha" unicode="&#x391;" horiz-adv-x="1521" 
d="M-59 0l921 1434h129l408 -1434h-115l-125 438h-811l-282 -438h-125zM412 541h721l-222 782z" />
    <glyph glyph-name="Beta" unicode="&#x392;" horiz-adv-x="1415" 
d="M49 0l254 1434h602q204 0 321 -91.5t117 -252.5q0 -145 -85 -239t-242 -122q140 -26 213.5 -104t73.5 -201q0 -198 -151 -311t-415 -113h-688zM178 100h578q204 0 319 85.5t115 236.5q0 124 -98 192t-277 68h-534zM299 782h543q181 0 286 80.5t105 218.5q0 121 -87 186.5
t-247 65.5h-502z" />
    <glyph glyph-name="Gamma" unicode="&#x393;" horiz-adv-x="1175" 
d="M49 0l254 1434h989l-18 -103h-877l-237 -1331h-111z" />
    <glyph glyph-name="uni0394" unicode="&#x394;" horiz-adv-x="1486" 
d="M-49 0l14 82l877 1352h127l399 -1352l-16 -82h-1401zM102 102h1147l-358 1221z" />
    <glyph glyph-name="Epsilon" unicode="&#x395;" horiz-adv-x="1267" 
d="M49 0l254 1434h1034l-18 -103h-924l-96 -547h774l-18 -102h-774l-103 -580h957l-19 -102h-1067z" />
    <glyph glyph-name="Zeta" unicode="&#x396;" horiz-adv-x="1409" 
d="M-37 0l12 82l1342 1249h-1084l19 103h1245l-12 -82l-1342 -1250h1139l-18 -102h-1301z" />
    <glyph glyph-name="Eta" unicode="&#x397;" horiz-adv-x="1513" 
d="M49 0l254 1434h111l-115 -652h1008l116 652h111l-254 -1434h-111l121 680h-1009l-121 -680h-111z" />
    <glyph glyph-name="Theta" unicode="&#x398;" 
d="M508 670l18 102h807l-18 -102h-807zM848 -12q-159 0 -294 47.5t-229 133t-147 207.5t-53 267q0 169 66.5 318t181.5 255.5t276.5 168t343.5 61.5q159 0 294 -47.5t229 -133t147 -207.5t53 -267q0 -169 -66.5 -318t-181.5 -255.5t-276.5 -168t-343.5 -61.5zM850 90
q160 0 300 53.5t240 145.5t158 221t58 276q0 252 -168.5 404.5t-446.5 152.5q-160 0 -300 -53.5t-240 -145.5t-157.5 -222t-57.5 -277q0 -252 168 -403.5t446 -151.5z" />
    <glyph glyph-name="Iota" unicode="&#x399;" horiz-adv-x="395" 
d="M49 0l254 1434h111l-254 -1434h-111z" />
    <glyph glyph-name="Kappa" unicode="&#x39a;" horiz-adv-x="1433" 
d="M49 0l254 1434h111l-158 -895l1110 895h160l-740 -596l537 -838h-133l-494 766l-467 -379l-69 -387h-111z" />
    <glyph glyph-name="Lambda" unicode="&#x39b;" horiz-adv-x="1476" 
d="M-59 0l893 1434h133l387 -1434h-113l-358 1317l-820 -1317h-122z" />
    <glyph glyph-name="Mu" unicode="&#x39c;" horiz-adv-x="1929" 
d="M49 0l254 1434h131l463 -1301l918 1301h135l-254 -1434h-111l221 1247l-882 -1247h-99l-444 1247l-221 -1247h-111z" />
    <glyph glyph-name="Nu" unicode="&#x39d;" horiz-adv-x="1542" 
d="M49 0l254 1434h105l821 -1270l223 1270h109l-254 -1434h-103l-821 1270l-225 -1270h-109z" />
    <glyph glyph-name="Xi" unicode="&#x39e;" horiz-adv-x="1359" 
d="M-33 0l19 102h1241l-19 -102h-1241zM172 682l18 102h1074l-19 -102h-1073zM219 1331l19 103h1208l-19 -103h-1208z" />
    <glyph glyph-name="Omicron" unicode="&#x39f;" 
d="M848 -12q-159 0 -294 47.5t-229 133t-147 207.5t-53 267q0 169 66.5 318t181.5 255.5t276.5 168t343.5 61.5q159 0 294 -47.5t229 -133t147 -207.5t53 -267q0 -169 -66.5 -318t-181.5 -255.5t-276.5 -168t-343.5 -61.5zM850 90q160 0 300 53.5t240 145.5t158 221t58 276
q0 252 -168.5 404.5t-446.5 152.5q-160 0 -300 -53.5t-240 -145.5t-157.5 -222t-57.5 -277q0 -252 168 -403.5t446 -151.5z" />
    <glyph glyph-name="Pi" unicode="&#x3a0;" horiz-adv-x="1507" 
d="M49 0l254 1434h1223l-254 -1434h-111l236 1331h-1000l-237 -1331h-111z" />
    <glyph glyph-name="Rho" unicode="&#x3a1;" horiz-adv-x="1366" 
d="M49 0l254 1434h645q198 0 322.5 -108t124.5 -279q0 -204 -144 -326.5t-387 -122.5h-598l-106 -598h-111zM285 700h581q192 0 304 93.5t112 248.5q0 132 -93.5 210.5t-248.5 78.5h-545z" />
    <glyph glyph-name="Sigma" unicode="&#x3a3;" horiz-adv-x="1409" 
d="M-37 0l12 82l795 659l-532 611l14 82h1245l-16 -103h-1075l503 -577l-8 -43l-733 -609h1114l-18 -102h-1301z" />
    <glyph glyph-name="Tau" unicode="&#x3a4;" horiz-adv-x="1396" 
d="M551 0l235 1331h-600l19 103h1308l-18 -103h-598l-235 -1331h-111z" />
    <glyph glyph-name="Upsilon" unicode="&#x3a5;" horiz-adv-x="1470" 
d="M588 0l94 528l-500 906h125l443 -799l723 799h137l-817 -906l-95 -528h-110z" />
    <glyph glyph-name="Phi" unicode="&#x3a6;" horiz-adv-x="2035" 
d="M872 0l23 117h-45q-343 0 -534 139.5t-191 390.5q0 316 247.5 493t688.5 177h43l22 117h107l-23 -117h45q343 0 534 -140t191 -391q0 -316 -246.5 -492.5t-689.5 -176.5h-43l-22 -117h-107zM866 215h45l174 1004h-43q-376 0 -591 -152t-215 -418q0 -209 163 -321.5
t467 -112.5zM1018 215h45q377 0 592 152t215 417q0 209 -163.5 322t-467.5 113h-45z" />
    <glyph glyph-name="Chi" unicode="&#x3a7;" horiz-adv-x="1429" 
d="M-51 0l741 737l-450 697h131l399 -615l610 615h142l-697 -703l475 -731h-133l-422 649l-655 -649h-141z" />
    <glyph glyph-name="Psi" unicode="&#x3a8;" 
d="M954 426h-32l-76 -426h-109l76 430q-309 23 -457.5 152.5t-148.5 371.5q0 70 18 189l51 291h109l-51 -291q-17 -86 -17 -176q0 -208 121 -312t393 -123l160 902h109l-160 -906h18q302 0 467.5 129t216.5 412l66 365h107l-66 -377q-58 -323 -253 -477t-542 -154z" />
    <glyph glyph-name="uni03A9" unicode="&#x3a9;" horiz-adv-x="1736" 
d="M4 0l16 102h494l14 78q-196 77 -299.5 215t-103.5 328q0 210 106.5 375.5t297 257.5t432.5 92q336 0 534.5 -160.5t198.5 -429.5q0 -260 -151 -437.5t-437 -242.5l-14 -76h493l-18 -102h-586l41 229q279 68 420 226t141 391q0 234 -166 367t-459 133q-320 0 -521 -172.5
t-201 -448.5q0 -349 393 -496l-39 -229h-586z" />
    <glyph glyph-name="Iotadieresis" unicode="&#x3aa;" horiz-adv-x="395" 
d="M49 0l254 1434h111l-254 -1434h-111zM203 1647q-32 0 -51 18.5t-19 48.5q0 31 23 52.5t55 21.5t52 -19t20 -47q0 -32 -23 -53.5t-57 -21.5zM606 1647q-32 0 -51.5 18.5t-19.5 48.5q0 31 22.5 52.5t56.5 21.5q32 0 51 -19t19 -47q0 -32 -22.5 -53.5t-55.5 -21.5z" />
    <glyph glyph-name="Upsilondieresis" unicode="&#x3ab;" horiz-adv-x="1470" 
d="M588 0l94 528l-500 906h125l443 -799l723 799h137l-817 -906l-95 -528h-110zM731 1647q-32 0 -52 19t-20 48q0 31 23 52.5t57 21.5q32 0 51 -19t19 -47q0 -32 -22.5 -53.5t-55.5 -21.5zM1133 1647q-32 0 -51 18.5t-19 48.5q0 31 23 52.5t55 21.5q31 0 50 -19t19 -47
q0 -32 -21.5 -53.5t-55.5 -21.5z" />
    <glyph glyph-name="alphatonos" unicode="&#x3ac;" horiz-adv-x="1456" 
d="M594 -12q-236 0 -374 124.5t-138 338.5q0 167 83 305t228.5 216.5t321.5 78.5q371 0 481 -248l59 235h93l-144 -811q-24 -131 90 -131h60l-17 -96h-82q-95 0 -138 55t-21 154q-83 -106 -214 -163.5t-288 -57.5zM625 82q230 0 382 143.5t152 360.5q0 175 -115.5 273.5
t-320.5 98.5q-232 0 -384.5 -142.5t-152.5 -360.5q0 -175 116.5 -274t322.5 -99zM760 1169l139 293h113l-176 -293h-76z" />
    <glyph glyph-name="epsilontonos" unicode="&#x3ad;" horiz-adv-x="1189" 
d="M514 -12q-229 0 -353 74t-124 212q0 109 85.5 179t235.5 82q-98 13 -152 71t-54 148q0 138 133.5 217.5t369.5 79.5q227 0 355.5 -80t140.5 -232h-102q-19 114 -114.5 168t-279.5 54q-195 0 -299 -56t-104 -160q0 -88 66 -130t204 -42h234l-13 -94h-237q-365 0 -365 -198
q0 -203 387 -203q219 0 322 50t135 173h102q-35 -164 -171.5 -238.5t-401.5 -74.5zM653 1167l140 293h112l-176 -293h-76z" />
    <glyph glyph-name="etatonos" unicode="&#x3ae;" horiz-adv-x="1355" 
d="M969 -410l161 918q15 76 15 135q0 311 -346 311q-192 0 -322 -104t-166 -299l-98 -551h-104l143 811q24 131 -90 131h-56l17 96h78q94 0 136 -54t23 -153q67 104 186.5 162t260.5 58q215 0 329.5 -103t114.5 -295q0 -63 -16 -147l-162 -916h-104zM582 1169l139 293h113
l-177 -293h-75z" />
    <glyph glyph-name="iotatonos" unicode="&#x3af;" horiz-adv-x="532" 
d="M279 0q-213 0 -213 180q0 41 8 82l137 776h104l-137 -778q-6 -27 -6 -53q0 -56 32 -83.5t101 -27.5h131l-16 -96h-141zM240 1169l139 293h113l-177 -293h-75z" />
    <glyph glyph-name="upsilondieresistonos" unicode="&#x3b0;" horiz-adv-x="1255" 
d="M573 -12q-230 0 -348.5 102t-118.5 297q0 63 17 152l88 499h104l-90 -503q-14 -89 -14 -138q0 -313 369 -313q197 0 303 101t147 331l92 522h105l-97 -538q-46 -263 -182 -387.5t-375 -124.5zM698 1169l76 293h105l-103 -293h-78zM545 1257q-29 0 -47.5 17t-18.5 43
q0 32 22 53t54 21q29 0 46 -16.5t17 -43.5q0 -32 -21 -53t-52 -21zM1001 1257q-29 0 -47 17t-18 43q0 32 22 53t54 21q28 0 45.5 -17t17.5 -43q0 -32 -21.5 -53t-52.5 -21z" />
    <glyph glyph-name="alpha" unicode="&#x3b1;" horiz-adv-x="1456" 
d="M594 -12q-236 0 -374 124.5t-138 338.5q0 167 83 305t228.5 216.5t321.5 78.5q371 0 481 -248l59 235h93l-144 -811q-24 -131 90 -131h60l-17 -96h-82q-95 0 -138 55t-21 154q-83 -106 -214 -163.5t-288 -57.5zM625 82q230 0 382 143.5t152 360.5q0 175 -115.5 273.5
t-320.5 98.5q-232 0 -384.5 -142.5t-152.5 -360.5q0 -175 116.5 -274t322.5 -99z" />
    <glyph glyph-name="beta" unicode="&#x3b2;" horiz-adv-x="1308" 
d="M-35 -410l242 1373q43 244 184 363.5t387 119.5q194 0 313 -95t119 -251q0 -139 -87.5 -227t-256.5 -119q167 -20 250.5 -107.5t83.5 -230.5q0 -192 -145.5 -310t-388.5 -118q-184 0 -311 61.5t-175 171.5l-110 -631h-105zM221 449q-25 -170 94 -268.5t351 -98.5
q202 0 316 89t114 243q0 145 -104.5 215.5t-323.5 70.5h-127l16 93h59q227 0 358.5 79.5t131.5 223.5q0 118 -90 187t-240 69q-394 0 -465 -391z" />
    <glyph glyph-name="gamma" unicode="&#x3b3;" horiz-adv-x="1171" 
d="M383 -330l63 350l-331 1018h108l291 -893l608 893h119l-690 -1018l-62 -350h-106z" />
    <glyph glyph-name="delta" unicode="&#x3b4;" horiz-adv-x="1327" 
d="M621 -12q-251 0 -399 116t-148 312q0 205 129 345.5t346 172.5q75 14 174 5t174 -42l-518 457l14 80h940l-16 -95h-776l495 -438q199 -170 199 -385q0 -233 -173.5 -380.5t-440.5 -147.5zM631 80q216 0 356.5 121.5t140.5 308.5q0 160 -124.5 258t-327.5 98
q-224 0 -360 -120.5t-136 -317.5q0 -161 122 -254.5t329 -93.5z" />
    <glyph glyph-name="epsilon" unicode="&#x3b5;" horiz-adv-x="1189" 
d="M514 -12q-229 0 -353 74t-124 212q0 109 85.5 179t235.5 82q-98 13 -152 71t-54 148q0 138 133.5 217.5t369.5 79.5q227 0 355.5 -80t140.5 -232h-102q-19 114 -114.5 168t-279.5 54q-195 0 -299 -56t-104 -160q0 -88 66 -130t204 -42h234l-13 -94h-237q-365 0 -365 -198
q0 -203 387 -203q219 0 322 50t135 173h102q-35 -164 -171.5 -238.5t-401.5 -74.5z" />
    <glyph glyph-name="zeta" unicode="&#x3b6;" horiz-adv-x="1064" 
d="M764 -276l20 110q7 34 7 60q0 54 -36.5 78t-119.5 26l-117 4q-227 3 -349 85.5t-122 231.5q0 102 43.5 186.5t156 195t345.5 296.5l424 340h-778l16 97h946l-14 -80l-535 -428q-212 -169 -314.5 -267t-142.5 -169.5t-40 -153.5q0 -114 101.5 -176.5t291.5 -63.5l121 -2
q117 -2 172 -43t55 -129q0 -26 -8 -67l-23 -131h-100z" />
    <glyph glyph-name="eta" unicode="&#x3b7;" horiz-adv-x="1355" 
d="M969 -410l161 918q15 76 15 135q0 311 -346 311q-192 0 -322 -104t-166 -299l-98 -551h-104l143 811q24 131 -90 131h-56l17 96h78q94 0 136 -54t23 -153q67 104 186.5 162t260.5 58q215 0 329.5 -103t114.5 -295q0 -63 -16 -147l-162 -916h-104z" />
    <glyph glyph-name="theta" unicode="&#x3b8;" horiz-adv-x="1300" 
d="M557 -12q-217 0 -336 143.5t-119 394.5q0 117 25.5 240t82.5 245.5t137.5 218.5t201 156t262.5 60q219 0 338 -144t119 -395q0 -82 -13 -169t-41.5 -177t-69 -173t-99.5 -156t-130 -127t-163 -85.5t-195 -31.5zM565 82q98 0 184.5 36t148.5 94.5t112 138.5t80.5 162.5
t48.5 170.5h-922q-12 -76 -12 -145q0 -216 93.5 -336.5t266.5 -120.5zM233 776h922q8 57 8 119q0 216 -92.5 336.5t-265.5 120.5q-96 0 -180.5 -34t-145.5 -90t-111.5 -132.5t-82 -155t-52.5 -164.5z" />
    <glyph glyph-name="iota" unicode="&#x3b9;" horiz-adv-x="532" 
d="M279 0q-213 0 -213 180q0 41 8 82l137 776h104l-137 -778q-6 -27 -6 -53q0 -56 32 -83.5t101 -27.5h131l-16 -96h-141z" />
    <glyph glyph-name="kappa" unicode="&#x3ba;" horiz-adv-x="1200" 
d="M39 0l182 1038h105l-113 -647l668 553q77 64 123 79t159 15h70l-16 -96h-58q-90 0 -121 -11t-104 -69l-309 -252l465 -610h-129l-418 547l-355 -291l-45 -256h-104z" />
    <glyph glyph-name="lambda" unicode="&#x3bb;" horiz-adv-x="1191" 
d="M-53 0l684 1030l-39 123q-35 114 -76 149t-137 35h-135l16 97h141q131 0 188 -51t105 -205l369 -1178h-111l-282 909l-604 -909h-119z" />
    <glyph glyph-name="uni03BC" unicode="&#x3bc;" horiz-adv-x="1343" 
d="M-35 -410l256 1448h105l-90 -506q-15 -96 -15 -135q0 -155 85.5 -234t250.5 -79q187 0 316 104.5t163 300.5l99 549h104l-143 -811q-24 -131 92 -131h55l-18 -96h-76q-95 0 -137.5 53t-22.5 152q-75 -107 -189.5 -162t-252.5 -55q-155 0 -246.5 61t-118.5 172l-112 -631
h-105z" />
    <glyph glyph-name="nu" unicode="&#x3bd;" horiz-adv-x="1153" 
d="M422 0l-307 1038h108l279 -929l602 929h119l-676 -1038h-125z" />
    <glyph glyph-name="xi" unicode="&#x3be;" horiz-adv-x="1157" 
d="M836 -276l20 120q6 30 6 52q0 55 -36.5 77t-127.5 25l-125 4q-118 3 -208 22.5t-160 60t-107 108t-37 161.5q0 153 126.5 266t328.5 130q-262 48 -262 258q0 125 112 214t316 115l-430 -2l16 99h946l-16 -84q-98 0 -201 -7q-308 -20 -472.5 -101t-164.5 -218
q0 -113 95.5 -174.5t277.5 -61.5h232l-19 -96h-237q-250 0 -395.5 -87t-145.5 -236q0 -137 105 -201t331 -70l123 -4q123 -3 180.5 -44.5t57.5 -127.5q0 -36 -4 -59l-25 -139h-100z" />
    <glyph glyph-name="omicron" unicode="&#x3bf;" horiz-adv-x="1347" 
d="M629 -12q-248 0 -397.5 128.5t-149.5 338.5q0 126 48.5 236.5t132.5 189.5t202.5 124.5t253.5 45.5q248 0 397.5 -127.5t149.5 -337.5q0 -126 -48.5 -236.5t-132.5 -190t-202.5 -125.5t-253.5 -46zM637 82q227 0 374.5 142t147.5 356q0 175 -118.5 276.5t-327.5 101.5
q-228 0 -376.5 -141.5t-148.5 -355.5q0 -174 120 -276.5t329 -102.5z" />
    <glyph glyph-name="pi" unicode="&#x3c0;" horiz-adv-x="1445" 
d="M1165 0q-94 0 -135 56t-22 159l129 727h-693l-165 -942h-105l166 942h-238l17 96h1380l-16 -96h-242l-125 -715q-24 -131 88 -131h62l-17 -96h-84z" />
    <glyph glyph-name="rho" unicode="&#x3c1;" horiz-adv-x="1382" 
d="M-45 -410l170 955q40 227 212 366.5t417 139.5q248 0 397 -127.5t149 -337.5q0 -168 -82.5 -305t-228 -215t-325.5 -78q-191 0 -316 80.5t-166 220.5l-123 -699h-104zM672 82q227 0 374.5 142t147.5 356q0 175 -118.5 276.5t-327.5 101.5q-228 0 -376.5 -141.5
t-148.5 -355.5q0 -174 120 -276.5t329 -102.5z" />
    <glyph glyph-name="sigma1" unicode="&#x3c2;" horiz-adv-x="1257" 
d="M838 -276l20 110q6 29 6 60q0 54 -36 78.5t-119 25.5l-101 2q-145 3 -263.5 60t-189.5 162t-71 239q0 127 45.5 236.5t126.5 187t197.5 122t253.5 44.5q207 0 341 -92.5t160 -253.5h-102q-23 118 -132 185.5t-276 67.5q-224 0 -366 -138.5t-142 -352.5q0 -168 123 -268
t314 -103l114 -2q117 -2 172.5 -43.5t55.5 -128.5q0 -26 -8 -67l-23 -131h-100z" />
    <glyph glyph-name="sigma" unicode="&#x3c3;" horiz-adv-x="1417" 
d="M627 -12q-247 0 -397 128t-150 333q0 123 48.5 232.5t132.5 187.5t202.5 123.5t253.5 45.5h756l-19 -96h-420q111 -51 170.5 -144.5t59.5 -217.5q0 -165 -82.5 -300.5t-228.5 -213.5t-326 -78zM635 82q226 0 374 140.5t148 350.5q0 171 -119 272t-327 101
q-228 0 -376.5 -140.5t-148.5 -350.5q0 -170 120 -271.5t329 -101.5z" />
    <glyph glyph-name="tau" unicode="&#x3c4;" horiz-adv-x="1191" 
d="M713 0q-240 0 -240 213q0 30 8 96l113 633h-492l17 96h1124l-16 -96h-529l-112 -641q-6 -35 -6 -68q0 -137 157 -137h191l-19 -96h-196z" />
    <glyph glyph-name="upsilon" unicode="&#x3c5;" horiz-adv-x="1255" 
d="M573 -12q-230 0 -348.5 102t-118.5 297q0 63 17 152l88 499h104l-90 -503q-14 -89 -14 -138q0 -313 369 -313q197 0 303 101t147 331l92 522h105l-97 -538q-46 -263 -182 -387.5t-375 -124.5z" />
    <glyph glyph-name="phi" unicode="&#x3c6;" horiz-adv-x="1679" 
d="M625 -410l71 410h-32q-270 0 -426 123.5t-156 335.5q0 126 55 233.5t153.5 183.5t242 119t313.5 43h33l51 281h102l-51 -281h37q269 0 425 -123t156 -333q0 -257 -211 -419.5t-554 -162.5h-35l-72 -410h-102zM680 92h33l151 854h-35q-289 0 -466 -134t-177 -347
q0 -176 129.5 -274.5t364.5 -98.5zM815 92h35q290 0 466.5 134.5t176.5 348.5q0 175 -129 273t-363 98h-34z" />
    <glyph glyph-name="chi" unicode="&#x3c7;" horiz-adv-x="1306" 
d="M-90 -410l651 736l-221 450q-54 108 -94.5 137t-139.5 29h-30l16 96h53q43 0 71.5 -2.5t55 -13t43 -23.5t38 -42.5t38.5 -61t45 -86.5l197 -399l559 628h123l-631 -710l221 -473q53 -109 93.5 -138.5t140.5 -29.5h32l-18 -97h-51q-65 0 -102 7t-71 33.5t-58 68.5t-60 123
l-197 430l-577 -662h-127z" />
    <glyph glyph-name="psi" unicode="&#x3c8;" horiz-adv-x="1546" 
d="M743 -12h-14l-70 -398h-102l72 402q-310 22 -429.5 173.5t-62.5 452.5l74 420h104l-73 -422q-47 -268 45 -390.5t358 -139.5l217 1227h103l-217 -1231h8q261 0 395.5 109t175.5 352l86 495h105l-88 -510q-50 -278 -216 -409t-471 -131z" />
    <glyph glyph-name="omega" unicode="&#x3c9;" horiz-adv-x="1806" 
d="M459 -12q-175 0 -276 106.5t-101 290.5q0 181 95.5 357.5t256.5 295.5h125q-182 -142 -276.5 -307.5t-94.5 -339.5q0 -148 73 -228.5t206 -80.5q150 0 247.5 100t129.5 287l37 209h102l-39 -209q-31 -175 45.5 -281t233.5 -106q169 0 272.5 132.5t103.5 346.5
q0 263 -184 477h121q81 -93 125.5 -219t44.5 -262q0 -252 -134.5 -410.5t-348.5 -158.5q-150 0 -242.5 76.5t-112.5 216.5q-58 -144 -162 -218.5t-247 -74.5z" />
    <glyph glyph-name="iotadieresis" unicode="&#x3ca;" horiz-adv-x="532" 
d="M279 0q-213 0 -213 180q0 41 8 82l137 776h104l-137 -778q-6 -27 -6 -53q0 -56 32 -83.5t101 -27.5h131l-16 -96h-141zM109 1251q-32 0 -52 19t-20 49q0 32 23 54t57 22q31 0 50 -19.5t19 -48.5q0 -32 -22.5 -54t-54.5 -22zM510 1251q-32 0 -51 19t-19 49q0 32 23 54
t55 22t51 -19t19 -49q0 -32 -23 -54t-55 -22z" />
    <glyph glyph-name="upsilondieresis" unicode="&#x3cb;" horiz-adv-x="1255" 
d="M573 -12q-230 0 -348.5 102t-118.5 297q0 63 17 152l88 499h104l-90 -503q-14 -89 -14 -138q0 -313 369 -313q197 0 303 101t147 331l92 522h105l-97 -538q-46 -263 -182 -387.5t-375 -124.5zM565 1251q-32 0 -51.5 19t-19.5 49q0 32 22.5 54t56.5 22q31 0 50.5 -19.5
t19.5 -48.5q0 -32 -23 -54t-55 -22zM967 1251q-32 0 -51 19t-19 49q0 32 23 54t55 22t50.5 -19t18.5 -49q0 -32 -22.5 -54t-54.5 -22z" />
    <glyph glyph-name="omicrontonos" unicode="&#x3cc;" horiz-adv-x="1347" 
d="M629 -12q-248 0 -397.5 128.5t-149.5 338.5q0 126 48.5 236.5t132.5 189.5t202.5 124.5t253.5 45.5q248 0 397.5 -127.5t149.5 -337.5q0 -126 -48.5 -236.5t-132.5 -190t-202.5 -125.5t-253.5 -46zM637 82q227 0 374.5 142t147.5 356q0 175 -118.5 276.5t-327.5 101.5
q-228 0 -376.5 -141.5t-148.5 -355.5q0 -174 120 -276.5t329 -102.5zM721 1169l139 293h115l-176 -293h-78z" />
    <glyph glyph-name="upsilontonos" unicode="&#x3cd;" horiz-adv-x="1255" 
d="M573 -12q-230 0 -348.5 102t-118.5 297q0 63 17 152l88 499h104l-90 -503q-14 -89 -14 -138q0 -313 369 -313q197 0 303 101t147 331l92 522h105l-97 -538q-46 -263 -182 -387.5t-375 -124.5zM696 1169l140 293h112l-176 -293h-76z" />
    <glyph glyph-name="omegatonos" unicode="&#x3ce;" horiz-adv-x="1806" 
d="M459 -12q-175 0 -276 106.5t-101 290.5q0 181 95.5 357.5t256.5 295.5h125q-182 -142 -276.5 -307.5t-94.5 -339.5q0 -148 73 -228.5t206 -80.5q150 0 247.5 100t129.5 287l37 209h102l-39 -209q-31 -175 45.5 -281t233.5 -106q169 0 272.5 132.5t103.5 346.5
q0 263 -184 477h121q81 -93 125.5 -219t44.5 -262q0 -252 -134.5 -410.5t-348.5 -158.5q-150 0 -242.5 76.5t-112.5 216.5q-58 -144 -162 -218.5t-247 -74.5zM971 1169l139 293h113l-176 -293h-76z" />
    <glyph glyph-name="uni0400" unicode="&#x400;" horiz-adv-x="1267" 
d="M49 0l254 1434h1034l-18 -103h-924l-96 -547h774l-18 -102h-774l-103 -580h957l-19 -102h-1067zM784 1563l-215 272h133l175 -272h-93z" />
    <glyph glyph-name="uni0401" unicode="&#x401;" horiz-adv-x="1267" 
d="M49 0l254 1434h1034l-18 -103h-924l-96 -547h774l-18 -102h-774l-103 -580h957l-19 -102h-1067zM655 1647q-32 0 -51.5 18.5t-19.5 48.5q0 31 23 52.5t57 21.5q32 0 50.5 -19t18.5 -47q0 -32 -22.5 -53.5t-55.5 -21.5zM1057 1647q-32 0 -51 18.5t-19 48.5q0 31 23 52.5
t55 21.5t51 -19t19 -47q0 -32 -22.5 -53.5t-55.5 -21.5z" />
    <glyph glyph-name="uni0402" unicode="&#x402;" horiz-adv-x="1816" 
d="M500 0l233 1331h-547l19 103h1290l-18 -103h-633l-92 -524q229 76 475 76q295 0 407.5 -132.5t61.5 -410.5l-23 -135q-46 -252 -179.5 -366.5t-383.5 -114.5h-131l18 102h119q201 0 306.5 91.5t142.5 295.5l20 119q42 240 -46 345t-337 105q-225 0 -469 -82l-123 -700
h-110z" />
    <glyph glyph-name="uni0403" unicode="&#x403;" horiz-adv-x="1175" 
d="M49 0l254 1434h989l-18 -103h-877l-237 -1331h-111zM727 1565l250 270h141l-289 -270h-102z" />
    <glyph glyph-name="uni0404" unicode="&#x404;" horiz-adv-x="1636" 
d="M829 -12q-322 0 -513 179.5t-191 475.5q0 167 62 315.5t170.5 255.5t263.5 169.5t333 62.5q270 0 450 -121t212 -334h-111q-32 170 -179.5 261t-373.5 91q-277 0 -470 -158t-236 -411h862l-18 -102h-854v-27q0 -256 159 -405.5t436 -149.5q217 0 372 88.5t224 263.5h111
q-76 -217 -263.5 -335.5t-445.5 -118.5z" />
    <glyph glyph-name="uni0405" unicode="&#x405;" horiz-adv-x="1411" 
d="M717 -12q-298 0 -468.5 119t-176.5 333h110q2 -164 144.5 -258t392.5 -94q216 0 337.5 78.5t121.5 218.5q0 106 -98.5 170t-348.5 119q-293 63 -409.5 146t-116.5 229q0 180 156.5 288.5t414.5 108.5q271 0 428.5 -107t169.5 -301h-110q-19 149 -146.5 228.5t-347.5 79.5
q-210 0 -332.5 -79t-122.5 -214q0 -105 95.5 -165.5t349.5 -115.5q282 -58 405 -146t123 -231q0 -189 -153.5 -298t-417.5 -109z" />
    <glyph glyph-name="uni0406" unicode="&#x406;" horiz-adv-x="395" 
d="M49 0l254 1434h111l-254 -1434h-111z" />
    <glyph glyph-name="uni0407" unicode="&#x407;" horiz-adv-x="395" 
d="M49 0l254 1434h111l-254 -1434h-111zM203 1647q-32 0 -51 18.5t-19 48.5q0 31 23 52.5t55 21.5t52 -19t20 -47q0 -32 -23 -53.5t-57 -21.5zM606 1647q-32 0 -51.5 18.5t-19.5 48.5q0 31 22.5 52.5t56.5 21.5q32 0 51 -19t19 -47q0 -32 -22.5 -53.5t-55.5 -21.5z" />
    <glyph glyph-name="uni0408" unicode="&#x408;" horiz-adv-x="761" 
d="M-47 0l18 102h265q104 0 161.5 55t79.5 175l193 1102h110l-194 -1119q-29 -160 -114.5 -237.5t-231.5 -77.5h-287z" />
    <glyph glyph-name="uni0409" unicode="&#x409;" horiz-adv-x="2482" 
d="M-72 0l17 102h69q148 0 231 143t148 507l121 682h1059l-111 -623h445q230 0 358.5 -97t128.5 -268q0 -212 -142 -329t-397 -117h-647l236 1331h-844l-104 -596q-49 -275 -111.5 -433.5t-151.5 -230t-221 -71.5h-84zM1337 102h533q196 0 303.5 87t107.5 245
q0 130 -98.5 202.5t-277.5 72.5h-461z" />
    <glyph glyph-name="uni040A" unicode="&#x40a;" horiz-adv-x="2410" 
d="M49 0l254 1434h111l-109 -623h979l111 623h110l-110 -623h440q230 0 359.5 -97t129.5 -268q0 -212 -141.5 -329t-398.5 -117h-643l125 709h-979l-127 -709h-111zM1270 102h530q195 0 303.5 87t108.5 245q0 130 -99 202.5t-278 72.5h-459z" />
    <glyph glyph-name="uni040B" unicode="&#x40b;" horiz-adv-x="1839" 
d="M500 0l233 1331h-547l19 103h1290l-18 -103h-633l-92 -524q229 76 475 76q298 0 419 -134t72 -409l-59 -340h-111l60 332q41 235 -56 342.5t-350 107.5q-225 0 -469 -82l-123 -700h-110z" />
    <glyph glyph-name="uni040C" unicode="&#x40c;" horiz-adv-x="1435" 
d="M49 0l254 1434h111l-115 -652h371l700 652h146l-748 -697l537 -737h-129l-498 680h-397l-121 -680h-111zM838 1565l249 270h142l-289 -270h-102z" />
    <glyph glyph-name="uni040D" unicode="&#x40d;" horiz-adv-x="1527" 
d="M49 0l254 1434h111l-224 -1260l1254 1260h104l-254 -1434h-110l223 1260l-1253 -1260h-105zM913 1563l-215 272h133l175 -272h-93z" />
    <glyph glyph-name="uni040E" unicode="&#x40e;" horiz-adv-x="1406" 
d="M109 0l18 102h102q135 0 202.5 31.5t137.5 128.5l93 125l-480 1047h123l428 -949l686 949h127l-876 -1205q-96 -135 -188 -182t-255 -47h-118zM905 1575q-149 0 -224.5 67t-68.5 193h88q-2 -87 47.5 -134.5t163.5 -47.5q222 0 254 182h88q-50 -260 -348 -260z" />
    <glyph glyph-name="uni040F" unicode="&#x40f;" horiz-adv-x="1482" 
d="M543 -293l53 293h-547l254 1434h111l-236 -1332h977l238 1332h110l-254 -1434h-544l-52 -293h-110z" />
    <glyph glyph-name="uni0410" unicode="&#x410;" horiz-adv-x="1521" 
d="M-59 0l921 1434h129l408 -1434h-115l-125 438h-811l-282 -438h-125zM412 541h721l-222 782z" />
    <glyph glyph-name="uni0411" unicode="&#x411;" horiz-adv-x="1359" 
d="M49 0l254 1434h993l-18 -103h-883l-88 -506h471q233 0 363.5 -100.5t130.5 -271.5q0 -213 -142.5 -333t-402.5 -120h-678zM178 102h563q201 0 309.5 89.5t108.5 246.5q0 131 -100 208t-283 77h-487z" />
    <glyph glyph-name="uni0412" unicode="&#x412;" horiz-adv-x="1415" 
d="M49 0l254 1434h602q204 0 321 -91.5t117 -252.5q0 -145 -85 -239t-242 -122q140 -26 213.5 -104t73.5 -201q0 -198 -151 -311t-415 -113h-688zM178 100h578q204 0 319 85.5t115 236.5q0 124 -98 192t-277 68h-534zM299 782h543q181 0 286 80.5t105 218.5q0 121 -87 186.5
t-247 65.5h-502z" />
    <glyph glyph-name="uni0413" unicode="&#x413;" horiz-adv-x="1175" 
d="M49 0l254 1434h989l-18 -103h-877l-237 -1331h-111z" />
    <glyph glyph-name="uni0414" unicode="&#x414;" horiz-adv-x="1626" 
d="M-102 -293l69 395h129q68 45 114 117.5t86 210.5t81 373l110 631h1098l-235 -1332h153l-69 -395h-111l51 293h-1315l-51 -293h-110zM1245 102l219 1235h-889l-96 -557q-55 -303 -106.5 -452.5t-130.5 -225.5h1003z" />
    <glyph glyph-name="uni0415" unicode="&#x415;" horiz-adv-x="1267" 
d="M49 0l254 1434h1034l-18 -103h-924l-96 -547h774l-18 -102h-774l-103 -580h957l-19 -102h-1067z" />
    <glyph glyph-name="uni0416" unicode="&#x416;" horiz-adv-x="2207" 
d="M-51 0l690 735l-395 699h125l370 -654h357l116 654h111l-117 -654h344l600 654h138l-643 -699l432 -735h-125l-400 678h-362l-121 -678h-111l121 678h-354l-637 -678h-139z" />
    <glyph glyph-name="uni0417" unicode="&#x417;" horiz-adv-x="1374" 
d="M647 -12q-275 0 -429.5 110t-154.5 305v15h115v-15q0 -149 126 -231t351 -82q228 0 361 86t133 238q0 129 -108.5 198.5t-299.5 69.5h-254l19 98h237q217 0 347.5 82.5t130.5 220.5q0 125 -111.5 192.5t-312.5 67.5q-209 0 -338.5 -77.5t-155.5 -223.5h-113
q34 197 192 300.5t423 103.5q241 0 384.5 -96t143.5 -256q0 -146 -103.5 -239t-293.5 -126q156 -23 241 -104t85 -205q0 -198 -165.5 -315t-449.5 -117z" />
    <glyph glyph-name="uni0418" unicode="&#x418;" horiz-adv-x="1527" 
d="M49 0l254 1434h111l-224 -1260l1254 1260h104l-254 -1434h-110l223 1260l-1253 -1260h-105z" />
    <glyph glyph-name="uni0419" unicode="&#x419;" horiz-adv-x="1527" 
d="M49 0l254 1434h111l-224 -1260l1254 1260h104l-254 -1434h-110l223 1260l-1253 -1260h-105zM983 1575q-149 0 -224.5 67t-68.5 193h88q-2 -87 47.5 -134.5t163.5 -47.5q222 0 254 182h88q-50 -260 -348 -260z" />
    <glyph glyph-name="uni041A" unicode="&#x41a;" horiz-adv-x="1435" 
d="M49 0l254 1434h111l-115 -652h371l700 652h146l-748 -697l537 -737h-129l-498 680h-397l-121 -680h-111z" />
    <glyph glyph-name="uni041B" unicode="&#x41b;" horiz-adv-x="1591" 
d="M-72 0l17 102h69q148 0 231 143t148 507l121 682h1096l-254 -1434h-111l236 1331h-881l-104 -596q-49 -275 -111.5 -433.5t-151.5 -230t-221 -71.5h-84z" />
    <glyph glyph-name="uni041C" unicode="&#x41c;" horiz-adv-x="1929" 
d="M49 0l254 1434h131l463 -1301l918 1301h135l-254 -1434h-111l221 1247l-882 -1247h-99l-444 1247l-221 -1247h-111z" />
    <glyph glyph-name="uni041D" unicode="&#x41d;" horiz-adv-x="1513" 
d="M49 0l254 1434h111l-115 -652h1008l116 652h111l-254 -1434h-111l121 680h-1009l-121 -680h-111z" />
    <glyph glyph-name="uni041E" unicode="&#x41e;" 
d="M848 -12q-159 0 -294 47.5t-229 133t-147 207.5t-53 267q0 169 66.5 318t181.5 255.5t276.5 168t343.5 61.5q159 0 294 -47.5t229 -133t147 -207.5t53 -267q0 -169 -66.5 -318t-181.5 -255.5t-276.5 -168t-343.5 -61.5zM850 90q160 0 300 53.5t240 145.5t158 221t58 276
q0 252 -168.5 404.5t-446.5 152.5q-160 0 -300 -53.5t-240 -145.5t-157.5 -222t-57.5 -277q0 -252 168 -403.5t446 -151.5z" />
    <glyph glyph-name="uni041F" unicode="&#x41f;" horiz-adv-x="1507" 
d="M49 0l254 1434h1223l-254 -1434h-111l236 1331h-1000l-237 -1331h-111z" />
    <glyph glyph-name="uni0420" unicode="&#x420;" horiz-adv-x="1366" 
d="M49 0l254 1434h645q198 0 322.5 -108t124.5 -279q0 -204 -144 -326.5t-387 -122.5h-598l-106 -598h-111zM285 700h581q192 0 304 93.5t112 248.5q0 132 -93.5 210.5t-248.5 78.5h-545z" />
    <glyph glyph-name="uni0421" unicode="&#x421;" horiz-adv-x="1636" 
d="M829 -12q-322 0 -513 179.5t-191 475.5q0 167 62 315.5t170.5 255.5t263.5 169.5t333 62.5q270 0 450 -121t212 -334h-111q-32 170 -179.5 261t-373.5 91q-155 0 -288.5 -53t-227.5 -146t-147 -222t-53 -277q0 -256 159 -405.5t436 -149.5q217 0 372 88.5t224 263.5h111
q-76 -217 -263.5 -335.5t-445.5 -118.5z" />
    <glyph glyph-name="uni0422" unicode="&#x422;" horiz-adv-x="1396" 
d="M551 0l235 1331h-600l19 103h1308l-18 -103h-598l-235 -1331h-111z" />
    <glyph glyph-name="uni0423" unicode="&#x423;" horiz-adv-x="1406" 
d="M109 0l18 102h102q135 0 202.5 31.5t137.5 128.5l93 125l-480 1047h123l428 -949l686 949h127l-876 -1205q-96 -135 -188 -182t-255 -47h-118z" />
    <glyph glyph-name="uni0424" unicode="&#x424;" horiz-adv-x="2035" 
d="M872 0l23 117h-45q-343 0 -534 139.5t-191 390.5q0 316 247.5 493t688.5 177h43l22 117h107l-23 -117h45q343 0 534 -140t191 -391q0 -316 -246.5 -492.5t-689.5 -176.5h-43l-22 -117h-107zM866 215h45l174 1004h-43q-376 0 -591 -152t-215 -418q0 -209 163 -321.5
t467 -112.5zM1018 215h45q377 0 592 152t215 417q0 209 -163.5 322t-467.5 113h-45z" />
    <glyph glyph-name="uni0425" unicode="&#x425;" horiz-adv-x="1429" 
d="M-51 0l741 737l-450 697h131l399 -615l610 615h142l-697 -703l475 -731h-133l-422 649l-655 -649h-141z" />
    <glyph glyph-name="uni0426" unicode="&#x426;" horiz-adv-x="1544" 
d="M49 0l254 1434h111l-236 -1332h977l238 1332h110l-235 -1332h153l-69 -395h-111l51 293h-1243z" />
    <glyph glyph-name="uni0427" unicode="&#x427;" horiz-adv-x="1413" 
d="M1067 0l113 635q-247 -94 -502 -94q-251 0 -381.5 94.5t-130.5 277.5q0 44 14 123l70 398h110l-69 -392q-12 -56 -12 -112q0 -287 415 -287q121 0 254.5 27t249.5 75l125 689h111l-256 -1434h-111z" />
    <glyph glyph-name="uni0428" unicode="&#x428;" horiz-adv-x="2191" 
d="M49 0l254 1434h111l-236 -1332h787l237 1332h111l-238 -1332h789l235 1332h111l-254 -1434h-1907z" />
    <glyph glyph-name="uni0429" unicode="&#x429;" horiz-adv-x="2252" 
d="M49 0l254 1434h111l-236 -1332h787l237 1332h111l-238 -1332h789l235 1332h111l-236 -1332h156l-70 -395h-110l51 293h-1952z" />
    <glyph glyph-name="uni042A" unicode="&#x42a;" horiz-adv-x="1773" 
d="M461 0l237 1331h-512l19 103h620l-102 -578h448q244 0 382.5 -104t138.5 -291q0 -203 -162.5 -332t-427.5 -129h-641zM590 102h516q214 0 343.5 98t129.5 253q0 142 -106 221.5t-295 79.5h-471z" />
    <glyph glyph-name="uni042B" unicode="&#x42b;" 
d="M49 0l254 1434h111l-103 -574h449q239 0 372.5 -104t133.5 -291q0 -212 -148.5 -338.5t-400.5 -126.5h-668zM178 102h543q200 0 316 96t116 259q0 144 -101 222.5t-286 78.5h-471zM1427 0l254 1434h111l-254 -1434h-111z" />
    <glyph glyph-name="uni042C" unicode="&#x42c;" horiz-adv-x="1363" 
d="M49 0l254 1434h111l-103 -574h463q239 0 372.5 -104t133.5 -291q0 -212 -148.5 -338.5t-400.5 -126.5h-682zM178 102h557q200 0 316 96t116 259q0 144 -101 222.5t-286 78.5h-485z" />
    <glyph glyph-name="uni042D" unicode="&#x42d;" horiz-adv-x="1636" 
d="M774 -12q-278 0 -467 122.5t-219 331.5h111q32 -167 188.5 -259.5t386.5 -92.5q277 0 463 160.5t223 421.5h-868l16 102h860v14q0 257 -160 406t-436 149q-218 0 -372.5 -89t-223.5 -263h-110q75 217 262.5 336t448.5 119q320 0 511 -179t191 -476q0 -228 -101.5 -411
t-286 -287.5t-417.5 -104.5z" />
    <glyph glyph-name="uni042E" unicode="&#x42e;" horiz-adv-x="2271" 
d="M1346 -12q-212 0 -376 81.5t-254.5 231t-90.5 342.5v37h-344l-121 -680h-111l254 1434h111l-115 -652h338q34 191 152 342t301.5 236.5t400.5 85.5q159 0 294 -47.5t229 -133t147 -207.5t53 -267q0 -169 -66.5 -318t-181.5 -255.5t-276.5 -168t-343.5 -61.5zM1350 90
q212 0 384.5 90.5t270.5 250t98 355.5q0 252 -167.5 404.5t-446.5 152.5q-159 0 -299 -53.5t-240 -145.5t-157.5 -222t-57.5 -277q0 -252 167.5 -403.5t447.5 -151.5z" />
    <glyph glyph-name="uni042F" unicode="&#x42f;" horiz-adv-x="1398" 
d="M1055 0l106 598h-485l-533 -598h-147l545 606q-163 26 -258 128.5t-95 256.5q0 200 147 321.5t390 121.5h694l-254 -1434h-110zM653 700h527l110 631h-557q-202 0 -317 -90.5t-115 -249.5q0 -133 95.5 -212t256.5 -79z" />
    <glyph glyph-name="uni0430" unicode="&#x430;" horiz-adv-x="1273" 
d="M453 -12q-199 0 -306.5 73t-107.5 209q0 324 512 324h453l8 45q8 58 8 84q0 120 -83.5 177.5t-254.5 57.5q-341 0 -420 -210h-106q99 303 536 303q432 0 432 -318q0 -56 -10 -110l-72 -398q-12 -60 5.5 -94.5t87.5 -34.5h47l-17 -96h-71q-92 0 -129 49t-29 131
q-74 -92 -198.5 -142t-284.5 -50zM461 78q213 0 347 89t163 253l16 84h-455q-197 0 -291 -55.5t-94 -172.5q0 -97 79.5 -147.5t234.5 -50.5z" />
    <glyph glyph-name="uni0431" unicode="&#x431;" horiz-adv-x="1335" 
d="M633 -14q-250 0 -393.5 125.5t-143.5 343.5q0 53 19 182q37 207 91 341t147.5 224.5t222 135.5t323.5 65l422 45l-16 -98l-402 -43q-129 -14 -218.5 -36.5t-163.5 -61t-125 -100t-89 -146t-69 -205.5q70 106 197.5 163.5t289.5 57.5q237 0 379.5 -118t142.5 -314
q0 -162 -79 -290t-219 -199.5t-316 -71.5zM635 80q219 0 362.5 128.5t143.5 326.5q0 159 -118.5 254.5t-315.5 95.5q-225 0 -366.5 -122t-141.5 -323q0 -169 115.5 -264.5t320.5 -95.5z" />
    <glyph glyph-name="uni0432" unicode="&#x432;" horiz-adv-x="1183" 
d="M37 0l184 1038h524q168 0 260.5 -61.5t92.5 -173.5q0 -110 -62.5 -182.5t-175.5 -92.5q99 -22 152 -78.5t53 -140.5q0 -147 -111 -228t-317 -81h-600zM158 90h491q151 0 230 55.5t79 157.5q0 84 -69.5 133t-188.5 49h-471zM244 575h485q128 0 195 54.5t67 158.5
q0 78 -64 119t-186 41h-430z" />
    <glyph glyph-name="uni0433" unicode="&#x433;" horiz-adv-x="907" 
d="M37 0l184 1038h754l-17 -96h-649l-168 -942h-104z" />
    <glyph glyph-name="uni0434" unicode="&#x434;" horiz-adv-x="1267" 
d="M-121 -276l64 372h116q80 53 128 161.5t92 354.5l75 426h848l-166 -942h133l-67 -372h-105l50 276h-1014l-49 -276h-105zM932 96l149 850h-641l-61 -350q-38 -215 -79.5 -326.5t-104.5 -173.5h737z" />
    <glyph glyph-name="uni0435" unicode="&#x435;" horiz-adv-x="1302" 
d="M606 -12q-234 0 -379 128.5t-145 338.5q0 172 80.5 308t226.5 212t332 76q231 0 368.5 -118.5t137.5 -316.5q0 -57 -8 -98h-1026q-5 -45 -5 -57q0 -176 114.5 -277.5t311.5 -101.5q162 0 282.5 68t178.5 194h105q-58 -168 -211 -262t-363 -94zM209 606h907v25
q0 159 -108.5 243t-294.5 84t-322.5 -96.5t-181.5 -255.5z" />
    <glyph glyph-name="uni0436" unicode="&#x436;" horiz-adv-x="1644" 
d="M-78 0l508 537l-283 501h119l258 -458h258l80 458h105l-80 -458h256l420 458h118l-458 -501l317 -537h-119l-286 483h-267l-84 -483h-104l84 483h-260l-459 -483h-123z" />
    <glyph glyph-name="uni0437" unicode="&#x437;" horiz-adv-x="1153" 
d="M522 -12q-471 0 -483 315h100q10 -114 106.5 -169.5t284.5 -55.5q186 0 291 59t105 162q0 182 -293 182h-211l14 92h215q157 0 241.5 52t84.5 147q0 91 -87.5 140t-252.5 49q-189 0 -290.5 -53.5t-129.5 -168.5h-104q73 312 530 312q211 0 325.5 -73t114.5 -208
q0 -97 -77 -163t-207 -79q111 -17 172 -78.5t61 -156.5q0 -138 -138.5 -221.5t-371.5 -83.5z" />
    <glyph glyph-name="uni0438" unicode="&#x438;" horiz-adv-x="1296" 
d="M37 0l184 1038h103l-158 -884l999 884h92l-182 -1038h-102l155 885l-997 -885h-94z" />
    <glyph glyph-name="uni0439" unicode="&#x439;" horiz-adv-x="1296" 
d="M37 0l184 1038h103l-158 -884l999 884h92l-182 -1038h-102l155 885l-997 -885h-94zM772 1182q-147 0 -220 67t-60 191h88q-8 -87 38.5 -135t159.5 -48q235 0 264 183h91q-24 -123 -114.5 -190.5t-246.5 -67.5z" />
    <glyph glyph-name="uni043A" unicode="&#x43a;" horiz-adv-x="1165" 
d="M37 0l184 1038h105l-82 -458h301l518 458h137l-565 -499l426 -539h-127l-387 483h-320l-86 -483h-104z" />
    <glyph glyph-name="uni043B" unicode="&#x43b;" horiz-adv-x="1249" 
d="M-84 0l16 96h43q122 0 183.5 97t107.5 360l86 485h860l-182 -1038h-106l168 942h-654l-71 -399q-54 -304 -139 -423.5t-248 -119.5h-64z" />
    <glyph glyph-name="uni043C" unicode="&#x43c;" horiz-adv-x="1593" 
d="M37 0l184 1038h121l379 -915l700 915h135l-184 -1038h-104l157 887l-675 -887h-88l-363 887l-158 -887h-104z" />
    <glyph glyph-name="uni043D" unicode="&#x43d;" horiz-adv-x="1282" 
d="M956 0l84 483h-813l-86 -483h-104l184 1038h105l-82 -458h815l80 458h106l-184 -1038h-105z" />
    <glyph glyph-name="uni043E" unicode="&#x43e;" horiz-adv-x="1347" 
d="M629 -12q-248 0 -397.5 128.5t-149.5 338.5q0 126 48.5 236.5t132.5 189.5t202.5 124.5t253.5 45.5q248 0 397.5 -127.5t149.5 -337.5q0 -126 -48.5 -236.5t-132.5 -190t-202.5 -125.5t-253.5 -46zM637 82q227 0 374.5 142t147.5 356q0 175 -118.5 276.5t-327.5 101.5
q-228 0 -376.5 -141.5t-148.5 -355.5q0 -174 120 -276.5t329 -102.5z" />
    <glyph glyph-name="uni043F" unicode="&#x43f;" horiz-adv-x="1255" 
d="M37 0l184 1038h998l-185 -1038h-104l166 942h-787l-168 -942h-104z" />
    <glyph glyph-name="uni0440" unicode="&#x440;" horiz-adv-x="1384" 
d="M-35 -410l256 1448h90l-28 -231q76 115 211 179.5t297 64.5q236 0 374 -124.5t138 -336.5q0 -168 -83 -306t-228.5 -217t-321.5 -79q-193 0 -317 73.5t-165 210.5l-118 -682h-105zM662 82q231 0 383.5 143t152.5 359q0 177 -116.5 275.5t-323.5 98.5q-150 0 -272.5 -65.5
t-191.5 -181t-69 -258.5q0 -175 115.5 -273t321.5 -98z" />
    <glyph glyph-name="uni0441" unicode="&#x441;" horiz-adv-x="1273" 
d="M616 -12q-241 0 -386.5 128t-145.5 339q0 262 172.5 429t448.5 167q209 0 343 -92.5t160 -253.5h-102q-23 118 -132 185.5t-278 67.5q-224 0 -366 -140t-142 -357q0 -177 116.5 -278t318.5 -101q154 0 271 68.5t161 185.5h106q-47 -158 -196 -253t-349 -95z" />
    <glyph glyph-name="uni0442" unicode="&#x442;" horiz-adv-x="1130" 
d="M422 0l166 942h-490l17 96h1085l-16 -96h-492l-166 -942h-104z" />
    <glyph glyph-name="uni0443" unicode="&#x443;" horiz-adv-x="1155" 
d="M-92 -410l16 97h172q76 0 122.5 30t107.5 121l106 158l-317 1042h106l283 -925l602 925h117l-805 -1237q-82 -124 -147 -167.5t-171 -43.5h-192z" />
    <glyph glyph-name="uni0444" unicode="&#x444;" horiz-adv-x="1679" 
d="M625 -410l71 410h-32q-270 0 -426 123.5t-156 335.5q0 126 55 233.5t153.5 183.5t242 119t313.5 43h33l65 363h103l-66 -363h37q269 0 425 -123t156 -333q0 -257 -211 -419.5t-554 -162.5h-35l-72 -410h-102zM680 92h33l151 854h-35q-289 0 -466 -134t-177 -347
q0 -176 129.5 -274.5t364.5 -98.5zM815 92h35q290 0 466.5 134.5t176.5 348.5q0 175 -129 273t-363 98h-34z" />
    <glyph glyph-name="uni0445" unicode="&#x445;" horiz-adv-x="1122" 
d="M-78 0l580 537l-369 501h125l322 -436l471 436h137l-555 -512l385 -526h-125l-336 459l-498 -459h-137z" />
    <glyph glyph-name="uni0446" unicode="&#x446;" horiz-adv-x="1269" 
d="M37 0l186 1038h105l-170 -942h762l172 942h104l-168 -942h141l-67 -372h-105l50 276h-1010z" />
    <glyph glyph-name="uni0447" unicode="&#x447;" horiz-adv-x="1167" 
d="M842 0l76 422q-200 -70 -377 -70q-207 0 -314.5 76.5t-107.5 222.5q0 40 8 92l53 295h105l-54 -299q-6 -35 -6 -63q0 -115 85 -171t259 -56q175 0 365 77l92 512h104l-184 -1038h-104z" />
    <glyph glyph-name="uni0448" unicode="&#x448;" horiz-adv-x="1732" 
d="M37 0l184 1038h105l-166 -942h579l166 942h107l-168 -942h579l166 942h105l-183 -1038h-1474z" />
    <glyph glyph-name="uni0449" unicode="&#x449;" horiz-adv-x="1769" 
d="M37 0l184 1038h105l-166 -942h579l166 942h107l-168 -942h579l166 942h105l-166 -942h141l-67 -372h-105l49 276h-1509z" />
    <glyph glyph-name="uni044A" unicode="&#x44a;" horiz-adv-x="1449" 
d="M336 0l168 942h-406l17 96h510l-66 -370h399q186 0 287 -74.5t101 -212.5q0 -181 -115.5 -281t-323.5 -100h-571zM457 90h448q162 0 248 73.5t86 211.5q0 203 -295 203h-399z" />
    <glyph glyph-name="uni044B" unicode="&#x44b;" horiz-adv-x="1458" 
d="M37 0l184 1038h105l-66 -370h375q187 0 287 -74.5t100 -212.5q0 -181 -115.5 -281t-322.5 -100h-547zM158 90h424q162 0 247.5 73.5t85.5 211.5q0 203 -294 203h-375zM1135 0l182 1038h104l-184 -1038h-102z" />
    <glyph glyph-name="uni044C" unicode="&#x44c;" horiz-adv-x="1150" 
d="M37 0l184 1038h105l-66 -370h399q187 0 287.5 -74.5t100.5 -212.5q0 -181 -115.5 -281t-323.5 -100h-571zM158 90h448q162 0 248 73.5t86 211.5q0 203 -295 203h-399z" />
    <glyph glyph-name="uni044D" unicode="&#x44d;" horiz-adv-x="1273" 
d="M567 -12q-207 0 -341 92.5t-160 253.5h102q23 -117 132.5 -184.5t277.5 -67.5q195 0 329.5 108.5t167.5 284.5h-626l16 92h620v11q0 177 -116.5 278.5t-317.5 101.5q-154 0 -271 -68t-161 -185h-106q47 158 195.5 252t348.5 94q242 0 387.5 -127.5t145.5 -339.5
q0 -262 -173 -429t-450 -167z" />
    <glyph glyph-name="uni044E" unicode="&#x44e;" horiz-adv-x="1804" 
d="M37 0l184 1038h105l-82 -467h309q42 212 214.5 346t410.5 134q246 0 395 -128t149 -337q0 -126 -48.5 -237t-132.5 -190t-202 -125t-252 -46q-247 0 -395.5 128.5t-148.5 338.5v20h-318l-84 -475h-104zM1094 82q227 0 374.5 142t147.5 356q0 175 -120 276.5t-327 101.5
q-225 0 -372.5 -141.5t-147.5 -355.5q0 -174 119.5 -276.5t325.5 -102.5z" />
    <glyph glyph-name="uni044F" unicode="&#x44f;" horiz-adv-x="1155" 
d="M829 0l70 387h-377l-426 -387h-139l444 399q-142 22 -222.5 101t-80.5 200q0 158 108.5 248t297.5 90h614l-184 -1038h-105zM494 477h421l82 471h-491q-139 0 -220 -66t-81 -180q0 -102 77 -163.5t212 -61.5z" />
    <glyph glyph-name="uni0450" unicode="&#x450;" horiz-adv-x="1302" 
d="M606 -12q-234 0 -379 128.5t-145 338.5q0 172 80.5 308t226.5 212t332 76q231 0 368.5 -118.5t137.5 -316.5q0 -57 -8 -98h-1026q-5 -45 -5 -57q0 -176 114.5 -277.5t311.5 -101.5q162 0 282.5 68t178.5 194h105q-58 -168 -211 -262t-363 -94zM209 606h907v25
q0 159 -108.5 243t-294.5 84t-322.5 -96.5t-181.5 -255.5zM711 1169l-213 271h133l174 -271h-94z" />
    <glyph glyph-name="uni0451" unicode="&#x451;" horiz-adv-x="1302" 
d="M606 -12q-234 0 -379 128.5t-145 338.5q0 172 80.5 308t226.5 212t332 76q231 0 368.5 -118.5t137.5 -316.5q0 -57 -8 -98h-1026q-5 -45 -5 -57q0 -176 114.5 -277.5t311.5 -101.5q162 0 282.5 68t178.5 194h105q-58 -168 -211 -262t-363 -94zM209 606h907v25
q0 159 -108.5 243t-294.5 84t-322.5 -96.5t-181.5 -255.5zM582 1251q-32 0 -51 19t-19 49q0 32 23 54t55 22t52 -19t20 -49q0 -32 -23 -54t-57 -22zM985 1251q-32 0 -52 19t-20 49q0 32 23 54t57 22q32 0 51 -19t19 -49q0 -32 -23 -54t-55 -22z" />
    <glyph glyph-name="uni0452" unicode="&#x452;" horiz-adv-x="1341" 
d="M631 -410l16 97h178q77 0 119 39t57 129l115 653q14 89 14 135q0 311 -346 311q-192 0 -322 -104t-165 -299l-98 -551h-105l211 1190h-213l10 92h220l26 152h105l-27 -152h434l-12 -92h-438l-64 -367q67 109 186 168.5t261 59.5q214 0 328 -103t114 -295q0 -73 -14 -147
l-117 -658q-23 -135 -88.5 -196.5t-188.5 -61.5h-196z" />
    <glyph glyph-name="uni0453" unicode="&#x453;" horiz-adv-x="907" 
d="M37 0l184 1038h754l-17 -96h-649l-168 -942h-104zM524 1169l248 271h141l-286 -271h-103z" />
    <glyph glyph-name="uni0454" unicode="&#x454;" horiz-adv-x="1273" 
d="M616 -12q-241 0 -386.5 128t-145.5 339q0 262 172.5 429t448.5 167q209 0 343 -92.5t160 -253.5h-102q-23 118 -132 185.5t-278 67.5q-193 0 -328 -108t-169 -283h620l-16 -92h-615v-14q0 -177 116.5 -278t318.5 -101q154 0 271 68.5t161 185.5h106q-47 -158 -196 -253
t-349 -95z" />
    <glyph glyph-name="uni0455" unicode="&#x455;" horiz-adv-x="1140" 
d="M530 -12q-140 0 -249.5 40t-173 115.5t-66.5 175.5h104q7 -114 113.5 -177.5t271.5 -63.5q175 0 280 55t105 154q0 79 -76 122t-270 74q-237 37 -333.5 97.5t-96.5 175.5q0 138 127 216.5t350 78.5q206 0 332.5 -80.5t130.5 -220.5h-104q-6 98 -104.5 154.5t-254.5 56.5
q-174 0 -273 -51t-99 -142q0 -79 73 -119t273 -74q236 -40 333 -101t97 -175q0 -146 -134 -228.5t-356 -82.5z" />
    <glyph glyph-name="uni0456" unicode="&#x456;" horiz-adv-x="362" 
d="M37 0l184 1038h105l-185 -1038h-104zM322 1262q-32 0 -51 18t-19 49q0 32 22 54t56 22q33 0 52 -19t19 -49q0 -33 -22.5 -54t-56.5 -21z" />
    <glyph glyph-name="uni0457" unicode="&#x457;" horiz-adv-x="362" 
d="M37 0l184 1038h105l-185 -1038h-104zM193 1264q-28 0 -44 16.5t-16 44.5q0 35 20.5 57.5t51.5 22.5q29 0 45 -18t16 -46q0 -34 -20.5 -55.5t-52.5 -21.5zM449 1264q-29 0 -46.5 16.5t-17.5 44.5q0 35 21.5 57.5t52.5 22.5q27 0 44 -18t17 -46q0 -33 -20.5 -55t-50.5 -22z
" />
    <glyph glyph-name="uni0458" unicode="&#x458;" horiz-adv-x="372" 
d="M-348 -410l16 97h178q78 0 120 39t57 129l208 1183h105l-211 -1190q-23 -135 -88.5 -196.5t-188.5 -61.5h-196zM330 1262q-32 0 -51 18t-19 49q0 32 22 54t56 22q33 0 52.5 -19t19.5 -49q0 -33 -23 -54t-57 -21z" />
    <glyph glyph-name="uni0459" unicode="&#x459;" horiz-adv-x="1974" 
d="M-84 0l16 96h43q122 0 183.5 97t107.5 360l86 485h838l-74 -413h412q158 0 248 -72.5t90 -198.5q0 -164 -106.5 -259t-291.5 -95h-567l168 942h-631l-71 -399q-54 -304 -139 -423.5t-248 -119.5h-64zM1022 90h444q135 0 214 69t79 189q0 89 -65.5 138t-182.5 49h-409z
" />
    <glyph glyph-name="uni045A" unicode="&#x45a;" horiz-adv-x="1988" 
d="M920 0l90 514h-777l-92 -514h-104l184 1038h105l-76 -428h776l76 428h104l-76 -426h400q163 0 255.5 -70.5t92.5 -197.5q0 -158 -107.5 -251t-291.5 -93h-559zM1038 90h439q135 0 216 67t81 181q0 88 -69 136t-194 48h-395z" />
    <glyph glyph-name="uni045B" unicode="&#x45b;" horiz-adv-x="1343" 
d="M92 1192l10 90h220l26 152h107l-27 -152h434l-12 -90h-438l-66 -369q66 108 186.5 168t262.5 60q214 0 328 -103t114 -295q0 -59 -14 -147l-90 -506h-105l90 508q15 96 15 135q0 311 -347 311q-192 0 -322 -104t-165 -299l-98 -551h-105l209 1192h-213z" />
    <glyph glyph-name="uni045C" unicode="&#x45c;" horiz-adv-x="1165" 
d="M37 0l184 1038h105l-82 -458h301l518 458h137l-565 -499l426 -539h-127l-387 483h-320l-86 -483h-104zM657 1167l248 271h142l-287 -271h-103z" />
    <glyph glyph-name="uni045D" unicode="&#x45d;" horiz-adv-x="1296" 
d="M37 0l184 1038h103l-158 -884l999 884h92l-182 -1038h-102l155 885l-997 -885h-94zM715 1169l-215 271h135l172 -271h-92z" />
    <glyph glyph-name="uni045E" unicode="&#x45e;" horiz-adv-x="1155" 
d="M-92 -410l16 97h172q76 0 122.5 30t107.5 121l106 158l-317 1042h106l283 -925l602 925h117l-805 -1237q-82 -124 -147 -167.5t-171 -43.5h-192zM698 1182q-147 0 -220 67t-60 191h86q-6 -87 41 -135t160 -48q235 0 264 183h90q-24 -123 -115 -190.5t-246 -67.5z" />
    <glyph glyph-name="uni045F" unicode="&#x45f;" horiz-adv-x="1232" 
d="M422 -276l49 276h-434l186 1038h105l-170 -942h762l172 942h104l-184 -1038h-437l-49 -276h-104z" />
    <glyph glyph-name="uni0462" unicode="&#x462;" horiz-adv-x="1431" 
d="M162 1186l14 96h168l27 152h110l-26 -152h528l-16 -96h-531l-57 -326h465q238 0 371 -104t133 -291q0 -212 -148.5 -338.5t-400.5 -126.5h-682l211 1186h-166zM246 102h559q200 0 315 95.5t115 259.5q0 145 -100.5 223t-286.5 78h-486z" />
    <glyph glyph-name="uni0463" unicode="&#x463;" horiz-adv-x="1157" 
d="M45 948l14 90h168l70 396h104l-69 -396h493l-16 -90h-494l-49 -280h400q186 0 285.5 -74.5t99.5 -212.5q0 -181 -115 -281t-322 -100h-571l168 948h-166zM162 90h450q162 0 248 73.5t86 211.5q0 203 -295 203h-401z" />
    <glyph glyph-name="uni0472" unicode="&#x472;" 
d="M848 -12q-159 0 -294 47.5t-229 133t-147 207.5t-53 267q0 169 66.5 318t181.5 255.5t276.5 168t343.5 61.5q159 0 294 -47.5t229 -133t147 -207.5t53 -267q0 -169 -66.5 -318t-181.5 -255.5t-276.5 -168t-343.5 -61.5zM1243 602q-74 0 -164.5 20t-161.5 43.5
t-160.5 43.5t-162.5 20q-205 0 -358 -78v-6q0 -252 168 -403.5t446 -151.5q290 0 496.5 163.5t248.5 418.5q-173 -70 -352 -70zM246 762q175 69 358 69q84 0 174 -19.5t156 -43.5t153 -43.5t164 -19.5q208 0 355 77v4q0 252 -168.5 404.5t-446.5 152.5q-290 0 -497 -162.5
t-248 -418.5z" />
    <glyph glyph-name="uni0473" unicode="&#x473;" horiz-adv-x="1347" 
d="M629 -12q-248 0 -397.5 128.5t-149.5 338.5q0 126 48.5 236.5t132.5 189.5t202.5 124.5t253.5 45.5q248 0 397.5 -127.5t149.5 -337.5q0 -126 -48.5 -236.5t-132.5 -190t-202.5 -125.5t-253.5 -46zM186 545q137 61 277 61q68 0 215 -42t223 -42q143 0 266 60
q0 175 -122 278t-332 103q-206 0 -352 -117t-175 -301zM637 78q203 0 347 115.5t175 298.5q-132 -60 -272 -60q-76 0 -222.5 42t-215.5 42q-152 0 -269 -57q0 -175 122.5 -278t334.5 -103z" />
    <glyph glyph-name="uni0474" unicode="&#x474;" horiz-adv-x="1521" 
d="M569 0l-387 1434h115l354 -1313l455 837q103 190 186 293.5t159 143t175 39.5h55l-18 -103h-43q-73 0 -130 -32.5t-125 -120t-159 -252.5l-508 -926h-129z" />
    <glyph glyph-name="uni0475" unicode="&#x475;" horiz-adv-x="1191" 
d="M412 0l-297 1038h106l268 -929l342 628q97 178 177.5 239.5t220.5 61.5h22l-16 -96h-25q-95 0 -151.5 -49t-136.5 -193l-385 -700h-125z" />
    <glyph glyph-name="uni0490" unicode="&#x490;" horiz-adv-x="1177" 
d="M49 0l254 1434h881l51 280h111l-70 -383h-879l-237 -1331h-111z" />
    <glyph glyph-name="uni0491" unicode="&#x491;" horiz-adv-x="909" 
d="M37 0l184 1038h649l52 279h104l-68 -375h-649l-168 -942h-104z" />
    <glyph glyph-name="uni0492" unicode="&#x492;" horiz-adv-x="1251" 
d="M115 0l116 664h-161l16 96h164l119 674h989l-21 -103h-876l-101 -571h560l-17 -96h-561l-117 -664h-110z" />
    <glyph glyph-name="uni0493" unicode="&#x493;" horiz-adv-x="960" 
d="M92 0l82 467h-162l15 90h161l86 481h754l-16 -96h-650l-67 -385h418l-15 -90h-419l-82 -467h-105z" />
    <glyph glyph-name="uni0496" unicode="&#x496;" horiz-adv-x="2260" 
d="M-51 0l690 735l-395 699h125l370 -654h357l116 654h111l-117 -654h344l600 654h138l-643 -699l372 -633h146l-68 -395h-110l51 293h-84l-400 678h-362l-121 -678h-111l121 678h-354l-637 -678h-139z" />
    <glyph glyph-name="uni0497" unicode="&#x497;" horiz-adv-x="1722" 
d="M-78 0l508 537l-283 501h119l258 -458h258l80 458h105l-80 -458h256l420 458h118l-458 -501l260 -441h141l-68 -379h-104l51 283h-82l-286 483h-267l-84 -483h-104l84 483h-260l-459 -483h-123z" />
    <glyph glyph-name="uni049A" unicode="&#x49a;" horiz-adv-x="1488" 
d="M49 0l254 1434h111l-115 -652h371l700 652h146l-748 -697l463 -635h160l-68 -395h-111l52 293h-88l-498 680h-397l-121 -680h-111z" />
    <glyph glyph-name="uni049B" unicode="&#x49b;" horiz-adv-x="1230" 
d="M37 0l184 1038h105l-82 -458h301l518 458h137l-565 -499l350 -443h148l-68 -379h-104l51 283h-78l-387 483h-320l-86 -483h-104z" />
    <glyph glyph-name="uni04A2" unicode="&#x4a2;" horiz-adv-x="1576" 
d="M49 0l254 1434h111l-115 -652h1008l116 652h111l-236 -1332h154l-70 -395h-110l51 293h-154l121 680h-1009l-121 -680h-111z" />
    <glyph glyph-name="uni04A3" unicode="&#x4a3;" horiz-adv-x="1320" 
d="M956 0l84 483h-813l-86 -483h-104l184 1038h105l-82 -458h815l80 458h106l-168 -942h144l-68 -372h-104l49 276h-142z" />
    <glyph glyph-name="uni04AE" unicode="&#x4ae;" horiz-adv-x="1470" 
d="M588 0l94 528l-500 906h125l443 -799l723 799h137l-817 -906l-95 -528h-110z" />
    <glyph glyph-name="uni04AF" unicode="&#x4af;" horiz-adv-x="1177" 
d="M446 0l-331 1038h110l291 -913l610 913h119l-694 -1038l-72 -410h-104z" />
    <glyph glyph-name="uni04B0" unicode="&#x4b0;" horiz-adv-x="1470" 
d="M588 0l80 442h-383l18 95h375l-496 897h125l443 -799l723 799h137l-809 -897h373l-17 -95h-379l-80 -442h-110z" />
    <glyph glyph-name="uni04B1" unicode="&#x4b1;" horiz-adv-x="1177" 
d="M446 0l-331 1038h110l291 -913l610 913h119l-694 -1038h346l-16 -90h-346l-56 -320h-104l55 320h-346l16 90h346z" />
    <glyph glyph-name="uni04B2" unicode="&#x4b2;" horiz-adv-x="1482" 
d="M-51 0l741 737l-450 697h131l399 -615l610 615h142l-697 -703l410 -629h149l-67 -395h-111l51 293h-90l-422 649l-655 -649h-141z" />
    <glyph glyph-name="uni04B3" unicode="&#x4b3;" horiz-adv-x="1187" 
d="M-78 0l580 537l-369 501h125l322 -436l471 436h137l-555 -512l315 -430h142l-68 -379h-104l51 283h-76l-336 459l-498 -459h-137z" />
    <glyph glyph-name="uni04B6" unicode="&#x4b6;" horiz-adv-x="1474" 
d="M1067 0l113 635q-247 -94 -502 -94q-251 0 -381.5 94.5t-130.5 277.5q0 44 14 123l70 398h110l-69 -392q-12 -56 -12 -112q0 -287 415 -287q121 0 254.5 27t249.5 75l125 689h111l-238 -1332h156l-70 -395h-111l52 293h-156z" />
    <glyph glyph-name="uni04B7" unicode="&#x4b7;" horiz-adv-x="1206" 
d="M842 0l76 422q-200 -70 -377 -70q-207 0 -314.5 76.5t-107.5 222.5q0 40 8 92l53 295h105l-54 -299q-6 -35 -6 -63q0 -115 85 -171t259 -56q175 0 365 77l92 512h104l-167 -942h143l-68 -372h-104l49 276h-141z" />
    <glyph glyph-name="uni04BA" unicode="&#x4ba;" horiz-adv-x="1413" 
d="M416 1434l-113 -635q247 94 502 94q251 0 381.5 -95t130.5 -278q0 -56 -12 -123l-70 -397h-111l70 391q10 62 10 113q0 287 -416 287q-251 0 -503 -103l-123 -688h-111l254 1434h111z" />
    <glyph glyph-name="uni04BB" unicode="&#x4bb;" horiz-adv-x="1284" 
d="M37 0l254 1434h104l-106 -611q67 109 185.5 168.5t260.5 59.5q215 0 330 -103t115 -295q0 -58 -17 -147l-88 -506h-104l88 508q14 71 14 135q0 311 -346 311q-192 0 -321.5 -103.5t-165.5 -299.5l-99 -551h-104z" />
    <glyph glyph-name="uni04C0" unicode="&#x4c0;" horiz-adv-x="395" 
d="M49 0l254 1434h111l-254 -1434h-111z" />
    <glyph glyph-name="uni04CF" unicode="&#x4cf;" horiz-adv-x="364" 
d="M37 0l254 1434h104l-254 -1434h-104z" />
    <glyph glyph-name="uni04D8" unicode="&#x4d8;" horiz-adv-x="1654" 
d="M758 -12q-355 0 -520.5 202t-106.5 558h1356v40q0 257 -160 406t-436 149q-220 0 -373.5 -91t-222.5 -261h-111q75 215 262 335t449 120q319 0 510.5 -178.5t191.5 -476.5q0 -175 -61.5 -324.5t-171.5 -254.5t-266 -164.5t-340 -59.5zM1475 645h-1242
q-35 -262 107 -408.5t430 -146.5q280 0 470.5 151t234.5 404z" />
    <glyph glyph-name="uni04D9" unicode="&#x4d9;" horiz-adv-x="1302" 
d="M696 1051q235 0 380 -128t145 -339q0 -172 -80.5 -308t-226.5 -212t-332 -76q-232 0 -369 118t-137 318q0 57 8 98h1026q4 36 4 56q0 176 -114 278t-310 102q-163 0 -284 -68.5t-179 -195.5h-104q58 168 210.5 262.5t362.5 94.5zM1094 432h-908v-22q0 -160 109.5 -245
t294.5 -85q187 0 323 96.5t181 255.5z" />
    <glyph glyph-name="uni04E2" unicode="&#x4e2;" horiz-adv-x="1527" 
d="M49 0l254 1434h111l-224 -1260l1254 1260h104l-254 -1434h-110l223 1260l-1253 -1260h-105zM670 1679l16 88h625l-17 -88h-624z" />
    <glyph glyph-name="uni04E3" unicode="&#x4e3;" horiz-adv-x="1296" 
d="M37 0l184 1038h103l-158 -884l999 884h92l-182 -1038h-102l155 885l-997 -885h-94zM471 1286l16 86h625l-16 -86h-625z" />
    <glyph glyph-name="uni04E8" unicode="&#x4e8;" 
d="M848 -12q-159 0 -294 47.5t-229 133t-147 207.5t-53 267q0 169 66.5 318t181.5 255.5t276.5 168t343.5 61.5q159 0 294 -47.5t229 -133t147 -207.5t53 -267q0 -169 -66.5 -318t-181.5 -255.5t-276.5 -168t-343.5 -61.5zM850 90q288 0 494 161t251 415h-1359v-21
q0 -252 168 -403.5t446 -151.5zM246 768h1360v18q0 252 -168.5 404.5t-446.5 152.5q-288 0 -494 -160.5t-251 -414.5z" />
    <glyph glyph-name="uni04E9" unicode="&#x4e9;" horiz-adv-x="1347" 
d="M629 -12q-248 0 -397.5 128.5t-149.5 338.5q0 126 48.5 236.5t132.5 189.5t202.5 124.5t253.5 45.5q248 0 397.5 -127.5t149.5 -337.5q0 -126 -48.5 -236.5t-132.5 -190t-202.5 -125.5t-253.5 -46zM637 78q198 0 341 110.5t179 286.5h-977v-14q0 -177 122.5 -280
t334.5 -103zM190 565h977v15q0 177 -121.5 280t-332.5 103q-199 0 -343 -111t-180 -287z" />
    <glyph glyph-name="uni04EE" unicode="&#x4ee;" horiz-adv-x="1406" 
d="M109 0l18 102h102q135 0 202.5 31.5t137.5 128.5l93 125l-480 1047h123l428 -949l686 949h127l-876 -1205q-96 -135 -188 -182t-255 -47h-118zM592 1679l16 88h625l-16 -88h-625z" />
    <glyph glyph-name="uni04EF" unicode="&#x4ef;" horiz-adv-x="1155" 
d="M-92 -410l16 97h172q76 0 122.5 30t107.5 121l106 158l-317 1042h106l283 -925l602 925h117l-805 -1237q-82 -124 -147 -167.5t-171 -43.5h-192zM397 1286l15 86h624l-16 -86h-623z" />
    <glyph glyph-name="glyph00054" horiz-adv-x="415" 
d="M-227 -410l16 97h100q77 0 118.5 39t58.5 129l208 1183h105l-211 -1190q-23 -135 -89 -196.5t-188 -61.5h-118zM375 1262q-32 0 -52 18t-20 49q0 32 23 54t57 22q33 0 52.5 -19t19.5 -49q0 -33 -23 -54t-57 -21z" />
    </font>
</defs>
</svg>
