<?xml version="1.0" standalone="no"?>
<!DOCTYPE svg PUBLIC "-//W3C//DTD SVG 1.1//EN" "http://www.w3.org/Graphics/SVG/1.1/DTD/svg11.dtd" >
<svg xmlns="http://www.w3.org/2000/svg" xmlns:xlink="http://www.w3.org/1999/xlink" version="1.1">
<metadata>
Created by FontForge 20201107 at Fri Nov 14 04:01:45 2025
 By 
Copyright 2025 CoType Foundry. All Rights Reserved.
</metadata>
<defs>
<font id="AeonikExtendedProTRIAL-BlackItalic" horiz-adv-x="1331" >
  <font-face 
    font-family="Aeonik Extended Pro TRIAL Black"
    font-weight="900"
    font-style="italic"
    font-stretch="expanded"
    units-per-em="2048"
    panose-1="2 11 10 3 3 3 0 0 0 0"
    ascent="1638"
    descent="-410"
    x-height="1057"
    cap-height="1434"
    bbox="-301 -422 2554 1888"
    underline-thickness="204"
    underline-position="-276"
    slope="-10"
    unicode-range="U+0020-04EF"
  />
<missing-glyph horiz-adv-x="1236" 
d="M123 -223v1698h1024v-1698h-1024zM322 -18h94v112h57q62 0 99.5 34t37.5 91q0 58 -37.5 92.5t-99.5 34.5h-151v-364zM416 172v96h49q22 0 35.5 -13t13.5 -36q0 -22 -13.5 -34.5t-35.5 -12.5h-49zM692 -18h256v81h-160v64h123v76h-123v61h154v82h-250v-364zM391 455h96
v282h103v82h-299v-82h100v-282zM758 455h96v135l131 229h-106l-72 -133l-68 133h-112l131 -229v-135zM444 926q66 0 106.5 38t45.5 99h-94q-13 -59 -62 -59q-71 0 -71 106q0 107 71 107q48 0 62 -62h94q-5 63 -45.5 101t-106.5 38q-84 0 -129 -49t-45 -135t45 -135t129 -49z
M807 926q81 0 129.5 51.5t48.5 132.5q0 80 -49 132t-129 52q-81 0 -129.5 -52t-48.5 -132q0 -81 48 -132.5t130 -51.5zM807 1004q-39 0 -59.5 29.5t-20.5 76.5q0 48 21 77.5t59 29.5t59 -29.5t21 -77.5q0 -47 -20.5 -76.5t-59.5 -29.5z" />
    <glyph glyph-name=".notdef" horiz-adv-x="1236" 
d="M123 -223v1698h1024v-1698h-1024zM322 -18h94v112h57q62 0 99.5 34t37.5 91q0 58 -37.5 92.5t-99.5 34.5h-151v-364zM416 172v96h49q22 0 35.5 -13t13.5 -36q0 -22 -13.5 -34.5t-35.5 -12.5h-49zM692 -18h256v81h-160v64h123v76h-123v61h154v82h-250v-364zM391 455h96
v282h103v82h-299v-82h100v-282zM758 455h96v135l131 229h-106l-72 -133l-68 133h-112l131 -229v-135zM444 926q66 0 106.5 38t45.5 99h-94q-13 -59 -62 -59q-71 0 -71 106q0 107 71 107q48 0 62 -62h94q-5 63 -45.5 101t-106.5 38q-84 0 -129 -49t-45 -135t45 -135t129 -49z
M807 926q81 0 129.5 51.5t48.5 132.5q0 80 -49 132t-129 52q-81 0 -129.5 -52t-48.5 -132q0 -81 48 -132.5t130 -51.5zM807 1004q-39 0 -59.5 29.5t-20.5 76.5q0 48 21 77.5t59 29.5t59 -29.5t21 -77.5q0 -47 -20.5 -76.5t-59.5 -29.5z" />
    <glyph glyph-name=".null" horiz-adv-x="0" 
 />
    <glyph glyph-name="nonmarkingreturn" horiz-adv-x="682" 
 />
    <glyph glyph-name="space" unicode=" " horiz-adv-x="540" 
 />
    <glyph glyph-name="comma" unicode="," horiz-adv-x="565" 
d="M-70 -307l11 178q67 0 126 13.5t102.5 49t43.5 86.5v11q-27 -17 -70 -17q-61 0 -105 38.5t-44 119.5q0 96 67 153.5t162 57.5q108 0 170 -67t62 -185q0 -200 -143 -319t-382 -119z" />
    <glyph glyph-name="hyphen" unicode="-" horiz-adv-x="1001" 
d="M53 438l49 287h865l-49 -287h-865z" />
    <glyph glyph-name="period" unicode="." horiz-adv-x="565" 
d="M207 -12q-86 0 -140.5 51t-54.5 133q0 92 64.5 154.5t161.5 62.5q86 0 140 -51t54 -133q0 -92 -64.5 -154.5t-160.5 -62.5z" />
    <glyph glyph-name="zero" unicode="0" horiz-adv-x="1562" 
d="M721 -12q-297 0 -465 156t-168 446q0 140 34 267.5t102.5 235t165.5 186t229.5 123t287.5 44.5q297 0 465 -156t168 -446q0 -140 -34 -267.5t-102.5 -235t-165.5 -186t-229.5 -123t-287.5 -44.5zM745 287q86 0 158.5 31t122 83t84 120t50.5 141t16 147q0 168 -75.5 253
t-217.5 85q-86 0 -158.5 -31t-121.5 -83t-83.5 -120t-50.5 -141t-16 -147q0 -168 75.5 -253t216.5 -85z" />
    <glyph glyph-name="one" unicode="1" horiz-adv-x="874" 
d="M307 0l156 874h-381l51 293h254q131 0 158 148l22 119h355l-254 -1434h-361z" />
    <glyph glyph-name="two" unicode="2" horiz-adv-x="1355" 
d="M-57 0l45 272l737 430q174 101 231.5 159t57.5 132t-61 114t-175 40q-136 0 -216 -59t-99 -173h-365q44 258 222 394.5t468 136.5q277 0 433.5 -114.5t156.5 -317.5q0 -181 -119.5 -318.5t-388.5 -265.5l-280 -133h674l-52 -297h-1269z" />
    <glyph glyph-name="three" unicode="3" horiz-adv-x="1427" 
d="M643 -12q-304 0 -464.5 115t-160.5 329v27h355v-19q0 -178 299 -178q155 0 234 46t79 132q0 73 -54.5 108.5t-180.5 35.5h-224l49 282h197q285 0 285 164q0 68 -67 104.5t-191 36.5q-153 0 -229 -42.5t-99 -143.5h-350q45 238 219 349.5t483 111.5q275 0 436.5 -99.5
t161.5 -267.5q0 -274 -366 -346q148 -37 219.5 -109t71.5 -188q0 -206 -189.5 -327t-513.5 -121z" />
    <glyph glyph-name="four" unicode="4" horiz-adv-x="1521" 
d="M809 0l51 285h-852l51 293l928 856h430l-151 -856h233l-51 -293h-234l-51 -285h-354zM442 578h469l93 518z" />
    <glyph glyph-name="five" unicode="5" horiz-adv-x="1415" 
d="M684 -12q-315 0 -481.5 123.5t-155.5 328.5h359q16 -166 282 -166q148 0 230.5 63.5t82.5 174.5q0 95 -69 146t-199 51q-204 0 -287 -123l-352 28l193 820h1134l-51 -299h-805l-47 -199q112 49 303 49q240 0 392.5 -126t152.5 -329q0 -246 -185.5 -394t-496.5 -148z" />
    <glyph glyph-name="six" unicode="6" horiz-adv-x="1464" 
d="M745 -12q-306 0 -482.5 156.5t-176.5 443.5q0 100 37 270q65 283 259 435.5t503 152.5q259 0 410 -111t165 -305h-354q-22 71 -84 102t-182 31q-164 0 -243.5 -76t-113.5 -243q137 110 369 110q251 0 401 -118t150 -316q0 -236 -182.5 -384t-475.5 -148zM752 258
q137 0 213.5 60t76.5 169q0 97 -70.5 147t-207.5 50t-214 -60.5t-77 -168.5q0 -97 71 -147t208 -50z" />
    <glyph glyph-name="seven" unicode="7" horiz-adv-x="1345" 
d="M74 0l905 1135h-840l51 299h1268l-35 -228l-929 -1206h-420z" />
    <glyph glyph-name="eight" unicode="8" horiz-adv-x="1435" 
d="M666 -12q-287 0 -464 112t-177 281q0 157 109.5 255.5t291.5 119.5q-103 34 -169.5 108.5t-66.5 188.5q0 175 180.5 284t475.5 109q263 0 427.5 -102.5t164.5 -260.5q0 -130 -96.5 -222.5t-243.5 -121.5q117 -30 191.5 -112.5t74.5 -212.5q0 -139 -93 -237t-247.5 -143.5
t-357.5 -45.5zM686 231q138 0 224.5 54t86.5 143q0 88 -80 136t-215 48q-137 0 -224 -55.5t-87 -142.5q0 -88 80 -135.5t215 -47.5zM803 887q120 0 196 48.5t76 121.5q0 70 -68.5 107.5t-181.5 37.5q-121 0 -196.5 -48.5t-75.5 -121.5q0 -70 66.5 -107.5t183.5 -37.5z" />
    <glyph glyph-name="nine" unicode="9" horiz-adv-x="1464" 
d="M784 1446q306 0 483 -156.5t177 -443.5q0 -101 -37 -271q-65 -283 -259 -435t-503 -152q-259 0 -410 110.5t-165 304.5h354q22 -71 84 -102t182 -31q164 0 243.5 76.5t113.5 243.5q-139 -111 -369 -111q-251 0 -401 118t-150 316q0 117 48 216t133.5 169t208 109
t267.5 39zM778 1176q-137 0 -214 -60.5t-77 -169.5q0 -97 71 -146.5t208 -49.5t214 60.5t77 168.5q0 97 -71 147t-208 50z" />
    <glyph glyph-name="A" unicode="A" horiz-adv-x="1693" 
d="M-86 0l870 1434h451l360 -1434h-395l-61 272h-645l-156 -272h-424zM662 569h415l-121 516z" />
    <glyph glyph-name="B" unicode="B" horiz-adv-x="1499" 
d="M14 0l252 1434h697q234 0 369.5 -95t135.5 -258q0 -149 -81 -244.5t-226 -115.5q141 -34 202.5 -101.5t61.5 -187.5q0 -200 -180 -316t-489 -116h-742zM442 287h361q246 0 246 159q0 136 -197 136h-358zM543 862h340q104 0 159.5 41t55.5 119q0 61 -44.5 94t-127.5 33
h-332z" />
    <glyph glyph-name="C" unicode="C" horiz-adv-x="1667" 
d="M846 -12q-224 0 -396.5 85.5t-267 239t-94.5 351.5q0 165 65.5 310t178.5 248.5t272.5 163.5t341.5 60q204 0 368.5 -68.5t261 -193.5t105.5 -285h-374q-26 109 -123.5 172.5t-241.5 63.5q-210 0 -342.5 -130t-132.5 -335q0 -171 104 -271t287 -100q148 0 256.5 64
t142.5 172h375q-40 -242 -259.5 -394.5t-526.5 -152.5z" />
    <glyph glyph-name="D" unicode="D" horiz-adv-x="1658" 
d="M14 0l252 1434h588q232 0 411 -80t277 -226t98 -335q0 -237 -109.5 -417t-312 -278t-470.5 -98h-734zM444 307h320q232 0 365 125.5t133 343.5q0 164 -117 257t-324 93h-231z" />
    <glyph glyph-name="E" unicode="E" 
d="M14 0l252 1434h1145l-55 -320h-768l-43 -246h620l-55 -299h-618l-43 -250h794l-55 -319h-1174z" />
    <glyph glyph-name="F" unicode="F" horiz-adv-x="1296" 
d="M14 0l252 1434h1131l-56 -320h-753l-45 -258h614l-55 -299h-613l-98 -557h-377z" />
    <glyph glyph-name="G" unicode="G" horiz-adv-x="1759" 
d="M848 -12q-163 0 -304.5 50.5t-241.5 139.5t-157 215t-57 271q0 165 66.5 310t181 248.5t274.5 163.5t342 60q211 0 379 -66.5t268 -187.5t113 -277h-369q-32 106 -133.5 163t-261.5 57q-211 0 -346 -130.5t-135 -334.5q0 -169 114 -270t304 -101q167 0 279.5 58
t144.5 161v2h-420l51 287h772l-141 -807h-248l-12 156q-85 -82 -204 -125t-259 -43z" />
    <glyph glyph-name="H" unicode="H" horiz-adv-x="1626" 
d="M14 0l252 1434h377l-96 -551h657l99 551h376l-254 -1434h-376l100 563h-657l-101 -563h-377z" />
    <glyph glyph-name="I" unicode="I" horiz-adv-x="589" 
d="M14 0l252 1434h377l-252 -1434h-377z" />
    <glyph glyph-name="J" unicode="J" horiz-adv-x="931" 
d="M-45 0l55 319h234q87 0 134 43.5t64 137.5l164 934h377l-172 -988q-77 -446 -498 -446h-358z" />
    <glyph glyph-name="K" unicode="K" horiz-adv-x="1624" 
d="M14 0l252 1434h377l-102 -578l686 578h549l-727 -592l507 -842h-434l-364 602l-305 -248l-62 -354h-377z" />
    <glyph glyph-name="L" unicode="L" horiz-adv-x="1204" 
d="M14 0l252 1434h377l-194 -1115h671l-55 -319h-1051z" />
    <glyph glyph-name="M" unicode="M" horiz-adv-x="2119" 
d="M14 0l254 1434h467l297 -979l627 979h514l-254 -1434h-369l158 889l-588 -889h-305l-274 889l-158 -889h-369z" />
    <glyph glyph-name="N" unicode="N" horiz-adv-x="1642" 
d="M14 0l254 1434h342l561 -877l156 877h369l-254 -1434h-342l-561 877l-156 -877h-369z" />
    <glyph glyph-name="O" unicode="O" horiz-adv-x="1800" 
d="M901 -12q-237 0 -422 85.5t-288 239.5t-103 351q0 166 67 311.5t183 248.5t279.5 162.5t349.5 59.5q237 0 422 -85.5t288 -239.5t103 -351q0 -166 -67 -311.5t-183 -248.5t-279.5 -162.5t-349.5 -59.5zM909 299q214 0 353 131.5t139 333.5q0 172 -119 271.5t-324 99.5
q-214 0 -352.5 -131.5t-138.5 -333.5q0 -172 118.5 -271.5t323.5 -99.5z" />
    <glyph glyph-name="P" unicode="P" horiz-adv-x="1476" 
d="M14 0l252 1434h711q239 0 382.5 -118.5t143.5 -320.5q0 -243 -165.5 -398t-428.5 -155h-440l-78 -442h-377zM524 750h383q100 0 158.5 58.5t58.5 156.5q0 74 -49.5 117.5t-132.5 43.5h-352z" />
    <glyph glyph-name="Q" unicode="Q" horiz-adv-x="1820" 
d="M1634 0q-89 0 -150 23.5t-112 76.5q-210 -112 -471 -112q-237 0 -422 85.5t-288 239.5t-103 351q0 166 67 311.5t183 248.5t279.5 162.5t349.5 59.5q237 0 422 -85.5t288 -239.5t103 -351q0 -253 -150 -451h25h166l-56 -319h-131zM909 299q128 0 236 51l-17 17
q-44 49 -135 49h-147l55 309h135q82 0 140 -24.5t118 -90.5l58 -61q49 100 49 215q0 172 -119 271.5t-324 99.5q-214 0 -352.5 -131.5t-138.5 -333.5q0 -172 118.5 -271.5t323.5 -99.5z" />
    <glyph glyph-name="R" unicode="R" horiz-adv-x="1499" 
d="M14 0l252 1434h711q239 0 382.5 -118.5t143.5 -320.5q0 -183 -97.5 -320t-266.5 -196l247 -479h-413l-225 442h-279l-78 -442h-377zM524 750h383q100 0 158.5 58.5t58.5 156.5q0 74 -49.5 117.5t-132.5 43.5h-352z" />
    <glyph glyph-name="S" unicode="S" horiz-adv-x="1480" 
d="M713 -12q-201 0 -353 58.5t-236 168t-89 256.5h366q13 -91 102.5 -143t229.5 -52q139 0 214 34.5t75 97.5q0 54 -63 85.5t-238 65.5q-306 58 -433.5 156.5t-127.5 275.5q0 220 172.5 337.5t496.5 117.5q290 0 460.5 -122.5t176.5 -336.5h-366q-8 77 -87 123.5t-202 46.5
q-125 0 -193.5 -32.5t-68.5 -90.5q0 -55 65 -88t238 -65q301 -56 430 -151.5t129 -262.5q0 -227 -184 -353t-514 -126z" />
    <glyph glyph-name="T" unicode="T" horiz-adv-x="1456" 
d="M446 0l197 1114h-491l55 320h1360l-56 -320h-491l-197 -1114h-377z" />
    <glyph glyph-name="U" unicode="U" horiz-adv-x="1601" 
d="M750 -12q-311 0 -479.5 130.5t-168.5 377.5q0 63 13 139l141 799h377l-150 -844q-6 -35 -6 -62q0 -104 80.5 -163.5t220.5 -59.5q162 0 251 78t116 231l143 820h377l-145 -824q-28 -156 -83.5 -269t-147 -193.5t-226 -120t-313.5 -39.5z" />
    <glyph glyph-name="V" unicode="V" horiz-adv-x="1607" 
d="M494 0l-338 1434h387l231 -1016l594 1016h404l-844 -1434h-434z" />
    <glyph glyph-name="W" unicode="W" horiz-adv-x="2410" 
d="M391 0l-215 1434h377l125 -983l506 983h332l161 -983l475 983h402l-721 -1434h-430l-131 915l-451 -915h-430z" />
    <glyph glyph-name="X" unicode="X" horiz-adv-x="1583" 
d="M-92 0l694 756l-412 678h422l260 -428l385 428h465l-671 -721l440 -713h-422l-278 461l-410 -461h-473z" />
    <glyph glyph-name="Y" unicode="Y" horiz-adv-x="1617" 
d="M526 0l95 532l-465 902h415l275 -564l491 564h445l-785 -902l-94 -532h-377z" />
    <glyph glyph-name="Z" unicode="Z" horiz-adv-x="1511" 
d="M-35 0l41 242l944 872h-768l56 320h1353l-41 -242l-944 -873h811l-55 -319h-1397z" />
    <glyph glyph-name="a" unicode="a" horiz-adv-x="1351" 
d="M461 -12q-215 0 -331 81t-116 230q0 167 142.5 260.5t400.5 93.5h340l2 11q6 27 6 47q0 112 -205 112q-108 0 -166 -23.5t-77 -74.5h-351q41 173 193 258.5t422 85.5q260 0 393 -90t133 -262q0 -37 -12 -113l-39 -225q-8 -44 5.5 -66t58.5 -22h40l-51 -291h-182
q-95 0 -142 36t-55 111q-84 -87 -179 -123t-230 -36zM547 231q260 0 309 195l2 8h-323q-76 0 -119 -26t-43 -76q0 -101 174 -101z" />
    <glyph glyph-name="b" unicode="b" horiz-adv-x="1452" 
d="M756 -12q-283 0 -402 162l-61 -150h-289l254 1434h354l-86 -478q134 113 351 113q237 0 381.5 -134t144.5 -353q0 -167 -84 -303t-232 -213.5t-331 -77.5zM725 266q142 0 233 81.5t91 209.5q0 106 -78.5 167.5t-212.5 61.5q-142 0 -233 -81t-91 -209q0 -106 78.5 -168
t212.5 -62z" />
    <glyph glyph-name="c" unicode="c" horiz-adv-x="1361" 
d="M643 -12q-167 0 -301.5 61.5t-212.5 175.5t-78 260q0 258 191 421t493 163q255 0 420 -119t168 -305h-360q-14 64 -78.5 102.5t-163.5 38.5q-138 0 -226.5 -80t-88.5 -208q0 -105 70.5 -166.5t191.5 -61.5q100 0 169 40t97 110h369q-120 -432 -660 -432z" />
    <glyph glyph-name="d" unicode="d" horiz-adv-x="1449" 
d="M575 -12q-237 0 -381.5 134t-144.5 353q0 167 84 303t232 213.5t331 77.5q256 0 377 -133l86 498h354l-251 -1434h-289l-10 135q-138 -147 -388 -147zM694 270q142 0 233 81.5t91 209.5q0 106 -78.5 168t-212.5 62q-142 0 -233 -81.5t-91 -209.5q0 -106 78.5 -168
t212.5 -62z" />
    <glyph glyph-name="e" unicode="e" horiz-adv-x="1378" 
d="M657 -12q-280 0 -443 136t-163 361q0 259 194.5 421.5t510.5 162.5q162 0 291 -55.5t205.5 -165t76.5 -256.5q0 -94 -16 -150h-918v-8q0 -80 70 -135t203 -55q202 0 276 108h348q-69 -178 -232 -271t-403 -93zM428 662h547v6q0 70 -68 112.5t-166 42.5q-106 0 -188.5 -39
t-124.5 -122z" />
    <glyph glyph-name="f" unicode="f" horiz-adv-x="907" 
d="M123 0l135 764h-207l51 293h207l8 45q56 332 381 332h342l-53 -293h-231q-76 0 -88 -64l-4 -20h315l-51 -293h-316l-135 -764h-354z" />
    <glyph glyph-name="g" unicode="g" horiz-adv-x="1452" 
d="M584 -422q-274 0 -435 103t-167 282h350q11 -62 81.5 -95.5t192.5 -33.5q149 0 230 52t98 159l14 98q-136 -127 -370 -127q-236 0 -381.5 131t-145.5 345q0 163 84 295t232.5 207t330.5 75q285 0 404 -162l57 150h289l-184 -1049q-40 -226 -201.5 -328t-478.5 -102z
M696 291q142 0 230 77.5t88 200.5q0 102 -76 160.5t-209 58.5q-142 0 -229.5 -77.5t-87.5 -200.5q0 -102 75.5 -160.5t208.5 -58.5z" />
    <glyph glyph-name="h" unicode="h" horiz-adv-x="1413" 
d="M4 0l252 1434h354l-82 -469q141 104 342 104q203 0 333 -119t130 -305q0 -86 -14 -158l-86 -487h-354l82 481q10 62 10 101q0 104 -54 154t-165 50q-249 0 -297 -262l-97 -524h-354z" />
    <glyph glyph-name="i" unicode="i" horiz-adv-x="548" 
d="M4 0l186 1057h355l-187 -1057h-354zM414 1151q-81 0 -135 50.5t-54 125.5q0 81 57 135t140 54q81 0 134.5 -51t53.5 -126q0 -81 -56.5 -134.5t-139.5 -53.5z" />
    <glyph glyph-name="j" unicode="j" horiz-adv-x="559" 
d="M-301 -410l51 293h144q102 0 120 115l187 1059h354l-195 -1098q-35 -199 -122 -284t-261 -85h-278zM424 1151q-81 0 -134.5 50.5t-53.5 125.5q0 81 57 135t139 54q81 0 135 -51t54 -126q0 -81 -57 -134.5t-140 -53.5z" />
    <glyph glyph-name="k" unicode="k" horiz-adv-x="1345" 
d="M4 0l252 1434h354l-137 -775l514 398h463l-549 -422l359 -635h-398l-233 426l-226 -174l-45 -252h-354z" />
    <glyph glyph-name="l" unicode="l" horiz-adv-x="546" 
d="M4 0l252 1434h354l-252 -1434h-354z" />
    <glyph glyph-name="m" unicode="m" horiz-adv-x="2162" 
d="M4 0l186 1057h293l6 -121q145 133 351 133q131 0 229.5 -58t132.5 -153q138 211 449 211q189 0 310.5 -119.5t121.5 -304.5q0 -81 -15 -158l-86 -487h-354l82 481q10 56 10 101q0 104 -46.5 154t-141.5 50q-113 0 -181 -73.5t-94 -225.5l-86 -487h-354l82 481
q10 56 10 101q0 104 -46.5 154t-141.5 50q-107 0 -175.5 -70.5t-92.5 -199.5l-95 -516h-354z" />
    <glyph glyph-name="n" unicode="n" horiz-adv-x="1413" 
d="M4 0l186 1057h293l6 -123q150 135 381 135q203 0 333 -119t130 -305q0 -86 -14 -158l-86 -487h-354l82 481q10 62 10 101q0 104 -54 154t-165 50q-249 0 -297 -262l-97 -524h-354z" />
    <glyph glyph-name="o" unicode="o" horiz-adv-x="1429" 
d="M672 -12q-280 0 -450.5 136t-170.5 361q0 170 90 303t251 207t366 74q280 0 450 -136t170 -362q0 -170 -89.5 -303t-250.5 -206.5t-366 -73.5zM698 270q146 0 236 80.5t90 208.5q0 106 -78.5 166.5t-214.5 60.5q-146 0 -235.5 -80t-89.5 -208q0 -106 78 -167t214 -61z
" />
    <glyph glyph-name="p" unicode="p" horiz-adv-x="1449" 
d="M-70 -410l258 1467h289l10 -135q138 147 387 147q237 0 382 -134t145 -353q0 -167 -84 -303t-232 -213.5t-331 -77.5q-256 0 -377 133l-92 -531h-355zM723 266q142 0 233 81.5t91 209.5q0 106 -78.5 167.5t-212.5 61.5q-142 0 -233 -81t-91 -209q0 -106 78.5 -168
t212.5 -62z" />
    <glyph glyph-name="q" unicode="q" horiz-adv-x="1452" 
d="M836 -410l90 510q-133 -112 -351 -112q-237 0 -381.5 134t-144.5 353q0 167 84 303t232 213.5t331 77.5q283 0 402 -162l61 150h289l-258 -1467h-354zM694 270q142 0 233 81.5t91 209.5q0 106 -78.5 168t-212.5 62q-142 0 -233 -81.5t-91 -209.5q0 -106 78.5 -168
t212.5 -62z" />
    <glyph glyph-name="r" unicode="r" horiz-adv-x="907" 
d="M4 0l186 1057h293l4 -146q66 76 144.5 111t183.5 35h154l-56 -314h-194q-121 0 -184.5 -58.5t-88.5 -192.5l-88 -492h-354z" />
    <glyph glyph-name="s" unicode="s" horiz-adv-x="1251" 
d="M575 -12q-263 0 -411 96.5t-154 273.5h326q7 -61 73.5 -96t174.5 -35q245 0 245 92q0 22 -19.5 36t-69.5 25.5t-150 25.5q-256 35 -375 109t-119 196q0 164 153.5 261t414.5 97q247 0 400 -96t159 -254h-328q-9 110 -231 110q-109 0 -166.5 -19.5t-57.5 -53.5
q0 -26 17 -39.5t64 -23.5t153 -23q266 -32 384 -104.5t118 -200.5q0 -177 -160 -277t-441 -100z" />
    <glyph glyph-name="t" unicode="t" horiz-adv-x="919" 
d="M473 0q-142 0 -217.5 71t-75.5 205q0 39 10 101l68 387h-207l51 293h207l51 297h355l-51 -297h297l-52 -293h-297l-59 -346q-4 -28 -4 -43q0 -44 22.5 -63t73.5 -19h180l-51 -293h-301z" />
    <glyph glyph-name="u" unicode="u" horiz-adv-x="1400" 
d="M537 -12q-199 0 -328 119.5t-129 304.5q0 85 14 157l86 488h355l-82 -482q-11 -68 -11 -100q0 -205 213 -205q120 0 195 66.5t98 193.5l94 527h355l-187 -1057h-292l-7 123q-150 -135 -374 -135z" />
    <glyph glyph-name="v" unicode="v" horiz-adv-x="1339" 
d="M360 0l-272 1057h361l172 -733l426 733h389l-637 -1057h-439z" />
    <glyph glyph-name="w" unicode="w" horiz-adv-x="2011" 
d="M317 0l-229 1057h365l112 -684l365 684h315l127 -684l350 684h385l-598 -1057h-374l-113 621l-330 -621h-375z" />
    <glyph glyph-name="x" unicode="x" horiz-adv-x="1333" 
d="M-104 0l579 551l-346 506h403l191 -279l283 279h421l-540 -520l366 -537h-403l-211 309l-322 -309h-421z" />
    <glyph glyph-name="y" unicode="y" horiz-adv-x="1347" 
d="M-57 -410l51 293h186q64 0 94 13.5t62 56.5l41 55l-289 1049h369l166 -729l436 729h385l-772 -1213q-99 -155 -183.5 -204.5t-244.5 -49.5h-301z" />
    <glyph glyph-name="z" unicode="z" horiz-adv-x="1232" 
d="M-37 0l37 233l662 531h-535l51 293h1069l-37 -234l-661 -530h592l-51 -293h-1127z" />
    <glyph glyph-name="uni00A0" unicode="&#xa0;" horiz-adv-x="540" 
 />
    <glyph glyph-name="Alphatonos" unicode="&#x386;" horiz-adv-x="1693" 
d="M-86 0l870 1434h451l360 -1434h-395l-61 272h-645l-156 -272h-424zM662 569h415l-121 516zM133 1083l103 351h354l-230 -351h-227z" />
    <glyph glyph-name="Epsilontonos" unicode="&#x388;" horiz-adv-x="1638" 
d="M322 0l251 1434h1145l-55 -320h-768l-43 -246h621l-56 -299h-618l-43 -250h794l-55 -319h-1173zM39 1083l102 351h355l-230 -351h-227z" />
    <glyph glyph-name="Etatonos" unicode="&#x389;" horiz-adv-x="1933" 
d="M322 0l251 1434h377l-96 -551h657l99 551h377l-254 -1434h-377l100 563h-657l-101 -563h-376zM39 1083l102 351h355l-230 -351h-227z" />
    <glyph glyph-name="Iotatonos" unicode="&#x38a;" horiz-adv-x="897" 
d="M322 0l251 1434h377l-252 -1434h-376zM39 1083l102 351h355l-230 -351h-227z" />
    <glyph glyph-name="Omicrontonos" unicode="&#x38c;" horiz-adv-x="1902" 
d="M1004 -12q-237 0 -422.5 85.5t-288.5 239.5t-103 351q0 166 67 311.5t183 248.5t279.5 162.5t349.5 59.5q237 0 422 -85.5t288 -239.5t103 -351q0 -166 -67 -311.5t-183 -248.5t-279 -162.5t-349 -59.5zM1012 299q214 0 352.5 131.5t138.5 333.5q0 172 -118.5 271.5
t-323.5 99.5q-214 0 -353 -131.5t-139 -333.5q0 -172 119 -271.5t324 -99.5zM-45 1083l102 351h355l-230 -351h-227z" />
    <glyph glyph-name="Upsilontonos" unicode="&#x38e;" horiz-adv-x="1945" 
d="M854 0l94 532l-465 902h416l275 -564l491 564h444l-784 -902l-94 -532h-377zM-20 1083l102 351h354l-229 -351h-227z" />
    <glyph glyph-name="Omegatonos" unicode="&#x38f;" horiz-adv-x="1912" 
d="M104 0l56 319h424l4 25q-161 38 -254.5 156t-93.5 282q0 187 112.5 339t311.5 238.5t444 86.5q361 0 577 -154t216 -413q0 -217 -136 -361.5t-370 -173.5l-4 -25h421l-55 -319h-680l80 446q180 43 274.5 139t94.5 234q0 146 -114 231t-312 85q-217 0 -349.5 -104
t-132.5 -277q0 -217 244 -308l-80 -446h-678zM-27 1083l103 351h354l-229 -351h-228z" />
    <glyph glyph-name="iotadieresistonos" unicode="&#x390;" horiz-adv-x="663" 
d="M334 0q-289 0 -289 242q0 48 8 92l127 723h355l-113 -635q-6 -27 -6 -47q0 -43 24.5 -62.5t79.5 -19.5h82l-51 -293h-217zM268 1161l45 350h285l-143 -350h-187zM31 1178q-72 0 -118 44t-46 113q0 74 53.5 123t130.5 49q74 0 120 -43.5t46 -113.5q0 -73 -54 -122.5
t-132 -49.5zM768 1178q-72 0 -118 44t-46 113q0 73 52.5 122.5t129.5 49.5q75 0 121.5 -43.5t46.5 -113.5q0 -72 -54 -122t-132 -50z" />
    <glyph glyph-name="Alpha" unicode="&#x391;" horiz-adv-x="1693" 
d="M-86 0l870 1434h451l360 -1434h-395l-61 272h-645l-156 -272h-424zM662 569h415l-121 516z" />
    <glyph glyph-name="Beta" unicode="&#x392;" horiz-adv-x="1499" 
d="M14 0l252 1434h697q234 0 369.5 -95t135.5 -258q0 -149 -81 -244.5t-226 -115.5q141 -34 202.5 -101.5t61.5 -187.5q0 -200 -180 -316t-489 -116h-742zM442 287h361q246 0 246 159q0 136 -197 136h-358zM543 862h340q104 0 159.5 41t55.5 119q0 61 -44.5 94t-127.5 33
h-332z" />
    <glyph glyph-name="Gamma" unicode="&#x393;" horiz-adv-x="1273" 
d="M14 0l254 1434h1116l-55 -320h-741l-197 -1114h-377z" />
    <glyph glyph-name="uni0394" unicode="&#x394;" horiz-adv-x="1548" 
d="M-76 0l43 242l740 1192h454l320 -1192l-43 -242h-1514zM424 319h653l-192 768z" />
    <glyph glyph-name="Epsilon" unicode="&#x395;" 
d="M14 0l252 1434h1145l-55 -320h-768l-43 -246h620l-55 -299h-618l-43 -250h794l-55 -319h-1174z" />
    <glyph glyph-name="Zeta" unicode="&#x396;" horiz-adv-x="1511" 
d="M-35 0l41 242l944 872h-768l56 320h1353l-41 -242l-944 -873h811l-55 -319h-1397z" />
    <glyph glyph-name="Eta" unicode="&#x397;" horiz-adv-x="1626" 
d="M14 0l252 1434h377l-96 -551h657l99 551h376l-254 -1434h-376l100 563h-657l-101 -563h-377z" />
    <glyph glyph-name="Theta" unicode="&#x398;" horiz-adv-x="1806" 
d="M588 594l43 246h653l-43 -246h-653zM903 -12q-237 0 -423 85t-290 239.5t-104 351.5q0 166 67.5 311.5t184.5 248.5t281 162.5t350 59.5q237 0 423 -85t290 -239.5t104 -351.5q0 -166 -67.5 -311.5t-184.5 -248.5t-281 -162.5t-350 -59.5zM911 299q223 0 364.5 131
t141.5 334q0 173 -120.5 272t-335.5 99q-223 0 -364.5 -131t-141.5 -334q0 -173 120.5 -272t335.5 -99z" />
    <glyph glyph-name="Iota" unicode="&#x399;" horiz-adv-x="589" 
d="M14 0l252 1434h377l-252 -1434h-377z" />
    <glyph glyph-name="Kappa" unicode="&#x39a;" horiz-adv-x="1624" 
d="M14 0l252 1434h377l-102 -578l686 578h549l-727 -592l507 -842h-434l-364 602l-305 -248l-62 -354h-377z" />
    <glyph glyph-name="Lambda" unicode="&#x39b;" horiz-adv-x="1642" 
d="M-86 0l844 1434h448l338 -1434h-383l-239 1036l-607 -1036h-401z" />
    <glyph glyph-name="Mu" unicode="&#x39c;" horiz-adv-x="2119" 
d="M14 0l254 1434h467l297 -979l627 979h514l-254 -1434h-369l158 889l-588 -889h-305l-274 889l-158 -889h-369z" />
    <glyph glyph-name="Nu" unicode="&#x39d;" horiz-adv-x="1642" 
d="M14 0l254 1434h342l561 -877l156 877h369l-254 -1434h-342l-561 877l-156 -877h-369z" />
    <glyph glyph-name="Xi" unicode="&#x39e;" horiz-adv-x="1421" 
d="M-41 0l55 319h1319l-55 -319h-1319zM170 561l55 320h1098l-55 -320h-1098zM172 1114l55 320h1286l-55 -320h-1286z" />
    <glyph glyph-name="Omicron" unicode="&#x39f;" horiz-adv-x="1800" 
d="M901 -12q-237 0 -422 85.5t-288 239.5t-103 351q0 166 67 311.5t183 248.5t279.5 162.5t349.5 59.5q237 0 422 -85.5t288 -239.5t103 -351q0 -166 -67 -311.5t-183 -248.5t-279.5 -162.5t-349.5 -59.5zM909 299q214 0 353 131.5t139 333.5q0 172 -119 271.5t-324 99.5
q-214 0 -352.5 -131.5t-138.5 -333.5q0 -172 118.5 -271.5t323.5 -99.5z" />
    <glyph glyph-name="Pi" unicode="&#x3a0;" horiz-adv-x="1622" 
d="M14 0l252 1434h1409l-254 -1434h-377l197 1114h-653l-197 -1114h-377z" />
    <glyph glyph-name="Rho" unicode="&#x3a1;" horiz-adv-x="1476" 
d="M14 0l252 1434h711q239 0 382.5 -118.5t143.5 -320.5q0 -243 -165.5 -398t-428.5 -155h-440l-78 -442h-377zM524 750h383q100 0 158.5 58.5t58.5 156.5q0 74 -49.5 117.5t-132.5 43.5h-352z" />
    <glyph glyph-name="Sigma" unicode="&#x3a3;" horiz-adv-x="1511" 
d="M-35 0l41 242l641 510l-450 440l41 242h1353l-55 -320h-762l295 -321l-20 -121l-443 -353h811l-55 -319h-1397z" />
    <glyph glyph-name="Tau" unicode="&#x3a4;" horiz-adv-x="1456" 
d="M446 0l197 1114h-491l55 320h1360l-56 -320h-491l-197 -1114h-377z" />
    <glyph glyph-name="Upsilon" unicode="&#x3a5;" horiz-adv-x="1617" 
d="M526 0l95 532l-465 902h415l275 -564l491 564h445l-785 -902l-94 -532h-377z" />
    <glyph glyph-name="Phi" unicode="&#x3a6;" horiz-adv-x="2138" 
d="M786 -41l25 139h-27q-205 0 -365 69t-248.5 194t-88.5 284q0 208 113.5 364.5t322.5 241t486 84.5h26l25 140h360l-24 -140h26q205 0 365.5 -69t250 -194t89.5 -284q0 -208 -113.5 -364.5t-323 -241t-487.5 -84.5h-27l-24 -139h-361zM836 389h26l117 655h-27
q-227 0 -363 -103.5t-136 -278.5q0 -129 100 -201t283 -72zM1225 389h26q227 0 363.5 104t136.5 279q0 129 -101 200.5t-284 71.5h-27z" />
    <glyph glyph-name="Chi" unicode="&#x3a7;" horiz-adv-x="1583" 
d="M-92 0l694 756l-412 678h422l260 -428l385 428h465l-671 -721l440 -713h-422l-278 461l-410 -461h-473z" />
    <glyph glyph-name="Psi" unicode="&#x3a8;" horiz-adv-x="1970" 
d="M711 0l57 330q-306 40 -455 182.5t-149 390.5q0 75 16 176l62 355h364l-61 -353q-15 -88 -15 -139q0 -133 67.5 -205t225.5 -96l140 793h364l-141 -801q192 22 293 114t133 277l71 410h365l-80 -451q-55 -316 -264.5 -481t-573.5 -185l-55 -317h-364z" />
    <glyph glyph-name="uni03A9" unicode="&#x3a9;" horiz-adv-x="1789" 
d="M-18 0l55 319h424l4 25q-161 38 -254.5 156t-93.5 282q0 187 112.5 339t311.5 238.5t444 86.5q361 0 577 -154t216 -413q0 -217 -136 -361.5t-370 -173.5l-4 -25h422l-56 -319h-680l80 446q180 43 274.5 139t94.5 234q0 146 -114 231t-312 85q-217 0 -349 -104t-132 -277
q0 -218 243 -308l-80 -446h-677z" />
    <glyph glyph-name="Iotadieresis" unicode="&#x3aa;" horiz-adv-x="589" 
d="M14 0l252 1434h377l-252 -1434h-377zM240 1540q-78 0 -129.5 48t-51.5 120q0 77 55 128.5t134 51.5q78 0 129 -48t51 -120q0 -77 -54.5 -128.5t-133.5 -51.5zM758 1540q-78 0 -129 48t-51 120q0 77 54.5 128.5t133.5 51.5q78 0 129 -48t51 -120q0 -77 -54.5 -128.5
t-133.5 -51.5z" />
    <glyph glyph-name="Upsilondieresis" unicode="&#x3ab;" horiz-adv-x="1617" 
d="M526 0l95 532l-465 902h415l275 -564l491 564h445l-785 -902l-94 -532h-377zM735 1540q-78 0 -129 48t-51 120q0 77 54.5 128.5t133.5 51.5q78 0 129.5 -48t51.5 -120q0 -77 -55 -128.5t-134 -51.5zM1253 1540q-78 0 -129 48t-51 120q0 77 55 128.5t134 51.5
q78 0 129 -48t51 -120q0 -77 -55 -128.5t-134 -51.5z" />
    <glyph glyph-name="alphatonos" unicode="&#x3ac;" horiz-adv-x="1488" 
d="M575 -12q-237 0 -381.5 134t-144.5 353q0 167 84 303t232 213.5t331 77.5q283 0 402 -162l61 150h289l-119 -676q-9 -49 5.5 -69.5t56.5 -20.5h36l-51 -291h-174q-198 0 -229 147q-138 -159 -398 -159zM694 270q142 0 233 81.5t91 209.5q0 106 -78.5 168t-212.5 62
q-142 0 -233 -81.5t-91 -209.5q0 -106 78.5 -168t212.5 -62zM680 1161l102 350h355l-230 -350h-227z" />
    <glyph glyph-name="epsilontonos" unicode="&#x3ad;" horiz-adv-x="1245" 
d="M539 -12q-263 0 -402 80.5t-139 234.5q0 98 72 164t202 88q-176 58 -176 211q0 140 157 221.5t427 81.5q275 0 420.5 -96t140.5 -273h-344q-11 71 -67 102.5t-171 31.5q-217 0 -217 -95q0 -42 40.5 -65t115.5 -23h180l-37 -237h-200q-85 0 -137 -25.5t-52 -66.5
q0 -52 54.5 -75.5t177.5 -23.5q240 0 264 144h344q-23 -195 -182 -287t-471 -92zM578 1161l102 350h354l-229 -350h-227z" />
    <glyph glyph-name="etatonos" unicode="&#x3ae;" horiz-adv-x="1462" 
d="M856 -410l154 891q10 56 10 101q0 104 -54 154t-165 50q-123 0 -198.5 -66.5t-98.5 -195.5l-96 -524h-355l119 676q9 49 -5 69.5t-56 20.5h-39l51 291h176q190 0 225 -135q156 147 396 147q203 0 332.5 -119t129.5 -305q0 -86 -14 -158l-158 -897h-354zM606 1161l103 350
h354l-229 -350h-228z" />
    <glyph glyph-name="iotatonos" unicode="&#x3af;" horiz-adv-x="663" 
d="M334 0q-289 0 -289 242q0 48 8 92l127 723h355l-113 -635q-6 -27 -6 -47q0 -43 24.5 -62.5t79.5 -19.5h82l-51 -293h-217zM252 1161l102 350h355l-230 -350h-227z" />
    <glyph glyph-name="upsilondieresistonos" unicode="&#x3b0;" horiz-adv-x="1366" 
d="M598 -12q-252 0 -385 115.5t-133 308.5q0 87 14 159l86 486h355l-84 -473q-11 -68 -11 -105q0 -104 52.5 -154.5t162.5 -50.5q129 0 188 65.5t89 233.5l86 484h354l-96 -541q-24 -138 -70 -234t-125.5 -163.5t-198 -99t-284.5 -31.5zM688 1161l45 350h285l-144 -350h-186
zM451 1178q-72 0 -118 44t-46 113q0 74 53.5 123t130.5 49q74 0 120 -43.5t46 -113.5q0 -73 -54 -122.5t-132 -49.5zM1188 1178q-72 0 -118 44t-46 113q0 73 52.5 122.5t129.5 49.5q75 0 121.5 -43.5t46.5 -113.5q0 -72 -54 -122t-132 -50z" />
    <glyph glyph-name="alpha" unicode="&#x3b1;" horiz-adv-x="1488" 
d="M575 -12q-237 0 -381.5 134t-144.5 353q0 167 84 303t232 213.5t331 77.5q283 0 402 -162l61 150h289l-119 -676q-9 -49 5.5 -69.5t56.5 -20.5h36l-51 -291h-174q-198 0 -229 147q-138 -159 -398 -159zM694 270q142 0 233 81.5t91 209.5q0 106 -78.5 168t-212.5 62
q-142 0 -233 -81.5t-91 -209.5q0 -106 78.5 -168t212.5 -62z" />
    <glyph glyph-name="beta" unicode="&#x3b2;" horiz-adv-x="1464" 
d="M-70 -410l230 1301q52 295 208 425t455 130q264 0 412.5 -102t148.5 -283q0 -116 -76.5 -206t-203.5 -122q134 -28 209.5 -111t75.5 -204q0 -197 -168.5 -313.5t-452.5 -116.5q-270 0 -393 108l-90 -506h-355zM444 492q-20 -125 57.5 -186.5t254.5 -61.5q135 0 208.5 47
t73.5 133q0 78 -74 122t-206 44h-96l43 246h59q117 0 189.5 49.5t72.5 128.5q0 75 -56.5 116t-158.5 41q-126 0 -198.5 -70t-98.5 -216z" />
    <glyph glyph-name="gamma" unicode="&#x3b3;" horiz-adv-x="1347" 
d="M344 -336l62 346l-318 1047h375l170 -699l414 699h397l-684 -1041l-62 -352h-354z" />
    <glyph glyph-name="delta" unicode="&#x3b4;" horiz-adv-x="1400" 
d="M657 -12q-284 0 -450 121.5t-166 330.5q0 156 87 275t243 176q133 47 286 47l-356 229l47 267h1092l-51 -293h-572l227 -146q150 -95 224.5 -219.5t74.5 -257.5q0 -104 -46.5 -199t-132 -169t-217 -118t-290.5 -44zM686 248q132 0 217.5 69.5t85.5 178.5q0 93 -81 149.5
t-212 56.5q-137 0 -219 -66.5t-82 -178.5q0 -95 79.5 -152t211.5 -57z" />
    <glyph glyph-name="epsilon" unicode="&#x3b5;" horiz-adv-x="1245" 
d="M539 -12q-263 0 -402 80.5t-139 234.5q0 98 72 164t202 88q-176 58 -176 211q0 140 157 221.5t427 81.5q275 0 420.5 -96t140.5 -273h-344q-11 71 -67 102.5t-171 31.5q-217 0 -217 -95q0 -42 40.5 -65t115.5 -23h180l-37 -237h-200q-85 0 -137 -25.5t-52 -66.5
q0 -52 54.5 -75.5t177.5 -23.5q240 0 264 144h344q-23 -195 -182 -287t-471 -92z" />
    <glyph glyph-name="zeta" unicode="&#x3b6;" horiz-adv-x="1210" 
d="M709 -276l14 88q8 47 8 86q0 54 -27.5 75.5t-101.5 24.5l-149 4q-228 6 -329 81.5t-101 240.5q0 158 106.5 303.5t388.5 355.5l213 158h-567l53 293h1090l-41 -234l-551 -420q-332 -253 -332 -374q0 -59 43 -85.5t141 -27.5l170 -2q164 -1 241 -67t77 -199
q0 -44 -15 -140l-28 -161h-303z" />
    <glyph glyph-name="eta" unicode="&#x3b7;" horiz-adv-x="1462" 
d="M856 -410l154 891q10 56 10 101q0 104 -54 154t-165 50q-123 0 -198.5 -66.5t-98.5 -195.5l-96 -524h-355l119 676q9 49 -5 69.5t-56 20.5h-39l51 291h176q190 0 225 -135q156 147 396 147q203 0 332.5 -119t129.5 -305q0 -86 -14 -158l-158 -897h-354z" />
    <glyph glyph-name="theta" unicode="&#x3b8;" horiz-adv-x="1425" 
d="M662 -12q-281 0 -431.5 156t-150.5 446q0 258 91.5 452t262 299t397.5 105q281 0 431.5 -156t150.5 -446q0 -258 -91.5 -452t-262 -299t-397.5 -105zM702 276q109 0 195 82.5t129 223.5h-596q2 -155 69 -230.5t203 -75.5zM471 864h592q-5 148 -71.5 220.5t-198.5 72.5
q-106 0 -191.5 -79t-130.5 -214z" />
    <glyph glyph-name="iota" unicode="&#x3b9;" horiz-adv-x="663" 
d="M334 0q-289 0 -289 242q0 48 8 92l127 723h355l-113 -635q-6 -27 -6 -47q0 -43 24.5 -62.5t79.5 -19.5h82l-51 -293h-217z" />
    <glyph glyph-name="kappa" unicode="&#x3ba;" horiz-adv-x="1361" 
d="M4 0l186 1057h355l-74 -426l428 321q85 63 150.5 84t183.5 21h168l-51 -293h-74q-62 0 -96 -12.5t-101 -61.5l-143 -104l334 -586h-398l-210 395l-267 -194l-37 -201h-354z" />
    <glyph glyph-name="lambda" unicode="&#x3bb;" horiz-adv-x="1359" 
d="M-86 0l682 1014l-14 51q-12 43 -39 59.5t-90 16.5h-207l53 293h289q154 0 221 -56.5t113 -218.5l340 -1159h-365l-178 662l-416 -662h-389z" />
    <glyph glyph-name="uni03BC" unicode="&#x3bc;" horiz-adv-x="1452" 
d="M-70 -410l263 1467h354l-82 -482q-10 -62 -10 -100q0 -205 213 -205q120 0 195 66.5t98 193.5l94 527h354l-119 -676q-9 -49 5.5 -69.5t56.5 -20.5h39l-52 -291h-176q-182 0 -223 125q-117 -137 -319 -137q-184 0 -250 106l-88 -504h-353z" />
    <glyph glyph-name="nu" unicode="&#x3bd;" horiz-adv-x="1339" 
d="M360 0l-272 1057h361l172 -733l426 733h389l-637 -1057h-439z" />
    <glyph glyph-name="xi" unicode="&#x3be;" horiz-adv-x="1226" 
d="M741 -276l19 104q6 40 6 70q0 56 -31.5 76.5t-111.5 23.5l-117 4q-239 7 -360 101.5t-121 256.5q0 149 100.5 238t286.5 121q-108 20 -166 72.5t-58 128.5q0 85 69.5 142t193.5 81h-285l49 291h1075l-49 -273q-157 0 -227 -4q-463 -25 -463 -182q0 -41 21 -65t77 -37
t156 -13h268l-51 -285h-313q-178 0 -251 -33t-73 -118q0 -70 55 -98t201 -33l115 -4q169 -6 248 -73t79 -208q0 -62 -12 -133l-27 -151h-303z" />
    <glyph glyph-name="omicron" unicode="&#x3bf;" horiz-adv-x="1429" 
d="M672 -12q-280 0 -450.5 136t-170.5 361q0 170 90 303t251 207t366 74q280 0 450 -136t170 -362q0 -170 -89.5 -303t-250.5 -206.5t-366 -73.5zM698 270q146 0 236 80.5t90 208.5q0 106 -78.5 166.5t-214.5 60.5q-146 0 -235.5 -80t-89.5 -208q0 -106 78 -167t214 -61z
" />
    <glyph glyph-name="pi" unicode="&#x3c0;" horiz-adv-x="1536" 
d="M1155 0q-135 0 -202.5 68.5t-47.5 185.5l90 510h-387l-135 -764h-354l135 764h-182l51 293h1468l-53 -293h-188l-68 -383q-8 -48 5.5 -69t55.5 -21h46l-52 -291h-182z" />
    <glyph glyph-name="rho" unicode="&#x3c1;" horiz-adv-x="1441" 
d="M-80 -410l172 969q43 239 214.5 374.5t432.5 135.5q294 0 473 -137t179 -361q0 -253 -183.5 -418t-464.5 -165q-247 0 -374 133l-95 -531h-354zM713 270q144 0 233.5 80.5t89.5 208.5q0 106 -78 166.5t-213 60.5q-144 0 -233.5 -80t-89.5 -208q0 -106 78 -167t213 -61z
" />
    <glyph glyph-name="sigma1" unicode="&#x3c2;" horiz-adv-x="1343" 
d="M727 -276l14 88q9 53 9 86q0 54 -27.5 75.5t-101.5 24.5l-48 2q-225 8 -373.5 142.5t-148.5 349.5q0 167 86.5 298.5t242.5 205t355 73.5q255 0 420 -119t168 -305h-360q-14 64 -78.5 102.5t-163.5 38.5q-137 0 -226 -79t-89 -203q0 -99 69.5 -153.5t192.5 -57.5l88 -2
q165 -4 241 -68.5t76 -197.5q0 -51 -14 -140l-29 -161h-303z" />
    <glyph glyph-name="sigma" unicode="&#x3c3;" horiz-adv-x="1501" 
d="M702 -12q-295 0 -474 135t-179 356q0 167 85.5 299t239.5 205.5t349 73.5h840l-52 -293h-202q67 -82 67 -217q0 -118 -51.5 -221.5t-140.5 -177.5t-214.5 -117t-267.5 -43zM696 270q144 0 235 79t91 204q0 103 -79 162t-214 59q-145 0 -235.5 -78.5t-90.5 -203.5
q0 -103 79 -162.5t214 -59.5z" />
    <glyph glyph-name="tau" unicode="&#x3c4;" horiz-adv-x="1228" 
d="M670 0q-142 0 -217.5 71t-75.5 205q0 39 10 101l68 387h-383l51 293h1161l-51 -293h-424l-59 -346q-5 -35 -5 -43q0 -44 23 -63t74 -19h190l-51 -293h-311z" />
    <glyph glyph-name="upsilon" unicode="&#x3c5;" horiz-adv-x="1366" 
d="M598 -12q-252 0 -385 115.5t-133 308.5q0 87 14 159l86 486h355l-84 -473q-11 -68 -11 -105q0 -104 52.5 -154.5t162.5 -50.5q129 0 188 65.5t89 233.5l86 484h354l-96 -541q-24 -138 -70 -234t-125.5 -163.5t-198 -99t-284.5 -31.5z" />
    <glyph glyph-name="phi" unicode="&#x3c6;" horiz-adv-x="1853" 
d="M588 -410l74 410h-21q-268 0 -430 135.5t-162 339.5q0 181 98.5 313.5t273.5 200.5t406 68h21l47 262h342l-47 -262h22q268 0 430 -135.5t162 -339.5q0 -181 -98.5 -313.5t-273.5 -200.5t-406 -68h-22l-74 -410h-342zM690 276h21l88 504h-21q-162 0 -269.5 -83
t-107.5 -210q0 -96 78 -153.5t211 -57.5zM1055 276h20q162 0 269.5 83t107.5 210q0 96 -78 153.5t-211 57.5h-20z" />
    <glyph glyph-name="chi" unicode="&#x3c7;" horiz-adv-x="1314" 
d="M-186 -410l624 729l-190 375q-21 39 -52 54.5t-92 15.5h-73l51 293h135q61 0 100 -7.5t71 -22.5t62 -53.5t56 -82t69 -127.5l95 -182l374 475h388l-607 -715l187 -389q19 -39 50.5 -54.5t92.5 -15.5h76l-51 -293h-131q-77 0 -121 9t-86 43t-73.5 87t-78.5 154l-92 197
l-383 -490h-401z" />
    <glyph glyph-name="psi" unicode="&#x3c8;" horiz-adv-x="1792" 
d="M559 -410l72 400q-69 3 -125 10.5t-114 22t-102.5 38.5t-84.5 58t-65 82t-40 109t-14 142t18 177l76 428h355l-68 -375q-24 -126 -18.5 -210t60.5 -130t173 -61l184 1036h336l-182 -1036q78 10 134.5 34t93 55.5t62.5 85t40.5 107t29.5 137.5l64 357h354l-80 -445
q-26 -145 -81.5 -254t-124.5 -174.5t-163 -108t-182 -59.5t-198 -24l-72 -402h-338z" />
    <glyph glyph-name="omega" unicode="&#x3c9;" horiz-adv-x="1873" 
d="M496 -12q-212 0 -329.5 113.5t-117.5 320.5q0 165 95.5 347t236.5 288h367q-338 -311 -338 -611q0 -88 39.5 -132t111.5 -44q89 0 140 60.5t73 185.5l37 209h324l-37 -209q-19 -108 22.5 -177t126.5 -69q92 0 147.5 80t55.5 215q0 271 -137 492h354q67 -93 105 -220.5
t38 -258.5q0 -259 -148 -424.5t-380 -165.5q-166 0 -266 73t-117 207q-50 -135 -153.5 -207.5t-249.5 -72.5z" />
    <glyph glyph-name="iotadieresis" unicode="&#x3ca;" horiz-adv-x="663" 
d="M334 0q-289 0 -289 242q0 48 8 92l127 723h355l-113 -635q-6 -27 -6 -47q0 -43 24.5 -62.5t79.5 -19.5h82l-51 -293h-217zM141 1163q-78 0 -129 48t-51 120q0 77 55 128.5t134 51.5q78 0 129 -48t51 -120q0 -77 -55 -128.5t-134 -51.5zM659 1163q-78 0 -129 48t-51 120
q0 77 55 128.5t134 51.5q78 0 129 -48t51 -120q0 -77 -55 -128.5t-134 -51.5z" />
    <glyph glyph-name="upsilondieresis" unicode="&#x3cb;" horiz-adv-x="1366" 
d="M598 -12q-252 0 -385 115.5t-133 308.5q0 87 14 159l86 486h355l-84 -473q-11 -68 -11 -105q0 -104 52.5 -154.5t162.5 -50.5q129 0 188 65.5t89 233.5l86 484h354l-96 -541q-24 -138 -70 -234t-125.5 -163.5t-198 -99t-284.5 -31.5zM561 1163q-78 0 -129 48t-51 120
q0 77 54.5 128.5t133.5 51.5q78 0 129.5 -48t51.5 -120q0 -77 -55 -128.5t-134 -51.5zM1079 1163q-78 0 -129 48t-51 120q0 77 54.5 128.5t133.5 51.5q78 0 129.5 -48t51.5 -120q0 -77 -55 -128.5t-134 -51.5z" />
    <glyph glyph-name="omicrontonos" unicode="&#x3cc;" horiz-adv-x="1429" 
d="M672 -12q-280 0 -450.5 136t-170.5 361q0 170 90 303t251 207t366 74q280 0 450 -136t170 -362q0 -170 -89.5 -303t-250.5 -206.5t-366 -73.5zM698 270q146 0 236 80.5t90 208.5q0 106 -78.5 166.5t-214.5 60.5q-146 0 -235.5 -80t-89.5 -208q0 -106 78 -167t214 -61z
M682 1161l102 350h355l-230 -350h-227z" />
    <glyph glyph-name="upsilontonos" unicode="&#x3cd;" horiz-adv-x="1366" 
d="M598 -12q-252 0 -385 115.5t-133 308.5q0 87 14 159l86 486h355l-84 -473q-11 -68 -11 -105q0 -104 52.5 -154.5t162.5 -50.5q129 0 188 65.5t89 233.5l86 484h354l-96 -541q-24 -138 -70 -234t-125.5 -163.5t-198 -99t-284.5 -31.5zM672 1161l102 350h354l-229 -350
h-227z" />
    <glyph glyph-name="omegatonos" unicode="&#x3ce;" horiz-adv-x="1873" 
d="M496 -12q-212 0 -329.5 113.5t-117.5 320.5q0 165 95.5 347t236.5 288h367q-338 -311 -338 -611q0 -88 39.5 -132t111.5 -44q89 0 140 60.5t73 185.5l37 209h324l-37 -209q-19 -108 22.5 -177t126.5 -69q92 0 147.5 80t55.5 215q0 271 -137 492h354q67 -93 105 -220.5
t38 -258.5q0 -259 -148 -424.5t-380 -165.5q-166 0 -266 73t-117 207q-50 -135 -153.5 -207.5t-249.5 -72.5zM928 1161l102 350h354l-229 -350h-227z" />
    <glyph glyph-name="uni0400" unicode="&#x400;" 
d="M14 0l252 1434h1145l-55 -320h-768l-43 -246h620l-55 -299h-618l-43 -250h794l-55 -319h-1174zM717 1532l-277 303h404l119 -303h-246z" />
    <glyph glyph-name="uni0401" unicode="&#x401;" 
d="M14 0l252 1434h1145l-55 -320h-768l-43 -246h620l-55 -299h-618l-43 -250h794l-55 -319h-1174zM604 1540q-78 0 -129 48t-51 120q0 77 54.5 128.5t133.5 51.5q78 0 129.5 -48t51.5 -120q0 -77 -55 -128.5t-134 -51.5zM1122 1540q-78 0 -129 48t-51 120q0 77 54.5 128.5
t133.5 51.5q78 0 129.5 -48t51.5 -120q0 -77 -55 -128.5t-134 -51.5z" />
    <glyph glyph-name="uni0402" unicode="&#x402;" horiz-adv-x="1900" 
d="M399 0l197 1114h-444l55 320h1360l-56 -320h-538l-43 -244q133 37 299 37q328 0 472.5 -144.5t94.5 -422.5l-22 -127q-41 -236 -196.5 -362.5t-403.5 -126.5h-187l55 313h97q109 0 179 59t89 166l8 53q23 148 -40.5 217.5t-229.5 69.5q-147 0 -268 -31l-101 -571h-377z
" />
    <glyph glyph-name="uni0403" unicode="&#x403;" horiz-adv-x="1273" 
d="M14 0l254 1434h1116l-55 -320h-741l-197 -1114h-377zM684 1538l201 297h403l-323 -297h-281z" />
    <glyph glyph-name="uni0404" unicode="&#x404;" horiz-adv-x="1671" 
d="M846 -12q-224 0 -396.5 85.5t-267 239t-94.5 351.5q0 165 65.5 310t178.5 248.5t272.5 163.5t341.5 60q204 0 368.5 -66.5t261 -186.5t105.5 -273h-374q-27 100 -124.5 160.5t-240.5 60.5q-153 0 -270 -74.5t-172 -200.5h585l-51 -291h-565q28 -134 129.5 -208t259.5 -74
q147 0 256 61t143 160h375q-26 -153 -135 -273t-279 -186.5t-372 -66.5z" />
    <glyph glyph-name="uni0405" unicode="&#x405;" horiz-adv-x="1480" 
d="M713 -12q-201 0 -353 58.5t-236 168t-89 256.5h366q13 -91 102.5 -143t229.5 -52q139 0 214 34.5t75 97.5q0 54 -63 85.5t-238 65.5q-306 58 -433.5 156.5t-127.5 275.5q0 220 172.5 337.5t496.5 117.5q290 0 460.5 -122.5t176.5 -336.5h-366q-8 77 -87 123.5t-202 46.5
q-125 0 -193.5 -32.5t-68.5 -90.5q0 -55 65 -88t238 -65q301 -56 430 -151.5t129 -262.5q0 -227 -184 -353t-514 -126z" />
    <glyph glyph-name="uni0406" unicode="&#x406;" horiz-adv-x="589" 
d="M14 0l252 1434h377l-252 -1434h-377z" />
    <glyph glyph-name="uni0407" unicode="&#x407;" horiz-adv-x="589" 
d="M14 0l252 1434h377l-252 -1434h-377zM240 1540q-78 0 -129.5 48t-51.5 120q0 77 55 128.5t134 51.5q78 0 129 -48t51 -120q0 -77 -54.5 -128.5t-133.5 -51.5zM758 1540q-78 0 -129 48t-51 120q0 77 54.5 128.5t133.5 51.5q78 0 129 -48t51 -120q0 -77 -54.5 -128.5
t-133.5 -51.5z" />
    <glyph glyph-name="uni0408" unicode="&#x408;" horiz-adv-x="931" 
d="M-45 0l55 319h234q87 0 134 43.5t64 137.5l164 934h377l-172 -988q-77 -446 -498 -446h-358z" />
    <glyph glyph-name="uni0409" unicode="&#x409;" horiz-adv-x="2533" 
d="M-78 0l58 319h65q115 0 177.5 94t103.5 330l123 691h1267l-88 -492h309q244 0 384.5 -120t140.5 -318q0 -248 -162.5 -376t-478.5 -128h-736l197 1114h-532l-76 -428q-65 -364 -204.5 -525t-389.5 -161h-158zM1518 307h340q108 0 164.5 46.5t56.5 131.5q0 66 -49 108
t-132 42h-325z" />
    <glyph glyph-name="uni040A" unicode="&#x40a;" horiz-adv-x="2484" 
d="M14 0l252 1434h377l-88 -502h635l90 502h377l-88 -492h319q244 0 384.5 -120t140.5 -318q0 -248 -162.5 -376t-478.5 -128h-746l107 612h-635l-107 -612h-377zM1458 307h350q108 0 165 46.5t57 131.5q0 66 -49 108t-132 42h-338z" />
    <glyph glyph-name="uni040B" unicode="&#x40b;" horiz-adv-x="1908" 
d="M399 0l197 1114h-444l55 320h1360l-56 -320h-538l-43 -244q133 37 299 37q328 0 475 -145t100 -422l-59 -340h-377l55 315q26 146 -42.5 216.5t-235.5 70.5q-147 0 -268 -31l-101 -571h-377z" />
    <glyph glyph-name="uni040C" unicode="&#x40c;" horiz-adv-x="1632" 
d="M14 0l254 1434h377l-98 -549h221l510 549h481l-678 -703l459 -731h-428l-356 565h-264l-101 -565h-377zM844 1538l200 297h404l-324 -297h-280z" />
    <glyph glyph-name="uni040D" unicode="&#x40d;" horiz-adv-x="1646" 
d="M14 0l254 1434h369l-156 -877l877 877h342l-254 -1434h-369l156 877l-877 -877h-342zM889 1532l-277 303h404l119 -303h-246z" />
    <glyph glyph-name="uni040E" unicode="&#x40e;" horiz-adv-x="1564" 
d="M141 0l58 319h141q110 0 166.5 20.5t97.5 74.5l33 43l-481 977h397l297 -639l448 639h431l-803 -1117q-100 -138 -175 -202.5t-164.5 -89.5t-240.5 -25h-205zM975 1524q-196 0 -287.5 82t-91.5 229h252q2 -63 34 -96t105 -33q135 0 158 129h252q-32 -161 -135.5 -236
t-286.5 -75z" />
    <glyph glyph-name="uni040F" unicode="&#x40f;" horiz-adv-x="1595" 
d="M465 -293l53 293h-504l252 1434h377l-194 -1115h626l197 1115h377l-254 -1434h-500l-53 -293h-377z" />
    <glyph glyph-name="uni0410" unicode="&#x410;" horiz-adv-x="1693" 
d="M-86 0l870 1434h451l360 -1434h-395l-61 272h-645l-156 -272h-424zM662 569h415l-121 516z" />
    <glyph glyph-name="uni0411" unicode="&#x411;" horiz-adv-x="1439" 
d="M14 0l252 1434h1147l-53 -306h-770l-41 -235h319q248 0 386.5 -107t138.5 -299q0 -241 -162 -364t-479 -123h-738zM444 301h344q108 0 165 42t57 120q0 61 -48 95t-133 34h-333z" />
    <glyph glyph-name="uni0412" unicode="&#x412;" horiz-adv-x="1499" 
d="M14 0l252 1434h697q234 0 369.5 -95t135.5 -258q0 -149 -81 -244.5t-226 -115.5q141 -34 202.5 -101.5t61.5 -187.5q0 -200 -180 -316t-489 -116h-742zM442 287h361q246 0 246 159q0 136 -197 136h-358zM543 862h340q104 0 159.5 41t55.5 119q0 61 -44.5 94t-127.5 33
h-332z" />
    <glyph glyph-name="uni0413" unicode="&#x413;" horiz-adv-x="1273" 
d="M14 0l254 1434h1116l-55 -320h-741l-197 -1114h-377z" />
    <glyph glyph-name="uni0414" unicode="&#x414;" horiz-adv-x="1777" 
d="M-119 -293l109 612h119q59 24 97 80t69 167t67 317l96 551h1293l-197 -1115h172l-109 -612h-358l51 293h-999l-51 -293h-359zM1157 319l141 803h-563l-55 -317q-35 -195 -67.5 -306.5t-77.5 -179.5h622z" />
    <glyph glyph-name="uni0415" unicode="&#x415;" 
d="M14 0l252 1434h1145l-55 -320h-768l-43 -246h620l-55 -299h-618l-43 -250h794l-55 -319h-1174z" />
    <glyph glyph-name="uni0416" unicode="&#x416;" horiz-adv-x="2357" 
d="M-92 0l581 754l-296 680h417l228 -549h215l98 549h377l-98 -549h186l422 549h446l-536 -680l317 -754h-418l-227 565h-246l-100 -565h-377l100 565h-213l-426 -565h-450z" />
    <glyph glyph-name="uni0417" unicode="&#x417;" horiz-adv-x="1468" 
d="M672 -12q-314 0 -474.5 117t-160.5 346v26h360v-18q0 -98 71 -141.5t232 -43.5q312 0 312 166q0 72 -55 103.5t-181 31.5h-225l51 293h199q146 0 215 39.5t69 122.5q0 129 -258 129q-173 0 -248.5 -41t-97.5 -147h-354q44 244 221 359.5t504 115.5q286 0 450 -98.5
t164 -268.5q0 -142 -95 -233t-267 -113q148 -22 219.5 -95t71.5 -202q0 -209 -193 -328.5t-530 -119.5z" />
    <glyph glyph-name="uni0418" unicode="&#x418;" horiz-adv-x="1646" 
d="M14 0l254 1434h369l-156 -877l877 877h342l-254 -1434h-369l156 877l-877 -877h-342z" />
    <glyph glyph-name="uni0419" unicode="&#x419;" horiz-adv-x="1646" 
d="M14 0l254 1434h369l-156 -877l877 877h342l-254 -1434h-369l156 877l-877 -877h-342zM1040 1524q-196 0 -287 82t-91 229h251q2 -63 34.5 -96t105.5 -33q134 0 157 129h252q-32 -161 -135.5 -236t-286.5 -75z" />
    <glyph glyph-name="uni041A" unicode="&#x41a;" horiz-adv-x="1632" 
d="M14 0l254 1434h377l-98 -549h221l510 549h481l-678 -703l459 -731h-428l-356 565h-264l-101 -565h-377z" />
    <glyph glyph-name="uni041B" unicode="&#x41b;" horiz-adv-x="1695" 
d="M-78 0l58 319h65q115 0 177.5 94t103.5 330l123 691h1300l-254 -1434h-377l197 1114h-565l-76 -428q-65 -364 -204.5 -525t-389.5 -161h-158z" />
    <glyph glyph-name="uni041C" unicode="&#x41c;" horiz-adv-x="2119" 
d="M14 0l254 1434h467l297 -979l627 979h514l-254 -1434h-369l158 889l-588 -889h-305l-274 889l-158 -889h-369z" />
    <glyph glyph-name="uni041D" unicode="&#x41d;" horiz-adv-x="1626" 
d="M14 0l252 1434h377l-96 -551h657l99 551h376l-254 -1434h-376l100 563h-657l-101 -563h-377z" />
    <glyph glyph-name="uni041E" unicode="&#x41e;" horiz-adv-x="1800" 
d="M901 -12q-237 0 -422 85.5t-288 239.5t-103 351q0 166 67 311.5t183 248.5t279.5 162.5t349.5 59.5q237 0 422 -85.5t288 -239.5t103 -351q0 -166 -67 -311.5t-183 -248.5t-279.5 -162.5t-349.5 -59.5zM909 299q214 0 353 131.5t139 333.5q0 172 -119 271.5t-324 99.5
q-214 0 -352.5 -131.5t-138.5 -333.5q0 -172 118.5 -271.5t323.5 -99.5z" />
    <glyph glyph-name="uni041F" unicode="&#x41f;" horiz-adv-x="1622" 
d="M14 0l252 1434h1409l-254 -1434h-377l197 1114h-653l-197 -1114h-377z" />
    <glyph glyph-name="uni0420" unicode="&#x420;" horiz-adv-x="1476" 
d="M14 0l252 1434h711q239 0 382.5 -118.5t143.5 -320.5q0 -243 -165.5 -398t-428.5 -155h-440l-78 -442h-377zM524 750h383q100 0 158.5 58.5t58.5 156.5q0 74 -49.5 117.5t-132.5 43.5h-352z" />
    <glyph glyph-name="uni0421" unicode="&#x421;" horiz-adv-x="1667" 
d="M846 -12q-224 0 -396.5 85.5t-267 239t-94.5 351.5q0 165 65.5 310t178.5 248.5t272.5 163.5t341.5 60q204 0 368.5 -68.5t261 -193.5t105.5 -285h-374q-26 109 -123.5 172.5t-241.5 63.5q-210 0 -342.5 -130t-132.5 -335q0 -171 104 -271t287 -100q148 0 256.5 64
t142.5 172h375q-40 -242 -259.5 -394.5t-526.5 -152.5z" />
    <glyph glyph-name="uni0422" unicode="&#x422;" horiz-adv-x="1456" 
d="M446 0l197 1114h-491l55 320h1360l-56 -320h-491l-197 -1114h-377z" />
    <glyph glyph-name="uni0423" unicode="&#x423;" horiz-adv-x="1564" 
d="M141 0l58 319h141q110 0 166.5 20.5t97.5 74.5l33 43l-481 977h397l297 -639l448 639h431l-803 -1117q-100 -138 -175 -202.5t-164.5 -89.5t-240.5 -25h-205z" />
    <glyph glyph-name="uni0424" unicode="&#x424;" horiz-adv-x="2138" 
d="M786 -41l25 139h-27q-205 0 -365 69t-248.5 194t-88.5 284q0 208 113.5 364.5t322.5 241t486 84.5h26l25 140h360l-24 -140h26q205 0 365.5 -69t250 -194t89.5 -284q0 -208 -113.5 -364.5t-323 -241t-487.5 -84.5h-27l-24 -139h-361zM836 389h26l117 655h-27
q-227 0 -363 -103.5t-136 -278.5q0 -129 100 -201t283 -72zM1225 389h26q227 0 363.5 104t136.5 279q0 129 -101 200.5t-284 71.5h-27z" />
    <glyph glyph-name="uni0425" unicode="&#x425;" horiz-adv-x="1583" 
d="M-92 0l694 756l-412 678h422l260 -428l385 428h465l-671 -721l440 -713h-422l-278 461l-410 -461h-473z" />
    <glyph glyph-name="uni0426" unicode="&#x426;" horiz-adv-x="1705" 
d="M14 0l252 1434h377l-194 -1115h626l197 1115h377l-197 -1115h180l-106 -612h-361l52 293h-1203z" />
    <glyph glyph-name="uni0427" unicode="&#x427;" horiz-adv-x="1546" 
d="M971 0l88 504q-185 -35 -344 -35q-270 0 -417.5 117.5t-147.5 331.5q0 56 12 120l69 396h377l-67 -385q-6 -35 -6 -62q0 -211 292 -211q150 0 285 27l111 631h376l-251 -1434h-377z" />
    <glyph glyph-name="uni0428" unicode="&#x428;" horiz-adv-x="2318" 
d="M14 0l252 1434h377l-197 -1115h488l196 1115h377l-196 -1115h487l197 1115h377l-252 -1434h-2106z" />
    <glyph glyph-name="uni0429" unicode="&#x429;" horiz-adv-x="2430" 
d="M14 0l252 1434h377l-197 -1115h488l196 1115h377l-196 -1115h487l197 1115h377l-197 -1115h182l-106 -612h-361l52 293h-1928z" />
    <glyph glyph-name="uni042A" unicode="&#x42a;" horiz-adv-x="1857" 
d="M383 0l197 1114h-428l55 320h805l-80 -451h305q255 0 405 -122t150 -326q0 -236 -164 -385.5t-424 -149.5h-821zM813 307h393q92 0 149.5 55t57.5 144q0 75 -54 122.5t-145 47.5h-335z" />
    <glyph glyph-name="uni042B" unicode="&#x42b;" horiz-adv-x="2082" 
d="M14 0l252 1434h377l-80 -451h301q255 0 405 -122t150 -326q0 -236 -164 -385.5t-424 -149.5h-817zM444 307h390q92 0 149 55t57 144q0 75 -53.5 122.5t-144.5 47.5h-332zM1507 0l252 1434h377l-252 -1434h-377z" />
    <glyph glyph-name="uni042C" unicode="&#x42c;" horiz-adv-x="1488" 
d="M14 0l252 1434h377l-80 -451h305q255 0 405 -122t150 -326q0 -236 -164 -385.5t-423 -149.5h-822zM444 307h394q92 0 149 55t57 144q0 75 -53.5 122.5t-144.5 47.5h-336z" />
    <glyph glyph-name="uni042D" unicode="&#x42d;" horiz-adv-x="1671" 
d="M801 -12q-204 0 -370.5 66.5t-265.5 187t-108 272.5h375q26 -99 127.5 -160t245.5 -61q156 0 271 76t167 206h-602l51 291h576q-29 130 -130.5 202.5t-256.5 72.5q-147 0 -256.5 -61t-143.5 -160h-375q26 153 135.5 273t279.5 186.5t372 66.5q224 0 396.5 -85.5t267 -239
t94.5 -351.5q0 -165 -64 -310t-176 -248.5t-270 -163.5t-340 -60z" />
    <glyph glyph-name="uni042E" unicode="&#x42e;" horiz-adv-x="2426" 
d="M1538 -12q-320 0 -538.5 158.5t-256.5 416.5h-251l-101 -563h-377l252 1434h377l-96 -551h219q76 252 304.5 407.5t533.5 155.5q174 0 323 -50t254.5 -138t165 -214t59.5 -274q0 -221 -113.5 -400.5t-312 -280.5t-442.5 -101zM1546 299q136 0 246 59.5t173 166t63 239.5
q0 171 -117 271t-316 100q-206 0 -343.5 -131.5t-137.5 -333.5q0 -171 117 -271t315 -100z" />
    <glyph glyph-name="uni042F" unicode="&#x42f;" horiz-adv-x="1507" 
d="M932 0l78 442h-250l-348 -442h-473l423 528q-100 56 -154 149.5t-54 215.5q0 254 168.5 397.5t461.5 143.5h777l-252 -1434h-377zM723 750h340l67 376h-372q-105 0 -165.5 -58t-60.5 -157q0 -74 51 -117.5t140 -43.5z" />
    <glyph glyph-name="uni0430" unicode="&#x430;" horiz-adv-x="1351" 
d="M461 -12q-215 0 -331 81t-116 230q0 167 142.5 260.5t400.5 93.5h340l2 11q6 27 6 47q0 112 -205 112q-108 0 -166 -23.5t-77 -74.5h-351q41 173 193 258.5t422 85.5q260 0 393 -90t133 -262q0 -37 -12 -113l-39 -225q-8 -44 5.5 -66t58.5 -22h40l-51 -291h-182
q-95 0 -142 36t-55 111q-84 -87 -179 -123t-230 -36zM547 231q260 0 309 195l2 8h-323q-76 0 -119 -26t-43 -76q0 -101 174 -101z" />
    <glyph glyph-name="uni0431" unicode="&#x431;" horiz-adv-x="1423" 
d="M680 -12q-292 0 -448 134t-156 384q0 108 14 201q32 193 90 319.5t161.5 209.5t245 123t353.5 56l469 35l-53 -301l-389 -29q-255 -19 -366.5 -75.5t-176.5 -206.5q148 123 401 123t398 -110t145 -302q0 -250 -191 -405.5t-497 -155.5zM711 248q140 0 218.5 64.5
t78.5 181.5q0 101 -73.5 154.5t-211.5 53.5q-141 0 -220 -64.5t-79 -180.5q0 -102 73.5 -155.5t213.5 -53.5z" />
    <glyph glyph-name="uni0432" unicode="&#x432;" horiz-adv-x="1284" 
d="M4 0l186 1057h601q197 0 312.5 -70.5t115.5 -191.5q0 -98 -55.5 -168t-149.5 -92q174 -55 174 -236q0 -146 -137 -222.5t-400 -76.5h-647zM383 225h315q61 0 96 27t35 74t-34 72.5t-97 25.5h-280zM457 637h272q63 0 97 28.5t34 82.5q0 38 -28.5 60.5t-77.5 22.5h-265z
" />
    <glyph glyph-name="uni0433" unicode="&#x433;" horiz-adv-x="1019" 
d="M4 0l186 1057h902l-52 -293h-546l-136 -764h-354z" />
    <glyph glyph-name="uni0434" unicode="&#x434;" horiz-adv-x="1501" 
d="M-127 -276l100 569h119q47 15 77 50.5t56.5 116t50.5 222.5l66 375h1069l-135 -764h164l-101 -569h-338l50 276h-793l-47 -276h-338zM924 293l86 487h-392l-28 -159q-41 -234 -111 -328h445z" />
    <glyph glyph-name="uni0435" unicode="&#x435;" horiz-adv-x="1378" 
d="M657 -12q-280 0 -443 136t-163 361q0 259 194.5 421.5t510.5 162.5q162 0 291 -55.5t205.5 -165t76.5 -256.5q0 -94 -16 -150h-918v-8q0 -80 70 -135t203 -55q202 0 276 108h348q-69 -178 -232 -271t-403 -93zM428 662h547v6q0 70 -68 112.5t-166 42.5q-106 0 -188.5 -39
t-124.5 -122z" />
    <glyph glyph-name="uni0436" unicode="&#x436;" horiz-adv-x="1943" 
d="M-104 0l452 573l-242 484h383l185 -383h149l66 383h346l-66 -383h146l303 383h403l-417 -508l260 -549h-379l-180 389h-187l-67 -389h-346l67 389h-180l-299 -389h-397z" />
    <glyph glyph-name="uni0437" unicode="&#x437;" horiz-adv-x="1296" 
d="M586 -12q-281 0 -423 98t-136 289h344q6 -78 63.5 -114t177.5 -36q234 0 234 103q0 88 -182 88h-160l39 231h168q188 0 188 90q0 94 -215 94q-123 0 -183 -31t-75 -102h-344q26 183 184 277t439 94q259 0 405.5 -77t146.5 -214q0 -91 -71.5 -150t-206.5 -81
q107 -23 166 -83.5t59 -148.5q0 -154 -164 -240.5t-454 -86.5z" />
    <glyph glyph-name="uni0438" unicode="&#x438;" horiz-adv-x="1427" 
d="M4 0l186 1057h342l-104 -596l686 596h309l-184 -1057h-342l104 596l-690 -596h-307z" />
    <glyph glyph-name="uni0439" unicode="&#x439;" horiz-adv-x="1427" 
d="M4 0l186 1057h342l-104 -596l686 596h309l-184 -1057h-342l104 596l-690 -596h-307zM840 1147q-196 0 -287.5 82t-91.5 229h252q2 -63 34 -96t105 -33q135 0 158 129h252q-32 -161 -135.5 -236t-286.5 -75z" />
    <glyph glyph-name="uni043A" unicode="&#x43a;" horiz-adv-x="1353" 
d="M4 0l186 1057h355l-68 -379h178l365 379h407l-471 -516l318 -541h-404l-217 385h-227l-68 -385h-354z" />
    <glyph glyph-name="uni043B" unicode="&#x43b;" horiz-adv-x="1382" 
d="M-86 0l51 293h45q92 0 140.5 62.5t76.5 217.5l84 484h1067l-184 -1057h-354l133 764h-389l-39 -217q-28 -156 -69.5 -258t-108.5 -168t-157 -93.5t-220 -27.5h-76z" />
    <glyph glyph-name="uni043C" unicode="&#x43c;" horiz-adv-x="1742" 
d="M4 0l186 1057h383l250 -699l486 699h430l-185 -1057h-321l100 594l-420 -594h-266l-219 594l-102 -594h-322z" />
    <glyph glyph-name="uni043D" unicode="&#x43d;" horiz-adv-x="1409" 
d="M864 0l68 385h-506l-68 -385h-354l186 1057h355l-68 -379h506l68 379h354l-186 -1057h-355z" />
    <glyph glyph-name="uni043E" unicode="&#x43e;" horiz-adv-x="1429" 
d="M672 -12q-280 0 -450.5 136t-170.5 361q0 170 90 303t251 207t366 74q280 0 450 -136t170 -362q0 -170 -89.5 -303t-250.5 -206.5t-366 -73.5zM698 270q146 0 236 80.5t90 208.5q0 106 -78.5 166.5t-214.5 60.5q-146 0 -235.5 -80t-89.5 -208q0 -106 78 -167t214 -61z
" />
    <glyph glyph-name="uni043F" unicode="&#x43f;" horiz-adv-x="1380" 
d="M4 0l186 1057h1186l-186 -1057h-354l135 764h-479l-134 -764h-354z" />
    <glyph glyph-name="uni0440" unicode="&#x440;" horiz-adv-x="1449" 
d="M-70 -410l258 1467h289l10 -135q138 147 387 147q237 0 382 -134t145 -353q0 -167 -84 -303t-232 -213.5t-331 -77.5q-256 0 -377 133l-92 -531h-355zM723 266q142 0 233 81.5t91 209.5q0 106 -78.5 167.5t-212.5 61.5q-142 0 -233 -81t-91 -209q0 -106 78.5 -168
t212.5 -62z" />
    <glyph glyph-name="uni0441" unicode="&#x441;" horiz-adv-x="1361" 
d="M643 -12q-167 0 -301.5 61.5t-212.5 175.5t-78 260q0 258 191 421t493 163q255 0 420 -119t168 -305h-360q-14 64 -78.5 102.5t-163.5 38.5q-138 0 -226.5 -80t-88.5 -208q0 -105 70.5 -166.5t191.5 -61.5q100 0 169 40t97 110h369q-120 -432 -660 -432z" />
    <glyph glyph-name="uni0442" unicode="&#x442;" horiz-adv-x="1169" 
d="M313 0l136 764h-388l52 293h1128l-51 -293h-387l-135 -764h-355z" />
    <glyph glyph-name="uni0443" unicode="&#x443;" horiz-adv-x="1347" 
d="M-57 -410l51 293h186q64 0 94 13.5t62 56.5l41 55l-289 1049h369l166 -729l436 729h385l-772 -1213q-99 -155 -183.5 -204.5t-244.5 -49.5h-301z" />
    <glyph glyph-name="uni0444" unicode="&#x444;" horiz-adv-x="1853" 
d="M588 -410l74 410h-21q-268 0 -430 135.5t-162 339.5q0 181 98.5 313.5t273.5 200.5t406 68h21l59 344h342l-59 -344h22q268 0 430 -135.5t162 -339.5q0 -181 -98.5 -313.5t-273.5 -200.5t-406 -68h-22l-74 -410h-342zM690 276h21l88 504h-21q-162 0 -269.5 -83
t-107.5 -210q0 -96 78 -153.5t211 -57.5zM1055 276h20q162 0 269.5 83t107.5 210q0 96 -78 153.5t-211 57.5h-20z" />
    <glyph glyph-name="uni0445" unicode="&#x445;" horiz-adv-x="1333" 
d="M-104 0l579 551l-346 506h403l191 -279l283 279h421l-540 -520l366 -537h-403l-211 309l-322 -309h-421z" />
    <glyph glyph-name="uni0446" unicode="&#x446;" horiz-adv-x="1460" 
d="M4 0l186 1057h355l-135 -764h456l135 764h355l-135 -764h178l-103 -569h-338l50 276h-1004z" />
    <glyph glyph-name="uni0447" unicode="&#x447;" horiz-adv-x="1310" 
d="M766 0l59 338q-125 -35 -252 -35q-241 0 -363 89.5t-122 264.5q0 46 10 111l52 289h354l-49 -277q-6 -30 -6 -57q0 -68 46.5 -98.5t159.5 -30.5q112 0 222 35l75 428h355l-187 -1057h-354z" />
    <glyph glyph-name="uni0448" unicode="&#x448;" horiz-adv-x="1990" 
d="M4 0l186 1057h355l-135 -764h366l135 764h355l-136 -764h367l135 764h355l-187 -1057h-1796z" />
    <glyph glyph-name="uni0449" unicode="&#x449;" horiz-adv-x="2091" 
d="M4 0l186 1057h355l-135 -764h366l135 764h355l-136 -764h367l135 764h355l-136 -764h179l-103 -569h-338l49 276h-1634z" />
    <glyph glyph-name="uni044A" unicode="&#x44a;" horiz-adv-x="1531" 
d="M258 0l135 764h-332l52 293h686l-51 -291h282q201 0 318.5 -92t117.5 -250q0 -197 -135 -310.5t-370 -113.5h-703zM657 256h269q86 0 133 37.5t47 105.5q0 54 -40.5 82.5t-117.5 28.5h-246z" />
    <glyph glyph-name="uni044B" unicode="&#x44b;" horiz-adv-x="1783" 
d="M4 0l186 1057h355l-51 -291h260q201 0 318.5 -92t117.5 -250q0 -197 -135.5 -310.5t-370.5 -113.5h-680zM403 256h246q86 0 133 37.5t47 105.5q0 54 -40.5 82.5t-116.5 28.5h-223zM1239 0l186 1057h355l-187 -1057h-354z" />
    <glyph glyph-name="uni044C" unicode="&#x44c;" horiz-adv-x="1277" 
d="M4 0l186 1057h355l-51 -291h282q201 0 318.5 -92t117.5 -250q0 -197 -135 -310.5t-370 -113.5h-703zM403 256h269q86 0 133 37.5t47 105.5q0 54 -40.5 82.5t-117.5 28.5h-245z" />
    <glyph glyph-name="uni044D" unicode="&#x44d;" horiz-adv-x="1363" 
d="M629 -12q-254 0 -419.5 118t-168.5 300h352q14 -65 80.5 -105.5t169.5 -40.5q93 0 168 40t117 110h-389l41 231h374q-25 73 -93 114.5t-165 41.5q-105 0 -175.5 -39.5t-98.5 -110.5h-361q122 422 660 422q167 0 301.5 -62t212.5 -176t78 -260q0 -170 -86.5 -303
t-242.5 -206.5t-355 -73.5z" />
    <glyph glyph-name="uni044E" unicode="&#x44e;" horiz-adv-x="1982" 
d="M4 0l186 1057h355l-68 -379h180q62 179 232 285t399 106q288 0 465.5 -136.5t177.5 -361.5q0 -170 -85 -303t-236 -206.5t-342 -73.5q-254 0 -424.5 107t-208.5 290h-209l-68 -385h-354zM1262 270q138 0 226.5 81t88.5 208q0 105 -76.5 166t-206.5 61
q-138 0 -226.5 -80.5t-88.5 -207.5q0 -105 76.5 -166.5t206.5 -61.5z" />
    <glyph glyph-name="uni044F" unicode="&#x44f;" horiz-adv-x="1316" 
d="M772 0l55 309h-190l-268 -309h-441l346 379q-88 40 -137 113.5t-49 169.5q0 181 140 288t376 107h709l-187 -1057h-354zM580 565h292l41 236h-311q-71 0 -113.5 -35.5t-42.5 -93.5q0 -50 35.5 -78.5t98.5 -28.5z" />
    <glyph glyph-name="uni0450" unicode="&#x450;" horiz-adv-x="1378" 
d="M657 -12q-280 0 -443 136t-163 361q0 259 194.5 421.5t510.5 162.5q162 0 291 -55.5t205.5 -165t76.5 -256.5q0 -94 -16 -150h-918v-8q0 -80 70 -135t203 -55q202 0 276 108h348q-69 -178 -232 -271t-403 -93zM655 1155l-276 303h403l119 -303h-246zM428 662h547v6
q0 70 -68 112.5t-166 42.5q-106 0 -188.5 -39t-124.5 -122z" />
    <glyph glyph-name="uni0451" unicode="&#x451;" horiz-adv-x="1378" 
d="M657 -12q-280 0 -443 136t-163 361q0 259 194.5 421.5t510.5 162.5q162 0 291 -55.5t205.5 -165t76.5 -256.5q0 -94 -16 -150h-918v-8q0 -80 70 -135t203 -55q202 0 276 108h348q-69 -178 -232 -271t-403 -93zM543 1163q-78 0 -129.5 48t-51.5 120q0 77 55 128.5
t134 51.5q78 0 129 -48t51 -120q0 -77 -54.5 -128.5t-133.5 -51.5zM1061 1163q-78 0 -129 48t-51 120q0 77 54.5 128.5t133.5 51.5q78 0 129 -48t51 -120q0 -77 -54.5 -128.5t-133.5 -51.5zM428 662h547v6q0 70 -68 112.5t-166 42.5q-106 0 -188.5 -39t-124.5 -122z" />
    <glyph glyph-name="uni0452" unicode="&#x452;" horiz-adv-x="1456" 
d="M606 -410l51 293h144q103 0 121 115l82 483q10 62 10 101q0 104 -54 154t-165 50q-249 0 -297 -262l-97 -524h-354l201 1137h-180l30 206h185l16 91h354l-16 -91h364l-38 -206h-361l-31 -172q141 104 342 104q203 0 333 -119t130 -305q0 -86 -14 -158l-94 -528
q-35 -199 -122 -284t-261 -85h-279z" />
    <glyph glyph-name="uni0453" unicode="&#x453;" horiz-adv-x="1019" 
d="M4 0l186 1057h902l-52 -293h-546l-136 -764h-354zM485 1161l201 297h404l-324 -297h-281z" />
    <glyph glyph-name="uni0454" unicode="&#x454;" horiz-adv-x="1363" 
d="M643 -12q-167 0 -301.5 61.5t-212.5 175.5t-78 260q0 258 191 421t493 163q254 0 419.5 -118t168.5 -300h-352q-14 65 -80.5 105.5t-169.5 40.5q-95 0 -172 -42t-117 -114h395l-41 -231h-374q26 -72 93 -111t163 -39q105 0 175.5 39.5t98.5 110.5h361
q-122 -422 -660 -422z" />
    <glyph glyph-name="uni0455" unicode="&#x455;" horiz-adv-x="1251" 
d="M575 -12q-263 0 -411 96.5t-154 273.5h326q7 -61 73.5 -96t174.5 -35q245 0 245 92q0 22 -19.5 36t-69.5 25.5t-150 25.5q-256 35 -375 109t-119 196q0 164 153.5 261t414.5 97q247 0 400 -96t159 -254h-328q-9 110 -231 110q-109 0 -166.5 -19.5t-57.5 -53.5
q0 -26 17 -39.5t64 -23.5t153 -23q266 -32 384 -104.5t118 -200.5q0 -177 -160 -277t-441 -100z" />
    <glyph glyph-name="uni0456" unicode="&#x456;" horiz-adv-x="548" 
d="M4 0l186 1057h355l-187 -1057h-354zM414 1151q-81 0 -135 50.5t-54 125.5q0 81 57 135t140 54q81 0 134.5 -51t53.5 -126q0 -81 -56.5 -134.5t-139.5 -53.5z" />
    <glyph glyph-name="uni0457" unicode="&#x457;" horiz-adv-x="548" 
d="M4 0l186 1057h355l-187 -1057h-354zM225 1174q-67 0 -105 42t-38 107q0 79 50 132.5t122 53.5q67 0 105 -42t38 -107q0 -79 -50 -132.5t-122 -53.5zM586 1174q-67 0 -105.5 42t-38.5 107q0 79 50 132.5t122 53.5q67 0 105.5 -42t38.5 -107q0 -79 -50 -132.5t-122 -53.5z
" />
    <glyph glyph-name="uni0458" unicode="&#x458;" horiz-adv-x="559" 
d="M-301 -410l51 293h144q102 0 120 115l187 1059h354l-195 -1098q-35 -199 -122 -284t-261 -85h-278zM424 1151q-81 0 -134.5 50.5t-53.5 125.5q0 81 57 135t139 54q81 0 135 -51t54 -126q0 -81 -57 -134.5t-140 -53.5z" />
    <glyph glyph-name="uni0459" unicode="&#x459;" horiz-adv-x="2078" 
d="M-86 0l51 293h45q92 0 140.5 62.5t76.5 217.5l84 484h1053l-57 -328h272q201 0 316.5 -87t115.5 -239q0 -186 -130 -294.5t-351 -108.5h-705l133 764h-374l-39 -217q-28 -156 -69.5 -258t-108.5 -168t-157 -93.5t-220 -27.5h-76zM1225 256h282q66 0 105 33.5t39 91.5
q0 43 -31.5 67.5t-85.5 24.5h-272z" />
    <glyph glyph-name="uni045A" unicode="&#x45a;" horiz-adv-x="2097" 
d="M844 0l74 420h-486l-74 -420h-354l186 1057h355l-62 -344h486l61 344h354l-57 -328h291q189 0 300.5 -88.5t111.5 -239.5q0 -186 -129.5 -293.5t-352.5 -107.5h-704zM1243 256h283q66 0 104.5 33.5t38.5 91.5q0 43 -31.5 67.5t-85.5 24.5h-270z" />
    <glyph glyph-name="uni045B" unicode="&#x45b;" horiz-adv-x="1456" 
d="M68 1137l30 206h185l16 91h354l-16 -91h364l-34 -206h-365l-31 -172q141 104 342 104q203 0 333 -119t130 -305q0 -86 -14 -158l-86 -487h-354l82 481q10 62 10 101q0 104 -54 154t-165 50q-249 0 -297 -262l-97 -524h-354l201 1137h-180z" />
    <glyph glyph-name="uni045C" unicode="&#x45c;" horiz-adv-x="1353" 
d="M4 0l186 1057h355l-68 -379h178l365 379h407l-471 -516l318 -541h-404l-217 385h-227l-68 -385h-354zM662 1161l200 297h404l-324 -297h-280z" />
    <glyph glyph-name="uni045D" unicode="&#x45d;" horiz-adv-x="1427" 
d="M4 0l186 1057h342l-104 -596l686 596h309l-184 -1057h-342l104 596l-690 -596h-307zM705 1155l-277 303h403l119 -303h-245z" />
    <glyph glyph-name="uni045E" unicode="&#x45e;" horiz-adv-x="1347" 
d="M-57 -410l51 293h186q64 0 94 13.5t62 56.5l41 55l-289 1049h369l166 -729l436 729h385l-772 -1213q-99 -155 -183.5 -204.5t-244.5 -49.5h-301zM776 1147q-196 0 -287.5 82t-91.5 229h252q2 -63 34 -96t105 -33q135 0 158 129h252q-32 -161 -135.5 -236t-286.5 -75z" />
    <glyph glyph-name="uni045F" unicode="&#x45f;" horiz-adv-x="1359" 
d="M358 -276l50 276h-404l186 1057h355l-135 -764h456l135 764h355l-187 -1057h-407l-49 -276h-355z" />
    <glyph glyph-name="uni0462" unicode="&#x462;" horiz-adv-x="1589" 
d="M139 1051l51 292h160l17 91h376l-16 -91h416l-51 -292h-416l-12 -68h305q255 0 405 -122t150 -326q0 -236 -164 -385.5t-424 -149.5h-821l184 1051h-160zM545 307h393q92 0 149.5 55t57.5 144q0 75 -54 122.5t-145 47.5h-336z" />
    <glyph glyph-name="uni0463" unicode="&#x463;" horiz-adv-x="1298" 
d="M6 815l43 242h162l65 377h355l-68 -377h398l-46 -242h-395l-12 -74h287q200 0 318 -89.5t118 -239.5q0 -188 -136 -300t-370 -112h-700l143 815h-162zM424 252h266q85 0 132.5 36.5t47.5 98.5q0 48 -40.5 75t-116.5 27h-248z" />
    <glyph glyph-name="uni0472" unicode="&#x472;" horiz-adv-x="1800" 
d="M901 -12q-237 0 -422 85.5t-288 239.5t-103 351q0 166 67 311.5t183 248.5t279.5 162.5t349.5 59.5q237 0 422 -85.5t288 -239.5t103 -351q0 -166 -67 -311.5t-183 -248.5t-279.5 -162.5t-349.5 -59.5zM1157 537q-85 0 -248.5 33.5t-232.5 33.5q-96 0 -199 -31
q32 -130 145 -202t287 -72q157 0 277 73t176 199q-115 -34 -205 -34zM508 868q112 33 201 33q105 0 252 -33.5t229 -33.5q108 0 199 32q-32 127 -145.5 198t-285.5 71q-155 0 -273.5 -72t-176.5 -195z" />
    <glyph glyph-name="uni0473" unicode="&#x473;" horiz-adv-x="1429" 
d="M705 -12q-295 0 -474.5 136t-179.5 361q0 170 85.5 303t239.5 207t349 74q295 0 474 -136t179 -362q0 -170 -85.5 -303t-239 -206.5t-348.5 -73.5zM393 625q73 32 187 32q47 0 138 -24.5t148 -24.5q129 0 191 21q-25 85 -110.5 131.5t-215.5 46.5q-119 0 -208.5 -48.5
t-129.5 -133.5zM698 250q120 0 209 47.5t129 132.5q-74 -31 -186 -31q-51 0 -141.5 25t-145.5 25q-128 0 -190 -21q25 -85 110 -131.5t215 -46.5z" />
    <glyph glyph-name="uni0474" unicode="&#x474;" horiz-adv-x="1570" 
d="M479 0l-323 1434h385l221 -1016l254 493q69 134 124 221t109 149t113 94t123 45.5t153 13.5h93l-58 -320h-43q-52 0 -89.5 -24.5t-81 -87.5t-116.5 -199l-430 -803h-434z" />
    <glyph glyph-name="uni0475" unicode="&#x475;" 
d="M350 0l-262 1057h361l165 -733l185 366q106 215 209.5 291t283.5 76h101l-52 -293h-53q-75 0 -115.5 -41.5t-111.5 -183.5l-273 -539h-438z" />
    <glyph glyph-name="uni0490" unicode="&#x490;" horiz-adv-x="1273" 
d="M14 0l254 1434h756l53 290h361l-66 -358l-43 -252h-741l-197 -1114h-377z" />
    <glyph glyph-name="uni0491" unicode="&#x491;" horiz-adv-x="1019" 
d="M4 0l186 1057h564l51 282h338l-51 -282l-52 -293h-546l-136 -764h-354z" />
    <glyph glyph-name="uni0492" unicode="&#x492;" horiz-adv-x="1378" 
d="M111 0l100 567h-158l49 277h158l105 590h1116l-58 -320h-737l-47 -270h453l-50 -277h-452l-101 -567h-378z" />
    <glyph glyph-name="uni0493" unicode="&#x493;" horiz-adv-x="1101" 
d="M86 0l57 330h-157l41 241h159l86 486h902l-52 -293h-547l-34 -193h338l-43 -241h-338l-58 -330h-354z" />
    <glyph glyph-name="uni0496" unicode="&#x496;" horiz-adv-x="2441" 
d="M-92 0l581 754l-296 680h417l228 -549h215l98 549h377l-98 -549h186l422 549h446l-536 -680l182 -435h254l-109 -612h-360l51 293h-119l-227 565h-246l-100 -565h-377l100 565h-213l-426 -565h-450z" />
    <glyph glyph-name="uni0497" unicode="&#x497;" horiz-adv-x="2002" 
d="M-104 0l452 573l-242 484h383l185 -383h149l66 383h346l-66 -383h146l303 383h403l-417 -508l120 -256h218l-101 -569h-338l49 276h-67l-180 389h-187l-67 -389h-346l67 389h-180l-299 -389h-397z" />
    <glyph glyph-name="uni049A" unicode="&#x49a;" horiz-adv-x="1654" 
d="M14 0l254 1434h377l-98 -549h221l510 549h481l-678 -703l258 -412h258l-108 -612h-361l52 293h-68l-356 565h-264l-101 -565h-377z" />
    <glyph glyph-name="uni049B" unicode="&#x49b;" horiz-adv-x="1386" 
d="M4 0l186 1057h355l-68 -379h178l365 379h407l-471 -516l146 -248h223l-51 -293l-49 -276h-338l49 276h-66l-217 385h-227l-68 -385h-354z" />
    <glyph glyph-name="uni04A2" unicode="&#x4a2;" horiz-adv-x="1736" 
d="M14 0l252 1434h377l-96 -551h657l99 551h376l-196 -1115h180l-107 -612h-360l51 293h-198l100 563h-657l-101 -563h-377z" />
    <glyph glyph-name="uni04A3" unicode="&#x4a3;" horiz-adv-x="1509" 
d="M864 0l68 385h-506l-68 -385h-354l186 1057h355l-68 -379h506l68 379h354l-135 -764h178l-102 -569h-338l49 276h-193z" />
    <glyph glyph-name="uni04AE" unicode="&#x4ae;" horiz-adv-x="1617" 
d="M526 0l95 532l-465 902h415l275 -564l491 564h445l-785 -902l-94 -532h-377z" />
    <glyph glyph-name="uni04AF" unicode="&#x4af;" horiz-adv-x="1380" 
d="M348 -410l72 410l-332 1057h371l190 -692l432 692h396l-703 -1057l-72 -410h-354z" />
    <glyph glyph-name="uni04B0" unicode="&#x4b0;" horiz-adv-x="1617" 
d="M526 0l54 303h-320l45 246h307l-456 885h415l275 -564l491 564h445l-770 -885h309l-45 -246h-320l-53 -303h-377z" />
    <glyph glyph-name="uni04B1" unicode="&#x4b1;" horiz-adv-x="1380" 
d="M348 -410l29 168h-301l41 242h303l-332 1057h371l190 -692l432 692h396l-703 -1057h303l-41 -242h-305l-29 -168h-354z" />
    <glyph glyph-name="uni04B2" unicode="&#x4b2;" horiz-adv-x="1605" 
d="M-92 0l694 756l-412 678h422l260 -428l385 428h465l-671 -721l243 -394h254l-108 -612h-361l51 293h-61l-278 461l-410 -461h-473z" />
    <glyph glyph-name="uni04B3" unicode="&#x4b3;" horiz-adv-x="1370" 
d="M-104 0l579 551l-346 506h403l191 -279l283 279h421l-540 -520l166 -244h256l-101 -569h-338l50 276h-70l-211 309l-322 -309h-421z" />
    <glyph glyph-name="uni04B6" unicode="&#x4b6;" horiz-adv-x="1658" 
d="M971 0l88 504q-185 -35 -344 -35q-270 0 -417.5 117.5t-147.5 331.5q0 56 12 120l69 396h377l-67 -385q-6 -35 -6 -62q0 -211 292 -211q150 0 285 27l111 631h376l-196 -1115h182l-106 -612h-361l51 293h-198z" />
    <glyph glyph-name="uni04B7" unicode="&#x4b7;" horiz-adv-x="1411" 
d="M766 0l59 338q-125 -35 -252 -35q-241 0 -363 89.5t-122 264.5q0 46 10 111l52 289h354l-49 -277q-6 -30 -6 -57q0 -68 46.5 -98.5t159.5 -30.5q112 0 222 35l75 428h355l-136 -764h179l-103 -569h-338l49 276h-192z" />
    <glyph glyph-name="uni04BA" unicode="&#x4ba;" horiz-adv-x="1546" 
d="M641 1434l-88 -504q185 35 344 35q270 0 417.5 -117.5t147.5 -331.5q0 -56 -12 -121l-70 -395h-376l67 385q6 35 6 61q0 211 -293 211q-154 0 -284 -26l-111 -631h-377l252 1434h377z" />
    <glyph glyph-name="uni04BB" unicode="&#x4bb;" horiz-adv-x="1413" 
d="M4 0l252 1434h354l-82 -469q141 104 342 104q203 0 333 -119t130 -305q0 -86 -14 -158l-86 -487h-354l82 481q10 62 10 101q0 104 -54 154t-165 50q-249 0 -297 -262l-97 -524h-354z" />
    <glyph glyph-name="uni04C0" unicode="&#x4c0;" horiz-adv-x="589" 
d="M14 0l252 1434h377l-252 -1434h-377z" />
    <glyph glyph-name="uni04CF" unicode="&#x4cf;" horiz-adv-x="546" 
d="M4 0l252 1434h354l-252 -1434h-354z" />
    <glyph glyph-name="uni04D8" unicode="&#x4d8;" horiz-adv-x="1699" 
d="M782 -12q-273 0 -445 102.5t-229.5 286.5t-5.5 434h1203q-14 154 -119 242t-277 88q-147 0 -256 -61t-143 -160h-375q26 153 135.5 273t279.5 186.5t372 66.5q224 0 396.5 -85.5t266.5 -239t94 -351.5q0 -166 -65 -310t-181 -248.5t-284.5 -164t-366.5 -59.5zM1247 524
h-796q6 -114 94 -172.5t248 -58.5q159 0 275.5 61.5t178.5 169.5z" />
    <glyph glyph-name="uni04D9" unicode="&#x4d9;" horiz-adv-x="1378" 
d="M721 1069q280 0 443 -136.5t163 -361.5q0 -259 -194 -421t-510 -162q-162 0 -291.5 55.5t-206 165t-76.5 256.5q0 89 17 149h917v9q0 80 -69.5 135t-202.5 55q-203 0 -277 -108h-348q69 178 232 271t403 93zM950 395h-547v-6q0 -70 68 -113t166 -43q105 0 188 39.5
t125 122.5z" />
    <glyph glyph-name="uni04E2" unicode="&#x4e2;" horiz-adv-x="1646" 
d="M14 0l254 1434h369l-156 -877l877 877h342l-254 -1434h-369l156 877l-877 -877h-342zM633 1589l43 246h772l-43 -246h-772z" />
    <glyph glyph-name="uni04E3" unicode="&#x4e3;" horiz-adv-x="1427" 
d="M4 0l186 1057h342l-104 -596l686 596h309l-184 -1057h-342l104 596l-690 -596h-307zM449 1212l43 246h772l-43 -246h-772z" />
    <glyph glyph-name="uni04E8" unicode="&#x4e8;" horiz-adv-x="1800" 
d="M901 -12q-237 0 -422 85.5t-288 239.5t-103 351q0 166 67 311.5t183 248.5t279.5 162.5t349.5 59.5q237 0 422 -85.5t288 -239.5t103 -351q0 -166 -67 -311.5t-183 -248.5t-279.5 -162.5t-349.5 -59.5zM506 862h883q-31 128 -144 200.5t-287 72.5q-156 0 -276 -73.5
t-176 -199.5zM909 299q157 0 276.5 73t174.5 197h-881q32 -128 144.5 -199t285.5 -71z" />
    <glyph glyph-name="uni04E9" unicode="&#x4e9;" horiz-adv-x="1429" 
d="M705 -12q-295 0 -474.5 136t-179.5 361q0 170 85.5 303t239.5 207t349 74q295 0 474 -136t179 -362q0 -170 -85.5 -303t-239 -206.5t-348.5 -73.5zM395 631h660q-25 84 -109.5 130t-214.5 46q-118 0 -206 -47t-130 -129zM698 250q117 0 205 46t129 128h-657
q25 -83 109.5 -128.5t213.5 -45.5z" />
    <glyph glyph-name="uni04EE" unicode="&#x4ee;" horiz-adv-x="1564" 
d="M141 0l58 319h141q110 0 166.5 20.5t97.5 74.5l33 43l-481 977h397l297 -639l448 639h431l-803 -1117q-100 -138 -175 -202.5t-164.5 -89.5t-240.5 -25h-205zM567 1589l43 246h772l-43 -246h-772z" />
    <glyph glyph-name="uni04EF" unicode="&#x4ef;" horiz-adv-x="1347" 
d="M-57 -410l51 293h186q64 0 94 13.5t62 56.5l41 55l-289 1049h369l166 -729l436 729h385l-772 -1213q-99 -155 -183.5 -204.5t-244.5 -49.5h-301zM385 1212l43 246h772l-43 -246h-772z" />
    <glyph glyph-name="glyph00054" horiz-adv-x="595" 
d="M-193 -410l52 293h71q103 0 121 115l187 1059h354l-195 -1098q-35 -199 -122 -284t-261 -85h-207zM455 1151q-81 0 -135 50.5t-54 125.5q0 81 57 135t140 54q81 0 134.5 -51t53.5 -126q0 -81 -56.5 -134.5t-139.5 -53.5z" />
    </font>
</defs>
</svg>
