<?xml version="1.0" standalone="no"?>
<!DOCTYPE svg PUBLIC "-//W3C//DTD SVG 1.1//EN" "http://www.w3.org/Graphics/SVG/1.1/DTD/svg11.dtd" >
<svg xmlns="http://www.w3.org/2000/svg" xmlns:xlink="http://www.w3.org/1999/xlink" version="1.1">
<metadata>
Created by FontForge 20201107 at Fri Nov 14 04:01:45 2025
 By 
Copyright 2025 CoType Foundry. All Rights Reserved.
</metadata>
<defs>
<font id="AeonikExtendedProTRIAL-Medium" horiz-adv-x="1320" >
  <font-face 
    font-family="Aeonik Extended Pro TRIAL Medium"
    font-weight="500"
    font-stretch="expanded"
    units-per-em="2048"
    panose-1="2 11 6 3 3 3 0 0 0 0"
    ascent="1638"
    descent="-410"
    x-height="1049"
    cap-height="1434"
    bbox="-201 -422 2478 1835"
    underline-thickness="147"
    underline-position="-247"
    unicode-range="U+0020-04EF"
  />
<missing-glyph horiz-adv-x="1269" 
d="M123 -223v1698h1024v-1698h-1024zM322 -18h94v112h57q62 0 99.5 34t37.5 91q0 58 -37.5 92.5t-99.5 34.5h-151v-364zM416 172v96h49q22 0 35.5 -13t13.5 -36q0 -22 -13.5 -34.5t-35.5 -12.5h-49zM692 -18h256v81h-160v64h123v76h-123v61h154v82h-250v-364zM391 455h96
v282h103v82h-299v-82h100v-282zM758 455h96v135l131 229h-106l-72 -133l-68 133h-112l131 -229v-135zM444 926q66 0 106.5 38t45.5 99h-94q-13 -59 -62 -59q-71 0 -71 106q0 107 71 107q48 0 62 -62h94q-5 63 -45.5 101t-106.5 38q-84 0 -129 -49t-45 -135t45 -135t129 -49z
M807 926q81 0 129.5 51.5t48.5 132.5q0 80 -49 132t-129 52q-81 0 -129.5 -52t-48.5 -132q0 -81 48 -132.5t130 -51.5zM807 1004q-39 0 -59.5 29.5t-20.5 76.5q0 48 21 77.5t59 29.5t59 -29.5t21 -77.5q0 -47 -20.5 -76.5t-59.5 -29.5z" />
    <glyph glyph-name=".notdef" horiz-adv-x="1269" 
d="M123 -223v1698h1024v-1698h-1024zM322 -18h94v112h57q62 0 99.5 34t37.5 91q0 58 -37.5 92.5t-99.5 34.5h-151v-364zM416 172v96h49q22 0 35.5 -13t13.5 -36q0 -22 -13.5 -34.5t-35.5 -12.5h-49zM692 -18h256v81h-160v64h123v76h-123v61h154v82h-250v-364zM391 455h96
v282h103v82h-299v-82h100v-282zM758 455h96v135l131 229h-106l-72 -133l-68 133h-112l131 -229v-135zM444 926q66 0 106.5 38t45.5 99h-94q-13 -59 -62 -59q-71 0 -71 106q0 107 71 107q48 0 62 -62h94q-5 63 -45.5 101t-106.5 38q-84 0 -129 -49t-45 -135t45 -135t129 -49z
M807 926q81 0 129.5 51.5t48.5 132.5q0 80 -49 132t-129 52q-81 0 -129.5 -52t-48.5 -132q0 -81 48 -132.5t130 -51.5zM807 1004q-39 0 -59.5 29.5t-20.5 76.5q0 48 21 77.5t59 29.5t59 -29.5t21 -77.5q0 -47 -20.5 -76.5t-59.5 -29.5z" />
    <glyph glyph-name=".null" horiz-adv-x="0" 
 />
    <glyph glyph-name="nonmarkingreturn" horiz-adv-x="682" 
 />
    <glyph glyph-name="space" unicode=" " horiz-adv-x="571" 
 />
    <glyph glyph-name="comma" unicode="," horiz-adv-x="481" 
d="M59 -285v123q98 0 153.5 43t55.5 107q0 14 -4 26q-33 -20 -78 -20q-55 0 -93 34t-38 97q0 59 45.5 99t116.5 40q89 0 145 -67.5t56 -167.5q0 -148 -96 -230t-263 -84z" />
    <glyph glyph-name="hyphen" unicode="-" horiz-adv-x="1015" 
d="M96 481v193h824v-193h-824z" />
    <glyph glyph-name="period" unicode="." horiz-adv-x="466" 
d="M233 -12q-63 0 -104 39t-41 100t41 100t104 39t104.5 -39t41.5 -100t-41.5 -100t-104.5 -39z" />
    <glyph glyph-name="zero" unicode="0" horiz-adv-x="1480" 
d="M741 -12q-318 0 -489.5 180.5t-171.5 515.5v66q0 329 174.5 512.5t486.5 183.5q311 0 485.5 -184t174.5 -512v-66q0 -334 -171.5 -515t-488.5 -181zM741 186q430 0 430 506v49q0 506 -430 506q-432 0 -432 -506v-49q0 -506 432 -506z" />
    <glyph glyph-name="one" unicode="1" horiz-adv-x="765" 
d="M406 0v983q-35 -18 -109 -18h-285v194h277q121 0 121 127v148h223v-1434h-227z" />
    <glyph glyph-name="two" unicode="2" horiz-adv-x="1306" 
d="M49 0v182l674 451q142 94 210 183t68 181q0 122 -90.5 188t-261.5 66q-166 0 -265 -77.5t-99 -210.5v-25h-228v37q0 211 165 341t429 130q273 0 427.5 -117t154.5 -321q0 -158 -86.5 -276t-306.5 -261l-416 -272h823v-199h-1198z" />
    <glyph glyph-name="three" unicode="3" horiz-adv-x="1370" 
d="M668 -12q-296 0 -459 119t-164 337h225q3 -129 109 -198.5t299 -69.5q184 0 284.5 62t100.5 176q0 217 -363 217h-186v194h170q157 0 247.5 59.5t90.5 164.5q0 101 -89.5 154.5t-258.5 53.5q-172 0 -266.5 -63t-104.5 -184h-225q6 201 168 318.5t430 117.5
q274 0 425.5 -100.5t151.5 -282.5q0 -124 -68 -206.5t-194 -111.5q143 -23 223 -110t80 -223q0 -197 -167.5 -310.5t-458.5 -113.5z" />
    <glyph glyph-name="four" unicode="4" horiz-adv-x="1447" 
d="M930 0v332h-889v207l848 895h266v-906h268v-196h-268v-332h-225zM297 528h633v672z" />
    <glyph glyph-name="five" unicode="5" horiz-adv-x="1366" 
d="M694 -12q-288 0 -443.5 117t-168.5 307h225q44 -232 385 -232q173 0 279 78.5t106 222.5q0 138 -97 218.5t-282 80.5q-273 0 -372 -178l-222 16l58 816h1042v-199h-839l-31 -387q130 121 397 121q268 0 423 -133t155 -353q0 -119 -46.5 -213.5t-129.5 -156t-195 -93.5
t-244 -32z" />
    <glyph glyph-name="six" unicode="6" horiz-adv-x="1417" 
d="M733 -12q-331 0 -504 207q-149 183 -149 510q0 363 169.5 552t493.5 189q238 0 387 -100.5t183 -286.5h-223q-34 103 -119.5 150.5t-235.5 47.5q-434 0 -434 -481q0 -25 2 -37q54 103 176.5 159t298.5 56q265 0 416.5 -126.5t151.5 -350.5t-166 -356.5t-447 -132.5z
M735 174q180 0 279.5 78.5t99.5 218.5q0 142 -98 219.5t-277 77.5q-178 0 -278.5 -78.5t-100.5 -218.5q0 -137 101 -217t274 -80z" />
    <glyph glyph-name="seven" unicode="7" horiz-adv-x="1261" 
d="M164 0l794 1235h-940v199h1219v-152l-817 -1282h-256z" />
    <glyph glyph-name="eight" unicode="8" horiz-adv-x="1406" 
d="M702 -12q-293 0 -461.5 107.5t-168.5 295.5q0 140 88.5 235t249.5 124q-137 26 -214 108.5t-77 206.5q0 177 157 279t426 102q270 0 427 -102t157 -279q0 -122 -77 -205.5t-212 -109.5q161 -29 249.5 -124t88.5 -235q0 -188 -169 -295.5t-464 -107.5zM702 166
q194 0 298 62.5t104 179.5q0 115 -104 177t-298 62q-192 0 -295.5 -62t-103.5 -177q0 -117 103.5 -179.5t295.5 -62.5zM702 844q170 0 262.5 55t92.5 158q0 101 -92.5 156t-262.5 55q-171 0 -262.5 -54.5t-91.5 -156.5q0 -103 92 -158t262 -55z" />
    <glyph glyph-name="nine" unicode="9" horiz-adv-x="1417" 
d="M682 1446q334 0 504 -207q149 -183 149 -510q0 -364 -169 -552.5t-494 -188.5q-237 0 -386 100.5t-184 286.5h226q34 -103 119 -151t235 -48q432 0 432 481q0 25 -2 37q-54 -103 -176.5 -159t-296.5 -56q-266 0 -416.5 126.5t-150.5 350.5t165 357t445 133zM680 1260
q-178 0 -278.5 -78.5t-100.5 -218.5q0 -142 98.5 -219.5t278.5 -77.5q177 0 278 79t101 218q0 136 -102 216.5t-275 80.5z" />
    <glyph glyph-name="A" unicode="A" horiz-adv-x="1617" 
d="M18 0l652 1434h278l649 -1434h-260l-157 354h-754l-156 -354h-252zM514 555h578l-289 653z" />
    <glyph glyph-name="B" unicode="B" horiz-adv-x="1462" 
d="M125 0v1434h672q251 0 386.5 -98t135.5 -281q0 -122 -60 -199t-184 -115q314 -53 314 -331q0 -200 -150.5 -305t-437.5 -105h-676zM360 197h457q332 0 332 217t-332 217h-457v-434zM360 825h451q132 0 202 53.5t70 153.5q0 99 -69.5 152t-202.5 53h-451v-412z" />
    <glyph glyph-name="C" unicode="C" horiz-adv-x="1673" 
d="M870 -12q-241 0 -422.5 90t-279.5 255.5t-98 383.5q0 216 101 381.5t287 256.5t429 91q292 0 484.5 -133.5t238.5 -366.5h-244q-47 143 -172 218t-315 75q-261 0 -414.5 -140.5t-153.5 -381.5t150.5 -381.5t410.5 -140.5q196 0 321 74t171 218h244q-46 -233 -243.5 -366
t-494.5 -133z" />
    <glyph glyph-name="D" unicode="D" horiz-adv-x="1628" 
d="M125 0v1434h590q390 0 617 -191.5t227 -523.5q0 -333 -228 -526t-616 -193h-590zM360 209h355q289 0 445.5 132t156.5 378q0 244 -156.5 375t-445.5 131h-355v-1016z" />
    <glyph glyph-name="E" unicode="E" horiz-adv-x="1314" 
d="M125 0v1434h1104v-209h-869v-398h721v-202h-721v-416h900v-209h-1135z" />
    <glyph glyph-name="F" unicode="F" horiz-adv-x="1261" 
d="M125 0v1434h1075v-209h-840v-416h701v-203h-701v-606h-235z" />
    <glyph glyph-name="G" unicode="G" horiz-adv-x="1753" 
d="M872 -12q-235 0 -417.5 91.5t-283.5 257.5t-101 380q0 329 224 529t595 200q294 0 491.5 -133t241.5 -361h-244q-44 139 -170.5 213t-320.5 74q-264 0 -420 -141.5t-156 -380.5t154.5 -380.5t415.5 -141.5q243 0 383.5 95t148.5 257v39h-504v198h729v-784h-188l-20 190
q-73 -95 -222 -148.5t-336 -53.5z" />
    <glyph glyph-name="H" unicode="H" horiz-adv-x="1583" 
d="M125 0v1434h235v-603h861v603h235v-1434h-235v623h-861v-623h-235z" />
    <glyph glyph-name="I" unicode="I" horiz-adv-x="485" 
d="M125 0v1434h235v-1434h-235z" />
    <glyph glyph-name="J" unicode="J" horiz-adv-x="835" 
d="M51 0v209h215q112 0 160.5 50.5t48.5 166.5v1008h236v-1024q0 -410 -410 -410h-250z" />
    <glyph glyph-name="K" unicode="K" horiz-adv-x="1533" 
d="M125 0v1434h235v-752l805 752h322l-637 -588l686 -846h-299l-563 684l-314 -289v-395h-235z" />
    <glyph glyph-name="L" unicode="L" horiz-adv-x="1177" 
d="M125 0v1434h235v-1225h766v-209h-1001z" />
    <glyph glyph-name="M" unicode="M" horiz-adv-x="2019" 
d="M125 0v1434h295l594 -1149l590 1149h290v-1434h-233v1061l-553 -1061h-199l-551 1061v-1061h-233z" />
    <glyph glyph-name="N" unicode="N" horiz-adv-x="1593" 
d="M125 0v1434h215l897 -1057v1057h229v-1434h-215l-895 1057v-1057h-231z" />
    <glyph glyph-name="O" unicode="O" horiz-adv-x="1789" 
d="M895 -12q-181 0 -335 53.5t-261.5 148.5t-168 231t-60.5 296t60.5 296t168 231t261.5 148.5t335 53.5t335 -53.5t261.5 -148.5t168 -231t60.5 -296t-60.5 -296t-168 -231t-261.5 -148.5t-335 -53.5zM895 195q266 0 425 142t159 380t-159 380t-425 142t-425 -142
t-159 -380t159 -380t425 -142z" />
    <glyph glyph-name="P" unicode="P" horiz-adv-x="1417" 
d="M125 0v1434h713q244 0 387 -123.5t143 -333.5q0 -211 -143 -334t-387 -123h-478v-520h-235zM360 725h474q135 0 214.5 67.5t79.5 184.5t-79.5 184.5t-214.5 67.5h-474v-504z" />
    <glyph glyph-name="Q" unicode="Q" horiz-adv-x="1796" 
d="M1606 0q-73 0 -124 20.5t-112 83.5q-200 -116 -475 -116q-181 0 -335 53.5t-261.5 148.5t-168 231t-60.5 296t60.5 296t168 231t261.5 148.5t335 53.5t335 -53.5t261.5 -148.5t168 -231t60.5 -296q0 -291 -186 -486q38 -22 94 -22h135v-209h-157zM895 195q189 0 322 71
l-66 70q-31 33 -62 45t-77 12h-135v205h165q80 0 131.5 -22t114.5 -91l86 -92q105 133 105 324q0 238 -159 380t-425 142t-425 -142t-159 -380t159 -380t425 -142z" />
    <glyph glyph-name="R" unicode="R" horiz-adv-x="1447" 
d="M125 0v1434h715q244 0 387 -123.5t143 -333.5q0 -161 -90 -268t-260 -150l373 -559h-277l-344 520h-412v-520h-235zM360 725h476q135 0 214.5 67.5t79.5 184.5q0 116 -79 184t-215 68h-476v-504z" />
    <glyph glyph-name="S" unicode="S" horiz-adv-x="1441" 
d="M741 -12q-310 0 -488.5 127.5t-186.5 353.5h237q10 -133 126.5 -208t313.5 -75q191 0 290.5 55t99.5 160q0 42 -14 71.5t-41.5 51t-79.5 37.5t-114.5 27t-160.5 24q-336 43 -476.5 135.5t-140.5 278.5q0 195 161.5 307.5t439.5 112.5q287 0 454.5 -116.5t179.5 -325.5
h-235q-17 117 -120 180t-281 63q-363 0 -363 -207q0 -97 85 -137t327 -69q329 -38 471.5 -133t142.5 -279q0 -199 -170 -316.5t-457 -117.5z" />
    <glyph glyph-name="T" unicode="T" horiz-adv-x="1435" 
d="M600 0v1225h-549v209h1333v-209h-548v-1225h-236z" />
    <glyph glyph-name="U" unicode="U" horiz-adv-x="1568" 
d="M782 -12q-329 0 -498 162t-169 477v807h235v-820q0 -210 107.5 -313.5t324.5 -103.5q437 0 437 417v820h235v-807q0 -313 -171.5 -476t-500.5 -163z" />
    <glyph glyph-name="V" unicode="V" horiz-adv-x="1531" 
d="M629 0l-621 1434h254l506 -1178l506 1178h248l-619 -1434h-274z" />
    <glyph glyph-name="W" unicode="W" horiz-adv-x="2371" 
d="M528 0l-499 1434h247l394 -1155l405 1155h225l408 -1155l391 1155h244l-500 -1434h-274l-383 1102l-381 -1102h-277z" />
    <glyph glyph-name="X" unicode="X" horiz-adv-x="1501" 
d="M23 0l579 735l-547 699h295l406 -521l405 521h285l-547 -693l580 -741h-295l-439 563l-440 -563h-282z" />
    <glyph glyph-name="Y" unicode="Y" horiz-adv-x="1546" 
d="M655 0v530l-647 904h283l487 -682l490 682h270l-647 -904v-530h-236z" />
    <glyph glyph-name="Z" unicode="Z" horiz-adv-x="1456" 
d="M61 0v162l959 1063h-936v209h1288v-162l-958 -1063h981v-209h-1334z" />
    <glyph glyph-name="a" unicode="a" 
d="M514 -12q-211 0 -328.5 83t-117.5 234q0 326 501 326h373v43q0 209 -307 209q-267 0 -307 -154h-222q20 159 161.5 245.5t381.5 86.5q252 0 382 -102.5t130 -299.5v-378q0 -88 90 -88h52v-193h-119q-101 0 -160 43t-59 123v4q-65 -88 -183 -135t-268 -47zM551 160
q171 0 281 76t110 194v37h-385q-138 0 -201 -37t-63 -113q0 -157 258 -157z" />
    <glyph glyph-name="b" unicode="b" horiz-adv-x="1429" 
d="M766 -12q-139 0 -248.5 41t-177.5 118l-21 -147h-204v1434h223v-541q71 80 182.5 124t245.5 44q265 0 429.5 -150t164.5 -387q0 -242 -164 -389t-430 -147zM731 176q185 0 293.5 93.5t108.5 254.5q0 160 -108.5 254t-293.5 94q-184 0 -290.5 -94t-106.5 -254
q0 -161 106.5 -254.5t290.5 -93.5z" />
    <glyph glyph-name="c" unicode="c" horiz-adv-x="1312" 
d="M686 -12q-278 0 -447 147t-169 389t170 389.5t450 147.5q228 0 375.5 -101.5t185.5 -285.5h-233q-26 95 -113 146.5t-219 51.5q-180 0 -284.5 -93.5t-104.5 -254.5t104.5 -254.5t284.5 -93.5q134 0 220.5 52.5t111.5 148.5h233q-37 -184 -186.5 -286.5t-378.5 -102.5z
" />
    <glyph glyph-name="d" unicode="d" horiz-adv-x="1429" 
d="M664 -12q-268 0 -431 146.5t-163 389.5q0 237 164 387t430 150q133 0 245 -44t183 -124v541h221v-1434h-203l-23 147q-68 -77 -176.5 -118t-246.5 -41zM696 176q185 0 292.5 93.5t107.5 254.5q0 160 -108 254t-292 94t-291.5 -94t-107.5 -254q0 -161 107 -254.5
t292 -93.5z" />
    <glyph glyph-name="e" unicode="e" horiz-adv-x="1341" 
d="M698 -12q-285 0 -456.5 145.5t-171.5 388.5q0 239 168 389t436 150q270 0 434 -140t164 -370v-76h-971v-12q0 -137 102.5 -216t282.5 -79q289 0 352 182h222q-37 -164 -190.5 -263t-371.5 -99zM307 639h740q-13 118 -108.5 181t-260.5 63q-155 0 -254.5 -65t-116.5 -179z
" />
    <glyph glyph-name="f" unicode="f" horiz-adv-x="825" 
d="M233 0v854h-223v195h223v57q0 166 82.5 247t249.5 81h240v-195h-215q-75 0 -106 -29.5t-31 -101.5v-59h352v-195h-350v-854h-222z" />
    <glyph glyph-name="g" unicode="g" horiz-adv-x="1429" 
d="M686 -422q-257 0 -408 94t-174 269h226q57 -183 372 -183q198 0 295 79.5t97 242.5v86q-69 -82 -180 -126t-248 -44q-275 0 -435.5 142.5t-160.5 387.5q0 239 164 387t430 148q138 0 247 -42.5t176 -119.5l23 150h203v-977q0 -494 -627 -494zM696 182q183 0 291.5 93
t108.5 251t-108.5 252t-291.5 94t-291 -94t-108 -252t108 -251t291 -93z" />
    <glyph glyph-name="h" unicode="h" horiz-adv-x="1355" 
d="M115 0v1434h223v-535q133 162 412 162q242 0 371.5 -126t129.5 -382v-553h-221v537q0 333 -325 333q-179 0 -273 -85.5t-94 -247.5v-537h-223z" />
    <glyph glyph-name="i" unicode="i" horiz-adv-x="452" 
d="M115 0v1049h223v-1049h-223zM225 1202q-58 0 -95.5 36.5t-37.5 92.5t37.5 91.5t95.5 35.5q59 0 97 -36t38 -91q0 -56 -38.5 -92.5t-96.5 -36.5z" />
    <glyph glyph-name="j" unicode="j" horiz-adv-x="464" 
d="M-145 -410v195h129q79 0 112 32.5t33 110.5v1121h221v-1121q0 -183 -79 -260.5t-265 -77.5h-151zM240 1202q-59 0 -97.5 37t-38.5 92t38.5 91t97.5 36t97 -36t38 -91q0 -56 -38.5 -92.5t-96.5 -36.5z" />
    <glyph glyph-name="k" unicode="k" horiz-adv-x="1249" 
d="M115 0v1434h223v-904l592 519h289l-486 -424l518 -625h-280l-400 483l-233 -204v-279h-223z" />
    <glyph glyph-name="l" unicode="l" horiz-adv-x="452" 
d="M115 0v1434h223v-1434h-223z" />
    <glyph glyph-name="m" unicode="m" horiz-adv-x="2115" 
d="M115 0v1049h204l25 -146q63 75 159 116.5t210 41.5q281 0 387 -213q135 213 450 213q220 0 340.5 -135.5t120.5 -386.5v-539h-221v522q0 168 -75 258t-212 90q-154 0 -241.5 -90t-87.5 -252v-528h-222v522q0 168 -74.5 258t-211.5 90q-153 0 -240.5 -90t-87.5 -252v-528
h-223z" />
    <glyph glyph-name="n" unicode="n" horiz-adv-x="1355" 
d="M115 0v1049h204l25 -146q133 158 408 158q245 0 372 -133t127 -389v-539h-221v522q0 348 -325 348q-178 0 -272.5 -88t-94.5 -254v-528h-223z" />
    <glyph glyph-name="o" unicode="o" horiz-adv-x="1394" 
d="M698 -12q-281 0 -454.5 148.5t-173.5 387.5q0 240 173.5 388.5t454.5 148.5q280 0 453.5 -149t173.5 -388t-173.5 -387.5t-453.5 -148.5zM698 176q185 0 293.5 94t108.5 254t-108.5 254t-293.5 94q-184 0 -292.5 -94t-108.5 -254t108.5 -254t292.5 -94z" />
    <glyph glyph-name="p" unicode="p" horiz-adv-x="1429" 
d="M115 -410v1459h204l21 -148q68 77 177.5 118.5t248.5 41.5q265 0 429.5 -150t164.5 -387q0 -242 -164 -389t-430 -147q-134 0 -245.5 44t-182.5 124v-566h-223zM731 176q185 0 293.5 93.5t108.5 254.5q0 160 -108.5 254t-293.5 94q-184 0 -290.5 -94t-106.5 -254
q0 -161 106.5 -254.5t290.5 -93.5z" />
    <glyph glyph-name="q" unicode="q" horiz-adv-x="1429" 
d="M1092 -410v566q-71 -80 -183 -124t-245 -44q-268 0 -431 146.5t-163 389.5q0 237 164 387t430 150q137 0 246 -41.5t177 -118.5l23 148h203v-1459h-221zM696 176q185 0 292.5 93.5t107.5 254.5q0 160 -108 254t-292 94t-291.5 -94t-107.5 -254q0 -161 107 -254.5
t292 -93.5z" />
    <glyph glyph-name="r" unicode="r" horiz-adv-x="804" 
d="M115 0v1049h204l23 -156q109 156 367 156h65v-207h-108q-167 0 -247.5 -88t-80.5 -269v-485h-223z" />
    <glyph glyph-name="s" unicode="s" horiz-adv-x="1204" 
d="M625 -12q-262 0 -408 93t-154 263h218q15 -184 344 -184q301 0 301 145q0 64 -67 90t-253 37q-283 17 -400.5 85t-117.5 216q0 152 134.5 240t367.5 88q241 0 378.5 -85.5t151.5 -242.5h-217q-27 154 -313 154q-146 0 -215.5 -33t-69.5 -102q0 -65 64.5 -91t251.5 -40
q289 -22 405.5 -89.5t116.5 -214.5q0 -152 -140 -240.5t-378 -88.5z" />
    <glyph glyph-name="t" unicode="t" horiz-adv-x="837" 
d="M555 0q-170 0 -246 76t-76 246v532h-223v195h223v292h222v-292h331v-195h-331v-514q0 -82 32 -113.5t115 -31.5h184v-195h-231z" />
    <glyph glyph-name="u" unicode="u" horiz-adv-x="1339" 
d="M596 -12q-240 0 -366 133t-126 389v539h224v-525q0 -170 80 -258t237 -88q172 0 265.5 89t93.5 253v529h221v-1049h-205l-25 145q-135 -157 -399 -157z" />
    <glyph glyph-name="v" unicode="v" horiz-adv-x="1232" 
d="M481 0l-471 1049h242l369 -834l366 834h236l-471 -1049h-271z" />
    <glyph glyph-name="w" unicode="w" horiz-adv-x="1933" 
d="M428 0l-414 1049h236l305 -818l317 818h201l311 -818l308 818h227l-414 -1049h-239l-297 745l-301 -745h-240z" />
    <glyph glyph-name="x" unicode="x" horiz-adv-x="1220" 
d="M0 0l469 539l-442 510h274l313 -365l316 365h264l-442 -506l469 -543h-273l-342 397l-344 -397h-262z" />
    <glyph glyph-name="y" unicode="y" horiz-adv-x="1239" 
d="M86 -410v195h174q77 0 113 25t80 110l43 80l-486 1049h240l371 -816l366 816h242l-561 -1192q-76 -164 -147.5 -215.5t-219.5 -51.5h-215z" />
    <glyph glyph-name="z" unicode="z" horiz-adv-x="1167" 
d="M47 0v158l729 696h-715v195h1045v-158l-731 -696h745v-195h-1073z" />
    <glyph glyph-name="uni00A0" unicode="&#xa0;" horiz-adv-x="571" 
 />
    <glyph glyph-name="Alphatonos" unicode="&#x386;" horiz-adv-x="1617" 
d="M18 0l652 1434h278l649 -1434h-260l-157 354h-754l-156 -354h-252zM514 555h578l-289 653zM109 1122l86 312h235l-170 -312h-151z" />
    <glyph glyph-name="Epsilontonos" unicode="&#x388;" horiz-adv-x="1505" 
d="M315 0v1434h1104v-209h-868v-398h721v-202h-721v-416h899v-209h-1135zM-96 1122l86 312h235l-168 -312h-153z" />
    <glyph glyph-name="Etatonos" unicode="&#x389;" horiz-adv-x="1773" 
d="M315 0v1434h236v-603h860v603h236v-1434h-236v623h-860v-623h-236zM-96 1122l86 312h235l-168 -312h-153z" />
    <glyph glyph-name="Iotatonos" unicode="&#x38a;" horiz-adv-x="677" 
d="M315 0v1434h236v-1434h-236zM-96 1122l86 312h235l-168 -312h-153z" />
    <glyph glyph-name="Omicrontonos" unicode="&#x38c;" horiz-adv-x="1835" 
d="M940 -12q-181 0 -335 53.5t-261.5 148.5t-168 231t-60.5 296t60.5 296t168 231t261.5 148.5t335 53.5t334.5 -53.5t261 -148.5t167.5 -231t60 -296t-60 -296t-167.5 -231t-261 -148.5t-334.5 -53.5zM940 195q266 0 425 142t159 380t-159 380t-425 142t-426 -142.5
t-160 -379.5t160 -379.5t426 -142.5zM-59 1122l86 312h235l-168 -312h-153z" />
    <glyph glyph-name="Upsilontonos" unicode="&#x38e;" horiz-adv-x="1759" 
d="M866 0v530l-647 904h283l487 -682l490 682h270l-647 -904v-530h-236zM-137 1122l86 312h235l-170 -312h-151z" />
    <glyph glyph-name="Omegatonos" unicode="&#x38f;" horiz-adv-x="1855" 
d="M150 0v209h462v39q-462 132 -462 553q0 144 59 264.5t165 204t258 130t335 46.5q367 0 592 -177t225 -468q0 -421 -463 -553v-39h463v-209h-643v334q219 70 310 179.5t91 281.5q0 203 -156.5 323.5t-418.5 120.5q-263 0 -419.5 -121t-156.5 -323q0 -171 91.5 -281
t310.5 -180v-334h-643zM-35 1122l86 312h236l-170 -312h-152z" />
    <glyph glyph-name="iotadieresistonos" unicode="&#x390;" horiz-adv-x="602" 
d="M406 0q-160 0 -232 70t-72 227v752h222v-723q0 -73 29.5 -102t101.5 -29h127v-195h-176zM135 1165l6 312h230l-88 -312h-148zM-74 1198q-55 0 -91 35t-36 88q0 54 35.5 88.5t91.5 34.5t92.5 -34.5t36.5 -88.5q0 -53 -37 -88t-92 -35zM535 1198q-55 0 -91 35t-36 88
q0 54 35.5 88.5t91.5 34.5q57 0 93 -34.5t36 -88.5q0 -53 -36 -88t-93 -35z" />
    <glyph glyph-name="Alpha" unicode="&#x391;" horiz-adv-x="1617" 
d="M18 0l652 1434h278l649 -1434h-260l-157 354h-754l-156 -354h-252zM514 555h578l-289 653z" />
    <glyph glyph-name="Beta" unicode="&#x392;" horiz-adv-x="1462" 
d="M125 0v1434h672q251 0 386.5 -98t135.5 -281q0 -122 -60 -199t-184 -115q314 -53 314 -331q0 -200 -150.5 -305t-437.5 -105h-676zM360 197h457q332 0 332 217t-332 217h-457v-434zM360 825h451q132 0 202 53.5t70 153.5q0 99 -69.5 152t-202.5 53h-451v-412z" />
    <glyph glyph-name="Gamma" unicode="&#x393;" horiz-adv-x="1251" 
d="M125 0v1434h1075v-209h-840v-1225h-235z" />
    <glyph glyph-name="uni0394" unicode="&#x394;" horiz-adv-x="1533" 
d="M29 0v162l598 1272h280l596 -1272v-162h-1474zM299 209h926l-465 999z" />
    <glyph glyph-name="Epsilon" unicode="&#x395;" horiz-adv-x="1314" 
d="M125 0v1434h1104v-209h-869v-398h721v-202h-721v-416h900v-209h-1135z" />
    <glyph glyph-name="Zeta" unicode="&#x396;" horiz-adv-x="1456" 
d="M61 0v162l959 1063h-936v209h1288v-162l-958 -1063h981v-209h-1334z" />
    <glyph glyph-name="Eta" unicode="&#x397;" horiz-adv-x="1583" 
d="M125 0v1434h235v-603h861v603h235v-1434h-235v623h-861v-623h-235z" />
    <glyph glyph-name="Theta" unicode="&#x398;" horiz-adv-x="1796" 
d="M897 -12q-181 0 -335 53.5t-262 148.5t-169 231t-61 296t61 296t169 231t262 148.5t335 53.5q242 0 430.5 -91t293.5 -257.5t105 -380.5t-105 -380.5t-293.5 -257.5t-430.5 -91zM897 195q268 0 430 140.5t162 381.5t-162 381.5t-430 140.5t-429 -140.5t-161 -381.5
t161 -381.5t429 -140.5zM522 627v186h752v-186h-752z" />
    <glyph glyph-name="Iota" unicode="&#x399;" horiz-adv-x="485" 
d="M125 0v1434h235v-1434h-235z" />
    <glyph glyph-name="Kappa" unicode="&#x39a;" horiz-adv-x="1533" 
d="M125 0v1434h235v-752l805 752h322l-637 -588l686 -846h-299l-563 684l-314 -289v-395h-235z" />
    <glyph glyph-name="Lambda" unicode="&#x39b;" horiz-adv-x="1574" 
d="M18 0l627 1434h283l628 -1434h-253l-519 1186l-516 -1186h-250z" />
    <glyph glyph-name="Mu" unicode="&#x39c;" horiz-adv-x="2019" 
d="M125 0v1434h295l594 -1149l590 1149h290v-1434h-233v1061l-553 -1061h-199l-551 1061v-1061h-233z" />
    <glyph glyph-name="Nu" unicode="&#x39d;" horiz-adv-x="1593" 
d="M125 0v1434h215l897 -1057v1057h229v-1434h-215l-895 1057v-1057h-231z" />
    <glyph glyph-name="Xi" unicode="&#x39e;" horiz-adv-x="1419" 
d="M55 0v209h1309v-209h-1309zM236 623v208h950v-208h-950zM88 1225v209h1245v-209h-1245z" />
    <glyph glyph-name="Omicron" unicode="&#x39f;" horiz-adv-x="1789" 
d="M895 -12q-181 0 -335 53.5t-261.5 148.5t-168 231t-60.5 296t60.5 296t168 231t261.5 148.5t335 53.5t335 -53.5t261.5 -148.5t168 -231t60.5 -296t-60.5 -296t-168 -231t-261.5 -148.5t-335 -53.5zM895 195q266 0 425 142t159 380t-159 380t-425 142t-425 -142
t-159 -380t159 -380t425 -142z" />
    <glyph glyph-name="Pi" unicode="&#x3a0;" horiz-adv-x="1570" 
d="M125 0v1434h1321v-1434h-236v1225h-850v-1225h-235z" />
    <glyph glyph-name="Rho" unicode="&#x3a1;" horiz-adv-x="1417" 
d="M125 0v1434h713q244 0 387 -123.5t143 -333.5q0 -211 -143 -334t-387 -123h-478v-520h-235zM360 725h474q135 0 214.5 67.5t79.5 184.5t-79.5 184.5t-214.5 67.5h-474v-504z" />
    <glyph glyph-name="Sigma" unicode="&#x3a3;" horiz-adv-x="1470" 
d="M61 0v162l609 571l-586 539v162h1302v-209h-909l481 -447v-80l-520 -489h971v-209h-1348z" />
    <glyph glyph-name="Tau" unicode="&#x3a4;" horiz-adv-x="1435" 
d="M600 0v1225h-549v209h1333v-209h-548v-1225h-236z" />
    <glyph glyph-name="Upsilon" unicode="&#x3a5;" horiz-adv-x="1546" 
d="M655 0v530l-647 904h283l487 -682l490 682h270l-647 -904v-530h-236z" />
    <glyph glyph-name="Phi" unicode="&#x3a6;" horiz-adv-x="2097" 
d="M934 -12v121h-35q-386 0 -607.5 162.5t-221.5 445.5t221.5 445.5t607.5 162.5h35v121h227v-121h35q386 0 607.5 -162.5t221.5 -445.5t-221.5 -445.5t-607.5 -162.5h-35v-121h-227zM899 305h35v823h-35q-280 0 -437 -108.5t-157 -302.5t157 -303t437 -109zM1161 305h35
q281 0 438.5 109t157.5 303t-157.5 302.5t-438.5 108.5h-35v-823z" />
    <glyph glyph-name="Chi" unicode="&#x3a7;" horiz-adv-x="1501" 
d="M23 0l579 735l-547 699h295l406 -521l405 521h285l-547 -693l580 -741h-295l-439 563l-440 -563h-282z" />
    <glyph glyph-name="Psi" unicode="&#x3a8;" horiz-adv-x="1882" 
d="M825 0v395q-371 22 -548 190t-177 509v340h230v-328q0 -256 112 -370.5t383 -131.5v830h230v-830q271 17 383 131.5t112 370.5v328h230v-340q0 -341 -176 -509t-549 -190v-395h-230z" />
    <glyph glyph-name="uni03A9" unicode="&#x3a9;" horiz-adv-x="1775" 
d="M72 0v209h463v39q-463 132 -463 553q0 291 224 468t591 177q183 0 335 -46.5t258 -130t165 -204t59 -264.5q0 -421 -463 -553v-39h463v-209h-641v334q219 70 310 179.5t91 281.5q0 203 -156.5 323.5t-420.5 120.5q-263 0 -419.5 -121t-156.5 -323q0 -171 91.5 -281
t310.5 -180v-334h-641z" />
    <glyph glyph-name="Iotadieresis" unicode="&#x3aa;" horiz-adv-x="485" 
d="M125 0v1434h235v-1434h-235zM469 1581q-57 0 -94 35.5t-37 89.5q0 55 37 91t94 36q58 0 95.5 -35.5t37.5 -91.5q0 -54 -37.5 -89.5t-95.5 -35.5zM14 1581q-57 0 -94 35.5t-37 89.5q0 55 37 91t94 36q58 0 95.5 -35.5t37.5 -91.5q0 -54 -37.5 -89.5t-95.5 -35.5z" />
    <glyph glyph-name="Upsilondieresis" unicode="&#x3ab;" horiz-adv-x="1546" 
d="M655 0v530l-647 904h283l487 -682l490 682h270l-647 -904v-530h-236zM1004 1581q-58 0 -96 35.5t-38 89.5q0 55 37.5 91t96.5 36q57 0 94 -36t37 -91q0 -54 -37 -89.5t-94 -35.5zM549 1581q-58 0 -95.5 35.5t-37.5 89.5q0 56 37.5 91.5t95.5 35.5q57 0 94 -36t37 -91
q0 -54 -37 -89.5t-94 -35.5z" />
    <glyph glyph-name="alphatonos" unicode="&#x3ac;" horiz-adv-x="1472" 
d="M659 -12q-265 0 -427 147t-162 389q0 237 163 387t426 150q136 0 245 -41.5t177 -118.5l23 148h205v-768q0 -88 88 -88h55v-193h-129q-206 0 -221 174q-72 -89 -187.5 -137.5t-255.5 -48.5zM694 176q182 0 289 93.5t107 254.5q0 160 -107 254t-289 94q-183 0 -290 -94
t-107 -254q0 -161 107 -254.5t290 -93.5zM623 1165l86 312h235l-170 -312h-151z" />
    <glyph glyph-name="epsilontonos" unicode="&#x3ad;" horiz-adv-x="1228" 
d="M633 -12q-279 0 -426.5 79t-147.5 230q0 102 69 164.5t198 79.5q-230 39 -230 225q0 140 134.5 217.5t381.5 77.5q255 0 403.5 -91t162.5 -249h-224q-21 86 -101 127t-235 41q-299 0 -299 -137q0 -138 224 -138h225v-172h-238q-245 0 -245 -135q0 -76 83.5 -112.5
t262.5 -36.5q157 0 233 42t97 134h223q-11 -174 -144.5 -260t-406.5 -86zM549 1163l86 312h235l-170 -312h-151z" />
    <glyph glyph-name="etatonos" unicode="&#x3ae;" horiz-adv-x="1406" 
d="M1081 -410v932q0 348 -325 348q-179 0 -274 -88t-95 -254v-528h-221v768q0 86 -90 86h-49v195h129q202 0 217 -164q136 176 430 176q246 0 373 -133.5t127 -388.5v-949h-222zM514 1165l86 312h236l-170 -312h-152z" />
    <glyph glyph-name="iotatonos" unicode="&#x3af;" horiz-adv-x="602" 
d="M406 0q-160 0 -232 70t-72 227v752h222v-723q0 -73 29.5 -102t101.5 -29h127v-195h-176zM139 1165l86 312h236l-170 -312h-152z" />
    <glyph glyph-name="upsilondieresistonos" unicode="&#x3b0;" 
d="M659 -12q-283 0 -419 134.5t-136 414.5v512h224v-490q0 -206 75.5 -292.5t255.5 -86.5q181 0 257.5 86.5t76.5 292.5v490h224v-512q0 -278 -137.5 -413.5t-420.5 -135.5zM582 1165l6 312h229l-88 -312h-147zM373 1198q-55 0 -91 35t-36 88q0 54 35.5 88.5t91.5 34.5
t92.5 -34.5t36.5 -88.5q0 -53 -37 -88t-92 -35zM981 1198q-55 0 -91 35t-36 88q0 54 35.5 88.5t91.5 34.5q57 0 93 -34.5t36 -88.5q0 -53 -36 -88t-93 -35z" />
    <glyph glyph-name="alpha" unicode="&#x3b1;" horiz-adv-x="1472" 
d="M659 -12q-265 0 -427 147t-162 389q0 237 163 387t426 150q136 0 245 -41.5t177 -118.5l23 148h205v-768q0 -88 88 -88h55v-193h-129q-206 0 -221 174q-72 -89 -187.5 -137.5t-255.5 -48.5zM694 176q182 0 289 93.5t107 254.5q0 160 -107 254t-289 94q-183 0 -290 -94
t-107 -254q0 -161 107 -254.5t290 -93.5z" />
    <glyph glyph-name="beta" unicode="&#x3b2;" horiz-adv-x="1406" 
d="M115 -410v1346q0 251 141.5 380.5t415.5 129.5q255 0 397.5 -100t142.5 -273q0 -106 -61.5 -192.5t-157.5 -120.5q166 -29 255 -123t89 -240q0 -194 -141.5 -301.5t-413.5 -107.5q-141 0 -255.5 37.5t-188.5 105.5v-541h-223zM338 457q0 -134 121.5 -211.5t314.5 -77.5
q338 0 338 233q0 126 -108 185t-336 59h-88v174h47q358 0 358 236q0 101 -80 153t-235 52q-170 0 -251 -76t-81 -236v-491z" />
    <glyph glyph-name="gamma" unicode="&#x3b3;" horiz-adv-x="1269" 
d="M526 -334v344l-516 1039h244l385 -795l383 795h238l-510 -1031v-352h-224z" />
    <glyph glyph-name="delta" unicode="&#x3b4;" horiz-adv-x="1374" 
d="M678 -12q-284 0 -446 128.5t-162 352.5q0 186 131.5 313.5t355.5 159.5q39 6 117 6l-465 312v174h1028v-191h-662l390 -264q191 -127 265.5 -237t74.5 -263q0 -142 -79.5 -254t-222.5 -174.5t-325 -62.5zM686 166q177 0 286 86.5t109 224.5q0 135 -108.5 222t-278.5 87
q-184 0 -290.5 -83t-106.5 -226q0 -145 103 -228t286 -83z" />
    <glyph glyph-name="epsilon" unicode="&#x3b5;" horiz-adv-x="1228" 
d="M633 -12q-279 0 -426.5 79t-147.5 230q0 102 69 164.5t198 79.5q-230 39 -230 225q0 140 134.5 217.5t381.5 77.5q255 0 403.5 -91t162.5 -249h-224q-21 86 -101 127t-235 41q-299 0 -299 -137q0 -138 224 -138h225v-172h-238q-245 0 -245 -135q0 -76 83.5 -112.5
t262.5 -36.5q157 0 233 42t97 134h223q-11 -174 -144.5 -260t-406.5 -86z" />
    <glyph glyph-name="zeta" unicode="&#x3b6;" horiz-adv-x="1153" 
d="M897 -276v126q0 85 -35 116t-135 32l-131 2q-264 3 -398.5 97t-134.5 274q0 134 87 261t319 331l315 276h-688v195h1018v-158l-475 -418q-209 -183 -278.5 -276.5t-69.5 -188.5q0 -101 80 -149t254 -49l143 -2q177 -3 253.5 -69.5t76.5 -215.5v-184h-201z" />
    <glyph glyph-name="eta" unicode="&#x3b7;" horiz-adv-x="1406" 
d="M1081 -410v932q0 348 -325 348q-179 0 -274 -88t-95 -254v-528h-221v768q0 86 -90 86h-49v195h129q202 0 217 -164q136 176 430 176q246 0 373 -133.5t127 -388.5v-949h-222z" />
    <glyph glyph-name="theta" unicode="&#x3b8;" horiz-adv-x="1380" 
d="M690 -12q-299 0 -459.5 188.5t-160.5 542.5q0 352 160.5 539.5t459.5 187.5q301 0 461 -186t160 -541q0 -354 -160.5 -542.5t-460.5 -188.5zM690 178q186 0 285.5 113t114.5 344h-799q15 -232 113.5 -344.5t285.5 -112.5zM293 821h794q-17 221 -115.5 327.5t-281.5 106.5
t-281.5 -106.5t-115.5 -327.5z" />
    <glyph glyph-name="iota" unicode="&#x3b9;" horiz-adv-x="602" 
d="M406 0q-160 0 -232 70t-72 227v752h222v-723q0 -73 29.5 -102t101.5 -29h127v-195h-176z" />
    <glyph glyph-name="kappa" unicode="&#x3ba;" horiz-adv-x="1300" 
d="M115 0v1049h223v-562l504 449q79 69 135.5 91t161.5 22h98v-195h-66q-84 0 -112.5 -10.5t-87.5 -61.5l-203 -178l518 -604h-282l-400 471l-266 -238v-233h-223z" />
    <glyph glyph-name="lambda" unicode="&#x3bb;" horiz-adv-x="1280" 
d="M25 0l487 1020l-41 84q-42 86 -78.5 110.5t-113.5 24.5h-158v195h192q147 0 218 -52t149 -215l575 -1167h-239l-379 786l-373 -786h-239z" />
    <glyph glyph-name="uni03BC" unicode="&#x3bc;" horiz-adv-x="1396" 
d="M115 -410v1459h223v-525q0 -170 80 -258t237 -88q172 0 265.5 89t93.5 253v529h221v-768q0 -88 90 -88h49v-193h-129q-202 0 -217 164q-138 -176 -410 -176q-178 0 -280 88v-486h-223z" />
    <glyph glyph-name="nu" unicode="&#x3bd;" horiz-adv-x="1232" 
d="M481 0l-471 1049h242l369 -834l366 834h236l-471 -1049h-271z" />
    <glyph glyph-name="xi" unicode="&#x3be;" horiz-adv-x="1202" 
d="M924 -276v129q0 85 -35 115.5t-135 31.5l-179 2q-505 6 -505 377q0 127 82.5 226t216.5 134q-103 28 -160 95.5t-57 160.5q0 95 59 160t170 86l-254 -2v195h1012v-174q-67 0 -293 -7q-238 -9 -352.5 -66t-114.5 -163q0 -96 76 -146.5t223 -50.5h348v-192h-373
q-174 0 -265 -59t-91 -170q0 -105 77 -157.5t242 -53.5l177 -5q178 -1 254.5 -66t76.5 -214v-186h-200z" />
    <glyph glyph-name="omicron" unicode="&#x3bf;" horiz-adv-x="1394" 
d="M698 -12q-281 0 -454.5 148.5t-173.5 387.5q0 240 173.5 388.5t454.5 148.5q280 0 453.5 -149t173.5 -388t-173.5 -387.5t-453.5 -148.5zM698 176q185 0 293.5 94t108.5 254t-108.5 254t-293.5 94q-184 0 -292.5 -94t-108.5 -254t108.5 -254t292.5 -94z" />
    <glyph glyph-name="pi" unicode="&#x3c0;" horiz-adv-x="1499" 
d="M1241 0q-113 0 -167 49.5t-54 153.5v651h-557v-854h-221v854h-213v195h1433v-195h-221v-592q0 -41 20 -55t72 -14h60v-193h-152z" />
    <glyph glyph-name="rho" unicode="&#x3c1;" horiz-adv-x="1423" 
d="M104 -410v934q0 238 172.5 387.5t454.5 149.5q281 0 453 -149.5t172 -387.5q0 -243 -165.5 -389.5t-440.5 -146.5q-270 0 -422 127v-525h-224zM727 176q185 0 293 93.5t108 254.5q0 160 -107.5 254t-291.5 94t-292.5 -94t-108.5 -254q0 -161 107 -254.5t292 -93.5z" />
    <glyph glyph-name="sigma1" unicode="&#x3c2;" horiz-adv-x="1312" 
d="M903 -276v126q0 85 -35 115t-135 33l-78 2q-291 9 -438 144.5t-147 379.5q0 242 170 389.5t450 147.5q228 0 375.5 -101.5t185.5 -285.5h-233q-26 95 -113 146.5t-219 51.5q-180 0 -284.5 -93.5t-104.5 -254.5q0 -167 85 -246.5t294 -82.5l98 -2q173 -5 251.5 -70
t78.5 -215v-184h-201z" />
    <glyph glyph-name="sigma" unicode="&#x3c3;" horiz-adv-x="1478" 
d="M698 -12q-280 0 -454 147t-174 383t174 383.5t452 147.5h748v-195h-281q162 -125 162 -342q0 -233 -175 -378.5t-452 -145.5zM698 176q183 0 292.5 93t109.5 249t-109.5 249t-292.5 93q-184 0 -292.5 -93t-108.5 -249q0 -157 108.5 -249.5t292.5 -92.5z" />
    <glyph glyph-name="tau" unicode="&#x3c4;" horiz-adv-x="1200" 
d="M788 0q-170 0 -245.5 76t-75.5 246v532h-438v195h1134v-195h-475v-514q0 -82 32.5 -113.5t115.5 -31.5h194v-195h-242z" />
    <glyph glyph-name="upsilon" unicode="&#x3c5;" 
d="M659 -12q-283 0 -419 134.5t-136 414.5v512h224v-490q0 -206 75.5 -292.5t255.5 -86.5q181 0 257.5 86.5t76.5 292.5v490h224v-512q0 -278 -137.5 -413.5t-420.5 -135.5z" />
    <glyph glyph-name="phi" unicode="&#x3c6;" horiz-adv-x="1777" 
d="M780 -410v410h-24q-315 0 -500.5 142t-185.5 382t186 382.5t500 142.5h24v270h217v-270h27q313 0 498.5 -142.5t185.5 -382.5q0 -239 -185.5 -381.5t-498.5 -142.5h-27v-410h-217zM756 184h26v680h-26q-215 0 -338 -91t-123 -249t123 -249t338 -91zM997 184h27
q215 0 338 91t123 249t-123 249t-338 91h-27v-680z" />
    <glyph glyph-name="chi" unicode="&#x3c7;" horiz-adv-x="1351" 
d="M23 -410l532 740l-295 420q-44 65 -80.5 84.5t-122.5 19.5h-55v195h98q75 0 117 -6.5t84 -34t74 -66t88 -119.5l223 -319l383 545h242l-502 -705l295 -457q41 -65 78.5 -83.5t126.5 -18.5h53v-195h-100q-101 0 -155 17.5t-97 62t-109 150.5l-227 354l-398 -584h-253z" />
    <glyph glyph-name="psi" unicode="&#x3c8;" horiz-adv-x="1685" 
d="M737 -410v402q-321 20 -477 168.5t-156 431.5v457h224v-439q0 -218 92.5 -316.5t316.5 -113.5v1135h213v-1135q223 15 316.5 114t93.5 316v439h221v-457q0 -283 -155.5 -431.5t-475.5 -168.5v-402h-213z" />
    <glyph glyph-name="omega" unicode="&#x3c9;" horiz-adv-x="1863" 
d="M543 -12q-215 0 -339 133.5t-124 361.5q0 156 73.5 313.5t190.5 252.5h236q-146 -148 -209.5 -278.5t-63.5 -278.5t66.5 -232t189.5 -84q121 0 192.5 87.5t71.5 238.5v203h209v-203q0 -154 70 -240t192 -86q123 0 192 85t69 231q0 148 -64.5 279.5t-210.5 277.5h238
q117 -95 189.5 -252t72.5 -314q0 -228 -123.5 -361.5t-339.5 -133.5q-149 0 -252 68t-139 194q-39 -127 -140.5 -194.5t-246.5 -67.5z" />
    <glyph glyph-name="iotadieresis" unicode="&#x3ca;" horiz-adv-x="602" 
d="M406 0q-160 0 -232 70t-72 227v752h222v-723q0 -73 29.5 -102t101.5 -29h127v-195h-176zM442 1196q-58 0 -94.5 35.5t-36.5 89.5q0 56 36.5 91.5t94.5 35.5q57 0 94 -36t37 -91q0 -54 -37 -89.5t-94 -35.5zM-12 1196q-58 0 -95.5 35.5t-37.5 89.5q0 56 37.5 91.5
t95.5 35.5q57 0 94 -36t37 -91q0 -54 -37 -89.5t-94 -35.5z" />
    <glyph glyph-name="upsilondieresis" unicode="&#x3cb;" 
d="M659 -12q-283 0 -419 134.5t-136 414.5v512h224v-490q0 -206 75.5 -292.5t255.5 -86.5q181 0 257.5 86.5t76.5 292.5v490h224v-512q0 -278 -137.5 -413.5t-420.5 -135.5zM889 1196q-58 0 -94.5 35.5t-36.5 89.5q0 56 36.5 91.5t94.5 35.5q57 0 94 -36t37 -91
q0 -54 -37 -89.5t-94 -35.5zM434 1196q-58 0 -95.5 35.5t-37.5 89.5q0 56 37.5 91.5t95.5 35.5q57 0 94 -36t37 -91q0 -54 -37 -89.5t-94 -35.5z" />
    <glyph glyph-name="omicrontonos" unicode="&#x3cc;" horiz-adv-x="1394" 
d="M698 -12q-281 0 -454.5 148.5t-173.5 387.5q0 240 173.5 388.5t454.5 148.5q280 0 453.5 -149t173.5 -388t-173.5 -387.5t-453.5 -148.5zM698 176q185 0 293.5 94t108.5 254t-108.5 254t-293.5 94q-184 0 -292.5 -94t-108.5 -254t108.5 -254t292.5 -94zM623 1165l86 312
h235l-168 -312h-153z" />
    <glyph glyph-name="upsilontonos" unicode="&#x3cd;" 
d="M659 -12q-283 0 -419 134.5t-136 414.5v512h224v-490q0 -206 75.5 -292.5t255.5 -86.5q181 0 257.5 86.5t76.5 292.5v490h224v-512q0 -278 -137.5 -413.5t-420.5 -135.5zM586 1165l86 312h235l-170 -312h-151z" />
    <glyph glyph-name="omegatonos" unicode="&#x3ce;" horiz-adv-x="1863" 
d="M543 -12q-215 0 -339 133.5t-124 361.5q0 156 73.5 313.5t190.5 252.5h236q-146 -148 -209.5 -278.5t-63.5 -278.5t66.5 -232t189.5 -84q121 0 192.5 87.5t71.5 238.5v203h209v-203q0 -154 70 -240t192 -86q123 0 192 85t69 231q0 148 -64.5 279.5t-210.5 277.5h238
q117 -95 189.5 -252t72.5 -314q0 -228 -123.5 -361.5t-339.5 -133.5q-149 0 -252 68t-139 194q-39 -127 -140.5 -194.5t-246.5 -67.5zM856 1165l86 312h236l-170 -312h-152z" />
    <glyph glyph-name="uni0400" unicode="&#x400;" horiz-adv-x="1314" 
d="M125 0v1434h1104v-209h-869v-398h721v-202h-721v-416h900v-209h-1135zM582 1548l-303 287h288l197 -287h-182z" />
    <glyph glyph-name="uni0401" unicode="&#x401;" horiz-adv-x="1314" 
d="M125 0v1434h1104v-209h-869v-398h721v-202h-721v-416h900v-209h-1135zM905 1581q-58 0 -95.5 35.5t-37.5 89.5q0 56 37.5 91.5t95.5 35.5q57 0 94 -36t37 -91q0 -54 -37 -89.5t-94 -35.5zM451 1581q-58 0 -96 35.5t-38 89.5q0 55 37.5 91t96.5 36q57 0 94 -36t37 -91
q0 -54 -37 -89.5t-94 -35.5z" />
    <glyph glyph-name="uni0402" unicode="&#x402;" horiz-adv-x="1886" 
d="M559 0v1225h-508v209h1333v-209h-589v-387q204 63 428 63q283 0 432 -127t149 -375v-159q0 -516 -555 -516h-112v206h88q182 0 263 76t81 246v110q0 334 -369 334q-201 0 -405 -67v-629h-236z" />
    <glyph glyph-name="uni0403" unicode="&#x403;" horiz-adv-x="1251" 
d="M125 0v1434h1075v-209h-840v-1225h-235zM578 1550l192 285h285l-299 -285h-178z" />
    <glyph glyph-name="uni0404" unicode="&#x404;" horiz-adv-x="1673" 
d="M870 -12q-241 0 -422.5 90t-279.5 255.5t-98 383.5q0 216 101 381.5t287 256.5t429 91q291 0 484 -132.5t239 -361.5h-242q-50 139 -174.5 214t-314.5 75q-231 0 -379.5 -111t-182.5 -307h734v-202h-736q31 -199 178 -313.5t379 -114.5q197 0 322.5 74t171.5 214h242
q-44 -228 -242.5 -360.5t-495.5 -132.5z" />
    <glyph glyph-name="uni0405" unicode="&#x405;" horiz-adv-x="1441" 
d="M741 -12q-310 0 -488.5 127.5t-186.5 353.5h237q10 -133 126.5 -208t313.5 -75q191 0 290.5 55t99.5 160q0 42 -14 71.5t-41.5 51t-79.5 37.5t-114.5 27t-160.5 24q-336 43 -476.5 135.5t-140.5 278.5q0 195 161.5 307.5t439.5 112.5q287 0 454.5 -116.5t179.5 -325.5
h-235q-17 117 -120 180t-281 63q-363 0 -363 -207q0 -97 85 -137t327 -69q329 -38 471.5 -133t142.5 -279q0 -199 -170 -316.5t-457 -117.5z" />
    <glyph glyph-name="uni0406" unicode="&#x406;" horiz-adv-x="485" 
d="M125 0v1434h235v-1434h-235z" />
    <glyph glyph-name="uni0407" unicode="&#x407;" horiz-adv-x="485" 
d="M125 0v1434h235v-1434h-235zM471 1581q-58 0 -94.5 35.5t-36.5 89.5q0 56 36.5 91.5t94.5 35.5q57 0 94 -36t37 -91q0 -54 -37 -89.5t-94 -35.5zM16 1581q-58 0 -95.5 35.5t-37.5 89.5q0 56 37.5 91.5t95.5 35.5q57 0 94 -36t37 -91q0 -54 -37 -89.5t-94 -35.5z" />
    <glyph glyph-name="uni0408" unicode="&#x408;" horiz-adv-x="835" 
d="M51 0v209h215q112 0 160.5 50.5t48.5 166.5v1008h236v-1024q0 -410 -410 -410h-250z" />
    <glyph glyph-name="uni0409" unicode="&#x409;" horiz-adv-x="2537" 
d="M16 0v209h43q75 0 123.5 22t83.5 80t50.5 159t15.5 257v707h1163v-566h457q257 0 391.5 -110.5t134.5 -323.5q0 -210 -136.5 -322t-389.5 -112h-692v1225h-705v-516q0 -199 -27 -335t-86 -219t-144.5 -119t-209.5 -36h-72zM1495 205h440q148 0 224.5 58.5t76.5 170.5
t-77.5 171t-223.5 59h-440v-459z" />
    <glyph glyph-name="uni040A" unicode="&#x40a;" horiz-adv-x="2488" 
d="M125 0v1434h235v-568h850v568h236v-566h457q257 0 390.5 -110.5t133.5 -323.5q0 -211 -135.5 -322.5t-388.5 -111.5h-693v657h-850v-657h-235zM1446 205h440q148 0 224.5 58.5t76.5 170.5q0 111 -78 170.5t-225 59.5h-438v-459z" />
    <glyph glyph-name="uni040B" unicode="&#x40b;" horiz-adv-x="1902" 
d="M559 0v1225h-508v209h1333v-209h-589v-387q204 63 430 63q293 0 445.5 -127t152.5 -375v-399h-236v362q0 169 -96 251.5t-289 82.5q-203 0 -407 -67v-629h-236z" />
    <glyph glyph-name="uni040C" unicode="&#x40c;" horiz-adv-x="1550" 
d="M125 0v1434h235v-603h314l526 603h289l-610 -691l649 -743h-305l-545 623h-318v-623h-235zM662 1550l192 285h285l-299 -285h-178z" />
    <glyph glyph-name="uni040D" unicode="&#x40d;" horiz-adv-x="1599" 
d="M125 0v1434h231v-1080l904 1080h215v-1434h-232v1079l-903 -1079h-215zM705 1548l-304 287h289l197 -287h-182z" />
    <glyph glyph-name="uni040E" unicode="&#x40e;" horiz-adv-x="1497" 
d="M213 0v209h139q119 0 173.5 25.5t97.5 101.5l51 88l-666 1010h277l512 -799l434 799h258l-653 -1164q-86 -152 -183.5 -211t-263.5 -59h-176zM754 1546q-180 0 -270 76t-93 213h172q0 -152 195 -152q194 0 194 152h176q-3 -138 -98 -213.5t-276 -75.5z" />
    <glyph glyph-name="uni040F" unicode="&#x40f;" horiz-adv-x="1564" 
d="M125 0v1434h235v-1225h842v1225h236v-1434h-539v-293h-235v293h-539z" />
    <glyph glyph-name="uni0410" unicode="&#x410;" horiz-adv-x="1617" 
d="M18 0l652 1434h278l649 -1434h-260l-157 354h-754l-156 -354h-252zM514 555h578l-289 653z" />
    <glyph glyph-name="uni0411" unicode="&#x411;" horiz-adv-x="1415" 
d="M125 0v1434h1075v-205h-840v-369h482q254 0 386 -109t132 -321q0 -206 -134.5 -318t-383.5 -112h-717zM360 203h463q146 0 221.5 58t75.5 169q0 110 -76 168.5t-221 58.5h-463v-454z" />
    <glyph glyph-name="uni0412" unicode="&#x412;" horiz-adv-x="1462" 
d="M125 0v1434h672q251 0 386.5 -98t135.5 -281q0 -122 -60 -199t-184 -115q314 -53 314 -331q0 -200 -150.5 -305t-437.5 -105h-676zM360 197h457q332 0 332 217t-332 217h-457v-434zM360 825h451q132 0 202 53.5t70 153.5q0 99 -69.5 152t-202.5 53h-451v-412z" />
    <glyph glyph-name="uni0413" unicode="&#x413;" horiz-adv-x="1251" 
d="M125 0v1434h1075v-209h-840v-1225h-235z" />
    <glyph glyph-name="uni0414" unicode="&#x414;" horiz-adv-x="1724" 
d="M33 -293v502h133q51 42 81 104t48 186.5t18 319.5v615h1213v-1225h157v-502h-229v293h-1190v-293h-231zM1290 209v1026h-755v-444q0 -228 -25.5 -362t-81.5 -220h862z" />
    <glyph glyph-name="uni0415" unicode="&#x415;" horiz-adv-x="1314" 
d="M125 0v1434h1104v-209h-869v-398h721v-202h-721v-416h900v-209h-1135z" />
    <glyph glyph-name="uni0416" unicode="&#x416;" horiz-adv-x="2322" 
d="M23 0l524 741l-488 693h273l416 -603h294v603h236v-603h297l416 603h272l-487 -693l524 -741h-285l-438 623h-299v-623h-236v623h-299l-438 -623h-282z" />
    <glyph glyph-name="uni0417" unicode="&#x417;" horiz-adv-x="1445" 
d="M719 -12q-310 0 -477.5 118t-175.5 338h235q8 -126 116.5 -192t311.5 -66q190 0 290.5 58t100.5 170q0 215 -362 215h-250v196h233q158 0 251 59t93 163q0 200 -360 200q-384 0 -408 -241h-235q9 201 185.5 320.5t459.5 119.5t440.5 -101t157.5 -284q0 -122 -71 -203.5
t-201 -112.5q145 -23 227 -111t82 -222q0 -196 -173 -310t-470 -114z" />
    <glyph glyph-name="uni0418" unicode="&#x418;" horiz-adv-x="1599" 
d="M125 0v1434h231v-1080l904 1080h215v-1434h-232v1079l-903 -1079h-215z" />
    <glyph glyph-name="uni0419" unicode="&#x419;" horiz-adv-x="1599" 
d="M125 0v1434h231v-1080l904 1080h215v-1434h-232v1079l-903 -1079h-215zM795 1546q-180 0 -270 76t-93 213h172q0 -152 195 -152q194 0 194 152h176q-3 -138 -98 -213.5t-276 -75.5z" />
    <glyph glyph-name="uni041A" unicode="&#x41a;" horiz-adv-x="1550" 
d="M125 0v1434h235v-603h314l526 603h289l-610 -691l649 -743h-305l-545 623h-318v-623h-235z" />
    <glyph glyph-name="uni041B" unicode="&#x41b;" horiz-adv-x="1660" 
d="M16 0v209h43q59 0 100.5 13t75.5 47t54.5 92.5t31.5 148.5t11 217v707h1202v-1434h-236v1225h-743v-516q0 -200 -27.5 -336.5t-87 -219t-144.5 -118t-208 -35.5h-72z" />
    <glyph glyph-name="uni041C" unicode="&#x41c;" horiz-adv-x="2019" 
d="M125 0v1434h295l594 -1149l590 1149h290v-1434h-233v1061l-553 -1061h-199l-551 1061v-1061h-233z" />
    <glyph glyph-name="uni041D" unicode="&#x41d;" horiz-adv-x="1583" 
d="M125 0v1434h235v-603h861v603h235v-1434h-235v623h-861v-623h-235z" />
    <glyph glyph-name="uni041E" unicode="&#x41e;" horiz-adv-x="1789" 
d="M895 -12q-181 0 -335 53.5t-261.5 148.5t-168 231t-60.5 296t60.5 296t168 231t261.5 148.5t335 53.5t335 -53.5t261.5 -148.5t168 -231t60.5 -296t-60.5 -296t-168 -231t-261.5 -148.5t-335 -53.5zM895 195q266 0 425 142t159 380t-159 380t-425 142t-425 -142
t-159 -380t159 -380t425 -142z" />
    <glyph glyph-name="uni041F" unicode="&#x41f;" horiz-adv-x="1570" 
d="M125 0v1434h1321v-1434h-236v1225h-850v-1225h-235z" />
    <glyph glyph-name="uni0420" unicode="&#x420;" horiz-adv-x="1417" 
d="M125 0v1434h713q244 0 387 -123.5t143 -333.5q0 -211 -143 -334t-387 -123h-478v-520h-235zM360 725h474q135 0 214.5 67.5t79.5 184.5t-79.5 184.5t-214.5 67.5h-474v-504z" />
    <glyph glyph-name="uni0421" unicode="&#x421;" horiz-adv-x="1673" 
d="M870 -12q-241 0 -422.5 90t-279.5 255.5t-98 383.5q0 216 101 381.5t287 256.5t429 91q292 0 484.5 -133.5t238.5 -366.5h-244q-47 143 -172 218t-315 75q-261 0 -414.5 -140.5t-153.5 -381.5t150.5 -381.5t410.5 -140.5q196 0 321 74t171 218h244q-46 -233 -243.5 -366
t-494.5 -133z" />
    <glyph glyph-name="uni0422" unicode="&#x422;" horiz-adv-x="1435" 
d="M600 0v1225h-549v209h1333v-209h-548v-1225h-236z" />
    <glyph glyph-name="uni0423" unicode="&#x423;" horiz-adv-x="1497" 
d="M213 0v209h139q119 0 173.5 25.5t97.5 101.5l51 88l-666 1010h277l512 -799l434 799h258l-653 -1164q-86 -152 -183.5 -211t-263.5 -59h-176z" />
    <glyph glyph-name="uni0424" unicode="&#x424;" horiz-adv-x="2097" 
d="M934 -12v121h-35q-386 0 -607.5 162.5t-221.5 445.5t221.5 445.5t607.5 162.5h35v121h227v-121h35q386 0 607.5 -162.5t221.5 -445.5t-221.5 -445.5t-607.5 -162.5h-35v-121h-227zM899 305h35v823h-35q-280 0 -437 -108.5t-157 -302.5t157 -303t437 -109zM1161 305h35
q281 0 438.5 109t157.5 303t-157.5 302.5t-438.5 108.5h-35v-823z" />
    <glyph glyph-name="uni0425" unicode="&#x425;" horiz-adv-x="1501" 
d="M23 0l579 735l-547 699h295l406 -521l405 521h285l-547 -693l580 -741h-295l-439 563l-440 -563h-282z" />
    <glyph glyph-name="uni0426" unicode="&#x426;" horiz-adv-x="1636" 
d="M125 0v1434h235v-1225h842v1225h236v-1225h159v-502h-231v293h-1241z" />
    <glyph glyph-name="uni0427" unicode="&#x427;" horiz-adv-x="1486" 
d="M696 506q-302 0 -459 127t-157 375v426h235v-390q0 -169 101 -251t305 -82q198 0 405 67v656h236v-1434h-236v569q-201 -63 -430 -63z" />
    <glyph glyph-name="uni0428" unicode="&#x428;" horiz-adv-x="2275" 
d="M125 0v1434h235v-1225h660v1225h235v-1225h660v1225h235v-1434h-2025z" />
    <glyph glyph-name="uni0429" unicode="&#x429;" horiz-adv-x="2349" 
d="M125 0v1434h235v-1225h660v1225h235v-1225h660v1225h235v-1225h158v-502h-231v293h-1952z" />
    <glyph glyph-name="uni042A" unicode="&#x42a;" horiz-adv-x="1851" 
d="M541 0v1225h-490v209h725v-521h486q246 0 387 -122t141 -334t-141.5 -334.5t-386.5 -122.5h-721zM776 205h473q146 0 223.5 64.5t77.5 187.5q0 122 -78.5 187t-224.5 65h-471v-504z" />
    <glyph glyph-name="uni042B" unicode="&#x42b;" horiz-adv-x="1888" 
d="M1528 0v1434h235v-1434h-235zM125 0v1434h235v-514h465q246 0 387.5 -123t141.5 -338q0 -213 -142 -336t-387 -123h-700zM360 205h451q148 0 224.5 64.5t76.5 189.5q0 124 -77.5 189t-225.5 65h-449v-508z" />
    <glyph glyph-name="uni042C" unicode="&#x42c;" horiz-adv-x="1433" 
d="M125 0v1434h235v-514h486q246 0 386 -123t140 -338q0 -214 -140.5 -336.5t-385.5 -122.5h-721zM360 205h471q148 0 225 65t77 189t-78 189t-226 65h-469v-508z" />
    <glyph glyph-name="uni042D" unicode="&#x42d;" horiz-adv-x="1673" 
d="M623 621v202h733q-34 196 -182 307t-379 111q-190 0 -315 -75t-173 -214h-244q46 229 241 361.5t487 132.5q243 0 428 -91t285 -256.5t100 -381.5q0 -330 -221 -529.5t-586 -199.5q-296 0 -490.5 132t-240.5 361h241q46 -140 172 -214t322 -74q232 0 379 114.5t178 313.5
h-735z" />
    <glyph glyph-name="uni042E" unicode="&#x42e;" horiz-adv-x="2357" 
d="M1473 -12q-219 0 -395 79t-283.5 223t-130.5 333h-304v-623h-235v1434h235v-603h308q40 278 259 446.5t546 168.5q238 0 423.5 -91.5t288.5 -258t103 -379.5t-103 -379.5t-288.5 -258t-423.5 -91.5zM1473 195q259 0 416 143t157 379t-157 379t-416 143q-260 0 -417 -143
t-157 -379t157 -379t417 -143z" />
    <glyph glyph-name="uni042F" unicode="&#x42f;" horiz-adv-x="1482" 
d="M66 0l407 549q-186 40 -283.5 149.5t-97.5 278.5q0 210 143.5 333.5t387.5 123.5h735v-1434h-236v522h-387l-383 -522h-286zM627 727h495v502h-495q-136 0 -215.5 -68t-79.5 -182q0 -116 79.5 -184t215.5 -68z" />
    <glyph glyph-name="uni0430" unicode="&#x430;" 
d="M514 -12q-211 0 -328.5 83t-117.5 234q0 326 501 326h373v43q0 209 -307 209q-267 0 -307 -154h-222q20 159 161.5 245.5t381.5 86.5q252 0 382 -102.5t130 -299.5v-378q0 -88 90 -88h52v-193h-119q-101 0 -160 43t-59 123v4q-65 -88 -183 -135t-268 -47zM551 160
q171 0 281 76t110 194v37h-385q-138 0 -201 -37t-63 -113q0 -157 258 -157z" />
    <glyph glyph-name="uni0431" unicode="&#x431;" horiz-adv-x="1386" 
d="M694 -12q-309 0 -461.5 153t-152.5 465q0 208 33.5 346.5t116 233t211 143.5t327.5 70l449 47v-199l-400 -41q-147 -15 -237.5 -39t-154 -70t-94 -113.5t-46.5 -174.5q138 162 467 162q259 0 412 -130.5t153 -351.5q0 -229 -169.5 -365t-453.5 -136zM698 166
q180 0 287 85t107 228q0 141 -106.5 226.5t-283.5 85.5q-180 0 -288.5 -80.5t-108.5 -214.5q0 -154 104.5 -242t288.5 -88z" />
    <glyph glyph-name="uni0432" unicode="&#x432;" horiz-adv-x="1257" 
d="M115 0v1049h618q207 0 313.5 -71t106.5 -208q0 -86 -48 -145.5t-134 -81.5q106 -17 163.5 -80t57.5 -162q0 -301 -459 -301h-618zM334 168h420q215 0 215 139q0 69 -56 106.5t-159 37.5h-420v-283zM334 610h403q94 0 143.5 34.5t49.5 100.5q0 70 -45.5 103t-141.5 33
h-409v-271z" />
    <glyph glyph-name="uni0433" unicode="&#x433;" horiz-adv-x="978" 
d="M115 0v1049h839v-195h-616v-854h-223z" />
    <glyph glyph-name="uni0434" unicode="&#x434;" horiz-adv-x="1398" 
d="M14 -276v471h136q40 30 62.5 70.5t36 127.5t13.5 232v424h971v-854h145v-471h-217v276h-930v-276h-217zM1012 195v667h-539v-268q0 -281 -74 -399h613z" />
    <glyph glyph-name="uni0435" unicode="&#x435;" horiz-adv-x="1341" 
d="M698 -12q-285 0 -456.5 145.5t-171.5 388.5q0 239 168 389t436 150q270 0 434 -140t164 -370v-76h-971v-12q0 -137 102.5 -216t282.5 -79q289 0 352 182h222q-37 -164 -190.5 -263t-371.5 -99zM307 639h740q-13 118 -108.5 181t-260.5 63q-155 0 -254.5 -65t-116.5 -179z
" />
    <glyph glyph-name="uni0436" unicode="&#x436;" horiz-adv-x="1792" 
d="M0 0l395 547l-360 502h246l297 -422h208v422h220v-422h208l297 422h246l-360 -502l395 -547h-262l-313 436h-211v-436h-220v436h-211l-313 -436h-262z" />
    <glyph glyph-name="uni0437" unicode="&#x437;" horiz-adv-x="1222" 
d="M598 -12q-266 0 -396 86.5t-139 263.5h224q21 -95 92.5 -137.5t220.5 -42.5q159 0 245.5 40.5t86.5 112.5q0 133 -246 133h-227v170h213q118 0 179.5 36t61.5 104q0 65 -73.5 100t-216.5 35q-293 0 -330 -168h-223q12 157 162.5 248.5t396.5 91.5q244 0 378 -78.5
t134 -216.5q0 -90 -64.5 -148t-175.5 -77q125 -17 190.5 -77t65.5 -161q0 -146 -149 -230.5t-410 -84.5z" />
    <glyph glyph-name="uni0438" unicode="&#x438;" horiz-adv-x="1372" 
d="M115 0v1049h215v-758l733 758h194v-1049h-215v760l-733 -760h-194z" />
    <glyph glyph-name="uni0439" unicode="&#x439;" horiz-adv-x="1372" 
d="M115 0v1049h215v-758l733 758h194v-1049h-215v760l-733 -760h-194zM682 1161q-180 0 -270 76t-93 213h173q0 -152 194 -152q195 0 195 152h176q-3 -137 -98 -213t-277 -76z" />
    <glyph glyph-name="uni043A" unicode="&#x43a;" horiz-adv-x="1267" 
d="M115 0v1049h223v-420h246l379 420h266l-449 -500l488 -549h-285l-391 434h-254v-434h-223z" />
    <glyph glyph-name="uni043B" unicode="&#x43b;" horiz-adv-x="1318" 
d="M6 0v195h39q109 0 151 76t42 272v506h966v-1049h-221v854h-534v-317q0 -289 -86 -413t-285 -124h-72z" />
    <glyph glyph-name="uni043C" unicode="&#x43c;" horiz-adv-x="1689" 
d="M115 0v1049h266l471 -799l461 799h262v-1049h-213v727l-430 -727h-172l-432 727v-727h-213z" />
    <glyph glyph-name="uni043D" unicode="&#x43d;" horiz-adv-x="1355" 
d="M1018 0v434h-680v-434h-223v1049h223v-420h680v420h221v-1049h-221z" />
    <glyph glyph-name="uni043E" unicode="&#x43e;" horiz-adv-x="1394" 
d="M698 -12q-281 0 -454.5 148.5t-173.5 387.5q0 240 173.5 388.5t454.5 148.5q280 0 453.5 -149t173.5 -388t-173.5 -387.5t-453.5 -148.5zM698 176q185 0 293.5 94t108.5 254t-108.5 254t-293.5 94q-184 0 -292.5 -94t-108.5 -254t108.5 -254t292.5 -94z" />
    <glyph glyph-name="uni043F" unicode="&#x43f;" horiz-adv-x="1331" 
d="M115 0v1049h1099v-1049h-221v854h-655v-854h-223z" />
    <glyph glyph-name="uni0440" unicode="&#x440;" horiz-adv-x="1429" 
d="M115 -410v1459h204l21 -148q68 77 177.5 118.5t248.5 41.5q265 0 429.5 -150t164.5 -387q0 -242 -164 -389t-430 -147q-134 0 -245.5 44t-182.5 124v-566h-223zM731 176q185 0 293.5 93.5t108.5 254.5q0 160 -108.5 254t-293.5 94q-184 0 -290.5 -94t-106.5 -254
q0 -161 106.5 -254.5t290.5 -93.5z" />
    <glyph glyph-name="uni0441" unicode="&#x441;" horiz-adv-x="1312" 
d="M686 -12q-278 0 -447 147t-169 389t170 389.5t450 147.5q228 0 375.5 -101.5t185.5 -285.5h-233q-26 95 -113 146.5t-219 51.5q-180 0 -284.5 -93.5t-104.5 -254.5t104.5 -254.5t284.5 -93.5q134 0 220.5 52.5t111.5 148.5h233q-37 -184 -186.5 -286.5t-378.5 -102.5z
" />
    <glyph glyph-name="uni0442" unicode="&#x442;" horiz-adv-x="1159" 
d="M469 0v854h-446v195h1114v-195h-447v-854h-221z" />
    <glyph glyph-name="uni0443" unicode="&#x443;" horiz-adv-x="1239" 
d="M86 -410v195h174q77 0 113 25t80 110l43 80l-486 1049h240l371 -816l366 816h242l-561 -1192q-76 -164 -147.5 -215.5t-219.5 -51.5h-215z" />
    <glyph glyph-name="uni0444" unicode="&#x444;" horiz-adv-x="1777" 
d="M780 -410v410h-24q-315 0 -500.5 142t-185.5 382t186 382.5t500 142.5h24v352h217v-352h27q313 0 498.5 -142.5t185.5 -382.5q0 -239 -185.5 -381.5t-498.5 -142.5h-27v-410h-217zM756 184h26v680h-26q-215 0 -338 -91t-123 -249t123 -249t338 -91zM997 184h27
q215 0 338 91t123 249t-123 249t-338 91h-27v-680z" />
    <glyph glyph-name="uni0445" unicode="&#x445;" horiz-adv-x="1220" 
d="M0 0l469 539l-442 510h274l313 -365l316 365h264l-442 -506l469 -543h-273l-342 397l-344 -397h-262z" />
    <glyph glyph-name="uni0446" unicode="&#x446;" horiz-adv-x="1368" 
d="M115 0v1049h223v-854h633v854h223v-854h154v-471h-218v276h-1015z" />
    <glyph glyph-name="uni0447" unicode="&#x447;" horiz-adv-x="1257" 
d="M590 330q-259 0 -382.5 98.5t-123.5 302.5v318h223v-306q0 -115 75 -169t241 -54q153 0 299 66v463h221v-1049h-221v387q-151 -57 -332 -57z" />
    <glyph glyph-name="uni0448" unicode="&#x448;" horiz-adv-x="1855" 
d="M115 0v1049h223v-854h479v854h221v-854h480v854h221v-1049h-1624z" />
    <glyph glyph-name="uni0449" unicode="&#x449;" horiz-adv-x="1914" 
d="M115 0v1049h223v-854h479v854h221v-854h480v854h221v-854h155v-471h-217v276h-1562z" />
    <glyph glyph-name="uni044A" unicode="&#x44a;" horiz-adv-x="1503" 
d="M399 0v854h-376v195h598v-326h378q214 0 329.5 -94t115.5 -269q0 -174 -116 -267t-329 -93h-600zM621 176h348q128 0 190 45t62 139q0 95 -61.5 141t-190.5 46h-348v-371z" />
    <glyph glyph-name="uni044B" unicode="&#x44b;" horiz-adv-x="1642" 
d="M115 0v1049h223v-326h358q214 0 329.5 -94t115.5 -269q0 -174 -116 -267t-329 -93h-581zM338 176h326q128 0 189.5 45t61.5 139q0 95 -61 141t-190 46h-326v-371zM1307 0v1049h221v-1049h-221z" />
    <glyph glyph-name="uni044C" unicode="&#x44c;" horiz-adv-x="1220" 
d="M115 0v1049h223v-326h379q214 0 329 -94t115 -269q0 -174 -115.5 -267t-328.5 -93h-602zM338 176h346q128 0 190 45t62 139q0 95 -61.5 141t-190.5 46h-346v-371z" />
    <glyph glyph-name="uni044D" unicode="&#x44d;" horiz-adv-x="1316" 
d="M629 -12q-232 0 -381 101t-187 284h230q28 -97 114.5 -149t223.5 -52q156 0 257.5 70.5t127.5 195.5h-518v170h518q-26 126 -126.5 196t-258.5 70q-138 0 -225 -51t-113 -147h-230q39 182 185.5 283.5t378.5 101.5q282 0 452 -147t170 -390t-168.5 -389.5t-449.5 -146.5z
" />
    <glyph glyph-name="uni044E" unicode="&#x44e;" horiz-adv-x="1914" 
d="M1225 -12q-248 0 -415 120t-202 320h-270v-428h-223v1049h223v-426h272q35 199 202 318.5t413 119.5q275 0 447.5 -149t172.5 -388t-172 -387.5t-448 -148.5zM1225 176q180 0 286.5 94t106.5 254t-106.5 254t-286.5 94q-182 0 -290 -94.5t-108 -253.5t108 -253.5
t290 -94.5z" />
    <glyph glyph-name="uni044F" unicode="&#x44f;" horiz-adv-x="1247" 
d="M909 0v344h-336l-266 -344h-272l305 373q-128 28 -199 112t-71 209q0 165 121 260t333 95h606v-1049h-221zM524 522h385v350h-385q-109 0 -170 -46t-61 -128q0 -85 60.5 -130.5t170.5 -45.5z" />
    <glyph glyph-name="uni0450" unicode="&#x450;" horiz-adv-x="1341" 
d="M698 -12q-285 0 -456.5 145.5t-171.5 388.5q0 239 168 389t436 150q270 0 434 -140t164 -370v-76h-971v-12q0 -137 102.5 -216t282.5 -79q289 0 352 182h222q-37 -164 -190.5 -263t-371.5 -99zM307 639h740q-13 118 -108.5 181t-260.5 63q-155 0 -254.5 -65t-116.5 -179z
M575 1163l-303 287h289l197 -287h-183z" />
    <glyph glyph-name="uni0451" unicode="&#x451;" horiz-adv-x="1341" 
d="M698 -12q-285 0 -456.5 145.5t-171.5 388.5q0 239 168 389t436 150q270 0 434 -140t164 -370v-76h-971v-12q0 -137 102.5 -216t282.5 -79q289 0 352 182h222q-37 -164 -190.5 -263t-371.5 -99zM307 639h740q-13 118 -108.5 181t-260.5 63q-155 0 -254.5 -65t-116.5 -179z
M444 1196q-58 0 -95.5 35.5t-37.5 89.5q0 56 37.5 91.5t95.5 35.5q57 0 94 -36t37 -91q0 -54 -37 -89.5t-94 -35.5zM899 1196q-58 0 -95.5 35.5t-37.5 89.5q0 56 37.5 91.5t95.5 35.5q57 0 94 -36t37 -91q0 -54 -37 -89.5t-94 -35.5z" />
    <glyph glyph-name="uni0452" unicode="&#x452;" horiz-adv-x="1370" 
d="M768 -410v195h131q78 0 110.5 32.5t32.5 110.5v609q0 333 -325 333q-178 0 -272.5 -86t-94.5 -247v-537h-221v1153h-166v162h166v119h221v-119h447v-162h-447v-254q133 162 414 162q242 0 372 -126t130 -382v-625q0 -183 -79 -260.5t-265 -77.5h-154z" />
    <glyph glyph-name="uni0453" unicode="&#x453;" horiz-adv-x="978" 
d="M115 0v1049h839v-195h-616v-854h-223zM395 1165l193 285h284l-299 -285h-178z" />
    <glyph glyph-name="uni0454" unicode="&#x454;" horiz-adv-x="1316" 
d="M688 -12q-282 0 -450 146t-168 390q0 243 170 390t452 147q231 0 377 -101.5t186 -283.5h-229q-28 96 -115 147t-223 51q-159 0 -259 -69.5t-126 -196.5h516v-170h-516q26 -125 127 -195.5t258 -70.5q136 0 223 52t115 149h229q-40 -183 -188.5 -284t-378.5 -101z" />
    <glyph glyph-name="uni0455" unicode="&#x455;" horiz-adv-x="1204" 
d="M625 -12q-262 0 -408 93t-154 263h218q15 -184 344 -184q301 0 301 145q0 64 -67 90t-253 37q-283 17 -400.5 85t-117.5 216q0 152 134.5 240t367.5 88q241 0 378.5 -85.5t151.5 -242.5h-217q-27 154 -313 154q-146 0 -215.5 -33t-69.5 -102q0 -65 64.5 -91t251.5 -40
q289 -22 405.5 -89.5t116.5 -214.5q0 -152 -140 -240.5t-378 -88.5z" />
    <glyph glyph-name="uni0456" unicode="&#x456;" horiz-adv-x="452" 
d="M115 0v1049h223v-1049h-223zM225 1202q-58 0 -95.5 36.5t-37.5 92.5t37.5 91.5t95.5 35.5q59 0 97 -36t38 -91q0 -56 -38.5 -92.5t-96.5 -36.5z" />
    <glyph glyph-name="uni0457" unicode="&#x457;" horiz-adv-x="452" 
d="M115 0v1049h223v-1049h-223zM383 1208q-53 0 -86 35t-33 88q0 55 33 90t86 35t86 -35t33 -90q0 -53 -33 -88t-86 -35zM68 1208q-53 0 -87 35t-34 88q0 54 33.5 89.5t87.5 35.5q53 0 85.5 -35t32.5 -90q0 -53 -32.5 -88t-85.5 -35z" />
    <glyph glyph-name="uni0458" unicode="&#x458;" horiz-adv-x="464" 
d="M-145 -410v195h129q79 0 112 32.5t33 110.5v1121h221v-1121q0 -183 -79 -260.5t-265 -77.5h-151zM240 1202q-59 0 -97.5 37t-38.5 92t38.5 91t97.5 36t97 -36t38 -91q0 -56 -38.5 -92.5t-96.5 -36.5z" />
    <glyph glyph-name="uni0459" unicode="&#x459;" horiz-adv-x="2017" 
d="M6 0v195h39q110 0 151.5 74.5t41.5 275.5v504h946v-367h370q191 0 297.5 -90t106.5 -252q0 -161 -106.5 -250.5t-297.5 -89.5h-591v854h-514v-317q0 -291 -84.5 -414t-284.5 -123h-74zM1184 176h340q102 0 155.5 42.5t53.5 123.5q0 79 -54 121.5t-155 42.5h-340v-330z
" />
    <glyph glyph-name="uni045A" unicode="&#x45a;" horiz-adv-x="2039" 
d="M987 0v467h-649v-467h-223v1049h223v-390h649v390h221v-381h355q200 0 308.5 -86.5t108.5 -247.5q0 -159 -109.5 -246.5t-307.5 -87.5h-576zM1208 176h324q223 0 223 158t-223 158h-324v-316z" />
    <glyph glyph-name="uni045B" unicode="&#x45b;" horiz-adv-x="1370" 
d="M-37 1153v162h166v119h221v-119h447v-162h-447v-254q133 162 414 162q242 0 372 -126t130 -382v-553h-224v537q0 333 -325 333q-178 0 -272.5 -86t-94.5 -247v-537h-221v1153h-166z" />
    <glyph glyph-name="uni045C" unicode="&#x45c;" horiz-adv-x="1267" 
d="M115 0v1049h223v-420h246l379 420h266l-449 -500l488 -549h-285l-391 434h-254v-434h-223zM516 1165l193 285h284l-299 -285h-178z" />
    <glyph glyph-name="uni045D" unicode="&#x45d;" horiz-adv-x="1372" 
d="M115 0v1049h215v-758l733 758h194v-1049h-215v760l-733 -760h-194zM592 1163l-303 287h289l196 -287h-182z" />
    <glyph glyph-name="uni045E" unicode="&#x45e;" horiz-adv-x="1239" 
d="M86 -410v195h174q77 0 113 25t80 110l43 80l-486 1049h240l371 -816l366 816h242l-561 -1192q-76 -164 -147.5 -215.5t-219.5 -51.5h-215zM610 1159q-179 0 -269 77t-93 214h172q0 -154 194 -154q100 0 148.5 40.5t48.5 113.5h174q-3 -138 -98.5 -214.5t-276.5 -76.5z
" />
    <glyph glyph-name="uni045F" unicode="&#x45f;" horiz-adv-x="1308" 
d="M115 0v1049h223v-854h633v854h223v-1049h-428v-276h-223v276h-428z" />
    <glyph glyph-name="uni0462" unicode="&#x462;" horiz-adv-x="1525" 
d="M51 1120v195h166v119h236v-119h473v-195h-473v-205h485q245 0 385.5 -121.5t140.5 -336.5q0 -212 -141 -334.5t-385 -122.5h-721v1120h-166zM453 205h471q148 0 224.5 64.5t76.5 187.5q0 124 -77.5 189t-225.5 65h-469v-506z" />
    <glyph glyph-name="uni0463" unicode="&#x463;" horiz-adv-x="1232" 
d="M129 0v877h-166v172h166v385h221v-385h447v-172h-447v-162h379q214 0 329.5 -93t115.5 -266q0 -171 -116 -263.5t-329 -92.5h-600zM350 174h348q250 0 250 184q0 93 -61.5 138t-188.5 45h-348v-367z" />
    <glyph glyph-name="uni0472" unicode="&#x472;" horiz-adv-x="1789" 
d="M895 -12q-181 0 -335 53.5t-261.5 148.5t-168 231t-60.5 296t60.5 296t168 231t261.5 148.5t335 53.5t335 -53.5t261.5 -148.5t168 -231t60.5 -296t-60.5 -296t-168 -231t-261.5 -148.5t-335 -53.5zM895 195q241 0 396 117t184 317q-149 -62 -293 -62q-85 0 -195 24.5
t-211.5 49.5t-165.5 25q-180 0 -288 -70q38 -187 190 -294t383 -107zM315 805q143 63 295 63q105 0 209.5 -24.5t196 -49t166.5 -24.5q177 0 286 66q-38 188 -190 295.5t-383 107.5q-241 0 -396 -117t-184 -317z" />
    <glyph glyph-name="uni0473" unicode="&#x473;" horiz-adv-x="1394" 
d="M698 -12q-281 0 -454.5 148.5t-173.5 387.5q0 240 173.5 388.5t454.5 148.5q280 0 453.5 -149t173.5 -388t-173.5 -387.5t-453.5 -148.5zM287 596q107 43 213 43q61 0 198 -34t195 -34q123 0 213 41q-28 128 -135.5 200.5t-272.5 72.5q-171 0 -279.5 -77t-131.5 -212z
M698 164q170 0 278.5 77t131.5 212q-100 -43 -215 -43q-70 0 -207.5 33.5t-185.5 33.5q-129 0 -211 -39q28 -128 135.5 -201t273.5 -73z" />
    <glyph glyph-name="uni0474" unicode="&#x474;" horiz-adv-x="1630" 
d="M629 0l-621 1434h254l506 -1178l254 698q54 150 98.5 238.5t101 145t121 76.5t160.5 20h76v-209h-47q-103 0 -161 -66.5t-134 -273.5l-334 -885h-274z" />
    <glyph glyph-name="uni0475" unicode="&#x475;" horiz-adv-x="1263" 
d="M481 0l-471 1049h242l369 -834l172 498q65 194 146.5 265t240.5 71h53v-195h-39q-86 0 -126.5 -42.5t-90.5 -182.5l-225 -629h-271z" />
    <glyph glyph-name="uni0490" unicode="&#x490;" horiz-adv-x="1251" 
d="M125 0v1434h844v284h231v-493h-840v-1225h-235z" />
    <glyph glyph-name="uni0491" unicode="&#x491;" horiz-adv-x="978" 
d="M115 0v1049h622v278h217v-473h-616v-854h-223z" />
    <glyph glyph-name="uni0492" unicode="&#x492;" horiz-adv-x="1353" 
d="M217 0v612h-166v189h166v633h1075v-209h-839v-424h530v-189h-530v-612h-236z" />
    <glyph glyph-name="uni0493" unicode="&#x493;" horiz-adv-x="1048" 
d="M186 0v408h-166v172h166v469h840v-195h-618v-274h391v-172h-391v-408h-222z" />
    <glyph glyph-name="uni0496" unicode="&#x496;" horiz-adv-x="2359" 
d="M23 0l524 741l-488 693h273l416 -603h294v603h236v-603h297l416 603h272l-487 -693l376 -532h183v-502h-232v293h-88l-438 623h-299v-623h-236v623h-299l-438 -623h-282z" />
    <glyph glyph-name="uni0497" unicode="&#x497;" horiz-adv-x="1851" 
d="M0 0l395 547l-360 502h246l297 -422h208v422h220v-422h208l297 422h246l-360 -502l254 -352h178v-471h-217v276h-82l-313 436h-211v-436h-220v436h-211l-313 -436h-262z" />
    <glyph glyph-name="uni049A" unicode="&#x49a;" horiz-adv-x="1587" 
d="M125 0v1434h235v-603h314l526 603h289l-610 -691l467 -534h219v-502h-232v293h-110l-545 623h-318v-623h-235z" />
    <glyph glyph-name="uni049B" unicode="&#x49b;" 
d="M115 0v1049h223v-420h246l379 420h266l-449 -500l316 -354h200v-471h-217v276h-96l-391 434h-254v-434h-223z" />
    <glyph glyph-name="uni04A2" unicode="&#x4a2;" horiz-adv-x="1654" 
d="M125 0v1434h235v-603h861v603h235v-1225h158v-502h-232v293h-161v623h-861v-623h-235z" />
    <glyph glyph-name="uni04A3" unicode="&#x4a3;" horiz-adv-x="1413" 
d="M1018 0v434h-680v-434h-223v1049h223v-420h680v420h221v-854h156v-471h-217v276h-160z" />
    <glyph glyph-name="uni04AE" unicode="&#x4ae;" horiz-adv-x="1546" 
d="M655 0v530l-647 904h283l487 -682l490 682h270l-647 -904v-530h-236z" />
    <glyph glyph-name="uni04AF" unicode="&#x4af;" horiz-adv-x="1273" 
d="M526 0l-516 1049h244l387 -801l383 801h240l-514 -1049v-410h-224v410z" />
    <glyph glyph-name="uni04B0" unicode="&#x4b0;" horiz-adv-x="1546" 
d="M655 0v367h-360v178h350l-637 889h283l487 -682l490 682h270l-637 -889h350v-178h-360v-367h-236z" />
    <glyph glyph-name="uni04B1" unicode="&#x4b1;" horiz-adv-x="1273" 
d="M526 0l-516 1049h244l387 -801l383 801h240l-514 -1049h337v-172h-337v-238h-224v238h-338v172h338z" />
    <glyph glyph-name="uni04B2" unicode="&#x4b2;" horiz-adv-x="1538" 
d="M23 0l579 735l-547 699h295l406 -521l405 521h285l-547 -693l416 -532h201v-502h-232v293h-100l-439 563l-440 -563h-282z" />
    <glyph glyph-name="uni04B3" unicode="&#x4b3;" horiz-adv-x="1273" 
d="M0 0l469 539l-442 510h274l313 -365l316 365h264l-442 -506l301 -348h196v-471h-217v276h-84l-342 397l-344 -397h-262z" />
    <glyph glyph-name="uni04B6" unicode="&#x4b6;" horiz-adv-x="1560" 
d="M696 506q-302 0 -459 127t-157 375v426h235v-390q0 -169 101 -251t305 -82q198 0 405 67v656h236v-1225h158v-502h-232v293h-162v569q-201 -63 -430 -63z" />
    <glyph glyph-name="uni04B7" unicode="&#x4b7;" horiz-adv-x="1316" 
d="M590 330q-259 0 -382.5 98.5t-123.5 302.5v318h223v-306q0 -115 75 -169t241 -54q153 0 299 66v463h221v-854h153v-471h-217v276h-157v387q-151 -57 -332 -57z" />
    <glyph glyph-name="uni04BA" unicode="&#x4ba;" horiz-adv-x="1486" 
d="M788 928q303 0 461 -127t158 -375v-426h-236v389q0 169 -101 251.5t-304 82.5q-196 0 -406 -68v-655h-235v1434h235v-570q204 64 428 64z" />
    <glyph glyph-name="uni04BB" unicode="&#x4bb;" horiz-adv-x="1355" 
d="M115 0v1434h223v-535q133 162 412 162q242 0 371.5 -126t129.5 -382v-553h-221v537q0 333 -325 333q-179 0 -273 -85.5t-94 -247.5v-537h-223z" />
    <glyph glyph-name="uni04C0" unicode="&#x4c0;" horiz-adv-x="485" 
d="M125 0v1434h235v-1434h-235z" />
    <glyph glyph-name="uni04CF" unicode="&#x4cf;" horiz-adv-x="452" 
d="M115 0v1434h223v-1434h-223z" />
    <glyph glyph-name="uni04D8" unicode="&#x4d8;" horiz-adv-x="1693" 
d="M817 -12q-356 0 -557 214.5t-188 581.5h1308q-22 214 -172 335.5t-393 121.5q-188 0 -313.5 -74.5t-175.5 -214.5h-242q46 229 240.5 361.5t486.5 132.5q242 0 426.5 -90t285.5 -255.5t101 -383.5q0 -330 -221 -529.5t-586 -199.5zM821 193q220 0 365 103.5t182 289.5
h-1044q25 -184 157.5 -288.5t339.5 -104.5z" />
    <glyph glyph-name="uni04D9" unicode="&#x4d9;" horiz-adv-x="1341" 
d="M643 1061q285 0 457 -147t172 -390q0 -238 -168 -387t-436 -149q-270 0 -434 139t-164 369q0 52 2 75h968v15q0 137 -102.5 216t-282.5 79q-141 0 -231 -47t-121 -138h-221q37 166 190 265.5t371 99.5zM1034 408h-739q15 -117 110 -179.5t259 -62.5q155 0 254 64.5
t116 177.5z" />
    <glyph glyph-name="uni04E2" unicode="&#x4e2;" horiz-adv-x="1599" 
d="M125 0v1434h231v-1080l904 1080h215v-1434h-232v1079l-903 -1079h-215zM453 1624v170h698v-170h-698z" />
    <glyph glyph-name="uni04E3" unicode="&#x4e3;" horiz-adv-x="1372" 
d="M115 0v1049h215v-758l733 758h194v-1049h-215v760l-733 -760h-194zM340 1239v170h698v-170h-698z" />
    <glyph glyph-name="uni04E8" unicode="&#x4e8;" horiz-adv-x="1789" 
d="M895 -12q-181 0 -335 53.5t-261.5 148.5t-168 231t-60.5 296t60.5 296t168 231t261.5 148.5t335 53.5t335 -53.5t261.5 -148.5t168 -231t60.5 -296t-60.5 -296t-168 -231t-261.5 -148.5t-335 -53.5zM895 195q237 0 391.5 113t186.5 308h-1156q32 -195 186.5 -308
t391.5 -113zM317 817h1156q-32 196 -186.5 309t-391.5 113t-391.5 -113t-186.5 -309z" />
    <glyph glyph-name="uni04E9" unicode="&#x4e9;" horiz-adv-x="1394" 
d="M698 -12q-281 0 -454.5 148.5t-173.5 387.5q0 240 173.5 388.5t454.5 148.5q280 0 453.5 -149t173.5 -388t-173.5 -387.5t-453.5 -148.5zM289 604h817q-25 131 -132.5 206t-275.5 75t-276 -75t-133 -206zM698 164q168 0 275 73.5t133 204.5h-817q26 -131 133.5 -204.5
t275.5 -73.5z" />
    <glyph glyph-name="uni04EE" unicode="&#x4ee;" horiz-adv-x="1497" 
d="M213 0v209h139q119 0 173.5 25.5t97.5 101.5l51 88l-666 1010h277l512 -799l434 799h258l-653 -1164q-86 -152 -183.5 -211t-263.5 -59h-176zM412 1624v170h698v-170h-698z" />
    <glyph glyph-name="uni04EF" unicode="&#x4ef;" horiz-adv-x="1239" 
d="M86 -410v195h174q77 0 113 25t80 110l43 80l-486 1049h240l371 -816l366 816h242l-561 -1192q-76 -164 -147.5 -215.5t-219.5 -51.5h-215zM268 1239v170h699v-170h-699z" />
    <glyph glyph-name="glyph00054" horiz-adv-x="501" 
d="M-41 -410v195h61q80 0 113 32.5t33 110.5v1121h221v-1121q0 -183 -76.5 -260.5t-259.5 -77.5h-92zM276 1202q-58 0 -95.5 36.5t-37.5 92.5t37.5 91.5t95.5 35.5q59 0 97.5 -36t38.5 -91t-38.5 -92t-97.5 -37z" />
    </font>
</defs>
</svg>
