<?xml version="1.0" standalone="no"?>
<!DOCTYPE svg PUBLIC "-//W3C//DTD SVG 1.1//EN" "http://www.w3.org/Graphics/SVG/1.1/DTD/svg11.dtd" >
<svg xmlns="http://www.w3.org/2000/svg" xmlns:xlink="http://www.w3.org/1999/xlink" version="1.1">
<metadata>
Created by FontForge 20201107 at Fri Nov 14 04:01:47 2025
 By 
Copyright 2025 CoType Foundry. All Rights Reserved.
</metadata>
<defs>
<font id="AeonikFonoProTRIAL-Black" horiz-adv-x="1318" >
  <font-face 
    font-family="Aeonik Fono Pro TRIAL Black"
    font-weight="900"
    font-stretch="normal"
    units-per-em="2048"
    panose-1="2 11 10 4 3 3 0 0 0 0"
    ascent="1638"
    descent="-410"
    x-height="1057"
    cap-height="1434"
    bbox="-39 -422 1821 1886"
    underline-thickness="204"
    underline-position="-276"
    unicode-range="U+0020-04EF"
  />
<missing-glyph horiz-adv-x="1351" 
d="M164 -223v1698h1024v-1698h-1024zM362 -18h95v112h57q62 0 99.5 34t37.5 91q0 58 -37.5 92.5t-99.5 34.5h-152v-364zM457 172v96h49q22 0 35.5 -13t13.5 -36q0 -22 -13.5 -34.5t-35.5 -12.5h-49zM733 -18h256v81h-160v64h123v76h-123v61h154v82h-250v-364zM432 455h96
v282h103v82h-299v-82h100v-282zM799 455h96v135l131 229h-106l-72 -133l-68 133h-112l131 -229v-135zM485 926q66 0 106.5 38t45.5 99h-94q-13 -59 -62 -59q-71 0 -71 106q0 107 71 107q48 0 62 -62h94q-5 63 -45.5 101t-106.5 38q-84 0 -129 -49t-45 -135t45 -135t129 -49z
M848 926q81 0 129.5 51.5t48.5 132.5q0 80 -49 132t-129 52q-81 0 -129.5 -52t-48.5 -132q0 -81 48 -132.5t130 -51.5zM848 1004q-39 0 -59.5 29.5t-20.5 76.5q0 48 21 77.5t59 29.5t59 -29.5t21 -77.5q0 -47 -20.5 -76.5t-59.5 -29.5z" />
    <glyph glyph-name=".notdef" horiz-adv-x="1351" 
d="M164 -223v1698h1024v-1698h-1024zM362 -18h95v112h57q62 0 99.5 34t37.5 91q0 58 -37.5 92.5t-99.5 34.5h-152v-364zM457 172v96h49q22 0 35.5 -13t13.5 -36q0 -22 -13.5 -34.5t-35.5 -12.5h-49zM733 -18h256v81h-160v64h123v76h-123v61h154v82h-250v-364zM432 455h96
v282h103v82h-299v-82h100v-282zM799 455h96v135l131 229h-106l-72 -133l-68 133h-112l131 -229v-135zM485 926q66 0 106.5 38t45.5 99h-94q-13 -59 -62 -59q-71 0 -71 106q0 107 71 107q48 0 62 -62h94q-5 63 -45.5 101t-106.5 38q-84 0 -129 -49t-45 -135t45 -135t129 -49z
M848 926q81 0 129.5 51.5t48.5 132.5q0 80 -49 132t-129 52q-81 0 -129.5 -52t-48.5 -132q0 -81 48 -132.5t130 -51.5zM848 1004q-39 0 -59.5 29.5t-20.5 76.5q0 48 21 77.5t59 29.5t59 -29.5t21 -77.5q0 -47 -20.5 -76.5t-59.5 -29.5z" />
    <glyph glyph-name=".null" horiz-adv-x="0" 
 />
    <glyph glyph-name="nonmarkingreturn" horiz-adv-x="682" 
 />
    <glyph glyph-name="space" unicode=" " horiz-adv-x="655" 
 />
    <glyph glyph-name="comma" unicode="," horiz-adv-x="686" 
d="M127 -293v178q93 0 147 33t54 88v31q-38 -12 -72 -12q-67 0 -112.5 48t-45.5 136q0 81 59.5 137.5t149.5 56.5q113 0 182.5 -84.5t69.5 -226.5q0 -183 -119.5 -284t-312.5 -101z" />
    <glyph glyph-name="hyphen" unicode="-" horiz-adv-x="995" 
d="M129 438v287h737v-287h-737z" />
    <glyph glyph-name="period" unicode="." horiz-adv-x="686" 
d="M342 -12q-91 0 -151 59t-60 148t60 148.5t151 59.5q92 0 152.5 -59.5t60.5 -148.5t-60.5 -148t-152.5 -59z" />
    <glyph glyph-name="zero" unicode="0" 
d="M659 -12q-265 0 -413 181.5t-148 514.5v66q0 321 149.5 508.5t411.5 187.5q263 0 412.5 -187.5t149.5 -508.5v-66q0 -333 -148.5 -514.5t-413.5 -181.5zM451 637l372 420q-51 114 -164 114q-109 0 -158.5 -106t-49.5 -328v-100zM659 262q109 0 159 106t50 328v101
l-370 -422q49 -113 161 -113z" />
    <glyph glyph-name="one" unicode="1" horiz-adv-x="1126" 
d="M92 0v297h318v565h-312v293h207q54 0 82.5 45t28.5 111v123h354v-1137h295v-297h-973z" />
    <glyph glyph-name="two" unicode="2" horiz-adv-x="1179" 
d="M57 0v272l521 433q90 74 131 135.5t41 128.5q0 86 -45.5 132t-116.5 46q-78 0 -128 -57.5t-50 -153.5v-21h-365v41q0 210 149 350t396 140q250 0 386 -126.5t136 -336.5q0 -146 -65 -252t-211 -227l-246 -207h528v-297h-1061z" />
    <glyph glyph-name="three" unicode="3" horiz-adv-x="1271" 
d="M629 -12q-264 0 -416 127.5t-152 363.5h359q3 -106 60 -161.5t147 -55.5q78 0 129 45t51 125q0 71 -45.5 111.5t-132.5 40.5h-150v282h129q88 0 133 43t45 117q0 71 -48.5 108t-119.5 37q-80 0 -131 -51.5t-55 -138.5h-350q3 208 155 336.5t392 128.5q242 0 381 -110
t139 -292q0 -113 -61 -191t-162 -114q248 -68 248 -329q0 -190 -146 -306t-399 -116z" />
    <glyph glyph-name="four" unicode="4" horiz-adv-x="1265" 
d="M702 0v285h-641v293l525 856h469v-856h141v-293h-141v-285h-353zM391 578h311v514z" />
    <glyph glyph-name="five" unicode="5" horiz-adv-x="1269" 
d="M641 -12q-242 0 -390.5 131t-156.5 330h359q11 -78 60 -126.5t132 -48.5q74 0 128 56.5t54 158.5q0 98 -50.5 159t-135.5 61q-125 0 -184 -127l-346 36l32 816h963v-297h-633l-10 -242q108 90 256 90q212 0 341.5 -136.5t129.5 -359.5q0 -123 -43 -219.5t-118 -157.5
t-174 -92.5t-214 -31.5z" />
    <glyph glyph-name="six" unicode="6" 
d="M692 -12q-149 0 -266 57t-193 164q-135 190 -135 483q0 367 162.5 560.5t444.5 193.5q206 0 353 -111t171 -305h-355q-34 133 -186 133q-111 0 -170 -86t-59 -258v-16q54 77 136 114t173 37q214 0 343.5 -126.5t129.5 -344.5q0 -221 -152 -358t-397 -137zM694 258
q84 0 135.5 58.5t51.5 154.5q0 97 -50 155t-135 58q-86 0 -137 -57t-51 -154t51 -156t135 -59z" />
    <glyph glyph-name="seven" unicode="7" horiz-adv-x="1144" 
d="M127 0l543 1135h-629v299h1042v-228l-565 -1206h-391z" />
    <glyph glyph-name="eight" unicode="8" 
d="M659 -12q-268 0 -414.5 117.5t-146.5 312.5q0 126 61.5 212t157.5 126q-82 43 -134 117.5t-52 179.5q0 179 143.5 286t384.5 107t385 -107t144 -286q0 -98 -53 -175t-134 -120q96 -38 158 -125.5t62 -214.5q0 -195 -147 -312.5t-415 -117.5zM659 244q88 0 141.5 49
t53.5 129q0 82 -53.5 132t-141.5 50q-86 0 -140 -50t-54 -132q0 -80 53.5 -129t140.5 -49zM659 874q76 0 123 44.5t47 115.5q0 68 -47 112t-123 44q-75 0 -122.5 -44t-47.5 -112q0 -71 47.5 -115.5t122.5 -44.5z" />
    <glyph glyph-name="nine" unicode="9" 
d="M627 1446q301 0 458 -221q136 -191 136 -484q0 -367 -162.5 -560t-444.5 -193q-206 0 -353 110.5t-171 304.5h354q34 -133 187 -133q111 0 170 86t59 258v17q-54 -78 -136 -115t-173 -37q-214 0 -343.5 126.5t-129.5 344.5q0 221 152 358.5t397 137.5zM625 1176
q-84 0 -135.5 -58.5t-51.5 -154.5q0 -97 50 -155t135 -58q86 0 137 57t51 154t-50.5 156t-135.5 59z" />
    <glyph glyph-name="A" unicode="A" horiz-adv-x="1406" 
d="M29 0l444 1434h463l442 -1434h-397l-76 272h-418l-73 -272h-385zM563 569h264l-133 480z" />
    <glyph glyph-name="B" unicode="B" horiz-adv-x="1333" 
d="M137 0v1434h559q247 0 382.5 -99t135.5 -280q0 -134 -71 -216t-203 -104q154 -19 235.5 -101t81.5 -226q0 -190 -140.5 -299t-391.5 -109h-588zM514 279h195q79 0 123.5 40t44.5 113q0 72 -45 112t-123 40h-195v-305zM514 858h170q72 0 114 41t42 109t-42 108.5
t-114 40.5h-170v-299z" />
    <glyph glyph-name="C" unicode="C" horiz-adv-x="1376" 
d="M713 -12q-303 0 -469 190.5t-166 538.5q0 347 170.5 538t480.5 191q243 0 400.5 -147.5t177.5 -399.5h-377q-23 117 -74.5 176.5t-140.5 59.5q-124 0 -188 -107.5t-64 -310.5q0 -202 64 -310t186 -108q93 0 143.5 58t71.5 178h379q-20 -253 -180.5 -400t-413.5 -147z" />
    <glyph glyph-name="D" unicode="D" horiz-adv-x="1409" 
d="M137 0v1434h512q308 0 495 -194t187 -519q0 -326 -187.5 -523.5t-494.5 -197.5h-512zM514 307h135q144 0 220.5 107.5t76.5 306.5q0 196 -76.5 300.5t-220.5 104.5h-135v-819z" />
    <glyph glyph-name="E" unicode="E" horiz-adv-x="1189" 
d="M137 0v1434h948v-320h-571v-246h465v-299h-465v-250h594v-319h-971z" />
    <glyph glyph-name="F" unicode="F" horiz-adv-x="1153" 
d="M137 0v1434h955v-320h-578v-258h498v-319h-498v-537h-377z" />
    <glyph glyph-name="G" unicode="G" horiz-adv-x="1433" 
d="M674 -12q-269 0 -432.5 200.5t-163.5 528.5q0 343 171.5 536t475.5 193q239 0 400.5 -151.5t183.5 -395.5h-357q-15 117 -76 179.5t-159 62.5q-128 0 -195 -108.5t-67 -315.5q0 -221 72 -322.5t227 -101.5q101 0 163 59t62 156v27h-240v272h576v-807h-256l-35 152
q-115 -164 -350 -164z" />
    <glyph glyph-name="H" unicode="H" horiz-adv-x="1433" 
d="M137 0v1434h377v-551h406v551h376v-1434h-376v563h-406v-563h-377z" />
    <glyph glyph-name="I" unicode="I" horiz-adv-x="1146" 
d="M102 0v307h283v819h-283v308h942v-308h-282v-819h282v-307h-942z" />
    <glyph glyph-name="J" unicode="J" horiz-adv-x="1271" 
d="M604 -12q-273 0 -409 141.5t-134 413.5h371q0 -120 41.5 -179t132.5 -59q89 0 128.5 55.5t39.5 174.5v591h-457v308h834v-893q0 -268 -138 -410.5t-409 -142.5z" />
    <glyph glyph-name="K" unicode="K" horiz-adv-x="1394" 
d="M137 0v1434h377v-566l406 566h428l-474 -611l504 -823h-440l-315 522l-109 -129v-393h-377z" />
    <glyph glyph-name="L" unicode="L" horiz-adv-x="1099" 
d="M137 0v1434h377v-1115h524v-319h-901z" />
    <glyph glyph-name="M" unicode="M" horiz-adv-x="1476" 
d="M137 0v1434h369l242 -666l227 666h364v-1434h-327v825l-195 -520h-158l-194 520v-825h-328z" />
    <glyph glyph-name="N" unicode="N" horiz-adv-x="1433" 
d="M137 0v1434h328l479 -772v772h352v-1434h-327l-480 772v-772h-352z" />
    <glyph glyph-name="O" unicode="O" horiz-adv-x="1421" 
d="M711 -12q-284 0 -458.5 199.5t-174.5 529.5t174.5 529.5t458.5 199.5q285 0 458.5 -199t173.5 -530t-173.5 -530t-458.5 -199zM711 299q127 0 187 102.5t60 315.5t-60 315.5t-187 102.5q-126 0 -187 -103t-61 -315t61 -315t187 -103z" />
    <glyph glyph-name="P" unicode="P" horiz-adv-x="1327" 
d="M137 0v1434h602q234 0 376 -135.5t142 -360.5t-142 -360.5t-376 -135.5h-225v-442h-377zM514 750h166q90 0 142 50.5t52 137.5t-52 137.5t-142 50.5h-166v-376z" />
    <glyph glyph-name="Q" unicode="Q" horiz-adv-x="1437" 
d="M1174 0q-124 0 -181 51q-129 -63 -282 -63q-284 0 -458.5 199.5t-174.5 529.5t174.5 529.5t458.5 199.5q285 0 458.5 -199t173.5 -530q0 -250 -102 -428h82v-289h-149zM711 299q60 0 108 25l-35 59q-21 34 -40 46.5t-62 12.5h-109v287h121q79 0 115.5 -21.5t73.5 -78.5
l61 -94q14 71 14 182q0 213 -60 315.5t-187 102.5q-126 0 -187 -103t-61 -315t61 -315t187 -103z" />
    <glyph glyph-name="R" unicode="R" horiz-adv-x="1337" 
d="M137 0v1434h584q236 0 382 -135.5t146 -360.5q0 -130 -58.5 -235t-166.5 -168l268 -535h-418l-208 442h-152v-442h-377zM514 750h154q90 0 143 50.5t53 137.5t-53 137.5t-143 50.5h-154v-376z" />
    <glyph glyph-name="S" unicode="S" horiz-adv-x="1302" 
d="M666 -12q-266 0 -427 131t-161 350h364q7 -93 66.5 -143t161.5 -50q86 0 133 33.5t47 98.5q0 67 -59.5 99.5t-249.5 72.5q-224 48 -328 142.5t-104 274.5q0 199 148.5 324t387.5 125q251 0 400 -124.5t149 -334.5h-363q-18 168 -186 168q-72 0 -116 -32t-44 -91
q0 -65 59 -94.5t247 -67.5q221 -44 329.5 -146.5t108.5 -287.5q0 -199 -156 -323.5t-407 -124.5z" />
    <glyph glyph-name="T" unicode="T" horiz-adv-x="1257" 
d="M440 0v1114h-379v320h1135v-320h-379v-1114h-377z" />
    <glyph glyph-name="U" unicode="U" horiz-adv-x="1392" 
d="M696 -12q-282 0 -428.5 146t-146.5 419v881h377v-891q0 -236 198 -236q101 0 150 57t49 179v891h377v-881q0 -273 -147 -419t-429 -146z" />
    <glyph glyph-name="V" unicode="V" horiz-adv-x="1343" 
d="M451 0l-439 1434h396l266 -990l272 990h385l-434 -1434h-446z" />
    <glyph glyph-name="W" unicode="W" horiz-adv-x="1480" 
d="M256 0l-227 1434h360l103 -902l149 580h199l149 -580l121 902h342l-229 -1434h-340l-146 584l-143 -584h-338z" />
    <glyph glyph-name="X" unicode="X" horiz-adv-x="1363" 
d="M35 0l385 731l-367 703h424l213 -441l225 441h398l-367 -703l383 -731h-428l-227 471l-242 -471h-397z" />
    <glyph glyph-name="Y" unicode="Y" horiz-adv-x="1347" 
d="M485 0v551l-473 883h424l238 -490l256 490h405l-473 -887v-547h-377z" />
    <glyph glyph-name="Z" unicode="Z" 
d="M92 0v242l617 872h-603v320h1108v-242l-616 -873h629v-319h-1135z" />
    <glyph glyph-name="a" unicode="a" horiz-adv-x="1196" 
d="M457 -12q-171 0 -279 82.5t-108 232.5q0 174 130.5 266.5t377.5 92.5h141v40q0 57 -37 90t-107 33q-61 0 -101.5 -28t-45.5 -74h-340q14 152 149.5 249t352.5 97q230 0 354.5 -98.5t124.5 -288.5v-328q0 -37 11.5 -50t43.5 -13h21v-291h-168q-181 0 -195 145
q-116 -157 -325 -157zM535 231q82 0 133 54t51 141v16h-137q-73 0 -114.5 -31t-41.5 -85q0 -43 30 -69t79 -26z" />
    <glyph glyph-name="b" unicode="b" 
d="M756 -12q-168 0 -281 133l-26 -121h-312v1434h355v-492q110 127 284 127q203 0 334 -147t131 -392q0 -244 -136 -393t-349 -149zM684 268q90 0 143.5 71.5t53.5 188.5t-53.5 188.5t-143.5 71.5q-93 0 -145 -71.5t-52 -188.5t52 -188.5t145 -71.5z" />
    <glyph glyph-name="c" unicode="c" horiz-adv-x="1218" 
d="M618 -12q-254 0 -397 144t-143 396q0 249 148.5 395t404.5 146q220 0 355 -112.5t163 -311.5h-369q-14 66 -53.5 103.5t-101.5 37.5q-87 0 -137 -71t-50 -187t50 -187t137 -71q65 0 105.5 40t51.5 110h369q-28 -200 -169.5 -316t-363.5 -116z" />
    <glyph glyph-name="d" unicode="d" 
d="M547 -12q-206 0 -337.5 149t-131.5 393q0 122 37 224t101.5 170.5t152.5 106.5t188 38q162 0 270 -111v476h355v-1434h-312l-30 135q-113 -147 -293 -147zM635 268q92 0 144 71t52 189t-52 189t-144 71q-91 0 -144 -72t-53 -188t53 -188t144 -72z" />
    <glyph glyph-name="e" unicode="e" horiz-adv-x="1245" 
d="M647 -12q-269 0 -419 144t-150 392q0 250 150 397.5t401 147.5q239 0 388.5 -140.5t149.5 -369.5q0 -64 -10 -115h-711v-14q4 -90 55.5 -138t135.5 -48q143 0 170 116h348q-21 -159 -157 -265.5t-351 -106.5zM451 662h366q-15 75 -63.5 115t-122.5 40q-76 0 -122.5 -40.5
t-57.5 -114.5z" />
    <glyph glyph-name="f" unicode="f" horiz-adv-x="1013" 
d="M291 0v764h-230v293h230v57q0 151 89 235.5t253 84.5h319v-285h-243q-34 0 -53 -18.5t-19 -53.5v-20h315v-293h-307v-764h-354z" />
    <glyph glyph-name="g" unicode="g" 
d="M608 -422q-235 0 -371 103.5t-141 285.5h357q35 -133 180 -133q100 0 151.5 51.5t51.5 147.5v102q-107 -119 -275 -119q-215 0 -349 146t-134 377q0 150 61 271.5t169 190t241 68.5q189 0 297 -125l22 113h314v-1037q0 -210 -151 -326t-423 -116zM635 291
q93 0 144.5 67.5t51.5 182.5t-51.5 181t-144.5 66t-145 -66t-52 -181t52 -182.5t145 -67.5z" />
    <glyph glyph-name="h" unicode="h" horiz-adv-x="1312" 
d="M137 0v1434h355v-484q109 119 282 119q88 0 160 -25.5t131 -79.5t92 -150.5t33 -227.5v-586h-354v551q0 221 -164 221q-86 0 -133 -58t-47 -163v-551h-355z" />
    <glyph glyph-name="i" unicode="i" horiz-adv-x="1038" 
d="M82 0v293h276v471h-276v293h633v-764h256v-293h-889zM535 1167q-85 0 -142 55t-57 138t57 137.5t142 54.5t141.5 -54.5t56.5 -137.5t-56.5 -138t-141.5 -55z" />
    <glyph glyph-name="j" unicode="j" horiz-adv-x="925" 
d="M41 -410v293h295q98 0 98 119v762h-393v293h747v-1123q0 -153 -85.5 -248.5t-235.5 -95.5h-426zM610 1167q-85 0 -141.5 55t-56.5 138t56.5 137.5t141.5 54.5t142 -54.5t57 -137.5t-57 -138t-142 -55z" />
    <glyph glyph-name="k" unicode="k" horiz-adv-x="1245" 
d="M137 0v1434h355v-764l331 387h389l-350 -404l363 -653h-404l-209 389l-120 -143v-246h-355z" />
    <glyph glyph-name="l" unicode="l" horiz-adv-x="1026" 
d="M72 0v293h276v848h-276v293h630v-1141h256v-293h-886z" />
    <glyph glyph-name="m" unicode="m" horiz-adv-x="1726" 
d="M137 0v1057h283l14 -103q100 115 254 115q88 0 160 -38.5t113 -108.5q106 147 286 147q171 0 264 -103t93 -294v-672h-336v616q0 69 -27 111.5t-86 42.5q-56 0 -86.5 -42t-30.5 -110v-618h-336v616q0 154 -112 154q-57 0 -87 -38.5t-30 -102.5v-629h-336z" />
    <glyph glyph-name="n" unicode="n" horiz-adv-x="1302" 
d="M137 0v1057h312l26 -123q51 66 120.5 100.5t174.5 34.5q86 0 157 -24.5t129.5 -78.5t91 -150.5t32.5 -229.5v-586h-355v543q0 114 -36 171.5t-125 57.5q-172 0 -172 -229v-543h-355z" />
    <glyph glyph-name="o" unicode="o" horiz-adv-x="1263" 
d="M631 -12q-252 0 -402.5 147t-150.5 393t150.5 393.5t402.5 147.5t403.5 -147.5t151.5 -393.5t-151.5 -393t-403.5 -147zM631 270q90 0 142 70.5t52 187.5t-52 187.5t-142 70.5q-89 0 -141 -71t-52 -187t52 -187t141 -71z" />
    <glyph glyph-name="p" unicode="p" horiz-adv-x="1316" 
d="M137 -410v1467h312l28 -131q112 143 293 143q206 0 337.5 -149.5t131.5 -393.5q0 -245 -130.5 -391.5t-334.5 -146.5q-171 0 -282 131v-529h-355zM682 268q91 0 144 72.5t53 189.5t-53 187.5t-144 70.5q-92 0 -143.5 -71t-51.5 -187q0 -117 51.5 -189.5t143.5 -72.5z" />
    <glyph glyph-name="q" unicode="q" 
d="M827 -410v529q-111 -131 -284 -131q-204 0 -334.5 146.5t-130.5 391.5q0 244 135 393.5t348 149.5q176 0 285 -129l24 117h312v-1467h-355zM637 268q91 0 142.5 72t51.5 190q0 117 -51.5 187.5t-142.5 70.5q-92 0 -145.5 -71t-53.5 -187t53.5 -189t145.5 -73z" />
    <glyph glyph-name="r" unicode="r" horiz-adv-x="1107" 
d="M82 0v293h203v471h-203v293h528l11 -187q49 93 118 140t181 47h127v-314h-193q-215 0 -215 -235v-215h281v-293h-838z" />
    <glyph glyph-name="s" unicode="s" horiz-adv-x="1150" 
d="M582 -12q-221 0 -360 100.5t-150 265.5h329q10 -56 57.5 -91.5t127.5 -35.5q151 0 151 90q0 40 -36.5 53.5t-155.5 26.5q-84 10 -145.5 22t-123 35t-99.5 55.5t-61.5 83t-23.5 116.5q0 164 125.5 262t337.5 98q223 0 362 -93.5t148 -248.5h-332q-6 49 -50 75.5t-114 26.5
q-65 0 -103 -21t-38 -60q0 -41 41.5 -57t155.5 -29q87 -10 146 -21t122 -34t100.5 -55t61.5 -84.5t24 -123.5q0 -163 -135 -259.5t-362 -96.5z" />
    <glyph glyph-name="t" unicode="t" horiz-adv-x="1058" 
d="M608 0q-153 0 -235 80.5t-82 236.5v447h-230v293h230v297h354v-297h332v-293h-332v-375q0 -51 22.5 -73.5t73.5 -22.5h236v-293h-369z" />
    <glyph glyph-name="u" unicode="u" horiz-adv-x="1300" 
d="M532 -12q-65 0 -121 12.5t-110.5 46.5t-92.5 86.5t-61.5 139t-23.5 198.5v586h354v-531q0 -121 34.5 -179t123.5 -58q83 0 128.5 60t45.5 179v529h354v-1057h-315l-27 121q-110 -133 -289 -133z" />
    <glyph glyph-name="v" unicode="v" horiz-adv-x="1228" 
d="M395 0l-375 1057h379l222 -707l217 707h370l-372 -1057h-441z" />
    <glyph glyph-name="w" unicode="w" horiz-adv-x="1409" 
d="M260 0l-219 1057h332l104 -654l129 517h209l129 -519l103 656h321l-219 -1057h-313l-129 467l-129 -467h-318z" />
    <glyph glyph-name="x" unicode="x" horiz-adv-x="1224" 
d="M20 0l388 537l-373 520h399l187 -271l192 271h375l-369 -520l385 -537h-399l-205 283l-205 -283h-375z" />
    <glyph glyph-name="y" unicode="y" horiz-adv-x="1236" 
d="M133 -410v293h166q49 0 73.5 15t39.5 57l14 39l-406 1063h377l221 -703l220 703h379l-459 -1192q-28 -74 -51.5 -118.5t-58.5 -83.5t-81 -56t-110 -17h-324z" />
    <glyph glyph-name="z" unicode="z" horiz-adv-x="1157" 
d="M86 0v248l487 516h-464v293h940v-248l-490 -516h512v-293h-985z" />
    <glyph glyph-name="uni00A0" unicode="&#xa0;" horiz-adv-x="655" 
 />
    <glyph glyph-name="Alphatonos" unicode="&#x386;" horiz-adv-x="1406" 
d="M29 0l444 1434h463l442 -1434h-397l-76 272h-418l-73 -272h-385zM563 569h264l-133 480zM-39 1083l37 351h350l-162 -351h-225z" />
    <glyph glyph-name="Epsilontonos" unicode="&#x388;" horiz-adv-x="1490" 
d="M438 0v1434h948v-320h-571v-246h465v-299h-465v-250h594v-319h-971zM0 1083l37 351h350l-162 -351h-225z" />
    <glyph glyph-name="Etatonos" unicode="&#x389;" horiz-adv-x="1734" 
d="M438 0v1434h377v-551h406v551h376v-1434h-376v563h-406v-563h-377zM0 1083l37 351h350l-162 -351h-225z" />
    <glyph glyph-name="Iotatonos" unicode="&#x38a;" horiz-adv-x="1447" 
d="M403 0v307h283v819h-283v308h943v-308h-283v-819h283v-307h-943zM-33 1083l37 351h350l-161 -351h-226z" />
    <glyph glyph-name="Omicrontonos" unicode="&#x38c;" horiz-adv-x="1722" 
d="M1012 -12q-284 0 -458.5 199.5t-174.5 529.5t174.5 529.5t458.5 199.5q285 0 459 -199t174 -530t-174 -530t-459 -199zM1012 299q127 0 187.5 102.5t60.5 315.5t-60.5 315.5t-187.5 102.5q-126 0 -187 -103t-61 -315t61 -315t187 -103zM82 1083l37 351h350l-162 -351
h-225z" />
    <glyph glyph-name="Upsilontonos" unicode="&#x38e;" horiz-adv-x="1681" 
d="M860 0v551l-432 883h418l203 -490l221 490h399l-432 -887v-547h-377zM0 1083l37 351h350l-162 -351h-225z" />
    <glyph glyph-name="Omegatonos" unicode="&#x38f;" horiz-adv-x="1603" 
d="M389 0v319h227v29q-103 59 -165 191t-62 315q0 278 149.5 435t413.5 157t414 -157t150 -435q0 -183 -62.5 -315t-165.5 -191v-29h228v-319h-480v426q71 40 100 126.5t29 262.5q0 320 -213 320t-213 -320q0 -176 29 -262.5t100 -126.5v-426h-479zM41 1083l37 351h350
l-162 -351h-225z" />
    <glyph glyph-name="iotadieresistonos" unicode="&#x390;" horiz-adv-x="993" 
d="M680 0q-177 0 -259.5 75.5t-82.5 239.5v449h-256v293h612v-647q0 -67 25.5 -92t93.5 -25h113v-293h-246zM408 1161l-21 350h330l-105 -350h-204zM170 1171q-71 0 -119.5 48t-48.5 118t48.5 118t119.5 48t119.5 -48t48.5 -118t-48.5 -118t-119.5 -48zM895 1171
q-71 0 -119.5 48t-48.5 118t48.5 118t119.5 48t119.5 -48t48.5 -118t-48.5 -118t-119.5 -48z" />
    <glyph glyph-name="Alpha" unicode="&#x391;" horiz-adv-x="1406" 
d="M29 0l444 1434h463l442 -1434h-397l-76 272h-418l-73 -272h-385zM563 569h264l-133 480z" />
    <glyph glyph-name="Beta" unicode="&#x392;" horiz-adv-x="1333" 
d="M137 0v1434h559q247 0 382.5 -99t135.5 -280q0 -134 -71 -216t-203 -104q154 -19 235.5 -101t81.5 -226q0 -190 -140.5 -299t-391.5 -109h-588zM514 279h195q79 0 123.5 40t44.5 113q0 72 -45 112t-123 40h-195v-305zM514 858h170q72 0 114 41t42 109t-42 108.5
t-114 40.5h-170v-299z" />
    <glyph glyph-name="Gamma" unicode="&#x393;" horiz-adv-x="1337" 
d="M102 0v307h205v819h-205v308h1133v-594h-315v286h-256v-819h256v-307h-818z" />
    <glyph glyph-name="uni0394" unicode="&#x394;" horiz-adv-x="1323" 
d="M39 0v242l391 1192h463l391 -1192v-242h-1245zM438 319h436l-219 717z" />
    <glyph glyph-name="Epsilon" unicode="&#x395;" horiz-adv-x="1189" 
d="M137 0v1434h948v-320h-571v-246h465v-299h-465v-250h594v-319h-971z" />
    <glyph glyph-name="Zeta" unicode="&#x396;" 
d="M92 0v242l617 872h-603v320h1108v-242l-616 -873h629v-319h-1135z" />
    <glyph glyph-name="Eta" unicode="&#x397;" horiz-adv-x="1433" 
d="M137 0v1434h377v-551h406v551h376v-1434h-376v563h-406v-563h-377z" />
    <glyph glyph-name="Theta" unicode="&#x398;" horiz-adv-x="1421" 
d="M711 -12q-284 0 -458.5 199.5t-174.5 529.5t174.5 529.5t458.5 199.5t458 -199.5t174 -529.5t-174 -529.5t-458 -199.5zM711 285q137 0 208.5 103t71.5 329t-71.5 329t-208.5 103t-209 -103t-72 -329t72 -329t209 -103zM496 598v238h430v-238h-430z" />
    <glyph glyph-name="Iota" unicode="&#x399;" horiz-adv-x="1146" 
d="M102 0v307h283v819h-283v308h942v-308h-282v-819h282v-307h-942z" />
    <glyph glyph-name="Kappa" unicode="&#x39a;" horiz-adv-x="1394" 
d="M137 0v1434h377v-566l406 566h428l-474 -611l504 -823h-440l-315 522l-109 -129v-393h-377z" />
    <glyph glyph-name="Lambda" unicode="&#x39b;" horiz-adv-x="1406" 
d="M29 0l448 1434h447l454 -1434h-395l-283 989l-286 -989h-385z" />
    <glyph glyph-name="Mu" unicode="&#x39c;" horiz-adv-x="1476" 
d="M137 0v1434h369l242 -666l227 666h364v-1434h-327v825l-195 -520h-158l-194 520v-825h-328z" />
    <glyph glyph-name="Nu" unicode="&#x39d;" horiz-adv-x="1433" 
d="M137 0v1434h328l479 -772v772h352v-1434h-327l-480 772v-772h-352z" />
    <glyph glyph-name="Xi" unicode="&#x39e;" horiz-adv-x="1302" 
d="M82 0v319h381v256h-236v291h236v248h-359v320h1094v-320h-358v-248h235v-291h-235v-256h381v-319h-1139z" />
    <glyph glyph-name="Omicron" unicode="&#x39f;" horiz-adv-x="1421" 
d="M711 -12q-284 0 -458.5 199.5t-174.5 529.5t174.5 529.5t458.5 199.5q285 0 458.5 -199t173.5 -530t-173.5 -530t-458.5 -199zM711 299q127 0 187 102.5t60 315.5t-60 315.5t-187 102.5q-126 0 -187 -103t-61 -315t61 -315t187 -103z" />
    <glyph glyph-name="Pi" unicode="&#x3a0;" horiz-adv-x="1433" 
d="M137 0v1434h1159v-1434h-376v1114h-406v-1114h-377z" />
    <glyph glyph-name="Rho" unicode="&#x3a1;" horiz-adv-x="1327" 
d="M137 0v1434h602q234 0 376 -135.5t142 -360.5t-142 -360.5t-376 -135.5h-225v-442h-377zM514 750h166q90 0 142 50.5t52 137.5t-52 137.5t-142 50.5h-166v-376z" />
    <glyph glyph-name="Sigma" unicode="&#x3a3;" 
d="M92 0v242l447 483l-433 467v242h1108v-320h-602l291 -321v-117l-336 -357h660v-319h-1135z" />
    <glyph glyph-name="Tau" unicode="&#x3a4;" horiz-adv-x="1257" 
d="M440 0v1114h-379v320h1135v-320h-379v-1114h-377z" />
    <glyph glyph-name="Upsilon" unicode="&#x3a5;" horiz-adv-x="1347" 
d="M485 0v551l-473 883h424l238 -490l256 490h405l-473 -887v-547h-377z" />
    <glyph glyph-name="Phi" unicode="&#x3a6;" horiz-adv-x="1648" 
d="M653 -41v139h-4q-267 0 -424 167.5t-157 451.5t157 451t424 167h4v140h342v-140h4q267 0 424.5 -167t157.5 -451t-157.5 -451.5t-424.5 -167.5h-4v-139h-342zM649 381h4v672h-4q-109 0 -169 -88.5t-60 -247.5t60 -247.5t169 -88.5zM995 381h4q109 0 169.5 89t60.5 247
t-60.5 247t-169.5 89h-4v-672z" />
    <glyph glyph-name="Chi" unicode="&#x3a7;" horiz-adv-x="1363" 
d="M35 0l385 731l-367 703h424l213 -441l225 441h398l-367 -703l383 -731h-428l-227 471l-242 -471h-397z" />
    <glyph glyph-name="Psi" unicode="&#x3a8;" horiz-adv-x="1564" 
d="M610 0v338q-260 36 -382 192.5t-122 444.5v459h349v-439q0 -164 33 -244t122 -108v791h344v-791q90 28 123 108t33 244v439h348v-459q0 -288 -122 -444.5t-382 -192.5v-338h-344z" />
    <glyph glyph-name="uni03A9" unicode="&#x3a9;" horiz-adv-x="1302" 
d="M88 0v319h227v29q-103 59 -165 191t-62 315q0 278 149.5 435t413.5 157t413.5 -157t149.5 -435q0 -183 -62 -315t-165 -191v-29h227v-319h-479v426q71 40 100 126.5t29 262.5q0 320 -213 320t-213 -320q0 -176 29 -262.5t100 -126.5v-426h-479z" />
    <glyph glyph-name="Iotadieresis" unicode="&#x3aa;" horiz-adv-x="1146" 
d="M102 0v307h283v819h-283v308h942v-308h-282v-819h282v-307h-942zM801 1542q-74 0 -124 49.5t-50 122.5t50 122.5t124 49.5t124 -49.5t50 -122.5t-50 -122.5t-124 -49.5zM346 1542q-74 0 -124 49.5t-50 122.5t50 122.5t124 49.5t124 -49.5t50 -122.5t-50 -122.5
t-124 -49.5z" />
    <glyph glyph-name="Upsilondieresis" unicode="&#x3ab;" horiz-adv-x="1347" 
d="M485 0v551l-473 883h424l238 -490l256 490h405l-473 -887v-547h-377zM901 1542q-74 0 -124 49.5t-50 122.5t50 122.5t124 49.5t124 -49.5t50 -122.5t-50 -122.5t-124 -49.5zM446 1542q-74 0 -124 49.5t-50 122.5t50 122.5t124 49.5t124.5 -49.5t50.5 -122.5t-50.5 -122.5
t-124.5 -49.5z" />
    <glyph glyph-name="alphatonos" unicode="&#x3ac;" horiz-adv-x="1296" 
d="M543 -12q-206 0 -335.5 150.5t-129.5 389.5q0 241 134 391t349 150q165 0 273 -123l24 111h313v-703q0 -63 52 -63h22v-291h-184q-187 0 -213 158q-111 -170 -305 -170zM633 268q86 0 137 70t51 190q0 118 -52 189t-138 71q-88 0 -140.5 -70t-52.5 -188t53.5 -190
t141.5 -72zM535 1161l36 350h351l-162 -350h-225z" />
    <glyph glyph-name="epsilontonos" unicode="&#x3ad;" horiz-adv-x="1187" 
d="M614 -12q-253 0 -398.5 86.5t-145.5 234.5q0 200 233 240q-99 23 -155 79.5t-56 147.5q0 135 129.5 214t370.5 79q251 0 387.5 -100t150.5 -271h-344q-9 65 -53.5 98t-132.5 33q-149 0 -149 -86q0 -44 37 -70t110 -26h133v-231h-156q-76 0 -110.5 -20.5t-34.5 -63.5
q0 -50 47 -77.5t133 -27.5t131.5 40.5t51.5 109.5h344q-5 -94 -34 -163.5t-89.5 -121.5t-160 -78t-239.5 -26zM481 1161l37 350h350l-161 -350h-226z" />
    <glyph glyph-name="etatonos" unicode="&#x3ae;" horiz-adv-x="1290" 
d="M813 -410v953q0 114 -36.5 171.5t-125.5 57.5q-172 0 -172 -229v-543h-354v702q0 64 -51 64h-23v291h185q91 0 142 -35t68 -109q56 76 128 116t184 40q86 0 157 -24.5t129 -78.5t90.5 -150.5t32.5 -229.5v-996h-354zM487 1161l37 350h350l-161 -350h-226z" />
    <glyph glyph-name="iotatonos" unicode="&#x3af;" horiz-adv-x="993" 
d="M680 0q-177 0 -259.5 75.5t-82.5 239.5v449h-256v293h612v-647q0 -67 25.5 -92t93.5 -25h113v-293h-246zM403 1161l37 350h351l-162 -350h-226z" />
    <glyph glyph-name="upsilondieresistonos" unicode="&#x3b0;" horiz-adv-x="1269" 
d="M635 -12q-255 0 -383.5 125t-128.5 368v576h354v-531q0 -129 35 -187t123 -58t123 58t35 187v531h354v-576q0 -243 -128.5 -368t-383.5 -125zM526 1161l-20 350h330l-105 -350h-205zM289 1171q-71 0 -119.5 48t-48.5 118t48.5 118t119.5 48t119.5 -48t48.5 -118
t-48.5 -118t-119.5 -48zM1014 1171q-71 0 -119.5 48t-48.5 118t48.5 118t119.5 48t119.5 -48t48.5 -118t-48.5 -118t-119.5 -48z" />
    <glyph glyph-name="alpha" unicode="&#x3b1;" horiz-adv-x="1296" 
d="M543 -12q-206 0 -335.5 150.5t-129.5 389.5q0 241 134 391t349 150q165 0 273 -123l24 111h313v-703q0 -63 52 -63h22v-291h-184q-187 0 -213 158q-111 -170 -305 -170zM633 268q86 0 137 70t51 190q0 118 -52 189t-138 71q-88 0 -140.5 -70t-52.5 -188t53.5 -190
t141.5 -72z" />
    <glyph glyph-name="beta" unicode="&#x3b2;" horiz-adv-x="1335" 
d="M137 -410v1393q0 217 142 340t383 123q234 0 371.5 -106t137.5 -285q0 -204 -163 -303q122 -38 185.5 -124.5t63.5 -215.5q0 -191 -130.5 -307.5t-344.5 -116.5q-186 0 -290 116v-514h-355zM717 244q89 0 136.5 46t47.5 130q0 82 -57 126t-164 44h-53v246h26
q77 0 120.5 46.5t43.5 129.5q0 159 -162 159q-77 0 -120 -45.5t-43 -128.5v-546q0 -92 62.5 -149.5t162.5 -57.5z" />
    <glyph glyph-name="gamma" unicode="&#x3b3;" horiz-adv-x="1228" 
d="M440 -336v350l-420 1043h379l224 -651l215 651h370l-413 -1037v-356h-355z" />
    <glyph glyph-name="delta" unicode="&#x3b4;" horiz-adv-x="1251" 
d="M612 -12q-248 0 -391 126t-143 351q0 156 76 265t200 165q70 30 135 37l-296 227v275h925v-293h-479l160 -109q204 -138 289.5 -262t85.5 -289q0 -104 -37 -193t-106 -156t-177 -105.5t-242 -38.5zM625 248q89 0 138.5 60t49.5 167t-49.5 168.5t-138.5 61.5
q-88 0 -137.5 -61.5t-49.5 -168.5q0 -108 49 -167.5t138 -59.5z" />
    <glyph glyph-name="epsilon" unicode="&#x3b5;" horiz-adv-x="1187" 
d="M614 -12q-253 0 -398.5 86.5t-145.5 234.5q0 200 233 240q-99 23 -155 79.5t-56 147.5q0 135 129.5 214t370.5 79q251 0 387.5 -100t150.5 -271h-344q-9 65 -53.5 98t-132.5 33q-149 0 -149 -86q0 -44 37 -70t110 -26h133v-231h-156q-76 0 -110.5 -20.5t-34.5 -63.5
q0 -50 47 -77.5t133 -27.5t131.5 40.5t51.5 109.5h344q-5 -94 -34 -163.5t-89.5 -121.5t-160 -78t-239.5 -26z" />
    <glyph glyph-name="zeta" unicode="&#x3b6;" horiz-adv-x="1142" 
d="M754 -276v139q0 72 -24.5 103t-82.5 32l-51 2q-242 11 -376 109.5t-134 265.5q0 123 68.5 243.5t246.5 307.5l203 215h-498v293h945v-234l-314 -323q-175 -181 -233 -269t-58 -170q0 -67 50.5 -104.5t144.5 -40.5l51 -2q198 -8 281.5 -86t83.5 -258v-223h-303z" />
    <glyph glyph-name="eta" unicode="&#x3b7;" horiz-adv-x="1290" 
d="M813 -410v953q0 114 -36.5 171.5t-125.5 57.5q-172 0 -172 -229v-543h-354v702q0 64 -51 64h-23v291h185q91 0 142 -35t68 -109q56 76 128 116t184 40q86 0 157 -24.5t129 -78.5t90.5 -150.5t32.5 -229.5v-996h-354z" />
    <glyph glyph-name="theta" unicode="&#x3b8;" horiz-adv-x="1265" 
d="M633 -12q-258 0 -406.5 192.5t-148.5 536.5q0 343 149 536t406 193q259 0 407 -191t148 -538q0 -344 -148.5 -536.5t-406.5 -192.5zM633 262q186 0 215 324h-430q29 -324 215 -324zM420 862h426q-15 159 -68 234t-145 75q-184 0 -213 -309z" />
    <glyph glyph-name="iota" unicode="&#x3b9;" horiz-adv-x="993" 
d="M680 0q-177 0 -259.5 75.5t-82.5 239.5v449h-256v293h612v-647q0 -67 25.5 -92t93.5 -25h113v-293h-246z" />
    <glyph glyph-name="kappa" unicode="&#x3ba;" horiz-adv-x="1245" 
d="M137 0v1057h355v-424l200 233q69 80 113 117t102 55.5t146 18.5h121v-293h-66q-55 0 -82 -15.5t-80 -74.5l-72 -80l351 -594h-404l-192 356l-137 -151v-205h-355z" />
    <glyph glyph-name="lambda" unicode="&#x3bb;" horiz-adv-x="1257" 
d="M31 0l442 987l-27 70q-19 48 -45 66t-79 18h-162v293h252q67 0 112.5 -9t81 -27.5t64.5 -58t53.5 -88.5t56.5 -131l447 -1120h-371l-225 580l-236 -580h-364z" />
    <glyph glyph-name="uni03BC" unicode="&#x3bc;" horiz-adv-x="1290" 
d="M137 -410v1467h355v-531q0 -123 31 -180t120 -57q168 0 168 239v529h354v-703q0 -63 52 -63h22v-291h-184q-91 0 -142.5 35t-68.5 108q-92 -155 -258 -155q-61 0 -107 26v-424h-342z" />
    <glyph glyph-name="nu" unicode="&#x3bd;" horiz-adv-x="1228" 
d="M395 0l-375 1057h379l222 -707l217 707h370l-372 -1057h-441z" />
    <glyph glyph-name="xi" unicode="&#x3be;" horiz-adv-x="1177" 
d="M807 -276v126q0 84 -28.5 115t-102.5 33l-129 4q-230 5 -349.5 92.5t-119.5 274.5q0 140 78 229t213 123q-116 24 -177 78.5t-61 148.5q0 74 52 128t141 67h-197v291h975v-273q-247 -7 -330 -12q-142 -9 -210 -45t-68 -113q0 -131 215 -131h319v-285h-362
q-107 0 -167.5 -37.5t-60.5 -111.5q0 -133 197 -139l106 -2q195 -5 282 -82t87 -266v-213h-303z" />
    <glyph glyph-name="omicron" unicode="&#x3bf;" horiz-adv-x="1263" 
d="M631 -12q-252 0 -402.5 147t-150.5 393t150.5 393.5t402.5 147.5t403.5 -147.5t151.5 -393.5t-151.5 -393t-403.5 -147zM631 270q90 0 142 70.5t52 187.5t-52 187.5t-142 70.5q-89 0 -141 -71t-52 -187t52 -187t141 -71z" />
    <glyph glyph-name="pi" unicode="&#x3c0;" horiz-adv-x="1308" 
d="M190 0v764h-139v293h1217v-293h-150v-410q0 -38 14.5 -50.5t49.5 -12.5h30v-291h-208q-125 0 -184.5 58t-59.5 182v524h-225v-764h-345z" />
    <glyph glyph-name="rho" unicode="&#x3c1;" horiz-adv-x="1304" 
d="M123 -410v889q0 276 145.5 433t405.5 157q263 0 408 -142t145 -392q0 -247 -144.5 -397t-367.5 -150q-142 0 -242 59v-457h-350zM670 270q92 0 144 69.5t52 188.5t-52 188.5t-144 69.5t-144.5 -69.5t-52.5 -188.5t52.5 -188.5t144.5 -69.5z" />
    <glyph glyph-name="sigma1" unicode="&#x3c2;" horiz-adv-x="1216" 
d="M719 -276v139q0 75 -28 105t-99 32l-70 2q-444 12 -444 526q0 249 148.5 395t404.5 146q220 0 355 -112.5t163 -311.5h-369q-14 66 -53.5 103.5t-101.5 37.5q-87 0 -137 -71t-50 -187q0 -119 38.5 -174t125.5 -59l76 -4q187 -10 265.5 -89.5t78.5 -254.5v-223h-303z" />
    <glyph glyph-name="sigma" unicode="&#x3c3;" horiz-adv-x="1312" 
d="M633 -12q-257 0 -406 144.5t-149 389.5q0 244 148.5 389.5t402.5 145.5h633v-287h-191q56 -43 85.5 -118.5t29.5 -164.5q0 -71 -20 -140.5t-64 -135t-107.5 -114.5t-157 -79t-204.5 -30zM633 270q88 0 140 68.5t52 183.5t-52 183.5t-140 68.5q-89 0 -142 -69t-53 -183
t53 -183t142 -69z" />
    <glyph glyph-name="tau" unicode="&#x3c4;" horiz-adv-x="1175" 
d="M713 0q-153 0 -235.5 80.5t-82.5 236.5v447h-334v293h1053v-293h-364v-375q0 -51 22.5 -73.5t73.5 -22.5h188v-293h-321z" />
    <glyph glyph-name="upsilon" unicode="&#x3c5;" horiz-adv-x="1269" 
d="M635 -12q-255 0 -383.5 125t-128.5 368v576h354v-531q0 -129 35 -187t123 -58t123 58t35 187v531h354v-576q0 -243 -128.5 -368t-383.5 -125z" />
    <glyph glyph-name="phi" unicode="&#x3c6;" horiz-adv-x="1632" 
d="M641 -410v410h-20q-236 0 -389.5 147.5t-153.5 380.5q0 236 155 382.5t400 146.5h8v262h350v-262h8q245 0 400 -146.5t155 -382.5q0 -233 -153 -380.5t-389 -147.5h-21v-410h-350zM633 270h12v516h-12q-97 0 -149 -69t-52 -189t52 -189t149 -69zM987 270h12q97 0 149 69
t52 189t-52 189t-149 69h-12v-516z" />
    <glyph glyph-name="chi" unicode="&#x3c7;" horiz-adv-x="1300" 
d="M51 -410l400 744l-207 373q-18 31 -40.5 44t-64.5 13h-65v293h164q49 0 82.5 -3.5t64 -16.5t50.5 -29t44.5 -49.5t44 -68.5t49.5 -95l105 -209l219 471h363l-398 -740l207 -376q18 -32 39.5 -45t62.5 -13h68v-293h-133q-109 0 -169.5 21.5t-101.5 72.5t-94 164l-104 222
l-219 -480h-367z" />
    <glyph glyph-name="psi" unicode="&#x3c8;" horiz-adv-x="1433" 
d="M567 -410v408q-216 33 -330 155t-114 304v600h317v-563q0 -169 127 -218v1041h299v-1041q127 49 127 218v563h318v-600q0 -182 -114.5 -304t-330.5 -155v-408h-299z" />
    <glyph glyph-name="omega" unicode="&#x3c9;" horiz-adv-x="1484" 
d="M453 -12q-166 0 -265.5 129.5t-99.5 347.5q0 352 184 592h346q-98 -136 -143 -274.5t-45 -303.5q0 -116 21 -169.5t67 -53.5q38 0 56 38t18 122v286h301v-286q0 -83 18 -121.5t58 -38.5q44 0 65 53.5t21 169.5q0 168 -45.5 307t-143.5 271h344q88 -103 137.5 -260
t49.5 -332q0 -220 -98 -348.5t-265 -128.5q-112 0 -180 50t-111 163q-47 -114 -115 -163.5t-175 -49.5z" />
    <glyph glyph-name="iotadieresis" unicode="&#x3ca;" horiz-adv-x="993" 
d="M680 0q-177 0 -259.5 75.5t-82.5 239.5v449h-256v293h612v-647q0 -67 25.5 -92t93.5 -25h113v-293h-246zM276 1178q-77 0 -128.5 50t-51.5 126q0 75 51.5 124.5t128.5 49.5q78 0 130.5 -49.5t52.5 -124.5q0 -76 -52.5 -126t-130.5 -50zM754 1178q-77 0 -129 50t-52 126
q0 75 52 124.5t129 49.5q78 0 130 -49.5t52 -124.5q0 -76 -52 -126t-130 -50z" />
    <glyph glyph-name="upsilondieresis" unicode="&#x3cb;" horiz-adv-x="1269" 
d="M635 -12q-255 0 -383.5 125t-128.5 368v576h354v-531q0 -129 35 -187t123 -58t123 58t35 187v531h354v-576q0 -243 -128.5 -368t-383.5 -125zM395 1178q-77 0 -128.5 50t-51.5 126q0 75 51.5 124.5t128.5 49.5q78 0 130.5 -49.5t52.5 -124.5q0 -76 -52.5 -126t-130.5 -50
zM872 1178q-77 0 -128.5 50t-51.5 126q0 75 51.5 124.5t128.5 49.5q78 0 130.5 -49.5t52.5 -124.5q0 -76 -52.5 -126t-130.5 -50z" />
    <glyph glyph-name="omicrontonos" unicode="&#x3cc;" horiz-adv-x="1263" 
d="M631 -12q-252 0 -402.5 147t-150.5 393t150.5 393.5t402.5 147.5t403.5 -147.5t151.5 -393.5t-151.5 -393t-403.5 -147zM631 270q90 0 142 70.5t52 187.5t-52 187.5t-142 70.5q-89 0 -141 -71t-52 -187t52 -187t141 -71zM518 1161l37 350h350l-162 -350h-225z" />
    <glyph glyph-name="upsilontonos" unicode="&#x3cd;" horiz-adv-x="1269" 
d="M635 -12q-255 0 -383.5 125t-128.5 368v576h354v-531q0 -129 35 -187t123 -58t123 58t35 187v531h354v-576q0 -243 -128.5 -368t-383.5 -125zM522 1161l37 350h350l-161 -350h-226z" />
    <glyph glyph-name="omegatonos" unicode="&#x3ce;" horiz-adv-x="1484" 
d="M453 -12q-166 0 -265.5 129.5t-99.5 347.5q0 352 184 592h346q-98 -136 -143 -274.5t-45 -303.5q0 -116 21 -169.5t67 -53.5q38 0 56 38t18 122v286h301v-286q0 -83 18 -121.5t58 -38.5q44 0 65 53.5t21 169.5q0 168 -45.5 307t-143.5 271h344q88 -103 137.5 -260
t49.5 -332q0 -220 -98 -348.5t-265 -128.5q-112 0 -180 50t-111 163q-47 -114 -115 -163.5t-175 -49.5zM631 1161l37 350h350l-162 -350h-225z" />
    <glyph glyph-name="uni0400" unicode="&#x400;" horiz-adv-x="1189" 
d="M137 0v1434h948v-320h-571v-246h465v-299h-465v-250h594v-319h-971zM489 1532l-268 303h402l129 -303h-263z" />
    <glyph glyph-name="uni0401" unicode="&#x401;" horiz-adv-x="1189" 
d="M137 0v1434h948v-320h-571v-246h465v-299h-465v-250h594v-319h-971z" />
    <glyph glyph-name="uni0402" unicode="&#x402;" horiz-adv-x="1564" 
d="M920 -276v315h41q155 0 155 156v186q0 219 -209 219q-79 0 -151 -29v-571h-377v1114h-318v320h1135v-320h-440v-237q91 30 223 30q253 0 383.5 -122t130.5 -357v-244q0 -218 -123.5 -339t-347.5 -121h-102z" />
    <glyph glyph-name="uni0403" unicode="&#x403;" horiz-adv-x="1337" 
d="M102 0v307h205v819h-205v308h1133v-594h-315v286h-256v-819h256v-307h-818zM627 1538l139 317h401l-284 -317h-256z" />
    <glyph glyph-name="uni0404" unicode="&#x404;" horiz-adv-x="1376" 
d="M705 -12q-299 0 -463 191.5t-164 537.5t169.5 537.5t477.5 191.5q250 0 407.5 -147t174.5 -386h-377q-15 108 -72.5 169t-150.5 61q-208 0 -248 -281h375v-282h-375q37 -289 246 -289q96 0 153 60t72 169h377q-17 -240 -180 -386t-422 -146z" />
    <glyph glyph-name="uni0405" unicode="&#x405;" horiz-adv-x="1302" 
d="M666 -12q-266 0 -427 131t-161 350h364q7 -93 66.5 -143t161.5 -50q86 0 133 33.5t47 98.5q0 67 -59.5 99.5t-249.5 72.5q-224 48 -328 142.5t-104 274.5q0 199 148.5 324t387.5 125q251 0 400 -124.5t149 -334.5h-363q-18 168 -186 168q-72 0 -116 -32t-44 -91
q0 -65 59 -94.5t247 -67.5q221 -44 329.5 -146.5t108.5 -287.5q0 -199 -156 -323.5t-407 -124.5z" />
    <glyph glyph-name="uni0406" unicode="&#x406;" horiz-adv-x="1146" 
d="M102 0v307h283v819h-283v308h942v-308h-282v-819h282v-307h-942z" />
    <glyph glyph-name="uni0407" unicode="&#x407;" horiz-adv-x="1146" 
d="M102 0v307h283v819h-283v308h942v-308h-282v-819h282v-307h-942zM801 1542q-74 0 -124 49.5t-50 122.5t50 122.5t124 49.5t124 -49.5t50 -122.5t-50 -122.5t-124 -49.5zM346 1542q-74 0 -124 49.5t-50 122.5t50 122.5t124 49.5t124 -49.5t50 -122.5t-50 -122.5
t-124 -49.5z" />
    <glyph glyph-name="uni0408" unicode="&#x408;" horiz-adv-x="1271" 
d="M604 -12q-273 0 -409 141.5t-134 413.5h371q0 -120 41.5 -179t132.5 -59q89 0 128.5 55.5t39.5 174.5v591h-457v308h834v-893q0 -268 -138 -410.5t-409 -142.5z" />
    <glyph glyph-name="uni0409" unicode="&#x409;" horiz-adv-x="1841" 
d="M14 0v303h19q82 0 119.5 89.5t37.5 281.5v760h965v-502h121q246 0 376 -119.5t130 -343.5t-131.5 -346.5t-374.5 -122.5h-477v1130h-285v-468q0 -341 -111.5 -501.5t-347.5 -160.5h-41zM1155 293h96q86 0 127 43t41 133q0 170 -168 170h-96v-346z" />
    <glyph glyph-name="uni040A" unicode="&#x40a;" horiz-adv-x="1843" 
d="M127 0v1434h356v-512h318v512h356v-502h121q247 0 376.5 -119.5t129.5 -343.5t-131.5 -346.5t-374.5 -122.5h-477v618h-318v-618h-356zM1157 293h96q87 0 127.5 43.5t40.5 132.5q0 170 -168 170h-96v-346z" />
    <glyph glyph-name="uni040B" unicode="&#x40b;" horiz-adv-x="1564" 
d="M379 0v1114h-318v320h1135v-320h-440v-240q90 33 223 33q254 0 384 -122.5t130 -356.5v-428h-377v381q0 219 -209 219q-75 0 -151 -29v-571h-377z" />
    <glyph glyph-name="uni040C" unicode="&#x40c;" horiz-adv-x="1396" 
d="M137 0v1434h377v-557h133l291 557h401l-376 -682l399 -752h-424l-285 573h-139v-573h-377zM575 1538l140 317h401l-285 -317h-256z" />
    <glyph glyph-name="uni040D" unicode="&#x40d;" horiz-adv-x="1462" 
d="M137 0v1434h365v-793l506 793h317v-1434h-364v793l-506 -793h-318zM592 1532l-268 303h401l129 -303h-262z" />
    <glyph glyph-name="uni040E" unicode="&#x40e;" horiz-adv-x="1331" 
d="M207 0v319h133q68 0 102 18.5t58 74.5l22 51l-510 971h412l278 -576l226 576h391l-479 -1119q-72 -166 -169.5 -240.5t-230.5 -74.5h-233zM668 1524q-168 0 -261.5 89.5t-99.5 241.5h258q0 -53 27 -83.5t76 -30.5t75.5 30.5t26.5 83.5h258q-6 -152 -99 -241.5t-261 -89.5
z" />
    <glyph glyph-name="uni040F" unicode="&#x40f;" horiz-adv-x="1413" 
d="M528 -293v293h-391v1434h377v-1115h385v1115h377v-1434h-391v-293h-357z" />
    <glyph glyph-name="uni0410" unicode="&#x410;" horiz-adv-x="1406" 
d="M29 0l444 1434h463l442 -1434h-397l-76 272h-418l-73 -272h-385zM563 569h264l-133 480z" />
    <glyph glyph-name="uni0411" unicode="&#x411;" horiz-adv-x="1265" 
d="M137 0v1434h961v-299h-592v-244h194q246 0 378 -115t132 -327q0 -214 -133.5 -331.5t-376.5 -117.5h-563zM506 295h164q81 0 123.5 40t42.5 114q0 70 -43 108.5t-123 38.5h-164v-301z" />
    <glyph glyph-name="uni0412" unicode="&#x412;" horiz-adv-x="1333" 
d="M137 0v1434h559q247 0 382.5 -99t135.5 -280q0 -134 -71 -216t-203 -104q154 -19 235.5 -101t81.5 -226q0 -190 -140.5 -299t-391.5 -109h-588zM514 279h195q79 0 123.5 40t44.5 113q0 72 -45 112t-123 40h-195v-305zM514 858h170q72 0 114 41t42 109t-42 108.5
t-114 40.5h-170v-299z" />
    <glyph glyph-name="uni0413" unicode="&#x413;" horiz-adv-x="1337" 
d="M102 0v307h205v819h-205v308h1133v-594h-315v286h-256v-819h256v-307h-818z" />
    <glyph glyph-name="uni0414" unicode="&#x414;" horiz-adv-x="1490" 
d="M47 -293v612h121q49 83 71.5 211t22.5 326v578h1028v-1115h133v-612h-336v293h-704v-293h-336zM520 319h426v803h-356v-311q0 -319 -70 -492z" />
    <glyph glyph-name="uni0415" unicode="&#x415;" horiz-adv-x="1189" 
d="M137 0v1434h948v-320h-571v-246h465v-299h-465v-250h594v-319h-971z" />
    <glyph glyph-name="uni0416" unicode="&#x416;" horiz-adv-x="1781" 
d="M25 0l317 752l-291 682h365l205 -557h102v557h336v-557h100l227 557h345l-291 -682l317 -752h-368l-226 573h-104v-573h-336v573h-107l-223 -573h-368z" />
    <glyph glyph-name="uni0417" unicode="&#x417;" horiz-adv-x="1271" 
d="M627 -12q-276 0 -424 123t-158 364h361q10 -103 65.5 -152t159.5 -49q88 0 138 41.5t50 116.5q0 73 -48 108t-148 35h-166v293h168q83 0 127.5 39t44.5 111q0 68 -48 104.5t-135 36.5q-186 0 -215 -186h-352q15 217 171.5 345t406.5 128q256 0 399 -104.5t143 -290.5
q0 -116 -62.5 -197t-180.5 -115q132 -32 202 -117.5t70 -211.5q0 -197 -152 -309.5t-417 -112.5z" />
    <glyph glyph-name="uni0418" unicode="&#x418;" horiz-adv-x="1462" 
d="M137 0v1434h365v-793l506 793h317v-1434h-364v793l-506 -793h-318z" />
    <glyph glyph-name="uni0419" unicode="&#x419;" horiz-adv-x="1462" 
d="M137 0v1434h365v-793l506 793h317v-1434h-364v793l-506 -793h-318zM733 1524q-168 0 -261 89.5t-99 241.5h258q0 -53 26.5 -83.5t75.5 -30.5t76 30.5t27 83.5h258q-6 -152 -99.5 -241.5t-261.5 -89.5z" />
    <glyph glyph-name="uni041A" unicode="&#x41a;" horiz-adv-x="1396" 
d="M137 0v1434h377v-557h133l291 557h401l-376 -682l399 -752h-424l-285 573h-139v-573h-377z" />
    <glyph glyph-name="uni041B" unicode="&#x41b;" horiz-adv-x="1429" 
d="M14 0v319h39q88 0 126 86.5t38 284.5v744h1075v-1434h-377v1120h-356v-442q0 -332 -122.5 -505t-358.5 -173h-64z" />
    <glyph glyph-name="uni041C" unicode="&#x41c;" horiz-adv-x="1476" 
d="M137 0v1434h369l242 -666l227 666h364v-1434h-327v825l-195 -520h-158l-194 520v-825h-328z" />
    <glyph glyph-name="uni041D" unicode="&#x41d;" horiz-adv-x="1433" 
d="M137 0v1434h377v-551h406v551h376v-1434h-376v563h-406v-563h-377z" />
    <glyph glyph-name="uni041E" unicode="&#x41e;" horiz-adv-x="1421" 
d="M711 -12q-284 0 -458.5 199.5t-174.5 529.5t174.5 529.5t458.5 199.5q285 0 458.5 -199t173.5 -530t-173.5 -530t-458.5 -199zM711 299q127 0 187 102.5t60 315.5t-60 315.5t-187 102.5q-126 0 -187 -103t-61 -315t61 -315t187 -103z" />
    <glyph glyph-name="uni041F" unicode="&#x41f;" horiz-adv-x="1433" 
d="M137 0v1434h1159v-1434h-376v1114h-406v-1114h-377z" />
    <glyph glyph-name="uni0420" unicode="&#x420;" horiz-adv-x="1327" 
d="M137 0v1434h602q234 0 376 -135.5t142 -360.5t-142 -360.5t-376 -135.5h-225v-442h-377zM514 750h166q90 0 142 50.5t52 137.5t-52 137.5t-142 50.5h-166v-376z" />
    <glyph glyph-name="uni0421" unicode="&#x421;" horiz-adv-x="1376" 
d="M713 -12q-303 0 -469 190.5t-166 538.5q0 347 170.5 538t480.5 191q243 0 400.5 -147.5t177.5 -399.5h-377q-23 117 -74.5 176.5t-140.5 59.5q-124 0 -188 -107.5t-64 -310.5q0 -202 64 -310t186 -108q93 0 143.5 58t71.5 178h379q-20 -253 -180.5 -400t-413.5 -147z" />
    <glyph glyph-name="uni0422" unicode="&#x422;" horiz-adv-x="1257" 
d="M440 0v1114h-379v320h1135v-320h-379v-1114h-377z" />
    <glyph glyph-name="uni0423" unicode="&#x423;" horiz-adv-x="1331" 
d="M207 0v319h133q68 0 102 18.5t58 74.5l22 51l-510 971h412l278 -576l226 576h391l-479 -1119q-72 -166 -169.5 -240.5t-230.5 -74.5h-233z" />
    <glyph glyph-name="uni0424" unicode="&#x424;" horiz-adv-x="1648" 
d="M653 -41v139h-4q-267 0 -424 167.5t-157 451.5t157 451t424 167h4v140h342v-140h4q267 0 424.5 -167t157.5 -451t-157.5 -451.5t-424.5 -167.5h-4v-139h-342zM649 381h4v672h-4q-109 0 -169 -88.5t-60 -247.5t60 -247.5t169 -88.5zM995 381h4q109 0 169.5 89t60.5 247
t-60.5 247t-169.5 89h-4v-672z" />
    <glyph glyph-name="uni0425" unicode="&#x425;" horiz-adv-x="1363" 
d="M35 0l385 731l-367 703h424l213 -441l225 441h398l-367 -703l383 -731h-428l-227 471l-242 -471h-397z" />
    <glyph glyph-name="uni0426" unicode="&#x426;" horiz-adv-x="1501" 
d="M137 0v1434h377v-1115h385v1115h377v-1115h158v-612h-336v293h-961z" />
    <glyph glyph-name="uni0427" unicode="&#x427;" horiz-adv-x="1339" 
d="M825 0v506q-100 -35 -235 -35q-256 0 -387 123t-131 356v484h377v-437q0 -219 215 -219q88 0 161 31v625h377v-1434h-377z" />
    <glyph glyph-name="uni0428" unicode="&#x428;" horiz-adv-x="1732" 
d="M127 0v1434h336v-1131h235v1131h336v-1131h236v1131h336v-1434h-1479z" />
    <glyph glyph-name="uni0429" unicode="&#x429;" horiz-adv-x="1830" 
d="M127 0v1434h336v-1131h235v1131h336v-1131h236v1131h336v-1115h141v-612h-336v293h-1284z" />
    <glyph glyph-name="uni042A" unicode="&#x42a;" horiz-adv-x="1417" 
d="M340 0v1114h-279v320h635v-461h146q235 0 370.5 -130t135.5 -356t-135.5 -356.5t-370.5 -130.5h-502zM696 293h119q170 0 170 194q0 95 -43.5 145t-126.5 50h-119v-389z" />
    <glyph glyph-name="uni042B" unicode="&#x42b;" horiz-adv-x="1712" 
d="M127 0v1434h356v-461h148q230 0 363.5 -131t133.5 -355q0 -225 -133.5 -356t-363.5 -131h-504zM483 293h121q78 0 120 49.5t42 144.5q0 94 -42 144.5t-120 50.5h-121v-389zM1229 0v1434h356v-1434h-356z" />
    <glyph glyph-name="uni042C" unicode="&#x42c;" horiz-adv-x="1329" 
d="M137 0v1434h377v-451h209q243 0 390 -133t147 -358t-147 -358.5t-390 -133.5h-586zM514 307h176q87 0 137 48.5t50 136.5q0 87 -50 135.5t-137 48.5h-176v-369z" />
    <glyph glyph-name="uni042D" unicode="&#x42d;" horiz-adv-x="1376" 
d="M672 -12q-259 0 -422 146t-180 386h376q15 -108 72.5 -168.5t153.5 -60.5q209 0 246 289h-375v282h375q-40 281 -248 281q-94 0 -151.5 -61t-72.5 -169h-376q17 239 174 386t407 147q308 0 477.5 -191.5t169.5 -537.5t-163.5 -537.5t-462.5 -191.5z" />
    <glyph glyph-name="uni042E" unicode="&#x42e;" horiz-adv-x="1769" 
d="M1145 -12q-230 0 -374 153.5t-175 429.5h-125v-571h-344v1434h344v-560h125q34 269 178.5 420.5t370.5 151.5q258 0 407.5 -195t149.5 -534t-149.5 -534t-407.5 -195zM1145 287q106 0 156.5 103.5t50.5 326.5t-50.5 326.5t-156.5 103.5q-108 0 -158.5 -103.5
t-50.5 -326.5t50.5 -326.5t158.5 -103.5z" />
    <glyph glyph-name="uni042F" unicode="&#x42f;" horiz-adv-x="1359" 
d="M55 0l299 514q-123 61 -189.5 173t-66.5 251q0 224 146.5 360t382.5 136h596v-1434h-377v442h-129l-240 -442h-422zM680 750h166v376h-166q-90 0 -143.5 -50.5t-53.5 -137.5t53.5 -137.5t143.5 -50.5z" />
    <glyph glyph-name="uni0430" unicode="&#x430;" horiz-adv-x="1196" 
d="M457 -12q-171 0 -279 82.5t-108 232.5q0 174 130.5 266.5t377.5 92.5h141v40q0 57 -37 90t-107 33q-61 0 -101.5 -28t-45.5 -74h-340q14 152 149.5 249t352.5 97q230 0 354.5 -98.5t124.5 -288.5v-328q0 -37 11.5 -50t43.5 -13h21v-291h-168q-181 0 -195 145
q-116 -157 -325 -157zM535 231q82 0 133 54t51 141v16h-137q-73 0 -114.5 -31t-41.5 -85q0 -43 30 -69t79 -26z" />
    <glyph glyph-name="uni0431" unicode="&#x431;" horiz-adv-x="1245" 
d="M610 -12q-522 0 -522 649q0 256 59.5 411.5t193 239.5t364.5 113l358 45v-295l-285 -35q-199 -25 -279.5 -82t-105.5 -188q111 117 318 117q214 0 335 -126.5t121 -344.5q0 -233 -148.5 -368.5t-408.5 -135.5zM633 256q81 0 127.5 61t46.5 162t-46.5 162t-127.5 61
t-127.5 -61t-46.5 -162t46.5 -162t127.5 -61z" />
    <glyph glyph-name="uni0432" unicode="&#x432;" horiz-adv-x="1200" 
d="M137 0v1057h488q229 0 350 -70.5t121 -202.5q0 -110 -56.5 -164t-162.5 -73q126 -18 188.5 -77t62.5 -171q0 -153 -121 -226t-370 -73h-500zM475 227h170q60 0 92.5 26t32.5 73t-32.5 72.5t-92.5 25.5h-170v-197zM475 637h137q60 0 92.5 25t32.5 71t-32.5 71t-92.5 25
h-137v-192z" />
    <glyph glyph-name="uni0433" unicode="&#x433;" horiz-adv-x="1253" 
d="M82 0v293h203v471h-203v293h1089v-545h-299v252h-239v-471h221v-293h-772z" />
    <glyph glyph-name="uni0434" unicode="&#x434;" horiz-adv-x="1335" 
d="M27 -272v565h118q93 86 93 393v371h917v-764h148v-565h-336v272h-605v-272h-335zM492 293h327v487h-272v-151q0 -98 -15.5 -189t-39.5 -147z" />
    <glyph glyph-name="uni0435" unicode="&#x435;" horiz-adv-x="1245" 
d="M647 -12q-269 0 -419 144t-150 392q0 250 150 397.5t401 147.5q239 0 388.5 -140.5t149.5 -369.5q0 -64 -10 -115h-711v-14q4 -90 55.5 -138t135.5 -48q143 0 170 116h348q-21 -159 -157 -265.5t-351 -106.5zM451 662h366q-15 75 -63.5 115t-122.5 40q-76 0 -122.5 -40.5
t-57.5 -114.5z" />
    <glyph glyph-name="uni0436" unicode="&#x436;" horiz-adv-x="1576" 
d="M20 0l242 559l-213 498h334l156 -387h82v387h335v-387h82l156 387h334l-213 -498l241 -559h-358l-160 393h-82v-393h-335v393h-82l-160 -393h-359z" />
    <glyph glyph-name="uni0437" unicode="&#x437;" horiz-adv-x="1183" 
d="M580 -12q-264 0 -382 97.5t-126 289.5h344q6 -71 47.5 -110.5t120.5 -39.5q81 0 125.5 27.5t44.5 77.5q0 44 -33 65t-105 21h-127v231h107q69 0 104 25.5t35 70.5q0 88 -141 88q-157 0 -172 -133h-344q12 172 146.5 271.5t377.5 99.5q235 0 362.5 -78.5t127.5 -214.5
q0 -91 -54.5 -147.5t-152.5 -79.5q227 -40 227 -240q0 -148 -142.5 -234.5t-389.5 -86.5z" />
    <glyph glyph-name="uni0438" unicode="&#x438;" horiz-adv-x="1312" 
d="M137 0v1057h342v-553l389 553h308v-1057h-342v553l-390 -553h-307z" />
    <glyph glyph-name="uni0439" unicode="&#x439;" horiz-adv-x="1312" 
d="M137 0v1057h342v-553l389 553h308v-1057h-342v553l-390 -553h-307zM659 1147q-168 0 -261 90t-99 242h258q0 -53 26.5 -84t75.5 -31t76 31t27 84h258q-6 -152 -99.5 -242t-261.5 -90z" />
    <glyph glyph-name="uni043A" unicode="&#x43a;" horiz-adv-x="1263" 
d="M137 0v1057h355v-379h133l225 379h371l-293 -496l315 -561h-403l-213 385h-135v-385h-355z" />
    <glyph glyph-name="uni043B" unicode="&#x43b;" horiz-adv-x="1263" 
d="M35 0v293h37q69 0 98 55t29 187v522h927v-1057h-354v764h-252v-217q0 -269 -108.5 -408t-319.5 -139h-57z" />
    <glyph glyph-name="uni043C" unicode="&#x43c;" horiz-adv-x="1431" 
d="M137 0v1059h357l231 -461l217 461h352v-1059h-315v573l-188 -358h-150l-188 358v-573h-316z" />
    <glyph glyph-name="uni043D" unicode="&#x43d;" horiz-adv-x="1312" 
d="M137 0v1057h355v-379h329v379h355v-1057h-355v385h-329v-385h-355z" />
    <glyph glyph-name="uni043E" unicode="&#x43e;" horiz-adv-x="1263" 
d="M631 -12q-252 0 -402.5 147t-150.5 393t150.5 393.5t402.5 147.5t403.5 -147.5t151.5 -393.5t-151.5 -393t-403.5 -147zM631 270q90 0 142 70.5t52 187.5t-52 187.5t-142 70.5q-89 0 -141 -71t-52 -187t52 -187t141 -71z" />
    <glyph glyph-name="uni043F" unicode="&#x43f;" horiz-adv-x="1292" 
d="M137 0v1057h1018v-1057h-354v764h-309v-764h-355z" />
    <glyph glyph-name="uni0440" unicode="&#x440;" horiz-adv-x="1316" 
d="M137 -410v1467h312l28 -131q112 143 293 143q206 0 337.5 -149.5t131.5 -393.5q0 -245 -130.5 -391.5t-334.5 -146.5q-171 0 -282 131v-529h-355zM682 268q91 0 144 72.5t53 189.5t-53 187.5t-144 70.5q-92 0 -143.5 -71t-51.5 -187q0 -117 51.5 -189.5t143.5 -72.5z" />
    <glyph glyph-name="uni0441" unicode="&#x441;" horiz-adv-x="1218" 
d="M618 -12q-254 0 -397 144t-143 396q0 249 148.5 395t404.5 146q220 0 355 -112.5t163 -311.5h-369q-14 66 -53.5 103.5t-101.5 37.5q-87 0 -137 -71t-50 -187t50 -187t137 -71q65 0 105.5 40t51.5 110h369q-28 -200 -169.5 -316t-363.5 -116z" />
    <glyph glyph-name="uni0442" unicode="&#x442;" horiz-adv-x="1030" 
d="M338 0v764h-305v293h964v-293h-305v-764h-354z" />
    <glyph glyph-name="uni0443" unicode="&#x443;" horiz-adv-x="1236" 
d="M133 -410v293h166q49 0 73.5 15t39.5 57l14 39l-406 1063h377l221 -703l220 703h379l-459 -1192q-28 -74 -51.5 -118.5t-58.5 -83.5t-81 -56t-110 -17h-324z" />
    <glyph glyph-name="uni0444" unicode="&#x444;" horiz-adv-x="1632" 
d="M641 -410v410h-20q-236 0 -389.5 147.5t-153.5 380.5q0 236 155 382.5t400 146.5h8v344h350v-344h8q245 0 400 -146.5t155 -382.5q0 -233 -153 -380.5t-389 -147.5h-21v-410h-350zM633 270h12v516h-12q-97 0 -149 -69t-52 -189t52 -189t149 -69zM987 270h12q97 0 149 69
t52 189t-52 189t-149 69h-12v-516z" />
    <glyph glyph-name="uni0445" unicode="&#x445;" horiz-adv-x="1224" 
d="M20 0l388 537l-373 520h399l187 -271l192 271h375l-369 -520l385 -537h-399l-205 283l-205 -283h-375z" />
    <glyph glyph-name="uni0446" unicode="&#x446;" horiz-adv-x="1306" 
d="M137 0v1057h355v-764h280v764h354v-764h148v-565h-336v272h-801z" />
    <glyph glyph-name="uni0447" unicode="&#x447;" horiz-adv-x="1218" 
d="M727 0v328q-92 -25 -186 -25q-223 0 -329 101t-106 333v320h355v-297q0 -91 36.5 -130.5t116.5 -39.5q64 0 113 16v451h354v-1057h-354z" />
    <glyph glyph-name="uni0448" unicode="&#x448;" horiz-adv-x="1732" 
d="M137 0v1057h336v-764h225v764h336v-764h226v764h335v-1057h-1458z" />
    <glyph glyph-name="uni0449" unicode="&#x449;" horiz-adv-x="1775" 
d="M137 0v1057h336v-764h225v764h336v-764h226v764h335v-764h148v-565h-336v272h-1270z" />
    <glyph glyph-name="uni044A" unicode="&#x44a;" horiz-adv-x="1331" 
d="M297 0v764h-264v293h618v-291h170q206 0 324.5 -102.5t118.5 -282.5q0 -177 -118.5 -279t-324.5 -102h-524zM651 256h107q70 0 107.5 32.5t37.5 94.5t-37.5 94.5t-107.5 32.5h-107v-254z" />
    <glyph glyph-name="uni044B" unicode="&#x44b;" horiz-adv-x="1720" 
d="M137 0v1057h355v-291h190q206 0 324 -102.5t118 -282.5q0 -177 -118.5 -279t-323.5 -102h-545zM492 256h126q71 0 108.5 33t37.5 94t-37.5 94t-108.5 33h-126v-254zM1229 0v1057h354v-1057h-354z" />
    <glyph glyph-name="uni044C" unicode="&#x44c;" horiz-adv-x="1208" 
d="M137 0v1057h355v-291h206q206 0 324.5 -102.5t118.5 -282.5q0 -177 -118.5 -279t-324.5 -102h-561zM492 256h143q70 0 107.5 32.5t37.5 94.5t-37.5 94.5t-107.5 32.5h-143v-254z" />
    <glyph glyph-name="uni044D" unicode="&#x44d;" horiz-adv-x="1216" 
d="M588 -12q-226 0 -359 110t-161 305h348q11 -71 57 -110t123 -39q70 0 116.5 41.5t65.5 118.5h-260v231h260q-42 158 -182 158q-153 0 -180 -154h-348q28 198 169 309t361 111q254 0 397.5 -144t143.5 -397q0 -251 -147.5 -395.5t-403.5 -144.5z" />
    <glyph glyph-name="uni044E" unicode="&#x44e;" horiz-adv-x="1699" 
d="M1090 -12q-204 0 -342.5 107.5t-176.5 297.5h-98v-393h-336v1057h336v-385h100q41 187 177.5 292t339.5 105q243 0 387.5 -147t144.5 -394t-144.5 -393.5t-387.5 -146.5zM1090 258q88 0 137 71.5t49 198.5q0 128 -49 199.5t-137 71.5t-136.5 -71t-48.5 -200t48.5 -199.5
t136.5 -70.5z" />
    <glyph glyph-name="uni044F" unicode="&#x44f;" horiz-adv-x="1204" 
d="M31 0l239 365q-194 72 -194 313q0 175 125.5 277t353.5 102h512v-1057h-354v309h-95l-186 -309h-401zM563 565h150v234h-150q-62 0 -95.5 -31.5t-33.5 -85.5q0 -57 33 -87t96 -30z" />
    <glyph glyph-name="uni0450" unicode="&#x450;" horiz-adv-x="1245" 
d="M647 -12q-269 0 -419 144t-150 392q0 250 150 397.5t401 147.5q239 0 388.5 -140.5t149.5 -369.5q0 -64 -10 -115h-711v-14q4 -90 55.5 -138t135.5 -48q143 0 170 116h348q-21 -159 -157 -265.5t-351 -106.5zM483 1155l-268 324h401l129 -324h-262zM451 662h366
q-15 75 -63.5 115t-122.5 40q-76 0 -122.5 -40.5t-57.5 -114.5z" />
    <glyph glyph-name="uni0451" unicode="&#x451;" horiz-adv-x="1245" 
d="M647 -12q-269 0 -419 144t-150 392q0 250 150 397.5t401 147.5q239 0 388.5 -140.5t149.5 -369.5q0 -64 -10 -115h-711v-14q4 -90 55.5 -138t135.5 -48q143 0 170 116h348q-21 -159 -157 -265.5t-351 -106.5zM451 662h366q-15 75 -63.5 115t-122.5 40q-76 0 -122.5 -40.5
t-57.5 -114.5z" />
    <glyph glyph-name="uni0452" unicode="&#x452;" horiz-adv-x="1333" 
d="M692 -410v293h66q98 0 98 119v549q0 221 -164 221q-86 0 -133 -58t-47 -163v-551h-354v1137h-162v206h162v91h354v-91h279v-206h-279v-187q109 119 283 119q88 0 160 -25.5t130.5 -79.5t91.5 -150.5t33 -227.5v-652q0 -153 -85.5 -248.5t-235.5 -95.5h-197z" />
    <glyph glyph-name="uni0453" unicode="&#x453;" horiz-adv-x="1253" 
d="M82 0v293h203v471h-203v293h1089v-545h-299v252h-239v-471h221v-293h-772zM512 1161l139 318h402l-285 -318h-256z" />
    <glyph glyph-name="uni0454" unicode="&#x454;" horiz-adv-x="1216" 
d="M618 -12q-254 0 -397 143.5t-143 396.5q0 251 147.5 396t403.5 145q225 0 358.5 -110.5t161.5 -305.5h-348q-11 71 -57 110.5t-123 39.5q-141 0 -183 -158h260v-231h-260q19 -77 66 -118.5t117 -41.5q153 0 180 154h348q-28 -198 -169.5 -309t-361.5 -111z" />
    <glyph glyph-name="uni0455" unicode="&#x455;" horiz-adv-x="1150" 
d="M582 -12q-221 0 -360 100.5t-150 265.5h329q10 -56 57.5 -91.5t127.5 -35.5q151 0 151 90q0 40 -36.5 53.5t-155.5 26.5q-84 10 -145.5 22t-123 35t-99.5 55.5t-61.5 83t-23.5 116.5q0 164 125.5 262t337.5 98q223 0 362 -93.5t148 -248.5h-332q-6 49 -50 75.5t-114 26.5
q-65 0 -103 -21t-38 -60q0 -41 41.5 -57t155.5 -29q87 -10 146 -21t122 -34t100.5 -55t61.5 -84.5t24 -123.5q0 -163 -135 -259.5t-362 -96.5z" />
    <glyph glyph-name="uni0456" unicode="&#x456;" horiz-adv-x="1038" 
d="M82 0v293h276v471h-276v293h633v-764h256v-293h-889zM535 1167q-85 0 -142 55t-57 138t57 137.5t142 54.5t141.5 -54.5t56.5 -137.5t-56.5 -138t-141.5 -55z" />
    <glyph glyph-name="uni0457" unicode="&#x457;" horiz-adv-x="1038" 
d="M82 0v293h276v471h-276v293h633v-764h256v-293h-889zM297 1178q-77 0 -128.5 50t-51.5 126q0 75 51.5 124.5t128.5 49.5q78 0 130 -49.5t52 -124.5q0 -76 -52 -126t-130 -50zM774 1178q-77 0 -128.5 50t-51.5 126q0 75 51.5 124.5t128.5 49.5q78 0 130 -49.5t52 -124.5
q0 -76 -52 -126t-130 -50z" />
    <glyph glyph-name="uni0458" unicode="&#x458;" horiz-adv-x="925" 
d="M41 -410v293h295q98 0 98 119v762h-393v293h747v-1123q0 -153 -85.5 -248.5t-235.5 -95.5h-426zM610 1167q-85 0 -141.5 55t-56.5 138t56.5 137.5t141.5 54.5t142 -54.5t57 -137.5t-57 -138t-142 -55z" />
    <glyph glyph-name="uni0459" unicode="&#x459;" horiz-adv-x="1630" 
d="M35 0v279h28q109 0 109 245v533h846v-336h156q184 0 286.5 -96t102.5 -267q0 -169 -105.5 -263.5t-294.5 -94.5h-481v778h-209v-231q0 -268 -94 -407.5t-279 -139.5h-65zM1018 244h96q113 0 113 116q0 117 -113 117h-96v-233z" />
    <glyph glyph-name="uni045A" unicode="&#x45a;" horiz-adv-x="1685" 
d="M137 0v1057h336v-352h264v352h336v-336h156q184 0 286.5 -96t102.5 -267q0 -169 -105 -263.5t-294 -94.5h-482v426h-264v-426h-336zM1073 244h96q113 0 113 116q0 117 -113 117h-96v-233z" />
    <glyph glyph-name="uni045B" unicode="&#x45b;" horiz-adv-x="1333" 
d="M158 0v1137h-162v206h162v91h354v-91h279v-206h-279v-187q109 119 283 119q88 0 160 -25.5t130.5 -79.5t91.5 -150.5t33 -227.5v-586h-354v551q0 221 -164 221q-86 0 -133 -58t-47 -163v-551h-354z" />
    <glyph glyph-name="uni045C" unicode="&#x45c;" horiz-adv-x="1263" 
d="M137 0v1057h355v-379h133l225 379h371l-293 -496l315 -561h-403l-213 385h-135v-385h-355zM510 1161l139 318h402l-285 -318h-256z" />
    <glyph glyph-name="uni045D" unicode="&#x45d;" horiz-adv-x="1312" 
d="M137 0v1057h342v-553l389 553h308v-1057h-342v553l-390 -553h-307zM518 1155l-268 324h401l129 -324h-262z" />
    <glyph glyph-name="uni045E" unicode="&#x45e;" horiz-adv-x="1236" 
d="M133 -410v293h166q49 0 73.5 15t39.5 57l14 39l-406 1063h377l221 -703l220 703h379l-459 -1192q-28 -74 -51.5 -118.5t-58.5 -83.5t-81 -56t-110 -17h-324zM616 1147q-168 0 -261 90t-99 242h258q0 -53 26.5 -84t75.5 -31t76 31t27 84h258q-6 -152 -99.5 -242
t-261.5 -90z" />
    <glyph glyph-name="uni045F" unicode="&#x45f;" horiz-adv-x="1263" 
d="M463 -272v272h-326v1057h355v-764h280v764h354v-1057h-325v-272h-338z" />
    <glyph glyph-name="uni0462" unicode="&#x462;" horiz-adv-x="1415" 
d="M223 0v1051h-162v292h162v91h377v-91h256v-292h-256v-80h199q243 0 389.5 -133t146.5 -353t-146.5 -352.5t-389.5 -132.5h-576zM600 307h174q86 0 132 46.5t46 131.5t-46.5 132t-131.5 47h-174v-357z" />
    <glyph glyph-name="uni0463" unicode="&#x463;" horiz-adv-x="1085" 
d="M137 0v819h-141v238h141v377h336v-377h217v-238h-217v-69h141q185 0 294.5 -101.5t109.5 -273.5t-109.5 -273.5t-294.5 -101.5h-477zM473 244h88q58 0 89.5 34t31.5 97t-31.5 97t-89.5 34h-88v-262z" />
    <glyph glyph-name="uni0472" unicode="&#x472;" horiz-adv-x="1421" 
d="M711 -12q-284 0 -458.5 199.5t-174.5 529.5t174.5 529.5t458.5 199.5q285 0 458.5 -199t173.5 -530t-173.5 -530t-458.5 -199zM711 283q103 0 163 65t82 199q-38 -10 -73 -10q-63 0 -182.5 33.5t-159.5 33.5t-82 -10q29 -311 252 -311zM883 834q38 0 80 10
q-17 156 -78.5 231.5t-173.5 75.5q-203 0 -246 -260q42 10 76 10q77 0 184.5 -33.5t157.5 -33.5z" />
    <glyph glyph-name="uni0473" unicode="&#x473;" horiz-adv-x="1263" 
d="M631 -12q-252 0 -402.5 147t-150.5 393t150.5 393.5t402.5 147.5t403.5 -147.5t151.5 -393.5t-151.5 -393t-403.5 -147zM631 258q72 0 122 41t72 115q-43 -15 -73 -15q-40 0 -124 25t-116 25q-45 0 -82 -11q19 -84 71 -132t130 -48zM752 608q49 0 82 10q-19 85 -72 133
t-131 48q-72 0 -121.5 -41t-71.5 -115q40 14 74 14q38 0 122.5 -24.5t117.5 -24.5z" />
    <glyph glyph-name="uni0474" unicode="&#x474;" horiz-adv-x="1402" 
d="M451 0l-439 1434h396l266 -990l164 584q35 125 72.5 201.5t93.5 123.5t126 64t177 17h96v-320h-49q-53 0 -82.5 -18.5t-55 -70.5t-59.5 -165l-260 -860h-446z" />
    <glyph glyph-name="uni0475" unicode="&#x475;" horiz-adv-x="1277" 
d="M395 0l-375 1057h379l222 -709l81 266q54 177 111 270.5t137 133t209 39.5h58v-293h-37q-56 0 -97 -55.5t-82 -186.5l-165 -522h-441z" />
    <glyph glyph-name="uni0490" unicode="&#x490;" horiz-adv-x="1290" 
d="M102 0v307h205v819h-205v308h811v288h316v-596h-565v-819h256v-307h-818z" />
    <glyph glyph-name="uni0491" unicode="&#x491;" horiz-adv-x="1193" 
d="M82 0v293h203v471h-203v293h772v286h307v-579h-522v-471h215v-293h-772z" />
    <glyph glyph-name="uni0492" unicode="&#x492;" horiz-adv-x="1361" 
d="M102 0v307h205v273h-153v272h153v274h-205v308h1158v-594h-308v286h-288v-274h208v-272h-208v-273h256v-307h-818z" />
    <glyph glyph-name="uni0493" unicode="&#x493;" horiz-adv-x="1273" 
d="M82 0v293h203v119h-168v233h168v119h-203v293h1110v-545h-279v252h-280v-119h201v-233h-201v-119h221v-293h-772z" />
    <glyph glyph-name="uni0496" unicode="&#x496;" horiz-adv-x="1912" 
d="M25 0l317 752l-291 682h365l205 -557h102v557h336v-557h100l227 557h345l-291 -682l182 -433h199v-612h-336v293h-96l-226 573h-104v-573h-336v573h-107l-223 -573h-368z" />
    <glyph glyph-name="uni0497" unicode="&#x497;" horiz-adv-x="1644" 
d="M20 0l242 559l-213 498h334l156 -387h82v387h335v-387h82l156 387h334l-213 -498l115 -266h182v-565h-336v272h-78l-160 393h-82v-393h-335v393h-82l-160 -393h-359z" />
    <glyph glyph-name="uni049A" unicode="&#x49a;" horiz-adv-x="1464" 
d="M137 0v1434h377v-557h133l291 557h401l-376 -682l229 -433h180v-612h-336v293h-98l-285 573h-139v-573h-377z" />
    <glyph glyph-name="uni049B" unicode="&#x49b;" horiz-adv-x="1284" 
d="M137 0v1057h355v-379h133l225 379h371l-293 -496l151 -268h172v-565h-336v272h-75l-213 385h-135v-385h-355z" />
    <glyph glyph-name="uni04A2" unicode="&#x4a2;" horiz-adv-x="1521" 
d="M137 0v1434h377v-551h406v551h376v-1115h142v-612h-336v293h-182v563h-406v-563h-377z" />
    <glyph glyph-name="uni04A3" unicode="&#x4a3;" horiz-adv-x="1355" 
d="M137 0v1057h355v-379h329v379h355v-764h147v-565h-336v272h-166v385h-329v-385h-355z" />
    <glyph glyph-name="uni04AE" unicode="&#x4ae;" horiz-adv-x="1347" 
d="M485 0v551l-473 883h424l238 -490l256 490h405l-473 -887v-547h-377z" />
    <glyph glyph-name="uni04AF" unicode="&#x4af;" horiz-adv-x="1269" 
d="M459 -410v410l-439 1057h388l233 -635l231 635h377l-436 -1057v-410h-354z" />
    <glyph glyph-name="uni04B0" unicode="&#x4b0;" horiz-adv-x="1347" 
d="M229 303v246h256v2l-473 883h424l238 -490l256 490h405l-471 -885h254v-246h-256v-303h-377v303h-256z" />
    <glyph glyph-name="uni04B1" unicode="&#x4b1;" horiz-adv-x="1269" 
d="M459 -410v168h-238v242h238l-439 1057h388l233 -635l231 635h377l-436 -1057h238v-242h-238v-168h-354z" />
    <glyph glyph-name="uni04B2" unicode="&#x4b2;" horiz-adv-x="1464" 
d="M35 0l385 731l-367 703h424l213 -441l225 441h398l-367 -703l215 -412h211v-612h-336v293h-135l-227 471l-242 -471h-397z" />
    <glyph glyph-name="uni04B3" unicode="&#x4b3;" horiz-adv-x="1249" 
d="M20 0l388 537l-373 520h399l187 -271l192 271h375l-369 -520l174 -244h224v-565h-336v272h-76l-205 283l-205 -283h-375z" />
    <glyph glyph-name="uni04B6" unicode="&#x4b6;" horiz-adv-x="1427" 
d="M825 0v506q-100 -35 -235 -35q-256 0 -387 123t-131 356v484h377v-437q0 -219 215 -219q88 0 161 31v625h377v-1115h141v-612h-335v293h-183z" />
    <glyph glyph-name="uni04B7" unicode="&#x4b7;" horiz-adv-x="1261" 
d="M727 0v328q-92 -25 -186 -25q-223 0 -329 101t-106 333v320h355v-297q0 -91 36.5 -130.5t116.5 -39.5q64 0 113 16v451h354v-764h148v-565h-336v272h-166z" />
    <glyph glyph-name="uni04BA" unicode="&#x4ba;" horiz-adv-x="1339" 
d="M514 1434v-506q100 35 236 35q256 0 387 -123t131 -357v-483h-377v436q0 219 -215 219q-92 0 -162 -30v-625h-377v1434h377z" />
    <glyph glyph-name="uni04BB" unicode="&#x4bb;" horiz-adv-x="1312" 
d="M137 0v1434h355v-484q109 119 282 119q88 0 160 -25.5t131 -79.5t92 -150.5t33 -227.5v-586h-354v551q0 221 -164 221q-86 0 -133 -58t-47 -163v-551h-355z" />
    <glyph glyph-name="uni04C0" unicode="&#x4c0;" horiz-adv-x="1146" 
d="M102 0v307h283v819h-283v308h942v-308h-282v-819h282v-307h-942z" />
    <glyph glyph-name="uni04CF" unicode="&#x4cf;" horiz-adv-x="1026" 
d="M72 0v293h276v848h-276v293h630v-1141h256v-293h-886z" />
    <glyph glyph-name="uni04D8" unicode="&#x4d8;" horiz-adv-x="1384" 
d="M672 -12q-301 0 -456.5 217t-135.5 608h846q-21 326 -258 326q-94 0 -151.5 -56t-74.5 -163h-362q19 236 179.5 381t404.5 145q306 0 474.5 -191t168.5 -538q0 -341 -169.5 -535t-465.5 -194zM684 295q100 0 154 56t71 177h-454q12 -120 67.5 -176.5t161.5 -56.5z" />
    <glyph glyph-name="uni04D9" unicode="&#x4d9;" horiz-adv-x="1245" 
d="M598 1069q269 0 419 -144t150 -393q0 -250 -150 -397t-401 -147q-239 0 -388.5 140.5t-149.5 369.5q0 63 10 114h711v15q-4 90 -55.5 138t-135.5 48q-143 0 -170 -117h-348q21 159 157 266t351 107zM795 395h-367q15 -75 63.5 -115t122.5 -40q76 0 123 40.5t58 114.5z
" />
    <glyph glyph-name="uni04E2" unicode="&#x4e2;" horiz-adv-x="1462" 
d="M137 0v1434h365v-793l506 793h317v-1434h-364v793l-506 -793h-318zM393 1589v246h676v-246h-676z" />
    <glyph glyph-name="uni04E3" unicode="&#x4e3;" horiz-adv-x="1312" 
d="M137 0v1057h342v-553l389 553h308v-1057h-342v553l-390 -553h-307zM319 1212v246h676v-246h-676z" />
    <glyph glyph-name="uni04E8" unicode="&#x4e8;" horiz-adv-x="1421" 
d="M711 -12q-284 0 -458.5 199.5t-174.5 529.5t174.5 529.5t458.5 199.5q285 0 458.5 -199t173.5 -530t-173.5 -530t-458.5 -199zM711 283q108 0 169.5 70t80.5 216h-500q20 -146 82 -216t168 -70zM461 862h500q-37 289 -250 289t-250 -289z" />
    <glyph glyph-name="uni04E9" unicode="&#x4e9;" horiz-adv-x="1263" 
d="M631 -12q-252 0 -402.5 147t-150.5 393t150.5 393.5t402.5 147.5t403.5 -147.5t151.5 -393.5t-151.5 -393t-403.5 -147zM631 258q75 0 126 44.5t72 123.5h-395q21 -78 71.5 -123t125.5 -45zM434 631h395q-21 79 -72 123.5t-126 44.5t-125.5 -45t-71.5 -123z" />
    <glyph glyph-name="uni04EE" unicode="&#x4ee;" horiz-adv-x="1331" 
d="M207 0v319h133q68 0 102 18.5t58 74.5l22 51l-510 971h412l278 -576l226 576h391l-479 -1119q-72 -166 -169.5 -240.5t-230.5 -74.5h-233zM328 1589v246h676v-246h-676z" />
    <glyph glyph-name="uni04EF" unicode="&#x4ef;" horiz-adv-x="1236" 
d="M133 -410v293h166q49 0 73.5 15t39.5 57l14 39l-406 1063h377l221 -703l220 703h379l-459 -1192q-28 -74 -51.5 -118.5t-58.5 -83.5t-81 -56t-110 -17h-324zM276 1212v246h676v-246h-676z" />
    </font>
</defs>
</svg>
