<?xml version="1.0" standalone="no"?>
<!DOCTYPE svg PUBLIC "-//W3C//DTD SVG 1.1//EN" "http://www.w3.org/Graphics/SVG/1.1/DTD/svg11.dtd" >
<svg xmlns="http://www.w3.org/2000/svg" xmlns:xlink="http://www.w3.org/1999/xlink" version="1.1">
<metadata>
Created by FontForge 20201107 at Fri Nov 14 04:01:48 2025
 By 
Copyright 2025 CoType Foundry. All Rights Reserved.
</metadata>
<defs>
<font id="AeonikExtendedProTRIAL-ThinItalic" horiz-adv-x="1118" >
  <font-face 
    font-family="Aeonik Extended Pro TRIAL Thin"
    font-weight="200"
    font-style="italic"
    font-stretch="expanded"
    units-per-em="2048"
    panose-1="2 11 3 3 3 3 0 0 0 0"
    ascent="1638"
    descent="-410"
    x-height="1034"
    cap-height="1434"
    bbox="-360 -422 2392 1835"
    underline-thickness="36"
    underline-position="-192"
    slope="-10"
    unicode-range="U+0020-04EF"
  />
<missing-glyph horiz-adv-x="1230" 
d="M123 -223v1698h1024v-1698h-1024zM322 -18h94v112h57q62 0 99.5 34t37.5 91q0 58 -37.5 92.5t-99.5 34.5h-151v-364zM416 172v96h49q22 0 35.5 -13t13.5 -36q0 -22 -13.5 -34.5t-35.5 -12.5h-49zM692 -18h256v81h-160v64h123v76h-123v61h154v82h-250v-364zM391 455h96
v282h103v82h-299v-82h100v-282zM758 455h96v135l131 229h-106l-72 -133l-68 133h-112l131 -229v-135zM444 926q66 0 106.5 38t45.5 99h-94q-13 -59 -62 -59q-71 0 -71 106q0 107 71 107q48 0 62 -62h94q-5 63 -45.5 101t-106.5 38q-84 0 -129 -49t-45 -135t45 -135t129 -49z
M807 926q81 0 129.5 51.5t48.5 132.5q0 80 -49 132t-129 52q-81 0 -129.5 -52t-48.5 -132q0 -81 48 -132.5t130 -51.5zM807 1004q-39 0 -59.5 29.5t-20.5 76.5q0 48 21 77.5t59 29.5t59 -29.5t21 -77.5q0 -47 -20.5 -76.5t-59.5 -29.5z" />
    <glyph glyph-name=".notdef" horiz-adv-x="1230" 
d="M123 -223v1698h1024v-1698h-1024zM322 -18h94v112h57q62 0 99.5 34t37.5 91q0 58 -37.5 92.5t-99.5 34.5h-151v-364zM416 172v96h49q22 0 35.5 -13t13.5 -36q0 -22 -13.5 -34.5t-35.5 -12.5h-49zM692 -18h256v81h-160v64h123v76h-123v61h154v82h-250v-364zM391 455h96
v282h103v82h-299v-82h100v-282zM758 455h96v135l131 229h-106l-72 -133l-68 133h-112l131 -229v-135zM444 926q66 0 106.5 38t45.5 99h-94q-13 -59 -62 -59q-71 0 -71 106q0 107 71 107q48 0 62 -62h94q-5 63 -45.5 101t-106.5 38q-84 0 -129 -49t-45 -135t45 -135t129 -49z
M807 926q81 0 129.5 51.5t48.5 132.5q0 80 -49 132t-129 52q-81 0 -129.5 -52t-48.5 -132q0 -81 48 -132.5t130 -51.5zM807 1004q-39 0 -59.5 29.5t-20.5 76.5q0 48 21 77.5t59 29.5t59 -29.5t21 -77.5q0 -47 -20.5 -76.5t-59.5 -29.5z" />
    <glyph glyph-name=".null" horiz-adv-x="0" 
 />
    <glyph glyph-name="nonmarkingreturn" horiz-adv-x="682" 
 />
    <glyph glyph-name="space" unicode=" " horiz-adv-x="575" 
 />
    <glyph glyph-name="comma" unicode="," horiz-adv-x="339" 
d="M-72 -250l2 31q79 6 139 58t60 118q0 38 -31 66q-12 -31 -39 -31q-15 0 -25.5 10.5t-10.5 24.5q0 22 15 35.5t38 13.5q39 0 63.5 -30.5t24.5 -78.5q0 -86 -68.5 -148.5t-167.5 -68.5z" />
    <glyph glyph-name="hyphen" unicode="-" horiz-adv-x="1036" 
d="M139 559l8 43h768l-4 -43h-772z" />
    <glyph glyph-name="period" unicode="." horiz-adv-x="339" 
d="M78 -8q-37 0 -37 37q0 20 14.5 33.5t34.5 13.5q18 0 28.5 -10t10.5 -25q0 -20 -14.5 -34.5t-36.5 -14.5z" />
    <glyph glyph-name="zero" unicode="0" horiz-adv-x="1388" 
d="M594 -12q-224 0 -348.5 142t-124.5 382q0 78 14 164.5t44 177.5t73 176t105 161t135.5 132.5t169.5 89.5t202 33q223 0 347 -142t124 -382q0 -78 -14 -164.5t-43.5 -177.5t-72.5 -176t-105 -161t-135 -132.5t-169 -89.5t-202 -33zM596 31q102 0 193 32.5t160 88
t126.5 129.5t96.5 155.5t66 167.5t39.5 164t12.5 147q0 226 -113 357t-317 131q-102 0 -193 -33t-159.5 -88t-126 -129.5t-96.5 -156t-66 -167.5t-39 -164t-12 -147q0 -226 112 -356.5t316 -130.5z" />
    <glyph glyph-name="one" unicode="1" horiz-adv-x="622" 
d="M326 0l198 1126q-36 -41 -110 -41h-312l9 43h307q52 0 84.5 25.5t40.5 71.5l37 209h45l-254 -1434h-45z" />
    <glyph glyph-name="two" unicode="2" horiz-adv-x="1220" 
d="M-49 0l6 41l825 532q204 132 296.5 252t92.5 258q0 148 -115 234t-313 86q-467 0 -550 -428h-46q90 471 601 471q217 0 344 -97.5t127 -261.5q0 -157 -100 -285t-318 -267l-768 -492h1034l-10 -43h-1106z" />
    <glyph glyph-name="three" unicode="3" horiz-adv-x="1320" 
d="M608 -12q-93 0 -175.5 15t-152.5 47t-120 78.5t-78.5 113t-28.5 147.5v10h47v-10q0 -117 66.5 -199t180 -120.5t265.5 -38.5q245 0 391 103t146 276q0 144 -124.5 223.5t-348.5 79.5h-139l6 43h137q246 0 394.5 94.5t148.5 251.5q0 140 -122 220.5t-335 80.5
q-225 0 -362 -88t-166 -252h-48q31 183 181.5 283t396.5 100q230 0 366 -92.5t136 -247.5q0 -152 -120.5 -249t-332.5 -124q179 -17 279 -101.5t100 -219.5q0 -194 -160 -309t-428 -115z" />
    <glyph glyph-name="four" unicode="4" horiz-adv-x="1351" 
d="M881 0l71 399h-938l6 50l1098 985h62l-174 -992h311l-8 -43h-312l-71 -399h-45zM80 442h878l166 938z" />
    <glyph glyph-name="five" unicode="5" horiz-adv-x="1292" 
d="M598 -12q-241 0 -381 105.5t-141 291.5h47q1 -171 126 -262.5t351 -91.5q253 0 406 136t153 353q0 177 -126 277t-347 100q-174 0 -305 -71t-188 -193l-46 4l205 797h910l-9 -43h-866l-172 -666q72 101 195 158t282 57q236 0 375 -112t139 -306q0 -238 -166.5 -386
t-441.5 -148z" />
    <glyph glyph-name="six" unicode="6" horiz-adv-x="1335" 
d="M651 -12q-255 0 -391.5 122.5t-136.5 346.5q0 143 24 288q21 113 55.5 212t90.5 190.5t127.5 156.5t171.5 103.5t217 38.5q204 0 326.5 -92t144.5 -252h-45q-27 143 -135 222t-295 79q-94 0 -175.5 -26.5t-142 -72t-110.5 -109.5t-83.5 -134.5t-58.5 -152t-38.5 -156.5
t-20.5 -154q52 148 190.5 236t331.5 88q247 0 387 -111.5t140 -308.5q0 -230 -158.5 -372t-415.5 -142zM651 31q238 0 383.5 127.5t145.5 337.5q0 181 -128 282t-358 101q-231 0 -375.5 -126t-144.5 -325q0 -186 124.5 -291.5t352.5 -105.5z" />
    <glyph glyph-name="seven" unicode="7" horiz-adv-x="1187" 
d="M190 0l1070 1391h-1094l10 43h1149l-6 -37l-1073 -1397h-56z" />
    <glyph glyph-name="eight" unicode="8" horiz-adv-x="1341" 
d="M606 -12q-251 0 -397 93.5t-146 252.5q0 165 135.5 275t370.5 132q-153 26 -240 107.5t-87 200.5q0 181 152.5 289t410.5 108q227 0 361 -91t134 -241q0 -153 -118 -255t-314 -124q171 -28 264 -114.5t93 -214.5q0 -190 -167 -304t-452 -114zM606 31q266 0 420 101.5
t154 273.5q0 141 -132.5 225t-355.5 84q-263 0 -422 -103.5t-159 -275.5q0 -140 133 -222.5t362 -82.5zM741 760q232 0 372 96t140 256q0 134 -120.5 212.5t-331.5 78.5q-234 0 -373 -96t-139 -258q0 -134 121.5 -211.5t330.5 -77.5z" />
    <glyph glyph-name="nine" unicode="9" horiz-adv-x="1335" 
d="M756 1446q255 0 391.5 -122.5t136.5 -346.5q0 -142 -27 -289q-25 -143 -74 -263.5t-127 -221t-195 -158t-263 -57.5q-203 0 -326 92t-147 252h47q27 -143 135 -222t295 -79q130 0 235.5 51.5t172.5 131.5t115.5 190.5t71.5 214t34 217.5q-53 -149 -191.5 -236.5
t-332.5 -87.5q-246 0 -385.5 111.5t-139.5 308.5q0 230 158.5 372t415.5 142zM754 1403q-237 0 -382 -127.5t-145 -337.5q0 -181 128 -282t358 -101t375 126.5t145 324.5q0 186 -124.5 291.5t-354.5 105.5z" />
    <glyph glyph-name="A" unicode="A" horiz-adv-x="1480" 
d="M-53 0l932 1434h53l420 -1434h-49l-142 487h-842l-319 -487h-53zM346 532h801l-248 850z" />
    <glyph glyph-name="B" unicode="B" horiz-adv-x="1394" 
d="M57 0l254 1434h568q203 0 317.5 -87t114.5 -243q0 -151 -96.5 -249.5t-266.5 -121.5q157 -23 240.5 -103.5t83.5 -207.5q0 -193 -145.5 -307.5t-391.5 -114.5h-678zM113 43h628q224 0 354 102t130 277q0 138 -111 214.5t-311 76.5h-572zM238 756h577q211 0 330 91.5
t119 254.5q0 139 -101 214t-289 75h-522z" />
    <glyph glyph-name="C" unicode="C" horiz-adv-x="1634" 
d="M827 -12q-317 0 -503.5 178t-186.5 473q0 168 63 317t171.5 256.5t262.5 170.5t329 63q264 0 434 -112.5t205 -313.5h-48q-33 183 -189 282t-402 99q-221 0 -399.5 -100.5t-279 -274.5t-100.5 -387q0 -277 173.5 -441.5t471.5 -164.5q230 0 396.5 97.5t247.5 285.5h47
q-86 -209 -265.5 -318.5t-427.5 -109.5z" />
    <glyph glyph-name="D" unicode="D" horiz-adv-x="1583" 
d="M57 0l254 1434h463q346 0 544 -165t198 -454q0 -381 -224 -598t-614 -217h-621zM113 45h569q366 0 576 205.5t210 564.5q0 269 -185.5 421.5t-512.5 152.5h-420z" />
    <glyph glyph-name="E" unicode="E" horiz-adv-x="1247" 
d="M57 0l252 1434h1006l-10 -45h-955l-112 -631h809l-11 -45h-805l-118 -668h989l-8 -45h-1037z" />
    <glyph glyph-name="F" unicode="F" horiz-adv-x="1161" 
d="M57 0l254 1434h959l-8 -45h-912l-114 -652h761l-8 -45h-762l-123 -692h-47z" />
    <glyph glyph-name="G" unicode="G" horiz-adv-x="1708" 
d="M842 -12q-321 0 -514 173.5t-193 463.5q0 174 62 326.5t170.5 261t262 171t328.5 62.5q287 0 458 -110t208 -316h-45q-37 186 -197 283.5t-426 97.5q-220 0 -396.5 -100.5t-276 -278t-99.5 -397.5q0 -271 179 -431.5t479 -160.5q278 0 464.5 152t233.5 417l12 76h-610
l8 43h656l-127 -721h-41l67 401q-79 -195 -251 -304t-412 -109z" />
    <glyph glyph-name="H" unicode="H" horiz-adv-x="1482" 
d="M57 0l254 1434h47l-120 -680h1091l121 680h47l-254 -1434h-47l125 711h-1090l-127 -711h-47z" />
    <glyph glyph-name="I" unicode="I" horiz-adv-x="346" 
d="M57 0l254 1434h47l-254 -1434h-47z" />
    <glyph glyph-name="J" unicode="J" horiz-adv-x="733" 
d="M-49 0l8 45h274q114 0 179 59t88 185l200 1145h48l-203 -1151q-49 -283 -312 -283h-282z" />
    <glyph glyph-name="K" unicode="K" horiz-adv-x="1378" 
d="M57 0l254 1434h47l-174 -985l1205 985h69l-731 -598l535 -836h-58l-514 807l-518 -424l-68 -383h-47z" />
    <glyph glyph-name="L" unicode="L" horiz-adv-x="1105" 
d="M57 0l254 1434h47l-245 -1389h868l-8 -45h-916z" />
    <glyph glyph-name="M" unicode="M" horiz-adv-x="1882" 
d="M57 0l254 1434h58l491 -1377l973 1377h63l-254 -1434h-47l240 1358l-961 -1358h-43l-485 1358l-242 -1358h-47z" />
    <glyph glyph-name="N" unicode="N" horiz-adv-x="1511" 
d="M57 0l254 1434h47l879 -1364l242 1364h47l-254 -1434h-47l-879 1364l-242 -1364h-47z" />
    <glyph glyph-name="O" unicode="O" horiz-adv-x="1769" 
d="M838 -12q-207 0 -366.5 81t-247 229.5t-87.5 340.5q0 226 113.5 411t312 290.5t441.5 105.5q207 0 366 -81t246.5 -229.5t87.5 -340.5q0 -169 -66.5 -319t-181.5 -257t-275.5 -169t-342.5 -62zM840 33q171 0 322.5 58.5t260 159t171.5 242t63 300.5q0 275 -180.5 441.5
t-475.5 166.5q-228 0 -415.5 -99.5t-294.5 -274t-107 -388.5q0 -273 180.5 -439.5t475.5 -166.5z" />
    <glyph glyph-name="P" unicode="P" horiz-adv-x="1337" 
d="M57 0l254 1434h641q186 0 301 -101t115 -264q0 -194 -137.5 -310t-374.5 -116h-639l-113 -643h-47zM227 686h631q215 0 339 104.5t124 278.5q0 144 -103.5 232t-269.5 88h-598z" />
    <glyph glyph-name="Q" unicode="Q" horiz-adv-x="1769" 
d="M1561 0q-67 0 -108.5 11t-64 28t-59.5 55l-16 19q-211 -125 -475 -125q-207 0 -366.5 81t-247 229.5t-87.5 340.5q0 226 113.5 411t312 290.5t441.5 105.5q207 0 366 -81t246.5 -229.5t87.5 -340.5q0 -204 -94 -376.5t-258 -281.5l8 -10q45 -49 83 -65.5t126 -16.5h78
l-9 -45h-77zM840 33q247 0 440 114l-150 160q-45 47 -80.5 64.5t-101.5 17.5h-117l9 45h118q54 0 90 -12t57 -28.5t58 -55.5l156 -168q158 103 248 266t90 357q0 275 -180.5 441.5t-475.5 166.5q-228 0 -415.5 -99.5t-294.5 -274t-107 -388.5q0 -273 180.5 -439.5
t475.5 -166.5z" />
    <glyph glyph-name="R" unicode="R" horiz-adv-x="1366" 
d="M57 0l254 1434h625q197 0 314.5 -101t117.5 -266q0 -191 -134.5 -304t-383.5 -120l315 -643h-53l-313 643h-582l-113 -643h-47zM227 686h600q236 0 365 102t129 279q0 147 -105.5 234.5t-283.5 87.5h-582z" />
    <glyph glyph-name="S" unicode="S" horiz-adv-x="1404" 
d="M715 -12q-289 0 -457 113.5t-172 312.5h47q3 -178 159 -280.5t425 -102.5q232 0 367 91.5t135 248.5q0 123 -107.5 195.5t-382.5 133.5q-282 63 -394 141t-112 212q0 178 154 285.5t409 107.5q258 0 408.5 -99t165.5 -280h-47q-19 161 -156.5 248.5t-372.5 87.5
q-236 0 -375 -94t-139 -254q0 -117 101 -183.5t370 -126.5q289 -66 407 -149t118 -221q0 -179 -148 -283t-403 -104z" />
    <glyph glyph-name="T" unicode="T" horiz-adv-x="1378" 
d="M573 0l246 1389h-622l8 45h1294l-10 -45h-623l-245 -1389h-48z" />
    <glyph glyph-name="U" unicode="U" horiz-adv-x="1472" 
d="M684 -12q-272 0 -411.5 117.5t-139.5 332.5q0 55 14 137l152 859h47l-151 -863q-15 -84 -15 -133q0 -197 129 -301t375 -104q276 0 420 132t192 408l154 861h47l-154 -861q-53 -300 -209 -442.5t-450 -142.5z" />
    <glyph glyph-name="V" unicode="V" horiz-adv-x="1431" 
d="M598 0l-410 1434h50l395 -1381l878 1381h54l-912 -1434h-55z" />
    <glyph glyph-name="W" unicode="W" horiz-adv-x="2279" 
d="M496 0l-287 1434h49l272 -1373l744 1373h49l256 -1373l762 1373h51l-797 -1434h-53l-254 1364l-741 -1364h-51z" />
    <glyph glyph-name="X" unicode="X" horiz-adv-x="1398" 
d="M-43 0l756 737l-463 697h55l443 -664l669 664h62l-707 -701l488 -733h-58l-465 698l-719 -698h-61z" />
    <glyph glyph-name="Y" unicode="Y" horiz-adv-x="1433" 
d="M602 0l94 526l-508 908h54l483 -861l784 861h60l-826 -908l-94 -526h-47z" />
    <glyph glyph-name="Z" unicode="Z" horiz-adv-x="1386" 
d="M-39 0l6 37l1440 1352h-1161l8 45h1231l-6 -37l-1442 -1352h1212l-8 -45h-1280z" />
    <glyph glyph-name="a" unicode="a" horiz-adv-x="1259" 
d="M438 -12q-190 0 -293.5 70.5t-103.5 199.5q0 158 127.5 235.5t388.5 77.5h475l10 62q11 61 11 100q0 273 -373 273q-374 0 -469 -242h-45q103 283 518 283q414 0 414 -310q0 -53 -11 -112l-75 -422q-6 -36 -6.5 -60t7.5 -49t34 -38t69 -13h41l-8 -43h-47q-51 0 -83.5 17
t-43.5 44.5t-13.5 63.5t5.5 74l8 45q-68 -122 -209 -189t-328 -67zM440 29q231 0 380.5 100t183.5 279l22 122h-475q-238 0 -351.5 -66.5t-113.5 -205.5q0 -110 92 -169.5t262 -59.5z" />
    <glyph glyph-name="b" unicode="b" horiz-adv-x="1363" 
d="M647 -12q-213 0 -341.5 96.5t-153.5 271.5l-68 -356h-41l254 1434h47l-127 -711q74 149 223 236.5t332 87.5q233 0 369.5 -123t136.5 -332q0 -168 -83 -306.5t-228 -218t-320 -79.5zM643 29q165 0 300 73.5t212.5 202.5t77.5 285q0 192 -126.5 304t-344.5 112
q-164 0 -299.5 -74.5t-212 -204t-76.5 -285.5q0 -193 125 -303t344 -110z" />
    <glyph glyph-name="c" unicode="c" horiz-adv-x="1255" 
d="M598 -12q-234 0 -373 123.5t-139 332.5q0 257 175 430t439 173q205 0 333 -85t157 -239h-45q-28 135 -144 209t-303 74q-120 0 -225.5 -43t-180.5 -117.5t-118 -178.5t-43 -221q0 -192 126 -304.5t343 -112.5q169 0 300 77t183 207h45q-54 -150 -197 -237.5t-333 -87.5z
" />
    <glyph glyph-name="d" unicode="d" horiz-adv-x="1363" 
d="M592 -12q-233 0 -369.5 122.5t-136.5 333.5q0 167 83 305.5t228 218t320 79.5q213 0 341.5 -96.5t153.5 -272.5l134 756h45l-254 -1434h-41l51 311q-73 -149 -223 -236t-332 -87zM602 29q164 0 299 74t212 203.5t77 285.5q0 193 -125.5 303.5t-343.5 110.5
q-165 0 -300 -73.5t-212.5 -202.5t-77.5 -286q0 -192 126.5 -303.5t344.5 -111.5z" />
    <glyph glyph-name="e" unicode="e" horiz-adv-x="1288" 
d="M582 -12q-223 0 -359.5 124t-136.5 332q0 169 82 307t226 217t319 79q229 0 362 -116t133 -317q0 -23 -4 -69h-1063q-10 -55 -10 -99q0 -191 124 -304t329 -113q186 0 323 80t209 231h45q-72 -168 -223.5 -260t-355.5 -92zM147 584h1014v34q0 184 -120.5 286t-329.5 102
q-208 0 -363 -117.5t-201 -304.5z" />
    <glyph glyph-name="f" unicode="f" horiz-adv-x="704" 
d="M162 0l176 991h-244l6 43h244l33 183q20 117 83.5 167t194.5 50h201l-8 -43h-193q-111 0 -164.5 -41t-68.5 -136l-31 -180h393l-6 -43h-395l-176 -991h-45z" />
    <glyph glyph-name="g" unicode="g" horiz-adv-x="1363" 
d="M551 -422q-492 0 -522 326h45q14 -141 134 -213t343 -72q477 0 551 438l45 252q-73 -149 -220 -235t-327 -86q-240 0 -377 121.5t-137 334.5q0 168 82 306t225.5 217.5t317.5 79.5q218 0 347 -95t154 -274l66 356h41l-172 -981q-82 -475 -596 -475zM610 29
q247 0 413.5 162t166.5 401q0 196 -125.5 305t-351.5 109q-123 0 -231 -43.5t-185 -118t-121.5 -178.5t-44.5 -222q0 -195 126.5 -305t352.5 -110z" />
    <glyph glyph-name="h" unicode="h" horiz-adv-x="1253" 
d="M43 0l254 1434h45l-121 -691q66 148 196.5 226t291.5 78q210 0 322 -101.5t112 -290.5q0 -42 -15 -141l-90 -514h-45l88 514q15 70 15 137q0 173 -98.5 263t-290.5 90q-129 0 -235 -48t-182 -151.5t-102 -251.5l-98 -553h-47z" />
    <glyph glyph-name="i" unicode="i" horiz-adv-x="315" 
d="M43 0l184 1034h45l-182 -1034h-47zM299 1294q-39 0 -39 37q0 19 13.5 31t33.5 12q17 0 27 -10t10 -25q0 -20 -13 -32.5t-32 -12.5z" />
    <glyph glyph-name="j" unicode="j" horiz-adv-x="325" 
d="M-360 -410l6 43h172q89 0 138.5 45.5t68.5 145.5l213 1210h45l-215 -1212q-20 -120 -81 -176t-171 -56h-176zM307 1294q-39 0 -39 37q0 19 13.5 31t33.5 12q17 0 27 -10t10 -25q0 -20 -13 -32.5t-32 -12.5z" />
    <glyph glyph-name="k" unicode="k" horiz-adv-x="1128" 
d="M43 0l254 1434h47l-192 -1084l938 684h67l-598 -436l457 -598h-53l-439 571l-383 -280l-51 -291h-47z" />
    <glyph glyph-name="l" unicode="l" horiz-adv-x="315" 
d="M43 0l254 1434h47l-254 -1434h-47z" />
    <glyph glyph-name="m" unicode="m" horiz-adv-x="2074" 
d="M43 0l184 1034h41l-43 -274q67 135 186 211t267 76q185 0 286.5 -93t108.5 -274q60 166 194 266.5t296 100.5q195 0 298 -100.5t103 -291.5q0 -63 -16 -141l-88 -514h-45l88 514q14 66 14 137q0 174 -90 263.5t-268 89.5q-185 0 -321.5 -134.5t-174.5 -355.5l-88 -514
h-45l88 514q14 66 14 131q0 359 -358 359q-189 0 -319 -120.5t-167 -330.5l-98 -553h-47z" />
    <glyph glyph-name="n" unicode="n" horiz-adv-x="1253" 
d="M43 0l184 1034h41l-43 -274q69 139 197.5 213t286.5 74q210 0 322 -101.5t112 -290.5q0 -42 -15 -141l-90 -514h-45l88 514q15 70 15 137q0 173 -98.5 263t-290.5 90q-129 0 -235 -48t-182 -151.5t-102 -251.5l-98 -553h-47z" />
    <glyph glyph-name="o" unicode="o" horiz-adv-x="1323" 
d="M604 -12q-238 0 -378 124.5t-140 331.5q0 168 82.5 306t228 217.5t322.5 79.5q238 0 378 -124t140 -331q0 -167 -82.5 -305.5t-228 -218.5t-322.5 -80zM606 29q124 0 233 44t186.5 119.5t122 179t44.5 218.5q0 192 -127 304t-348 112q-166 0 -300.5 -74.5t-210 -202.5
t-75.5 -283q0 -192 127 -304.5t348 -112.5z" />
    <glyph glyph-name="p" unicode="p" horiz-adv-x="1361" 
d="M-29 -410l254 1444h41l-51 -311q73 149 223 236.5t332 87.5q234 0 370 -122.5t136 -332.5q0 -168 -83 -306.5t-228 -218t-320 -79.5q-213 0 -341.5 96.5t-153.5 273.5l-134 -768h-45zM643 29q123 0 232 43.5t187 118t123.5 178.5t45.5 221q0 192 -126.5 304t-344.5 112
q-164 0 -299.5 -74.5t-212 -204t-76.5 -285.5q0 -193 125.5 -303t345.5 -110z" />
    <glyph glyph-name="q" unicode="q" horiz-adv-x="1363" 
d="M1020 -410l127 721q-75 -150 -223.5 -236.5t-331.5 -86.5q-233 0 -369.5 122.5t-136.5 333.5q0 167 83 305.5t228 218t320 79.5q213 0 341.5 -96.5t153.5 -272.5l66 356h41l-254 -1444h-45zM602 29q164 0 299 74t212 203.5t77 285.5q0 193 -125.5 303.5t-343.5 110.5
q-165 0 -300 -73.5t-212.5 -202.5t-77.5 -286q0 -192 126.5 -303.5t344.5 -111.5z" />
    <glyph glyph-name="r" unicode="r" horiz-adv-x="679" 
d="M43 0l184 1034h41l-39 -250q56 127 144.5 188.5t218.5 61.5h147l-8 -45h-149q-166 0 -261.5 -112.5t-138.5 -356.5l-92 -520h-47z" />
    <glyph glyph-name="s" unicode="s" 
d="M514 -12q-205 0 -337 82.5t-136 226.5h45q6 -128 126.5 -198t301.5 -70q193 0 313.5 64.5t120.5 182.5q0 95 -86.5 145.5t-300.5 84.5q-231 39 -325.5 96.5t-94.5 165.5q0 130 126 204.5t345 74.5q198 0 320.5 -73.5t126.5 -207.5h-45q-4 115 -115 177.5t-287 62.5
q-197 0 -311.5 -63t-114.5 -173q0 -92 84 -138.5t299 -82.5q234 -40 329 -98.5t95 -169.5q0 -137 -133.5 -215t-345.5 -78z" />
    <glyph glyph-name="t" unicode="t" horiz-adv-x="702" 
d="M418 0q-107 0 -161 49.5t-54 143.5q0 27 8 81l127 717h-244l6 43h244l53 289h45l-51 -289h350l-6 -43h-352l-127 -721q-6 -38 -6 -71q0 -156 176 -156h141l-8 -43h-141z" />
    <glyph glyph-name="u" unicode="u" horiz-adv-x="1239" 
d="M537 -12q-206 0 -316 101.5t-110 291.5q0 68 14 139l90 514h45l-90 -514q-14 -82 -14 -137q0 -173 97.5 -262.5t285.5 -89.5q125 0 229.5 48t180.5 151t102 251l98 553h45l-182 -1034h-41l43 281q-66 -141 -194.5 -217t-282.5 -76z" />
    <glyph glyph-name="v" unicode="v" 
d="M442 0l-323 1034l47 -2l309 -983l653 985h54l-686 -1034h-54z" />
    <glyph glyph-name="w" unicode="w" horiz-adv-x="1882" 
d="M381 0l-262 1034h47l246 -979l600 979h43l252 -979l587 979h50l-623 -1034h-45l-252 973l-598 -973h-45z" />
    <glyph glyph-name="x" unicode="x" horiz-adv-x="1075" 
d="M-70 0l586 530l-381 504h53l361 -477l528 477h60l-566 -510l396 -524h-56l-372 496l-549 -496h-60z" />
    <glyph glyph-name="y" unicode="y" 
d="M-94 -410l6 43h166q79 0 128 32t111 126l134 203l-332 1040h47l315 -989l647 989h52l-824 -1259q-70 -109 -128 -147t-150 -38h-172z" />
    <glyph glyph-name="z" unicode="z" horiz-adv-x="1081" 
d="M-45 0l8 43l1055 948h-862l6 43h925l-6 -43l-1056 -948h927l-8 -43h-989z" />
    <glyph glyph-name="uni00A0" unicode="&#xa0;" horiz-adv-x="575" 
 />
    <glyph glyph-name="Alphatonos" unicode="&#x386;" horiz-adv-x="1480" 
d="M-53 0l932 1434h53l420 -1434h-49l-142 487h-842l-319 -487h-53zM346 532h801l-248 850zM344 1141l158 293h49l-170 -293h-37z" />
    <glyph glyph-name="Epsilontonos" unicode="&#x388;" horiz-adv-x="1339" 
d="M152 0l251 1434h1004l-8 -45h-957l-110 -631h807l-9 -45h-806l-117 -668h989l-8 -45h-1036zM51 1141l158 293h51l-172 -293h-37z" />
    <glyph glyph-name="Etatonos" unicode="&#x389;" horiz-adv-x="1576" 
d="M152 0l254 1434h47l-121 -680h1091l119 680h47l-254 -1434h-47l127 711h-1091l-125 -711h-47zM53 1141l158 293h49l-170 -293h-37z" />
    <glyph glyph-name="Iotatonos" unicode="&#x38a;" horiz-adv-x="438" 
d="M152 0l254 1434h47l-254 -1434h-47zM53 1141l158 293h49l-170 -293h-37z" />
    <glyph glyph-name="Omicrontonos" unicode="&#x38c;" horiz-adv-x="1773" 
d="M842 -12q-207 0 -366.5 81t-247 229.5t-87.5 340.5q0 226 113.5 411t312 290.5t441.5 105.5q312 0 506 -180t194 -471q0 -169 -66.5 -319t-181.5 -257t-275.5 -169t-342.5 -62zM844 33q171 0 322.5 58.5t260 159t171.5 242t63 300.5q0 275 -180 441.5t-475 166.5
q-228 0 -415.5 -99.5t-295 -274t-107.5 -388.5q0 -273 180.5 -439.5t475.5 -166.5zM78 1141l160 293h49l-172 -293h-37z" />
    <glyph glyph-name="Upsilontonos" unicode="&#x38e;" horiz-adv-x="1515" 
d="M682 0l94 526l-506 908h54l481 -861l786 861h58l-826 -908l-94 -526h-47zM8 1141l158 293h51l-172 -293h-37z" />
    <glyph glyph-name="Omegatonos" unicode="&#x38f;" horiz-adv-x="1730" 
d="M12 0l8 45h523l20 109q-205 77 -314.5 221.5t-109.5 341.5q0 212 107.5 378.5t299 258.5t433.5 92q332 0 523.5 -157.5t191.5 -426.5q0 -272 -163.5 -456.5t-465.5 -253.5l-18 -107h522l-8 -45h-564l31 178q299 67 459 243t160 437q0 253 -178 399t-490 146
q-172 0 -319 -50.5t-251.5 -140t-163.5 -217.5t-59 -278q0 -191 108.5 -329t313.5 -210l-30 -178h-566zM53 1141l160 293h49l-172 -293h-37z" />
    <glyph glyph-name="iotadieresistonos" unicode="&#x390;" horiz-adv-x="493" 
d="M252 0q-182 0 -182 154q0 32 6 69l143 811h45l-143 -811q-6 -35 -6 -59q0 -121 147 -121h127l-8 -43h-129zM242 1171l86 293h45l-94 -293h-37zM102 1294q-17 0 -26.5 9.5t-9.5 23.5q0 19 13.5 31t33.5 12q14 0 24 -10t10 -23q0 -20 -13 -31.5t-32 -11.5zM494 1294
q-17 0 -27 9.5t-10 23.5q0 19 13.5 31t33.5 12q14 0 24.5 -10t10.5 -23q0 -20 -13 -31.5t-32 -11.5z" />
    <glyph glyph-name="Alpha" unicode="&#x391;" horiz-adv-x="1480" 
d="M-53 0l932 1434h53l420 -1434h-49l-142 487h-842l-319 -487h-53zM346 532h801l-248 850z" />
    <glyph glyph-name="Beta" unicode="&#x392;" horiz-adv-x="1394" 
d="M57 0l254 1434h568q203 0 317.5 -87t114.5 -243q0 -151 -96.5 -249.5t-266.5 -121.5q157 -23 240.5 -103.5t83.5 -207.5q0 -193 -145.5 -307.5t-391.5 -114.5h-678zM113 43h628q224 0 354 102t130 277q0 138 -111 214.5t-311 76.5h-572zM238 756h577q211 0 330 91.5
t119 254.5q0 139 -101 214t-289 75h-522z" />
    <glyph glyph-name="Gamma" unicode="&#x393;" horiz-adv-x="1144" 
d="M57 0l254 1434h955l-11 -45h-903l-248 -1389h-47z" />
    <glyph glyph-name="uni0394" unicode="&#x394;" horiz-adv-x="1478" 
d="M-43 0l8 37l909 1397h54l418 -1397l-9 -37h-1380zM23 45h1273l-401 1339z" />
    <glyph glyph-name="Epsilon" unicode="&#x395;" horiz-adv-x="1247" 
d="M57 0l252 1434h1006l-10 -45h-955l-112 -631h809l-11 -45h-805l-118 -668h989l-8 -45h-1037z" />
    <glyph glyph-name="Zeta" unicode="&#x396;" horiz-adv-x="1386" 
d="M-39 0l6 37l1440 1352h-1161l8 45h1231l-6 -37l-1442 -1352h1212l-8 -45h-1280z" />
    <glyph glyph-name="Eta" unicode="&#x397;" horiz-adv-x="1482" 
d="M57 0l254 1434h47l-120 -680h1091l121 680h47l-254 -1434h-47l125 711h-1090l-127 -711h-47z" />
    <glyph glyph-name="Theta" unicode="&#x398;" horiz-adv-x="1769" 
d="M498 698l8 45h837l-8 -45h-837zM838 -12q-207 0 -366.5 81t-247 229.5t-87.5 340.5q0 226 113.5 411t312 290.5t441.5 105.5q207 0 366 -81t246.5 -229.5t87.5 -340.5q0 -169 -66.5 -319t-181.5 -257t-275.5 -169t-342.5 -62zM840 33q171 0 322.5 58.5t260 159t171.5 242
t63 300.5q0 275 -180.5 441.5t-475.5 166.5q-228 0 -415.5 -99.5t-294.5 -274t-107 -388.5q0 -273 180.5 -439.5t475.5 -166.5z" />
    <glyph glyph-name="Iota" unicode="&#x399;" horiz-adv-x="346" 
d="M57 0l254 1434h47l-254 -1434h-47z" />
    <glyph glyph-name="Kappa" unicode="&#x39a;" horiz-adv-x="1378" 
d="M57 0l254 1434h47l-174 -985l1205 985h69l-731 -598l535 -836h-58l-514 807l-518 -424l-68 -383h-47z" />
    <glyph glyph-name="Lambda" unicode="&#x39b;" horiz-adv-x="1445" 
d="M-53 0l909 1434h57l404 -1434h-49l-391 1382l-875 -1382h-55z" />
    <glyph glyph-name="Mu" unicode="&#x39c;" horiz-adv-x="1882" 
d="M57 0l254 1434h58l491 -1377l973 1377h63l-254 -1434h-47l240 1358l-961 -1358h-43l-485 1358l-242 -1358h-47z" />
    <glyph glyph-name="Nu" unicode="&#x39d;" horiz-adv-x="1511" 
d="M57 0l254 1434h47l879 -1364l242 1364h47l-254 -1434h-47l-879 1364l-242 -1364h-47z" />
    <glyph glyph-name="Xi" unicode="&#x39e;" horiz-adv-x="1343" 
d="M-31 0l11 45h1218l-8 -45h-1221zM170 713l8 45h1075l-10 -45h-1073zM231 1389l9 45h1187l-8 -45h-1188z" />
    <glyph glyph-name="Omicron" unicode="&#x39f;" horiz-adv-x="1769" 
d="M838 -12q-207 0 -366.5 81t-247 229.5t-87.5 340.5q0 226 113.5 411t312 290.5t441.5 105.5q207 0 366 -81t246.5 -229.5t87.5 -340.5q0 -169 -66.5 -319t-181.5 -257t-275.5 -169t-342.5 -62zM840 33q171 0 322.5 58.5t260 159t171.5 242t63 300.5q0 275 -180.5 441.5
t-475.5 166.5q-228 0 -415.5 -99.5t-294.5 -274t-107 -388.5q0 -273 180.5 -439.5t475.5 -166.5z" />
    <glyph glyph-name="Pi" unicode="&#x3a0;" horiz-adv-x="1476" 
d="M57 0l254 1434h1180l-254 -1434h-47l244 1389h-1082l-248 -1389h-47z" />
    <glyph glyph-name="Rho" unicode="&#x3a1;" horiz-adv-x="1337" 
d="M57 0l254 1434h641q186 0 301 -101t115 -264q0 -194 -137.5 -310t-374.5 -116h-639l-113 -643h-47zM227 686h631q215 0 339 104.5t124 278.5q0 144 -103.5 232t-269.5 88h-598z" />
    <glyph glyph-name="Sigma" unicode="&#x3a3;" horiz-adv-x="1386" 
d="M-39 0l6 37l817 700l-536 660l6 37h1231l-8 -45h-1162l525 -644l-4 -24l-789 -676h1202l-8 -45h-1280z" />
    <glyph glyph-name="Tau" unicode="&#x3a4;" horiz-adv-x="1378" 
d="M573 0l246 1389h-622l8 45h1294l-10 -45h-623l-245 -1389h-48z" />
    <glyph glyph-name="Upsilon" unicode="&#x3a5;" horiz-adv-x="1433" 
d="M602 0l94 526l-508 908h54l483 -861l784 861h60l-826 -908l-94 -526h-47z" />
    <glyph glyph-name="Phi" unicode="&#x3a6;" horiz-adv-x="2009" 
d="M891 0l22 119h-49q-346 0 -537.5 137t-191.5 385q0 316 249 495t689 179h49l23 119h45l-23 -119h50q345 0 537 -137.5t192 -384.5q0 -316 -249 -495t-689 -179h-50l-22 -119h-45zM870 162h50l194 1110h-49q-413 0 -648 -167t-235 -462q0 -229 180.5 -355t507.5 -126z
M967 162h47q415 0 649.5 167t234.5 462q0 229 -180.5 355t-507.5 126h-51z" />
    <glyph glyph-name="Chi" unicode="&#x3a7;" horiz-adv-x="1398" 
d="M-43 0l756 737l-463 697h55l443 -664l669 664h62l-707 -701l488 -733h-58l-465 698l-719 -698h-61z" />
    <glyph glyph-name="Psi" unicode="&#x3a8;" horiz-adv-x="1720" 
d="M932 426h-66l-75 -426h-48l76 428q-312 19 -459 142.5t-147 365.5q0 90 16 184l56 314h47l-56 -314q-16 -76 -16 -180q0 -225 136.5 -337.5t430.5 -129.5l170 961h47l-170 -963h58q315 0 486.5 137t223.5 434l70 392h45l-69 -396q-55 -314 -239.5 -463t-516.5 -149z" />
    <glyph glyph-name="uni03A9" unicode="&#x3a9;" horiz-adv-x="1720" 
d="M2 0l6 45h522l21 109q-205 77 -314.5 221.5t-109.5 341.5q0 212 107.5 378.5t299 258.5t433.5 92q332 0 523 -157.5t191 -426.5q0 -272 -162.5 -456.5t-465.5 -253.5l-19 -107h522l-8 -45h-563l31 178q300 67 459 242.5t159 437.5q0 253 -177.5 399t-489.5 146
q-172 0 -319 -50.5t-251.5 -140t-163.5 -217.5t-59 -278q0 -191 108.5 -329t313.5 -210l-31 -178h-563z" />
    <glyph glyph-name="Iotadieresis" unicode="&#x3aa;" horiz-adv-x="346" 
d="M57 0l254 1434h47l-254 -1434h-47zM197 1692q-18 0 -28.5 9.5t-10.5 24.5q0 19 13.5 31t33.5 12q17 0 27 -9.5t10 -24.5q0 -19 -13 -31t-32 -12zM569 1692q-17 0 -27 9.5t-10 24.5q0 18 13.5 30.5t32.5 12.5q38 0 38 -34q0 -19 -13.5 -31t-33.5 -12z" />
    <glyph glyph-name="Upsilondieresis" unicode="&#x3ab;" horiz-adv-x="1433" 
d="M602 0l94 526l-508 908h54l483 -861l784 861h60l-826 -908l-94 -526h-47zM729 1692q-18 0 -28.5 9.5t-10.5 24.5q0 19 13.5 31t33.5 12q17 0 27 -9.5t10 -24.5q0 -19 -13 -31t-32 -12zM1102 1692q-17 0 -27 9.5t-10 24.5q0 19 13 31t32 12q18 0 28.5 -9.5t10.5 -24.5
q0 -19 -13.5 -31t-33.5 -12z" />
    <glyph glyph-name="alphatonos" unicode="&#x3ac;" horiz-adv-x="1454" 
d="M592 -12q-233 0 -369.5 122.5t-136.5 333.5q0 167 83 305.5t228 218t320 79.5q206 0 334.5 -88.5t162.5 -251.5l64 327h41l-148 -831q-13 -85 11.5 -122.5t93.5 -37.5h63l-8 -43h-69q-176 0 -136 199l19 98q-77 -143 -225 -226t-328 -83zM602 29q164 0 299 74t212 203.5
t77 285.5q0 193 -125.5 303.5t-343.5 110.5q-165 0 -300 -73.5t-212.5 -202.5t-77.5 -286q0 -192 126.5 -303.5t344.5 -111.5zM793 1171l157 293h49l-170 -293h-36z" />
    <glyph glyph-name="epsilontonos" unicode="&#x3ad;" horiz-adv-x="1183" 
d="M512 -12q-222 0 -343.5 72.5t-121.5 205.5q0 114 92.5 183t263.5 81q-115 10 -176 67.5t-61 154.5q0 135 132 215t359 80q214 0 336 -75t144 -220h-45q-46 254 -435 254q-211 0 -329.5 -68.5t-118.5 -189.5q0 -201 305 -201h240l-6 -41h-240q-202 0 -309 -61t-107 -177
q0 -117 109 -178t315 -61q235 0 352 59t154 197h45q-40 -157 -170 -227t-385 -70zM680 1171l158 293h49l-170 -293h-37z" />
    <glyph glyph-name="etatonos" unicode="&#x3ae;" horiz-adv-x="1335" 
d="M1001 -410l164 924q15 88 15 137q0 173 -99.5 263t-292.5 90q-196 0 -338 -115.5t-180 -335.5l-98 -553h-45l147 831q15 84 -10 122t-94 38h-55l6 43h63q172 0 135 -198l-16 -91q66 147 197 224.5t293 77.5q210 0 321 -101t111 -291q0 -42 -15 -141l-163 -924h-46z
M594 1171l158 293h49l-170 -293h-37z" />
    <glyph glyph-name="iotatonos" unicode="&#x3af;" horiz-adv-x="493" 
d="M252 0q-182 0 -182 154q0 32 6 69l143 811h45l-143 -811q-6 -35 -6 -59q0 -121 147 -121h127l-8 -43h-129zM242 1171l157 293h50l-170 -293h-37z" />
    <glyph glyph-name="upsilondieresistonos" unicode="&#x3b0;" horiz-adv-x="1224" 
d="M567 -12q-227 0 -341.5 100.5t-114.5 292.5q0 52 14 145l90 508h45l-90 -510q-14 -82 -14 -141q0 -352 411 -352q210 0 326 112.5t160 368.5l92 522h47l-94 -528q-47 -274 -174.5 -396t-356.5 -122zM705 1171l86 293h45l-95 -293h-36zM565 1294q-17 0 -27 9.5t-10 23.5
q0 19 13.5 31t33.5 12q15 0 25 -10t10 -23q0 -20 -13 -31.5t-32 -11.5zM956 1294q-17 0 -26.5 9.5t-9.5 23.5q0 19 13.5 31t33.5 12q14 0 24 -10t10 -23q0 -20 -13 -31.5t-32 -11.5z" />
    <glyph glyph-name="alpha" unicode="&#x3b1;" horiz-adv-x="1454" 
d="M592 -12q-233 0 -369.5 122.5t-136.5 333.5q0 167 83 305.5t228 218t320 79.5q206 0 334.5 -88.5t162.5 -251.5l64 327h41l-148 -831q-13 -85 11.5 -122.5t93.5 -37.5h63l-8 -43h-69q-176 0 -136 199l19 98q-77 -143 -225 -226t-328 -83zM602 29q164 0 299 74t212 203.5
t77 285.5q0 193 -125.5 303.5t-343.5 110.5q-165 0 -300 -73.5t-212.5 -202.5t-77.5 -286q0 -192 126.5 -303.5t344.5 -111.5z" />
    <glyph glyph-name="beta" unicode="&#x3b2;" horiz-adv-x="1267" 
d="M-29 -410l248 1403q38 222 178 337.5t371 115.5q174 0 283.5 -90.5t109.5 -237.5q0 -149 -102 -241.5t-297 -118.5q195 -13 292 -102t97 -242q0 -193 -135 -309.5t-373 -116.5q-207 0 -339 80t-163 221l-123 -699h-47zM172 465q-35 -200 92 -318t379 -118q219 0 341 104
t122 279q0 159 -113.5 240t-351.5 81h-133l8 41h57q258 0 400.5 89t142.5 253q0 131 -97 210t-253 79q-209 0 -338 -106t-164 -306z" />
    <glyph glyph-name="gamma" unicode="&#x3b3;" horiz-adv-x="1128" 
d="M391 -328l64 359l-336 1003h47l317 -950l656 950h53l-690 -1003l-66 -359h-45z" />
    <glyph glyph-name="delta" unicode="&#x3b4;" horiz-adv-x="1306" 
d="M608 -12q-244 0 -386 114.5t-142 311.5q0 227 152 373.5t399 156.5q208 6 348 -78l-582 533l9 35h905l-8 -41h-834l573 -527q166 -150 166 -348q0 -231 -169.5 -380.5t-430.5 -149.5zM612 29q238 0 394.5 137.5t156.5 349.5q0 177 -135.5 286t-355.5 109
q-244 0 -394.5 -137t-150.5 -358q0 -180 129.5 -283.5t355.5 -103.5z" />
    <glyph glyph-name="epsilon" unicode="&#x3b5;" horiz-adv-x="1183" 
d="M512 -12q-222 0 -343.5 72.5t-121.5 205.5q0 114 92.5 183t263.5 81q-115 10 -176 67.5t-61 154.5q0 135 132 215t359 80q214 0 336 -75t144 -220h-45q-46 254 -435 254q-211 0 -329.5 -68.5t-118.5 -189.5q0 -201 305 -201h240l-6 -41h-240q-202 0 -309 -61t-107 -177
q0 -117 109 -178t315 -61q235 0 352 59t154 197h45q-40 -157 -170 -227t-385 -70z" />
    <glyph glyph-name="zeta" unicode="&#x3b6;" horiz-adv-x="1032" 
d="M782 -276l17 94q8 37 8 65q0 61 -37.5 88t-124.5 29h-117q-229 2 -354 82.5t-125 226.5q0 74 20 131t87 138.5t172 176t297 253.5l467 383h-832l8 43h903l-6 -37l-512 -422q-246 -202 -358.5 -310.5t-155.5 -185t-43 -166.5q0 -129 114.5 -199.5t326.5 -70.5h120
q101 -2 148 -37.5t47 -111.5q0 -31 -8 -70l-19 -100h-43z" />
    <glyph glyph-name="eta" unicode="&#x3b7;" horiz-adv-x="1335" 
d="M1001 -410l164 924q15 88 15 137q0 173 -99.5 263t-292.5 90q-196 0 -338 -115.5t-180 -335.5l-98 -553h-45l147 831q15 84 -10 122t-94 38h-55l6 43h63q172 0 135 -198l-16 -91q66 147 197 224.5t293 77.5q210 0 321 -101t111 -291q0 -42 -15 -141l-163 -924h-46z" />
    <glyph glyph-name="theta" unicode="&#x3b8;" horiz-adv-x="1269" 
d="M535 -12q-208 0 -319.5 141t-111.5 383q0 79 12.5 164.5t40.5 177t68 176.5t98 161t127.5 132.5t161 89.5t193.5 33q208 0 319 -141t111 -383q0 -79 -12.5 -164.5t-40.5 -177t-67.5 -176.5t-97.5 -161t-127.5 -132.5t-161 -89.5t-193.5 -33zM537 29q111 0 207 42
t164.5 109.5t122.5 158.5t86.5 183.5t51.5 190.5h-1001q-18 -105 -18 -195q0 -227 100 -358t287 -131zM176 754h1000q14 80 14 161q0 227 -100 358.5t-287 131.5q-107 0 -200 -39.5t-160.5 -103t-122 -150t-88.5 -175t-56 -183.5z" />
    <glyph glyph-name="iota" unicode="&#x3b9;" horiz-adv-x="493" 
d="M252 0q-182 0 -182 154q0 32 6 69l143 811h45l-143 -811q-6 -35 -6 -59q0 -121 147 -121h127l-8 -43h-129z" />
    <glyph glyph-name="kappa" unicode="&#x3ba;" horiz-adv-x="1153" 
d="M45 0l182 1034h45l-125 -710l727 614q76 66 117.5 81t143.5 15h57l-6 -43h-53q-92 0 -125.5 -12.5t-108.5 -73.5l-352 -297l495 -608h-57l-471 580l-379 -318l-45 -262h-45z" />
    <glyph glyph-name="lambda" unicode="&#x3bb;" horiz-adv-x="1150" 
d="M-47 0l698 1034l-49 164q-37 118 -84 155.5t-158 37.5h-116l6 43h121q123 0 177.5 -45.5t96.5 -180.5l373 -1208h-47l-303 983l-662 -983h-53z" />
    <glyph glyph-name="uni03BC" unicode="&#x3bc;" horiz-adv-x="1329" 
d="M-29 -410l254 1444h45l-90 -514q-14 -82 -14 -137q0 -173 97.5 -262.5t285.5 -89.5q125 0 229.5 48t180.5 151t102 251l98 553h45l-147 -831q-15 -84 10 -122t94 -38h56l-9 -43h-61q-175 0 -135 199l16 84q-70 -145 -198.5 -220t-284.5 -75q-181 0 -283 80t-119 233
l-125 -711h-47z" />
    <glyph glyph-name="nu" unicode="&#x3bd;" 
d="M442 0l-323 1034l47 -2l309 -983l653 985h54l-686 -1034h-54z" />
    <glyph glyph-name="xi" unicode="&#x3be;" horiz-adv-x="1130" 
d="M856 -276l18 112q7 31 7 51q0 60 -40 85t-136 28l-121 4q-259 8 -388.5 90t-129.5 252q0 162 137 273.5t362 128.5q-150 20 -228.5 90t-78.5 188q0 147 147.5 244t417.5 123l-557 -2l8 43h914l-8 -39q-124 0 -207 -6q-323 -22 -496.5 -114.5t-173.5 -244.5
q0 -126 105 -195t297 -69h227l-8 -43h-228q-264 0 -424.5 -102t-160.5 -271q0 -150 116 -223t367 -82l123 -2q109 -3 158 -37.5t49 -109.5q0 -34 -4 -54l-21 -118h-43z" />
    <glyph glyph-name="omicron" unicode="&#x3bf;" horiz-adv-x="1323" 
d="M604 -12q-238 0 -378 124.5t-140 331.5q0 168 82.5 306t228 217.5t322.5 79.5q238 0 378 -124t140 -331q0 -167 -82.5 -305.5t-228 -218.5t-322.5 -80zM606 29q124 0 233 44t186.5 119.5t122 179t44.5 218.5q0 192 -127 304t-348 112q-166 0 -300.5 -74.5t-210 -202.5
t-75.5 -283q0 -192 127 -304.5t348 -112.5z" />
    <glyph glyph-name="pi" unicode="&#x3c0;" horiz-adv-x="1427" 
d="M1167 0q-170 0 -133 201l140 790h-764l-177 -991h-45l177 991h-250l6 43h1358l-9 -43h-251l-140 -786q-15 -86 9.5 -124t93.5 -38h57l-6 -43h-66z" />
    <glyph glyph-name="rho" unicode="&#x3c1;" horiz-adv-x="1357" 
d="M-39 -410l168 955q39 219 212 360.5t413 141.5q238 0 378 -124t140 -331q0 -167 -82.5 -305.5t-228 -218.5t-322.5 -80q-213 0 -344.5 103t-153.5 280l-135 -781h-45zM641 29q124 0 233 44t186.5 119.5t122 179t44.5 218.5q0 192 -127 304t-348 112q-166 0 -300.5 -74.5
t-210 -202.5t-75.5 -283q0 -192 127 -304.5t348 -112.5z" />
    <glyph glyph-name="sigma1" unicode="&#x3c2;" horiz-adv-x="1245" 
d="M870 -276l19 94q8 49 8 65q0 61 -38 88t-126 29h-137q-226 2 -367 125.5t-141 325.5q0 166 79 302.5t220 215t315 78.5q205 0 332.5 -85t155.5 -239h-43q-28 135 -144 209t-303 74q-243 0 -405 -159.5t-162 -393.5q0 -187 129 -298.5t342 -111.5h144q101 -1 146.5 -36.5
t45.5 -112.5q0 -31 -6 -70l-19 -100h-45z" />
    <glyph glyph-name="sigma" unicode="&#x3c3;" horiz-adv-x="1390" 
d="M602 -12q-237 0 -377.5 123.5t-140.5 326.5q0 165 82.5 301.5t228 215.5t322.5 79h729l-8 -43h-512q147 -41 228 -147t81 -258q0 -164 -82.5 -301t-228 -217t-322.5 -80zM604 29q165 0 300 75t210.5 202t75.5 278q0 187 -127 298t-348 111q-166 0 -300.5 -74t-210 -200.5
t-75.5 -278.5q0 -188 127 -299.5t348 -111.5z" />
    <glyph glyph-name="tau" unicode="&#x3c4;" horiz-adv-x="1185" 
d="M711 0q-107 0 -161 49.5t-54 143.5q0 27 8 81l127 717h-516l6 43h1114l-6 -43h-553l-127 -721q-6 -38 -6 -71q0 -156 176 -156h168l-8 -43h-168z" />
    <glyph glyph-name="upsilon" unicode="&#x3c5;" horiz-adv-x="1224" 
d="M567 -12q-227 0 -341.5 100.5t-114.5 292.5q0 52 14 145l90 508h45l-90 -510q-14 -82 -14 -141q0 -352 411 -352q210 0 326 112.5t160 368.5l92 522h47l-94 -528q-47 -274 -174.5 -396t-356.5 -122z" />
    <glyph glyph-name="phi" unicode="&#x3c6;" horiz-adv-x="1632" 
d="M631 -410l71 410h-36q-273 0 -426.5 120.5t-153.5 334.5q0 166 97 298t271 206.5t394 74.5h37l51 285h45l-51 -285h39q274 0 427.5 -120t153.5 -334q0 -166 -97.5 -298.5t-271.5 -207t-393 -74.5h-40l-72 -410h-45zM674 41h37l168 952h-37q-205 0 -367.5 -69t-253 -191.5
t-90.5 -275.5q0 -198 142 -307t401 -109zM756 41h39q204 0 366 69.5t252 192t90 275.5q0 198 -140.5 306.5t-399.5 108.5h-39z" />
    <glyph glyph-name="chi" unicode="&#x3c7;" horiz-adv-x="1302" 
d="M-49 -410l643 727l-236 484q-27 55 -45 85.5t-36.5 54t-42 33t-50.5 13.5t-71 4h-29l8 43h35q78 0 119.5 -16.5t73 -58.5t79.5 -142l226 -463l604 680h55l-637 -717l236 -493q62 -128 102 -159.5t143 -31.5h29l-8 -43h-35q-60 0 -93.5 6.5t-65.5 31.5t-55 64t-58 115
l-226 476l-610 -693h-55z" />
    <glyph glyph-name="psi" unicode="&#x3c8;" horiz-adv-x="1486" 
d="M711 -12h-39l-72 -398h-45l72 400q-307 17 -425 165t-63 449l78 430h45l-78 -434q-51 -286 54.5 -420t394.5 -149l229 1280h45l-229 -1282h37q273 0 415.5 117t186.5 376l90 512h45l-90 -518q-47 -273 -203 -400.5t-448 -127.5z" />
    <glyph glyph-name="omega" unicode="&#x3c9;" horiz-adv-x="1781" 
d="M440 -12q-169 0 -261.5 102.5t-92.5 288.5q0 181 93.5 354.5t256.5 300.5h58q-172 -134 -267.5 -305t-95.5 -348q0 -170 80.5 -261t232.5 -91q167 0 273 105.5t141 307.5l37 217h45l-39 -217q-32 -188 51.5 -300.5t255.5 -112.5q190 0 305 143t115 377q0 137 -46 264.5
t-130 220.5h53q81 -92 125.5 -219t44.5 -266q0 -252 -129 -406.5t-338 -154.5q-156 0 -250 87.5t-98 237.5q-51 -160 -158 -242.5t-262 -82.5z" />
    <glyph glyph-name="iotadieresis" unicode="&#x3ca;" horiz-adv-x="493" 
d="M252 0q-182 0 -182 154q0 32 6 69l143 811h45l-143 -811q-6 -35 -6 -59q0 -121 147 -121h127l-8 -43h-129zM104 1292q-18 0 -28 9.5t-10 25.5q0 19 13.5 32t33.5 13q17 0 27 -10.5t10 -26.5q0 -18 -13.5 -30.5t-32.5 -12.5zM477 1292q-17 0 -27 10t-10 25q0 19 13 32
t32 13q18 0 28.5 -10.5t10.5 -26.5q0 -19 -13.5 -31t-33.5 -12z" />
    <glyph glyph-name="upsilondieresis" unicode="&#x3cb;" horiz-adv-x="1224" 
d="M567 -12q-227 0 -341.5 100.5t-114.5 292.5q0 52 14 145l90 508h45l-90 -510q-14 -82 -14 -141q0 -352 411 -352q210 0 326 112.5t160 368.5l92 522h47l-94 -528q-47 -274 -174.5 -396t-356.5 -122zM565 1292q-18 0 -28.5 10t-10.5 25q0 19 13.5 32t33.5 13
q17 0 27 -10.5t10 -26.5q0 -19 -13 -31t-32 -12zM938 1292q-17 0 -27 10t-10 25q0 19 13 32t32 13q18 0 28.5 -10.5t10.5 -26.5q0 -19 -13.5 -31t-33.5 -12z" />
    <glyph glyph-name="omicrontonos" unicode="&#x3cc;" horiz-adv-x="1323" 
d="M604 -12q-238 0 -378 124.5t-140 331.5q0 168 82.5 306t228 217.5t322.5 79.5q238 0 378 -124t140 -331q0 -167 -82.5 -305.5t-228 -218.5t-322.5 -80zM606 29q124 0 233 44t186.5 119.5t122 179t44.5 218.5q0 192 -127 304t-348 112q-166 0 -300.5 -74.5t-210 -202.5
t-75.5 -283q0 -192 127 -304.5t348 -112.5zM733 1171l158 293h49l-170 -293h-37z" />
    <glyph glyph-name="upsilontonos" unicode="&#x3cd;" horiz-adv-x="1224" 
d="M567 -12q-227 0 -341.5 100.5t-114.5 292.5q0 52 14 145l90 508h45l-90 -510q-14 -82 -14 -141q0 -352 411 -352q210 0 326 112.5t160 368.5l92 522h47l-94 -528q-47 -274 -174.5 -396t-356.5 -122zM705 1171l157 293h49l-170 -293h-36z" />
    <glyph glyph-name="omegatonos" unicode="&#x3ce;" horiz-adv-x="1781" 
d="M440 -12q-169 0 -261.5 102.5t-92.5 288.5q0 181 93.5 354.5t256.5 300.5h58q-172 -134 -267.5 -305t-95.5 -348q0 -170 80.5 -261t232.5 -91q167 0 273 105.5t141 307.5l37 217h45l-39 -217q-32 -188 51.5 -300.5t255.5 -112.5q190 0 305 143t115 377q0 137 -46 264.5
t-130 220.5h53q81 -92 125.5 -219t44.5 -266q0 -252 -129 -406.5t-338 -154.5q-156 0 -250 87.5t-98 237.5q-51 -160 -158 -242.5t-262 -82.5zM981 1171l158 293h49l-170 -293h-37z" />
    <glyph glyph-name="uni0400" unicode="&#x400;" horiz-adv-x="1247" 
d="M57 0l252 1434h1006l-10 -45h-955l-112 -631h809l-11 -45h-805l-118 -668h989l-8 -45h-1037zM803 1571l-203 264h57l189 -264h-43z" />
    <glyph glyph-name="uni0401" unicode="&#x401;" horiz-adv-x="1247" 
d="M57 0l252 1434h1006l-10 -45h-955l-112 -631h809l-11 -45h-805l-118 -668h989l-8 -45h-1037zM664 1692q-18 0 -28.5 9.5t-10.5 24.5q0 18 14 30.5t33 12.5q17 0 28 -9.5t11 -24.5q0 -18 -14 -30.5t-33 -12.5zM1038 1692q-18 0 -28.5 9.5t-10.5 24.5q0 19 14 31t34 12
q17 0 26.5 -9.5t9.5 -24.5q0 -19 -13 -31t-32 -12z" />
    <glyph glyph-name="uni0402" unicode="&#x402;" horiz-adv-x="1808" 
d="M522 0l246 1389h-571l8 45h1288l-10 -45h-668l-106 -607q256 86 516 86q296 0 402.5 -121t60.5 -391l-27 -157q-43 -247 -175.5 -361t-377.5 -114h-119l6 45h115q225 0 344.5 103t159.5 331l26 151q21 124 10.5 213.5t-61.5 146.5t-142.5 84t-232.5 27q-255 0 -514 -90
l-131 -735h-47z" />
    <glyph glyph-name="uni0403" unicode="&#x403;" horiz-adv-x="1144" 
d="M57 0l254 1434h955l-11 -45h-903l-248 -1389h-47zM739 1571l265 264h61l-277 -264h-49z" />
    <glyph glyph-name="uni0404" unicode="&#x404;" horiz-adv-x="1634" 
d="M827 -12q-317 0 -503.5 178t-186.5 473q0 168 63 317t171.5 256.5t262.5 170.5t329 63q264 0 434 -112.5t205 -313.5h-48q-33 183 -189 282t-402 99q-152 0 -287 -49.5t-235 -137t-166 -208.5t-85 -261h914l-8 -45h-910q-2 -20 -2 -61q0 -277 173.5 -441.5t471.5 -164.5
q230 0 396.5 97.5t247.5 285.5h47q-86 -209 -265.5 -318.5t-427.5 -109.5z" />
    <glyph glyph-name="uni0405" unicode="&#x405;" horiz-adv-x="1404" 
d="M715 -12q-289 0 -457 113.5t-172 312.5h47q3 -178 159 -280.5t425 -102.5q232 0 367 91.5t135 248.5q0 123 -107.5 195.5t-382.5 133.5q-282 63 -394 141t-112 212q0 178 154 285.5t409 107.5q258 0 408.5 -99t165.5 -280h-47q-19 161 -156.5 248.5t-372.5 87.5
q-236 0 -375 -94t-139 -254q0 -117 101 -183.5t370 -126.5q289 -66 407 -149t118 -221q0 -179 -148 -283t-403 -104z" />
    <glyph glyph-name="uni0406" unicode="&#x406;" horiz-adv-x="346" 
d="M57 0l254 1434h47l-254 -1434h-47z" />
    <glyph glyph-name="uni0407" unicode="&#x407;" horiz-adv-x="346" 
d="M57 0l254 1434h47l-254 -1434h-47zM197 1692q-17 0 -27 9.5t-10 24.5q0 19 13 31t32 12q18 0 28.5 -9.5t10.5 -24.5q0 -19 -13.5 -31t-33.5 -12zM571 1692q-18 0 -28.5 9.5t-10.5 24.5q0 19 14 31t34 12q17 0 26.5 -9.5t9.5 -24.5q0 -19 -13 -31t-32 -12z" />
    <glyph glyph-name="uni0408" unicode="&#x408;" horiz-adv-x="733" 
d="M-49 0l8 45h274q114 0 179 59t88 185l200 1145h48l-203 -1151q-49 -283 -312 -283h-282z" />
    <glyph glyph-name="uni0409" unicode="&#x409;" horiz-adv-x="2463" 
d="M-70 0l7 45h67q106 0 178 68t125.5 220.5t100.5 420.5l120 680h1012l-113 -650h467q229 0 353.5 -92t124.5 -262q0 -201 -130 -315.5t-360 -114.5h-643l246 1389h-920l-112 -639q-50 -284 -109 -445t-140 -233t-202 -72h-72zM1296 45h592q205 0 319.5 100.5t114.5 280.5
q0 152 -109.5 233.5t-316.5 81.5h-479z" />
    <glyph glyph-name="uni040A" unicode="&#x40a;" horiz-adv-x="2387" 
d="M57 0l254 1434h47l-114 -650h1063l114 650h47l-114 -650h467q228 0 351.5 -92t123.5 -262q0 -201 -130 -315.5t-360 -114.5h-639l131 741h-1062l-132 -741h-47zM1221 45h594q204 0 318 100.5t114 280.5q0 152 -109.5 233.5t-316.5 81.5h-475z" />
    <glyph glyph-name="uni040B" unicode="&#x40b;" horiz-adv-x="1830" 
d="M522 0l246 1389h-571l8 45h1288l-10 -45h-668l-106 -607q256 86 516 86q300 0 416.5 -122.5t70.5 -389.5l-63 -356h-47l63 354q43 249 -63.5 360t-387.5 111q-255 0 -514 -90l-131 -735h-47z" />
    <glyph glyph-name="uni040C" unicode="&#x40c;" horiz-adv-x="1386" 
d="M57 0l254 1434h47l-120 -680h413l740 680h63l-762 -699l555 -735h-55l-537 711h-424l-127 -711h-47zM840 1571l264 264h61l-276 -264h-49z" />
    <glyph glyph-name="uni040D" unicode="&#x40d;" horiz-adv-x="1495" 
d="M57 0l254 1434h47l-241 -1360l1345 1360h45l-254 -1434h-47l242 1360l-1344 -1360h-47zM922 1571l-203 264h57l189 -264h-43z" />
    <glyph glyph-name="uni040E" unicode="&#x40e;" horiz-adv-x="1372" 
d="M102 0l11 45h102q135 0 204.5 35t147.5 141l103 144l-482 1069h54l460 -1026l748 1026h55l-895 -1225q-89 -124 -169.5 -166.5t-227.5 -42.5h-111zM879 1595q-137 0 -205 62.5t-56 177.5h39q-8 -97 46 -150t182 -53q253 0 289 203h43q-22 -117 -107 -178.5t-231 -61.5z
" />
    <glyph glyph-name="uni040F" unicode="&#x40f;" horiz-adv-x="1454" 
d="M561 -293l51 293h-555l254 1434h47l-245 -1389h1061l245 1389h47l-254 -1434h-553l-51 -293h-47z" />
    <glyph glyph-name="uni0410" unicode="&#x410;" horiz-adv-x="1480" 
d="M-53 0l932 1434h53l420 -1434h-49l-142 487h-842l-319 -487h-53zM346 532h801l-248 850z" />
    <glyph glyph-name="uni0411" unicode="&#x411;" horiz-adv-x="1337" 
d="M57 0l254 1434h963l-10 -45h-914l-102 -584h508q236 0 359.5 -96t123.5 -269q0 -202 -129 -321t-369 -119h-684zM113 45h635q214 0 328 106t114 285q0 155 -110.5 239.5t-325.5 84.5h-514z" />
    <glyph glyph-name="uni0412" unicode="&#x412;" horiz-adv-x="1394" 
d="M57 0l254 1434h568q203 0 317.5 -87t114.5 -243q0 -151 -96.5 -249.5t-266.5 -121.5q157 -23 240.5 -103.5t83.5 -207.5q0 -193 -145.5 -307.5t-391.5 -114.5h-678zM113 43h628q224 0 354 102t130 277q0 138 -111 214.5t-311 76.5h-572zM238 756h577q211 0 330 91.5
t119 254.5q0 139 -101 214t-289 75h-522z" />
    <glyph glyph-name="uni0413" unicode="&#x413;" horiz-adv-x="1144" 
d="M57 0l254 1434h955l-11 -45h-903l-248 -1389h-47z" />
    <glyph glyph-name="uni0414" unicode="&#x414;" horiz-adv-x="1595" 
d="M-96 -293l59 338h131q102 72 166.5 228t126.5 511l113 650h1050l-245 -1389h153l-61 -338h-47l51 293h-1399l-51 -293h-47zM1257 45l238 1346h-956l-109 -615q-59 -333 -119.5 -493.5t-150.5 -237.5h1097z" />
    <glyph glyph-name="uni0415" unicode="&#x415;" horiz-adv-x="1247" 
d="M57 0l252 1434h1006l-10 -45h-955l-112 -631h809l-11 -45h-805l-118 -668h989l-8 -45h-1037z" />
    <glyph glyph-name="uni0416" unicode="&#x416;" horiz-adv-x="2166" 
d="M-43 0l713 733l-414 701h53l402 -680h393l121 680h47l-121 -680h385l641 680h59l-659 -701l453 -733h-56l-436 711h-393l-127 -711h-47l127 711h-391l-689 -711h-61z" />
    <glyph glyph-name="uni0417" unicode="&#x417;" horiz-adv-x="1353" 
d="M635 -12q-265 0 -415 106t-150 295v10h49v-10q0 -169 136.5 -262.5t381.5 -93.5q249 0 397 101t148 272q0 145 -124 224t-347 79h-240l6 43h236q245 0 392.5 94.5t147.5 251.5q0 146 -120 224.5t-338 78.5q-230 0 -370 -87t-169 -251h-47q31 183 184.5 283t405.5 100
q233 0 367 -92t134 -252q0 -152 -118 -249t-330 -122q180 -19 279.5 -104t99.5 -219q0 -192 -162 -306t-434 -114z" />
    <glyph glyph-name="uni0418" unicode="&#x418;" horiz-adv-x="1495" 
d="M57 0l254 1434h47l-241 -1360l1345 1360h45l-254 -1434h-47l242 1360l-1344 -1360h-47z" />
    <glyph glyph-name="uni0419" unicode="&#x419;" horiz-adv-x="1495" 
d="M57 0l254 1434h47l-241 -1360l1345 1360h45l-254 -1434h-47l242 1360l-1344 -1360h-47zM954 1595q-137 0 -204.5 62.5t-55.5 177.5h39q-8 -97 46 -150t182 -53q252 0 288 203h43q-22 -117 -107 -178.5t-231 -61.5z" />
    <glyph glyph-name="uni041A" unicode="&#x41a;" horiz-adv-x="1386" 
d="M57 0l254 1434h47l-120 -680h413l740 680h63l-762 -699l555 -735h-55l-537 711h-424l-127 -711h-47z" />
    <glyph glyph-name="uni041B" unicode="&#x41b;" horiz-adv-x="1562" 
d="M-70 0l7 45h67q106 0 178 68t125.5 220.5t100.5 420.5l120 680h1049l-254 -1434h-47l246 1389h-957l-112 -639q-50 -284 -109 -445t-140 -233t-202 -72h-72z" />
    <glyph glyph-name="uni041C" unicode="&#x41c;" horiz-adv-x="1882" 
d="M57 0l254 1434h58l491 -1377l973 1377h63l-254 -1434h-47l240 1358l-961 -1358h-43l-485 1358l-242 -1358h-47z" />
    <glyph glyph-name="uni041D" unicode="&#x41d;" horiz-adv-x="1482" 
d="M57 0l254 1434h47l-120 -680h1091l121 680h47l-254 -1434h-47l125 711h-1090l-127 -711h-47z" />
    <glyph glyph-name="uni041E" unicode="&#x41e;" horiz-adv-x="1769" 
d="M838 -12q-207 0 -366.5 81t-247 229.5t-87.5 340.5q0 226 113.5 411t312 290.5t441.5 105.5q207 0 366 -81t246.5 -229.5t87.5 -340.5q0 -169 -66.5 -319t-181.5 -257t-275.5 -169t-342.5 -62zM840 33q171 0 322.5 58.5t260 159t171.5 242t63 300.5q0 275 -180.5 441.5
t-475.5 166.5q-228 0 -415.5 -99.5t-294.5 -274t-107 -388.5q0 -273 180.5 -439.5t475.5 -166.5z" />
    <glyph glyph-name="uni041F" unicode="&#x41f;" horiz-adv-x="1476" 
d="M57 0l254 1434h1180l-254 -1434h-47l244 1389h-1082l-248 -1389h-47z" />
    <glyph glyph-name="uni0420" unicode="&#x420;" horiz-adv-x="1337" 
d="M57 0l254 1434h641q186 0 301 -101t115 -264q0 -194 -137.5 -310t-374.5 -116h-639l-113 -643h-47zM227 686h631q215 0 339 104.5t124 278.5q0 144 -103.5 232t-269.5 88h-598z" />
    <glyph glyph-name="uni0421" unicode="&#x421;" horiz-adv-x="1634" 
d="M827 -12q-317 0 -503.5 178t-186.5 473q0 168 63 317t171.5 256.5t262.5 170.5t329 63q264 0 434 -112.5t205 -313.5h-48q-33 183 -189 282t-402 99q-221 0 -399.5 -100.5t-279 -274.5t-100.5 -387q0 -277 173.5 -441.5t471.5 -164.5q230 0 396.5 97.5t247.5 285.5h47
q-86 -209 -265.5 -318.5t-427.5 -109.5z" />
    <glyph glyph-name="uni0422" unicode="&#x422;" horiz-adv-x="1378" 
d="M573 0l246 1389h-622l8 45h1294l-10 -45h-623l-245 -1389h-48z" />
    <glyph glyph-name="uni0423" unicode="&#x423;" horiz-adv-x="1372" 
d="M102 0l11 45h102q135 0 204.5 35t147.5 141l103 144l-482 1069h54l460 -1026l748 1026h55l-895 -1225q-89 -124 -169.5 -166.5t-227.5 -42.5h-111z" />
    <glyph glyph-name="uni0424" unicode="&#x424;" horiz-adv-x="2009" 
d="M891 0l22 119h-49q-346 0 -537.5 137t-191.5 385q0 316 249 495t689 179h49l23 119h45l-23 -119h50q345 0 537 -137.5t192 -384.5q0 -316 -249 -495t-689 -179h-50l-22 -119h-45zM870 162h50l194 1110h-49q-413 0 -648 -167t-235 -462q0 -229 180.5 -355t507.5 -126z
M967 162h47q415 0 649.5 167t234.5 462q0 229 -180.5 355t-507.5 126h-51z" />
    <glyph glyph-name="uni0425" unicode="&#x425;" horiz-adv-x="1398" 
d="M-43 0l756 737l-463 697h55l443 -664l669 664h62l-707 -701l488 -733h-58l-465 698l-719 -698h-61z" />
    <glyph glyph-name="uni0426" unicode="&#x426;" horiz-adv-x="1517" 
d="M57 0l254 1434h47l-245 -1389h1061l245 1389h47l-245 -1389h157l-59 -338h-47l49 293h-1264z" />
    <glyph glyph-name="uni0427" unicode="&#x427;" horiz-adv-x="1380" 
d="M1090 0l122 676q-118 -53 -267 -84t-292 -31q-485 0 -485 344q0 54 14 133l70 396h47l-70 -394q-12 -62 -12 -129q0 -157 109 -231t333 -74q143 0 293 32t267 87l127 709h47l-256 -1434h-47z" />
    <glyph glyph-name="uni0428" unicode="&#x428;" horiz-adv-x="2158" 
d="M57 0l254 1434h47l-245 -1389h858l248 1389h47l-248 -1389h860l248 1389h47l-254 -1434h-1862z" />
    <glyph glyph-name="uni0429" unicode="&#x429;" horiz-adv-x="2222" 
d="M57 0l254 1434h47l-245 -1389h858l248 1389h47l-248 -1389h860l248 1389h47l-246 -1389h158l-60 -338h-47l50 293h-1971z" />
    <glyph glyph-name="uni042A" unicode="&#x42a;" horiz-adv-x="1751" 
d="M475 0l250 1389h-528l6 45h575l-106 -607h479q234 0 373 -100.5t139 -273.5q0 -194 -162.5 -323.5t-419.5 -129.5h-606zM530 45h555q233 0 381 115.5t148 290.5q0 154 -123 243.5t-336 89.5h-491z" />
    <glyph glyph-name="uni042B" unicode="&#x42b;" horiz-adv-x="1689" 
d="M57 0l254 1434h47l-108 -605h495q229 0 357.5 -97.5t128.5 -272.5q0 -208 -137 -333.5t-365 -125.5h-672zM113 45h620q204 0 326.5 112t122.5 298q0 157 -113.5 244t-318.5 87h-506zM1401 0l254 1434h47l-254 -1434h-47z" />
    <glyph glyph-name="uni042C" unicode="&#x42c;" horiz-adv-x="1333" 
d="M57 0l254 1434h47l-108 -605h510q229 0 357 -97.5t128 -272.5q0 -208 -137 -333.5t-365 -125.5h-686zM113 45h635q204 0 326 112t122 298q0 157 -113.5 244t-318.5 87h-520z" />
    <glyph glyph-name="uni042D" unicode="&#x42d;" horiz-adv-x="1634" 
d="M776 -12q-275 0 -458.5 115t-217.5 311h47q34 -177 204 -279t425 -102q301 0 503.5 184.5t233.5 482.5h-917l8 45h912q2 16 2 50q0 279 -174.5 442.5t-469.5 163.5q-233 0 -399 -98t-244 -285h-47q83 207 262 317.5t428 110.5q316 0 503.5 -176.5t187.5 -474.5
q0 -172 -59 -322t-162.5 -256.5t-250.5 -167.5t-317 -61z" />
    <glyph glyph-name="uni042E" unicode="&#x42e;" horiz-adv-x="2244" 
d="M1313 -12q-207 0 -366.5 81t-247 229.5t-87.5 340.5q0 22 4 72h-385l-127 -711h-47l254 1434h47l-120 -680h383q21 149 95 277t185.5 219.5t260.5 143.5t315 52q207 0 366.5 -81t247.5 -229.5t88 -340.5q0 -169 -66.5 -319t-181.5 -257t-275.5 -169t-342.5 -62zM1313 33
q172 0 324 58.5t260.5 159t171.5 242t63 300.5q0 275 -180 441.5t-475 166.5q-228 0 -415.5 -99.5t-295 -274t-107.5 -388.5q0 -274 179.5 -440t474.5 -166z" />
    <glyph glyph-name="uni042F" unicode="&#x42f;" horiz-adv-x="1376" 
d="M1090 0l112 643h-532l-600 -643h-62l602 643q-187 6 -298 105.5t-111 261.5q0 197 143.5 310.5t394.5 113.5h652l-254 -1434h-47zM639 686h571l125 703h-592q-233 0 -363 -100t-130 -279q0 -149 105 -236.5t284 -87.5z" />
    <glyph glyph-name="uni0430" unicode="&#x430;" horiz-adv-x="1259" 
d="M438 -12q-190 0 -293.5 70.5t-103.5 199.5q0 158 127.5 235.5t388.5 77.5h475l10 62q11 61 11 100q0 273 -373 273q-374 0 -469 -242h-45q103 283 518 283q414 0 414 -310q0 -53 -11 -112l-75 -422q-6 -36 -6.5 -60t7.5 -49t34 -38t69 -13h41l-8 -43h-47q-51 0 -83.5 17
t-43.5 44.5t-13.5 63.5t5.5 74l8 45q-68 -122 -209 -189t-328 -67zM440 29q231 0 380.5 100t183.5 279l22 122h-475q-238 0 -351.5 -66.5t-113.5 -205.5q0 -110 92 -169.5t262 -59.5z" />
    <glyph glyph-name="uni0431" unicode="&#x431;" horiz-adv-x="1306" 
d="M612 -12q-240 0 -377 120t-137 332q0 66 13 142q26 151 59 262t80 198t103.5 145.5t137 101t174 66.5t220.5 40l413 51l-8 -43l-405 -51q-112 -14 -194.5 -34t-155.5 -54t-124.5 -80.5t-96.5 -116t-77.5 -158.5t-60.5 -209q69 130 211.5 205.5t319.5 75.5
q229 0 368 -117.5t139 -312.5q0 -161 -78.5 -290t-216 -201t-307.5 -72zM612 29q117 0 220.5 39t177.5 107.5t116.5 165t42.5 206.5q0 179 -128 286t-341 107q-246 0 -402.5 -137.5t-156.5 -368.5q0 -192 124.5 -298.5t346.5 -106.5z" />
    <glyph glyph-name="uni0432" unicode="&#x432;" horiz-adv-x="1150" 
d="M43 0l184 1034h496q158 0 246 -59.5t88 -165.5q0 -116 -66.5 -187.5t-191.5 -91.5q109 -22 167 -82t58 -149q0 -141 -108.5 -220t-311.5 -79h-561zM96 41h512q179 0 274 67.5t95 188.5q0 98 -80 156.5t-215 58.5h-502zM186 553h506q318 0 318 250q0 91 -75.5 140.5
t-213.5 49.5h-455z" />
    <glyph glyph-name="uni0433" unicode="&#x433;" horiz-adv-x="876" 
d="M43 0l184 1034h719l-6 -43h-676l-174 -991h-47z" />
    <glyph glyph-name="uni0434" unicode="&#x434;" horiz-adv-x="1206" 
d="M-117 -276l56 319h112q83 58 131.5 173.5t93.5 371.5l78 446h783l-174 -991h131l-58 -319h-45l49 276h-1063l-49 -276h-45zM918 43l165 950h-692l-72 -411q-43 -245 -87.5 -361.5t-118.5 -177.5h805z" />
    <glyph glyph-name="uni0435" unicode="&#x435;" horiz-adv-x="1288" 
d="M582 -12q-223 0 -359.5 124t-136.5 332q0 169 82 307t226 217t319 79q229 0 362 -116t133 -317q0 -23 -4 -69h-1063q-10 -55 -10 -99q0 -191 124 -304t329 -113q186 0 323 80t209 231h45q-72 -168 -223.5 -260t-355.5 -92zM147 584h1014v34q0 184 -120.5 286t-329.5 102
q-208 0 -363 -117.5t-201 -304.5z" />
    <glyph glyph-name="uni0436" unicode="&#x436;" horiz-adv-x="1609" 
d="M-70 0l527 535l-297 499h51l285 -481h295l83 481h46l-84 -481h292l453 481h53l-471 -499l334 -535h-53l-320 512h-297l-90 -512h-45l90 512h-293l-501 -512h-58z" />
    <glyph glyph-name="uni0437" unicode="&#x437;" horiz-adv-x="1122" 
d="M510 -12q-225 0 -343 75t-124 222h45q15 -256 424 -256q202 0 319 70t117 192q0 104 -82 159.5t-237 55.5h-213l6 41h215q167 0 264.5 63.5t97.5 171.5q0 106 -97 165t-273 59q-201 0 -314.5 -62.5t-148.5 -191.5h-45q40 150 165.5 222.5t344.5 72.5q196 0 306 -70.5
t110 -196.5q0 -103 -84.5 -171.5t-225.5 -82.5q123 -12 189.5 -74t66.5 -163q0 -137 -131 -219t-352 -82z" />
    <glyph glyph-name="uni0438" unicode="&#x438;" horiz-adv-x="1259" 
d="M43 0l184 1034h43l-170 -966l1076 966h41l-183 -1034h-45l172 967l-1075 -967h-43z" />
    <glyph glyph-name="uni0439" unicode="&#x439;" horiz-adv-x="1259" 
d="M43 0l184 1034h43l-170 -966l1076 966h41l-183 -1034h-45l172 967l-1075 -967h-43zM752 1196q-137 0 -203 62.5t-53 177.5h39q-9 -97 43 -150t180 -53q257 0 293 203h41q-20 -117 -106 -178.5t-234 -61.5z" />
    <glyph glyph-name="uni043A" unicode="&#x43a;" 
d="M43 0l184 1034h45l-86 -481h332l563 481h62l-586 -499l453 -535h-58l-432 512h-342l-88 -512h-47z" />
    <glyph glyph-name="uni043B" unicode="&#x43b;" horiz-adv-x="1216" 
d="M-82 0l8 43h33q135 0 202.5 107.5t119.5 396.5l86 487h804l-182 -1034h-45l174 991h-715l-79 -450q-54 -307 -132.5 -424t-234.5 -117h-39z" />
    <glyph glyph-name="uni043C" unicode="&#x43c;" horiz-adv-x="1546" 
d="M43 0l184 1034h54l409 -979l758 979h57l-182 -1034h-45l170 967l-746 -967h-36l-406 969l-170 -969h-47z" />
    <glyph glyph-name="uni043D" unicode="&#x43d;" horiz-adv-x="1249" 
d="M977 0l90 512h-889l-88 -512h-47l184 1034h45l-86 -481h889l84 481h45l-182 -1034h-45z" />
    <glyph glyph-name="uni043E" unicode="&#x43e;" horiz-adv-x="1323" 
d="M604 -12q-238 0 -378 124.5t-140 331.5q0 168 82.5 306t228 217.5t322.5 79.5q238 0 378 -124t140 -331q0 -167 -82.5 -305.5t-228 -218.5t-322.5 -80zM606 29q124 0 233 44t186.5 119.5t122 179t44.5 218.5q0 192 -127 304t-348 112q-166 0 -300.5 -74.5t-210 -202.5
t-75.5 -283q0 -192 127 -304.5t348 -112.5z" />
    <glyph glyph-name="uni043F" unicode="&#x43f;" horiz-adv-x="1222" 
d="M43 0l184 1034h951l-183 -1034h-45l176 991h-862l-174 -991h-47z" />
    <glyph glyph-name="uni0440" unicode="&#x440;" horiz-adv-x="1361" 
d="M-29 -410l254 1444h41l-51 -311q73 149 223 236.5t332 87.5q234 0 370 -122.5t136 -332.5q0 -168 -83 -306.5t-228 -218t-320 -79.5q-213 0 -341.5 96.5t-153.5 273.5l-134 -768h-45zM643 29q123 0 232 43.5t187 118t123.5 178.5t45.5 221q0 192 -126.5 304t-344.5 112
q-164 0 -299.5 -74.5t-212 -204t-76.5 -285.5q0 -193 125.5 -303t345.5 -110z" />
    <glyph glyph-name="uni0441" unicode="&#x441;" horiz-adv-x="1255" 
d="M598 -12q-234 0 -373 123.5t-139 332.5q0 257 175 430t439 173q205 0 333 -85t157 -239h-45q-28 135 -144 209t-303 74q-120 0 -225.5 -43t-180.5 -117.5t-118 -178.5t-43 -221q0 -192 126 -304.5t343 -112.5q169 0 300 77t183 207h45q-54 -150 -197 -237.5t-333 -87.5z
" />
    <glyph glyph-name="uni0442" unicode="&#x442;" horiz-adv-x="1116" 
d="M444 0l177 991h-517l9 43h1073l-6 -43h-514l-177 -991h-45z" />
    <glyph glyph-name="uni0443" unicode="&#x443;" 
d="M-94 -410l6 43h166q79 0 128 32t111 126l134 203l-332 1040h47l315 -989l647 989h52l-824 -1259q-70 -109 -128 -147t-150 -38h-172z" />
    <glyph glyph-name="uni0444" unicode="&#x444;" horiz-adv-x="1632" 
d="M631 -410l71 410h-36q-273 0 -426.5 120.5t-153.5 334.5q0 166 97 298t271 206.5t394 74.5h37l65 367h45l-65 -367h39q274 0 427.5 -120t153.5 -334q0 -166 -97.5 -298.5t-271.5 -207t-393 -74.5h-40l-72 -410h-45zM674 41h37l168 952h-37q-205 0 -367.5 -69t-253 -191.5
t-90.5 -275.5q0 -198 142 -307t401 -109zM756 41h39q204 0 366 69.5t252 192t90 275.5q0 198 -140.5 306.5t-399.5 108.5h-39z" />
    <glyph glyph-name="uni0445" unicode="&#x445;" horiz-adv-x="1075" 
d="M-70 0l586 530l-381 504h53l361 -477l528 477h60l-566 -510l396 -524h-56l-372 496l-549 -496h-60z" />
    <glyph glyph-name="uni0446" unicode="&#x446;" horiz-adv-x="1228" 
d="M43 0l186 1034h45l-178 -991h836l178 991h45l-176 -991h137l-57 -319h-47l51 276h-1020z" />
    <glyph glyph-name="uni0447" unicode="&#x447;" horiz-adv-x="1126" 
d="M856 0l78 440q-219 -75 -402 -75q-202 0 -305.5 71t-103.5 209q0 35 6 82l55 307h45l-55 -309q-6 -37 -6 -70q0 -247 375 -247q179 0 397 79l98 547h45l-182 -1034h-45z" />
    <glyph glyph-name="uni0448" unicode="&#x448;" horiz-adv-x="1695" 
d="M43 0l184 1034h45l-174 -991h643l177 991h45l-177 -991h644l176 991h45l-183 -1034h-1425z" />
    <glyph glyph-name="uni0449" unicode="&#x449;" horiz-adv-x="1724" 
d="M43 0l184 1034h45l-174 -991h643l177 991h45l-177 -991h644l176 991h45l-174 -991h137l-58 -319h-47l52 276h-1518z" />
    <glyph glyph-name="uni044A" unicode="&#x44a;" horiz-adv-x="1427" 
d="M354 0l176 991h-426l9 43h469l-72 -399h426q186 0 282.5 -68t96.5 -200q0 -175 -111 -271t-313 -96h-537zM406 41h485q185 0 282 83t97 241q0 229 -340 229h-426z" />
    <glyph glyph-name="uni044B" unicode="&#x44b;" horiz-adv-x="1368" 
d="M43 0l184 1034h45l-71 -399h395q186 0 283.5 -68t97.5 -200q0 -175 -111 -271t-313 -96h-510zM96 41h457q183 0 280 83t97 241q0 229 -340 229h-395zM1098 0l182 1034h45l-182 -1034h-45z" />
    <glyph glyph-name="uni044C" unicode="&#x44c;" 
d="M43 0l184 1034h45l-71 -399h424q186 0 283.5 -68t97.5 -200q0 -175 -111 -271t-313 -96h-539zM96 41h486q183 0 279.5 83t96.5 241q0 229 -340 229h-423z" />
    <glyph glyph-name="uni044D" unicode="&#x44d;" horiz-adv-x="1255" 
d="M553 -12q-204 0 -331.5 84.5t-155.5 238.5h45q28 -134 144 -208t302 -74q217 0 371.5 132t187.5 337h-682l8 41h678q2 16 2 51q0 192 -126 304t-343 112q-169 0 -298.5 -77t-182.5 -208h-45q54 150 197 238t331 88q234 0 373 -124t139 -333q0 -169 -78.5 -306.5
t-219.5 -216.5t-316 -79z" />
    <glyph glyph-name="uni044E" unicode="&#x44e;" horiz-adv-x="1753" 
d="M43 0l184 1034h45l-86 -489h340q23 144 109.5 258.5t220.5 179t293 64.5q238 0 378 -124t140 -331q0 -167 -82.5 -305.5t-228 -218.5t-322.5 -80q-237 0 -376.5 124.5t-139.5 331.5q0 40 2 60h-342l-88 -504h-47zM1036 29q166 0 300.5 75t210 203.5t75.5 282.5
q0 192 -127 304t-348 112q-124 0 -233 -43.5t-185.5 -118.5t-121 -178.5t-44.5 -219.5q0 -192 126.5 -304.5t346.5 -112.5z" />
    <glyph glyph-name="uni044F" unicode="&#x44f;" horiz-adv-x="1114" 
d="M844 0l74 414h-416l-475 -414h-64l483 416q-160 6 -253 81t-93 201q0 156 109.5 246t298.5 90h563l-182 -1034h-45zM473 455h451l96 538h-512q-167 0 -264 -79t-97 -214q0 -114 86.5 -179.5t239.5 -65.5z" />
    <glyph glyph-name="uni0450" unicode="&#x450;" horiz-adv-x="1288" 
d="M582 -12q-223 0 -359.5 124t-136.5 332q0 169 82 307t226 217t319 79q229 0 362 -116t133 -317q0 -23 -4 -69h-1063q-10 -55 -10 -99q0 -191 124 -304t329 -113q186 0 323 80t209 231h45q-72 -168 -223.5 -260t-355.5 -92zM147 584h1014v34q0 184 -120.5 286t-329.5 102
q-208 0 -363 -117.5t-201 -304.5zM733 1171l-203 265h58l188 -265h-43z" />
    <glyph glyph-name="uni0451" unicode="&#x451;" horiz-adv-x="1288" 
d="M582 -12q-223 0 -359.5 124t-136.5 332q0 169 82 307t226 217t319 79q229 0 362 -116t133 -317q0 -23 -4 -69h-1063q-10 -55 -10 -99q0 -191 124 -304t329 -113q186 0 323 80t209 231h45q-72 -168 -223.5 -260t-355.5 -92zM147 584h1014v34q0 184 -120.5 286t-329.5 102
q-208 0 -363 -117.5t-201 -304.5zM969 1292q-18 0 -28.5 10t-10.5 25q0 19 13.5 32t33.5 13q17 0 27 -10.5t10 -26.5q0 -19 -13 -31t-32 -12zM594 1292q-17 0 -27 10t-10 25q0 19 13 32t32 13q18 0 28.5 -10.5t10.5 -26.5q0 -19 -13.5 -31t-33.5 -12z" />
    <glyph glyph-name="uni0452" unicode="&#x452;" horiz-adv-x="1314" 
d="M637 -410l8 43h170q90 0 140 46t67 145l121 690q14 82 14 137q0 174 -99 263.5t-292 89.5q-196 0 -338 -115.5t-180 -335.5l-98 -553h-46l215 1223h-221l4 41h224l30 170h45l-30 -170h454l-4 -41h-456l-84 -480q66 148 196.5 226t292.5 78q210 0 321 -101t111 -291
q0 -48 -14 -141l-121 -692q-22 -120 -83 -176t-171 -56h-176z" />
    <glyph glyph-name="uni0453" unicode="&#x453;" horiz-adv-x="876" 
d="M43 0l184 1034h719l-6 -43h-676l-174 -991h-47zM532 1171l267 265h59l-276 -265h-50z" />
    <glyph glyph-name="uni0454" unicode="&#x454;" horiz-adv-x="1255" 
d="M598 -12q-234 0 -373 123.5t-139 332.5q0 257 175 430t439 173q205 0 333 -85t157 -239h-45q-28 135 -144 209t-303 74q-218 0 -373 -131.5t-188 -335.5h676l-6 -41h-674q-2 -16 -2 -52q0 -192 126 -304.5t343 -112.5q169 0 300 77t183 207h45q-54 -150 -197 -237.5
t-333 -87.5z" />
    <glyph glyph-name="uni0455" unicode="&#x455;" 
d="M514 -12q-205 0 -337 82.5t-136 226.5h45q6 -128 126.5 -198t301.5 -70q193 0 313.5 64.5t120.5 182.5q0 95 -86.5 145.5t-300.5 84.5q-231 39 -325.5 96.5t-94.5 165.5q0 130 126 204.5t345 74.5q198 0 320.5 -73.5t126.5 -207.5h-45q-4 115 -115 177.5t-287 62.5
q-197 0 -311.5 -63t-114.5 -173q0 -92 84 -138.5t299 -82.5q234 -40 329 -98.5t95 -169.5q0 -137 -133.5 -215t-345.5 -78z" />
    <glyph glyph-name="uni0456" unicode="&#x456;" horiz-adv-x="315" 
d="M43 0l184 1034h45l-182 -1034h-47zM299 1294q-39 0 -39 37q0 19 13.5 31t33.5 12q17 0 27 -10t10 -25q0 -20 -13 -32.5t-32 -12.5z" />
    <glyph glyph-name="uni0457" unicode="&#x457;" horiz-adv-x="315" 
d="M43 0l184 1034h45l-182 -1034h-47zM184 1294q-34 0 -34 35q0 20 12 32.5t31 12.5q34 0 34 -35q0 -19 -12 -32t-31 -13zM412 1294q-17 0 -26 9.5t-9 25.5q0 20 12 32.5t31 12.5q17 0 27 -10t10 -25q0 -19 -13 -32t-32 -13z" />
    <glyph glyph-name="uni0458" unicode="&#x458;" horiz-adv-x="325" 
d="M-360 -410l6 43h172q89 0 138.5 45.5t68.5 145.5l213 1210h45l-215 -1212q-20 -120 -81 -176t-171 -56h-176zM307 1294q-39 0 -39 37q0 19 13.5 31t33.5 12q17 0 27 -10t10 -25q0 -20 -13 -32.5t-32 -12.5z" />
    <glyph glyph-name="uni0459" unicode="&#x459;" horiz-adv-x="1937" 
d="M-82 0l8 43h33q135 0 202.5 107.5t119.5 396.5l86 487h782l-78 -444h424q153 0 239.5 -67t86.5 -187q0 -155 -103 -245.5t-280 -90.5h-516l174 991h-693l-79 -450q-54 -307 -132.5 -424t-234.5 -117h-39zM973 41h465q154 0 245 79.5t91 213.5q0 101 -75 158t-210 57h-424
z" />
    <glyph glyph-name="uni045A" unicode="&#x45a;" horiz-adv-x="1949" 
d="M936 0l96 543h-846l-96 -543h-47l184 1034h45l-79 -450h845l80 450h45l-80 -448h420q155 0 242.5 -66.5t87.5 -185.5q0 -154 -104 -244t-281 -90h-512zM987 41h461q155 0 247.5 79.5t92.5 211.5q0 101 -77 157t-214 56h-420z" />
    <glyph glyph-name="uni045B" unicode="&#x45b;" horiz-adv-x="1314" 
d="M98 1223l4 41h228l30 170h46l-31 -170h450l-4 -41h-452l-84 -480q66 148 196 226t291 78q210 0 322 -101.5t112 -290.5q0 -56 -16 -141l-88 -514h-45l88 514q14 66 14 137q0 173 -98.5 263t-290.5 90q-197 0 -338.5 -115t-181.5 -336l-98 -553h-46l218 1223h-226z" />
    <glyph glyph-name="uni045C" unicode="&#x45c;" 
d="M43 0l184 1034h45l-86 -481h332l563 481h62l-586 -499l453 -535h-58l-432 512h-342l-88 -512h-47zM657 1171l267 265h59l-276 -265h-50z" />
    <glyph glyph-name="uni045D" unicode="&#x45d;" horiz-adv-x="1259" 
d="M43 0l184 1034h43l-170 -966l1076 966h41l-183 -1034h-45l172 967l-1075 -967h-43zM721 1171l-203 265h57l191 -265h-45z" />
    <glyph glyph-name="uni045E" unicode="&#x45e;" 
d="M-94 -410l6 43h166q79 0 128 32t111 126l134 203l-332 1040h47l315 -989l647 989h52l-824 -1259q-70 -109 -128 -147t-150 -38h-172zM680 1196q-137 0 -204 62.5t-54 177.5h39q-9 -97 43 -150t180 -53q257 0 293 203h41q-20 -117 -106 -178.5t-232 -61.5z" />
    <glyph glyph-name="uni045F" unicode="&#x45f;" horiz-adv-x="1200" 
d="M434 -276l49 276h-440l186 1034h45l-178 -991h836l178 991h45l-184 -1034h-443l-49 -276h-45z" />
    <glyph glyph-name="uni0462" unicode="&#x462;" horiz-adv-x="1390" 
d="M166 1221l6 43h166l31 170h47l-31 -170h557l-6 -43h-559l-70 -392h510q227 0 355 -97.5t128 -272.5q0 -207 -136 -333t-363 -126h-686l217 1221h-166zM168 45h635q205 0 327.5 112t122.5 298q0 157 -114 244t-318 87h-520z" />
    <glyph glyph-name="uni0463" unicode="&#x463;" 
d="M55 993l6 41h166l72 400h45l-72 -400h521l-7 -41h-522l-63 -358h424q186 0 283.5 -68t97.5 -200q0 -175 -111 -271t-313 -96h-537l176 993h-166zM96 41h486q185 0 282 83t97 241q0 229 -343 229h-423z" />
    <glyph glyph-name="uni0472" unicode="&#x472;" horiz-adv-x="1769" 
d="M838 -12q-207 0 -366.5 81t-247 229.5t-87.5 340.5q0 226 113.5 411t312 290.5t441.5 105.5q207 0 366 -81t246.5 -229.5t87.5 -340.5q0 -169 -66.5 -319t-181.5 -257t-275.5 -169t-342.5 -62zM1268 623q-76 0 -171.5 22.5t-172.5 49t-172.5 49t-171.5 22.5
q-209 0 -394 -80q-2 -14 -2 -47q0 -273 180.5 -439.5t475.5 -166.5q211 0 388.5 85.5t288.5 237.5t134 342q-173 -75 -383 -75zM190 735q184 76 396 76q79 0 174.5 -22.5t170.5 -49t169.5 -49t171.5 -22.5q208 0 383 77q2 16 2 48q0 275 -180.5 441.5t-475.5 166.5
q-211 0 -388.5 -86t-288.5 -238t-134 -342z" />
    <glyph glyph-name="uni0473" unicode="&#x473;" horiz-adv-x="1323" 
d="M604 -12q-238 0 -378 124.5t-140 331.5q0 168 82.5 306t228 217.5t322.5 79.5q238 0 378 -124t140 -331q0 -167 -82.5 -305.5t-228 -218.5t-322.5 -80zM133 516q139 68 301 68q72 0 229 -46t234 -46q159 0 297 69v29q0 193 -127.5 305.5t-349.5 112.5
q-232 0 -394.5 -139.5t-189.5 -352.5zM606 29q230 0 393 138.5t191 348.5q-136 -65 -299 -65q-77 0 -232 47t-231 47q-159 0 -299 -70v-29q0 -192 127.5 -304.5t349.5 -112.5z" />
    <glyph glyph-name="uni0474" unicode="&#x474;" horiz-adv-x="1505" 
d="M596 0l-408 1434h50l391 -1379l489 891q81 147 147.5 243t126 149.5t112 74.5t114.5 21h49l-8 -45h-45q-52 0 -98 -19.5t-100 -69t-116.5 -140t-138.5 -228.5l-512 -932h-53z" />
    <glyph glyph-name="uni0475" unicode="&#x475;" horiz-adv-x="1183" 
d="M430 0l-311 1034h45l299 -983l397 699q91 163 167.5 223.5t199.5 60.5h16l-8 -43h-16q-103 0 -171.5 -56.5t-148.5 -201.5l-416 -733h-53z" />
    <glyph glyph-name="uni0490" unicode="&#x490;" horiz-adv-x="1146" 
d="M57 0l254 1434h910l49 278h47l-57 -323h-908l-248 -1389h-47z" />
    <glyph glyph-name="uni0491" unicode="&#x491;" horiz-adv-x="878" 
d="M43 0l184 1034h676l49 277h45l-57 -320h-676l-174 -991h-47z" />
    <glyph glyph-name="uni0492" unicode="&#x492;" horiz-adv-x="1210" 
d="M113 0l120 694h-159l6 43h164l123 697h952l-8 -45h-905l-115 -652h579l-8 -43h-581l-121 -694h-47z" />
    <glyph glyph-name="uni0493" unicode="&#x493;" horiz-adv-x="923" 
d="M90 0l88 494h-160l7 41h159l88 499h721l-8 -43h-674l-82 -456h443l-6 -41h-443l-88 -494h-45z" />
    <glyph glyph-name="uni0496" unicode="&#x496;" horiz-adv-x="2248" 
d="M-43 0l713 733l-414 701h53l402 -680h393l121 680h47l-121 -680h385l641 680h59l-659 -701l424 -688h139l-57 -338h-47l51 293h-113l-436 711h-393l-127 -711h-47l127 711h-391l-689 -711h-61z" />
    <glyph glyph-name="uni0497" unicode="&#x497;" horiz-adv-x="1712" 
d="M-70 0l527 535l-297 499h51l285 -481h295l83 481h46l-84 -481h292l453 481h53l-471 -499l307 -492h136l-58 -332h-45l49 289h-108l-320 512h-297l-90 -512h-45l90 512h-293l-501 -512h-58z" />
    <glyph glyph-name="uni049A" unicode="&#x49a;" horiz-adv-x="1466" 
d="M57 0l254 1434h47l-120 -680h413l740 680h63l-762 -699l520 -690h148l-57 -338h-48l52 293h-115l-537 711h-424l-127 -711h-47z" />
    <glyph glyph-name="uni049B" unicode="&#x49b;" horiz-adv-x="1220" 
d="M43 0l184 1034h45l-86 -481h332l563 481h62l-586 -499l416 -492h141l-57 -332h-45l49 289h-109l-432 512h-342l-88 -512h-47z" />
    <glyph glyph-name="uni04A2" unicode="&#x4a2;" horiz-adv-x="1546" 
d="M57 0l254 1434h47l-120 -680h1091l121 680h47l-246 -1389h158l-59 -338h-47l49 293h-156l125 711h-1090l-127 -711h-47z" />
    <glyph glyph-name="uni04A3" unicode="&#x4a3;" horiz-adv-x="1280" 
d="M977 0l90 512h-889l-88 -512h-47l184 1034h45l-86 -481h889l84 481h45l-174 -991h137l-57 -319h-47l51 276h-137z" />
    <glyph glyph-name="uni04AE" unicode="&#x4ae;" horiz-adv-x="1433" 
d="M602 0l94 526l-508 908h54l483 -861l784 861h60l-826 -908l-94 -526h-47z" />
    <glyph glyph-name="uni04AF" unicode="&#x4af;" horiz-adv-x="1126" 
d="M379 -410l72 412l-332 1032l49 -2l311 -977l658 979h51l-692 -1034l-72 -410h-45z" />
    <glyph glyph-name="uni04B0" unicode="&#x4b0;" horiz-adv-x="1433" 
d="M602 0l88 489h-397l8 41h393l-506 904h54l483 -861l784 861h60l-821 -904h393l-8 -41h-396l-88 -489h-47z" />
    <glyph glyph-name="uni04B1" unicode="&#x4b1;" horiz-adv-x="1126" 
d="M379 -410l63 369h-350l6 41h353v2l-332 1032l49 -2l311 -977l658 979h51l-692 -1034h352l-8 -41h-353l-63 -369h-45z" />
    <glyph glyph-name="uni04B2" unicode="&#x4b2;" horiz-adv-x="1478" 
d="M-43 0l756 737l-463 697h55l443 -664l669 664h62l-707 -701l457 -688h143l-57 -338h-47l51 293h-117l-465 698l-719 -698h-61z" />
    <glyph glyph-name="uni04B3" unicode="&#x4b3;" horiz-adv-x="1177" 
d="M-70 0l586 530l-381 504h53l361 -477l528 477h60l-566 -510l363 -481h137l-57 -332h-45l49 289h-107l-372 496l-549 -496h-60z" />
    <glyph glyph-name="uni04B6" unicode="&#x4b6;" horiz-adv-x="1441" 
d="M1090 0l122 676q-118 -53 -267 -84t-292 -31q-485 0 -485 344q0 54 14 133l70 396h47l-70 -394q-12 -62 -12 -129q0 -157 109 -231t333 -74q143 0 293 32t267 87l127 709h47l-248 -1389h160l-60 -338h-47l49 293h-157z" />
    <glyph glyph-name="uni04B7" unicode="&#x4b7;" horiz-adv-x="1159" 
d="M856 0l78 440q-219 -75 -402 -75q-202 0 -305.5 71t-103.5 209q0 35 6 82l55 307h45l-55 -309q-6 -37 -6 -70q0 -247 375 -247q179 0 397 79l98 547h45l-174 -991h138l-58 -319h-47l51 276h-137z" />
    <glyph glyph-name="uni04BA" unicode="&#x4ba;" horiz-adv-x="1380" 
d="M360 1434l-120 -676q118 53 266.5 83.5t292.5 30.5q242 0 362.5 -85t120.5 -259q0 -54 -14 -133l-70 -395h-47l70 393q14 72 14 129q0 157 -109.5 231t-334.5 74q-143 0 -292.5 -31.5t-267.5 -86.5l-127 -709h-47l256 1434h47z" />
    <glyph glyph-name="uni04BB" unicode="&#x4bb;" horiz-adv-x="1253" 
d="M43 0l254 1434h45l-121 -691q66 148 196.5 226t291.5 78q210 0 322 -101.5t112 -290.5q0 -42 -15 -141l-90 -514h-45l88 514q15 70 15 137q0 173 -98.5 263t-290.5 90q-129 0 -235 -48t-182 -151.5t-102 -251.5l-98 -553h-47z" />
    <glyph glyph-name="uni04C0" unicode="&#x4c0;" horiz-adv-x="346" 
d="M57 0l254 1434h47l-254 -1434h-47z" />
    <glyph glyph-name="uni04CF" unicode="&#x4cf;" horiz-adv-x="315" 
d="M43 0l254 1434h47l-254 -1434h-47z" />
    <glyph glyph-name="uni04D8" unicode="&#x4d8;" horiz-adv-x="1650" 
d="M760 -12q-345 0 -513.5 198t-107.5 537h1395q2 23 2 72q0 279 -174 442.5t-471 163.5q-234 0 -399.5 -98.5t-243.5 -284.5h-47q83 206 262 317t430 111q315 0 502.5 -176.5t187.5 -474.5q0 -176 -61 -326t-168.5 -256t-260.5 -165.5t-333 -59.5zM1528 678h-1346
q-51 -297 108.5 -471t475.5 -174q308 -1 516.5 176.5t245.5 468.5z" />
    <glyph glyph-name="uni04D9" unicode="&#x4d9;" horiz-adv-x="1288" 
d="M707 1047q223 0 359 -124.5t136 -332.5q0 -169 -82 -307t-226 -216.5t-319 -78.5q-229 0 -363 116t-134 316q0 39 6 69h1061q10 41 10 101q0 191 -122.5 303.5t-327.5 112.5q-186 0 -323.5 -80.5t-211.5 -231.5h-45q72 169 224 261t358 92zM1139 451h-1012q-2 -18 -2 -35
q0 -184 121.5 -285.5t331.5 -101.5q207 0 361.5 118t199.5 304z" />
    <glyph glyph-name="uni04E2" unicode="&#x4e2;" horiz-adv-x="1495" 
d="M57 0l254 1434h47l-241 -1360l1345 1360h45l-254 -1434h-47l242 1360l-1344 -1360h-47zM680 1718l6 39h584l-8 -39h-582z" />
    <glyph glyph-name="uni04E3" unicode="&#x4e3;" horiz-adv-x="1259" 
d="M43 0l184 1034h43l-170 -966l1076 966h41l-183 -1034h-45l172 967l-1075 -967h-43zM479 1319l8 39h584l-8 -39h-584z" />
    <glyph glyph-name="uni04E8" unicode="&#x4e8;" horiz-adv-x="1769" 
d="M838 -12q-207 0 -366.5 81t-247 229.5t-87.5 340.5q0 226 113.5 411t312 290.5t441.5 105.5q207 0 366 -81t246.5 -229.5t87.5 -340.5q0 -169 -66.5 -319t-181.5 -257t-275.5 -169t-342.5 -62zM840 33q158 0 300 49.5t248 137t175.5 210t87.5 264.5h-1465q-2 -18 -2 -55
q0 -273 180.5 -439.5t475.5 -166.5zM190 739h1465q2 18 2 54q0 275 -180.5 441.5t-475.5 166.5q-157 0 -298.5 -50t-248 -137t-176 -210t-88.5 -265z" />
    <glyph glyph-name="uni04E9" unicode="&#x4e9;" horiz-adv-x="1323" 
d="M604 -12q-238 0 -378 124.5t-140 331.5q0 168 82.5 306t228 217.5t322.5 79.5q238 0 378 -124t140 -331q0 -167 -82.5 -305.5t-228 -218.5t-322.5 -80zM135 537h1057q2 18 2 53q0 193 -127.5 305.5t-349.5 112.5q-226 0 -387.5 -133t-194.5 -338zM606 29
q224 0 385.5 133.5t194.5 335.5h-1055q-2 -16 -2 -52q0 -192 127.5 -304.5t349.5 -112.5z" />
    <glyph glyph-name="uni04EE" unicode="&#x4ee;" horiz-adv-x="1372" 
d="M102 0l11 45h102q135 0 204.5 35t147.5 141l103 144l-482 1069h54l460 -1026l748 1026h55l-895 -1225q-89 -124 -169.5 -166.5t-227.5 -42.5h-111zM604 1718l6 39h584l-8 -39h-582z" />
    <glyph glyph-name="uni04EF" unicode="&#x4ef;" 
d="M-94 -410l6 43h166q79 0 128 32t111 126l134 203l-332 1040h47l315 -989l647 989h52l-824 -1259q-70 -109 -128 -147t-150 -38h-172zM406 1319l8 39h581l-6 -39h-583z" />
    <glyph glyph-name="glyph00054" horiz-adv-x="370" 
d="M-242 -410l9 43h94q91 0 140.5 45.5t66.5 145.5l213 1210h45l-213 -1212q-22 -120 -82.5 -176t-169.5 -56h-103zM352 1294q-37 0 -37 37q0 19 13 31t32 12q18 0 28.5 -10t10.5 -25q0 -20 -13.5 -32.5t-33.5 -12.5z" />
    </font>
</defs>
</svg>
