<?xml version="1.0" standalone="no"?>
<!DOCTYPE svg PUBLIC "-//W3C//DTD SVG 1.1//EN" "http://www.w3.org/Graphics/SVG/1.1/DTD/svg11.dtd" >
<svg xmlns="http://www.w3.org/2000/svg" xmlns:xlink="http://www.w3.org/1999/xlink" version="1.1">
<metadata>
Created by FontForge 20201107 at Fri Nov 14 04:01:47 2025
 By 
Copyright 2025 CoType Foundry. All Rights Reserved.
</metadata>
<defs>
<font id="AeonikFonoProTRIAL-Bold" horiz-adv-x="1310" >
  <font-face 
    font-family="Aeonik Fono Pro TRIAL"
    font-weight="700"
    font-stretch="normal"
    units-per-em="2048"
    panose-1="2 11 8 4 3 3 0 0 0 0"
    ascent="1638"
    descent="-410"
    x-height="1053"
    cap-height="1434"
    bbox="-37 -422 1755 1860"
    underline-thickness="176"
    underline-position="-262"
    unicode-range="U+0020-04EF"
  />
<missing-glyph horiz-adv-x="1351" 
d="M164 -223v1698h1024v-1698h-1024zM362 -18h95v112h57q62 0 99.5 34t37.5 91q0 58 -37.5 92.5t-99.5 34.5h-152v-364zM457 172v96h49q22 0 35.5 -13t13.5 -36q0 -22 -13.5 -34.5t-35.5 -12.5h-49zM733 -18h256v81h-160v64h123v76h-123v61h154v82h-250v-364zM432 455h96
v282h103v82h-299v-82h100v-282zM799 455h96v135l131 229h-106l-72 -133l-68 133h-112l131 -229v-135zM485 926q66 0 106.5 38t45.5 99h-94q-13 -59 -62 -59q-71 0 -71 106q0 107 71 107q48 0 62 -62h94q-5 63 -45.5 101t-106.5 38q-84 0 -129 -49t-45 -135t45 -135t129 -49z
M848 926q81 0 129.5 51.5t48.5 132.5q0 80 -49 132t-129 52q-81 0 -129.5 -52t-48.5 -132q0 -81 48 -132.5t130 -51.5zM848 1004q-39 0 -59.5 29.5t-20.5 76.5q0 48 21 77.5t59 29.5t59 -29.5t21 -77.5q0 -47 -20.5 -76.5t-59.5 -29.5z" />
    <glyph glyph-name=".notdef" horiz-adv-x="1351" 
d="M164 -223v1698h1024v-1698h-1024zM362 -18h95v112h57q62 0 99.5 34t37.5 91q0 58 -37.5 92.5t-99.5 34.5h-152v-364zM457 172v96h49q22 0 35.5 -13t13.5 -36q0 -22 -13.5 -34.5t-35.5 -12.5h-49zM733 -18h256v81h-160v64h123v76h-123v61h154v82h-250v-364zM432 455h96
v282h103v82h-299v-82h100v-282zM799 455h96v135l131 229h-106l-72 -133l-68 133h-112l131 -229v-135zM485 926q66 0 106.5 38t45.5 99h-94q-13 -59 -62 -59q-71 0 -71 106q0 107 71 107q48 0 62 -62h94q-5 63 -45.5 101t-106.5 38q-84 0 -129 -49t-45 -135t45 -135t129 -49z
M848 926q81 0 129.5 51.5t48.5 132.5q0 80 -49 132t-129 52q-81 0 -129.5 -52t-48.5 -132q0 -81 48 -132.5t130 -51.5zM848 1004q-39 0 -59.5 29.5t-20.5 76.5q0 48 21 77.5t59 29.5t59 -29.5t21 -77.5q0 -47 -20.5 -76.5t-59.5 -29.5z" />
    <glyph glyph-name=".null" horiz-adv-x="0" 
 />
    <glyph glyph-name="nonmarkingreturn" horiz-adv-x="682" 
 />
    <glyph glyph-name="space" unicode=" " horiz-adv-x="669" 
 />
    <glyph glyph-name="comma" unicode="," horiz-adv-x="649" 
d="M131 -293v152q94 0 145.5 41t51.5 100q0 21 -2 29q-34 -17 -72 -17q-61 0 -102 43t-41 119q0 72 52 121t134 49q101 0 163 -78t62 -203q0 -167 -107 -261.5t-284 -94.5z" />
    <glyph glyph-name="hyphen" unicode="-" horiz-adv-x="983" 
d="M133 465v235h717v-235h-717z" />
    <glyph glyph-name="period" unicode="." horiz-adv-x="649" 
d="M324 -12q-78 0 -129.5 50t-51.5 128q0 77 51.5 127.5t129.5 50.5t130 -51t52 -127q0 -78 -52 -128t-130 -50z" />
    <glyph glyph-name="zero" unicode="0" horiz-adv-x="1302" 
d="M651 -12q-255 0 -398.5 183t-143.5 513v66q0 323 144.5 509.5t397.5 186.5t398 -186.5t145 -509.5v-66q0 -330 -144 -513t-399 -183zM651 221q254 0 254 473v45q0 59 -6 115l-444 -502q62 -131 196 -131zM403 582l447 497q-64 135 -199 135q-254 0 -254 -475v-45
q0 -60 6 -112z" />
    <glyph glyph-name="one" unicode="1" horiz-adv-x="1107" 
d="M92 0v248h340v665q-27 -8 -70 -8h-264v244h232q51 0 78.5 41.5t27.5 103.5v140h289v-1186h317v-248h-950z" />
    <glyph glyph-name="two" unicode="2" horiz-adv-x="1169" 
d="M70 0v227l528 451q99 85 146 154.5t47 150.5q0 103 -57.5 159t-151.5 56q-98 0 -159 -67.5t-61 -182.5v-22h-296v41q0 207 141.5 343t374.5 136q241 0 373 -122.5t132 -328.5q0 -145 -68 -253t-214 -232l-305 -262h596v-248h-1026z" />
    <glyph glyph-name="three" unicode="3" horiz-adv-x="1245" 
d="M612 -12q-252 0 -396 125.5t-144 353.5h293q3 -119 71 -183.5t178 -64.5q98 0 161 55t63 150q0 87 -57 135.5t-169 48.5h-141v238h123q109 0 165 51t56 139q0 84 -60 131t-151 47q-96 0 -158.5 -60t-66.5 -159h-287q3 203 147.5 327t370.5 124q232 0 367 -108t135 -287
q0 -118 -61 -197t-162 -113q111 -27 179.5 -110t68.5 -225q0 -188 -141 -303t-384 -115z" />
    <glyph glyph-name="four" unicode="4" horiz-adv-x="1251" 
d="M723 0v307h-666v244l584 883h371v-881h168v-246h-168v-307h-289zM340 553h383v580z" />
    <glyph glyph-name="five" unicode="5" horiz-adv-x="1245" 
d="M631 -12q-233 0 -374.5 125.5t-150.5 320.5h293q11 -91 72 -148t162 -57q94 0 161.5 67.5t67.5 188.5q0 115 -63 186.5t-168 71.5q-158 0 -230 -155l-282 26l39 820h917v-248h-649l-18 -320q105 111 282 111q210 0 339.5 -136t129.5 -356q0 -120 -41.5 -216t-114 -156.5
t-167.5 -92.5t-205 -32z" />
    <glyph glyph-name="six" unicode="6" horiz-adv-x="1300" 
d="M680 -12q-140 0 -252 56t-182 157q-137 193 -137 497q0 359 154.5 553.5t428.5 194.5q198 0 336 -108t164 -294h-289q-20 79 -77.5 121.5t-147.5 42.5q-135 0 -206 -105.5t-71 -303.5v-27q53 89 142 135.5t196 46.5q213 0 342 -128.5t129 -344.5q0 -220 -146.5 -356.5
t-383.5 -136.5zM682 217q105 0 169 70t64 184q0 116 -62 185t-169 69q-106 0 -169.5 -68.5t-63.5 -183.5q0 -113 63.5 -184.5t167.5 -71.5z" />
    <glyph glyph-name="seven" unicode="7" horiz-adv-x="1132" 
d="M141 0l584 1184h-680v250h1022v-191l-606 -1243h-320z" />
    <glyph glyph-name="eight" unicode="8" horiz-adv-x="1302" 
d="M651 -12q-255 0 -398.5 115t-143.5 303q0 130 66.5 219t172.5 127q-89 35 -147 114.5t-58 190.5q0 175 138.5 282t369.5 107t369.5 -107t138.5 -282q0 -106 -58.5 -187.5t-146.5 -117.5q105 -35 172.5 -124t67.5 -222q0 -189 -143.5 -303.5t-399.5 -114.5zM651 205
q109 0 176.5 58.5t67.5 150.5t-67.5 150.5t-176.5 58.5q-107 0 -174 -58.5t-67 -150.5t67 -150.5t174 -58.5zM651 858q96 0 154.5 51t58.5 135q0 82 -58.5 133.5t-154.5 51.5q-95 0 -154 -51.5t-59 -133.5q0 -83 59 -134.5t154 -51.5z" />
    <glyph glyph-name="nine" unicode="9" horiz-adv-x="1300" 
d="M618 1446q142 0 253.5 -55.5t183.5 -157.5q135 -195 135 -498q0 -358 -154.5 -552.5t-427.5 -194.5q-199 0 -337.5 107.5t-164.5 293.5h291q43 -164 224 -164q135 0 206.5 106t71.5 304q0 17 -2 27q-51 -89 -140 -136t-196 -47q-213 0 -343 128.5t-130 344.5
q0 220 147 357t383 137zM616 1217q-105 0 -168 -69.5t-63 -184.5q0 -116 62 -185t167 -69q106 0 170 68.5t64 183.5q0 114 -63.5 185t-168.5 71z" />
    <glyph glyph-name="A" unicode="A" horiz-adv-x="1378" 
d="M35 0l467 1434h377l467 -1434h-326l-98 313h-478l-96 -313h-313zM512 561h342l-172 555z" />
    <glyph glyph-name="B" unicode="B" horiz-adv-x="1318" 
d="M147 0v1434h527q240 0 371 -100t131 -279q0 -128 -67 -209t-191 -109q145 -19 227 -101.5t82 -227.5q0 -191 -138 -299.5t-391 -108.5h-551zM455 238h233q110 0 168.5 48t58.5 136q0 89 -59.5 137.5t-167.5 48.5h-233v-370zM455 842h215q96 0 148 47t52 131
q0 83 -52 130.5t-148 47.5h-215v-356z" />
    <glyph glyph-name="C" unicode="C" horiz-adv-x="1372" 
d="M713 -12q-297 0 -461 191t-164 538t167.5 538t471.5 191q232 0 383.5 -140t179.5 -384h-309q-57 264 -264 264q-153 0 -233.5 -121t-80.5 -348t79 -348t231 -121q109 0 173.5 65t92.5 199h311q-28 -246 -181.5 -385t-395.5 -139z" />
    <glyph glyph-name="D" unicode="D" horiz-adv-x="1396" 
d="M147 0v1434h488q311 0 492.5 -194t181.5 -521q0 -326 -182.5 -522.5t-491.5 -196.5h-488zM455 256h180q177 0 267.5 121t90.5 342q0 219 -90.5 339t-267.5 120h-180v-922z" />
    <glyph glyph-name="E" unicode="E" horiz-adv-x="1177" 
d="M147 0v1434h924v-265h-616v-321h508v-252h-508v-332h641v-264h-949z" />
    <glyph glyph-name="F" unicode="F" horiz-adv-x="1136" 
d="M147 0v1434h928v-265h-620v-335h530v-267h-530v-567h-308z" />
    <glyph glyph-name="G" unicode="G" horiz-adv-x="1423" 
d="M684 -12q-271 0 -433.5 199.5t-162.5 529.5q0 342 166.5 535.5t464.5 193.5q233 0 387.5 -140t183.5 -382h-299q-44 266 -278 266q-155 0 -235.5 -121.5t-80.5 -351.5q0 -238 84 -355.5t256 -117.5q128 0 203.5 76.5t75.5 205.5v35h-279v236h559v-797h-221l-26 166
q-115 -178 -365 -178z" />
    <glyph glyph-name="H" unicode="H" horiz-adv-x="1398" 
d="M147 0v1434h308v-576h489v576h307v-1434h-307v592h-489v-592h-308z" />
    <glyph glyph-name="I" unicode="I" horiz-adv-x="1120" 
d="M113 0v256h295v922h-295v256h895v-256h-293v-922h293v-256h-895z" />
    <glyph glyph-name="J" unicode="J" horiz-adv-x="1243" 
d="M586 -12q-261 0 -394 141t-131 412h304q0 -146 54 -217.5t167 -71.5t166 69t53 216v641h-469v256h776v-895q0 -270 -133 -410.5t-393 -140.5z" />
    <glyph glyph-name="K" unicode="K" horiz-adv-x="1363" 
d="M147 0v1434h308v-643l497 643h353l-490 -613l524 -821h-360l-371 575l-153 -182v-393h-308z" />
    <glyph glyph-name="L" unicode="L" horiz-adv-x="1081" 
d="M147 0v1434h308v-1170h565v-264h-873z" />
    <glyph glyph-name="M" unicode="M" horiz-adv-x="1464" 
d="M147 0v1434h312l280 -721l271 721h307v-1434h-268v938l-240 -600h-154l-239 600v-938h-269z" />
    <glyph glyph-name="N" unicode="N" horiz-adv-x="1406" 
d="M147 0v1434h273l551 -887v887h289v-1434h-273l-551 889v-889h-289z" />
    <glyph glyph-name="O" unicode="O" horiz-adv-x="1413" 
d="M707 -12q-278 0 -448.5 199t-170.5 530t170.5 530t448.5 199q279 0 448.5 -199t169.5 -530t-169.5 -530t-448.5 -199zM707 248q151 0 228 118.5t77 350.5t-77 350.5t-228 118.5q-148 0 -226 -119t-78 -350t78 -350t226 -119z" />
    <glyph glyph-name="P" unicode="P" horiz-adv-x="1306" 
d="M147 0v1434h574q229 0 367.5 -130t138.5 -348q0 -216 -138.5 -345.5t-367.5 -129.5h-266v-481h-308zM455 737h223q108 0 172.5 59t64.5 160q0 103 -64 162.5t-173 59.5h-223v-441z" />
    <glyph glyph-name="Q" unicode="Q" horiz-adv-x="1429" 
d="M1176 0q-122 0 -183 55q-131 -67 -286 -67q-278 0 -448.5 199t-170.5 530t170.5 530t448.5 199q279 0 448.5 -199t169.5 -530q0 -283 -127 -473h111v-244h-133zM707 248q81 0 143 35l-51 86q-22 36 -44 50.5t-67 14.5h-113v242h125q81 0 123.5 -24.5t79.5 -86.5l72 -114
q37 107 37 266q0 232 -77 350.5t-228 118.5q-148 0 -226 -119t-78 -350t78 -350t226 -119z" />
    <glyph glyph-name="R" unicode="R" horiz-adv-x="1318" 
d="M147 0v1434h558q230 0 372 -130.5t142 -347.5q0 -136 -68 -242.5t-188 -160.5l288 -553h-342l-243 481h-211v-481h-308zM455 737h211q109 0 174 59.5t65 159.5q0 101 -65 161.5t-174 60.5h-211v-441z" />
    <glyph glyph-name="S" unicode="S" horiz-adv-x="1298" 
d="M670 -12q-261 0 -419 130.5t-161 350.5h301q9 -112 84 -175t197 -63q107 0 169 45t62 127t-70 121.5t-266 77.5q-227 44 -335.5 138.5t-108.5 271.5q0 193 144 313.5t374 120.5q243 0 389.5 -122.5t151.5 -328.5h-299q-12 98 -75.5 151.5t-166.5 53.5q-97 0 -154 -42.5
t-57 -119.5q0 -80 68.5 -116.5t265.5 -73.5q222 -41 334 -142t112 -280q0 -194 -150.5 -316t-389.5 -122z" />
    <glyph glyph-name="T" unicode="T" horiz-adv-x="1247" 
d="M471 0v1169h-410v265h1125v-265h-408v-1169h-307z" />
    <glyph glyph-name="U" unicode="U" horiz-adv-x="1372" 
d="M686 -12q-271 0 -413 144.5t-142 420.5v881h307v-887q0 -295 248 -295q250 0 250 295v887h307v-881q0 -275 -143 -420t-414 -145z" />
    <glyph glyph-name="V" unicode="V" horiz-adv-x="1327" 
d="M483 0l-463 1434h322l324 -1063l325 1063h316l-461 -1434h-363z" />
    <glyph glyph-name="W" unicode="W" horiz-adv-x="1458" 
d="M270 0l-231 1434h293l133 -1008l172 670h186l170 -670l144 1008h282l-233 -1434h-293l-166 664l-164 -664h-293z" />
    <glyph glyph-name="X" unicode="X" horiz-adv-x="1341" 
d="M39 0l422 733l-400 701h349l268 -482l274 482h330l-399 -697l422 -737h-353l-288 516l-295 -516h-330z" />
    <glyph glyph-name="Y" unicode="Y" horiz-adv-x="1335" 
d="M514 0v543l-491 891h348l299 -568l311 568h332l-492 -893v-541h-307z" />
    <glyph glyph-name="Z" unicode="Z" 
d="M102 0v203l680 966h-661v265h1069v-203l-678 -967h696v-264h-1106z" />
    <glyph glyph-name="a" unicode="a" horiz-adv-x="1193" 
d="M469 -12q-171 0 -278 82t-107 229q0 168 122.5 258t354.5 90h199v51q0 72 -48 114t-137 42q-78 0 -129 -35t-59 -94h-281q15 153 144.5 246.5t337.5 93.5q220 0 339.5 -98t119.5 -285v-373q0 -38 12.5 -51.5t46.5 -13.5h31v-244h-142q-187 0 -190 154
q-119 -166 -336 -166zM524 197q107 0 171.5 63t64.5 166v29h-203q-88 0 -135 -36t-47 -102q0 -56 40 -88t109 -32z" />
    <glyph glyph-name="b" unicode="b" 
d="M731 -12q-199 0 -307 147l-27 -135h-252v1434h289v-514q120 145 311 145q102 0 189.5 -37.5t151.5 -105.5t100.5 -169.5t36.5 -224.5q0 -242 -138.5 -391t-353.5 -149zM680 223q112 0 180 83.5t68 219.5t-68 219.5t-180 83.5q-115 0 -182.5 -83.5t-67.5 -217.5
q0 -137 67 -221t183 -84z" />
    <glyph glyph-name="c" unicode="c" horiz-adv-x="1204" 
d="M616 -12q-246 0 -387 144.5t-141 393.5q0 245 146.5 392t392.5 147q209 0 338 -108t159 -298h-301q-18 80 -69 125t-131 45q-109 0 -174.5 -84t-65.5 -219t65.5 -219t174.5 -84q80 0 132.5 46.5t67.5 127.5h303q-29 -190 -164 -299.5t-346 -109.5z" />
    <glyph glyph-name="d" unicode="d" 
d="M569 -12q-213 0 -347 146.5t-134 393.5q0 240 139 388.5t348 148.5q197 0 302 -133v502h288v-1434h-252l-28 147q-120 -159 -316 -159zM633 223q113 0 180.5 83t67.5 218q0 136 -67.5 220.5t-180.5 84.5q-114 0 -182 -84t-68 -219t68 -219t182 -84z" />
    <glyph glyph-name="e" unicode="e" horiz-adv-x="1232" 
d="M639 -12q-256 0 -403.5 145t-147.5 391t145.5 393.5t387.5 147.5q233 0 377 -138t145 -368q0 -53 -8 -100h-746v-13q4 -111 69.5 -175t170.5 -64q85 0 140.5 38t74.5 111h284q-24 -160 -155 -264t-334 -104zM395 649h459q-15 96 -76 148.5t-155 52.5q-92 0 -154 -54
t-74 -147z" />
    <glyph glyph-name="f" unicode="f" horiz-adv-x="983" 
d="M299 0v809h-246v244h246v77q0 148 80 226t237 78h306v-240h-252q-86 0 -86 -86v-55h338v-244h-334v-809h-289z" />
    <glyph glyph-name="g" unicode="g" 
d="M612 -422q-224 0 -357.5 99.5t-143.5 277.5h292q39 -158 230 -158q250 0 250 244v111q-111 -146 -305 -146q-217 0 -353.5 145t-136.5 381q0 233 136.5 383t346.5 150q208 0 318 -150l22 138h254v-1022q0 -217 -142.5 -335t-410.5 -118zM633 238q113 0 180.5 80.5
t67.5 213.5q0 134 -67.5 215.5t-180.5 81.5q-115 0 -182.5 -80t-67.5 -214t67.5 -215.5t182.5 -81.5z" />
    <glyph glyph-name="h" unicode="h" horiz-adv-x="1284" 
d="M145 0v1434h289v-502q110 133 301 133q189 0 302.5 -115.5t113.5 -357.5v-592h-289v565q0 118 -49.5 185t-153.5 67q-106 0 -165.5 -71t-59.5 -197v-549h-289z" />
    <glyph glyph-name="i" unicode="i" horiz-adv-x="1011" 
d="M86 0v244h289v565h-289v244h580v-809h278v-244h-858zM520 1190q-75 0 -125.5 48.5t-50.5 123.5q0 73 50.5 122.5t125.5 49.5t125.5 -49.5t50.5 -122.5q0 -75 -50.5 -123.5t-125.5 -48.5z" />
    <glyph glyph-name="j" unicode="j" horiz-adv-x="899" 
d="M41 -410v244h319q54 0 79.5 28t25.5 89v858h-424v244h713v-1143q0 -149 -77.5 -234.5t-225.5 -85.5h-410zM608 1190q-74 0 -125 49t-51 123q0 73 51 122.5t125 49.5q75 0 125.5 -49.5t50.5 -122.5q0 -75 -50.5 -123.5t-125.5 -48.5z" />
    <glyph glyph-name="k" unicode="k" horiz-adv-x="1208" 
d="M145 0v1434h289v-828l412 447h325l-380 -416l397 -637h-336l-264 426l-154 -168v-258h-289z" />
    <glyph glyph-name="l" unicode="l" horiz-adv-x="1001" 
d="M76 0v244h289v946h-289v244h579v-1190h277v-244h-856z" />
    <glyph glyph-name="m" unicode="m" horiz-adv-x="1695" 
d="M145 0v1053h234l14 -107q96 119 256 119q89 0 161 -40.5t112 -111.5q107 152 290 152q165 0 258 -103t93 -290v-672h-277v635q0 81 -35.5 130.5t-105.5 49.5q-72 0 -112 -51t-40 -131v-633h-278v635q0 180 -144 180q-72 0 -110.5 -50t-38.5 -132v-633h-277z" />
    <glyph glyph-name="n" unicode="n" horiz-adv-x="1273" 
d="M145 0v1053h252l27 -129q108 141 307 141q87 0 158 -25t129 -78t90.5 -147.5t32.5 -222.5v-592h-289v559q0 258 -201 258q-105 0 -161 -70t-56 -204v-543h-289z" />
    <glyph glyph-name="o" unicode="o" horiz-adv-x="1259" 
d="M629 -12q-243 0 -392 147.5t-149 390.5t149 391t392 148q244 0 393 -148t149 -391t-148.5 -390.5t-393.5 -147.5zM629 223q113 0 180.5 84t67.5 219t-67.5 219t-180.5 84q-111 0 -178.5 -84.5t-67.5 -218.5t67.5 -218.5t178.5 -84.5z" />
    <glyph glyph-name="p" unicode="p" horiz-adv-x="1308" 
d="M145 -410v1463h252l27 -144q121 156 317 156q210 0 345 -148t135 -393q0 -242 -134.5 -389t-343.5 -147q-198 0 -309 145v-543h-289zM678 223q113 0 180.5 84.5t67.5 220.5q0 135 -67.5 218t-180.5 83q-114 0 -181 -83t-67 -218q0 -136 67 -220.5t181 -84.5z" />
    <glyph glyph-name="q" unicode="q" 
d="M877 -410v545q-119 -147 -310 -147q-211 0 -345 145t-134 391q0 242 138 391.5t352 149.5q199 0 311 -143l24 131h252v-1463h-288zM633 223q113 0 180.5 84t67.5 219q0 136 -67.5 219.5t-180.5 83.5q-114 0 -182 -83t-68 -218t68 -220t182 -85z" />
    <glyph glyph-name="r" unicode="r" horiz-adv-x="1079" 
d="M86 0v244h213v565h-213v244h481l8 -183q97 183 314 183h121v-262h-172q-129 0 -189.5 -74.5t-60.5 -200.5v-272h289v-244h-791z" />
    <glyph glyph-name="s" unicode="s" horiz-adv-x="1120" 
d="M571 -12q-216 0 -350 97.5t-141 264.5h274q6 -68 64.5 -111.5t154.5 -43.5q187 0 187 114q0 53 -46 72.5t-169 34.5q-84 10 -143.5 21.5t-120 34t-97.5 53.5t-60.5 80.5t-23.5 115.5q0 156 122.5 250t322.5 94q209 0 339.5 -90.5t139.5 -247.5h-274q-8 60 -60.5 95.5
t-136.5 35.5q-83 0 -129.5 -27t-46.5 -79q0 -54 48.5 -75t170.5 -36q70 -8 120 -17t104.5 -24t91 -37t67.5 -53.5t46 -76.5t15 -103q0 -156 -129 -249t-340 -93z" />
    <glyph glyph-name="t" unicode="t" horiz-adv-x="1024" 
d="M602 0q-301 0 -301 301v508h-248v244h248v295h289v-295h344v-244h-344v-461q0 -56 23.5 -80t80.5 -24h244v-244h-336z" />
    <glyph glyph-name="u" unicode="u" horiz-adv-x="1267" 
d="M541 -12q-67 0 -124 13.5t-110.5 47.5t-91 86.5t-60 135.5t-22.5 190v592h289v-553q0 -130 46 -196t148 -66t160 72.5t58 207.5v535h288v-1053h-256l-24 127q-115 -139 -301 -139z" />
    <glyph glyph-name="v" unicode="v" horiz-adv-x="1175" 
d="M410 0l-385 1053h309l260 -758l256 758h303l-385 -1053h-358z" />
    <glyph glyph-name="w" unicode="w" horiz-adv-x="1396" 
d="M270 0l-223 1053h275l129 -723l159 585h189l157 -585l129 723h267l-226 -1053h-274l-152 535l-153 -535h-277z" />
    <glyph glyph-name="x" unicode="x" horiz-adv-x="1163" 
d="M23 0l389 537l-371 516h332l215 -310l223 310h311l-370 -516l391 -537h-332l-240 330l-237 -330h-311z" />
    <glyph glyph-name="y" unicode="y" horiz-adv-x="1181" 
d="M111 -410v244h170q55 0 80 18t47 72l26 70l-409 1059h307l260 -750l258 750h309l-473 -1203q-29 -73 -50.5 -114.5t-54.5 -78.5t-76 -52t-104 -15h-290z" />
    <glyph glyph-name="z" unicode="z" horiz-adv-x="1132" 
d="M86 0v209l551 600h-528v244h915v-209l-553 -600h576v-244h-961z" />
    <glyph glyph-name="uni00A0" unicode="&#xa0;" horiz-adv-x="669" 
 />
    <glyph glyph-name="Alphatonos" unicode="&#x386;" horiz-adv-x="1378" 
d="M35 0l467 1434h377l467 -1434h-326l-98 313h-478l-96 -313h-313zM512 561h342l-172 555zM0 1102l51 332h291l-156 -332h-186z" />
    <glyph glyph-name="Epsilontonos" unicode="&#x388;" horiz-adv-x="1460" 
d="M428 0v1434h926v-265h-619v-321h510v-252h-510v-332h643v-264h-950zM0 1102l51 332h293l-156 -332h-188z" />
    <glyph glyph-name="Etatonos" unicode="&#x389;" horiz-adv-x="1679" 
d="M428 0v1434h307v-576h492v576h307v-1434h-307v592h-492v-592h-307zM0 1102l51 332h293l-156 -332h-188z" />
    <glyph glyph-name="Iotatonos" unicode="&#x38a;" horiz-adv-x="1402" 
d="M395 0v256h293v922h-293v256h895v-256h-295v-922h295v-256h-895zM-37 1102l51 332h293l-155 -332h-189z" />
    <glyph glyph-name="Omicrontonos" unicode="&#x38c;" horiz-adv-x="1695" 
d="M987 -12q-278 0 -447 198.5t-169 530.5t169 530.5t447 198.5q280 0 450.5 -199t170.5 -530t-170.5 -530t-450.5 -199zM987 248q151 0 228 118.5t77 350.5t-77 350.5t-228 118.5q-148 0 -225.5 -119t-77.5 -350t77.5 -350t225.5 -119zM86 1102l51 332h291l-156 -332h-186z
" />
    <glyph glyph-name="Upsilontonos" unicode="&#x38e;" horiz-adv-x="1644" 
d="M862 0v543l-456 891h344l266 -568l278 568h328l-453 -893v-541h-307zM0 1102l51 332h291l-156 -332h-186z" />
    <glyph glyph-name="Omegatonos" unicode="&#x38f;" horiz-adv-x="1576" 
d="M381 0v264h250v35q-119 66 -184.5 204.5t-65.5 336.5q0 286 145.5 446t403.5 160t403.5 -160t145.5 -446q0 -197 -66 -337t-182 -204v-35h248v-264h-461v377q91 51 129.5 150.5t38.5 287.5q0 371 -256 371t-256 -371q0 -189 38 -287t130 -151v-377h-461zM51 1102l51 332
h291l-155 -332h-187z" />
    <glyph glyph-name="iotadieresistonos" unicode="&#x390;" horiz-adv-x="956" 
d="M676 0q-169 0 -246.5 72.5t-77.5 232.5v504h-266v244h557v-684q0 -71 27.5 -98t97.5 -27h121v-244h-213zM406 1163l-13 332h279l-92 -332h-174zM180 1186q-62 0 -103.5 41t-41.5 102t41.5 102.5t103.5 41.5t104 -41.5t42 -102.5t-42 -102t-104 -41zM844 1186
q-61 0 -103.5 41t-42.5 102t42.5 102.5t103.5 41.5q62 0 103.5 -41.5t41.5 -102.5t-41.5 -102t-103.5 -41z" />
    <glyph glyph-name="Alpha" unicode="&#x391;" horiz-adv-x="1378" 
d="M35 0l467 1434h377l467 -1434h-326l-98 313h-478l-96 -313h-313zM512 561h342l-172 555z" />
    <glyph glyph-name="Beta" unicode="&#x392;" horiz-adv-x="1318" 
d="M147 0v1434h527q240 0 371 -100t131 -279q0 -128 -67 -209t-191 -109q145 -19 227 -101.5t82 -227.5q0 -191 -138 -299.5t-391 -108.5h-551zM455 238h233q110 0 168.5 48t58.5 136q0 89 -59.5 137.5t-167.5 48.5h-233v-370zM455 842h215q96 0 148 47t52 131
q0 83 -52 130.5t-148 47.5h-215v-356z" />
    <glyph glyph-name="Gamma" unicode="&#x393;" horiz-adv-x="1349" 
d="M113 0v256h231v922h-231v256h1124v-553h-264v297h-334v-922h283v-256h-809z" />
    <glyph glyph-name="uni0394" unicode="&#x394;" horiz-adv-x="1306" 
d="M45 0v203l420 1231h377l420 -1231v-203h-1217zM373 264h553l-279 842z" />
    <glyph glyph-name="Epsilon" unicode="&#x395;" horiz-adv-x="1177" 
d="M147 0v1434h924v-265h-616v-321h508v-252h-508v-332h641v-264h-949z" />
    <glyph glyph-name="Zeta" unicode="&#x396;" 
d="M102 0v203l680 966h-661v265h1069v-203l-678 -967h696v-264h-1106z" />
    <glyph glyph-name="Eta" unicode="&#x397;" horiz-adv-x="1398" 
d="M147 0v1434h308v-576h489v576h307v-1434h-307v592h-489v-592h-308z" />
    <glyph glyph-name="Theta" unicode="&#x398;" horiz-adv-x="1413" 
d="M707 -12q-278 0 -448.5 199t-170.5 530t170.5 530t448.5 199t448 -199.5t170 -529.5t-170 -529.5t-448 -199.5zM707 238q157 0 242 119t85 360t-85 360t-242 119q-156 0 -242 -119.5t-86 -359.5t86 -359.5t242 -119.5zM473 612v211h467v-211h-467z" />
    <glyph glyph-name="Iota" unicode="&#x399;" horiz-adv-x="1120" 
d="M113 0v256h295v922h-295v256h895v-256h-293v-922h293v-256h-895z" />
    <glyph glyph-name="Kappa" unicode="&#x39a;" horiz-adv-x="1363" 
d="M147 0v1434h308v-643l497 643h353l-490 -613l524 -821h-360l-371 575l-153 -182v-393h-308z" />
    <glyph glyph-name="Lambda" unicode="&#x39b;" horiz-adv-x="1378" 
d="M35 0l471 1434h362l478 -1434h-324l-336 1063l-338 -1063h-313z" />
    <glyph glyph-name="Mu" unicode="&#x39c;" horiz-adv-x="1464" 
d="M147 0v1434h312l280 -721l271 721h307v-1434h-268v938l-240 -600h-154l-239 600v-938h-269z" />
    <glyph glyph-name="Nu" unicode="&#x39d;" horiz-adv-x="1406" 
d="M147 0v1434h273l551 -887v887h289v-1434h-273l-551 889v-889h-289z" />
    <glyph glyph-name="Xi" unicode="&#x39e;" horiz-adv-x="1282" 
d="M82 0v264h405v336h-258v248h258v321h-381v265h1070v-265h-381v-321h258v-248h-258v-336h405v-264h-1118z" />
    <glyph glyph-name="Omicron" unicode="&#x39f;" horiz-adv-x="1413" 
d="M707 -12q-278 0 -448.5 199t-170.5 530t170.5 530t448.5 199q279 0 448.5 -199t169.5 -530t-169.5 -530t-448.5 -199zM707 248q151 0 228 118.5t77 350.5t-77 350.5t-228 118.5q-148 0 -226 -119t-78 -350t78 -350t226 -119z" />
    <glyph glyph-name="Pi" unicode="&#x3a0;" horiz-adv-x="1392" 
d="M147 0v1434h1100v-1434h-307v1169h-485v-1169h-308z" />
    <glyph glyph-name="Rho" unicode="&#x3a1;" horiz-adv-x="1306" 
d="M147 0v1434h574q229 0 367.5 -130t138.5 -348q0 -216 -138.5 -345.5t-367.5 -129.5h-266v-481h-308zM455 737h223q108 0 172.5 59t64.5 160q0 103 -64 162.5t-173 59.5h-223v-441z" />
    <glyph glyph-name="Sigma" unicode="&#x3a3;" 
d="M102 0v203l449 524l-432 504v203h1073v-265h-655l317 -385v-98l-356 -422h710v-264h-1106z" />
    <glyph glyph-name="Tau" unicode="&#x3a4;" horiz-adv-x="1247" 
d="M471 0v1169h-410v265h1125v-265h-408v-1169h-307z" />
    <glyph glyph-name="Upsilon" unicode="&#x3a5;" horiz-adv-x="1335" 
d="M514 0v543l-491 891h348l299 -568l311 568h332l-492 -893v-541h-307z" />
    <glyph glyph-name="Phi" unicode="&#x3a6;" horiz-adv-x="1615" 
d="M668 -41v129h-4q-270 0 -428 169.5t-158 459.5t158 459.5t428 169.5h4v129h280v-129h4q270 0 428 -169.5t158 -459.5t-158 -459.5t-428 -169.5h-4v-129h-280zM664 328h4v778h-4q-139 0 -217 -103t-78 -286t78 -286t217 -103zM948 328h4q139 0 217 103t78 286t-78 286
t-217 103h-4v-778z" />
    <glyph glyph-name="Chi" unicode="&#x3a7;" horiz-adv-x="1341" 
d="M39 0l422 733l-400 701h349l268 -482l274 482h330l-399 -697l422 -737h-353l-288 516l-295 -516h-330z" />
    <glyph glyph-name="Psi" unicode="&#x3a8;" horiz-adv-x="1501" 
d="M608 0v371q-257 30 -374 181.5t-117 440.5v441h286v-424q0 -186 43.5 -272.5t161.5 -110.5v807h285v-807q118 24 161.5 110t43.5 273v424h286v-441q0 -289 -117 -440.5t-374 -181.5v-371h-285z" />
    <glyph glyph-name="uni03A9" unicode="&#x3a9;" horiz-adv-x="1294" 
d="M98 0v264h250v35q-118 66 -183 204.5t-65 336.5q0 286 145 446t404 160q257 0 402 -160.5t145 -445.5q0 -198 -65.5 -337.5t-182.5 -203.5v-35h248v-264h-461v377q93 51 131.5 150.5t38.5 287.5t-64 279.5t-194 91.5q-256 0 -256 -371q0 -188 38.5 -286.5t129.5 -151.5
v-377h-461z" />
    <glyph glyph-name="Iotadieresis" unicode="&#x3aa;" horiz-adv-x="1120" 
d="M113 0v256h295v922h-295v256h895v-256h-293v-922h293v-256h-895zM774 1561q-64 0 -107.5 43t-43.5 106q0 64 43 107t108 43q63 0 106.5 -43t43.5 -107q0 -63 -43.5 -106t-106.5 -43zM348 1561q-64 0 -107.5 43t-43.5 106q0 64 43 107t108 43q64 0 107 -43t43 -107
q0 -63 -43 -106t-107 -43z" />
    <glyph glyph-name="Upsilondieresis" unicode="&#x3ab;" horiz-adv-x="1335" 
d="M514 0v543l-491 891h348l299 -568l311 568h332l-492 -893v-541h-307zM881 1561q-63 0 -107.5 43t-44.5 106q0 64 44 107t108 43q65 0 108 -43t43 -107q0 -63 -43.5 -106t-107.5 -43zM455 1561q-63 0 -106.5 43t-43.5 106q0 64 43.5 107t106.5 43q65 0 108 -43t43 -107
q0 -63 -43.5 -106t-107.5 -43z" />
    <glyph glyph-name="alphatonos" unicode="&#x3ac;" horiz-adv-x="1300" 
d="M567 -12q-213 0 -346 147t-133 391q0 240 137 389.5t353 149.5q192 0 303 -139l24 127h254v-744q0 -34 13 -49.5t42 -15.5h31v-244h-153q-183 0 -203 162q-118 -174 -322 -174zM631 223q109 0 176 82.5t67 218.5q0 138 -67.5 221.5t-177.5 83.5q-111 0 -178.5 -82.5
t-67.5 -218.5t69 -220.5t179 -84.5zM555 1163l51 332h291l-156 -332h-186z" />
    <glyph glyph-name="epsilontonos" unicode="&#x3ad;" horiz-adv-x="1167" 
d="M602 -12q-241 0 -380.5 85.5t-139.5 233.5q0 202 229 238q-97 21 -153 78.5t-56 148.5q0 134 126 213.5t354 79.5q238 0 372 -96t146 -260h-285q-25 149 -225 149q-94 0 -144.5 -28.5t-50.5 -81.5q0 -56 45 -86.5t129 -30.5h158v-201h-176q-90 0 -133 -26t-43 -82
q0 -60 59.5 -93.5t165.5 -33.5q198 0 221 163h285q-9 -181 -130 -275.5t-374 -94.5zM492 1163l51 332h291l-156 -332h-186z" />
    <glyph glyph-name="etatonos" unicode="&#x3ae;" horiz-adv-x="1265" 
d="M846 -410v967q0 260 -199 260q-104 0 -160.5 -70t-56.5 -200v-547h-289v743q0 66 -55 66h-31v244h154q88 0 137 -36t62 -112q110 160 319 160q86 0 157 -25t128.5 -79t90 -149t32.5 -224v-998h-289zM469 1163l51 332h291l-156 -332h-186z" />
    <glyph glyph-name="iotatonos" unicode="&#x3af;" horiz-adv-x="956" 
d="M676 0q-169 0 -246.5 72.5t-77.5 232.5v504h-266v244h557v-684q0 -71 27.5 -98t97.5 -27h121v-244h-213zM403 1163l52 332h290l-155 -332h-187z" />
    <glyph glyph-name="upsilondieresistonos" unicode="&#x3b0;" horiz-adv-x="1243" 
d="M623 -12q-244 0 -367 122.5t-123 360.5v582h289v-549q0 -143 45.5 -209t155.5 -66q108 0 154 66t46 209v549h289v-582q0 -238 -123 -360.5t-366 -122.5zM530 1163l-12 332h279l-92 -332h-175zM305 1186q-62 0 -103.5 41t-41.5 102t41.5 102.5t103.5 41.5t104 -41.5
t42 -102.5t-42 -102t-104 -41zM969 1186q-61 0 -103.5 41t-42.5 102t42.5 102.5t103.5 41.5q62 0 103.5 -41.5t41.5 -102.5t-41.5 -102t-103.5 -41z" />
    <glyph glyph-name="alpha" unicode="&#x3b1;" horiz-adv-x="1300" 
d="M567 -12q-213 0 -346 147t-133 391q0 240 137 389.5t353 149.5q192 0 303 -139l24 127h254v-744q0 -34 13 -49.5t42 -15.5h31v-244h-153q-183 0 -203 162q-118 -174 -322 -174zM631 223q109 0 176 82.5t67 218.5q0 138 -67.5 221.5t-177.5 83.5q-111 0 -178.5 -82.5
t-67.5 -218.5t69 -220.5t179 -84.5z" />
    <glyph glyph-name="beta" unicode="&#x3b2;" horiz-adv-x="1312" 
d="M145 -410v1393q0 218 136.5 340.5t365.5 122.5q220 0 351.5 -105t131.5 -276q0 -110 -51.5 -188.5t-138.5 -120.5q138 -34 211.5 -123t73.5 -227q0 -189 -129.5 -303.5t-347.5 -114.5q-202 0 -314 121v-519h-289zM709 207q105 0 165 54t60 151q0 101 -69.5 152.5
t-196.5 51.5h-74v211h31q103 0 160 56t57 147q0 88 -53 136t-146 48q-99 0 -154 -58t-55 -157v-546q0 -114 75.5 -180t199.5 -66z" />
    <glyph glyph-name="gamma" unicode="&#x3b3;" horiz-adv-x="1175" 
d="M446 -334v348l-421 1039h309l260 -707l256 707h303l-418 -1033v-354h-289z" />
    <glyph glyph-name="delta" unicode="&#x3b4;" horiz-adv-x="1247" 
d="M612 -12q-240 0 -382 127.5t-142 351.5q0 169 91.5 286t238.5 160q66 23 123 27l-338 268v226h899v-242h-520l239 -184q180 -128 259 -247.5t79 -279.5q0 -104 -36.5 -193.5t-104.5 -156.5t-172.5 -105t-233.5 -38zM623 209q111 0 176 71.5t65 194.5q0 126 -64 197
t-177 71q-111 0 -175.5 -71.5t-64.5 -196.5q0 -123 65 -194.5t175 -71.5z" />
    <glyph glyph-name="epsilon" unicode="&#x3b5;" horiz-adv-x="1167" 
d="M602 -12q-241 0 -380.5 85.5t-139.5 233.5q0 202 229 238q-97 21 -153 78.5t-56 148.5q0 134 126 213.5t354 79.5q238 0 372 -96t146 -260h-285q-25 149 -225 149q-94 0 -144.5 -28.5t-50.5 -81.5q0 -56 45 -86.5t129 -30.5h158v-201h-176q-90 0 -133 -26t-43 -82
q0 -60 59.5 -93.5t165.5 -33.5q198 0 221 163h285q-9 -181 -130 -275.5t-374 -94.5z" />
    <glyph glyph-name="zeta" unicode="&#x3b6;" horiz-adv-x="1128" 
d="M786 -276v139q0 74 -26 104t-92 31l-68 2q-244 9 -376 105t-132 266q0 127 73 251.5t267 323.5l238 244h-551v244h925v-197l-356 -360q-180 -182 -240.5 -275t-60.5 -184q0 -168 250 -174l70 -2q178 -4 255.5 -76.5t77.5 -233.5v-208h-254z" />
    <glyph glyph-name="eta" unicode="&#x3b7;" horiz-adv-x="1265" 
d="M846 -410v967q0 260 -199 260q-104 0 -160.5 -70t-56.5 -200v-547h-289v743q0 66 -55 66h-31v244h154q88 0 137 -36t62 -112q110 160 319 160q86 0 157 -25t128.5 -79t90 -149t32.5 -224v-998h-289z" />
    <glyph glyph-name="theta" unicode="&#x3b8;" horiz-adv-x="1261" 
d="M631 -12q-252 0 -397.5 192t-145.5 537q0 347 146 538t397 191q253 0 398 -189.5t145 -539.5q0 -345 -145.5 -537t-397.5 -192zM631 219q236 0 262 391h-524q23 -391 262 -391zM369 842h522q-26 372 -260 372q-233 0 -262 -372z" />
    <glyph glyph-name="iota" unicode="&#x3b9;" horiz-adv-x="956" 
d="M676 0q-169 0 -246.5 72.5t-77.5 232.5v504h-266v244h557v-684q0 -71 27.5 -98t97.5 -27h121v-244h-213z" />
    <glyph glyph-name="kappa" unicode="&#x3ba;" horiz-adv-x="1220" 
d="M145 0v1053h289v-486l279 312q64 72 102.5 104.5t93 51t135.5 18.5h107v-244h-61q-60 0 -87.5 -14t-74.5 -68l-121 -129l391 -598h-334l-256 401l-174 -188v-213h-289z" />
    <glyph glyph-name="lambda" unicode="&#x3bb;" horiz-adv-x="1202" 
d="M35 0l436 999l-37 95q-23 58 -51.5 77t-87.5 19h-154v244h228q76 0 123 -11t85.5 -46t65.5 -85.5t64 -144.5l460 -1147h-303l-262 664l-268 -664h-299z" />
    <glyph glyph-name="uni03BC" unicode="&#x3bc;" horiz-adv-x="1269" 
d="M145 -410v1463h289v-553q0 -130 45 -196t146 -66q102 0 158.5 72.5t56.5 207.5v535h288v-744q0 -65 56 -65h30v-244h-153q-90 0 -139 35.5t-62 111.5q-89 -159 -274 -159q-52 0 -95.5 16.5t-64.5 40.5v-455h-281z" />
    <glyph glyph-name="nu" unicode="&#x3bd;" horiz-adv-x="1175" 
d="M410 0l-385 1053h309l260 -758l256 758h303l-385 -1053h-358z" />
    <glyph glyph-name="xi" unicode="&#x3be;" horiz-adv-x="1169" 
d="M831 -276v131q0 82 -30 111.5t-109 31.5l-131 4q-233 5 -353 94t-120 277q0 139 78.5 231.5t210.5 124.5q-227 53 -227 244q0 86 55 145t149 74l-217 -2v244h948v-224q-232 -6 -297 -10q-174 -9 -258 -54t-84 -138q0 -164 248 -164h307v-240h-339q-134 0 -206.5 -47
t-72.5 -141q0 -89 61 -131t183 -45l116 -2q179 -3 259.5 -73.5t80.5 -238.5v-202h-252z" />
    <glyph glyph-name="omicron" unicode="&#x3bf;" horiz-adv-x="1259" 
d="M629 -12q-243 0 -392 147.5t-149 390.5t149 391t392 148q244 0 393 -148t149 -391t-148.5 -390.5t-393.5 -147.5zM629 223q113 0 180.5 84t67.5 219t-67.5 219t-180.5 84q-111 0 -178.5 -84.5t-67.5 -218.5t67.5 -218.5t178.5 -84.5z" />
    <glyph glyph-name="pi" unicode="&#x3c0;" horiz-adv-x="1308" 
d="M211 0v809h-154v244h1207v-244h-162v-500q0 -39 14.5 -52t50.5 -13h39v-244h-176q-113 0 -167 53.5t-54 167.5v588h-315v-809h-283z" />
    <glyph glyph-name="rho" unicode="&#x3c1;" horiz-adv-x="1300" 
d="M133 -410v904q0 263 144.5 417t394.5 154q251 0 395.5 -144.5t144.5 -390.5q0 -244 -143 -393t-364 -149q-173 0 -287 88v-486h-285zM670 223q113 0 180.5 83t67.5 220q0 136 -67.5 219.5t-180.5 83.5q-115 0 -182.5 -83.5t-67.5 -219.5t67.5 -219.5t182.5 -83.5z" />
    <glyph glyph-name="sigma1" unicode="&#x3c2;" horiz-adv-x="1202" 
d="M745 -276v139q0 75 -29 105.5t-102 31.5l-71 2q-234 6 -344.5 136t-110.5 388q0 245 146.5 392t392.5 147q209 0 338 -108t159 -298h-301q-18 80 -69 125t-131 45q-109 0 -174.5 -84t-65.5 -219q0 -145 53 -210t168 -70l76 -4q169 -8 243 -79.5t74 -230.5v-208h-252z" />
    <glyph glyph-name="sigma" unicode="&#x3c3;" horiz-adv-x="1308" 
d="M631 -12q-248 0 -395.5 144.5t-147.5 387.5q0 242 147.5 387.5t391.5 145.5h628v-240h-215q65 -51 98 -133.5t33 -181.5q0 -79 -21.5 -153.5t-66.5 -139.5t-108 -113t-151.5 -76t-192.5 -28zM631 223q110 0 178 82t68 215t-68 215t-178 82q-112 0 -180 -82t-68 -215
t68 -215t180 -82z" />
    <glyph glyph-name="tau" unicode="&#x3c4;" horiz-adv-x="1159" 
d="M723 0q-303 0 -303 301v508h-354v244h1028v-244h-385v-461q0 -56 24.5 -80t81.5 -24h191v-244h-283z" />
    <glyph glyph-name="upsilon" unicode="&#x3c5;" horiz-adv-x="1243" 
d="M623 -12q-244 0 -367 122.5t-123 360.5v582h289v-549q0 -143 45.5 -209t155.5 -66q108 0 154 66t46 209v549h289v-582q0 -238 -123 -360.5t-366 -122.5z" />
    <glyph glyph-name="phi" unicode="&#x3c6;" horiz-adv-x="1579" 
d="M647 -410v410h-16q-241 0 -392 146.5t-151 379.5q0 235 152 381t397 146h10v266h285v-266h8q246 0 397.5 -146t151.5 -381q0 -233 -151 -379.5t-390 -146.5h-16v-410h-285zM637 227h12v598h-12q-122 0 -190 -80.5t-68 -218.5t68 -218.5t190 -80.5zM930 227h10
q123 0 191.5 80.5t68.5 218.5t-68.5 218.5t-191.5 80.5h-10v-598z" />
    <glyph glyph-name="chi" unicode="&#x3c7;" horiz-adv-x="1255" 
d="M53 -410l412 740l-223 399q-28 47 -52.5 63.5t-76.5 16.5h-58v244h138q55 0 92 -7t65 -20t54.5 -46t48 -68.5t57.5 -104.5l141 -270l262 516h299l-411 -736l223 -403q27 -47 52.5 -63.5t76.5 -16.5h59v-244h-118q-99 0 -151 19t-90.5 66.5t-94.5 158.5l-142 277
l-262 -521h-301z" />
    <glyph glyph-name="psi" unicode="&#x3c8;" horiz-adv-x="1400" 
d="M575 -410v406q-215 27 -328.5 146.5t-113.5 308.5v602h264v-576q0 -106 43 -166t135 -82v1086h250v-1086q92 22 135.5 82t43.5 166v576h264v-602q0 -189 -114 -308.5t-329 -146.5v-406h-250z" />
    <glyph glyph-name="omega" unicode="&#x3c9;" horiz-adv-x="1460" 
d="M453 -12q-164 0 -259.5 128t-95.5 347q0 176 48.5 329t140.5 261h291q-103 -134 -150 -273.5t-47 -308.5q0 -131 29 -193.5t90 -62.5q54 0 79 50t25 155v280h252v-280q0 -205 107 -205q60 0 88 62t28 194q0 171 -46 311t-148 271h289q90 -98 139 -255.5t49 -334.5
q0 -220 -93.5 -347.5t-258.5 -127.5q-106 0 -173.5 49t-107.5 156q-43 -108 -108.5 -156.5t-167.5 -48.5z" />
    <glyph glyph-name="iotadieresis" unicode="&#x3ca;" horiz-adv-x="956" 
d="M676 0q-169 0 -246.5 72.5t-77.5 232.5v504h-266v244h557v-684q0 -71 27.5 -98t97.5 -27h121v-244h-213zM264 1196q-68 0 -114 45t-46 113q0 67 46 111t114 44q69 0 115.5 -44t46.5 -111q0 -69 -46.5 -113.5t-115.5 -44.5zM729 1196q-69 0 -114.5 44.5t-45.5 113.5
q0 67 45.5 111t114.5 44t115.5 -44t46.5 -111q0 -69 -46.5 -113.5t-115.5 -44.5z" />
    <glyph glyph-name="upsilondieresis" unicode="&#x3cb;" horiz-adv-x="1243" 
d="M623 -12q-244 0 -367 122.5t-123 360.5v582h289v-549q0 -143 45.5 -209t155.5 -66q108 0 154 66t46 209v549h289v-582q0 -238 -123 -360.5t-366 -122.5zM389 1196q-68 0 -114 45t-46 113q0 67 46 111t114 44q69 0 115.5 -44t46.5 -111q0 -69 -46.5 -113.5t-115.5 -44.5z
M854 1196q-69 0 -114.5 44.5t-45.5 113.5q0 67 45.5 111t114.5 44t115.5 -44t46.5 -111q0 -69 -46.5 -113.5t-115.5 -44.5z" />
    <glyph glyph-name="omicrontonos" unicode="&#x3cc;" horiz-adv-x="1259" 
d="M629 -12q-243 0 -392 147.5t-149 390.5t149 391t392 148q244 0 393 -148t149 -391t-148.5 -390.5t-393.5 -147.5zM629 223q113 0 180.5 84t67.5 219t-67.5 219t-180.5 84q-111 0 -178.5 -84.5t-67.5 -218.5t67.5 -218.5t178.5 -84.5zM537 1163l51 332h291l-156 -332h-186
z" />
    <glyph glyph-name="upsilontonos" unicode="&#x3cd;" horiz-adv-x="1243" 
d="M623 -12q-244 0 -367 122.5t-123 360.5v582h289v-549q0 -143 45.5 -209t155.5 -66q108 0 154 66t46 209v549h289v-582q0 -238 -123 -360.5t-366 -122.5zM528 1163l52 332h290l-155 -332h-187z" />
    <glyph glyph-name="omegatonos" unicode="&#x3ce;" horiz-adv-x="1460" 
d="M453 -12q-164 0 -259.5 128t-95.5 347q0 176 48.5 329t140.5 261h291q-103 -134 -150 -273.5t-47 -308.5q0 -131 29 -193.5t90 -62.5q54 0 79 50t25 155v280h252v-280q0 -205 107 -205q60 0 88 62t28 194q0 171 -46 311t-148 271h289q90 -98 139 -255.5t49 -334.5
q0 -220 -93.5 -347.5t-258.5 -127.5q-106 0 -173.5 49t-107.5 156q-43 -108 -108.5 -156.5t-167.5 -48.5zM639 1163l51 332h291l-156 -332h-186z" />
    <glyph glyph-name="uni0400" unicode="&#x400;" horiz-adv-x="1177" 
d="M147 0v1434h924v-265h-616v-321h508v-252h-508v-332h641v-264h-949zM512 1540l-258 295h336l143 -295h-221z" />
    <glyph glyph-name="uni0401" unicode="&#x401;" horiz-adv-x="1177" 
d="M147 0v1434h924v-265h-616v-321h508v-252h-508v-332h641v-264h-949z" />
    <glyph glyph-name="uni0402" unicode="&#x402;" horiz-adv-x="1542" 
d="M928 -276v262h59q81 0 126.5 50t45.5 146v234q0 114 -56.5 172.5t-164.5 58.5q-122 0 -219 -51v-596h-307v1169h-351v265h1125v-265h-467v-313q119 49 266 49q232 0 356.5 -115.5t124.5 -330.5v-285q0 -214 -115 -332t-319 -118h-104z" />
    <glyph glyph-name="uni0403" unicode="&#x403;" horiz-adv-x="1349" 
d="M113 0v256h231v922h-231v256h1124v-553h-264v297h-334v-922h283v-256h-809zM645 1544l152 303h338l-273 -303h-217z" />
    <glyph glyph-name="uni0404" unicode="&#x404;" horiz-adv-x="1372" 
d="M707 -12q-294 0 -456.5 191.5t-162.5 537.5t166.5 537.5t468.5 191.5q238 0 390 -139.5t177 -374.5h-309q-23 126 -92 193t-178 67q-133 0 -212 -89t-98 -261h437v-240h-437q17 -178 94.5 -269t211.5 -91q223 0 272 260h311q-26 -237 -181.5 -375.5t-401.5 -138.5z" />
    <glyph glyph-name="uni0405" unicode="&#x405;" horiz-adv-x="1298" 
d="M670 -12q-261 0 -419 130.5t-161 350.5h301q9 -112 84 -175t197 -63q107 0 169 45t62 127t-70 121.5t-266 77.5q-227 44 -335.5 138.5t-108.5 271.5q0 193 144 313.5t374 120.5q243 0 389.5 -122.5t151.5 -328.5h-299q-12 98 -75.5 151.5t-166.5 53.5q-97 0 -154 -42.5
t-57 -119.5q0 -80 68.5 -116.5t265.5 -73.5q222 -41 334 -142t112 -280q0 -194 -150.5 -316t-389.5 -122z" />
    <glyph glyph-name="uni0406" unicode="&#x406;" horiz-adv-x="1120" 
d="M113 0v256h295v922h-295v256h895v-256h-293v-922h293v-256h-895z" />
    <glyph glyph-name="uni0407" unicode="&#x407;" horiz-adv-x="1120" 
d="M113 0v256h295v922h-295v256h895v-256h-293v-922h293v-256h-895zM774 1561q-63 0 -107 43t-44 106q0 64 44 107t107 43q64 0 107 -43t43 -107q0 -63 -43 -106t-107 -43zM348 1561q-64 0 -106.5 43t-42.5 106q0 65 42.5 107.5t106.5 42.5q65 0 108.5 -43t43.5 -107
q0 -63 -44 -106t-108 -43z" />
    <glyph glyph-name="uni0408" unicode="&#x408;" horiz-adv-x="1243" 
d="M586 -12q-261 0 -394 141t-131 412h304q0 -146 54 -217.5t167 -71.5t166 69t53 216v641h-469v256h776v-895q0 -270 -133 -410.5t-393 -140.5z" />
    <glyph glyph-name="uni0409" unicode="&#x409;" horiz-adv-x="1792" 
d="M16 0v254h21q89 0 127.5 97t38.5 319v764h895v-535h141q233 0 359 -115.5t126 -330.5q0 -217 -126.5 -335t-358.5 -118h-432v1182h-336v-527q0 -340 -100.5 -497.5t-315.5 -157.5h-39zM1098 244h125q204 0 204 209q0 202 -204 202h-125v-411z" />
    <glyph glyph-name="uni040A" unicode="&#x40a;" horiz-adv-x="1796" 
d="M137 0v1434h289v-541h385v541h289v-535h141q234 0 359.5 -116t125.5 -330q0 -216 -126 -334.5t-359 -118.5h-430v643h-385v-643h-289zM1100 244h125q207 0 207 209q0 99 -52.5 150.5t-154.5 51.5h-125v-411z" />
    <glyph glyph-name="uni040B" unicode="&#x40b;" horiz-adv-x="1546" 
d="M412 0v1169h-351v265h1125v-265h-467v-315q117 51 266 51q236 0 360.5 -115t124.5 -331v-459h-307v416q0 112 -56.5 171.5t-168.5 59.5q-122 0 -219 -51v-596h-307z" />
    <glyph glyph-name="uni040C" unicode="&#x40c;" horiz-adv-x="1363" 
d="M147 0v1434h308v-580h178l336 580h329l-407 -686l434 -748h-348l-340 600h-182v-600h-308zM578 1544l151 303h338l-272 -303h-217z" />
    <glyph glyph-name="uni040D" unicode="&#x40d;" horiz-adv-x="1429" 
d="M147 0v1434h299v-902l574 902h262v-1434h-299v901l-573 -901h-263zM594 1540l-256 295h336l141 -295h-221z" />
    <glyph glyph-name="uni040E" unicode="&#x40e;" horiz-adv-x="1320" 
d="M207 0v264h131q76 0 114 21.5t66 87.5l31 63l-526 998h339l336 -670l279 670h321l-503 -1141q-70 -159 -159 -226t-216 -67h-213zM662 1534q-159 0 -248 85t-95 228h220q0 -56 32.5 -90.5t90.5 -34.5q59 0 91.5 34t32.5 91h220q-5 -143 -95 -228t-249 -85z" />
    <glyph glyph-name="uni040F" unicode="&#x40f;" horiz-adv-x="1378" 
d="M541 -293v293h-394v1434h308v-1170h469v1170h307v-1434h-395v-293h-295z" />
    <glyph glyph-name="uni0410" unicode="&#x410;" horiz-adv-x="1378" 
d="M35 0l467 1434h377l467 -1434h-326l-98 313h-478l-96 -313h-313zM512 561h342l-172 555z" />
    <glyph glyph-name="uni0411" unicode="&#x411;" horiz-adv-x="1253" 
d="M147 0v1434h922v-252h-620v-305h241q234 0 363 -115t129 -322t-130 -323.5t-362 -116.5h-543zM449 250h217q100 0 154 49.5t54 140.5q0 88 -55.5 137.5t-154.5 49.5h-215v-377z" />
    <glyph glyph-name="uni0412" unicode="&#x412;" horiz-adv-x="1318" 
d="M147 0v1434h527q240 0 371 -100t131 -279q0 -128 -67 -209t-191 -109q145 -19 227 -101.5t82 -227.5q0 -191 -138 -299.5t-391 -108.5h-551zM455 238h233q110 0 168.5 48t58.5 136q0 89 -59.5 137.5t-167.5 48.5h-233v-370zM455 842h215q96 0 148 47t52 131
q0 83 -52 130.5t-148 47.5h-215v-356z" />
    <glyph glyph-name="uni0413" unicode="&#x413;" horiz-adv-x="1349" 
d="M113 0v256h231v922h-231v256h1124v-553h-264v297h-334v-922h283v-256h-809z" />
    <glyph glyph-name="uni0414" unicode="&#x414;" horiz-adv-x="1449" 
d="M41 -293v557h115q57 79 81.5 207t24.5 338v625h991v-1170h136v-557h-281v293h-786v-293h-281zM453 264h514v914h-435v-406q0 -179 -18.5 -298.5t-60.5 -209.5z" />
    <glyph glyph-name="uni0415" unicode="&#x415;" horiz-adv-x="1177" 
d="M147 0v1434h924v-265h-616v-321h508v-252h-508v-332h641v-264h-949z" />
    <glyph glyph-name="uni0416" unicode="&#x416;" horiz-adv-x="1708" 
d="M29 0l315 748l-287 686h301l220 -582h135v582h280v-582h137l234 582h287l-285 -686l313 -748h-305l-241 598h-140v-598h-280v598h-140l-239 -598h-305z" />
    <glyph glyph-name="uni0417" unicode="&#x417;" horiz-adv-x="1263" 
d="M616 -12q-264 0 -408 120.5t-153 350.5h297q21 -228 271 -228q113 0 176 50.5t63 142.5q0 91 -60.5 134.5t-183.5 43.5h-169v246h167q109 0 165.5 46.5t56.5 135.5q0 83 -60 127.5t-166 44.5q-113 0 -178.5 -54.5t-77.5 -158.5h-293q12 207 163.5 332t389.5 125
q248 0 387.5 -104t139.5 -285q0 -123 -64 -204t-180 -114q127 -31 199.5 -114.5t72.5 -218.5q0 -192 -149.5 -305t-405.5 -113z" />
    <glyph glyph-name="uni0418" unicode="&#x418;" horiz-adv-x="1429" 
d="M147 0v1434h299v-902l574 902h262v-1434h-299v901l-573 -901h-263z" />
    <glyph glyph-name="uni0419" unicode="&#x419;" horiz-adv-x="1429" 
d="M147 0v1434h299v-902l574 902h262v-1434h-299v901l-573 -901h-263zM711 1534q-159 0 -247.5 85t-94.5 228h219q0 -56 32.5 -90.5t90.5 -34.5q59 0 92 34t33 91h219q-5 -143 -95 -228t-249 -85z" />
    <glyph glyph-name="uni041A" unicode="&#x41a;" horiz-adv-x="1363" 
d="M147 0v1434h308v-580h178l336 580h329l-407 -686l434 -748h-348l-340 600h-182v-600h-308z" />
    <glyph glyph-name="uni041B" unicode="&#x41b;" horiz-adv-x="1402" 
d="M16 0v264h35q102 0 145.5 100t43.5 334v736h1017v-1434h-307v1174h-430v-486q0 -688 -450 -688h-54z" />
    <glyph glyph-name="uni041C" unicode="&#x41c;" horiz-adv-x="1464" 
d="M147 0v1434h312l280 -721l271 721h307v-1434h-268v938l-240 -600h-154l-239 600v-938h-269z" />
    <glyph glyph-name="uni041D" unicode="&#x41d;" horiz-adv-x="1398" 
d="M147 0v1434h308v-576h489v576h307v-1434h-307v592h-489v-592h-308z" />
    <glyph glyph-name="uni041E" unicode="&#x41e;" horiz-adv-x="1413" 
d="M707 -12q-278 0 -448.5 199t-170.5 530t170.5 530t448.5 199q279 0 448.5 -199t169.5 -530t-169.5 -530t-448.5 -199zM707 248q151 0 228 118.5t77 350.5t-77 350.5t-228 118.5q-148 0 -226 -119t-78 -350t78 -350t226 -119z" />
    <glyph glyph-name="uni041F" unicode="&#x41f;" horiz-adv-x="1392" 
d="M147 0v1434h1100v-1434h-307v1169h-485v-1169h-308z" />
    <glyph glyph-name="uni0420" unicode="&#x420;" horiz-adv-x="1306" 
d="M147 0v1434h574q229 0 367.5 -130t138.5 -348q0 -216 -138.5 -345.5t-367.5 -129.5h-266v-481h-308zM455 737h223q108 0 172.5 59t64.5 160q0 103 -64 162.5t-173 59.5h-223v-441z" />
    <glyph glyph-name="uni0421" unicode="&#x421;" horiz-adv-x="1372" 
d="M713 -12q-297 0 -461 191t-164 538t167.5 538t471.5 191q232 0 383.5 -140t179.5 -384h-309q-57 264 -264 264q-153 0 -233.5 -121t-80.5 -348t79 -348t231 -121q109 0 173.5 65t92.5 199h311q-28 -246 -181.5 -385t-395.5 -139z" />
    <glyph glyph-name="uni0422" unicode="&#x422;" horiz-adv-x="1247" 
d="M471 0v1169h-410v265h1125v-265h-408v-1169h-307z" />
    <glyph glyph-name="uni0423" unicode="&#x423;" horiz-adv-x="1320" 
d="M207 0v264h131q76 0 114 21.5t66 87.5l31 63l-526 998h339l336 -670l279 670h321l-503 -1141q-70 -159 -159 -226t-216 -67h-213z" />
    <glyph glyph-name="uni0424" unicode="&#x424;" horiz-adv-x="1615" 
d="M668 -41v129h-4q-270 0 -428 169.5t-158 459.5t158 459.5t428 169.5h4v129h280v-129h4q270 0 428 -169.5t158 -459.5t-158 -459.5t-428 -169.5h-4v-129h-280zM664 328h4v778h-4q-139 0 -217 -103t-78 -286t78 -286t217 -103zM948 328h4q139 0 217 103t78 286t-78 286
t-217 103h-4v-778z" />
    <glyph glyph-name="uni0425" unicode="&#x425;" horiz-adv-x="1341" 
d="M39 0l422 733l-400 701h349l268 -482l274 482h330l-399 -697l422 -737h-353l-288 516l-295 -516h-330z" />
    <glyph glyph-name="uni0426" unicode="&#x426;" horiz-adv-x="1447" 
d="M147 0v1434h308v-1170h469v1170h307v-1170h155v-557h-280v293h-959z" />
    <glyph glyph-name="uni0427" unicode="&#x427;" horiz-adv-x="1294" 
d="M840 0v530q-124 -43 -267 -43q-244 0 -370.5 117t-126.5 336v494h307v-451q0 -116 60.5 -177t181.5 -61q115 0 215 41v648h307v-1434h-307z" />
    <glyph glyph-name="uni0428" unicode="&#x428;" horiz-adv-x="1710" 
d="M137 0v1434h281v-1180h297v1180h280v-1180h299v1180h281v-1434h-1438z" />
    <glyph glyph-name="uni0429" unicode="&#x429;" horiz-adv-x="1792" 
d="M137 0v1434h281v-1180h297v1180h280v-1180h299v1180h281v-1170h143v-557h-280v293h-1301z" />
    <glyph glyph-name="uni042A" unicode="&#x42a;" horiz-adv-x="1452" 
d="M375 0v1169h-314v265h609v-490h204q229 0 363.5 -126.5t134.5 -344.5t-134.5 -345.5t-363.5 -127.5h-499zM670 248h182q106 0 163.5 58.5t57.5 166.5q0 107 -58 166t-163 59h-182v-450z" />
    <glyph glyph-name="uni042B" unicode="&#x42b;" horiz-adv-x="1689" 
d="M137 0v1434h293v-490h201q226 0 358.5 -127t132.5 -344q0 -218 -132.5 -345.5t-358.5 -127.5h-494zM430 248h178q102 0 158.5 59t56.5 166q0 106 -58 165.5t-159 59.5h-176v-450zM1260 0v1434h292v-1434h-292z" />
    <glyph glyph-name="uni042C" unicode="&#x42c;" horiz-adv-x="1304" 
d="M147 0v1434h308v-484h254q233 0 375.5 -129t142.5 -346t-142.5 -346t-375.5 -129h-562zM455 256h227q107 0 169 58t62 161q0 102 -62.5 160.5t-170.5 58.5h-225v-438z" />
    <glyph glyph-name="uni042D" unicode="&#x42d;" horiz-adv-x="1372" 
d="M664 -12q-245 0 -401 139t-181 375h309q52 -260 273 -260q272 0 307 360h-439v240h439q-20 172 -99.5 261t-212.5 89q-108 0 -176.5 -67t-91.5 -193h-311q26 235 178 374.5t389 139.5q302 0 468.5 -191.5t166.5 -537.5t-162 -537.5t-456 -191.5z" />
    <glyph glyph-name="uni042E" unicode="&#x42e;" horiz-adv-x="1718" 
d="M1102 -12q-230 0 -370 161t-165 449h-147v-598h-283v1434h283v-582h147q28 280 169 437t366 157q251 0 394.5 -193.5t143.5 -535.5t-143.5 -535.5t-394.5 -193.5zM1102 240q126 0 188 118t62 359t-62 359t-188 118q-128 0 -190 -118t-62 -359t62 -359t190 -118z" />
    <glyph glyph-name="uni042F" unicode="&#x42f;" horiz-adv-x="1337" 
d="M78 0l321 535q-137 50 -211.5 163t-74.5 258q0 217 142 347.5t372 130.5h565v-1434h-307v481h-187l-274 -481h-346zM666 737h219v441h-219q-109 0 -174.5 -60.5t-65.5 -161.5q0 -100 65.5 -159.5t174.5 -59.5z" />
    <glyph glyph-name="uni0430" unicode="&#x430;" horiz-adv-x="1193" 
d="M469 -12q-171 0 -278 82t-107 229q0 168 122.5 258t354.5 90h199v51q0 72 -48 114t-137 42q-78 0 -129 -35t-59 -94h-281q15 153 144.5 246.5t337.5 93.5q220 0 339.5 -98t119.5 -285v-373q0 -38 12.5 -51.5t46.5 -13.5h31v-244h-142q-187 0 -190 154
q-119 -166 -336 -166zM524 197q107 0 171.5 63t64.5 166v29h-203q-88 0 -135 -36t-47 -102q0 -56 40 -88t109 -32z" />
    <glyph glyph-name="uni0431" unicode="&#x431;" horiz-adv-x="1247" 
d="M618 -12q-256 0 -388 158.5t-132 476.5q0 197 30.5 331.5t103 228.5t186.5 145t287 73l344 45v-250l-283 -37q-147 -20 -229 -56t-125 -100.5t-60 -177.5q116 142 344 142q211 0 337 -129.5t126 -348.5q0 -227 -146.5 -364t-394.5 -137zM633 213q104 0 167.5 73.5
t63.5 192.5t-63.5 194t-167.5 75q-105 0 -169.5 -73.5t-64.5 -187.5q0 -125 64.5 -199.5t169.5 -74.5z" />
    <glyph glyph-name="uni0432" unicode="&#x432;" horiz-adv-x="1175" 
d="M145 0v1053h476q216 0 328 -71.5t112 -205.5q0 -190 -203 -231q238 -32 238 -244q0 -153 -116 -227t-349 -74h-486zM424 199h221q158 0 158 118q0 57 -41 88t-117 31h-221v-237zM424 625h194q74 0 112 29.5t38 84.5q0 115 -150 115h-194v-229z" />
    <glyph glyph-name="uni0433" unicode="&#x433;" horiz-adv-x="1216" 
d="M86 0v244h213v565h-213v244h1044v-504h-249v260h-297v-565h241v-244h-739z" />
    <glyph glyph-name="uni0434" unicode="&#x434;" horiz-adv-x="1284" 
d="M27 -272v516h108q103 93 103 430v379h870v-809h145v-516h-276v272h-674v-272h-276zM428 244h401v577h-333v-192q0 -246 -68 -385z" />
    <glyph glyph-name="uni0435" unicode="&#x435;" horiz-adv-x="1232" 
d="M639 -12q-256 0 -403.5 145t-147.5 391t145.5 393.5t387.5 147.5q233 0 377 -138t145 -368q0 -53 -8 -100h-746v-13q4 -111 69.5 -175t170.5 -64q85 0 140.5 38t74.5 111h284q-24 -160 -155 -264t-334 -104zM395 649h459q-15 96 -76 148.5t-155 52.5q-92 0 -154 -54
t-74 -147z" />
    <glyph glyph-name="uni0436" unicode="&#x436;" horiz-adv-x="1513" 
d="M23 0l264 553l-236 500h277l186 -406h104v406h277v-406h104l187 406h276l-235 -500l264 -553h-297l-195 416h-104v-416h-277v416h-104l-195 -416h-296z" />
    <glyph glyph-name="uni0437" unicode="&#x437;" horiz-adv-x="1148" 
d="M565 -12q-471 0 -487 368h284q8 -78 58.5 -120.5t146.5 -42.5q99 0 155 33t56 93q0 58 -41 84.5t-125 26.5h-153v201h137q79 0 120.5 30t41.5 87q0 54 -47.5 83t-135.5 29q-100 0 -149 -38.5t-57 -112.5h-285q9 164 138 260t360 96q224 0 345.5 -78.5t121.5 -214.5
q0 -92 -53 -149t-146 -78q105 -18 163 -78t58 -160q0 -148 -136 -233.5t-370 -85.5z" />
    <glyph glyph-name="uni0438" unicode="&#x438;" horiz-adv-x="1286" 
d="M145 0v1053h279v-635l465 635h252v-1053h-281v635l-463 -635h-252z" />
    <glyph glyph-name="uni0439" unicode="&#x439;" horiz-adv-x="1286" 
d="M145 0v1053h279v-635l465 635h252v-1053h-281v635l-463 -635h-252zM643 1153q-159 0 -247.5 85t-94.5 228h219q0 -56 32.5 -90.5t90.5 -34.5q59 0 92 34t33 91h219q-5 -143 -95 -228t-249 -85z" />
    <glyph glyph-name="uni043A" unicode="&#x43a;" horiz-adv-x="1222" 
d="M145 0v1053h289v-400h160l268 400h314l-334 -498l360 -555h-338l-268 410h-162v-410h-289z" />
    <glyph glyph-name="uni043B" unicode="&#x43b;" horiz-adv-x="1234" 
d="M33 0v244h35q75 0 107 68.5t32 230.5v510h883v-1053h-289v809h-328v-260q0 -549 -387 -549h-53z" />
    <glyph glyph-name="uni043C" unicode="&#x43c;" horiz-adv-x="1415" 
d="M145 0v1055h295l275 -516l264 516h291v-1055h-264v639l-226 -412h-145l-225 412v-639h-265z" />
    <glyph glyph-name="uni043D" unicode="&#x43d;" horiz-adv-x="1282" 
d="M145 0v1053h289v-400h414v400h289v-1053h-289v410h-414v-410h-289z" />
    <glyph glyph-name="uni043E" unicode="&#x43e;" horiz-adv-x="1259" 
d="M629 -12q-243 0 -392 147.5t-149 390.5t149 391t392 148q244 0 393 -148t149 -391t-148.5 -390.5t-393.5 -147.5zM629 223q113 0 180.5 84t67.5 219t-67.5 219t-180.5 84q-111 0 -178.5 -84.5t-67.5 -218.5t67.5 -218.5t178.5 -84.5z" />
    <glyph glyph-name="uni043F" unicode="&#x43f;" horiz-adv-x="1261" 
d="M145 0v1053h971v-1053h-289v809h-393v-809h-289z" />
    <glyph glyph-name="uni0440" unicode="&#x440;" horiz-adv-x="1308" 
d="M145 -410v1463h252l27 -144q121 156 317 156q210 0 345 -148t135 -393q0 -242 -134.5 -389t-343.5 -147q-198 0 -309 145v-543h-289zM678 223q113 0 180.5 84.5t67.5 220.5q0 135 -67.5 218t-180.5 83q-114 0 -181 -83t-67 -218q0 -136 67 -220.5t181 -84.5z" />
    <glyph glyph-name="uni0441" unicode="&#x441;" horiz-adv-x="1204" 
d="M616 -12q-246 0 -387 144.5t-141 393.5q0 245 146.5 392t392.5 147q209 0 338 -108t159 -298h-301q-18 80 -69 125t-131 45q-109 0 -174.5 -84t-65.5 -219t65.5 -219t174.5 -84q80 0 132.5 46.5t67.5 127.5h303q-29 -190 -164 -299.5t-346 -109.5z" />
    <glyph glyph-name="uni0442" unicode="&#x442;" horiz-adv-x="1019" 
d="M367 0v809h-332v244h950v-244h-330v-809h-288z" />
    <glyph glyph-name="uni0443" unicode="&#x443;" horiz-adv-x="1181" 
d="M111 -410v244h170q55 0 80 18t47 72l26 70l-409 1059h307l260 -750l258 750h309l-473 -1203q-29 -73 -50.5 -114.5t-54.5 -78.5t-76 -52t-104 -15h-290z" />
    <glyph glyph-name="uni0444" unicode="&#x444;" horiz-adv-x="1579" 
d="M647 -410v410h-16q-237 0 -390 147t-153 379q0 234 153.5 380.5t395.5 146.5h10v348h285v-348h8q243 0 396 -146.5t153 -380.5q0 -232 -152 -379t-389 -147h-16v-410h-285zM637 227h12v598h-12q-119 0 -188.5 -81t-69.5 -218t69.5 -218t188.5 -81zM930 227h10
q121 0 190.5 81t69.5 218t-69.5 218t-190.5 81h-10v-598z" />
    <glyph glyph-name="uni0445" unicode="&#x445;" horiz-adv-x="1163" 
d="M23 0l389 537l-371 516h332l215 -310l223 310h311l-370 -516l391 -537h-332l-240 330l-237 -330h-311z" />
    <glyph glyph-name="uni0446" unicode="&#x446;" horiz-adv-x="1267" 
d="M145 0v1053h289v-809h367v809h289v-809h147v-516h-279v272h-813z" />
    <glyph glyph-name="uni0447" unicode="&#x447;" horiz-adv-x="1189" 
d="M756 0v348q-109 -33 -215 -33q-218 0 -322 98.5t-104 313.5v326h288v-299q0 -105 45.5 -152t147.5 -47q81 0 160 29v469h288v-1053h-288z" />
    <glyph glyph-name="uni0448" unicode="&#x448;" horiz-adv-x="1687" 
d="M145 0v1053h277v-809h283v809h276v-809h283v809h278v-1053h-1397z" />
    <glyph glyph-name="uni0449" unicode="&#x449;" horiz-adv-x="1720" 
d="M145 0v1053h277v-809h283v809h276v-809h283v809h278v-809h146v-516h-279v272h-1264z" />
    <glyph glyph-name="uni044A" unicode="&#x44a;" 
d="M319 0v809h-284v244h573v-310h195q201 0 315.5 -98.5t114.5 -273.5q0 -172 -114.5 -271.5t-315.5 -99.5h-484zM608 217h144q91 0 139.5 40.5t48.5 115.5t-48.5 115t-139.5 40h-144v-311z" />
    <glyph glyph-name="uni044B" unicode="&#x44b;" horiz-adv-x="1652" 
d="M145 0v1053h289v-310h217q201 0 315.5 -98.5t114.5 -273.5q0 -172 -114.5 -271.5t-315.5 -99.5h-506zM434 217h166q92 0 140 40.5t48 115.5t-48 115t-140 40h-166v-311zM1219 0v1053h290v-1053h-290z" />
    <glyph glyph-name="uni044C" unicode="&#x44c;" horiz-adv-x="1175" 
d="M145 0v1053h289v-310h234q201 0 315.5 -98.5t114.5 -273.5q0 -172 -114.5 -271.5t-315.5 -99.5h-523zM434 217h182q91 0 140 40.5t49 115.5t-49 115t-140 40h-182v-311z" />
    <glyph glyph-name="uni044D" unicode="&#x44d;" horiz-adv-x="1202" 
d="M578 -12q-212 0 -341 106.5t-159 292.5h289q15 -83 71 -128.5t146 -45.5q91 0 153 57t82 156h-325v203h323q-20 100 -80.5 155.5t-152.5 55.5q-181 0 -217 -178h-289q29 190 163 296.5t345 106.5q246 0 387 -144t141 -395q0 -247 -143.5 -392.5t-392.5 -145.5z" />
    <glyph glyph-name="uni044E" unicode="&#x44e;" horiz-adv-x="1654" 
d="M1053 -12q-204 0 -338 113t-166 311h-127v-412h-277v1053h277v-406h129q34 195 167 306.5t335 111.5q235 0 374.5 -146.5t139.5 -392.5q0 -247 -139.5 -392.5t-374.5 -145.5zM1053 215q107 0 167 82.5t60 228.5t-60 228t-167 82q-108 0 -168 -81.5t-60 -228.5t60 -229
t168 -82z" />
    <glyph glyph-name="uni044F" unicode="&#x44f;" horiz-adv-x="1171" 
d="M41 0l256 371q-106 32 -161.5 113t-55.5 202q0 171 120 269t337 98h489v-1053h-289v326h-155l-211 -326h-330zM543 543h194v293h-194q-81 0 -125.5 -39t-44.5 -107q0 -72 44 -109.5t126 -37.5z" />
    <glyph glyph-name="uni0450" unicode="&#x450;" horiz-adv-x="1232" 
d="M639 -12q-256 0 -403.5 145t-147.5 391t145.5 393.5t387.5 147.5q233 0 377 -138t145 -368q0 -53 -8 -100h-746v-13q4 -111 69.5 -175t170.5 -64q85 0 140.5 38t74.5 111h284q-24 -160 -155 -264t-334 -104zM500 1159l-258 307h336l143 -307h-221zM395 649h459
q-15 96 -76 148.5t-155 52.5q-92 0 -154 -54t-74 -147z" />
    <glyph glyph-name="uni0451" unicode="&#x451;" horiz-adv-x="1232" 
d="M639 -12q-256 0 -403.5 145t-147.5 391t145.5 393.5t387.5 147.5q233 0 377 -138t145 -368q0 -53 -8 -100h-746v-13q4 -111 69.5 -175t170.5 -64q85 0 140.5 38t74.5 111h284q-24 -160 -155 -264t-334 -104zM395 649h459q-15 96 -76 148.5t-155 52.5q-92 0 -154 -54
t-74 -147z" />
    <glyph glyph-name="uni0452" unicode="&#x452;" horiz-adv-x="1300" 
d="M696 -410v244h78q54 0 79.5 28t25.5 89v614q0 118 -49.5 185t-153.5 67q-106 0 -165.5 -71t-59.5 -197v-549h-289v1145h-164v184h164v105h289v-105h303v-184h-303v-213q110 133 301 133q91 0 165 -26.5t131 -82t88 -148t31 -216.5v-682q0 -150 -78 -235t-227 -85h-166z
" />
    <glyph glyph-name="uni0453" unicode="&#x453;" horiz-adv-x="1216" 
d="M86 0v244h213v565h-213v244h1044v-504h-249v260h-297v-565h241v-244h-739zM514 1163l152 303h338l-273 -303h-217z" />
    <glyph glyph-name="uni0454" unicode="&#x454;" horiz-adv-x="1202" 
d="M616 -12q-247 0 -387.5 143.5t-140.5 394.5q0 246 146.5 392.5t392.5 146.5q212 0 339.5 -106t157.5 -293h-286q-15 83 -71 128.5t-146 45.5q-92 0 -154 -56t-82 -155h326v-203h-326q19 -100 79.5 -156.5t153.5 -56.5q181 0 220 178h286q-29 -190 -163.5 -296.5
t-344.5 -106.5z" />
    <glyph glyph-name="uni0455" unicode="&#x455;" horiz-adv-x="1120" 
d="M571 -12q-216 0 -350 97.5t-141 264.5h274q6 -68 64.5 -111.5t154.5 -43.5q187 0 187 114q0 53 -46 72.5t-169 34.5q-84 10 -143.5 21.5t-120 34t-97.5 53.5t-60.5 80.5t-23.5 115.5q0 156 122.5 250t322.5 94q209 0 339.5 -90.5t139.5 -247.5h-274q-8 60 -60.5 95.5
t-136.5 35.5q-83 0 -129.5 -27t-46.5 -79q0 -54 48.5 -75t170.5 -36q70 -8 120 -17t104.5 -24t91 -37t67.5 -53.5t46 -76.5t15 -103q0 -156 -129 -249t-340 -93z" />
    <glyph glyph-name="uni0456" unicode="&#x456;" horiz-adv-x="1011" 
d="M86 0v244h289v565h-289v244h580v-809h278v-244h-858zM520 1190q-75 0 -125.5 48.5t-50.5 123.5q0 73 50.5 122.5t125.5 49.5t125.5 -49.5t50.5 -122.5q0 -75 -50.5 -123.5t-125.5 -48.5z" />
    <glyph glyph-name="uni0457" unicode="&#x457;" horiz-adv-x="1011" 
d="M86 0v244h289v565h-289v244h580v-809h278v-244h-858zM289 1196q-68 0 -114 45t-46 113q0 67 46 111t114 44q69 0 115.5 -44t46.5 -111q0 -69 -46.5 -113.5t-115.5 -44.5zM754 1196q-69 0 -114.5 44.5t-45.5 113.5q0 67 45.5 111t114.5 44t115 -44t46 -111
q0 -69 -46 -113.5t-115 -44.5z" />
    <glyph glyph-name="uni0458" unicode="&#x458;" horiz-adv-x="899" 
d="M41 -410v244h319q54 0 79.5 28t25.5 89v858h-424v244h713v-1143q0 -149 -77.5 -234.5t-225.5 -85.5h-410zM608 1190q-74 0 -125 49t-51 123q0 73 51 122.5t125 49.5q75 0 125.5 -49.5t50.5 -122.5q0 -75 -50.5 -123.5t-125.5 -48.5z" />
    <glyph glyph-name="uni0459" unicode="&#x459;" horiz-adv-x="1613" 
d="M33 0v236h22q65 0 94 65t29 213v539h799v-359h176q181 0 282 -92t101 -256t-102 -255t-287 -91h-447v817h-270v-289q0 -528 -340 -528h-57zM977 209h127q153 0 153 137q0 139 -153 139h-127v-276z" />
    <glyph glyph-name="uni045A" unicode="&#x45a;" horiz-adv-x="1679" 
d="M145 0v1053h277v-371h344v371h276v-359h177q182 0 282.5 -91.5t100.5 -256.5q0 -163 -103 -254.5t-289 -91.5h-444v446h-344v-446h-277zM1042 209h127q154 0 154 137q0 139 -154 139h-127v-276z" />
    <glyph glyph-name="uni045B" unicode="&#x45b;" horiz-adv-x="1300" 
d="M162 0v1145h-164v184h164v105h289v-105h303v-184h-303v-213q110 133 301 133q91 0 165 -26.5t131 -82t88 -148t31 -216.5v-592h-288v565q0 118 -49.5 185t-153.5 67q-106 0 -165.5 -71t-59.5 -197v-549h-289z" />
    <glyph glyph-name="uni045C" unicode="&#x45c;" horiz-adv-x="1222" 
d="M145 0v1053h289v-400h160l268 400h314l-334 -498l360 -555h-338l-268 410h-162v-410h-289zM510 1163l152 303h337l-272 -303h-217z" />
    <glyph glyph-name="uni045D" unicode="&#x45d;" horiz-adv-x="1286" 
d="M145 0v1053h279v-635l465 635h252v-1053h-281v635l-463 -635h-252zM526 1159l-258 307h338l142 -307h-222z" />
    <glyph glyph-name="uni045E" unicode="&#x45e;" horiz-adv-x="1181" 
d="M111 -410v244h170q55 0 80 18t47 72l26 70l-409 1059h307l260 -750l258 750h309l-473 -1203q-29 -73 -50.5 -114.5t-54.5 -78.5t-76 -52t-104 -15h-290zM588 1151q-159 0 -248 86t-94 229h219q0 -57 32 -91t91 -34t92 34t33 91h219q-6 -143 -96 -229t-248 -86z" />
    <glyph glyph-name="uni045F" unicode="&#x45f;" horiz-adv-x="1234" 
d="M479 -272v272h-334v1053h289v-809h367v809h289v-1053h-332v-272h-279z" />
    <glyph glyph-name="uni0462" unicode="&#x462;" horiz-adv-x="1386" 
d="M225 0v1085h-164v244h164v105h307v-105h289v-244h-289v-143h248q234 0 376 -129t142 -342q0 -214 -142 -342.5t-376 -128.5h-555zM532 256h228q106 0 165.5 57t59.5 158t-60.5 158t-166.5 57h-226v-430z" />
    <glyph glyph-name="uni0463" unicode="&#x463;" horiz-adv-x="1085" 
d="M147 0v848h-149v205h149v381h279v-381h250v-205h-250v-115h176q188 0 297 -98t109 -268q0 -169 -109.5 -268t-296.5 -99h-455zM426 209h133q83 0 126.5 41t43.5 117q0 77 -43.5 117t-126.5 40h-133v-315z" />
    <glyph glyph-name="uni0472" unicode="&#x472;" horiz-adv-x="1413" 
d="M707 -12q-278 0 -448.5 199t-170.5 530t170.5 530t448.5 199q279 0 448.5 -199t169.5 -530t-169.5 -530t-448.5 -199zM707 238q127 0 204 85.5t99 251.5q-62 -20 -117 -20q-69 0 -197 38t-174 38q-72 0 -121 -21q15 -183 93.5 -277.5t212.5 -94.5zM893 805q63 0 121 20
q-17 183 -94.5 277t-212.5 94q-126 0 -203.5 -85t-97.5 -249q65 21 116 21q69 0 136 -19.5t126.5 -39t108.5 -19.5z" />
    <glyph glyph-name="uni0473" unicode="&#x473;" horiz-adv-x="1259" 
d="M629 -12q-243 0 -392 147.5t-149 390.5t149 391t392 148q244 0 393 -148t149 -391t-148.5 -390.5t-393.5 -147.5zM629 213q96 0 162 58t88 157q-66 -25 -109 -25q-47 0 -146 30t-135 30q-64 0 -112 -23q21 -103 87.5 -165t164.5 -62zM770 590q71 0 113 22
q-21 105 -87.5 166.5t-166.5 61.5q-95 0 -160 -58.5t-86 -156.5q55 22 106 22q45 0 144 -28.5t137 -28.5z" />
    <glyph glyph-name="uni0474" unicode="&#x474;" horiz-adv-x="1374" 
d="M483 0l-463 1434h322l324 -1067l186 641q38 132 75 212t89.5 129.5t115.5 67t160 17.5h82v-265h-45q-56 0 -87.5 -21t-60 -79.5t-67.5 -187.5l-266 -881h-365z" />
    <glyph glyph-name="uni0475" unicode="&#x475;" horiz-adv-x="1241" 
d="M410 0l-385 1053h309l260 -760l108 338q40 127 77 205t85.5 128.5t107 69.5t144.5 19h58v-244h-35q-64 0 -102.5 -52t-88.5 -202l-180 -555h-358z" />
    <glyph glyph-name="uni0490" unicode="&#x490;" horiz-adv-x="1290" 
d="M113 0v256h231v922h-231v256h852v286h264v-542h-590v-922h283v-256h-809z" />
    <glyph glyph-name="uni0491" unicode="&#x491;" horiz-adv-x="1157" 
d="M86 0v244h213v565h-213v244h776v282h258v-526h-532v-565h237v-244h-739z" />
    <glyph glyph-name="uni0492" unicode="&#x492;" horiz-adv-x="1370" 
d="M113 0v256h231v342h-158v229h158v351h-231v256h1144v-553h-260v297h-358v-351h279v-229h-279v-342h283v-256h-809z" />
    <glyph glyph-name="uni0493" unicode="&#x493;" horiz-adv-x="1230" 
d="M86 0v244h213v178h-168v201h168v186h-213v244h1059v-504h-238v260h-323v-186h231v-201h-231v-178h241v-244h-739z" />
    <glyph glyph-name="uni0496" unicode="&#x496;" horiz-adv-x="1837" 
d="M29 0l315 748l-287 686h301l220 -582h135v582h280v-582h137l234 582h287l-285 -686l203 -484h186v-557h-280v293h-101l-241 598h-140v-598h-280v598h-140l-239 -598h-305z" />
    <glyph glyph-name="uni0497" unicode="&#x497;" horiz-adv-x="1585" 
d="M23 0l264 553l-236 500h277l186 -406h104v406h277v-406h104l187 406h276l-235 -500l147 -309h174v-516h-276v272h-78l-195 416h-104v-416h-277v416h-104l-195 -416h-296z" />
    <glyph glyph-name="uni049A" unicode="&#x49a;" horiz-adv-x="1427" 
d="M147 0v1434h308v-580h178l336 580h329l-407 -686l280 -484h175v-557h-281v293h-88l-340 600h-182v-600h-308z" />
    <glyph glyph-name="uni049B" unicode="&#x49b;" horiz-adv-x="1259" 
d="M145 0v1053h289v-400h160l268 400h314l-334 -498l202 -311h179v-516h-277v272h-82l-268 410h-162v-410h-289z" />
    <glyph glyph-name="uni04A2" unicode="&#x4a2;" horiz-adv-x="1468" 
d="M147 0v1434h308v-576h489v576h307v-1170h146v-557h-281v293h-172v592h-489v-592h-308z" />
    <glyph glyph-name="uni04A3" unicode="&#x4a3;" horiz-adv-x="1314" 
d="M145 0v1053h289v-400h414v400h289v-809h145v-516h-278v272h-156v410h-414v-410h-289z" />
    <glyph glyph-name="uni04AE" unicode="&#x4ae;" horiz-adv-x="1335" 
d="M514 0v543l-491 891h348l299 -568l311 568h332l-492 -893v-541h-307z" />
    <glyph glyph-name="uni04AF" unicode="&#x4af;" horiz-adv-x="1202" 
d="M457 -410v410l-432 1053h313l268 -701l266 701h308l-435 -1053v-410h-288z" />
    <glyph glyph-name="uni04B0" unicode="&#x4b0;" horiz-adv-x="1335" 
d="M244 334v213h268l-489 887h348l299 -568l311 568h332l-488 -887h267v-213h-271v-334h-307v334h-270z" />
    <glyph glyph-name="uni04B1" unicode="&#x4b1;" horiz-adv-x="1202" 
d="M457 -410v203h-250v207h250l-432 1053h313l268 -701l266 701h308l-435 -1053h252v-207h-252v-203h-288z" />
    <glyph glyph-name="uni04B2" unicode="&#x4b2;" horiz-adv-x="1431" 
d="M39 0l422 733l-400 701h349l268 -482l274 482h330l-399 -697l270 -473h197v-557h-281v293h-117l-288 516l-295 -516h-330z" />
    <glyph glyph-name="uni04B3" unicode="&#x4b3;" horiz-adv-x="1198" 
d="M23 0l389 537l-371 516h332l215 -310l223 310h311l-370 -516l213 -293h198v-516h-276v272h-76l-240 330l-237 -330h-311z" />
    <glyph glyph-name="uni04B6" unicode="&#x4b6;" horiz-adv-x="1363" 
d="M840 0v530q-124 -43 -267 -43q-244 0 -370.5 117t-126.5 336v494h307v-451q0 -116 60.5 -177t181.5 -61q115 0 215 41v648h307v-1170h145v-557h-280v293h-172z" />
    <glyph glyph-name="uni04B7" unicode="&#x4b7;" horiz-adv-x="1222" 
d="M756 0v348q-109 -33 -215 -33q-218 0 -322 98.5t-104 313.5v326h288v-299q0 -105 45.5 -152t147.5 -47q81 0 160 29v469h288v-809h148v-516h-279v272h-157z" />
    <glyph glyph-name="uni04BA" unicode="&#x4ba;" horiz-adv-x="1294" 
d="M455 1434v-531q121 43 264 43q244 0 372 -117t128 -335v-494h-308v451q0 237 -243 237q-113 0 -213 -41v-647h-308v1434h308z" />
    <glyph glyph-name="uni04BB" unicode="&#x4bb;" horiz-adv-x="1284" 
d="M145 0v1434h289v-502q110 133 301 133q189 0 302.5 -115.5t113.5 -357.5v-592h-289v565q0 118 -49.5 185t-153.5 67q-106 0 -165.5 -71t-59.5 -197v-549h-289z" />
    <glyph glyph-name="uni04C0" unicode="&#x4c0;" horiz-adv-x="1120" 
d="M113 0v256h295v922h-295v256h895v-256h-293v-922h293v-256h-895z" />
    <glyph glyph-name="uni04CF" unicode="&#x4cf;" horiz-adv-x="1001" 
d="M76 0v244h289v946h-289v244h579v-1190h277v-244h-856z" />
    <glyph glyph-name="uni04D8" unicode="&#x4d8;" horiz-adv-x="1384" 
d="M674 -12q-297 0 -450 212.5t-134 600.5h895q-12 191 -92.5 290t-222.5 99q-226 0 -273 -254h-301q23 232 179 371t391 139q297 0 463.5 -192.5t166.5 -536.5q0 -340 -166 -534.5t-456 -194.5zM684 244q126 0 197.5 77.5t91.5 235.5h-576q21 -313 287 -313z" />
    <glyph glyph-name="uni04D9" unicode="&#x4d9;" horiz-adv-x="1232" 
d="M592 1065q257 0 404 -145t147 -392q0 -245 -145.5 -392.5t-385.5 -147.5q-233 0 -377 137.5t-147 368.5q0 53 8 100h746v12q-4 112 -68.5 176t-169.5 64q-85 0 -140.5 -39t-74.5 -111h-287q26 160 157.5 264.5t332.5 104.5zM836 403h-457q13 -96 74.5 -148t156.5 -52
q92 0 154 53.5t72 146.5z" />
    <glyph glyph-name="uni04E2" unicode="&#x4e2;" horiz-adv-x="1429" 
d="M147 0v1434h299v-902l574 902h262v-1434h-299v901l-573 -901h-263zM393 1606v209h637v-209h-637z" />
    <glyph glyph-name="uni04E3" unicode="&#x4e3;" horiz-adv-x="1286" 
d="M145 0v1053h279v-635l465 635h252v-1053h-281v635l-463 -635h-252zM326 1225v209h637v-209h-637z" />
    <glyph glyph-name="uni04E8" unicode="&#x4e8;" horiz-adv-x="1413" 
d="M707 -12q-278 0 -448.5 199t-170.5 530t170.5 530t448.5 199q279 0 448.5 -199t169.5 -530t-169.5 -530t-448.5 -199zM707 238q132 0 210 90t95 264h-611q20 -175 97.5 -264.5t208.5 -89.5zM401 840h611q-17 175 -95 265.5t-210 90.5q-131 0 -209 -90t-97 -266z" />
    <glyph glyph-name="uni04E9" unicode="&#x4e9;" horiz-adv-x="1259" 
d="M629 -12q-243 0 -392 147.5t-149 390.5t149 391t392 148q244 0 393 -148t149 -391t-148.5 -390.5t-393.5 -147.5zM629 213q98 0 164.5 60t87.5 161h-502q21 -101 87 -161t163 -60zM379 618h502q-21 102 -87.5 162t-164.5 60q-96 0 -162.5 -61t-87.5 -161z" />
    <glyph glyph-name="uni04EE" unicode="&#x4ee;" horiz-adv-x="1320" 
d="M207 0v264h131q76 0 114 21.5t66 87.5l31 63l-526 998h339l336 -670l279 670h321l-503 -1141q-70 -159 -159 -226t-216 -67h-213zM342 1606v209h637v-209h-637z" />
    <glyph glyph-name="uni04EF" unicode="&#x4ef;" horiz-adv-x="1181" 
d="M111 -410v244h170q55 0 80 18t47 72l26 70l-409 1059h307l260 -750l258 750h309l-473 -1203q-29 -73 -50.5 -114.5t-54.5 -78.5t-76 -52t-104 -15h-290zM268 1225v209h637v-209h-637z" />
    </font>
</defs>
</svg>
