<?xml version="1.0" standalone="no"?>
<!DOCTYPE svg PUBLIC "-//W3C//DTD SVG 1.1//EN" "http://www.w3.org/Graphics/SVG/1.1/DTD/svg11.dtd" >
<svg xmlns="http://www.w3.org/2000/svg" xmlns:xlink="http://www.w3.org/1999/xlink" version="1.1">
<metadata>
Created by FontForge 20201107 at Fri Nov 14 04:01:44 2025
 By 
Copyright 2025 CoType Foundry. All Rights Reserved.
</metadata>
<defs>
<font id="AeonikExtendedProTRIAL-Light" horiz-adv-x="1777" >
  <font-face 
    font-family="Aeonik Extended Pro TRIAL Light"
    font-weight="300"
    font-stretch="expanded"
    units-per-em="2048"
    panose-1="2 11 4 3 3 3 0 0 0 0"
    ascent="1638"
    descent="-410"
    x-height="1038"
    cap-height="1434"
    bbox="-178 -422 2439 1835"
    underline-thickness="77"
    underline-position="-212"
    unicode-range="U+0020-04EF"
  />
<missing-glyph horiz-adv-x="1269" 
d="M123 -223v1698h1024v-1698h-1024zM322 -18h94v112h57q62 0 99.5 34t37.5 91q0 58 -37.5 92.5t-99.5 34.5h-151v-364zM416 172v96h49q22 0 35.5 -13t13.5 -36q0 -22 -13.5 -34.5t-35.5 -12.5h-49zM692 -18h256v81h-160v64h123v76h-123v61h154v82h-250v-364zM391 455h96
v282h103v82h-299v-82h100v-282zM758 455h96v135l131 229h-106l-72 -133l-68 133h-112l131 -229v-135zM444 926q66 0 106.5 38t45.5 99h-94q-13 -59 -62 -59q-71 0 -71 106q0 107 71 107q48 0 62 -62h94q-5 63 -45.5 101t-106.5 38q-84 0 -129 -49t-45 -135t45 -135t129 -49z
M807 926q81 0 129.5 51.5t48.5 132.5q0 80 -49 132t-129 52q-81 0 -129.5 -52t-48.5 -132q0 -81 48 -132.5t130 -51.5zM807 1004q-39 0 -59.5 29.5t-20.5 76.5q0 48 21 77.5t59 29.5t59 -29.5t21 -77.5q0 -47 -20.5 -76.5t-59.5 -29.5z" />
    <glyph glyph-name=".notdef" horiz-adv-x="1269" 
d="M123 -223v1698h1024v-1698h-1024zM322 -18h94v112h57q62 0 99.5 34t37.5 91q0 58 -37.5 92.5t-99.5 34.5h-151v-364zM416 172v96h49q22 0 35.5 -13t13.5 -36q0 -22 -13.5 -34.5t-35.5 -12.5h-49zM692 -18h256v81h-160v64h123v76h-123v61h154v82h-250v-364zM391 455h96
v282h103v82h-299v-82h100v-282zM758 455h96v135l131 229h-106l-72 -133l-68 133h-112l131 -229v-135zM444 926q66 0 106.5 38t45.5 99h-94q-13 -59 -62 -59q-71 0 -71 106q0 107 71 107q48 0 62 -62h94q-5 63 -45.5 101t-106.5 38q-84 0 -129 -49t-45 -135t45 -135t129 -49z
M807 926q81 0 129.5 51.5t48.5 132.5q0 80 -49 132t-129 52q-81 0 -129.5 -52t-48.5 -132q0 -81 48 -132.5t130 -51.5zM807 1004q-39 0 -59.5 29.5t-20.5 76.5q0 48 21 77.5t59 29.5t59 -29.5t21 -77.5q0 -47 -20.5 -76.5t-59.5 -29.5z" />
    <glyph glyph-name=".null" horiz-adv-x="0" 
 />
    <glyph glyph-name="nonmarkingreturn" horiz-adv-x="682" 
 />
    <glyph glyph-name="space" unicode=" " horiz-adv-x="579" 
 />
    <glyph glyph-name="comma" unicode="," horiz-adv-x="399" 
d="M57 -262v63q86 3 134.5 49t48.5 111q0 36 -23 53q-19 -24 -57 -24q-32 0 -55 19t-23 54t25 57.5t67 22.5q59 0 99 -49.5t40 -120.5q0 -102 -68.5 -166.5t-187.5 -68.5z" />
    <glyph glyph-name="hyphen" unicode="-" horiz-adv-x="1030" 
d="M121 530v97h788v-97h-788z" />
    <glyph glyph-name="period" unicode="." horiz-adv-x="380" 
d="M190 -10q-35 0 -57 22t-22 56t22 54.5t57 20.5t57.5 -20.5t22.5 -54.5t-22.5 -56t-57.5 -22z" />
    <glyph glyph-name="zero" unicode="0" horiz-adv-x="1419" 
d="M711 -12q-296 0 -454.5 179.5t-158.5 516.5v66q0 331 160.5 513.5t452.5 182.5q290 0 450 -182.5t160 -513.5v-66q0 -337 -157.5 -516.5t-452.5 -179.5zM711 86q246 0 373.5 153.5t127.5 448.5v57q0 295 -127.5 449t-373.5 154q-247 0 -375.5 -154t-128.5 -449v-57
q0 -295 128.5 -448.5t375.5 -153.5z" />
    <glyph glyph-name="one" unicode="1" horiz-adv-x="673" 
d="M416 0v1079q-32 -35 -109 -35h-299v97h299q54 0 82.5 29.5t28.5 80.5v183h104v-1434h-106z" />
    <glyph glyph-name="two" unicode="2" horiz-adv-x="1249" 
d="M47 0v92l705 498q154 109 226.5 215t72.5 221q0 154 -113.5 239t-323.5 85q-206 0 -324 -95.5t-118 -265.5v-28h-109v34q0 207 150 329t401 122q257 0 402 -110t145 -304q0 -150 -80.5 -266.5t-277.5 -253.5l-582 -414h961v-98h-1135z" />
    <glyph glyph-name="three" unicode="3" horiz-adv-x="1337" 
d="M653 -12q-278 0 -432.5 113t-159.5 317h109q3 -160 131 -247t358 -87q223 0 351.5 84.5t128.5 230.5q0 283 -463 283h-162v100h156q196 0 309 77t113 214q0 132 -111 204.5t-315 72.5q-209 0 -327 -79.5t-128 -228.5h-107q7 187 158.5 295.5t405.5 108.5q250 0 391 -98
t141 -271q0 -137 -80.5 -223t-232.5 -111q174 -20 267 -107t93 -233q0 -190 -161 -302.5t-433 -112.5z" />
    <glyph glyph-name="four" unicode="4" horiz-adv-x="1372" 
d="M961 0v377h-924v100l905 957h125v-959h285v-98h-285v-377h-106zM168 475h793v836z" />
    <glyph glyph-name="five" unicode="5" horiz-adv-x="1318" 
d="M666 -12q-259 0 -406.5 110t-165.5 293h107q21 -144 139 -225.5t326 -81.5q212 0 342.5 103t130.5 284q0 176 -121 279.5t-340 103.5q-339 0 -451 -233l-102 8l63 805h953v-99h-858l-50 -569q141 184 455 184q260 0 409.5 -130t149.5 -347q0 -225 -160.5 -355
t-420.5 -130z" />
    <glyph glyph-name="six" unicode="6" horiz-adv-x="1366" 
d="M707 -12q-311 0 -467 196q-142 173 -142 527q0 360 157 547.5t458 187.5q218 0 352 -92t174 -267h-109q-76 265 -421 265q-250 0 -378 -155t-128 -458q0 -74 8 -139q29 159 165 248.5t349 89.5q258 0 405.5 -125.5t147.5 -345.5q0 -221 -154 -350t-417 -129zM707 82
q217 0 338.5 101.5t121.5 281.5q0 179 -120 278t-338 99q-212 0 -335.5 -101t-123.5 -276q0 -173 125.5 -278t331.5 -105z" />
    <glyph glyph-name="seven" unicode="7" horiz-adv-x="1206" 
d="M186 0l863 1335h-1037v99h1172v-78l-877 -1356h-121z" />
    <glyph glyph-name="eight" unicode="8" horiz-adv-x="1384" 
d="M692 -12q-275 0 -436.5 104.5t-161.5 282.5q0 150 103.5 246t287.5 122q-159 22 -249.5 108.5t-90.5 221.5q0 172 147.5 272.5t399.5 100.5t399.5 -100.5t147.5 -272.5q0 -134 -91.5 -221t-248.5 -109q184 -26 287.5 -122t103.5 -246q0 -179 -160.5 -283t-437.5 -104z
M692 82q231 0 359.5 80t128.5 223q0 145 -128 224t-360 79q-231 0 -359 -78.5t-128 -224.5q0 -143 128 -223t359 -80zM692 791q206 0 322 73.5t116 206.5q0 132 -116 206.5t-322 74.5t-322 -74.5t-116 -206.5q0 -133 116 -206.5t322 -73.5z" />
    <glyph glyph-name="nine" unicode="9" horiz-adv-x="1366" 
d="M662 1446q307 0 466 -197q140 -174 140 -526q0 -360 -157 -547.5t-458 -187.5q-217 0 -351.5 91.5t-172.5 266.5h107q40 -134 143.5 -199t277.5 -65q252 0 380 154.5t128 457.5q0 75 -8 140q-31 -159 -166 -248.5t-348 -89.5q-258 0 -405.5 125.5t-147.5 345.5
q0 221 154 350t418 129zM659 1352q-215 0 -337.5 -101.5t-122.5 -281.5q0 -178 120.5 -277.5t337.5 -99.5q214 0 336.5 101t122.5 276q0 173 -125 278t-332 105z" />
    <glyph glyph-name="A" unicode="A" horiz-adv-x="1525" 
d="M31 0l667 1434h129l668 -1434h-123l-203 438h-817l-202 -438h-119zM399 541h723l-362 782z" />
    <glyph glyph-name="B" unicode="B" horiz-adv-x="1421" 
d="M141 0v1434h619q237 0 364 -95.5t127 -273.5q0 -254 -278 -324q356 -52 356 -342q0 -197 -143 -298t-422 -101h-623zM252 100h512q453 0 453 295q0 287 -453 287h-512v-582zM252 782h512q184 0 280.5 71t96.5 206q0 134 -96 204t-281 70h-512v-551z" />
    <glyph glyph-name="C" unicode="C" horiz-adv-x="1656" 
d="M874 -12q-356 0 -570 199t-214 530q0 217 98.5 382.5t278.5 256t416 90.5q271 0 450.5 -118t239.5 -335h-117q-62 172 -208.5 261t-370.5 89q-308 0 -491 -169.5t-183 -456.5t181.5 -457t487.5 -170q462 0 580 352h117q-60 -220 -239 -337t-456 -117z" />
    <glyph glyph-name="D" unicode="D" horiz-adv-x="1585" 
d="M141 0v1434h510q407 0 625.5 -185.5t218.5 -531.5q0 -344 -219 -530.5t-625 -186.5h-510zM252 102h399q358 0 544.5 157t186.5 458t-186 457.5t-545 156.5h-399v-1229z" />
    <glyph glyph-name="E" unicode="E" horiz-adv-x="1282" 
d="M141 0v1434h1047v-103h-936v-547h788v-102h-788v-580h971v-102h-1082z" />
    <glyph glyph-name="F" unicode="F" horiz-adv-x="1206" 
d="M141 0v1434h1010v-103h-899v-567h749v-102h-749v-662h-111z" />
    <glyph glyph-name="G" unicode="G" horiz-adv-x="1730" 
d="M858 -12q-343 0 -555.5 202t-212.5 527q0 330 215.5 529.5t571.5 199.5q275 0 456 -118t240 -335h-119q-57 172 -205 261t-375 89q-308 0 -489.5 -169.5t-181.5 -456.5q0 -285 179.5 -456t477.5 -171q284 0 457.5 135.5t173.5 358.5v61h-576v103h684v-748h-96l-6 317
q-66 -152 -238 -240.5t-401 -88.5z" />
    <glyph glyph-name="H" unicode="H" horiz-adv-x="1525" 
d="M141 0v1434h111v-652h1022v652h110v-1434h-110v680h-1022v-680h-111z" />
    <glyph glyph-name="I" unicode="I" horiz-adv-x="393" 
d="M141 0v1434h111v-1434h-111z" />
    <glyph glyph-name="J" unicode="J" horiz-adv-x="763" 
d="M47 0v102h221q129 0 186.5 58.5t57.5 189.5v1084h111v-1092q0 -173 -84.5 -257.5t-257.5 -84.5h-234z" />
    <glyph glyph-name="K" unicode="K" horiz-adv-x="1435" 
d="M141 0v1434h111v-904l960 904h150l-631 -594l686 -840h-139l-633 762l-393 -371v-391h-111z" />
    <glyph glyph-name="L" unicode="L" horiz-adv-x="1132" 
d="M141 0v1434h111v-1332h833v-102h-944z" />
    <glyph glyph-name="M" unicode="M" horiz-adv-x="1927" 
d="M141 0v1434h133l691 -1301l692 1301h131v-1434h-111v1247l-663 -1247h-99l-663 1247v-1247h-111z" />
    <glyph glyph-name="N" unicode="N" horiz-adv-x="1540" 
d="M141 0v1434h103l1046 -1258v1258h109v-1434h-105l-1044 1257v-1257h-109z" />
    <glyph glyph-name="O" unicode="O" 
d="M889 -12q-238 0 -419.5 90t-280.5 255.5t-99 383.5q0 217 99 382.5t280.5 256t419.5 90.5t419.5 -90.5t280.5 -256t99 -382.5q0 -218 -99 -383.5t-280.5 -255.5t-419.5 -90zM889 90q314 0 500 170t186 457q0 286 -186.5 456t-499.5 170q-312 0 -499 -170t-187 -456
q0 -287 186.5 -457t499.5 -170z" />
    <glyph glyph-name="P" unicode="P" horiz-adv-x="1355" 
d="M141 0v1434h672q226 0 359 -113t133 -305t-133 -305t-359 -113h-561v-598h-111zM252 700h561q173 0 276 85.5t103 230.5q0 146 -102.5 230.5t-276.5 84.5h-561v-631z" />
    <glyph glyph-name="Q" unicode="Q" 
d="M1585 0q-76 0 -120.5 20t-102.5 86q-200 -118 -473 -118q-238 0 -419.5 90t-280.5 255.5t-99 383.5q0 217 99 382.5t280.5 256t419.5 90.5t419.5 -90.5t280.5 -256t99 -382.5q0 -173 -63 -313t-181 -238q39 -39 71 -51.5t89 -12.5h122v-102h-141zM889 90q227 0 399 96
l-119 127q-38 42 -72 58t-85 16h-146v102h164q72 0 115.5 -20t99.5 -82l127 -141q203 172 203 471q0 286 -186.5 456t-499.5 170q-312 0 -499 -170t-187 -456q0 -287 186.5 -457t499.5 -170z" />
    <glyph glyph-name="R" unicode="R" horiz-adv-x="1390" 
d="M141 0v1434h660q232 0 368 -111.5t136 -306.5q0 -170 -109.5 -277t-312.5 -127l422 -612h-131l-410 598h-512v-598h-111zM252 700h557q174 0 278.5 83.5t104.5 232.5t-104.5 232t-286.5 83h-549v-631z" />
    <glyph glyph-name="S" unicode="S" horiz-adv-x="1406" 
d="M717 -12q-281 0 -448.5 120t-180.5 332h115q12 -164 149.5 -258t366.5 -94q235 0 359 77t124 220q0 132 -107 190.5t-386 96.5q-321 42 -451.5 123.5t-130.5 253.5q0 189 151.5 293t423.5 104q256 0 412 -108t176 -300h-112q-22 145 -148 226.5t-328 81.5
q-231 0 -347.5 -74t-116.5 -217q0 -131 99 -185t382 -90q319 -42 456.5 -129t137.5 -258q0 -190 -158 -297.5t-438 -107.5z" />
    <glyph glyph-name="T" unicode="T" horiz-adv-x="1400" 
d="M645 0v1331h-598v103h1307v-103h-598v-1331h-111z" />
    <glyph glyph-name="U" unicode="U" horiz-adv-x="1513" 
d="M754 -12q-314 0 -468.5 152.5t-154.5 461.5v832h111v-838q0 -258 125.5 -382t386.5 -124q264 0 391 124t127 382v838h110v-832q0 -309 -156.5 -461.5t-471.5 -152.5z" />
    <glyph glyph-name="V" unicode="V" horiz-adv-x="1470" 
d="M672 0l-652 1434h121l596 -1313l594 1313h119l-649 -1434h-129z" />
    <glyph glyph-name="W" unicode="W" horiz-adv-x="2326" 
d="M569 0l-528 1434h117l475 -1301l473 1301h115l473 -1301l475 1301h117l-529 -1434h-131l-463 1276l-463 -1276h-131z" />
    <glyph glyph-name="X" unicode="X" horiz-adv-x="1429" 
d="M39 0l608 735l-571 699h139l502 -611l500 611h137l-570 -693l607 -741h-142l-536 655l-537 -655h-137z" />
    <glyph glyph-name="Y" unicode="Y" horiz-adv-x="1476" 
d="M684 0v528l-664 906h136l585 -799l586 799h129l-661 -906v-528h-111z" />
    <glyph glyph-name="Z" unicode="Z" horiz-adv-x="1394" 
d="M57 0v82l1098 1249h-1075v103h1239v-82l-1098 -1250h1116v-102h-1280z" />
    <glyph glyph-name="a" unicode="a" horiz-adv-x="1284" 
d="M512 -12q-204 0 -319 80.5t-115 224.5q0 301 467 301h459v68q0 146 -96.5 221t-284.5 75q-337 0 -392 -210h-104q26 150 153 226.5t347 76.5q235 0 358 -101.5t123 -294.5v-438q0 -63 26.5 -92t86.5 -29h47v-96h-70q-190 0 -190 174v55q-51 -109 -185.5 -175t-310.5 -66z
M524 78q209 0 344.5 96.5t135.5 245.5v84h-467q-181 0 -267 -51.5t-86 -155.5q0 -106 88 -162.5t252 -56.5z" />
    <glyph glyph-name="b" unicode="b" horiz-adv-x="1392" 
d="M725 -12q-175 0 -301.5 69.5t-185.5 192.5l-11 -250h-98v1434h104v-652q61 126 190 197.5t302 71.5q265 0 424.5 -147t159.5 -384q0 -240 -159 -386t-425 -146zM715 82q223 0 355 118.5t132 319.5q0 200 -132 319t-355 119q-221 0 -352.5 -119t-131.5 -319
q0 -201 131.5 -319.5t352.5 -118.5z" />
    <glyph glyph-name="c" unicode="c" horiz-adv-x="1271" 
d="M672 -12q-264 0 -426 145.5t-162 384.5q0 241 161.5 387t426.5 146q205 0 343.5 -92t176.5 -254h-109q-34 120 -143.5 186.5t-269.5 66.5q-220 0 -350 -119t-130 -321q0 -200 130 -318t350 -118q161 0 270 67t143 187h109q-38 -163 -177 -255.5t-343 -92.5z" />
    <glyph glyph-name="d" unicode="d" horiz-adv-x="1392" 
d="M668 -12q-267 0 -425.5 145.5t-158.5 386.5q0 237 159 384t425 147q172 0 301 -71.5t190 -197.5v652h105v-1434h-99l-12 250q-58 -123 -184 -192.5t-301 -69.5zM676 82q223 0 354 118.5t131 319.5q0 200 -131.5 319t-353.5 119q-221 0 -353.5 -119.5t-132.5 -318.5
q0 -201 132 -319.5t354 -118.5z" />
    <glyph glyph-name="e" unicode="e" horiz-adv-x="1304" 
d="M674 -12q-267 0 -428.5 147t-161.5 391q0 233 158 379t411 146q258 0 410 -132t158 -362v-39h-1028v-18q0 -192 127.5 -305t345.5 -113q170 0 283 68t153 194h106q-44 -166 -186.5 -261t-347.5 -95zM199 606h911q-15 170 -133 261t-322 91q-195 0 -318 -94.5t-138 -257.5
z" />
    <glyph glyph-name="f" unicode="f" horiz-adv-x="749" 
d="M248 0v942h-238v96h238v115q0 143 68 212t212 69h205v-97h-198q-98 0 -140.5 -42t-42.5 -140v-117h381v-96h-381v-942h-104z" />
    <glyph glyph-name="g" unicode="g" horiz-adv-x="1392" 
d="M678 -422q-238 0 -378.5 86.5t-172.5 253.5h109q31 -121 145 -183.5t305 -62.5q241 0 357 105t116 323v158q-60 -127 -189.5 -198.5t-301.5 -71.5q-272 0 -428 143.5t-156 388.5q0 238 159 384.5t425 146.5q175 0 301 -68.5t184 -191.5l12 247h99v-942q0 -262 -145 -390
t-441 -128zM676 82q223 0 354 118.5t131 319.5q0 200 -131.5 319t-353.5 119q-221 0 -353.5 -119.5t-132.5 -318.5q0 -201 132 -319.5t354 -118.5z" />
    <glyph glyph-name="h" unicode="h" horiz-adv-x="1298" 
d="M129 0v1434h104v-650q55 126 176 196.5t291 70.5q236 0 358 -128.5t122 -375.5v-547h-105v541q0 203 -99 309t-292 106q-213 0 -332 -116.5t-119 -317.5v-522h-104z" />
    <glyph glyph-name="i" unicode="i" horiz-adv-x="362" 
d="M129 0v1038h104v-1038h-104zM180 1260q-33 0 -53.5 20t-20.5 51q0 33 20.5 53.5t53.5 20.5q34 0 55 -21t21 -53q0 -31 -21 -51t-55 -20z" />
    <glyph glyph-name="j" unicode="j" horiz-adv-x="372" 
d="M-178 -410v97h135q98 0 140 42t42 140v1169h105v-1167q0 -148 -66 -214.5t-215 -66.5h-141zM190 1260q-33 0 -53 20t-20 51q0 33 20 53.5t53 20.5q34 0 55 -21t21 -53q0 -31 -21 -51t-55 -20z" />
    <glyph glyph-name="k" unicode="k" horiz-adv-x="1169" 
d="M129 0v1434h104v-1022l738 626h143l-506 -432l549 -606h-137l-490 541l-297 -254v-287h-104z" />
    <glyph glyph-name="l" unicode="l" horiz-adv-x="362" 
d="M129 0v1434h104v-1434h-104z" />
    <glyph glyph-name="m" unicode="m" horiz-adv-x="2088" 
d="M129 0v1038h98l15 -241q53 117 163.5 185.5t253.5 68.5q162 0 263.5 -76t136.5 -223q54 142 177 220.5t294 78.5q212 0 327 -130.5t115 -373.5v-547h-106v541q0 199 -92 306t-261 107q-189 0 -300 -119t-111 -321v-514h-105v541q0 199 -91.5 306t-260.5 107
q-188 0 -300 -117t-112 -313v-524h-104z" />
    <glyph glyph-name="n" unicode="n" horiz-adv-x="1298" 
d="M129 0v1038h98l15 -245q53 122 172 190t286 68q236 0 358 -128.5t122 -375.5v-547h-105v541q0 203 -99 309t-292 106q-213 0 -332 -116.5t-119 -317.5v-522h-104z" />
    <glyph glyph-name="o" unicode="o" horiz-adv-x="1351" 
d="M676 -12q-266 0 -429 146.5t-163 385.5q0 238 163.5 384.5t428.5 146.5t428.5 -146.5t163.5 -384.5q0 -239 -163 -385.5t-429 -146.5zM676 82q223 0 354 118.5t131 319.5q0 200 -131.5 319t-353.5 119q-221 0 -353.5 -119.5t-132.5 -318.5q0 -201 132 -319.5t354 -118.5z
" />
    <glyph glyph-name="p" unicode="p" horiz-adv-x="1392" 
d="M129 -410v1448h98l11 -247q59 123 185.5 191.5t301.5 68.5q265 0 424.5 -147t159.5 -384q0 -240 -159 -386t-425 -146q-174 0 -303 71.5t-189 198.5v-668h-104zM715 82q223 0 355 118.5t132 319.5q0 200 -132 319t-355 119q-221 0 -352.5 -119t-131.5 -319
q0 -201 131.5 -319.5t352.5 -118.5z" />
    <glyph glyph-name="q" unicode="q" horiz-adv-x="1392" 
d="M1159 -410v668q-60 -127 -189.5 -198.5t-301.5 -71.5q-267 0 -425.5 145.5t-158.5 386.5q0 237 159 384t425 147q175 0 301 -68.5t184 -191.5l12 247h99v-1448h-105zM676 82q223 0 354 118.5t131 319.5q0 200 -131.5 319t-353.5 119q-221 0 -353.5 -119.5t-132.5 -318.5
q0 -201 132 -319.5t354 -118.5z" />
    <glyph glyph-name="r" unicode="r" horiz-adv-x="718" 
d="M129 0v1038h98l11 -229q44 118 135 173.5t239 55.5h76v-100h-96q-183 0 -271 -109t-88 -337v-492h-104z" />
    <glyph glyph-name="s" unicode="s" horiz-adv-x="1155" 
d="M600 -12q-245 0 -381 85.5t-143 245.5h106q7 -115 115.5 -177t302.5 -62q184 0 279.5 52t95.5 151q0 95 -84 134.5t-305 57.5q-272 20 -379 81t-107 200q0 140 124 217.5t347 77.5q218 0 344.5 -77.5t143.5 -223.5h-107q-19 103 -117.5 157t-267.5 54q-362 0 -362 -197
q0 -95 81.5 -134.5t303.5 -58.5q273 -22 381 -84t108 -202q0 -138 -128 -217.5t-351 -79.5z" />
    <glyph glyph-name="t" unicode="t" horiz-adv-x="751" 
d="M528 0q-150 0 -215 65.5t-65 215.5v661h-238v96h238v291h104v-291h348v-96h-348v-659q0 -101 42.5 -144t142.5 -43h163v-96h-172z" />
    <glyph glyph-name="u" unicode="u" horiz-adv-x="1282" 
d="M590 -12q-231 0 -351 129t-120 375v546h104v-540q0 -202 97.5 -308t285.5 -106q208 0 325.5 116.5t117.5 317.5v520h104v-1038h-98l-15 246q-55 -121 -172 -189.5t-278 -68.5z" />
    <glyph glyph-name="v" unicode="v" horiz-adv-x="1153" 
d="M514 0l-491 1038h114l441 -929l440 929h112l-491 -1038h-125z" />
    <glyph glyph-name="w" unicode="w" horiz-adv-x="1892" 
d="M455 0l-428 1038h110l377 -925l387 925h96l385 -925l379 925h107l-428 -1038h-113l-381 885l-379 -885h-112z" />
    <glyph glyph-name="x" unicode="x" horiz-adv-x="1126" 
d="M12 0l482 530l-459 508h133l395 -434l395 434h134l-459 -503l481 -535h-133l-418 463l-418 -463h-133z" />
    <glyph glyph-name="y" unicode="y" horiz-adv-x="1155" 
d="M74 -410v97h139q100 0 146 32.5t100 139.5l67 137l-503 1042h114l447 -919l434 919h115l-578 -1208q-69 -147 -134 -193.5t-202 -46.5h-145z" />
    <glyph glyph-name="z" unicode="z" horiz-adv-x="1120" 
d="M45 0v80l862 862h-848v96h1002v-80l-862 -862h876v-96h-1030z" />
    <glyph glyph-name="uni00A0" unicode="&#xa0;" horiz-adv-x="579" 
 />
    <glyph glyph-name="Alphatonos" unicode="&#x386;" horiz-adv-x="1525" 
d="M31 0l667 1434h129l668 -1434h-123l-203 438h-817l-202 -438h-119zM399 541h723l-362 782zM166 1141l108 293h117l-147 -293h-78z" />
    <glyph glyph-name="Epsilontonos" unicode="&#x388;" horiz-adv-x="1398" 
d="M258 0v1434h1049v-103h-938v-547h788v-102h-788v-580h970v-102h-1081zM-102 1141l110 293h115l-148 -293h-77z" />
    <glyph glyph-name="Etatonos" unicode="&#x389;" horiz-adv-x="1644" 
d="M258 0v1434h111v-652h1024v652h110v-1434h-110v680h-1024v-680h-111zM-102 1141l110 293h115l-148 -293h-77z" />
    <glyph glyph-name="Iotatonos" unicode="&#x38a;" horiz-adv-x="509" 
d="M258 0v1434h111v-1434h-111zM-102 1141l110 293h115l-148 -293h-77z" />
    <glyph glyph-name="Omicrontonos" unicode="&#x38c;" horiz-adv-x="1789" 
d="M901 -12q-238 0 -419.5 90t-280.5 255.5t-99 383.5q0 217 99 382.5t280.5 256t419.5 90.5t419.5 -90.5t280.5 -256t99 -382.5q0 -218 -99 -383.5t-280.5 -255.5t-419.5 -90zM901 90q314 0 500 170t186 457q0 286 -186.5 456t-499.5 170t-499.5 -170t-186.5 -456
q0 -287 186 -457t500 -170zM-43 1141l109 293h116l-147 -293h-78z" />
    <glyph glyph-name="Upsilontonos" unicode="&#x38e;" horiz-adv-x="1599" 
d="M805 0v528l-664 906h135l586 -799l586 799h129l-662 -906v-528h-110zM-141 1141l108 293h117l-147 -293h-78z" />
    <glyph glyph-name="Omegatonos" unicode="&#x38f;" 
d="M113 0v102h503v78q-262 81 -382.5 234t-120.5 377q0 142 55.5 262.5t156.5 207.5t251 136t331 49q180 0 330 -49t251.5 -136t157.5 -208t56 -262q0 -224 -120.5 -377t-381.5 -234v-78h502v-102h-596v229q256 80 368.5 216t112.5 346q0 247 -183 399.5t-497 152.5
t-498 -153t-184 -399q0 -210 113.5 -346t370.5 -216v-229h-596zM-31 1141l109 293h117l-148 -293h-78z" />
    <glyph glyph-name="iotadieresistonos" unicode="&#x390;" horiz-adv-x="532" 
d="M371 0q-134 0 -193 59.5t-59 190.5v788h104v-786q0 -85 35 -120.5t121 -35.5h133v-96h-141zM129 1169l21 293h114l-57 -293h-78zM-49 1251q-32 0 -53 20.5t-21 51.5q0 30 21 50t53 20t53 -20t21 -50q0 -31 -21 -51.5t-53 -20.5zM420 1251q-32 0 -53 20.5t-21 51.5
q0 30 21 50t53 20t53 -20t21 -50q0 -31 -21 -51.5t-53 -20.5z" />
    <glyph glyph-name="Alpha" unicode="&#x391;" horiz-adv-x="1525" 
d="M31 0l667 1434h129l668 -1434h-123l-203 438h-817l-202 -438h-119zM399 541h723l-362 782z" />
    <glyph glyph-name="Beta" unicode="&#x392;" horiz-adv-x="1421" 
d="M141 0v1434h619q237 0 364 -95.5t127 -273.5q0 -254 -278 -324q356 -52 356 -342q0 -197 -143 -298t-422 -101h-623zM252 100h512q453 0 453 295q0 287 -453 287h-512v-582zM252 782h512q184 0 280.5 71t96.5 206q0 134 -96 204t-281 70h-512v-551z" />
    <glyph glyph-name="Gamma" unicode="&#x393;" horiz-adv-x="1196" 
d="M141 0v1434h1010v-103h-899v-1331h-111z" />
    <glyph glyph-name="uni0394" unicode="&#x394;" horiz-adv-x="1511" 
d="M41 0v82l651 1352h127l651 -1352v-82h-1429zM168 102h1171l-585 1221z" />
    <glyph glyph-name="Epsilon" unicode="&#x395;" horiz-adv-x="1282" 
d="M141 0v1434h1047v-103h-936v-547h788v-102h-788v-580h971v-102h-1082z" />
    <glyph glyph-name="Zeta" unicode="&#x396;" horiz-adv-x="1394" 
d="M57 0v82l1098 1249h-1075v103h1239v-82l-1098 -1250h1116v-102h-1280z" />
    <glyph glyph-name="Eta" unicode="&#x397;" horiz-adv-x="1525" 
d="M141 0v1434h111v-652h1022v652h110v-1434h-110v680h-1022v-680h-111z" />
    <glyph glyph-name="Theta" unicode="&#x398;" 
d="M889 -12q-238 0 -419.5 90t-280.5 255.5t-99 383.5q0 217 99 382.5t280.5 256t419.5 90.5t419.5 -90.5t280.5 -256t99 -382.5q0 -218 -99 -383.5t-280.5 -255.5t-419.5 -90zM889 90q314 0 500 170t186 457q0 286 -186.5 456t-499.5 170q-312 0 -499 -170t-187 -456
q0 -287 186.5 -457t499.5 -170zM483 670v102h813v-102h-813z" />
    <glyph glyph-name="Iota" unicode="&#x399;" horiz-adv-x="393" 
d="M141 0v1434h111v-1434h-111z" />
    <glyph glyph-name="Kappa" unicode="&#x39a;" horiz-adv-x="1435" 
d="M141 0v1434h111v-904l960 904h150l-631 -594l686 -840h-139l-633 762l-393 -371v-391h-111z" />
    <glyph glyph-name="Lambda" unicode="&#x39b;" horiz-adv-x="1503" 
d="M31 0l653 1434h135l654 -1434h-121l-602 1317l-600 -1317h-119z" />
    <glyph glyph-name="Mu" unicode="&#x39c;" horiz-adv-x="1927" 
d="M141 0v1434h133l691 -1301l692 1301h131v-1434h-111v1247l-663 -1247h-99l-663 1247v-1247h-111z" />
    <glyph glyph-name="Nu" unicode="&#x39d;" horiz-adv-x="1540" 
d="M141 0v1434h103l1046 -1258v1258h109v-1434h-105l-1044 1257v-1257h-109z" />
    <glyph glyph-name="Xi" unicode="&#x39e;" horiz-adv-x="1376" 
d="M59 0v102h1258v-102h-1258zM242 682v102h893v-102h-893zM92 1331v103h1192v-103h-1192z" />
    <glyph glyph-name="Omicron" unicode="&#x39f;" 
d="M889 -12q-238 0 -419.5 90t-280.5 255.5t-99 383.5q0 217 99 382.5t280.5 256t419.5 90.5t419.5 -90.5t280.5 -256t99 -382.5q0 -218 -99 -383.5t-280.5 -255.5t-419.5 -90zM889 90q314 0 500 170t186 457q0 286 -186.5 456t-499.5 170q-312 0 -499 -170t-187 -456
q0 -287 186.5 -457t499.5 -170z" />
    <glyph glyph-name="Pi" unicode="&#x3a0;" horiz-adv-x="1513" 
d="M141 0v1434h1231v-1434h-110v1331h-1010v-1331h-111z" />
    <glyph glyph-name="Rho" unicode="&#x3a1;" horiz-adv-x="1355" 
d="M141 0v1434h672q226 0 359 -113t133 -305t-133 -305t-359 -113h-561v-598h-111zM252 700h561q173 0 276 85.5t103 230.5q0 146 -102.5 230.5t-276.5 84.5h-561v-631z" />
    <glyph glyph-name="Sigma" unicode="&#x3a3;" horiz-adv-x="1415" 
d="M57 0v82l668 651l-645 619v82h1259v-103h-1077l598 -571v-43l-629 -615h1127v-102h-1301z" />
    <glyph glyph-name="Tau" unicode="&#x3a4;" horiz-adv-x="1400" 
d="M645 0v1331h-598v103h1307v-103h-598v-1331h-111z" />
    <glyph glyph-name="Upsilon" unicode="&#x3a5;" horiz-adv-x="1476" 
d="M684 0v528l-664 906h136l585 -799l586 799h129l-661 -906v-528h-111z" />
    <glyph glyph-name="Phi" unicode="&#x3a6;" horiz-adv-x="2050" 
d="M971 0v117h-43q-393 0 -615.5 159t-222.5 441t222.5 441t615.5 159h43v117h108v-117h43q393 0 615.5 -159t222.5 -441t-222.5 -441t-615.5 -159h-43v-117h-108zM928 215h43v1004h-43q-344 0 -535.5 -132t-191.5 -370t191.5 -370t535.5 -132zM1079 215h43q344 0 535.5 132
t191.5 370t-191.5 370t-535.5 132h-43v-1004z" />
    <glyph glyph-name="Chi" unicode="&#x3a7;" horiz-adv-x="1429" 
d="M39 0l608 735l-571 699h139l502 -611l500 611h137l-570 -693l607 -741h-142l-536 655l-537 -655h-137z" />
    <glyph glyph-name="Psi" unicode="&#x3a8;" horiz-adv-x="1783" 
d="M838 0v426q-376 10 -548.5 171.5t-172.5 500.5v336h108v-330q0 -299 142 -433t471 -143v906h108v-906q329 9 471 143t142 433v330h108v-336q0 -339 -172.5 -500.5t-548.5 -171.5v-426h-108z" />
    <glyph glyph-name="uni03A9" unicode="&#x3a9;" horiz-adv-x="1742" 
d="M78 0v102h502v78q-262 81 -382 234t-120 377q0 189 95 337t276 233t421 85q241 0 423 -85t277 -233t95 -337q0 -224 -120.5 -377t-381.5 -234v-78h502v-102h-594v229q256 80 368.5 216t112.5 346q0 246 -184 399t-498 153q-312 0 -496 -153t-184 -399q0 -210 113 -346
t369 -216v-229h-594z" />
    <glyph glyph-name="Iotadieresis" unicode="&#x3aa;" horiz-adv-x="393" 
d="M141 0v1434h111v-1434h-111zM395 1645q-34 0 -55 20.5t-21 52.5q0 31 21.5 51.5t54.5 20.5t54.5 -20.5t21.5 -51.5q0 -32 -21 -52.5t-55 -20.5zM-4 1645q-34 0 -55 20.5t-21 52.5q0 31 21.5 51.5t54.5 20.5t53.5 -20.5t20.5 -51.5q0 -32 -20 -52.5t-54 -20.5z" />
    <glyph glyph-name="Upsilondieresis" unicode="&#x3ab;" horiz-adv-x="1476" 
d="M684 0v528l-664 906h136l585 -799l586 799h129l-661 -906v-528h-111zM938 1645q-34 0 -55 20.5t-21 52.5q0 31 21.5 51.5t54.5 20.5t54.5 -20.5t21.5 -51.5q0 -32 -21 -52.5t-55 -20.5zM537 1645q-34 0 -55 20.5t-21 52.5q0 31 21.5 51.5t54.5 20.5t54 -20.5t21 -51.5
q0 -32 -20.5 -52.5t-54.5 -20.5z" />
    <glyph glyph-name="alphatonos" unicode="&#x3ac;" horiz-adv-x="1464" 
d="M668 -12q-267 0 -425.5 145.5t-158.5 386.5q0 237 159 384t425 147q170 0 295.5 -63.5t187.5 -178.5l14 229h99v-821q0 -63 26 -92t86 -29h62v-96h-84q-97 0 -144 44t-47 140v72q-64 -126 -193 -197t-302 -71zM676 82q223 0 354 118.5t131 319.5q0 200 -131.5 319
t-353.5 119q-221 0 -353.5 -119.5t-132.5 -318.5q0 -201 132 -319.5t354 -118.5zM655 1169l109 293h117l-148 -293h-78z" />
    <glyph glyph-name="epsilontonos" unicode="&#x3ad;" horiz-adv-x="1198" 
d="M610 -12q-258 0 -396 78.5t-138 224.5q0 101 73 163.5t211 77.5q-118 17 -182.5 78t-64.5 154q0 137 125 212t356 75q235 0 376 -83t154 -229h-106q-22 109 -128.5 165.5t-293.5 56.5q-182 0 -278.5 -51.5t-96.5 -147.5q0 -91 77.5 -140t227.5 -49h232v-94h-238
q-166 0 -251 -48t-85 -140q0 -105 107 -159t317 -54q198 0 298 52.5t122 170.5h109q-13 -159 -144 -236t-383 -77zM561 1169l109 293h116l-147 -293h-78z" />
    <glyph glyph-name="etatonos" unicode="&#x3ae;" horiz-adv-x="1368" 
d="M1145 -410v951q0 203 -99 309t-290 106q-214 0 -333.5 -116.5t-119.5 -317.5v-522h-104v821q0 64 -26.5 92.5t-86.5 28.5h-57v96h80q96 0 143 -44t47 -140v-61q59 123 181.5 190.5t289.5 67.5q237 0 358 -128.5t121 -375.5v-957h-104zM496 1169l108 293h117l-148 -293
h-77z" />
    <glyph glyph-name="iotatonos" unicode="&#x3af;" horiz-adv-x="532" 
d="M371 0q-134 0 -193 59.5t-59 190.5v788h104v-786q0 -85 35 -120.5t121 -35.5h133v-96h-141zM133 1169l109 293h116l-147 -293h-78z" />
    <glyph glyph-name="upsilondieresistonos" unicode="&#x3b0;" horiz-adv-x="1265" 
d="M633 -12q-267 0 -390.5 132t-123.5 419v499h104v-491q0 -249 94.5 -356t315.5 -107t315 107t94 356v491h105v-499q0 -286 -123.5 -418.5t-390.5 -132.5zM590 1169l20 293h115l-57 -293h-78zM412 1251q-32 0 -53 20.5t-21 51.5q0 30 21 50t53 20t52.5 -20t20.5 -50
q0 -31 -20.5 -51.5t-52.5 -20.5zM881 1251q-32 0 -53 20.5t-21 51.5q0 30 21 50t53 20t52.5 -20t20.5 -50q0 -31 -20.5 -51.5t-52.5 -20.5z" />
    <glyph glyph-name="alpha" unicode="&#x3b1;" horiz-adv-x="1464" 
d="M668 -12q-267 0 -425.5 145.5t-158.5 386.5q0 237 159 384t425 147q170 0 295.5 -63.5t187.5 -178.5l14 229h99v-821q0 -63 26 -92t86 -29h62v-96h-84q-97 0 -144 44t-47 140v72q-64 -126 -193 -197t-302 -71zM676 82q223 0 354 118.5t131 319.5q0 200 -131.5 319
t-353.5 119q-221 0 -353.5 -119.5t-132.5 -318.5q0 -201 132 -319.5t354 -118.5z" />
    <glyph glyph-name="beta" unicode="&#x3b2;" horiz-adv-x="1337" 
d="M129 -410v1379q0 243 131 360t371 117q236 0 363.5 -93t127.5 -259q0 -125 -78 -213t-219 -119q428 -46 428 -381q0 -186 -134.5 -289.5t-389.5 -103.5q-169 0 -297.5 56.5t-198.5 158.5v-613h-104zM233 471q0 -181 135 -285t363 -104q215 0 314.5 82t99.5 219
q0 163 -130 240t-399 77h-106v93h65q213 0 326 73.5t113 223.5q0 128 -97.5 195t-285.5 67q-197 0 -297.5 -91t-100.5 -286v-504z" />
    <glyph glyph-name="gamma" unicode="&#x3b3;" horiz-adv-x="1185" 
d="M541 -330v353l-518 1015h114l457 -893l457 893h112l-516 -1015v-353h-106z" />
    <glyph glyph-name="delta" unicode="&#x3b4;" horiz-adv-x="1335" 
d="M664 -12q-269 0 -424.5 129.5t-155.5 353.5q0 207 148 338t395 143q100 3 188 -26l-592 424v84h965v-95h-785l576 -413q149 -107 210.5 -211.5t61.5 -239.5q0 -217 -163 -352t-424 -135zM668 80q216 0 346.5 107.5t130.5 285.5q0 173 -130.5 283t-336.5 110
q-225 0 -356.5 -106t-131.5 -287q0 -184 127 -288.5t351 -104.5z" />
    <glyph glyph-name="epsilon" unicode="&#x3b5;" horiz-adv-x="1198" 
d="M610 -12q-258 0 -396 78.5t-138 224.5q0 101 73 163.5t211 77.5q-118 17 -182.5 78t-64.5 154q0 137 125 212t356 75q235 0 376 -83t154 -229h-106q-22 109 -128.5 165.5t-293.5 56.5q-182 0 -278.5 -51.5t-96.5 -147.5q0 -91 77.5 -140t227.5 -49h232v-94h-238
q-166 0 -251 -48t-85 -140q0 -105 107 -159t317 -54q198 0 298 52.5t122 170.5h109q-13 -159 -144 -236t-383 -77z" />
    <glyph glyph-name="zeta" unicode="&#x3b6;" horiz-adv-x="1083" 
d="M924 -276v122q0 86 -39.5 119t-143.5 33l-129 2q-271 2 -403.5 88t-132.5 264q0 134 92 268.5t352 372.5l379 344h-784v97h944v-80l-475 -430q-241 -221 -321.5 -335.5t-80.5 -230.5q0 -134 108 -197t335 -65l131 -2q145 0 206.5 -51.5t61.5 -171.5v-147h-100z" />
    <glyph glyph-name="eta" unicode="&#x3b7;" horiz-adv-x="1368" 
d="M1145 -410v951q0 203 -99 309t-290 106q-214 0 -333.5 -116.5t-119.5 -317.5v-522h-104v821q0 64 -26.5 92.5t-86.5 28.5h-57v96h80q96 0 143 -44t47 -140v-61q59 123 181.5 190.5t289.5 67.5q237 0 358 -128.5t121 -375.5v-957h-104z" />
    <glyph glyph-name="theta" unicode="&#x3b8;" horiz-adv-x="1327" 
d="M664 -12q-283 0 -431.5 187t-148.5 544t147.5 542t432.5 185t432 -183.5t147 -543.5q0 -358 -148 -544.5t-431 -186.5zM664 82q463 0 475 602h-953q12 -602 478 -602zM186 776h953q-10 291 -128.5 433.5t-346.5 142.5q-457 0 -478 -576z" />
    <glyph glyph-name="iota" unicode="&#x3b9;" horiz-adv-x="532" 
d="M371 0q-134 0 -193 59.5t-59 190.5v788h104v-786q0 -85 35 -120.5t121 -35.5h133v-96h-141z" />
    <glyph glyph-name="kappa" unicode="&#x3ba;" horiz-adv-x="1218" 
d="M129 0v1038h104v-657l586 551q76 70 122 88t146 18h72v-96h-57q-94 0 -124 -11t-93 -69l-271 -252l584 -610h-139l-520 543l-306 -287v-256h-104z" />
    <glyph glyph-name="lambda" unicode="&#x3bb;" horiz-adv-x="1196" 
d="M37 0l504 1030l-68 135q-54 108 -99.5 140t-144.5 32h-129v97h133q137 0 201 -46t137 -194l588 -1194h-115l-444 909l-446 -909h-117z" />
    <glyph glyph-name="uni03BC" unicode="&#x3bc;" horiz-adv-x="1359" 
d="M129 -410v1448h104v-540q0 -202 97.5 -308t285.5 -106q208 0 325.5 116.5t117.5 317.5v520h104v-821q0 -63 26.5 -92t86.5 -29h57v-96h-80q-96 0 -143 44t-47 140v64q-58 -123 -178.5 -191.5t-284.5 -68.5q-273 0 -364 202v-600h-107z" />
    <glyph glyph-name="nu" unicode="&#x3bd;" horiz-adv-x="1153" 
d="M514 0l-491 1038h114l441 -929l440 929h112l-491 -1038h-125z" />
    <glyph glyph-name="xi" unicode="&#x3be;" horiz-adv-x="1163" 
d="M952 -276v122q0 87 -38.5 119.5t-143.5 34.5l-176 2q-262 4 -386 96.5t-124 280.5q0 139 94.5 239t245.5 127q-115 25 -182.5 102t-67.5 185q0 127 96 205.5t258 99.5l-383 -2v99h940v-84q-57 0 -276 -7q-257 -11 -392.5 -85.5t-135.5 -210.5q0 -122 94.5 -190.5
t261.5 -68.5h328v-96h-340q-204 0 -319.5 -81.5t-115.5 -223.5q0 -148 99 -216t319 -73l176 -4q147 -2 208 -51.5t61 -169.5v-149h-101z" />
    <glyph glyph-name="omicron" unicode="&#x3bf;" horiz-adv-x="1351" 
d="M676 -12q-266 0 -429 146.5t-163 385.5q0 238 163.5 384.5t428.5 146.5t428.5 -146.5t163.5 -384.5q0 -239 -163 -385.5t-429 -146.5zM676 82q223 0 354 118.5t131 319.5q0 200 -131.5 319t-353.5 119q-221 0 -353.5 -119.5t-132.5 -318.5q0 -201 132 -319.5t354 -118.5z
" />
    <glyph glyph-name="pi" unicode="&#x3c0;" horiz-adv-x="1458" 
d="M1260 0q-97 0 -142 41t-45 127v774h-698v-942h-105v942h-241v96h1392v-96h-243v-752q0 -53 25 -73.5t91 -20.5h58v-96h-92z" />
    <glyph glyph-name="rho" unicode="&#x3c1;" horiz-adv-x="1386" 
d="M119 -410v930q0 238 163.5 384.5t428.5 146.5t428.5 -146.5t163.5 -384.5q0 -241 -158.5 -386.5t-425.5 -145.5q-175 0 -302 60.5t-194 170.5v-629h-104zM711 82q222 0 353.5 118.5t131.5 319.5q0 200 -131.5 319t-353.5 119q-221 0 -353.5 -119.5t-132.5 -318.5
q0 -201 131.5 -319.5t354.5 -118.5z" />
    <glyph glyph-name="sigma1" unicode="&#x3c2;" horiz-adv-x="1271" 
d="M932 -276v122q0 86 -38 118.5t-142 33.5l-105 2q-563 8 -563 518q0 241 161.5 387t426.5 146q206 0 344 -91.5t176 -254.5h-109q-34 120 -143.5 186.5t-269.5 66.5q-220 0 -350 -119t-130 -321q0 -210 105.5 -314.5t357.5 -107.5l113 -2q142 -2 204 -52t62 -171v-147
h-100z" />
    <glyph glyph-name="sigma" unicode="&#x3c3;" horiz-adv-x="1435" 
d="M676 -12q-264 0 -428 145t-164 381q0 234 164 379t428 145h723v-96h-406q131 -56 203 -168t72 -260q0 -236 -164 -381t-428 -145zM676 82q222 0 353.5 117t131.5 315q0 197 -132 314.5t-353 117.5t-353.5 -117.5t-132.5 -314.5t132.5 -314.5t353.5 -117.5z" />
    <glyph glyph-name="tau" unicode="&#x3c4;" horiz-adv-x="1191" 
d="M801 0q-149 0 -215 66t-66 215v661h-491v96h1126v-96h-528v-659q0 -102 41.5 -144.5t142.5 -42.5h182v-96h-192z" />
    <glyph glyph-name="upsilon" unicode="&#x3c5;" horiz-adv-x="1265" 
d="M633 -12q-267 0 -390.5 132t-123.5 419v499h104v-491q0 -249 94.5 -356t315.5 -107t315 107t94 356v491h105v-499q0 -286 -123.5 -418.5t-390.5 -132.5z" />
    <glyph glyph-name="phi" unicode="&#x3c6;" horiz-adv-x="1697" 
d="M799 -410v410h-41q-308 0 -491 141.5t-183 378.5q0 235 183 376.5t491 141.5h41v281h102v-281h41q308 0 491 -141.5t183 -376.5q0 -237 -183 -378.5t-491 -141.5h-41v-410h-102zM758 92h41v854h-41q-262 0 -415 -115.5t-153 -310.5q0 -196 153 -312t415 -116zM901 92h41
q260 0 412.5 116t152.5 312q0 195 -152.5 310.5t-412.5 115.5h-41v-854z" />
    <glyph glyph-name="chi" unicode="&#x3c7;" horiz-adv-x="1333" 
d="M76 -410l532 736l-323 471q-63 93 -106 119t-144 26h-35v96h53q89 0 137.5 -15.5t87 -54t101.5 -130.5l293 -428l456 628h119l-514 -706l326 -500q61 -93 104.5 -119t145.5 -26h34v-97h-55q-89 0 -136 15t-86 54t-101 134l-297 457l-469 -660h-123z" />
    <glyph glyph-name="psi" unicode="&#x3c8;" horiz-adv-x="1564" 
d="M731 -410v398q-317 11 -464.5 151t-147.5 430v469h104v-463q0 -254 117.5 -369t390.5 -124v1231h103v-1231q273 9 390 124t117 369v463h105v-469q0 -290 -147.5 -430t-464.5 -151v-398h-103z" />
    <glyph glyph-name="omega" unicode="&#x3c9;" horiz-adv-x="1824" 
d="M526 -12q-204 0 -318 128t-114 355q0 157 74 313.5t194 253.5h123q-137 -120 -210.5 -267t-73.5 -300q0 -188 85 -288.5t244 -100.5q154 0 243 101.5t89 279.5v215h103v-215q0 -180 87 -280.5t242 -100.5q160 0 245 100.5t85 288.5q0 153 -74 300t-211 267h125
q120 -97 194.5 -253.5t74.5 -313.5q0 -227 -114.5 -355t-318.5 -128q-154 0 -254.5 74t-134.5 212q-35 -138 -135 -212t-250 -74z" />
    <glyph glyph-name="iotadieresis" unicode="&#x3ca;" horiz-adv-x="532" 
d="M371 0q-134 0 -193 59.5t-59 190.5v788h104v-786q0 -85 35 -120.5t121 -35.5h133v-96h-141zM373 1249q-34 0 -55 21t-21 53q0 31 21.5 51.5t54.5 20.5t54.5 -20.5t21.5 -51.5q0 -32 -21 -53t-55 -21zM-29 1249q-33 0 -54 20.5t-21 53.5q0 31 21 51.5t54 20.5t54.5 -20.5
t21.5 -51.5q0 -32 -21 -53t-55 -21z" />
    <glyph glyph-name="upsilondieresis" unicode="&#x3cb;" horiz-adv-x="1265" 
d="M633 -12q-267 0 -390.5 132t-123.5 419v499h104v-491q0 -249 94.5 -356t315.5 -107t315 107t94 356v491h105v-499q0 -286 -123.5 -418.5t-390.5 -132.5zM834 1249q-34 0 -55 21t-21 53q0 31 21.5 51.5t54.5 20.5t54 -20.5t21 -51.5q0 -33 -20.5 -53.5t-54.5 -20.5z
M432 1249q-34 0 -55 21t-21 53q0 31 21.5 51.5t54.5 20.5t54.5 -20.5t21.5 -51.5q0 -32 -21 -53t-55 -21z" />
    <glyph glyph-name="omicrontonos" unicode="&#x3cc;" horiz-adv-x="1351" 
d="M676 -12q-266 0 -429 146.5t-163 385.5q0 238 163.5 384.5t428.5 146.5t428.5 -146.5t163.5 -384.5q0 -239 -163 -385.5t-429 -146.5zM676 82q223 0 354 118.5t131 319.5q0 200 -131.5 319t-353.5 119q-221 0 -353.5 -119.5t-132.5 -318.5q0 -201 132 -319.5t354 -118.5z
M637 1169l111 293h114l-147 -293h-78z" />
    <glyph glyph-name="upsilontonos" unicode="&#x3cd;" horiz-adv-x="1265" 
d="M633 -12q-267 0 -390.5 132t-123.5 419v499h104v-491q0 -249 94.5 -356t315.5 -107t315 107t94 356v491h105v-499q0 -286 -123.5 -418.5t-390.5 -132.5zM594 1169l108 293h117l-147 -293h-78z" />
    <glyph glyph-name="omegatonos" unicode="&#x3ce;" horiz-adv-x="1824" 
d="M526 -12q-204 0 -318 128t-114 355q0 157 74 313.5t194 253.5h123q-137 -120 -210.5 -267t-73.5 -300q0 -188 85 -288.5t244 -100.5q154 0 243 101.5t89 279.5v215h103v-215q0 -180 87 -280.5t242 -100.5q160 0 245 100.5t85 288.5q0 153 -74 300t-211 267h125
q120 -97 194.5 -253.5t74.5 -313.5q0 -227 -114.5 -355t-318.5 -128q-154 0 -254.5 74t-134.5 212q-35 -138 -135 -212t-250 -74zM874 1169l109 293h117l-148 -293h-78z" />
    <glyph glyph-name="uni0400" unicode="&#x400;" horiz-adv-x="1282" 
d="M141 0v1434h1047v-103h-936v-547h788v-102h-788v-580h971v-102h-1082zM616 1563l-276 272h149l222 -272h-95z" />
    <glyph glyph-name="uni0401" unicode="&#x401;" horiz-adv-x="1282" 
d="M141 0v1434h1047v-103h-936v-547h788v-102h-788v-580h971v-102h-1082zM866 1645q-34 0 -54.5 20.5t-20.5 52.5q0 31 21 51.5t54 20.5t54.5 -20.5t21.5 -51.5q0 -32 -21 -52.5t-55 -20.5zM465 1645q-34 0 -55 20.5t-21 52.5q0 31 21.5 51.5t54.5 20.5t54.5 -20.5
t21.5 -51.5q0 -32 -21 -52.5t-55 -20.5z" />
    <glyph glyph-name="uni0402" unicode="&#x402;" horiz-adv-x="1853" 
d="M604 0v1331h-557v103h1307v-103h-639v-534q263 86 504 86q546 0 546 -480v-172q0 -261 -131 -384t-409 -123h-90v102h84q232 0 334 96t102 314v147q0 205 -109.5 302t-328.5 97q-228 0 -502 -92v-690h-111z" />
    <glyph glyph-name="uni0403" unicode="&#x403;" horiz-adv-x="1196" 
d="M141 0v1434h1010v-103h-899v-1331h-111zM602 1565l217 270h144l-269 -270h-92z" />
    <glyph glyph-name="uni0404" unicode="&#x404;" horiz-adv-x="1656" 
d="M874 -12q-356 0 -570 199t-214 530q0 217 98.5 382.5t278.5 256t416 90.5q271 0 450.5 -118t239.5 -335h-117q-62 172 -208.5 261t-370.5 89q-292 0 -472.5 -153t-199.5 -416h858v-102h-858q14 -267 194 -424.5t473 -157.5q462 0 580 352h117q-60 -220 -239 -337
t-456 -117z" />
    <glyph glyph-name="uni0405" unicode="&#x405;" horiz-adv-x="1406" 
d="M717 -12q-281 0 -448.5 120t-180.5 332h115q12 -164 149.5 -258t366.5 -94q235 0 359 77t124 220q0 132 -107 190.5t-386 96.5q-321 42 -451.5 123.5t-130.5 253.5q0 189 151.5 293t423.5 104q256 0 412 -108t176 -300h-112q-22 145 -148 226.5t-328 81.5
q-231 0 -347.5 -74t-116.5 -217q0 -131 99 -185t382 -90q319 -42 456.5 -129t137.5 -258q0 -190 -158 -297.5t-438 -107.5z" />
    <glyph glyph-name="uni0406" unicode="&#x406;" horiz-adv-x="393" 
d="M141 0v1434h111v-1434h-111z" />
    <glyph glyph-name="uni0407" unicode="&#x407;" horiz-adv-x="393" 
d="M141 0v1434h111v-1434h-111zM395 1645q-34 0 -55 20.5t-21 52.5q0 31 21.5 51.5t54.5 20.5t54.5 -20.5t21.5 -51.5q0 -32 -21 -52.5t-55 -20.5zM-6 1645q-34 0 -55 20.5t-21 52.5q0 31 21.5 51.5t54.5 20.5t54.5 -20.5t21.5 -51.5q0 -32 -21 -52.5t-55 -20.5z" />
    <glyph glyph-name="uni0408" unicode="&#x408;" horiz-adv-x="763" 
d="M47 0v102h221q129 0 186.5 58.5t57.5 189.5v1084h111v-1092q0 -173 -84.5 -257.5t-257.5 -84.5h-234z" />
    <glyph glyph-name="uni0409" unicode="&#x409;" horiz-adv-x="2500" 
d="M18 0v102h41q83 0 137 26t94 95.5t57.5 193t17.5 314.5v703h1067v-623h516q238 0 364.5 -104.5t126.5 -300.5q0 -195 -129 -300.5t-364 -105.5h-625v1331h-852v-608q0 -211 -23 -351t-74 -222.5t-122.5 -116t-177.5 -33.5h-54zM1432 102h505q188 0 289 79t101 225
t-101.5 224.5t-288.5 78.5h-505v-607z" />
    <glyph glyph-name="uni040A" unicode="&#x40a;" horiz-adv-x="2435" 
d="M141 0v1434h111v-623h1003v623h111v-623h516q238 0 365 -104.5t127 -300.5q0 -194 -129 -300t-363 -106h-627v709h-1003v-709h-111zM1366 102h508q186 0 286.5 79t100.5 225t-100.5 224.5t-288.5 78.5h-506v-607z" />
    <glyph glyph-name="uni040B" unicode="&#x40b;" horiz-adv-x="1875" 
d="M604 0v1331h-557v103h1307v-103h-639v-534q263 86 504 86q285 0 427 -118.5t142 -361.5v-403h-111v383q0 206 -112.5 302.5t-347.5 96.5q-228 0 -502 -92v-690h-111z" />
    <glyph glyph-name="uni040C" unicode="&#x40c;" horiz-adv-x="1452" 
d="M141 0v1434h111v-652h381l598 652h139l-641 -697l684 -737h-145l-635 680h-381v-680h-111zM657 1565l217 270h144l-268 -270h-93z" />
    <glyph glyph-name="uni040D" unicode="&#x40d;" horiz-adv-x="1540" 
d="M141 0v1434h109v-1266l1046 1266h103v-1434h-109v1266l-1046 -1266h-103zM721 1563l-275 272h148l221 -272h-94z" />
    <glyph glyph-name="uni040E" unicode="&#x40e;" horiz-adv-x="1421" 
d="M201 0v102h133q122 0 179.5 31.5t109.5 128.5l69 123l-672 1049h134l600 -947l522 947h125l-676 -1205q-75 -133 -153.5 -181t-223.5 -48h-147zM727 1575q-157 0 -239.5 68.5t-84.5 191.5h89q0 -182 235 -182q240 0 240 182h90q-2 -124 -86 -192t-244 -68z" />
    <glyph glyph-name="uni040F" unicode="&#x40f;" horiz-adv-x="1503" 
d="M141 0v1434h111v-1332h999v1332h111v-1434h-555v-293h-111v293h-555z" />
    <glyph glyph-name="uni0410" unicode="&#x410;" horiz-adv-x="1525" 
d="M31 0l667 1434h129l668 -1434h-123l-203 438h-817l-202 -438h-119zM399 541h723l-362 782z" />
    <glyph glyph-name="uni0411" unicode="&#x411;" horiz-adv-x="1368" 
d="M141 0v1434h1000v-103h-889v-506h551q238 0 365.5 -106t127.5 -307q0 -196 -129 -304t-364 -108h-662zM252 102h543q187 0 288 80.5t101 229.5t-101.5 230t-287.5 81h-543v-621z" />
    <glyph glyph-name="uni0412" unicode="&#x412;" horiz-adv-x="1421" 
d="M141 0v1434h619q237 0 364 -95.5t127 -273.5q0 -254 -278 -324q356 -52 356 -342q0 -197 -143 -298t-422 -101h-623zM252 100h512q453 0 453 295q0 287 -453 287h-512v-582zM252 782h512q184 0 280.5 71t96.5 206q0 134 -96 204t-281 70h-512v-551z" />
    <glyph glyph-name="uni0413" unicode="&#x413;" horiz-adv-x="1196" 
d="M141 0v1434h1010v-103h-899v-1331h-111z" />
    <glyph glyph-name="uni0414" unicode="&#x414;" horiz-adv-x="1656" 
d="M41 -293v395h135q54 51 86.5 121t52 208t19.5 351v652h1118v-1332h156v-395h-111v293h-1345v-293h-111zM1341 102v1235h-903v-567q0 -277 -31 -427.5t-100 -240.5h1034z" />
    <glyph glyph-name="uni0415" unicode="&#x415;" horiz-adv-x="1282" 
d="M141 0v1434h1047v-103h-936v-547h788v-102h-788v-580h971v-102h-1082z" />
    <glyph glyph-name="uni0416" unicode="&#x416;" horiz-adv-x="2248" 
d="M39 0l573 735l-530 699h131l496 -654h360v654h111v-654h360l496 654h131l-531 -699l574 -735h-139l-527 678h-364v-678h-111v678h-364l-527 -678h-139z" />
    <glyph glyph-name="uni0417" unicode="&#x417;" horiz-adv-x="1409" 
d="M700 -12q-286 0 -445 110.5t-171 315.5h113q12 -160 141.5 -242t368.5 -82q228 0 357.5 80.5t129.5 226.5q0 145 -116.5 215t-354.5 70h-250v98h244q203 0 319.5 77.5t116.5 215.5q0 132 -113 201t-327 69q-223 0 -352 -76.5t-146 -224.5h-113q9 124 87.5 215.5t214 140
t311.5 48.5q259 0 405 -98t146 -271q0 -137 -84.5 -223.5t-243.5 -112.5q180 -20 274.5 -107t94.5 -233q0 -190 -164 -301.5t-443 -111.5z" />
    <glyph glyph-name="uni0418" unicode="&#x418;" horiz-adv-x="1540" 
d="M141 0v1434h109v-1266l1046 1266h103v-1434h-109v1266l-1046 -1266h-103z" />
    <glyph glyph-name="uni0419" unicode="&#x419;" horiz-adv-x="1540" 
d="M141 0v1434h109v-1266l1046 1266h103v-1434h-109v1266l-1046 -1266h-103zM768 1575q-157 0 -239.5 68.5t-84.5 191.5h88q0 -182 236 -182q240 0 240 182h90q-2 -124 -86 -192t-244 -68z" />
    <glyph glyph-name="uni041A" unicode="&#x41a;" horiz-adv-x="1452" 
d="M141 0v1434h111v-652h381l598 652h139l-641 -697l684 -737h-145l-635 680h-381v-680h-111z" />
    <glyph glyph-name="uni041B" unicode="&#x41b;" horiz-adv-x="1609" 
d="M18 0v102h41q83 0 137 26t94 95.5t57.5 193t17.5 314.5v703h1103v-1434h-110v1331h-889v-608q0 -211 -23 -351t-74 -222.5t-122.5 -116t-177.5 -33.5h-54z" />
    <glyph glyph-name="uni041C" unicode="&#x41c;" horiz-adv-x="1927" 
d="M141 0v1434h133l691 -1301l692 1301h131v-1434h-111v1247l-663 -1247h-99l-663 1247v-1247h-111z" />
    <glyph glyph-name="uni041D" unicode="&#x41d;" horiz-adv-x="1525" 
d="M141 0v1434h111v-652h1022v652h110v-1434h-110v680h-1022v-680h-111z" />
    <glyph glyph-name="uni041E" unicode="&#x41e;" 
d="M889 -12q-238 0 -419.5 90t-280.5 255.5t-99 383.5q0 217 99 382.5t280.5 256t419.5 90.5t419.5 -90.5t280.5 -256t99 -382.5q0 -218 -99 -383.5t-280.5 -255.5t-419.5 -90zM889 90q314 0 500 170t186 457q0 286 -186.5 456t-499.5 170q-312 0 -499 -170t-187 -456
q0 -287 186.5 -457t499.5 -170z" />
    <glyph glyph-name="uni041F" unicode="&#x41f;" horiz-adv-x="1513" 
d="M141 0v1434h1231v-1434h-110v1331h-1010v-1331h-111z" />
    <glyph glyph-name="uni0420" unicode="&#x420;" horiz-adv-x="1355" 
d="M141 0v1434h672q226 0 359 -113t133 -305t-133 -305t-359 -113h-561v-598h-111zM252 700h561q173 0 276 85.5t103 230.5q0 146 -102.5 230.5t-276.5 84.5h-561v-631z" />
    <glyph glyph-name="uni0421" unicode="&#x421;" horiz-adv-x="1656" 
d="M874 -12q-356 0 -570 199t-214 530q0 217 98.5 382.5t278.5 256t416 90.5q271 0 450.5 -118t239.5 -335h-117q-62 172 -208.5 261t-370.5 89q-308 0 -491 -169.5t-183 -456.5t181.5 -457t487.5 -170q462 0 580 352h117q-60 -220 -239 -337t-456 -117z" />
    <glyph glyph-name="uni0422" unicode="&#x422;" horiz-adv-x="1400" 
d="M645 0v1331h-598v103h1307v-103h-598v-1331h-111z" />
    <glyph glyph-name="uni0423" unicode="&#x423;" horiz-adv-x="1421" 
d="M201 0v102h133q122 0 179.5 31.5t109.5 128.5l69 123l-672 1049h134l600 -947l522 947h125l-676 -1205q-75 -133 -153.5 -181t-223.5 -48h-147z" />
    <glyph glyph-name="uni0424" unicode="&#x424;" horiz-adv-x="2050" 
d="M971 0v117h-43q-393 0 -615.5 159t-222.5 441t222.5 441t615.5 159h43v117h108v-117h43q393 0 615.5 -159t222.5 -441t-222.5 -441t-615.5 -159h-43v-117h-108zM928 215h43v1004h-43q-344 0 -535.5 -132t-191.5 -370t191.5 -370t535.5 -132zM1079 215h43q344 0 535.5 132
t191.5 370t-191.5 370t-535.5 132h-43v-1004z" />
    <glyph glyph-name="uni0425" unicode="&#x425;" horiz-adv-x="1429" 
d="M39 0l608 735l-571 699h139l502 -611l500 611h137l-570 -693l607 -741h-142l-536 655l-537 -655h-137z" />
    <glyph glyph-name="uni0426" unicode="&#x426;" horiz-adv-x="1566" 
d="M141 0v1434h111v-1332h999v1332h111v-1332h156v-395h-111v293h-1266z" />
    <glyph glyph-name="uni0427" unicode="&#x427;" horiz-adv-x="1423" 
d="M666 541q-293 0 -435.5 118t-142.5 363v412h111v-392q0 -208 113 -303.5t356 -95.5q260 0 506 102v689h110v-1434h-110v637q-244 -96 -508 -96z" />
    <glyph glyph-name="uni0428" unicode="&#x428;" horiz-adv-x="2220" 
d="M141 0v1434h111v-1332h803v1332h110v-1332h805v1332h111v-1434h-1940z" />
    <glyph glyph-name="uni0429" unicode="&#x429;" horiz-adv-x="2283" 
d="M141 0v1434h111v-1332h803v1332h110v-1332h805v1332h111v-1332h153v-395h-110v293h-1983z" />
    <glyph glyph-name="uni042A" unicode="&#x42a;" horiz-adv-x="1796" 
d="M569 0v1331h-522v103h633v-578h561q233 0 363.5 -113.5t130.5 -316.5q0 -200 -131.5 -313t-364.5 -113h-670zM680 102h551q189 0 290 84t101 240q0 158 -101 243t-290 85h-551v-652z" />
    <glyph glyph-name="uni042B" unicode="&#x42b;" horiz-adv-x="1734" 
d="M1483 0v1434h110v-1434h-110zM141 0v1434h111v-574h539q232 0 362.5 -114t130.5 -316t-132 -316t-364 -114h-647zM252 102h528q189 0 289 84.5t100 243.5q0 158 -100.5 243t-288.5 85h-528v-656z" />
    <glyph glyph-name="uni042C" unicode="&#x42c;" horiz-adv-x="1366" 
d="M141 0v1434h111v-574h559q233 0 363.5 -113.5t130.5 -316.5q0 -202 -131 -316t-363 -114h-670zM252 102h551q189 0 289 84.5t100 243.5q0 158 -100.5 243t-288.5 85h-551v-656z" />
    <glyph glyph-name="uni042D" unicode="&#x42d;" horiz-adv-x="1656" 
d="M594 672v102h856q-19 263 -199 416t-471 153q-224 0 -370.5 -89t-208.5 -261h-117q60 217 240.5 335t451.5 118q357 0 574 -200t217 -529q0 -331 -215 -530t-570 -199q-277 0 -456.5 117t-237.5 337h117q118 -352 579 -352q293 0 472.5 157.5t193.5 424.5h-856z" />
    <glyph glyph-name="uni042E" unicode="&#x42e;" horiz-adv-x="2289" 
d="M1407 -12q-347 0 -563 188t-230 500h-362v-676h-111v1434h111v-656h364q22 305 236 486.5t555 181.5q236 0 416 -90.5t278.5 -256t98.5 -382.5q0 -218 -98.5 -383.5t-278.5 -255.5t-416 -90zM1407 90q309 0 494.5 170.5t185.5 456.5q0 285 -185.5 455.5t-494.5 170.5
q-311 0 -496.5 -170t-185.5 -456t185.5 -456.5t496.5 -170.5z" />
    <glyph glyph-name="uni042F" unicode="&#x42f;" horiz-adv-x="1425" 
d="M90 0l471 606q-221 13 -341 122t-120 288q0 195 136 306.5t368 111.5h680v-1434h-110v598h-486l-463 -598h-135zM598 700h576v631h-570q-181 0 -286 -83t-105 -232t104.5 -232.5t280.5 -83.5z" />
    <glyph glyph-name="uni0430" unicode="&#x430;" horiz-adv-x="1284" 
d="M512 -12q-204 0 -319 80.5t-115 224.5q0 301 467 301h459v68q0 146 -96.5 221t-284.5 75q-337 0 -392 -210h-104q26 150 153 226.5t347 76.5q235 0 358 -101.5t123 -294.5v-438q0 -63 26.5 -92t86.5 -29h47v-96h-70q-190 0 -190 174v55q-51 -109 -185.5 -175t-310.5 -66z
M524 78q209 0 344.5 96.5t135.5 245.5v84h-467q-181 0 -267 -51.5t-86 -155.5q0 -106 88 -162.5t252 -56.5z" />
    <glyph glyph-name="uni0431" unicode="&#x431;" horiz-adv-x="1343" 
d="M678 -12q-286 0 -435 146.5t-149 428.5q0 150 13.5 262t45.5 202.5t80.5 153t123.5 107.5t170 71t223 40l426 47v-98l-406 -45q-158 -17 -258 -50.5t-167.5 -99t-99 -160.5t-44.5 -245q60 110 190.5 170.5t310.5 60.5q254 0 407 -134.5t153 -357.5q0 -225 -160.5 -362
t-423.5 -137zM678 80q216 0 346.5 110t130.5 293q0 182 -129.5 292t-343.5 110t-347.5 -104t-133.5 -271q0 -202 126.5 -316t350.5 -114z" />
    <glyph glyph-name="uni0432" unicode="&#x432;" horiz-adv-x="1191" 
d="M129 0v1038h573q367 0 367 -268q0 -92 -52.5 -152.5t-148.5 -80.5q118 -17 182 -81t64 -167q0 -140 -107.5 -214.5t-308.5 -74.5h-569zM233 90h478q146 0 221.5 50.5t75.5 148.5q0 97 -76 147.5t-221 50.5h-478v-397zM233 575h474q256 0 256 187q0 96 -61 141t-191 45
h-478v-373z" />
    <glyph glyph-name="uni0433" unicode="&#x433;" horiz-adv-x="921" 
d="M129 0v1038h770v-96h-666v-942h-104z" />
    <glyph glyph-name="uni0434" unicode="&#x434;" horiz-adv-x="1286" 
d="M18 -276v372h125q44 38 68.5 83.5t39.5 147t15 271.5v440h858v-942h136v-372h-105v276h-1032v-276h-105zM1020 96v850h-651v-358q0 -209 -23.5 -318.5t-73.5 -173.5h748z" />
    <glyph glyph-name="uni0435" unicode="&#x435;" horiz-adv-x="1304" 
d="M674 -12q-267 0 -428.5 147t-161.5 391q0 233 158 379t411 146q258 0 410 -132t158 -362v-39h-1028v-18q0 -192 127.5 -305t345.5 -113q170 0 283 68t153 194h106q-44 -166 -186.5 -261t-347.5 -95zM199 606h911q-15 170 -133 261t-322 91q-195 0 -318 -94.5t-138 -257.5
z" />
    <glyph glyph-name="uni0436" unicode="&#x436;" horiz-adv-x="1665" 
d="M12 0l420 537l-377 501h119l344 -458h262v458h105v-458h264l342 458h119l-375 -501l418 -537h-127l-377 483h-264v-483h-105v483h-262l-379 -483h-127z" />
    <glyph glyph-name="uni0437" unicode="&#x437;" horiz-adv-x="1157" 
d="M567 -12q-238 0 -359 77t-134 238h108q20 -120 111 -172.5t276 -52.5q190 0 296 57t106 158q0 92 -83 140t-243 48h-219v92h213q147 0 229 49.5t82 139.5q0 94 -94.5 146.5t-265.5 52.5q-173 0 -277.5 -57t-126.5 -165h-106q13 145 152.5 228.5t359.5 83.5q221 0 343 -76
t122 -211q0 -91 -68.5 -153t-185.5 -79q134 -15 205 -76.5t71 -162.5q0 -143 -136.5 -224t-375.5 -81z" />
    <glyph glyph-name="uni0438" unicode="&#x438;" horiz-adv-x="1306" 
d="M129 0v1038h102v-895l854 895h93v-1038h-103v897l-854 -897h-92z" />
    <glyph glyph-name="uni0439" unicode="&#x439;" horiz-adv-x="1306" 
d="M129 0v1038h102v-895l854 895h93v-1038h-103v897l-854 -897h-92zM653 1180q-157 0 -239 68t-84 192h88q0 -183 235 -183q240 0 240 183h90q-2 -124 -86 -192t-244 -68z" />
    <glyph glyph-name="uni043A" unicode="&#x43a;" horiz-adv-x="1179" 
d="M129 0v1038h104v-458h306l448 458h135l-491 -499l534 -539h-139l-483 483h-310v-483h-104z" />
    <glyph glyph-name="uni043B" unicode="&#x43b;" horiz-adv-x="1257" 
d="M8 0v96h27q128 0 176.5 94.5t48.5 341.5v506h868v-1038h-104v942h-662v-414q0 -289 -70.5 -408.5t-242.5 -119.5h-41z" />
    <glyph glyph-name="uni043C" unicode="&#x43c;" horiz-adv-x="1607" 
d="M129 0v1038h129l549 -915l545 915h127v-1038h-105v881l-526 -881h-84l-531 881v-881h-104z" />
    <glyph glyph-name="uni043D" unicode="&#x43d;" horiz-adv-x="1292" 
d="M1059 0v483h-826v-483h-104v1038h104v-458h826v458h104v-1038h-104z" />
    <glyph glyph-name="uni043E" unicode="&#x43e;" horiz-adv-x="1351" 
d="M676 -12q-266 0 -429 146.5t-163 385.5q0 238 163.5 384.5t428.5 146.5t428.5 -146.5t163.5 -384.5q0 -239 -163 -385.5t-429 -146.5zM676 82q223 0 354 118.5t131 319.5q0 200 -131.5 319t-353.5 119q-221 0 -353.5 -119.5t-132.5 -318.5q0 -201 132 -319.5t354 -118.5z
" />
    <glyph glyph-name="uni043F" unicode="&#x43f;" horiz-adv-x="1267" 
d="M129 0v1038h1010v-1038h-105v942h-801v-942h-104z" />
    <glyph glyph-name="uni0440" unicode="&#x440;" horiz-adv-x="1392" 
d="M129 -410v1448h98l11 -247q59 123 185.5 191.5t301.5 68.5q265 0 424.5 -147t159.5 -384q0 -240 -159 -386t-425 -146q-174 0 -303 71.5t-189 198.5v-668h-104zM715 82q223 0 355 118.5t132 319.5q0 200 -132 319t-355 119q-221 0 -352.5 -119t-131.5 -319
q0 -201 131.5 -319.5t352.5 -118.5z" />
    <glyph glyph-name="uni0441" unicode="&#x441;" horiz-adv-x="1271" 
d="M672 -12q-264 0 -426 145.5t-162 384.5q0 241 161.5 387t426.5 146q205 0 343.5 -92t176.5 -254h-109q-34 120 -143.5 186.5t-269.5 66.5q-220 0 -350 -119t-130 -321q0 -200 130 -318t350 -118q161 0 270 67t143 187h109q-38 -163 -177 -255.5t-343 -92.5z" />
    <glyph glyph-name="uni0442" unicode="&#x442;" horiz-adv-x="1138" 
d="M518 0v942h-495v96h1093v-96h-493v-942h-105z" />
    <glyph glyph-name="uni0443" unicode="&#x443;" horiz-adv-x="1155" 
d="M74 -410v97h139q100 0 146 32.5t100 139.5l67 137l-503 1042h114l447 -919l434 919h115l-578 -1208q-69 -147 -134 -193.5t-202 -46.5h-145z" />
    <glyph glyph-name="uni0444" unicode="&#x444;" horiz-adv-x="1697" 
d="M799 -410v410h-41q-308 0 -491 141.5t-183 378.5q0 235 183 376.5t491 141.5h41v363h102v-363h41q308 0 491 -141.5t183 -376.5q0 -237 -183 -378.5t-491 -141.5h-41v-410h-102zM758 92h41v854h-41q-262 0 -415 -115.5t-153 -310.5q0 -196 153 -312t415 -116zM901 92h41
q260 0 412.5 116t152.5 312q0 195 -152.5 310.5t-412.5 115.5h-41v-854z" />
    <glyph glyph-name="uni0445" unicode="&#x445;" horiz-adv-x="1126" 
d="M12 0l482 530l-459 508h133l395 -434l395 434h134l-459 -503l481 -535h-133l-418 463l-418 -463h-133z" />
    <glyph glyph-name="uni0446" unicode="&#x446;" horiz-adv-x="1282" 
d="M129 0v1038h104v-942h779v942h104v-942h141v-372h-104v276h-1024z" />
    <glyph glyph-name="uni0447" unicode="&#x447;" horiz-adv-x="1187" 
d="M573 352q-475 0 -475 371v315h105v-311q0 -144 94 -211t289 -67q189 0 368 79v510h105v-1038h-105v426q-188 -74 -381 -74z" />
    <glyph glyph-name="uni0448" unicode="&#x448;" horiz-adv-x="1744" 
d="M129 0v1038h104v-942h586v942h105v-942h587v942h105v-1038h-1487z" />
    <glyph glyph-name="uni0449" unicode="&#x449;" horiz-adv-x="1781" 
d="M129 0v1038h104v-942h586v942h105v-942h587v942h105v-942h141v-372h-104v276h-1524z" />
    <glyph glyph-name="uni044A" unicode="&#x44a;" horiz-adv-x="1460" 
d="M432 0v942h-409v96h514v-370h426q423 0 423 -334q0 -165 -107.5 -249.5t-315.5 -84.5h-531zM537 90h413q167 0 248.5 60.5t81.5 183.5q0 126 -80 185t-250 59h-413v-488z" />
    <glyph glyph-name="uni044B" unicode="&#x44b;" horiz-adv-x="1480" 
d="M129 0v1038h104v-370h406q424 0 424 -334q0 -165 -108 -249.5t-316 -84.5h-510zM233 90h394q167 0 248 60.5t81 183.5q0 126 -79.5 185t-249.5 59h-394v-488zM1247 0v1038h105v-1038h-105z" />
    <glyph glyph-name="uni044C" unicode="&#x44c;" horiz-adv-x="1157" 
d="M129 0v1038h104v-370h426q424 0 424 -334q0 -165 -108 -249.5t-316 -84.5h-530zM233 90h414q167 0 248.5 60.5t81.5 183.5q0 126 -80 185t-250 59h-414v-488z" />
    <glyph glyph-name="uni044D" unicode="&#x44d;" horiz-adv-x="1271" 
d="M600 -12q-206 0 -344.5 92.5t-175.5 255.5h108q32 -120 141 -187t271 -67q207 0 335 105.5t142 287.5h-626v92h626q-15 181 -143 286t-334 105q-160 0 -269 -66.5t-143 -186.5h-108q37 162 175.5 254t344.5 92q265 0 426.5 -146t161.5 -387q0 -239 -162 -384.5
t-426 -145.5z" />
    <glyph glyph-name="uni044E" unicode="&#x44e;" horiz-adv-x="1824" 
d="M1151 -12q-252 0 -412.5 133t-175.5 354h-330v-475h-104v1038h104v-467h330q20 218 180 349t408 131q264 0 427 -146.5t163 -384.5q0 -239 -163 -385.5t-427 -146.5zM1151 82q220 0 350.5 118.5t130.5 319.5q0 200 -130.5 319t-350.5 119t-351.5 -119.5t-131.5 -318.5
q0 -201 131.5 -319.5t351.5 -118.5z" />
    <glyph glyph-name="uni044F" unicode="&#x44f;" horiz-adv-x="1167" 
d="M934 0v387h-428l-328 -387h-131l342 397q-153 19 -236 101t-83 215q0 155 111.5 240t312.5 85h544v-1038h-104zM494 477h440v471h-440q-153 0 -235.5 -60.5t-82.5 -172.5q0 -114 82.5 -176t235.5 -62z" />
    <glyph glyph-name="uni0450" unicode="&#x450;" horiz-adv-x="1304" 
d="M674 -12q-267 0 -428.5 147t-161.5 391q0 233 158 379t411 146q258 0 410 -132t158 -362v-39h-1028v-18q0 -192 127.5 -305t345.5 -113q170 0 283 68t153 194h106q-44 -166 -186.5 -261t-347.5 -95zM199 606h911q-15 170 -133 261t-322 91q-195 0 -318 -94.5t-138 -257.5
zM602 1169l-274 271h147l221 -271h-94z" />
    <glyph glyph-name="uni0451" unicode="&#x451;" horiz-adv-x="1304" 
d="M674 -12q-267 0 -428.5 147t-161.5 391q0 233 158 379t411 146q258 0 410 -132t158 -362v-39h-1028v-18q0 -192 127.5 -305t345.5 -113q170 0 283 68t153 194h106q-44 -166 -186.5 -261t-347.5 -95zM199 606h911q-15 170 -133 261t-322 91q-195 0 -318 -94.5t-138 -257.5
zM852 1251q-33 0 -54.5 20.5t-21.5 51.5q0 32 21 52t55 20t55 -20t21 -52q0 -31 -21.5 -51.5t-54.5 -20.5zM453 1251q-33 0 -54.5 20.5t-21.5 51.5q0 32 21 52t55 20q32 0 52.5 -20t20.5 -52q0 -31 -20.5 -51.5t-52.5 -20.5z" />
    <glyph glyph-name="uni0452" unicode="&#x452;" horiz-adv-x="1304" 
d="M764 -410v97h135q98 0 140 42t42 140v672q0 203 -99 309t-292 106q-213 0 -331.5 -116.5t-118.5 -317.5v-522h-105v1192h-166v90h166v152h105v-152h493v-90h-493v-408q55 126 176 196.5t291 70.5q236 0 357.5 -128.5t121.5 -375.5v-676q0 -148 -66 -214.5t-215 -66.5
h-141z" />
    <glyph glyph-name="uni0453" unicode="&#x453;" horiz-adv-x="921" 
d="M129 0v1038h770v-96h-666v-942h-104zM410 1169l217 271h143l-268 -271h-92z" />
    <glyph glyph-name="uni0454" unicode="&#x454;" horiz-adv-x="1271" 
d="M672 -12q-264 0 -426 145.5t-162 384.5q0 241 161.5 387t426.5 146q205 0 343.5 -92t176.5 -254h-109q-34 120 -143.5 186.5t-269.5 66.5q-206 0 -334 -105t-143 -286h626v-92h-626q14 -182 142 -287.5t335 -105.5q161 0 270 67t143 187h109q-38 -163 -177 -255.5
t-343 -92.5z" />
    <glyph glyph-name="uni0455" unicode="&#x455;" horiz-adv-x="1155" 
d="M600 -12q-245 0 -381 85.5t-143 245.5h106q7 -115 115.5 -177t302.5 -62q184 0 279.5 52t95.5 151q0 95 -84 134.5t-305 57.5q-272 20 -379 81t-107 200q0 140 124 217.5t347 77.5q218 0 344.5 -77.5t143.5 -223.5h-107q-19 103 -117.5 157t-267.5 54q-362 0 -362 -197
q0 -95 81.5 -134.5t303.5 -58.5q273 -22 381 -84t108 -202q0 -138 -128 -217.5t-351 -79.5z" />
    <glyph glyph-name="uni0456" unicode="&#x456;" horiz-adv-x="362" 
d="M129 0v1038h104v-1038h-104zM180 1260q-33 0 -53.5 20t-20.5 51q0 33 20.5 53.5t53.5 20.5q34 0 55 -21t21 -53q0 -31 -21 -51t-55 -20z" />
    <glyph glyph-name="uni0457" unicode="&#x457;" horiz-adv-x="362" 
d="M129 0v1038h104v-1038h-104zM313 1260q-32 0 -50.5 20t-18.5 51t18.5 51.5t50.5 20.5t52 -20.5t20 -51.5t-20 -51t-52 -20zM47 1260q-32 0 -52 20t-20 51t20 51.5t52 20.5t51 -20.5t19 -51.5t-19 -51t-51 -20z" />
    <glyph glyph-name="uni0458" unicode="&#x458;" horiz-adv-x="372" 
d="M-178 -410v97h135q98 0 140 42t42 140v1169h105v-1167q0 -148 -66 -214.5t-215 -66.5h-141zM190 1260q-33 0 -53 20t-20 51q0 33 20 53.5t53 20.5q34 0 55 -21t21 -53q0 -31 -21 -51t-55 -20z" />
    <glyph glyph-name="uni0459" unicode="&#x459;" horiz-adv-x="1968" 
d="M8 0v96h27q128 0 176.5 94.5t48.5 341.5v506h844v-413h416q180 0 278 -81.5t98 -230.5t-98.5 -231t-277.5 -82h-521v942h-637v-414q0 -289 -70.5 -408.5t-242.5 -119.5h-41zM1104 90h401q137 0 210 57.5t73 165.5t-72 165t-211 57h-401v-445z" />
    <glyph glyph-name="uni045A" unicode="&#x45a;" horiz-adv-x="1988" 
d="M1020 0v514h-787v-514h-104v1038h104v-428h787v428h104v-426h404q186 0 286.5 -79t100.5 -226t-101 -227t-286 -80h-508zM1124 90h389q145 0 220 55.5t75 161.5t-74.5 160.5t-220.5 54.5h-389v-432z" />
    <glyph glyph-name="uni045B" unicode="&#x45b;" horiz-adv-x="1304" 
d="M-31 1192v90h166v152h105v-152h493v-90h-493v-408q55 126 176 196.5t291 70.5q236 0 357.5 -128.5t121.5 -375.5v-547h-105v541q0 203 -99 309t-292 106q-213 0 -331.5 -116.5t-118.5 -317.5v-522h-105v1192h-166z" />
    <glyph glyph-name="uni045C" unicode="&#x45c;" horiz-adv-x="1179" 
d="M129 0v1038h104v-458h306l448 458h135l-491 -499l534 -539h-139l-483 483h-310v-483h-104zM502 1171l217 271h143l-268 -271h-92z" />
    <glyph glyph-name="uni045D" unicode="&#x45d;" horiz-adv-x="1306" 
d="M129 0v1038h102v-895l854 895h93v-1038h-103v897l-854 -897h-92zM606 1167l-274 273h147l221 -273h-94z" />
    <glyph glyph-name="uni045E" unicode="&#x45e;" horiz-adv-x="1155" 
d="M74 -410v97h139q100 0 146 32.5t100 139.5l67 137l-503 1042h114l447 -919l434 919h115l-578 -1208q-69 -147 -134 -193.5t-202 -46.5h-145zM573 1182q-157 0 -239 68t-84 190h86q0 -183 237 -183q240 0 240 183h90q-2 -123 -86.5 -190.5t-243.5 -67.5z" />
    <glyph glyph-name="uni045F" unicode="&#x45f;" horiz-adv-x="1245" 
d="M129 0v1038h104v-942h779v942h104v-1038h-442v-276h-105v276h-440z" />
    <glyph glyph-name="uni0462" unicode="&#x462;" horiz-adv-x="1439" 
d="M47 1186v96h166v152h111v-152h530v-96h-530v-326h561q232 0 362.5 -114t130.5 -316t-131.5 -316t-363.5 -114h-670v1186h-166zM324 102h550q189 0 289.5 85t100.5 243t-101 243t-289 85h-550v-656z" />
    <glyph glyph-name="uni0463" unicode="&#x463;" horiz-adv-x="1163" 
d="M135 0v948h-166v90h166v396h105v-396h493v-90h-493v-280h426q424 0 424 -334q0 -165 -108 -249.5t-316 -84.5h-531zM240 90h413q167 0 248.5 60.5t81.5 183.5q0 126 -80.5 185t-249.5 59h-413v-488z" />
    <glyph glyph-name="uni0472" unicode="&#x472;" 
d="M889 -12q-238 0 -419.5 90t-280.5 255.5t-99 383.5q0 217 99 382.5t280.5 256t419.5 90.5t419.5 -90.5t280.5 -256t99 -382.5q0 -218 -99 -383.5t-280.5 -255.5t-419.5 -90zM889 90q302 0 487 158.5t197 427.5q-165 -74 -352 -74q-90 0 -216.5 32t-247.5 63.5t-198 31.5
q-208 0 -352 -84q23 -256 206.5 -405.5t475.5 -149.5zM203 756q174 75 356 75q102 0 225 -31.5t238 -63t199 -31.5q209 0 350 81q-23 256 -206.5 406.5t-475.5 150.5q-301 0 -486.5 -159t-199.5 -428z" />
    <glyph glyph-name="uni0473" unicode="&#x473;" horiz-adv-x="1351" 
d="M676 -12q-266 0 -429 146.5t-163 385.5q0 238 163.5 384.5t428.5 146.5t428.5 -146.5t163.5 -384.5q0 -239 -163 -385.5t-429 -146.5zM186 547q121 59 263 59q69 0 227.5 -42t224.5 -42q146 0 260 62q-20 174 -150 276.5t-335 102.5q-216 0 -348.5 -112.5t-141.5 -303.5z
M676 78q216 0 347 111.5t142 302.5q-123 -60 -264 -60q-78 0 -234 42t-218 42q-145 0 -259 -57q20 -177 149.5 -279t336.5 -102z" />
    <glyph glyph-name="uni0474" unicode="&#x474;" horiz-adv-x="1603" 
d="M680 0l-660 1434h121l604 -1313l314 837q54 144 101.5 235t100 145.5t108 75t130.5 20.5h60v-103h-46q-75 0 -128.5 -33t-107.5 -120.5t-116 -251.5l-352 -926h-129z" />
    <glyph glyph-name="uni0475" unicode="&#x475;" horiz-adv-x="1214" 
d="M514 0l-491 1038h114l441 -929l235 624q62 171 136.5 238t209.5 67h25v-96h-25q-97 0 -148 -50t-104 -192l-268 -700h-125z" />
    <glyph glyph-name="uni0490" unicode="&#x490;" horiz-adv-x="1196" 
d="M141 0v1434h899v280h111v-383h-899v-1331h-111z" />
    <glyph glyph-name="uni0491" unicode="&#x491;" horiz-adv-x="921" 
d="M129 0v1038h664v277h104v-277h2v-96h-666v-942h-104z" />
    <glyph glyph-name="uni0492" unicode="&#x492;" horiz-adv-x="1280" 
d="M213 0v664h-166v96h166v674h1010v-103h-899v-571h575v-96h-575v-664h-111z" />
    <glyph glyph-name="uni0493" unicode="&#x493;" horiz-adv-x="978" 
d="M186 0v467h-166v90h166v481h770v-96h-665v-385h430v-90h-430v-467h-105z" />
    <glyph glyph-name="uni0496" unicode="&#x496;" horiz-adv-x="2312" 
d="M39 0l573 735l-530 699h131l496 -654h360v654h111v-654h360l496 654h131l-531 -699l494 -633h160v-395h-111v293h-108l-527 678h-364v-678h-111v678h-364l-527 -678h-139z" />
    <glyph glyph-name="uni0497" unicode="&#x497;" horiz-adv-x="1757" 
d="M12 0l420 537l-377 501h119l344 -458h262v458h105v-458h264l342 458h119l-375 -501l342 -441h158v-379h-105v283h-104l-377 483h-264v-483h-105v483h-262l-379 -483h-127z" />
    <glyph glyph-name="uni049A" unicode="&#x49a;" horiz-adv-x="1515" 
d="M141 0v1434h111v-652h381l598 652h139l-641 -697l590 -635h174v-395h-111v293h-114l-635 680h-381v-680h-111z" />
    <glyph glyph-name="uni049B" unicode="&#x49b;" horiz-adv-x="1269" 
d="M129 0v1038h104v-458h306l448 458h135l-491 -499l438 -443h178v-379h-104v283h-117l-483 483h-310v-483h-104z" />
    <glyph glyph-name="uni04A2" unicode="&#x4a2;" horiz-adv-x="1589" 
d="M141 0v1434h111v-652h1022v652h110v-1332h156v-395h-110v293h-156v680h-1022v-680h-111z" />
    <glyph glyph-name="uni04A3" unicode="&#x4a3;" horiz-adv-x="1329" 
d="M1059 0v483h-826v-483h-104v1038h104v-458h826v458h104v-942h142v-372h-105v276h-141z" />
    <glyph glyph-name="uni04AE" unicode="&#x4ae;" horiz-adv-x="1476" 
d="M684 0v528l-664 906h136l585 -799l586 799h129l-661 -906v-528h-111z" />
    <glyph glyph-name="uni04AF" unicode="&#x4af;" horiz-adv-x="1177" 
d="M537 0l-514 1038h116l451 -911l450 911h115l-514 -1038v-410h-104v410z" />
    <glyph glyph-name="uni04B0" unicode="&#x4b0;" horiz-adv-x="1476" 
d="M684 0v442h-389v95h383l-658 897h136l585 -799l586 799h129l-655 -897h381v-95h-387v-442h-111z" />
    <glyph glyph-name="uni04B1" unicode="&#x4b1;" horiz-adv-x="1177" 
d="M537 0l-514 1038h116l451 -911l450 911h115l-514 -1038h354v-90h-354v-320h-104v320h-355v90h355z" />
    <glyph glyph-name="uni04B2" unicode="&#x4b2;" horiz-adv-x="1492" 
d="M39 0l608 735l-571 699h139l502 -611l500 611h137l-570 -693l523 -639h161v-395h-110v293h-109l-536 655l-537 -655h-137z" />
    <glyph glyph-name="uni04B3" unicode="&#x4b3;" horiz-adv-x="1218" 
d="M12 0l482 530l-459 508h133l395 -434l395 434h134l-459 -503l395 -439h168v-379h-104v283h-111l-418 463l-418 -463h-133z" />
    <glyph glyph-name="uni04B6" unicode="&#x4b6;" horiz-adv-x="1486" 
d="M666 541q-293 0 -435.5 118t-142.5 363v412h111v-392q0 -208 113 -303.5t356 -95.5q260 0 506 102v689h110v-1332h154v-395h-111v293h-153v637q-244 -96 -508 -96z" />
    <glyph glyph-name="uni04B7" unicode="&#x4b7;" horiz-adv-x="1224" 
d="M573 352q-475 0 -475 371v315h105v-311q0 -144 94 -211t289 -67q189 0 368 79v510h105v-942h141v-372h-104v276h-142v426q-188 -74 -381 -74z" />
    <glyph glyph-name="uni04BA" unicode="&#x4ba;" horiz-adv-x="1423" 
d="M758 893q293 0 436 -118t143 -363v-412h-110v391q0 209 -113.5 304.5t-357.5 95.5q-123 0 -256.5 -27.5t-247.5 -75.5v-688h-111v1434h111v-635q112 43 246 68.5t260 25.5z" />
    <glyph glyph-name="uni04BB" unicode="&#x4bb;" horiz-adv-x="1298" 
d="M129 0v1434h104v-650q55 126 176 196.5t291 70.5q236 0 358 -128.5t122 -375.5v-547h-105v541q0 203 -99 309t-292 106q-213 0 -332 -116.5t-119 -317.5v-522h-104z" />
    <glyph glyph-name="uni04C0" unicode="&#x4c0;" horiz-adv-x="393" 
d="M141 0v1434h111v-1434h-111z" />
    <glyph glyph-name="uni04CF" unicode="&#x4cf;" horiz-adv-x="362" 
d="M129 0v1434h104v-1434h-104z" />
    <glyph glyph-name="uni04D8" unicode="&#x4d8;" horiz-adv-x="1683" 
d="M809 -12q-337 0 -530.5 205t-188.5 555h1389q-11 274 -192 434.5t-480 160.5q-224 0 -371 -89t-209 -261h-116q60 217 240.5 335t453.5 118q356 0 572 -199.5t216 -529.5q0 -331 -214.5 -530t-569.5 -199zM811 90q284 0 463 149.5t201 405.5h-1264q10 -254 173.5 -404.5
t426.5 -150.5z" />
    <glyph glyph-name="uni04D9" unicode="&#x4d9;" horiz-adv-x="1304" 
d="M631 1051q268 0 429 -146.5t161 -392.5q0 -233 -158 -378.5t-412 -145.5q-258 0 -409.5 132t-157.5 361v41h1026v19q0 192 -127 304.5t-346 112.5q-168 0 -281 -69t-153 -195h-107q44 167 186.5 262t348.5 95zM1106 432h-913q17 -170 134.5 -261t321.5 -91
q195 0 318.5 95.5t138.5 256.5z" />
    <glyph glyph-name="uni04E2" unicode="&#x4e2;" horiz-adv-x="1540" 
d="M141 0v1434h109v-1266l1046 1266h103v-1434h-109v1266l-1046 -1266h-103zM459 1679v88h624v-88h-624z" />
    <glyph glyph-name="uni04E3" unicode="&#x4e3;" horiz-adv-x="1306" 
d="M129 0v1038h102v-895l854 895h93v-1038h-103v897l-854 -897h-92zM342 1284v88h625v-88h-625z" />
    <glyph glyph-name="uni04E8" unicode="&#x4e8;" 
d="M889 -12q-238 0 -419.5 90t-280.5 255.5t-99 383.5q0 217 99 382.5t280.5 256t419.5 90.5t419.5 -90.5t280.5 -256t99 -382.5q0 -218 -99 -383.5t-280.5 -255.5t-419.5 -90zM889 90q299 0 483 155t201 421h-1368q17 -265 201.5 -420.5t482.5 -155.5zM205 768h1368
q-17 265 -201 420t-483 155q-298 0 -482.5 -155.5t-201.5 -419.5z" />
    <glyph glyph-name="uni04E9" unicode="&#x4e9;" horiz-adv-x="1351" 
d="M676 -12q-266 0 -429 146.5t-163 385.5q0 238 163.5 384.5t428.5 146.5t428.5 -146.5t163.5 -384.5q0 -239 -163 -385.5t-429 -146.5zM676 78q212 0 342 106.5t145 290.5h-975q15 -183 145.5 -290t342.5 -107zM188 565h975q-15 183 -145.5 290.5t-341.5 107.5t-342 -108
t-146 -290z" />
    <glyph glyph-name="uni04EE" unicode="&#x4ee;" horiz-adv-x="1421" 
d="M201 0v102h133q122 0 179.5 31.5t109.5 128.5l69 123l-672 1049h134l600 -947l522 947h125l-676 -1205q-75 -133 -153.5 -181t-223.5 -48h-147zM418 1679v88h624v-88h-624z" />
    <glyph glyph-name="uni04EF" unicode="&#x4ef;" horiz-adv-x="1155" 
d="M74 -410v97h139q100 0 146 32.5t100 139.5l67 137l-503 1042h114l447 -919l434 919h115l-578 -1208q-69 -147 -134 -193.5t-202 -46.5h-145zM264 1286v86h625v-86h-625z" />
    <glyph glyph-name="glyph00054" horiz-adv-x="415" 
d="M-63 -410v97h63q98 0 140 42t42 140v1169h105v-1167q0 -148 -66 -214.5t-215 -66.5h-69zM233 1260q-33 0 -54 20t-21 51q0 33 21 53.5t54 20.5q34 0 55 -21t21 -53q0 -31 -21 -51t-55 -20z" />
    </font>
</defs>
</svg>
