<?xml version="1.0" standalone="no"?>
<!DOCTYPE svg PUBLIC "-//W3C//DTD SVG 1.1//EN" "http://www.w3.org/Graphics/SVG/1.1/DTD/svg11.dtd" >
<svg xmlns="http://www.w3.org/2000/svg" xmlns:xlink="http://www.w3.org/1999/xlink" version="1.1">
<metadata>
Created by FontForge 20201107 at Fri Nov 14 04:01:44 2025
 By 
Copyright 2025 CoType Foundry. All Rights Reserved.
</metadata>
<defs>
<font id="AeonikExtendedProTRIAL-Regular" horiz-adv-x="1423" >
  <font-face 
    font-family="Aeonik Extended Pro TRIAL"
    font-weight="400"
    font-stretch="expanded"
    units-per-em="2048"
    panose-1="2 11 5 3 3 3 0 0 0 0"
    ascent="1638"
    descent="-410"
    x-height="1044"
    cap-height="1434"
    bbox="-172 -422 2468 1835"
    underline-thickness="122"
    underline-position="-235"
    unicode-range="U+0020-04EF"
  />
<missing-glyph horiz-adv-x="1269" 
d="M123 -223v1698h1024v-1698h-1024zM322 -18h94v112h57q62 0 99.5 34t37.5 91q0 58 -37.5 92.5t-99.5 34.5h-151v-364zM416 172v96h49q22 0 35.5 -13t13.5 -36q0 -22 -13.5 -34.5t-35.5 -12.5h-49zM692 -18h256v81h-160v64h123v76h-123v61h154v82h-250v-364zM391 455h96
v282h103v82h-299v-82h100v-282zM758 455h96v135l131 229h-106l-72 -133l-68 133h-112l131 -229v-135zM444 926q66 0 106.5 38t45.5 99h-94q-13 -59 -62 -59q-71 0 -71 106q0 107 71 107q48 0 62 -62h94q-5 63 -45.5 101t-106.5 38q-84 0 -129 -49t-45 -135t45 -135t129 -49z
M807 926q81 0 129.5 51.5t48.5 132.5q0 80 -49 132t-129 52q-81 0 -129.5 -52t-48.5 -132q0 -81 48 -132.5t130 -51.5zM807 1004q-39 0 -59.5 29.5t-20.5 76.5q0 48 21 77.5t59 29.5t59 -29.5t21 -77.5q0 -47 -20.5 -76.5t-59.5 -29.5z" />
    <glyph glyph-name=".notdef" horiz-adv-x="1269" 
d="M123 -223v1698h1024v-1698h-1024zM322 -18h94v112h57q62 0 99.5 34t37.5 91q0 58 -37.5 92.5t-99.5 34.5h-151v-364zM416 172v96h49q22 0 35.5 -13t13.5 -36q0 -22 -13.5 -34.5t-35.5 -12.5h-49zM692 -18h256v81h-160v64h123v76h-123v61h154v82h-250v-364zM391 455h96
v282h103v82h-299v-82h100v-282zM758 455h96v135l131 229h-106l-72 -133l-68 133h-112l131 -229v-135zM444 926q66 0 106.5 38t45.5 99h-94q-13 -59 -62 -59q-71 0 -71 106q0 107 71 107q48 0 62 -62h94q-5 63 -45.5 101t-106.5 38q-84 0 -129 -49t-45 -135t45 -135t129 -49z
M807 926q81 0 129.5 51.5t48.5 132.5q0 80 -49 132t-129 52q-81 0 -129.5 -52t-48.5 -132q0 -81 48 -132.5t130 -51.5zM807 1004q-39 0 -59.5 29.5t-20.5 76.5q0 48 21 77.5t59 29.5t59 -29.5t21 -77.5q0 -47 -20.5 -76.5t-59.5 -29.5z" />
    <glyph glyph-name=".null" horiz-adv-x="0" 
 />
    <glyph glyph-name="nonmarkingreturn" horiz-adv-x="682" 
 />
    <glyph glyph-name="space" unicode=" " horiz-adv-x="583" 
 />
    <glyph glyph-name="comma" unicode="," horiz-adv-x="440" 
d="M55 -276v100q100 1 149.5 48.5t49.5 111.5q0 14 -4 26q-34 -24 -78 -24q-47 0 -81 28.5t-34 81.5q0 52 37.5 85.5t100.5 33.5q78 0 127 -61t49 -148q0 -130 -84 -204.5t-232 -77.5z" />
    <glyph glyph-name="hyphen" unicode="-" horiz-adv-x="1021" 
d="M106 500v153h809v-153h-809z" />
    <glyph glyph-name="period" unicode="." horiz-adv-x="425" 
d="M213 -12q-53 0 -86 31.5t-33 82.5t33 83t86 32t86 -32t33 -83t-33 -82.5t-86 -31.5z" />
    <glyph glyph-name="zero" unicode="0" horiz-adv-x="1454" 
d="M727 -12q-312 0 -475.5 178t-163.5 518v66q0 332 167.5 514t471.5 182t471.5 -182t167.5 -514v-66q0 -340 -163.5 -518t-475.5 -178zM727 145q465 0 465 545v53q0 545 -465 545t-465 -545v-53q0 -545 465 -545z" />
    <glyph glyph-name="one" unicode="1" horiz-adv-x="720" 
d="M408 0v1028q-36 -27 -115 -27h-285v154h287q57 0 87 33.5t30 89.5v156h168v-1434h-172z" />
    <glyph glyph-name="two" unicode="2" horiz-adv-x="1282" 
d="M51 0v145l682 463q293 197 293 402q0 136 -99.5 209t-287.5 73q-184 0 -293.5 -85.5t-109.5 -233.5v-27h-173v37q0 208 160 335.5t416 127.5q266 0 414.5 -114t148.5 -314q0 -157 -85 -274.5t-302 -262.5l-485 -323h889v-158h-1168z" />
    <glyph glyph-name="three" unicode="3" horiz-adv-x="1355" 
d="M664 -12q-287 0 -447.5 118t-161.5 332h172q3 -141 120 -219t327 -78q202 0 313 69.5t111 197.5q0 243 -404 243h-180v158h168q170 0 270.5 66t100.5 182q0 114 -99 174.5t-286 60.5q-188 0 -290 -68.5t-114 -203.5h-172q7 196 163.5 311t414.5 115q264 0 411.5 -100.5
t147.5 -280.5q0 -128 -68 -208.5t-198 -108.5q145 -22 228 -110.5t83 -223.5q0 -198 -163 -312t-447 -114z" />
    <glyph glyph-name="four" unicode="4" 
d="M950 0v350h-909v164l881 920h200v-926h281v-158h-281v-350h-172zM252 508h698v733z" />
    <glyph glyph-name="five" unicode="5" horiz-adv-x="1345" 
d="M686 -12q-143 0 -255.5 31.5t-184 88.5t-110.5 130t-46 161h172q45 -258 424 -258q186 0 303 88t117 248q0 151 -106.5 241.5t-309.5 90.5q-302 0 -409 -201l-166 13l59 813h1004v-158h-852l-37 -453q143 140 420 140q267 0 420 -133t153 -351q0 -154 -79 -267
t-212.5 -168.5t-304.5 -55.5z" />
    <glyph glyph-name="six" unicode="6" horiz-adv-x="1396" 
d="M723 -12q-321 0 -487 205q-148 185 -148 518q0 361 164 548t479 187q229 0 371.5 -97t179.5 -278h-172q-37 115 -130 169t-255 54q-233 0 -352 -134.5t-119 -399.5q0 -33 2 -47q51 115 180.5 178t317.5 63q263 0 413 -127.5t150 -351.5t-160 -355.5t-434 -131.5zM725 139
q195 0 305.5 88t110.5 244q0 158 -108.5 245t-305.5 87q-194 0 -305 -88.5t-111 -243.5q0 -152 112.5 -242t301.5 -90z" />
    <glyph glyph-name="seven" unicode="7" horiz-adv-x="1236" 
d="M170 0l825 1276h-981v158h1200v-121l-849 -1313h-195z" />
    <glyph glyph-name="eight" unicode="8" horiz-adv-x="1396" 
d="M698 -12q-284 0 -450 107t-166 290q0 140 91.5 237t254.5 126q-139 23 -218 107t-79 210q0 177 152 279t415 102t415.5 -102t152.5 -279q0 -124 -80.5 -209t-216.5 -108q163 -29 254.5 -126t91.5 -237q0 -183 -166.5 -290t-450.5 -107zM698 139q214 0 327.5 67.5
t113.5 194.5q0 126 -113.5 193.5t-327.5 67.5q-213 0 -326.5 -67.5t-113.5 -193.5q0 -127 113 -194.5t327 -67.5zM698 825q189 0 290.5 61t101.5 175q0 112 -101.5 172.5t-290.5 60.5q-190 0 -290.5 -59.5t-100.5 -173.5t101 -175t290 -61z" />
    <glyph glyph-name="nine" unicode="9" horiz-adv-x="1396" 
d="M674 1446q321 0 487 -205q148 -185 148 -518q0 -361 -164 -548t-479 -187q-229 0 -371.5 96.5t-179.5 277.5h172q37 -115 130 -169t255 -54q233 0 352 135t119 400q0 33 -2 47q-51 -116 -181 -179t-317 -63q-263 0 -413 127.5t-150 351.5t160 356t434 132zM672 1294
q-195 0 -305.5 -87.5t-110.5 -243.5q0 -158 108.5 -245t305.5 -87q194 0 304.5 88.5t110.5 243.5q0 152 -112 241.5t-301 89.5z" />
    <glyph glyph-name="A" unicode="A" horiz-adv-x="1576" 
d="M25 0l659 1434h209l659 -1434h-196l-176 387h-791l-174 -387h-190zM463 549h643l-322 711z" />
    <glyph glyph-name="B" unicode="B" horiz-adv-x="1445" 
d="M133 0v1434h653q240 0 371 -99t131 -280q0 -116 -55 -192t-172 -120q301 -59 301 -333q0 -200 -144.5 -305t-422.5 -105h-662zM311 160h484q196 0 290.5 60.5t94.5 185.5q0 124 -95 184.5t-290 60.5h-484v-491zM311 811h484q154 0 234.5 59t80.5 172t-80 172.5t-235 59.5
h-484v-463z" />
    <glyph glyph-name="C" unicode="C" horiz-adv-x="1671" 
d="M874 -12q-239 0 -419.5 89.5t-278.5 255t-98 384.5q0 328 223 528.5t588 200.5q285 0 470.5 -126t239.5 -355h-188q-115 317 -530 317q-286 0 -453.5 -152t-167.5 -413t164.5 -413t447.5 -152q429 0 537 317h188q-54 -229 -243.5 -355t-479.5 -126z" />
    <glyph glyph-name="D" unicode="D" horiz-adv-x="1605" 
d="M133 0v1434h569q382 0 604 -192.5t222 -524.5t-222 -524.5t-604 -192.5h-569zM311 164h391q306 0 475 145t169 408t-169 408t-475 145h-391v-1106z" />
    <glyph glyph-name="E" unicode="E" horiz-adv-x="1302" 
d="M133 0v1434h1079v-164h-901v-459h754v-164h-754v-483h934v-164h-1112z" />
    <glyph glyph-name="F" unicode="F" horiz-adv-x="1243" 
d="M133 0v1434h1049v-164h-871v-479h723v-164h-723v-627h-178z" />
    <glyph glyph-name="G" unicode="G" horiz-adv-x="1746" 
d="M872 -12q-174 0 -322 53.5t-252 148.5t-162 231t-58 296q0 217 100 382.5t284 256t425 90.5q287 0 476.5 -126.5t240.5 -352.5h-191q-51 155 -185 235t-345 80q-286 0 -454.5 -153t-168.5 -412q0 -258 166.5 -411.5t447.5 -153.5q263 0 419.5 112t156.5 299v49h-537v164
h711v-776h-154l-12 209q-73 -101 -232.5 -161t-353.5 -60z" />
    <glyph glyph-name="H" unicode="H" horiz-adv-x="1558" 
d="M133 0v1434h178v-623h936v623h178v-1434h-178v647h-936v-647h-178z" />
    <glyph glyph-name="I" unicode="I" horiz-adv-x="444" 
d="M133 0v1434h178v-1434h-178z" />
    <glyph glyph-name="J" unicode="J" horiz-adv-x="794" 
d="M51 0v164h211q120 0 170.5 53t50.5 176v1041h179v-1055q0 -191 -93.5 -285t-285.5 -94h-232z" />
    <glyph glyph-name="K" unicode="K" horiz-adv-x="1492" 
d="M133 0v1434h178v-813l881 813h242l-639 -590l690 -844h-228l-600 717l-346 -320v-397h-178z" />
    <glyph glyph-name="L" unicode="L" horiz-adv-x="1163" 
d="M133 0v1434h178v-1270h801v-164h-979z" />
    <glyph glyph-name="M" unicode="M" horiz-adv-x="1978" 
d="M133 0v1434h213l645 -1219l645 1219h209v-1434h-178v1130l-600 -1130h-156l-600 1130v-1130h-178z" />
    <glyph glyph-name="N" unicode="N" horiz-adv-x="1570" 
d="M133 0v1434h164l967 -1147v1147h174v-1434h-164l-967 1147v-1147h-174z" />
    <glyph glyph-name="O" unicode="O" horiz-adv-x="1781" 
d="M891 -12q-240 0 -425 91.5t-286.5 257t-101.5 380.5t101.5 380.5t286.5 257t425 91.5t425 -91.5t286.5 -257t101.5 -380.5t-101.5 -380.5t-286.5 -257t-425 -91.5zM891 152q286 0 458.5 154.5t172.5 410.5t-172.5 410.5t-458.5 154.5t-458.5 -154.5t-172.5 -410.5
t172.5 -410.5t458.5 -154.5z" />
    <glyph glyph-name="P" unicode="P" horiz-adv-x="1392" 
d="M133 0v1434h701q233 0 370 -120t137 -321q0 -203 -137 -322.5t-370 -119.5h-523v-551h-178zM311 715h523q149 0 237 75t88 203q0 127 -88 202t-237 75h-523v-555z" />
    <glyph glyph-name="Q" unicode="Q" horiz-adv-x="1781" 
d="M1579 0q-67 0 -112.5 19t-106.5 83q-199 -114 -469 -114q-240 0 -425 91.5t-286.5 257t-101.5 380.5t101.5 380.5t286.5 257t425 91.5t425 -91.5t286.5 -257t101.5 -380.5q0 -316 -211 -514q27 -24 52.5 -31.5t66.5 -7.5h129v-164h-162zM891 152q201 0 350 79l-80 88
q-34 37 -68 50.5t-81 13.5h-138v164h170q78 0 128 -21t108 -88l94 -106q148 151 148 385q0 256 -172.5 410.5t-458.5 154.5t-458.5 -154.5t-172.5 -410.5t172.5 -410.5t458.5 -154.5z" />
    <glyph glyph-name="R" unicode="R" 
d="M133 0v1434h698q233 0 371.5 -120t138.5 -321q0 -166 -98.5 -274.5t-281.5 -143.5l393 -575h-211l-373 551h-459v-551h-178zM311 715h520q151 0 239.5 75t88.5 203q0 126 -89 201.5t-239 75.5h-520v-555z" />
    <glyph glyph-name="S" unicode="S" horiz-adv-x="1421" 
d="M733 -12q-302 0 -476 127t-185 354h184q12 -152 137.5 -235.5t341.5 -83.5q210 0 318 62.5t108 182.5q0 48 -15.5 82t-45 59t-85.5 43t-123 31t-171 27q-329 43 -468.5 132.5t-139.5 268.5q0 190 155.5 299t427.5 109q278 0 441 -114.5t180 -321.5h-184q-19 132 -132 203
t-305 71q-405 0 -405 -237q0 -47 15 -80t44 -57t84.5 -42t124 -30.5t176.5 -26.5q321 -40 462.5 -132t141.5 -269q0 -195 -163 -308.5t-443 -113.5z" />
    <glyph glyph-name="T" unicode="T" 
d="M623 0v1270h-572v164h1321v-164h-571v-1270h-178z" />
    <glyph glyph-name="U" unicode="U" horiz-adv-x="1546" 
d="M770 -12q-318 0 -482.5 158.5t-164.5 465.5v822h178v-832q0 -450 469 -450q475 0 475 450v832h178v-822q0 -306 -166.5 -465t-486.5 -159z" />
    <glyph glyph-name="V" unicode="V" horiz-adv-x="1501" 
d="M645 0l-631 1434h195l545 -1244l542 1244h191l-631 -1434h-211z" />
    <glyph glyph-name="W" unicode="W" horiz-adv-x="2351" 
d="M545 0l-510 1434h186l428 -1225l436 1225h181l436 -1225l428 1225h186l-510 -1434h-213l-417 1178l-418 -1178h-213z" />
    <glyph glyph-name="X" unicode="X" horiz-adv-x="1464" 
d="M31 0l590 735l-553 699h225l442 -560l443 560h219l-553 -689l590 -745h-226l-479 606l-479 -606h-219z" />
    <glyph glyph-name="Y" unicode="Y" horiz-adv-x="1513" 
d="M668 0v530l-654 904h217l531 -732l528 732h209l-653 -904v-530h-178z" />
    <glyph glyph-name="Z" unicode="Z" 
d="M61 0v129l1014 1141h-989v164h1253v-129l-1013 -1141h1036v-164h-1301z" />
    <glyph glyph-name="a" unicode="a" horiz-adv-x="1304" 
d="M512 -12q-204 0 -320 83.5t-116 229.5q0 159 118.5 238t364.5 79h408v52q0 117 -85 177t-251 60q-154 0 -237.5 -42.5t-106.5 -133.5h-168q23 161 155 243.5t365 82.5q241 0 368.5 -102t127.5 -296v-415q0 -43 24.5 -66.5t69.5 -23.5h55v-154h-94q-97 0 -155 44t-58 124
v2q-66 -85 -190 -133.5t-275 -48.5zM535 131q186 0 309 84.5t123 210.5v51h-422q-159 0 -229 -40.5t-70 -127.5q0 -88 74 -133t215 -45z" />
    <glyph glyph-name="b" unicode="b" horiz-adv-x="1415" 
d="M741 -12q-146 0 -260 44t-182 126l-20 -158h-156v1434h168v-562q72 88 190.5 136.5t259.5 48.5q269 0 432.5 -148t163.5 -387q0 -245 -162.5 -389.5t-433.5 -144.5zM725 137q201 0 320.5 104t119.5 281t-119.5 281t-320.5 104t-319.5 -104t-118.5 -281t118.5 -281
t319.5 -104z" />
    <glyph glyph-name="c" unicode="c" horiz-adv-x="1292" 
d="M682 -12q-270 0 -437 147.5t-167 386.5t167 387t437 148q217 0 359 -97t182 -274h-176q-31 106 -126.5 163.5t-240.5 57.5q-198 0 -314 -103.5t-116 -281.5t116 -281.5t314 -103.5q145 0 240.5 57.5t126.5 163.5h176q-40 -177 -182 -273.5t-359 -96.5z" />
    <glyph glyph-name="d" unicode="d" horiz-adv-x="1415" 
d="M674 -12q-271 0 -433.5 144.5t-162.5 389.5q0 239 163.5 387t432.5 148q141 0 259.5 -48.5t190.5 -136.5v562h168v-1434h-155l-21 158q-68 -82 -182 -126t-260 -44zM690 137q201 0 319.5 104t118.5 281t-118.5 281t-319.5 104t-320.5 -104t-119.5 -281t119.5 -281
t320.5 -104z" />
    <glyph glyph-name="e" unicode="e" horiz-adv-x="1323" 
d="M688 -12q-275 0 -442.5 146.5t-167.5 387.5q0 236 163.5 385.5t422.5 149.5q265 0 423 -138t158 -370v-60h-991v-14q0 -157 113 -247.5t309 -90.5q155 0 253.5 54.5t133.5 158.5h170q-41 -169 -187 -265.5t-358 -96.5zM260 631h809q-15 135 -118.5 206.5t-284.5 71.5
q-170 0 -279.5 -74.5t-126.5 -203.5z" />
    <glyph glyph-name="f" unicode="f" horiz-adv-x="792" 
d="M240 0v891h-230v153h230v78q0 158 76.5 235t234.5 77h221v-154h-211q-86 0 -119.5 -34t-33.5 -120v-82h364v-153h-364v-891h-168z" />
    <glyph glyph-name="g" unicode="g" horiz-adv-x="1415" 
d="M684 -422q-250 0 -394.5 90.5t-172.5 263.5h172q59 -204 407 -204q221 0 324.5 89.5t103.5 280.5v74q-72 -88 -190.5 -136t-259.5 -48q-280 0 -438 141.5t-158 392.5q0 243 163 389t433 146q146 0 260 -44t182 -126l21 157h155v-952q0 -260 -150.5 -387t-457.5 -127z
M690 137q201 0 319.5 104t118.5 281t-118.5 281t-319.5 104t-320.5 -104t-119.5 -281t119.5 -281t320.5 -104z" />
    <glyph glyph-name="h" unicode="h" horiz-adv-x="1331" 
d="M123 0v1434h168v-551q64 85 174.5 129.5t255.5 44.5q247 0 372.5 -130.5t125.5 -385.5v-541h-168v530q0 373 -357 373q-196 0 -299.5 -95.5t-103.5 -277.5v-530h-168z" />
    <glyph glyph-name="i" unicode="i" horiz-adv-x="413" 
d="M123 0v1044h168v-1044h-168zM207 1223q-49 0 -80 30t-31 76t31 76.5t80 30.5t79.5 -30.5t30.5 -76.5t-30.5 -76t-79.5 -30z" />
    <glyph glyph-name="j" unicode="j" horiz-adv-x="423" 
d="M-162 -410v154h142q86 0 119.5 34t33.5 120v1146h168v-1142q0 -166 -72 -239t-239 -73h-152zM217 1223q-49 0 -80 30t-31 76t31 76.5t80 30.5t80 -30.5t31 -76.5t-31 -76t-80 -30z" />
    <glyph glyph-name="k" unicode="k" horiz-adv-x="1210" 
d="M123 0v1434h168v-953l649 563h229l-497 -430l534 -614h-219l-438 508l-258 -223v-285h-168z" />
    <glyph glyph-name="l" unicode="l" horiz-adv-x="413" 
d="M123 0v1434h168v-1434h-168z" />
    <glyph glyph-name="m" unicode="m" horiz-adv-x="2095" 
d="M123 0v1044h156l24 -147q62 75 161 117.5t216 42.5q288 0 385 -217q65 106 182.5 161.5t278.5 55.5q221 0 338.5 -133t117.5 -383v-541h-167v530q0 180 -82 276.5t-234 96.5q-171 0 -266.5 -98t-95.5 -275v-530h-168v530q0 180 -82 276.5t-234 96.5q-171 0 -266.5 -98
t-95.5 -275v-530h-168z" />
    <glyph glyph-name="n" unicode="n" horiz-adv-x="1331" 
d="M123 0v1044h156l24 -147q65 77 173 118.5t245 41.5q247 0 372.5 -130.5t125.5 -385.5v-541h-168v530q0 373 -357 373q-196 0 -299.5 -95.5t-103.5 -277.5v-530h-168z" />
    <glyph glyph-name="o" unicode="o" horiz-adv-x="1378" 
d="M690 -12q-273 0 -442.5 148t-169.5 386t169.5 386.5t442.5 148.5q271 0 440.5 -148.5t169.5 -386.5t-169 -386t-441 -148zM690 137q201 0 319.5 104t118.5 281t-118.5 281t-319.5 104t-320.5 -104t-119.5 -281t119.5 -281t320.5 -104z" />
    <glyph glyph-name="p" unicode="p" horiz-adv-x="1415" 
d="M123 -410v1454h156l20 -157q68 82 182 126t260 44q269 0 432.5 -148t163.5 -387q0 -245 -162.5 -389.5t-433.5 -144.5q-141 0 -259.5 48t-190.5 136v-582h-168zM725 137q201 0 320.5 104t119.5 281t-119.5 281t-320.5 104t-319.5 -104t-118.5 -281t118.5 -281t319.5 -104
z" />
    <glyph glyph-name="q" unicode="q" horiz-adv-x="1415" 
d="M1124 -410v582q-72 -88 -190.5 -136t-259.5 -48q-271 0 -433.5 144.5t-162.5 389.5q0 239 163.5 387t432.5 148q146 0 260 -44t182 -126l21 157h155v-1454h-168zM690 137q201 0 319.5 104t118.5 281t-118.5 281t-319.5 104t-320.5 -104t-119.5 -281t119.5 -281
t320.5 -104z" />
    <glyph glyph-name="r" unicode="r" horiz-adv-x="763" 
d="M123 0v1044h156l20 -157q107 157 373 157h61v-163h-96q-346 0 -346 -389v-492h-168z" />
    <glyph glyph-name="s" unicode="s" horiz-adv-x="1179" 
d="M614 -12q-258 0 -397 91.5t-145 264.5h172q6 -103 100.5 -157t269.5 -54q326 0 326 166q0 74 -75 106t-269 44q-273 17 -385.5 82.5t-112.5 211.5q0 148 128.5 231t355.5 83q232 0 361 -83t142 -241h-172q-13 88 -98.5 133t-236.5 45q-163 0 -237.5 -37.5t-74.5 -117.5
q0 -76 71 -107.5t267 -46.5q278 -22 391 -88t113 -211q0 -146 -132.5 -230.5t-361.5 -84.5z" />
    <glyph glyph-name="t" unicode="t" horiz-adv-x="804" 
d="M551 0q-169 0 -240 71t-71 240v580h-230v153h230v293h168v-293h346v-153h-346v-578q0 -91 34 -125t125 -34h187v-154h-203z" />
    <glyph glyph-name="u" unicode="u" horiz-adv-x="1314" 
d="M602 -12q-242 0 -365.5 130.5t-123.5 385.5v540h168v-530q0 -184 88 -278.5t260 -94.5q192 0 293.5 96.5t101.5 276.5v530h168v-1044h-156l-24 147q-65 -77 -171 -118t-239 -41z" />
    <glyph glyph-name="v" unicode="v" horiz-adv-x="1189" 
d="M494 0l-478 1044h185l397 -874l395 874h181l-478 -1044h-202z" />
    <glyph glyph-name="w" unicode="w" horiz-adv-x="1902" 
d="M436 0l-413 1044h176l336 -870l344 870h155l338 -870l338 870h170l-414 -1044h-184l-330 797l-331 -797h-185z" />
    <glyph glyph-name="x" unicode="x" horiz-adv-x="1175" 
d="M4 0l473 537l-444 507h213l342 -393l344 393h211l-445 -503l473 -541h-213l-370 426l-373 -426h-211z" />
    <glyph glyph-name="y" unicode="y" horiz-adv-x="1193" 
d="M78 -410v154h168q82 0 120.5 29.5t92.5 132.5l47 90l-490 1048h185l399 -849l393 849h185l-562 -1183q-78 -166 -148 -218.5t-212 -52.5h-178z" />
    <glyph glyph-name="z" unicode="z" horiz-adv-x="1140" 
d="M45 0v127l789 764h-775v153h1022v-126l-788 -764h803v-154h-1051z" />
    <glyph glyph-name="uni00A0" unicode="&#xa0;" horiz-adv-x="583" 
 />
    <glyph glyph-name="Alphatonos" unicode="&#x386;" horiz-adv-x="1576" 
d="M25 0l659 1434h209l659 -1434h-196l-176 387h-791l-174 -387h-190zM463 549h643l-322 711zM141 1139l97 295h186l-162 -295h-121z" />
    <glyph glyph-name="Epsilontonos" unicode="&#x388;" horiz-adv-x="1445" 
d="M276 0v1434h1080v-164h-901v-459h753v-164h-753v-483h934v-164h-1113zM-104 1139l96 295h186l-162 -295h-120z" />
    <glyph glyph-name="Etatonos" unicode="&#x389;" horiz-adv-x="1701" 
d="M276 0v1434h179v-623h936v623h178v-1434h-178v647h-936v-647h-179zM-104 1139l96 295h186l-162 -295h-120z" />
    <glyph glyph-name="Iotatonos" unicode="&#x38a;" horiz-adv-x="587" 
d="M276 0v1434h179v-1434h-179zM-104 1139l96 295h186l-162 -295h-120z" />
    <glyph glyph-name="Omicrontonos" unicode="&#x38c;" horiz-adv-x="1802" 
d="M911 -12q-240 0 -425 91.5t-286.5 257t-101.5 380.5t101.5 380.5t286.5 257t425 91.5t425 -91.5t286.5 -257t101.5 -380.5t-101.5 -380.5t-286.5 -257t-425 -91.5zM911 152q286 0 458.5 154.5t172.5 410.5t-172.5 410.5t-458.5 154.5t-458 -154.5t-172 -410.5t172 -410.5
t458 -154.5zM-51 1139l96 295h186l-161 -295h-121z" />
    <glyph glyph-name="Upsilontonos" unicode="&#x38e;" horiz-adv-x="1677" 
d="M831 0v530l-653 904h217l531 -732l528 732h209l-653 -904v-530h-179zM-139 1139l96 295h186l-161 -295h-121z" />
    <glyph glyph-name="Omegatonos" unicode="&#x38f;" horiz-adv-x="1822" 
d="M135 0v164h475v45q-253 82 -364 227.5t-111 356.5q0 190 97 337.5t281 231.5t429 84q244 0 428 -84t281.5 -231.5t97.5 -337.5q0 -211 -111 -356.5t-364 -227.5v-45h475v-164h-623v287q243 80 342 198t99 308q0 222 -168 355.5t-457 133.5t-457 -133.5t-168 -355.5
q0 -190 99 -308t342 -198v-287h-623zM-14 1139l96 295h186l-162 -295h-120z" />
    <glyph glyph-name="iotadieresistonos" unicode="&#x390;" horiz-adv-x="573" 
d="M397 0q-154 0 -221 67.5t-67 221.5v755h167v-753q0 -75 31.5 -106t106.5 -31h139v-154h-156zM129 1167l14 295h187l-80 -295h-121zM-63 1210q-47 0 -78 30t-31 75q0 44 31 74t78 30t77.5 -29.5t30.5 -74.5t-30.5 -75t-77.5 -30zM483 1210q-47 0 -77.5 30t-30.5 75
t30.5 74.5t77.5 29.5t78 -30t31 -74q0 -45 -31 -75t-78 -30z" />
    <glyph glyph-name="Alpha" unicode="&#x391;" horiz-adv-x="1576" 
d="M25 0l659 1434h209l659 -1434h-196l-176 387h-791l-174 -387h-190zM463 549h643l-322 711z" />
    <glyph glyph-name="Beta" unicode="&#x392;" horiz-adv-x="1445" 
d="M133 0v1434h653q240 0 371 -99t131 -280q0 -116 -55 -192t-172 -120q301 -59 301 -333q0 -200 -144.5 -305t-422.5 -105h-662zM311 160h484q196 0 290.5 60.5t94.5 185.5q0 124 -95 184.5t-290 60.5h-484v-491zM311 811h484q154 0 234.5 59t80.5 172t-80 172.5t-235 59.5
h-484v-463z" />
    <glyph glyph-name="Gamma" unicode="&#x393;" horiz-adv-x="1232" 
d="M133 0v1434h1049v-164h-871v-1270h-178z" />
    <glyph glyph-name="uni0394" unicode="&#x394;" horiz-adv-x="1519" 
d="M35 0v129l620 1305h209l621 -1305v-129h-1450zM240 164h1034l-518 1096z" />
    <glyph glyph-name="Epsilon" unicode="&#x395;" horiz-adv-x="1302" 
d="M133 0v1434h1079v-164h-901v-459h754v-164h-754v-483h934v-164h-1112z" />
    <glyph glyph-name="Zeta" unicode="&#x396;" 
d="M61 0v129l1014 1141h-989v164h1253v-129l-1013 -1141h1036v-164h-1301z" />
    <glyph glyph-name="Eta" unicode="&#x397;" horiz-adv-x="1558" 
d="M133 0v1434h178v-623h936v623h178v-1434h-178v647h-936v-647h-178z" />
    <glyph glyph-name="Theta" unicode="&#x398;" horiz-adv-x="1781" 
d="M891 -12q-240 0 -425 91.5t-286.5 257t-101.5 380.5t101.5 380.5t286.5 257t425 91.5t425 -91.5t286.5 -257t101.5 -380.5t-101.5 -380.5t-286.5 -257t-425 -91.5zM891 152q286 0 458.5 154.5t172.5 410.5t-172.5 410.5t-458.5 154.5t-458.5 -154.5t-172.5 -410.5
t172.5 -410.5t458.5 -154.5zM502 639v164h778v-164h-778z" />
    <glyph glyph-name="Iota" unicode="&#x399;" horiz-adv-x="444" 
d="M133 0v1434h178v-1434h-178z" />
    <glyph glyph-name="Kappa" unicode="&#x39a;" horiz-adv-x="1492" 
d="M133 0v1434h178v-813l881 813h242l-639 -590l690 -844h-228l-600 717l-346 -320v-397h-178z" />
    <glyph glyph-name="Lambda" unicode="&#x39b;" horiz-adv-x="1538" 
d="M25 0l637 1434h215l636 -1434h-194l-553 1245l-551 -1245h-190z" />
    <glyph glyph-name="Mu" unicode="&#x39c;" horiz-adv-x="1978" 
d="M133 0v1434h213l645 -1219l645 1219h209v-1434h-178v1130l-600 -1130h-156l-600 1130v-1130h-178z" />
    <glyph glyph-name="Nu" unicode="&#x39d;" horiz-adv-x="1570" 
d="M133 0v1434h164l967 -1147v1147h174v-1434h-164l-967 1147v-1147h-174z" />
    <glyph glyph-name="Xi" unicode="&#x39e;" horiz-adv-x="1402" 
d="M57 0v164h1289v-164h-1289zM238 647v164h927v-164h-927zM90 1270v164h1223v-164h-1223z" />
    <glyph glyph-name="Omicron" unicode="&#x39f;" horiz-adv-x="1781" 
d="M891 -12q-240 0 -425 91.5t-286.5 257t-101.5 380.5t101.5 380.5t286.5 257t425 91.5t425 -91.5t286.5 -257t101.5 -380.5t-101.5 -380.5t-286.5 -257t-425 -91.5zM891 152q286 0 458.5 154.5t172.5 410.5t-172.5 410.5t-458.5 154.5t-458.5 -154.5t-172.5 -410.5
t172.5 -410.5t458.5 -154.5z" />
    <glyph glyph-name="Pi" unicode="&#x3a0;" horiz-adv-x="1546" 
d="M133 0v1434h1280v-1434h-178v1270h-924v-1270h-178z" />
    <glyph glyph-name="Rho" unicode="&#x3a1;" horiz-adv-x="1392" 
d="M133 0v1434h701q233 0 370 -120t137 -321q0 -203 -137 -322.5t-370 -119.5h-523v-551h-178zM311 715h523q149 0 237 75t88 203q0 127 -88 202t-237 75h-523v-555z" />
    <glyph glyph-name="Sigma" unicode="&#x3a3;" horiz-adv-x="1443" 
d="M61 0v129l635 604l-610 572v129h1274v-164h-979l534 -500v-63l-569 -543h1036v-164h-1321z" />
    <glyph glyph-name="Tau" unicode="&#x3a4;" 
d="M623 0v1270h-572v164h1321v-164h-571v-1270h-178z" />
    <glyph glyph-name="Upsilon" unicode="&#x3a5;" horiz-adv-x="1513" 
d="M668 0v530l-654 904h217l531 -732l528 732h209l-653 -904v-530h-178z" />
    <glyph glyph-name="Phi" unicode="&#x3a6;" horiz-adv-x="2072" 
d="M950 0v113h-39q-390 0 -611.5 160.5t-221.5 443.5t221.5 443.5t611.5 160.5h39v113h172v-113h39q390 0 612 -160.5t222 -443.5t-222 -443.5t-612 -160.5h-39v-113h-172zM911 270h39v893h-39q-311 0 -483 -117t-172 -329t172 -329.5t483 -117.5zM1122 270h39
q311 0 483.5 117.5t172.5 329.5t-172.5 329t-483.5 117h-39v-893z" />
    <glyph glyph-name="Chi" unicode="&#x3a7;" horiz-adv-x="1464" 
d="M31 0l590 735l-553 699h225l442 -560l443 560h219l-553 -689l590 -745h-226l-479 606l-479 -606h-219z" />
    <glyph glyph-name="Psi" unicode="&#x3a8;" horiz-adv-x="1835" 
d="M829 0v428q-373 17 -546.5 183.5t-173.5 506.5v316h174v-306q0 -277 124 -400t422 -136v842h175v-842q299 13 423.5 136t124.5 400v306h174v-316q0 -342 -174 -508.5t-548 -181.5v-428h-175z" />
    <glyph glyph-name="uni03A9" unicode="&#x3a9;" horiz-adv-x="1761" 
d="M74 0v164h475v45q-253 82 -364 227.5t-111 356.5q0 190 97 337.5t281 231.5t429 84q244 0 428 -84t281.5 -231.5t97.5 -337.5q0 -211 -111.5 -356.5t-364.5 -227.5v-45h476v-164h-623v287q243 80 341.5 198t98.5 308q0 222 -167.5 355.5t-456.5 133.5t-457 -133.5
t-168 -355.5q0 -190 98.5 -308t341.5 -198v-287h-622z" />
    <glyph glyph-name="Iotadieresis" unicode="&#x3aa;" horiz-adv-x="444" 
d="M133 0v1434h178v-1434h-178zM436 1597q-49 0 -79.5 30.5t-30.5 76.5t30.5 76t79.5 30t80 -30t31 -76t-31 -76.5t-80 -30.5zM6 1597q-49 0 -79.5 30.5t-30.5 76.5t30.5 76t79.5 30t80 -30t31 -76t-31 -76.5t-80 -30.5z" />
    <glyph glyph-name="Upsilondieresis" unicode="&#x3ab;" horiz-adv-x="1513" 
d="M668 0v530l-654 904h217l531 -732l528 732h209l-653 -904v-530h-178zM971 1597q-49 0 -80 30.5t-31 76.5t31 76t80 30t79.5 -30t30.5 -76t-30.5 -76.5t-79.5 -30.5zM541 1597q-49 0 -80 30.5t-31 76.5t31 76t80 30t79.5 -30t30.5 -76t-30.5 -76.5t-79.5 -30.5z" />
    <glyph glyph-name="alphatonos" unicode="&#x3ac;" horiz-adv-x="1470" 
d="M674 -12q-271 0 -433.5 144.5t-162.5 389.5q0 239 163.5 387t432.5 148q146 0 260 -44t182 -126l21 157h155v-800q0 -43 24.5 -66.5t69.5 -23.5h62v-154h-100q-102 0 -158 45.5t-57 136.5q-72 -92 -192.5 -143t-266.5 -51zM690 137q201 0 319.5 104t118.5 281t-118.5 281
t-319.5 104t-320.5 -104t-119.5 -281t119.5 -281t320.5 -104zM633 1167l96 295h186l-161 -295h-121z" />
    <glyph glyph-name="epsilontonos" unicode="&#x3ad;" horiz-adv-x="1210" 
d="M623 -12q-272 0 -414.5 79t-142.5 230q0 100 64 161.5t187 78.5q-103 19 -159 77t-56 148q0 141 131.5 218t370.5 77q244 0 389.5 -87t157.5 -241h-174q-22 94 -112 139t-257 45q-162 0 -248 -40t-86 -115q0 -156 252 -156h238v-149h-248q-278 0 -278 -154q0 -86 94 -127
t289 -41q172 0 255.5 43t106.5 143h174q-11 -167 -142 -248t-392 -81zM551 1165l96 295h187l-162 -295h-121z" />
    <glyph glyph-name="etatonos" unicode="&#x3ae;" horiz-adv-x="1384" 
d="M1104 -410v940q0 373 -356 373q-197 0 -300.5 -96t-103.5 -277v-530h-168v801q0 43 -24.5 66.5t-69.5 23.5h-55v153h94q203 0 215 -172q65 90 177 137.5t261 47.5q247 0 372.5 -130.5t125.5 -385.5v-951h-168zM496 1167l96 295h186l-162 -295h-120z" />
    <glyph glyph-name="iotatonos" unicode="&#x3af;" horiz-adv-x="573" 
d="M397 0q-154 0 -221 67.5t-67 221.5v755h167v-753q0 -75 31.5 -106t106.5 -31h139v-154h-156zM135 1167l96 295h187l-162 -295h-121z" />
    <glyph glyph-name="upsilondieresistonos" unicode="&#x3b0;" horiz-adv-x="1298" 
d="M649 -12q-274 0 -405 132.5t-131 409.5v514h168v-497q0 -218 85 -312t283 -94t283.5 94t85.5 312v497h168v-514q0 -275 -132.5 -408.5t-404.5 -133.5zM584 1167l14 295h186l-79 -295h-121zM391 1210q-47 0 -77.5 30t-30.5 75t30.5 74.5t77.5 29.5t78 -30t31 -74
q0 -45 -31 -75t-78 -30zM938 1210q-47 0 -78 30t-31 75q0 44 31 74t78 30t78 -30t31 -74q0 -45 -31 -75t-78 -30z" />
    <glyph glyph-name="alpha" unicode="&#x3b1;" horiz-adv-x="1470" 
d="M674 -12q-271 0 -433.5 144.5t-162.5 389.5q0 239 163.5 387t432.5 148q146 0 260 -44t182 -126l21 157h155v-800q0 -43 24.5 -66.5t69.5 -23.5h62v-154h-100q-102 0 -158 45.5t-57 136.5q-72 -92 -192.5 -143t-266.5 -51zM690 137q201 0 319.5 104t118.5 281t-118.5 281
t-319.5 104t-320.5 -104t-119.5 -281t119.5 -281t320.5 -104z" />
    <glyph glyph-name="beta" unicode="&#x3b2;" horiz-adv-x="1378" 
d="M123 -410v1352q0 250 134 377t398 127q245 0 380.5 -98t135.5 -267q0 -107 -65 -195t-164 -122q174 -32 266 -127.5t92 -245.5q0 -190 -136.5 -296.5t-401.5 -106.5q-150 0 -272 41t-199 116v-555h-168zM291 459q0 -149 129.5 -235.5t343.5 -86.5q364 0 364 258
q0 142 -118.5 207.5t-370.5 65.5h-90v145h63q385 0 385 260q0 110 -86.5 166.5t-255.5 56.5q-187 0 -275.5 -83.5t-88.5 -260.5v-493z" />
    <glyph glyph-name="gamma" unicode="&#x3b3;" horiz-adv-x="1232" 
d="M532 -332v344l-516 1032h185l417 -833l418 833h181l-515 -1028v-348h-170z" />
    <glyph glyph-name="delta" unicode="&#x3b4;" horiz-adv-x="1361" 
d="M674 -12q-277 0 -436.5 129.5t-159.5 353.5q0 199 142.5 330.5t379.5 154.5q46 4 117 0l-500 344v134h1000v-150h-709l463 -319q176 -122 244.5 -232.5t68.5 -253.5q0 -212 -173 -351.5t-437 -139.5zM680 133q190 0 311 96.5t121 247.5q0 149 -119 245.5t-305 96.5
q-203 0 -320.5 -92t-117.5 -250q0 -161 114 -252.5t316 -91.5z" />
    <glyph glyph-name="epsilon" unicode="&#x3b5;" horiz-adv-x="1210" 
d="M623 -12q-272 0 -414.5 79t-142.5 230q0 100 64 161.5t187 78.5q-103 19 -159 77t-56 148q0 141 131.5 218t370.5 77q244 0 389.5 -87t157.5 -241h-174q-22 94 -112 139t-257 45q-162 0 -248 -40t-86 -115q0 -156 252 -156h238v-149h-248q-278 0 -278 -154q0 -86 94 -127
t289 -41q172 0 255.5 43t106.5 143h174q-11 -167 -142 -248t-392 -81z" />
    <glyph glyph-name="zeta" unicode="&#x3b6;" horiz-adv-x="1120" 
d="M907 -276v139q0 77 -36 105.5t-136 29.5l-135 2q-267 3 -398.5 94.5t-131.5 274.5q0 136 91 268.5t331 343.5l342 299h-732v154h990v-127l-502 -441q-204 -180 -276 -280.5t-72 -206.5q0 -115 91.5 -169t289.5 -56l137 -2q163 -1 235 -58.5t72 -185.5v-184h-160z" />
    <glyph glyph-name="eta" unicode="&#x3b7;" horiz-adv-x="1384" 
d="M1104 -410v940q0 373 -356 373q-197 0 -300.5 -96t-103.5 -277v-530h-168v801q0 43 -24.5 66.5t-69.5 23.5h-55v153h94q203 0 215 -172q65 90 177 137.5t261 47.5q247 0 372.5 -130.5t125.5 -385.5v-951h-168z" />
    <glyph glyph-name="theta" unicode="&#x3b8;" horiz-adv-x="1359" 
d="M680 -12q-292 0 -447 187t-155 544q0 356 154.5 541.5t447.5 185.5t447.5 -184t154.5 -543q0 -357 -155 -544t-447 -187zM680 137q207 0 315.5 128t118.5 390h-868q10 -263 118.5 -390.5t315.5 -127.5zM246 803h868q-15 252 -122.5 372.5t-311.5 120.5t-311.5 -120.5
t-122.5 -372.5z" />
    <glyph glyph-name="iota" unicode="&#x3b9;" horiz-adv-x="573" 
d="M397 0q-154 0 -221 67.5t-67 221.5v755h167v-753q0 -75 31.5 -106t106.5 -31h139v-154h-156z" />
    <glyph glyph-name="kappa" unicode="&#x3ba;" horiz-adv-x="1267" 
d="M123 0v1044h168v-598l536 484q83 73 134.5 93.5t154.5 20.5h86v-153h-61q-92 0 -121 -10.5t-90 -65.5l-232 -205l549 -610h-223l-451 504l-282 -256v-248h-168z" />
    <glyph glyph-name="lambda" unicode="&#x3bb;" horiz-adv-x="1243" 
d="M31 0l489 1024l-47 94q-52 103 -91 132.5t-122 29.5h-147v154h157q74 0 121.5 -11t89.5 -43.5t74.5 -81.5t75.5 -135l581 -1163h-184l-412 831l-401 -831h-184z" />
    <glyph glyph-name="uni03BC" unicode="&#x3bc;" horiz-adv-x="1374" 
d="M123 -410v1454h168v-530q0 -184 88 -278.5t260 -94.5q192 0 293.5 96.5t101.5 276.5v530h168v-800q0 -43 24.5 -66.5t69.5 -23.5h56v-154h-95q-203 0 -215 172q-63 -89 -174 -136.5t-256 -47.5q-213 0 -319 112v-510h-170z" />
    <glyph glyph-name="nu" unicode="&#x3bd;" horiz-adv-x="1189" 
d="M494 0l-478 1044h185l397 -874l395 874h181l-478 -1044h-202z" />
    <glyph glyph-name="xi" unicode="&#x3be;" horiz-adv-x="1187" 
d="M936 -276v141q0 77 -36 105.5t-136 29.5l-172 2q-514 6 -514 381q0 127 83.5 227.5t217.5 134.5q-100 29 -156.5 101.5t-56.5 169.5q0 103 63.5 173t180.5 91l-279 -2v156h987v-134q-76 0 -282 -6q-498 -15 -498 -256q0 -109 86 -167t246 -58h327v-154h-346
q-194 0 -297.5 -68.5t-103.5 -195.5q0 -119 88 -178.5t278 -62.5l170 -2q166 -1 238 -57.5t72 -184.5v-186h-160z" />
    <glyph glyph-name="omicron" unicode="&#x3bf;" horiz-adv-x="1378" 
d="M690 -12q-273 0 -442.5 148t-169.5 386t169.5 386.5t442.5 148.5q271 0 440.5 -148.5t169.5 -386.5t-169 -386t-441 -148zM690 137q201 0 319.5 104t118.5 281t-118.5 281t-319.5 104t-320.5 -104t-119.5 -281t119.5 -281t320.5 -104z" />
    <glyph glyph-name="pi" unicode="&#x3c0;" horiz-adv-x="1478" 
d="M1245 0q-103 0 -153 45.5t-50 140.5v705h-622v-891h-168v891h-225v153h1415v-153h-232v-666q0 -43 21 -57t76 -14h63v-154h-125z" />
    <glyph glyph-name="rho" unicode="&#x3c1;" horiz-adv-x="1413" 
d="M113 -410v932q0 238 169.5 386.5t442.5 148.5q271 0 440.5 -148.5t169.5 -386.5q0 -245 -162.5 -389.5t-433.5 -144.5q-305 0 -458 147v-545h-168zM723 137q201 0 320.5 104t119.5 281t-118.5 281t-319.5 104t-320.5 -104t-119.5 -281t118.5 -281t319.5 -104z" />
    <glyph glyph-name="sigma1" unicode="&#x3c2;" horiz-adv-x="1292" 
d="M915 -276v139q0 76 -36 104t-136 31l-86 2q-295 7 -437 141.5t-142 380.5q0 239 167 387t437 148q217 0 359 -97t182 -274h-176q-31 106 -126.5 163.5t-240.5 57.5q-198 0 -314 -103.5t-116 -281.5q0 -92 20.5 -157.5t68.5 -113t129 -71.5t200 -26l100 -2
q160 -3 233.5 -59.5t73.5 -184.5v-184h-160z" />
    <glyph glyph-name="sigma" unicode="&#x3c3;" horiz-adv-x="1462" 
d="M690 -12q-179 0 -318.5 66.5t-216.5 186.5t-77 275q0 235 170 381.5t440 146.5h737v-153h-303q178 -137 178 -375q0 -235 -170 -381.5t-440 -146.5zM690 137q200 0 319 103t119 276t-119 276t-319 103q-201 0 -320.5 -103.5t-119.5 -275.5t119.5 -275.5t320.5 -103.5z
" />
    <glyph glyph-name="tau" unicode="&#x3c4;" horiz-adv-x="1191" 
d="M801 0q-169 0 -240.5 71t-71.5 240v580h-462v153h1128v-153h-498v-578q0 -91 34.5 -125t125.5 -34h201v-154h-217z" />
    <glyph glyph-name="upsilon" unicode="&#x3c5;" horiz-adv-x="1298" 
d="M649 -12q-274 0 -405 132.5t-131 409.5v514h168v-497q0 -218 85 -312t283 -94t283.5 94t85.5 312v497h168v-514q0 -275 -132.5 -408.5t-404.5 -133.5z" />
    <glyph glyph-name="phi" unicode="&#x3c6;" horiz-adv-x="1744" 
d="M791 -410v410h-29q-316 0 -500 140t-184 382t184 382t500 140h29v275h163v-275h29q316 0 500 -140t184 -382t-184 -382t-500 -140h-29v-410h-163zM762 147h29v750h-29q-242 0 -377 -99t-135 -276t135 -276t377 -99zM954 147h29q242 0 377 99t135 276t-135 276t-377 99
h-29v-750z" />
    <glyph glyph-name="chi" unicode="&#x3c7;" horiz-adv-x="1339" 
d="M31 -410l542 744l-303 434q-38 55 -62 78t-60.5 34t-100.5 11h-47v153h78q72 0 112.5 -6.5t80.5 -32.5t70 -62.5t83 -113.5l250 -358l418 573h188l-508 -700l307 -479q50 -78 89.5 -99.5t134.5 -21.5h47v-154h-84q-72 0 -110.5 5.5t-78 30t-70.5 64t-81 117.5l-258 406
l-439 -623h-198z" />
    <glyph glyph-name="psi" unicode="&#x3c8;" horiz-adv-x="1634" 
d="M735 -410v400q-317 15 -469.5 162t-152.5 432v460h168v-450q0 -232 104 -337.5t350 -117.5v1174h164v-1174q246 12 350.5 117.5t104.5 337.5v450h168v-460q0 -285 -153 -432t-470 -162v-400h-164z" />
    <glyph glyph-name="omega" unicode="&#x3c9;" horiz-adv-x="1851" 
d="M541 -12q-210 0 -331.5 132.5t-121.5 360.5q0 157 73.5 312t194.5 251h193q-149 -139 -219 -276t-70 -289q0 -162 75.5 -252t213.5 -90q134 0 214.5 97.5t80.5 261.5v200h164v-200q0 -169 77.5 -264t214.5 -95t214 91t77 251q0 153 -69.5 289.5t-218.5 275.5h192
q121 -96 194.5 -251t73.5 -312q0 -228 -121 -360.5t-331 -132.5q-147 0 -247.5 66t-141.5 190q-39 -122 -140 -189t-241 -67z" />
    <glyph glyph-name="iotadieresis" unicode="&#x3ca;" horiz-adv-x="573" 
d="M397 0q-154 0 -221 67.5t-67 221.5v755h167v-753q0 -75 31.5 -106t106.5 -31h139v-154h-156zM410 1208q-49 0 -80 30.5t-31 76.5t31 76t80 30t79.5 -30t30.5 -76t-30.5 -76.5t-79.5 -30.5zM-20 1208q-49 0 -80 30.5t-31 76.5t31 76t80 30t79.5 -30t30.5 -76t-30.5 -76.5
t-79.5 -30.5z" />
    <glyph glyph-name="upsilondieresis" unicode="&#x3cb;" horiz-adv-x="1298" 
d="M649 -12q-274 0 -405 132.5t-131 409.5v514h168v-497q0 -218 85 -312t283 -94t283.5 94t85.5 312v497h168v-514q0 -275 -132.5 -408.5t-404.5 -133.5zM864 1208q-49 0 -79.5 30.5t-30.5 76.5t30.5 76t79.5 30t80 -30t31 -76t-31 -76.5t-80 -30.5zM434 1208
q-49 0 -79.5 30.5t-30.5 76.5t30.5 76t79.5 30t80 -30t31 -76t-31 -76.5t-80 -30.5z" />
    <glyph glyph-name="omicrontonos" unicode="&#x3cc;" horiz-adv-x="1378" 
d="M690 -12q-273 0 -442.5 148t-169.5 386t169.5 386.5t442.5 148.5q271 0 440.5 -148.5t169.5 -386.5t-169 -386t-441 -148zM690 137q201 0 319.5 104t118.5 281t-118.5 281t-319.5 104t-320.5 -104t-119.5 -281t119.5 -281t320.5 -104zM631 1167l96 295h186l-161 -295
h-121z" />
    <glyph glyph-name="upsilontonos" unicode="&#x3cd;" horiz-adv-x="1298" 
d="M649 -12q-274 0 -405 132.5t-131 409.5v514h168v-497q0 -218 85 -312t283 -94t283.5 94t85.5 312v497h168v-514q0 -275 -132.5 -408.5t-404.5 -133.5zM590 1167l96 295h186l-161 -295h-121z" />
    <glyph glyph-name="omegatonos" unicode="&#x3ce;" horiz-adv-x="1851" 
d="M541 -12q-210 0 -331.5 132.5t-121.5 360.5q0 157 73.5 312t194.5 251h193q-149 -139 -219 -276t-70 -289q0 -162 75.5 -252t213.5 -90q134 0 214.5 97.5t80.5 261.5v200h164v-200q0 -169 77.5 -264t214.5 -95t214 91t77 251q0 153 -69.5 289.5t-218.5 275.5h192
q121 -96 194.5 -251t73.5 -312q0 -228 -121 -360.5t-331 -132.5q-147 0 -247.5 66t-141.5 190q-39 -122 -140 -189t-241 -67zM866 1167l97 295h186l-162 -295h-121z" />
    <glyph glyph-name="uni0400" unicode="&#x400;" horiz-adv-x="1302" 
d="M133 0v1434h1079v-164h-901v-459h754v-164h-754v-483h934v-164h-1112zM598 1554l-299 281h238l206 -281h-145z" />
    <glyph glyph-name="uni0401" unicode="&#x401;" horiz-adv-x="1302" 
d="M133 0v1434h1079v-164h-901v-459h754v-164h-754v-483h934v-164h-1112zM889 1597q-49 0 -80 30.5t-31 76.5t31 76t80 30t79.5 -30t30.5 -76t-30.5 -76.5t-79.5 -30.5zM459 1597q-49 0 -80 30.5t-31 76.5t31 76t80 30t79.5 -30t30.5 -76t-30.5 -76.5t-79.5 -30.5z" />
    <glyph glyph-name="uni0402" unicode="&#x402;" horiz-adv-x="1865" 
d="M582 0v1270h-531v164h1321v-164h-612v-445q225 74 452 74q271 0 420.5 -124t149.5 -363v-174q0 -261 -134.5 -387.5t-414.5 -126.5h-103v163h93q205 0 293 82.5t88 274.5v133q0 181 -102 269.5t-294 88.5q-215 0 -448 -82v-653h-178z" />
    <glyph glyph-name="uni0403" unicode="&#x403;" horiz-adv-x="1232" 
d="M133 0v1434h1049v-164h-871v-1270h-178zM590 1556l198 279h232l-287 -279h-143z" />
    <glyph glyph-name="uni0404" unicode="&#x404;" horiz-adv-x="1671" 
d="M874 -12q-239 0 -419.5 89.5t-278.5 255t-98 384.5q0 328 223 528.5t588 200.5q285 0 470.5 -126t239.5 -355h-188q-115 317 -530 317q-261 0 -424 -127t-191 -350h793v-164h-795q25 -228 186.5 -358.5t421.5 -130.5q429 0 537 317h188q-54 -229 -243.5 -355t-479.5 -126
z" />
    <glyph glyph-name="uni0405" unicode="&#x405;" horiz-adv-x="1421" 
d="M733 -12q-302 0 -476 127t-185 354h184q12 -152 137.5 -235.5t341.5 -83.5q210 0 318 62.5t108 182.5q0 48 -15.5 82t-45 59t-85.5 43t-123 31t-171 27q-329 43 -468.5 132.5t-139.5 268.5q0 190 155.5 299t427.5 109q278 0 441 -114.5t180 -321.5h-184q-19 132 -132 203
t-305 71q-405 0 -405 -237q0 -47 15 -80t44 -57t84.5 -42t124 -30.5t176.5 -26.5q321 -40 462.5 -132t141.5 -269q0 -195 -163 -308.5t-443 -113.5z" />
    <glyph glyph-name="uni0406" unicode="&#x406;" horiz-adv-x="444" 
d="M133 0v1434h178v-1434h-178z" />
    <glyph glyph-name="uni0407" unicode="&#x407;" horiz-adv-x="444" 
d="M133 0v1434h178v-1434h-178zM436 1597q-49 0 -79.5 30.5t-30.5 76.5t30.5 76t79.5 30t80 -30t31 -76t-31 -76.5t-80 -30.5zM6 1597q-49 0 -79.5 30.5t-30.5 76.5t30.5 76t79.5 30t80 -30t31 -76t-31 -76.5t-80 -30.5z" />
    <glyph glyph-name="uni0408" unicode="&#x408;" horiz-adv-x="794" 
d="M51 0v164h211q120 0 170.5 53t50.5 176v1041h179v-1055q0 -191 -93.5 -285t-285.5 -94h-232z" />
    <glyph glyph-name="uni0409" unicode="&#x409;" horiz-adv-x="2529" 
d="M18 0v164h41q62 0 106 14t80.5 50.5t58 100t33 162.5t11.5 238v705h1118v-594h496q248 0 377 -106.5t129 -313.5q0 -202 -132 -311t-374 -109h-674v1270h-772v-555q0 -165 -17 -286t-50 -203.5t-86.5 -132.5t-122 -71.5t-160.5 -21.5h-62zM1466 164h482q165 0 251.5 65.5
t86.5 190.5q0 124 -87.5 190t-252.5 66h-480v-512z" />
    <glyph glyph-name="uni040A" unicode="&#x40a;" horiz-adv-x="2482" 
d="M133 0v1434h178v-594h930v594h178v-594h496q248 0 377 -106.5t129 -313.5q0 -202 -132 -311t-374 -109h-674v676h-930v-676h-178zM1419 164h482q165 0 251 65.5t86 190.5q0 124 -87.5 190t-252.5 66h-479v-512z" />
    <glyph glyph-name="uni040B" unicode="&#x40b;" horiz-adv-x="1886" 
d="M582 0v1270h-531v164h1321v-164h-612v-445q225 74 452 74q286 0 438 -123t152 -364v-412h-178v377q0 358 -416 358q-215 0 -448 -82v-653h-178z" />
    <glyph glyph-name="uni040C" unicode="&#x40c;" horiz-adv-x="1509" 
d="M133 0v1434h178v-623h340l566 623h221l-631 -695l672 -739h-236l-592 647h-340v-647h-178zM659 1556l199 279h232l-287 -279h-144z" />
    <glyph glyph-name="uni040D" unicode="&#x40d;" horiz-adv-x="1574" 
d="M133 0v1434h176v-1162l969 1162h164v-1434h-176v1161l-969 -1161h-164zM711 1554l-299 281h237l207 -281h-145z" />
    <glyph glyph-name="uni040E" unicode="&#x40e;" horiz-adv-x="1462" 
d="M207 0v164h133q124 0 179 27t102 112l59 107l-666 1024h215l549 -863l469 863h201l-664 -1182q-82 -145 -170.5 -198.5t-246.5 -53.5h-160zM741 1554q-167 0 -255 74.5t-91 206.5h140q0 -162 208 -162q213 0 213 162h142q-3 -132 -95 -206.5t-262 -74.5z" />
    <glyph glyph-name="uni040F" unicode="&#x40f;" horiz-adv-x="1542" 
d="M133 0v1434h178v-1270h920v1270h178v-1434h-549v-293h-178v293h-549z" />
    <glyph glyph-name="uni0410" unicode="&#x410;" horiz-adv-x="1576" 
d="M25 0l659 1434h209l659 -1434h-196l-176 387h-791l-174 -387h-190zM463 549h643l-322 711z" />
    <glyph glyph-name="uni0411" unicode="&#x411;" horiz-adv-x="1398" 
d="M133 0v1434h1038v-164h-860v-422h518q248 0 377 -107.5t129 -316.5q0 -202 -132 -313t-374 -111h-696zM311 164h504q166 0 252 66t86 194q0 126 -88 193t-252 67h-502v-520z" />
    <glyph glyph-name="uni0412" unicode="&#x412;" horiz-adv-x="1445" 
d="M133 0v1434h653q240 0 371 -99t131 -280q0 -116 -55 -192t-172 -120q301 -59 301 -333q0 -200 -144.5 -305t-422.5 -105h-662zM311 160h484q196 0 290.5 60.5t94.5 185.5q0 124 -95 184.5t-290 60.5h-484v-491zM311 811h484q154 0 234.5 59t80.5 172t-80 172.5t-235 59.5
h-484v-463z" />
    <glyph glyph-name="uni0413" unicode="&#x413;" horiz-adv-x="1232" 
d="M133 0v1434h1049v-164h-871v-1270h-178z" />
    <glyph glyph-name="uni0414" unicode="&#x414;" horiz-adv-x="1689" 
d="M35 -293v457h135q79 70 115.5 206.5t36.5 432.5v631h1173v-1270h152v-457h-179v293h-1255v-293h-178zM1317 164v1116h-828v-500q0 -247 -26.5 -387.5t-85.5 -228.5h940z" />
    <glyph glyph-name="uni0415" unicode="&#x415;" horiz-adv-x="1302" 
d="M133 0v1434h1079v-164h-901v-459h754v-164h-754v-483h934v-164h-1112z" />
    <glyph glyph-name="uni0416" unicode="&#x416;" horiz-adv-x="2291" 
d="M31 0l551 737l-512 697h211l454 -625h322v625h178v-625h321l455 625h211l-512 -697l551 -737h-223l-477 645h-326v-645h-178v645h-326l-477 -645h-223z" />
    <glyph glyph-name="uni0417" unicode="&#x417;" horiz-adv-x="1427" 
d="M717 -12q-301 0 -469.5 117t-173.5 325h182q6 -135 126 -206.5t345 -71.5q205 0 314.5 65t109.5 191q0 243 -403 243h-256v158h243q171 0 275 66.5t104 181.5q0 225 -393 225q-422 0 -445 -262h-182q5 129 85.5 226t221 148.5t322.5 51.5q270 0 421.5 -100.5
t151.5 -280.5q0 -126 -71 -207.5t-203 -109.5q145 -22 228 -110.5t83 -223.5q0 -198 -165.5 -312t-450.5 -114z" />
    <glyph glyph-name="uni0418" unicode="&#x418;" horiz-adv-x="1574" 
d="M133 0v1434h176v-1162l969 1162h164v-1434h-176v1161l-969 -1161h-164z" />
    <glyph glyph-name="uni0419" unicode="&#x419;" horiz-adv-x="1574" 
d="M133 0v1434h176v-1162l969 1162h164v-1434h-176v1161l-969 -1161h-164zM782 1554q-167 0 -255 74.5t-91 206.5h139q0 -162 209 -162q213 0 213 162h142q-3 -132 -95 -206.5t-262 -74.5z" />
    <glyph glyph-name="uni041A" unicode="&#x41a;" horiz-adv-x="1509" 
d="M133 0v1434h178v-623h340l566 623h221l-631 -695l672 -739h-236l-592 647h-340v-647h-178z" />
    <glyph glyph-name="uni041B" unicode="&#x41b;" horiz-adv-x="1640" 
d="M18 0v164h41q62 0 106 14t80.5 50.5t58 100t33 162.5t11.5 238v705h1159v-1434h-178v1270h-813v-555q0 -165 -17 -286t-50 -203.5t-86.5 -132.5t-122 -71.5t-160.5 -21.5h-62z" />
    <glyph glyph-name="uni041C" unicode="&#x41c;" horiz-adv-x="1978" 
d="M133 0v1434h213l645 -1219l645 1219h209v-1434h-178v1130l-600 -1130h-156l-600 1130v-1130h-178z" />
    <glyph glyph-name="uni041D" unicode="&#x41d;" horiz-adv-x="1558" 
d="M133 0v1434h178v-623h936v623h178v-1434h-178v647h-936v-647h-178z" />
    <glyph glyph-name="uni041E" unicode="&#x41e;" horiz-adv-x="1781" 
d="M891 -12q-240 0 -425 91.5t-286.5 257t-101.5 380.5t101.5 380.5t286.5 257t425 91.5t425 -91.5t286.5 -257t101.5 -380.5t-101.5 -380.5t-286.5 -257t-425 -91.5zM891 152q286 0 458.5 154.5t172.5 410.5t-172.5 410.5t-458.5 154.5t-458.5 -154.5t-172.5 -410.5
t172.5 -410.5t458.5 -154.5z" />
    <glyph glyph-name="uni041F" unicode="&#x41f;" horiz-adv-x="1546" 
d="M133 0v1434h1280v-1434h-178v1270h-924v-1270h-178z" />
    <glyph glyph-name="uni0420" unicode="&#x420;" horiz-adv-x="1392" 
d="M133 0v1434h701q233 0 370 -120t137 -321q0 -203 -137 -322.5t-370 -119.5h-523v-551h-178zM311 715h523q149 0 237 75t88 203q0 127 -88 202t-237 75h-523v-555z" />
    <glyph glyph-name="uni0421" unicode="&#x421;" horiz-adv-x="1671" 
d="M874 -12q-239 0 -419.5 89.5t-278.5 255t-98 384.5q0 328 223 528.5t588 200.5q285 0 470.5 -126t239.5 -355h-188q-115 317 -530 317q-286 0 -453.5 -152t-167.5 -413t164.5 -413t447.5 -152q429 0 537 317h188q-54 -229 -243.5 -355t-479.5 -126z" />
    <glyph glyph-name="uni0422" unicode="&#x422;" 
d="M623 0v1270h-572v164h1321v-164h-571v-1270h-178z" />
    <glyph glyph-name="uni0423" unicode="&#x423;" horiz-adv-x="1462" 
d="M207 0v164h133q124 0 179 27t102 112l59 107l-666 1024h215l549 -863l469 863h201l-664 -1182q-82 -145 -170.5 -198.5t-246.5 -53.5h-160z" />
    <glyph glyph-name="uni0424" unicode="&#x424;" horiz-adv-x="2072" 
d="M950 0v113h-39q-390 0 -611.5 160.5t-221.5 443.5t221.5 443.5t611.5 160.5h39v113h172v-113h39q390 0 612 -160.5t222 -443.5t-222 -443.5t-612 -160.5h-39v-113h-172zM911 270h39v893h-39q-311 0 -483 -117t-172 -329t172 -329.5t483 -117.5zM1122 270h39
q311 0 483.5 117.5t172.5 329.5t-172.5 329t-483.5 117h-39v-893z" />
    <glyph glyph-name="uni0425" unicode="&#x425;" horiz-adv-x="1464" 
d="M31 0l590 735l-553 699h225l442 -560l443 560h219l-553 -689l590 -745h-226l-479 606l-479 -606h-219z" />
    <glyph glyph-name="uni0426" unicode="&#x426;" horiz-adv-x="1603" 
d="M133 0v1434h178v-1270h920v1270h178v-1270h152v-457h-179v293h-1249z" />
    <glyph glyph-name="uni0427" unicode="&#x427;" horiz-adv-x="1458" 
d="M694 520q-299 0 -454.5 123t-155.5 365v426h178v-392q0 -183 108 -270.5t328 -87.5q216 0 449 82v668h178v-1434h-178v594q-225 -74 -453 -74z" />
    <glyph glyph-name="uni0428" unicode="&#x428;" horiz-adv-x="2250" 
d="M133 0v1434h178v-1270h725v1270h178v-1270h725v1270h179v-1434h-1985z" />
    <glyph glyph-name="uni0429" unicode="&#x429;" horiz-adv-x="2312" 
d="M133 0v1434h178v-1270h725v1270h178v-1270h725v1270h179v-1270h151v-457h-178v293h-1958z" />
    <glyph glyph-name="uni042A" unicode="&#x42a;" horiz-adv-x="1835" 
d="M561 0v1270h-510v164h688v-549h527q238 0 373 -118t135 -325q0 -206 -136 -324t-372 -118h-705zM739 164h512q167 0 253.5 70.5t86.5 207.5q0 136 -87.5 207.5t-254.5 71.5h-510v-557z" />
    <glyph glyph-name="uni042B" unicode="&#x42b;" horiz-adv-x="1818" 
d="M1507 0v1434h179v-1434h-179zM133 0v1434h178v-541h502q238 0 373 -118.5t135 -328.5q0 -209 -135.5 -327.5t-372.5 -118.5h-680zM311 164h488q167 0 253.5 71.5t86.5 210.5t-87 211t-255 72h-486v-565z" />
    <glyph glyph-name="uni042C" unicode="&#x42c;" horiz-adv-x="1404" 
d="M133 0v1434h178v-541h525q238 0 372.5 -118.5t134.5 -328.5q0 -209 -135 -327.5t-372 -118.5h-703zM311 164h510q167 0 253.5 71.5t86.5 210.5t-87 211t-255 72h-508v-565z" />
    <glyph glyph-name="uni042D" unicode="&#x42d;" horiz-adv-x="1671" 
d="M612 641v164h793q-28 223 -190.5 350t-423.5 127q-206 0 -340 -80t-191 -237h-188q54 229 241 355t473 126q241 0 424.5 -90.5t283 -256t99.5 -382.5q0 -331 -218 -530t-580 -199q-290 0 -478.5 126t-242.5 355h188q108 -317 537 -317q260 0 421.5 130.5t186.5 358.5
h-795z" />
    <glyph glyph-name="uni042E" unicode="&#x42e;" horiz-adv-x="2320" 
d="M1438 -12q-339 0 -558 181t-245 478h-324v-647h-178v1434h178v-623h328q32 288 249.5 461.5t549.5 173.5q237 0 420 -91t284 -257t101 -381t-101 -381t-284 -257t-420 -91zM1438 152q281 0 451.5 155t170.5 410t-170.5 410t-451.5 155t-452 -155t-171 -410t171 -410
t452 -155z" />
    <glyph glyph-name="uni042F" unicode="&#x42f;" horiz-adv-x="1462" 
d="M80 0l432 569q-198 29 -306 140t-108 284q0 201 138.5 321t371.5 120h721v-1434h-178v551h-438l-414 -551h-219zM608 715h543v555h-543q-150 0 -238.5 -75.5t-88.5 -201.5q0 -128 88 -203t239 -75z" />
    <glyph glyph-name="uni0430" unicode="&#x430;" horiz-adv-x="1304" 
d="M512 -12q-204 0 -320 83.5t-116 229.5q0 159 118.5 238t364.5 79h408v52q0 117 -85 177t-251 60q-154 0 -237.5 -42.5t-106.5 -133.5h-168q23 161 155 243.5t365 82.5q241 0 368.5 -102t127.5 -296v-415q0 -43 24.5 -66.5t69.5 -23.5h55v-154h-94q-97 0 -155 44t-58 124
v2q-66 -85 -190 -133.5t-275 -48.5zM535 131q186 0 309 84.5t123 210.5v51h-422q-159 0 -229 -40.5t-70 -127.5q0 -88 74 -133t215 -45z" />
    <glyph glyph-name="uni0431" unicode="&#x431;" horiz-adv-x="1370" 
d="M690 -12q-303 0 -452.5 150t-149.5 456q0 214 32 354.5t112 236.5t206 144.5t324 69.5l438 47v-158l-403 -43q-151 -16 -244.5 -42t-157.5 -78t-94.5 -126.5t-44.5 -193.5q135 170 475 170q256 0 408.5 -132.5t152.5 -355.5q0 -227 -164 -363t-438 -136zM690 133
q196 0 314 95t118 253q0 157 -116.5 251.5t-311.5 94.5t-315.5 -89.5t-120.5 -235.5q0 -173 114.5 -271t317.5 -98z" />
    <glyph glyph-name="uni0432" unicode="&#x432;" horiz-adv-x="1228" 
d="M123 0v1044h600q397 0 397 -280q0 -83 -49 -142t-133 -81q103 -17 161 -79.5t58 -158.5q0 -303 -440 -303h-594zM291 143h448q248 0 248 158q0 77 -64 118.5t-184 41.5h-448v-318zM291 600h440q106 0 162.5 38.5t56.5 113.5q0 78 -51 113.5t-162 35.5h-446v-301z" />
    <glyph glyph-name="uni0433" unicode="&#x433;" horiz-adv-x="954" 
d="M123 0v1044h807v-153h-639v-891h-168z" />
    <glyph glyph-name="uni0434" unicode="&#x434;" horiz-adv-x="1347" 
d="M14 -276v430h136q42 32 65 72t37 132.5t14 249.5v436h924v-890h137v-430h-168v276h-977v-276h-168zM1022 154v741h-592v-305q0 -174 -19 -273.5t-59 -162.5h670z" />
    <glyph glyph-name="uni0435" unicode="&#x435;" horiz-adv-x="1323" 
d="M688 -12q-275 0 -442.5 146.5t-167.5 387.5q0 236 163.5 385.5t422.5 149.5q265 0 423 -138t158 -370v-60h-991v-14q0 -157 113 -247.5t309 -90.5q155 0 253.5 54.5t133.5 158.5h170q-41 -169 -187 -265.5t-358 -96.5zM260 631h809q-15 135 -118.5 206.5t-284.5 71.5
q-170 0 -279.5 -74.5t-126.5 -203.5z" />
    <glyph glyph-name="uni0436" unicode="&#x436;" horiz-adv-x="1712" 
d="M4 0l404 541l-365 503h188l314 -436h227v436h168v-436h227l314 436h188l-364 -503l403 -541h-203l-338 455h-227v-455h-168v455h-227l-338 -455h-203z" />
    <glyph glyph-name="uni0437" unicode="&#x437;" horiz-adv-x="1187" 
d="M580 -12q-250 0 -375.5 82t-136.5 252h174q23 -103 101.5 -147t238.5 -44q172 0 267 45t95 127q0 152 -278 152h-232v147h221q131 0 203 39.5t72 116.5q0 74 -83.5 114.5t-238.5 40.5q-317 0 -360 -184h-174q12 152 160 240t378 88q232 0 361 -78t129 -217
q0 -88 -64 -147t-172 -78q122 -17 186 -77.5t64 -158.5q0 -146 -143 -229.5t-393 -83.5z" />
    <glyph glyph-name="uni0438" unicode="&#x438;" horiz-adv-x="1345" 
d="M123 0v1044h164v-817l788 817h148v-1044h-164v819l-789 -819h-147z" />
    <glyph glyph-name="uni0439" unicode="&#x439;" horiz-adv-x="1345" 
d="M123 0v1044h164v-817l788 817h148v-1044h-164v819l-789 -819h-147zM670 1165q-167 0 -255 74.5t-91 206.5h139q0 -162 209 -162q213 0 213 162h141q-3 -132 -95 -206.5t-261 -74.5z" />
    <glyph glyph-name="uni043A" unicode="&#x43a;" horiz-adv-x="1226" 
d="M123 0v1044h168v-436h272l406 436h213l-469 -501l510 -543h-224l-430 455h-278v-455h-168z" />
    <glyph glyph-name="uni043B" unicode="&#x43b;" horiz-adv-x="1290" 
d="M6 0v154h33q120 0 163.5 81.5t43.5 303.5v505h921v-1044h-168v891h-589v-359q0 -290 -78 -411t-266 -121h-60z" />
    <glyph glyph-name="uni043C" unicode="&#x43c;" horiz-adv-x="1660" 
d="M123 0v1044h207l506 -847l497 847h205v-1044h-168v788l-471 -788h-135l-473 788v-788h-168z" />
    <glyph glyph-name="uni043D" unicode="&#x43d;" horiz-adv-x="1329" 
d="M1038 0v455h-747v-455h-168v1044h168v-436h747v436h168v-1044h-168z" />
    <glyph glyph-name="uni043E" unicode="&#x43e;" horiz-adv-x="1378" 
d="M690 -12q-273 0 -442.5 148t-169.5 386t169.5 386.5t442.5 148.5q271 0 440.5 -148.5t169.5 -386.5t-169 -386t-441 -148zM690 137q201 0 319.5 104t118.5 281t-118.5 281t-319.5 104t-320.5 -104t-119.5 -281t119.5 -281t320.5 -104z" />
    <glyph glyph-name="uni043F" unicode="&#x43f;" horiz-adv-x="1304" 
d="M123 0v1044h1059v-1044h-168v891h-723v-891h-168z" />
    <glyph glyph-name="uni0440" unicode="&#x440;" horiz-adv-x="1415" 
d="M123 -410v1454h156l20 -157q68 82 182 126t260 44q269 0 432.5 -148t163.5 -387q0 -245 -162.5 -389.5t-433.5 -144.5q-141 0 -259.5 48t-190.5 136v-582h-168zM725 137q201 0 320.5 104t119.5 281t-119.5 281t-320.5 104t-319.5 -104t-118.5 -281t118.5 -281t319.5 -104
z" />
    <glyph glyph-name="uni0441" unicode="&#x441;" horiz-adv-x="1292" 
d="M682 -12q-270 0 -437 147.5t-167 386.5t167 387t437 148q217 0 359 -97t182 -274h-176q-31 106 -126.5 163.5t-240.5 57.5q-198 0 -314 -103.5t-116 -281.5t116 -281.5t314 -103.5q145 0 240.5 57.5t126.5 163.5h176q-40 -177 -182 -273.5t-359 -96.5z" />
    <glyph glyph-name="uni0442" unicode="&#x442;" horiz-adv-x="1150" 
d="M492 0v891h-467v153h1101v-153h-467v-891h-167z" />
    <glyph glyph-name="uni0443" unicode="&#x443;" horiz-adv-x="1193" 
d="M78 -410v154h168q82 0 120.5 29.5t92.5 132.5l47 90l-490 1048h185l399 -849l393 849h185l-562 -1183q-78 -166 -148 -218.5t-212 -52.5h-178z" />
    <glyph glyph-name="uni0444" unicode="&#x444;" horiz-adv-x="1744" 
d="M791 -410v410h-29q-316 0 -500 140t-184 382t184 382t500 140h29v357h163v-357h29q316 0 500 -140t184 -382t-184 -382t-500 -140h-29v-410h-163zM762 147h29v750h-29q-242 0 -377 -99t-135 -276t135 -276t377 -99zM954 147h29q242 0 377 99t135 276t-135 276t-377 99
h-29v-750z" />
    <glyph glyph-name="uni0445" unicode="&#x445;" horiz-adv-x="1175" 
d="M4 0l473 537l-444 507h213l342 -393l344 393h211l-445 -503l473 -541h-213l-370 426l-373 -426h-211z" />
    <glyph glyph-name="uni0446" unicode="&#x446;" horiz-adv-x="1325" 
d="M123 0v1044h168v-890h700v890h168v-890h146v-430h-168v276h-1014z" />
    <glyph glyph-name="uni0447" unicode="&#x447;" horiz-adv-x="1228" 
d="M584 340q-250 0 -371 96t-121 289v319h168v-311q0 -125 84 -183t260 -58q177 0 334 75v477h168v-1044h-168v406q-160 -66 -354 -66z" />
    <glyph glyph-name="uni0448" unicode="&#x448;" horiz-adv-x="1794" 
d="M123 0v1044h168v-890h522v890h168v-890h522v890h168v-1044h-1548z" />
    <glyph glyph-name="uni0449" unicode="&#x449;" horiz-adv-x="1837" 
d="M123 0v1044h168v-890h522v890h168v-890h522v890h168v-890h146v-430h-168v276h-1526z" />
    <glyph glyph-name="uni044A" unicode="&#x44a;" horiz-adv-x="1486" 
d="M416 0v891h-391v153h559v-339h405q210 0 320 -90t110 -263q0 -172 -111 -262t-319 -90h-573zM584 143h385q142 0 211 51.5t69 157.5q0 107 -68 158t-212 51h-385v-418z" />
    <glyph glyph-name="uni044B" unicode="&#x44b;" horiz-adv-x="1579" 
d="M123 0v1044h168v-339h385q210 0 320 -90t110 -263q0 -172 -111 -262t-319 -90h-553zM291 143h364q142 0 211.5 51.5t69.5 157.5q0 107 -68 158t-213 51h-364v-418zM1288 0v1044h168v-1044h-168z" />
    <glyph glyph-name="uni044C" unicode="&#x44c;" horiz-adv-x="1193" 
d="M123 0v1044h168v-339h405q210 0 320 -90t110 -263q0 -172 -111 -262t-319 -90h-573zM291 143h385q142 0 211 51.5t69 157.5q0 107 -68 158t-212 51h-385v-418z" />
    <glyph glyph-name="uni044D" unicode="&#x44d;" horiz-adv-x="1292" 
d="M610 -12q-217 0 -358.5 96.5t-181.5 273.5h176q31 -106 126 -163.5t240 -57.5q177 0 289 82.5t135 229.5h-565v147h565q-23 146 -135 228.5t-289 82.5q-145 0 -240 -57.5t-126 -163.5h-176q40 177 181.5 274t358.5 97q270 0 437 -148t167 -387t-167 -386.5t-437 -147.5z
" />
    <glyph glyph-name="uni044E" unicode="&#x44e;" horiz-adv-x="1875" 
d="M1192 -12q-248 0 -412 125t-192 333h-297v-446h-168v1044h168v-444h299q28 206 192 331.5t410 125.5q177 0 315 -67t214.5 -189t76.5 -279q0 -237 -168.5 -385.5t-437.5 -148.5zM1192 137q198 0 316 104t118 281t-118 281t-316 104q-199 0 -317.5 -104.5t-118.5 -280.5
t118.5 -280.5t317.5 -104.5z" />
    <glyph glyph-name="uni044F" unicode="&#x44f;" horiz-adv-x="1212" 
d="M922 0v358h-377l-293 -358h-211l321 379q-138 23 -215 107.5t-77 213.5q0 161 115 252.5t317 91.5h588v-1044h-168zM504 504h418v397h-418q-124 0 -194 -52t-70 -144q0 -95 69 -148t195 -53z" />
    <glyph glyph-name="uni0450" unicode="&#x450;" horiz-adv-x="1323" 
d="M688 -12q-275 0 -442.5 146.5t-167.5 387.5q0 236 163.5 385.5t422.5 149.5q265 0 423 -138t158 -370v-60h-991v-14q0 -157 113 -247.5t309 -90.5q155 0 253.5 54.5t133.5 158.5h170q-41 -169 -187 -265.5t-358 -96.5zM260 631h809q-15 135 -118.5 206.5t-284.5 71.5
q-170 0 -279.5 -74.5t-126.5 -203.5zM586 1165l-299 281h237l207 -281h-145z" />
    <glyph glyph-name="uni0451" unicode="&#x451;" horiz-adv-x="1323" 
d="M688 -12q-275 0 -442.5 146.5t-167.5 387.5q0 236 163.5 385.5t422.5 149.5q265 0 423 -138t158 -370v-60h-991v-14q0 -157 113 -247.5t309 -90.5q155 0 253.5 54.5t133.5 158.5h170q-41 -169 -187 -265.5t-358 -96.5zM260 631h809q-15 135 -118.5 206.5t-284.5 71.5
q-170 0 -279.5 -74.5t-126.5 -203.5zM446 1208q-49 0 -79.5 30.5t-30.5 76.5t30.5 76t79.5 30t80 -30t31 -76t-31 -76.5t-80 -30.5zM877 1208q-49 0 -80 30.5t-31 76.5t31 76t80 30t79.5 -30t30.5 -76t-30.5 -76.5t-79.5 -30.5z" />
    <glyph glyph-name="uni0452" unicode="&#x452;" horiz-adv-x="1341" 
d="M766 -410v154h141q86 0 120 34t34 120v632q0 373 -356 373q-197 0 -300.5 -96t-103.5 -277v-530h-168v1159h-168v144h168v131h168v-131h467v-144h-467v-276q64 85 174.5 129.5t255.5 44.5q247 0 372.5 -130.5t125.5 -385.5v-639q0 -166 -72 -239t-239 -73h-152z" />
    <glyph glyph-name="uni0453" unicode="&#x453;" horiz-adv-x="954" 
d="M123 0v1044h807v-153h-639v-891h-168zM401 1167l199 279h231l-286 -279h-144z" />
    <glyph glyph-name="uni0454" unicode="&#x454;" horiz-adv-x="1292" 
d="M682 -12q-270 0 -437 147.5t-167 386.5t167 387t437 148q217 0 359 -97t182 -274h-176q-31 106 -126.5 163.5t-240.5 57.5q-177 0 -289 -82.5t-135 -228.5h565v-147h-565q23 -147 135 -229.5t289 -82.5q145 0 240.5 57.5t126.5 163.5h176q-40 -177 -182 -273.5
t-359 -96.5z" />
    <glyph glyph-name="uni0455" unicode="&#x455;" horiz-adv-x="1179" 
d="M614 -12q-258 0 -397 91.5t-145 264.5h172q6 -103 100.5 -157t269.5 -54q326 0 326 166q0 74 -75 106t-269 44q-273 17 -385.5 82.5t-112.5 211.5q0 148 128.5 231t355.5 83q232 0 361 -83t142 -241h-172q-13 88 -98.5 133t-236.5 45q-163 0 -237.5 -37.5t-74.5 -117.5
q0 -76 71 -107.5t267 -46.5q278 -22 391 -88t113 -211q0 -146 -132.5 -230.5t-361.5 -84.5z" />
    <glyph glyph-name="uni0456" unicode="&#x456;" horiz-adv-x="413" 
d="M123 0v1044h168v-1044h-168zM207 1223q-49 0 -80 30t-31 76t31 76.5t80 30.5t79.5 -30.5t30.5 -76.5t-30.5 -76t-79.5 -30z" />
    <glyph glyph-name="uni0457" unicode="&#x457;" horiz-adv-x="413" 
d="M123 0v1044h168v-1044h-168zM358 1225q-45 0 -73.5 29.5t-28.5 74.5q0 46 28.5 76.5t73.5 30.5t74 -30.5t29 -76.5q0 -45 -29 -74.5t-74 -29.5zM55 1225q-45 0 -73.5 29.5t-28.5 74.5q0 46 28.5 76.5t73.5 30.5t74 -30.5t29 -76.5q0 -45 -29 -74.5t-74 -29.5z" />
    <glyph glyph-name="uni0458" unicode="&#x458;" horiz-adv-x="423" 
d="M-162 -410v154h142q86 0 119.5 34t33.5 120v1146h168v-1142q0 -166 -72 -239t-239 -73h-152zM217 1223q-49 0 -80 30t-31 76t31 76.5t80 30.5t80 -30.5t31 -76.5t-31 -76t-80 -30z" />
    <glyph glyph-name="uni0459" unicode="&#x459;" horiz-adv-x="1994" 
d="M6 0v154h33q120 0 163.5 81t43.5 304v505h901v-380h397q183 0 283 -87t100 -245t-100.5 -245t-282.5 -87h-565v891h-569v-359q0 -290 -78 -411t-266 -121h-60zM1147 143h373q116 0 176.5 48.5t60.5 140.5t-60 140t-177 48h-373v-377z" />
    <glyph glyph-name="uni045A" unicode="&#x45a;" horiz-adv-x="2017" 
d="M1004 0v485h-713v-485h-168v1044h168v-405h713v405h167v-401h375q196 0 300 -82.5t104 -238.5q0 -155 -105 -238.5t-299 -83.5h-542zM1171 143h351q258 0 258 179q0 178 -258 178h-351v-357z" />
    <glyph glyph-name="uni045B" unicode="&#x45b;" horiz-adv-x="1341" 
d="M-35 1159v144h168v131h168v-131h467v-144h-467v-276q64 85 174.5 129.5t255.5 44.5q247 0 372.5 -130.5t125.5 -385.5v-541h-168v530q0 373 -356 373q-197 0 -300.5 -96t-103.5 -277v-530h-168v1159h-168z" />
    <glyph glyph-name="uni045C" unicode="&#x45c;" horiz-adv-x="1226" 
d="M123 0v1044h168v-436h272l406 436h213l-469 -501l510 -543h-224l-430 455h-278v-455h-168zM502 1167l198 279h232l-287 -279h-143z" />
    <glyph glyph-name="uni045D" unicode="&#x45d;" horiz-adv-x="1345" 
d="M123 0v1044h164v-817l788 817h148v-1044h-164v819l-789 -819h-147zM598 1165l-299 281h238l206 -281h-145z" />
    <glyph glyph-name="uni045E" unicode="&#x45e;" horiz-adv-x="1193" 
d="M78 -410v154h168q82 0 120.5 29.5t92.5 132.5l47 90l-490 1048h185l399 -849l393 849h185l-562 -1183q-78 -166 -148 -218.5t-212 -52.5h-178zM590 1165q-167 0 -255 74.5t-91 206.5h139q0 -162 209 -162q213 0 213 162h141q-3 -132 -95 -206.5t-261 -74.5z" />
    <glyph glyph-name="uni045F" unicode="&#x45f;" horiz-adv-x="1282" 
d="M123 0v1044h168v-890h700v890h168v-1044h-434v-276h-168v276h-434z" />
    <glyph glyph-name="uni0462" unicode="&#x462;" horiz-adv-x="1490" 
d="M51 1149v154h168v131h178v-131h498v-154h-498v-256h525q238 0 373 -118.5t135 -328.5q0 -209 -135.5 -327.5t-372.5 -118.5h-703v1149h-168zM397 164h510q167 0 253.5 71.5t86.5 210.5t-87 211t-255 72h-508v-565z" />
    <glyph glyph-name="uni0463" unicode="&#x463;" horiz-adv-x="1204" 
d="M133 0v901h-168v143h168v390h168v-390h467v-143h-467v-196h406q210 0 320 -90t110 -263q0 -172 -111 -262t-319 -90h-574zM301 143h385q142 0 211.5 51.5t69.5 157.5q0 107 -68 158t-213 51h-385v-418z" />
    <glyph glyph-name="uni0472" unicode="&#x472;" horiz-adv-x="1781" 
d="M891 -12q-240 0 -425 91.5t-286.5 257t-101.5 380.5t101.5 380.5t286.5 257t425 91.5t425 -91.5t286.5 -257t101.5 -380.5t-101.5 -380.5t-286.5 -257t-425 -91.5zM891 152q265 0 434.5 134.5t192.5 360.5q-158 -67 -320 -67q-92 0 -209 27.5t-225 55t-178 27.5
q-199 0 -318 -80q35 -211 202 -334.5t421 -123.5zM264 784q157 70 322 70q89 0 179.5 -17.5t152 -38t138 -38t142.5 -17.5q199 0 315 80q-35 212 -201.5 335.5t-420.5 123.5q-265 0 -434.5 -135t-192.5 -363z" />
    <glyph glyph-name="uni0473" unicode="&#x473;" horiz-adv-x="1378" 
d="M690 -12q-273 0 -442.5 148t-169.5 386t169.5 386.5t442.5 148.5q271 0 440.5 -148.5t169.5 -386.5t-169 -386t-441 -148zM246 584q110 47 229 47q66 0 214.5 -37t211.5 -37q76 0 126 10.5t101 36.5q-26 146 -141.5 228.5t-296.5 82.5q-187 0 -305.5 -88.5t-138.5 -242.5
zM690 129q187 0 305 89.5t138 244.5q-109 -49 -232 -49q-77 0 -225 36.5t-201 36.5q-76 0 -126.5 -11t-98.5 -36q26 -145 142.5 -228t297.5 -83z" />
    <glyph glyph-name="uni0474" unicode="&#x474;" horiz-adv-x="1619" 
d="M645 0l-631 1434h195l545 -1244l286 781q69 188 130.5 285t137.5 137.5t195 40.5h66v-164h-43q-78 0 -129 -30t-95 -103.5t-98 -218.5l-348 -918h-211z" />
    <glyph glyph-name="uni0475" unicode="&#x475;" horiz-adv-x="1224" 
d="M494 0l-478 1044h185l397 -874l193 553q63 184 141.5 252.5t228.5 68.5h33v-153h-33q-89 0 -130.5 -42.5t-92.5 -182.5l-242 -666h-202z" />
    <glyph glyph-name="uni0490" unicode="&#x490;" horiz-adv-x="1232" 
d="M133 0v1434h871v282h178v-446h-871v-1270h-178z" />
    <glyph glyph-name="uni0491" unicode="&#x491;" horiz-adv-x="954" 
d="M123 0v1044h639v277h168v-430h-639v-891h-168z" />
    <glyph glyph-name="uni0492" unicode="&#x492;" horiz-adv-x="1329" 
d="M219 0v631h-168v153h168v650h1049v-164h-871v-486h553v-153h-553v-631h-178z" />
    <glyph glyph-name="uni0493" unicode="&#x493;" horiz-adv-x="1019" 
d="M188 0v438h-168v144h168v462h807v-153h-639v-309h408v-144h-408v-438h-168z" />
    <glyph glyph-name="uni0496" unicode="&#x496;" horiz-adv-x="2334" 
d="M31 0l551 737l-512 697h211l454 -625h322v625h178v-625h321l455 625h211l-512 -697l428 -573h172v-457h-178v293h-94l-477 645h-326v-645h-178v645h-326l-477 -645h-223z" />
    <glyph glyph-name="uni0497" unicode="&#x497;" horiz-adv-x="1773" 
d="M4 0l404 541l-365 503h188l314 -436h227v436h168v-436h227l314 436h188l-364 -503l288 -387h156v-430h-168v276h-76l-338 455h-227v-455h-168v455h-227l-338 -455h-203z" />
    <glyph glyph-name="uni049A" unicode="&#x49a;" horiz-adv-x="1552" 
d="M133 0v1434h178v-623h340l566 623h221l-631 -695l522 -575h199v-457h-178v293h-107l-592 647h-340v-647h-178z" />
    <glyph glyph-name="uni049B" unicode="&#x49b;" horiz-adv-x="1288" 
d="M123 0v1044h168v-436h272l406 436h213l-469 -501l366 -389h185v-430h-168v276h-97l-430 455h-278v-455h-168z" />
    <glyph glyph-name="uni04A2" unicode="&#x4a2;" horiz-adv-x="1619" 
d="M133 0v1434h178v-623h936v623h178v-1270h152v-457h-178v293h-152v647h-936v-647h-178z" />
    <glyph glyph-name="uni04A3" unicode="&#x4a3;" horiz-adv-x="1372" 
d="M1038 0v455h-747v-455h-168v1044h168v-436h747v436h168v-890h146v-430h-168v276h-146z" />
    <glyph glyph-name="uni04AE" unicode="&#x4ae;" horiz-adv-x="1513" 
d="M668 0v530l-654 904h217l531 -732l528 732h209l-653 -904v-530h-178z" />
    <glyph glyph-name="uni04AF" unicode="&#x4af;" horiz-adv-x="1230" 
d="M532 0l-516 1044h187l415 -843l414 843h182l-514 -1044v-410h-168v410z" />
    <glyph glyph-name="uni04B0" unicode="&#x4b0;" horiz-adv-x="1513" 
d="M668 0v391h-373v152h364l-645 891h217l531 -732l528 732h209l-645 -891h365v-152h-373v-391h-178z" />
    <glyph glyph-name="uni04B1" unicode="&#x4b1;" horiz-adv-x="1230" 
d="M532 0l-516 1044h187l415 -843l414 843h182l-514 -1044h349v-143h-349v-267h-168v267h-350v143h350z" />
    <glyph glyph-name="uni04B2" unicode="&#x4b2;" horiz-adv-x="1507" 
d="M31 0l590 735l-553 699h225l442 -560l443 560h219l-553 -689l461 -581h178v-457h-178v293h-97l-479 606l-479 -606h-219z" />
    <glyph glyph-name="uni04B3" unicode="&#x4b3;" horiz-adv-x="1236" 
d="M4 0l473 537l-444 507h213l342 -393l344 393h211l-445 -503l338 -387h176v-430h-168v276h-86l-370 426l-373 -426h-211z" />
    <glyph glyph-name="uni04B6" unicode="&#x4b6;" horiz-adv-x="1519" 
d="M694 520q-299 0 -454.5 123t-155.5 365v426h178v-392q0 -183 108 -270.5t328 -87.5q216 0 449 82v668h178v-1270h152v-457h-179v293h-151v594q-225 -74 -453 -74z" />
    <glyph glyph-name="uni04B7" unicode="&#x4b7;" horiz-adv-x="1271" 
d="M584 340q-250 0 -371 96t-121 289v319h168v-311q0 -125 84 -183t260 -58q177 0 334 75v477h168v-890h145v-430h-168v276h-145v406q-160 -66 -354 -66z" />
    <glyph glyph-name="uni04BA" unicode="&#x4ba;" horiz-adv-x="1458" 
d="M764 913q299 0 454.5 -122.5t155.5 -364.5v-426h-178v391q0 183 -108 271t-328 88q-216 0 -449 -82v-668h-178v1434h178v-594q222 73 453 73z" />
    <glyph glyph-name="uni04BB" unicode="&#x4bb;" horiz-adv-x="1331" 
d="M123 0v1434h168v-551q64 85 174.5 129.5t255.5 44.5q247 0 372.5 -130.5t125.5 -385.5v-541h-168v530q0 373 -357 373q-196 0 -299.5 -95.5t-103.5 -277.5v-530h-168z" />
    <glyph glyph-name="uni04C0" unicode="&#x4c0;" horiz-adv-x="444" 
d="M133 0v1434h178v-1434h-178z" />
    <glyph glyph-name="uni04CF" unicode="&#x4cf;" horiz-adv-x="413" 
d="M123 0v1434h168v-1434h-168z" />
    <glyph glyph-name="uni04D8" unicode="&#x4d8;" horiz-adv-x="1689" 
d="M813 -12q-347 0 -544 210.5t-191 575.5h1349q-19 237 -183.5 372.5t-434.5 135.5q-415 0 -530 -317h-189q54 229 241.5 355t473.5 126q240 0 423.5 -90t283.5 -255.5t100 -383.5q0 -331 -218 -530t-581 -199zM817 152q251 0 411.5 121.5t192.5 336.5h-1149
q20 -214 166 -336t379 -122z" />
    <glyph glyph-name="uni04D9" unicode="&#x4d9;" horiz-adv-x="1323" 
d="M635 1057q275 0 442.5 -147t167.5 -388q0 -236 -163.5 -385t-422.5 -149q-265 0 -423 138t-158 370v59h991v14q0 157 -113 247.5t-309 90.5q-155 0 -253.5 -54.5t-133.5 -158.5h-170q41 169 187 266t358 97zM1063 414h-809q15 -135 118.5 -207t284.5 -72q170 0 279.5 75
t126.5 204z" />
    <glyph glyph-name="uni04E2" unicode="&#x4e2;" horiz-adv-x="1574" 
d="M133 0v1434h176v-1162l969 1162h164v-1434h-176v1161l-969 -1161h-164zM455 1638v140h667v-140h-667z" />
    <glyph glyph-name="uni04E3" unicode="&#x4e3;" horiz-adv-x="1345" 
d="M123 0v1044h164v-817l788 817h148v-1044h-164v819l-789 -819h-147zM342 1249v140h668v-140h-668z" />
    <glyph glyph-name="uni04E8" unicode="&#x4e8;" horiz-adv-x="1781" 
d="M891 -12q-240 0 -425 91.5t-286.5 257t-101.5 380.5t101.5 380.5t286.5 257t425 91.5t425 -91.5t286.5 -257t101.5 -380.5t-101.5 -380.5t-286.5 -257t-425 -91.5zM264 799h1254q-29 222 -197.5 352.5t-429.5 130.5t-429.5 -130.5t-197.5 -352.5zM891 152
q261 0 429.5 130.5t197.5 352.5h-1254q29 -222 197.5 -352.5t429.5 -130.5z" />
    <glyph glyph-name="uni04E9" unicode="&#x4e9;" horiz-adv-x="1378" 
d="M690 -12q-273 0 -442.5 148t-169.5 386t169.5 386.5t442.5 148.5q271 0 440.5 -148.5t169.5 -386.5t-169 -386t-441 -148zM248 594h882q-23 150 -139.5 235.5t-300.5 85.5t-301.5 -85.5t-140.5 -235.5zM690 129q184 0 300.5 86t139.5 236h-882q23 -150 140.5 -236
t301.5 -86z" />
    <glyph glyph-name="uni04EE" unicode="&#x4ee;" horiz-adv-x="1462" 
d="M207 0v164h133q124 0 179 27t102 112l59 107l-666 1024h215l549 -863l469 863h201l-664 -1182q-82 -145 -170.5 -198.5t-246.5 -53.5h-160zM414 1638v140h667v-140h-667z" />
    <glyph glyph-name="uni04EF" unicode="&#x4ef;" horiz-adv-x="1193" 
d="M78 -410v154h168q82 0 120.5 29.5t92.5 132.5l47 90l-490 1048h185l399 -849l393 849h185l-562 -1183q-78 -166 -148 -218.5t-212 -52.5h-178zM262 1249v140h668v-140h-668z" />
    <glyph glyph-name="glyph00054" horiz-adv-x="464" 
d="M-47 -410v154h67q86 0 120 34t34 120v1146h168v-1142q0 -166 -72 -239t-239 -73h-78zM258 1223q-49 0 -80 30t-31 76t31 76.5t80 30.5t80 -30.5t31 -76.5t-31 -76t-80 -30z" />
    </font>
</defs>
</svg>
