<?xml version="1.0" standalone="no"?>
<!DOCTYPE svg PUBLIC "-//W3C//DTD SVG 1.1//EN" "http://www.w3.org/Graphics/SVG/1.1/DTD/svg11.dtd" >
<svg xmlns="http://www.w3.org/2000/svg" xmlns:xlink="http://www.w3.org/1999/xlink" version="1.1">
<metadata>
Created by FontForge 20201107 at Fri Nov 14 04:01:44 2025
 By 
Copyright 2025 CoType Foundry. All Rights Reserved.
</metadata>
<defs>
<font id="AeonikExtendedProTRIAL-SemiBold" horiz-adv-x="1323" >
  <font-face 
    font-family="Aeonik Extended Pro TRIAL SemiBold"
    font-weight="600"
    font-stretch="expanded"
    units-per-em="2048"
    panose-1="2 11 7 3 3 3 0 0 0 0"
    ascent="1638"
    descent="-410"
    x-height="1051"
    cap-height="1434"
    bbox="-223 -422 2484 1849"
    underline-thickness="163"
    underline-position="-255"
    unicode-range="U+0020-04EF"
  />
<missing-glyph horiz-adv-x="1269" 
d="M123 -223v1698h1024v-1698h-1024zM322 -18h94v112h57q62 0 99.5 34t37.5 91q0 58 -37.5 92.5t-99.5 34.5h-151v-364zM416 172v96h49q22 0 35.5 -13t13.5 -36q0 -22 -13.5 -34.5t-35.5 -12.5h-49zM692 -18h256v81h-160v64h123v76h-123v61h154v82h-250v-364zM391 455h96
v282h103v82h-299v-82h100v-282zM758 455h96v135l131 229h-106l-72 -133l-68 133h-112l131 -229v-135zM444 926q66 0 106.5 38t45.5 99h-94q-13 -59 -62 -59q-71 0 -71 106q0 107 71 107q48 0 62 -62h94q-5 63 -45.5 101t-106.5 38q-84 0 -129 -49t-45 -135t45 -135t129 -49z
M807 926q81 0 129.5 51.5t48.5 132.5q0 80 -49 132t-129 52q-81 0 -129.5 -52t-48.5 -132q0 -81 48 -132.5t130 -51.5zM807 1004q-39 0 -59.5 29.5t-20.5 76.5q0 48 21 77.5t59 29.5t59 -29.5t21 -77.5q0 -47 -20.5 -76.5t-59.5 -29.5z" />
    <glyph glyph-name=".notdef" horiz-adv-x="1269" 
d="M123 -223v1698h1024v-1698h-1024zM322 -18h94v112h57q62 0 99.5 34t37.5 91q0 58 -37.5 92.5t-99.5 34.5h-151v-364zM416 172v96h49q22 0 35.5 -13t13.5 -36q0 -22 -13.5 -34.5t-35.5 -12.5h-49zM692 -18h256v81h-160v64h123v76h-123v61h154v82h-250v-364zM391 455h96
v282h103v82h-299v-82h100v-282zM758 455h96v135l131 229h-106l-72 -133l-68 133h-112l131 -229v-135zM444 926q66 0 106.5 38t45.5 99h-94q-13 -59 -62 -59q-71 0 -71 106q0 107 71 107q48 0 62 -62h94q-5 63 -45.5 101t-106.5 38q-84 0 -129 -49t-45 -135t45 -135t129 -49z
M807 926q81 0 129.5 51.5t48.5 132.5q0 80 -49 132t-129 52q-81 0 -129.5 -52t-48.5 -132q0 -81 48 -132.5t130 -51.5zM807 1004q-39 0 -59.5 29.5t-20.5 76.5q0 48 21 77.5t59 29.5t59 -29.5t21 -77.5q0 -47 -20.5 -76.5t-59.5 -29.5z" />
    <glyph glyph-name=".null" horiz-adv-x="0" 
 />
    <glyph glyph-name="nonmarkingreturn" horiz-adv-x="682" 
 />
    <glyph glyph-name="space" unicode=" " horiz-adv-x="563" 
 />
    <glyph glyph-name="comma" unicode="," horiz-adv-x="512" 
d="M61 -291v137q97 1 156 41t59 103q0 20 -2 28q-38 -18 -77 -18q-60 0 -101 37.5t-41 105.5q0 65 50.5 110.5t127.5 45.5q97 0 157.5 -72.5t60.5 -183.5q0 -159 -103.5 -245.5t-286.5 -88.5z" />
    <glyph glyph-name="hyphen" unicode="-" horiz-adv-x="1011" 
d="M88 469v219h836v-219h-836z" />
    <glyph glyph-name="period" unicode="." horiz-adv-x="497" 
d="M248 -12q-71 0 -117.5 44t-46.5 113q0 68 47 113t117 45q72 0 119 -45t47 -113q0 -69 -47 -113t-119 -44z" />
    <glyph glyph-name="zero" unicode="0" horiz-adv-x="1501" 
d="M750 -12q-320 0 -497 183t-177 513v66q0 327 178.5 511.5t495.5 184.5t496 -184.5t179 -511.5v-66q0 -330 -177 -513t-498 -183zM750 215q409 0 409 477v49q0 478 -409 478q-408 0 -408 -478v-49q0 -477 408 -477z" />
    <glyph glyph-name="one" unicode="1" horiz-adv-x="796" 
d="M406 0v952q-38 -14 -105 -14h-287v223h271q65 0 95 32.5t30 98.5v142h260v-1434h-264z" />
    <glyph glyph-name="two" unicode="2" 
d="M49 0v209l668 440q140 92 203 172.5t63 167.5q0 111 -84.5 171.5t-241.5 60.5q-154 0 -246 -72t-92 -195v-22h-266v39q0 212 168.5 343.5t437.5 131.5q279 0 436.5 -118.5t157.5 -326.5q0 -161 -87 -279t-310 -259l-367 -236h777v-227h-1217z" />
    <glyph glyph-name="three" unicode="3" horiz-adv-x="1380" 
d="M672 -12q-304 0 -468.5 120t-164.5 341h262q3 -120 100.5 -184t280.5 -64q170 0 263 57.5t93 161.5q0 198 -336 198h-188v220h172q150 0 231.5 52.5t81.5 151.5q0 93 -82.5 142t-240.5 49q-159 0 -247.5 -58.5t-98.5 -170.5h-262q6 202 172 322t440 120q280 0 435 -101
t155 -284q0 -123 -67.5 -205t-192.5 -111q143 -25 222 -111t79 -222q0 -196 -172 -310t-467 -114z" />
    <glyph glyph-name="four" unicode="4" horiz-adv-x="1464" 
d="M915 0v317h-874v238l823 879h314v-891h260v-226h-260v-317h-263zM330 543h585v626z" />
    <glyph glyph-name="five" unicode="5" horiz-adv-x="1378" 
d="M698 -12q-293 0 -451 118.5t-171 313.5h264q41 -213 358 -213q162 0 260.5 72.5t98.5 203.5q0 130 -89 203.5t-263 73.5q-256 0 -349 -162l-258 20l56 816h1069v-228h-832l-26 -342q127 109 380 109q271 0 426.5 -133.5t155.5 -354.5q0 -120 -48 -215t-132.5 -156
t-199 -93.5t-249.5 -32.5z" />
    <glyph glyph-name="six" unicode="6" horiz-adv-x="1429" 
d="M741 -12q-342 0 -514 209q-151 183 -151 505q0 364 173.5 554t504.5 190q244 0 396.5 -103.5t184.5 -291.5h-262q-31 93 -110.5 135.5t-221.5 42.5q-204 0 -304.5 -109t-100.5 -332q0 -20 2 -30q56 95 173 145.5t284 50.5q267 0 418 -126t151 -349q0 -226 -168.5 -358.5
t-454.5 -132.5zM743 199q167 0 260 71.5t93 200.5q0 130 -91 201t-257 71t-259.5 -71.5t-93.5 -200.5q0 -126 93 -199t255 -73z" />
    <glyph glyph-name="seven" unicode="7" horiz-adv-x="1280" 
d="M160 0l770 1206h-907v228h1230v-174l-792 -1260h-301z" />
    <glyph glyph-name="eight" unicode="8" horiz-adv-x="1413" 
d="M707 -12q-301 0 -472.5 108.5t-171.5 298.5q0 138 87 232t245 123q-135 28 -209.5 110t-74.5 205q0 177 160 279t436 102t436 -102t160 -279q0 -122 -75.5 -204.5t-209.5 -110.5q158 -29 245 -123t87 -232q0 -190 -171 -298.5t-472 -108.5zM707 184q178 0 274 59t96 167
q0 110 -95.5 168.5t-274.5 58.5t-275 -58.5t-96 -168.5q0 -108 96.5 -167t274.5 -59zM707 856q158 0 242.5 51t84.5 148q0 94 -84.5 144t-242.5 50t-243 -50t-85 -144q0 -97 84.5 -148t243.5 -51z" />
    <glyph glyph-name="nine" unicode="9" horiz-adv-x="1429" 
d="M688 1446q341 0 516 -209q152 -184 152 -506q0 -363 -174 -553t-506 -190q-243 0 -395.5 103t-186.5 292h262q32 -93 111.5 -135.5t220.5 -42.5q204 0 305 109t101 331v31q-57 -96 -174 -146.5t-283 -50.5q-267 0 -419 126t-152 349q0 226 168.5 359t453.5 133zM686 1235
q-166 0 -259 -71.5t-93 -200.5q0 -130 91 -201.5t257 -71.5q167 0 260.5 72t93.5 201q0 126 -93.5 199t-256.5 73z" />
    <glyph glyph-name="A" unicode="A" horiz-adv-x="1646" 
d="M16 0l643 1434h330l641 -1434h-305l-145 330h-725l-144 -330h-295zM551 559h532l-268 612z" />
    <glyph glyph-name="B" unicode="B" horiz-adv-x="1474" 
d="M121 0v1434h682q260 0 399 -98t139 -281q0 -247 -258 -314q324 -49 324 -331q0 -200 -154 -305t-448 -105h-684zM397 223h437q149 0 220.5 48.5t71.5 148.5q0 196 -292 196h-437v-393zM397 836h426q117 0 179.5 48.5t62.5 139.5t-62.5 139.5t-179.5 48.5h-426v-376z" />
    <glyph glyph-name="C" unicode="C" horiz-adv-x="1673" 
d="M866 -12q-241 0 -422.5 90t-279.5 255.5t-98 383.5q0 216 101 381.5t287.5 256.5t430.5 91q296 0 493.5 -138.5t237.5 -375.5h-283q-41 134 -158.5 205t-295.5 71q-244 0 -387.5 -132.5t-143.5 -358.5q0 -227 140.5 -359.5t383.5 -132.5q182 0 301 71.5t160 205.5h281
q-40 -237 -242.5 -375.5t-505.5 -138.5z" />
    <glyph glyph-name="D" unicode="D" horiz-adv-x="1644" 
d="M121 0v1434h602q260 0 453 -85t298 -247t105 -383q0 -333 -231.5 -526t-624.5 -193h-602zM397 242h326q278 0 425.5 122t147.5 355q0 232 -147 352.5t-426 120.5h-326v-950z" />
    <glyph glyph-name="E" unicode="E" 
d="M121 0v1434h1118v-242h-842v-352h695v-232h-695v-366h873v-242h-1149z" />
    <glyph glyph-name="F" unicode="F" horiz-adv-x="1273" 
d="M121 0v1434h1091v-242h-815v-369h682v-231h-682v-592h-276z" />
    <glyph glyph-name="G" unicode="G" horiz-adv-x="1757" 
d="M872 -12q-236 0 -419.5 91.5t-285 257.5t-101.5 380q0 329 225.5 529t599.5 200q299 0 501 -137.5t242 -366.5h-280q-40 127 -160.5 196.5t-304.5 69.5q-249 0 -395 -132.5t-146 -358.5t145 -359t392 -133q228 0 357.5 83.5t143.5 226.5l3 32h-484v224h742v-791h-213
l-25 176q-73 -89 -215 -138.5t-322 -49.5z" />
    <glyph glyph-name="H" unicode="H" horiz-adv-x="1599" 
d="M121 0v1434h276v-588h805v588h277v-1434h-277v606h-805v-606h-276z" />
    <glyph glyph-name="I" unicode="I" horiz-adv-x="516" 
d="M121 0v1434h276v-1434h-276z" />
    <glyph glyph-name="J" unicode="J" horiz-adv-x="866" 
d="M51 0v242h217q107 0 155 49.5t48 159.5v983h277v-1002q0 -432 -435 -432h-262z" />
    <glyph glyph-name="K" unicode="K" horiz-adv-x="1564" 
d="M121 0v1434h276v-709l750 709h379l-635 -586l682 -848h-348l-541 659l-287 -264v-395h-276z" />
    <glyph glyph-name="L" unicode="L" horiz-adv-x="1187" 
d="M121 0v1434h276v-1192h740v-242h-1016z" />
    <glyph glyph-name="M" unicode="M" horiz-adv-x="2048" 
d="M121 0v1434h350l559 -1100l551 1100h348v-1434h-272v1012l-518 -1012h-230l-516 1012v-1012h-272z" />
    <glyph glyph-name="N" unicode="N" horiz-adv-x="1607" 
d="M121 0v1434h252l846 -994v994h270v-1434h-252l-846 993v-993h-270z" />
    <glyph glyph-name="O" unicode="O" horiz-adv-x="1796" 
d="M897 -12q-243 0 -432.5 92t-294 258t-104.5 379t104.5 379t294 258t432.5 92q244 0 434 -91.5t295 -257.5t105 -380t-105 -380t-295 -257.5t-434 -91.5zM897 225q252 0 401.5 134t149.5 358t-149.5 357.5t-401.5 133.5q-251 0 -400 -133.5t-149 -357.5t149.5 -358
t399.5 -134z" />
    <glyph glyph-name="P" unicode="P" horiz-adv-x="1435" 
d="M121 0v1434h721q252 0 398 -125.5t146 -341.5q0 -217 -146 -343t-398 -126h-445v-498h-276zM397 731h437q126 0 199 63.5t73 172.5q0 107 -73 169t-199 62h-437v-467z" />
    <glyph glyph-name="Q" unicode="Q" horiz-adv-x="1806" 
d="M1624 0q-77 0 -130.5 21.5t-115.5 82.5q-203 -116 -481 -116q-243 0 -432.5 92t-294 258t-104.5 379t104.5 379t294 258t432.5 92q244 0 434 -91.5t295 -257.5t105 -380q0 -268 -166 -461q35 -14 75 -14h140v-242h-156zM897 225q174 0 303 66l-55 57q-28 30 -57.5 40.5
t-75.5 10.5h-133v236h161q80 0 133 -23t119 -94l76 -78q80 119 80 277q0 224 -149.5 357.5t-401.5 133.5q-251 0 -400 -133.5t-149 -357.5t149.5 -358t399.5 -134z" />
    <glyph glyph-name="R" unicode="R" horiz-adv-x="1466" 
d="M121 0v1434h725q252 0 399.5 -126t147.5 -341q0 -158 -84.5 -264.5t-247.5 -153.5l360 -549h-323l-324 498h-377v-498h-276zM397 731h441q126 0 199 63.5t73 172.5q0 107 -72.5 169t-199.5 62h-441v-467z" />
    <glyph glyph-name="S" unicode="S" horiz-adv-x="1456" 
d="M748 -12q-315 0 -498 127.5t-189 353.5h275q10 -121 119.5 -188.5t294.5 -67.5q178 0 269 50t91 143q0 89 -78.5 125t-308.5 65q-340 41 -480.5 135.5t-140.5 284.5q0 198 165 314t448 116q293 0 464 -118t181 -329h-275q-15 106 -111.5 164t-262.5 58q-332 0 -332 -185
q0 -88 80 -124.5t309 -63.5q334 -37 477.5 -133t143.5 -285q0 -202 -174 -322t-467 -120z" />
    <glyph glyph-name="T" unicode="T" horiz-adv-x="1443" 
d="M584 0v1192h-533v242h1342v-242h-533v-1192h-276z" />
    <glyph glyph-name="U" unicode="U" horiz-adv-x="1585" 
d="M791 -12q-335 0 -507.5 165t-172.5 484v797h276v-811q0 -200 100 -298t304 -98q205 0 306 98t101 298v811h277v-797q0 -320 -173.5 -484.5t-510.5 -164.5z" />
    <glyph glyph-name="V" unicode="V" horiz-adv-x="1552" 
d="M616 0l-610 1434h295l477 -1131l479 1131h291l-610 -1434h-322z" />
    <glyph glyph-name="W" unicode="W" horiz-adv-x="2387" 
d="M518 0l-491 1434h288l367 -1106l387 1106h256l385 -1106l369 1106h282l-489 -1434h-322l-356 1049l-354 -1049h-322z" />
    <glyph glyph-name="X" unicode="X" horiz-adv-x="1527" 
d="M16 0l574 735l-543 699h344l379 -492l381 492h330l-543 -695l573 -739h-344l-411 530l-410 -530h-330z" />
    <glyph glyph-name="Y" unicode="Y" horiz-adv-x="1570" 
d="M647 0v530l-641 904h326l456 -648l465 648h314l-643 -904v-530h-277z" />
    <glyph glyph-name="Z" unicode="Z" horiz-adv-x="1478" 
d="M61 0v184l918 1008h-895v242h1311v-185l-918 -1007h940v-242h-1356z" />
    <glyph glyph-name="a" unicode="a" horiz-adv-x="1331" 
d="M516 -12q-215 0 -334 83.5t-119 235.5q0 164 128.5 248t383.5 84h349v37q0 190 -285 190q-246 0 -283 -137h-258q19 158 165.5 246t391.5 88q261 0 394 -102t133 -302v-354q0 -43 20.5 -63.5t65.5 -20.5h47v-221h-137q-102 0 -162 42.5t-60 123.5v4q-133 -182 -440 -182z
M561 180q161 0 262 70t101 182v29h-359q-124 0 -181.5 -34t-57.5 -105q0 -142 235 -142z" />
    <glyph glyph-name="b" unicode="b" horiz-adv-x="1437" 
d="M782 -12q-269 0 -411 151l-23 -139h-237v1434h260v-527q69 75 175.5 115.5t235.5 40.5q263 0 427.5 -151t164.5 -388q0 -239 -164 -387.5t-428 -148.5zM735 203q174 0 274.5 86t100.5 235q0 150 -100.5 237t-274.5 87q-170 0 -269 -86.5t-99 -237.5q0 -149 99 -235
t269 -86z" />
    <glyph glyph-name="c" unicode="c" horiz-adv-x="1325" 
d="M688 -12q-281 0 -453 147.5t-172 388.5q0 244 173 391.5t458 147.5q237 0 389 -104.5t187 -292.5h-271q-23 88 -103.5 135t-205.5 47q-166 0 -263 -87t-97 -237q0 -149 96.5 -235t263.5 -86q126 0 206 48.5t103 137.5h271q-34 -188 -189 -294.5t-393 -106.5z" />
    <glyph glyph-name="d" unicode="d" horiz-adv-x="1437" 
d="M655 -12q-263 0 -427.5 148.5t-164.5 387.5q0 237 165 388t427 151q129 0 236 -40.5t178 -115.5v527h260v-1434h-239l-21 139q-145 -151 -414 -151zM702 203q172 0 271.5 86t99.5 235q0 151 -99.5 237.5t-271.5 86.5q-173 0 -272.5 -86.5t-99.5 -237.5q0 -149 99.5 -235
t272.5 -86z" />
    <glyph glyph-name="e" unicode="e" horiz-adv-x="1355" 
d="M707 -12q-292 0 -468 145.5t-176 388.5q0 242 171 391.5t448 149.5q274 0 442 -140.5t168 -369.5q0 -61 -2 -86h-954v-12q0 -123 94.5 -194t261.5 -71q133 0 217.5 41t112.5 119h258q-34 -163 -192 -262.5t-381 -99.5zM342 645h688q-14 106 -102.5 162.5t-241.5 56.5
q-145 0 -236 -58t-108 -161z" />
    <glyph glyph-name="f" unicode="f" horiz-adv-x="849" 
d="M229 0v827h-219v224h219v45q0 170 85.5 254t260.5 84h254v-224h-219q-68 0 -96.5 -26t-28.5 -90v-43h344v-224h-340v-827h-260z" />
    <glyph glyph-name="g" unicode="g" horiz-adv-x="1437" 
d="M686 -422q-259 0 -414.5 96.5t-175.5 272.5h264q53 -166 345 -166q368 0 368 285v96q-144 -160 -411 -160q-272 0 -435.5 143.5t-163.5 384.5q0 236 165.5 384.5t426.5 148.5q274 0 414 -156l21 144h239v-994q0 -235 -163 -357t-480 -122zM702 213q169 0 270 85.5
t101 231.5t-101 232t-270 86q-170 0 -271 -86t-101 -232t100.5 -231.5t271.5 -85.5z" />
    <glyph glyph-name="h" unicode="h" horiz-adv-x="1374" 
d="M111 0v1434h260v-525q132 154 401 154q237 0 370.5 -123t133.5 -377v-563h-260v541q0 305 -305 305q-165 0 -252.5 -78.5t-87.5 -226.5v-541h-260z" />
    <glyph glyph-name="i" unicode="i" horiz-adv-x="479" 
d="M111 0v1051h260v-1051h-260zM240 1188q-66 0 -109 40.5t-43 102.5t43 103t109 41q64 0 107.5 -41t43.5 -103q0 -61 -43 -102t-108 -41z" />
    <glyph glyph-name="j" unicode="j" horiz-adv-x="495" 
d="M-135 -410v224h121q75 0 107 31.5t32 105.5v1100h260v-1104q0 -194 -84 -275.5t-283 -81.5h-153zM256 1188q-66 0 -109 40.5t-43 102.5t43 103t109 41q65 0 108.5 -41.5t43.5 -102.5t-43.5 -102t-108.5 -41z" />
    <glyph glyph-name="k" unicode="k" horiz-adv-x="1277" 
d="M111 0v1434h260v-869l551 486h331l-477 -418l506 -633h-324l-372 465l-215 -189v-276h-260z" />
    <glyph glyph-name="l" unicode="l" horiz-adv-x="479" 
d="M111 0v1434h260v-1434h-260z" />
    <glyph glyph-name="m" unicode="m" horiz-adv-x="2129" 
d="M111 0v1051h237l25 -142q132 154 364 154q278 0 387 -211q135 211 443 211q221 0 343 -136.5t122 -387.5v-539h-260v518q0 159 -70 243.5t-197 84.5q-141 0 -223 -83.5t-82 -234.5v-528h-260v518q0 159 -69 243.5t-197 84.5q-141 0 -222 -84t-81 -234v-528h-260z" />
    <glyph glyph-name="n" unicode="n" horiz-adv-x="1374" 
d="M111 0v1051h237l25 -142q136 154 401 154q244 0 373 -134.5t129 -389.5v-539h-260v518q0 328 -305 328q-164 0 -252 -82t-88 -236v-528h-260z" />
    <glyph glyph-name="o" unicode="o" horiz-adv-x="1406" 
d="M705 -12q-287 0 -464.5 148.5t-177.5 387.5q0 241 177.5 390t464.5 149q286 0 462 -149t176 -390q0 -239 -176 -387.5t-462 -148.5zM705 203q172 0 272 86.5t100 234.5q0 149 -100 236.5t-272 87.5q-173 0 -274 -87.5t-101 -236.5q0 -148 101 -234.5t274 -86.5z" />
    <glyph glyph-name="p" unicode="p" horiz-adv-x="1437" 
d="M111 -410v1461h237l23 -140q143 152 411 152q263 0 427.5 -151t164.5 -388q0 -239 -164 -387.5t-428 -148.5q-129 0 -235.5 40t-175.5 115v-553h-260zM735 203q174 0 274.5 86t100.5 235q0 150 -100.5 237t-274.5 87q-170 0 -269 -86.5t-99 -237.5q0 -149 99 -235
t269 -86z" />
    <glyph glyph-name="q" unicode="q" horiz-adv-x="1437" 
d="M1069 -410v553q-70 -75 -177.5 -115t-236.5 -40q-263 0 -427.5 148.5t-164.5 387.5q0 237 165 388t427 151q268 0 414 -152l21 140h239v-1461h-260zM702 203q172 0 271.5 86t99.5 235q0 151 -99.5 237.5t-271.5 86.5q-173 0 -272.5 -86.5t-99.5 -237.5q0 -149 99.5 -235
t272.5 -86z" />
    <glyph glyph-name="r" unicode="r" horiz-adv-x="833" 
d="M111 0v1051h237l25 -154q55 79 143.5 116.5t220.5 37.5h66v-238h-119q-161 0 -237 -81.5t-76 -252.5v-479h-260z" />
    <glyph glyph-name="s" unicode="s" horiz-adv-x="1222" 
d="M631 -12q-264 0 -415.5 93.5t-158.5 262.5h250q15 -164 326 -164q282 0 282 129q0 58 -60.5 80t-240.5 33q-291 17 -411.5 86t-120.5 219q0 155 138 245.5t376 90.5q248 0 392.5 -86.5t156.5 -243.5h-250q-24 137 -295 137q-266 0 -266 -120q0 -58 60.5 -81.5
t236.5 -35.5q300 -22 418 -89t118 -216q0 -155 -145.5 -247.5t-390.5 -92.5z" />
    <glyph glyph-name="t" unicode="t" horiz-adv-x="862" 
d="M557 0q-171 0 -249.5 79t-78.5 251v497h-219v224h219v295h260v-295h322v-224h-322v-467q0 -76 30.5 -106.5t107.5 -30.5h184v-223h-254z" />
    <glyph glyph-name="u" unicode="u" horiz-adv-x="1357" 
d="M594 -12q-240 0 -367 134.5t-127 389.5v539h260v-519q0 -161 74.5 -244t220.5 -83q160 0 247 82.5t87 234.5v529h260v-1051h-239l-27 145q-136 -157 -389 -157z" />
    <glyph glyph-name="v" unicode="v" horiz-adv-x="1263" 
d="M473 0l-467 1051h281l350 -805l346 805h274l-464 -1051h-320z" />
    <glyph glyph-name="w" unicode="w" horiz-adv-x="1955" 
d="M424 0l-414 1051h277l284 -779l295 779h236l291 -779l286 779h269l-414 -1051h-279l-276 709l-277 -709h-278z" />
    <glyph glyph-name="x" unicode="x" horiz-adv-x="1251" 
d="M-4 0l467 539l-440 512h317l293 -344l295 344h301l-438 -508l464 -543h-315l-322 375l-321 -375h-301z" />
    <glyph glyph-name="y" unicode="y" horiz-adv-x="1269" 
d="M92 -410v224h178q72 0 105.5 21t73.5 93l38 74l-481 1049h281l346 -791l352 791h279l-559 -1198q-51 -110 -98.5 -165t-109 -76.5t-165.5 -21.5h-240z" />
    <glyph glyph-name="z" unicode="z" horiz-adv-x="1185" 
d="M47 0v180l688 647h-672v224h1059v-181l-688 -647h705v-223h-1092z" />
    <glyph glyph-name="uni00A0" unicode="&#xa0;" horiz-adv-x="563" 
 />
    <glyph glyph-name="Alphatonos" unicode="&#x386;" horiz-adv-x="1646" 
d="M16 0l643 1434h330l641 -1434h-305l-145 330h-725l-144 -330h-295zM551 559h532l-268 612zM86 1112l78 322h270l-174 -322h-174z" />
    <glyph glyph-name="Epsilontonos" unicode="&#x388;" horiz-adv-x="1548" 
d="M344 0v1434h1118v-242h-841v-352h694v-232h-694v-366h872v-242h-1149zM-90 1112l80 322h270l-174 -322h-176z" />
    <glyph glyph-name="Etatonos" unicode="&#x389;" horiz-adv-x="1822" 
d="M344 0v1434h277v-588h806v588h277v-1434h-277v606h-806v-606h-277zM-90 1112l80 322h270l-174 -322h-176z" />
    <glyph glyph-name="Iotatonos" unicode="&#x38a;" horiz-adv-x="741" 
d="M344 0v1434h277v-1434h-277zM-90 1112l80 322h270l-174 -322h-176z" />
    <glyph glyph-name="Omicrontonos" unicode="&#x38c;" horiz-adv-x="1857" 
d="M958 -12q-243 0 -433 92t-295 258t-105 379t105 379t295 258t433 92q244 0 434 -91.5t295 -257.5t105 -380t-105 -380t-295 -257.5t-434 -91.5zM958 225q252 0 401.5 134t149.5 358t-149.5 357.5t-401.5 133.5q-251 0 -400.5 -133.5t-149.5 -357.5t149.5 -358t400.5 -134
zM-63 1112l77 322h271l-174 -322h-174z" />
    <glyph glyph-name="Upsilontonos" unicode="&#x38e;" horiz-adv-x="1816" 
d="M893 0v530l-643 904h328l456 -648l463 648h313l-641 -904v-530h-276zM-137 1112l80 322h270l-174 -322h-176z" />
    <glyph glyph-name="Omegatonos" unicode="&#x38f;" horiz-adv-x="1878" 
d="M160 0v242h454v34q-233 60 -343.5 200t-110.5 331q0 194 104.5 340t291 222.5t429.5 76.5q242 0 428 -76.5t290.5 -222.5t104.5 -340q0 -191 -110.5 -331t-343.5 -200v-34h454v-242h-657v367q204 64 289.5 167t85.5 261q0 190 -148 301.5t-393 111.5t-394 -111.5
t-149 -301.5q0 -158 85.5 -261t289.5 -167v-367h-657zM-49 1112l78 322h270l-174 -322h-174z" />
    <glyph glyph-name="iotadieresistonos" unicode="&#x390;" horiz-adv-x="622" 
d="M412 0q-164 0 -239 71.5t-75 229.5v750h260v-701q0 -70 28 -98.5t99 -28.5h117v-223h-190zM141 1165v322h260l-96 -322h-164zM-80 1190q-61 0 -102 39t-41 96q0 59 41 98t102 39t101 -39t40 -98q0 -57 -40 -96t-101 -39zM573 1190q-61 0 -102 39t-41 96q0 59 41 98
t102 39t101.5 -39t40.5 -98q0 -57 -40.5 -96t-101.5 -39z" />
    <glyph glyph-name="Alpha" unicode="&#x391;" horiz-adv-x="1646" 
d="M16 0l643 1434h330l641 -1434h-305l-145 330h-725l-144 -330h-295zM551 559h532l-268 612z" />
    <glyph glyph-name="Beta" unicode="&#x392;" horiz-adv-x="1474" 
d="M121 0v1434h682q260 0 399 -98t139 -281q0 -247 -258 -314q324 -49 324 -331q0 -200 -154 -305t-448 -105h-684zM397 223h437q149 0 220.5 48.5t71.5 148.5q0 196 -292 196h-437v-393zM397 836h426q117 0 179.5 48.5t62.5 139.5t-62.5 139.5t-179.5 48.5h-426v-376z" />
    <glyph glyph-name="Gamma" unicode="&#x393;" horiz-adv-x="1263" 
d="M121 0v1434h1091v-242h-815v-1192h-276z" />
    <glyph glyph-name="uni0394" unicode="&#x394;" horiz-adv-x="1542" 
d="M27 0v184l579 1250h332l580 -1250v-184h-1491zM340 242h850l-426 929z" />
    <glyph glyph-name="Epsilon" unicode="&#x395;" 
d="M121 0v1434h1118v-242h-842v-352h695v-232h-695v-366h873v-242h-1149z" />
    <glyph glyph-name="Zeta" unicode="&#x396;" horiz-adv-x="1478" 
d="M61 0v184l918 1008h-895v242h1311v-185l-918 -1007h940v-242h-1356z" />
    <glyph glyph-name="Eta" unicode="&#x397;" horiz-adv-x="1599" 
d="M121 0v1434h276v-588h805v588h277v-1434h-277v606h-805v-606h-276z" />
    <glyph glyph-name="Theta" unicode="&#x398;" horiz-adv-x="1806" 
d="M903 -12q-183 0 -339 53.5t-265.5 148.5t-171 231t-61.5 296t61.5 296t171 231t265.5 148.5t339 53.5q244 0 434.5 -91t297 -257.5t106.5 -380.5t-106.5 -380.5t-297 -257.5t-434.5 -91zM903 225q255 0 408 131.5t153 360.5t-153 360t-408 131t-408 -131t-153 -360
t153 -360.5t408 -131.5zM539 616v205h729v-205h-729z" />
    <glyph glyph-name="Iota" unicode="&#x399;" horiz-adv-x="516" 
d="M121 0v1434h276v-1434h-276z" />
    <glyph glyph-name="Kappa" unicode="&#x39a;" horiz-adv-x="1564" 
d="M121 0v1434h276v-709l750 709h379l-635 -586l682 -848h-348l-541 659l-287 -264v-395h-276z" />
    <glyph glyph-name="Lambda" unicode="&#x39b;" horiz-adv-x="1601" 
d="M16 0l619 1434h332l620 -1434h-297l-493 1143l-490 -1143h-291z" />
    <glyph glyph-name="Mu" unicode="&#x39c;" horiz-adv-x="2048" 
d="M121 0v1434h350l559 -1100l551 1100h348v-1434h-272v1012l-518 -1012h-230l-516 1012v-1012h-272z" />
    <glyph glyph-name="Nu" unicode="&#x39d;" horiz-adv-x="1607" 
d="M121 0v1434h252l846 -994v994h270v-1434h-252l-846 993v-993h-270z" />
    <glyph glyph-name="Xi" unicode="&#x39e;" horiz-adv-x="1431" 
d="M55 0v242h1323v-242h-1323zM233 604v242h967v-242h-967zM86 1192v242h1262v-242h-1262z" />
    <glyph glyph-name="Omicron" unicode="&#x39f;" horiz-adv-x="1796" 
d="M897 -12q-243 0 -432.5 92t-294 258t-104.5 379t104.5 379t294 258t432.5 92q244 0 434 -91.5t295 -257.5t105 -380t-105 -380t-295 -257.5t-434 -91.5zM897 225q252 0 401.5 134t149.5 358t-149.5 357.5t-401.5 133.5q-251 0 -400 -133.5t-149 -357.5t149.5 -358
t399.5 -134z" />
    <glyph glyph-name="Pi" unicode="&#x3a0;" horiz-adv-x="1587" 
d="M121 0v1434h1347v-1434h-276v1192h-795v-1192h-276z" />
    <glyph glyph-name="Rho" unicode="&#x3a1;" horiz-adv-x="1435" 
d="M121 0v1434h721q252 0 398 -125.5t146 -341.5q0 -217 -146 -343t-398 -126h-445v-498h-276zM397 731h437q126 0 199 63.5t73 172.5q0 107 -73 169t-199 62h-437v-467z" />
    <glyph glyph-name="Sigma" unicode="&#x3a3;" horiz-adv-x="1488" 
d="M61 0v184l590 549l-567 516v185h1321v-242h-860l444 -408v-90l-485 -452h923v-242h-1366z" />
    <glyph glyph-name="Tau" unicode="&#x3a4;" horiz-adv-x="1443" 
d="M584 0v1192h-533v242h1342v-242h-533v-1192h-276z" />
    <glyph glyph-name="Upsilon" unicode="&#x3a5;" horiz-adv-x="1570" 
d="M647 0v530l-641 904h326l456 -648l465 648h314l-643 -904v-530h-277z" />
    <glyph glyph-name="Phi" unicode="&#x3a6;" horiz-adv-x="2113" 
d="M924 -20v126h-33q-381 0 -603 164t-222 447q0 282 222 446t603 164h33v127h266v-127h33q381 0 603 -164t222 -446q0 -283 -222 -447t-603 -164h-33v-126h-266zM891 330h33v774h-33q-258 0 -404.5 -103t-146.5 -284t146.5 -284t404.5 -103zM1190 330h33q258 0 404.5 103
t146.5 284t-146.5 284t-404.5 103h-33v-774z" />
    <glyph glyph-name="Chi" unicode="&#x3a7;" horiz-adv-x="1527" 
d="M16 0l574 735l-543 699h344l379 -492l381 492h330l-543 -695l573 -739h-344l-411 530l-410 -530h-330z" />
    <glyph glyph-name="Psi" unicode="&#x3a8;" horiz-adv-x="1914" 
d="M823 0v375q-370 24 -548.5 192t-178.5 508v359h269v-342q0 -244 103.5 -352.5t354.5 -127.5v822h269v-822q250 20 354 129t104 351v342h269v-359q0 -339 -179 -507.5t-548 -192.5v-375h-269z" />
    <glyph glyph-name="uni03A9" unicode="&#x3a9;" horiz-adv-x="1785" 
d="M70 0v242h454v34q-233 60 -343.5 200t-110.5 331q0 194 104 340t290 222.5t429 76.5q242 0 428 -76.5t290.5 -222.5t104.5 -340q0 -191 -110.5 -331t-343.5 -200v-34h454v-242h-655v367q203 64 288 167t85 261q0 190 -148 301.5t-393 111.5t-393 -111.5t-148 -301.5
q0 -158 85 -261t288 -167v-367h-655z" />
    <glyph glyph-name="Iotadieresis" unicode="&#x3aa;" horiz-adv-x="516" 
d="M121 0v1434h276v-1434h-276zM494 1569q-63 0 -105.5 39.5t-42.5 99.5q0 61 42.5 101t105.5 40q64 0 105.5 -39.5t41.5 -101.5q0 -60 -41.5 -99.5t-105.5 -39.5zM20 1569q-63 0 -104 39.5t-41 99.5q0 61 41 101t104 40q65 0 106.5 -40t41.5 -101q0 -60 -42 -99.5
t-106 -39.5z" />
    <glyph glyph-name="Upsilondieresis" unicode="&#x3ab;" horiz-adv-x="1570" 
d="M647 0v530l-641 904h326l456 -648l465 648h314l-643 -904v-530h-277zM1026 1569q-63 0 -105 39.5t-42 99.5q0 61 42 101t105 40q65 0 106.5 -40t41.5 -101q0 -60 -42 -99.5t-106 -39.5zM553 1569q-63 0 -104 39.5t-41 99.5q0 61 41 101t104 40q64 0 105.5 -39.5
t41.5 -101.5q0 -60 -41.5 -99.5t-105.5 -39.5z" />
    <glyph glyph-name="alphatonos" unicode="&#x3ac;" horiz-adv-x="1474" 
d="M651 -12q-260 0 -424 148.5t-164 387.5q0 237 164.5 388t423.5 151q129 0 233.5 -39t172.5 -113l22 140h240v-746q0 -43 20.5 -63.5t65.5 -20.5h49v-221h-149q-206 0 -226 168q-69 -87 -180 -133.5t-248 -46.5zM696 203q169 0 268 86t99 235q0 150 -99 237t-268 87
t-267.5 -87t-98.5 -237q0 -149 98.5 -235t267.5 -86zM614 1165l78 322h271l-175 -322h-174z" />
    <glyph glyph-name="epsilontonos" unicode="&#x3ad;" horiz-adv-x="1241" 
d="M641 -12q-284 0 -436 79.5t-152 229.5q0 103 70.5 166t202.5 82q-116 21 -175 75t-59 148q0 139 137 217t389 78q263 0 413.5 -93t164.5 -255h-258q-18 80 -91.5 118.5t-221.5 38.5q-273 0 -273 -124q0 -123 203 -123h217v-191h-231q-117 0 -170.5 -30t-53.5 -91
q0 -68 77.5 -101.5t242.5 -33.5q149 0 219 40.5t88 127.5h258q-9 -179 -144 -268.5t-417 -89.5zM549 1163l78 322h270l-174 -322h-174z" />
    <glyph glyph-name="etatonos" unicode="&#x3ae;" horiz-adv-x="1423" 
d="M1065 -410v928q0 328 -305 328q-164 0 -252 -82t-88 -236v-528h-260v743q0 44 -20.5 64t-65.5 20h-47v224h153q203 0 221 -158q70 88 172.5 129t249.5 41q244 0 373 -134.5t129 -389.5v-949h-260zM528 1165l78 322h271l-175 -322h-174z" />
    <glyph glyph-name="iotatonos" unicode="&#x3af;" horiz-adv-x="622" 
d="M412 0q-164 0 -239 71.5t-75 229.5v750h260v-701q0 -70 28 -98.5t99 -28.5h117v-223h-190zM143 1165l78 322h271l-175 -322h-174z" />
    <glyph glyph-name="upsilondieresistonos" unicode="&#x3b0;" horiz-adv-x="1337" 
d="M668 -12q-290 0 -429 135t-139 418v510h260v-482q0 -198 70 -280t238 -82q169 0 239 82t70 280v482h260v-510q0 -281 -139.5 -417t-429.5 -136zM582 1165v322h260l-97 -322h-163zM360 1190q-61 0 -102 39t-41 96q0 59 41 98t102 39t101.5 -39t40.5 -98q0 -57 -40.5 -96
t-101.5 -39zM1014 1190q-61 0 -102.5 39t-41.5 96q0 59 41.5 98t102.5 39t101 -39t40 -98q0 -57 -40 -96t-101 -39z" />
    <glyph glyph-name="alpha" unicode="&#x3b1;" horiz-adv-x="1474" 
d="M651 -12q-260 0 -424 148.5t-164 387.5q0 237 164.5 388t423.5 151q129 0 233.5 -39t172.5 -113l22 140h240v-746q0 -43 20.5 -63.5t65.5 -20.5h49v-221h-149q-206 0 -226 168q-69 -87 -180 -133.5t-248 -46.5zM696 203q169 0 268 86t99 235q0 150 -99 237t-268 87
t-267.5 -87t-98.5 -237q0 -149 98.5 -235t267.5 -86z" />
    <glyph glyph-name="beta" unicode="&#x3b2;" horiz-adv-x="1427" 
d="M111 -410v1340q0 253 145.5 384.5t425.5 131.5q263 0 411 -101t148 -278q0 -105 -58.5 -190t-152.5 -119q161 -28 247.5 -121t86.5 -236q0 -196 -145 -304.5t-422 -108.5t-426 133v-531h-260zM371 455q0 -123 116 -194t295 -71q318 0 318 216q0 115 -100.5 169t-311.5 54
h-88v194h37q338 0 338 217q0 195 -295 195q-159 0 -234 -70.5t-75 -220.5v-489z" />
    <glyph glyph-name="gamma" unicode="&#x3b3;" horiz-adv-x="1298" 
d="M520 -334v346l-514 1039h287l360 -766l359 766h280l-510 -1035v-350h-262z" />
    <glyph glyph-name="delta" unicode="&#x3b4;" horiz-adv-x="1384" 
d="M682 -12q-289 0 -454 128t-165 353q0 176 123.5 300.5t337.5 162.5q49 10 119 10l-440 287v205h1050v-222h-630l340 -223q201 -131 279.5 -241t78.5 -269q0 -217 -177.5 -354t-461.5 -137zM692 190q164 0 265.5 79t101.5 208q0 126 -100.5 205.5t-260.5 79.5
q-170 0 -269 -76.5t-99 -208.5q0 -134 96.5 -210.5t265.5 -76.5z" />
    <glyph glyph-name="epsilon" unicode="&#x3b5;" horiz-adv-x="1241" 
d="M641 -12q-284 0 -436 79.5t-152 229.5q0 103 70.5 166t202.5 82q-116 21 -175 75t-59 148q0 139 137 217t389 78q263 0 413.5 -93t164.5 -255h-258q-18 80 -91.5 118.5t-221.5 38.5q-273 0 -273 -124q0 -123 203 -123h217v-191h-231q-117 0 -170.5 -30t-53.5 -91
q0 -68 77.5 -101.5t242.5 -33.5q149 0 219 40.5t88 127.5h258q-9 -179 -144 -268.5t-417 -89.5z" />
    <glyph glyph-name="zeta" unicode="&#x3b6;" horiz-adv-x="1175" 
d="M891 -276v118q0 91 -35 122.5t-135 33.5l-127 2q-262 3 -398.5 98t-136.5 275q0 132 84.5 254.5t311.5 322.5l295 260h-660v224h1040v-181l-456 -399q-212 -186 -280 -275t-68 -176q0 -92 71.5 -135.5t229.5 -44.5l147 -2q186 -3 266 -75t80 -238v-184h-229z" />
    <glyph glyph-name="eta" unicode="&#x3b7;" horiz-adv-x="1423" 
d="M1065 -410v928q0 328 -305 328q-164 0 -252 -82t-88 -236v-528h-260v743q0 44 -20.5 64t-65.5 20h-47v224h153q203 0 221 -158q70 88 172.5 129t249.5 41q244 0 373 -134.5t129 -389.5v-949h-260z" />
    <glyph glyph-name="theta" unicode="&#x3b8;" horiz-adv-x="1394" 
d="M696 -12q-303 0 -468 189.5t-165 541.5q0 349 165 538t468 189q307 0 471 -186.5t164 -540.5q0 -353 -165 -542t-470 -189zM696 207q171 0 263.5 101t109.5 310h-743q17 -209 108.5 -310t261.5 -101zM328 834h741q-20 200 -112.5 296.5t-260.5 96.5q-167 0 -258 -96.5
t-110 -296.5z" />
    <glyph glyph-name="iota" unicode="&#x3b9;" horiz-adv-x="622" 
d="M412 0q-164 0 -239 71.5t-75 229.5v750h260v-701q0 -70 28 -98.5t99 -28.5h117v-223h-190z" />
    <glyph glyph-name="kappa" unicode="&#x3ba;" 
d="M111 0v1051h260v-535l479 422q79 68 139 90.5t166 22.5h107v-224h-68q-79 0 -108.5 -10t-84.5 -57l-184 -160l496 -600h-326l-362 446l-254 -221v-225h-260z" />
    <glyph glyph-name="lambda" unicode="&#x3bb;" horiz-adv-x="1304" 
d="M18 0l488 1018l-37 78q-35 71 -70 92.5t-108 21.5h-164v224h217q150 0 222.5 -51.5t150.5 -211.5l569 -1171h-278l-359 754l-350 -754h-281z" />
    <glyph glyph-name="uni03BC" unicode="&#x3bc;" horiz-adv-x="1413" 
d="M111 -410v1461h260v-519q0 -161 74.5 -244t220.5 -83q160 0 246.5 82.5t86.5 234.5v529h261v-746q0 -43 20.5 -63.5t65.5 -20.5h45v-221h-154q-203 0 -221 158q-135 -170 -393 -170q-160 0 -252 71v-469h-260z" />
    <glyph glyph-name="nu" unicode="&#x3bd;" horiz-adv-x="1263" 
d="M473 0l-467 1051h281l350 -805l346 805h274l-464 -1051h-320z" />
    <glyph glyph-name="xi" unicode="&#x3be;" horiz-adv-x="1212" 
d="M915 -276v120q0 91 -35 122.5t-135 33.5l-180 2q-502 6 -502 375q0 127 81.5 224t217.5 132q-107 29 -164 93.5t-57 152.5q0 90 57 150.5t162 82.5l-235 -2v224h1028v-203q-117 0 -299 -6q-231 -10 -338.5 -61.5t-107.5 -149.5q0 -87 69.5 -132.5t206.5 -45.5h360v-218
h-391q-159 0 -241 -53t-82 -153q0 -96 68.5 -142t217.5 -47l183 -4q187 -3 266.5 -73.5t79.5 -235.5v-186h-230z" />
    <glyph glyph-name="omicron" unicode="&#x3bf;" horiz-adv-x="1406" 
d="M705 -12q-287 0 -464.5 148.5t-177.5 387.5q0 241 177.5 390t464.5 149q286 0 462 -149t176 -390q0 -239 -176 -387.5t-462 -148.5zM705 203q172 0 272 86.5t100 234.5q0 149 -100 236.5t-272 87.5q-173 0 -274 -87.5t-101 -236.5q0 -148 101 -234.5t274 -86.5z" />
    <glyph glyph-name="pi" unicode="&#x3c0;" horiz-adv-x="1513" 
d="M1239 0q-120 0 -177.5 51.5t-57.5 161.5v614h-510v-827h-261v827h-204v224h1448v-224h-213v-538q0 -40 20 -54t68 -14h55v-221h-168z" />
    <glyph glyph-name="rho" unicode="&#x3c1;" horiz-adv-x="1431" 
d="M100 -410v934q0 239 173 389t462 150q287 0 460 -150t173 -389q0 -241 -166.5 -388.5t-443.5 -147.5q-253 0 -398 114v-512h-260zM729 203q174 0 274.5 86t100.5 235q0 151 -100 237.5t-273 86.5q-172 0 -271.5 -86.5t-99.5 -237.5q0 -149 99 -235t270 -86z" />
    <glyph glyph-name="sigma1" unicode="&#x3c2;" horiz-adv-x="1325" 
d="M895 -276v118q0 90 -35 121.5t-135 34.5l-70 2q-291 9 -441.5 145.5t-150.5 378.5q0 244 173 391.5t458 147.5q237 0 389 -104.5t187 -292.5h-271q-23 88 -103.5 135t-205.5 47q-166 0 -263 -87t-97 -237q0 -152 80 -225t270 -76l98 -2q184 -5 265 -76.5t81 -236.5v-184
h-229z" />
    <glyph glyph-name="sigma" unicode="&#x3c3;" horiz-adv-x="1490" 
d="M705 -12q-286 0 -464 147t-178 383q0 237 177 385t460 148h758v-224h-264q149 -119 149 -319q0 -152 -81 -270.5t-226.5 -184t-330.5 -65.5zM705 203q170 0 271 85t101 230q0 146 -101 232t-271 86q-172 0 -273.5 -86t-101.5 -232q0 -145 101.5 -230t273.5 -85z" />
    <glyph glyph-name="tau" unicode="&#x3c4;" horiz-adv-x="1206" 
d="M780 0q-172 0 -250.5 79t-78.5 251v497h-422v224h1140v-224h-458v-467q0 -76 31 -106.5t106 -30.5h192v-223h-260z" />
    <glyph glyph-name="upsilon" unicode="&#x3c5;" horiz-adv-x="1337" 
d="M668 -12q-290 0 -429 135t-139 418v510h260v-482q0 -198 70 -280t238 -82q169 0 239 82t70 280v482h260v-510q0 -281 -139.5 -417t-429.5 -136z" />
    <glyph glyph-name="phi" unicode="&#x3c6;" horiz-adv-x="1802" 
d="M774 -410v410h-22q-313 0 -501 143t-188 381q0 239 188 383t501 144h22v268h256v-268h23q312 0 499 -144t187 -383q0 -238 -187 -381t-499 -143h-23v-410h-256zM752 211h24v629h-24q-197 0 -311.5 -85t-114.5 -231q0 -145 114.5 -229t311.5 -84zM1028 211h25
q195 0 309.5 84t114.5 229q0 146 -114.5 231t-309.5 85h-25v-629z" />
    <glyph glyph-name="chi" unicode="&#x3c7;" horiz-adv-x="1361" 
d="M16 -410l525 738l-287 409q-37 55 -73 72.5t-118 17.5h-59v224h113q62 0 100.5 -5t72 -16.5t64 -41t60 -66t75.5 -103.5l205 -293l359 525h280l-499 -707l288 -442q35 -54 71.5 -71t119.5 -17h59v-224h-115q-79 0 -126 8t-89.5 37.5t-74 70t-82.5 122.5l-205 319
l-371 -557h-293z" />
    <glyph glyph-name="psi" unicode="&#x3c8;" horiz-adv-x="1724" 
d="M737 -410v402q-323 23 -480 173t-157 433v453h260v-428q0 -207 84.5 -302t292.5 -114v1108h250v-1108q208 19 292.5 114t84.5 302v428h260v-453q0 -283 -157 -433t-480 -173v-402h-250z" />
    <glyph glyph-name="omega" unicode="&#x3c9;" horiz-adv-x="1873" 
d="M545 -12q-219 0 -345 134t-126 361q0 158 73 317t187 251h268q-144 -150 -203 -277.5t-59 -273.5q0 -138 60.5 -217.5t172.5 -79.5q111 0 176.5 81t65.5 222v205h244v-205q0 -145 63 -224t176 -79q111 0 173.5 81.5t62.5 215.5q0 147 -59 275t-203 276h268
q116 -95 188 -252.5t72 -315.5q0 -227 -126 -361t-345 -134q-153 0 -257.5 69t-137.5 199q-38 -131 -140 -199.5t-249 -68.5z" />
    <glyph glyph-name="iotadieresis" unicode="&#x3ca;" horiz-adv-x="622" 
d="M412 0q-164 0 -239 71.5t-75 229.5v750h260v-701q0 -70 28 -98.5t99 -28.5h117v-223h-190zM465 1186q-64 0 -106 39.5t-42 99.5q0 61 41.5 101t106.5 40q63 0 105 -40t42 -101q0 -60 -42 -99.5t-105 -39.5zM-8 1186q-63 0 -105.5 39.5t-42.5 99.5q0 61 42.5 101t105.5 40
t105 -40t42 -101q0 -60 -42 -99.5t-105 -39.5z" />
    <glyph glyph-name="upsilondieresis" unicode="&#x3cb;" horiz-adv-x="1337" 
d="M668 -12q-290 0 -429 135t-139 418v510h260v-482q0 -198 70 -280t238 -82q169 0 239 82t70 280v482h260v-510q0 -281 -139.5 -417t-429.5 -136zM905 1186q-64 0 -105.5 39.5t-41.5 99.5q0 62 41.5 101.5t105.5 39.5q63 0 105.5 -40t42.5 -101q0 -60 -42.5 -99.5
t-105.5 -39.5zM432 1186q-63 0 -105 39.5t-42 99.5q0 61 42 101t105 40t105.5 -40t42.5 -101q0 -60 -42.5 -99.5t-105.5 -39.5z" />
    <glyph glyph-name="omicrontonos" unicode="&#x3cc;" horiz-adv-x="1406" 
d="M705 -12q-287 0 -464.5 148.5t-177.5 387.5q0 241 177.5 390t464.5 149q286 0 462 -149t176 -390q0 -239 -176 -387.5t-462 -148.5zM705 203q172 0 272 86.5t100 234.5q0 149 -100 236.5t-272 87.5q-173 0 -274 -87.5t-101 -236.5q0 -148 101 -234.5t274 -86.5zM618 1165
l78 322h271l-174 -322h-175z" />
    <glyph glyph-name="upsilontonos" unicode="&#x3cd;" horiz-adv-x="1337" 
d="M668 -12q-290 0 -429 135t-139 418v510h260v-482q0 -198 70 -280t238 -82q169 0 239 82t70 280v482h260v-510q0 -281 -139.5 -417t-429.5 -136zM582 1165l77 322h271l-174 -322h-174z" />
    <glyph glyph-name="omegatonos" unicode="&#x3ce;" horiz-adv-x="1873" 
d="M545 -12q-219 0 -345 134t-126 361q0 158 73 317t187 251h268q-144 -150 -203 -277.5t-59 -273.5q0 -138 60.5 -217.5t172.5 -79.5q111 0 176.5 81t65.5 222v205h244v-205q0 -145 63 -224t176 -79q111 0 173.5 81.5t62.5 215.5q0 147 -59 275t-203 276h268
q116 -95 188 -252.5t72 -315.5q0 -227 -126 -361t-345 -134q-153 0 -257.5 69t-137.5 199q-38 -131 -140 -199.5t-249 -68.5zM850 1165l78 322h270l-174 -322h-174z" />
    <glyph glyph-name="uni0400" unicode="&#x400;" 
d="M121 0v1434h1118v-242h-842v-352h695v-232h-695v-366h873v-242h-1149zM571 1544l-305 291h324l188 -291h-207z" />
    <glyph glyph-name="uni0401" unicode="&#x401;" 
d="M121 0v1434h1118v-242h-842v-352h695v-232h-695v-366h873v-242h-1149zM915 1569q-63 0 -104 39.5t-41 99.5q0 61 41 101t104 40q65 0 106.5 -40t41.5 -101q0 -60 -42 -99.5t-106 -39.5zM444 1569q-64 0 -105.5 39.5t-41.5 99.5q0 62 41.5 101.5t105.5 39.5
q63 0 104.5 -40t41.5 -101q0 -60 -41.5 -99.5t-104.5 -39.5z" />
    <glyph glyph-name="uni0402" unicode="&#x402;" horiz-adv-x="1898" 
d="M543 0v1192h-492v242h1342v-242h-574v-346q204 57 412 57q290 0 440 -129.5t150 -382.5v-151q0 -256 -141.5 -386t-417.5 -130h-121v237h86q163 0 240 72t77 225v94q0 161 -86.5 238.5t-263.5 77.5q-178 0 -375 -56v-612h-276z" />
    <glyph glyph-name="uni0403" unicode="&#x403;" horiz-adv-x="1263" 
d="M121 0v1434h1091v-242h-815v-1192h-276zM569 1548l189 287h321l-307 -287h-203z" />
    <glyph glyph-name="uni0404" unicode="&#x404;" horiz-adv-x="1675" 
d="M866 -12q-241 0 -422.5 90t-279.5 255.5t-98 383.5q0 216 101 381.5t287.5 256.5t430.5 91q295 0 494 -137t239 -367h-281q-43 128 -161 199t-297 71q-211 0 -348.5 -100t-172.5 -276h689v-228h-693q32 -181 168 -284t350 -103q183 0 303 71.5t160 199.5h281
q-40 -230 -244 -367t-506 -137z" />
    <glyph glyph-name="uni0405" unicode="&#x405;" horiz-adv-x="1456" 
d="M748 -12q-315 0 -498 127.5t-189 353.5h275q10 -121 119.5 -188.5t294.5 -67.5q178 0 269 50t91 143q0 89 -78.5 125t-308.5 65q-340 41 -480.5 135.5t-140.5 284.5q0 198 165 314t448 116q293 0 464 -118t181 -329h-275q-15 106 -111.5 164t-262.5 58q-332 0 -332 -185
q0 -88 80 -124.5t309 -63.5q334 -37 477.5 -133t143.5 -285q0 -202 -174 -322t-467 -120z" />
    <glyph glyph-name="uni0406" unicode="&#x406;" horiz-adv-x="516" 
d="M121 0v1434h276v-1434h-276z" />
    <glyph glyph-name="uni0407" unicode="&#x407;" horiz-adv-x="516" 
d="M121 0v1434h276v-1434h-276zM494 1569q-64 0 -106 39.5t-42 99.5q0 61 41.5 101t106.5 40q63 0 105 -40t42 -101q0 -60 -42 -99.5t-105 -39.5zM20 1569q-63 0 -105 39.5t-42 99.5q0 61 42 101t105 40t105.5 -40t42.5 -101q0 -60 -42.5 -99.5t-105.5 -39.5z" />
    <glyph glyph-name="uni0408" unicode="&#x408;" horiz-adv-x="866" 
d="M51 0v242h217q107 0 155 49.5t48 159.5v983h277v-1002q0 -432 -435 -432h-262z" />
    <glyph glyph-name="uni0409" unicode="&#x409;" horiz-adv-x="2543" 
d="M16 0v242h43q96 0 151 41t83.5 147.5t28.5 296.5v707h1196v-543h426q263 0 401.5 -114.5t138.5 -332.5q0 -216 -139.5 -330t-398.5 -114h-705v1192h-659v-490q0 -258 -52.5 -412.5t-158 -222t-279.5 -67.5h-76zM1518 236h409q135 0 205 52.5t70 155.5t-70.5 157
t-204.5 54h-409v-419z" />
    <glyph glyph-name="uni040A" unicode="&#x40a;" horiz-adv-x="2492" 
d="M121 0v1434h276v-549h793v549h276v-543h426q264 0 402.5 -114.5t138.5 -334.5q0 -215 -139.5 -328.5t-399.5 -113.5h-704v645h-793v-645h-276zM1466 236h410q135 0 204.5 52.5t69.5 153.5q0 103 -70.5 158t-203.5 55h-410v-419z" />
    <glyph glyph-name="uni040B" unicode="&#x40b;" horiz-adv-x="1912" 
d="M543 0v1192h-492v242h1342v-242h-574v-346q204 57 416 57q296 0 448 -129.5t152 -382.5v-391h-276v352q0 161 -88.5 238.5t-272.5 77.5q-182 0 -379 -56v-612h-276z" />
    <glyph glyph-name="uni040C" unicode="&#x40c;" horiz-adv-x="1579" 
d="M121 0v1434h276v-586h293l500 586h336l-596 -689l635 -745h-359l-510 606h-299v-606h-276zM666 1548l188 287h322l-308 -287h-202z" />
    <glyph glyph-name="uni040D" unicode="&#x40d;" horiz-adv-x="1617" 
d="M121 0v1434h270v-1020l854 1020h252v-1434h-270v1020l-854 -1020h-252zM700 1544l-305 291h324l188 -291h-207z" />
    <glyph glyph-name="uni040E" unicode="&#x40e;" horiz-adv-x="1521" 
d="M215 0v242h145q117 0 171.5 23t93.5 93l43 74l-662 1002h320l483 -752l410 752h299l-646 -1149q-91 -160 -193 -222.5t-273 -62.5h-191zM762 1540q-188 0 -279.5 78t-93.5 217h195q0 -145 182 -145q184 0 184 145h199q-3 -141 -100 -218t-287 -77z" />
    <glyph glyph-name="uni040F" unicode="&#x40f;" horiz-adv-x="1579" 
d="M121 0v1434h276v-1192h787v1192h276v-1434h-532v-293h-277v293h-530z" />
    <glyph glyph-name="uni0410" unicode="&#x410;" horiz-adv-x="1646" 
d="M16 0l643 1434h330l641 -1434h-305l-145 330h-725l-144 -330h-295zM551 559h532l-268 612z" />
    <glyph glyph-name="uni0411" unicode="&#x411;" horiz-adv-x="1425" 
d="M121 0v1434h1100v-234h-824v-330h453q258 0 393 -111t135 -325q0 -209 -136 -321.5t-390 -112.5h-731zM397 231h432q132 0 200.5 51.5t68.5 151.5t-69 152.5t-200 52.5h-432v-408z" />
    <glyph glyph-name="uni0412" unicode="&#x412;" horiz-adv-x="1474" 
d="M121 0v1434h682q260 0 399 -98t139 -281q0 -247 -258 -314q324 -49 324 -331q0 -200 -154 -305t-448 -105h-684zM397 223h437q149 0 220.5 48.5t71.5 148.5q0 196 -292 196h-437v-393zM397 836h426q117 0 179.5 48.5t62.5 139.5t-62.5 139.5t-179.5 48.5h-426v-376z" />
    <glyph glyph-name="uni0413" unicode="&#x413;" horiz-adv-x="1263" 
d="M121 0v1434h1091v-242h-815v-1192h-276z" />
    <glyph glyph-name="uni0414" unicode="&#x414;" horiz-adv-x="1751" 
d="M31 -293v535h133q49 39 78.5 99t47 180.5t17.5 309.5v603h1241v-1192h164v-535h-268v293h-1145v-293h-268zM1272 242v960h-705v-405q0 -218 -23.5 -345t-78.5 -210h807z" />
    <glyph glyph-name="uni0415" unicode="&#x415;" 
d="M121 0v1434h1118v-242h-842v-352h695v-232h-695v-366h873v-242h-1149z" />
    <glyph glyph-name="uni0416" unicode="&#x416;" horiz-adv-x="2342" 
d="M16 0l504 745l-469 689h318l389 -588h276v588h277v-588h276l389 588h316l-469 -689l506 -745h-328l-412 606h-278v-606h-277v606h-280l-410 -606h-328z" />
    <glyph glyph-name="uni0417" unicode="&#x417;" horiz-adv-x="1460" 
d="M721 -12q-314 0 -482.5 119.5t-179.5 345.5h275q18 -240 397 -240q181 0 275 52.5t94 154.5q0 194 -336 194h-246v224h227q151 0 235.5 52.5t84.5 149.5q0 181 -338 181q-354 0 -381 -226h-272q10 206 190 328.5t467 122.5q291 0 451.5 -101.5t160.5 -285.5
q0 -119 -71 -201t-199 -113q146 -25 227.5 -112.5t81.5 -220.5q0 -196 -178 -310t-483 -114z" />
    <glyph glyph-name="uni0418" unicode="&#x418;" horiz-adv-x="1617" 
d="M121 0v1434h270v-1020l854 1020h252v-1434h-270v1020l-854 -1020h-252z" />
    <glyph glyph-name="uni0419" unicode="&#x419;" horiz-adv-x="1617" 
d="M121 0v1434h270v-1020l854 1020h252v-1434h-270v1020l-854 -1020h-252zM803 1540q-188 0 -279.5 78t-93.5 217h195q0 -145 182 -145q184 0 184 145h199q-3 -141 -100 -218t-287 -77z" />
    <glyph glyph-name="uni041A" unicode="&#x41a;" horiz-adv-x="1579" 
d="M121 0v1434h276v-586h293l500 586h336l-596 -689l635 -745h-359l-510 606h-299v-606h-276z" />
    <glyph glyph-name="uni041B" unicode="&#x41b;" horiz-adv-x="1673" 
d="M16 0v242h43q70 0 116.5 20.5t81 74t50 149t15.5 241.5v707h1232v-1434h-276v1192h-696v-490q0 -260 -53.5 -414.5t-159 -221t-277.5 -66.5h-76z" />
    <glyph glyph-name="uni041C" unicode="&#x41c;" horiz-adv-x="2048" 
d="M121 0v1434h350l559 -1100l551 1100h348v-1434h-272v1012l-518 -1012h-230l-516 1012v-1012h-272z" />
    <glyph glyph-name="uni041D" unicode="&#x41d;" horiz-adv-x="1599" 
d="M121 0v1434h276v-588h805v588h277v-1434h-277v606h-805v-606h-276z" />
    <glyph glyph-name="uni041E" unicode="&#x41e;" horiz-adv-x="1796" 
d="M897 -12q-243 0 -432.5 92t-294 258t-104.5 379t104.5 379t294 258t432.5 92q244 0 434 -91.5t295 -257.5t105 -380t-105 -380t-295 -257.5t-434 -91.5zM897 225q252 0 401.5 134t149.5 358t-149.5 357.5t-401.5 133.5q-251 0 -400 -133.5t-149 -357.5t149.5 -358
t399.5 -134z" />
    <glyph glyph-name="uni041F" unicode="&#x41f;" horiz-adv-x="1587" 
d="M121 0v1434h1347v-1434h-276v1192h-795v-1192h-276z" />
    <glyph glyph-name="uni0420" unicode="&#x420;" horiz-adv-x="1435" 
d="M121 0v1434h721q252 0 398 -125.5t146 -341.5q0 -217 -146 -343t-398 -126h-445v-498h-276zM397 731h437q126 0 199 63.5t73 172.5q0 107 -73 169t-199 62h-437v-467z" />
    <glyph glyph-name="uni0421" unicode="&#x421;" horiz-adv-x="1673" 
d="M866 -12q-241 0 -422.5 90t-279.5 255.5t-98 383.5q0 216 101 381.5t287.5 256.5t430.5 91q296 0 493.5 -138.5t237.5 -375.5h-283q-41 134 -158.5 205t-295.5 71q-244 0 -387.5 -132.5t-143.5 -358.5q0 -227 140.5 -359.5t383.5 -132.5q182 0 301 71.5t160 205.5h281
q-40 -237 -242.5 -375.5t-505.5 -138.5z" />
    <glyph glyph-name="uni0422" unicode="&#x422;" horiz-adv-x="1443" 
d="M584 0v1192h-533v242h1342v-242h-533v-1192h-276z" />
    <glyph glyph-name="uni0423" unicode="&#x423;" horiz-adv-x="1521" 
d="M215 0v242h145q117 0 171.5 23t93.5 93l43 74l-662 1002h320l483 -752l410 752h299l-646 -1149q-91 -160 -193 -222.5t-273 -62.5h-191z" />
    <glyph glyph-name="uni0424" unicode="&#x424;" horiz-adv-x="2113" 
d="M924 -20v126h-33q-381 0 -603 164t-222 447q0 282 222 446t603 164h33v127h266v-127h33q381 0 603 -164t222 -446q0 -283 -222 -447t-603 -164h-33v-126h-266zM891 330h33v774h-33q-258 0 -404.5 -103t-146.5 -284t146.5 -284t404.5 -103zM1190 330h33q258 0 404.5 103
t146.5 284t-146.5 284t-404.5 103h-33v-774z" />
    <glyph glyph-name="uni0425" unicode="&#x425;" horiz-adv-x="1527" 
d="M16 0l574 735l-543 699h344l379 -492l381 492h330l-543 -695l573 -739h-344l-411 530l-410 -530h-330z" />
    <glyph glyph-name="uni0426" unicode="&#x426;" horiz-adv-x="1660" 
d="M121 0v1434h276v-1192h787v1192h276v-1192h162v-535h-268v293h-1233z" />
    <glyph glyph-name="uni0427" unicode="&#x427;" horiz-adv-x="1507" 
d="M698 496q-305 0 -462.5 129.5t-157.5 382.5v426h276v-390q0 -315 381 -315q186 0 375 57v648h276v-1434h-276v551q-193 -55 -412 -55z" />
    <glyph glyph-name="uni0428" unicode="&#x428;" horiz-adv-x="2291" 
d="M121 0v1434h276v-1192h611v1192h276v-1192h612v1192h277v-1434h-2052z" />
    <glyph glyph-name="uni0429" unicode="&#x429;" horiz-adv-x="2373" 
d="M121 0v1434h276v-1192h611v1192h276v-1192h612v1192h277v-1192h162v-535h-269v293h-1945z" />
    <glyph glyph-name="uni042A" unicode="&#x42a;" horiz-adv-x="1861" 
d="M526 0v1192h-475v242h752v-500h457q251 0 396.5 -125t145.5 -342t-145.5 -342t-396.5 -125h-734zM803 236h444q132 0 202.5 59.5t70.5 171.5t-71.5 171.5t-203.5 59.5h-442v-462z" />
    <glyph glyph-name="uni042B" unicode="&#x42b;" horiz-adv-x="1937" 
d="M1540 0v1434h277v-1434h-277zM121 0v1434h276v-496h437q251 0 396.5 -125.5t145.5 -343.5t-145.5 -343.5t-396.5 -125.5h-713zM397 236h422q134 0 204.5 59.5t70.5 173.5t-71.5 173.5t-205.5 59.5h-420v-466z" />
    <glyph glyph-name="uni042C" unicode="&#x42c;" horiz-adv-x="1454" 
d="M121 0v1434h276v-496h455q251 0 397 -125.5t146 -343.5t-146 -343.5t-397 -125.5h-731zM397 236h441q134 0 204 59.5t70 173.5t-71 173.5t-205 59.5h-439v-466z" />
    <glyph glyph-name="uni042D" unicode="&#x42d;" horiz-adv-x="1675" 
d="M631 608v228h688q-36 176 -173 276t-349 100q-179 0 -297 -71t-160 -199h-281q40 230 239.5 367t494.5 137q371 0 595 -200.5t224 -528.5q0 -218 -101 -383.5t-285.5 -255.5t-426.5 -90q-300 0 -500 136.5t-240 367.5h281q42 -128 161 -199.5t302 -71.5q214 0 350 103
t168 284h-690z" />
    <glyph glyph-name="uni042E" unicode="&#x42e;" horiz-adv-x="2383" 
d="M1497 -12q-217 0 -392 77t-284.5 217t-136.5 324h-287v-606h-276v1434h276v-588h291q46 271 266 435.5t543 164.5q239 0 426.5 -91.5t292 -258t104.5 -379.5t-104.5 -379.5t-292 -258t-426.5 -91.5zM1497 225q245 0 393 134t148 358t-148 357.5t-393 133.5t-392 -133.5
t-147 -357.5t147 -358t392 -134z" />
    <glyph glyph-name="uni042F" unicode="&#x42f;" horiz-adv-x="1497" 
d="M55 0l391 537q-177 46 -268.5 155t-91.5 275q0 215 147.5 341t399.5 126h745v-1434h-276v502h-350l-361 -502h-336zM641 735h461v463h-463q-126 0 -198 -61.5t-72 -167.5q0 -108 73 -171t199 -63z" />
    <glyph glyph-name="uni0430" unicode="&#x430;" horiz-adv-x="1331" 
d="M516 -12q-215 0 -334 83.5t-119 235.5q0 164 128.5 248t383.5 84h349v37q0 190 -285 190q-246 0 -283 -137h-258q19 158 165.5 246t391.5 88q261 0 394 -102t133 -302v-354q0 -43 20.5 -63.5t65.5 -20.5h47v-221h-137q-102 0 -162 42.5t-60 123.5v4q-133 -182 -440 -182z
M561 180q161 0 262 70t101 182v29h-359q-124 0 -181.5 -34t-57.5 -105q0 -142 235 -142z" />
    <glyph glyph-name="uni0431" unicode="&#x431;" horiz-adv-x="1398" 
d="M696 -12q-313 0 -467.5 155t-154.5 471q0 204 35 341t119 231t215 143t331 70l455 47v-229l-400 -39q-276 -28 -382.5 -101t-139.5 -264q141 156 459 156q262 0 415.5 -129.5t153.5 -350.5q0 -229 -173.5 -365t-465.5 -136zM702 190q169 0 269 78.5t100 210.5
q0 129 -99.5 208t-264.5 79q-167 0 -268 -75.5t-101 -201.5q0 -139 97.5 -219t266.5 -80z" />
    <glyph glyph-name="uni0432" unicode="&#x432;" horiz-adv-x="1280" 
d="M111 0v1051h630q214 0 325.5 -71t111.5 -206q0 -89 -48.5 -149t-136.5 -82q109 -17 167.5 -79.5t58.5 -162.5q0 -301 -474 -301h-634zM365 184h399q190 0 190 129q0 63 -49 96t-141 33h-399v-258zM365 618h378q172 0 172 125q0 123 -170 123h-380v-248z" />
    <glyph glyph-name="uni0433" unicode="&#x433;" horiz-adv-x="995" 
d="M111 0v1051h862v-224h-602v-827h-260z" />
    <glyph glyph-name="uni0434" unicode="&#x434;" horiz-adv-x="1433" 
d="M14 -276v499h136q39 29 61.5 69.5t35.5 124.5t13 218v416h1004v-828h149v-499h-252v276h-895v-276h-252zM1004 223v615h-500v-242q0 -255 -70 -373h570z" />
    <glyph glyph-name="uni0435" unicode="&#x435;" horiz-adv-x="1355" 
d="M707 -12q-292 0 -468 145.5t-176 388.5q0 242 171 391.5t448 149.5q274 0 442 -140.5t168 -369.5q0 -61 -2 -86h-954v-12q0 -123 94.5 -194t261.5 -71q133 0 217.5 41t112.5 119h258q-34 -163 -192 -262.5t-381 -99.5zM342 645h688q-14 106 -102.5 162.5t-241.5 56.5
q-145 0 -236 -58t-108 -161z" />
    <glyph glyph-name="uni0436" unicode="&#x436;" horiz-adv-x="1849" 
d="M-4 0l389 551l-356 500h286l287 -410h195v410h256v-410h194l287 410h287l-357 -500l389 -551h-307l-295 422h-198v-422h-256v422h-199l-295 -422h-307z" />
    <glyph glyph-name="uni0437" unicode="&#x437;" horiz-adv-x="1249" 
d="M610 -12q-277 0 -408.5 89.5t-142.5 270.5h258q19 -89 86.5 -129.5t208.5 -40.5q151 0 231.5 36t80.5 101q0 62 -53.5 91.5t-170.5 29.5h-223v189h207q219 0 219 127q0 120 -270 120q-272 0 -307 -157h-258q12 161 163.5 254.5t407.5 93.5q254 0 391 -78.5t137 -216.5
q0 -89 -62 -146.5t-171 -78.5q254 -39 254 -238q0 -148 -154 -232.5t-424 -84.5z" />
    <glyph glyph-name="uni0438" unicode="&#x438;" horiz-adv-x="1392" 
d="M111 0v1051h251v-717l693 717h227v-1051h-252v717l-694 -717h-225z" />
    <glyph glyph-name="uni0439" unicode="&#x439;" horiz-adv-x="1392" 
d="M111 0v1051h251v-717l693 717h227v-1051h-252v717l-694 -717h-225zM690 1157q-188 0 -279.5 78t-93.5 217h195q0 -145 182 -145q185 0 185 145h198q-3 -141 -100 -218t-287 -77z" />
    <glyph glyph-name="uni043A" unicode="&#x43a;" horiz-adv-x="1296" 
d="M111 0v1051h260v-408h227l358 408h308l-435 -500l471 -551h-329l-363 420h-237v-420h-260z" />
    <glyph glyph-name="uni043B" unicode="&#x43b;" horiz-adv-x="1339" 
d="M6 0v223h43q103 0 143.5 71t40.5 251v506h998v-1051h-260v827h-496v-288q0 -288 -91 -413.5t-298 -125.5h-80z" />
    <glyph glyph-name="uni043C" unicode="&#x43c;" horiz-adv-x="1710" 
d="M111 0v1051h307l446 -764l434 764h301v-1051h-243v682l-400 -682h-200l-402 682v-682h-243z" />
    <glyph glyph-name="uni043D" unicode="&#x43d;" horiz-adv-x="1374" 
d="M1004 0v420h-633v-420h-260v1051h260v-408h633v408h260v-1051h-260z" />
    <glyph glyph-name="uni043E" unicode="&#x43e;" horiz-adv-x="1406" 
d="M705 -12q-287 0 -464.5 148.5t-177.5 387.5q0 241 177.5 390t464.5 149q286 0 462 -149t176 -390q0 -239 -176 -387.5t-462 -148.5zM705 203q172 0 272 86.5t100 234.5q0 149 -100 236.5t-272 87.5q-173 0 -274 -87.5t-101 -236.5q0 -148 101 -234.5t274 -86.5z" />
    <glyph glyph-name="uni043F" unicode="&#x43f;" horiz-adv-x="1349" 
d="M111 0v1051h1128v-1051h-260v827h-608v-827h-260z" />
    <glyph glyph-name="uni0440" unicode="&#x440;" horiz-adv-x="1437" 
d="M111 -410v1461h237l23 -140q143 152 411 152q263 0 427.5 -151t164.5 -388q0 -239 -164 -387.5t-428 -148.5q-129 0 -235.5 40t-175.5 115v-553h-260zM735 203q174 0 274.5 86t100.5 235q0 150 -100.5 237t-274.5 87q-170 0 -269 -86.5t-99 -237.5q0 -149 99 -235
t269 -86z" />
    <glyph glyph-name="uni0441" unicode="&#x441;" horiz-adv-x="1325" 
d="M688 -12q-281 0 -453 147.5t-172 388.5q0 244 173 391.5t458 147.5q237 0 389 -104.5t187 -292.5h-271q-23 88 -103.5 135t-205.5 47q-166 0 -263 -87t-97 -237q0 -149 96.5 -235t263.5 -86q126 0 206 48.5t103 137.5h271q-34 -188 -189 -294.5t-393 -106.5z" />
    <glyph glyph-name="uni0442" unicode="&#x442;" horiz-adv-x="1165" 
d="M453 0v827h-430v224h1120v-224h-430v-827h-260z" />
    <glyph glyph-name="uni0443" unicode="&#x443;" horiz-adv-x="1269" 
d="M92 -410v224h178q72 0 105.5 21t73.5 93l38 74l-481 1049h281l346 -791l352 791h279l-559 -1198q-51 -110 -98.5 -165t-109 -76.5t-165.5 -21.5h-240z" />
    <glyph glyph-name="uni0444" unicode="&#x444;" horiz-adv-x="1802" 
d="M774 -410v410h-22q-313 0 -501 143t-188 381q0 239 188 383t501 144h22v350h256v-350h23q312 0 499 -144t187 -383q0 -238 -187 -381t-499 -143h-23v-410h-256zM752 211h24v629h-24q-197 0 -311.5 -85t-114.5 -231q0 -145 114.5 -229t311.5 -84zM1028 211h25
q195 0 309.5 84t114.5 229q0 146 -114.5 231t-309.5 85h-25v-629z" />
    <glyph glyph-name="uni0445" unicode="&#x445;" horiz-adv-x="1251" 
d="M-4 0l467 539l-440 512h317l293 -344l295 344h301l-438 -508l464 -543h-315l-322 375l-321 -375h-301z" />
    <glyph glyph-name="uni0446" unicode="&#x446;" horiz-adv-x="1398" 
d="M111 0v1051h260v-828h587v828h261v-828h157v-499h-252v276h-1013z" />
    <glyph glyph-name="uni0447" unicode="&#x447;" horiz-adv-x="1277" 
d="M596 322q-265 0 -390.5 100.5t-125.5 312.5v316h260v-299q0 -107 69 -158t226 -51q141 0 274 55v453h260v-1051h-260v373q-145 -51 -313 -51z" />
    <glyph glyph-name="uni0448" unicode="&#x448;" horiz-adv-x="1898" 
d="M111 0v1051h260v-828h448v828h260v-828h449v828h260v-1051h-1677z" />
    <glyph glyph-name="uni0449" unicode="&#x449;" horiz-adv-x="1968" 
d="M111 0v1051h260v-828h448v828h260v-828h449v828h260v-828h160v-499h-252v276h-1585z" />
    <glyph glyph-name="uni044A" unicode="&#x44a;" horiz-adv-x="1515" 
d="M387 0v827h-364v224h624v-316h361q217 0 335.5 -95.5t118.5 -272.5q0 -176 -119 -271.5t-335 -95.5h-621zM647 199h322q117 0 173 41.5t56 126.5q0 86 -56 128t-173 42h-322v-338z" />
    <glyph glyph-name="uni044B" unicode="&#x44b;" horiz-adv-x="1687" 
d="M111 0v1051h260v-316h338q219 0 337.5 -95.5t118.5 -272.5q0 -176 -119 -271.5t-337 -95.5h-598zM371 199h299q231 0 231 168q0 86 -56.5 128t-174.5 42h-299v-338zM1319 0v1051h260v-1051h-260z" />
    <glyph glyph-name="uni044C" unicode="&#x44c;" horiz-adv-x="1239" 
d="M111 0v1051h260v-316h358q219 0 338 -95.5t119 -272.5q0 -176 -119.5 -271.5t-337.5 -95.5h-618zM371 199h319q232 0 232 168q0 86 -57 128t-175 42h-319v-338z" />
    <glyph glyph-name="uni044D" unicode="&#x44d;" horiz-adv-x="1333" 
d="M641 -12q-242 0 -395 103t-191 292h267q54 -184 317 -184q144 0 236 60.5t120 170.5h-481v188h481q-28 111 -120 172.5t-236 61.5q-130 0 -211 -47.5t-106 -134.5h-267q39 186 187.5 289.5t392.5 103.5q291 0 463 -147t172 -392t-170 -390.5t-459 -145.5z" />
    <glyph glyph-name="uni044E" unicode="&#x44e;" horiz-adv-x="1941" 
d="M1247 -12q-248 0 -416 116t-206 312h-254v-416h-260v1051h260v-412h256q40 193 207 308.5t413 115.5q280 0 455.5 -149t175.5 -390q0 -239 -175.5 -387.5t-455.5 -148.5zM1247 203q167 0 267 87t100 234q0 149 -100 236.5t-267 87.5q-168 0 -268 -87.5t-100 -236.5
q0 -147 100 -234t268 -87z" />
    <glyph glyph-name="uni044F" unicode="&#x44f;" horiz-adv-x="1271" 
d="M901 0v334h-307l-248 -334h-315l295 371q-122 29 -189 112.5t-67 206.5q0 167 125.5 264t343.5 97h622v-1051h-260zM541 535h360v315h-360q-98 0 -153.5 -41.5t-55.5 -114.5q0 -76 54.5 -117.5t154.5 -41.5z" />
    <glyph glyph-name="uni0450" unicode="&#x450;" horiz-adv-x="1355" 
d="M707 -12q-292 0 -468 145.5t-176 388.5q0 242 171 391.5t448 149.5q274 0 442 -140.5t168 -369.5q0 -61 -2 -86h-954v-12q0 -123 94.5 -194t261.5 -71q133 0 217.5 41t112.5 119h258q-34 -163 -192 -262.5t-381 -99.5zM342 645h688q-14 106 -102.5 162.5t-241.5 56.5
q-145 0 -236 -58t-108 -161zM569 1161l-305 291h324l188 -291h-207z" />
    <glyph glyph-name="uni0451" unicode="&#x451;" horiz-adv-x="1355" 
d="M707 -12q-292 0 -468 145.5t-176 388.5q0 242 171 391.5t448 149.5q274 0 442 -140.5t168 -369.5q0 -61 -2 -86h-954v-12q0 -123 94.5 -194t261.5 -71q133 0 217.5 41t112.5 119h258q-34 -163 -192 -262.5t-381 -99.5zM342 645h688q-14 106 -102.5 162.5t-241.5 56.5
q-145 0 -236 -58t-108 -161zM913 1186q-63 0 -105 39.5t-42 99.5q0 61 42 101t105 40q65 0 106.5 -40t41.5 -101q0 -60 -42 -99.5t-106 -39.5zM442 1186q-64 0 -105.5 39.5t-41.5 99.5q0 62 41.5 101.5t105.5 39.5q63 0 104.5 -40t41.5 -101q0 -60 -41.5 -99.5t-104.5 -39.5
z" />
    <glyph glyph-name="uni0452" unicode="&#x452;" horiz-adv-x="1390" 
d="M770 -410v224h123q73 0 105 32t32 105v590q0 305 -303 305q-166 0 -254 -78.5t-88 -226.5v-541h-260v1149h-164v174h164v111h260v-111h432v-174h-432v-240q135 154 401 154q238 0 371 -123t133 -377v-616q0 -194 -83.5 -275.5t-282.5 -81.5h-154z" />
    <glyph glyph-name="uni0453" unicode="&#x453;" horiz-adv-x="995" 
d="M111 0v1051h862v-224h-602v-827h-260zM393 1165l189 287h321l-307 -287h-203z" />
    <glyph glyph-name="uni0454" unicode="&#x454;" horiz-adv-x="1333" 
d="M692 -12q-289 0 -459 145.5t-170 390.5t172 392t463 147q244 0 392.5 -103.5t187.5 -289.5h-266q-25 87 -106.5 134.5t-213.5 47.5q-143 0 -234.5 -61.5t-119.5 -172.5h481v-188h-481q28 -109 120 -170t234 -61q266 0 320 184h266q-38 -189 -191 -292t-395 -103z" />
    <glyph glyph-name="uni0455" unicode="&#x455;" horiz-adv-x="1222" 
d="M631 -12q-264 0 -415.5 93.5t-158.5 262.5h250q15 -164 326 -164q282 0 282 129q0 58 -60.5 80t-240.5 33q-291 17 -411.5 86t-120.5 219q0 155 138 245.5t376 90.5q248 0 392.5 -86.5t156.5 -243.5h-250q-24 137 -295 137q-266 0 -266 -120q0 -58 60.5 -81.5
t236.5 -35.5q300 -22 418 -89t118 -216q0 -155 -145.5 -247.5t-390.5 -92.5z" />
    <glyph glyph-name="uni0456" unicode="&#x456;" horiz-adv-x="479" 
d="M111 0v1051h260v-1051h-260zM240 1188q-66 0 -109 40.5t-43 102.5t43 103t109 41q64 0 107.5 -41t43.5 -103q0 -61 -43 -102t-108 -41z" />
    <glyph glyph-name="uni0457" unicode="&#x457;" horiz-adv-x="479" 
d="M111 0v1051h260v-1051h-260zM401 1198q-58 0 -94.5 38t-36.5 97t36.5 98t94.5 39t94.5 -39t36.5 -98t-36.5 -97t-94.5 -38zM76 1198q-58 0 -94.5 38t-36.5 97t36.5 98t94.5 39t94.5 -39t36.5 -98t-36.5 -97t-94.5 -38z" />
    <glyph glyph-name="uni0458" unicode="&#x458;" horiz-adv-x="495" 
d="M-135 -410v224h121q75 0 107 31.5t32 105.5v1100h260v-1104q0 -194 -84 -275.5t-283 -81.5h-153zM256 1188q-66 0 -109 40.5t-43 102.5t43 103t109 41q65 0 108.5 -41.5t43.5 -102.5t-43.5 -102t-108.5 -41z" />
    <glyph glyph-name="uni0459" unicode="&#x459;" horiz-adv-x="2031" 
d="M6 0v223h43q104 0 144 70t40 256v502h977v-355h351q198 0 307.5 -92t109.5 -258q0 -163 -110.5 -254.5t-306.5 -91.5h-611v827h-475v-288q0 -292 -88 -415.5t-297 -123.5h-84zM1210 199h318q91 0 138.5 38.5t47.5 110.5t-48 111t-138 39h-318v-299z" />
    <glyph glyph-name="uni045A" unicode="&#x45a;" horiz-adv-x="2054" 
d="M975 0v453h-604v-453h-260v1051h260v-375h604v375h260v-365h338q204 0 316 -90t112 -254q0 -163 -112.5 -252.5t-315.5 -89.5h-598zM1235 199h305q197 0 197 143q0 145 -197 145h-305v-288z" />
    <glyph glyph-name="uni045B" unicode="&#x45b;" horiz-adv-x="1390" 
d="M-39 1149v174h164v111h260v-111h432v-174h-432v-240q135 154 401 154q238 0 371 -123t133 -377v-563h-260v541q0 305 -303 305q-166 0 -254 -78.5t-88 -226.5v-541h-260v1149h-164z" />
    <glyph glyph-name="uni045C" unicode="&#x45c;" horiz-adv-x="1296" 
d="M111 0v1051h260v-408h227l358 408h308l-435 -500l471 -551h-329l-363 420h-237v-420h-260zM528 1165l189 287h321l-307 -287h-203z" />
    <glyph glyph-name="uni045D" unicode="&#x45d;" horiz-adv-x="1392" 
d="M111 0v1051h251v-717l693 717h227v-1051h-252v717l-694 -717h-225zM588 1161l-305 291h323l189 -291h-207z" />
    <glyph glyph-name="uni045E" unicode="&#x45e;" horiz-adv-x="1269" 
d="M92 -410v224h178q72 0 105.5 21t73.5 93l38 74l-481 1049h281l346 -791l352 791h279l-559 -1198q-51 -110 -98.5 -165t-109 -76.5t-165.5 -21.5h-240zM627 1157q-190 0 -281.5 78t-93.5 217h194q0 -145 183 -145q184 0 184 145h199q-3 -141 -99 -218t-286 -77z" />
    <glyph glyph-name="uni045F" unicode="&#x45f;" horiz-adv-x="1327" 
d="M111 0v1051h260v-828h587v828h261v-1051h-424v-276h-260v276h-424z" />
    <glyph glyph-name="uni0462" unicode="&#x462;" horiz-adv-x="1550" 
d="M51 1100v223h166v111h277v-111h454v-223h-454v-168h454q251 0 397 -125.5t146 -341.5q0 -215 -146 -340t-397 -125h-731v1100h-166zM494 236h440q133 0 203.5 59t70.5 170q0 112 -71 171.5t-205 59.5h-438v-460z" />
    <glyph glyph-name="uni0463" unicode="&#x463;" horiz-adv-x="1253" 
d="M125 0v858h-164v193h164v383h260v-383h432v-193h-432v-135h360q216 0 335.5 -95.5t119.5 -267.5q0 -171 -119.5 -265.5t-335.5 -94.5h-620zM385 197h322q229 0 229 163q0 166 -229 166h-322v-329z" />
    <glyph glyph-name="uni0472" unicode="&#x472;" horiz-adv-x="1796" 
d="M897 -12q-243 0 -432.5 92t-294 258t-104.5 379t104.5 379t294 258t432.5 92q244 0 434 -91.5t295 -257.5t105 -380t-105 -380t-295 -257.5t-434 -91.5zM897 225q224 0 368.5 103.5t178.5 285.5q-138 -55 -273 -55q-100 0 -288 44t-256 44q-164 0 -269 -59
q40 -170 182.5 -266.5t356.5 -96.5zM352 819q141 58 275 58q100 0 199 -22.5t186 -44.5t159 -22q160 0 267 60q-42 169 -184 264.5t-357 95.5q-222 0 -366.5 -103.5t-178.5 -285.5z" />
    <glyph glyph-name="uni0473" unicode="&#x473;" horiz-adv-x="1406" 
d="M705 -12q-287 0 -464.5 148.5t-177.5 387.5q0 241 177.5 390t464.5 149q286 0 462 -149t176 -390q0 -239 -176 -387.5t-462 -148.5zM317 604q103 39 199 39q58 0 188 -30.5t185 -30.5q123 0 198 34q-29 116 -128.5 181t-253.5 65q-161 0 -262 -67.5t-126 -190.5zM705 188
q158 0 259 68.5t126 189.5q-100 -38 -201 -38q-67 0 -196.5 30.5t-176.5 30.5q-124 0 -197 -33q28 -118 128.5 -183t257.5 -65z" />
    <glyph glyph-name="uni0474" unicode="&#x474;" horiz-adv-x="1636" 
d="M616 0l-610 1434h295l477 -1131l230 639q56 155 101 245.5t103 148.5t124 78t167 20h82v-242h-47q-66 0 -108 -27.5t-80 -95.5t-90 -207l-322 -862h-322z" />
    <glyph glyph-name="uni0475" unicode="&#x475;" horiz-adv-x="1290" 
d="M473 0l-467 1051h281l350 -805l156 461q68 200 151 272t248 72h68v-224h-43q-83 0 -123 -42.5t-90 -182.5l-211 -602h-320z" />
    <glyph glyph-name="uni0490" unicode="&#x490;" horiz-adv-x="1263" 
d="M121 0v1434h823v286h268v-528h-815v-1192h-276z" />
    <glyph glyph-name="uni0491" unicode="&#x491;" horiz-adv-x="995" 
d="M111 0v1051h608v278h252v-278h2v-224h-602v-827h-260z" />
    <glyph glyph-name="uni0492" unicode="&#x492;" horiz-adv-x="1370" 
d="M217 0v600h-166v213h166v621h1092v-242h-815v-379h512v-213h-512v-600h-277z" />
    <glyph glyph-name="uni0493" unicode="&#x493;" horiz-adv-x="1071" 
d="M186 0v385h-166v193h166v473h863v-224h-603v-249h379v-193h-379v-385h-260z" />
    <glyph glyph-name="uni0496" unicode="&#x496;" horiz-adv-x="2375" 
d="M16 0l504 745l-469 689h318l389 -588h276v588h277v-588h276l389 588h316l-469 -689l342 -503h188v-535h-268v293h-84l-412 606h-278v-606h-277v606h-280l-410 -606h-328z" />
    <glyph glyph-name="uni0497" unicode="&#x497;" horiz-adv-x="1908" 
d="M-4 0l389 551l-356 500h286l287 -410h195v410h256v-410h194l287 410h287l-357 -500l232 -328h190v-499h-252v276h-88l-295 422h-198v-422h-256v422h-199l-295 -422h-307z" />
    <glyph glyph-name="uni049A" unicode="&#x49a;" horiz-adv-x="1611" 
d="M121 0v1434h276v-586h293l500 586h336l-596 -689l430 -503h229v-535h-268v293h-115l-510 606h-299v-606h-276z" />
    <glyph glyph-name="uni049B" unicode="&#x49b;" horiz-adv-x="1343" 
d="M111 0v1051h260v-408h227l358 408h308l-435 -500l281 -328h211v-499h-252v276h-98l-363 420h-237v-420h-260z" />
    <glyph glyph-name="uni04A2" unicode="&#x4a2;" horiz-adv-x="1681" 
d="M121 0v1434h276v-588h805v588h277v-1192h163v-535h-268v293h-172v606h-805v-606h-276z" />
    <glyph glyph-name="uni04A3" unicode="&#x4a3;" horiz-adv-x="1443" 
d="M1004 0v420h-633v-420h-260v1051h260v-408h633v408h260v-828h159v-499h-252v276h-167z" />
    <glyph glyph-name="uni04AE" unicode="&#x4ae;" horiz-adv-x="1570" 
d="M647 0v530l-641 904h326l456 -648l465 648h314l-643 -904v-530h-277z" />
    <glyph glyph-name="uni04AF" unicode="&#x4af;" horiz-adv-x="1304" 
d="M524 0l-518 1051h287l364 -768l363 768h278l-514 -1051v-410h-260v410z" />
    <glyph glyph-name="uni04B0" unicode="&#x4b0;" horiz-adv-x="1570" 
d="M647 0v348h-352v197h342l-631 889h326l456 -648l465 648h314l-633 -889h342v-197h-352v-348h-277z" />
    <glyph glyph-name="uni04B1" unicode="&#x4b1;" horiz-adv-x="1304" 
d="M524 0l-518 1051h287l364 -768l363 768h278l-514 -1051h330v-193h-330v-217h-260v217h-334v193h334z" />
    <glyph glyph-name="uni04B2" unicode="&#x4b2;" horiz-adv-x="1558" 
d="M16 0l574 735l-543 699h344l379 -492l381 492h330l-543 -695l385 -497h213v-535h-268v293h-101l-411 530l-410 -530h-330z" />
    <glyph glyph-name="uni04B3" unicode="&#x4b3;" horiz-adv-x="1298" 
d="M-4 0l467 539l-440 512h317l293 -344l295 344h301l-438 -508l274 -320h211v-499h-252v276h-84l-322 375l-321 -375h-301z" />
    <glyph glyph-name="uni04B6" unicode="&#x4b6;" horiz-adv-x="1589" 
d="M698 496q-305 0 -462.5 129.5t-157.5 382.5v426h276v-390q0 -315 381 -315q186 0 375 57v648h276v-1192h164v-535h-268v293h-172v551q-193 -55 -412 -55z" />
    <glyph glyph-name="uni04B7" unicode="&#x4b7;" horiz-adv-x="1349" 
d="M596 322q-265 0 -390.5 100.5t-125.5 312.5v316h260v-299q0 -107 69 -158t226 -51q141 0 274 55v453h260v-828h158v-499h-252v276h-166v373q-145 -51 -313 -51z" />
    <glyph glyph-name="uni04BA" unicode="&#x4ba;" horiz-adv-x="1507" 
d="M807 938q307 0 465 -129.5t158 -382.5v-426h-277v389q0 316 -383 316q-180 0 -373 -58v-647h-276v1434h276v-551q193 55 410 55z" />
    <glyph glyph-name="uni04BB" unicode="&#x4bb;" horiz-adv-x="1374" 
d="M111 0v1434h260v-525q132 154 401 154q237 0 370.5 -123t133.5 -377v-563h-260v541q0 305 -305 305q-165 0 -252.5 -78.5t-87.5 -226.5v-541h-260z" />
    <glyph glyph-name="uni04C0" unicode="&#x4c0;" horiz-adv-x="516" 
d="M121 0v1434h276v-1434h-276z" />
    <glyph glyph-name="uni04CF" unicode="&#x4cf;" horiz-adv-x="479" 
d="M111 0v1434h260v-1434h-260z" />
    <glyph glyph-name="uni04D8" unicode="&#x4d8;" horiz-adv-x="1697" 
d="M821 -12q-363 0 -567.5 217.5t-187.5 587.5h1282q-23 195 -164.5 307t-364.5 112q-177 0 -296.5 -70.5t-162.5 -199.5h-280q40 230 240 367t495 137q244 0 429.5 -90t286.5 -255.5t101 -383.5t-100.5 -383.5t-284.5 -255.5t-426 -90zM825 221q198 0 331 91t173 255h-967
q26 -162 149.5 -254t313.5 -92z" />
    <glyph glyph-name="uni04D9" unicode="&#x4d9;" horiz-adv-x="1355" 
d="M649 1063q292 0 467.5 -146.5t175.5 -390.5q0 -240 -171 -389t-447 -149q-275 0 -443 139.5t-168 368.5q0 50 3 88h954v12q0 123 -95 193.5t-263 70.5q-271 0 -328 -162h-258q34 164 192 264.5t381 100.5zM1014 406h-688q14 -106 102.5 -163t241.5 -57q144 0 235.5 58.5
t108.5 161.5z" />
    <glyph glyph-name="uni04E2" unicode="&#x4e2;" horiz-adv-x="1617" 
d="M121 0v1434h270v-1020l854 1020h252v-1434h-270v1020l-854 -1020h-252zM451 1614v192h718v-192h-718z" />
    <glyph glyph-name="uni04E3" unicode="&#x4e3;" horiz-adv-x="1392" 
d="M111 0v1051h251v-717l693 717h227v-1051h-252v717l-694 -717h-225zM338 1231v192h719v-192h-719z" />
    <glyph glyph-name="uni04E8" unicode="&#x4e8;" horiz-adv-x="1796" 
d="M897 -12q-243 0 -432.5 92t-294 258t-104.5 379t104.5 379t294 258t432.5 92q244 0 434 -91.5t295 -257.5t105 -380t-105 -380t-295 -257.5t-434 -91.5zM354 829h1088q-37 178 -181 278.5t-364 100.5q-219 0 -362.5 -100.5t-180.5 -278.5zM897 225q220 0 364 100.5
t179 276.5h-1084q35 -176 178.5 -276.5t362.5 -100.5z" />
    <glyph glyph-name="uni04E9" unicode="&#x4e9;" horiz-adv-x="1406" 
d="M705 -12q-287 0 -464.5 148.5t-177.5 387.5q0 241 177.5 390t464.5 149q286 0 462 -149t176 -390q0 -239 -176 -387.5t-462 -148.5zM705 188q156 0 256 66t126 184h-768q26 -119 127 -184.5t259 -65.5zM319 612h768q-28 118 -127.5 184t-254.5 66q-158 0 -259 -65.5
t-127 -184.5z" />
    <glyph glyph-name="uni04EE" unicode="&#x4ee;" horiz-adv-x="1521" 
d="M215 0v242h145q117 0 171.5 23t93.5 93l43 74l-662 1002h320l483 -752l410 752h299l-646 -1149q-91 -160 -193 -222.5t-273 -62.5h-191zM410 1614v192h718v-192h-718z" />
    <glyph glyph-name="uni04EF" unicode="&#x4ef;" horiz-adv-x="1269" 
d="M92 -410v224h178q72 0 105.5 21t73.5 93l38 74l-481 1049h281l346 -791l352 791h279l-559 -1198q-51 -110 -98.5 -165t-109 -76.5t-165.5 -21.5h-240zM272 1231v192h719v-192h-719z" />
    <glyph glyph-name="glyph00054" horiz-adv-x="530" 
d="M-37 -410v224h57q75 0 107.5 32t32.5 105v1100h260v-1104q0 -194 -81 -275.5t-276 -81.5h-100zM291 1188q-66 0 -109 40.5t-43 102.5t43 103t109 41q64 0 107.5 -41t43.5 -103q0 -61 -43 -102t-108 -41z" />
    </font>
</defs>
</svg>
