<?xml version="1.0" standalone="no"?>
<!DOCTYPE svg PUBLIC "-//W3C//DTD SVG 1.1//EN" "http://www.w3.org/Graphics/SVG/1.1/DTD/svg11.dtd" >
<svg xmlns="http://www.w3.org/2000/svg" xmlns:xlink="http://www.w3.org/1999/xlink" version="1.1">
<metadata>
Created by FontForge 20201107 at Fri Nov 14 04:01:45 2025
 By 
Copyright 2025 CoType Foundry. All Rights Reserved.
</metadata>
<defs>
<font id="AeonikExtendedProTRIAL-Black" horiz-adv-x="1462" >
  <font-face 
    font-family="Aeonik Extended Pro TRIAL Black"
    font-weight="900"
    font-stretch="expanded"
    units-per-em="2048"
    panose-1="2 11 10 3 3 3 0 0 0 0"
    ascent="1638"
    descent="-410"
    x-height="1057"
    cap-height="1434"
    bbox="-272 -422 2501 1888"
    underline-thickness="204"
    underline-position="-276"
    unicode-range="U+0020-04EF"
  />
<missing-glyph horiz-adv-x="1269" 
d="M123 -223v1698h1024v-1698h-1024zM322 -18h94v112h57q62 0 99.5 34t37.5 91q0 58 -37.5 92.5t-99.5 34.5h-151v-364zM416 172v96h49q22 0 35.5 -13t13.5 -36q0 -22 -13.5 -34.5t-35.5 -12.5h-49zM692 -18h256v81h-160v64h123v76h-123v61h154v82h-250v-364zM391 455h96
v282h103v82h-299v-82h100v-282zM758 455h96v135l131 229h-106l-72 -133l-68 133h-112l131 -229v-135zM444 926q66 0 106.5 38t45.5 99h-94q-13 -59 -62 -59q-71 0 -71 106q0 107 71 107q48 0 62 -62h94q-5 63 -45.5 101t-106.5 38q-84 0 -129 -49t-45 -135t45 -135t129 -49z
M807 926q81 0 129.5 51.5t48.5 132.5q0 80 -49 132t-129 52q-81 0 -129.5 -52t-48.5 -132q0 -81 48 -132.5t130 -51.5zM807 1004q-39 0 -59.5 29.5t-20.5 76.5q0 48 21 77.5t59 29.5t59 -29.5t21 -77.5q0 -47 -20.5 -76.5t-59.5 -29.5z" />
    <glyph glyph-name=".notdef" horiz-adv-x="1269" 
d="M123 -223v1698h1024v-1698h-1024zM322 -18h94v112h57q62 0 99.5 34t37.5 91q0 58 -37.5 92.5t-99.5 34.5h-151v-364zM416 172v96h49q22 0 35.5 -13t13.5 -36q0 -22 -13.5 -34.5t-35.5 -12.5h-49zM692 -18h256v81h-160v64h123v76h-123v61h154v82h-250v-364zM391 455h96
v282h103v82h-299v-82h100v-282zM758 455h96v135l131 229h-106l-72 -133l-68 133h-112l131 -229v-135zM444 926q66 0 106.5 38t45.5 99h-94q-13 -59 -62 -59q-71 0 -71 106q0 107 71 107q48 0 62 -62h94q-5 63 -45.5 101t-106.5 38q-84 0 -129 -49t-45 -135t45 -135t129 -49z
M807 926q81 0 129.5 51.5t48.5 132.5q0 80 -49 132t-129 52q-81 0 -129.5 -52t-48.5 -132q0 -81 48 -132.5t130 -51.5zM807 1004q-39 0 -59.5 29.5t-20.5 76.5q0 48 21 77.5t59 29.5t59 -29.5t21 -77.5q0 -47 -20.5 -76.5t-59.5 -29.5z" />
    <glyph glyph-name=".null" horiz-adv-x="0" 
 />
    <glyph glyph-name="nonmarkingreturn" horiz-adv-x="682" 
 />
    <glyph glyph-name="space" unicode=" " horiz-adv-x="540" 
 />
    <glyph glyph-name="comma" unicode="," horiz-adv-x="585" 
d="M68 -307v178q99 0 166 30.5t67 96.5q0 19 -2 29q-41 -13 -78 -13q-72 0 -120 47t-48 132q0 78 63.5 134t155.5 56q117 0 188.5 -82.5t71.5 -218.5q0 -191 -123.5 -290t-340.5 -99z" />
    <glyph glyph-name="hyphen" unicode="-" horiz-adv-x="999" 
d="M68 438v287h864v-287h-864z" />
    <glyph glyph-name="period" unicode="." horiz-adv-x="569" 
d="M285 -12q-91 0 -152 57t-61 143t61 143.5t152 57.5t152 -57.5t61 -143.5t-61 -143t-152 -57z" />
    <glyph glyph-name="zero" unicode="0" horiz-adv-x="1548" 
d="M774 -12q-329 0 -521 187.5t-192 508.5v66q0 321 192 508.5t521 187.5t521 -187.5t192 -508.5v-66q0 -321 -192 -508.5t-521 -187.5zM774 287q350 0 350 409v41q0 204 -88.5 307t-261.5 103q-350 0 -350 -410v-41q0 -409 350 -409z" />
    <glyph glyph-name="one" unicode="1" horiz-adv-x="874" 
d="M401 0v874h-381v293h254q72 0 103 32t31 108v127h354v-1434h-361z" />
    <glyph glyph-name="two" unicode="2" horiz-adv-x="1366" 
d="M47 0v272l653 418q135 86 187.5 147t52.5 132q0 86 -68 132t-194 46t-199 -57t-73 -154v-21h-365v41q0 143 80.5 254.5t226.5 173.5t332 62q292 0 459.5 -124t167.5 -339q0 -164 -90 -282.5t-320 -256.5l-244 -147h662v-297h-1268z" />
    <glyph glyph-name="three" unicode="3" horiz-adv-x="1406" 
d="M680 -12q-320 0 -490 121.5t-170 349.5h355q6 -197 315 -197q136 0 212.5 45t76.5 125q0 152 -266 152h-199v282h176q256 0 256 160q0 71 -66.5 108t-193.5 37q-131 0 -206.5 -48.5t-82.5 -137.5h-354q3 139 83.5 243.5t226.5 161t339 56.5q294 0 456.5 -102.5
t162.5 -288.5q0 -116 -66.5 -198t-185.5 -114q140 -28 214.5 -112.5t74.5 -220.5q0 -194 -180.5 -308t-487.5 -114z" />
    <glyph glyph-name="four" unicode="4" horiz-adv-x="1505" 
d="M881 0v285h-840v313l764 836h430v-856h238v-293h-238v-285h-354zM408 578h473v518z" />
    <glyph glyph-name="five" unicode="5" horiz-adv-x="1413" 
d="M713 -12q-306 0 -473.5 123t-178.5 329h359q37 -166 291 -166q138 0 217.5 58.5t79.5 159.5q0 105 -72 161t-217 56q-207 0 -285 -123l-352 28l49 820h1139v-299h-811l-17 -228q116 78 342 78q273 0 430.5 -133.5t157.5 -357.5q0 -164 -86.5 -279.5t-233 -171
t-339.5 -55.5z" />
    <glyph glyph-name="six" unicode="6" horiz-adv-x="1464" 
d="M762 -12q-363 0 -545 213q-156 186 -156 491q0 369 183 561.5t532 192.5q258 0 422 -110.5t193 -305.5h-355q-26 70 -91 101.5t-185 31.5q-175 0 -257.5 -83.5t-82.5 -260.5v-16q121 151 416 151q271 0 424 -125t153 -346q0 -226 -177.5 -360.5t-473.5 -134.5zM764 258
q136 0 211.5 56.5t75.5 156.5q0 102 -74 157.5t-209 55.5q-138 0 -213.5 -55.5t-75.5 -155.5q0 -102 74.5 -158.5t210.5 -56.5z" />
    <glyph glyph-name="seven" unicode="7" horiz-adv-x="1325" 
d="M150 0l714 1135h-833v299h1263v-228l-735 -1206h-409z" />
    <glyph glyph-name="eight" unicode="8" horiz-adv-x="1429" 
d="M715 -12q-319 0 -494.5 110t-175.5 310q0 137 82.5 227t234.5 119q-133 32 -202.5 112t-69.5 201q0 175 169 277t456 102t455.5 -102t168.5 -277q0 -121 -69.5 -201t-202.5 -112q152 -29 234.5 -119t82.5 -227q0 -200 -175 -310t-494 -110zM715 231q141 0 221 50t80 139
q0 92 -79 142t-222 50t-222 -50t-79 -142q0 -89 80 -139t221 -50zM715 887q126 0 194 41.5t68 118.5q0 75 -68 115t-194 40t-194 -40t-68 -115q0 -77 68 -118.5t194 -41.5z" />
    <glyph glyph-name="nine" unicode="9" horiz-adv-x="1464" 
d="M702 1446q363 0 545 -213q156 -186 156 -492q0 -369 -183 -561t-532 -192q-258 0 -421.5 110t-192.5 305h354q26 -70 91.5 -101.5t185.5 -31.5q175 0 257 83.5t82 260.5v17q-122 -152 -415 -152q-272 0 -425 125t-153 346q0 226 177.5 361t473.5 135zM700 1176
q-136 0 -211 -56.5t-75 -156.5q0 -103 73.5 -158t208.5 -55q138 0 213.5 55.5t75.5 155.5q0 102 -74.5 158.5t-210.5 56.5z" />
    <glyph glyph-name="A" unicode="A" horiz-adv-x="1716" 
d="M6 0l627 1434h454l623 -1434h-416l-112 272h-662l-110 -272h-404zM641 569h418l-211 512z" />
    <glyph glyph-name="B" unicode="B" horiz-adv-x="1505" 
d="M106 0v1434h715q280 0 427 -97t147 -282q0 -269 -287 -316q346 -40 346 -331q0 -198 -163.5 -303t-475.5 -105h-709zM483 287h391q197 0 197 147q0 71 -51 109.5t-146 38.5h-391v-295zM483 862h369q78 0 122 38t44 106q0 67 -44 105t-122 38h-369v-287z" />
    <glyph glyph-name="C" unicode="C" horiz-adv-x="1677" 
d="M858 -12q-369 0 -588 199.5t-219 529.5q0 215 102 380.5t291 257t437 91.5q202 0 367 -68t266 -192.5t118 -286.5h-377q-28 109 -128.5 172.5t-249.5 63.5q-201 0 -321 -113.5t-120 -304.5q0 -194 117 -306t319 -112q150 0 252.5 63.5t130.5 172.5h377
q-17 -162 -121.5 -286.5t-274.5 -192.5t-378 -68z" />
    <glyph glyph-name="D" unicode="D" horiz-adv-x="1683" 
d="M106 0v1434h637q268 0 468 -83.5t310.5 -245.5t110.5 -384t-110.5 -386t-311 -249.5t-467.5 -85.5h-637zM483 319h260q502 0 502 402q0 201 -124.5 297t-377.5 96h-260v-795z" />
    <glyph glyph-name="E" unicode="E" horiz-adv-x="1345" 
d="M106 0v1434h1160v-320h-783v-246h635v-299h-635v-250h811v-319h-1188z" />
    <glyph glyph-name="F" unicode="F" horiz-adv-x="1306" 
d="M106 0v1434h1139v-320h-762v-258h643v-299h-643v-557h-377z" />
    <glyph glyph-name="G" unicode="G" horiz-adv-x="1767" 
d="M870 -12q-239 0 -425.5 92t-290 258t-103.5 379q0 163 60 298.5t169 230.5t267 147.5t348 52.5q206 0 375 -67.5t272.5 -188.5t122.5 -275h-371q-30 100 -137 160t-262 60q-211 0 -335 -113t-124 -305q0 -194 123.5 -306t337.5 -112q365 0 424 207l4 14h-428v287h774
v-807h-274l-37 143q-152 -155 -490 -155z" />
    <glyph glyph-name="H" unicode="H" horiz-adv-x="1640" 
d="M106 0v1434h377v-551h674v551h377v-1434h-377v563h-674v-563h-377z" />
    <glyph glyph-name="I" unicode="I" horiz-adv-x="589" 
d="M106 0v1434h377v-1434h-377z" />
    <glyph glyph-name="J" unicode="J" horiz-adv-x="940" 
d="M51 0v319h225q94 0 137.5 45.5t43.5 143.5v926h377v-947q0 -242 -122.5 -364.5t-365.5 -122.5h-295z" />
    <glyph glyph-name="K" unicode="K" horiz-adv-x="1638" 
d="M106 0v1434h377v-603l619 603h518l-633 -580l676 -854h-473l-479 600l-228 -209v-391h-377z" />
    <glyph glyph-name="L" unicode="L" horiz-adv-x="1212" 
d="M106 0v1434h377v-1115h678v-319h-1055z" />
    <glyph glyph-name="M" unicode="M" horiz-adv-x="2119" 
d="M106 0v1434h492l471 -979l455 979h489v-1434h-368v889l-433 -889h-305l-432 889v-889h-369z" />
    <glyph glyph-name="N" unicode="N" horiz-adv-x="1646" 
d="M106 0v1434h343l722 -836v836h369v-1434h-342l-723 836v-836h-369z" />
    <glyph glyph-name="O" unicode="O" horiz-adv-x="1810" 
d="M905 -12q-247 0 -442 93t-303.5 259.5t-108.5 376.5t108.5 376.5t303.5 259.5t442 93t442 -92.5t303.5 -259t108.5 -377.5t-108.5 -377.5t-303.5 -259t-442 -92.5zM905 299q216 0 342.5 113t126.5 305t-126.5 305t-342.5 113t-342.5 -113t-126.5 -305t126.5 -305
t342.5 -113z" />
    <glyph glyph-name="P" unicode="P" horiz-adv-x="1480" 
d="M106 0v1434h744q270 0 427 -133.5t157 -362.5t-157 -362.5t-427 -133.5h-367v-442h-377zM483 750h351q102 0 159.5 49.5t57.5 138.5t-57 138.5t-158 49.5h-353v-376z" />
    <glyph glyph-name="Q" unicode="Q" horiz-adv-x="1830" 
d="M1671 0q-87 0 -147.5 24t-124.5 85q-209 -121 -494 -121q-247 0 -442 93t-303.5 259.5t-108.5 376.5t108.5 376.5t303.5 259.5t442 93t442 -92.5t303.5 -259t108.5 -377.5q0 -221 -121 -393q30 -5 33 -5h148v-319h-148zM905 299q143 0 248 51l-27 27q-23 23 -46.5 31
t-67.5 8h-127v309h151q84 0 138.5 -25t132.5 -100l41 -39q26 68 26 156q0 192 -126.5 305t-342.5 113t-342.5 -113t-126.5 -305t126.5 -305t342.5 -113z" />
    <glyph glyph-name="R" unicode="R" horiz-adv-x="1511" 
d="M106 0v1434h754q270 0 427 -133.5t157 -362.5q0 -298 -281 -418l328 -520h-440l-271 442h-297v-442h-377zM483 750h361q102 0 159.5 49.5t57.5 138.5t-57 138.5t-158 49.5h-363v-376z" />
    <glyph glyph-name="S" unicode="S" horiz-adv-x="1492" 
d="M764 -12q-329 0 -520.5 129.5t-194.5 353.5h367q9 -91 102 -143t248 -52q144 0 218.5 37.5t74.5 104.5q0 61 -66 87t-266 48q-237 27 -375.5 79.5t-200 139t-61.5 221.5q0 206 175 329.5t468 123.5q309 0 488 -122.5t184 -336.5h-367q-12 82 -91.5 126t-219.5 44
q-127 0 -192.5 -34.5t-65.5 -96.5q0 -63 68.5 -90.5t263.5 -48.5q349 -35 493 -134t144 -300q0 -211 -184 -338t-490 -127z" />
    <glyph glyph-name="T" unicode="T" horiz-adv-x="1466" 
d="M545 0v1114h-494v320h1364v-320h-493v-1114h-377z" />
    <glyph glyph-name="U" unicode="U" horiz-adv-x="1624" 
d="M811 -12q-352 0 -533.5 171.5t-181.5 504.5v770h377v-791q0 -173 82.5 -255.5t255.5 -82.5q175 0 257.5 82t82.5 256v791h377v-770q0 -333 -182 -504.5t-535 -171.5z" />
    <glyph glyph-name="V" unicode="V" horiz-adv-x="1605" 
d="M586 0l-590 1434h399l410 -1016l414 1016h391l-590 -1434h-434z" />
    <glyph glyph-name="W" unicode="W" horiz-adv-x="2424" 
d="M492 0l-476 1434h396l305 -983l336 983h331l336 -983l305 983h383l-471 -1434h-430l-293 915l-292 -915h-430z" />
    <glyph glyph-name="X" unicode="X" horiz-adv-x="1591" 
d="M0 0l557 733l-532 701h467l315 -422l315 422h445l-533 -703l557 -731h-467l-340 455l-340 -455h-444z" />
    <glyph glyph-name="Y" unicode="Y" horiz-adv-x="1630" 
d="M627 0v532l-631 902h440l381 -564l397 564h420l-630 -902v-532h-377z" />
    <glyph glyph-name="Z" unicode="Z" horiz-adv-x="1533" 
d="M61 0v242l822 872h-801v320h1370v-242l-821 -873h842v-319h-1412z" />
    <glyph glyph-name="a" unicode="a" horiz-adv-x="1357" 
d="M522 -12q-228 0 -350.5 84t-122.5 243q0 166 140 256.5t403 90.5h287v20q0 143 -232 143q-189 0 -221 -100h-348q12 155 176 249.5t418 94.5q557 0 557 -407v-293q0 -44 17 -61t61 -17h41v-291h-183q-108 0 -169.5 40.5t-61.5 123.5v4q-66 -96 -167 -138t-245 -42z
M588 231q136 0 213.5 55t77.5 152v4h-291q-182 0 -182 -106q0 -105 182 -105z" />
    <glyph glyph-name="b" unicode="b" 
d="M825 -12q-241 0 -383 133l-22 -121h-324v1434h355v-492q136 127 374 127q256 0 422 -153t166 -388t-166 -387.5t-422 -152.5zM748 270q144 0 224.5 68t80.5 190t-80.5 190t-224.5 68q-141 0 -221.5 -68.5t-80.5 -189.5t80.5 -189.5t221.5 -68.5z" />
    <glyph glyph-name="c" unicode="c" horiz-adv-x="1359" 
d="M696 -12q-295 0 -471 147t-176 393q0 247 179.5 394t480.5 147q256 0 417.5 -112t192.5 -312h-369q-15 67 -80 104t-168 37q-135 0 -213.5 -69t-78.5 -189t78 -189t214 -69q104 0 169 39.5t79 110.5h369q-29 -199 -197 -315.5t-426 -116.5z" />
    <glyph glyph-name="d" unicode="d" 
d="M637 -12q-256 0 -422 152.5t-166 387.5t166 388t422 153q239 0 375 -127v492h354v-1434h-324l-22 121q-142 -133 -383 -133zM715 270q141 0 221 68.5t80 189.5t-80 189.5t-221 68.5q-144 0 -224.5 -68t-80.5 -190t80.5 -190t224.5 -68z" />
    <glyph glyph-name="e" unicode="e" horiz-adv-x="1388" 
d="M725 -12q-310 0 -493 145t-183 391t179 395.5t472 149.5q186 0 332 -64.5t226.5 -180.5t80.5 -265q0 -86 -4 -117h-917v-8q0 -89 77.5 -139.5t215.5 -50.5q111 0 180 28t88 80h348q-16 -103 -100 -186.5t-216.5 -130.5t-285.5 -47zM424 662h565q-10 75 -83.5 115
t-198.5 40q-117 0 -190.5 -40.5t-92.5 -114.5z" />
    <glyph glyph-name="f" unicode="f" horiz-adv-x="907" 
d="M217 0v764h-207v293h207v12q0 365 385 365h285v-293h-228q-49 0 -71.5 -19.5t-22.5 -60.5v-4h322v-293h-316v-764h-354z" />
    <glyph glyph-name="g" unicode="g" 
d="M688 -422q-178 0 -313.5 45.5t-213.5 133t-85 206.5h356q48 -129 283 -129q146 0 225.5 52t79.5 147v117q-134 -134 -373 -134q-264 0 -431 146.5t-167 376.5q0 150 76 271.5t210.5 190t301.5 68.5q247 0 383 -139l22 127h324v-1037q0 -212 -175 -327t-503 -115zM715 291
q136 0 218.5 67.5t82.5 180.5t-82.5 180t-218.5 67q-139 0 -222 -67t-83 -180q0 -114 83 -181t222 -67z" />
    <glyph glyph-name="h" unicode="h" horiz-adv-x="1419" 
d="M96 0v1434h355v-498q133 133 372 133q87 0 160.5 -15t139 -51t111.5 -90.5t72.5 -137.5t26.5 -189v-586h-354v551q0 114 -62 174.5t-188 60.5q-135 0 -206.5 -61t-71.5 -174v-551h-355z" />
    <glyph glyph-name="i" unicode="i" horiz-adv-x="546" 
d="M96 0v1057h355v-1057h-355zM272 1151q-82 0 -137 52t-55 130t55 130.5t137 52.5t137.5 -52.5t55.5 -130.5t-55.5 -130t-137.5 -52z" />
    <glyph glyph-name="j" unicode="j" horiz-adv-x="567" 
d="M-106 -410v293h100q63 0 93 30t30 93v1051h354v-1065q0 -221 -95 -311.5t-327 -90.5h-155zM295 1151q-82 0 -137.5 52t-55.5 130t55.5 130.5t137.5 52.5t137 -52.5t55 -130.5t-55 -130t-137 -52z" />
    <glyph glyph-name="k" unicode="k" horiz-adv-x="1347" 
d="M96 0v1434h355v-783l452 406h434l-452 -404l475 -653h-432l-303 420l-174 -154v-266h-355z" />
    <glyph glyph-name="l" unicode="l" horiz-adv-x="546" 
d="M96 0v1434h355v-1434h-355z" />
    <glyph glyph-name="m" unicode="m" horiz-adv-x="2166" 
d="M96 0v1057h324l24 -135q132 147 351 147q133 0 232.5 -52t158.5 -151q137 203 424 203q220 0 345.5 -140t125.5 -394v-535h-355v504q0 137 -57 209.5t-158 72.5q-112 0 -178.5 -68t-66.5 -194v-524h-355v504q0 137 -57 209.5t-158 72.5q-111 0 -178 -69t-67 -193v-524
h-355z" />
    <glyph glyph-name="n" unicode="n" horiz-adv-x="1419" 
d="M96 0v1057h324l24 -135q132 147 383 147q243 0 374.5 -139t131.5 -395v-535h-354v504q0 282 -250 282q-134 0 -206 -68t-72 -194v-524h-355z" />
    <glyph glyph-name="o" unicode="o" horiz-adv-x="1435" 
d="M719 -12q-301 0 -485.5 148t-184.5 392t184.5 392.5t485.5 148.5q299 0 483 -149t184 -392t-184 -391.5t-483 -148.5zM719 270q143 0 225 69t82 189t-82 189t-225 69q-145 0 -227 -69t-82 -189t82 -189t227 -69z" />
    <glyph glyph-name="p" unicode="p" 
d="M96 -410v1467h324l22 -121q142 133 383 133q256 0 422 -153t166 -388t-166 -387.5t-422 -152.5q-238 0 -374 127v-525h-355zM748 270q144 0 224.5 68t80.5 190t-80.5 190t-224.5 68q-141 0 -221.5 -68.5t-80.5 -189.5t80.5 -189.5t221.5 -68.5z" />
    <glyph glyph-name="q" unicode="q" 
d="M1012 -410v525q-136 -127 -375 -127q-256 0 -422 152.5t-166 387.5t166 388t422 153q241 0 383 -133l22 121h324v-1467h-354zM715 270q141 0 221 68.5t80 189.5t-80 189.5t-221 68.5q-144 0 -224.5 -68t-80.5 -190t80.5 -190t224.5 -68z" />
    <glyph glyph-name="r" unicode="r" horiz-adv-x="905" 
d="M96 0v1057h322l28 -148q58 78 143 113t214 35h71v-314h-141q-152 0 -217 -64t-65 -212v-467h-355z" />
    <glyph glyph-name="s" unicode="s" horiz-adv-x="1267" 
d="M647 -12q-270 0 -432.5 96t-173.5 260h332q18 -117 278 -117q115 0 176.5 24.5t61.5 70.5q0 20 -8 31.5t-37.5 19.5t-75.5 12.5t-133 9.5q-311 17 -440 89t-129 225q0 164 148 262t398 98q262 0 422 -90.5t172 -245.5h-332q-9 51 -68 73.5t-183 22.5q-105 0 -162.5 -22.5
t-57.5 -63.5q0 -38 48.5 -53.5t205.5 -25.5q165 -11 272 -32t174.5 -58.5t95.5 -90t28 -131.5q0 -164 -159.5 -264t-420.5 -100z" />
    <glyph glyph-name="t" unicode="t" horiz-adv-x="919" 
d="M565 0q-348 0 -348 348v416h-207v293h207v297h354v-297h297v-293h-297v-356q0 -62 26.5 -88.5t88.5 -26.5h182v-293h-303z" />
    <glyph glyph-name="u" unicode="u" horiz-adv-x="1402" 
d="M584 -12q-237 0 -367.5 139t-130.5 395v535h354v-504q0 -139 61.5 -211t180.5 -72q128 0 199 68.5t71 193.5v525h355v-1057h-324l-31 141q-135 -153 -368 -153z" />
    <glyph glyph-name="v" unicode="v" horiz-adv-x="1339" 
d="M453 0l-457 1057h379l301 -733l297 733h370l-452 -1057h-438z" />
    <glyph glyph-name="w" unicode="w" horiz-adv-x="2011" 
d="M410 0l-414 1057h381l231 -684l246 684h315l246 -684l232 684h368l-413 -1057h-375l-221 621l-222 -621h-374z" />
    <glyph glyph-name="x" unicode="x" horiz-adv-x="1329" 
d="M-12 0l458 543l-434 514h422l244 -295l246 295h393l-434 -510l458 -547h-421l-269 324l-270 -324h-393z" />
    <glyph glyph-name="y" unicode="y" horiz-adv-x="1347" 
d="M109 -410v293h186q64 0 91 13.5t52 56.5l31 55l-473 1049h377l295 -729l307 729h377l-559 -1213q-71 -155 -147 -204.5t-236 -49.5h-301z" />
    <glyph glyph-name="z" unicode="z" horiz-adv-x="1232" 
d="M51 0v233l586 531h-569v293h1097v-234l-585 -530h602v-293h-1131z" />
    <glyph glyph-name="uni00A0" unicode="&#xa0;" horiz-adv-x="540" 
 />
    <glyph glyph-name="Alphatonos" unicode="&#x386;" horiz-adv-x="1716" 
d="M6 0l627 1434h454l623 -1434h-416l-112 272h-662l-110 -272h-404zM641 569h418l-211 512zM29 1083l59 351h356l-186 -351h-229z" />
    <glyph glyph-name="Epsilontonos" unicode="&#x388;" horiz-adv-x="1652" 
d="M414 0v1434h1159v-320h-782v-246h634v-299h-634v-250h811v-319h-1188zM-74 1083l60 351h356l-186 -351h-230z" />
    <glyph glyph-name="Etatonos" unicode="&#x389;" horiz-adv-x="1947" 
d="M414 0v1434h377v-551h673v551h377v-1434h-377v563h-673v-563h-377zM-74 1083l60 351h356l-186 -351h-230z" />
    <glyph glyph-name="Iotatonos" unicode="&#x38a;" horiz-adv-x="897" 
d="M414 0v1434h377v-1434h-377zM-74 1083l60 351h356l-186 -351h-230z" />
    <glyph glyph-name="Omicrontonos" unicode="&#x38c;" horiz-adv-x="1912" 
d="M1008 -12q-247 0 -442 93t-303.5 259.5t-108.5 376.5t108.5 376.5t303.5 259.5t442 93t442 -92.5t303.5 -259t108.5 -377.5t-108.5 -377.5t-303.5 -259t-442 -92.5zM1008 299q216 0 342.5 113t126.5 305t-126.5 305t-342.5 113t-342.5 -113t-126.5 -305t126.5 -305
t342.5 -113zM-78 1083l60 351h356l-186 -351h-230z" />
    <glyph glyph-name="Upsilontonos" unicode="&#x38e;" horiz-adv-x="1957" 
d="M954 0v532l-630 902h440l381 -564l397 564h420l-631 -902v-532h-377zM-133 1083l59 351h357l-187 -351h-229z" />
    <glyph glyph-name="Omegatonos" unicode="&#x38f;" horiz-adv-x="1933" 
d="M186 0v319h435v25q-109 20 -194 67.5t-137 113t-78 141t-26 157.5q0 150 64.5 269.5t178.5 196t266.5 117t332.5 40.5t332.5 -40.5t266.5 -117t178.5 -196t64.5 -269.5q0 -82 -26 -157.5t-77.5 -141t-136.5 -113t-194 -67.5v-25h434v-319h-692v446q164 49 235.5 137
t71.5 216q0 105 -61.5 182.5t-163.5 115.5t-232 38t-232 -38t-163.5 -115.5t-61.5 -182.5q0 -127 72 -215.5t236 -137.5v-446h-693zM-84 1083l59 351h357l-187 -351h-229z" />
    <glyph glyph-name="iotadieresistonos" unicode="&#x390;" horiz-adv-x="673" 
d="M426 0q-177 0 -258.5 75.5t-81.5 239.5v742h354v-645q0 -68 26 -93.5t93 -25.5h94v-293h-227zM154 1161l-13 350h336l-115 -350h-208zM-96 1169q-75 0 -125.5 48t-50.5 120t50.5 120t125.5 48t125.5 -48t50.5 -120t-50.5 -120t-125.5 -48zM666 1169q-75 0 -126 48
t-51 120t51 120t126 48t125.5 -48t50.5 -120t-50.5 -120t-125.5 -48z" />
    <glyph glyph-name="Alpha" unicode="&#x391;" horiz-adv-x="1716" 
d="M6 0l627 1434h454l623 -1434h-416l-112 272h-662l-110 -272h-404zM641 569h418l-211 512z" />
    <glyph glyph-name="Beta" unicode="&#x392;" horiz-adv-x="1505" 
d="M106 0v1434h715q280 0 427 -97t147 -282q0 -269 -287 -316q346 -40 346 -331q0 -198 -163.5 -303t-475.5 -105h-709zM483 287h391q197 0 197 147q0 71 -51 109.5t-146 38.5h-391v-295zM483 862h369q78 0 122 38t44 106q0 67 -44 105t-122 38h-369v-287z" />
    <glyph glyph-name="Gamma" unicode="&#x393;" horiz-adv-x="1296" 
d="M106 0v1434h1139v-320h-762v-1114h-377z" />
    <glyph glyph-name="uni0394" unicode="&#x394;" horiz-adv-x="1566" 
d="M16 0v242l541 1192h455l538 -1192v-242h-1534zM442 319h664l-334 764z" />
    <glyph glyph-name="Epsilon" unicode="&#x395;" horiz-adv-x="1345" 
d="M106 0v1434h1160v-320h-783v-246h635v-299h-635v-250h811v-319h-1188z" />
    <glyph glyph-name="Zeta" unicode="&#x396;" horiz-adv-x="1533" 
d="M61 0v242l822 872h-801v320h1370v-242l-821 -873h842v-319h-1412z" />
    <glyph glyph-name="Eta" unicode="&#x397;" horiz-adv-x="1640" 
d="M106 0v1434h377v-551h674v551h377v-1434h-377v563h-674v-563h-377z" />
    <glyph glyph-name="Theta" unicode="&#x398;" horiz-adv-x="1830" 
d="M915 -12q-248 0 -445 92t-308 258.5t-111 378.5t111 378.5t308 258.5t445 92t445 -91.5t308.5 -258t111.5 -379.5t-111.5 -379.5t-308.5 -258t-445 -91.5zM915 299q223 0 356.5 108t133.5 310t-133.5 310t-356.5 108t-356 -108t-133 -310t133 -310t356 -108zM575 594v246
h680v-246h-680z" />
    <glyph glyph-name="Iota" unicode="&#x399;" horiz-adv-x="589" 
d="M106 0v1434h377v-1434h-377z" />
    <glyph glyph-name="Kappa" unicode="&#x39a;" horiz-adv-x="1638" 
d="M106 0v1434h377v-603l619 603h518l-633 -580l676 -854h-473l-479 600l-228 -209v-391h-377z" />
    <glyph glyph-name="Lambda" unicode="&#x39b;" horiz-adv-x="1667" 
d="M6 0l602 1434h449l604 -1434h-399l-433 1036l-430 -1036h-393z" />
    <glyph glyph-name="Mu" unicode="&#x39c;" horiz-adv-x="2119" 
d="M106 0v1434h492l471 -979l455 979h489v-1434h-368v889l-433 -889h-305l-432 889v-889h-369z" />
    <glyph glyph-name="Nu" unicode="&#x39d;" horiz-adv-x="1646" 
d="M106 0v1434h343l722 -836v836h369v-1434h-342l-723 836v-836h-369z" />
    <glyph glyph-name="Xi" unicode="&#x39e;" 
d="M51 0v319h1360v-319h-1360zM227 561v320h1008v-320h-1008zM80 1114v320h1302v-320h-1302z" />
    <glyph glyph-name="Omicron" unicode="&#x39f;" horiz-adv-x="1810" 
d="M905 -12q-247 0 -442 93t-303.5 259.5t-108.5 376.5t108.5 376.5t303.5 259.5t442 93t442 -92.5t303.5 -259t108.5 -377.5t-108.5 -377.5t-303.5 -259t-442 -92.5zM905 299q216 0 342.5 113t126.5 305t-126.5 305t-342.5 113t-342.5 -113t-126.5 -305t126.5 -305
t342.5 -113z" />
    <glyph glyph-name="Pi" unicode="&#x3a0;" horiz-adv-x="1630" 
d="M106 0v1434h1418v-1434h-377v1114h-664v-1114h-377z" />
    <glyph glyph-name="Rho" unicode="&#x3a1;" horiz-adv-x="1480" 
d="M106 0v1434h744q270 0 427 -133.5t157 -362.5t-157 -362.5t-427 -133.5h-367v-442h-377zM483 750h351q102 0 159.5 49.5t57.5 138.5t-57 138.5t-158 49.5h-353v-376z" />
    <glyph glyph-name="Sigma" unicode="&#x3a3;" horiz-adv-x="1533" 
d="M61 0v242l543 489l-522 461v242h1370v-320h-739l352 -313v-121l-399 -361h807v-319h-1412z" />
    <glyph glyph-name="Tau" unicode="&#x3a4;" horiz-adv-x="1466" 
d="M545 0v1114h-494v320h1364v-320h-493v-1114h-377z" />
    <glyph glyph-name="Upsilon" unicode="&#x3a5;" horiz-adv-x="1630" 
d="M627 0v532l-631 902h440l381 -564l397 564h420l-630 -902v-532h-377z" />
    <glyph glyph-name="Phi" unicode="&#x3a6;" horiz-adv-x="2154" 
d="M897 -41v139h-27q-373 0 -596 169t-223 450t223 449.5t596 168.5h27v140h360v-140h27q373 0 596 -168.5t223 -449.5t-223 -450t-596 -169h-27v-139h-360zM870 389h27v655h-27q-206 0 -326 -88t-120 -239t120.5 -239.5t325.5 -88.5zM1257 389h27q205 0 326 88.5t121 239.5
t-120.5 239t-326.5 88h-27v-655z" />
    <glyph glyph-name="Chi" unicode="&#x3a7;" horiz-adv-x="1591" 
d="M0 0l557 733l-532 701h467l315 -422l315 422h445l-533 -703l557 -731h-467l-340 455l-340 -455h-444z" />
    <glyph glyph-name="Psi" unicode="&#x3a8;" horiz-adv-x="1994" 
d="M815 0v322q-183 16 -317.5 63.5t-228.5 133t-140.5 213.5t-46.5 300v402h367v-381q0 -207 82.5 -301t283.5 -117v799h365v-799q201 23 283.5 117t82.5 301v381h367v-402q0 -172 -46.5 -300t-140.5 -213.5t-228.5 -133t-317.5 -63.5v-322h-365z" />
    <glyph glyph-name="uni03A9" unicode="&#x3a9;" horiz-adv-x="1810" 
d="M63 0v319h435v25q-109 20 -194 67.5t-137 113t-78 141t-26 157.5q0 150 64.5 269.5t178.5 196t266.5 117t332.5 40.5t332.5 -40.5t266.5 -117t178.5 -196t64.5 -269.5q0 -82 -26 -157.5t-77.5 -141t-136.5 -113t-194 -67.5v-25h434v-319h-692v446q164 49 235.5 137
t71.5 216q0 105 -61.5 182.5t-163.5 115.5t-232 38q-199 0 -327.5 -89t-128.5 -247q0 -128 71.5 -216t235.5 -137v-446h-693z" />
    <glyph glyph-name="Iotadieresis" unicode="&#x3aa;" horiz-adv-x="589" 
d="M106 0v1434h377v-1434h-377zM553 1540q-78 0 -131 49.5t-53 124.5t53 124.5t131 49.5t131 -49.5t53 -124.5t-53 -124.5t-131 -49.5zM37 1540q-78 0 -131 49.5t-53 124.5t53 124.5t131 49.5t131 -49.5t53 -124.5t-53 -124.5t-131 -49.5z" />
    <glyph glyph-name="Upsilondieresis" unicode="&#x3ab;" horiz-adv-x="1630" 
d="M627 0v532l-631 902h440l381 -564l397 564h420l-630 -902v-532h-377zM1083 1540q-78 0 -131 49.5t-53 124.5t53 124.5t131 49.5t131.5 -49.5t53.5 -124.5t-53.5 -124.5t-131.5 -49.5zM567 1540q-78 0 -131 49.5t-53 124.5t53 124.5t131 49.5t131.5 -49.5t53.5 -124.5
t-53.5 -124.5t-131.5 -49.5z" />
    <glyph glyph-name="alphatonos" unicode="&#x3ac;" horiz-adv-x="1480" 
d="M627 -12q-250 0 -414 153t-164 387t164.5 387.5t413.5 153.5q233 0 372 -133l23 121h324v-688q0 -44 16.5 -61t60.5 -17h37v-291h-200q-103 0 -159 37t-73 115q-142 -164 -401 -164zM705 270q134 0 212 68.5t78 189.5t-78 189.5t-212 68.5q-137 0 -216 -68.5t-79 -189.5
t79 -189.5t216 -68.5zM596 1161l59 350h357l-187 -350h-229z" />
    <glyph glyph-name="epsilontonos" unicode="&#x3ad;" horiz-adv-x="1273" 
d="M659 -12q-293 0 -455.5 80t-162.5 227q0 108 75.5 172.5t215.5 83.5q-129 24 -190.5 75.5t-61.5 149.5q0 136 144.5 214.5t410.5 78.5q283 0 437.5 -99.5t168.5 -271.5h-344q-13 66 -71 99.5t-183 33.5q-211 0 -211 -96q0 -88 154 -88h194v-231h-215q-92 0 -129 -21.5
t-37 -64.5q0 -53 60 -79t196 -26q122 0 179.5 38.5t70.5 111.5h344q-9 -191 -147.5 -289t-442.5 -98zM545 1161l59 350h357l-187 -350h-229z" />
    <glyph glyph-name="etatonos" unicode="&#x3ae;" horiz-adv-x="1464" 
d="M1024 -410v914q0 282 -250 282q-134 0 -206 -68t-72 -194v-524h-355v686q0 44 -17 61t-61 17h-36v293h215q200 0 227 -146q71 85 165 121.5t238 36.5q243 0 374.5 -139t131.5 -395v-945h-354zM559 1161l59 350h357l-187 -350h-229z" />
    <glyph glyph-name="iotatonos" unicode="&#x3af;" horiz-adv-x="673" 
d="M426 0q-177 0 -258.5 75.5t-81.5 239.5v742h354v-645q0 -68 26 -93.5t93 -25.5h94v-293h-227zM150 1161l59 350h356l-186 -350h-229z" />
    <glyph glyph-name="upsilondieresistonos" unicode="&#x3b0;" horiz-adv-x="1376" 
d="M688 -12q-309 0 -455.5 138t-146.5 427v504h354v-465q0 -177 55 -247.5t193 -70.5t193 70.5t55 247.5v465h354v-504q0 -289 -146.5 -427t-455.5 -138zM578 1161l-13 350h336l-115 -350h-208zM328 1169q-75 0 -125.5 48t-50.5 120t50.5 120t125.5 48t125.5 -48t50.5 -120
t-50.5 -120t-125.5 -48zM1090 1169q-75 0 -126 48t-51 120t51 120t126 48t125.5 -48t50.5 -120t-50.5 -120t-125.5 -48z" />
    <glyph glyph-name="alpha" unicode="&#x3b1;" horiz-adv-x="1480" 
d="M627 -12q-250 0 -414 153t-164 387t164.5 387.5t413.5 153.5q233 0 372 -133l23 121h324v-688q0 -44 16.5 -61t60.5 -17h37v-291h-200q-103 0 -159 37t-73 115q-142 -164 -401 -164zM705 270q134 0 212 68.5t78 189.5t-78 189.5t-212 68.5q-137 0 -216 -68.5t-79 -189.5
t79 -189.5t216 -68.5z" />
    <glyph glyph-name="beta" unicode="&#x3b2;" horiz-adv-x="1478" 
d="M96 -410v1328q0 255 159.5 391.5t455.5 136.5q281 0 440.5 -104.5t159.5 -288.5q0 -104 -51.5 -186t-141.5 -115q150 -25 231 -114t81 -226q0 -201 -154.5 -312.5t-444.5 -111.5q-246 0 -380 112v-510h-355zM451 451q0 -95 103.5 -151t246.5 -56q270 0 270 172
q0 174 -332 174h-86v246h9q290 0 290 172q0 163 -245 163q-132 0 -194 -57t-62 -178v-485z" />
    <glyph glyph-name="gamma" unicode="&#x3b3;" horiz-adv-x="1363" 
d="M508 -336v344l-512 1049h391l303 -699l297 699h381l-506 -1041v-352h-354z" />
    <glyph glyph-name="delta" unicode="&#x3b4;" horiz-adv-x="1406" 
d="M690 -12q-303 0 -472 125.5t-169 351.5q0 153 104.5 271t295.5 171q57 16 118 21l-379 229v277h1102v-293h-551l213 -127q116 -69 187.5 -123t123.5 -116.5t73.5 -132t21.5 -161.5q0 -224 -182 -358.5t-486 -134.5zM705 248q138 0 218.5 61.5t80.5 165.5q0 103 -80.5 165
t-214.5 62q-138 0 -218.5 -60.5t-80.5 -164.5t80.5 -166.5t214.5 -62.5z" />
    <glyph glyph-name="epsilon" unicode="&#x3b5;" horiz-adv-x="1273" 
d="M659 -12q-293 0 -455.5 80t-162.5 227q0 108 75.5 172.5t215.5 83.5q-129 24 -190.5 75.5t-61.5 149.5q0 136 144.5 214.5t410.5 78.5q283 0 437.5 -99.5t168.5 -271.5h-344q-13 66 -71 99.5t-183 33.5q-211 0 -211 -96q0 -88 154 -88h194v-231h-215q-92 0 -129 -21.5
t-37 -64.5q0 -53 60 -79t196 -26q122 0 179.5 38.5t70.5 111.5h344q-9 -191 -147.5 -289t-442.5 -98z" />
    <glyph glyph-name="zeta" unicode="&#x3b6;" horiz-adv-x="1232" 
d="M872 -276v98q0 103 -33 139t-132 37l-119 2q-258 5 -398.5 103.5t-140.5 275.5q0 126 77 239.5t290 301.5l250 221h-588v293h1091v-234l-409 -360q-221 -194 -285.5 -269.5t-64.5 -140.5q0 -71 52 -103.5t169 -33.5l160 -2q207 -3 296 -91t89 -292v-184h-304z" />
    <glyph glyph-name="eta" unicode="&#x3b7;" horiz-adv-x="1464" 
d="M1024 -410v914q0 282 -250 282q-134 0 -206 -68t-72 -194v-524h-355v686q0 44 -17 61t-61 17h-36v293h215q200 0 227 -146q71 85 165 121.5t238 36.5q243 0 374.5 -139t131.5 -395v-945h-354z" />
    <glyph glyph-name="theta" unicode="&#x3b8;" horiz-adv-x="1429" 
d="M715 -12q-315 0 -490.5 191.5t-175.5 537.5q0 344 175.5 536.5t490.5 192.5q318 0 491.5 -190t173.5 -539q0 -346 -174.5 -537.5t-490.5 -191.5zM715 276q264 0 307 306h-614q43 -306 307 -306zM410 864h610q-23 149 -98.5 221t-206.5 72q-259 0 -305 -293z" />
    <glyph glyph-name="iota" unicode="&#x3b9;" horiz-adv-x="673" 
d="M426 0q-177 0 -258.5 75.5t-81.5 239.5v742h354v-645q0 -68 26 -93.5t93 -25.5h94v-293h-227z" />
    <glyph glyph-name="kappa" unicode="&#x3ba;" horiz-adv-x="1380" 
d="M96 0v1057h355v-469l423 360q75 63 143 86t177 23h129v-293h-74q-64 0 -94 -11t-80 -51l-141 -116l446 -586h-430l-278 383l-221 -182v-201h-355z" />
    <glyph glyph-name="lambda" unicode="&#x3bb;" horiz-adv-x="1368" 
d="M6 0l486 1012l-27 59q-19 41 -48.5 55.5t-94.5 14.5h-181v293h279q160 0 235 -49t148 -205l559 -1180h-377l-301 674l-301 -674h-377z" />
    <glyph glyph-name="uni03BC" unicode="&#x3bc;" horiz-adv-x="1452" 
d="M96 -410v1467h355v-504q0 -139 61 -211t180 -72q128 0 199.5 68.5t71.5 193.5v525h354v-688q0 -44 17 -61t61 -17h37v-291h-215q-201 0 -228 145q-66 -82 -150 -119.5t-204 -37.5q-100 0 -186 28v-426h-353z" />
    <glyph glyph-name="nu" unicode="&#x3bd;" horiz-adv-x="1339" 
d="M453 0l-457 1057h379l301 -733l297 733h370l-452 -1057h-438z" />
    <glyph glyph-name="xi" unicode="&#x3be;" horiz-adv-x="1236" 
d="M893 -276v98q0 104 -33.5 139t-132.5 37l-188 4q-490 10 -490 367q0 127 79.5 221t217.5 131q-115 27 -173 84t-58 137q0 77 50.5 129t145.5 72h-192v291h1069v-273q-253 -4 -314 -8q-214 -12 -305.5 -50.5t-91.5 -113.5q0 -129 223 -129h394v-285h-439q-245 0 -245 -147
q0 -71 50 -102t158 -33l193 -4q207 -5 296 -91t89 -290v-184h-303z" />
    <glyph glyph-name="omicron" unicode="&#x3bf;" horiz-adv-x="1435" 
d="M719 -12q-301 0 -485.5 148t-184.5 392t184.5 392.5t485.5 148.5q299 0 483 -149t184 -392t-184 -391.5t-483 -148.5zM719 270q143 0 225 69t82 189t-82 189t-225 69q-145 0 -227 -69t-82 -189t82 -189t227 -69z" />
    <glyph glyph-name="pi" unicode="&#x3c0;" horiz-adv-x="1550" 
d="M1231 0q-136 0 -201 58t-65 182v524h-398v-764h-354v764h-182v293h1482v-293h-194v-410q0 -38 18 -50.5t62 -12.5h47v-291h-215z" />
    <glyph glyph-name="rho" unicode="&#x3c1;" horiz-adv-x="1452" 
d="M86 -410v938q0 117 45 216.5t128.5 171.5t208.5 112.5t277 40.5q303 0 480.5 -151t177.5 -390q0 -237 -172 -388.5t-453 -151.5q-202 0 -338 88v-486h-354zM737 270q144 0 224.5 68t80.5 190t-80.5 190t-224.5 68q-141 0 -221 -68.5t-80 -189.5t80 -189.5t221 -68.5z" />
    <glyph glyph-name="sigma1" unicode="&#x3c2;" horiz-adv-x="1359" 
d="M872 -276v98q0 104 -33 138.5t-132 37.5l-54 2q-286 11 -445 149t-159 379q0 247 179.5 394t480.5 147q256 0 417.5 -112t192.5 -312h-369q-15 67 -80 104t-168 37q-135 0 -213.5 -69t-78.5 -189q0 -119 67 -175.5t217 -59.5l97 -2q207 -5 296 -92t89 -291v-184h-304z
" />
    <glyph glyph-name="sigma" unicode="&#x3c3;" horiz-adv-x="1521" 
d="M719 -12q-301 0 -485.5 147.5t-184.5 386.5t184 387t482 148h776v-293h-225q62 -50 91 -113.5t29 -150.5q0 -149 -84.5 -265.5t-237 -181.5t-345.5 -65zM719 270q141 0 224 67.5t83 184.5t-83 184.5t-224 67.5q-143 0 -226 -67.5t-83 -184.5t83 -184.5t226 -67.5z" />
    <glyph glyph-name="tau" unicode="&#x3c4;" horiz-adv-x="1220" 
d="M760 0q-348 0 -348 348v416h-381v293h1153v-293h-418v-356q0 -62 27 -88.5t88 -26.5h182v-293h-303z" />
    <glyph glyph-name="upsilon" unicode="&#x3c5;" horiz-adv-x="1376" 
d="M688 -12q-309 0 -455.5 138t-146.5 427v504h354v-465q0 -177 55 -247.5t193 -70.5t193 70.5t55 247.5v465h354v-504q0 -289 -146.5 -427t-455.5 -138z" />
    <glyph glyph-name="phi" unicode="&#x3c6;" horiz-adv-x="1861" 
d="M756 -410v410h-17q-309 0 -499.5 146t-190.5 382t190.5 382.5t499.5 146.5h17v262h350v-262h16q309 0 499.5 -146.5t190.5 -382.5t-190.5 -382t-499.5 -146h-16v-410h-350zM739 276h21v504h-21q-151 0 -243.5 -69.5t-92.5 -182.5t92.5 -182.5t243.5 -69.5zM1102 276h20
q151 0 243.5 69.5t92.5 182.5t-92.5 182.5t-243.5 69.5h-20v-504z" />
    <glyph glyph-name="chi" unicode="&#x3c7;" horiz-adv-x="1384" 
d="M0 -410l508 729l-270 388q-22 33 -55 45t-101 12h-72v293h146q83 0 127.5 -6.5t91 -35t83 -72.5t99.5 -134l160 -227l297 475h375l-492 -715l270 -401q22 -33 55 -45.5t101 -12.5h72v-293h-146q-70 0 -119.5 9t-86 23.5t-71 50t-60.5 71t-70 104.5l-150 232l-303 -490
h-389z" />
    <glyph glyph-name="psi" unicode="&#x3c8;" horiz-adv-x="1814" 
d="M739 -410v404q-331 29 -492 183t-161 437v443h354v-404q0 -182 66 -266t233 -106v1036h336v-1036q167 22 233 106t66 266v404h355v-443q0 -283 -161.5 -437t-492.5 -183v-404h-336z" />
    <glyph glyph-name="omega" unicode="&#x3c9;" horiz-adv-x="1896" 
d="M551 -12q-228 0 -360 135.5t-132 361.5q0 158 72.5 320.5t179.5 251.5h346q-141 -160 -189 -277t-48 -260q0 -112 46 -181t132 -69q89 0 138.5 63.5t49.5 182.5v209h324v-209q0 -120 48.5 -183t135.5 -63q85 0 134 71t49 179q0 142 -49 261.5t-187 275.5h346
q108 -93 179 -253.5t71 -318.5q0 -227 -130.5 -362t-358.5 -135q-159 0 -266.5 72t-133.5 208q-36 -142 -139 -211t-258 -69z" />
    <glyph glyph-name="iotadieresis" unicode="&#x3ca;" horiz-adv-x="673" 
d="M426 0q-177 0 -258.5 75.5t-81.5 239.5v742h354v-645q0 -68 26 -93.5t93 -25.5h94v-293h-227zM522 1163q-78 0 -131 49.5t-53 124.5t53 124.5t131 49.5t131.5 -49.5t53.5 -124.5t-53.5 -124.5t-131.5 -49.5zM6 1163q-78 0 -131 49.5t-53 124.5t53 124.5t131 49.5
t131 -49.5t53 -124.5t-53 -124.5t-131 -49.5z" />
    <glyph glyph-name="upsilondieresis" unicode="&#x3cb;" horiz-adv-x="1376" 
d="M688 -12q-309 0 -455.5 138t-146.5 427v504h354v-465q0 -177 55 -247.5t193 -70.5t193 70.5t55 247.5v465h354v-504q0 -289 -146.5 -427t-455.5 -138zM946 1163q-78 0 -131 49.5t-53 124.5t53 124.5t131 49.5t131 -49.5t53 -124.5t-53 -124.5t-131 -49.5zM430 1163
q-78 0 -131 49.5t-53 124.5t53 124.5t131 49.5t131 -49.5t53 -124.5t-53 -124.5t-131 -49.5z" />
    <glyph glyph-name="omicrontonos" unicode="&#x3cc;" horiz-adv-x="1435" 
d="M719 -12q-301 0 -485.5 148t-184.5 392t184.5 392.5t485.5 148.5q299 0 483 -149t184 -392t-184 -391.5t-483 -148.5zM719 270q143 0 225 69t82 189t-82 189t-225 69q-145 0 -227 -69t-82 -189t82 -189t227 -69zM604 1161l60 350h356l-186 -350h-230z" />
    <glyph glyph-name="upsilontonos" unicode="&#x3cd;" horiz-adv-x="1376" 
d="M688 -12q-309 0 -455.5 138t-146.5 427v504h354v-465q0 -177 55 -247.5t193 -70.5t193 70.5t55 247.5v465h354v-504q0 -289 -146.5 -427t-455.5 -138zM573 1161l60 350h356l-186 -350h-230z" />
    <glyph glyph-name="omegatonos" unicode="&#x3ce;" horiz-adv-x="1896" 
d="M551 -12q-228 0 -360 135.5t-132 361.5q0 158 72.5 320.5t179.5 251.5h346q-141 -160 -189 -277t-48 -260q0 -112 46 -181t132 -69q89 0 138.5 63.5t49.5 182.5v209h324v-209q0 -120 48.5 -183t135.5 -63q85 0 134 71t49 179q0 142 -49 261.5t-187 275.5h346
q108 -93 179 -253.5t71 -318.5q0 -227 -130.5 -362t-358.5 -135q-159 0 -266.5 72t-133.5 208q-36 -142 -139 -211t-258 -69zM834 1161l59 350h356l-186 -350h-229z" />
    <glyph glyph-name="uni0400" unicode="&#x400;" horiz-adv-x="1345" 
d="M106 0v1434h1160v-320h-783v-246h635v-299h-635v-250h811v-319h-1188zM545 1532l-314 303h414l168 -303h-268z" />
    <glyph glyph-name="uni0401" unicode="&#x401;" horiz-adv-x="1345" 
d="M106 0v1434h1160v-320h-783v-246h635v-299h-635v-250h811v-319h-1188zM944 1540q-78 0 -131 49.5t-53 124.5t53 124.5t131 49.5t131 -49.5t53 -124.5t-53 -124.5t-131 -49.5zM428 1540q-78 0 -131 49.5t-53 124.5t53 124.5t131 49.5t131 -49.5t53 -124.5t-53 -124.5
t-131 -49.5z" />
    <glyph glyph-name="uni0402" unicode="&#x402;" horiz-adv-x="1933" 
d="M504 0v1114h-453v320h1364v-320h-534v-246q180 39 368 39q613 0 613 -538v-127q0 -251 -149.5 -384.5t-422.5 -133.5h-137v313h80q120 0 186 60.5t66 174.5v56q0 139 -72 205.5t-233 66.5q-147 0 -299 -31v-569h-377z" />
    <glyph glyph-name="uni0403" unicode="&#x403;" horiz-adv-x="1296" 
d="M106 0v1434h1139v-320h-762v-1114h-377zM549 1538l178 297h414l-328 -297h-264z" />
    <glyph glyph-name="uni0404" unicode="&#x404;" horiz-adv-x="1681" 
d="M858 -12q-369 0 -588 199.5t-219 529.5q0 215 102 380.5t291 257t437 91.5q201 0 367.5 -67t268.5 -187t119 -272h-374q-29 97 -131 159t-254 62q-160 0 -270 -73.5t-152 -201.5h577v-293h-581q39 -132 148 -206t273 -74q153 0 257 62t133 159h374q-17 -152 -122 -272
t-277 -187t-379 -67z" />
    <glyph glyph-name="uni0405" unicode="&#x405;" horiz-adv-x="1492" 
d="M764 -12q-329 0 -520.5 129.5t-194.5 353.5h367q9 -91 102 -143t248 -52q144 0 218.5 37.5t74.5 104.5q0 61 -66 87t-266 48q-237 27 -375.5 79.5t-200 139t-61.5 221.5q0 206 175 329.5t468 123.5q309 0 488 -122.5t184 -336.5h-367q-12 82 -91.5 126t-219.5 44
q-127 0 -192.5 -34.5t-65.5 -96.5q0 -63 68.5 -90.5t263.5 -48.5q349 -35 493 -134t144 -300q0 -211 -184 -338t-490 -127z" />
    <glyph glyph-name="uni0406" unicode="&#x406;" horiz-adv-x="589" 
d="M106 0v1434h377v-1434h-377z" />
    <glyph glyph-name="uni0407" unicode="&#x407;" horiz-adv-x="589" 
d="M106 0v1434h377v-1434h-377zM553 1540q-78 0 -131 49.5t-53 124.5t53 124.5t131 49.5t131 -49.5t53 -124.5t-53 -124.5t-131 -49.5zM37 1540q-78 0 -131 49.5t-53 124.5t53 124.5t131 49.5t131 -49.5t53 -124.5t-53 -124.5t-131 -49.5z" />
    <glyph glyph-name="uni0408" unicode="&#x408;" horiz-adv-x="940" 
d="M51 0v319h225q94 0 137.5 45.5t43.5 143.5v926h377v-947q0 -242 -122.5 -364.5t-365.5 -122.5h-295z" />
    <glyph glyph-name="uni0409" unicode="&#x409;" horiz-adv-x="2557" 
d="M14 0v319h47q128 0 181 91.5t53 312.5v711h1274v-492h356q280 0 428 -121.5t148 -351.5q0 -228 -147.5 -348.5t-426.5 -120.5h-735v1114h-543v-424q0 -362 -128.5 -526t-414.5 -164h-92zM1569 307h338q103 0 157 41.5t54 120.5q0 82 -54 124t-157 42h-338v-328z" />
    <glyph glyph-name="uni040A" unicode="&#x40a;" horiz-adv-x="2502" 
d="M106 0v1434h377v-502h654v502h376v-492h357q279 0 427 -122.5t148 -352.5q0 -229 -147 -348t-426 -119h-735v612h-654v-612h-377zM1513 307h338q103 0 157 40.5t54 119.5q0 80 -54.5 124t-156.5 44h-338v-328z" />
    <glyph glyph-name="uni040B" unicode="&#x40b;" horiz-adv-x="1941" 
d="M504 0v1114h-453v320h1364v-320h-534v-246q180 39 376 39q613 0 613 -538v-369h-377v328q0 139 -72 205.5t-233 66.5q-155 0 -307 -31v-569h-377z" />
    <glyph glyph-name="uni040C" unicode="&#x40c;" horiz-adv-x="1650" 
d="M106 0v1434h377v-549h246l432 549h455l-559 -680l594 -754h-482l-428 565h-258v-565h-377zM670 1538l178 297h414l-328 -297h-264z" />
    <glyph glyph-name="uni040D" unicode="&#x40d;" horiz-adv-x="1660" 
d="M106 0v1434h369v-877l737 877h342v-1434h-368v877l-737 -877h-343zM690 1532l-313 303h414l167 -303h-268z" />
    <glyph glyph-name="uni040E" unicode="&#x40e;" horiz-adv-x="1583" 
d="M225 0v319h158q108 0 162.5 20t85.5 75l24 43l-659 977h428l416 -639l348 639h399l-626 -1117q-98 -174 -214.5 -245.5t-300.5 -71.5h-221zM786 1524q-400 0 -403 311h252q0 -129 156 -129q155 0 155 129h256q-6 -311 -416 -311z" />
    <glyph glyph-name="uni040F" unicode="&#x40f;" horiz-adv-x="1617" 
d="M106 0v1434h377v-1115h652v1115h376v-1434h-514v-293h-376v293h-515z" />
    <glyph glyph-name="uni0410" unicode="&#x410;" horiz-adv-x="1716" 
d="M6 0l627 1434h454l623 -1434h-416l-112 272h-662l-110 -272h-404zM641 569h418l-211 512z" />
    <glyph glyph-name="uni0411" unicode="&#x411;" horiz-adv-x="1454" 
d="M106 0v1434h1166v-306h-789v-235h389q267 0 409 -115t142 -332q0 -216 -141.5 -331t-407.5 -115h-768zM483 301h363q194 0 194 145q0 71 -49.5 108.5t-144.5 37.5h-363v-291z" />
    <glyph glyph-name="uni0412" unicode="&#x412;" horiz-adv-x="1505" 
d="M106 0v1434h715q280 0 427 -97t147 -282q0 -269 -287 -316q346 -40 346 -331q0 -198 -163.5 -303t-475.5 -105h-709zM483 287h391q197 0 197 147q0 71 -51 109.5t-146 38.5h-391v-295zM483 862h369q78 0 122 38t44 106q0 67 -44 105t-122 38h-369v-287z" />
    <glyph glyph-name="uni0413" unicode="&#x413;" horiz-adv-x="1296" 
d="M106 0v1434h1139v-320h-762v-1114h-377z" />
    <glyph glyph-name="uni0414" unicode="&#x414;" horiz-adv-x="1812" 
d="M27 -293v612h129q70 45 102.5 165t32.5 378v572h1313v-1115h174v-612h-361v293h-1030v-293h-360zM1227 319v803h-582v-307q0 -193 -21 -306.5t-71 -189.5h674z" />
    <glyph glyph-name="uni0415" unicode="&#x415;" horiz-adv-x="1345" 
d="M106 0v1434h1160v-320h-783v-246h635v-299h-635v-250h811v-319h-1188z" />
    <glyph glyph-name="uni0416" unicode="&#x416;" horiz-adv-x="2396" 
d="M0 0l459 754l-426 680h424l323 -549h230v549h376v-549h232l324 549h421l-426 -680l459 -754h-434l-342 565h-234v-565h-376v565h-234l-342 -565h-434z" />
    <glyph glyph-name="uni0417" unicode="&#x417;" horiz-adv-x="1492" 
d="M727 -12q-330 0 -498.5 121t-183.5 368h369q12 -103 91.5 -153t231.5 -50q310 0 310 158q0 73 -65 108t-202 35h-233v293h211q256 0 256 154q0 72 -66.5 104.5t-214.5 32.5q-140 0 -221 -48t-96 -140h-363q12 216 199 345.5t487 129.5q312 0 483 -103t171 -292
q0 -109 -71.5 -191.5t-195.5 -116.5q146 -29 226 -116t80 -217q0 -193 -191 -307.5t-514 -114.5z" />
    <glyph glyph-name="uni0418" unicode="&#x418;" horiz-adv-x="1660" 
d="M106 0v1434h369v-877l737 877h342v-1434h-368v877l-737 -877h-343z" />
    <glyph glyph-name="uni0419" unicode="&#x419;" horiz-adv-x="1660" 
d="M106 0v1434h369v-877l737 877h342v-1434h-368v877l-737 -877h-343zM825 1524q-400 0 -403 311h252q0 -129 155 -129q156 0 156 129h256q-6 -311 -416 -311z" />
    <glyph glyph-name="uni041A" unicode="&#x41a;" horiz-adv-x="1650" 
d="M106 0v1434h377v-549h246l432 549h455l-559 -680l594 -754h-482l-428 565h-258v-565h-377z" />
    <glyph glyph-name="uni041B" unicode="&#x41b;" horiz-adv-x="1708" 
d="M14 0v319h47q82 0 131.5 35t76 124.5t26.5 244.5v711h1307v-1434h-377v1114h-576v-424q0 -367 -130 -528.5t-413 -161.5h-92z" />
    <glyph glyph-name="uni041C" unicode="&#x41c;" horiz-adv-x="2119" 
d="M106 0v1434h492l471 -979l455 979h489v-1434h-368v889l-433 -889h-305l-432 889v-889h-369z" />
    <glyph glyph-name="uni041D" unicode="&#x41d;" horiz-adv-x="1640" 
d="M106 0v1434h377v-551h674v551h377v-1434h-377v563h-674v-563h-377z" />
    <glyph glyph-name="uni041E" unicode="&#x41e;" horiz-adv-x="1810" 
d="M905 -12q-247 0 -442 93t-303.5 259.5t-108.5 376.5t108.5 376.5t303.5 259.5t442 93t442 -92.5t303.5 -259t108.5 -377.5t-108.5 -377.5t-303.5 -259t-442 -92.5zM905 299q216 0 342.5 113t126.5 305t-126.5 305t-342.5 113t-342.5 -113t-126.5 -305t126.5 -305
t342.5 -113z" />
    <glyph glyph-name="uni041F" unicode="&#x41f;" horiz-adv-x="1630" 
d="M106 0v1434h1418v-1434h-377v1114h-664v-1114h-377z" />
    <glyph glyph-name="uni0420" unicode="&#x420;" horiz-adv-x="1480" 
d="M106 0v1434h744q270 0 427 -133.5t157 -362.5t-157 -362.5t-427 -133.5h-367v-442h-377zM483 750h351q102 0 159.5 49.5t57.5 138.5t-57 138.5t-158 49.5h-353v-376z" />
    <glyph glyph-name="uni0421" unicode="&#x421;" horiz-adv-x="1677" 
d="M858 -12q-369 0 -588 199.5t-219 529.5q0 215 102 380.5t291 257t437 91.5q202 0 367 -68t266 -192.5t118 -286.5h-377q-28 109 -128.5 172.5t-249.5 63.5q-201 0 -321 -113.5t-120 -304.5q0 -194 117 -306t319 -112q150 0 252.5 63.5t130.5 172.5h377
q-17 -162 -121.5 -286.5t-274.5 -192.5t-378 -68z" />
    <glyph glyph-name="uni0422" unicode="&#x422;" horiz-adv-x="1466" 
d="M545 0v1114h-494v320h1364v-320h-493v-1114h-377z" />
    <glyph glyph-name="uni0423" unicode="&#x423;" horiz-adv-x="1583" 
d="M225 0v319h158q108 0 162.5 20t85.5 75l24 43l-659 977h428l416 -639l348 639h399l-626 -1117q-98 -174 -214.5 -245.5t-300.5 -71.5h-221z" />
    <glyph glyph-name="uni0424" unicode="&#x424;" horiz-adv-x="2154" 
d="M897 -41v139h-27q-373 0 -596 169t-223 450t223 449.5t596 168.5h27v140h360v-140h27q373 0 596 -168.5t223 -449.5t-223 -450t-596 -169h-27v-139h-360zM870 389h27v655h-27q-206 0 -326 -88t-120 -239t120.5 -239.5t325.5 -88.5zM1257 389h27q205 0 326 88.5t121 239.5
t-120.5 239t-326.5 88h-27v-655z" />
    <glyph glyph-name="uni0425" unicode="&#x425;" horiz-adv-x="1591" 
d="M0 0l557 733l-532 701h467l315 -422l315 422h445l-533 -703l557 -731h-467l-340 455l-340 -455h-444z" />
    <glyph glyph-name="uni0426" unicode="&#x426;" horiz-adv-x="1720" 
d="M106 0v1434h377v-1115h652v1115h376v-1115h175v-612h-361v293h-1219z" />
    <glyph glyph-name="uni0427" unicode="&#x427;" horiz-adv-x="1556" 
d="M705 469q-312 0 -472.5 136.5t-160.5 402.5v426h377v-385q0 -273 325 -273q147 0 299 31v627h377v-1434h-377v508q-180 -39 -368 -39z" />
    <glyph glyph-name="uni0428" unicode="&#x428;" horiz-adv-x="2334" 
d="M106 0v1434h377v-1115h496v1115h377v-1115h495v1115h377v-1434h-2122z" />
    <glyph glyph-name="uni0429" unicode="&#x429;" horiz-adv-x="2437" 
d="M106 0v1434h377v-1115h496v1115h377v-1115h495v1115h377v-1115h174v-612h-360v293h-1936z" />
    <glyph glyph-name="uni042A" unicode="&#x42a;" horiz-adv-x="1888" 
d="M492 0v1114h-441v320h817v-451h385q264 0 421 -133t157 -358q0 -226 -157 -359t-421 -133h-761zM868 307h373q97 0 152 49t55 136q0 86 -56 135t-153 49h-371v-369z" />
    <glyph glyph-name="uni042B" unicode="&#x42b;" horiz-adv-x="2058" 
d="M1575 0v1434h377v-1434h-377zM106 0v1434h377v-451h371q264 0 421 -133t157 -358q0 -226 -157 -359t-421 -133h-748zM483 307h359q97 0 152 49t55 136q0 86 -56 135t-153 49h-357v-369z" />
    <glyph glyph-name="uni042C" unicode="&#x42c;" horiz-adv-x="1503" 
d="M106 0v1434h377v-451h385q264 0 421 -133t157 -358q0 -226 -157 -359t-421 -133h-762zM483 307h373q97 0 152 49t55 136q0 86 -56 135t-153 49h-371v-369z" />
    <glyph glyph-name="uni042D" unicode="&#x42d;" horiz-adv-x="1681" 
d="M649 573v293h578q-42 128 -152 201.5t-270 73.5q-152 0 -254 -62t-131 -159h-375q17 152 119 272t269 187t368 67q248 0 436.5 -91.5t290.5 -257t102 -380.5q0 -217 -102.5 -382.5t-290 -256t-432.5 -90.5q-207 0 -374.5 67.5t-268 187t-117.5 271.5h375
q29 -97 132.5 -159t256.5 -62q164 0 273.5 74t148.5 206h-582z" />
    <glyph glyph-name="uni042E" unicode="&#x42e;" horiz-adv-x="2449" 
d="M1559 -12q-317 0 -542.5 158t-281.5 417h-252v-563h-377v1434h377v-551h254q60 253 284.5 408t537.5 155q240 0 431.5 -92.5t299.5 -259t108 -377.5t-108 -377.5t-299.5 -259t-431.5 -92.5zM1559 299q206 0 330 113.5t124 304.5t-124 304.5t-330 113.5t-330.5 -113.5
t-124.5 -304.5t124.5 -304.5t330.5 -113.5z" />
    <glyph glyph-name="uni042F" unicode="&#x42f;" horiz-adv-x="1533" 
d="M31 0l354 508q-311 113 -311 430q0 229 156.5 362.5t426.5 133.5h770v-1434h-376v451h-260l-306 -451h-454zM674 758h377v368h-379q-101 0 -158 -49t-57 -135t58 -135t159 -49z" />
    <glyph glyph-name="uni0430" unicode="&#x430;" horiz-adv-x="1357" 
d="M522 -12q-228 0 -350.5 84t-122.5 243q0 166 140 256.5t403 90.5h287v20q0 143 -232 143q-189 0 -221 -100h-348q12 155 176 249.5t418 94.5q557 0 557 -407v-293q0 -44 17 -61t61 -17h41v-291h-183q-108 0 -169.5 40.5t-61.5 123.5v4q-66 -96 -167 -138t-245 -42z
M588 231q136 0 213.5 55t77.5 152v4h-291q-182 0 -182 -106q0 -105 182 -105z" />
    <glyph glyph-name="uni0431" unicode="&#x431;" horiz-adv-x="1427" 
d="M705 -12q-324 0 -485 161t-161 488q0 192 38.5 325.5t126 225t224 141.5t338.5 70l474 47v-301l-396 -37q-106 -10 -178.5 -23t-130 -33.5t-93.5 -52.5t-60 -75t-40 -105q141 144 441 144q268 0 421.5 -125.5t153.5 -345.5q0 -232 -181.5 -368t-491.5 -136zM717 248
q139 0 220 61.5t81 165.5q0 103 -81 165t-216 62q-139 0 -220 -60.5t-81 -164.5t81 -166.5t216 -62.5z" />
    <glyph glyph-name="uni0432" unicode="&#x432;" horiz-adv-x="1331" 
d="M96 0v1057h666q230 0 352.5 -70.5t122.5 -202.5q0 -193 -188 -237q231 -37 231 -248q0 -299 -506 -299h-678zM438 227h353q62 0 96.5 26t34.5 73t-34.5 72.5t-96.5 25.5h-353v-197zM438 637h318q59 0 91 24.5t32 71.5t-32 71.5t-91 24.5h-318v-192z" />
    <glyph glyph-name="uni0433" unicode="&#x433;" horiz-adv-x="1036" 
d="M96 0v1057h920v-293h-565v-764h-355z" />
    <glyph glyph-name="uni0434" unicode="&#x434;" horiz-adv-x="1521" 
d="M14 -276v569h138q51 41 76.5 124.5t25.5 244.5v395h1083v-764h164v-569h-338v276h-811v-276h-338zM983 293v487h-405v-176q0 -197 -62 -311h467z" />
    <glyph glyph-name="uni0435" unicode="&#x435;" horiz-adv-x="1388" 
d="M725 -12q-310 0 -493 145t-183 391t179 395.5t472 149.5q186 0 332 -64.5t226.5 -180.5t80.5 -265q0 -86 -4 -117h-917v-8q0 -89 77.5 -139.5t215.5 -50.5q111 0 180 28t88 80h348q-16 -103 -100 -186.5t-216.5 -130.5t-285.5 -47zM424 662h565q-10 75 -83.5 115
t-198.5 40q-117 0 -190.5 -40.5t-92.5 -114.5z" />
    <glyph glyph-name="uni0436" unicode="&#x436;" horiz-adv-x="1988" 
d="M-12 0l374 561l-348 496h385l263 -383h159v383h346v-383h160l262 383h385l-348 -496l375 -561h-412l-254 389h-168v-389h-346v389h-168l-254 -389h-411z" />
    <glyph glyph-name="uni0437" unicode="&#x437;" horiz-adv-x="1310" 
d="M641 -12q-304 0 -442.5 98t-147.5 289h344q13 -73 70.5 -111.5t179.5 -38.5q128 0 192 28t64 77q0 45 -36.5 65.5t-129.5 20.5h-215v231h195q162 0 162 96q0 88 -220 88q-125 0 -183 -33.5t-71 -99.5h-344q14 172 169 271.5t438 99.5q276 0 422.5 -78.5t146.5 -214.5
q0 -91 -59.5 -147.5t-165.5 -79.5q250 -40 250 -240q0 -149 -164.5 -235t-454.5 -86z" />
    <glyph glyph-name="uni0438" unicode="&#x438;" horiz-adv-x="1439" 
d="M96 0v1057h342v-613l596 613h309v-1057h-342v612l-598 -612h-307z" />
    <glyph glyph-name="uni0439" unicode="&#x439;" horiz-adv-x="1439" 
d="M96 0v1057h342v-613l596 613h309v-1057h-342v612l-598 -612h-307zM715 1147q-401 0 -404 311h252q0 -129 156 -129q155 0 155 129h256q-6 -311 -415 -311z" />
    <glyph glyph-name="uni043A" unicode="&#x43a;" horiz-adv-x="1366" 
d="M96 0v1057h355v-379h182l311 379h404l-398 -496l428 -561h-436l-295 385h-196v-385h-355z" />
    <glyph glyph-name="uni043B" unicode="&#x43b;" horiz-adv-x="1390" 
d="M6 0v293h53q85 0 122.5 61t37.5 199v504h1075v-1057h-354v764h-397v-219q0 -286 -103.5 -415.5t-330.5 -129.5h-103z" />
    <glyph glyph-name="uni043C" unicode="&#x43c;" horiz-adv-x="1759" 
d="M96 0v1057h412l385 -678l369 678h401v-1057h-322v573l-327 -573h-266l-330 573v-573h-322z" />
    <glyph glyph-name="uni043D" unicode="&#x43d;" horiz-adv-x="1419" 
d="M969 0v385h-518v-385h-355v1057h355v-379h518v379h354v-1057h-354z" />
    <glyph glyph-name="uni043E" unicode="&#x43e;" horiz-adv-x="1435" 
d="M719 -12q-301 0 -485.5 148t-184.5 392t184.5 392.5t485.5 148.5q299 0 483 -149t184 -392t-184 -391.5t-483 -148.5zM719 270q143 0 225 69t82 189t-82 189t-225 69q-145 0 -227 -69t-82 -189t82 -189t227 -69z" />
    <glyph glyph-name="uni043F" unicode="&#x43f;" horiz-adv-x="1394" 
d="M96 0v1057h1202v-1057h-354v764h-493v-764h-355z" />
    <glyph glyph-name="uni0440" unicode="&#x440;" 
d="M96 -410v1467h324l22 -121q142 133 383 133q256 0 422 -153t166 -388t-166 -387.5t-422 -152.5q-238 0 -374 127v-525h-355zM748 270q144 0 224.5 68t80.5 190t-80.5 190t-224.5 68q-141 0 -221.5 -68.5t-80.5 -189.5t80.5 -189.5t221.5 -68.5z" />
    <glyph glyph-name="uni0441" unicode="&#x441;" horiz-adv-x="1359" 
d="M696 -12q-295 0 -471 147t-176 393q0 247 179.5 394t480.5 147q256 0 417.5 -112t192.5 -312h-369q-15 67 -80 104t-168 37q-135 0 -213.5 -69t-78.5 -189t78 -189t214 -69q104 0 169 39.5t79 110.5h369q-29 -199 -197 -315.5t-426 -116.5z" />
    <glyph glyph-name="uni0442" unicode="&#x442;" horiz-adv-x="1181" 
d="M414 0v764h-394v293h1141v-293h-393v-764h-354z" />
    <glyph glyph-name="uni0443" unicode="&#x443;" horiz-adv-x="1347" 
d="M109 -410v293h186q64 0 91 13.5t52 56.5l31 55l-473 1049h377l295 -729l307 729h377l-559 -1213q-71 -155 -147 -204.5t-236 -49.5h-301z" />
    <glyph glyph-name="uni0444" unicode="&#x444;" horiz-adv-x="1861" 
d="M756 -410v410h-17q-309 0 -499.5 146t-190.5 382t190.5 382.5t499.5 146.5h17v344h350v-344h16q309 0 499.5 -146.5t190.5 -382.5t-190.5 -382t-499.5 -146h-16v-410h-350zM739 276h21v504h-21q-151 0 -243.5 -69.5t-92.5 -182.5t92.5 -182.5t243.5 -69.5zM1102 276h20
q151 0 243.5 69.5t92.5 182.5t-92.5 182.5t-243.5 69.5h-20v-504z" />
    <glyph glyph-name="uni0445" unicode="&#x445;" horiz-adv-x="1329" 
d="M-12 0l458 543l-434 514h422l244 -295l246 295h393l-434 -510l458 -547h-421l-269 324l-270 -324h-393z" />
    <glyph glyph-name="uni0446" unicode="&#x446;" horiz-adv-x="1472" 
d="M96 0v1057h355v-764h473v764h354v-764h174v-569h-338v276h-1018z" />
    <glyph glyph-name="uni0447" unicode="&#x447;" horiz-adv-x="1329" 
d="M608 303q-282 0 -412 105t-130 337v312h354v-287q0 -89 54 -132.5t192 -43.5q106 0 213 35v428h354v-1057h-354v342q-131 -39 -271 -39z" />
    <glyph glyph-name="uni0448" unicode="&#x448;" horiz-adv-x="2004" 
d="M96 0v1057h355v-764h374v764h355v-764h374v764h355v-1057h-1813z" />
    <glyph glyph-name="uni0449" unicode="&#x449;" horiz-adv-x="2103" 
d="M96 0v1057h355v-764h374v764h355v-764h374v764h355v-764h174v-569h-338v276h-1649z" />
    <glyph glyph-name="uni044A" unicode="&#x44a;" horiz-adv-x="1546" 
d="M358 0v764h-338v293h693v-291h313q226 0 353.5 -102t127.5 -283q0 -179 -128 -280t-353 -101h-668zM713 256h256q178 0 178 127t-178 127h-256v-254z" />
    <glyph glyph-name="uni044B" unicode="&#x44b;" horiz-adv-x="1800" 
d="M96 0v1057h355v-291h292q226 0 354 -102t128 -283q0 -179 -128.5 -280t-353.5 -101h-647zM451 256h235q178 0 178 127t-178 127h-235v-254zM1350 0v1057h354v-1057h-354z" />
    <glyph glyph-name="uni044C" unicode="&#x44c;" horiz-adv-x="1284" 
d="M96 0v1057h355v-291h313q226 0 353.5 -102t127.5 -283q0 -179 -128 -280t-353 -101h-668zM451 256h256q178 0 178 127t-178 127h-256v-254z" />
    <glyph glyph-name="uni044D" unicode="&#x44d;" horiz-adv-x="1374" 
d="M672 -12q-265 0 -430.5 110.5t-200.5 311.5h358q22 -75 86 -112.5t183 -37.5q217 0 278 150h-387v231h391q-30 75 -101.5 115.5t-180.5 40.5q-228 0 -269 -146h-358q36 196 192 307t426 111q312 0 489 -145.5t177 -395.5q0 -252 -171.5 -396t-481.5 -144z" />
    <glyph glyph-name="uni044E" unicode="&#x44e;" horiz-adv-x="2009" 
d="M1303 -12q-247 0 -418.5 106.5t-222.5 290.5h-211v-385h-355v1057h355v-379h213q53 181 223.5 286t415.5 105q293 0 475 -149.5t182 -391.5t-182 -391t-475 -149zM1303 270q136 0 216 69.5t80 188.5t-80 188.5t-216 69.5q-137 0 -218 -69.5t-81 -188.5t81 -188.5
t218 -69.5z" />
    <glyph glyph-name="uni044F" unicode="&#x44f;" horiz-adv-x="1331" 
d="M881 0v309h-234l-207 -309h-420l271 362q-108 37 -165.5 118t-57.5 198q0 173 138.5 276t371.5 103h657v-1057h-354zM578 565h303v234h-303q-71 0 -111.5 -31t-40.5 -86q0 -57 39 -87t113 -30z" />
    <glyph glyph-name="uni0450" unicode="&#x450;" horiz-adv-x="1388" 
d="M725 -12q-310 0 -493 145t-183 391t179 395.5t472 149.5q186 0 332 -64.5t226.5 -180.5t80.5 -265q0 -86 -4 -117h-917v-8q0 -89 77.5 -139.5t215.5 -50.5q111 0 180 28t88 80h348q-16 -103 -100 -186.5t-216.5 -130.5t-285.5 -47zM553 1155l-313 303h413l168 -303h-268z
M424 662h565q-10 75 -83.5 115t-198.5 40q-117 0 -190.5 -40.5t-92.5 -114.5z" />
    <glyph glyph-name="uni0451" unicode="&#x451;" horiz-adv-x="1388" 
d="M725 -12q-310 0 -493 145t-183 391t179 395.5t472 149.5q186 0 332 -64.5t226.5 -180.5t80.5 -265q0 -86 -4 -117h-917v-8q0 -89 77.5 -139.5t215.5 -50.5q111 0 180 28t88 80h348q-16 -103 -100 -186.5t-216.5 -130.5t-285.5 -47zM436 1163q-78 0 -131 49.5t-53 124.5
t53 124.5t131 49.5t131.5 -49.5t53.5 -124.5t-53.5 -124.5t-131.5 -49.5zM952 1163q-78 0 -131 49.5t-53 124.5t53 124.5t131 49.5t131.5 -49.5t53.5 -124.5t-53.5 -124.5t-131.5 -49.5zM424 662h565q-10 75 -83.5 115t-198.5 40q-117 0 -190.5 -40.5t-92.5 -114.5z" />
    <glyph glyph-name="uni0452" unicode="&#x452;" horiz-adv-x="1439" 
d="M776 -410v293h101q63 0 92.5 30t29.5 93v545q0 235 -249 235q-135 0 -207 -61t-72 -174v-551h-354v1137h-162v206h162v91h354v-91h395v-206h-395v-201q133 133 373 133q87 0 160.5 -15t139 -51t111.5 -90.5t72.5 -137.5t26.5 -189v-594q0 -221 -95 -311.5t-327 -90.5
h-156z" />
    <glyph glyph-name="uni0453" unicode="&#x453;" horiz-adv-x="1036" 
d="M96 0v1057h920v-293h-565v-764h-355zM385 1161l178 297h414l-328 -297h-264z" />
    <glyph glyph-name="uni0454" unicode="&#x454;" horiz-adv-x="1374" 
d="M702 -12q-310 0 -481.5 144t-171.5 396q0 250 177 395.5t489 145.5q270 0 426 -111t192 -307h-358q-41 146 -268 146q-109 0 -181 -40.5t-102 -115.5h391v-231h-387q61 -150 279 -150q119 0 182.5 37t85.5 113h358q-35 -201 -200.5 -311.5t-430.5 -110.5z" />
    <glyph glyph-name="uni0455" unicode="&#x455;" horiz-adv-x="1267" 
d="M647 -12q-270 0 -432.5 96t-173.5 260h332q18 -117 278 -117q115 0 176.5 24.5t61.5 70.5q0 20 -8 31.5t-37.5 19.5t-75.5 12.5t-133 9.5q-311 17 -440 89t-129 225q0 164 148 262t398 98q262 0 422 -90.5t172 -245.5h-332q-9 51 -68 73.5t-183 22.5q-105 0 -162.5 -22.5
t-57.5 -63.5q0 -38 48.5 -53.5t205.5 -25.5q165 -11 272 -32t174.5 -58.5t95.5 -90t28 -131.5q0 -164 -159.5 -264t-420.5 -100z" />
    <glyph glyph-name="uni0456" unicode="&#x456;" horiz-adv-x="546" 
d="M96 0v1057h355v-1057h-355zM272 1151q-82 0 -137 52t-55 130t55 130.5t137 52.5t137.5 -52.5t55.5 -130.5t-55.5 -130t-137.5 -52z" />
    <glyph glyph-name="uni0457" unicode="&#x457;" horiz-adv-x="546" 
d="M96 0v1057h355v-1057h-355zM446 1169q-71 0 -116 47.5t-45 120.5t45 120.5t116 47.5t116.5 -47.5t45.5 -120.5t-45.5 -120.5t-116.5 -47.5zM98 1169q-71 0 -116 47.5t-45 120.5t45 120.5t116 47.5t116.5 -47.5t45.5 -120.5t-45.5 -120.5t-116.5 -47.5z" />
    <glyph glyph-name="uni0458" unicode="&#x458;" horiz-adv-x="567" 
d="M-106 -410v293h100q63 0 93 30t30 93v1051h354v-1065q0 -221 -95 -311.5t-327 -90.5h-155zM295 1151q-82 0 -137.5 52t-55.5 130t55.5 130.5t137.5 52.5t137 -52.5t55 -130.5t-55 -130t-137 -52z" />
    <glyph glyph-name="uni0459" unicode="&#x459;" horiz-adv-x="2070" 
d="M6 0v293h53q89 0 124.5 58.5t35.5 207.5v498h1057v-328h303q212 0 332.5 -97.5t120.5 -269.5q0 -169 -120.5 -265.5t-332.5 -96.5h-657v764h-379v-219q0 -293 -99 -419t-329 -126h-109zM1276 256h260q65 0 100 28.5t35 80.5t-35 80t-100 28h-260v-217z" />
    <glyph glyph-name="uni045A" unicode="&#x45a;" horiz-adv-x="2093" 
d="M944 0v420h-493v-420h-355v1057h355v-344h493v344h354v-328h304q212 0 332 -97.5t120 -269.5q0 -169 -120 -265.5t-332 -96.5h-658zM1298 256h261q65 0 100 28.5t35 80.5t-35 80t-100 28h-261v-217z" />
    <glyph glyph-name="uni045B" unicode="&#x45b;" horiz-adv-x="1439" 
d="M-45 1137v206h162v91h354v-91h395v-206h-395v-201q133 133 373 133q87 0 160.5 -15t139 -51t111.5 -90.5t72.5 -137.5t26.5 -189v-586h-355v551q0 235 -249 235q-135 0 -207 -61t-72 -174v-551h-354v1137h-162z" />
    <glyph glyph-name="uni045C" unicode="&#x45c;" horiz-adv-x="1366" 
d="M96 0v1057h355v-379h182l311 379h404l-398 -496l428 -561h-436l-295 385h-196v-385h-355zM555 1161l178 297h414l-328 -297h-264z" />
    <glyph glyph-name="uni045D" unicode="&#x45d;" horiz-adv-x="1439" 
d="M96 0v1057h342v-613l596 613h309v-1057h-342v612l-598 -612h-307zM580 1155l-314 303h414l168 -303h-268z" />
    <glyph glyph-name="uni045E" unicode="&#x45e;" horiz-adv-x="1347" 
d="M109 -410v293h186q64 0 91 13.5t52 56.5l31 55l-473 1049h377l295 -729l307 729h377l-559 -1213q-71 -155 -147 -204.5t-236 -49.5h-301zM664 1147q-401 0 -404 311h252q0 -129 156 -129q155 0 155 129h256q-6 -311 -415 -311z" />
    <glyph glyph-name="uni045F" unicode="&#x45f;" horiz-adv-x="1374" 
d="M96 0v1057h355v-764h473v764h354v-1057h-414v-276h-354v276h-414z" />
    <glyph glyph-name="uni0462" unicode="&#x462;" horiz-adv-x="1609" 
d="M51 1051v292h162v91h377v-91h414v-292h-414v-80h385q264 0 420.5 -132t156.5 -354q0 -221 -156.5 -353t-420.5 -132h-762v1051h-162zM590 307h373q97 0 151.5 47.5t54.5 130.5q0 82 -56 130.5t-152 48.5h-371v-357z" />
    <glyph glyph-name="uni0463" unicode="&#x463;" horiz-adv-x="1304" 
d="M117 0v815h-162v242h162v377h354v-377h395v-242h-395v-74h313q225 0 353.5 -100t128.5 -272q0 -171 -129 -270t-353 -99h-667zM471 252h256q178 0 178 119q0 118 -178 118h-256v-237z" />
    <glyph glyph-name="uni0472" unicode="&#x472;" horiz-adv-x="1810" 
d="M905 -12q-247 0 -442 93t-303.5 259.5t-108.5 376.5t108.5 376.5t303.5 259.5t442 93t442 -92.5t303.5 -259t108.5 -377.5t-108.5 -377.5t-303.5 -259t-442 -92.5zM905 299q178 0 297.5 74t159.5 207q-114 -43 -219 -43q-87 0 -252 33.5t-221 33.5q-130 0 -217 -41
q45 -125 162.5 -194.5t289.5 -69.5zM449 858q118 43 221 43q108 0 255.5 -33.5t217.5 -33.5q120 0 213 38q-44 125 -162 194t-289 69q-177 0 -295.5 -73t-160.5 -204z" />
    <glyph glyph-name="uni0473" unicode="&#x473;" horiz-adv-x="1435" 
d="M719 -12q-301 0 -485.5 148t-184.5 392t184.5 392.5t485.5 148.5q299 0 483 -149t184 -392t-184 -391.5t-483 -148.5zM391 627q96 30 168 30q50 0 160.5 -24.5t154.5 -24.5q96 0 168 21q-29 87 -111.5 132.5t-211.5 45.5q-132 0 -215.5 -46t-112.5 -134zM719 250
q130 0 213 47t112 135q-94 -33 -170 -33q-54 0 -163.5 25t-151.5 25q-98 0 -166 -21q29 -87 112.5 -132.5t213.5 -45.5z" />
    <glyph glyph-name="uni0474" unicode="&#x474;" horiz-adv-x="1654" 
d="M586 0l-590 1434h399l410 -1016l170 493q39 113 71 189.5t68.5 138t72 96.5t84 58.5t102 32t128.5 8.5h103v-320h-54q-53 0 -86.5 -24.5t-66 -87t-82.5 -197.5l-295 -805h-434z" />
    <glyph glyph-name="uni0475" unicode="&#x475;" horiz-adv-x="1357" 
d="M453 0l-457 1057h379l301 -733l121 366q70 216 158 291.5t270 75.5h102v-293h-53q-78 0 -117.5 -43.5t-85.5 -181.5l-180 -539h-438z" />
    <glyph glyph-name="uni0490" unicode="&#x490;" horiz-adv-x="1296" 
d="M106 0v1434h779v292h360v-612h-762v-1114h-377z" />
    <glyph glyph-name="uni0491" unicode="&#x491;" horiz-adv-x="1036" 
d="M96 0v1057h582v284h338v-577h-565v-764h-355z" />
    <glyph glyph-name="uni0492" unicode="&#x492;" horiz-adv-x="1413" 
d="M213 0v567h-162v277h162v590h1139v-320h-762v-270h471v-277h-471v-567h-377z" />
    <glyph glyph-name="uni0493" unicode="&#x493;" horiz-adv-x="1122" 
d="M182 0v330h-162v241h162v486h920v-293h-565v-193h350v-241h-350v-330h-355z" />
    <glyph glyph-name="uni0496" unicode="&#x496;" horiz-adv-x="2416" 
d="M0 0l459 754l-426 680h424l323 -549h230v549h376v-549h232l324 549h421l-426 -680l265 -435h194v-612h-360v293h-74l-342 565h-234v-565h-376v565h-234l-342 -565h-434z" />
    <glyph glyph-name="uni0497" unicode="&#x497;" horiz-adv-x="2045" 
d="M-12 0l374 561l-348 496h385l263 -383h159v383h346v-383h160l262 383h385l-348 -496l178 -268h221v-569h-337v276h-99l-254 389h-168v-389h-346v389h-168l-254 -389h-411z" />
    <glyph glyph-name="uni049A" unicode="&#x49a;" horiz-adv-x="1671" 
d="M106 0v1434h377v-549h246l432 549h455l-559 -680l342 -435h252v-612h-361v293h-121l-428 565h-258v-565h-377z" />
    <glyph glyph-name="uni049B" unicode="&#x49b;" horiz-adv-x="1398" 
d="M96 0v1057h355v-379h182l311 379h404l-398 -496l205 -268h223v-569h-338v276h-98l-295 385h-196v-385h-355z" />
    <glyph glyph-name="uni04A2" unicode="&#x4a2;" horiz-adv-x="1742" 
d="M106 0v1434h377v-551h674v551h377v-1115h174v-612h-360v293h-191v563h-674v-563h-377z" />
    <glyph glyph-name="uni04A3" unicode="&#x4a3;" horiz-adv-x="1517" 
d="M969 0v385h-518v-385h-355v1057h355v-379h518v379h354v-764h174v-569h-338v276h-190z" />
    <glyph glyph-name="uni04AE" unicode="&#x4ae;" horiz-adv-x="1630" 
d="M627 0v532l-631 902h440l381 -564l397 564h420l-630 -902v-532h-377z" />
    <glyph glyph-name="uni04AF" unicode="&#x4af;" horiz-adv-x="1380" 
d="M514 0l-518 1057h387l313 -692l310 692h378l-516 -1057v-410h-354v410z" />
    <glyph glyph-name="uni04B0" unicode="&#x4b0;" horiz-adv-x="1630" 
d="M627 0v303h-330v246h317l-618 885h440l381 -564l397 564h420l-618 -885h317v-246h-329v-303h-377z" />
    <glyph glyph-name="uni04B1" unicode="&#x4b1;" horiz-adv-x="1380" 
d="M514 0l-518 1057h387l313 -692l310 692h378l-516 -1057h314v-242h-314v-168h-354v168h-313v242h313z" />
    <glyph glyph-name="uni04B2" unicode="&#x4b2;" horiz-adv-x="1611" 
d="M0 0l557 733l-532 701h467l315 -422l315 422h445l-533 -703l314 -412h243v-612h-360v293h-107l-340 455l-340 -455h-444z" />
    <glyph glyph-name="uni04B3" unicode="&#x4b3;" horiz-adv-x="1361" 
d="M-12 0l458 543l-434 514h422l244 -295l246 295h393l-434 -510l213 -254h245v-569h-337v276h-84l-269 324l-270 -324h-393z" />
    <glyph glyph-name="uni04B6" unicode="&#x4b6;" horiz-adv-x="1658" 
d="M705 469q-312 0 -472.5 136.5t-160.5 402.5v426h377v-385q0 -273 325 -273q147 0 299 31v627h377v-1115h174v-612h-360v293h-191v508q-180 -39 -368 -39z" />
    <glyph glyph-name="uni04B7" unicode="&#x4b7;" horiz-adv-x="1427" 
d="M608 303q-282 0 -412 105t-130 337v312h354v-287q0 -89 54 -132.5t192 -43.5q106 0 213 35v428h354v-764h174v-569h-338v276h-190v342q-131 -39 -271 -39z" />
    <glyph glyph-name="uni04BA" unicode="&#x4ba;" horiz-adv-x="1556" 
d="M852 965q312 0 472.5 -136.5t160.5 -402.5v-426h-377v385q0 272 -326 272q-152 0 -299 -30v-627h-377v1434h377v-508q180 39 369 39z" />
    <glyph glyph-name="uni04BB" unicode="&#x4bb;" horiz-adv-x="1419" 
d="M96 0v1434h355v-498q133 133 372 133q87 0 160.5 -15t139 -51t111.5 -90.5t72.5 -137.5t26.5 -189v-586h-354v551q0 114 -62 174.5t-188 60.5q-135 0 -206.5 -61t-71.5 -174v-551h-355z" />
    <glyph glyph-name="uni04C0" unicode="&#x4c0;" horiz-adv-x="589" 
d="M106 0v1434h377v-1434h-377z" />
    <glyph glyph-name="uni04CF" unicode="&#x4cf;" horiz-adv-x="546" 
d="M96 0v1434h355v-1434h-355z" />
    <glyph glyph-name="uni04D8" unicode="&#x4d8;" horiz-adv-x="1705" 
d="M829 -12q-188 0 -339.5 59t-252.5 165.5t-149.5 260t-34.5 338.5h1213q-28 154 -145 242t-292 88q-146 0 -251 -60t-134 -161h-374q17 152 119 272t268.5 187t367.5 67q247 0 435.5 -90.5t291.5 -256t103 -382.5q0 -216 -102.5 -381.5t-290.5 -256.5t-433 -91zM834 293
q145 0 248.5 59.5t152.5 171.5h-782q34 -110 134 -170.5t247 -60.5z" />
    <glyph glyph-name="uni04D9" unicode="&#x4d9;" horiz-adv-x="1388" 
d="M664 1069q310 0 492.5 -145.5t182.5 -391.5t-178.5 -395t-472.5 -149q-186 0 -332 64.5t-226.5 180.5t-80.5 265q0 85 4 116h918v9q0 89 -77.5 139.5t-215.5 50.5q-111 0 -180 -28t-88 -80h-349q25 156 197 260t406 104zM965 395h-566q10 -75 84 -115t199 -40
q117 0 190.5 40.5t92.5 114.5z" />
    <glyph glyph-name="uni04E2" unicode="&#x4e2;" horiz-adv-x="1660" 
d="M106 0v1434h369v-877l737 877h342v-1434h-368v877l-737 -877h-343zM444 1589v246h773v-246h-773z" />
    <glyph glyph-name="uni04E3" unicode="&#x4e3;" horiz-adv-x="1439" 
d="M96 0v1057h342v-613l596 613h309v-1057h-342v612l-598 -612h-307zM334 1212v246h772v-246h-772z" />
    <glyph glyph-name="uni04E8" unicode="&#x4e8;" horiz-adv-x="1810" 
d="M905 -12q-247 0 -442 93t-303.5 259.5t-108.5 376.5t108.5 376.5t303.5 259.5t442 93t442 -92.5t303.5 -259t108.5 -377.5t-108.5 -377.5t-303.5 -259t-442 -92.5zM451 862h909q-43 130 -161 201.5t-294 71.5t-293.5 -71.5t-160.5 -201.5zM905 299q174 0 293 71t162 199
h-909q43 -128 161.5 -199t292.5 -71z" />
    <glyph glyph-name="uni04E9" unicode="&#x4e9;" horiz-adv-x="1435" 
d="M719 -12q-301 0 -485.5 148t-184.5 392t184.5 392.5t485.5 148.5q299 0 483 -149t184 -392t-184 -391.5t-483 -148.5zM393 631h649q-31 85 -113.5 130.5t-209.5 45.5q-129 0 -213 -45t-113 -131zM719 250q127 0 209.5 45t113.5 129h-649q31 -85 114 -129.5t212 -44.5z
" />
    <glyph glyph-name="uni04EE" unicode="&#x4ee;" horiz-adv-x="1583" 
d="M225 0v319h158q108 0 162.5 20t85.5 75l24 43l-659 977h428l416 -639l348 639h399l-626 -1117q-98 -174 -214.5 -245.5t-300.5 -71.5h-221zM406 1589v246h772v-246h-772z" />
    <glyph glyph-name="uni04EF" unicode="&#x4ef;" horiz-adv-x="1347" 
d="M109 -410v293h186q64 0 91 13.5t52 56.5l31 55l-473 1049h377l295 -729l307 729h377l-559 -1213q-71 -155 -147 -204.5t-236 -49.5h-301zM283 1212v246h772v-246h-772z" />
    <glyph glyph-name="glyph00054" horiz-adv-x="595" 
d="M-27 -410v293h50q63 0 92.5 30t29.5 93v1051h355v-1065q0 -221 -90.5 -311.5t-311.5 -90.5h-125zM324 1151q-82 0 -137.5 52t-55.5 130t55.5 130.5t137.5 52.5t137 -52.5t55 -130.5t-55 -130t-137 -52z" />
    </font>
</defs>
</svg>
