<?xml version="1.0" standalone="no"?>
<!DOCTYPE svg PUBLIC "-//W3C//DTD SVG 1.1//EN" "http://www.w3.org/Graphics/SVG/1.1/DTD/svg11.dtd" >
<svg xmlns="http://www.w3.org/2000/svg" xmlns:xlink="http://www.w3.org/1999/xlink" version="1.1">
<metadata>
Created by FontForge 20201107 at Fri Nov 14 04:01:46 2025
 By 
Copyright 2025 CoType Foundry. All Rights Reserved.
</metadata>
<defs>
<font id="AeonikFonoProTRIAL-Air" horiz-adv-x="1155" >
  <font-face 
    font-family="Aeonik Fono Pro TRIAL Air"
    font-weight="100"
    font-stretch="normal"
    units-per-em="2048"
    panose-1="2 11 2 4 3 3 0 0 0 0"
    ascent="1638"
    descent="-410"
    x-height="1032"
    cap-height="1434"
    bbox="-10 -422 1569 1835"
    underline-thickness="16"
    underline-position="-182"
    unicode-range="U+0020-04EF"
  />
<missing-glyph horiz-adv-x="1351" 
d="M164 -223v1698h1024v-1698h-1024zM362 -18h95v112h57q62 0 99.5 34t37.5 91q0 58 -37.5 92.5t-99.5 34.5h-152v-364zM457 172v96h49q22 0 35.5 -13t13.5 -36q0 -22 -13.5 -34.5t-35.5 -12.5h-49zM733 -18h256v81h-160v64h123v76h-123v61h154v82h-250v-364zM432 455h96
v282h103v82h-299v-82h100v-282zM799 455h96v135l131 229h-106l-72 -133l-68 133h-112l131 -229v-135zM485 926q66 0 106.5 38t45.5 99h-94q-13 -59 -62 -59q-71 0 -71 106q0 107 71 107q48 0 62 -62h94q-5 63 -45.5 101t-106.5 38q-84 0 -129 -49t-45 -135t45 -135t129 -49z
M848 926q81 0 129.5 51.5t48.5 132.5q0 80 -49 132t-129 52q-81 0 -129.5 -52t-48.5 -132q0 -81 48 -132.5t130 -51.5zM848 1004q-39 0 -59.5 29.5t-20.5 76.5q0 48 21 77.5t59 29.5t59 -29.5t21 -77.5q0 -47 -20.5 -76.5t-59.5 -29.5z" />
    <glyph glyph-name=".notdef" horiz-adv-x="1351" 
d="M164 -223v1698h1024v-1698h-1024zM362 -18h95v112h57q62 0 99.5 34t37.5 91q0 58 -37.5 92.5t-99.5 34.5h-152v-364zM457 172v96h49q22 0 35.5 -13t13.5 -36q0 -22 -13.5 -34.5t-35.5 -12.5h-49zM733 -18h256v81h-160v64h123v76h-123v61h154v82h-250v-364zM432 455h96
v282h103v82h-299v-82h100v-282zM799 455h96v135l131 229h-106l-72 -133l-68 133h-112l131 -229v-135zM485 926q66 0 106.5 38t45.5 99h-94q-13 -59 -62 -59q-71 0 -71 106q0 107 71 107q48 0 62 -62h94q-5 63 -45.5 101t-106.5 38q-84 0 -129 -49t-45 -135t45 -135t129 -49z
M848 926q81 0 129.5 51.5t48.5 132.5q0 80 -49 132t-129 52q-81 0 -129.5 -52t-48.5 -132q0 -81 48 -132.5t130 -51.5zM848 1004q-39 0 -59.5 29.5t-20.5 76.5q0 48 21 77.5t59 29.5t59 -29.5t21 -77.5q0 -47 -20.5 -76.5t-59.5 -29.5z" />
    <glyph glyph-name=".null" horiz-adv-x="0" 
 />
    <glyph glyph-name="nonmarkingreturn" horiz-adv-x="682" 
 />
    <glyph glyph-name="space" unicode=" " horiz-adv-x="655" 
 />
    <glyph glyph-name="comma" unicode="," horiz-adv-x="475" 
d="M147 -238v15q54 5 93 49t39 108q0 55 -31 86q-6 -26 -33 -26q-13 0 -22 8t-9 21q0 34 37 34q28 0 51 -37t23 -86q0 -65 -41 -115.5t-107 -56.5z" />
    <glyph glyph-name="hyphen" unicode="-" horiz-adv-x="917" 
d="M143 573v17h631v-17h-631z" />
    <glyph glyph-name="period" unicode="." horiz-adv-x="475" 
d="M238 -8q-15 0 -24 9.5t-9 23.5t9 23t24 9t23.5 -9t8.5 -23t-8.5 -23.5t-23.5 -9.5z" />
    <glyph glyph-name="zero" unicode="0" horiz-adv-x="1191" 
d="M596 -12q-215 0 -340 183t-125 513v66q0 330 125 513t340 183t340 -183t125 -513v-66q0 -330 -125 -513t-340 -183zM596 4q207 0 327.5 178.5t120.5 501.5v66q0 225 -61 385l-768 -852q57 -136 154.5 -207.5t226.5 -71.5zM209 299l768 852q-57 136 -154.5 207.5
t-226.5 71.5q-207 0 -328 -178.5t-121 -501.5v-66q0 -223 62 -385z" />
    <glyph glyph-name="one" unicode="1" horiz-adv-x="1042" 
d="M102 0v16h433v1133q-21 -43 -82 -43h-316v16h316q40 0 61 23.5t21 66.5v222h16v-1418h410v-16h-859z" />
    <glyph glyph-name="two" unicode="2" horiz-adv-x="1130" 
d="M123 0v16l539 537q128 126 172 180q131 160 131 318q0 174 -110 276.5t-296 102.5t-292.5 -111t-106.5 -305v-33h-17v33q0 200 112.5 316t303.5 116q194 0 308 -106t114 -289q0 -73 -22 -140t-65 -126.5t-86.5 -107t-105.5 -109.5q-20 -19 -30 -29l-527 -523h863v-16
h-885z" />
    <glyph glyph-name="three" unicode="3" horiz-adv-x="1144" 
d="M553 -12q-208 0 -334.5 108t-126.5 293h17q0 -180 122 -282.5t322 -102.5q195 0 319.5 109t124.5 274q0 169 -113 254.5t-323 85.5h-112v16h112q189 0 293 98.5t104 252.5q0 150 -104 243t-283 93q-187 0 -305.5 -97t-118.5 -260h-16q0 115 58.5 200.5t157.5 129
t224 43.5q185 0 294.5 -97.5t109.5 -254.5q0 -144 -85 -239t-233 -118q169 -18 263 -103.5t94 -246.5q0 -172 -129.5 -285.5t-331.5 -113.5z" />
    <glyph glyph-name="four" unicode="4" horiz-adv-x="1167" 
d="M831 0v412h-759v16l759 1006h17v-1006h237v-16h-237v-412h-17zM92 428h739v979z" />
    <glyph glyph-name="five" unicode="5" horiz-adv-x="1140" 
d="M563 -12q-195 0 -311 113.5t-129 279.5h16q7 -77 37.5 -144.5t82.5 -120t130.5 -82.5t173.5 -30q86 0 164 30t139.5 86t98 145.5t36.5 199.5q0 198 -114 325.5t-307 127.5q-142 0 -253 -73.5t-155 -197.5l-16 4l57 783h717v-17h-703l-53 -725q53 110 163 176t243 66
q198 0 318 -131.5t120 -337.5q0 -114 -37.5 -206t-101.5 -150.5t-145 -89.5t-171 -31z" />
    <glyph glyph-name="six" unicode="6" horiz-adv-x="1169" 
d="M606 -12q-227 0 -356 176q-73 101 -96 235.5t-23 311.5q0 159 27.5 290t84 232t150.5 157t219 56q170 0 273.5 -93t134.5 -245h-16q-33 146 -131 234t-261 88q-121 0 -212 -54.5t-145.5 -153t-81 -226.5t-26.5 -285q0 -122 13 -242q7 201 131 322.5t317 121.5
q209 0 330 -126.5t121 -331.5q0 -207 -124.5 -337t-328.5 -130zM606 4q197 0 316.5 124.5t119.5 326.5q0 198 -116.5 320t-317.5 122q-193 0 -312.5 -122.5t-119.5 -319.5q0 -123 52 -225.5t151.5 -164t226.5 -61.5z" />
    <glyph glyph-name="seven" unicode="7" horiz-adv-x="1058" 
d="M223 0l735 1417h-897v17h916v-17l-737 -1417h-17z" />
    <glyph glyph-name="eight" unicode="8" horiz-adv-x="1187" 
d="M594 -12q-204 0 -333.5 105t-129.5 269q0 148 105 249.5t276 123.5q-153 22 -246.5 117.5t-93.5 232.5q0 159 117.5 260t304.5 101t304.5 -101t117.5 -260q0 -137 -93.5 -232.5t-246.5 -117.5q167 -21 274 -121.5t107 -251.5q0 -165 -129 -269.5t-334 -104.5zM594 4
q197 0 321.5 100t124.5 258q0 160 -125.5 262.5t-320.5 102.5q-196 0 -321.5 -102.5t-125.5 -262.5q0 -158 125 -258t322 -100zM594 743q177 0 291 96t114 246q0 152 -113 248.5t-292 96.5q-180 0 -293 -96.5t-113 -248.5q0 -151 113.5 -246.5t292.5 -95.5z" />
    <glyph glyph-name="nine" unicode="9" horiz-adv-x="1169" 
d="M563 1446q228 0 357 -176q73 -101 95.5 -235t22.5 -312q0 -159 -27.5 -290t-84 -232t-150.5 -157t-219 -56q-170 0 -273 93t-134 245h16q33 -146 130.5 -234t260.5 -88q121 0 212 54.5t145.5 153t81 226.5t26.5 285q0 132 -12 242q-7 -201 -131.5 -323t-317.5 -122
q-209 0 -329.5 127t-120.5 332q0 207 124 337t328 130zM563 1430q-197 0 -316.5 -124.5t-119.5 -326.5q0 -198 116.5 -320t317.5 -122q193 0 312.5 122.5t119.5 319.5q0 123 -52 225.5t-151.5 164t-226.5 61.5z" />
    <glyph glyph-name="A" unicode="A" horiz-adv-x="1234" 
d="M51 0l557 1434h17l559 -1434h-19l-200 512h-697l-198 -512h-19zM274 528h684l-342 883z" />
    <glyph glyph-name="B" unicode="B" horiz-adv-x="1148" 
d="M162 0v1434h405q198 0 306 -94.5t108 -260.5q0 -139 -79 -228t-224 -114q181 -22 275 -112t94 -242q0 -182 -120.5 -282.5t-359.5 -100.5h-405zM178 16h389q229 0 346 97t117 270q0 167 -119.5 255.5t-343.5 88.5h-389v-711zM178 743h389q188 0 293 89.5t105 246.5
q0 158 -104 248t-294 90h-389v-674z" />
    <glyph glyph-name="C" unicode="C" horiz-adv-x="1280" 
d="M680 -12q-181 0 -311 93.5t-194 256t-64 377.5q0 216 64 379.5t194 257.5t311 94q199 0 326.5 -105.5t171.5 -308.5h-17q-44 196 -166.5 297t-314.5 101q-177 0 -303 -92t-188 -252t-62 -371t62.5 -370t188.5 -250t302 -91q392 0 477 399h17q-89 -415 -494 -415z" />
    <glyph glyph-name="D" unicode="D" horiz-adv-x="1267" 
d="M162 0v1434h327q329 0 498.5 -182t169.5 -535q0 -352 -170 -534.5t-498 -182.5h-327zM178 16h311q321 0 486.5 178.5t165.5 522.5q0 345 -165.5 522.5t-486.5 177.5h-311v-1401z" />
    <glyph glyph-name="E" unicode="E" horiz-adv-x="1085" 
d="M162 0v1434h807v-17h-791v-672h680v-16h-680v-713h819v-16h-835z" />
    <glyph glyph-name="F" unicode="F" horiz-adv-x="1011" 
d="M162 0v1434h782v-17h-766v-692h686v-16h-686v-709h-16z" />
    <glyph glyph-name="G" unicode="G" horiz-adv-x="1300" 
d="M653 -12q-251 0 -396.5 196t-145.5 531q0 342 149.5 536.5t413.5 194.5q187 0 306.5 -105.5t160.5 -308.5h-17q-86 398 -450 398q-257 0 -402 -190.5t-145 -524.5q0 -329 141 -520t385 -191q240 0 373 164.5t133 443.5v80h-450v17h467v-709h-17v438
q-39 -213 -170.5 -331.5t-335.5 -118.5z" />
    <glyph glyph-name="H" unicode="H" horiz-adv-x="1247" 
d="M162 0v1434h16v-693h891v693h16v-1434h-16v725h-891v-725h-16z" />
    <glyph glyph-name="I" unicode="I" horiz-adv-x="1040" 
d="M113 0v16h399v1401h-399v17h815v-17h-400v-1401h400v-16h-815z" />
    <glyph glyph-name="J" unicode="J" horiz-adv-x="1150" 
d="M573 -12q-225 0 -333.5 125t-108.5 385h16q0 -253 104.5 -373.5t321.5 -120.5q213 0 314.5 121t101.5 393v899h-590v17h607v-916q0 -279 -106.5 -404.5t-326.5 -125.5z" />
    <glyph glyph-name="K" unicode="K" horiz-adv-x="1161" 
d="M162 0v1434h16v-1031l869 1031h20l-512 -607l565 -827h-20l-555 815l-367 -436v-379h-16z" />
    <glyph glyph-name="L" unicode="L" horiz-adv-x="1046" 
d="M162 0v1434h16v-1418h801v-16h-817z" />
    <glyph glyph-name="M" unicode="M" horiz-adv-x="1292" 
d="M162 0v1434h24l459 -897l461 897h24v-1434h-16v1413l-459 -893h-20l-457 893v-1413h-16z" />
    <glyph glyph-name="N" unicode="N" horiz-adv-x="1255" 
d="M162 0v1434h24l891 -1414v1414h17v-1434h-23l-893 1417v-1417h-16z" />
    <glyph glyph-name="O" unicode="O" horiz-adv-x="1304" 
d="M651 -12q-134 0 -238 55.5t-169.5 154.5t-99 230.5t-33.5 288.5t33.5 288.5t99 230.5t169.5 154.5t238 55.5t239 -55.5t170.5 -154.5t99.5 -230.5t34 -288.5t-34 -288.5t-99.5 -230.5t-170.5 -154.5t-239 -55.5zM651 4q130 0 232 54t165.5 150.5t96.5 225.5t33 283
t-33 283t-96.5 225.5t-165.5 150.5t-232 54t-231 -54t-164.5 -150.5t-96 -225.5t-32.5 -283t32.5 -283t96 -225.5t164.5 -150.5t231 -54z" />
    <glyph glyph-name="P" unicode="P" horiz-adv-x="1161" 
d="M162 0v1434h475q187 0 300.5 -108.5t113.5 -278.5q0 -168 -114.5 -275.5t-301.5 -107.5h-457v-664h-16zM178 680h457q179 0 289 103.5t110 263.5q0 162 -109 266t-288 104h-459v-737z" />
    <glyph glyph-name="Q" unicode="Q" horiz-adv-x="1320" 
d="M1188 0q-70 0 -104.5 19.5t-55.5 72.5l-16 45q-139 -149 -361 -149q-134 0 -238 55.5t-169.5 154.5t-99 230.5t-33.5 288.5t33.5 288.5t99 230.5t169.5 154.5t238 55.5t239 -55.5t170.5 -154.5t99.5 -230.5t34 -288.5q0 -370 -170 -567l18 -48q22 -52 51 -69t95 -17h94
v-16h-94zM651 4q218 0 355 150l-76 196q-20 50 -46.5 68t-78.5 18h-129v17h129q57 0 86.5 -20t52.5 -75l74 -190q160 195 160 549q0 154 -33 283t-96.5 225.5t-165.5 150.5t-232 54t-231 -54t-164.5 -150.5t-96 -225.5t-32.5 -283t32.5 -283t96 -225.5t164.5 -150.5t231 -54
z" />
    <glyph glyph-name="R" unicode="R" horiz-adv-x="1171" 
d="M162 0v1434h475q189 0 301.5 -105t112.5 -282q0 -169 -108 -273t-294 -110l387 -664h-18l-387 664h-453v-664h-16zM178 680h457q183 0 291 99.5t108 267.5q0 169 -107 269.5t-290 100.5h-459v-737z" />
    <glyph glyph-name="S" unicode="S" horiz-adv-x="1220" 
d="M610 -12q-204 0 -331.5 111.5t-139.5 301.5h17q10 -183 133 -290t321 -107q209 0 332 99t123 268q0 52 -14 96t-36 75.5t-59 57.5t-72.5 43.5t-86.5 32.5t-91.5 24t-97.5 19q-63 11 -95.5 17.5t-87.5 21t-85 29.5t-68.5 41.5t-58 58t-33.5 77t-14 101.5q0 179 123 280
t336 101q182 0 300 -99t140 -268h-16q-22 163 -135.5 257t-288.5 94q-205 0 -324 -97t-119 -268q0 -42 8 -77.5t20.5 -62.5t34.5 -50.5t43 -40t54 -31t59.5 -23.5t66.5 -18.5t68 -14.5t72 -12q57 -10 100 -19t95 -24t89.5 -33.5t75 -46t61 -61t38 -79.5t14.5 -101
q0 -177 -127 -280t-344 -103z" />
    <glyph glyph-name="T" unicode="T" horiz-adv-x="1208" 
d="M596 0v1417h-528v17h1073v-17h-529v-1417h-16z" />
    <glyph glyph-name="U" unicode="U" horiz-adv-x="1228" 
d="M610 -12q-240 0 -352.5 132.5t-112.5 414.5v899h17v-899q0 -276 107.5 -403.5t340.5 -127.5q238 0 347.5 127.5t109.5 403.5v899h16v-899q0 -283 -114.5 -415t-358.5 -132z" />
    <glyph glyph-name="V" unicode="V" horiz-adv-x="1193" 
d="M588 0l-547 1434h18l537 -1411l539 1411h18l-549 -1434h-16z" />
    <glyph glyph-name="W" unicode="W" horiz-adv-x="1339" 
d="M334 0l-266 1434h16l260 -1414l313 986h21l311 -986l266 1414h17l-273 -1434h-20l-311 983l-314 -983h-20z" />
    <glyph glyph-name="X" unicode="X" horiz-adv-x="1212" 
d="M74 0l522 731l-492 703h21l481 -689l481 689h21l-492 -701l523 -733h-21l-512 719l-512 -719h-20z" />
    <glyph glyph-name="Y" unicode="Y" horiz-adv-x="1226" 
d="M604 0v526l-561 908h20l549 -889l551 889h21l-563 -908v-526h-17z" />
    <glyph glyph-name="Z" unicode="Z" horiz-adv-x="1214" 
d="M82 0v16l1024 1401h-993v17h1013v-17l-1024 -1401h1031v-16h-1051z" />
    <glyph glyph-name="a" unicode="a" horiz-adv-x="1114" 
d="M444 -12q-158 0 -250 76.5t-92 207.5q0 133 103 210t293 77h411v119q0 166 -94 258t-272 92q-156 0 -254 -69t-123 -187h-16q22 123 127 197.5t266 74.5q186 0 284.5 -96t98.5 -270v-518q0 -83 31.5 -113.5t95.5 -30.5h20v-16h-20q-70 0 -107 35t-37 125v141
q-38 -146 -157 -229.5t-308 -83.5zM444 4q217 0 341 114t124 294v131h-411q-184 0 -281.5 -73t-97.5 -198q0 -123 87.5 -195.5t237.5 -72.5z" />
    <glyph glyph-name="b" unicode="b" horiz-adv-x="1202" 
d="M625 -12q-171 0 -294 104.5t-161 278.5v-371h-16v1434h16v-772q39 173 162 277.5t293 104.5q207 0 339 -148.5t132 -379.5q0 -232 -132 -380t-339 -148zM625 4q200 0 327 143t127 369q0 224 -127.5 368t-326.5 144t-327 -144t-128 -368q0 -225 127.5 -368.5t327.5 -143.5
z" />
    <glyph glyph-name="c" unicode="c" horiz-adv-x="1095" 
d="M578 -12q-207 0 -339.5 147.5t-132.5 378.5q0 233 132.5 381.5t339.5 148.5q157 0 270 -83.5t151 -229.5h-16q-38 138 -146 217.5t-259 79.5q-202 0 -328.5 -144t-126.5 -370q0 -225 127.5 -367.5t327.5 -142.5q152 0 260 80.5t145 218.5h16q-37 -145 -150 -230t-271 -85
z" />
    <glyph glyph-name="d" unicode="d" horiz-adv-x="1202" 
d="M578 -12q-207 0 -339.5 148t-132.5 380q0 231 132.5 379.5t339.5 148.5q170 0 292.5 -104.5t161.5 -277.5v772h17v-1434h-17v371q-39 -174 -161 -278.5t-293 -104.5zM578 4q200 0 327 143t127 369q0 224 -127.5 368t-326.5 144t-327 -144t-128 -368q0 -225 127.5 -368.5
t327.5 -143.5z" />
    <glyph glyph-name="e" unicode="e" horiz-adv-x="1126" 
d="M575 -12q-206 0 -337.5 148.5t-131.5 395.5q0 222 128.5 367t328.5 145q199 0 328 -128t129 -353v-6h-897v-25q0 -151 54 -270t157.5 -188.5t240.5 -69.5q150 0 265 91t153 243h17q-38 -159 -158.5 -254.5t-276.5 -95.5zM125 573h879q-5 146 -64.5 250.5t-156 154.5
t-220.5 50q-181 0 -303.5 -127t-134.5 -328z" />
    <glyph glyph-name="f" unicode="f" horiz-adv-x="854" 
d="M354 0v1016h-313v16h313v201q0 107 47.5 154t153.5 47h258v-17h-258q-100 0 -142 -42t-42 -142v-201h440v-16h-440v-1016h-17z" />
    <glyph glyph-name="g" unicode="g" horiz-adv-x="1202" 
d="M588 -422q-177 0 -294 83t-147 237h19q29 -145 141 -224.5t281 -79.5q226 0 335 116t109 372v291q-39 -175 -161.5 -280t-292.5 -105q-207 0 -339.5 148.5t-132.5 381.5q0 232 131.5 379t340.5 147q171 0 293 -103.5t161 -276.5v368h17v-950q0 -266 -114 -385t-347 -119z
M578 4q200 0 327 144.5t127 371.5q0 224 -127 366t-327 142t-327.5 -143t-127.5 -367q0 -226 127.5 -370t327.5 -144z" />
    <glyph glyph-name="h" unicode="h" horiz-adv-x="1122" 
d="M154 0v1434h16v-756q37 172 147 269t273 97q180 0 284.5 -114t104.5 -326v-604h-16v604q0 203 -100.5 313.5t-272.5 110.5q-193 0 -306.5 -139.5t-113.5 -372.5v-516h-16z" />
    <glyph glyph-name="i" unicode="i" horiz-adv-x="788" 
d="M92 0v16h309v1000h-309v16h326v-1016h309v-16h-635zM410 1346q-15 0 -25 9.5t-10 24.5t10 25t25 10t24.5 -10t9.5 -25t-9.5 -24.5t-24.5 -9.5z" />
    <glyph glyph-name="j" unicode="j" horiz-adv-x="702" 
d="M41 -410v17h307q100 0 142 42t42 142v1225h-491v16h508v-1241q0 -107 -47.5 -154t-153.5 -47h-307zM539 1346q-15 0 -25 9.5t-10 24.5t10 25t25 10t24.5 -10t9.5 -25t-9.5 -24.5t-24.5 -9.5z" />
    <glyph glyph-name="k" unicode="k" horiz-adv-x="993" 
d="M154 0v1434h16v-1121l715 719h22l-434 -436l475 -596h-20l-467 584l-291 -293v-291h-16z" />
    <glyph glyph-name="l" unicode="l" horiz-adv-x="788" 
d="M92 0v16h309v1401h-309v17h326v-1418h309v-16h-635z" />
    <glyph glyph-name="m" unicode="m" horiz-adv-x="1501" 
d="M154 0v1032h16v-274q31 136 109.5 211t195.5 75q119 0 194.5 -70t88.5 -202q22 124 105 198t204 74q141 0 216 -84.5t75 -248.5v-711h-17v711q0 317 -274 317q-136 0 -219.5 -95t-83.5 -251v-682h-16v690q0 168 -70.5 253t-202.5 85q-141 0 -223 -114t-82 -310v-604h-16z
" />
    <glyph glyph-name="n" unicode="n" horiz-adv-x="1122" 
d="M154 0v1032h16v-356q37 173 147 270.5t273 97.5q180 0 284.5 -114t104.5 -326v-604h-16v604q0 203 -100.5 313.5t-272.5 110.5q-193 0 -306.5 -139.5t-113.5 -372.5v-516h-16z" />
    <glyph glyph-name="o" unicode="o" 
d="M578 -12q-207 0 -339.5 147.5t-132.5 380.5t132.5 380.5t339.5 147.5t339 -147.5t132 -380.5t-132 -380.5t-339 -147.5zM578 4q200 0 327 142.5t127 369.5t-127 369.5t-327 142.5t-327.5 -142.5t-127.5 -369.5t127.5 -369.5t327.5 -142.5z" />
    <glyph glyph-name="p" unicode="p" horiz-adv-x="1202" 
d="M154 -410v1442h16v-370q39 173 162 277.5t293 104.5q207 0 339 -148.5t132 -379.5q0 -232 -132 -380t-339 -148q-171 0 -294 104.5t-161 278.5v-781h-16zM625 4q200 0 327 143t127 369q0 224 -127.5 368t-326.5 144t-327 -144t-128 -368q0 -225 127.5 -368.5
t327.5 -143.5z" />
    <glyph glyph-name="q" unicode="q" horiz-adv-x="1202" 
d="M1032 -410v781q-39 -174 -161 -278.5t-293 -104.5q-207 0 -339.5 148t-132.5 380q0 231 132.5 379.5t339.5 148.5q170 0 292.5 -104.5t161.5 -277.5v370h17v-1442h-17zM578 4q200 0 327 143t127 369q0 224 -127.5 368t-326.5 144t-327 -144t-128 -368
q0 -225 127.5 -368.5t327.5 -143.5z" />
    <glyph glyph-name="r" unicode="r" horiz-adv-x="929" 
d="M92 0v16h250v1000h-250v16h266v-315q25 150 109 232.5t248 82.5h133v-16h-133q-88 0 -152.5 -26.5t-103.5 -69.5t-62 -109.5t-31 -135.5t-8 -159v-500h349v-16h-615z" />
    <glyph glyph-name="s" unicode="s" horiz-adv-x="962" 
d="M500 -12q-188 0 -298.5 76.5t-119.5 220.5h16q7 -136 114.5 -208.5t287.5 -72.5q156 0 260 69.5t104 186.5q0 45 -12.5 81t-39.5 61t-57 42.5t-77.5 30.5t-88 21t-100.5 16q-56 8 -90.5 14t-80.5 16.5t-74 23t-58.5 31.5t-47 43.5t-27.5 58t-11 75.5q0 120 104.5 195
t272.5 75q162 0 267.5 -69.5t123.5 -200.5h-16q-21 127 -120.5 190.5t-254.5 63.5q-161 0 -260.5 -70t-99.5 -184q0 -45 12.5 -80.5t40 -60.5t56.5 -42t77.5 -29.5t88 -19.5t100.5 -16q47 -7 79.5 -12.5t72.5 -14t67 -19t56.5 -24.5t48 -32.5t34.5 -42t23.5 -54t7.5 -67.5
q0 -124 -109 -198t-272 -74z" />
    <glyph glyph-name="t" unicode="t" horiz-adv-x="894" 
d="M557 0q-106 0 -153.5 47t-47.5 154v815h-315v16h315v287h17v-287h461v-16h-461v-815q0 -100 42 -142.5t142 -42.5h277v-16h-277z" />
    <glyph glyph-name="u" unicode="u" horiz-adv-x="1110" 
d="M526 -12q-174 0 -278.5 114.5t-104.5 325.5v604h17v-604q0 -203 99.5 -313.5t266.5 -110.5q187 0 300.5 140t113.5 372v516h16v-1032h-16v354q-35 -171 -145 -268.5t-269 -97.5z" />
    <glyph glyph-name="v" unicode="v" horiz-adv-x="1001" 
d="M494 0l-443 1032h19l432 -1007l430 1007h18l-440 -1032h-16z" />
    <glyph glyph-name="w" unicode="w" horiz-adv-x="1341" 
d="M354 0l-303 1032h19l292 -1003l300 835h16l283 -835l311 1003h18l-321 -1032h-15l-284 836l-301 -836h-15z" />
    <glyph glyph-name="x" unicode="x" horiz-adv-x="933" 
d="M45 0l412 524l-400 508h21l389 -493l389 493h21l-400 -508l412 -524h-23l-399 510l-401 -510h-21z" />
    <glyph glyph-name="y" unicode="y" horiz-adv-x="1001" 
d="M98 -410v17h103q31 0 53 3t41 14t30.5 21t26.5 35.5t24 45t27 61.5l93 219l-445 1026h19l434 -1005l428 1005h18l-530 -1247q-53 -124 -91 -159.5t-128 -35.5h-103z" />
    <glyph glyph-name="z" unicode="z" horiz-adv-x="954" 
d="M45 0v18l825 998h-802v16h821v-18l-826 -998h846v-16h-864z" />
    <glyph glyph-name="uni00A0" unicode="&#xa0;" horiz-adv-x="655" 
 />
    <glyph glyph-name="Alphatonos" unicode="&#x386;" horiz-adv-x="1234" 
d="M51 0l557 1434h17l559 -1434h-19l-200 512h-697l-198 -512h-19zM274 528h684l-342 883zM158 1143l106 291h17l-107 -291h-16z" />
    <glyph glyph-name="Epsilontonos" unicode="&#x388;" horiz-adv-x="1290" 
d="M367 0v1434h807v-17h-791v-672h680v-16h-680v-713h819v-16h-835zM20 1143l107 291h16l-106 -291h-17z" />
    <glyph glyph-name="Etatonos" unicode="&#x389;" horiz-adv-x="1452" 
d="M367 0v1434h16v-693h891v693h16v-1434h-16v725h-891v-725h-16zM41 1143l106 291h17l-107 -291h-16z" />
    <glyph glyph-name="Iotatonos" unicode="&#x38a;" horiz-adv-x="1245" 
d="M317 0v16h400v1401h-400v17h816v-17h-400v-1401h400v-16h-816zM10 1143l107 291h16l-106 -291h-17z" />
    <glyph glyph-name="Omicrontonos" unicode="&#x38c;" horiz-adv-x="1509" 
d="M856 -12q-134 0 -238 55.5t-170 154.5t-99.5 230.5t-33.5 288.5t33.5 288.5t99.5 230.5t170 154.5t238 55.5t239 -55.5t170.5 -154.5t99.5 -230.5t34 -288.5t-34 -288.5t-99.5 -230.5t-170.5 -154.5t-239 -55.5zM856 4q130 0 231.5 54t165.5 150.5t96.5 225.5t32.5 283
t-32.5 283t-96.5 225.5t-165.5 150.5t-231.5 54t-231 -54t-164.5 -150.5t-96 -225.5t-32.5 -283t32.5 -283t96 -225.5t164.5 -150.5t231 -54zM115 1143l106 291h17l-107 -291h-16z" />
    <glyph glyph-name="Upsilontonos" unicode="&#x38e;" horiz-adv-x="1433" 
d="M811 0v526l-561 908h20l549 -889l551 889h21l-564 -908v-526h-16zM0 1143l106 291h17l-107 -291h-16z" />
    <glyph glyph-name="Omegatonos" unicode="&#x38f;" horiz-adv-x="1490" 
d="M328 0v16h362v125q-178 83 -271 253t-93 413q0 295 140.5 467t381.5 172t381.5 -172t140.5 -467q0 -243 -93 -413t-271 -253v-125h362v-16h-379v152q180 82 272.5 248t92.5 407q0 287 -136.5 455t-369.5 168t-369.5 -168t-136.5 -455q0 -241 92.5 -407t272.5 -248v-152
h-379zM106 1143l107 291h16l-106 -291h-17z" />
    <glyph glyph-name="iotadieresistonos" unicode="&#x390;" horiz-adv-x="792" 
d="M608 0q-107 0 -152.5 47.5t-45.5 149.5v819h-318v16h334v-835q0 -97 41 -139t139 -42h125v-16h-123zM412 1174l22 290h17l-23 -290h-16zM238 1311q-11 0 -18 7t-7 17q0 11 7.5 18t17.5 7t17 -7t7 -18t-7 -17.5t-17 -6.5zM623 1311q-11 0 -18 7t-7 17q0 11 7 18t18 7
q10 0 17 -7t7 -18t-6.5 -17.5t-17.5 -6.5z" />
    <glyph glyph-name="Alpha" unicode="&#x391;" horiz-adv-x="1234" 
d="M51 0l557 1434h17l559 -1434h-19l-200 512h-697l-198 -512h-19zM274 528h684l-342 883z" />
    <glyph glyph-name="Beta" unicode="&#x392;" horiz-adv-x="1148" 
d="M162 0v1434h405q198 0 306 -94.5t108 -260.5q0 -139 -79 -228t-224 -114q181 -22 275 -112t94 -242q0 -182 -120.5 -282.5t-359.5 -100.5h-405zM178 16h389q229 0 346 97t117 270q0 167 -119.5 255.5t-343.5 88.5h-389v-711zM178 743h389q188 0 293 89.5t105 246.5
q0 158 -104 248t-294 90h-389v-674z" />
    <glyph glyph-name="Gamma" unicode="&#x393;" horiz-adv-x="1298" 
d="M113 0v16h315v1401h-315v17h1073v-398h-17v381h-725v-1401h398v-16h-729z" />
    <glyph glyph-name="uni0394" unicode="&#x394;" horiz-adv-x="1300" 
d="M61 0v16l578 1418h20l580 -1418v-16h-1178zM80 16h1141l-572 1399z" />
    <glyph glyph-name="Epsilon" unicode="&#x395;" horiz-adv-x="1085" 
d="M162 0v1434h807v-17h-791v-672h680v-16h-680v-713h819v-16h-835z" />
    <glyph glyph-name="Zeta" unicode="&#x396;" horiz-adv-x="1214" 
d="M82 0v16l1024 1401h-993v17h1013v-17l-1024 -1401h1031v-16h-1051z" />
    <glyph glyph-name="Eta" unicode="&#x397;" horiz-adv-x="1247" 
d="M162 0v1434h16v-693h891v693h16v-1434h-16v725h-891v-725h-16z" />
    <glyph glyph-name="Theta" unicode="&#x398;" horiz-adv-x="1304" 
d="M651 -12q-134 0 -238 55.5t-169.5 154.5t-99 230.5t-33.5 288.5t33.5 288.5t99 230.5t169.5 154.5t238 55.5t239 -55.5t170.5 -154.5t99.5 -230.5t34 -288.5t-34 -288.5t-99.5 -230.5t-170.5 -154.5t-239 -55.5zM651 4q130 0 232 54t165.5 150.5t96.5 225.5t33 283
t-33 283t-96.5 225.5t-165.5 150.5t-232 54t-231 -54t-164.5 -150.5t-96 -225.5t-32.5 -283t32.5 -283t96 -225.5t164.5 -150.5t231 -54zM360 709v16h590v-16h-590z" />
    <glyph glyph-name="Iota" unicode="&#x399;" horiz-adv-x="1040" 
d="M113 0v16h399v1401h-399v17h815v-17h-400v-1401h400v-16h-815z" />
    <glyph glyph-name="Kappa" unicode="&#x39a;" horiz-adv-x="1161" 
d="M162 0v1434h16v-1031l869 1031h20l-512 -607l565 -827h-20l-555 815l-367 -436v-379h-16z" />
    <glyph glyph-name="Lambda" unicode="&#x39b;" horiz-adv-x="1234" 
d="M51 0l559 1434h17l557 -1434h-19l-547 1411l-548 -1411h-19z" />
    <glyph glyph-name="Mu" unicode="&#x39c;" horiz-adv-x="1292" 
d="M162 0v1434h24l459 -897l461 897h24v-1434h-16v1413l-459 -893h-20l-457 893v-1413h-16z" />
    <glyph glyph-name="Nu" unicode="&#x39d;" horiz-adv-x="1255" 
d="M162 0v1434h24l891 -1414v1414h17v-1434h-23l-893 1417v-1417h-16z" />
    <glyph glyph-name="Xi" unicode="&#x39e;" horiz-adv-x="1183" 
d="M88 0v16h496v713h-342v16h342v672h-467v17h950v-17h-467v-672h342v-16h-342v-713h496v-16h-1008z" />
    <glyph glyph-name="Omicron" unicode="&#x39f;" horiz-adv-x="1304" 
d="M651 -12q-134 0 -238 55.5t-169.5 154.5t-99 230.5t-33.5 288.5t33.5 288.5t99 230.5t169.5 154.5t238 55.5t239 -55.5t170.5 -154.5t99.5 -230.5t34 -288.5t-34 -288.5t-99.5 -230.5t-170.5 -154.5t-239 -55.5zM651 4q130 0 232 54t165.5 150.5t96.5 225.5t33 283
t-33 283t-96.5 225.5t-165.5 150.5t-232 54t-231 -54t-164.5 -150.5t-96 -225.5t-32.5 -283t32.5 -283t96 -225.5t164.5 -150.5t231 -54z" />
    <glyph glyph-name="Pi" unicode="&#x3a0;" horiz-adv-x="1236" 
d="M162 0v1434h913v-1434h-16v1417h-881v-1417h-16z" />
    <glyph glyph-name="Rho" unicode="&#x3a1;" horiz-adv-x="1161" 
d="M162 0v1434h475q187 0 300.5 -108.5t113.5 -278.5q0 -168 -114.5 -275.5t-301.5 -107.5h-457v-664h-16zM178 680h457q179 0 289 103.5t110 263.5q0 162 -109 266t-288 104h-459v-737z" />
    <glyph glyph-name="Sigma" unicode="&#x3a3;" horiz-adv-x="1214" 
d="M82 0v16l577 719l-561 682v17h1022v-17h-999l555 -674v-14l-574 -713h1031v-16h-1051z" />
    <glyph glyph-name="Tau" unicode="&#x3a4;" horiz-adv-x="1208" 
d="M596 0v1417h-528v17h1073v-17h-529v-1417h-16z" />
    <glyph glyph-name="Upsilon" unicode="&#x3a5;" horiz-adv-x="1226" 
d="M604 0v526l-561 908h20l549 -889l551 889h21l-563 -908v-526h-17z" />
    <glyph glyph-name="Phi" unicode="&#x3a6;" horiz-adv-x="1437" 
d="M711 -41v121h-6q-284 0 -444.5 169t-160.5 468t160.5 468t444.5 169h6v121h16v-121h6q284 0 444 -169t160 -468t-160 -468t-444 -169h-6v-121h-16zM705 96h6v1241h-6q-277 0 -432.5 -164t-155.5 -456t155.5 -456.5t432.5 -164.5zM727 96h6q277 0 432.5 164.5t155.5 456.5
t-155.5 456t-432.5 164h-6v-1241z" />
    <glyph glyph-name="Chi" unicode="&#x3a7;" horiz-adv-x="1212" 
d="M74 0l522 731l-492 703h21l481 -689l481 689h21l-492 -701l523 -733h-21l-512 719l-512 -719h-20z" />
    <glyph glyph-name="Psi" unicode="&#x3a8;" horiz-adv-x="1318" 
d="M651 0v426q-257 2 -388.5 132t-131.5 388v488h16v-488q0 -501 504 -504v992h17v-992q503 3 503 504v488h17v-488q0 -258 -131.5 -388t-388.5 -132v-426h-17z" />
    <glyph glyph-name="uni03A9" unicode="&#x3a9;" horiz-adv-x="1286" 
d="M123 0v16h362v125q-178 83 -271 253t-93 413q0 295 140.5 467t381.5 172t381.5 -172t140.5 -467q0 -243 -93 -413t-271 -253v-125h362v-16h-379v152q180 82 272.5 248t92.5 407q0 287 -136.5 455t-369.5 168t-369.5 -168t-136.5 -455q0 -241 92.5 -407t272.5 -248v-152
h-379z" />
    <glyph glyph-name="Iotadieresis" unicode="&#x3aa;" horiz-adv-x="1040" 
d="M113 0v16h399v1401h-399v17h815v-17h-400v-1401h400v-16h-815zM715 1712q-13 0 -23 10t-10 23t10 23t23 10t23 -10t10 -23t-10 -23t-23 -10zM326 1712q-14 0 -23.5 10t-9.5 23t9.5 23t23.5 10q13 0 22.5 -9.5t9.5 -23.5t-9.5 -23.5t-22.5 -9.5z" />
    <glyph glyph-name="Upsilondieresis" unicode="&#x3ab;" horiz-adv-x="1226" 
d="M604 0v526l-561 908h20l549 -889l551 889h21l-563 -908v-526h-17zM795 1712q-13 0 -23 10t-10 23t10 23t23 10t22.5 -9.5t9.5 -23.5t-9.5 -23.5t-22.5 -9.5zM406 1712q-14 0 -23.5 10t-9.5 23t9.5 23t23.5 10q13 0 22.5 -9.5t9.5 -23.5t-9.5 -23.5t-22.5 -9.5z" />
    <glyph glyph-name="alphatonos" unicode="&#x3ac;" horiz-adv-x="1273" 
d="M578 -12q-207 0 -339.5 148t-132.5 380q0 231 132.5 379.5t339.5 148.5q170 0 292.5 -104.5t161.5 -277.5v370h17v-889q0 -67 26.5 -97t93.5 -30h43v-16h-43q-74 0 -105.5 35t-31.5 108v228q-39 -174 -161 -278.5t-293 -104.5zM578 4q200 0 327 143t127 369
q0 224 -127.5 368t-326.5 144t-327 -144t-128 -368q0 -225 127.5 -368.5t327.5 -143.5zM625 1174l106 290h17l-107 -290h-16z" />
    <glyph glyph-name="epsilontonos" unicode="&#x3ad;" horiz-adv-x="1032" 
d="M512 -12q-183 0 -294.5 80t-111.5 213q0 107 77 170t214 75q-116 11 -188 75t-72 167q0 124 113.5 200t284.5 76q180 0 285.5 -79t119.5 -209h-16q-14 122 -114.5 197t-274.5 75q-165 0 -273 -71.5t-108 -188.5q0 -111 87 -172t232 -61h182v-17h-182q-164 0 -257 -61.5
t-93 -175.5q0 -127 106.5 -202t282.5 -75q388 0 424 272h16q-15 -140 -125.5 -214t-314.5 -74zM508 1174l106 290h17l-107 -290h-16z" />
    <glyph glyph-name="etatonos" unicode="&#x3ae;" horiz-adv-x="1193" 
d="M1034 -410v1006q0 212 -99.5 322t-272.5 110q-194 0 -307 -139.5t-113 -380.5v-508h-17v889q0 67 -27 97t-94 30h-43v16h43q74 0 106 -35t32 -108v-219q37 180 146 277t274 97q181 0 285 -114.5t104 -333.5v-1006h-17zM444 1174l107 290h16l-106 -290h-17z" />
    <glyph glyph-name="iotatonos" unicode="&#x3af;" horiz-adv-x="792" 
d="M608 0q-107 0 -152.5 47.5t-45.5 149.5v819h-318v16h334v-835q0 -97 41 -139t139 -42h125v-16h-123zM410 1174l106 290h16l-106 -290h-16z" />
    <glyph glyph-name="upsilondieresistonos" unicode="&#x3b0;" horiz-adv-x="1093" 
d="M547 -12q-208 0 -306 115.5t-98 363.5v565h17v-565q0 -241 93 -352t294 -111t294 111t93 352v565h16v-565q0 -248 -97.5 -363.5t-305.5 -115.5zM541 1174l22 290h17l-23 -290h-16zM367 1311q-11 0 -18 7t-7 17q0 11 7 18t18 7q10 0 17 -7t7 -18t-6.5 -17.5t-17.5 -6.5z
M752 1311q-11 0 -18 7t-7 17q0 11 7.5 18t17.5 7t17 -7t7 -18t-7 -17.5t-17 -6.5z" />
    <glyph glyph-name="alpha" unicode="&#x3b1;" horiz-adv-x="1273" 
d="M578 -12q-207 0 -339.5 148t-132.5 380q0 231 132.5 379.5t339.5 148.5q170 0 292.5 -104.5t161.5 -277.5v370h17v-889q0 -67 26.5 -97t93.5 -30h43v-16h-43q-74 0 -105.5 35t-31.5 108v228q-39 -174 -161 -278.5t-293 -104.5zM578 4q200 0 327 143t127 369
q0 224 -127.5 368t-326.5 144t-327 -144t-128 -368q0 -225 127.5 -368.5t327.5 -143.5z" />
    <glyph glyph-name="beta" unicode="&#x3b2;" horiz-adv-x="1136" 
d="M154 -410v1459q0 182 106.5 289.5t286.5 107.5q167 0 270 -91.5t103 -240.5q0 -138 -89 -232.5t-247 -123.5q205 -7 325.5 -113t120.5 -278q0 -167 -116.5 -273t-299.5 -106q-173 0 -291 92t-153 252v-742h-16zM614 4q177 0 288.5 101.5t111.5 261.5q0 177 -131 279
t-357 102h-125v16h70q197 0 314.5 95t117.5 255q0 141 -98 228.5t-258 87.5q-172 0 -274.5 -103.5t-102.5 -277.5v-582q0 -210 121.5 -336.5t322.5 -126.5z" />
    <glyph glyph-name="gamma" unicode="&#x3b3;" horiz-adv-x="1003" 
d="M494 -328v363l-443 997h19l432 -977l432 977h18l-442 -997v-363h-16z" />
    <glyph glyph-name="delta" unicode="&#x3b4;" horiz-adv-x="1142" 
d="M569 -12q-209 0 -336 132.5t-127 348.5q0 211 132 345t342 134q131 0 241 -67l-602 536v17h762v-17h-737l604 -540q100 -90 144 -186t44 -222q0 -215 -128.5 -348t-338.5 -133zM569 4q202 0 326.5 129t124.5 336q0 203 -123 333t-317 130q-202 0 -329.5 -129.5
t-127.5 -333.5q0 -208 122 -336.5t324 -128.5z" />
    <glyph glyph-name="epsilon" unicode="&#x3b5;" horiz-adv-x="1032" 
d="M512 -12q-183 0 -294.5 80t-111.5 213q0 107 77 170t214 75q-116 11 -188 75t-72 167q0 124 113.5 200t284.5 76q180 0 285.5 -79t119.5 -209h-16q-14 122 -114.5 197t-274.5 75q-165 0 -273 -71.5t-108 -188.5q0 -111 87 -172t232 -61h182v-17h-182q-164 0 -257 -61.5
t-93 -175.5q0 -127 106.5 -202t282.5 -75q388 0 424 272h16q-15 -140 -125.5 -214t-314.5 -74z" />
    <glyph glyph-name="zeta" unicode="&#x3b6;" horiz-adv-x="1064" 
d="M930 -276v104q0 99 -39.5 135.5t-147.5 36.5h-96q-264 0 -394 80t-130 244q0 89 36 172t132 203t282 311l396 407h-799v17h821v-17l-403 -416q-188 -193 -283.5 -311.5t-130.5 -198.5t-35 -167q0 -156 125 -232t381 -76h98q116 0 159.5 -40.5t43.5 -147.5v-104h-16z" />
    <glyph glyph-name="eta" unicode="&#x3b7;" horiz-adv-x="1193" 
d="M1034 -410v1006q0 212 -99.5 322t-272.5 110q-194 0 -307 -139.5t-113 -380.5v-508h-17v889q0 67 -27 97t-94 30h-43v16h43q74 0 106 -35t32 -108v-219q37 180 146 277t274 97q181 0 285 -114.5t104 -333.5v-1006h-17z" />
    <glyph glyph-name="theta" unicode="&#x3b8;" 
d="M578 -12q-223 0 -347.5 192.5t-124.5 538.5t124 536.5t348 190.5t347.5 -190.5t123.5 -536.5t-124 -538.5t-347 -192.5zM578 4q215 0 334.5 188.5t119.5 526.5h-909q0 -338 120 -526.5t335 -188.5zM123 735h909q-5 333 -122.5 514t-331.5 181t-332 -181t-123 -514z" />
    <glyph glyph-name="iota" unicode="&#x3b9;" horiz-adv-x="792" 
d="M608 0q-107 0 -152.5 47.5t-45.5 149.5v819h-318v16h334v-835q0 -97 41 -139t139 -42h125v-16h-123z" />
    <glyph glyph-name="kappa" unicode="&#x3ba;" horiz-adv-x="1034" 
d="M154 0v1032h16v-741l547 637q54 63 94.5 83.5t108.5 20.5h43v-16h-43q-64 0 -101 -19t-90 -79l-266 -310l526 -608h-20l-516 596l-283 -330v-266h-16z" />
    <glyph glyph-name="lambda" unicode="&#x3bb;" horiz-adv-x="1021" 
d="M61 0l437 1004l-109 243q-47 105 -82.5 137.5t-109.5 32.5h-95v17h93q78 0 118.5 -34.5t89.5 -144.5l558 -1255h-19l-436 983l-426 -983h-19z" />
    <glyph glyph-name="uni03BC" unicode="&#x3bc;" horiz-adv-x="1191" 
d="M154 -410v1442h16v-583q0 -212 100 -328.5t267 -116.5q187 0 300 145.5t113 387.5v495h17v-889q0 -67 26.5 -97t93.5 -30h43v-16h-43q-74 0 -105.5 35t-31.5 108v232q-35 -181 -144.5 -284t-268.5 -103q-140 0 -237 79t-130 226v-703h-16z" />
    <glyph glyph-name="nu" unicode="&#x3bd;" horiz-adv-x="1001" 
d="M494 0l-443 1032h19l432 -1007l430 1007h18l-440 -1032h-16z" />
    <glyph glyph-name="xi" unicode="&#x3be;" horiz-adv-x="1062" 
d="M909 -276v110q0 96 -39.5 129.5t-148.5 36.5l-146 4q-245 6 -357 93t-112 278q0 156 103 254t274 116q-135 20 -214 103t-79 209q0 83 36.5 148.5t103 108.5t150.5 69t186 36l-496 -2v17h797v-17q-142 0 -226 -4q-255 -15 -394.5 -105.5t-139.5 -250.5q0 -139 100.5 -221
t270.5 -82h272v-17h-272q-216 0 -335.5 -98.5t-119.5 -263.5q0 -184 107 -266.5t345 -88.5l146 -4q118 -3 161.5 -41t43.5 -141v-110h-17z" />
    <glyph glyph-name="omicron" unicode="&#x3bf;" 
d="M578 -12q-207 0 -339.5 147.5t-132.5 380.5t132.5 380.5t339.5 147.5t339 -147.5t132 -380.5t-132 -380.5t-339 -147.5zM578 4q200 0 327 142.5t127 369.5t-127 369.5t-327 142.5t-327.5 -142.5t-127.5 -369.5t127.5 -369.5t327.5 -142.5z" />
    <glyph glyph-name="pi" unicode="&#x3c0;" horiz-adv-x="1269" 
d="M260 0v1016h-219v16h1176v-16h-218v-873q0 -67 27 -97t94 -30h43v-16h-43q-74 0 -105.5 35t-31.5 108v873h-707v-1016h-16z" />
    <glyph glyph-name="rho" unicode="&#x3c1;" horiz-adv-x="1191" 
d="M143 -410v926q0 233 132 380.5t339 147.5t339 -147.5t132 -380.5q0 -232 -132 -380t-339 -148q-171 0 -293 104.5t-161 278.5v-781h-17zM614 4q200 0 327.5 143.5t127.5 368.5q0 227 -127.5 369.5t-327.5 142.5t-327 -142.5t-127 -369.5q0 -226 127 -369t327 -143z" />
    <glyph glyph-name="sigma1" unicode="&#x3c2;" horiz-adv-x="1095" 
d="M840 -276v118q0 90 -39 124t-139 34h-60q-496 0 -496 514q0 233 132.5 381.5t339.5 148.5q157 0 270 -83.5t151 -229.5h-16q-38 138 -146 217.5t-259 79.5q-202 0 -328.5 -144t-126.5 -370q0 -498 479 -498h60q109 0 151.5 -38.5t42.5 -135.5v-118h-16z" />
    <glyph glyph-name="sigma" unicode="&#x3c3;" horiz-adv-x="1191" 
d="M578 -12q-207 0 -339.5 147t-132.5 377t132.5 375t339.5 145h587v-16h-467q160 -42 255.5 -177t95.5 -327q0 -230 -132 -377t-339 -147zM578 4q200 0 327 142t127 366t-127 364t-327 140t-327.5 -140.5t-127.5 -363.5q0 -224 127.5 -366t327.5 -142z" />
    <glyph glyph-name="tau" unicode="&#x3c4;" horiz-adv-x="1083" 
d="M719 0q-106 0 -153.5 47t-47.5 154v815h-444v16h936v-16h-475v-815q0 -100 42 -142.5t142 -42.5h129v-16h-129z" />
    <glyph glyph-name="upsilon" unicode="&#x3c5;" horiz-adv-x="1093" 
d="M547 -12q-208 0 -306 115.5t-98 363.5v565h17v-565q0 -241 93 -352t294 -111t294 111t93 352v565h16v-565q0 -248 -97.5 -363.5t-305.5 -115.5z" />
    <glyph glyph-name="phi" unicode="&#x3c6;" horiz-adv-x="1335" 
d="M659 -410v410h-26q-234 0 -380.5 143.5t-146.5 372.5t146.5 372.5t380.5 143.5h26v287h17v-287h26q234 0 380.5 -143.5t146.5 -372.5t-146.5 -372.5t-380.5 -143.5h-26v-410h-17zM633 16h26v1000h-26q-227 0 -368.5 -139t-141.5 -361t141.5 -361t368.5 -139zM676 16h26
q227 0 368.5 139t141.5 361t-141.5 361t-368.5 139h-26v-1000z" />
    <glyph glyph-name="chi" unicode="&#x3c7;" horiz-adv-x="1183" 
d="M147 -410l445 717l-307 531q-47 82 -73.5 115t-61.5 48t-97 15h-22v16h22q66 0 103 -15.5t65 -50t76 -118.5l305 -529l426 713h19l-435 -725l297 -522q46 -81 73 -114t66 -48.5t109 -15.5h6v-17h-6q-55 0 -88.5 6.5t-63 30t-51 54.5t-57.5 94l-295 520l-436 -705h-19z
" />
    <glyph glyph-name="psi" unicode="&#x3c8;" horiz-adv-x="1298" 
d="M641 -410v398q-255 2 -376.5 117.5t-121.5 361.5v565h17v-565q0 -239 116.5 -350t364.5 -113v1307h16v-1307q248 2 365 113.5t117 349.5v565h16v-565q0 -246 -121.5 -361.5t-376.5 -117.5v-398h-16z" />
    <glyph glyph-name="omega" unicode="&#x3c9;" horiz-adv-x="1359" 
d="M418 -12q-153 0 -227 117.5t-74 353.5q0 177 61.5 335.5t157.5 237.5h22q-102 -87 -163.5 -241t-61.5 -332q0 -230 69.5 -342.5t215.5 -112.5q119 0 186.5 99t67.5 272v276h16v-276q0 -173 67.5 -272t184.5 -99q287 0 287 455q0 179 -60.5 331t-165.5 242h23
q96 -79 157.5 -237.5t61.5 -335.5q0 -231 -76.5 -351t-226.5 -120q-104 0 -170.5 73t-89.5 218q-46 -291 -262 -291z" />
    <glyph glyph-name="iotadieresis" unicode="&#x3ca;" horiz-adv-x="792" 
d="M608 0q-107 0 -152.5 47.5t-45.5 149.5v819h-318v16h334v-835q0 -97 41 -139t139 -42h125v-16h-123zM182 1346q-15 0 -25 9.5t-10 24.5t10 25t25 10t25 -10t10 -25t-10 -24.5t-25 -9.5zM653 1346q-15 0 -25 9.5t-10 24.5t10 25t25 10t25 -10t10 -25t-10 -24.5t-25 -9.5z
" />
    <glyph glyph-name="upsilondieresis" unicode="&#x3cb;" horiz-adv-x="1093" 
d="M547 -12q-208 0 -306 115.5t-98 363.5v565h17v-565q0 -241 93 -352t294 -111t294 111t93 352v565h16v-565q0 -248 -97.5 -363.5t-305.5 -115.5zM311 1346q-15 0 -25 9.5t-10 24.5t10 25t25 10t25 -10t10 -25t-10 -24.5t-25 -9.5zM782 1346q-15 0 -24.5 9.5t-9.5 24.5
t9.5 25t24.5 10t25 -10t10 -25t-10 -24.5t-25 -9.5z" />
    <glyph glyph-name="omicrontonos" unicode="&#x3cc;" 
d="M578 -12q-207 0 -339.5 147.5t-132.5 380.5t132.5 380.5t339.5 147.5t339 -147.5t132 -380.5t-132 -380.5t-339 -147.5zM578 4q200 0 327 142.5t127 369.5t-127 369.5t-327 142.5t-327.5 -142.5t-127.5 -369.5t127.5 -369.5t327.5 -142.5zM569 1174l107 290h16l-106 -290
h-17z" />
    <glyph glyph-name="upsilontonos" unicode="&#x3cd;" horiz-adv-x="1093" 
d="M547 -12q-208 0 -306 115.5t-98 363.5v565h17v-565q0 -241 93 -352t294 -111t294 111t93 352v565h16v-565q0 -248 -97.5 -363.5t-305.5 -115.5zM539 1174l106 290h17l-107 -290h-16z" />
    <glyph glyph-name="omegatonos" unicode="&#x3ce;" horiz-adv-x="1359" 
d="M418 -12q-153 0 -227 117.5t-74 353.5q0 177 61.5 335.5t157.5 237.5h22q-102 -87 -163.5 -241t-61.5 -332q0 -230 69.5 -342.5t215.5 -112.5q119 0 186.5 99t67.5 272v276h16v-276q0 -173 67.5 -272t184.5 -99q287 0 287 455q0 179 -60.5 331t-165.5 242h23
q96 -79 157.5 -237.5t61.5 -335.5q0 -231 -76.5 -351t-226.5 -120q-104 0 -170.5 73t-89.5 218q-46 -291 -262 -291zM672 1174l106 290h17l-107 -290h-16z" />
    <glyph glyph-name="uni0400" unicode="&#x400;" horiz-adv-x="1085" 
d="M162 0v1434h807v-17h-791v-672h680v-16h-680v-713h819v-16h-835zM573 1575l-202 260h20l203 -260h-21z" />
    <glyph glyph-name="uni0401" unicode="&#x401;" horiz-adv-x="1085" 
d="M162 0v1434h807v-17h-791v-672h680v-16h-680v-713h819v-16h-835z" />
    <glyph glyph-name="uni0402" unicode="&#x402;" horiz-adv-x="1476" 
d="M956 -276v16h80q160 0 246 104t86 297v310q0 395 -377 395q-197 0 -420 -96v-750h-16v1417h-487v17h1073v-17h-570v-649q223 94 420 94q393 0 393 -411v-310q0 -199 -91 -308t-257 -109h-80z" />
    <glyph glyph-name="uni0403" unicode="&#x403;" horiz-adv-x="1298" 
d="M113 0v16h315v1401h-315v17h1073v-398h-17v381h-725v-1401h398v-16h-729zM709 1575l202 260h21l-203 -260h-20z" />
    <glyph glyph-name="uni0404" unicode="&#x404;" horiz-adv-x="1280" 
d="M680 -12q-181 0 -311 93.5t-194 256t-64 377.5q0 216 64 379.5t194 257.5t311 94q199 0 326.5 -105.5t171.5 -308.5h-17q-44 196 -166.5 297t-314.5 101q-175 0 -300.5 -90t-188 -246t-64.5 -363h696v-16h-696q0 -211 62.5 -370t188.5 -250t302 -91q392 0 477 399h17
q-89 -415 -494 -415z" />
    <glyph glyph-name="uni0405" unicode="&#x405;" horiz-adv-x="1220" 
d="M610 -12q-204 0 -331.5 111.5t-139.5 301.5h17q10 -183 133 -290t321 -107q209 0 332 99t123 268q0 52 -14 96t-36 75.5t-59 57.5t-72.5 43.5t-86.5 32.5t-91.5 24t-97.5 19q-63 11 -95.5 17.5t-87.5 21t-85 29.5t-68.5 41.5t-58 58t-33.5 77t-14 101.5q0 179 123 280
t336 101q182 0 300 -99t140 -268h-16q-22 163 -135.5 257t-288.5 94q-205 0 -324 -97t-119 -268q0 -42 8 -77.5t20.5 -62.5t34.5 -50.5t43 -40t54 -31t59.5 -23.5t66.5 -18.5t68 -14.5t72 -12q57 -10 100 -19t95 -24t89.5 -33.5t75 -46t61 -61t38 -79.5t14.5 -101
q0 -177 -127 -280t-344 -103z" />
    <glyph glyph-name="uni0406" unicode="&#x406;" horiz-adv-x="1040" 
d="M113 0v16h399v1401h-399v17h815v-17h-400v-1401h400v-16h-815z" />
    <glyph glyph-name="uni0407" unicode="&#x407;" horiz-adv-x="1040" 
d="M113 0v16h399v1401h-399v17h815v-17h-400v-1401h400v-16h-815zM715 1712q-13 0 -23 10t-10 23t10 23t23 10t23 -10t10 -23t-10 -23t-23 -10zM326 1712q-14 0 -23.5 10t-9.5 23t9.5 23t23.5 10q13 0 22.5 -9.5t9.5 -23.5t-9.5 -23.5t-22.5 -9.5z" />
    <glyph glyph-name="uni0408" unicode="&#x408;" horiz-adv-x="1150" 
d="M573 -12q-225 0 -333.5 125t-108.5 385h16q0 -253 104.5 -373.5t321.5 -120.5q213 0 314.5 121t101.5 393v899h-590v17h607v-916q0 -279 -106.5 -404.5t-326.5 -125.5z" />
    <glyph glyph-name="uni0409" unicode="&#x409;" horiz-adv-x="1589" 
d="M20 0v16h29q121 0 172 150t51 496v772h623v-662h197q192 0 294.5 -101.5t102.5 -283.5q0 -183 -103 -285t-296 -102h-211v1417h-590v-755q0 -352 -56 -507t-184 -155h-29zM895 16h195q185 0 284 97.5t99 271.5q0 175 -98.5 273t-282.5 98h-197v-740z" />
    <glyph glyph-name="uni040A" unicode="&#x40a;" horiz-adv-x="1554" 
d="M152 0v1434h16v-662h676v662h16v-662h197q192 0 294.5 -101.5t102.5 -283.5q0 -183 -103 -285t-296 -102h-211v756h-676v-756h-16zM860 16h195q185 0 284 97.5t99 271.5q0 175 -98.5 273t-282.5 98h-197v-740z" />
    <glyph glyph-name="uni040B" unicode="&#x40b;" horiz-adv-x="1497" 
d="M555 0v1417h-487v17h1073v-17h-570v-649q223 94 420 94q198 0 306 -104t108 -307v-451h-16v451q0 195 -103 295t-295 100q-197 0 -420 -96v-750h-16z" />
    <glyph glyph-name="uni040C" unicode="&#x40c;" horiz-adv-x="1193" 
d="M162 0v1434h16v-693h344l537 693h20l-542 -701l583 -733h-20l-578 725h-344v-725h-16zM600 1575l203 260h20l-202 -260h-21z" />
    <glyph glyph-name="uni040D" unicode="&#x40d;" horiz-adv-x="1263" 
d="M162 0v1434h16v-1414l901 1414h23v-1434h-17v1413l-901 -1413h-22zM623 1575l-203 260h20l203 -260h-20z" />
    <glyph glyph-name="uni040E" unicode="&#x40e;" horiz-adv-x="1175" 
d="M180 0v16h125q85 0 134 37.5t102 149.5l69 149l-567 1082h18l557 -1063l496 1063h19l-578 -1235q-56 -119 -107.5 -159t-142.5 -40h-125zM584 1606q-111 0 -176.5 63t-65.5 166h16q0 -94 61.5 -153.5t164.5 -59.5q106 0 169.5 59.5t63.5 153.5h17q0 -102 -68 -165.5
t-182 -63.5z" />
    <glyph glyph-name="uni040F" unicode="&#x40f;" horiz-adv-x="1228" 
d="M606 -293v293h-444v1434h16v-1418h873v1418h16v-1434h-444v-293h-17z" />
    <glyph glyph-name="uni0410" unicode="&#x410;" horiz-adv-x="1234" 
d="M51 0l557 1434h17l559 -1434h-19l-200 512h-697l-198 -512h-19zM274 528h684l-342 883z" />
    <glyph glyph-name="uni0411" unicode="&#x411;" horiz-adv-x="1091" 
d="M162 0v1434h727v-17h-711v-622h404q194 0 311 -109.5t117 -290.5q0 -180 -117.5 -287.5t-312.5 -107.5h-418zM178 16h402q187 0 300 103.5t113 275.5q0 173 -112.5 278t-298.5 105h-404v-762z" />
    <glyph glyph-name="uni0412" unicode="&#x412;" horiz-adv-x="1148" 
d="M162 0v1434h405q198 0 306 -94.5t108 -260.5q0 -139 -79 -228t-224 -114q181 -22 275 -112t94 -242q0 -182 -120.5 -282.5t-359.5 -100.5h-405zM178 16h389q229 0 346 97t117 270q0 167 -119.5 255.5t-343.5 88.5h-389v-711zM178 743h389q188 0 293 89.5t105 246.5
q0 158 -104 248t-294 90h-389v-674z" />
    <glyph glyph-name="uni0413" unicode="&#x413;" horiz-adv-x="1298" 
d="M113 0v16h315v1401h-315v17h1073v-398h-17v381h-725v-1401h398v-16h-729z" />
    <glyph glyph-name="uni0414" unicode="&#x414;" horiz-adv-x="1546" 
d="M166 -293v309h102q75 91 108.5 244t33.5 412v762h831v-1418h119v-309h-17v293h-1161v-293h-16zM289 16h936v1401h-799v-745q0 -255 -32.5 -410t-104.5 -246z" />
    <glyph glyph-name="uni0415" unicode="&#x415;" horiz-adv-x="1085" 
d="M162 0v1434h807v-17h-791v-672h680v-16h-680v-713h819v-16h-835z" />
    <glyph glyph-name="uni0416" unicode="&#x416;" horiz-adv-x="1437" 
d="M63 0l359 731l-316 703h17l313 -693h275v693h16v-693h274l314 693h16l-315 -703l358 -731h-18l-355 725h-274v-725h-16v725h-275l-354 -725h-19z" />
    <glyph glyph-name="uni0417" unicode="&#x417;" horiz-adv-x="1185" 
d="M627 -12q-206 0 -327.5 104t-141.5 297h16q20 -187 138 -286t315 -99q203 0 321.5 101t118.5 272q0 169 -105.5 257.5t-306.5 88.5h-219v16h219q174 0 275.5 97.5t101.5 255.5q0 155 -110.5 246.5t-298.5 91.5q-191 0 -301 -93t-134 -264h-16q25 180 140.5 276.5
t310.5 96.5q196 0 311 -96t115 -258q0 -146 -84 -243t-224 -116q163 -15 252.5 -105t89.5 -251q0 -180 -122 -284.5t-334 -104.5z" />
    <glyph glyph-name="uni0418" unicode="&#x418;" horiz-adv-x="1263" 
d="M162 0v1434h16v-1414l901 1414h23v-1434h-17v1413l-901 -1413h-22z" />
    <glyph glyph-name="uni0419" unicode="&#x419;" horiz-adv-x="1263" 
d="M162 0v1434h16v-1414l901 1414h23v-1434h-17v1413l-901 -1413h-22zM629 1606q-111 0 -176.5 63t-65.5 166h16q0 -94 61.5 -153.5t164.5 -59.5q106 0 169.5 59.5t63.5 153.5h17q0 -102 -68 -165.5t-182 -63.5z" />
    <glyph glyph-name="uni041A" unicode="&#x41a;" horiz-adv-x="1193" 
d="M162 0v1434h16v-693h344l537 693h20l-542 -701l583 -733h-20l-578 725h-344v-725h-16z" />
    <glyph glyph-name="uni041B" unicode="&#x41b;" horiz-adv-x="1345" 
d="M20 0v16h33q73 0 122 31t85 110.5t52 220.5t16 357v699h856v-1434h-17v1417h-823v-682q0 -219 -17 -362.5t-55 -225.5t-90 -114.5t-129 -32.5h-33z" />
    <glyph glyph-name="uni041C" unicode="&#x41c;" horiz-adv-x="1292" 
d="M162 0v1434h24l459 -897l461 897h24v-1434h-16v1413l-459 -893h-20l-457 893v-1413h-16z" />
    <glyph glyph-name="uni041D" unicode="&#x41d;" horiz-adv-x="1247" 
d="M162 0v1434h16v-693h891v693h16v-1434h-16v725h-891v-725h-16z" />
    <glyph glyph-name="uni041E" unicode="&#x41e;" horiz-adv-x="1304" 
d="M651 -12q-134 0 -238 55.5t-169.5 154.5t-99 230.5t-33.5 288.5t33.5 288.5t99 230.5t169.5 154.5t238 55.5t239 -55.5t170.5 -154.5t99.5 -230.5t34 -288.5t-34 -288.5t-99.5 -230.5t-170.5 -154.5t-239 -55.5zM651 4q130 0 232 54t165.5 150.5t96.5 225.5t33 283
t-33 283t-96.5 225.5t-165.5 150.5t-232 54t-231 -54t-164.5 -150.5t-96 -225.5t-32.5 -283t32.5 -283t96 -225.5t164.5 -150.5t231 -54z" />
    <glyph glyph-name="uni041F" unicode="&#x41f;" horiz-adv-x="1236" 
d="M162 0v1434h913v-1434h-16v1417h-881v-1417h-16z" />
    <glyph glyph-name="uni0420" unicode="&#x420;" horiz-adv-x="1161" 
d="M162 0v1434h475q187 0 300.5 -108.5t113.5 -278.5q0 -168 -114.5 -275.5t-301.5 -107.5h-457v-664h-16zM178 680h457q179 0 289 103.5t110 263.5q0 162 -109 266t-288 104h-459v-737z" />
    <glyph glyph-name="uni0421" unicode="&#x421;" horiz-adv-x="1280" 
d="M680 -12q-181 0 -311 93.5t-194 256t-64 377.5q0 216 64 379.5t194 257.5t311 94q199 0 326.5 -105.5t171.5 -308.5h-17q-44 196 -166.5 297t-314.5 101q-177 0 -303 -92t-188 -252t-62 -371t62.5 -370t188.5 -250t302 -91q392 0 477 399h17q-89 -415 -494 -415z" />
    <glyph glyph-name="uni0422" unicode="&#x422;" horiz-adv-x="1208" 
d="M596 0v1417h-528v17h1073v-17h-529v-1417h-16z" />
    <glyph glyph-name="uni0423" unicode="&#x423;" horiz-adv-x="1175" 
d="M180 0v16h125q85 0 134 37.5t102 149.5l69 149l-567 1082h18l557 -1063l496 1063h19l-578 -1235q-56 -119 -107.5 -159t-142.5 -40h-125z" />
    <glyph glyph-name="uni0424" unicode="&#x424;" horiz-adv-x="1437" 
d="M711 -41v121h-6q-284 0 -444.5 169t-160.5 468t160.5 468t444.5 169h6v121h16v-121h6q284 0 444 -169t160 -468t-160 -468t-444 -169h-6v-121h-16zM705 96h6v1241h-6q-277 0 -432.5 -164t-155.5 -456t155.5 -456.5t432.5 -164.5zM727 96h6q277 0 432.5 164.5t155.5 456.5
t-155.5 456t-432.5 164h-6v-1241z" />
    <glyph glyph-name="uni0425" unicode="&#x425;" horiz-adv-x="1212" 
d="M74 0l522 731l-492 703h21l481 -689l481 689h21l-492 -701l523 -733h-21l-512 719l-512 -719h-20z" />
    <glyph glyph-name="uni0426" unicode="&#x426;" horiz-adv-x="1372" 
d="M162 0v1434h16v-1418h873v1418h16v-1418h119v-309h-17v293h-1007z" />
    <glyph glyph-name="uni0427" unicode="&#x427;" horiz-adv-x="1124" 
d="M946 0v659q-193 -88 -440 -88q-198 0 -306 104.5t-108 307.5v451h17v-451q0 -196 102.5 -295.5t294.5 -99.5q239 0 440 90v756h17v-1434h-17z" />
    <glyph glyph-name="uni0428" unicode="&#x428;" horiz-adv-x="1531" 
d="M152 0v1434h16v-1418h590v1418h16v-1418h590v1418h16v-1434h-1228z" />
    <glyph glyph-name="uni0429" unicode="&#x429;" horiz-adv-x="1685" 
d="M152 0v1434h16v-1418h590v1418h16v-1418h590v1418h16v-1418h119v-309h-16v293h-1331z" />
    <glyph glyph-name="uni042A" unicode="&#x42a;" horiz-adv-x="1505" 
d="M516 0v1417h-448v17h464v-619h424q198 0 318.5 -114.5t120.5 -294.5q0 -177 -122 -291.5t-319 -114.5h-438zM532 16h422q190 0 307 110.5t117 279.5q0 171 -116.5 282t-305.5 111h-424v-783z" />
    <glyph glyph-name="uni042B" unicode="&#x42b;" horiz-adv-x="1454" 
d="M152 0v1434h16v-619h424q198 0 318 -114.5t120 -294.5q0 -177 -121.5 -291.5t-318.5 -114.5h-438zM168 16h422q190 0 307 110.5t117 279.5q0 171 -116.5 282t-305.5 111h-424v-783zM1286 0v1434h17v-1434h-17z" />
    <glyph glyph-name="uni042C" unicode="&#x42c;" horiz-adv-x="1161" 
d="M162 0v1434h16v-619h434q198 0 318.5 -114.5t120.5 -294.5q0 -177 -122 -291.5t-319 -114.5h-448zM178 16h432q190 0 307 110.5t117 279.5q0 171 -116.5 282t-305.5 111h-434v-783z" />
    <glyph glyph-name="uni042D" unicode="&#x42d;" horiz-adv-x="1280" 
d="M600 -12q-405 0 -494 415h17q85 -399 477 -399q176 0 302 91t188.5 250t62.5 370h-696v16h696q-2 207 -64.5 363t-188 246t-300.5 90q-192 0 -314.5 -101t-166.5 -297h-17q44 203 171.5 308.5t326.5 105.5q181 0 311 -94t194 -257.5t64 -379.5q0 -215 -64 -377.5
t-194 -256t-311 -93.5z" />
    <glyph glyph-name="uni042E" unicode="&#x42e;" horiz-adv-x="1562" 
d="M963 -12q-236 0 -368 192t-132 545h-295v-725h-16v1434h16v-693h295q2 153 33.5 279.5t91.5 222.5t155.5 149.5t219.5 53.5q126 0 222.5 -55t156.5 -154.5t90 -230.5t30 -289t-30 -289t-90 -230.5t-156.5 -154.5t-222.5 -55zM963 4q122 0 216 54t151.5 151t86.5 225
t29 283t-29 283t-86.5 225t-151.5 151t-216 54t-216 -54t-152 -151t-87 -225t-29 -283t29 -283t87 -225t152 -151t216 -54z" />
    <glyph glyph-name="uni042F" unicode="&#x42f;" horiz-adv-x="1228" 
d="M131 0l422 664q-192 0 -306 104t-114 279q0 177 112.5 282t301.5 105h520v-1434h-16v664h-480l-421 -664h-19zM549 680h502v737h-504q-182 0 -289.5 -100t-107.5 -270q0 -168 108 -267.5t291 -99.5z" />
    <glyph glyph-name="uni0430" unicode="&#x430;" horiz-adv-x="1114" 
d="M444 -12q-158 0 -250 76.5t-92 207.5q0 133 103 210t293 77h411v119q0 166 -94 258t-272 92q-156 0 -254 -69t-123 -187h-16q22 123 127 197.5t266 74.5q186 0 284.5 -96t98.5 -270v-518q0 -83 31.5 -113.5t95.5 -30.5h20v-16h-20q-70 0 -107 35t-37 125v141
q-38 -146 -157 -229.5t-308 -83.5zM444 4q217 0 341 114t124 294v131h-411q-184 0 -281.5 -73t-97.5 -198q0 -123 87.5 -195.5t237.5 -72.5z" />
    <glyph glyph-name="uni0431" unicode="&#x431;" horiz-adv-x="1153" 
d="M582 -12q-205 0 -335 140.5t-130 393.5q0 190 16.5 323.5t53 235t101 164.5t154.5 100.5t220 55.5l323 45v-16l-323 -46q-121 -17 -206 -50.5t-145.5 -87.5t-97 -140.5t-55.5 -197t-25 -267.5q16 64 53 123.5t92.5 109.5t135.5 79.5t172 29.5q201 0 331 -140.5
t130 -357.5q0 -216 -132 -356.5t-333 -140.5zM582 4q194 0 321 135.5t127 345.5q0 211 -125 346.5t-319 135.5q-195 0 -324 -129.5t-129 -315.5q0 -247 125.5 -382.5t323.5 -135.5z" />
    <glyph glyph-name="uni0432" unicode="&#x432;" horiz-adv-x="1046" 
d="M154 0v1032h430q161 0 235 -65t74 -189q0 -104 -52.5 -166t-168.5 -80q268 -32 268 -262q0 -131 -92.5 -200.5t-263.5 -69.5h-430zM170 16h414q165 0 252.5 64.5t87.5 189.5t-87.5 189.5t-252.5 64.5h-414v-508zM170 541h414q155 0 224 59.5t69 177.5t-69 178t-224 60
h-414v-475z" />
    <glyph glyph-name="uni0433" unicode="&#x433;" horiz-adv-x="1052" 
d="M92 0v16h250v1000h-250v16h869v-334h-17v318h-586v-1000h332v-16h-598z" />
    <glyph glyph-name="uni0434" unicode="&#x434;" horiz-adv-x="1153" 
d="M45 -272v288h100q47 46 72.5 98.5t42 167.5t16.5 302v448h682v-1016h144v-288h-17v272h-1024v-272h-16zM168 16h774v1000h-649v-432q0 -263 -30 -382.5t-95 -185.5z" />
    <glyph glyph-name="uni0435" unicode="&#x435;" horiz-adv-x="1126" 
d="M575 -12q-206 0 -337.5 148.5t-131.5 395.5q0 222 128.5 367t328.5 145q199 0 328 -128t129 -353v-6h-897v-25q0 -151 54 -270t157.5 -188.5t240.5 -69.5q150 0 265 91t153 243h17q-38 -159 -158.5 -254.5t-276.5 -95.5zM125 573h879q-5 146 -64.5 250.5t-156 154.5
t-220.5 50q-181 0 -303.5 -127t-134.5 -328z" />
    <glyph glyph-name="uni0436" unicode="&#x436;" horiz-adv-x="1286" 
d="M45 0l350 532l-309 500h18l306 -491h225v491h16v-491h226l305 491h18l-309 -500l350 -532h-20l-344 524h-226v-524h-16v524h-225l-344 -524h-21z" />
    <glyph glyph-name="uni0437" unicode="&#x437;" horiz-adv-x="1017" 
d="M504 -12q-374 0 -402 288h17q28 -272 385 -272q182 0 286.5 75.5t104.5 201.5q0 115 -87.5 176t-248.5 61h-178v17h178q143 0 226 61t83 172q0 119 -94.5 189.5t-259.5 70.5q-170 0 -273.5 -75.5t-117.5 -196.5h-17q14 128 124 208t284 80q171 0 271 -75t100 -201
q0 -102 -68 -166t-176 -76q129 -14 199.5 -75.5t70.5 -169.5q0 -132 -109 -212.5t-298 -80.5z" />
    <glyph glyph-name="uni0438" unicode="&#x438;" horiz-adv-x="1124" 
d="M154 0v1032h16v-1005l784 1005h17v-1032h-17v1006l-784 -1006h-16z" />
    <glyph glyph-name="uni0439" unicode="&#x439;" horiz-adv-x="1124" 
d="M154 0v1032h16v-1005l784 1005h17v-1032h-17v1006l-784 -1006h-16zM559 1204q-111 0 -176.5 63.5t-65.5 166.5h17q0 -94 61 -153.5t164 -59.5q106 0 170 59.5t64 153.5h16q0 -102 -68 -166t-182 -64z" />
    <glyph glyph-name="uni043A" unicode="&#x43a;" horiz-adv-x="993" 
d="M154 0v1032h16v-491h291l424 491h22l-432 -500l473 -532h-22l-465 524h-291v-524h-16z" />
    <glyph glyph-name="uni043B" unicode="&#x43b;" horiz-adv-x="1091" 
d="M31 0v16h24q75 0 118 52t63 170.5t20 324.5v469h682v-1032h-16v1016h-650v-453q0 -311 -49 -437t-168 -126h-24z" />
    <glyph glyph-name="uni043C" unicode="&#x43c;" horiz-adv-x="1275" 
d="M154 0v1032h22l461 -774l463 774h22v-1032h-16v1012l-459 -770h-20l-457 770v-1012h-16z" />
    <glyph glyph-name="uni043D" unicode="&#x43d;" horiz-adv-x="1114" 
d="M154 0v1032h16v-491h774v491h17v-1032h-17v524h-774v-524h-16z" />
    <glyph glyph-name="uni043E" unicode="&#x43e;" 
d="M578 -12q-207 0 -339.5 147.5t-132.5 380.5t132.5 380.5t339.5 147.5t339 -147.5t132 -380.5t-132 -380.5t-339 -147.5zM578 4q200 0 327 142.5t127 369.5t-127 369.5t-327 142.5t-327.5 -142.5t-127.5 -369.5t127.5 -369.5t327.5 -142.5z" />
    <glyph glyph-name="uni043F" unicode="&#x43f;" horiz-adv-x="1093" 
d="M154 0v1032h786v-1032h-16v1016h-754v-1016h-16z" />
    <glyph glyph-name="uni0440" unicode="&#x440;" horiz-adv-x="1202" 
d="M154 -410v1442h16v-370q39 173 162 277.5t293 104.5q207 0 339 -148.5t132 -379.5q0 -232 -132 -380t-339 -148q-171 0 -294 104.5t-161 278.5v-781h-16zM625 4q200 0 327 143t127 369q0 224 -127.5 368t-326.5 144t-327 -144t-128 -368q0 -225 127.5 -368.5
t327.5 -143.5z" />
    <glyph glyph-name="uni0441" unicode="&#x441;" horiz-adv-x="1095" 
d="M578 -12q-207 0 -339.5 147.5t-132.5 378.5q0 233 132.5 381.5t339.5 148.5q157 0 270 -83.5t151 -229.5h-16q-38 138 -146 217.5t-259 79.5q-202 0 -328.5 -144t-126.5 -370q0 -225 127.5 -367.5t327.5 -142.5q152 0 260 80.5t145 218.5h16q-37 -145 -150 -230t-271 -85
z" />
    <glyph glyph-name="uni0442" unicode="&#x442;" horiz-adv-x="995" 
d="M489 0v1016h-442v16h901v-16h-442v-1016h-17z" />
    <glyph glyph-name="uni0443" unicode="&#x443;" horiz-adv-x="1001" 
d="M98 -410v17h103q31 0 53 3t41 14t30.5 21t26.5 35.5t24 45t27 61.5l93 219l-445 1026h19l434 -1005l428 1005h18l-530 -1247q-53 -124 -91 -159.5t-128 -35.5h-103z" />
    <glyph glyph-name="uni0444" unicode="&#x444;" horiz-adv-x="1335" 
d="M659 -410v410h-26q-234 0 -380.5 143.5t-146.5 372.5t146.5 372.5t380.5 143.5h26v369h17v-369h26q234 0 380.5 -143.5t146.5 -372.5t-146.5 -372.5t-380.5 -143.5h-26v-410h-17zM633 16h26v1000h-26q-227 0 -368.5 -139t-141.5 -361t141.5 -361t368.5 -139zM676 16h26
q227 0 368.5 139t141.5 361t-141.5 361t-368.5 139h-26v-1000z" />
    <glyph glyph-name="uni0445" unicode="&#x445;" horiz-adv-x="933" 
d="M45 0l412 524l-400 508h21l389 -493l389 493h21l-400 -508l412 -524h-23l-399 510l-401 -510h-21z" />
    <glyph glyph-name="uni0446" unicode="&#x446;" horiz-adv-x="1114" 
d="M154 0v1032h16v-1016h733v1016h17v-1016h143v-288h-16v272h-893z" />
    <glyph glyph-name="uni0447" unicode="&#x447;" horiz-adv-x="1019" 
d="M850 0v467q-185 -96 -371 -96q-173 0 -264.5 85t-91.5 246v330h16v-330q0 -155 86.5 -235t253.5 -80q191 0 371 98v547h16v-1032h-16z" />
    <glyph glyph-name="uni0448" unicode="&#x448;" horiz-adv-x="1462" 
d="M154 0v1032h16v-1016h553v1016h16v-1016h553v1016h17v-1032h-1155z" />
    <glyph glyph-name="uni0449" unicode="&#x449;" horiz-adv-x="1503" 
d="M154 0v1032h16v-1016h553v1016h16v-1016h553v1016h17v-1016h143v-288h-16v272h-1282z" />
    <glyph glyph-name="uni044A" unicode="&#x44a;" horiz-adv-x="1204" 
d="M410 0v1016h-363v16h379v-414h301q185 0 283 -79.5t98 -229.5q0 -148 -98.5 -228.5t-282.5 -80.5h-317zM426 16h301q177 0 271 76t94 217q0 144 -93.5 218.5t-271.5 74.5h-301v-586z" />
    <glyph glyph-name="uni044B" unicode="&#x44b;" horiz-adv-x="1310" 
d="M154 0v1032h16v-414h346q185 0 283 -79.5t98 -229.5q0 -148 -98.5 -228.5t-282.5 -80.5h-362zM170 16h346q177 0 271 76t94 217q0 144 -93.5 218.5t-271.5 74.5h-346v-586zM1141 0v1032h16v-1032h-16z" />
    <glyph glyph-name="uni044C" unicode="&#x44c;" horiz-adv-x="989" 
d="M154 0v1032h16v-414h342q185 0 283 -79.5t98 -229.5q0 -148 -98.5 -228.5t-282.5 -80.5h-358zM170 16h342q177 0 271 76t94 217q0 144 -93.5 218.5t-271.5 74.5h-342v-586z" />
    <glyph glyph-name="uni044D" unicode="&#x44d;" horiz-adv-x="1095" 
d="M518 -12q-157 0 -270.5 83.5t-151.5 229.5h17q38 -138 146 -217.5t259 -79.5q200 0 326 141t129 365h-594v16h594q-3 223 -130 362.5t-325 139.5q-152 0 -260 -80.5t-145 -218.5h-17q37 145 150.5 230t271.5 85q207 0 339 -147t132 -379q0 -233 -132 -381.5t-339 -148.5z
" />
    <glyph glyph-name="uni044E" unicode="&#x44e;" horiz-adv-x="1468" 
d="M891 -12q-207 0 -339 147.5t-132 380.5h-250v-516h-16v1032h16v-500h250q4 227 135.5 369.5t335.5 142.5q207 0 339 -147.5t132 -380.5t-132 -380.5t-339 -147.5zM891 4q200 0 327.5 142.5t127.5 369.5t-127.5 369.5t-327.5 142.5t-327.5 -142.5t-127.5 -369.5
t127.5 -369.5t327.5 -142.5z" />
    <glyph glyph-name="uni044F" unicode="&#x44f;" horiz-adv-x="993" 
d="M78 0l315 428q-147 12 -226 89.5t-79 211.5q0 145 94.5 224t266.5 79h391v-1032h-17v426h-411l-314 -426h-20zM449 442h374v574h-374q-164 0 -254.5 -75t-90.5 -212q0 -140 90.5 -213.5t254.5 -73.5z" />
    <glyph glyph-name="uni0450" unicode="&#x450;" horiz-adv-x="1126" 
d="M575 -12q-206 0 -337.5 148.5t-131.5 395.5q0 222 128.5 367t328.5 145q199 0 328 -128t129 -353v-6h-897v-25q0 -151 54 -270t157.5 -188.5t240.5 -69.5q150 0 265 91t153 243h17q-38 -159 -158.5 -254.5t-276.5 -95.5zM125 573h879q-5 146 -64.5 250.5t-156 154.5
t-220.5 50q-181 0 -303.5 -127t-134.5 -328zM553 1174l-203 260h21l202 -260h-20z" />
    <glyph glyph-name="uni0451" unicode="&#x451;" horiz-adv-x="1126" 
d="M575 -12q-206 0 -337.5 148.5t-131.5 395.5q0 222 128.5 367t328.5 145q199 0 328 -128t129 -353v-6h-897v-25q0 -151 54 -270t157.5 -188.5t240.5 -69.5q150 0 265 91t153 243h17q-38 -159 -158.5 -254.5t-276.5 -95.5zM125 573h879q-5 146 -64.5 250.5t-156 154.5
t-220.5 50q-181 0 -303.5 -127t-134.5 -328z" />
    <glyph glyph-name="uni0452" unicode="&#x452;" horiz-adv-x="1122" 
d="M676 -410v17h102q100 0 142.5 42t42.5 142v813q0 203 -100.5 313.5t-272.5 110.5q-193 0 -306.5 -139.5t-113.5 -372.5v-516h-16v1237h-164v16h164v181h16v-181h416v-16h-416v-559q37 172 147 269t273 97q180 0 284.5 -114t104.5 -326v-813q0 -107 -47.5 -154t-153.5 -47
h-102z" />
    <glyph glyph-name="uni0453" unicode="&#x453;" horiz-adv-x="1052" 
d="M92 0v16h250v1000h-250v16h869v-334h-17v318h-586v-1000h332v-16h-598zM530 1174l203 260h21l-203 -260h-21z" />
    <glyph glyph-name="uni0454" unicode="&#x454;" horiz-adv-x="1095" 
d="M578 -12q-207 0 -339.5 147.5t-132.5 378.5q0 233 132.5 381.5t339.5 148.5q157 0 270 -83.5t151 -229.5h-16q-38 138 -146 217.5t-259 79.5q-199 0 -325.5 -140t-129.5 -362h594v-16h-594q1 -148 59.5 -263.5t161.5 -179t234 -63.5q152 0 260 80.5t145 218.5h16
q-37 -145 -150 -230t-271 -85z" />
    <glyph glyph-name="uni0455" unicode="&#x455;" horiz-adv-x="962" 
d="M500 -12q-188 0 -298.5 76.5t-119.5 220.5h16q7 -136 114.5 -208.5t287.5 -72.5q156 0 260 69.5t104 186.5q0 45 -12.5 81t-39.5 61t-57 42.5t-77.5 30.5t-88 21t-100.5 16q-56 8 -90.5 14t-80.5 16.5t-74 23t-58.5 31.5t-47 43.5t-27.5 58t-11 75.5q0 120 104.5 195
t272.5 75q162 0 267.5 -69.5t123.5 -200.5h-16q-21 127 -120.5 190.5t-254.5 63.5q-161 0 -260.5 -70t-99.5 -184q0 -45 12.5 -80.5t40 -60.5t56.5 -42t77.5 -29.5t88 -19.5t100.5 -16q47 -7 79.5 -12.5t72.5 -14t67 -19t56.5 -24.5t48 -32.5t34.5 -42t23.5 -54t7.5 -67.5
q0 -124 -109 -198t-272 -74z" />
    <glyph glyph-name="uni0456" unicode="&#x456;" horiz-adv-x="788" 
d="M92 0v16h309v1000h-309v16h326v-1016h309v-16h-635zM410 1346q-15 0 -25 9.5t-10 24.5t10 25t25 10t24.5 -10t9.5 -25t-9.5 -24.5t-24.5 -9.5z" />
    <glyph glyph-name="uni0457" unicode="&#x457;" horiz-adv-x="788" 
d="M92 0v16h309v1000h-309v16h326v-1016h309v-16h-635zM174 1346q-15 0 -25 9.5t-10 24.5t10 25t25 10t25 -10t10 -25t-10 -24.5t-25 -9.5zM645 1346q-15 0 -25 9.5t-10 24.5t10 25t25 10t25 -10t10 -25t-10 -24.5t-25 -9.5z" />
    <glyph glyph-name="uni0458" unicode="&#x458;" horiz-adv-x="702" 
d="M41 -410v17h307q100 0 142 42t42 142v1225h-491v16h508v-1241q0 -107 -47.5 -154t-153.5 -47h-307zM539 1346q-15 0 -25 9.5t-10 24.5t10 25t25 10t24.5 -10t9.5 -25t-9.5 -24.5t-24.5 -9.5z" />
    <glyph glyph-name="uni0459" unicode="&#x459;" horiz-adv-x="1634" 
d="M31 0v16h16q75 0 118.5 43t67 154.5t23.5 308.5v510h616v-461h312q171 0 262.5 -73t91.5 -211q0 -137 -92 -212t-262 -75h-328v1016h-584v-494q0 -204 -26 -320t-73 -159t-126 -43h-16zM872 16h312q163 0 250.5 70.5t87.5 200.5q0 131 -87 199.5t-251 68.5h-312v-539z
" />
    <glyph glyph-name="uni045A" unicode="&#x45a;" horiz-adv-x="1665" 
d="M154 0v1032h16v-461h717v461h16v-461h311q171 0 263 -73t92 -211q0 -137 -92.5 -212t-262.5 -75h-327v555h-717v-555h-16zM903 16h311q163 0 250.5 70.5t87.5 200.5q0 131 -87 199.5t-251 68.5h-311v-539z" />
    <glyph glyph-name="uni045B" unicode="&#x45b;" horiz-adv-x="1122" 
d="M154 0v1237h-164v16h164v181h16v-181h416v-16h-416v-559q37 172 147 269t273 97q180 0 284.5 -114t104.5 -326v-604h-16v604q0 203 -100.5 313.5t-272.5 110.5q-193 0 -306.5 -139.5t-113.5 -372.5v-516h-16z" />
    <glyph glyph-name="uni045C" unicode="&#x45c;" horiz-adv-x="993" 
d="M154 0v1032h16v-491h291l424 491h22l-432 -500l473 -532h-22l-465 524h-291v-524h-16zM489 1174l203 260h21l-203 -260h-21z" />
    <glyph glyph-name="uni045D" unicode="&#x45d;" horiz-adv-x="1124" 
d="M154 0v1032h16v-1005l784 1005h17v-1032h-17v1006l-784 -1006h-16zM553 1174l-203 260h21l202 -260h-20z" />
    <glyph glyph-name="uni045E" unicode="&#x45e;" horiz-adv-x="1001" 
d="M98 -410v17h103q31 0 53 3t41 14t30.5 21t26.5 35.5t24 45t27 61.5l93 219l-445 1026h19l434 -1005l428 1005h18l-530 -1247q-53 -124 -91 -159.5t-128 -35.5h-103zM496 1204q-111 0 -176.5 63.5t-65.5 166.5h16q0 -94 61.5 -153.5t164.5 -59.5q106 0 169.5 59.5
t63.5 153.5h16q0 -103 -67.5 -166.5t-181.5 -63.5z" />
    <glyph glyph-name="uni045F" unicode="&#x45f;" horiz-adv-x="1073" 
d="M528 -272v272h-374v1032h16v-1016h733v1016h17v-1032h-375v-272h-17z" />
    <glyph glyph-name="uni0462" unicode="&#x462;" horiz-adv-x="1241" 
d="M231 0v1237h-163v16h163v181h17v-181h416v-16h-416v-422h434q198 0 318 -114.5t120 -294.5q0 -177 -121.5 -291.5t-318.5 -114.5h-449zM248 16h432q190 0 307 110.5t117 279.5q0 171 -116.5 282t-305.5 111h-434v-783z" />
    <glyph glyph-name="uni0463" unicode="&#x463;" horiz-adv-x="1009" 
d="M154 0v1016h-164v16h164v402h16v-402h436v-16h-436v-398h362q185 0 283 -79.5t98 -229.5q0 -148 -98.5 -228.5t-282.5 -80.5h-378zM170 16h362q177 0 271 76t94 217q0 144 -93.5 218.5t-271.5 74.5h-362v-586z" />
    <glyph glyph-name="uni0472" unicode="&#x472;" horiz-adv-x="1304" 
d="M651 -12q-134 0 -238 55.5t-169.5 154.5t-99 230.5t-33.5 288.5t33.5 288.5t99 230.5t169.5 154.5t238 55.5t239 -55.5t170.5 -154.5t99.5 -230.5t34 -288.5t-34 -288.5t-99.5 -230.5t-170.5 -154.5t-239 -55.5zM651 4q130 0 231.5 54t165.5 150t97 224t33 281
q-118 -72 -267 -72q-61 0 -160 33.5t-198 67.5t-160 34q-141 0 -266 -74q2 -151 35 -277t96.5 -220.5t164 -147.5t228.5 -53zM911 657q142 0 267 74q-2 151 -35.5 277t-97 221t-164.5 148t-230 53t-230 -54t-164.5 -150t-96.5 -224t-33 -281q118 72 266 72q61 0 160 -34
l198 -68t160 -34z" />
    <glyph glyph-name="uni0473" unicode="&#x473;" 
d="M578 -12q-207 0 -339.5 147.5t-132.5 380.5t132.5 380.5t339.5 147.5t339 -147.5t132 -380.5t-132 -380.5t-339 -147.5zM578 4q70 0 134.5 19.5t123 61t102 102t69 149t25.5 194.5q-104 -63 -241 -63q-67 0 -214 41t-215 41q-136 0 -239 -64q10 -215 136.5 -348
t318.5 -133zM791 483q133 0 241 68q-10 214 -136 345.5t-318 131.5q-70 0 -135 -19.5t-123.5 -61t-102 -102t-69 -149t-25.5 -194.5q101 63 239 63q65 0 216.5 -41t212.5 -41z" />
    <glyph glyph-name="uni0474" unicode="&#x474;" horiz-adv-x="1251" 
d="M588 0l-547 1434h18l537 -1407l283 952q78 263 147.5 359t181.5 96h43v-17h-43q-105 0 -171.5 -94t-141.5 -348l-291 -975h-16z" />
    <glyph glyph-name="uni0475" unicode="&#x475;" horiz-adv-x="1122" 
d="M494 0l-443 1032h19l432 -1007l274 747q29 80 50.5 124.5t50 78t63 45.5t86.5 12h14v-16h-14q-93 0 -134.5 -47.5t-98.5 -200.5l-283 -768h-16z" />
    <glyph glyph-name="uni0490" unicode="&#x490;" horiz-adv-x="1232" 
d="M113 0v16h315v1401h-315v17h1036v276h16v-293h-721v-1401h398v-16h-729z" />
    <glyph glyph-name="uni0491" unicode="&#x491;" horiz-adv-x="987" 
d="M92 0v16h250v1000h-250v16h832v277h16v-293h-582v-1000h332v-16h-598z" />
    <glyph glyph-name="uni0492" unicode="&#x492;" horiz-adv-x="1298" 
d="M113 0v16h315v693h-164v16h164v692h-315v17h1073v-398h-17v381h-725v-692h469v-16h-469v-693h398v-16h-729z" />
    <glyph glyph-name="uni0493" unicode="&#x493;" horiz-adv-x="1052" 
d="M92 0v16h250v490h-174v16h174v494h-250v16h869v-334h-17v318h-586v-494h404v-16h-404v-490h332v-16h-598z" />
    <glyph glyph-name="uni0496" unicode="&#x496;" horiz-adv-x="1497" 
d="M63 0l359 731l-316 703h17l313 -693h275v693h16v-693h274l314 693h16l-315 -703l350 -715h133v-309h-16v293h-127l-355 725h-274v-725h-16v725h-275l-354 -725h-19z" />
    <glyph glyph-name="uni0497" unicode="&#x497;" horiz-adv-x="1392" 
d="M45 0l350 532l-309 500h18l306 -491h225v491h16v-491h226l305 491h18l-309 -500l340 -516h115v-288h-17v272h-108l-344 524h-226v-524h-16v524h-225l-344 -524h-21z" />
    <glyph glyph-name="uni049A" unicode="&#x49a;" horiz-adv-x="1243" 
d="M162 0v1434h16v-693h344l537 693h20l-542 -701l571 -717h137v-309h-16v293h-129l-578 725h-344v-725h-16z" />
    <glyph glyph-name="uni049B" unicode="&#x49b;" horiz-adv-x="1097" 
d="M154 0v1032h16v-491h291l424 491h22l-432 -500l459 -516h117v-288h-17v272h-108l-465 524h-291v-524h-16z" />
    <glyph glyph-name="uni04A2" unicode="&#x4a2;" horiz-adv-x="1390" 
d="M162 0v1434h16v-693h891v693h16v-1418h119v-309h-16v293h-119v725h-891v-725h-16z" />
    <glyph glyph-name="uni04A3" unicode="&#x4a3;" 
d="M154 0v1032h16v-491h774v491h17v-1016h143v-288h-17v272h-143v524h-774v-524h-16z" />
    <glyph glyph-name="uni04AE" unicode="&#x4ae;" horiz-adv-x="1226" 
d="M604 0v526l-561 908h20l549 -889l551 889h21l-563 -908v-526h-17z" />
    <glyph glyph-name="uni04AF" unicode="&#x4af;" horiz-adv-x="1001" 
d="M494 -410v410l-443 1032h19l432 -1007l430 1007h18l-440 -1032v-410h-16z" />
    <glyph glyph-name="uni04B0" unicode="&#x4b0;" horiz-adv-x="1226" 
d="M274 512v16h328l-559 906h20l549 -889l551 889h21l-561 -906h331v-16h-333v-512h-17v512h-330z" />
    <glyph glyph-name="uni04B1" unicode="&#x4b1;" horiz-adv-x="1001" 
d="M494 -410v394h-332v16h332l-443 1032h19l432 -1007l430 1007h18l-440 -1032h332v-16h-332v-394h-16z" />
    <glyph glyph-name="uni04B2" unicode="&#x4b2;" horiz-adv-x="1261" 
d="M74 0l522 731l-492 703h21l481 -689l481 689h21l-492 -701l510 -717h138v-309h-17v293h-129l-512 719l-512 -719h-20z" />
    <glyph glyph-name="uni04B3" unicode="&#x4b3;" horiz-adv-x="1038" 
d="M45 0l412 524l-400 508h21l389 -493l389 493h21l-400 -508l400 -508h114v-288h-16v272h-109l-399 510l-401 -510h-21z" />
    <glyph glyph-name="uni04B6" unicode="&#x4b6;" horiz-adv-x="1267" 
d="M946 0v659q-193 -88 -440 -88q-198 0 -306 104.5t-108 307.5v451h17v-451q0 -196 102.5 -295.5t294.5 -99.5q239 0 440 90v756h17v-1418h118v-309h-16v293h-119z" />
    <glyph glyph-name="uni04B7" unicode="&#x4b7;" horiz-adv-x="1060" 
d="M850 0v467q-185 -96 -371 -96q-173 0 -264.5 85t-91.5 246v330h16v-330q0 -155 86.5 -235t253.5 -80q191 0 371 98v547h16v-1016h144v-288h-17v272h-143z" />
    <glyph glyph-name="uni04BA" unicode="&#x4ba;" horiz-adv-x="1124" 
d="M178 1434v-660q193 88 440 88q198 0 306 -104t108 -307v-451h-16v451q0 195 -103 295t-295 100q-239 0 -440 -90v-756h-16v1434h16z" />
    <glyph glyph-name="uni04BB" unicode="&#x4bb;" horiz-adv-x="1122" 
d="M154 0v1434h16v-756q37 172 147 269t273 97q180 0 284.5 -114t104.5 -326v-604h-16v604q0 203 -100.5 313.5t-272.5 110.5q-193 0 -306.5 -139.5t-113.5 -372.5v-516h-16z" />
    <glyph glyph-name="uni04C0" unicode="&#x4c0;" horiz-adv-x="1040" 
d="M113 0v16h399v1401h-399v17h815v-17h-400v-1401h400v-16h-815z" />
    <glyph glyph-name="uni04CF" unicode="&#x4cf;" horiz-adv-x="788" 
d="M92 0v16h309v1401h-309v17h326v-1418h309v-16h-635z" />
    <glyph glyph-name="uni04D8" unicode="&#x4d8;" horiz-adv-x="1304" 
d="M651 -12q-132 0 -236 55t-169.5 153t-99.5 228.5t-35 286.5h1067q0 181 -43.5 321.5t-120 226t-175 128.5t-214.5 43q-192 0 -315 -101t-167 -297h-16q44 203 171.5 308.5t326.5 105.5q181 0 311 -94t194 -257.5t64 -379.5q0 -157 -34 -288.5t-99.5 -230t-170.5 -153.5
t-239 -55zM651 4q128 0 228.5 52t164.5 145.5t98 218t36 274.5h-1051q2 -149 36 -273.5t97.5 -218.5t163.5 -146t227 -52z" />
    <glyph glyph-name="uni04D9" unicode="&#x4d9;" horiz-adv-x="1126" 
d="M551 1044q206 0 337.5 -148.5t131.5 -395.5q0 -222 -128.5 -367t-328.5 -145q-199 0 -328 128t-129 353v6h898v25q0 151 -54.5 270t-158 188.5t-240.5 69.5q-150 0 -265 -91t-153 -243h-16q38 159 158 254.5t276 95.5zM1001 459h-878q5 -147 64.5 -251t155.5 -154
t220 -50q181 0 303.5 127t134.5 328z" />
    <glyph glyph-name="uni04E2" unicode="&#x4e2;" horiz-adv-x="1263" 
d="M162 0v1434h16v-1414l901 1414h23v-1434h-17v1413l-901 -1413h-22zM397 1737v16h471v-16h-471z" />
    <glyph glyph-name="uni04E3" unicode="&#x4e3;" horiz-adv-x="1124" 
d="M154 0v1032h16v-1005l784 1005h17v-1032h-17v1006l-784 -1006h-16zM328 1335v17h471v-17h-471z" />
    <glyph glyph-name="uni04E8" unicode="&#x4e8;" horiz-adv-x="1304" 
d="M651 -12q-134 0 -238 55.5t-169.5 154.5t-99 230.5t-33.5 288.5t33.5 288.5t99 230.5t169.5 154.5t238 55.5t239 -55.5t170.5 -154.5t99.5 -230.5t34 -288.5t-34 -288.5t-99.5 -230.5t-170.5 -154.5t-239 -55.5zM651 4q130 0 231 53.5t165 149t97 223t34 279.5h-1051
q1 -152 34 -279.5t96.5 -223t164 -149t229.5 -53.5zM127 725h1051q-1 152 -34 279.5t-97 223t-165 149t-231 53.5q-129 0 -229.5 -53.5t-164 -149t-96.5 -223t-34 -279.5z" />
    <glyph glyph-name="uni04E9" unicode="&#x4e9;" 
d="M578 -12q-207 0 -339.5 147.5t-132.5 380.5t132.5 380.5t339.5 147.5t339 -147.5t132 -380.5t-132 -380.5t-339 -147.5zM578 4q198 0 324.5 140t129.5 364h-909q3 -224 130 -364t325 -140zM123 524h909q-3 224 -129.5 364t-324.5 140t-325 -140t-130 -364z" />
    <glyph glyph-name="uni04EE" unicode="&#x4ee;" horiz-adv-x="1175" 
d="M180 0v16h125q85 0 134 37.5t102 149.5l69 149l-567 1082h18l557 -1063l496 1063h19l-578 -1235q-56 -119 -107.5 -159t-142.5 -40h-125zM352 1737v16h471v-16h-471z" />
    <glyph glyph-name="uni04EF" unicode="&#x4ef;" horiz-adv-x="1001" 
d="M98 -410v17h103q31 0 53 3t41 14t30.5 21t26.5 35.5t24 45t27 61.5l93 219l-445 1026h19l434 -1005l428 1005h18l-530 -1247q-53 -124 -91 -159.5t-128 -35.5h-103zM264 1335v17h471v-17h-471z" />
    </font>
</defs>
</svg>
