<?xml version="1.0" standalone="no"?>
<!DOCTYPE svg PUBLIC "-//W3C//DTD SVG 1.1//EN" "http://www.w3.org/Graphics/SVG/1.1/DTD/svg11.dtd" >
<svg xmlns="http://www.w3.org/2000/svg" xmlns:xlink="http://www.w3.org/1999/xlink" version="1.1">
<metadata>
Created by FontForge 20201107 at Fri Nov 14 04:01:47 2025
 By 
Copyright 2025 CoType Foundry. All Rights Reserved.
</metadata>
<defs>
<font id="AeonikFonoProTRIAL-SemiBold" horiz-adv-x="1306" >
  <font-face 
    font-family="Aeonik Fono Pro TRIAL SemiBold"
    font-weight="600"
    font-stretch="normal"
    units-per-em="2048"
    panose-1="2 11 7 4 3 3 0 0 0 0"
    ascent="1638"
    descent="-410"
    x-height="1051"
    cap-height="1434"
    bbox="-39 -422 1726 1847"
    underline-thickness="163"
    underline-position="-255"
    unicode-range="U+0020-04EF"
  />
<missing-glyph horiz-adv-x="1351" 
d="M164 -223v1698h1024v-1698h-1024zM362 -18h95v112h57q62 0 99.5 34t37.5 91q0 58 -37.5 92.5t-99.5 34.5h-152v-364zM457 172v96h49q22 0 35.5 -13t13.5 -36q0 -22 -13.5 -34.5t-35.5 -12.5h-49zM733 -18h256v81h-160v64h123v76h-123v61h154v82h-250v-364zM432 455h96
v282h103v82h-299v-82h100v-282zM799 455h96v135l131 229h-106l-72 -133l-68 133h-112l131 -229v-135zM485 926q66 0 106.5 38t45.5 99h-94q-13 -59 -62 -59q-71 0 -71 106q0 107 71 107q48 0 62 -62h94q-5 63 -45.5 101t-106.5 38q-84 0 -129 -49t-45 -135t45 -135t129 -49z
M848 926q81 0 129.5 51.5t48.5 132.5q0 80 -49 132t-129 52q-81 0 -129.5 -52t-48.5 -132q0 -81 48 -132.5t130 -51.5zM848 1004q-39 0 -59.5 29.5t-20.5 76.5q0 48 21 77.5t59 29.5t59 -29.5t21 -77.5q0 -47 -20.5 -76.5t-59.5 -29.5z" />
    <glyph glyph-name=".notdef" horiz-adv-x="1351" 
d="M164 -223v1698h1024v-1698h-1024zM362 -18h95v112h57q62 0 99.5 34t37.5 91q0 58 -37.5 92.5t-99.5 34.5h-152v-364zM457 172v96h49q22 0 35.5 -13t13.5 -36q0 -22 -13.5 -34.5t-35.5 -12.5h-49zM733 -18h256v81h-160v64h123v76h-123v61h154v82h-250v-364zM432 455h96
v282h103v82h-299v-82h100v-282zM799 455h96v135l131 229h-106l-72 -133l-68 133h-112l131 -229v-135zM485 926q66 0 106.5 38t45.5 99h-94q-13 -59 -62 -59q-71 0 -71 106q0 107 71 107q48 0 62 -62h94q-5 63 -45.5 101t-106.5 38q-84 0 -129 -49t-45 -135t45 -135t129 -49z
M848 926q81 0 129.5 51.5t48.5 132.5q0 80 -49 132t-129 52q-81 0 -129.5 -52t-48.5 -132q0 -81 48 -132.5t130 -51.5zM848 1004q-39 0 -59.5 29.5t-20.5 76.5q0 48 21 77.5t59 29.5t59 -29.5t21 -77.5q0 -47 -20.5 -76.5t-59.5 -29.5z" />
    <glyph glyph-name=".null" horiz-adv-x="0" 
 />
    <glyph glyph-name="nonmarkingreturn" horiz-adv-x="682" 
 />
    <glyph glyph-name="space" unicode=" " horiz-adv-x="675" 
 />
    <glyph glyph-name="comma" unicode="," horiz-adv-x="632" 
d="M135 -295v141q94 1 143.5 45t49.5 105q0 21 -2 31q-30 -21 -74 -21q-58 0 -96.5 40t-38.5 112q0 69 49 115t127 46q95 0 154 -75t59 -193q0 -161 -101 -252t-270 -94z" />
    <glyph glyph-name="hyphen" unicode="-" horiz-adv-x="976" 
d="M135 475v213h709v-213h-709z" />
    <glyph glyph-name="period" unicode="." horiz-adv-x="632" 
d="M315 -12q-72 0 -120 46t-48 118t48 119.5t120 47.5t121 -47.5t49 -119.5q0 -71 -48.5 -117.5t-121.5 -46.5z" />
    <glyph glyph-name="zero" unicode="0" horiz-adv-x="1296" 
d="M647 -12q-250 0 -391 183.5t-141 512.5v66q0 324 141.5 510t390.5 186q250 0 392.5 -186t142.5 -510v-66q0 -329 -142 -512.5t-393 -183.5zM647 203q136 0 205.5 124.5t69.5 364.5v49q0 73 -9 138l-479 -537q71 -139 213 -139zM383 557l479 533q-68 143 -215 143
q-134 0 -203 -126t-69 -366v-49q0 -80 8 -135z" />
    <glyph glyph-name="one" unicode="1" horiz-adv-x="1099" 
d="M94 0v227h346v707q-33 -10 -69 -10h-273v223h244q50 0 76 39t26 100v148h261v-1207h329v-227h-940z" />
    <glyph glyph-name="two" unicode="2" horiz-adv-x="1165" 
d="M76 0v209l530 457q102 87 152.5 161.5t50.5 161.5q0 110 -63 171t-168 61t-170.5 -72.5t-65.5 -194.5v-22h-268v39q0 206 139 340.5t367 134.5q235 0 366 -121.5t131 -323.5q0 -146 -70 -255t-216 -232l-332 -287h626v-227h-1009z" />
    <glyph glyph-name="three" unicode="3" horiz-adv-x="1234" 
d="M604 -12q-245 0 -385.5 124t-140.5 349h262q3 -124 76 -192t192 -68q107 0 174.5 59t67.5 160q0 94 -61 146t-183 52h-137v218h117q119 0 180 55t61 151q0 89 -65 140t-164 51q-102 0 -170.5 -64.5t-71.5 -167.5h-258q3 201 143.5 323t360.5 122q228 0 361 -107t133 -284
q0 -121 -61.5 -201t-162.5 -111q110 -27 179 -111t69 -229q0 -188 -138.5 -301.5t-377.5 -113.5z" />
    <glyph glyph-name="four" unicode="4" horiz-adv-x="1245" 
d="M733 0v317h-678v224l609 893h329v-891h178v-226h-178v-317h-260zM317 543h416v606z" />
    <glyph glyph-name="five" unicode="5" horiz-adv-x="1234" 
d="M627 -10q-229 0 -367 123t-147 315h262q12 -99 78 -159t176 -60q102 0 175 72.5t73 201.5q0 123 -68 200t-182 77q-74 0 -140.5 -39.5t-107.5 -128.5l-256 18l41 824h897v-228h-655l-21 -352q104 119 293 119q209 0 338 -135.5t129 -354.5q0 -119 -41 -214t-112.5 -155
t-164.5 -92t-200 -32z" />
    <glyph glyph-name="six" unicode="6" horiz-adv-x="1290" 
d="M676 -12q-139 0 -247.5 54.5t-178.5 154.5q-135 193 -135 505q0 355 150.5 549.5t420.5 194.5q195 0 330 -106t162 -289h-263q-46 178 -241 178q-145 0 -221 -115t-76 -326v-30q51 93 143 144.5t205 51.5q214 0 343.5 -129.5t129.5 -345.5q0 -219 -144.5 -355
t-377.5 -136zM678 199q115 0 183.5 74.5t68.5 197.5q0 124 -67 198t-183 74t-185 -74t-69 -198q0 -120 69 -196t183 -76z" />
    <glyph glyph-name="seven" unicode="7" horiz-adv-x="1126" 
d="M147 0l601 1206h-701v228h1012v-174l-623 -1260h-289z" />
    <glyph glyph-name="eight" unicode="8" horiz-adv-x="1296" 
d="M647 -12q-249 0 -390.5 113.5t-141.5 299.5q0 131 69 222t178 125q-92 33 -152 115t-60 196q0 174 136 280.5t361 106.5q226 0 363 -106.5t137 -280.5q0 -110 -61 -193.5t-154 -115.5q109 -34 179.5 -125t70.5 -224q0 -186 -142 -299.5t-393 -113.5zM647 188
q118 0 191 61.5t73 160.5q0 98 -73 159.5t-191 61.5q-117 0 -189.5 -61.5t-72.5 -159.5t72.5 -160t189.5 -62zM647 852q106 0 170 55t64 144q0 87 -64.5 140.5t-169.5 53.5q-103 0 -167 -54t-64 -140q0 -89 64 -144t167 -55z" />
    <glyph glyph-name="nine" unicode="9" horiz-adv-x="1290" 
d="M614 1446q139 0 248 -54.5t178 -154.5q138 -198 138 -506q0 -354 -152 -548.5t-422 -194.5q-195 0 -329 106t-160 289h262q21 -86 81.5 -132t157.5 -46q146 0 222.5 114.5t76.5 325.5q0 19 -2 31q-51 -94 -142.5 -145.5t-205.5 -51.5q-213 0 -342 129.5t-129 345.5
q0 219 143.5 355.5t376.5 136.5zM612 1235q-114 0 -183 -74.5t-69 -197.5q0 -124 67.5 -198.5t182.5 -74.5q116 0 185 74.5t69 198.5q0 120 -69 196t-183 76z" />
    <glyph glyph-name="A" unicode="A" horiz-adv-x="1366" 
d="M37 0l477 1434h340l475 -1434h-293l-106 330h-504l-107 -330h-282zM489 559h375l-188 586z" />
    <glyph glyph-name="B" unicode="B" horiz-adv-x="1310" 
d="M152 0v1434h514q236 0 364.5 -100.5t128.5 -278.5q0 -125 -66 -205.5t-186 -110.5q141 -21 223 -103t82 -226q0 -193 -136 -301.5t-390 -108.5h-534zM428 219h250q124 0 189 51.5t65 145.5q0 98 -66 150t-188 52h-250v-399zM428 834h236q106 0 163.5 51t57.5 141
q0 89 -57.5 138.5t-163.5 49.5h-236v-380z" />
    <glyph glyph-name="C" unicode="C" horiz-adv-x="1368" 
d="M713 -12q-294 0 -456.5 191.5t-162.5 537.5t165.5 537.5t465.5 191.5q228 0 378 -137t181 -377h-283q-60 276 -284 276q-165 0 -252.5 -127t-87.5 -364t86 -364.5t250 -127.5q117 0 186.5 68.5t99.5 208.5h283q-31 -242 -182 -378t-387 -136z" />
    <glyph glyph-name="D" unicode="D" horiz-adv-x="1390" 
d="M152 0v1434h477q311 0 490 -194t179 -521t-179 -523t-490 -196h-477zM428 236h201q191 0 289 127t98 356t-97.5 354t-289.5 125h-201v-962z" />
    <glyph glyph-name="E" unicode="E" horiz-adv-x="1171" 
d="M152 0v1434h913v-242h-637v-352h528v-232h-528v-366h662v-242h-938z" />
    <glyph glyph-name="F" unicode="F" horiz-adv-x="1128" 
d="M152 0v1434h915v-242h-639v-369h545v-241h-545v-582h-276z" />
    <glyph glyph-name="G" unicode="G" horiz-adv-x="1419" 
d="M690 -12q-274 0 -435 198t-161 531q0 343 163 536t458 193q232 0 383 -135.5t182 -376.5h-272q-47 278 -299 278q-165 0 -250.5 -128t-85.5 -367q0 -496 356 -496q140 0 221.5 85.5t81.5 230.5v36h-297v218h551v-791h-203l-24 174q-113 -186 -369 -186z" />
    <glyph glyph-name="H" unicode="H" horiz-adv-x="1382" 
d="M152 0v1434h276v-588h528v588h277v-1434h-277v606h-528v-606h-276z" />
    <glyph glyph-name="I" unicode="I" horiz-adv-x="1110" 
d="M119 0v236h299v962h-299v236h872v-236h-297v-962h297v-236h-872z" />
    <glyph glyph-name="J" unicode="J" horiz-adv-x="1228" 
d="M575 -12q-255 0 -384.5 140t-129.5 411h275q0 -312 242 -312q123 0 182 75.5t59 234.5v661h-473v236h750v-895q0 -271 -132 -411t-389 -140z" />
    <glyph glyph-name="K" unicode="K" horiz-adv-x="1351" 
d="M152 0v1434h276v-676l539 676h319l-498 -615l535 -819h-326l-395 598l-174 -205v-393h-276z" />
    <glyph glyph-name="L" unicode="L" horiz-adv-x="1073" 
d="M152 0v1434h276v-1192h584v-242h-860z" />
    <glyph glyph-name="M" unicode="M" horiz-adv-x="1458" 
d="M152 0v1434h286l297 -746l289 746h283v-1434h-244v989l-258 -637h-152l-258 637v-989h-243z" />
    <glyph glyph-name="N" unicode="N" horiz-adv-x="1394" 
d="M152 0v1434h247l584 -938v938h260v-1434h-248l-583 940v-940h-260z" />
    <glyph glyph-name="O" unicode="O" horiz-adv-x="1411" 
d="M705 -12q-275 0 -443 199t-168 530t168 530t443 199q276 0 444 -198.5t168 -530.5t-168 -530.5t-444 -198.5zM705 225q160 0 244.5 126.5t84.5 365.5t-84.5 365t-244.5 126q-159 0 -243.5 -125.5t-84.5 -365.5t84.5 -366t243.5 -126z" />
    <glyph glyph-name="P" unicode="P" horiz-adv-x="1296" 
d="M152 0v1434h561q227 0 364 -127t137 -340t-137.5 -341t-363.5 -128h-285v-498h-276zM428 731h248q117 0 186.5 64.5t69.5 171.5t-68.5 169t-187.5 62h-248v-467z" />
    <glyph glyph-name="Q" unicode="Q" horiz-adv-x="1427" 
d="M1178 0q-128 0 -185 57q-129 -69 -288 -69q-275 0 -443 199t-168 530t168 530t443 199q276 0 444 -198.5t168 -530.5q0 -297 -139 -494h10h115v-223h-125zM705 225q89 0 157 41l-57 96q-24 39 -46 53.5t-69 14.5h-115v223h130q82 0 126 -25.5t82 -88.5l72 -119
q49 116 49 297q0 239 -84.5 365t-244.5 126q-159 0 -243.5 -125.5t-84.5 -365.5t84.5 -366t243.5 -126z" />
    <glyph glyph-name="R" unicode="R" horiz-adv-x="1310" 
d="M152 0v1434h546q227 0 366.5 -127.5t139.5 -339.5q0 -140 -71.5 -247.5t-196.5 -158.5l297 -561h-307l-260 498h-238v-498h-276zM428 731h236q118 0 188 64t70 172q0 106 -69.5 168.5t-186.5 62.5h-238v-467z" />
    <glyph glyph-name="S" unicode="S" horiz-adv-x="1296" 
d="M672 -12q-259 0 -415 131t-161 350h275q9 -119 90.5 -187.5t212.5 -68.5q117 0 184.5 49t67.5 137q0 89 -74 132t-274 81q-227 43 -338 137.5t-111 268.5q0 191 141.5 309.5t368.5 118.5q239 0 385 -121.5t152 -325.5h-273q-10 104 -80.5 163t-183.5 59q-107 0 -170 -48
t-63 -133q0 -86 72.5 -125.5t273.5 -76.5q224 -41 337 -140.5t113 -275.5q0 -192 -147.5 -313t-382.5 -121z" />
    <glyph glyph-name="T" unicode="T" horiz-adv-x="1243" 
d="M483 0v1192h-422v242h1121v-242h-422v-1192h-277z" />
    <glyph glyph-name="U" unicode="U" horiz-adv-x="1363" 
d="M680 -12q-266 0 -405.5 144.5t-139.5 422.5v879h277v-883q0 -322 268 -322q136 0 204 79t68 243v883h277v-879q0 -278 -140 -422.5t-409 -144.5z" />
    <glyph glyph-name="V" unicode="V" horiz-adv-x="1318" 
d="M498 0l-475 1434h290l349 -1098l350 1098h284l-473 -1434h-325z" />
    <glyph glyph-name="W" unicode="W" horiz-adv-x="1447" 
d="M276 0l-233 1434h264l146 -1055l180 711h184l178 -711l154 1055h256l-236 -1434h-272l-176 700l-172 -700h-273z" />
    <glyph glyph-name="X" unicode="X" horiz-adv-x="1333" 
d="M41 0l438 733l-413 701h315l291 -498l297 498h301l-416 -695l438 -739h-317l-316 537l-317 -537h-301z" />
    <glyph glyph-name="Y" unicode="Y" horiz-adv-x="1329" 
d="M528 0v541l-501 893h315l324 -600l338 600h299l-498 -895v-539h-277z" />
    <glyph glyph-name="Z" unicode="Z" 
d="M109 0v184l706 1008h-686v242h1051v-185l-705 -1007h725v-242h-1091z" />
    <glyph glyph-name="a" unicode="a" horiz-adv-x="1193" 
d="M475 -12q-171 0 -278 82t-107 227q0 166 119 254t344 88h225v57q0 79 -53 124.5t-150 45.5q-86 0 -141.5 -38t-64.5 -101h-254q17 154 143 245t328 91q215 0 332.5 -98.5t117.5 -284.5v-391q0 -39 14 -53.5t48 -14.5h37v-221h-129q-186 0 -193 156q-120 -168 -338 -168z
M520 180q119 0 188.5 68t69.5 178v35h-231q-94 0 -144.5 -38t-50.5 -110q0 -60 46 -96.5t122 -36.5z" />
    <glyph glyph-name="b" unicode="b" 
d="M721 -12q-213 0 -320 153l-24 -141h-227v1434h260v-525q122 154 321 154q212 0 347.5 -145t135.5 -392q0 -241 -138.5 -389.5t-354.5 -148.5zM676 203q124 0 198 88.5t74 232.5q0 146 -74 235t-198 89q-123 0 -196.5 -89.5t-73.5 -232.5q0 -144 73.5 -233.5t196.5 -89.5z
" />
    <glyph glyph-name="c" unicode="c" horiz-adv-x="1198" 
d="M616 -12q-241 0 -381.5 144t-140.5 392q0 245 145 392t386 147q204 0 331 -105t158 -292h-272q-19 86 -76 134t-145 48q-119 0 -191 -90t-72 -234q0 -143 72 -232t191 -89q88 0 146 49t75 135h272q-29 -185 -161.5 -292t-336.5 -107z" />
    <glyph glyph-name="d" unicode="d" 
d="M580 -12q-215 0 -350.5 146t-135.5 392q0 241 138.5 389t351.5 148q204 0 315 -141v512h260v-1434h-227l-27 152q-124 -164 -325 -164zM631 203q123 0 196.5 88.5t73.5 230.5q0 146 -73.5 236t-196.5 90t-198 -90t-75 -234q0 -142 75 -231.5t198 -89.5z" />
    <glyph glyph-name="e" unicode="e" horiz-adv-x="1226" 
d="M637 -12q-252 0 -397.5 145.5t-145.5 388.5q0 244 143.5 392.5t378.5 148.5q230 0 372 -136.5t145 -365.5q0 -38 -7 -96h-761v-12q4 -121 74 -192t186 -71q91 0 153 42.5t82 121.5h258q-27 -159 -156.5 -262.5t-324.5 -103.5zM373 645h495q-13 105 -79.5 162t-170.5 57
q-98 0 -166.5 -59.5t-78.5 -159.5z" />
    <glyph glyph-name="f" unicode="f" horiz-adv-x="968" 
d="M303 0v827h-252v224h252v88q0 295 307 295h297v-220h-254q-49 0 -71.5 -22t-22.5 -70v-71h348v-224h-344v-827h-260z" />
    <glyph glyph-name="g" unicode="g" 
d="M614 -422q-220 0 -351.5 97.5t-143.5 273.5h262q42 -168 250 -168q272 0 272 264v113q-111 -156 -317 -156q-218 0 -355 144t-137 384q0 232 138 382.5t348 150.5q217 0 327 -160l23 148h229v-1014q0 -221 -139 -340t-406 -119zM631 213q123 0 196.5 87t73.5 228
q0 145 -73 232.5t-197 87.5t-198.5 -87.5t-74.5 -230.5q0 -142 74.5 -229.5t198.5 -87.5z" />
    <glyph glyph-name="h" unicode="h" horiz-adv-x="1269" 
d="M150 0v1434h260v-510q113 139 309 139q190 0 303 -116t113 -353v-594h-261v571q0 126 -54.5 196.5t-166.5 70.5q-114 0 -178.5 -78t-64.5 -213v-547h-260z" />
    <glyph glyph-name="i" unicode="i" horiz-adv-x="1001" 
d="M88 0v223h295v604h-295v224h557v-828h287v-223h-844zM514 1198q-71 0 -118.5 47t-47.5 117q0 69 47.5 115.5t118.5 46.5t118.5 -46.5t47.5 -115.5q0 -70 -47.5 -117t-118.5 -47z" />
    <glyph glyph-name="j" unicode="j" horiz-adv-x="886" 
d="M41 -410v224h332q56 0 81 27.5t25 88.5v897h-438v224h698v-1153q0 -146 -75.5 -227t-221.5 -81h-401zM608 1198q-71 0 -118.5 47t-47.5 117q0 69 47.5 115.5t118.5 46.5t118.5 -46.5t47.5 -115.5q0 -70 -47.5 -117t-118.5 -47z" />
    <glyph glyph-name="k" unicode="k" horiz-adv-x="1193" 
d="M150 0v1434h260v-854l444 471h301l-397 -422l413 -629h-305l-291 440l-165 -178v-262h-260z" />
    <glyph glyph-name="l" unicode="l" horiz-adv-x="989" 
d="M78 0v223h295v987h-295v224h555v-1211h287v-223h-842z" />
    <glyph glyph-name="m" unicode="m" horiz-adv-x="1681" 
d="M150 0v1051h210l15 -107q92 119 258 119q89 0 160 -41t110 -113q108 154 293 154q163 0 255.5 -102.5t92.5 -286.5v-674h-250v643q0 88 -38.5 140.5t-116.5 52.5t-122 -55t-44 -142v-639h-252v643q0 193 -158 193q-78 0 -121 -55t-43 -144v-637h-249z" />
    <glyph glyph-name="n" unicode="n" horiz-adv-x="1259" 
d="M150 0v1051h227l24 -133q108 145 314 145q69 0 128 -15t111.5 -50t89.5 -88t58.5 -133.5t21.5 -182.5v-594h-260v567q0 271 -217 271q-113 0 -175 -76.5t-62 -218.5v-543h-260z" />
    <glyph glyph-name="o" unicode="o" horiz-adv-x="1257" 
d="M629 -12q-240 0 -387.5 147.5t-147.5 388.5q0 243 147.5 391t387.5 148t388 -148.5t148 -390.5q0 -241 -148 -388.5t-388 -147.5zM629 203q122 0 196 89.5t74 231.5q0 144 -74 234t-196 90t-196.5 -91t-74.5 -233q0 -141 74.5 -231t196.5 -90z" />
    <glyph glyph-name="p" unicode="p" 
d="M150 -410v1461h227l24 -150q122 162 326 162q214 0 349.5 -146t135.5 -393q0 -242 -135.5 -389t-347.5 -147q-211 0 -319 151v-549h-260zM676 203q123 0 197.5 89.5t74.5 233.5t-74 233t-198 89q-123 0 -196.5 -88.5t-73.5 -231.5q0 -144 73.5 -234.5t196.5 -90.5z" />
    <glyph glyph-name="q" unicode="q" 
d="M899 -410v553q-123 -155 -321 -155q-214 0 -349 144.5t-135 391.5q0 241 138 390t354 149q215 0 321 -152l25 140h227v-1461h-260zM631 203q123 0 196.5 89t73.5 232q0 146 -73 235t-197 89t-198.5 -89t-74.5 -233t74.5 -233.5t198.5 -89.5z" />
    <glyph glyph-name="r" unicode="r" horiz-adv-x="1067" 
d="M88 0v223h217v604h-217v224h459l8 -183q47 85 122 134t197 49h121v-238h-164q-138 0 -202 -81.5t-64 -213.5v-295h293v-223h-770z" />
    <glyph glyph-name="s" unicode="s" horiz-adv-x="1105" 
d="M567 -12q-214 0 -346 97t-139 263h250q8 -74 70.5 -121t166.5 -47q96 0 148.5 32t52.5 93q0 60 -49.5 82t-177.5 37q-83 10 -140.5 21t-118 33.5t-97 53t-60 80t-23.5 115.5q0 153 120 244.5t315 91.5q204 0 331.5 -89t137.5 -247h-252q-8 65 -64 104t-147 39
q-89 0 -140 -30t-51 -86q0 -25 10.5 -44t27.5 -31t48 -21t63 -14.5t81 -10.5q84 -10 141.5 -21t118.5 -33.5t97 -53.5t59.5 -82t23.5 -119q0 -153 -127.5 -244.5t-329.5 -91.5z" />
    <glyph glyph-name="t" unicode="t" horiz-adv-x="1009" 
d="M598 0q-150 0 -221.5 72.5t-71.5 222.5v532h-254v224h254v295h260v-295h348v-224h-348v-495q0 -59 24.5 -84t84.5 -25h248v-223h-324z" />
    <glyph glyph-name="u" unicode="u" horiz-adv-x="1253" 
d="M543 -12q-55 0 -103.5 10t-95 31.5t-83.5 59t-65.5 88t-43.5 122t-15 158.5v594h260v-562q0 -274 211 -274q111 0 174.5 78t63.5 221v537h260v-1051h-229l-25 131q-118 -143 -309 -143z" />
    <glyph glyph-name="v" unicode="v" horiz-adv-x="1153" 
d="M418 0l-391 1051h278l277 -781l274 781h272l-391 -1051h-319z" />
    <glyph glyph-name="w" unicode="w" horiz-adv-x="1392" 
d="M274 0l-225 1051h250l139 -754l174 616h179l170 -616l143 754h239l-227 -1051h-256l-162 563l-166 -563h-258z" />
    <glyph glyph-name="x" unicode="x" horiz-adv-x="1136" 
d="M23 0l393 537l-373 514h301l229 -328l236 328h285l-371 -514l391 -537h-301l-254 350l-252 -350h-284z" />
    <glyph glyph-name="y" unicode="y" horiz-adv-x="1159" 
d="M100 -410v224h172q59 0 84 18.5t47 77.5l35 84l-411 1057h276l279 -768l274 768h277l-480 -1207q-22 -57 -38.5 -93t-40 -70t-49.5 -52t-62 -28.5t-84 -10.5h-279z" />
    <glyph glyph-name="z" unicode="z" horiz-adv-x="1122" 
d="M86 0v190l580 637h-557v224h905v-191l-582 -637h604v-223h-950z" />
    <glyph glyph-name="uni00A0" unicode="&#xa0;" horiz-adv-x="675" 
 />
    <glyph glyph-name="Alphatonos" unicode="&#x386;" horiz-adv-x="1366" 
d="M37 0l477 1434h340l475 -1434h-293l-106 330h-504l-107 -330h-282zM489 559h375l-188 586zM16 1112l58 322h264l-152 -322h-170z" />
    <glyph glyph-name="Epsilontonos" unicode="&#x388;" horiz-adv-x="1445" 
d="M424 0v1434h915v-242h-639v-352h529v-232h-529v-366h664v-242h-940zM2 1112l57 322h265l-152 -322h-170z" />
    <glyph glyph-name="Etatonos" unicode="&#x389;" horiz-adv-x="1656" 
d="M424 0v1434h276v-588h529v588h276v-1434h-276v606h-529v-606h-276zM2 1112l57 322h265l-152 -322h-170z" />
    <glyph glyph-name="Iotatonos" unicode="&#x38a;" horiz-adv-x="1382" 
d="M391 0v236h299v962h-299v236h875v-236h-299v-962h299v-236h-875zM-39 1112l59 322h265l-152 -322h-172z" />
    <glyph glyph-name="Omicrontonos" unicode="&#x38c;" horiz-adv-x="1683" 
d="M977 -12q-275 0 -442.5 198.5t-167.5 530.5t167.5 530.5t442.5 198.5q278 0 446 -198.5t168 -530.5t-168 -530.5t-446 -198.5zM977 225q161 0 246.5 126.5t85.5 365.5t-85.5 365t-246.5 126q-158 0 -243 -125.5t-85 -365.5t85 -366t243 -126zM88 1112l57 322h265
l-152 -322h-170z" />
    <glyph glyph-name="Upsilontonos" unicode="&#x38e;" horiz-adv-x="1628" 
d="M862 0v541l-465 893h310l294 -600l306 600h295l-463 -895v-539h-277zM0 1112l57 322h267l-154 -322h-170z" />
    <glyph glyph-name="Omegatonos" unicode="&#x38f;" horiz-adv-x="1564" 
d="M377 0v242h260v37q-125 67 -192.5 209t-67.5 346q0 288 144 450t399 162t398.5 -161.5t143.5 -450.5q0 -203 -67.5 -345.5t-190.5 -209.5v-37h258v-242h-454v356q102 56 145 160t43 297q0 200 -68.5 297.5t-207.5 97.5q-275 0 -275 -395q0 -193 42 -297t142 -160v-356
h-452zM55 1112l58 322h266l-154 -322h-170z" />
    <glyph glyph-name="iotadieresistonos" unicode="&#x390;" horiz-adv-x="942" 
d="M674 0q-165 0 -240.5 71.5t-75.5 229.5v526h-270v224h533v-701q0 -72 28 -99.5t99 -27.5h124v-223h-198zM403 1165l-8 322h256l-88 -322h-160zM182 1192q-57 0 -96 38t-39 95t39 96t96 39q58 0 97.5 -39t39.5 -96t-39 -95t-98 -38zM821 1192q-57 0 -97 38t-40 95t40 96
t97 39t96 -39t39 -96t-39 -95t-96 -38z" />
    <glyph glyph-name="Alpha" unicode="&#x391;" horiz-adv-x="1366" 
d="M37 0l477 1434h340l475 -1434h-293l-106 330h-504l-107 -330h-282zM489 559h375l-188 586z" />
    <glyph glyph-name="Beta" unicode="&#x392;" horiz-adv-x="1310" 
d="M152 0v1434h514q236 0 364.5 -100.5t128.5 -278.5q0 -125 -66 -205.5t-186 -110.5q141 -21 223 -103t82 -226q0 -193 -136 -301.5t-390 -108.5h-534zM428 219h250q124 0 189 51.5t65 145.5q0 98 -66 150t-188 52h-250v-399zM428 834h236q106 0 163.5 51t57.5 141
q0 89 -57.5 138.5t-163.5 49.5h-236v-380z" />
    <glyph glyph-name="Gamma" unicode="&#x393;" horiz-adv-x="1355" 
d="M119 0v236h241v962h-241v236h1120v-535h-244v299h-368v-962h297v-236h-805z" />
    <glyph glyph-name="uni0394" unicode="&#x394;" horiz-adv-x="1300" 
d="M47 0v184l432 1250h340l434 -1250v-184h-1206zM344 242h604l-305 895z" />
    <glyph glyph-name="Epsilon" unicode="&#x395;" horiz-adv-x="1171" 
d="M152 0v1434h913v-242h-637v-352h528v-232h-528v-366h662v-242h-938z" />
    <glyph glyph-name="Zeta" unicode="&#x396;" 
d="M109 0v184l706 1008h-686v242h1051v-185l-705 -1007h725v-242h-1091z" />
    <glyph glyph-name="Eta" unicode="&#x397;" horiz-adv-x="1382" 
d="M152 0v1434h276v-588h528v588h277v-1434h-277v606h-528v-606h-276z" />
    <glyph glyph-name="Theta" unicode="&#x398;" horiz-adv-x="1411" 
d="M705 -12q-275 0 -443 199t-168 530t168 530t443 199q276 0 444 -198.5t168 -530.5t-168 -530.5t-444 -198.5zM705 217q166 0 257 127t91 373t-91 373t-257 127q-165 0 -256 -126.5t-91 -373.5t91 -373.5t256 -126.5zM465 618v201h481v-201h-481z" />
    <glyph glyph-name="Iota" unicode="&#x399;" horiz-adv-x="1110" 
d="M119 0v236h299v962h-299v236h872v-236h-297v-962h297v-236h-872z" />
    <glyph glyph-name="Kappa" unicode="&#x39a;" horiz-adv-x="1351" 
d="M152 0v1434h276v-676l539 676h319l-498 -615l535 -819h-326l-395 598l-174 -205v-393h-276z" />
    <glyph glyph-name="Lambda" unicode="&#x39b;" horiz-adv-x="1366" 
d="M37 0l483 1434h326l483 -1434h-291l-358 1098l-358 -1098h-285z" />
    <glyph glyph-name="Mu" unicode="&#x39c;" horiz-adv-x="1458" 
d="M152 0v1434h286l297 -746l289 746h283v-1434h-244v989l-258 -637h-152l-258 637v-989h-243z" />
    <glyph glyph-name="Nu" unicode="&#x39d;" horiz-adv-x="1394" 
d="M152 0v1434h247l584 -938v938h260v-1434h-248l-583 940v-940h-260z" />
    <glyph glyph-name="Xi" unicode="&#x39e;" horiz-adv-x="1271" 
d="M82 0v242h416v370h-269v226h269v354h-392v242h1059v-242h-391v-354h268v-226h-268v-370h416v-242h-1108z" />
    <glyph glyph-name="Omicron" unicode="&#x39f;" horiz-adv-x="1411" 
d="M705 -12q-275 0 -443 199t-168 530t168 530t443 199q276 0 444 -198.5t168 -530.5t-168 -530.5t-444 -198.5zM705 225q160 0 244.5 126.5t84.5 365.5t-84.5 365t-244.5 126q-159 0 -243.5 -125.5t-84.5 -365.5t84.5 -366t243.5 -126z" />
    <glyph glyph-name="Pi" unicode="&#x3a0;" horiz-adv-x="1376" 
d="M152 0v1434h1073v-1434h-277v1192h-520v-1192h-276z" />
    <glyph glyph-name="Rho" unicode="&#x3a1;" horiz-adv-x="1296" 
d="M152 0v1434h561q227 0 364 -127t137 -340t-137.5 -341t-363.5 -128h-285v-498h-276zM428 731h248q117 0 186.5 64.5t69.5 171.5t-68.5 169t-187.5 62h-248v-467z" />
    <glyph glyph-name="Sigma" unicode="&#x3a3;" 
d="M109 0v184l448 545l-432 520v185h1059v-242h-682l332 -412v-88l-369 -450h735v-242h-1091z" />
    <glyph glyph-name="Tau" unicode="&#x3a4;" horiz-adv-x="1243" 
d="M483 0v1192h-422v242h1121v-242h-422v-1192h-277z" />
    <glyph glyph-name="Upsilon" unicode="&#x3a5;" horiz-adv-x="1329" 
d="M528 0v541l-501 893h315l324 -600l338 600h299l-498 -895v-539h-277z" />
    <glyph glyph-name="Phi" unicode="&#x3a6;" horiz-adv-x="1601" 
d="M674 -41v125h-4q-271 0 -428.5 170t-157.5 463t157.5 463t428.5 170h4v125h254v-125h4q272 0 430 -170t158 -463t-158 -463t-430 -170h-4v-125h-254zM670 305h4v823h-4q-152 0 -238 -109t-86 -302q0 -194 86 -303t238 -109zM928 305h4q152 0 238.5 109.5t86.5 302.5
t-86.5 302t-238.5 109h-4v-823z" />
    <glyph glyph-name="Chi" unicode="&#x3a7;" horiz-adv-x="1333" 
d="M41 0l438 733l-413 701h315l291 -498l297 498h301l-416 -695l438 -739h-317l-316 537l-317 -537h-301z" />
    <glyph glyph-name="Psi" unicode="&#x3a8;" horiz-adv-x="1472" 
d="M606 0v385q-255 27 -370 177t-115 439v433h260v-416q0 -198 47.5 -287.5t177.5 -112.5v816h260v-816q130 23 178 112.5t48 287.5v416h260v-433q0 -289 -115.5 -439t-370.5 -177v-385h-260z" />
    <glyph glyph-name="uni03A9" unicode="&#x3a9;" horiz-adv-x="1292" 
d="M104 0v242h258v37q-123 67 -190.5 209t-67.5 346q0 288 144 450t399 162t398 -161.5t143 -450.5q0 -203 -67 -345.5t-189 -209.5v-37h256v-242h-453v356q101 56 144 160t43 297q0 395 -277 395q-274 0 -274 -395q0 -193 42.5 -297t143.5 -160v-356h-453z" />
    <glyph glyph-name="Iotadieresis" unicode="&#x3aa;" horiz-adv-x="1110" 
d="M119 0v236h299v962h-299v236h872v-236h-297v-962h297v-236h-872zM762 1571q-60 0 -100.5 39.5t-40.5 97.5q0 60 40.5 99.5t100.5 39.5t99.5 -39.5t39.5 -99.5q0 -59 -39.5 -98t-99.5 -39zM348 1571q-60 0 -99.5 39t-39.5 98q0 60 39.5 99.5t99.5 39.5t100.5 -39.5
t40.5 -99.5q0 -58 -40.5 -97.5t-100.5 -39.5z" />
    <glyph glyph-name="Upsilondieresis" unicode="&#x3ab;" horiz-adv-x="1329" 
d="M528 0v541l-501 893h315l324 -600l338 600h299l-498 -895v-539h-277zM872 1571q-60 0 -100.5 39.5t-40.5 97.5q0 60 40.5 99.5t100.5 39.5t100 -39.5t40 -99.5q0 -59 -40 -98t-100 -39zM459 1571q-60 0 -100 39t-40 98q0 60 40 99.5t100 39.5t100.5 -39.5t40.5 -99.5
q0 -58 -40.5 -97.5t-100.5 -39.5z" />
    <glyph glyph-name="alphatonos" unicode="&#x3ac;" horiz-adv-x="1302" 
d="M578 -12q-215 0 -349.5 145.5t-134.5 390.5q0 240 138 389.5t354 149.5q201 0 315 -143l25 131h227v-760q0 -37 13 -53.5t44 -16.5h37v-221h-141q-93 0 -140.5 40t-56.5 126q-121 -178 -331 -178zM629 203q121 0 194.5 88t73.5 231q0 146 -74 236t-194 90
q-122 0 -196.5 -88.5t-74.5 -233.5t75 -234t196 -89zM563 1165l58 322h264l-152 -322h-170z" />
    <glyph glyph-name="epsilontonos" unicode="&#x3ad;" horiz-adv-x="1159" 
d="M598 -12q-236 0 -374 85.5t-138 231.5q0 202 229 238q-97 19 -151.5 76.5t-54.5 148.5q0 136 122.5 215.5t346.5 79.5q230 0 362.5 -94t144.5 -254h-256q-28 157 -245 157q-101 0 -156 -31.5t-55 -88.5q0 -127 184 -127h168v-189h-184q-95 0 -142 -28.5t-47 -90.5
q0 -66 64.5 -102.5t177.5 -36.5q213 0 242 170h256q-19 -360 -494 -360zM496 1165l57 322h264l-151 -322h-170z" />
    <glyph glyph-name="etatonos" unicode="&#x3ae;" horiz-adv-x="1255" 
d="M860 -410v973q0 275 -215 275q-112 0 -173.5 -76t-61.5 -213v-549h-260v760q0 37 -13.5 53t-44.5 16h-35v222h140q87 0 133.5 -36t58.5 -112q56 75 132.5 117.5t191.5 42.5q68 0 126.5 -15t111 -50.5t89.5 -89t58.5 -134.5t21.5 -184v-1000h-260zM463 1165l57 322h264
l-151 -322h-170z" />
    <glyph glyph-name="iotatonos" unicode="&#x3af;" horiz-adv-x="942" 
d="M674 0q-165 0 -240.5 71.5t-75.5 229.5v526h-270v224h533v-701q0 -72 28 -99.5t99 -27.5h124v-223h-198zM406 1165l57 322h264l-152 -322h-169z" />
    <glyph glyph-name="upsilondieresistonos" unicode="&#x3b0;" horiz-adv-x="1232" 
d="M616 -12q-238 0 -358.5 121.5t-120.5 355.5v586h260v-557q0 -149 50.5 -217t168.5 -68t169 68t51 217v557h260v-586q0 -234 -121 -355.5t-359 -121.5zM530 1165l-8 322h256l-88 -322h-160zM309 1192q-57 0 -96 38t-39 95t39 96t96 39q58 0 97.5 -39t39.5 -96t-39 -95
t-98 -38zM948 1192q-57 0 -97 38t-40 95t40 96t97 39t96 -39t39 -96t-39 -95t-96 -38z" />
    <glyph glyph-name="alpha" unicode="&#x3b1;" horiz-adv-x="1302" 
d="M578 -12q-215 0 -349.5 145.5t-134.5 390.5q0 240 138 389.5t354 149.5q201 0 315 -143l25 131h227v-760q0 -37 13 -53.5t44 -16.5h37v-221h-141q-93 0 -140.5 40t-56.5 126q-121 -178 -331 -178zM629 203q121 0 194.5 88t73.5 231q0 146 -74 236t-194 90
q-122 0 -196.5 -88.5t-74.5 -233.5t75 -234t196 -89z" />
    <glyph glyph-name="beta" unicode="&#x3b2;" horiz-adv-x="1304" 
d="M150 -410v1391q0 220 133.5 342.5t357.5 122.5q214 0 343.5 -105t129.5 -272q0 -112 -57 -192.5t-146 -118.5q143 -31 221 -122t78 -235q0 -188 -128.5 -300.5t-350.5 -112.5q-205 0 -321 125v-523h-260zM705 190q113 0 178 57.5t65 160.5q0 111 -74.5 166t-211.5 55h-82
v194h32q115 0 177.5 60t62.5 155q0 93 -58 145t-157 52q-107 0 -167 -64t-60 -172v-544q0 -125 80.5 -195t214.5 -70z" />
    <glyph glyph-name="gamma" unicode="&#x3b3;" horiz-adv-x="1153" 
d="M449 -334v346l-422 1039h278l277 -729l274 729h272l-419 -1033v-352h-260z" />
    <glyph glyph-name="delta" unicode="&#x3b4;" horiz-adv-x="1245" 
d="M614 -12q-238 0 -379 128.5t-141 352.5q0 176 97 296.5t255 158.5q62 18 117 20l-354 287v203h885v-222h-539l276 -215q170 -125 246 -242t76 -276q0 -104 -36.5 -193.5t-103.5 -155.5t-170 -104t-229 -38zM623 193q121 0 192.5 76.5t71.5 207.5q0 133 -71 209t-193 76
t-193.5 -76t-71.5 -209q0 -131 72 -207.5t193 -76.5z" />
    <glyph glyph-name="epsilon" unicode="&#x3b5;" horiz-adv-x="1159" 
d="M598 -12q-236 0 -374 85.5t-138 231.5q0 202 229 238q-97 19 -151.5 76.5t-54.5 148.5q0 136 122.5 215.5t346.5 79.5q230 0 362.5 -94t144.5 -254h-256q-28 157 -245 157q-101 0 -156 -31.5t-55 -88.5q0 -127 184 -127h168v-189h-184q-95 0 -142 -28.5t-47 -90.5
q0 -66 64.5 -102.5t177.5 -36.5q213 0 242 170h256q-19 -360 -494 -360z" />
    <glyph glyph-name="zeta" unicode="&#x3b6;" horiz-adv-x="1122" 
d="M801 -276v139q0 75 -27 104t-96 31l-76 2q-243 8 -375.5 103.5t-132.5 265.5q0 129 75 255.5t277 331.5l252 254h-573v224h915v-181l-374 -374q-183 -186 -244.5 -281.5t-61.5 -189.5q0 -179 275 -185l78 -2q170 -4 244.5 -73.5t74.5 -221.5v-202h-231z" />
    <glyph glyph-name="eta" unicode="&#x3b7;" horiz-adv-x="1255" 
d="M860 -410v973q0 275 -215 275q-112 0 -173.5 -76t-61.5 -213v-549h-260v760q0 37 -13.5 53t-44.5 16h-35v222h140q87 0 133.5 -36t58.5 -112q56 75 132.5 117.5t191.5 42.5q68 0 126.5 -15t111 -50.5t89.5 -89t58.5 -134.5t21.5 -184v-1000h-260z" />
    <glyph glyph-name="theta" unicode="&#x3b8;" horiz-adv-x="1259" 
d="M629 -12q-248 0 -391.5 191t-143.5 540q0 348 143.5 537.5t391.5 189.5q250 0 393 -188.5t143 -538.5q0 -349 -143.5 -540t-392.5 -191zM629 199q126 0 199 105t85 317h-567q12 -212 85 -317t198 -105zM348 831h563q-26 404 -282 404q-123 0 -195.5 -99.5t-85.5 -304.5z
" />
    <glyph glyph-name="iota" unicode="&#x3b9;" horiz-adv-x="942" 
d="M674 0q-165 0 -240.5 71.5t-75.5 229.5v526h-270v224h533v-701q0 -72 28 -99.5t99 -27.5h124v-223h-198z" />
    <glyph glyph-name="kappa" unicode="&#x3ba;" horiz-adv-x="1208" 
d="M150 0v1051h260v-512l313 346q47 52 74.5 78t64.5 49t78 31t100 8h101v-224h-60q-62 0 -89 -12.5t-74 -64.5l-140 -150l408 -600h-303l-285 422l-188 -205v-217h-260z" />
    <glyph glyph-name="lambda" unicode="&#x3bb;" horiz-adv-x="1177" 
d="M37 0l432 1006l-41 104q-26 62 -54 81t-89 19h-152v224h217q72 0 116.5 -10.5t82 -44.5t64 -83t61.5 -139l469 -1157h-277l-278 702l-281 -702h-270z" />
    <glyph glyph-name="uni03BC" unicode="&#x3bc;" horiz-adv-x="1259" 
d="M150 -410v1461h260v-562q0 -136 49.5 -205t156.5 -69q111 0 173.5 77.5t62.5 221.5v537h260v-760q0 -37 13 -53.5t42 -16.5h37v-221h-139q-174 0 -195 150q-91 -162 -282 -162q-60 0 -111 20.5t-74 48.5v-467h-253z" />
    <glyph glyph-name="nu" unicode="&#x3bd;" horiz-adv-x="1153" 
d="M418 0l-391 1051h278l277 -781l274 781h272l-391 -1051h-319z" />
    <glyph glyph-name="xi" unicode="&#x3be;" horiz-adv-x="1165" 
d="M842 -276v135q0 79 -31 109t-111 32l-133 2q-234 3 -353.5 94t-119.5 281q0 137 78 230.5t207 125.5q-219 57 -219 250q0 92 56.5 153t152.5 76h-228v222h938v-203q-163 0 -282 -8q-188 -9 -279.5 -58.5t-91.5 -148.5q0 -180 262 -180h301v-218h-332q-144 0 -221.5 -52.5
t-77.5 -155.5q0 -96 66.5 -142t198.5 -49l122 -2q171 -3 248.5 -70t77.5 -225v-198h-229z" />
    <glyph glyph-name="omicron" unicode="&#x3bf;" horiz-adv-x="1257" 
d="M629 -12q-240 0 -387.5 147.5t-147.5 388.5q0 243 147.5 391t387.5 148t388 -148.5t148 -390.5q0 -241 -148 -388.5t-388 -147.5zM629 203q122 0 196 89.5t74 231.5q0 144 -74 234t-196 90t-196.5 -91t-74.5 -233q0 -141 74.5 -231t196.5 -90z" />
    <glyph glyph-name="pi" unicode="&#x3c0;" horiz-adv-x="1310" 
d="M219 0v827h-160v224h1203v-224h-168v-538q0 -40 15 -54t52 -14h43v-221h-164q-106 0 -157.5 51.5t-51.5 161.5v614h-356v-827h-256z" />
    <glyph glyph-name="rho" unicode="&#x3c1;" horiz-adv-x="1298" 
d="M137 -410v912q0 256 144.5 408.5t388.5 152.5q247 0 391.5 -145.5t144.5 -389.5q0 -242 -143.5 -391t-364.5 -149q-96 0 -175 28t-128 74v-500h-258zM668 203q124 0 198 88t74 233q0 146 -74 235t-198 89q-123 0 -197 -89.5t-74 -234.5q0 -143 74.5 -232t196.5 -89z" />
    <glyph glyph-name="sigma1" unicode="&#x3c2;" horiz-adv-x="1196" 
d="M756 -276v139q0 76 -28 104.5t-103 30.5l-72 2q-239 7 -349 136.5t-110 387.5q0 245 145 392t386 147q204 0 331 -105t158 -292h-272q-19 86 -76 134t-145 48q-119 0 -191 -90t-72 -234q0 -156 59 -226t187 -75l76 -2q163 -8 235 -75.5t72 -219.5v-202h-231z" />
    <glyph glyph-name="sigma" unicode="&#x3c3;" 
d="M629 -12q-243 0 -389 145t-146 385q0 242 146 387.5t387 145.5h626v-220h-225q67 -55 102 -140.5t35 -188.5q0 -104 -35.5 -196t-102 -163.5t-169.5 -113t-229 -41.5zM629 203q122 0 196 86.5t74 228.5q0 143 -73.5 230.5t-196.5 87.5q-121 0 -196 -88.5t-75 -229.5
q0 -140 75 -227.5t196 -87.5z" />
    <glyph glyph-name="tau" unicode="&#x3c4;" horiz-adv-x="1153" 
d="M727 0q-150 0 -222.5 72.5t-72.5 222.5v532h-364v224h1017v-224h-393v-495q0 -59 24.5 -84t84.5 -25h192v-223h-266z" />
    <glyph glyph-name="upsilon" unicode="&#x3c5;" horiz-adv-x="1232" 
d="M616 -12q-238 0 -358.5 121.5t-120.5 355.5v586h260v-557q0 -149 50.5 -217t168.5 -68t169 68t51 217v557h260v-586q0 -234 -121 -355.5t-359 -121.5z" />
    <glyph glyph-name="phi" unicode="&#x3c6;" horiz-adv-x="1554" 
d="M649 -410v410h-14q-242 0 -391.5 145.5t-149.5 378.5q0 235 151 381t396 146h8v268h256v-268h10q245 0 396 -146t151 -381q0 -232 -149.5 -378t-390.5 -146h-17v-410h-256zM641 209h10v633h-10q-134 0 -209.5 -86t-75.5 -232q0 -144 75.5 -229.5t209.5 -85.5zM903 209h12
q132 0 207.5 85.5t75.5 229.5q0 146 -75.5 232t-207.5 86h-12v-633z" />
    <glyph glyph-name="chi" unicode="&#x3c7;" horiz-adv-x="1234" 
d="M55 -410l418 736l-231 411q-31 55 -58.5 72.5t-83.5 17.5h-53v224h125q46 0 76.5 -3t58.5 -15.5t46 -26t41 -45.5t40 -62.5t47 -87.5l158 -295l283 535h268l-416 -734l232 -415q29 -54 55.5 -71t83.5 -17h55v-224h-113q-57 0 -92.5 5.5t-66 18t-56 42t-49 67.5t-57.5 105
l-160 301l-280 -539h-271z" />
    <glyph glyph-name="psi" unicode="&#x3c8;" horiz-adv-x="1386" 
d="M578 -410v404q-213 26 -327 145t-114 310v602h242v-580q0 -115 48 -178.5t151 -83.5v1106h231v-1106q103 20 151 83.5t48 178.5v580h241v-602q0 -191 -113.5 -310t-326.5 -145v-404h-231z" />
    <glyph glyph-name="omega" unicode="&#x3c9;" horiz-adv-x="1449" 
d="M455 -12q-165 0 -258 127.5t-93 347.5q0 175 49 329t140 259h266q-104 -133 -151.5 -273.5t-47.5 -308.5q0 -272 132 -272q118 0 118 227v274h232v-274q0 -116 28 -171.5t88 -55.5q134 0 134 272q0 170 -47.5 311t-151.5 271h264q90 -97 140.5 -255t50.5 -333
q0 -221 -93 -348t-258 -127q-102 0 -169 48.5t-105 153.5q-39 -106 -104 -154t-164 -48z" />
    <glyph glyph-name="iotadieresis" unicode="&#x3ca;" horiz-adv-x="942" 
d="M674 0q-165 0 -240.5 71.5t-75.5 229.5v526h-270v224h533v-701q0 -72 28 -99.5t99 -27.5h124v-223h-198zM260 1204q-65 0 -108 43t-43 107q0 63 43 105t108 42t108.5 -42t43.5 -105q0 -64 -43.5 -107t-108.5 -43zM717 1204q-63 0 -106.5 43t-43.5 107q0 63 43.5 105
t106.5 42q66 0 109.5 -42t43.5 -105q0 -65 -43.5 -107.5t-109.5 -42.5z" />
    <glyph glyph-name="upsilondieresis" unicode="&#x3cb;" horiz-adv-x="1232" 
d="M616 -12q-238 0 -358.5 121.5t-120.5 355.5v586h260v-557q0 -149 50.5 -217t168.5 -68t169 68t51 217v557h260v-586q0 -234 -121 -355.5t-359 -121.5zM387 1204q-65 0 -108 43t-43 107q0 63 43 105t108 42t108.5 -42t43.5 -105q0 -64 -43.5 -107t-108.5 -43zM844 1204
q-63 0 -106.5 43t-43.5 107q0 63 43.5 105t106.5 42q66 0 109.5 -42t43.5 -105q0 -65 -43.5 -107.5t-109.5 -42.5z" />
    <glyph glyph-name="omicrontonos" unicode="&#x3cc;" horiz-adv-x="1257" 
d="M629 -12q-240 0 -387.5 147.5t-147.5 388.5q0 243 147.5 391t387.5 148t388 -148.5t148 -390.5q0 -241 -148 -388.5t-388 -147.5zM629 203q122 0 196 89.5t74 231.5q0 144 -74 234t-196 90t-196.5 -91t-74.5 -233q0 -141 74.5 -231t196.5 -90zM545 1165l57 322h264
l-151 -322h-170z" />
    <glyph glyph-name="upsilontonos" unicode="&#x3cd;" horiz-adv-x="1232" 
d="M616 -12q-238 0 -358.5 121.5t-120.5 355.5v586h260v-557q0 -149 50.5 -217t168.5 -68t169 68t51 217v557h260v-586q0 -234 -121 -355.5t-359 -121.5zM532 1165l58 322h264l-152 -322h-170z" />
    <glyph glyph-name="omegatonos" unicode="&#x3ce;" horiz-adv-x="1449" 
d="M455 -12q-165 0 -258 127.5t-93 347.5q0 175 49 329t140 259h266q-104 -133 -151.5 -273.5t-47.5 -308.5q0 -272 132 -272q118 0 118 227v274h232v-274q0 -116 28 -171.5t88 -55.5q134 0 134 272q0 170 -47.5 311t-151.5 271h264q90 -97 140.5 -255t50.5 -333
q0 -221 -93 -348t-258 -127q-102 0 -169 48.5t-105 153.5q-39 -106 -104 -154t-164 -48zM643 1165l57 322h265l-152 -322h-170z" />
    <glyph glyph-name="uni0400" unicode="&#x400;" horiz-adv-x="1171" 
d="M152 0v1434h913v-242h-637v-352h528v-232h-528v-366h662v-242h-938zM520 1544l-252 291h307l148 -291h-203z" />
    <glyph glyph-name="uni0401" unicode="&#x401;" horiz-adv-x="1171" 
d="M152 0v1434h913v-242h-637v-352h528v-232h-528v-366h662v-242h-938z" />
    <glyph glyph-name="uni0402" unicode="&#x402;" horiz-adv-x="1531" 
d="M932 -276v239h67q84 0 132.5 54.5t48.5 160.5v252q0 116 -59 177t-169 61q-137 0 -247 -60v-608h-277v1192h-367v242h1121v-242h-477v-346q123 57 282 57q225 0 347 -111.5t122 -320.5v-301q0 -212 -112.5 -329t-305.5 -117h-106z" />
    <glyph glyph-name="uni0403" unicode="&#x403;" horiz-adv-x="1355" 
d="M119 0v236h241v962h-241v236h1120v-535h-244v299h-368v-962h297v-236h-805zM653 1548l154 297h309l-264 -297h-199z" />
    <glyph glyph-name="uni0404" unicode="&#x404;" horiz-adv-x="1368" 
d="M709 -12q-293 0 -454 192t-161 537q0 346 165 537.5t464 191.5q232 0 382 -136.5t179 -369.5h-283q-26 133 -99 202.5t-189 69.5q-146 0 -231.5 -96.5t-104.5 -281.5h463v-224h-465q17 -192 101.5 -290.5t232.5 -98.5q235 0 292 273h281q-29 -234 -182 -370t-391 -136z
" />
    <glyph glyph-name="uni0405" unicode="&#x405;" horiz-adv-x="1296" 
d="M672 -12q-259 0 -415 131t-161 350h275q9 -119 90.5 -187.5t212.5 -68.5q117 0 184.5 49t67.5 137q0 89 -74 132t-274 81q-227 43 -338 137.5t-111 268.5q0 191 141.5 309.5t368.5 118.5q239 0 385 -121.5t152 -325.5h-273q-10 104 -80.5 163t-183.5 59q-107 0 -170 -48
t-63 -133q0 -86 72.5 -125.5t273.5 -76.5q224 -41 337 -140.5t113 -275.5q0 -192 -147.5 -313t-382.5 -121z" />
    <glyph glyph-name="uni0406" unicode="&#x406;" horiz-adv-x="1110" 
d="M119 0v236h299v962h-299v236h872v-236h-297v-962h297v-236h-872z" />
    <glyph glyph-name="uni0407" unicode="&#x407;" horiz-adv-x="1110" 
d="M119 0v236h299v962h-299v236h872v-236h-297v-962h297v-236h-872zM762 1571q-60 0 -100.5 39.5t-40.5 97.5q0 60 40.5 99.5t100.5 39.5t99.5 -39.5t39.5 -99.5q0 -59 -39.5 -98t-99.5 -39zM348 1571q-60 0 -99.5 39t-39.5 98q0 60 39.5 99.5t99.5 39.5q61 0 101 -39.5
t40 -99.5q0 -59 -40 -98t-101 -39z" />
    <glyph glyph-name="uni0408" unicode="&#x408;" horiz-adv-x="1228" 
d="M575 -12q-255 0 -384.5 140t-129.5 411h275q0 -312 242 -312q123 0 182 75.5t59 234.5v661h-473v236h750v-895q0 -271 -132 -411t-389 -140z" />
    <glyph glyph-name="uni0409" unicode="&#x409;" horiz-adv-x="1771" 
d="M16 0v233h25q91 0 129.5 100.5t38.5 334.5v766h864v-549h150q228 0 351.5 -115t123.5 -326q0 -212 -124 -328t-351 -116h-412v1204h-358v-553q0 -338 -96 -494.5t-300 -156.5h-41zM1073 221h137q109 0 165.5 56.5t56.5 166.5q0 107 -57.5 163.5t-164.5 56.5h-137v-443z
" />
    <glyph glyph-name="uni040A" unicode="&#x40a;" horiz-adv-x="1773" 
d="M141 0v1434h260v-555h414v555h260v-549h150q230 0 353.5 -115t123.5 -326q0 -212 -124 -328t-353 -116h-410v653h-414v-653h-260zM1075 221h137q110 0 167 56.5t57 166.5q0 106 -57 163t-167 57h-137v-443z" />
    <glyph glyph-name="uni040B" unicode="&#x40b;" horiz-adv-x="1538" 
d="M428 0v1192h-367v242h1121v-242h-477v-346q126 57 282 57q228 0 350.5 -112.5t122.5 -319.5v-471h-276v430q0 115 -59 176.5t-173 61.5q-133 0 -247 -60v-608h-277z" />
    <glyph glyph-name="uni040C" unicode="&#x40c;" horiz-adv-x="1349" 
d="M152 0v1434h276v-590h197l356 590h301l-424 -689l453 -745h-318l-362 610h-203v-610h-276zM582 1548l153 297h309l-264 -297h-198z" />
    <glyph glyph-name="uni040D" unicode="&#x40d;" horiz-adv-x="1413" 
d="M152 0v1434h270v-949l602 949h240v-1434h-271v948l-604 -948h-237zM596 1544l-254 291h309l148 -291h-203z" />
    <glyph glyph-name="uni040E" unicode="&#x40e;" horiz-adv-x="1314" 
d="M207 0v242h131q80 0 119.5 21.5t70.5 90.5l31 72l-532 1008h307l360 -713l303 713h291l-514 -1151q-69 -154 -154.5 -218.5t-207.5 -64.5h-205zM655 1538q-153 0 -239.5 83.5t-91.5 223.5h200q0 -60 35 -95.5t98 -35.5q64 0 100 36t36 95h200q-5 -139 -94 -223t-244 -84z
" />
    <glyph glyph-name="uni040F" unicode="&#x40f;" horiz-adv-x="1361" 
d="M547 -293v293h-395v1434h276v-1192h508v1192h276v-1434h-399v-293h-266z" />
    <glyph glyph-name="uni0410" unicode="&#x410;" horiz-adv-x="1366" 
d="M37 0l477 1434h340l475 -1434h-293l-106 330h-504l-107 -330h-282zM489 559h375l-188 586z" />
    <glyph glyph-name="uni0411" unicode="&#x411;" horiz-adv-x="1249" 
d="M152 0v1434h903v-232h-631v-334h262q230 0 356.5 -113t126.5 -319q0 -204 -128 -320t-355 -116h-534zM424 229h238q109 0 170 54.5t61 152.5q0 95 -62 150t-169 55h-238v-412z" />
    <glyph glyph-name="uni0412" unicode="&#x412;" horiz-adv-x="1310" 
d="M152 0v1434h514q236 0 364.5 -100.5t128.5 -278.5q0 -125 -66 -205.5t-186 -110.5q141 -21 223 -103t82 -226q0 -193 -136 -301.5t-390 -108.5h-534zM428 219h250q124 0 189 51.5t65 145.5q0 98 -66 150t-188 52h-250v-399zM428 834h236q106 0 163.5 51t57.5 141
q0 89 -57.5 138.5t-163.5 49.5h-236v-380z" />
    <glyph glyph-name="uni0413" unicode="&#x413;" horiz-adv-x="1355" 
d="M119 0v236h241v962h-241v236h1120v-535h-244v299h-368v-962h297v-236h-805z" />
    <glyph glyph-name="uni0414" unicode="&#x414;" horiz-adv-x="1433" 
d="M39 -293v535h111q60 77 85 204t25 342v646h977v-1192h137v-535h-256v293h-823v-293h-256zM424 242h553v960h-469v-448q0 -343 -84 -512z" />
    <glyph glyph-name="uni0415" unicode="&#x415;" horiz-adv-x="1171" 
d="M152 0v1434h913v-242h-637v-352h528v-232h-528v-366h662v-242h-938z" />
    <glyph glyph-name="uni0416" unicode="&#x416;" horiz-adv-x="1675" 
d="M31 0l313 743l-283 691h273l225 -592h150v592h258v-592h149l238 592h262l-285 -691l316 -743h-279l-248 610h-153v-610h-258v610h-154l-248 -610h-276z" />
    <glyph glyph-name="uni0417" unicode="&#x417;" horiz-adv-x="1259" 
d="M612 -12q-260 0 -402 119t-151 346h271q9 -121 83.5 -180.5t204.5 -59.5q124 0 194.5 54.5t70.5 152.5q0 194 -267 194h-172v224h168q121 0 182.5 50t61.5 146q0 91 -65.5 139t-180.5 48q-120 0 -191 -57.5t-83 -166.5h-266q12 203 161 326t383 123q243 0 381 -104.5
t138 -282.5q0 -126 -64.5 -207t-179.5 -111q125 -31 198.5 -115t73.5 -223q0 -189 -148.5 -302t-400.5 -113z" />
    <glyph glyph-name="uni0418" unicode="&#x418;" horiz-adv-x="1413" 
d="M152 0v1434h270v-949l602 949h240v-1434h-271v948l-604 -948h-237z" />
    <glyph glyph-name="uni0419" unicode="&#x419;" horiz-adv-x="1413" 
d="M152 0v1434h270v-949l602 949h240v-1434h-271v948l-604 -948h-237zM700 1538q-153 0 -239.5 83.5t-91.5 223.5h200q0 -60 35 -95.5t98 -35.5q64 0 100 36t36 95h200q-5 -139 -94 -223t-244 -84z" />
    <glyph glyph-name="uni041A" unicode="&#x41a;" horiz-adv-x="1349" 
d="M152 0v1434h276v-590h197l356 590h301l-424 -689l453 -745h-318l-362 610h-203v-610h-276z" />
    <glyph glyph-name="uni041B" unicode="&#x41b;" horiz-adv-x="1392" 
d="M16 0v242h33q108 0 153.5 105t45.5 355v732h993v-1434h-276v1196h-463v-502q0 -350 -108 -522t-328 -172h-50z" />
    <glyph glyph-name="uni041C" unicode="&#x41c;" horiz-adv-x="1458" 
d="M152 0v1434h286l297 -746l289 746h283v-1434h-244v989l-258 -637h-152l-258 637v-989h-243z" />
    <glyph glyph-name="uni041D" unicode="&#x41d;" horiz-adv-x="1382" 
d="M152 0v1434h276v-588h528v588h277v-1434h-277v606h-528v-606h-276z" />
    <glyph glyph-name="uni041E" unicode="&#x41e;" horiz-adv-x="1411" 
d="M705 -12q-275 0 -443 199t-168 530t168 530t443 199q276 0 444 -198.5t168 -530.5t-168 -530.5t-444 -198.5zM705 225q160 0 244.5 126.5t84.5 365.5t-84.5 365t-244.5 126q-159 0 -243.5 -125.5t-84.5 -365.5t84.5 -366t243.5 -126z" />
    <glyph glyph-name="uni041F" unicode="&#x41f;" horiz-adv-x="1376" 
d="M152 0v1434h1073v-1434h-277v1192h-520v-1192h-276z" />
    <glyph glyph-name="uni0420" unicode="&#x420;" horiz-adv-x="1296" 
d="M152 0v1434h561q227 0 364 -127t137 -340t-137.5 -341t-363.5 -128h-285v-498h-276zM428 731h248q117 0 186.5 64.5t69.5 171.5t-68.5 169t-187.5 62h-248v-467z" />
    <glyph glyph-name="uni0421" unicode="&#x421;" horiz-adv-x="1368" 
d="M713 -12q-294 0 -456.5 191.5t-162.5 537.5t165.5 537.5t465.5 191.5q228 0 378 -137t181 -377h-283q-60 276 -284 276q-165 0 -252.5 -127t-87.5 -364t86 -364.5t250 -127.5q117 0 186.5 68.5t99.5 208.5h283q-31 -242 -182 -378t-387 -136z" />
    <glyph glyph-name="uni0422" unicode="&#x422;" horiz-adv-x="1243" 
d="M483 0v1192h-422v242h1121v-242h-422v-1192h-277z" />
    <glyph glyph-name="uni0423" unicode="&#x423;" horiz-adv-x="1314" 
d="M207 0v242h131q80 0 119.5 21.5t70.5 90.5l31 72l-532 1008h307l360 -713l303 713h291l-514 -1151q-69 -154 -154.5 -218.5t-207.5 -64.5h-205z" />
    <glyph glyph-name="uni0424" unicode="&#x424;" horiz-adv-x="1601" 
d="M674 -41v125h-4q-271 0 -428.5 170t-157.5 463t157.5 463t428.5 170h4v125h254v-125h4q272 0 430 -170t158 -463t-158 -463t-430 -170h-4v-125h-254zM670 305h4v823h-4q-152 0 -238 -109t-86 -302q0 -194 86 -303t238 -109zM928 305h4q152 0 238.5 109.5t86.5 302.5
t-86.5 302t-238.5 109h-4v-823z" />
    <glyph glyph-name="uni0425" unicode="&#x425;" horiz-adv-x="1333" 
d="M41 0l438 733l-413 701h315l291 -498l297 498h301l-416 -695l438 -739h-317l-316 537l-317 -537h-301z" />
    <glyph glyph-name="uni0426" unicode="&#x426;" horiz-adv-x="1425" 
d="M152 0v1434h276v-1192h508v1192h276v-1192h154v-535h-256v293h-958z" />
    <glyph glyph-name="uni0427" unicode="&#x427;" horiz-adv-x="1273" 
d="M846 0v541q-137 -45 -279 -45q-238 0 -363.5 114t-125.5 324v500h276v-459q0 -118 64 -181t190 -63q125 0 238 47v656h276v-1434h-276z" />
    <glyph glyph-name="uni0428" unicode="&#x428;" horiz-adv-x="1699" 
d="M141 0v1434h256v-1201h326v1201h256v-1201h326v1201h256v-1434h-1420z" />
    <glyph glyph-name="uni0429" unicode="&#x429;" horiz-adv-x="1773" 
d="M141 0v1434h256v-1201h326v1201h256v-1201h326v1201h256v-1192h145v-535h-256v293h-1309z" />
    <glyph glyph-name="uni042A" unicode="&#x42a;" horiz-adv-x="1466" 
d="M391 0v1192h-330v242h596v-502h232q227 0 361 -126t134 -341t-133.5 -340t-361.5 -125h-498zM657 227h211q116 0 180 62t64 176t-65 177t-179 63h-211v-478z" />
    <glyph glyph-name="uni042B" unicode="&#x42b;" horiz-adv-x="1679" 
d="M141 0v1434h267v-502h221q225 0 358 -126t133 -341q0 -213 -133 -339t-358 -126h-488zM408 227h202q111 0 174.5 63t63.5 175q0 114 -63.5 177t-176.5 63h-200v-478zM1272 0v1434h266v-1434h-266z" />
    <glyph glyph-name="uni042C" unicode="&#x42c;" horiz-adv-x="1294" 
d="M152 0v1434h276v-498h272q231 0 370.5 -127.5t139.5 -341.5t-139.5 -340.5t-370.5 -126.5h-548zM428 236h250q116 0 184 61.5t68 169.5q0 110 -68 172.5t-186 62.5h-248v-466z" />
    <glyph glyph-name="uni042D" unicode="&#x42d;" horiz-adv-x="1368" 
d="M659 -12q-238 0 -391 136t-182 370h283q27 -133 100 -203t190 -70q299 0 334 389h-465v224h465q-19 185 -105 281.5t-233 96.5q-116 0 -189 -69.5t-99 -202.5h-281q29 233 178.5 369.5t380.5 136.5q300 0 465.5 -191.5t165.5 -537.5q0 -345 -162 -537t-455 -192z" />
    <glyph glyph-name="uni042E" unicode="&#x42e;" horiz-adv-x="1695" 
d="M1081 -12q-228 0 -366 164.5t-160 457.5h-158v-610h-256v1434h256v-592h158q26 286 164 445t362 159q250 0 391.5 -193t141.5 -536t-141.5 -536t-391.5 -193zM1081 219q269 0 269 498q0 497 -269 497q-270 0 -270 -497q0 -498 270 -498z" />
    <glyph glyph-name="uni042F" unicode="&#x42f;" horiz-adv-x="1329" 
d="M88 0l332 543q-144 46 -222.5 160t-78.5 264q0 212 139.5 339.5t366.5 127.5h553v-1434h-277v498h-213l-287 -498h-313zM659 731h242v467h-244q-116 0 -186 -63t-70 -168q0 -107 70.5 -171.5t187.5 -64.5z" />
    <glyph glyph-name="uni0430" unicode="&#x430;" horiz-adv-x="1193" 
d="M475 -12q-171 0 -278 82t-107 227q0 166 119 254t344 88h225v57q0 79 -53 124.5t-150 45.5q-86 0 -141.5 -38t-64.5 -101h-254q17 154 143 245t328 91q215 0 332.5 -98.5t117.5 -284.5v-391q0 -39 14 -53.5t48 -14.5h37v-221h-129q-186 0 -193 156q-120 -168 -338 -168z
M520 180q119 0 188.5 68t69.5 178v35h-231q-94 0 -144.5 -38t-50.5 -110q0 -60 46 -96.5t122 -36.5z" />
    <glyph glyph-name="uni0431" unicode="&#x431;" horiz-adv-x="1249" 
d="M621 -12q-253 0 -385 155.5t-132 470.5q0 200 30 335.5t101.5 230.5t185 146.5t286.5 74.5l335 45v-229l-282 -39q-224 -31 -312.5 -105.5t-113.5 -255.5q116 152 356 152q210 0 337.5 -130.5t127.5 -349.5q0 -226 -145 -363.5t-389 -137.5zM631 195q117 0 187.5 79
t70.5 207q0 125 -70.5 205t-183.5 80q-117 0 -188.5 -77.5t-71.5 -196.5q0 -137 70.5 -217t185.5 -80z" />
    <glyph glyph-name="uni0432" unicode="&#x432;" horiz-adv-x="1163" 
d="M150 0v1051h468q211 0 320 -71.5t109 -205.5q0 -189 -197 -231q231 -32 231 -242q0 -301 -452 -301h-479zM401 184h244q174 0 174 129q0 63 -44.5 96t-129.5 33h-244v-258zM401 618h220q161 0 161 125q0 123 -161 123h-220v-248z" />
    <glyph glyph-name="uni0433" unicode="&#x433;" horiz-adv-x="1200" 
d="M88 0v223h217v604h-217v224h1026v-488h-229v264h-322v-604h250v-223h-725z" />
    <glyph glyph-name="uni0434" unicode="&#x434;" horiz-adv-x="1263" 
d="M25 -272v495h106q105 91 105 445v383h849v-828h146v-495h-250v272h-705v-272h-251zM399 223h437v615h-363v-207q0 -270 -74 -408z" />
    <glyph glyph-name="uni0435" unicode="&#x435;" horiz-adv-x="1226" 
d="M637 -12q-252 0 -397.5 145.5t-145.5 388.5q0 244 143.5 392.5t378.5 148.5q230 0 372 -136.5t145 -365.5q0 -38 -7 -96h-761v-12q4 -121 74 -192t186 -71q91 0 153 42.5t82 121.5h258q-27 -159 -156.5 -262.5t-324.5 -103.5zM373 645h495q-13 105 -79.5 162t-170.5 57
q-98 0 -166.5 -59.5t-78.5 -159.5z" />
    <glyph glyph-name="uni0436" unicode="&#x436;" horiz-adv-x="1486" 
d="M23 0l274 549l-246 502h254l199 -414h112v414h252v-414h115l199 414h254l-248 -502l276 -549h-272l-209 426h-115v-426h-252v426h-114l-209 -426h-270z" />
    <glyph glyph-name="uni0437" unicode="&#x437;" horiz-adv-x="1134" 
d="M557 -12q-233 0 -351 93.5t-126 266.5h258q9 -81 64.5 -125.5t158.5 -44.5q106 0 166.5 36.5t60.5 100.5q0 63 -44 92t-134 29h-166v189h150q172 0 172 127q0 57 -51.5 88.5t-147.5 31.5q-204 0 -223 -157h-258q9 161 134.5 254.5t352.5 93.5q218 0 337.5 -79.5
t119.5 -215.5q0 -92 -52.5 -148.5t-143.5 -76.5q105 -18 162 -77.5t57 -160.5q0 -146 -133.5 -231.5t-362.5 -85.5z" />
    <glyph glyph-name="uni0438" unicode="&#x438;" horiz-adv-x="1273" 
d="M150 0v1051h251v-672l498 672h225v-1051h-252v672l-497 -672h-225z" />
    <glyph glyph-name="uni0439" unicode="&#x439;" horiz-adv-x="1273" 
d="M150 0v1051h251v-672l498 672h225v-1051h-252v672l-497 -672h-225zM635 1155q-154 0 -240.5 83.5t-91.5 223.5h201q0 -60 35 -95.5t98 -35.5t99 35.5t36 95.5h201q-5 -139 -94 -223t-244 -84z" />
    <glyph glyph-name="uni043A" unicode="&#x43a;" horiz-adv-x="1206" 
d="M150 0v1051h260v-408h170l288 408h287l-352 -498l381 -553h-310l-292 420h-172v-420h-260z" />
    <glyph glyph-name="uni043B" unicode="&#x43b;" horiz-adv-x="1220" 
d="M31 0v223h32q80 0 114 74t34 250v504h862v-1051h-260v827h-360v-276q0 -551 -369 -551h-53z" />
    <glyph glyph-name="uni043C" unicode="&#x43c;" horiz-adv-x="1409" 
d="M150 0v1051h266l295 -539l284 539h265v-1051h-242v668l-242 -437h-143l-244 437v-668h-239z" />
    <glyph glyph-name="uni043D" unicode="&#x43d;" horiz-adv-x="1267" 
d="M150 0v1051h260v-408h448v408h260v-1051h-260v420h-448v-420h-260z" />
    <glyph glyph-name="uni043E" unicode="&#x43e;" horiz-adv-x="1257" 
d="M629 -12q-240 0 -387.5 147.5t-147.5 388.5q0 243 147.5 391t387.5 148t388 -148.5t148 -390.5q0 -241 -148 -388.5t-388 -147.5zM629 203q122 0 196 89.5t74 231.5q0 144 -74 234t-196 90t-196.5 -91t-74.5 -233q0 -141 74.5 -231t196.5 -90z" />
    <glyph glyph-name="uni043F" unicode="&#x43f;" horiz-adv-x="1247" 
d="M150 0v1051h948v-1051h-260v827h-428v-827h-260z" />
    <glyph glyph-name="uni0440" unicode="&#x440;" 
d="M150 -410v1461h227l24 -150q122 162 326 162q214 0 349.5 -146t135.5 -393q0 -242 -135.5 -389t-347.5 -147q-211 0 -319 151v-549h-260zM676 203q123 0 197.5 89.5t74.5 233.5t-74 233t-198 89q-123 0 -196.5 -88.5t-73.5 -231.5q0 -144 73.5 -234.5t196.5 -90.5z" />
    <glyph glyph-name="uni0441" unicode="&#x441;" horiz-adv-x="1198" 
d="M616 -12q-241 0 -381.5 144t-140.5 392q0 245 145 392t386 147q204 0 331 -105t158 -292h-272q-19 86 -76 134t-145 48q-119 0 -191 -90t-72 -234q0 -143 72 -232t191 -89q88 0 146 49t75 135h272q-29 -185 -161.5 -292t-336.5 -107z" />
    <glyph glyph-name="uni0442" unicode="&#x442;" horiz-adv-x="1015" 
d="M379 0v827h-342v224h942v-224h-340v-827h-260z" />
    <glyph glyph-name="uni0443" unicode="&#x443;" horiz-adv-x="1159" 
d="M100 -410v224h172q59 0 84 18.5t47 77.5l35 84l-411 1057h276l279 -768l274 768h277l-480 -1207q-22 -57 -38.5 -93t-40 -70t-49.5 -52t-62 -28.5t-84 -10.5h-279z" />
    <glyph glyph-name="uni0444" unicode="&#x444;" horiz-adv-x="1554" 
d="M649 -410v410h-14q-238 0 -389.5 146.5t-151.5 377.5q0 234 152.5 380.5t394.5 146.5h8v350h256v-350h10q242 0 394.5 -146.5t152.5 -380.5q0 -231 -151.5 -377.5t-388.5 -146.5h-17v-410h-256zM641 207h10v637h-10q-130 0 -207.5 -87.5t-77.5 -232.5q0 -143 77.5 -230
t207.5 -87zM903 207h12q129 0 206 87t77 230q0 145 -77 232.5t-206 87.5h-12v-637z" />
    <glyph glyph-name="uni0445" unicode="&#x445;" horiz-adv-x="1136" 
d="M23 0l393 537l-373 514h301l229 -328l236 328h285l-371 -514l391 -537h-301l-254 350l-252 -350h-284z" />
    <glyph glyph-name="uni0446" unicode="&#x446;" horiz-adv-x="1251" 
d="M150 0v1051h260v-828h405v828h260v-828h146v-495h-252v272h-819z" />
    <glyph glyph-name="uni0447" unicode="&#x447;" horiz-adv-x="1177" 
d="M768 0v356q-103 -34 -225 -34q-216 0 -320 97.5t-104 303.5v328h260v-299q0 -113 49 -162t160 -49q106 0 180 32v478h260v-1051h-260z" />
    <glyph glyph-name="uni0448" unicode="&#x448;" horiz-adv-x="1667" 
d="M150 0v1051h249v-828h310v828h249v-828h310v828h250v-1051h-1368z" />
    <glyph glyph-name="uni0449" unicode="&#x449;" horiz-adv-x="1695" 
d="M150 0v1051h249v-828h310v828h249v-828h310v828h250v-828h147v-495h-252v272h-1263z" />
    <glyph glyph-name="uni044A" unicode="&#x44a;" horiz-adv-x="1302" 
d="M328 0v827h-291v224h551v-316h205q201 0 313.5 -97.5t112.5 -270.5q0 -172 -112.5 -269.5t-313.5 -97.5h-465zM588 199h160q100 0 153 44t53 124q0 83 -52.5 126.5t-153.5 43.5h-160v-338z" />
    <glyph glyph-name="uni044B" unicode="&#x44b;" horiz-adv-x="1624" 
d="M150 0v1051h260v-316h227q201 0 313.5 -97.5t112.5 -270.5q0 -172 -112.5 -269.5t-313.5 -97.5h-487zM410 199h182q100 0 153.5 44t53.5 124q0 83 -53 126.5t-154 43.5h-182v-338zM1214 0v1051h261v-1051h-261z" />
    <glyph glyph-name="uni044C" unicode="&#x44c;" horiz-adv-x="1161" 
d="M150 0v1051h260v-316h243q200 0 313 -97.5t113 -270.5q0 -172 -113.5 -269.5t-312.5 -97.5h-503zM410 199h198q99 0 153 44t54 124q0 83 -53.5 126.5t-153.5 43.5h-198v-338z" />
    <glyph glyph-name="uni044D" unicode="&#x44d;" horiz-adv-x="1196" 
d="M573 -12q-204 0 -331.5 104.5t-157.5 288.5h260q19 -88 79.5 -137t154.5 -49q102 0 170.5 63.5t87.5 173.5h-355v189h355q-20 111 -88 173t-170 62q-195 0 -234 -188h-260q29 186 159.5 290.5t336.5 104.5q243 0 383.5 -145t140.5 -394q0 -244 -143 -390t-388 -146z" />
    <glyph glyph-name="uni044E" unicode="&#x44e;" horiz-adv-x="1634" 
d="M1036 -12q-204 0 -336 115.5t-161 316.5h-140v-420h-249v1051h249v-416h142q29 199 160.5 312.5t334.5 113.5q231 0 368.5 -145.5t137.5 -391.5q0 -245 -137.5 -390.5t-368.5 -145.5zM1036 197q116 0 182 87t66 240q0 155 -66 241.5t-182 86.5q-117 0 -182.5 -86
t-65.5 -242q0 -155 65.5 -241t182.5 -86z" />
    <glyph glyph-name="uni044F" unicode="&#x44f;" horiz-adv-x="1155" 
d="M47 0l260 375q-109 31 -167 112t-58 203q0 169 116.5 265t329.5 96h480v-1051h-260v334h-183l-221 -334h-297zM535 535h213v315h-213q-90 0 -139.5 -41t-49.5 -115q0 -79 48.5 -119t140.5 -40z" />
    <glyph glyph-name="uni0450" unicode="&#x450;" horiz-adv-x="1226" 
d="M637 -12q-252 0 -397.5 145.5t-145.5 388.5q0 244 143.5 392.5t378.5 148.5q230 0 372 -136.5t145 -365.5q0 -38 -7 -96h-761v-12q4 -121 74 -192t186 -71q91 0 153 42.5t82 121.5h258q-27 -159 -156.5 -262.5t-324.5 -103.5zM373 645h495q-13 105 -79.5 162t-170.5 57
q-98 0 -166.5 -59.5t-78.5 -159.5zM506 1161l-252 301h307l148 -301h-203z" />
    <glyph glyph-name="uni0451" unicode="&#x451;" horiz-adv-x="1226" 
d="M637 -12q-252 0 -397.5 145.5t-145.5 388.5q0 244 143.5 392.5t378.5 148.5q230 0 372 -136.5t145 -365.5q0 -38 -7 -96h-761v-12q4 -121 74 -192t186 -71q91 0 153 42.5t82 121.5h258q-27 -159 -156.5 -262.5t-324.5 -103.5zM373 645h495q-13 105 -79.5 162t-170.5 57
q-98 0 -166.5 -59.5t-78.5 -159.5z" />
    <glyph glyph-name="uni0452" unicode="&#x452;" horiz-adv-x="1284" 
d="M698 -410v224h84q56 0 81.5 27.5t25.5 88.5v641q0 126 -55 196.5t-166 70.5q-114 0 -179 -78t-65 -213v-547h-260v1149h-166v174h166v111h260v-111h313v-174h-313v-225q113 139 309 139q190 0 303 -116t113 -353v-696q0 -146 -75.5 -227t-221.5 -81h-154z" />
    <glyph glyph-name="uni0453" unicode="&#x453;" horiz-adv-x="1200" 
d="M88 0v223h217v604h-217v224h1026v-488h-229v264h-322v-604h250v-223h-725zM518 1165l154 297h309l-264 -297h-199z" />
    <glyph glyph-name="uni0454" unicode="&#x454;" horiz-adv-x="1196" 
d="M614 -12q-242 0 -381 144t-139 392q0 245 145 392t386 147q208 0 333 -103.5t156 -289.5h-262q-17 89 -76 137.5t-155 48.5q-101 0 -170 -63t-89 -172h353v-189h-355q19 -110 86.5 -173.5t169.5 -63.5q97 0 157 49t79 139h262q-29 -186 -162 -290.5t-338 -104.5z" />
    <glyph glyph-name="uni0455" unicode="&#x455;" horiz-adv-x="1105" 
d="M567 -12q-214 0 -346 97t-139 263h250q8 -74 70.5 -121t166.5 -47q96 0 148.5 32t52.5 93q0 60 -49.5 82t-177.5 37q-83 10 -140.5 21t-118 33.5t-97 53t-60 80t-23.5 115.5q0 153 120 244.5t315 91.5q204 0 331.5 -89t137.5 -247h-252q-8 65 -64 104t-147 39
q-89 0 -140 -30t-51 -86q0 -25 10.5 -44t27.5 -31t48 -21t63 -14.5t81 -10.5q84 -10 141.5 -21t118.5 -33.5t97 -53.5t59.5 -82t23.5 -119q0 -153 -127.5 -244.5t-329.5 -91.5z" />
    <glyph glyph-name="uni0456" unicode="&#x456;" horiz-adv-x="1001" 
d="M88 0v223h295v604h-295v224h557v-828h287v-223h-844zM514 1198q-71 0 -118.5 47t-47.5 117q0 69 47.5 115.5t118.5 46.5t118.5 -46.5t47.5 -115.5q0 -70 -47.5 -117t-118.5 -47z" />
    <glyph glyph-name="uni0457" unicode="&#x457;" horiz-adv-x="1001" 
d="M88 0v223h295v604h-295v224h557v-828h287v-223h-844zM285 1204q-65 0 -108.5 43t-43.5 107q0 63 43.5 105t108.5 42t108 -42t43 -105q0 -64 -43 -107t-108 -43zM741 1204q-63 0 -106 43t-43 107q0 63 43 105t106 42q66 0 110 -42t44 -105q0 -64 -44 -107t-110 -43z" />
    <glyph glyph-name="uni0458" unicode="&#x458;" horiz-adv-x="886" 
d="M41 -410v224h332q56 0 81 27.5t25 88.5v897h-438v224h698v-1153q0 -146 -75.5 -227t-221.5 -81h-401zM608 1198q-71 0 -118.5 47t-47.5 117q0 69 47.5 115.5t118.5 46.5t118.5 -46.5t47.5 -115.5q0 -70 -47.5 -117t-118.5 -47z" />
    <glyph glyph-name="uni0459" unicode="&#x459;" horiz-adv-x="1607" 
d="M31 0v215h22q69 0 98 67.5t29 227.5v541h781v-369h182q181 0 281 -90t100 -252q0 -161 -101 -250.5t-284 -89.5h-430v836h-297v-318q0 -518 -328 -518h-53zM961 193h139q85 0 128.5 37.5t43.5 109.5q0 149 -172 149h-139v-296z" />
    <glyph glyph-name="uni045A" unicode="&#x45a;" horiz-adv-x="1677" 
d="M150 0v1051h249v-379h379v379h252v-369h182q182 0 281.5 -90t99.5 -252t-100.5 -251t-284.5 -89h-430v457h-379v-457h-249zM1030 193h141q170 0 170 147q0 149 -170 149h-141v-296z" />
    <glyph glyph-name="uni045B" unicode="&#x45b;" horiz-adv-x="1284" 
d="M164 0v1149h-166v174h166v111h260v-111h313v-174h-313v-225q113 139 309 139q190 0 303 -116t113 -353v-594h-260v571q0 126 -55 196.5t-166 70.5q-114 0 -179 -78t-65 -213v-547h-260z" />
    <glyph glyph-name="uni045C" unicode="&#x45c;" horiz-adv-x="1206" 
d="M150 0v1051h260v-408h170l288 408h287l-352 -498l381 -553h-310l-292 420h-172v-420h-260zM512 1165l154 297h309l-264 -297h-199z" />
    <glyph glyph-name="uni045D" unicode="&#x45d;" horiz-adv-x="1273" 
d="M150 0v1051h251v-672l498 672h225v-1051h-252v672l-497 -672h-225zM530 1161l-254 301h310l147 -301h-203z" />
    <glyph glyph-name="uni045E" unicode="&#x45e;" horiz-adv-x="1159" 
d="M100 -410v224h172q59 0 84 18.5t47 77.5l35 84l-411 1057h276l279 -768l274 768h277l-480 -1207q-22 -57 -38.5 -93t-40 -70t-49.5 -52t-62 -28.5t-84 -10.5h-279zM573 1155q-155 0 -240.5 83.5t-90.5 223.5h200q0 -60 35 -95.5t98 -35.5q62 0 98 36t36 95h202
q-5 -140 -93.5 -223.5t-244.5 -83.5z" />
    <glyph glyph-name="uni045F" unicode="&#x45f;" horiz-adv-x="1222" 
d="M485 -272v272h-335v1051h260v-828h405v828h260v-1051h-338v-272h-252z" />
    <glyph glyph-name="uni0462" unicode="&#x462;" horiz-adv-x="1374" 
d="M227 0v1100h-166v223h166v111h277v-111h301v-223h-301v-170h268q231 0 370.5 -126.5t139.5 -338.5t-139.5 -338.5t-370.5 -126.5h-545zM504 236h248q117 0 182 60.5t65 168.5q0 107 -66 169t-181 62h-248v-460z" />
    <glyph glyph-name="uni0463" unicode="&#x463;" horiz-adv-x="1087" 
d="M154 0v860h-156v191h156v383h249v-383h267v-191h-267v-133h193q190 0 299 -97.5t109 -267.5q0 -169 -109 -265.5t-299 -96.5h-442zM403 193h154q94 0 144.5 43.5t50.5 125.5q0 84 -50.5 128.5t-144.5 44.5h-154v-342z" />
    <glyph glyph-name="uni0472" unicode="&#x472;" horiz-adv-x="1411" 
d="M705 -12q-275 0 -443 199t-168 530t168 530t443 199q276 0 444 -198.5t168 -530.5t-168 -530.5t-444 -198.5zM705 217q140 0 223.5 95t103.5 276q-64 -25 -133 -25q-74 0 -205.5 40t-179.5 40q-78 0 -139 -25q15 -196 100.5 -298.5t229.5 -102.5zM899 793q79 0 137 24
q-17 196 -101 298t-230 102q-137 0 -221.5 -94.5t-104.5 -274.5q65 24 135 24q72 0 141.5 -20t130.5 -39.5t113 -19.5z" />
    <glyph glyph-name="uni0473" unicode="&#x473;" horiz-adv-x="1257" 
d="M629 -12q-240 0 -387.5 147.5t-147.5 388.5q0 243 147.5 391t387.5 148t388 -148.5t148 -390.5q0 -241 -148 -388.5t-388 -147.5zM629 195q107 0 179 65.5t93 175.5q-60 -28 -121 -28q-51 0 -156.5 30.5t-144.5 30.5q-80 0 -125 -29q21 -112 93.5 -178.5t181.5 -66.5z
M780 582q82 0 123 28q-21 112 -93.5 179t-180.5 67q-107 0 -178.5 -65.5t-92.5 -176.5q59 29 121 29q48 0 154 -30.5t147 -30.5z" />
    <glyph glyph-name="uni0474" unicode="&#x474;" horiz-adv-x="1361" 
d="M498 0l-475 1434h290l351 -1102l194 667q39 135 76.5 217t88.5 132t111 68t150 18h78v-242h-43q-58 0 -91 -22t-62.5 -84t-69.5 -197l-269 -889h-329z" />
    <glyph glyph-name="uni0475" unicode="&#x475;" horiz-adv-x="1224" 
d="M418 0l-391 1051h278l277 -783l120 369q77 243 157.5 328.5t236.5 85.5h57v-224h-33q-67 0 -104 -50t-90 -208l-189 -569h-319z" />
    <glyph glyph-name="uni0490" unicode="&#x490;" horiz-adv-x="1292" 
d="M119 0v236h241v962h-241v236h868v284h244v-520h-604v-962h297v-236h-805z" />
    <glyph glyph-name="uni0491" unicode="&#x491;" horiz-adv-x="1140" 
d="M88 0v223h217v604h-217v224h778v282h238v-506h-539v-604h248v-223h-725z" />
    <glyph glyph-name="uni0492" unicode="&#x492;" horiz-adv-x="1374" 
d="M119 0v236h241v370h-159v211h159v381h-241v236h1136v-535h-239v299h-389v-381h311v-211h-311v-370h297v-236h-805z" />
    <glyph glyph-name="uni0493" unicode="&#x493;" horiz-adv-x="1210" 
d="M88 0v223h217v203h-168v186h168v215h-217v224h1036v-488h-219v264h-342v-215h242v-186h-242v-203h250v-223h-725z" />
    <glyph glyph-name="uni0496" unicode="&#x496;" horiz-adv-x="1804" 
d="M31 0l313 743l-283 691h273l225 -592h150v592h258v-592h149l238 592h262l-285 -691l213 -501h182v-535h-256v293h-102l-248 610h-153v-610h-258v610h-154l-248 -610h-276z" />
    <glyph glyph-name="uni0497" unicode="&#x497;" horiz-adv-x="1558" 
d="M23 0l274 549l-246 502h254l199 -414h112v414h252v-414h115l199 414h254l-248 -502l164 -326h170v-495h-252v272h-78l-209 426h-115v-426h-252v426h-114l-209 -426h-270z" />
    <glyph glyph-name="uni049A" unicode="&#x49a;" horiz-adv-x="1411" 
d="M152 0v1434h276v-590h197l356 590h301l-424 -689l305 -503h170v-535h-256v293h-84l-362 610h-203v-610h-276z" />
    <glyph glyph-name="uni049B" unicode="&#x49b;" horiz-adv-x="1247" 
d="M150 0v1051h260v-408h170l288 408h287l-352 -498l227 -330h182v-495h-251v272h-87l-292 420h-172v-420h-260z" />
    <glyph glyph-name="uni04A2" unicode="&#x4a2;" horiz-adv-x="1445" 
d="M152 0v1434h276v-588h528v588h277v-1192h145v-535h-256v293h-166v606h-528v-606h-276z" />
    <glyph glyph-name="uni04A3" unicode="&#x4a3;" horiz-adv-x="1296" 
d="M150 0v1051h260v-408h448v408h260v-828h148v-495h-252v272h-156v420h-448v-420h-260z" />
    <glyph glyph-name="uni04AE" unicode="&#x4ae;" horiz-adv-x="1329" 
d="M528 0v541l-501 893h315l324 -600l338 600h299l-498 -895v-539h-277z" />
    <glyph glyph-name="uni04AF" unicode="&#x4af;" horiz-adv-x="1173" 
d="M457 -410v410l-430 1051h282l283 -732l280 732h275l-430 -1051v-410h-260z" />
    <glyph glyph-name="uni04B0" unicode="&#x4b0;" horiz-adv-x="1329" 
d="M252 348v197h274l-499 889h315l324 -600l338 600h299l-494 -889h270v-197h-274v-348h-277v348h-276z" />
    <glyph glyph-name="uni04B1" unicode="&#x4b1;" horiz-adv-x="1173" 
d="M457 -410v217h-256v193h256l-430 1051h282l283 -732l280 732h275l-430 -1051h256v-193h-256v-217h-260z" />
    <glyph glyph-name="uni04B2" unicode="&#x4b2;" horiz-adv-x="1415" 
d="M41 0l438 733l-413 701h315l291 -498l297 498h301l-416 -695l295 -497h188v-535h-256v293h-106l-316 537l-317 -537h-301z" />
    <glyph glyph-name="uni04B3" unicode="&#x4b3;" horiz-adv-x="1177" 
d="M23 0l393 537l-373 514h301l229 -328l236 328h285l-371 -514l229 -314h189v-495h-252v272h-76l-254 350l-252 -350h-284z" />
    <glyph glyph-name="uni04B6" unicode="&#x4b6;" horiz-adv-x="1337" 
d="M846 0v541q-137 -45 -279 -45q-238 0 -363.5 114t-125.5 324v500h276v-459q0 -118 64 -181t190 -63q125 0 238 47v656h276v-1192h148v-535h-256v293h-168z" />
    <glyph glyph-name="uni04B7" unicode="&#x4b7;" horiz-adv-x="1206" 
d="M768 0v356q-103 -34 -225 -34q-216 0 -320 97.5t-104 303.5v328h260v-299q0 -113 49 -162t160 -49q106 0 180 32v478h260v-828h148v-495h-252v272h-156z" />
    <glyph glyph-name="uni04BA" unicode="&#x4ba;" horiz-adv-x="1273" 
d="M428 1434v-541q137 45 279 45q238 0 363.5 -114t125.5 -324v-500h-276v459q0 118 -64 180.5t-190 62.5q-128 0 -238 -47v-655h-276v1434h276z" />
    <glyph glyph-name="uni04BB" unicode="&#x4bb;" horiz-adv-x="1269" 
d="M150 0v1434h260v-510q113 139 309 139q190 0 303 -116t113 -353v-594h-261v571q0 126 -54.5 196.5t-166.5 70.5q-114 0 -178.5 -78t-64.5 -213v-547h-260z" />
    <glyph glyph-name="uni04C0" unicode="&#x4c0;" horiz-adv-x="1110" 
d="M119 0v236h299v962h-299v236h872v-236h-297v-962h297v-236h-872z" />
    <glyph glyph-name="uni04CF" unicode="&#x4cf;" horiz-adv-x="989" 
d="M78 0v223h295v987h-295v224h555v-1211h287v-223h-842z" />
    <glyph glyph-name="uni04D8" unicode="&#x4d8;" horiz-adv-x="1386" 
d="M676 -12q-297 0 -448.5 211t-131.5 596h916q-12 202 -99 308.5t-241 106.5q-242 0 -295 -268h-275q26 230 180 367t386 137q292 0 458 -194t166 -535q0 -338 -165 -533.5t-451 -195.5zM684 223q271 0 317 348h-628q18 -348 311 -348z" />
    <glyph glyph-name="uni04D9" unicode="&#x4d9;" horiz-adv-x="1226" 
d="M590 1063q252 0 397.5 -146t145.5 -391q0 -243 -144 -390.5t-379 -147.5q-230 0 -371.5 136t-144.5 365q0 47 6 97h762v12q-4 122 -74.5 192t-187.5 70q-91 0 -152 -42.5t-81 -123.5h-258q27 161 156.5 265t324.5 104zM854 406h-496q13 -105 79.5 -162.5t170.5 -57.5
q98 0 167 60t79 160z" />
    <glyph glyph-name="uni04E2" unicode="&#x4e2;" horiz-adv-x="1413" 
d="M152 0v1434h270v-949l602 949h240v-1434h-271v948l-604 -948h-237zM391 1614v192h619v-192h-619z" />
    <glyph glyph-name="uni04E3" unicode="&#x4e3;" horiz-adv-x="1273" 
d="M150 0v1051h251v-672l498 672h225v-1051h-252v672l-497 -672h-225zM328 1231v192h618v-192h-618z" />
    <glyph glyph-name="uni04E8" unicode="&#x4e8;" horiz-adv-x="1411" 
d="M705 -12q-275 0 -443 199t-168 530t168 530t443 199q276 0 444 -198.5t168 -530.5t-168 -530.5t-444 -198.5zM705 217q143 0 227.5 98.5t101.5 286.5h-657q19 -188 103.5 -286.5t224.5 -98.5zM377 829h657q-17 189 -101.5 288.5t-227.5 99.5q-142 0 -226.5 -99
t-101.5 -289z" />
    <glyph glyph-name="uni04E9" unicode="&#x4e9;" horiz-adv-x="1257" 
d="M629 -12q-240 0 -387.5 147.5t-147.5 388.5q0 243 147.5 391t387.5 148t388 -148.5t148 -390.5q0 -241 -148 -388.5t-388 -147.5zM629 195q108 0 181 66t93 177h-547q21 -111 93.5 -177t179.5 -66zM356 612h547q-20 112 -93 178t-181 66q-107 0 -179.5 -66.5
t-93.5 -177.5z" />
    <glyph glyph-name="uni04EE" unicode="&#x4ee;" horiz-adv-x="1314" 
d="M207 0v242h131q80 0 119.5 21.5t70.5 90.5l31 72l-532 1008h307l360 -713l303 713h291l-514 -1151q-69 -154 -154.5 -218.5t-207.5 -64.5h-205zM348 1614v192h619v-192h-619z" />
    <glyph glyph-name="uni04EF" unicode="&#x4ef;" horiz-adv-x="1159" 
d="M100 -410v224h172q59 0 84 18.5t47 77.5l35 84l-411 1057h276l279 -768l274 768h277l-480 -1207q-22 -57 -38.5 -93t-40 -70t-49.5 -52t-62 -28.5t-84 -10.5h-279zM264 1231v192h621v-192h-621z" />
    </font>
</defs>
</svg>
