<?xml version="1.0" standalone="no"?>
<!DOCTYPE svg PUBLIC "-//W3C//DTD SVG 1.1//EN" "http://www.w3.org/Graphics/SVG/1.1/DTD/svg11.dtd" >
<svg xmlns="http://www.w3.org/2000/svg" xmlns:xlink="http://www.w3.org/1999/xlink" version="1.1">
<metadata>
Created by FontForge 20201107 at Fri Jan 17 17:53:18 2025
 By www-data
Copyright 2016 The Space Mono Project Authors (https://github.com/googlefonts/spacemono)
</metadata>
<defs>
<font id="SpaceMono-Italic" horiz-adv-x="612" >
  <font-face 
    font-family="Space Mono"
    font-weight="400"
    font-style="italic"
    font-stretch="normal"
    units-per-em="1000"
    panose-1="2 1 5 9 3 2 2 0 2 4"
    ascent="800"
    descent="-200"
    x-height="496"
    cap-height="700"
    bbox="-59 -309 735 1090"
    underline-thickness="50"
    underline-position="-100"
    slope="-12"
    unicode-range="U+0020-FB02"
  />
<missing-glyph 
d="M20 0l146 700h466l-146 -700h-466zM81 52h366l124 596h-366zM148 146l132 192l2 9l-46 183h52l38 -159h10l106 159h52l-124 -183l-2 -9l52 -192h-53l-42 169h-10l-114 -169h-53z" />
    <glyph glyph-name="fi" unicode="fi" 
d="M464 574q-28 0 -49 21t-21 49q0 29 21 49.5t49 20.5q29 0 49.5 -20.5t20.5 -49.5q0 -28 -20.5 -49t-49.5 -21zM396 -14q-33 0 -58.5 21t-25.5 62q0 14 4 31l62 284q1 3 1.5 6t0.5 6q0 28 -31 28h-142l-90 -424h-78l90 424h-112v72h128l22 106q8 34 34 56t60 22h91v-72
h-78q-28 0 -34 -30l-17 -82h125q50 0 79.5 -21t29.5 -68q0 -9 -1.5 -19.5t-3.5 -21.5l-61 -279q-3 -12 2.5 -19t14.5 -7q7 0 15 5l115 78l40 -59l-115 -78q-31 -21 -67 -21z" />
    <glyph glyph-name="fl" unicode="fl" 
d="M396 -14q-33 0 -58.5 21t-25.5 62q0 12 4 31l106 488q1 4 1.5 6.5t0.5 5.5q0 28 -31 28h-115q-28 0 -34 -30l-21 -102h121v-72h-137l-90 -424h-78l90 424h-112v72h128l26 126q8 34 34 56t60 22h127q50 0 79.5 -21t29.5 -68q0 -9 -1.5 -19.5t-3.5 -21.5l-105 -483
q-3 -12 2.5 -19t14.5 -7q7 0 15 5l115 78l40 -59l-115 -78q-31 -21 -67 -21z" />
    <glyph glyph-name=".notdef" 
d="M20 0l146 700h466l-146 -700h-466zM81 52h366l124 596h-366zM148 146l132 192l2 9l-46 183h52l38 -159h10l106 159h52l-124 -183l-2 -9l52 -192h-53l-42 169h-10l-114 -169h-53z" />
    <glyph glyph-name=".null" horiz-adv-x="0" 
 />
    <glyph glyph-name="nonmarkingreturn" horiz-adv-x="333" 
 />
    <glyph glyph-name="space" unicode=" " 
 />
    <glyph glyph-name="exclam" unicode="!" 
d="M231 186l111 514h80l-111 -514h-80zM245 -14q-28 0 -49 21t-21 49q0 29 21 49.5t49 20.5q29 0 49.5 -20.5t20.5 -49.5q0 -28 -20.5 -49t-49.5 -21z" />
    <glyph glyph-name="quotedbl" unicode="&#x22;" 
d="M447 468l-53 11l24 106q-14 10 -23 25.5t-9 33.5q0 29 21 49.5t49 20.5q29 0 49.5 -20.5t20.5 -49.5q0 -25 -16 -44.5t-40 -24.5zM265 468l-53 11l24 106q-14 10 -23 25.5t-9 33.5q0 29 21 49.5t49 20.5q29 0 49.5 -20.5t20.5 -49.5q0 -25 -16 -44.5t-40 -24.5z" />
    <glyph glyph-name="numbersign" unicode="#" 
d="M126 102l26 122h-103v72h118l23 108h-103v72h118l26 122h74l-26 -122h106l26 122h74l-26 -122h103v-72h-118l-23 -108h103v-72h-118l-26 -122h-74l26 122h-106l-26 -122h-74zM241 296h106l23 108h-106z" />
    <glyph glyph-name="dollar" unicode="$" 
d="M191 28l13 63q-71 11 -102.5 51.5t-31.5 89.5q0 9 1.5 18t2.5 18l5 24h76l-4 -22q-3 -16 -3 -29q0 -65 72 -77l35 162q-56 8 -92.5 38.5t-36.5 88.5q0 49 30 84t73.5 54t85.5 19l13 62h72l-14 -64q60 -10 92 -46.5t32 -81.5q0 -14 -3 -28l-4 -18h-76l3 12q3 11 3 21
q0 26 -16.5 44t-45.5 23l-31 -143q74 -9 108.5 -41t34.5 -80q0 -55 -27 -94.5t-74 -61.5t-106 -25l-13 -61h-72zM270 400l29 138q-37 -4 -64.5 -25.5t-27.5 -60.5q0 -19 14.5 -33t48.5 -19zM291 161q46 4 79 29.5t33 65.5q0 29 -19 42.5t-59 20.5z" />
    <glyph glyph-name="percent" unicode="%" 
d="M178 406q-52 0 -89 32.5t-37 91.5q0 51 21.5 90.5t60 62.5t88.5 23q59 0 94.5 -34t35.5 -93q0 -45 -21 -84.5t-60 -64t-93 -24.5zM180 460q50 0 81 33t31 75q0 36 -18 60t-55 24q-48 0 -77.5 -33.5t-29.5 -79.5q0 -41 19 -60t49 -19zM51 205l-22 46l531 244l22 -46z
M387 -5q-52 0 -89 32.5t-37 91.5q0 51 21.5 90.5t60 62.5t88.5 23q59 0 94.5 -34t35.5 -93q0 -46 -21 -85t-60 -63.5t-93 -24.5zM389 49q50 0 81 33t31 75q0 36 -18 60t-55 24q-48 0 -77.5 -33.5t-29.5 -79.5q0 -41 19 -60t49 -19z" />
    <glyph glyph-name="ampersand" unicode="&#x26;" 
d="M184 0q-82 0 -129 44t-47 115q0 70 42.5 119.5t116.5 66.5v12q-38 13 -63.5 45.5t-25.5 82.5q0 64 32.5 112t89.5 75.5t129 27.5h111v-78h-122q-42 0 -78.5 -17t-59 -49t-22.5 -78q0 -42 28.5 -65t79.5 -23h137l23 106h84l-23 -106h87v-78h-104l-66 -312h-220zM203 78
h134l49 234h-137q-41 0 -77 -17.5t-58.5 -48.5t-22.5 -73q0 -45 30.5 -70t81.5 -25z" />
    <glyph glyph-name="quotesingle" unicode="'" 
d="M353 468l-53 11l24 106q-14 10 -23 25.5t-9 33.5q0 29 21 49.5t49 20.5q29 0 49.5 -20.5t20.5 -49.5q0 -25 -16 -44.5t-40 -24.5z" />
    <glyph glyph-name="parenleft" unicode="(" 
d="M361 -156q-80 0 -144 34t-101.5 98.5t-37.5 156.5q0 48 12 103l55 258q28 131 86.5 210.5t145 115.5t197.5 36h38v-74h-46q-83 0 -152.5 -28t-120 -95.5t-75.5 -186.5l-51 -244q-5 -24 -7.5 -46.5t-2.5 -42.5q0 -74 28.5 -123t78.5 -73.5t113 -24.5h36v-74h-52z" />
    <glyph glyph-name="parenright" unicode=")" 
d="M0 -156v74h46q83 0 152.5 28t120 95.5t75.5 186.5l51 244q5 24 7.5 46.5t2.5 42.5q0 74 -28.5 123t-78 73.5t-113.5 24.5h-36v74h52q80 0 144 -34t101.5 -98.5t37.5 -156.5q0 -47 -12 -103l-55 -258q-28 -131 -86.5 -210.5t-145 -115.5t-197.5 -36h-38z" />
    <glyph glyph-name="asterisk" unicode="*" 
d="M290 100l-71 15l28 132l23 41l-10 7l-38 -43l-105 -67l-39 60l105 68l54 17l-2 13l-47 -5l-132 28l15 71l132 -28l41 -23l7 10l-43 38l-67 105l60 39l68 -105l17 -54l13 2l-5 47l28 132l71 -15l-28 -132l-23 -41l10 -7l38 43l105 67l39 -60l-105 -68l-54 -17l2 -13l47 5
l132 -28l-15 -71l-132 28l-41 23l-7 -10l43 -38l67 -105l-60 -39l-68 105l-17 54l-13 -2l5 -47z" />
    <glyph glyph-name="plus" unicode="+" 
d="M224 141l37 173h-164v72h179l37 173h74l-37 -173h165v-72h-180l-37 -173h-74z" />
    <glyph glyph-name="comma" unicode="," 
d="M168 -120v54h59q28 0 34 30l5 22h-4q-28 0 -49 21t-21 49q0 29 21 49.5t49 20.5q29 0 49.5 -20.5t20.5 -49.5v-5t-1 -7l-18 -86q-16 -78 -93 -78h-52z" />
    <glyph glyph-name="hyphen" unicode="-" 
d="M156 224v72h300v-72h-300z" />
    <glyph glyph-name="period" unicode="." 
d="M256 -14q-28 0 -49 21t-21 49q0 29 21 49.5t49 20.5q29 0 49.5 -20.5t20.5 -49.5q0 -28 -20.5 -49t-49.5 -21z" />
    <glyph glyph-name="slash" unicode="/" 
d="M99 -106l-60 35l474 877l60 -34z" />
    <glyph glyph-name="zero" unicode="0" 
d="M234 -14q-97 0 -148.5 56t-51.5 153q0 20 2.5 42.5t7.5 45.5l31 145q29 140 103 213t197 73q97 0 148.5 -55.5t51.5 -153.5q0 -20 -2.5 -42.5t-7.5 -45.5l-31 -145q-29 -139 -103 -212.5t-197 -73.5zM246 62q83 0 133.5 59.5t71.5 156.5l32 150q4 19 6 36.5t2 33.5
q0 65 -32 102.5t-96 37.5q-82 0 -133 -59t-72 -157l-32 -150q-4 -19 -6 -36.5t-2 -33.5q0 -64 32 -102t96 -38zM304 286q-25 0 -44.5 19.5t-19.5 44.5q0 26 19.5 45t44.5 19q26 0 45 -19t19 -45q0 -25 -19 -44.5t-45 -19.5z" />
    <glyph glyph-name="one" unicode="1" 
d="M24 0v78h198l124 585h-12l-176 -263h-91v6l201 294h170l-132 -622h198v-78h-480z" />
    <glyph glyph-name="two" unicode="2" 
d="M0 0l24 120q20 98 91 146t183 70q52 10 98.5 31.5t76 59.5t29.5 97q0 46 -30.5 79t-99.5 33q-76 0 -128 -47t-69 -125l-9 -44h-85l10 50q14 69 50 124t96 87.5t145 32.5q66 0 112.5 -25t70.5 -65t24 -86q0 -117 -70 -183.5t-194 -90.5q-99 -19 -150.5 -53.5t-67.5 -102.5
l-7 -30h389v-78h-489z" />
    <glyph glyph-name="three" unicode="3" 
d="M242 -14q-68 0 -115 25t-71 67t-24 93q0 11 1.5 23t3.5 24l11 54h84l-10 -48q-2 -12 -3.5 -23t-1.5 -22q0 -59 37.5 -87t98.5 -28q60 0 104 23.5t67.5 63.5t23.5 89q0 53 -32.5 80.5t-84.5 27.5h-92v118l281 144v12h-375v78h441v-136l-267 -138v-12h42q76 0 124.5 -43.5
t48.5 -118.5q0 -60 -23.5 -109t-64.5 -84t-93.5 -54t-110.5 -19z" />
    <glyph glyph-name="four" unicode="4" 
d="M315 0l28 132h-324v132l356 436h173l-104 -490h91v-78h-108l-28 -132h-84zM83 210h277l96 454h-12l-361 -442v-12z" />
    <glyph glyph-name="five" unicode="5" 
d="M244 -14q-104 0 -158 52.5t-54 131.5q0 26 6 54l6 28h84l-5 -22q-3 -15 -5 -28t-2 -25q0 -60 38 -86.5t102 -26.5q60 0 106.5 32.5t72.5 83t26 103.5q0 49 -30.5 81t-86.5 32q-44 0 -72 -21.5t-40 -44.5h-159l78 370h422v-78h-356l-53 -250h12q24 41 68.5 71.5
t119.5 30.5q52 0 93.5 -22.5t66 -62t24.5 -89.5q0 -89 -37.5 -160t-106 -112.5t-160.5 -41.5z" />
    <glyph glyph-name="six" unicode="6" 
d="M234 -14q-59 0 -105 24.5t-71.5 66.5t-25.5 97q0 12 1.5 23.5t3.5 24.5l53 250q17 81 58.5 135t100.5 80.5t129 26.5q59 0 103.5 -22t69 -60.5t24.5 -88.5q0 -11 -1 -23t-4 -24h-84q2 11 3 20.5t1 18.5q0 50 -32.5 77.5t-92.5 27.5q-45 0 -84.5 -21t-67.5 -59t-39 -88
l-21 -98h12q29 41 75.5 64.5t103.5 23.5q52 0 94.5 -21t67.5 -60t25 -93q0 -85 -34 -153.5t-100.5 -108.5t-162.5 -40zM246 60q56 0 101 28t71.5 75t26.5 105q0 57 -33 88.5t-96 31.5q-54 0 -99.5 -28t-73 -75t-27.5 -103q0 -58 34.5 -90t95.5 -32z" />
    <glyph glyph-name="seven" unicode="7" 
d="M37 0l6 36q6 36 27.5 67.5t63.5 76.5l404 430v12h-419v78h485v-138l-405 -430q-28 -31 -44.5 -54t-21.5 -52l-5 -26h-91z" />
    <glyph glyph-name="eight" unicode="8" 
d="M226 -14q-97 0 -152.5 44.5t-55.5 113.5q0 56 23 100t62.5 73t89.5 40v12q-33 13 -58.5 43.5t-25.5 75.5q0 69 36 120t96.5 78.5t134.5 27.5q89 0 141 -41.5t52 -106.5q0 -69 -40.5 -123t-112.5 -74v-12q38 -11 68 -43.5t30 -85.5q0 -77 -37.5 -131t-102.5 -82.5
t-148 -28.5zM313 402q43 0 81.5 17.5t63 49.5t24.5 78q0 43 -31.5 67t-87.5 24q-41 0 -80 -16.5t-64 -48t-25 -77.5q0 -43 32 -68.5t87 -25.5zM240 62q48 0 91.5 18t71 54t27.5 89q0 50 -36 75.5t-98 25.5q-49 0 -92.5 -18.5t-70.5 -55t-27 -89.5q0 -47 35.5 -73t98.5 -26z
" />
    <glyph glyph-name="nine" unicode="9" 
d="M232 -14q-60 0 -105 22t-69.5 60.5t-24.5 87.5q0 23 6 48h84q-5 -23 -5 -40q0 -49 32.5 -76.5t93.5 -27.5q45 0 84.5 21t67.5 59t39 88l21 98h-12q-27 -40 -72.5 -64t-105.5 -24q-53 0 -95.5 22t-67.5 61.5t-25 92.5q0 84 35.5 152t101.5 108t157 40q61 0 107 -24
t72 -66.5t26 -97.5q0 -11 -1.5 -23t-3.5 -25l-53 -250q-26 -124 -102.5 -183t-184.5 -59zM293 312q54 0 99.5 28t73 75t27.5 103q0 59 -34.5 90.5t-95.5 31.5q-56 0 -101 -28t-71.5 -75t-26.5 -105q0 -57 33 -88.5t96 -31.5z" />
    <glyph glyph-name="colon" unicode=":" 
d="M332 370q-28 0 -49 21t-21 49q0 29 21 49.5t49 20.5q29 0 49.5 -20.5t20.5 -49.5q0 -28 -20.5 -49t-49.5 -21zM248 -14q-28 0 -49 21t-21 49q0 29 21 49.5t49 20.5q29 0 49.5 -20.5t20.5 -49.5q0 -28 -20.5 -49t-49.5 -21z" />
    <glyph glyph-name="semicolon" unicode=";" 
d="M332 370q-28 0 -49 21t-21 49q0 29 21 49.5t49 20.5q29 0 49.5 -20.5t20.5 -49.5q0 -28 -20.5 -49t-49.5 -21zM154 -120v54h59q28 0 34 30l5 22h-4q-28 0 -49 21t-21 49q0 29 21 49.5t49 20.5q29 0 49.5 -20.5t20.5 -49.5v-5t-1 -7l-18 -86q-16 -78 -93 -78h-52z" />
    <glyph glyph-name="less" unicode="&#x3c;" 
d="M469 136l-373 138v151l448 145v-84l-418 -131v-11l343 -124v-84z" />
    <glyph glyph-name="equal" unicode="=" 
d="M115 386v72h418v-72h-418zM79 242v72h418v-72h-418z" />
    <glyph glyph-name="greater" unicode="&#x3e;" 
d="M66 136v85l418 131v11l-343 124v83l373 -138v-151z" />
    <glyph glyph-name="question" unicode="?" 
d="M205 186l20 94q8 41 35 63.5t70 22.5h24q42 0 72 21.5t46.5 56.5t16.5 75q0 49 -33 83t-96 34q-67 0 -114 -42.5t-63 -117.5l-9 -42h-84l10 48q23 107 92 169.5t178 62.5q62 0 108.5 -24.5t72 -67t25.5 -95.5q0 -43 -15 -85t-44 -76.5t-71.5 -55t-97.5 -20.5h-12
q-30 0 -36 -30l-15 -74h-80zM220 -14q-28 0 -49 21t-21 49q0 29 21 49.5t49 20.5q29 0 49.5 -20.5t20.5 -49.5q0 -28 -20.5 -49t-49.5 -21z" />
    <glyph glyph-name="at" unicode="@" 
d="M135 -14q-61 0 -96 43.5t-35 111.5q0 53 14 105.5t42 96t70.5 69.5t98.5 26q45 0 68.5 -18t29.5 -50h12l11 54h78l-68 -322q-1 -6 -1 -11q0 -19 21 -19h24q28 0 34 30l60 284q2 11 3.5 20.5t1.5 18.5q0 40 -24 62.5t-78 22.5h-296v72h306q84 0 127.5 -41.5t43.5 -106.5
q0 -10 -1.5 -21.5t-3.5 -22.5l-66 -312q-7 -36 -32.5 -57t-61.5 -21h-80q-31 0 -45 14.5t-14 35.5q0 4 0.5 8t1.5 8h-12q-17 -37 -51 -58.5t-82 -21.5zM166 60q41 0 69 20.5t45.5 53.5t25 70.5t7.5 71.5q0 38 -18 63t-64 25q-36 0 -63.5 -19.5t-46 -51t-28 -67.5t-9.5 -70
q0 -43 21 -69.5t61 -26.5z" />
    <glyph glyph-name="A" unicode="A" 
d="M-42 0l347 700h160l50 -700h-85l-11 174h-281l-85 -174h-95zM176 252h238l-26 411h-12z" />
    <glyph glyph-name="B" unicode="B" 
d="M2 0v78h66l115 544h-66v78h276q91 0 136.5 -46.5t45.5 -118.5q0 -40 -19 -77t-54 -63.5t-84 -37.5v-12q41 -12 64.5 -47t23.5 -79q0 -64 -32.5 -113.5t-89 -77.5t-128.5 -28h-254zM218 390h118q41 0 76.5 17t58 48.5t22.5 76.5q0 41 -29 65.5t-82 24.5h-115zM152 78h115
q45 0 81.5 17.5t58 49t21.5 71.5q0 46 -29.5 71t-79.5 25h-118z" />
    <glyph glyph-name="C" unicode="C" 
d="M238 -14q-97 0 -148.5 53.5t-51.5 138.5q0 21 2.5 45t7.5 49l33 156q30 141 105 213.5t196 72.5q96 0 148.5 -52.5t52.5 -133.5q0 -32 -9 -68l-3 -12h-84l3 12q5 19 6.5 33.5t1.5 28.5q0 53 -30.5 84.5t-98.5 31.5q-79 0 -132 -60t-73 -156l-31 -144q-4 -22 -7 -42.5
t-3 -38.5q0 -67 30.5 -100t94.5 -33q87 0 131.5 49t63.5 127l3 12h84l-3 -12q-20 -80 -54 -137t-90.5 -87t-144.5 -30z" />
    <glyph glyph-name="D" unicode="D" 
d="M0 0v78h66l115 544h-66v78h243q106 0 160 -48t54 -137q0 -19 -2.5 -39t-7.5 -42l-38 -174q-20 -95 -53 -152t-91 -82.5t-153 -25.5h-227zM150 78h76q62 0 104.5 16.5t69.5 57.5t42 114l35 168q5 26 7 43t2 33q0 64 -36 88t-109 24h-76z" />
    <glyph glyph-name="E" unicode="E" 
d="M28 0l149 700h395v-78h-328l-49 -232h305v-78h-322l-49 -234h317v-78h-418z" />
    <glyph glyph-name="F" unicode="F" 
d="M25 0l149 700h401v-78h-334l-49 -232h311v-78h-328l-66 -312h-84z" />
    <glyph glyph-name="G" unicode="G" 
d="M223 -14q-84 0 -137.5 50t-53.5 147q0 20 2 41t8 48l33 156q29 140 106.5 213t198.5 73q64 0 109 -25t68.5 -69t23.5 -100q0 -32 -7 -60l-3 -12h-84l3 12q7 28 7 56q0 53 -31.5 87.5t-99.5 34.5q-81 0 -134.5 -60t-73.5 -156l-31 -144q-9 -45 -9 -80q0 -65 31.5 -100.5
t95.5 -35.5q76 0 127.5 47.5t70.5 124.5l6 24h-207v78h306l-72 -336h-80l20 84h-12q-25 -43 -72.5 -70.5t-108.5 -27.5z" />
    <glyph glyph-name="H" unicode="H" 
d="M8 0l148 700h86l-66 -310h276l66 310h86l-149 -700h-86l66 312h-276l-66 -312h-85z" />
    <glyph glyph-name="I" unicode="I" 
d="M32 0v78h174l115 544h-174v78h432v-78h-174l-115 -544h174v-78h-432z" />
    <glyph glyph-name="J" unicode="J" 
d="M216 -14q-87 0 -136.5 46.5t-49.5 122.5q0 27 6 55l12 54h84l-12 -54q-6 -27 -6 -50q0 -96 113 -96q70 0 107 41t50 105l88 412h-78v78h228v-78h-66l-89 -416q-22 -103 -80 -161.5t-171 -58.5z" />
    <glyph glyph-name="K" unicode="K" 
d="M5 0l149 700h86l-66 -310h26l315 310h97v-12l-337 -332v-12l218 -338v-6h-95l-201 312h-40l-66 -312h-86z" />
    <glyph glyph-name="L" unicode="L" 
d="M24 0l149 700h84l-132 -622h360v-78h-461z" />
    <glyph glyph-name="M" unicode="M" 
d="M-16 0l148 700h159l-58 -664h12l219 664h164l-149 -700h-78l141 664h-12l-219 -664h-154l57 664h-12l-141 -664h-77z" />
    <glyph glyph-name="N" unicode="N" 
d="M10 0l149 700h165l40 -664h12l141 664h84l-149 -700h-165l-40 664h-12l-141 -664h-84z" />
    <glyph glyph-name="O" unicode="O" 
d="M236 -14q-97 0 -148.5 56t-51.5 153q0 20 2.5 42.5t7.5 45.5l31 145q29 140 103 213t197 73q97 0 148.5 -55.5t51.5 -153.5q0 -20 -2.5 -42.5t-7.5 -45.5l-31 -145q-29 -139 -103 -212.5t-197 -73.5zM248 62q83 0 133.5 59.5t71.5 156.5l32 150q4 19 6 36.5t2 33.5
q0 65 -32 102.5t-96 37.5q-82 0 -133 -59t-72 -157l-32 -150q-4 -19 -6 -36.5t-2 -33.5q0 -64 32 -102t96 -38z" />
    <glyph glyph-name="P" unicode="P" 
d="M12 0l149 700h228q89 0 140.5 -47t51.5 -120q0 -69 -32 -124.5t-91 -88t-141 -32.5h-160l-61 -288h-84zM174 366h150q74 0 122.5 41t48.5 111q0 53 -30.5 78.5t-87.5 25.5h-149z" />
    <glyph glyph-name="Q" unicode="Q" 
d="M244 -156q-32 0 -53 20t-21 51q0 5 0.5 8.5l1.5 10.5l12 57q-72 14 -110 67t-38 137q0 20 2.5 42.5t7.5 45.5l31 145q29 140 103 213t197 73q97 0 148.5 -55.5t51.5 -153.5q0 -20 -2.5 -42.5t-7.5 -45.5l-31 -145q-28 -132 -95.5 -204.5t-178.5 -80.5l-9 -41q-1 -4 -1 -6
v-4q0 -20 22 -20h84v-72h-114zM248 62q83 0 133.5 59.5t71.5 156.5l32 150q4 19 6 36.5t2 33.5q0 65 -32 102.5t-96 37.5q-82 0 -133 -59t-72 -157l-32 -150q-4 -19 -6 -36.5t-2 -33.5q0 -64 32 -102t96 -38z" />
    <glyph glyph-name="R" unicode="R" 
d="M8 0l149 700h237q89 0 138.5 -45.5t49.5 -125.5q0 -66 -35 -114t-95 -73v-12q25 -2 39 -16.5t14 -39.5q0 -8 -3 -22l-54 -252h-84l50 234q2 8 2 19q0 35 -42 35h-221l-61 -288h-84zM170 366h154q50 0 89 20t61.5 55t22.5 79q0 102 -119 102h-154z" />
    <glyph glyph-name="S" unicode="S" 
d="M249 -14q-115 0 -172.5 55t-57.5 140q0 30 6 61l6 30h84l-5 -24q-6 -30 -6 -55q0 -66 40.5 -97.5t114.5 -31.5q48 0 90 17t68.5 49.5t26.5 76.5q0 56 -36 81t-123 38q-83 14 -136 54.5t-53 119.5q0 68 36 116t97.5 73t137.5 25q70 0 119 -24t75 -63.5t26 -88.5
q0 -10 -1 -20t-3 -20l-8 -36h-84l6 26q4 20 4 34q0 58 -41.5 86t-99.5 28q-44 0 -85 -14.5t-67 -41.5t-26 -67q0 -58 45 -81.5t126 -37.5q92 -15 135 -59.5t43 -117.5q0 -74 -37 -126t-101 -78.5t-144 -26.5z" />
    <glyph glyph-name="T" unicode="T" 
d="M187 0l132 622h-216v78h503v-78h-203l-132 -622h-84z" />
    <glyph glyph-name="U" unicode="U" 
d="M232 -14q-86 0 -140.5 47.5t-54.5 136.5q0 17 2 35t6 37l97 458h84l-98 -464q-3 -16 -5 -30.5t-2 -27.5q0 -116 123 -116q74 0 123 44.5t67 129.5l98 464h84l-98 -464q-26 -124 -95 -187t-191 -63z" />
    <glyph glyph-name="V" unicode="V" 
d="M139 0l-37 700h84l30 -664h12l312 664h95l-335 -700h-161z" />
    <glyph glyph-name="W" unicode="W" 
d="M12 0l83 700h76l-79 -664h12l196 664h156l-84 -664h12l202 664h78l-214 -700h-154l81 664h-12l-199 -664h-154z" />
    <glyph glyph-name="X" unicode="X" 
d="M-19 0v6l246 344v12l-102 338h86l91 -310h18l219 310h95v-6l-247 -344v-12l102 -338h-86l-91 312h-18l-219 -312h-94z" />
    <glyph glyph-name="Y" unicode="Y" 
d="M184 0l52 246h-18l-122 454h87l98 -382h12l260 382h97v-6l-312 -448h-18l-52 -246h-84z" />
    <glyph glyph-name="Z" unicode="Z" 
d="M5 0v126l515 484v12h-386v78h458v-126l-515 -484v-12h422v-78h-494z" />
    <glyph glyph-name="bracketleft" unicode="[" 
d="M254 -156q-36 0 -59 17.5t-23 52.5q0 13 3 26l183 838q8 36 32.5 57t61.5 21h82v-72h-69q-28 0 -34 -30l-177 -808q-1 -4 -1 -7v-3q0 -20 23 -20h67v-72h-89z" />
    <glyph glyph-name="backslash" unicode="\" 
d="M324 -106l-104 903l72 9l105 -903z" />
    <glyph glyph-name="bracketright" unicode="]" 
d="M81 -156v72h69q28 0 34 30l177 808q1 5 1 7.5v2.5q0 20 -23 20h-67v72h89q36 0 59 -17.5t23 -52.5q0 -12 -3 -26l-183 -838q-8 -36 -32 -57t-62 -21h-82z" />
    <glyph glyph-name="asciicircum" unicode="^" 
d="M83 424v6l217 270h148l98 -276h-89l-84 246h-12l-182 -246h-96z" />
    <glyph glyph-name="underscore" unicode="_" 
d="M4 -120v72h466v-72h-466z" />
    <glyph glyph-name="grave" unicode="`" 
d="M351 570l-59 118h84l41 -118h-66z" />
    <glyph glyph-name="a" unicode="a" 
d="M184 -14q-80 0 -126 55t-46 143q0 63 17.5 121.5t52.5 104.5t86 73t118 27q51 0 87.5 -23.5t46.5 -68.5h12l16 78h78l-88 -412q-2 -9 2 -13.5t11 -4.5t14 5l36 26l42 -59l-45 -34q-25 -18 -61 -18q-29 0 -54.5 16.5t-25.5 55.5q0 5 0.5 10t1.5 10h-12q-31 -52 -73.5 -72
t-89.5 -20zM208 60q54 0 98 31.5t70 86t26 121.5q0 62 -28 99.5t-87 37.5q-62 0 -105 -34t-65.5 -89.5t-22.5 -118.5q0 -134 114 -134z" />
    <glyph glyph-name="b" unicode="b" 
d="M288 -14q-46 0 -88.5 22.5t-58.5 67.5h-12l-16 -76h-77l151 714h77l-63 -296h12q28 41 72.5 66.5t102.5 25.5q52 0 93 -24t65 -67t24 -101q0 -102 -37.5 -176.5t-101.5 -115t-143 -40.5zM286 60q55 0 101 30.5t73.5 85.5t27.5 127q0 61 -32.5 97t-92.5 36
q-58 0 -103.5 -33t-72 -87t-26.5 -118q0 -66 33.5 -102t91.5 -36z" />
    <glyph glyph-name="c" unicode="c" 
d="M234 -14q-94 0 -151 56t-57 150q0 87 39 159.5t109.5 115.5t165.5 43q61 0 106 -22.5t69.5 -62.5t24.5 -92v-4t-1 -11l-80 -12q1 6 1 9v7q0 47 -31.5 80.5t-102.5 33.5q-62 0 -111.5 -32.5t-78 -86.5t-28.5 -117q0 -70 38.5 -105t103.5 -35q53 0 91 19.5t61.5 50
t33.5 64.5l74 -24q-17 -51 -53 -92.5t-91.5 -66.5t-131.5 -25z" />
    <glyph glyph-name="d" unicode="d" 
d="M182 -14q-80 0 -129 54t-49 142q0 62 19 120.5t55 105.5t89 74.5t120 27.5q53 0 88.5 -22t48.5 -70h12l62 296h78l-134 -630q-3 -18 13 -18q6 0 13 5l36 26l43 -59l-45 -34q-25 -18 -61 -18q-29 0 -54.5 16.5t-25.5 55.5q0 5 0.5 10.5t1.5 9.5h-12q-31 -52 -75.5 -72
t-93.5 -20zM206 60q54 0 99.5 31.5t73 86t27.5 121.5q0 62 -31 99.5t-90 37.5q-62 0 -106.5 -34.5t-68.5 -90t-24 -118.5q0 -133 120 -133z" />
    <glyph glyph-name="e" unicode="e" 
d="M236 -14q-59 0 -105.5 23.5t-72.5 68.5t-26 107q0 63 20 121t58.5 104t94 73t126.5 27q67 0 110.5 -26.5t64.5 -69.5t21 -91q0 -26 -6 -52l-11 -47h-398q-1 -8 -2.5 -18t-1.5 -21q0 -55 32 -90.5t102 -35.5q71 0 110.5 30.5t58.5 72.5l64 -36q-19 -39 -50 -71t-77 -50.5
t-112 -18.5zM129 296h318q3 17 3 30q0 54 -37 82t-92 28q-70 0 -121 -40t-71 -100z" />
    <glyph glyph-name="f" unicode="f" 
d="M134 -212q-32 0 -51.5 13t-33.5 35l-44 71l61 39l42 -67q7 -12 18 -12q8 0 12 4.5t5 10.5l116 542h-153v72h169l26 126q8 34 34 56t60 22h179v-72h-166q-28 0 -34 -30l-21 -102h173v-72h-189l-120 -562q-8 -38 -31.5 -56t-51.5 -18z" />
    <glyph glyph-name="g" unicode="g" 
d="M36 -200v72h289q28 0 34 30l36 168h-12q-29 -42 -72.5 -63t-95.5 -21q-57 0 -100 25t-67 70t-24 105q0 92 36 165.5t100 116t148 42.5q59 0 97.5 -25.5t50.5 -66.5h12l17 78h78l-131 -618q-7 -34 -33.5 -56t-60.5 -22h-302zM232 60q46 0 84 20.5t65.5 54.5t42.5 76.5
t15 86.5q0 62 -35 100t-94 38q-63 0 -109 -34t-71 -89.5t-25 -118.5q0 -61 33 -97.5t94 -36.5z" />
    <glyph glyph-name="h" unicode="h" 
d="M457 -14q-31 0 -54.5 18t-23.5 56q0 11 3 26l46 208q3 14 4.5 25t1.5 21q0 52 -30.5 74t-75.5 22q-67 0 -112 -48.5t-62 -129.5l-55 -258h-77l152 714h75l-60 -292h12q25 47 65.5 67.5t89.5 20.5q66 0 109.5 -41.5t43.5 -116.5q0 -15 -1.5 -31t-5.5 -33l-44 -209
q-3 -15 13 -15q6 0 12 5l39 28l42 -59l-46 -33q-27 -19 -61 -19z" />
    <glyph glyph-name="i" unicode="i" 
d="M373 574q-28 0 -49 21t-21 49q0 29 21 49.5t49 20.5q29 0 49.5 -20.5t20.5 -49.5q0 -28 -20.5 -49t-49.5 -21zM293 -14q-34 0 -59 20.5t-25 61.5q0 16 4 32l74 309q2 10 -2.5 17.5t-15.5 7.5q-8 0 -15 -4l-117 -80l-40 59l118 80q32 21 67 21q34 0 59 -20.5t25 -61.5
q0 -16 -4 -32l-74 -309q-3 -12 2.5 -19t14.5 -7q7 0 15 5l115 78l40 -59l-115 -78q-31 -21 -67 -21z" />
    <glyph glyph-name="j" unicode="j" 
d="M431 574q-28 0 -49 21t-21 49q0 29 21 49.5t49 20.5q29 0 49.5 -20.5t20.5 -49.5q0 -28 -20.5 -49t-49.5 -21zM0 -200v72h210q27 0 33 30l109 510q2 11 -3 16.5t-12 5.5q-6 0 -12 -4l-117 -80l-40 59l118 80q32 21 63 21q33 0 57 -22.5t24 -60.5q0 -11 -3 -26l-111 -523
q-7 -34 -33 -56t-60 -22h-223z" />
    <glyph glyph-name="k" unicode="k" 
d="M416 -14q-19 0 -38 10.5t-36 32.5l-138 189h-30l-46 -218h-78l151 713h78l-89 -423h12l248 218l48 -51l-221 -194v-18l129 -176q6 -7 13 -7q6 0 13 5l48 35l42 -59l-45 -34q-13 -10 -28.5 -16.5t-32.5 -6.5z" />
    <glyph glyph-name="l" unicode="l" 
d="M263 -14q-33 0 -58.5 20.5t-25.5 61.5q0 8 1 16t3 16l121 514q3 12 -2.5 18.5t-15.5 6.5q-7 0 -15 -5l-117 -80l-40 59l118 80q32 21 67 21q33 0 58.5 -20.5t25.5 -61.5q0 -7 -1 -15.5t-3 -16.5l-121 -513q-3 -12 2.5 -19t14.5 -7q7 0 15 5l115 78l40 -59l-115 -78
q-31 -21 -67 -21z" />
    <glyph glyph-name="m" unicode="m" 
d="M492 -14q-29 0 -54.5 16.5t-25.5 55.5q0 5 0.5 10.5t1.5 9.5l62 294q1 5 1.5 9.5t0.5 8.5q0 20 -11 33t-34 13q-28 0 -45 -20t-25 -56l-77 -360h-78l79 372q1 4 1.5 9t0.5 12q0 18 -9.5 30.5t-34.5 12.5q-31 0 -47.5 -23t-23.5 -53l-77 -360h-77l105 496h78l-9 -42h12
q11 29 34 42.5t51 13.5q31 0 50.5 -15t24.5 -41h12q14 27 36.5 41.5t53.5 14.5q44 0 67.5 -26.5t23.5 -69.5q0 -9 -1 -19.5t-3 -18.5l-64 -298q-3 -16 12 -16q6 0 11 4l42 31l42 -59l-45 -34q-25 -18 -61 -18z" />
    <glyph glyph-name="n" unicode="n" 
d="M443 -14q-29 0 -54 16t-25 57q0 13 4 32l45 207q3 14 4 23.5t1 19.5q0 48 -29 71.5t-79 23.5q-67 0 -110.5 -48.5t-59.5 -123.5l-56 -264h-78l106 496h78l-15 -72h12q25 45 65.5 65.5t85.5 20.5q43 0 79 -18t57.5 -53t21.5 -86q0 -24 -6 -53l-48 -222q-3 -16 12 -16
q6 0 11 4l42 31l42 -59l-39 -29q-30 -23 -67 -23z" />
    <glyph glyph-name="o" unicode="o" 
d="M223 -14q-56 0 -102 25t-73.5 70.5t-27.5 106.5q0 72 24.5 131t67 102t98.5 66t119 23q58 0 103.5 -26t72 -72t26.5 -106q0 -61 -20.5 -118.5t-60 -103t-96.5 -72t-131 -26.5zM240 60q62 0 109.5 34.5t74.5 89.5t27 116q0 59 -37 97.5t-102 38.5q-57 0 -104.5 -33
t-76.5 -87.5t-29 -119.5q0 -60 36 -98t102 -38z" />
    <glyph glyph-name="p" unicode="p" 
d="M0 -200l131 621q4 20 -14 20q-4 0 -9 -3l-55 -38l-40 59l47 32q28 19 61 19q40 0 63.5 -22t23.5 -64v-6h12q30 45 73 68.5t101 23.5q55 0 97 -25t66 -68.5t24 -98.5q0 -66 -17.5 -126t-52.5 -106t-87 -73t-122 -27q-55 0 -96 25.5t-58 64.5h-12l-59 -276h-77zM292 60
q66 0 112 34.5t70 89.5t24 118q0 66 -34.5 100t-91.5 34q-46 0 -83.5 -20.5t-64.5 -55.5t-42 -77.5t-15 -87.5q0 -64 33.5 -99.5t91.5 -35.5z" />
    <glyph glyph-name="q" unicode="q" 
d="M436 -212q-34 0 -59 21t-25 63q0 14 3 30l36 168h-12q-29 -42 -72.5 -63t-95.5 -21q-57 0 -100 25t-67 70t-24 105q0 92 36 165.5t100 116t148 42.5q59 0 97.5 -25.5t50.5 -66.5h12l17 78h78l-129 -607q-3 -12 2.5 -19t14.5 -7q7 0 15 5l52 35l40 -59l-52 -35
q-31 -21 -66 -21zM228 60q46 0 84 20.5t65.5 54.5t42.5 76.5t15 86.5q0 62 -35 100t-94 38q-63 0 -109 -34t-71 -89.5t-25 -118.5q0 -61 33 -97.5t94 -36.5z" />
    <glyph glyph-name="r" unicode="r" 
d="M0 0v72h122l72 338q3 12 -3 18.5t-15 6.5q-7 0 -15 -5l-91 -62l-40 59l89 60q34 23 69 23q31 0 54 -17.5t26 -56.5h12q29 41 65 57.5t75 16.5q71 0 112.5 -41.5t41.5 -109.5q0 -26 -6 -53l-85 -6q2 11 3.5 21.5t1.5 20.5q0 48 -27 71t-68 23q-40 0 -70 -19.5t-49 -52
t-27 -70.5l-47 -222h118v-72h-318z" />
    <glyph glyph-name="s" unicode="s" 
d="M261 -14q-67 0 -109 23t-61 59.5t-19 76.5v10.5t1 10.5l78 10q-1 -7 -1 -9.5v-6.5q0 -43 28 -72.5t98 -29.5q31 0 63 10t53.5 30.5t21.5 53.5q0 39 -31.5 53t-93.5 18q-70 5 -111 34.5t-41 90.5q0 47 26 83.5t73 57.5t110 21q62 0 101 -21t57.5 -53.5t18.5 -68.5v-11
l-77 -11l0.5 4t0.5 7q0 38 -28.5 61t-82.5 23q-27 0 -55 -9t-46.5 -27t-18.5 -46q0 -32 28.5 -48t98.5 -21q71 -5 111 -36t40 -91q0 -56 -30 -95.5t-82.5 -60t-120.5 -20.5z" />
    <glyph glyph-name="t" unicode="t" 
d="M254 -14q-34 0 -59.5 21t-25.5 63q0 7 1.5 15t2.5 15l68 324h-156v72h172l46 218h78l-46 -218h176v-72h-192l-71 -337q-3 -12 2.5 -19t14.5 -7q7 0 15 5l133 90l40 -59l-133 -90q-31 -21 -66 -21z" />
    <glyph glyph-name="u" unicode="u" 
d="M182 -14q-65 0 -106.5 38t-41.5 111q0 15 2 30.5t6 34.5l66 296h78l-64 -286q-7 -31 -7 -58q0 -92 99 -92q69 0 117.5 48.5t66.5 129.5l58 258h78l-91 -412q-2 -8 2 -13t11 -5t14 5l43 31l42 -58l-50 -38q-12 -10 -29.5 -15t-35.5 -5q-29 0 -53.5 17t-24.5 55q0 5 0.5 10
t1.5 10l1 6h-12q-27 -48 -69 -73t-102 -25z" />
    <glyph glyph-name="v" unicode="v" 
d="M178 0l-38 418q-2 16 -17 16q-10 0 -18 -9l-49 -62l-56 45l48 62q16 20 37 30t43 10q33 0 59.5 -21.5t30.5 -62.5l35 -390h12l232 460l73 -37l-240 -459h-152z" />
    <glyph glyph-name="w" unicode="w" 
d="M18 0l45 496h71l-47 -460h12l154 460h145l-39 -460h12l149 470l68 -21l-159 -485h-140l37 460h-12l-156 -460h-140z" />
    <glyph glyph-name="x" unicode="x" 
d="M405 -14q-24 0 -45.5 13.5t-34.5 43.5l-56 134l-193 -189l-53 53l215 211l-67 162q-6 13 -18 13t-18 -12l-44 -75l-62 36l45 78q16 27 35.5 41.5t48.5 14.5q54 0 79 -59l59 -143l202 198l53 -53l-224 -219l65 -154q6 -13 18 -13q11 0 17 11l43 77l63 -34l-43 -79
q-30 -56 -85 -56z" />
    <glyph glyph-name="y" unicode="y" 
d="M103 -200v72h258q27 0 33 30l38 176h-12q-30 -45 -71.5 -68.5t-98.5 -23.5q-67 0 -107 40t-40 113q0 30 7 61l45 214q2 10 -2.5 15.5t-11.5 5.5q-6 0 -13 -5l-51 -35l-40 59l52 35q32 21 63 21q33 0 57 -22t24 -61q0 -6 -0.5 -11.5t-2.5 -14.5l-40 -191q-7 -31 -7 -58
q0 -92 99 -92q69 0 118 48.5t66 129.5l54 258h78l-131 -618q-7 -34 -33 -56t-60 -22h-271z" />
    <glyph glyph-name="z" unicode="z" 
d="M64 0v130l408 282v12h-338v72h404v-126l-408 -286v-12h355v-72h-421z" />
    <glyph glyph-name="braceleft" unicode="{" 
d="M272 -156q-36 0 -60 17.5t-24 55.5q0 8 1 14.5t2 14.5l70 321q1 5 1 10q0 19 -22 19h-39v108h64q27 0 33 29l75 345q8 38 31 58t63 20h82v-72h-69q-28 0 -34 -30l-70 -320q-7 -36 -31.5 -57t-62.5 -21h-15v-12h12q27 0 44 -16t17 -45v-9t-2 -12l-69 -317q-1 -5 -1 -9
q0 -20 25 -20h65v-72h-86z" />
    <glyph glyph-name="bar" unicode="|" 
d="M158 -156l224 1012h74l-224 -1012h-74z" />
    <glyph glyph-name="braceright" unicode="}" 
d="M63 -156v72h69q28 0 34 30l70 320q8 36 32.5 57t61.5 21h15v12h-12q-27 0 -44 16.5t-17 44.5q0 5 0.5 9l1.5 12l69 317q1 5 1 9q0 20 -25 20h-65v72h86q36 0 60 -17.5t24 -55.5q0 -8 -0.5 -14.5t-2.5 -14.5l-70 -321q-1 -5 -1 -10q0 -19 22 -19h39v-108h-64
q-27 0 -33 -29l-75 -345q-8 -37 -31 -57.5t-63 -20.5h-82z" />
    <glyph glyph-name="asciitilde" unicode="~" 
d="M101 224l-38 50l123 94q15 12 31 19.5t37 7.5q38 0 56 -21.5t28 -57.5q2 -8 7.5 -16.5t15.5 -8.5q8 0 20 9l129 95l38 -50l-123 -94q-13 -10 -29 -18.5t-39 -8.5q-39 0 -56 21t-28 55q-2 9 -6.5 18.5t-16.5 9.5q-9 0 -23 -11z" />
    <glyph glyph-name="uni00A0" unicode="&#xa0;" 
 />
    <glyph glyph-name="exclamdown" unicode="&#xa1;" 
d="M337 374q-28 0 -49 21t-21 49q0 29 21 49.5t49 20.5q29 0 49.5 -20.5t20.5 -49.5q0 -28 -20.5 -49t-49.5 -21zM154 -200l117 514h80l-117 -514h-80z" />
    <glyph glyph-name="cent" unicode="&#xa2;" 
d="M207 28l13 62q-74 11 -123 61t-49 133q0 85 34.5 156t98 116.5t150.5 53.5l13 62h72l-13 -63q75 -11 117 -59.5t42 -116.5v-11l-82 -18q1 8 1 11v4q0 42 -22 74t-72 41l-79 -369q60 10 98 47.5t53 83.5l74 -18q-27 -77 -88 -128t-153 -60l-13 -62h-72zM236 165l79 370
q-55 -9 -97 -43.5t-65 -85t-23 -109.5t28.5 -91.5t77.5 -40.5z" />
    <glyph glyph-name="sterling" unicode="&#xa3;" 
d="M62 102v72h60l25 120h-44v72h59l16 74q19 89 69.5 130.5t125.5 41.5q62 0 100.5 -37t38.5 -97q0 -9 -1 -18.5t-3 -19.5l-5 -24h-76l5 24q3 15 3 28q0 37 -21 54.5t-53 17.5q-37 0 -65.5 -23.5t-39.5 -76.5l-16 -74h75v-72h-90l-25 -120h226v-72h-364z" />
    <glyph glyph-name="currency" unicode="&#xa4;" 
d="M52 90l-49 61l67 57q-21 42 -21 96q0 60 21.5 111.5t58.5 91.5l-40 50l65 53l40 -52q35 20 74 31t82 11q41 0 77 -12.5t63 -35.5l70 58l49 -61l-69 -59q10 -20 15.5 -43t5.5 -49q0 -61 -20.5 -114t-57.5 -93l39 -48l-65 -53l-40 50q-69 -40 -158 -40q-86 0 -140 45z
M268 178q58 0 106 28t77.5 75t29.5 105q0 59 -37 97.5t-103 38.5q-57 0 -105.5 -29t-77.5 -76.5t-29 -104.5q0 -61 38.5 -97.5t100.5 -36.5z" />
    <glyph glyph-name="yen" unicode="&#xa5;" 
d="M206 102l18 84h-123v72h138l8 36h-123v72h92l-73 232h80l69 -232h12l167 232h85v-6l-166 -226h82v-72h-153l-8 -36h138v-72h-153l-18 -84h-72z" />
    <glyph glyph-name="brokenbar" unicode="&#xa6;" 
d="M278 386l104 470h74l-104 -470h-74zM158 -156l104 470h74l-104 -470h-74z" />
    <glyph glyph-name="section" unicode="&#xa7;" 
d="M286 218q-61 0 -91.5 30.5t-30.5 67.5q0 12 1 21.5t4 21.5h68q-1 -5 -2 -12t-1 -11q0 -21 16 -36.5t46 -15.5q29 0 49 14t20 38q0 20 -16.5 30.5t-52.5 17.5q-34 8 -62 27t-28 65q0 23 9.5 39.5t22.5 29.5q-3 7 -6 17.5t-3 23.5q0 59 42 93.5t105 34.5q54 0 84 -26.5
t30 -61.5q0 -5 -0.5 -14.5t-4.5 -23.5h-69q2 8 2.5 11.5t0.5 5.5q0 17 -14.5 30t-40.5 13q-25 0 -43.5 -12.5t-18.5 -32.5q0 -19 16 -30t59 -19q87 -16 87 -86q0 -40 -33 -75q2 -4 5.5 -14t3.5 -27q0 -63 -44.5 -98.5t-109.5 -35.5zM379 432q7 9 7 24q0 20 -14.5 28.5
t-50.5 16.5l-31 7q-9 -13 -9 -25q0 -14 14 -24.5t45 -15.5q20 -4 26.5 -6.5t12.5 -4.5z" />
    <glyph glyph-name="dieresis" unicode="&#xa8;" 
d="M206 574q-28 0 -49 21t-21 49q0 29 21 49.5t49 20.5q29 0 49.5 -20.5t20.5 -49.5q0 -28 -20.5 -49t-49.5 -21zM406 574q-28 0 -49 21t-21 49q0 29 21 49.5t49 20.5q29 0 49.5 -20.5t20.5 -49.5q0 -28 -20.5 -49t-49.5 -21z" />
    <glyph glyph-name="copyright" unicode="&#xa9;" 
d="M306 308q-69 0 -125 33.5t-89.5 90t-33.5 124.5q0 69 33.5 125t89.5 89.5t125 33.5t125 -33.5t89.5 -89.5t33.5 -125q0 -68 -33.5 -124.5t-89.5 -90t-125 -33.5zM306 356q56 0 101 27t72 72.5t27 100.5q0 56 -27 101t-72 72t-101 27q-55 0 -100.5 -27t-72.5 -72t-27 -101
q0 -55 27 -100.5t72.5 -72.5t100.5 -27zM306 406q-49 0 -77 29.5t-28 75.5v90q0 46 28 75.5t77 29.5q50 0 76.5 -29.5t26.5 -75.5v-12h-54v18q0 22 -13 36.5t-36 14.5t-37 -14.5t-14 -36.5v-102q0 -22 14 -36.5t37 -14.5t36 14.5t13 36.5v18h54v-12q0 -46 -26.5 -75.5
t-76.5 -29.5z" />
    <glyph glyph-name="ordfeminine" unicode="&#xaa;" 
d="M291 406q-44 0 -74.5 29t-30.5 85q0 46 18 88.5t54.5 70t93.5 27.5q33 0 51.5 -11t26.5 -29h6l7 32h66l-45 -209q-3 -17 13 -17h15v-60h-61q-18 0 -29.5 9t-11.5 25v6h-6q-25 -46 -93 -46zM315 466q30 0 53 17t35.5 44t12.5 57q0 31 -16.5 46.5t-45.5 15.5
q-46 0 -73 -35.5t-27 -82.5q0 -27 15 -44.5t46 -17.5z" />
    <glyph glyph-name="guillemotleft" unicode="&#xab;" 
d="M225 12l-185 156v156l286 160h6v-88l-262 -144v-10l161 -134v-96h-6zM465 12l-185 156v156l286 160h6v-88l-262 -144v-10l161 -134v-96h-6z" />
    <glyph glyph-name="logicalnot" unicode="&#xac;" 
d="M411 230l19 84h-332v72h417v-6l-32 -150h-72z" />
    <glyph glyph-name="registered" unicode="&#xae;" 
d="M306 308q-69 0 -125 33.5t-89.5 90t-33.5 124.5q0 69 33.5 125t89.5 89.5t125 33.5t125 -33.5t89.5 -89.5t33.5 -125q0 -68 -33.5 -124.5t-89.5 -90t-125 -33.5zM306 356q56 0 101 27t72 72.5t27 100.5q0 56 -27 101t-72 72t-101 27q-55 0 -100.5 -27t-72.5 -72t-27 -101
q0 -55 27 -100.5t72.5 -72.5t100.5 -27zM222 412v288h96q45 0 67.5 -24t22.5 -56q0 -25 -8.5 -43t-31.5 -28v-6q18 -1 26 -14t8 -27v-90h-54v83q0 11 -6.5 18t-18.5 7h-47v-108h-54zM276 568h32q23 0 34.5 12.5t11.5 31.5t-11.5 30t-34.5 11h-32v-85z" />
    <glyph glyph-name="macron" unicode="&#xaf;" 
d="M165 570v66h282v-66h-282z" />
    <glyph glyph-name="degree" unicode="&#xb0;" 
d="M355 424q-40 0 -73 19.5t-52.5 52.5t-19.5 73t19.5 73t52.5 52.5t73 19.5t73 -19.5t52.5 -52.5t19.5 -73t-19.5 -73t-52.5 -52.5t-73 -19.5zM355 496q30 0 51.5 21.5t21.5 51.5t-21.5 51.5t-51.5 21.5t-51.5 -21.5t-21.5 -51.5t21.5 -51.5t51.5 -21.5z" />
    <glyph glyph-name="plusminus" unicode="&#xb1;" 
d="M223 141l37 173h-164v72h179l37 173h74l-37 -173h165v-72h-180l-37 -173h-74zM36 0v72h418v-72h-418z" />
    <glyph glyph-name="uni00B2" unicode="&#xb2;" 
d="M180 412v6l10 48q10 45 37 66t67 29q72 14 72 61q0 15 -9.5 25.5t-30.5 10.5q-22 0 -39 -14t-22 -46l-2 -12h-54l3 16q20 104 122 104q44 0 66 -24t22 -56q0 -42 -28 -69t-72 -38q-43 -10 -58.5 -21t-20.5 -34l-1 -4h141v-48h-203z" />
    <glyph glyph-name="uni00B3" unicode="&#xb3;" 
d="M281 406q-45 0 -67 23.5t-22 54.5q0 5 0.5 9.5t1.5 8.5l3 16h54l-3 -14q-1 -4 -1 -7v-6q0 -16 10 -26.5t30 -10.5q24 0 40.5 15t16.5 40q0 17 -10 25t-27 8h-24v74l95 30v6h-143v48h185v-82l-95 -30v-6h8q26 0 46.5 -16.5t20.5 -51.5q0 -48 -31.5 -78t-87.5 -30z" />
    <glyph glyph-name="acute" unicode="&#xb4;" 
d="M272 570l91 118h92v-6l-103 -112h-80z" />
    <glyph glyph-name="uni00B5" unicode="&#xb5;" 
d="M-30 -200l147 696h78l-58 -276q-6 -30 -6 -53q0 -56 29 -81.5t72 -25.5q73 0 117 48.5t61 129.5l55 258h78l-87 -410q-2 -9 2 -14.5t11 -5.5q6 0 13 5l36 26l42 -59l-43 -32q-28 -20 -65 -20q-30 0 -54 16.5t-24 53.5q0 12 2 22h-11q-18 -45 -52 -68.5t-90 -23.5
q-43 0 -71.5 20t-36.5 54h-12l-55 -260h-78z" />
    <glyph glyph-name="paragraph" unicode="&#xb6;" 
d="M233 218l45 206q-46 6 -81.5 39t-35.5 91q0 72 52 116t134 44h172v-6l-106 -490h-72l92 424h-36l-92 -424h-72zM293 496l32 146q-39 -1 -64.5 -24.5t-25.5 -59.5q0 -28 16 -44t42 -18z" />
    <glyph glyph-name="periodcentered" unicode="&#xb7;" 
d="M306 280q-28 0 -49 21t-21 49q0 29 21 49.5t49 20.5q29 0 49.5 -20.5t20.5 -49.5q0 -28 -20.5 -49t-49.5 -21z" />
    <glyph glyph-name="cedilla" unicode="&#xb8;" 
d="M298 -212q-40 0 -64.5 19.5t-29.5 50.5l50 17q2 -16 13 -27.5t33 -11.5q23 0 35.5 12.5t12.5 33.5q0 18 -9.5 26t-22.5 8q-10 0 -16.5 -4t-10.5 -10h-75v12l30 86h54l-24 -68h6q17 32 54 32q33 0 50.5 -22t17.5 -52q0 -45 -25.5 -73.5t-78.5 -28.5z" />
    <glyph glyph-name="uni00B9" unicode="&#xb9;" 
d="M194 412v48h78l45 210h-9l-45 -93h-57l64 123h107l-51 -240h71v-48h-203z" />
    <glyph glyph-name="ordmasculine" unicode="&#xba;" 
d="M324 406q-51 0 -85.5 30.5t-34.5 85.5q0 50 20.5 92t60 67t95.5 25q53 0 87.5 -32t34.5 -88q0 -47 -20 -88t-59.5 -66.5t-98.5 -25.5zM332 466q45 0 73.5 32.5t28.5 83.5q0 29 -16 46.5t-46 17.5q-48 0 -75 -34.5t-27 -81.5q0 -28 16 -46t46 -18z" />
    <glyph glyph-name="guillemotright" unicode="&#xbb;" 
d="M244 12v88l262 144v10l-161 134v96h6l185 -156v-156l-286 -160h-6zM4 12v88l262 144v10l-161 134v96h6l185 -156v-156l-286 -160h-6z" />
    <glyph glyph-name="onequarter" unicode="&#xbc;" 
d="M65 412v48h78l45 210h-9l-45 -93h-57l64 123h107l-51 -240h71v-48h-203zM61 205l-22 46l531 244l22 -46zM407 0l11 54h-123v60l126 174h101l-39 -186h40v-48h-51l-11 -54h-54zM348 102h81l33 156h-6l-108 -150v-6z" />
    <glyph glyph-name="onehalf" unicode="&#xbd;" 
d="M295 0v6l10 48q10 45 37 66t67 29q72 14 72 61q0 15 -9.5 25.5t-30.5 10.5q-22 0 -39 -14t-22 -46l-2 -12h-54l3 16q20 104 122 104q44 0 66 -24t22 -56q0 -42 -28 -69t-72 -38q-43 -10 -58.5 -21t-20.5 -34l-1 -4h141v-48h-203zM61 205l-22 46l531 244l22 -46zM65 412
v48h78l45 210h-9l-45 -93h-57l64 123h107l-51 -240h71v-48h-203z" />
    <glyph glyph-name="threequarters" unicode="&#xbe;" 
d="M159 406q-45 0 -67 23.5t-22 54.5q0 5 0.5 9.5t1.5 8.5l3 16h54l-3 -14q-1 -4 -1 -7v-6q0 -16 10 -26.5t30 -10.5q24 0 40.5 15t16.5 40q0 17 -10 25t-27 8h-24v74l95 30v6h-143v48h185v-82l-95 -30v-6h8q26 0 46.5 -16.5t20.5 -51.5q0 -48 -31.5 -78t-87.5 -30zM61 205
l-22 46l531 244l22 -46zM429 0l11 54h-123v60l126 174h101l-39 -186h40v-48h-51l-11 -54h-54zM370 102h81l33 156h-6l-108 -150v-6z" />
    <glyph glyph-name="questiondown" unicode="&#xbf;" 
d="M365 376q-28 0 -49 21t-21 49q0 29 21 49.5t49 20.5q29 0 49.5 -20.5t20.5 -49.5q0 -28 -20.5 -49t-49.5 -21zM215 -212q-62 0 -108.5 24.5t-72 67t-25.5 95.5q0 43 15 85t44 76.5t71.5 55t97.5 20.5h12q30 0 36 30l15 74h80l-20 -94q-8 -40 -34.5 -63t-70.5 -23h-24
q-41 0 -71.5 -21.5t-47 -56t-16.5 -75.5q0 -49 33 -83t96 -34q68 0 114.5 42.5t62.5 117.5l9 42h84l-10 -48q-22 -106 -91 -169t-179 -63z" />
    <glyph glyph-name="Agrave" unicode="&#xc0;" 
d="M-42 0l347 700h160l50 -700h-85l-11 174h-281l-85 -174h-95zM176 252h238l-26 411h-12zM349 774l-59 118h84l41 -118h-66z" />
    <glyph glyph-name="Aacute" unicode="&#xc1;" 
d="M-42 0l347 700h160l50 -700h-85l-11 174h-281l-85 -174h-95zM176 252h238l-26 411h-12zM348 774l91 118h92v-6l-103 -112h-80z" />
    <glyph glyph-name="Acircumflex" unicode="&#xc2;" 
d="M-42 0l347 700h160l50 -700h-85l-11 174h-281l-85 -174h-95zM176 252h238l-26 411h-12zM249 774v6l100 112h124l55 -118h-75l-39 88h-12l-68 -88h-85z" />
    <glyph glyph-name="Atilde" unicode="&#xc3;" 
d="M-42 0l347 700h160l50 -700h-85l-11 174h-281l-85 -174h-95zM176 252h238l-26 411h-12zM458 758q-31 0 -47.5 14t-33.5 45q-7 12 -11.5 17t-12.5 5q-11 0 -22 -12l-46 -53l-49 42l41 49q14 17 33 29.5t46 12.5q29 0 46 -14.5t35 -46.5q5 -10 10 -15t14 -5q10 0 19 10
l48 55l49 -42l-41 -49q-14 -17 -33 -29.5t-45 -12.5z" />
    <glyph glyph-name="Adieresis" unicode="&#xc4;" 
d="M-42 0l347 700h160l50 -700h-85l-11 174h-281l-85 -174h-95zM176 252h238l-26 411h-12zM300 774q-28 0 -49 21t-21 49q0 29 21 49.5t49 20.5q29 0 49.5 -20.5t20.5 -49.5q0 -28 -20.5 -49t-49.5 -21zM500 774q-28 0 -49 21t-21 49q0 29 21 49.5t49 20.5q29 0 49.5 -20.5
t20.5 -49.5q0 -28 -20.5 -49t-49.5 -21z" />
    <glyph glyph-name="Aring" unicode="&#xc5;" 
d="M-42 0l347 700h160l50 -700h-85l-11 174h-281l-85 -174h-95zM176 252h238l-26 411h-12zM394 772q-43 0 -72.5 29.5t-29.5 72.5t29.5 72.5t72.5 29.5t72.5 -29.5t29.5 -72.5t-29.5 -72.5t-72.5 -29.5zM394 832q18 0 30 12t12 30t-12 30t-30 12t-30 -12t-12 -30t12 -30
t30 -12z" />
    <glyph glyph-name="AE" unicode="&#xc6;" 
d="M-48 0l360 700h287v-78h-144l-49 -232h121v-78h-138l-49 -234h133v-78h-234l37 174h-144l-88 -174h-92zM172 252h121l78 370h-12z" />
    <glyph glyph-name="Ccedilla" unicode="&#xc7;" 
d="M257 -212q-40 0 -64.5 19.5t-29.5 50.5l50 17q2 -16 13 -27.5t33 -11.5q23 0 35.5 12.5t12.5 33.5q0 18 -9.5 26t-22.5 8q-10 0 -16.5 -4t-10.5 -10h-75v12l26 74q-76 11 -118.5 61.5t-42.5 128.5q0 21 2.5 45t7.5 49l33 156q30 141 105 213.5t196 72.5q96 0 148.5 -52.5
t52.5 -133.5q0 -32 -9 -68l-3 -12h-84l3 12q5 19 6.5 33.5t1.5 28.5q0 53 -30.5 84.5t-98.5 31.5q-79 0 -132 -60t-73 -156l-31 -144q-4 -22 -7 -42.5t-3 -38.5q0 -67 30.5 -100t94.5 -33q87 0 131.5 49t63.5 127l3 12h84l-3 -12q-19 -76 -51.5 -132.5t-86.5 -88t-137 -33.5
l-19 -54h6q17 32 54 32q33 0 50.5 -22t17.5 -52q0 -45 -25.5 -73.5t-78.5 -28.5z" />
    <glyph glyph-name="Egrave" unicode="&#xc8;" 
d="M28 0l149 700h395v-78h-328l-49 -232h305v-78h-322l-49 -234h317v-78h-418zM359 774l-59 118h84l41 -118h-66z" />
    <glyph glyph-name="Eacute" unicode="&#xc9;" 
d="M28 0l149 700h395v-78h-328l-49 -232h305v-78h-322l-49 -234h317v-78h-418zM345 774l91 118h92v-6l-103 -112h-80z" />
    <glyph glyph-name="Ecircumflex" unicode="&#xca;" 
d="M28 0l149 700h395v-78h-328l-49 -232h305v-78h-322l-49 -234h317v-78h-418zM252 774v6l100 112h124l55 -118h-75l-39 88h-12l-68 -88h-85z" />
    <glyph glyph-name="Edieresis" unicode="&#xcb;" 
d="M28 0l149 700h395v-78h-328l-49 -232h305v-78h-322l-49 -234h317v-78h-418zM300 774q-28 0 -49 21t-21 49q0 29 21 49.5t49 20.5q29 0 49.5 -20.5t20.5 -49.5q0 -28 -20.5 -49t-49.5 -21zM500 774q-28 0 -49 21t-21 49q0 29 21 49.5t49 20.5q29 0 49.5 -20.5t20.5 -49.5
q0 -28 -20.5 -49t-49.5 -21z" />
    <glyph glyph-name="Igrave" unicode="&#xcc;" 
d="M32 0v78h174l115 544h-174v78h432v-78h-174l-115 -544h174v-78h-432zM345 774l-59 118h84l41 -118h-66z" />
    <glyph glyph-name="Iacute" unicode="&#xcd;" 
d="M32 0v78h174l115 544h-174v78h432v-78h-174l-115 -544h174v-78h-432zM351 774l91 118h92v-6l-103 -112h-80z" />
    <glyph glyph-name="Icircumflex" unicode="&#xce;" 
d="M32 0v78h174l115 544h-174v78h432v-78h-174l-115 -544h174v-78h-432zM249 774v6l100 112h124l55 -118h-75l-39 88h-12l-68 -88h-85z" />
    <glyph glyph-name="Idieresis" unicode="&#xcf;" 
d="M32 0v78h174l115 544h-174v78h432v-78h-174l-115 -544h174v-78h-432zM287 778q-28 0 -49 21t-21 49q0 29 21 49.5t49 20.5q29 0 49.5 -20.5t20.5 -49.5q0 -28 -20.5 -49t-49.5 -21zM487 778q-28 0 -49 21t-21 49q0 29 21 49.5t49 20.5q29 0 49.5 -20.5t20.5 -49.5
q0 -28 -20.5 -49t-49.5 -21z" />
    <glyph glyph-name="Eth" unicode="&#xd0;" 
d="M0 0v78h66l49 233h-60v78h77l49 233h-66v78h243q106 0 160 -48t54 -137q0 -19 -2.5 -39t-7.5 -42l-38 -174q-20 -95 -53 -152t-91 -82.5t-153 -25.5h-227zM150 78h76q62 0 104.5 16.5t69.5 57.5t42 114l35 168q5 26 7 43t2 33q0 64 -36 88t-109 24h-76l-49 -233h91v-78
h-108z" />
    <glyph glyph-name="Ntilde" unicode="&#xd1;" 
d="M10 0l149 700h165l40 -664h12l141 664h84l-149 -700h-165l-40 664h-12l-141 -664h-84zM454 758q-31 0 -47.5 14t-33.5 45q-7 12 -11.5 17t-12.5 5q-11 0 -22 -12l-46 -53l-49 42l41 49q14 17 33 29.5t46 12.5q29 0 46 -14.5t35 -46.5q5 -10 10 -15t14 -5q10 0 19 10
l48 55l49 -42l-41 -49q-14 -17 -33 -29.5t-45 -12.5z" />
    <glyph glyph-name="Ograve" unicode="&#xd2;" 
d="M236 -14q-97 0 -148.5 56t-51.5 153q0 20 2.5 42.5t7.5 45.5l31 145q29 140 103 213t197 73q97 0 148.5 -55.5t51.5 -153.5q0 -20 -2.5 -42.5t-7.5 -45.5l-31 -145q-29 -139 -103 -212.5t-197 -73.5zM248 62q83 0 133.5 59.5t71.5 156.5l32 150q4 19 6 36.5t2 33.5
q0 65 -32 102.5t-96 37.5q-82 0 -133 -59t-72 -157l-32 -150q-4 -19 -6 -36.5t-2 -33.5q0 -64 32 -102t96 -38zM352 774l-59 118h84l41 -118h-66z" />
    <glyph glyph-name="Oacute" unicode="&#xd3;" 
d="M236 -14q-97 0 -148.5 56t-51.5 153q0 20 2.5 42.5t7.5 45.5l31 145q29 140 103 213t197 73q97 0 148.5 -55.5t51.5 -153.5q0 -20 -2.5 -42.5t-7.5 -45.5l-31 -145q-29 -139 -103 -212.5t-197 -73.5zM248 62q83 0 133.5 59.5t71.5 156.5l32 150q4 19 6 36.5t2 33.5
q0 65 -32 102.5t-96 37.5q-82 0 -133 -59t-72 -157l-32 -150q-4 -19 -6 -36.5t-2 -33.5q0 -64 32 -102t96 -38zM337 774l91 118h92v-6l-103 -112h-80z" />
    <glyph glyph-name="Ocircumflex" unicode="&#xd4;" 
d="M236 -14q-97 0 -148.5 56t-51.5 153q0 20 2.5 42.5t7.5 45.5l31 145q29 140 103 213t197 73q97 0 148.5 -55.5t51.5 -153.5q0 -20 -2.5 -42.5t-7.5 -45.5l-31 -145q-29 -139 -103 -212.5t-197 -73.5zM248 62q83 0 133.5 59.5t71.5 156.5l32 150q4 19 6 36.5t2 33.5
q0 65 -32 102.5t-96 37.5q-82 0 -133 -59t-72 -157l-32 -150q-4 -19 -6 -36.5t-2 -33.5q0 -64 32 -102t96 -38zM262 774v6l100 112h124l55 -118h-75l-39 88h-12l-68 -88h-85z" />
    <glyph glyph-name="Otilde" unicode="&#xd5;" 
d="M236 -14q-97 0 -148.5 56t-51.5 153q0 20 2.5 42.5t7.5 45.5l31 145q29 140 103 213t197 73q97 0 148.5 -55.5t51.5 -153.5q0 -20 -2.5 -42.5t-7.5 -45.5l-31 -145q-29 -139 -103 -212.5t-197 -73.5zM248 62q83 0 133.5 59.5t71.5 156.5l32 150q4 19 6 36.5t2 33.5
q0 65 -32 102.5t-96 37.5q-82 0 -133 -59t-72 -157l-32 -150q-4 -19 -6 -36.5t-2 -33.5q0 -64 32 -102t96 -38zM471 758q-31 0 -47.5 14t-33.5 45q-7 12 -11.5 17t-12.5 5q-11 0 -22 -12l-46 -53l-49 42l41 49q14 17 33 29.5t46 12.5q29 0 46 -14.5t35 -46.5q5 -10 10 -15
t14 -5q10 0 19 10l48 55l49 -42l-41 -49q-14 -17 -33 -29.5t-45 -12.5z" />
    <glyph glyph-name="Odieresis" unicode="&#xd6;" 
d="M236 -14q-97 0 -148.5 56t-51.5 153q0 20 2.5 42.5t7.5 45.5l31 145q29 140 103 213t197 73q97 0 148.5 -55.5t51.5 -153.5q0 -20 -2.5 -42.5t-7.5 -45.5l-31 -145q-29 -139 -103 -212.5t-197 -73.5zM248 62q83 0 133.5 59.5t71.5 156.5l32 150q4 19 6 36.5t2 33.5
q0 65 -32 102.5t-96 37.5q-82 0 -133 -59t-72 -157l-32 -150q-4 -19 -6 -36.5t-2 -33.5q0 -64 32 -102t96 -38zM307 778q-28 0 -49 21t-21 49q0 29 21 49.5t49 20.5q29 0 49.5 -20.5t20.5 -49.5q0 -28 -20.5 -49t-49.5 -21zM507 778q-28 0 -49 21t-21 49q0 29 21 49.5
t49 20.5q29 0 49.5 -20.5t20.5 -49.5q0 -28 -20.5 -49t-49.5 -21z" />
    <glyph glyph-name="multiply" unicode="&#xd7;" 
d="M159 152l-51 51l147 147l-147 147l51 51l147 -147l147 147l51 -51l-147 -147l147 -147l-51 -51l-147 147z" />
    <glyph glyph-name="Oslash" unicode="&#xd8;" 
d="M111 -86l-60 35l45 84q-60 55 -60 162q0 20 2.5 42.5t7.5 45.5l31 145q29 140 103 213t197 73q23 0 43 -3.5t37 -9.5l40 73l60 -34l-40 -74q60 -55 60 -161q0 -20 -2.5 -42.5t-7.5 -45.5l-31 -145q-29 -139 -103 -212.5t-197 -73.5q-44 0 -80 12zM140 115l278 514
q-22 9 -53 9q-82 0 -133 -59t-72 -157l-32 -150q-4 -19 -6 -36.5t-2 -33.5q0 -54 20 -87zM248 62q83 0 133.5 59.5t71.5 156.5l32 150q4 19 6 36.5t2 33.5q0 51 -20 86l-278 -514q24 -8 53 -8z" />
    <glyph glyph-name="Ugrave" unicode="&#xd9;" 
d="M232 -14q-86 0 -140.5 47.5t-54.5 136.5q0 17 2 35t6 37l97 458h84l-98 -464q-3 -16 -5 -30.5t-2 -27.5q0 -116 123 -116q74 0 123 44.5t67 129.5l98 464h84l-98 -464q-26 -124 -95 -187t-191 -63zM360 774l-59 118h84l41 -118h-66z" />
    <glyph glyph-name="Uacute" unicode="&#xda;" 
d="M232 -14q-86 0 -140.5 47.5t-54.5 136.5q0 17 2 35t6 37l97 458h84l-98 -464q-3 -16 -5 -30.5t-2 -27.5q0 -116 123 -116q74 0 123 44.5t67 129.5l98 464h84l-98 -464q-26 -124 -95 -187t-191 -63zM355 774l91 118h92v-6l-103 -112h-80z" />
    <glyph glyph-name="Ucircumflex" unicode="&#xdb;" 
d="M232 -14q-86 0 -140.5 47.5t-54.5 136.5q0 17 2 35t6 37l97 458h84l-98 -464q-3 -16 -5 -30.5t-2 -27.5q0 -116 123 -116q74 0 123 44.5t67 129.5l98 464h84l-98 -464q-26 -124 -95 -187t-191 -63zM248 774v6l100 112h124l55 -118h-75l-39 88h-12l-68 -88h-85z" />
    <glyph glyph-name="Udieresis" unicode="&#xdc;" 
d="M232 -14q-86 0 -140.5 47.5t-54.5 136.5q0 17 2 35t6 37l97 458h84l-98 -464q-3 -16 -5 -30.5t-2 -27.5q0 -116 123 -116q74 0 123 44.5t67 129.5l98 464h84l-98 -464q-26 -124 -95 -187t-191 -63zM285 778q-28 0 -49 21t-21 49q0 29 21 49.5t49 20.5q29 0 49.5 -20.5
t20.5 -49.5q0 -28 -20.5 -49t-49.5 -21zM485 778q-28 0 -49 21t-21 49q0 29 21 49.5t49 20.5q29 0 49.5 -20.5t20.5 -49.5q0 -28 -20.5 -49t-49.5 -21z" />
    <glyph glyph-name="Yacute" unicode="&#xdd;" 
d="M184 0l52 246h-18l-122 454h87l98 -382h12l260 382h97v-6l-312 -448h-18l-52 -246h-84zM331 774l91 118h92v-6l-103 -112h-80z" />
    <glyph glyph-name="Thorn" unicode="&#xde;" 
d="M12 0l149 700h84l-29 -138h144q89 0 140.5 -47t51.5 -120q0 -69 -32 -124.5t-91 -88t-141 -32.5h-160l-32 -150h-84zM145 228h150q74 0 122.5 41t48.5 111q0 53 -30.5 78.5t-87.5 25.5h-149z" />
    <glyph glyph-name="germandbls" unicode="&#xdf;" 
d="M333 -14q-56 0 -92 19.5t-53 50.5t-17 64q0 7 0.5 13.5t1.5 12.5l76 8q-1 -4 -1 -8v-8q0 -36 22.5 -58t68.5 -22q45 0 80 30.5t35 93.5q0 57 -35.5 79t-90.5 22h-54v147h49q60 0 99.5 34t39.5 92q0 42 -27.5 64t-71.5 22q-55 0 -94.5 -32.5t-55.5 -107.5l-107 -502h-78
l90 424h-60v72h76l3 14q23 108 84 156t148 48q74 0 123.5 -40.5t49.5 -117.5q0 -49 -23 -90t-66.5 -67t-103.5 -32v-12h13q48 0 87 -19t62 -55.5t23 -88.5q0 -57 -23.5 -103.5t-68.5 -74.5t-109 -28z" />
    <glyph glyph-name="agrave" unicode="&#xe0;" 
d="M184 -14q-80 0 -126 55t-46 143q0 63 17.5 121.5t52.5 104.5t86 73t118 27q51 0 87.5 -23.5t46.5 -68.5h12l16 78h78l-88 -412q-2 -9 2 -13.5t11 -4.5t14 5l36 26l42 -59l-45 -34q-25 -18 -61 -18q-29 0 -54.5 16.5t-25.5 55.5q0 5 0.5 10t1.5 10h-12q-31 -52 -73.5 -72
t-89.5 -20zM208 60q54 0 98 31.5t70 86t26 121.5q0 62 -28 99.5t-87 37.5q-62 0 -105 -34t-65.5 -89.5t-22.5 -118.5q0 -134 114 -134zM273 570l-59 118h84l41 -118h-66z" />
    <glyph glyph-name="aacute" unicode="&#xe1;" 
d="M184 -14q-80 0 -126 55t-46 143q0 63 17.5 121.5t52.5 104.5t86 73t118 27q51 0 87.5 -23.5t46.5 -68.5h12l16 78h78l-88 -412q-2 -9 2 -13.5t11 -4.5t14 5l36 26l42 -59l-45 -34q-25 -18 -61 -18q-29 0 -54.5 16.5t-25.5 55.5q0 5 0.5 10t1.5 10h-12q-31 -52 -73.5 -72
t-89.5 -20zM208 60q54 0 98 31.5t70 86t26 121.5q0 62 -28 99.5t-87 37.5q-62 0 -105 -34t-65.5 -89.5t-22.5 -118.5q0 -134 114 -134zM269 570l91 118h92v-6l-103 -112h-80z" />
    <glyph glyph-name="acircumflex" unicode="&#xe2;" 
d="M184 -14q-80 0 -126 55t-46 143q0 63 17.5 121.5t52.5 104.5t86 73t118 27q51 0 87.5 -23.5t46.5 -68.5h12l16 78h78l-88 -412q-2 -9 2 -13.5t11 -4.5t14 5l36 26l42 -59l-45 -34q-25 -18 -61 -18q-29 0 -54.5 16.5t-25.5 55.5q0 5 0.5 10t1.5 10h-12q-31 -52 -73.5 -72
t-89.5 -20zM208 60q54 0 98 31.5t70 86t26 121.5q0 62 -28 99.5t-87 37.5q-62 0 -105 -34t-65.5 -89.5t-22.5 -118.5q0 -134 114 -134zM174 570v6l100 112h124l55 -118h-75l-39 88h-12l-68 -88h-85z" />
    <glyph glyph-name="atilde" unicode="&#xe3;" 
d="M184 -14q-80 0 -126 55t-46 143q0 63 17.5 121.5t52.5 104.5t86 73t118 27q51 0 87.5 -23.5t46.5 -68.5h12l16 78h78l-88 -412q-2 -9 2 -13.5t11 -4.5t14 5l36 26l42 -59l-45 -34q-25 -18 -61 -18q-29 0 -54.5 16.5t-25.5 55.5q0 5 0.5 10t1.5 10h-12q-31 -52 -73.5 -72
t-89.5 -20zM208 60q54 0 98 31.5t70 86t26 121.5q0 62 -28 99.5t-87 37.5q-62 0 -105 -34t-65.5 -89.5t-22.5 -118.5q0 -134 114 -134zM391 551q-31 0 -47.5 14t-33.5 45q-7 12 -11.5 17t-12.5 5q-11 0 -22 -12l-46 -53l-49 42l41 49q14 17 33 29.5t46 12.5q29 0 46 -14.5
t35 -46.5q5 -10 10 -15t14 -5q10 0 19 10l48 55l49 -42l-41 -49q-14 -17 -33 -29.5t-45 -12.5z" />
    <glyph glyph-name="adieresis" unicode="&#xe4;" 
d="M184 -14q-80 0 -126 55t-46 143q0 63 17.5 121.5t52.5 104.5t86 73t118 27q51 0 87.5 -23.5t46.5 -68.5h12l16 78h78l-88 -412q-2 -9 2 -13.5t11 -4.5t14 5l36 26l42 -59l-45 -34q-25 -18 -61 -18q-29 0 -54.5 16.5t-25.5 55.5q0 5 0.5 10t1.5 10h-12q-31 -52 -73.5 -72
t-89.5 -20zM208 60q54 0 98 31.5t70 86t26 121.5q0 62 -28 99.5t-87 37.5q-62 0 -105 -34t-65.5 -89.5t-22.5 -118.5q0 -134 114 -134zM206 574q-28 0 -49 21t-21 49q0 29 21 49.5t49 20.5q29 0 49.5 -20.5t20.5 -49.5q0 -28 -20.5 -49t-49.5 -21zM406 574q-28 0 -49 21
t-21 49q0 29 21 49.5t49 20.5q29 0 49.5 -20.5t20.5 -49.5q0 -28 -20.5 -49t-49.5 -21z" />
    <glyph glyph-name="aring" unicode="&#xe5;" 
d="M184 -14q-80 0 -126 55t-46 143q0 63 17.5 121.5t52.5 104.5t86 73t118 27q51 0 87.5 -23.5t46.5 -68.5h12l16 78h78l-88 -412q-2 -9 2 -13.5t11 -4.5t14 5l36 26l42 -59l-45 -34q-25 -18 -61 -18q-29 0 -54.5 16.5t-25.5 55.5q0 5 0.5 10t1.5 10h-12q-31 -52 -73.5 -72
t-89.5 -20zM208 60q54 0 98 31.5t70 86t26 121.5q0 62 -28 99.5t-87 37.5q-62 0 -105 -34t-65.5 -89.5t-22.5 -118.5q0 -134 114 -134zM331 570q-43 0 -72.5 29.5t-29.5 72.5t29.5 72.5t72.5 29.5t72.5 -29.5t29.5 -72.5t-29.5 -72.5t-72.5 -29.5zM331 630q18 0 30 12t12 30
t-12 30t-30 12t-30 -12t-12 -30t12 -30t30 -12z" />
    <glyph glyph-name="ae" unicode="&#xe6;" 
d="M179 -14q-70 0 -116.5 35t-46.5 101q0 78 57.5 126t153.5 48h19l30 141q-93 -11 -128 -107l-66 28q16 39 45.5 74t76.5 56.5t115 21.5q67 0 112.5 -27.5t69 -70.5t23.5 -92q0 -10 -1.5 -20.5t-3.5 -21.5l-12 -54h-199l-34 -162q52 6 87.5 34.5t52.5 65.5l70 -20
q-32 -69 -97.5 -112.5t-163.5 -43.5h-44zM324 296h121q1 5 1.5 11t0.5 13q0 45 -25.5 74.5t-68.5 37.5zM183 58h12l35 166h-11q-30 0 -58 -10t-46 -31.5t-18 -56.5q0 -33 22.5 -50.5t63.5 -17.5z" />
    <glyph glyph-name="ccedilla" unicode="&#xe7;" 
d="M252 -212q-40 0 -64.5 19.5t-29.5 50.5l50 17q2 -16 13 -27.5t33 -11.5q23 0 35.5 12.5t12.5 33.5q0 18 -9.5 26t-22.5 8q-10 0 -16.5 -4t-10.5 -10h-75v12l26 75q-77 11 -122.5 65t-45.5 138q0 87 39 159.5t109.5 115.5t165.5 43q61 0 106 -22.5t69.5 -62.5t24.5 -92v-4
t-1 -11l-80 -12q1 6 1 9v7q0 47 -31.5 80.5t-102.5 33.5q-62 0 -111.5 -32.5t-78 -86.5t-28.5 -117q0 -70 38.5 -105t103.5 -35q53 0 91 19.5t61.5 50t33.5 64.5l74 -24q-16 -49 -50.5 -90t-87.5 -66t-125 -28l-19 -54h6q17 32 54 32q33 0 50.5 -22t17.5 -52
q0 -45 -25.5 -73.5t-78.5 -28.5z" />
    <glyph glyph-name="egrave" unicode="&#xe8;" 
d="M236 -14q-59 0 -105.5 23.5t-72.5 68.5t-26 107q0 63 20 121t58.5 104t94 73t126.5 27q67 0 110.5 -26.5t64.5 -69.5t21 -91q0 -26 -6 -52l-11 -47h-398q-1 -8 -2.5 -18t-1.5 -21q0 -55 32 -90.5t102 -35.5q71 0 110.5 30.5t58.5 72.5l64 -36q-19 -39 -50 -71t-77 -50.5
t-112 -18.5zM129 296h318q3 17 3 30q0 54 -37 82t-92 28q-70 0 -121 -40t-71 -100zM306 570l-59 118h84l41 -118h-66z" />
    <glyph glyph-name="eacute" unicode="&#xe9;" 
d="M236 -14q-59 0 -105.5 23.5t-72.5 68.5t-26 107q0 63 20 121t58.5 104t94 73t126.5 27q67 0 110.5 -26.5t64.5 -69.5t21 -91q0 -26 -6 -52l-11 -47h-398q-1 -8 -2.5 -18t-1.5 -21q0 -55 32 -90.5t102 -35.5q71 0 110.5 30.5t58.5 72.5l64 -36q-19 -39 -50 -71t-77 -50.5
t-112 -18.5zM129 296h318q3 17 3 30q0 54 -37 82t-92 28q-70 0 -121 -40t-71 -100zM303 570l91 118h92v-6l-103 -112h-80z" />
    <glyph glyph-name="ecircumflex" unicode="&#xea;" 
d="M236 -14q-59 0 -105.5 23.5t-72.5 68.5t-26 107q0 63 20 121t58.5 104t94 73t126.5 27q67 0 110.5 -26.5t64.5 -69.5t21 -91q0 -26 -6 -52l-11 -47h-398q-1 -8 -2.5 -18t-1.5 -21q0 -55 32 -90.5t102 -35.5q71 0 110.5 30.5t58.5 72.5l64 -36q-19 -39 -50 -71t-77 -50.5
t-112 -18.5zM129 296h318q3 17 3 30q0 54 -37 82t-92 28q-70 0 -121 -40t-71 -100zM213 570v6l100 112h124l55 -118h-75l-39 88h-12l-68 -88h-85z" />
    <glyph glyph-name="edieresis" unicode="&#xeb;" 
d="M236 -14q-59 0 -105.5 23.5t-72.5 68.5t-26 107q0 63 20 121t58.5 104t94 73t126.5 27q67 0 110.5 -26.5t64.5 -69.5t21 -91q0 -26 -6 -52l-11 -47h-398q-1 -8 -2.5 -18t-1.5 -21q0 -55 32 -90.5t102 -35.5q71 0 110.5 30.5t58.5 72.5l64 -36q-19 -39 -50 -71t-77 -50.5
t-112 -18.5zM129 296h318q3 17 3 30q0 54 -37 82t-92 28q-70 0 -121 -40t-71 -100zM231 574q-28 0 -49 21t-21 49q0 29 21 49.5t49 20.5q29 0 49.5 -20.5t20.5 -49.5q0 -28 -20.5 -49t-49.5 -21zM431 574q-28 0 -49 21t-21 49q0 29 21 49.5t49 20.5q29 0 49.5 -20.5
t20.5 -49.5q0 -28 -20.5 -49t-49.5 -21z" />
    <glyph glyph-name="igrave" unicode="&#xec;" 
d="M293 -14q-34 0 -59 20.5t-25 61.5q0 16 4 32l74 309q2 10 -2.5 17.5t-15.5 7.5q-8 0 -15 -4l-117 -80l-40 59l118 80q32 21 67 21q34 0 59 -20.5t25 -61.5q0 -16 -4 -32l-74 -309q-3 -12 2.5 -19t14.5 -7q7 0 15 5l115 78l40 -59l-115 -78q-31 -21 -67 -21zM294 570
l-59 118h84l41 -118h-66z" />
    <glyph glyph-name="iacute" unicode="&#xed;" 
d="M293 -14q-34 0 -59 20.5t-25 61.5q0 16 4 32l74 309q2 10 -2.5 17.5t-15.5 7.5q-8 0 -15 -4l-117 -80l-40 59l118 80q32 21 67 21q34 0 59 -20.5t25 -61.5q0 -16 -4 -32l-74 -309q-3 -12 2.5 -19t14.5 -7q7 0 15 5l115 78l40 -59l-115 -78q-31 -21 -67 -21zM284 570
l91 118h92v-6l-103 -112h-80z" />
    <glyph glyph-name="icircumflex" unicode="&#xee;" 
d="M293 -14q-34 0 -59 20.5t-25 61.5q0 16 4 32l74 309q2 10 -2.5 17.5t-15.5 7.5q-8 0 -15 -4l-117 -80l-40 59l118 80q32 21 67 21q34 0 59 -20.5t25 -61.5q0 -16 -4 -32l-74 -309q-3 -12 2.5 -19t14.5 -7q7 0 15 5l115 78l40 -59l-115 -78q-31 -21 -67 -21zM178 570v6
l100 112h124l55 -118h-75l-39 88h-12l-68 -88h-85z" />
    <glyph glyph-name="idieresis" unicode="&#xef;" 
d="M293 -14q-34 0 -59 20.5t-25 61.5q0 16 4 32l74 309q2 10 -2.5 17.5t-15.5 7.5q-8 0 -15 -4l-117 -80l-40 59l118 80q32 21 67 21q34 0 59 -20.5t25 -61.5q0 -16 -4 -32l-74 -309q-3 -12 2.5 -19t14.5 -7q7 0 15 5l115 78l40 -59l-115 -78q-31 -21 -67 -21zM228 574
q-28 0 -49 21t-21 49q0 29 21 49.5t49 20.5q29 0 49.5 -20.5t20.5 -49.5q0 -28 -20.5 -49t-49.5 -21zM428 574q-28 0 -49 21t-21 49q0 29 21 49.5t49 20.5q29 0 49.5 -20.5t20.5 -49.5q0 -28 -20.5 -49t-49.5 -21z" />
    <glyph glyph-name="eth" unicode="&#xf0;" 
d="M227 -14q-58 0 -105 24.5t-74.5 72t-27.5 116.5q0 62 21.5 118t61 99.5t93.5 68.5t119 25q57 0 90 -22t46 -52h12q-4 51 -25.5 88.5t-56.5 61.5l-20 -39l-63 31l21 40q-42 15 -94 21l15 75q32 -4 60.5 -11t53.5 -17l19 36l62 -31l-19 -37q64 -42 96.5 -111t32.5 -167
q0 -72 -18.5 -141t-56.5 -125.5t-98.5 -90t-144.5 -33.5zM237 60q46 0 85 20t68 53.5t45.5 74t16.5 81.5q0 70 -37.5 108.5t-97.5 38.5q-62 0 -110.5 -34t-76.5 -87.5t-28 -114.5q0 -65 36.5 -102.5t98.5 -37.5z" />
    <glyph glyph-name="ntilde" unicode="&#xf1;" 
d="M443 -14q-29 0 -54 16t-25 57q0 13 4 32l45 207q3 14 4 23.5t1 19.5q0 48 -29 71.5t-79 23.5q-67 0 -110.5 -48.5t-59.5 -123.5l-56 -264h-78l106 496h78l-15 -72h12q25 45 65.5 65.5t85.5 20.5q43 0 79 -18t57.5 -53t21.5 -86q0 -24 -6 -53l-48 -222q-3 -16 12 -16
q6 0 11 4l42 31l42 -59l-39 -29q-30 -23 -67 -23zM409 551q-31 0 -47.5 14t-33.5 45q-7 12 -11.5 17t-12.5 5q-11 0 -22 -12l-46 -53l-49 42l41 49q14 17 33 29.5t46 12.5q29 0 46 -14.5t35 -46.5q5 -10 10 -15t14 -5q10 0 19 10l48 55l49 -42l-41 -49q-14 -17 -33 -29.5
t-45 -12.5z" />
    <glyph glyph-name="ograve" unicode="&#xf2;" 
d="M223 -14q-56 0 -102 25t-73.5 70.5t-27.5 106.5q0 72 24.5 131t67 102t98.5 66t119 23q58 0 103.5 -26t72 -72t26.5 -106q0 -61 -20.5 -118.5t-60 -103t-96.5 -72t-131 -26.5zM240 60q62 0 109.5 34.5t74.5 89.5t27 116q0 59 -37 97.5t-102 38.5q-57 0 -104.5 -33
t-76.5 -87.5t-29 -119.5q0 -60 36 -98t102 -38zM319 570l-59 118h84l41 -118h-66z" />
    <glyph glyph-name="oacute" unicode="&#xf3;" 
d="M223 -14q-56 0 -102 25t-73.5 70.5t-27.5 106.5q0 72 24.5 131t67 102t98.5 66t119 23q58 0 103.5 -26t72 -72t26.5 -106q0 -61 -20.5 -118.5t-60 -103t-96.5 -72t-131 -26.5zM240 60q62 0 109.5 34.5t74.5 89.5t27 116q0 59 -37 97.5t-102 38.5q-57 0 -104.5 -33
t-76.5 -87.5t-29 -119.5q0 -60 36 -98t102 -38zM292 570l91 118h92v-6l-103 -112h-80z" />
    <glyph glyph-name="ocircumflex" unicode="&#xf4;" 
d="M223 -14q-56 0 -102 25t-73.5 70.5t-27.5 106.5q0 72 24.5 131t67 102t98.5 66t119 23q58 0 103.5 -26t72 -72t26.5 -106q0 -61 -20.5 -118.5t-60 -103t-96.5 -72t-131 -26.5zM240 60q62 0 109.5 34.5t74.5 89.5t27 116q0 59 -37 97.5t-102 38.5q-57 0 -104.5 -33
t-76.5 -87.5t-29 -119.5q0 -60 36 -98t102 -38zM217 570v6l100 112h124l55 -118h-75l-39 88h-12l-68 -88h-85z" />
    <glyph glyph-name="otilde" unicode="&#xf5;" 
d="M223 -14q-56 0 -102 25t-73.5 70.5t-27.5 106.5q0 72 24.5 131t67 102t98.5 66t119 23q58 0 103.5 -26t72 -72t26.5 -106q0 -61 -20.5 -118.5t-60 -103t-96.5 -72t-131 -26.5zM240 60q62 0 109.5 34.5t74.5 89.5t27 116q0 59 -37 97.5t-102 38.5q-57 0 -104.5 -33
t-76.5 -87.5t-29 -119.5q0 -60 36 -98t102 -38zM438 551q-31 0 -47.5 14t-33.5 45q-7 12 -11.5 17t-12.5 5q-11 0 -22 -12l-46 -53l-49 42l41 49q14 17 33 29.5t46 12.5q29 0 46 -14.5t35 -46.5q5 -10 10 -15t14 -5q10 0 19 10l48 55l49 -42l-41 -49q-14 -17 -33 -29.5
t-45 -12.5z" />
    <glyph glyph-name="odieresis" unicode="&#xf6;" 
d="M223 -14q-56 0 -102 25t-73.5 70.5t-27.5 106.5q0 72 24.5 131t67 102t98.5 66t119 23q58 0 103.5 -26t72 -72t26.5 -106q0 -61 -20.5 -118.5t-60 -103t-96.5 -72t-131 -26.5zM240 60q62 0 109.5 34.5t74.5 89.5t27 116q0 59 -37 97.5t-102 38.5q-57 0 -104.5 -33
t-76.5 -87.5t-29 -119.5q0 -60 36 -98t102 -38zM252 574q-28 0 -49 21t-21 49q0 29 21 49.5t49 20.5q29 0 49.5 -20.5t20.5 -49.5q0 -28 -20.5 -49t-49.5 -21zM452 574q-28 0 -49 21t-21 49q0 29 21 49.5t49 20.5q29 0 49.5 -20.5t20.5 -49.5q0 -28 -20.5 -49t-49.5 -21z
" />
    <glyph glyph-name="divide" unicode="&#xf7;" 
d="M343 446q-28 0 -49 21t-21 49q0 29 21 49.5t49 20.5q29 0 49.5 -20.5t20.5 -49.5q0 -28 -20.5 -49t-49.5 -21zM97 314v72h418v-72h-418zM269 114q-28 0 -49 21t-21 49q0 29 21 49.5t49 20.5q29 0 49.5 -20.5t20.5 -49.5q0 -28 -20.5 -49t-49.5 -21z" />
    <glyph glyph-name="oslash" unicode="&#xf8;" 
d="M145 -68l-60 35l26 49q-41 25 -66 69.5t-25 102.5q0 72 24.5 131t67 102t98.5 66t119 23q12 0 23.5 -1.5t22.5 -3.5l29 53l60 -34l-24 -45q42 -25 66.5 -70t24.5 -103q0 -61 -20.5 -118.5t-60 -103t-96.5 -72t-131 -26.5q-12 0 -24 1.5t-23 3.5zM150 87l187 347
q-6 1 -12 1.5t-13 0.5q-57 0 -104.5 -33t-76.5 -87.5t-29 -119.5q0 -72 48 -109zM240 60q62 0 109.5 34.5t74.5 89.5t27 116q0 69 -50 108l-186 -347q6 -1 12 -1h13z" />
    <glyph glyph-name="ugrave" unicode="&#xf9;" 
d="M182 -14q-65 0 -106.5 38t-41.5 111q0 15 2 30.5t6 34.5l66 296h78l-64 -286q-7 -31 -7 -58q0 -92 99 -92q69 0 117.5 48.5t66.5 129.5l58 258h78l-91 -412q-2 -8 2 -13t11 -5t14 5l43 31l42 -58l-50 -38q-12 -10 -29.5 -15t-35.5 -5q-29 0 -53.5 17t-24.5 55q0 5 0.5 10
t1.5 10l1 6h-12q-27 -48 -69 -73t-102 -25zM295 570l-59 118h84l41 -118h-66z" />
    <glyph glyph-name="uacute" unicode="&#xfa;" 
d="M182 -14q-65 0 -106.5 38t-41.5 111q0 15 2 30.5t6 34.5l66 296h78l-64 -286q-7 -31 -7 -58q0 -92 99 -92q69 0 117.5 48.5t66.5 129.5l58 258h78l-91 -412q-2 -8 2 -13t11 -5t14 5l43 31l42 -58l-50 -38q-12 -10 -29.5 -15t-35.5 -5q-29 0 -53.5 17t-24.5 55q0 5 0.5 10
t1.5 10l1 6h-12q-27 -48 -69 -73t-102 -25zM295 570l91 118h92v-6l-103 -112h-80z" />
    <glyph glyph-name="ucircumflex" unicode="&#xfb;" 
d="M182 -14q-65 0 -106.5 38t-41.5 111q0 15 2 30.5t6 34.5l66 296h78l-64 -286q-7 -31 -7 -58q0 -92 99 -92q69 0 117.5 48.5t66.5 129.5l58 258h78l-91 -412q-2 -8 2 -13t11 -5t14 5l43 31l42 -58l-50 -38q-12 -10 -29.5 -15t-35.5 -5q-29 0 -53.5 17t-24.5 55q0 5 0.5 10
t1.5 10l1 6h-12q-27 -48 -69 -73t-102 -25zM187 570v6l100 112h124l55 -118h-75l-39 88h-12l-68 -88h-85z" />
    <glyph glyph-name="udieresis" unicode="&#xfc;" 
d="M182 -14q-65 0 -106.5 38t-41.5 111q0 15 2 30.5t6 34.5l66 296h78l-64 -286q-7 -31 -7 -58q0 -92 99 -92q69 0 117.5 48.5t66.5 129.5l58 258h78l-91 -412q-2 -8 2 -13t11 -5t14 5l43 31l42 -58l-50 -38q-12 -10 -29.5 -15t-35.5 -5q-29 0 -53.5 17t-24.5 55q0 5 0.5 10
t1.5 10l1 6h-12q-27 -48 -69 -73t-102 -25zM235 574q-28 0 -49 21t-21 49q0 29 21 49.5t49 20.5q29 0 49.5 -20.5t20.5 -49.5q0 -28 -20.5 -49t-49.5 -21zM435 574q-28 0 -49 21t-21 49q0 29 21 49.5t49 20.5q29 0 49.5 -20.5t20.5 -49.5q0 -28 -20.5 -49t-49.5 -21z" />
    <glyph glyph-name="yacute" unicode="&#xfd;" 
d="M103 -200v72h258q27 0 33 30l38 176h-12q-30 -45 -71.5 -68.5t-98.5 -23.5q-67 0 -107 40t-40 113q0 30 7 61l45 214q2 10 -2.5 15.5t-11.5 5.5q-6 0 -13 -5l-51 -35l-40 59l52 35q32 21 63 21q33 0 57 -22t24 -61q0 -6 -0.5 -11.5t-2.5 -14.5l-40 -191q-7 -31 -7 -58
q0 -92 99 -92q69 0 118 48.5t66 129.5l54 258h78l-131 -618q-7 -34 -33 -56t-60 -22h-271zM341 570l91 118h92v-6l-103 -112h-80z" />
    <glyph glyph-name="thorn" unicode="&#xfe;" 
d="M-54 -200l193 914h78l-63 -296h12q35 48 84.5 70t103.5 22q51 0 93 -23t67 -66.5t25 -104.5q0 -64 -18.5 -123t-55 -105.5t-92 -74t-129.5 -27.5q-48 0 -90.5 23.5t-59.5 66.5h-12l-59 -276h-77zM247 60q63 0 110 34t73 87t26 110q0 68 -37 106.5t-101 38.5
q-57 0 -103.5 -34t-74.5 -89t-28 -118q0 -65 38.5 -100t96.5 -35z" />
    <glyph glyph-name="ydieresis" unicode="&#xff;" 
d="M103 -200v72h258q27 0 33 30l38 176h-12q-30 -45 -71.5 -68.5t-98.5 -23.5q-67 0 -107 40t-40 113q0 30 7 61l45 214q2 10 -2.5 15.5t-11.5 5.5q-6 0 -13 -5l-51 -35l-40 59l52 35q32 21 63 21q33 0 57 -22t24 -61q0 -6 -0.5 -11.5t-2.5 -14.5l-40 -191q-7 -31 -7 -58
q0 -92 99 -92q69 0 118 48.5t66 129.5l54 258h78l-131 -618q-7 -34 -33 -56t-60 -22h-271zM290 574q-28 0 -49 21t-21 49q0 29 21 49.5t49 20.5q29 0 49.5 -20.5t20.5 -49.5q0 -28 -20.5 -49t-49.5 -21zM490 574q-28 0 -49 21t-21 49q0 29 21 49.5t49 20.5q29 0 49.5 -20.5
t20.5 -49.5q0 -28 -20.5 -49t-49.5 -21z" />
    <glyph glyph-name="Amacron" unicode="&#x100;" 
d="M-42 0l347 700h160l50 -700h-85l-11 174h-281l-85 -174h-95zM176 252h238l-26 411h-12zM247 774v66h282v-66h-282z" />
    <glyph glyph-name="amacron" unicode="&#x101;" 
d="M184 -14q-80 0 -126 55t-46 143q0 63 17.5 121.5t52.5 104.5t86 73t118 27q51 0 87.5 -23.5t46.5 -68.5h12l16 78h78l-88 -412q-2 -9 2 -13.5t11 -4.5t14 5l36 26l42 -59l-45 -34q-25 -18 -61 -18q-29 0 -54.5 16.5t-25.5 55.5q0 5 0.5 10t1.5 10h-12q-31 -52 -73.5 -72
t-89.5 -20zM208 60q54 0 98 31.5t70 86t26 121.5q0 62 -28 99.5t-87 37.5q-62 0 -105 -34t-65.5 -89.5t-22.5 -118.5q0 -134 114 -134zM165 570v66h282v-66h-282z" />
    <glyph glyph-name="Abreve" unicode="&#x102;" 
d="M-42 0l347 700h160l50 -700h-85l-11 174h-281l-85 -174h-95zM176 252h238l-26 411h-12zM399 774q-49 0 -75 30.5t-17 73.5l3 14h68l-3 -11q-5 -19 4.5 -30.5t29.5 -11.5q22 0 32 12.5t14 28.5l3 12h70l-3 -14q-11 -51 -41.5 -77.5t-84.5 -26.5z" />
    <glyph glyph-name="abreve" unicode="&#x103;" 
d="M184 -14q-80 0 -126 55t-46 143q0 63 17.5 121.5t52.5 104.5t86 73t118 27q51 0 87.5 -23.5t46.5 -68.5h12l16 78h78l-88 -412q-2 -9 2 -13.5t11 -4.5t14 5l36 26l42 -59l-45 -34q-25 -18 -61 -18q-29 0 -54.5 16.5t-25.5 55.5q0 5 0.5 10t1.5 10h-12q-31 -52 -73.5 -72
t-89.5 -20zM208 60q54 0 98 31.5t70 86t26 121.5q0 62 -28 99.5t-87 37.5q-62 0 -105 -34t-65.5 -89.5t-22.5 -118.5q0 -134 114 -134zM314 570q-49 0 -75 30.5t-17 73.5l3 14h68l-3 -11q-5 -19 4.5 -30.5t29.5 -11.5q22 0 32 12.5t14 28.5l3 12h70l-3 -14
q-11 -51 -41.5 -77.5t-84.5 -26.5z" />
    <glyph glyph-name="Aogonek" unicode="&#x104;" 
d="M456 -164q-25 0 -43.5 16.5t-18.5 44.5q0 8 2 17.5t6 19.5l28 66l-11 174h-281l-85 -174h-95l347 700h160l50 -700h-17l-30 -68q-3 -7 -3 -13q0 -17 19 -17h42v-66h-70zM176 252h238l-26 411h-12z" />
    <glyph glyph-name="aogonek" unicode="&#x105;" 
d="M390 -164q-33 0 -53.5 22t-20.5 50q0 18 10 37t31 34l29 21q-13 8 -21 22.5t-8 35.5q0 5 0.5 10t1.5 10h-12q-31 -52 -73.5 -72t-89.5 -20q-80 0 -126 55t-46 143q0 63 17.5 121.5t52.5 104.5t86 73t118 27q51 0 87.5 -23.5t46.5 -68.5h12l16 78h78l-88 -412
q-2 -9 2 -13.5t11 -4.5t14 5l36 26l42 -59l-141 -105q-11 -8 -11 -17q0 -14 16 -14h87v-66h-104zM208 60q54 0 98 31.5t70 86t26 121.5q0 62 -28 99.5t-87 37.5q-62 0 -105 -34t-65.5 -89.5t-22.5 -118.5q0 -134 114 -134z" />
    <glyph glyph-name="Cacute" unicode="&#x106;" 
d="M238 -14q-97 0 -148.5 53.5t-51.5 138.5q0 21 2.5 45t7.5 49l33 156q30 141 105 213.5t196 72.5q96 0 148.5 -52.5t52.5 -133.5q0 -32 -9 -68l-3 -12h-84l3 12q5 19 6.5 33.5t1.5 28.5q0 53 -30.5 84.5t-98.5 31.5q-79 0 -132 -60t-73 -156l-31 -144q-4 -22 -7 -42.5
t-3 -38.5q0 -67 30.5 -100t94.5 -33q87 0 131.5 49t63.5 127l3 12h84l-3 -12q-20 -80 -54 -137t-90.5 -87t-144.5 -30zM352 774l91 118h92v-6l-103 -112h-80z" />
    <glyph glyph-name="cacute" unicode="&#x107;" 
d="M234 -14q-94 0 -151 56t-57 150q0 87 39 159.5t109.5 115.5t165.5 43q61 0 106 -22.5t69.5 -62.5t24.5 -92v-4t-1 -11l-80 -12q1 6 1 9v7q0 47 -31.5 80.5t-102.5 33.5q-62 0 -111.5 -32.5t-78 -86.5t-28.5 -117q0 -70 38.5 -105t103.5 -35q53 0 91 19.5t61.5 50
t33.5 64.5l74 -24q-17 -51 -53 -92.5t-91.5 -66.5t-131.5 -25zM304 570l91 118h92v-6l-103 -112h-80z" />
    <glyph glyph-name="Ccircumflex" unicode="&#x108;" 
d="M238 -14q-97 0 -148.5 53.5t-51.5 138.5q0 21 2.5 45t7.5 49l33 156q30 141 105 213.5t196 72.5q96 0 148.5 -52.5t52.5 -133.5q0 -32 -9 -68l-3 -12h-84l3 12q5 19 6.5 33.5t1.5 28.5q0 53 -30.5 84.5t-98.5 31.5q-79 0 -132 -60t-73 -156l-31 -144q-4 -22 -7 -42.5
t-3 -38.5q0 -67 30.5 -100t94.5 -33q87 0 131.5 49t63.5 127l3 12h84l-3 -12q-20 -80 -54 -137t-90.5 -87t-144.5 -30zM262 774v6l100 112h124l55 -118h-75l-39 88h-12l-68 -88h-85z" />
    <glyph glyph-name="ccircumflex" unicode="&#x109;" 
d="M234 -14q-94 0 -151 56t-57 150q0 87 39 159.5t109.5 115.5t165.5 43q61 0 106 -22.5t69.5 -62.5t24.5 -92v-4t-1 -11l-80 -12q1 6 1 9v7q0 47 -31.5 80.5t-102.5 33.5q-62 0 -111.5 -32.5t-78 -86.5t-28.5 -117q0 -70 38.5 -105t103.5 -35q53 0 91 19.5t61.5 50
t33.5 64.5l74 -24q-17 -51 -53 -92.5t-91.5 -66.5t-131.5 -25zM216 570v6l100 112h124l55 -118h-75l-39 88h-12l-68 -88h-85z" />
    <glyph glyph-name="Cdotaccent" unicode="&#x10a;" 
d="M238 -14q-97 0 -148.5 53.5t-51.5 138.5q0 21 2.5 45t7.5 49l33 156q30 141 105 213.5t196 72.5q96 0 148.5 -52.5t52.5 -133.5q0 -32 -9 -68l-3 -12h-84l3 12q5 19 6.5 33.5t1.5 28.5q0 53 -30.5 84.5t-98.5 31.5q-79 0 -132 -60t-73 -156l-31 -144q-4 -22 -7 -42.5
t-3 -38.5q0 -67 30.5 -100t94.5 -33q87 0 131.5 49t63.5 127l3 12h84l-3 -12q-20 -80 -54 -137t-90.5 -87t-144.5 -30zM406 778q-28 0 -49 21t-21 49q0 29 21 49.5t49 20.5q29 0 49.5 -20.5t20.5 -49.5q0 -28 -20.5 -49t-49.5 -21z" />
    <glyph glyph-name="cdotaccent" unicode="&#x10b;" 
d="M234 -14q-94 0 -151 56t-57 150q0 87 39 159.5t109.5 115.5t165.5 43q61 0 106 -22.5t69.5 -62.5t24.5 -92v-4t-1 -11l-80 -12q1 6 1 9v7q0 47 -31.5 80.5t-102.5 33.5q-62 0 -111.5 -32.5t-78 -86.5t-28.5 -117q0 -70 38.5 -105t103.5 -35q53 0 91 19.5t61.5 50
t33.5 64.5l74 -24q-17 -51 -53 -92.5t-91.5 -66.5t-131.5 -25zM340 574q-28 0 -49 21t-21 49q0 29 21 49.5t49 20.5q29 0 49.5 -20.5t20.5 -49.5q0 -28 -20.5 -49t-49.5 -21z" />
    <glyph glyph-name="Ccaron" unicode="&#x10c;" 
d="M238 -14q-97 0 -148.5 53.5t-51.5 138.5q0 21 2.5 45t7.5 49l33 156q30 141 105 213.5t196 72.5q96 0 148.5 -52.5t52.5 -133.5q0 -32 -9 -68l-3 -12h-84l3 12q5 19 6.5 33.5t1.5 28.5q0 53 -30.5 84.5t-98.5 31.5q-79 0 -132 -60t-73 -156l-31 -144q-4 -22 -7 -42.5
t-3 -38.5q0 -67 30.5 -100t94.5 -33q87 0 131.5 49t63.5 127l3 12h84l-3 -12q-20 -80 -54 -137t-90.5 -87t-144.5 -30zM332 774l-55 118h81l34 -88h12l69 88h83v-6l-100 -112h-124z" />
    <glyph glyph-name="ccaron" unicode="&#x10d;" 
d="M234 -14q-94 0 -151 56t-57 150q0 87 39 159.5t109.5 115.5t165.5 43q61 0 106 -22.5t69.5 -62.5t24.5 -92v-4t-1 -11l-80 -12q1 6 1 9v7q0 47 -31.5 80.5t-102.5 33.5q-62 0 -111.5 -32.5t-78 -86.5t-28.5 -117q0 -70 38.5 -105t103.5 -35q53 0 91 19.5t61.5 50
t33.5 64.5l74 -24q-17 -51 -53 -92.5t-91.5 -66.5t-131.5 -25zM292 570l-55 118h81l34 -88h12l69 88h83v-6l-100 -112h-124z" />
    <glyph glyph-name="Dcaron" unicode="&#x10e;" 
d="M0 0v78h66l115 544h-66v78h243q106 0 160 -48t54 -137q0 -19 -2.5 -39t-7.5 -42l-38 -174q-20 -95 -53 -152t-91 -82.5t-153 -25.5h-227zM150 78h76q62 0 104.5 16.5t69.5 57.5t42 114l35 168q5 26 7 43t2 33q0 64 -36 88t-109 24h-76zM301 774l-55 118h81l34 -88h12
l69 88h83v-6l-100 -112h-124z" />
    <glyph glyph-name="dcaron" unicode="&#x10f;" 
d="M143 -14q-67 0 -109 44.5t-42 141.5q0 54 15 113t46 110t79 83t113 32q45 0 70.5 -19.5t33.5 -48.5h12l57 272h78l-133 -630q-3 -18 13 -18q6 0 13 5l36 26l43 -59l-45 -34q-25 -18 -61 -18q-30 0 -55 16.5t-25 55.5v6h-12q-16 -35 -50.5 -56.5t-76.5 -21.5zM492 454v54
h59q28 0 34 30l5 22h-4q-28 0 -49 21t-21 49q0 29 21 49.5t49 20.5q29 0 49.5 -20.5t20.5 -49.5v-5t-1 -7l-18 -86q-16 -78 -93 -78h-52zM166 60q44 0 75 26t51 66t29 83.5t9 77.5q0 123 -89 123q-45 0 -77 -25t-52 -64.5t-29.5 -83.5t-9.5 -82q0 -60 24.5 -90.5t68.5 -30.5
z" />
    <glyph glyph-name="Dcroat" unicode="&#x110;" 
d="M0 0v78h66l49 233h-60v78h77l49 233h-66v78h243q106 0 160 -48t54 -137q0 -19 -2.5 -39t-7.5 -42l-38 -174q-20 -95 -53 -152t-91 -82.5t-153 -25.5h-227zM150 78h76q62 0 104.5 16.5t69.5 57.5t42 114l35 168q5 26 7 43t2 33q0 64 -36 88t-109 24h-76l-49 -233h91v-78
h-108z" />
    <glyph glyph-name="dcroat" unicode="&#x111;" 
d="M182 -14q-80 0 -129 54t-49 142q0 62 19 120.5t55 105.5t89 74.5t120 27.5q53 0 88.5 -22t48.5 -70h12l30 144h-161v72h176l17 80h78l-17 -80h60v-72h-76l-101 -478q-3 -18 13 -18q6 0 13 5l36 26l43 -59l-45 -34q-25 -18 -61 -18q-29 0 -54.5 16.5t-25.5 55.5
q0 5 0.5 10.5t1.5 9.5h-12q-31 -52 -75.5 -72t-93.5 -20zM206 60q54 0 99.5 31.5t73 86t27.5 121.5q0 62 -31 99.5t-90 37.5q-62 0 -106.5 -34.5t-68.5 -90t-24 -118.5q0 -133 120 -133z" />
    <glyph glyph-name="Emacron" unicode="&#x112;" 
d="M28 0l149 700h395v-78h-328l-49 -232h305v-78h-322l-49 -234h317v-78h-418zM244 774v66h282v-66h-282z" />
    <glyph glyph-name="emacron" unicode="&#x113;" 
d="M236 -14q-59 0 -105.5 23.5t-72.5 68.5t-26 107q0 63 20 121t58.5 104t94 73t126.5 27q67 0 110.5 -26.5t64.5 -69.5t21 -91q0 -26 -6 -52l-11 -47h-398q-1 -8 -2.5 -18t-1.5 -21q0 -55 32 -90.5t102 -35.5q71 0 110.5 30.5t58.5 72.5l64 -36q-19 -39 -50 -71t-77 -50.5
t-112 -18.5zM129 296h318q3 17 3 30q0 54 -37 82t-92 28q-70 0 -121 -40t-71 -100zM196 570v66h282v-66h-282z" />
    <glyph glyph-name="Ebreve" unicode="&#x114;" 
d="M28 0l149 700h395v-78h-328l-49 -232h305v-78h-322l-49 -234h317v-78h-418zM383 774q-49 0 -75 30.5t-17 73.5l3 14h68l-3 -11q-5 -19 4.5 -30.5t29.5 -11.5q22 0 32 12.5t14 28.5l3 12h70l-3 -14q-11 -51 -41.5 -77.5t-84.5 -26.5z" />
    <glyph glyph-name="ebreve" unicode="&#x115;" 
d="M236 -14q-59 0 -105.5 23.5t-72.5 68.5t-26 107q0 63 20 121t58.5 104t94 73t126.5 27q67 0 110.5 -26.5t64.5 -69.5t21 -91q0 -26 -6 -52l-11 -47h-398q-1 -8 -2.5 -18t-1.5 -21q0 -55 32 -90.5t102 -35.5q71 0 110.5 30.5t58.5 72.5l64 -36q-19 -39 -50 -71t-77 -50.5
t-112 -18.5zM129 296h318q3 17 3 30q0 54 -37 82t-92 28q-70 0 -121 -40t-71 -100zM359 570q-49 0 -75 30.5t-17 73.5l3 14h68l-3 -11q-5 -19 4.5 -30.5t29.5 -11.5q22 0 32 12.5t14 28.5l3 12h70l-3 -14q-11 -51 -41.5 -77.5t-84.5 -26.5z" />
    <glyph glyph-name="Edotaccent" unicode="&#x116;" 
d="M28 0l149 700h395v-78h-328l-49 -232h305v-78h-322l-49 -234h317v-78h-418zM388 778q-28 0 -49 21t-21 49q0 29 21 49.5t49 20.5q29 0 49.5 -20.5t20.5 -49.5q0 -28 -20.5 -49t-49.5 -21z" />
    <glyph glyph-name="edotaccent" unicode="&#x117;" 
d="M236 -14q-59 0 -105.5 23.5t-72.5 68.5t-26 107q0 63 20 121t58.5 104t94 73t126.5 27q67 0 110.5 -26.5t64.5 -69.5t21 -91q0 -26 -6 -52l-11 -47h-398q-1 -8 -2.5 -18t-1.5 -21q0 -55 32 -90.5t102 -35.5q71 0 110.5 30.5t58.5 72.5l64 -36q-19 -39 -50 -71t-77 -50.5
t-112 -18.5zM129 296h318q3 17 3 30q0 54 -37 82t-92 28q-70 0 -121 -40t-71 -100zM363 574q-28 0 -49 21t-21 49q0 29 21 49.5t49 20.5q29 0 49.5 -20.5t20.5 -49.5q0 -28 -20.5 -49t-49.5 -21z" />
    <glyph glyph-name="Eogonek" unicode="&#x118;" 
d="M403 -164q-25 0 -43.5 16.5t-18.5 44.5q0 8 2 17.5t6 19.5l28 66h-349l149 700h395v-78h-328l-49 -232h305v-78h-322l-49 -234h317v-78l-31 -68q-3 -7 -3 -13q0 -17 19 -17h42v-66h-70z" />
    <glyph glyph-name="eogonek" unicode="&#x119;" 
d="M233 -164q-25 0 -42 14t-22 35.5t4.5 45.5t36.5 44l15 11q-55 2 -98.5 26t-69 68t-25.5 105q0 63 20 121t58.5 104t94 73t126.5 27q67 0 110.5 -26.5t64.5 -69.5t21 -91q0 -26 -6 -52l-11 -47h-398q-1 -8 -2.5 -18t-1.5 -21q0 -55 32 -90.5t102 -35.5q71 0 110.5 30.5
t58.5 72.5l64 -36q-17 -35 -36 -57t-57 -47l-135 -89q-14 -10 -9.5 -20.5t15.5 -10.5h87v-66h-107zM129 296h318q3 17 3 30q0 54 -37 82t-92 28q-70 0 -121 -40t-71 -100z" />
    <glyph glyph-name="Ecaron" unicode="&#x11a;" 
d="M28 0l149 700h395v-78h-328l-49 -232h305v-78h-322l-49 -234h317v-78h-418zM322 774l-55 118h81l34 -88h12l69 88h83v-6l-100 -112h-124z" />
    <glyph glyph-name="ecaron" unicode="&#x11b;" 
d="M236 -14q-59 0 -105.5 23.5t-72.5 68.5t-26 107q0 63 20 121t58.5 104t94 73t126.5 27q67 0 110.5 -26.5t64.5 -69.5t21 -91q0 -26 -6 -52l-11 -47h-398q-1 -8 -2.5 -18t-1.5 -21q0 -55 32 -90.5t102 -35.5q71 0 110.5 30.5t58.5 72.5l64 -36q-19 -39 -50 -71t-77 -50.5
t-112 -18.5zM129 296h318q3 17 3 30q0 54 -37 82t-92 28q-70 0 -121 -40t-71 -100zM285 570l-55 118h81l34 -88h12l69 88h83v-6l-100 -112h-124z" />
    <glyph glyph-name="Gcircumflex" unicode="&#x11c;" 
d="M223 -14q-84 0 -137.5 50t-53.5 147q0 20 2 41t8 48l33 156q29 140 106.5 213t198.5 73q64 0 109 -25t68.5 -69t23.5 -100q0 -32 -7 -60l-3 -12h-84l3 12q7 28 7 56q0 53 -31.5 87.5t-99.5 34.5q-81 0 -134.5 -60t-73.5 -156l-31 -144q-9 -45 -9 -80q0 -65 31.5 -100.5
t95.5 -35.5q76 0 127.5 47.5t70.5 124.5l6 24h-207v78h306l-72 -336h-80l20 84h-12q-25 -43 -72.5 -70.5t-108.5 -27.5zM259 774v6l100 112h124l55 -118h-75l-39 88h-12l-68 -88h-85z" />
    <glyph glyph-name="gcircumflex" unicode="&#x11d;" 
d="M36 -200v72h289q28 0 34 30l36 168h-12q-29 -42 -72.5 -63t-95.5 -21q-57 0 -100 25t-67 70t-24 105q0 92 36 165.5t100 116t148 42.5q59 0 97.5 -25.5t50.5 -66.5h12l17 78h78l-131 -618q-7 -34 -33.5 -56t-60.5 -22h-302zM232 60q46 0 84 20.5t65.5 54.5t42.5 76.5
t15 86.5q0 62 -35 100t-94 38q-63 0 -109 -34t-71 -89.5t-25 -118.5q0 -61 33 -97.5t94 -36.5zM194 570v6l100 112h124l55 -118h-75l-39 88h-12l-68 -88h-85z" />
    <glyph glyph-name="Gbreve" unicode="&#x11e;" 
d="M223 -14q-84 0 -137.5 50t-53.5 147q0 20 2 41t8 48l33 156q29 140 106.5 213t198.5 73q64 0 109 -25t68.5 -69t23.5 -100q0 -32 -7 -60l-3 -12h-84l3 12q7 28 7 56q0 53 -31.5 87.5t-99.5 34.5q-81 0 -134.5 -60t-73.5 -156l-31 -144q-9 -45 -9 -80q0 -65 31.5 -100.5
t95.5 -35.5q76 0 127.5 47.5t70.5 124.5l6 24h-207v78h306l-72 -336h-80l20 84h-12q-25 -43 -72.5 -70.5t-108.5 -27.5zM392 774q-49 0 -75 30.5t-17 73.5l3 14h68l-3 -11q-5 -19 4.5 -30.5t29.5 -11.5q22 0 32 12.5t14 28.5l3 12h70l-3 -14q-11 -51 -41.5 -77.5
t-84.5 -26.5z" />
    <glyph glyph-name="gbreve" unicode="&#x11f;" 
d="M36 -200v72h289q28 0 34 30l36 168h-12q-29 -42 -72.5 -63t-95.5 -21q-57 0 -100 25t-67 70t-24 105q0 92 36 165.5t100 116t148 42.5q59 0 97.5 -25.5t50.5 -66.5h12l17 78h78l-131 -618q-7 -34 -33.5 -56t-60.5 -22h-302zM232 60q46 0 84 20.5t65.5 54.5t42.5 76.5
t15 86.5q0 62 -35 100t-94 38q-63 0 -109 -34t-71 -89.5t-25 -118.5q0 -61 33 -97.5t94 -36.5zM336 570q-49 0 -75 30.5t-17 73.5l3 14h68l-3 -11q-5 -19 4.5 -30.5t29.5 -11.5q22 0 32 12.5t14 28.5l3 12h70l-3 -14q-11 -51 -41.5 -77.5t-84.5 -26.5z" />
    <glyph glyph-name="Gdotaccent" unicode="&#x120;" 
d="M223 -14q-84 0 -137.5 50t-53.5 147q0 20 2 41t8 48l33 156q29 140 106.5 213t198.5 73q64 0 109 -25t68.5 -69t23.5 -100q0 -32 -7 -60l-3 -12h-84l3 12q7 28 7 56q0 53 -31.5 87.5t-99.5 34.5q-81 0 -134.5 -60t-73.5 -156l-31 -144q-9 -45 -9 -80q0 -65 31.5 -100.5
t95.5 -35.5q76 0 127.5 47.5t70.5 124.5l6 24h-207v78h306l-72 -336h-80l20 84h-12q-25 -43 -72.5 -70.5t-108.5 -27.5zM380 778q-28 0 -49 21t-21 49q0 29 21 49.5t49 20.5q29 0 49.5 -20.5t20.5 -49.5q0 -28 -20.5 -49t-49.5 -21z" />
    <glyph glyph-name="gdotaccent" unicode="&#x121;" 
d="M36 -200v72h289q28 0 34 30l36 168h-12q-29 -42 -72.5 -63t-95.5 -21q-57 0 -100 25t-67 70t-24 105q0 92 36 165.5t100 116t148 42.5q59 0 97.5 -25.5t50.5 -66.5h12l17 78h78l-131 -618q-7 -34 -33.5 -56t-60.5 -22h-302zM232 60q46 0 84 20.5t65.5 54.5t42.5 76.5
t15 86.5q0 62 -35 100t-94 38q-63 0 -109 -34t-71 -89.5t-25 -118.5q0 -61 33 -97.5t94 -36.5zM346 574q-28 0 -49 21t-21 49q0 29 21 49.5t49 20.5q29 0 49.5 -20.5t20.5 -49.5q0 -28 -20.5 -49t-49.5 -21z" />
    <glyph glyph-name="uni0122" unicode="&#x122;" 
d="M223 -14q-84 0 -137.5 50t-53.5 147q0 20 2 41t8 48l33 156q29 140 106.5 213t198.5 73q64 0 109 -25t68.5 -69t23.5 -100q0 -32 -7 -60l-3 -12h-84l3 12q7 28 7 56q0 53 -31.5 87.5t-99.5 34.5q-81 0 -134.5 -60t-73.5 -156l-31 -144q-9 -45 -9 -80q0 -65 31.5 -100.5
t95.5 -35.5q76 0 127.5 47.5t70.5 124.5l6 24h-207v78h306l-72 -336h-80l20 84h-12q-25 -43 -72.5 -70.5t-108.5 -27.5zM109 -290v54h59q28 0 34 30l5 22h-4q-28 0 -49 21t-21 49q0 29 21 49.5t49 20.5q29 0 49.5 -20.5t20.5 -49.5v-5t-1 -7l-18 -86q-16 -78 -93 -78h-52z
" />
    <glyph glyph-name="uni0123" unicode="&#x123;" 
d="M36 -200v72h289q28 0 34 30l36 168h-12q-29 -42 -72.5 -63t-95.5 -21q-57 0 -100 25t-67 70t-24 105q0 92 36 165.5t100 116t148 42.5q59 0 97.5 -25.5t50.5 -66.5h12l17 78h78l-131 -618q-7 -34 -33.5 -56t-60.5 -22h-302zM232 60q46 0 84 20.5t65.5 54.5t42.5 76.5
t15 86.5q0 62 -35 100t-94 38q-63 0 -109 -34t-71 -89.5t-25 -118.5q0 -61 33 -97.5t94 -36.5zM340 574q-28 0 -49 21t-21 49v5t1 7l18 86q16 78 93 78h52v-54h-59q-28 0 -34 -30l-5 -22h4q29 0 49.5 -20.5t20.5 -49.5q0 -28 -20.5 -49t-49.5 -21z" />
    <glyph glyph-name="Hcircumflex" unicode="&#x124;" 
d="M8 0l148 700h86l-66 -310h276l66 310h86l-149 -700h-86l66 312h-276l-66 -312h-85zM242 774v6l100 112h124l55 -118h-75l-39 88h-12l-68 -88h-85z" />
    <glyph glyph-name="hcircumflex" unicode="&#x125;" 
d="M457 -14q-31 0 -54.5 18t-23.5 56q0 11 3 26l46 208q3 14 4.5 25t1.5 21q0 52 -30.5 74t-75.5 22q-67 0 -112 -48.5t-62 -129.5l-55 -258h-77l152 714h75l-60 -292h12q25 47 65.5 67.5t89.5 20.5q66 0 109.5 -41.5t43.5 -116.5q0 -15 -1.5 -31t-5.5 -33l-44 -209
q-3 -15 13 -15q6 0 12 5l39 28l42 -59l-46 -33q-27 -19 -61 -19zM187 774v6l100 112h124l55 -118h-75l-39 88h-12l-68 -88h-85z" />
    <glyph glyph-name="Hbar" unicode="&#x126;" 
d="M8 0l105 496h-59v78h75l27 126h86l-27 -126h276l27 126h86l-27 -126h53v-78h-70l-105 -496h-86l66 312h-276l-66 -312h-85zM176 390h276l22 106h-276z" />
    <glyph glyph-name="hbar" unicode="&#x127;" 
d="M457 -14q-31 0 -54.5 18t-23.5 56q0 11 3 26l46 208q3 14 4.5 25t1.5 21q0 52 -30.5 74t-75.5 22q-67 0 -112 -48.5t-62 -129.5l-55 -258h-77l119 562h-52v72h68l14 66h75l-14 -66h173v-72h-188l-28 -140h12q25 47 65.5 67.5t89.5 20.5q66 0 109.5 -41.5t43.5 -116.5
q0 -15 -1.5 -31t-5.5 -33l-44 -209q-3 -15 13 -15q6 0 12 5l39 28l42 -59l-46 -33q-27 -19 -61 -19z" />
    <glyph glyph-name="Itilde" unicode="&#x128;" 
d="M32 0v78h174l115 544h-174v78h432v-78h-174l-115 -544h174v-78h-432zM444 758q-31 0 -47.5 14t-33.5 45q-7 12 -11.5 17t-12.5 5q-11 0 -22 -12l-46 -53l-49 42l41 49q14 17 33 29.5t46 12.5q29 0 46 -14.5t35 -46.5q5 -10 10 -15t14 -5q10 0 19 10l48 55l49 -42l-41 -49
q-14 -17 -33 -29.5t-45 -12.5z" />
    <glyph glyph-name="itilde" unicode="&#x129;" 
d="M293 -14q-34 0 -59 20.5t-25 61.5q0 16 4 32l74 309q2 10 -2.5 17.5t-15.5 7.5q-8 0 -15 -4l-117 -80l-40 59l118 80q32 21 67 21q34 0 59 -20.5t25 -61.5q0 -16 -4 -32l-74 -309q-3 -12 2.5 -19t14.5 -7q7 0 15 5l115 78l40 -59l-115 -78q-31 -21 -67 -21zM388 551
q-31 0 -47.5 14t-33.5 45q-7 12 -11.5 17t-12.5 5q-11 0 -22 -12l-46 -53l-49 42l41 49q14 17 33 29.5t46 12.5q29 0 46 -14.5t35 -46.5q5 -10 10 -15t14 -5q10 0 19 10l48 55l49 -42l-41 -49q-14 -17 -33 -29.5t-45 -12.5z" />
    <glyph glyph-name="Imacron" unicode="&#x12a;" 
d="M32 0v78h174l115 544h-174v78h432v-78h-174l-115 -544h174v-78h-432zM228 774v66h282v-66h-282z" />
    <glyph glyph-name="imacron" unicode="&#x12b;" 
d="M293 -14q-34 0 -59 20.5t-25 61.5q0 16 4 32l74 309q2 10 -2.5 17.5t-15.5 7.5q-8 0 -15 -4l-117 -80l-40 59l118 80q32 21 67 21q34 0 59 -20.5t25 -61.5q0 -16 -4 -32l-74 -309q-3 -12 2.5 -19t14.5 -7q7 0 15 5l115 78l40 -59l-115 -78q-31 -21 -67 -21zM165 570v66
h282v-66h-282z" />
    <glyph glyph-name="Ibreve" unicode="&#x12c;" 
d="M32 0v78h174l115 544h-174v78h432v-78h-174l-115 -544h174v-78h-432zM390 774q-49 0 -75 30.5t-17 73.5l3 14h68l-3 -11q-5 -19 4.5 -30.5t29.5 -11.5q22 0 32 12.5t14 28.5l3 12h70l-3 -14q-11 -51 -41.5 -77.5t-84.5 -26.5z" />
    <glyph glyph-name="ibreve" unicode="&#x12d;" 
d="M293 -14q-34 0 -59 20.5t-25 61.5q0 16 4 32l74 309q2 10 -2.5 17.5t-15.5 7.5q-8 0 -15 -4l-117 -80l-40 59l118 80q32 21 67 21q34 0 59 -20.5t25 -61.5q0 -16 -4 -32l-74 -309q-3 -12 2.5 -19t14.5 -7q7 0 15 5l115 78l40 -59l-115 -78q-31 -21 -67 -21zM336 570
q-49 0 -75 30.5t-17 73.5l3 14h68l-3 -11q-5 -19 4.5 -30.5t29.5 -11.5q22 0 32 12.5t14 28.5l3 12h70l-3 -14q-11 -51 -41.5 -77.5t-84.5 -26.5z" />
    <glyph glyph-name="Iogonek" unicode="&#x12e;" 
d="M421 -164q-25 0 -43.5 16.5t-18.5 44.5q0 8 2 17.5t6 19.5l28 66h-363v78h174l115 544h-174v78h432v-78h-174l-115 -544h174v-78l-31 -68q-3 -7 -3 -13q0 -17 19 -17h42v-66h-70z" />
    <glyph glyph-name="iogonek" unicode="&#x12f;" 
d="M373 574q-28 0 -49 21t-21 49q0 29 21 49.5t49 20.5q29 0 49.5 -20.5t20.5 -49.5q0 -28 -20.5 -49t-49.5 -21zM237 -164q-30 0 -48 19.5t-18 45.5q0 19 10.5 38.5t32.5 35.5l32 24q-16 9 -26.5 26.5t-10.5 42.5q0 16 4 32l74 309q2 10 -2.5 17.5t-15.5 7.5q-8 0 -15 -4
l-117 -80l-40 59l118 80q32 21 67 21q34 0 59 -20.5t25 -61.5q0 -16 -4 -32l-74 -309q-3 -12 2.5 -19t14.5 -7q7 0 15 5l115 78l40 -59l-224 -152q-10 -7 -10 -16q0 -15 16 -15h87v-66h-107z" />
    <glyph glyph-name="Idotaccent" unicode="&#x130;" 
d="M32 0v78h174l115 544h-174v78h432v-78h-174l-115 -544h174v-78h-432zM372 778q-28 0 -49 21t-21 49q0 29 21 49.5t49 20.5q29 0 49.5 -20.5t20.5 -49.5q0 -28 -20.5 -49t-49.5 -21z" />
    <glyph glyph-name="dotlessi" unicode="&#x131;" 
d="M293 -14q-34 0 -59 20.5t-25 61.5q0 16 4 32l74 309q2 10 -2.5 17.5t-15.5 7.5q-8 0 -15 -4l-117 -80l-40 59l118 80q32 21 67 21q34 0 59 -20.5t25 -61.5q0 -16 -4 -32l-74 -309q-3 -12 2.5 -19t14.5 -7q7 0 15 5l115 78l40 -59l-115 -78q-31 -21 -67 -21z" />
    <glyph glyph-name="IJ" unicode="&#x132;" 
d="M224 -14q-87 0 -136.5 46.5t-49.5 122.5q0 27 6 55l12 54h84l-12 -54q-6 -27 -6 -50q0 -96 113 -96q70 0 107 41t50 105l88 412h-78v78h228v-78h-66l-89 -416q-22 -103 -80 -161.5t-171 -58.5zM73 342l76 358h84l-76 -358h-84z" />
    <glyph glyph-name="ij" unicode="&#x133;" 
d="M208 574q-28 0 -49 21t-21 49q0 29 21 49.5t49 20.5q29 0 49.5 -20.5t20.5 -49.5q0 -28 -20.5 -49t-49.5 -21zM553 574q-28 0 -49 21t-21 49q0 29 21 49.5t49 20.5q29 0 49.5 -20.5t20.5 -49.5q0 -28 -20.5 -49t-49.5 -21zM134 -200v72h195q27 0 33 30l38 176h-12
q-30 -45 -71.5 -68.5t-98.5 -23.5q-67 0 -107 40t-40 113q0 27 7 61l45 214q2 10 -2 15.5t-12 5.5q-7 0 -13 -5l-51 -35l-40 59l52 35q32 21 63 21q33 0 57 -22.5t24 -60.5q0 -11 -3 -26l-40 -191q-7 -31 -7 -58q0 -92 99 -92q69 0 118 48.5t66 129.5l54 258h78l-131 -618
q-7 -34 -33 -56t-60 -22h-208z" />
    <glyph glyph-name="Jcircumflex" unicode="&#x134;" 
d="M216 -14q-87 0 -136.5 46.5t-49.5 122.5q0 27 6 55l12 54h84l-12 -54q-6 -27 -6 -50q0 -96 113 -96q70 0 107 41t50 105l88 412h-78v78h228v-78h-66l-89 -416q-22 -103 -80 -161.5t-171 -58.5zM387 774v6l100 112h124l55 -118h-75l-39 88h-12l-68 -88h-85z" />
    <glyph glyph-name="jcircumflex" unicode="&#x135;" 
d="M241 570v6l100 112h124l55 -118h-75l-39 88h-12l-68 -88h-85zM0 -200v72h210q27 0 33 30l109 510q2 11 -3 16.5t-12 5.5q-6 0 -12 -4l-117 -80l-40 59l118 80q32 21 63 21q33 0 57 -22.5t24 -60.5q0 -11 -3 -26l-111 -523q-7 -34 -33 -56t-60 -22h-223z" />
    <glyph glyph-name="uni0136" unicode="&#x136;" 
d="M5 0l149 700h86l-66 -310h26l315 310h97v-12l-337 -332v-12l218 -338v-6h-95l-201 312h-40l-66 -312h-86zM133 -290v54h59q28 0 34 30l5 22h-4q-28 0 -49 21t-21 49q0 29 21 49.5t49 20.5q29 0 49.5 -20.5t20.5 -49.5v-5t-1 -7l-18 -86q-16 -78 -93 -78h-52z" />
    <glyph glyph-name="uni0137" unicode="&#x137;" 
d="M416 -14q-19 0 -38 10.5t-36 32.5l-138 189h-30l-46 -218h-78l151 713h78l-89 -423h12l248 218l48 -51l-221 -194v-18l129 -176q6 -7 13 -7q6 0 13 5l48 35l42 -59l-45 -34q-13 -10 -28.5 -16.5t-32.5 -6.5zM163 -290v54h59q28 0 34 30l5 22h-4q-28 0 -49 21t-21 49
q0 29 21 49.5t49 20.5q29 0 49.5 -20.5t20.5 -49.5v-5t-1 -7l-18 -86q-16 -78 -93 -78h-52z" />
    <glyph glyph-name="kgreenlandic" unicode="&#x138;" 
d="M416 -14q-19 0 -38 10.5t-36 32.5l-138 189h-30l-46 -218h-78l105 496h78l-43 -206h12l248 218l48 -51l-221 -194v-18l129 -176q6 -7 13 -7q6 0 13 5l48 35l42 -59l-45 -34q-13 -10 -28.5 -16.5t-32.5 -6.5z" />
    <glyph glyph-name="Lacute" unicode="&#x139;" 
d="M24 0l149 700h84l-132 -622h360v-78h-461zM193 774l91 118h92v-6l-103 -112h-80z" />
    <glyph glyph-name="lacute" unicode="&#x13a;" 
d="M263 -14q-33 0 -58.5 20.5t-25.5 61.5q0 8 1 16t3 16l121 514q3 12 -2.5 18.5t-15.5 6.5q-7 0 -15 -5l-117 -80l-40 59l118 80q32 21 67 21q33 0 58.5 -20.5t25.5 -61.5q0 -7 -1 -15.5t-3 -16.5l-121 -513q-3 -12 2.5 -19t14.5 -7q7 0 15 5l115 78l40 -59l-115 -78
q-31 -21 -67 -21zM307 778l91 118h92v-6l-103 -112h-80z" />
    <glyph glyph-name="uni013B" unicode="&#x13b;" 
d="M24 0l149 700h84l-132 -622h360v-78h-461zM167 -290v54h59q28 0 34 30l5 22h-4q-28 0 -49 21t-21 49q0 29 21 49.5t49 20.5q29 0 49.5 -20.5t20.5 -49.5v-5t-1 -7l-18 -86q-16 -78 -93 -78h-52z" />
    <glyph glyph-name="uni013C" unicode="&#x13c;" 
d="M263 -14q-33 0 -58.5 20.5t-25.5 61.5q0 8 1 16t3 16l121 514q3 12 -2.5 18.5t-15.5 6.5q-7 0 -15 -5l-117 -80l-40 59l118 80q32 21 67 21q33 0 58.5 -20.5t25.5 -61.5q0 -7 -1 -15.5t-3 -16.5l-121 -513q-3 -12 2.5 -19t14.5 -7q7 0 15 5l115 78l40 -59l-115 -78
q-31 -21 -67 -21zM117 -290v54h59q28 0 34 30l5 22h-4q-28 0 -49 21t-21 49q0 29 21 49.5t49 20.5q29 0 49.5 -20.5t20.5 -49.5v-5t-1 -7l-18 -86q-16 -78 -93 -78h-52z" />
    <glyph glyph-name="Lcaron" unicode="&#x13d;" 
d="M24 0l149 700h84l-132 -622h360v-78h-461zM428 454v54h59q28 0 34 30l5 22h-4q-28 0 -49 21t-21 49q0 29 21 49.5t49 20.5q29 0 49.5 -20.5t20.5 -49.5v-5t-1 -7l-18 -86q-16 -78 -93 -78h-52z" />
    <glyph glyph-name="lcaron" unicode="&#x13e;" 
d="M263 -14q-33 0 -58.5 20.5t-25.5 61.5q0 8 1 16t3 16l121 514q3 12 -2.5 18.5t-15.5 6.5q-7 0 -15 -5l-117 -80l-40 59l118 80q32 21 67 21q33 0 58.5 -20.5t25.5 -61.5q0 -7 -1 -15.5t-3 -16.5l-121 -513q-3 -12 2.5 -19t14.5 -7q7 0 15 5l115 78l40 -59l-115 -78
q-31 -21 -67 -21zM411 454v54h59q28 0 34 30l5 22h-4q-28 0 -49 21t-21 49q0 29 21 49.5t49 20.5q29 0 49.5 -20.5t20.5 -49.5v-5t-1 -7l-18 -86q-16 -78 -93 -78h-52z" />
    <glyph glyph-name="Lslash" unicode="&#x141;" 
d="M36 0l60 283l-64 -17l-20 74l102 27l71 333h84l-66 -310l81 22l20 -72l-119 -33l-48 -229h360v-78h-461z" />
    <glyph glyph-name="lslash" unicode="&#x142;" 
d="M263 -14q-33 0 -58.5 20.5t-25.5 61.5q0 8 1 16t3 16l43 184l-66 -18l-20 74l106 28l58 246q3 12 -2.5 18.5t-15.5 6.5q-7 0 -15 -5l-117 -80l-40 59l118 80q32 21 67 21q33 0 58.5 -20.5t25.5 -61.5q0 -7 -1 -15.5t-3 -16.5l-50 -210l81 21l20 -72l-120 -33l-52 -219
q-3 -12 2.5 -19t14.5 -7q7 0 15 5l115 78l40 -59l-115 -78q-31 -21 -67 -21z" />
    <glyph glyph-name="Nacute" unicode="&#x143;" 
d="M10 0l149 700h165l40 -664h12l141 664h84l-149 -700h-165l-40 664h-12l-141 -664h-84zM388 774l91 118h92v-6l-103 -112h-80z" />
    <glyph glyph-name="nacute" unicode="&#x144;" 
d="M443 -14q-29 0 -54 16t-25 57q0 13 4 32l45 207q3 14 4 23.5t1 19.5q0 48 -29 71.5t-79 23.5q-67 0 -110.5 -48.5t-59.5 -123.5l-56 -264h-78l106 496h78l-15 -72h12q25 45 65.5 65.5t85.5 20.5q43 0 79 -18t57.5 -53t21.5 -86q0 -24 -6 -53l-48 -222q-3 -16 12 -16
q6 0 11 4l42 31l42 -59l-39 -29q-30 -23 -67 -23zM328 570l91 118h92v-6l-103 -112h-80z" />
    <glyph glyph-name="uni0145" unicode="&#x145;" 
d="M10 0l149 700h165l40 -664h12l141 664h84l-149 -700h-165l-40 664h-12l-141 -664h-84zM94 -290v54h59q28 0 34 30l5 22h-4q-28 0 -49 21t-21 49q0 29 21 49.5t49 20.5q29 0 49.5 -20.5t20.5 -49.5v-5t-1 -7l-18 -86q-16 -78 -93 -78h-52z" />
    <glyph glyph-name="uni0146" unicode="&#x146;" 
d="M443 -14q-29 0 -54 16t-25 57q0 13 4 32l45 207q3 14 4 23.5t1 19.5q0 48 -29 71.5t-79 23.5q-67 0 -110.5 -48.5t-59.5 -123.5l-56 -264h-78l106 496h78l-15 -72h12q25 45 65.5 65.5t85.5 20.5q43 0 79 -18t57.5 -53t21.5 -86q0 -24 -6 -53l-48 -222q-3 -16 12 -16
q6 0 11 4l42 31l42 -59l-39 -29q-30 -23 -67 -23zM120 -290v54h59q28 0 34 30l5 22h-4q-28 0 -49 21t-21 49q0 29 21 49.5t49 20.5q29 0 49.5 -20.5t20.5 -49.5v-5t-1 -7l-18 -86q-16 -78 -93 -78h-52z" />
    <glyph glyph-name="Ncaron" unicode="&#x147;" 
d="M10 0l149 700h165l40 -664h12l141 664h84l-149 -700h-165l-40 664h-12l-141 -664h-84zM364 774l-55 118h81l34 -88h12l69 88h83v-6l-100 -112h-124z" />
    <glyph glyph-name="ncaron" unicode="&#x148;" 
d="M443 -14q-29 0 -54 16t-25 57q0 13 4 32l45 207q3 14 4 23.5t1 19.5q0 48 -29 71.5t-79 23.5q-67 0 -110.5 -48.5t-59.5 -123.5l-56 -264h-78l106 496h78l-15 -72h12q25 45 65.5 65.5t85.5 20.5q43 0 79 -18t57.5 -53t21.5 -86q0 -24 -6 -53l-48 -222q-3 -16 12 -16
q6 0 11 4l42 31l42 -59l-39 -29q-30 -23 -67 -23zM293 570l-55 118h81l34 -88h12l69 88h83v-6l-100 -112h-124z" />
    <glyph glyph-name="napostrophe" unicode="&#x149;" 
d="M443 -14q-29 0 -54 16t-25 57q0 13 4 32l45 207q3 14 4 23.5t1 19.5q0 48 -29 71.5t-79 23.5q-67 0 -110.5 -48.5t-59.5 -123.5l-56 -264h-78l106 496h78l-15 -72h12q25 45 65.5 65.5t85.5 20.5q43 0 79 -18t57.5 -53t21.5 -86q0 -24 -6 -53l-48 -222q-3 -16 12 -16
q6 0 11 4l42 31l42 -59l-39 -29q-30 -23 -67 -23zM133 574v54h59q28 0 34 30l5 22h-4q-28 0 -49 21t-21 49q0 29 21 49.5t49 20.5q29 0 49.5 -20.5t20.5 -49.5v-5t-1 -7l-18 -86q-16 -78 -93 -78h-52z" />
    <glyph glyph-name="Eng" unicode="&#x14a;" 
d="M128 -200v78h160q30 0 45 12t21 42l14 68h-81l-40 664h-12l-141 -664h-84l149 700h165l40 -664h12l141 664h84l-166 -780q-13 -64 -49.5 -92t-95.5 -28h-162z" />
    <glyph glyph-name="eng" unicode="&#x14b;" 
d="M176 -200v72h118q28 0 34 30l85 396q3 14 4 23.5t1 19.5q0 48 -29 71.5t-79 23.5q-67 0 -110.5 -48.5t-59.5 -123.5l-56 -264h-78l106 496h78l-15 -72h12q25 45 65.5 65.5t85.5 20.5q43 0 79 -18t57.5 -53t21.5 -86q0 -24 -6 -53l-89 -422q-7 -34 -33.5 -56t-60.5 -22
h-131z" />
    <glyph glyph-name="Omacron" unicode="&#x14c;" 
d="M236 -14q-97 0 -148.5 56t-51.5 153q0 20 2.5 42.5t7.5 45.5l31 145q29 140 103 213t197 73q97 0 148.5 -55.5t51.5 -153.5q0 -20 -2.5 -42.5t-7.5 -45.5l-31 -145q-29 -139 -103 -212.5t-197 -73.5zM248 62q83 0 133.5 59.5t71.5 156.5l32 150q4 19 6 36.5t2 33.5
q0 65 -32 102.5t-96 37.5q-82 0 -133 -59t-72 -157l-32 -150q-4 -19 -6 -36.5t-2 -33.5q0 -64 32 -102t96 -38zM247 774v66h282v-66h-282z" />
    <glyph glyph-name="omacron" unicode="&#x14d;" 
d="M223 -14q-56 0 -102 25t-73.5 70.5t-27.5 106.5q0 72 24.5 131t67 102t98.5 66t119 23q58 0 103.5 -26t72 -72t26.5 -106q0 -61 -20.5 -118.5t-60 -103t-96.5 -72t-131 -26.5zM240 60q62 0 109.5 34.5t74.5 89.5t27 116q0 59 -37 97.5t-102 38.5q-57 0 -104.5 -33
t-76.5 -87.5t-29 -119.5q0 -60 36 -98t102 -38zM204 570v66h282v-66h-282z" />
    <glyph glyph-name="Obreve" unicode="&#x14e;" 
d="M236 -14q-97 0 -148.5 56t-51.5 153q0 20 2.5 42.5t7.5 45.5l31 145q29 140 103 213t197 73q97 0 148.5 -55.5t51.5 -153.5q0 -20 -2.5 -42.5t-7.5 -45.5l-31 -145q-29 -139 -103 -212.5t-197 -73.5zM248 62q83 0 133.5 59.5t71.5 156.5l32 150q4 19 6 36.5t2 33.5
q0 65 -32 102.5t-96 37.5q-82 0 -133 -59t-72 -157l-32 -150q-4 -19 -6 -36.5t-2 -33.5q0 -64 32 -102t96 -38zM403 774q-49 0 -75 30.5t-17 73.5l3 14h68l-3 -11q-5 -19 4.5 -30.5t29.5 -11.5q22 0 32 12.5t14 28.5l3 12h70l-3 -14q-11 -51 -41.5 -77.5t-84.5 -26.5z" />
    <glyph glyph-name="obreve" unicode="&#x14f;" 
d="M223 -14q-56 0 -102 25t-73.5 70.5t-27.5 106.5q0 72 24.5 131t67 102t98.5 66t119 23q58 0 103.5 -26t72 -72t26.5 -106q0 -61 -20.5 -118.5t-60 -103t-96.5 -72t-131 -26.5zM240 60q62 0 109.5 34.5t74.5 89.5t27 116q0 59 -37 97.5t-102 38.5q-57 0 -104.5 -33
t-76.5 -87.5t-29 -119.5q0 -60 36 -98t102 -38zM356 570q-49 0 -75 30.5t-17 73.5l3 14h68l-3 -11q-5 -19 4.5 -30.5t29.5 -11.5q22 0 32 12.5t14 28.5l3 12h70l-3 -14q-11 -51 -41.5 -77.5t-84.5 -26.5z" />
    <glyph glyph-name="Ohungarumlaut" unicode="&#x150;" 
d="M236 -14q-97 0 -148.5 56t-51.5 153q0 20 2.5 42.5t7.5 45.5l31 145q29 140 103 213t197 73q97 0 148.5 -55.5t51.5 -153.5q0 -20 -2.5 -42.5t-7.5 -45.5l-31 -145q-29 -139 -103 -212.5t-197 -73.5zM248 62q83 0 133.5 59.5t71.5 156.5l32 150q4 19 6 36.5t2 33.5
q0 65 -32 102.5t-96 37.5q-82 0 -133 -59t-72 -157l-32 -150q-4 -19 -6 -36.5t-2 -33.5q0 -64 32 -102t96 -38zM433 774l91 118h92v-6l-103 -112h-80zM274 774l91 118h92v-6l-103 -112h-80z" />
    <glyph glyph-name="ohungarumlaut" unicode="&#x151;" 
d="M223 -14q-56 0 -102 25t-73.5 70.5t-27.5 106.5q0 72 24.5 131t67 102t98.5 66t119 23q58 0 103.5 -26t72 -72t26.5 -106q0 -61 -20.5 -118.5t-60 -103t-96.5 -72t-131 -26.5zM240 60q62 0 109.5 34.5t74.5 89.5t27 116q0 59 -37 97.5t-102 38.5q-57 0 -104.5 -33
t-76.5 -87.5t-29 -119.5q0 -60 36 -98t102 -38zM378 570l91 118h92v-6l-103 -112h-80zM219 570l91 118h92v-6l-103 -112h-80z" />
    <glyph glyph-name="OE" unicode="&#x152;" 
d="M233 0q-97 0 -148 52.5t-51 146.5q0 20 2.5 40t7.5 47l29 138q28 134 103 205t199 71h230v-78h-163l-49 -232h140v-78h-157l-49 -234h152v-78h-246zM243 78l115 544q-79 0 -129.5 -52.5t-72.5 -153.5l-29 -134q-4 -22 -7 -42t-3 -37q0 -125 126 -125z" />
    <glyph glyph-name="oe" unicode="&#x153;" 
d="M238 -14q-56 0 -102.5 23.5t-74 68.5t-27.5 110q0 64 21.5 122t61.5 103t96 71t125 26q68 0 112.5 -27.5t66 -69.5t21.5 -88q0 -20 -5 -43l-13 -58h-200l-34 -162q54 9 85.5 37t50.5 64l67 -35q-20 -38 -54 -70.5t-82.5 -52t-114.5 -19.5zM336 296h121q3 15 3 29
q0 44 -26.5 73t-68.5 34zM209 65l77 365q-52 -13 -90.5 -48.5t-59.5 -85t-21 -104.5q0 -51 25.5 -84t68.5 -43z" />
    <glyph glyph-name="Racute" unicode="&#x154;" 
d="M8 0l149 700h237q89 0 138.5 -45.5t49.5 -125.5q0 -66 -35 -114t-95 -73v-12q25 -2 39 -16.5t14 -39.5q0 -8 -3 -22l-54 -252h-84l50 234q2 8 2 19q0 35 -42 35h-221l-61 -288h-84zM170 366h154q50 0 89 20t61.5 55t22.5 79q0 102 -119 102h-154zM314 774l91 118h92v-6
l-103 -112h-80z" />
    <glyph glyph-name="racute" unicode="&#x155;" 
d="M0 0v72h122l72 338q3 12 -3 18.5t-15 6.5q-7 0 -15 -5l-91 -62l-40 59l89 60q34 23 69 23q31 0 54 -17.5t26 -56.5h12q29 41 65 57.5t75 16.5q71 0 112.5 -41.5t41.5 -109.5q0 -26 -6 -53l-85 -6q2 11 3.5 21.5t1.5 20.5q0 48 -27 71t-68 23q-40 0 -70 -19.5t-49 -52
t-27 -70.5l-47 -222h118v-72h-318zM372 570l91 118h92v-6l-103 -112h-80z" />
    <glyph glyph-name="uni0156" unicode="&#x156;" 
d="M8 0l149 700h237q89 0 138.5 -45.5t49.5 -125.5q0 -66 -35 -114t-95 -73v-12q25 -2 39 -16.5t14 -39.5q0 -8 -3 -22l-54 -252h-84l50 234q2 8 2 19q0 35 -42 35h-221l-61 -288h-84zM170 366h154q50 0 89 20t61.5 55t22.5 79q0 102 -119 102h-154zM129 -290v54h59
q28 0 34 30l5 22h-4q-28 0 -49 21t-21 49q0 29 21 49.5t49 20.5q29 0 49.5 -20.5t20.5 -49.5v-5t-1 -7l-18 -86q-16 -78 -93 -78h-52z" />
    <glyph glyph-name="uni0157" unicode="&#x157;" 
d="M0 0v72h122l72 338q3 12 -3 18.5t-15 6.5q-7 0 -15 -5l-91 -62l-40 59l89 60q34 23 69 23q31 0 54 -17.5t26 -56.5h12q29 41 65 57.5t75 16.5q71 0 112.5 -41.5t41.5 -109.5q0 -26 -6 -53l-85 -6q2 11 3.5 21.5t1.5 20.5q0 48 -27 71t-68 23q-40 0 -70 -19.5t-49 -52
t-27 -70.5l-47 -222h118v-72h-318zM27 -300v54h59q28 0 34 30l5 22h-4q-28 0 -49 21t-21 49q0 29 21 49.5t49 20.5q29 0 49.5 -20.5t20.5 -49.5v-5t-1 -7l-18 -86q-16 -78 -93 -78h-52z" />
    <glyph glyph-name="Rcaron" unicode="&#x158;" 
d="M8 0l149 700h237q89 0 138.5 -45.5t49.5 -125.5q0 -66 -35 -114t-95 -73v-12q25 -2 39 -16.5t14 -39.5q0 -8 -3 -22l-54 -252h-84l50 234q2 8 2 19q0 35 -42 35h-221l-61 -288h-84zM170 366h154q50 0 89 20t61.5 55t22.5 79q0 102 -119 102h-154zM282 774l-55 118h81
l34 -88h12l69 88h83v-6l-100 -112h-124z" />
    <glyph glyph-name="rcaron" unicode="&#x159;" 
d="M0 0v72h122l72 338q3 12 -3 18.5t-15 6.5q-7 0 -15 -5l-91 -62l-40 59l89 60q34 23 69 23q31 0 54 -17.5t26 -56.5h12q29 41 65 57.5t75 16.5q71 0 112.5 -41.5t41.5 -109.5q0 -26 -6 -53l-85 -6q2 11 3.5 21.5t1.5 20.5q0 48 -27 71t-68 23q-40 0 -70 -19.5t-49 -52
t-27 -70.5l-47 -222h118v-72h-318zM306 570l-55 118h81l34 -88h12l69 88h83v-6l-100 -112h-124z" />
    <glyph glyph-name="Sacute" unicode="&#x15a;" 
d="M249 -14q-115 0 -172.5 55t-57.5 140q0 30 6 61l6 30h84l-5 -24q-6 -30 -6 -55q0 -66 40.5 -97.5t114.5 -31.5q48 0 90 17t68.5 49.5t26.5 76.5q0 56 -36 81t-123 38q-83 14 -136 54.5t-53 119.5q0 68 36 116t97.5 73t137.5 25q70 0 119 -24t75 -63.5t26 -88.5
q0 -10 -1 -20t-3 -20l-8 -36h-84l6 26q4 20 4 34q0 58 -41.5 86t-99.5 28q-44 0 -85 -14.5t-67 -41.5t-26 -67q0 -58 45 -81.5t126 -37.5q92 -15 135 -59.5t43 -117.5q0 -74 -37 -126t-101 -78.5t-144 -26.5zM336 774l91 118h92v-6l-103 -112h-80z" />
    <glyph glyph-name="sacute" unicode="&#x15b;" 
d="M261 -14q-67 0 -109 23t-61 59.5t-19 76.5v10.5t1 10.5l78 10q-1 -7 -1 -9.5v-6.5q0 -43 28 -72.5t98 -29.5q31 0 63 10t53.5 30.5t21.5 53.5q0 39 -31.5 53t-93.5 18q-70 5 -111 34.5t-41 90.5q0 47 26 83.5t73 57.5t110 21q62 0 101 -21t57.5 -53.5t18.5 -68.5v-11
l-77 -11l0.5 4t0.5 7q0 38 -28.5 61t-82.5 23q-27 0 -55 -9t-46.5 -27t-18.5 -46q0 -32 28.5 -48t98.5 -21q71 -5 111 -36t40 -91q0 -56 -30 -95.5t-82.5 -60t-120.5 -20.5zM328 570l91 118h92v-6l-103 -112h-80z" />
    <glyph glyph-name="Scircumflex" unicode="&#x15c;" 
d="M249 -14q-115 0 -172.5 55t-57.5 140q0 30 6 61l6 30h84l-5 -24q-6 -30 -6 -55q0 -66 40.5 -97.5t114.5 -31.5q48 0 90 17t68.5 49.5t26.5 76.5q0 56 -36 81t-123 38q-83 14 -136 54.5t-53 119.5q0 68 36 116t97.5 73t137.5 25q70 0 119 -24t75 -63.5t26 -88.5
q0 -10 -1 -20t-3 -20l-8 -36h-84l6 26q4 20 4 34q0 58 -41.5 86t-99.5 28q-44 0 -85 -14.5t-67 -41.5t-26 -67q0 -58 45 -81.5t126 -37.5q92 -15 135 -59.5t43 -117.5q0 -74 -37 -126t-101 -78.5t-144 -26.5zM241 774v6l100 112h124l55 -118h-75l-39 88h-12l-68 -88h-85z
" />
    <glyph glyph-name="scircumflex" unicode="&#x15d;" 
d="M261 -14q-67 0 -109 23t-61 59.5t-19 76.5v10.5t1 10.5l78 10q-1 -7 -1 -9.5v-6.5q0 -43 28 -72.5t98 -29.5q31 0 63 10t53.5 30.5t21.5 53.5q0 39 -31.5 53t-93.5 18q-70 5 -111 34.5t-41 90.5q0 47 26 83.5t73 57.5t110 21q62 0 101 -21t57.5 -53.5t18.5 -68.5v-11
l-77 -11l0.5 4t0.5 7q0 38 -28.5 61t-82.5 23q-27 0 -55 -9t-46.5 -27t-18.5 -46q0 -32 28.5 -48t98.5 -21q71 -5 111 -36t40 -91q0 -56 -30 -95.5t-82.5 -60t-120.5 -20.5zM233 570v6l100 112h124l55 -118h-75l-39 88h-12l-68 -88h-85z" />
    <glyph glyph-name="Scedilla" unicode="&#x15e;" 
d="M246 -212q-40 0 -64.5 19.5t-29.5 50.5l50 17q2 -16 13 -27.5t33 -11.5q23 0 35.5 12.5t12.5 33.5q0 18 -9.5 26t-22.5 8q-10 0 -16.5 -4t-10.5 -10h-75v12l26 77q-84 14 -126.5 65t-42.5 125q0 30 6 61l6 30h84l-5 -24q-6 -30 -6 -55q0 -66 40.5 -97.5t114.5 -31.5
q48 0 90 17t68.5 49.5t26.5 76.5q0 56 -36 81t-123 38q-83 14 -136 54.5t-53 119.5q0 68 36 116t97.5 73t137.5 25q70 0 119 -24t75 -63.5t26 -88.5q0 -10 -1 -20t-3 -20l-8 -36h-84l6 26q4 20 4 34q0 58 -41.5 86t-99.5 28q-44 0 -85 -14.5t-67 -41.5t-26 -67
q0 -58 45 -81.5t126 -37.5q92 -15 135 -59.5t43 -117.5q0 -74 -37 -126t-101 -78.5t-144 -26.5h-8l-19 -54h6q17 32 54 32q33 0 50.5 -22t17.5 -52q0 -45 -25.5 -73.5t-78.5 -28.5z" />
    <glyph glyph-name="scedilla" unicode="&#x15f;" 
d="M270 -212q-40 0 -64.5 19.5t-29.5 50.5l50 17q2 -16 13 -27.5t33 -11.5q23 0 35.5 12.5t12.5 33.5q0 18 -9.5 26t-22.5 8q-10 0 -16.5 -4t-10.5 -10h-75v12l26 76q-49 8 -80 31.5t-45.5 56.5t-14.5 67v10.5t1 10.5l78 10q-1 -7 -1 -9.5v-6.5q0 -43 28 -72.5t98 -29.5
q31 0 63 10t53.5 30.5t21.5 53.5q0 39 -31.5 53t-93.5 18q-70 5 -111 34.5t-41 90.5q0 47 26 83.5t73 57.5t110 21q62 0 101 -21t57.5 -53.5t18.5 -68.5v-11l-77 -11l0.5 4t0.5 7q0 38 -28.5 61t-82.5 23q-27 0 -55 -9t-46.5 -27t-18.5 -46q0 -32 28.5 -48t98.5 -21
q71 -5 111 -36t40 -91q0 -55 -29.5 -94t-81 -60t-118.5 -22l-19 -54h6q17 32 54 32q33 0 50.5 -22t17.5 -52q0 -45 -25.5 -73.5t-78.5 -28.5z" />
    <glyph glyph-name="Scaron" unicode="&#x160;" 
d="M249 -14q-115 0 -172.5 55t-57.5 140q0 30 6 61l6 30h84l-5 -24q-6 -30 -6 -55q0 -66 40.5 -97.5t114.5 -31.5q48 0 90 17t68.5 49.5t26.5 76.5q0 56 -36 81t-123 38q-83 14 -136 54.5t-53 119.5q0 68 36 116t97.5 73t137.5 25q70 0 119 -24t75 -63.5t26 -88.5
q0 -10 -1 -20t-3 -20l-8 -36h-84l6 26q4 20 4 34q0 58 -41.5 86t-99.5 28q-44 0 -85 -14.5t-67 -41.5t-26 -67q0 -58 45 -81.5t126 -37.5q92 -15 135 -59.5t43 -117.5q0 -74 -37 -126t-101 -78.5t-144 -26.5zM336 774l-55 118h81l34 -88h12l69 88h83v-6l-100 -112h-124z" />
    <glyph glyph-name="scaron" unicode="&#x161;" 
d="M261 -14q-67 0 -109 23t-61 59.5t-19 76.5v10.5t1 10.5l78 10q-1 -7 -1 -9.5v-6.5q0 -43 28 -72.5t98 -29.5q31 0 63 10t53.5 30.5t21.5 53.5q0 39 -31.5 53t-93.5 18q-70 5 -111 34.5t-41 90.5q0 47 26 83.5t73 57.5t110 21q62 0 101 -21t57.5 -53.5t18.5 -68.5v-11
l-77 -11l0.5 4t0.5 7q0 38 -28.5 61t-82.5 23q-27 0 -55 -9t-46.5 -27t-18.5 -46q0 -32 28.5 -48t98.5 -21q71 -5 111 -36t40 -91q0 -56 -30 -95.5t-82.5 -60t-120.5 -20.5zM301 570l-55 118h81l34 -88h12l69 88h83v-6l-100 -112h-124z" />
    <glyph glyph-name="uni0162" unicode="&#x162;" 
d="M252 -212q-40 0 -64.5 19.5t-29.5 50.5l50 17q2 -16 13 -27.5t33 -11.5q23 0 35.5 12.5t12.5 33.5q0 18 -9.5 26t-22.5 8q-10 0 -16.5 -4t-10.5 -10h-75v12l151 708h-216v78h503v-78h-203l-132 -622h-29l-16 -68h6q17 32 56 32q33 0 50.5 -22t17.5 -52q0 -45 -25.5 -73.5
t-78.5 -28.5z" />
    <glyph glyph-name="uni0163" unicode="&#x163;" 
d="M255 -212q-40 0 -64.5 19.5t-29.5 50.5l50 17q2 -16 13 -27.5t33 -11.5q23 0 35.5 12.5t12.5 33.5q0 18 -9.5 26t-22.5 8q-10 0 -16.5 -4t-10.5 -10h-75v12l30 88q-14 11 -23 28t-9 40q0 7 1.5 15t2.5 15l68 324h-156v72h172l46 218h78l-46 -218h176v-72h-192l-71 -337
q-3 -12 2.5 -19t14.5 -7q7 0 15 5l133 90l40 -59l-133 -90q-31 -21 -66 -21h-4l-19 -54h6q17 32 54 32q33 0 50.5 -22t17.5 -52q0 -45 -25.5 -73.5t-78.5 -28.5z" />
    <glyph glyph-name="Tcaron" unicode="&#x164;" 
d="M187 0l132 622h-216v78h503v-78h-203l-132 -622h-84zM319 774l-55 118h81l34 -88h12l69 88h83v-6l-100 -112h-124z" />
    <glyph glyph-name="tcaron" unicode="&#x165;" 
d="M254 -14q-34 0 -59.5 21t-25.5 63q0 7 1.5 15t2.5 15l68 324h-148v72h164l46 218h78l-46 -218h64v-72h-80l-71 -337q-3 -12 2.5 -19t14.5 -7q7 0 15 5l133 90l40 -59l-133 -90q-31 -21 -66 -21zM421 424v54h59q28 0 34 30l11 52h-4q-28 0 -49 21t-21 49q0 29 21 49.5
t49 20.5q29 0 49.5 -20.5t20.5 -49.5v-5t-1 -7l-24 -116q-16 -78 -93 -78h-52z" />
    <glyph glyph-name="Tbar" unicode="&#x166;" 
d="M188 0l74 350h-139v78h156l41 194h-204v78h491v-78h-203l-41 -194h140v-78h-157l-74 -350h-84z" />
    <glyph glyph-name="tbar" unicode="&#x167;" 
d="M254 -14q-34 0 -59.5 21t-25.5 63q0 7 1.5 15t2.5 15l37 178h-111v72h126l16 74h-156v72h172l46 218h78l-46 -218h176v-72h-192l-16 -74h150v-72h-165l-40 -191q-3 -12 2.5 -19t14.5 -7q7 0 15 5l133 90l40 -59l-133 -90q-31 -21 -66 -21z" />
    <glyph glyph-name="Utilde" unicode="&#x168;" 
d="M232 -14q-86 0 -140.5 47.5t-54.5 136.5q0 17 2 35t6 37l97 458h84l-98 -464q-3 -16 -5 -30.5t-2 -27.5q0 -116 123 -116q74 0 123 44.5t67 129.5l98 464h84l-98 -464q-26 -124 -95 -187t-191 -63zM455 758q-31 0 -47.5 14t-33.5 45q-7 12 -11.5 17t-12.5 5
q-11 0 -22 -12l-46 -53l-49 42l41 49q14 17 33 29.5t46 12.5q29 0 46 -14.5t35 -46.5q5 -10 10 -15t14 -5q10 0 19 10l48 55l49 -42l-41 -49q-14 -17 -33 -29.5t-45 -12.5z" />
    <glyph glyph-name="utilde" unicode="&#x169;" 
d="M182 -14q-65 0 -106.5 38t-41.5 111q0 15 2 30.5t6 34.5l66 296h78l-64 -286q-7 -31 -7 -58q0 -92 99 -92q69 0 117.5 48.5t66.5 129.5l58 258h78l-91 -412q-2 -8 2 -13t11 -5t14 5l43 31l42 -58l-50 -38q-12 -10 -29.5 -15t-35.5 -5q-29 0 -53.5 17t-24.5 55q0 5 0.5 10
t1.5 10l1 6h-12q-27 -48 -69 -73t-102 -25zM396 551q-31 0 -47.5 14t-33.5 45q-7 12 -11.5 17t-12.5 5q-11 0 -22 -12l-46 -53l-49 42l41 49q14 17 33 29.5t46 12.5q29 0 46 -14.5t35 -46.5q5 -10 10 -15t14 -5q10 0 19 10l48 55l49 -42l-41 -49q-14 -17 -33 -29.5
t-45 -12.5z" />
    <glyph glyph-name="Umacron" unicode="&#x16a;" 
d="M232 -14q-86 0 -140.5 47.5t-54.5 136.5q0 17 2 35t6 37l97 458h84l-98 -464q-3 -16 -5 -30.5t-2 -27.5q0 -116 123 -116q74 0 123 44.5t67 129.5l98 464h84l-98 -464q-26 -124 -95 -187t-191 -63zM244 774v66h282v-66h-282z" />
    <glyph glyph-name="umacron" unicode="&#x16b;" 
d="M182 -14q-65 0 -106.5 38t-41.5 111q0 15 2 30.5t6 34.5l66 296h78l-64 -286q-7 -31 -7 -58q0 -92 99 -92q69 0 117.5 48.5t66.5 129.5l58 258h78l-91 -412q-2 -8 2 -13t11 -5t14 5l43 31l42 -58l-50 -38q-12 -10 -29.5 -15t-35.5 -5q-29 0 -53.5 17t-24.5 55q0 5 0.5 10
t1.5 10l1 6h-12q-27 -48 -69 -73t-102 -25zM192 570v66h282v-66h-282z" />
    <glyph glyph-name="Ubreve" unicode="&#x16c;" 
d="M232 -14q-86 0 -140.5 47.5t-54.5 136.5q0 17 2 35t6 37l97 458h84l-98 -464q-3 -16 -5 -30.5t-2 -27.5q0 -116 123 -116q74 0 123 44.5t67 129.5l98 464h84l-98 -464q-26 -124 -95 -187t-191 -63zM385 774q-49 0 -75 30.5t-17 73.5l3 14h68l-3 -11q-5 -19 4.5 -30.5
t29.5 -11.5q22 0 32 12.5t14 28.5l3 12h70l-3 -14q-11 -51 -41.5 -77.5t-84.5 -26.5z" />
    <glyph glyph-name="ubreve" unicode="&#x16d;" 
d="M182 -14q-65 0 -106.5 38t-41.5 111q0 15 2 30.5t6 34.5l66 296h78l-64 -286q-7 -31 -7 -58q0 -92 99 -92q69 0 117.5 48.5t66.5 129.5l58 258h78l-91 -412q-2 -8 2 -13t11 -5t14 5l43 31l42 -58l-50 -38q-12 -10 -29.5 -15t-35.5 -5q-29 0 -53.5 17t-24.5 55q0 5 0.5 10
t1.5 10l1 6h-12q-27 -48 -69 -73t-102 -25zM337 570q-49 0 -75 30.5t-17 73.5l3 14h68l-3 -11q-5 -19 4.5 -30.5t29.5 -11.5q22 0 32 12.5t14 28.5l3 12h70l-3 -14q-11 -51 -41.5 -77.5t-84.5 -26.5z" />
    <glyph glyph-name="Uring" unicode="&#x16e;" 
d="M232 -14q-86 0 -140.5 47.5t-54.5 136.5q0 17 2 35t6 37l97 458h84l-98 -464q-3 -16 -5 -30.5t-2 -27.5q0 -116 123 -116q74 0 123 44.5t67 129.5l98 464h84l-98 -464q-26 -124 -95 -187t-191 -63zM392 770q-43 0 -72.5 29.5t-29.5 72.5t29.5 72.5t72.5 29.5t72.5 -29.5
t29.5 -72.5t-29.5 -72.5t-72.5 -29.5zM392 830q18 0 30 12t12 30t-12 30t-30 12t-30 -12t-12 -30t12 -30t30 -12z" />
    <glyph glyph-name="uring" unicode="&#x16f;" 
d="M182 -14q-65 0 -106.5 38t-41.5 111q0 15 2 30.5t6 34.5l66 296h78l-64 -286q-7 -31 -7 -58q0 -92 99 -92q69 0 117.5 48.5t66.5 129.5l58 258h78l-91 -412q-2 -8 2 -13t11 -5t14 5l43 31l42 -58l-50 -38q-12 -10 -29.5 -15t-35.5 -5q-29 0 -53.5 17t-24.5 55q0 5 0.5 10
t1.5 10l1 6h-12q-27 -48 -69 -73t-102 -25zM347 570q-43 0 -72.5 29.5t-29.5 72.5t29.5 72.5t72.5 29.5t72.5 -29.5t29.5 -72.5t-29.5 -72.5t-72.5 -29.5zM347 630q18 0 30 12t12 30t-12 30t-30 12t-30 -12t-12 -30t12 -30t30 -12z" />
    <glyph glyph-name="Uhungarumlaut" unicode="&#x170;" 
d="M232 -14q-86 0 -140.5 47.5t-54.5 136.5q0 17 2 35t6 37l97 458h84l-98 -464q-3 -16 -5 -30.5t-2 -27.5q0 -116 123 -116q74 0 123 44.5t67 129.5l98 464h84l-98 -464q-26 -124 -95 -187t-191 -63zM421 774l91 118h92v-6l-103 -112h-80zM262 774l91 118h92v-6l-103 -112
h-80z" />
    <glyph glyph-name="uhungarumlaut" unicode="&#x171;" 
d="M182 -14q-65 0 -106.5 38t-41.5 111q0 15 2 30.5t6 34.5l66 296h78l-64 -286q-7 -31 -7 -58q0 -92 99 -92q69 0 117.5 48.5t66.5 129.5l58 258h78l-91 -412q-2 -8 2 -13t11 -5t14 5l43 31l42 -58l-50 -38q-12 -10 -29.5 -15t-35.5 -5q-29 0 -53.5 17t-24.5 55q0 5 0.5 10
t1.5 10l1 6h-12q-27 -48 -69 -73t-102 -25zM354 570l91 118h92v-6l-103 -112h-80zM195 570l91 118h92v-6l-103 -112h-80z" />
    <glyph glyph-name="Uogonek" unicode="&#x172;" 
d="M256 -164q-33 0 -53.5 22t-20.5 50q0 18 10 37t31 34l10 7q-87 0 -141.5 47.5t-54.5 136.5q0 17 2 35t6 37l97 458h84l-98 -464q-3 -16 -5 -30.5t-2 -27.5q0 -116 123 -116q74 0 123 44.5t67 129.5l98 464h84l-98 -464q-30 -141 -113 -202l-138 -101q-4 -3 -7 -7t-3 -10
q0 -14 16 -14h87v-66h-104z" />
    <glyph glyph-name="uogonek" unicode="&#x173;" 
d="M394 -164q-34 0 -54 22t-20 50q0 18 10 37t31 34l29 21q-12 8 -20 22.5t-8 35.5q0 5 0.5 10t1.5 10l1 6h-12q-27 -48 -69 -73t-102 -25q-65 0 -106.5 38t-41.5 111q0 15 2 30.5t6 34.5l66 296h78l-64 -286q-7 -31 -7 -58q0 -92 99 -92q69 0 117.5 48.5t66.5 129.5l58 258
h78l-91 -412q-2 -8 2 -13t11 -5t14 5l43 31l42 -58l-147 -110q-7 -6 -9.5 -10t-2.5 -8q0 -14 15 -14h87v-66h-104z" />
    <glyph glyph-name="Wcircumflex" unicode="&#x174;" 
d="M12 0l83 700h76l-79 -664h12l196 664h156l-84 -664h12l202 664h78l-214 -700h-154l81 664h-12l-199 -664h-154zM240 774v6l100 112h124l55 -118h-75l-39 88h-12l-68 -88h-85z" />
    <glyph glyph-name="wcircumflex" unicode="&#x175;" 
d="M49 0l45 496h71l-47 -460h12l154 460h145l-39 -460h12l149 470l68 -21l-159 -485h-140l37 460h-12l-156 -460h-140zM222 570v6l100 112h124l55 -118h-75l-39 88h-12l-68 -88h-85z" />
    <glyph glyph-name="Ycircumflex" unicode="&#x176;" 
d="M184 0l52 246h-18l-122 454h87l98 -382h12l260 382h97v-6l-312 -448h-18l-52 -246h-84zM227 774v6l100 112h124l55 -118h-75l-39 88h-12l-68 -88h-85z" />
    <glyph glyph-name="ycircumflex" unicode="&#x177;" 
d="M103 -200v72h258q27 0 33 30l38 176h-12q-30 -45 -71.5 -68.5t-98.5 -23.5q-67 0 -107 40t-40 113q0 30 7 61l45 214q2 10 -2.5 15.5t-11.5 5.5q-6 0 -13 -5l-51 -35l-40 59l52 35q32 21 63 21q33 0 57 -22t24 -61q0 -6 -0.5 -11.5t-2.5 -14.5l-40 -191q-7 -31 -7 -58
q0 -92 99 -92q69 0 118 48.5t66 129.5l54 258h78l-131 -618q-7 -34 -33 -56t-60 -22h-271zM238 570v6l100 112h124l55 -118h-75l-39 88h-12l-68 -88h-85z" />
    <glyph glyph-name="Ydieresis" unicode="&#x178;" 
d="M184 0l52 246h-18l-122 454h87l98 -382h12l260 382h97v-6l-312 -448h-18l-52 -246h-84zM274 778q-28 0 -49 21t-21 49q0 29 21 49.5t49 20.5q29 0 49.5 -20.5t20.5 -49.5q0 -28 -20.5 -49t-49.5 -21zM474 778q-28 0 -49 21t-21 49q0 29 21 49.5t49 20.5q29 0 49.5 -20.5
t20.5 -49.5q0 -28 -20.5 -49t-49.5 -21z" />
    <glyph glyph-name="Zacute" unicode="&#x179;" 
d="M5 0v126l515 484v12h-386v78h458v-126l-515 -484v-12h422v-78h-494zM316 774l91 118h92v-6l-103 -112h-80z" />
    <glyph glyph-name="zacute" unicode="&#x17a;" 
d="M64 0v130l408 282v12h-338v72h404v-126l-408 -286v-12h355v-72h-421zM291 570l91 118h92v-6l-103 -112h-80z" />
    <glyph glyph-name="Zdotaccent" unicode="&#x17b;" 
d="M5 0v126l515 484v12h-386v78h458v-126l-515 -484v-12h422v-78h-494zM373 778q-28 0 -49 21t-21 49q0 29 21 49.5t49 20.5q29 0 49.5 -20.5t20.5 -49.5q0 -28 -20.5 -49t-49.5 -21z" />
    <glyph glyph-name="zdotaccent" unicode="&#x17c;" 
d="M64 0v130l408 282v12h-338v72h404v-126l-408 -286v-12h355v-72h-421zM336 574q-28 0 -49 21t-21 49q0 29 21 49.5t49 20.5q29 0 49.5 -20.5t20.5 -49.5q0 -28 -20.5 -49t-49.5 -21z" />
    <glyph glyph-name="Zcaron" unicode="&#x17d;" 
d="M5 0v126l515 484v12h-386v78h458v-126l-515 -484v-12h422v-78h-494zM309 774l-55 118h81l34 -88h12l69 88h83v-6l-100 -112h-124z" />
    <glyph glyph-name="zcaron" unicode="&#x17e;" 
d="M64 0v130l408 282v12h-338v72h404v-126l-408 -286v-12h355v-72h-421zM282 570l-55 118h81l34 -88h12l69 88h83v-6l-100 -112h-124z" />
    <glyph glyph-name="longs" unicode="&#x17f;" 
d="M137 -200q-32 0 -51.5 13t-33.5 35l-44 71l61 39l42 -67q7 -12 18 -12q8 0 12 4.5t5 10.5l113 530h-153v72h169l26 126q8 34 34 56t60 22h179v-72h-166q-28 0 -34 -30l-154 -724q-8 -38 -31.5 -56t-51.5 -18z" />
    <glyph glyph-name="uni0180" unicode="&#x180;" 
d="M288 -14q-46 0 -88.5 22.5t-58.5 67.5h-12l-16 -76h-77l119 562h-53v72h68l17 80h77l-17 -80h171v-72h-187l-30 -144h12q28 41 72.5 66.5t102.5 25.5q52 0 93 -24t65 -67t24 -101q0 -102 -37.5 -176.5t-101.5 -115t-143 -40.5zM286 60q55 0 101 30.5t73.5 85.5t27.5 127
q0 61 -32.5 97t-92.5 36q-58 0 -103.5 -33t-72 -87t-26.5 -118q0 -66 33.5 -102t91.5 -36z" />
    <glyph glyph-name="uni018F" unicode="&#x18f;" 
d="M239 -14q-69 0 -116 26.5t-71 71.5t-24 102q0 15 1.5 31.5t5.5 32.5l24 112h408l14 67q5 21 6.5 36t1.5 31q0 63 -32.5 102.5t-102.5 39.5q-52 0 -91 -23t-63.5 -62t-35.5 -87l-4 -18h-83l5 24q14 68 49.5 123t93 87t137.5 32q100 0 155 -58.5t55 -156.5q0 -39 -9 -83
l-31 -144q-31 -145 -102.5 -215.5t-190.5 -70.5zM252 62q77 0 126 57t71 159l1 6h-324l-9 -44q-3 -15 -4 -26.5t-1 -23.5q0 -53 31.5 -90.5t108.5 -37.5z" />
    <glyph glyph-name="florin" unicode="&#x192;" 
d="M101 102v72h102q27 0 33 30l35 162h-75v72h90l18 82q8 36 33 57t62 21h113v-72h-102q-27 0 -33 -30l-13 -58h75v-72h-90l-40 -186q-7 -36 -31.5 -57t-62.5 -21h-114z" />
    <glyph glyph-name="Ohorn" unicode="&#x1a0;" 
d="M184 -14q-75 0 -122.5 45t-47.5 130q0 17 2 34.5t6 36.5l52 244q24 113 85 175.5t158 62.5q80 0 127 -48t47 -122q0 -18 -3 -36h61q28 0 34 30l5 22h-4q-28 0 -49 21t-21 49q0 29 21 49.5t49 20.5q29 0 49.5 -20.5t20.5 -49.5v-5t-1 -7l-18 -86q-16 -78 -93 -78h-64
l-51 -236q-26 -122 -88.5 -177t-154.5 -55zM190 62q62 0 99.5 40t55.5 122l53 252q4 18 6 34t2 30q0 47 -23 72.5t-74 25.5q-60 0 -97 -42.5t-54 -119.5l-53 -252q-4 -18 -6 -34t-2 -30q0 -98 93 -98z" />
    <glyph glyph-name="ohorn" unicode="&#x1a1;" 
d="M206 -14q-51 0 -91 23.5t-62.5 66t-22.5 97.5q0 17 2 32.5t6 36.5l3 12q26 120 90.5 188t168.5 68q49 0 88.5 -21.5t63 -61.5t23.5 -98v-11t-1 -14h63q28 0 34 30l5 22h-4q-28 0 -49 21t-21 49q0 29 21 49.5t49 20.5q29 0 49.5 -20.5t20.5 -49.5v-5t-1 -7l-18 -86
q-16 -78 -93 -78h-64l-2 -10q-25 -128 -93.5 -191t-164.5 -63zM213 60q67 0 107.5 45t63.5 137l3 12q4 17 5.5 33t1.5 31q0 54 -25 86t-77 32q-66 0 -110 -50.5t-61 -131.5l-3 -12q-4 -17 -5.5 -33.5t-1.5 -30.5q0 -55 26 -86.5t76 -31.5z" />
    <glyph glyph-name="Uhorn" unicode="&#x1af;" 
d="M167 -14q-69 0 -115.5 40.5t-46.5 122.5q0 16 2 32.5t6 35.5l102 483h84l-105 -494q-6 -28 -6 -51q0 -49 25 -71t65 -22q56 0 92 35t52 109l105 494h84l-40 -192h95q28 0 34 30l5 22h-4q-28 0 -49 21t-21 49q0 29 21 49.5t49 20.5q29 0 49.5 -20.5t20.5 -49.5v-5t-1 -7
l-18 -86q-16 -78 -93 -78h-100l-53 -252q-25 -118 -86.5 -167t-152.5 -49z" />
    <glyph glyph-name="uhorn" unicode="&#x1b0;" 
d="M164 -14q-62 0 -102 34.5t-40 105.5q0 14 1.5 29.5t5.5 31.5l65 309h78l-66 -312q-5 -23 -5 -40q0 -40 22.5 -62t63.5 -22q65 0 104.5 42.5t52.5 105.5l62 288h78l-41 -192h95q28 0 34 30l5 22h-4q-28 0 -49 21t-21 49q0 29 21 49.5t49 20.5q29 0 49.5 -20.5t20.5 -49.5
v-5t-1 -7l-18 -86q-16 -78 -93 -78h-100l-53 -250h-78l15 68h-12q-24 -40 -58 -61t-81 -21z" />
    <glyph glyph-name="uni01CD" unicode="&#x1cd;" 
d="M-42 0l347 700h160l50 -700h-85l-11 174h-281l-85 -174h-95zM176 252h238l-26 411h-12zM333 774l-55 118h81l34 -88h12l69 88h83v-6l-100 -112h-124z" />
    <glyph glyph-name="uni01CE" unicode="&#x1ce;" 
d="M184 -14q-80 0 -126 55t-46 143q0 63 17.5 121.5t52.5 104.5t86 73t118 27q51 0 87.5 -23.5t46.5 -68.5h12l16 78h78l-88 -412q-2 -9 2 -13.5t11 -4.5t14 5l36 26l42 -59l-45 -34q-25 -18 -61 -18q-29 0 -54.5 16.5t-25.5 55.5q0 5 0.5 10t1.5 10h-12q-31 -52 -73.5 -72
t-89.5 -20zM208 60q54 0 98 31.5t70 86t26 121.5q0 62 -28 99.5t-87 37.5q-62 0 -105 -34t-65.5 -89.5t-22.5 -118.5q0 -134 114 -134zM239 570l-55 118h81l34 -88h12l69 88h83v-6l-100 -112h-124z" />
    <glyph glyph-name="uni01CF" unicode="&#x1cf;" 
d="M32 0v78h174l115 544h-174v78h432v-78h-174l-115 -544h174v-78h-432zM321 774l-55 118h81l34 -88h12l69 88h83v-6l-100 -112h-124z" />
    <glyph glyph-name="uni01D0" unicode="&#x1d0;" 
d="M293 -14q-34 0 -59 20.5t-25 61.5q0 16 4 32l74 309q2 10 -2.5 17.5t-15.5 7.5q-8 0 -15 -4l-117 -80l-40 59l118 80q32 21 67 21q34 0 59 -20.5t25 -61.5q0 -16 -4 -32l-74 -309q-3 -12 2.5 -19t14.5 -7q7 0 15 5l115 78l40 -59l-115 -78q-31 -21 -67 -21zM278 570
l-55 118h81l34 -88h12l69 88h83v-6l-100 -112h-124z" />
    <glyph glyph-name="uni01D1" unicode="&#x1d1;" 
d="M236 -14q-97 0 -148.5 56t-51.5 153q0 20 2.5 42.5t7.5 45.5l31 145q29 140 103 213t197 73q97 0 148.5 -55.5t51.5 -153.5q0 -20 -2.5 -42.5t-7.5 -45.5l-31 -145q-29 -139 -103 -212.5t-197 -73.5zM248 62q83 0 133.5 59.5t71.5 156.5l32 150q4 19 6 36.5t2 33.5
q0 65 -32 102.5t-96 37.5q-82 0 -133 -59t-72 -157l-32 -150q-4 -19 -6 -36.5t-2 -33.5q0 -64 32 -102t96 -38zM322 774l-55 118h81l34 -88h12l69 88h83v-6l-100 -112h-124z" />
    <glyph glyph-name="uni01D2" unicode="&#x1d2;" 
d="M223 -14q-56 0 -102 25t-73.5 70.5t-27.5 106.5q0 72 24.5 131t67 102t98.5 66t119 23q58 0 103.5 -26t72 -72t26.5 -106q0 -61 -20.5 -118.5t-60 -103t-96.5 -72t-131 -26.5zM240 60q62 0 109.5 34.5t74.5 89.5t27 116q0 59 -37 97.5t-102 38.5q-57 0 -104.5 -33
t-76.5 -87.5t-29 -119.5q0 -60 36 -98t102 -38zM283 570l-55 118h81l34 -88h12l69 88h83v-6l-100 -112h-124z" />
    <glyph glyph-name="uni01D3" unicode="&#x1d3;" 
d="M232 -14q-86 0 -140.5 47.5t-54.5 136.5q0 17 2 35t6 37l97 458h84l-98 -464q-3 -16 -5 -30.5t-2 -27.5q0 -116 123 -116q74 0 123 44.5t67 129.5l98 464h84l-98 -464q-26 -124 -95 -187t-191 -63zM323 774l-55 118h81l34 -88h12l69 88h83v-6l-100 -112h-124z" />
    <glyph glyph-name="uni01D4" unicode="&#x1d4;" 
d="M182 -14q-65 0 -106.5 38t-41.5 111q0 15 2 30.5t6 34.5l66 296h78l-64 -286q-7 -31 -7 -58q0 -92 99 -92q69 0 117.5 48.5t66.5 129.5l58 258h78l-91 -412q-2 -8 2 -13t11 -5t14 5l43 31l42 -58l-50 -38q-12 -10 -29.5 -15t-35.5 -5q-29 0 -53.5 17t-24.5 55q0 5 0.5 10
t1.5 10l1 6h-12q-27 -48 -69 -73t-102 -25zM268 570l-55 118h81l34 -88h12l69 88h83v-6l-100 -112h-124z" />
    <glyph glyph-name="uni01D5" unicode="&#x1d5;" 
d="M232 -14q-86 0 -140.5 47.5t-54.5 136.5q0 17 2 35t6 37l97 458h84l-98 -464q-3 -16 -5 -30.5t-2 -27.5q0 -116 123 -116q74 0 123 44.5t67 129.5l98 464h84l-98 -464q-26 -124 -95 -187t-191 -63zM279 730q-28 0 -49 21t-21 49q0 29 21 49.5t49 20.5q29 0 49.5 -20.5
t20.5 -49.5q0 -28 -20.5 -49t-49.5 -21zM479 730q-28 0 -49 21t-21 49q0 29 21 49.5t49 20.5q29 0 49.5 -20.5t20.5 -49.5q0 -28 -20.5 -49t-49.5 -21zM238 900v66h282v-66h-282z" />
    <glyph glyph-name="uni01D6" unicode="&#x1d6;" 
d="M182 -14q-65 0 -106.5 38t-41.5 111q0 15 2 30.5t6 34.5l66 296h78l-64 -286q-7 -31 -7 -58q0 -92 99 -92q69 0 117.5 48.5t66.5 129.5l58 258h78l-91 -412q-2 -8 2 -13t11 -5t14 5l43 31l42 -58l-50 -38q-12 -10 -29.5 -15t-35.5 -5q-29 0 -53.5 17t-24.5 55q0 5 0.5 10
t1.5 10l1 6h-12q-27 -48 -69 -73t-102 -25zM235 574q-28 0 -49 21t-21 49q0 29 21 49.5t49 20.5q29 0 49.5 -20.5t20.5 -49.5q0 -28 -20.5 -49t-49.5 -21zM435 574q-28 0 -49 21t-21 49q0 29 21 49.5t49 20.5q29 0 49.5 -20.5t20.5 -49.5q0 -28 -20.5 -49t-49.5 -21z
M217 744v66h282v-66h-282z" />
    <glyph glyph-name="uni01D7" unicode="&#x1d7;" 
d="M232 -14q-86 0 -140.5 47.5t-54.5 136.5q0 17 2 35t6 37l97 458h84l-98 -464q-3 -16 -5 -30.5t-2 -27.5q0 -116 123 -116q74 0 123 44.5t67 129.5l98 464h84l-98 -464q-26 -124 -95 -187t-191 -63zM339 900l91 118h92v-6l-103 -112h-80zM279 730q-28 0 -49 21t-21 49
q0 29 21 49.5t49 20.5q29 0 49.5 -20.5t20.5 -49.5q0 -28 -20.5 -49t-49.5 -21zM479 730q-28 0 -49 21t-21 49q0 29 21 49.5t49 20.5q29 0 49.5 -20.5t20.5 -49.5q0 -28 -20.5 -49t-49.5 -21z" />
    <glyph glyph-name="uni01D8" unicode="&#x1d8;" 
d="M182 -14q-65 0 -106.5 38t-41.5 111q0 15 2 30.5t6 34.5l66 296h78l-64 -286q-7 -31 -7 -58q0 -92 99 -92q69 0 117.5 48.5t66.5 129.5l58 258h78l-91 -412q-2 -8 2 -13t11 -5t14 5l43 31l42 -58l-50 -38q-12 -10 -29.5 -15t-35.5 -5q-29 0 -53.5 17t-24.5 55q0 5 0.5 10
t1.5 10l1 6h-12q-27 -48 -69 -73t-102 -25zM301 744l91 118h92v-6l-103 -112h-80zM235 574q-28 0 -49 21t-21 49q0 29 21 49.5t49 20.5q29 0 49.5 -20.5t20.5 -49.5q0 -28 -20.5 -49t-49.5 -21zM435 574q-28 0 -49 21t-21 49q0 29 21 49.5t49 20.5q29 0 49.5 -20.5
t20.5 -49.5q0 -28 -20.5 -49t-49.5 -21z" />
    <glyph glyph-name="uni01D9" unicode="&#x1d9;" 
d="M232 -14q-86 0 -140.5 47.5t-54.5 136.5q0 17 2 35t6 37l97 458h84l-98 -464q-3 -16 -5 -30.5t-2 -27.5q0 -116 123 -116q74 0 123 44.5t67 129.5l98 464h84l-98 -464q-26 -124 -95 -187t-191 -63zM324 900l-55 118h81l34 -88h12l69 88h83v-6l-100 -112h-124zM279 730
q-28 0 -49 21t-21 49q0 29 21 49.5t49 20.5q29 0 49.5 -20.5t20.5 -49.5q0 -28 -20.5 -49t-49.5 -21zM479 730q-28 0 -49 21t-21 49q0 29 21 49.5t49 20.5q29 0 49.5 -20.5t20.5 -49.5q0 -28 -20.5 -49t-49.5 -21z" />
    <glyph glyph-name="uni01DA" unicode="&#x1da;" 
d="M182 -14q-65 0 -106.5 38t-41.5 111q0 15 2 30.5t6 34.5l66 296h78l-64 -286q-7 -31 -7 -58q0 -92 99 -92q69 0 117.5 48.5t66.5 129.5l58 258h78l-91 -412q-2 -8 2 -13t11 -5t14 5l43 31l42 -58l-50 -38q-12 -10 -29.5 -15t-35.5 -5q-29 0 -53.5 17t-24.5 55q0 5 0.5 10
t1.5 10l1 6h-12q-27 -48 -69 -73t-102 -25zM235 574q-28 0 -49 21t-21 49q0 29 21 49.5t49 20.5q29 0 49.5 -20.5t20.5 -49.5q0 -28 -20.5 -49t-49.5 -21zM435 574q-28 0 -49 21t-21 49q0 29 21 49.5t49 20.5q29 0 49.5 -20.5t20.5 -49.5q0 -28 -20.5 -49t-49.5 -21z
M281 744l-55 118h81l34 -88h12l69 88h83v-6l-100 -112h-124z" />
    <glyph glyph-name="uni01DB" unicode="&#x1db;" 
d="M232 -14q-86 0 -140.5 47.5t-54.5 136.5q0 17 2 35t6 37l97 458h84l-98 -464q-3 -16 -5 -30.5t-2 -27.5q0 -116 123 -116q74 0 123 44.5t67 129.5l98 464h84l-98 -464q-26 -124 -95 -187t-191 -63zM339 900l-59 118h84l41 -118h-66zM279 730q-28 0 -49 21t-21 49
q0 29 21 49.5t49 20.5q29 0 49.5 -20.5t20.5 -49.5q0 -28 -20.5 -49t-49.5 -21zM479 730q-28 0 -49 21t-21 49q0 29 21 49.5t49 20.5q29 0 49.5 -20.5t20.5 -49.5q0 -28 -20.5 -49t-49.5 -21z" />
    <glyph glyph-name="uni01DC" unicode="&#x1dc;" 
d="M182 -14q-65 0 -106.5 38t-41.5 111q0 15 2 30.5t6 34.5l66 296h78l-64 -286q-7 -31 -7 -58q0 -92 99 -92q69 0 117.5 48.5t66.5 129.5l58 258h78l-91 -412q-2 -8 2 -13t11 -5t14 5l43 31l42 -58l-50 -38q-12 -10 -29.5 -15t-35.5 -5q-29 0 -53.5 17t-24.5 55q0 5 0.5 10
t1.5 10l1 6h-12q-27 -48 -69 -73t-102 -25zM308 744l-59 118h84l41 -118h-66zM235 574q-28 0 -49 21t-21 49q0 29 21 49.5t49 20.5q29 0 49.5 -20.5t20.5 -49.5q0 -28 -20.5 -49t-49.5 -21zM435 574q-28 0 -49 21t-21 49q0 29 21 49.5t49 20.5q29 0 49.5 -20.5t20.5 -49.5
q0 -28 -20.5 -49t-49.5 -21z" />
    <glyph glyph-name="Gcaron" unicode="&#x1e6;" 
d="M223 -14q-84 0 -137.5 50t-53.5 147q0 20 2 41t8 48l33 156q29 140 106.5 213t198.5 73q64 0 109 -25t68.5 -69t23.5 -100q0 -32 -7 -60l-3 -12h-84l3 12q7 28 7 56q0 53 -31.5 87.5t-99.5 34.5q-81 0 -134.5 -60t-73.5 -156l-31 -144q-9 -45 -9 -80q0 -65 31.5 -100.5
t95.5 -35.5q76 0 127.5 47.5t70.5 124.5l6 24h-207v78h306l-72 -336h-80l20 84h-12q-25 -43 -72.5 -70.5t-108.5 -27.5zM332 774l-55 118h81l34 -88h12l69 88h83v-6l-100 -112h-124z" />
    <glyph glyph-name="gcaron" unicode="&#x1e7;" 
d="M281 570l-55 118h81l34 -88h12l69 88h83v-6l-100 -112h-124zM36 -200v72h289q28 0 34 30l36 168h-12q-29 -42 -72.5 -63t-95.5 -21q-57 0 -100 25t-67 70t-24 105q0 92 36 165.5t100 116t148 42.5q59 0 97.5 -25.5t50.5 -66.5h12l17 78h78l-131 -618q-7 -34 -33.5 -56
t-60.5 -22h-302zM232 60q46 0 84 20.5t65.5 54.5t42.5 76.5t15 86.5q0 62 -35 100t-94 38q-63 0 -109 -34t-71 -89.5t-25 -118.5q0 -61 33 -97.5t94 -36.5z" />
    <glyph glyph-name="uni01EA" unicode="&#x1ea;" 
d="M254 -164q-33 0 -53.5 22t-20.5 50q0 18 10 37t31 34l10 7q-94 2 -144.5 57t-50.5 152q0 20 2.5 42.5t7.5 45.5l31 145q29 140 103 213t197 73q97 0 148.5 -55.5t51.5 -153.5q0 -20 -2.5 -42.5t-7.5 -45.5l-31 -145q-16 -75 -47 -136t-84 -100l-140 -103q-10 -7 -10 -17
q0 -14 16 -14h87v-66h-104zM248 62q83 0 133.5 59.5t71.5 156.5l32 150q4 19 6 36.5t2 33.5q0 65 -32 102.5t-96 37.5q-82 0 -133 -59t-72 -157l-32 -150q-4 -19 -6 -36.5t-2 -33.5q0 -64 32 -102t96 -38z" />
    <glyph glyph-name="uni01EB" unicode="&#x1eb;" 
d="M229 -164q-30 0 -48 18.5t-18 46.5q0 19 10.5 38.5t32.5 35.5l15 11q-55 1 -101 25.5t-73 70t-27 106.5q0 72 24.5 131t67 102t98.5 66t119 23q58 0 103.5 -26t72 -72t26.5 -106q0 -80 -34.5 -152.5t-101.5 -117.5l-152 -103q-10 -7 -10 -16q0 -7 5 -11t11 -4h87v-66
h-107zM240 60q62 0 109.5 34.5t74.5 89.5t27 116q0 59 -37 97.5t-102 38.5q-57 0 -104.5 -33t-76.5 -87.5t-29 -119.5q0 -60 36 -98t102 -38z" />
    <glyph glyph-name="uni0218" unicode="&#x218;" 
d="M249 -14q-115 0 -172.5 55t-57.5 140q0 30 6 61l6 30h84l-5 -24q-6 -30 -6 -55q0 -66 40.5 -97.5t114.5 -31.5q48 0 90 17t68.5 49.5t26.5 76.5q0 56 -36 81t-123 38q-83 14 -136 54.5t-53 119.5q0 68 36 116t97.5 73t137.5 25q70 0 119 -24t75 -63.5t26 -88.5
q0 -10 -1 -20t-3 -20l-8 -36h-84l6 26q4 20 4 34q0 58 -41.5 86t-99.5 28q-44 0 -85 -14.5t-67 -41.5t-26 -67q0 -58 45 -81.5t126 -37.5q92 -15 135 -59.5t43 -117.5q0 -74 -37 -126t-101 -78.5t-144 -26.5zM135 -290v54h59q28 0 34 30l5 22h-4q-28 0 -49 21t-21 49
q0 29 21 49.5t49 20.5q29 0 49.5 -20.5t20.5 -49.5v-5t-1 -7l-18 -86q-16 -78 -93 -78h-52z" />
    <glyph glyph-name="uni0219" unicode="&#x219;" 
d="M261 -14q-67 0 -109 23t-61 59.5t-19 76.5v10.5t1 10.5l78 10q-1 -7 -1 -9.5v-6.5q0 -43 28 -72.5t98 -29.5q31 0 63 10t53.5 30.5t21.5 53.5q0 39 -31.5 53t-93.5 18q-70 5 -111 34.5t-41 90.5q0 47 26 83.5t73 57.5t110 21q62 0 101 -21t57.5 -53.5t18.5 -68.5v-11
l-77 -11l0.5 4t0.5 7q0 38 -28.5 61t-82.5 23q-27 0 -55 -9t-46.5 -27t-18.5 -46q0 -32 28.5 -48t98.5 -21q71 -5 111 -36t40 -91q0 -56 -30 -95.5t-82.5 -60t-120.5 -20.5zM144 -300v54h59q28 0 34 30l5 22h-4q-28 0 -49 21t-21 49q0 29 21 49.5t49 20.5q29 0 49.5 -20.5
t20.5 -49.5v-5t-1 -7l-18 -86q-16 -78 -93 -78h-52z" />
    <glyph glyph-name="uni021A" unicode="&#x21a;" 
d="M187 0l132 622h-216v78h503v-78h-203l-132 -622h-84zM114 -290v54h59q28 0 34 30l5 22h-4q-28 0 -49 21t-21 49q0 29 21 49.5t49 20.5q29 0 49.5 -20.5t20.5 -49.5v-5t-1 -7l-18 -86q-16 -78 -93 -78h-52z" />
    <glyph glyph-name="uni021B" unicode="&#x21b;" 
d="M254 -14q-34 0 -59.5 21t-25.5 63q0 7 1.5 15t2.5 15l68 324h-156v72h172l46 218h78l-46 -218h176v-72h-192l-71 -337q-3 -12 2.5 -19t14.5 -7q7 0 15 5l133 90l40 -59l-133 -90q-31 -21 -66 -21zM108 -300v54h59q28 0 34 30l5 22h-4q-28 0 -49 21t-21 49q0 29 21 49.5
t49 20.5q29 0 49.5 -20.5t20.5 -49.5v-5t-1 -7l-18 -86q-16 -78 -93 -78h-52z" />
    <glyph glyph-name="uni0237" unicode="&#x237;" 
d="M0 -200v72h210q27 0 33 30l109 510q2 11 -3 16.5t-12 5.5q-6 0 -12 -4l-117 -80l-40 59l118 80q32 21 63 21q33 0 57 -22.5t24 -60.5q0 -11 -3 -26l-111 -523q-7 -34 -33 -56t-60 -22h-223z" />
    <glyph glyph-name="uni0243" unicode="&#x243;" 
d="M2 0v78h66l16 78h-54v78h71l82 388h-66v78h276q91 0 136.5 -46.5t45.5 -118.5q0 -40 -19 -77t-54 -63.5t-84 -37.5v-12q41 -12 64.5 -47t23.5 -79q0 -64 -32.5 -113.5t-89 -77.5t-128.5 -28h-254zM218 390h118q41 0 76.5 17t58 48.5t22.5 76.5q0 41 -29 65.5t-82 24.5
h-115zM152 78h115q45 0 81.5 17.5t58 49t21.5 71.5q0 46 -29.5 71t-79.5 25h-118l-17 -78h98v-78h-114z" />
    <glyph glyph-name="uni0250" unicode="&#x250;" 
d="M397 510q71 0 112.5 -37.5t41.5 -105.5q0 -55 -29 -93.5t-77 -58t-106 -19.5h-165l-4 -20q-3 -16 -3 -27q0 -36 24.5 -63.5t81.5 -27.5q56 0 92.5 28t55.5 80l66 -28q-25 -67 -81 -109.5t-143 -42.5q-78 0 -125.5 45t-47.5 115q0 11 1.5 22t3.5 22l48 222q2 8 -2 13
t-11 5t-14 -5l-36 -26l-42 59l45 34q25 18 60 18q30 0 55 -15.5t25 -53.5v-7t-1 -10h12q25 44 66.5 65t96.5 21zM383 438q-76 0 -126 -43.5t-67 -126.5h161q48 0 84.5 25.5t36.5 70.5q0 74 -89 74z" />
    <glyph glyph-name="uni0251" unicode="&#x251;" 
d="M184 -14q-80 0 -126 55t-46 143q0 63 17.5 121.5t52.5 104.5t86 73t118 27q51 0 87.5 -23.5t46.5 -68.5h12l16 78h78l-88 -412q-2 -9 2 -13.5t11 -4.5t14 5l36 26l42 -59l-45 -34q-25 -18 -61 -18q-29 0 -54.5 16.5t-25.5 55.5q0 5 0.5 10t1.5 10h-12q-31 -52 -73.5 -72
t-89.5 -20zM208 60q54 0 98 31.5t70 86t26 121.5q0 62 -28 99.5t-87 37.5q-62 0 -105 -34t-65.5 -89.5t-22.5 -118.5q0 -134 114 -134z" />
    <glyph glyph-name="uni0252" unicode="&#x252;" 
d="M391 510q80 0 126 -54.5t46 -143.5q0 -63 -17.5 -121.5t-52.5 -104.5t-86 -73t-118 -27q-51 0 -87 23.5t-47 68.5h-12l-16 -78h-78l88 412q2 9 -2 13.5t-11 4.5t-14 -5l-36 -26l-42 59l45 34q25 18 61 18q29 0 54.5 -16.5t25.5 -55.5q0 -4 -0.5 -9.5t-1.5 -10.5h12
q31 53 74 72.5t89 19.5zM367 436q-54 0 -98 -31.5t-70 -85.5t-26 -122q0 -61 28.5 -99t86.5 -38q62 0 105 34.5t65.5 89.5t22.5 118q0 134 -114 134z" />
    <glyph glyph-name="uni0254" unicode="&#x254;" 
d="M339 510q95 0 151.5 -55.5t56.5 -150.5q0 -87 -39 -159.5t-109.5 -115.5t-165.5 -43q-61 0 -106 22.5t-69.5 62.5t-24.5 92v5t1 10l80 12q-1 -6 -1 -9v-7q0 -47 32 -80.5t102 -33.5q62 0 111.5 33t78 86.5t28.5 116.5q0 71 -38.5 105.5t-103.5 34.5q-53 0 -91 -19.5
t-61.5 -50t-33.5 -64.5l-74 24q17 51 53 92.5t91.5 66.5t131.5 25z" />
    <glyph glyph-name="uni0258" unicode="&#x258;" 
d="M237 -14q-182 0 -206 156l78 20q7 -44 35 -73t98 -29q77 0 129.5 45.5t70.5 118.5h-400l12 55q9 41 30 82t54.5 74.5t81 54t108.5 20.5q97 0 152 -57.5t55 -163.5q0 -58 -21 -112t-60.5 -97t-94.5 -68.5t-122 -25.5zM139 296h317q1 7 1 9.5v3.5q0 55 -39 91t-101 36
q-61 0 -111 -37.5t-67 -102.5z" />
    <glyph glyph-name="uni0259" unicode="&#x259;" 
d="M343 510q60 0 106 -23.5t72 -68t26 -107.5t-20 -121t-58.5 -104t-94 -73t-126.5 -27q-67 0 -110.5 27t-64.5 69.5t-21 90.5q0 27 6 52l11 47h398q2 8 3 18.5t1 20.5q0 55 -32 90.5t-102 35.5t-109.5 -30.5t-59.5 -72.5l-64 36q19 39 50 71t77.5 50.5t111.5 18.5zM450 200
h-318q-3 -16 -3 -30q0 -54 37 -82t92 -28q70 0 121 40t71 100z" />
    <glyph glyph-name="uni0261" unicode="&#x261;" 
d="M36 -200v72h289q28 0 34 30l36 168h-12q-29 -42 -72.5 -63t-95.5 -21q-57 0 -100 25t-67 70t-24 105q0 92 36 165.5t100 116t148 42.5q59 0 97.5 -25.5t50.5 -66.5h12l17 78h78l-131 -618q-7 -34 -33.5 -56t-60.5 -22h-302zM232 60q46 0 84 20.5t65.5 54.5t42.5 76.5
t15 86.5q0 62 -35 100t-94 38q-63 0 -109 -34t-71 -89.5t-25 -118.5q0 -61 33 -97.5t94 -36.5z" />
    <glyph glyph-name="uni0265" unicode="&#x265;" 
d="M341 -200l56 274h-12q-25 -46 -65 -67t-90 -21q-66 0 -109.5 41.5t-43.5 116.5q0 15 1.5 31t5.5 33l44 209q2 7 -2 11t-10 4q-7 0 -13 -5l-39 -28l-42 59l46 33q27 19 61 19q31 0 54.5 -18t23.5 -56q0 -11 -3 -26l-46 -208q-3 -15 -4.5 -25t-1.5 -21q0 -52 30.5 -74
t75.5 -22q68 0 112.5 48.5t61.5 129.5l55 258h77l-148 -696h-75z" />
    <glyph glyph-name="uni026F" unicode="&#x26f;" 
d="M139 -14q-45 0 -68 25.5t-23 67.5q0 18 5 41l80 376h77l-78 -372q-1 -4 -1.5 -8.5t-0.5 -9.5q0 -19 11 -32.5t34 -13.5q29 0 46 20t24 56l77 360h78l-79 -372q-1 -7 -1.5 -11.5t-0.5 -9.5q0 -18 9.5 -30.5t34.5 -12.5q32 0 48 23t23 53l77 360h77l-88 -416
q-2 -10 2.5 -16t11.5 -6q8 0 13 4l51 35l40 -59l-42 -28q-19 -13 -37 -18.5t-35 -5.5q-30 0 -52 17t-28 45h-12q-15 -33 -38.5 -47.5t-56.5 -14.5q-30 0 -50.5 17t-22.5 45h-12q-16 -31 -38 -46.5t-55 -15.5z" />
    <glyph glyph-name="uni0279" unicode="&#x279;" 
d="M195 -14q-71 0 -112.5 42t-41.5 109q0 26 6 53l85 6q-2 -11 -3.5 -21.5t-1.5 -20.5q0 -48 27 -71t68 -23q40 0 70 19.5t49 52t27 70.5l47 222h-118v72h318v-72h-122l-72 -338q-3 -13 3 -19t15 -6q8 0 15 5l91 62l40 -59l-89 -60q-34 -23 -69 -23q-31 0 -54 18.5t-26 55.5
h-12q-28 -40 -64.5 -57t-75.5 -17z" />
    <glyph glyph-name="uni0287" unicode="&#x287;" 
d="M219 -200l42 200h-176v72h192l71 337q3 12 -2.5 19t-14.5 7q-7 0 -15 -5l-133 -90l-40 59l133 90q32 21 66 21t59 -21t25 -63q0 -13 -3 -30l-68 -324h156v-72h-172l-42 -200h-78z" />
    <glyph glyph-name="uni028C" unicode="&#x28c;" 
d="M2 0l278 496h154l68 -496h-88l-54 460h-12l-250 -460h-96z" />
    <glyph glyph-name="uni028D" unicode="&#x28d;" 
d="M-30 0l175 496h143l-32 -460h12l155 460h142l-24 -496h-78l28 460h-12l-152 -460h-144l36 460h-12l-158 -460h-79z" />
    <glyph glyph-name="uni028E" unicode="&#x28e;" 
d="M477 -14q-34 0 -62.5 21.5t-32.5 62.5l-49 366h-12l-243 -436h-97l286 496h30l27 126q8 34 34 56t60 22h166v-72h-153q-28 0 -34 -30l-22 -102h30l64 -418q3 -16 18 -16q10 0 17 9l49 62l56 -45l-48 -62q-16 -20 -38.5 -30t-45.5 -10z" />
    <glyph glyph-name="uni029E" unicode="&#x29e;" 
d="M407 -212q-33 0 -57 22t-24 61q0 11 3 26l65 309h-12l-235 -206h-106l266 233v18l-129 176q-6 7 -13 7q-6 0 -13 -5l-48 -35l-42 59l45 34q14 11 29.5 17t31.5 6q20 0 38.5 -10t35.5 -33l138 -189h30l46 218h78l-129 -608q-2 -12 3 -17.5t13 -5.5q6 0 10 3l51 35l40 -59
l-52 -35q-31 -21 -63 -21z" />
    <glyph glyph-name="circumflex" unicode="&#x2c6;" 
d="M210 570v6l100 112h124l55 -118h-75l-39 88h-12l-68 -88h-85z" />
    <glyph glyph-name="caron" unicode="&#x2c7;" 
d="M289 570l-55 118h81l34 -88h12l69 88h83v-6l-100 -112h-124z" />
    <glyph glyph-name="uni02C9" unicode="&#x2c9;" 
d="M165 570v66h282v-66h-282z" />
    <glyph glyph-name="breve" unicode="&#x2d8;" 
d="M351 570q-49 0 -75 30.5t-17 73.5l3 14h68l-3 -11q-5 -19 4.5 -30.5t29.5 -11.5q22 0 32 12.5t14 28.5l3 12h70l-3 -14q-11 -51 -41.5 -77.5t-84.5 -26.5z" />
    <glyph glyph-name="dotaccent" unicode="&#x2d9;" 
d="M358 574q-28 0 -49 21t-21 49q0 29 21 49.5t49 20.5q29 0 49.5 -20.5t20.5 -49.5q0 -28 -20.5 -49t-49.5 -21z" />
    <glyph glyph-name="ring" unicode="&#x2da;" 
d="M306 570q-43 0 -72.5 29.5t-29.5 72.5t29.5 72.5t72.5 29.5t72.5 -29.5t29.5 -72.5t-29.5 -72.5t-72.5 -29.5zM306 630q18 0 30 12t12 30t-12 30t-30 12t-30 -12t-12 -30t12 -30t30 -12z" />
    <glyph glyph-name="ogonek" unicode="&#x2db;" 
d="M313 -164q-25 0 -43.5 16.5t-18.5 44.5q0 8 2 17.5t6 19.5l41 96h69l-44 -98q-3 -7 -3 -13q0 -17 19 -17h42v-66h-70z" />
    <glyph glyph-name="tilde" unicode="&#x2dc;" 
d="M408 551q-31 0 -47.5 14t-33.5 45q-7 12 -11.5 17t-12.5 5q-11 0 -22 -12l-46 -53l-49 42l41 49q14 17 33 29.5t46 12.5q29 0 46 -14.5t35 -46.5q5 -10 10 -15t14 -5q10 0 19 10l48 55l49 -42l-41 -49q-14 -17 -33 -29.5t-45 -12.5z" />
    <glyph glyph-name="hungarumlaut" unicode="&#x2dd;" 
d="M347 570l91 118h92v-6l-103 -112h-80zM188 570l91 118h92v-6l-103 -112h-80z" />
    <glyph glyph-name="gravecomb" unicode="&#x300;" horiz-adv-x="0" 
d="M351 570l-59 118h84l41 -118h-66z" />
    <glyph glyph-name="acutecomb" unicode="&#x301;" horiz-adv-x="0" 
d="M301 570l91 118h92v-6l-103 -112h-80z" />
    <glyph glyph-name="uni0302" unicode="&#x302;" horiz-adv-x="0" 
d="M210 570v6l100 112h124l55 -118h-75l-39 88h-12l-68 -88h-85z" />
    <glyph glyph-name="tildecomb" unicode="&#x303;" horiz-adv-x="0" 
d="M408 551q-31 0 -47.5 14t-33.5 45q-7 12 -11.5 17t-12.5 5q-11 0 -22 -12l-46 -53l-49 42l41 49q14 17 33 29.5t46 12.5q29 0 46 -14.5t35 -46.5q5 -10 10 -15t14 -5q10 0 19 10l48 55l49 -42l-41 -49q-14 -17 -33 -29.5t-45 -12.5z" />
    <glyph glyph-name="uni0304" unicode="&#x304;" horiz-adv-x="0" 
d="M165 570v66h282v-66h-282z" />
    <glyph glyph-name="uni0306" unicode="&#x306;" horiz-adv-x="0" 
d="M351 570q-49 0 -75 30.5t-17 73.5l3 14h68l-3 -11q-5 -19 4.5 -30.5t29.5 -11.5q22 0 32 12.5t14 28.5l3 12h70l-3 -14q-11 -51 -41.5 -77.5t-84.5 -26.5z" />
    <glyph glyph-name="uni0307" unicode="&#x307;" horiz-adv-x="0" 
d="M358 574q-28 0 -49 21t-21 49q0 29 21 49.5t49 20.5q29 0 49.5 -20.5t20.5 -49.5q0 -28 -20.5 -49t-49.5 -21z" />
    <glyph glyph-name="uni0308" unicode="&#x308;" horiz-adv-x="0" 
d="M206 574q-28 0 -49 21t-21 49q0 29 21 49.5t49 20.5q29 0 49.5 -20.5t20.5 -49.5q0 -28 -20.5 -49t-49.5 -21zM406 574q-28 0 -49 21t-21 49q0 29 21 49.5t49 20.5q29 0 49.5 -20.5t20.5 -49.5q0 -28 -20.5 -49t-49.5 -21z" />
    <glyph glyph-name="hookabovecomb" unicode="&#x309;" horiz-adv-x="0" 
d="M208 546v92l5 6h72q7 -14 26 -14q18 0 29 12.5t11 29.5t-9.5 27.5t-26.5 10.5q-22 0 -34 -12.5t-19 -27.5l-44 18q13 30 38 50t64 20q38 0 62 -24t24 -60q0 -37 -26.5 -64.5t-64.5 -27.5q-39 0 -52 32h-6v-68h-49z" />
    <glyph glyph-name="uni030A" unicode="&#x30a;" horiz-adv-x="0" 
d="M306 570q-43 0 -72.5 29.5t-29.5 72.5t29.5 72.5t72.5 29.5t72.5 -29.5t29.5 -72.5t-29.5 -72.5t-72.5 -29.5zM306 630q18 0 30 12t12 30t-12 30t-30 12t-30 -12t-12 -30t12 -30t30 -12z" />
    <glyph glyph-name="uni030B" unicode="&#x30b;" horiz-adv-x="0" 
d="M347 570l91 118h92v-6l-103 -112h-80zM188 570l91 118h92v-6l-103 -112h-80z" />
    <glyph glyph-name="uni030C" unicode="&#x30c;" horiz-adv-x="0" 
d="M289 570l-55 118h81l34 -88h12l69 88h83v-6l-100 -112h-124z" />
    <glyph glyph-name="uni0312" unicode="&#x312;" horiz-adv-x="0" 
d="M268 574q-28 0 -44.5 21t-10.5 49l20 98q8 34 34 56t60 22h51l-12 -54h-47q-27 0 -33 -30l-5 -25q8 3 18 3q28 0 44 -20.5t10 -49.5q-6 -28 -31 -49t-54 -21z" />
    <glyph glyph-name="uni031B" unicode="&#x31b;" horiz-adv-x="0" 
d="M203 454v54h95q28 0 34 30l5 22h-4q-28 0 -49 21t-21 49q0 29 21 49.5t49 20.5q29 0 49.5 -20.5t20.5 -49.5v-5t-1 -7l-18 -86q-16 -78 -93 -78h-88z" />
    <glyph glyph-name="dotbelowcomb" unicode="&#x323;" horiz-adv-x="0" 
d="M267 -204q-28 0 -49 21t-21 49q0 29 21 49.5t49 20.5q29 0 49.5 -20.5t20.5 -49.5q0 -28 -20.5 -49t-49.5 -21z" />
    <glyph glyph-name="uni0326" unicode="&#x326;" horiz-adv-x="0" 
d="M123 -292l8 54h47q27 0 32 30l4 25q-9 -3 -18 -3q-28 0 -45 21t-13 49q5 29 29 49.5t52 20.5q29 0 46.5 -20.5t12.5 -49.5l-15 -98q-5 -34 -30 -56t-59 -22h-51z" />
    <glyph glyph-name="uni0327" unicode="&#x327;" horiz-adv-x="0" 
d="M298 -212q-40 0 -64.5 19.5t-29.5 50.5l50 17q2 -16 13 -27.5t33 -11.5q23 0 35.5 12.5t12.5 33.5q0 18 -9.5 26t-22.5 8q-10 0 -16.5 -4t-10.5 -10h-75v12l30 86h54l-24 -68h6q17 32 54 32q33 0 50.5 -22t17.5 -52q0 -45 -25.5 -73.5t-78.5 -28.5z" />
    <glyph glyph-name="uni0328" unicode="&#x328;" horiz-adv-x="0" 
d="M313 -164q-25 0 -43.5 16.5t-18.5 44.5q0 8 2 17.5t6 19.5l41 96h69l-44 -98q-3 -7 -3 -13q0 -17 19 -17h42v-66h-70z" />
    <glyph glyph-name="uni032E" unicode="&#x32e;" horiz-adv-x="0" 
d="M291 -180q-49 0 -75 30.5t-17 73.5l3 14h68l-3 -11q-5 -19 4.5 -30.5t29.5 -11.5q22 0 32 12.5t14 28.5l3 12h70l-3 -14q-11 -51 -41.5 -77.5t-84.5 -26.5z" />
    <glyph glyph-name="uni0331" unicode="&#x331;" horiz-adv-x="0" 
d="M165 -130v66h282v-66h-282z" />
    <glyph glyph-name="pi" unicode="&#x3c0;" 
d="M87 0l90 424h-72l15 72h478l-15 -72h-72l-69 -322q-1 -6 -1 -10q0 -20 22 -20h45l-15 -72h-73q-29 0 -46 16.5t-17 43.5q0 5 0.5 9.5t1.5 8.5l74 346h-178l-90 -424h-78z" />
    <glyph glyph-name="uni1E0C" unicode="&#x1e0c;" 
d="M0 0v78h66l115 544h-66v78h243q106 0 160 -48t54 -137q0 -19 -2.5 -39t-7.5 -42l-38 -174q-20 -95 -53 -152t-91 -82.5t-153 -25.5h-227zM150 78h76q62 0 104.5 16.5t69.5 57.5t42 114l35 168q5 26 7 43t2 33q0 64 -36 88t-109 24h-76zM226 -204q-28 0 -49 21t-21 49
q0 29 21 49.5t49 20.5q29 0 49.5 -20.5t20.5 -49.5q0 -28 -20.5 -49t-49.5 -21z" />
    <glyph glyph-name="uni1E0D" unicode="&#x1e0d;" 
d="M182 -14q-80 0 -129 54t-49 142q0 62 19 120.5t55 105.5t89 74.5t120 27.5q53 0 88.5 -22t48.5 -70h12l62 296h78l-134 -630q-3 -18 13 -18q6 0 13 5l36 26l43 -59l-45 -34q-25 -18 -61 -18q-29 0 -54.5 16.5t-25.5 55.5q0 5 0.5 10.5t1.5 9.5h-12q-31 -52 -75.5 -72
t-93.5 -20zM206 60q54 0 99.5 31.5t73 86t27.5 121.5q0 62 -31 99.5t-90 37.5q-62 0 -106.5 -34.5t-68.5 -90t-24 -118.5q0 -133 120 -133zM182 -204q-28 0 -49 21t-21 49q0 29 21 49.5t49 20.5q29 0 49.5 -20.5t20.5 -49.5q0 -28 -20.5 -49t-49.5 -21z" />
    <glyph glyph-name="uni1E0E" unicode="&#x1e0e;" 
d="M0 0v78h66l115 544h-66v78h243q106 0 160 -48t54 -137q0 -19 -2.5 -39t-7.5 -42l-38 -174q-20 -95 -53 -152t-91 -82.5t-153 -25.5h-227zM150 78h76q62 0 104.5 16.5t69.5 57.5t42 114l35 168q5 26 7 43t2 33q0 64 -36 88t-109 24h-76zM66 -130v66h282v-66h-282z" />
    <glyph glyph-name="uni1E0F" unicode="&#x1e0f;" 
d="M182 -14q-80 0 -129 54t-49 142q0 62 19 120.5t55 105.5t89 74.5t120 27.5q53 0 88.5 -22t48.5 -70h12l62 296h78l-134 -630q-3 -18 13 -18q6 0 13 5l36 26l43 -59l-45 -34q-25 -18 -61 -18q-29 0 -54.5 16.5t-25.5 55.5q0 5 0.5 10.5t1.5 9.5h-12q-31 -52 -75.5 -72
t-93.5 -20zM206 60q54 0 99.5 31.5t73 86t27.5 121.5q0 62 -31 99.5t-90 37.5q-62 0 -106.5 -34.5t-68.5 -90t-24 -118.5q0 -133 120 -133zM41 -130v66h282v-66h-282z" />
    <glyph glyph-name="uni1E20" unicode="&#x1e20;" 
d="M223 -14q-84 0 -137.5 50t-53.5 147q0 20 2 41t8 48l33 156q29 140 106.5 213t198.5 73q64 0 109 -25t68.5 -69t23.5 -100q0 -32 -7 -60l-3 -12h-84l3 12q7 28 7 56q0 53 -31.5 87.5t-99.5 34.5q-81 0 -134.5 -60t-73.5 -156l-31 -144q-9 -45 -9 -80q0 -65 31.5 -100.5
t95.5 -35.5q76 0 127.5 47.5t70.5 124.5l6 24h-207v78h306l-72 -336h-80l20 84h-12q-25 -43 -72.5 -70.5t-108.5 -27.5zM242 774v66h282v-66h-282z" />
    <glyph glyph-name="uni1E21" unicode="&#x1e21;" 
d="M36 -200v72h289q28 0 34 30l36 168h-12q-29 -42 -72.5 -63t-95.5 -21q-57 0 -100 25t-67 70t-24 105q0 92 36 165.5t100 116t148 42.5q59 0 97.5 -25.5t50.5 -66.5h12l17 78h78l-131 -618q-7 -34 -33.5 -56t-60.5 -22h-302zM232 60q46 0 84 20.5t65.5 54.5t42.5 76.5
t15 86.5q0 62 -35 100t-94 38q-63 0 -109 -34t-71 -89.5t-25 -118.5q0 -61 33 -97.5t94 -36.5zM213 570v66h282v-66h-282z" />
    <glyph glyph-name="uni1E24" unicode="&#x1e24;" 
d="M8 0l148 700h86l-66 -310h276l66 310h86l-149 -700h-86l66 312h-276l-66 -312h-85zM229 -204q-28 0 -49 21t-21 49q0 29 21 49.5t49 20.5q29 0 49.5 -20.5t20.5 -49.5q0 -28 -20.5 -49t-49.5 -21z" />
    <glyph glyph-name="uni1E25" unicode="&#x1e25;" 
d="M457 -14q-31 0 -54.5 18t-23.5 56q0 11 3 26l46 208q3 14 4.5 25t1.5 21q0 52 -30.5 74t-75.5 22q-67 0 -112 -48.5t-62 -129.5l-55 -258h-77l152 714h75l-60 -292h12q25 47 65.5 67.5t89.5 20.5q66 0 109.5 -41.5t43.5 -116.5q0 -15 -1.5 -31t-5.5 -33l-44 -209
q-3 -15 13 -15q6 0 12 5l39 28l42 -59l-46 -33q-27 -19 -61 -19zM228 -204q-28 0 -49 21t-21 49q0 29 21 49.5t49 20.5q29 0 49.5 -20.5t20.5 -49.5q0 -28 -20.5 -49t-49.5 -21z" />
    <glyph glyph-name="uni1E2A" unicode="&#x1e2a;" 
d="M8 0l148 700h86l-66 -310h276l66 310h86l-149 -700h-86l66 312h-276l-66 -312h-85zM203 -180q-49 0 -75 30.5t-17 73.5l3 14h68l-3 -11q-5 -19 4.5 -30.5t29.5 -11.5q22 0 32 12.5t14 28.5l3 12h70l-3 -14q-11 -51 -41.5 -77.5t-84.5 -26.5z" />
    <glyph glyph-name="uni1E2B" unicode="&#x1e2b;" 
d="M457 -14q-31 0 -54.5 18t-23.5 56q0 11 3 26l46 208q3 14 4.5 25t1.5 21q0 52 -30.5 74t-75.5 22q-67 0 -112 -48.5t-62 -129.5l-55 -258h-77l152 714h75l-60 -292h12q25 47 65.5 67.5t89.5 20.5q66 0 109.5 -41.5t43.5 -116.5q0 -15 -1.5 -31t-5.5 -33l-44 -209
q-3 -15 13 -15q6 0 12 5l39 28l42 -59l-46 -33q-27 -19 -61 -19zM215 -182q-49 0 -75 30.5t-17 73.5l3 14h68l-3 -11q-5 -19 4.5 -30.5t29.5 -11.5q22 0 32 12.5t14 28.5l3 12h70l-3 -14q-11 -51 -41.5 -77.5t-84.5 -26.5z" />
    <glyph glyph-name="uni1E36" unicode="&#x1e36;" 
d="M24 0l149 700h84l-132 -622h360v-78h-461zM257 -204q-28 0 -49 21t-21 49q0 29 21 49.5t49 20.5q29 0 49.5 -20.5t20.5 -49.5q0 -28 -20.5 -49t-49.5 -21z" />
    <glyph glyph-name="uni1E37" unicode="&#x1e37;" 
d="M263 -14q-33 0 -58.5 20.5t-25.5 61.5q0 8 1 16t3 16l121 514q3 12 -2.5 18.5t-15.5 6.5q-7 0 -15 -5l-117 -80l-40 59l118 80q32 21 67 21q33 0 58.5 -20.5t25.5 -61.5q0 -7 -1 -15.5t-3 -16.5l-121 -513q-3 -12 2.5 -19t14.5 -7q7 0 15 5l115 78l40 -59l-115 -78
q-31 -21 -67 -21zM190 -204q-28 0 -49 21t-21 49q0 29 21 49.5t49 20.5q29 0 49.5 -20.5t20.5 -49.5q0 -28 -20.5 -49t-49.5 -21z" />
    <glyph glyph-name="uni1E38" unicode="&#x1e38;" 
d="M24 0l149 700h84l-132 -622h360v-78h-461zM257 774v66h282v-66h-282zM257 -204q-28 0 -49 21t-21 49q0 29 21 49.5t49 20.5q29 0 49.5 -20.5t20.5 -49.5q0 -28 -20.5 -49t-49.5 -21z" />
    <glyph glyph-name="uni1E39" unicode="&#x1e39;" 
d="M263 -14q-33 0 -58.5 20.5t-25.5 61.5q0 8 1 16t3 16l121 514q3 12 -2.5 18.5t-15.5 6.5q-7 0 -15 -5l-117 -80l-40 59l118 80q32 21 67 21q33 0 58.5 -20.5t25.5 -61.5q0 -7 -1 -15.5t-3 -16.5l-121 -513q-3 -12 2.5 -19t14.5 -7q7 0 15 5l115 78l40 -59l-115 -78
q-31 -21 -67 -21zM205 774v66h282v-66h-282z" />
    <glyph glyph-name="uni1E3A" unicode="&#x1e3a;" 
d="M24 0l149 700h84l-132 -622h360v-78h-461zM125 -130v66h282v-66h-282z" />
    <glyph glyph-name="uni1E3B" unicode="&#x1e3b;" 
d="M263 -14q-33 0 -58.5 20.5t-25.5 61.5q0 8 1 16t3 16l121 514q3 12 -2.5 18.5t-15.5 6.5q-7 0 -15 -5l-117 -80l-40 59l118 80q32 21 67 21q33 0 58.5 -20.5t25.5 -61.5q0 -7 -1 -15.5t-3 -16.5l-121 -513q-3 -12 2.5 -19t14.5 -7q7 0 15 5l115 78l40 -59l-115 -78
q-31 -21 -67 -21zM65 -130v66h282v-66h-282z" />
    <glyph glyph-name="uni1E42" unicode="&#x1e42;" 
d="M-16 0l148 700h159l-58 -664h12l219 664h164l-149 -700h-78l141 664h-12l-219 -664h-154l57 664h-12l-141 -664h-77zM222 -204q-28 0 -49 21t-21 49q0 29 21 49.5t49 20.5q29 0 49.5 -20.5t20.5 -49.5q0 -28 -20.5 -49t-49.5 -21z" />
    <glyph glyph-name="uni1E43" unicode="&#x1e43;" 
d="M492 -14q-29 0 -54.5 16.5t-25.5 55.5q0 5 0.5 10.5t1.5 9.5l62 294q1 5 1.5 9.5t0.5 8.5q0 20 -11 33t-34 13q-28 0 -45 -20t-25 -56l-77 -360h-78l79 372q1 4 1.5 9t0.5 12q0 18 -9.5 30.5t-34.5 12.5q-31 0 -47.5 -23t-23.5 -53l-77 -360h-77l105 496h78l-9 -42h12
q11 29 34 42.5t51 13.5q31 0 50.5 -15t24.5 -41h12q14 27 36.5 41.5t53.5 14.5q44 0 67.5 -26.5t23.5 -69.5q0 -9 -1 -19.5t-3 -18.5l-64 -298q-3 -16 12 -16q6 0 11 4l42 31l42 -59l-45 -34q-25 -18 -61 -18zM216 -204q-28 0 -49 21t-21 49q0 29 21 49.5t49 20.5
q29 0 49.5 -20.5t20.5 -49.5q0 -28 -20.5 -49t-49.5 -21z" />
    <glyph glyph-name="uni1E44" unicode="&#x1e44;" 
d="M10 0l149 700h165l40 -664h12l141 664h84l-149 -700h-165l-40 664h-12l-141 -664h-84zM416 774q-28 0 -49 21t-21 49q0 29 21 49.5t49 20.5q29 0 49.5 -20.5t20.5 -49.5q0 -28 -20.5 -49t-49.5 -21z" />
    <glyph glyph-name="uni1E45" unicode="&#x1e45;" 
d="M443 -14q-29 0 -54 16t-25 57q0 13 4 32l45 207q3 14 4 23.5t1 19.5q0 48 -29 71.5t-79 23.5q-67 0 -110.5 -48.5t-59.5 -123.5l-56 -264h-78l106 496h78l-15 -72h12q25 45 65.5 65.5t85.5 20.5q43 0 79 -18t57.5 -53t21.5 -86q0 -24 -6 -53l-48 -222q-3 -16 12 -16
q6 0 11 4l42 31l42 -59l-39 -29q-30 -23 -67 -23zM361 574q-28 0 -49 21t-21 49q0 29 21 49.5t49 20.5q29 0 49.5 -20.5t20.5 -49.5q0 -28 -20.5 -49t-49.5 -21z" />
    <glyph glyph-name="uni1E46" unicode="&#x1e46;" 
d="M10 0l149 700h165l40 -664h12l141 664h84l-149 -700h-165l-40 664h-12l-141 -664h-84zM183 -204q-28 0 -49 21t-21 49q0 29 21 49.5t49 20.5q29 0 49.5 -20.5t20.5 -49.5q0 -28 -20.5 -49t-49.5 -21z" />
    <glyph glyph-name="uni1E47" unicode="&#x1e47;" 
d="M443 -14q-29 0 -54 16t-25 57q0 13 4 32l45 207q3 14 4 23.5t1 19.5q0 48 -29 71.5t-79 23.5q-67 0 -110.5 -48.5t-59.5 -123.5l-56 -264h-78l106 496h78l-15 -72h12q25 45 65.5 65.5t85.5 20.5q43 0 79 -18t57.5 -53t21.5 -86q0 -24 -6 -53l-48 -222q-3 -16 12 -16
q6 0 11 4l42 31l42 -59l-39 -29q-30 -23 -67 -23zM192 -204q-28 0 -49 21t-21 49q0 29 21 49.5t49 20.5q29 0 49.5 -20.5t20.5 -49.5q0 -28 -20.5 -49t-49.5 -21z" />
    <glyph glyph-name="uni1E48" unicode="&#x1e48;" 
d="M10 0l149 700h165l40 -664h12l141 664h84l-149 -700h-165l-40 664h-12l-141 -664h-84zM82 -130v66h282v-66h-282z" />
    <glyph glyph-name="uni1E49" unicode="&#x1e49;" 
d="M443 -14q-29 0 -54 16t-25 57q0 13 4 32l45 207q3 14 4 23.5t1 19.5q0 48 -29 71.5t-79 23.5q-67 0 -110.5 -48.5t-59.5 -123.5l-56 -264h-78l106 496h78l-15 -72h12q25 45 65.5 65.5t85.5 20.5q43 0 79 -18t57.5 -53t21.5 -86q0 -24 -6 -53l-48 -222q-3 -16 12 -16
q6 0 11 4l42 31l42 -59l-39 -29q-30 -23 -67 -23zM66 -130v66h282v-66h-282z" />
    <glyph glyph-name="uni1E5A" unicode="&#x1e5a;" 
d="M8 0l149 700h237q89 0 138.5 -45.5t49.5 -125.5q0 -66 -35 -114t-95 -73v-12q25 -2 39 -16.5t14 -39.5q0 -8 -3 -22l-54 -252h-84l50 234q2 8 2 19q0 35 -42 35h-221l-61 -288h-84zM170 366h154q50 0 89 20t61.5 55t22.5 79q0 102 -119 102h-154zM227 -204q-28 0 -49 21
t-21 49q0 29 21 49.5t49 20.5q29 0 49.5 -20.5t20.5 -49.5q0 -28 -20.5 -49t-49.5 -21z" />
    <glyph glyph-name="uni1E5B" unicode="&#x1e5b;" 
d="M0 0v72h122l72 338q3 12 -3 18.5t-15 6.5q-7 0 -15 -5l-91 -62l-40 59l89 60q34 23 69 23q31 0 54 -17.5t26 -56.5h12q29 41 65 57.5t75 16.5q71 0 112.5 -41.5t41.5 -109.5q0 -26 -6 -53l-85 -6q2 11 3.5 21.5t1.5 20.5q0 48 -27 71t-68 23q-40 0 -70 -19.5t-49 -52
t-27 -70.5l-47 -222h118v-72h-318zM118 -204q-28 0 -49 21t-21 49q0 29 21 49.5t49 20.5q29 0 49.5 -20.5t20.5 -49.5q0 -28 -20.5 -49t-49.5 -21z" />
    <glyph glyph-name="uni1E5C" unicode="&#x1e5c;" 
d="M8 0l149 700h237q89 0 138.5 -45.5t49.5 -125.5q0 -66 -35 -114t-95 -73v-12q25 -2 39 -16.5t14 -39.5q0 -8 -3 -22l-54 -252h-84l50 234q2 8 2 19q0 35 -42 35h-221l-61 -288h-84zM170 366h154q50 0 89 20t61.5 55t22.5 79q0 102 -119 102h-154zM225 774v66h282v-66
h-282zM227 -204q-28 0 -49 21t-21 49q0 29 21 49.5t49 20.5q29 0 49.5 -20.5t20.5 -49.5q0 -28 -20.5 -49t-49.5 -21z" />
    <glyph glyph-name="uni1E5D" unicode="&#x1e5d;" 
d="M0 0v72h122l72 338q3 12 -3 18.5t-15 6.5q-7 0 -15 -5l-91 -62l-40 59l89 60q34 23 69 23q31 0 54 -17.5t26 -56.5h12q29 41 65 57.5t75 16.5q71 0 112.5 -41.5t41.5 -109.5q0 -26 -6 -53l-85 -6q2 11 3.5 21.5t1.5 20.5q0 48 -27 71t-68 23q-40 0 -70 -19.5t-49 -52
t-27 -70.5l-47 -222h118v-72h-318zM243 570v66h282v-66h-282zM118 -204q-28 0 -49 21t-21 49q0 29 21 49.5t49 20.5q29 0 49.5 -20.5t20.5 -49.5q0 -28 -20.5 -49t-49.5 -21z" />
    <glyph glyph-name="uni1E5E" unicode="&#x1e5e;" 
d="M8 0l149 700h237q89 0 138.5 -45.5t49.5 -125.5q0 -66 -35 -114t-95 -73v-12q25 -2 39 -16.5t14 -39.5q0 -8 -3 -22l-54 -252h-84l50 234q2 8 2 19q0 35 -42 35h-221l-61 -288h-84zM170 366h154q50 0 89 20t61.5 55t22.5 79q0 102 -119 102h-154zM82 -130v66h282v-66
h-282z" />
    <glyph glyph-name="uni1E5F" unicode="&#x1e5f;" 
d="M0 0v72h122l72 338q3 12 -3 18.5t-15 6.5q-7 0 -15 -5l-91 -62l-40 59l89 60q34 23 69 23q31 0 54 -17.5t26 -56.5h12q29 41 65 57.5t75 16.5q71 0 112.5 -41.5t41.5 -109.5q0 -26 -6 -53l-85 -6q2 11 3.5 21.5t1.5 20.5q0 48 -27 71t-68 23q-40 0 -70 -19.5t-49 -52
t-27 -70.5l-47 -222h118v-72h-318zM8 -130v66h282v-66h-282z" />
    <glyph glyph-name="uni1E60" unicode="&#x1e60;" 
d="M249 -14q-115 0 -172.5 55t-57.5 140q0 30 6 61l6 30h84l-5 -24q-6 -30 -6 -55q0 -66 40.5 -97.5t114.5 -31.5q48 0 90 17t68.5 49.5t26.5 76.5q0 56 -36 81t-123 38q-83 14 -136 54.5t-53 119.5q0 68 36 116t97.5 73t137.5 25q70 0 119 -24t75 -63.5t26 -88.5
q0 -10 -1 -20t-3 -20l-8 -36h-84l6 26q4 20 4 34q0 58 -41.5 86t-99.5 28q-44 0 -85 -14.5t-67 -41.5t-26 -67q0 -58 45 -81.5t126 -37.5q92 -15 135 -59.5t43 -117.5q0 -74 -37 -126t-101 -78.5t-144 -26.5zM367 774q-28 0 -49 21t-21 49q0 29 21 49.5t49 20.5
q29 0 49.5 -20.5t20.5 -49.5q0 -28 -20.5 -49t-49.5 -21z" />
    <glyph glyph-name="uni1E61" unicode="&#x1e61;" 
d="M261 -14q-67 0 -109 23t-61 59.5t-19 76.5v10.5t1 10.5l78 10q-1 -7 -1 -9.5v-6.5q0 -43 28 -72.5t98 -29.5q31 0 63 10t53.5 30.5t21.5 53.5q0 39 -31.5 53t-93.5 18q-70 5 -111 34.5t-41 90.5q0 47 26 83.5t73 57.5t110 21q62 0 101 -21t57.5 -53.5t18.5 -68.5v-11
l-77 -11l0.5 4t0.5 7q0 38 -28.5 61t-82.5 23q-27 0 -55 -9t-46.5 -27t-18.5 -46q0 -32 28.5 -48t98.5 -21q71 -5 111 -36t40 -91q0 -56 -30 -95.5t-82.5 -60t-120.5 -20.5zM388 574q-28 0 -49 21t-21 49q0 29 21 49.5t49 20.5q29 0 49.5 -20.5t20.5 -49.5q0 -28 -20.5 -49
t-49.5 -21z" />
    <glyph glyph-name="uni1E62" unicode="&#x1e62;" 
d="M249 -14q-115 0 -172.5 55t-57.5 140q0 30 6 61l6 30h84l-5 -24q-6 -30 -6 -55q0 -66 40.5 -97.5t114.5 -31.5q48 0 90 17t68.5 49.5t26.5 76.5q0 56 -36 81t-123 38q-83 14 -136 54.5t-53 119.5q0 68 36 116t97.5 73t137.5 25q70 0 119 -24t75 -63.5t26 -88.5
q0 -10 -1 -20t-3 -20l-8 -36h-84l6 26q4 20 4 34q0 58 -41.5 86t-99.5 28q-44 0 -85 -14.5t-67 -41.5t-26 -67q0 -58 45 -81.5t126 -37.5q92 -15 135 -59.5t43 -117.5q0 -74 -37 -126t-101 -78.5t-144 -26.5zM249 -204q-28 0 -49 21t-21 49q0 29 21 49.5t49 20.5
q29 0 49.5 -20.5t20.5 -49.5q0 -28 -20.5 -49t-49.5 -21z" />
    <glyph glyph-name="uni1E63" unicode="&#x1e63;" 
d="M261 -14q-67 0 -109 23t-61 59.5t-19 76.5v10.5t1 10.5l78 10q-1 -7 -1 -9.5v-6.5q0 -43 28 -72.5t98 -29.5q31 0 63 10t53.5 30.5t21.5 53.5q0 39 -31.5 53t-93.5 18q-70 5 -111 34.5t-41 90.5q0 47 26 83.5t73 57.5t110 21q62 0 101 -21t57.5 -53.5t18.5 -68.5v-11
l-77 -11l0.5 4t0.5 7q0 38 -28.5 61t-82.5 23q-27 0 -55 -9t-46.5 -27t-18.5 -46q0 -32 28.5 -48t98.5 -21q71 -5 111 -36t40 -91q0 -56 -30 -95.5t-82.5 -60t-120.5 -20.5zM223 -204q-28 0 -49 21t-21 49q0 29 21 49.5t49 20.5q29 0 49.5 -20.5t20.5 -49.5q0 -28 -20.5 -49
t-49.5 -21z" />
    <glyph glyph-name="uni1E6C" unicode="&#x1e6c;" 
d="M187 0l132 622h-216v78h503v-78h-203l-132 -622h-84zM209 -204q-28 0 -49 21t-21 49q0 29 21 49.5t49 20.5q29 0 49.5 -20.5t20.5 -49.5q0 -28 -20.5 -49t-49.5 -21z" />
    <glyph glyph-name="uni1E6D" unicode="&#x1e6d;" 
d="M254 -14q-34 0 -59.5 21t-25.5 63q0 7 1.5 15t2.5 15l68 324h-156v72h172l46 218h78l-46 -218h176v-72h-192l-71 -337q-3 -12 2.5 -19t14.5 -7q7 0 15 5l133 90l40 -59l-133 -90q-31 -21 -66 -21zM203 -204q-28 0 -49 21t-21 49q0 29 21 49.5t49 20.5q29 0 49.5 -20.5
t20.5 -49.5q0 -28 -20.5 -49t-49.5 -21z" />
    <glyph glyph-name="uni1E6E" unicode="&#x1e6e;" 
d="M187 0l132 622h-216v78h503v-78h-203l-132 -622h-84zM82 -130v66h282v-66h-282z" />
    <glyph glyph-name="uni1E6F" unicode="&#x1e6f;" 
d="M254 -14q-34 0 -59.5 21t-25.5 63q0 7 1.5 15t2.5 15l68 324h-156v72h172l46 218h78l-46 -218h176v-72h-192l-71 -337q-3 -12 2.5 -19t14.5 -7q7 0 15 5l133 90l40 -59l-133 -90q-31 -21 -66 -21zM125 -130v66h282v-66h-282z" />
    <glyph glyph-name="Wgrave" unicode="&#x1e80;" 
d="M12 0l83 700h76l-79 -664h12l196 664h156l-84 -664h12l202 664h78l-214 -700h-154l81 664h-12l-199 -664h-154zM352 774l-59 118h84l41 -118h-66z" />
    <glyph glyph-name="wgrave" unicode="&#x1e81;" 
d="M49 0l45 496h71l-47 -460h12l154 460h145l-39 -460h12l149 470l68 -21l-159 -485h-140l37 460h-12l-156 -460h-140zM333 570l-59 118h84l41 -118h-66z" />
    <glyph glyph-name="Wacute" unicode="&#x1e82;" 
d="M12 0l83 700h76l-79 -664h12l196 664h156l-84 -664h12l202 664h78l-214 -700h-154l81 664h-12l-199 -664h-154zM350 774l91 118h92v-6l-103 -112h-80z" />
    <glyph glyph-name="wacute" unicode="&#x1e83;" 
d="M49 0l45 496h71l-47 -460h12l154 460h145l-39 -460h12l149 470l68 -21l-159 -485h-140l37 460h-12l-156 -460h-140zM340 570l91 118h92v-6l-103 -112h-80z" />
    <glyph glyph-name="Wdieresis" unicode="&#x1e84;" 
d="M12 0l83 700h76l-79 -664h12l196 664h156l-84 -664h12l202 664h78l-214 -700h-154l81 664h-12l-199 -664h-154zM295 774q-28 0 -49 21t-21 49q0 29 21 49.5t49 20.5q29 0 49.5 -20.5t20.5 -49.5q0 -28 -20.5 -49t-49.5 -21zM495 774q-28 0 -49 21t-21 49q0 29 21 49.5
t49 20.5q29 0 49.5 -20.5t20.5 -49.5q0 -28 -20.5 -49t-49.5 -21z" />
    <glyph glyph-name="wdieresis" unicode="&#x1e85;" 
d="M49 0l45 496h71l-47 -460h12l154 460h145l-39 -460h12l149 470l68 -21l-159 -485h-140l37 460h-12l-156 -460h-140zM276 574q-28 0 -49 21t-21 49q0 29 21 49.5t49 20.5q29 0 49.5 -20.5t20.5 -49.5q0 -28 -20.5 -49t-49.5 -21zM476 574q-28 0 -49 21t-21 49
q0 29 21 49.5t49 20.5q29 0 49.5 -20.5t20.5 -49.5q0 -28 -20.5 -49t-49.5 -21z" />
    <glyph glyph-name="uni1E8E" unicode="&#x1e8e;" 
d="M184 0l52 246h-18l-122 454h87l98 -382h12l260 382h97v-6l-312 -448h-18l-52 -246h-84zM380 774q-28 0 -49 21t-21 49q0 29 21 49.5t49 20.5q29 0 49.5 -20.5t20.5 -49.5q0 -28 -20.5 -49t-49.5 -21z" />
    <glyph glyph-name="uni1E8F" unicode="&#x1e8f;" 
d="M103 -200v72h258q27 0 33 30l38 176h-12q-30 -45 -71.5 -68.5t-98.5 -23.5q-67 0 -107 40t-40 113q0 30 7 61l45 214q2 10 -2.5 15.5t-11.5 5.5q-6 0 -13 -5l-51 -35l-40 59l52 35q32 21 63 21q33 0 57 -22t24 -61q0 -6 -0.5 -11.5t-2.5 -14.5l-40 -191q-7 -31 -7 -58
q0 -92 99 -92q69 0 118 48.5t66 129.5l54 258h78l-131 -618q-7 -34 -33 -56t-60 -22h-271zM392 574q-28 0 -49 21t-21 49q0 29 21 49.5t49 20.5q29 0 49.5 -20.5t20.5 -49.5q0 -28 -20.5 -49t-49.5 -21z" />
    <glyph glyph-name="uni1E92" unicode="&#x1e92;" 
d="M5 0v126l515 484v12h-386v78h458v-126l-515 -484v-12h422v-78h-494zM252 -204q-28 0 -49 21t-21 49q0 29 21 49.5t49 20.5q29 0 49.5 -20.5t20.5 -49.5q0 -28 -20.5 -49t-49.5 -21z" />
    <glyph glyph-name="uni1E93" unicode="&#x1e93;" 
d="M64 0v130l408 282v12h-338v72h404v-126l-408 -286v-12h355v-72h-421zM274 -204q-28 0 -49 21t-21 49q0 29 21 49.5t49 20.5q29 0 49.5 -20.5t20.5 -49.5q0 -28 -20.5 -49t-49.5 -21z" />
    <glyph glyph-name="uni1E97" unicode="&#x1e97;" 
d="M254 -14q-34 0 -59.5 21t-25.5 63q0 7 1.5 15t2.5 15l68 324h-156v72h172l46 218h78l-46 -218h176v-72h-192l-71 -337q-3 -12 2.5 -19t14.5 -7q7 0 15 5l133 90l40 -59l-133 -90q-31 -21 -66 -21zM263 774q-28 0 -49 21t-21 49q0 29 21 49.5t49 20.5q29 0 49.5 -20.5
t20.5 -49.5q0 -28 -20.5 -49t-49.5 -21zM463 774q-28 0 -49 21t-21 49q0 29 21 49.5t49 20.5q29 0 49.5 -20.5t20.5 -49.5q0 -28 -20.5 -49t-49.5 -21z" />
    <glyph glyph-name="uni1E9E" unicode="&#x1e9e;" 
d="M21 0l89 418h-60v78h77l3 14q41 190 236 190h210v-124l-248 -150v-12h46q72 0 121 -43t49 -135q0 -70 -35 -123t-100 -83t-155 -30h-71v78h86q85 0 138 42t53 114q0 59 -31.5 86.5t-88.5 27.5h-78v120l242 143v11h-144q-60 0 -97.5 -30t-51.5 -96l-106 -496h-84z" />
    <glyph glyph-name="uni1EA0" unicode="&#x1ea0;" 
d="M-42 0l347 700h160l50 -700h-85l-11 174h-281l-85 -174h-95zM176 252h238l-26 411h-12zM246 -204q-28 0 -49 21t-21 49q0 29 21 49.5t49 20.5q29 0 49.5 -20.5t20.5 -49.5q0 -28 -20.5 -49t-49.5 -21z" />
    <glyph glyph-name="uni1EA1" unicode="&#x1ea1;" 
d="M184 -14q-80 0 -126 55t-46 143q0 63 17.5 121.5t52.5 104.5t86 73t118 27q51 0 87.5 -23.5t46.5 -68.5h12l16 78h78l-88 -412q-2 -9 2 -13.5t11 -4.5t14 5l36 26l42 -59l-45 -34q-25 -18 -61 -18q-29 0 -54.5 16.5t-25.5 55.5q0 5 0.5 10t1.5 10h-12q-31 -52 -73.5 -72
t-89.5 -20zM208 60q54 0 98 31.5t70 86t26 121.5q0 62 -28 99.5t-87 37.5q-62 0 -105 -34t-65.5 -89.5t-22.5 -118.5q0 -134 114 -134zM184 -204q-28 0 -49 21t-21 49q0 29 21 49.5t49 20.5q29 0 49.5 -20.5t20.5 -49.5q0 -28 -20.5 -49t-49.5 -21z" />
    <glyph glyph-name="uni1EA2" unicode="&#x1ea2;" 
d="M360 750v92l5 6h72q9 -15 28 -15q38 0 38 41q0 18 -11 29t-31 11q-18 0 -30 -11t-17 -29l-45 18q12 30 35 50t63 20q39 0 64.5 -24t25.5 -60q0 -37 -24 -64.5t-60 -27.5q-45 0 -58 32h-6v-68h-49zM-42 0l347 700h160l50 -700h-85l-11 174h-281l-85 -174h-95zM176 252h238
l-26 411h-12z" />
    <glyph glyph-name="uni1EA3" unicode="&#x1ea3;" 
d="M262 546v92l5 6h72q9 -15 28 -15q38 0 38 41q0 18 -11 29t-31 11q-18 0 -30 -11t-17 -29l-45 18q12 30 35 50t63 20q39 0 64.5 -24t25.5 -60q0 -37 -24 -64.5t-60 -27.5q-45 0 -58 32h-6v-68h-49zM184 -14q-80 0 -126 55t-46 143q0 63 17.5 121.5t52.5 104.5t86 73
t118 27q51 0 87.5 -23.5t46.5 -68.5h12l16 78h78l-88 -412q-2 -9 2 -13.5t11 -4.5t14 5l36 26l42 -59l-45 -34q-25 -18 -61 -18q-29 0 -54.5 16.5t-25.5 55.5q0 5 0.5 10t1.5 10h-12q-31 -52 -73.5 -72t-89.5 -20zM208 60q54 0 98 31.5t70 86t26 121.5q0 62 -28 99.5
t-87 37.5q-62 0 -105 -34t-65.5 -89.5t-22.5 -118.5q0 -134 114 -134z" />
    <glyph glyph-name="uni1EA4" unicode="&#x1ea4;" 
d="M-42 0l347 700h160l50 -700h-85l-11 174h-281l-85 -174h-95zM176 252h238l-26 411h-12zM261 774v6l100 112h124l55 -118h-75l-39 88h-12l-68 -88h-85zM535 862l91 118h92v-6l-103 -112h-80z" />
    <glyph glyph-name="uni1EA5" unicode="&#x1ea5;" 
d="M184 -14q-80 0 -126 55t-46 143q0 63 17.5 121.5t52.5 104.5t86 73t118 27q51 0 87.5 -23.5t46.5 -68.5h12l16 78h78l-88 -412q-2 -9 2 -13.5t11 -4.5t14 5l36 26l42 -59l-45 -34q-25 -18 -61 -18q-29 0 -54.5 16.5t-25.5 55.5q0 5 0.5 10t1.5 10h-12q-31 -52 -73.5 -72
t-89.5 -20zM208 60q54 0 98 31.5t70 86t26 121.5q0 62 -28 99.5t-87 37.5q-62 0 -105 -34t-65.5 -89.5t-22.5 -118.5q0 -134 114 -134zM434 658l91 118h92v-6l-103 -112h-80zM160 570v6l100 112h124l55 -118h-75l-39 88h-12l-68 -88h-85z" />
    <glyph glyph-name="uni1EA6" unicode="&#x1ea6;" 
d="M-42 0l347 700h160l50 -700h-85l-11 174h-281l-85 -174h-95zM176 252h238l-26 411h-12zM229 858l-59 118h84l41 -118h-66zM261 774v6l100 112h124l55 -118h-75l-39 88h-12l-68 -88h-85z" />
    <glyph glyph-name="uni1EA7" unicode="&#x1ea7;" 
d="M184 -14q-80 0 -126 55t-46 143q0 63 17.5 121.5t52.5 104.5t86 73t118 27q51 0 87.5 -23.5t46.5 -68.5h12l16 78h78l-88 -412q-2 -9 2 -13.5t11 -4.5t14 5l36 26l42 -59l-45 -34q-25 -18 -61 -18q-29 0 -54.5 16.5t-25.5 55.5q0 5 0.5 10t1.5 10h-12q-31 -52 -73.5 -72
t-89.5 -20zM208 60q54 0 98 31.5t70 86t26 121.5q0 62 -28 99.5t-87 37.5q-62 0 -105 -34t-65.5 -89.5t-22.5 -118.5q0 -134 114 -134zM131 658l-59 118h84l41 -118h-66zM160 570v6l100 112h124l55 -118h-75l-39 88h-12l-68 -88h-85z" />
    <glyph glyph-name="uni1EA8" unicode="&#x1ea8;" 
d="M537 858v92l5 6h72q9 -15 28 -15q38 0 38 41q0 18 -11 29t-31 11q-18 0 -30 -11t-17 -29l-45 18q12 30 35 50t63 20q39 0 64.5 -24t25.5 -60q0 -37 -24 -64.5t-60 -27.5q-45 0 -58 32h-6v-68h-49zM261 774v6l100 112h124l55 -118h-75l-39 88h-12l-68 -88h-85zM-42 0
l347 700h160l50 -700h-85l-11 174h-281l-85 -174h-95zM176 252h238l-26 411h-12z" />
    <glyph glyph-name="uni1EA9" unicode="&#x1ea9;" 
d="M434 658v92l5 6h72q9 -15 28 -15q38 0 38 41q0 18 -11 29t-31 11q-18 0 -30 -11t-17 -29l-45 18q12 30 35 50t63 20q39 0 64.5 -24t25.5 -60q0 -37 -24 -64.5t-60 -27.5q-45 0 -58 32h-6v-68h-49zM160 570v6l100 112h124l55 -118h-75l-39 88h-12l-68 -88h-85zM184 -14
q-80 0 -126 55t-46 143q0 63 17.5 121.5t52.5 104.5t86 73t118 27q51 0 87.5 -23.5t46.5 -68.5h12l16 78h78l-88 -412q-2 -9 2 -13.5t11 -4.5t14 5l36 26l42 -59l-45 -34q-25 -18 -61 -18q-29 0 -54.5 16.5t-25.5 55.5q0 5 0.5 10t1.5 10h-12q-31 -52 -73.5 -72t-89.5 -20z
M208 60q54 0 98 31.5t70 86t26 121.5q0 62 -28 99.5t-87 37.5q-62 0 -105 -34t-65.5 -89.5t-22.5 -118.5q0 -134 114 -134z" />
    <glyph glyph-name="uni1EAA" unicode="&#x1eaa;" 
d="M-42 0l347 700h160l50 -700h-85l-11 174h-281l-85 -174h-95zM176 252h238l-26 411h-12zM241 730v6l100 112h124l55 -118h-75l-39 88h-12l-68 -88h-85zM488 878q-31 0 -47.5 14t-33.5 45q-7 12 -11.5 17t-12.5 5q-11 0 -22 -12l-46 -53l-49 42l41 49q14 17 33 29.5
t46 12.5q29 0 46 -14.5t35 -46.5q5 -10 10 -15t14 -5q10 0 19 10l48 55l49 -42l-41 -49q-14 -17 -33 -29.5t-45 -12.5z" />
    <glyph glyph-name="uni1EAB" unicode="&#x1eab;" 
d="M399 718q-31 0 -47.5 14t-33.5 45q-7 12 -11.5 17t-12.5 5q-11 0 -22 -12l-46 -53l-49 42l41 49q14 17 33 29.5t46 12.5q29 0 46 -14.5t35 -46.5q5 -10 10 -15t14 -5q10 0 19 10l48 55l49 -42l-41 -49q-14 -17 -33 -29.5t-45 -12.5zM184 -14q-80 0 -126 55t-46 143
q0 63 17.5 121.5t52.5 104.5t86 73t118 27q51 0 87.5 -23.5t46.5 -68.5h12l16 78h78l-88 -412q-2 -9 2 -13.5t11 -4.5t14 5l36 26l42 -59l-45 -34q-25 -18 -61 -18q-29 0 -54.5 16.5t-25.5 55.5q0 5 0.5 10t1.5 10h-12q-31 -52 -73.5 -72t-89.5 -20zM208 60q54 0 98 31.5
t70 86t26 121.5q0 62 -28 99.5t-87 37.5q-62 0 -105 -34t-65.5 -89.5t-22.5 -118.5q0 -134 114 -134zM160 570v6l100 112h124l55 -118h-75l-39 88h-12l-68 -88h-85z" />
    <glyph glyph-name="uni1EAC" unicode="&#x1eac;" 
d="M-42 0l347 700h160l50 -700h-85l-11 174h-281l-85 -174h-95zM176 252h238l-26 411h-12zM261 774v6l100 112h124l55 -118h-75l-39 88h-12l-68 -88h-85zM246 -204q-28 0 -49 21t-21 49q0 29 21 49.5t49 20.5q29 0 49.5 -20.5t20.5 -49.5q0 -28 -20.5 -49t-49.5 -21z" />
    <glyph glyph-name="uni1EAD" unicode="&#x1ead;" 
d="M184 -14q-80 0 -126 55t-46 143q0 63 17.5 121.5t52.5 104.5t86 73t118 27q51 0 87.5 -23.5t46.5 -68.5h12l16 78h78l-88 -412q-2 -9 2 -13.5t11 -4.5t14 5l36 26l42 -59l-45 -34q-25 -18 -61 -18q-29 0 -54.5 16.5t-25.5 55.5q0 5 0.5 10t1.5 10h-12q-31 -52 -73.5 -72
t-89.5 -20zM208 60q54 0 98 31.5t70 86t26 121.5q0 62 -28 99.5t-87 37.5q-62 0 -105 -34t-65.5 -89.5t-22.5 -118.5q0 -134 114 -134zM160 570v6l100 112h124l55 -118h-75l-39 88h-12l-68 -88h-85zM184 -204q-28 0 -49 21t-21 49q0 29 21 49.5t49 20.5q29 0 49.5 -20.5
t20.5 -49.5q0 -28 -20.5 -49t-49.5 -21z" />
    <glyph glyph-name="uni1EAE" unicode="&#x1eae;" 
d="M-42 0l347 700h160l50 -700h-85l-11 174h-281l-85 -174h-95zM176 252h238l-26 411h-12zM390 730q-49 0 -75 30.5t-17 73.5l3 14h68l-3 -11q-5 -19 4.5 -30.5t29.5 -11.5q22 0 32 12.5t14 28.5l3 12h70l-3 -14q-11 -51 -41.5 -77.5t-84.5 -26.5zM376 878l91 118h92v-6
l-103 -112h-80z" />
    <glyph glyph-name="uni1EAF" unicode="&#x1eaf;" 
d="M184 -14q-80 0 -126 55t-46 143q0 63 17.5 121.5t52.5 104.5t86 73t118 27q51 0 87.5 -23.5t46.5 -68.5h12l16 78h78l-88 -412q-2 -9 2 -13.5t11 -4.5t14 5l36 26l42 -59l-45 -34q-25 -18 -61 -18q-29 0 -54.5 16.5t-25.5 55.5q0 5 0.5 10t1.5 10h-12q-31 -52 -73.5 -72
t-89.5 -20zM208 60q54 0 98 31.5t70 86t26 121.5q0 62 -28 99.5t-87 37.5q-62 0 -105 -34t-65.5 -89.5t-22.5 -118.5q0 -134 114 -134zM314 570q-49 0 -75 30.5t-17 73.5l3 14h68l-3 -11q-5 -19 4.5 -30.5t29.5 -11.5q22 0 32 12.5t14 28.5l3 12h70l-3 -14
q-11 -51 -41.5 -77.5t-84.5 -26.5zM301 718l91 118h92v-6l-103 -112h-80z" />
    <glyph glyph-name="uni1EB0" unicode="&#x1eb0;" 
d="M-42 0l347 700h160l50 -700h-85l-11 174h-281l-85 -174h-95zM176 252h238l-26 411h-12zM376 878l-59 118h84l41 -118h-66zM390 730q-49 0 -75 30.5t-17 73.5l3 14h68l-3 -11q-5 -19 4.5 -30.5t29.5 -11.5q22 0 32 12.5t14 28.5l3 12h70l-3 -14q-11 -51 -41.5 -77.5
t-84.5 -26.5z" />
    <glyph glyph-name="uni1EB1" unicode="&#x1eb1;" 
d="M304 718l-59 118h84l41 -118h-66zM314 570q-49 0 -75 30.5t-17 73.5l3 14h68l-3 -11q-5 -19 4.5 -30.5t29.5 -11.5q22 0 32 12.5t14 28.5l3 12h70l-3 -14q-11 -51 -41.5 -77.5t-84.5 -26.5zM184 -14q-80 0 -126 55t-46 143q0 63 17.5 121.5t52.5 104.5t86 73t118 27
q51 0 87.5 -23.5t46.5 -68.5h12l16 78h78l-88 -412q-2 -9 2 -13.5t11 -4.5t14 5l36 26l42 -59l-45 -34q-25 -18 -61 -18q-29 0 -54.5 16.5t-25.5 55.5q0 5 0.5 10t1.5 10h-12q-31 -52 -73.5 -72t-89.5 -20zM208 60q54 0 98 31.5t70 86t26 121.5q0 62 -28 99.5t-87 37.5
q-62 0 -105 -34t-65.5 -89.5t-22.5 -118.5q0 -134 114 -134z" />
    <glyph glyph-name="uni1EB2" unicode="&#x1eb2;" 
d="M393 878v92l5 6h72q9 -15 28 -15q38 0 38 41q0 18 -11 29t-31 11q-18 0 -30 -11t-17 -29l-45 18q12 30 35 50t63 20q39 0 64.5 -24t25.5 -60q0 -37 -24 -64.5t-60 -27.5q-45 0 -58 32h-6v-68h-49zM390 730q-49 0 -75 30.5t-17 73.5l3 14h68l-3 -11q-5 -19 4.5 -30.5
t29.5 -11.5q22 0 32 12.5t14 28.5l3 12h70l-3 -14q-11 -51 -41.5 -77.5t-84.5 -26.5zM-42 0l347 700h160l50 -700h-85l-11 174h-281l-85 -174h-95zM176 252h238l-26 411h-12z" />
    <glyph glyph-name="uni1EB3" unicode="&#x1eb3;" 
d="M312 718v92l5 6h72q7 -14 26 -14q18 0 29 12.5t11 29.5t-9.5 27.5t-26.5 10.5q-22 0 -34 -12.5t-19 -27.5l-44 18q13 30 38 50t64 20q38 0 62 -24t24 -60q0 -37 -26.5 -64.5t-64.5 -27.5q-39 0 -52 32h-6v-68h-49zM314 570q-49 0 -75 30.5t-17 73.5l3 14h68l-3 -11
q-5 -19 4.5 -30.5t29.5 -11.5q22 0 32 12.5t14 28.5l3 12h70l-3 -14q-11 -51 -41.5 -77.5t-84.5 -26.5zM184 -14q-80 0 -126 55t-46 143q0 63 17.5 121.5t52.5 104.5t86 73t118 27q51 0 87.5 -23.5t46.5 -68.5h12l16 78h78l-88 -412q-2 -9 2 -13.5t11 -4.5t14 5l36 26
l42 -59l-45 -34q-25 -18 -61 -18q-29 0 -54.5 16.5t-25.5 55.5q0 5 0.5 10t1.5 10h-12q-31 -52 -73.5 -72t-89.5 -20zM208 60q54 0 98 31.5t70 86t26 121.5q0 62 -28 99.5t-87 37.5q-62 0 -105 -34t-65.5 -89.5t-22.5 -118.5q0 -134 114 -134z" />
    <glyph glyph-name="uni1EB4" unicode="&#x1eb4;" 
d="M-42 0l347 700h160l50 -700h-85l-11 174h-281l-85 -174h-95zM176 252h238l-26 411h-12zM488 878q-31 0 -47.5 14t-33.5 45q-7 12 -11.5 17t-12.5 5q-11 0 -22 -12l-46 -53l-49 42l41 49q14 17 33 29.5t46 12.5q29 0 46 -14.5t35 -46.5q5 -10 10 -15t14 -5q10 0 19 10
l48 55l49 -42l-41 -49q-14 -17 -33 -29.5t-45 -12.5zM390 730q-49 0 -75 30.5t-17 73.5l3 14h68l-3 -11q-5 -19 4.5 -30.5t29.5 -11.5q22 0 32 12.5t14 28.5l3 12h70l-3 -14q-11 -51 -41.5 -77.5t-84.5 -26.5z" />
    <glyph glyph-name="uni1EB5" unicode="&#x1eb5;" 
d="M184 -14q-80 0 -126 55t-46 143q0 63 17.5 121.5t52.5 104.5t86 73t118 27q51 0 87.5 -23.5t46.5 -68.5h12l16 78h78l-88 -412q-2 -9 2 -13.5t11 -4.5t14 5l36 26l42 -59l-45 -34q-25 -18 -61 -18q-29 0 -54.5 16.5t-25.5 55.5q0 5 0.5 10t1.5 10h-12q-31 -52 -73.5 -72
t-89.5 -20zM208 60q54 0 98 31.5t70 86t26 121.5q0 62 -28 99.5t-87 37.5q-62 0 -105 -34t-65.5 -89.5t-22.5 -118.5q0 -134 114 -134zM399 718q-31 0 -47.5 14t-33.5 45q-7 12 -11.5 17t-12.5 5q-11 0 -22 -12l-46 -53l-49 42l41 49q14 17 33 29.5t46 12.5q29 0 46 -14.5
t35 -46.5q5 -10 10 -15t14 -5q10 0 19 10l48 55l49 -42l-41 -49q-14 -17 -33 -29.5t-45 -12.5zM314 570q-49 0 -75 30.5t-17 73.5l3 14h68l-3 -11q-5 -19 4.5 -30.5t29.5 -11.5q22 0 32 12.5t14 28.5l3 12h70l-3 -14q-11 -51 -41.5 -77.5t-84.5 -26.5z" />
    <glyph glyph-name="uni1EB6" unicode="&#x1eb6;" 
d="M-42 0l347 700h160l50 -700h-85l-11 174h-281l-85 -174h-95zM176 252h238l-26 411h-12zM246 -204q-28 0 -49 21t-21 49q0 29 21 49.5t49 20.5q29 0 49.5 -20.5t20.5 -49.5q0 -28 -20.5 -49t-49.5 -21zM399 774q-49 0 -75 30.5t-17 73.5l3 14h68l-3 -11q-5 -19 4.5 -30.5
t29.5 -11.5q22 0 32 12.5t14 28.5l3 12h70l-3 -14q-11 -51 -41.5 -77.5t-84.5 -26.5z" />
    <glyph glyph-name="uni1EB7" unicode="&#x1eb7;" 
d="M184 -14q-80 0 -126 55t-46 143q0 63 17.5 121.5t52.5 104.5t86 73t118 27q51 0 87.5 -23.5t46.5 -68.5h12l16 78h78l-88 -412q-2 -9 2 -13.5t11 -4.5t14 5l36 26l42 -59l-45 -34q-25 -18 -61 -18q-29 0 -54.5 16.5t-25.5 55.5q0 5 0.5 10t1.5 10h-12q-31 -52 -73.5 -72
t-89.5 -20zM208 60q54 0 98 31.5t70 86t26 121.5q0 62 -28 99.5t-87 37.5q-62 0 -105 -34t-65.5 -89.5t-22.5 -118.5q0 -134 114 -134zM314 570q-49 0 -75 30.5t-17 73.5l3 14h68l-3 -11q-5 -19 4.5 -30.5t29.5 -11.5q22 0 32 12.5t14 28.5l3 12h70l-3 -14
q-11 -51 -41.5 -77.5t-84.5 -26.5zM186 -204q-28 0 -49 21t-21 49q0 29 21 49.5t49 20.5q29 0 49.5 -20.5t20.5 -49.5q0 -28 -20.5 -49t-49.5 -21z" />
    <glyph glyph-name="uni1EB8" unicode="&#x1eb8;" 
d="M28 0l149 700h395v-78h-328l-49 -232h305v-78h-322l-49 -234h317v-78h-418zM244 -204q-28 0 -49 21t-21 49q0 29 21 49.5t49 20.5q29 0 49.5 -20.5t20.5 -49.5q0 -28 -20.5 -49t-49.5 -21z" />
    <glyph glyph-name="uni1EB9" unicode="&#x1eb9;" 
d="M236 -14q-59 0 -105.5 23.5t-72.5 68.5t-26 107q0 63 20 121t58.5 104t94 73t126.5 27q67 0 110.5 -26.5t64.5 -69.5t21 -91q0 -26 -6 -52l-11 -47h-398q-1 -8 -2.5 -18t-1.5 -21q0 -55 32 -90.5t102 -35.5q71 0 110.5 30.5t58.5 72.5l64 -36q-19 -39 -50 -71t-77 -50.5
t-112 -18.5zM129 296h318q3 17 3 30q0 54 -37 82t-92 28q-70 0 -121 -40t-71 -100zM202 -204q-28 0 -49 21t-21 49q0 29 21 49.5t49 20.5q29 0 49.5 -20.5t20.5 -49.5q0 -28 -20.5 -49t-49.5 -21z" />
    <glyph glyph-name="uni1EBA" unicode="&#x1eba;" 
d="M341 750v92l5 6h72q9 -15 28 -15q38 0 38 41q0 18 -11 29t-31 11q-18 0 -30 -11t-17 -29l-45 18q12 30 35 50t63 20q39 0 64.5 -24t25.5 -60q0 -37 -24 -64.5t-60 -27.5q-45 0 -58 32h-6v-68h-49zM28 0l149 700h395v-78h-328l-49 -232h305v-78h-322l-49 -234h317v-78
h-418z" />
    <glyph glyph-name="uni1EBB" unicode="&#x1ebb;" 
d="M308 546v92l5 6h72q9 -15 28 -15q38 0 38 41q0 18 -11 29t-31 11q-18 0 -30 -11t-17 -29l-45 18q12 30 35 50t63 20q39 0 64.5 -24t25.5 -60q0 -37 -24 -64.5t-60 -27.5q-45 0 -58 32h-6v-68h-49zM236 -14q-59 0 -105.5 23.5t-72.5 68.5t-26 107q0 63 20 121t58.5 104
t94 73t126.5 27q67 0 110.5 -26.5t64.5 -69.5t21 -91q0 -26 -6 -52l-11 -47h-398q-1 -8 -2.5 -18t-1.5 -21q0 -55 32 -90.5t102 -35.5q71 0 110.5 30.5t58.5 72.5l64 -36q-19 -39 -50 -71t-77 -50.5t-112 -18.5zM129 296h318q3 17 3 30q0 54 -37 82t-92 28q-70 0 -121 -40
t-71 -100z" />
    <glyph glyph-name="uni1EBC" unicode="&#x1ebc;" 
d="M28 0l149 700h395v-78h-328l-49 -232h305v-78h-322l-49 -234h317v-78h-418zM441 758q-31 0 -47.5 14t-33.5 45q-7 12 -11.5 17t-12.5 5q-11 0 -22 -12l-46 -53l-49 42l41 49q14 17 33 29.5t46 12.5q29 0 46 -14.5t35 -46.5q5 -10 10 -15t14 -5q10 0 19 10l48 55l49 -42
l-41 -49q-14 -17 -33 -29.5t-45 -12.5z" />
    <glyph glyph-name="uni1EBD" unicode="&#x1ebd;" 
d="M236 -14q-59 0 -105.5 23.5t-72.5 68.5t-26 107q0 63 20 121t58.5 104t94 73t126.5 27q67 0 110.5 -26.5t64.5 -69.5t21 -91q0 -26 -6 -52l-11 -47h-398q-1 -8 -2.5 -18t-1.5 -21q0 -55 32 -90.5t102 -35.5q71 0 110.5 30.5t58.5 72.5l64 -36q-19 -39 -50 -71t-77 -50.5
t-112 -18.5zM129 296h318q3 17 3 30q0 54 -37 82t-92 28q-70 0 -121 -40t-71 -100zM428 551q-31 0 -47.5 14t-33.5 45q-7 12 -11.5 17t-12.5 5q-11 0 -22 -12l-46 -53l-49 42l41 49q14 17 33 29.5t46 12.5q29 0 46 -14.5t35 -46.5q5 -10 10 -15t14 -5q10 0 19 10l48 55
l49 -42l-41 -49q-14 -17 -33 -29.5t-45 -12.5z" />
    <glyph glyph-name="uni1EBE" unicode="&#x1ebe;" 
d="M28 0l149 700h395v-78h-328l-49 -232h305v-78h-322l-49 -234h317v-78h-418zM526 862l91 118h92v-6l-103 -112h-80zM252 774v6l100 112h124l55 -118h-75l-39 88h-12l-68 -88h-85z" />
    <glyph glyph-name="uni1EBF" unicode="&#x1ebf;" 
d="M236 -14q-59 0 -105.5 23.5t-72.5 68.5t-26 107q0 63 20 121t58.5 104t94 73t126.5 27q67 0 110.5 -26.5t64.5 -69.5t21 -91q0 -26 -6 -52l-11 -47h-398q-1 -8 -2.5 -18t-1.5 -21q0 -55 32 -90.5t102 -35.5q71 0 110.5 30.5t58.5 72.5l64 -36q-19 -39 -50 -71t-77 -50.5
t-112 -18.5zM129 296h318q3 17 3 30q0 54 -37 82t-92 28q-70 0 -121 -40t-71 -100zM213 570v6l100 112h124l55 -118h-75l-39 88h-12l-68 -88h-85zM483 658l91 118h92v-6l-103 -112h-80z" />
    <glyph glyph-name="uni1EC0" unicode="&#x1ec0;" 
d="M28 0l149 700h395v-78h-328l-49 -232h305v-78h-322l-49 -234h317v-78h-418zM219 862l-59 118h84l41 -118h-66zM252 774v6l100 112h124l55 -118h-75l-39 88h-12l-68 -88h-85z" />
    <glyph glyph-name="uni1EC1" unicode="&#x1ec1;" 
d="M236 -14q-59 0 -105.5 23.5t-72.5 68.5t-26 107q0 63 20 121t58.5 104t94 73t126.5 27q67 0 110.5 -26.5t64.5 -69.5t21 -91q0 -26 -6 -52l-11 -47h-398q-1 -8 -2.5 -18t-1.5 -21q0 -55 32 -90.5t102 -35.5q71 0 110.5 30.5t58.5 72.5l64 -36q-19 -39 -50 -71t-77 -50.5
t-112 -18.5zM129 296h318q3 17 3 30q0 54 -37 82t-92 28q-70 0 -121 -40t-71 -100zM213 570v6l100 112h124l55 -118h-75l-39 88h-12l-68 -88h-85zM169 658l-59 118h84l41 -118h-66z" />
    <glyph glyph-name="uni1EC2" unicode="&#x1ec2;" 
d="M528 858v92l5 6h72q9 -15 28 -15q38 0 38 41q0 18 -11 29t-31 11q-18 0 -30 -11t-17 -29l-45 18q12 30 35 50t63 20q39 0 64.5 -24t25.5 -60q0 -37 -24 -64.5t-60 -27.5q-45 0 -58 32h-6v-68h-49zM252 774v6l100 112h124l55 -118h-75l-39 88h-12l-68 -88h-85zM28 0
l149 700h395v-78h-328l-49 -232h305v-78h-322l-49 -234h317v-78h-418z" />
    <glyph glyph-name="uni1EC3" unicode="&#x1ec3;" 
d="M491 658v92l5 6h72q7 -14 26 -14q18 0 29 12.5t11 29.5t-9.5 27.5t-26.5 10.5q-22 0 -34 -12.5t-19 -27.5l-44 18q13 30 38 50t64 20q38 0 62 -24t24 -60q0 -37 -26.5 -64.5t-64.5 -27.5q-39 0 -52 32h-6v-68h-49zM213 570v6l100 112h124l55 -118h-75l-39 88h-12l-68 -88
h-85zM236 -14q-59 0 -105.5 23.5t-72.5 68.5t-26 107q0 63 20 121t58.5 104t94 73t126.5 27q67 0 110.5 -26.5t64.5 -69.5t21 -91q0 -26 -6 -52l-11 -47h-398q-1 -8 -2.5 -18t-1.5 -21q0 -55 32 -90.5t102 -35.5q71 0 110.5 30.5t58.5 72.5l64 -36q-19 -39 -50 -71
t-77 -50.5t-112 -18.5zM129 296h318q3 17 3 30q0 54 -37 82t-92 28q-70 0 -121 -40t-71 -100z" />
    <glyph glyph-name="uni1EC4" unicode="&#x1ec4;" 
d="M28 0l149 700h395v-78h-328l-49 -232h305v-78h-322l-49 -234h317v-78h-418zM244 730v6l100 112h124l55 -118h-75l-39 88h-12l-68 -88h-85zM488 877q-31 0 -47.5 14t-33.5 45q-7 12 -11.5 17t-12.5 5q-11 0 -22 -12l-46 -53l-49 42l41 49q14 17 33 29.5t46 12.5
q29 0 46 -14.5t35 -46.5q5 -10 10 -15t14 -5q10 0 19 10l48 55l49 -42l-41 -49q-14 -17 -33 -29.5t-45 -12.5z" />
    <glyph glyph-name="uni1EC5" unicode="&#x1ec5;" 
d="M236 -14q-59 0 -105.5 23.5t-72.5 68.5t-26 107q0 63 20 121t58.5 104t94 73t126.5 27q67 0 110.5 -26.5t64.5 -69.5t21 -91q0 -26 -6 -52l-11 -47h-398q-1 -8 -2.5 -18t-1.5 -21q0 -55 32 -90.5t102 -35.5q71 0 110.5 30.5t58.5 72.5l64 -36q-19 -39 -50 -71t-77 -50.5
t-112 -18.5zM129 296h318q3 17 3 30q0 54 -37 82t-92 28q-70 0 -121 -40t-71 -100zM213 570v6l100 112h124l55 -118h-75l-39 88h-12l-68 -88h-85zM442 718q-31 0 -47.5 14t-33.5 45q-7 12 -11.5 17t-12.5 5q-11 0 -22 -12l-46 -53l-49 42l41 49q14 17 33 29.5t46 12.5
q29 0 46 -14.5t35 -46.5q5 -10 10 -15t14 -5q10 0 19 10l48 55l49 -42l-41 -49q-14 -17 -33 -29.5t-45 -12.5z" />
    <glyph glyph-name="uni1EC6" unicode="&#x1ec6;" 
d="M28 0l149 700h395v-78h-328l-49 -232h305v-78h-322l-49 -234h317v-78h-418zM252 774v6l100 112h124l55 -118h-75l-39 88h-12l-68 -88h-85zM244 -204q-28 0 -49 21t-21 49q0 29 21 49.5t49 20.5q29 0 49.5 -20.5t20.5 -49.5q0 -28 -20.5 -49t-49.5 -21z" />
    <glyph glyph-name="uni1EC7" unicode="&#x1ec7;" 
d="M236 -14q-59 0 -105.5 23.5t-72.5 68.5t-26 107q0 63 20 121t58.5 104t94 73t126.5 27q67 0 110.5 -26.5t64.5 -69.5t21 -91q0 -26 -6 -52l-11 -47h-398q-1 -8 -2.5 -18t-1.5 -21q0 -55 32 -90.5t102 -35.5q71 0 110.5 30.5t58.5 72.5l64 -36q-19 -39 -50 -71t-77 -50.5
t-112 -18.5zM129 296h318q3 17 3 30q0 54 -37 82t-92 28q-70 0 -121 -40t-71 -100zM192 -204q-28 0 -49 21t-21 49q0 29 21 49.5t49 20.5q29 0 49.5 -20.5t20.5 -49.5q0 -28 -20.5 -49t-49.5 -21zM213 570v6l100 112h124l55 -118h-75l-39 88h-12l-68 -88h-85z" />
    <glyph glyph-name="uni1EC8" unicode="&#x1ec8;" 
d="M437 962q53 0 78.5 -28.5t25.5 -73.5q0 -30 -17.5 -52t-50.5 -22q-37 0 -54 32h-6l24 -68h-54l-30 86v12h75q4 -6 10.5 -10t16.5 -4q13 0 22.5 8t9.5 26q0 21 -12.5 33.5t-35.5 12.5q-22 0 -33 -11.5t-13 -27.5l-50 17q5 31 29.5 50.5t64.5 19.5zM32 0v78h174l115 544
h-174v78h432v-78h-174l-115 -544h174v-78h-432z" />
    <glyph glyph-name="uni1EC9" unicode="&#x1ec9;" 
d="M310 546v92l5 6h72q7 -14 26 -14q18 0 29 12.5t11 29.5t-9.5 27.5t-26.5 10.5q-22 0 -34 -12.5t-19 -27.5l-44 18q13 30 38 50t64 20q38 0 62 -24t24 -60q0 -37 -26.5 -64.5t-64.5 -27.5q-39 0 -52 32h-6v-68h-49zM293 -14q-34 0 -59 20.5t-25 61.5q0 16 4 32l74 309
q2 10 -2.5 17.5t-15.5 7.5q-8 0 -15 -4l-117 -80l-40 59l118 80q32 21 67 21q34 0 59 -20.5t25 -61.5q0 -16 -4 -32l-74 -309q-3 -12 2.5 -19t14.5 -7q7 0 15 5l115 78l40 -59l-115 -78q-31 -21 -67 -21z" />
    <glyph glyph-name="uni1ECA" unicode="&#x1eca;" 
d="M32 0v78h174l115 544h-174v78h432v-78h-174l-115 -544h174v-78h-432zM242 -204q-28 0 -49 21t-21 49q0 29 21 49.5t49 20.5q29 0 49.5 -20.5t20.5 -49.5q0 -28 -20.5 -49t-49.5 -21z" />
    <glyph glyph-name="uni1ECB" unicode="&#x1ecb;" 
d="M373 574q-28 0 -49 21t-21 49q0 29 21 49.5t49 20.5q29 0 49.5 -20.5t20.5 -49.5q0 -28 -20.5 -49t-49.5 -21zM293 -14q-34 0 -59 20.5t-25 61.5q0 16 4 32l74 309q2 10 -2.5 17.5t-15.5 7.5q-8 0 -15 -4l-117 -80l-40 59l118 80q32 21 67 21q34 0 59 -20.5t25 -61.5
q0 -16 -4 -32l-74 -309q-3 -12 2.5 -19t14.5 -7q7 0 15 5l115 78l40 -59l-115 -78q-31 -21 -67 -21zM208 -204q-28 0 -49 21t-21 49q0 29 21 49.5t49 20.5q29 0 49.5 -20.5t20.5 -49.5q0 -28 -20.5 -49t-49.5 -21z" />
    <glyph glyph-name="uni1ECC" unicode="&#x1ecc;" 
d="M236 -14q-97 0 -148.5 56t-51.5 153q0 20 2.5 42.5t7.5 45.5l31 145q29 140 103 213t197 73q97 0 148.5 -55.5t51.5 -153.5q0 -20 -2.5 -42.5t-7.5 -45.5l-31 -145q-29 -139 -103 -212.5t-197 -73.5zM248 62q83 0 133.5 59.5t71.5 156.5l32 150q4 19 6 36.5t2 33.5
q0 65 -32 102.5t-96 37.5q-82 0 -133 -59t-72 -157l-32 -150q-4 -19 -6 -36.5t-2 -33.5q0 -64 32 -102t96 -38zM222 -204q-28 0 -49 21t-21 49q0 29 21 49.5t49 20.5q29 0 49.5 -20.5t20.5 -49.5q0 -28 -20.5 -49t-49.5 -21z" />
    <glyph glyph-name="uni1ECD" unicode="&#x1ecd;" 
d="M223 -14q-56 0 -102 25t-73.5 70.5t-27.5 106.5q0 72 24.5 131t67 102t98.5 66t119 23q58 0 103.5 -26t72 -72t26.5 -106q0 -61 -20.5 -118.5t-60 -103t-96.5 -72t-131 -26.5zM240 60q62 0 109.5 34.5t74.5 89.5t27 116q0 59 -37 97.5t-102 38.5q-57 0 -104.5 -33
t-76.5 -87.5t-29 -119.5q0 -60 36 -98t102 -38zM192 -204q-28 0 -49 21t-21 49q0 29 21 49.5t49 20.5q29 0 49.5 -20.5t20.5 -49.5q0 -28 -20.5 -49t-49.5 -21z" />
    <glyph glyph-name="uni1ECE" unicode="&#x1ece;" 
d="M356 750v92l5 6h72q9 -15 28 -15q38 0 38 41q0 18 -11 29t-31 11q-18 0 -30 -11t-17 -29l-45 18q12 30 35 50t63 20q39 0 64.5 -24t25.5 -60q0 -37 -24 -64.5t-60 -27.5q-45 0 -58 32h-6v-68h-49zM236 -14q-97 0 -148.5 56t-51.5 153q0 20 2.5 42.5t7.5 45.5l31 145
q29 140 103 213t197 73q97 0 148.5 -55.5t51.5 -153.5q0 -20 -2.5 -42.5t-7.5 -45.5l-31 -145q-29 -139 -103 -212.5t-197 -73.5zM248 62q83 0 133.5 59.5t71.5 156.5l32 150q4 19 6 36.5t2 33.5q0 65 -32 102.5t-96 37.5q-82 0 -133 -59t-72 -157l-32 -150q-4 -19 -6 -36.5
t-2 -33.5q0 -64 32 -102t96 -38z" />
    <glyph glyph-name="uni1ECF" unicode="&#x1ecf;" 
d="M312 546v92l5 6h72q7 -14 26 -14q18 0 29 12.5t11 29.5t-9.5 27.5t-26.5 10.5q-22 0 -34 -12.5t-19 -27.5l-44 18q13 30 38 50t64 20q38 0 62 -24t24 -60q0 -37 -26.5 -64.5t-64.5 -27.5q-39 0 -52 32h-6v-68h-49zM223 -14q-56 0 -102 25t-73.5 70.5t-27.5 106.5
q0 72 24.5 131t67 102t98.5 66t119 23q58 0 103.5 -26t72 -72t26.5 -106q0 -61 -20.5 -118.5t-60 -103t-96.5 -72t-131 -26.5zM240 60q62 0 109.5 34.5t74.5 89.5t27 116q0 59 -37 97.5t-102 38.5q-57 0 -104.5 -33t-76.5 -87.5t-29 -119.5q0 -60 36 -98t102 -38z" />
    <glyph glyph-name="uni1ED0" unicode="&#x1ed0;" 
d="M236 -14q-97 0 -148.5 56t-51.5 153q0 20 2.5 42.5t7.5 45.5l31 145q29 140 103 213t197 73q97 0 148.5 -55.5t51.5 -153.5q0 -20 -2.5 -42.5t-7.5 -45.5l-31 -145q-29 -139 -103 -212.5t-197 -73.5zM248 62q83 0 133.5 59.5t71.5 156.5l32 150q4 19 6 36.5t2 33.5
q0 65 -32 102.5t-96 37.5q-82 0 -133 -59t-72 -157l-32 -150q-4 -19 -6 -36.5t-2 -33.5q0 -64 32 -102t96 -38zM262 774v6l100 112h124l55 -118h-75l-39 88h-12l-68 -88h-85zM536 862l91 118h92v-6l-103 -112h-80z" />
    <glyph glyph-name="uni1ED1" unicode="&#x1ed1;" 
d="M223 -14q-56 0 -102 25t-73.5 70.5t-27.5 106.5q0 72 24.5 131t67 102t98.5 66t119 23q58 0 103.5 -26t72 -72t26.5 -106q0 -61 -20.5 -118.5t-60 -103t-96.5 -72t-131 -26.5zM240 60q62 0 109.5 34.5t74.5 89.5t27 116q0 59 -37 97.5t-102 38.5q-57 0 -104.5 -33
t-76.5 -87.5t-29 -119.5q0 -60 36 -98t102 -38zM217 570v6l100 112h124l55 -118h-75l-39 88h-12l-68 -88h-85zM480 658l91 118h92v-6l-103 -112h-80z" />
    <glyph glyph-name="uni1ED2" unicode="&#x1ed2;" 
d="M236 -14q-97 0 -148.5 56t-51.5 153q0 20 2.5 42.5t7.5 45.5l31 145q29 140 103 213t197 73q97 0 148.5 -55.5t51.5 -153.5q0 -20 -2.5 -42.5t-7.5 -45.5l-31 -145q-29 -139 -103 -212.5t-197 -73.5zM248 62q83 0 133.5 59.5t71.5 156.5l32 150q4 19 6 36.5t2 33.5
q0 65 -32 102.5t-96 37.5q-82 0 -133 -59t-72 -157l-32 -150q-4 -19 -6 -36.5t-2 -33.5q0 -64 32 -102t96 -38zM262 774v6l100 112h124l55 -118h-75l-39 88h-12l-68 -88h-85zM230 862l-59 118h84l41 -118h-66z" />
    <glyph glyph-name="uni1ED3" unicode="&#x1ed3;" 
d="M223 -14q-56 0 -102 25t-73.5 70.5t-27.5 106.5q0 72 24.5 131t67 102t98.5 66t119 23q58 0 103.5 -26t72 -72t26.5 -106q0 -61 -20.5 -118.5t-60 -103t-96.5 -72t-131 -26.5zM240 60q62 0 109.5 34.5t74.5 89.5t27 116q0 59 -37 97.5t-102 38.5q-57 0 -104.5 -33
t-76.5 -87.5t-29 -119.5q0 -60 36 -98t102 -38zM217 570v6l100 112h124l55 -118h-75l-39 88h-12l-68 -88h-85zM181 658l-59 118h84l41 -118h-66z" />
    <glyph glyph-name="uni1ED4" unicode="&#x1ed4;" 
d="M538 858v92l5 6h72q9 -15 28 -15q38 0 38 41q0 18 -11 29t-31 11q-18 0 -30 -11t-17 -29l-45 18q12 30 35 50t63 20q39 0 64.5 -24t25.5 -60q0 -37 -24 -64.5t-60 -27.5q-45 0 -58 32h-6v-68h-49zM262 774v6l100 112h124l55 -118h-75l-39 88h-12l-68 -88h-85zM236 -14
q-97 0 -148.5 56t-51.5 153q0 20 2.5 42.5t7.5 45.5l31 145q29 140 103 213t197 73q97 0 148.5 -55.5t51.5 -153.5q0 -20 -2.5 -42.5t-7.5 -45.5l-31 -145q-29 -139 -103 -212.5t-197 -73.5zM248 62q83 0 133.5 59.5t71.5 156.5l32 150q4 19 6 36.5t2 33.5q0 65 -32 102.5
t-96 37.5q-82 0 -133 -59t-72 -157l-32 -150q-4 -19 -6 -36.5t-2 -33.5q0 -64 32 -102t96 -38z" />
    <glyph glyph-name="uni1ED5" unicode="&#x1ed5;" 
d="M495 658v92l5 6h72q7 -14 26 -14q18 0 29 12.5t11 29.5t-9.5 27.5t-26.5 10.5q-22 0 -34 -12.5t-19 -27.5l-44 18q13 30 38 50t64 20q38 0 62 -24t24 -60q0 -37 -26.5 -64.5t-64.5 -27.5q-39 0 -52 32h-6v-68h-49zM217 570v6l100 112h124l55 -118h-75l-39 88h-12l-68 -88
h-85zM223 -14q-56 0 -102 25t-73.5 70.5t-27.5 106.5q0 72 24.5 131t67 102t98.5 66t119 23q58 0 103.5 -26t72 -72t26.5 -106q0 -61 -20.5 -118.5t-60 -103t-96.5 -72t-131 -26.5zM240 60q62 0 109.5 34.5t74.5 89.5t27 116q0 59 -37 97.5t-102 38.5q-57 0 -104.5 -33
t-76.5 -87.5t-29 -119.5q0 -60 36 -98t102 -38z" />
    <glyph glyph-name="uni1ED6" unicode="&#x1ed6;" 
d="M236 -14q-97 0 -148.5 56t-51.5 153q0 20 2.5 42.5t7.5 45.5l31 145q29 140 103 213t197 73q97 0 148.5 -55.5t51.5 -153.5q0 -20 -2.5 -42.5t-7.5 -45.5l-31 -145q-29 -139 -103 -212.5t-197 -73.5zM248 62q83 0 133.5 59.5t71.5 156.5l32 150q4 19 6 36.5t2 33.5
q0 65 -32 102.5t-96 37.5q-82 0 -133 -59t-72 -157l-32 -150q-4 -19 -6 -36.5t-2 -33.5q0 -64 32 -102t96 -38zM239 730v6l100 112h124l55 -118h-75l-39 88h-12l-68 -88h-85zM483 877q-31 0 -47.5 14t-33.5 45q-7 12 -11.5 17t-12.5 5q-11 0 -22 -12l-46 -53l-49 42l41 49
q14 17 33 29.5t46 12.5q29 0 46 -14.5t35 -46.5q5 -10 10 -15t14 -5q10 0 19 10l48 55l49 -42l-41 -49q-14 -17 -33 -29.5t-45 -12.5z" />
    <glyph glyph-name="uni1ED7" unicode="&#x1ed7;" 
d="M223 -14q-56 0 -102 25t-73.5 70.5t-27.5 106.5q0 72 24.5 131t67 102t98.5 66t119 23q58 0 103.5 -26t72 -72t26.5 -106q0 -61 -20.5 -118.5t-60 -103t-96.5 -72t-131 -26.5zM240 60q62 0 109.5 34.5t74.5 89.5t27 116q0 59 -37 97.5t-102 38.5q-57 0 -104.5 -33
t-76.5 -87.5t-29 -119.5q0 -60 36 -98t102 -38zM217 570v6l100 112h124l55 -118h-75l-39 88h-12l-68 -88h-85zM456 718q-31 0 -47.5 14t-33.5 45q-7 12 -11.5 17t-12.5 5q-11 0 -22 -12l-46 -53l-49 42l41 49q14 17 33 29.5t46 12.5q29 0 46 -14.5t35 -46.5q5 -10 10 -15
t14 -5q10 0 19 10l48 55l49 -42l-41 -49q-14 -17 -33 -29.5t-45 -12.5z" />
    <glyph glyph-name="uni1ED8" unicode="&#x1ed8;" 
d="M236 -14q-97 0 -148.5 56t-51.5 153q0 20 2.5 42.5t7.5 45.5l31 145q29 140 103 213t197 73q97 0 148.5 -55.5t51.5 -153.5q0 -20 -2.5 -42.5t-7.5 -45.5l-31 -145q-29 -139 -103 -212.5t-197 -73.5zM248 62q83 0 133.5 59.5t71.5 156.5l32 150q4 19 6 36.5t2 33.5
q0 65 -32 102.5t-96 37.5q-82 0 -133 -59t-72 -157l-32 -150q-4 -19 -6 -36.5t-2 -33.5q0 -64 32 -102t96 -38zM262 774v6l100 112h124l55 -118h-75l-39 88h-12l-68 -88h-85zM222 -204q-28 0 -49 21t-21 49q0 29 21 49.5t49 20.5q29 0 49.5 -20.5t20.5 -49.5
q0 -28 -20.5 -49t-49.5 -21z" />
    <glyph glyph-name="uni1ED9" unicode="&#x1ed9;" 
d="M192 -204q-28 0 -49 21t-21 49q0 29 21 49.5t49 20.5q29 0 49.5 -20.5t20.5 -49.5q0 -28 -20.5 -49t-49.5 -21zM223 -14q-56 0 -102 25t-73.5 70.5t-27.5 106.5q0 72 24.5 131t67 102t98.5 66t119 23q58 0 103.5 -26t72 -72t26.5 -106q0 -61 -20.5 -118.5t-60 -103
t-96.5 -72t-131 -26.5zM240 60q62 0 109.5 34.5t74.5 89.5t27 116q0 59 -37 97.5t-102 38.5q-57 0 -104.5 -33t-76.5 -87.5t-29 -119.5q0 -60 36 -98t102 -38zM217 570v6l100 112h124l55 -118h-75l-39 88h-12l-68 -88h-85z" />
    <glyph glyph-name="uni1EDA" unicode="&#x1eda;" 
d="M295 774l91 118h92v-6l-103 -112h-80zM184 -14q-75 0 -122.5 45t-47.5 130q0 17 2 34.5t6 36.5l52 244q24 113 85 175.5t158 62.5q80 0 127 -48t47 -122q0 -18 -3 -36h61q28 0 34 30l5 22h-4q-28 0 -49 21t-21 49q0 29 21 49.5t49 20.5q29 0 49.5 -20.5t20.5 -49.5v-5
t-1 -7l-18 -86q-16 -78 -93 -78h-64l-51 -236q-26 -122 -88.5 -177t-154.5 -55zM190 62q62 0 99.5 40t55.5 122l53 252q4 18 6 34t2 30q0 47 -23 72.5t-74 25.5q-60 0 -97 -42.5t-54 -119.5l-53 -252q-4 -18 -6 -34t-2 -30q0 -98 93 -98z" />
    <glyph glyph-name="uni1EDB" unicode="&#x1edb;" 
d="M286 570l91 118h92v-6l-103 -112h-80zM206 -14q-51 0 -91 23.5t-62.5 66t-22.5 97.5q0 17 2 32.5t6 36.5l3 12q26 120 90.5 188t168.5 68q49 0 88.5 -21.5t63 -61.5t23.5 -98v-11t-1 -14h63q28 0 34 30l5 22h-4q-28 0 -49 21t-21 49q0 29 21 49.5t49 20.5
q29 0 49.5 -20.5t20.5 -49.5v-5t-1 -7l-18 -86q-16 -78 -93 -78h-64l-2 -10q-25 -128 -93.5 -191t-164.5 -63zM213 60q67 0 107.5 45t63.5 137l3 12q4 17 5.5 33t1.5 31q0 54 -25 86t-77 32q-66 0 -110 -50.5t-61 -131.5l-3 -12q-4 -17 -5.5 -33.5t-1.5 -30.5
q0 -55 26 -86.5t76 -31.5z" />
    <glyph glyph-name="uni1EDC" unicode="&#x1edc;" 
d="M296 774l-59 118h84l41 -118h-66zM184 -14q-75 0 -122.5 45t-47.5 130q0 17 2 34.5t6 36.5l52 244q24 113 85 175.5t158 62.5q80 0 127 -48t47 -122q0 -18 -3 -36h61q28 0 34 30l5 22h-4q-28 0 -49 21t-21 49q0 29 21 49.5t49 20.5q29 0 49.5 -20.5t20.5 -49.5v-5t-1 -7
l-18 -86q-16 -78 -93 -78h-64l-51 -236q-26 -122 -88.5 -177t-154.5 -55zM190 62q62 0 99.5 40t55.5 122l53 252q4 18 6 34t2 30q0 47 -23 72.5t-74 25.5q-60 0 -97 -42.5t-54 -119.5l-53 -252q-4 -18 -6 -34t-2 -30q0 -98 93 -98z" />
    <glyph glyph-name="uni1EDD" unicode="&#x1edd;" 
d="M280 570l-59 118h84l41 -118h-66zM206 -14q-51 0 -91 23.5t-62.5 66t-22.5 97.5q0 17 2 32.5t6 36.5l3 12q26 120 90.5 188t168.5 68q49 0 88.5 -21.5t63 -61.5t23.5 -98v-11t-1 -14h63q28 0 34 30l5 22h-4q-28 0 -49 21t-21 49q0 29 21 49.5t49 20.5q29 0 49.5 -20.5
t20.5 -49.5v-5t-1 -7l-18 -86q-16 -78 -93 -78h-64l-2 -10q-25 -128 -93.5 -191t-164.5 -63zM213 60q67 0 107.5 45t63.5 137l3 12q4 17 5.5 33t1.5 31q0 54 -25 86t-77 32q-66 0 -110 -50.5t-61 -131.5l-3 -12q-4 -17 -5.5 -33.5t-1.5 -30.5q0 -55 26 -86.5t76 -31.5z" />
    <glyph glyph-name="uni1EDE" unicode="&#x1ede;" 
d="M305 750v92l5 6h72q9 -15 28 -15q38 0 38 41q0 18 -11 29t-31 11q-18 0 -30 -11t-17 -29l-45 18q12 30 35 50t63 20q39 0 64.5 -24t25.5 -60q0 -37 -24 -64.5t-60 -27.5q-45 0 -58 32h-6v-68h-49zM184 -14q-75 0 -122.5 45t-47.5 130q0 17 2 34.5t6 36.5l52 244
q24 113 85 175.5t158 62.5q80 0 127 -48t47 -122q0 -18 -3 -36h61q28 0 34 30l5 22h-4q-28 0 -49 21t-21 49q0 29 21 49.5t49 20.5q29 0 49.5 -20.5t20.5 -49.5v-5t-1 -7l-18 -86q-16 -78 -93 -78h-64l-51 -236q-26 -122 -88.5 -177t-154.5 -55zM190 62q62 0 99.5 40
t55.5 122l53 252q4 18 6 34t2 30q0 47 -23 72.5t-74 25.5q-60 0 -97 -42.5t-54 -119.5l-53 -252q-4 -18 -6 -34t-2 -30q0 -98 93 -98z" />
    <glyph glyph-name="uni1EDF" unicode="&#x1edf;" 
d="M282 546v92l5 6h72q7 -14 26 -14q18 0 29 12.5t11 29.5t-9.5 27.5t-26.5 10.5q-22 0 -34 -12.5t-19 -27.5l-44 18q13 30 38 50t64 20q38 0 62 -24t24 -60q0 -37 -26.5 -64.5t-64.5 -27.5q-39 0 -52 32h-6v-68h-49zM206 -14q-51 0 -91 23.5t-62.5 66t-22.5 97.5
q0 17 2 32.5t6 36.5l3 12q26 120 90.5 188t168.5 68q49 0 88.5 -21.5t63 -61.5t23.5 -98v-11t-1 -14h63q28 0 34 30l5 22h-4q-28 0 -49 21t-21 49q0 29 21 49.5t49 20.5q29 0 49.5 -20.5t20.5 -49.5v-5t-1 -7l-18 -86q-16 -78 -93 -78h-64l-2 -10q-25 -128 -93.5 -191
t-164.5 -63zM213 60q67 0 107.5 45t63.5 137l3 12q4 17 5.5 33t1.5 31q0 54 -25 86t-77 32q-66 0 -110 -50.5t-61 -131.5l-3 -12q-4 -17 -5.5 -33.5t-1.5 -30.5q0 -55 26 -86.5t76 -31.5z" />
    <glyph glyph-name="uni1EE0" unicode="&#x1ee0;" 
d="M412 758q-31 0 -47.5 14t-33.5 45q-7 12 -11.5 17t-12.5 5q-11 0 -22 -12l-46 -53l-49 42l41 49q14 17 33 29.5t46 12.5q29 0 46 -14.5t35 -46.5q5 -10 10 -15t14 -5q10 0 19 10l48 55l49 -42l-41 -49q-14 -17 -33 -29.5t-45 -12.5zM184 -14q-75 0 -122.5 45t-47.5 130
q0 17 2 34.5t6 36.5l52 244q24 113 85 175.5t158 62.5q80 0 127 -48t47 -122q0 -18 -3 -36h61q28 0 34 30l5 22h-4q-28 0 -49 21t-21 49q0 29 21 49.5t49 20.5q29 0 49.5 -20.5t20.5 -49.5v-5t-1 -7l-18 -86q-16 -78 -93 -78h-64l-51 -236q-26 -122 -88.5 -177t-154.5 -55z
M190 62q62 0 99.5 40t55.5 122l53 252q4 18 6 34t2 30q0 47 -23 72.5t-74 25.5q-60 0 -97 -42.5t-54 -119.5l-53 -252q-4 -18 -6 -34t-2 -30q0 -98 93 -98z" />
    <glyph glyph-name="uni1EE1" unicode="&#x1ee1;" 
d="M391 551q-31 0 -47.5 14t-33.5 45q-7 12 -11.5 17t-12.5 5q-11 0 -22 -12l-46 -53l-49 42l41 49q14 17 33 29.5t46 12.5q29 0 46 -14.5t35 -46.5q5 -10 10 -15t14 -5q10 0 19 10l48 55l49 -42l-41 -49q-14 -17 -33 -29.5t-45 -12.5zM206 -14q-51 0 -91 23.5t-62.5 66
t-22.5 97.5q0 17 2 32.5t6 36.5l3 12q26 120 90.5 188t168.5 68q49 0 88.5 -21.5t63 -61.5t23.5 -98v-11t-1 -14h63q28 0 34 30l5 22h-4q-28 0 -49 21t-21 49q0 29 21 49.5t49 20.5q29 0 49.5 -20.5t20.5 -49.5v-5t-1 -7l-18 -86q-16 -78 -93 -78h-64l-2 -10
q-25 -128 -93.5 -191t-164.5 -63zM213 60q67 0 107.5 45t63.5 137l3 12q4 17 5.5 33t1.5 31q0 54 -25 86t-77 32q-66 0 -110 -50.5t-61 -131.5l-3 -12q-4 -17 -5.5 -33.5t-1.5 -30.5q0 -55 26 -86.5t76 -31.5z" />
    <glyph glyph-name="uni1EE2" unicode="&#x1ee2;" 
d="M184 -14q-75 0 -122.5 45t-47.5 130q0 17 2 34.5t6 36.5l52 244q24 113 85 175.5t158 62.5q80 0 127 -48t47 -122q0 -18 -3 -36h61q28 0 34 30l5 22h-4q-28 0 -49 21t-21 49q0 29 21 49.5t49 20.5q29 0 49.5 -20.5t20.5 -49.5v-5t-1 -7l-18 -86q-16 -78 -93 -78h-64
l-51 -236q-26 -122 -88.5 -177t-154.5 -55zM190 62q62 0 99.5 40t55.5 122l53 252q4 18 6 34t2 30q0 47 -23 72.5t-74 25.5q-60 0 -97 -42.5t-54 -119.5l-53 -252q-4 -18 -6 -34t-2 -30q0 -98 93 -98zM181 -204q-28 0 -49 21t-21 49q0 29 21 49.5t49 20.5q29 0 49.5 -20.5
t20.5 -49.5q0 -28 -20.5 -49t-49.5 -21z" />
    <glyph glyph-name="uni1EE3" unicode="&#x1ee3;" 
d="M206 -14q-51 0 -91 23.5t-62.5 66t-22.5 97.5q0 17 2 32.5t6 36.5l3 12q26 120 90.5 188t168.5 68q49 0 88.5 -21.5t63 -61.5t23.5 -98v-11t-1 -14h63q28 0 34 30l5 22h-4q-28 0 -49 21t-21 49q0 29 21 49.5t49 20.5q29 0 49.5 -20.5t20.5 -49.5v-5t-1 -7l-18 -86
q-16 -78 -93 -78h-64l-2 -10q-25 -128 -93.5 -191t-164.5 -63zM213 60q67 0 107.5 45t63.5 137l3 12q4 17 5.5 33t1.5 31q0 54 -25 86t-77 32q-66 0 -110 -50.5t-61 -131.5l-3 -12q-4 -17 -5.5 -33.5t-1.5 -30.5q0 -55 26 -86.5t76 -31.5zM172 -204q-28 0 -49 21t-21 49
q0 29 21 49.5t49 20.5q29 0 49.5 -20.5t20.5 -49.5q0 -28 -20.5 -49t-49.5 -21z" />
    <glyph glyph-name="uni1EE4" unicode="&#x1ee4;" 
d="M232 -14q-86 0 -140.5 47.5t-54.5 136.5q0 17 2 35t6 37l97 458h84l-98 -464q-3 -16 -5 -30.5t-2 -27.5q0 -116 123 -116q74 0 123 44.5t67 129.5l98 464h84l-98 -464q-26 -124 -95 -187t-191 -63zM199 -204q-28 0 -49 21t-21 49q0 29 21 49.5t49 20.5q29 0 49.5 -20.5
t20.5 -49.5q0 -28 -20.5 -49t-49.5 -21z" />
    <glyph glyph-name="uni1EE5" unicode="&#x1ee5;" 
d="M182 -14q-65 0 -106.5 38t-41.5 111q0 15 2 30.5t6 34.5l66 296h78l-64 -286q-7 -31 -7 -58q0 -92 99 -92q69 0 117.5 48.5t66.5 129.5l58 258h78l-91 -412q-2 -8 2 -13t11 -5t14 5l43 31l42 -58l-50 -38q-12 -10 -29.5 -15t-35.5 -5q-29 0 -53.5 17t-24.5 55q0 5 0.5 10
t1.5 10l1 6h-12q-27 -48 -69 -73t-102 -25zM200 -204q-28 0 -49 21t-21 49q0 29 21 49.5t49 20.5q29 0 49.5 -20.5t20.5 -49.5q0 -28 -20.5 -49t-49.5 -21z" />
    <glyph glyph-name="uni1EE6" unicode="&#x1ee6;" 
d="M356 750v92l5 6h72q9 -15 28 -15q38 0 38 41q0 18 -11 29t-31 11q-18 0 -30 -11t-17 -29l-45 18q12 30 35 50t63 20q39 0 64.5 -24t25.5 -60q0 -37 -24 -64.5t-60 -27.5q-45 0 -58 32h-6v-68h-49zM232 -14q-86 0 -140.5 47.5t-54.5 136.5q0 17 2 35t6 37l97 458h84
l-98 -464q-3 -16 -5 -30.5t-2 -27.5q0 -116 123 -116q74 0 123 44.5t67 129.5l98 464h84l-98 -464q-26 -124 -95 -187t-191 -63z" />
    <glyph glyph-name="uni1EE7" unicode="&#x1ee7;" 
d="M294 546v92l5 6h72q7 -14 26 -14q18 0 29 12.5t11 29.5t-9.5 27.5t-26.5 10.5q-22 0 -34 -12.5t-19 -27.5l-44 18q13 30 38 50t64 20q38 0 62 -24t24 -60q0 -37 -26.5 -64.5t-64.5 -27.5q-39 0 -52 32h-6v-68h-49zM182 -14q-65 0 -106.5 38t-41.5 111q0 15 2 30.5t6 34.5
l66 296h78l-64 -286q-7 -31 -7 -58q0 -92 99 -92q69 0 117.5 48.5t66.5 129.5l58 258h78l-91 -412q-2 -8 2 -13t11 -5t14 5l43 31l42 -58l-50 -38q-12 -10 -29.5 -15t-35.5 -5q-29 0 -53.5 17t-24.5 55q0 5 0.5 10t1.5 10l1 6h-12q-27 -48 -69 -73t-102 -25z" />
    <glyph glyph-name="uni1EE8" unicode="&#x1ee8;" 
d="M273 774l91 118h92v-6l-103 -112h-80zM167 -14q-69 0 -115.5 40.5t-46.5 122.5q0 16 2 32.5t6 35.5l102 483h84l-105 -494q-6 -28 -6 -51q0 -49 25 -71t65 -22q56 0 92 35t52 109l105 494h84l-40 -192h95q28 0 34 30l5 22h-4q-28 0 -49 21t-21 49q0 29 21 49.5t49 20.5
q29 0 49.5 -20.5t20.5 -49.5v-5t-1 -7l-18 -86q-16 -78 -93 -78h-100l-53 -252q-25 -118 -86.5 -167t-152.5 -49z" />
    <glyph glyph-name="uni1EE9" unicode="&#x1ee9;" 
d="M247 570l91 118h92v-6l-103 -112h-80zM164 -14q-62 0 -102 34.5t-40 105.5q0 14 1.5 29.5t5.5 31.5l65 309h78l-66 -312q-5 -23 -5 -40q0 -40 22.5 -62t63.5 -22q65 0 104.5 42.5t52.5 105.5l62 288h78l-41 -192h95q28 0 34 30l5 22h-4q-28 0 -49 21t-21 49q0 29 21 49.5
t49 20.5q29 0 49.5 -20.5t20.5 -49.5v-5t-1 -7l-18 -86q-16 -78 -93 -78h-100l-53 -250h-78l15 68h-12q-24 -40 -58 -61t-81 -21z" />
    <glyph glyph-name="uni1EEA" unicode="&#x1eea;" 
d="M293 774l-59 118h84l41 -118h-66zM167 -14q-69 0 -115.5 40.5t-46.5 122.5q0 16 2 32.5t6 35.5l102 483h84l-105 -494q-6 -28 -6 -51q0 -49 25 -71t65 -22q56 0 92 35t52 109l105 494h84l-40 -192h95q28 0 34 30l5 22h-4q-28 0 -49 21t-21 49q0 29 21 49.5t49 20.5
q29 0 49.5 -20.5t20.5 -49.5v-5t-1 -7l-18 -86q-16 -78 -93 -78h-100l-53 -252q-25 -118 -86.5 -167t-152.5 -49z" />
    <glyph glyph-name="uni1EEB" unicode="&#x1eeb;" 
d="M262 570l-59 118h84l41 -118h-66zM164 -14q-62 0 -102 34.5t-40 105.5q0 14 1.5 29.5t5.5 31.5l65 309h78l-66 -312q-5 -23 -5 -40q0 -40 22.5 -62t63.5 -22q65 0 104.5 42.5t52.5 105.5l62 288h78l-41 -192h95q28 0 34 30l5 22h-4q-28 0 -49 21t-21 49q0 29 21 49.5
t49 20.5q29 0 49.5 -20.5t20.5 -49.5v-5t-1 -7l-18 -86q-16 -78 -93 -78h-100l-53 -250h-78l15 68h-12q-24 -40 -58 -61t-81 -21z" />
    <glyph glyph-name="uni1EEC" unicode="&#x1eec;" 
d="M286 750v92l5 6h72q7 -14 26 -14q18 0 29 12.5t11 29.5t-9.5 27.5t-26.5 10.5q-22 0 -34 -12.5t-19 -27.5l-44 18q13 30 38 50t64 20q38 0 62 -24t24 -60q0 -37 -26.5 -64.5t-64.5 -27.5q-39 0 -52 32h-6v-68h-49zM167 -14q-69 0 -115.5 40.5t-46.5 122.5q0 16 2 32.5
t6 35.5l102 483h84l-105 -494q-6 -28 -6 -51q0 -49 25 -71t65 -22q56 0 92 35t52 109l105 494h84l-40 -192h95q28 0 34 30l5 22h-4q-28 0 -49 21t-21 49q0 29 21 49.5t49 20.5q29 0 49.5 -20.5t20.5 -49.5v-5t-1 -7l-18 -86q-16 -78 -93 -78h-100l-53 -252
q-25 -118 -86.5 -167t-152.5 -49z" />
    <glyph glyph-name="uni1EED" unicode="&#x1eed;" 
d="M262 546v92l5 6h72q7 -14 26 -14q18 0 29 12.5t11 29.5t-9.5 27.5t-26.5 10.5q-22 0 -34 -12.5t-19 -27.5l-44 18q13 30 38 50t64 20q38 0 62 -24t24 -60q0 -37 -26.5 -64.5t-64.5 -27.5q-39 0 -52 32h-6v-68h-49zM164 -14q-62 0 -102 34.5t-40 105.5q0 14 1.5 29.5
t5.5 31.5l65 309h78l-66 -312q-5 -23 -5 -40q0 -40 22.5 -62t63.5 -22q65 0 104.5 42.5t52.5 105.5l62 288h78l-41 -192h95q28 0 34 30l5 22h-4q-28 0 -49 21t-21 49q0 29 21 49.5t49 20.5q29 0 49.5 -20.5t20.5 -49.5v-5t-1 -7l-18 -86q-16 -78 -93 -78h-100l-53 -250h-78
l15 68h-12q-24 -40 -58 -61t-81 -21z" />
    <glyph glyph-name="uni1EEE" unicode="&#x1eee;" 
d="M379 758q-31 0 -47.5 14t-33.5 45q-7 12 -11.5 17t-12.5 5q-11 0 -22 -12l-46 -53l-49 42l41 49q14 17 33 29.5t46 12.5q29 0 46 -14.5t35 -46.5q5 -10 10 -15t14 -5q10 0 19 10l48 55l49 -42l-41 -49q-14 -17 -33 -29.5t-45 -12.5zM167 -14q-69 0 -115.5 40.5
t-46.5 122.5q0 16 2 32.5t6 35.5l102 483h84l-105 -494q-6 -28 -6 -51q0 -49 25 -71t65 -22q56 0 92 35t52 109l105 494h84l-40 -192h95q28 0 34 30l5 22h-4q-28 0 -49 21t-21 49q0 29 21 49.5t49 20.5q29 0 49.5 -20.5t20.5 -49.5v-5t-1 -7l-18 -86q-16 -78 -93 -78h-100
l-53 -252q-25 -118 -86.5 -167t-152.5 -49z" />
    <glyph glyph-name="uni1EEF" unicode="&#x1eef;" 
d="M365 551q-31 0 -47.5 14t-33.5 45q-7 12 -11.5 17t-12.5 5q-11 0 -22 -12l-46 -53l-49 42l41 49q14 17 33 29.5t46 12.5q29 0 46 -14.5t35 -46.5q5 -10 10 -15t14 -5q10 0 19 10l48 55l49 -42l-41 -49q-14 -17 -33 -29.5t-45 -12.5zM164 -14q-62 0 -102 34.5t-40 105.5
q0 14 1.5 29.5t5.5 31.5l65 309h78l-66 -312q-5 -23 -5 -40q0 -40 22.5 -62t63.5 -22q65 0 104.5 42.5t52.5 105.5l62 288h78l-41 -192h95q28 0 34 30l5 22h-4q-28 0 -49 21t-21 49q0 29 21 49.5t49 20.5q29 0 49.5 -20.5t20.5 -49.5v-5t-1 -7l-18 -86q-16 -78 -93 -78h-100
l-53 -250h-78l15 68h-12q-24 -40 -58 -61t-81 -21z" />
    <glyph glyph-name="uni1EF0" unicode="&#x1ef0;" 
d="M167 -14q-69 0 -115.5 40.5t-46.5 122.5q0 16 2 32.5t6 35.5l102 483h84l-105 -494q-6 -28 -6 -51q0 -49 25 -71t65 -22q56 0 92 35t52 109l105 494h84l-40 -192h95q28 0 34 30l5 22h-4q-28 0 -49 21t-21 49q0 29 21 49.5t49 20.5q29 0 49.5 -20.5t20.5 -49.5v-5t-1 -7
l-18 -86q-16 -78 -93 -78h-100l-53 -252q-25 -118 -86.5 -167t-152.5 -49zM131 -204q-28 0 -49 21t-21 49q0 29 21 49.5t49 20.5q29 0 49.5 -20.5t20.5 -49.5q0 -28 -20.5 -49t-49.5 -21z" />
    <glyph glyph-name="uni1EF1" unicode="&#x1ef1;" 
d="M164 -14q-62 0 -102 34.5t-40 105.5q0 14 1.5 29.5t5.5 31.5l65 309h78l-66 -312q-5 -23 -5 -40q0 -40 22.5 -62t63.5 -22q65 0 104.5 42.5t52.5 105.5l62 288h78l-41 -192h95q28 0 34 30l5 22h-4q-28 0 -49 21t-21 49q0 29 21 49.5t49 20.5q29 0 49.5 -20.5t20.5 -49.5
v-5t-1 -7l-18 -86q-16 -78 -93 -78h-100l-53 -250h-78l15 68h-12q-24 -40 -58 -61t-81 -21zM154 -204q-28 0 -49 21t-21 49q0 29 21 49.5t49 20.5q29 0 49.5 -20.5t20.5 -49.5q0 -28 -20.5 -49t-49.5 -21z" />
    <glyph glyph-name="Ygrave" unicode="&#x1ef2;" 
d="M184 0l52 246h-18l-122 454h87l98 -382h12l260 382h97v-6l-312 -448h-18l-52 -246h-84zM341 774l-59 118h84l41 -118h-66z" />
    <glyph glyph-name="ygrave" unicode="&#x1ef3;" 
d="M103 -200v72h258q27 0 33 30l38 176h-12q-30 -45 -71.5 -68.5t-98.5 -23.5q-67 0 -107 40t-40 113q0 30 7 61l45 214q2 10 -2.5 15.5t-11.5 5.5q-6 0 -13 -5l-51 -35l-40 59l52 35q32 21 63 21q33 0 57 -22t24 -61q0 -6 -0.5 -11.5t-2.5 -14.5l-40 -191q-7 -31 -7 -58
q0 -92 99 -92q69 0 118 48.5t66 129.5l54 258h78l-131 -618q-7 -34 -33 -56t-60 -22h-271zM357 570l-59 118h84l41 -118h-66z" />
    <glyph glyph-name="uni1EF4" unicode="&#x1ef4;" 
d="M184 0l52 246h-18l-122 454h87l98 -382h12l260 382h97v-6l-312 -448h-18l-52 -246h-84zM205 -204q-28 0 -49 21t-21 49q0 29 21 49.5t49 20.5q29 0 49.5 -20.5t20.5 -49.5q0 -28 -20.5 -49t-49.5 -21z" />
    <glyph glyph-name="uni1EF5" unicode="&#x1ef5;" 
d="M230 -170v72h138q27 0 33 30l31 146h-12q-30 -45 -71.5 -68.5t-98.5 -23.5q-67 0 -107 40t-40 113q0 30 7 61l45 214q2 10 -2.5 15.5t-11.5 5.5q-6 0 -13 -5l-51 -35l-40 59l52 35q32 21 63 21q33 0 57 -22t24 -61q0 -6 -0.5 -11.5t-2.5 -14.5l-40 -191q-7 -31 -7 -58
q0 -92 99 -92q69 0 118 48.5t66 129.5l54 258h78l-124 -588q-7 -34 -33 -56t-60 -22h-151zM116 -204q-28 0 -49 21t-21 49q0 29 21 49.5t49 20.5q29 0 49.5 -20.5t20.5 -49.5q0 -28 -20.5 -49t-49.5 -21z" />
    <glyph glyph-name="uni1EF6" unicode="&#x1ef6;" 
d="M338 750v92l5 6h72q9 -15 28 -15q38 0 38 41q0 18 -11 29t-31 11q-18 0 -30 -11t-17 -29l-45 18q12 30 35 50t63 20q39 0 64.5 -24t25.5 -60q0 -37 -24 -64.5t-60 -27.5q-45 0 -58 32h-6v-68h-49zM184 0l52 246h-18l-122 454h87l98 -382h12l260 382h97v-6l-312 -448h-18
l-52 -246h-84z" />
    <glyph glyph-name="uni1EF7" unicode="&#x1ef7;" 
d="M336 546v92l5 6h72q7 -14 26 -14q18 0 29 12.5t11 29.5t-9.5 27.5t-26.5 10.5q-22 0 -34 -12.5t-19 -27.5l-44 18q13 30 38 50t64 20q38 0 62 -24t24 -60q0 -37 -26.5 -64.5t-64.5 -27.5q-39 0 -52 32h-6v-68h-49zM103 -200v72h258q27 0 33 30l38 176h-12
q-30 -45 -71.5 -68.5t-98.5 -23.5q-67 0 -107 40t-40 113q0 30 7 61l45 214q2 10 -2.5 15.5t-11.5 5.5q-6 0 -13 -5l-51 -35l-40 59l52 35q32 21 63 21q33 0 57 -22t24 -61q0 -6 -0.5 -11.5t-2.5 -14.5l-40 -191q-7 -31 -7 -58q0 -92 99 -92q69 0 118 48.5t66 129.5l54 258
h78l-131 -618q-7 -34 -33 -56t-60 -22h-271z" />
    <glyph glyph-name="uni1EF8" unicode="&#x1ef8;" 
d="M184 0l52 246h-18l-122 454h87l98 -382h12l260 382h97v-6l-312 -448h-18l-52 -246h-84zM446 758q-31 0 -47.5 14t-33.5 45q-7 12 -11.5 17t-12.5 5q-11 0 -22 -12l-46 -53l-49 42l41 49q14 17 33 29.5t46 12.5q29 0 46 -14.5t35 -46.5q5 -10 10 -15t14 -5q10 0 19 10
l48 55l49 -42l-41 -49q-14 -17 -33 -29.5t-45 -12.5z" />
    <glyph glyph-name="uni1EF9" unicode="&#x1ef9;" 
d="M103 -200v72h258q27 0 33 30l38 176h-12q-30 -45 -71.5 -68.5t-98.5 -23.5q-67 0 -107 40t-40 113q0 30 7 61l45 214q2 10 -2.5 15.5t-11.5 5.5q-6 0 -13 -5l-51 -35l-40 59l52 35q32 21 63 21q33 0 57 -22t24 -61q0 -6 -0.5 -11.5t-2.5 -14.5l-40 -191q-7 -31 -7 -58
q0 -92 99 -92q69 0 118 48.5t66 129.5l54 258h78l-131 -618q-7 -34 -33 -56t-60 -22h-271zM434 551q-31 0 -47.5 14t-33.5 45q-7 12 -11.5 17t-12.5 5q-11 0 -22 -12l-46 -53l-49 42l41 49q14 17 33 29.5t46 12.5q29 0 46 -14.5t35 -46.5q5 -10 10 -15t14 -5q10 0 19 10
l48 55l49 -42l-41 -49q-14 -17 -33 -29.5t-45 -12.5z" />
    <glyph glyph-name="endash" unicode="&#x2013;" 
d="M73 224v72h466v-72h-466z" />
    <glyph glyph-name="emdash" unicode="&#x2014;" 
d="M12 224v72h588v-72h-588z" />
    <glyph glyph-name="quoteleft" unicode="&#x2018;" 
d="M348 468q-28 0 -49 21t-21 49v5t1 7l18 86q16 78 93 78h52v-54h-59q-28 0 -34 -30l-5 -22h4q29 0 49.5 -20.5t20.5 -49.5q0 -28 -20.5 -49t-49.5 -21z" />
    <glyph glyph-name="quoteright" unicode="&#x2019;" 
d="M274 468v54h59q28 0 34 30l5 22h-4q-28 0 -49 21t-21 49q0 29 21 49.5t49 20.5q29 0 49.5 -20.5t20.5 -49.5v-5t-1 -7l-18 -86q-16 -78 -93 -78h-52z" />
    <glyph glyph-name="quotesinglbase" unicode="&#x201a;" 
d="M174 -106v54h59q28 0 34 30l5 22h-4q-28 0 -49 21t-21 49q0 29 21 49.5t49 20.5q29 0 49.5 -20.5t20.5 -49.5v-5t-1 -7l-18 -86q-16 -78 -93 -78h-52z" />
    <glyph glyph-name="quotedblleft" unicode="&#x201c;" 
d="M262 468q-28 0 -49 21t-21 49v5t1 7l18 86q16 78 93 78h52v-54h-59q-28 0 -34 -30l-5 -22h4q29 0 49.5 -20.5t20.5 -49.5q0 -28 -20.5 -49t-49.5 -21zM444 468q-28 0 -49 21t-21 49v5t1 7l18 86q16 78 93 78h52v-54h-59q-28 0 -34 -30l-5 -22h4q29 0 49.5 -20.5
t20.5 -49.5q0 -28 -20.5 -49t-49.5 -21z" />
    <glyph glyph-name="quotedblright" unicode="&#x201d;" 
d="M368 468v54h59q28 0 34 30l5 22h-4q-28 0 -49 21t-21 49q0 29 21 49.5t49 20.5q29 0 49.5 -20.5t20.5 -49.5v-5t-1 -7l-18 -86q-16 -78 -93 -78h-52zM186 468v54h59q28 0 34 30l5 22h-4q-28 0 -49 21t-21 49q0 29 21 49.5t49 20.5q29 0 49.5 -20.5t20.5 -49.5v-5t-1 -7
l-18 -86q-16 -78 -93 -78h-52z" />
    <glyph glyph-name="quotedblbase" unicode="&#x201e;" 
d="M248 -106v54h59q28 0 34 30l5 22h-4q-28 0 -49 21t-21 49q0 29 21 49.5t49 20.5q29 0 49.5 -20.5t20.5 -49.5v-5t-1 -7l-18 -86q-16 -78 -93 -78h-52zM66 -106v54h59q28 0 34 30l5 22h-4q-28 0 -49 21t-21 49q0 29 21 49.5t49 20.5q29 0 49.5 -20.5t20.5 -49.5v-5t-1 -7
l-18 -86q-16 -78 -93 -78h-52z" />
    <glyph glyph-name="dagger" unicode="&#x2020;" 
d="M230 218l67 316h-99v70h114l23 110h72l-23 -110h99v-70h-114l-67 -316h-72z" />
    <glyph glyph-name="daggerdbl" unicode="&#x2021;" 
d="M230 218l23 110h-99v70h114l29 136h-99v70h114l23 110h72l-23 -110h99v-70h-114l-29 -136h99v-70h-114l-23 -110h-72z" />
    <glyph glyph-name="bullet" unicode="&#x2022;" 
d="M306 232q-32 0 -59 16t-43 43t-16 59t16 59t43 43t59 16t59 -16t43 -43t16 -59t-16 -59t-43 -43t-59 -16z" />
    <glyph glyph-name="ellipsis" unicode="&#x2026;" 
d="M306 -14q-28 0 -49 21t-21 49q0 29 21 49.5t49 20.5q29 0 49.5 -20.5t20.5 -49.5q0 -28 -20.5 -49t-49.5 -21zM130 -14q-28 0 -49 21t-21 49q0 29 21 49.5t49 20.5q29 0 49.5 -20.5t20.5 -49.5q0 -28 -20.5 -49t-49.5 -21zM482 -14q-28 0 -49 21t-21 49q0 29 21 49.5
t49 20.5q29 0 49.5 -20.5t20.5 -49.5q0 -28 -20.5 -49t-49.5 -21z" />
    <glyph glyph-name="perthousand" unicode="&#x2030;" 
d="M171 406q-52 0 -89 32.5t-37 91.5q0 51 21.5 90.5t60 62.5t88.5 23q59 0 94.5 -34t35.5 -93q0 -45 -21 -84.5t-60 -64t-93 -24.5zM173 460q50 0 81 33t31 75q0 36 -18 60t-55 24q-48 0 -77.5 -33.5t-29.5 -79.5q0 -41 19 -60t49 -19zM46 205l-22 46l531 244l22 -46z
M325 -6q-32 0 -51.5 20t-19.5 52q0 9 3 24l24 112q9 41 33 66.5t71 25.5q21 0 37 -9.5t21 -22.5h6q11 14 28 23t39 9q33 0 52 -18.5t19 -51.5q0 -13 -3 -28l-25 -115q-8 -40 -32.5 -63.5t-69.5 -23.5q-22 0 -37 9.5t-22 22.5h-6q-10 -13 -26.5 -22.5t-40.5 -9.5zM337 48
q17 0 27 11t14 27l25 116q1 4 1 11q0 27 -25 27q-16 0 -25 -10.5t-13 -27.5l-26 -116q-1 -4 -1.5 -7t-0.5 -6q0 -25 24 -25zM461 48q17 0 26 11t13 27l25 116q1 6 1 11q0 27 -25 27q-16 0 -25 -10.5t-13 -27.5l-26 -116q-1 -5 -1 -11q0 -27 25 -27z" />
    <glyph glyph-name="minute" unicode="&#x2032;" 
d="M281 472l-50 20l43 101q-22 19 -22 51q0 29 20.5 49.5t49.5 20.5t49.5 -20.5t20.5 -49.5t-20 -49t-49 -21z" />
    </font>
</defs>
</svg>
