<?xml version="1.0" standalone="no"?>
<!DOCTYPE svg PUBLIC "-//W3C//DTD SVG 1.1//EN" "http://www.w3.org/Graphics/SVG/1.1/DTD/svg11.dtd" >
<svg xmlns="http://www.w3.org/2000/svg" xmlns:xlink="http://www.w3.org/1999/xlink" version="1.1">
<metadata>
Created by FontForge 20201107 at Sat Feb 14 04:37:24 2026
 By www-data
[c] Copyright 2003-2004, The Font Bureau, Inc. Designed by David Berlow. All rights reserved.
</metadata>
<defs>
<font id="TitlingGothicFBSkyline-Thin" horiz-adv-x="323" >
  <font-face 
    font-family="TitlingGothicFB Skyline Thin"
    font-weight="100"
    font-stretch="normal"
    units-per-em="2048"
    panose-1="2 0 5 8 3 0 0 2 0 4"
    ascent="1638"
    descent="-410"
    x-height="1126"
    cap-height="1638"
    bbox="-147 -410 883 1907"
    underline-thickness="40"
    underline-position="-271"
    unicode-range="U+0020-FB02"
  />
<missing-glyph horiz-adv-x="1024" 
 />
    <glyph glyph-name="fi" unicode="fi" horiz-adv-x="438" 
d="M334 1077h-168v-1077h-57v1077h-68v49h68v371q0 71 25.5 109.5t72.5 38.5q23 0 51 -7v-51h-47q-21 0 -33 -18.5t-12 -48.5v-394h223v-1024l8 -102h-55q-8 49 -8 82v995z" />
    <glyph glyph-name="fl" unicode="fl" horiz-adv-x="434" 
d="M41 1077v49h68v371q0 71 25.5 109.5t72.5 38.5q23 0 51 -7v-51h-47q-21 0 -33 -18.5t-12 -48.5v-394h76v-49h-76v-1077h-57v1077h-68zM397 0h-53q-6 9 -6 57v1491q0 70 -4 90h57q2 -34 2 -59v-1491q0 -72 4 -88z" />
    <glyph glyph-name="f_f" unicode="ff" horiz-adv-x="446" 
d="M164 1077v-1077h-55v1077h-68v49h68v371q0 71 24.5 109.5t71.5 38.5q25 0 53 -7v-51h-49q-21 0 -33 -18.5t-12 -48.5v-394h151v371q0 71 25 109.5t72 38.5q23 0 51 -7v-51h-47q-21 0 -33 -18.5t-12 -48.5v-394h75v-49h-75v-1077h-56v1077h-151z" />
    <glyph glyph-name="f_f_i" unicode="ffi" horiz-adv-x="643" 
d="M539 1077h-168v-1077h-56v1077h-151v-1077h-55v1077h-68v49h68v371q0 71 24.5 109.5t71.5 38.5q25 0 53 -7v-51h-49q-21 0 -33 -18.5t-12 -48.5v-394h151v371q0 71 25 109.5t72 38.5q23 0 51 -7v-51h-47q-21 0 -33 -18.5t-12 -48.5v-394h223v-1024l8 -102h-55
q-8 49 -8 82v995z" />
    <glyph glyph-name="f_f_l" unicode="ffl" horiz-adv-x="638" 
d="M164 1077v-1077h-55v1077h-68v49h68v371q0 71 24.5 109.5t71.5 38.5q25 0 53 -7v-51h-49q-21 0 -33 -18.5t-12 -48.5v-394h151v371q0 71 25 109.5t72 38.5q23 0 51 -7v-51h-47q-21 0 -33 -18.5t-12 -48.5v-394h75v-49h-75v-1077h-56v1077h-151zM602 0h-53q-6 9 -6 57
v1491q0 70 -4 90h57q2 -34 2 -59v-1491q0 -72 4 -88z" />
    <glyph glyph-name=".notdef" horiz-adv-x="1024" 
 />
    <glyph glyph-name=".null" horiz-adv-x="0" 
 />
    <glyph glyph-name="nonmarkingreturn" horiz-adv-x="682" 
 />
    <glyph glyph-name="space" unicode=" " horiz-adv-x="217" 
 />
    <glyph glyph-name="space" unicode="&#xa0;" horiz-adv-x="217" 
 />
    <glyph glyph-name="exclam" unicode="!" horiz-adv-x="221" 
d="M139 1638l-4 -1331h-49l-4 1331h57zM145 0h-69v190h69v-190z" />
    <glyph glyph-name="quotedbl" unicode="&#x22;" horiz-adv-x="262" 
d="M233 1638l-2 -524h-57l-2 524h61zM90 1638l-2 -524h-57l-2 524h61z" />
    <glyph glyph-name="numbersign" unicode="#" horiz-adv-x="497" 
d="M485 918v-54h-123l-12 -155h123v-54h-127l-53 -655h-57l53 655h-105l-53 -655h-57l53 655h-119v54h123l12 155h-123v54h127l48 552h57l-47 -552h104l47 552h58l-47 -552h118zM305 864h-104l-13 -155h105z" />
    <glyph glyph-name="dollar" unicode="$" horiz-adv-x="352" 
d="M156 27q-133 14 -133 215v168h57q0 -28 -1 -89t-1 -79q0 -147 78 -160v768l-31 65q-59 126 -77.5 215.5t-18.5 231.5q0 115 29 174t98 66v36h49v-36q70 -9 98.5 -68.5t28.5 -177.5v-166h-58v178q0 80 -15.5 122.5t-53.5 51.5v-661l4 -9q63 -125 85 -189t30 -141.5
t8 -248.5q0 -246 -127 -266v-95h-49v95zM156 1544q-39 -9 -55.5 -51t-16.5 -129q0 -123 13 -201t59 -184v565zM205 84q38 12 53.5 60.5t15.5 148.5q0 112 -0.5 148t-7 99t-20.5 105.5t-41 102.5v-664z" />
    <glyph glyph-name="percent" unicode="%" horiz-adv-x="608" 
d="M272 1036q0 -116 -30.5 -166.5t-98.5 -50.5q-70 0 -96.5 51t-26.5 166v396q0 109 30 164t97 55q72 0 98.5 -55t26.5 -164v-396zM588 207q0 -116 -30.5 -166.5t-98.5 -50.5q-70 0 -96.5 51t-26.5 166v395q0 109 30 164t97 55q72 0 98.5 -55t26.5 -164v-395zM217 1028v442
q0 63 -19.5 94t-50.5 31q-71 0 -71 -125v-438q0 -89 18 -124.5t53 -35.5t52.5 34t17.5 122zM532 199v442q0 63 -19 94t-50 31q-72 0 -72 -125v-438q0 -89 18.5 -124.5t53.5 -35.5t52 33.5t17 122.5zM494 1546l-353 -1546h-51l352 1546h52z" />
    <glyph glyph-name="ampersand" unicode="&#x26;" horiz-adv-x="466" 
d="M178 915q31 -127 146 -520q6 318 6 363h57q0 -310 -22 -484q35 -107 86 -274h-64q-32 99 -47 168q-33 -178 -162 -178q-81 0 -119 67.5t-39 235.5v123q0 101 16.5 196t34 151t50.5 142q-64 259 -64 395v146q0 90 35 139t96 49q114 0 117 -166v-112q-1 -52 -15 -113
t-26 -96.5t-44 -120t-42 -111.5zM158 1004q32 90 45.5 129t29.5 107t17 120v115q0 51 -19 75.5t-47 24.5q-71 0 -71 -109v-151q0 -114 45 -311zM143 815q-34 -107 -51.5 -213t-17.5 -256q0 -162 25 -229.5t77 -67.5q21 0 36 5.5t34 24.5t34.5 66t26.5 121q-136 445 -164 549
z" />
    <glyph glyph-name="quotesingle" unicode="'" horiz-adv-x="174" 
d="M119 1638l-2 -524h-62l-2 524h66z" />
    <glyph glyph-name="parenleft" unicode="(" horiz-adv-x="202" 
d="M199 -143h-58q-49 158 -83.5 405t-34.5 488q0 231 37 472.5t81 415.5h58q-46 -185 -83.5 -430t-37.5 -463q0 -226 36 -471t85 -417z" />
    <glyph glyph-name="parenright" unicode=")" horiz-adv-x="202" 
d="M188 750q0 -241 -34.5 -488t-83.5 -405h-58q49 172 85 417t36 471q0 218 -37.5 463t-83.5 430h58q44 -174 81 -415.5t37 -472.5z" />
    <glyph glyph-name="asterisk" unicode="*" horiz-adv-x="479" 
d="M266 1436l152 80l24 -48l-163 -88l133 -133l-41 -39l-131 131l-131 -131l-41 39l133 133l-164 88l22 48l154 -80v198h53v-198z" />
    <glyph glyph-name="plus" unicode="+" horiz-adv-x="385" 
d="M379 793h-158v-187h-57v187h-158v57h158v186h57v-186h158v-57z" />
    <glyph glyph-name="comma" unicode="," horiz-adv-x="264" 
d="M180 -2l-69 -154h-50l60 146v10h-39v188h98v-190z" />
    <glyph glyph-name="hyphen" unicode="-" 
d="M311 801h-299v63h299v-63z" />
    <glyph glyph-name="hyphen" unicode="&#xad;" 
d="M311 801h-299v63h299v-63z" />
    <glyph glyph-name="period" unicode="." horiz-adv-x="264" 
d="M184 0h-106v188h106v-188z" />
    <glyph glyph-name="slash" unicode="/" horiz-adv-x="231" 
d="M236 1638l-228 -1966h-49l225 1966h52z" />
    <glyph glyph-name="zero" unicode="0" horiz-adv-x="374" 
d="M188 1645q80 0 112 -59t32 -167v-598q0 -419 -2 -569q-1 -145 -34.5 -202.5t-107.5 -57.5q-76 0 -108 58t-33 202q0 35 -2 260t-2 309v596q-2 101 34 164.5t111 63.5zM274 834q0 134 -1 362t-1 256q0 139 -86 139q-47 0 -63.5 -36t-18.5 -105q-4 -200 -4 -627
q0 -81 4 -331.5t7 -313.5q7 -133 77 -133q78 0 82 135q4 168 4 654z" />
    <glyph glyph-name="one" unicode="1" horiz-adv-x="272" 
d="M221 0h-59v1501h-152v37q4 1 22 4.5t22.5 4.5t20.5 5t21 6.5t18 7t19 9t16.5 11.5t16.5 14t13.5 17t13.5 21h28v-1638z" />
    <glyph glyph-name="two" unicode="2" horiz-adv-x="350" 
d="M315 0h-290v63q0 102 22.5 216.5t55.5 221.5t67 216.5t60 238t30 248.5q2 37 2 244q0 40 -6 68t-13.5 42.5t-20.5 22t-22.5 9t-23.5 1.5q-88 0 -88 -135v-264h-57v246q0 95 39 151t112 56q72 0 101 -45.5t34 -137.5q1 -12 1 -68.5t-0.5 -125t-0.5 -74.5
q-3 -118 -28.5 -246t-59.5 -238.5t-68 -219t-57.5 -223.5t-23.5 -216h235v-51z" />
    <glyph glyph-name="three" unicode="3" horiz-adv-x="333" 
d="M119 887q101 -10 143.5 -58t44.5 -151q1 -56 1 -152t-0.5 -201.5t-0.5 -125.5q0 -104 -40 -155.5t-113 -51.5q-72 0 -107 47t-35 131l-2 279h58v-314q0 -44 24 -67t60 -23q98 0 98 125v489q0 89 -30 134.5t-103 58.5l-35 6v57l27 7q72 17 101.5 66t29.5 145v344
q0 114 -78 114q-37 0 -57.5 -30.5t-20.5 -87.5l-2 -254h-59q2 188 2 235q0 89 36.5 140t98.5 51q79 0 108 -48.5t29 -148.5v-324q0 -112 -41 -171t-137 -66z" />
    <glyph glyph-name="four" unicode="4" horiz-adv-x="387" 
d="M381 434h-90v-434h-58v434h-219v68l183 1136h94v-1151h90v-53zM233 487v1076l-163 -1076h163z" />
    <glyph glyph-name="five" unicode="5" horiz-adv-x="339" 
d="M309 166q-2 -82 -37.5 -128t-107.5 -46q-67 0 -101 51.5t-34 140.5v213h59v-200q0 -73 16.5 -112.5t63.5 -39.5t64.5 32t17.5 89q0 32 -1 323t-1 361q0 121 -70 121q-28 0 -55 -33t-31 -98h-55v798h258v-55h-203v-625q9 32 36 52t65 20q55 0 83.5 -43.5t30.5 -122.5
q10 -381 2 -698z" />
    <glyph glyph-name="six" unicode="6" horiz-adv-x="391" 
d="M328 182q-3 -87 -34.5 -138.5t-107.5 -51.5q-72 0 -105.5 51t-35.5 154v624q0 88 -1 316.5t-1 246.5q-2 131 31 196t110 65q73 0 108 -49.5t38 -127.5v-182h-60v137q0 44 -2.5 69.5t-10.5 51t-25.5 36.5t-45.5 11q-47 0 -63.5 -39t-18.5 -131q-4 -164 -4 -555
q10 53 42.5 77t72.5 24q53 0 84 -37.5t31 -83.5q1 -121 0.5 -359t-2.5 -305zM268 178q4 122 4 641q0 92 -63 92q-45 0 -74 -34t-35 -103q0 -490 4 -604q3 -69 24.5 -97t59.5 -28q39 0 59 28t21 105z" />
    <glyph glyph-name="seven" unicode="7" horiz-adv-x="315" 
d="M309 1591l-196 -1591h-62l203 1583h-246v55h301v-47z" />
    <glyph glyph-name="eight" unicode="8" horiz-adv-x="356" 
d="M319 190q-5 -102 -38 -150t-105 -48q-75 0 -107 49.5t-34 148.5v562q0 123 78 151q-20 10 -29.5 17t-21.5 24.5t-16.5 49.5t-4.5 81v391q0 79 35.5 129t99.5 50q70 0 103.5 -46t33.5 -124v-400q-1 -83 -19 -120.5t-56 -51.5q78 -21 81 -149q1 -63 1 -293.5t-1 -270.5z
M262 168v598q0 50 -25 78t-61 28t-60 -28t-24 -82v-588q0 -57 20 -93t62 -36t65 36t23 87zM256 1028v453q0 110 -84 110q-30 0 -52 -27t-22 -85v-449q0 -100 78 -100q31 0 55.5 22.5t24.5 75.5z" />
    <glyph glyph-name="nine" unicode="9" horiz-adv-x="368" 
d="M328 205q0 -213 -146 -213q-60 0 -100 40.5t-41 119.5v198h59v-151q0 -86 20.5 -118t63.5 -32q81 0 84 121q1 69 0.5 180.5t-1.5 255.5t-1 148q-33 -84 -110 -84q-112 0 -115 127q-1 115 -1 348.5t1 327.5q2 77 38.5 124.5t104.5 47.5q134 0 140 -162q4 -147 4 -600v-678
zM264 838q0 584 -2 641q-3 108 -82 108q-36 0 -57 -29.5t-21 -87.5q-2 -47 -2.5 -326t0.5 -325q3 -90 72 -90q31 0 57.5 33.5t34.5 75.5z" />
    <glyph glyph-name="colon" unicode=":" horiz-adv-x="241" 
d="M180 795h-98v184h98v-184zM180 0h-98v184h98v-184z" />
    <glyph glyph-name="semicolon" unicode=";" horiz-adv-x="241" 
d="M180 795h-98v184h98v-184zM180 -2l-69 -154h-48l58 146v10h-39v184h98v-186z" />
    <glyph glyph-name="less" unicode="&#x3c;" horiz-adv-x="604" 
d="M569 594l-540 192v52l540 190v-65l-467 -150l467 -158v-61z" />
    <glyph glyph-name="equal" unicode="=" horiz-adv-x="387" 
d="M367 899h-347v57h347v-57zM367 690h-347v58h347v-58z" />
    <glyph glyph-name="greater" unicode="&#x3e;" horiz-adv-x="604" 
d="M569 786l-540 -192v61l467 158l-467 150v65l540 -190v-52z" />
    <glyph glyph-name="question" unicode="?" horiz-adv-x="348" 
d="M303 1243q0 -83 -21 -183t-45.5 -186t-43 -238t-15.5 -329h-53q-4 152 7 276t29 207t37 155.5t32.5 157t13.5 175.5v168q0 141 -76 141q-84 0 -84 -133v-168h-57v178q0 181 145 181q63 0 95.5 -46.5t35.5 -152.5v-203zM190 0h-69v190h69v-190z" />
    <glyph glyph-name="at" unicode="@" horiz-adv-x="626" 
d="M391 350q-31 -69 -100 -69q-47 0 -78 32t-31 101v250q0 174 107 247q36 27 98 41v324q0 98 -63 98q-68 0 -68 -104v-264h-51v258q0 159 121 159q63 0 87.5 -38.5t24.5 -114.5q0 -69 -1 -264t-1 -248v-322q0 -96 45 -96q42 0 45 84q2 41 2 399v580q0 49 -8 81t-31 58
t-66 37.5t-110 11.5q-63 0 -104.5 -11t-63 -34t-30.5 -47.5t-13 -62.5q-3 -24 -4 -113t-1 -174t0.5 -198.5t0.5 -135.5q0 -11 -1 -188t0 -293t5 -150q8 -70 55.5 -106.5t159.5 -36.5q84 0 134 29l30 -43q-61 -37 -170 -37q-136 0 -196.5 55.5t-65.5 183.5v594v578
q0 244 262 244q134 0 200.5 -56.5t66.5 -187.5v-580q0 -207 -3 -379q-2 -77 -24 -111t-74 -34q-65 0 -86 53zM387 907l-15 -6t-18.5 -7.5t-13.5 -6.5q-28 -14 -66 -66q-41 -53 -41 -190v-193q0 -56 17 -83t55 -27q82 0 82 143v436z" />
    <glyph glyph-name="A" unicode="A" horiz-adv-x="356" 
d="M94 393l-35 -393h-59l166 1638h65l125 -1638h-59l-27 393h-176zM268 446l-63 818l-12 247l-17 -245l-80 -820h172z" />
    <glyph glyph-name="B" unicode="B" horiz-adv-x="417" 
d="M369 156q-2 -77 -31.5 -116.5t-95.5 -39.5h-181v1638h162q59 0 99 -32.5t43 -100.5l2 -272q0 -165 -5 -252q-3 -65 -16 -97.5t-45 -43.5q70 -16 70 -115q0 -10 1 -122.5t1 -153.5q0 -47 -2 -165.5t-2 -127.5zM307 1235q0 51 -1 146t-1 108q0 45 -23 69.5t-65 24.5h-98
v-715h129q21 0 37.5 20t17.5 60q4 74 4 287zM311 137q2 45 2 307v285q0 41 -18.5 61.5t-44.5 20.5h-131v-756h129q60 0 63 82z" />
    <glyph glyph-name="C" unicode="C" horiz-adv-x="403" 
d="M377 496v-273q0 -233 -164 -233q-159 0 -162 209q-2 147 -2 635v587q0 224 170 224q80 0 118 -54t38 -143v-305h-60q0 245 -2 315q-3 127 -100 127q-55 0 -77.5 -36t-24.5 -109q0 -28 -1 -284.5t-1 -324.5q0 -72 2 -336t2 -278q1 -98 27.5 -133t74.5 -35q46 0 74 37.5
t28 142.5v267h60z" />
    <glyph glyph-name="D" unicode="D" horiz-adv-x="407" 
d="M367 172q-9 -172 -158 -172h-148v1638h129q83 0 127 -47.5t50 -132.5q2 -33 2 -602q0 -642 -2 -684zM307 158q2 66 2 700q0 511 -2 572q-3 71 -33 111t-75 40h-78v-1524h102q34 0 58.5 24.5t25.5 76.5z" />
    <glyph glyph-name="E" unicode="E" horiz-adv-x="337" 
d="M338 0h-277v1638h275v-57h-215v-723h184v-55h-184v-746h217v-57z" />
    <glyph glyph-name="F" unicode="F" horiz-adv-x="333" 
d="M342 1581h-221v-725h201v-53h-201v-803h-60v1638h281v-57z" />
    <glyph glyph-name="G" unicode="G" horiz-adv-x="374" 
d="M344 0h-35l-4 59q-10 -33 -40 -51t-66 -18q-140 0 -146 174q-4 78 -4 657v625q0 201 150 201q72 0 105.5 -46.5t35.5 -119.5v-324h-59v295q0 131 -82 131q-88 0 -88 -127q0 -44 -1 -313t-1 -326q0 -35 1 -321t1 -322q0 -129 88 -129q40 0 63 31t23 90v614h-115v58h174
v-838z" />
    <glyph glyph-name="H" unicode="H" horiz-adv-x="430" 
d="M369 0h-60v801h-188v-801h-60v1638h60v-782h188v782h60v-1638z" />
    <glyph glyph-name="I" unicode="I" horiz-adv-x="182" 
d="M121 0h-60v1638h60v-1638z" />
    <glyph glyph-name="J" unicode="J" horiz-adv-x="299" 
d="M244 186q0 -98 -33 -143t-109 -45q-67 0 -94 6v55q40 -6 76 -6q58 0 79 26.5t21 90.5v1468h60v-1452z" />
    <glyph glyph-name="K" unicode="K" horiz-adv-x="387" 
d="M403 0h-61l-188 805l-33 -105v-700h-60v1638h60v-768l215 768h57l-205 -725z" />
    <glyph glyph-name="L" unicode="L" horiz-adv-x="339" 
d="M330 0h-269v1638h60v-1581h209v-57z" />
    <glyph glyph-name="M" unicode="M" horiz-adv-x="569" 
d="M508 0h-57l2 1317l-17 -158l-131 -1159h-55l-121 1151l-12 164l2 -1315h-60v1638h68l147 -1310l7 -113l10 111l149 1312h68v-1638z" />
    <glyph glyph-name="N" unicode="N" horiz-adv-x="432" 
d="M375 0h-70l-194 1384v-1384h-56v1638h76l188 -1335v1335h56v-1638z" />
    <glyph glyph-name="O" unicode="O" horiz-adv-x="423" 
d="M211 1645q84 0 124 -56t40 -188q0 -30 1 -259.5t1 -320.5q0 -483 -2 -598q-2 -120 -40.5 -176.5t-123.5 -56.5t-123 56t-39 183v1172q0 244 162 244zM215 49q89 0 96 141q4 72 4 633q0 541 -2 611q-2 78 -24 113.5t-76 35.5q-58 0 -77 -38t-23 -115q-2 -35 -2 -615
q0 -587 2 -625q3 -70 25 -105.5t77 -35.5z" />
    <glyph glyph-name="P" unicode="P" horiz-adv-x="380" 
d="M352 1174q0 -166 -8 -250.5t-33 -126.5q-45 -73 -121 -84l-69 -2v-711h-60v1638h132q40 0 66 -20t50 -62q43 -74 43 -382zM289 1174q0 137 -10.5 231.5t-24.5 120.5q-14 28 -38 41.5t-48 13.5h-47v-811h43q72 3 96 59q29 69 29 345z" />
    <glyph glyph-name="Q" unicode="Q" horiz-adv-x="423" 
d="M311 29q23 -32 43 -54q31 -33 64 -57l-43 -43q-24 19 -66 64q-23 25 -47 61q-28 -4 -51 -4q-159 0 -162 244v1161q0 244 162 244q84 0 124 -56t40 -188q0 -30 1 -259.5t1 -320.5q0 -473 -2 -588q-3 -159 -64 -204zM215 47q47 0 69 34.5t27 113.5q4 72 4 632q0 537 -2 607
q-2 78 -24 113.5t-76 35.5q-30 0 -50 -11.5t-29.5 -35.5t-13 -48t-5.5 -63q-4 -70 -4 -610q0 -544 4 -620q3 -74 29.5 -111t70.5 -37z" />
    <glyph glyph-name="R" unicode="R" horiz-adv-x="387" 
d="M342 1210q0 -220 -35 -299q-26 -61 -55 -71l127 -840h-66l-120 821l-72 -2v-819h-60v1638h115q53 0 85 -19.5t50 -70.5q31 -85 31 -338zM281 1210q0 232 -29 314q-21 57 -68 57h-63v-704q49 0 69 4q45 6 64 57q27 70 27 272z" />
    <glyph glyph-name="S" unicode="S" horiz-adv-x="356" 
d="M336 262q0 -272 -164 -272q-72 0 -113 46t-41 126v248h60v-222q0 -75 23 -107t71 -32q49 0 74.5 44t25.5 161q0 154 -19 255.5t-73 260.5q-9 29 -32 91.5t-27 74.5q-5 14 -24 68t-23 66.5t-17.5 54.5t-17 57t-12 48.5t-10.5 53.5t-4.5 47.5t-2.5 54.5q0 131 44.5 195
t119.5 64q156 0 156 -240v-193h-60v191q0 93 -22 136.5t-76 43.5q-52 0 -76 -46.5t-24 -156.5q0 -30 3 -61t11.5 -67t14 -60.5t19.5 -67t19 -58t22 -62t19 -52.5q4 -11 27.5 -72.5t32.5 -91.5q53 -165 74.5 -276t21.5 -250z" />
    <glyph glyph-name="T" unicode="T" horiz-adv-x="335" 
d="M332 1581h-135v-1581h-60v1581h-133v57h328v-57z" />
    <glyph glyph-name="U" unicode="U" horiz-adv-x="415" 
d="M358 158q0 -79 -36.5 -123.5t-112.5 -44.5q-78 0 -118 43t-40 125v1480h60v-1452q0 -77 23.5 -108t74.5 -31q49 0 69.5 32t20.5 105v1454h59v-1480z" />
    <glyph glyph-name="V" unicode="V" horiz-adv-x="385" 
d="M381 1638l-156 -1638h-65l-160 1638h59l134 -1433l129 1433h59z" />
    <glyph glyph-name="W" unicode="W" horiz-adv-x="624" 
d="M623 1638l-131 -1638h-70q-113 1288 -113 1503q0 -96 -28.5 -471.5t-56.5 -703.5l-29 -328h-70l-125 1638h57q103 -1277 103 -1482q0 91 29 461.5t58 695.5l29 325h66q115 -1281 115 -1482q0 89 27.5 459.5t55.5 696.5l27 326h56z" />
    <glyph glyph-name="X" unicode="X" horiz-adv-x="378" 
d="M188 725l-125 -725h-61l158 877l-137 761h63l109 -628l108 628h62l-142 -782l156 -856h-64z" />
    <glyph glyph-name="Y" unicode="Y" horiz-adv-x="395" 
d="M395 1638l-170 -1040v-598h-65v594l-160 1044h61q136 -839 136 -917q0 36 34.5 265.5t68.5 440.5l34 211h61z" />
    <glyph glyph-name="Z" unicode="Z" horiz-adv-x="325" 
d="M324 0h-320v39l246 1542h-230v57h295v-22l-247 -1559h256v-57z" />
    <glyph glyph-name="bracketleft" unicode="[" horiz-adv-x="186" 
d="M180 -328h-155v1966h155v-59h-92v-1851h92v-56z" />
    <glyph glyph-name="backslash" unicode="\" horiz-adv-x="231" 
d="M6 1638h51l226 -1966h-50z" />
    <glyph glyph-name="bracketright" unicode="]" horiz-adv-x="186" 
d="M6 -328v56h92v1851h-92v59h156v-1966h-156z" />
    <glyph glyph-name="asciicircum" unicode="^" horiz-adv-x="544" 
d="M264 1585l-196 -325l-43 32l198 332h92l199 -332l-45 -32z" />
    <glyph glyph-name="underscore" unicode="_" horiz-adv-x="380" 
d="M379 -172h-379v53h379v-53z" />
    <glyph glyph-name="grave" unicode="`" horiz-adv-x="409" 
d="M299 1190h-63l-105 201h66z" />
    <glyph glyph-name="a" unicode="a" horiz-adv-x="305" 
d="M279 0h-48q-6 40 -6 63q-31 -69 -96 -69q-47 0 -78 32t-31 101v250q0 175 107 248q38 28 94 41v317q0 98 -59 98q-64 0 -64 -104v-258h-55v258q0 160 121 160q62 0 87 -39t25 -115q0 -69 -1 -264t-1 -248v-379q0 -22 2.5 -52.5t2.5 -39.5zM221 616q-21 -9 -43 -20
q-32 -17 -65 -61q-24 -31 -30.5 -74.5t-6.5 -116.5v-188q0 -58 15 -84.5t52 -26.5q78 0 78 143v428z" />
    <glyph glyph-name="b" unicode="b" horiz-adv-x="321" 
d="M188 1137q99 0 99 -138v-866q0 -65 -28.5 -100t-74.5 -35q-66 0 -84 57l-10 -55h-45v1638h53v-579q6 35 31 56.5t59 21.5zM172 1083q-72 0 -72 -120v-838q0 -33 16.5 -55.5t51.5 -22.5q33 0 48 23t15 77v852q0 84 -59 84z" />
    <glyph glyph-name="c" unicode="c" horiz-adv-x="294" 
d="M266 764h-55v166q0 43 -1 65.5t-6.5 46t-17 32.5t-30.5 9q-37 0 -48.5 -29.5t-11.5 -109.5q0 -113 -1 -230.5t-1 -150.5q0 -39 1 -199t1 -208q0 -64 12.5 -88.5t45.5 -24.5t46 28t13 89v192h53v-190q0 -90 -27 -130t-87 -40q-113 0 -113 151v815q0 91 26 135t91 44
q110 0 110 -158v-215z" />
    <glyph glyph-name="d" unicode="d" horiz-adv-x="319" 
d="M143 1133q66 0 84 -58v563h56v-1542l6 -96h-45l-15 49q-18 -55 -90 -55q-98 0 -98 137v866q0 66 28 101t74 35zM160 1077q-33 0 -48.5 -23t-15.5 -77v-852q0 -84 60 -84q71 0 71 121v837q0 33 -16 55.5t-51 22.5z" />
    <glyph glyph-name="e" unicode="e" horiz-adv-x="299" 
d="M272 317v-165q0 -160 -116 -160q-117 0 -117 143v850q0 152 119 152q52 0 82 -31t30 -76v-21.5t0.5 -55.5t1 -90t0.5 -142v-195h-178v-395q0 -88 64 -88q61 0 61 88v186h53zM215 578v426q0 79 -61 79q-57 0 -60 -82v-423h121z" />
    <glyph glyph-name="f" unicode="f" horiz-adv-x="202" 
d="M203 1077h-76v-1077h-55v1077h-68v49h68v371q0 71 24.5 109.5t71.5 38.5q23 0 51 -7v-51h-47q-21 0 -33 -18.5t-12 -48.5v-394h76v-49z" />
    <glyph glyph-name="g" unicode="g" horiz-adv-x="329" 
d="M164 1141q37 0 63 -18t33 -42q13 27 33.5 38t56.5 11v-61h-80q21 -43 21 -168v-393q0 -106 -32 -149.5t-95 -43.5q-37 0 -62 21q-43 -15 -43 -62q0 -35 28 -55t101 -43q82 -25 120 -80t38 -149q0 -104 -48 -152.5t-130 -48.5q-168 0 -168 205q0 138 94 203
q-86 34 -86 114q0 36 19.5 60t46.5 32q-35 26 -35 134q0 35 -1 247t-1 236q0 164 127 164zM164 1087q-38 0 -55 -29.5t-17 -101.5v-479q0 -112 72 -112q39 0 54.5 25.5t17.5 86.5q1 29 -1 253t-4 265q-6 92 -67 92zM168 -207q59 0 92 34.5t33 119.5q0 149 -115 178
q-9 2 -24.5 7.5t-18.5 6.5q-42 -30 -62 -74t-20 -114q0 -76 30.5 -117t84.5 -41z" />
    <glyph glyph-name="h" unicode="h" horiz-adv-x="319" 
d="M279 0h-56v1010q0 32 -10.5 49.5t-40.5 17.5q-32 0 -52 -35.5t-20 -107.5v-934h-55v1638h55v-587q7 41 30.5 63.5t55.5 22.5q35 0 64 -27t29 -80v-1030z" />
    <glyph glyph-name="i" unicode="i" horiz-adv-x="153" 
d="M111 1188h-70v131h70v-131zM113 0h-56q-8 49 -8 82v1044h55v-1024q0 -18 2 -43.5t4 -42.5z" />
    <glyph glyph-name="j" unicode="j" horiz-adv-x="155" 
d="M111 1188h-70v131h70v-131zM104 -219q0 -111 -108 -111q-25 0 -41 4v52h33q61 0 61 61v1339h55v-1345z" />
    <glyph glyph-name="k" unicode="k" horiz-adv-x="296" 
d="M297 0h-61l-107 596l-29 -90v-506h-55v1638h55v-1015l131 503h64l-125 -438z" />
    <glyph glyph-name="l" unicode="l" horiz-adv-x="141" 
d="M104 0h-53q-6 9 -6 57v1491q0 70 -4 90h57q2 -34 2 -59v-1491q0 -72 4 -88z" />
    <glyph glyph-name="m" unicode="m" horiz-adv-x="485" 
d="M387 0v1006q0 75 -49 75q-32 0 -48 -35t-16 -71v-975h-55v1010q0 71 -49 71q-31 0 -50.5 -38.5t-19.5 -88.5v-954h-55v1126h55v-82q5 43 28 68t58 25q60 0 78 -86q7 41 30.5 63.5t55.5 22.5q92 0 92 -129v-1008h-55z" />
    <glyph glyph-name="n" unicode="n" horiz-adv-x="319" 
d="M279 0h-56v1016q0 61 -49 61q-74 0 -74 -157v-920h-55v1126h53v-92q4 55 32 79t63 24q86 0 86 -117v-1020z" />
    <glyph glyph-name="o" unicode="o" 
d="M285 147q0 -79 -33.5 -117t-89.5 -38q-60 0 -91.5 37.5t-31.5 105.5v836q0 166 125 166q61 0 91 -39t30 -125v-826zM229 559q0 64 -1 225t-1 191q0 60 -15.5 85t-49.5 25q-66 0 -66 -110q0 -37 -1 -195t-1 -221t1 -226t1 -198q0 -48 18 -72t48 -24q65 0 65 98
q0 34 1 196.5t1 225.5z" />
    <glyph glyph-name="p" unicode="p" horiz-adv-x="325" 
d="M287 133q0 -65 -28.5 -100t-74.5 -35q-62 0 -84 37v-363h-55v1454h51v-61q10 36 36.5 54t55.5 18q99 0 99 -138v-866zM231 999q0 84 -59 84q-72 0 -72 -120v-838q0 -33 16 -54.5t52 -21.5q33 0 48 22t15 76v852z" />
    <glyph glyph-name="q" unicode="q" horiz-adv-x="315" 
d="M287 -328h-54l-10 19v354q-26 -51 -80 -51q-56 0 -79 34.5t-23 110.5v844q0 152 106 152q61 0 82 -56v51h50v-1271q0 -45 2 -92t4 -71zM227 580v395q0 104 -67 104q-36 0 -50 -29.5t-14 -105.5v-373v-446q0 -84 60 -84q63 0 69 106q2 27 2 433z" />
    <glyph glyph-name="r" unicode="r" horiz-adv-x="229" 
d="M227 1135v-66q-25 4 -41 4q-41 0 -63.5 -48.5t-22.5 -125.5v-899h-55v1126h57v-88q4 45 29.5 72t61.5 27z" />
    <glyph glyph-name="s" unicode="s" horiz-adv-x="288" 
d="M268 270q0 -150 -30.5 -214t-100.5 -64q-123 0 -123 162v176h56v-178q0 -59 17.5 -82t49.5 -23q25 0 40.5 16.5t24.5 66.5t9 138q0 142 -57 244q-31 60 -60 106q-71 111 -71 322q0 90 29 143.5t91 53.5q58 0 84 -36.5t29 -107.5v-207h-55v195q0 52 -13.5 77t-46.5 25
t-47 -35t-14 -122q0 -165 65 -275q8 -15 28 -48.5t28 -47.5q67 -116 67 -285z" />
    <glyph glyph-name="t" unicode="t" horiz-adv-x="223" 
d="M199 1077h-82q0 -122 -1 -502t-1 -450q0 -32 8 -48.5t17 -20t24 -3.5h37v-53q-23 -2 -62 -2q-80 0 -80 106v973h-53v49h53l4 138l54 10v-148h82v-49z" />
    <glyph glyph-name="u" unicode="u" 
d="M281 0h-54l-2 49q-20 -55 -90 -55q-40 0 -65 29t-25 92v1011h55v-1011q0 -72 52 -72q71 0 71 127v956h56v-1001q0 -107 2 -125z" />
    <glyph glyph-name="v" unicode="v" horiz-adv-x="290" 
d="M291 1126l-113 -1126h-65l-113 1126h57l90 -968l86 968h58z" />
    <glyph glyph-name="w" unicode="w" horiz-adv-x="493" 
d="M494 1126l-111 -1126h-61l-66 811l-6 170l-8 -170l-66 -811h-61l-115 1126h59l82 -882l9 -135l6 135l59 882h61l70 -882l8 -135l6 135l78 882h56z" />
    <glyph glyph-name="x" unicode="x" horiz-adv-x="282" 
d="M141 709l80 417h60l-111 -536l113 -590h-56l-88 467l-80 -467h-59l113 590l-105 536h55z" />
    <glyph glyph-name="y" unicode="y" horiz-adv-x="286" 
d="M287 1126l-172 -1454h-60l56 416l-111 1038h57l74 -751l8 -113l8 113l82 751h58z" />
    <glyph glyph-name="z" unicode="z" horiz-adv-x="251" 
d="M242 0h-236v59l178 1018h-174v49h232v-65l-179 -1012h179v-49z" />
    <glyph glyph-name="braceleft" unicode="{" horiz-adv-x="366" 
d="M346 -328h-80q-38 0 -65.5 14.5t-42.5 37t-23.5 57.5t-11 67t-2.5 76q0 72 18.5 269.5t18.5 304.5q0 38 -2.5 67t-11 61t-22.5 53t-38.5 34.5t-58.5 13.5v55q42 0 70 19.5t41 55t17.5 71.5t4.5 84q0 50 -18.5 187.5t-18.5 221.5q0 44 4.5 76.5t18.5 67.5t44.5 54t77.5 19
h80v-57q-94 0 -128 -31t-34 -131q0 -33 20.5 -185.5t20.5 -209.5q0 -51 -3.5 -88t-14.5 -81.5t-37 -70.5t-66 -30q40 -4 66 -29.5t37 -69.5t14.5 -81.5t3.5 -88.5q0 -94 -20.5 -289t-20.5 -329q0 -86 34 -111.5t128 -25.5v-58z" />
    <glyph glyph-name="bar" unicode="|" horiz-adv-x="184" 
d="M123 -410h-62v2048h62v-2048z" />
    <glyph glyph-name="braceright" unicode="}" horiz-adv-x="366" 
d="M14 -328v58q94 0 128 25.5t34 111.5q0 134 -20.5 329t-20.5 289q0 51 3.5 88.5t14.5 81.5t37 69.5t66 29.5q-40 4 -66 30t-37 70.5t-14.5 81.5t-3.5 88q0 57 20.5 209.5t20.5 185.5q0 100 -34 131t-128 31v57h80q38 0 65.5 -13.5t42.5 -34t24 -51.5t11.5 -57.5t2.5 -60.5
q0 -84 -18.5 -221.5t-18.5 -187.5q0 -48 4.5 -84t17.5 -71.5t41 -55t70 -19.5v-55q-34 0 -58.5 -13.5t-38.5 -34.5t-22.5 -53t-11 -61t-2.5 -67q0 -107 18.5 -304.5t18.5 -269.5q0 -43 -2.5 -75.5t-11.5 -67.5t-24 -57.5t-42.5 -37t-65.5 -14.5h-80z" />
    <glyph glyph-name="asciitilde" unicode="~" horiz-adv-x="309" 
d="M141 807q-13 19 -21 25t-24 6q-34 0 -47 -76l-49 14q8 48 34.5 81.5t61.5 33.5q26 0 43.5 -11t38.5 -44q17 -25 41 -25q34 0 47 78l49 -15q-19 -114 -94 -114q-16 0 -26 2t-24.5 13t-29.5 32z" />
    <glyph glyph-name="exclamdown" unicode="&#xa1;" horiz-adv-x="221" 
d="M76 1638h69v-190h-69v190zM82 0l4 1331h49l4 -1331h-57z" />
    <glyph glyph-name="cent" unicode="&#xa2;" horiz-adv-x="319" 
d="M147 1343v152h48v-152q98 -12 98 -155v-195h-51v150q0 67 -10 103t-37 46v-999q49 15 49 113v176h49v-170q0 -81 -24 -121.5t-74 -46.5v-158h-48v158q-94 15 -94 149v774q0 159 94 176zM147 1292q-43 -17 -43 -135v-756q0 -93 43 -108v999z" />
    <glyph glyph-name="sterling" unicode="&#xa3;" horiz-adv-x="321" 
d="M129 762q-2 9 -15.5 65t-17.5 73.5t-15 66t-15 74.5t-10.5 66t-8.5 73t-2 65v232q0 168 131 168q67 0 96 -43.5t29 -131.5v-358h-53v363q0 66 -17.5 91t-56.5 25q-40 0 -56 -25t-16 -89v-222q0 -39 4 -84.5t8.5 -78.5t16.5 -88t17.5 -78t22 -86.5t19.5 -77.5h111v-51h-98
q35 -144 35 -219q0 -318 -175 -441h254v-51h-299v55q68 54 114 173t46 264q0 56 -37 219h-94v51h82z" />
    <glyph glyph-name="currency" unicode="&#xa4;" horiz-adv-x="382" 
d="M63 911v494q0 122 32.5 179.5t107.5 57.5q74 0 106.5 -59t32.5 -178v-215h-57v215q0 97 -17.5 140.5t-62.5 43.5q-49 0 -66.5 -42.5t-17.5 -141.5v-494h172v-53h-172v-92h172v-53h-172v-484q0 -99 17.5 -141.5t66.5 -42.5q45 0 62.5 43.5t17.5 140.5v181h57v-181
q0 -119 -32.5 -178t-106.5 -59q-75 0 -107.5 57.5t-32.5 179.5v484h-53v53h53v92h-53v53h53z" />
    <glyph glyph-name="yen" unicode="&#xa5;" horiz-adv-x="413" 
d="M166 432h-129v53h129v109l-156 1044h62q129 -839 129 -917q0 36 35.5 265.5t71.5 440.5l36 211h62l-175 -1040v-113h138v-53h-138v-92h138v-53h-138v-287h-65v287h-129v53h129v92z" />
    <glyph glyph-name="brokenbar" unicode="&#xa6;" horiz-adv-x="184" 
d="M123 733h-62v905h62v-905zM123 -410h-62v861h62v-861z" />
    <glyph glyph-name="section" unicode="&#xa7;" horiz-adv-x="313" 
d="M29 889q0 174 90 223q-86 62 -86 193v163q0 87 33 132t92 45q58 0 91.5 -44t33.5 -128v-164h-56v166q0 116 -67 116q-38 0 -57 -30.5t-19 -104.5v-153q0 -39 10.5 -69.5t22 -44.5t35.5 -38q5 -5 32 -31.5t37 -36.5q72 -77 72 -190v-137q0 -175 -90 -224q86 -62 86 -192
v-184q0 -86 -33 -131t-92 -45q-58 0 -91.5 44t-33.5 128v163h55v-165q0 -117 68 -117q38 0 57 30.5t19 104.5v174q0 39 -10.5 69.5t-22 44.5t-35.5 38q-5 5 -32.5 31t-37.5 36q-71 76 -71 191v137zM80 752q-1 -53 22 -94.5t66 -86.5q28 2 51 57t23 126v139q0 56 -19.5 96
t-62.5 80q-30 0 -55 -54t-25 -124v-139z" />
    <glyph glyph-name="dieresis" unicode="&#xa8;" horiz-adv-x="409" 
d="M322 1190h-68v145h68v-145zM156 1190h-68v145h68v-145z" />
    <glyph glyph-name="copyright" unicode="&#xa9;" horiz-adv-x="593" 
d="M565 1014q0 -200 -69 -288.5t-197 -88.5q-270 0 -270 377v284q0 98 20 166.5t58 105.5t84 52.5t106 15.5q59 0 104.5 -15t84 -51.5t59 -105.5t20.5 -168v-284zM524 1047v276q0 272 -227 272q-104 0 -166.5 -64t-62.5 -208v-276q0 -107 17.5 -182t50 -115t71.5 -57t90 -17
q56 0 95 15.5t70 55t46.5 114t15.5 186.5zM381 1038v-137q0 -59 -24.5 -88t-63.5 -29q-77 0 -86 105q-6 63 -6 209q0 134 6 221q4 65 29 90t65 25q80 0 80 -125v-125h-45q0 15 0.5 49t0.5 59t-1 41q-2 30 -10 43t-27 13q-51 0 -51 -66v-225q0 -36 1 -110.5t1 -82.5
q1 -48 11.5 -66t33.5 -18q22 0 32.5 18.5t10.5 71.5v127h43z" />
    <glyph glyph-name="ordfeminine" unicode="&#xaa;" horiz-adv-x="346" 
d="M289 625h-47q-6 40 -6 63q-31 -70 -97 -70q-47 0 -77.5 32.5t-30.5 101.5v188q0 176 106 248q38 28 94 41v256q0 98 -59 98q-63 0 -63 -104v-197h-56v197q0 159 121 159q63 0 88 -38.5t25 -114.5v-451q0 -77 -1 -187.5t-1 -129.5q0 -21 2 -52t2 -40zM231 1174
q-36 -14 -43 -17q-35 -18 -65 -59q-24 -31 -30.5 -74.5t-6.5 -116.5v-127q0 -57 15.5 -83.5t52.5 -26.5q77 0 77 143v361zM313 518h-286v47h286v-47z" />
    <glyph glyph-name="guillemotleft" unicode="&#xab;" horiz-adv-x="385" 
d="M369 313l-172 387v37l172 387v-139l-117 -266l117 -264v-142zM184 313l-172 387v37l172 387v-139l-116 -266l116 -264v-142z" />
    <glyph glyph-name="logicalnot" unicode="&#xac;" horiz-adv-x="581" 
d="M258 1047v528h-248v53h561v-53h-252v-528q82 -12 138.5 -76t56.5 -148t-56.5 -147t-140.5 -74v-539h254v-53h-561v53h246v539q-82 12 -137.5 74.5t-55.5 146.5t56.5 148t138.5 76zM319 997v-96l-32 -70l-29 70v96q-62 -12 -103.5 -61t-41.5 -113t40.5 -112t102.5 -60v97
l31 67l30 -67v-97q62 11 105 59.5t43 112.5t-42 113t-104 61zM293 827q6 8 30.5 38.5t32.5 43.5q22 31 48 7q21 -19 16 -43q-4 -16 -23 -19q-32 -5 -104 -27zM281 827q-71 22 -105 27q-29 5 -23 35q6 26 27 34q21 9 37 -14q8 -13 32.5 -43t31.5 -39zM293 819q65 -20 104 -26
q29 -5 23 -34q-5 -27 -27 -36q-21 -9 -37 14q-8 13 -32.5 43.5t-30.5 38.5zM281 819q-7 -9 -31.5 -39t-32.5 -43q-21 -30 -47 -8q-22 19 -17 43q3 18 23 21q41 7 105 26z" />
    <glyph glyph-name="registered" unicode="&#xae;" horiz-adv-x="593" 
d="M565 1014q0 -200 -69 -288.5t-197 -88.5q-270 0 -270 377v284q0 98 20 166.5t58 105.5t84 52.5t106 15.5q59 0 104.5 -15t84 -51.5t59 -105.5t20.5 -168v-284zM524 1047v276q0 272 -227 272q-104 0 -166.5 -64t-62.5 -208v-276q0 -371 229 -371q54 0 93.5 16.5t71 57
t47 114.5t15.5 183zM428 801h-45l-74 289h-90v-289h-43v610h143q35 0 58 -13.5t33.5 -39t14 -50.5t3.5 -59q0 -154 -74 -157zM385 1245q0 25 -2 43t-8 37t-19.5 29t-33.5 10h-103v-231h115q22 0 34 17.5t14.5 38.5t2.5 56z" />
    <glyph glyph-name="macron" unicode="&#xaf;" horiz-adv-x="409" 
d="M330 1212h-252v50h252v-50z" />
    <glyph glyph-name="macron" unicode="&#x2c9;" horiz-adv-x="409" 
d="M330 1212h-252v50h252v-50z" />
    <glyph glyph-name="degree" unicode="&#xb0;" horiz-adv-x="290" 
d="M147 1516q57 0 97.5 -40.5t40.5 -97.5t-40.5 -97t-97.5 -40t-97 40t-40 97t40 97.5t97 40.5zM147 1458q-34 0 -56.5 -23t-22.5 -57t22.5 -57t56.5 -23t57 23t23 57t-23 57t-57 23z" />
    <glyph glyph-name="plusminus" unicode="&#xb1;" horiz-adv-x="385" 
d="M379 836h-158v-127h-57v127h-158v57h158v143h57v-143h158v-57zM373 612h-361v58h361v-58z" />
    <glyph glyph-name="twosuperior" unicode="&#xb2;" horiz-adv-x="380" 
d="M319 795h-270v39q0 76 22.5 144t54.5 118.5t64.5 97.5t55 103t22.5 114v57q0 70 -21 96.5t-63 26.5q-38 0 -55.5 -26t-17.5 -88v-109h-56v90q0 94 34 140.5t108 46.5q122 0 125 -162v-88q0 -58 -23 -114t-55.5 -103.5t-65 -96t-55.5 -110.5t-23 -129h219v-47z" />
    <glyph glyph-name="threesuperior" unicode="&#xb3;" horiz-adv-x="364" 
d="M156 1204q46 -1 78.5 -9.5t49.5 -19.5t27 -31t12.5 -34.5t4.5 -38.5q3 -59 0 -125q-2 -53 -14.5 -88t-33.5 -51.5t-42.5 -22.5t-49.5 -6q-58 0 -96.5 32.5t-38.5 107.5l-2 118h55v-129q0 -42 22 -60t65 -18q47 0 63 25.5t16 75.5v123q0 57 -21.5 85t-96.5 36l-35 4v51
l26 6q53 13 74.5 25.5t32 43t10.5 93.5v121q0 75 -69 75q-74 0 -74 -75l2 -125h-58q3 65 3 112q0 68 31.5 104t92.5 36q77 0 102 -36.5t25 -109.5v-110q0 -107 -30.5 -142t-130.5 -43z" />
    <glyph glyph-name="acute" unicode="&#xb4;" horiz-adv-x="409" 
d="M141 1190l101 201h67l-108 -201h-60z" />
    <glyph glyph-name="mu" unicode="&#xb5;" 
d="M281 0h-54l-2 49q-20 -55 -90 -55q-28 0 -35 22v-344h-55v1454h55v-1011q0 -72 52 -72q71 0 71 127v956h56v-1001q0 -107 2 -125z" />
    <glyph glyph-name="mu" unicode="&#x3bc;" 
d="M281 0h-54l-2 49q-20 -55 -90 -55q-28 0 -35 22v-344h-55v1454h55v-1011q0 -72 52 -72q71 0 71 127v956h56v-1001q0 -107 2 -125z" />
    <glyph glyph-name="paragraph" unicode="&#xb6;" horiz-adv-x="366" 
d="M340 1636v-1841h-49v1792h-37v-1792h-55v756q-26 -51 -80 -51q-56 0 -79.5 35t-23.5 110v844q0 151 107 151q61 0 82 -55l33 51h102zM203 1085v396q0 51 -18 77.5t-50 26.5q-36 0 -49.5 -29.5t-13.5 -105.5v-373v-446q0 -84 59 -84q64 0 70 106q2 27 2 432z" />
    <glyph glyph-name="periodcentered" unicode="&#xb7;" horiz-adv-x="264" 
d="M184 702h-106v189h106v-189z" />
    <glyph glyph-name="periodcentered" unicode="&#x2219;" horiz-adv-x="264" 
d="M184 702h-106v189h106v-189z" />
    <glyph glyph-name="cedilla" unicode="&#xb8;" horiz-adv-x="409" 
d="M285 -158q0 30 -29.5 47t-65.5 17v94h50v-53q37 -4 68.5 -30t31.5 -71q0 -71 -46.5 -104t-148.5 -33v51q83 0 111.5 18t28.5 64z" />
    <glyph glyph-name="onesuperior" unicode="&#xb9;" horiz-adv-x="339" 
d="M201 795h-58v706h-133v37q75 3 107.5 23.5t54.5 76.5h29v-843z" />
    <glyph glyph-name="ordmasculine" unicode="&#xba;" 
d="M285 774q0 -79 -33.5 -117.5t-89.5 -38.5q-59 0 -91 38t-32 106v711q0 165 125 165q61 0 91 -38.5t30 -124.5v-701zM227 1477q0 60 -15.5 85t-49.5 25q-66 0 -66 -110v-715q0 -48 18 -72t48 -24q65 0 65 98v713zM313 518h-286v47h286v-47z" />
    <glyph glyph-name="guillemotright" unicode="&#xbb;" horiz-adv-x="385" 
d="M201 313v142l116 264l-116 266v139l172 -387v-37zM16 313v142l117 264l-117 266v139l172 -387v-37z" />
    <glyph glyph-name="onequarter" unicode="&#xbc;" horiz-adv-x="700" 
d="M201 795h-56v706h-135v37q75 3 107.5 23.5t54.5 76.5h29v-843zM543 1638q-117 -512 -191 -841l-176 -797h-59q118 527 194 866l174 772h58zM666 285h-72v-285h-53v285h-199v47l178 512h74v-512h72v-47zM541 332v438l-148 -438h148z" />
    <glyph glyph-name="onehalf" unicode="&#xbd;" horiz-adv-x="700" 
d="M201 795h-56v706h-135v37q75 3 107.5 23.5t54.5 76.5h29v-843zM516 1638q-116 -512 -190 -841l-176 -797h-60q119 527 195 866l174 772h57zM664 0h-271v39q0 76 22.5 144t55 118.5t64.5 97.5t54.5 103t22.5 114v58q0 70 -21 96.5t-63 26.5q-38 0 -55.5 -26.5t-17.5 -88.5
v-109h-56v91q0 94 34 140t108 46q120 0 123 -162v-88q0 -58 -23 -114.5t-55.5 -104t-65 -96.5t-55.5 -111t-23 -129h222v-45z" />
    <glyph glyph-name="threequarters" unicode="&#xbe;" horiz-adv-x="700" 
d="M121 1204q46 -1 78.5 -9.5t49.5 -19.5t27 -31t12.5 -34.5t4.5 -38.5q3 -59 0 -125q-2 -53 -14.5 -88t-33.5 -51.5t-42 -22.5t-49 -6q-58 0 -97 32.5t-39 107.5l-2 118h56v-129q0 -43 21.5 -60.5t64.5 -17.5q47 0 63.5 25.5t16.5 75.5v123q0 57 -22 85t-97 36l-35 4v51
l27 6q53 13 74.5 26t31.5 42.5t10 93.5v121q0 75 -69 75q-74 0 -74 -75l2 -125h-57q2 65 2 112q0 68 32 104t93 36q77 0 102 -36.5t25 -109.5v-110q0 -107 -31 -142t-131 -43zM573 1638q-116 -512 -190 -841l-176 -797h-60q119 527 195 866l174 772h57zM684 285h-72v-285
h-53v285h-199v47l179 512h73v-512h72v-47zM559 332v438l-147 -438h147z" />
    <glyph glyph-name="questiondown" unicode="&#xbf;" horiz-adv-x="348" 
d="M158 1638h69v-190h-69v190zM45 395q0 83 21 183t45.5 186t43 238t15.5 329h53q4 -152 -7 -276t-29 -207t-37 -155.5t-32.5 -157t-13.5 -175.5v-167q0 -142 76 -142q84 0 84 133v168h58v-178q0 -180 -146 -180q-63 0 -95.5 46.5t-35.5 152.5v202z" />
    <glyph glyph-name="Agrave" unicode="&#xc0;" horiz-adv-x="356" 
d="M94 393l-35 -393h-59l166 1638h65l125 -1638h-59l-27 393h-176zM268 446l-63 818l-12 247l-17 -245l-80 -820h172zM248 1702h-64l-104 201h65z" />
    <glyph glyph-name="Aacute" unicode="&#xc1;" horiz-adv-x="356" 
d="M94 393l-35 -393h-59l166 1638h65l125 -1638h-59l-27 393h-176zM268 446l-63 818l-12 247l-17 -245l-80 -820h172zM143 1702l101 201h67l-108 -201h-60z" />
    <glyph glyph-name="Acircumflex" unicode="&#xc2;" horiz-adv-x="356" 
d="M94 393l-35 -393h-59l166 1638h65l125 -1638h-59l-27 393h-176zM268 446l-63 818l-12 247l-17 -245l-80 -820h172zM328 1702h-62l-69 164l-70 -164h-61l86 205h90z" />
    <glyph glyph-name="Atilde" unicode="&#xc3;" horiz-adv-x="356" 
d="M94 393l-35 -393h-59l166 1638h65l125 -1638h-59l-27 393h-176zM268 446l-63 818l-12 247l-17 -245l-80 -820h172zM168 1755q-13 19 -21 25t-24 6q-34 0 -47 -76l-49 14q8 48 34.5 81.5t61.5 33.5q26 0 43.5 -11t38.5 -44q17 -25 41 -25q34 0 47 78l49 -14
q-19 -115 -94 -115q-16 0 -26 2t-24.5 13t-29.5 32z" />
    <glyph glyph-name="Adieresis" unicode="&#xc4;" horiz-adv-x="356" 
d="M94 393l-35 -393h-59l166 1638h65l125 -1638h-59l-27 393h-176zM268 446l-63 818l-12 247l-17 -245l-80 -820h172zM307 1702h-67v145h67v-145zM141 1702h-67v145h67v-145z" />
    <glyph glyph-name="Aring" unicode="&#xc5;" horiz-adv-x="356" 
d="M164 1610q-34 9 -55 37t-21 63q0 44 32.5 75.5t76.5 31.5t76 -31.5t32 -75.5q0 -35 -20.5 -62t-51.5 -38l123 -1610h-59l-27 393h-176l-35 -393h-59zM197 1780q-26 0 -46 -21.5t-20 -48.5q0 -26 20 -47t46 -21t45.5 20.5t19.5 47.5t-19.5 48.5t-45.5 21.5zM268 446
l-63 818l-12 247l-17 -245l-80 -820h172z" />
    <glyph glyph-name="AE" unicode="&#xc6;" horiz-adv-x="471" 
d="M475 1638v-49h-221v-735h184v-51h-184v-750h217v-53h-272v395h-107l-35 -395h-57l166 1638h309zM197 1511l-23 -245l-80 -824h103v1069z" />
    <glyph glyph-name="Ccedilla" unicode="&#xc7;" horiz-adv-x="403" 
d="M199 -10q-145 9 -148 209q-2 147 -2 635v587q0 224 170 224q80 0 118 -54t38 -143v-305h-60q0 245 -2 315q-3 127 -100 127q-55 0 -77.5 -36t-24.5 -109q0 -28 -1 -284.5t-1 -324.5q0 -72 2 -336t2 -278q1 -98 27.5 -133t74.5 -35q46 0 74 37.5t28 142.5v267h60v-273
q0 -206 -129 -229v-47q37 -4 68.5 -30t31.5 -71q0 -71 -46 -104t-148 -33v51q83 0 111 18t28 64q0 30 -29 47t-65 17v84z" />
    <glyph glyph-name="Egrave" unicode="&#xc8;" horiz-adv-x="337" 
d="M338 0h-277v1638h275v-57h-215v-723h184v-55h-184v-746h217v-57zM262 1702h-63l-105 201h66z" />
    <glyph glyph-name="Eacute" unicode="&#xc9;" horiz-adv-x="337" 
d="M338 0h-277v1638h275v-57h-215v-723h184v-55h-184v-746h217v-57zM121 1702l100 201h68l-109 -201h-59z" />
    <glyph glyph-name="Ecircumflex" unicode="&#xca;" horiz-adv-x="337" 
d="M338 0h-277v1638h275v-57h-215v-723h184v-55h-184v-746h217v-57zM322 1702h-62l-70 164l-69 -164h-62l86 205h91z" />
    <glyph glyph-name="Edieresis" unicode="&#xcb;" horiz-adv-x="337" 
d="M338 0h-277v1638h275v-57h-215v-723h184v-55h-184v-746h217v-57zM301 1702h-68v145h68v-145zM135 1702h-67v145h67v-145z" />
    <glyph glyph-name="Igrave" unicode="&#xcc;" horiz-adv-x="182" 
d="M121 0h-60v1638h60v-1638zM127 1702h-64l-104 201h66z" />
    <glyph glyph-name="Iacute" unicode="&#xcd;" horiz-adv-x="182" 
d="M121 0h-60v1638h60v-1638zM43 1702l100 201h68l-109 -201h-59z" />
    <glyph glyph-name="Icircumflex" unicode="&#xce;" horiz-adv-x="182" 
d="M121 0h-60v1638h60v-1638zM221 1702h-61l-70 164l-70 -164h-61l86 205h90z" />
    <glyph glyph-name="Idieresis" unicode="&#xcf;" horiz-adv-x="182" 
d="M121 0h-60v1638h60v-1638zM207 1702h-68v145h68v-145zM41 1702h-68v145h68v-145z" />
    <glyph glyph-name="Eth" unicode="&#xd0;" horiz-adv-x="407" 
d="M61 801h-49v63h49v774h129q83 0 127 -47.5t50 -132.5q2 -33 2 -602q0 -642 -2 -684q-9 -172 -158 -172h-148v801zM121 864h88v-63h-88v-746h102q34 0 58.5 24.5t25.5 76.5v702v569q0 70 -31 111t-77 41h-78v-715z" />
    <glyph glyph-name="Ntilde" unicode="&#xd1;" horiz-adv-x="432" 
d="M375 0h-70l-194 1384v-1384h-56v1638h76l188 -1335v1335h56v-1638zM205 1755q-13 19 -21 25t-24 6q-34 0 -47 -76l-50 14q8 48 35 81.5t62 33.5q26 0 43.5 -11t38.5 -44q17 -25 41 -25q34 0 47 78l49 -14q-19 -115 -94 -115q-16 0 -26 2t-24.5 13t-29.5 32z" />
    <glyph glyph-name="Ograve" unicode="&#xd2;" horiz-adv-x="423" 
d="M211 1645q84 0 124 -56t40 -188q0 -30 1 -259.5t1 -320.5q0 -483 -2 -598q-2 -120 -40.5 -176.5t-123.5 -56.5t-123 56t-39 183v1172q0 244 162 244zM215 49q89 0 96 141q4 72 4 633q0 541 -2 611q-2 78 -24 113.5t-76 35.5q-58 0 -77 -38t-23 -115q-2 -35 -2 -615
q0 -587 2 -625q3 -70 25 -105.5t77 -35.5zM276 1702h-63l-104 201h65z" />
    <glyph glyph-name="Oacute" unicode="&#xd3;" horiz-adv-x="423" 
d="M211 1645q84 0 124 -56t40 -188q0 -30 1 -259.5t1 -320.5q0 -483 -2 -598q-2 -120 -40.5 -176.5t-123.5 -56.5t-123 56t-39 183v1172q0 244 162 244zM215 49q89 0 96 141q4 72 4 633q0 541 -2 611q-2 78 -24 113.5t-76 35.5q-58 0 -77 -38t-23 -115q-2 -35 -2 -615
q0 -587 2 -625q3 -70 25 -105.5t77 -35.5zM160 1702l100 201h68l-109 -201h-59z" />
    <glyph glyph-name="Ocircumflex" unicode="&#xd4;" horiz-adv-x="423" 
d="M211 1645q84 0 124 -56t40 -188q0 -30 1 -259.5t1 -320.5q0 -483 -2 -598q-2 -120 -40.5 -176.5t-123.5 -56.5t-123 56t-39 183v1172q0 244 162 244zM215 49q89 0 96 141q4 72 4 633q0 541 -2 611q-2 78 -24 113.5t-76 35.5q-58 0 -77 -38t-23 -115q-2 -35 -2 -615
q0 -587 2 -625q3 -70 25 -105.5t77 -35.5zM342 1702h-61l-70 164l-70 -164h-61l86 205h90z" />
    <glyph glyph-name="Otilde" unicode="&#xd5;" horiz-adv-x="423" 
d="M211 1645q84 0 124 -56t40 -188q0 -30 1 -259.5t1 -320.5q0 -483 -2 -598q-2 -120 -40.5 -176.5t-123.5 -56.5t-123 56t-39 183v1172q0 244 162 244zM215 49q89 0 96 141q4 72 4 633q0 541 -2 611q-2 78 -24 113.5t-76 35.5q-58 0 -77 -38t-23 -115q-2 -35 -2 -615
q0 -587 2 -625q3 -70 25 -105.5t77 -35.5zM201 1755q-13 19 -21 25t-24 6q-34 0 -47 -76l-50 14q8 48 35 81.5t62 33.5q26 0 43.5 -11t38.5 -44q17 -25 41 -25q34 0 47 78l49 -14q-19 -115 -94 -115q-16 0 -26 2t-24.5 13t-29.5 32z" />
    <glyph glyph-name="Odieresis" unicode="&#xd6;" horiz-adv-x="423" 
d="M211 1645q84 0 124 -56t40 -188q0 -30 1 -259.5t1 -320.5q0 -483 -2 -598q-2 -120 -40.5 -176.5t-123.5 -56.5t-123 56t-39 183v1172q0 244 162 244zM215 49q89 0 96 141q4 72 4 633q0 541 -2 611q-2 78 -24 113.5t-76 35.5q-58 0 -77 -38t-23 -115q-2 -35 -2 -615
q0 -587 2 -625q3 -70 25 -105.5t77 -35.5zM328 1702h-68v145h68v-145zM162 1702h-68v145h68v-145z" />
    <glyph glyph-name="multiply" unicode="&#xd7;" horiz-adv-x="385" 
d="M342 932l-113 -111l113 -110l-39 -39l-110 112l-111 -112l-39 39l113 110l-113 111l39 39l111 -113l110 113z" />
    <glyph glyph-name="Oslash" unicode="&#xd8;" horiz-adv-x="423" 
d="M313 1612q62 -53 62 -211q0 -30 1 -259.5t1 -320.5q0 -483 -2 -598q-2 -120 -40.5 -176.5t-123.5 -56.5q-29 0 -53 6l-6 -57h-50l9 81q-59 53 -62 209v1172q0 244 162 244q30 0 57 -9l2 29h49zM305 1528l-143 -1483q21 -12 53 -12q93 0 100 149q7 129 7 641q0 435 -5 615
q0 52 -12 90zM119 113l143 1472q-20 10 -49 10q-26 0 -44 -8.5t-28.5 -21t-17 -35.5t-9 -43.5t-3.5 -52.5q-2 -37 -2 -619q0 -593 2 -633q3 -46 8 -69z" />
    <glyph glyph-name="Ugrave" unicode="&#xd9;" horiz-adv-x="415" 
d="M358 158q0 -79 -36.5 -123.5t-112.5 -44.5q-78 0 -118 43t-40 125v1480h60v-1452q0 -77 23.5 -108t74.5 -31q49 0 69.5 32t20.5 105v1454h59v-1480zM301 1702h-63l-105 201h66z" />
    <glyph glyph-name="Uacute" unicode="&#xda;" horiz-adv-x="415" 
d="M358 158q0 -79 -36.5 -123.5t-112.5 -44.5q-78 0 -118 43t-40 125v1480h60v-1452q0 -77 23.5 -108t74.5 -31q49 0 69.5 32t20.5 105v1454h59v-1480zM143 1702l101 201h67l-108 -201h-60z" />
    <glyph glyph-name="Ucircumflex" unicode="&#xdb;" horiz-adv-x="415" 
d="M358 158q0 -79 -36.5 -123.5t-112.5 -44.5q-78 0 -118 43t-40 125v1480h60v-1452q0 -77 23.5 -108t74.5 -31q49 0 69.5 32t20.5 105v1454h59v-1480zM338 1702h-62l-69 164l-70 -164h-61l86 205h90z" />
    <glyph glyph-name="Udieresis" unicode="&#xdc;" horiz-adv-x="415" 
d="M358 158q0 -79 -36.5 -123.5t-112.5 -44.5q-78 0 -118 43t-40 125v1480h60v-1452q0 -77 23.5 -108t74.5 -31q49 0 69.5 32t20.5 105v1454h59v-1480zM324 1702h-68v145h68v-145zM158 1702h-68v145h68v-145z" />
    <glyph glyph-name="Yacute" unicode="&#xdd;" horiz-adv-x="395" 
d="M395 1638l-170 -1040v-598h-65v594l-160 1044h61q136 -839 136 -917q0 36 34.5 265.5t68.5 440.5l34 211h61zM133 1702l100 201h68l-108 -201h-60z" />
    <glyph glyph-name="Thorn" unicode="&#xde;" horiz-adv-x="380" 
d="M121 1638v-329h49q182 0 182 -262v-410q0 -126 -45.5 -191t-124.5 -65h-61v-381h-60v1638h60zM289 995q0 148 -30.5 202t-94.5 54h-43v-817h47q58 0 89.5 61.5t31.5 159.5v340z" />
    <glyph glyph-name="germandbls" unicode="&#xdf;" horiz-adv-x="464" 
d="M219 1587q-49 0 -69.5 -35t-20.5 -110v-1442h-57v1077h-68v49h68v297q0 120 39.5 171t111.5 51q70 0 109 -51t39 -152q0 -59 -20 -121.5t-44.5 -111t-44.5 -123.5t-20 -156q0 -73 10.5 -126.5t20.5 -75t38 -77.5q8 -16 29 -51l27 -45q37 -64 54 -134t17 -183
q0 -127 -31 -186.5t-100 -59.5q-123 0 -123 162v176h56v-178q0 -59 17.5 -82t49.5 -23q38 0 56 41.5t18 149.5q0 172 -57 274q-31 60 -60 106q-78 122 -78 318q0 71 20 146t43.5 128t43.5 117.5t20 116.5q0 73 -20.5 108t-73.5 35z" />
    <glyph glyph-name="agrave" unicode="&#xe0;" horiz-adv-x="305" 
d="M279 0h-48q-6 40 -6 63q-31 -69 -96 -69q-47 0 -78 32t-31 101v250q0 175 107 248q38 28 94 41v317q0 98 -59 98q-64 0 -64 -104v-258h-55v258q0 160 121 160q62 0 87 -39t25 -115q0 -69 -1 -264t-1 -248v-379q0 -22 2.5 -52.5t2.5 -39.5zM221 616q-21 -9 -43 -20
q-32 -17 -65 -61q-24 -31 -30.5 -74.5t-6.5 -116.5v-188q0 -58 15 -84.5t52 -26.5q78 0 78 143v428zM217 1190h-63l-105 201h66z" />
    <glyph glyph-name="aacute" unicode="&#xe1;" horiz-adv-x="305" 
d="M279 0h-48q-6 40 -6 63q-31 -69 -96 -69q-47 0 -78 32t-31 101v250q0 175 107 248q38 28 94 41v317q0 98 -59 98q-64 0 -64 -104v-258h-55v258q0 160 121 160q62 0 87 -39t25 -115q0 -69 -1 -264t-1 -248v-379q0 -22 2.5 -52.5t2.5 -39.5zM221 616q-21 -9 -43 -20
q-32 -17 -65 -61q-24 -31 -30.5 -74.5t-6.5 -116.5v-188q0 -58 15 -84.5t52 -26.5q78 0 78 143v428zM109 1190l100 201h67l-108 -201h-59z" />
    <glyph glyph-name="acircumflex" unicode="&#xe2;" horiz-adv-x="305" 
d="M279 0h-48q-6 40 -6 63q-31 -69 -96 -69q-47 0 -78 32t-31 101v250q0 175 107 248q38 28 94 41v317q0 98 -59 98q-64 0 -64 -104v-258h-55v258q0 160 121 160q62 0 87 -39t25 -115q0 -69 -1 -264t-1 -248v-379q0 -22 2.5 -52.5t2.5 -39.5zM221 616q-21 -9 -43 -20
q-32 -17 -65 -61q-24 -31 -30.5 -74.5t-6.5 -116.5v-188q0 -58 15 -84.5t52 -26.5q78 0 78 143v428zM287 1190h-62l-69 164l-70 -164h-61l86 205h90z" />
    <glyph glyph-name="atilde" unicode="&#xe3;" horiz-adv-x="305" 
d="M279 0h-48q-6 40 -6 63q-31 -69 -96 -69q-47 0 -78 32t-31 101v250q0 175 107 248q38 28 94 41v317q0 98 -59 98q-64 0 -64 -104v-258h-55v258q0 160 121 160q62 0 87 -39t25 -115q0 -69 -1 -264t-1 -248v-379q0 -22 2.5 -52.5t2.5 -39.5zM221 616q-21 -9 -43 -20
q-32 -17 -65 -61q-24 -31 -30.5 -74.5t-6.5 -116.5v-188q0 -58 15 -84.5t52 -26.5q78 0 78 143v428zM141 1243q-13 19 -21 25t-24 6q-34 0 -47 -76l-49 14q8 48 34.5 81.5t61.5 33.5q26 0 43.5 -11t38.5 -44q17 -25 41 -25q34 0 47 78l49 -14q-19 -115 -94 -115q-16 0 -26 2
t-24.5 13t-29.5 32z" />
    <glyph glyph-name="adieresis" unicode="&#xe4;" horiz-adv-x="305" 
d="M279 0h-48q-6 40 -6 63q-31 -69 -96 -69q-47 0 -78 32t-31 101v250q0 175 107 248q38 28 94 41v317q0 98 -59 98q-64 0 -64 -104v-258h-55v258q0 160 121 160q62 0 87 -39t25 -115q0 -69 -1 -264t-1 -248v-379q0 -22 2.5 -52.5t2.5 -39.5zM221 616q-21 -9 -43 -20
q-32 -17 -65 -61q-24 -31 -30.5 -74.5t-6.5 -116.5v-188q0 -58 15 -84.5t52 -26.5q78 0 78 143v428zM268 1190h-67v145h67v-145zM102 1190h-67v145h67v-145z" />
    <glyph glyph-name="aring" unicode="&#xe5;" horiz-adv-x="305" 
d="M279 0h-48q-6 40 -6 63q-31 -69 -96 -69q-47 0 -78 32t-31 101v250q0 175 107 248q38 28 94 41v317q0 98 -59 98q-64 0 -64 -104v-258h-55v258q0 160 121 160q62 0 87 -39t25 -115q0 -69 -1 -264t-1 -248v-379q0 -22 2.5 -52.5t2.5 -39.5zM221 616q-21 -9 -43 -20
q-32 -17 -65 -61q-24 -31 -30.5 -74.5t-6.5 -116.5v-188q0 -58 15 -84.5t52 -26.5q78 0 78 143v428zM160 1405q44 0 76 -31.5t32 -75.5t-32 -75t-76 -31q-45 0 -77 31t-32 75t32.5 75.5t76.5 31.5zM160 1368q-26 0 -46 -21.5t-20 -48.5q0 -26 20 -46.5t46 -20.5t45.5 20.5
t19.5 46.5q0 27 -19.5 48.5t-45.5 21.5z" />
    <glyph glyph-name="ae" unicode="&#xe6;" horiz-adv-x="479" 
d="M240 61q-26 -67 -111 -67q-47 0 -78 32t-31 101v250q0 175 107 248q38 28 94 41v317q0 98 -59 98q-64 0 -64 -104v-258h-55v258q0 160 121 160q61 0 88 -62q7 30 34 46t64 16q45 0 75 -31.5t30 -75.5v-504h-179v-395q0 -88 64 -88q61 0 61 88v186h54v-165
q0 -160 -117 -160q-80 0 -98 69zM221 610l-15 -5t-16 -5.5t-12 -5.5q-35 -18 -65 -59q-24 -31 -30.5 -74.5t-6.5 -116.5v-188q0 -58 15 -84.5t52 -26.5q78 0 78 143v422zM399 578v426q0 41 -17.5 60t-45.5 19q-57 0 -60 -82v-423h123z" />
    <glyph glyph-name="ccedilla" unicode="&#xe7;" horiz-adv-x="294" 
d="M133 -6q-94 11 -94 149v815q0 91 26 135t91 44q110 0 110 -158v-215h-55v166q0 43 -1 65.5t-6.5 46t-17 32.5t-30.5 9q-37 0 -48.5 -29.5t-11.5 -109.5q0 -113 -1 -230.5t-1 -150.5q0 -39 1 -199t1 -208q0 -64 12.5 -88.5t45.5 -24.5t46 28t13 89v192h53v-190
q0 -150 -84 -168v-35q37 -4 69 -29.5t32 -70.5q0 -71 -46.5 -104.5t-148.5 -33.5v52q83 0 111 18t28 64q0 30 -29 46.5t-65 16.5v76z" />
    <glyph glyph-name="egrave" unicode="&#xe8;" horiz-adv-x="299" 
d="M272 317v-165q0 -160 -116 -160q-117 0 -117 143v850q0 152 119 152q52 0 82 -31t30 -76v-21.5t0.5 -55.5t1 -90t0.5 -142v-195h-178v-395q0 -88 64 -88q61 0 61 88v186h53zM215 578v426q0 79 -61 79q-57 0 -60 -82v-423h121zM207 1190h-64l-104 201h65z" />
    <glyph glyph-name="eacute" unicode="&#xe9;" horiz-adv-x="299" 
d="M272 317v-165q0 -160 -116 -160q-117 0 -117 143v850q0 152 119 152q52 0 82 -31t30 -76v-21.5t0.5 -55.5t1 -90t0.5 -142v-195h-178v-395q0 -88 64 -88q61 0 61 88v186h53zM215 578v426q0 79 -61 79q-57 0 -60 -82v-423h121zM94 1190l101 201h67l-108 -201h-60z" />
    <glyph glyph-name="ecircumflex" unicode="&#xea;" horiz-adv-x="299" 
d="M272 317v-165q0 -160 -116 -160q-117 0 -117 143v850q0 152 119 152q52 0 82 -31t30 -76v-21.5t0.5 -55.5t1 -90t0.5 -142v-195h-178v-395q0 -88 64 -88q61 0 61 88v186h53zM215 578v426q0 79 -61 79q-57 0 -60 -82v-423h121zM281 1190h-62l-69 164l-70 -164h-62l86 205
h91z" />
    <glyph glyph-name="edieresis" unicode="&#xeb;" horiz-adv-x="299" 
d="M272 317v-165q0 -160 -116 -160q-117 0 -117 143v850q0 152 119 152q52 0 82 -31t30 -76v-21.5t0.5 -55.5t1 -90t0.5 -142v-195h-178v-395q0 -88 64 -88q61 0 61 88v186h53zM215 578v426q0 79 -61 79q-57 0 -60 -82v-423h121zM266 1190h-67v145h67v-145zM100 1190h-67
v145h67v-145z" />
    <glyph glyph-name="igrave" unicode="&#xec;" horiz-adv-x="153" 
d="M113 0h-56q-8 49 -8 82v1044h55v-1024q0 -18 2 -43.5t4 -42.5zM121 1190h-64l-104 201h65z" />
    <glyph glyph-name="iacute" unicode="&#xed;" horiz-adv-x="153" 
d="M113 0h-56q-8 49 -8 82v1044h55v-1024q0 -18 2 -43.5t4 -42.5zM25 1190l100 201h68l-109 -201h-59z" />
    <glyph glyph-name="icircumflex" unicode="&#xee;" horiz-adv-x="153" 
d="M113 0h-56q-8 49 -8 82v1044h55v-1024q0 -18 2 -43.5t4 -42.5zM207 1190h-62l-69 164l-70 -164h-61l86 205h90z" />
    <glyph glyph-name="idieresis" unicode="&#xef;" horiz-adv-x="153" 
d="M113 0h-56q-8 49 -8 82v1044h55v-1024q0 -18 2 -43.5t4 -42.5zM193 1190h-68v145h68v-145zM27 1190h-68v145h68v-145z" />
    <glyph glyph-name="eth" unicode="&#xf0;" horiz-adv-x="337" 
d="M238 1282q-18 -6 -39 -6q-39 0 -68.5 31t-38.5 77l49 11q14 -70 58 -70q24 0 39 18v78q0 89 -15 129.5t-61 40.5q-37 0 -49.5 -20.5t-12.5 -63.5v-37h-59q2 27 2 43q0 55 33 93.5t84 38.5q73 0 103 -51t28 -150v-53q16 8 45 8q82 0 104 -109l-49 -12q-13 74 -57 74
q-22 0 -43 -21q4 -212 4 -354q0 -635 -2 -780q-1 -47 -3 -74t-8.5 -55.5t-19.5 -43t-36 -23.5t-56 -9q-69 0 -96 33.5t-33 119.5q-9 139 0 856q0 47 31 88t84 41q34 0 52 -16t30 -59v227zM96 178q1 -81 16 -107t54 -26q40 0 53.5 22.5t16.5 102.5q2 57 2 741
q-3 37 -6.5 61.5t-11 50t-22 38t-34.5 12.5q-38 0 -53 -29.5t-15 -68.5v-797z" />
    <glyph glyph-name="ntilde" unicode="&#xf1;" horiz-adv-x="319" 
d="M279 0h-56v1016q0 61 -49 61q-74 0 -74 -157v-920h-55v1126h53v-92q4 55 32 79t63 24q86 0 86 -117v-1020zM141 1243q-13 19 -21 25t-24 6q-34 0 -47 -76l-49 14q8 48 34.5 81.5t61.5 33.5q26 0 43.5 -11t38.5 -44q17 -25 41 -25q34 0 47 78l49 -14q-19 -115 -94 -115
q-16 0 -26 2t-24.5 13t-29.5 32z" />
    <glyph glyph-name="ograve" unicode="&#xf2;" 
d="M285 147q0 -79 -33.5 -117t-89.5 -38q-60 0 -91.5 37.5t-31.5 105.5v836q0 166 125 166q61 0 91 -39t30 -125v-826zM229 559q0 64 -1 225t-1 191q0 60 -15.5 85t-49.5 25q-66 0 -66 -110q0 -37 -1 -195t-1 -221t1 -226t1 -198q0 -48 18 -72t48 -24q65 0 65 98
q0 34 1 196.5t1 225.5zM199 1190h-64l-104 201h65z" />
    <glyph glyph-name="oacute" unicode="&#xf3;" 
d="M285 147q0 -79 -33.5 -117t-89.5 -38q-60 0 -91.5 37.5t-31.5 105.5v836q0 166 125 166q61 0 91 -39t30 -125v-826zM229 559q0 64 -1 225t-1 191q0 60 -15.5 85t-49.5 25q-66 0 -66 -110q0 -37 -1 -195t-1 -221t1 -226t1 -198q0 -48 18 -72t48 -24q65 0 65 98
q0 34 1 196.5t1 225.5zM106 1190l101 201h67l-108 -201h-60z" />
    <glyph glyph-name="ocircumflex" unicode="&#xf4;" 
d="M285 147q0 -79 -33.5 -117t-89.5 -38q-60 0 -91.5 37.5t-31.5 105.5v836q0 166 125 166q61 0 91 -39t30 -125v-826zM229 559q0 64 -1 225t-1 191q0 60 -15.5 85t-49.5 25q-66 0 -66 -110q0 -37 -1 -195t-1 -221t1 -226t1 -198q0 -48 18 -72t48 -24q65 0 65 98
q0 34 1 196.5t1 225.5zM293 1190h-62l-69 164l-70 -164h-61l86 205h90z" />
    <glyph glyph-name="otilde" unicode="&#xf5;" 
d="M285 147q0 -79 -33.5 -117t-89.5 -38q-60 0 -91.5 37.5t-31.5 105.5v836q0 166 125 166q61 0 91 -39t30 -125v-826zM229 559q0 64 -1 225t-1 191q0 60 -15.5 85t-49.5 25q-66 0 -66 -110q0 -37 -1 -195t-1 -221t1 -226t1 -198q0 -48 18 -72t48 -24q65 0 65 98
q0 34 1 196.5t1 225.5zM152 1243q-13 19 -21.5 25t-24.5 6q-34 0 -47 -76l-49 14q8 48 34.5 81.5t61.5 33.5q26 0 43.5 -11t38.5 -44q17 -25 41 -25q34 0 47 78l50 -14q-19 -115 -95 -115q-24 0 -41 8t-38 39z" />
    <glyph glyph-name="odieresis" unicode="&#xf6;" 
d="M285 147q0 -79 -33.5 -117t-89.5 -38q-60 0 -91.5 37.5t-31.5 105.5v836q0 166 125 166q61 0 91 -39t30 -125v-826zM229 559q0 64 -1 225t-1 191q0 60 -15.5 85t-49.5 25q-66 0 -66 -110q0 -37 -1 -195t-1 -221t1 -226t1 -198q0 -48 18 -72t48 -24q65 0 65 98
q0 34 1 196.5t1 225.5zM279 1190h-68v145h68v-145zM113 1190h-68v145h68v-145z" />
    <glyph glyph-name="divide" unicode="&#xf7;" horiz-adv-x="385" 
d="M221 938h-57v98h57v-98zM379 793h-373v57h373v-57zM221 606h-57v99h57v-99z" />
    <glyph glyph-name="oslash" unicode="&#xf8;" 
d="M98 6q-59 30 -59 129v836q0 166 125 166q18 0 26 -2l3 36h43l-5 -51q54 -39 54 -147v-826q0 -79 -33.5 -117t-89.5 -38q-15 0 -23 2l-2 -41h-43zM104 63l82 1027q-6 2 -24 2q-33 0 -52.5 -28t-19.5 -83v-852q0 -44 14 -66zM225 1049l-82 -1016h19q32 0 51.5 25t19.5 73
v850q0 47 -8 68z" />
    <glyph glyph-name="ugrave" unicode="&#xf9;" 
d="M281 0h-54l-2 49q-20 -55 -90 -55q-40 0 -65 29t-25 92v1011h55v-1011q0 -72 52 -72q71 0 71 127v956h56v-1001q0 -107 2 -125zM217 1190h-63l-105 201h66z" />
    <glyph glyph-name="uacute" unicode="&#xfa;" 
d="M281 0h-54l-2 49q-20 -55 -90 -55q-40 0 -65 29t-25 92v1011h55v-1011q0 -72 52 -72q71 0 71 127v956h56v-1001q0 -107 2 -125zM113 1190l100 201h68l-109 -201h-59z" />
    <glyph glyph-name="ucircumflex" unicode="&#xfb;" 
d="M281 0h-54l-2 49q-20 -55 -90 -55q-40 0 -65 29t-25 92v1011h55v-1011q0 -72 52 -72q71 0 71 127v956h56v-1001q0 -107 2 -125zM293 1190h-62l-69 164l-70 -164h-61l86 205h90z" />
    <glyph glyph-name="udieresis" unicode="&#xfc;" 
d="M281 0h-54l-2 49q-20 -55 -90 -55q-40 0 -65 29t-25 92v1011h55v-1011q0 -72 52 -72q71 0 71 127v956h56v-1001q0 -107 2 -125zM279 1190h-68v145h68v-145zM113 1190h-68v145h68v-145z" />
    <glyph glyph-name="yacute" unicode="&#xfd;" horiz-adv-x="286" 
d="M287 1126l-172 -1454h-60l56 416l-111 1038h57l74 -751l8 -113l8 113l82 751h58zM80 1190l100 201h68l-109 -201h-59z" />
    <glyph glyph-name="thorn" unicode="&#xfe;" horiz-adv-x="325" 
d="M287 133q0 -65 -28.5 -100t-74.5 -35q-62 0 -84 37v-363h-55v1966h53v-579q19 78 90 78q99 0 99 -138v-866zM231 999q0 84 -59 84q-72 0 -72 -120v-838q0 -33 16 -54.5t52 -21.5q33 0 48 22t15 76v852z" />
    <glyph glyph-name="ydieresis" unicode="&#xff;" horiz-adv-x="286" 
d="M287 1126l-172 -1454h-60l56 416l-111 1038h57l74 -751l8 -113l8 113l82 751h58zM260 1190h-67v145h67v-145zM94 1190h-67v145h67v-145z" />
    <glyph glyph-name="dotlessi" unicode="&#x131;" horiz-adv-x="153" 
d="M113 0h-56q-8 49 -8 82v1044h55v-1024q0 -18 2 -43.5t4 -42.5z" />
    <glyph glyph-name="Lslash" unicode="&#x141;" horiz-adv-x="339" 
d="M121 600v-547h209v-53h-269v559l-49 -33v54l49 32v1026h60v-985l123 84v-53z" />
    <glyph glyph-name="lslash" unicode="&#x142;" horiz-adv-x="141" 
d="M100 586v-498q0 -72 4 -88h-53q-6 9 -6 57v494l-37 -25v54l37 24v944q0 70 -4 90h57q2 -34 2 -59v-940l33 23v-54q-33 -20 -33 -22z" />
    <glyph glyph-name="OE" unicode="&#x152;" horiz-adv-x="591" 
d="M319 1638h277v-49h-221v-735h184v-51h-184v-750h217v-53h-277v49q-30 -59 -104 -59q-85 0 -123 56t-39 183v1172q0 244 162 244q30 0 60.5 -13t47.5 -39v45zM215 45q89 0 96 141q4 72 4 637q0 541 -2 611q-2 78 -24 113.5t-76 35.5q-25 0 -42.5 -8t-27.5 -20t-16 -33.5
t-8.5 -41.5t-3.5 -50q-2 -35 -2 -615q0 -591 2 -629q3 -70 24 -105.5t76 -35.5z" />
    <glyph glyph-name="oe" unicode="&#x153;" horiz-adv-x="487" 
d="M162 -8q-60 0 -91.5 37.5t-31.5 105.5v836q0 166 125 166q34 0 59.5 -13t34.5 -37q21 50 88 50q52 0 82.5 -31t30.5 -76v-21.5t0.5 -55.5t1 -90t0.5 -142v-195h-178v-395q0 -88 63 -88q62 0 62 88v186h53v-165q0 -160 -117 -160q-69 0 -88 41q-23 -41 -94 -41zM227 975
q0 60 -15.5 85t-49.5 25q-68 0 -68 -110v-840q0 -48 18.5 -72t49.5 -24q65 0 65 98v838zM406 578v426q0 41 -18 60t-46 19q-56 0 -59 -82v-423h123z" />
    <glyph glyph-name="Scaron" unicode="&#x160;" horiz-adv-x="356" 
d="M336 262q0 -272 -164 -272q-72 0 -113 46t-41 126v248h60v-222q0 -75 23 -107t71 -32q49 0 74.5 44t25.5 161q0 154 -19 255.5t-73 260.5q-9 29 -32 91.5t-27 74.5q-5 14 -24 68t-23 66.5t-17.5 54.5t-17 57t-12 48.5t-10.5 53.5t-4.5 47.5t-2.5 54.5q0 131 44.5 195
t119.5 64q156 0 156 -240v-193h-60v191q0 93 -22 136.5t-76 43.5q-52 0 -76 -46.5t-24 -156.5q0 -30 3 -61t11.5 -67t14 -60.5t19.5 -67t19 -58t22 -62t19 -52.5q4 -11 27.5 -72.5t32.5 -91.5q53 -165 74.5 -276t21.5 -250zM47 1907h62l69 -164l70 164h61l-86 -205h-90z" />
    <glyph glyph-name="scaron" unicode="&#x161;" horiz-adv-x="288" 
d="M268 270q0 -150 -30.5 -214t-100.5 -64q-123 0 -123 162v176h56v-178q0 -59 17.5 -82t49.5 -23q25 0 40.5 16.5t24.5 66.5t9 138q0 142 -57 244q-31 60 -60 106q-71 111 -71 322q0 90 29 143.5t91 53.5q58 0 84 -36.5t29 -107.5v-207h-55v195q0 52 -13.5 77t-46.5 25
t-47 -35t-14 -122q0 -165 65 -275q8 -15 28 -48.5t28 -47.5q67 -116 67 -285zM8 1395h62l69 -164l70 164h61l-86 -205h-90z" />
    <glyph glyph-name="Ydieresis" unicode="&#x178;" horiz-adv-x="395" 
d="M395 1638l-170 -1040v-598h-65v594l-160 1044h61q136 -839 136 -917q0 36 34.5 265.5t68.5 440.5l34 211h61zM313 1702h-67v145h67v-145zM147 1702h-67v145h67v-145z" />
    <glyph glyph-name="Zcaron" unicode="&#x17d;" horiz-adv-x="325" 
d="M324 0h-320v39l246 1542h-230v57h295v-22l-247 -1559h256v-57zM31 1907h61l70 -164l69 164h62l-86 -205h-90z" />
    <glyph glyph-name="zcaron" unicode="&#x17e;" horiz-adv-x="251" 
d="M242 0h-236v59l178 1018h-174v49h232v-65l-179 -1012h179v-49zM-6 1395h61l70 -164l70 164h61l-86 -205h-90z" />
    <glyph glyph-name="florin" unicode="&#x192;" horiz-adv-x="376" 
d="M131 -92q-6 -71 -35 -109.5t-76 -38.5q-23 0 -47 4v54h47q21 0 35 18.5t17 48.5l106 1192h-67v49h71l33 371q6 71 35 109.5t76 38.5q19 0 47 -7v-51h-47q-21 0 -35 -18.5t-17 -48.5l-34 -394h71v-49h-75z" />
    <glyph glyph-name="circumflex" unicode="&#x2c6;" horiz-adv-x="409" 
d="M336 1190h-62l-69 164l-70 -164h-61l86 205h90z" />
    <glyph glyph-name="caron" unicode="&#x2c7;" horiz-adv-x="409" 
d="M74 1395h61l70 -164l69 164h62l-86 -205h-90z" />
    <glyph glyph-name="breve" unicode="&#x2d8;" horiz-adv-x="409" 
d="M336 1331q0 -70 -33.5 -106.5t-95.5 -36.5q-133 0 -133 143h53q0 -92 78 -92q43 0 60.5 23t17.5 69h53z" />
    <glyph glyph-name="dotaccent" unicode="&#x2d9;" horiz-adv-x="409" 
d="M244 1190h-76v145h76v-145z" />
    <glyph glyph-name="ring" unicode="&#x2da;" horiz-adv-x="409" 
d="M205 1405q44 0 76 -31.5t32 -75.5t-32 -75t-76 -31q-45 0 -77 31t-32 75t32.5 75.5t76.5 31.5zM205 1368q-26 0 -46 -21.5t-20 -48.5q0 -26 20 -46.5t46 -20.5t45.5 20.5t19.5 46.5q0 27 -19.5 48.5t-45.5 21.5z" />
    <glyph glyph-name="ogonek" unicode="&#x2db;" horiz-adv-x="409" 
d="M184 -143q0 -45 25 -71t74 -26v-53q-69 0 -109.5 41t-40.5 107q0 47 24 85t68 60h54q-95 -56 -95 -143z" />
    <glyph glyph-name="tilde" unicode="&#x2dc;" horiz-adv-x="409" 
d="M195 1243q-13 19 -21 25t-24 6q-35 0 -48 -76l-49 14q8 48 35 81.5t62 33.5q26 0 43 -11t38 -44q17 -25 41 -25q34 0 47 78l50 -14q-19 -115 -95 -115q-24 0 -41 8t-38 39z" />
    <glyph glyph-name="hungarumlaut" unicode="&#x2dd;" horiz-adv-x="409" 
d="M199 1190l47 201h63l-59 -201h-51zM104 1190l48 201h63l-59 -201h-52z" />
    <glyph glyph-name="Delta" unicode="&#x394;" horiz-adv-x="581" 
d="M258 1047v528h-248v53h561v-53h-252v-528q82 -12 138.5 -76t56.5 -148t-56.5 -147t-140.5 -74v-539h254v-53h-561v53h246v539q-82 12 -137.5 74.5t-55.5 146.5t56.5 148t138.5 76zM319 997v-96l-32 -70l-29 70v96q-62 -12 -103.5 -61t-41.5 -113t40.5 -112t102.5 -60v97
l31 67l30 -67v-97q62 11 105 59.5t43 112.5t-42 113t-104 61zM293 827q6 8 30.5 38.5t32.5 43.5q22 31 48 7q21 -19 16 -43q-4 -16 -23 -19q-32 -5 -104 -27zM281 827q-71 22 -105 27q-29 5 -23 35q6 26 27 34q21 9 37 -14q8 -13 32.5 -43t31.5 -39zM293 819q65 -20 104 -26
q29 -5 23 -34q-5 -27 -27 -36q-21 -9 -37 14q-8 13 -32.5 43.5t-30.5 38.5zM281 819q-7 -9 -31.5 -39t-32.5 -43q-21 -30 -47 -8q-22 19 -17 43q3 18 23 21q41 7 105 26z" />
    <glyph glyph-name="Delta" unicode="&#x2206;" horiz-adv-x="581" 
d="M258 1047v528h-248v53h561v-53h-252v-528q82 -12 138.5 -76t56.5 -148t-56.5 -147t-140.5 -74v-539h254v-53h-561v53h246v539q-82 12 -137.5 74.5t-55.5 146.5t56.5 148t138.5 76zM319 997v-96l-32 -70l-29 70v96q-62 -12 -103.5 -61t-41.5 -113t40.5 -112t102.5 -60v97
l31 67l30 -67v-97q62 11 105 59.5t43 112.5t-42 113t-104 61zM293 827q6 8 30.5 38.5t32.5 43.5q22 31 48 7q21 -19 16 -43q-4 -16 -23 -19q-32 -5 -104 -27zM281 827q-71 22 -105 27q-29 5 -23 35q6 26 27 34q21 9 37 -14q8 -13 32.5 -43t31.5 -39zM293 819q65 -20 104 -26
q29 -5 23 -34q-5 -27 -27 -36q-21 -9 -37 14q-8 13 -32.5 43.5t-30.5 38.5zM281 819q-7 -9 -31.5 -39t-32.5 -43q-21 -30 -47 -8q-22 19 -17 43q3 18 23 21q41 7 105 26z" />
    <glyph glyph-name="Omega" unicode="&#x3a9;" horiz-adv-x="581" 
d="M258 1047v528h-248v53h561v-53h-252v-528q82 -12 138.5 -76t56.5 -148t-56.5 -147t-140.5 -74v-539h254v-53h-561v53h246v539q-82 12 -137.5 74.5t-55.5 146.5t56.5 148t138.5 76zM319 997v-96l-32 -70l-29 70v96q-62 -12 -103.5 -61t-41.5 -113t40.5 -112t102.5 -60v97
l31 67l30 -67v-97q62 11 105 59.5t43 112.5t-42 113t-104 61zM293 827q6 8 30.5 38.5t32.5 43.5q22 31 48 7q21 -19 16 -43q-4 -16 -23 -19q-32 -5 -104 -27zM281 827q-71 22 -105 27q-29 5 -23 35q6 26 27 34q21 9 37 -14q8 -13 32.5 -43t31.5 -39zM293 819q65 -20 104 -26
q29 -5 23 -34q-5 -27 -27 -36q-21 -9 -37 14q-8 13 -32.5 43.5t-30.5 38.5zM281 819q-7 -9 -31.5 -39t-32.5 -43q-21 -30 -47 -8q-22 19 -17 43q3 18 23 21q41 7 105 26z" />
    <glyph glyph-name="Omega" unicode="&#x2126;" horiz-adv-x="581" 
d="M258 1047v528h-248v53h561v-53h-252v-528q82 -12 138.5 -76t56.5 -148t-56.5 -147t-140.5 -74v-539h254v-53h-561v53h246v539q-82 12 -137.5 74.5t-55.5 146.5t56.5 148t138.5 76zM319 997v-96l-32 -70l-29 70v96q-62 -12 -103.5 -61t-41.5 -113t40.5 -112t102.5 -60v97
l31 67l30 -67v-97q62 11 105 59.5t43 112.5t-42 113t-104 61zM293 827q6 8 30.5 38.5t32.5 43.5q22 31 48 7q21 -19 16 -43q-4 -16 -23 -19q-32 -5 -104 -27zM281 827q-71 22 -105 27q-29 5 -23 35q6 26 27 34q21 9 37 -14q8 -13 32.5 -43t31.5 -39zM293 819q65 -20 104 -26
q29 -5 23 -34q-5 -27 -27 -36q-21 -9 -37 14q-8 13 -32.5 43.5t-30.5 38.5zM281 819q-7 -9 -31.5 -39t-32.5 -43q-21 -30 -47 -8q-22 19 -17 43q3 18 23 21q41 7 105 26z" />
    <glyph glyph-name="pi" unicode="&#x3c0;" horiz-adv-x="593" 
d="M565 1014q0 -200 -69 -288.5t-197 -88.5q-270 0 -270 377v284q0 98 20 166.5t58 105.5t84 52.5t106 15.5q59 0 104.5 -15t84 -51.5t59 -105.5t20.5 -168v-284zM524 1047v276q0 272 -227 272q-104 0 -166.5 -64t-62.5 -208v-276q0 -371 229 -371q54 0 93.5 16.5t71 57
t47 114.5t15.5 183zM244 1090v-289h-49v610h131q41 0 60 -10t32 -29q11 -15 18.5 -59t7.5 -64q0 -90 -24 -129q-8 -12 -29.5 -21t-44.5 -9h-102zM381 1157q12 22 12 88q0 55 -16 84q-11 21 -22.5 28t-35.5 7h-75v-231h88q36 0 49 24z" />
    <glyph glyph-name="endash" unicode="&#x2013;" horiz-adv-x="409" 
d="M389 676h-369v55h369v-55z" />
    <glyph glyph-name="emdash" unicode="&#x2014;" horiz-adv-x="819" 
d="M717 676h-615v55h615v-55z" />
    <glyph glyph-name="quoteleft" unicode="&#x2018;" horiz-adv-x="188" 
d="M150 1491v-170h-103v188l70 129h49l-49 -135v-12h33z" />
    <glyph glyph-name="quoteright" unicode="&#x2019;" horiz-adv-x="188" 
d="M45 1468v170h102v-188l-69 -129h-49l49 135v12h-33z" />
    <glyph glyph-name="quotesinglbase" unicode="&#x201a;" horiz-adv-x="188" 
d="M45 0v170h102v-188l-69 -129h-49l49 135v12h-33z" />
    <glyph glyph-name="quotedblleft" unicode="&#x201c;" horiz-adv-x="342" 
d="M297 1491v-170h-98v188l69 129h45l-45 -135v-12h29zM152 1491v-170h-99v188l70 129h45l-45 -135v-12h29z" />
    <glyph glyph-name="quotedblright" unicode="&#x201d;" horiz-adv-x="342" 
d="M199 1468v170h98v-188l-70 -129h-45l45 135v12h-28zM53 1468v170h99v-188l-70 -129h-45l45 135v12h-29z" />
    <glyph glyph-name="quotedblbase" unicode="&#x201e;" horiz-adv-x="342" 
d="M199 0v170h98v-188l-70 -129h-45l45 135v12h-28zM53 0v170h99v-188l-70 -129h-45l45 135v12h-29z" />
    <glyph glyph-name="dagger" unicode="&#x2020;" horiz-adv-x="258" 
d="M229 1042h-71v-1062l-29 -144l-27 144v1062h-73v54h73q-5 39 -5.5 171t1.5 245l2 112h60q10 -438 -2 -528h71v-54z" />
    <glyph glyph-name="daggerdbl" unicode="&#x2021;" horiz-adv-x="258" 
d="M158 705h61v-54h-61v-671l-29 -144l-27 144v671h-63v54h63v337h-63v54h63l-2 528h60q0 -460 -2 -528h61v-54h-61v-337z" />
    <glyph glyph-name="bullet" unicode="&#x2022;" horiz-adv-x="397" 
d="M197 637q-46 0 -79.5 33.5t-33.5 79.5t33.5 79t79.5 33t80 -33t34 -79t-34 -79.5t-80 -33.5z" />
    <glyph glyph-name="ellipsis" unicode="&#x2026;" horiz-adv-x="792" 
d="M713 0h-107v188h107v-188zM449 0h-107v188h107v-188zM184 0h-106v188h106v-188z" />
    <glyph glyph-name="perthousand" unicode="&#x2030;" horiz-adv-x="903" 
d="M272 1036q0 -116 -30.5 -166.5t-98.5 -50.5q-70 0 -96.5 51t-26.5 166v396q0 109 30 164t97 55q72 0 98.5 -55t26.5 -164v-396zM588 207q0 -116 -30.5 -166.5t-98.5 -50.5q-70 0 -96.5 51t-26.5 166v395q0 109 30 164t97 55q72 0 98.5 -55t26.5 -164v-395zM883 207
q0 -116 -30.5 -166.5t-98.5 -50.5q-70 0 -96.5 51t-26.5 166v395q0 109 30 164t97 55q72 0 98.5 -55t26.5 -164v-395zM217 1028v442q0 63 -19.5 94t-50.5 31q-71 0 -71 -125v-438q0 -89 18 -124.5t53 -35.5t52.5 34t17.5 122zM532 199v442q0 63 -19 94t-50 31
q-72 0 -72 -125v-438q0 -89 18.5 -124.5t53.5 -35.5t52 33.5t17 122.5zM827 199v442q0 63 -19 94t-50 31q-72 0 -72 -125v-438q0 -89 18.5 -124.5t53.5 -35.5t52 33.5t17 122.5zM494 1546l-353 -1546h-51l352 1546h52z" />
    <glyph glyph-name="guilsinglleft" unicode="&#x2039;" horiz-adv-x="194" 
d="M184 313l-172 387v37l172 387v-139l-116 -266l116 -264v-142z" />
    <glyph glyph-name="guilsinglright" unicode="&#x203a;" horiz-adv-x="194" 
d="M10 313v142l117 264l-117 266v139l172 -387v-37z" />
    <glyph glyph-name="fraction" unicode="&#x2044;" horiz-adv-x="147" 
d="M291 1638q-119 -512 -193 -841l-174 -797h-71q122 527 198 866l170 772h70z" />
    <glyph glyph-name="fraction" unicode="&#x2215;" horiz-adv-x="147" 
d="M291 1638q-119 -512 -193 -841l-174 -797h-71q122 527 198 866l170 772h70z" />
    <glyph glyph-name="Euro" unicode="&#x20ac;" horiz-adv-x="382" 
d="M63 911v494q0 122 32.5 179.5t107.5 57.5q74 0 106.5 -59t32.5 -178v-215h-57v215q0 97 -17.5 140.5t-62.5 43.5q-49 0 -66.5 -42.5t-17.5 -141.5v-494h172v-53h-172v-92h172v-53h-172v-484q0 -99 17.5 -141.5t66.5 -42.5q45 0 62.5 43.5t17.5 140.5v181h57v-181
q0 -119 -32.5 -178t-106.5 -59q-75 0 -107.5 57.5t-32.5 179.5v484h-53v53h53v92h-53v53h53z" />
    <glyph glyph-name="trademark" unicode="&#x2122;" horiz-adv-x="669" 
d="M586 1069v449q0 75 -49 75q-32 0 -48 -35t-16 -71v-418h-55v453q0 71 -49 71q-31 0 -50.5 -38.5t-19.5 -88.5v-397h-55v569h55v-82q5 43 28 68t58 25q60 0 78 -86q7 41 30.5 63.5t55.5 22.5q92 0 92 -129v-451h-55zM199 1589h-82v-415q0 -23 7.5 -35t16.5 -14.5t23 -2.5
h37v-53q-23 -2 -62 -2q-76 0 -76 107v415h-59v49h195v-49z" />
    <glyph glyph-name="partialdiff" unicode="&#x2202;" horiz-adv-x="581" 
d="M258 1047v528h-248v53h561v-53h-252v-528q82 -12 138.5 -76t56.5 -148t-56.5 -147t-140.5 -74v-539h254v-53h-561v53h246v539q-82 12 -137.5 74.5t-55.5 146.5t56.5 148t138.5 76zM319 997v-96l-32 -70l-29 70v96q-62 -12 -103.5 -61t-41.5 -113t40.5 -112t102.5 -60v97
l31 67l30 -67v-97q62 11 105 59.5t43 112.5t-42 113t-104 61zM293 827q6 8 30.5 38.5t32.5 43.5q22 31 48 7q21 -19 16 -43q-4 -16 -23 -19q-32 -5 -104 -27zM281 827q-71 22 -105 27q-29 5 -23 35q6 26 27 34q21 9 37 -14q8 -13 32.5 -43t31.5 -39zM293 819q65 -20 104 -26
q29 -5 23 -34q-5 -27 -27 -36q-21 -9 -37 14q-8 13 -32.5 43.5t-30.5 38.5zM281 819q-7 -9 -31.5 -39t-32.5 -43q-21 -30 -47 -8q-22 19 -17 43q3 18 23 21q41 7 105 26z" />
    <glyph glyph-name="product" unicode="&#x220f;" horiz-adv-x="581" 
d="M258 1047v528h-248v53h561v-53h-252v-528q82 -12 138.5 -76t56.5 -148t-56.5 -147t-140.5 -74v-539h254v-53h-561v53h246v539q-82 12 -137.5 74.5t-55.5 146.5t56.5 148t138.5 76zM319 997v-96l-32 -70l-29 70v96q-62 -12 -103.5 -61t-41.5 -113t40.5 -112t102.5 -60v97
l31 67l30 -67v-97q62 11 105 59.5t43 112.5t-42 113t-104 61zM293 827q6 8 30.5 38.5t32.5 43.5q22 31 48 7q21 -19 16 -43q-4 -16 -23 -19q-32 -5 -104 -27zM281 827q-71 22 -105 27q-29 5 -23 35q6 26 27 34q21 9 37 -14q8 -13 32.5 -43t31.5 -39zM293 819q65 -20 104 -26
q29 -5 23 -34q-5 -27 -27 -36q-21 -9 -37 14q-8 13 -32.5 43.5t-30.5 38.5zM281 819q-7 -9 -31.5 -39t-32.5 -43q-21 -30 -47 -8q-22 19 -17 43q3 18 23 21q41 7 105 26z" />
    <glyph glyph-name="summation" unicode="&#x2211;" horiz-adv-x="581" 
d="M258 1047v528h-248v53h561v-53h-252v-528q82 -12 138.5 -76t56.5 -148t-56.5 -147t-140.5 -74v-539h254v-53h-561v53h246v539q-82 12 -137.5 74.5t-55.5 146.5t56.5 148t138.5 76zM319 997v-96l-32 -70l-29 70v96q-62 -12 -103.5 -61t-41.5 -113t40.5 -112t102.5 -60v97
l31 67l30 -67v-97q62 11 105 59.5t43 112.5t-42 113t-104 61zM293 827q6 8 30.5 38.5t32.5 43.5q22 31 48 7q21 -19 16 -43q-4 -16 -23 -19q-32 -5 -104 -27zM281 827q-71 22 -105 27q-29 5 -23 35q6 26 27 34q21 9 37 -14q8 -13 32.5 -43t31.5 -39zM293 819q65 -20 104 -26
q29 -5 23 -34q-5 -27 -27 -36q-21 -9 -37 14q-8 13 -32.5 43.5t-30.5 38.5zM281 819q-7 -9 -31.5 -39t-32.5 -43q-21 -30 -47 -8q-22 19 -17 43q3 18 23 21q41 7 105 26z" />
    <glyph glyph-name="minus" unicode="&#x2212;" horiz-adv-x="385" 
d="M379 793h-373v57h373v-57z" />
    <glyph glyph-name="radical" unicode="&#x221a;" horiz-adv-x="530" 
d="M498 1638l-232 -1638h-92l-141 659h51l135 -622l223 1601h56z" />
    <glyph glyph-name="infinity" unicode="&#x221e;" horiz-adv-x="577" 
d="M506 760q0 -164 -119 -164q-76 0 -100 70q-20 -70 -97 -70q-64 0 -91 44t-27 126q0 166 118 166q72 0 97 -58q28 58 102 58q65 0 91 -45.5t26 -126.5zM455 762q0 65 -13.5 94t-52.5 29q-41 0 -59 -26.5t-25 -74.5q9 -83 23 -108q18 -33 59 -33q37 0 52.5 26t15.5 93z
M193 643q18 0 31 8t20 17.5t12 31.5t6 34.5t4 41.5q-7 52 -23 80.5t-53 28.5t-52 -27t-15 -94q0 -69 14.5 -95t55.5 -26z" />
    <glyph glyph-name="integral" unicode="&#x222b;" horiz-adv-x="581" 
d="M258 1047v528h-248v53h561v-53h-252v-528q82 -12 138.5 -76t56.5 -148t-56.5 -147t-140.5 -74v-539h254v-53h-561v53h246v539q-82 12 -137.5 74.5t-55.5 146.5t56.5 148t138.5 76zM319 997v-96l-32 -70l-29 70v96q-62 -12 -103.5 -61t-41.5 -113t40.5 -112t102.5 -60v97
l31 67l30 -67v-97q62 11 105 59.5t43 112.5t-42 113t-104 61zM293 827q6 8 30.5 38.5t32.5 43.5q22 31 48 7q21 -19 16 -43q-4 -16 -23 -19q-32 -5 -104 -27zM281 827q-71 22 -105 27q-29 5 -23 35q6 26 27 34q21 9 37 -14q8 -13 32.5 -43t31.5 -39zM293 819q65 -20 104 -26
q29 -5 23 -34q-5 -27 -27 -36q-21 -9 -37 14q-8 13 -32.5 43.5t-30.5 38.5zM281 819q-7 -9 -31.5 -39t-32.5 -43q-21 -30 -47 -8q-22 19 -17 43q3 18 23 21q41 7 105 26z" />
    <glyph glyph-name="approxequal" unicode="&#x2248;" horiz-adv-x="385" 
d="M373 971q-6 -57 -36.5 -91t-72.5 -34q-47 0 -82 39q-2 2 -6.5 7t-6.5 7.5t-6.5 7t-7.5 6.5l-7.5 5t-8.5 4.5t-9 2.5t-11 1q-22 0 -38.5 -19.5t-17.5 -54.5l-51 6q3 53 34.5 87t72.5 34q25 0 43.5 -8.5t26 -16.5t20.5 -24q23 -31 53 -31q48 0 57 78zM373 786
q-6 -57 -36.5 -90.5t-72.5 -33.5q-48 0 -82 38q-2 2 -6.5 7t-6.5 7.5t-6.5 7t-7.5 6.5l-7.5 5t-8.5 4.5t-9 2.5t-11 1q-22 0 -38.5 -19t-17.5 -54l-51 6q3 53 34.5 87t72.5 34q25 0 44 -9t26 -16.5t20 -24.5q22 -30 53 -30q48 0 57 78z" />
    <glyph glyph-name="notequal" unicode="&#x2260;" horiz-adv-x="385" 
d="M367 690h-172l-21 -88h-59l20 88h-115v58h127l35 151h-162v57h175l20 93h59l-20 -93h113v-57h-125l-35 -151h160v-58z" />
    <glyph glyph-name="lessequal" unicode="&#x2264;" horiz-adv-x="385" 
d="M369 702l-357 134v57l357 149v-61l-287 -117l287 -100v-62zM373 612h-361v58h361v-58z" />
    <glyph glyph-name="greaterequal" unicode="&#x2265;" horiz-adv-x="385" 
d="M373 836l-357 -134v62l287 100l-287 117v61l357 -149v-57zM373 612h-361v58h361v-58z" />
    <glyph glyph-name="lozenge" unicode="&#x25ca;" horiz-adv-x="417" 
d="M377 655l-121 -655h-94l-121 655l121 656h94zM315 655l-106 607l-107 -607l107 -606z" />
    <glyph glyph-name="apple" unicode="&#xf8ff;" horiz-adv-x="581" 
d="M258 1047v528h-248v53h561v-53h-252v-528q82 -12 138.5 -76t56.5 -148t-56.5 -147t-140.5 -74v-539h254v-53h-561v53h246v539q-82 12 -137.5 74.5t-55.5 146.5t56.5 148t138.5 76zM319 997v-96l-32 -70l-29 70v96q-62 -12 -103.5 -61t-41.5 -113t40.5 -112t102.5 -60v97
l31 67l30 -67v-97q62 11 105 59.5t43 112.5t-42 113t-104 61zM293 827q6 8 30.5 38.5t32.5 43.5q22 31 48 7q21 -19 16 -43q-4 -16 -23 -19q-32 -5 -104 -27zM281 827q-71 22 -105 27q-29 5 -23 35q6 26 27 34q21 9 37 -14q8 -13 32.5 -43t31.5 -39zM293 819q65 -20 104 -26
q29 -5 23 -34q-5 -27 -27 -36q-21 -9 -37 14q-8 13 -32.5 43.5t-30.5 38.5zM281 819q-7 -9 -31.5 -39t-32.5 -43q-21 -30 -47 -8q-22 19 -17 43q3 18 23 21q41 7 105 26z" />
    <glyph glyph-name="NUL" horiz-adv-x="0" 
 />
    </font>
</defs>
</svg>
