<?xml version="1.0" standalone="no"?>
<!DOCTYPE svg PUBLIC "-//W3C//DTD SVG 1.1//EN" "http://www.w3.org/Graphics/SVG/1.1/DTD/svg11.dtd" >
<svg xmlns="http://www.w3.org/2000/svg" xmlns:xlink="http://www.w3.org/1999/xlink" version="1.1">
<metadata>
Created by FontForge 20201107 at Sat Feb 14 04:37:24 2026
 By www-data
[c] Copyright 2003-2004, The Font Bureau, Inc. Designed by David Berlow. All rights reserved.
</metadata>
<defs>
<font id="TitlingGothicFBWide-Black" horiz-adv-x="1157" >
  <font-face 
    font-family="TitlingGothicFB Wide Black"
    font-weight="900"
    font-stretch="normal"
    units-per-em="2048"
    panose-1="2 0 5 7 3 0 0 2 0 4"
    ascent="1638"
    descent="-410"
    x-height="1126"
    cap-height="1608"
    bbox="-317 -508 3893 2142"
    underline-thickness="40"
    underline-position="-271"
    unicode-range="U+0020-FB02"
  />
<missing-glyph horiz-adv-x="1024" 
 />
    <glyph glyph-name="fi" unicode="fi" horiz-adv-x="1998" 
d="M1204 662h-330v-662h-675v662h-179v464h179v68q0 196 120 322t336 126h435v-421h-132q-44 0 -70 -22t-26 -60v-17h1020v-899q0 -133 5.5 -171t33.5 -52h-680q-21 10 -29 58.5t-8 162.5v441z" />
    <glyph glyph-name="fl" unicode="fl" horiz-adv-x="2002" 
d="M20 662v464h175v56q0 95 29 178t83.5 146t140 99.5t191.5 36.5h483v-421h-180q-39 0 -61.5 -18.5t-22.5 -49.5v-31h275v-460h-263v-662h-675v662h-175zM1892 0h-675q-15 22 -15 170v1268q0 134 -12 170h672q12 -49 12 -158v-1331q0 -103 18 -119z" />
    <glyph glyph-name="f_f" unicode="ff" horiz-adv-x="2131" 
d="M870 662v-662h-675v662h-175v464h175v56q0 95 29 178t83.5 146t140 99.5t191.5 36.5h430v-421h-125q-41 0 -63.5 -21t-22.5 -53v-27h344v62q0 128 50 231t153 166t244 63h428v-421h-127q-39 0 -60.5 -18.5t-21.5 -49.5v-33h243v-458h-231v-662h-678v662h-332z" />
    <glyph glyph-name="f_f_i" unicode="ffi" horiz-adv-x="3010" 
d="M2208 666h-328v-666h-678v666h-332v-666h-675v662h-175v464h175v56q0 95 29 178t83.5 146t140 99.5t191.5 36.5h430v-421h-125q-41 0 -63.5 -21t-22.5 -53v-25h344v60q0 128 50 231t153 166t244 63h428v-421h-127q-39 0 -60.5 -18.5t-21.5 -49.5v-31h1018v-899
q0 -126 8.5 -168t38.5 -55h-680q-26 3 -35.5 54t-9.5 167v445z" />
    <glyph glyph-name="f_f_l" unicode="ffl" horiz-adv-x="3010" 
d="M870 666v-666h-675v662h-175v464h175v56q0 95 29 178t83.5 146t140 99.5t191.5 36.5h430v-421h-125q-41 0 -63.5 -21t-22.5 -53v-27h344v62q0 128 50 231t153 166t244 63h481v-421h-180q-39 0 -60.5 -18.5t-21.5 -49.5v-33h272v-458h-260v-662h-678v666h-332zM2900 0
h-676q-14 21 -14 170v1268q0 134 -12 170h671q13 -54 13 -158v-1331q0 -103 18 -119z" />
    <glyph glyph-name=".notdef" horiz-adv-x="1024" 
 />
    <glyph glyph-name=".null" horiz-adv-x="0" 
 />
    <glyph glyph-name="nonmarkingreturn" horiz-adv-x="682" 
 />
    <glyph glyph-name="space" unicode=" " horiz-adv-x="815" 
 />
    <glyph glyph-name="space" unicode="&#xa0;" horiz-adv-x="815" 
 />
    <glyph glyph-name="exclam" unicode="!" horiz-adv-x="927" 
d="M901 1608l-106 -949h-668l-100 949h874zM809 0h-690v578h690v-578z" />
    <glyph glyph-name="quotedbl" unicode="&#x22;" horiz-adv-x="1603" 
d="M1561 1608l-43 -883h-629l-43 883h715zM737 1608l-41 -883h-624l-43 883h708z" />
    <glyph glyph-name="numbersign" unicode="#" horiz-adv-x="1646" 
d="M1636 1335l-84 -440h-311l-45 -225h324l-86 -441h-322l-49 -295h-307l49 295h-234l-49 -295h-307l47 295h-252l86 441h250l45 225h-264l86 440h260l53 312h308l-52 -312h234l51 312h307l-51 -312h313zM932 895h-234l-45 -225h236z" />
    <glyph glyph-name="dollar" unicode="$" horiz-adv-x="2002" 
d="M1141 1602q561 -38 723 -359q54 -102 61 -192h-674q-4 44 -39 77q-55 52 -301 52q-101 0 -151 -6.5t-64 -18.5t-14 -37q0 -24 15.5 -35.5t70.5 -22.5t180 -26q383 -45 512 -73q292 -55 406 -157t114 -304q0 -223 -212.5 -349.5t-626.5 -146.5v-154h-273v154
q-190 8 -333 40t-238 85.5t-152.5 119.5t-89.5 152q-24 74 -28 148h678q7 -46 43 -82q55 -55 292 -55q107 0 165 9.5t75.5 25t17.5 42.5q0 39 -43.5 57.5t-185.5 35.5q-91 11 -227 29.5t-178 23.5q-192 25 -316 65t-194.5 102.5t-97.5 139t-27 188.5q0 206 214 332.5
t625 143.5v69h273v-73z" />
    <glyph glyph-name="percent" unicode="%" horiz-adv-x="2643" 
d="M1288 1174q0 -165 -173 -278.5t-460 -113.5q-270 0 -433 110.5t-163 281.5v73q0 71 41 140t116.5 126t195 92t262.5 35q122 0 225.5 -25t173.5 -65t119.5 -92t72.5 -105.5t23 -105.5v-73zM2580 365q0 -79 -40.5 -149.5t-116.5 -126t-198 -88t-273 -32.5q-134 0 -248 33
t-190 88t-119 126.5t-43 148.5v73q0 54 24 108.5t74.5 105.5t121.5 90t173 63t221 24q147 0 268.5 -37t194.5 -95.5t112 -125.5t39 -133v-73zM2073 1608l-1213 -1608h-303l1219 1608h297zM807 1188v35q0 10 -12.5 24.5t-44.5 28.5t-74 14q-38 0 -67 -7.5t-43 -19t-20.5 -22
t-6.5 -18.5v-35q0 -11 11.5 -24t45.5 -25.5t84 -12.5q36 0 63 7t40 17.5t18.5 20t5.5 17.5zM2101 383v35q0 7 -12 20t-44.5 26t-74.5 13q-46 0 -79.5 -12.5t-45.5 -25t-12 -21.5v-35q0 -10 12 -25t45.5 -30t79.5 -15q39 0 67 8.5t40.5 21t18 22.5t5.5 18z" />
    <glyph glyph-name="ampersand" unicode="&#x26;" horiz-adv-x="2371" 
d="M1303 748q35 -17 92.5 -61.5t101.5 -84.5q51 74 76 193h678q-19 -159 -95.5 -293t-195.5 -215q63 -36 138.5 -85t168.5 -111t137 -91h-878q-50 35 -64 53q-86 -35 -228 -54t-278 -19q-81 0 -138.5 1t-140.5 5t-143.5 11.5t-134 21t-125.5 33t-104.5 49t-85 66.5t-53 87.5
t-21.5 110.5v59q1 67 27 125.5t68.5 102t106 83t127.5 68t144 55.5q-104 158 -104 281v63q1 83 45.5 159.5t124 136.5t201.5 96t266 36q265 0 434 -114t172 -277v-57q-1 -76 -28.5 -146t-74.5 -123.5t-100.5 -94t-115.5 -70.5zM1008 1016q46 19 73 46.5t27 55.5v25
q0 29 -16.5 47t-51.5 18q-37 0 -55 -22t-18 -53v-33q0 -40 41 -84zM782 549q-38 -18 -59 -45.5t-21 -54.5q0 -95 170 -95q98 0 144 17q-22 18 -79.5 59t-103 74.5t-51.5 44.5z" />
    <glyph glyph-name="quotesingle" unicode="'" horiz-adv-x="800" 
d="M772 1608l-43 -922h-659l-41 922h743z" />
    <glyph glyph-name="parenleft" unicode="(" horiz-adv-x="1132" 
d="M1110 -139h-678q-166 91 -274.5 331.5t-108.5 542.5q0 183 57.5 362.5t143 308t182.5 202.5h678q-121 -145 -221.5 -398.5t-100.5 -478.5q0 -165 33 -328t108.5 -312.5t180.5 -229.5z" />
    <glyph glyph-name="parenright" unicode=")" horiz-adv-x="1132" 
d="M1079 735q0 -293 -105 -532t-278 -342h-680q109 79 184.5 229t107.5 312t32 329q0 225 -101 478t-223 399h680q159 -120 271 -359.5t112 -513.5z" />
    <glyph glyph-name="asterisk" unicode="*" horiz-adv-x="1357" 
d="M848 1272l334 158l139 -412l-371 -72l256 -268l-350 -256l-178 326l-180 -326l-351 256l256 268l-370 72l137 412l338 -158l-47 368h434z" />
    <glyph glyph-name="plus" unicode="+" horiz-adv-x="1724" 
d="M1628 504h-475v-395h-565v395h-492v500h486v397h573v-397h473v-500z" />
    <glyph glyph-name="comma" unicode="," horiz-adv-x="897" 
d="M799 12l-260 -362l-461 33l168 333l-39 -16h-103v635h695v-623z" />
    <glyph glyph-name="hyphen" unicode="-" horiz-adv-x="1228" 
d="M1145 420h-1057v561h1057v-561z" />
    <glyph glyph-name="hyphen" unicode="&#xad;" horiz-adv-x="1228" 
d="M1145 420h-1057v561h1057v-561z" />
    <glyph glyph-name="period" unicode="." horiz-adv-x="897" 
d="M799 0h-695v635h695v-635z" />
    <glyph glyph-name="slash" unicode="/" horiz-adv-x="823" 
d="M864 1628l-684 -1954h-325l680 1954h329z" />
    <glyph glyph-name="zero" unicode="0" horiz-adv-x="1988" 
d="M995 1634q211 0 384.5 -51t289.5 -140.5t184.5 -207t83.5 -254.5q11 -56 11 -178q0 -96 -13 -176q-15 -139 -85.5 -257.5t-187.5 -206.5t-288.5 -138t-378.5 -50q-215 0 -389 49.5t-290.5 138.5t-183.5 209.5t-79 266.5q-10 78 -10 166q0 111 6 170q11 110 54.5 207.5
t122.5 180.5t187 143t257 94t325 34zM1192 909q-3 133 -47 188.5t-148 55.5q-112 0 -156 -57.5t-46 -186.5q0 -8 -1 -49.5t-1 -54.5q0 -34 1 -69t1 -38q0 -137 50.5 -195.5t149.5 -58.5q104 0 149 57.5t48 196.5v211z" />
    <glyph glyph-name="one" unicode="1" horiz-adv-x="1302" 
d="M1130 0h-700v936h-401v514q189 0 342 49.5t192 120.5h567v-1620z" />
    <glyph glyph-name="two" unicode="2" horiz-adv-x="1902" 
d="M1860 0h-1807v489q174 44 300.5 81t235 75.5t178.5 74.5t120.5 77.5t73.5 86.5t26 99v80q-2 47 -24 71.5t-74 24.5q-50 0 -74 -29.5t-24 -76.5v-174h-725q0 155 14 251q11 81 48 153t107.5 137t169 112t241 74.5t315.5 27.5q194 0 343.5 -27.5t241.5 -72.5t152 -109.5
t83.5 -130t26.5 -141.5q4 -53 0 -129q-8 -126 -96 -240t-212 -185t-253 -93h613v-506z" />
    <glyph glyph-name="three" unicode="3" horiz-adv-x="1908" 
d="M1497 862q176 -21 273.5 -111.5t103.5 -209.5q3 -43 0 -92q-1 -77 -24 -141t-86 -128t-163.5 -107.5t-267.5 -70.5t-387 -27q-188 0 -332 19t-242 52t-166 85t-106 111t-61 137q-23 94 -23 180h742q0 -21 6 -90q5 -38 44.5 -61t113.5 -23q77 0 114 30.5t39 76.5
q3 15 0 38q-2 49 -39.5 72t-124.5 23h-422v346h400q90 0 128.5 19.5t41.5 56.5q4 30 0 55q-7 74 -137 74q-65 0 -104 -22.5t-44 -61.5q-6 -60 -6 -70h-696q0 35 13.5 110t27.5 111q75 182 286.5 286.5t577.5 104.5q198 0 351 -29t252 -82t154.5 -123t71.5 -157q6 -37 6 -80
q-3 -129 -82 -205.5t-233 -95.5z" />
    <glyph glyph-name="four" unicode="4" horiz-adv-x="1853" 
d="M1835 231h-207v-231h-680v258h-934v490l1006 880h608v-899h207v-498zM950 731v236l-272 -236h272z" />
    <glyph glyph-name="five" unicode="5" horiz-adv-x="1861" 
d="M1847 453q-3 -81 -36 -151.5t-102 -131t-169.5 -103.5t-246.5 -67.5t-326 -24.5q-801 0 -895 402q-16 58 -23 166h713q0 -49 14 -84q31 -68 131 -68q65 0 95 35.5t32 91.5q0 59 -2 88q-6 123 -129 123q-65 0 -103 -29.5t-42 -87.5h-670v996h1655v-482h-1014l-2 -141
q29 43 128 69t177.5 32t143.5 6q322 0 491 -123t180 -332q1 -28 1 -90t-1 -94z" />
    <glyph glyph-name="six" unicode="6" horiz-adv-x="1923" 
d="M1894 432q-14 -102 -70 -183.5t-159 -143.5t-268 -96t-381 -34q-357 0 -581.5 95.5t-315.5 304.5q-36 79 -56 199t-20 233q0 90 18 193.5t50 183.5q39 94 102 170t161.5 141.5t247.5 102t336 36.5q230 0 393.5 -47t256.5 -128t145 -202q31 -77 39 -192h-662q0 17 -26 59
q-32 54 -152 54q-75 0 -111 -32t-42 -75q-11 -74 -11 -106q77 31 199.5 50t251.5 19q171 0 296 -30.5t200 -87.5t113 -129.5t48 -165.5q4 -27 3.5 -91.5t-5.5 -97.5zM1176 494q8 38 0 77q-10 42 -51.5 65t-139.5 23q-83 0 -192 -32q8 -97 24 -133q18 -36 69 -59t120 -23
q87 0 125 21t45 61z" />
    <glyph glyph-name="seven" unicode="7" horiz-adv-x="1669" 
d="M1642 1165l-667 -1165h-776l684 1128h-873v480h1632v-443z" />
    <glyph glyph-name="eight" unicode="8" horiz-adv-x="1798" 
d="M1780 438q-4 -95 -65 -178.5t-171 -146.5t-278 -99.5t-373 -36.5q-418 0 -639.5 120t-233.5 341q-5 64 0 107q9 119 100 202.5t255 112.5q-146 27 -226 114.5t-83 199.5q0 5 -1.5 29t-1.5 30q3 85 56.5 159t154 132t260.5 91.5t361 33.5q202 0 362 -33t260.5 -90.5
t154 -131.5t57.5 -161v-55q-5 -121 -92.5 -207t-258.5 -111q182 -17 288 -105.5t114 -217.5q4 -39 0 -99zM1085 1102q8 27 0 53q-6 29 -58 50.5t-128 21.5q-77 0 -128 -20t-58 -54q-5 -22 0 -51q7 -35 56 -54.5t124 -19.5q84 0 134 20t58 54zM1130 483q7 33 0 70
q-10 41 -69 67.5t-168 26.5q-214 0 -236 -92q-6 -23 2 -72q9 -43 73 -67.5t161 -24.5t164 27t73 65z" />
    <glyph glyph-name="nine" unicode="9" horiz-adv-x="1878" 
d="M1696 289q-234 -312 -754 -312q-233 0 -395 41t-260 120.5t-148 203.5q-38 90 -47 199h696q0 -35 17 -74q30 -55 139 -55q41 0 69.5 10.5t43 29t20.5 33.5t10 35q13 57 13 127q-125 -42 -216 -58t-210 -16q-318 0 -481.5 124t-163.5 366q0 149 60 259t175 179t274.5 102
t366.5 33q480 0 715 -225q115 -108 171 -268.5t56 -327.5q0 -152 -38 -290t-113 -236zM1112 954q-4 116 -8 131q-11 45 -60.5 74t-119.5 29q-163 0 -181 -90q-9 -42 0 -84q8 -46 51 -71t140 -25q90 0 178 36z" />
    <glyph glyph-name="colon" unicode=":" horiz-adv-x="917" 
d="M778 674h-651v540h651v-540zM778 0h-651v539h651v-539z" />
    <glyph glyph-name="semicolon" unicode=";" horiz-adv-x="917" 
d="M778 674h-649v540h649v-540zM778 14l-395 -391l-272 252l135 135l-64 -10h-53v539h649v-525z" />
    <glyph glyph-name="less" unicode="&#x3c;" horiz-adv-x="1560" 
d="M1401 29l-1303 377v557l1303 372v-567l-668 -84l668 -86v-569z" />
    <glyph glyph-name="equal" unicode="=" horiz-adv-x="1601" 
d="M1538 772h-1477v467h1477v-467zM1538 227h-1477v463h1477v-463z" />
    <glyph glyph-name="greater" unicode="&#x3e;" horiz-adv-x="1560" 
d="M1407 406l-1303 -373v565l668 86l-668 84v573l1303 -378v-557z" />
    <glyph glyph-name="question" unicode="?" horiz-adv-x="1843" 
d="M1802 1118q-2 -75 -40.5 -134.5t-98.5 -96t-132 -65t-144 -48.5t-131 -38.5t-95 -42t-35 -52.5h-673q-2 69 26 126t74.5 94t103 66t114 48.5t105.5 35t78.5 31.5t32.5 33q3 26 0 45q-11 60 -110 60q-56 0 -82.5 -22t-28.5 -56v-60h-725q6 125 25 191q17 74 53.5 133.5
t104 112t163.5 88t238 55.5t323 20q442 0 643.5 -100.5t210.5 -314.5q1 -11 1 -30t-0.5 -43.5t-0.5 -35.5zM1137 0h-695v578h695v-578z" />
    <glyph glyph-name="at" unicode="@" horiz-adv-x="2449" 
d="M2392 754q0 -286 -178.5 -453.5t-491.5 -167.5q-58 0 -112 9t-105.5 29t-92 55.5t-62.5 84.5q-45 -64 -154.5 -109.5t-239.5 -45.5q-92 0 -169.5 26.5t-137.5 80t-93.5 142t-33.5 203.5q0 102 35 198.5t102.5 178.5t181.5 132t257 50q108 0 177 -36.5t85 -81.5l20 75h541
q-21 -130 -66 -345.5t-59 -299.5q-12 -96 90 -96q120 0 188 103t68 276q0 133 -58 250.5t-168 209t-285.5 144.5t-395.5 53q-285 0 -497.5 -87t-332.5 -261.5t-120 -417.5q0 -156 51.5 -282.5t143 -213t219 -145t276.5 -85.5t319 -27q177 0 336.5 36t272.5 97l104 -152
q-312 -162 -729 -162q-269 0 -493.5 60.5t-389 176t-256.5 294.5t-92 405q0 216 85.5 392t243 297.5t385.5 188t507 66.5q261 0 475.5 -67t355 -182t217 -268.5t76.5 -327.5zM1323 709q2 9 -2 22.5t-15 30.5t-40 29t-70 12q-82 0 -135 -45t-64 -113q-12 -75 23 -117.5
t108 -42.5q156 0 183 140q2 10 4.5 27t5 35.5t2.5 21.5z" />
    <glyph glyph-name="A" unicode="A" horiz-adv-x="2498" 
d="M848 248l-119 -248h-752l871 1608h856l811 -1608h-764l-113 248h-790zM1452 651l-149 291l-50 131l-55 -133l-156 -289h410z" />
    <glyph glyph-name="B" unicode="B" horiz-adv-x="2355" 
d="M2226 178q-139 -178 -532 -178h-1573v1608h1560q328 0 463 -138q101 -101 101 -262q0 -150 -72 -247q-32 -41 -90.5 -73.5t-122.5 -39.5q89 -9 169 -55.5t124 -116.5q55 -82 55 -217q0 -176 -82 -281zM1509 1094q0 45 -20 65q-29 29 -139 29h-539v-184h541q111 0 137 30
q20 20 20 60zM1559 449q18 21 18 63q0 48 -21 72q-26 30 -135 30h-610v-196h604q62 0 94.5 6.5t49.5 24.5z" />
    <glyph glyph-name="C" unicode="C" horiz-adv-x="2340" 
d="M2296 684q-1 -7 -5 -44t-7.5 -61t-9.5 -56.5t-13 -51.5q-65 -168 -196 -276t-353.5 -164t-546.5 -56q-693 0 -952 304q-166 186 -166 528q0 307 158 500q271 325 983 325q157 0 293 -15.5t239.5 -43t188.5 -67t144.5 -84.5t103.5 -98.5t69 -106t37 -109.5q22 -91 27 -201
h-731q-8 56 -21 84q-27 60 -115 96.5t-241 36.5q-287 0 -365 -139q-33 -59 -33 -184q0 -129 35 -185q78 -137 363 -137q146 0 235 27t131 94q23 37 23 84h725z" />
    <glyph glyph-name="D" unicode="D" horiz-adv-x="2267" 
d="M2124 332q-184 -332 -754 -332h-1249v1608h1237q573 0 760 -303q60 -94 81 -197t21 -270q0 -191 -20 -299.5t-76 -206.5zM1493 571q35 54 35 256q-5 160 -35 209q-39 63 -96.5 87t-157.5 24h-412v-680h414q97 0 156 24.5t96 79.5z" />
    <glyph glyph-name="E" unicode="E" horiz-adv-x="1994" 
d="M1919 0h-1798v1608h1784v-471h-1090v-105h1057v-457h-1057v-108h1104v-467z" />
    <glyph glyph-name="F" unicode="F" horiz-adv-x="1910" 
d="M1878 1126h-1049v-141h996v-469h-996v-516h-708v1608h1757v-482z" />
    <glyph glyph-name="G" unicode="G" horiz-adv-x="2271" 
d="M2210 0h-549l-21 133q-215 -158 -630 -158q-280 0 -490.5 84t-329.5 248q-69 92 -106 220.5t-37 273.5q0 134 40.5 259.5t113.5 219.5q136 169 376 262.5t576 93.5q408 0 658 -116.5t346 -337.5q12 -28 22 -80t12 -84h-682q-3 32 -67 69q-84 58 -277 58q-234 0 -327 -107
q-72 -85 -72 -247q0 -150 57 -228q93 -123 348 -123q323 0 396 113q10 17 10 33h-494v379h1125v-469q0 -91 0.5 -210t1 -201.5t0.5 -84.5z" />
    <glyph glyph-name="H" unicode="H" horiz-adv-x="2324" 
d="M2206 0h-709v539h-668v-539h-708v1608h708v-545h668v545h709v-1608z" />
    <glyph glyph-name="I" unicode="I" horiz-adv-x="960" 
d="M852 0h-731v1608h731v-1608z" />
    <glyph glyph-name="J" unicode="J" horiz-adv-x="1284" 
d="M1204 586q0 -297 -190 -450.5t-539 -153.5q-85 0 -184 3t-162.5 7t-73.5 6v494h279q55 0 91 31t49 70.5t13 84.5v930h717v-1022z" />
    <glyph glyph-name="K" unicode="K" horiz-adv-x="2359" 
d="M2341 0h-934l-506 549l-72 -62v-487h-708v1608h708v-484l613 484h878l-884 -711z" />
    <glyph glyph-name="L" unicode="L" horiz-adv-x="1794" 
d="M1745 0h-1624v1608h715v-1086h909v-522z" />
    <glyph glyph-name="M" unicode="M" horiz-adv-x="2648" 
d="M2544 0h-670v713l-264 -713h-551l-268 713v-713h-670v1608h928l284 -811l312 811h899v-1608z" />
    <glyph glyph-name="N" unicode="N" horiz-adv-x="2254" 
d="M2142 0h-694l-649 725v-725h-678v1608h723l618 -701v701h680v-1608z" />
    <glyph glyph-name="O" unicode="O" horiz-adv-x="2398" 
d="M1198 1647q745 0 1012 -351q141 -184 141 -477t-139 -489q-250 -355 -1014 -355q-759 0 -1016 355q-135 186 -135 487q0 271 137 451q136 184 391 281.5t623 97.5zM1196 473q320 0 406 156q14 22 21 77.5t7 102.5q0 127 -37 182q-102 154 -397 154q-293 0 -391 -162
q-15 -25 -25 -78t-10 -96q0 -52 12 -112.5t31 -86.5q44 -65 132.5 -101t250.5 -36z" />
    <glyph glyph-name="P" unicode="P" horiz-adv-x="2226" 
d="M2200 1016q0 -262 -148 -410q-178 -181 -545 -184l-676 2v-424h-710v1608h1372q321 0 492 -115q215 -145 215 -477zM1485 997q0 65 -27 99q-40 57 -137 57h-496v-309h494q105 0 145 63q21 37 21 90z" />
    <glyph glyph-name="Q" unicode="Q" horiz-adv-x="2398" 
d="M1817 74q3 -3 43 -35q7 -6 22.5 -15.5t18.5 -11.5l-385 -407q-107 68 -218 172q-60 56 -114 115.5t-76 87.5q-42 2 -102 10q-598 45 -824 340q-135 186 -135 487q0 271 137 451q136 184 391 281.5t623 97.5q745 0 1012 -351q141 -184 141 -477t-139 -489
q-64 -91 -164.5 -158t-230.5 -98zM1196 467q315 0 401 160q14 23 23.5 79t9.5 99q0 127 -37 182q-102 158 -397 158q-289 0 -389 -164q-15 -26 -26 -80t-11 -96q0 -51 12 -112t31 -87q44 -65 133 -102t250 -37z" />
    <glyph glyph-name="R" unicode="R" horiz-adv-x="2336" 
d="M2206 1100q0 -198 -99 -326q-46 -56 -111 -96t-132 -53l485 -625h-780l-369 510h-375v-510h-704v1608h1411q379 0 545 -150q129 -118 129 -358zM1522 1030q0 40 -11 62q-17 36 -50.5 47.5t-86.5 11.5h-547v-236h547q116 0 137 54q11 33 11 61z" />
    <glyph glyph-name="S" unicode="S" horiz-adv-x="2199" 
d="M2161 514q0 -266 -273 -402.5t-798 -136.5q-848 0 -1033 414q-21 48 -32 158h763q7 -39 48 -80q51 -51 309 -51q111 0 169 7t79.5 22t21.5 44q0 23 -21.5 36.5t-76.5 23t-166 18.5q-59 5 -189 18t-192 17q-272 22 -435.5 85t-233.5 164t-70 255q0 110 72.5 206.5
t204.5 168t328.5 112.5t432.5 41q212 0 383 -31t284 -85.5t185.5 -118t114.5 -139.5q58 -105 69 -199h-762q-3 37 -34 72q-24 28 -94 44.5t-171 16.5q-143 0 -202.5 -16t-59.5 -56q0 -41 76.5 -57t290.5 -33q75 -5 163 -13.5t167 -16.5t94 -9q300 -26 444 -143.5t144 -335.5
z" />
    <glyph glyph-name="T" unicode="T" horiz-adv-x="2050" 
d="M2042 1126h-656v-1126h-724v1126h-654v482h2034v-482z" />
    <glyph glyph-name="U" unicode="U" horiz-adv-x="2363" 
d="M2243 643q0 -135 -54 -245.5t-150 -188t-232.5 -130.5t-298.5 -77.5t-349 -24.5q-177 0 -329 25t-282 81t-221.5 139.5t-143.5 207t-52 277.5v901h717v-897q0 -109 93 -170.5t249 -61.5q158 0 251 65t93 167v897h709v-965z" />
    <glyph glyph-name="V" unicode="V" horiz-adv-x="2490" 
d="M2490 1608l-835 -1608h-824l-831 1608h776l484 -1010l491 1010h739z" />
    <glyph glyph-name="W" unicode="W" horiz-adv-x="3198" 
d="M3201 1608l-584 -1608h-731q-283 760 -287 813q-1 -24 -72 -227t-141 -394l-71 -192h-725l-592 1608h766q262 -816 262 -865q0 22 67.5 238t134.5 421l68 206h701q276 -816 276 -865q0 22 64 238t128 421l64 206h672z" />
    <glyph glyph-name="X" unicode="X" horiz-adv-x="2256" 
d="M1118 389l-332 -389h-774q46 51 122 133.5t236.5 257.5t267.5 291t107 115l-710 811h811l309 -379l324 379h762l-717 -789q0 1 181 -204t361 -410l181 -205h-811z" />
    <glyph glyph-name="Y" unicode="Y" horiz-adv-x="2424" 
d="M2423 1608l-860 -1078v-530h-711v528l-850 1080h803l409 -549l426 549h783z" />
    <glyph glyph-name="Z" unicode="Z" horiz-adv-x="2140" 
d="M2107 0h-2072v483l934 609h-877v516h1991v-484l-1008 -616h1032v-508z" />
    <glyph glyph-name="bracketleft" unicode="[" horiz-adv-x="1140" 
d="M1096 -369h-1020v1977h1020v-451h-396v-1077h396v-449z" />
    <glyph glyph-name="backslash" unicode="\" horiz-adv-x="823" 
d="M-59 1628h329l680 -1954h-327z" />
    <glyph glyph-name="bracketright" unicode="]" horiz-adv-x="1140" 
d="M45 -369v449h397v1079h-397v449h1020v-1977h-1020z" />
    <glyph glyph-name="asciicircum" unicode="^" horiz-adv-x="1648" 
d="M819 1139l-364 -363l-430 373l489 487h610l490 -487l-432 -373z" />
    <glyph glyph-name="underscore" unicode="_" horiz-adv-x="1222" 
d="M1223 -471h-1223v436h1223v-436z" />
    <glyph glyph-name="grave" unicode="`" 
d="M885 1204h-594l-240 408h672z" />
    <glyph glyph-name="a" unicode="a" horiz-adv-x="1931" 
d="M1839 0h-655l-10 76q-75 -43 -233.5 -71t-356.5 -28q-161 0 -279 31.5t-186.5 98t-71.5 161.5q0 41 2 66q3 153 192 245.5t558 98.5q147 0 348 -19q-13 58 -55 84q-48 29 -138 29q-177 0 -190 -63h-645q14 81 55 155q46 84 127 144t192 93.5t236 48.5t277 15
q308 0 508.5 -89.5t259.5 -246.5q46 -125 38 -270q-2 -31 -2 -285q0 -226 29 -274zM1161 438q-82 8 -170 8q-258 0 -258 -94q0 -59 152 -59q135 0 206.5 41t69.5 104z" />
    <glyph glyph-name="b" unicode="b" horiz-adv-x="1984" 
d="M1262 1159q424 0 581 -248q86 -133 86 -329q0 -192 -88 -328q-87 -129 -245 -196.5t-367 -67.5q-121 0 -262 30t-197 86l-22 -106h-642v1628h670v-627q45 68 185.5 113t300.5 45zM1006 764q-155 0 -218 -80q-32 -40 -32 -111q0 -69 30 -110q28 -36 85 -58t135 -22
q165 0 217 80q28 51 28 110q0 70 -28 109q-26 37 -82 59.5t-135 22.5z" />
    <glyph glyph-name="c" unicode="c" horiz-adv-x="1869" 
d="M1829 594h-623q0 40 -12 63q-24 49 -82 78t-143 29q-168 0 -230 -90q-26 -44 -26 -101q0 -71 24 -110q57 -88 217 -88q173 0 226 76q18 24 22 61h627q-7 -136 -78 -240q-92 -134 -284.5 -214.5t-491.5 -80.5q-645 0 -846 295q-88 122 -88 295q0 168 88 295
q103 149 315.5 227t518.5 78q319 0 510 -81.5t280 -239.5q56 -99 76 -252z" />
    <glyph glyph-name="d" unicode="d" horiz-adv-x="2007" 
d="M793 1163q144 0 263 -32t181 -80v577h666v-1440q0 -33 5 -80t10 -78l5 -30h-637l-22 117q-54 -51 -190.5 -93t-287.5 -42q-226 0 -395.5 68t-259.5 196q-88 128 -88 317q0 176 86 309q91 138 264.5 214.5t399.5 76.5zM981 766q-174 0 -242 -84q-30 -40 -30 -111
q0 -68 32 -116q52 -78 240 -78q174 0 233 82q33 48 33 112q0 71 -30 109q-29 39 -90 62.5t-146 23.5z" />
    <glyph glyph-name="e" unicode="e" horiz-adv-x="1906" 
d="M1864 391q-12 -53 -35 -98q-77 -144 -298 -230t-570 -86q-556 0 -783 230q-139 142 -139 360q0 210 141 351q120 123 323 185t466 62q377 0 609 -142.5t277 -389.5q13 -58 13 -189h-1166q3 -36 37 -73q26 -31 88 -47.5t134 -16.5q156 0 208 49q21 21 23 35h672zM1202 694
q0 35 -31 66q-60 63 -210 63t-213 -63q-36 -36 -39 -66h493z" />
    <glyph glyph-name="f" unicode="f" horiz-adv-x="1222" 
d="M1202 662h-282v-662h-680v662h-220v464h220v58q0 95 29 177.5t83.5 145.5t140 99t191.5 36h494v-421q-10 2 -179 2q-41 0 -66.5 -22t-25.5 -52v-29h295v-458z" />
    <glyph glyph-name="g" unicode="g" horiz-adv-x="1798" 
d="M823 1174q185 0 335.5 -23t227.5 -61q43 39 122.5 59t151 18t130.5 -14v-346h-188q30 -43 30 -96q0 -51 -6 -74q-36 -147 -210.5 -222t-461.5 -75q-174 0 -262 35q-55 3 -55 -31q0 -11 6 -18.5t19 -11.5t26.5 -6t36 -1.5t40 1.5t45.5 2.5t46 2.5q266 7 449 -10t291.5 -59
t156 -103.5t47.5 -150.5q0 -197 -233 -303.5t-707 -106.5q-251 0 -425.5 20.5t-271 59.5t-138 89t-41.5 116q0 192 219 244q-70 14 -109 61.5t-39 120.5q0 69 58 121.5t143 74.5q-76 18 -131 78t-70 150q-8 58 6 119q15 68 64 127t137.5 108t232 77t328.5 28zM850 856
q-138 0 -164 -72q-23 -68 -4 -127q29 -75 160 -75q66 0 108 18.5t51 52.5q23 75 3 131q-31 72 -154 72zM815 -94q297 0 297 57q0 26 -23 37.5t-81 11.5h-398q-17 -3 -30 -14.5t-13 -28.5q0 -63 248 -63z" />
    <glyph glyph-name="h" unicode="h" horiz-adv-x="1898" 
d="M1784 635q0 -221 1 -342t5 -188.5t9.5 -85t15.5 -19.5h-685q-8 8 -11.5 20.5t-6.5 67t-3.5 152t-0.5 284.5q0 81 -43.5 118.5t-118.5 37.5q-87 0 -127.5 -50.5t-40.5 -117.5v-512h-672v1628h654v-674q149 207 500 207q247 0 385.5 -135t138.5 -391z" />
    <glyph glyph-name="i" unicode="i" horiz-adv-x="905" 
d="M791 1202h-678v402h678v-402zM827 0h-677q-22 3 -29.5 49.5t-7.5 171.5v905h678v-903q0 -138 5.5 -174.5t30.5 -48.5z" />
    <glyph glyph-name="j" unicode="j" horiz-adv-x="931" 
d="M819 1202h-674v400h674v-400zM819 49q0 -239 -135 -368.5t-385 -129.5q-111 0 -228 7.5t-153 17.5v393q27 -4 96 -4q131 0 131 111v1050h674v-1077z" />
    <glyph glyph-name="k" unicode="k" horiz-adv-x="1800" 
d="M1835 0h-758l-254 356l-45 -39v-317h-672v1628h672v-768l299 266h705l-475 -450z" />
    <glyph glyph-name="l" unicode="l" horiz-adv-x="913" 
d="M803 0q-19 17 -19 119v1331q0 108 -12 158h-672q13 -39 13 -170v-1268q0 -149 14 -170h676z" />
    <glyph glyph-name="m" unicode="m" horiz-adv-x="2809" 
d="M2060 0q-12 1 -15 94t-3 436q0 150 -152 150q-83 0 -125.5 -50.5t-42.5 -121.5v-508h-624v539q0 141 -150 141q-80 0 -125 -48t-45 -116v-516h-672v1126h650v-186q49 103 178 158t287 55q322 0 442 -217q44 83 185.5 150t344.5 67q256 0 384 -132.5t128 -375.5v-248
q0 -281 1.5 -333.5t11.5 -63.5h-658z" />
    <glyph glyph-name="n" unicode="n" horiz-adv-x="1898" 
d="M1802 0h-669q-10 4 -14 24t-7.5 136.5t-3.5 361.5q0 72 -39.5 114t-118.5 42q-80 0 -126 -52t-46 -108v-518h-672v1126h650v-186q62 112 194.5 165.5t311.5 53.5q136 0 238 -40.5t162.5 -113.5t90 -165t29.5 -203q0 -293 3.5 -439t6.5 -163.5t10 -34.5z" />
    <glyph glyph-name="o" unicode="o" horiz-adv-x="1945" 
d="M1905 569q0 -169 -88 -293q-103 -143 -323 -219.5t-517 -76.5q-638 0 -850 301q-86 119 -86 288q0 174 92 293q237 303 846 303q304 0 516 -77.5t317 -217.5q93 -129 93 -301zM1243 569q0 63 -29 107q-29 38 -88.5 61t-142.5 23q-170 0 -235 -82q-33 -44 -33 -109
t30 -112q27 -36 89.5 -57t148.5 -21q173 0 229 78q31 48 31 112z" />
    <glyph glyph-name="p" unicode="p" horiz-adv-x="1970" 
d="M1931 571q0 -183 -90 -319q-87 -129 -246.5 -195.5t-363.5 -66.5q-117 0 -261 33t-192 88v-480h-669v1495h649v-135q58 77 199.5 122.5t304.5 45.5q426 0 583 -246q86 -141 86 -342zM1251 573q0 65 -28 109q-26 38 -81.5 60t-135.5 22q-160 0 -220 -80q-30 -50 -30 -111
q0 -64 28 -110q25 -36 83.5 -58t138.5 -22q165 0 217 80q28 48 28 110z" />
    <glyph glyph-name="q" unicode="q" horiz-adv-x="2007" 
d="M1925 -369h-649l-14 15v430q-178 -96 -514 -96q-197 0 -350.5 63t-245.5 178q-111 146 -111 342q0 208 113 352q96 121 256.5 182.5t357.5 61.5q207 0 326.5 -37t195.5 -98l6 98h613v-1315q0 -133 16 -176zM1251 569q0 59 -32 109q-66 86 -236 86q-178 0 -240 -84
q-32 -52 -32 -111q0 -62 30 -112q27 -39 90.5 -61.5t151.5 -22.5q168 0 236 84q32 38 32 112z" />
    <glyph glyph-name="r" unicode="r" horiz-adv-x="1331" 
d="M1323 1145v-549q-75 29 -141 43t-158 14q-111 0 -173.5 -59t-62.5 -182v-412h-679v1126h655v-180q18 71 116 125.5t210 69.5q124 18 233 4z" />
    <glyph glyph-name="s" unicode="s" horiz-adv-x="1771" 
d="M1737 360q0 -195 -198 -290t-609 -95q-280 0 -462 37.5t-281.5 111.5t-143.5 193q-13 39 -16 86h678q4 -26 18 -45q19 -25 64 -35t135 -10q71 0 104 3.5t43 11t10 24.5q0 20 -30.5 29t-124.5 18q-27 3 -125.5 17t-130.5 18q-119 13 -207.5 28.5t-170.5 41.5t-133 61.5
t-81.5 88t-30.5 120.5q0 187 201.5 289t580.5 102q349 0 555 -75.5t271 -235.5q18 -47 26 -106h-653q-5 21 -27 40q-33 29 -141 29q-90 0 -118.5 -8.5t-28.5 -32.5q0 -19 28.5 -26t130.5 -17q36 -3 180.5 -19.5t196.5 -21.5q252 -25 371 -102t119 -230z" />
    <glyph glyph-name="t" unicode="t" horiz-adv-x="1312" 
d="M1243 668h-348v-154q0 -63 36 -88t120 -25q104 0 186 21v-387q-59 -26 -203 -42t-297 -16q-65 0 -124 8t-119 25t-108.5 48.5t-86.5 74.5t-59 106.5t-21 141.5v287h-190v458h188q5 35 8 101t3 115l1 49l658 10v-275h356v-458z" />
    <glyph glyph-name="u" unicode="u" horiz-adv-x="1888" 
d="M1774 0l-2 27q-2 27 -3.5 65t-1.5 64v970h-671v-546q0 -81 -47.5 -125.5t-128.5 -44.5q-25 0 -48 6t-48 21t-40.5 48t-15.5 80q0 561 -25 561v0v0v0v0v0v0v0v0v0v0v0h-1v0v0v0h-1v0v0h-1v0v0h-1v0h-1v0h-1v0h-1v0h-1v0h-1v0h-1v0h-1h-1v0h-1h-1h-1h-1h-1v0h-1h-1h-1h-1
h-1h-1h-1h-1h-1h-1h-1h-1h-1h-1h-1h-1h-1h-1h-1h-1h-1h-1h-1h-1h-1h-1h-1h-1h-1h-1h-1h-1h-1h-1h-1h-1h-1h-1h-1h-1h-1h-1h-1h-1h-1h-1h-1h-1h-1h-1h-1h-1h-1h-1h-1h-1h-1h-1h-1h-1h-1h-1h-1h-1h-1h-1h-1h-1h-1h-1h-1h-1h-1h-1h-1h-1h-1h-1h-1h-1h-1h-1h-1h-1h-1h-1h-1h-1
h-1h-1h-1h-1h-1h-1h-1h-2h-1h-1h-1h-1h-1h-1h-1h-1h-1h-1h-1h-1h-1h-1h-1h-1h-1h-2h-1h-1h-1h-1h-1h-1h-1h-1h-1h-2h-1h-1h-1h-1h-1h-1h-1h-2h-1h-1h-1h-1h-1h-2h-1h-1h-1h-1h-1h-2h-1h-1h-1h-1h-1h-2h-1h-1h-1h-1h-2h-1h-1h-1h-2h-1h-1h-1h-1h-2h-1h-1h-1h-2h-1h-1h-1h-2
h-1h-1h-1h-2h-1h-1h-2h-1h-1h-1h-2h-1h-1h-2h-1h-1h-1h-2h-1h-1h-2h-1h-1h-2h-1h-1h-2h-1h-1h-2h-1h-1h-2h-1h-1h-2h-1h-1h-2h-1h-1h-2h-1h-2h-1h-1h-2h-1h-1h-2h-1h-2h-1h-1h-2h-1h-2h-1h-1h-2h-1h-2h-1h-1h-2h-1h-2h-1h-2h-1h-1h-2h-1h-2h-1h-2h-1h-1h-2h-1h-2h-1h-2h-1
h-2h-1h-2h-1h-2h-1h-2h-1h-1h-2h-1h-2h-1h-2h-1h-2h-1h-2h-1h-2h-1h-2h-1h-2h-2h-1h-2h-1h-2h-1h-2h-1h-2h-1h-2h-1h-2h-1h-2h-2h-1h-2h-1h-2h-1h-2h-1h-2h-2h-1h-2h-1h-2h-1h-2h-2h-1h-2h-1h-2h-2h-1h-2h-1h-2h-2h-1h-2h-1h-2h-2h-1h-2h-2h-1h-2h-1h-2h-2h-1h-2h-2h-1h-2
h-1h-2h-2h-1h-2h-2h-1h-2h-2h-1h-2h-2h-1h-2h-2h-1h-2h-2h-1h-2h-2h-1h-2h-2h-2h-1h-2h-2h-1h-2h-2h-1h-2h-2h-2h-1h-2h-2h-1h-2h-2h-2h-1h-2h-2h-2h-1h-2h-2h-2h-1h-2h-2h-2h-1h-2h-2h-2h-1h-2h-2h-2h-1h-2h-2h-2h-2h-1h-2h-2h-2h-1h-2h-2h-2h-2h-1h-2h-2h-2h-2h-1h-2h-2
h-2h-2h-2h-1h-2h-2h-2h-2h-2h-1h-2h-2h-2h-2h-2h-1h-2h-2h-2h-2h-2h-2h-1h-2h-2h-2h-2h-2h-2h-2h-1h-2h-2h-2h-2h-2h-2h-2h-2h-1h-2h-10q14 -20 19 -150.5t5 -535.5q0 -97 19.5 -173t57.5 -126t84.5 -83.5t109.5 -51t122.5 -24.5t132.5 -7q377 0 500 205l17 -180h641z" />
    <glyph glyph-name="v" unicode="v" horiz-adv-x="1918" 
d="M1915 1126l-555 -1126h-782l-574 1126h709l258 -637l250 637h694z" />
    <glyph glyph-name="w" unicode="w" horiz-adv-x="2732" 
d="M2728 1126l-481 -1126h-725q-136 483 -146 520l-16 113q-15 -99 -19 -113l-141 -520h-727l-469 1126h684l168 -565l154 565h753l156 -565l156 565h653z" />
    <glyph glyph-name="x" unicode="x" horiz-adv-x="1888" 
d="M958 922l168 204h719l-538 -534l585 -592h-766l-198 236l-201 -236h-725l576 567l-547 559h762z" />
    <glyph glyph-name="y" unicode="y" horiz-adv-x="1927" 
d="M1919 1126l-774 -1495h-717l186 351l-610 1144h707q1 -9 132 -293t132 -288q0 6 122.5 289t123.5 292h698z" />
    <glyph glyph-name="z" unicode="z" horiz-adv-x="1783" 
d="M1708 0h-1626v397l590 318h-553v411h1552v-397l-637 -317h674v-412z" />
    <glyph glyph-name="braceleft" unicode="{" horiz-adv-x="1230" 
d="M1145 -371h-471q-178 0 -270.5 74.5t-92.5 185.5q0 60 27 171.5t27 164.5q0 32 -6 58.5t-25.5 55.5t-52.5 49t-90.5 33t-135.5 13v445q93 1 157 14t96.5 35.5t45.5 48t13 57.5q0 69 -30 166t-30 156q0 66 50.5 124.5t134 93t176.5 34.5h477v-467q-129 0 -186 -21t-56 -76
q1 -38 16 -89.5t15 -75.5q0 -72 -59.5 -121t-186.5 -62q134 -9 190 -63.5t56 -155.5q0 -47 -18 -125.5t-19 -122.5q-1 -70 57 -98.5t191 -28.5v-473z" />
    <glyph glyph-name="bar" unicode="|" horiz-adv-x="886" 
d="M705 -410h-506v2048h506v-2048z" />
    <glyph glyph-name="braceright" unicode="}" horiz-adv-x="1230" 
d="M86 -371v473q131 0 190 28.5t58 98.5q-1 44 -20 122.5t-19 125.5q0 101 56.5 155.5t191.5 63.5q-127 13 -187.5 62t-60.5 121q0 24 16 75.5t17 89.5q1 55 -56 76t-186 21v467h475q142 0 252.5 -76t110.5 -176q0 -59 -30 -156t-30 -166q0 -25 7 -46t28 -41.5t54.5 -34.5
t90.5 -23t132 -10v-445q-78 0 -135.5 -13t-90.5 -33t-52.5 -49t-25.5 -55.5t-6 -58.5q0 -50 26 -168t26 -192q0 -94 -93 -165t-268 -71h-471z" />
    <glyph glyph-name="asciitilde" unicode="~" horiz-adv-x="1882" 
d="M995 453q-49 28 -115 72t-104.5 65.5t-64.5 21.5q-61 0 -93.5 -41.5t-35.5 -105.5l-559 39q10 148 46 263t100 201.5t164.5 132.5t233.5 46q209 0 428 -146q36 -24 97 -70t92 -64.5t55 -18.5q51 0 79.5 37t33.5 98l495 -51q-3 -278 -125.5 -433t-353.5 -155
q-181 0 -373 109z" />
    <glyph glyph-name="exclamdown" unicode="&#xa1;" horiz-adv-x="927" 
d="M117 1626h690v-577h-690v577zM23 -2l106 969h668l100 -969h-874z" />
    <glyph glyph-name="cent" unicode="&#xa2;" horiz-adv-x="1814" 
d="M727 1399v223h412v-223q440 -40 596 -291q61 -99 80 -274h-635q0 58 -17 88q-48 90 -213 90q-168 0 -221 -84q-31 -43 -31 -115q0 -79 23 -121q54 -92 215 -92q77 0 124 14.5t83 47.5q31 29 31 90h638q0 -63 -21 -139t-62 -130q-78 -101 -227 -171t-363 -91v-332h-412
v334q-431 39 -610 246q-107 126 -107 336q0 191 107 332q86 105 242 172t368 90z" />
    <glyph glyph-name="sterling" unicode="&#xa3;" horiz-adv-x="2019" 
d="M233 883q-99 95 -104 213v100q2 76 30.5 139t93 119.5t163.5 95.5t250.5 61.5t345.5 22.5q202 0 356.5 -31t249 -81t157 -124.5t89 -148.5t37.5 -166q4 -46 4 -137h-738v107q0 50 -30 78.5t-88 29.5q-56 0 -86 -25t-33 -65v-82q0 -12 2 -23.5t4 -19t6.5 -18.5t6 -15
t7.5 -16l7 -14h778v-308h-719q-7 -21 -33 -51q-27 -30 -69 -45h1003v-479h-1812v500q109 0 157 26q39 17 58 49h-220v308h127z" />
    <glyph glyph-name="currency" unicode="&#xa4;" horiz-adv-x="2105" 
d="M2058 688q-2 -37 -12 -96q-23 -135 -96 -247.5t-189.5 -195t-282 -128.5t-364.5 -46q-515 0 -762 263q-132 144 -170 344h-172v202h150v54h-150v202h174q41 200 183 342q120 120 308 186t437 66q200 0 367 -46t282.5 -127.5t187.5 -191t95 -239.5q10 -65 14 -117h-753
q0 4 0.5 16.5t0.5 26t-1 25.5q-15 172 -189 172q-96 0 -145 -43q-30 -30 -41 -70h295v-202h-314v-54h314v-202h-299q14 -55 47 -88q47 -50 139 -50q172 0 193 174q3 28 0 70h753z" />
    <glyph glyph-name="yen" unicode="&#xa5;" horiz-adv-x="2488" 
d="M885 342h-748v201h748v30l-883 1035h813q428 -483 432 -512q1 13 109.5 141t216.5 249l108 122h801l-887 -1033v-32h750v-201h-750v-55h750v-203h-750v-84h-710v84h-748v203h748v55z" />
    <glyph glyph-name="brokenbar" unicode="&#xa6;" horiz-adv-x="886" 
d="M705 709h-506v929h506v-929zM705 -410h-506v918h506v-918z" />
    <glyph glyph-name="section" unicode="&#xa7;" horiz-adv-x="1624" 
d="M117 991q67 104 225 160q-103 53 -115 160q-2 12 -2 45q2 71 58 125.5t145.5 84.5t187.5 45t199 15q108 0 191.5 -9t165.5 -33t133 -73t65 -122q11 -68 10 -80h-516v51q0 41 -35 41q-30 0 -36 -25v-14q0 -12 2 -19t14 -20.5t34.5 -24t68.5 -24t112 -25.5q21 -6 51 -12
q89 -16 153.5 -36t104 -40.5t64.5 -47t35.5 -51t15.5 -56.5q9 -76 -28 -136t-109 -98q-13 -8 -27 -14t-24 -10t-26.5 -9t-24 -7t-27.5 -6.5t-27 -6.5q385 -84 422 -303q4 -37 2 -56q-3 -180 -199.5 -281.5t-556.5 -101.5q-656 0 -753 334q-8 34 -15 80h738v-53
q0 -39 13 -52.5t46 -13.5q55 0 55 43v15q-4 66 -145 98q-289 74 -346 88q-157 36 -243 118.5t-91 196.5q-7 98 35 160zM748 862q18 -14 40 -14q28 0 48 18t22 43q3 31 -12 49q-20 27 -58 27q-29 0 -48.5 -16.5t-22.5 -44.5q-3 -18 6 -35.5t25 -26.5z" />
    <glyph glyph-name="dieresis" unicode="&#xa8;" 
d="M1124 1217h-465v385h465v-385zM500 1217h-469v385h469v-385z" />
    <glyph glyph-name="copyright" unicode="&#xa9;" horiz-adv-x="2480" 
d="M2380 487q-14 -293 -313.5 -466t-823.5 -173q-537 0 -834 168t-309 471q-3 80 -4 244t4 285q19 295 323 459.5t818 164.5q509 0 811.5 -165.5t327.5 -458.5q6 -67 5.5 -256.5t-5.5 -272.5zM2238 520q3 64 3 242t-3 229q-10 165 -141.5 283t-350.5 175.5t-505 57.5
q-216 0 -394 -31.5t-312.5 -93.5t-210.5 -161.5t-80 -229.5q-3 -82 -2.5 -253.5t2.5 -217.5q4 -136 81.5 -240.5t213 -169t312.5 -97.5t390 -33q295 0 514 60.5t346 183t137 296.5zM2042 692q0 -28 -7 -83.5t-14 -84.5q-42 -168 -242 -263t-538 -95q-300 0 -481 71t-254 197
q-72 119 -72 311q0 190 60 299q69 126 255.5 196.5t495.5 70.5q157 0 284.5 -20.5t210.5 -53.5t143 -79t90 -92.5t42 -98.5q23 -90 23 -160h-643q0 18 -3 40t-3 25q-7 34 -38.5 57t-90.5 23q-76 0 -108 -37.5t-32 -113.5v-117q0 -78 32 -116t103 -38q130 0 140 88q6 54 6 74
h641z" />
    <glyph glyph-name="ordfeminine" unicode="&#xaa;" horiz-adv-x="1558" 
d="M1497 469h-592q-3 9 -7 23.5t-11 44.5t-6 43q-144 -113 -418 -113q-107 0 -197.5 24t-154.5 77t-76 128q-6 23 -3.5 92t15.5 107q30 90 165 154t327 92q143 24 297 28q3 54 -2 80q-8 62 -64 62q-49 0 -65 -49q-7 -31 -7 -60h-604q3 54 21 113q49 156 226 249t460 93
q126 0 227 -16t169.5 -42.5t119 -66t79 -81t46.5 -91.5q37 -94 22 -299q-8 -98 -8 -285q0 -82 1.5 -127.5t11 -102.5t28.5 -77zM1507 199h-1468v217h1468v-217zM834 907q-26 3 -76 0q-60 -4 -76 -12q-19 -6 -23 -23q0 -19 3 -24q13 -22 61 -25q72 -3 96 21q12 12 15 33v30z
" />
    <glyph glyph-name="guillemotleft" unicode="&#xab;" horiz-adv-x="1894" 
d="M1851 102l-876 430v400l876 416v-510l-288 -105l288 -119v-512zM907 102l-878 430v400l878 416v-510l-291 -105l291 -119v-512z" />
    <glyph glyph-name="logicalnot" unicode="&#xac;" horiz-adv-x="1394" 
d="M657 1128l11 70h-658v430h1374v-430h-655l10 -70q110 -17 185 -101.5t75 -195.5q0 -113 -75.5 -197t-186.5 -99l-10 -56h657v-469h-1374v469h656l-11 56q-110 17 -183 100t-73 196q0 111 74.5 195.5t183.5 101.5zM1102 1245q15 10 50.5 21t43.5 16q30 21 19 42
q-11 20 -40 10q-9 -3 -18 -9t-25 -38t-30 -42zM301 1227q-15 10 -27 54.5t-20 49.5q-23 16 -46 3t-25 -36t18 -41q9 -5 47 -12.5t53 -17.5zM729 1006v-97l-33 -69l-28 69v97q-62 -12 -104 -61.5t-42 -113.5t41 -112t103 -60v97l30 67l31 -67v-97q62 11 104.5 59.5
t42.5 112.5t-41.5 113.5t-103.5 61.5zM1108 430q14 -10 29 -47t24 -43q22 -16 42 -9t20 25t-21 35q-9 7 -44.5 18.5t-49.5 20.5zM274 408q-15 -10 -57.5 -19t-50.5 -14q-22 -16 -20 -36t21 -25.5t44 8.5q8 5 28 40.5t35 45.5z" />
    <glyph glyph-name="registered" unicode="&#xae;" horiz-adv-x="2480" 
d="M2380 528q-7 -145 -86.5 -269t-222 -215.5t-355.5 -143.5t-473 -52q-266 0 -480 50t-357 140t-221.5 214.5t-84.5 275.5q-10 311 0 457q19 298 326 476.5t815 178.5q251 0 459 -47.5t353 -133.5t230 -207t97 -267q6 -67 5.5 -220t-5.5 -237zM2238 561q3 64 3 206.5
t-3 193.5q-10 166 -140.5 290.5t-352.5 190t-504 65.5q-286 0 -507.5 -62t-353 -187t-136.5 -297q-3 -82 -2.5 -217.5t2.5 -182.5q6 -181 139.5 -314t355 -200t502.5 -67q290 0 513 71t348.5 203t135.5 307zM1987 225h-594l-187 338h-110v-338h-557v1055h880q267 0 400 -94
q127 -87 127 -242q0 -140 -76 -233q-44 -53 -139 -76zM1399 866q0 47 -26 69.5t-70 22.5h-207v-180h209q48 0 71 21t23 67z" />
    <glyph glyph-name="macron" unicode="&#xaf;" 
d="M1057 1227h-961v329h961v-329z" />
    <glyph glyph-name="macron" unicode="&#x2c9;" 
d="M1057 1227h-961v329h961v-329z" />
    <glyph glyph-name="degree" unicode="&#xb0;" horiz-adv-x="995" 
d="M498 1626q192 0 326 -128.5t134 -317.5q0 -190 -134 -318.5t-326 -128.5t-326.5 128.5t-134.5 318.5q0 189 134.5 317.5t326.5 128.5zM498 1298q-46 0 -81.5 -35t-35.5 -81q0 -50 35 -82.5t82 -32.5q50 0 83 32t33 83q0 47 -33.5 81.5t-82.5 34.5z" />
    <glyph glyph-name="plusminus" unicode="&#xb1;" horiz-adv-x="1662" 
d="M1567 823h-494v-268h-483v268h-494v396h490v266h489v-266h492v-396zM1567 90h-1471v414h1471v-414z" />
    <glyph glyph-name="twosuperior" unicode="&#xb2;" horiz-adv-x="1447" 
d="M1317 795h-1157v249q326 57 465 113t139 131v43q0 53 -66 53q-61 0 -61 -51v-98h-471q0 79 10 129q8 50 44.5 93.5t103 80t175 57.5t246.5 21q126 0 223.5 -14t157.5 -36.5t99 -55t54.5 -65.5t16.5 -71q0 -6 -1 -30t-1 -35q-3 -89 -102 -161.5t-231 -98.5h356v-254z" />
    <glyph glyph-name="threesuperior" unicode="&#xb3;" horiz-adv-x="1505" 
d="M1096 1227q119 -10 181 -58t62 -102v-47q-4 -238 -606 -238q-150 0 -257 14t-173 42t-101.5 63.5t-54.5 85.5q-14 63 -14 86h479v-49q0 -19 29 -30t76 -11q53 0 78.5 14.5t25.5 36.5v27q0 47 -123 47h-258v176h260q111 0 111 37v31q0 34 -100 34q-39 0 -64.5 -10.5
t-25.5 -27.5v-35h-453q0 12 9.5 50.5t17.5 57.5q49 89 187.5 142t373.5 53q251 0 384 -53t154 -144q4 -24 4 -41q0 -60 -51 -100.5t-151 -50.5z" />
    <glyph glyph-name="acute" unicode="&#xb4;" 
d="M276 1204l162 408h670l-240 -408h-592z" />
    <glyph glyph-name="mu" unicode="&#xb5;" horiz-adv-x="1931" 
d="M1831 0h-639l-18 170q-68 -104 -177 -143q-84 -30 -178 -43v-353h-696v1495h678q24 0 24 -546q0 -47 15.5 -80t40.5 -48.5t48.5 -21.5t47.5 -6q81 0 128.5 44.5t47.5 125.5v532h672v-970q0 -27 1.5 -65t3.5 -65z" />
    <glyph glyph-name="mu" unicode="&#x3bc;" horiz-adv-x="1931" 
d="M1831 0h-639l-18 170q-68 -104 -177 -143q-84 -30 -178 -43v-353h-696v1495h678q24 0 24 -546q0 -47 15.5 -80t40.5 -48.5t48.5 -21.5t47.5 -6q81 0 128.5 44.5t47.5 125.5v532h672v-970q0 -27 1.5 -65t3.5 -65z" />
    <glyph glyph-name="paragraph" unicode="&#xb6;" horiz-adv-x="1945" 
d="M1804 1606v-1897h-190v1624h-86v-1624h-191v735q-63 -60 -206 -112.5t-302 -52.5q-157 0 -276.5 27.5t-198.5 81t-129 118.5t-84 153q-43 112 -43 308q0 78 17 165.5t45 145.5q36 73 91 132.5t133 107.5t186.5 75t238.5 27q343 0 528 -147v133h467zM1325 1055
q-12 59 -71.5 97t-172.5 38q-146 0 -211 -57q-31 -30 -48 -78t-17 -97q0 -121 65 -178q60 -55 197 -55q117 0 183.5 38.5t74.5 104.5v187z" />
    <glyph glyph-name="periodcentered" unicode="&#xb7;" horiz-adv-x="897" 
d="M799 502h-695v635h695v-635z" />
    <glyph glyph-name="periodcentered" unicode="&#x2219;" horiz-adv-x="897" 
d="M799 502h-695v635h695v-635z" />
    <glyph glyph-name="cedilla" unicode="&#xb8;" 
d="M463 -164q0 15 -15 26.5t-33 19t-33 26t-15 45.5v47h325v-37q0 -18 21 -28.5t51 -20t59.5 -24t50.5 -49.5t21 -87q0 -82 -74 -129t-208 -51t-320 39v207q170 -42 170 16z" />
    <glyph glyph-name="onesuperior" unicode="&#xb9;" horiz-adv-x="1036" 
d="M840 795h-451v471h-262v258q121 0 221 25t127 61h365v-815z" />
    <glyph glyph-name="ordmasculine" unicode="&#xba;" horiz-adv-x="1525" 
d="M1489 1057q0 -188 -123 -344q-93 -117 -249.5 -186.5t-362.5 -69.5q-205 0 -355 69.5t-245 186.5q-121 149 -121 344q0 205 141 368q93 107 240.5 169.5t345.5 62.5q207 0 362 -67t244 -181q64 -81 93.5 -164.5t29.5 -187.5zM1479 199h-1440v217h1440v-217zM860 1057
q0 156 -29 203q-17 32 -73 32q-48 0 -68 -30q-31 -43 -31 -205q0 -151 27 -201q20 -39 76 -39q54 0 76 45t22 195z" />
    <glyph glyph-name="guillemotright" unicode="&#xbb;" horiz-adv-x="1894" 
d="M993 102v512l258 119l-258 105v510l877 -416v-400zM47 102v512l260 119l-260 105v510l879 -416v-400z" />
    <glyph glyph-name="onequarter" unicode="&#xbc;" horiz-adv-x="2154" 
d="M731 795h-452v471h-261v258q122 0 222 25t125 61h366v-815zM1597 1608q-335 -503 -542 -826l-492 -782h-207q344 517 559 850l476 758h206zM2089 117h-135v-115h-443v131h-602v244l652 442h393v-450h135v-252zM1511 369v110l-170 -110h170z" />
    <glyph glyph-name="onehalf" unicode="&#xbd;" horiz-adv-x="2154" 
d="M731 795h-452v471h-261v258q122 0 222 25t125 61h366v-815zM1544 1608q-336 -503 -543 -826l-491 -782h-209q346 517 561 850l475 758h207zM2111 2h-1157v250q328 57 466.5 112.5t138.5 131.5v43q0 51 -66 51q-61 0 -61 -49v-99h-471q0 77 10 127q8 50 44.5 94t103 80
t175 57t246.5 21q156 0 267.5 -20t170.5 -55.5t85 -76t28 -89.5q0 -5 -1 -29t-1 -35q-3 -89 -102.5 -161.5t-231.5 -98.5h356v-254z" />
    <glyph glyph-name="threequarters" unicode="&#xbe;" horiz-adv-x="2555" 
d="M993 1227q119 -10 181.5 -58t62.5 -102q3 -19 0 -47q-4 -238 -606 -238q-150 0 -257 14t-173 42t-101.5 63.5t-54.5 85.5q-14 44 -14 86h481v-49q0 -19 28 -30t74 -11q54 0 79.5 14.5t25.5 36.5v27q0 47 -123 47h-258v176h260q111 0 111 37v31q0 34 -101 34
q-39 0 -64.5 -10.5t-25.5 -27.5v-35h-452q0 13 9 51.5t19 56.5q47 89 186 142t375 53q250 0 383 -53t154 -144q4 -12 4 -41q0 -60 -51 -100.5t-152 -50.5zM1954 1608q-336 -503 -543 -826l-491 -782h-207q344 517 559 850l475 758h207zM2490 117h-135v-115h-442v131h-602
v244l651 442h393v-450h135v-252zM1915 369v110l-172 -110h172z" />
    <glyph glyph-name="questiondown" unicode="&#xbf;" horiz-adv-x="1843" 
d="M735 1630h695v-577h-695v577zM51 512q0 74 39 132.5t100.5 95t136 65.5t148.5 49t135 39t98.5 43t36.5 53h674q2 -69 -27 -126.5t-77.5 -95.5t-107.5 -68t-118.5 -50.5t-109 -37t-81 -33t-32.5 -33.5q-3 -23 0 -41q12 -53 111 -53q56 0 83 20.5t27 50.5v66h723
q0 -89 -20 -191q-10 -64 -44.5 -121.5t-102.5 -111t-163 -92t-235 -61.5t-311 -23q-311 0 -507 47.5t-285 137.5t-91 230v109z" />
    <glyph glyph-name="Agrave" unicode="&#xc0;" horiz-adv-x="2498" 
d="M848 248l-119 -248h-752l871 1608h856l811 -1608h-764l-113 248h-790zM1452 651l-149 291l-50 131l-55 -133l-156 -289h410zM1554 1679h-593l-240 408h672z" />
    <glyph glyph-name="Aacute" unicode="&#xc1;" horiz-adv-x="2498" 
d="M848 248l-119 -248h-752l871 1608h856l811 -1608h-764l-113 248h-790zM1452 651l-149 291l-50 131l-55 -133l-156 -289h410zM946 1679l162 408h670l-240 -408h-592z" />
    <glyph glyph-name="Acircumflex" unicode="&#xc2;" horiz-adv-x="2498" 
d="M848 248l-119 -248h-752l871 1608h856l811 -1608h-764l-113 248h-790zM1452 651l-149 291l-50 131l-55 -133l-156 -289h410zM1800 1690h-487l-66 122l-63 -122h-488l240 397h625z" />
    <glyph glyph-name="Atilde" unicode="&#xc3;" horiz-adv-x="2498" 
d="M848 248l-119 -248h-752l871 1608h856l811 -1608h-764l-113 248h-790zM1452 651l-149 291l-50 131l-55 -133l-156 -289h410zM1321 1702q-124 61 -166 61q-26 0 -41.5 -18t-15.5 -51h-406q0 212 78.5 313.5t247.5 101.5q126 0 219 -49q57 -35 98 -35q33 0 47 13.5t17 52.5
h395q0 -119 -22.5 -204.5t-61.5 -131t-84.5 -66t-99.5 -20.5q-73 0 -114 6t-91 27z" />
    <glyph glyph-name="Adieresis" unicode="&#xc4;" horiz-adv-x="2498" 
d="M848 248l-119 -248h-752l871 1608h856l811 -1608h-764l-113 248h-790zM1452 651l-149 291l-50 131l-55 -133l-156 -289h410zM1804 1692h-465v385h465v-385zM1180 1692h-469v385h469v-385z" />
    <glyph glyph-name="Aring" unicode="&#xc5;" horiz-adv-x="2498" 
d="M856 1597q-22 64 -22 132q0 173 128.5 293t311.5 120t310.5 -120t127.5 -293q0 -66 -22 -130l825 -1599h-764l-113 248h-790l-119 -248h-752zM1274 1849q-45 0 -78 -34.5t-33 -85.5q0 -45 33.5 -80t77.5 -35q42 0 75 35t33 80q0 52 -31 86t-77 34zM1452 651l-149 291
l-50 131l-55 -133l-156 -289h410z" />
    <glyph glyph-name="AE" unicode="&#xc6;" horiz-adv-x="3186" 
d="M3097 1608v-471h-1029v-107h996v-455h-996v-108h1043v-467h-1735v233h-524l-156 -233h-762l1289 1608h1874zM1157 651h219v371q-2 -3 -17.5 -39.5t-33 -78.5t-22.5 -52z" />
    <glyph glyph-name="Ccedilla" unicode="&#xc7;" horiz-adv-x="2340" 
d="M1026 -20q-577 26 -813 299q-166 186 -166 528q0 307 158 500q271 325 983 325q157 0 293 -15.5t239.5 -43t188.5 -67t144.5 -84.5t103.5 -98.5t69 -106t37 -109.5q22 -91 27 -201h-731q-8 56 -21 84q-27 60 -115 96.5t-241 36.5q-287 0 -365 -139q-33 -59 -33 -184
q0 -129 35 -185q78 -137 363 -137q146 0 235 27t131 94q23 37 23 84h725q-1 -7 -5 -44t-7.5 -61t-9.5 -56.5t-13 -51.5q-88 -228 -304.5 -348t-604.5 -143v-17q0 -18 21 -28.5t50.5 -20t59 -24t50.5 -49.5t21 -87q0 -82 -74 -129t-208 -51t-320 39v207q170 -42 170 16
q0 15 -15 26.5t-33 19t-33 26t-15 45.5v27z" />
    <glyph glyph-name="Egrave" unicode="&#xc8;" horiz-adv-x="1994" 
d="M1919 0h-1798v1608h1784v-471h-1090v-105h1057v-457h-1057v-108h1104v-467zM1386 1679h-593l-240 408h672z" />
    <glyph glyph-name="Eacute" unicode="&#xc9;" horiz-adv-x="1994" 
d="M1919 0h-1798v1608h1784v-471h-1090v-105h1057v-457h-1057v-108h1104v-467zM680 1679l162 408h669l-239 -408h-592z" />
    <glyph glyph-name="Ecircumflex" unicode="&#xca;" horiz-adv-x="1994" 
d="M1919 0h-1798v1608h1784v-471h-1090v-105h1057v-457h-1057v-108h1104v-467zM1575 1690h-488l-65 122l-64 -122h-487l240 397h624z" />
    <glyph glyph-name="Edieresis" unicode="&#xcb;" horiz-adv-x="1994" 
d="M1919 0h-1798v1608h1784v-471h-1090v-105h1057v-457h-1057v-108h1104v-467zM1577 1692h-465v385h465v-385zM952 1692h-469v385h469v-385z" />
    <glyph glyph-name="Igrave" unicode="&#xcc;" horiz-adv-x="960" 
d="M852 0h-731v1608h731v-1608zM784 1679h-594l-239 408h672z" />
    <glyph glyph-name="Iacute" unicode="&#xcd;" horiz-adv-x="960" 
d="M852 0h-731v1608h731v-1608zM176 1679l162 408h670l-240 -408h-592z" />
    <glyph glyph-name="Icircumflex" unicode="&#xce;" horiz-adv-x="960" 
d="M852 0h-731v1608h731v-1608zM1030 1690h-487l-66 122l-63 -122h-488l240 397h625z" />
    <glyph glyph-name="Idieresis" unicode="&#xcf;" horiz-adv-x="960" 
d="M852 0h-731v1608h731v-1608zM1024 1692h-465v385h465v-385zM399 1692h-469v385h469v-385z" />
    <glyph glyph-name="Eth" unicode="&#xd0;" horiz-adv-x="2273" 
d="M121 616h-62v375h62v617h1237q573 0 760 -303q60 -94 81 -197t21 -270q0 -191 -20 -299.5t-76 -206.5q-184 -332 -754 -332h-1249v616zM827 991h297v-375h-297v-149h414q97 0 156 24.5t96 79.5q35 54 35 256q-5 160 -35 209q-39 63 -96.5 87t-157.5 24h-412v-156z" />
    <glyph glyph-name="Ntilde" unicode="&#xd1;" horiz-adv-x="2254" 
d="M2142 0h-694l-649 725v-725h-678v1608h723l618 -701v701h680v-1608zM1206 1702q-124 61 -166 61q-26 0 -41.5 -18t-15.5 -51h-405q0 212 78 313.5t247 101.5q126 0 219 -49q57 -35 99 -35q32 0 46 13t17 53h395q0 -119 -22.5 -204.5t-61.5 -131t-84.5 -66t-99.5 -20.5
q-73 0 -114 6t-91 27z" />
    <glyph glyph-name="Ograve" unicode="&#xd2;" horiz-adv-x="2398" 
d="M1198 1647q745 0 1012 -351q141 -184 141 -477t-139 -489q-250 -355 -1014 -355q-759 0 -1016 355q-135 186 -135 487q0 271 137 451q136 184 391 281.5t623 97.5zM1196 473q320 0 406 156q14 22 21 77.5t7 102.5q0 127 -37 182q-102 154 -397 154q-293 0 -391 -162
q-15 -25 -25 -78t-10 -96q0 -52 12 -112.5t31 -86.5q44 -65 132.5 -101t250.5 -36zM1483 1679h-594l-240 408h672z" />
    <glyph glyph-name="Oacute" unicode="&#xd3;" horiz-adv-x="2398" 
d="M1198 1647q745 0 1012 -351q141 -184 141 -477t-139 -489q-250 -355 -1014 -355q-759 0 -1016 355q-135 186 -135 487q0 271 137 451q136 184 391 281.5t623 97.5zM1196 473q320 0 406 156q14 22 21 77.5t7 102.5q0 127 -37 182q-102 154 -397 154q-293 0 -391 -162
q-15 -25 -25 -78t-10 -96q0 -52 12 -112.5t31 -86.5q44 -65 132.5 -101t250.5 -36zM899 1679l162 408h670l-240 -408h-592z" />
    <glyph glyph-name="Ocircumflex" unicode="&#xd4;" horiz-adv-x="2398" 
d="M1198 1647q745 0 1012 -351q141 -184 141 -477t-139 -489q-250 -355 -1014 -355q-759 0 -1016 355q-135 186 -135 487q0 271 137 451q136 184 391 281.5t623 97.5zM1196 473q320 0 406 156q14 22 21 77.5t7 102.5q0 127 -37 182q-102 154 -397 154q-293 0 -391 -162
q-15 -25 -25 -78t-10 -96q0 -52 12 -112.5t31 -86.5q44 -65 132.5 -101t250.5 -36zM1751 1690h-487l-66 122l-63 -122h-488l240 397h624z" />
    <glyph glyph-name="Otilde" unicode="&#xd5;" horiz-adv-x="2398" 
d="M1198 1647q745 0 1012 -351q141 -184 141 -477t-139 -489q-250 -355 -1014 -355q-759 0 -1016 355q-135 186 -135 487q0 271 137 451q136 184 391 281.5t623 97.5zM1196 473q320 0 406 156q14 22 21 77.5t7 102.5q0 127 -37 182q-102 154 -397 154q-293 0 -391 -162
q-15 -25 -25 -78t-10 -96q0 -52 12 -112.5t31 -86.5q44 -65 132.5 -101t250.5 -36zM1272 1702q-124 61 -166 61q-26 0 -41.5 -18t-15.5 -51h-406q0 212 78.5 313.5t247.5 101.5q126 0 219 -49q57 -35 98 -35q33 0 47 13.5t17 52.5h395q0 -119 -22.5 -204.5t-61.5 -131
t-84.5 -66t-99.5 -20.5q-73 0 -114 6t-91 27z" />
    <glyph glyph-name="Odieresis" unicode="&#xd6;" horiz-adv-x="2398" 
d="M1198 1647q745 0 1012 -351q141 -184 141 -477t-139 -489q-250 -355 -1014 -355q-759 0 -1016 355q-135 186 -135 487q0 271 137 451q136 184 391 281.5t623 97.5zM1196 473q320 0 406 156q14 22 21 77.5t7 102.5q0 127 -37 182q-102 154 -397 154q-293 0 -391 -162
q-15 -25 -25 -78t-10 -96q0 -52 12 -112.5t31 -86.5q44 -65 132.5 -101t250.5 -36zM1729 1694h-465v385h465v-385zM1104 1694h-469v385h469v-385z" />
    <glyph glyph-name="multiply" unicode="&#xd7;" horiz-adv-x="1556" 
d="M1372 1069l-262 -262l264 -264l-334 -330l-262 260l-262 -260l-332 332l262 262l-262 262l334 330l260 -260l262 262z" />
    <glyph glyph-name="Oslash" unicode="&#xd8;" horiz-adv-x="2398" 
d="M2013 1473q119 -70 197 -177q141 -180 141 -477q0 -291 -139 -487q-125 -175 -381 -265t-633 -90q-318 0 -561 66l-107 -113h-360l213 217q-125 78 -201 185q-135 186 -135 485q0 271 137 451q136 182 391 279.5t623 97.5q322 0 561 -66l60 61h356zM825 612l500 523
q-58 10 -129 10q-305 0 -397 -158q-14 -24 -22.5 -78t-8.5 -100q0 -61 23 -125q11 -34 34 -72zM1565 1006l-500 -525q62 -10 131 -10q322 0 408 156q14 22 21 78.5t7 103.5q0 68 -16 115t-51 82z" />
    <glyph glyph-name="Ugrave" unicode="&#xd9;" horiz-adv-x="2363" 
d="M2243 643q0 -135 -54 -245.5t-150 -188t-232.5 -130.5t-298.5 -77.5t-349 -24.5q-177 0 -329 25t-282 81t-221.5 139.5t-143.5 207t-52 277.5v901h717v-897q0 -109 93 -170.5t249 -61.5q158 0 251 65t93 167v897h709v-965zM1489 1679h-594l-240 408h672z" />
    <glyph glyph-name="Uacute" unicode="&#xda;" horiz-adv-x="2363" 
d="M2243 643q0 -135 -54 -245.5t-150 -188t-232.5 -130.5t-298.5 -77.5t-349 -24.5q-177 0 -329 25t-282 81t-221.5 139.5t-143.5 207t-52 277.5v901h717v-897q0 -109 93 -170.5t249 -61.5q158 0 251 65t93 167v897h709v-965zM854 1679l162 408h670l-240 -408h-592z" />
    <glyph glyph-name="Ucircumflex" unicode="&#xdb;" horiz-adv-x="2363" 
d="M2243 643q0 -135 -54 -245.5t-150 -188t-232.5 -130.5t-298.5 -77.5t-349 -24.5q-177 0 -329 25t-282 81t-221.5 139.5t-143.5 207t-52 277.5v901h717v-897q0 -109 93 -170.5t249 -61.5q158 0 251 65t93 167v897h709v-965zM1735 1690h-488l-65 122l-64 -122h-487l239 397
h625z" />
    <glyph glyph-name="Udieresis" unicode="&#xdc;" horiz-adv-x="2363" 
d="M2243 643q0 -135 -54 -245.5t-150 -188t-232.5 -130.5t-298.5 -77.5t-349 -24.5q-177 0 -329 25t-282 81t-221.5 139.5t-143.5 207t-52 277.5v901h717v-897q0 -109 93 -170.5t249 -61.5q158 0 251 65t93 167v897h709v-965zM1735 1692h-465v385h465v-385zM1110 1692h-469
v385h469v-385z" />
    <glyph glyph-name="Yacute" unicode="&#xdd;" horiz-adv-x="2424" 
d="M2423 1608l-860 -1078v-530h-711v528l-850 1080h803l409 -549l426 549h783zM909 1683l162 408h670l-240 -408h-592z" />
    <glyph glyph-name="Thorn" unicode="&#xde;" horiz-adv-x="2230" 
d="M840 1608v-160h657q309 6 492 -117q215 -142 215 -471q0 -260 -148 -405q-179 -182 -545 -185h-675v-270h-715v1608h719zM1485 836q0 64 -27 98q-40 57 -137 57h-492v-309h490q107 0 145 63q21 37 21 91z" />
    <glyph glyph-name="germandbls" unicode="&#xdf;" horiz-adv-x="2693" 
d="M971 1223q-49 0 -68.5 -28.5t-19.5 -80.5v-1114h-684v653h-179v498h179v33q0 231 213 344.5t612 113.5q184 0 331 -35.5t236.5 -95t136 -133.5t46.5 -155q0 -51 -16 -92t-39 -66.5t-46 -45.5t-39 -40t-16 -39q0 -15 4.5 -26t17 -19.5t26 -14t41 -10.5t51.5 -8t67 -8
q90 -9 358 -43q258 -36 379 -132.5t121 -281.5q0 -101 -40.5 -175.5t-133 -131.5t-254.5 -86t-393 -29q-281 0 -468 43t-285.5 122t-143.5 202q-15 50 -17 90h694q4 -45 18.5 -65t57 -29.5t133.5 -9.5q102 0 133 10t31 37q0 24 -28.5 35.5t-124.5 23.5q-126 16 -389 45
q-71 9 -123 17.5t-108.5 22t-96 29.5t-76.5 40t-59.5 54t-35.5 70.5t-13 90.5q0 60 22.5 119.5t45 111t22.5 92.5q0 40 -20.5 68.5t-59.5 28.5z" />
    <glyph glyph-name="agrave" unicode="&#xe0;" horiz-adv-x="1931" 
d="M1839 0h-655l-10 76q-75 -43 -233.5 -71t-356.5 -28q-161 0 -279 31.5t-186.5 98t-71.5 161.5q0 41 2 66q3 153 192 245.5t558 98.5q147 0 348 -19q-13 58 -55 84q-48 29 -138 29q-177 0 -190 -63h-645q14 81 55 155q46 84 127 144t192 93.5t236 48.5t277 15
q308 0 508.5 -89.5t259.5 -246.5q46 -125 38 -270q-2 -31 -2 -285q0 -226 29 -274zM1161 438q-82 8 -170 8q-258 0 -258 -94q0 -59 152 -59q135 0 206.5 41t69.5 104zM1298 1204h-593l-240 408h672z" />
    <glyph glyph-name="aacute" unicode="&#xe1;" horiz-adv-x="1931" 
d="M1839 0h-655l-10 76q-75 -43 -233.5 -71t-356.5 -28q-161 0 -279 31.5t-186.5 98t-71.5 161.5q0 41 2 66q3 153 192 245.5t558 98.5q147 0 348 -19q-13 58 -55 84q-48 29 -138 29q-177 0 -190 -63h-645q14 81 55 155q46 84 127 144t192 93.5t236 48.5t277 15
q308 0 508.5 -89.5t259.5 -246.5q46 -125 38 -270q-2 -31 -2 -285q0 -226 29 -274zM1161 438q-82 8 -170 8q-258 0 -258 -94q0 -59 152 -59q135 0 206.5 41t69.5 104zM645 1204l162 408h670l-240 -408h-592z" />
    <glyph glyph-name="acircumflex" unicode="&#xe2;" horiz-adv-x="1931" 
d="M1839 0h-655l-10 76q-75 -43 -233.5 -71t-356.5 -28q-161 0 -279 31.5t-186.5 98t-71.5 161.5q0 41 2 66q3 153 192 245.5t558 98.5q147 0 348 -19q-13 58 -55 84q-48 29 -138 29q-177 0 -190 -63h-645q14 81 55 155q46 84 127 144t192 93.5t236 48.5t277 15
q308 0 508.5 -89.5t259.5 -246.5q46 -125 38 -270q-2 -31 -2 -285q0 -226 29 -274zM1161 438q-82 8 -170 8q-258 0 -258 -94q0 -59 152 -59q135 0 206.5 41t69.5 104zM1511 1214h-487l-66 123l-63 -123h-487l239 398h625z" />
    <glyph glyph-name="atilde" unicode="&#xe3;" horiz-adv-x="1931" 
d="M1839 0h-655l-10 76q-75 -43 -233.5 -71t-356.5 -28q-161 0 -279 31.5t-186.5 98t-71.5 161.5q0 41 2 66q3 153 192 245.5t558 98.5q147 0 348 -19q-13 58 -55 84q-48 29 -138 29q-177 0 -190 -63h-645q14 81 55 155q46 84 127 144t192 93.5t236 48.5t277 15
q308 0 508.5 -89.5t259.5 -246.5q46 -125 38 -270q-2 -31 -2 -285q0 -226 29 -274zM1161 438q-82 8 -170 8q-258 0 -258 -94q0 -59 152 -59q135 0 206.5 41t69.5 104zM1028 1227q-124 61 -166 61q-26 0 -41.5 -18t-15.5 -51h-406q0 212 78.5 313.5t247.5 101.5
q126 0 219 -49q57 -35 98 -35q33 0 47 13.5t17 52.5h395q0 -119 -22.5 -204.5t-61.5 -131t-84.5 -66t-99.5 -20.5q-73 0 -114 6t-91 27z" />
    <glyph glyph-name="adieresis" unicode="&#xe4;" horiz-adv-x="1931" 
d="M1839 0h-655l-10 76q-75 -43 -233.5 -71t-356.5 -28q-161 0 -279 31.5t-186.5 98t-71.5 161.5q0 41 2 66q3 153 192 245.5t558 98.5q147 0 348 -19q-13 58 -55 84q-48 29 -138 29q-177 0 -190 -63h-645q14 81 55 155q46 84 127 144t192 93.5t236 48.5t277 15
q308 0 508.5 -89.5t259.5 -246.5q46 -125 38 -270q-2 -31 -2 -285q0 -226 29 -274zM1161 438q-82 8 -170 8q-258 0 -258 -94q0 -59 152 -59q135 0 206.5 41t69.5 104zM1505 1217h-465v385h465v-385zM881 1217h-469v385h469v-385z" />
    <glyph glyph-name="aring" unicode="&#xe5;" horiz-adv-x="1931" 
d="M1839 0h-655l-10 76q-75 -43 -233.5 -71t-356.5 -28q-161 0 -279 31.5t-186.5 98t-71.5 161.5q0 41 2 66q3 153 192 245.5t558 98.5q147 0 348 -19q-13 58 -55 84q-48 29 -138 29q-177 0 -190 -63h-645q14 81 55 155q46 84 127 144t192 93.5t236 48.5t277 15
q308 0 508.5 -89.5t259.5 -246.5q46 -125 38 -270q-2 -31 -2 -285q0 -226 29 -274zM1161 438q-82 8 -170 8q-258 0 -258 -94q0 -59 152 -59q135 0 206.5 41t69.5 104zM985 1874q153 0 259 -100t106 -244q0 -142 -106.5 -243t-258.5 -101t-259.5 101.5t-107.5 242.5
q0 144 107 244t260 100zM985 1630q-37 0 -64.5 -29t-27.5 -71q0 -37 28 -66.5t64 -29.5q35 0 62.5 29.5t27.5 66.5q0 43 -26 71.5t-64 28.5z" />
    <glyph glyph-name="ae" unicode="&#xe6;" horiz-adv-x="2988" 
d="M1358 158q-163 -108 -342 -144.5t-416 -36.5q-161 0 -283 31.5t-194.5 98t-75.5 161.5q0 41 2 66q3 153 192 245.5t558 98.5q147 0 348 -19q-11 53 -60 82q-51 31 -133 31q-81 0 -139 -22q-26 -11 -51 -41h-645q14 81 55 155q46 84 127 144t192 93.5t236 48.5t277 15
q217 0 348.5 -45.5t171.5 -105.5q52 65 182 108t344 43q376 0 609 -142.5t278 -389.5q12 -68 12 -189h-1167q7 -38 39 -73q27 -31 87.5 -47.5t133.5 -16.5q154 0 209 49q20 26 22 35h670q-7 -48 -33 -98q-79 -144 -298.5 -230t-569.5 -86q-257 0 -444.5 56.5t-241.5 124.5z
M2286 694q0 37 -33 66q-60 63 -209 63q-152 0 -215 -63q-36 -36 -39 -66h496zM1165 428q-53 10 -155 14q-138 3 -205 -18q-54 -22 -68 -53q-6 -21 4 -37q21 -30 117 -33q58 -8 139 6q87 13 129 55q12 11 24.5 33.5t14.5 32.5z" />
    <glyph glyph-name="ccedilla" unicode="&#xe7;" horiz-adv-x="1869" 
d="M786 -16q-486 41 -657 288q-88 122 -88 295q0 168 88 295q103 149 315.5 227t518.5 78q319 0 510 -81.5t280 -239.5q56 -99 76 -252h-623q0 40 -12 63q-24 49 -82 78t-143 29q-168 0 -230 -90q-26 -44 -26 -101q0 -71 24 -110q57 -88 217 -88q173 0 226 76q18 24 22 61
h627q-7 -136 -78 -240q-80 -117 -238.5 -194t-400.5 -96v-19q0 -18 21 -28.5t50.5 -20t59.5 -24t51 -49.5t21 -87q0 -82 -74 -129t-208 -51t-320 39v207q170 -42 170 16q0 15 -15 26.5t-33.5 19t-33.5 26t-15 45.5v31z" />
    <glyph glyph-name="egrave" unicode="&#xe8;" horiz-adv-x="1906" 
d="M1864 391q-12 -53 -35 -98q-77 -144 -298 -230t-570 -86q-556 0 -783 230q-139 142 -139 360q0 210 141 351q120 123 323 185t466 62q377 0 609 -142.5t277 -389.5q13 -58 13 -189h-1166q3 -36 37 -73q26 -31 88 -47.5t134 -16.5q156 0 208 49q21 21 23 35h672zM1202 694
q0 35 -31 66q-60 63 -210 63t-213 -63q-36 -36 -39 -66h493zM1260 1204h-594l-240 408h672z" />
    <glyph glyph-name="eacute" unicode="&#xe9;" horiz-adv-x="1906" 
d="M1864 391q-12 -53 -35 -98q-77 -144 -298 -230t-570 -86q-556 0 -783 230q-139 142 -139 360q0 210 141 351q120 123 323 185t466 62q377 0 609 -142.5t277 -389.5q13 -58 13 -189h-1166q3 -36 37 -73q26 -31 88 -47.5t134 -16.5q156 0 208 49q21 21 23 35h672zM1202 694
q0 35 -31 66q-60 63 -210 63t-213 -63q-36 -36 -39 -66h493zM651 1204l162 408h670l-240 -408h-592z" />
    <glyph glyph-name="ecircumflex" unicode="&#xea;" horiz-adv-x="1906" 
d="M1864 391q-12 -53 -35 -98q-77 -144 -298 -230t-570 -86q-556 0 -783 230q-139 142 -139 360q0 210 141 351q120 123 323 185t466 62q377 0 609 -142.5t277 -389.5q13 -58 13 -189h-1166q3 -36 37 -73q26 -31 88 -47.5t134 -16.5q156 0 208 49q21 21 23 35h672zM1202 694
q0 35 -31 66q-60 63 -210 63t-213 -63q-36 -36 -39 -66h493zM1505 1214h-487l-66 123l-63 -123h-488l240 398h625z" />
    <glyph glyph-name="edieresis" unicode="&#xeb;" horiz-adv-x="1906" 
d="M1864 391q-12 -53 -35 -98q-77 -144 -298 -230t-570 -86q-556 0 -783 230q-139 142 -139 360q0 210 141 351q120 123 323 185t466 62q377 0 609 -142.5t277 -389.5q13 -58 13 -189h-1166q3 -36 37 -73q26 -31 88 -47.5t134 -16.5q156 0 208 49q21 21 23 35h672zM1202 694
q0 35 -31 66q-60 63 -210 63t-213 -63q-36 -36 -39 -66h493zM1487 1217h-465v385h465v-385zM862 1217h-469v385h469v-385z" />
    <glyph glyph-name="igrave" unicode="&#xec;" horiz-adv-x="905" 
d="M827 0h-677q-22 3 -29.5 49.5t-7.5 171.5v905h678v-903q0 -138 5.5 -174.5t30.5 -48.5zM764 1204h-594l-240 408h672z" />
    <glyph glyph-name="iacute" unicode="&#xed;" horiz-adv-x="905" 
d="M827 0h-677q-22 3 -29.5 49.5t-7.5 171.5v905h678v-903q0 -138 5.5 -174.5t30.5 -48.5zM156 1204l161 408h670l-239 -408h-592z" />
    <glyph glyph-name="icircumflex" unicode="&#xee;" horiz-adv-x="905" 
d="M827 0h-677q-22 3 -29.5 49.5t-7.5 171.5v905h678v-903q0 -138 5.5 -174.5t30.5 -48.5zM1012 1214h-488l-65 123l-64 -123h-487l239 398h625z" />
    <glyph glyph-name="idieresis" unicode="&#xef;" horiz-adv-x="905" 
d="M827 0h-677q-22 3 -29.5 49.5t-7.5 171.5v905h678v-903q0 -138 5.5 -174.5t30.5 -48.5zM985 1217h-465v385h465v-385zM360 1217h-469v385h469v-385z" />
    <glyph glyph-name="eth" unicode="&#xf0;" horiz-adv-x="1923" 
d="M1155 946q-37 -12 -47 -12q-74 0 -92 92l78 18q5 -24 24 -24q1 0 5 1t12.5 3t17.5 4q-1 12 -1.5 28t-1 24.5t-1.5 11.5q-18 106 -176 106q-116 0 -139 -45q-27 -34 -27 -55h-655q12 116 38 176q30 70 69 122t101 98.5t144 76t199.5 46.5t267.5 17q276 0 461 -79t288 -214
q19 -25 41 -61q63 25 66 25q76 -3 96 -91l-80 -24q-6 24 -26 24q-3 0 -27 -8q111 -181 111 -399q0 -118 -19.5 -237.5t-56.5 -194.5q-183 -400 -881 -400q-193 0 -346.5 22.5t-253.5 60t-168.5 91t-100 112t-38.5 126.5q-9 95 -2 158q7 66 31 120.5t74 103.5t124.5 82.5
t187.5 53t259 19.5q251 0 448 -68q0 4 -4 90zM762 440q20 -84 174 -84q68 0 116 20t72 48q33 40 33 139q-1 0 -14 4t-15 4.5t-14.5 4t-17 4.5t-17 3.5t-20 3.5t-20.5 3t-24 2.5t-25 1t-29 0.5q-105 0 -146.5 -21.5t-52.5 -58.5q-3 -12 -3 -38t3 -36z" />
    <glyph glyph-name="ntilde" unicode="&#xf1;" horiz-adv-x="1898" 
d="M1802 0h-669q-10 4 -14 24t-7.5 136.5t-3.5 361.5q0 72 -39.5 114t-118.5 42q-80 0 -126 -52t-46 -108v-518h-672v1126h650v-186q62 112 194.5 165.5t311.5 53.5q136 0 238 -40.5t162.5 -113.5t90 -165t29.5 -203q0 -293 3.5 -439t6.5 -163.5t10 -34.5zM1051 1227
q-124 61 -166 61q-26 0 -42 -18t-16 -51h-405q0 212 78.5 313.5t247.5 101.5q126 0 219 -49q57 -35 98 -35q32 0 46 13t17 53h396q0 -96 -15 -170.5t-40.5 -121t-61 -76.5t-72.5 -42t-80 -12q-73 0 -113.5 6t-90.5 27z" />
    <glyph glyph-name="ograve" unicode="&#xf2;" horiz-adv-x="1945" 
d="M1905 569q0 -169 -88 -293q-103 -143 -323 -219.5t-517 -76.5q-638 0 -850 301q-86 119 -86 288q0 174 92 293q237 303 846 303q304 0 516 -77.5t317 -217.5q93 -129 93 -301zM1243 569q0 63 -29 107q-29 38 -88.5 61t-142.5 23q-170 0 -235 -82q-33 -44 -33 -109
t30 -112q27 -36 89.5 -57t148.5 -21q173 0 229 78q31 48 31 112zM1280 1204h-594l-240 408h672z" />
    <glyph glyph-name="oacute" unicode="&#xf3;" horiz-adv-x="1945" 
d="M1905 569q0 -169 -88 -293q-103 -143 -323 -219.5t-517 -76.5q-638 0 -850 301q-86 119 -86 288q0 174 92 293q237 303 846 303q304 0 516 -77.5t317 -217.5q93 -129 93 -301zM1243 569q0 63 -29 107q-29 38 -88.5 61t-142.5 23q-170 0 -235 -82q-33 -44 -33 -109
t30 -112q27 -36 89.5 -57t148.5 -21q173 0 229 78q31 48 31 112zM672 1204l162 408h669l-239 -408h-592z" />
    <glyph glyph-name="ocircumflex" unicode="&#xf4;" horiz-adv-x="1945" 
d="M1905 569q0 -169 -88 -293q-103 -143 -323 -219.5t-517 -76.5q-638 0 -850 301q-86 119 -86 288q0 174 92 293q237 303 846 303q304 0 516 -77.5t317 -217.5q93 -129 93 -301zM1243 569q0 63 -29 107q-29 38 -88.5 61t-142.5 23q-170 0 -235 -82q-33 -44 -33 -109
t30 -112q27 -36 89.5 -57t148.5 -21q173 0 229 78q31 48 31 112zM1524 1214h-488l-65 123l-64 -123h-487l239 398h625z" />
    <glyph glyph-name="otilde" unicode="&#xf5;" horiz-adv-x="1945" 
d="M1905 569q0 -169 -88 -293q-103 -143 -323 -219.5t-517 -76.5q-638 0 -850 301q-86 119 -86 288q0 174 92 293q237 303 846 303q304 0 516 -77.5t317 -217.5q93 -129 93 -301zM1243 569q0 63 -29 107q-29 38 -88.5 61t-142.5 23q-170 0 -235 -82q-33 -44 -33 -109
t30 -112q27 -36 89.5 -57t148.5 -21q173 0 229 78q31 48 31 112zM1042 1227q-124 61 -165 61q-26 0 -42 -18t-16 -51h-405q0 212 78 313.5t247 101.5q126 0 219 -49q57 -35 99 -35q32 0 46 13t17 53h396q0 -96 -15 -170.5t-40.5 -121t-61 -76.5t-72.5 -42t-80 -12
q-73 0 -114 6t-91 27z" />
    <glyph glyph-name="odieresis" unicode="&#xf6;" horiz-adv-x="1945" 
d="M1905 569q0 -169 -88 -293q-103 -143 -323 -219.5t-517 -76.5q-638 0 -850 301q-86 119 -86 288q0 174 92 293q237 303 846 303q304 0 516 -77.5t317 -217.5q93 -129 93 -301zM1243 569q0 63 -29 107q-29 38 -88.5 61t-142.5 23q-170 0 -235 -82q-33 -44 -33 -109
t30 -112q27 -36 89.5 -57t148.5 -21q173 0 229 78q31 48 31 112zM1520 1217h-465v385h465v-385zM895 1217h-469v385h469v-385z" />
    <glyph glyph-name="divide" unicode="&#xf7;" horiz-adv-x="1724" 
d="M1155 1071h-573v342h573v-342zM1628 504h-1532v500h1532v-500zM1153 94h-565v342h565v-342z" />
    <glyph glyph-name="oslash" unicode="&#xf8;" horiz-adv-x="1943" 
d="M287 129q-97 61 -162 152q-86 119 -86 288q0 174 92 293q237 303 846 303q302 0 520 -80l98 78h265l-199 -157q94 -60 149 -136q93 -129 93 -301q0 -169 -88 -293q-103 -143 -323 -219.5t-517 -76.5q-310 0 -520 71l-105 -84h-266q13 10 34 27t66 52.5t74.5 59t28.5 23.5
zM731 479l344 273q-58 8 -94 8q-171 0 -236 -82q-32 -43 -32 -109q0 -49 18 -90zM1223 657l-342 -270q39 -8 100 -8q173 0 229 78q31 48 31 112q0 51 -18 88z" />
    <glyph glyph-name="ugrave" unicode="&#xf9;" horiz-adv-x="1888" 
d="M1774 0l-2 27q-2 27 -3.5 65t-1.5 64v970h-671v-546q0 -81 -47.5 -125.5t-128.5 -44.5q-25 0 -48 6t-48 21t-40.5 48t-15.5 80q0 561 -25 561v0v0v0v0v0v0v0v0v0v0v0h-1v0v0v0h-1v0v0h-1v0v0h-1v0h-1v0h-1v0h-1v0h-1v0h-1v0h-1v0h-1h-1v0h-1h-1h-1h-1h-1v0h-1h-1h-1h-1
h-1h-1h-1h-1h-1h-1h-1h-1h-1h-1h-1h-1h-1h-1h-1h-1h-1h-1h-1h-1h-1h-1h-1h-1h-1h-1h-1h-1h-1h-1h-1h-1h-1h-1h-1h-1h-1h-1h-1h-1h-1h-1h-1h-1h-1h-1h-1h-1h-1h-1h-1h-1h-1h-1h-1h-1h-1h-1h-1h-1h-1h-1h-1h-1h-1h-1h-1h-1h-1h-1h-1h-1h-1h-1h-1h-1h-1h-1h-1h-1h-1h-1h-1h-1
h-1h-1h-1h-1h-1h-1h-1h-2h-1h-1h-1h-1h-1h-1h-1h-1h-1h-1h-1h-1h-1h-1h-1h-1h-1h-2h-1h-1h-1h-1h-1h-1h-1h-1h-1h-2h-1h-1h-1h-1h-1h-1h-1h-2h-1h-1h-1h-1h-1h-2h-1h-1h-1h-1h-1h-2h-1h-1h-1h-1h-1h-2h-1h-1h-1h-1h-2h-1h-1h-1h-2h-1h-1h-1h-1h-2h-1h-1h-1h-2h-1h-1h-1h-2
h-1h-1h-1h-2h-1h-1h-2h-1h-1h-1h-2h-1h-1h-2h-1h-1h-1h-2h-1h-1h-2h-1h-1h-2h-1h-1h-2h-1h-1h-2h-1h-1h-2h-1h-1h-2h-1h-1h-2h-1h-1h-2h-1h-2h-1h-1h-2h-1h-1h-2h-1h-2h-1h-1h-2h-1h-2h-1h-1h-2h-1h-2h-1h-1h-2h-1h-2h-1h-2h-1h-1h-2h-1h-2h-1h-2h-1h-1h-2h-1h-2h-1h-2h-1
h-2h-1h-2h-1h-2h-1h-2h-1h-1h-2h-1h-2h-1h-2h-1h-2h-1h-2h-1h-2h-1h-2h-1h-2h-2h-1h-2h-1h-2h-1h-2h-1h-2h-1h-2h-1h-2h-1h-2h-2h-1h-2h-1h-2h-1h-2h-1h-2h-2h-1h-2h-1h-2h-1h-2h-2h-1h-2h-1h-2h-2h-1h-2h-1h-2h-2h-1h-2h-1h-2h-2h-1h-2h-2h-1h-2h-1h-2h-2h-1h-2h-2h-1h-2
h-1h-2h-2h-1h-2h-2h-1h-2h-2h-1h-2h-2h-1h-2h-2h-1h-2h-2h-1h-2h-2h-1h-2h-2h-2h-1h-2h-2h-1h-2h-2h-1h-2h-2h-2h-1h-2h-2h-1h-2h-2h-2h-1h-2h-2h-2h-1h-2h-2h-2h-1h-2h-2h-2h-1h-2h-2h-2h-1h-2h-2h-2h-1h-2h-2h-2h-2h-1h-2h-2h-2h-1h-2h-2h-2h-2h-1h-2h-2h-2h-2h-1h-2h-2
h-2h-2h-2h-1h-2h-2h-2h-2h-2h-1h-2h-2h-2h-2h-2h-1h-2h-2h-2h-2h-2h-2h-1h-2h-2h-2h-2h-2h-2h-2h-1h-2h-2h-2h-2h-2h-2h-2h-2h-1h-2h-10q14 -20 19 -150.5t5 -535.5q0 -97 19.5 -173t57.5 -126t84.5 -83.5t109.5 -51t122.5 -24.5t132.5 -7q377 0 500 205l17 -180h641z
M1257 1204h-593l-240 408h672z" />
    <glyph glyph-name="uacute" unicode="&#xfa;" horiz-adv-x="1888" 
d="M1774 0l-2 27q-2 27 -3.5 65t-1.5 64v970h-671v-546q0 -81 -47.5 -125.5t-128.5 -44.5q-25 0 -48 6t-48 21t-40.5 48t-15.5 80q0 561 -25 561v0v0v0v0v0v0v0v0v0v0v0h-1v0v0v0h-1v0v0h-1v0v0h-1v0h-1v0h-1v0h-1v0h-1v0h-1v0h-1v0h-1h-1v0h-1h-1h-1h-1h-1v0h-1h-1h-1h-1
h-1h-1h-1h-1h-1h-1h-1h-1h-1h-1h-1h-1h-1h-1h-1h-1h-1h-1h-1h-1h-1h-1h-1h-1h-1h-1h-1h-1h-1h-1h-1h-1h-1h-1h-1h-1h-1h-1h-1h-1h-1h-1h-1h-1h-1h-1h-1h-1h-1h-1h-1h-1h-1h-1h-1h-1h-1h-1h-1h-1h-1h-1h-1h-1h-1h-1h-1h-1h-1h-1h-1h-1h-1h-1h-1h-1h-1h-1h-1h-1h-1h-1h-1h-1
h-1h-1h-1h-1h-1h-1h-1h-2h-1h-1h-1h-1h-1h-1h-1h-1h-1h-1h-1h-1h-1h-1h-1h-1h-1h-2h-1h-1h-1h-1h-1h-1h-1h-1h-1h-2h-1h-1h-1h-1h-1h-1h-1h-2h-1h-1h-1h-1h-1h-2h-1h-1h-1h-1h-1h-2h-1h-1h-1h-1h-1h-2h-1h-1h-1h-1h-2h-1h-1h-1h-2h-1h-1h-1h-1h-2h-1h-1h-1h-2h-1h-1h-1h-2
h-1h-1h-1h-2h-1h-1h-2h-1h-1h-1h-2h-1h-1h-2h-1h-1h-1h-2h-1h-1h-2h-1h-1h-2h-1h-1h-2h-1h-1h-2h-1h-1h-2h-1h-1h-2h-1h-1h-2h-1h-1h-2h-1h-2h-1h-1h-2h-1h-1h-2h-1h-2h-1h-1h-2h-1h-2h-1h-1h-2h-1h-2h-1h-1h-2h-1h-2h-1h-2h-1h-1h-2h-1h-2h-1h-2h-1h-1h-2h-1h-2h-1h-2h-1
h-2h-1h-2h-1h-2h-1h-2h-1h-1h-2h-1h-2h-1h-2h-1h-2h-1h-2h-1h-2h-1h-2h-1h-2h-2h-1h-2h-1h-2h-1h-2h-1h-2h-1h-2h-1h-2h-1h-2h-2h-1h-2h-1h-2h-1h-2h-1h-2h-2h-1h-2h-1h-2h-1h-2h-2h-1h-2h-1h-2h-2h-1h-2h-1h-2h-2h-1h-2h-1h-2h-2h-1h-2h-2h-1h-2h-1h-2h-2h-1h-2h-2h-1h-2
h-1h-2h-2h-1h-2h-2h-1h-2h-2h-1h-2h-2h-1h-2h-2h-1h-2h-2h-1h-2h-2h-1h-2h-2h-2h-1h-2h-2h-1h-2h-2h-1h-2h-2h-2h-1h-2h-2h-1h-2h-2h-2h-1h-2h-2h-2h-1h-2h-2h-2h-1h-2h-2h-2h-1h-2h-2h-2h-1h-2h-2h-2h-1h-2h-2h-2h-2h-1h-2h-2h-2h-1h-2h-2h-2h-2h-1h-2h-2h-2h-2h-1h-2h-2
h-2h-2h-2h-1h-2h-2h-2h-2h-2h-1h-2h-2h-2h-2h-2h-1h-2h-2h-2h-2h-2h-2h-1h-2h-2h-2h-2h-2h-2h-2h-1h-2h-2h-2h-2h-2h-2h-2h-2h-1h-2h-10q14 -20 19 -150.5t5 -535.5q0 -97 19.5 -173t57.5 -126t84.5 -83.5t109.5 -51t122.5 -24.5t132.5 -7q377 0 500 205l17 -180h641z
M610 1204l162 408h670l-240 -408h-592z" />
    <glyph glyph-name="ucircumflex" unicode="&#xfb;" horiz-adv-x="1888" 
d="M1774 0l-2 27q-2 27 -3.5 65t-1.5 64v970h-671v-546q0 -81 -47.5 -125.5t-128.5 -44.5q-25 0 -48 6t-48 21t-40.5 48t-15.5 80q0 561 -25 561v0v0v0v0v0v0v0v0v0v0v0h-1v0v0v0h-1v0v0h-1v0v0h-1v0h-1v0h-1v0h-1v0h-1v0h-1v0h-1v0h-1h-1v0h-1h-1h-1h-1h-1v0h-1h-1h-1h-1
h-1h-1h-1h-1h-1h-1h-1h-1h-1h-1h-1h-1h-1h-1h-1h-1h-1h-1h-1h-1h-1h-1h-1h-1h-1h-1h-1h-1h-1h-1h-1h-1h-1h-1h-1h-1h-1h-1h-1h-1h-1h-1h-1h-1h-1h-1h-1h-1h-1h-1h-1h-1h-1h-1h-1h-1h-1h-1h-1h-1h-1h-1h-1h-1h-1h-1h-1h-1h-1h-1h-1h-1h-1h-1h-1h-1h-1h-1h-1h-1h-1h-1h-1h-1
h-1h-1h-1h-1h-1h-1h-1h-2h-1h-1h-1h-1h-1h-1h-1h-1h-1h-1h-1h-1h-1h-1h-1h-1h-1h-2h-1h-1h-1h-1h-1h-1h-1h-1h-1h-2h-1h-1h-1h-1h-1h-1h-1h-2h-1h-1h-1h-1h-1h-2h-1h-1h-1h-1h-1h-2h-1h-1h-1h-1h-1h-2h-1h-1h-1h-1h-2h-1h-1h-1h-2h-1h-1h-1h-1h-2h-1h-1h-1h-2h-1h-1h-1h-2
h-1h-1h-1h-2h-1h-1h-2h-1h-1h-1h-2h-1h-1h-2h-1h-1h-1h-2h-1h-1h-2h-1h-1h-2h-1h-1h-2h-1h-1h-2h-1h-1h-2h-1h-1h-2h-1h-1h-2h-1h-1h-2h-1h-2h-1h-1h-2h-1h-1h-2h-1h-2h-1h-1h-2h-1h-2h-1h-1h-2h-1h-2h-1h-1h-2h-1h-2h-1h-2h-1h-1h-2h-1h-2h-1h-2h-1h-1h-2h-1h-2h-1h-2h-1
h-2h-1h-2h-1h-2h-1h-2h-1h-1h-2h-1h-2h-1h-2h-1h-2h-1h-2h-1h-2h-1h-2h-1h-2h-2h-1h-2h-1h-2h-1h-2h-1h-2h-1h-2h-1h-2h-1h-2h-2h-1h-2h-1h-2h-1h-2h-1h-2h-2h-1h-2h-1h-2h-1h-2h-2h-1h-2h-1h-2h-2h-1h-2h-1h-2h-2h-1h-2h-1h-2h-2h-1h-2h-2h-1h-2h-1h-2h-2h-1h-2h-2h-1h-2
h-1h-2h-2h-1h-2h-2h-1h-2h-2h-1h-2h-2h-1h-2h-2h-1h-2h-2h-1h-2h-2h-1h-2h-2h-2h-1h-2h-2h-1h-2h-2h-1h-2h-2h-2h-1h-2h-2h-1h-2h-2h-2h-1h-2h-2h-2h-1h-2h-2h-2h-1h-2h-2h-2h-1h-2h-2h-2h-1h-2h-2h-2h-1h-2h-2h-2h-2h-1h-2h-2h-2h-1h-2h-2h-2h-2h-1h-2h-2h-2h-2h-1h-2h-2
h-2h-2h-2h-1h-2h-2h-2h-2h-2h-1h-2h-2h-2h-2h-2h-1h-2h-2h-2h-2h-2h-2h-1h-2h-2h-2h-2h-2h-2h-2h-1h-2h-2h-2h-2h-2h-2h-2h-2h-1h-2h-10q14 -20 19 -150.5t5 -535.5q0 -97 19.5 -173t57.5 -126t84.5 -83.5t109.5 -51t122.5 -24.5t132.5 -7q377 0 500 205l17 -180h641z
M1475 1214h-488l-65 123l-64 -123h-487l239 398h625z" />
    <glyph glyph-name="udieresis" unicode="&#xfc;" horiz-adv-x="1888" 
d="M1774 0l-2 27q-2 27 -3.5 65t-1.5 64v970h-671v-546q0 -81 -47.5 -125.5t-128.5 -44.5q-25 0 -48 6t-48 21t-40.5 48t-15.5 80q0 561 -25 561v0v0v0v0v0v0v0v0v0v0v0h-1v0v0v0h-1v0v0h-1v0v0h-1v0h-1v0h-1v0h-1v0h-1v0h-1v0h-1v0h-1h-1v0h-1h-1h-1h-1h-1v0h-1h-1h-1h-1
h-1h-1h-1h-1h-1h-1h-1h-1h-1h-1h-1h-1h-1h-1h-1h-1h-1h-1h-1h-1h-1h-1h-1h-1h-1h-1h-1h-1h-1h-1h-1h-1h-1h-1h-1h-1h-1h-1h-1h-1h-1h-1h-1h-1h-1h-1h-1h-1h-1h-1h-1h-1h-1h-1h-1h-1h-1h-1h-1h-1h-1h-1h-1h-1h-1h-1h-1h-1h-1h-1h-1h-1h-1h-1h-1h-1h-1h-1h-1h-1h-1h-1h-1h-1
h-1h-1h-1h-1h-1h-1h-1h-2h-1h-1h-1h-1h-1h-1h-1h-1h-1h-1h-1h-1h-1h-1h-1h-1h-1h-2h-1h-1h-1h-1h-1h-1h-1h-1h-1h-2h-1h-1h-1h-1h-1h-1h-1h-2h-1h-1h-1h-1h-1h-2h-1h-1h-1h-1h-1h-2h-1h-1h-1h-1h-1h-2h-1h-1h-1h-1h-2h-1h-1h-1h-2h-1h-1h-1h-1h-2h-1h-1h-1h-2h-1h-1h-1h-2
h-1h-1h-1h-2h-1h-1h-2h-1h-1h-1h-2h-1h-1h-2h-1h-1h-1h-2h-1h-1h-2h-1h-1h-2h-1h-1h-2h-1h-1h-2h-1h-1h-2h-1h-1h-2h-1h-1h-2h-1h-1h-2h-1h-2h-1h-1h-2h-1h-1h-2h-1h-2h-1h-1h-2h-1h-2h-1h-1h-2h-1h-2h-1h-1h-2h-1h-2h-1h-2h-1h-1h-2h-1h-2h-1h-2h-1h-1h-2h-1h-2h-1h-2h-1
h-2h-1h-2h-1h-2h-1h-2h-1h-1h-2h-1h-2h-1h-2h-1h-2h-1h-2h-1h-2h-1h-2h-1h-2h-2h-1h-2h-1h-2h-1h-2h-1h-2h-1h-2h-1h-2h-1h-2h-2h-1h-2h-1h-2h-1h-2h-1h-2h-2h-1h-2h-1h-2h-1h-2h-2h-1h-2h-1h-2h-2h-1h-2h-1h-2h-2h-1h-2h-1h-2h-2h-1h-2h-2h-1h-2h-1h-2h-2h-1h-2h-2h-1h-2
h-1h-2h-2h-1h-2h-2h-1h-2h-2h-1h-2h-2h-1h-2h-2h-1h-2h-2h-1h-2h-2h-1h-2h-2h-2h-1h-2h-2h-1h-2h-2h-1h-2h-2h-2h-1h-2h-2h-1h-2h-2h-2h-1h-2h-2h-2h-1h-2h-2h-2h-1h-2h-2h-2h-1h-2h-2h-2h-1h-2h-2h-2h-1h-2h-2h-2h-2h-1h-2h-2h-2h-1h-2h-2h-2h-2h-1h-2h-2h-2h-2h-1h-2h-2
h-2h-2h-2h-1h-2h-2h-2h-2h-2h-1h-2h-2h-2h-2h-2h-1h-2h-2h-2h-2h-2h-2h-1h-2h-2h-2h-2h-2h-2h-2h-1h-2h-2h-2h-2h-2h-2h-2h-2h-1h-2h-10q14 -20 19 -150.5t5 -535.5q0 -97 19.5 -173t57.5 -126t84.5 -83.5t109.5 -51t122.5 -24.5t132.5 -7q377 0 500 205l17 -180h641z
M1454 1217h-465v385h465v-385zM829 1217h-469v385h469v-385z" />
    <glyph glyph-name="yacute" unicode="&#xfd;" horiz-adv-x="1927" 
d="M1919 1126l-774 -1495h-717l186 351l-610 1144h707q1 -9 132 -293t132 -288q0 6 122.5 289t123.5 292h698zM674 1204l162 408h669l-239 -408h-592z" />
    <glyph glyph-name="thorn" unicode="&#xfe;" horiz-adv-x="1955" 
d="M1919 571q0 -188 -90 -319q-88 -128 -249.5 -194t-371.5 -66q-108 0 -245 33t-185 86v-480h-669v1997h667v-620q62 70 194 110.5t292 40.5q412 0 567 -231q90 -137 90 -357zM1251 573q0 65 -28 109q-26 38 -81.5 60t-135.5 22q-160 0 -220 -80q-30 -50 -30 -111
q0 -64 28 -110q25 -36 83.5 -58t138.5 -22q165 0 217 80q28 48 28 110z" />
    <glyph glyph-name="ydieresis" unicode="&#xff;" horiz-adv-x="1927" 
d="M1919 1126l-774 -1495h-717l186 351l-610 1144h707q1 -9 132 -293t132 -288q0 6 122.5 289t123.5 292h698zM1524 1217h-465v385h465v-385zM899 1217h-469v385h469v-385z" />
    <glyph glyph-name="dotlessi" unicode="&#x131;" horiz-adv-x="905" 
d="M827 0h-677q-22 3 -29.5 49.5t-7.5 171.5v905h678v-903q0 -138 5.5 -174.5t30.5 -48.5z" />
    <glyph glyph-name="Lslash" unicode="&#x141;" horiz-adv-x="1810" 
d="M836 729v-207h909v-522h-1624v621l-92 -13v355l92 12v633h715v-525l579 82v-356z" />
    <glyph glyph-name="lslash" unicode="&#x142;" horiz-adv-x="972" 
d="M823 655v-536q0 -109 39 -119h-680q-17 2 -24.5 40t-7.5 130v338l-121 -27v402l121 26v529q0 137 -11 170h672q12 -50 12 -158v-391l127 26v-403z" />
    <glyph glyph-name="OE" unicode="&#x152;" horiz-adv-x="3428" 
d="M1665 1608h1686v-471h-1057v-107h1024v-455h-1024v-108h1071v-467h-1702v21.5t0.5 40.5t0.5 42t-1 9q-58 -55 -219.5 -96.5t-343.5 -41.5q-334 0 -560 87.5t-358 267.5q-135 186 -135 487q0 135 31.5 242t105.5 209q141 196 379 288.5t531 90.5q152 -2 310.5 -36
t260.5 -91v88zM1196 473q164 0 260.5 38.5t135 110t38.5 187.5q0 80 -22 139.5t-71 105t-134.5 68.5t-206.5 23q-118 0 -203 -26t-132.5 -73.5t-69 -105.5t-21.5 -131q0 -77 20 -135t66.5 -105t132 -71.5t207.5 -24.5z" />
    <glyph glyph-name="oe" unicode="&#x153;" horiz-adv-x="3072" 
d="M975 -20q-638 0 -850 301q-86 119 -86 288q0 174 92 293q237 303 846 303q407 0 592 -151q69 65 209.5 108t359.5 43q377 0 609.5 -142.5t277.5 -389.5q12 -54 12 -189h-1165q3 -33 37 -73q27 -31 88 -47.5t133 -16.5q157 0 209 49q19 19 22 35h672q-12 -53 -35 -98
q-77 -144 -298 -230t-570 -86q-192 0 -342.5 45t-237.5 103q-257 -145 -575 -145zM2372 694q0 35 -31 66q-60 63 -211 63q-150 0 -213 -63q-36 -36 -39 -66h494zM1241 569q0 63 -29 107q-29 38 -88.5 61t-142.5 23q-171 0 -236 -82q-32 -43 -32 -109q0 -69 28 -112
q27 -36 90.5 -57t149.5 -21q173 0 229 78q31 48 31 112z" />
    <glyph glyph-name="Scaron" unicode="&#x160;" horiz-adv-x="2199" 
d="M2161 514q0 -266 -273 -402.5t-798 -136.5q-848 0 -1033 414q-21 48 -32 158h763q7 -39 48 -80q51 -51 309 -51q111 0 169 7t79.5 22t21.5 44q0 23 -21.5 36.5t-76.5 23t-166 18.5q-59 5 -189 18t-192 17q-272 22 -435.5 85t-233.5 164t-70 255q0 110 72.5 206.5
t204.5 168t328.5 112.5t432.5 41q212 0 383 -31t284 -85.5t185.5 -118t114.5 -139.5q58 -105 69 -199h-762q-3 37 -34 72q-24 28 -94 44.5t-171 16.5q-143 0 -202.5 -16t-59.5 -56q0 -41 76.5 -57t290.5 -33q75 -5 163 -13.5t167 -16.5t94 -9q300 -26 444 -143.5t144 -335.5
zM514 2093h490l65 -121l64 121h487l-242 -397h-622z" />
    <glyph glyph-name="scaron" unicode="&#x161;" horiz-adv-x="1771" 
d="M1737 360q0 -195 -198 -290t-609 -95q-280 0 -462 37.5t-281.5 111.5t-143.5 193q-13 39 -16 86h678q4 -26 18 -45q19 -25 64 -35t135 -10q71 0 104 3.5t43 11t10 24.5q0 20 -30.5 29t-124.5 18q-27 3 -125.5 17t-130.5 18q-119 13 -207.5 28.5t-170.5 41.5t-133 61.5
t-81.5 88t-30.5 120.5q0 187 201.5 289t580.5 102q349 0 555 -75.5t271 -235.5q18 -47 26 -106h-653q-5 21 -27 40q-33 29 -141 29q-90 0 -118.5 -8.5t-28.5 -32.5q0 -19 28.5 -26t130.5 -17q36 -3 180.5 -19.5t196.5 -21.5q252 -25 371 -102t119 -230zM287 1618h489
l66 -121l63 121h488l-242 -397h-623z" />
    <glyph glyph-name="Ydieresis" unicode="&#x178;" horiz-adv-x="2424" 
d="M2423 1608l-860 -1078v-530h-711v528l-850 1080h803l409 -549l426 549h783zM1753 1692h-465v385h465v-385zM1128 1692h-469v385h469v-385z" />
    <glyph glyph-name="Zcaron" unicode="&#x17d;" horiz-adv-x="2140" 
d="M2107 0h-2072v483l934 609h-877v516h1991v-484l-1008 -616h1032v-508zM514 2093h490l65 -121l64 121h487l-242 -397h-622z" />
    <glyph glyph-name="zcaron" unicode="&#x17e;" horiz-adv-x="1783" 
d="M1708 0h-1626v397l590 318h-553v411h1552v-397l-637 -317h674v-412zM336 1618h489l66 -121l63 121h488l-242 -397h-622z" />
    <glyph glyph-name="florin" unicode="&#x192;" horiz-adv-x="1292" 
d="M836 -59q-33 -232 -167.5 -340.5t-402.5 -108.5q-184 0 -393 29v444q108 -8 123 -8q123 0 133 94q26 382 72 656h-140v442h195l20 133q53 381 611 381q207 0 381 -29v-397q-140 16 -172 16q-57 0 -89.5 -11t-37.5 -44l-6 -47h270v-444h-318q-6 -46 -40.5 -393t-38.5 -373
z" />
    <glyph glyph-name="circumflex" unicode="&#x2c6;" 
d="M1130 1214h-487l-65 123l-64 -123h-487l239 398h625z" />
    <glyph glyph-name="caron" unicode="&#x2c7;" 
d="M23 1618h489l66 -121l63 121h487l-241 -397h-623z" />
    <glyph glyph-name="breve" unicode="&#x2d8;" 
d="M1065 1587q0 -80 -29.5 -150.5t-87 -126t-152.5 -88t-216 -32.5q-112 0 -206.5 33t-156 88.5t-95.5 127t-34 148.5h430q0 -63 14 -85.5t46 -22.5t44.5 21t12.5 87h430z" />
    <glyph glyph-name="dotaccent" unicode="&#x2d9;" 
d="M817 1217h-471v391h471v-391z" />
    <glyph glyph-name="ring" unicode="&#x2da;" 
d="M580 1821q152 0 258 -99.5t106 -244.5q0 -142 -106 -243t-258 -101t-259.5 101.5t-107.5 242.5q0 144 107 244t260 100zM580 1577q-37 0 -65 -29t-28 -71q0 -37 28.5 -67t64.5 -30q35 0 62.5 30t27.5 67q0 43 -26 71.5t-64 28.5z" />
    <glyph glyph-name="ogonek" unicode="&#x2db;" horiz-adv-x="1200" 
d="M662 -205q0 -33 96 -33v-172q-234 0 -341.5 51t-107.5 154q0 205 393 205v-168q-23 0 -31.5 -7.5t-8.5 -29.5z" />
    <glyph glyph-name="tilde" unicode="&#x2dc;" 
d="M651 1227q-124 61 -166 61q-26 0 -41.5 -18t-15.5 -51h-405q0 212 78 313.5t247 101.5q126 0 219 -49q57 -35 99 -35q32 0 46 13t17 53h395q0 -119 -22.5 -204.5t-61.5 -131t-84.5 -66t-99.5 -20.5q-73 0 -114 6t-91 27z" />
    <glyph glyph-name="hungarumlaut" unicode="&#x2dd;" 
d="M600 1204l152 408h454l-227 -408h-379zM111 1204l151 408h455l-228 -408h-378z" />
    <glyph glyph-name="Delta" unicode="&#x394;" horiz-adv-x="1394" 
d="M657 1128l11 70h-658v430h1374v-430h-655l10 -70q110 -17 185 -101.5t75 -195.5q0 -113 -75.5 -197t-186.5 -99l-10 -56h657v-469h-1374v469h656l-11 56q-110 17 -183 100t-73 196q0 111 74.5 195.5t183.5 101.5zM1102 1245q15 10 50.5 21t43.5 16q30 21 19 42
q-11 20 -40 10q-9 -3 -18 -9t-25 -38t-30 -42zM301 1227q-15 10 -27 54.5t-20 49.5q-23 16 -46 3t-25 -36t18 -41q9 -5 47 -12.5t53 -17.5zM729 1006v-97l-33 -69l-28 69v97q-62 -12 -104 -61.5t-42 -113.5t41 -112t103 -60v97l30 67l31 -67v-97q62 11 104.5 59.5
t42.5 112.5t-41.5 113.5t-103.5 61.5zM1108 430q14 -10 29 -47t24 -43q22 -16 42 -9t20 25t-21 35q-9 7 -44.5 18.5t-49.5 20.5zM274 408q-15 -10 -57.5 -19t-50.5 -14q-22 -16 -20 -36t21 -25.5t44 8.5q8 5 28 40.5t35 45.5z" />
    <glyph glyph-name="Delta" unicode="&#x2206;" horiz-adv-x="1394" 
d="M657 1128l11 70h-658v430h1374v-430h-655l10 -70q110 -17 185 -101.5t75 -195.5q0 -113 -75.5 -197t-186.5 -99l-10 -56h657v-469h-1374v469h656l-11 56q-110 17 -183 100t-73 196q0 111 74.5 195.5t183.5 101.5zM1102 1245q15 10 50.5 21t43.5 16q30 21 19 42
q-11 20 -40 10q-9 -3 -18 -9t-25 -38t-30 -42zM301 1227q-15 10 -27 54.5t-20 49.5q-23 16 -46 3t-25 -36t18 -41q9 -5 47 -12.5t53 -17.5zM729 1006v-97l-33 -69l-28 69v97q-62 -12 -104 -61.5t-42 -113.5t41 -112t103 -60v97l30 67l31 -67v-97q62 11 104.5 59.5
t42.5 112.5t-41.5 113.5t-103.5 61.5zM1108 430q14 -10 29 -47t24 -43q22 -16 42 -9t20 25t-21 35q-9 7 -44.5 18.5t-49.5 20.5zM274 408q-15 -10 -57.5 -19t-50.5 -14q-22 -16 -20 -36t21 -25.5t44 8.5q8 5 28 40.5t35 45.5z" />
    <glyph glyph-name="Omega" unicode="&#x3a9;" horiz-adv-x="1394" 
d="M657 1128l11 70h-658v430h1374v-430h-655l10 -70q110 -17 185 -101.5t75 -195.5q0 -113 -75.5 -197t-186.5 -99l-10 -56h657v-469h-1374v469h656l-11 56q-110 17 -183 100t-73 196q0 111 74.5 195.5t183.5 101.5zM1102 1245q15 10 50.5 21t43.5 16q30 21 19 42
q-11 20 -40 10q-9 -3 -18 -9t-25 -38t-30 -42zM301 1227q-15 10 -27 54.5t-20 49.5q-23 16 -46 3t-25 -36t18 -41q9 -5 47 -12.5t53 -17.5zM729 1006v-97l-33 -69l-28 69v97q-62 -12 -104 -61.5t-42 -113.5t41 -112t103 -60v97l30 67l31 -67v-97q62 11 104.5 59.5
t42.5 112.5t-41.5 113.5t-103.5 61.5zM1108 430q14 -10 29 -47t24 -43q22 -16 42 -9t20 25t-21 35q-9 7 -44.5 18.5t-49.5 20.5zM274 408q-15 -10 -57.5 -19t-50.5 -14q-22 -16 -20 -36t21 -25.5t44 8.5q8 5 28 40.5t35 45.5z" />
    <glyph glyph-name="Omega" unicode="&#x2126;" horiz-adv-x="1394" 
d="M657 1128l11 70h-658v430h1374v-430h-655l10 -70q110 -17 185 -101.5t75 -195.5q0 -113 -75.5 -197t-186.5 -99l-10 -56h657v-469h-1374v469h656l-11 56q-110 17 -183 100t-73 196q0 111 74.5 195.5t183.5 101.5zM1102 1245q15 10 50.5 21t43.5 16q30 21 19 42
q-11 20 -40 10q-9 -3 -18 -9t-25 -38t-30 -42zM301 1227q-15 10 -27 54.5t-20 49.5q-23 16 -46 3t-25 -36t18 -41q9 -5 47 -12.5t53 -17.5zM729 1006v-97l-33 -69l-28 69v97q-62 -12 -104 -61.5t-42 -113.5t41 -112t103 -60v97l30 67l31 -67v-97q62 11 104.5 59.5
t42.5 112.5t-41.5 113.5t-103.5 61.5zM1108 430q14 -10 29 -47t24 -43q22 -16 42 -9t20 25t-21 35q-9 7 -44.5 18.5t-49.5 20.5zM274 408q-15 -10 -57.5 -19t-50.5 -14q-22 -16 -20 -36t21 -25.5t44 8.5q8 5 28 40.5t35 45.5z" />
    <glyph glyph-name="pi" unicode="&#x3c0;" horiz-adv-x="2480" 
d="M2380 528q-7 -145 -86.5 -269t-222 -215.5t-355.5 -143.5t-473 -52q-266 0 -480 50t-357 140t-221.5 214.5t-84.5 275.5q-10 311 0 457q19 298 326 476.5t815 178.5q251 0 459 -47.5t353 -133.5t230 -207t97 -267q6 -67 5.5 -220t-5.5 -237zM2238 561q3 64 3 206.5
t-3 193.5q-10 166 -140.5 290.5t-352.5 190t-504 65.5q-286 0 -507.5 -62t-353 -187t-136.5 -297q-3 -82 -2.5 -217.5t2.5 -182.5q6 -181 139.5 -314t355 -200t502.5 -67q290 0 513 71t348.5 203t135.5 307zM1096 481v-256h-557v1055h880q265 0 400 -102q127 -100 127 -291
q0 -84 -22.5 -166t-70.5 -125q-54 -51 -158.5 -83t-199.5 -32h-399zM1397 831q2 4 2 29q0 6 -1 13t-1 10q-3 67 -88 67h-213v-178h209q45 0 67 13t25 46z" />
    <glyph glyph-name="endash" unicode="&#x2013;" horiz-adv-x="1380" 
d="M1313 408h-1245v530h1245v-530z" />
    <glyph glyph-name="emdash" unicode="&#x2014;" horiz-adv-x="1738" 
d="M1651 408h-1565v530h1565v-530z" />
    <glyph glyph-name="quoteleft" unicode="&#x2018;" horiz-adv-x="1038" 
d="M924 1217v-695h-785v672l494 448l323 -253l-186 -189l55 17h99z" />
    <glyph glyph-name="quoteright" unicode="&#x2019;" horiz-adv-x="1038" 
d="M117 944v694h786v-671l-495 -449l-322 252l184 191l-55 -17h-98z" />
    <glyph glyph-name="quotesinglbase" unicode="&#x201a;" horiz-adv-x="1038" 
d="M117 0v694h786v-671l-495 -449l-322 252l184 190l-55 -16h-98z" />
    <glyph glyph-name="quotedblleft" unicode="&#x201c;" horiz-adv-x="1900" 
d="M1743 1165v-643h-725v623l493 497l324 -253l-233 -240l49 16h92zM862 1165v-643h-723v623l494 497l323 -253l-235 -240l49 16h92z" />
    <glyph glyph-name="quotedblright" unicode="&#x201d;" horiz-adv-x="1900" 
d="M1038 995v643h723v-622l-493 -498l-324 252l236 242l-52 -17h-90zM158 995v643h725v-622l-494 -498l-323 252l233 242l-51 -17h-90z" />
    <glyph glyph-name="quotedblbase" unicode="&#x201e;" horiz-adv-x="1900" 
d="M1038 0v643h723v-623l-493 -497l-324 250l236 243l-52 -16h-90zM158 0v643h725v-623l-494 -497l-323 250l233 243l-51 -16h-90z" />
    <glyph glyph-name="dagger" unicode="&#x2020;" horiz-adv-x="1796" 
d="M1761 629h-508v-563l-368 -418l-357 418v563h-493v508h493v489h725v-489h508v-508z" />
    <glyph glyph-name="daggerdbl" unicode="&#x2021;" horiz-adv-x="1796" 
d="M1257 776h480v-407h-467v-310l-363 -411l-348 409v312h-500v407h514v90h-514v410h500v350h711v-350h467v-410h-480v-90z" />
    <glyph glyph-name="bullet" unicode="&#x2022;" horiz-adv-x="1341" 
d="M672 154q-161 0 -298 76t-217.5 209.5t-80.5 293.5q0 163 80.5 297.5t217.5 210.5t298 76q163 0 299.5 -76t216.5 -210.5t80 -297.5q0 -120 -47 -227.5t-127 -184.5t-190 -122t-232 -45z" />
    <glyph glyph-name="ellipsis" unicode="&#x2026;" horiz-adv-x="2723" 
d="M2646 0h-739v637h739v-637zM1739 0h-742v637h742v-637zM831 0h-739v637h739v-637z" />
    <glyph glyph-name="perthousand" unicode="&#x2030;" horiz-adv-x="3942" 
d="M3893 365q0 -79 -40.5 -149.5t-116.5 -126t-198 -88t-273 -32.5q-134 0 -248.5 33t-191 88t-120 126.5t-43.5 148.5v73q0 54 24.5 108.5t75.5 105.5t122 90t173.5 63t221.5 24q118 0 220.5 -24.5t173.5 -64.5t121.5 -91t74.5 -105t24 -106v-73zM1288 1174
q0 -165 -173 -278.5t-460 -113.5q-270 0 -433 110.5t-163 281.5v73q0 71 41 140t116.5 126t195 92t262.5 35q122 0 225.5 -25t173.5 -65t119.5 -92t72.5 -105.5t23 -105.5v-73zM2580 365q0 -79 -40.5 -149.5t-116.5 -126t-198 -88t-273 -32.5q-134 0 -248 33t-190 88
t-119 126.5t-43 148.5v73q0 54 24 108.5t74.5 105.5t121.5 90t173 63t221 24q147 0 268.5 -37t194.5 -95.5t112 -125.5t39 -133v-73zM2073 1608l-1213 -1608h-303l1219 1608h297zM807 1188v35q0 10 -12.5 24.5t-44.5 28.5t-74 14q-38 0 -67 -7.5t-43 -19t-20.5 -22
t-6.5 -18.5v-35q0 -11 11.5 -24t45.5 -25.5t84 -12.5q36 0 63 7t40 17.5t18.5 20t5.5 17.5zM2101 383v35q0 7 -12 20t-44.5 26t-74.5 13q-46 0 -79.5 -12.5t-45.5 -25t-12 -21.5v-35q0 -10 12 -25t45.5 -30t79.5 -15q39 0 67 8.5t40.5 21t18 22.5t5.5 18zM3412 383v35
q0 7 -12 20t-44.5 26t-74.5 13q-46 0 -79 -12.5t-45.5 -25t-12.5 -21.5v-35q0 -10 12.5 -25.5t46 -30t78.5 -14.5q39 0 67 8.5t40.5 21t18 22.5t5.5 18z" />
    <glyph glyph-name="guilsinglleft" unicode="&#x2039;" horiz-adv-x="948" 
d="M907 102l-878 430v400l878 416v-510l-301 -105l301 -119v-512z" />
    <glyph glyph-name="guilsinglright" unicode="&#x203a;" horiz-adv-x="948" 
d="M43 102v512l301 119l-301 105v510l879 -416v-400z" />
    <glyph glyph-name="fraction" unicode="&#x2044;" horiz-adv-x="598" 
d="M958 1608l-1038 -1608h-237l1038 1608h237z" />
    <glyph glyph-name="fraction" unicode="&#x2215;" horiz-adv-x="598" 
d="M958 1608l-1038 -1608h-237l1038 1608h237z" />
    <glyph glyph-name="Euro" unicode="&#x20ac;" horiz-adv-x="2105" 
d="M2058 688q-2 -37 -12 -96q-23 -135 -96 -247.5t-189.5 -195t-282 -128.5t-364.5 -46q-515 0 -762 263q-132 144 -170 344h-172v202h150v54h-150v202h174q41 200 183 342q120 120 308 186t437 66q200 0 367 -46t282.5 -127.5t187.5 -191t95 -239.5q10 -65 14 -117h-753
q0 4 0.5 16.5t0.5 26t-1 25.5q-15 172 -189 172q-96 0 -145 -43q-30 -30 -41 -70h295v-202h-314v-54h314v-202h-299q14 -55 47 -88q47 -50 139 -50q172 0 193 174q3 28 0 70h753z" />
    <glyph glyph-name="trademark" unicode="&#x2122;" horiz-adv-x="2975" 
d="M2339 938v260q0 62 -39 62q-45 0 -45 -89v-233h-553v260q0 32 -9 47t-32 15q-47 0 -47 -89v-233h-553v670h551v-113q26 55 110.5 89t210.5 34q120 0 192 -31.5t91 -87.5q44 63 120.5 91t207.5 28q94 0 169 -24.5t118.5 -64t66 -83.5t22.5 -88v-420h-581zM997 1288h-272
v-28q4 -35 94 -35q69 0 96 4v-287q-86 -22 -290 -22q-369 0 -369 251v117h-246v320h987v-320z" />
    <glyph glyph-name="partialdiff" unicode="&#x2202;" horiz-adv-x="1394" 
d="M657 1128l11 70h-658v430h1374v-430h-655l10 -70q110 -17 185 -101.5t75 -195.5q0 -113 -75.5 -197t-186.5 -99l-10 -56h657v-469h-1374v469h656l-11 56q-110 17 -183 100t-73 196q0 111 74.5 195.5t183.5 101.5zM1102 1245q15 10 50.5 21t43.5 16q30 21 19 42
q-11 20 -40 10q-9 -3 -18 -9t-25 -38t-30 -42zM301 1227q-15 10 -27 54.5t-20 49.5q-23 16 -46 3t-25 -36t18 -41q9 -5 47 -12.5t53 -17.5zM729 1006v-97l-33 -69l-28 69v97q-62 -12 -104 -61.5t-42 -113.5t41 -112t103 -60v97l30 67l31 -67v-97q62 11 104.5 59.5
t42.5 112.5t-41.5 113.5t-103.5 61.5zM1108 430q14 -10 29 -47t24 -43q22 -16 42 -9t20 25t-21 35q-9 7 -44.5 18.5t-49.5 20.5zM274 408q-15 -10 -57.5 -19t-50.5 -14q-22 -16 -20 -36t21 -25.5t44 8.5q8 5 28 40.5t35 45.5z" />
    <glyph glyph-name="product" unicode="&#x220f;" horiz-adv-x="1394" 
d="M657 1128l11 70h-658v430h1374v-430h-655l10 -70q110 -17 185 -101.5t75 -195.5q0 -113 -75.5 -197t-186.5 -99l-10 -56h657v-469h-1374v469h656l-11 56q-110 17 -183 100t-73 196q0 111 74.5 195.5t183.5 101.5zM1102 1245q15 10 50.5 21t43.5 16q30 21 19 42
q-11 20 -40 10q-9 -3 -18 -9t-25 -38t-30 -42zM301 1227q-15 10 -27 54.5t-20 49.5q-23 16 -46 3t-25 -36t18 -41q9 -5 47 -12.5t53 -17.5zM729 1006v-97l-33 -69l-28 69v97q-62 -12 -104 -61.5t-42 -113.5t41 -112t103 -60v97l30 67l31 -67v-97q62 11 104.5 59.5
t42.5 112.5t-41.5 113.5t-103.5 61.5zM1108 430q14 -10 29 -47t24 -43q22 -16 42 -9t20 25t-21 35q-9 7 -44.5 18.5t-49.5 20.5zM274 408q-15 -10 -57.5 -19t-50.5 -14q-22 -16 -20 -36t21 -25.5t44 8.5q8 5 28 40.5t35 45.5z" />
    <glyph glyph-name="summation" unicode="&#x2211;" horiz-adv-x="1394" 
d="M657 1128l11 70h-658v430h1374v-430h-655l10 -70q110 -17 185 -101.5t75 -195.5q0 -113 -75.5 -197t-186.5 -99l-10 -56h657v-469h-1374v469h656l-11 56q-110 17 -183 100t-73 196q0 111 74.5 195.5t183.5 101.5zM1102 1245q15 10 50.5 21t43.5 16q30 21 19 42
q-11 20 -40 10q-9 -3 -18 -9t-25 -38t-30 -42zM301 1227q-15 10 -27 54.5t-20 49.5q-23 16 -46 3t-25 -36t18 -41q9 -5 47 -12.5t53 -17.5zM729 1006v-97l-33 -69l-28 69v97q-62 -12 -104 -61.5t-42 -113.5t41 -112t103 -60v97l30 67l31 -67v-97q62 11 104.5 59.5
t42.5 112.5t-41.5 113.5t-103.5 61.5zM1108 430q14 -10 29 -47t24 -43q22 -16 42 -9t20 25t-21 35q-9 7 -44.5 18.5t-49.5 20.5zM274 408q-15 -10 -57.5 -19t-50.5 -14q-22 -16 -20 -36t21 -25.5t44 8.5q8 5 28 40.5t35 45.5z" />
    <glyph glyph-name="minus" unicode="&#x2212;" horiz-adv-x="1738" 
d="M1628 496h-1532v514h1532v-514z" />
    <glyph glyph-name="radical" unicode="&#x221a;" horiz-adv-x="2230" 
d="M2216 1612l-993 -1673h-660l-540 720h749l109 -172l630 1125h705z" />
    <glyph glyph-name="infinity" unicode="&#x221e;" horiz-adv-x="1851" 
d="M1796 772q0 -87 -27 -152t-86.5 -114t-162 -74.5t-246.5 -25.5q-208 0 -334 81q-139 -81 -383 -81q-137 0 -235.5 25t-156.5 72.5t-85 110t-27 144.5q0 174 120.5 269t373.5 95q221 0 352 -104q142 104 348 104q152 0 258.5 -22.5t170 -68.5t92 -109t28.5 -150zM1341 772
q0 53 -18 79t-59 26q-12 0 -23 -4t-20 -9.5t-18.5 -18t-16 -21.5t-16.5 -28.5t-15.5 -31.5t-17 -37t-17.5 -39q41 -35 99 -35q59 0 90.5 30.5t31.5 88.5zM580 653q43 0 72 32.5t67 102.5q-53 91 -129 91q-82 0 -82 -121q0 -105 72 -105z" />
    <glyph glyph-name="integral" unicode="&#x222b;" horiz-adv-x="1394" 
d="M657 1128l11 70h-658v430h1374v-430h-655l10 -70q110 -17 185 -101.5t75 -195.5q0 -113 -75.5 -197t-186.5 -99l-10 -56h657v-469h-1374v469h656l-11 56q-110 17 -183 100t-73 196q0 111 74.5 195.5t183.5 101.5zM1102 1245q15 10 50.5 21t43.5 16q30 21 19 42
q-11 20 -40 10q-9 -3 -18 -9t-25 -38t-30 -42zM301 1227q-15 10 -27 54.5t-20 49.5q-23 16 -46 3t-25 -36t18 -41q9 -5 47 -12.5t53 -17.5zM729 1006v-97l-33 -69l-28 69v97q-62 -12 -104 -61.5t-42 -113.5t41 -112t103 -60v97l30 67l31 -67v-97q62 11 104.5 59.5
t42.5 112.5t-41.5 113.5t-103.5 61.5zM1108 430q14 -10 29 -47t24 -43q22 -16 42 -9t20 25t-21 35q-9 7 -44.5 18.5t-49.5 20.5zM274 408q-15 -10 -57.5 -19t-50.5 -14q-22 -16 -20 -36t21 -25.5t44 8.5q8 5 28 40.5t35 45.5z" />
    <glyph glyph-name="approxequal" unicode="&#x2248;" horiz-adv-x="1857" 
d="M1792 1370q15 -286 -110 -446t-359 -160q-169 0 -328 67q-35 16 -90.5 43t-85.5 41t-71 25.5t-76 11.5q-109 0 -109 -129h-500q-15 283 109.5 447t359.5 164q86 0 169 -19t132 -40t119 -56q7 -3 29 -14.5t29 -14.5t26 -12.5t27 -12.5t24.5 -9.5t26.5 -9t23.5 -6t26 -4.5
t24.5 -1q56 0 81 33.5t25 101.5h498zM1792 717q15 -286 -110 -446t-359 -160q-172 0 -328 69q-36 16 -90.5 42t-85.5 40t-71.5 25.5t-75.5 11.5q-109 0 -109 -129h-500q-15 283 109.5 446.5t359.5 163.5q65 0 125 -9t116 -29t90 -34.5t89 -41.5q7 -3 29 -14.5t29 -14.5
t26 -12.5t27 -12.5t24.5 -9.5t26.5 -9t23.5 -6t26 -4.5t24.5 -1q56 0 81 33.5t25 101.5h498z" />
    <glyph glyph-name="notequal" unicode="&#x2260;" horiz-adv-x="1599" 
d="M1538 227h-965l-69 -110h-238l70 110h-275v463h592l56 82v0v0v0v0v0h-1v0v0v0h-1v0v0h-1v0v0h-1v0h-1v0h-1v0h-1v0h-1v0h-1h-1v0h-1h-1v0h-1h-1h-1v0h-1h-1h-1h-1h-1h-1h-1h-1h-1h-1h-1h-1h-1h-1h-1h-1h-1h-1h-1h-1h-1h-1h-1h-1h-1h-1h-1h-1h-1h-1h-1h-1h-1h-1h-1h-1h-1
h-1h-1h-1h-1h-1h-1h-1h-1h-1h-1h-1h-1h-1h-1h-1h-1h-1h-1h-1h-1h-1h-1h-1h-1h-1h-1h-1h-1h-1h-1h-1h-1h-1h-1h-1h-1h-1h-1h-1h-1h-1h-1h-1h-1h-1h-1h-1h-1h-1h-1h-1h-1h-1h-1h-1h-1h-1h-1h-1h-1h-1h-1h-1h-1h-1h-1h-1h-1h-1h-2h-1h-1h-1h-1h-1h-1h-1h-1h-1h-1h-2h-1h-1h-1
h-1h-1h-1h-1h-2h-1h-1h-1h-1h-1h-1h-2h-1h-1h-1h-1h-1h-2h-1h-1h-1h-1h-1h-2h-1h-1h-1h-1h-2h-1h-1h-1h-2h-1h-1h-1h-1h-2h-1h-1h-1h-2h-1h-1h-1h-2h-1h-1h-1h-2h-1h-1h-2h-1h-1h-1h-2h-1h-1h-2h-1h-1h-1h-2h-1h-1h-2h-1h-1h-2h-1h-1h-2h-1h-1h-2h-1h-1h-2h-1h-1h-2h-1h-1
h-2h-1h-2h-1h-1h-2h-1h-1h-2h-1h-2h-1h-1h-2h-1h-2h-1h-1h-2h-1h-2h-1h-1h-2h-1h-2h-1h-2h-1h-1h-2h-1h-2h-1h-2h-1h-1h-2h-1h-2h-1h-2h-1h-2h-1h-2h-1h-2h-1h-2h-1h-2h-1h-2h-1h-2h-1h-2h-1h-2h-1h-2h-1h-2h-1h-2h-1h-2h-1h-2h-1h-2h-1h-2h-1h-2h-1h-2h-2h-1h-2h-1h-2h-1
h-2h-1h-2h-2h-1h-2h-1h-2h-1h-2h-2h-1h-2h-1h-2h-2h-1h-2h-1h-2h-2h-1h-2h-1h-2h-2h-1h-2h-1h-2h-2h-1h-2h-2h-1h-2h-2h-1h-2h-1h-2h-2h-1h-2h-2h-1h-2h-2h-1h-2h-2h-1h-2h-2h-1h-2h-2h-1h-2h-2h-1h-2h-2h-2h-1h-2h-2h-1h-2h-2h-1h-2h-2h-2h-1h-2h-2h-2h-1h-2h-2h-1h-2h-2
h-2h-1h-2h-2h-2h-1h-2h-2h-2h-1h-2h-2h-2h-2h-1h-2h-2h-2h-1h-2h-2h-2h-2h-1h-2h-2h-2h-2h-1h-2h-2h-2h-2h-1h-2h-2h-2h-2h-1h-2h-2h-2h-2h-2h-1h-2h-2h-2h-2h-2h-2h-1h-2h-2h-2h-2h-2h-2h-1h-2h-2h-2h-2h-2h-2h-2h-1h-2h-2h-2h-2h-2h-2h-2h-9v467h967l109 158h235
l-108 -158h274v-467h-592l-57 -82h649v-463z" />
    <glyph glyph-name="lessequal" unicode="&#x2264;" horiz-adv-x="1662" 
d="M1567 541l-1471 288v400l1471 291v-420l-854 -70l854 -67v-422zM1567 90h-1471v414h1471v-414z" />
    <glyph glyph-name="greaterequal" unicode="&#x2265;" horiz-adv-x="1662" 
d="M1567 829l-1471 -288v422l854 67l-854 70v420l1471 -291v-400zM1567 90h-1471v414h1471v-414z" />
    <glyph glyph-name="lozenge" unicode="&#x25ca;" horiz-adv-x="2342" 
d="M2290 655l-789 -655h-659l-789 655l789 656h659zM1477 655l-303 254l-304 -254l304 -270z" />
    <glyph glyph-name="apple" unicode="&#xf8ff;" horiz-adv-x="1394" 
d="M657 1128l11 70h-658v430h1374v-430h-655l10 -70q110 -17 185 -101.5t75 -195.5q0 -113 -75.5 -197t-186.5 -99l-10 -56h657v-469h-1374v469h656l-11 56q-110 17 -183 100t-73 196q0 111 74.5 195.5t183.5 101.5zM1102 1245q15 10 50.5 21t43.5 16q30 21 19 42
q-11 20 -40 10q-9 -3 -18 -9t-25 -38t-30 -42zM301 1227q-15 10 -27 54.5t-20 49.5q-23 16 -46 3t-25 -36t18 -41q9 -5 47 -12.5t53 -17.5zM729 1006v-97l-33 -69l-28 69v97q-62 -12 -104 -61.5t-42 -113.5t41 -112t103 -60v97l30 67l31 -67v-97q62 11 104.5 59.5
t42.5 112.5t-41.5 113.5t-103.5 61.5zM1108 430q14 -10 29 -47t24 -43q22 -16 42 -9t20 25t-21 35q-9 7 -44.5 18.5t-49.5 20.5zM274 408q-15 -10 -57.5 -19t-50.5 -14q-22 -16 -20 -36t21 -25.5t44 8.5q8 5 28 40.5t35 45.5z" />
    <glyph glyph-name="NUL" horiz-adv-x="0" 
 />
    </font>
</defs>
</svg>
