<?xml version="1.0" standalone="no"?>
<!DOCTYPE svg PUBLIC "-//W3C//DTD SVG 1.1//EN" "http://www.w3.org/Graphics/SVG/1.1/DTD/svg11.dtd" >
<svg xmlns="http://www.w3.org/2000/svg" xmlns:xlink="http://www.w3.org/1999/xlink" version="1.1">
<metadata>
Created by FontForge 20201107 at Sat Feb 14 04:37:25 2026
 By www-data
[c] Copyright 2003-2004, The Font Bureau, Inc. Designed by David Berlow. All rights reserved.
</metadata>
<defs>
<font id="TitlingGothicFBWide-Light" horiz-adv-x="1650" >
  <font-face 
    font-family="TitlingGothicFB Wide Light"
    font-weight="300"
    font-stretch="normal"
    units-per-em="2048"
    panose-1="2 0 5 5 4 0 0 2 0 4"
    ascent="1638"
    descent="-410"
    x-height="1122"
    cap-height="1608"
    bbox="-262 -413.782 3793 2030"
    underline-thickness="40"
    underline-position="-271"
    unicode-range="U+0020-FB02"
  />
<missing-glyph horiz-adv-x="1024" 
 />
    <glyph glyph-name="fi" unicode="fi" horiz-adv-x="1603" 
d="M1217 977h-713v-977h-166v977h-291v145h291v181q0 344 412 344q94 0 290 -25v-145q-147 26 -243 24q-162 -1 -228.5 -56t-66.5 -155v-168h880v-1018q0 -92 17 -104h-166q-16 10 -16 102v875z" />
    <glyph glyph-name="fl" unicode="fl" horiz-adv-x="1597" 
d="M47 977v145h291v178q0 347 410 347q103 0 299 -25v-145q-149 26 -252 24q-162 -1 -228.5 -55.5t-66.5 -151.5v-172h536v-145h-534v-977h-164v977h-291zM1395 0h-164q-10 7 -10 68v1437q0 57 -7 127h162q6 -30 6 -114v-1401q0 -107 13 -117z" />
    <glyph glyph-name="f_f" unicode="ff" horiz-adv-x="1947" 
d="M504 977v-977h-166v977h-291v145h291v178q0 347 410 347q94 0 290 -25v-147q-147 26 -243 24q-161 -1 -227 -55t-66 -152v-170h712v170q0 78 21 140t67.5 111.5t128 76.5t193.5 27q95 0 291 -25v-147q-153 26 -244 24q-162 -1 -227.5 -54.5t-65.5 -152.5v-170h529v-145
h-527v-977h-166v977h-710z" />
    <glyph glyph-name="f_f_i" unicode="ffi" horiz-adv-x="2480" 
d="M2093 977h-713v-977h-166v977h-710v-977h-166v977h-291v145h291v178q0 347 410 347q94 0 290 -25v-147q-147 26 -243 24q-161 -1 -227 -55t-66 -152v-170h712v170q0 78 21 140t67.5 111.5t128 76.5t193.5 27q95 0 291 -25v-147q-153 26 -244 24q-162 -1 -227.5 -54.5
t-65.5 -152.5v-170h879v-1018q0 -91 18 -104h-164q-18 9 -18 102v875z" />
    <glyph glyph-name="f_f_l" unicode="ffl" horiz-adv-x="2471" 
d="M504 977v-977h-166v977h-291v145h291v178q0 347 410 347q94 0 290 -25v-147q-147 26 -243 24q-161 -1 -227 -55t-66 -152v-170h712v170q0 78 21 140t67.5 111.5t128 76.5t193.5 27q103 0 299 -25v-147q-149 26 -252 24q-162 -1 -227.5 -54.5t-65.5 -152.5v-170h598v-145
h-596v-977h-166v977h-710zM2269 0h-162q-10 7 -10 68v1437q0 87 -8 127h164q4 -20 4 -114v-1401q0 -107 12 -117z" />
    <glyph glyph-name=".notdef" horiz-adv-x="1024" 
 />
    <glyph glyph-name=".null" horiz-adv-x="0" 
 />
    <glyph glyph-name="nonmarkingreturn" horiz-adv-x="682" 
 />
    <glyph glyph-name="space" unicode=" " horiz-adv-x="724" 
 />
    <glyph glyph-name="space" unicode="&#xa0;" horiz-adv-x="724" 
 />
    <glyph glyph-name="exclam" unicode="!" horiz-adv-x="692" 
d="M451 1608l-25 -1188h-160l-22 1188h207zM449 0h-203v274h203v-274z" />
    <glyph glyph-name="quotedbl" unicode="&#x22;" horiz-adv-x="999" 
d="M834 1608l-13 -762h-155l-13 762h181zM346 1608l-14 -762h-156l-12 762h182z" />
    <glyph glyph-name="numbersign" unicode="#" horiz-adv-x="1390" 
d="M1325 1075l-18 -141h-291l-64 -309h318l-19 -142h-319l-103 -542h-102l100 542h-362l-103 -542h-102l100 542h-299l19 142h303l61 309h-325l16 141h334l94 510h105l-97 -510h367l92 510h105l-97 -510h287zM911 934h-362l-62 -309h363z" />
    <glyph glyph-name="dollar" unicode="$" horiz-adv-x="1789" 
d="M827 6q-133 4 -241.5 22.5t-203.5 56t-162 101.5t-101 152q-17 54 -25 127h164q9 -58 23 -100q50 -115 186.5 -164t359.5 -56v623q-16 3 -47 7t-47 7q-124 20 -216 43t-169.5 56t-125.5 75.5t-74.5 101t-26.5 132.5q0 381 706 397v66h113v-68q150 -4 261 -28.5t185.5 -68
t120 -98.5t74.5 -130q14 -44 25 -125h-162q-8 62 -19 92q-29 67 -82.5 111t-154.5 72t-248 32v-545q9 -1 47 -6t57 -10q347 -54 483 -151.5t136 -295.5q0 -94 -41.5 -168t-109.5 -121t-163.5 -78.5t-195 -45.5t-213.5 -17v-117h-113v119zM827 1446q-290 -4 -418 -67
t-128 -189q0 -42 16.5 -76t51 -61t79 -47.5t109 -37t133 -29t157.5 -24.5v531zM940 143q271 4 413 77.5t142 203.5q0 95 -44 154t-166 102.5t-345 71.5v-609z" />
    <glyph glyph-name="percent" unicode="%" horiz-adv-x="2684" 
d="M2546 375q0 -79 -37 -149t-106.5 -124t-180 -86t-246.5 -32q-137 0 -247.5 33t-179.5 88t-105.5 124.5t-36.5 145.5v76q0 76 38.5 146.5t109 125.5t179.5 88t240 33q138 0 250 -35t180.5 -92t105 -125.5t36.5 -140.5v-76zM1270 1169q0 -75 -38 -144.5t-108 -124.5
t-180 -87.5t-242 -32.5q-136 0 -247 33.5t-180 89t-105.5 124t-36.5 142.5v76q0 166 152 279.5t413 113.5q140 0 252 -33.5t180 -89.5t104 -125t36 -145v-76zM1130 1180v51q0 112 -114 194t-318 82q-210 0 -318 -78.5t-108 -193.5v-53q0 -115 114 -195t314 -80
q113 0 198.5 23.5t134.5 63.5t73 87t24 99zM2404 387v49q0 51 -27 99t-78 88t-135.5 64t-189.5 24q-108 0 -192.5 -23.5t-134 -62.5t-74.5 -86t-25 -99v-53q0 -113 113 -193.5t313 -80.5q115 0 201 23.5t134.5 64t71.5 87t23 99.5zM2021 1591l-1278 -1591h-129l1276 1591
h131z" />
    <glyph glyph-name="ampersand" unicode="&#x26;" horiz-adv-x="2156" 
d="M862 745q211 -161 676 -421q240 163 277 419h170q-41 -305 -310 -507q263 -140 457 -236h-315q-46 20 -139.5 65t-141.5 74q-151 -80 -335.5 -119.5t-371.5 -39.5q-147 0 -256.5 9.5t-203.5 33.5t-153 64t-91.5 102t-32.5 147q0 150 108.5 245t399.5 203q-15 16 -58 61.5
t-59.5 64.5t-47 61.5t-43 74.5t-23.5 79.5t-11 99.5q0 198 140.5 301.5t384.5 103.5q229 0 362 -106.5t133 -276.5q0 -56 -14.5 -106t-37.5 -90t-62 -77.5t-78.5 -66t-97 -59t-107.5 -53t-119 -50.5zM752 850q123 45 202 83t141 84t89.5 99.5t27.5 120.5q0 114 -89.5 177
t-245.5 63q-171 0 -263 -66t-92 -201q0 -161 230 -360zM707 672q-75 -28 -120 -46.5t-103 -45t-91 -49.5t-65 -52.5t-46 -63t-14 -71.5q0 -63 39 -107t115.5 -68.5t174.5 -35t230 -10.5q139 0 290 28t276 80q-517 309 -686 441z" />
    <glyph glyph-name="quotesingle" unicode="'" horiz-adv-x="817" 
d="M504 1608l-17 -770h-161l-15 770h193z" />
    <glyph glyph-name="parenleft" unicode="(" horiz-adv-x="835" 
d="M801 -139h-176q-59 34 -118.5 79.5t-133 125.5t-128.5 172t-92.5 222t-37.5 271q0 124 34 247t88.5 220.5t123 181.5t135.5 140.5t129 87.5h176q-93 -55 -181.5 -145.5t-161 -203.5t-117 -251.5t-44.5 -274.5q0 -128 32.5 -248.5t83.5 -213.5t119.5 -175t134.5 -137.5
t134 -97.5z" />
    <glyph glyph-name="parenright" unicode=")" horiz-adv-x="835" 
d="M743 731q0 -140 -37.5 -269.5t-92 -221t-127.5 -171.5t-132 -126.5t-118 -81.5h-177q68 42 133.5 97.5t134 137.5t119.5 175t84 213.5t33 248.5q0 136 -44.5 274.5t-117 251.5t-161 203.5t-181.5 145.5h177q61 -31 128 -87.5t135.5 -140.5t122 -181.5t87.5 -220.5
t34 -247z" />
    <glyph glyph-name="asterisk" unicode="*" horiz-adv-x="1464" 
d="M772 1229l346 176l45 -139l-360 -152l276 -293l-100 -92l-258 311l-248 -307l-100 92l262 289l-371 152l43 139l359 -176l-11 407h125z" />
    <glyph glyph-name="plus" unicode="+" horiz-adv-x="1519" 
d="M1384 768h-548v-487h-148v487h-553v127h551v487h150v-487h548v-127z" />
    <glyph glyph-name="comma" unicode="," horiz-adv-x="782" 
d="M492 -10l-107 -195l-121 6l92 205l-28 -6h-54v301h218v-311z" />
    <glyph glyph-name="hyphen" unicode="-" horiz-adv-x="1189" 
d="M1153 672h-1114v176h1114v-176z" />
    <glyph glyph-name="hyphen" unicode="&#xad;" horiz-adv-x="1189" 
d="M1153 672h-1114v176h1114v-176z" />
    <glyph glyph-name="period" unicode="." horiz-adv-x="782" 
d="M498 0h-228v301h228v-301z" />
    <glyph glyph-name="slash" unicode="/" horiz-adv-x="774" 
d="M846 1628l-817 -1952h-107l817 1952h107z" />
    <glyph glyph-name="zero" unicode="0" horiz-adv-x="1800" 
d="M901 1630q294 0 483.5 -119t257.5 -325q48 -140 48 -381q0 -237 -50 -379q-73 -220 -261 -333t-478 -113q-297 0 -482.5 114t-258.5 336q-47 137 -47 375q0 235 43 373q63 210 256.5 331t488.5 121zM1511 805q0 229 -41 348q-52 151 -198 236.5t-373 85.5t-372.5 -85
t-200.5 -243q-39 -121 -39 -342q0 -91 11.5 -187.5t31.5 -154.5q120 -328 571 -328q453 0 572 328q38 110 38 342z" />
    <glyph glyph-name="one" unicode="1" horiz-adv-x="1220" 
d="M868 0h-170v1405l-551 -107v152q221 42 328 63.5t168 41t72 30.5t20 35h133v-1620z" />
    <glyph glyph-name="two" unicode="2" horiz-adv-x="1687" 
d="M1630 0h-1501v174q189 85 323 148.5t270.5 134.5t227 129t172.5 124t128.5 128.5t73 132.5t26.5 145q0 59 -15.5 109.5t-53 97t-94.5 79t-144.5 52t-198.5 19.5q-251 0 -381 -92.5t-141 -268.5h-177q46 518 711 518q155 0 274 -27.5t194 -73t123 -110.5t66.5 -134.5
t18.5 -151.5q0 -93 -31.5 -181t-85.5 -163.5t-136.5 -149t-173.5 -135t-208 -124t-228.5 -113t-246.5 -105.5h1208v-162z" />
    <glyph glyph-name="three" unicode="3" horiz-adv-x="1761" 
d="M1241 854q418 -37 418 -377q0 -114 -39.5 -201.5t-107.5 -143.5t-168.5 -91.5t-212 -49.5t-248.5 -14q-177 0 -312 27.5t-219.5 73.5t-137.5 114t-74 141t-21 161h174q0 -87 30.5 -152t98 -114t183.5 -74t278 -25q134 0 238 17t171 47t110 73.5t61 93t18 109.5
q0 69 -23.5 120.5t-77.5 91t-148 59.5t-228 20h-467v143h458q211 0 303.5 71.5t92.5 205.5q0 53 -12.5 95t-46 81.5t-88.5 65.5t-145 41.5t-210 15.5q-124 0 -218 -18t-152 -49t-94 -77t-49.5 -96t-13.5 -113h-167q0 247 167.5 375.5t536.5 128.5q182 0 314 -30t207.5 -86
t110 -126.5t34.5 -160.5q0 -145 -83 -248.5t-241 -124.5z" />
    <glyph glyph-name="four" unicode="4" horiz-adv-x="1685" 
d="M1669 401h-344v-401h-168v401h-1102v183l1086 1044h184v-1069h344v-158zM1157 559v873l-926 -873h926z" />
    <glyph glyph-name="five" unicode="5" horiz-adv-x="1775" 
d="M1669 453q-19 -218 -216.5 -345.5t-518.5 -127.5q-337 0 -529.5 101.5t-254.5 307.5q-14 49 -21 117h172q7 -47 18 -86q52 -147 199 -217t397 -70q163 0 287 37.5t199 115.5t82 189q9 84 0 152q-22 168 -157.5 254t-403.5 86q-402 0 -541 -228h-184v867h1362v-162h-1205
v-570q70 122 237 184t382 62q324 0 498 -126t198 -353q8 -74 0 -188z" />
    <glyph glyph-name="six" unicode="6" horiz-adv-x="1742" 
d="M909 -23q-147 0 -267 28.5t-219 91t-166.5 158.5t-104.5 235.5t-37 316.5q0 403 187.5 613t584.5 210q153 0 273.5 -25t195.5 -64.5t125.5 -94t71.5 -107t26 -110.5h-164q-5 51 -36.5 94t-92.5 78t-163.5 54.5t-237.5 19.5q-626 0 -598 -635q80 91 260 156t426 65
q338 0 508 -133.5t170 -386.5q0 -272 -191.5 -418t-550.5 -146zM1477 535q0 190 -124.5 285t-414.5 95q-142 0 -265 -27t-199 -67t-121 -75t-62 -62q9 -156 52 -263.5t124 -171t189 -91t257 -27.5q564 0 564 404z" />
    <glyph glyph-name="seven" unicode="7" horiz-adv-x="1452" 
d="M1436 1446l-967 -1446h-201l985 1446h-1241v162h1424v-162z" />
    <glyph glyph-name="eight" unicode="8" horiz-adv-x="1746" 
d="M872 -20q-381 0 -579.5 122.5t-198.5 370.5q-4 93 32.5 171.5t102 131.5t150 85t178.5 40q-157 17 -246.5 108t-89.5 230q0 86 34 155t108 124t203 84.5t306 29.5q172 0 301 -31t205 -86t113 -125t37 -155q0 -276 -330 -332q100 -10 180.5 -40.5t142 -81.5t95 -129
t33.5 -177q0 -257 -184.5 -376t-592.5 -119zM1368 1208q0 138 -117.5 206.5t-378.5 68.5q-497 0 -497 -271q0 -42 11.5 -75t44.5 -65t87 -53.5t143.5 -34.5t210.5 -13q120 0 209 12.5t143 33.5t87 52.5t45 64t12 74.5zM1491 479q0 69 -17 121t-59 95.5t-112 70.5t-177.5 42
t-253.5 15q-332 0 -476 -86t-144 -262q0 -174 160.5 -260t459.5 -86q171 0 291.5 23t192 69t103.5 109t32 149z" />
    <glyph glyph-name="nine" unicode="9" horiz-adv-x="1738" 
d="M842 -20q-173 0 -304 29t-214 83t-128 125.5t-57 163.5h168q10 -55 45.5 -98.5t99.5 -77t164.5 -52t231.5 -18.5q88 0 162 12t143.5 39.5t121.5 76t92 117t60.5 167t20.5 221.5q-89 -93 -264 -158t-418 -65q-314 0 -491 132t-177 396q0 266 191 412.5t547 146.5
q145 0 263 -27t217 -88t165.5 -156t103.5 -235.5t37 -322.5q0 -823 -780 -823zM1446 926q-2 120 -33.5 215t-86 158t-131.5 104.5t-165 59.5t-192 18q-288 0 -430 -109.5t-142 -296.5q0 -186 134.5 -285.5t410.5 -99.5q113 0 215.5 19.5t171 47t124 62t84 61t40.5 46.5z" />
    <glyph glyph-name="colon" unicode=":" horiz-adv-x="786" 
d="M500 887h-207v270h207v-270zM500 0h-207v272h207v-272z" />
    <glyph glyph-name="semicolon" unicode=";" horiz-adv-x="786" 
d="M500 887h-207v270h207v-270zM502 -10l-131 -199l-88 55l86 160l-33 -6h-45v279h211v-289z" />
    <glyph glyph-name="less" unicode="&#x3c;" horiz-adv-x="1568" 
d="M1407 106l-1262 523v139l1262 520v-147l-1102 -443l1102 -444v-148z" />
    <glyph glyph-name="equal" unicode="=" horiz-adv-x="1531" 
d="M1427 928h-1323v123h1323v-123zM1427 604h-1323v125h1323v-125z" />
    <glyph glyph-name="greater" unicode="&#x3e;" horiz-adv-x="1568" 
d="M1411 629l-1259 -520v143l1103 446l-1103 445v145l1259 -520v-139z" />
    <glyph glyph-name="question" unicode="?" horiz-adv-x="1527" 
d="M760 420h-162q3 92 29 164.5t68 119.5t95 83.5t111 61t116 47t110 47t92.5 54.5t64 76.5t23.5 106.5q0 101 -49 164.5t-169.5 98t-322.5 34.5q-127 0 -222.5 -17t-156.5 -46t-98.5 -73.5t-52.5 -94.5t-15 -113h-172q3 85 22.5 153.5t69.5 135t128 111t205.5 72
t295.5 27.5q361 0 537 -105.5t176 -336.5q0 -83 -24 -147.5t-64.5 -105t-93.5 -72t-112 -54.5t-118 -45t-113.5 -51t-97 -66t-69.5 -95t-31 -134zM778 0h-200v274h200v-274z" />
    <glyph glyph-name="at" unicode="@" horiz-adv-x="2293" 
d="M2181 752q-13 -283 -151 -441.5t-355 -158.5q-122 0 -180.5 60.5t-52.5 162.5q-115 -219 -436 -219q-79 0 -147 21t-125.5 65.5t-90.5 123t-33 183.5q0 274 163 447t425 173q128 0 219 -50t113 -124l43 131h139q-86 -333 -129 -522q-44 -183 -10.5 -267.5t145.5 -84.5
q157 0 257 137.5t112 368.5q6 128 -22 241.5t-94.5 210t-167 165.5t-247 108t-327.5 39q-234 0 -426 -68.5t-319.5 -188t-197.5 -280t-73 -346.5q-3 -151 30.5 -281t96.5 -225t147 -168t184.5 -117.5t206.5 -67t216 -22.5q272 0 474 74t328 193l54 -72q-155 -137 -352 -206
t-506 -69q-162 0 -308 38t-269 116.5t-212.5 190.5t-138.5 268.5t-45 341.5q3 216 83.5 397t223.5 308.5t351 198.5t458 71q195 0 356 -45t273 -124t187 -187t106.5 -234t23.5 -266zM1489 813q19 85 -55 158t-224 73q-92 0 -176 -34t-147.5 -95.5t-101 -153.5t-37.5 -200
q0 -146 79.5 -216.5t216.5 -70.5q87 0 156 23t114.5 63.5t74 88t43.5 104.5q45 205 57 260z" />
    <glyph glyph-name="A" unicode="A" horiz-adv-x="1873" 
d="M426 432l-225 -432h-191l836 1608h203l815 -1608h-191l-219 432h-1028zM1374 590l-360 719l-68 149l-69 -149l-369 -719h866z" />
    <glyph glyph-name="B" unicode="B" horiz-adv-x="2011" 
d="M1792 156q-121 -156 -436 -156h-1092v1608h1002q238 0 366 -121q103 -97 103 -281q0 -77 -23.5 -150t-64.5 -124q-60 -74 -142 -88q168 -14 279 -125q46 -48 70 -121.5t24 -155.5q0 -179 -86 -286zM1552 1176q0 126 -75 198q-78 78 -234 78h-809v-559h869q118 0 182 76
q67 77 67 207zM1642 264q56 64 56 191t-72 194q-88 88 -270 88h-922v-579h914q208 0 294 106z" />
    <glyph glyph-name="C" unicode="C" horiz-adv-x="2015" 
d="M1915 578q-21 -175 -127 -322q-97 -130 -278 -204.5t-453 -74.5q-290 0 -489 80.5t-302 231.5q-145 188 -145 520q0 317 121 487q219 338 792 338q531 0 762 -307q100 -125 117 -303h-182q-18 141 -111 238q-180 202 -590 202q-474 0 -639 -266q-90 -129 -90 -391
q0 -272 113 -410q88 -131 257.5 -193.5t366.5 -62.5q420 0 592 205q41 45 68 107.5t33 124.5h184z" />
    <glyph glyph-name="D" unicode="D" horiz-adv-x="1990" 
d="M1776 297q-157 -297 -639 -297h-873v1608h860q488 0 645 -281q54 -82 77.5 -203.5t23.5 -304.5q0 -191 -21.5 -314.5t-72.5 -207.5zM1622 381q42 63 58 166t16 266q0 312 -78 420q-64 109 -186.5 162t-319.5 53h-678v-1286h662q209 0 335.5 54t190.5 165z" />
    <glyph glyph-name="E" unicode="E" horiz-adv-x="1863" 
d="M1708 0h-1444v1608h1430v-164h-1260v-549h1225v-162h-1225v-569h1274v-164z" />
    <glyph glyph-name="F" unicode="F" horiz-adv-x="1755" 
d="M1634 1442h-1198v-549h1147v-166h-1147v-727h-172v1608h1370v-166z" />
    <glyph glyph-name="G" unicode="G" horiz-adv-x="2035" 
d="M1845 0h-151l-8 256q-211 -279 -699 -279q-227 0 -411 63t-293 196q-162 185 -162 569q0 362 155 549q216 278 742 278q275 0 456.5 -83.5t270.5 -225.5q79 -118 92 -264h-174q-13 120 -86 205q-73 93 -211 149.5t-338 56.5q-435 0 -604 -206q-125 -148 -125 -461
q0 -314 131 -463q84 -101 232 -153t346 -52q444 0 620 275q51 82 51 295h-772v163h938v-868z" />
    <glyph glyph-name="H" unicode="H" horiz-adv-x="2060" 
d="M1798 0h-172v731h-1190v-731h-172v1608h172v-711h1190v711h172v-1608z" />
    <glyph glyph-name="I" unicode="I" horiz-adv-x="702" 
d="M440 0h-176v1608h176v-1608z" />
    <glyph glyph-name="J" unicode="J" horiz-adv-x="1361" 
d="M1122 526q0 -181 -81 -305t-219.5 -181.5t-325.5 -57.5q-275 0 -463 36v164q68 -13 191.5 -24t240.5 -11q257 0 370 103t113 317v1041h174v-1082z" />
    <glyph glyph-name="K" unicode="K" horiz-adv-x="1832" 
d="M1774 0h-236l-858 793l-244 -177v-616h-172v1608h172v-811l1092 811h233l-946 -713z" />
    <glyph glyph-name="L" unicode="L" horiz-adv-x="1646" 
d="M1581 0h-1317v1608h174v-1442h1143v-166z" />
    <glyph glyph-name="M" unicode="M" horiz-adv-x="2424" 
d="M2165 0h-166v1384l-694 -1384h-195l-680 1384v-1384h-166v1608h238l708 -1438l719 1438h236v-1608z" />
    <glyph glyph-name="N" unicode="N" horiz-adv-x="2041" 
d="M1784 0h-199l-1153 1382v-1382h-168v1608h205l1151 -1383v1383h164v-1608z" />
    <glyph glyph-name="O" unicode="O" horiz-adv-x="2060" 
d="M1032 1634q465 0 699 -225q211 -199 211 -600q0 -399 -216 -606q-223 -226 -696 -226q-438 0 -668 213q-241 206 -241 619q0 393 213 592q236 233 698 233zM1032 139q365 0 555 172q178 160 178 496q0 338 -170 489q-199 174 -565 174q-368 0 -559 -172
q-174 -155 -174 -493q0 -340 211 -514q193 -152 524 -152z" />
    <glyph glyph-name="P" unicode="P" horiz-adv-x="1904" 
d="M1776 1081q0 -225 -66 -329q-123 -190 -504 -193h-770v-559h-172v1608h950q388 0 498 -203q64 -109 64 -324zM1599 1081q0 152 -32 215q-71 152 -373 152h-758v-725h754q295 0 375 143q34 59 34 215z" />
    <glyph glyph-name="Q" unicode="Q" horiz-adv-x="2060" 
d="M1231 4q67 -59 170 -108q135 -64 241 -70l-77 -141q-68 6 -151 34t-157 70q-69 36 -137 92t-106 99q-6 0 -29.5 1t-30.5 1q-168 3 -325 56.5t-267 154.5q-121 106 -181 256t-60 360q0 387 215 592q233 233 696 233q466 0 697 -225q213 -195 213 -600q0 -194 -57.5 -352.5
t-160.5 -251.5q-93 -83 -224 -137t-269 -64zM1032 133q363 0 555 174q180 162 180 500q0 326 -172 487q-195 176 -565 176q-364 0 -549 -165q-184 -161 -184 -502q0 -342 207 -510q202 -160 528 -160z" />
    <glyph glyph-name="R" unicode="R" horiz-adv-x="1986" 
d="M1741 1165q0 -158 -49 -243q-40 -73 -114 -120t-163 -54l488 -748h-209l-461 719h-797v-719h-172v1608h989q324 0 433 -199q55 -94 55 -244zM1565 1151q0 109 -31 166q-69 129 -305 129h-793v-569h842q201 3 256 116q31 64 31 158z" />
    <glyph glyph-name="S" unicode="S" horiz-adv-x="1972" 
d="M1810 449q0 -110 -44.5 -195.5t-137 -148t-244.5 -95.5t-358 -33q-416 0 -635.5 131t-236.5 379h184q10 -178 188 -264t502 -86q165 0 282.5 20.5t186.5 60.5t100 92.5t31 121.5q0 97 -55.5 155.5t-192.5 98t-393 68.5q-287 35 -404 63q-269 65 -352 207q-43 73 -43 170
q0 92 41.5 168.5t129 137.5t238.5 95.5t355 34.5q161 0 293 -26t222.5 -69.5t156.5 -104.5t102 -128t52 -143h-189q-18 73 -62.5 129t-120.5 97.5t-192 63t-270 21.5q-296 0 -435.5 -70.5t-139.5 -195.5q0 -35 11.5 -65t28.5 -53t49.5 -43t61 -33.5t77.5 -26t85 -20.5
t97.5 -16.5t100.5 -13t107 -11.5q25 -3 37 -4q131 -14 228 -30.5t191 -41.5t157.5 -59t113 -81t73 -111.5t23.5 -145.5z" />
    <glyph glyph-name="T" unicode="T" horiz-adv-x="1669" 
d="M1661 1444h-737v-1444h-176v1444h-738v164h1651v-164z" />
    <glyph glyph-name="U" unicode="U" horiz-adv-x="2027" 
d="M1792 553q0 -185 -95.5 -315.5t-268 -195.5t-408.5 -65q-141 0 -260 22t-216.5 68t-165.5 115t-105 166.5t-37 218.5v1041h172v-1055q0 -196 157 -306t461 -110q171 0 304 47t211.5 141.5t78.5 225.5v1057h172v-1055z" />
    <glyph glyph-name="V" unicode="V" horiz-adv-x="1878" 
d="M1876 1608l-825 -1608h-222l-825 1608h191l749 -1446l754 1446h178z" />
    <glyph glyph-name="W" unicode="W" horiz-adv-x="2543" 
d="M2535 1608l-591 -1608h-228l-442 1411l-449 -1411h-227l-596 1608h191l522 -1442l450 1442h217l451 -1442l524 1442h178z" />
    <glyph glyph-name="X" unicode="X" horiz-adv-x="1734" 
d="M874 700l-661 -700h-211l772 819l-717 789h222l602 -660l620 660h211l-731 -779l750 -829h-222z" />
    <glyph glyph-name="Y" unicode="Y" horiz-adv-x="1910" 
d="M1903 1608l-873 -1076v-532h-176v530l-846 1078h197l739 -930l766 930h193z" />
    <glyph glyph-name="Z" unicode="Z" horiz-adv-x="1687" 
d="M1616 0h-1512v170l1239 1276h-1183v162h1409v-164l-1250 -1282h1297v-162z" />
    <glyph glyph-name="bracketleft" unicode="[" horiz-adv-x="1095" 
d="M950 -369h-686v1977h686v-144h-530v-1689h530v-144z" />
    <glyph glyph-name="backslash" unicode="\" horiz-adv-x="774" 
d="M-74 1628h109l815 -1952h-107z" />
    <glyph glyph-name="bracketright" unicode="]" horiz-adv-x="1107" 
d="M156 -369v144h526v1691h-526v142h684v-1977h-684z" />
    <glyph glyph-name="asciicircum" unicode="^" horiz-adv-x="1486" 
d="M762 1483l-557 -426l-105 117l574 454h176l571 -454l-104 -117z" />
    <glyph glyph-name="underscore" unicode="_" horiz-adv-x="1134" 
d="M1133 -385h-1133v149h1133v-149z" />
    <glyph glyph-name="grave" unicode="`" horiz-adv-x="1030" 
d="M694 1241h-164l-282 295h184z" />
    <glyph glyph-name="a" unicode="a" 
d="M1485 0h-156q-1 0 -6.5 31t-10.5 73t-3 66q-140 -188 -613 -188q-288 0 -429.5 82.5t-141.5 252.5q0 85 36 148.5t117.5 111.5t223 73t342.5 26q177 3 467 -23q0 142 -42.5 218.5t-146 110.5t-295.5 34q-242 0 -352.5 -61.5t-122.5 -184.5h-162q29 199 186.5 292
t454.5 93t447.5 -86t171.5 -258q12 -99 8 -248q0 -24 -1 -148t-1 -165q0 -70 9 -146.5t20 -103.5zM1309 537q-288 20 -437 18q-305 -1 -443 -57t-138 -170q0 -215 436 -215q112 0 194.5 9.5t159 36.5t124 73t76 122.5t28.5 182.5z" />
    <glyph glyph-name="b" unicode="b" horiz-adv-x="1769" 
d="M958 1155q431 0 590 -227q103 -135 103 -357q0 -218 -107 -364q-76 -110 -225.5 -166.5t-357.5 -56.5q-207 0 -364 53.5t-228 169.5l-4 -207h-156v1628h160v-723q49 109 196 179.5t393 70.5zM918 1008q-122 0 -218 -22.5t-157.5 -62.5t-98.5 -87.5t-55 -104.5
q-24 -86 -24 -184q0 -104 30 -176q47 -110 175.5 -178t344.5 -68q366 0 494 170q78 105 78 272q0 168 -72 264q-126 177 -497 177z" />
    <glyph glyph-name="c" unicode="c" horiz-adv-x="1683" 
d="M1563 721h-162q-6 76 -58 131q-63 71 -184.5 112.5t-296.5 41.5q-373 0 -514 -172q-80 -92 -80 -273q0 -178 86 -278q127 -160 510 -160q341 0 465 121q55 55 74 141h166q-20 -140 -107 -229q-171 -179 -604 -179q-464 0 -639 211q-117 135 -117 379q0 228 111 363
q91 110 255 167.5t390 57.5q245 0 403.5 -61t231.5 -166q59 -82 70 -207z" />
    <glyph glyph-name="d" unicode="d" horiz-adv-x="1748" 
d="M807 1151q209 0 361.5 -56t217.5 -173v692h160v-1503l8 -111h-155l-13 217q-60 -113 -212 -176.5t-369 -63.5q-420 0 -588 211q-113 140 -113 373q0 224 119 375q165 215 584 215zM829 1001q-336 0 -469 -161q-92 -109 -92 -277q0 -182 84 -282q133 -160 477 -160
q392 0 502 192q58 94 58 246q0 175 -64 264q-62 89 -190.5 133.5t-305.5 44.5z" />
    <glyph glyph-name="e" unicode="e" 
d="M1573 344q-14 -57 -45 -108t-88 -99.5t-135 -83t-192.5 -55.5t-254.5 -21q-754 0 -754 598q0 280 196 430t548 150q384 0 570 -174t167 -475h-1319q4 -186 161 -288.5t435 -102.5q110 0 201 16t148.5 40t100 56t62.5 60.5t29 56.5h170zM1417 637q0 174 -141 275.5
t-430 101.5q-279 0 -428.5 -101.5t-149.5 -275.5h1149z" />
    <glyph glyph-name="f" unicode="f" horiz-adv-x="1087" 
d="M1049 977h-537v-977h-166v977h-299v145h299v166q0 168 104.5 262.5t317.5 94.5q152 0 287 -23v-149q-135 24 -260 24q-153 -1 -219 -57.5t-66 -161.5v-156h539v-145z" />
    <glyph glyph-name="g" unicode="g" horiz-adv-x="1550" 
d="M756 1163q301 0 477 -106q48 40 156 59t202 19v-138q-236 0 -278 -30q44 -46 67 -100.5t23 -137.5q0 -397 -631 -397q-127 0 -246 21.5t-166 47.5q-75 -13 -75 -73q0 -32 34.5 -49.5t152.5 -29.5t347 -16q295 -5 453.5 -36t216 -88t57.5 -160q0 -164 -183.5 -242
t-578.5 -78q-198 0 -339.5 20t-224 58.5t-120 89.5t-37.5 119q0 92 60.5 152t148.5 79q-137 27 -137 160q0 55 40 96t93 56q-63 36 -102 109.5t-39 176.5q0 195 166.5 306.5t462.5 111.5zM760 1028q-238 0 -356.5 -83t-118.5 -210q0 -280 473 -280q181 0 289 34t151 95
t43 157q0 287 -481 287zM776 -240q229 0 368 22.5t193 61t54 97.5q0 36 -16 59.5t-51.5 40.5t-105 27t-162 15.5t-237.5 8.5q-285 6 -409 19q-81 -17 -139 -60t-58 -106q0 -185 563 -185z" />
    <glyph glyph-name="h" unicode="h" horiz-adv-x="1667" 
d="M1485 705q0 -508 1 -604.5t7 -100.5h-160q-9 9 -10.5 98t-1.5 568q0 83 -22 143t-73 105t-138.5 67.5t-213.5 22.5q-141 0 -253 -40t-181 -122t-69 -195v-647h-162v1628h158v-727q50 120 201.5 186t365.5 66q275 0 413 -116t138 -332z" />
    <glyph glyph-name="i" unicode="i" horiz-adv-x="604" 
d="M391 1300h-178v254h178v-254zM399 0h-163q-17 10 -17 94v1032h164v-1030q0 -85 16 -96z" />
    <glyph glyph-name="j" unicode="j" horiz-adv-x="622" 
d="M420 1300h-180v254h180v-254zM412 39q0 -418 -363 -418q-36 0 -90 5.5t-76 11.5v141q87 -12 123 -12q130 0 187 61.5t57 198.5v1099h162v-1087z" />
    <glyph glyph-name="k" unicode="k" horiz-adv-x="1536" 
d="M1526 0h-199l-526 627l-430 -303v-324h-162v1628h162v-1134l870 632h221l-540 -401z" />
    <glyph glyph-name="l" unicode="l" horiz-adv-x="587" 
d="M385 0h-162q-10 7 -10 68v1437q0 97 -6 127h162q6 -20 6 -114v-1401q0 -109 10 -117z" />
    <glyph glyph-name="m" unicode="m" horiz-adv-x="2508" 
d="M2171 0q-9 0 -10.5 87t-1.5 575q0 58 -10 105t-37 91t-70 74t-113 47.5t-162 17.5q-90 0 -164 -17.5t-134.5 -55t-94 -103t-33.5 -153.5v-668h-153v690q0 146 -103.5 226.5t-285.5 80.5q-188 0 -308 -99t-120 -232v-666h-162v1126h156v-231q45 122 181 189t304 67
q110 0 201 -26t159.5 -85.5t94.5 -146.5q27 69 77.5 120t118 80.5t143 43.5t162.5 14q134 0 232.5 -33t155.5 -93.5t83.5 -137.5t26.5 -174q0 -267 0.5 -402.5t2 -208.5t3.5 -85.5t6 -16.5h-145z" />
    <glyph glyph-name="n" unicode="n" horiz-adv-x="1667" 
d="M1493 0h-156q-6 0 -8.5 15.5t-4.5 90t-2.5 195.5t-0.5 363q0 174 -104 257t-338 83q-102 0 -192 -22t-161.5 -64t-113 -111t-41.5 -156v-651h-162v1126h156v-231q30 71 90 123t139 80.5t163 41.5t177 13q280 0 415.5 -119.5t135.5 -337.5q0 -672 8 -696z" />
    <glyph glyph-name="o" unicode="o" horiz-adv-x="1736" 
d="M1634 567q0 -242 -159 -395q-195 -195 -607 -195q-420 0 -610 193q-156 146 -156 397q0 240 160 387q198 201 606 201q404 0 607 -186q159 -155 159 -402zM1470 567q0 192 -127 305q-153 134 -477 134q-314 0 -473 -146q-127 -107 -127 -293q0 -198 125 -311
q146 -131 477 -131q326 0 473 135q129 116 129 307z" />
    <glyph glyph-name="p" unicode="p" horiz-adv-x="1748" 
d="M1655 569q0 -262 -152 -405q-177 -180 -540 -180q-211 0 -370.5 53t-221.5 166v-572h-162v1493h156l2 -225q52 114 209 183t374 69q391 0 561 -186q144 -141 144 -396zM1487 567q0 199 -115 305q-144 132 -459 132q-303 0 -442 -142q-55 -55 -79.5 -128.5t-24.5 -178.5
q0 -180 98 -283q133 -145 459 -145q307 0 448 135q115 106 115 305z" />
    <glyph glyph-name="q" unicode="q" horiz-adv-x="1742" 
d="M1550 -369h-153l-11 15v567q-67 -119 -217.5 -177.5t-363.5 -58.5q-418 0 -580 207q-121 143 -121 371q0 231 127 387q75 98 221.5 154.5t338.5 56.5q471 0 604 -238l-2 211h149v-1359q0 -96 8 -136zM1389 565q0 179 -68 264q-63 85 -188.5 131t-301.5 46
q-158 0 -284.5 -44.5t-186.5 -119.5q-92 -109 -92 -283q0 -173 88 -278q126 -160 488 -160q361 0 485 188q60 83 60 256z" />
    <glyph glyph-name="r" unicode="r" horiz-adv-x="1212" 
d="M1180 1120v-172q-157 41 -314 41q-131 0 -242.5 -52.5t-182 -158.5t-70.5 -246v-532h-162v1126h160v-288q37 131 179 218.5t329 90.5q158 4 303 -27z" />
    <glyph glyph-name="s" unicode="s" horiz-adv-x="1605" 
d="M1479 319q0 -169 -156.5 -255.5t-495.5 -86.5q-257 0 -405.5 36.5t-214 111.5t-74.5 205h160q3 -80 52 -125t164 -66.5t320 -21.5q113 0 198.5 9.5t140 26t88.5 42t47.5 54t13.5 64.5q0 60 -39.5 100.5t-106.5 60t-154 30t-182.5 16.5t-191.5 14t-183 27t-154 51
t-106.5 91.5t-39.5 142.5q0 148 152 229.5t454 81.5q322 0 482 -83t175 -267h-161q-3 48 -25 82.5t-73.5 64.5t-149.5 45t-242 15q-134 0 -225.5 -12.5t-139 -37t-66.5 -53.5t-19 -69q0 -68 64 -106.5t166 -52t225 -20t246.5 -21t225.5 -44.5t166 -100t64 -179z" />
    <glyph glyph-name="t" unicode="t" horiz-adv-x="997" 
d="M940 977h-502v-623q0 -132 58 -180.5t196 -48.5q48 0 124.5 6.5t109.5 13.5v-137q-86 -28 -281 -28q-186 0 -278.5 74.5t-92.5 254.5v668h-284v145h282q3 16 5 85t3 129l1 61l155 2v-277h504v-145z" />
    <glyph glyph-name="u" unicode="u" horiz-adv-x="1667" 
d="M1479 0q-6 30 -6 229v897h-164v-680q0 -142 -140 -231.5t-372 -89.5q-210 0 -324.5 76t-114.5 248q0 677 -6 677q2 -1 -40 -1t-85 1h-43q11 -11 11 -747q0 -199 138.5 -300.5t407.5 -101.5q429 0 572 222l6 -199h160z" />
    <glyph glyph-name="v" unicode="v" horiz-adv-x="1560" 
d="M1548 1126l-665 -1126h-203l-666 1126h179l591 -987l592 987h172z" />
    <glyph glyph-name="w" unicode="w" horiz-adv-x="2437" 
d="M2419 1126l-557 -1126h-193l-430 942l-18 55l-19 -55l-426 -942h-196l-549 1126h172l479 -987l446 987h191l457 -987l477 987h166z" />
    <glyph glyph-name="x" unicode="x" horiz-adv-x="1503" 
d="M764 668l520 458h199l-619 -548l625 -578h-207l-524 481l-545 -481h-199l645 571l-602 555h209z" />
    <glyph glyph-name="y" unicode="y" horiz-adv-x="1593" 
d="M1565 1126l-903 -1495h-181l232 371l-682 1124h178l594 -972l592 972h170z" />
    <glyph glyph-name="z" unicode="z" horiz-adv-x="1394" 
d="M1327 0h-1235v139l959 836h-945v147h1176v-143l-960 -834h1005v-145z" />
    <glyph glyph-name="braceleft" unicode="{" horiz-adv-x="1167" 
d="M1040 -334h-200q-99 0 -174 25t-118.5 68.5t-65 97.5t-21.5 118q0 59 10 208.5t10 205.5q0 131 -79 196.5t-244 65.5v144q165 0 244 61.5t79 190.5q0 48 -10 122.5t-10 133.5q0 131 96 218t281 87h202v-148q-82 10 -145 7t-109 -9.5t-78 -24.5t-51.5 -36.5t-30 -47
t-13.5 -56t-1 -62.5q1 -20 8 -99.5t7 -119.5q0 -116 -63.5 -193.5t-184.5 -87.5q123 -9 185.5 -86t62.5 -201q0 -54 -8 -205.5t-9 -191.5q-1 -31 1 -55t8.5 -50.5t20 -45t35 -36.5t54.5 -28.5t76.5 -17t102.5 -6t132 7.5v-150z" />
    <glyph glyph-name="bar" unicode="|" horiz-adv-x="774" 
d="M457 -410h-138v2048h138v-2048z" />
    <glyph glyph-name="braceright" unicode="}" horiz-adv-x="1167" 
d="M127 -334v150q81 -10 144 -6.5t109 10t78 24.5t52 37.5t31 48t14 55.5t2 62q-1 39 -8.5 191t-7.5 206q0 124 62 201t185 86q-121 10 -184 87.5t-63 193.5q0 39 7.5 119t8.5 100q1 39 -5 70.5t-23.5 62.5t-48 50.5t-78.5 35t-116 16.5t-159 -6v148h203q186 0 282.5 -87
t96.5 -218q0 -59 -10.5 -133.5t-10.5 -122.5q0 -129 79 -190.5t245 -61.5v-144q-166 0 -245 -65t-79 -197q0 -56 9.5 -205.5t9.5 -208.5q0 -64 -21.5 -118t-65 -97.5t-118.5 -68.5t-174 -25h-201z" />
    <glyph glyph-name="asciitilde" unicode="~" horiz-adv-x="1501" 
d="M711 659q-16 22 -47 69t-47 70.5t-44.5 57.5t-51 51t-54 30t-64.5 13q-45 0 -81.5 -16t-61 -40t-42.5 -62.5t-27.5 -74.5t-15.5 -85t-8 -84t-3 -82l-144 2q3 610 373 610q52 0 99 -17t81.5 -41t72.5 -67.5t62.5 -78t61.5 -91.5q83 -122 111 -156q94 -109 200 -110
q113 0 180.5 104t67.5 295l135 -4q0 -121 -22.5 -220.5t-67.5 -174.5t-117.5 -116.5t-166.5 -41.5q-52 0 -98.5 14t-83 36t-73 57.5t-64 70t-60.5 82.5z" />
    <glyph glyph-name="exclamdown" unicode="&#xa1;" horiz-adv-x="692" 
d="M244 1628h202v-274h-202v274zM242 -8l22 1216h162l20 -1216h-204z" />
    <glyph glyph-name="cent" unicode="&#xa2;" horiz-adv-x="1607" 
d="M799 1391v133h112v-133q230 -7 382.5 -74t222.5 -184q20 -34 35 -85.5t18 -89.5h-156q-8 63 -39 111q-101 163 -463 176v-885q329 9 445 140q45 55 59 125h156q-5 -42 -26.5 -96.5t-53.5 -94.5q-160 -198 -580 -213v-168h-112v168q-464 18 -617 260q-80 127 -80 324
q0 204 88 332q159 239 609 254zM799 1243q-353 -16 -461 -172q-72 -112 -72 -268q0 -71 17 -139t43 -109q62 -95 179 -140t294 -53v881z" />
    <glyph glyph-name="sterling" unicode="&#xa3;" horiz-adv-x="1792" 
d="M365 756q-8 16 -33 61.5t-34.5 64t-27 60t-25 71.5t-14 73.5t-6.5 89.5q0 77 22 143.5t72 124.5t126.5 98.5t190.5 64t259 23.5q191 0 326 -34t218.5 -103.5t121.5 -169t38 -236.5h-180q0 99 -22 167t-78 120t-158.5 76.5t-257.5 24.5q-132 0 -227.5 -23.5t-150 -66
t-80 -95.5t-25.5 -119q0 -41 6.5 -82.5t13.5 -70.5t24.5 -71.5t26.5 -62t33 -66.5t31 -62h772v-123h-727q132 -370 -231 -479h1273v-154h-1480v166q403 127 254 467h-205v123h154z" />
    <glyph glyph-name="currency" unicode="&#xa4;" horiz-adv-x="1953" 
d="M281 862h-226v109h232q10 120 37 207q63 210 256.5 331t488.5 121q294 0 483.5 -119t257.5 -325q21 -64 33 -144h-180q-8 59 -25 111q-52 151 -198 236.5t-373 85.5t-372.5 -85t-200.5 -243q-22 -69 -31 -176h1010v-109h-1018v-104h1018v-111h-1010q12 -111 35 -184
q120 -328 571 -328q452 0 571 328q12 37 21 90h178q-12 -73 -31 -127q-73 -220 -261 -333t-478 -113q-297 0 -482.5 114t-258.5 336q-27 77 -41 217h-232v111h226v104z" />
    <glyph glyph-name="yen" unicode="&#xa5;" horiz-adv-x="1923" 
d="M862 369h-717v108h717v60l-854 1071h199l741 -928l770 928h197l-881 -1065v-66h707v-108h-707v-105h707v-110h-707v-154h-172v154h-717v110h717v105z" />
    <glyph glyph-name="brokenbar" unicode="&#xa6;" horiz-adv-x="774" 
d="M455 735h-138v903h138v-903zM455 -410h-138v893h138v-893z" />
    <glyph glyph-name="section" unicode="&#xa7;" horiz-adv-x="1427" 
d="M258 1096q-141 53 -147 209v47q4 92 61 151.5t186.5 92t335.5 32.5q291 0 419 -71t153 -248q4 -32 4 -72h-152q0 38 -8 78q-21 114 -103 148t-309 34q-242 0 -340 -30.5t-102 -112.5v-37q4 -77 77 -114q49 -24 208 -57q53 -11 77 -16q52 -12 224 -55.5t227 -60.5
q205 -54 205 -221q0 -59 -38 -110.5t-101 -68.5q105 -32 167 -97.5t68 -162.5q0 -5 1 -26.5t1 -26.5q-2 -58 -23 -106t-67.5 -89t-118 -69t-179 -44t-245.5 -16q-322 0 -473 78.5t-182 263.5q-1 8 -2 36t-2 36h147q0 -48 6 -78q23 -119 141.5 -170t368.5 -51q129 0 221 15
t143 43.5t74.5 63t26.5 79.5v43q-2 40 -24.5 72t-55 53t-82 39.5t-93 29.5t-101.5 25l-27 6q-72 16 -255.5 60t-243.5 63q-104 29 -152.5 78.5t-48.5 142.5q-3 58 33 115.5t100 75.5zM330 829q74 -34 642 -156q43 -9 64 -14q43 10 67.5 46.5t24.5 82.5q-4 73 -84 95
q-177 58 -675 168q-42 -10 -69.5 -48t-27.5 -75q0 -34 17 -61t41 -38z" />
    <glyph glyph-name="dieresis" unicode="&#xa8;" horiz-adv-x="1030" 
d="M791 1247h-168v228h168v-228zM408 1247h-168v228h168v-228z" />
    <glyph glyph-name="copyright" unicode="&#xa9;" horiz-adv-x="1390" 
d="M1317 963q-9 -224 -179 -363t-440 -139q-275 0 -447.5 142t-174.5 360v165q9 232 181 371t441 139q171 0 308.5 -61.5t220.5 -179.5t90 -273v-161zM1255 979q1 19 1 64.5t-1 60.5q-6 219 -161 345t-396 126q-90 0 -171.5 -17t-152 -54t-122.5 -91t-83 -131t-34 -170v-133
q1 -137 73.5 -242t200 -161t289.5 -56q247 0 400.5 126.5t156.5 332.5zM1122 942q-12 -63 -28 -96q-39 -87 -137.5 -138t-256.5 -51q-328 0 -417 211q-25 74 -25 179q0 102 25 170q42 102 148.5 157.5t268.5 55.5q167 0 266.5 -56t135.5 -149q17 -43 20 -86h-145
q-2 17 -16 49q-55 119 -254 119q-225 0 -283 -154q-16 -44 -16 -111q0 -38 12 -104q26 -82 96.5 -120t190.5 -38q105 0 164.5 26.5t86.5 80.5q16 36 21 55h143z" />
    <glyph glyph-name="ordfeminine" unicode="&#xaa;" horiz-adv-x="1400" 
d="M1317 524h-150q-3 16 -7 40.5t-10 74t-5 68.5q-30 -43 -70.5 -75.5t-104.5 -61t-160.5 -43.5t-221.5 -15q-249 0 -385.5 75.5t-139.5 213.5q0 34 3 69q14 282 647 295q187 6 424 -6q4 141 -23 213q-37 87 -130.5 124.5t-274.5 37.5q-150 0 -238 -30.5t-137 -88.5
q-48 -48 -51 -129h-156q9 102 63 170q69 103 197 154t336 51q275 0 408 -82.5t151 -245.5q8 -51 8 -239q-4 -102 -4 -316q0 -72 9.5 -150t21.5 -104zM1337 336h-1249v104h1249v-104zM1137 1040q-238 13 -365 11q-341 -2 -485 -99q-66 -45 -66 -112q0 -86 37 -121
q82 -88 375 -88q253 0 373 76q131 87 131 208v125z" />
    <glyph glyph-name="guillemotleft" unicode="&#xab;" horiz-adv-x="1546" 
d="M1464 186l-680 465v121l680 471v-178l-526 -350l526 -348v-181zM807 186l-684 465v121l684 471v-178l-526 -350l526 -348v-181z" />
    <glyph glyph-name="logicalnot" unicode="&#xac;" horiz-adv-x="1370" 
d="M1090 1245q8 11 32.5 38t32.5 38q24 29 47 9q19 -15 10 -35q-5 -12 -22 -17q-39 -9 -100 -33zM289 1227q-60 23 -101 33q-29 8 -24 33q4 21 24 26q19 3 35 -16q8 -11 32.5 -38t33.5 -38zM653 1063v428h-643v137h1350v-137h-643v-428q88 -14 147.5 -82t59.5 -160
t-59.5 -159.5t-149.5 -79.5v-426h645v-146h-1350v146h641v426q-87 14 -146 81t-59 158t60 159.5t147 82.5zM1096 406q61 -24 100 -33q29 -8 24 -33q-4 -21 -24 -26q-19 -3 -35 16q-8 11 -32.5 38t-32.5 38zM262 383q-58 -63 -67 -76q-24 -29 -47 -9q-19 15 -10 35
q5 12 22 17q33 8 102 33zM717 995v-96l-33 -70l-29 70v96q-62 -12 -103.5 -61t-41.5 -113t40.5 -112t102.5 -60v96l31 68l31 -68v-96q62 11 104.5 59.5t42.5 112.5t-41.5 113t-103.5 61z" />
    <glyph glyph-name="registered" unicode="&#xae;" horiz-adv-x="1390" 
d="M1317 973q-9 -225 -179.5 -368.5t-439.5 -143.5q-274 0 -447 146t-175 366v147q9 232 181.5 375t440.5 143q170 0 308 -63.5t221 -183.5t90 -275v-143zM1255 989q1 19 1 56.5t-1 52.5q-6 219 -162 348t-395 129q-113 0 -212 -29t-177 -85.5t-124 -147.5t-50 -207v-117
q1 -138 73.5 -245.5t200 -165.5t289.5 -58q246 0 400 131t157 338zM1032 684h-143l-154 283h-198v-283h-138v711h387q123 0 195 -62q57 -48 57 -141q0 -100 -55 -152q-53 -49 -115 -57zM903 1174q0 44 -33 75t-88 31h-245v-209h245q61 0 91 29t30 74z" />
    <glyph glyph-name="macron" unicode="&#xaf;" horiz-adv-x="1030" 
d="M850 1300h-672v121h672v-121z" />
    <glyph glyph-name="macron" unicode="&#x2c9;" horiz-adv-x="1030" 
d="M850 1300h-672v121h672v-121z" />
    <glyph glyph-name="degree" unicode="&#xb0;" horiz-adv-x="749" 
d="M377 1559q114 0 195 -83.5t81 -203.5t-81 -203.5t-195 -83.5q-116 0 -197.5 83.5t-81.5 203.5t81.5 203.5t197.5 83.5zM377 1444q-71 0 -118.5 -51t-47.5 -121q0 -71 47.5 -121.5t118.5 -50.5t117.5 50t46.5 122q0 71 -46.5 121.5t-117.5 50.5z" />
    <glyph glyph-name="plusminus" unicode="&#xb1;" horiz-adv-x="1509" 
d="M1374 883h-553v-404h-133v404h-553v110h553v404h133v-404h553v-110zM1374 276h-1237v113h1237v-113z" />
    <glyph glyph-name="twosuperior" unicode="&#xb2;" horiz-adv-x="1095" 
d="M1014 795h-883v102q55 24 129.5 56t120 51.5t105 46t95 44t79 41t68.5 41.5t51.5 40.5t40 43.5t22 45t8.5 50v22q0 47 -24 79t-89.5 52.5t-173.5 20.5t-165.5 -20.5t-96.5 -67.5q-26 -33 -33 -84h-129q8 68 41 112q101 156 391 156q119 0 202.5 -18t128 -51.5t64 -73.5
t19.5 -92v-33q-1 -53 -28.5 -101t-77 -90t-133 -87.5t-178.5 -86.5t-232 -94h678v-104z" />
    <glyph glyph-name="threesuperior" unicode="&#xb3;" horiz-adv-x="1134" 
d="M801 1225q127 -10 191 -55.5t67 -116.5q3 -16 0 -35q-5 -111 -123 -172.5t-358 -61.5q-422 0 -469 205q-7 40 -7 64h129q0 -2 5 -52q11 -62 95.5 -96.5t241.5 -34.5q339 0 349 150v24q-3 61 -65.5 93t-209.5 32h-276v84h278q108 3 163.5 37t57.5 94q0 3 0.5 8t0.5 10
t-1 9q-7 119 -286 119q-144 0 -217 -27t-88 -86q-1 -9 -2 -21t-2 -20t-1 -12h-124q0 29 6 59q21 101 124.5 150t309.5 49q390 0 409 -190q2 -10 2 -33q-3 -71 -46.5 -115.5t-153.5 -58.5z" />
    <glyph glyph-name="acute" unicode="&#xb4;" horiz-adv-x="1030" 
d="M344 1241l260 295h182l-282 -295h-160z" />
    <glyph glyph-name="mu" unicode="&#xb5;" horiz-adv-x="1667" 
d="M1487 0h-160l-8 215q-132 -218 -516 -227q-172 -3 -276.5 40.5t-161.5 129.5v-527h-166v1495h161q5 0 5 -692q0 -336 438 -336q234 0 374 93.5t140 242.5v692h162v-893q0 -185 8 -233z" />
    <glyph glyph-name="mu" unicode="&#x3bc;" horiz-adv-x="1667" 
d="M1487 0h-160l-8 215q-132 -218 -516 -227q-172 -3 -276.5 40.5t-161.5 129.5v-527h-166v1495h161q5 0 5 -692q0 -336 438 -336q234 0 374 93.5t140 242.5v692h162v-893q0 -185 8 -233z" />
    <glyph glyph-name="paragraph" unicode="&#xb6;" horiz-adv-x="1251" 
d="M1135 1630v-1855h-78v1745h-109v-1745h-78v770q-33 -39 -125 -66.5t-163 -27.5q-318 0 -437 219q-82 141 -82 372q0 232 105 392q135 200 422 200q68 0 158 -22.5t118 -55.5l35 74h234zM868 1059v325q-1 24 -28 45t-65.5 33.5t-75 19.5t-60.5 7q-109 0 -184 -27.5
t-127 -93.5q-43 -62 -69 -152t-26 -176q0 -94 19.5 -179.5t56.5 -137.5q47 -64 125.5 -96.5t167.5 -32.5q84 0 172.5 32.5t91.5 75.5q2 23 2 357z" />
    <glyph glyph-name="periodcentered" unicode="&#xb7;" horiz-adv-x="782" 
d="M500 653h-232v301h232v-301z" />
    <glyph glyph-name="periodcentered" unicode="&#x2219;" horiz-adv-x="782" 
d="M500 653h-232v301h232v-301z" />
    <glyph glyph-name="cedilla" unicode="&#xb8;" horiz-adv-x="1030" 
d="M674 -229q0 25 -7.5 43t-25.5 29t-34 17.5t-47 9t-49.5 3t-55.5 0.5v127h114v-53q42 -2 72 -6t64.5 -15.5t56.5 -29.5t36.5 -50t14.5 -75q0 -59 -43 -104t-109.5 -65.5t-154.5 -13.5t-172 47v97q96 -42 174.5 -50.5t122 15t43.5 74.5z" />
    <glyph glyph-name="onesuperior" unicode="&#xb9;" horiz-adv-x="921" 
d="M614 795h-129v680l-444 -109v104q51 3 250 63t225 83h98v-821z" />
    <glyph glyph-name="ordmasculine" unicode="&#xba;" horiz-adv-x="1536" 
d="M1473 1079q0 -266 -170 -413q-189 -166 -541 -166q-351 0 -539 162q-168 142 -168 417q0 262 176 414q191 166 533 166q356 0 536 -160q173 -141 173 -420zM1452 336h-1364v104h1364v-104zM1319 1081q0 231 -137 340q-140 107 -420 107q-270 0 -414 -113
q-139 -113 -139 -334q0 -125 30 -205t99 -135q150 -112 426 -112q266 0 405 108q150 124 150 344z" />
    <glyph glyph-name="guillemotright" unicode="&#xbb;" horiz-adv-x="1546" 
d="M743 197v180l521 348l-521 350v178l680 -471v-120zM84 197v180l520 348l-520 350v178l682 -471v-120z" />
    <glyph glyph-name="onequarter" unicode="&#xbc;" horiz-adv-x="1894" 
d="M602 795h-129v680l-446 -109v104q54 3 253 62.5t226 83.5h96v-821zM1458 1608l-1022 -1608h-106l1022 1608h106zM1841 203h-211v-203h-121v205h-669v110l657 504h133v-514h211v-102zM1509 305v404l-548 -404h548z" />
    <glyph glyph-name="onehalf" unicode="&#xbd;" horiz-adv-x="1843" 
d="M594 795h-127v680l-444 -109v104q53 3 252 62.5t225 83.5h94v-821zM1391 1608l-1022 -1608h-107l1020 1608h109zM1796 0h-883v106q62 28 140 62t129 56t112.5 49.5t100 47.5t81 44t67.5 45t46.5 46t31 50.5t9.5 54.5v23q0 72 -64 110.5t-223 38.5q-109 0 -166 -20
t-94 -66q-25 -29 -32 -84h-129q4 68 41 113q101 155 391 155q118 0 201 -18t127.5 -51.5t63.5 -73.5t19 -92v-33q0 -44 -19.5 -84.5t-60.5 -79t-93.5 -73t-130.5 -73t-158.5 -72.5t-190.5 -77h684v-104z" />
    <glyph glyph-name="threequarters" unicode="&#xbe;" horiz-adv-x="2154" 
d="M735 1225q125 -10 189 -55.5t67 -116.5v-35q-5 -111 -123 -172.5t-358 -61.5q-422 0 -469 205q-6 35 -6 64h129q0 -12 4 -52q11 -62 96 -96.5t242 -34.5q338 0 348 150v24q-3 61 -65 93t-209 32h-277v84h279q108 3 163.5 37t57.5 94v27q-5 57 -71 88t-218 31
q-142 0 -214.5 -27t-86.5 -86q-6 -35 -6 -53h-127q0 2 1.5 12.5l3.5 24.5t3 22q21 101 124.5 150t309.5 49q391 0 410 -190q2 -10 2 -33q-3 -71 -46.5 -115.5t-152.5 -58.5zM1737 1608l-1022 -1608h-107l1022 1608h107zM2128 203h-213v-203h-119v205h-672v110l660 504h131
v-514h213v-102zM1796 305v406l-549 -406h549z" />
    <glyph glyph-name="questiondown" unicode="&#xbf;" horiz-adv-x="1527" 
d="M776 1628h201v-274h-201v274zM795 1208h161q-3 -92 -29 -164.5t-67.5 -119.5t-95 -83t-111.5 -61t-115.5 -47t-110 -46.5t-92.5 -54.5t-63.5 -76.5t-23.5 -106.5q0 -101 48.5 -164.5t169 -98t322.5 -34.5q127 0 222.5 17t156.5 46t98.5 73.5t52.5 94.5t15 113h172
q-3 -85 -22.5 -153.5t-69.5 -135t-128 -111.5t-205.5 -72.5t-295.5 -27.5q-361 0 -536.5 105.5t-175.5 336.5q0 83 24 147.5t64.5 105t93.5 72t112 54.5t118 45t113.5 51t97 66t69.5 95t31 134z" />
    <glyph glyph-name="Agrave" unicode="&#xc0;" horiz-adv-x="1873" 
d="M426 432l-225 -432h-191l836 1608h203l815 -1608h-191l-219 432h-1028zM1374 590l-360 719l-68 149l-69 -149l-369 -719h866zM1063 1733h-164l-283 295h185z" />
    <glyph glyph-name="Aacute" unicode="&#xc1;" horiz-adv-x="1873" 
d="M426 432l-225 -432h-191l836 1608h203l815 -1608h-191l-219 432h-1028zM1374 590l-360 719l-68 149l-69 -149l-369 -719h866zM827 1733l260 295h183l-283 -295h-160z" />
    <glyph glyph-name="Acircumflex" unicode="&#xc2;" horiz-adv-x="1873" 
d="M426 432l-225 -432h-191l836 1608h203l815 -1608h-191l-219 432h-1028zM1374 590l-360 719l-68 149l-69 -149l-369 -719h866zM1321 1739h-143l-242 192l-242 -192h-143l295 291h182z" />
    <glyph glyph-name="Atilde" unicode="&#xc3;" horiz-adv-x="1873" 
d="M426 432l-225 -432h-191l836 1608h203l815 -1608h-191l-219 432h-1028zM1374 590l-360 719l-68 149l-69 -149l-369 -719h866zM782 1890q-47 0 -70.5 -33.5t-23.5 -115.5h-123q3 276 207 276q55 0 97.5 -16t69 -38.5t50 -45.5t53.5 -39t66 -16q45 0 70 32.5t26 114.5h121
q-1 -137 -52 -206.5t-147 -69.5q-56 0 -98.5 16t-69.5 39.5t-51 46.5t-55.5 39t-69.5 16z" />
    <glyph glyph-name="Adieresis" unicode="&#xc4;" horiz-adv-x="1873" 
d="M426 432l-225 -432h-191l836 1608h203l815 -1608h-191l-219 432h-1028zM1374 590l-360 719l-68 149l-69 -149l-369 -719h866zM1212 1739h-168v227h168v-227zM829 1739h-167v227h167v-227z" />
    <glyph glyph-name="Aring" unicode="&#xc5;" horiz-adv-x="1873" 
d="M840 1595q-45 28 -73 76.5t-28 104.5q0 87 60 148t145 61q86 0 145.5 -60.5t59.5 -148.5q0 -55 -25.5 -103t-68.5 -76l809 -1597h-191l-219 432h-1028l-225 -432h-191zM944 1876q-41 0 -70.5 -29.5t-29.5 -70.5t29.5 -71t70.5 -30t70.5 30t29.5 71t-29.5 70.5t-70.5 29.5
zM1374 590l-360 719l-68 149l-69 -149l-369 -719h866z" />
    <glyph glyph-name="AE" unicode="&#xc6;" horiz-adv-x="2811" 
d="M2736 1608v-162h-1249v-553h1212v-160h-1212v-569h1261v-164h-1427v424h-776l-348 -424h-199l1290 1608h1448zM1321 1411q-119 -162 -121 -166l-553 -678h674v844z" />
    <glyph glyph-name="Ccedilla" unicode="&#xc7;" horiz-adv-x="2015" 
d="M948 -18q-488 26 -682 307q-145 188 -145 520q0 317 121 487q219 338 792 338q531 0 762 -307q100 -125 117 -303h-182q-18 141 -111 238q-180 202 -590 202q-474 0 -639 -266q-90 -129 -90 -391q0 -272 113 -410q88 -131 257.5 -193.5t366.5 -62.5q420 0 592 205
q41 45 68 107.5t33 124.5h184q-21 -175 -127 -322q-206 -276 -725 -279v-30q42 -2 72 -6t64.5 -15.5t56.5 -29.5t36.5 -50t14.5 -75q0 -59 -43 -104t-110 -65.5t-155 -13.5t-172 47v97q96 -42 174.5 -50.5t122 15t43.5 74.5q0 25 -7.5 43t-25.5 29t-34 17.5t-47 9t-49.5 3
t-55.5 0.5v109z" />
    <glyph glyph-name="Egrave" unicode="&#xc8;" horiz-adv-x="1863" 
d="M1708 0h-1444v1608h1430v-164h-1260v-549h1225v-162h-1225v-569h1274v-164zM1112 1733h-164l-282 295h184z" />
    <glyph glyph-name="Eacute" unicode="&#xc9;" horiz-adv-x="1863" 
d="M1708 0h-1444v1608h1430v-164h-1260v-549h1225v-162h-1225v-569h1274v-164zM856 1733l260 295h182l-282 -295h-160z" />
    <glyph glyph-name="Ecircumflex" unicode="&#xca;" horiz-adv-x="1863" 
d="M1708 0h-1444v1608h1430v-164h-1260v-549h1225v-162h-1225v-569h1274v-164zM1370 1739h-143l-242 192l-242 -192h-143l295 291h182z" />
    <glyph glyph-name="Edieresis" unicode="&#xcb;" horiz-adv-x="1863" 
d="M1708 0h-1444v1608h1430v-164h-1260v-549h1225v-162h-1225v-569h1274v-164zM1282 1739h-168v227h168v-227zM899 1739h-168v227h168v-227z" />
    <glyph glyph-name="Igrave" unicode="&#xcc;" horiz-adv-x="702" 
d="M440 0h-176v1608h176v-1608zM453 1733h-164l-283 295h184z" />
    <glyph glyph-name="Iacute" unicode="&#xcd;" horiz-adv-x="702" 
d="M440 0h-176v1608h176v-1608zM254 1733l260 295h182l-282 -295h-160z" />
    <glyph glyph-name="Icircumflex" unicode="&#xce;" horiz-adv-x="702" 
d="M440 0h-176v1608h176v-1608zM735 1739h-143l-242 192l-241 -192h-144l295 291h182z" />
    <glyph glyph-name="Idieresis" unicode="&#xcf;" horiz-adv-x="702" 
d="M440 0h-176v1608h176v-1608zM627 1739h-168v227h168v-227zM244 1739h-168v227h168v-227z" />
    <glyph glyph-name="Eth" unicode="&#xd0;" horiz-adv-x="1990" 
d="M264 729h-203v141h203v738h860q488 0 645 -281q53 -82 77 -204t24 -304q0 -191 -21.5 -314.5t-72.5 -207.5q-157 -297 -639 -297h-873v729zM434 870h608v-141h-608v-571h664q209 0 334.5 54.5t189.5 166.5q42 62 58 165.5t18 268.5q0 308 -80 422q-66 109 -187 163
t-317 54h-680v-582z" />
    <glyph glyph-name="Ntilde" unicode="&#xd1;" horiz-adv-x="2041" 
d="M1784 0h-199l-1153 1382v-1382h-168v1608h205l1151 -1383v1383h164v-1608zM928 1890q-47 0 -70.5 -33.5t-23.5 -115.5h-123q3 276 207 276q55 0 97.5 -16t69 -38.5t49.5 -45.5t53 -39t66 -16q45 0 70.5 32.5t26.5 114.5h120q-3 -276 -198 -276q-56 0 -98.5 16t-69.5 39.5
t-51 46.5t-55.5 39t-69.5 16z" />
    <glyph glyph-name="Ograve" unicode="&#xd2;" horiz-adv-x="2060" 
d="M1032 1634q465 0 699 -225q211 -199 211 -600q0 -399 -216 -606q-223 -226 -696 -226q-438 0 -668 213q-241 206 -241 619q0 393 213 592q236 233 698 233zM1032 139q365 0 555 172q178 160 178 496q0 338 -170 489q-199 174 -565 174q-368 0 -559 -172
q-174 -155 -174 -493q0 -340 211 -514q193 -152 524 -152zM1153 1733h-164l-282 295h184z" />
    <glyph glyph-name="Oacute" unicode="&#xd3;" horiz-adv-x="2060" 
d="M1032 1634q465 0 699 -225q211 -199 211 -600q0 -399 -216 -606q-223 -226 -696 -226q-438 0 -668 213q-241 206 -241 619q0 393 213 592q236 233 698 233zM1032 139q365 0 555 172q178 160 178 496q0 338 -170 489q-199 174 -565 174q-368 0 -559 -172
q-174 -155 -174 -493q0 -340 211 -514q193 -152 524 -152zM909 1733l260 295h183l-283 -295h-160z" />
    <glyph glyph-name="Ocircumflex" unicode="&#xd4;" horiz-adv-x="2060" 
d="M1032 1634q465 0 699 -225q211 -199 211 -600q0 -399 -216 -606q-223 -226 -696 -226q-438 0 -668 213q-241 206 -241 619q0 393 213 592q236 233 698 233zM1032 139q365 0 555 172q178 160 178 496q0 338 -170 489q-199 174 -565 174q-368 0 -559 -172
q-174 -155 -174 -493q0 -340 211 -514q193 -152 524 -152zM1415 1739h-143l-242 192l-242 -192h-143l295 291h182z" />
    <glyph glyph-name="Otilde" unicode="&#xd5;" horiz-adv-x="2060" 
d="M1032 1634q465 0 699 -225q211 -199 211 -600q0 -399 -216 -606q-223 -226 -696 -226q-438 0 -668 213q-241 206 -241 619q0 393 213 592q236 233 698 233zM1032 139q365 0 555 172q178 160 178 496q0 338 -170 489q-199 174 -565 174q-368 0 -559 -172
q-174 -155 -174 -493q0 -340 211 -514q193 -152 524 -152zM868 1890q-47 0 -70.5 -33.5t-23.5 -115.5h-123q3 276 207 276q55 0 97.5 -16t69 -38.5t50 -45.5t53.5 -39t66 -16q45 0 70 32.5t26 114.5h121q-1 -137 -52 -206.5t-147 -69.5q-56 0 -98.5 16t-69.5 39.5t-51 46.5
t-55.5 39t-69.5 16z" />
    <glyph glyph-name="Odieresis" unicode="&#xd6;" horiz-adv-x="2060" 
d="M1032 1634q465 0 699 -225q211 -199 211 -600q0 -399 -216 -606q-223 -226 -696 -226q-438 0 -668 213q-241 206 -241 619q0 393 213 592q236 233 698 233zM1032 139q365 0 555 172q178 160 178 496q0 338 -170 489q-199 174 -565 174q-368 0 -559 -172
q-174 -155 -174 -493q0 -340 211 -514q193 -152 524 -152zM1307 1739h-168v227h168v-227zM924 1739h-168v227h168v-227z" />
    <glyph glyph-name="multiply" unicode="&#xd7;" horiz-adv-x="1490" 
d="M1169 1141l-335 -330l335 -334l-90 -102l-336 330l-333 -330l-91 104l336 332l-336 330l93 104l331 -330l336 330z" />
    <glyph glyph-name="Oslash" unicode="&#xd8;" horiz-adv-x="2060" 
d="M1690 1446q28 -24 41 -37q211 -199 211 -600q0 -399 -216 -606q-223 -226 -696 -226q-348 0 -567 136l-193 -209h-149q145 157 256 274q-9 6 -15 12q-241 206 -241 619q0 393 213 592q236 233 698 233q355 0 576 -131l125 135h135zM492 303l995 1069q-171 98 -457 98
q-368 0 -559 -172q-174 -155 -174 -493q0 -325 195 -502zM1571 1317l-989 -1075q177 -103 450 -103q365 0 555 172q178 160 178 496q0 338 -170 489q-4 3 -12 10.5t-12 10.5z" />
    <glyph glyph-name="Ugrave" unicode="&#xd9;" horiz-adv-x="2027" 
d="M1792 553q0 -185 -95.5 -315.5t-268 -195.5t-408.5 -65q-141 0 -260 22t-216.5 68t-165.5 115t-105 166.5t-37 218.5v1041h172v-1055q0 -196 157 -306t461 -110q171 0 304 47t211.5 141.5t78.5 225.5v1057h172v-1055zM1194 1733h-164l-282 295h184z" />
    <glyph glyph-name="Uacute" unicode="&#xda;" horiz-adv-x="2027" 
d="M1792 553q0 -185 -95.5 -315.5t-268 -195.5t-408.5 -65q-141 0 -260 22t-216.5 68t-165.5 115t-105 166.5t-37 218.5v1041h172v-1055q0 -196 157 -306t461 -110q171 0 304 47t211.5 141.5t78.5 225.5v1057h172v-1055zM885 1733l260 295h182l-283 -295h-159z" />
    <glyph glyph-name="Ucircumflex" unicode="&#xdb;" horiz-adv-x="2027" 
d="M1792 553q0 -185 -95.5 -315.5t-268 -195.5t-408.5 -65q-141 0 -260 22t-216.5 68t-165.5 115t-105 166.5t-37 218.5v1041h172v-1055q0 -196 157 -306t461 -110q171 0 304 47t211.5 141.5t78.5 225.5v1057h172v-1055zM1399 1739h-144l-241 192l-242 -192h-143l295 291
h182z" />
    <glyph glyph-name="Udieresis" unicode="&#xdc;" horiz-adv-x="2027" 
d="M1792 553q0 -185 -95.5 -315.5t-268 -195.5t-408.5 -65q-141 0 -260 22t-216.5 68t-165.5 115t-105 166.5t-37 218.5v1041h172v-1055q0 -196 157 -306t461 -110q171 0 304 47t211.5 141.5t78.5 225.5v1057h172v-1055zM1319 1739h-168v227h168v-227zM936 1739h-168v227
h168v-227z" />
    <glyph glyph-name="Yacute" unicode="&#xdd;" horiz-adv-x="1910" 
d="M1903 1608l-873 -1076v-532h-176v530l-846 1078h197l739 -930l766 930h193zM784 1733l260 295h183l-283 -295h-160z" />
    <glyph glyph-name="Thorn" unicode="&#xde;" horiz-adv-x="1904" 
d="M438 1608v-217h774q417 0 506 -234q56 -104 56 -289q0 -201 -56 -299q-61 -114 -186 -166.5t-326 -52.5h-770v-350h-172v1608h174zM1599 864q0 121 -24 187q-33 93 -125 138.5t-256 45.5h-758v-737h756q307 0 379 170q28 62 28 196z" />
    <glyph glyph-name="germandbls" unicode="&#xdf;" horiz-adv-x="2164" 
d="M809 1499q-87 -1 -148.5 -20t-94.5 -54t-47.5 -77t-14.5 -97v-1251h-166v977h-291v145h291v154q0 180 115.5 275.5t369.5 95.5q62 0 122.5 -12.5t115.5 -39t96.5 -64t66.5 -91t25 -115.5q0 -81 -31 -141.5t-75.5 -95.5t-88.5 -63t-75 -60.5t-31 -71.5q0 -96 86 -135.5
t295 -57.5q35 -3 132 -14t130 -14q279 -23 401 -107t122 -235q0 -168 -162.5 -260.5t-499.5 -92.5q-305 0 -468 64.5t-206 198.5q-13 50 -16 102h168q0 -38 12 -76q34 -81 158.5 -119t355.5 -38q182 0 294.5 28t156 72.5t43.5 109.5q0 101 -94 150.5t-334 69.5
q-40 4 -123.5 13t-106.5 11q-269 20 -387.5 96t-118.5 224q0 41 16 77t42 63t57 52t62.5 49.5t57.5 50t42 58.5t16 70q0 34 -14.5 67t-44.5 63t-84.5 48t-126.5 18z" />
    <glyph glyph-name="agrave" unicode="&#xe0;" 
d="M1485 0h-156q-1 0 -6.5 31t-10.5 73t-3 66q-140 -188 -613 -188q-288 0 -429.5 82.5t-141.5 252.5q0 85 36 148.5t117.5 111.5t223 73t342.5 26q177 3 467 -23q0 142 -42.5 218.5t-146 110.5t-295.5 34q-242 0 -352.5 -61.5t-122.5 -184.5h-162q29 199 186.5 292
t454.5 93t447.5 -86t171.5 -258q12 -99 8 -248q0 -24 -1 -148t-1 -165q0 -70 9 -146.5t20 -103.5zM1309 537q-288 20 -437 18q-305 -1 -443 -57t-138 -170q0 -215 436 -215q112 0 194.5 9.5t159 36.5t124 73t76 122.5t28.5 182.5zM1006 1241h-164l-283 295h184z" />
    <glyph glyph-name="aacute" unicode="&#xe1;" 
d="M1485 0h-156q-1 0 -6.5 31t-10.5 73t-3 66q-140 -188 -613 -188q-288 0 -429.5 82.5t-141.5 252.5q0 85 36 148.5t117.5 111.5t223 73t342.5 26q177 3 467 -23q0 142 -42.5 218.5t-146 110.5t-295.5 34q-242 0 -352.5 -61.5t-122.5 -184.5h-162q29 199 186.5 292
t454.5 93t447.5 -86t171.5 -258q12 -99 8 -248q0 -24 -1 -148t-1 -165q0 -70 9 -146.5t20 -103.5zM1309 537q-288 20 -437 18q-305 -1 -443 -57t-138 -170q0 -215 436 -215q112 0 194.5 9.5t159 36.5t124 73t76 122.5t28.5 182.5zM705 1241l260 295h182l-283 -295h-159z" />
    <glyph glyph-name="acircumflex" unicode="&#xe2;" 
d="M1485 0h-156q-1 0 -6.5 31t-10.5 73t-3 66q-140 -188 -613 -188q-288 0 -429.5 82.5t-141.5 252.5q0 85 36 148.5t117.5 111.5t223 73t342.5 26q177 3 467 -23q0 142 -42.5 218.5t-146 110.5t-295.5 34q-242 0 -352.5 -61.5t-122.5 -184.5h-162q29 199 186.5 292
t454.5 93t447.5 -86t171.5 -258q12 -99 8 -248q0 -24 -1 -148t-1 -165q0 -70 9 -146.5t20 -103.5zM1309 537q-288 20 -437 18q-305 -1 -443 -57t-138 -170q0 -215 436 -215q112 0 194.5 9.5t159 36.5t124 73t76 122.5t28.5 182.5zM1210 1247h-143l-242 193l-241 -193h-144
l295 291h183z" />
    <glyph glyph-name="atilde" unicode="&#xe3;" 
d="M1485 0h-156q-1 0 -6.5 31t-10.5 73t-3 66q-140 -188 -613 -188q-288 0 -429.5 82.5t-141.5 252.5q0 85 36 148.5t117.5 111.5t223 73t342.5 26q177 3 467 -23q0 142 -42.5 218.5t-146 110.5t-295.5 34q-242 0 -352.5 -61.5t-122.5 -184.5h-162q29 199 186.5 292
t454.5 93t447.5 -86t171.5 -258q12 -99 8 -248q0 -24 -1 -148t-1 -165q0 -70 9 -146.5t20 -103.5zM1309 537q-288 20 -437 18q-305 -1 -443 -57t-138 -170q0 -215 436 -215q112 0 194.5 9.5t159 36.5t124 73t76 122.5t28.5 182.5zM676 1399q-47 0 -70.5 -34t-23.5 -116h-123
q3 277 207 277q55 0 97.5 -16t69 -39t49.5 -46t53 -39t66 -16q45 0 70.5 33t26.5 115h121q-1 -137 -52 -207t-147 -70q-56 0 -98.5 16.5t-69.5 39.5t-51 46t-55.5 39.5t-69.5 16.5z" />
    <glyph glyph-name="adieresis" unicode="&#xe4;" 
d="M1485 0h-156q-1 0 -6.5 31t-10.5 73t-3 66q-140 -188 -613 -188q-288 0 -429.5 82.5t-141.5 252.5q0 85 36 148.5t117.5 111.5t223 73t342.5 26q177 3 467 -23q0 142 -42.5 218.5t-146 110.5t-295.5 34q-242 0 -352.5 -61.5t-122.5 -184.5h-162q29 199 186.5 292
t454.5 93t447.5 -86t171.5 -258q12 -99 8 -248q0 -24 -1 -148t-1 -165q0 -70 9 -146.5t20 -103.5zM1309 537q-288 20 -437 18q-305 -1 -443 -57t-138 -170q0 -215 436 -215q112 0 194.5 9.5t159 36.5t124 73t76 122.5t28.5 182.5zM1102 1247h-168v228h168v-228zM719 1247
h-168v228h168v-228z" />
    <glyph glyph-name="aring" unicode="&#xe5;" 
d="M1485 0h-156q-1 0 -6.5 31t-10.5 73t-3 66q-140 -188 -613 -188q-288 0 -429.5 82.5t-141.5 252.5q0 85 36 148.5t117.5 111.5t223 73t342.5 26q177 3 467 -23q0 142 -42.5 218.5t-146 110.5t-295.5 34q-242 0 -352.5 -61.5t-122.5 -184.5h-162q29 199 186.5 292
t454.5 93t447.5 -86t171.5 -258q12 -99 8 -248q0 -24 -1 -148t-1 -165q0 -70 9 -146.5t20 -103.5zM1309 537q-288 20 -437 18q-305 -1 -443 -57t-138 -170q0 -215 436 -215q112 0 194.5 9.5t159 36.5t124 73t76 122.5t28.5 182.5zM854 1661q86 0 145.5 -60.5t59.5 -148.5
q0 -87 -59.5 -149t-145.5 -62q-85 0 -145 62.5t-60 148.5q0 87 60 148t145 61zM854 1552q-41 0 -70.5 -29.5t-29.5 -70.5t29.5 -70.5t70.5 -29.5t70.5 29.5t29.5 70.5t-29.5 70.5t-70.5 29.5z" />
    <glyph glyph-name="ae" unicode="&#xe6;" horiz-adv-x="2840" 
d="M1391 240q-83 -132 -245 -195t-435 -63q-292 0 -437 80t-145 249q0 61 21 113t72.5 99t131.5 79.5t206 52t288 19.5q212 0 461 -21q-3 121 -43 207q-45 78 -150 117t-287 39q-218 0 -340.5 -62t-132.5 -186h-159q12 190 179 288.5t472 98.5q253 0 390 -77t171 -199
q49 123 218 199.5t417 76.5q375 0 559.5 -163.5t173.5 -479.5h-1317q0 -107 46.5 -186t129.5 -124.5t185.5 -67t226.5 -21.5q118 0 214 17t154 41.5t99 57.5t59 60.5t25 54.5h168q-14 -58 -45 -109t-88.5 -99.5t-136 -82.5t-194 -55t-255.5 -21q-260 0 -423 69.5t-234 193.5
zM2611 633q-5 194 -144 289.5t-429 95.5q-145 0 -257.5 -29.5t-182 -82t-105 -121.5t-35.5 -152h1153zM1313 535q-209 22 -471 22q-122 0 -217 -13t-154 -35t-97 -52.5t-52.5 -62t-14.5 -68.5q0 -97 108 -147t367 -50q286 0 408.5 92t122.5 314z" />
    <glyph glyph-name="ccedilla" unicode="&#xe7;" horiz-adv-x="1683" 
d="M782 -20q-405 15 -563 208q-117 135 -117 379q0 228 111 363q91 110 255 167.5t390 57.5q245 0 403.5 -61t231.5 -166q59 -82 70 -207h-162q-6 76 -58 131q-63 71 -184.5 112.5t-296.5 41.5q-373 0 -514 -172q-80 -92 -80 -273q0 -178 86 -278q127 -160 510 -160
q341 0 465 121q55 55 74 141h166q-20 -140 -107 -229q-164 -170 -565 -179v-30q42 -2 72 -6t64.5 -15.5t56.5 -29.5t36.5 -50t14.5 -75q0 -59 -43 -104t-109.5 -65.5t-154.5 -13.5t-172 47v97q96 -42 174.5 -50.5t121.5 15t43 74.5q0 25 -7.5 43t-25.5 29t-34 17.5t-47 9
t-49.5 3t-55.5 0.5v107z" />
    <glyph glyph-name="egrave" unicode="&#xe8;" 
d="M1573 344q-14 -57 -45 -108t-88 -99.5t-135 -83t-192.5 -55.5t-254.5 -21q-754 0 -754 598q0 280 196 430t548 150q384 0 570 -174t167 -475h-1319q4 -186 161 -288.5t435 -102.5q110 0 201 16t148.5 40t100 56t62.5 60.5t29 56.5h170zM1417 637q0 174 -141 275.5
t-430 101.5q-279 0 -428.5 -101.5t-149.5 -275.5h1149zM1006 1241h-164l-283 295h184z" />
    <glyph glyph-name="eacute" unicode="&#xe9;" 
d="M1573 344q-14 -57 -45 -108t-88 -99.5t-135 -83t-192.5 -55.5t-254.5 -21q-754 0 -754 598q0 280 196 430t548 150q384 0 570 -174t167 -475h-1319q4 -186 161 -288.5t435 -102.5q110 0 201 16t148.5 40t100 56t62.5 60.5t29 56.5h170zM1417 637q0 174 -141 275.5
t-430 101.5q-279 0 -428.5 -101.5t-149.5 -275.5h1149zM721 1241l260 295h182l-282 -295h-160z" />
    <glyph glyph-name="ecircumflex" unicode="&#xea;" 
d="M1573 344q-14 -57 -45 -108t-88 -99.5t-135 -83t-192.5 -55.5t-254.5 -21q-754 0 -754 598q0 280 196 430t548 150q384 0 570 -174t167 -475h-1319q4 -186 161 -288.5t435 -102.5q110 0 201 16t148.5 40t100 56t62.5 60.5t29 56.5h170zM1417 637q0 174 -141 275.5
t-430 101.5q-279 0 -428.5 -101.5t-149.5 -275.5h1149zM1219 1247h-144l-241 193l-242 -193h-143l294 291h183z" />
    <glyph glyph-name="edieresis" unicode="&#xeb;" 
d="M1573 344q-14 -57 -45 -108t-88 -99.5t-135 -83t-192.5 -55.5t-254.5 -21q-754 0 -754 598q0 280 196 430t548 150q384 0 570 -174t167 -475h-1319q4 -186 161 -288.5t435 -102.5q110 0 201 16t148.5 40t100 56t62.5 60.5t29 56.5h170zM1417 637q0 174 -141 275.5
t-430 101.5q-279 0 -428.5 -101.5t-149.5 -275.5h1149zM1118 1247h-168v228h168v-228zM735 1247h-168v228h168v-228z" />
    <glyph glyph-name="igrave" unicode="&#xec;" horiz-adv-x="598" 
d="M395 0h-164q-14 8 -14 102v1024h164v-1022q0 -95 14 -104zM430 1241h-164l-282 295h184z" />
    <glyph glyph-name="iacute" unicode="&#xed;" horiz-adv-x="598" 
d="M395 0h-164q-14 8 -14 102v1024h164v-1022q0 -95 14 -104zM219 1241l260 295h183l-283 -295h-160z" />
    <glyph glyph-name="icircumflex" unicode="&#xee;" horiz-adv-x="598" 
d="M395 0h-164q-14 8 -14 102v1024h164v-1022q0 -95 14 -104zM684 1247h-143l-242 193l-242 -193h-143l295 291h182z" />
    <glyph glyph-name="idieresis" unicode="&#xef;" horiz-adv-x="598" 
d="M395 0h-164q-14 8 -14 102v1024h164v-1022q0 -95 14 -104zM575 1247h-167v228h167v-228zM193 1247h-168v228h168v-228z" />
    <glyph glyph-name="eth" unicode="&#xf0;" horiz-adv-x="1732" 
d="M1389 1196q-5 -4 -21 -15t-20.5 -14t-17 -11t-18 -10.5t-16.5 -8t-18.5 -7t-18.5 -4.5t-21.5 -3.5t-23.5 -0.5q-190 0 -202 224l63 6q4 -96 40.5 -131t98.5 -33q32 0 59.5 9.5t43.5 20.5t47 35q-21 44 -45 68q-151 168 -451 168q-375 0 -485 -176q-2 -4 -16 -39h-164
q2 7 8 33t12 41q126 284 656 284q193 0 338.5 -60t234.5 -163q7 -9 18 -21.5t20 -23.5t17 -23q46 35 61.5 45.5t43.5 19.5t67 9q184 0 197 -233l-61 -8q-2 28 -5 47t-12 45.5t-23 42.5t-39.5 27.5t-60.5 11.5q-29 0 -52.5 -8.5t-36 -16.5t-50.5 -37q54 -88 80 -210.5
t26 -246.5q0 -283 -75 -448q-83 -199 -265.5 -301.5t-445.5 -102.5q-308 0 -497.5 110.5t-223.5 307.5q-30 66 -27.5 150t35.5 147q38 174 202 272.5t456 98.5q243 0 413.5 -69.5t251.5 -168.5q0 228 -77 371zM303 422q24 -136 171 -219.5t380 -83.5q238 0 395 102t195 283
q14 61 20 184q-14 21 -38.5 47t-77.5 63.5t-118 66.5t-167 50t-217 21q-128 0 -226 -21t-160 -59.5t-97 -86.5t-48 -107q-27 -45 -30.5 -118t18.5 -122z" />
    <glyph glyph-name="ntilde" unicode="&#xf1;" horiz-adv-x="1667" 
d="M1493 0h-156q-6 0 -8.5 15.5t-4.5 90t-2.5 195.5t-0.5 363q0 174 -104 257t-338 83q-102 0 -192 -22t-161.5 -64t-113 -111t-41.5 -156v-651h-162v1126h156v-231q30 71 90 123t139 80.5t163 41.5t177 13q280 0 415.5 -119.5t135.5 -337.5q0 -672 8 -696zM705 1399
q-47 0 -71 -34t-24 -116h-123q3 277 207 277q55 0 97.5 -16t69 -39t50 -46t53.5 -39t66 -16q45 0 70 33t26 115h121q-1 -137 -51.5 -207t-146.5 -70q-56 0 -98.5 16.5t-69.5 39.5t-51 46t-55.5 39.5t-69.5 16.5z" />
    <glyph glyph-name="ograve" unicode="&#xf2;" horiz-adv-x="1736" 
d="M1634 567q0 -242 -159 -395q-195 -195 -607 -195q-420 0 -610 193q-156 146 -156 397q0 240 160 387q198 201 606 201q404 0 607 -186q159 -155 159 -402zM1470 567q0 192 -127 305q-153 134 -477 134q-314 0 -473 -146q-127 -107 -127 -293q0 -198 125 -311
q146 -131 477 -131q326 0 473 135q129 116 129 307zM997 1241h-163l-283 295h184z" />
    <glyph glyph-name="oacute" unicode="&#xf3;" horiz-adv-x="1736" 
d="M1634 567q0 -242 -159 -395q-195 -195 -607 -195q-420 0 -610 193q-156 146 -156 397q0 240 160 387q198 201 606 201q404 0 607 -186q159 -155 159 -402zM1470 567q0 192 -127 305q-153 134 -477 134q-314 0 -473 -146q-127 -107 -127 -293q0 -198 125 -311
q146 -131 477 -131q326 0 473 135q129 116 129 307zM737 1241l260 295h183l-283 -295h-160z" />
    <glyph glyph-name="ocircumflex" unicode="&#xf4;" horiz-adv-x="1736" 
d="M1634 567q0 -242 -159 -395q-195 -195 -607 -195q-420 0 -610 193q-156 146 -156 397q0 240 160 387q198 201 606 201q404 0 607 -186q159 -155 159 -402zM1470 567q0 192 -127 305q-153 134 -477 134q-314 0 -473 -146q-127 -107 -127 -293q0 -198 125 -311
q146 -131 477 -131q326 0 473 135q129 116 129 307zM1251 1247h-143l-242 193l-241 -193h-144l295 291h182z" />
    <glyph glyph-name="otilde" unicode="&#xf5;" horiz-adv-x="1736" 
d="M1634 567q0 -242 -159 -395q-195 -195 -607 -195q-420 0 -610 193q-156 146 -156 397q0 240 160 387q198 201 606 201q404 0 607 -186q159 -155 159 -402zM1470 567q0 192 -127 305q-153 134 -477 134q-314 0 -473 -146q-127 -107 -127 -293q0 -198 125 -311
q146 -131 477 -131q326 0 473 135q129 116 129 307zM705 1399q-47 0 -71 -34t-24 -116h-123q3 277 207 277q55 0 97.5 -16t69 -39t50 -46t53.5 -39t66 -16q45 0 70 33t26 115h121q-1 -137 -51.5 -207t-146.5 -70q-56 0 -98.5 16.5t-69.5 39.5t-51 46t-55.5 39.5t-69.5 16.5z
" />
    <glyph glyph-name="odieresis" unicode="&#xf6;" horiz-adv-x="1736" 
d="M1634 567q0 -242 -159 -395q-195 -195 -607 -195q-420 0 -610 193q-156 146 -156 397q0 240 160 387q198 201 606 201q404 0 607 -186q159 -155 159 -402zM1470 567q0 192 -127 305q-153 134 -477 134q-314 0 -473 -146q-127 -107 -127 -293q0 -198 125 -311
q146 -131 477 -131q326 0 473 135q129 116 129 307zM1143 1247h-168v228h168v-228zM760 1247h-168v228h168v-228z" />
    <glyph glyph-name="divide" unicode="&#xf7;" horiz-adv-x="1519" 
d="M836 1176h-150v208h150v-208zM1384 768h-1249v127h1249v-127zM836 279h-148v208h148v-208z" />
    <glyph glyph-name="oslash" unicode="&#xf8;" horiz-adv-x="1736" 
d="M301 131q-27 20 -43 39q-156 146 -156 397q0 240 160 387q198 201 606 201q283 0 469 -94l133 121h146q-191 -172 -193 -172q46 -36 52 -41q159 -155 159 -402q0 -242 -159 -395q-195 -195 -607 -195q-298 0 -483 99l-143 -127h-144q111 100 203 182zM416 236l796 714
q-136 56 -346 56q-314 0 -473 -146q-127 -107 -127 -293q0 -198 125 -311q4 -3 12.5 -10t12.5 -10zM1305 901q-799 -715 -799 -717q142 -59 362 -59q326 0 473 135q129 116 129 307q0 192 -127 305q-28 23 -38 29z" />
    <glyph glyph-name="ugrave" unicode="&#xf9;" horiz-adv-x="1667" 
d="M1479 0q-6 30 -6 229v897h-164v-680q0 -142 -140 -231.5t-372 -89.5q-210 0 -324.5 76t-114.5 248q0 677 -6 677q2 -1 -40 -1t-85 1h-43q11 -11 11 -747q0 -199 138.5 -300.5t407.5 -101.5q429 0 572 222l6 -199h160zM989 1241h-164l-282 295h184z" />
    <glyph glyph-name="uacute" unicode="&#xfa;" horiz-adv-x="1667" 
d="M1479 0q-6 30 -6 229v897h-164v-680q0 -142 -140 -231.5t-372 -89.5q-210 0 -324.5 76t-114.5 248q0 677 -6 677q2 -1 -40 -1t-85 1h-43q11 -11 11 -747q0 -199 138.5 -300.5t407.5 -101.5q429 0 572 222l6 -199h160zM688 1241l260 295h182l-282 -295h-160z" />
    <glyph glyph-name="ucircumflex" unicode="&#xfb;" horiz-adv-x="1667" 
d="M1479 0q-6 30 -6 229v897h-164v-680q0 -142 -140 -231.5t-372 -89.5q-210 0 -324.5 76t-114.5 248q0 677 -6 677q2 -1 -40 -1t-85 1h-43q11 -11 11 -747q0 -199 138.5 -300.5t407.5 -101.5q429 0 572 222l6 -199h160zM1227 1247h-144l-241 193l-242 -193h-143l295 291
h182z" />
    <glyph glyph-name="udieresis" unicode="&#xfc;" horiz-adv-x="1667" 
d="M1479 0q-6 30 -6 229v897h-164v-680q0 -142 -140 -231.5t-372 -89.5q-210 0 -324.5 76t-114.5 248q0 677 -6 677q2 -1 -40 -1t-85 1h-43q11 -11 11 -747q0 -199 138.5 -300.5t407.5 -101.5q429 0 572 222l6 -199h160zM1110 1247h-168v228h168v-228zM727 1247h-168v228
h168v-228z" />
    <glyph glyph-name="yacute" unicode="&#xfd;" horiz-adv-x="1593" 
d="M1565 1126l-903 -1495h-181l232 371l-682 1124h178l594 -972l592 972h170zM627 1241l260 295h182l-283 -295h-159z" />
    <glyph glyph-name="thorn" unicode="&#xfe;" horiz-adv-x="1759" 
d="M1642 571q0 -200 -94 -354q-70 -114 -219.5 -173.5t-363.5 -59.5q-212 0 -371 61t-219 184l2 -598h-172v1997h172v-735q45 121 195 195.5t391 74.5q437 0 593 -252q86 -131 86 -340zM1464 569q0 183 -78 277q-123 166 -477 166q-107 0 -190.5 -16t-139 -45.5t-90.5 -62
t-61 -73.5q-55 -83 -55 -252q0 -147 55 -254q128 -180 483 -180q357 0 475 168q78 105 78 272z" />
    <glyph glyph-name="ydieresis" unicode="&#xff;" horiz-adv-x="1593" 
d="M1565 1126l-903 -1495h-181l232 371l-682 1124h178l594 -972l592 972h170zM1081 1247h-168v228h168v-228zM698 1247h-168v228h168v-228z" />
    <glyph glyph-name="dotlessi" unicode="&#x131;" horiz-adv-x="598" 
d="M395 0h-164q-14 8 -14 102v1024h164v-1022q0 -95 14 -104z" />
    <glyph glyph-name="Lslash" unicode="&#x141;" horiz-adv-x="1646" 
d="M438 602v-436h1143v-166h-1317v551l-147 -57v137l147 55v922h174v-871l615 228v-138z" />
    <glyph glyph-name="lslash" unicode="&#x142;" horiz-adv-x="587" 
d="M375 584v-467q0 -109 10 -117h-162q-10 7 -10 68v458l-180 -67v145l180 70v831q0 97 -6 127h162q6 -20 6 -114v-789l180 70v-148z" />
    <glyph glyph-name="OE" unicode="&#x152;" horiz-adv-x="3033" 
d="M1540 1608h1354v-160h-1198v-555h1163v-160h-1163v-571h1210v-162h-1368v92q-68 -45 -202 -80t-320 -35q-225 0 -408.5 70.5t-296.5 208.5q-192 201 -192 553t188 563q227 262 711 262q310 0 522 -127v101zM1034 139q193 0 324 40.5t170 84.5q4 8 4 553v508
q-69 61 -193 102t-307 41q-393 0 -577 -196q-158 -167 -158 -467q0 -292 178 -467q193 -199 559 -199z" />
    <glyph glyph-name="oe" unicode="&#x153;" horiz-adv-x="2965" 
d="M864 -23q-411 0 -608 191q-154 151 -154 399q0 242 164 387q191 201 600 201q274 0 444.5 -79t225.5 -220q59 143 219.5 221t411.5 78q253 0 420 -82.5t243 -232.5q31 -55 47.5 -145.5t14.5 -182.5h-1280q6 -104 69 -215q60 -88 186 -135t306 -47q303 0 448 104
q72 56 89 125h167q-23 -110 -112 -190q-180 -177 -592 -177q-264 0 -428 77.5t-215 228.5q-124 -306 -666 -306zM2722 631q-7 130 -60 194q-132 191 -497 191q-313 0 -457 -144q-95 -95 -98 -241h1112zM1458 567q0 199 -121 301q-151 138 -471 138q-314 0 -471 -144
q-131 -111 -131 -295q0 -201 127 -309q145 -133 475 -133q327 0 467 137q125 107 125 305z" />
    <glyph glyph-name="Scaron" unicode="&#x160;" horiz-adv-x="1972" 
d="M1810 449q0 -110 -44.5 -195.5t-137 -148t-244.5 -95.5t-358 -33q-416 0 -635.5 131t-236.5 379h184q10 -178 188 -264t502 -86q165 0 282.5 20.5t186.5 60.5t100 92.5t31 121.5q0 97 -55.5 155.5t-192.5 98t-393 68.5q-287 35 -404 63q-269 65 -352 207q-43 73 -43 170
q0 92 41.5 168.5t129 137.5t238.5 95.5t355 34.5q161 0 293 -26t222.5 -69.5t156.5 -104.5t102 -128t52 -143h-189q-18 73 -62.5 129t-120.5 97.5t-192 63t-270 21.5q-296 0 -435.5 -70.5t-139.5 -195.5q0 -35 11.5 -65t28.5 -53t49.5 -43t61 -33.5t77.5 -26t85 -20.5
t97.5 -16.5t100.5 -13t107 -11.5q25 -3 37 -4q131 -14 228 -30.5t191 -41.5t157.5 -59t113 -81t73 -111.5t23.5 -145.5zM600 2028h141l244 -193l242 193h143l-293 -289h-184z" />
    <glyph glyph-name="scaron" unicode="&#x161;" horiz-adv-x="1605" 
d="M1479 319q0 -169 -156.5 -255.5t-495.5 -86.5q-257 0 -405.5 36.5t-214 111.5t-74.5 205h160q3 -80 52 -125t164 -66.5t320 -21.5q113 0 198.5 9.5t140 26t88.5 42t47.5 54t13.5 64.5q0 60 -39.5 100.5t-106.5 60t-154 30t-182.5 16.5t-191.5 14t-183 27t-154 51
t-106.5 91.5t-39.5 142.5q0 148 152 229.5t454 81.5q322 0 482 -83t175 -267h-161q-3 48 -25 82.5t-73.5 64.5t-149.5 45t-242 15q-134 0 -225.5 -12.5t-139 -37t-66.5 -53.5t-19 -69q0 -68 64 -106.5t166 -52t225 -20t246.5 -21t225.5 -44.5t166 -100t64 -179zM418 1536
h141l244 -193l241 193h144l-293 -289h-184z" />
    <glyph glyph-name="Ydieresis" unicode="&#x178;" horiz-adv-x="1910" 
d="M1903 1608l-873 -1076v-532h-176v530l-846 1078h197l739 -930l766 930h193zM1231 1739h-168v227h168v-227zM848 1739h-168v227h168v-227z" />
    <glyph glyph-name="Zcaron" unicode="&#x17d;" horiz-adv-x="1687" 
d="M1616 0h-1512v170l1239 1276h-1183v162h1409v-164l-1250 -1282h1297v-162zM459 2028h141l244 -193l241 193h144l-293 -289h-184z" />
    <glyph glyph-name="zcaron" unicode="&#x17e;" horiz-adv-x="1394" 
d="M1327 0h-1235v139l959 836h-945v147h1176v-143l-960 -834h1005v-145zM311 1536h142l243 -193l242 193h143l-293 -289h-184z" />
    <glyph glyph-name="florin" unicode="&#x192;" horiz-adv-x="1136" 
d="M426 14q-17 -158 -122.5 -250t-260.5 -92q-56 0 -106 3.5t-99 9.5t-51 6v153q88 -16 215 -16q119 3 180.5 53.5t73.5 159.5q0 12 94 936h-278v145h295l22 201q18 160 125.5 244t337.5 84q39 0 74.5 -2t67 -6t51 -7.5t47.5 -9t36 -6.5l-2 -141q-164 28 -247 28
q-125 -1 -194.5 -25.5t-94.5 -65.5t-33 -113l-22 -181h532v-145h-545q-2 -16 -48.5 -487t-47.5 -476z" />
    <glyph glyph-name="circumflex" unicode="&#x2c6;" horiz-adv-x="1030" 
d="M899 1247h-143l-242 193l-242 -193h-143l295 291h182z" />
    <glyph glyph-name="caron" unicode="&#x2c7;" horiz-adv-x="1030" 
d="M129 1536h141l244 -193l242 193h143l-293 -289h-184z" />
    <glyph glyph-name="breve" unicode="&#x2d8;" horiz-adv-x="1030" 
d="M868 1544q0 -56 -23 -110t-66 -98.5t-112 -71.5t-153 -27q-82 0 -150.5 27t-112 71.5t-67.5 98.5t-24 110h121q0 -84 65.5 -143.5t167.5 -59.5t166.5 59.5t64.5 143.5h123z" />
    <glyph glyph-name="dotaccent" unicode="&#x2d9;" horiz-adv-x="1030" 
d="M600 1249h-170v221h170v-221z" />
    <glyph glyph-name="ring" unicode="&#x2da;" horiz-adv-x="1030" 
d="M514 1661q86 0 145.5 -60.5t59.5 -148.5q0 -87 -59.5 -149t-145.5 -62q-85 0 -145 62.5t-60 148.5q0 87 60 148t145 61zM514 1552q-41 0 -70.5 -29.5t-29.5 -70.5t29.5 -70.5t70.5 -29.5t70.5 29.5t29.5 70.5t-29.5 70.5t-70.5 29.5z" />
    <glyph glyph-name="ogonek" unicode="&#x2db;" horiz-adv-x="1038" 
d="M440 -184q0 -41 47 -65t164 -27l11 -111q-176 7 -266.5 62t-90.5 141q0 79 79.5 128t233.5 56v-86q-95 -9 -136.5 -32.5t-41.5 -65.5z" />
    <glyph glyph-name="tilde" unicode="&#x2dc;" horiz-adv-x="1030" 
d="M352 1399q-47 0 -70.5 -34t-23.5 -116h-123q3 277 207 277q55 0 97.5 -16t69 -39t50 -46t53.5 -39t66 -16q45 0 70 33t26 115h121q-1 -137 -52 -207t-147 -70q-56 0 -98.5 16.5t-69.5 39.5t-51 46t-55.5 39.5t-69.5 16.5z" />
    <glyph glyph-name="hungarumlaut" unicode="&#x2dd;" horiz-adv-x="1030" 
d="M573 1241l250 295h144l-271 -295h-123zM287 1241l248 295h145l-270 -295h-123z" />
    <glyph glyph-name="Delta" unicode="&#x394;" horiz-adv-x="1370" 
d="M1090 1245q8 11 32.5 38t32.5 38q24 29 47 9q19 -15 10 -35q-5 -12 -22 -17q-39 -9 -100 -33zM289 1227q-60 23 -101 33q-29 8 -24 33q4 21 24 26q19 3 35 -16q8 -11 32.5 -38t33.5 -38zM653 1063v428h-643v137h1350v-137h-643v-428q88 -14 147.5 -82t59.5 -160
t-59.5 -159.5t-149.5 -79.5v-426h645v-146h-1350v146h641v426q-87 14 -146 81t-59 158t60 159.5t147 82.5zM1096 406q61 -24 100 -33q29 -8 24 -33q-4 -21 -24 -26q-19 -3 -35 16q-8 11 -32.5 38t-32.5 38zM262 383q-58 -63 -67 -76q-24 -29 -47 -9q-19 15 -10 35
q5 12 22 17q33 8 102 33zM717 995v-96l-33 -70l-29 70v96q-62 -12 -103.5 -61t-41.5 -113t40.5 -112t102.5 -60v96l31 68l31 -68v-96q62 11 104.5 59.5t42.5 112.5t-41.5 113t-103.5 61z" />
    <glyph glyph-name="Delta" unicode="&#x2206;" horiz-adv-x="1370" 
d="M1090 1245q8 11 32.5 38t32.5 38q24 29 47 9q19 -15 10 -35q-5 -12 -22 -17q-39 -9 -100 -33zM289 1227q-60 23 -101 33q-29 8 -24 33q4 21 24 26q19 3 35 -16q8 -11 32.5 -38t33.5 -38zM653 1063v428h-643v137h1350v-137h-643v-428q88 -14 147.5 -82t59.5 -160
t-59.5 -159.5t-149.5 -79.5v-426h645v-146h-1350v146h641v426q-87 14 -146 81t-59 158t60 159.5t147 82.5zM1096 406q61 -24 100 -33q29 -8 24 -33q-4 -21 -24 -26q-19 -3 -35 16q-8 11 -32.5 38t-32.5 38zM262 383q-58 -63 -67 -76q-24 -29 -47 -9q-19 15 -10 35
q5 12 22 17q33 8 102 33zM717 995v-96l-33 -70l-29 70v96q-62 -12 -103.5 -61t-41.5 -113t40.5 -112t102.5 -60v96l31 68l31 -68v-96q62 11 104.5 59.5t42.5 112.5t-41.5 113t-103.5 61z" />
    <glyph glyph-name="Omega" unicode="&#x3a9;" horiz-adv-x="1370" 
d="M1090 1245q8 11 32.5 38t32.5 38q24 29 47 9q19 -15 10 -35q-5 -12 -22 -17q-39 -9 -100 -33zM289 1227q-60 23 -101 33q-29 8 -24 33q4 21 24 26q19 3 35 -16q8 -11 32.5 -38t33.5 -38zM653 1063v428h-643v137h1350v-137h-643v-428q88 -14 147.5 -82t59.5 -160
t-59.5 -159.5t-149.5 -79.5v-426h645v-146h-1350v146h641v426q-87 14 -146 81t-59 158t60 159.5t147 82.5zM1096 406q61 -24 100 -33q29 -8 24 -33q-4 -21 -24 -26q-19 -3 -35 16q-8 11 -32.5 38t-32.5 38zM262 383q-58 -63 -67 -76q-24 -29 -47 -9q-19 15 -10 35
q5 12 22 17q33 8 102 33zM717 995v-96l-33 -70l-29 70v96q-62 -12 -103.5 -61t-41.5 -113t40.5 -112t102.5 -60v96l31 68l31 -68v-96q62 11 104.5 59.5t42.5 112.5t-41.5 113t-103.5 61z" />
    <glyph glyph-name="Omega" unicode="&#x2126;" horiz-adv-x="1370" 
d="M1090 1245q8 11 32.5 38t32.5 38q24 29 47 9q19 -15 10 -35q-5 -12 -22 -17q-39 -9 -100 -33zM289 1227q-60 23 -101 33q-29 8 -24 33q4 21 24 26q19 3 35 -16q8 -11 32.5 -38t33.5 -38zM653 1063v428h-643v137h1350v-137h-643v-428q88 -14 147.5 -82t59.5 -160
t-59.5 -159.5t-149.5 -79.5v-426h645v-146h-1350v146h641v426q-87 14 -146 81t-59 158t60 159.5t147 82.5zM1096 406q61 -24 100 -33q29 -8 24 -33q-4 -21 -24 -26q-19 -3 -35 16q-8 11 -32.5 38t-32.5 38zM262 383q-58 -63 -67 -76q-24 -29 -47 -9q-19 15 -10 35
q5 12 22 17q33 8 102 33zM717 995v-96l-33 -70l-29 70v96q-62 -12 -103.5 -61t-41.5 -113t40.5 -112t102.5 -60v96l31 68l31 -68v-96q62 11 104.5 59.5t42.5 112.5t-41.5 113t-103.5 61z" />
    <glyph glyph-name="pi" unicode="&#x3c0;" horiz-adv-x="1390" 
d="M1317 973q-9 -225 -179.5 -368.5t-439.5 -143.5q-274 0 -447 146t-175 366v147q9 232 181.5 375t440.5 143q170 0 308 -63.5t221 -183.5t90 -275v-143zM1255 989q1 19 1 56.5t-1 52.5q-6 219 -162 348t-395 129q-113 0 -212 -29t-177 -85.5t-124 -147.5t-50 -207v-117
q1 -138 73.5 -245.5t200 -165.5t289.5 -58q246 0 400 131t157 338zM541 967v-283h-138v711h396q125 0 192 -64q60 -57 60 -151q0 -96 -60 -156q-54 -57 -178 -57h-272zM913 1174q0 106 -120 106h-252v-211h252q62 0 91 25t29 80z" />
    <glyph glyph-name="endash" unicode="&#x2013;" horiz-adv-x="1349" 
d="M1284 606h-1216v172h1216v-172z" />
    <glyph glyph-name="emdash" unicode="&#x2014;" horiz-adv-x="1738" 
d="M1651 608h-1565v172h1565v-172z" />
    <glyph glyph-name="quoteleft" unicode="&#x2018;" horiz-adv-x="425" 
d="M338 1430v-312h-238v318l144 202l96 -57l-72 -145l11 -6h59z" />
    <glyph glyph-name="quoteright" unicode="&#x2019;" horiz-adv-x="425" 
d="M90 1323v311h238v-317l-144 -203l-96 55l72 148l-10 6h-60z" />
    <glyph glyph-name="quotesinglbase" unicode="&#x201a;" horiz-adv-x="425" 
d="M90 0v311h238v-315l-144 -207l-96 57l72 148l-10 6h-60z" />
    <glyph glyph-name="quotedblleft" unicode="&#x201c;" horiz-adv-x="823" 
d="M735 1417v-299h-227v305l143 215l97 -57l-80 -158l8 -6h59zM328 1417v-299h-228v305l144 215l96 -57l-80 -158l8 -6h60z" />
    <glyph glyph-name="quotedblright" unicode="&#x201d;" horiz-adv-x="823" 
d="M512 1335v299h227v-307l-143 -213l-96 55l80 160l-11 6h-57zM104 1335v299h228v-307l-144 -213l-96 55l80 160l-8 6h-60z" />
    <glyph glyph-name="quotedblbase" unicode="&#x201e;" horiz-adv-x="823" 
d="M512 0v299h227v-305l-143 -215l-96 55l80 160l-11 6h-57zM104 0v299h228v-305l-144 -215l-96 55l80 160l-8 6h-60z" />
    <glyph glyph-name="dagger" unicode="&#x2020;" horiz-adv-x="907" 
d="M877 893h-338v-893l-88 -207l-82 207v893h-338v164h338l-2 567h174q0 -489 -2 -567h338v-164z" />
    <glyph glyph-name="daggerdbl" unicode="&#x2021;" horiz-adv-x="907" 
d="M539 664h319v-142h-315v-524l-88 -205l-82 205v524h-324v142h326v286h-326v142h324l-2 532h174q0 -458 -2 -532h315v-142h-319v-286z" />
    <glyph glyph-name="bullet" unicode="&#x2022;" horiz-adv-x="800" 
d="M406 563q-72 0 -124.5 53.5t-52.5 128.5q0 78 52.5 132.5t124.5 54.5t124 -54.5t52 -132.5q0 -75 -52 -128.5t-124 -53.5z" />
    <glyph glyph-name="ellipsis" unicode="&#x2026;" horiz-adv-x="2351" 
d="M2066 0h-231v301h231v-301zM1284 0h-233v301h233v-301zM502 0h-234v301h234v-301z" />
    <glyph glyph-name="perthousand" unicode="&#x2030;" horiz-adv-x="3887" 
d="M2546 375q0 -79 -37 -149t-106.5 -124t-180 -86t-246.5 -32q-137 0 -247.5 33t-179.5 88t-105.5 124.5t-36.5 145.5v76q0 76 38.5 146.5t109 125.5t179.5 88t240 33q138 0 250 -35t180.5 -92t105 -125.5t36.5 -140.5v-76zM3793 375q0 -79 -37 -148.5t-106.5 -124
t-180 -86.5t-247.5 -32q-136 0 -246 33t-179 88t-106 124.5t-37 145.5v76q0 76 39 146.5t109.5 125.5t179.5 88t240 33q138 0 250 -35t180 -92t104.5 -125.5t36.5 -140.5v-76zM1270 1169q0 -75 -38 -144.5t-108 -124.5t-180 -87.5t-242 -32.5q-136 0 -247 33.5t-180 89
t-105.5 124t-36.5 142.5v76q0 166 152 279.5t413 113.5q140 0 252 -33.5t180 -89.5t104 -125t36 -145v-76zM2413 385v51q0 52 -27.5 101t-80 90t-138.5 65.5t-193 24.5q-110 0 -196 -24t-136.5 -64t-76 -88.5t-25.5 -100.5v-53q0 -116 115 -197t319 -81q116 0 204 24
t137.5 64.5t73.5 87.5t24 100zM3660 385v51q0 52 -27.5 101t-79.5 90t-138 65.5t-193 24.5q-110 0 -196 -24t-136.5 -64t-76.5 -88.5t-26 -100.5v-53q0 -116 115.5 -197t319.5 -81q116 0 204 24t137.5 64.5t73 87.5t23.5 100zM1137 1180v51q0 113 -116 196.5t-323 83.5
q-214 0 -323 -79.5t-109 -196.5v-53q0 -118 115 -198.5t319 -80.5q115 0 202 24t137 64.5t74 88t24 100.5zM2021 1591l-1294 -1591h-113l1295 1591h112z" />
    <glyph glyph-name="guilsinglleft" unicode="&#x2039;" horiz-adv-x="821" 
d="M768 197l-682 465v120l682 471v-178l-528 -350l528 -348v-180z" />
    <glyph glyph-name="guilsinglright" unicode="&#x203a;" horiz-adv-x="821" 
d="M53 197v180l529 348l-529 350v178l680 -471v-120z" />
    <glyph glyph-name="fraction" unicode="&#x2044;" horiz-adv-x="581" 
d="M850 1608l-1022 -1608h-90l1012 1608h100z" />
    <glyph glyph-name="fraction" unicode="&#x2215;" horiz-adv-x="581" 
d="M850 1608l-1022 -1608h-90l1012 1608h100z" />
    <glyph glyph-name="Euro" unicode="&#x20ac;" horiz-adv-x="1953" 
d="M281 862h-226v109h232q10 120 37 207q63 210 256.5 331t488.5 121q294 0 483.5 -119t257.5 -325q21 -64 33 -144h-180q-8 59 -25 111q-52 151 -198 236.5t-373 85.5t-372.5 -85t-200.5 -243q-22 -69 -31 -176h1010v-109h-1018v-104h1018v-111h-1010q12 -111 35 -184
q120 -328 571 -328q452 0 571 328q12 37 21 90h178q-12 -73 -31 -127q-73 -220 -261 -333t-478 -113q-297 0 -482.5 114t-258.5 336q-27 77 -41 217h-232v111h226v104z" />
    <glyph glyph-name="trademark" unicode="&#x2122;" horiz-adv-x="1671" 
d="M1458 1038v371q0 45 -29 72.5t-86 27.5q-56 0 -92.5 -32.5t-36.5 -85.5v-353h-139v387q0 37 -33 60.5t-81 23.5q-54 0 -95 -36t-41 -82v-353h-139v594h139v-90q21 48 80.5 74t118.5 26q68 0 112 -29.5t58 -78.5q11 38 49 64t77 35t75 9q100 0 154.5 -53t54.5 -135v-416
h-146zM621 1513h-250v-253q0 -49 29.5 -80t86.5 -31q101 0 105 2v-111q-12 -6 -158 -6q-87 0 -138.5 50t-51.5 130v299h-224v119h601v-119z" />
    <glyph glyph-name="partialdiff" unicode="&#x2202;" horiz-adv-x="1370" 
d="M1090 1245q8 11 32.5 38t32.5 38q24 29 47 9q19 -15 10 -35q-5 -12 -22 -17q-39 -9 -100 -33zM289 1227q-60 23 -101 33q-29 8 -24 33q4 21 24 26q19 3 35 -16q8 -11 32.5 -38t33.5 -38zM653 1063v428h-643v137h1350v-137h-643v-428q88 -14 147.5 -82t59.5 -160
t-59.5 -159.5t-149.5 -79.5v-426h645v-146h-1350v146h641v426q-87 14 -146 81t-59 158t60 159.5t147 82.5zM1096 406q61 -24 100 -33q29 -8 24 -33q-4 -21 -24 -26q-19 -3 -35 16q-8 11 -32.5 38t-32.5 38zM262 383q-58 -63 -67 -76q-24 -29 -47 -9q-19 15 -10 35
q5 12 22 17q33 8 102 33zM717 995v-96l-33 -70l-29 70v96q-62 -12 -103.5 -61t-41.5 -113t40.5 -112t102.5 -60v96l31 68l31 -68v-96q62 11 104.5 59.5t42.5 112.5t-41.5 113t-103.5 61z" />
    <glyph glyph-name="product" unicode="&#x220f;" horiz-adv-x="1370" 
d="M1090 1245q8 11 32.5 38t32.5 38q24 29 47 9q19 -15 10 -35q-5 -12 -22 -17q-39 -9 -100 -33zM289 1227q-60 23 -101 33q-29 8 -24 33q4 21 24 26q19 3 35 -16q8 -11 32.5 -38t33.5 -38zM653 1063v428h-643v137h1350v-137h-643v-428q88 -14 147.5 -82t59.5 -160
t-59.5 -159.5t-149.5 -79.5v-426h645v-146h-1350v146h641v426q-87 14 -146 81t-59 158t60 159.5t147 82.5zM1096 406q61 -24 100 -33q29 -8 24 -33q-4 -21 -24 -26q-19 -3 -35 16q-8 11 -32.5 38t-32.5 38zM262 383q-58 -63 -67 -76q-24 -29 -47 -9q-19 15 -10 35
q5 12 22 17q33 8 102 33zM717 995v-96l-33 -70l-29 70v96q-62 -12 -103.5 -61t-41.5 -113t40.5 -112t102.5 -60v96l31 68l31 -68v-96q62 11 104.5 59.5t42.5 112.5t-41.5 113t-103.5 61z" />
    <glyph glyph-name="summation" unicode="&#x2211;" horiz-adv-x="1370" 
d="M1090 1245q8 11 32.5 38t32.5 38q24 29 47 9q19 -15 10 -35q-5 -12 -22 -17q-39 -9 -100 -33zM289 1227q-60 23 -101 33q-29 8 -24 33q4 21 24 26q19 3 35 -16q8 -11 32.5 -38t33.5 -38zM653 1063v428h-643v137h1350v-137h-643v-428q88 -14 147.5 -82t59.5 -160
t-59.5 -159.5t-149.5 -79.5v-426h645v-146h-1350v146h641v426q-87 14 -146 81t-59 158t60 159.5t147 82.5zM1096 406q61 -24 100 -33q29 -8 24 -33q-4 -21 -24 -26q-19 -3 -35 16q-8 11 -32.5 38t-32.5 38zM262 383q-58 -63 -67 -76q-24 -29 -47 -9q-19 15 -10 35
q5 12 22 17q33 8 102 33zM717 995v-96l-33 -70l-29 70v96q-62 -12 -103.5 -61t-41.5 -113t40.5 -112t102.5 -60v96l31 68l31 -68v-96q62 11 104.5 59.5t42.5 112.5t-41.5 113t-103.5 61z" />
    <glyph glyph-name="minus" unicode="&#x2212;" horiz-adv-x="1521" 
d="M1384 719h-1251v155h1251v-155z" />
    <glyph glyph-name="radical" unicode="&#x221a;" horiz-adv-x="1841" 
d="M1817 1610l-1018 -1659h-197l-579 708h198l475 -557l946 1508h175z" />
    <glyph glyph-name="infinity" unicode="&#x221e;" horiz-adv-x="1579" 
d="M1473 768q0 -205 -361 -205q-153 0 -230 28.5t-112 78.5q-42 -51 -116 -79t-212 -28q-99 0 -166.5 15t-102.5 43.5t-49.5 62t-14.5 78.5q0 205 340 205q146 0 217.5 -29t105.5 -82q44 52 121 81.5t217 29.5q196 0 279.5 -50t83.5 -149zM1354 768q0 58 -59 85.5t-185 27.5
q-68 0 -117 -9.5t-81 -29t-50 -38.5t-37 -48q20 -35 46.5 -57t85.5 -38t147 -16q250 0 250 123zM449 645q62 0 107 9.5t75 29.5t47.5 39.5t36.5 50.5q-28 51 -83.5 79t-174.5 28q-122 0 -176 -31t-54 -90t52 -87t170 -28z" />
    <glyph glyph-name="integral" unicode="&#x222b;" horiz-adv-x="1370" 
d="M1090 1245q8 11 32.5 38t32.5 38q24 29 47 9q19 -15 10 -35q-5 -12 -22 -17q-39 -9 -100 -33zM289 1227q-60 23 -101 33q-29 8 -24 33q4 21 24 26q19 3 35 -16q8 -11 32.5 -38t33.5 -38zM653 1063v428h-643v137h1350v-137h-643v-428q88 -14 147.5 -82t59.5 -160
t-59.5 -159.5t-149.5 -79.5v-426h645v-146h-1350v146h641v426q-87 14 -146 81t-59 158t60 159.5t147 82.5zM1096 406q61 -24 100 -33q29 -8 24 -33q-4 -21 -24 -26q-19 -3 -35 16q-8 11 -32.5 38t-32.5 38zM262 383q-58 -63 -67 -76q-24 -29 -47 -9q-19 15 -10 35
q5 12 22 17q33 8 102 33zM717 995v-96l-33 -70l-29 70v96q-62 -12 -103.5 -61t-41.5 -113t40.5 -112t102.5 -60v96l31 68l31 -68v-96q62 11 104.5 59.5t42.5 112.5t-41.5 113t-103.5 61z" />
    <glyph glyph-name="approxequal" unicode="&#x2248;" horiz-adv-x="1576" 
d="M1477 1104q2 -121 -84 -198t-244 -77q-78 0 -148 17t-108.5 35.5t-99.5 52.5q-9 5 -41.5 22.5t-45.5 24t-42.5 20.5t-49.5 20t-49 14t-58 11t-61 3q-107 0 -161 -41t-54 -107h-131q-2 118 82 193t242 75q85 0 162 -19.5t115.5 -38t105.5 -56.5q108 -62 161 -81
q75 -26 158 -26q105 0 162.5 45t57.5 111h131zM1477 762q2 -121 -84 -198t-244 -77q-78 0 -147.5 17t-109.5 36t-99 54q-9 5 -41.5 22.5t-45.5 24t-42.5 20.5t-49.5 20t-49 14t-58 11t-61 3q-107 0 -161 -42t-54 -108l-131 2q-2 118 82 193t242 75q65 0 119.5 -9t106.5 -30
t78 -34t79 -43q108 -60 155 -77q78 -28 164 -28q105 0 162.5 45t57.5 109h131z" />
    <glyph glyph-name="notequal" unicode="&#x2260;" horiz-adv-x="1529" 
d="M1425 604h-761l-164 -239h-97l166 239h-467v125h553l138 199h-691v123h772l170 243h93l-168 -243h456v-123h-540l-135 -199h675v-125z" />
    <glyph glyph-name="lessequal" unicode="&#x2264;" horiz-adv-x="1507" 
d="M1372 475l-1237 406v112l1237 410v-119l-1083 -348l1083 -342v-119zM1372 276h-1237v113h1237v-113z" />
    <glyph glyph-name="greaterequal" unicode="&#x2265;" horiz-adv-x="1507" 
d="M1372 881l-1237 -406v119l1084 342l-1084 348v119l1237 -410v-112zM1372 276h-1237v113h1237v-113z" />
    <glyph glyph-name="lozenge" unicode="&#x25ca;" horiz-adv-x="1789" 
d="M1747 655l-772 -655h-158l-774 655l774 656h158zM1546 655l-649 551l-651 -551l651 -555z" />
    <glyph glyph-name="apple" unicode="&#xf8ff;" horiz-adv-x="1370" 
d="M1090 1245q8 11 32.5 38t32.5 38q24 29 47 9q19 -15 10 -35q-5 -12 -22 -17q-39 -9 -100 -33zM289 1227q-60 23 -101 33q-29 8 -24 33q4 21 24 26q19 3 35 -16q8 -11 32.5 -38t33.5 -38zM653 1063v428h-643v137h1350v-137h-643v-428q88 -14 147.5 -82t59.5 -160
t-59.5 -159.5t-149.5 -79.5v-426h645v-146h-1350v146h641v426q-87 14 -146 81t-59 158t60 159.5t147 82.5zM1096 406q61 -24 100 -33q29 -8 24 -33q-4 -21 -24 -26q-19 -3 -35 16q-8 11 -32.5 38t-32.5 38zM262 383q-58 -63 -67 -76q-24 -29 -47 -9q-19 15 -10 35
q5 12 22 17q33 8 102 33zM717 995v-96l-33 -70l-29 70v96q-62 -12 -103.5 -61t-41.5 -113t40.5 -112t102.5 -60v96l31 68l31 -68v-96q62 11 104.5 59.5t42.5 112.5t-41.5 113t-103.5 61z" />
    <glyph glyph-name="NUL" horiz-adv-x="0" 
 />
    </font>
</defs>
</svg>
