<?xml version="1.0" standalone="no"?>
<!DOCTYPE svg PUBLIC "-//W3C//DTD SVG 1.1//EN" "http://www.w3.org/Graphics/SVG/1.1/DTD/svg11.dtd" >
<svg xmlns="http://www.w3.org/2000/svg" xmlns:xlink="http://www.w3.org/1999/xlink" version="1.1">
<metadata>
Created by FontForge 20201107 at Sat Feb 14 04:37:23 2026
 By www-data
[c] Copyright 2003-2004, The Font Bureau, Inc. Designed by David Berlow. All rights reserved.
</metadata>
<defs>
<font id="TitlingGothicFBSkyline-Bold" horiz-adv-x="866" >
  <font-face 
    font-family="TitlingGothicFB Skyline Bold"
    font-weight="700"
    font-stretch="normal"
    units-per-em="2048"
    panose-1="2 0 5 6 4 0 0 2 0 4"
    ascent="1638"
    descent="-410"
    x-height="1126"
    cap-height="1638"
    bbox="-174 -432 1886 2040"
    underline-thickness="40"
    underline-position="-271"
    unicode-range="U+0020-FB02"
  />
<missing-glyph horiz-adv-x="1024" 
 />
    <glyph glyph-name="fi" unicode="fi" horiz-adv-x="952" 
d="M557 819h-113v-819h-354v811h-84v315h84v205q0 67 19 121.5t60 98t112 67.5t168 24q34 0 112 -4v-286q-6 0 -18 1t-23 1q-36 0 -56 -26t-20 -73v-129h482v-1069q0 -12 3.5 -26.5t6.5 -22.5l4 -8h-360q-23 6 -23 61v758z" />
    <glyph glyph-name="fl" unicode="fl" horiz-adv-x="927" 
d="M6 811v315h72v205q0 311 323 311q37 0 107 -4v-286q-12 2 -35 2q-39 0 -39 -51v-177h70v-315h-70v-811h-356v811h-72zM918 0q-355 -2 -355 0q-16 10 -16 80v1468q0 76 -2 90h356q4 -22 4 -59v-1507q0 -62 13 -72z" />
    <glyph glyph-name="f_f" unicode="ff" horiz-adv-x="968" 
d="M432 811v-811h-354v811h-72v315h72v205q0 311 321 311q41 0 119 -4v-286q-2 0 -19.5 1t-19.5 1q-47 0 -47 -72v-156h109v205q0 311 321 311q35 0 113 -4v-286q-6 0 -18 1t-23 1q-39 0 -39 -51v-177h80v-315h-80v-811h-354v811h-109z" />
    <glyph glyph-name="f_f_i" unicode="ffi" horiz-adv-x="1400" 
d="M1006 819h-111v-819h-354v819h-109v-819h-354v811h-72v315h72v205q0 311 321 311q41 0 119 -4v-286q-2 0 -19.5 1t-19.5 1q-47 0 -47 -72v-156h109v205q0 311 321 311q35 0 113 -4v-286q-6 0 -18 1t-23 1q-39 0 -39 -51v-177h479v-1069q0 -12 4 -26.5t8 -22.5l3 -8h-361
q-22 6 -22 61v758z" />
    <glyph glyph-name="f_f_l" unicode="ffl" horiz-adv-x="1388" 
d="M432 811v-811h-354v811h-72v315h72v205q0 311 321 311q41 0 119 -4v-286q-2 0 -19.5 1t-19.5 1q-47 0 -47 -72v-156h109v205q0 311 321 311q37 0 107 -4v-286q-12 2 -35 2q-39 0 -39 -51v-177h70v-315h-70v-811h-354v811h-109zM1378 0q-354 -2 -354 0q-16 10 -16 80v1468
q0 76 -2 90h356q4 -22 4 -59v-1507q0 -63 12 -72z" />
    <glyph glyph-name=".notdef" horiz-adv-x="1024" 
 />
    <glyph glyph-name=".null" horiz-adv-x="0" 
 />
    <glyph glyph-name="nonmarkingreturn" horiz-adv-x="682" 
 />
    <glyph glyph-name="space" unicode=" " horiz-adv-x="247" 
 />
    <glyph glyph-name="space" unicode="&#xa0;" horiz-adv-x="247" 
 />
    <glyph glyph-name="exclam" unicode="!" horiz-adv-x="450" 
d="M416 1636l-39 -1138h-305l-39 1138h383zM401 0h-352v430h352v-430z" />
    <glyph glyph-name="quotedbl" unicode="&#x22;" horiz-adv-x="751" 
d="M741 1638l-12 -657h-323l-13 657h348zM344 1638l-12 -657h-309l-13 657h334z" />
    <glyph glyph-name="numbersign" unicode="#" horiz-adv-x="806" 
d="M799 1141l-27 -271h-110l-13 -141h123l-27 -270h-118l-43 -477h-217l41 477h-70l-43 -477h-217l43 477h-115l27 270h110l13 141h-123l26 271h119l43 487h219l-45 -487h72l41 487h219l-43 -487h115zM444 870h-71l-13 -141h70z" />
    <glyph glyph-name="dollar" unicode="$" horiz-adv-x="849" 
d="M528 1642q75 -13 133 -47.5t93.5 -84.5t55 -108t24.5 -126q4 -51 4 -156h-367v121q0 64 -41 64q-26 0 -36.5 -17t-10.5 -55q0 -75 40 -135.5t155 -167.5q100 -91 152.5 -158t80 -151t27.5 -199q0 -173 -79 -282t-231 -136v-113h-196v109q-152 19 -237 100.5t-85 218.5
v168h367v-116q0 -56 39 -56q41 0 41 76q0 89 -34 143.5t-163 170.5q-109 97 -160 166.5t-70.5 147t-19.5 206.5q0 161 86 273.5t236 143.5v39h196v-39z" />
    <glyph glyph-name="percent" unicode="%" horiz-adv-x="1280" 
d="M627 1147q0 -145 -77 -230.5t-224 -85.5q-145 0 -216 85t-71 231v201q0 131 77 223t218 92q78 0 137 -27.5t91.5 -73.5t48.5 -100t16 -114v-201zM1237 297q0 -145 -77 -231t-222 -86t-217 85t-72 232v199q0 63 18.5 118.5t54 100t93 70.5t129.5 26q79 0 138 -27.5
t91.5 -74t48 -100t15.5 -113.5v-199zM1094 1620l-750 -1620h-172l750 1620h172zM989 319v158q0 64 -45 64t-45 -64v-158q0 -38 9.5 -56.5t35.5 -18.5t35.5 18t9.5 57zM377 1169v160q0 62 -43 62q-45 0 -45 -62v-160q0 -37 10 -55t35 -18t34 17.5t9 55.5z" />
    <glyph glyph-name="ampersand" unicode="&#x26;" horiz-adv-x="1095" 
d="M578 752q73 -138 98 -183q16 85 16 189h314q0 -302 -99 -492q35 -49 106 -147t87 -119h-375q-6 12 -20.5 35t-16.5 26q-108 -71 -262 -71q-170 0 -287.5 79.5t-124.5 223.5q-4 90 0 172q4 101 52 184.5t133 171.5q-117 226 -117 359q0 9 -1 38t-1 56.5t2 50.5q3 46 16 90
t41.5 86t69.5 73.5t103.5 51t138.5 19.5q154 0 241.5 -92.5t93.5 -231.5v-113q-4 -129 -59 -236t-149 -220zM426 1038q56 92 59 176v52q0 22 -11 34.5t-28 12.5q-43 0 -43 -60v-84q0 -61 23 -131zM379 532q-31 -60 -31 -129q0 -55 22 -77t68 -25q40 0 56 21
q-16 28 -56.5 103.5t-58.5 106.5z" />
    <glyph glyph-name="quotesingle" unicode="'" horiz-adv-x="374" 
d="M358 1638l-12 -716h-317l-13 716h342z" />
    <glyph glyph-name="parenleft" unicode="(" horiz-adv-x="538" 
d="M535 -143h-394q-49 158 -83.5 405t-34.5 488q0 231 37 472.5t81 415.5h394q-46 -185 -83.5 -430t-37.5 -463q0 -226 36 -471t85 -417z" />
    <glyph glyph-name="parenright" unicode=")" horiz-adv-x="538" 
d="M518 750q0 -241 -35 -487.5t-84 -405.5h-393q49 172 85 417t36 471q0 218 -37.5 463t-83.5 430h393q45 -175 82 -416t37 -472z" />
    <glyph glyph-name="asterisk" unicode="*" horiz-adv-x="909" 
d="M559 1423l207 78l65 -209l-215 -78l140 -182l-166 -129l-137 180l-138 -180l-165 129l139 180l-213 80l65 209l211 -78v236h207v-236z" />
    <glyph glyph-name="plus" unicode="+" horiz-adv-x="708" 
d="M698 666h-190v-238h-305v238h-193v286h193v238h305v-238h190v-286z" />
    <glyph glyph-name="comma" unicode="," horiz-adv-x="430" 
d="M399 -10l-225 -242l-154 109l86 133v10h-75v442h368v-452z" />
    <glyph glyph-name="hyphen" unicode="-" horiz-adv-x="614" 
d="M602 616h-590v383h590v-383z" />
    <glyph glyph-name="hyphen" unicode="&#xad;" horiz-adv-x="614" 
d="M602 616h-590v383h590v-383z" />
    <glyph glyph-name="period" unicode="." horiz-adv-x="430" 
d="M401 0h-372v442h372v-442z" />
    <glyph glyph-name="slash" unicode="/" horiz-adv-x="407" 
d="M403 1638l-208 -1970h-222l209 1970h221z" />
    <glyph glyph-name="zero" unicode="0" horiz-adv-x="874" 
d="M438 1657q91 0 163 -25.5t117 -70t72 -95.5t39 -112q27 -171 27 -533q0 -104 -9.5 -261t-23.5 -249q-23 -153 -116.5 -241t-268.5 -88q-333 0 -387 329q-13 84 -22 244t-9 266q0 379 25 533q11 51 24.5 90t43 81t69.5 69t105.5 45t150.5 18zM475 823q0 91 -1 242.5
t-1 171.5q0 43 -7.5 59.5t-29.5 16.5q-21 0 -28 -18t-7 -60q0 -30 -2 -197t-2 -221q0 -314 4 -440q0 -39 8 -55.5t29 -16.5q20 0 28.5 16.5t8.5 55.5v446z" />
    <glyph glyph-name="one" unicode="1" horiz-adv-x="606" 
d="M578 0h-373v1139h-197v317q219 4 275 177q2 4 2 5h293v-1638z" />
    <glyph glyph-name="two" unicode="2" horiz-adv-x="874" 
d="M844 0h-817v332q0 42 32.5 102t81 121t106 137t106.5 148t82 157.5t34 161.5v84q0 45 -9.5 59.5t-27.5 14.5q-15 0 -26 -14t-11 -46v-194h-370v254q0 61 28.5 120.5t80.5 109t136 80t185 30.5q382 0 407 -330q1 -22 0.5 -101.5t-2.5 -107.5q-8 -91 -50.5 -190t-99 -181.5
t-113 -155.5t-100.5 -135.5t-53 -99.5h400v-356z" />
    <glyph glyph-name="three" unicode="3" 
d="M541 872q134 -4 216 -78t93 -188q6 -105 -2 -280q-9 -156 -119 -250t-299 -94t-300 83.5t-114 231.5l-4 256h369v-203q0 -53 37 -53q21 0 30 17t9 59v178q0 65 -23.5 84.5t-95.5 21.5l-133 2v347h160q46 3 67 25t21 71v160q0 32 -8.5 43.5t-24.5 11.5q-31 0 -31 -60
l-2 -163h-348q2 207 6 254q7 123 108.5 216t274.5 93q191 0 291 -95t100 -243v-123q0 -123 -69.5 -217t-208.5 -107z" />
    <glyph glyph-name="four" unicode="4" horiz-adv-x="925" 
d="M920 285h-115v-285h-361v285h-436v350l387 1003h410v-1022h115v-331zM444 616v338l-118 -338h118z" />
    <glyph glyph-name="five" unicode="5" horiz-adv-x="868" 
d="M852 301q-3 -46 -16 -88.5t-43.5 -85.5t-76 -74.5t-117.5 -51t-163 -19.5q-206 0 -311.5 86.5t-110.5 242.5v199h371q0 -5 1 -72.5t1 -77.5q0 -37 8.5 -52t28.5 -15q19 0 27 14.5t8 48.5q0 21 -1 175t-1 200q0 53 -33 53q-39 0 -39 -116h-356v970h784v-358h-442v-213
q22 43 65.5 62.5t118.5 19.5q125 0 206 -69t89 -179q6 -77 7 -286.5t-5 -313.5z" />
    <glyph glyph-name="six" unicode="6" horiz-adv-x="872" 
d="M809 209q-19 -50 -45 -87.5t-67 -71t-103.5 -51t-144.5 -17.5q-267 0 -363 204q-37 81 -51.5 271t-14.5 364q0 292 31 504q23 150 123 241t277 91q93 0 163 -24.5t113 -69.5t67 -99.5t33 -122.5q7 -59 7 -225h-355v101q0 56 -7.5 76t-31.5 20q-22 0 -32 -21t-11 -78v-231
q58 55 176 55q95 0 157 -42t89 -117q31 -94 27.5 -339t-37.5 -331zM469 365v301q0 47 -37 47q-33 0 -39 -49q0 -40 3 -165t3 -139q1 -31 10 -44t27 -13q30 0 33 62z" />
    <glyph glyph-name="seven" unicode="7" horiz-adv-x="757" 
d="M754 1325l-281 -1325h-407l290 1280h-350v358h748v-313z" />
    <glyph glyph-name="eight" unicode="8" horiz-adv-x="915" 
d="M897 338q-5 -167 -117.5 -261.5t-324.5 -94.5q-123 0 -209 26t-134 76.5t-70 111.5t-26 142q-5 63 7 332q6 83 62.5 140.5t131.5 80.5q-70 19 -119.5 76t-50.5 147q0 11 -2 115t-2 117q2 40 10.5 76t26.5 72t50 64.5t75.5 51.5t107 35t142.5 12q114 0 198 -27.5t129 -74
t65.5 -98t20.5 -109.5v-215q-1 -89 -49.5 -152t-128.5 -90q88 -18 145 -87.5t62 -156.5q6 -145 0 -309zM494 367v276q0 59 -39 59q-16 0 -28.5 -14.5t-12.5 -46.5v-272q0 -58 41 -58q39 0 39 56zM489 1077v203q0 51 -36 51q-33 0 -33 -51v-201q0 -49 35 -49q34 0 34 47z" />
    <glyph glyph-name="nine" unicode="9" 
d="M815 307q-52 -327 -397 -327q-159 0 -256 82t-117 235q-8 68 -8 203h352v-123q0 -72 41 -72t41 66v262q-56 -53 -166 -53q-199 0 -256 163q-32 97 -26.5 341t38.5 343q35 104 134 167t245 63q133 0 213 -47.5t127 -147.5q36 -82 52 -275t16 -356q0 -125 -9.5 -281
t-23.5 -243zM475 920q0 40 -1 181.5t-1 155.5q0 56 -41 56q-16 0 -26.5 -15.5t-10.5 -44.5v-323q0 -47 39 -47q27 0 41 37z" />
    <glyph glyph-name="colon" unicode=":" horiz-adv-x="409" 
d="M377 725h-340v426h340v-426zM377 0h-340v426h340v-426z" />
    <glyph glyph-name="semicolon" unicode=";" horiz-adv-x="409" 
d="M379 725h-334v426h334v-426zM379 -4l-201 -252l-153 111l79 135v10h-59v426h334v-430z" />
    <glyph glyph-name="less" unicode="&#x3c;" horiz-adv-x="647" 
d="M623 319l-615 261v354l615 262v-293l-359 -145l359 -150v-289z" />
    <glyph glyph-name="equal" unicode="=" horiz-adv-x="714" 
d="M694 840h-674v270h674v-270zM694 489h-674v271h674v-271z" />
    <glyph glyph-name="greater" unicode="&#x3e;" horiz-adv-x="647" 
d="M637 580l-612 -261v289l356 150l-356 145v293l612 -262v-354z" />
    <glyph glyph-name="question" unicode="?" horiz-adv-x="811" 
d="M786 1180q-2 -63 -34 -127.5t-74.5 -122t-84 -119t-68 -143t-21.5 -170.5h-291q-9 117 9 213t50 157t65.5 111.5t58 103.5t24.5 107v108q0 60 -33 60q-15 0 -25 -14.5t-10 -40.5v-158h-332v229q0 125 112 203t274 78q171 0 271 -72.5t109 -200.5q6 -96 0 -202zM543 0
h-361v430h361v-430z" />
    <glyph glyph-name="at" unicode="@" horiz-adv-x="1388" 
d="M1366 874q-5 -133 -46 -241t-117 -173t-175 -65q-38 0 -68 6t-58.5 20.5t-47.5 44t-25 73.5q-66 -144 -249 -144q-139 0 -208 87t-63 247q3 87 28 169.5t68.5 150t111.5 108.5t149 41q144 0 170 -100l16 71h221q-11 -96 -38 -260.5t-27 -167.5q-8 -50 6 -75t59 -25
q43 0 70 33.5t37.5 83t13.5 123.5q9 242 -107.5 395.5t-328.5 153.5q-111 0 -216.5 -41.5t-191.5 -119t-140 -202t-58 -276.5q-5 -133 20.5 -240.5t74.5 -182t120 -125t154.5 -73.5t180.5 -23q99 0 190 33t157 84l59 -112q-38 -27 -67 -44t-81 -40.5t-119.5 -35.5
t-146.5 -12q-118 0 -220 27.5t-187.5 88t-145 149.5t-91 218.5t-27.5 289.5t60.5 299.5t152.5 239.5t232 158t292 58q114 0 213 -34.5t172 -97t124.5 -146.5t76 -185t20.5 -211zM758 852q3 16 0.5 30.5t-18.5 28t-46 13.5q-45 0 -76.5 -63.5t-31.5 -131.5q0 -17 1 -26
t5.5 -21.5t16.5 -18.5t32 -6q40 0 65 26.5t35 68.5q12 48 17 100z" />
    <glyph glyph-name="A" unicode="A" horiz-adv-x="931" 
d="M412 420q-3 -82 -8.5 -187t-9.5 -169l-5 -64h-389l184 1638h584l164 -1638h-395q-15 236 -21 420h-104zM502 713l-23 293l-16 311l-14 -309l-23 -295h76z" />
    <glyph glyph-name="B" unicode="B" horiz-adv-x="966" 
d="M557 0h-524v1638h530q197 0 281 -92.5t84 -290.5q0 -205 -49.5 -299.5t-171.5 -109.5q138 -16 189.5 -111.5t51.5 -285.5q0 -124 -17.5 -205t-61.5 -138t-119.5 -81.5t-192.5 -24.5zM510 1149q0 79 -4 129q-6 41 -49 41h-33v-356h41q13 0 27.5 11.5t15.5 37.5q2 25 2 137
zM516 367q2 29 2 131q0 96 -2 123q-2 47 -45 47h-47v-353h47q22 0 33 11.5t12 40.5z" />
    <glyph glyph-name="C" unicode="C" horiz-adv-x="909" 
d="M891 631v-289q0 -154 -110.5 -257t-311.5 -103q-195 0 -298 79t-128 213q-23 123 -23 549q0 105 5 265t8 206q11 170 123 263.5t321 93.5q392 0 410 -389q2 -57 2 -267h-375v228q0 53 -41 53t-41 -59q-2 -76 -2 -381q0 -383 2 -420q1 -38 11.5 -53t31.5 -15t31 16t10 56
v211h375z" />
    <glyph glyph-name="D" unicode="D" horiz-adv-x="903" 
d="M797 129q-46 -66 -113 -97.5t-176 -31.5h-475v1638h422q131 0 214.5 -28.5t127.5 -93.5q53 -69 71.5 -233t18.5 -427q0 -357 -16 -502.5t-74 -224.5zM506 362q6 105 6 496q0 279 -8 381q-3 74 -47 74h-35v-1020h45q16 0 27 18t12 51z" />
    <glyph glyph-name="E" unicode="E" horiz-adv-x="776" 
d="M770 0h-737v1638h735v-376h-342v-261h317v-352h-317v-280h344v-369z" />
    <glyph glyph-name="F" unicode="F" horiz-adv-x="782" 
d="M776 1262h-350v-261h315v-368h-315v-633h-393v1638h743v-376z" />
    <glyph glyph-name="G" unicode="G" horiz-adv-x="935" 
d="M920 0h-287l-19 49q-28 -28 -86 -45.5t-118 -17.5q-167 0 -268.5 85.5t-108.5 247.5q-13 198 -13 492q0 21 -0.5 97t0 119.5t1.5 108.5t5 115.5t11 89.5q7 41 22.5 80.5t49 83t80 75t120.5 52.5t164 21q89 0 161 -20.5t117 -52.5t77 -76t47 -85.5t22 -87.5l8 -291h-387
v199q0 68 -41 68q-22 0 -31.5 -16.5t-9.5 -57.5q-4 -242 -4 -416q0 -287 4 -409q2 -59 12 -79t41 -20q29 0 38.5 19t9.5 71v222h-66v340h444v-594z" />
    <glyph glyph-name="H" unicode="H" horiz-adv-x="931" 
d="M899 0h-393v647h-82v-647h-391v1638h391v-647h82v647h393v-1638z" />
    <glyph glyph-name="I" unicode="I" horiz-adv-x="473" 
d="M440 0h-405v1638h405v-1638z" />
    <glyph glyph-name="J" unicode="J" horiz-adv-x="583" 
d="M555 371q0 -207 -100.5 -290t-329.5 -83q-29 0 -44 0.5t-21 1t-20.5 2.5t-33.5 4v367q65 0 94 4q33 4 47.5 27.5t14.5 50.5v1183h393v-1267z" />
    <glyph glyph-name="K" unicode="K" horiz-adv-x="1007" 
d="M1004 0h-433l-116 526l-31 -73v-453h-391v1638h391v-583l190 583h396l-244 -704z" />
    <glyph glyph-name="L" unicode="L" horiz-adv-x="821" 
d="M817 0h-784v1638h405v-1269h379v-369z" />
    <glyph glyph-name="M" unicode="M" horiz-adv-x="1357" 
d="M1327 0h-358l2 836l-121 -836h-328l-133 836l2 -836h-358v1638h528l125 -790l129 790h512v-1638z" />
    <glyph glyph-name="N" unicode="N" horiz-adv-x="888" 
d="M856 0h-311l-150 600v-600h-362v1638h301l153 -602v602h369v-1638z" />
    <glyph glyph-name="O" unicode="O" horiz-adv-x="923" 
d="M461 1651q405 0 438 -361q6 -55 6 -450q0 -383 -6 -471q-22 -392 -438 -392q-417 0 -436 361q-5 165 -5 485q0 357 5 439q4 82 28 148.5t72.5 122.5t134 87t201.5 31zM463 326q43 0 43 63q4 152 4 428q0 343 -2 400q-1 52 -9.5 67.5t-33.5 15.5t-32.5 -16t-10.5 -70
q-2 -57 -2 -399q0 -390 2 -426q2 -34 10.5 -48.5t30.5 -14.5z" />
    <glyph glyph-name="P" unicode="P" horiz-adv-x="944" 
d="M928 1120q0 -289 -107 -405q-93 -99 -284 -111l-107 -2v-602h-397v1638h510q196 0 291 -118q94 -123 94 -400zM530 1098q0 27 -0.5 39.5t-2 37.5t-5.5 37.5t-11 27.5t-19.5 21.5t-28.5 6.5h-33v-334h23q23 0 38 7t23 15.5t11.5 31.5t4 37t0.5 51v22z" />
    <glyph glyph-name="Q" unicode="Q" horiz-adv-x="923" 
d="M752 66l6 -7q7 -7 16.5 -17t16.5 -17q51 -40 57 -43l-205 -287q-4 2 -32.5 26t-72 61t-75.5 66q-28 26 -65 63.5t-61.5 64t-25.5 28.5q-17 4 -98 37q-28 12 -57.5 35.5t-59 59.5t-49.5 90t-22 116q0 4 -2.5 197.5t-2.5 283.5q0 91 2.5 265t2.5 176q0 76 23.5 143
t73 123.5t136.5 89.5t203 33q405 0 438 -361q6 -60 6 -452q0 -207 -6 -471q-1 -124 -45 -201.5t-102 -101.5zM465 276q22 0 31.5 15t11.5 49q4 122 4 455q0 358 -4 446q0 28 -10 40.5t-33 12.5q-24 0 -32.5 -15t-10.5 -46q-4 -82 -4 -451q0 -379 2 -442q3 -37 13.5 -50.5
t31.5 -13.5z" />
    <glyph glyph-name="R" unicode="R" horiz-adv-x="944" 
d="M918 1151q0 -170 -46 -279q-38 -91 -94 -122l160 -750h-393l-115 635h-16v-635h-381v1638h510q375 0 375 -487zM520 1110q0 91 -12.5 128.5t-46.5 37.5h-41v-309q35 0 47 2q53 5 53 141z" />
    <glyph glyph-name="S" unicode="S" horiz-adv-x="849" 
d="M838 408q0 -205 -107.5 -318t-308.5 -113q-190 0 -301 82.5t-111 237.5v203h365v-148q0 -51 41 -51q39 0 39 74q0 79 -24.5 130.5t-98.5 125.5q-13 14 -82 78t-78 73q-89 84 -127.5 180.5t-38.5 266.5q0 194 115 311t305 117q101 0 178.5 -30t124 -82.5t71 -117.5
t29.5 -143l5 -160h-367v125q0 64 -39 64q-25 0 -35 -18.5t-10 -59.5q0 -69 24 -118.5t82 -106.5q137 -126 164 -158q96 -96 140.5 -195.5t44.5 -248.5z" />
    <glyph glyph-name="T" unicode="T" horiz-adv-x="802" 
d="M797 1262h-199v-1262h-397v1262h-195v376h791v-376z" />
    <glyph glyph-name="U" unicode="U" horiz-adv-x="923" 
d="M893 399q0 -201 -111.5 -308t-310.5 -107q-97 0 -176 24t-139.5 73t-93.5 130t-33 188v1239h391v-1249q0 -38 9 -51.5t30 -13.5q22 0 30.5 13t8.5 50v1251h395v-1239z" />
    <glyph glyph-name="V" unicode="V" horiz-adv-x="911" 
d="M909 1638l-213 -1638h-508l-186 1638h395l60 -1099l57 1099h395z" />
    <glyph glyph-name="W" unicode="W" horiz-adv-x="1435" 
d="M1434 1638l-174 -1638h-476q-55 512 -69 725q-3 -96 -19.5 -277t-31.5 -314l-15 -134h-461l-188 1638h399q50 -851 50 -1056q0 91 20.5 355t40.5 483l20 218h373q96 -851 96 -1056q0 91 9.5 355t18.5 483l9 218h398z" />
    <glyph glyph-name="X" unicode="X" horiz-adv-x="1003" 
d="M502 303l-76 -303h-424l289 864l-268 774h415l84 -319l82 319h391l-266 -864l270 -774h-415z" />
    <glyph glyph-name="Y" unicode="Y" horiz-adv-x="983" 
d="M983 1638l-301 -991v-647h-399v637l-283 1001h395q78 -436 86 -542q3 48 28 183.5t49 246.5l24 112h401z" />
    <glyph glyph-name="Z" unicode="Z" horiz-adv-x="837" 
d="M831 0h-821v340l383 922h-348v376h780v-342l-383 -927h389v-369z" />
    <glyph glyph-name="bracketleft" unicode="[" horiz-adv-x="466" 
d="M455 -332h-416v1970h416v-301h-74v-1382h74v-287z" />
    <glyph glyph-name="backslash" unicode="\" horiz-adv-x="407" 
d="M4 1638h221l207 -1970h-219z" />
    <glyph glyph-name="bracketright" unicode="]" horiz-adv-x="466" 
d="M12 -332v287h72v1388h-72v295h414v-1970h-414z" />
    <glyph glyph-name="asciicircum" unicode="^" horiz-adv-x="968" 
d="M483 1352l-264 -291l-209 219l338 377h273l337 -377l-208 -219z" />
    <glyph glyph-name="underscore" unicode="_" horiz-adv-x="700" 
d="M700 -365h-700v322h700v-322z" />
    <glyph glyph-name="grave" unicode="`" 
d="M639 1200h-330l-188 336h377z" />
    <glyph glyph-name="a" unicode="a" horiz-adv-x="815" 
d="M803 0h-352q-5 72 -5 76q-64 -86 -198 -86q-29 0 -55.5 4t-59 18.5t-56.5 37.5t-42.5 64.5t-22.5 96.5q0 159 2 188q11 122 89 198.5t241 104.5q80 14 102 15v94q0 26 -7 37.5t-25 11.5q-35 0 -35 -49v-74h-332q-3 81 12 176q16 97 113 165.5t254 68.5q189 0 278 -80
t89 -217q0 -47 -2.5 -163.5t-2.5 -168.5q-2 -76 -2 -282q0 -231 17 -236zM442 498q-2 0 -8 -2l-12 -4q-32 -19 -39 -31q-14 -25 -14 -80q0 -60 4 -78q3 -31 37 -31q36 0 36 47v121q0 34 -4 58z" />
    <glyph glyph-name="b" unicode="b" horiz-adv-x="833" 
d="M561 1141q97 0 153.5 -53.5t78.5 -163.5q22 -116 22 -344q0 -184 -12 -289q-19 -150 -80.5 -223.5t-177.5 -73.5q-66 0 -107.5 15t-83.5 52l-43 -61h-282v1638h346v-589q45 92 186 92zM414 840q-18 0 -27.5 -12.5t-9.5 -32.5v-232q0 -229 2 -274q2 -22 9.5 -32.5
t27.5 -10.5q19 0 26 10t9 37q2 43 2 270q0 181 -2 234q0 43 -37 43z" />
    <glyph glyph-name="c" unicode="c" horiz-adv-x="786" 
d="M770 618h-330v152q0 4 -1 13t-1.5 12.5t-1 10.5t-1.5 10t-3 8t-4 7t-5 4.5t-6.5 3.5t-8.5 1q-21 0 -30 -14.5t-9 -47.5q0 -63 -1 -126t-1 -91v-207q2 -40 9.5 -55.5t29.5 -15.5q20 0 27 14.5t7 56.5q0 5 1 69.5t1 82.5h328q0 -268 -35 -344q-79 -176 -325 -176
q-148 0 -229 49t-118 137q-45 105 -45 391q0 216 41 365q29 95 119.5 154t224.5 59q66 0 119 -11.5t87 -29.5t60.5 -45.5t41.5 -53t28 -59.5q12 -29 21.5 -140t9.5 -184z" />
    <glyph glyph-name="d" unicode="d" horiz-adv-x="817" 
d="M289 1139q56 0 99.5 -24.5t57.5 -63.5v587h349v-1443q0 -35 2.5 -83.5t4.5 -79.5l3 -32h-289l-43 66q-45 -42 -79 -57t-99 -15q-166 0 -221 143q-56 128 -56 432q0 252 29 371q26 101 85.5 150t156.5 49zM406 838q-20 0 -27.5 -9.5t-9.5 -31.5q-4 -59 -4 -234
q0 -160 4 -250q2 -23 9 -33t28 -10q22 0 29 11.5t9 37.5q2 55 2 244v232q0 43 -40 43z" />
    <glyph glyph-name="e" unicode="e" horiz-adv-x="794" 
d="M776 391q0 -17 -2.5 -48t-14.5 -87.5t-30 -97.5q-37 -78 -110.5 -126t-210.5 -48q-236 0 -314 145q-76 146 -76 432q0 94 13.5 215.5t44.5 177.5q16 31 31 53t43 49.5t61 44t84.5 28.5t114.5 12q73 0 132.5 -20.5t97 -54.5t60.5 -67t35 -67q43 -101 43 -481h-409v-129
q0 -56 39 -56q38 0 38 56v69h330zM446 666q0 10 -1 72t-1 69q0 20 -11.5 31.5t-29.5 11.5q-17 0 -28.5 -11.5t-12.5 -31.5q0 -4 -1 -68t-1 -73h86z" />
    <glyph glyph-name="f" unicode="f" horiz-adv-x="522" 
d="M518 811h-92v-811h-354v811h-68v315h68v207q0 312 321 312q37 0 135 -5v-286q-14 2 -43 2q-28 0 -43.5 -19.5t-15.5 -44.5v-166h92v-315z" />
    <glyph glyph-name="g" unicode="g" horiz-adv-x="933" 
d="M469 1141q192 0 270 -82q60 71 201 71v-200h-111q23 -53 23 -119q0 -135 -16 -201q-27 -102 -125 -159.5t-236 -57.5q-77 0 -158 21q-32 -3 -32 -31q0 -9 3.5 -15t13 -9.5t20.5 -5.5t31 -2.5t39.5 -0.5t52 -0.5t61.5 -1.5q426 -9 426 -305q0 -162 -113 -253t-354 -91
q-107 0 -186.5 10t-141.5 34t-93.5 66t-31.5 103q0 78 35.5 122t108.5 72q-74 9 -113 59.5t-39 125.5q0 67 47.5 112t130.5 66q-50 39 -72 82t-30 113q-6 78 0 186q2 54 27 104.5t71 93t121.5 68t169.5 25.5zM469 934q-19 0 -28 -10t-9 -37v-254q0 -41 37 -41t37 41v260
q-1 25 -9.5 33t-27.5 8zM465 -55q99 0 129.5 12.5t30.5 44.5q0 31 -34.5 40.5t-131.5 12.5q-57 0 -107 6q-41 -18 -41 -61q0 -29 35 -42t119 -13z" />
    <glyph glyph-name="h" unicode="h" horiz-adv-x="823" 
d="M801 0h-357v801q0 22 -5 31.5t-21 9.5q-35 0 -35 -62v-780h-354v1638h354v-606q28 56 67.5 82.5t118.5 26.5q103 0 167.5 -71t64.5 -226v-844z" />
    <glyph glyph-name="i" unicode="i" horiz-adv-x="423" 
d="M401 1161h-374v340h374v-340zM412 0h-361q-22 6 -22 61v1065h370v-1069q0 -12 3.5 -26.5t6.5 -22.5z" />
    <glyph glyph-name="j" unicode="j" horiz-adv-x="423" 
d="M397 1161h-370v340h370v-340zM393 -166q0 -124 -89.5 -195t-233.5 -71t-185 8v307q27 -2 56 -2q48 0 69 13.5t21 48.5v1183h362v-1292z" />
    <glyph glyph-name="k" unicode="k" horiz-adv-x="872" 
d="M870 0h-385l-79 375l-23 -31v-344h-354v1638h354v-829l131 317h356l-176 -421z" />
    <glyph glyph-name="l" unicode="l" horiz-adv-x="405" 
d="M383 72q0 -64 10 -72h-354q-14 8 -14 80v1468q0 72 -9 90h363q4 -22 4 -59v-1507z" />
    <glyph glyph-name="m" unicode="m" horiz-adv-x="1230" 
d="M856 0v799q0 41 -27 41q-34 0 -34 -52v-788h-351v799q0 41 -26 41q-18 0 -27.5 -16.5t-9.5 -39.5v-784h-352v1126h344v-92q54 109 219 109q132 0 186 -125q29 62 86.5 93.5t132.5 31.5q105 0 157 -61.5t52 -174.5v-907h-350z" />
    <glyph glyph-name="n" unicode="n" horiz-adv-x="825" 
d="M799 874q0 -862 6 -874h-352q-9 4 -9 778q0 31 -5.5 43.5t-20.5 12.5q-19 0 -27 -18t-8 -60v-756h-354v1126h344v-98q18 49 70.5 81t127.5 32q113 0 170.5 -70t57.5 -197z" />
    <glyph glyph-name="o" unicode="o" horiz-adv-x="813" 
d="M795 567q0 -196 -15 -291q-8 -57 -33.5 -107.5t-70 -92t-115 -66t-158.5 -24.5q-76 0 -137.5 17.5t-102 46t-69.5 68t-43 80t-18 85.5q-15 127 -15 284q0 75 8 173.5t15 133.5q9 38 25 72.5t45.5 71t69 63t99 43.5t130.5 17q91 0 161.5 -24t113 -65.5t66 -90.5t29.5 -105
q15 -176 15 -289zM449 788q-2 29 -11 41.5t-30 12.5q-36 0 -39 -54q-2 -29 -2 -227q0 -40 1 -123t1 -100q0 -57 39 -57q41 0 41 57v450z" />
    <glyph glyph-name="p" unicode="p" horiz-adv-x="835" 
d="M817 578q0 -243 -22 -353q-52 -227 -256 -227q-42 0 -75 6.5t-47.5 13t-39.5 19.5v-365h-348v1454h340v-67q53 82 186 82q172 0 223 -164q39 -130 39 -399zM455 571q0 191 -2 224q-2 22 -9.5 33.5t-27.5 11.5q-39 0 -39 -52v-464q0 -45 39 -45q20 0 27.5 11.5t9.5 37.5
q2 37 2 243z" />
    <glyph glyph-name="q" unicode="q" horiz-adv-x="829" 
d="M811 -328h-346l-19 25v362q-50 -65 -151 -65q-98 0 -158 48.5t-88 145.5q-31 127 -31 381q0 203 25 340q54 228 260 228q61 0 90 -19t56 -67v75h352v-1323q0 -25 2.5 -58t4.5 -53zM446 573v218q0 49 -36 49q-23 0 -31 -14t-10 -42q-4 -86 -4 -213q0 -167 4 -249
q2 -24 10 -37t29 -13t27.5 13t8.5 43q2 33 2 245z" />
    <glyph glyph-name="r" unicode="r" horiz-adv-x="581" 
d="M580 1135v-342q-40 16 -97 16q-49 0 -72.5 -26t-23.5 -97v-686h-358v1126h352v-94q9 44 53 76.5t94 32.5q31 0 52 -6z" />
    <glyph glyph-name="s" unicode="s" horiz-adv-x="747" 
d="M733 311q0 -156 -92 -243.5t-260 -87.5q-167 0 -261 63.5t-106 181.5q-9 94 -6 142h322q0 -1 1 -26t1 -40q0 -23 6 -33t24 -10q20 0 27.5 11.5t7.5 41.5q0 38 -14 60t-57 43q-20 9 -61 29t-60 28q-193 100 -193 336q0 154 91 245t259 91q150 0 234 -59.5t106 -157.5
q15 -116 15 -174h-320v51q0 37 -28 37q-35 0 -35 -45q0 -9 1 -16.5t4.5 -13.5t5.5 -9.5t8.5 -8t9 -6t12 -6t12.5 -6.5q54 -24 160 -74q186 -88 186 -344z" />
    <glyph glyph-name="t" unicode="t" horiz-adv-x="563" 
d="M549 811h-119v-467q0 -33 11.5 -44t43.5 -11q22 0 52 6v-293q-96 -14 -201 -14q-53 0 -98.5 15.5t-85 49t-62 94.5t-22.5 144v520h-64v315h62l8 195l346 43v-238h129v-315z" />
    <glyph glyph-name="u" unicode="u" horiz-adv-x="821" 
d="M801 0h-338l-10 45q-41 -28 -76.5 -39.5t-89.5 -11.5q-262 0 -262 342v790h354v-780q0 -36 6 -48.5t23 -12.5q22 0 28 17t6 73v751h355v-1001q0 -89 4 -125z" />
    <glyph glyph-name="v" unicode="v" horiz-adv-x="827" 
d="M823 1126l-176 -1126h-459l-186 1126h354l62 -714l57 714h348z" />
    <glyph glyph-name="w" unicode="w" horiz-adv-x="1298" 
d="M1296 1126l-155 -1126h-428q-29 190 -43 340l-15 207q-12 -152 -16 -207q-4 -68 -14 -153t-17 -136l-8 -51h-434l-166 1126h358l66 -764l47 764h354l60 -764l53 764h358z" />
    <glyph glyph-name="x" unicode="x" horiz-adv-x="811" 
d="M418 905l47 221h332l-172 -538l182 -588h-375l-43 238l-45 -238h-344l180 553l-172 573h365z" />
    <glyph glyph-name="y" unicode="y" 
d="M864 1126l-332 -1454h-350l86 338l-268 1116h356q3 -32 41 -339t39 -318q62 577 70 657h358z" />
    <glyph glyph-name="z" unicode="z" horiz-adv-x="720" 
d="M709 0h-697v307l305 504h-294v315h686v-305l-312 -506h312v-315z" />
    <glyph glyph-name="braceleft" unicode="{" horiz-adv-x="598" 
d="M582 -334h-148q-154 0 -237.5 72t-83.5 190q0 100 23.5 260.5t23.5 217.5q0 87 -33.5 130.5t-110.5 43.5v325q87 1 118.5 40t31.5 110q0 64 -24.5 159t-24.5 172q0 114 85 183t216 69h164v-292q-93 0 -123.5 -25t-24.5 -107q2 -23 23.5 -113.5t21.5 -146.5
q0 -186 -194 -215q54 -6 94 -32.5t60.5 -65t30 -78t9.5 -80.5q0 -65 -21.5 -207t-23.5 -182q-6 -79 25 -104t123 -25v-299z" />
    <glyph glyph-name="bar" unicode="|" horiz-adv-x="595" 
d="M436 -410h-274v2048h274v-2048z" />
    <glyph glyph-name="braceright" unicode="}" horiz-adv-x="598" 
d="M14 -334v299q92 0 123 25t25 104q-2 40 -23.5 182t-21.5 207q0 41 9 80t29.5 78t60.5 65.5t95 32.5q-194 29 -194 215q0 56 21.5 146.5t23.5 113.5q6 82 -24.5 107t-123.5 25v292h162q133 0 218 -69t85 -183q0 -77 -24.5 -172t-24.5 -159q0 -71 31.5 -110t118.5 -40v-325
q-77 0 -110.5 -43.5t-33.5 -130.5q0 -57 23.5 -217.5t23.5 -260.5q0 -118 -83 -190t-238 -72h-148z" />
    <glyph glyph-name="asciitilde" unicode="~" horiz-adv-x="1058" 
d="M485 625q-5 4 -25.5 22t-25 21.5t-20 15t-24 14t-22.5 6t-28 3.5q-71 0 -117 -117l-221 131q114 276 350 276q64 0 120 -26t118 -80q3 -3 16.5 -15t16.5 -14.5t14.5 -12t15.5 -11.5t14 -8.5t16 -8.5t15.5 -5t19 -4t19.5 -1q74 0 121 111l191 -168q-54 -113 -138 -173.5
t-188 -60.5q-64 0 -116.5 23t-121.5 82z" />
    <glyph glyph-name="exclamdown" unicode="&#xa1;" horiz-adv-x="450" 
d="M51 1638h355v-430h-355v430zM37 2l41 1139h303l39 -1139h-383z" />
    <glyph glyph-name="cent" unicode="&#xa2;" horiz-adv-x="835" 
d="M322 1384v113h194v-106q120 -16 180.5 -67.5t89.5 -129.5q12 -33 23.5 -147t9.5 -175h-340v170q-2 41 -7 56.5t-21 15.5q-33 0 -33 -61q0 -73 -1 -138t-1 -100q0 -28 1 -118.5t1 -116.5q1 -54 8 -71t23 -17q19 0 24.5 18t5.5 70v180h340q3 -72 -5 -182t-34 -162
q-29 -71 -96 -119t-168 -61v-130h-194v132q-101 16 -159 61t-89 119q-54 130 -54 399q0 179 50 361q25 79 90 132.5t162 73.5z" />
    <glyph glyph-name="sterling" unicode="&#xa3;" horiz-adv-x="843" 
d="M147 852q-46 68 -81 152.5t-35 152.5v176q0 157 91.5 240.5t299.5 83.5q100 0 175 -22.5t116.5 -55.5t66.5 -80t32 -86.5t7 -85.5v-369h-336v285q0 64 -12 85.5t-41 23.5q-24 2 -35.5 -14.5t-11.5 -59.5v-158q0 -89 21 -148.5t65 -119.5h336v-305h-258q6 -49 -2 -86
q-8 -48 -37 -79.5t-64 -43.5h355v-338h-781v346q82 11 138 35.5t77 75.5q13 39 3 90h-199v305h110z" />
    <glyph glyph-name="currency" unicode="&#xa4;" horiz-adv-x="933" 
d="M459 846v-51h49v-228h-49q1 -34 1.5 -77.5t1 -70.5t1.5 -42q0 -39 8 -55.5t29 -16.5q20 0 28.5 16.5t8.5 55.5v223h374q-12 -200 -26 -289q-23 -153 -116.5 -241t-268.5 -88q-329 0 -383 329q-12 71 -23 256h-78v228h70v51h-70v227h74q3 183 21 281q9 42 19.5 75t29.5 70
t47.5 63.5t68 49t96.5 34t128 11.5q91 0 163 -25.5t117 -70t72 -95.5t39 -112q17 -104 24 -336h-378q-2 96 -2 219q0 43 -7.5 59.5t-29.5 16.5q-21 0 -28 -18t-7 -60q0 -92 -2 -162h47v-227h-49z" />
    <glyph glyph-name="yen" unicode="&#xa5;" horiz-adv-x="1017" 
d="M299 420h-264v227h264v39l-299 952h395q93 -387 101 -493q3 48 32 171.5t56 222.5l28 99h402l-318 -940v-51h281v-227h-281v-51h281v-228h-281v-141h-397v141h-264v228h264v51z" />
    <glyph glyph-name="brokenbar" unicode="&#xa6;" horiz-adv-x="595" 
d="M436 733h-274v905h274v-905zM436 -410h-274v856h274v-856z" />
    <glyph glyph-name="section" unicode="&#xa7;" horiz-adv-x="708" 
d="M41 987q27 101 129 156q-43 37 -62 77t-22 103q-2 12 -1.5 42t3.5 46q10 106 88 164.5t189 58.5q45 0 81.5 -5.5t74.5 -22t64.5 -42.5t45 -71t22.5 -104q4 -44 0 -99h-225v74q0 70 -37 70q-17 0 -26 -9t-13 -32v-52q0 -5 -0.5 -19t-0.5 -19.5t3.5 -18t10 -20.5t19 -20
t30.5 -23q11 -7 78 -47q129 -67 165 -175q20 -51 20 -113t-20 -108q-35 -108 -157 -145q88 -65 132 -126.5t50 -139.5q5 -36 0 -107q-9 -141 -89.5 -207.5t-215.5 -66.5q-306 0 -330 284q-2 12 -2 109l274 -2v-82q0 -80 50 -80q51 0 51 68v59q-5 43 -22 71.5t-64 61.5
q-10 7 -71.5 55.5t-92.5 69.5q-109 74 -133 191q-11 46 -10 102.5t14 93.5zM303 836q8 -34 53 -50q20 0 36 16.5t22 41.5q7 16 6.5 38.5t-6.5 35.5q-11 39 -60 55q-15 0 -30 -14.5t-21 -36.5q-19 -37 0 -86z" />
    <glyph glyph-name="dieresis" unicode="&#xa8;" 
d="M752 1200h-269v295h269v-295zM385 1200h-268v295h268v-295z" />
    <glyph glyph-name="copyright" unicode="&#xa9;" horiz-adv-x="1069" 
d="M1042 879q0 -237 -124.5 -362.5t-376.5 -125.5q-253 0 -383.5 125.5t-130.5 362.5v319q0 224 132.5 336.5t375.5 112.5q242 0 374.5 -111.5t132.5 -337.5v-319zM895 918v282q0 141 -83.5 218t-276.5 77q-363 0 -363 -295v-282q0 -191 86 -285t277 -94q109 0 180 23
t110 73t54.5 116.5t15.5 166.5zM817 973v-86q0 -102 -71.5 -154.5t-208.5 -52.5q-145 0 -215 55t-70 154v235q0 94 70 153.5t225 59.5q142 0 206 -62t64 -161v-57h-209v51q-3 61 -59 61q-36 0 -53 -19t-17 -48v-94q0 -21 1 -57t1 -40q0 -35 15.5 -50t52.5 -15q63 0 63 69v58
h205z" />
    <glyph glyph-name="ordfeminine" unicode="&#xaa;" horiz-adv-x="833" 
d="M805 510h-352q-4 72 -4 76q-64 -86 -199 -86q-37 0 -70.5 8t-71.5 29.5t-63 68.5t-29 115q-6 85 0 178q12 120 93.5 198.5t236.5 102.5q33 9 103 17q0 15 1 45.5t1 42.5q0 47 -35 47q-33 0 -33 -49v-68h-332q-3 82 10 164q16 97 113 165t254 68q189 0 278 -79t89 -216
q0 -117 -4 -321v-271q0 -231 14 -235zM807 143h-784v322h784v-322zM449 1010q-25 -13 -39 -25q-32 -24 -35 -55q-4 -40 -4 -72q0 -63 39 -63q22 0 30.5 16t8.5 61q1 11 1 39t-0.5 61t-0.5 38z" />
    <glyph glyph-name="guillemotleft" unicode="&#xab;" 
d="M836 227l-394 353v278l394 352v-358l-127 -133l127 -131v-361zM420 227l-393 353v278l393 352v-358l-127 -133l127 -131v-361z" />
    <glyph glyph-name="logicalnot" unicode="&#xac;" horiz-adv-x="675" 
d="M303 1047v264h-293v317h656v-317h-301v-264q82 -12 138 -76t56 -148t-56.5 -147t-140.5 -74v-229h304v-363h-656v363h291v229q-82 12 -137 74.5t-55 146.5t56 148t138 76zM365 997v-96l-33 -70l-29 70v96q-62 -12 -103.5 -61t-41.5 -113t40.5 -112t102.5 -60v97l31 67
l30 -67v-97q62 11 105 59.5t43 112.5t-41.5 113t-103.5 61zM338 827q6 8 30.5 38.5t32.5 43.5q22 31 48 7q21 -19 16 -43q-4 -16 -23 -19q-32 -5 -104 -27zM326 827q-71 22 -105 27q-29 5 -23 35q6 26 27 34q21 9 37 -14q8 -13 32.5 -43t31.5 -39zM338 819q65 -20 104 -26
q29 -5 23 -34q-5 -27 -27 -36q-21 -9 -37 14q-8 13 -32.5 43.5t-30.5 38.5zM326 819q-7 -9 -31.5 -39t-32.5 -43q-21 -30 -47 -8q-22 19 -17 43q3 18 23 21q41 7 105 26z" />
    <glyph glyph-name="registered" unicode="&#xae;" horiz-adv-x="1069" 
d="M1042 879q0 -237 -124.5 -362.5t-376.5 -125.5q-253 0 -383.5 125.5t-130.5 362.5v319q0 224 132.5 336.5t375.5 112.5q242 0 374.5 -111.5t132.5 -337.5v-319zM895 918v282q0 141 -83.5 218t-276.5 77q-363 0 -363 -295v-282q0 -189 86.5 -284t276.5 -95q108 0 179.5 23
t110.5 73.5t54.5 117t15.5 165.5zM836 698h-222l-88 189h-41v-189h-227v627h295q82 0 140 -18.5t88 -50.5t42.5 -66t12.5 -74q0 -75 -33.5 -127.5t-89.5 -58.5zM608 1087q0 17 -1.5 27.5t-8.5 24t-23.5 20t-42.5 6.5h-47v-153h62q37 0 49 18t12 57z" />
    <glyph glyph-name="macron" unicode="&#xaf;" 
d="M760 1223h-651v239h651v-239z" />
    <glyph glyph-name="macron" unicode="&#x2c9;" 
d="M760 1223h-651v239h651v-239z" />
    <glyph glyph-name="degree" unicode="&#xb0;" horiz-adv-x="577" 
d="M285 1573q110 0 189 -82t79 -197q0 -114 -79 -195t-189 -81q-108 0 -186.5 81.5t-78.5 194.5q0 115 78.5 197t186.5 82zM285 1382q-36 0 -61 -25t-25 -63q0 -36 25 -61t61 -25q38 0 64 24.5t26 61.5q0 38 -26 63t-64 25z" />
    <glyph glyph-name="plusminus" unicode="&#xb1;" horiz-adv-x="708" 
d="M698 807h-202v-156h-283v156h-203v244h203v161h283v-161h202v-244zM696 371h-684v237h684v-237z" />
    <glyph glyph-name="twosuperior" unicode="&#xb2;" horiz-adv-x="661" 
d="M596 795h-537v170q5 21 38 59t75.5 81.5t84.5 90.5t70.5 98t28.5 92v50q0 47 -32 47q-27 0 -27 -41v-113h-240v123q0 75 75.5 131.5t207.5 56.5q133 0 197.5 -48.5t70.5 -131.5q1 -11 0.5 -47t-2.5 -49q-4 -49 -32.5 -105t-61.5 -97t-76.5 -95.5t-64.5 -87.5h225v-184z
" />
    <glyph glyph-name="threesuperior" unicode="&#xb3;" horiz-adv-x="684" 
d="M410 1233q61 -1 105.5 -16.5t65.5 -39t30.5 -44t11.5 -41.5q4 -55 -2 -121q-6 -86 -81.5 -136.5t-201.5 -50.5q-120 0 -195.5 44.5t-76.5 125.5l-5 111h244v-98q0 -19 7.5 -26t23.5 -7q18 0 24.5 10t6.5 35v84q0 34 -16 45t-68 12h-95v185h109q38 3 51.5 14.5t13.5 42.5
v76q0 32 -26 32q-25 0 -25 -34l-2 -74h-231q4 88 6 115q5 68 73.5 118t184.5 50q126 0 194 -52t68 -131v-53q0 -25 -8.5 -51t-28.5 -54t-60.5 -47.5t-96.5 -23.5z" />
    <glyph glyph-name="acute" unicode="&#xb4;" 
d="M238 1200l141 336h377l-191 -336h-327z" />
    <glyph glyph-name="mu" unicode="&#xb5;" horiz-adv-x="845" 
d="M813 0h-340l-10 45q-15 -18 -53 -29q-21 -6 -41 -6v-338h-336v1454h356v-798q0 -37 6 -50.5t23 -13.5q22 0 28.5 18.5t6.5 75.5v768h356v-1001q0 -89 4 -125z" />
    <glyph glyph-name="mu" unicode="&#x3bc;" horiz-adv-x="845" 
d="M813 0h-340l-10 45q-15 -18 -53 -29q-21 -6 -41 -6v-338h-336v1454h356v-798q0 -37 6 -50.5t23 -13.5q22 0 28.5 18.5t6.5 75.5v768h356v-1001q0 -89 4 -125z" />
    <glyph glyph-name="paragraph" unicode="&#xb6;" 
d="M827 1636v-1841h-120v1569h-45v-1569h-125v707q-68 -94 -224 -94q-102 0 -178.5 56.5t-89.5 147.5q-25 171 -25 422q0 278 23 406q18 87 89 147t167 60q80 0 146 -27.5t92 -83.5l8 100h282zM539 1042v228q0 46 -11.5 63t-35.5 17q-22 0 -31 -12.5t-12 -51.5
q-5 -88 -5 -266q0 -72 5 -262q3 -53 40 -53q24 0 35.5 15t12.5 54q2 41 2 268z" />
    <glyph glyph-name="periodcentered" unicode="&#xb7;" horiz-adv-x="430" 
d="M401 596h-372v442h372v-442z" />
    <glyph glyph-name="periodcentered" unicode="&#x2219;" horiz-adv-x="430" 
d="M401 596h-372v442h372v-442z" />
    <glyph glyph-name="cedilla" unicode="&#xb8;" 
d="M422 -168q0 35 -17.5 49.5t-62.5 14.5v104h195v-51q75 -3 122.5 -47t47.5 -135q0 -115 -111.5 -156.5t-331.5 8.5v178q158 -30 158 35z" />
    <glyph glyph-name="onesuperior" unicode="&#xb9;" horiz-adv-x="618" 
d="M467 795h-242v575h-133v166q160 0 187 102h188v-843z" />
    <glyph glyph-name="ordmasculine" unicode="&#xba;" horiz-adv-x="827" 
d="M793 1077q0 -187 -15 -282q-8 -57 -34 -107t-70 -91.5t-114.5 -66t-158.5 -24.5q-94 0 -165.5 25.5t-113 69.5t-63.5 93.5t-28 106.5q-15 133 -15 276q0 74 8 165t15 128q11 47 35 89.5t65.5 84t111 66t157.5 24.5q91 0 161.5 -23.5t113 -64.5t66 -89.5t29.5 -104.5
q15 -184 15 -275zM807 143h-784v322h784v-322zM446 1284q-2 29 -10.5 41t-29.5 12q-36 0 -39 -53q-2 -29 -2 -213q0 -40 1 -118.5t1 -96.5q0 -57 39 -57q40 0 40 57v428z" />
    <glyph glyph-name="guillemotright" unicode="&#xbb;" 
d="M455 227v361l125 131l-125 133v358l393 -352v-278zM37 227v361l127 131l-127 133v358l395 -352v-278z" />
    <glyph glyph-name="onequarter" unicode="&#xbc;" horiz-adv-x="1171" 
d="M379 795h-240v575h-133v166q45 0 79.5 9t52 19.5t31.5 28.5t16.5 24.5t7.5 20.5h186v-843zM743 1638q-116 -512 -190 -841l-176 -797h-86q120 527 196 866l172 772h84zM1145 158h-76v-158h-240v158h-282v180l260 500h262v-508h76v-172zM829 330v145l-67 -145h67z" />
    <glyph glyph-name="onehalf" unicode="&#xbd;" horiz-adv-x="1171" 
d="M379 795h-240v575h-133v166q45 0 79.5 9t52 19.5t31.5 28.5t16.5 24.5t7.5 20.5h186v-843zM711 1638q-119 -512 -193 -841l-174 -797h-88q123 527 199 866l170 772h86zM1116 0h-536v170q6 25 54 78.5t100.5 106.5t96 120t43.5 117v49q0 47 -32 47q-25 0 -25 -41v-112
h-239v122q0 75 75.5 132t206.5 57q252 0 266 -180q1 -11 0.5 -47.5t-2.5 -49.5q-4 -49 -32.5 -104.5t-61.5 -97.5t-76 -96t-63 -87h225v-184z" />
    <glyph glyph-name="threequarters" unicode="&#xbe;" horiz-adv-x="1327" 
d="M371 1233q62 -1 106.5 -16.5t66 -39t31 -44t11.5 -41.5q4 -55 -2 -121q-8 -87 -83 -137t-202 -50q-119 0 -194 44.5t-78 125.5l-2 111h241v-98q0 -19 8.5 -26t24.5 -7q18 0 23.5 9.5t5.5 35.5v84q0 34 -15.5 45t-68.5 12h-92v185h108q37 3 50.5 14.5t13.5 42.5v76
q0 32 -25 32q-27 0 -27 -34v-74h-231q4 88 4 115q5 68 74.5 118t185.5 50q125 0 192.5 -52t67.5 -131v-53q0 -25 -8.5 -51t-28.5 -54t-60.5 -47.5t-96.5 -23.5zM893 1638q-117 -512 -191 -841l-176 -797h-86q123 527 199 866l170 772h84zM1292 158h-75v-158h-240v158h-285
v180l262 500h263v-508h75v-172zM977 330v145l-70 -145h70z" />
    <glyph glyph-name="questiondown" unicode="&#xbf;" horiz-adv-x="811" 
d="M270 1638h361v-430h-361v430zM25 459q2 54 25.5 109t56.5 99.5t70 99t68 106t49 122t13 146.5h293q9 -117 -9 -213t-50.5 -157t-66.5 -111.5t-58.5 -103.5t-24.5 -107v-109q0 -28 9.5 -43.5t23.5 -15.5q35 0 35 55v158h332v-230q0 -125 -111 -202.5t-272 -77.5
q-172 0 -272 72t-111 200q-4 63 0 203z" />
    <glyph glyph-name="Agrave" unicode="&#xc0;" horiz-adv-x="931" 
d="M412 420q-3 -82 -8.5 -187t-9.5 -169l-5 -64h-389l184 1638h584l164 -1638h-395q-15 236 -21 420h-104zM502 713l-23 293l-16 311l-14 -309l-23 -295h76zM664 1690h-330l-189 335h377z" />
    <glyph glyph-name="Aacute" unicode="&#xc1;" horiz-adv-x="931" 
d="M412 420q-3 -82 -8.5 -187t-9.5 -169l-5 -64h-389l184 1638h584l164 -1638h-395q-15 236 -21 420h-104zM502 713l-23 293l-16 311l-14 -309l-23 -295h76zM276 1690l142 335h377l-191 -335h-328z" />
    <glyph glyph-name="Acircumflex" unicode="&#xc2;" horiz-adv-x="931" 
d="M412 420q-3 -82 -8.5 -187t-9.5 -169l-5 -64h-389l184 1638h584l164 -1638h-395q-15 236 -21 420h-104zM502 713l-23 293l-16 311l-14 -309l-23 -295h76zM807 1690h-291l-55 114l-53 -114h-283l162 335h356z" />
    <glyph glyph-name="Atilde" unicode="&#xc3;" horiz-adv-x="931" 
d="M412 420q-3 -82 -8.5 -187t-9.5 -169l-5 -64h-389l184 1638h584l164 -1638h-395q-15 236 -21 420h-104zM502 713l-23 293l-16 311l-14 -309l-23 -295h76zM383 1784q-58 0 -61 -90h-230q3 161 62 251.5t157 90.5q41 0 77.5 -17t58 -37.5t42.5 -37.5t33 -17q35 0 49.5 23
t16.5 78h219q-1 -171 -62 -260t-153 -89q-51 0 -99 26.5t-77 52.5t-33 26z" />
    <glyph glyph-name="Adieresis" unicode="&#xc4;" horiz-adv-x="931" 
d="M412 420q-3 -82 -8.5 -187t-9.5 -169l-5 -64h-389l184 1638h584l164 -1638h-395q-15 236 -21 420h-104zM502 713l-23 293l-16 311l-14 -309l-23 -295h76zM786 1690h-268v295h268v-295zM420 1690h-268v295h268v-295z" />
    <glyph glyph-name="Aring" unicode="&#xc5;" horiz-adv-x="931" 
d="M315 1638q-73 67 -73 168q0 95 66 161.5t161 66.5t161 -66.5t66 -161.5q0 -101 -73 -168h145l164 -1638h-395q-15 236 -21 420h-104q-3 -82 -8.5 -187t-9.5 -169l-5 -64h-389l184 1638h131zM469 1876q-29 0 -49.5 -20.5t-20.5 -49.5t20.5 -49t49.5 -20t49.5 20t20.5 49
t-20.5 49.5t-49.5 20.5zM502 713l-23 293l-16 311l-14 -309l-23 -295h76z" />
    <glyph glyph-name="AE" unicode="&#xc6;" horiz-adv-x="1163" 
d="M1155 1638v-376h-258v-263h231v-350h-231v-280h260v-369h-651v375h-78l-31 -375h-389l185 1638h962zM438 711h66v606q-12 -117 -21 -189z" />
    <glyph glyph-name="Ccedilla" unicode="&#xc7;" horiz-adv-x="909" 
d="M365 -12q-144 21 -222 96.5t-100 189.5q-23 123 -23 549q0 105 5 265t8 206q11 170 123 263.5t321 93.5q392 0 410 -389q2 -57 2 -267h-375v228q0 53 -41 53t-41 -59q-2 -76 -2 -381q0 -383 2 -420q1 -38 11.5 -53t31.5 -15t31 16t10 56v211h375v-289q0 -134 -86 -232
t-246 -122v-39q75 -3 122.5 -47t47.5 -135q0 -115 -111 -156.5t-331 8.5v178q157 -30 157 35q0 35 -17 49.5t-62 14.5v92z" />
    <glyph glyph-name="Egrave" unicode="&#xc8;" horiz-adv-x="776" 
d="M770 0h-737v1638h735v-376h-342v-261h317v-352h-317v-280h344v-369zM594 1690h-330l-188 335h377z" />
    <glyph glyph-name="Eacute" unicode="&#xc9;" horiz-adv-x="776" 
d="M770 0h-737v1638h735v-376h-342v-261h317v-352h-317v-280h344v-369zM197 1690l141 335h377l-191 -335h-327z" />
    <glyph glyph-name="Ecircumflex" unicode="&#xca;" horiz-adv-x="776" 
d="M770 0h-737v1638h735v-376h-342v-261h317v-352h-317v-280h344v-369zM735 1690h-291l-55 114l-53 -114h-283l162 335h356z" />
    <glyph glyph-name="Edieresis" unicode="&#xcb;" horiz-adv-x="776" 
d="M770 0h-737v1638h735v-376h-342v-261h317v-352h-317v-280h344v-369zM711 1690h-269v295h269v-295zM344 1690h-268v295h268v-295z" />
    <glyph glyph-name="Igrave" unicode="&#xcc;" horiz-adv-x="473" 
d="M440 0h-405v1638h405v-1638zM426 1690h-330l-188 335h377z" />
    <glyph glyph-name="Iacute" unicode="&#xcd;" horiz-adv-x="473" 
d="M440 0h-405v1638h405v-1638zM43 1690l141 335h377l-190 -335h-328z" />
    <glyph glyph-name="Icircumflex" unicode="&#xce;" horiz-adv-x="473" 
d="M440 0h-405v1638h405v-1638zM578 1690h-291l-56 114l-53 -114h-282l161 335h357z" />
    <glyph glyph-name="Idieresis" unicode="&#xcf;" horiz-adv-x="473" 
d="M440 0h-405v1638h405v-1638zM553 1690h-268v295h268v-295zM186 1690h-268v295h268v-295z" />
    <glyph glyph-name="Eth" unicode="&#xd0;" horiz-adv-x="923" 
d="M43 616h-29v383h29v639h430q131 0 214.5 -28.5t127.5 -93.5q53 -69 71.5 -233t18.5 -427q0 -357 -16 -502.5t-74 -224.5q-46 -66 -113.5 -97.5t-177.5 -31.5h-481v616zM440 999h35v-383h-37v-323h47q16 0 27 18t12 49q6 108 6 498q0 281 -8 379q-3 74 -47 74h-35v-312z
" />
    <glyph glyph-name="Ntilde" unicode="&#xd1;" horiz-adv-x="888" 
d="M856 0h-311l-150 600v-600h-362v1638h301l153 -602v602h369v-1638zM389 1784q-58 0 -61 -90h-230q3 161 62 251.5t157 90.5q41 0 77.5 -17t58 -37.5t42.5 -37.5t33 -17q35 0 49.5 23t16.5 78h219q-1 -171 -62 -260t-153 -89q-51 0 -99 26.5t-77 52.5t-33 26z" />
    <glyph glyph-name="Ograve" unicode="&#xd2;" horiz-adv-x="923" 
d="M461 1651q405 0 438 -361q6 -55 6 -450q0 -383 -6 -471q-22 -392 -438 -392q-417 0 -436 361q-5 165 -5 485q0 357 5 439q4 82 28 148.5t72.5 122.5t134 87t201.5 31zM463 326q43 0 43 63q4 152 4 428q0 343 -2 400q-1 52 -9.5 67.5t-33.5 15.5t-32.5 -16t-10.5 -70
q-2 -57 -2 -399q0 -390 2 -426q2 -34 10.5 -48.5t30.5 -14.5zM659 1690h-329l-189 335h377z" />
    <glyph glyph-name="Oacute" unicode="&#xd3;" horiz-adv-x="923" 
d="M461 1651q405 0 438 -361q6 -55 6 -450q0 -383 -6 -471q-22 -392 -438 -392q-417 0 -436 361q-5 165 -5 485q0 357 5 439q4 82 28 148.5t72.5 122.5t134 87t201.5 31zM463 326q43 0 43 63q4 152 4 428q0 343 -2 400q-1 52 -9.5 67.5t-33.5 15.5t-32.5 -16t-10.5 -70
q-2 -57 -2 -399q0 -390 2 -426q2 -34 10.5 -48.5t30.5 -14.5zM276 1690l142 335h377l-191 -335h-328z" />
    <glyph glyph-name="Ocircumflex" unicode="&#xd4;" horiz-adv-x="923" 
d="M461 1651q405 0 438 -361q6 -55 6 -450q0 -383 -6 -471q-22 -392 -438 -392q-417 0 -436 361q-5 165 -5 485q0 357 5 439q4 82 28 148.5t72.5 122.5t134 87t201.5 31zM463 326q43 0 43 63q4 152 4 428q0 343 -2 400q-1 52 -9.5 67.5t-33.5 15.5t-32.5 -16t-10.5 -70
q-2 -57 -2 -399q0 -390 2 -426q2 -34 10.5 -48.5t30.5 -14.5zM803 1690h-291l-55 114l-54 -114h-282l162 335h356z" />
    <glyph glyph-name="Otilde" unicode="&#xd5;" horiz-adv-x="923" 
d="M461 1651q405 0 438 -361q6 -55 6 -450q0 -383 -6 -471q-22 -392 -438 -392q-417 0 -436 361q-5 165 -5 485q0 357 5 439q4 82 28 148.5t72.5 122.5t134 87t201.5 31zM463 326q43 0 43 63q4 152 4 428q0 343 -2 400q-1 52 -9.5 67.5t-33.5 15.5t-32.5 -16t-10.5 -70
q-2 -57 -2 -399q0 -390 2 -426q2 -34 10.5 -48.5t30.5 -14.5zM379 1784q-59 0 -62 -90h-229q3 161 62 251.5t157 90.5q41 0 77.5 -17t58 -37.5t42.5 -37.5t33 -17q35 0 49.5 23t16.5 78h219q-1 -171 -62 -260t-153 -89q-51 0 -99 26.5t-77 52.5t-33 26z" />
    <glyph glyph-name="Odieresis" unicode="&#xd6;" horiz-adv-x="923" 
d="M461 1651q405 0 438 -361q6 -55 6 -450q0 -383 -6 -471q-22 -392 -438 -392q-417 0 -436 361q-5 165 -5 485q0 357 5 439q4 82 28 148.5t72.5 122.5t134 87t201.5 31zM463 326q43 0 43 63q4 152 4 428q0 343 -2 400q-1 52 -9.5 67.5t-33.5 15.5t-32.5 -16t-10.5 -70
q-2 -57 -2 -399q0 -390 2 -426q2 -34 10.5 -48.5t30.5 -14.5zM778 1690h-268v295h268v-295zM412 1690h-269v295h269v-295z" />
    <glyph glyph-name="multiply" unicode="&#xd7;" horiz-adv-x="626" 
d="M612 860l-120 -121l120 -123l-176 -186l-121 121l-120 -121l-179 186l123 123l-123 121l179 189l120 -123l121 123z" />
    <glyph glyph-name="Oslash" unicode="&#xd8;" horiz-adv-x="923" 
d="M193 35q-159 86 -168 303q-5 165 -5 485q0 357 5 439q4 82 28 148.5t72.5 122.5t134 87t201.5 31q127 0 209 -33l12 43h86l-25 -80q137 -89 156 -291q6 -55 6 -450q0 -383 -6 -471q-22 -392 -438 -392q-110 0 -193 25l-30 -100h-86zM416 778l98 324q0 30 -1 72.5t-1 50.5
q-1 54 -10 70t-37 16t-36 -16.5t-11 -71.5q-2 -29 -2 -445zM514 819l-98 -327q0 -88 2 -111q2 -35 11 -50.5t34 -15.5t35 16t12 50q4 144 4 438z" />
    <glyph glyph-name="Ugrave" unicode="&#xd9;" horiz-adv-x="923" 
d="M893 399q0 -201 -111.5 -308t-310.5 -107q-97 0 -176 24t-139.5 73t-93.5 130t-33 188v1239h391v-1249q0 -38 9 -51.5t30 -13.5q22 0 30.5 13t8.5 50v1251h395v-1239zM662 1690h-330l-189 335h377z" />
    <glyph glyph-name="Uacute" unicode="&#xda;" horiz-adv-x="923" 
d="M893 399q0 -201 -111.5 -308t-310.5 -107q-97 0 -176 24t-139.5 73t-93.5 130t-33 188v1239h391v-1249q0 -38 9 -51.5t30 -13.5q22 0 30.5 13t8.5 50v1251h395v-1239zM260 1690l141 335h377l-190 -335h-328z" />
    <glyph glyph-name="Ucircumflex" unicode="&#xdb;" horiz-adv-x="923" 
d="M893 399q0 -201 -111.5 -308t-310.5 -107q-97 0 -176 24t-139.5 73t-93.5 130t-33 188v1239h391v-1249q0 -38 9 -51.5t30 -13.5q22 0 30.5 13t8.5 50v1251h395v-1239zM799 1690h-291l-55 114l-54 -114h-282l162 335h356z" />
    <glyph glyph-name="Udieresis" unicode="&#xdc;" horiz-adv-x="923" 
d="M893 399q0 -201 -111.5 -308t-310.5 -107q-97 0 -176 24t-139.5 73t-93.5 130t-33 188v1239h391v-1249q0 -38 9 -51.5t30 -13.5q22 0 30.5 13t8.5 50v1251h395v-1239zM774 1690h-268v295h268v-295zM408 1690h-269v295h269v-295z" />
    <glyph glyph-name="Yacute" unicode="&#xdd;" horiz-adv-x="983" 
d="M983 1638l-301 -991v-647h-399v637l-283 1001h395q78 -436 86 -542q3 48 28 183.5t49 246.5l24 112h401zM309 1690l142 335h376l-190 -335h-328z" />
    <glyph glyph-name="Thorn" unicode="&#xde;" horiz-adv-x="944" 
d="M449 1638v-290h92q227 0 307 -156q84 -119 84 -363q0 -259 -96 -372q-83 -137 -295 -146l-101 -2v-309h-409v1638h418zM522 844q0 80 -12 106.5t-43 26.5h-27v-338h21q37 0 49 25.5t12 97.5v82z" />
    <glyph glyph-name="germandbls" unicode="&#xdf;" horiz-adv-x="1308" 
d="M520 1356q-38 0 -52.5 -23t-14.5 -69v-1264h-363v809h-84v313h84v197q0 142 124.5 234t328.5 92q171 0 284 -90t113 -234q0 -62 -19.5 -120.5t-43 -96t-43 -84.5t-19.5 -88q0 -21 3 -39t11 -34l13.5 -27t18 -23.5l17 -17t18.5 -15.5l13 -12q46 -28 162 -84
q120 -62 170.5 -146t50.5 -212q0 -161 -95 -251.5t-298 -90.5q-195 0 -291.5 61.5t-107.5 189.5q0 5 -4 70.5t-4 87.5h366q0 -4 1 -56.5t1 -78.5q0 -47 33 -47t33 69q0 35 -0.5 48.5t-4 39.5t-10.5 39.5t-22 29t-37 26.5q-91 40 -145 73q-60 30 -96.5 56t-70 68t-48.5 103
t-15 146q0 63 16 118.5t34.5 88.5t34.5 74.5t16 79.5q0 48 -12.5 69t-45.5 21z" />
    <glyph glyph-name="agrave" unicode="&#xe0;" horiz-adv-x="815" 
d="M803 0h-352q-5 72 -5 76q-64 -86 -198 -86q-29 0 -55.5 4t-59 18.5t-56.5 37.5t-42.5 64.5t-22.5 96.5q0 159 2 188q11 122 89 198.5t241 104.5q80 14 102 15v94q0 26 -7 37.5t-25 11.5q-35 0 -35 -49v-74h-332q-3 81 12 176q16 97 113 165.5t254 68.5q189 0 278 -80
t89 -217q0 -47 -2.5 -163.5t-2.5 -168.5q-2 -76 -2 -282q0 -231 17 -236zM442 498q-2 0 -8 -2l-12 -4q-32 -19 -39 -31q-14 -25 -14 -80q0 -60 4 -78q3 -31 37 -31q36 0 36 47v121q0 34 -4 58zM616 1200h-329l-189 336h377z" />
    <glyph glyph-name="aacute" unicode="&#xe1;" horiz-adv-x="815" 
d="M803 0h-352q-5 72 -5 76q-64 -86 -198 -86q-29 0 -55.5 4t-59 18.5t-56.5 37.5t-42.5 64.5t-22.5 96.5q0 159 2 188q11 122 89 198.5t241 104.5q80 14 102 15v94q0 26 -7 37.5t-25 11.5q-35 0 -35 -49v-74h-332q-3 81 12 176q16 97 113 165.5t254 68.5q189 0 278 -80
t89 -217q0 -47 -2.5 -163.5t-2.5 -168.5q-2 -76 -2 -282q0 -231 17 -236zM442 498q-2 0 -8 -2l-12 -4q-32 -19 -39 -31q-14 -25 -14 -80q0 -60 4 -78q3 -31 37 -31q36 0 36 47v121q0 34 -4 58zM217 1200l141 336h377l-190 -336h-328z" />
    <glyph glyph-name="acircumflex" unicode="&#xe2;" horiz-adv-x="815" 
d="M803 0h-352q-5 72 -5 76q-64 -86 -198 -86q-29 0 -55.5 4t-59 18.5t-56.5 37.5t-42.5 64.5t-22.5 96.5q0 159 2 188q11 122 89 198.5t241 104.5q80 14 102 15v94q0 26 -7 37.5t-25 11.5q-35 0 -35 -49v-74h-332q-3 81 12 176q16 97 113 165.5t254 68.5q189 0 278 -80
t89 -217q0 -47 -2.5 -163.5t-2.5 -168.5q-2 -76 -2 -282q0 -231 17 -236zM442 498q-2 0 -8 -2l-12 -4q-32 -19 -39 -31q-14 -25 -14 -80q0 -60 4 -78q3 -31 37 -31q36 0 36 47v121q0 34 -4 58zM782 1200h-290l-56 115l-53 -115h-283l162 336h356z" />
    <glyph glyph-name="atilde" unicode="&#xe3;" horiz-adv-x="815" 
d="M803 0h-352q-5 72 -5 76q-64 -86 -198 -86q-29 0 -55.5 4t-59 18.5t-56.5 37.5t-42.5 64.5t-22.5 96.5q0 159 2 188q11 122 89 198.5t241 104.5q80 14 102 15v94q0 26 -7 37.5t-25 11.5q-35 0 -35 -49v-74h-332q-3 81 12 176q16 97 113 165.5t254 68.5q189 0 278 -80
t89 -217q0 -47 -2.5 -163.5t-2.5 -168.5q-2 -76 -2 -282q0 -231 17 -236zM442 498q-2 0 -8 -2l-12 -4q-32 -19 -39 -31q-14 -25 -14 -80q0 -60 4 -78q3 -31 37 -31q36 0 36 47v121q0 34 -4 58zM330 1294q-59 0 -62 -90h-229q3 161 62 251.5t157 90.5q40 0 77 -17t58.5 -37
t42.5 -37t33 -17q35 0 49.5 23t16.5 77h219q-1 -171 -62 -259.5t-153 -88.5q-39 0 -78.5 16t-63.5 36t-43.5 36t-23.5 16z" />
    <glyph glyph-name="adieresis" unicode="&#xe4;" horiz-adv-x="815" 
d="M803 0h-352q-5 72 -5 76q-64 -86 -198 -86q-29 0 -55.5 4t-59 18.5t-56.5 37.5t-42.5 64.5t-22.5 96.5q0 159 2 188q11 122 89 198.5t241 104.5q80 14 102 15v94q0 26 -7 37.5t-25 11.5q-35 0 -35 -49v-74h-332q-3 81 12 176q16 97 113 165.5t254 68.5q189 0 278 -80
t89 -217q0 -47 -2.5 -163.5t-2.5 -168.5q-2 -76 -2 -282q0 -231 17 -236zM442 498q-2 0 -8 -2l-12 -4q-32 -19 -39 -31q-14 -25 -14 -80q0 -60 4 -78q3 -31 37 -31q36 0 36 47v121q0 34 -4 58zM729 1200h-268v295h268v-295zM362 1200h-268v295h268v-295z" />
    <glyph glyph-name="aring" unicode="&#xe5;" horiz-adv-x="815" 
d="M803 0h-352q-5 72 -5 76q-64 -86 -198 -86q-29 0 -55.5 4t-59 18.5t-56.5 37.5t-42.5 64.5t-22.5 96.5q0 159 2 188q11 122 89 198.5t241 104.5q80 14 102 15v94q0 26 -7 37.5t-25 11.5q-35 0 -35 -49v-74h-332q-3 81 12 176q16 97 113 165.5t254 68.5q189 0 278 -80
t89 -217q0 -47 -2.5 -163.5t-2.5 -168.5q-2 -76 -2 -282q0 -231 17 -236zM442 498q-2 0 -8 -2l-12 -4q-32 -19 -39 -31q-14 -25 -14 -80q0 -60 4 -78q3 -31 37 -31q36 0 36 47v121q0 34 -4 58zM430 1624q95 0 161 -66t66 -161t-66 -161.5t-161 -66.5t-161 66.5t-66 161.5
t66 161t161 66zM430 1466q-29 0 -49.5 -20t-20.5 -49t20.5 -49.5t49.5 -20.5t49.5 20.5t20.5 49.5t-20.5 49t-49.5 20z" />
    <glyph glyph-name="ae" unicode="&#xe6;" horiz-adv-x="1220" 
d="M524 119q-27 -51 -97 -90t-157 -39q-242 0 -258 221q0 159 2 188q11 119 94.5 197.5t235.5 105.5q53 12 102 15v92q0 49 -32 49q-35 0 -35 -51v-70h-332q-3 81 12 176q16 97 113 165.5t254 68.5q134 0 221 -62q68 56 187 56q72 0 131.5 -20.5t97 -54.5t61 -67t35.5 -67
q43 -101 43 -479h-414v-131q0 -56 43 -56q15 0 28 14t13 42v69h330q0 -17 -3.5 -49.5t-16.5 -88.5t-33 -95q-69 -174 -318 -174q-71 0 -125.5 11.5t-89 34t-54 42t-38.5 47.5zM870 666q0 8 -1 71t-1 70q0 20 -12 31.5t-31 11.5q-16 0 -27.5 -12t-11.5 -31q0 -5 -2 -70.5
t-2 -70.5h88zM442 506l-20 -8q-32 -19 -39 -31q-14 -23 -14 -84q0 -60 4 -78q3 -33 37 -33q36 0 36 50v124q0 32 -4 60z" />
    <glyph glyph-name="ccedilla" unicode="&#xe7;" horiz-adv-x="786" 
d="M305 -6q-178 30 -242 178q-45 105 -45 391q0 216 41 365q29 95 119.5 154t224.5 59q66 0 119 -11.5t87 -29.5t60.5 -45.5t41.5 -53t28 -59.5q12 -29 21.5 -140t9.5 -184h-330v152q0 4 -1 13t-1.5 12.5t-1 10.5t-1.5 10t-3 8t-4 7t-5 4.5t-6.5 3.5t-8.5 1q-21 0 -30 -14.5
t-9 -47.5q0 -63 -1 -126t-1 -91v-207q2 -40 9.5 -55.5t29.5 -15.5q20 0 27 14.5t7 56.5q0 5 1 69.5t1 82.5h328q0 -268 -35 -344q-65 -143 -235 -170v-41q75 -3 122.5 -47t47.5 -135q0 -115 -111.5 -156.5t-331.5 8.5v178q158 -30 158 35q0 35 -17.5 49.5t-62.5 14.5v96z
" />
    <glyph glyph-name="egrave" unicode="&#xe8;" horiz-adv-x="794" 
d="M776 391q0 -17 -2.5 -48t-14.5 -87.5t-30 -97.5q-37 -78 -110.5 -126t-210.5 -48q-236 0 -314 145q-76 146 -76 432q0 94 13.5 215.5t44.5 177.5q16 31 31 53t43 49.5t61 44t84.5 28.5t114.5 12q73 0 132.5 -20.5t97 -54.5t60.5 -67t35 -67q43 -101 43 -481h-409v-129
q0 -56 39 -56q38 0 38 56v69h330zM446 666q0 10 -1 72t-1 69q0 20 -11.5 31.5t-29.5 11.5q-17 0 -28.5 -11.5t-12.5 -31.5q0 -4 -1 -68t-1 -73h86zM594 1200h-330l-188 336h377z" />
    <glyph glyph-name="eacute" unicode="&#xe9;" horiz-adv-x="794" 
d="M776 391q0 -17 -2.5 -48t-14.5 -87.5t-30 -97.5q-37 -78 -110.5 -126t-210.5 -48q-236 0 -314 145q-76 146 -76 432q0 94 13.5 215.5t44.5 177.5q16 31 31 53t43 49.5t61 44t84.5 28.5t114.5 12q73 0 132.5 -20.5t97 -54.5t60.5 -67t35 -67q43 -101 43 -481h-409v-129
q0 -56 39 -56q38 0 38 56v69h330zM446 666q0 10 -1 72t-1 69q0 20 -11.5 31.5t-29.5 11.5q-17 0 -28.5 -11.5t-12.5 -31.5q0 -4 -1 -68t-1 -73h86zM205 1200l141 336h377l-191 -336h-327z" />
    <glyph glyph-name="ecircumflex" unicode="&#xea;" horiz-adv-x="794" 
d="M776 391q0 -17 -2.5 -48t-14.5 -87.5t-30 -97.5q-37 -78 -110.5 -126t-210.5 -48q-236 0 -314 145q-76 146 -76 432q0 94 13.5 215.5t44.5 177.5q16 31 31 53t43 49.5t61 44t84.5 28.5t114.5 12q73 0 132.5 -20.5t97 -54.5t60.5 -67t35 -67q43 -101 43 -481h-409v-129
q0 -56 39 -56q38 0 38 56v69h330zM446 666q0 10 -1 72t-1 69q0 20 -11.5 31.5t-29.5 11.5q-17 0 -28.5 -11.5t-12.5 -31.5q0 -4 -1 -68t-1 -73h86zM741 1200h-290l-56 115l-53 -115h-283l162 336h357z" />
    <glyph glyph-name="edieresis" unicode="&#xeb;" horiz-adv-x="794" 
d="M776 391q0 -17 -2.5 -48t-14.5 -87.5t-30 -97.5q-37 -78 -110.5 -126t-210.5 -48q-236 0 -314 145q-76 146 -76 432q0 94 13.5 215.5t44.5 177.5q16 31 31 53t43 49.5t61 44t84.5 28.5t114.5 12q73 0 132.5 -20.5t97 -54.5t60.5 -67t35 -67q43 -101 43 -481h-409v-129
q0 -56 39 -56q38 0 38 56v69h330zM446 666q0 10 -1 72t-1 69q0 20 -11.5 31.5t-29.5 11.5q-17 0 -28.5 -11.5t-12.5 -31.5q0 -4 -1 -68t-1 -73h86zM717 1200h-268v295h268v-295zM350 1200h-268v295h268v-295z" />
    <glyph glyph-name="igrave" unicode="&#xec;" horiz-adv-x="423" 
d="M412 0h-361q-22 6 -22 61v1065h370v-1069q0 -12 3.5 -26.5t6.5 -22.5zM408 1200h-330l-189 336h377z" />
    <glyph glyph-name="iacute" unicode="&#xed;" horiz-adv-x="423" 
d="M412 0h-361q-22 6 -22 61v1065h370v-1069q0 -12 3.5 -26.5t6.5 -22.5zM23 1200l141 336h377l-191 -336h-327z" />
    <glyph glyph-name="icircumflex" unicode="&#xee;" horiz-adv-x="423" 
d="M412 0h-361q-22 6 -22 61v1065h370v-1069q0 -12 3.5 -26.5t6.5 -22.5zM557 1200h-291l-55 115l-53 -115h-283l162 336h356z" />
    <glyph glyph-name="idieresis" unicode="&#xef;" horiz-adv-x="423" 
d="M412 0h-361q-22 6 -22 61v1065h370v-1069q0 -12 3.5 -26.5t6.5 -22.5zM532 1200h-268v295h268v-295zM166 1200h-268v295h268v-295z" />
    <glyph glyph-name="eth" unicode="&#xf0;" horiz-adv-x="858" 
d="M475 1010q-18 -2 -45 -2q-129 0 -188 147l114 66q26 -64 68 -64q26 0 51 6v121q0 55 -12 76.5t-39 21.5q-29 0 -40 -11t-11 -50v-59h-340q0 98 6 143q12 100 107.5 176t265.5 76q177 0 275 -88.5t120 -233.5q6 -41 12 -90q14 6 41 6q119 0 178 -127l-102 -84
q-24 64 -70 64q-12 0 -32 -8l6 -246q0 -180 -14.5 -382t-51.5 -282q-96 -204 -356 -204q-156 0 -238 58t-121 163q-35 90 -38 296.5t28 299.5q28 73 100 116t164 43q46 0 76 -9.5t86 -39.5v101zM389 338q1 -35 10 -48.5t29 -13.5q25 0 34 12t11 46q0 14 5 129.5t5 154.5
q-7 26 -17 40t-28 14q-49 0 -49 -47v-287z" />
    <glyph glyph-name="ntilde" unicode="&#xf1;" horiz-adv-x="825" 
d="M799 874q0 -862 6 -874h-352q-9 4 -9 778q0 31 -5.5 43.5t-20.5 12.5q-19 0 -27 -18t-8 -60v-756h-354v1126h344v-98q18 49 70.5 81t127.5 32q113 0 170.5 -70t57.5 -197zM338 1294q-59 0 -62 -90h-229q3 161 62 251.5t157 90.5q40 0 77 -17t58.5 -37t42.5 -37t33 -17
q35 0 49.5 23t16.5 77h219q-1 -171 -62 -259.5t-153 -88.5q-39 0 -78.5 16t-63.5 36t-43.5 36t-23.5 16z" />
    <glyph glyph-name="ograve" unicode="&#xf2;" horiz-adv-x="813" 
d="M793 567q0 -196 -15 -291q-8 -57 -33.5 -107.5t-70 -92t-115 -66t-158.5 -24.5q-76 0 -137.5 17.5t-102 46t-69.5 68t-43 80t-18 85.5q-15 127 -15 284q0 75 8 173.5t15 133.5q9 38 25 72.5t45.5 71t69 63t99 43.5t130.5 17q91 0 161.5 -24t113 -65.5t66 -90.5t29.5 -105
q15 -176 15 -289zM596 1200h-330l-188 336h377zM446 788q-2 29 -10.5 41.5t-29.5 12.5q-36 0 -39 -54q-2 -29 -2 -227q0 -40 1 -123t1 -100q0 -57 39 -57q40 0 40 57v450z" />
    <glyph glyph-name="oacute" unicode="&#xf3;" horiz-adv-x="813" 
d="M793 567q0 -196 -15 -291q-8 -57 -33.5 -107.5t-70 -92t-115 -66t-158.5 -24.5q-76 0 -137.5 17.5t-102 46t-69.5 68t-43 80t-18 85.5q-15 127 -15 284q0 75 8 173.5t15 133.5q9 38 25 72.5t45.5 71t69 63t99 43.5t130.5 17q91 0 161.5 -24t113 -65.5t66 -90.5t29.5 -105
q15 -176 15 -289zM211 1200l141 336h377l-190 -336h-328zM446 788q-2 29 -10.5 41.5t-29.5 12.5q-36 0 -39 -54q-2 -29 -2 -227q0 -40 1 -123t1 -100q0 -57 39 -57q40 0 40 57v450z" />
    <glyph glyph-name="ocircumflex" unicode="&#xf4;" horiz-adv-x="813" 
d="M793 567q0 -196 -15 -291q-8 -57 -33.5 -107.5t-70 -92t-115 -66t-158.5 -24.5q-76 0 -137.5 17.5t-102 46t-69.5 68t-43 80t-18 85.5q-15 127 -15 284q0 75 8 173.5t15 133.5q9 38 25 72.5t45.5 71t69 63t99 43.5t130.5 17q91 0 161.5 -24t113 -65.5t66 -90.5t29.5 -105
q15 -176 15 -289zM748 1200h-291l-56 115l-53 -115h-282l161 336h357zM446 788q-2 29 -10.5 41.5t-29.5 12.5q-36 0 -39 -54q-2 -29 -2 -227q0 -40 1 -123t1 -100q0 -57 39 -57q40 0 40 57v450z" />
    <glyph glyph-name="otilde" unicode="&#xf5;" horiz-adv-x="813" 
d="M793 567q0 -196 -15 -291q-8 -57 -33.5 -107.5t-70 -92t-115 -66t-158.5 -24.5q-76 0 -137.5 17.5t-102 46t-69.5 68t-43 80t-18 85.5q-15 127 -15 284q0 75 8 173.5t15 133.5q9 38 25 72.5t45.5 71t69 63t99 43.5t130.5 17q91 0 161.5 -24t113 -65.5t66 -90.5t29.5 -105
q15 -176 15 -289zM324 1294q-59 0 -62 -90h-229q3 161 62 251.5t157 90.5q40 0 77 -17t58.5 -37t42.5 -37t33 -17q35 0 49 22.5t16 77.5h220q-1 -171 -62.5 -259.5t-153.5 -88.5q-39 0 -78 16t-63 36t-43.5 36t-23.5 16zM446 788q-2 29 -10.5 41.5t-29.5 12.5q-36 0 -39 -54
q-2 -29 -2 -227q0 -40 1 -123t1 -100q0 -57 39 -57q40 0 40 57v450z" />
    <glyph glyph-name="odieresis" unicode="&#xf6;" horiz-adv-x="813" 
d="M793 567q0 -196 -15 -291q-8 -57 -33.5 -107.5t-70 -92t-115 -66t-158.5 -24.5q-76 0 -137.5 17.5t-102 46t-69.5 68t-43 80t-18 85.5q-15 127 -15 284q0 75 8 173.5t15 133.5q9 38 25 72.5t45.5 71t69 63t99 43.5t130.5 17q91 0 161.5 -24t113 -65.5t66 -90.5t29.5 -105
q15 -176 15 -289zM356 1200h-268v295h268v-295zM723 1200h-268v295h268v-295zM446 788q-2 29 -10.5 41.5t-29.5 12.5q-36 0 -39 -54q-2 -29 -2 -227q0 -40 1 -123t1 -100q0 -57 39 -57q40 0 40 57v450z" />
    <glyph glyph-name="divide" unicode="&#xf7;" horiz-adv-x="708" 
d="M508 1016h-305v221h305v-221zM698 666h-688v286h688v-286zM508 381h-305v223h305v-223z" />
    <glyph glyph-name="oslash" unicode="&#xf8;" horiz-adv-x="813" 
d="M270 2l-22 -65h-103l35 100q-130 76 -149 246q-15 127 -15 284q0 75 8 173.5t15 133.5q9 38 25 72.5t45.5 71t69 63t99 43.5t130.5 17q68 0 131 -17l20 58h103l-33 -92q131 -74 149 -234q15 -176 15 -289q0 -196 -15 -291q-8 -57 -33.5 -107.5t-70 -92t-115 -66
t-158.5 -24.5q-69 0 -131 16zM446 788q-2 29 -10.5 41.5t-29.5 12.5q-36 0 -39 -54q-2 -29 -2 -227q0 -40 1 -123t1 -100q0 -57 39 -57q40 0 40 57v450z" />
    <glyph glyph-name="ugrave" unicode="&#xf9;" horiz-adv-x="821" 
d="M801 0h-338l-10 45q-41 -28 -76.5 -39.5t-89.5 -11.5q-262 0 -262 342v790h354v-780q0 -36 6 -48.5t23 -12.5q22 0 28 17t6 73v751h355v-1001q0 -89 4 -125zM623 1200h-330l-189 336h377z" />
    <glyph glyph-name="uacute" unicode="&#xfa;" horiz-adv-x="821" 
d="M801 0h-338l-10 45q-41 -28 -76.5 -39.5t-89.5 -11.5q-262 0 -262 342v790h354v-780q0 -36 6 -48.5t23 -12.5q22 0 28 17t6 73v751h355v-1001q0 -89 4 -125zM221 1200l141 336h377l-190 -336h-328z" />
    <glyph glyph-name="ucircumflex" unicode="&#xfb;" horiz-adv-x="821" 
d="M801 0h-338l-10 45q-41 -28 -76.5 -39.5t-89.5 -11.5q-262 0 -262 342v790h354v-780q0 -36 6 -48.5t23 -12.5q22 0 28 17t6 73v751h355v-1001q0 -89 4 -125zM760 1200h-291l-55 115l-54 -115h-282l162 336h356z" />
    <glyph glyph-name="udieresis" unicode="&#xfc;" horiz-adv-x="821" 
d="M801 0h-338l-10 45q-41 -28 -76.5 -39.5t-89.5 -11.5q-262 0 -262 342v790h354v-780q0 -36 6 -48.5t23 -12.5q22 0 28 17t6 73v751h355v-1001q0 -89 4 -125zM735 1200h-268v295h268v-295zM369 1200h-269v295h269v-295z" />
    <glyph glyph-name="yacute" unicode="&#xfd;" 
d="M864 1126l-332 -1454h-350l86 338l-268 1116h356q3 -32 41 -339t39 -318q62 577 70 657h358zM244 1200l141 336h377l-191 -336h-327z" />
    <glyph glyph-name="thorn" unicode="&#xfe;" horiz-adv-x="837" 
d="M819 578q0 -246 -24 -353q-49 -227 -254 -227q-43 0 -76 6.5t-48 13t-40 19.5v-365h-348v1966h342v-579q51 82 184 82q88 0 142.5 -40t80.5 -124q41 -127 41 -399zM457 571q0 158 -4 224q0 45 -35 45q-41 0 -41 -52v-464q0 -45 39 -45q37 0 37 49q4 74 4 243z" />
    <glyph glyph-name="ydieresis" unicode="&#xff;" 
d="M864 1126l-332 -1454h-350l86 338l-268 1116h356q3 -32 41 -339t39 -318q62 577 70 657h358zM758 1200h-269v295h269v-295zM391 1200h-268v295h268v-295z" />
    <glyph glyph-name="dotlessi" unicode="&#x131;" horiz-adv-x="423" 
d="M412 0h-361q-22 6 -22 61v1065h370v-1069q0 -12 3.5 -26.5t6.5 -22.5z" />
    <glyph glyph-name="Lslash" unicode="&#x141;" horiz-adv-x="827" 
d="M438 653v-284h379v-369h-784v541l-27 -9v187l27 10v909h405v-796l172 51v-188z" />
    <glyph glyph-name="lslash" unicode="&#x142;" horiz-adv-x="462" 
d="M412 672v-600q0 -64 10 -72h-354q-15 9 -15 80v469l-51 -17v187l51 18v811q0 69 -8 90h361q6 -22 6 -59v-719l51 19v-189z" />
    <glyph glyph-name="OE" unicode="&#x152;" horiz-adv-x="1255" 
d="M713 1638h534v-376h-342v-263h316v-350h-316v-280h342v-369h-534l-2 75q-1 -1 -2 -20q-30 -28 -104 -53t-144 -25q-417 0 -436 361q-5 165 -5 485q0 357 5 439q4 82 28 148.5t72.5 122.5t134 87t201.5 31q180 0 252 -66v53zM465 326q22 0 30 14.5t11 48.5q4 118 4 428
q0 343 -2 400q-1 52 -9.5 67.5t-33.5 15.5t-32.5 -16t-10.5 -70q-2 -57 -2 -399q0 -363 2 -426q3 -34 12 -48.5t31 -14.5z" />
    <glyph glyph-name="oe" unicode="&#x153;" horiz-adv-x="1214" 
d="M381 -14q-85 0 -151.5 26t-107 70t-63 94.5t-28.5 106.5q-15 127 -15 284q0 75 8 173.5t15 133.5q9 38 25 72.5t45.5 71t69 63t99 43.5t130.5 17q108 0 206 -80q71 80 209 80q73 0 132.5 -20.5t97.5 -54.5t61.5 -67t36.5 -67q43 -107 43 -481h-414v-129q0 -56 41 -56
q16 0 29.5 14t13.5 42v69h330q0 -31 -13 -104.5t-40 -128.5q-31 -75 -105 -124.5t-192 -49.5q-74 0 -141 20t-93 59q-27 -36 -89.5 -56.5t-139.5 -20.5zM446 788q-2 29 -10.5 41.5t-29.5 12.5q-36 0 -39 -54q-2 -29 -2 -227q0 -40 1 -123t1 -100q0 -57 39 -57q40 0 40 57
v450zM862 666q0 10 -1 72t-1 69q0 20 -12.5 31.5t-30.5 11.5q-17 0 -28.5 -11.5t-12.5 -31.5q0 -5 -1 -70t-1 -71h88z" />
    <glyph glyph-name="Scaron" unicode="&#x160;" horiz-adv-x="849" 
d="M838 408q0 -205 -107.5 -318t-308.5 -113q-190 0 -301 82.5t-111 237.5v203h365v-148q0 -51 41 -51q39 0 39 74q0 79 -24.5 130.5t-98.5 125.5q-13 14 -82 78t-78 73q-89 84 -127.5 180.5t-38.5 266.5q0 194 115 311t305 117q101 0 178.5 -30t124 -82.5t71 -117.5
t29.5 -143l5 -160h-367v125q0 64 -39 64q-25 0 -35 -18.5t-10 -59.5q0 -69 24 -118.5t82 -106.5q137 -126 164 -158q96 -96 140.5 -195.5t44.5 -248.5zM80 2040h291l55 -115l53 115h285l-164 -336h-356z" />
    <glyph glyph-name="scaron" unicode="&#x161;" horiz-adv-x="747" 
d="M733 311q0 -156 -92 -243.5t-260 -87.5q-167 0 -261 63.5t-106 181.5q-9 94 -6 142h322q0 -1 1 -26t1 -40q0 -23 6 -33t24 -10q20 0 27.5 11.5t7.5 41.5q0 38 -14 60t-57 43q-20 9 -61 29t-60 28q-193 100 -193 336q0 154 91 245t259 91q150 0 234 -59.5t106 -157.5
q15 -116 15 -174h-320v51q0 37 -28 37q-35 0 -35 -45q0 -9 1 -16.5t4.5 -13.5t5.5 -9.5t8.5 -8t9 -6t12 -6t12.5 -6.5q54 -24 160 -74q186 -88 186 -344zM27 1550h290l56 -114l53 114h285l-164 -336h-357z" />
    <glyph glyph-name="Ydieresis" unicode="&#x178;" horiz-adv-x="983" 
d="M983 1638l-301 -991v-647h-399v637l-283 1001h395q78 -436 86 -542q3 48 28 183.5t49 246.5l24 112h401zM823 1690h-268v295h268v-295zM457 1690h-269v295h269v-295z" />
    <glyph glyph-name="Zcaron" unicode="&#x17d;" horiz-adv-x="837" 
d="M831 0h-821v340l383 922h-348v376h780v-342l-383 -927h389v-369zM72 2040h290l56 -115l53 115h285l-164 -336h-356z" />
    <glyph glyph-name="zcaron" unicode="&#x17e;" horiz-adv-x="720" 
d="M709 0h-697v307l305 504h-294v315h686v-305l-312 -506h312v-315zM14 1550h291l55 -114l54 114h284l-163 -336h-357z" />
    <glyph glyph-name="florin" unicode="&#x192;" horiz-adv-x="712" 
d="M457 -72q-25 -311 -348 -311q-72 0 -146 4v287q33 -2 72 -2q28 0 47.5 23t21.5 48l76 834h-84v315h111l18 207q6 68 26.5 122t60 98t106.5 68t157 24q47 0 144 -5v-286q-33 2 -72 2q-30 0 -48.5 -23t-20.5 -49l-17 -158h92v-315h-116z" />
    <glyph glyph-name="circumflex" unicode="&#x2c6;" 
d="M776 1200h-291l-55 115l-53 -115h-283l162 336h356z" />
    <glyph glyph-name="caron" unicode="&#x2c7;" 
d="M88 1550h291l55 -114l53 114h285l-164 -336h-356z" />
    <glyph glyph-name="breve" unicode="&#x2d8;" 
d="M809 1505q0 -140 -100.5 -226.5t-274.5 -86.5t-274.5 86.5t-100.5 226.5h295q0 -32 20 -55t60 -23t60 22t20 56h295z" />
    <glyph glyph-name="dotaccent" unicode="&#x2d9;" 
d="M575 1200h-282v311h282v-311z" />
    <glyph glyph-name="ring" unicode="&#x2da;" 
d="M436 1640q95 0 161.5 -66t66.5 -161t-66.5 -161t-161.5 -66t-161 66t-66 161t66 161t161 66zM436 1483q-29 0 -49 -20.5t-20 -49.5t20 -49.5t49 -20.5t49.5 20.5t20.5 49.5t-20.5 49.5t-49.5 20.5z" />
    <glyph glyph-name="ogonek" unicode="&#x2db;" horiz-adv-x="999" 
d="M494 -195q0 -22 26 -36t68 -17v-149q-194 7 -281.5 57t-87.5 143q0 189 316 197l14 -135q-29 -8 -42 -21.5t-13 -38.5z" />
    <glyph glyph-name="tilde" unicode="&#x2dc;" 
d="M352 1294q-58 0 -61 -90h-230q3 161 62.5 251.5t157.5 90.5q41 0 77.5 -17t58 -37t42.5 -37t33 -17q35 0 49 22.5t16 77.5h219q-1 -171 -62 -259.5t-153 -88.5q-39 0 -78.5 16t-63.5 36t-43.5 36t-23.5 16z" />
    <glyph glyph-name="hungarumlaut" unicode="&#x2dd;" 
d="M471 1200l94 336h330l-145 -336h-279zM96 1200l94 336h330l-145 -336h-279z" />
    <glyph glyph-name="Delta" unicode="&#x394;" horiz-adv-x="675" 
d="M303 1047v264h-293v317h656v-317h-301v-264q82 -12 138 -76t56 -148t-56.5 -147t-140.5 -74v-229h304v-363h-656v363h291v229q-82 12 -137 74.5t-55 146.5t56 148t138 76zM365 997v-96l-33 -70l-29 70v96q-62 -12 -103.5 -61t-41.5 -113t40.5 -112t102.5 -60v97l31 67
l30 -67v-97q62 11 105 59.5t43 112.5t-41.5 113t-103.5 61zM338 827q6 8 30.5 38.5t32.5 43.5q22 31 48 7q21 -19 16 -43q-4 -16 -23 -19q-32 -5 -104 -27zM326 827q-71 22 -105 27q-29 5 -23 35q6 26 27 34q21 9 37 -14q8 -13 32.5 -43t31.5 -39zM338 819q65 -20 104 -26
q29 -5 23 -34q-5 -27 -27 -36q-21 -9 -37 14q-8 13 -32.5 43.5t-30.5 38.5zM326 819q-7 -9 -31.5 -39t-32.5 -43q-21 -30 -47 -8q-22 19 -17 43q3 18 23 21q41 7 105 26z" />
    <glyph glyph-name="Delta" unicode="&#x2206;" horiz-adv-x="675" 
d="M303 1047v264h-293v317h656v-317h-301v-264q82 -12 138 -76t56 -148t-56.5 -147t-140.5 -74v-229h304v-363h-656v363h291v229q-82 12 -137 74.5t-55 146.5t56 148t138 76zM365 997v-96l-33 -70l-29 70v96q-62 -12 -103.5 -61t-41.5 -113t40.5 -112t102.5 -60v97l31 67
l30 -67v-97q62 11 105 59.5t43 112.5t-41.5 113t-103.5 61zM338 827q6 8 30.5 38.5t32.5 43.5q22 31 48 7q21 -19 16 -43q-4 -16 -23 -19q-32 -5 -104 -27zM326 827q-71 22 -105 27q-29 5 -23 35q6 26 27 34q21 9 37 -14q8 -13 32.5 -43t31.5 -39zM338 819q65 -20 104 -26
q29 -5 23 -34q-5 -27 -27 -36q-21 -9 -37 14q-8 13 -32.5 43.5t-30.5 38.5zM326 819q-7 -9 -31.5 -39t-32.5 -43q-21 -30 -47 -8q-22 19 -17 43q3 18 23 21q41 7 105 26z" />
    <glyph glyph-name="Omega" unicode="&#x3a9;" horiz-adv-x="675" 
d="M303 1047v264h-293v317h656v-317h-301v-264q82 -12 138 -76t56 -148t-56.5 -147t-140.5 -74v-229h304v-363h-656v363h291v229q-82 12 -137 74.5t-55 146.5t56 148t138 76zM365 997v-96l-33 -70l-29 70v96q-62 -12 -103.5 -61t-41.5 -113t40.5 -112t102.5 -60v97l31 67
l30 -67v-97q62 11 105 59.5t43 112.5t-41.5 113t-103.5 61zM338 827q6 8 30.5 38.5t32.5 43.5q22 31 48 7q21 -19 16 -43q-4 -16 -23 -19q-32 -5 -104 -27zM326 827q-71 22 -105 27q-29 5 -23 35q6 26 27 34q21 9 37 -14q8 -13 32.5 -43t31.5 -39zM338 819q65 -20 104 -26
q29 -5 23 -34q-5 -27 -27 -36q-21 -9 -37 14q-8 13 -32.5 43.5t-30.5 38.5zM326 819q-7 -9 -31.5 -39t-32.5 -43q-21 -30 -47 -8q-22 19 -17 43q3 18 23 21q41 7 105 26z" />
    <glyph glyph-name="Omega" unicode="&#x2126;" horiz-adv-x="675" 
d="M303 1047v264h-293v317h656v-317h-301v-264q82 -12 138 -76t56 -148t-56.5 -147t-140.5 -74v-229h304v-363h-656v363h291v229q-82 12 -137 74.5t-55 146.5t56 148t138 76zM365 997v-96l-33 -70l-29 70v96q-62 -12 -103.5 -61t-41.5 -113t40.5 -112t102.5 -60v97l31 67
l30 -67v-97q62 11 105 59.5t43 112.5t-41.5 113t-103.5 61zM338 827q6 8 30.5 38.5t32.5 43.5q22 31 48 7q21 -19 16 -43q-4 -16 -23 -19q-32 -5 -104 -27zM326 827q-71 22 -105 27q-29 5 -23 35q6 26 27 34q21 9 37 -14q8 -13 32.5 -43t31.5 -39zM338 819q65 -20 104 -26
q29 -5 23 -34q-5 -27 -27 -36q-21 -9 -37 14q-8 13 -32.5 43.5t-30.5 38.5zM326 819q-7 -9 -31.5 -39t-32.5 -43q-21 -30 -47 -8q-22 19 -17 43q3 18 23 21q41 7 105 26z" />
    <glyph glyph-name="pi" unicode="&#x3c0;" horiz-adv-x="1069" 
d="M1042 879q0 -237 -124.5 -362.5t-376.5 -125.5q-253 0 -383.5 125.5t-130.5 362.5v319q0 224 132.5 336.5t375.5 112.5q242 0 374.5 -111.5t132.5 -337.5v-319zM895 918v282q0 141 -83.5 218t-276.5 77q-363 0 -363 -295v-282q0 -189 86.5 -284t276.5 -95q108 0 179.5 23
t110.5 73.5t54.5 117t15.5 165.5zM492 813v-115h-228v627h293q125 0 197 -51q49 -34 69.5 -88t20.5 -101q0 -126 -41 -186q-27 -40 -76.5 -63t-97.5 -23h-137zM612 1067q0 40 -15 58t-60 18h-45v-152h59q38 0 49.5 17.5t11.5 58.5z" />
    <glyph glyph-name="endash" unicode="&#x2013;" horiz-adv-x="700" 
d="M680 594h-660v350h660v-350z" />
    <glyph glyph-name="emdash" unicode="&#x2014;" horiz-adv-x="1003" 
d="M901 594h-799v350h799v-350z" />
    <glyph glyph-name="quoteleft" unicode="&#x2018;" horiz-adv-x="374" 
d="M356 1391v-400h-336v412l203 248l148 -121l-84 -129v-10h69z" />
    <glyph glyph-name="quoteright" unicode="&#x2019;" horiz-adv-x="374" 
d="M25 1239v399h335v-411l-202 -248l-148 121l82 131v8h-67z" />
    <glyph glyph-name="quotesinglbase" unicode="&#x201a;" horiz-adv-x="374" 
d="M25 0v399h335v-411l-202 -248l-148 121l82 131v8h-67z" />
    <glyph glyph-name="quotedblleft" unicode="&#x201c;" horiz-adv-x="747" 
d="M727 1391v-400h-336v412l203 248l147 -121l-82 -129v-10h68zM356 1391v-400h-336v412l205 248l146 -121l-82 -129v-10h67z" />
    <glyph glyph-name="quotedblright" unicode="&#x201d;" horiz-adv-x="747" 
d="M393 1239v399h336v-411l-203 -248l-147 121l82 131v8h-68zM25 1239v399h333v-411l-202 -248l-146 121l80 131v8h-65z" />
    <glyph glyph-name="quotedblbase" unicode="&#x201e;" horiz-adv-x="747" 
d="M393 0v399h336v-411l-203 -248l-147 121l82 131v8h-68zM25 0v399h333v-411l-202 -248l-146 121l80 131v8h-65z" />
    <glyph glyph-name="dagger" unicode="&#x2020;" horiz-adv-x="534" 
d="M520 807h-78v-827l-174 -226l-174 226v827h-80v248h80v569h348q2 -393 0 -569h78v-248z" />
    <glyph glyph-name="daggerdbl" unicode="&#x2021;" horiz-adv-x="534" 
d="M442 768h76v-248h-76v-540l-174 -226l-174 226v540h-76v248h76v147h-76v248h76v461h348v-461h76v-248h-76v-147z" />
    <glyph glyph-name="bullet" unicode="&#x2022;" horiz-adv-x="841" 
d="M424 367q-146 0 -251 111t-105 265q0 157 105 268t251 111q148 0 252 -111t104 -268q0 -154 -104.5 -265t-251.5 -111z" />
    <glyph glyph-name="ellipsis" unicode="&#x2026;" horiz-adv-x="1292" 
d="M1262 0h-371v442h371v-442zM831 0h-370v442h370v-442zM401 0h-372v442h372v-442z" />
    <glyph glyph-name="perthousand" unicode="&#x2030;" horiz-adv-x="1918" 
d="M627 1147q0 -145 -77 -230.5t-224 -85.5q-145 0 -216 85t-71 231v201q0 131 77 223t218 92q78 0 137 -27.5t91.5 -73.5t48.5 -100t16 -114v-201zM1237 297q0 -145 -77 -231t-222 -86t-217 85t-72 232v199q0 63 18.5 118.5t54 100t93 70.5t129.5 26q79 0 138 -27.5
t91.5 -74t48 -100t15.5 -113.5v-199zM1886 297q0 -145 -77 -231t-222 -86t-217 85t-72 232v199q0 63 18.5 118.5t54 100t93 70.5t129.5 26q78 0 137 -27.5t91.5 -73.5t48.5 -100t16 -114v-199zM1094 1620l-750 -1620h-172l750 1620h172zM989 319v158q0 64 -45 64t-45 -64
v-158q0 -38 9.5 -56.5t35.5 -18.5t35.5 18t9.5 57zM1638 319v158q0 64 -45 64t-45 -64v-158q0 -38 9.5 -56.5t35.5 -18.5t35.5 18t9.5 57zM377 1169v160q0 62 -43 62q-45 0 -45 -62v-160q0 -37 10 -55t35 -18t34 17.5t9 55.5z" />
    <glyph glyph-name="guilsinglleft" unicode="&#x2039;" horiz-adv-x="444" 
d="M420 227l-393 353v278l393 352v-358l-158 -133l158 -131v-361z" />
    <glyph glyph-name="guilsinglright" unicode="&#x203a;" horiz-adv-x="444" 
d="M27 227v361l157 131l-157 133v358l393 -352v-278z" />
    <glyph glyph-name="fraction" unicode="&#x2044;" horiz-adv-x="208" 
d="M377 1636q-171 -756 -189 -819l-186 -817h-176q187 818 205 881q8 25 50.5 214t80.5 365l39 176h176z" />
    <glyph glyph-name="fraction" unicode="&#x2215;" horiz-adv-x="208" 
d="M377 1636q-171 -756 -189 -819l-186 -817h-176q187 818 205 881q8 25 50.5 214t80.5 365l39 176h176z" />
    <glyph glyph-name="Euro" unicode="&#x20ac;" horiz-adv-x="933" 
d="M459 846v-51h49v-228h-49q1 -34 1.5 -77.5t1 -70.5t1.5 -42q0 -39 8 -55.5t29 -16.5q20 0 28.5 16.5t8.5 55.5v223h374q-12 -200 -26 -289q-23 -153 -116.5 -241t-268.5 -88q-329 0 -383 329q-12 71 -23 256h-78v228h70v51h-70v227h74q3 183 21 281q9 42 19.5 75t29.5 70
t47.5 63.5t68 49t96.5 34t128 11.5q91 0 163 -25.5t117 -70t72 -95.5t39 -112q17 -104 24 -336h-378q-2 96 -2 219q0 43 -7.5 59.5t-29.5 16.5q-21 0 -28 -18t-7 -60q0 -92 -2 -162h47v-227h-49z" />
    <glyph glyph-name="trademark" unicode="&#x2122;" horiz-adv-x="1439" 
d="M1171 1069v295q0 30 -6 40.5t-26 10.5q-43 0 -43 -80v-266h-234v297q0 30 -7 39.5t-28 9.5q-43 0 -43 -84v-262h-233v569h227v-102q12 54 53.5 83.5t108.5 29.5q61 0 97 -33.5t44 -81.5q33 115 176 115q36 0 63.5 -11.5t43 -29t25.5 -41.5t13 -45.5t3 -44.5v-408h-234z
M524 1405h-151q0 -59 4 -100q5 -31 51 -31q37 0 51 2v-201q-41 -10 -139 -10q-94 0 -148.5 47t-54.5 135v158h-133v233h520v-233z" />
    <glyph glyph-name="partialdiff" unicode="&#x2202;" horiz-adv-x="675" 
d="M303 1047v264h-293v317h656v-317h-301v-264q82 -12 138 -76t56 -148t-56.5 -147t-140.5 -74v-229h304v-363h-656v363h291v229q-82 12 -137 74.5t-55 146.5t56 148t138 76zM365 997v-96l-33 -70l-29 70v96q-62 -12 -103.5 -61t-41.5 -113t40.5 -112t102.5 -60v97l31 67
l30 -67v-97q62 11 105 59.5t43 112.5t-41.5 113t-103.5 61zM338 827q6 8 30.5 38.5t32.5 43.5q22 31 48 7q21 -19 16 -43q-4 -16 -23 -19q-32 -5 -104 -27zM326 827q-71 22 -105 27q-29 5 -23 35q6 26 27 34q21 9 37 -14q8 -13 32.5 -43t31.5 -39zM338 819q65 -20 104 -26
q29 -5 23 -34q-5 -27 -27 -36q-21 -9 -37 14q-8 13 -32.5 43.5t-30.5 38.5zM326 819q-7 -9 -31.5 -39t-32.5 -43q-21 -30 -47 -8q-22 19 -17 43q3 18 23 21q41 7 105 26z" />
    <glyph glyph-name="product" unicode="&#x220f;" horiz-adv-x="675" 
d="M303 1047v264h-293v317h656v-317h-301v-264q82 -12 138 -76t56 -148t-56.5 -147t-140.5 -74v-229h304v-363h-656v363h291v229q-82 12 -137 74.5t-55 146.5t56 148t138 76zM365 997v-96l-33 -70l-29 70v96q-62 -12 -103.5 -61t-41.5 -113t40.5 -112t102.5 -60v97l31 67
l30 -67v-97q62 11 105 59.5t43 112.5t-41.5 113t-103.5 61zM338 827q6 8 30.5 38.5t32.5 43.5q22 31 48 7q21 -19 16 -43q-4 -16 -23 -19q-32 -5 -104 -27zM326 827q-71 22 -105 27q-29 5 -23 35q6 26 27 34q21 9 37 -14q8 -13 32.5 -43t31.5 -39zM338 819q65 -20 104 -26
q29 -5 23 -34q-5 -27 -27 -36q-21 -9 -37 14q-8 13 -32.5 43.5t-30.5 38.5zM326 819q-7 -9 -31.5 -39t-32.5 -43q-21 -30 -47 -8q-22 19 -17 43q3 18 23 21q41 7 105 26z" />
    <glyph glyph-name="summation" unicode="&#x2211;" horiz-adv-x="675" 
d="M303 1047v264h-293v317h656v-317h-301v-264q82 -12 138 -76t56 -148t-56.5 -147t-140.5 -74v-229h304v-363h-656v363h291v229q-82 12 -137 74.5t-55 146.5t56 148t138 76zM365 997v-96l-33 -70l-29 70v96q-62 -12 -103.5 -61t-41.5 -113t40.5 -112t102.5 -60v97l31 67
l30 -67v-97q62 11 105 59.5t43 112.5t-41.5 113t-103.5 61zM338 827q6 8 30.5 38.5t32.5 43.5q22 31 48 7q21 -19 16 -43q-4 -16 -23 -19q-32 -5 -104 -27zM326 827q-71 22 -105 27q-29 5 -23 35q6 26 27 34q21 9 37 -14q8 -13 32.5 -43t31.5 -39zM338 819q65 -20 104 -26
q29 -5 23 -34q-5 -27 -27 -36q-21 -9 -37 14q-8 13 -32.5 43.5t-30.5 38.5zM326 819q-7 -9 -31.5 -39t-32.5 -43q-21 -30 -47 -8q-22 19 -17 43q3 18 23 21q41 7 105 26z" />
    <glyph glyph-name="minus" unicode="&#x2212;" horiz-adv-x="706" 
d="M696 651h-686v314h686v-314z" />
    <glyph glyph-name="radical" unicode="&#x221a;" horiz-adv-x="1024" 
d="M1032 1645l-291 -1694h-579l-148 708h342l66 -340l203 1326h407z" />
    <glyph glyph-name="infinity" unicode="&#x221e;" horiz-adv-x="823" 
d="M778 770q0 -151 -51.5 -217t-165.5 -66q-93 0 -149 50q-53 -50 -146 -50q-129 0 -179 70t-50 201q0 142 47 212t168 70q97 0 156 -49q59 49 153 49q119 0 168 -66t49 -204zM272 651q7 0 12.5 3.5t9.5 11t6.5 15t5.5 21.5t4.5 24.5t4 29t4.5 30.5q-7 45 -16.5 68t-28.5 23
q-22 0 -27 -22t-5 -95q0 -72 4.5 -90.5t25.5 -18.5zM575 770q0 66 -5 86.5t-25 20.5q-9 0 -15.5 -7t-11 -24t-7 -31t-6.5 -43.5t-7 -46.5q5 -37 13.5 -55.5t27.5 -18.5q23 0 29.5 20t6.5 99z" />
    <glyph glyph-name="integral" unicode="&#x222b;" horiz-adv-x="675" 
d="M303 1047v264h-293v317h656v-317h-301v-264q82 -12 138 -76t56 -148t-56.5 -147t-140.5 -74v-229h304v-363h-656v363h291v229q-82 12 -137 74.5t-55 146.5t56 148t138 76zM365 997v-96l-33 -70l-29 70v96q-62 -12 -103.5 -61t-41.5 -113t40.5 -112t102.5 -60v97l31 67
l30 -67v-97q62 11 105 59.5t43 112.5t-41.5 113t-103.5 61zM338 827q6 8 30.5 38.5t32.5 43.5q22 31 48 7q21 -19 16 -43q-4 -16 -23 -19q-32 -5 -104 -27zM326 827q-71 22 -105 27q-29 5 -23 35q6 26 27 34q21 9 37 -14q8 -13 32.5 -43t31.5 -39zM338 819q65 -20 104 -26
q29 -5 23 -34q-5 -27 -27 -36q-21 -9 -37 14q-8 13 -32.5 43.5t-30.5 38.5zM326 819q-7 -9 -31.5 -39t-32.5 -43q-21 -30 -47 -8q-22 19 -17 43q3 18 23 21q41 7 105 26z" />
    <glyph glyph-name="approxequal" unicode="&#x2248;" horiz-adv-x="757" 
d="M743 1141q-1 -164 -63.5 -249t-155.5 -85q-77 0 -135 45q-5 4 -15 12.5t-13.5 11.5t-11 8.5t-10.5 7t-9 5t-10.5 4t-10 1.5t-12.5 1q-48 0 -51 -80h-230q0 154 61 240t161 86q55 0 91 -16.5t70 -47.5q47 -41 74 -41q26 0 36.5 23.5t12.5 75.5zM743 772
q-1 -164 -63.5 -249t-155.5 -85q-77 0 -135 45q-6 5 -19.5 16.5t-17 14t-12.5 9t-14 8t-12.5 3t-16.5 1.5q-48 0 -51 -80h-230q0 152 61 237.5t161 85.5q92 0 161 -61q44 -41 74 -41q26 0 36.5 22.5t12.5 75.5z" />
    <glyph glyph-name="notequal" unicode="&#x2260;" horiz-adv-x="708" 
d="M690 489h-319l-25 -110h-174l25 110h-181v271h246l17 80h-263v270h324l29 123h174l-29 -123h176v-270h-237l-21 -80h258v-271z" />
    <glyph glyph-name="lessequal" unicode="&#x2264;" horiz-adv-x="708" 
d="M696 637l-684 176v250l684 182v-237l-387 -70l387 -66v-235zM696 371h-684v237h684v-237z" />
    <glyph glyph-name="greaterequal" unicode="&#x2265;" horiz-adv-x="708" 
d="M696 813l-684 -176v235l387 66l-387 70v237l684 -182v-250zM696 371h-684v237h684v-237z" />
    <glyph glyph-name="lozenge" unicode="&#x25ca;" horiz-adv-x="843" 
d="M811 655l-182 -655h-416l-180 655l180 656h416zM510 655l-88 398l-88 -398l88 -397z" />
    <glyph glyph-name="apple" unicode="&#xf8ff;" horiz-adv-x="675" 
d="M303 1047v264h-293v317h656v-317h-301v-264q82 -12 138 -76t56 -148t-56.5 -147t-140.5 -74v-229h304v-363h-656v363h291v229q-82 12 -137 74.5t-55 146.5t56 148t138 76zM365 997v-96l-33 -70l-29 70v96q-62 -12 -103.5 -61t-41.5 -113t40.5 -112t102.5 -60v97l31 67
l30 -67v-97q62 11 105 59.5t43 112.5t-41.5 113t-103.5 61zM338 827q6 8 30.5 38.5t32.5 43.5q22 31 48 7q21 -19 16 -43q-4 -16 -23 -19q-32 -5 -104 -27zM326 827q-71 22 -105 27q-29 5 -23 35q6 26 27 34q21 9 37 -14q8 -13 32.5 -43t31.5 -39zM338 819q65 -20 104 -26
q29 -5 23 -34q-5 -27 -27 -36q-21 -9 -37 14q-8 13 -32.5 43.5t-30.5 38.5zM326 819q-7 -9 -31.5 -39t-32.5 -43q-21 -30 -47 -8q-22 19 -17 43q3 18 23 21q41 7 105 26z" />
    <glyph glyph-name="NUL" horiz-adv-x="0" 
 />
    </font>
</defs>
</svg>
