<?xml version="1.0" standalone="no"?>
<!DOCTYPE svg PUBLIC "-//W3C//DTD SVG 1.1//EN" "http://www.w3.org/Graphics/SVG/1.1/DTD/svg11.dtd" >
<svg xmlns="http://www.w3.org/2000/svg" xmlns:xlink="http://www.w3.org/1999/xlink" version="1.1">
<metadata>
Created by FontForge 20201107 at Fri Jan 24 12:21:12 2025
 By 
OpenAI OpCo. L.L.C.
</metadata>
<defs>
<font id="OpenAISans-LightItalic" horiz-adv-x="600" >
  <font-face 
    font-family="OpenAI Sans Light"
    font-weight="300"
    font-style="italic"
    font-stretch="normal"
    units-per-em="1000"
    panose-1="2 11 3 4 3 2 2 6 2 3"
    ascent="800"
    descent="-200"
    x-height="500"
    cap-height="700"
    bbox="-195 -242 2232 1006"
    underline-thickness="50"
    underline-position="-125"
    slope="-12"
    unicode-range="U+000D-FB02"
  />
<missing-glyph horiz-adv-x="715" 
d="M129 700h500v-700h-500v700zM569 55v590h-380v-590h380z" />
    <glyph glyph-name="fi" unicode="fi" horiz-adv-x="610" 
d="M172 445h-115l12 55h115l20 95q11 55 38.5 80t89.5 25h114l-11 -55h-100q-32 0 -46.5 -14t-21.5 -46l-18 -85h334l-106 -500h-65l94 445h-269l-94 -445h-65zM542 598.5q-12 11.5 -12 29.5q0 21 15 36t37 15q19 0 31 -11.5t12 -29.5q0 -21 -15 -36t-37 -15q-19 0 -31 11.5
z" />
    <glyph glyph-name="fl" unicode="fl" horiz-adv-x="609" 
d="M172 445h-115l12 55h115l20 95q11 55 38.5 80t89.5 25h293l-149 -700h-65l137 645h-213q-32 0 -46.5 -14t-21.5 -46l-18 -85h130l-12 -55h-130l-94 -445h-65z" />
    <glyph glyph-name="f_f" unicode="ff" horiz-adv-x="674" 
d="M172 445h-115l12 55h115l20 95q11 55 38.5 80t89.5 25h114l-11 -55h-100q-32 0 -46.5 -14t-21.5 -46l-18 -85h269l20 95q11 55 38.5 80t89.5 25h114l-11 -55h-100q-32 0 -46.5 -14t-21.5 -46l-18 -85h130l-12 -55h-130l-94 -445h-65l94 445h-269l-94 -445h-65z" />
    <glyph glyph-name="f_f_i" unicode="ffi" horiz-adv-x="945" 
d="M172 445h-115l12 55h115l20 95q11 55 38.5 80t89.5 25h114l-11 -55h-100q-32 0 -46.5 -14t-21.5 -46l-18 -85h269l20 95q11 55 38.5 80t89.5 25h114l-11 -55h-100q-32 0 -46.5 -14t-21.5 -46l-18 -85h335l-106 -500h-65l94 445h-270l-94 -445h-65l94 445h-269l-94 -445
h-65zM878 598.5q-12 11.5 -12 29.5q0 21 15 36t37 15q19 0 31 -11.5t12 -29.5q0 -21 -15 -36t-37 -15q-19 0 -31 11.5z" />
    <glyph glyph-name="f_f_l" unicode="ffl" horiz-adv-x="942" 
d="M172 445h-115l12 55h115l20 95q11 55 38.5 80t89.5 25h114l-11 -55h-100q-32 0 -46.5 -14t-21.5 -46l-18 -85h269l20 95q11 55 38.5 80t89.5 25h292l-149 -700h-65l137 645h-212q-32 0 -46.5 -14t-21.5 -46l-18 -85h130l-12 -55h-130l-94 -445h-65l94 445h-269l-94 -445
h-65z" />
    <glyph glyph-name="w_w_w.liga" unicode="www" horiz-adv-x="2070" 
d="M72 500h63l38 -441l214 441h79l32 -440l226 440h67l38 -441l214 441h79l32 -440l226 440h67l37 -441l214 441h79l32 -440l226 440h68l-262 -500h-87l-30 421l-207 -421h-87l-37 395l-207 -395h-87l-30 421l-207 -421h-87l-37 396l-208 -396h-87l-30 421l-207 -421h-87z
" />
    <glyph glyph-name=".notdef" horiz-adv-x="715" 
d="M129 700h500v-700h-500v700zM569 55v590h-380v-590h380z" />
    <glyph glyph-name=".null" horiz-adv-x="0" 
 />
    <glyph glyph-name="nonmarkingreturn" unicode="&#xd;" horiz-adv-x="248" 
 />
    <glyph glyph-name="space" unicode=" " horiz-adv-x="248" 
 />
    <glyph glyph-name="exclam" unicode="!" horiz-adv-x="254" 
d="M48.5 1q-13.5 14 -13.5 34q0 23 18 40.5t41 17.5q20 0 33.5 -14t13.5 -34q0 -23 -18 -40.5t-41 -17.5q-20 0 -33.5 14zM141 490l45 210h70l-45 -210l-85 -307h-30z" />
    <glyph glyph-name="quotedbl" unicode="&#x22;" horiz-adv-x="336" 
d="M290 620l17 80h65l-17 -80l-52 -130h-22zM135 620l17 80h65l-17 -80l-52 -130h-22z" />
    <glyph glyph-name="numbersign" unicode="#" horiz-adv-x="649" 
d="M158 190h-108v55h120l45 210h-122v55h133l41 190h65l-41 -190h177l39 190h65l-39 -190h108v-55h-120l-43 -210h121v-55h-133l-39 -190h-65l39 190h-178l-41 -190h-65zM413 245l43 210h-176l-45 -210h178z" />
    <glyph glyph-name="dollar" unicode="$" horiz-adv-x="598" 
d="M213 -3l-45 -117h-62l51 134q-65 26 -99 78.5t-28 127.5h68q-3 -52 19.5 -88t63.5 -56l98 259l-22 7q-73 25 -107.5 62.5t-34.5 97.5t32.5 107.5t89 74t125.5 26.5q28 0 58 -5l44 115h62l-50 -132q61 -26 94.5 -76.5t32.5 -116.5h-70q-1 93 -81 132l-93 -246l24 -8
q81 -28 117.5 -73t36.5 -107q0 -59 -30.5 -105t-86.5 -72t-129 -26q-43 0 -78 7zM209 447.5q25 -22.5 76 -40.5l19 -7l93 244q-22 2 -35 2h-10q-46 0 -84.5 -18t-61 -49.5t-22.5 -70.5q0 -38 25 -60.5zM286 55h10q74 0 122 36.5t48 96.5q0 44 -27.5 73t-104.5 55l-98 -257
q23 -4 50 -4z" />
    <glyph glyph-name="percent" unicode="%" horiz-adv-x="914" 
d="M721 700h73l-560 -700h-73zM122 346q-39 46 -39 124q0 10 2 34q10 93 56.5 147t122.5 54q68 0 107.5 -46.5t39.5 -124.5q0 -10 -2 -34q-10 -92 -58 -146t-122 -54q-68 0 -107 46zM310.5 394q30.5 44 37.5 106q2 22 2 32q0 53 -22 88t-67 35h-4q-45 0 -74.5 -44.5
t-36.5 -106.5q-2 -22 -2 -33q0 -53 20.5 -87t62.5 -34h4q49 0 79.5 44zM585 41q-39 46 -39 124q0 10 2 34q10 93 56.5 147t122.5 54q68 0 107.5 -46.5t39.5 -124.5q0 -10 -2 -34q-10 -92 -58 -146t-122 -54q-68 0 -107 46zM773.5 89q30.5 44 37.5 106q2 22 2 32q0 53 -22 88
t-67 35h-4q-45 0 -74.5 -44.5t-36.5 -106.5q-2 -22 -2 -33q0 -53 20.5 -87t62.5 -34h4q49 0 79.5 44z" />
    <glyph glyph-name="ampersand" unicode="&#x26;" horiz-adv-x="672" 
d="M105 36q-59 46 -59 131q0 72 41.5 122.5t131.5 91.5q-28 38 -41.5 72.5t-13.5 75.5q0 8 2 28q4 42 28.5 77.5t64 56t87.5 20.5q49 0 87.5 -19.5t60 -53.5t21.5 -75q0 -125 -167 -192l-32 -13l156 -200q59 72 82 178l5 25h64l-6 -28q-14 -64 -41.5 -121.5t-66.5 -101.5
l85 -110h-83l-49 64q-92 -74 -208 -74q-90 0 -149 46zM152 86q40 -33 106 -33q94 0 167 59l-171 221q-78 -34 -110 -72.5t-32 -87.5q0 -54 40 -87zM238.5 471.5q12.5 -26.5 41.5 -66.5l38 15q69 27 97.5 57.5t32.5 73.5q4 41 -26 69.5t-80 28.5q-54 0 -85 -33t-31 -87
q0 -31 12.5 -57.5z" />
    <glyph glyph-name="quotesingle" unicode="'" horiz-adv-x="181" 
d="M135 620l17 80h65l-17 -80l-52 -130h-22z" />
    <glyph glyph-name="parenleft" unicode="(" horiz-adv-x="345" 
d="M148.5 -76q-40.5 54 -62.5 137t-22 182q0 154 55.5 290.5t146.5 221t191 90.5l-13 -60q-82 -15 -155 -93t-116.5 -194.5t-43.5 -240.5q0 -128 28.5 -216.5t96.5 -130.5l-12 -55q-53 15 -93.5 69z" />
    <glyph glyph-name="parenright" unicode=")" horiz-adv-x="372" 
d="M266.5 776q40.5 -54 62.5 -137t22 -182q0 -154 -55.5 -290.5t-146.5 -221t-191 -90.5l13 60q82 15 155 93t116.5 194.5t43.5 240.5q0 128 -28.5 216.5t-96.5 130.5l12 55q53 -15 93.5 -69z" />
    <glyph glyph-name="asterisk" unicode="*" horiz-adv-x="408" 
d="M167 455l60 104h-120v50h120l-60 104l44 25l60 -104l60 104l43 -25l-60 -104h120v-50h-120l60 -104l-44 -25l-60 104l-60 -104z" />
    <glyph glyph-name="plus" unicode="+" horiz-adv-x="592" 
d="M259 228h-215l12 60h215l46 212h65l-46 -212h215l-12 -60h-215l-46 -213h-65z" />
    <glyph glyph-name="comma" unicode="," horiz-adv-x="246" 
d="M-28 -75h30q30 0 47.5 14t24.5 44l4 17h-55l21 100h100l-26 -120q-11 -50 -39.5 -72.5t-75.5 -22.5h-40z" />
    <glyph glyph-name="hyphen" unicode="-" horiz-adv-x="361" 
d="M72 330h250l-12 -55h-250z" />
    <glyph glyph-name="period" unicode="." horiz-adv-x="225" 
d="M33.5 4q-13.5 14 -13.5 34q0 23 18 40.5t41 17.5q20 0 33.5 -14t13.5 -34q0 -23 -18 -40.5t-41 -17.5q-20 0 -33.5 14z" />
    <glyph glyph-name="slash" unicode="/" horiz-adv-x="379" 
d="M383 700h73l-418 -700h-73z" />
    <glyph glyph-name="zero" unicode="0" horiz-adv-x="650" 
d="M130.5 62.5q-59.5 72.5 -59.5 198.5q0 96 33 199.5t107 176.5t189 73q103 0 162.5 -72t59.5 -198q0 -96 -33 -200t-107 -177t-189 -73q-103 0 -162.5 72.5zM430 106.5q57 51.5 90.5 139t33.5 190.5q0 90 -38.5 149.5t-116.5 59.5h-10q-67 0 -124.5 -51.5t-91.5 -139
t-34 -190.5q0 -90 39 -149.5t118 -59.5h10q67 0 124 51.5z" />
    <glyph glyph-name="one" unicode="1" horiz-adv-x="326" 
d="M220 529h-139l10 48q66 0 111.5 31.5t67.5 91.5h51l-148 -700h-65z" />
    <glyph glyph-name="two" unicode="2" horiz-adv-x="549" 
d="M21 70l320 263q53 44 80.5 74.5t37.5 54.5t12 55q2 34 -14 63.5t-47 47t-70 17.5h-10q-67 0 -111 -41t-50 -108h-66q5 63 36 111.5t82 75.5t115 27q60 0 107 -23.5t73 -64.5t26 -91q0 -67 -33.5 -119t-107.5 -112l-287 -233h360l-14 -67h-453z" />
    <glyph glyph-name="three" unicode="3" horiz-adv-x="567" 
d="M89 39.5q-58 49.5 -59 138.5h69q2 -58 40 -90.5t103 -32.5h10q68 0 117 35t57 100q1 6 1 17q0 53 -42.5 84.5t-102.5 31.5h-32l14 65h52q69 0 117 37.5t48 103.5q0 53 -39 84.5t-96 31.5h-10q-61 0 -103 -35t-52 -90h-68q7 54 38 97.5t81.5 68t112.5 24.5q57 0 104 -21
t74.5 -60t27.5 -91q0 -67 -39.5 -119t-107.5 -71q45 -22 69.5 -63t19.5 -98q-8 -94 -76.5 -145.5t-167.5 -51.5q-102 0 -160 49.5z" />
    <glyph glyph-name="four" unicode="4" horiz-adv-x="597" 
d="M371 169h-347l18 86l408 445h98l-100 -468h121l-13 -63h-121l-36 -169h-64zM384 232l86 405l-367 -405h281z" />
    <glyph glyph-name="five" unicode="5" horiz-adv-x="569" 
d="M156 12q-50 22 -81 64.5t-34 103.5h67q6 -59 49.5 -92t102.5 -33h10q54 0 94.5 24t62.5 66t22 93q0 64 -42.5 104.5t-106.5 40.5h-10q-49 0 -90.5 -24.5t-65.5 -65.5h-69l144 407h365l-14 -67h-312l-87 -242q56 54 147 54q63 0 111 -26t74 -72.5t26 -104.5
q0 -74 -32.5 -131.5t-90.5 -89t-131 -31.5q-59 0 -109 22z" />
    <glyph glyph-name="six" unicode="6" horiz-adv-x="599" 
d="M127.5 54q-59.5 64 -59.5 188q0 60 17 142q30 140 105.5 233t192.5 93q55 0 101 -21.5t74.5 -61t32.5 -92.5h-71q-8 50 -45 80t-92 30h-10q-83 0 -138.5 -74t-83.5 -202q34 46 83.5 68.5t102.5 22.5q61 0 107.5 -26.5t72.5 -73.5t26 -105q0 -19 -1 -28q-8 -73 -45 -127
t-92 -82t-115 -28q-103 0 -162.5 64zM384.5 80.5q41.5 25.5 65.5 70t24 97.5q0 65 -38 106t-104 41h-10q-50 0 -92.5 -25t-67.5 -69t-25 -97q0 -66 41 -107.5t107 -41.5h10q48 0 89.5 25.5z" />
    <glyph glyph-name="seven" unicode="7" horiz-adv-x="506" 
d="M234.5 406q86.5 146 233.5 227h-365l14 67h466l-15 -70q-116 -58 -192 -134t-123 -190t-69 -283l-3 -23h-68l6 44q29 216 115.5 362z" />
    <glyph glyph-name="eight" unicode="8" horiz-adv-x="586" 
d="M143.5 15q-51.5 25 -77 69.5t-21.5 103.5q4 66 53 115t121 63q-39 18 -63.5 54.5t-24.5 85.5q0 57 31 103.5t85.5 73.5t121.5 27q59 0 105 -23t72 -62t26 -86q0 -73 -46.5 -124t-114.5 -67q46 -19 75.5 -62.5t25.5 -100.5q-5 -57 -36 -101t-84.5 -69t-123.5 -25
q-73 0 -124.5 25zM360 73.5q39 18.5 61 51.5t22 75q0 52 -41.5 86.5t-107.5 34.5h-13q-48 0 -87 -19t-61 -52t-22 -72q0 -55 41.5 -89t109.5 -34h10q49 0 88 18.5zM423 410q37 19 58 51t21 70q0 48 -37.5 81t-98.5 33h-10q-45 0 -82 -19t-57.5 -50.5t-20.5 -68.5
q0 -50 37 -83t98 -33h10q45 0 82 19z" />
    <glyph glyph-name="nine" unicode="9" 
d="M117 37.5q-58 47.5 -67 127.5h70q6 -50 43 -80t92 -30h9q83 0 139.5 73.5t86.5 201.5q-34 -46 -83 -68t-103 -22q-61 0 -107.5 26.5t-72.5 73.5t-26 105q0 19 1 28q8 73 45 127t92 82t115 28q102 0 162.5 -65.5t60.5 -189.5q0 -59 -15 -131q-32 -148 -107.5 -241
t-190.5 -93q-86 0 -144 47.5zM410 330q42 25 66.5 68.5t24.5 96.5q0 66 -40.5 108t-105.5 42h-10q-48 0 -89 -25.5t-65 -70t-24 -97.5q0 -65 38 -106t103 -41h10q50 0 92 25z" />
    <glyph glyph-name="colon" unicode=":" horiz-adv-x="247" 
d="M39.5 4q-13.5 14 -13.5 34q0 23 18 40.5t41 17.5q20 0 33.5 -14t13.5 -34q0 -23 -18 -40.5t-41 -17.5q-20 0 -33.5 14zM128.5 419q-13.5 14 -13.5 34q0 23 18 40.5t41 17.5q20 0 33.5 -14t13.5 -34q0 -23 -18 -40.5t-41 -17.5q-20 0 -33.5 14z" />
    <glyph glyph-name="semicolon" unicode=";" horiz-adv-x="278" 
d="M-12 -75h30q30 0 47.5 14t24.5 44l4 17h-55l21 100h100l-26 -120q-11 -50 -39.5 -72.5t-75.5 -22.5h-40zM146.5 419q-13.5 14 -13.5 34q0 23 18 40.5t41 17.5q20 0 33.5 -14t13.5 -34q0 -23 -18 -40.5t-41 -17.5q-20 0 -33.5 14z" />
    <glyph glyph-name="less" unicode="&#x3c;" horiz-adv-x="551" 
d="M49 229l12 56l463 177l-17 -78l-357 -131l302 -130l-16 -71z" />
    <glyph glyph-name="equal" unicode="=" horiz-adv-x="619" 
d="M90 380h494l-14 -65h-494zM52 199h494l-14 -65h-494z" />
    <glyph glyph-name="greater" unicode="&#x3e;" horiz-adv-x="551" 
d="M47 128l357 131l-302 130l16 72l387 -177l-12 -56l-463 -177z" />
    <glyph glyph-name="question" unicode="?" horiz-adv-x="480" 
d="M213.5 364.5q22.5 21.5 54.5 30.5l62 18q52 16 79.5 45.5t27.5 82.5q0 46 -34.5 75t-96.5 29q-57 0 -99 -30.5t-49 -89.5h-68q5 60 37 102t80.5 62.5t105.5 20.5q53 0 97 -20t70 -58.5t26 -90.5q0 -66 -39.5 -116t-108.5 -71l-62 -19q-28 -9 -37 -20.5t-14 -35.5l-19 -84
h-66l25 120q6 28 28.5 49.5zM124.5 1q-13.5 14 -13.5 34q0 23 18 40.5t41 17.5q20 0 33.5 -14t13.5 -34q0 -23 -18 -40.5t-41 -17.5q-20 0 -33.5 14z" />
    <glyph glyph-name="at" unicode="@" horiz-adv-x="912" 
d="M242 -83.5q-86 41.5 -136 121.5t-50 192q0 138 60.5 252.5t170 181t249.5 66.5q103 0 182.5 -40t123.5 -112t44 -165q0 -77 -28.5 -150t-88.5 -120.5t-149 -47.5h-78l15 69q-19 -32 -57 -55.5t-84 -23.5q-40 0 -74 22.5t-54 63t-20 91.5q0 61 24 118t74 93.5t123 36.5
q48 0 79.5 -28.5t41.5 -66.5l18 85h60l-74 -350h9q70 0 115 41t64.5 102t19.5 123q0 78 -35 136.5t-101.5 90.5t-157.5 32q-119 0 -211.5 -61t-144 -163t-51.5 -219q0 -93 40 -161.5t113.5 -104.5t171.5 -36h201l-12 -55h-199q-108 0 -194 41.5zM509 170q37 30 58.5 77.5
t21.5 96.5q0 53 -27 82t-67 29h-8q-54 0 -89 -31t-50.5 -76t-15.5 -89q0 -53 23.5 -86t64.5 -33h8q44 0 81 30z" />
    <glyph glyph-name="A" unicode="A" horiz-adv-x="672" 
d="M388 700h90l131 -700h-68l-36 193h-356l-118 -193h-76zM493 258l-71 380l-233 -380h304z" />
    <glyph glyph-name="B" unicode="B" horiz-adv-x="666" 
d="M192 700h257q90 0 144 -46t54 -122q0 -67 -42.5 -119.5t-107.5 -65.5q46 -17 71 -53.5t25 -86.5q0 -55 -26.5 -102.5t-74.5 -76t-108 -28.5h-341zM480 101q43 36 43 113q0 51 -33.5 79.5t-94.5 28.5h-214l-54 -257h247q63 0 106 36zM533.5 424q43.5 37 43.5 100
q0 57 -34.5 84t-103.5 27h-191l-53 -248h231q64 0 107.5 37z" />
    <glyph glyph-name="C" unicode="C" horiz-adv-x="702" 
d="M201.5 29.5q-64.5 39.5 -97 109t-32.5 157.5q0 27 3 54q11 100 58.5 182t124.5 130t174 48q76 0 133.5 -30t90 -82.5t35.5 -117.5h-70q-8 71 -53 118t-133 47h-10q-77 0 -137 -40.5t-96.5 -107.5t-46.5 -147q-3 -25 -3 -51q0 -69 23.5 -124t71 -87.5t116.5 -32.5h10
q88 0 145 46.5t80 118.5h74q-18 -66 -60.5 -118t-105.5 -82t-139 -30q-91 0 -155.5 39.5z" />
    <glyph glyph-name="D" unicode="D" horiz-adv-x="706" 
d="M192 700h183q165 0 234 -84t69 -204q0 -102 -41 -197t-118.5 -155t-181.5 -60h-294zM479.5 114.5q64.5 49.5 96.5 128.5t32 167q0 108 -60 166.5t-174 58.5h-126l-121 -570h196q92 0 156.5 49.5z" />
    <glyph glyph-name="E" unicode="E" horiz-adv-x="638" 
d="M192 700h490l-14 -65h-420l-51 -242h360l-14 -65h-360l-56 -263h430l-14 -65h-500z" />
    <glyph glyph-name="F" unicode="F" horiz-adv-x="596" 
d="M192 700h470l-14 -65h-400l-56 -263h351l-14 -65h-351l-65 -307h-70z" />
    <glyph glyph-name="G" unicode="G" horiz-adv-x="743" 
d="M206.5 28q-63.5 38 -99 105.5t-35.5 152.5q0 118 44 214.5t127 153t194 56.5q73 0 134 -31t97.5 -85t38.5 -119h-70q-9 81 -67 125.5t-136 44.5h-10q-84 0 -148 -48t-99 -127t-35 -169q0 -114 59.5 -180t161.5 -66h10q60 0 113.5 30t91.5 82t53 117v1h-229l13 65h211
q69 0 69 -65q0 -14 -3 -29l-54 -256h-65l23 110q-37 -52 -97 -86t-146 -34q-83 0 -146.5 38z" />
    <glyph glyph-name="H" unicode="H" horiz-adv-x="727" 
d="M192 700h70l-67 -317h395l67 317h70l-149 -700h-70l68 318h-395l-68 -318h-70z" />
    <glyph glyph-name="I" unicode="I" horiz-adv-x="262" 
d="M192 700h70l-149 -700h-70z" />
    <glyph glyph-name="J" unicode="J" horiz-adv-x="360" 
d="M-27 65h88q52 0 82 29.5t44 95.5l109 510h70l-111 -520q-21 -97 -68 -138.5t-142 -41.5h-86z" />
    <glyph glyph-name="K" unicode="K" horiz-adv-x="639" 
d="M192 700h70l-82 -385l470 385h98l-345 -282l201 -418h-78l-177 371l-189 -153l-46 -218h-70z" />
    <glyph glyph-name="L" unicode="L" horiz-adv-x="595" 
d="M192 700h70l-135 -635h420l-14 -65h-490z" />
    <glyph glyph-name="M" unicode="M" horiz-adv-x="925" 
d="M192 700h114l113 -644l386 644h120l-149 -700h-70l136 636l-384 -636h-96l-113 637l-136 -637h-70z" />
    <glyph glyph-name="N" unicode="N" horiz-adv-x="737" 
d="M192 700h90l256 -607l129 607h70l-149 -700h-85l-259 618l-131 -618h-70z" />
    <glyph glyph-name="O" unicode="O" horiz-adv-x="757" 
d="M216 26.5q-67 36.5 -106 106t-39 162.5q0 16 4 56q14 110 64.5 191.5t127.5 124.5t167 43q83 0 150 -37t106 -106t39 -162q0 -18 -4 -56q-14 -110 -65 -191t-128 -124.5t-167 -43.5q-82 0 -149 36.5zM503 91q60 36 100.5 103t51.5 156q3 26 3 48q0 75 -29 131t-79.5 86
t-113.5 30h-10q-69 0 -129 -36t-100.5 -103t-51.5 -156q-3 -25 -3 -48q0 -75 29 -131t79.5 -86t113.5 -30h10q69 0 129 36z" />
    <glyph glyph-name="P" unicode="P" horiz-adv-x="623" 
d="M192 700h231q63 0 113 -23.5t77.5 -65t27.5 -95.5q0 -66 -28 -117.5t-79.5 -81t-119.5 -29.5h-240l-61 -288h-70zM526 394.5q45 41.5 45 113.5q0 59 -39.5 93t-118.5 34h-165l-60 -282h223q70 0 115 41.5z" />
    <glyph glyph-name="Q" unicode="Q" horiz-adv-x="757" 
d="M362 -10l-10 -46q-2 -14 -2 -18q0 -36 44 -36h144l-14 -65h-137q-55 0 -82 20.5t-27 62.5q0 18 4 37l11 53q-100 22 -161 100.5t-61 196.5q0 18 4 56q14 110 64.5 191.5t127.5 124.5t167 43q83 0 150 -37t106 -106t39 -162q0 -18 -4 -56q-14 -110 -65 -191t-128 -124.5
t-167 -43.5h-3zM503 91q60 36 100.5 103t51.5 156q3 26 3 48q0 75 -29 131t-79.5 86t-113.5 30h-10q-69 0 -129 -36t-100.5 -103t-51.5 -156q-3 -25 -3 -48q0 -75 29 -131t79.5 -86t113.5 -30h10q69 0 129 36z" />
    <glyph glyph-name="R" unicode="R" horiz-adv-x="676" 
d="M192 700h257q93 0 147.5 -48.5t54.5 -126.5q0 -69 -35.5 -120.5t-97.5 -71.5q65 -16 65 -85q0 -16 -5 -43l-27 -121q-12 -55 -12 -84h-70q-1 18 9 66l33 155q3 12 3 23q0 51 -64 51h-274l-62 -295h-70zM534 403q47 43 47 114q0 118 -145 118h-187l-59 -275h225
q72 0 119 43z" />
    <glyph glyph-name="S" unicode="S" horiz-adv-x="608" 
d="M154.5 16.5q-61.5 26.5 -93.5 78.5t-26 125h68q-4 -80 49 -122.5t139 -42.5h10q74 0 122 36.5t48 96.5q0 44 -27.5 73t-104.5 55l-77 26q-73 25 -107.5 62.5t-34.5 97.5t32.5 107.5t89 74t125.5 26.5q70 0 125.5 -27.5t86 -76.5t29.5 -111h-70q-1 72 -49 111.5t-122 39.5
h-10q-46 0 -84.5 -18t-61 -49.5t-22.5 -70.5q0 -38 25 -60.5t76 -40.5l98 -34q81 -28 117.5 -73t36.5 -107q0 -59 -30.5 -105t-86.5 -72t-129 -26q-80 0 -141.5 26.5z" />
    <glyph glyph-name="T" unicode="T" horiz-adv-x="593" 
d="M344 635h-251l14 65h570l-14 -65h-249l-135 -635h-70z" />
    <glyph glyph-name="U" unicode="U" horiz-adv-x="689" 
d="M144.5 46q-58.5 56 -58.5 156q0 42 10 85l88 413h70l-90 -422q-9 -40 -9 -75q0 -72 39 -110t117 -38h10q86 0 137 48t72 143l97 454h70l-102 -477q-24 -113 -94.5 -173t-189.5 -60q-108 0 -166.5 56z" />
    <glyph glyph-name="V" unicode="V" horiz-adv-x="672" 
d="M103 700h70l124 -628l383 628h78l-434 -700h-80z" />
    <glyph glyph-name="W" unicode="W" horiz-adv-x="906" 
d="M115 700h68l21 -646l291 646h104l21 -642l289 642h73l-321 -700h-103l-22 627l-287 -627h-109z" />
    <glyph glyph-name="X" unicode="X" horiz-adv-x="624" 
d="M296 364l-175 336h76l148 -284l264 284h85l-318 -342l186 -358h-76l-159 305l-284 -305h-85z" />
    <glyph glyph-name="Y" unicode="Y" horiz-adv-x="620" 
d="M283 284l-180 416h73l152 -351l294 351h86l-356 -418l-60 -282h-70z" />
    <glyph glyph-name="Z" unicode="Z" horiz-adv-x="584" 
d="M-2 74l537 561h-407l13 65h495l-14 -69l-542 -566h431l-13 -65h-515z" />
    <glyph glyph-name="bracketleft" unicode="[" horiz-adv-x="323" 
d="M223 845h205l-12 -55h-139l-187 -880h140l-12 -55h-206z" />
    <glyph glyph-name="backslash" unicode="\" horiz-adv-x="370" 
d="M110 700h67l122 -700h-67z" />
    <glyph glyph-name="bracketright" unicode="]" horiz-adv-x="323" 
d="M142 -145h-205l12 55h139l187 880h-140l12 55h206z" />
    <glyph glyph-name="asciicircum" unicode="^" horiz-adv-x="543" 
d="M330 700h79l90 -415h-62l-76 356l-226 -356h-70z" />
    <glyph glyph-name="underscore" unicode="_" horiz-adv-x="555" 
d="M15 0h430l-12 -55h-430z" />
    <glyph glyph-name="grave" unicode="`" horiz-adv-x="225" 
d="M136 700h78l47 -130h-47z" />
    <glyph glyph-name="a" unicode="a" horiz-adv-x="545" 
d="M75.5 28q-44.5 38 -44.5 105q0 73 55.5 118.5t154.5 45.5h180l4 23q2 9 2 26q0 52 -38 80.5t-93 28.5h-8q-55 0 -93 -25.5t-47 -69.5h-62q11 67 66 108.5t144 41.5q80 0 135.5 -40t55.5 -119q0 -23 -6 -50l-41 -191q-15 -70 -16 -110h-59q0 30 7 70q-33 -43 -80 -61.5
t-100 -18.5q-72 0 -116.5 38zM287 64.5q41 19.5 71 55t40 80.5l10 45h-162q-71 0 -112 -28.5t-41 -78.5q0 -42 28 -67.5t76 -25.5h8q41 0 82 19.5z" />
    <glyph glyph-name="b" unicode="b" 
d="M186 20q-48 30 -71 84l-22 -104h-65l149 700h65l-55 -259q28 33 69 51t93 18t98.5 -24t76 -74.5t29.5 -125.5q0 -87 -34.5 -154.5t-93 -104.5t-127.5 -37q-64 0 -112 30zM391 75.5q44 29.5 70.5 83t26.5 122.5q0 83 -43 128t-106 45h-8q-56 0 -98 -35.5t-64.5 -91.5
t-22.5 -116q0 -53 21 -90t54 -56t69 -19h8q49 0 93 29.5z" />
    <glyph glyph-name="c" unicode="c" horiz-adv-x="519" 
d="M97 52q-52 62 -52 158q0 27 2 40q8 71 41.5 130.5t87.5 94.5t120 35q83 0 134 -49t56 -123h-64q-5 50 -37.5 83t-86.5 33h-10q-47 0 -84.5 -28.5t-61 -75t-30.5 -100.5q-2 -12 -2 -37q0 -71 33.5 -119t95.5 -48h10q54 0 94.5 33.5t57.5 82.5h66q-23 -77 -82 -124.5
t-143 -47.5q-93 0 -145 62z" />
    <glyph glyph-name="d" unicode="d" horiz-adv-x="597" 
d="M151.5 14q-46.5 24 -76 74.5t-29.5 125.5q0 87 34.5 154.5t93 104.5t127.5 37q64 0 111.5 -30t70.5 -84l65 304h65l-149 -700h-65l12 59q-58 -69 -161 -69q-52 0 -98.5 24zM366 81.5q42 35.5 64.5 91.5t22.5 116q0 53 -21 90t-54 56t-69 19h-8q-49 0 -93 -29.5t-70.5 -83
t-26.5 -122.5q0 -83 43 -128t106 -45h8q56 0 98 35.5z" />
    <glyph glyph-name="e" unicode="e" horiz-adv-x="529" 
d="M144 15.5q-45 25.5 -71 75t-26 118.5q0 21 3 45q10 81 45.5 139t87 87.5t108.5 29.5q62 0 106 -27.5t66.5 -74t22.5 -104.5q0 -34 -5 -59h-370q-2 -26 -2 -36q0 -81 39.5 -122.5t98.5 -41.5h6q50 0 87 26t57 72h66q-24 -69 -81.5 -111t-135.5 -42q-57 0 -102 25.5z
M423 317q0 60 -35.5 99t-91.5 39h-10q-53 0 -99.5 -36.5t-66.5 -118.5h302q1 6 1 17z" />
    <glyph glyph-name="f" unicode="f" horiz-adv-x="340" 
d="M172 445h-115l12 55h115l20 95q11 55 38.5 80t89.5 25h114l-11 -55h-100q-32 0 -46.5 -14t-21.5 -46l-18 -85h130l-12 -55h-130l-94 -445h-65z" />
    <glyph glyph-name="g" unicode="g" horiz-adv-x="586" 
d="M65.5 -181.5q-60.5 38.5 -67.5 111.5h66q7 -45 47.5 -70t93.5 -25h8q71 0 115.5 45t61.5 126l13 63q-58 -69 -156 -69q-51 0 -96.5 23t-73.5 71.5t-28 121.5q0 87 32 154t87.5 103.5t125.5 36.5q60 0 108.5 -30.5t70.5 -84.5l22 105h65l-109 -512q-22 -100 -80 -154
t-165 -54q-80 0 -140.5 38.5zM359 89.5q41 34.5 62.5 88.5t21.5 111q0 53 -19.5 90.5t-51.5 56.5t-70 19h-8q-49 0 -90 -29.5t-65.5 -83t-24.5 -122.5q0 -79 39.5 -122t101.5 -43h8q55 0 96 34.5z" />
    <glyph glyph-name="h" unicode="h" horiz-adv-x="561" 
d="M176 700h65l-54 -261q59 71 146 71q75 0 122 -42.5t47 -120.5q0 -31 -7 -62l-61 -285h-65l64 302q4 17 4 38q0 51 -29 82t-78 31h-8q-62 0 -108.5 -50t-65.5 -143l-55 -260h-65z" />
    <glyph glyph-name="i" unicode="i" horiz-adv-x="225" 
d="M133 500h65l-106 -500h-65zM162 615q-12 12 -12 30q0 21 15.5 37t36.5 16q19 0 31 -12.5t12 -30.5q0 -21 -15 -36.5t-37 -15.5q-19 0 -31 12z" />
    <glyph glyph-name="j" unicode="j" horiz-adv-x="225" 
d="M-147 -110h94q31 0 46.5 14t22.5 46l117 550h65l-118 -553q-13 -58 -43 -85t-91 -27h-105zM162 615q-12 12 -12 30q0 21 15.5 37t36.5 16q19 0 31 -12.5t12 -30.5q0 -21 -15 -36.5t-37 -15.5q-19 0 -31 12z" />
    <glyph glyph-name="k" unicode="k" horiz-adv-x="507" 
d="M175 700h65l-96 -453l315 253h94l-250 -199l164 -301h-74l-140 261l-127 -101l-34 -160h-65z" />
    <glyph glyph-name="l" unicode="l" horiz-adv-x="226" 
d="M177 700h65l-149 -700h-65z" />
    <glyph glyph-name="m" unicode="m" horiz-adv-x="890" 
d="M133 500h65l-13 -62q58 72 145 72q58 0 100 -27t57 -78q33 54 80 79.5t99 25.5q73 0 119 -42t46 -120q0 -31 -7 -63l-61 -285h-65l64 302q4 19 4 39q0 50 -28 81t-75 31h-8q-61 0 -106.5 -50t-65.5 -143l-56 -260h-65l64 302q4 19 4 39q0 50 -28 81t-75 31h-8
q-62 0 -107.5 -50t-64.5 -143l-55 -260h-65z" />
    <glyph glyph-name="n" unicode="n" horiz-adv-x="560" 
d="M133 500h65l-12 -61q59 71 146 71q75 0 122 -42.5t47 -120.5q0 -31 -7 -62l-61 -285h-65l64 302q4 17 4 38q0 51 -29 82t-78 31h-8q-62 0 -108.5 -50t-65.5 -143l-55 -260h-65z" />
    <glyph glyph-name="o" unicode="o" horiz-adv-x="560" 
d="M151 18q-49 28 -77.5 78.5t-28.5 116.5q0 24 2 37q9 76 44.5 135t90.5 92t120 33q59 0 107.5 -27.5t77 -78.5t28.5 -117q0 -24 -2 -37q-9 -76 -44 -135t-89.5 -92t-120.5 -33q-59 0 -108 28zM349.5 71.5q38.5 25.5 64.5 72t33 106.5q2 24 2 33q0 51 -19 90t-52 60t-74 21
h-10q-45 0 -83.5 -25.5t-64.5 -72t-33 -106.5q-2 -24 -2 -33q0 -51 19 -90t52 -60t74 -21h10q45 0 83.5 25.5z" />
    <glyph glyph-name="p" unicode="p" horiz-adv-x="598" 
d="M133 500h65l-12 -59q58 69 161 69q52 0 98.5 -24t76 -74.5t29.5 -125.5q0 -87 -34.5 -154.5t-93 -104.5t-127.5 -37q-65 0 -112 31t-69 90l-66 -311h-65zM389 75.5q44 29.5 70.5 83t26.5 122.5q0 83 -43 128t-106 45h-8q-56 0 -98 -35.5t-64.5 -91.5t-22.5 -116
q0 -53 21 -90t54 -56t69 -19h8q49 0 93 29.5z" />
    <glyph glyph-name="q" unicode="q" horiz-adv-x="598" 
d="M343.5 9q-41.5 -19 -93.5 -19t-98.5 24t-76 74.5t-29.5 125.5q0 87 34.5 154.5t93 104.5t127.5 37q63 0 110.5 -31t71.5 -85l23 106h65l-149 -700h-65l56 261q-28 -33 -69.5 -52zM366 81.5q42 35.5 64.5 91.5t22.5 116q0 53 -21 90t-54 56t-69 19h-8q-49 0 -93 -29.5
t-70.5 -83t-26.5 -122.5q0 -83 43 -128t106 -45h8q56 0 98 35.5z" />
    <glyph glyph-name="r" unicode="r" horiz-adv-x="361" 
d="M133 500h60l-19 -96q28 49 75 75t119 26h26l-13 -60h-25q-170 0 -215 -210l-50 -235h-65z" />
    <glyph glyph-name="s" unicode="s" horiz-adv-x="468" 
d="M72.5 32.5q-52.5 42.5 -55.5 117.5h65q4 -53 40 -79t91 -26h8q48 0 79 24.5t31 65.5q0 35 -21 53.5t-65 29.5l-54 14q-111 29 -111 128q0 39 22 73.5t63 55.5t95 21q50 0 91.5 -18.5t65.5 -55t24 -86.5h-65q0 49 -34.5 77t-83.5 28h-8q-46 0 -76 -26.5t-30 -66.5
q0 -53 73 -72l51 -13q128 -33 128 -139q0 -68 -51 -108t-131 -40q-89 0 -141.5 42.5z" />
    <glyph glyph-name="t" unicode="t" horiz-adv-x="371" 
d="M124.5 21.5q-24.5 21.5 -24.5 61.5q0 18 4 35l68 327h-118l11 55h120l35 162h65l-35 -162h128l-11 -55h-129l-72 -340q-2 -10 -2 -14q0 -18 12 -27t33 -9h101l-12 -55h-99q-50 0 -74.5 21.5z" />
    <glyph glyph-name="u" unicode="u" horiz-adv-x="550" 
d="M96.5 31q-38.5 41 -38.5 112q0 30 8 70l61 287h66l-65 -306q-5 -28 -5 -47q0 -47 24 -73.5t71 -26.5h8q62 0 110 52.5t69 151.5l53 249h65l-106 -500h-65l14 64q-59 -74 -155 -74q-76 0 -114.5 41z" />
    <glyph glyph-name="v" unicode="v" horiz-adv-x="493" 
d="M70 500h65l73 -424l252 424h71l-304 -500h-67z" />
    <glyph glyph-name="w" unicode="w" horiz-adv-x="760" 
d="M73 500h63l38 -441l214 441h79l32 -440l226 440h68l-262 -500h-87l-30 421l-207 -421h-87z" />
    <glyph glyph-name="x" unicode="x" horiz-adv-x="494" 
d="M211 257l-136 243h70l110 -197l190 197h80l-240 -250l139 -250h-70l-114 204l-196 -204h-80z" />
    <glyph glyph-name="y" unicode="y" horiz-adv-x="508" 
d="M-53 -100h83q39 0 64 19.5t54 65.5l30 48l-118 467h66l97 -394l247 394h73l-340 -542q-39 -62 -76 -87.5t-91 -25.5h-101z" />
    <glyph glyph-name="z" unicode="z" horiz-adv-x="467" 
d="M-1 61l385 384h-299l12 55h375l-12 -59l-388 -386h321l-12 -55h-395z" />
    <glyph glyph-name="braceleft" unicode="{" horiz-adv-x="334" 
d="M60 -44q0 22 7 59l44 216q3 15 3 25q0 17 -8.5 23t-27.5 6h-30l27 130h40q18 0 28.5 9t14.5 31l52 248q16 78 48 110t92 32h88l-12 -55h-54q-38 0 -57.5 -11.5t-27.5 -31t-16 -59.5l-52 -252q-7 -37 -25.5 -56.5t-45.5 -19.5h-32l-5 -20h14q58 0 58 -58q0 -10 -4 -32
l-52 -245q-6 -26 -6 -43q0 -27 15 -39.5t52 -12.5h54l-12 -55h-70q-100 0 -100 101z" />
    <glyph glyph-name="bar" unicode="|" horiz-adv-x="258" 
d="M210 785h65l-184 -870h-65z" />
    <glyph glyph-name="braceright" unicode="}" horiz-adv-x="333" 
d="M317 745q0 -22 -7 -59l-44 -216q-3 -15 -3 -25q0 -17 8.5 -23t27.5 -6h30l-27 -130h-40q-18 0 -28.5 -9t-14.5 -31l-52 -248q-16 -78 -48 -110t-92 -32h-88l12 55h54q38 0 57.5 11.5t27.5 31t16 59.5l52 252q7 37 25.5 56.5t45.5 19.5h32l5 20h-14q-58 0 -58 58
q0 10 4 32l52 245q6 26 6 43q0 27 -15 39.5t-52 12.5h-54l12 55h70q100 0 100 -101z" />
    <glyph glyph-name="asciitilde" unicode="~" horiz-adv-x="470" 
d="M254 311l-31 24q-25 19 -46 19q-39 0 -53 -63h-50l2 11q9 52 38.5 78t70.5 26q39 0 73 -25l33 -25q25 -18 44 -18t32.5 15t20.5 48h50l-2 -11q-9 -49 -37.5 -76.5t-68.5 -27.5q-44 0 -76 25z" />
    <glyph glyph-name="uni00A0" unicode="&#xa0;" horiz-adv-x="248" 
 />
    <glyph glyph-name="exclamdown" unicode="&#xa1;" horiz-adv-x="240" 
d="M198.5 499q13.5 -14 13.5 -34q0 -23 -18 -40.5t-41 -17.5q-20 0 -33.5 14t-13.5 34q0 23 18 40.5t41 17.5q20 0 33.5 -14zM106 10l-45 -210h-70l45 210l85 307h30z" />
    <glyph glyph-name="cent" unicode="&#xa2;" horiz-adv-x="521" 
d="M197 -6l-44 -114h-61l51 133q-49 26 -74 77.5t-25 118.5q0 27 2 41q8 71 41.5 130.5t87.5 94.5t120 35q18 0 37 -3l43 113h61l-50 -130q45 -21 70.5 -61.5t28.5 -90.5h-64q-3 31 -17.5 57t-38.5 41l-148 -388q12 -2 21 -2h10q54 0 94.5 33.5t57.5 82.5h66
q-23 -77 -82 -124.5t-143 -47.5q-25 0 -44 4zM109 214q0 -46 14.5 -84t41.5 -60l146 383q-5 1 -14 1h-10q-47 0 -84.5 -28.5t-61 -75t-30.5 -100.5q-2 -12 -2 -36z" />
    <glyph glyph-name="sterling" unicode="&#xa3;" horiz-adv-x="542" 
d="M12 65q50 0 73.5 28.5t36.5 77.5l29 114l-96 -22l15 63l97 22l43 167q24 94 87.5 139.5t149.5 45.5h92l-14 -65h-71q-77 0 -117.5 -33t-58.5 -106l-33 -131l144 33l-14 -63l-147 -33l-33 -131q-21 -80 -68 -106h357l-14 -65h-472z" />
    <glyph glyph-name="currency" unicode="&#xa4;" horiz-adv-x="742" 
d="M295 56q-42 16 -75 46l-88 -84l-44 44l90 90q-45 68 -45 153t43 150l-88 88l44 44l87 -83q33 29 75 45t89 16t90 -16.5t76 -46.5l89 85l44 -44l-91 -91q42 -65 42 -147q0 -84 -43 -151l92 -92l-44 -44l-90 86q-70 -64 -165 -64q-46 0 -88 16zM477.5 130.5
q40.5 25.5 64 71.5t23.5 103t-23.5 101.5t-64 69t-89.5 24.5h-10q-49 0 -89.5 -24.5t-64 -69t-23.5 -101.5t24.5 -103t66.5 -71.5t91 -25.5h5q49 0 89.5 25.5z" />
    <glyph glyph-name="yen" unicode="&#xa5;" horiz-adv-x="647" 
d="M263 135l-164 -35l14 63l163 35l17 78l-195 -42l13 63l177 38l-174 365h73l156 -327l291 327h85l-300 -336l155 33l-14 -63l-195 -42l-17 -79l164 35l-13 -63l-164 -35l-32 -150h-69z" />
    <glyph glyph-name="brokenbar" unicode="&#xa6;" horiz-adv-x="258" 
d="M105 280h65l-77 -365h-65zM212 785h65l-75 -355h-65z" />
    <glyph glyph-name="section" unicode="&#xa7;" horiz-adv-x="515" 
d="M61 5h171q57 0 81.5 21t24.5 53q0 26 -18.5 44t-59.5 35l-93 39q-55 23 -80 53.5t-25 80.5q0 35 30 77t91 69q-19 19 -30.5 41.5t-11.5 45.5q0 65 45.5 100.5t131.5 35.5h180l-14 -65h-166q-109 0 -109 -68q0 -44 75 -79l83 -38q57 -26 86 -56.5t29 -78.5
q0 -86 -116 -145q18 -16 29 -40.5t11 -50.5q0 -35 -17.5 -67t-54.5 -52t-91 -20h-196zM391 255q23 28 23 53q0 32 -24 54t-81 46l-78 33q-54 -19 -77.5 -51t-23.5 -57q0 -30 17.5 -49t60.5 -37l105 -44q55 24 78 52z" />
    <glyph glyph-name="dieresis" unicode="&#xa8;" horiz-adv-x="321" 
d="M301.5 598.5q-10.5 10.5 -10.5 26.5q0 19 13.5 32.5t32.5 13.5q16 0 26.5 -11t10.5 -27q0 -18 -13.5 -31.5t-31.5 -13.5q-17 0 -27.5 10.5zM118.5 598.5q-10.5 10.5 -10.5 26.5q0 19 13.5 32.5t32.5 13.5q16 0 26.5 -11t10.5 -27q0 -18 -13.5 -31.5t-31.5 -13.5
q-17 0 -27.5 10.5z" />
    <glyph glyph-name="copyright" unicode="&#xa9;" horiz-adv-x="875" 
d="M248.5 9q-80.5 49 -128.5 132t-48 182q0 112 54.5 208t151 152.5t216.5 56.5q95 0 175.5 -49t128.5 -132.5t48 -181.5q0 -110 -53.5 -206t-150 -153.5t-218.5 -57.5q-95 0 -175.5 49zM619 61.5q83 51.5 128.5 135t45.5 177.5q0 86 -40.5 158.5t-111 115t-154.5 42.5
q-105 0 -188 -51.5t-128.5 -135t-45.5 -177.5q0 -86 40.5 -158.5t111 -115t154.5 -42.5q105 0 188 51.5zM357 177.5q-36 20.5 -57.5 58t-21.5 86.5q0 58 23 109.5t69.5 84t111.5 32.5q40 0 74.5 -16t54.5 -45.5t19 -67.5h-61q-3 33 -28 56t-64 23h-5q-44 0 -74 -29
t-44.5 -69.5t-14.5 -75.5q0 -52 27 -84.5t72 -32.5h5q34 0 63.5 22.5t38.5 56.5h61q-19 -63 -64 -96t-107 -33q-42 0 -78 20.5z" />
    <glyph glyph-name="ordfeminine" unicode="&#xaa;" horiz-adv-x="322" 
d="M106 430.5q-26 21.5 -26 54.5q0 50 34.5 75.5t82.5 25.5h96l2 8q3 11 3 19q0 23 -17 34.5t-44 11.5h-3q-24 0 -42 -10.5t-26 -31.5h-54q11 40 44.5 64t82.5 24q51 0 81 -25.5t30 -68.5q0 -12 -3 -27l-23 -107q-9 -37 -10 -62h-51v7q1 12 2 23q-15 -15 -38.5 -25.5
t-51.5 -10.5q-43 0 -69 21.5zM246 474.5q28 20.5 36 59.5l2 10h-84q-31 0 -48.5 -15t-17.5 -37q0 -17 13.5 -27.5t36.5 -10.5h3q31 0 59 20.5z" />
    <glyph glyph-name="guillemotleft" unicode="&#xab;" horiz-adv-x="504" 
d="M247 285l190 215h81l-199 -224l96 -206h-69zM47 285l190 215h81l-199 -224l96 -206h-69z" />
    <glyph glyph-name="logicalnot" unicode="&#xac;" horiz-adv-x="592" 
d="M451 275h-377l13 65h445l-44 -210h-68z" />
    <glyph glyph-name="registered" unicode="&#xae;" horiz-adv-x="875" 
d="M248.5 9q-80.5 49 -128.5 132t-48 182q0 112 54.5 208t151 152.5t216.5 56.5q95 0 175.5 -49t128.5 -132.5t48 -181.5q0 -110 -53.5 -206t-150 -153.5t-218.5 -57.5q-95 0 -175.5 49zM619 61.5q83 51.5 128.5 135t45.5 177.5q0 86 -40.5 158.5t-111 115t-154.5 42.5
q-105 0 -188 -51.5t-128.5 -135t-45.5 -177.5q0 -86 40.5 -158.5t111 -115t154.5 -42.5q105 0 188 51.5zM369 543h145q54 0 85 -28t31 -71q0 -40 -21 -67.5t-54 -37.5q38 -12 38 -51q0 -10 -3 -22l-9 -44q-8 -36 -8 -55h-61q0 16 6 48l11 51q2 10 2 15q0 33 -46 33h-104
l-31 -147h-61zM569 437q0 28 -18.5 42t-48.5 14h-83l-28 -131h88q90 0 90 75z" />
    <glyph glyph-name="macron" unicode="&#xaf;" horiz-adv-x="347" 
d="M116 645h285l-12 -55h-285z" />
    <glyph glyph-name="degree" unicode="&#xb0;" horiz-adv-x="473" 
d="M196 364.5q-42 24.5 -66 66.5t-24 94t24 94t66 66.5t95 24.5q52 0 94.5 -24.5t66.5 -66.5t24 -94t-24 -94t-66.5 -66.5t-94.5 -24.5q-53 0 -95 24.5zM352.5 415q28.5 17 45 46.5t16.5 63.5t-16.5 63.5t-45 46.5t-61.5 17t-61.5 -17t-45 -46.5t-16.5 -63.5t16.5 -63.5
t45 -46.5t61.5 -17t61.5 17z" />
    <glyph glyph-name="plusminus" unicode="&#xb1;" horiz-adv-x="626" 
d="M290 290h-215l13 65h215l31 145h64l-31 -145h215l-13 -65h-215l-30 -140h-64zM27 65h494l-14 -65h-494z" />
    <glyph glyph-name="uni00B2" unicode="&#xb2;" horiz-adv-x="330" 
d="M87 483l152 112q52 39 69.5 59.5t17.5 50.5q0 26 -19 43t-45 17h-5q-25 0 -45.5 -18.5t-23.5 -50.5h-61q5 55 42.5 87t94.5 32q56 0 89.5 -30.5t33.5 -77.5q0 -45 -26 -76.5t-82 -71.5l-130 -94h200l-11 -50h-266z" />
    <glyph glyph-name="uni00B3" unicode="&#xb3;" horiz-adv-x="339" 
d="M118 440q-35 30 -32 84h59q-1 -29 17 -46.5t48 -17.5h5q36 0 60 20.5t24 56.5q0 25 -17.5 40t-44.5 15h-35l10 47h37q38 0 60.5 18.5t22.5 52.5q0 26 -18 40.5t-47 14.5h-5q-29 0 -48 -17.5t-23 -42.5h-59q7 53 44.5 81.5t92.5 28.5q52 0 88 -26.5t36 -72.5
q0 -38 -21.5 -65.5t-55.5 -39.5q23 -13 34.5 -36t8.5 -51q-6 -53 -48.5 -83.5t-100.5 -30.5q-57 0 -92 30z" />
    <glyph glyph-name="acute" unicode="&#xb4;" horiz-adv-x="169" 
d="M158 700h82l-98 -130h-51z" />
    <glyph glyph-name="uni00B5" unicode="&#xb5;" horiz-adv-x="575" 
d="M133 500h65l-64 -302q-6 -27 -6 -49q0 -49 25.5 -76.5t72.5 -27.5h8q64 0 109.5 50.5t64.5 144.5l55 260h65l-86 -402q-1 -4 -1 -12q0 -14 8.5 -22.5t25.5 -8.5h32l-12 -55h-40q-32 0 -55.5 17t-23.5 47q-24 -34 -67 -54t-89 -20q-41 0 -73 14.5t-46 43.5l-52 -248h-65z
" />
    <glyph glyph-name="paragraph" unicode="&#xb6;" horiz-adv-x="595" 
d="M249 325h-3q-52 0 -91 21.5t-60 59t-21 82.5q0 9 2 25q7 52 34.5 94.5t73 67.5t103.5 25h362l-12 -55h-60l-180 -845h-65l180 845h-130l-180 -845h-65z" />
    <glyph glyph-name="periodcentered" unicode="&#xb7;" horiz-adv-x="246" 
d="M97.5 284q-13.5 14 -13.5 34q0 23 18 40.5t41 17.5q20 0 33.5 -14t13.5 -34q0 -23 -18 -40.5t-41 -17.5q-20 0 -33.5 14z" />
    <glyph glyph-name="cedilla" unicode="&#xb8;" horiz-adv-x="222" 
d="M-59 -170h61q27 0 43 12t16 33q0 14 -13.5 23t-33.5 9h-22l24 108h46l-18 -71q32 -5 49.5 -24t17.5 -45q0 -47 -33.5 -73.5t-89.5 -26.5h-59z" />
    <glyph glyph-name="uni00B9" unicode="&#xb9;" horiz-adv-x="201" 
d="M180 688h-73l8 39q77 1 106 83h42l-84 -395h-57z" />
    <glyph glyph-name="ordmasculine" unicode="&#xba;" horiz-adv-x="337" 
d="M130 446.5q-36 36.5 -36 93.5q0 46 20.5 84t55.5 59.5t77 21.5q55 0 91 -36.5t36 -92.5q0 -47 -20 -85t-55.5 -59.5t-77.5 -21.5q-55 0 -91 36.5zM288.5 484.5q25.5 27.5 30.5 73.5q1 5 1 16q0 38 -21 61t-54 23h-4q-40 0 -66.5 -32.5t-26.5 -83.5q0 -39 21 -62t54 -23h4
q36 0 61.5 27.5z" />
    <glyph glyph-name="guillemotright" unicode="&#xbb;" horiz-adv-x="505" 
d="M273 285l-190 -215h-81l199 224l-96 206h69zM473 285l-190 -215h-81l199 224l-96 206h69z" />
    <glyph glyph-name="onequarter" unicode="&#xbc;" horiz-adv-x="676" 
d="M157 578h-73l8 39q77 1 106 83h42l-84 -395h-57zM558 700h68l-568 -700h-68zM507 96h-185l12 56l223 243h70l-53 -249h54l-11 -50h-54l-20 -96h-56zM518 146l37 176l-161 -176h124z" />
    <glyph glyph-name="onehalf" unicode="&#xbd;" horiz-adv-x="698" 
d="M157 578h-73l8 39q77 1 106 83h42l-84 -395h-57zM558 700h68l-568 -700h-68zM367 68l152 112q52 39 69.5 59.5t17.5 50.5q0 26 -19 43t-45 17h-5q-25 0 -45.5 -18.5t-23.5 -50.5h-61q5 55 42.5 87t94.5 32q56 0 89.5 -30.5t33.5 -77.5q0 -45 -26 -76.5t-82 -71.5
l-130 -94h200l-11 -50h-266z" />
    <glyph glyph-name="threequarters" unicode="&#xbe;" horiz-adv-x="805" 
d="M94 330q-35 30 -32 84h59q-1 -29 17 -46.5t48 -17.5h5q36 0 60 20.5t24 56.5q0 25 -17.5 40t-44.5 15h-35l10 47h37q38 0 60.5 18.5t22.5 52.5q0 26 -18 40.5t-47 14.5h-5q-29 0 -48 -17.5t-23 -42.5h-59q7 53 44.5 81.5t92.5 28.5q52 0 88 -26.5t36 -72.5
q0 -38 -21.5 -65.5t-55.5 -39.5q23 -13 34.5 -36t8.5 -51q-6 -53 -48.5 -83.5t-100.5 -30.5q-57 0 -92 30zM687 700h68l-568 -700h-68zM636 96h-185l12 56l223 243h70l-53 -249h54l-11 -50h-54l-20 -96h-56zM647 146l37 176l-161 -176h124z" />
    <glyph glyph-name="questiondown" unicode="&#xbf;" horiz-adv-x="469" 
d="M263.5 135.5q-22.5 -21.5 -54.5 -30.5l-62 -18q-52 -16 -79.5 -45.5t-27.5 -82.5q0 -46 34.5 -75t96.5 -29q57 0 99 30.5t49 89.5h68q-5 -60 -37 -102t-80.5 -62.5t-105.5 -20.5q-53 0 -97 20t-70 58.5t-26 90.5q0 66 39.5 116t108.5 71l62 19q28 9 37 20.5t14 35.5
l19 84h66l-25 -120q-6 -28 -28.5 -49.5zM352.5 499q13.5 -14 13.5 -34q0 -23 -18 -40.5t-41 -17.5q-20 0 -33.5 14t-13.5 34q0 23 18 40.5t41 17.5q20 0 33.5 -14z" />
    <glyph glyph-name="Agrave" unicode="&#xc0;" horiz-adv-x="672" 
d="M388 700h90l131 -700h-68l-36 193h-356l-118 -193h-76zM493 258l-71 380l-233 -380h304zM335 890h90l53 -125h-60z" />
    <glyph glyph-name="Aacute" unicode="&#xc1;" horiz-adv-x="672" 
d="M388 700h90l131 -700h-68l-36 193h-356l-118 -193h-76zM493 258l-71 380l-233 -380h304zM471 890h90l-83 -125h-60z" />
    <glyph glyph-name="Acircumflex" unicode="&#xc2;" horiz-adv-x="672" 
d="M388 700h90l131 -700h-68l-36 193h-356l-118 -193h-76zM493 258l-71 380l-233 -380h304zM422 890h90l99 -125h-65l-82 73l-123 -73h-69z" />
    <glyph glyph-name="Atilde" unicode="&#xc3;" horiz-adv-x="672" 
d="M388 700h90l131 -700h-68l-36 193h-356l-118 -193h-76zM493 258l-71 380l-233 -380h304zM467 783l-36 28q-16 12 -26.5 18t-21.5 6q-17 0 -26 -14t-15 -51h-55l3 14q12 57 32.5 81.5t59.5 24.5q21 0 37 -7t33 -19l38 -28q29 -21 41 -21q19 0 30 15.5t17 49.5h55l-4 -21
q-8 -46 -32.5 -72.5t-60.5 -26.5q-40 0 -69 23z" />
    <glyph glyph-name="Adieresis" unicode="&#xc4;" horiz-adv-x="672" 
d="M388 700h90l131 -700h-68l-36 193h-356l-118 -193h-76zM493 258l-71 380l-233 -380h304zM520 787q-12 12 -12 29q0 20 15.5 36t36.5 16q17 0 29 -12.5t12 -29.5q0 -20 -15.5 -35.5t-35.5 -15.5q-18 0 -30 12zM331 787q-12 12 -12 29q0 20 15.5 36t36.5 16q17 0 29 -12.5
t12 -29.5q0 -20 -15.5 -35.5t-35.5 -15.5q-18 0 -30 12z" />
    <glyph glyph-name="Aring" unicode="&#xc5;" horiz-adv-x="672" 
d="M388 700h90l131 -700h-68l-36 193h-356l-118 -193h-76zM493 258l-71 380l-233 -380h304zM400.5 781.5q-23.5 22.5 -23.5 56.5q0 33 24 56t55 23t55 -23t24 -56q0 -34 -23.5 -56.5t-55.5 -22.5t-55.5 22.5zM480 814q10 10 10 24t-10 24t-23 10t-23.5 -10t-10.5 -24
q0 -13 10.5 -23.5t23.5 -10.5t23 10z" />
    <glyph glyph-name="AE" unicode="&#xc6;" horiz-adv-x="964" 
d="M512 700h456l-14 -65h-353l-19 -242h307l-14 -65h-298l-20 -263h352l-14 -65h-407l15 193h-327l-157 -193h-85zM509 258l30 383l-310 -383h280z" />
    <glyph glyph-name="Ccedilla" unicode="&#xc7;" horiz-adv-x="702" 
d="M257 -170h61q27 0 43 12t16 33q0 14 -13.5 23t-33.5 9h-22l19 84q-82 7 -139.5 48t-86.5 107.5t-29 149.5q0 27 3 54q11 100 58.5 182t124.5 130t174 48q76 0 133.5 -30t90 -82.5t35.5 -117.5h-70q-8 71 -53 118t-133 47h-10q-77 0 -137 -40.5t-96.5 -107.5t-46.5 -147
q-3 -25 -3 -51q0 -69 23.5 -124t71 -87.5t116.5 -32.5h10q88 0 145 46.5t80 118.5h74q-17 -64 -58 -115t-101 -81.5t-131 -33.5l-12 -46q32 -5 49.5 -24t17.5 -45q0 -47 -33.5 -73.5t-89.5 -26.5h-59z" />
    <glyph glyph-name="Egrave" unicode="&#xc8;" horiz-adv-x="638" 
d="M192 700h490l-14 -65h-420l-51 -242h360l-14 -65h-360l-56 -263h430l-14 -65h-500zM336 890h90l53 -125h-60z" />
    <glyph glyph-name="Eacute" unicode="&#xc9;" horiz-adv-x="638" 
d="M192 700h490l-14 -65h-420l-51 -242h360l-14 -65h-360l-56 -263h430l-14 -65h-500zM472 890h90l-83 -125h-60z" />
    <glyph glyph-name="Ecircumflex" unicode="&#xca;" horiz-adv-x="638" 
d="M192 700h490l-14 -65h-420l-51 -242h360l-14 -65h-360l-56 -263h430l-14 -65h-500zM423 890h90l99 -125h-65l-82 73l-123 -73h-69z" />
    <glyph glyph-name="Edieresis" unicode="&#xcb;" horiz-adv-x="638" 
d="M192 700h490l-14 -65h-420l-51 -242h360l-14 -65h-360l-56 -263h430l-14 -65h-500zM521 787q-12 12 -12 29q0 20 15.5 36t36.5 16q17 0 29 -12.5t12 -29.5q0 -20 -15.5 -35.5t-35.5 -15.5q-18 0 -30 12zM332 787q-12 12 -12 29q0 20 15.5 36t36.5 16q17 0 29 -12.5
t12 -29.5q0 -20 -15.5 -35.5t-35.5 -15.5q-18 0 -30 12z" />
    <glyph glyph-name="Igrave" unicode="&#xcc;" horiz-adv-x="262" 
d="M192 700h70l-149 -700h-70zM128 890h90l53 -125h-60z" />
    <glyph glyph-name="Iacute" unicode="&#xcd;" horiz-adv-x="262" 
d="M192 700h70l-149 -700h-70zM264 890h90l-83 -125h-60z" />
    <glyph glyph-name="Icircumflex" unicode="&#xce;" horiz-adv-x="262" 
d="M192 700h70l-149 -700h-70zM215 890h90l99 -125h-65l-82 73l-123 -73h-69z" />
    <glyph glyph-name="Idieresis" unicode="&#xcf;" horiz-adv-x="262" 
d="M192 700h70l-149 -700h-70zM313 787q-12 12 -12 29q0 20 15.5 36t36.5 16q17 0 29 -12.5t12 -29.5q0 -20 -15.5 -35.5t-35.5 -15.5q-18 0 -30 12zM124 787q-12 12 -12 29q0 20 15.5 36t36.5 16q17 0 29 -12.5t12 -29.5q0 -20 -15.5 -35.5t-35.5 -15.5q-18 0 -30 12z" />
    <glyph glyph-name="Eth" unicode="&#xd0;" horiz-adv-x="734" 
d="M139 320h-87l13 60h87l68 320h183q165 0 234 -84t69 -204q0 -102 -41 -197t-118.5 -155t-181.5 -60h-294zM507.5 114.5q64.5 49.5 96.5 128.5t32 167q0 108 -60 166.5t-174 58.5h-126l-54 -255h153l-13 -60h-153l-54 -255h196q92 0 156.5 49.5z" />
    <glyph glyph-name="Ntilde" unicode="&#xd1;" horiz-adv-x="737" 
d="M192 700h90l256 -607l129 607h70l-149 -700h-85l-259 618l-131 -618h-70zM498 783l-36 28q-16 12 -26.5 18t-21.5 6q-17 0 -26 -14t-15 -51h-55l3 14q12 57 32.5 81.5t59.5 24.5q21 0 37 -7t33 -19l38 -28q29 -21 41 -21q19 0 30 15.5t17 49.5h55l-4 -21
q-8 -46 -32.5 -72.5t-60.5 -26.5q-40 0 -69 23z" />
    <glyph glyph-name="Ograve" unicode="&#xd2;" horiz-adv-x="757" 
d="M216 26.5q-67 36.5 -106 106t-39 162.5q0 16 4 56q14 110 64.5 191.5t127.5 124.5t167 43q83 0 150 -37t106 -106t39 -162q0 -18 -4 -56q-14 -110 -65 -191t-128 -124.5t-167 -43.5q-82 0 -149 36.5zM503 91q60 36 100.5 103t51.5 156q3 26 3 48q0 75 -29 131t-79.5 86
t-113.5 30h-10q-69 0 -129 -36t-100.5 -103t-51.5 -156q-3 -25 -3 -48q0 -75 29 -131t79.5 -86t113.5 -30h10q69 0 129 36zM378 890h90l53 -125h-60z" />
    <glyph glyph-name="Oacute" unicode="&#xd3;" horiz-adv-x="757" 
d="M216 26.5q-67 36.5 -106 106t-39 162.5q0 16 4 56q14 110 64.5 191.5t127.5 124.5t167 43q83 0 150 -37t106 -106t39 -162q0 -18 -4 -56q-14 -110 -65 -191t-128 -124.5t-167 -43.5q-82 0 -149 36.5zM503 91q60 36 100.5 103t51.5 156q3 26 3 48q0 75 -29 131t-79.5 86
t-113.5 30h-10q-69 0 -129 -36t-100.5 -103t-51.5 -156q-3 -25 -3 -48q0 -75 29 -131t79.5 -86t113.5 -30h10q69 0 129 36zM514 890h90l-83 -125h-60z" />
    <glyph glyph-name="Ocircumflex" unicode="&#xd4;" horiz-adv-x="757" 
d="M216 26.5q-67 36.5 -106 106t-39 162.5q0 16 4 56q14 110 64.5 191.5t127.5 124.5t167 43q83 0 150 -37t106 -106t39 -162q0 -18 -4 -56q-14 -110 -65 -191t-128 -124.5t-167 -43.5q-82 0 -149 36.5zM503 91q60 36 100.5 103t51.5 156q3 26 3 48q0 75 -29 131t-79.5 86
t-113.5 30h-10q-69 0 -129 -36t-100.5 -103t-51.5 -156q-3 -25 -3 -48q0 -75 29 -131t79.5 -86t113.5 -30h10q69 0 129 36zM465 890h90l99 -125h-65l-82 73l-123 -73h-69z" />
    <glyph glyph-name="Otilde" unicode="&#xd5;" horiz-adv-x="757" 
d="M216 26.5q-67 36.5 -106 106t-39 162.5q0 16 4 56q14 110 64.5 191.5t127.5 124.5t167 43q83 0 150 -37t106 -106t39 -162q0 -18 -4 -56q-14 -110 -65 -191t-128 -124.5t-167 -43.5q-82 0 -149 36.5zM503 91q60 36 100.5 103t51.5 156q3 26 3 48q0 75 -29 131t-79.5 86
t-113.5 30h-10q-69 0 -129 -36t-100.5 -103t-51.5 -156q-3 -25 -3 -48q0 -75 29 -131t79.5 -86t113.5 -30h10q69 0 129 36zM510 783l-36 28q-16 12 -26.5 18t-21.5 6q-17 0 -26 -14t-15 -51h-55l3 14q12 57 32.5 81.5t59.5 24.5q21 0 37 -7t33 -19l38 -28q29 -21 41 -21
q19 0 30 15.5t17 49.5h55l-4 -21q-8 -46 -32.5 -72.5t-60.5 -26.5q-40 0 -69 23z" />
    <glyph glyph-name="Odieresis" unicode="&#xd6;" horiz-adv-x="757" 
d="M216 26.5q-67 36.5 -106 106t-39 162.5q0 16 4 56q14 110 64.5 191.5t127.5 124.5t167 43q83 0 150 -37t106 -106t39 -162q0 -18 -4 -56q-14 -110 -65 -191t-128 -124.5t-167 -43.5q-82 0 -149 36.5zM503 91q60 36 100.5 103t51.5 156q3 26 3 48q0 75 -29 131t-79.5 86
t-113.5 30h-10q-69 0 -129 -36t-100.5 -103t-51.5 -156q-3 -25 -3 -48q0 -75 29 -131t79.5 -86t113.5 -30h10q69 0 129 36zM563 787q-12 12 -12 29q0 20 15.5 36t36.5 16q17 0 29 -12.5t12 -29.5q0 -20 -15.5 -35.5t-35.5 -15.5q-18 0 -30 12zM374 787q-12 12 -12 29
q0 20 15.5 36t36.5 16q17 0 29 -12.5t12 -29.5q0 -20 -15.5 -35.5t-35.5 -15.5q-18 0 -30 12z" />
    <glyph glyph-name="multiply" unicode="&#xd7;" horiz-adv-x="538" 
d="M28 100l197 163l-129 162l51 41l129 -162l196 162l41 -51l-196 -162l128 -163l-51 -41l-128 163l-197 -163z" />
    <glyph glyph-name="Oslash" unicode="&#xd8;" horiz-adv-x="759" 
d="M250 12.5q-55 22.5 -95 63.5l-83 -77l-44 47l88 81q-42 72 -42 168q0 18 4 56q14 110 64.5 191.5t127.5 124.5t167 43q64 0 119.5 -22t95.5 -65l82 76l44 -48l-87 -81q41 -71 41 -165q0 -18 -4 -56q-14 -110 -65 -191t-128 -124.5t-167 -43.5q-63 0 -118 22.5zM506 91
q60 36 100.5 103t51.5 156q3 24 3 47q0 68 -25 123l-429 -397q29 -32 70.5 -50t89.5 -18h10q69 0 129 36zM145 303q0 -70 26 -125l429 397q-30 34 -71.5 52t-89.5 18h-10q-69 0 -129 -36t-100.5 -103t-51.5 -156q-3 -24 -3 -47z" />
    <glyph glyph-name="Ugrave" unicode="&#xd9;" horiz-adv-x="689" 
d="M144.5 46q-58.5 56 -58.5 156q0 42 10 85l88 413h70l-90 -422q-9 -40 -9 -75q0 -72 39 -110t117 -38h10q86 0 137 48t72 143l97 454h70l-102 -477q-24 -113 -94.5 -173t-189.5 -60q-108 0 -166.5 56zM332 890h90l53 -125h-60z" />
    <glyph glyph-name="Uacute" unicode="&#xda;" horiz-adv-x="689" 
d="M144.5 46q-58.5 56 -58.5 156q0 42 10 85l88 413h70l-90 -422q-9 -40 -9 -75q0 -72 39 -110t117 -38h10q86 0 137 48t72 143l97 454h70l-102 -477q-24 -113 -94.5 -173t-189.5 -60q-108 0 -166.5 56zM468 890h90l-83 -125h-60z" />
    <glyph glyph-name="Ucircumflex" unicode="&#xdb;" horiz-adv-x="689" 
d="M144.5 46q-58.5 56 -58.5 156q0 42 10 85l88 413h70l-90 -422q-9 -40 -9 -75q0 -72 39 -110t117 -38h10q86 0 137 48t72 143l97 454h70l-102 -477q-24 -113 -94.5 -173t-189.5 -60q-108 0 -166.5 56zM419 890h90l99 -125h-65l-82 73l-123 -73h-69z" />
    <glyph glyph-name="Udieresis" unicode="&#xdc;" horiz-adv-x="689" 
d="M144.5 46q-58.5 56 -58.5 156q0 42 10 85l88 413h70l-90 -422q-9 -40 -9 -75q0 -72 39 -110t117 -38h10q86 0 137 48t72 143l97 454h70l-102 -477q-24 -113 -94.5 -173t-189.5 -60q-108 0 -166.5 56zM517 787q-12 12 -12 29q0 20 15.5 36t36.5 16q17 0 29 -12.5t12 -29.5
q0 -20 -15.5 -35.5t-35.5 -15.5q-18 0 -30 12zM328 787q-12 12 -12 29q0 20 15.5 36t36.5 16q17 0 29 -12.5t12 -29.5q0 -20 -15.5 -35.5t-35.5 -15.5q-18 0 -30 12z" />
    <glyph glyph-name="Yacute" unicode="&#xdd;" horiz-adv-x="620" 
d="M283 284l-180 416h73l152 -351l294 351h86l-356 -418l-60 -282h-70zM437 890h90l-83 -125h-60z" />
    <glyph glyph-name="Thorn" unicode="&#xde;" horiz-adv-x="643" 
d="M192 700h70l-31 -144h171q63 0 113 -23.5t77.5 -65t27.5 -95.5q0 -66 -28 -117.5t-79.5 -81t-119.5 -29.5h-249l-31 -144h-70zM390 209q70 0 115 41.5t45 113.5q0 59 -39.5 93t-118.5 34h-174l-61 -282h233z" />
    <glyph glyph-name="germandbls" unicode="&#xdf;" horiz-adv-x="544" 
d="M213.5 664q54.5 46 139.5 46q78 0 127 -46.5t49 -121.5q0 -50 -22.5 -88.5t-55 -61.5t-61.5 -27q37 -10 66 -49.5t29 -99.5t-27 -109.5t-76.5 -78t-112.5 -28.5h-83l13 60h54q82 0 124.5 44t42.5 110q0 57 -34.5 92.5t-91.5 35.5h-33l12 55h41q42 0 76.5 20.5t54 53.5
t19.5 68q0 54 -31.5 85t-83.5 31q-56 0 -94 -37.5t-54 -110.5l-147 -692h-66l151 710q20 93 74.5 139z" />
    <glyph glyph-name="agrave" unicode="&#xe0;" horiz-adv-x="545" 
d="M75.5 28q-44.5 38 -44.5 105q0 73 55.5 118.5t154.5 45.5h180l4 23q2 9 2 26q0 52 -38 80.5t-93 28.5h-8q-55 0 -93 -25.5t-47 -69.5h-62q11 67 66 108.5t144 41.5q80 0 135.5 -40t55.5 -119q0 -23 -6 -50l-41 -191q-15 -70 -16 -110h-59q0 30 7 70q-33 -43 -80 -61.5
t-100 -18.5q-72 0 -116.5 38zM287 64.5q41 19.5 71 55t40 80.5l10 45h-162q-71 0 -112 -28.5t-41 -78.5q0 -42 28 -67.5t76 -25.5h8q41 0 82 19.5zM234 700h78l47 -130h-47z" />
    <glyph glyph-name="aacute" unicode="&#xe1;" horiz-adv-x="545" 
d="M75.5 28q-44.5 38 -44.5 105q0 73 55.5 118.5t154.5 45.5h180l4 23q2 9 2 26q0 52 -38 80.5t-93 28.5h-8q-55 0 -93 -25.5t-47 -69.5h-62q11 67 66 108.5t144 41.5q80 0 135.5 -40t55.5 -119q0 -23 -6 -50l-41 -191q-15 -70 -16 -110h-59q0 30 7 70q-33 -43 -80 -61.5
t-100 -18.5q-72 0 -116.5 38zM287 64.5q41 19.5 71 55t40 80.5l10 45h-162q-71 0 -112 -28.5t-41 -78.5q0 -42 28 -67.5t76 -25.5h8q41 0 82 19.5zM376 700h82l-98 -130h-51z" />
    <glyph glyph-name="acircumflex" unicode="&#xe2;" horiz-adv-x="545" 
d="M75.5 28q-44.5 38 -44.5 105q0 73 55.5 118.5t154.5 45.5h180l4 23q2 9 2 26q0 52 -38 80.5t-93 28.5h-8q-55 0 -93 -25.5t-47 -69.5h-62q11 67 66 108.5t144 41.5q80 0 135.5 -40t55.5 -119q0 -23 -6 -50l-41 -191q-15 -70 -16 -110h-59q0 30 7 70q-33 -43 -80 -61.5
t-100 -18.5q-72 0 -116.5 38zM287 64.5q41 19.5 71 55t40 80.5l10 45h-162q-71 0 -112 -28.5t-41 -78.5q0 -42 28 -67.5t76 -25.5h8q41 0 82 19.5zM315 700h66l92 -130h-60l-70 73l-105 -73h-60z" />
    <glyph glyph-name="atilde" unicode="&#xe3;" horiz-adv-x="545" 
d="M75.5 28q-44.5 38 -44.5 105q0 73 55.5 118.5t154.5 45.5h180l4 23q2 9 2 26q0 52 -38 80.5t-93 28.5h-8q-55 0 -93 -25.5t-47 -69.5h-62q11 67 66 108.5t144 41.5q80 0 135.5 -40t55.5 -119q0 -23 -6 -50l-41 -191q-15 -70 -16 -110h-59q0 30 7 70q-33 -43 -80 -61.5
t-100 -18.5q-72 0 -116.5 38zM287 64.5q41 19.5 71 55t40 80.5l10 45h-162q-71 0 -112 -28.5t-41 -78.5q0 -42 28 -67.5t76 -25.5h8q41 0 82 19.5zM388 567.5q-16 7.5 -42 24.5l-37 25q-13 9 -23.5 13.5t-23.5 4.5q-20 0 -30.5 -15t-17.5 -50h-50l4 19q8 42 28.5 71.5
t55.5 29.5q21 0 38 -7t42 -24l36 -24q17 -11 27 -15.5t20 -4.5q20 0 30.5 15t18.5 50h50l-4 -18q-9 -43 -30.5 -72.5t-58.5 -29.5q-17 0 -33 7.5z" />
    <glyph glyph-name="adieresis" unicode="&#xe4;" horiz-adv-x="545" 
d="M75.5 28q-44.5 38 -44.5 105q0 73 55.5 118.5t154.5 45.5h180l4 23q2 9 2 26q0 52 -38 80.5t-93 28.5h-8q-55 0 -93 -25.5t-47 -69.5h-62q11 67 66 108.5t144 41.5q80 0 135.5 -40t55.5 -119q0 -23 -6 -50l-41 -191q-15 -70 -16 -110h-59q0 30 7 70q-33 -43 -80 -61.5
t-100 -18.5q-72 0 -116.5 38zM287 64.5q41 19.5 71 55t40 80.5l10 45h-162q-71 0 -112 -28.5t-41 -78.5q0 -42 28 -67.5t76 -25.5h8q41 0 82 19.5zM404.5 598.5q-10.5 10.5 -10.5 26.5q0 19 13.5 32.5t32.5 13.5q16 0 26.5 -11t10.5 -27q0 -18 -13.5 -31.5t-31.5 -13.5
q-17 0 -27.5 10.5zM221.5 598.5q-10.5 10.5 -10.5 26.5q0 19 13.5 32.5t32.5 13.5q16 0 26.5 -11t10.5 -27q0 -18 -13.5 -31.5t-31.5 -13.5q-17 0 -27.5 10.5z" />
    <glyph glyph-name="aring" unicode="&#xe5;" horiz-adv-x="545" 
d="M75.5 28q-44.5 38 -44.5 105q0 73 55.5 118.5t154.5 45.5h180l4 23q2 9 2 26q0 52 -38 80.5t-93 28.5h-8q-55 0 -93 -25.5t-47 -69.5h-62q11 67 66 108.5t144 41.5q80 0 135.5 -40t55.5 -119q0 -23 -6 -50l-41 -191q-15 -70 -16 -110h-59q0 30 7 70q-33 -43 -80 -61.5
t-100 -18.5q-72 0 -116.5 38zM287 64.5q41 19.5 71 55t40 80.5l10 45h-162q-71 0 -112 -28.5t-41 -78.5q0 -42 28 -67.5t76 -25.5h8q41 0 82 19.5zM287 589q-25 24 -25 60q0 35 25 59.5t59 24.5t59 -24.5t25 -59.5q0 -36 -25 -60t-59 -24t-59 24zM377.5 617q12.5 13 12.5 32
t-12.5 32t-30.5 13t-31 -13t-13 -32t13 -32t31 -13t30.5 13z" />
    <glyph glyph-name="ae" unicode="&#xe6;" horiz-adv-x="889" 
d="M75.5 28q-44.5 38 -44.5 105q0 74 55.5 120.5t154.5 46.5h180l4 20q3 15 3 28q0 51 -38.5 79t-93.5 28h-8q-55 0 -93 -25.5t-47 -69.5h-62q11 67 66 108.5t144 41.5q57 0 105.5 -24t69.5 -71q34 47 81 71t99 24q63 0 107.5 -28t66.5 -75t22 -105q0 -28 -6 -57h-370
q-2 -26 -2 -36q0 -81 39.5 -122.5t98.5 -41.5h6q50 0 87 26t57 72h66q-24 -69 -81.5 -111t-135.5 -42q-64 0 -112.5 37t-68.5 104q-40 -75 -102 -108t-131 -33q-72 0 -116.5 38zM287 64.5q41 19.5 71 55t40 80.5l10 45h-162q-71 0 -112 -28.5t-41 -78.5q0 -42 28 -67.5
t76 -25.5h8q41 0 82 19.5zM783 317q0 60 -35.5 99t-91.5 39h-10q-53 0 -99.5 -36.5t-66.5 -118.5h302q1 6 1 17z" />
    <glyph glyph-name="ccedilla" unicode="&#xe7;" horiz-adv-x="519" 
d="M137 -170h61q27 0 43 12t16 33q0 14 -13.5 23t-33.5 9h-22l19 86q-78 12 -120 71t-42 145q0 27 2 41q8 71 41.5 130.5t87.5 94.5t120 35q83 0 134 -49t56 -123h-64q-5 50 -37.5 83t-86.5 33h-10q-47 0 -84.5 -28.5t-61 -75t-30.5 -100.5q-2 -12 -2 -37q0 -71 33.5 -119
t95.5 -48h10q54 0 94.5 33.5t57.5 82.5h66q-22 -75 -78.5 -122t-136.5 -50l-12 -46q32 -5 49.5 -24t17.5 -45q0 -47 -33.5 -73.5t-89.5 -26.5h-59z" />
    <glyph glyph-name="egrave" unicode="&#xe8;" horiz-adv-x="529" 
d="M144 15.5q-45 25.5 -71 75t-26 118.5q0 21 3 45q10 81 45.5 139t87 87.5t108.5 29.5q62 0 106 -27.5t66.5 -74t22.5 -104.5q0 -34 -5 -59h-370q-2 -26 -2 -36q0 -81 39.5 -122.5t98.5 -41.5h6q50 0 87 26t57 72h66q-24 -69 -81.5 -111t-135.5 -42q-57 0 -102 25.5z
M423 317q0 60 -35.5 99t-91.5 39h-10q-53 0 -99.5 -36.5t-66.5 -118.5h302q1 6 1 17zM222 700h78l47 -130h-47z" />
    <glyph glyph-name="eacute" unicode="&#xe9;" horiz-adv-x="529" 
d="M144 15.5q-45 25.5 -71 75t-26 118.5q0 21 3 45q10 81 45.5 139t87 87.5t108.5 29.5q62 0 106 -27.5t66.5 -74t22.5 -104.5q0 -34 -5 -59h-370q-2 -26 -2 -36q0 -81 39.5 -122.5t98.5 -41.5h6q50 0 87 26t57 72h66q-24 -69 -81.5 -111t-135.5 -42q-57 0 -102 25.5z
M423 317q0 60 -35.5 99t-91.5 39h-10q-53 0 -99.5 -36.5t-66.5 -118.5h302q1 6 1 17zM364 700h82l-98 -130h-51z" />
    <glyph glyph-name="ecircumflex" unicode="&#xea;" horiz-adv-x="529" 
d="M144 15.5q-45 25.5 -71 75t-26 118.5q0 21 3 45q10 81 45.5 139t87 87.5t108.5 29.5q62 0 106 -27.5t66.5 -74t22.5 -104.5q0 -34 -5 -59h-370q-2 -26 -2 -36q0 -81 39.5 -122.5t98.5 -41.5h6q50 0 87 26t57 72h66q-24 -69 -81.5 -111t-135.5 -42q-57 0 -102 25.5z
M423 317q0 60 -35.5 99t-91.5 39h-10q-53 0 -99.5 -36.5t-66.5 -118.5h302q1 6 1 17zM303 700h66l92 -130h-60l-70 73l-105 -73h-60z" />
    <glyph glyph-name="edieresis" unicode="&#xeb;" horiz-adv-x="529" 
d="M144 15.5q-45 25.5 -71 75t-26 118.5q0 21 3 45q10 81 45.5 139t87 87.5t108.5 29.5q62 0 106 -27.5t66.5 -74t22.5 -104.5q0 -34 -5 -59h-370q-2 -26 -2 -36q0 -81 39.5 -122.5t98.5 -41.5h6q50 0 87 26t57 72h66q-24 -69 -81.5 -111t-135.5 -42q-57 0 -102 25.5z
M423 317q0 60 -35.5 99t-91.5 39h-10q-53 0 -99.5 -36.5t-66.5 -118.5h302q1 6 1 17zM392.5 598.5q-10.5 10.5 -10.5 26.5q0 19 13.5 32.5t32.5 13.5q16 0 26.5 -11t10.5 -27q0 -18 -13.5 -31.5t-31.5 -13.5q-17 0 -27.5 10.5zM209.5 598.5q-10.5 10.5 -10.5 26.5
q0 19 13.5 32.5t32.5 13.5q16 0 26.5 -11t10.5 -27q0 -18 -13.5 -31.5t-31.5 -13.5q-17 0 -27.5 10.5z" />
    <glyph glyph-name="igrave" unicode="&#xec;" horiz-adv-x="225" 
d="M133 500h65l-106 -500h-65zM83 700h78l47 -130h-47z" />
    <glyph glyph-name="iacute" unicode="&#xed;" horiz-adv-x="225" 
d="M133 500h65l-106 -500h-65zM225 700h82l-98 -130h-51z" />
    <glyph glyph-name="icircumflex" unicode="&#xee;" horiz-adv-x="225" 
d="M133 500h65l-106 -500h-65zM164 700h66l92 -130h-60l-70 73l-105 -73h-60z" />
    <glyph glyph-name="idieresis" unicode="&#xef;" horiz-adv-x="225" 
d="M133 500h65l-106 -500h-65zM253.5 598.5q-10.5 10.5 -10.5 26.5q0 19 13.5 32.5t32.5 13.5q16 0 26.5 -11t10.5 -27q0 -18 -13.5 -31.5t-31.5 -13.5q-17 0 -27.5 10.5zM70.5 598.5q-10.5 10.5 -10.5 26.5q0 19 13.5 32.5t32.5 13.5q16 0 26.5 -11t10.5 -27
q0 -18 -13.5 -31.5t-31.5 -13.5q-17 0 -27.5 10.5z" />
    <glyph glyph-name="eth" unicode="&#xf0;" horiz-adv-x="550" 
d="M97.5 49q-53.5 59 -53.5 154q0 11 2 37q8 65 40 119t84.5 85t117.5 31q54 0 96 -21t64 -59q-11 126 -93 193l-105 -45l-19 43l77 33q-48 25 -109 40l17 55q92 -21 158 -68l117 50l19 -43l-96 -41q94 -94 94 -259q0 -33 -3 -65q-15 -141 -83.5 -219.5t-177.5 -78.5
q-93 0 -146.5 59zM347 75q42 30 65 81t23 111q0 68 -35.5 110.5t-103.5 42.5h-10q-75 0 -121.5 -50.5t-55.5 -128.5q-2 -24 -2 -35q0 -72 35.5 -116.5t102.5 -44.5h5q55 0 97 30z" />
    <glyph glyph-name="ntilde" unicode="&#xf1;" horiz-adv-x="560" 
d="M133 500h65l-12 -61q59 71 146 71q75 0 122 -42.5t47 -120.5q0 -31 -7 -62l-61 -285h-65l64 302q4 17 4 38q0 51 -29 82t-78 31h-8q-62 0 -108.5 -50t-65.5 -143l-55 -260h-65zM408 567.5q-16 7.5 -42 24.5l-37 25q-13 9 -23.5 13.5t-23.5 4.5q-20 0 -30.5 -15t-17.5 -50
h-50l4 19q8 42 28.5 71.5t55.5 29.5q21 0 38 -7t42 -24l36 -24q17 -11 27 -15.5t20 -4.5q20 0 30.5 15t18.5 50h50l-4 -18q-9 -43 -30.5 -72.5t-58.5 -29.5q-17 0 -33 7.5z" />
    <glyph glyph-name="ograve" unicode="&#xf2;" horiz-adv-x="560" 
d="M151 18q-49 28 -77.5 78.5t-28.5 116.5q0 24 2 37q9 76 44.5 135t90.5 92t120 33q59 0 107.5 -27.5t77 -78.5t28.5 -117q0 -24 -2 -37q-9 -76 -44 -135t-89.5 -92t-120.5 -33q-59 0 -108 28zM349.5 71.5q38.5 25.5 64.5 72t33 106.5q2 24 2 33q0 51 -19 90t-52 60t-74 21
h-10q-45 0 -83.5 -25.5t-64.5 -72t-33 -106.5q-2 -24 -2 -33q0 -51 19 -90t52 -60t74 -21h10q45 0 83.5 25.5zM248 700h78l47 -130h-47z" />
    <glyph glyph-name="oacute" unicode="&#xf3;" horiz-adv-x="560" 
d="M151 18q-49 28 -77.5 78.5t-28.5 116.5q0 24 2 37q9 76 44.5 135t90.5 92t120 33q59 0 107.5 -27.5t77 -78.5t28.5 -117q0 -24 -2 -37q-9 -76 -44 -135t-89.5 -92t-120.5 -33q-59 0 -108 28zM349.5 71.5q38.5 25.5 64.5 72t33 106.5q2 24 2 33q0 51 -19 90t-52 60t-74 21
h-10q-45 0 -83.5 -25.5t-64.5 -72t-33 -106.5q-2 -24 -2 -33q0 -51 19 -90t52 -60t74 -21h10q45 0 83.5 25.5zM390 700h82l-98 -130h-51z" />
    <glyph glyph-name="ocircumflex" unicode="&#xf4;" horiz-adv-x="560" 
d="M151 18q-49 28 -77.5 78.5t-28.5 116.5q0 24 2 37q9 76 44.5 135t90.5 92t120 33q59 0 107.5 -27.5t77 -78.5t28.5 -117q0 -24 -2 -37q-9 -76 -44 -135t-89.5 -92t-120.5 -33q-59 0 -108 28zM349.5 71.5q38.5 25.5 64.5 72t33 106.5q2 24 2 33q0 51 -19 90t-52 60t-74 21
h-10q-45 0 -83.5 -25.5t-64.5 -72t-33 -106.5q-2 -24 -2 -33q0 -51 19 -90t52 -60t74 -21h10q45 0 83.5 25.5zM329 700h66l92 -130h-60l-70 73l-105 -73h-60z" />
    <glyph glyph-name="otilde" unicode="&#xf5;" horiz-adv-x="560" 
d="M151 18q-49 28 -77.5 78.5t-28.5 116.5q0 24 2 37q9 76 44.5 135t90.5 92t120 33q59 0 107.5 -27.5t77 -78.5t28.5 -117q0 -24 -2 -37q-9 -76 -44 -135t-89.5 -92t-120.5 -33q-59 0 -108 28zM349.5 71.5q38.5 25.5 64.5 72t33 106.5q2 24 2 33q0 51 -19 90t-52 60t-74 21
h-10q-45 0 -83.5 -25.5t-64.5 -72t-33 -106.5q-2 -24 -2 -33q0 -51 19 -90t52 -60t74 -21h10q45 0 83.5 25.5zM402 567.5q-16 7.5 -42 24.5l-37 25q-13 9 -23.5 13.5t-23.5 4.5q-20 0 -30.5 -15t-17.5 -50h-50l4 19q8 42 28.5 71.5t55.5 29.5q21 0 38 -7t42 -24l36 -24
q17 -11 27 -15.5t20 -4.5q20 0 30.5 15t18.5 50h50l-4 -18q-9 -43 -30.5 -72.5t-58.5 -29.5q-17 0 -33 7.5z" />
    <glyph glyph-name="odieresis" unicode="&#xf6;" horiz-adv-x="560" 
d="M151 18q-49 28 -77.5 78.5t-28.5 116.5q0 24 2 37q9 76 44.5 135t90.5 92t120 33q59 0 107.5 -27.5t77 -78.5t28.5 -117q0 -24 -2 -37q-9 -76 -44 -135t-89.5 -92t-120.5 -33q-59 0 -108 28zM349.5 71.5q38.5 25.5 64.5 72t33 106.5q2 24 2 33q0 51 -19 90t-52 60t-74 21
h-10q-45 0 -83.5 -25.5t-64.5 -72t-33 -106.5q-2 -24 -2 -33q0 -51 19 -90t52 -60t74 -21h10q45 0 83.5 25.5zM418.5 598.5q-10.5 10.5 -10.5 26.5q0 19 13.5 32.5t32.5 13.5q16 0 26.5 -11t10.5 -27q0 -18 -13.5 -31.5t-31.5 -13.5q-17 0 -27.5 10.5zM235.5 598.5
q-10.5 10.5 -10.5 26.5q0 19 13.5 32.5t32.5 13.5q16 0 26.5 -11t10.5 -27q0 -18 -13.5 -31.5t-31.5 -13.5q-17 0 -27.5 10.5z" />
    <glyph glyph-name="divide" unicode="&#xf7;" horiz-adv-x="619" 
d="M71 290h494l-14 -65h-494zM235.5 51q-13.5 14 -13.5 34q0 23 18 40.5t41 17.5q20 0 33.5 -14t13.5 -34q0 -23 -18 -40.5t-41 -17.5q-20 0 -33.5 14zM303.5 384q-13.5 14 -13.5 34q0 23 18 40.5t41 17.5q20 0 33.5 -14t13.5 -34q0 -23 -18 -40.5t-41 -17.5q-20 0 -33.5 14
z" />
    <glyph glyph-name="oslash" unicode="&#xf8;" horiz-adv-x="562" 
d="M179 6q-39 16 -68 46l-64 -61l-35 38l67 65q-30 54 -30 121q0 11 2 35q9 76 44.5 135t90.5 92t120 33q44 0 82.5 -15t67.5 -44l66 62l36 -37l-70 -67q31 -51 31 -121q0 -25 -2 -38q-9 -76 -44 -135t-89.5 -92t-120.5 -33q-45 0 -84 16zM353.5 71.5q38.5 25.5 64.5 72
t33 106.5q2 24 2 35q0 42 -14 78l-283 -269q19 -23 46 -35.5t58 -12.5h10q45 0 83.5 25.5zM115 216q0 -44 13 -76l283 268q-20 22 -46.5 34t-56.5 12h-10q-45 0 -83.5 -25.5t-64.5 -72t-33 -106.5q-2 -24 -2 -34z" />
    <glyph glyph-name="ugrave" unicode="&#xf9;" horiz-adv-x="550" 
d="M96.5 31q-38.5 41 -38.5 112q0 30 8 70l61 287h66l-65 -306q-5 -28 -5 -47q0 -47 24 -73.5t71 -26.5h8q62 0 110 52.5t69 151.5l53 249h65l-106 -500h-65l14 64q-59 -74 -155 -74q-76 0 -114.5 41zM243 700h78l47 -130h-47z" />
    <glyph glyph-name="uacute" unicode="&#xfa;" horiz-adv-x="550" 
d="M96.5 31q-38.5 41 -38.5 112q0 30 8 70l61 287h66l-65 -306q-5 -28 -5 -47q0 -47 24 -73.5t71 -26.5h8q62 0 110 52.5t69 151.5l53 249h65l-106 -500h-65l14 64q-59 -74 -155 -74q-76 0 -114.5 41zM385 700h82l-98 -130h-51z" />
    <glyph glyph-name="ucircumflex" unicode="&#xfb;" horiz-adv-x="550" 
d="M96.5 31q-38.5 41 -38.5 112q0 30 8 70l61 287h66l-65 -306q-5 -28 -5 -47q0 -47 24 -73.5t71 -26.5h8q62 0 110 52.5t69 151.5l53 249h65l-106 -500h-65l14 64q-59 -74 -155 -74q-76 0 -114.5 41zM324 700h66l92 -130h-60l-70 73l-105 -73h-60z" />
    <glyph glyph-name="udieresis" unicode="&#xfc;" horiz-adv-x="550" 
d="M96.5 31q-38.5 41 -38.5 112q0 30 8 70l61 287h66l-65 -306q-5 -28 -5 -47q0 -47 24 -73.5t71 -26.5h8q62 0 110 52.5t69 151.5l53 249h65l-106 -500h-65l14 64q-59 -74 -155 -74q-76 0 -114.5 41zM413.5 598.5q-10.5 10.5 -10.5 26.5q0 19 13.5 32.5t32.5 13.5
q16 0 26.5 -11t10.5 -27q0 -18 -13.5 -31.5t-31.5 -13.5q-17 0 -27.5 10.5zM230.5 598.5q-10.5 10.5 -10.5 26.5q0 19 13.5 32.5t32.5 13.5q16 0 26.5 -11t10.5 -27q0 -18 -13.5 -31.5t-31.5 -13.5q-17 0 -27.5 10.5z" />
    <glyph glyph-name="yacute" unicode="&#xfd;" horiz-adv-x="508" 
d="M-53 -100h83q39 0 64 19.5t54 65.5l30 48l-118 467h66l97 -394l247 394h73l-340 -542q-39 -62 -76 -87.5t-91 -25.5h-101zM357 700h82l-98 -130h-51z" />
    <glyph glyph-name="thorn" unicode="&#xfe;" horiz-adv-x="599" 
d="M177 700h65l-55 -259q58 69 161 69q52 0 98.5 -24t76 -74.5t29.5 -125.5q0 -87 -34.5 -154.5t-93 -104.5t-127.5 -37q-65 0 -112 31t-69 90l-66 -311h-65zM390 75q44 30 70.5 83.5t26.5 122.5q0 84 -43 129t-106 45h-8q-56 0 -98 -35.5t-64.5 -92t-22.5 -116.5
q0 -53 21 -90.5t54 -56.5t69 -19h8q49 0 93 30z" />
    <glyph glyph-name="ydieresis" unicode="&#xff;" horiz-adv-x="508" 
d="M-53 -100h83q39 0 64 19.5t54 65.5l30 48l-118 467h66l97 -394l247 394h73l-340 -542q-39 -62 -76 -87.5t-91 -25.5h-101zM385.5 598.5q-10.5 10.5 -10.5 26.5q0 19 13.5 32.5t32.5 13.5q16 0 26.5 -11t10.5 -27q0 -18 -13.5 -31.5t-31.5 -13.5q-17 0 -27.5 10.5z
M202.5 598.5q-10.5 10.5 -10.5 26.5q0 19 13.5 32.5t32.5 13.5q16 0 26.5 -11t10.5 -27q0 -18 -13.5 -31.5t-31.5 -13.5q-17 0 -27.5 10.5z" />
    <glyph glyph-name="Amacron" unicode="&#x100;" horiz-adv-x="672" 
d="M388 700h90l131 -700h-68l-36 193h-356l-118 -193h-76zM493 258l-71 380l-233 -380h304zM322 835h276l-11 -55h-276z" />
    <glyph glyph-name="amacron" unicode="&#x101;" horiz-adv-x="545" 
d="M75.5 28q-44.5 38 -44.5 105q0 73 55.5 118.5t154.5 45.5h180l4 23q2 9 2 26q0 52 -38 80.5t-93 28.5h-8q-55 0 -93 -25.5t-47 -69.5h-62q11 67 66 108.5t144 41.5q80 0 135.5 -40t55.5 -119q0 -23 -6 -50l-41 -191q-15 -70 -16 -110h-59q0 30 7 70q-33 -43 -80 -61.5
t-100 -18.5q-72 0 -116.5 38zM287 64.5q41 19.5 71 55t40 80.5l10 45h-162q-71 0 -112 -28.5t-41 -78.5q0 -42 28 -67.5t76 -25.5h8q41 0 82 19.5zM194 645h285l-12 -55h-285z" />
    <glyph glyph-name="Abreve" unicode="&#x102;" horiz-adv-x="672" 
d="M388 700h90l131 -700h-68l-36 193h-356l-118 -193h-76zM493 258l-71 380l-233 -380h304zM363.5 785.5q-36.5 30.5 -36.5 82.5q0 6 2 22h55q-1 -5 -1 -13q0 -31 20.5 -49t55.5 -18t64.5 20t40.5 60h55q-8 -63 -54 -99t-107 -36q-58 0 -94.5 30.5z" />
    <glyph glyph-name="abreve" unicode="&#x103;" horiz-adv-x="545" 
d="M75.5 28q-44.5 38 -44.5 105q0 73 55.5 118.5t154.5 45.5h180l4 23q2 9 2 26q0 52 -38 80.5t-93 28.5h-8q-55 0 -93 -25.5t-47 -69.5h-62q11 67 66 108.5t144 41.5q80 0 135.5 -40t55.5 -119q0 -23 -6 -50l-41 -191q-15 -70 -16 -110h-59q0 30 7 70q-33 -43 -80 -61.5
t-100 -18.5q-72 0 -116.5 38zM287 64.5q41 19.5 71 55t40 80.5l10 45h-162q-71 0 -112 -28.5t-41 -78.5q0 -42 28 -67.5t76 -25.5h8q41 0 82 19.5zM244 590q-33 30 -33 83q0 9 2 27h50q-1 -5 -1 -14q0 -35 20 -55t58 -20q35 0 62.5 21.5t40.5 67.5h50q-17 -68 -59.5 -104
t-99.5 -36t-90 30z" />
    <glyph glyph-name="Aogonek" unicode="&#x104;" horiz-adv-x="672" 
d="M388 700h90l131 -700h-1q-43 -19 -72 -46t-29 -55q0 -20 11.5 -29.5t37.5 -9.5h36l-11 -55h-41q-98 0 -98 77q0 36 29.5 68.5t69.5 50.5l-36 192h-356l-118 -193h-76zM493 258l-71 380l-233 -380h304z" />
    <glyph glyph-name="aogonek" unicode="&#x105;" horiz-adv-x="545" 
d="M75.5 28q-44.5 38 -44.5 105q0 73 55.5 118.5t154.5 45.5h180l4 23q2 9 2 26q0 52 -38 80.5t-93 28.5h-8q-55 0 -93 -25.5t-47 -69.5h-62q11 67 66 108.5t144 41.5q80 0 135.5 -40t55.5 -119q0 -23 -6 -50l-41 -191q-15 -70 -16 -110h-1q-43 -19 -72 -46t-29 -55
q0 -20 11.5 -29.5t37.5 -9.5h36l-11 -55h-41q-98 0 -98 77q0 38 32.5 72t75.5 51q0 27 7 65q-33 -43 -80 -61.5t-100 -18.5q-72 0 -116.5 38zM287 64.5q41 19.5 71 55t40 80.5l10 45h-162q-71 0 -112 -28.5t-41 -78.5q0 -42 28 -67.5t76 -25.5h8q41 0 82 19.5z" />
    <glyph glyph-name="Cacute" unicode="&#x106;" horiz-adv-x="702" 
d="M201.5 29.5q-64.5 39.5 -97 109t-32.5 157.5q0 27 3 54q11 100 58.5 182t124.5 130t174 48q76 0 133.5 -30t90 -82.5t35.5 -117.5h-70q-8 71 -53 118t-133 47h-10q-77 0 -137 -40.5t-96.5 -107.5t-46.5 -147q-3 -25 -3 -51q0 -69 23.5 -124t71 -87.5t116.5 -32.5h10
q88 0 145 46.5t80 118.5h74q-18 -66 -60.5 -118t-105.5 -82t-139 -30q-91 0 -155.5 39.5zM489 890h90l-83 -125h-60z" />
    <glyph glyph-name="cacute" unicode="&#x107;" horiz-adv-x="519" 
d="M97 52q-52 62 -52 158q0 27 2 40q8 71 41.5 130.5t87.5 94.5t120 35q83 0 134 -49t56 -123h-64q-5 50 -37.5 83t-86.5 33h-10q-47 0 -84.5 -28.5t-61 -75t-30.5 -100.5q-2 -12 -2 -37q0 -71 33.5 -119t95.5 -48h10q54 0 94.5 33.5t57.5 82.5h66q-23 -77 -82 -124.5
t-143 -47.5q-93 0 -145 62zM369 700h82l-98 -130h-51z" />
    <glyph glyph-name="Ccircumflex" unicode="&#x108;" horiz-adv-x="702" 
d="M201.5 29.5q-64.5 39.5 -97 109t-32.5 157.5q0 27 3 54q11 100 58.5 182t124.5 130t174 48q76 0 133.5 -30t90 -82.5t35.5 -117.5h-70q-8 71 -53 118t-133 47h-10q-77 0 -137 -40.5t-96.5 -107.5t-46.5 -147q-3 -25 -3 -51q0 -69 23.5 -124t71 -87.5t116.5 -32.5h10
q88 0 145 46.5t80 118.5h74q-18 -66 -60.5 -118t-105.5 -82t-139 -30q-91 0 -155.5 39.5zM440 890h90l99 -125h-65l-82 73l-123 -73h-69z" />
    <glyph glyph-name="ccircumflex" unicode="&#x109;" horiz-adv-x="519" 
d="M97 52q-52 62 -52 158q0 27 2 40q8 71 41.5 130.5t87.5 94.5t120 35q83 0 134 -49t56 -123h-64q-5 50 -37.5 83t-86.5 33h-10q-47 0 -84.5 -28.5t-61 -75t-30.5 -100.5q-2 -12 -2 -37q0 -71 33.5 -119t95.5 -48h10q54 0 94.5 33.5t57.5 82.5h66q-23 -77 -82 -124.5
t-143 -47.5q-93 0 -145 62zM308 700h66l92 -130h-60l-70 73l-105 -73h-60z" />
    <glyph glyph-name="Cdotaccent" unicode="&#x10a;" horiz-adv-x="702" 
d="M201.5 29.5q-64.5 39.5 -97 109t-32.5 157.5q0 27 3 54q11 100 58.5 182t124.5 130t174 48q76 0 133.5 -30t90 -82.5t35.5 -117.5h-70q-8 71 -53 118t-133 47h-10q-77 0 -137 -40.5t-96.5 -107.5t-46.5 -147q-3 -25 -3 -51q0 -69 23.5 -124t71 -87.5t116.5 -32.5h10
q88 0 145 46.5t80 118.5h74q-18 -66 -60.5 -118t-105.5 -82t-139 -30q-91 0 -155.5 39.5zM442 786q-12 12 -12 30q0 21 15.5 37t37.5 16q17 0 29.5 -12.5t12.5 -30.5q0 -21 -16 -36.5t-36 -15.5q-19 0 -31 12z" />
    <glyph glyph-name="cdotaccent" unicode="&#x10b;" horiz-adv-x="519" 
d="M97 52q-52 62 -52 158q0 27 2 40q8 71 41.5 130.5t87.5 94.5t120 35q83 0 134 -49t56 -123h-64q-5 50 -37.5 83t-86.5 33h-10q-47 0 -84.5 -28.5t-61 -75t-30.5 -100.5q-2 -12 -2 -37q0 -71 33.5 -119t95.5 -48h10q54 0 94.5 33.5t57.5 82.5h66q-23 -77 -82 -124.5
t-143 -47.5q-93 0 -145 62zM306 615q-12 12 -12 30q0 21 15.5 37t36.5 16q19 0 31 -12.5t12 -30.5q0 -21 -15 -36.5t-37 -15.5q-19 0 -31 12z" />
    <glyph glyph-name="Ccaron" unicode="&#x10c;" horiz-adv-x="702" 
d="M201.5 29.5q-64.5 39.5 -97 109t-32.5 157.5q0 27 3 54q11 100 58.5 182t124.5 130t174 48q76 0 133.5 -30t90 -82.5t35.5 -117.5h-70q-8 71 -53 118t-133 47h-10q-77 0 -137 -40.5t-96.5 -107.5t-46.5 -147q-3 -25 -3 -51q0 -69 23.5 -124t71 -87.5t116.5 -32.5h10
q88 0 145 46.5t80 118.5h74q-18 -66 -60.5 -118t-105.5 -82t-139 -30q-91 0 -155.5 39.5zM328 890h66l82 -73l123 73h68l-150 -125h-90z" />
    <glyph glyph-name="ccaron" unicode="&#x10d;" horiz-adv-x="519" 
d="M97 52q-52 62 -52 158q0 27 2 40q8 71 41.5 130.5t87.5 94.5t120 35q83 0 134 -49t56 -123h-64q-5 50 -37.5 83t-86.5 33h-10q-47 0 -84.5 -28.5t-61 -75t-30.5 -100.5q-2 -12 -2 -37q0 -71 33.5 -119t95.5 -48h10q54 0 94.5 33.5t57.5 82.5h66q-23 -77 -82 -124.5
t-143 -47.5q-93 0 -145 62zM206 700h60l70 -73l105 73h60l-137 -130h-66z" />
    <glyph glyph-name="Dcaron" unicode="&#x10e;" horiz-adv-x="706" 
d="M192 700h183q165 0 234 -84t69 -204q0 -102 -41 -197t-118.5 -155t-181.5 -60h-294zM479.5 114.5q64.5 49.5 96.5 128.5t32 167q0 108 -60 166.5t-174 58.5h-126l-121 -570h196q92 0 156.5 49.5zM276 890h66l82 -73l123 73h68l-150 -125h-90z" />
    <glyph glyph-name="dcaron" unicode="&#x10f;" horiz-adv-x="597" 
d="M151.5 14q-46.5 24 -76 74.5t-29.5 125.5q0 87 34.5 154.5t93 104.5t127.5 37q64 0 111.5 -30t70.5 -84l65 304h65l-149 -700h-65l12 59q-58 -69 -161 -69q-52 0 -98.5 24zM366 81.5q42 35.5 64.5 91.5t22.5 116q0 53 -21 90t-54 56t-69 19h-8q-49 0 -93 -29.5t-70.5 -83
t-26.5 -122.5q0 -83 43 -128t106 -45h8q56 0 98 35.5zM636 575h5q45 0 54 40l2 10h-30l16 75h65l-18 -85q-16 -75 -91 -75h-10z" />
    <glyph glyph-name="Dcroat" unicode="&#x110;" horiz-adv-x="734" 
d="M139 320h-87l13 60h87l68 320h183q165 0 234 -84t69 -204q0 -102 -41 -197t-118.5 -155t-181.5 -60h-294zM507.5 114.5q64.5 49.5 96.5 128.5t32 167q0 108 -60 166.5t-174 58.5h-126l-54 -255h153l-13 -60h-153l-54 -255h196q92 0 156.5 49.5z" />
    <glyph glyph-name="dcroat" unicode="&#x111;" horiz-adv-x="597" 
d="M151.5 14q-46.5 24 -76 74.5t-29.5 125.5q0 87 34.5 154.5t93 104.5t127.5 37q64 0 111.5 -30t70.5 -84l38 179h-172l11 50h172l16 75h65l-16 -75h75l-11 -50h-75l-122 -575h-65l12 59q-58 -69 -161 -69q-52 0 -98.5 24zM366 81.5q42 35.5 64.5 91.5t22.5 116
q0 53 -21 90t-54 56t-69 19h-8q-49 0 -93 -29.5t-70.5 -83t-26.5 -122.5q0 -83 43 -128t106 -45h8q56 0 98 35.5z" />
    <glyph glyph-name="Emacron" unicode="&#x112;" horiz-adv-x="638" 
d="M192 700h490l-14 -65h-420l-51 -242h360l-14 -65h-360l-56 -263h430l-14 -65h-500zM323 835h276l-11 -55h-276z" />
    <glyph glyph-name="emacron" unicode="&#x113;" horiz-adv-x="529" 
d="M144 15.5q-45 25.5 -71 75t-26 118.5q0 21 3 45q10 81 45.5 139t87 87.5t108.5 29.5q62 0 106 -27.5t66.5 -74t22.5 -104.5q0 -34 -5 -59h-370q-2 -26 -2 -36q0 -81 39.5 -122.5t98.5 -41.5h6q50 0 87 26t57 72h66q-24 -69 -81.5 -111t-135.5 -42q-57 0 -102 25.5z
M423 317q0 60 -35.5 99t-91.5 39h-10q-53 0 -99.5 -36.5t-66.5 -118.5h302q1 6 1 17zM182 645h285l-12 -55h-285z" />
    <glyph glyph-name="Ebreve" unicode="&#x114;" horiz-adv-x="638" 
d="M192 700h490l-14 -65h-420l-51 -242h360l-14 -65h-360l-56 -263h430l-14 -65h-500zM364.5 785.5q-36.5 30.5 -36.5 82.5q0 6 2 22h55q-1 -5 -1 -13q0 -31 20.5 -49t55.5 -18t64.5 20t40.5 60h55q-8 -63 -54 -99t-107 -36q-58 0 -94.5 30.5z" />
    <glyph glyph-name="ebreve" unicode="&#x115;" horiz-adv-x="529" 
d="M144 15.5q-45 25.5 -71 75t-26 118.5q0 21 3 45q10 81 45.5 139t87 87.5t108.5 29.5q62 0 106 -27.5t66.5 -74t22.5 -104.5q0 -34 -5 -59h-370q-2 -26 -2 -36q0 -81 39.5 -122.5t98.5 -41.5h6q50 0 87 26t57 72h66q-24 -69 -81.5 -111t-135.5 -42q-57 0 -102 25.5z
M423 317q0 60 -35.5 99t-91.5 39h-10q-53 0 -99.5 -36.5t-66.5 -118.5h302q1 6 1 17zM232 590q-33 30 -33 83q0 9 2 27h50q-1 -5 -1 -14q0 -35 20 -55t58 -20q35 0 62.5 21.5t40.5 67.5h50q-17 -68 -59.5 -104t-99.5 -36t-90 30z" />
    <glyph glyph-name="Edotaccent" unicode="&#x116;" horiz-adv-x="638" 
d="M192 700h490l-14 -65h-420l-51 -242h360l-14 -65h-360l-56 -263h430l-14 -65h-500zM425 786q-12 12 -12 30q0 21 15.5 37t37.5 16q17 0 29.5 -12.5t12.5 -30.5q0 -21 -16 -36.5t-36 -15.5q-19 0 -31 12z" />
    <glyph glyph-name="edotaccent" unicode="&#x117;" horiz-adv-x="529" 
d="M144 15.5q-45 25.5 -71 75t-26 118.5q0 21 3 45q10 81 45.5 139t87 87.5t108.5 29.5q62 0 106 -27.5t66.5 -74t22.5 -104.5q0 -34 -5 -59h-370q-2 -26 -2 -36q0 -81 39.5 -122.5t98.5 -41.5h6q50 0 87 26t57 72h66q-24 -69 -81.5 -111t-135.5 -42q-57 0 -102 25.5z
M423 317q0 60 -35.5 99t-91.5 39h-10q-53 0 -99.5 -36.5t-66.5 -118.5h302q1 6 1 17zM301 615q-12 12 -12 30q0 21 15.5 37t36.5 16q19 0 31 -12.5t12 -30.5q0 -21 -15 -36.5t-37 -15.5q-19 0 -31 12z" />
    <glyph glyph-name="Eogonek" unicode="&#x118;" horiz-adv-x="638" 
d="M192 700h490l-14 -65h-420l-51 -242h360l-14 -65h-360l-56 -263h430l-14 -65h-1q-43 -19 -72 -46t-29 -55q0 -20 11.5 -29.5t37.5 -9.5h36l-11 -55h-41q-98 0 -98 77q0 36 29 68t68 50h-430z" />
    <glyph glyph-name="eogonek" unicode="&#x119;" horiz-adv-x="529" 
d="M150 -118q0 31 22.5 60t56.5 49q-81 5 -132.5 62.5t-51.5 154.5q0 21 3 43q10 82 46 140.5t88 88.5t109 30q62 0 106 -27.5t66.5 -74t22.5 -104.5q0 -34 -5 -59h-370q-2 -26 -2 -36q0 -81 39.5 -122.5t98.5 -41.5h6q50 0 87 26t57 72h66q-17 -50 -51 -85.5t-92 -60.5
q-41 -18 -73 -44.5t-32 -53.5q0 -20 11.5 -29.5t37.5 -9.5h36l-11 -55h-41q-98 0 -98 77zM423 317q0 60 -35.5 99t-91.5 39h-10q-53 0 -99.5 -36.5t-66.5 -118.5h302q1 6 1 17z" />
    <glyph glyph-name="Ecaron" unicode="&#x11a;" horiz-adv-x="638" 
d="M192 700h490l-14 -65h-420l-51 -242h360l-14 -65h-360l-56 -263h430l-14 -65h-500zM311 890h66l82 -73l123 73h68l-150 -125h-90z" />
    <glyph glyph-name="ecaron" unicode="&#x11b;" horiz-adv-x="529" 
d="M144 15.5q-45 25.5 -71 75t-26 118.5q0 21 3 45q10 81 45.5 139t87 87.5t108.5 29.5q62 0 106 -27.5t66.5 -74t22.5 -104.5q0 -34 -5 -59h-370q-2 -26 -2 -36q0 -81 39.5 -122.5t98.5 -41.5h6q50 0 87 26t57 72h66q-24 -69 -81.5 -111t-135.5 -42q-57 0 -102 25.5z
M423 317q0 60 -35.5 99t-91.5 39h-10q-53 0 -99.5 -36.5t-66.5 -118.5h302q1 6 1 17zM201 700h60l70 -73l105 73h60l-137 -130h-66z" />
    <glyph glyph-name="Gcircumflex" unicode="&#x11c;" horiz-adv-x="743" 
d="M206.5 28q-63.5 38 -99 105.5t-35.5 152.5q0 118 44 214.5t127 153t194 56.5q73 0 134 -31t97.5 -85t38.5 -119h-70q-9 81 -67 125.5t-136 44.5h-10q-84 0 -148 -48t-99 -127t-35 -169q0 -114 59.5 -180t161.5 -66h10q60 0 113.5 30t91.5 82t53 117v1h-229l13 65h211
q69 0 69 -65q0 -14 -3 -29l-54 -256h-65l23 110q-37 -52 -97 -86t-146 -34q-83 0 -146.5 38zM454 890h90l99 -125h-65l-82 73l-123 -73h-69z" />
    <glyph glyph-name="gcircumflex" unicode="&#x11d;" horiz-adv-x="586" 
d="M65.5 -181.5q-60.5 38.5 -67.5 111.5h66q7 -45 47.5 -70t93.5 -25h8q71 0 115.5 45t61.5 126l13 63q-58 -69 -156 -69q-51 0 -96.5 23t-73.5 71.5t-28 121.5q0 87 32 154t87.5 103.5t125.5 36.5q60 0 108.5 -30.5t70.5 -84.5l22 105h65l-109 -512q-22 -100 -80 -154
t-165 -54q-80 0 -140.5 38.5zM359 89.5q41 34.5 62.5 88.5t21.5 111q0 53 -19.5 90.5t-51.5 56.5t-70 19h-8q-49 0 -90 -29.5t-65.5 -83t-24.5 -122.5q0 -79 39.5 -122t101.5 -43h8q55 0 96 34.5zM317 700h66l92 -130h-60l-70 73l-105 -73h-60z" />
    <glyph glyph-name="Gbreve" unicode="&#x11e;" horiz-adv-x="743" 
d="M206.5 28q-63.5 38 -99 105.5t-35.5 152.5q0 118 44 214.5t127 153t194 56.5q73 0 134 -31t97.5 -85t38.5 -119h-70q-9 81 -67 125.5t-136 44.5h-10q-84 0 -148 -48t-99 -127t-35 -169q0 -114 59.5 -180t161.5 -66h10q60 0 113.5 30t91.5 82t53 117v1h-229l13 65h211
q69 0 69 -65q0 -14 -3 -29l-54 -256h-65l23 110q-37 -52 -97 -86t-146 -34q-83 0 -146.5 38zM395.5 785.5q-36.5 30.5 -36.5 82.5q0 6 2 22h55q-1 -5 -1 -13q0 -31 20.5 -49t55.5 -18t64.5 20t40.5 60h55q-8 -63 -54 -99t-107 -36q-58 0 -94.5 30.5z" />
    <glyph glyph-name="gbreve" unicode="&#x11f;" horiz-adv-x="586" 
d="M65.5 -181.5q-60.5 38.5 -67.5 111.5h66q7 -45 47.5 -70t93.5 -25h8q71 0 115.5 45t61.5 126l13 63q-58 -69 -156 -69q-51 0 -96.5 23t-73.5 71.5t-28 121.5q0 87 32 154t87.5 103.5t125.5 36.5q60 0 108.5 -30.5t70.5 -84.5l22 105h65l-109 -512q-22 -100 -80 -154
t-165 -54q-80 0 -140.5 38.5zM359 89.5q41 34.5 62.5 88.5t21.5 111q0 53 -19.5 90.5t-51.5 56.5t-70 19h-8q-49 0 -90 -29.5t-65.5 -83t-24.5 -122.5q0 -79 39.5 -122t101.5 -43h8q55 0 96 34.5zM246 590q-33 30 -33 83q0 9 2 27h50q-1 -5 -1 -14q0 -35 20 -55t58 -20
q35 0 62.5 21.5t40.5 67.5h50q-17 -68 -59.5 -104t-99.5 -36t-90 30z" />
    <glyph glyph-name="Gdotaccent" unicode="&#x120;" horiz-adv-x="743" 
d="M206.5 28q-63.5 38 -99 105.5t-35.5 152.5q0 118 44 214.5t127 153t194 56.5q73 0 134 -31t97.5 -85t38.5 -119h-70q-9 81 -67 125.5t-136 44.5h-10q-84 0 -148 -48t-99 -127t-35 -169q0 -114 59.5 -180t161.5 -66h10q60 0 113.5 30t91.5 82t53 117v1h-229l13 65h211
q69 0 69 -65q0 -14 -3 -29l-54 -256h-65l23 110q-37 -52 -97 -86t-146 -34q-83 0 -146.5 38zM456 786q-12 12 -12 30q0 21 15.5 37t37.5 16q17 0 29.5 -12.5t12.5 -30.5q0 -21 -16 -36.5t-36 -15.5q-19 0 -31 12z" />
    <glyph glyph-name="gdotaccent" unicode="&#x121;" horiz-adv-x="586" 
d="M65.5 -181.5q-60.5 38.5 -67.5 111.5h66q7 -45 47.5 -70t93.5 -25h8q71 0 115.5 45t61.5 126l13 63q-58 -69 -156 -69q-51 0 -96.5 23t-73.5 71.5t-28 121.5q0 87 32 154t87.5 103.5t125.5 36.5q60 0 108.5 -30.5t70.5 -84.5l22 105h65l-109 -512q-22 -100 -80 -154
t-165 -54q-80 0 -140.5 38.5zM359 89.5q41 34.5 62.5 88.5t21.5 111q0 53 -19.5 90.5t-51.5 56.5t-70 19h-8q-49 0 -90 -29.5t-65.5 -83t-24.5 -122.5q0 -79 39.5 -122t101.5 -43h8q55 0 96 34.5zM315 615q-12 12 -12 30q0 21 15.5 37t36.5 16q19 0 31 -12.5t12 -30.5
q0 -21 -15 -36.5t-37 -15.5q-19 0 -31 12z" />
    <glyph glyph-name="uni0122" unicode="&#x122;" horiz-adv-x="743" 
d="M206.5 28q-63.5 38 -99 105.5t-35.5 152.5q0 118 44 214.5t127 153t194 56.5q73 0 134 -31t97.5 -85t38.5 -119h-70q-9 81 -67 125.5t-136 44.5h-10q-84 0 -148 -48t-99 -127t-35 -169q0 -114 59.5 -180t161.5 -66h10q60 0 113.5 30t91.5 82t53 117v1h-229l13 65h211
q69 0 69 -65q0 -14 -3 -29l-54 -256h-65l23 110q-37 -52 -97 -86t-146 -34q-83 0 -146.5 38zM268 -207h5q40 0 47 32l2 10h-30l16 75h65l-19 -88q-7 -30 -28 -47t-51 -17h-15z" />
    <glyph glyph-name="uni0123" unicode="&#x123;" horiz-adv-x="586" 
d="M65.5 -181.5q-60.5 38.5 -67.5 111.5h66q7 -45 47.5 -70t93.5 -25h8q71 0 115.5 45t61.5 126l13 63q-58 -69 -156 -69q-51 0 -96.5 23t-73.5 71.5t-28 121.5q0 87 32 154t87.5 103.5t125.5 36.5q60 0 108.5 -30.5t70.5 -84.5l22 105h65l-109 -512q-22 -100 -80 -154
t-165 -54q-80 0 -140.5 38.5zM359 89.5q41 34.5 62.5 88.5t21.5 111q0 53 -19.5 90.5t-51.5 56.5t-70 19h-8q-49 0 -90 -29.5t-65.5 -83t-24.5 -122.5q0 -79 39.5 -122t101.5 -43h8q55 0 96 34.5zM352.5 735q20.5 22 60.5 22h12l-7 -35h-8q-22 0 -33.5 -11t-17.5 -35l-1 -4
h30l-16 -75h-65l15 69q10 47 30.5 69z" />
    <glyph glyph-name="Hcircumflex" unicode="&#x124;" horiz-adv-x="727" 
d="M192 700h70l-67 -317h395l67 317h70l-149 -700h-70l68 318h-395l-68 -318h-70zM448 890h90l99 -125h-65l-82 73l-123 -73h-69z" />
    <glyph glyph-name="hcircumflex" unicode="&#x125;" horiz-adv-x="561" 
d="M176 700h65l-54 -261q59 71 146 71q75 0 122 -42.5t47 -120.5q0 -31 -7 -62l-61 -285h-65l64 302q4 17 4 38q0 51 -29 82t-78 31h-8q-62 0 -108.5 -50t-65.5 -143l-55 -260h-65zM204 890h66l92 -130h-60l-70 73l-105 -73h-60z" />
    <glyph glyph-name="Hbar" unicode="&#x126;" horiz-adv-x="783" 
d="M182 520h-70l12 60h70l26 120h70l-25 -120h395l25 120h70l-26 -120h70l-12 -60h-70l-111 -520h-70l68 318h-395l-68 -318h-70zM618 383l29 137h-395l-29 -137h395z" />
    <glyph glyph-name="hbar" unicode="&#x127;" horiz-adv-x="561" 
d="M150 575h-78l11 50h77l16 75h65l-16 -75h170l-11 -50h-169l-28 -136q59 71 146 71q75 0 122 -42.5t47 -120.5q0 -31 -7 -62l-61 -285h-65l64 302q4 17 4 38q0 51 -29 82t-78 31h-8q-62 0 -108.5 -50t-65.5 -143l-55 -260h-65z" />
    <glyph glyph-name="Itilde" unicode="&#x128;" horiz-adv-x="262" 
d="M192 700h70l-149 -700h-70zM260 783l-36 28q-16 12 -26.5 18t-21.5 6q-17 0 -26 -14t-15 -51h-55l3 14q12 57 32.5 81.5t59.5 24.5q21 0 37 -7t33 -19l38 -28q29 -21 41 -21q19 0 30 15.5t17 49.5h55l-4 -21q-8 -46 -32.5 -72.5t-60.5 -26.5q-40 0 -69 23z" />
    <glyph glyph-name="itilde" unicode="&#x129;" horiz-adv-x="225" 
d="M133 500h65l-106 -500h-65zM237 567.5q-16 7.5 -42 24.5l-37 25q-13 9 -23.5 13.5t-23.5 4.5q-20 0 -30.5 -15t-17.5 -50h-50l4 19q8 42 28.5 71.5t55.5 29.5q21 0 38 -7t42 -24l36 -24q17 -11 27 -15.5t20 -4.5q20 0 30.5 15t18.5 50h50l-4 -18q-9 -43 -30.5 -72.5
t-58.5 -29.5q-17 0 -33 7.5z" />
    <glyph glyph-name="Imacron" unicode="&#x12a;" horiz-adv-x="262" 
d="M192 700h70l-149 -700h-70zM115 835h276l-11 -55h-276z" />
    <glyph glyph-name="imacron" unicode="&#x12b;" horiz-adv-x="225" 
d="M133 500h65l-106 -500h-65zM43 645h285l-12 -55h-285z" />
    <glyph glyph-name="Ibreve" unicode="&#x12c;" horiz-adv-x="262" 
d="M192 700h70l-149 -700h-70zM156.5 785.5q-36.5 30.5 -36.5 82.5q0 6 2 22h55q-1 -5 -1 -13q0 -31 20.5 -49t55.5 -18t64.5 20t40.5 60h55q-8 -63 -54 -99t-107 -36q-58 0 -94.5 30.5z" />
    <glyph glyph-name="ibreve" unicode="&#x12d;" horiz-adv-x="225" 
d="M133 500h65l-106 -500h-65zM93 590q-33 30 -33 83q0 9 2 27h50q-1 -5 -1 -14q0 -35 20 -55t58 -20q35 0 62.5 21.5t40.5 67.5h50q-17 -68 -59.5 -104t-99.5 -36t-90 30z" />
    <glyph glyph-name="Iogonek" unicode="&#x12e;" horiz-adv-x="262" 
d="M192 700h70l-149 -700h-1q-43 -19 -72 -46t-29 -55q0 -20 11.5 -29.5t37.5 -9.5h36l-11 -55h-41q-98 0 -98 77q0 36 29 68t68 50z" />
    <glyph glyph-name="iogonek" unicode="&#x12f;" horiz-adv-x="225" 
d="M162 615q-12 12 -12 30q0 21 15.5 37t36.5 16q19 0 31 -12.5t12 -30.5q0 -21 -15 -36.5t-37 -15.5q-19 0 -31 12zM-75 -118q0 37 31 70t72 51l105 497h65l-106 -500h-1q-43 -19 -72 -46t-29 -55q0 -20 11.5 -29.5t37.5 -9.5h36l-11 -55h-41q-98 0 -98 77z" />
    <glyph glyph-name="Idotaccent" unicode="&#x130;" horiz-adv-x="262" 
d="M192 700h70l-149 -700h-70zM217 786q-12 12 -12 30q0 21 15.5 37t37.5 16q17 0 29.5 -12.5t12.5 -30.5q0 -21 -16 -36.5t-36 -15.5q-19 0 -31 12z" />
    <glyph glyph-name="dotlessi" unicode="&#x131;" horiz-adv-x="225" 
d="M133 500h65l-106 -500h-65z" />
    <glyph glyph-name="IJ" unicode="&#x132;" horiz-adv-x="572" 
d="M57 65h225q91 0 115 115l110 520h70l-109 -517q-39 -183 -192 -183h-232zM192 700h70l-109 -515h-70z" />
    <glyph glyph-name="ij" unicode="&#x133;" horiz-adv-x="475" 
d="M3 -110h210q23 0 33.5 8.5t14.5 31.5l122 570h65l-123 -575q-10 -48 -35.5 -69t-68.5 -21h-230zM133 500h65l-107 -500h-65zM158.5 599q-11.5 12 -11.5 30q0 20 15.5 35t35.5 15q18 0 29.5 -12t11.5 -30q0 -20 -15.5 -35t-35.5 -15q-18 0 -29.5 12zM409.5 599
q-11.5 12 -11.5 30q0 20 15.5 35t35.5 15q18 0 29.5 -12t11.5 -30q0 -20 -15.5 -35t-35.5 -15q-18 0 -29.5 12z" />
    <glyph glyph-name="Jcircumflex" unicode="&#x134;" horiz-adv-x="360" 
d="M-27 65h88q52 0 82 29.5t44 95.5l109 510h70l-111 -520q-21 -97 -68 -138.5t-142 -41.5h-86zM319 890h90l99 -125h-65l-82 73l-123 -73h-69z" />
    <glyph glyph-name="jcircumflex" unicode="&#x135;" horiz-adv-x="225" 
d="M-147 -110h94q31 0 46.5 14t22.5 46l117 550h65l-118 -553q-13 -58 -43 -85t-91 -27h-105zM164 700h66l92 -130h-60l-70 73l-105 -73h-60z" />
    <glyph glyph-name="uni0136" unicode="&#x136;" horiz-adv-x="639" 
d="M192 700h70l-82 -385l470 385h98l-345 -282l201 -418h-78l-177 371l-189 -153l-46 -218h-70zM240 -207h5q40 0 47 32l2 10h-30l16 75h65l-19 -88q-7 -30 -28 -47t-51 -17h-15z" />
    <glyph glyph-name="uni0137" unicode="&#x137;" horiz-adv-x="507" 
d="M175 700h65l-96 -453l315 253h94l-250 -199l164 -301h-74l-140 261l-127 -101l-34 -160h-65zM170 -207h5q40 0 47 32l2 10h-30l16 75h65l-19 -88q-7 -30 -28 -47t-51 -17h-15z" />
    <glyph glyph-name="Lacute" unicode="&#x139;" horiz-adv-x="595" 
d="M192 700h70l-135 -635h420l-14 -65h-490zM264 890h90l-83 -125h-60z" />
    <glyph glyph-name="lacute" unicode="&#x13a;" horiz-adv-x="226" 
d="M177 700h65l-149 -700h-65zM266 890h82l-98 -130h-51z" />
    <glyph glyph-name="uni013B" unicode="&#x13b;" horiz-adv-x="595" 
d="M192 700h70l-135 -635h420l-14 -65h-490zM196 -207h5q40 0 47 32l2 10h-30l16 75h65l-19 -88q-7 -30 -28 -47t-51 -17h-15z" />
    <glyph glyph-name="uni013C" unicode="&#x13c;" horiz-adv-x="226" 
d="M177 700h65l-149 -700h-65zM-31 -207h5q40 0 47 32l2 10h-30l16 75h65l-19 -88q-7 -30 -28 -47t-51 -17h-15z" />
    <glyph glyph-name="Lcaron" unicode="&#x13d;" horiz-adv-x="595" 
d="M192 700h70l-135 -635h420l-14 -65h-490zM335 575h5q45 0 54 40l2 10h-30l16 75h65l-18 -85q-16 -75 -91 -75h-10z" />
    <glyph glyph-name="lcaron" unicode="&#x13e;" horiz-adv-x="226" 
d="M177 700h65l-149 -700h-65zM265 575h5q45 0 54 40l2 10h-30l16 75h65l-18 -85q-16 -75 -91 -75h-10z" />
    <glyph glyph-name="Ldot" unicode="&#x13f;" horiz-adv-x="596" 
d="M192 700h70l-135 -635h420l-14 -65h-490zM414.5 334q-13.5 14 -13.5 34q0 23 18 40.5t41 17.5q20 0 33.5 -14t13.5 -34q0 -23 -18 -40.5t-41 -17.5q-20 0 -33.5 14z" />
    <glyph glyph-name="ldot" unicode="&#x140;" horiz-adv-x="309" 
d="M177 700h65l-149 -700h-65zM246.5 299q-13.5 14 -13.5 34q0 23 18 40.5t41 17.5q20 0 33.5 -14t13.5 -34q0 -23 -18 -40.5t-41 -17.5q-20 0 -33.5 14z" />
    <glyph glyph-name="Lslash" unicode="&#x141;" horiz-adv-x="628" 
d="M134 273l-102 -52l16 74l102 51l75 354h70l-67 -314l222 112l-16 -73l-221 -112l-53 -248h420l-14 -65h-490z" />
    <glyph glyph-name="lslash" unicode="&#x142;" horiz-adv-x="297" 
d="M138 345l-91 -43l14 68l91 43l61 287h65l-54 -252l97 46l-15 -68l-96 -46l-81 -380h-65z" />
    <glyph glyph-name="Nacute" unicode="&#x143;" horiz-adv-x="737" 
d="M192 700h90l256 -607l129 607h70l-149 -700h-85l-259 618l-131 -618h-70zM502 890h90l-83 -125h-60z" />
    <glyph glyph-name="nacute" unicode="&#x144;" horiz-adv-x="560" 
d="M133 500h65l-12 -61q59 71 146 71q75 0 122 -42.5t47 -120.5q0 -31 -7 -62l-61 -285h-65l64 302q4 17 4 38q0 51 -29 82t-78 31h-8q-62 0 -108.5 -50t-65.5 -143l-55 -260h-65zM396 700h82l-98 -130h-51z" />
    <glyph glyph-name="uni0145" unicode="&#x145;" horiz-adv-x="737" 
d="M192 700h90l256 -607l129 607h70l-149 -700h-85l-259 618l-131 -618h-70zM224 -207h5q40 0 47 32l2 10h-30l16 75h65l-19 -88q-7 -30 -28 -47t-51 -17h-15z" />
    <glyph glyph-name="uni0146" unicode="&#x146;" horiz-adv-x="560" 
d="M133 500h65l-12 -61q59 71 146 71q75 0 122 -42.5t47 -120.5q0 -31 -7 -62l-61 -285h-65l64 302q4 17 4 38q0 51 -29 82t-78 31h-8q-62 0 -108.5 -50t-65.5 -143l-55 -260h-65zM139 -207h5q40 0 47 32l2 10h-30l16 75h65l-19 -88q-7 -30 -28 -47t-51 -17h-15z" />
    <glyph glyph-name="Ncaron" unicode="&#x147;" horiz-adv-x="737" 
d="M192 700h90l256 -607l129 607h70l-149 -700h-85l-259 618l-131 -618h-70zM341 890h66l82 -73l123 73h68l-150 -125h-90z" />
    <glyph glyph-name="ncaron" unicode="&#x148;" horiz-adv-x="560" 
d="M133 500h65l-12 -61q59 71 146 71q75 0 122 -42.5t47 -120.5q0 -31 -7 -62l-61 -285h-65l64 302q4 17 4 38q0 51 -29 82t-78 31h-8q-62 0 -108.5 -50t-65.5 -143l-55 -260h-65zM233 700h60l70 -73l105 73h60l-137 -130h-66z" />
    <glyph glyph-name="Eng" unicode="&#x14a;" horiz-adv-x="737" 
d="M345 -110h94q29 0 45.5 13.5t22.5 42.5l12 54l-278 603l-128 -603h-70l149 700h81l270 -586l124 586h70l-161 -759q-12 -57 -45 -86.5t-94 -29.5h-106z" />
    <glyph glyph-name="eng" unicode="&#x14b;" horiz-adv-x="560" 
d="M215 -110h90q23 0 33 9t15 31l79 372q4 17 4 38q0 51 -29 82t-78 31h-8q-62 0 -108.5 -50t-65.5 -143l-55 -260h-65l106 500h65l-12 -61q59 71 146 71q75 0 122 -42.5t47 -120.5q0 -31 -7 -62l-77 -360q-10 -49 -35 -69.5t-75 -20.5h-104z" />
    <glyph glyph-name="Omacron" unicode="&#x14c;" horiz-adv-x="757" 
d="M216 26.5q-67 36.5 -106 106t-39 162.5q0 16 4 56q14 110 64.5 191.5t127.5 124.5t167 43q83 0 150 -37t106 -106t39 -162q0 -18 -4 -56q-14 -110 -65 -191t-128 -124.5t-167 -43.5q-82 0 -149 36.5zM503 91q60 36 100.5 103t51.5 156q3 26 3 48q0 75 -29 131t-79.5 86
t-113.5 30h-10q-69 0 -129 -36t-100.5 -103t-51.5 -156q-3 -25 -3 -48q0 -75 29 -131t79.5 -86t113.5 -30h10q69 0 129 36zM365 835h276l-11 -55h-276z" />
    <glyph glyph-name="omacron" unicode="&#x14d;" horiz-adv-x="560" 
d="M151 18q-49 28 -77.5 78.5t-28.5 116.5q0 24 2 37q9 76 44.5 135t90.5 92t120 33q59 0 107.5 -27.5t77 -78.5t28.5 -117q0 -24 -2 -37q-9 -76 -44 -135t-89.5 -92t-120.5 -33q-59 0 -108 28zM349.5 71.5q38.5 25.5 64.5 72t33 106.5q2 24 2 33q0 51 -19 90t-52 60t-74 21
h-10q-45 0 -83.5 -25.5t-64.5 -72t-33 -106.5q-2 -24 -2 -33q0 -51 19 -90t52 -60t74 -21h10q45 0 83.5 25.5zM208 645h285l-12 -55h-285z" />
    <glyph glyph-name="Obreve" unicode="&#x14e;" horiz-adv-x="757" 
d="M216 26.5q-67 36.5 -106 106t-39 162.5q0 16 4 56q14 110 64.5 191.5t127.5 124.5t167 43q83 0 150 -37t106 -106t39 -162q0 -18 -4 -56q-14 -110 -65 -191t-128 -124.5t-167 -43.5q-82 0 -149 36.5zM503 91q60 36 100.5 103t51.5 156q3 26 3 48q0 75 -29 131t-79.5 86
t-113.5 30h-10q-69 0 -129 -36t-100.5 -103t-51.5 -156q-3 -25 -3 -48q0 -75 29 -131t79.5 -86t113.5 -30h10q69 0 129 36zM406.5 785.5q-36.5 30.5 -36.5 82.5q0 6 2 22h55q-1 -5 -1 -13q0 -31 20.5 -49t55.5 -18t64.5 20t40.5 60h55q-8 -63 -54 -99t-107 -36
q-58 0 -94.5 30.5z" />
    <glyph glyph-name="obreve" unicode="&#x14f;" horiz-adv-x="560" 
d="M151 18q-49 28 -77.5 78.5t-28.5 116.5q0 24 2 37q9 76 44.5 135t90.5 92t120 33q59 0 107.5 -27.5t77 -78.5t28.5 -117q0 -24 -2 -37q-9 -76 -44 -135t-89.5 -92t-120.5 -33q-59 0 -108 28zM349.5 71.5q38.5 25.5 64.5 72t33 106.5q2 24 2 33q0 51 -19 90t-52 60t-74 21
h-10q-45 0 -83.5 -25.5t-64.5 -72t-33 -106.5q-2 -24 -2 -33q0 -51 19 -90t52 -60t74 -21h10q45 0 83.5 25.5zM258 590q-33 30 -33 83q0 9 2 27h50q-1 -5 -1 -14q0 -35 20 -55t58 -20q35 0 62.5 21.5t40.5 67.5h50q-17 -68 -59.5 -104t-99.5 -36t-90 30z" />
    <glyph glyph-name="Ohungarumlaut" unicode="&#x150;" horiz-adv-x="757" 
d="M216 26.5q-67 36.5 -106 106t-39 162.5q0 16 4 56q14 110 64.5 191.5t127.5 124.5t167 43q83 0 150 -37t106 -106t39 -162q0 -18 -4 -56q-14 -110 -65 -191t-128 -124.5t-167 -43.5q-82 0 -149 36.5zM503 91q60 36 100.5 103t51.5 156q3 26 3 48q0 75 -29 131t-79.5 86
t-113.5 30h-10q-69 0 -129 -36t-100.5 -103t-51.5 -156q-3 -25 -3 -48q0 -75 29 -131t79.5 -86t113.5 -30h10q69 0 129 36zM596 890h90l-83 -125h-60zM432 890h90l-83 -125h-60z" />
    <glyph glyph-name="ohungarumlaut" unicode="&#x151;" horiz-adv-x="560" 
d="M151 18q-49 28 -77.5 78.5t-28.5 116.5q0 24 2 37q9 76 44.5 135t90.5 92t120 33q59 0 107.5 -27.5t77 -78.5t28.5 -117q0 -24 -2 -37q-9 -76 -44 -135t-89.5 -92t-120.5 -33q-59 0 -108 28zM349.5 71.5q38.5 25.5 64.5 72t33 106.5q2 24 2 33q0 51 -19 90t-52 60t-74 21
h-10q-45 0 -83.5 -25.5t-64.5 -72t-33 -106.5q-2 -24 -2 -33q0 -51 19 -90t52 -60t74 -21h10q45 0 83.5 25.5zM305 700h82l-98 -130h-51zM458 700h82l-98 -130h-51z" />
    <glyph glyph-name="OE" unicode="&#x152;" horiz-adv-x="1173" 
d="M216 26.5q-67 36.5 -106 106t-39 162.5q0 16 4 56q14 110 64.5 191.5t127.5 124.5t167 43q91 0 159.5 -44.5t99.5 -125.5l34 160h490l-14 -65h-420l-51 -242h360l-14 -65h-360l-56 -263h430l-14 -65h-500l19 88q-46 -48 -105 -73t-127 -25q-82 0 -149 36.5zM503 91
q60 36 100.5 103t51.5 156q3 26 3 48q0 75 -29 131t-79.5 86t-113.5 30h-10q-69 0 -129 -36t-100.5 -103t-51.5 -156q-3 -25 -3 -48q0 -75 29 -131t79.5 -86t113.5 -30h10q69 0 129 36z" />
    <glyph glyph-name="oe" unicode="&#x153;" horiz-adv-x="934" 
d="M151 18q-49 28 -77.5 78.5t-28.5 116.5q0 24 2 37q9 76 44.5 135t90.5 92t120 33t117 -33t77 -91q34 59 87.5 91.5t112.5 32.5q62 0 106 -27.5t66.5 -74t22.5 -104.5q0 -34 -5 -59h-370q-2 -26 -2 -36q0 -81 39.5 -122.5t98.5 -41.5h6q50 0 87 26t57 72h66
q-24 -69 -81.5 -111t-135.5 -42q-64 0 -112.5 32t-70.5 92q-35 -59 -89 -91.5t-120 -32.5q-59 0 -108 28zM349.5 71.5q38.5 25.5 64.5 72t33 106.5q2 24 2 33q0 51 -19 90t-52 60t-74 21h-10q-45 0 -83.5 -25.5t-64.5 -72t-33 -106.5q-2 -24 -2 -33q0 -51 19 -90t52 -60
t74 -21h10q45 0 83.5 25.5zM828 317q0 60 -35.5 99t-91.5 39h-10q-53 0 -99.5 -36.5t-66.5 -118.5h302q1 6 1 17z" />
    <glyph glyph-name="Racute" unicode="&#x154;" horiz-adv-x="676" 
d="M192 700h257q93 0 147.5 -48.5t54.5 -126.5q0 -69 -35.5 -120.5t-97.5 -71.5q65 -16 65 -85q0 -16 -5 -43l-27 -121q-12 -55 -12 -84h-70q-1 18 9 66l33 155q3 12 3 23q0 51 -64 51h-274l-62 -295h-70zM534 403q47 43 47 114q0 118 -145 118h-187l-59 -275h225
q72 0 119 43zM439 890h90l-83 -125h-60z" />
    <glyph glyph-name="racute" unicode="&#x155;" horiz-adv-x="361" 
d="M133 500h60l-19 -96q28 49 75 75t119 26h26l-13 -60h-25q-170 0 -215 -210l-50 -235h-65zM317 700h82l-98 -130h-51z" />
    <glyph glyph-name="uni0156" unicode="&#x156;" horiz-adv-x="676" 
d="M192 700h257q93 0 147.5 -48.5t54.5 -126.5q0 -69 -35.5 -120.5t-97.5 -71.5q65 -16 65 -85q0 -16 -5 -43l-27 -121q-12 -55 -12 -84h-70q-1 18 9 66l33 155q3 12 3 23q0 51 -64 51h-274l-62 -295h-70zM534 403q47 43 47 114q0 118 -145 118h-187l-59 -275h225
q72 0 119 43zM198 -207h5q40 0 47 32l2 10h-30l16 75h65l-19 -88q-7 -30 -28 -47t-51 -17h-15z" />
    <glyph glyph-name="uni0157" unicode="&#x157;" horiz-adv-x="361" 
d="M133 500h60l-19 -96q28 49 75 75t119 26h26l-13 -60h-25q-170 0 -215 -210l-50 -235h-65zM-33 -207h5q40 0 47 32l2 10h-30l16 75h65l-19 -88q-7 -30 -28 -47t-51 -17h-15z" />
    <glyph glyph-name="Rcaron" unicode="&#x158;" horiz-adv-x="676" 
d="M192 700h257q93 0 147.5 -48.5t54.5 -126.5q0 -69 -35.5 -120.5t-97.5 -71.5q65 -16 65 -85q0 -16 -5 -43l-27 -121q-12 -55 -12 -84h-70q-1 18 9 66l33 155q3 12 3 23q0 51 -64 51h-274l-62 -295h-70zM534 403q47 43 47 114q0 118 -145 118h-187l-59 -275h225
q72 0 119 43zM278 890h66l82 -73l123 73h68l-150 -125h-90z" />
    <glyph glyph-name="rcaron" unicode="&#x159;" horiz-adv-x="361" 
d="M133 500h60l-19 -96q28 49 75 75t119 26h26l-13 -60h-25q-170 0 -215 -210l-50 -235h-65zM154 700h60l70 -73l105 73h60l-137 -130h-66z" />
    <glyph glyph-name="Sacute" unicode="&#x15a;" horiz-adv-x="608" 
d="M154.5 16.5q-61.5 26.5 -93.5 78.5t-26 125h68q-4 -80 49 -122.5t139 -42.5h10q74 0 122 36.5t48 96.5q0 44 -27.5 73t-104.5 55l-77 26q-73 25 -107.5 62.5t-34.5 97.5t32.5 107.5t89 74t125.5 26.5q70 0 125.5 -27.5t86 -76.5t29.5 -111h-70q-1 72 -49 111.5t-122 39.5
h-10q-46 0 -84.5 -18t-61 -49.5t-22.5 -70.5q0 -38 25 -60.5t76 -40.5l98 -34q81 -28 117.5 -73t36.5 -107q0 -59 -30.5 -105t-86.5 -72t-129 -26q-80 0 -141.5 26.5zM424 890h90l-83 -125h-60z" />
    <glyph glyph-name="sacute" unicode="&#x15b;" horiz-adv-x="468" 
d="M72.5 32.5q-52.5 42.5 -55.5 117.5h65q4 -53 40 -79t91 -26h8q48 0 79 24.5t31 65.5q0 35 -21 53.5t-65 29.5l-54 14q-111 29 -111 128q0 39 22 73.5t63 55.5t95 21q50 0 91.5 -18.5t65.5 -55t24 -86.5h-65q0 49 -34.5 77t-83.5 28h-8q-46 0 -76 -26.5t-30 -66.5
q0 -53 73 -72l51 -13q128 -33 128 -139q0 -68 -51 -108t-131 -40q-89 0 -141.5 42.5zM339 700h82l-98 -130h-51z" />
    <glyph glyph-name="Scircumflex" unicode="&#x15c;" horiz-adv-x="608" 
d="M154.5 16.5q-61.5 26.5 -93.5 78.5t-26 125h68q-4 -80 49 -122.5t139 -42.5h10q74 0 122 36.5t48 96.5q0 44 -27.5 73t-104.5 55l-77 26q-73 25 -107.5 62.5t-34.5 97.5t32.5 107.5t89 74t125.5 26.5q70 0 125.5 -27.5t86 -76.5t29.5 -111h-70q-1 72 -49 111.5t-122 39.5
h-10q-46 0 -84.5 -18t-61 -49.5t-22.5 -70.5q0 -38 25 -60.5t76 -40.5l98 -34q81 -28 117.5 -73t36.5 -107q0 -59 -30.5 -105t-86.5 -72t-129 -26q-80 0 -141.5 26.5zM375 890h90l99 -125h-65l-82 73l-123 -73h-69z" />
    <glyph glyph-name="scircumflex" unicode="&#x15d;" horiz-adv-x="468" 
d="M72.5 32.5q-52.5 42.5 -55.5 117.5h65q4 -53 40 -79t91 -26h8q48 0 79 24.5t31 65.5q0 35 -21 53.5t-65 29.5l-54 14q-111 29 -111 128q0 39 22 73.5t63 55.5t95 21q50 0 91.5 -18.5t65.5 -55t24 -86.5h-65q0 49 -34.5 77t-83.5 28h-8q-46 0 -76 -26.5t-30 -66.5
q0 -53 73 -72l51 -13q128 -33 128 -139q0 -68 -51 -108t-131 -40q-89 0 -141.5 42.5zM278 700h66l92 -130h-60l-70 73l-105 -73h-60z" />
    <glyph glyph-name="Scedilla" unicode="&#x15e;" horiz-adv-x="608" 
d="M182 -170h61q27 0 43 12t16 33q0 14 -13.5 23t-33.5 9h-22l19 85q-106 11 -165.5 70t-51.5 158h68q-4 -80 49 -122.5t139 -42.5h10q74 0 122 36.5t48 96.5q0 44 -27.5 73t-104.5 55l-77 26q-73 25 -107.5 62.5t-34.5 97.5t32.5 107.5t89 74t125.5 26.5q70 0 125.5 -27.5
t86 -76.5t29.5 -111h-70q-1 72 -49 111.5t-122 39.5h-10q-46 0 -84.5 -18t-61 -49.5t-22.5 -70.5q0 -38 25 -60.5t76 -40.5l98 -34q81 -28 117.5 -73t36.5 -107q0 -59 -30.5 -105t-86.5 -72t-128 -26l-12 -46q32 -5 49.5 -24t17.5 -45q0 -47 -33.5 -73.5t-89.5 -26.5h-59z
" />
    <glyph glyph-name="scedilla" unicode="&#x15f;" horiz-adv-x="468" 
d="M206 -10l-12 -46q32 -5 49.5 -24t17.5 -45q0 -47 -33.5 -73.5t-89.5 -26.5h-59l12 55h61q27 0 43 12t16 33q0 14 -13.5 23t-33.5 9h-22l19 87q-66 12 -104 52.5t-40 103.5h65q4 -53 40 -79t91 -26h8q48 0 79 24.5t31 65.5q0 35 -21 53.5t-65 29.5l-54 14
q-111 29 -111 128q0 39 22 73.5t63 55.5t95 21q50 0 91.5 -18.5t65.5 -55t24 -86.5h-65q0 49 -34.5 77t-83.5 28h-8q-46 0 -76 -26.5t-30 -66.5q0 -53 73 -72l51 -13q128 -33 128 -139q0 -68 -51 -108t-131 -40h-8z" />
    <glyph glyph-name="Scaron" unicode="&#x160;" horiz-adv-x="608" 
d="M154.5 16.5q-61.5 26.5 -93.5 78.5t-26 125h68q-4 -80 49 -122.5t139 -42.5h10q74 0 122 36.5t48 96.5q0 44 -27.5 73t-104.5 55l-77 26q-73 25 -107.5 62.5t-34.5 97.5t32.5 107.5t89 74t125.5 26.5q70 0 125.5 -27.5t86 -76.5t29.5 -111h-70q-1 72 -49 111.5t-122 39.5
h-10q-46 0 -84.5 -18t-61 -49.5t-22.5 -70.5q0 -38 25 -60.5t76 -40.5l98 -34q81 -28 117.5 -73t36.5 -107q0 -59 -30.5 -105t-86.5 -72t-129 -26q-80 0 -141.5 26.5zM263 890h66l82 -73l123 73h68l-150 -125h-90z" />
    <glyph glyph-name="scaron" unicode="&#x161;" horiz-adv-x="468" 
d="M72.5 32.5q-52.5 42.5 -55.5 117.5h65q4 -53 40 -79t91 -26h8q48 0 79 24.5t31 65.5q0 35 -21 53.5t-65 29.5l-54 14q-111 29 -111 128q0 39 22 73.5t63 55.5t95 21q50 0 91.5 -18.5t65.5 -55t24 -86.5h-65q0 49 -34.5 77t-83.5 28h-8q-46 0 -76 -26.5t-30 -66.5
q0 -53 73 -72l51 -13q128 -33 128 -139q0 -68 -51 -108t-131 -40q-89 0 -141.5 42.5zM176 700h60l70 -73l105 73h60l-137 -130h-66z" />
    <glyph glyph-name="uni0162" unicode="&#x162;" horiz-adv-x="593" 
d="M344 635h-251l14 65h570l-14 -65h-249l-135 -635h-12l-14 -56q32 -5 49.5 -24t17.5 -45q0 -47 -33.5 -73.5t-89.5 -26.5h-59l12 55h61q27 0 43 12t16 33q0 14 -13.5 23t-33.5 9h-22l21 93h-13z" />
    <glyph glyph-name="uni0163" unicode="&#x163;" horiz-adv-x="371" 
d="M91 -170h61q27 0 43 12t16 33q0 14 -13.5 23t-33.5 9h-22l21 96q-32 7 -47.5 27.5t-15.5 51.5q0 19 4 36l68 327h-118l11 55h120l35 162h65l-35 -162h128l-11 -55h-129l-72 -340q-2 -10 -2 -14q0 -18 12 -27t33 -9h101l-12 -55h-90l-14 -56q32 -5 49.5 -24t17.5 -45
q0 -47 -33.5 -73.5t-89.5 -26.5h-59z" />
    <glyph glyph-name="Tcaron" unicode="&#x164;" horiz-adv-x="593" 
d="M344 635h-251l14 65h570l-14 -65h-249l-135 -635h-70zM264 890h66l82 -73l123 73h68l-150 -125h-90z" />
    <glyph glyph-name="tcaron" unicode="&#x165;" horiz-adv-x="371" 
d="M124.5 21.5q-24.5 21.5 -24.5 61.5q0 18 4 35l68 327h-118l11 55h120l35 162h65l-35 -162h128l-11 -55h-129l-72 -340q-2 -10 -2 -14q0 -18 12 -27t33 -9h101l-12 -55h-99q-50 0 -74.5 21.5zM338 575h5q45 0 54 40l2 10h-30l16 75h65l-18 -85q-16 -75 -91 -75h-10z" />
    <glyph glyph-name="Tbar" unicode="&#x166;" horiz-adv-x="616" 
d="M290 328h-185l13 60h184l53 247h-251l14 65h570l-14 -65h-249l-53 -247h185l-13 -60h-184l-70 -328h-70z" />
    <glyph glyph-name="tbar" unicode="&#x167;" horiz-adv-x="382" 
d="M135.5 21.5q-24.5 21.5 -24.5 61.5q0 18 4 35l31 149h-119l11 50h118l27 128h-118l11 55h120l35 162h65l-35 -162h128l-11 -55h-129l-27 -128h128l-11 -50h-128l-34 -162q-2 -10 -2 -14q0 -18 12 -27t33 -9h101l-12 -55h-99q-50 0 -74.5 21.5z" />
    <glyph glyph-name="Utilde" unicode="&#x168;" horiz-adv-x="689" 
d="M144.5 46q-58.5 56 -58.5 156q0 42 10 85l88 413h70l-90 -422q-9 -40 -9 -75q0 -72 39 -110t117 -38h10q86 0 137 48t72 143l97 454h70l-102 -477q-24 -113 -94.5 -173t-189.5 -60q-108 0 -166.5 56zM464 783l-36 28q-16 12 -26.5 18t-21.5 6q-17 0 -26 -14t-15 -51h-55
l3 14q12 57 32.5 81.5t59.5 24.5q21 0 37 -7t33 -19l38 -28q29 -21 41 -21q19 0 30 15.5t17 49.5h55l-4 -21q-8 -46 -32.5 -72.5t-60.5 -26.5q-40 0 -69 23z" />
    <glyph glyph-name="utilde" unicode="&#x169;" horiz-adv-x="550" 
d="M96.5 31q-38.5 41 -38.5 112q0 30 8 70l61 287h66l-65 -306q-5 -28 -5 -47q0 -47 24 -73.5t71 -26.5h8q62 0 110 52.5t69 151.5l53 249h65l-106 -500h-65l14 64q-59 -74 -155 -74q-76 0 -114.5 41zM397 567.5q-16 7.5 -42 24.5l-37 25q-13 9 -23.5 13.5t-23.5 4.5
q-20 0 -30.5 -15t-17.5 -50h-50l4 19q8 42 28.5 71.5t55.5 29.5q21 0 38 -7t42 -24l36 -24q17 -11 27 -15.5t20 -4.5q20 0 30.5 15t18.5 50h50l-4 -18q-9 -43 -30.5 -72.5t-58.5 -29.5q-17 0 -33 7.5z" />
    <glyph glyph-name="Umacron" unicode="&#x16a;" horiz-adv-x="689" 
d="M144.5 46q-58.5 56 -58.5 156q0 42 10 85l88 413h70l-90 -422q-9 -40 -9 -75q0 -72 39 -110t117 -38h10q86 0 137 48t72 143l97 454h70l-102 -477q-24 -113 -94.5 -173t-189.5 -60q-108 0 -166.5 56zM319 835h276l-11 -55h-276z" />
    <glyph glyph-name="umacron" unicode="&#x16b;" horiz-adv-x="550" 
d="M96.5 31q-38.5 41 -38.5 112q0 30 8 70l61 287h66l-65 -306q-5 -28 -5 -47q0 -47 24 -73.5t71 -26.5h8q62 0 110 52.5t69 151.5l53 249h65l-106 -500h-65l14 64q-59 -74 -155 -74q-76 0 -114.5 41zM203 645h285l-12 -55h-285z" />
    <glyph glyph-name="Ubreve" unicode="&#x16c;" horiz-adv-x="689" 
d="M144.5 46q-58.5 56 -58.5 156q0 42 10 85l88 413h70l-90 -422q-9 -40 -9 -75q0 -72 39 -110t117 -38h10q86 0 137 48t72 143l97 454h70l-102 -477q-24 -113 -94.5 -173t-189.5 -60q-108 0 -166.5 56zM360.5 785.5q-36.5 30.5 -36.5 82.5q0 6 2 22h55q-1 -5 -1 -13
q0 -31 20.5 -49t55.5 -18t64.5 20t40.5 60h55q-8 -63 -54 -99t-107 -36q-58 0 -94.5 30.5z" />
    <glyph glyph-name="ubreve" unicode="&#x16d;" horiz-adv-x="550" 
d="M96.5 31q-38.5 41 -38.5 112q0 30 8 70l61 287h66l-65 -306q-5 -28 -5 -47q0 -47 24 -73.5t71 -26.5h8q62 0 110 52.5t69 151.5l53 249h65l-106 -500h-65l14 64q-59 -74 -155 -74q-76 0 -114.5 41zM253 590q-33 30 -33 83q0 9 2 27h50q-1 -5 -1 -14q0 -35 20 -55t58 -20
q35 0 62.5 21.5t40.5 67.5h50q-17 -68 -59.5 -104t-99.5 -36t-90 30z" />
    <glyph glyph-name="Uring" unicode="&#x16e;" horiz-adv-x="689" 
d="M144.5 46q-58.5 56 -58.5 156q0 42 10 85l88 413h70l-90 -422q-9 -40 -9 -75q0 -72 39 -110t117 -38h10q86 0 137 48t72 143l97 454h70l-102 -477q-24 -113 -94.5 -173t-189.5 -60q-108 0 -166.5 56zM397.5 781.5q-23.5 22.5 -23.5 56.5q0 33 24 56t55 23t55 -23t24 -56
q0 -34 -23.5 -56.5t-55.5 -22.5t-55.5 22.5zM477 814q10 10 10 24t-10 24t-23 10t-23.5 -10t-10.5 -24q0 -13 10.5 -23.5t23.5 -10.5t23 10z" />
    <glyph glyph-name="uring" unicode="&#x16f;" horiz-adv-x="550" 
d="M96.5 31q-38.5 41 -38.5 112q0 30 8 70l61 287h66l-65 -306q-5 -28 -5 -47q0 -47 24 -73.5t71 -26.5h8q62 0 110 52.5t69 151.5l53 249h65l-106 -500h-65l14 64q-59 -74 -155 -74q-76 0 -114.5 41zM296 589q-25 24 -25 60q0 35 25 59.5t59 24.5t59 -24.5t25 -59.5
q0 -36 -25 -60t-59 -24t-59 24zM386.5 617q12.5 13 12.5 32t-12.5 32t-30.5 13t-31 -13t-13 -32t13 -32t31 -13t30.5 13z" />
    <glyph glyph-name="Uhungarumlaut" unicode="&#x170;" horiz-adv-x="689" 
d="M144.5 46q-58.5 56 -58.5 156q0 42 10 85l88 413h70l-90 -422q-9 -40 -9 -75q0 -72 39 -110t117 -38h10q86 0 137 48t72 143l97 454h70l-102 -477q-24 -113 -94.5 -173t-189.5 -60q-108 0 -166.5 56zM550 890h90l-83 -125h-60zM386 890h90l-83 -125h-60z" />
    <glyph glyph-name="uhungarumlaut" unicode="&#x171;" horiz-adv-x="550" 
d="M96.5 31q-38.5 41 -38.5 112q0 30 8 70l61 287h66l-65 -306q-5 -28 -5 -47q0 -47 24 -73.5t71 -26.5h8q62 0 110 52.5t69 151.5l53 249h65l-106 -500h-65l14 64q-59 -74 -155 -74q-76 0 -114.5 41zM300 700h82l-98 -130h-51zM453 700h82l-98 -130h-51z" />
    <glyph glyph-name="Uogonek" unicode="&#x172;" horiz-adv-x="689" 
d="M234 -118q0 31 22.5 59.5t55.5 48.5h-1q-108 0 -166.5 56t-58.5 156q0 42 10 85l88 413h70l-90 -422q-9 -40 -9 -75q0 -72 39 -110t117 -38h10q86 0 137 48t72 143l97 454h70l-102 -477q-18 -85 -60 -138t-118 -82q-118 -44 -118 -104q0 -20 11.5 -29.5t37.5 -9.5h36
l-11 -55h-41q-98 0 -98 77z" />
    <glyph glyph-name="uogonek" unicode="&#x173;" horiz-adv-x="550" 
d="M96.5 31q-38.5 41 -38.5 112q0 30 8 70l61 287h66l-65 -306q-5 -28 -5 -47q0 -47 24 -73.5t71 -26.5h8q62 0 110 52.5t69 151.5l53 249h65l-106 -500h-1q-43 -19 -72 -46t-29 -55q0 -20 11.5 -29.5t37.5 -9.5h36l-11 -55h-41q-98 0 -98 77q0 37 31 70t72 51l13 61
q-59 -74 -155 -74q-76 0 -114.5 41z" />
    <glyph glyph-name="Wcircumflex" unicode="&#x174;" horiz-adv-x="906" 
d="M115 700h68l21 -646l291 646h104l21 -642l289 642h73l-321 -700h-103l-22 627l-287 -627h-109zM535 890h90l99 -125h-65l-82 73l-123 -73h-69z" />
    <glyph glyph-name="wcircumflex" unicode="&#x175;" horiz-adv-x="760" 
d="M73 500h63l38 -441l214 441h79l32 -440l226 440h68l-262 -500h-87l-30 421l-207 -421h-87zM426 700h66l92 -130h-60l-70 73l-105 -73h-60z" />
    <glyph glyph-name="Ycircumflex" unicode="&#x176;" horiz-adv-x="620" 
d="M283 284l-180 416h73l152 -351l294 351h86l-356 -418l-60 -282h-70zM388 890h90l99 -125h-65l-82 73l-123 -73h-69z" />
    <glyph glyph-name="ycircumflex" unicode="&#x177;" horiz-adv-x="508" 
d="M-53 -100h83q39 0 64 19.5t54 65.5l30 48l-118 467h66l97 -394l247 394h73l-340 -542q-39 -62 -76 -87.5t-91 -25.5h-101zM296 700h66l92 -130h-60l-70 73l-105 -73h-60z" />
    <glyph glyph-name="Ydieresis" unicode="&#x178;" horiz-adv-x="620" 
d="M283 284l-180 416h73l152 -351l294 351h86l-356 -418l-60 -282h-70zM486 787q-12 12 -12 29q0 20 15.5 36t36.5 16q17 0 29 -12.5t12 -29.5q0 -20 -15.5 -35.5t-35.5 -15.5q-18 0 -30 12zM297 787q-12 12 -12 29q0 20 15.5 36t36.5 16q17 0 29 -12.5t12 -29.5
q0 -20 -15.5 -35.5t-35.5 -15.5q-18 0 -30 12z" />
    <glyph glyph-name="Zacute" unicode="&#x179;" horiz-adv-x="584" 
d="M-2 74l537 561h-407l13 65h495l-14 -69l-542 -566h431l-13 -65h-515zM424 890h90l-83 -125h-60z" />
    <glyph glyph-name="zacute" unicode="&#x17a;" horiz-adv-x="467" 
d="M-1 61l385 384h-299l12 55h375l-12 -59l-388 -386h321l-12 -55h-395zM344 700h82l-98 -130h-51z" />
    <glyph glyph-name="Zdotaccent" unicode="&#x17b;" horiz-adv-x="584" 
d="M-2 74l537 561h-407l13 65h495l-14 -69l-542 -566h431l-13 -65h-515zM377 786q-12 12 -12 30q0 21 15.5 37t37.5 16q17 0 29.5 -12.5t12.5 -30.5q0 -21 -16 -36.5t-36 -15.5q-19 0 -31 12z" />
    <glyph glyph-name="zdotaccent" unicode="&#x17c;" horiz-adv-x="467" 
d="M-1 61l385 384h-299l12 55h375l-12 -59l-388 -386h321l-12 -55h-395zM281 615q-12 12 -12 30q0 21 15.5 37t36.5 16q19 0 31 -12.5t12 -30.5q0 -21 -15 -36.5t-37 -15.5q-19 0 -31 12z" />
    <glyph glyph-name="Zcaron" unicode="&#x17d;" horiz-adv-x="584" 
d="M-2 74l537 561h-407l13 65h495l-14 -69l-542 -566h431l-13 -65h-515zM263 890h66l82 -73l123 73h68l-150 -125h-90z" />
    <glyph glyph-name="zcaron" unicode="&#x17e;" horiz-adv-x="467" 
d="M-1 61l385 384h-299l12 55h375l-12 -59l-388 -386h321l-12 -55h-395zM181 700h60l70 -73l105 73h60l-137 -130h-66z" />
    <glyph glyph-name="florin" unicode="&#x192;" horiz-adv-x="396" 
d="M-59 -135h38q54 0 83 27.5t44 92.5l92 400h-141l12 60h143l17 75q21 91 70.5 135.5t124.5 44.5h51l-14 -65h-41q-96 0 -123 -116l-17 -74h130l-12 -60h-132l-92 -404q-23 -98 -72.5 -139.5t-133.5 -41.5h-41z" />
    <glyph glyph-name="uni01E2" unicode="&#x1e2;" horiz-adv-x="964" 
d="M512 700h456l-14 -65h-353l-19 -242h307l-14 -65h-298l-20 -263h352l-14 -65h-407l15 193h-327l-157 -193h-85zM509 258l30 383l-310 -383h280zM618 835h276l-11 -55h-276z" />
    <glyph glyph-name="uni01E3" unicode="&#x1e3;" horiz-adv-x="889" 
d="M75.5 28q-44.5 38 -44.5 105q0 74 55.5 120.5t154.5 46.5h180l4 20q3 15 3 28q0 51 -38.5 79t-93.5 28h-8q-55 0 -93 -25.5t-47 -69.5h-62q11 67 66 108.5t144 41.5q57 0 105.5 -24t69.5 -71q34 47 81 71t99 24q63 0 107.5 -28t66.5 -75t22 -105q0 -28 -6 -57h-370
q-2 -26 -2 -36q0 -81 39.5 -122.5t98.5 -41.5h6q50 0 87 26t57 72h66q-24 -69 -81.5 -111t-135.5 -42q-64 0 -112.5 37t-68.5 104q-40 -75 -102 -108t-131 -33q-72 0 -116.5 38zM287 64.5q41 19.5 71 55t40 80.5l10 45h-162q-71 0 -112 -28.5t-41 -78.5q0 -42 28 -67.5
t76 -25.5h8q41 0 82 19.5zM783 317q0 60 -35.5 99t-91.5 39h-10q-53 0 -99.5 -36.5t-66.5 -118.5h302q1 6 1 17zM364 645h285l-12 -55h-285z" />
    <glyph glyph-name="Aringacute" unicode="&#x1fa;" horiz-adv-x="672" 
d="M388 700h90l131 -700h-68l-36 193h-356l-118 -193h-76zM493 258l-71 380l-233 -380h304zM405.5 769q-20.5 20 -20.5 49t20.5 49t48.5 20t48.5 -20t20.5 -49t-20.5 -49t-48.5 -20t-48.5 20zM471 801q7 7 7 17t-7 17t-16 7q-10 0 -17 -7t-7 -17t7 -17t17 -7q9 0 16 7z
M491 1006h70l-60 -88h-49z" />
    <glyph glyph-name="aringacute" unicode="&#x1fb;" horiz-adv-x="545" 
d="M75.5 28q-44.5 38 -44.5 105q0 73 55.5 118.5t154.5 45.5h180l4 23q2 9 2 26q0 52 -38 80.5t-93 28.5h-8q-55 0 -93 -25.5t-47 -69.5h-62q11 67 66 108.5t144 41.5q80 0 135.5 -40t55.5 -119q0 -23 -6 -50l-41 -191q-15 -70 -16 -110h-59q0 30 7 70q-33 -43 -80 -61.5
t-100 -18.5q-72 0 -116.5 38zM287 64.5q41 19.5 71 55t40 80.5l10 45h-162q-71 0 -112 -28.5t-41 -78.5q0 -42 28 -67.5t76 -25.5h8q41 0 82 19.5zM287 585q-25 24 -25 60q0 35 25 59.5t59 24.5t59 -24.5t25 -59.5q0 -36 -25 -60t-59 -24t-59 24zM377.5 613.5
q12.5 12.5 12.5 31.5t-12.5 31.5t-30.5 12.5t-31 -12.5t-13 -31.5t13 -31.5t31 -12.5t30.5 12.5zM403 896h80l-88 -130h-49z" />
    <glyph glyph-name="AEacute" unicode="&#x1fc;" horiz-adv-x="964" 
d="M512 700h456l-14 -65h-353l-19 -242h307l-14 -65h-298l-20 -263h352l-14 -65h-407l15 193h-327l-157 -193h-85zM509 258l30 383l-310 -383h280zM767 890h90l-83 -125h-60z" />
    <glyph glyph-name="aeacute" unicode="&#x1fd;" horiz-adv-x="889" 
d="M75.5 28q-44.5 38 -44.5 105q0 74 55.5 120.5t154.5 46.5h180l4 20q3 15 3 28q0 51 -38.5 79t-93.5 28h-8q-55 0 -93 -25.5t-47 -69.5h-62q11 67 66 108.5t144 41.5q57 0 105.5 -24t69.5 -71q34 47 81 71t99 24q63 0 107.5 -28t66.5 -75t22 -105q0 -28 -6 -57h-370
q-2 -26 -2 -36q0 -81 39.5 -122.5t98.5 -41.5h6q50 0 87 26t57 72h66q-24 -69 -81.5 -111t-135.5 -42q-64 0 -112.5 37t-68.5 104q-40 -75 -102 -108t-131 -33q-72 0 -116.5 38zM287 64.5q41 19.5 71 55t40 80.5l10 45h-162q-71 0 -112 -28.5t-41 -78.5q0 -42 28 -67.5
t76 -25.5h8q41 0 82 19.5zM783 317q0 60 -35.5 99t-91.5 39h-10q-53 0 -99.5 -36.5t-66.5 -118.5h302q1 6 1 17zM546 700h82l-98 -130h-51z" />
    <glyph glyph-name="Oslashacute" unicode="&#x1fe;" horiz-adv-x="759" 
d="M250 12.5q-55 22.5 -95 63.5l-83 -77l-44 47l88 81q-42 72 -42 168q0 18 4 56q14 110 64.5 191.5t127.5 124.5t167 43q64 0 119.5 -22t95.5 -65l82 76l44 -48l-87 -81q41 -71 41 -165q0 -18 -4 -56q-14 -110 -65 -191t-128 -124.5t-167 -43.5q-63 0 -118 22.5zM506 91
q60 36 100.5 103t51.5 156q3 24 3 47q0 68 -25 123l-429 -397q29 -32 70.5 -50t89.5 -18h10q69 0 129 36zM145 303q0 -70 26 -125l429 397q-30 34 -71.5 52t-89.5 18h-10q-69 0 -129 -36t-100.5 -103t-51.5 -156q-3 -24 -3 -47zM492 890h90l-83 -125h-60z" />
    <glyph glyph-name="oslashacute" unicode="&#x1ff;" horiz-adv-x="562" 
d="M179 6q-39 16 -68 46l-64 -61l-35 38l67 65q-30 54 -30 121q0 11 2 35q9 76 44.5 135t90.5 92t120 33q44 0 82.5 -15t67.5 -44l66 62l36 -37l-70 -67q31 -51 31 -121q0 -25 -2 -38q-9 -76 -44 -135t-89.5 -92t-120.5 -33q-45 0 -84 16zM353.5 71.5q38.5 25.5 64.5 72
t33 106.5q2 24 2 35q0 42 -14 78l-283 -269q19 -23 46 -35.5t58 -12.5h10q45 0 83.5 25.5zM115 216q0 -44 13 -76l283 268q-20 22 -46.5 34t-56.5 12h-10q-45 0 -83.5 -25.5t-64.5 -72t-33 -106.5q-2 -24 -2 -34zM379 700h82l-98 -130h-51z" />
    <glyph glyph-name="uni0218" unicode="&#x218;" horiz-adv-x="608" 
d="M154.5 16.5q-61.5 26.5 -93.5 78.5t-26 125h68q-4 -80 49 -122.5t139 -42.5h10q74 0 122 36.5t48 96.5q0 44 -27.5 73t-104.5 55l-77 26q-73 25 -107.5 62.5t-34.5 97.5t32.5 107.5t89 74t125.5 26.5q70 0 125.5 -27.5t86 -76.5t29.5 -111h-70q-1 72 -49 111.5t-122 39.5
h-10q-46 0 -84.5 -18t-61 -49.5t-22.5 -70.5q0 -38 25 -60.5t76 -40.5l98 -34q81 -28 117.5 -73t36.5 -107q0 -59 -30.5 -105t-86.5 -72t-129 -26q-80 0 -141.5 26.5zM184 -207h5q40 0 47 32l2 10h-30l16 75h65l-19 -88q-7 -30 -28 -47t-51 -17h-15z" />
    <glyph glyph-name="uni0219" unicode="&#x219;" horiz-adv-x="468" 
d="M72.5 32.5q-52.5 42.5 -55.5 117.5h65q4 -53 40 -79t91 -26h8q48 0 79 24.5t31 65.5q0 35 -21 53.5t-65 29.5l-54 14q-111 29 -111 128q0 39 22 73.5t63 55.5t95 21q50 0 91.5 -18.5t65.5 -55t24 -86.5h-65q0 49 -34.5 77t-83.5 28h-8q-46 0 -76 -26.5t-30 -66.5
q0 -53 73 -72l51 -13q128 -33 128 -139q0 -68 -51 -108t-131 -40q-89 0 -141.5 42.5zM93 -207h5q40 0 47 32l2 10h-30l16 75h65l-19 -88q-7 -30 -28 -47t-51 -17h-15z" />
    <glyph glyph-name="uni021A" unicode="&#x21a;" horiz-adv-x="593" 
d="M344 635h-251l14 65h570l-14 -65h-249l-135 -635h-70zM152 -207h5q40 0 47 32l2 10h-30l16 75h65l-19 -88q-7 -30 -28 -47t-51 -17h-15z" />
    <glyph glyph-name="uni021B" unicode="&#x21b;" horiz-adv-x="371" 
d="M124.5 21.5q-24.5 21.5 -24.5 61.5q0 18 4 35l68 327h-118l11 55h120l35 162h65l-35 -162h128l-11 -55h-129l-72 -340q-2 -10 -2 -14q0 -18 12 -27t33 -9h101l-12 -55h-99q-50 0 -74.5 21.5zM93 -207h5q40 0 47 32l2 10h-30l16 75h65l-19 -88q-7 -30 -28 -47t-51 -17h-15
z" />
    <glyph glyph-name="uni0226" unicode="&#x226;" horiz-adv-x="672" 
d="M388 700h90l131 -700h-68l-36 193h-356l-118 -193h-76zM493 258l-71 380l-233 -380h304zM424 786q-12 12 -12 30q0 21 15.5 37t37.5 16q17 0 29.5 -12.5t12.5 -30.5q0 -21 -16 -36.5t-36 -15.5q-19 0 -31 12z" />
    <glyph glyph-name="uni0227" unicode="&#x227;" horiz-adv-x="545" 
d="M75.5 28q-44.5 38 -44.5 105q0 73 55.5 118.5t154.5 45.5h180l4 23q2 9 2 26q0 52 -38 80.5t-93 28.5h-8q-55 0 -93 -25.5t-47 -69.5h-62q11 67 66 108.5t144 41.5q80 0 135.5 -40t55.5 -119q0 -23 -6 -50l-41 -191q-15 -70 -16 -110h-59q0 30 7 70q-33 -43 -80 -61.5
t-100 -18.5q-72 0 -116.5 38zM287 64.5q41 19.5 71 55t40 80.5l10 45h-162q-71 0 -112 -28.5t-41 -78.5q0 -42 28 -67.5t76 -25.5h8q41 0 82 19.5zM313 615q-12 12 -12 30q0 21 15.5 37t36.5 16q19 0 31 -12.5t12 -30.5q0 -21 -15 -36.5t-37 -15.5q-19 0 -31 12z" />
    <glyph glyph-name="uni0232" unicode="&#x232;" horiz-adv-x="620" 
d="M283 284l-180 416h73l152 -351l294 351h86l-356 -418l-60 -282h-70zM288 835h276l-11 -55h-276z" />
    <glyph glyph-name="uni0233" unicode="&#x233;" horiz-adv-x="508" 
d="M-53 -100h83q39 0 64 19.5t54 65.5l30 48l-118 467h66l97 -394l247 394h73l-340 -542q-39 -62 -76 -87.5t-91 -25.5h-101zM175 645h285l-12 -55h-285z" />
    <glyph glyph-name="uni0237" unicode="&#x237;" horiz-adv-x="225" 
d="M-147 -110h94q31 0 46.5 14t22.5 46l117 550h65l-118 -553q-13 -58 -43 -85t-91 -27h-105z" />
    <glyph glyph-name="uni02BC" unicode="&#x2bc;" horiz-adv-x="244" 
d="M103 525h30q30 0 47.5 14t24.5 44l4 17h-55l21 100h100l-26 -120q-11 -50 -39.5 -72.5t-75.5 -22.5h-40z" />
    <glyph glyph-name="circumflex" unicode="&#x2c6;" horiz-adv-x="355" 
d="M235 700h66l92 -130h-60l-70 73l-105 -73h-60z" />
    <glyph glyph-name="caron" unicode="&#x2c7;" horiz-adv-x="355" 
d="M126 700h60l70 -73l105 73h60l-137 -130h-66z" />
    <glyph glyph-name="breve" unicode="&#x2d8;" horiz-adv-x="340" 
d="M157 590q-33 30 -33 83q0 9 2 27h50q-1 -5 -1 -14q0 -35 20 -55t58 -20q35 0 62.5 21.5t40.5 67.5h50q-17 -68 -59.5 -104t-99.5 -36t-90 30z" />
    <glyph glyph-name="dotaccent" unicode="&#x2d9;" horiz-adv-x="139" 
d="M119 615q-12 12 -12 30q0 21 15.5 37t36.5 16q19 0 31 -12.5t12 -30.5q0 -21 -15 -36.5t-37 -15.5q-19 0 -31 12z" />
    <glyph glyph-name="ring" unicode="&#x2da;" horiz-adv-x="232" 
d="M141 589q-25 24 -25 60q0 35 25 59.5t59 24.5t59 -24.5t25 -59.5q0 -36 -25 -60t-59 -24t-59 24zM231.5 617q12.5 13 12.5 32t-12.5 32t-30.5 13t-31 -13t-13 -32t13 -32t31 -13t30.5 13z" />
    <glyph glyph-name="ogonek" unicode="&#x2db;" horiz-adv-x="218" 
d="M-46 -118q0 41 38 77t82 50l46 -9q-43 -19 -72 -46t-29 -55q0 -20 11.5 -29.5t37.5 -9.5h36l-11 -55h-41q-98 0 -98 77z" />
    <glyph glyph-name="tilde" unicode="&#x2dc;" horiz-adv-x="387" 
d="M322 567.5q-16 7.5 -42 24.5l-37 25q-13 9 -23.5 13.5t-23.5 4.5q-20 0 -30.5 -15t-17.5 -50h-50l4 19q8 42 28.5 71.5t55.5 29.5q21 0 38 -7t42 -24l36 -24q17 -11 27 -15.5t20 -4.5q20 0 30.5 15t18.5 50h50l-4 -18q-9 -43 -30.5 -72.5t-58.5 -29.5q-17 0 -33 7.5z" />
    <glyph glyph-name="hungarumlaut" unicode="&#x2dd;" horiz-adv-x="328" 
d="M161 700h82l-98 -130h-51zM314 700h82l-98 -130h-51z" />
    <glyph glyph-name="gravecomb" unicode="&#x300;" horiz-adv-x="0" 
d="M136 700h78l47 -130h-47z" />
    <glyph glyph-name="acutecomb" unicode="&#x301;" horiz-adv-x="0" 
d="M158 700h82l-98 -130h-51z" />
    <glyph glyph-name="uni0302" unicode="&#x302;" horiz-adv-x="0" 
d="M235 700h66l92 -130h-60l-70 73l-105 -73h-60z" />
    <glyph glyph-name="tildecomb" unicode="&#x303;" horiz-adv-x="0" 
d="M322 567.5q-16 7.5 -42 24.5l-37 25q-13 9 -23.5 13.5t-23.5 4.5q-20 0 -30.5 -15t-17.5 -50h-50l4 19q8 42 28.5 71.5t55.5 29.5q21 0 38 -7t42 -24l36 -24q17 -11 27 -15.5t20 -4.5q20 0 30.5 15t18.5 50h50l-4 -18q-9 -43 -30.5 -72.5t-58.5 -29.5q-17 0 -33 7.5z" />
    <glyph glyph-name="uni0304" unicode="&#x304;" horiz-adv-x="0" 
d="M116 645h285l-12 -55h-285z" />
    <glyph glyph-name="uni0306" unicode="&#x306;" horiz-adv-x="0" 
d="M157 590q-33 30 -33 83q0 9 2 27h50q-1 -5 -1 -14q0 -35 20 -55t58 -20q35 0 62.5 21.5t40.5 67.5h50q-17 -68 -59.5 -104t-99.5 -36t-90 30z" />
    <glyph glyph-name="uni0307" unicode="&#x307;" horiz-adv-x="0" 
d="M119 615q-12 12 -12 30q0 21 15.5 37t36.5 16q19 0 31 -12.5t12 -30.5q0 -21 -15 -36.5t-37 -15.5q-19 0 -31 12z" />
    <glyph glyph-name="uni0308" unicode="&#x308;" horiz-adv-x="0" 
d="M301.5 598.5q-10.5 10.5 -10.5 26.5q0 19 13.5 32.5t32.5 13.5q16 0 26.5 -11t10.5 -27q0 -18 -13.5 -31.5t-31.5 -13.5q-17 0 -27.5 10.5zM118.5 598.5q-10.5 10.5 -10.5 26.5q0 19 13.5 32.5t32.5 13.5q16 0 26.5 -11t10.5 -27q0 -18 -13.5 -31.5t-31.5 -13.5
q-17 0 -27.5 10.5z" />
    <glyph glyph-name="uni030A" unicode="&#x30a;" horiz-adv-x="0" 
d="M141 589q-25 24 -25 60q0 35 25 59.5t59 24.5t59 -24.5t25 -59.5q0 -36 -25 -60t-59 -24t-59 24zM231.5 617q12.5 13 12.5 32t-12.5 32t-30.5 13t-31 -13t-13 -32t13 -32t31 -13t30.5 13z" />
    <glyph glyph-name="uni030B" unicode="&#x30b;" horiz-adv-x="0" 
d="M161 700h82l-98 -130h-51zM314 700h82l-98 -130h-51z" />
    <glyph glyph-name="uni030C" unicode="&#x30c;" horiz-adv-x="0" 
d="M126 700h60l70 -73l105 73h60l-137 -130h-66z" />
    <glyph glyph-name="uni0312" unicode="&#x312;" horiz-adv-x="0" 
d="M169.5 735q20.5 22 60.5 22h12l-7 -35h-8q-22 0 -33.5 -11t-17.5 -35l-1 -4h30l-16 -75h-65l15 69q10 47 30.5 69z" />
    <glyph glyph-name="dotbelowcomb" unicode="&#x323;" horiz-adv-x="0" 
d="M-49 -160.5q-11 10.5 -11 27.5q0 20 14.5 34.5t34.5 14.5q16 0 27 -11.5t11 -28.5q0 -19 -15 -33t-33 -14q-17 0 -28 10.5z" />
    <glyph glyph-name="uni0326" unicode="&#x326;" horiz-adv-x="0" 
d="M-73 -207h5q40 0 47 32l2 10h-30l16 75h65l-19 -88q-7 -30 -28 -47t-51 -17h-15z" />
    <glyph glyph-name="uni0327" unicode="&#x327;" horiz-adv-x="0" 
d="M-59 -170h61q27 0 43 12t16 33q0 14 -13.5 23t-33.5 9h-22l24 108h46l-18 -71q32 -5 49.5 -24t17.5 -45q0 -47 -33.5 -73.5t-89.5 -26.5h-59z" />
    <glyph glyph-name="uni0328" unicode="&#x328;" horiz-adv-x="0" 
d="M-46 -118q0 41 38 77t82 50l46 -9q-43 -19 -72 -46t-29 -55q0 -20 11.5 -29.5t37.5 -9.5h36l-11 -55h-41q-98 0 -98 77z" />
    <glyph glyph-name="uni0335" unicode="&#x335;" horiz-adv-x="0" 
d="M64 410h439l-13 -60h-439z" />
    <glyph glyph-name="uni0336" unicode="&#x336;" horiz-adv-x="0" 
d="M100 580h675l-12 -60h-675z" />
    <glyph glyph-name="uni0337" unicode="&#x337;" horiz-adv-x="0" 
d="M56 371l260 124l-15 -68l-259 -124z" />
    <glyph glyph-name="uni0338" unicode="&#x338;" horiz-adv-x="0" 
d="M-13 47l706 653l44 -48l-706 -652z" />
    <glyph glyph-name="Wgrave" unicode="&#x1e80;" horiz-adv-x="906" 
d="M115 700h68l21 -646l291 646h104l21 -642l289 642h73l-321 -700h-103l-22 627l-287 -627h-109zM448 890h90l53 -125h-60z" />
    <glyph glyph-name="wgrave" unicode="&#x1e81;" horiz-adv-x="760" 
d="M73 500h63l38 -441l214 441h79l32 -440l226 440h68l-262 -500h-87l-30 421l-207 -421h-87zM345 700h78l47 -130h-47z" />
    <glyph glyph-name="Wacute" unicode="&#x1e82;" horiz-adv-x="906" 
d="M115 700h68l21 -646l291 646h104l21 -642l289 642h73l-321 -700h-103l-22 627l-287 -627h-109zM584 890h90l-83 -125h-60z" />
    <glyph glyph-name="wacute" unicode="&#x1e83;" horiz-adv-x="760" 
d="M73 500h63l38 -441l214 441h79l32 -440l226 440h68l-262 -500h-87l-30 421l-207 -421h-87zM487 700h82l-98 -130h-51z" />
    <glyph glyph-name="Wdieresis" unicode="&#x1e84;" horiz-adv-x="906" 
d="M115 700h68l21 -646l291 646h104l21 -642l289 642h73l-321 -700h-103l-22 627l-287 -627h-109zM633 787q-12 12 -12 29q0 20 15.5 36t36.5 16q17 0 29 -12.5t12 -29.5q0 -20 -15.5 -35.5t-35.5 -15.5q-18 0 -30 12zM444 787q-12 12 -12 29q0 20 15.5 36t36.5 16
q17 0 29 -12.5t12 -29.5q0 -20 -15.5 -35.5t-35.5 -15.5q-18 0 -30 12z" />
    <glyph glyph-name="wdieresis" unicode="&#x1e85;" horiz-adv-x="760" 
d="M73 500h63l38 -441l214 441h79l32 -440l226 440h68l-262 -500h-87l-30 421l-207 -421h-87zM515.5 598.5q-10.5 10.5 -10.5 26.5q0 19 13.5 32.5t32.5 13.5q16 0 26.5 -11t10.5 -27q0 -18 -13.5 -31.5t-31.5 -13.5q-17 0 -27.5 10.5zM332.5 598.5q-10.5 10.5 -10.5 26.5
q0 19 13.5 32.5t32.5 13.5q16 0 26.5 -11t10.5 -27q0 -18 -13.5 -31.5t-31.5 -13.5q-17 0 -27.5 10.5z" />
    <glyph glyph-name="uni1E9E" unicode="&#x1e9e;" horiz-adv-x="651" 
d="M192 700h207q89 0 143.5 -42.5t54.5 -125.5q0 -56 -29.5 -104t-83.5 -69q50 -13 79.5 -55t29.5 -89q0 -59 -27 -108.5t-75 -78t-110 -28.5h-137l14 65h116q63 0 106 36t43 113q0 51 -35 79.5t-98 28.5h-77l14 65h49q64 0 107.5 37t43.5 100q0 57 -34.5 84t-103.5 27h-141
l-129 -635h-76z" />
    <glyph glyph-name="uni1EA0" unicode="&#x1ea0;" horiz-adv-x="672" 
d="M388 700h90l131 -700h-68l-36 193h-356l-118 -193h-76zM493 258l-71 380l-233 -380h304zM226 -160.5q-11 10.5 -11 27.5q0 20 14.5 34.5t34.5 14.5q16 0 27 -11.5t11 -28.5q0 -19 -15 -33t-33 -14q-17 0 -28 10.5z" />
    <glyph glyph-name="uni1EA1" unicode="&#x1ea1;" horiz-adv-x="545" 
d="M75.5 28q-44.5 38 -44.5 105q0 73 55.5 118.5t154.5 45.5h180l4 23q2 9 2 26q0 52 -38 80.5t-93 28.5h-8q-55 0 -93 -25.5t-47 -69.5h-62q11 67 66 108.5t144 41.5q80 0 135.5 -40t55.5 -119q0 -23 -6 -50l-41 -191q-15 -70 -16 -110h-59q0 30 7 70q-33 -43 -80 -61.5
t-100 -18.5q-72 0 -116.5 38zM287 64.5q41 19.5 71 55t40 80.5l10 45h-162q-71 0 -112 -28.5t-41 -78.5q0 -42 28 -67.5t76 -25.5h8q41 0 82 19.5zM154 -160.5q-11 10.5 -11 27.5q0 20 14.5 34.5t34.5 14.5q16 0 27 -11.5t11 -28.5q0 -19 -15 -33t-33 -14q-17 0 -28 10.5z
" />
    <glyph glyph-name="uni1EB8" unicode="&#x1eb8;" horiz-adv-x="638" 
d="M192 700h490l-14 -65h-420l-51 -242h360l-14 -65h-360l-56 -263h430l-14 -65h-500zM233 -160.5q-11 10.5 -11 27.5q0 20 14.5 34.5t34.5 14.5q16 0 27 -11.5t11 -28.5q0 -19 -15 -33t-33 -14q-17 0 -28 10.5z" />
    <glyph glyph-name="uni1EB9" unicode="&#x1eb9;" horiz-adv-x="529" 
d="M144 15.5q-45 25.5 -71 75t-26 118.5q0 21 3 45q10 81 45.5 139t87 87.5t108.5 29.5q62 0 106 -27.5t66.5 -74t22.5 -104.5q0 -34 -5 -59h-370q-2 -26 -2 -36q0 -81 39.5 -122.5t98.5 -41.5h6q50 0 87 26t57 72h66q-24 -69 -81.5 -111t-135.5 -42q-57 0 -102 25.5z
M423 317q0 60 -35.5 99t-91.5 39h-10q-53 0 -99.5 -36.5t-66.5 -118.5h302q1 6 1 17zM176 -160.5q-11 10.5 -11 27.5q0 20 14.5 34.5t34.5 14.5q16 0 27 -11.5t11 -28.5q0 -19 -15 -33t-33 -14q-17 0 -28 10.5z" />
    <glyph glyph-name="uni1ECA" unicode="&#x1eca;" horiz-adv-x="262" 
d="M192 700h70l-149 -700h-70zM18 -160.5q-11 10.5 -11 27.5q0 20 14.5 34.5t34.5 14.5q16 0 27 -11.5t11 -28.5q0 -19 -15 -33t-33 -14q-17 0 -28 10.5z" />
    <glyph glyph-name="uni1ECB" unicode="&#x1ecb;" horiz-adv-x="225" 
d="M133 500h65l-106 -500h-65zM162 615q-12 12 -12 30q0 21 15.5 37t36.5 16q19 0 31 -12.5t12 -30.5q0 -21 -15 -36.5t-37 -15.5q-19 0 -31 12zM-1 -160.5q-11 10.5 -11 27.5q0 20 14.5 34.5t34.5 14.5q16 0 27 -11.5t11 -28.5q0 -19 -15 -33t-33 -14q-17 0 -28 10.5z" />
    <glyph glyph-name="uni1ECC" unicode="&#x1ecc;" horiz-adv-x="757" 
d="M216 26.5q-67 36.5 -106 106t-39 162.5q0 16 4 56q14 110 64.5 191.5t127.5 124.5t167 43q83 0 150 -37t106 -106t39 -162q0 -18 -4 -56q-14 -110 -65 -191t-128 -124.5t-167 -43.5q-82 0 -149 36.5zM503 91q60 36 100.5 103t51.5 156q3 26 3 48q0 75 -29 131t-79.5 86
t-113.5 30h-10q-69 0 -129 -36t-100.5 -103t-51.5 -156q-3 -25 -3 -48q0 -75 29 -131t79.5 -86t113.5 -30h10q69 0 129 36zM269 -160.5q-11 10.5 -11 27.5q0 20 14.5 34.5t34.5 14.5q16 0 27 -11.5t11 -28.5q0 -19 -15 -33t-33 -14q-17 0 -28 10.5z" />
    <glyph glyph-name="uni1ECD" unicode="&#x1ecd;" horiz-adv-x="560" 
d="M151 18q-49 28 -77.5 78.5t-28.5 116.5q0 24 2 37q9 76 44.5 135t90.5 92t120 33q59 0 107.5 -27.5t77 -78.5t28.5 -117q0 -24 -2 -37q-9 -76 -44 -135t-89.5 -92t-120.5 -33q-59 0 -108 28zM349.5 71.5q38.5 25.5 64.5 72t33 106.5q2 24 2 33q0 51 -19 90t-52 60t-74 21
h-10q-45 0 -83.5 -25.5t-64.5 -72t-33 -106.5q-2 -24 -2 -33q0 -51 19 -90t52 -60t74 -21h10q45 0 83.5 25.5zM167 -160.5q-11 10.5 -11 27.5q0 20 14.5 34.5t34.5 14.5q16 0 27 -11.5t11 -28.5q0 -19 -15 -33t-33 -14q-17 0 -28 10.5z" />
    <glyph glyph-name="uni1EE4" unicode="&#x1ee4;" horiz-adv-x="689" 
d="M144.5 46q-58.5 56 -58.5 156q0 42 10 85l88 413h70l-90 -422q-9 -40 -9 -75q0 -72 39 -110t117 -38h10q86 0 137 48t72 143l97 454h70l-102 -477q-24 -113 -94.5 -173t-189.5 -60q-108 0 -166.5 56zM232 -160.5q-11 10.5 -11 27.5q0 20 14.5 34.5t34.5 14.5
q16 0 27 -11.5t11 -28.5q0 -19 -15 -33t-33 -14q-17 0 -28 10.5z" />
    <glyph glyph-name="uni1EE5" unicode="&#x1ee5;" horiz-adv-x="550" 
d="M96.5 31q-38.5 41 -38.5 112q0 30 8 70l61 287h66l-65 -306q-5 -28 -5 -47q0 -47 24 -73.5t71 -26.5h8q62 0 110 52.5t69 151.5l53 249h65l-106 -500h-65l14 64q-59 -74 -155 -74q-76 0 -114.5 41zM159 -160.5q-11 10.5 -11 27.5q0 20 14.5 34.5t34.5 14.5q16 0 27 -11.5
t11 -28.5q0 -19 -15 -33t-33 -14q-17 0 -28 10.5z" />
    <glyph glyph-name="Ygrave" unicode="&#x1ef2;" horiz-adv-x="620" 
d="M283 284l-180 416h73l152 -351l294 351h86l-356 -418l-60 -282h-70zM301 890h90l53 -125h-60z" />
    <glyph glyph-name="ygrave" unicode="&#x1ef3;" horiz-adv-x="508" 
d="M-53 -100h83q39 0 64 19.5t54 65.5l30 48l-118 467h66l97 -394l247 394h73l-340 -542q-39 -62 -76 -87.5t-91 -25.5h-101zM215 700h78l47 -130h-47z" />
    <glyph glyph-name="uni2002" unicode="&#x2002;" horiz-adv-x="500" 
 />
    <glyph glyph-name="uni2003" unicode="&#x2003;" horiz-adv-x="1000" 
 />
    <glyph glyph-name="uni2009" unicode="&#x2009;" horiz-adv-x="125" 
 />
    <glyph glyph-name="uni200A" unicode="&#x200a;" horiz-adv-x="42" 
 />
    <glyph glyph-name="endash" unicode="&#x2013;" horiz-adv-x="541" 
d="M72 330h430l-12 -55h-430z" />
    <glyph glyph-name="emdash" unicode="&#x2014;" horiz-adv-x="861" 
d="M72 330h750l-12 -55h-750z" />
    <glyph glyph-name="uni2015" unicode="&#x2015;" horiz-adv-x="861" 
d="M72 330h750l-12 -55h-750z" />
    <glyph glyph-name="quoteleft" unicode="&#x2018;" horiz-adv-x="245" 
d="M290 660h-30q-30 0 -47.5 -14t-24.5 -44l-4 -17h55l-21 -100h-100l26 120q11 50 39.5 72.5t75.5 22.5h40z" />
    <glyph glyph-name="quoteright" unicode="&#x2019;" horiz-adv-x="244" 
d="M103 525h30q30 0 47.5 14t24.5 44l4 17h-55l21 100h100l-26 -120q-11 -50 -39.5 -72.5t-75.5 -22.5h-40z" />
    <glyph glyph-name="quotesinglbase" unicode="&#x201a;" horiz-adv-x="246" 
d="M-28 -75h30q30 0 47.5 14t24.5 44l4 17h-55l21 100h100l-26 -120q-11 -50 -39.5 -72.5t-75.5 -22.5h-40z" />
    <glyph glyph-name="quotedblleft" unicode="&#x201c;" horiz-adv-x="450" 
d="M290 660h-30q-30 0 -47.5 -14t-24.5 -44l-4 -17h55l-21 -100h-100l26 120q11 50 39.5 72.5t75.5 22.5h40zM495 660h-30q-30 0 -47.5 -14t-24.5 -44l-4 -17h55l-21 -100h-100l26 120q11 50 39.5 72.5t75.5 22.5h40z" />
    <glyph glyph-name="quotedblright" unicode="&#x201d;" horiz-adv-x="449" 
d="M308 525h30q30 0 47.5 14t24.5 44l4 17h-55l21 100h100l-26 -120q-11 -50 -39.5 -72.5t-75.5 -22.5h-40zM103 525h30q30 0 47.5 14t24.5 44l4 17h-55l21 100h100l-26 -120q-11 -50 -39.5 -72.5t-75.5 -22.5h-40z" />
    <glyph glyph-name="quotedblbase" unicode="&#x201e;" horiz-adv-x="456" 
d="M177 -75h30q30 0 47.5 14t24.5 44l4 17h-55l21 100h100l-26 -120q-11 -50 -39.5 -72.5t-75.5 -22.5h-40zM-28 -75h30q30 0 47.5 14t24.5 44l4 17h-55l21 100h100l-26 -120q-11 -50 -39.5 -72.5t-75.5 -22.5h-40z" />
    <glyph glyph-name="dagger" unicode="&#x2020;" horiz-adv-x="488" 
d="M259 475h-183l11 55h183l54 255h65l-54 -255h185l-11 -55h-185l-119 -560h-65z" />
    <glyph glyph-name="daggerdbl" unicode="&#x2021;" horiz-adv-x="515" 
d="M208 170h-185l11 55h186l52 250h-184l11 55h185l54 255h65l-54 -255h185l-11 -55h-186l-52 -250h184l-11 -55h-185l-54 -255h-65z" />
    <glyph glyph-name="bullet" unicode="&#x2022;" horiz-adv-x="289" 
d="M111 297q-22 22 -22 53t22 53t53 22t53 -22t22 -53t-22 -53t-53 -22t-53 22z" />
    <glyph glyph-name="ellipsis" unicode="&#x2026;" horiz-adv-x="733" 
d="M32.5 4q-13.5 14 -13.5 34q0 23 18 40.5t41 17.5q20 0 33.5 -14t13.5 -34q0 -23 -18 -40.5t-41 -17.5q-20 0 -33.5 14zM287.5 4q-13.5 14 -13.5 34q0 23 18 40.5t41 17.5q20 0 33.5 -14t13.5 -34q0 -23 -18 -40.5t-41 -17.5q-20 0 -33.5 14zM542.5 4q-13.5 14 -13.5 34
q0 23 18 40.5t41 17.5q20 0 33.5 -14t13.5 -34q0 -23 -18 -40.5t-41 -17.5q-20 0 -33.5 14z" />
    <glyph glyph-name="perthousand" unicode="&#x2030;" horiz-adv-x="1179" 
d="M122 346q-39 46 -39 124q0 10 2 34q10 93 56.5 147t122.5 54q68 0 107.5 -46.5t39.5 -124.5q0 -10 -2 -34q-10 -92 -58 -146t-122 -54q-68 0 -107 46zM310.5 394q30.5 44 37.5 106q2 22 2 32q0 53 -22 88t-67 35h-4q-45 0 -74.5 -44.5t-36.5 -106.5q-2 -22 -2 -33
q0 -53 20.5 -87t62.5 -34h4q49 0 79.5 44zM721 700h73l-560 -700h-73zM585 41q-39 46 -39 124q0 10 2 34q10 93 56.5 147t122.5 54q44 0 76.5 -20t50.5 -56q23 36 58.5 56t80.5 20q68 0 107.5 -46.5t39.5 -124.5q0 -10 -2 -34q-10 -92 -58 -146t-122 -54q-44 0 -77 20
t-50 56q-24 -36 -59.5 -56t-79.5 -20q-68 0 -107 46zM773.5 89q30.5 44 37.5 106q2 22 2 32q0 53 -22 88t-67 35h-4q-45 0 -74.5 -44.5t-36.5 -106.5q-2 -22 -2 -33q0 -53 20.5 -87t62.5 -34h4q49 0 79.5 44zM1039.5 89q30.5 44 37.5 106q2 22 2 32q0 53 -22 88t-67 35h-4
q-45 0 -74.5 -44.5t-36.5 -106.5q-2 -22 -2 -33q0 -53 20.5 -87t62.5 -34h4q49 0 79.5 44z" />
    <glyph glyph-name="guilsinglleft" unicode="&#x2039;" horiz-adv-x="304" 
d="M47 285l190 215h81l-199 -224l96 -206h-69z" />
    <glyph glyph-name="guilsinglright" unicode="&#x203a;" horiz-adv-x="305" 
d="M201 294l-96 206h69l99 -215l-190 -215h-81z" />
    <glyph glyph-name="fraction" unicode="&#x2044;" horiz-adv-x="203" 
d="M373 700h68l-568 -700h-68z" />
    <glyph glyph-name="uni2070" unicode="&#x2070;" horiz-adv-x="394" 
d="M149 456q-39 46 -39 124q0 10 2 34q10 93 56.5 147t122.5 54q68 0 107.5 -46.5t39.5 -124.5q0 -10 -2 -34q-10 -92 -58 -146t-122 -54q-68 0 -107 46zM337.5 504q30.5 44 37.5 106q2 22 2 32q0 53 -22 88t-67 35h-4q-45 0 -74.5 -44.5t-36.5 -106.5q-2 -22 -2 -33
q0 -53 20.5 -87t62.5 -34h4q49 0 79.5 44z" />
    <glyph glyph-name="uni2074" unicode="&#x2074;" horiz-adv-x="347" 
d="M266 511h-185l12 56l223 243h70l-53 -249h54l-11 -50h-54l-20 -96h-56zM277 561l37 176l-161 -176h124z" />
    <glyph glyph-name="uni2075" unicode="&#x2075;" horiz-adv-x="331" 
d="M124 439q-32 29 -33 82h59q1 -29 19 -45t47 -16h4q34 0 58.5 25.5t24.5 63.5q0 30 -20 47t-50 17h-3q-41 0 -73 -34h-53l81 231h218l-11 -50h-172l-40 -116q30 19 68 19q53 0 84.5 -30.5t31.5 -78.5q0 -65 -42.5 -104.5t-106.5 -39.5q-59 0 -91 29z" />
    <glyph glyph-name="uni2076" unicode="&#x2076;" horiz-adv-x="362" 
d="M141 450.5q-34 40.5 -34 110.5q0 9 2 31q7 70 33 120.5t65.5 76.5t85.5 26q40 0 69 -16t44 -41.5t14 -52.5h-59q-3 27 -21 43t-46 16h-6q-36 0 -68.5 -35t-44.5 -91q16 20 41.5 31t52.5 11q54 0 88.5 -31.5t34.5 -83.5q0 -43 -19.5 -78.5t-55.5 -56t-82 -20.5
q-60 0 -94 40.5zM304.5 488.5q27.5 28.5 27.5 69.5q0 32 -19 52t-50 20h-3q-38 0 -65 -28.5t-27 -71.5q0 -31 18.5 -50.5t49.5 -19.5h3q38 0 65.5 28.5z" />
    <glyph glyph-name="uni2077" unicode="&#x2077;" horiz-adv-x="294" 
d="M323 760h-200l11 50h266l-11 -53q-157 -86 -203 -306l-8 -36h-61l8 36q48 228 198 309z" />
    <glyph glyph-name="uni2078" unicode="&#x2078;" horiz-adv-x="351" 
d="M126 436q-36 26 -36 72q0 40 26 70.5t67 41.5q-44 23 -44 75q0 56 42.5 88t101.5 32q51 0 87.5 -27.5t36.5 -72.5q0 -39 -22.5 -65.5t-58.5 -40.5q23 -12 35 -32t12 -45q0 -57 -43 -89.5t-110 -32.5q-58 0 -94 26zM287 478q25 18 25 53q0 27 -19.5 42t-48.5 15h-5
q-34 0 -60.5 -19t-26.5 -52q0 -27 20 -42t50 -15h5q35 0 60 18zM319.5 656.5q23.5 20.5 23.5 52.5q0 26 -17.5 41t-44.5 15h-5q-31 0 -54.5 -20t-23.5 -54q0 -25 18 -40t44 -15h5q31 0 54.5 20.5z" />
    <glyph glyph-name="uni2079" unicode="&#x2079;" horiz-adv-x="361" 
d="M154 426q-29 16 -44 41.5t-14 52.5h59q3 -27 21 -43t46 -16h6q35 0 66 34.5t47 91.5q-16 -20 -41.5 -31t-52.5 -11q-54 0 -88.5 31.5t-34.5 83.5q0 66 40.5 110.5t103.5 44.5q67 0 103.5 -41t36.5 -112q0 -19 -1 -29q-7 -70 -33 -120.5t-65.5 -76.5t-85.5 -26
q-40 0 -69 16zM321.5 621.5q25.5 26.5 25.5 66.5q0 34 -21 55.5t-53 21.5h-3q-37 0 -61.5 -27.5t-24.5 -68.5q0 -33 20 -53.5t52 -20.5h3q37 0 62.5 26.5z" />
    <glyph glyph-name="uni2080" unicode="&#x2080;" horiz-adv-x="395" 
d="M37 -74q-39 46 -39 124q0 10 2 34q10 93 56.5 147t122.5 54q68 0 107.5 -46.5t39.5 -124.5q0 -10 -2 -34q-10 -92 -58 -146t-122 -54q-68 0 -107 46zM225.5 -26q30.5 44 37.5 106q2 22 2 32q0 53 -22 88t-67 35h-4q-45 0 -74.5 -44.5t-36.5 -106.5q-2 -22 -2 -33
q0 -53 20.5 -87t62.5 -34h4q49 0 79.5 44z" />
    <glyph glyph-name="uni2081" unicode="&#x2081;" horiz-adv-x="201" 
d="M67 158h-73l8 39q77 1 106 83h42l-84 -395h-57z" />
    <glyph glyph-name="uni2082" unicode="&#x2082;" horiz-adv-x="330" 
d="M-25 -47l152 112q52 39 69.5 59.5t17.5 50.5q0 26 -19 43t-45 17h-5q-25 0 -45.5 -18.5t-23.5 -50.5h-61q5 55 42.5 87t94.5 32q56 0 89.5 -30.5t33.5 -77.5q0 -45 -26 -76.5t-82 -71.5l-130 -94h200l-11 -50h-266z" />
    <glyph glyph-name="uni2083" unicode="&#x2083;" horiz-adv-x="338" 
d="M5 -90q-35 30 -32 84h59q-1 -29 17 -46.5t48 -17.5h5q36 0 60 20.5t24 56.5q0 25 -17.5 40t-44.5 15h-35l10 47h37q38 0 60.5 18.5t22.5 52.5q0 26 -18 40.5t-47 14.5h-5q-29 0 -48 -17.5t-23 -42.5h-59q7 53 44.5 81.5t92.5 28.5q52 0 88 -26.5t36 -72.5
q0 -38 -21.5 -65.5t-55.5 -39.5q23 -13 34.5 -36t8.5 -51q-6 -53 -48.5 -83.5t-100.5 -30.5q-57 0 -92 30z" />
    <glyph glyph-name="uni2084" unicode="&#x2084;" horiz-adv-x="346" 
d="M153 -19h-185l12 56l223 243h70l-53 -249h54l-11 -50h-54l-20 -96h-56zM164 31l37 176l-161 -176h124z" />
    <glyph glyph-name="uni2085" unicode="&#x2085;" horiz-adv-x="331" 
d="M11 -91q-32 29 -33 82h59q1 -29 19 -45t47 -16h4q34 0 58.5 25.5t24.5 63.5q0 30 -20 47t-50 17h-3q-41 0 -73 -34h-53l81 231h218l-11 -50h-172l-40 -116q30 19 68 19q53 0 84.5 -30.5t31.5 -78.5q0 -65 -42.5 -104.5t-106.5 -39.5q-59 0 -91 29z" />
    <glyph glyph-name="uni2086" unicode="&#x2086;" horiz-adv-x="363" 
d="M29 -79.5q-34 40.5 -34 110.5q0 9 2 31q7 70 33 120.5t65.5 76.5t85.5 26q40 0 69 -16t44 -41.5t14 -52.5h-59q-3 27 -21 43t-46 16h-6q-36 0 -68.5 -35t-44.5 -91q16 20 41.5 31t52.5 11q54 0 88.5 -31.5t34.5 -83.5q0 -43 -19.5 -78.5t-55.5 -56t-82 -20.5
q-60 0 -94 40.5zM192.5 -41.5q27.5 28.5 27.5 69.5q0 32 -19 52t-50 20h-3q-38 0 -65 -28.5t-27 -71.5q0 -31 18.5 -50.5t49.5 -19.5h3q38 0 65.5 28.5z" />
    <glyph glyph-name="uni2087" unicode="&#x2087;" horiz-adv-x="295" 
d="M211 230h-200l11 50h266l-11 -53q-157 -86 -203 -306l-8 -36h-61l8 36q48 228 198 309z" />
    <glyph glyph-name="uni2088" unicode="&#x2088;" horiz-adv-x="352" 
d="M14 -94q-36 26 -36 72q0 40 26 70.5t67 41.5q-44 23 -44 75q0 56 42.5 88t101.5 32q51 0 87.5 -27.5t36.5 -72.5q0 -39 -22.5 -65.5t-58.5 -40.5q23 -12 35 -32t12 -45q0 -57 -43 -89.5t-110 -32.5q-58 0 -94 26zM175 -52q25 18 25 53q0 27 -19.5 42t-48.5 15h-5
q-34 0 -60.5 -19t-26.5 -52q0 -27 20 -42t50 -15h5q35 0 60 18zM207.5 126.5q23.5 20.5 23.5 52.5q0 26 -17.5 41t-44.5 15h-5q-31 0 -54.5 -20t-23.5 -54q0 -25 18 -40t44 -15h5q31 0 54.5 20.5z" />
    <glyph glyph-name="uni2089" unicode="&#x2089;" horiz-adv-x="361" 
d="M41 -104q-29 16 -44 41.5t-14 52.5h59q3 -27 21 -43t46 -16h6q35 0 66 34.5t47 91.5q-16 -20 -41.5 -31t-52.5 -11q-54 0 -88.5 31.5t-34.5 83.5q0 66 40.5 110.5t103.5 44.5q67 0 103.5 -41t36.5 -112q0 -19 -1 -29q-7 -70 -33 -120.5t-65.5 -76.5t-85.5 -26
q-40 0 -69 16zM208.5 91.5q25.5 26.5 25.5 66.5q0 34 -21 55.5t-53 21.5h-3q-37 0 -61.5 -27.5t-24.5 -68.5q0 -33 20 -53.5t52 -20.5h3q37 0 62.5 26.5z" />
    <glyph glyph-name="uni20A9" unicode="&#x20a9;" horiz-adv-x="961" 
d="M68 378h88l-17 322h73l11 -322h157l155 322h78l19 -322h156l145 322h78l-154 -322h88l-12 -55h-102l-154 -323h-84l-19 323h-156l-155 -323h-86l-18 323h-103zM234 75l119 248h-128zM571 378l-13 234l-113 -234h126zM650 71l113 252h-128z" />
    <glyph glyph-name="Euro" unicode="&#x20ac;" horiz-adv-x="658" 
d="M210.5 45q-59.5 55 -75.5 155l-103 -24l13 63l85 20v9q0 41 4 73l-69 -15l13 63l67 15q21 91 68.5 160.5t112.5 107.5t137 38q56 0 100 -23t68.5 -65t24.5 -96q0 -9 -2 -31h-68q1 7 1 21q0 58 -33.5 93.5t-93.5 35.5h-10q-77 0 -140.5 -62.5t-92.5 -162.5l216 48l-13 -63
l-216 -48q-6 -37 -6 -76v-7l161 37l-13 -63l-143 -33q11 -76 50.5 -118t100.5 -42h10q60 0 106.5 39t64.5 111h68q-25 -98 -86 -156.5t-162 -58.5q-85 0 -144.5 55z" />
    <glyph glyph-name="uni20B4" unicode="&#x20b4;" horiz-adv-x="640" 
d="M179.5 13q-45.5 23 -69 61t-23.5 81q0 40 15 71l-47 -7l12 62l529 79l-13 -62l-404 -60q-20 -31 -20 -68q0 -56 36.5 -85.5t97.5 -29.5h9q127 0 165 120h74q-27 -92 -91 -138.5t-162 -46.5q-63 0 -108.5 23zM70 420l440 66q15 29 15 62q0 45 -32 71t-85 26h-6
q-76 0 -111.5 -31t-50.5 -81h-80q19 73 79.5 125t169.5 52q59 0 101 -21.5t63.5 -57t21.5 -74.5q0 -34 -8 -60l71 11l-12 -61l-589 -88z" />
    <glyph glyph-name="uni20BD" unicode="&#x20bd;" horiz-adv-x="655" 
d="M146 185h-110l13 60h110l15 74h-111l14 64h111l67 317h210q92 0 151.5 -43t59.5 -130q0 -105 -65.5 -156.5t-167.5 -51.5h-199l-15 -74h237l-13 -60h-237l-39 -185h-70zM560 415.5q46 32.5 46 108.5q0 59 -41 85t-116 26h-137l-54 -252h173q83 0 129 32.5z" />
    <glyph glyph-name="uni20BF" unicode="&#x20bf;" horiz-adv-x="653" 
d="M192 700h117l26 120h62l-26 -120h78h12l26 120h62l-28 -129q60 -17 93 -58t33 -101q0 -67 -42.5 -119.5t-107.5 -65.5q46 -17 71 -53.5t25 -86.5q0 -55 -26.5 -102.5t-74.5 -76t-108 -28.5h-4l-26 -120h-62l26 120h-90l-26 -120h-62l26 120h-123zM480 101q43 36 43 113
q0 51 -33.5 79.5t-94.5 28.5h-214l-54 -257h247q63 0 106 36zM533.5 424q43.5 37 43.5 100q0 57 -34.5 84t-103.5 27h-191l-53 -248h231q64 0 107.5 37z" />
    <glyph glyph-name="uni2105" unicode="&#x2105;" horiz-adv-x="777" 
d="M655 700h73l-560 -700h-73zM462 26.5q-36 36.5 -36 93.5q0 46 20.5 84t55.5 59.5t77 21.5q55 0 91 -36.5t36 -92.5q0 -47 -20 -85t-55.5 -59.5t-77.5 -21.5q-55 0 -91 36.5zM620.5 64.5q25.5 27.5 30.5 73.5q1 5 1 16q0 38 -21 61t-54 23h-4q-40 0 -66.5 -32.5
t-26.5 -83.5q0 -39 21 -62t54 -23h4q36 0 61.5 27.5zM148 452q-32 37 -32 94q0 45 18.5 82.5t52.5 59.5t78 22q51 0 82.5 -28.5t33.5 -73.5h-54q-2 23 -19 39.5t-45 16.5q-41 0 -67 -34.5t-26 -82.5q0 -38 18.5 -61.5t52.5 -23.5q28 0 48.5 16.5t26.5 38.5h57
q-12 -45 -48.5 -73.5t-87.5 -28.5q-57 0 -89 37z" />
    <glyph glyph-name="uni2113" unicode="&#x2113;" horiz-adv-x="406" 
d="M110 24q-28 24 -28 69q0 17 5 40l16 76l-85 -45l17 78l84 44l62 291q13 60 49 96.5t96 36.5q59 0 92 -36t33 -98q0 -27 -5 -50q-31 -154 -203 -244l-63 -33l-23 -107q-4 -16 -4 -32q0 -24 15 -34.5t49 -10.5h65l-13 -65h-80q-51 0 -79 24zM215 336q69 36 110.5 88
t51.5 107q4 20 4 40q0 37 -15 55.5t-43 18.5q-60 0 -78 -88l-49 -231z" />
    <glyph glyph-name="uni2116" unicode="&#x2116;" horiz-adv-x="1046" 
d="M199 700h90l256 -607l129 607h70l-149 -700h-85l-259 618l-131 -618h-70zM751 350h258l-10 -45h-258zM815 443.5q-34 33.5 -34 90.5q0 51 19.5 90t53 60t72.5 21q51 0 86.5 -32t35.5 -91q0 -51 -19.5 -90t-52.5 -60.5t-73 -21.5q-54 0 -88 33.5zM966 491q25 36 25 88
q0 36 -17 58.5t-48 22.5q-40 0 -64 -38.5t-24 -84.5q0 -36 17 -59t49 -23q37 0 62 36z" />
    <glyph glyph-name="uni2117" unicode="&#x2117;" horiz-adv-x="875" 
d="M248.5 9q-80.5 49 -128.5 132t-48 182q0 112 54.5 208t151 152.5t216.5 56.5q95 0 175.5 -49t128.5 -132.5t48 -181.5q0 -110 -53.5 -206t-150 -153.5t-218.5 -57.5q-95 0 -175.5 49zM619 61.5q83 51.5 128.5 135t45.5 177.5q0 86 -40.5 158.5t-111 115t-154.5 42.5
q-105 0 -188 -51.5t-128.5 -135t-45.5 -177.5q0 -86 40.5 -158.5t111 -115t154.5 -42.5q105 0 188 51.5zM390 543h146q46 0 78.5 -28t32.5 -75q0 -14 -3 -29q-21 -96 -154 -96h-87l-32 -148h-61zM554.5 375.5q22.5 10.5 30.5 46.5l2 18q0 53 -74 53h-73l-27 -128h76
q43 0 65.5 10.5z" />
    <glyph glyph-name="trademark" unicode="&#x2122;" horiz-adv-x="964" 
d="M560 700h93l42 -315l172 315h98l-80 -380h-61l67 314l-171 -314h-70l-43 313l-66 -313h-61zM262 650h-132l10 50h325l-10 -50h-132l-70 -330h-61z" />
    <glyph glyph-name="uni2126" unicode="&#x2126;" horiz-adv-x="777" 
d="M47 65h137q-57 45 -82 103t-25 143q0 114 52 205.5t137 142.5t179 51q86 0 149 -38.5t97 -109t34 -165.5q0 -112 -45.5 -193.5t-129.5 -138.5h133l-14 -65h-235l14 66q100 53 153.5 130.5t53.5 193.5q0 79 -26.5 136.5t-73.5 88t-106 30.5h-10q-72 0 -139.5 -40.5
t-110 -116.5t-42.5 -176q0 -91 32 -151t102 -95l-13 -66h-235z" />
    <glyph glyph-name="uni2153" unicode="&#x2153;" horiz-adv-x="704" 
d="M157 578h-73l8 39q77 1 106 83h42l-84 -395h-57zM558 700h68l-568 -700h-68zM396 25q-35 30 -32 84h59q-1 -29 17 -46.5t48 -17.5h5q36 0 60 20.5t24 56.5q0 25 -17.5 40t-44.5 15h-35l10 47h37q38 0 60.5 18.5t22.5 52.5q0 26 -18 40.5t-47 14.5h-5q-29 0 -48 -17.5
t-23 -42.5h-59q7 53 44.5 81.5t92.5 28.5q52 0 88 -26.5t36 -72.5q0 -38 -21.5 -65.5t-55.5 -39.5q23 -13 34.5 -36t8.5 -51q-6 -53 -48.5 -83.5t-100.5 -30.5q-57 0 -92 30z" />
    <glyph glyph-name="uni2154" unicode="&#x2154;" horiz-adv-x="848" 
d="M64 373l152 112q52 39 69.5 59.5t17.5 50.5q0 26 -19 43t-45 17h-5q-25 0 -45.5 -18.5t-23.5 -50.5h-61q5 55 42.5 87t94.5 32q56 0 89.5 -30.5t33.5 -77.5q0 -45 -26 -76.5t-82 -71.5l-130 -94h200l-11 -50h-266zM702 700h68l-568 -700h-68zM540 25q-35 30 -32 84h59
q-1 -29 17 -46.5t48 -17.5h5q36 0 60 20.5t24 56.5q0 25 -17.5 40t-44.5 15h-35l10 47h37q38 0 60.5 18.5t22.5 52.5q0 26 -18 40.5t-47 14.5h-5q-29 0 -48 -17.5t-23 -42.5h-59q7 53 44.5 81.5t92.5 28.5q52 0 88 -26.5t36 -72.5q0 -38 -21.5 -65.5t-55.5 -39.5
q23 -13 34.5 -36t8.5 -51q-6 -53 -48.5 -83.5t-100.5 -30.5q-57 0 -92 30z" />
    <glyph glyph-name="uni2155" unicode="&#x2155;" horiz-adv-x="711" 
d="M157 578h-73l8 39q77 1 106 83h42l-84 -395h-57zM558 700h68l-568 -700h-68zM411 24q-32 29 -33 82h59q1 -29 19 -45t47 -16h4q34 0 58.5 25.5t24.5 63.5q0 30 -20 47t-50 17h-3q-41 0 -73 -34h-53l81 231h218l-11 -50h-172l-40 -116q30 19 68 19q53 0 84.5 -30.5
t31.5 -78.5q0 -65 -42.5 -104.5t-106.5 -39.5q-59 0 -91 29z" />
    <glyph glyph-name="uni2156" unicode="&#x2156;" horiz-adv-x="855" 
d="M64 373l152 112q52 39 69.5 59.5t17.5 50.5q0 26 -19 43t-45 17h-5q-25 0 -45.5 -18.5t-23.5 -50.5h-61q5 55 42.5 87t94.5 32q56 0 89.5 -30.5t33.5 -77.5q0 -45 -26 -76.5t-82 -71.5l-130 -94h200l-11 -50h-266zM702 700h68l-568 -700h-68zM555 24q-32 29 -33 82h59
q1 -29 19 -45t47 -16h4q34 0 58.5 25.5t24.5 63.5q0 30 -20 47t-50 17h-3q-41 0 -73 -34h-53l81 231h218l-11 -50h-172l-40 -116q30 19 68 19q53 0 84.5 -30.5t31.5 -78.5q0 -65 -42.5 -104.5t-106.5 -39.5q-59 0 -91 29z" />
    <glyph glyph-name="uni2157" unicode="&#x2157;" horiz-adv-x="840" 
d="M94 330q-35 30 -32 84h59q-1 -29 17 -46.5t48 -17.5h5q36 0 60 20.5t24 56.5q0 25 -17.5 40t-44.5 15h-35l10 47h37q38 0 60.5 18.5t22.5 52.5q0 26 -18 40.5t-47 14.5h-5q-29 0 -48 -17.5t-23 -42.5h-59q7 53 44.5 81.5t92.5 28.5q52 0 88 -26.5t36 -72.5
q0 -38 -21.5 -65.5t-55.5 -39.5q23 -13 34.5 -36t8.5 -51q-6 -53 -48.5 -83.5t-100.5 -30.5q-57 0 -92 30zM687 700h68l-568 -700h-68zM540 24q-32 29 -33 82h59q1 -29 19 -45t47 -16h4q34 0 58.5 25.5t24.5 63.5q0 30 -20 47t-50 17h-3q-41 0 -73 -34h-53l81 231h218
l-11 -50h-172l-40 -116q30 19 68 19q53 0 84.5 -30.5t31.5 -78.5q0 -65 -42.5 -104.5t-106.5 -39.5q-59 0 -91 29z" />
    <glyph glyph-name="uni2158" unicode="&#x2158;" horiz-adv-x="848" 
d="M242 401h-185l12 56l223 243h70l-53 -249h54l-11 -50h-54l-20 -96h-56zM253 451l37 176l-161 -176h124zM695 700h68l-568 -700h-68zM548 24q-32 29 -33 82h59q1 -29 19 -45t47 -16h4q34 0 58.5 25.5t24.5 63.5q0 30 -20 47t-50 17h-3q-41 0 -73 -34h-53l81 231h218
l-11 -50h-172l-40 -116q30 19 68 19q53 0 84.5 -30.5t31.5 -78.5q0 -65 -42.5 -104.5t-106.5 -39.5q-59 0 -91 29z" />
    <glyph glyph-name="uni2159" unicode="&#x2159;" horiz-adv-x="729" 
d="M157 578h-73l8 39q77 1 106 83h42l-84 -395h-57zM558 700h68l-568 -700h-68zM419 35.5q-34 40.5 -34 110.5q0 9 2 31q7 70 33 120.5t65.5 76.5t85.5 26q40 0 69 -16t44 -41.5t14 -52.5h-59q-3 27 -21 43t-46 16h-6q-36 0 -68.5 -35t-44.5 -91q16 20 41.5 31t52.5 11
q54 0 88.5 -31.5t34.5 -83.5q0 -43 -19.5 -78.5t-55.5 -56t-82 -20.5q-60 0 -94 40.5zM582.5 73.5q27.5 28.5 27.5 69.5q0 32 -19 52t-50 20h-3q-38 0 -65 -28.5t-27 -71.5q0 -31 18.5 -50.5t49.5 -19.5h3q38 0 65.5 28.5z" />
    <glyph glyph-name="uni215A" unicode="&#x215a;" horiz-adv-x="858" 
d="M100 329q-32 29 -33 82h59q1 -29 19 -45t47 -16h4q34 0 58.5 25.5t24.5 63.5q0 30 -20 47t-50 17h-3q-41 0 -73 -34h-53l81 231h218l-11 -50h-172l-40 -116q30 19 68 19q53 0 84.5 -30.5t31.5 -78.5q0 -65 -42.5 -104.5t-106.5 -39.5q-59 0 -91 29zM687 700h68l-568 -700
h-68zM548 35.5q-34 40.5 -34 110.5q0 9 2 31q7 70 33 120.5t65.5 76.5t85.5 26q40 0 69 -16t44 -41.5t14 -52.5h-59q-3 27 -21 43t-46 16h-6q-36 0 -68.5 -35t-44.5 -91q16 20 41.5 31t52.5 11q54 0 88.5 -31.5t34.5 -83.5q0 -43 -19.5 -78.5t-55.5 -56t-82 -20.5
q-60 0 -94 40.5zM711.5 73.5q27.5 28.5 27.5 69.5q0 32 -19 52t-50 20h-3q-38 0 -65 -28.5t-27 -71.5q0 -31 18.5 -50.5t49.5 -19.5h3q38 0 65.5 28.5z" />
    <glyph glyph-name="oneeighth" unicode="&#x215b;" horiz-adv-x="719" 
d="M157 578h-73l8 39q77 1 106 83h42l-84 -395h-57zM558 700h68l-568 -700h-68zM405 21q-36 26 -36 72q0 40 26 70.5t67 41.5q-44 23 -44 75q0 56 42.5 88t101.5 32q51 0 87.5 -27.5t36.5 -72.5q0 -39 -22.5 -65.5t-58.5 -40.5q23 -12 35 -32t12 -45q0 -57 -43 -89.5
t-110 -32.5q-58 0 -94 26zM566 63q25 18 25 53q0 27 -19.5 42t-48.5 15h-5q-34 0 -60.5 -19t-26.5 -52q0 -27 20 -42t50 -15h5q35 0 60 18zM598.5 241.5q23.5 20.5 23.5 52.5q0 26 -17.5 41t-44.5 15h-5q-31 0 -54.5 -20t-23.5 -54q0 -25 18 -40t44 -15h5q31 0 54.5 20.5z
" />
    <glyph glyph-name="threeeighths" unicode="&#x215c;" horiz-adv-x="848" 
d="M94 330q-35 30 -32 84h59q-1 -29 17 -46.5t48 -17.5h5q36 0 60 20.5t24 56.5q0 25 -17.5 40t-44.5 15h-35l10 47h37q38 0 60.5 18.5t22.5 52.5q0 26 -18 40.5t-47 14.5h-5q-29 0 -48 -17.5t-23 -42.5h-59q7 53 44.5 81.5t92.5 28.5q52 0 88 -26.5t36 -72.5
q0 -38 -21.5 -65.5t-55.5 -39.5q23 -13 34.5 -36t8.5 -51q-6 -53 -48.5 -83.5t-100.5 -30.5q-57 0 -92 30zM687 700h68l-568 -700h-68zM534 21q-36 26 -36 72q0 40 26 70.5t67 41.5q-44 23 -44 75q0 56 42.5 88t101.5 32q51 0 87.5 -27.5t36.5 -72.5q0 -39 -22.5 -65.5
t-58.5 -40.5q23 -12 35 -32t12 -45q0 -57 -43 -89.5t-110 -32.5q-58 0 -94 26zM695 63q25 18 25 53q0 27 -19.5 42t-48.5 15h-5q-34 0 -60.5 -19t-26.5 -52q0 -27 20 -42t50 -15h5q35 0 60 18zM727.5 241.5q23.5 20.5 23.5 52.5q0 26 -17.5 41t-44.5 15h-5q-31 0 -54.5 -20
t-23.5 -54q0 -25 18 -40t44 -15h5q31 0 54.5 20.5z" />
    <glyph glyph-name="fiveeighths" unicode="&#x215d;" horiz-adv-x="848" 
d="M100 329q-32 29 -33 82h59q1 -29 19 -45t47 -16h4q34 0 58.5 25.5t24.5 63.5q0 30 -20 47t-50 17h-3q-41 0 -73 -34h-53l81 231h218l-11 -50h-172l-40 -116q30 19 68 19q53 0 84.5 -30.5t31.5 -78.5q0 -65 -42.5 -104.5t-106.5 -39.5q-59 0 -91 29zM687 700h68l-568 -700
h-68zM534 21q-36 26 -36 72q0 40 26 70.5t67 41.5q-44 23 -44 75q0 56 42.5 88t101.5 32q51 0 87.5 -27.5t36.5 -72.5q0 -39 -22.5 -65.5t-58.5 -40.5q23 -12 35 -32t12 -45q0 -57 -43 -89.5t-110 -32.5q-58 0 -94 26zM695 63q25 18 25 53q0 27 -19.5 42t-48.5 15h-5
q-34 0 -60.5 -19t-26.5 -52q0 -27 20 -42t50 -15h5q35 0 60 18zM727.5 241.5q23.5 20.5 23.5 52.5q0 26 -17.5 41t-44.5 15h-5q-31 0 -54.5 -20t-23.5 -54q0 -25 18 -40t44 -15h5q31 0 54.5 20.5z" />
    <glyph glyph-name="seveneighths" unicode="&#x215e;" horiz-adv-x="769" 
d="M300 650h-200l11 50h266l-11 -53q-157 -86 -203 -306l-8 -36h-61l8 36q48 228 198 309zM608 700h68l-568 -700h-68zM455 21q-36 26 -36 72q0 40 26 70.5t67 41.5q-44 23 -44 75q0 56 42.5 88t101.5 32q51 0 87.5 -27.5t36.5 -72.5q0 -39 -22.5 -65.5t-58.5 -40.5
q23 -12 35 -32t12 -45q0 -57 -43 -89.5t-110 -32.5q-58 0 -94 26zM616 63q25 18 25 53q0 27 -19.5 42t-48.5 15h-5q-34 0 -60.5 -19t-26.5 -52q0 -27 20 -42t50 -15h5q35 0 60 18zM648.5 241.5q23.5 20.5 23.5 52.5q0 26 -17.5 41t-44.5 15h-5q-31 0 -54.5 -20t-23.5 -54
q0 -25 18 -40t44 -15h5q31 0 54.5 20.5z" />
    <glyph glyph-name="uni215F" unicode="&#x215f;" horiz-adv-x="388" 
d="M157 578h-73l8 39q77 1 106 83h42l-84 -395h-57zM558 700h68l-568 -700h-68z" />
    <glyph glyph-name="uni2160" unicode="&#x2160;" horiz-adv-x="438" 
d="M-4 55h148l125 590h-148l12 55h364l-12 -55h-148l-125 -590h148l-12 -55h-364z" />
    <glyph glyph-name="uni2161" unicode="&#x2161;" horiz-adv-x="723" 
d="M-4 55h148l125 590h-148l12 55h649l-12 -55h-148l-125 -590h148l-12 -55h-649zM429 55l125 590h-217l-125 -590h217z" />
    <glyph glyph-name="uni2162" unicode="&#x2162;" horiz-adv-x="1008" 
d="M-4 55h148l125 590h-148l12 55h934l-12 -55h-148l-125 -590h148l-12 -55h-934zM429 55l125 590h-217l-125 -590h217zM714 55l125 590h-217l-125 -590h217z" />
    <glyph glyph-name="uni2163" unicode="&#x2163;" horiz-adv-x="1031" 
d="M-4 55h148l125 590h-148l12 55h541l-12 -55h-116l67 -573l314 573h-120l12 55h287l-12 -55h-92l-329 -590h167l-12 -55h-844zM551 55l-71 590h-143l-125 -590h339z" />
    <glyph glyph-name="uni2164" unicode="&#x2164;" horiz-adv-x="745" 
d="M100 55h166l-71 590h-91l12 55h273l-12 -55h-116l67 -573l314 573h-120l12 55h287l-12 -55h-92l-329 -590h167l-12 -55h-455z" />
    <glyph glyph-name="uni2165" unicode="&#x2165;" horiz-adv-x="1010" 
d="M100 55h166l-71 590h-91l12 55h273l-12 -55h-116l67 -573l314 573h-120l12 55h532l-12 -55h-148l-125 -590h148l-12 -55h-829zM713 55l125 590h-121l-329 -590h325z" />
    <glyph glyph-name="uni2166" unicode="&#x2166;" horiz-adv-x="1293" 
d="M100 55h166l-71 590h-91l12 55h273l-12 -55h-116l67 -573l314 573h-120l12 55h815l-12 -55h-148l-125 -590h148l-12 -55h-1112zM711 55l125 590h-119l-329 -590h323zM996 55l125 590h-217l-125 -590h217z" />
    <glyph glyph-name="uni2167" unicode="&#x2167;" horiz-adv-x="1576" 
d="M100 55h166l-71 590h-91l12 55h273l-12 -55h-116l67 -573l314 573h-120l12 55h1098l-12 -55h-148l-125 -590h148l-12 -55h-1395zM709 55l125 590h-117l-329 -590h321zM994 55l125 590h-217l-125 -590h217zM1279 55l125 590h-217l-125 -590h217z" />
    <glyph glyph-name="uni2168" unicode="&#x2168;" horiz-adv-x="1002" 
d="M-4 55h148l125 590h-148l12 55h923l-12 -55h-114l-248 -293l134 -297h114l-12 -55h-934zM351 55l258 305l-129 285h-143l-125 -590h139zM747 55l-110 244l-207 -244h317zM851 645h-302l105 -232z" />
    <glyph glyph-name="uni2169" unicode="&#x2169;" horiz-adv-x="761" 
d="M-9 55h119l258 305l-129 285h-114l12 55h678l-12 -55h-114l-248 -293l134 -297h114l-12 -55h-698zM506 55l-110 244l-207 -244h317zM610 645h-302l105 -232z" />
    <glyph glyph-name="uni216C" unicode="&#x216c;" horiz-adv-x="675" 
d="M-4 55h148l125 590h-148l12 55h364l-12 -55h-148l-125 -590h322l41 195h65l-53 -250h-603z" />
    <glyph glyph-name="uni216D" unicode="&#x216d;" horiz-adv-x="717" 
d="M200.5 26.5q-60.5 36.5 -94 105.5t-33.5 163q0 115 43.5 210t121 150t176.5 55q162 0 236 -129l27 119h66l-48 -215h-59q-22 74 -80 122t-135 48h-12q-74 0 -135.5 -49t-97 -131.5t-35.5 -178.5q0 -69 23 -126t67.5 -91t105.5 -34h13q74 0 133 46.5t91 123.5h68l-46 -215
h-66l18 84q-39 -50 -94 -72t-113 -22q-80 0 -140.5 36.5z" />
    <glyph glyph-name="uni216E" unicode="&#x216e;" horiz-adv-x="719" 
d="M-2 55h110l125 590h-110l12 55h240q109 0 179.5 -39t103 -104.5t32.5 -147.5q0 -124 -48 -217t-129 -142.5t-177 -49.5h-350zM486 105q67 50 101.5 132t34.5 175q0 68 -28 120.5t-81 82.5t-127 30h-87l-125 -590h152q93 0 160 50z" />
    <glyph glyph-name="uni216F" unicode="&#x216f;" horiz-adv-x="982" 
d="M-3 55h116l125 590h-116l12 55h221l99 -628l359 628h226l-12 -55h-116l-125 -590h116l-12 -55h-256l12 55h75l122 577l-361 -632h-81l-98 630l-122 -575h75l-12 -55h-259z" />
    <glyph glyph-name="arrowleft" unicode="&#x2190;" horiz-adv-x="848" 
d="M203 316l229 -229l-48 -48l-272 272q-19 19 -19 39t19 39l272 272l48 -48l-229 -229h610v-68h-610z" />
    <glyph glyph-name="arrowup" unicode="&#x2191;" horiz-adv-x="695" 
d="M352 610l-229 -229l-48 48l272 272q19 19 39 19t39 -19l272 -272l-48 -48l-229 229v-610h-68v610z" />
    <glyph glyph-name="arrowright" unicode="&#x2192;" horiz-adv-x="849" 
d="M688 384l-229 229l48 48l272 -272q19 -19 19 -39t-19 -39l-272 -272l-48 48l229 229h-610v68h610z" />
    <glyph glyph-name="arrowdown" unicode="&#x2193;" horiz-adv-x="693" 
d="M384 90l229 229l48 -48l-272 -272q-19 -19 -39 -19t-39 19l-272 272l48 48l229 -229v610h68v-610z" />
    <glyph glyph-name="uni2196" unicode="&#x2196;" horiz-adv-x="768" 
d="M231 583v-324h-68v385q0 12 4 23.5t10 17.5t17.5 10t23.5 4h385v-68h-324l431 -431l-48 -48z" />
    <glyph glyph-name="uni2197" unicode="&#x2197;" horiz-adv-x="656" 
d="M479 632h-324v68h385q27 0 41 -14t14 -41v-385h-68v324l-431 -431l-48 48z" />
    <glyph glyph-name="uni2198" unicode="&#x2198;" horiz-adv-x="756" 
d="M575 116v324h68v-385q0 -12 -4 -23.5t-10 -17.5t-17.5 -10t-23.5 -4h-385v68h324l-431 431l48 48z" />
    <glyph glyph-name="uni2199" unicode="&#x2199;" horiz-adv-x="645" 
d="M215 68h324v-68h-385q-12 0 -23.5 4t-17.5 10t-10 17.5t-4 23.5v385h68v-324l431 431l48 -48z" />
    <glyph glyph-name="uni21A4" unicode="&#x21a4;" horiz-adv-x="908" 
d="M96 350q0 20 19 39l272 272l48 -48l-229 -229h545v216h65v-500h-65v216h-545l229 -229l-48 -48l-272 272q-19 19 -19 39z" />
    <glyph glyph-name="uni21A5" unicode="&#x21a5;" horiz-adv-x="737" 
d="M389 720q20 0 39 -19l272 -272l-48 -48l-229 229v-545h216v-65h-500v65h216v545l-229 -229l-48 48l272 272q19 19 39 19z" />
    <glyph glyph-name="uni21A6" unicode="&#x21a6;" horiz-adv-x="908" 
d="M855 351q0 -20 -19 -39l-272 -272l-48 48l229 229h-545v-216h-65v500h65v-216h545l-229 229l48 48l272 -272q19 -19 19 -39z" />
    <glyph glyph-name="uni21A7" unicode="&#x21a7;" horiz-adv-x="737" 
d="M391 -20q-20 0 -39 19l-272 272l48 48l229 -229v545h-216v65h500v-65h-216v-545l229 229l48 -48l-272 -272q-19 -19 -39 -19z" />
    <glyph glyph-name="uni21B0" unicode="&#x21b0;" horiz-adv-x="914" 
d="M746 316h-542l229 -229l-48 -48l-272 272q-19 19 -19 39t19 39l272 272l48 -48l-229 -229h610v-384h-68v316z" />
    <glyph glyph-name="uni21B1" unicode="&#x21b1;" horiz-adv-x="850" 
d="M79 384h610l-229 229l48 48l272 -272q19 -18 19 -39q0 -20 -19 -39l-272 -272l-48 48l229 229h-542v-316h-68v384z" />
    <glyph glyph-name="uni21B2" unicode="&#x21b2;" horiz-adv-x="848" 
d="M813 316h-610l229 -229l-48 -48l-272 272q-19 18 -19 39q0 20 19 39l272 272l48 -48l-229 -229h542v316h68v-384z" />
    <glyph glyph-name="uni21B3" unicode="&#x21b3;" horiz-adv-x="913" 
d="M210 384h542l-229 229l48 48l272 -272q19 -19 19 -39t-19 -39l-272 -272l-48 48l229 229h-610v384h68v-316z" />
    <glyph glyph-name="partialdiff" unicode="&#x2202;" horiz-adv-x="584" 
d="M104 49.5q-48 59.5 -48 147.5q0 37 7 68q22 105 87.5 162.5t160.5 57.5q56 0 101 -25t63 -67q2 32 2 44q0 109 -46.5 158.5t-127.5 49.5q-24 0 -51 -4.5t-45 -10.5l13 65q18 5 45.5 10t49.5 5q112 0 169.5 -76t57.5 -198q0 -104 -27 -205.5t-92 -171t-173 -69.5
q-98 0 -146 59.5zM366.5 90.5q43.5 35.5 64.5 88.5t21 106q0 65 -37.5 102.5t-97.5 37.5h-7q-146 0 -181 -170q-6 -27 -6 -54q0 -62 31.5 -104t97.5 -42h5q66 0 109.5 35.5z" />
    <glyph glyph-name="uni2206" unicode="&#x2206;" horiz-adv-x="727" 
d="M-3 33l417 667h93l131 -667l-7 -33h-641zM565 65l-113 575l-359 -575h472z" />
    <glyph glyph-name="product" unicode="&#x220f;" horiz-adv-x="718" 
d="M238 635h-104l13 65h615l-13 -65h-103l-135 -635h-68l135 635h-272l-135 -635h-68z" />
    <glyph glyph-name="summation" unicode="&#x2211;" horiz-adv-x="625" 
d="M20 74l314 299l-189 258l15 69h497l-14 -65h-420l195 -266l-317 -304h431l-14 -65h-514z" />
    <glyph glyph-name="minus" unicode="&#x2212;" horiz-adv-x="604" 
d="M64 290h494l-14 -65h-494z" />
    <glyph glyph-name="uni2215" unicode="&#x2215;" horiz-adv-x="379" 
d="M383 700h73l-418 -700h-73z" />
    <glyph glyph-name="uni2219" unicode="&#x2219;" horiz-adv-x="523" 
d="M131 297q-22 22 -22 53t22 53t53 22t53 -22t22 -53t-22 -53t-53 -22t-53 22z" />
    <glyph glyph-name="radical" unicode="&#x221a;" horiz-adv-x="708" 
d="M109 500h65l55 -421l276 621h256l-13 -62h-201l-290 -638h-79z" />
    <glyph glyph-name="infinity" unicode="&#x221e;" horiz-adv-x="864" 
d="M173 193.5q-40 23.5 -63 67t-23 99.5t23 99.5t63 67t89 23.5q47 0 80.5 -17t57 -43.5t55.5 -73.5q33 47 56 73.5t56 43.5t80 17q49 0 89 -23.5t63 -67t23 -99.5t-23 -99.5t-63 -67t-89 -23.5q-47 0 -80 16t-56 42t-56 72q-32 -46 -56 -72t-57 -42t-80 -16q-49 0 -89 23.5
zM344 265.5q33 30.5 73 94.5q-40 64 -73 94.5t-77 30.5h-5q-51 0 -79 -32.5t-28 -92.5t28 -92.5t79 -32.5h5q44 0 77 30.5zM726 267.5q28 32.5 28 92.5t-28 92.5t-79 32.5h-5q-44 0 -77 -30.5t-73 -94.5q40 -64 73 -94.5t77 -30.5h5q51 0 79 32.5z" />
    <glyph glyph-name="integral" unicode="&#x222b;" horiz-adv-x="438" 
d="M-22 -35h35q61 0 91.5 27.5t44.5 92.5l93 437q21 97 72.5 137.5t137.5 40.5h42l-14 -65h-35q-61 0 -91.5 -27.5t-44.5 -92.5l-93 -437q-21 -97 -72.5 -137.5t-137.5 -40.5h-42z" />
    <glyph glyph-name="approxequal" unicode="&#x2248;" horiz-adv-x="618" 
d="M388 289.5q-29 11.5 -70 32.5q-36 18 -59 27.5t-41 9.5q-30 0 -46.5 -17.5t-24.5 -53.5h-65l5 25q10 50 46 82.5t83 32.5q30 0 62 -12t77 -35q33 -17 54 -25.5t36 -8.5q29 0 45 15t24 51h65l-5 -25q-10 -52 -43 -81t-89 -29q-25 0 -54 11.5zM348 99.5q-29 11.5 -70 32.5
q-36 18 -59 27.5t-41 9.5q-30 0 -46.5 -17.5t-24.5 -53.5h-65l5 25q10 50 46 82.5t83 32.5q30 0 62 -12t77 -35q33 -17 54 -25.5t36 -8.5q29 0 45 15t24 51h65l-5 -25q-10 -52 -43 -81t-89 -29q-25 0 -54 11.5z" />
    <glyph glyph-name="notequal" unicode="&#x2260;" horiz-adv-x="619" 
d="M210 134h-172l14 65h192l61 116h-229l14 65h249l63 120h73l-63 -120h172l-14 -65h-192l-61 -116h229l-14 -65h-249l-62 -119h-73z" />
    <glyph glyph-name="lessequal" unicode="&#x2264;" horiz-adv-x="626" 
d="M72 282l16 76l526 152l-16 -76l-447 -118l397 -116l-15 -70zM31 90h494l-14 -65h-494z" />
    <glyph glyph-name="greaterequal" unicode="&#x2265;" horiz-adv-x="626" 
d="M60 206l447 118l-397 116l15 70l461 -152l-16 -76l-526 -152zM35 90h494l-14 -65h-494z" />
    <glyph glyph-name="angleleft" unicode="&#x2329;" horiz-adv-x="348" 
d="M49 350l320 435h76l-327 -444l133 -426h-66z" />
    <glyph glyph-name="angleright" unicode="&#x232a;" horiz-adv-x="348" 
d="M342 350l-320 -435h-76l327 444l-133 426h66z" />
    <glyph glyph-name="uni2460" unicode="&#x2460;" horiz-adv-x="916" 
d="M283.5 12.5q-89.5 52.5 -142 142t-52.5 195.5t52.5 195.5t142 142t195.5 52.5t195.5 -52.5t142 -142t52.5 -195.5t-52.5 -195.5t-142 -142t-195.5 -52.5t-195.5 52.5zM648.5 56q77.5 46 123 124t45.5 170t-45.5 170t-123 124t-169.5 46t-169.5 -46t-123 -124t-45.5 -170
t45.5 -170t123 -124t169.5 -46t169.5 46zM451 429h-73v39q74 4 88 83h42v-395h-57v273z" />
    <glyph glyph-name="uni2461" unicode="&#x2461;" horiz-adv-x="916" 
d="M283.5 12.5q-89.5 52.5 -142 142t-52.5 195.5t52.5 195.5t142 142t195.5 52.5t195.5 -52.5t142 -142t52.5 -195.5t-52.5 -195.5t-142 -142t-195.5 -52.5t-195.5 52.5zM648.5 56q77.5 46 123 124t45.5 170t-45.5 170t-123 124t-169.5 46t-169.5 -46t-123 -124t-45.5 -170
t45.5 -170t123 -124t169.5 -46t169.5 46zM341 223l122 104q46 40 62.5 63t16.5 52q0 28 -18.5 45.5t-46.5 17.5h-5q-25 0 -46.5 -19t-21.5 -50h-61q0 54 39 86.5t94 32.5q56 0 91.5 -31t35.5 -84q0 -40 -22.5 -71.5t-61.5 -64.5l-118 -99h206v-50h-266v68z" />
    <glyph glyph-name="uni2462" unicode="&#x2462;" horiz-adv-x="916" 
d="M283.5 12.5q-89.5 52.5 -142 142t-52.5 195.5t52.5 195.5t142 142t195.5 52.5t195.5 -52.5t142 -142t52.5 -195.5t-52.5 -195.5t-142 -142t-195.5 -52.5t-195.5 52.5zM648.5 56q77.5 46 123 124t45.5 170t-45.5 170t-123 124t-169.5 46t-169.5 -46t-123 -124t-45.5 -170
t45.5 -170t123 -124t169.5 -46t169.5 46zM379.5 180q-38.5 30 -38.5 84h60q1 -29 21.5 -46.5t50.5 -17.5h5q33 0 54 18t21 50q0 30 -20 47t-49 17h-42v47h42q28 0 47 17t19 47t-19.5 46t-50.5 16h-5q-29 0 -47 -17.5t-20 -42.5h-59q0 52 37.5 81t93.5 29q55 0 92.5 -28.5
t37.5 -79.5q0 -32 -15 -55t-41 -35q28 -11 44 -36.5t16 -56.5q0 -53 -40 -83.5t-98 -30.5t-96.5 30z" />
    <glyph glyph-name="uni2463" unicode="&#x2463;" horiz-adv-x="916" 
d="M283.5 12.5q-89.5 52.5 -142 142t-52.5 195.5t52.5 195.5t142 142t195.5 52.5t195.5 -52.5t142 -142t52.5 -195.5t-52.5 -195.5t-142 -142t-195.5 -52.5t-195.5 52.5zM492 251h-185v56l179 243h62v-249h54v-50h-54v-96h-56v96zM492 301v176l-127 -176h127zM648.5 56
q77.5 46 123 124t45.5 170t-45.5 170t-123 124t-169.5 46t-169.5 -46t-123 -124t-45.5 -170t45.5 -170t123 -124t169.5 -46t169.5 46z" />
    <glyph glyph-name="uni2464" unicode="&#x2464;" horiz-adv-x="916" 
d="M283.5 12.5q-89.5 52.5 -142 142t-52.5 195.5t52.5 195.5t142 142t195.5 52.5t195.5 -52.5t142 -142t52.5 -195.5t-52.5 -195.5t-142 -142t-195.5 -52.5t-195.5 52.5zM648.5 56q77.5 46 123 124t45.5 170t-45.5 170t-123 124t-169.5 46t-169.5 -46t-123 -124t-45.5 -170
t45.5 -170t123 -124t169.5 -46t169.5 46zM378 179q-35 29 -39 82h59q4 -29 24 -45t49 -16h4q32 0 52.5 22.5t20.5 57.5q0 34 -22 53.5t-55 19.5h-3q-41 0 -69 -34h-53l31 231h216v-50h-172l-16 -125q14 13 34.5 20.5t43.5 7.5q56 0 91 -34t35 -87q0 -60 -38.5 -96t-98.5 -36
q-59 0 -94 29z" />
    <glyph glyph-name="uni2465" unicode="&#x2465;" horiz-adv-x="916" 
d="M283.5 12.5q-89.5 52.5 -142 142t-52.5 195.5t52.5 195.5t142 142t195.5 52.5t195.5 -52.5t142 -142t52.5 -195.5t-52.5 -195.5t-142 -142t-195.5 -52.5t-195.5 52.5zM648.5 56q77.5 46 123 124t45.5 170t-45.5 170t-123 124t-169.5 46t-169.5 -46t-123 -124t-45.5 -170
t45.5 -170t123 -124t169.5 -46t169.5 46zM362.5 200.5q-38.5 50.5 -38.5 140.5q0 99 41.5 156.5t109.5 57.5q59 0 94 -33t39 -77h-59q-5 27 -24.5 43t-47.5 16h-6q-39 0 -63.5 -37t-29.5 -103q12 25 41.5 40.5t65.5 15.5q52 0 89.5 -35.5t37.5 -93.5q0 -62 -38.5 -101.5
t-104.5 -39.5q-68 0 -106.5 50.5zM530 224q23 24 23 61t-22 61t-57 24h-3q-35 0 -57.5 -24t-22.5 -61t22 -61t56 -24h3q35 0 58 24z" />
    <glyph glyph-name="uni2466" unicode="&#x2466;" horiz-adv-x="916" 
d="M283.5 12.5q-89.5 52.5 -142 142t-52.5 195.5t52.5 195.5t142 142t195.5 52.5t195.5 -52.5t142 -142t52.5 -195.5t-52.5 -195.5t-142 -142t-195.5 -52.5t-195.5 52.5zM648.5 56q77.5 46 123 124t45.5 170t-45.5 170t-123 124t-169.5 46t-169.5 -46t-123 -124t-45.5 -170
t45.5 -170t123 -124t169.5 -46t169.5 46zM457.5 378.5q40.5 77.5 104.5 121.5h-212v50h266v-53q-138 -115 -138 -306v-36h-61v36q0 110 40.5 187.5z" />
    <glyph glyph-name="uni2467" unicode="&#x2467;" horiz-adv-x="916" 
d="M283.5 12.5q-89.5 52.5 -142 142t-52.5 195.5t52.5 195.5t142 142t195.5 52.5t195.5 -52.5t142 -142t52.5 -195.5t-52.5 -195.5t-142 -142t-195.5 -52.5t-195.5 52.5zM648.5 56q77.5 46 123 124t45.5 170t-45.5 170t-123 124t-169.5 46t-169.5 -46t-123 -124t-45.5 -170
t45.5 -170t123 -124t169.5 -46t169.5 46zM378.5 179.5q-39.5 29.5 -39.5 80.5q0 33 20 58t53 38q-29 13 -46 37t-17 56q0 50 39 78t94 28t93.5 -28t38.5 -78q0 -32 -18 -56t-49 -37q32 -13 52.5 -38.5t20.5 -57.5q0 -51 -39 -80.5t-101 -29.5t-101.5 29.5zM537 217
q22 17 22 48q0 30 -22 46.5t-53 16.5h-5q-32 0 -55.5 -16.5t-23.5 -46.5q0 -31 22 -48t55 -17h5q33 0 55 17zM533 394q20 18 20 46q0 30 -20 47.5t-49 17.5h-5q-29 0 -49 -17.5t-20 -47.5q0 -28 20 -46t49 -18h5q29 0 49 18z" />
    <glyph glyph-name="uni2468" unicode="&#x2468;" horiz-adv-x="916" 
d="M283.5 12.5q-89.5 52.5 -142 142t-52.5 195.5t52.5 195.5t142 142t195.5 52.5t195.5 -52.5t142 -142t52.5 -195.5t-52.5 -195.5t-142 -142t-195.5 -52.5t-195.5 52.5zM648.5 56q77.5 46 123 124t45.5 170t-45.5 170t-123 124t-169.5 46t-169.5 -46t-123 -124t-45.5 -170
t45.5 -170t123 -124t169.5 -46t169.5 46zM382 183q-34 33 -36 77h59q5 -27 24.5 -43t47.5 -16h6q39 0 63.5 37t29.5 103q-12 -25 -41.5 -40.5t-65.5 -15.5q-52 0 -89.5 35.5t-37.5 93.5q0 61 37.5 101t99.5 40q71 0 111 -50.5t40 -140.5q0 -99 -41.5 -156.5t-109.5 -57.5
q-63 0 -97 33zM540.5 359q22.5 24 22.5 61t-22 61t-56 24h-3q-35 0 -58 -24t-23 -61t22 -61t57 -24h3q35 0 57.5 24z" />
    <glyph glyph-name="uni24EA" unicode="&#x24ea;" horiz-adv-x="916" 
d="M283.5 12.5q-89.5 52.5 -142 142t-52.5 195.5t52.5 195.5t142 142t195.5 52.5t195.5 -52.5t142 -142t52.5 -195.5t-52.5 -195.5t-142 -142t-195.5 -52.5t-195.5 52.5zM648.5 56q77.5 46 123 124t45.5 170t-45.5 170t-123 124t-169.5 46t-169.5 -46t-123 -124t-45.5 -170
t45.5 -170t123 -124t169.5 -46t169.5 46zM360.5 204q-43.5 55 -43.5 147t43.5 147.5t118.5 55.5t118.5 -55.5t43.5 -147.5t-43.5 -147t-118.5 -55t-118.5 55zM554.5 244q25.5 45 25.5 107t-25.5 107.5t-73.5 45.5h-4q-48 0 -73.5 -45.5t-25.5 -107.5t25.5 -107t73.5 -45h4
q48 0 73.5 45z" />
    <glyph glyph-name="uni24FF" unicode="&#x24ff;" horiz-adv-x="915" 
d="M284.5 13q-89.5 53 -142.5 142.5t-53 194.5q0 106 52.5 195.5t142.5 142t195 52.5q106 0 195.5 -52.5t142 -142t52.5 -195.5q0 -105 -52.5 -195t-142 -142.5t-195.5 -52.5q-105 0 -194.5 53zM597.5 204q43.5 55 43.5 147t-43.5 147.5t-118.5 55.5t-118.5 -55.5
t-43.5 -147.5t43.5 -147t118.5 -55t118.5 55zM403.5 244q-25.5 45 -25.5 107t25.5 107.5t73.5 45.5h4q48 0 73.5 -45.5t25.5 -107.5t-25.5 -107t-73.5 -45h-4q-48 0 -73.5 45z" />
    <glyph glyph-name="triagup" unicode="&#x25b2;" horiz-adv-x="891" 
d="M397 720l405 -720h-810z" />
    <glyph glyph-name="lozenge" unicode="&#x25ca;" horiz-adv-x="648" 
d="M73 350l240 350h70l235 -350l-235 -350h-70zM543 350l-195 287l-195 -287l195 -282z" />
    <glyph glyph-name="uni2776" unicode="&#x2776;" horiz-adv-x="916" 
d="M283.5 12.5q-89.5 52.5 -142 142t-52.5 195.5t52.5 195.5t142 142t195.5 52.5t195.5 -52.5t142 -142t52.5 -195.5t-52.5 -195.5t-142 -142t-195.5 -52.5t-195.5 52.5zM508 156v395h-42q-14 -79 -88 -83v-39h73v-273h57z" />
    <glyph glyph-name="uni2777" unicode="&#x2777;" horiz-adv-x="915" 
d="M284.5 13q-89.5 53 -142.5 142.5t-53 194.5q0 106 52.5 195.5t142.5 142t195 52.5q106 0 195.5 -52.5t142 -142t52.5 -195.5q0 -105 -52.5 -195t-142 -142.5t-195.5 -52.5q-105 0 -194.5 53zM607 155v50h-206l118 99q39 33 61.5 64.5t22.5 71.5q0 53 -35.5 84t-91.5 31
q-55 0 -94 -32.5t-39 -86.5h61q0 31 21.5 50t46.5 19h5q28 0 46.5 -17.5t18.5 -45.5q0 -29 -16.5 -52t-62.5 -63l-122 -104v-68h266z" />
    <glyph glyph-name="uni2778" unicode="&#x2778;" horiz-adv-x="916" 
d="M283.5 12.5q-89.5 52.5 -142 142t-52.5 195.5t52.5 195.5t142 142t195.5 52.5t195.5 -52.5t142 -142t52.5 -195.5t-52.5 -195.5t-142 -142t-195.5 -52.5t-195.5 52.5zM574 180.5q40 30.5 40 83.5q0 31 -16 56.5t-44 36.5q26 12 41 35t15 55q0 51 -37.5 79.5t-92.5 28.5
q-56 0 -93.5 -29t-37.5 -81h59q2 25 20 42.5t47 17.5h5q31 0 50.5 -16t19.5 -46t-19 -47t-47 -17h-42v-47h42q29 0 49 -17t20 -47q0 -32 -21 -50t-54 -18h-5q-30 0 -50.5 17.5t-21.5 46.5h-60q0 -54 38.5 -84t96.5 -30t98 30.5z" />
    <glyph glyph-name="uni2779" unicode="&#x2779;" horiz-adv-x="915" 
d="M284.5 13q-89.5 53 -142.5 142.5t-53 194.5q0 106 52.5 195.5t142.5 142t195 52.5q106 0 195.5 -52.5t142 -142t52.5 -195.5q0 -105 -52.5 -195t-142 -142.5t-195.5 -52.5q-105 0 -194.5 53zM548 155v96h54v50h-54v249h-62l-179 -243v-56h185v-96h56zM492 477v-176h-127z
" />
    <glyph glyph-name="uni277A" unicode="&#x277a;" horiz-adv-x="916" 
d="M283.5 12.5q-89.5 52.5 -142 142t-52.5 195.5t52.5 195.5t142 142t195.5 52.5t195.5 -52.5t142 -142t52.5 -195.5t-52.5 -195.5t-142 -142t-195.5 -52.5t-195.5 52.5zM570.5 186q38.5 36 38.5 96q0 53 -35 87t-91 34q-23 0 -43.5 -7.5t-34.5 -20.5l16 125h172v50h-216
l-31 -231h53q28 34 69 34h3q33 0 55 -19.5t22 -53.5q0 -35 -20.5 -57.5t-52.5 -22.5h-4q-29 0 -49 16t-24 45h-59q4 -53 39 -82t94 -29q60 0 98.5 36z" />
    <glyph glyph-name="uni277B" unicode="&#x277b;" horiz-adv-x="916" 
d="M283.5 12.5q-89.5 52.5 -142 142t-52.5 195.5t52.5 195.5t142 142t195.5 52.5t195.5 -52.5t142 -142t52.5 -195.5t-52.5 -195.5t-142 -142t-195.5 -52.5t-195.5 52.5zM573.5 189.5q38.5 39.5 38.5 101.5q0 58 -37.5 93.5t-89.5 35.5q-36 0 -65.5 -15.5t-41.5 -40.5
q5 66 29.5 103t63.5 37h6q28 0 47.5 -16t24.5 -43h59q-4 44 -39 77t-94 33q-68 0 -109.5 -57.5t-41.5 -156.5q0 -90 38.5 -140.5t106.5 -50.5q66 0 104.5 39.5zM413 224q-22 24 -22 61t22.5 61t57.5 24h3q35 0 57 -24t22 -61t-23 -61t-58 -24h-3q-34 0 -56 24z" />
    <glyph glyph-name="uni277C" unicode="&#x277c;" horiz-adv-x="915" 
d="M284.5 13q-89.5 53 -142.5 142.5t-53 194.5q0 106 52.5 195.5t142.5 142t195 52.5q106 0 195.5 -52.5t142 -142t52.5 -195.5q0 -105 -52.5 -195t-142 -142.5t-195.5 -52.5q-105 0 -194.5 53zM478 155v36q0 191 138 306v53h-266v-50h212q-64 -44 -104.5 -121.5
t-40.5 -187.5v-36h61z" />
    <glyph glyph-name="uni277D" unicode="&#x277d;" horiz-adv-x="916" 
d="M283.5 12.5q-89.5 52.5 -142 142t-52.5 195.5t52.5 195.5t142 142t195.5 52.5t195.5 -52.5t142 -142t52.5 -195.5t-52.5 -195.5t-142 -142t-195.5 -52.5t-195.5 52.5zM581 179.5q39 29.5 39 80.5q0 32 -20.5 57.5t-52.5 38.5q31 13 49 37t18 56q0 50 -38.5 78t-93.5 28
t-94 -28t-39 -78q0 -32 17 -56t46 -37q-33 -13 -53 -38t-20 -58q0 -51 39.5 -80.5t101.5 -29.5t101 29.5zM422 217q-22 17 -22 48q0 30 23.5 46.5t55.5 16.5h5q31 0 53 -16.5t22 -46.5q0 -31 -22 -48t-55 -17h-5q-33 0 -55 17zM430 394q-20 18 -20 46q0 30 20 47.5t49 17.5
h5q29 0 49 -17.5t20 -47.5q0 -28 -20 -46t-49 -18h-5q-29 0 -49 18z" />
    <glyph glyph-name="uni277E" unicode="&#x277e;" horiz-adv-x="916" 
d="M283.5 12.5q-89.5 52.5 -142 142t-52.5 195.5t52.5 195.5t142 142t195.5 52.5t195.5 -52.5t142 -142t52.5 -195.5t-52.5 -195.5t-142 -142t-195.5 -52.5t-195.5 52.5zM588.5 207.5q41.5 57.5 41.5 156.5q0 90 -40 140.5t-111 50.5q-62 0 -99.5 -40t-37.5 -101
q0 -58 37.5 -93.5t89.5 -35.5q36 0 65.5 15.5t41.5 40.5q-5 -66 -29.5 -103t-63.5 -37h-6q-28 0 -47.5 16t-24.5 43h-59q2 -44 36 -77t97 -33q68 0 109.5 57.5zM423 359q-22 24 -22 61t23 61t58 24h3q34 0 56 -24t22 -61t-22.5 -61t-57.5 -24h-3q-35 0 -57 24z" />
    <glyph glyph-name="uni300A" unicode="&#x300a;" horiz-adv-x="510" 
d="M233 350l320 435h75l-326 -442l134 -428h-67zM49 350l320 435h75l-326 -442l134 -428h-67z" />
    <glyph glyph-name="uni300B" unicode="&#x300b;" horiz-adv-x="510" 
d="M320 350l-320 -435h-75l326 442l-134 428h67zM504 350l-320 -435h-75l326 442l-134 428h67z" />
    <glyph glyph-name="uni300C" unicode="&#x300c;" horiz-adv-x="285" 
d="M198 845h201l-12 -55h-139l-85 -402h-62z" />
    <glyph glyph-name="uni300D" unicode="&#x300d;" horiz-adv-x="298" 
d="M139 -145h-201l12 55h139l85 402h62z" />
    <glyph glyph-name="uni300E" unicode="&#x300e;" horiz-adv-x="434" 
d="M200 845h328l-35 -165h-137l-74 -347h-192zM229 388l74 347h137l12 55h-200l-86 -402h63z" />
    <glyph glyph-name="uni300F" unicode="&#x300f;" horiz-adv-x="446" 
d="M281 -145h-328l35 165h137l74 347h192zM252 312l-74 -347h-137l-12 -55h200l86 402h-63z" />
    <glyph glyph-name="uni3010" unicode="&#x3010;" horiz-adv-x="356" 
d="M223 845h261q-156 -136 -235.5 -296.5t-79.5 -325.5q0 -98 25.5 -196.5t76.5 -171.5h-259z" />
    <glyph glyph-name="uni3011" unicode="&#x3011;" horiz-adv-x="357" 
d="M176 -144h-261q156 136 235.5 296.5t79.5 325.5q0 98 -25.5 196.5t-76.5 171.5h259z" />
    <glyph glyph-name="uni3014" unicode="&#x3014;" horiz-adv-x="297" 
d="M20 17l142 666l178 162h89l-207 -190l-133 -627l115 -173h-74z" />
    <glyph glyph-name="uni3015" unicode="&#x3015;" horiz-adv-x="297" 
d="M320 684l-142 -666l-178 -162h-89l207 190l133 627l-115 173h74z" />
    <glyph glyph-name="uniE000" unicode="&#xe000;" horiz-adv-x="582" 
d="M113 550h400v-400h-400v400zM438 225v250h-250v-250h250z" />
    <glyph glyph-name="uniE001" unicode="&#xe001;" horiz-adv-x="753" 
d="M123 625h550v-550h-550v550zM598 150v400h-400v-400h400z" />
    <glyph glyph-name="uniE002" unicode="&#xe002;" horiz-adv-x="915" 
d="M129 700h700v-700h-700v700zM754 75v550h-550v-550h550z" />
    <glyph glyph-name="uniE003" unicode="&#xe003;" horiz-adv-x="582" 
d="M113 550h400v-400h-400v400zM438 225v250h-250v-250h250zM263 400h100v-100h-100v100z" />
    <glyph glyph-name="uniE004" unicode="&#xe004;" horiz-adv-x="753" 
d="M123 625h550v-550h-550v550zM598 150v400h-400v-400h400zM273 475h250v-250h-250v250zM448 300v100h-100v-100h100z" />
    <glyph glyph-name="uniE005" unicode="&#xe005;" horiz-adv-x="915" 
d="M129 700h700v-700h-700v700zM754 75v550h-550v-550h550zM279 550h400v-400h-400v400zM604 225v250h-250v-250h250zM429 400h100v-100h-100v100z" />
    <glyph glyph-name="uniE006" unicode="&#xe006;" horiz-adv-x="582" 
d="M113 550h400v-400h-400v400z" />
    <glyph glyph-name="uniE007" unicode="&#xe007;" horiz-adv-x="753" 
d="M123 625h550v-550h-550v550z" />
    <glyph glyph-name="uniE008" unicode="&#xe008;" horiz-adv-x="915" 
d="M129 700h700v-700h-700v700z" />
    <glyph glyph-name="uniE00A" unicode="&#xe00a;" horiz-adv-x="353" 
d="M80.5 -113.5q-29.5 31.5 -29.5 77.5q0 34 17.5 65.5t45.5 44.5q-67 28 -67 93q0 9 4 33l71 341q10 47 35.5 71.5t77.5 30.5q-31 24 -31 67q0 40 20 70.5t52 47.5t68 17h106l-12 -55h-88q-35 0 -58 -22.5t-23 -61.5q0 -25 15.5 -40.5t40.5 -15.5h43l-12 -55h-73
q-38 0 -57 -7t-28 -22.5t-16 -49.5l-65 -312q-3 -15 -3 -27q0 -33 18.5 -52.5t51.5 -19.5h75l-12 -55h-55q-37 0 -56.5 -20.5t-19.5 -55.5q0 -28 16.5 -46t53.5 -18h70l-12 -55h-86q-48 0 -77.5 31.5z" />
    <glyph glyph-name="uniE00B" unicode="&#xe00b;" horiz-adv-x="354" 
d="M316.5 813.5q29.5 -31.5 29.5 -77.5q0 -34 -17.5 -65.5t-45.5 -44.5q67 -28 67 -93q0 -9 -4 -33l-71 -341q-10 -47 -35.5 -71.5t-77.5 -30.5q31 -24 31 -67q0 -40 -20 -70.5t-52 -47.5t-68 -17h-106l12 55h88q35 0 58 22.5t23 61.5q0 25 -15.5 40.5t-40.5 15.5h-43l12 55
h73q38 0 57 7t28 22.5t16 49.5l65 312q3 15 3 27q0 33 -18.5 52.5t-51.5 19.5h-75l12 55h55q37 0 56.5 20.5t19.5 55.5q0 28 -16.5 46t-53.5 18h-70l12 55h86q48 0 77.5 -31.5z" />
    <glyph glyph-name="uniE010" unicode="&#xe010;" horiz-adv-x="599" 
d="M201 142.5q-55 32.5 -87.5 87.5t-32.5 120t32.5 120t87.5 87.5t120 32.5t120 -32.5t87.5 -87.5t32.5 -120t-32.5 -120t-87.5 -87.5t-120 -32.5t-120 32.5zM404 207q38 22 60 60t22 83t-22 83t-60 60t-83 22t-83 -22t-60 -60t-22 -83t22 -83t60 -60t83 -22t83 22z" />
    <glyph glyph-name="uniE011" unicode="&#xe011;" horiz-adv-x="744" 
d="M235.5 77.5q-72.5 42.5 -115 115t-42.5 157.5t42.5 157.5t115 115t157.5 42.5t157.5 -42.5t115 -115t42.5 -157.5t-42.5 -157.5t-115 -115t-157.5 -42.5t-157.5 42.5zM513 142.5q55 32.5 87.5 87.5t32.5 120t-32.5 120t-87.5 87.5t-120 32.5t-120 -32.5t-87.5 -87.5
t-32.5 -120t32.5 -120t87.5 -87.5t120 -32.5t120 32.5z" />
    <glyph glyph-name="uniE012" unicode="&#xe012;" horiz-adv-x="891" 
d="M272.5 13q-89.5 53 -142.5 142.5t-53 194.5q0 106 52.5 195.5t142.5 142t195 52.5q106 0 195.5 -52.5t142 -142t52.5 -195.5q0 -105 -52.5 -195t-142 -142.5t-195.5 -52.5q-105 0 -194.5 53zM624.5 77.5q72.5 42.5 115 115t42.5 157.5t-42.5 157.5t-115 115t-157.5 42.5
t-157.5 -42.5t-115 -115t-42.5 -157.5t42.5 -157.5t115 -115t157.5 -42.5t157.5 42.5z" />
    <glyph glyph-name="uniE013" unicode="&#xe013;" horiz-adv-x="599" 
d="M201 142.5q-55 32.5 -87.5 87.5t-32.5 120t32.5 120t87.5 87.5t120 32.5t120 -32.5t87.5 -87.5t32.5 -120t-32.5 -120t-87.5 -87.5t-120 -32.5t-120 32.5zM404 207q38 22 60 60t22 83t-22 83t-60 60t-83 22t-83 -22t-60 -60t-22 -83t22 -83t60 -60t83 -22t83 22z
M257.5 286.5q-26.5 26.5 -26.5 63.5t26.5 63.5t63.5 26.5q38 0 64 -26t26 -64q0 -37 -26.5 -63.5t-63.5 -26.5t-63.5 26.5z" />
    <glyph glyph-name="uniE014" unicode="&#xe014;" horiz-adv-x="744" 
d="M235.5 77.5q-72.5 42.5 -115 115t-42.5 157.5t42.5 157.5t115 115t157.5 42.5t157.5 -42.5t115 -115t42.5 -157.5t-42.5 -157.5t-115 -115t-157.5 -42.5t-157.5 42.5zM513 142.5q55 32.5 87.5 87.5t32.5 120t-32.5 120t-87.5 87.5t-120 32.5t-120 -32.5t-87.5 -87.5
t-32.5 -120t32.5 -120t87.5 -87.5t120 -32.5t120 32.5zM310 207q-38 22 -60 60t-22 83t22 83t60 60t83 22t83 -22t60 -60t22 -83t-22 -83t-60 -60t-83 -22t-83 22zM456.5 286.5q26.5 26.5 26.5 63.5q0 38 -26 64t-64 26q-37 0 -63.5 -26.5t-26.5 -63.5t26.5 -63.5
t63.5 -26.5t63.5 26.5z" />
    <glyph glyph-name="uniE015" unicode="&#xe015;" horiz-adv-x="891" 
d="M271.5 12.5q-89.5 52.5 -142 142t-52.5 195.5t52.5 195.5t142 142t195.5 52.5t195.5 -52.5t142 -142t52.5 -195.5t-52.5 -195.5t-142 -142t-195.5 -52.5t-195.5 52.5zM624.5 77.5q72.5 42.5 115 115t42.5 157.5t-42.5 157.5t-115 115t-157.5 42.5t-157.5 -42.5t-115 -115
t-42.5 -157.5t42.5 -157.5t115 -115t157.5 -42.5t157.5 42.5zM347 142.5q-55 32.5 -87.5 87.5t-32.5 120t32.5 120t87.5 87.5t120 32.5t120 -32.5t87.5 -87.5t32.5 -120t-32.5 -120t-87.5 -87.5t-120 -32.5t-120 32.5zM550 207q38 22 60 60t22 83t-22 83t-60 60t-83 22
t-83 -22t-60 -60t-22 -83t22 -83t60 -60t83 -22t83 22zM403.5 286.5q-26.5 26.5 -26.5 63.5t26.5 63.5t63.5 26.5q38 0 64 -26t26 -64q0 -37 -26.5 -63.5t-63.5 -26.5t-63.5 26.5z" />
    <glyph glyph-name="uniE016" unicode="&#xe016;" horiz-adv-x="599" 
d="M201 142.5q-55 32.5 -87.5 87.5t-32.5 120t32.5 120t87.5 87.5t120 32.5t120 -32.5t87.5 -87.5t32.5 -120t-32.5 -120t-87.5 -87.5t-120 -32.5t-120 32.5z" />
    <glyph glyph-name="uniE017" unicode="&#xe017;" horiz-adv-x="713" 
d="M228 90.5q-69 40.5 -109.5 109.5t-40.5 150t40.5 150t109.5 109.5t150 40.5t150 -40.5t109.5 -109.5t40.5 -150t-40.5 -150t-109.5 -109.5t-150 -40.5t-150 40.5z" />
    <glyph glyph-name="uniE018" unicode="&#xe018;" horiz-adv-x="831" 
d="M257 38.5q-83 48.5 -131.5 131.5t-48.5 180t48.5 180t131.5 131.5t180 48.5t180 -48.5t131.5 -131.5t48.5 -180t-48.5 -180t-131.5 -131.5t-180 -48.5t-180 48.5z" />
    <glyph glyph-name="uniF8FF" unicode="&#xf8ff;" horiz-adv-x="630" 
d="M177 24q-60 35 -95 95t-35 131t35 131t95 95t131 35t131 -35t95 -95t35 -131t-35 -131t-95 -95t-131 -35t-131 35z" />
    <glyph glyph-name="I_S_B_N" horiz-adv-x="2275" 
d="M192 700h70l-135 -635h439q59 0 102 19.5t65 52t22 69.5q0 90 -117 115l-94 20q-60 13 -98.5 55t-38.5 107q0 55 28.5 99.5t83 71t129.5 26.5h691q90 0 144 -46t54 -122q0 -67 -42.5 -119.5t-107.5 -65.5q46 -17 71 -53.5t25 -86.5q0 -55 -26.5 -102.5t-74.5 -76
t-108 -28.5h-341l82 387h301q64 0 107.5 37t43.5 100q0 57 -34.5 84t-103.5 27h-664q-88 0 -138 -33t-50 -95q0 -43 27.5 -71t75.5 -38l94 -20q62 -13 106.5 -55.5t44.5 -104.5q0 -57 -25.5 -106.5t-82.5 -80.5t-145 -31h-529zM1370 101.5q43 36.5 43 112.5q0 51 -33.5 79.5
t-94.5 28.5h-214l-54 -257h248q62 0 105 36.5zM1821 649.5q74 60.5 197 60.5q104 0 159 -56.5t55 -153.5q0 -43 -10 -87l-88 -413h-70l90 422q9 42 9 78q0 145 -157 145h-4q-89 0 -141 -48t-73 -143l-97 -454h-70l102 477q24 112 98 172.5z" />
    <glyph glyph-name="i.loclTRK" horiz-adv-x="225" 
d="M133 500h65l-106 -500h-65zM162 615q-12 12 -12 30q0 21 15.5 37t36.5 16q19 0 31 -12.5t12 -30.5q0 -21 -15 -36.5t-37 -15.5q-19 0 -31 12z" />
    <glyph glyph-name="a.sups" horiz-adv-x="322" 
d="M106 430.5q-26 21.5 -26 54.5q0 50 34.5 75.5t82.5 25.5h96l2 8q3 11 3 19q0 23 -17 34.5t-44 11.5h-3q-24 0 -42 -10.5t-26 -31.5h-54q11 40 44.5 64t82.5 24q51 0 81 -25.5t30 -68.5q0 -12 -3 -27l-23 -107q-9 -37 -10 -62h-51v7q1 12 2 23q-15 -15 -38.5 -25.5
t-51.5 -10.5q-43 0 -69 21.5zM246 474.5q28 20.5 36 59.5l2 10h-84q-31 0 -48.5 -15t-17.5 -37q0 -17 13.5 -27.5t36.5 -10.5h3q31 0 59 20.5z" />
    <glyph glyph-name="b.sups" horiz-adv-x="354" 
d="M185 423.5q-24 13.5 -36 35.5l-10 -43h-55l84 394h57l-31 -139q27 31 84 31q50 0 81.5 -31.5t31.5 -87.5q0 -16 -3 -34q-11 -66 -50.5 -102.5t-95.5 -36.5q-33 0 -57 13.5zM302 482.5q26 26.5 33 72.5q2 16 2 23q0 36 -18.5 57t-50.5 21h-4q-34 0 -62 -27t-35 -72
q-1 -10 -2 -21q0 -37 20.5 -58.5t52.5 -21.5h4q34 0 60 26.5z" />
    <glyph glyph-name="c.sups" horiz-adv-x="316" 
d="M126 447q-32 37 -32 94q0 45 18.5 82.5t52.5 59.5t78 22q51 0 82.5 -28.5t33.5 -73.5h-54q-2 23 -19 39.5t-45 16.5q-41 0 -67 -34.5t-26 -82.5q0 -38 18.5 -61.5t52.5 -23.5q28 0 48.5 16.5t26.5 38.5h57q-12 -45 -48.5 -73.5t-87.5 -28.5q-57 0 -89 37z" />
    <glyph glyph-name="d.sups" horiz-adv-x="355" 
d="M125.5 441.5q-30.5 31.5 -30.5 88.5q0 21 2 32q10 65 50 102.5t96 37.5q32 0 56 -13.5t37 -33.5l33 155h56l-84 -395h-55l7 32q-14 -16 -37 -26.5t-49 -10.5q-51 0 -81.5 31.5zM283 484q28 28 35 73q2 14 2 21q0 36 -20.5 57t-52.5 21h-4q-34 0 -60 -26.5t-33 -72.5
q-2 -16 -2 -23q0 -36 18.5 -57t50.5 -21h4q34 0 62 28z" />
    <glyph glyph-name="e.sups" horiz-adv-x="323" 
d="M127.5 444q-32.5 34 -32.5 92q0 50 20 88.5t53.5 59.5t73.5 21q60 0 90.5 -36t30.5 -85q0 -17 -5 -35h-209q-3 -43 15.5 -67.5t50.5 -24.5h4q23 0 41.5 12t27.5 34h57q-15 -45 -50.5 -69t-82.5 -24q-52 0 -84.5 34zM288 641.5q-17 17.5 -45 17.5h-3q-28 0 -50 -17
t-32 -50h147q0 32 -17 49.5z" />
    <glyph glyph-name="f.sups" horiz-adv-x="214" 
d="M161 654h-62l10 46h62l10 45q7 32 26 48.5t56 16.5h69l-10 -47h-53q-17 0 -25 -7t-12 -24l-7 -32h70l-10 -46h-70l-51 -239h-54z" />
    <glyph glyph-name="g.sups" horiz-adv-x="348" 
d="M96.5 319.5q-32.5 24.5 -32.5 63.5h54q0 -20 18.5 -31.5t48.5 -11.5h6q74 0 92 85l6 30q-34 -36 -82 -36t-79.5 29.5t-31.5 87.5q0 21 2 33q9 66 47.5 101.5t90.5 35.5q34 0 59.5 -15t36.5 -36l9 45h53l-59 -281q-26 -124 -147 -124q-59 0 -91.5 24.5zM264 478.5
q21 14.5 35 41t14 62.5t-19.5 57.5t-49.5 21.5h-5q-33 0 -57.5 -24.5t-31.5 -73.5l-2 -24q0 -38 19 -56.5t49 -18.5h5q22 0 43 14.5z" />
    <glyph glyph-name="h.sups" horiz-adv-x="342" 
d="M168 810h54l-29 -137q13 13 34 21.5t45 8.5q44 0 71.5 -24.5t27.5 -67.5q0 -10 -4 -32l-35 -164h-54l33 157q3 17 3 29q0 54 -55 54h-1q-31 0 -54.5 -22.5t-32.5 -62.5l-33 -155h-54z" />
    <glyph glyph-name="i.sups" horiz-adv-x="154" 
d="M145 700h55l-60 -285h-55zM165 758.5q-9 8.5 -9 21.5q0 16 11 27t26 11q13 0 22 -8.5t9 -21.5q0 -16 -11 -27t-26 -11q-13 0 -22 8.5z" />
    <glyph glyph-name="j.sups" horiz-adv-x="154" 
d="M-21 357h65q16 0 23.5 6.5t11.5 23.5l66 313h55l-67 -319q-8 -37 -27.5 -54.5t-55.5 -17.5h-81zM164 758.5q-9 8.5 -9 21.5q0 16 11 27t26 11q13 0 22 -8.5t9 -21.5q0 -16 -11 -27t-26 -11q-13 0 -22 8.5z" />
    <glyph glyph-name="k.sups" horiz-adv-x="311" 
d="M168 810h54l-48 -227l146 117h73l-141 -112l86 -173h-62l-67 139l-50 -40l-21 -99h-54z" />
    <glyph glyph-name="l.sups" horiz-adv-x="153" 
d="M168 810h55l-84 -395h-55z" />
    <glyph glyph-name="m.sups" horiz-adv-x="530" 
d="M145 700h54l-7 -28q14 16 35 25t45 9q32 0 54.5 -13t32.5 -38q40 51 101 51q44 0 71.5 -25.5t27.5 -69.5q0 -10 -4 -32l-35 -164h-54l33 157q4 16 4 33q0 53 -53 53h-1q-30 0 -54 -22.5t-32 -61.5l-34 -159h-54l33 157q4 16 4 33q0 53 -53 53h-1q-30 0 -54 -23.5
t-33 -64.5l-33 -155h-54z" />
    <glyph glyph-name="n.sups" horiz-adv-x="342" 
d="M145 700h54l-7 -28q14 16 35 25t45 9q44 0 71.5 -25.5t27.5 -69.5q0 -10 -4 -32l-35 -164h-54l33 157q4 22 4 30q0 28 -14.5 42t-41.5 14h-1q-30 0 -54 -23.5t-33 -64.5l-33 -155h-54z" />
    <glyph glyph-name="o.sups" horiz-adv-x="337" 
d="M130 446.5q-36 36.5 -36 93.5q0 46 20.5 84t55.5 59.5t77 21.5q55 0 91 -36.5t36 -92.5q0 -47 -20 -85t-55.5 -59.5t-77.5 -21.5q-55 0 -91 36.5zM288.5 484.5q25.5 27.5 30.5 73.5q1 5 1 16q0 38 -21 61t-54 23h-4q-40 0 -66.5 -32.5t-26.5 -83.5q0 -39 21 -62t54 -23h4
q36 0 61.5 27.5z" />
    <glyph glyph-name="p.sups" horiz-adv-x="354" 
d="M145 700h55l-7 -32q14 16 37 26.5t49 10.5q50 0 81.5 -31.5t31.5 -87.5q0 -16 -3 -34q-10 -64 -50 -101.5t-96 -37.5q-33 0 -57 13t-36 33l-33 -154h-56zM303 486q26 27 33 71q2 16 2 23q0 37 -18.5 58t-50.5 21h-4q-34 0 -62 -28.5t-35 -73.5q-2 -14 -2 -21
q0 -35 20.5 -56t52.5 -21h4q34 0 60 27z" />
    <glyph glyph-name="q.sups" horiz-adv-x="355" 
d="M255.5 421.5q-22.5 -8.5 -48.5 -8.5q-50 0 -81.5 30.5t-31.5 86.5q0 15 3 33q10 66 50 104t96 38q33 0 57 -14t36 -36l10 45h55l-83 -395h-55l29 139q-14 -14 -36.5 -22.5zM283 486q28 27 35 72q1 11 2 21q0 37 -20.5 58.5t-52.5 21.5h-4q-34 0 -60 -27.5t-33 -73.5
q-2 -16 -2 -23q0 -36 18.5 -56t50.5 -20h4q34 0 62 27z" />
    <glyph glyph-name="r.sups" horiz-adv-x="226" 
d="M145 700h52l-10 -50q13 23 40.5 38t58.5 15h20l-12 -53h-17q-44 0 -72 -28t-41 -90l-25 -117h-55z" />
    <glyph glyph-name="s.sups" horiz-adv-x="286" 
d="M105.5 436q-29.5 26 -27.5 67h55q0 -24 15.5 -36t42.5 -12h5q25 0 41 11t16 30q0 25 -36 33l-29 7q-36 9 -56 27t-20 49q0 43 31.5 68t77.5 25q53 0 82.5 -26.5t29.5 -67.5h-56q0 21 -14.5 35t-42.5 14h-4q-24 0 -37.5 -12t-13.5 -29q0 -12 8.5 -19.5t29.5 -12.5l35 -9
q73 -19 73 -75q0 -42 -33 -67.5t-88 -25.5t-84.5 26z" />
    <glyph glyph-name="t.sups" horiz-adv-x="231" 
d="M140.5 428.5q-16.5 13.5 -16.5 38.5l2 18l36 168h-64l10 47h64l19 92h54l-19 -92h68l-10 -47h-68l-34 -160l-2 -14q0 -9 5.5 -12.5t18.5 -3.5h47l-10 -48h-55q-29 0 -45.5 13.5z" />
    <glyph glyph-name="u.sups" horiz-adv-x="335" 
d="M125.5 435q-23.5 25 -23.5 66q0 15 3 31l36 168h54l-36 -168q-3 -12 -3 -23q0 -23 12.5 -36.5t37.5 -13.5h1q31 0 55.5 25t36.5 80l29 136h54l-61 -284h-54l7 31q-14 -17 -35.5 -27t-49.5 -10q-40 0 -63.5 25z" />
    <glyph glyph-name="v.sups" horiz-adv-x="303" 
d="M109 700h53l33 -231l132 231h59l-167 -285h-65z" />
    <glyph glyph-name="w.sups" horiz-adv-x="450" 
d="M106 700h52l17 -228l111 228h57l18 -226l109 226h59l-149 -285h-60l-15 223l-111 -223h-59z" />
    <glyph glyph-name="x.sups" horiz-adv-x="300" 
d="M184 559l-72 141h59l50 -98l93 98h65l-132 -140l75 -145h-60l-53 102l-95 -102h-65z" />
    <glyph glyph-name="y.sups" horiz-adv-x="316" 
d="M48 350h52q14 0 24.5 5.5t18.5 20.5l28 47l-66 277h55l49 -214l129 214h62l-208 -342q-21 -35 -42.5 -46.5t-55.5 -11.5h-57z" />
    <glyph glyph-name="z.sups" horiz-adv-x="291" 
d="M74 463l200 190h-157l10 47h225l-10 -49l-201 -190h169l-9 -46h-237z" />
    <glyph glyph-name="zero.zero" horiz-adv-x="650" 
d="M130.5 62.5q-59.5 72.5 -59.5 198.5q0 96 33 199.5t107 176.5t189 73q103 0 162.5 -72t59.5 -198q0 -96 -33 -200t-107 -177t-189 -73q-103 0 -162.5 72.5zM430 106.5q57 51.5 90.5 139t33.5 190.5q0 44 -9 81l-370 -398q41 -64 121 -64h10q67 0 124 51.5zM148 183
l370 398q-41 64 -119 64h-10q-67 0 -124.5 -51.5t-91.5 -139t-34 -190.5q0 -43 9 -81z" />
    <glyph glyph-name="zero.osf" horiz-adv-x="613" 
d="M164.5 22.5q-54.5 32.5 -84 87t-29.5 118.5q0 77 35.5 141.5t98.5 102.5t141 38q69 0 123 -32t83.5 -87t29.5 -122q0 -76 -35 -140t-97 -101.5t-141 -37.5q-70 0 -124.5 32.5zM399.5 73.5q45.5 28.5 71.5 79.5t26 116q0 84 -48 135t-129 51q-59 0 -105.5 -29.5
t-72.5 -81.5t-26 -116q0 -84 48 -133.5t132 -49.5h1q57 0 102.5 28.5z" />
    <glyph glyph-name="one.osf" horiz-adv-x="296" 
d="M165 338h-121l10 48q57 0 96 30t61 84h51l-106 -500h-63z" />
    <glyph glyph-name="two.osf" horiz-adv-x="447" 
d="M20 71l243 186q49 38 67 61t18 57q0 35 -25.5 57.5t-68.5 22.5h-7q-40 0 -70.5 -31t-38.5 -78h-65q8 64 53 114t129 50q71 0 114.5 -36t43.5 -93q0 -53 -29.5 -90t-90.5 -83l-205 -153h279l-13 -55h-352z" />
    <glyph glyph-name="three.osf" horiz-adv-x="546" 
d="M39.5 -159q-62.5 51 -62.5 137h68q0 -58 44.5 -95.5t117.5 -37.5q48 0 86.5 20.5t59.5 56.5t21 79q0 57 -36.5 89.5t-102.5 32.5h-36l11 55h66q39 0 75 18t58 50t22 72q0 64 -40.5 100.5t-107.5 36.5q-61 0 -102 -36.5t-51 -98.5h-68q5 51 33.5 94.5t78 69.5t113.5 26
q62 0 109.5 -23t73.5 -65t26 -96q0 -69 -42 -117t-105 -65q40 -19 65 -56.5t25 -89.5q0 -57 -29 -104.5t-83 -75.5t-125 -28q-100 0 -162.5 51z" />
    <glyph glyph-name="four.osf" horiz-adv-x="570" 
d="M321 0h-345l15 71l409 429h92l-95 -445h115l-12 -55h-114l-43 -200h-65zM333 55l82 379l-358 -379h276z" />
    <glyph glyph-name="five.osf" horiz-adv-x="548" 
d="M48.5 -160.5q-60.5 49.5 -59.5 140.5h62q1 -64 42.5 -99.5t107.5 -35.5h10q73 0 124 47t60 124q1 8 1 23q0 63 -40 103.5t-106 40.5h-10q-48 0 -90.5 -24t-75.5 -69h-55l136 410h371l-12 -58h-317l-84 -251q60 47 144 47q60 0 106.5 -26t72 -70.5t25.5 -99.5
q0 -14 -1 -22q-7 -70 -41 -122t-89.5 -80t-123.5 -28q-97 0 -157.5 49.5z" />
    <glyph glyph-name="six.osf" horiz-adv-x="598" 
d="M134 55q-63 65 -63 204q0 116 35 219t106 167.5t173 64.5q86 0 144 -47t67 -128h-65q-8 55 -48.5 87.5t-101.5 32.5q-92 0 -151.5 -76t-85.5 -209q30 45 80 67.5t107 22.5q61 0 110 -26.5t76.5 -74.5t27.5 -112q0 -67 -29.5 -126t-86 -95t-132.5 -36q-100 0 -163 65z
M397 71.5q39 26.5 61 71.5t22 99q0 73 -40.5 118t-114.5 45h-9q-51 0 -92 -23t-64.5 -65.5t-23.5 -96.5q0 -76 44.5 -125.5t117.5 -49.5h10q50 0 89 26.5z" />
    <glyph glyph-name="seven.osf" horiz-adv-x="501" 
d="M145 93q44 121 121 214.5t178 137.5h-386l11 55h467l-15 -70q-164 -69 -255 -225.5t-110 -381.5l-2 -23h-65l3 44q9 128 53 249z" />
    <glyph glyph-name="eight.osf" horiz-adv-x="557" 
d="M97 39.5q-57 49.5 -57 130.5q0 74 47 128t126 67q-40 18 -63 53.5t-23 84.5q0 58 29.5 105.5t81.5 74.5t117 27q57 0 101 -22.5t68 -61.5t24 -86q0 -15 -1 -22q-8 -66 -50.5 -109.5t-107.5 -59.5q45 -18 72.5 -57.5t27.5 -92.5q0 -59 -30 -107t-84 -75t-122 -27
q-99 0 -156 49.5zM371.5 91q45.5 39 50.5 100q3 37 -14 67.5t-50.5 48t-77.5 17.5h-13q-47 0 -84 -19.5t-58 -53t-21 -73.5q0 -56 39.5 -91t104.5 -35h10q68 0 113.5 39zM406.5 407.5q35.5 19.5 55.5 52.5t20 72q0 50 -36 83.5t-94 33.5h-10q-43 0 -78.5 -19.5t-55.5 -52.5
t-20 -71q0 -51 35.5 -84.5t93.5 -33.5h10q44 0 79.5 19.5z" />
    <glyph glyph-name="nine.osf" horiz-adv-x="598" 
d="M468 445q63 -65 63 -204q0 -116 -35 -219t-106 -167.5t-173 -64.5q-86 0 -144 47t-67 128h65q8 -55 48.5 -87.5t101.5 -32.5q92 0 151.5 76t85.5 209q-30 -45 -80 -67.5t-107 -22.5q-61 0 -110 26.5t-76.5 74.5t-27.5 112q0 67 29.5 126t86 95t132.5 36q100 0 163 -65z
M205 428.5q-39 -26.5 -61 -71.5t-22 -99q0 -73 40.5 -118t114.5 -45h9q51 0 92 23t64.5 65.5t23.5 96.5q0 76 -44.5 125.5t-117.5 49.5h-10q-50 0 -89 -26.5z" />
    <glyph glyph-name="zero.tf" 
d="M113 61.5q-57 71.5 -57 198.5q0 95 32.5 199.5t103 177.5t178.5 73q65 0 114 -32.5t76 -93.5t27 -144q0 -96 -31.5 -200t-102.5 -177t-180 -73q-103 0 -160 71.5zM413 119q54 64 80 154.5t26 166.5q0 87 -39 146t-110 59q-83 0 -138.5 -64t-81.5 -153.5t-26 -163.5
q0 -94 36 -151.5t119 -57.5q80 0 134 64z" />
    <glyph glyph-name="one.tf" 
d="M22 65h223l96 454h-159l10 48q80 0 127.5 33t73.5 100h51l-134 -635h202l-14 -65h-490z" />
    <glyph glyph-name="two.tf" 
d="M46 70l320 263q53 44 80.5 74.5t37.5 54.5t12 55q2 34 -14 63.5t-47 47t-70 17.5h-10q-67 0 -111 -41t-50 -108h-66q5 63 36 111.5t82 75.5t115 27q60 0 107 -23.5t73 -64.5t26 -91q0 -67 -33.5 -119t-107.5 -112l-287 -233h360l-14 -67h-453z" />
    <glyph glyph-name="three.tf" 
d="M105 39.5q-58 49.5 -59 138.5h69q2 -58 40 -90.5t103 -32.5h10q68 0 117 35t57 100q1 6 1 17q0 53 -42.5 84.5t-102.5 31.5h-32l14 65h52q69 0 117 37.5t48 103.5q0 53 -39 84.5t-96 31.5h-10q-61 0 -103 -35t-52 -90h-68q7 54 38 97.5t81.5 68t112.5 24.5q57 0 104 -21
t74.5 -60t27.5 -91q0 -67 -39.5 -119t-107.5 -71q45 -22 69.5 -63t19.5 -98q-8 -94 -76.5 -145.5t-167.5 -51.5q-102 0 -160 49.5z" />
    <glyph glyph-name="four.tf" 
d="M378 169h-349l13 64l432 467h81l-99 -468h106l-13 -63h-106l-36 -169h-65zM391 232l79 374l-347 -374h268z" />
    <glyph glyph-name="five.tf" 
d="M171 12q-50 22 -81 64.5t-34 103.5h67q6 -59 49.5 -92t102.5 -33h10q54 0 94.5 24t62.5 66t22 93q0 64 -42.5 104.5t-106.5 40.5h-10q-49 0 -90.5 -24.5t-65.5 -65.5h-69l144 407h365l-14 -67h-312l-87 -242q56 54 147 54q63 0 111 -26t74 -72.5t26 -104.5
q0 -74 -32.5 -131.5t-90.5 -89t-131 -31.5q-59 0 -109 22z" />
    <glyph glyph-name="six.tf" 
d="M127.5 54q-59.5 64 -59.5 188q0 60 17 142q30 140 105.5 233t192.5 93q55 0 101 -21.5t74.5 -61t32.5 -92.5h-71q-8 50 -45 80t-92 30h-10q-83 0 -138.5 -74t-83.5 -202q34 46 83.5 68.5t102.5 22.5q61 0 107.5 -26.5t72.5 -73.5t26 -105q0 -19 -1 -28q-8 -73 -45 -127
t-92 -82t-115 -28q-103 0 -162.5 64zM384.5 80.5q41.5 25.5 65.5 70t24 97.5q0 65 -38 106t-104 41h-10q-50 0 -92.5 -25t-67.5 -68.5t-25 -95.5q0 -66 41 -108.5t107 -42.5h10q48 0 89.5 25.5z" />
    <glyph glyph-name="seven.tf" 
d="M281 409.5q89 151.5 234 223.5h-379l11 67h497l-15 -70q-117 -49 -197.5 -126t-128.5 -194.5t-63 -286.5l-2 -23h-69l4 44q19 214 108 365.5z" />
    <glyph glyph-name="eight.tf" 
d="M150.5 15q-51.5 25 -77 69.5t-21.5 103.5q4 66 53 115t121 63q-39 18 -63.5 54.5t-24.5 85.5q0 57 31 103.5t85.5 73.5t121.5 27q59 0 105 -23t72 -62t26 -86q0 -73 -46.5 -124t-114.5 -67q46 -19 75.5 -62.5t25.5 -100.5q-5 -57 -36 -101t-84.5 -69t-123.5 -25
q-73 0 -124.5 25zM367 73.5q39 18.5 61 51.5t22 75q0 52 -41.5 86.5t-107.5 34.5h-13q-48 0 -87 -19t-61 -52t-22 -72q0 -55 41.5 -89t109.5 -34h10q49 0 88 18.5zM430 410q37 19 58 51t21 70q0 48 -37.5 81t-98.5 33h-10q-45 0 -82 -19t-57.5 -50.5t-20.5 -68.5
q0 -50 37 -83t98 -33h10q45 0 82 19z" />
    <glyph glyph-name="nine.tf" 
d="M515.5 646q59.5 -64 59.5 -188q0 -60 -17 -142q-30 -140 -105.5 -233t-192.5 -93q-55 0 -101 21.5t-74.5 61t-32.5 92.5h71q8 -50 45 -80t92 -30h10q83 0 138.5 74t83.5 202q-34 -46 -83.5 -68.5t-102.5 -22.5q-61 0 -107.5 26.5t-72.5 73.5t-26 105q0 19 1 28
q8 73 45 127t92 82t115 28q103 0 162.5 -64zM258.5 619.5q-41.5 -25.5 -65.5 -70t-24 -97.5q0 -65 38 -106t104 -41h10q50 0 92.5 25t67.5 68.5t25 95.5q0 66 -41 108.5t-107 42.5h-10q-48 0 -89.5 -25.5z" />
    <glyph glyph-name="zero.osf.zero" horiz-adv-x="613" 
d="M164.5 22.5q-54.5 32.5 -84 87t-29.5 118.5q0 77 35.5 141.5t98.5 102.5t141 38q69 0 123 -32t83.5 -87t29.5 -122q0 -76 -35 -140t-97 -101.5t-141 -37.5q-70 0 -124.5 32.5zM399.5 73.5q45.5 28.5 71.5 79.5t26 116q0 66 -30 112l-283 -303q46 -33 112 -33h1
q57 0 102.5 28.5zM214.5 425.5q-46.5 -29.5 -72.5 -81.5t-26 -116q0 -65 28 -109l284 304q-45 32 -108 32q-59 0 -105.5 -29.5z" />
    <glyph glyph-name="zero.tf.zero" 
d="M113 61.5q-57 71.5 -57 198.5q0 95 32.5 199.5t103 177.5t178.5 73q65 0 114 -32.5t76 -93.5t27 -144q0 -96 -31.5 -200t-102.5 -177t-180 -73q-103 0 -160 71.5zM413 119q54 64 80 154.5t26 166.5q0 37 -7 68l-358 -385q39 -68 125 -68q80 0 134 64zM231.5 581
q-55.5 -64 -81.5 -153.5t-26 -163.5q0 -40 6 -73l357 383q-19 34 -49 52.5t-68 18.5q-83 0 -138.5 -64z" />
    <glyph glyph-name="zero.dnom" horiz-adv-x="396" 
d="M62 41q-39 46 -39 124q0 10 2 34q10 93 56.5 147t122.5 54q68 0 107.5 -46.5t39.5 -124.5q0 -10 -2 -34q-10 -92 -58 -146t-122 -54q-68 0 -107 46zM250.5 89q30.5 44 37.5 106q2 22 2 32q0 53 -22 88t-67 35h-4q-45 0 -74.5 -44.5t-36.5 -106.5q-2 -22 -2 -33
q0 -53 20.5 -87t62.5 -34h4q49 0 79.5 44z" />
    <glyph glyph-name="one.dnom" horiz-adv-x="205" 
d="M95 273h-73l8 39q77 1 106 83h42l-84 -395h-57z" />
    <glyph glyph-name="two.dnom" horiz-adv-x="333" 
d="M2 68l152 112q52 39 69.5 59.5t17.5 50.5q0 26 -19 43t-45 17h-5q-25 0 -45.5 -18.5t-23.5 -50.5h-61q5 55 42.5 87t94.5 32q56 0 89.5 -30.5t33.5 -77.5q0 -45 -26 -76.5t-82 -71.5l-130 -94h200l-11 -50h-266z" />
    <glyph glyph-name="three.dnom" horiz-adv-x="339" 
d="M31 25q-35 30 -32 84h59q-1 -29 17 -46.5t48 -17.5h5q36 0 60 20.5t24 56.5q0 25 -17.5 40t-44.5 15h-35l10 47h37q38 0 60.5 18.5t22.5 52.5q0 26 -18 40.5t-47 14.5h-5q-29 0 -48 -17.5t-23 -42.5h-59q7 53 44.5 81.5t92.5 28.5q52 0 88 -26.5t36 -72.5
q0 -38 -21.5 -65.5t-55.5 -39.5q23 -13 34.5 -36t8.5 -51q-6 -53 -48.5 -83.5t-100.5 -30.5q-57 0 -92 30z" />
    <glyph glyph-name="four.dnom" horiz-adv-x="343" 
d="M174 96h-185l12 56l223 243h70l-53 -249h54l-11 -50h-54l-20 -96h-56zM185 146l37 176l-161 -176h124z" />
    <glyph glyph-name="five.dnom" horiz-adv-x="338" 
d="M38 24q-32 29 -33 82h59q1 -29 19 -45t47 -16h4q34 0 58.5 25.5t24.5 63.5q0 30 -20 47t-50 17h-3q-41 0 -73 -34h-53l81 231h218l-11 -50h-172l-40 -116q30 19 68 19q53 0 84.5 -30.5t31.5 -78.5q0 -65 -42.5 -104.5t-106.5 -39.5q-59 0 -91 29z" />
    <glyph glyph-name="six.dnom" horiz-adv-x="364" 
d="M54 35.5q-34 40.5 -34 110.5q0 9 2 31q7 70 33 120.5t65.5 76.5t85.5 26q40 0 69 -16t44 -41.5t14 -52.5h-59q-3 27 -21 43t-46 16h-6q-36 0 -68.5 -35t-44.5 -91q16 20 41.5 31t52.5 11q54 0 88.5 -31.5t34.5 -83.5q0 -43 -19.5 -78.5t-55.5 -56t-82 -20.5
q-60 0 -94 40.5zM217.5 73.5q27.5 28.5 27.5 69.5q0 32 -19 52t-50 20h-3q-38 0 -65 -28.5t-27 -71.5q0 -31 18.5 -50.5t49.5 -19.5h3q38 0 65.5 28.5z" />
    <glyph glyph-name="seven.dnom" horiz-adv-x="309" 
d="M243 345h-200l11 50h266l-11 -53q-157 -86 -203 -306l-8 -36h-61l8 36q48 228 198 309z" />
    <glyph glyph-name="eight.dnom" horiz-adv-x="354" 
d="M40 21q-36 26 -36 72q0 40 26 70.5t67 41.5q-44 23 -44 75q0 56 42.5 88t101.5 32q51 0 87.5 -27.5t36.5 -72.5q0 -39 -22.5 -65.5t-58.5 -40.5q23 -12 35 -32t12 -45q0 -57 -43 -89.5t-110 -32.5q-58 0 -94 26zM201 63q25 18 25 53q0 27 -19.5 42t-48.5 15h-5
q-34 0 -60.5 -19t-26.5 -52q0 -27 20 -42t50 -15h5q35 0 60 18zM233.5 241.5q23.5 20.5 23.5 52.5q0 26 -17.5 41t-44.5 15h-5q-31 0 -54.5 -20t-23.5 -54q0 -25 18 -40t44 -15h5q31 0 54.5 20.5z" />
    <glyph glyph-name="nine.dnom" horiz-adv-x="365" 
d="M68 11q-29 16 -44 41.5t-14 52.5h59q3 -27 21 -43t46 -16h6q35 0 66 34.5t47 91.5q-16 -20 -41.5 -31t-52.5 -11q-54 0 -88.5 31.5t-34.5 83.5q0 66 40.5 110.5t103.5 44.5q67 0 103.5 -41t36.5 -112q0 -19 -1 -29q-7 -70 -33 -120.5t-65.5 -76.5t-85.5 -26q-40 0 -69 16
zM235.5 206.5q25.5 26.5 25.5 66.5q0 34 -21 55.5t-53 21.5h-3q-37 0 -61.5 -27.5t-24.5 -68.5q0 -33 20 -53.5t52 -20.5h3q37 0 62.5 26.5z" />
    <glyph glyph-name="zero.numr" horiz-adv-x="394" 
d="M126 346q-39 46 -39 124q0 10 2 34q10 93 56.5 147t122.5 54q68 0 107.5 -46.5t39.5 -124.5q0 -10 -2 -34q-10 -92 -58 -146t-122 -54q-68 0 -107 46zM314.5 394q30.5 44 37.5 106q2 22 2 32q0 53 -22 88t-67 35h-4q-45 0 -74.5 -44.5t-36.5 -106.5q-2 -22 -2 -33
q0 -53 20.5 -87t62.5 -34h4q49 0 79.5 44z" />
    <glyph glyph-name="one.numr" horiz-adv-x="202" 
d="M157 578h-73l8 39q77 1 106 83h42l-84 -395h-57z" />
    <glyph glyph-name="two.numr" horiz-adv-x="330" 
d="M64 373l152 112q52 39 69.5 59.5t17.5 50.5q0 26 -19 43t-45 17h-5q-25 0 -45.5 -18.5t-23.5 -50.5h-61q5 55 42.5 87t94.5 32q56 0 89.5 -30.5t33.5 -77.5q0 -45 -26 -76.5t-82 -71.5l-130 -94h200l-11 -50h-266z" />
    <glyph glyph-name="three.numr" horiz-adv-x="338" 
d="M94 330q-35 30 -32 84h59q-1 -29 17 -46.5t48 -17.5h5q36 0 60 20.5t24 56.5q0 25 -17.5 40t-44.5 15h-35l10 47h37q38 0 60.5 18.5t22.5 52.5q0 26 -18 40.5t-47 14.5h-5q-29 0 -48 -17.5t-23 -42.5h-59q7 53 44.5 81.5t92.5 28.5q52 0 88 -26.5t36 -72.5
q0 -38 -21.5 -65.5t-55.5 -39.5q23 -13 34.5 -36t8.5 -51q-6 -53 -48.5 -83.5t-100.5 -30.5q-57 0 -92 30z" />
    <glyph glyph-name="four.numr" horiz-adv-x="346" 
d="M242 401h-185l12 56l223 243h70l-53 -249h54l-11 -50h-54l-20 -96h-56zM253 451l37 176l-161 -176h124z" />
    <glyph glyph-name="five.numr" horiz-adv-x="331" 
d="M100 329q-32 29 -33 82h59q1 -29 19 -45t47 -16h4q34 0 58.5 25.5t24.5 63.5q0 30 -20 47t-50 17h-3q-41 0 -73 -34h-53l81 231h218l-11 -50h-172l-40 -116q30 19 68 19q53 0 84.5 -30.5t31.5 -78.5q0 -65 -42.5 -104.5t-106.5 -39.5q-59 0 -91 29z" />
    <glyph glyph-name="six.numr" horiz-adv-x="362" 
d="M118 340.5q-34 40.5 -34 110.5q0 9 2 31q7 70 33 120.5t65.5 76.5t85.5 26q40 0 69 -16t44 -41.5t14 -52.5h-59q-3 27 -21 43t-46 16h-6q-36 0 -68.5 -35t-44.5 -91q16 20 41.5 31t52.5 11q54 0 88.5 -31.5t34.5 -83.5q0 -43 -19.5 -78.5t-55.5 -56t-82 -20.5
q-60 0 -94 40.5zM281.5 378.5q27.5 28.5 27.5 69.5q0 32 -19 52t-50 20h-3q-38 0 -65 -28.5t-27 -71.5q0 -31 18.5 -50.5t49.5 -19.5h3q38 0 65.5 28.5z" />
    <glyph glyph-name="seven.numr" horiz-adv-x="294" 
d="M300 650h-200l11 50h266l-11 -53q-157 -86 -203 -306l-8 -36h-61l8 36q48 228 198 309z" />
    <glyph glyph-name="eight.numr" horiz-adv-x="351" 
d="M103 326q-36 26 -36 72q0 40 26 70.5t67 41.5q-44 23 -44 75q0 56 42.5 88t101.5 32q51 0 87.5 -27.5t36.5 -72.5q0 -39 -22.5 -65.5t-58.5 -40.5q23 -12 35 -32t12 -45q0 -57 -43 -89.5t-110 -32.5q-58 0 -94 26zM264 368q25 18 25 53q0 27 -19.5 42t-48.5 15h-5
q-34 0 -60.5 -19t-26.5 -52q0 -27 20 -42t50 -15h5q35 0 60 18zM296.5 546.5q23.5 20.5 23.5 52.5q0 26 -17.5 41t-44.5 15h-5q-31 0 -54.5 -20t-23.5 -54q0 -25 18 -40t44 -15h5q31 0 54.5 20.5z" />
    <glyph glyph-name="nine.numr" horiz-adv-x="362" 
d="M131 316q-29 16 -44 41.5t-14 52.5h59q3 -27 21 -43t46 -16h6q35 0 66 34.5t47 91.5q-16 -20 -41.5 -31t-52.5 -11q-54 0 -88.5 31.5t-34.5 83.5q0 66 40.5 110.5t103.5 44.5q67 0 103.5 -41t36.5 -112q0 -19 -1 -29q-7 -70 -33 -120.5t-65.5 -76.5t-85.5 -26
q-40 0 -69 16zM298.5 511.5q25.5 26.5 25.5 66.5q0 34 -21 55.5t-53 21.5h-3q-37 0 -61.5 -27.5t-24.5 -68.5q0 -33 20 -53.5t52 -20.5h3q37 0 62.5 26.5z" />
    <glyph glyph-name="zero.dnom.zero" horiz-adv-x="396" 
d="M62 41q-39 46 -39 124q0 10 2 34q10 93 56.5 147t122.5 54q68 0 107.5 -46.5t39.5 -124.5q0 -10 -2 -34q-10 -92 -58 -146t-122 -54q-68 0 -107 46zM250.5 89q30.5 44 37.5 106q2 24 2 34q0 19 -3 37l-179 -192q21 -29 59 -29h4q49 0 79.5 44zM84 164q0 -20 3 -38
l179 192q-24 32 -65 32h-4q-45 0 -74.5 -44.5t-36.5 -106.5q-2 -24 -2 -35z" />
    <glyph glyph-name="zero.numr.zero" horiz-adv-x="394" 
d="M126 346q-39 46 -39 124q0 10 2 34q10 93 56.5 147t122.5 54q68 0 107.5 -46.5t39.5 -124.5q0 -10 -2 -34q-10 -92 -58 -146t-122 -54q-68 0 -107 46zM314.5 394q30.5 44 37.5 106q2 24 2 34q0 19 -3 37l-179 -192q21 -29 59 -29h4q49 0 79.5 44zM148 469q0 -20 3 -38
l179 192q-24 32 -65 32h-4q-45 0 -74.5 -44.5t-36.5 -106.5q-2 -24 -2 -35z" />
    <glyph glyph-name="uni2080.zero" horiz-adv-x="395" 
d="M37 -74q-39 46 -39 124q0 10 2 34q10 93 56.5 147t122.5 54q68 0 107.5 -46.5t39.5 -124.5q0 -10 -2 -34q-10 -92 -58 -146t-122 -54q-68 0 -107 46zM225.5 -26q30.5 44 37.5 106q2 24 2 34q0 19 -3 37l-179 -192q21 -29 59 -29h4q49 0 79.5 44zM59 49q0 -20 3 -38
l179 192q-24 32 -65 32h-4q-45 0 -74.5 -44.5t-36.5 -106.5q-2 -24 -2 -35z" />
    <glyph glyph-name="uni2070.zero" horiz-adv-x="394" 
d="M149 456q-39 46 -39 124q0 10 2 34q10 93 56.5 147t122.5 54q68 0 107.5 -46.5t39.5 -124.5q0 -10 -2 -34q-10 -92 -58 -146t-122 -54q-68 0 -107 46zM337.5 504q30.5 44 37.5 106q2 24 2 34q0 19 -3 37l-179 -192q21 -29 59 -29h4q49 0 79.5 44zM171 579q0 -20 3 -38
l179 192q-24 32 -65 32h-4q-45 0 -74.5 -44.5t-36.5 -106.5q-2 -24 -2 -35z" />
    <glyph glyph-name="space.tf" 
 />
    <glyph glyph-name="exclamdown.case" horiz-adv-x="254" 
d="M248.5 699q13.5 -14 13.5 -34q0 -23 -18 -40.5t-41 -17.5q-20 0 -33.5 14t-13.5 34q0 23 18 40.5t41 17.5q20 0 33.5 -14zM156 210l-45 -210h-70l45 210l85 307h30z" />
    <glyph glyph-name="questiondown.case" horiz-adv-x="476" 
d="M309.5 336.5q-22.5 -21.5 -54.5 -30.5l-62 -18q-52 -16 -79.5 -45.5t-27.5 -82.5q0 -46 34.5 -75t96.5 -29q57 0 99 30.5t49 89.5h68q-5 -60 -37 -102t-80.5 -62.5t-105.5 -20.5q-53 0 -97 20t-70 58.5t-26 90.5q0 66 39.5 116t108.5 71l62 19q28 9 37 20.5t14 35.5
l19 84h66l-25 -120q-6 -28 -28.5 -49.5zM398.5 700q13.5 -14 13.5 -34q0 -23 -18 -40.5t-41 -17.5q-20 0 -33.5 14t-13.5 34q0 23 18 40.5t41 17.5q20 0 33.5 -14z" />
    <glyph glyph-name="period.tf" 
d="M221.5 4q-13.5 14 -13.5 34q0 23 18 40.5t41 17.5q20 0 33.5 -14t13.5 -34q0 -23 -18 -40.5t-41 -17.5q-20 0 -33.5 14z" />
    <glyph glyph-name="comma.tf" 
d="M147 -75h30q30 0 47.5 14t24.5 44l4 17h-55l21 100h100l-26 -120q-11 -50 -39.5 -72.5t-75.5 -22.5h-40z" />
    <glyph glyph-name="colon.tf" 
d="M216.5 4q-13.5 14 -13.5 34q0 23 18 40.5t41 17.5q20 0 33.5 -14t13.5 -34q0 -23 -18 -40.5t-41 -17.5q-20 0 -33.5 14zM305.5 419q-13.5 14 -13.5 34q0 23 18 40.5t41 17.5q20 0 33.5 -14t13.5 -34q0 -23 -18 -40.5t-41 -17.5q-20 0 -33.5 14z" />
    <glyph glyph-name="semicolon.tf" 
d="M150 -75h30q30 0 47.5 14t24.5 44l4 17h-55l21 100h100l-26 -120q-11 -50 -39.5 -72.5t-75.5 -22.5h-40zM308.5 419q-13.5 14 -13.5 34q0 23 18 40.5t41 17.5q20 0 33.5 -14t13.5 -34q0 -23 -18 -40.5t-41 -17.5q-20 0 -33.5 14z" />
    <glyph glyph-name="numbersign.tf" 
d="M147 189h-96v55h107l46 211h-133v55h144l41 190h65l-41 -190h157l39 190h65l-39 -190h88v-55h-100l-43 -211h123v-55h-135l-39 -189h-65l39 189h-158l-41 -189h-65zM382 244l43 211h-156l-46 -211h159z" />
    <glyph glyph-name="hyphen.case" horiz-adv-x="374" 
d="M87 378h250l-12 -55h-250z" />
    <glyph glyph-name="endash.case" horiz-adv-x="554" 
d="M87 378h430l-12 -55h-430z" />
    <glyph glyph-name="emdash.case" horiz-adv-x="874" 
d="M87 378h750l-12 -55h-750z" />
    <glyph glyph-name="uni2015.case" horiz-adv-x="874" 
d="M87 378h750l-12 -55h-750z" />
    <glyph glyph-name="parenleft.case" horiz-adv-x="335" 
d="M122 80.5q-50 70.5 -50 202.5q0 112 41.5 210.5t115.5 157.5t166 59l-14 -65q-66 -5 -120.5 -52.5t-86.5 -128t-32 -178.5q0 -91 26.5 -147t87.5 -84l-14 -65q-70 20 -120 90.5z" />
    <glyph glyph-name="parenright.case" horiz-adv-x="334" 
d="M255 619.5q50 -70.5 50 -202.5q0 -112 -41.5 -210.5t-115.5 -157.5t-166 -59l14 65q66 5 120.5 52.5t86.5 128t32 178.5q0 91 -26.5 147t-87.5 84l14 65q70 -20 120 -90.5z" />
    <glyph glyph-name="braceleft.case" horiz-adv-x="352" 
d="M136 30q-31 30 -31 78q0 19 4 35l21 97q2 12 2 16q0 13 -8 18.5t-25 5.5h-45l27 140h48q22 0 32 13t18 48l19 86q15 70 47.5 101.5t84.5 31.5h75l-14 -65h-37q-42 0 -62 -19.5t-31 -68.5l-23 -110q-8 -41 -28 -59t-56 -18h-24l-5 -20h6q36 0 54 -16.5t18 -46.5
q0 -12 -3 -26l-21 -98q-4 -16 -4 -32q0 -30 17.5 -43t53.5 -13h27l-14 -65h-39q-53 0 -84 30z" />
    <glyph glyph-name="braceright.case" horiz-adv-x="351" 
d="M258 671q31 -30 31 -78q0 -19 -4 -35l-21 -97q-2 -12 -2 -16q0 -13 8 -18.5t25 -5.5h45l-27 -140h-48q-22 0 -32 -13t-18 -48l-19 -86q-15 -70 -47.5 -101.5t-84.5 -31.5h-75l14 65h37q42 0 62 19.5t31 68.5l23 110q8 41 28 59t56 18h24l5 20h-6q-36 0 -54 16.5t-18 46.5
q0 13 3 26l21 98q4 16 4 32q0 30 -17.5 43t-53.5 13h-27l14 65h39q53 0 84 -30z" />
    <glyph glyph-name="bracketleft.case" horiz-adv-x="323" 
d="M192 700h185l-14 -65h-115l-121 -570h115l-14 -65h-185z" />
    <glyph glyph-name="bracketright.case" horiz-adv-x="322" 
d="M173 0h-185l14 65h115l121 570h-115l14 65h185z" />
    <glyph glyph-name="guillemotleft.case" horiz-adv-x="527" 
d="M266 350l190 215h81l-199 -224l96 -206h-69zM66 350l190 215h81l-199 -224l96 -206h-69z" />
    <glyph glyph-name="guillemotright.case" horiz-adv-x="527" 
d="M303 350l-190 -215h-81l199 224l-96 206h69zM503 350l-190 -215h-81l199 224l-96 206h69z" />
    <glyph glyph-name="guilsinglleft.case" horiz-adv-x="327" 
d="M66 350l190 215h81l-199 -224l96 -206h-69z" />
    <glyph glyph-name="guilsinglright.case" horiz-adv-x="327" 
d="M231 359l-96 206h69l99 -215l-190 -215h-81z" />
    <glyph glyph-name="florin.tf" 
d="M43 -135h38q54 0 83 27.5t44 92.5l92 400h-141l12 60h143l17 75q21 91 70.5 135.5t124.5 44.5h51l-14 -65h-41q-96 0 -123 -116l-17 -74h130l-12 -60h-132l-92 -404q-23 -98 -72.5 -139.5t-133.5 -41.5h-41z" />
    </font>
</defs>
</svg>
