<?xml version="1.0" standalone="no"?>
<!DOCTYPE svg PUBLIC "-//W3C//DTD SVG 1.1//EN" "http://www.w3.org/Graphics/SVG/1.1/DTD/svg11.dtd" >
<svg xmlns="http://www.w3.org/2000/svg" xmlns:xlink="http://www.w3.org/1999/xlink" version="1.1">
<metadata>
Created by FontForge 20201107 at Fri Jan 24 12:20:51 2025
 By 
OpenAI OpCo. L.L.C.
</metadata>
<defs>
<font id="OpenAISans-Regular" horiz-adv-x="600" >
  <font-face 
    font-family="OpenAI Sans"
    font-weight="400"
    font-stretch="normal"
    units-per-em="1000"
    panose-1="2 11 4 4 3 2 2 6 2 3"
    ascent="800"
    descent="-200"
    x-height="500"
    cap-height="700"
    bbox="-156 -258 2145 1334"
    underline-thickness="50"
    underline-position="-125"
    unicode-range="U+000D-FB02"
  />
<missing-glyph horiz-adv-x="683" 
d="M92 700h500v-700h-500v700zM522 68v564h-360v-564h360z" />
    <glyph glyph-name="fi" unicode="fi" horiz-adv-x="628" 
d="M131 427h-112v73h112v83q0 117 118 117h118v-74h-101q-28 0 -39 -10.5t-11 -39.5v-76h335v-500h-85v427h-250v-427h-85v427zM469.5 604q-16.5 16 -16.5 38q0 23 16 39.5t39 16.5t39 -16.5t16 -39.5q0 -22 -16.5 -38t-38.5 -16t-38.5 16z" />
    <glyph glyph-name="fl" unicode="fl" horiz-adv-x="628" 
d="M131 427h-112v73h112v83q0 117 118 117h302v-700h-85v626h-200q-28 0 -39 -10.5t-11 -39.5v-76h126v-73h-126v-427h-85v427z" />
    <glyph glyph-name="f_f" unicode="ff" horiz-adv-x="696" 
d="M131 427h-112v73h112v83q0 117 118 117h118v-74h-101q-28 0 -39 -10.5t-11 -39.5v-76h250v83q0 117 118 117h118v-74h-101q-28 0 -39 -10.5t-11 -39.5v-76h126v-73h-126v-427h-85v427h-250v-427h-85v427z" />
    <glyph glyph-name="f_f_i" unicode="ffi" horiz-adv-x="963" 
d="M131 427h-112v73h112v83q0 117 118 117h118v-74h-101q-28 0 -39 -10.5t-11 -39.5v-76h250v83q0 117 118 117h118v-74h-101q-28 0 -39 -10.5t-11 -39.5v-76h335v-500h-85v427h-250v-427h-85v427h-250v-427h-85v427zM804.5 604q-16.5 16 -16.5 38q0 23 16 39.5t39 16.5
t39 -16.5t16 -39.5q0 -22 -16.5 -38t-38.5 -16t-38.5 16z" />
    <glyph glyph-name="f_f_l" unicode="ffl" horiz-adv-x="963" 
d="M131 427h-112v73h112v83q0 117 118 117h118v-74h-101q-28 0 -39 -10.5t-11 -39.5v-76h250v83q0 117 118 117h302v-700h-85v626h-200q-28 0 -39 -10.5t-11 -39.5v-76h126v-73h-126v-427h-85v427h-250v-427h-85v427z" />
    <glyph glyph-name="w_w_w.liga" unicode="www" horiz-adv-x="2062" 
d="M19 500h89l119 -411l111 411h95l116 -413l115 413h89l120 -411l111 411h94l116 -413l115 413h89l120 -411l111 411h94l116 -413l116 413h88l-157 -500h-99l-111 404l-111 -404h-99l-113 359l-112 -359h-99l-111 404l-111 -404h-99l-113 359l-113 -359h-99l-111 404
l-111 -404h-98z" />
    <glyph glyph-name=".notdef" horiz-adv-x="683" 
d="M92 700h500v-700h-500v700zM522 68v564h-360v-564h360z" />
    <glyph glyph-name=".null" horiz-adv-x="0" 
 />
    <glyph glyph-name="nonmarkingreturn" unicode="&#xd;" horiz-adv-x="244" 
 />
    <glyph glyph-name="space" unicode=" " horiz-adv-x="244" 
 />
    <glyph glyph-name="exclam" unicode="!" horiz-adv-x="265" 
d="M86.5 8q-18.5 19 -18.5 45q0 27 18.5 46t45.5 19t45.5 -19t18.5 -46q0 -26 -18.5 -45t-45.5 -19t-45.5 19zM88 480v220h89v-220l-23 -290h-43z" />
    <glyph glyph-name="quotedbl" unicode="&#x22;" horiz-adv-x="352" 
d="M211 620v80h85v-80l-28 -133h-34zM56 620v80h85v-80l-28 -133h-34z" />
    <glyph glyph-name="numbersign" unicode="#" horiz-adv-x="677" 
d="M142 180h-106v75h122l40 190h-119v75h135l39 180h81l-39 -180h157l37 180h82l-37 -180h106v-75h-122l-39 -190h119v-75h-135l-37 -180h-82l37 180h-158l-39 -180h-81zM397 255l39 190h-157l-40 -190h158z" />
    <glyph glyph-name="dollar" unicode="$" horiz-adv-x="617" 
d="M282 -9l-19 -111h-77l21 123q-79 22 -122.5 78t-44.5 142h89q1 -49 25 -83.5t67 -51.5l39 231l-20 4q-174 34 -174 188q0 55 29.5 100.5t85 72t129.5 26.5h15l19 110h77l-20 -122q75 -21 118 -74.5t46 -131.5h-90q-3 43 -26 75t-62 48l-37 -218l25 -5q91 -17 141 -67.5
t50 -133.5q0 -61 -31.5 -106.5t-89 -70t-133.5 -24.5q-20 0 -30 1zM259 413l16 -3l37 219h-8q-67 0 -108.5 -33t-41.5 -83q0 -81 105 -100zM313 72h10q71 0 111.5 32.5t40.5 82.5q0 92 -119 114l-22 4l-39 -233h18z" />
    <glyph glyph-name="percent" unicode="%" horiz-adv-x="918" 
d="M631 700h78l-420 -700h-78zM76 355.5q-45 55.5 -45 147.5t45 147t122 55t121.5 -55t44.5 -147t-44.5 -147.5t-121.5 -55.5t-122 55.5zM269.5 402q24.5 43 24.5 101t-24.5 100.5t-69.5 42.5h-4q-45 0 -70 -43t-25 -100q0 -58 25 -101t70 -43h4q45 0 69.5 43zM598 50.5
q-45 55.5 -45 147.5t45 147t122 55t122 -55t45 -147t-45 -147.5t-122 -55.5t-122 55.5zM791.5 97q24.5 43 24.5 101t-24.5 100.5t-69.5 42.5h-4q-45 0 -69.5 -42.5t-24.5 -100.5t24.5 -101t69.5 -43h4q45 0 69.5 43z" />
    <glyph glyph-name="ampersand" unicode="&#x26;" horiz-adv-x="677" 
d="M167.5 10.5q-52.5 21.5 -84 66t-31.5 109.5q0 68 33.5 117t103.5 83q-35 44 -50 79t-15 78q0 48 23 86.5t63 60t90 21.5q53 0 94.5 -21.5t64.5 -59t23 -81.5q0 -62 -40 -110.5t-116 -75.5l-7 -2l163 -175q36 66 36 151v25h84v-28q0 -57 -16.5 -111t-47.5 -98l116 -125
h-109l-60 65q-86 -76 -203 -76q-62 0 -114.5 21.5zM181 101q40 -33 104 -33q87 0 147 54l-189 203l-5 5q-53 -26 -75 -60t-22 -78q0 -58 40 -91zM218 484q15 -28 50 -67l21 7q63 22 86.5 52t23.5 72q0 39 -26.5 64.5t-71.5 25.5q-44 0 -71 -25.5t-27 -68.5q0 -32 15 -60z
" />
    <glyph glyph-name="quotesingle" unicode="'" horiz-adv-x="197" 
d="M56 620v80h85v-80l-28 -133h-34z" />
    <glyph glyph-name="parenleft" unicode="(" horiz-adv-x="352" 
d="M119 5.5q-68 139.5 -68 344.5q0 204 68 342t211 153v-76q-104 -20 -148 -134t-44 -285t44 -285t148 -134v-76q-143 11 -211 150.5z" />
    <glyph glyph-name="parenright" unicode=")" horiz-adv-x="352" 
d="M233 694.5q68 -139.5 68 -344.5q0 -204 -68 -342t-211 -153v76q104 20 148 134t44 285t-44 285t-148 134v76q143 -11 211 -150.5z" />
    <glyph glyph-name="asterisk" unicode="*" horiz-adv-x="409" 
d="M96 454l59 102h-117v56h117l-59 102l50 29l59 -102l59 102l49 -29l-59 -102h117v-56h-117l59 -102l-50 -29l-58 102l-60 -102z" />
    <glyph glyph-name="plus" unicode="+" horiz-adv-x="592" 
d="M253 219h-204v77h204v204h87v-204h203v-77h-203v-204h-87v204z" />
    <glyph glyph-name="comma" unicode="," horiz-adv-x="257" 
d="M37 -75h33q60 0 60 60v15h-58v113h113v-133q0 -55 -29 -83.5t-82 -28.5h-37v57z" />
    <glyph glyph-name="hyphen" unicode="-" horiz-adv-x="377" 
d="M57 340h263v-75h-263v75z" />
    <glyph glyph-name="period" unicode="." horiz-adv-x="243" 
d="M76 9q-19 19 -19 45q0 27 19 46t45 19q27 0 46 -19t19 -46q0 -26 -19 -45t-46 -19q-26 0 -45 19z" />
    <glyph glyph-name="slash" unicode="/" horiz-adv-x="394" 
d="M287 700h90l-270 -700h-90z" />
    <glyph glyph-name="zero" unicode="0" horiz-adv-x="655" 
d="M127.5 82.5q-71.5 92.5 -71.5 267.5t71.5 267.5t200.5 92.5t200 -92.5t71 -267.5t-71 -267.5t-200 -92.5t-200.5 92.5zM417.5 94.5q40.5 26.5 67 89.5t26.5 166t-26.5 166t-67 89.5t-84.5 26.5h-10q-44 0 -84.5 -26.5t-67.5 -89.5t-27 -166t27 -166t67.5 -89.5
t84.5 -26.5h10q44 0 84.5 26.5z" />
    <glyph glyph-name="one" unicode="1" horiz-adv-x="339" 
d="M160 508h-139v61q62 1 103.5 36.5t53.5 94.5h67v-700h-85v508z" />
    <glyph glyph-name="two" unicode="2" horiz-adv-x="562" 
d="M47 94l244 235q50 48 72 71t37.5 53.5t15.5 66.5q0 49 -36 80.5t-90 31.5h-10q-60 0 -98 -39.5t-38 -99.5h-90q0 64 30 113.5t82 76.5t118 27q62 0 112 -23t79 -65t29 -99q0 -48 -19.5 -89.5t-49 -75.5t-76.5 -78l-209 -198h364v-82h-467v94z" />
    <glyph glyph-name="three" unicode="3" horiz-adv-x="576" 
d="M114.5 41.5q-62.5 51.5 -70.5 139.5h87q8 -54 46 -83.5t97 -29.5h9q64 0 106.5 33t42.5 90q0 58 -42.5 92t-106.5 34h-49v78h52q57 0 94.5 33.5t37.5 83.5q0 55 -38 87.5t-97 32.5h-9q-55 0 -92.5 -32.5t-39.5 -82.5h-85q1 54 30.5 98.5t81 69.5t114.5 25q62 0 113 -23
t80.5 -65.5t29.5 -98.5q0 -59 -31.5 -102.5t-82.5 -62.5q55 -16 91.5 -60t36.5 -110q0 -59 -31.5 -104t-86.5 -69.5t-123 -24.5q-102 0 -164.5 51.5z" />
    <glyph glyph-name="four" unicode="4" horiz-adv-x="611" 
d="M383 162h-346v89l343 449h89v-460h111v-78h-111v-162h-86v162zM383 240v344l-262 -344h262z" />
    <glyph glyph-name="five" unicode="5" horiz-adv-x="576" 
d="M125 41q-67 51 -78 142h88q10 -53 50 -84t95 -31h10q68 0 109.5 44.5t41.5 113.5q0 42 -19.5 75t-53.5 51.5t-75 18.5h-10q-43 0 -81.5 -23.5t-55.5 -59.5h-86l58 412h382v-82h-315l-32 -227q55 56 150 56q65 0 116.5 -28.5t80.5 -78t29 -111.5q0 -71 -31 -125t-86 -84
t-125 -30q-95 0 -162 51z" />
    <glyph glyph-name="six" unicode="6" horiz-adv-x="607" 
d="M176 30q-58 40 -89.5 116.5t-31.5 182.5q0 112 32 198.5t92 134.5t140 48q89 0 150.5 -47.5t77.5 -130.5h-89q-11 43 -49.5 71t-86.5 28h-8q-79 0 -122.5 -73t-51.5 -202q28 50 78.5 77t108.5 27q64 0 115.5 -29t81 -81t29.5 -119q0 -71 -31.5 -126t-86 -85t-122.5 -30
q-79 0 -137 40zM392.5 89q33.5 20 53 55.5t19.5 80.5t-19.5 81t-52.5 56t-74 20h-10q-41 0 -76 -20.5t-55.5 -56.5t-20.5 -79q0 -44 21 -80t55.5 -56.5t75.5 -20.5h10q40 0 73.5 20z" />
    <glyph glyph-name="seven" unicode="7" horiz-adv-x="518" 
d="M214 392q70 150 194 226h-389v82h478v-90q-134 -83 -199.5 -225.5t-65.5 -364.5v-20h-88v29q0 213 70 363z" />
    <glyph glyph-name="eight" unicode="8" horiz-adv-x="591" 
d="M169.5 15q-54.5 25 -84 70t-29.5 103q0 61 37.5 109t90.5 62q-49 18 -81.5 62t-32.5 104q0 51 29 93t80.5 67t116.5 25t116 -25t80 -67t29 -93q0 -59 -32.5 -103t-81.5 -63q52 -14 90 -62t38 -109q0 -58 -29.5 -103t-84 -70t-125.5 -25q-72 0 -126.5 25zM407 102.5
q40 34.5 40 89.5q0 54 -40.5 89t-105.5 35h-10q-66 0 -106.5 -35t-40.5 -89q0 -55 40.5 -89.5t106.5 -34.5h10q66 0 106 34.5zM397.5 430q36.5 34 36.5 86q0 49 -36.5 82.5t-96.5 33.5h-10q-60 0 -97 -33.5t-37 -82.5q0 -52 36.5 -86t97.5 -34h10q60 0 96.5 34z" />
    <glyph glyph-name="nine" unicode="9" horiz-adv-x="608" 
d="M133.5 37q-58.5 47 -73.5 131h88q12 -46 45.5 -72.5t81.5 -26.5h11q79 0 126 73.5t54 200.5q-28 -49 -77.5 -76t-107.5 -27q-64 0 -115.5 29t-81 81t-29.5 119q0 72 31 126.5t86 84.5t123 30q78 0 136.5 -40.5t90 -116.5t31.5 -182q0 -114 -35 -200.5t-96.5 -133.5
t-140.5 -47q-89 0 -147.5 47zM374.5 338.5q34.5 20.5 55 56t20.5 79.5t-20.5 80t-55 56.5t-75.5 20.5h-10q-40 0 -73.5 -20t-53 -55.5t-19.5 -80.5t19.5 -81t52.5 -56t74 -20h10q41 0 75.5 20.5z" />
    <glyph glyph-name="colon" unicode=":" horiz-adv-x="267" 
d="M88 9q-19 19 -19 45q0 27 19 46t46 19q26 0 45 -19t19 -46q0 -26 -19 -45t-45 -19q-27 0 -46 19zM88 401q-19 19 -19 46q0 26 19 45t46 19q26 0 45 -19t19 -45q0 -27 -19 -46t-45 -19q-27 0 -46 19z" />
    <glyph glyph-name="semicolon" unicode=";" horiz-adv-x="286" 
d="M52 -75h34q60 0 60 60v15h-59v113h114v-133q0 -55 -29.5 -83.5t-82.5 -28.5h-37v57zM98.5 401q-18.5 19 -18.5 46q0 26 18.5 45t45.5 19t45.5 -19t18.5 -45q0 -27 -18.5 -46t-45.5 -19t-45.5 19z" />
    <glyph glyph-name="less" unicode="&#x3c;" horiz-adv-x="550" 
d="M53 221v72l425 176v-89l-304 -121l304 -119v-95z" />
    <glyph glyph-name="equal" unicode="=" horiz-adv-x="616" 
d="M61 387h494v-79h-494v79zM61 206h494v-78h-494v78z" />
    <glyph glyph-name="greater" unicode="&#x3e;" horiz-adv-x="549" 
d="M71 133l304 121l-304 119v95l425 -176v-72l-425 -176v89z" />
    <glyph glyph-name="question" unicode="?" horiz-adv-x="481" 
d="M167.5 347q15.5 23 53.5 38l27 11q38 15 62 29t39 37t15 58q0 49 -33 80.5t-92 31.5q-55 0 -88 -29t-40 -81h-88q3 58 33 100.5t79 65t107 22.5q59 0 107 -23t75.5 -65t27.5 -96q0 -130 -131 -184l-36 -15q-29 -12 -37 -20t-8 -29v-76h-88v84q0 38 15.5 61zM149.5 8
q-18.5 19 -18.5 45q0 27 18.5 46t45.5 19t45.5 -19t18.5 -46q0 -26 -18.5 -45t-45.5 -19t-45.5 19z" />
    <glyph glyph-name="at" unicode="@" horiz-adv-x="921" 
d="M255 -76q-97 49 -152.5 147t-55.5 239q0 127 59 222.5t155 146.5t205 51q115 0 207 -49.5t144.5 -136.5t52.5 -193q0 -81 -28.5 -139t-74.5 -87.5t-97 -29.5h-98v69q-15 -33 -49.5 -56t-81.5 -23q-51 0 -93 26t-66.5 75t-24.5 114t24.5 112.5t66.5 72.5t93 25
q46 0 78.5 -22t49.5 -55v67h76v-337h20q28 0 55.5 19t46 61t18.5 108q0 90 -39 159t-111 107t-169 38q-91 0 -167.5 -42.5t-121.5 -121t-45 -181.5q0 -111 43.5 -192.5t122.5 -124.5t182 -43h245v-75h-250q-123 0 -220 49zM536 195.5q33 42.5 33 104.5t-31.5 102t-79.5 40
h-6q-49 0 -79.5 -38.5t-30.5 -103.5q0 -66 28.5 -106.5t77.5 -40.5h6q49 0 82 42.5z" />
    <glyph glyph-name="A" unicode="A" horiz-adv-x="692" 
d="M289 700h115l278 -700h-94l-73 184h-341l-73 -184h-92zM483 266l-139 350l-138 -350h277z" />
    <glyph glyph-name="B" unicode="B" horiz-adv-x="660" 
d="M92 700h300q55 0 100.5 -22.5t71.5 -64t26 -97.5q0 -58 -32 -101t-81 -60q56 -9 92 -52t36 -112q0 -57 -27.5 -100.5t-74 -67t-102.5 -23.5h-309v700zM479 112.5q36 30.5 36 85.5t-36 85.5t-96 30.5h-201v-232h201q60 0 96 30.5zM467.5 425.5q32.5 29.5 32.5 81.5
t-32.5 81.5t-87.5 29.5h-198v-222h198q55 0 87.5 29.5z" />
    <glyph glyph-name="C" unicode="C" horiz-adv-x="714" 
d="M204 37q-74 47 -114 128.5t-40 184.5q0 102 40.5 184t114.5 129t172 47q77 0 140 -30t102.5 -84t48.5 -125h-92q-12 70 -64 113.5t-131 43.5h-8q-71 0 -123.5 -36.5t-80.5 -100t-28 -141.5t28 -141.5t80.5 -100t123.5 -36.5h8q79 0 131.5 43.5t64.5 113.5h91
q-9 -71 -49 -125t-102.5 -84t-139.5 -30q-99 0 -173 47z" />
    <glyph glyph-name="D" unicode="D" horiz-adv-x="711" 
d="M92 700h246q97 0 169.5 -42t112.5 -121.5t40 -187.5t-40 -187t-112.5 -120.5t-169.5 -41.5h-246v700zM507.5 151q62.5 69 62.5 199t-62.5 199t-179.5 69h-146v-536h146q117 0 179.5 69z" />
    <glyph glyph-name="E" unicode="E" horiz-adv-x="649" 
d="M92 700h503v-82h-413v-217h353v-82h-353v-237h423v-82h-513v700z" />
    <glyph glyph-name="F" unicode="F" horiz-adv-x="602" 
d="M92 700h481v-82h-391v-237h341v-82h-341v-299h-90v700z" />
    <glyph glyph-name="G" unicode="G" horiz-adv-x="741" 
d="M200.5 35.5q-72.5 45.5 -111.5 127t-39 186.5q0 104 42 186t117 128.5t171 46.5q82 0 145.5 -31t101 -85t45.5 -122h-92q-13 71 -65 113.5t-132 42.5h-8q-68 0 -121 -33.5t-83 -97t-30 -148.5t29 -147.5t82 -96t123 -33.5h8q58 0 106.5 26t76.5 73t28 105h-203v81h209
q38 0 58 -20t20 -58v-279h-82v102q-28 -46 -89 -79t-137 -33q-97 0 -169.5 45.5z" />
    <glyph glyph-name="H" unicode="H" horiz-adv-x="732" 
d="M92 700h90v-309h368v309h90v-700h-90v309h-368v-309h-90v700z" />
    <glyph glyph-name="I" unicode="I" horiz-adv-x="273" 
d="M92 700h90v-700h-90v700z" />
    <glyph glyph-name="J" unicode="J" horiz-adv-x="387" 
d="M14 85h106q48 0 69 23.5t21 74.5v517h90v-522q0 -89 -44 -133.5t-125 -44.5h-117v85z" />
    <glyph glyph-name="K" unicode="K" horiz-adv-x="673" 
d="M92 700h90v-361l361 361h117l-282 -285l287 -415h-112l-240 349l-131 -132v-217h-90v700z" />
    <glyph glyph-name="L" unicode="L" horiz-adv-x="609" 
d="M92 700h90v-618h413v-82h-503v700z" />
    <glyph glyph-name="M" unicode="M" horiz-adv-x="922" 
d="M92 700h150l222 -620l217 620h149v-700h-90v624l-218 -624h-118l-223 625v-625h-89v700z" />
    <glyph glyph-name="N" unicode="N" horiz-adv-x="742" 
d="M92 700h123l345 -583v583h90v-700h-122l-346 588v-588h-90v700z" />
    <glyph glyph-name="O" unicode="O" horiz-adv-x="767" 
d="M213 34.5q-76 44.5 -119.5 126t-43.5 189.5t43.5 189.5t119.5 126t170 44.5t170 -44.5t120 -126t44 -189.5t-44 -189.5t-120 -126t-170 -44.5t-170 44.5zM509 106q54 34 85.5 97t31.5 147t-31.5 147t-85.5 97t-122 34h-8q-68 0 -122 -34t-85.5 -97t-31.5 -147t31.5 -147
t85.5 -97t122 -34h8q68 0 122 34z" />
    <glyph glyph-name="P" unicode="P" horiz-adv-x="635" 
d="M92 700h290q64 0 114.5 -24.5t79.5 -72t29 -113.5t-29 -113.5t-79.5 -72t-114.5 -24.5h-200v-280h-90v700zM476 394.5q39 32.5 39 95.5t-39 95.5t-109 32.5h-185v-256h185q70 0 109 32.5z" />
    <glyph glyph-name="Q" unicode="Q" horiz-adv-x="767" 
d="M509 106q54 34 85.5 97t31.5 147t-31.5 147t-85.5 97t-122 34h-8q-68 0 -122 -34t-85.5 -97t-31.5 -147t31.5 -147t85.5 -97t122 -34h8q68 0 122 34zM367.5 -157.5q-29.5 27.5 -29.5 78.5v72q-83 10 -148.5 56.5t-102.5 124t-37 176.5q0 108 43.5 189.5t119.5 126
t170 44.5t170 -44.5t120 -126t44 -189.5q0 -99 -37.5 -177t-104 -124.5t-150.5 -56.5v-46q0 -26 11.5 -37.5t37.5 -11.5h147v-82h-172q-52 0 -81.5 27.5z" />
    <glyph glyph-name="R" unicode="R" horiz-adv-x="678" 
d="M92 700h295q63 0 112.5 -24.5t77.5 -67.5t28 -97q0 -64 -31.5 -111.5t-80.5 -63.5q102 -10 102 -116v-132q0 -60 5 -88h-90q-5 24 -5 71v140q0 39 -18.5 56.5t-57.5 17.5h-247v-285h-90v700zM475.5 404q39.5 37 39.5 94t-37.5 88.5t-103.5 31.5h-192v-251h192
q62 0 101.5 37z" />
    <glyph glyph-name="S" unicode="S" horiz-adv-x="620" 
d="M114.5 50.5q-71.5 60.5 -73.5 172.5h89q1 -73 50.5 -112t133.5 -39h10q71 0 111.5 32.5t40.5 82.5q0 92 -119 114l-116 22q-174 34 -174 188q0 55 29.5 100.5t85 72t129.5 26.5q75 0 132 -27t89 -76.5t34 -114.5h-90q-4 62 -49 99.5t-112 37.5h-10q-67 0 -108.5 -33
t-41.5 -83q0 -81 105 -100l116 -21q91 -17 141 -67.5t50 -133.5q0 -61 -31.5 -106.5t-89 -70t-133.5 -24.5q-127 0 -198.5 60.5z" />
    <glyph glyph-name="T" unicode="T" horiz-adv-x="624" 
d="M267 618h-252v82h594v-82h-252v-618h-90v618z" />
    <glyph glyph-name="U" unicode="U" horiz-adv-x="694" 
d="M151 60q-66 70 -66 190v450h90v-440q0 -90 43 -139t124 -49h10q81 0 124 49t43 139v440h90v-450q0 -119 -67.5 -189.5t-194.5 -70.5q-130 0 -196 70z" />
    <glyph glyph-name="V" unicode="V" horiz-adv-x="696" 
d="M7 700h96l249 -613l238 613h95l-279 -700h-113z" />
    <glyph glyph-name="W" unicode="W" horiz-adv-x="936" 
d="M27 700h93l144 -610l147 610h122l145 -612l139 612h92l-171 -700h-125l-145 599l-145 -599h-125z" />
    <glyph glyph-name="X" unicode="X" horiz-adv-x="635" 
d="M266 358l-242 342h106l189 -267l190 267h104l-243 -340l254 -360h-105l-202 285l-203 -285h-104z" />
    <glyph glyph-name="Y" unicode="Y" horiz-adv-x="613" 
d="M262 290l-252 410h104l195 -321l194 321h100l-251 -410v-290h-90v290z" />
    <glyph glyph-name="Z" unicode="Z" horiz-adv-x="605" 
d="M38 84l415 534h-405v82h509v-82l-417 -536h427v-82h-529v84z" />
    <glyph glyph-name="bracketleft" unicode="[" horiz-adv-x="332" 
d="M92 845h213v-75h-128v-840h128v-75h-213v990z" />
    <glyph glyph-name="backslash" unicode="\" horiz-adv-x="394" 
d="M17 700h90l270 -700h-90z" />
    <glyph glyph-name="bracketright" unicode="]" horiz-adv-x="332" 
d="M240 -145h-213v75h128v840h-128v75h213v-990z" />
    <glyph glyph-name="asciicircum" unicode="^" horiz-adv-x="551" 
d="M227 700h97l176 -415h-86l-141 343l-140 -343h-81z" />
    <glyph glyph-name="underscore" unicode="_" horiz-adv-x="563" 
d="M60 0h443v-75h-443v75z" />
    <glyph glyph-name="grave" unicode="`" horiz-adv-x="209" 
d="M30 700h93l56 -133h-60z" />
    <glyph glyph-name="a" unicode="a" horiz-adv-x="551" 
d="M95 31.5q-48 41.5 -48 106.5q0 140 194 154l153 11v17q0 55 -35 86.5t-91 31.5h-5q-45 0 -78.5 -21.5t-42.5 -59.5h-84q10 67 67 110t143 43q68 0 115.5 -25.5t71.5 -69.5t24 -98v-207q0 -75 5 -110h-80q-5 29 -5 79q-21 -36 -68.5 -62.5t-107.5 -26.5q-80 0 -128 41.5z
M312 79q36 17 59 51t23 81v25l-140 -9q-60 -4 -91 -26t-31 -59q0 -35 28 -57.5t74 -22.5h5q37 0 73 17z" />
    <glyph glyph-name="b" unicode="b" 
d="M228.5 13.5q-45.5 23.5 -65.5 57.5v-71h-85v700h85v-271q20 35 64 57.5t98 22.5q65 0 117 -31.5t82 -90t30 -137.5t-29.5 -138t-80.5 -90.5t-116 -31.5q-54 0 -99.5 23.5zM427 115.5q41 52.5 41 134.5t-41 134t-108 52h-6q-44 0 -79 -24t-54 -66t-19 -96t19 -96.5
t54 -66.5t79 -24h6q67 0 108 52.5z" />
    <glyph glyph-name="c" unicode="c" horiz-adv-x="537" 
d="M155 24.5q-53 34.5 -81 94t-28 131.5t28 131.5t81 94t123 34.5q59 0 106 -23t75.5 -63t34.5 -91h-87q-7 43 -41.5 73.5t-85.5 30.5h-4q-67 0 -106 -54t-39 -133t39 -132.5t107 -53.5h3q50 0 84 30t43 73h87q-13 -78 -70.5 -127.5t-145.5 -49.5q-70 0 -123 34.5z" />
    <glyph glyph-name="d" unicode="d" horiz-adv-x="599" 
d="M155 21.5q-51 31.5 -80.5 90.5t-29.5 138t30 137.5t82 90t117 31.5q54 0 98 -22.5t64 -57.5v271h85v-700h-85v71q-20 -34 -65.5 -57.5t-99.5 -23.5q-65 0 -116 31.5zM365 87q35 24 54 66.5t19 96.5t-19 96t-54 66t-79 24h-6q-67 0 -108 -52t-41 -134t41 -134.5t108 -52.5
h6q44 0 79 24z" />
    <glyph glyph-name="e" unicode="e" horiz-adv-x="542" 
d="M159.5 22q-52.5 32 -83 91t-30.5 138q0 78 31.5 137t84 90.5t114.5 31.5q87 0 145.5 -52.5t71.5 -142.5q4 -31 4 -77h-366q3 -83 44.5 -129t100.5 -46h6q44 0 76.5 23.5t44.5 63.5h87q-17 -72 -75 -116t-137 -44q-66 0 -118.5 32zM369.5 403q-35.5 35 -88.5 35h-8
q-50 0 -88 -32.5t-50 -98.5h274q-4 61 -39.5 96z" />
    <glyph glyph-name="f" unicode="f" horiz-adv-x="361" 
d="M131 427h-112v73h112v76q0 124 123 124h113v-74h-95q-31 0 -43.5 -12.5t-12.5 -43.5v-70h126v-73h-126v-427h-85v427z" />
    <glyph glyph-name="g" unicode="g" horiz-adv-x="593" 
d="M112.5 -177.5q-58.5 42.5 -65.5 112.5h85q7 -40 44 -61.5t95 -21.5h10q67 0 108.5 39.5t41.5 118.5v73q-22 -36 -63.5 -59.5t-96.5 -23.5q-62 0 -113 28.5t-81 86t-30 138.5q0 82 30 140t81 87.5t113 29.5q56 0 99 -24t61 -59v73h85v-499q0 -63 -29 -113.5t-83 -79
t-128 -28.5q-105 0 -163.5 42.5zM356.5 93.5q33.5 21.5 54 63t20.5 96.5q0 56 -19.5 98t-52.5 64.5t-72 22.5h-9q-62 0 -104 -48t-42 -137t40.5 -135t102.5 -46h8q40 0 73.5 21.5z" />
    <glyph glyph-name="h" unicode="h" horiz-adv-x="578" 
d="M78 700h85v-269q23 35 64.5 57t94.5 22q54 0 96 -24t65 -68t23 -101v-317h-85v296q0 66 -30.5 102t-88.5 36h-2q-61 0 -99 -47t-38 -122v-265h-85v700z" />
    <glyph glyph-name="i" unicode="i" horiz-adv-x="240" 
d="M78 500h85v-500h-85v500zM81.5 609q-16.5 16 -16.5 39t16.5 39.5t39.5 16.5t39 -16.5t16 -39.5q0 -22 -16 -38.5t-39 -16.5t-39.5 16z" />
    <glyph glyph-name="j" unicode="j" horiz-adv-x="240" 
d="M-89 -103h113q30 0 42 12.5t12 41.5v549h85v-556q0 -122 -122 -122h-130v75zM81.5 609q-16.5 16 -16.5 39t16.5 39.5t39.5 16.5t39 -16.5t16 -39.5q0 -22 -16 -38.5t-39 -16.5t-39.5 16z" />
    <glyph glyph-name="k" unicode="k" horiz-adv-x="527" 
d="M78 700h85v-430l235 230h113l-208 -199l218 -301h-105l-174 243l-79 -77v-166h-85v700z" />
    <glyph glyph-name="l" unicode="l" horiz-adv-x="240" 
d="M78 700h85v-700h-85v700z" />
    <glyph glyph-name="m" unicode="m" horiz-adv-x="898" 
d="M78 500h85v-69q23 36 63 57.5t92 21.5q54 0 95 -25.5t62 -71.5q58 97 169 97q84 0 133 -53t49 -141v-316h-85v296q0 66 -28 102t-84 36h-2q-59 0 -96 -47t-37 -122v-265h-85v296q0 66 -28 102t-84 36h-2q-59 0 -95.5 -47t-36.5 -122v-265h-85v500z" />
    <glyph glyph-name="n" unicode="n" horiz-adv-x="578" 
d="M78 500h85v-69q23 35 64.5 57t94.5 22q54 0 96 -24t65 -68t23 -101v-317h-85v296q0 66 -30.5 102t-88.5 36h-2q-61 0 -99 -47t-38 -122v-265h-85v500z" />
    <glyph glyph-name="o" unicode="o" horiz-adv-x="571" 
d="M163 23.5q-55 33.5 -86.5 93t-31.5 133.5t31.5 133.5t86.5 93t123 33.5t123 -33.5t86.5 -93t31.5 -133.5t-31.5 -133.5t-86.5 -93t-123 -33.5t-123 33.5zM367 87q35 23 54.5 65.5t19.5 97.5t-19.5 97.5t-54.5 66t-78 23.5h-7q-43 0 -77.5 -23.5t-54 -66t-19.5 -97.5
t19.5 -97.5t54 -65.5t77.5 -23h7q43 0 78 23z" />
    <glyph glyph-name="p" unicode="p" 
d="M78 500h85v-71q20 34 65.5 57.5t99.5 23.5q65 0 116 -31.5t80.5 -90.5t29.5 -138t-30 -137.5t-82 -90t-117 -31.5q-54 0 -98 22.5t-64 57.5v-271h-85v700zM427 116q41 52 41 134t-41 134.5t-108 52.5h-6q-44 0 -79 -24t-54 -66.5t-19 -96.5t19 -96t54 -66t79 -24h6
q67 0 108 52z" />
    <glyph glyph-name="q" unicode="q" horiz-adv-x="599" 
d="M372 13.5q-44 -22.5 -98 -22.5q-65 0 -117 31.5t-82 90t-30 137.5t29.5 138t80.5 90.5t116 31.5q54 0 99.5 -23.5t65.5 -57.5v71h85v-700h-85v271q-20 -35 -64 -57.5zM365 88q35 24 54 66t19 96t-19 96.5t-54 66.5t-79 24h-6q-67 0 -108 -52.5t-41 -134.5t41 -134
t108 -52h6q44 0 79 24z" />
    <glyph glyph-name="r" unicode="r" horiz-adv-x="375" 
d="M78 500h80v-98q16 44 60 73.5t101 29.5h32v-81h-28q-160 0 -160 -197v-227h-85v500z" />
    <glyph glyph-name="s" unicode="s" horiz-adv-x="483" 
d="M94.5 35.5q-52.5 45.5 -54.5 117.5h85q4 -45 35.5 -68t80.5 -23h9q44 0 71.5 19.5t27.5 52.5q0 27 -18 44.5t-62 26.5l-73 13q-64 12 -102 46t-38 94q0 47 24.5 81.5t65.5 52.5t90 18q94 0 144.5 -45.5t53.5 -117.5h-86q-4 38 -31.5 64.5t-76.5 26.5h-9q-43 0 -68 -20.5
t-25 -50.5q0 -29 18 -45t60 -24l78 -15q64 -12 102.5 -47.5t38.5 -97.5q0 -68 -53 -108t-139 -40q-96 0 -148.5 45.5z" />
    <glyph glyph-name="t" unicode="t" horiz-adv-x="382" 
d="M159.5 31q-30.5 31 -30.5 88v308h-111v73h111v162h85v-162h122v-73h-122v-297q0 -30 12 -42.5t42 -12.5h83v-75h-103q-58 0 -88.5 31z" />
    <glyph glyph-name="u" unicode="u" horiz-adv-x="568" 
d="M158.5 14q-40.5 24 -63.5 68t-23 101v317h85v-296q0 -66 29 -102t84 -36h2q61 0 97.5 49t36.5 144v241h85v-500h-85v69q-24 -36 -64 -57.5t-91 -21.5q-52 0 -92.5 24z" />
    <glyph glyph-name="v" unicode="v" horiz-adv-x="512" 
d="M17 500h88l151 -418l152 418h87l-187 -500h-104z" />
    <glyph glyph-name="w" unicode="w" horiz-adv-x="771" 
d="M19 500h89l120 -411l111 411h94l116 -413l115 413h88l-156 -500h-99l-111 404l-111 -404h-99z" />
    <glyph glyph-name="x" unicode="x" horiz-adv-x="506" 
d="M204 253l-182 247h99l133 -180l134 180h96l-182 -245l188 -255h-100l-138 188l-139 -188h-97z" />
    <glyph glyph-name="y" unicode="y" horiz-adv-x="520" 
d="M32 -100h94q28 0 45 13.5t30 45.5l23 60l-219 481h91l170 -374l149 374h88l-229 -570q-24 -60 -58.5 -82.5t-91.5 -22.5h-92v75z" />
    <glyph glyph-name="z" unicode="z" horiz-adv-x="485" 
d="M41 77l295 350h-290v73h388v-76l-295 -351h310v-73h-408v77z" />
    <glyph glyph-name="braceleft" unicode="{" horiz-adv-x="340" 
d="M143.5 -107.5q-28.5 37.5 -28.5 117.5v205q0 39 -10 53t-40 14h-25v136h25q30 0 40 14t10 53v205q0 80 28.5 117.5t93.5 37.5h72v-75h-49q-36 0 -48 -16.5t-12 -60.5v-245q0 -46 -21.5 -67t-58.5 -21v-20q37 0 58.5 -21t21.5 -67v-245q0 -44 12 -60.5t48 -16.5h49v-75
h-72q-65 0 -93.5 37.5z" />
    <glyph glyph-name="bar" unicode="|" horiz-adv-x="272" 
d="M92 785h88v-870h-88v870z" />
    <glyph glyph-name="braceright" unicode="}" horiz-adv-x="339" 
d="M196.5 808.5q28.5 -37.5 28.5 -117.5v-205q0 -39 10 -53t40 -14h25v-136h-25q-30 0 -40 -14t-10 -53v-205q0 -80 -28.5 -117.5t-93.5 -37.5h-72v75h49q36 0 48 16.5t12 60.5v245q0 46 21.5 67t58.5 21v20q-37 0 -58.5 21t-21.5 67v245q0 44 -12 60.5t-48 16.5h-49v75h72
q65 0 93.5 -37.5z" />
    <glyph glyph-name="asciitilde" unicode="~" horiz-adv-x="483" 
d="M287 290q-19 8 -44 23l-29 18q-27 17 -47 17q-36 0 -36 -58h-64v21q0 47 27 75.5t69 28.5q21 0 40 -8t42 -22l28 -17q29 -19 47 -19q37 0 37 58h63v-21q0 -46 -25.5 -75t-67.5 -29q-21 0 -40 8z" />
    <glyph glyph-name="uni00A0" unicode="&#xa0;" horiz-adv-x="244" 
 />
    <glyph glyph-name="exclamdown" unicode="&#xa1;" horiz-adv-x="252" 
d="M171.5 493q18.5 -19 18.5 -45q0 -27 -18.5 -46t-45.5 -19t-45.5 19t-18.5 46q0 26 18.5 45t45.5 19t45.5 -19zM170 21v-220h-89v220l23 290h43z" />
    <glyph glyph-name="cent" unicode="&#xa2;" horiz-adv-x="534" 
d="M263 -10l-19 -110h-75l21 126q-69 27 -107 93t-38 151q0 72 28 131t80 94t122 35l19 110h75l-20 -120q61 -18 99 -62.5t45 -104.5h-87q-5 29 -23.5 54t-46.5 38l-61 -361h1h3q50 0 84 30t43 73h87q-13 -78 -70.5 -127.5t-145.5 -49.5h-14zM149 152q19 -44 55 -67l59 352
q-62 -6 -97.5 -59t-35.5 -128q0 -54 19 -98z" />
    <glyph glyph-name="sterling" unicode="&#xa3;" horiz-adv-x="555" 
d="M42 78h27q69 0 74 77l9 127l-110 -26v80l117 27l9 127q8 104 58.5 157t150.5 53h103v-78h-106q-59 0 -86 -34.5t-33 -102.5l-8 -101l133 31v-80l-139 -33l-11 -138q-2 -32 -14 -52t-36 -34h350v-78h-488v78z" />
    <glyph glyph-name="currency" unicode="&#xa4;" horiz-adv-x="712" 
d="M194 96l-87 -83l-55 54l89 87q-44 66 -44 151q0 81 42 146l-87 87l55 54l86 -82q33 27 74.5 41t86.5 14q47 0 89 -15t75 -42l88 84l54 -54l-90 -90q41 -63 41 -143q0 -82 -43 -149l92 -89l-54 -54l-90 85q-33 -28 -74.5 -43t-87.5 -15q-90 0 -160 56zM442.5 142
q37.5 24 59 67t21.5 96t-21.5 94.5t-59 64.5t-83.5 23h-10q-46 0 -83.5 -23t-59 -64.5t-21.5 -94.5t23 -96t61.5 -67t84.5 -24h5q46 0 83.5 24z" />
    <glyph glyph-name="yen" unicode="&#xa5;" horiz-adv-x="623" 
d="M267 128l-142 -32v76l142 32v84l-172 -39v76l133 30l-210 345h102l194 -323l192 323h99l-183 -301l106 24v-76l-159 -36l-13 -21v-67l142 32v-76l-142 -32v-147h-89v128z" />
    <glyph glyph-name="brokenbar" unicode="&#xa6;" horiz-adv-x="272" 
d="M93 283h88v-368h-88v368zM93 785h88v-358h-88v358z" />
    <glyph glyph-name="section" unicode="&#xa7;" horiz-adv-x="527" 
d="M85 18h205q37 0 55.5 15.5t18.5 43.5q0 23 -19 38.5t-61 31.5l-139 52q-50 19 -75 51.5t-25 71.5t24.5 73.5t68.5 60.5q-58 43 -58 109q0 65 44 100t122 35h178v-78h-177q-39 0 -60.5 -14.5t-21.5 -42.5q0 -25 18 -40.5t60 -29.5l91 -30q75 -24 112.5 -56.5t37.5 -90.5
q0 -81 -93 -135q30 -23 44 -47t14 -59q0 -58 -41.5 -97.5t-126.5 -39.5h-196v78zM383 261q16 22 16 47q0 32 -28 50.5t-79 34.5l-87 28q-37 -15 -56 -40.5t-19 -50.5q0 -21 13 -34t29 -20t62 -24l88 -32q45 19 61 41z" />
    <glyph glyph-name="dieresis" unicode="&#xa8;" horiz-adv-x="351" 
d="M234.5 601q-14.5 15 -14.5 35q0 22 14.5 37t35.5 15t36 -15t15 -37q0 -20 -15 -35t-36 -15t-35.5 15zM45 601q-15 15 -15 35q0 22 15 37t36 15t36 -15t15 -37q0 -20 -15 -35t-36 -15t-36 15z" />
    <glyph glyph-name="copyright" unicode="&#xa9;" horiz-adv-x="872" 
d="M241.5 13q-89.5 53 -142.5 142.5t-53 194.5q0 106 52.5 195.5t142.5 142t195 52.5q106 0 195.5 -52.5t142 -142t52.5 -195.5q0 -105 -52.5 -195t-142 -142.5t-195.5 -52.5q-105 0 -194.5 53zM598 69q74 44 117.5 118.5t43.5 162.5t-43.5 162.5t-117.5 118.5t-162 44
t-162 -44t-117.5 -118.5t-43.5 -162.5t43.5 -162.5t117.5 -118.5t162 -44t162 44zM310 208.5q-49 50.5 -49 145.5q0 93 48.5 145.5t129.5 52.5q70 0 111.5 -35t46.5 -97h-71q-5 32 -27.5 50.5t-56.5 18.5h-7q-47 0 -74.5 -38t-27.5 -97t27 -96t75 -37h7q34 0 57.5 18.5
t27.5 50.5h72q-6 -63 -48 -97.5t-112 -34.5q-80 0 -129 50.5z" />
    <glyph glyph-name="ordfeminine" unicode="&#xaa;" horiz-adv-x="327" 
d="M55 433q-27 24 -27 62q0 42 30 64.5t84 25.5l74 6v8q0 24 -16 37.5t-42 13.5h-2q-23 0 -38 -10t-18 -26h-66q5 40 38.5 65.5t85.5 25.5q59 0 91 -30.5t32 -80.5v-116q0 -36 4 -63h-63q-2 11 -2 37q-14 -18 -39 -30.5t-55 -12.5q-44 0 -71 24zM193.5 482q22.5 19 22.5 52
v7l-68 -5q-27 -1 -41.5 -11t-14.5 -27q0 -15 12.5 -25t34.5 -10h2q30 0 52.5 19z" />
    <glyph glyph-name="guillemotleft" unicode="&#xab;" horiz-adv-x="527" 
d="M241 285l145 215h98l-145 -214l145 -216h-98zM39 285l145 215h98l-145 -214l146 -216h-99z" />
    <glyph glyph-name="logicalnot" unicode="&#xac;" horiz-adv-x="603" 
d="M438 268h-370v79h458v-220h-88v141z" />
    <glyph glyph-name="registered" unicode="&#xae;" horiz-adv-x="872" 
d="M241.5 13q-89.5 53 -142.5 142.5t-53 194.5q0 106 52.5 195.5t142.5 142t195 52.5q106 0 195.5 -52.5t142 -142t52.5 -195.5q0 -105 -52.5 -195t-142 -142.5t-195.5 -52.5q-105 0 -194.5 53zM598 69q74 44 117.5 118.5t43.5 162.5t-43.5 162.5t-117.5 118.5t-162 44
t-162 -44t-117.5 -118.5t-43.5 -162.5t43.5 -162.5t117.5 -118.5t162 -44t162 44zM303 544h163q60 0 94 -30t34 -78q0 -33 -16.5 -56.5t-43.5 -33.5q30 -7 42.5 -24.5t12.5 -50.5v-42q0 -40 4 -61h-70q-5 21 -5 54v43q0 23 -12 34t-38 11h-94v-142h-71v376zM502.5 383
q18.5 14 18.5 42q0 30 -17.5 42.5t-54.5 12.5h-75v-111h75q35 0 53.5 14z" />
    <glyph glyph-name="macron" unicode="&#xaf;" horiz-adv-x="342" 
d="M30 658h282v-68h-282v68z" />
    <glyph glyph-name="degree" unicode="&#xb0;" horiz-adv-x="466" 
d="M138.5 364.5q-42.5 24.5 -66.5 66.5t-24 94t24 94t66.5 66.5t94.5 24.5t94 -24.5t66.5 -66.5t24.5 -94t-24.5 -94t-66.5 -66.5t-94 -24.5t-94.5 24.5zM307.5 447q30.5 32 30.5 78t-30.5 78t-74.5 32t-74.5 -32t-30.5 -78t30.5 -78t74.5 -32t74.5 32z" />
    <glyph glyph-name="plusminus" unicode="&#xb1;" horiz-adv-x="625" 
d="M269 287h-203v78h203v135h87v-135h204v-78h-204v-130h-87v130zM66 78h494v-78h-494v78z" />
    <glyph glyph-name="uni00B2" unicode="&#xb2;" horiz-adv-x="340" 
d="M33 492l134 112q36 29 51.5 48.5t15.5 44.5q0 27 -17 42t-44 15h-5q-25 0 -44 -16.5t-20 -44.5h-70q1 55 41 88.5t97 33.5t94.5 -31t37.5 -84q0 -40 -22 -69t-64 -64l-110 -91h200v-61h-275v77z" />
    <glyph glyph-name="uni00B3" unicode="&#xb3;" horiz-adv-x="347" 
d="M70 441.5q-40 31.5 -41 85.5h70q1 -26 20 -42t47 -16h5q30 0 50 16t20 44q0 26 -18 41t-47 15h-38v60h38q26 0 44 15t18 40q0 26 -18 41t-47 15h-5q-27 0 -44 -15t-19 -39h-70q1 54 40 83.5t97 29.5q57 0 95.5 -28.5t38.5 -80.5q0 -31 -16 -55t-44 -35q27 -10 46 -34.5
t19 -58.5q0 -54 -41.5 -83.5t-101.5 -29.5q-58 0 -98 31.5z" />
    <glyph glyph-name="acute" unicode="&#xb4;" horiz-adv-x="209" 
d="M86 700h93l-89 -133h-60z" />
    <glyph glyph-name="uni00B5" unicode="&#xb5;" horiz-adv-x="591" 
d="M78 500h85v-309q0 -63 27 -96t79 -33h9q34 0 64.5 20.5t49 58.5t18.5 86v273h85v-380q0 -27 9.5 -37.5t34.5 -10.5h21v-72h-51q-42 0 -66 18t-28 52q-23 -39 -62 -59.5t-86 -20.5q-31 0 -59.5 9t-44.5 24v-223h-85v700z" />
    <glyph glyph-name="paragraph" unicode="&#xb6;" horiz-adv-x="619" 
d="M234 306h-13q-55 0 -101 26.5t-72.5 72t-26.5 98.5t26.5 98.5t71.5 72t99 26.5h356v-75h-63v-825h-82v825h-113v-825h-82v506z" />
    <glyph glyph-name="periodcentered" unicode="&#xb7;" horiz-adv-x="257" 
d="M83 289q-19 19 -19 45q0 27 19 46t45 19q27 0 46 -19t19 -46q0 -26 -19 -45t-46 -19q-26 0 -45 19z" />
    <glyph glyph-name="cedilla" unicode="&#xb8;" horiz-adv-x="232" 
d="M30 -170h64q23 0 34.5 9.5t11.5 27.5q0 17 -11.5 26t-31.5 9h-32v113h52v-65q38 -2 61.5 -25.5t23.5 -59.5q0 -44 -30 -70.5t-79 -26.5h-63v62z" />
    <glyph glyph-name="uni00B9" unicode="&#xb9;" horiz-adv-x="224" 
d="M100 673h-84v47q44 2 67.5 25t33.5 65h51v-395h-68v258z" />
    <glyph glyph-name="ordmasculine" unicode="&#xba;" horiz-adv-x="343" 
d="M69.5 452q-40.5 42 -40.5 106q0 63 41 105t102 42t101.5 -42t40.5 -105q0 -64 -40.5 -106t-101.5 -42q-62 0 -102.5 42zM226.5 491q20.5 25 20.5 67q0 41 -20.5 66t-53.5 25h-3q-32 0 -52.5 -25t-20.5 -66q0 -42 20 -67t53 -25h3q33 0 53.5 25z" />
    <glyph glyph-name="guillemotright" unicode="&#xbb;" horiz-adv-x="527" 
d="M286 285l-145 -215h-98l145 214l-145 216h98zM488 285l-145 -215h-98l145 214l-146 216h99z" />
    <glyph glyph-name="onequarter" unicode="&#xbc;" horiz-adv-x="691" 
d="M100 563h-84v47q44 2 67.5 25t33.5 65h51v-395h-68v258zM471 700h78l-420 -700h-78zM542 91h-187v61l181 243h72v-246h56v-58h-56v-91h-66v91zM542 149v164l-120 -164h120z" />
    <glyph glyph-name="onehalf" unicode="&#xbd;" horiz-adv-x="710" 
d="M100 563h-84v47q44 2 67.5 25t33.5 65h51v-395h-68v258zM471 700h78l-420 -700h-78zM401 77l134 112q36 29 51.5 48.5t15.5 44.5q0 27 -17 42t-44 15h-5q-25 0 -44 -16.5t-20 -44.5h-70q1 55 41 88.5t97 33.5t94.5 -31t37.5 -84q0 -40 -22 -69t-64 -64l-110 -91h200v-61
h-275v77z" />
    <glyph glyph-name="threequarters" unicode="&#xbe;" horiz-adv-x="803" 
d="M70 331.5q-40 31.5 -41 85.5h70q1 -26 20 -42t47 -16h5q30 0 50 16t20 44q0 26 -18 41t-47 15h-38v60h38q26 0 44 15t18 40q0 26 -18 41t-47 15h-5q-27 0 -44 -15t-19 -39h-70q1 54 40 83.5t97 29.5q57 0 95.5 -28.5t38.5 -80.5q0 -31 -16 -55t-44 -35q27 -10 46 -34.5
t19 -58.5q0 -54 -41.5 -83.5t-101.5 -29.5q-58 0 -98 31.5zM583 700h78l-420 -700h-78zM654 91h-187v61l181 243h72v-246h56v-58h-56v-91h-66v91zM654 149v164l-120 -164h120z" />
    <glyph glyph-name="questiondown" unicode="&#xbf;" horiz-adv-x="472" 
d="M309.5 155q-15.5 -23 -53.5 -38l-27 -11q-38 -15 -62 -29t-39 -37t-15 -58q0 -49 33 -80.5t92 -31.5q55 0 88 29t40 81h88q-3 -58 -33 -100.5t-79 -65t-107 -22.5q-59 0 -107 23t-75.5 65t-27.5 96q0 130 131 184l36 15q29 12 37 20t8 29v76h88v-84q0 -38 -15.5 -61z
M327.5 494q18.5 -19 18.5 -45q0 -27 -18.5 -46t-45.5 -19t-45.5 19t-18.5 46q0 26 18.5 45t45.5 19t45.5 -19z" />
    <glyph glyph-name="Agrave" unicode="&#xc0;" horiz-adv-x="692" 
d="M289 700h115l278 -700h-94l-73 184h-341l-73 -184h-92zM483 266l-139 350l-138 -350h277zM229 890h107l49 -128h-67z" />
    <glyph glyph-name="Aacute" unicode="&#xc1;" horiz-adv-x="692" 
d="M289 700h115l278 -700h-94l-73 184h-341l-73 -184h-92zM483 266l-139 350l-138 -350h277zM362 890h107l-89 -128h-67z" />
    <glyph glyph-name="Acircumflex" unicode="&#xc2;" horiz-adv-x="692" 
d="M289 700h115l278 -700h-94l-73 184h-341l-73 -184h-92zM483 266l-139 350l-138 -350h277zM291 890h110l111 -128h-76l-90 70l-90 -70h-76z" />
    <glyph glyph-name="Atilde" unicode="&#xc3;" horiz-adv-x="692" 
d="M289 700h115l278 -700h-94l-73 184h-341l-73 -184h-92zM483 266l-139 350l-138 -350h277zM387 765.5q-20 8.5 -45 25.5l-27 18q-24 16 -45 16q-36 0 -36 -58h-63v25q0 43 26.5 72t67.5 29q37 0 80 -29l25 -18q32 -21 51 -21q36 0 36 58h63v-25q0 -43 -26 -72t-66 -29
q-21 0 -41 8.5z" />
    <glyph glyph-name="Adieresis" unicode="&#xc4;" horiz-adv-x="692" 
d="M289 700h115l278 -700h-94l-73 184h-341l-73 -184h-92zM483 266l-139 350l-138 -350h277zM405 791q-15 15 -15 37t15 37.5t37 15.5t37.5 -15.5t15.5 -37.5t-15.5 -37t-37.5 -15t-37 15zM213.5 791q-15.5 15 -15.5 37t15.5 37.5t36.5 15.5q22 0 37.5 -15.5t15.5 -37.5
t-15.5 -37t-37.5 -15q-21 0 -36.5 15z" />
    <glyph glyph-name="Aring" unicode="&#xc5;" horiz-adv-x="692" 
d="M289 700h115l278 -700h-94l-73 184h-341l-73 -184h-92zM483 266l-139 350l-138 -350h277zM285.5 777.5q-25.5 24.5 -25.5 60.5t25.5 60.5t60.5 24.5t61 -24.5t26 -60.5t-26 -60.5t-61 -24.5t-60.5 24.5zM369.5 814q9.5 10 9.5 24t-9.5 24t-22.5 10t-23.5 -10t-10.5 -24
q0 -13 10.5 -23.5t23.5 -10.5t22.5 10z" />
    <glyph glyph-name="AE" unicode="&#xc6;" horiz-adv-x="979" 
d="M391 700h505v-82h-364l31 -217h303v-82h-294l33 -237h351v-82h-428l-26 184h-314l-106 -184h-99zM491 266l-49 358l-206 -358h255z" />
    <glyph glyph-name="Ccedilla" unicode="&#xc7;" horiz-adv-x="714" 
d="M314 -170h64q23 0 34.5 9.5t11.5 27.5q0 17 -11.5 26t-31.5 9h-32v89q-91 7 -159 55t-104 127t-36 177q0 102 40.5 184t114.5 129t172 47q77 0 140 -30t102.5 -84t48.5 -125h-92q-12 70 -64 113.5t-131 43.5h-8q-71 0 -123.5 -36.5t-80.5 -100t-28 -141.5t28 -141.5
t80.5 -100t123.5 -36.5h8q79 0 131.5 43.5t64.5 113.5h91q-9 -67 -45.5 -119.5t-94 -83.5t-127.5 -35v-41q38 -2 61.5 -25.5t23.5 -59.5q0 -44 -30 -70.5t-79 -26.5h-63v62z" />
    <glyph glyph-name="Egrave" unicode="&#xc8;" horiz-adv-x="649" 
d="M92 700h503v-82h-413v-217h353v-82h-353v-237h423v-82h-513v700zM226 890h107l49 -128h-67z" />
    <glyph glyph-name="Eacute" unicode="&#xc9;" horiz-adv-x="649" 
d="M92 700h503v-82h-413v-217h353v-82h-353v-237h423v-82h-513v700zM359 890h107l-89 -128h-67z" />
    <glyph glyph-name="Ecircumflex" unicode="&#xca;" horiz-adv-x="649" 
d="M92 700h503v-82h-413v-217h353v-82h-353v-237h423v-82h-513v700zM288 890h110l111 -128h-76l-90 70l-90 -70h-76z" />
    <glyph glyph-name="Edieresis" unicode="&#xcb;" horiz-adv-x="649" 
d="M92 700h503v-82h-413v-217h353v-82h-353v-237h423v-82h-513v700zM402 791q-15 15 -15 37t15 37.5t37 15.5t37.5 -15.5t15.5 -37.5t-15.5 -37t-37.5 -15t-37 15zM210.5 791q-15.5 15 -15.5 37t15.5 37.5t36.5 15.5q22 0 37.5 -15.5t15.5 -37.5t-15.5 -37t-37.5 -15
q-21 0 -36.5 15z" />
    <glyph glyph-name="Igrave" unicode="&#xcc;" horiz-adv-x="273" 
d="M92 700h90v-700h-90v700zM20 890h107l49 -128h-67z" />
    <glyph glyph-name="Iacute" unicode="&#xcd;" horiz-adv-x="273" 
d="M92 700h90v-700h-90v700zM153 890h107l-89 -128h-67z" />
    <glyph glyph-name="Icircumflex" unicode="&#xce;" horiz-adv-x="273" 
d="M92 700h90v-700h-90v700zM82 890h110l111 -128h-76l-90 70l-90 -70h-76z" />
    <glyph glyph-name="Idieresis" unicode="&#xcf;" horiz-adv-x="273" 
d="M92 700h90v-700h-90v700zM196 791q-15 15 -15 37t15 37.5t37 15.5t37.5 -15.5t15.5 -37.5t-15.5 -37t-37.5 -15t-37 15zM4.5 791q-15.5 15 -15.5 37t15.5 37.5t36.5 15.5q22 0 37.5 -15.5t15.5 -37.5t-15.5 -37t-37.5 -15q-21 0 -36.5 15z" />
    <glyph glyph-name="Eth" unicode="&#xd0;" horiz-adv-x="748" 
d="M129 310h-91v80h91v310h246q97 0 169.5 -42t112.5 -121.5t40 -187.5t-40 -187t-112.5 -120.5t-169.5 -41.5h-246v310zM544.5 151q62.5 69 62.5 199t-62.5 199t-179.5 69h-146v-228h152v-80h-152v-228h146q117 0 179.5 69z" />
    <glyph glyph-name="Ntilde" unicode="&#xd1;" horiz-adv-x="742" 
d="M92 700h123l345 -583v583h90v-700h-122l-346 588v-588h-90v700zM416 765.5q-20 8.5 -45 25.5l-27 18q-24 16 -45 16q-36 0 -36 -58h-63v25q0 43 26.5 72t67.5 29q37 0 80 -29l25 -18q32 -21 51 -21q36 0 36 58h63v-25q0 -43 -26 -72t-66 -29q-21 0 -41 8.5z" />
    <glyph glyph-name="Ograve" unicode="&#xd2;" horiz-adv-x="767" 
d="M213 34.5q-76 44.5 -119.5 126t-43.5 189.5t43.5 189.5t119.5 126t170 44.5t170 -44.5t120 -126t44 -189.5t-44 -189.5t-120 -126t-170 -44.5t-170 44.5zM509 106q54 34 85.5 97t31.5 147t-31.5 147t-85.5 97t-122 34h-8q-68 0 -122 -34t-85.5 -97t-31.5 -147t31.5 -147
t85.5 -97t122 -34h8q68 0 122 34zM266 890h107l49 -128h-67z" />
    <glyph glyph-name="Oacute" unicode="&#xd3;" horiz-adv-x="767" 
d="M213 34.5q-76 44.5 -119.5 126t-43.5 189.5t43.5 189.5t119.5 126t170 44.5t170 -44.5t120 -126t44 -189.5t-44 -189.5t-120 -126t-170 -44.5t-170 44.5zM509 106q54 34 85.5 97t31.5 147t-31.5 147t-85.5 97t-122 34h-8q-68 0 -122 -34t-85.5 -97t-31.5 -147t31.5 -147
t85.5 -97t122 -34h8q68 0 122 34zM399 890h107l-89 -128h-67z" />
    <glyph glyph-name="Ocircumflex" unicode="&#xd4;" horiz-adv-x="767" 
d="M213 34.5q-76 44.5 -119.5 126t-43.5 189.5t43.5 189.5t119.5 126t170 44.5t170 -44.5t120 -126t44 -189.5t-44 -189.5t-120 -126t-170 -44.5t-170 44.5zM509 106q54 34 85.5 97t31.5 147t-31.5 147t-85.5 97t-122 34h-8q-68 0 -122 -34t-85.5 -97t-31.5 -147t31.5 -147
t85.5 -97t122 -34h8q68 0 122 34zM328 890h110l111 -128h-76l-90 70l-90 -70h-76z" />
    <glyph glyph-name="Otilde" unicode="&#xd5;" horiz-adv-x="767" 
d="M213 34.5q-76 44.5 -119.5 126t-43.5 189.5t43.5 189.5t119.5 126t170 44.5t170 -44.5t120 -126t44 -189.5t-44 -189.5t-120 -126t-170 -44.5t-170 44.5zM509 106q54 34 85.5 97t31.5 147t-31.5 147t-85.5 97t-122 34h-8q-68 0 -122 -34t-85.5 -97t-31.5 -147t31.5 -147
t85.5 -97t122 -34h8q68 0 122 34zM424 765.5q-20 8.5 -45 25.5l-27 18q-24 16 -45 16q-36 0 -36 -58h-63v25q0 43 26.5 72t67.5 29q37 0 80 -29l25 -18q32 -21 51 -21q36 0 36 58h63v-25q0 -43 -26 -72t-66 -29q-21 0 -41 8.5z" />
    <glyph glyph-name="Odieresis" unicode="&#xd6;" horiz-adv-x="767" 
d="M213 34.5q-76 44.5 -119.5 126t-43.5 189.5t43.5 189.5t119.5 126t170 44.5t170 -44.5t120 -126t44 -189.5t-44 -189.5t-120 -126t-170 -44.5t-170 44.5zM509 106q54 34 85.5 97t31.5 147t-31.5 147t-85.5 97t-122 34h-8q-68 0 -122 -34t-85.5 -97t-31.5 -147t31.5 -147
t85.5 -97t122 -34h8q68 0 122 34zM442 791q-15 15 -15 37t15 37.5t37 15.5t37.5 -15.5t15.5 -37.5t-15.5 -37t-37.5 -15t-37 15zM250.5 791q-15.5 15 -15.5 37t15.5 37.5t36.5 15.5q22 0 37.5 -15.5t15.5 -37.5t-15.5 -37t-37.5 -15q-21 0 -36.5 15z" />
    <glyph glyph-name="multiply" unicode="&#xd7;" horiz-adv-x="542" 
d="M58 101l156 157l-156 156l57 57l156 -156l157 156l57 -57l-157 -156l157 -157l-57 -57l-157 157l-156 -157z" />
    <glyph glyph-name="Oslash" unicode="&#xd8;" horiz-adv-x="771" 
d="M198 46l-63 -79l-64 51l66 83q-40 47 -62 110.5t-22 138.5q0 108 43.5 189.5t119.5 126t170 44.5q107 0 188 -55l62 78l64 -51l-65 -82q41 -48 63 -111t22 -139q0 -108 -44 -189.5t-120 -126t-170 -44.5q-106 0 -188 56zM512 106q54 34 85.5 97t31.5 147q0 106 -50 179
l-329 -416q58 -41 132 -41h8q68 0 122 34zM193 172l328 416q-57 40 -131 40h-8q-68 0 -122 -34t-85.5 -97t-31.5 -147q0 -105 50 -178z" />
    <glyph glyph-name="Ugrave" unicode="&#xd9;" horiz-adv-x="694" 
d="M151 60q-66 70 -66 190v450h90v-440q0 -90 43 -139t124 -49h10q81 0 124 49t43 139v440h90v-450q0 -119 -67.5 -189.5t-194.5 -70.5q-130 0 -196 70zM230 890h107l49 -128h-67z" />
    <glyph glyph-name="Uacute" unicode="&#xda;" horiz-adv-x="694" 
d="M151 60q-66 70 -66 190v450h90v-440q0 -90 43 -139t124 -49h10q81 0 124 49t43 139v440h90v-450q0 -119 -67.5 -189.5t-194.5 -70.5q-130 0 -196 70zM363 890h107l-89 -128h-67z" />
    <glyph glyph-name="Ucircumflex" unicode="&#xdb;" horiz-adv-x="694" 
d="M151 60q-66 70 -66 190v450h90v-440q0 -90 43 -139t124 -49h10q81 0 124 49t43 139v440h90v-450q0 -119 -67.5 -189.5t-194.5 -70.5q-130 0 -196 70zM292 890h110l111 -128h-76l-90 70l-90 -70h-76z" />
    <glyph glyph-name="Udieresis" unicode="&#xdc;" horiz-adv-x="694" 
d="M151 60q-66 70 -66 190v450h90v-440q0 -90 43 -139t124 -49h10q81 0 124 49t43 139v440h90v-450q0 -119 -67.5 -189.5t-194.5 -70.5q-130 0 -196 70zM406 791q-15 15 -15 37t15 37.5t37 15.5t37.5 -15.5t15.5 -37.5t-15.5 -37t-37.5 -15t-37 15zM214.5 791
q-15.5 15 -15.5 37t15.5 37.5t36.5 15.5q22 0 37.5 -15.5t15.5 -37.5t-15.5 -37t-37.5 -15q-21 0 -36.5 15z" />
    <glyph glyph-name="Yacute" unicode="&#xdd;" horiz-adv-x="613" 
d="M262 290l-252 410h104l195 -321l194 321h100l-251 -410v-290h-90v290zM323 890h107l-89 -128h-67z" />
    <glyph glyph-name="Thorn" unicode="&#xde;" horiz-adv-x="649" 
d="M92 700h90v-140h200q64 0 114.5 -24.5t79.5 -72t29 -113.5t-29 -113.5t-79.5 -72t-114.5 -24.5h-200v-140h-90v700zM367 222q70 0 109 32.5t39 95.5t-39 95.5t-109 32.5h-185v-256h185z" />
    <glyph glyph-name="germandbls" unicode="&#xdf;" horiz-adv-x="547" 
d="M132.5 652.5q54.5 57.5 149.5 57.5q60 0 104 -24t67 -64.5t23 -90.5q0 -60 -32.5 -101.5t-74.5 -54.5q30 -4 60.5 -25.5t51 -59.5t20.5 -87q0 -94 -59 -148.5t-160 -54.5h-54v77h47q69 0 105 35t36 93q0 60 -40 94.5t-98 34.5h-50v72h43q37 0 65 17t43 44.5t15 57.5
q0 49 -30 81t-77 32h-10q-50 0 -82 -35t-32 -106v-682h-85v687q0 93 54.5 150.5z" />
    <glyph glyph-name="agrave" unicode="&#xe0;" horiz-adv-x="551" 
d="M95 31.5q-48 41.5 -48 106.5q0 140 194 154l153 11v17q0 55 -35 86.5t-91 31.5h-5q-45 0 -78.5 -21.5t-42.5 -59.5h-84q10 67 67 110t143 43q68 0 115.5 -25.5t71.5 -69.5t24 -98v-207q0 -75 5 -110h-80q-5 29 -5 79q-21 -36 -68.5 -62.5t-107.5 -26.5q-80 0 -128 41.5z
M312 79q36 17 59 51t23 81v25l-140 -9q-60 -4 -91 -26t-31 -59q0 -35 28 -57.5t74 -22.5h5q37 0 73 17zM149 700h93l56 -133h-60z" />
    <glyph glyph-name="aacute" unicode="&#xe1;" horiz-adv-x="551" 
d="M95 31.5q-48 41.5 -48 106.5q0 140 194 154l153 11v17q0 55 -35 86.5t-91 31.5h-5q-45 0 -78.5 -21.5t-42.5 -59.5h-84q10 67 67 110t143 43q68 0 115.5 -25.5t71.5 -69.5t24 -98v-207q0 -75 5 -110h-80q-5 29 -5 79q-21 -36 -68.5 -62.5t-107.5 -26.5q-80 0 -128 41.5z
M312 79q36 17 59 51t23 81v25l-140 -9q-60 -4 -91 -26t-31 -59q0 -35 28 -57.5t74 -22.5h5q37 0 73 17zM295 700h93l-89 -133h-60z" />
    <glyph glyph-name="acircumflex" unicode="&#xe2;" horiz-adv-x="551" 
d="M95 31.5q-48 41.5 -48 106.5q0 140 194 154l153 11v17q0 55 -35 86.5t-91 31.5h-5q-45 0 -78.5 -21.5t-42.5 -59.5h-84q10 67 67 110t143 43q68 0 115.5 -25.5t71.5 -69.5t24 -98v-207q0 -75 5 -110h-80q-5 29 -5 79q-21 -36 -68.5 -62.5t-107.5 -26.5q-80 0 -128 41.5z
M312 79q36 17 59 51t23 81v25l-140 -9q-60 -4 -91 -26t-31 -59q0 -35 28 -57.5t74 -22.5h5q37 0 73 17zM224 700h89l122 -133h-66l-100 75l-100 -75h-67z" />
    <glyph glyph-name="atilde" unicode="&#xe3;" horiz-adv-x="551" 
d="M95 31.5q-48 41.5 -48 106.5q0 140 194 154l153 11v17q0 55 -35 86.5t-91 31.5h-5q-45 0 -78.5 -21.5t-42.5 -59.5h-84q10 67 67 110t143 43q68 0 115.5 -25.5t71.5 -69.5t24 -98v-207q0 -75 5 -110h-80q-5 29 -5 79q-21 -36 -68.5 -62.5t-107.5 -26.5q-80 0 -128 41.5z
M312 79q36 17 59 51t23 81v25l-140 -9q-60 -4 -91 -26t-31 -59q0 -35 28 -57.5t74 -22.5h5q37 0 73 17zM265 590l-27 19q-22 16 -44 16q-37 0 -37 -58h-63v25q0 43 26.5 72t67.5 29q39 0 82 -30l23 -17q32 -21 51 -21q36 0 36 58h63v-25q0 -43 -26 -72t-66 -29q-39 0 -86 33
z" />
    <glyph glyph-name="adieresis" unicode="&#xe4;" horiz-adv-x="551" 
d="M95 31.5q-48 41.5 -48 106.5q0 140 194 154l153 11v17q0 55 -35 86.5t-91 31.5h-5q-45 0 -78.5 -21.5t-42.5 -59.5h-84q10 67 67 110t143 43q68 0 115.5 -25.5t71.5 -69.5t24 -98v-207q0 -75 5 -110h-80q-5 29 -5 79q-21 -36 -68.5 -62.5t-107.5 -26.5q-80 0 -128 41.5z
M312 79q36 17 59 51t23 81v25l-140 -9q-60 -4 -91 -26t-31 -59q0 -35 28 -57.5t74 -22.5h5q37 0 73 17zM327.5 601q-14.5 15 -14.5 35q0 22 14.5 37t35.5 15t36 -15t15 -37q0 -20 -15 -35t-36 -15t-35.5 15zM138 601q-15 15 -15 35q0 22 15 37t36 15t36 -15t15 -37
q0 -20 -15 -35t-36 -15t-36 15z" />
    <glyph glyph-name="aring" unicode="&#xe5;" horiz-adv-x="551" 
d="M95 31.5q-48 41.5 -48 106.5q0 140 194 154l153 11v17q0 55 -35 86.5t-91 31.5h-5q-45 0 -78.5 -21.5t-42.5 -59.5h-84q10 67 67 110t143 43q68 0 115.5 -25.5t71.5 -69.5t24 -98v-207q0 -75 5 -110h-80q-5 29 -5 79q-21 -36 -68.5 -62.5t-107.5 -26.5q-80 0 -128 41.5z
M312 79q36 17 59 51t23 81v25l-140 -9q-60 -4 -91 -26t-31 -59q0 -35 28 -57.5t74 -22.5h5q37 0 73 17zM204 584.5q-27 26.5 -27 64.5t27 64.5t64 26.5t64.5 -26.5t27.5 -64.5t-27.5 -64.5t-64.5 -26.5t-64 26.5zM299.5 618q12.5 13 12.5 31t-12.5 31t-30.5 13t-31 -13
t-13 -31t13 -31t31 -13t30.5 13z" />
    <glyph glyph-name="ae" unicode="&#xe6;" horiz-adv-x="891" 
d="M95.5 31.5q-48.5 41.5 -48.5 106.5q0 140 194 154l153 11v17q0 55 -35 86.5t-91 31.5h-5q-45 0 -78.5 -21.5t-42.5 -59.5h-84q10 67 67 110t143 43q65 0 110.5 -23t71.5 -64q32 42 78 64.5t100 22.5q57 0 103.5 -25t75.5 -72t34 -109q3 -21 3 -66h-362q3 -84 44 -129.5
t101 -45.5h6q45 0 76 22.5t43 64.5h87q-16 -74 -73 -117t-137 -43q-63 0 -113.5 28.5t-81.5 81.5q-27 -47 -80 -78.5t-129 -31.5q-81 0 -129.5 41.5zM312 79q36 17 59 51t23 81v25l-140 -9q-60 -4 -91 -26t-31 -59q0 -35 28 -57.5t74 -22.5h5q37 0 73 17zM718.5 403
q-34.5 35 -87.5 35h-7q-50 0 -88 -32t-50 -99h271q-4 61 -38.5 96z" />
    <glyph glyph-name="ccedilla" unicode="&#xe7;" horiz-adv-x="537" 
d="M218 -170h64q23 0 34.5 9.5t11.5 27.5q0 17 -11.5 26t-31.5 9h-32v89q-64 6 -111 42t-71.5 92.5t-24.5 124.5q0 72 28 131.5t81 94t123 34.5q59 0 106 -23t75.5 -63t34.5 -91h-87q-7 43 -41.5 73.5t-85.5 30.5h-4q-67 0 -106 -54t-39 -133t39 -132.5t107 -53.5h3
q50 0 84 30t43 73h87q-12 -72 -62 -120t-127 -56v-41q38 -2 61.5 -25.5t23.5 -59.5q0 -44 -30 -70.5t-79 -26.5h-63v62z" />
    <glyph glyph-name="egrave" unicode="&#xe8;" horiz-adv-x="542" 
d="M159.5 22q-52.5 32 -83 91t-30.5 138q0 78 31.5 137t84 90.5t114.5 31.5q87 0 145.5 -52.5t71.5 -142.5q4 -31 4 -77h-366q3 -83 44.5 -129t100.5 -46h6q44 0 76.5 23.5t44.5 63.5h87q-17 -72 -75 -116t-137 -44q-66 0 -118.5 32zM369.5 403q-35.5 35 -88.5 35h-8
q-50 0 -88 -32.5t-50 -98.5h274q-4 61 -39.5 96zM156 700h93l56 -133h-60z" />
    <glyph glyph-name="eacute" unicode="&#xe9;" horiz-adv-x="542" 
d="M159.5 22q-52.5 32 -83 91t-30.5 138q0 78 31.5 137t84 90.5t114.5 31.5q87 0 145.5 -52.5t71.5 -142.5q4 -31 4 -77h-366q3 -83 44.5 -129t100.5 -46h6q44 0 76.5 23.5t44.5 63.5h87q-17 -72 -75 -116t-137 -44q-66 0 -118.5 32zM369.5 403q-35.5 35 -88.5 35h-8
q-50 0 -88 -32.5t-50 -98.5h274q-4 61 -39.5 96zM302 700h93l-89 -133h-60z" />
    <glyph glyph-name="ecircumflex" unicode="&#xea;" horiz-adv-x="542" 
d="M159.5 22q-52.5 32 -83 91t-30.5 138q0 78 31.5 137t84 90.5t114.5 31.5q87 0 145.5 -52.5t71.5 -142.5q4 -31 4 -77h-366q3 -83 44.5 -129t100.5 -46h6q44 0 76.5 23.5t44.5 63.5h87q-17 -72 -75 -116t-137 -44q-66 0 -118.5 32zM369.5 403q-35.5 35 -88.5 35h-8
q-50 0 -88 -32.5t-50 -98.5h274q-4 61 -39.5 96zM231 700h89l122 -133h-66l-100 75l-100 -75h-67z" />
    <glyph glyph-name="edieresis" unicode="&#xeb;" horiz-adv-x="542" 
d="M159.5 22q-52.5 32 -83 91t-30.5 138q0 78 31.5 137t84 90.5t114.5 31.5q87 0 145.5 -52.5t71.5 -142.5q4 -31 4 -77h-366q3 -83 44.5 -129t100.5 -46h6q44 0 76.5 23.5t44.5 63.5h87q-17 -72 -75 -116t-137 -44q-66 0 -118.5 32zM369.5 403q-35.5 35 -88.5 35h-8
q-50 0 -88 -32.5t-50 -98.5h274q-4 61 -39.5 96zM334.5 601q-14.5 15 -14.5 35q0 22 14.5 37t35.5 15t36 -15t15 -37q0 -20 -15 -35t-36 -15t-35.5 15zM145 601q-15 15 -15 35q0 22 15 37t36 15t36 -15t15 -37q0 -20 -15 -35t-36 -15t-36 15z" />
    <glyph glyph-name="igrave" unicode="&#xec;" horiz-adv-x="240" 
d="M78 500h85v-500h-85v500zM1 700h93l56 -133h-60z" />
    <glyph glyph-name="iacute" unicode="&#xed;" horiz-adv-x="240" 
d="M78 500h85v-500h-85v500zM147 700h93l-89 -133h-60z" />
    <glyph glyph-name="icircumflex" unicode="&#xee;" horiz-adv-x="240" 
d="M78 500h85v-500h-85v500zM76 700h89l122 -133h-66l-100 75l-100 -75h-67z" />
    <glyph glyph-name="idieresis" unicode="&#xef;" horiz-adv-x="240" 
d="M78 500h85v-500h-85v500zM179.5 601q-14.5 15 -14.5 35q0 22 14.5 37t35.5 15t36 -15t15 -37q0 -20 -15 -35t-36 -15t-35.5 15zM-10 601q-15 15 -15 35q0 22 15 37t36 15t36 -15t15 -37q0 -20 -15 -35t-36 -15t-36 15z" />
    <glyph glyph-name="eth" unicode="&#xf0;" horiz-adv-x="573" 
d="M152.5 22.5q-51.5 32.5 -79 89.5t-27.5 129q0 65 27 118.5t76.5 84.5t114.5 31q49 0 90.5 -17.5t66.5 -47.5q-23 105 -103 164l-107 -49l-28 57l67 31q-42 18 -102 30l18 74q102 -19 174 -63l116 54l28 -57l-87 -40q64 -60 91.5 -142t27.5 -174q0 -95 -29.5 -164
t-84 -105t-127.5 -36q-71 0 -122.5 32.5zM356.5 83.5q33.5 21.5 53 62t19.5 94.5q0 50 -19.5 87t-53 56.5t-74.5 19.5h-10q-64 0 -103 -43.5t-39 -119.5q0 -82 39.5 -130t104.5 -48h8q41 0 74.5 21.5z" />
    <glyph glyph-name="ntilde" unicode="&#xf1;" horiz-adv-x="578" 
d="M78 500h85v-69q23 35 64.5 57t94.5 22q54 0 96 -24t65 -68t23 -101v-317h-85v296q0 66 -30.5 102t-88.5 36h-2q-61 0 -99 -47t-38 -122v-265h-85v500zM288 590l-27 19q-22 16 -44 16q-37 0 -37 -58h-63v25q0 43 26.5 72t67.5 29q39 0 82 -30l23 -17q32 -21 51 -21
q36 0 36 58h63v-25q0 -43 -26 -72t-66 -29q-39 0 -86 33z" />
    <glyph glyph-name="ograve" unicode="&#xf2;" horiz-adv-x="571" 
d="M163 23.5q-55 33.5 -86.5 93t-31.5 133.5t31.5 133.5t86.5 93t123 33.5t123 -33.5t86.5 -93t31.5 -133.5t-31.5 -133.5t-86.5 -93t-123 -33.5t-123 33.5zM367 87q35 23 54.5 65.5t19.5 97.5t-19.5 97.5t-54.5 66t-78 23.5h-7q-43 0 -77.5 -23.5t-54 -66t-19.5 -97.5
t19.5 -97.5t54 -65.5t77.5 -23h7q43 0 78 23zM166 700h93l56 -133h-60z" />
    <glyph glyph-name="oacute" unicode="&#xf3;" horiz-adv-x="571" 
d="M163 23.5q-55 33.5 -86.5 93t-31.5 133.5t31.5 133.5t86.5 93t123 33.5t123 -33.5t86.5 -93t31.5 -133.5t-31.5 -133.5t-86.5 -93t-123 -33.5t-123 33.5zM367 87q35 23 54.5 65.5t19.5 97.5t-19.5 97.5t-54.5 66t-78 23.5h-7q-43 0 -77.5 -23.5t-54 -66t-19.5 -97.5
t19.5 -97.5t54 -65.5t77.5 -23h7q43 0 78 23zM312 700h93l-89 -133h-60z" />
    <glyph glyph-name="ocircumflex" unicode="&#xf4;" horiz-adv-x="571" 
d="M163 23.5q-55 33.5 -86.5 93t-31.5 133.5t31.5 133.5t86.5 93t123 33.5t123 -33.5t86.5 -93t31.5 -133.5t-31.5 -133.5t-86.5 -93t-123 -33.5t-123 33.5zM367 87q35 23 54.5 65.5t19.5 97.5t-19.5 97.5t-54.5 66t-78 23.5h-7q-43 0 -77.5 -23.5t-54 -66t-19.5 -97.5
t19.5 -97.5t54 -65.5t77.5 -23h7q43 0 78 23zM241 700h89l122 -133h-66l-100 75l-100 -75h-67z" />
    <glyph glyph-name="otilde" unicode="&#xf5;" horiz-adv-x="571" 
d="M163 23.5q-55 33.5 -86.5 93t-31.5 133.5t31.5 133.5t86.5 93t123 33.5t123 -33.5t86.5 -93t31.5 -133.5t-31.5 -133.5t-86.5 -93t-123 -33.5t-123 33.5zM367 87q35 23 54.5 65.5t19.5 97.5t-19.5 97.5t-54.5 66t-78 23.5h-7q-43 0 -77.5 -23.5t-54 -66t-19.5 -97.5
t19.5 -97.5t54 -65.5t77.5 -23h7q43 0 78 23zM282 590l-27 19q-22 16 -44 16q-37 0 -37 -58h-63v25q0 43 26.5 72t67.5 29q39 0 82 -30l23 -17q32 -21 51 -21q36 0 36 58h63v-25q0 -43 -26 -72t-66 -29q-39 0 -86 33z" />
    <glyph glyph-name="odieresis" unicode="&#xf6;" horiz-adv-x="571" 
d="M163 23.5q-55 33.5 -86.5 93t-31.5 133.5t31.5 133.5t86.5 93t123 33.5t123 -33.5t86.5 -93t31.5 -133.5t-31.5 -133.5t-86.5 -93t-123 -33.5t-123 33.5zM367 87q35 23 54.5 65.5t19.5 97.5t-19.5 97.5t-54.5 66t-78 23.5h-7q-43 0 -77.5 -23.5t-54 -66t-19.5 -97.5
t19.5 -97.5t54 -65.5t77.5 -23h7q43 0 78 23zM344.5 601q-14.5 15 -14.5 35q0 22 14.5 37t35.5 15t36 -15t15 -37q0 -20 -15 -35t-36 -15t-35.5 15zM155 601q-15 15 -15 35q0 22 15 37t36 15t36 -15t15 -37q0 -20 -15 -35t-36 -15t-36 15z" />
    <glyph glyph-name="divide" unicode="&#xf7;" horiz-adv-x="610" 
d="M58 297h494v-79h-494v79zM259.5 42.5q-18.5 18.5 -18.5 46.5q0 26 18.5 45t45.5 19t45.5 -19t18.5 -45q0 -28 -18.5 -46.5t-45.5 -18.5t-45.5 18.5zM259.5 381q-18.5 19 -18.5 45q0 27 18.5 46t45.5 19t45.5 -19t18.5 -46q0 -26 -18.5 -45t-45.5 -19t-45.5 19z" />
    <glyph glyph-name="oslash" unicode="&#xf8;" horiz-adv-x="576" 
d="M160 28l-50 -66l-54 45l52 68q-60 73 -60 175q0 74 31.5 133.5t86.5 93t123 33.5q69 0 125 -35l48 63l58 -41l-52 -68q30 -35 46 -81t16 -98q0 -74 -31.5 -133.5t-86.5 -93t-123 -33.5q-70 0 -129 38zM370 87q35 23 54.5 65.5t19.5 97.5q0 64 -27 112l-211 -274
q35 -24 79 -24h7q43 0 78 23zM159 142l209 273q-34 22 -76 22h-7q-43 0 -77.5 -23.5t-54 -66t-19.5 -97.5q0 -61 25 -108z" />
    <glyph glyph-name="ugrave" unicode="&#xf9;" horiz-adv-x="568" 
d="M158.5 14q-40.5 24 -63.5 68t-23 101v317h85v-296q0 -66 29 -102t84 -36h2q61 0 97.5 49t36.5 144v241h85v-500h-85v69q-24 -36 -64 -57.5t-91 -21.5q-52 0 -92.5 24zM162 700h93l56 -133h-60z" />
    <glyph glyph-name="uacute" unicode="&#xfa;" horiz-adv-x="568" 
d="M158.5 14q-40.5 24 -63.5 68t-23 101v317h85v-296q0 -66 29 -102t84 -36h2q61 0 97.5 49t36.5 144v241h85v-500h-85v69q-24 -36 -64 -57.5t-91 -21.5q-52 0 -92.5 24zM308 700h93l-89 -133h-60z" />
    <glyph glyph-name="ucircumflex" unicode="&#xfb;" horiz-adv-x="568" 
d="M158.5 14q-40.5 24 -63.5 68t-23 101v317h85v-296q0 -66 29 -102t84 -36h2q61 0 97.5 49t36.5 144v241h85v-500h-85v69q-24 -36 -64 -57.5t-91 -21.5q-52 0 -92.5 24zM237 700h89l122 -133h-66l-100 75l-100 -75h-67z" />
    <glyph glyph-name="udieresis" unicode="&#xfc;" horiz-adv-x="568" 
d="M158.5 14q-40.5 24 -63.5 68t-23 101v317h85v-296q0 -66 29 -102t84 -36h2q61 0 97.5 49t36.5 144v241h85v-500h-85v69q-24 -36 -64 -57.5t-91 -21.5q-52 0 -92.5 24zM340.5 601q-14.5 15 -14.5 35q0 22 14.5 37t35.5 15t36 -15t15 -37q0 -20 -15 -35t-36 -15t-35.5 15z
M151 601q-15 15 -15 35q0 22 15 37t36 15t36 -15t15 -37q0 -20 -15 -35t-36 -15t-36 15z" />
    <glyph glyph-name="yacute" unicode="&#xfd;" horiz-adv-x="520" 
d="M32 -100h94q28 0 45 13.5t30 45.5l23 60l-219 481h91l170 -374l149 374h88l-229 -570q-24 -60 -58.5 -82.5t-91.5 -22.5h-92v75zM281 700h93l-89 -133h-60z" />
    <glyph glyph-name="thorn" unicode="&#xfe;" horiz-adv-x="598" 
d="M78 700h85v-271q20 34 65.5 57.5t98.5 23.5q65 0 115.5 -31.5t79.5 -90.5t29 -138t-29.5 -137.5t-81 -90t-116.5 -31.5q-54 0 -97.5 23t-63.5 57v-271h-85v900zM425.5 116q40.5 52 40.5 134q0 83 -40.5 135t-107.5 52h-6q-44 0 -78.5 -24t-53.5 -66.5t-19 -96.5
q0 -53 19 -95.5t53.5 -66.5t78.5 -24h6q67 0 107.5 52z" />
    <glyph glyph-name="ydieresis" unicode="&#xff;" horiz-adv-x="520" 
d="M32 -100h94q28 0 45 13.5t30 45.5l23 60l-219 481h91l170 -374l149 374h88l-229 -570q-24 -60 -58.5 -82.5t-91.5 -22.5h-92v75zM313.5 601q-14.5 15 -14.5 35q0 22 14.5 37t35.5 15t36 -15t15 -37q0 -20 -15 -35t-36 -15t-35.5 15zM124 601q-15 15 -15 35q0 22 15 37
t36 15t36 -15t15 -37q0 -20 -15 -35t-36 -15t-36 15z" />
    <glyph glyph-name="Amacron" unicode="&#x100;" horiz-adv-x="692" 
d="M289 700h115l278 -700h-94l-73 184h-341l-73 -184h-92zM483 266l-139 350l-138 -350h277zM201 848h289v-68h-289v68z" />
    <glyph glyph-name="amacron" unicode="&#x101;" horiz-adv-x="551" 
d="M95 31.5q-48 41.5 -48 106.5q0 140 194 154l153 11v17q0 55 -35 86.5t-91 31.5h-5q-45 0 -78.5 -21.5t-42.5 -59.5h-84q10 67 67 110t143 43q68 0 115.5 -25.5t71.5 -69.5t24 -98v-207q0 -75 5 -110h-80q-5 29 -5 79q-21 -36 -68.5 -62.5t-107.5 -26.5q-80 0 -128 41.5z
M312 79q36 17 59 51t23 81v25l-140 -9q-60 -4 -91 -26t-31 -59q0 -35 28 -57.5t74 -22.5h5q37 0 73 17zM128 658h282v-68h-282v68z" />
    <glyph glyph-name="Abreve" unicode="&#x102;" horiz-adv-x="692" 
d="M289 700h115l278 -700h-94l-73 184h-341l-73 -184h-92zM483 266l-139 350l-138 -350h277zM236.5 788.5q-42.5 36.5 -42.5 101.5h68q2 -37 25.5 -55t58.5 -18q34 0 58 18t25 55h68q0 -65 -42 -101.5t-109 -36.5t-109.5 36.5z" />
    <glyph glyph-name="abreve" unicode="&#x103;" horiz-adv-x="551" 
d="M95 31.5q-48 41.5 -48 106.5q0 140 194 154l153 11v17q0 55 -35 86.5t-91 31.5h-5q-45 0 -78.5 -21.5t-42.5 -59.5h-84q10 67 67 110t143 43q68 0 115.5 -25.5t71.5 -69.5t24 -98v-207q0 -75 5 -110h-80q-5 29 -5 79q-21 -36 -68.5 -62.5t-107.5 -26.5q-80 0 -128 41.5z
M312 79q36 17 59 51t23 81v25l-140 -9q-60 -4 -91 -26t-31 -59q0 -35 28 -57.5t74 -22.5h5q37 0 73 17zM165 594q-41 37 -43 106h63q4 -42 26.5 -62.5t57.5 -20.5q34 0 56.5 20.5t26.5 62.5h63q-2 -68 -44 -105.5t-102 -37.5q-63 0 -104 37z" />
    <glyph glyph-name="Aogonek" unicode="&#x104;" horiz-adv-x="692" 
d="M289 700h115l278 -700h-29q-40 -24 -63.5 -47.5t-23.5 -51.5q0 -41 61 -41h19v-62h-37q-50 0 -78.5 23.5t-28.5 61.5q0 39 25 69t60 49l-72 183h-341l-73 -184h-92zM483 266l-139 350l-138 -350h277z" />
    <glyph glyph-name="aogonek" unicode="&#x105;" horiz-adv-x="551" 
d="M95 31.5q-48 41.5 -48 106.5q0 140 194 154l153 11v17q0 55 -35 86.5t-91 31.5h-5q-45 0 -78.5 -21.5t-42.5 -59.5h-84q10 67 67 110t143 43q68 0 115.5 -25.5t71.5 -69.5t24 -98v-207q0 -75 5 -110q-40 -24 -63.5 -47.5t-23.5 -51.5q0 -41 61 -41h19v-62h-37
q-50 0 -78.5 23.5t-28.5 61.5q0 39 24.5 68.5t58.5 48.5h-12q-5 29 -5 79q-21 -36 -68.5 -62.5t-107.5 -26.5q-80 0 -128 41.5zM312 79q36 17 59 51t23 81v25l-140 -9q-60 -4 -91 -26t-31 -59q0 -35 28 -57.5t74 -22.5h5q37 0 73 17z" />
    <glyph glyph-name="Cacute" unicode="&#x106;" horiz-adv-x="714" 
d="M204 37q-74 47 -114 128.5t-40 184.5q0 102 40.5 184t114.5 129t172 47q77 0 140 -30t102.5 -84t48.5 -125h-92q-12 70 -64 113.5t-131 43.5h-8q-71 0 -123.5 -36.5t-80.5 -100t-28 -141.5t28 -141.5t80.5 -100t123.5 -36.5h8q79 0 131.5 43.5t64.5 113.5h91
q-9 -71 -49 -125t-102.5 -84t-139.5 -30q-99 0 -173 47zM394 890h107l-89 -128h-67z" />
    <glyph glyph-name="cacute" unicode="&#x107;" horiz-adv-x="537" 
d="M155 24.5q-53 34.5 -81 94t-28 131.5t28 131.5t81 94t123 34.5q59 0 106 -23t75.5 -63t34.5 -91h-87q-7 43 -41.5 73.5t-85.5 30.5h-4q-67 0 -106 -54t-39 -133t39 -132.5t107 -53.5h3q50 0 84 30t43 73h87q-13 -78 -70.5 -127.5t-145.5 -49.5q-70 0 -123 34.5zM305 700
h93l-89 -133h-60z" />
    <glyph glyph-name="Ccircumflex" unicode="&#x108;" horiz-adv-x="714" 
d="M204 37q-74 47 -114 128.5t-40 184.5q0 102 40.5 184t114.5 129t172 47q77 0 140 -30t102.5 -84t48.5 -125h-92q-12 70 -64 113.5t-131 43.5h-8q-71 0 -123.5 -36.5t-80.5 -100t-28 -141.5t28 -141.5t80.5 -100t123.5 -36.5h8q79 0 131.5 43.5t64.5 113.5h91
q-9 -71 -49 -125t-102.5 -84t-139.5 -30q-99 0 -173 47zM323 890h110l111 -128h-76l-90 70l-90 -70h-76z" />
    <glyph glyph-name="ccircumflex" unicode="&#x109;" horiz-adv-x="537" 
d="M155 24.5q-53 34.5 -81 94t-28 131.5t28 131.5t81 94t123 34.5q59 0 106 -23t75.5 -63t34.5 -91h-87q-7 43 -41.5 73.5t-85.5 30.5h-4q-67 0 -106 -54t-39 -133t39 -132.5t107 -53.5h3q50 0 84 30t43 73h87q-13 -78 -70.5 -127.5t-145.5 -49.5q-70 0 -123 34.5zM234 700
h89l122 -133h-66l-100 75l-100 -75h-67z" />
    <glyph glyph-name="Cdotaccent" unicode="&#x10a;" horiz-adv-x="714" 
d="M204 37q-74 47 -114 128.5t-40 184.5q0 102 40.5 184t114.5 129t172 47q77 0 140 -30t102.5 -84t48.5 -125h-92q-12 70 -64 113.5t-131 43.5h-8q-71 0 -123.5 -36.5t-80.5 -100t-28 -141.5t28 -141.5t80.5 -100t123.5 -36.5h8q79 0 131.5 43.5t64.5 113.5h91
q-9 -71 -49 -125t-102.5 -84t-139.5 -30q-99 0 -173 47zM339 792q-16 16 -16 38q0 23 16 38.5t38 15.5q23 0 38.5 -15.5t15.5 -38.5q0 -22 -15.5 -38t-38.5 -16q-22 0 -38 16z" />
    <glyph glyph-name="cdotaccent" unicode="&#x10b;" horiz-adv-x="537" 
d="M155 24.5q-53 34.5 -81 94t-28 131.5t28 131.5t81 94t123 34.5q59 0 106 -23t75.5 -63t34.5 -91h-87q-7 43 -41.5 73.5t-85.5 30.5h-4q-67 0 -106 -54t-39 -133t39 -132.5t107 -53.5h3q50 0 84 30t43 73h87q-13 -78 -70.5 -127.5t-145.5 -49.5q-70 0 -123 34.5z
M239.5 609q-16.5 16 -16.5 39t16.5 39.5t39.5 16.5t39 -16.5t16 -39.5q0 -22 -16 -38.5t-39 -16.5t-39.5 16z" />
    <glyph glyph-name="Ccaron" unicode="&#x10c;" horiz-adv-x="714" 
d="M204 37q-74 47 -114 128.5t-40 184.5q0 102 40.5 184t114.5 129t172 47q77 0 140 -30t102.5 -84t48.5 -125h-92q-12 70 -64 113.5t-131 43.5h-8q-71 0 -123.5 -36.5t-80.5 -100t-28 -141.5t28 -141.5t80.5 -100t123.5 -36.5h8q79 0 131.5 43.5t64.5 113.5h91
q-9 -71 -49 -125t-102.5 -84t-139.5 -30q-99 0 -173 47zM212 890h76l90 -70l90 70h76l-111 -128h-110z" />
    <glyph glyph-name="ccaron" unicode="&#x10d;" horiz-adv-x="537" 
d="M155 24.5q-53 34.5 -81 94t-28 131.5t28 131.5t81 94t123 34.5q59 0 106 -23t75.5 -63t34.5 -91h-87q-7 43 -41.5 73.5t-85.5 30.5h-4q-67 0 -106 -54t-39 -133t39 -132.5t107 -53.5h3q50 0 84 30t43 73h87q-13 -78 -70.5 -127.5t-145.5 -49.5q-70 0 -123 34.5zM112 700
h67l100 -75l100 75h66l-122 -133h-89z" />
    <glyph glyph-name="Dcaron" unicode="&#x10e;" horiz-adv-x="711" 
d="M92 700h246q97 0 169.5 -42t112.5 -121.5t40 -187.5t-40 -187t-112.5 -120.5t-169.5 -41.5h-246v700zM507.5 151q62.5 69 62.5 199t-62.5 199t-179.5 69h-146v-536h146q117 0 179.5 69zM176 890h76l90 -70l90 70h76l-111 -128h-110z" />
    <glyph glyph-name="dcaron" unicode="&#x10f;" horiz-adv-x="599" 
d="M155 21.5q-51 31.5 -80.5 90.5t-29.5 138t30 137.5t82 90t117 31.5q54 0 98 -22.5t64 -57.5v271h85v-700h-85v71q-20 -34 -65.5 -57.5t-99.5 -23.5q-65 0 -116 31.5zM365 87q35 24 54 66.5t19 96.5t-19 96t-54 66t-79 24h-6q-67 0 -108 -52t-41 -134t41 -134.5t108 -52.5
h6q44 0 79 24zM571 562h8q52 0 52 40v6h-40v92h85v-98q0 -38 -24.5 -61.5t-67.5 -23.5h-13v45z" />
    <glyph glyph-name="Dcroat" unicode="&#x110;" horiz-adv-x="748" 
d="M129 310h-91v80h91v310h246q97 0 169.5 -42t112.5 -121.5t40 -187.5t-40 -187t-112.5 -120.5t-169.5 -41.5h-246v310zM544.5 151q62.5 69 62.5 199t-62.5 199t-179.5 69h-146v-228h152v-80h-152v-228h146q117 0 179.5 69z" />
    <glyph glyph-name="dcroat" unicode="&#x111;" horiz-adv-x="599" 
d="M155 21.5q-51 31.5 -80.5 90.5t-29.5 138t30 137.5t82 90t117 31.5q54 0 98 -22.5t64 -57.5v138h-162v68h162v65h85v-65h71v-68h-71v-567h-85v71q-20 -34 -65.5 -57.5t-99.5 -23.5q-65 0 -116 31.5zM365 87q35 24 54 66.5t19 96.5t-19 96t-54 66t-79 24h-6
q-67 0 -108 -52t-41 -134t41 -134.5t108 -52.5h6q44 0 79 24z" />
    <glyph glyph-name="Emacron" unicode="&#x112;" horiz-adv-x="649" 
d="M92 700h503v-82h-413v-217h353v-82h-353v-237h423v-82h-513v700zM198 848h289v-68h-289v68z" />
    <glyph glyph-name="emacron" unicode="&#x113;" horiz-adv-x="542" 
d="M159.5 22q-52.5 32 -83 91t-30.5 138q0 78 31.5 137t84 90.5t114.5 31.5q87 0 145.5 -52.5t71.5 -142.5q4 -31 4 -77h-366q3 -83 44.5 -129t100.5 -46h6q44 0 76.5 23.5t44.5 63.5h87q-17 -72 -75 -116t-137 -44q-66 0 -118.5 32zM369.5 403q-35.5 35 -88.5 35h-8
q-50 0 -88 -32.5t-50 -98.5h274q-4 61 -39.5 96zM135 658h282v-68h-282v68z" />
    <glyph glyph-name="Ebreve" unicode="&#x114;" horiz-adv-x="649" 
d="M92 700h503v-82h-413v-217h353v-82h-353v-237h423v-82h-513v700zM233.5 788.5q-42.5 36.5 -42.5 101.5h68q2 -37 25.5 -55t58.5 -18q34 0 58 18t25 55h68q0 -65 -42 -101.5t-109 -36.5t-109.5 36.5z" />
    <glyph glyph-name="ebreve" unicode="&#x115;" horiz-adv-x="542" 
d="M159.5 22q-52.5 32 -83 91t-30.5 138q0 78 31.5 137t84 90.5t114.5 31.5q87 0 145.5 -52.5t71.5 -142.5q4 -31 4 -77h-366q3 -83 44.5 -129t100.5 -46h6q44 0 76.5 23.5t44.5 63.5h87q-17 -72 -75 -116t-137 -44q-66 0 -118.5 32zM369.5 403q-35.5 35 -88.5 35h-8
q-50 0 -88 -32.5t-50 -98.5h274q-4 61 -39.5 96zM172 594q-41 37 -43 106h63q4 -42 26.5 -62.5t57.5 -20.5q34 0 56.5 20.5t26.5 62.5h63q-2 -68 -44 -105.5t-102 -37.5q-63 0 -104 37z" />
    <glyph glyph-name="Edotaccent" unicode="&#x116;" horiz-adv-x="649" 
d="M92 700h503v-82h-413v-217h353v-82h-353v-237h423v-82h-513v700zM304 792q-16 16 -16 38q0 23 16 38.5t38 15.5q23 0 38.5 -15.5t15.5 -38.5q0 -22 -15.5 -38t-38.5 -16q-22 0 -38 16z" />
    <glyph glyph-name="edotaccent" unicode="&#x117;" horiz-adv-x="542" 
d="M159.5 22q-52.5 32 -83 91t-30.5 138q0 78 31.5 137t84 90.5t114.5 31.5q87 0 145.5 -52.5t71.5 -142.5q4 -31 4 -77h-366q3 -83 44.5 -129t100.5 -46h6q44 0 76.5 23.5t44.5 63.5h87q-17 -72 -75 -116t-137 -44q-66 0 -118.5 32zM369.5 403q-35.5 35 -88.5 35h-8
q-50 0 -88 -32.5t-50 -98.5h274q-4 61 -39.5 96zM236.5 609q-16.5 16 -16.5 39t16.5 39.5t39.5 16.5t39 -16.5t16 -39.5q0 -22 -16 -38.5t-39 -16.5t-39.5 16z" />
    <glyph glyph-name="Eogonek" unicode="&#x118;" horiz-adv-x="649" 
d="M92 700h503v-82h-413v-217h353v-82h-353v-237h423v-82q-40 -24 -63.5 -47.5t-23.5 -51.5q0 -41 61 -41h19v-62h-37q-50 0 -78.5 23.5t-28.5 61.5q0 39 24.5 68.5t58.5 48.5h-445v700z" />
    <glyph glyph-name="eogonek" unicode="&#x119;" horiz-adv-x="542" 
d="M226 -178.5q-29 23.5 -29 61.5q0 34 19 61t48 46q-63 4 -112.5 36.5t-77.5 90.5t-28 134q0 78 31.5 137t84 90.5t114.5 31.5q86 0 145 -53t71 -141q5 -30 5 -78h-366q3 -83 44.5 -129t100.5 -46h6q44 0 76.5 23.5t44.5 63.5h87q-11 -49 -41.5 -84t-80.5 -60
q-56 -28 -81 -51.5t-25 -53.5q0 -41 60 -41h19v-62h-36q-50 0 -79 23.5zM369.5 403q-35.5 35 -88.5 35h-8q-50 0 -88 -32.5t-50 -98.5h274q-4 61 -39.5 96z" />
    <glyph glyph-name="Ecaron" unicode="&#x11a;" horiz-adv-x="649" 
d="M92 700h503v-82h-413v-217h353v-82h-353v-237h423v-82h-513v700zM177 890h76l90 -70l90 70h76l-111 -128h-110z" />
    <glyph glyph-name="ecaron" unicode="&#x11b;" horiz-adv-x="542" 
d="M159.5 22q-52.5 32 -83 91t-30.5 138q0 78 31.5 137t84 90.5t114.5 31.5q87 0 145.5 -52.5t71.5 -142.5q4 -31 4 -77h-366q3 -83 44.5 -129t100.5 -46h6q44 0 76.5 23.5t44.5 63.5h87q-17 -72 -75 -116t-137 -44q-66 0 -118.5 32zM369.5 403q-35.5 35 -88.5 35h-8
q-50 0 -88 -32.5t-50 -98.5h274q-4 61 -39.5 96zM109 700h67l100 -75l100 75h66l-122 -133h-89z" />
    <glyph glyph-name="Gcircumflex" unicode="&#x11c;" horiz-adv-x="741" 
d="M200.5 35.5q-72.5 45.5 -111.5 127t-39 186.5q0 104 42 186t117 128.5t171 46.5q82 0 145.5 -31t101 -85t45.5 -122h-92q-13 71 -65 113.5t-132 42.5h-8q-68 0 -121 -33.5t-83 -97t-30 -148.5t29 -147.5t82 -96t123 -33.5h8q58 0 106.5 26t76.5 73t28 105h-203v81h209
q38 0 58 -20t20 -58v-279h-82v102q-28 -46 -89 -79t-137 -33q-97 0 -169.5 45.5zM325 890h110l111 -128h-76l-90 70l-90 -70h-76z" />
    <glyph glyph-name="gcircumflex" unicode="&#x11d;" horiz-adv-x="593" 
d="M112.5 -177.5q-58.5 42.5 -65.5 112.5h85q7 -40 44 -61.5t95 -21.5h10q67 0 108.5 39.5t41.5 118.5v73q-22 -36 -63.5 -59.5t-96.5 -23.5q-62 0 -113 28.5t-81 86t-30 138.5q0 82 30 140t81 87.5t113 29.5q56 0 99 -24t61 -59v73h85v-499q0 -63 -29 -113.5t-83 -79
t-128 -28.5q-105 0 -163.5 42.5zM356.5 93.5q33.5 21.5 54 63t20.5 96.5q0 56 -19.5 98t-52.5 64.5t-72 22.5h-9q-62 0 -104 -48t-42 -137t40.5 -135t102.5 -46h8q40 0 73.5 21.5zM240 700h89l122 -133h-66l-100 75l-100 -75h-67z" />
    <glyph glyph-name="Gbreve" unicode="&#x11e;" horiz-adv-x="741" 
d="M200.5 35.5q-72.5 45.5 -111.5 127t-39 186.5q0 104 42 186t117 128.5t171 46.5q82 0 145.5 -31t101 -85t45.5 -122h-92q-13 71 -65 113.5t-132 42.5h-8q-68 0 -121 -33.5t-83 -97t-30 -148.5t29 -147.5t82 -96t123 -33.5h8q58 0 106.5 26t76.5 73t28 105h-203v81h209
q38 0 58 -20t20 -58v-279h-82v102q-28 -46 -89 -79t-137 -33q-97 0 -169.5 45.5zM270.5 788.5q-42.5 36.5 -42.5 101.5h68q2 -37 25.5 -55t58.5 -18q34 0 58 18t25 55h68q0 -65 -42 -101.5t-109 -36.5t-109.5 36.5z" />
    <glyph glyph-name="gbreve" unicode="&#x11f;" horiz-adv-x="593" 
d="M112.5 -177.5q-58.5 42.5 -65.5 112.5h85q7 -40 44 -61.5t95 -21.5h10q67 0 108.5 39.5t41.5 118.5v73q-22 -36 -63.5 -59.5t-96.5 -23.5q-62 0 -113 28.5t-81 86t-30 138.5q0 82 30 140t81 87.5t113 29.5q56 0 99 -24t61 -59v73h85v-499q0 -63 -29 -113.5t-83 -79
t-128 -28.5q-105 0 -163.5 42.5zM356.5 93.5q33.5 21.5 54 63t20.5 96.5q0 56 -19.5 98t-52.5 64.5t-72 22.5h-9q-62 0 -104 -48t-42 -137t40.5 -135t102.5 -46h8q40 0 73.5 21.5zM181 594q-41 37 -43 106h63q4 -42 26.5 -62.5t57.5 -20.5q34 0 56.5 20.5t26.5 62.5h63
q-2 -68 -44 -105.5t-102 -37.5q-63 0 -104 37z" />
    <glyph glyph-name="Gdotaccent" unicode="&#x120;" horiz-adv-x="741" 
d="M200.5 35.5q-72.5 45.5 -111.5 127t-39 186.5q0 104 42 186t117 128.5t171 46.5q82 0 145.5 -31t101 -85t45.5 -122h-92q-13 71 -65 113.5t-132 42.5h-8q-68 0 -121 -33.5t-83 -97t-30 -148.5t29 -147.5t82 -96t123 -33.5h8q58 0 106.5 26t76.5 73t28 105h-203v81h209
q38 0 58 -20t20 -58v-279h-82v102q-28 -46 -89 -79t-137 -33q-97 0 -169.5 45.5zM341 792q-16 16 -16 38q0 23 16 38.5t38 15.5q23 0 38.5 -15.5t15.5 -38.5q0 -22 -15.5 -38t-38.5 -16q-22 0 -38 16z" />
    <glyph glyph-name="gdotaccent" unicode="&#x121;" horiz-adv-x="593" 
d="M112.5 -177.5q-58.5 42.5 -65.5 112.5h85q7 -40 44 -61.5t95 -21.5h10q67 0 108.5 39.5t41.5 118.5v73q-22 -36 -63.5 -59.5t-96.5 -23.5q-62 0 -113 28.5t-81 86t-30 138.5q0 82 30 140t81 87.5t113 29.5q56 0 99 -24t61 -59v73h85v-499q0 -63 -29 -113.5t-83 -79
t-128 -28.5q-105 0 -163.5 42.5zM356.5 93.5q33.5 21.5 54 63t20.5 96.5q0 56 -19.5 98t-52.5 64.5t-72 22.5h-9q-62 0 -104 -48t-42 -137t40.5 -135t102.5 -46h8q40 0 73.5 21.5zM245.5 609q-16.5 16 -16.5 39t16.5 39.5t39.5 16.5t39 -16.5t16 -39.5q0 -22 -16 -38.5
t-39 -16.5t-39.5 16z" />
    <glyph glyph-name="uni0122" unicode="&#x122;" horiz-adv-x="741" 
d="M200.5 35.5q-72.5 45.5 -111.5 127t-39 186.5q0 104 42 186t117 128.5t171 46.5q82 0 145.5 -31t101 -85t45.5 -122h-92q-13 71 -65 113.5t-132 42.5h-8q-68 0 -121 -33.5t-83 -97t-30 -148.5t29 -147.5t82 -96t123 -33.5h8q58 0 106.5 26t76.5 73t28 105h-203v81h209
q38 0 58 -20t20 -58v-279h-82v102q-28 -46 -89 -79t-137 -33q-97 0 -169.5 45.5zM322 -213h5q48 0 48 33v6h-40v87h85v-93q0 -33 -23.5 -55.5t-64.5 -22.5h-10v45z" />
    <glyph glyph-name="uni0123" unicode="&#x123;" horiz-adv-x="593" 
d="M112.5 -177.5q-58.5 42.5 -65.5 112.5h85q7 -40 44 -61.5t95 -21.5h10q67 0 108.5 39.5t41.5 118.5v73q-22 -36 -63.5 -59.5t-96.5 -23.5q-62 0 -113 28.5t-81 86t-30 138.5q0 82 30 140t81 87.5t113 29.5q56 0 99 -24t61 -59v73h85v-499q0 -63 -29 -113.5t-83 -79
t-128 -28.5q-105 0 -163.5 42.5zM356.5 93.5q33.5 21.5 54 63t20.5 96.5q0 56 -19.5 98t-52.5 64.5t-72 22.5h-9q-62 0 -104 -48t-42 -137t40.5 -135t102.5 -46h8q40 0 73.5 21.5zM266.5 756.5q24.5 23.5 66.5 23.5h14v-45h-9q-51 0 -51 -40v-6h40v-92h-85v98
q0 38 24.5 61.5z" />
    <glyph glyph-name="Hcircumflex" unicode="&#x124;" horiz-adv-x="732" 
d="M92 700h90v-309h368v309h90v-700h-90v309h-368v-309h-90v700zM311 890h110l111 -128h-76l-90 70l-90 -70h-76z" />
    <glyph glyph-name="hcircumflex" unicode="&#x125;" horiz-adv-x="578" 
d="M78 700h85v-269q23 35 64.5 57t94.5 22q54 0 96 -24t65 -68t23 -101v-317h-85v296q0 66 -30.5 102t-88.5 36h-2q-61 0 -99 -47t-38 -122v-265h-85v700zM76 890h89l122 -133h-66l-100 75l-100 -75h-67z" />
    <glyph glyph-name="Hbar" unicode="&#x126;" horiz-adv-x="763" 
d="M108 513h-71v74h71v113h90v-113h368v113h90v-113h69v-74h-69v-513h-90v309h-368v-309h-90v513zM566 391v122h-368v-122h368z" />
    <glyph glyph-name="hbar" unicode="&#x127;" horiz-adv-x="578" 
d="M78 567h-74v68h74v65h85v-65h159v-68h-159v-136q23 35 64.5 57t94.5 22q54 0 96 -24t65 -68t23 -101v-317h-85v296q0 66 -30.5 102t-88.5 36h-2q-61 0 -99 -47t-38 -122v-265h-85v567z" />
    <glyph glyph-name="Itilde" unicode="&#x128;" horiz-adv-x="273" 
d="M92 700h90v-700h-90v700zM178 765.5q-20 8.5 -45 25.5l-27 18q-24 16 -45 16q-36 0 -36 -58h-63v25q0 43 26.5 72t67.5 29q37 0 80 -29l25 -18q32 -21 51 -21q36 0 36 58h63v-25q0 -43 -26 -72t-66 -29q-21 0 -41 8.5z" />
    <glyph glyph-name="itilde" unicode="&#x129;" horiz-adv-x="240" 
d="M78 500h85v-500h-85v500zM117 590l-27 19q-22 16 -44 16q-37 0 -37 -58h-63v25q0 43 26.5 72t67.5 29q39 0 82 -30l23 -17q32 -21 51 -21q36 0 36 58h63v-25q0 -43 -26 -72t-66 -29q-39 0 -86 33z" />
    <glyph glyph-name="Imacron" unicode="&#x12a;" horiz-adv-x="273" 
d="M92 700h90v-700h-90v700zM-8 848h289v-68h-289v68z" />
    <glyph glyph-name="imacron" unicode="&#x12b;" horiz-adv-x="240" 
d="M78 500h85v-500h-85v500zM-20 658h282v-68h-282v68z" />
    <glyph glyph-name="Ibreve" unicode="&#x12c;" horiz-adv-x="273" 
d="M92 700h90v-700h-90v700zM27.5 788.5q-42.5 36.5 -42.5 101.5h68q2 -37 25.5 -55t58.5 -18q34 0 58 18t25 55h68q0 -65 -42 -101.5t-109 -36.5t-109.5 36.5z" />
    <glyph glyph-name="ibreve" unicode="&#x12d;" horiz-adv-x="240" 
d="M78 500h85v-500h-85v500zM17 594q-41 37 -43 106h63q4 -42 26.5 -62.5t57.5 -20.5q34 0 56.5 20.5t26.5 62.5h63q-2 -68 -44 -105.5t-102 -37.5q-63 0 -104 37z" />
    <glyph glyph-name="Iogonek" unicode="&#x12e;" horiz-adv-x="273" 
d="M92 700h90v-700q-40 -24 -63.5 -47.5t-23.5 -51.5q0 -41 61 -41h19v-62h-37q-50 0 -78.5 23.5t-28.5 61.5q0 39 24.5 68.5t58.5 48.5h-22v700z" />
    <glyph glyph-name="iogonek" unicode="&#x12f;" horiz-adv-x="240" 
d="M78 500h85v-500q-40 -24 -63.5 -47.5t-23.5 -51.5q0 -41 61 -41h19v-62h-37q-50 0 -78.5 23.5t-28.5 61.5q0 39 24.5 68.5t58.5 48.5h-17v500zM81.5 609q-16.5 16 -16.5 39t16.5 39.5t39.5 16.5t39 -16.5t16 -39.5q0 -22 -16 -38.5t-39 -16.5t-39.5 16z" />
    <glyph glyph-name="Idotaccent" unicode="&#x130;" horiz-adv-x="273" 
d="M92 700h90v-700h-90v700zM98 792q-16 16 -16 38q0 23 16 38.5t38 15.5q23 0 38.5 -15.5t15.5 -38.5q0 -22 -15.5 -38t-38.5 -16q-22 0 -38 16z" />
    <glyph glyph-name="dotlessi" unicode="&#x131;" horiz-adv-x="240" 
d="M78 500h85v-500h-85v500z" />
    <glyph glyph-name="IJ" unicode="&#x132;" horiz-adv-x="577" 
d="M92 85h218q48 0 69 23.5t21 74.5v517h90v-522q0 -90 -42 -134t-128 -44h-228v85zM92 700h90v-508h-90v508z" />
    <glyph glyph-name="ij" unicode="&#x133;" horiz-adv-x="490" 
d="M78 -103h202q27 0 37.5 10.5t10.5 37.5v555h85v-564q0 -114 -117 -114h-218v75zM78 500h85v-500h-85v500zM81.5 604q-16.5 16 -16.5 38q0 23 16 39.5t39 16.5t39 -16.5t16 -39.5q0 -22 -16.5 -38t-38.5 -16t-38.5 16zM331.5 604q-16.5 16 -16.5 38q0 23 16.5 39.5
t39.5 16.5q22 0 38 -16.5t16 -39.5q0 -22 -16 -38t-38 -16q-23 0 -39.5 16z" />
    <glyph glyph-name="Jcircumflex" unicode="&#x134;" horiz-adv-x="387" 
d="M14 85h106q48 0 69 23.5t21 74.5v517h90v-522q0 -89 -44 -133.5t-125 -44.5h-117v85zM200 890h110l111 -128h-76l-90 70l-90 -70h-76z" />
    <glyph glyph-name="jcircumflex" unicode="&#x135;" horiz-adv-x="240" 
d="M-89 -103h113q30 0 42 12.5t12 41.5v549h85v-556q0 -122 -122 -122h-130v75zM76 700h89l122 -133h-66l-100 75l-100 -75h-67z" />
    <glyph glyph-name="uni0136" unicode="&#x136;" horiz-adv-x="673" 
d="M92 700h90v-361l361 361h117l-282 -285l287 -415h-112l-240 349l-131 -132v-217h-90v700zM283 -213h5q48 0 48 33v6h-40v87h85v-93q0 -33 -23.5 -55.5t-64.5 -22.5h-10v45z" />
    <glyph glyph-name="uni0137" unicode="&#x137;" horiz-adv-x="527" 
d="M78 700h85v-430l235 230h113l-208 -199l218 -301h-105l-174 243l-79 -77v-166h-85v700zM228 -213h5q48 0 48 33v6h-40v87h85v-93q0 -33 -23.5 -55.5t-64.5 -22.5h-10v45z" />
    <glyph glyph-name="Lacute" unicode="&#x139;" horiz-adv-x="609" 
d="M92 700h90v-618h413v-82h-503v700zM153 890h107l-89 -128h-67z" />
    <glyph glyph-name="lacute" unicode="&#x13a;" horiz-adv-x="240" 
d="M78 700h85v-700h-85v700zM147 890h93l-89 -133h-60z" />
    <glyph glyph-name="uni013B" unicode="&#x13b;" horiz-adv-x="609" 
d="M92 700h90v-618h413v-82h-503v700zM287 -213h5q48 0 48 33v6h-40v87h85v-93q0 -33 -23.5 -55.5t-64.5 -22.5h-10v45z" />
    <glyph glyph-name="uni013C" unicode="&#x13c;" horiz-adv-x="240" 
d="M78 700h85v-700h-85v700zM65 -213h5q48 0 48 33v6h-40v87h85v-93q0 -33 -23.5 -55.5t-64.5 -22.5h-10v45z" />
    <glyph glyph-name="Lcaron" unicode="&#x13d;" horiz-adv-x="609" 
d="M92 700h90v-618h413v-82h-503v700zM282 562h8q52 0 52 40v6h-40v92h85v-98q0 -38 -24.5 -61.5t-67.5 -23.5h-13v45z" />
    <glyph glyph-name="lcaron" unicode="&#x13e;" horiz-adv-x="240" 
d="M78 700h85v-700h-85v700zM213 562h8q52 0 52 40v6h-40v92h85v-98q0 -38 -24.5 -61.5t-67.5 -23.5h-13v45z" />
    <glyph glyph-name="Ldot" unicode="&#x13f;" horiz-adv-x="611" 
d="M92 700h90v-618h413v-82h-503v700zM397 332q-19 19 -19 45q0 27 19 46t45 19q27 0 46 -19t19 -46q0 -26 -19 -45t-46 -19q-26 0 -45 19z" />
    <glyph glyph-name="ldot" unicode="&#x140;" horiz-adv-x="326" 
d="M78 700h85v-700h-85v700zM238 291q-19 19 -19 45q0 27 19 46t45 19q27 0 46 -19t19 -46q0 -26 -19 -45t-46 -19q-26 0 -45 19z" />
    <glyph glyph-name="Lslash" unicode="&#x141;" horiz-adv-x="653" 
d="M136 265l-95 -54v90l95 54v345h90v-294l188 106v-90l-188 -106v-234h413v-82h-503v265z" />
    <glyph glyph-name="lslash" unicode="&#x142;" horiz-adv-x="322" 
d="M121 334l-83 -47v85l83 47v281h85v-233l80 45v-85l-80 -45v-382h-85v334z" />
    <glyph glyph-name="Nacute" unicode="&#x143;" horiz-adv-x="742" 
d="M92 700h123l345 -583v583h90v-700h-122l-346 588v-588h-90v700zM391 890h107l-89 -128h-67z" />
    <glyph glyph-name="nacute" unicode="&#x144;" horiz-adv-x="578" 
d="M78 500h85v-69q23 35 64.5 57t94.5 22q54 0 96 -24t65 -68t23 -101v-317h-85v296q0 66 -30.5 102t-88.5 36h-2q-61 0 -99 -47t-38 -122v-265h-85v500zM318 700h93l-89 -133h-60z" />
    <glyph glyph-name="uni0145" unicode="&#x145;" horiz-adv-x="742" 
d="M92 700h123l345 -583v583h90v-700h-122l-346 588v-588h-90v700zM315 -213h5q48 0 48 33v6h-40v87h85v-93q0 -33 -23.5 -55.5t-64.5 -22.5h-10v45z" />
    <glyph glyph-name="uni0146" unicode="&#x146;" horiz-adv-x="578" 
d="M78 500h85v-69q23 35 64.5 57t94.5 22q54 0 96 -24t65 -68t23 -101v-317h-85v296q0 66 -30.5 102t-88.5 36h-2q-61 0 -99 -47t-38 -122v-265h-85v500zM236 -213h5q48 0 48 33v6h-40v87h85v-93q0 -33 -23.5 -55.5t-64.5 -22.5h-10v45z" />
    <glyph glyph-name="Ncaron" unicode="&#x147;" horiz-adv-x="742" 
d="M92 700h123l345 -583v583h90v-700h-122l-346 588v-588h-90v700zM209 890h76l90 -70l90 70h76l-111 -128h-110z" />
    <glyph glyph-name="ncaron" unicode="&#x148;" horiz-adv-x="578" 
d="M78 500h85v-69q23 35 64.5 57t94.5 22q54 0 96 -24t65 -68t23 -101v-317h-85v296q0 66 -30.5 102t-88.5 36h-2q-61 0 -99 -47t-38 -122v-265h-85v500zM125 700h67l100 -75l100 75h66l-122 -133h-89z" />
    <glyph glyph-name="Eng" unicode="&#x14a;" horiz-adv-x="742" 
d="M417 -103h81q63 0 63 64v39l-379 561v-561h-90v700h101l367 -544v544h90v-752q0 -60 -36 -96.5t-96 -36.5h-101v82z" />
    <glyph glyph-name="eng" unicode="&#x14b;" horiz-adv-x="578" 
d="M298 -103h75q27 0 37.5 10.5t10.5 37.5v351q0 66 -30.5 102t-88.5 36h-2q-61 0 -99 -47t-38 -122v-265h-85v500h85v-69q23 36 64.5 57.5t94.5 21.5q54 0 96 -24t65 -68t23 -101v-381q0 -58 -28.5 -86t-87.5 -28h-92v75z" />
    <glyph glyph-name="Omacron" unicode="&#x14c;" horiz-adv-x="767" 
d="M213 34.5q-76 44.5 -119.5 126t-43.5 189.5t43.5 189.5t119.5 126t170 44.5t170 -44.5t120 -126t44 -189.5t-44 -189.5t-120 -126t-170 -44.5t-170 44.5zM509 106q54 34 85.5 97t31.5 147t-31.5 147t-85.5 97t-122 34h-8q-68 0 -122 -34t-85.5 -97t-31.5 -147t31.5 -147
t85.5 -97t122 -34h8q68 0 122 34zM238 848h289v-68h-289v68z" />
    <glyph glyph-name="omacron" unicode="&#x14d;" horiz-adv-x="571" 
d="M163 23.5q-55 33.5 -86.5 93t-31.5 133.5t31.5 133.5t86.5 93t123 33.5t123 -33.5t86.5 -93t31.5 -133.5t-31.5 -133.5t-86.5 -93t-123 -33.5t-123 33.5zM367 87q35 23 54.5 65.5t19.5 97.5t-19.5 97.5t-54.5 66t-78 23.5h-7q-43 0 -77.5 -23.5t-54 -66t-19.5 -97.5
t19.5 -97.5t54 -65.5t77.5 -23h7q43 0 78 23zM145 658h282v-68h-282v68z" />
    <glyph glyph-name="Obreve" unicode="&#x14e;" horiz-adv-x="767" 
d="M213 34.5q-76 44.5 -119.5 126t-43.5 189.5t43.5 189.5t119.5 126t170 44.5t170 -44.5t120 -126t44 -189.5t-44 -189.5t-120 -126t-170 -44.5t-170 44.5zM509 106q54 34 85.5 97t31.5 147t-31.5 147t-85.5 97t-122 34h-8q-68 0 -122 -34t-85.5 -97t-31.5 -147t31.5 -147
t85.5 -97t122 -34h8q68 0 122 34zM273.5 788.5q-42.5 36.5 -42.5 101.5h68q2 -37 25.5 -55t58.5 -18q34 0 58 18t25 55h68q0 -65 -42 -101.5t-109 -36.5t-109.5 36.5z" />
    <glyph glyph-name="obreve" unicode="&#x14f;" horiz-adv-x="571" 
d="M163 23.5q-55 33.5 -86.5 93t-31.5 133.5t31.5 133.5t86.5 93t123 33.5t123 -33.5t86.5 -93t31.5 -133.5t-31.5 -133.5t-86.5 -93t-123 -33.5t-123 33.5zM367 87q35 23 54.5 65.5t19.5 97.5t-19.5 97.5t-54.5 66t-78 23.5h-7q-43 0 -77.5 -23.5t-54 -66t-19.5 -97.5
t19.5 -97.5t54 -65.5t77.5 -23h7q43 0 78 23zM182 594q-41 37 -43 106h63q4 -42 26.5 -62.5t57.5 -20.5q34 0 56.5 20.5t26.5 62.5h63q-2 -68 -44 -105.5t-102 -37.5q-63 0 -104 37z" />
    <glyph glyph-name="Ohungarumlaut" unicode="&#x150;" horiz-adv-x="767" 
d="M213 34.5q-76 44.5 -119.5 126t-43.5 189.5t43.5 189.5t119.5 126t170 44.5t170 -44.5t120 -126t44 -189.5t-44 -189.5t-120 -126t-170 -44.5t-170 44.5zM509 106q54 34 85.5 97t31.5 147t-31.5 147t-85.5 97t-122 34h-8q-68 0 -122 -34t-85.5 -97t-31.5 -147t31.5 -147
t85.5 -97t122 -34h8q68 0 122 34zM484 890h107l-89 -128h-67zM320 890h107l-89 -128h-67z" />
    <glyph glyph-name="ohungarumlaut" unicode="&#x151;" horiz-adv-x="571" 
d="M163 23.5q-55 33.5 -86.5 93t-31.5 133.5t31.5 133.5t86.5 93t123 33.5t123 -33.5t86.5 -93t31.5 -133.5t-31.5 -133.5t-86.5 -93t-123 -33.5t-123 33.5zM367 87q35 23 54.5 65.5t19.5 97.5t-19.5 97.5t-54.5 66t-78 23.5h-7q-43 0 -77.5 -23.5t-54 -66t-19.5 -97.5
t19.5 -97.5t54 -65.5t77.5 -23h7q43 0 78 23zM235 700h93l-89 -133h-60zM388 700h94l-90 -133h-59z" />
    <glyph glyph-name="OE" unicode="&#x152;" horiz-adv-x="1178" 
d="M211.5 34.5q-75.5 44.5 -118.5 126t-43 189.5t43 190t118.5 126t170.5 44q73 0 133.5 -27t104.5 -78v95h503v-82h-413v-217h353v-82h-353v-237h423v-82h-513v95q-44 -51 -104.5 -78t-133.5 -27q-95 0 -170.5 44.5zM508 106q54 34 84.5 97t30.5 147t-30.5 147t-84.5 97
t-122 34h-9q-68 0 -122 -34t-84.5 -97t-30.5 -147t30.5 -147t84.5 -97t122 -34h9q68 0 122 34z" />
    <glyph glyph-name="oe" unicode="&#x153;" horiz-adv-x="940" 
d="M163 23.5q-55 33.5 -86.5 93t-31.5 133.5t31.5 133.5t86.5 93t123 33.5q62 0 113 -28t84 -78q32 51 82 78.5t108 27.5q87 0 145.5 -52.5t71.5 -142.5q4 -31 4 -77h-366q3 -83 44.5 -129t100.5 -46h6q44 0 76.5 23.5t44.5 63.5h87q-17 -72 -75 -116t-137 -44
q-61 0 -111 28t-81 78q-33 -50 -84.5 -78t-112.5 -28q-68 0 -123 33.5zM367 87q35 23 54.5 65.5t19.5 97.5t-19.5 97.5t-54.5 66t-78 23.5h-7q-43 0 -77.5 -23.5t-54 -66t-19.5 -97.5t19.5 -97.5t54 -65.5t77.5 -23h7q43 0 78 23zM766.5 403q-35.5 35 -88.5 35h-8
q-50 0 -88 -32.5t-50 -98.5h274q-4 61 -39.5 96z" />
    <glyph glyph-name="Racute" unicode="&#x154;" horiz-adv-x="678" 
d="M92 700h295q63 0 112.5 -24.5t77.5 -67.5t28 -97q0 -64 -31.5 -111.5t-80.5 -63.5q102 -10 102 -116v-132q0 -60 5 -88h-90q-5 24 -5 71v140q0 39 -18.5 56.5t-57.5 17.5h-247v-285h-90v700zM475.5 404q39.5 37 39.5 94t-37.5 88.5t-103.5 31.5h-192v-251h192
q62 0 101.5 37zM341 890h107l-89 -128h-67z" />
    <glyph glyph-name="racute" unicode="&#x155;" horiz-adv-x="375" 
d="M78 500h80v-98q16 44 60 73.5t101 29.5h32v-81h-28q-160 0 -160 -197v-227h-85v500zM235 700h93l-89 -133h-60z" />
    <glyph glyph-name="uni0156" unicode="&#x156;" horiz-adv-x="678" 
d="M92 700h295q63 0 112.5 -24.5t77.5 -67.5t28 -97q0 -64 -31.5 -111.5t-80.5 -63.5q102 -10 102 -116v-132q0 -60 5 -88h-90q-5 24 -5 71v140q0 39 -18.5 56.5t-57.5 17.5h-247v-285h-90v700zM475.5 404q39.5 37 39.5 94t-37.5 88.5t-103.5 31.5h-192v-251h192
q62 0 101.5 37zM293 -213h5q48 0 48 33v6h-40v87h85v-93q0 -33 -23.5 -55.5t-64.5 -22.5h-10v45z" />
    <glyph glyph-name="uni0157" unicode="&#x157;" horiz-adv-x="375" 
d="M78 500h80v-98q16 44 60 73.5t101 29.5h32v-81h-28q-160 0 -160 -197v-227h-85v500zM65 -213h5q48 0 48 33v6h-40v87h85v-93q0 -33 -23.5 -55.5t-64.5 -22.5h-10v45z" />
    <glyph glyph-name="Rcaron" unicode="&#x158;" horiz-adv-x="678" 
d="M92 700h295q63 0 112.5 -24.5t77.5 -67.5t28 -97q0 -64 -31.5 -111.5t-80.5 -63.5q102 -10 102 -116v-132q0 -60 5 -88h-90q-5 24 -5 71v140q0 39 -18.5 56.5t-57.5 17.5h-247v-285h-90v700zM475.5 404q39.5 37 39.5 94t-37.5 88.5t-103.5 31.5h-192v-251h192
q62 0 101.5 37zM159 890h76l90 -70l90 70h76l-111 -128h-110z" />
    <glyph glyph-name="rcaron" unicode="&#x159;" horiz-adv-x="375" 
d="M78 500h80v-98q16 44 60 73.5t101 29.5h32v-81h-28q-160 0 -160 -197v-227h-85v500zM42 700h67l100 -75l100 75h66l-122 -133h-89z" />
    <glyph glyph-name="Sacute" unicode="&#x15a;" horiz-adv-x="620" 
d="M114.5 50.5q-71.5 60.5 -73.5 172.5h89q1 -73 50.5 -112t133.5 -39h10q71 0 111.5 32.5t40.5 82.5q0 92 -119 114l-116 22q-174 34 -174 188q0 55 29.5 100.5t85 72t129.5 26.5q75 0 132 -27t89 -76.5t34 -114.5h-90q-4 62 -49 99.5t-112 37.5h-10q-67 0 -108.5 -33
t-41.5 -83q0 -81 105 -100l116 -21q91 -17 141 -67.5t50 -133.5q0 -61 -31.5 -106.5t-89 -70t-133.5 -24.5q-127 0 -198.5 60.5zM333 890h107l-89 -128h-67z" />
    <glyph glyph-name="sacute" unicode="&#x15b;" horiz-adv-x="483" 
d="M94.5 35.5q-52.5 45.5 -54.5 117.5h85q4 -45 35.5 -68t80.5 -23h9q44 0 71.5 19.5t27.5 52.5q0 27 -18 44.5t-62 26.5l-73 13q-64 12 -102 46t-38 94q0 47 24.5 81.5t65.5 52.5t90 18q94 0 144.5 -45.5t53.5 -117.5h-86q-4 38 -31.5 64.5t-76.5 26.5h-9q-43 0 -68 -20.5
t-25 -50.5q0 -29 18 -45t60 -24l78 -15q64 -12 102.5 -47.5t38.5 -97.5q0 -68 -53 -108t-139 -40q-96 0 -148.5 45.5zM266 700h93l-89 -133h-60z" />
    <glyph glyph-name="Scircumflex" unicode="&#x15c;" horiz-adv-x="620" 
d="M114.5 50.5q-71.5 60.5 -73.5 172.5h89q1 -73 50.5 -112t133.5 -39h10q71 0 111.5 32.5t40.5 82.5q0 92 -119 114l-116 22q-174 34 -174 188q0 55 29.5 100.5t85 72t129.5 26.5q75 0 132 -27t89 -76.5t34 -114.5h-90q-4 62 -49 99.5t-112 37.5h-10q-67 0 -108.5 -33
t-41.5 -83q0 -81 105 -100l116 -21q91 -17 141 -67.5t50 -133.5q0 -61 -31.5 -106.5t-89 -70t-133.5 -24.5q-127 0 -198.5 60.5zM262 890h110l111 -128h-76l-90 70l-90 -70h-76z" />
    <glyph glyph-name="scircumflex" unicode="&#x15d;" horiz-adv-x="483" 
d="M94.5 35.5q-52.5 45.5 -54.5 117.5h85q4 -45 35.5 -68t80.5 -23h9q44 0 71.5 19.5t27.5 52.5q0 27 -18 44.5t-62 26.5l-73 13q-64 12 -102 46t-38 94q0 47 24.5 81.5t65.5 52.5t90 18q94 0 144.5 -45.5t53.5 -117.5h-86q-4 38 -31.5 64.5t-76.5 26.5h-9q-43 0 -68 -20.5
t-25 -50.5q0 -29 18 -45t60 -24l78 -15q64 -12 102.5 -47.5t38.5 -97.5q0 -68 -53 -108t-139 -40q-96 0 -148.5 45.5zM195 700h89l122 -133h-66l-100 75l-100 -75h-67z" />
    <glyph glyph-name="Scedilla" unicode="&#x15e;" horiz-adv-x="620" 
d="M250 -170h64q23 0 34.5 9.5t11.5 27.5q0 17 -11.5 26t-31.5 9h-32v89q-115 7 -178.5 66.5t-65.5 165.5h89q1 -73 50.5 -112t133.5 -39h10q71 0 111.5 32.5t40.5 82.5q0 92 -119 114l-116 22q-174 34 -174 188q0 55 29.5 100.5t85 72t129.5 26.5q75 0 132 -27t89 -76.5
t34 -114.5h-90q-4 62 -49 99.5t-112 37.5h-10q-67 0 -108.5 -33t-41.5 -83q0 -81 105 -100l116 -21q91 -17 141 -67.5t50 -133.5q0 -86 -62.5 -140t-167.5 -60v-41q38 -2 61.5 -25.5t23.5 -59.5q0 -44 -30 -70.5t-79 -26.5h-63v62z" />
    <glyph glyph-name="scedilla" unicode="&#x15f;" horiz-adv-x="483" 
d="M179 -170h64q23 0 34.5 9.5t11.5 27.5q0 17 -11.5 26t-31.5 9h-32v89q-83 7 -127.5 51t-46.5 111h85q4 -45 35.5 -68t80.5 -23h9q44 0 71.5 19.5t27.5 52.5q0 27 -18 44.5t-62 26.5l-73 13q-64 12 -102 46t-38 94q0 47 24.5 81.5t65.5 52.5t90 18q94 0 144.5 -45.5
t53.5 -117.5h-86q-4 38 -31.5 64.5t-76.5 26.5h-9q-43 0 -68 -20.5t-25 -50.5q0 -29 18 -45t60 -24l78 -15q64 -12 102.5 -47.5t38.5 -97.5q0 -63 -46 -102.5t-123 -44.5v-41q38 -2 61.5 -25.5t23.5 -59.5q0 -44 -30 -70.5t-79 -26.5h-63v62z" />
    <glyph glyph-name="Scaron" unicode="&#x160;" horiz-adv-x="620" 
d="M114.5 50.5q-71.5 60.5 -73.5 172.5h89q1 -73 50.5 -112t133.5 -39h10q71 0 111.5 32.5t40.5 82.5q0 92 -119 114l-116 22q-174 34 -174 188q0 55 29.5 100.5t85 72t129.5 26.5q75 0 132 -27t89 -76.5t34 -114.5h-90q-4 62 -49 99.5t-112 37.5h-10q-67 0 -108.5 -33
t-41.5 -83q0 -81 105 -100l116 -21q91 -17 141 -67.5t50 -133.5q0 -61 -31.5 -106.5t-89 -70t-133.5 -24.5q-127 0 -198.5 60.5zM151 890h76l90 -70l90 70h76l-111 -128h-110z" />
    <glyph glyph-name="scaron" unicode="&#x161;" horiz-adv-x="483" 
d="M94.5 35.5q-52.5 45.5 -54.5 117.5h85q4 -45 35.5 -68t80.5 -23h9q44 0 71.5 19.5t27.5 52.5q0 27 -18 44.5t-62 26.5l-73 13q-64 12 -102 46t-38 94q0 47 24.5 81.5t65.5 52.5t90 18q94 0 144.5 -45.5t53.5 -117.5h-86q-4 38 -31.5 64.5t-76.5 26.5h-9q-43 0 -68 -20.5
t-25 -50.5q0 -29 18 -45t60 -24l78 -15q64 -12 102.5 -47.5t38.5 -97.5q0 -68 -53 -108t-139 -40q-96 0 -148.5 45.5zM73 700h67l100 -75l100 75h66l-122 -133h-89z" />
    <glyph glyph-name="uni0162" unicode="&#x162;" horiz-adv-x="624" 
d="M267 618h-252v82h594v-82h-252v-618h-19v-50q38 -2 61.5 -25.5t23.5 -59.5q0 -44 -30 -70.5t-79 -26.5h-63v62h64q23 0 34.5 9.5t11.5 27.5q0 17 -11.5 26t-31.5 9h-32v98h-19v618z" />
    <glyph glyph-name="uni0163" unicode="&#x163;" horiz-adv-x="382" 
d="M243 0v-50q38 -2 61.5 -25.5t23.5 -59.5q0 -44 -30 -70.5t-79 -26.5h-63v62h64q23 0 34.5 9.5t11.5 27.5q0 17 -11.5 26t-31.5 9h-32v108q-62 26 -62 109v308h-111v73h111v162h85v-162h122v-73h-122v-297q0 -30 12 -42.5t42 -12.5h83v-75h-103h-5z" />
    <glyph glyph-name="Tcaron" unicode="&#x164;" horiz-adv-x="624" 
d="M267 618h-252v82h594v-82h-252v-618h-90v618zM146 890h76l90 -70l90 70h76l-111 -128h-110z" />
    <glyph glyph-name="tcaron" unicode="&#x165;" horiz-adv-x="382" 
d="M159.5 31q-30.5 31 -30.5 88v308h-111v73h111v162h85v-162h122v-73h-122v-297q0 -30 12 -42.5t42 -12.5h83v-75h-103q-58 0 -88.5 31zM281 589h8q52 0 52 40v6h-40v92h85v-98q0 -38 -24.5 -61.5t-67.5 -23.5h-13v45z" />
    <glyph glyph-name="Tbar" unicode="&#x166;" horiz-adv-x="647" 
d="M278 318h-186v80h186v220h-252v82h594v-82h-252v-220h187v-80h-187v-318h-90v318z" />
    <glyph glyph-name="tbar" unicode="&#x167;" horiz-adv-x="394" 
d="M169 28.5q-29 28.5 -29 83.5v136h-111v68h111v111h-111v73h111v162h85v-162h122v-73h-122v-111h122v-68h-122v-125q0 -27 10.5 -37.5t37.5 -10.5h89v-75h-108q-56 0 -85 28.5z" />
    <glyph glyph-name="Utilde" unicode="&#x168;" horiz-adv-x="694" 
d="M151 60q-66 70 -66 190v450h90v-440q0 -90 43 -139t124 -49h10q81 0 124 49t43 139v440h90v-450q0 -119 -67.5 -189.5t-194.5 -70.5q-130 0 -196 70zM388 765.5q-20 8.5 -45 25.5l-27 18q-24 16 -45 16q-36 0 -36 -58h-63v25q0 43 26.5 72t67.5 29q37 0 80 -29l25 -18
q32 -21 51 -21q36 0 36 58h63v-25q0 -43 -26 -72t-66 -29q-21 0 -41 8.5z" />
    <glyph glyph-name="utilde" unicode="&#x169;" horiz-adv-x="568" 
d="M158.5 14q-40.5 24 -63.5 68t-23 101v317h85v-296q0 -66 29 -102t84 -36h2q61 0 97.5 49t36.5 144v241h85v-500h-85v69q-24 -36 -64 -57.5t-91 -21.5q-52 0 -92.5 24zM278 590l-27 19q-22 16 -44 16q-37 0 -37 -58h-63v25q0 43 26.5 72t67.5 29q39 0 82 -30l23 -17
q32 -21 51 -21q36 0 36 58h63v-25q0 -43 -26 -72t-66 -29q-39 0 -86 33z" />
    <glyph glyph-name="Umacron" unicode="&#x16a;" horiz-adv-x="694" 
d="M151 60q-66 70 -66 190v450h90v-440q0 -90 43 -139t124 -49h10q81 0 124 49t43 139v440h90v-450q0 -119 -67.5 -189.5t-194.5 -70.5q-130 0 -196 70zM202 848h289v-68h-289v68z" />
    <glyph glyph-name="umacron" unicode="&#x16b;" horiz-adv-x="568" 
d="M158.5 14q-40.5 24 -63.5 68t-23 101v317h85v-296q0 -66 29 -102t84 -36h2q61 0 97.5 49t36.5 144v241h85v-500h-85v69q-24 -36 -64 -57.5t-91 -21.5q-52 0 -92.5 24zM141 658h282v-68h-282v68z" />
    <glyph glyph-name="Ubreve" unicode="&#x16c;" horiz-adv-x="694" 
d="M151 60q-66 70 -66 190v450h90v-440q0 -90 43 -139t124 -49h10q81 0 124 49t43 139v440h90v-450q0 -119 -67.5 -189.5t-194.5 -70.5q-130 0 -196 70zM237.5 788.5q-42.5 36.5 -42.5 101.5h68q2 -37 25.5 -55t58.5 -18q34 0 58 18t25 55h68q0 -65 -42 -101.5t-109 -36.5
t-109.5 36.5z" />
    <glyph glyph-name="ubreve" unicode="&#x16d;" horiz-adv-x="568" 
d="M158.5 14q-40.5 24 -63.5 68t-23 101v317h85v-296q0 -66 29 -102t84 -36h2q61 0 97.5 49t36.5 144v241h85v-500h-85v69q-24 -36 -64 -57.5t-91 -21.5q-52 0 -92.5 24zM178 594q-41 37 -43 106h63q4 -42 26.5 -62.5t57.5 -20.5q34 0 56.5 20.5t26.5 62.5h63
q-2 -68 -44 -105.5t-102 -37.5q-63 0 -104 37z" />
    <glyph glyph-name="Uring" unicode="&#x16e;" horiz-adv-x="694" 
d="M151 60q-66 70 -66 190v450h90v-440q0 -90 43 -139t124 -49h10q81 0 124 49t43 139v440h90v-450q0 -119 -67.5 -189.5t-194.5 -70.5q-130 0 -196 70zM286.5 777.5q-25.5 24.5 -25.5 60.5t25.5 60.5t60.5 24.5t61 -24.5t26 -60.5t-26 -60.5t-61 -24.5t-60.5 24.5z
M370.5 814q9.5 10 9.5 24t-9.5 24t-22.5 10t-23.5 -10t-10.5 -24q0 -13 10.5 -23.5t23.5 -10.5t22.5 10z" />
    <glyph glyph-name="uring" unicode="&#x16f;" horiz-adv-x="568" 
d="M158.5 14q-40.5 24 -63.5 68t-23 101v317h85v-296q0 -66 29 -102t84 -36h2q61 0 97.5 49t36.5 144v241h85v-500h-85v69q-24 -36 -64 -57.5t-91 -21.5q-52 0 -92.5 24zM217 584.5q-27 26.5 -27 64.5t27 64.5t64 26.5t64.5 -26.5t27.5 -64.5t-27.5 -64.5t-64.5 -26.5
t-64 26.5zM312.5 618q12.5 13 12.5 31t-12.5 31t-30.5 13t-31 -13t-13 -31t13 -31t31 -13t30.5 13z" />
    <glyph glyph-name="Uhungarumlaut" unicode="&#x170;" horiz-adv-x="694" 
d="M151 60q-66 70 -66 190v450h90v-440q0 -90 43 -139t124 -49h10q81 0 124 49t43 139v440h90v-450q0 -119 -67.5 -189.5t-194.5 -70.5q-130 0 -196 70zM448 890h107l-89 -128h-67zM284 890h107l-89 -128h-67z" />
    <glyph glyph-name="uhungarumlaut" unicode="&#x171;" horiz-adv-x="568" 
d="M158.5 14q-40.5 24 -63.5 68t-23 101v317h85v-296q0 -66 29 -102t84 -36h2q61 0 97.5 49t36.5 144v241h85v-500h-85v69q-24 -36 -64 -57.5t-91 -21.5q-52 0 -92.5 24zM231 700h93l-89 -133h-60zM384 700h94l-90 -133h-59z" />
    <glyph glyph-name="Uogonek" unicode="&#x172;" horiz-adv-x="694" 
d="M310 -178.5q-29 23.5 -29 61.5q0 62 67 107h-1q-130 0 -196 70t-66 190v450h90v-440q0 -90 43 -139t124 -49h10q81 0 124 49t43 139v440h90v-450q0 -88 -37.5 -150t-109.5 -94q-62 -28 -89 -51.5t-27 -53.5q0 -41 60 -41h19v-62h-36q-50 0 -79 23.5z" />
    <glyph glyph-name="uogonek" unicode="&#x173;" horiz-adv-x="568" 
d="M158.5 14q-40.5 24 -63.5 68t-23 101v317h85v-296q0 -66 29 -102t84 -36h2q61 0 97.5 49t36.5 144v241h85v-500q-40 -24 -63.5 -47.5t-23.5 -51.5q0 -41 61 -41h19v-62h-37q-50 0 -78.5 23.5t-28.5 61.5q0 39 24.5 68.5t58.5 48.5h-17v69q-24 -36 -64 -57.5t-91 -21.5
q-52 0 -92.5 24z" />
    <glyph glyph-name="Wcircumflex" unicode="&#x174;" horiz-adv-x="936" 
d="M27 700h93l144 -610l147 610h122l145 -612l139 612h92l-171 -700h-125l-145 599l-145 -599h-125zM417 890h110l111 -128h-76l-90 70l-90 -70h-76z" />
    <glyph glyph-name="wcircumflex" unicode="&#x175;" horiz-adv-x="771" 
d="M19 500h89l120 -411l111 411h94l116 -413l115 413h88l-156 -500h-99l-111 404l-111 -404h-99zM341 700h89l122 -133h-66l-100 75l-100 -75h-67z" />
    <glyph glyph-name="Ycircumflex" unicode="&#x176;" horiz-adv-x="613" 
d="M262 290l-252 410h104l195 -321l194 321h100l-251 -410v-290h-90v290zM252 890h110l111 -128h-76l-90 70l-90 -70h-76z" />
    <glyph glyph-name="ycircumflex" unicode="&#x177;" horiz-adv-x="520" 
d="M32 -100h94q28 0 45 13.5t30 45.5l23 60l-219 481h91l170 -374l149 374h88l-229 -570q-24 -60 -58.5 -82.5t-91.5 -22.5h-92v75zM210 700h89l122 -133h-66l-100 75l-100 -75h-67z" />
    <glyph glyph-name="Ydieresis" unicode="&#x178;" horiz-adv-x="613" 
d="M262 290l-252 410h104l195 -321l194 321h100l-251 -410v-290h-90v290zM366 791q-15 15 -15 37t15 37.5t37 15.5t37.5 -15.5t15.5 -37.5t-15.5 -37t-37.5 -15t-37 15zM174.5 791q-15.5 15 -15.5 37t15.5 37.5t36.5 15.5q22 0 37.5 -15.5t15.5 -37.5t-15.5 -37t-37.5 -15
q-21 0 -36.5 15z" />
    <glyph glyph-name="Zacute" unicode="&#x179;" horiz-adv-x="605" 
d="M38 84l415 534h-405v82h509v-82l-417 -536h427v-82h-529v84zM319 890h107l-89 -128h-67z" />
    <glyph glyph-name="zacute" unicode="&#x17a;" horiz-adv-x="485" 
d="M41 77l295 350h-290v73h388v-76l-295 -351h310v-73h-408v77zM267 700h93l-89 -133h-60z" />
    <glyph glyph-name="Zdotaccent" unicode="&#x17b;" horiz-adv-x="605" 
d="M38 84l415 534h-405v82h509v-82l-417 -536h427v-82h-529v84zM264 792q-16 16 -16 38q0 23 16 38.5t38 15.5q23 0 38.5 -15.5t15.5 -38.5q0 -22 -15.5 -38t-38.5 -16q-22 0 -38 16z" />
    <glyph glyph-name="zdotaccent" unicode="&#x17c;" horiz-adv-x="485" 
d="M41 77l295 350h-290v73h388v-76l-295 -351h310v-73h-408v77zM201.5 609q-16.5 16 -16.5 39t16.5 39.5t39.5 16.5t39 -16.5t16 -39.5q0 -22 -16 -38.5t-39 -16.5t-39.5 16z" />
    <glyph glyph-name="Zcaron" unicode="&#x17d;" horiz-adv-x="605" 
d="M38 84l415 534h-405v82h509v-82l-417 -536h427v-82h-529v84zM137 890h76l90 -70l90 70h76l-111 -128h-110z" />
    <glyph glyph-name="zcaron" unicode="&#x17e;" horiz-adv-x="485" 
d="M41 77l295 350h-290v73h388v-76l-295 -351h310v-73h-408v77zM74 700h67l100 -75l100 75h66l-122 -133h-89z" />
    <glyph glyph-name="florin" unicode="&#x192;" horiz-adv-x="400" 
d="M-63 -122h42q53 0 74.5 24t30.5 83l59 390h-106v77h118l9 61q11 69 32 109.5t57.5 59t95.5 18.5h46v-78h-41q-52 0 -72.5 -24t-29.5 -83l-10 -63h125v-77h-136l-59 -385q-16 -103 -58.5 -146.5t-129.5 -43.5h-47v78z" />
    <glyph glyph-name="uni01E2" unicode="&#x1e2;" horiz-adv-x="979" 
d="M391 700h505v-82h-364l31 -217h303v-82h-294l33 -237h351v-82h-428l-26 184h-314l-106 -184h-99zM491 266l-49 358l-206 -358h255zM487 848h289v-68h-289v68z" />
    <glyph glyph-name="uni01E3" unicode="&#x1e3;" horiz-adv-x="891" 
d="M95.5 31.5q-48.5 41.5 -48.5 106.5q0 140 194 154l153 11v17q0 55 -35 86.5t-91 31.5h-5q-45 0 -78.5 -21.5t-42.5 -59.5h-84q10 67 67 110t143 43q65 0 110.5 -23t71.5 -64q32 42 78 64.5t100 22.5q57 0 103.5 -25t75.5 -72t34 -109q3 -21 3 -66h-362q3 -84 44 -129.5
t101 -45.5h6q45 0 76 22.5t43 64.5h87q-16 -74 -73 -117t-137 -43q-63 0 -113.5 28.5t-81.5 81.5q-27 -47 -80 -78.5t-129 -31.5q-81 0 -129.5 41.5zM312 79q36 17 59 51t23 81v25l-140 -9q-60 -4 -91 -26t-31 -59q0 -35 28 -57.5t74 -22.5h5q37 0 73 17zM718.5 403
q-34.5 35 -87.5 35h-7q-50 0 -88 -32t-50 -99h271q-4 61 -38.5 96zM309 658h282v-68h-282v68z" />
    <glyph glyph-name="Aringacute" unicode="&#x1fa;" horiz-adv-x="692" 
d="M289 700h115l278 -700h-94l-73 184h-341l-73 -184h-92zM483 266l-139 350l-138 -350h277zM292 765q-23 22 -23 55t23 55t54 22t54 -22t23 -55t-23 -55t-54 -22t-54 22zM366.5 799q8.5 8 8.5 21t-8.5 21t-20.5 8t-20.5 -8t-8.5 -21t8.5 -21t20.5 -8t20.5 8zM355 1013h87
l-67 -88h-54z" />
    <glyph glyph-name="aringacute" unicode="&#x1fb;" horiz-adv-x="551" 
d="M95 31.5q-48 41.5 -48 106.5q0 140 194 154l153 11v17q0 55 -35 86.5t-91 31.5h-5q-45 0 -78.5 -21.5t-42.5 -59.5h-84q10 67 67 110t143 43q68 0 115.5 -25.5t71.5 -69.5t24 -98v-207q0 -75 5 -110h-80q-5 29 -5 79q-21 -36 -68.5 -62.5t-107.5 -26.5q-80 0 -128 41.5z
M312 79q36 17 59 51t23 81v25l-140 -9q-60 -4 -91 -26t-31 -59q0 -35 28 -57.5t74 -22.5h5q37 0 73 17zM206 583q-27 26 -27 65q0 38 27 64t64 26t64.5 -26t27.5 -64q0 -39 -27.5 -65t-64.5 -26t-64 26zM301.5 617q12.5 13 12.5 31t-12.5 31t-30.5 13t-31 -13t-13 -31
t13 -31t31 -13t30.5 13zM295 899h93l-89 -133h-60z" />
    <glyph glyph-name="AEacute" unicode="&#x1fc;" horiz-adv-x="979" 
d="M391 700h505v-82h-364l31 -217h303v-82h-294l33 -237h351v-82h-428l-26 184h-314l-106 -184h-99zM491 266l-49 358l-206 -358h255zM648 890h107l-89 -128h-67z" />
    <glyph glyph-name="aeacute" unicode="&#x1fd;" horiz-adv-x="891" 
d="M95.5 31.5q-48.5 41.5 -48.5 106.5q0 140 194 154l153 11v17q0 55 -35 86.5t-91 31.5h-5q-45 0 -78.5 -21.5t-42.5 -59.5h-84q10 67 67 110t143 43q65 0 110.5 -23t71.5 -64q32 42 78 64.5t100 22.5q57 0 103.5 -25t75.5 -72t34 -109q3 -21 3 -66h-362q3 -84 44 -129.5
t101 -45.5h6q45 0 76 22.5t43 64.5h87q-16 -74 -73 -117t-137 -43q-63 0 -113.5 28.5t-81.5 81.5q-27 -47 -80 -78.5t-129 -31.5q-81 0 -129.5 41.5zM312 79q36 17 59 51t23 81v25l-140 -9q-60 -4 -91 -26t-31 -59q0 -35 28 -57.5t74 -22.5h5q37 0 73 17zM718.5 403
q-34.5 35 -87.5 35h-7q-50 0 -88 -32t-50 -99h271q-4 61 -38.5 96zM476 700h93l-89 -133h-60z" />
    <glyph glyph-name="Oslashacute" unicode="&#x1fe;" horiz-adv-x="771" 
d="M198 46l-63 -79l-64 51l66 83q-40 47 -62 110.5t-22 138.5q0 108 43.5 189.5t119.5 126t170 44.5q107 0 188 -55l62 78l64 -51l-65 -82q41 -48 63 -111t22 -139q0 -108 -44 -189.5t-120 -126t-170 -44.5q-106 0 -188 56zM512 106q54 34 85.5 97t31.5 147q0 106 -50 179
l-329 -416q58 -41 132 -41h8q68 0 122 34zM193 172l328 416q-57 40 -131 40h-8q-68 0 -122 -34t-85.5 -97t-31.5 -147q0 -105 50 -178zM403 890h107l-89 -128h-67z" />
    <glyph glyph-name="oslashacute" unicode="&#x1ff;" horiz-adv-x="576" 
d="M160 28l-50 -66l-54 45l52 68q-60 73 -60 175q0 74 31.5 133.5t86.5 93t123 33.5q69 0 125 -35l48 63l58 -41l-52 -68q30 -35 46 -81t16 -98q0 -74 -31.5 -133.5t-86.5 -93t-123 -33.5q-70 0 -129 38zM370 87q35 23 54.5 65.5t19.5 97.5q0 64 -27 112l-211 -274
q35 -24 79 -24h7q43 0 78 23zM159 142l209 273q-34 22 -76 22h-7q-43 0 -77.5 -23.5t-54 -66t-19.5 -97.5q0 -61 25 -108zM314 700h93l-89 -133h-60z" />
    <glyph glyph-name="uni0218" unicode="&#x218;" horiz-adv-x="620" 
d="M114.5 50.5q-71.5 60.5 -73.5 172.5h89q1 -73 50.5 -112t133.5 -39h10q71 0 111.5 32.5t40.5 82.5q0 92 -119 114l-116 22q-174 34 -174 188q0 55 29.5 100.5t85 72t129.5 26.5q75 0 132 -27t89 -76.5t34 -114.5h-90q-4 62 -49 99.5t-112 37.5h-10q-67 0 -108.5 -33
t-41.5 -83q0 -81 105 -100l116 -21q91 -17 141 -67.5t50 -133.5q0 -61 -31.5 -106.5t-89 -70t-133.5 -24.5q-127 0 -198.5 60.5zM255 -213h5q48 0 48 33v6h-40v87h85v-93q0 -33 -23.5 -55.5t-64.5 -22.5h-10v45z" />
    <glyph glyph-name="uni0219" unicode="&#x219;" horiz-adv-x="483" 
d="M94.5 35.5q-52.5 45.5 -54.5 117.5h85q4 -45 35.5 -68t80.5 -23h9q44 0 71.5 19.5t27.5 52.5q0 27 -18 44.5t-62 26.5l-73 13q-64 12 -102 46t-38 94q0 47 24.5 81.5t65.5 52.5t90 18q94 0 144.5 -45.5t53.5 -117.5h-86q-4 38 -31.5 64.5t-76.5 26.5h-9q-43 0 -68 -20.5
t-25 -50.5q0 -29 18 -45t60 -24l78 -15q64 -12 102.5 -47.5t38.5 -97.5q0 -68 -53 -108t-139 -40q-96 0 -148.5 45.5zM184 -213h5q48 0 48 33v6h-40v87h85v-93q0 -33 -23.5 -55.5t-64.5 -22.5h-10v45z" />
    <glyph glyph-name="uni021A" unicode="&#x21a;" horiz-adv-x="624" 
d="M267 618h-252v82h594v-82h-252v-618h-90v618zM256 -213h5q48 0 48 33v6h-40v87h85v-93q0 -33 -23.5 -55.5t-64.5 -22.5h-10v45z" />
    <glyph glyph-name="uni021B" unicode="&#x21b;" horiz-adv-x="382" 
d="M159.5 31q-30.5 31 -30.5 88v308h-111v73h111v162h85v-162h122v-73h-122v-297q0 -30 12 -42.5t42 -12.5h83v-75h-103q-58 0 -88.5 31zM161 -213h5q48 0 48 33v6h-40v87h85v-93q0 -33 -23.5 -55.5t-64.5 -22.5h-10v45z" />
    <glyph glyph-name="uni0226" unicode="&#x226;" horiz-adv-x="692" 
d="M289 700h115l278 -700h-94l-73 184h-341l-73 -184h-92zM483 266l-139 350l-138 -350h277zM307 792q-16 16 -16 38q0 23 16 38.5t38 15.5q23 0 38.5 -15.5t15.5 -38.5q0 -22 -15.5 -38t-38.5 -16q-22 0 -38 16z" />
    <glyph glyph-name="uni0227" unicode="&#x227;" horiz-adv-x="551" 
d="M95 31.5q-48 41.5 -48 106.5q0 140 194 154l153 11v17q0 55 -35 86.5t-91 31.5h-5q-45 0 -78.5 -21.5t-42.5 -59.5h-84q10 67 67 110t143 43q68 0 115.5 -25.5t71.5 -69.5t24 -98v-207q0 -75 5 -110h-80q-5 29 -5 79q-21 -36 -68.5 -62.5t-107.5 -26.5q-80 0 -128 41.5z
M312 79q36 17 59 51t23 81v25l-140 -9q-60 -4 -91 -26t-31 -59q0 -35 28 -57.5t74 -22.5h5q37 0 73 17zM229.5 609q-16.5 16 -16.5 39t16.5 39.5t39.5 16.5t39 -16.5t16 -39.5q0 -22 -16 -38.5t-39 -16.5t-39.5 16z" />
    <glyph glyph-name="uni0232" unicode="&#x232;" horiz-adv-x="613" 
d="M262 290l-252 410h104l195 -321l194 321h100l-251 -410v-290h-90v290zM162 848h289v-68h-289v68z" />
    <glyph glyph-name="uni0233" unicode="&#x233;" horiz-adv-x="520" 
d="M32 -100h94q28 0 45 13.5t30 45.5l23 60l-219 481h91l170 -374l149 374h88l-229 -570q-24 -60 -58.5 -82.5t-91.5 -22.5h-92v75zM114 658h282v-68h-282v68z" />
    <glyph glyph-name="uni0237" unicode="&#x237;" horiz-adv-x="240" 
d="M-89 -103h113q30 0 42 12.5t12 41.5v549h85v-556q0 -122 -122 -122h-130v75z" />
    <glyph glyph-name="uni02BC" unicode="&#x2bc;" horiz-adv-x="261" 
d="M56 512h33q60 0 60 60v15h-58v113h113v-133q0 -55 -29 -83.5t-82 -28.5h-37v57z" />
    <glyph glyph-name="circumflex" unicode="&#x2c6;" horiz-adv-x="393" 
d="M152 700h89l122 -133h-66l-100 75l-100 -75h-67z" />
    <glyph glyph-name="caron" unicode="&#x2c7;" horiz-adv-x="393" 
d="M30 700h67l100 -75l100 75h66l-122 -133h-89z" />
    <glyph glyph-name="breve" unicode="&#x2d8;" horiz-adv-x="353" 
d="M73 594q-41 37 -43 106h63q4 -42 26.5 -62.5t57.5 -20.5q34 0 56.5 20.5t26.5 62.5h63q-2 -68 -44 -105.5t-102 -37.5q-63 0 -104 37z" />
    <glyph glyph-name="dotaccent" unicode="&#x2d9;" horiz-adv-x="155" 
d="M38.5 609q-16.5 16 -16.5 39t16.5 39.5t39.5 16.5t39 -16.5t16 -39.5q0 -22 -16 -38.5t-39 -16.5t-39.5 16z" />
    <glyph glyph-name="ring" unicode="&#x2da;" horiz-adv-x="243" 
d="M57 584.5q-27 26.5 -27 64.5t27 64.5t64 26.5t64.5 -26.5t27.5 -64.5t-27.5 -64.5t-64.5 -26.5t-64 26.5zM152.5 618q12.5 13 12.5 31t-12.5 31t-30.5 13t-31 -13t-13 -31t13 -31t31 -13t30.5 13z" />
    <glyph glyph-name="ogonek" unicode="&#x2db;" horiz-adv-x="206" 
d="M53.5 -178.5q-28.5 23.5 -28.5 61.5q0 46 32.5 78.5t72.5 49.5l46 -11q-40 -24 -63.5 -47.5t-23.5 -51.5q0 -41 61 -41h19v-62h-37q-50 0 -78.5 23.5z" />
    <glyph glyph-name="tilde" unicode="&#x2dc;" horiz-adv-x="409" 
d="M201 590l-27 19q-22 16 -44 16q-37 0 -37 -58h-63v25q0 43 26.5 72t67.5 29q39 0 82 -30l23 -17q32 -21 51 -21q36 0 36 58h63v-25q0 -43 -26 -72t-66 -29q-39 0 -86 33z" />
    <glyph glyph-name="hungarumlaut" unicode="&#x2dd;" horiz-adv-x="368" 
d="M93 700h93l-89 -133h-60zM246 700h94l-90 -133h-59z" />
    <glyph glyph-name="gravecomb" unicode="&#x300;" horiz-adv-x="0" 
d="M30 700h93l56 -133h-60z" />
    <glyph glyph-name="acutecomb" unicode="&#x301;" horiz-adv-x="0" 
d="M86 700h93l-89 -133h-60z" />
    <glyph glyph-name="uni0302" unicode="&#x302;" horiz-adv-x="0" 
d="M152 700h89l122 -133h-66l-100 75l-100 -75h-67z" />
    <glyph glyph-name="tildecomb" unicode="&#x303;" horiz-adv-x="0" 
d="M201 590l-27 19q-22 16 -44 16q-37 0 -37 -58h-63v25q0 43 26.5 72t67.5 29q39 0 82 -30l23 -17q32 -21 51 -21q36 0 36 58h63v-25q0 -43 -26 -72t-66 -29q-39 0 -86 33z" />
    <glyph glyph-name="uni0304" unicode="&#x304;" horiz-adv-x="0" 
d="M30 658h282v-68h-282v68z" />
    <glyph glyph-name="uni0306" unicode="&#x306;" horiz-adv-x="0" 
d="M73 594q-41 37 -43 106h63q4 -42 26.5 -62.5t57.5 -20.5q34 0 56.5 20.5t26.5 62.5h63q-2 -68 -44 -105.5t-102 -37.5q-63 0 -104 37z" />
    <glyph glyph-name="uni0307" unicode="&#x307;" horiz-adv-x="0" 
d="M46.5 609q-16.5 16 -16.5 39t16.5 39.5t39.5 16.5t39 -16.5t16 -39.5q0 -22 -16 -38.5t-39 -16.5t-39.5 16z" />
    <glyph glyph-name="uni0308" unicode="&#x308;" horiz-adv-x="0" 
d="M234.5 601q-14.5 15 -14.5 35q0 22 14.5 37t35.5 15t36 -15t15 -37q0 -20 -15 -35t-36 -15t-35.5 15zM45 601q-15 15 -15 35q0 22 15 37t36 15t36 -15t15 -37q0 -20 -15 -35t-36 -15t-36 15z" />
    <glyph glyph-name="uni030A" unicode="&#x30a;" horiz-adv-x="0" 
d="M57 584.5q-27 26.5 -27 64.5t27 64.5t64 26.5t64.5 -26.5t27.5 -64.5t-27.5 -64.5t-64.5 -26.5t-64 26.5zM152.5 618q12.5 13 12.5 31t-12.5 31t-30.5 13t-31 -13t-13 -31t13 -31t31 -13t30.5 13z" />
    <glyph glyph-name="uni030B" unicode="&#x30b;" horiz-adv-x="0" 
d="M93 700h93l-89 -133h-60zM246 700h94l-90 -133h-59z" />
    <glyph glyph-name="uni030C" unicode="&#x30c;" horiz-adv-x="0" 
d="M30 700h67l100 -75l100 75h66l-122 -133h-89z" />
    <glyph glyph-name="uni0312" unicode="&#x312;" horiz-adv-x="0" 
d="M74.5 756.5q24.5 23.5 66.5 23.5h14v-45h-9q-51 0 -51 -40v-6h40v-92h-85v98q0 38 24.5 61.5z" />
    <glyph glyph-name="dotbelowcomb" unicode="&#x323;" horiz-adv-x="0" 
d="M44.5 -166.5q-14.5 14.5 -14.5 35.5q0 22 14.5 37t36.5 15q21 0 36 -15t15 -37q0 -21 -15 -35.5t-36 -14.5q-22 0 -36.5 14.5z" />
    <glyph glyph-name="uni0326" unicode="&#x326;" horiz-adv-x="0" 
d="M34 -213h5q48 0 48 33v6h-40v87h85v-93q0 -33 -23.5 -55.5t-64.5 -22.5h-10v45z" />
    <glyph glyph-name="uni0327" unicode="&#x327;" horiz-adv-x="0" 
d="M30 -170h64q23 0 34.5 9.5t11.5 27.5q0 17 -11.5 26t-31.5 9h-32v113h52v-65q38 -2 61.5 -25.5t23.5 -59.5q0 -44 -30 -70.5t-79 -26.5h-63v62z" />
    <glyph glyph-name="uni0328" unicode="&#x328;" horiz-adv-x="0" 
d="M53.5 -178.5q-28.5 23.5 -28.5 61.5q0 46 32.5 78.5t72.5 49.5l46 -11q-40 -24 -63.5 -47.5t-23.5 -51.5q0 -41 61 -41h19v-62h-37q-50 0 -78.5 23.5z" />
    <glyph glyph-name="uni0335" unicode="&#x335;" horiz-adv-x="0" 
d="M30 420h463v-80h-463v80z" />
    <glyph glyph-name="uni0336" unicode="&#x336;" horiz-adv-x="0" 
d="M30 587h688v-74h-688v74z" />
    <glyph glyph-name="uni0337" unicode="&#x337;" horiz-adv-x="0" 
d="M30 373l248 140v-85l-248 -140v85z" />
    <glyph glyph-name="uni0338" unicode="&#x338;" horiz-adv-x="0" 
d="M30 18l565 715l64 -51l-565 -715z" />
    <glyph glyph-name="Wgrave" unicode="&#x1e80;" horiz-adv-x="936" 
d="M27 700h93l144 -610l147 610h122l145 -612l139 612h92l-171 -700h-125l-145 599l-145 -599h-125zM355 890h107l49 -128h-67z" />
    <glyph glyph-name="wgrave" unicode="&#x1e81;" horiz-adv-x="771" 
d="M19 500h89l120 -411l111 411h94l116 -413l115 413h88l-156 -500h-99l-111 404l-111 -404h-99zM266 700h93l56 -133h-60z" />
    <glyph glyph-name="Wacute" unicode="&#x1e82;" horiz-adv-x="936" 
d="M27 700h93l144 -610l147 610h122l145 -612l139 612h92l-171 -700h-125l-145 599l-145 -599h-125zM488 890h107l-89 -128h-67z" />
    <glyph glyph-name="wacute" unicode="&#x1e83;" horiz-adv-x="771" 
d="M19 500h89l120 -411l111 411h94l116 -413l115 413h88l-156 -500h-99l-111 404l-111 -404h-99zM412 700h93l-89 -133h-60z" />
    <glyph glyph-name="Wdieresis" unicode="&#x1e84;" horiz-adv-x="936" 
d="M27 700h93l144 -610l147 610h122l145 -612l139 612h92l-171 -700h-125l-145 599l-145 -599h-125zM531 791q-15 15 -15 37t15 37.5t37 15.5t37.5 -15.5t15.5 -37.5t-15.5 -37t-37.5 -15t-37 15zM339.5 791q-15.5 15 -15.5 37t15.5 37.5t36.5 15.5q22 0 37.5 -15.5
t15.5 -37.5t-15.5 -37t-37.5 -15q-21 0 -36.5 15z" />
    <glyph glyph-name="wdieresis" unicode="&#x1e85;" horiz-adv-x="771" 
d="M19 500h89l120 -411l111 411h94l116 -413l115 413h88l-156 -500h-99l-111 404l-111 -404h-99zM444.5 601q-14.5 15 -14.5 35q0 22 14.5 37t35.5 15t36 -15t15 -37q0 -20 -15 -35t-36 -15t-35.5 15zM255 601q-15 15 -15 35q0 22 15 37t36 15t36 -15t15 -37q0 -20 -15 -35
t-36 -15t-36 15z" />
    <glyph glyph-name="uni1E9E" unicode="&#x1e9e;" horiz-adv-x="647" 
d="M92 700h268q54 0 98.5 -22t70.5 -63t26 -96q0 -52 -27 -91t-73 -62q66 -15 105.5 -63t39.5 -115q0 -57 -27.5 -100t-75 -65.5t-105.5 -22.5h-110v82h95q60 0 96.5 30t36.5 86q0 55 -36.5 85.5t-95.5 30.5h-96v82h61q54 0 88 31t34 84q0 51 -33 79t-84 28h-166v-618h-90
v700z" />
    <glyph glyph-name="uni1EA0" unicode="&#x1ea0;" horiz-adv-x="692" 
d="M289 700h115l278 -700h-94l-73 184h-341l-73 -184h-92zM483 266l-139 350l-138 -350h277zM309.5 -166.5q-14.5 14.5 -14.5 35.5q0 22 14.5 37t36.5 15q21 0 36 -15t15 -37q0 -21 -15 -35.5t-36 -14.5q-22 0 -36.5 14.5z" />
    <glyph glyph-name="uni1EA1" unicode="&#x1ea1;" horiz-adv-x="551" 
d="M95 31.5q-48 41.5 -48 106.5q0 140 194 154l153 11v17q0 55 -35 86.5t-91 31.5h-5q-45 0 -78.5 -21.5t-42.5 -59.5h-84q10 67 67 110t143 43q68 0 115.5 -25.5t71.5 -69.5t24 -98v-207q0 -75 5 -110h-80q-5 29 -5 79q-21 -36 -68.5 -62.5t-107.5 -26.5q-80 0 -128 41.5z
M312 79q36 17 59 51t23 81v25l-140 -9q-60 -4 -91 -26t-31 -59q0 -35 28 -57.5t74 -22.5h5q37 0 73 17zM226.5 -166.5q-14.5 14.5 -14.5 35.5q0 22 14.5 37t36.5 15q21 0 36 -15t15 -37q0 -21 -15 -35.5t-36 -14.5q-22 0 -36.5 14.5z" />
    <glyph glyph-name="uni1EB8" unicode="&#x1eb8;" horiz-adv-x="649" 
d="M92 700h503v-82h-413v-217h353v-82h-353v-237h423v-82h-513v700zM311.5 -166.5q-14.5 14.5 -14.5 35.5q0 22 14.5 37t36.5 15q21 0 36 -15t15 -37q0 -21 -15 -35.5t-36 -14.5q-22 0 -36.5 14.5z" />
    <glyph glyph-name="uni1EB9" unicode="&#x1eb9;" horiz-adv-x="542" 
d="M159.5 22q-52.5 32 -83 91t-30.5 138q0 78 31.5 137t84 90.5t114.5 31.5q87 0 145.5 -52.5t71.5 -142.5q4 -31 4 -77h-366q3 -83 44.5 -129t100.5 -46h6q44 0 76.5 23.5t44.5 63.5h87q-17 -72 -75 -116t-137 -44q-66 0 -118.5 32zM369.5 403q-35.5 35 -88.5 35h-8
q-50 0 -88 -32.5t-50 -98.5h274q-4 61 -39.5 96zM239.5 -166.5q-14.5 14.5 -14.5 35.5q0 22 14.5 37t36.5 15q21 0 36 -15t15 -37q0 -21 -15 -35.5t-36 -14.5q-22 0 -36.5 14.5z" />
    <glyph glyph-name="uni1ECA" unicode="&#x1eca;" horiz-adv-x="273" 
d="M92 700h90v-700h-90v700zM100.5 -166.5q-14.5 14.5 -14.5 35.5q0 22 14.5 37t36.5 15q21 0 36 -15t15 -37q0 -21 -15 -35.5t-36 -14.5q-22 0 -36.5 14.5z" />
    <glyph glyph-name="uni1ECB" unicode="&#x1ecb;" horiz-adv-x="240" 
d="M78 500h85v-500h-85v500zM81.5 609q-16.5 16 -16.5 39t16.5 39.5t39.5 16.5t39 -16.5t16 -39.5q0 -22 -16 -38.5t-39 -16.5t-39.5 16zM84.5 -166.5q-14.5 14.5 -14.5 35.5q0 22 14.5 37t36.5 15q21 0 36 -15t15 -37q0 -21 -15 -35.5t-36 -14.5q-22 0 -36.5 14.5z" />
    <glyph glyph-name="uni1ECC" unicode="&#x1ecc;" horiz-adv-x="767" 
d="M213 34.5q-76 44.5 -119.5 126t-43.5 189.5t43.5 189.5t119.5 126t170 44.5t170 -44.5t120 -126t44 -189.5t-44 -189.5t-120 -126t-170 -44.5t-170 44.5zM509 106q54 34 85.5 97t31.5 147t-31.5 147t-85.5 97t-122 34h-8q-68 0 -122 -34t-85.5 -97t-31.5 -147t31.5 -147
t85.5 -97t122 -34h8q68 0 122 34zM345.5 -166.5q-14.5 14.5 -14.5 35.5q0 22 14.5 37t36.5 15q21 0 36 -15t15 -37q0 -21 -15 -35.5t-36 -14.5q-22 0 -36.5 14.5z" />
    <glyph glyph-name="uni1ECD" unicode="&#x1ecd;" horiz-adv-x="571" 
d="M163 23.5q-55 33.5 -86.5 93t-31.5 133.5t31.5 133.5t86.5 93t123 33.5t123 -33.5t86.5 -93t31.5 -133.5t-31.5 -133.5t-86.5 -93t-123 -33.5t-123 33.5zM367 87q35 23 54.5 65.5t19.5 97.5t-19.5 97.5t-54.5 66t-78 23.5h-7q-43 0 -77.5 -23.5t-54 -66t-19.5 -97.5
t19.5 -97.5t54 -65.5t77.5 -23h7q43 0 78 23zM249.5 -166.5q-14.5 14.5 -14.5 35.5q0 22 14.5 37t36.5 15q21 0 36 -15t15 -37q0 -21 -15 -35.5t-36 -14.5q-22 0 -36.5 14.5z" />
    <glyph glyph-name="uni1EE4" unicode="&#x1ee4;" horiz-adv-x="694" 
d="M151 60q-66 70 -66 190v450h90v-440q0 -90 43 -139t124 -49h10q81 0 124 49t43 139v440h90v-450q0 -119 -67.5 -189.5t-194.5 -70.5q-130 0 -196 70zM310.5 -166.5q-14.5 14.5 -14.5 35.5q0 22 14.5 37t36.5 15q21 0 36 -15t15 -37q0 -21 -15 -35.5t-36 -14.5
q-22 0 -36.5 14.5z" />
    <glyph glyph-name="uni1EE5" unicode="&#x1ee5;" horiz-adv-x="568" 
d="M158.5 14q-40.5 24 -63.5 68t-23 101v317h85v-296q0 -66 29 -102t84 -36h2q61 0 97.5 49t36.5 144v241h85v-500h-85v69q-24 -36 -64 -57.5t-91 -21.5q-52 0 -92.5 24zM245.5 -166.5q-14.5 14.5 -14.5 35.5q0 22 14.5 37t36.5 15q21 0 36 -15t15 -37q0 -21 -15 -35.5
t-36 -14.5q-22 0 -36.5 14.5z" />
    <glyph glyph-name="Ygrave" unicode="&#x1ef2;" horiz-adv-x="613" 
d="M262 290l-252 410h104l195 -321l194 321h100l-251 -410v-290h-90v290zM190 890h107l49 -128h-67z" />
    <glyph glyph-name="ygrave" unicode="&#x1ef3;" horiz-adv-x="520" 
d="M32 -100h94q28 0 45 13.5t30 45.5l23 60l-219 481h91l170 -374l149 374h88l-229 -570q-24 -60 -58.5 -82.5t-91.5 -22.5h-92v75zM135 700h93l56 -133h-60z" />
    <glyph glyph-name="uni2002" unicode="&#x2002;" horiz-adv-x="500" 
 />
    <glyph glyph-name="uni2003" unicode="&#x2003;" horiz-adv-x="1000" 
 />
    <glyph glyph-name="uni2009" unicode="&#x2009;" horiz-adv-x="125" 
 />
    <glyph glyph-name="uni200A" unicode="&#x200a;" horiz-adv-x="42" 
 />
    <glyph glyph-name="endash" unicode="&#x2013;" horiz-adv-x="557" 
d="M57 340h443v-75h-443v75z" />
    <glyph glyph-name="emdash" unicode="&#x2014;" horiz-adv-x="877" 
d="M57 340h763v-75h-763v75z" />
    <glyph glyph-name="uni2015" unicode="&#x2015;" horiz-adv-x="877" 
d="M57 340h763v-75h-763v75z" />
    <glyph glyph-name="quoteleft" unicode="&#x2018;" horiz-adv-x="261" 
d="M213 643h-33q-60 0 -60 -60v-15h58v-113h-113v133q0 55 29 83.5t82 28.5h37v-57z" />
    <glyph glyph-name="quoteright" unicode="&#x2019;" horiz-adv-x="261" 
d="M56 512h33q60 0 60 60v15h-58v113h113v-133q0 -55 -29 -83.5t-82 -28.5h-37v57z" />
    <glyph glyph-name="quotesinglbase" unicode="&#x201a;" horiz-adv-x="257" 
d="M37 -75h33q60 0 60 60v15h-58v113h113v-133q0 -55 -29 -83.5t-82 -28.5h-37v57z" />
    <glyph glyph-name="quotedblleft" unicode="&#x201c;" horiz-adv-x="466" 
d="M213 643h-33q-60 0 -60 -60v-15h58v-113h-113v133q0 55 29 83.5t82 28.5h37v-57zM418 643h-33q-60 0 -60 -60v-15h58v-113h-113v133q0 55 29 83.5t82 28.5h37v-57z" />
    <glyph glyph-name="quotedblright" unicode="&#x201d;" horiz-adv-x="466" 
d="M261 512h33q60 0 60 60v15h-58v113h113v-133q0 -55 -29 -83.5t-82 -28.5h-37v57zM56 512h33q60 0 60 60v15h-58v113h113v-133q0 -55 -29 -83.5t-82 -28.5h-37v57z" />
    <glyph glyph-name="quotedblbase" unicode="&#x201e;" horiz-adv-x="462" 
d="M242 -75h33q60 0 60 60v15h-58v113h113v-133q0 -55 -29 -83.5t-82 -28.5h-37v57zM37 -75h33q60 0 60 60v15h-58v113h113v-133q0 -55 -29 -83.5t-82 -28.5h-37v57z" />
    <glyph glyph-name="dagger" unicode="&#x2020;" horiz-adv-x="487" 
d="M201 465h-175v75h175v245h85v-245h175v-75h-175v-550h-85v550z" />
    <glyph glyph-name="daggerdbl" unicode="&#x2021;" horiz-adv-x="520" 
d="M218 160h-175v75h175v230h-175v75h175v245h85v-245h175v-75h-175v-230h175v-75h-175v-245h-85v245z" />
    <glyph glyph-name="bullet" unicode="&#x2022;" horiz-adv-x="320" 
d="M96.5 286.5q-26.5 26.5 -26.5 63.5q0 38 26.5 64t63.5 26q38 0 64 -26t26 -64q0 -37 -26 -63.5t-64 -26.5q-37 0 -63.5 26.5z" />
    <glyph glyph-name="ellipsis" unicode="&#x2026;" horiz-adv-x="752" 
d="M75.5 9q-18.5 19 -18.5 45q0 27 18.5 46t45.5 19t45.5 -19t18.5 -46q0 -26 -18.5 -45t-45.5 -19t-45.5 19zM330.5 9q-18.5 19 -18.5 45q0 27 18.5 46t45.5 19t45.5 -19t18.5 -46q0 -26 -18.5 -45t-45.5 -19t-45.5 19zM585.5 9q-18.5 19 -18.5 45q0 27 18.5 46t45.5 19
t45.5 -19t18.5 -46q0 -26 -18.5 -45t-45.5 -19t-45.5 19z" />
    <glyph glyph-name="perthousand" unicode="&#x2030;" horiz-adv-x="1183" 
d="M76 355.5q-45 55.5 -45 147.5t45 147t122 55t121.5 -55t44.5 -147t-44.5 -147.5t-121.5 -55.5t-122 55.5zM269.5 402q24.5 43 24.5 101t-24.5 100.5t-69.5 42.5h-4q-45 0 -70 -43t-25 -100q0 -58 25 -101t70 -43h4q45 0 69.5 43zM631 700h78l-420 -700h-78zM598 50.5
q-45 55.5 -45 147.5t45 147t122 55q88 0 133 -70q45 70 133 70q77 0 121.5 -55t44.5 -147t-44.5 -147.5t-121.5 -55.5q-88 0 -133 70q-45 -70 -133 -70q-77 0 -122 55.5zM791.5 97q24.5 43 24.5 101t-24.5 100.5t-69.5 42.5h-4q-45 0 -69.5 -42.5t-24.5 -100.5t24.5 -101
t69.5 -43h4q45 0 69.5 43zM1057.5 97q24.5 43 24.5 101t-24.5 100.5t-69.5 42.5h-4q-45 0 -70 -43t-25 -100q0 -58 25 -101t70 -43h4q45 0 69.5 43z" />
    <glyph glyph-name="guilsinglleft" unicode="&#x2039;" horiz-adv-x="326" 
d="M39 285l145 215h98l-145 -214l146 -216h-99z" />
    <glyph glyph-name="guilsinglright" unicode="&#x203a;" horiz-adv-x="325" 
d="M188 284l-145 216h98l145 -215l-145 -215h-98z" />
    <glyph glyph-name="fraction" unicode="&#x2044;" horiz-adv-x="187" 
d="M264 700h78l-420 -700h-78z" />
    <glyph glyph-name="uni2070" unicode="&#x2070;" horiz-adv-x="400" 
d="M78 465.5q-45 55.5 -45 147.5t45 147t122 55t122 -55t45 -147t-45 -147.5t-122 -55.5t-122 55.5zM271.5 512q24.5 43 24.5 101t-24.5 100.5t-69.5 42.5h-4q-45 0 -69.5 -42.5t-24.5 -100.5t24.5 -101t69.5 -43h4q45 0 69.5 43z" />
    <glyph glyph-name="uni2074" unicode="&#x2074;" horiz-adv-x="361" 
d="M212 506h-187v61l181 243h72v-246h56v-58h-56v-91h-66v91zM212 564v164l-120 -164h120z" />
    <glyph glyph-name="uni2075" unicode="&#x2075;" horiz-adv-x="343" 
d="M71.5 439.5q-38.5 29.5 -43.5 83.5h71q4 -26 23 -40t46 -14h4q31 0 51 20.5t20 53.5q0 30 -20 48.5t-49 18.5h-3q-38 0 -64 -34h-70l33 234h228v-59h-176l-14 -111q30 28 76 28q56 0 92.5 -34.5t36.5 -88.5q0 -62 -41 -98.5t-103 -36.5q-59 0 -97.5 29.5z" />
    <glyph glyph-name="uni2076" unicode="&#x2076;" horiz-adv-x="365" 
d="M74.5 461q-40.5 51 -40.5 141q0 98 43 155.5t117 57.5q59 0 94.5 -33t39.5 -78h-69q-5 23 -22.5 37t-42.5 14h-6q-39 0 -62.5 -35t-27.5 -96q12 25 39.5 40.5t62.5 15.5q55 0 93.5 -36t38.5 -95t-40 -99t-108 -40q-69 0 -109.5 51zM241.5 490.5q21.5 21.5 21.5 54.5
q0 32 -21 54t-53 22h-3q-31 0 -53 -21.5t-22 -54.5t21 -54.5t52 -21.5h3q33 0 54.5 21.5z" />
    <glyph glyph-name="uni2077" unicode="&#x2077;" horiz-adv-x="302" 
d="M121 636.5q41 72.5 100 114.5h-207v59h273v-62q-58 -49 -97.5 -119.5t-39.5 -177.5v-36h-70v36q0 113 41 185.5z" />
    <glyph glyph-name="uni2078" unicode="&#x2078;" horiz-adv-x="358" 
d="M74.5 439.5q-40.5 29.5 -40.5 80.5q0 34 20.5 59.5t53.5 36.5q-29 12 -47 36.5t-18 56.5q0 51 40 78.5t97 27.5t96.5 -27.5t39.5 -78.5q0 -33 -19 -57t-50 -36q34 -11 55 -36.5t21 -59.5q0 -51 -40 -80.5t-104 -29.5t-104.5 29.5zM233 483.5q21 14.5 21 41.5
q0 26 -21.5 41t-50.5 15h-5q-31 0 -52.5 -15t-21.5 -41q0 -27 21 -41.5t52 -14.5h5q31 0 52 14.5zM228 659q19 16 19 41q0 26 -18.5 41t-46.5 15h-5q-27 0 -46 -15t-19 -41q0 -25 19 -41t46 -16h5q27 0 46 16z" />
    <glyph glyph-name="uni2079" unicode="&#x2079;" horiz-adv-x="365" 
d="M77 443.5q-34 33.5 -37 77.5h68q5 -23 22.5 -37t42.5 -14h6q38 0 61 35t28 96q-12 -25 -41 -40.5t-64 -15.5q-54 0 -91.5 36t-37.5 95t39.5 99t106.5 40q70 0 110.5 -50.5t40.5 -140.5q0 -100 -41.5 -157t-116.5 -57q-62 0 -96 33.5zM233 625.5q22 21.5 22 54.5t-21 54.5
t-52 21.5h-3q-33 0 -55 -21.5t-22 -54.5t21 -54.5t54 -21.5h3q31 0 53 21.5z" />
    <glyph glyph-name="uni2080" unicode="&#x2080;" horiz-adv-x="400" 
d="M78 -64.5q-45 55.5 -45 147.5t45 147t122 55t122 -55t45 -147t-45 -147.5t-122 -55.5t-122 55.5zM271.5 -18q24.5 43 24.5 101t-24.5 100.5t-69.5 42.5h-4q-45 0 -69.5 -42.5t-24.5 -100.5t24.5 -101t69.5 -43h4q45 0 69.5 43z" />
    <glyph glyph-name="uni2081" unicode="&#x2081;" horiz-adv-x="224" 
d="M100 143h-84v47q44 2 67.5 25t33.5 65h51v-395h-68v258z" />
    <glyph glyph-name="uni2082" unicode="&#x2082;" horiz-adv-x="340" 
d="M33 -38l134 112q36 29 51.5 48.5t15.5 44.5q0 27 -17 42t-44 15h-5q-25 0 -44 -16.5t-20 -44.5h-70q1 55 41 88.5t97 33.5t94.5 -31t37.5 -84q0 -40 -22 -69t-64 -64l-110 -91h200v-61h-275v77z" />
    <glyph glyph-name="uni2083" unicode="&#x2083;" horiz-adv-x="347" 
d="M70 -88.5q-40 31.5 -41 85.5h70q1 -26 20 -42t47 -16h5q30 0 50 16t20 44q0 26 -18 41t-47 15h-38v60h38q26 0 44 15t18 40q0 26 -18 41t-47 15h-5q-27 0 -44 -15t-19 -39h-70q1 54 40 83.5t97 29.5q57 0 95.5 -28.5t38.5 -80.5q0 -31 -16 -55t-44 -35q27 -10 46 -34.5
t19 -58.5q0 -54 -41.5 -83.5t-101.5 -29.5q-58 0 -98 31.5z" />
    <glyph glyph-name="uni2084" unicode="&#x2084;" horiz-adv-x="361" 
d="M212 -24h-187v61l181 243h72v-246h56v-58h-56v-91h-66v91zM212 34v164l-120 -164h120z" />
    <glyph glyph-name="uni2085" unicode="&#x2085;" horiz-adv-x="343" 
d="M71.5 -90.5q-38.5 29.5 -43.5 83.5h71q4 -26 23 -40t46 -14h4q31 0 51 20.5t20 53.5q0 30 -20 48.5t-49 18.5h-3q-38 0 -64 -34h-70l33 234h228v-59h-176l-14 -111q30 28 76 28q56 0 92.5 -34.5t36.5 -88.5q0 -62 -41 -98.5t-103 -36.5q-59 0 -97.5 29.5z" />
    <glyph glyph-name="uni2086" unicode="&#x2086;" horiz-adv-x="365" 
d="M74.5 -69q-40.5 51 -40.5 141q0 98 43 155.5t117 57.5q59 0 94.5 -33t39.5 -78h-69q-5 23 -22.5 37t-42.5 14h-6q-39 0 -62.5 -35t-27.5 -96q12 25 39.5 40.5t62.5 15.5q55 0 93.5 -36t38.5 -95t-40 -99t-108 -40q-69 0 -109.5 51zM241.5 -39.5q21.5 21.5 21.5 54.5
q0 32 -21 54t-53 22h-3q-31 0 -53 -21.5t-22 -54.5t21 -54.5t52 -21.5h3q33 0 54.5 21.5z" />
    <glyph glyph-name="uni2087" unicode="&#x2087;" horiz-adv-x="302" 
d="M121 106.5q41 72.5 100 114.5h-207v59h273v-62q-58 -49 -97.5 -119.5t-39.5 -177.5v-36h-70v36q0 113 41 185.5z" />
    <glyph glyph-name="uni2088" unicode="&#x2088;" horiz-adv-x="358" 
d="M74.5 -90.5q-40.5 29.5 -40.5 80.5q0 34 20.5 59.5t53.5 36.5q-29 12 -47 36.5t-18 56.5q0 51 40 78.5t97 27.5t96.5 -27.5t39.5 -78.5q0 -33 -19 -57t-50 -36q34 -11 55 -36.5t21 -59.5q0 -51 -40 -80.5t-104 -29.5t-104.5 29.5zM233 -46.5q21 14.5 21 41.5
q0 26 -21.5 41t-50.5 15h-5q-31 0 -52.5 -15t-21.5 -41q0 -27 21 -41.5t52 -14.5h5q31 0 52 14.5zM228 129q19 16 19 41q0 26 -18.5 41t-46.5 15h-5q-27 0 -46 -15t-19 -41q0 -25 19 -41t46 -16h5q27 0 46 16z" />
    <glyph glyph-name="uni2089" unicode="&#x2089;" horiz-adv-x="365" 
d="M77 -86.5q-34 33.5 -37 77.5h68q5 -23 22.5 -37t42.5 -14h6q38 0 61 35t28 96q-12 -25 -41 -40.5t-64 -15.5q-54 0 -91.5 36t-37.5 95t39.5 99t106.5 40q70 0 110.5 -50.5t40.5 -140.5q0 -100 -41.5 -157t-116.5 -57q-62 0 -96 33.5zM233 95.5q22 21.5 22 54.5t-21 54.5
t-52 21.5h-3q-33 0 -55 -21.5t-22 -54.5t21 -54.5t54 -21.5h3q31 0 53 21.5z" />
    <glyph glyph-name="uni20A9" unicode="&#x20a9;" horiz-adv-x="977" 
d="M48 377h78l-79 323h93l77 -323h136l78 323h122l77 -323h134l73 323h93l-79 -323h78v-69h-95l-75 -308h-126l-74 308h-140l-75 -308h-126l-75 308h-95v69zM284 92l53 216h-104zM542 377l-53 222l-54 -222h107zM698 90l50 218h-102z" />
    <glyph glyph-name="Euro" unicode="&#x20ac;" horiz-adv-x="682" 
d="M246.5 41q-64.5 51 -93.5 144l-104 -23v76l88 19q-7 47 -7 84l-81 -18v76l84 19q14 137 85 214.5t183 77.5q100 0 161 -57.5t70 -160.5h-88q-7 67 -43 103.5t-96 36.5h-10q-67 0 -111.5 -51t-58.5 -143l196 44v-76l-203 -45v-11q0 -42 4 -74l157 35v-76l-141 -31
q21 -66 61 -101t96 -35h10q60 0 96 36.5t43 103.5h88q-9 -103 -70 -160.5t-161 -57.5q-90 0 -154.5 51z" />
    <glyph glyph-name="uni20B4" unicode="&#x20b4;" horiz-adv-x="653" 
d="M199 16.5q-51 26.5 -76 69.5t-25 91q0 28 8 55l-49 -5v75l535 48v-74l-397 -36q-12 -24 -12 -54q0 -52 38 -85t101 -33h13q63 0 98.5 31t44.5 87h90q-9 -90 -71 -143t-172 -53q-75 0 -126 26.5zM37 442l419 36q9 21 9 43q0 52 -35 81.5t-92 29.5h-6q-65 0 -99 -33
t-39 -75h-90q3 39 27 82t75 73.5t130 30.5q66 0 114.5 -24t74 -66t25.5 -96q0 -22 -4 -39l68 6v-74l-577 -50v75z" />
    <glyph glyph-name="uni20BD" unicode="&#x20bd;" horiz-adv-x="654" 
d="M155 167h-104v76h104v67h-105v81h105v309h248q100 0 161 -49t61 -146t-61.5 -146t-161.5 -49h-157v-67h210v-76h-210v-167h-90v167zM497 417.5q38 26.5 38 87.5q0 60 -38 86.5t-109 26.5h-143v-227h143q71 0 109 26.5z" />
    <glyph glyph-name="uni20BF" unicode="&#x20bf;" horiz-adv-x="651" 
d="M92 700h108v120h77v-120h90v120h76v-125q66 -14 106.5 -61t40.5 -118q0 -58 -32 -101t-81 -60q56 -9 92 -52t36 -112q0 -74 -45.5 -124.5t-116.5 -62.5v-124h-76v120h-90v-120h-77v120h-108v700zM479 112.5q36 30.5 36 85.5t-36 85.5t-96 30.5h-201v-232h201
q60 0 96 30.5zM467.5 425.5q32.5 29.5 32.5 81.5t-32.5 81.5t-87.5 29.5h-198v-222h198q55 0 87.5 29.5z" />
    <glyph glyph-name="uni2105" unicode="&#x2105;" horiz-adv-x="752" 
d="M542 700h78l-420 -700h-78zM460.5 32q-40.5 42 -40.5 106q0 63 41 105t102 42t101.5 -42t40.5 -105q0 -64 -40.5 -106t-101.5 -42q-62 0 -102.5 42zM617.5 71q20.5 25 20.5 67q0 41 -20.5 66t-53.5 25h-3q-32 0 -52.5 -25t-20.5 -66q0 -42 20 -67t53 -25h3q33 0 53.5 25z
M86.5 457.5q-38.5 42.5 -38.5 106.5q0 63 38.5 104.5t99.5 41.5q53 0 88.5 -29t40.5 -76h-68q-4 21 -20.5 35.5t-40.5 14.5h-1q-33 0 -52 -26t-19 -65q0 -41 19 -67t52 -26h1q24 0 40.5 15t20.5 36h68q-7 -48 -41.5 -77.5t-87.5 -29.5q-61 0 -99.5 42.5z" />
    <glyph glyph-name="uni2113" unicode="&#x2113;" horiz-adv-x="417" 
d="M113 136v64l-75 -44v89l75 44v261q0 76 37.5 118t104.5 42q72 0 109 -49t37 -118q0 -172 -160 -267l-42 -25v-104q0 -40 15.5 -55.5t55.5 -15.5h67v-76h-92q-132 0 -132 136zM200 340q115 68 115 203q0 40 -17 65.5t-44 25.5q-24 0 -39.5 -19.5t-15.5 -54.5v-221z" />
    <glyph glyph-name="uni2116" unicode="&#x2116;" horiz-adv-x="1068" 
d="M98 700h123l345 -584v584h90v-700h-122l-346 587v-587h-90v700zM736 350h272v-56h-272v56zM773.5 450q-37.5 40 -37.5 107t37.5 107.5t99.5 40.5t99.5 -40.5t37.5 -107.5t-37.5 -107t-99.5 -40t-99.5 40zM924 491.5q17 25.5 17 65.5t-17.5 66t-47.5 26h-6q-29 0 -47 -26
t-18 -66t18 -65.5t47 -25.5h7q30 0 47 25.5z" />
    <glyph glyph-name="uni2117" unicode="&#x2117;" horiz-adv-x="872" 
d="M241.5 13q-89.5 53 -142.5 142.5t-53 194.5q0 106 52.5 195.5t142.5 142t195 52.5q106 0 195.5 -52.5t142 -142t52.5 -195.5q0 -105 -52.5 -195t-142 -142.5t-195.5 -52.5q-105 0 -194.5 53zM598 69q74 44 117.5 118.5t43.5 162.5t-43.5 162.5t-117.5 118.5t-162 44
t-162 -44t-117.5 -118.5t-43.5 -162.5t43.5 -162.5t117.5 -118.5t162 -44t162 44zM318 544h157q61 0 96.5 -30t35.5 -89q0 -60 -35.5 -89.5t-97.5 -29.5h-86v-138h-70v376zM519 382.5q18 12.5 18 42.5t-18 42.5t-53 12.5h-78v-110h78q35 0 53 12.5z" />
    <glyph glyph-name="trademark" unicode="&#x2122;" horiz-adv-x="975" 
d="M468 700h116l96 -294l92 294h115v-380h-77v287l-92 -287h-76l-97 290v-290h-77v380zM179 630h-131v70h339v-70h-131v-310h-77v310z" />
    <glyph glyph-name="uni2126" unicode="&#x2126;" horiz-adv-x="777" 
d="M67 82h131q-64 49 -100 119.5t-36 160.5q0 97 41 176.5t115 125.5t170 46t170.5 -46t115.5 -125.5t41 -176.5q0 -90 -36 -160.5t-100 -119.5h130v-82h-247v81q78 49 120.5 116.5t42.5 159.5q0 78 -29.5 140t-82 96.5t-120.5 34.5h-10q-67 0 -119.5 -34.5t-82 -96.5
t-29.5 -140q0 -92 42 -159.5t120 -116.5v-81h-247v82z" />
    <glyph glyph-name="uni2153" unicode="&#x2153;" horiz-adv-x="717" 
d="M100 563h-84v47q44 2 67.5 25t33.5 65h51v-395h-68v258zM471 700h78l-420 -700h-78zM438 26.5q-40 31.5 -41 85.5h70q1 -26 20 -42t47 -16h5q30 0 50 16t20 44q0 26 -18 41t-47 15h-38v60h38q26 0 44 15t18 40q0 26 -18 41t-47 15h-5q-27 0 -44 -15t-19 -39h-70
q1 54 40 83.5t97 29.5q57 0 95.5 -28.5t38.5 -80.5q0 -31 -16 -55t-44 -35q27 -10 46 -34.5t19 -58.5q0 -54 -41.5 -83.5t-101.5 -29.5q-58 0 -98 31.5z" />
    <glyph glyph-name="uni2154" unicode="&#x2154;" horiz-adv-x="844" 
d="M33 382l134 112q36 29 51.5 48.5t15.5 44.5q0 27 -17 42t-44 15h-5q-25 0 -44 -16.5t-20 -44.5h-70q1 55 41 88.5t97 33.5t94.5 -31t37.5 -84q0 -40 -22 -69t-64 -64l-110 -91h200v-61h-275v77zM598 700h78l-420 -700h-78zM565 26.5q-40 31.5 -41 85.5h70q1 -26 20 -42
t47 -16h5q30 0 50 16t20 44q0 26 -18 41t-47 15h-38v60h38q26 0 44 15t18 40q0 26 -18 41t-47 15h-5q-27 0 -44 -15t-19 -39h-70q1 54 40 83.5t97 29.5q57 0 95.5 -28.5t38.5 -80.5q0 -31 -16 -55t-44 -35q27 -10 46 -34.5t19 -58.5q0 -54 -41.5 -83.5t-101.5 -29.5
q-58 0 -98 31.5z" />
    <glyph glyph-name="uni2155" unicode="&#x2155;" horiz-adv-x="720" 
d="M100 563h-84v47q44 2 67.5 25t33.5 65h51v-395h-68v258zM471 700h78l-420 -700h-78zM443.5 24.5q-38.5 29.5 -43.5 83.5h71q4 -26 23 -40t46 -14h4q31 0 51 20.5t20 53.5q0 30 -20 48.5t-49 18.5h-3q-38 0 -64 -34h-70l33 234h228v-59h-176l-14 -111q30 28 76 28
q56 0 92.5 -34.5t36.5 -88.5q0 -62 -41 -98.5t-103 -36.5q-59 0 -97.5 29.5z" />
    <glyph glyph-name="uni2156" unicode="&#x2156;" horiz-adv-x="847" 
d="M33 382l134 112q36 29 51.5 48.5t15.5 44.5q0 27 -17 42t-44 15h-5q-25 0 -44 -16.5t-20 -44.5h-70q1 55 41 88.5t97 33.5t94.5 -31t37.5 -84q0 -40 -22 -69t-64 -64l-110 -91h200v-61h-275v77zM598 700h78l-420 -700h-78zM570.5 24.5q-38.5 29.5 -43.5 83.5h71
q4 -26 23 -40t46 -14h4q31 0 51 20.5t20 53.5q0 30 -20 48.5t-49 18.5h-3q-38 0 -64 -34h-70l33 234h228v-59h-176l-14 -111q30 28 76 28q56 0 92.5 -34.5t36.5 -88.5q0 -62 -41 -98.5t-103 -36.5q-59 0 -97.5 29.5z" />
    <glyph glyph-name="uni2157" unicode="&#x2157;" horiz-adv-x="832" 
d="M70 331.5q-40 31.5 -41 85.5h70q1 -26 20 -42t47 -16h5q30 0 50 16t20 44q0 26 -18 41t-47 15h-38v60h38q26 0 44 15t18 40q0 26 -18 41t-47 15h-5q-27 0 -44 -15t-19 -39h-70q1 54 40 83.5t97 29.5q57 0 95.5 -28.5t38.5 -80.5q0 -31 -16 -55t-44 -35q27 -10 46 -34.5
t19 -58.5q0 -54 -41.5 -83.5t-101.5 -29.5q-58 0 -98 31.5zM583 700h78l-420 -700h-78zM555.5 24.5q-38.5 29.5 -43.5 83.5h71q4 -26 23 -40t46 -14h4q31 0 51 20.5t20 53.5q0 30 -20 48.5t-49 18.5h-3q-38 0 -64 -34h-70l33 234h228v-59h-176l-14 -111q30 28 76 28
q56 0 92.5 -34.5t36.5 -88.5q0 -62 -41 -98.5t-103 -36.5q-59 0 -97.5 29.5z" />
    <glyph glyph-name="uni2158" unicode="&#x2158;" horiz-adv-x="848" 
d="M212 396h-187v61l181 243h72v-246h56v-58h-56v-91h-66v91zM212 454v164l-120 -164h120zM599 700h78l-420 -700h-78zM571.5 24.5q-38.5 29.5 -43.5 83.5h71q4 -26 23 -40t46 -14h4q31 0 51 20.5t20 53.5q0 30 -20 48.5t-49 18.5h-3q-38 0 -64 -34h-70l33 234h228v-59h-176
l-14 -111q30 28 76 28q56 0 92.5 -34.5t36.5 -88.5q0 -62 -41 -98.5t-103 -36.5q-59 0 -97.5 29.5z" />
    <glyph glyph-name="uni2159" unicode="&#x2159;" horiz-adv-x="728" 
d="M100 563h-84v47q44 2 67.5 25t33.5 65h51v-395h-68v258zM471 700h78l-420 -700h-78zM434.5 46q-40.5 51 -40.5 141q0 98 43 155.5t117 57.5q59 0 94.5 -33t39.5 -78h-69q-5 23 -22.5 37t-42.5 14h-6q-39 0 -62.5 -35t-27.5 -96q12 25 39.5 40.5t62.5 15.5q55 0 93.5 -36
t38.5 -95t-40 -99t-108 -40q-69 0 -109.5 51zM601.5 75.5q21.5 21.5 21.5 54.5q0 32 -21 54t-53 22h-3q-31 0 -53 -21.5t-22 -54.5t21 -54.5t52 -21.5h3q33 0 54.5 21.5z" />
    <glyph glyph-name="uni215A" unicode="&#x215a;" horiz-adv-x="837" 
d="M71.5 329.5q-38.5 29.5 -43.5 83.5h71q4 -26 23 -40t46 -14h4q31 0 51 20.5t20 53.5q0 30 -20 48.5t-49 18.5h-3q-38 0 -64 -34h-70l33 234h228v-59h-176l-14 -111q30 28 76 28q56 0 92.5 -34.5t36.5 -88.5q0 -62 -41 -98.5t-103 -36.5q-59 0 -97.5 29.5zM580 700h78
l-420 -700h-78zM543.5 46q-40.5 51 -40.5 141q0 98 43 155.5t117 57.5q59 0 94.5 -33t39.5 -78h-69q-5 23 -22.5 37t-42.5 14h-6q-39 0 -62.5 -35t-27.5 -96q12 25 39.5 40.5t62.5 15.5q55 0 93.5 -36t38.5 -95t-40 -99t-108 -40q-69 0 -109.5 51zM710.5 75.5
q21.5 21.5 21.5 54.5q0 32 -21 54t-53 22h-3q-31 0 -53 -21.5t-22 -54.5t21 -54.5t52 -21.5h3q33 0 54.5 21.5z" />
    <glyph glyph-name="oneeighth" unicode="&#x215b;" horiz-adv-x="725" 
d="M100 563h-84v47q44 2 67.5 25t33.5 65h51v-395h-68v258zM471 700h78l-420 -700h-78zM439.5 24.5q-40.5 29.5 -40.5 80.5q0 34 20.5 59.5t53.5 36.5q-29 12 -47 36.5t-18 56.5q0 51 40 78.5t97 27.5t96.5 -27.5t39.5 -78.5q0 -33 -19 -57t-50 -36q34 -11 55 -36.5
t21 -59.5q0 -51 -40 -80.5t-104 -29.5t-104.5 29.5zM598 68.5q21 14.5 21 41.5q0 26 -21.5 41t-50.5 15h-5q-31 0 -52.5 -15t-21.5 -41q0 -27 21 -41.5t52 -14.5h5q31 0 52 14.5zM593 244q19 16 19 41q0 26 -18.5 41t-46.5 15h-5q-27 0 -46 -15t-19 -41q0 -25 19 -41t46 -16
h5q27 0 46 16z" />
    <glyph glyph-name="threeeighths" unicode="&#x215c;" horiz-adv-x="837" 
d="M70 331.5q-40 31.5 -41 85.5h70q1 -26 20 -42t47 -16h5q30 0 50 16t20 44q0 26 -18 41t-47 15h-38v60h38q26 0 44 15t18 40q0 26 -18 41t-47 15h-5q-27 0 -44 -15t-19 -39h-70q1 54 40 83.5t97 29.5q57 0 95.5 -28.5t38.5 -80.5q0 -31 -16 -55t-44 -35q27 -10 46 -34.5
t19 -58.5q0 -54 -41.5 -83.5t-101.5 -29.5q-58 0 -98 31.5zM583 700h78l-420 -700h-78zM551.5 24.5q-40.5 29.5 -40.5 80.5q0 34 20.5 59.5t53.5 36.5q-29 12 -47 36.5t-18 56.5q0 51 40 78.5t97 27.5t96.5 -27.5t39.5 -78.5q0 -33 -19 -57t-50 -36q34 -11 55 -36.5
t21 -59.5q0 -51 -40 -80.5t-104 -29.5t-104.5 29.5zM710 68.5q21 14.5 21 41.5q0 26 -21.5 41t-50.5 15h-5q-31 0 -52.5 -15t-21.5 -41q0 -27 21 -41.5t52 -14.5h5q31 0 52 14.5zM705 244q19 16 19 41q0 26 -18.5 41t-46.5 15h-5q-27 0 -46 -15t-19 -41q0 -25 19 -41t46 -16
h5q27 0 46 16z" />
    <glyph glyph-name="fiveeighths" unicode="&#x215d;" horiz-adv-x="834" 
d="M71.5 329.5q-38.5 29.5 -43.5 83.5h71q4 -26 23 -40t46 -14h4q31 0 51 20.5t20 53.5q0 30 -20 48.5t-49 18.5h-3q-38 0 -64 -34h-70l33 234h228v-59h-176l-14 -111q30 28 76 28q56 0 92.5 -34.5t36.5 -88.5q0 -62 -41 -98.5t-103 -36.5q-59 0 -97.5 29.5zM580 700h78
l-420 -700h-78zM548.5 24.5q-40.5 29.5 -40.5 80.5q0 34 20.5 59.5t53.5 36.5q-29 12 -47 36.5t-18 56.5q0 51 40 78.5t97 27.5t96.5 -27.5t39.5 -78.5q0 -33 -19 -57t-50 -36q34 -11 55 -36.5t21 -59.5q0 -51 -40 -80.5t-104 -29.5t-104.5 29.5zM707 68.5q21 14.5 21 41.5
q0 26 -21.5 41t-50.5 15h-5q-31 0 -52.5 -15t-21.5 -41q0 -27 21 -41.5t52 -14.5h5q31 0 52 14.5zM702 244q19 16 19 41q0 26 -18.5 41t-46.5 15h-5q-27 0 -46 -15t-19 -41q0 -25 19 -41t46 -16h5q27 0 46 16z" />
    <glyph glyph-name="seveneighths" unicode="&#x215e;" horiz-adv-x="759" 
d="M121 526.5q41 72.5 100 114.5h-207v59h273v-62q-58 -49 -97.5 -119.5t-39.5 -177.5v-36h-70v36q0 113 41 185.5zM505 700h78l-420 -700h-78zM473.5 24.5q-40.5 29.5 -40.5 80.5q0 34 20.5 59.5t53.5 36.5q-29 12 -47 36.5t-18 56.5q0 51 40 78.5t97 27.5t96.5 -27.5
t39.5 -78.5q0 -33 -19 -57t-50 -36q34 -11 55 -36.5t21 -59.5q0 -51 -40 -80.5t-104 -29.5t-104.5 29.5zM632 68.5q21 14.5 21 41.5q0 26 -21.5 41t-50.5 15h-5q-31 0 -52.5 -15t-21.5 -41q0 -27 21 -41.5t52 -14.5h5q31 0 52 14.5zM627 244q19 16 19 41q0 26 -18.5 41
t-46.5 15h-5q-27 0 -46 -15t-19 -41q0 -25 19 -41t46 -16h5q27 0 46 16z" />
    <glyph glyph-name="uni215F" unicode="&#x215f;" horiz-adv-x="394" 
d="M100 563h-84v47q44 2 67.5 25t33.5 65h51v-395h-68v258zM471 700h78l-420 -700h-78z" />
    <glyph glyph-name="uni2160" unicode="&#x2160;" horiz-adv-x="460" 
d="M41 72h146v556h-146v72h378v-72h-147v-556h147v-72h-378v72z" />
    <glyph glyph-name="uni2161" unicode="&#x2161;" horiz-adv-x="745" 
d="M41 72h146v556h-146v72h663v-72h-147v-556h147v-72h-663v72zM472 72v556h-200v-556h200z" />
    <glyph glyph-name="uni2162" unicode="&#x2162;" horiz-adv-x="1030" 
d="M41 72h146v556h-146v72h948v-72h-147v-556h147v-72h-948v72zM472 72v556h-200v-556h200zM757 72v556h-200v-556h200z" />
    <glyph glyph-name="uni2163" unicode="&#x2163;" horiz-adv-x="1044" 
d="M41 72h147v556h-147v72h558v-72h-107l172 -531l177 531h-110v72h293v-72h-98l-192 -556h160v-72h-853v72zM586 72l-182 556h-131v-556h313z" />
    <glyph glyph-name="uni2164" unicode="&#x2164;" horiz-adv-x="759" 
d="M141 72h160l-182 556h-98v72h293v-72h-107l172 -531l177 531h-110v72h293v-72h-98l-192 -556h160v-72h-468v72z" />
    <glyph glyph-name="uni2165" unicode="&#x2165;" horiz-adv-x="1035" 
d="M141 72h160l-182 556h-98v72h293v-72h-107l172 -531l177 531h-110v72h548v-72h-147v-556h147v-72h-853v72zM762 72v556h-121l-192 -556h313z" />
    <glyph glyph-name="uni2166" unicode="&#x2166;" horiz-adv-x="1320" 
d="M141 72h160l-182 556h-98v72h293v-72h-107l172 -531l177 531h-110v72h833v-72h-147v-556h147v-72h-1138v72zM762 72v556h-121l-192 -556h313zM1047 72v556h-200v-556h200z" />
    <glyph glyph-name="uni2167" unicode="&#x2167;" horiz-adv-x="1605" 
d="M141 72h160l-182 556h-98v72h293v-72h-107l172 -531l177 531h-110v72h1118v-72h-147v-556h147v-72h-1423v72zM762 72v556h-121l-192 -556h313zM1047 72v556h-200v-556h200zM1332 72v556h-200v-556h200z" />
    <glyph glyph-name="uni2168" unicode="&#x2168;" horiz-adv-x="1000" 
d="M41 72h146v556h-146v72h913v-72h-96l-187 -273l192 -283h101v-72h-923v72zM381 72l193 281l-187 275h-115v-556h109zM765 72l-144 211l-144 -211h288zM763 628h-278l139 -203z" />
    <glyph glyph-name="uni2169" unicode="&#x2169;" horiz-adv-x="756" 
d="M36 72h101l192 281l-187 275h-96v72h664v-72h-96l-187 -273l192 -283h101v-72h-684v72zM520 72l-143 211l-145 -211h288zM518 628h-277l138 -203z" />
    <glyph glyph-name="uni216C" unicode="&#x216c;" horiz-adv-x="682" 
d="M41 72h137v556h-137v72h358v-72h-136v-556h296v185h85v-257h-603v72z" />
    <glyph glyph-name="uni216D" unicode="&#x216d;" horiz-adv-x="726" 
d="M203 37.5q-73 47.5 -113 130t-40 182.5q0 101 40 183t113 129.5t167 47.5q52 0 94 -15.5t69.5 -37t39.5 -41.5v84h85v-218h-85q-16 69 -67.5 112.5t-127.5 43.5h-10q-70 0 -123 -37.5t-81.5 -103t-28.5 -147.5t28.5 -147.5t81.5 -103t123 -37.5h10q74 0 126.5 43
t68.5 113h85v-218h-85v85q-23 -34 -76 -64.5t-127 -30.5q-94 0 -167 47.5z" />
    <glyph glyph-name="uni216E" unicode="&#x216e;" horiz-adv-x="771" 
d="M41 72h137v556h-137v72h355q97 0 170 -42t113 -121t40 -187q0 -109 -40 -188t-112.5 -120.5t-169.5 -41.5h-356v72zM567.5 144q66.5 72 66.5 206q0 133 -65 205.5t-183 72.5h-123v-556h119q119 0 185.5 72z" />
    <glyph glyph-name="uni216F" unicode="&#x216f;" horiz-adv-x="1048" 
d="M41 72h137v556h-137v72h280l207 -614l200 614h279v-72h-137v-556h137v-72h-295v72h73v548l-206 -620h-106l-210 623v-551h73v-72h-295v72z" />
    <glyph glyph-name="arrowleft" unicode="&#x2190;" horiz-adv-x="841" 
d="M205 310l213 -212l-57 -57l-265 264q-22 22 -22 45q0 25 22 47l265 264l57 -57l-212 -212h584v-82h-585z" />
    <glyph glyph-name="arrowup" unicode="&#x2191;" horiz-adv-x="688" 
d="M303 585l-212 -213l-57 57l264 265q22 22 45 22q25 0 47 -22l264 -265l-57 -57l-212 212v-584h-82v585z" />
    <glyph glyph-name="arrowright" unicode="&#x2192;" horiz-adv-x="841" 
d="M636 391l-213 212l57 57l265 -264q22 -22 22 -45q0 -25 -22 -47l-265 -264l-57 57l212 212h-584v82h585z" />
    <glyph glyph-name="arrowdown" unicode="&#x2193;" horiz-adv-x="689" 
d="M385 604l212 213l57 -57l-264 -265q-22 -22 -45 -22q-25 0 -47 22l-264 265l57 57l212 -212v584h82v-585z" />
    <glyph glyph-name="uni2196" unicode="&#x2196;" horiz-adv-x="683" 
d="M158 562v-301h-80l-1 374q0 30 16 48q20 18 49 18l374 -1v-81h-300l413 -413l-58 -58z" />
    <glyph glyph-name="uni2197" unicode="&#x2197;" horiz-adv-x="682" 
d="M468 619h-301v80l374 1q30 0 48 -16q18 -20 18 -49l-1 -374h-81v300l-413 -413l-58 58z" />
    <glyph glyph-name="uni2198" unicode="&#x2198;" horiz-adv-x="686" 
d="M521 138v301h80l1 -374q0 -30 -16 -48q-20 -18 -49 -18l-374 1v81h300l-413 413l58 58z" />
    <glyph glyph-name="uni2199" unicode="&#x2199;" horiz-adv-x="686" 
d="M221 81h301v-80l-374 -1q-30 0 -48 16q-18 20 -18 49l1 374h81v-300l413 413l58 -58z" />
    <glyph glyph-name="uni21A4" unicode="&#x21a4;" horiz-adv-x="890" 
d="M86 351q0 23 22 45l265 264l57 -57l-213 -212h503v209h82v-500h-82v209h-502l212 -212l-57 -57l-265 264q-22 22 -22 47z" />
    <glyph glyph-name="uni21A5" unicode="&#x21a5;" horiz-adv-x="703" 
d="M353 716q23 0 45 -22l264 -265l-57 -57l-212 213v-503h209v-82h-500v82h209v502l-212 -212l-57 57l264 265q22 22 47 22z" />
    <glyph glyph-name="uni21A6" unicode="&#x21a6;" horiz-adv-x="890" 
d="M804 349q0 -23 -22 -45l-265 -264l-57 57l213 212h-503v-209h-82v500h82v-209h502l-212 212l57 57l265 -264q22 -22 22 -47z" />
    <glyph glyph-name="uni21A7" unicode="&#x21a7;" horiz-adv-x="703" 
d="M375.5 -10q-12.5 -6 -24.5 -6q-23 0 -45 22l-264 265l57 57l212 -213v503h-209v82h500v-82h-209v-502l212 212l57 -57l-264 -265q-10 -10 -22.5 -16z" />
    <glyph glyph-name="uni21B0" unicode="&#x21b0;" horiz-adv-x="858" 
d="M711 309h-501l211 -212l-56 -57l-265 264q-22 22 -22 47q0 23 22 45l265 264l56 -57l-212 -212h585v-391h-83v309z" />
    <glyph glyph-name="uni21B1" unicode="&#x21b1;" horiz-adv-x="858" 
d="M64 391h585l-213 212l57 57l265 -264q22 -22 22 -45q0 -25 -22 -47l-265 -264l-57 57l212 212h-501v-309h-83v391z" />
    <glyph glyph-name="uni21B2" unicode="&#x21b2;" horiz-adv-x="857" 
d="M794 554h-585l213 -212l-57 -57l-265 264q-22 22 -22 45q0 25 22 47l265 264l57 -57l-212 -212h501v309h83v-391z" />
    <glyph glyph-name="uni21B3" unicode="&#x21b3;" horiz-adv-x="857" 
d="M146 636h501l-211 212l56 57l265 -264q22 -22 22 -47q0 -23 -22 -45l-265 -264l-56 57l212 212h-585v391h83v-309z" />
    <glyph glyph-name="partialdiff" unicode="&#x2202;" horiz-adv-x="589" 
d="M119.5 58.5q-62.5 68.5 -62.5 182.5q0 71 28 126.5t78.5 86.5t113.5 31q50 0 90.5 -18t62.5 -50q-11 104 -68.5 159.5t-139.5 55.5q-25 0 -54 -4.5t-46 -10.5v78q17 6 46.5 10.5t61.5 4.5q98 0 164.5 -53t99 -145t32.5 -210q0 -157 -63.5 -234.5t-171.5 -77.5
q-109 0 -171.5 68.5zM398.5 112q41.5 44 41.5 128q0 83 -40.5 127.5t-105.5 44.5h-10q-63 0 -102 -44t-39 -127t41.5 -128t104.5 -45h5q63 0 104.5 44z" />
    <glyph glyph-name="uni2206" unicode="&#x2206;" horiz-adv-x="741" 
d="M42 40l275 660h110l272 -660v-40h-657v40zM587 82l-217 527l-219 -527h436z" />
    <glyph glyph-name="product" unicode="&#x220f;" horiz-adv-x="729" 
d="M152 622h-102v78h629v-78h-101v-622h-86v622h-254v-622h-86v622z" />
    <glyph glyph-name="summation" unicode="&#x2211;" horiz-adv-x="637" 
d="M56 87l240 279l-232 251v83h509v-82h-397l232 -249l-246 -287h421v-82h-527v87z" />
    <glyph glyph-name="minus" unicode="&#x2212;" horiz-adv-x="604" 
d="M55 297h494v-79h-494v79z" />
    <glyph glyph-name="uni2215" unicode="&#x2215;" horiz-adv-x="375" 
d="M278 700h90l-270 -700h-90z" />
    <glyph glyph-name="uni2219" unicode="&#x2219;" horiz-adv-x="540" 
d="M116.5 286.5q-26.5 26.5 -26.5 63.5q0 38 26.5 64t63.5 26q38 0 64 -26t26 -64q0 -37 -26 -63.5t-64 -26.5q-37 0 -63.5 26.5z" />
    <glyph glyph-name="radical" unicode="&#x221a;" horiz-adv-x="719" 
d="M53 500h89l132 -400l128 600h274v-77h-210l-139 -623h-106z" />
    <glyph glyph-name="infinity" unicode="&#x221e;" horiz-adv-x="864" 
d="M146.5 193.5q-41.5 23.5 -65 67t-23.5 99.5q0 55 23.5 98.5t65 67.5t92.5 24q46 0 80 -16.5t59.5 -43t55.5 -68.5q42 64 83.5 96t106.5 32q51 0 92.5 -24t65.5 -67.5t24 -98.5q0 -56 -24 -99.5t-65.5 -67t-92.5 -23.5q-66 0 -107.5 30.5t-82.5 92.5q-44 -63 -86 -93
t-109 -30q-51 0 -92.5 23.5zM316 273.5q30 28.5 65 86.5q-35 58 -65 86.5t-72 28.5h-5q-44 0 -71.5 -31.5t-27.5 -83.5q0 -54 27 -84.5t72 -30.5h5q42 0 72 28.5zM695.5 275.5q27.5 30.5 27.5 84.5t-27.5 84.5t-74.5 30.5h-5q-40 0 -69 -28.5t-64 -86.5q37 -60 65 -87.5
t68 -27.5h5q47 0 74.5 30.5z" />
    <glyph glyph-name="integral" unicode="&#x222b;" horiz-adv-x="448" 
d="M37 -22h42q55 0 77.5 25t22.5 82v425q0 190 185 190h47v-78h-42q-55 0 -77.5 -25t-22.5 -82v-425q0 -190 -185 -190h-47v78z" />
    <glyph glyph-name="approxequal" unicode="&#x2248;" horiz-adv-x="611" 
d="M363 288.5q-33 10.5 -77 27.5q-67 26 -86 26q-27 0 -40 -16t-13 -38h-77v25q0 50 32.5 82.5t87.5 32.5q25 0 57.5 -10t78.5 -28q26 -10 49.5 -18t35.5 -8q27 0 39.5 13.5t12.5 35.5h77v-25q0 -50 -31 -80t-89 -30q-24 0 -57 10.5zM363 98.5q-33 10.5 -77 27.5
q-67 26 -86 26q-27 0 -40 -16t-13 -38h-77v25q0 50 32.5 82.5t87.5 32.5q25 0 57.5 -10t78.5 -28q26 -10 49.5 -18t35.5 -8q27 0 39.5 13.5t12.5 35.5h77v-25q0 -50 -31 -80t-89 -30q-24 0 -57 10.5z" />
    <glyph glyph-name="notequal" unicode="&#x2260;" horiz-adv-x="616" 
d="M226 128h-165v78h189l32 102h-221v79h245l35 113h85l-35 -113h164v-79h-188l-32 -102h220v-78h-244l-35 -113h-85z" />
    <glyph glyph-name="lessequal" unicode="&#x2264;" horiz-adv-x="623" 
d="M62 274v92l494 144v-84l-378 -104l378 -103v-89zM62 97h494v-79h-494v79z" />
    <glyph glyph-name="greaterequal" unicode="&#x2265;" horiz-adv-x="623" 
d="M66 214l378 104l-378 103v89l494 -144v-92l-494 -144v84zM66 97h494v-79h-494v79z" />
    <glyph glyph-name="angleleft" unicode="&#x2329;" horiz-adv-x="360" 
d="M28 350l228 435h90l-226 -433l226 -437h-90z" />
    <glyph glyph-name="angleright" unicode="&#x232a;" horiz-adv-x="360" 
d="M332 350l-228 -435h-90l226 433l-226 437h90z" />
    <glyph glyph-name="uni2460" unicode="&#x2460;" horiz-adv-x="895" 
d="M252.5 12.5q-89.5 52.5 -142 142.5t-52.5 195q0 106 52.5 195.5t142 142t195.5 52.5t195.5 -52.5t142 -142t52.5 -195.5q0 -105 -52.5 -195t-142 -142.5t-195.5 -52.5t-195.5 52.5zM609 70.5q74 43.5 117.5 117.5t43.5 162t-43.5 162t-117.5 117.5t-161 43.5
q-88 0 -162 -43.5t-117.5 -117.5t-43.5 -162t43.5 -162t117.5 -117.5t162 -43.5q87 0 161 43.5zM420 414h-85v47q44 2 68 25t34 65h50v-395h-67v258z" />
    <glyph glyph-name="uni2461" unicode="&#x2461;" horiz-adv-x="895" 
d="M252.5 12.5q-89.5 52.5 -142 142.5t-52.5 195q0 106 52.5 195.5t142 142t195.5 52.5t195.5 -52.5t142 -142t52.5 -195.5q0 -105 -52.5 -195t-142 -142.5t-195.5 -52.5t-195.5 52.5zM609 70.5q74 43.5 117.5 117.5t43.5 162t-43.5 162t-117.5 117.5t-161 43.5
q-88 0 -162 -43.5t-117.5 -117.5t-43.5 -162t43.5 -162t117.5 -117.5t162 -43.5q87 0 161 43.5zM312 232l132 112q37 32 53 52.5t16 44.5t-17.5 38.5t-43.5 14.5h-5q-25 0 -44 -16.5t-20 -44.5h-70q1 55 41 88.5t97 33.5t94.5 -31t37.5 -84q0 -40 -22 -68.5t-67 -65.5
l-107 -90h200v-61h-275v77z" />
    <glyph glyph-name="uni2462" unicode="&#x2462;" horiz-adv-x="895" 
d="M252.5 12.5q-89.5 52.5 -142 142.5t-52.5 195q0 106 52.5 195.5t142 142t195.5 52.5t195.5 -52.5t142 -142t52.5 -195.5q0 -105 -52.5 -195t-142 -142.5t-195.5 -52.5t-195.5 52.5zM609 70.5q74 43.5 117.5 117.5t43.5 162t-43.5 162t-117.5 117.5t-161 43.5
q-88 0 -162 -43.5t-117.5 -117.5t-43.5 -162t43.5 -162t117.5 -117.5t162 -43.5q87 0 161 43.5zM347 181q-40 31 -41 86h70q1 -26 20.5 -42t47.5 -16h5q30 0 49.5 16t19.5 44q0 26 -18 41t-46 15h-39v60h39q26 0 43.5 15t17.5 40q0 26 -18 41t-46 15h-5q-27 0 -44 -15
t-19 -39h-70q1 53 40 83t97 30q57 0 95.5 -28.5t38.5 -80.5q0 -31 -16.5 -55t-44.5 -35q27 -10 46.5 -34.5t19.5 -58.5q0 -54 -42 -83.5t-102 -29.5q-58 0 -98 31z" />
    <glyph glyph-name="uni2463" unicode="&#x2463;" horiz-adv-x="895" 
d="M252.5 12.5q-89.5 52.5 -142 142.5t-52.5 195q0 106 52.5 195.5t142 142t195.5 52.5t195.5 -52.5t142 -142t52.5 -195.5q0 -105 -52.5 -195t-142 -142.5t-195.5 -52.5t-195.5 52.5zM457 246h-186v61l180 243h73v-246h55v-58h-55v-91h-67v91zM457 304v164l-119 -164h119z
M609 70.5q74 43.5 117.5 117.5t43.5 162t-43.5 162t-117.5 117.5t-161 43.5q-88 0 -162 -43.5t-117.5 -117.5t-43.5 -162t43.5 -162t117.5 -117.5t162 -43.5q87 0 161 43.5z" />
    <glyph glyph-name="uni2464" unicode="&#x2464;" horiz-adv-x="895" 
d="M252.5 12.5q-89.5 52.5 -142 142.5t-52.5 195q0 106 52.5 195.5t142 142t195.5 52.5t195.5 -52.5t142 -142t52.5 -195.5q0 -105 -52.5 -195t-142 -142.5t-195.5 -52.5t-195.5 52.5zM609 70.5q74 43.5 117.5 117.5t43.5 162t-43.5 162t-117.5 117.5t-161 43.5
q-88 0 -162 -43.5t-117.5 -117.5t-43.5 -162t43.5 -162t117.5 -117.5t162 -43.5q87 0 161 43.5zM343 180q-39 30 -43 83h71q4 -26 22.5 -40t46.5 -14h4q30 0 50 20.5t20 53.5q0 30 -20 48.5t-49 18.5h-3q-38 0 -64 -34h-69l33 234h228v-59h-176l-15 -111q30 28 76 28
q56 0 92.5 -34.5t36.5 -88.5q0 -62 -40.5 -98.5t-102.5 -36.5q-59 0 -98 30z" />
    <glyph glyph-name="uni2465" unicode="&#x2465;" horiz-adv-x="895" 
d="M252.5 12.5q-89.5 52.5 -142 142.5t-52.5 195q0 106 52.5 195.5t142 142t195.5 52.5t195.5 -52.5t142 -142t52.5 -195.5q0 -105 -52.5 -195t-142 -142.5t-195.5 -52.5t-195.5 52.5zM609 70.5q74 43.5 117.5 117.5t43.5 162t-43.5 162t-117.5 117.5t-161 43.5
q-88 0 -162 -43.5t-117.5 -117.5t-43.5 -162t43.5 -162t117.5 -117.5t162 -43.5q87 0 161 43.5zM329.5 201q-40.5 51 -40.5 141q0 98 43 155.5t117 57.5q59 0 94.5 -33t39.5 -78h-69q-5 23 -22.5 37t-42.5 14h-6q-39 0 -62.5 -35t-27.5 -96q12 25 39.5 40.5t62.5 15.5
q55 0 93.5 -36t38.5 -95t-40 -99t-108 -40q-69 0 -109.5 51zM496.5 230.5q21.5 21.5 21.5 54.5q0 32 -21 54t-53 22h-3q-31 0 -53 -21.5t-22 -54.5t21 -54.5t52 -21.5h3q33 0 54.5 21.5z" />
    <glyph glyph-name="uni2466" unicode="&#x2466;" horiz-adv-x="895" 
d="M252.5 12.5q-89.5 52.5 -142 142.5t-52.5 195q0 106 52.5 195.5t142 142t195.5 52.5t195.5 -52.5t142 -142t52.5 -195.5q0 -105 -52.5 -195t-142 -142.5t-195.5 -52.5t-195.5 52.5zM609 70.5q74 43.5 117.5 117.5t43.5 162t-43.5 162t-117.5 117.5t-161 43.5
q-88 0 -162 -43.5t-117.5 -117.5t-43.5 -162t43.5 -162t117.5 -117.5t162 -43.5q87 0 161 43.5zM424 376.5q41 72.5 100 114.5h-207v59h273v-62q-58 -49 -97.5 -119.5t-39.5 -177.5v-36h-70v36q0 113 41 185.5z" />
    <glyph glyph-name="uni2467" unicode="&#x2467;" horiz-adv-x="895" 
d="M252.5 12.5q-89.5 52.5 -142 142t-52.5 195.5q0 105 52.5 195t142 142.5t195.5 52.5t195.5 -52.5t142 -142.5t52.5 -195q0 -106 -52.5 -195.5t-142 -142t-195.5 -52.5t-195.5 52.5zM609 70.5q74 43.5 117.5 117.5t43.5 162t-43.5 162t-117.5 117.5t-161 43.5
q-88 0 -162 -43.5t-117.5 -117.5t-43.5 -162t43.5 -162t117.5 -117.5t162 -43.5q87 0 161 43.5zM344.5 179.5q-40.5 29.5 -40.5 80.5q0 34 20.5 59.5t52.5 36.5q-29 12 -47 36.5t-18 56.5q0 51 40 78.5t97 27.5t96.5 -27.5t39.5 -78.5q0 -33 -19 -57t-50 -36
q35 -11 56 -36.5t21 -59.5q0 -51 -40 -80.5t-104 -29.5t-104.5 29.5zM503 223.5q21 14.5 21 41.5q0 26 -21.5 41t-51.5 15h-5q-30 0 -51.5 -15t-21.5 -41q0 -27 21 -41.5t52 -14.5h5q31 0 52 14.5zM497 399q19 16 19 41q0 26 -18.5 41t-46.5 15h-5q-27 0 -46 -15t-19 -41
q0 -25 19 -41t46 -16h5q27 0 46 16z" />
    <glyph glyph-name="uni2468" unicode="&#x2468;" horiz-adv-x="895" 
d="M252.5 12.5q-89.5 52.5 -142 142.5t-52.5 195q0 106 52.5 195.5t142 142t195.5 52.5t195.5 -52.5t142 -142t52.5 -195.5q0 -105 -52.5 -195t-142 -142.5t-195.5 -52.5t-195.5 52.5zM609 70.5q74 43.5 117.5 117.5t43.5 162t-43.5 162t-117.5 117.5t-161 43.5
q-88 0 -162 -43.5t-117.5 -117.5t-43.5 -162t43.5 -162t117.5 -117.5t162 -43.5q87 0 161 43.5zM346 183.5q-34 33.5 -37 77.5h69q5 -23 22 -37t42 -14h6q38 0 61 34.5t28 96.5q-12 -25 -41 -40.5t-64 -15.5q-54 0 -91.5 36t-37.5 95t39.5 99t106.5 40q70 0 111 -51t41 -140
q0 -99 -42 -156.5t-117 -57.5q-62 0 -96 33.5zM502 365.5q22 21.5 22 54.5t-21 54.5t-52 21.5h-3q-33 0 -54.5 -21.5t-21.5 -54.5q0 -32 21 -54t53 -22h3q31 0 53 21.5z" />
    <glyph glyph-name="uni24EA" unicode="&#x24ea;" horiz-adv-x="895" 
d="M252.5 12.5q-89.5 52.5 -142 142.5t-52.5 195q0 106 52.5 195.5t142 142t195.5 52.5t195.5 -52.5t142 -142t52.5 -195.5q0 -105 -52.5 -195t-142 -142.5t-195.5 -52.5t-195.5 52.5zM609 70.5q74 43.5 117.5 117.5t43.5 162t-43.5 162t-117.5 117.5t-161 43.5
q-88 0 -162 -43.5t-117.5 -117.5t-43.5 -162t43.5 -162t117.5 -117.5t162 -43.5q87 0 161 43.5zM328.5 204.5q-44.5 55.5 -44.5 147.5t44.5 147t121.5 55t122 -55t45 -147t-45 -147.5t-122 -55.5t-121.5 55.5zM522 251q25 43 25 101q0 57 -25 100t-70 43h-4
q-45 0 -69.5 -42.5t-24.5 -100.5t24.5 -101t69.5 -43h4q45 0 70 43z" />
    <glyph glyph-name="uni24FF" unicode="&#x24ff;" horiz-adv-x="895" 
d="M253.5 13q-89.5 53 -142.5 142.5t-53 194.5q0 106 52.5 195.5t142.5 142t195 52.5q106 0 195.5 -52.5t142 -142t52.5 -195.5q0 -105 -52.5 -195t-142 -142.5t-195.5 -52.5q-105 0 -194.5 53zM572 204.5q45 55.5 45 147.5t-45 147t-122 55t-121.5 -55t-44.5 -147
t44.5 -147.5t121.5 -55.5t122 55.5zM378.5 251q-24.5 43 -24.5 101t24.5 100.5t69.5 42.5h4q45 0 70 -43t25 -100q0 -58 -25 -101t-70 -43h-4q-45 0 -69.5 43z" />
    <glyph glyph-name="triagup" unicode="&#x25b2;" horiz-adv-x="879" 
d="M439 720l405 -720h-810z" />
    <glyph glyph-name="lozenge" unicode="&#x25ca;" horiz-adv-x="658" 
d="M50 350l236 350h90l232 -350l-232 -350h-90zM513 350l-182 272l-181 -272l181 -267z" />
    <glyph glyph-name="uni2776" unicode="&#x2776;" horiz-adv-x="895" 
d="M252.5 12.5q-89.5 52.5 -142 142.5t-52.5 195q0 106 52.5 195.5t142 142t195.5 52.5t195.5 -52.5t142 -142t52.5 -195.5q0 -105 -52.5 -195t-142 -142.5t-195.5 -52.5t-195.5 52.5zM487 156v395h-50q-10 -42 -34 -65t-68 -25v-47h85v-258h67z" />
    <glyph glyph-name="uni2777" unicode="&#x2777;" horiz-adv-x="895" 
d="M253.5 13q-89.5 53 -142.5 142.5t-53 194.5q0 106 52.5 195.5t142.5 142t195 52.5q106 0 195.5 -52.5t142 -142t52.5 -195.5q0 -105 -52.5 -195t-142 -142.5t-195.5 -52.5q-105 0 -194.5 53zM587 155v61h-200l104 89q46 39 69 68t23 67q0 53 -37.5 84t-94.5 31t-97 -33.5
t-41 -88.5h70q1 28 20 44.5t44 16.5h5q26 0 43.5 -14.5t17.5 -37.5t-17 -44t-55 -54l-129 -112v-77h275z" />
    <glyph glyph-name="uni2778" unicode="&#x2778;" horiz-adv-x="895" 
d="M252.5 12.5q-89.5 52.5 -142 142.5t-52.5 195q0 106 52.5 195.5t142 142t195.5 52.5t195.5 -52.5t142 -142t52.5 -195.5q0 -105 -52.5 -195t-142 -142.5t-195.5 -52.5t-195.5 52.5zM547 179.5q42 29.5 42 83.5q0 34 -19.5 58.5t-46.5 34.5q28 11 44.5 35t16.5 55
q0 52 -38.5 80.5t-95.5 28.5q-58 0 -97 -30t-40 -83h70q2 24 19 39t44 15h5q28 0 46 -15t18 -41q0 -25 -17.5 -40t-43.5 -15h-39v-60h39q28 0 46 -15t18 -41q0 -28 -19.5 -44t-49.5 -16h-5q-28 0 -47.5 16t-20.5 42h-70q1 -55 41 -86t98 -31q60 0 102 29.5z" />
    <glyph glyph-name="uni2779" unicode="&#x2779;" horiz-adv-x="895" 
d="M253.5 13q-89.5 53 -142.5 142.5t-53 194.5q0 106 52.5 195.5t142.5 142t195 52.5q106 0 195.5 -52.5t142 -142t52.5 -195.5q0 -105 -52.5 -195t-142 -142.5t-195.5 -52.5q-105 0 -194.5 53zM524 155v91h55v58h-55v246h-73l-180 -243v-61h186v-91h67zM457 468v-164h-119z
" />
    <glyph glyph-name="uni277A" unicode="&#x277a;" horiz-adv-x="895" 
d="M252.5 12.5q-89.5 52.5 -142 142.5t-52.5 195q0 106 52.5 195.5t142 142t195.5 52.5t195.5 -52.5t142 -142t52.5 -195.5q0 -105 -52.5 -195t-142 -142.5t-195.5 -52.5t-195.5 52.5zM543.5 186.5q40.5 36.5 40.5 98.5q0 54 -36.5 88.5t-92.5 34.5q-46 0 -76 -28l15 111
h176v59h-228l-33 -234h69q26 34 64 34h3q29 0 49 -18.5t20 -48.5q0 -33 -20 -53.5t-50 -20.5h-4q-28 0 -46.5 14t-22.5 40h-71q4 -53 43 -83t98 -30q62 0 102.5 36.5z" />
    <glyph glyph-name="uni277B" unicode="&#x277b;" horiz-adv-x="895" 
d="M252.5 12.5q-89.5 52.5 -142 142.5t-52.5 195q0 106 52.5 195.5t142 142t195.5 52.5t195.5 -52.5t142 -142t52.5 -195.5q0 -105 -52.5 -195t-142 -142.5t-195.5 -52.5t-195.5 52.5zM547 190q40 40 40 99t-38.5 95t-95.5 36q-34 0 -61 -15.5t-39 -40.5q4 61 27.5 96
t62.5 35h6q25 0 42.5 -14t22.5 -37h69q-4 45 -39.5 78t-94.5 33q-74 0 -117 -57.5t-43 -155.5q0 -90 40.5 -141t109.5 -51q68 0 108 40zM387 230.5q-21 21.5 -21 54.5t22 54.5t53 21.5h3q32 0 53 -22t21 -54q0 -33 -21.5 -54.5t-54.5 -21.5h-3q-31 0 -52 21.5z" />
    <glyph glyph-name="uni277C" unicode="&#x277c;" horiz-adv-x="895" 
d="M253.5 13q-89.5 53 -142.5 142.5t-53 194.5q0 106 52.5 195.5t142.5 142t195 52.5q106 0 195.5 -52.5t142 -142t52.5 -195.5q0 -105 -52.5 -195t-142 -142.5t-195.5 -52.5q-105 0 -194.5 53zM453 155v36q0 107 39.5 177.5t97.5 119.5v62h-273v-59h207
q-59 -42 -100 -114.5t-41 -185.5v-36h70z" />
    <glyph glyph-name="uni277D" unicode="&#x277d;" horiz-adv-x="895" 
d="M252.5 12.5q-89.5 52.5 -142 142t-52.5 195.5q0 105 52.5 195t142 142.5t195.5 52.5t195.5 -52.5t142 -142.5t52.5 -195q0 -106 -52.5 -195.5t-142 -142t-195.5 -52.5t-195.5 52.5zM553 179.5q40 29.5 40 80.5q0 34 -21 59.5t-56 36.5q31 12 50 36t19 57q0 51 -39.5 78.5
t-96.5 27.5t-97 -27.5t-40 -78.5q0 -32 18 -56.5t47 -36.5q-32 -11 -52.5 -36.5t-20.5 -59.5q0 -51 40.5 -80.5t104.5 -29.5t104 29.5zM394 223.5q-21 14.5 -21 41.5q0 26 21.5 41t51.5 15h5q30 0 51.5 -15t21.5 -41q0 -27 -21 -41.5t-52 -14.5h-5q-31 0 -52 14.5zM400 399
q-19 16 -19 41q0 26 19 41t46 15h5q28 0 46.5 -15t18.5 -41q0 -25 -19 -41t-46 -16h-5q-27 0 -46 16z" />
    <glyph glyph-name="uni277E" unicode="&#x277e;" horiz-adv-x="895" 
d="M252.5 12.5q-89.5 52.5 -142 142.5t-52.5 195q0 106 52.5 195.5t142 142t195.5 52.5t195.5 -52.5t142 -142t52.5 -195.5q0 -105 -52.5 -195t-142 -142.5t-195.5 -52.5t-195.5 52.5zM559 207.5q42 57.5 42 156.5q0 89 -41 140t-111 51q-67 0 -106.5 -40t-39.5 -99
t37.5 -95t91.5 -36q35 0 64 15.5t41 40.5q-5 -62 -28 -96.5t-61 -34.5h-6q-25 0 -42 14t-22 37h-69q3 -44 37 -77.5t96 -33.5q75 0 117 57.5zM393 366q-21 22 -21 54q0 33 21.5 54.5t54.5 21.5h3q31 0 52 -21.5t21 -54.5t-22 -54.5t-53 -21.5h-3q-32 0 -53 22z" />
    <glyph glyph-name="uni300A" unicode="&#x300a;" horiz-adv-x="556" 
d="M224 350l228 435h90l-226 -433l226 -437h-90zM28 350l228 435h90l-226 -433l226 -437h-90z" />
    <glyph glyph-name="uni300B" unicode="&#x300b;" horiz-adv-x="556" 
d="M332 350l-228 -435h-90l226 433l-226 437h90zM528 350l-228 -435h-90l226 433l-226 437h90z" />
    <glyph glyph-name="uni300C" unicode="&#x300c;" horiz-adv-x="307" 
d="M71 845h220v-75h-137v-382h-83v457z" />
    <glyph glyph-name="uni300D" unicode="&#x300d;" horiz-adv-x="314" 
d="M240 -145h-220v75h137v382h83v-457z" />
    <glyph glyph-name="uni300E" unicode="&#x300e;" horiz-adv-x="443" 
d="M73 845h339v-176h-137v-347h-202v523zM205 383v347h137v55h-200v-402h63z" />
    <glyph glyph-name="uni300F" unicode="&#x300f;" horiz-adv-x="453" 
d="M373 -145h-339v176h137v347h202v-523zM241 317v-347h-137v-55h200v402h-63z" />
    <glyph glyph-name="uni3010" unicode="&#x3010;" horiz-adv-x="369" 
d="M92 845h277q-96 -103 -144 -231.5t-48 -262.5q0 -133 47.5 -262t144.5 -234h-277v990z" />
    <glyph glyph-name="uni3011" unicode="&#x3011;" horiz-adv-x="368" 
d="M276 -144h-277q96 103 144 231.5t48 262.5q0 133 -47.5 262t-144.5 234h277v-990z" />
    <glyph glyph-name="uni3014" unicode="&#x3014;" horiz-adv-x="314" 
d="M69 17v666l144 162h101l-160 -182v-625l161 -183h-102z" />
    <glyph glyph-name="uni3015" unicode="&#x3015;" horiz-adv-x="314" 
d="M245 684v-666l-144 -162h-101l160 182v625l-161 183h102z" />
    <glyph glyph-name="uniE000" unicode="&#xe000;" horiz-adv-x="567" 
d="M84 550h400v-400h-400v400zM409 225v250h-250v-250h250z" />
    <glyph glyph-name="uniE001" unicode="&#xe001;" horiz-adv-x="733" 
d="M92 625h550v-550h-550v550zM567 150v400h-400v-400h400z" />
    <glyph glyph-name="uniE002" unicode="&#xe002;" horiz-adv-x="883" 
d="M92 700h700v-700h-700v700zM717 75v550h-550v-550h550z" />
    <glyph glyph-name="uniE003" unicode="&#xe003;" horiz-adv-x="567" 
d="M84 550h400v-400h-400v400zM409 225v250h-250v-250h250zM234 400h100v-100h-100v100z" />
    <glyph glyph-name="uniE004" unicode="&#xe004;" horiz-adv-x="733" 
d="M92 625h550v-550h-550v550zM567 150v400h-400v-400h400zM242 475h250v-250h-250v250zM417 300v100h-100v-100h100z" />
    <glyph glyph-name="uniE005" unicode="&#xe005;" horiz-adv-x="883" 
d="M92 700h700v-700h-700v700zM717 75v550h-550v-550h550zM242 550h400v-400h-400v400zM567 225v250h-250v-250h250zM392 400h100v-100h-100v100z" />
    <glyph glyph-name="uniE006" unicode="&#xe006;" horiz-adv-x="567" 
d="M84 550h400v-400h-400v400z" />
    <glyph glyph-name="uniE007" unicode="&#xe007;" horiz-adv-x="733" 
d="M92 625h550v-550h-550v550z" />
    <glyph glyph-name="uniE008" unicode="&#xe008;" horiz-adv-x="883" 
d="M92 700h700v-700h-700v700z" />
    <glyph glyph-name="uniE00A" unicode="&#xe00a;" horiz-adv-x="366" 
d="M142.5 -110.5q-37.5 34.5 -37.5 87.5q0 26 8 46.5t28 41.5q-46 10 -63.5 39t-17.5 75v342q0 46 17.5 75t63.5 39q-20 21 -28 41.5t-8 46.5q0 53 37.5 87.5t92.5 34.5h100v-75h-90q-24 0 -39.5 -15t-15.5 -38v-8q0 -23 15.5 -37.5t39.5 -14.5h25v-75h-55q-34 0 -52 -19
t-18 -56v-314q0 -37 18 -56t52 -19h55v-75h-25q-24 0 -39.5 -14.5t-15.5 -37.5v-8q0 -23 15.5 -38t39.5 -15h90v-75h-100q-55 0 -92.5 34.5z" />
    <glyph glyph-name="uniE00B" unicode="&#xe00b;" horiz-adv-x="366" 
d="M223.5 1299.5q37.5 -34.5 37.5 -87.5q0 -26 -8 -46.5t-28 -41.5q46 -10 63.5 -39t17.5 -75v-342q0 -46 -17.5 -75t-63.5 -39q20 -21 28 -41.5t8 -46.5q0 -53 -37.5 -87.5t-92.5 -34.5h-100v75h90q24 0 39.5 15t15.5 38v8q0 23 -15.5 37.5t-39.5 14.5h-25v75h55
q34 0 52 19t18 56v314q0 37 -18 56t-52 19h-55v75h25q24 0 39.5 14.5t15.5 37.5v8q0 23 -15.5 38t-39.5 15h-90v75h100q55 0 92.5 -34.5z" />
    <glyph glyph-name="uniE010" unicode="&#xe010;" horiz-adv-x="589" 
d="M175 142.5q-55 32.5 -87.5 87.5t-32.5 120t32.5 120t87.5 87.5t120 32.5t120 -32.5t87.5 -87.5t32.5 -120t-32.5 -120t-87.5 -87.5t-120 -32.5t-120 32.5zM378 207q38 22 60 60t22 83t-22 83t-60 60t-83 22t-83 -22t-60 -60t-22 -83t22 -83t60 -60t83 -22t83 22z" />
    <glyph glyph-name="uniE011" unicode="&#xe011;" horiz-adv-x="730" 
d="M207.5 77.5q-72.5 42.5 -115 115t-42.5 157.5t42.5 157.5t115 115t157.5 42.5t157.5 -42.5t115 -115t42.5 -157.5t-42.5 -157.5t-115 -115t-157.5 -42.5t-157.5 42.5zM485 142.5q55 32.5 87.5 87.5t32.5 120t-32.5 120t-87.5 87.5t-120 32.5t-120 -32.5t-87.5 -87.5
t-32.5 -120t32.5 -120t87.5 -87.5t120 -32.5t120 32.5z" />
    <glyph glyph-name="uniE012" unicode="&#xe012;" horiz-adv-x="872" 
d="M241.5 13q-89.5 53 -142.5 142.5t-53 194.5q0 106 52.5 195.5t142.5 142t195 52.5q106 0 195.5 -52.5t142 -142t52.5 -195.5q0 -105 -52.5 -195t-142 -142.5t-195.5 -52.5q-105 0 -194.5 53zM593.5 77.5q72.5 42.5 115 115t42.5 157.5t-42.5 157.5t-115 115t-157.5 42.5
t-157.5 -42.5t-115 -115t-42.5 -157.5t42.5 -157.5t115 -115t157.5 -42.5t157.5 42.5z" />
    <glyph glyph-name="uniE013" unicode="&#xe013;" horiz-adv-x="589" 
d="M175 142.5q-55 32.5 -87.5 87.5t-32.5 120t32.5 120t87.5 87.5t120 32.5t120 -32.5t87.5 -87.5t32.5 -120t-32.5 -120t-87.5 -87.5t-120 -32.5t-120 32.5zM378 207q38 22 60 60t22 83t-22 83t-60 60t-83 22t-83 -22t-60 -60t-22 -83t22 -83t60 -60t83 -22t83 22z
M231.5 286.5q-26.5 26.5 -26.5 63.5t26.5 63.5t63.5 26.5q38 0 64 -26t26 -64q0 -37 -26.5 -63.5t-63.5 -26.5t-63.5 26.5z" />
    <glyph glyph-name="uniE014" unicode="&#xe014;" horiz-adv-x="730" 
d="M207.5 77.5q-72.5 42.5 -115 115t-42.5 157.5t42.5 157.5t115 115t157.5 42.5t157.5 -42.5t115 -115t42.5 -157.5t-42.5 -157.5t-115 -115t-157.5 -42.5t-157.5 42.5zM485 142.5q55 32.5 87.5 87.5t32.5 120t-32.5 120t-87.5 87.5t-120 32.5t-120 -32.5t-87.5 -87.5
t-32.5 -120t32.5 -120t87.5 -87.5t120 -32.5t120 32.5zM282 207q-38 22 -60 60t-22 83t22 83t60 60t83 22t83 -22t60 -60t22 -83t-22 -83t-60 -60t-83 -22t-83 22zM428.5 286.5q26.5 26.5 26.5 63.5q0 38 -26 64t-64 26q-37 0 -63.5 -26.5t-26.5 -63.5t26.5 -63.5
t63.5 -26.5t63.5 26.5z" />
    <glyph glyph-name="uniE015" unicode="&#xe015;" horiz-adv-x="872" 
d="M241.5 13q-89.5 53 -142.5 142.5t-53 194.5q0 106 52.5 195.5t142.5 142t195 52.5q106 0 195.5 -52.5t142 -142t52.5 -195.5q0 -105 -52.5 -195t-142 -142.5t-195.5 -52.5q-105 0 -194.5 53zM593.5 77.5q72.5 42.5 115 115t42.5 157.5t-42.5 157.5t-115 115t-157.5 42.5
t-157.5 -42.5t-115 -115t-42.5 -157.5t42.5 -157.5t115 -115t157.5 -42.5t157.5 42.5zM316 142.5q-55 32.5 -87.5 87.5t-32.5 120t32.5 120t87.5 87.5t120 32.5t120 -32.5t87.5 -87.5t32.5 -120t-32.5 -120t-87.5 -87.5t-120 -32.5t-120 32.5zM519 207q38 22 60 60t22 83
t-22 83t-60 60t-83 22t-83 -22t-60 -60t-22 -83t22 -83t60 -60t83 -22t83 22zM372.5 286.5q-26.5 26.5 -26.5 63.5t26.5 63.5t63.5 26.5q38 0 64 -26t26 -64q0 -37 -26.5 -63.5t-63.5 -26.5t-63.5 26.5z" />
    <glyph glyph-name="uniE016" unicode="&#xe016;" horiz-adv-x="589" 
d="M175 142.5q-55 32.5 -87.5 87.5t-32.5 120t32.5 120t87.5 87.5t120 32.5t120 -32.5t87.5 -87.5t32.5 -120t-32.5 -120t-87.5 -87.5t-120 -32.5t-120 32.5z" />
    <glyph glyph-name="uniE017" unicode="&#xe017;" horiz-adv-x="700" 
d="M200 90.5q-69 40.5 -109.5 109.5t-40.5 150t40.5 150t109.5 109.5t150 40.5t150 -40.5t109.5 -109.5t40.5 -150t-40.5 -150t-109.5 -109.5t-150 -40.5t-150 40.5z" />
    <glyph glyph-name="uniE018" unicode="&#xe018;" horiz-adv-x="815" 
d="M228 38.5q-83 48.5 -131.5 131.5t-48.5 180t48.5 180t131.5 131.5t180 48.5t180 -48.5t131.5 -131.5t48.5 -180t-48.5 -180t-131.5 -131.5t-180 -48.5t-180 48.5z" />
    <glyph glyph-name="uniF8FF" unicode="&#xf8ff;" horiz-adv-x="611" 
d="M175 24q-60 35 -95 95t-35 131t35 131t95 95t131 35t131 -35t95 -95t35 -131t-35 -131t-95 -95t-131 -35t-131 35z" />
    <glyph glyph-name="I_S_B_N" horiz-adv-x="2230" 
d="M92 700h90v-618h416q76 0 114 28.5t38 79.5q0 49 -34 76t-96 40l-100 21q-82 17 -127.5 58t-45.5 125q0 57 30.5 100t86.5 66.5t129 23.5h676q54 0 99 -22.5t71 -64t26 -97.5q0 -58 -32 -101t-81 -60q56 -8 92 -52.5t36 -111.5q0 -57 -27.5 -100.5t-74 -67t-102.5 -23.5
h-309v396h288q55 0 87.5 29.5t32.5 81.5t-32.5 81.5t-87.5 29.5h-667q-71 0 -111 -27t-40 -76q0 -47 27.5 -70t77.5 -33l100 -20q86 -17 142 -63.5t56 -128.5q0 -91 -64.5 -145.5t-192.5 -54.5h-491v700zM1354 112.5q36 30.5 36 85.5t-36 85.5t-96 30.5h-201v-232h201
q60 0 96 30.5zM1689.5 639.5q67.5 70.5 193.5 70.5q130 0 196 -70t66 -190v-450h-90v440q0 90 -42.5 139t-124.5 49h-10q-81 0 -123.5 -49t-42.5 -139v-440h-90v450q0 119 67.5 189.5z" />
    <glyph glyph-name="i.loclTRK" horiz-adv-x="240" 
d="M78 500h85v-500h-85v500zM81.5 609q-16.5 16 -16.5 39t16.5 39.5t39.5 16.5t39 -16.5t16 -39.5q0 -22 -16 -38.5t-39 -16.5t-39.5 16z" />
    <glyph glyph-name="a.sups" horiz-adv-x="327" 
d="M55 433q-27 24 -27 62q0 42 30 64.5t84 25.5l74 6v8q0 24 -16 37.5t-42 13.5h-2q-23 0 -38 -10t-18 -26h-66q5 40 38.5 65.5t85.5 25.5q59 0 91 -30.5t32 -80.5v-116q0 -36 4 -63h-63q-2 11 -2 37q-14 -18 -39 -30.5t-55 -12.5q-44 0 -71 24zM193.5 482q22.5 19 22.5 52
v7l-68 -5q-27 -1 -41.5 -11t-14.5 -27q0 -15 12.5 -25t34.5 -10h2q30 0 52.5 19z" />
    <glyph glyph-name="b.sups" horiz-adv-x="359" 
d="M148.5 422.5q-23.5 12.5 -33.5 29.5v-37h-67v395h67v-147q11 17 33.5 28.5t51.5 11.5q56 0 92.5 -40.5t36.5 -106.5q0 -65 -36 -105.5t-91 -40.5q-30 0 -53.5 12.5zM242 490q20 25 20 67q0 41 -20 66t-52 25h-2q-32 0 -53.5 -25.5t-21.5 -65.5q0 -41 21.5 -66.5
t53.5 -25.5h2q32 0 52 25z" />
    <glyph glyph-name="c.sups" horiz-adv-x="324" 
d="M68.5 452.5q-38.5 42.5 -38.5 106.5q0 63 38.5 104.5t99.5 41.5q53 0 88.5 -29t40.5 -76h-68q-4 21 -20.5 35.5t-40.5 14.5h-1q-33 0 -52 -26t-19 -65q0 -41 19 -67t52 -26h1q24 0 40.5 15t20.5 36h68q-7 -48 -41.5 -77.5t-87.5 -29.5q-61 0 -99.5 42.5z" />
    <glyph glyph-name="d.sups" horiz-adv-x="360" 
d="M65.5 450q-35.5 40 -35.5 107q0 66 37 106t93 40q29 0 51.5 -11t33.5 -29v147h67v-394h-67v36q-10 -18 -33.5 -30t-54.5 -12q-56 0 -91.5 40zM225 491q21 25 21 66q0 40 -21.5 65.5t-52.5 25.5h-2q-32 0 -52.5 -25t-20.5 -66t20.5 -66t52.5 -25h2q32 0 53 25z" />
    <glyph glyph-name="e.sups" horiz-adv-x="328" 
d="M69 450q-39 41 -39 107t38.5 107t97.5 41q53 0 89 -32.5t41 -88.5q2 -13 2 -45h-202q2 -33 22 -53.5t48 -20.5h3q21 0 37 10.5t21 28.5h67q-10 -43 -44 -69t-84 -26q-58 0 -97 41zM210 634q-17 16 -43 16h-3q-25 0 -43 -15.5t-23 -43.5h132q-3 27 -20 43z" />
    <glyph glyph-name="f.sups" horiz-adv-x="227" 
d="M77 643h-60v57h60v28q0 82 81 82h67v-56h-49q-19 0 -26 -7t-7 -26v-21h68v-57h-68v-228h-66v228z" />
    <glyph glyph-name="g.sups" horiz-adv-x="356" 
d="M67.5 321q-36.5 26 -40.5 67h67q4 -19 22.5 -29t47.5 -10h4q34 0 53.5 18.5t19.5 55.5v37q-12 -19 -33.5 -30.5t-51.5 -11.5q-53 0 -89.5 38.5t-36.5 105.5q0 68 36.5 105.5t89.5 37.5q31 0 53 -11.5t32 -29.5v36h67v-282q0 -53 -38 -88t-106 -35q-60 0 -96.5 26z
M220.5 497.5q20.5 24.5 20.5 64.5q0 41 -20 65t-49 24h-4q-31 0 -51 -22.5t-20 -66.5t19.5 -66.5t49.5 -22.5h4q30 0 50.5 24.5z" />
    <glyph glyph-name="h.sups" horiz-adv-x="346" 
d="M48 810h67v-148q27 41 85 41q46 0 73.5 -29.5t27.5 -78.5v-180h-66v168q0 30 -13.5 46.5t-39.5 16.5h-2q-28 0 -46.5 -21.5t-18.5 -55.5v-154h-67v395z" />
    <glyph glyph-name="i.sups" horiz-adv-x="164" 
d="M48 700h68v-285h-68v285zM53.5 752.5q-12.5 12.5 -12.5 28.5q0 17 12 29.5t29 12.5t29.5 -12.5t12.5 -29.5t-12.5 -29t-29.5 -12q-16 0 -28.5 12.5z" />
    <glyph glyph-name="j.sups" horiz-adv-x="164" 
d="M-43 362h62q29 0 29 30v308h68v-313q0 -40 -21 -61.5t-62 -21.5h-76v58zM51.5 752q-12.5 12 -12.5 29t12.5 29.5t29.5 12.5t29 -12.5t12 -29.5q0 -16 -12 -28.5t-29 -12.5t-29.5 12z" />
    <glyph glyph-name="k.sups" horiz-adv-x="323" 
d="M48 810h67v-220l110 110h82l-111 -112l117 -173h-80l-84 125l-34 -34v-91h-67v395z" />
    <glyph glyph-name="l.sups" horiz-adv-x="163" 
d="M48 810h67v-395h-67v395z" />
    <glyph glyph-name="m.sups" horiz-adv-x="531" 
d="M48 700h67v-35q26 41 83 41q61 0 90 -49q15 23 38.5 36t53.5 13q50 0 78 -30t28 -79v-182h-67v169q0 31 -13.5 47.5t-40.5 16.5h-2q-27 0 -44.5 -21.5t-17.5 -56.5v-155h-68v168q0 31 -13.5 48t-39.5 17h-2q-27 0 -45 -21.5t-18 -56.5v-155h-67v285z" />
    <glyph glyph-name="n.sups" horiz-adv-x="348" 
d="M48 700h67v-34q12 19 34 29.5t51 10.5q46 0 74.5 -30.5t28.5 -80.5v-180h-67v165q0 32 -14 49.5t-41 17.5h-2q-27 0 -45.5 -21.5t-18.5 -56.5v-154h-67v285z" />
    <glyph glyph-name="o.sups" horiz-adv-x="343" 
d="M69.5 452q-40.5 42 -40.5 106q0 63 41 105t102 42t101.5 -42t40.5 -105q0 -64 -40.5 -106t-101.5 -42q-62 0 -102.5 42zM226.5 491q20.5 25 20.5 67q0 41 -20.5 66t-53.5 25h-3q-32 0 -52.5 -25t-20.5 -66q0 -42 20 -67t53 -25h3q33 0 53.5 25z" />
    <glyph glyph-name="p.sups" horiz-adv-x="360" 
d="M48 700h67v-36q10 18 33.5 29.5t53.5 11.5q56 0 92 -39.5t36 -105.5q0 -67 -36.5 -107.5t-92.5 -40.5q-29 0 -52 11.5t-34 28.5v-147h-67v395zM243 493q20 25 20 67q0 41 -20 65t-52 24h-3q-32 0 -53.5 -24t-21.5 -65t21.5 -66.5t53.5 -25.5h3q32 0 52 25z" />
    <glyph glyph-name="q.sups" horiz-adv-x="360" 
d="M212 423.5q-23 -11.5 -52 -11.5q-56 0 -93 40.5t-37 106.5q0 65 36 105.5t91 40.5q30 0 54 -12t34 -29v36h67v-395h-67v147q-10 -17 -33 -28.5zM225 493q21 25 21 66q0 40 -21 65t-53 25h-3q-32 0 -52 -24.5t-20 -65.5t20 -66t52 -25h3q32 0 53 25z" />
    <glyph glyph-name="r.sups" horiz-adv-x="234" 
d="M48 700h66v-53q9 25 32 40.5t54 15.5h15v-63h-19q-80 0 -80 -93v-132h-68v285z" />
    <glyph glyph-name="s.sups" horiz-adv-x="293" 
d="M59.5 437q-30.5 26 -32.5 69h64q1 -20 16 -31t39 -11h4q20 0 33 8.5t13 22.5q0 12 -8 19t-26 11l-43 9q-84 18 -84 84q0 40 31 63.5t78 23.5q55 0 85 -26t32 -69h-65q-2 19 -15 30.5t-36 11.5h-3q-20 0 -31.5 -9t-11.5 -22q0 -12 9 -19t28 -11l47 -10q79 -16 79 -83
q0 -39 -32 -63t-84 -24q-56 0 -86.5 26z" />
    <glyph glyph-name="t.sups" horiz-adv-x="245" 
d="M97 435.5q-20 20.5 -20 58.5v150h-61v56h61v91h67v-91h66v-56h-66v-140q0 -18 6.5 -25t25.5 -7h42v-57h-63q-38 0 -58 20.5z" />
    <glyph glyph-name="u.sups" horiz-adv-x="342" 
d="M72 440q-27 30 -27 81v179h68v-165q0 -67 50 -67h2q28 0 45 22t17 69v141h67v-284h-67v34q-28 -40 -82 -40q-46 0 -73 30z" />
    <glyph glyph-name="v.sups" horiz-adv-x="324" 
d="M14 700h71l78 -231l77 231h70l-102 -285h-93z" />
    <glyph glyph-name="w.sups" horiz-adv-x="460" 
d="M15 700h69l59 -217l51 217h72l55 -216l56 216h67l-84 -285h-75l-54 208l-53 -208h-76z" />
    <glyph glyph-name="x.sups" horiz-adv-x="311" 
d="M117 559l-100 141h76l63 -88l64 88h74l-101 -140l104 -145h-77l-66 92l-66 -92h-74z" />
    <glyph glyph-name="y.sups" horiz-adv-x="328" 
d="M25 361h56q17 0 26 5.5t15 20.5l16 42l-130 271h75l88 -186l71 186h74l-133 -335q-14 -37 -36 -50.5t-59 -13.5h-63v60z" />
    <glyph glyph-name="z.sups" horiz-adv-x="303" 
d="M31 469l152 172h-149v59h232v-54l-152 -172h161v-59h-244v54z" />
    <glyph glyph-name="zero.zero" horiz-adv-x="655" 
d="M127.5 82.5q-71.5 92.5 -71.5 267.5t71.5 267.5t200.5 92.5t200 -92.5t71 -267.5t-71 -267.5t-200 -92.5t-200.5 92.5zM417.5 94.5q40.5 26.5 67 89.5t26.5 166q0 72 -14 126l-305 -334q26 -39 60 -56.5t71 -17.5h10q44 0 84.5 26.5zM158 225l305 332q-25 39 -59.5 57
t-70.5 18h-10q-44 0 -84.5 -26.5t-67.5 -89.5t-27 -166q0 -71 14 -125z" />
    <glyph glyph-name="zero.osf" horiz-adv-x="607" 
d="M176.5 23q-58.5 33 -93 92.5t-34.5 134.5t34.5 134.5t93 92.5t127.5 33t127.5 -33t93 -92.5t34.5 -134.5t-34.5 -134.5t-93 -92.5t-127.5 -33t-127.5 33zM389 84.5q38 22.5 61.5 65.5t23.5 100t-23.5 100t-61.5 65.5t-80 22.5h-10q-42 0 -80 -22.5t-61.5 -65.5
t-23.5 -100t24 -100t62.5 -65.5t81.5 -22.5h7q42 0 80 22.5z" />
    <glyph glyph-name="one.osf" horiz-adv-x="316" 
d="M149 317h-120v62q55 1 89.5 33.5t46.5 87.5h67v-500h-83v317z" />
    <glyph glyph-name="two.osf" horiz-adv-x="465" 
d="M53 99l209 160q35 27 51.5 50t16.5 52q0 34 -25.5 55.5t-63.5 21.5h-8q-40 0 -66.5 -25.5t-28.5 -69.5h-85q1 48 25 86t66 59.5t93 21.5t91.5 -19t63.5 -52t23 -75q0 -46 -23.5 -83t-73.5 -74l-173 -132h260v-75h-352v99z" />
    <glyph glyph-name="three.osf" horiz-adv-x="563" 
d="M108.5 -159q-65.5 51 -75.5 140h85q10 -57 50 -88t102 -31h10q62 0 104.5 35t42.5 97q0 56 -39 90.5t-99 34.5h-57v72h57q60 0 96.5 33.5t36.5 88.5q0 59 -40.5 92t-101.5 33h-10q-56 0 -95 -34t-44 -87h-84q3 54 33.5 98t82 69.5t113.5 25.5q65 0 117.5 -23t83 -66.5
t30.5 -101.5t-31 -101t-84 -61q55 -19 87.5 -63t32.5 -105q0 -64 -32 -108.5t-85.5 -67.5t-118.5 -23q-102 0 -167.5 51z" />
    <glyph glyph-name="four.osf" horiz-adv-x="591" 
d="M375 0h-347v88l342 412h88v-426h111v-74h-111v-200h-83v200zM375 74v316l-262 -316h262z" />
    <glyph glyph-name="five.osf" horiz-adv-x="555" 
d="M111.5 -160q-67.5 50 -76.5 143h86q8 -57 50 -89t101 -32h10q67 0 109 45t42 115q0 65 -42 107t-108 42h-10q-41 0 -77.5 -22t-58.5 -62h-83l54 413h379v-75h-311l-31 -237q27 27 64.5 42t80.5 15q66 0 118 -29t80.5 -79t28.5 -111q0 -69 -31 -122.5t-86 -83.5t-123 -30
q-98 0 -165.5 50z" />
    <glyph glyph-name="six.osf" horiz-adv-x="601" 
d="M175 29q-58 39 -89.5 115.5t-31.5 184.5q0 111 32 197.5t91.5 135t139.5 48.5q89 0 150.5 -48t77.5 -130h-87q-11 45 -50 73.5t-88 28.5h-8q-78 0 -122 -73.5t-51 -205.5q29 50 79 77.5t108 27.5q64 0 115.5 -29t81 -81t29.5 -119q0 -72 -31.5 -126.5t-86.5 -84.5
t-123 -30q-78 0 -136 39zM392.5 86q33.5 20 53 56t19.5 83t-19 83.5t-52.5 56.5t-73.5 20h-10q-42 0 -77.5 -20.5t-56 -57t-20.5 -81.5t20 -81.5t55 -57.5t77 -21h10q41 0 74.5 20z" />
    <glyph glyph-name="seven.osf" horiz-adv-x="512" 
d="M208.5 196q68.5 150 195.5 229h-389v75h478v-85q-137 -84 -202.5 -226t-65.5 -369v-20h-85v29q0 217 68.5 367z" />
    <glyph glyph-name="eight.osf" horiz-adv-x="565" 
d="M163 15q-52 25 -81 69.5t-29 102.5q0 62 38.5 109.5t93.5 62.5q-52 19 -85 62.5t-33 103.5q0 54 27 96t76 65.5t112 23.5t112 -23.5t76.5 -65.5t27.5 -96q0 -60 -33.5 -104t-84.5 -62q55 -15 93.5 -62.5t38.5 -109.5q0 -58 -29 -102.5t-81.5 -69.5t-119.5 -25t-119 25z
M386 102q39 35 39 90q0 54 -39.5 89.5t-98.5 35.5h-10q-59 0 -98 -35.5t-39 -89.5q0 -55 38.5 -90t98.5 -35h10q60 0 99 35zM377 429.5q35 34.5 35 86.5t-35 84.5t-90 32.5h-10q-55 0 -89.5 -32.5t-34.5 -84.5t35 -86.5t89 -34.5h10q55 0 90 34.5z" />
    <glyph glyph-name="nine.osf" horiz-adv-x="596" 
d="M426 471q58 -39 89.5 -115.5t31.5 -184.5q0 -111 -32 -197.5t-91.5 -135t-139.5 -48.5q-89 0 -150.5 48t-77.5 130h87q11 -45 50 -73.5t88 -28.5h8q78 0 122 73.5t51 205.5q-29 -50 -79 -77.5t-108 -27.5q-64 0 -115.5 29t-81 81t-29.5 119q0 72 31.5 126.5t86.5 84.5
t123 30q78 0 136 -39zM208.5 414q-33.5 -20 -53 -56t-19.5 -83t19 -83.5t52.5 -56.5t73.5 -20h10q42 0 77.5 20.5t56 57t20.5 81.5t-20 81.5t-55 57.5t-77 21h-10q-41 0 -74.5 -20z" />
    <glyph glyph-name="zero.tf" 
d="M105.5 82.5q-69.5 92.5 -69.5 267.5t69.5 267.5t194.5 92.5t194.5 -92.5t69.5 -267.5t-69.5 -267.5t-194.5 -92.5t-194.5 92.5zM386 95q39 27 64.5 90t25.5 165t-25.5 165t-64.5 90t-81 27h-10q-42 0 -81 -27t-64.5 -90t-25.5 -165t25.5 -165t64.5 -90t81 -27h10
q42 0 81 27z" />
    <glyph glyph-name="one.tf" 
d="M55 82h214v416h-159v61q151 4 177 141h67v-618h204v-82h-503v82z" />
    <glyph glyph-name="two.tf" 
d="M66 94l244 235q50 48 72 71t37.5 53.5t15.5 66.5q0 49 -36 80.5t-90 31.5h-10q-60 0 -98 -39.5t-38 -99.5h-90q0 64 30 113.5t82 76.5t118 27q62 0 112 -23t79 -65t29 -99q0 -48 -19.5 -89.5t-49 -75.5t-76.5 -78l-209 -198h364v-82h-467v94z" />
    <glyph glyph-name="three.tf" 
d="M126.5 41.5q-62.5 51.5 -70.5 139.5h87q8 -54 46 -83.5t97 -29.5h9q64 0 106.5 33t42.5 90q0 58 -42.5 92t-106.5 34h-49v78h52q57 0 94.5 33.5t37.5 83.5q0 55 -38 87.5t-97 32.5h-9q-55 0 -92.5 -32.5t-39.5 -82.5h-85q1 54 30.5 98.5t81 69.5t114.5 25q62 0 113 -23
t80.5 -65.5t29.5 -98.5q0 -59 -31.5 -102.5t-82.5 -62.5q55 -16 91.5 -60t36.5 -110q0 -59 -31.5 -104t-86.5 -69.5t-123 -24.5q-102 0 -164.5 51.5z" />
    <glyph glyph-name="four.tf" 
d="M379 162h-345v86l344 452h87v-460h102v-78h-102v-162h-86v162zM379 240v339l-258 -339h258z" />
    <glyph glyph-name="five.tf" 
d="M137 41q-67 51 -78 142h88q10 -53 50 -84t95 -31h10q68 0 109.5 44.5t41.5 113.5q0 42 -19.5 75t-53.5 51.5t-75 18.5h-10q-43 0 -81.5 -23.5t-55.5 -59.5h-86l58 412h382v-82h-315l-32 -227q55 56 150 56q65 0 116.5 -28.5t80.5 -78t29 -111.5q0 -71 -31 -125t-86 -84
t-125 -30q-95 0 -162 51z" />
    <glyph glyph-name="six.tf" 
d="M172.5 30.5q-58.5 40.5 -90 116.5t-31.5 182q0 112 32 198.5t91.5 134.5t139.5 48q90 0 151.5 -47.5t77.5 -130.5h-89q-11 43 -50 71t-88 28h-8q-81 0 -124.5 -75t-49.5 -206q27 53 78 81.5t111 28.5q64 0 115.5 -29t81 -81t29.5 -119q0 -72 -31 -126.5t-86 -84.5
t-123 -30q-78 0 -136.5 40.5zM388.5 89q33.5 20 53 55.5t19.5 80.5t-19.5 81t-52.5 56t-74 20h-10q-41 0 -75.5 -20.5t-55 -56t-20.5 -79.5t20.5 -80t55 -56.5t75.5 -20.5h10q40 0 73.5 20z" />
    <glyph glyph-name="seven.tf" 
d="M262.5 392q68.5 149 192.5 225h-405v83h497v-90q-136 -82 -200.5 -224.5t-64.5 -365.5v-20h-88v29q0 214 68.5 363z" />
    <glyph glyph-name="eight.tf" 
d="M173.5 15q-54.5 25 -84 70t-29.5 103q0 61 37.5 109t90.5 62q-49 18 -81.5 62t-32.5 104q0 51 29 93t80.5 67t116.5 25t116 -25t80 -67t29 -93q0 -59 -32.5 -103t-81.5 -63q52 -14 90 -62t38 -109q0 -58 -29.5 -103t-84 -70t-125.5 -25q-72 0 -126.5 25zM411 102.5
q40 34.5 40 89.5q0 54 -40.5 89t-105.5 35h-10q-66 0 -106.5 -35t-40.5 -89q0 -55 40.5 -89.5t106.5 -34.5h10q66 0 106 34.5zM401.5 430q36.5 34 36.5 86q0 49 -36.5 82.5t-96.5 33.5h-10q-60 0 -97 -33.5t-37 -82.5q0 -52 36.5 -86t97.5 -34h10q60 0 96.5 34z" />
    <glyph glyph-name="nine.tf" 
d="M427.5 669.5q58.5 -40.5 90 -116.5t31.5 -182q0 -112 -32 -198.5t-91.5 -134.5t-139.5 -48q-90 0 -151.5 47.5t-77.5 130.5h89q11 -43 50 -71t88 -28h8q81 0 124.5 75t49.5 206q-27 -53 -78 -81.5t-111 -28.5q-64 0 -115.5 29t-81 81t-29.5 119q0 72 31 126.5t86 84.5
t123 30q78 0 136.5 -40.5zM211.5 611q-33.5 -20 -53 -55.5t-19.5 -80.5t19.5 -81t52.5 -56t74 -20h10q41 0 75.5 20.5t55 56t20.5 79.5t-20.5 80t-55 56.5t-75.5 20.5h-10q-40 0 -73.5 -20z" />
    <glyph glyph-name="zero.osf.zero" horiz-adv-x="607" 
d="M176.5 23q-58.5 33 -93 92.5t-34.5 134.5t34.5 134.5t93 92.5t127.5 33t127.5 -33t93 -92.5t34.5 -134.5t-34.5 -134.5t-93 -92.5t-127.5 -33t-127.5 33zM389 84.5q38 22.5 61.5 65.5t23.5 100q0 56 -24 101l-241 -259q20 -14 44.5 -22t48.5 -8h7q42 0 80 22.5zM160 147
l242 260q-42 31 -93 31h-10q-42 0 -80 -22.5t-61.5 -65.5t-23.5 -100t26 -103z" />
    <glyph glyph-name="zero.tf.zero" 
d="M105.5 82.5q-69.5 92.5 -69.5 267.5t69.5 267.5t194.5 92.5t194.5 -92.5t69.5 -267.5t-69.5 -267.5t-194.5 -92.5t-194.5 92.5zM386 95q39 27 64.5 90t25.5 165q0 67 -12 118l-295 -322q25 -41 58 -59.5t68 -18.5h10q42 0 81 27zM136 231l296 322q-24 40 -58 59.5
t-69 19.5h-10q-42 0 -81 -27t-64.5 -90t-25.5 -165q0 -64 12 -119z" />
    <glyph glyph-name="zero.dnom" horiz-adv-x="403" 
d="M79 50.5q-45 55.5 -45 147.5t45 147t122 55t122 -55t45 -147t-45 -147.5t-122 -55.5t-122 55.5zM272.5 97q24.5 43 24.5 101t-24.5 100.5t-69.5 42.5h-4q-45 0 -69.5 -42.5t-24.5 -100.5t24.5 -101t69.5 -43h4q45 0 69.5 43z" />
    <glyph glyph-name="one.dnom" horiz-adv-x="227" 
d="M102 258h-84v47q44 2 67.5 25t33.5 65h51v-395h-68v258z" />
    <glyph glyph-name="two.dnom" horiz-adv-x="344" 
d="M35 77l134 112q36 29 51.5 48.5t15.5 44.5q0 27 -17 42t-44 15h-5q-25 0 -44 -16.5t-20 -44.5h-70q1 55 41 88.5t97 33.5t94.5 -31t37.5 -84q0 -40 -22 -69t-64 -64l-110 -91h200v-61h-275v77z" />
    <glyph glyph-name="three.dnom" horiz-adv-x="350" 
d="M71 26.5q-40 31.5 -41 85.5h70q1 -26 20 -42t47 -16h5q30 0 50 16t20 44q0 26 -18 41t-47 15h-38v60h38q26 0 44 15t18 40q0 26 -18 41t-47 15h-5q-27 0 -44 -15t-19 -39h-70q1 54 40 83.5t97 29.5q57 0 95.5 -28.5t38.5 -80.5q0 -31 -16 -55t-44 -35q27 -10 46 -34.5
t19 -58.5q0 -54 -41.5 -83.5t-101.5 -29.5q-58 0 -98 31.5z" />
    <glyph glyph-name="four.dnom" horiz-adv-x="357" 
d="M208 91h-187v61l181 243h72v-246h56v-58h-56v-91h-66v91zM208 149v164l-120 -164h120z" />
    <glyph glyph-name="five.dnom" horiz-adv-x="350" 
d="M73.5 24.5q-38.5 29.5 -43.5 83.5h71q4 -26 23 -40t46 -14h4q31 0 51 20.5t20 53.5q0 30 -20 48.5t-49 18.5h-3q-38 0 -64 -34h-70l33 234h228v-59h-176l-14 -111q30 28 76 28q56 0 92.5 -34.5t36.5 -88.5q0 -62 -41 -98.5t-103 -36.5q-59 0 -97.5 29.5z" />
    <glyph glyph-name="six.dnom" horiz-adv-x="369" 
d="M75.5 46q-40.5 51 -40.5 141q0 98 43 155.5t117 57.5q59 0 94.5 -33t39.5 -78h-69q-5 23 -22.5 37t-42.5 14h-6q-39 0 -62.5 -35t-27.5 -96q12 25 39.5 40.5t62.5 15.5q55 0 93.5 -36t38.5 -95t-40 -99t-108 -40q-69 0 -109.5 51zM242.5 75.5q21.5 21.5 21.5 54.5
q0 32 -21 54t-53 22h-3q-31 0 -53 -21.5t-22 -54.5t21 -54.5t52 -21.5h3q33 0 54.5 21.5z" />
    <glyph glyph-name="seven.dnom" horiz-adv-x="316" 
d="M129 221.5q41 72.5 100 114.5h-207v59h273v-62q-58 -49 -97.5 -119.5t-39.5 -177.5v-36h-70v36q0 113 41 185.5z" />
    <glyph glyph-name="eight.dnom" horiz-adv-x="362" 
d="M76.5 24.5q-40.5 29.5 -40.5 80.5q0 34 20.5 59.5t53.5 36.5q-29 12 -47 36.5t-18 56.5q0 51 40 78.5t97 27.5t96.5 -27.5t39.5 -78.5q0 -33 -19 -57t-50 -36q34 -11 55 -36.5t21 -59.5q0 -51 -40 -80.5t-104 -29.5t-104.5 29.5zM235 68.5q21 14.5 21 41.5q0 26 -21.5 41
t-50.5 15h-5q-31 0 -52.5 -15t-21.5 -41q0 -27 21 -41.5t52 -14.5h5q31 0 52 14.5zM230 244q19 16 19 41q0 26 -18.5 41t-46.5 15h-5q-27 0 -46 -15t-19 -41q0 -25 19 -41t46 -16h5q27 0 46 16z" />
    <glyph glyph-name="nine.dnom" horiz-adv-x="368" 
d="M78 28.5q-34 33.5 -37 77.5h68q5 -23 22.5 -37t42.5 -14h6q38 0 61 35t28 96q-12 -25 -41 -40.5t-64 -15.5q-54 0 -91.5 36t-37.5 95t39.5 99t106.5 40q70 0 110.5 -50.5t40.5 -140.5q0 -100 -41.5 -157t-116.5 -57q-62 0 -96 33.5zM234 210.5q22 21.5 22 54.5t-21 54.5
t-52 21.5h-3q-33 0 -55 -21.5t-22 -54.5t21 -54.5t54 -21.5h3q31 0 53 21.5z" />
    <glyph glyph-name="zero.numr" horiz-adv-x="400" 
d="M78 355.5q-45 55.5 -45 147.5t45 147t122 55t122 -55t45 -147t-45 -147.5t-122 -55.5t-122 55.5zM271.5 402q24.5 43 24.5 101t-24.5 100.5t-69.5 42.5h-4q-45 0 -69.5 -42.5t-24.5 -100.5t24.5 -101t69.5 -43h4q45 0 69.5 43z" />
    <glyph glyph-name="one.numr" horiz-adv-x="224" 
d="M100 563h-84v47q44 2 67.5 25t33.5 65h51v-395h-68v258z" />
    <glyph glyph-name="two.numr" horiz-adv-x="340" 
d="M33 382l134 112q36 29 51.5 48.5t15.5 44.5q0 27 -17 42t-44 15h-5q-25 0 -44 -16.5t-20 -44.5h-70q1 55 41 88.5t97 33.5t94.5 -31t37.5 -84q0 -40 -22 -69t-64 -64l-110 -91h200v-61h-275v77z" />
    <glyph glyph-name="three.numr" horiz-adv-x="347" 
d="M70 331.5q-40 31.5 -41 85.5h70q1 -26 20 -42t47 -16h5q30 0 50 16t20 44q0 26 -18 41t-47 15h-38v60h38q26 0 44 15t18 40q0 26 -18 41t-47 15h-5q-27 0 -44 -15t-19 -39h-70q1 54 40 83.5t97 29.5q57 0 95.5 -28.5t38.5 -80.5q0 -31 -16 -55t-44 -35q27 -10 46 -34.5
t19 -58.5q0 -54 -41.5 -83.5t-101.5 -29.5q-58 0 -98 31.5z" />
    <glyph glyph-name="four.numr" horiz-adv-x="361" 
d="M212 396h-187v61l181 243h72v-246h56v-58h-56v-91h-66v91zM212 454v164l-120 -164h120z" />
    <glyph glyph-name="five.numr" horiz-adv-x="343" 
d="M71.5 329.5q-38.5 29.5 -43.5 83.5h71q4 -26 23 -40t46 -14h4q31 0 51 20.5t20 53.5q0 30 -20 48.5t-49 18.5h-3q-38 0 -64 -34h-70l33 234h228v-59h-176l-14 -111q30 28 76 28q56 0 92.5 -34.5t36.5 -88.5q0 -62 -41 -98.5t-103 -36.5q-59 0 -97.5 29.5z" />
    <glyph glyph-name="six.numr" horiz-adv-x="365" 
d="M74.5 351q-40.5 51 -40.5 141q0 98 43 155.5t117 57.5q59 0 94.5 -33t39.5 -78h-69q-5 23 -22.5 37t-42.5 14h-6q-39 0 -62.5 -35t-27.5 -96q12 25 39.5 40.5t62.5 15.5q55 0 93.5 -36t38.5 -95t-40 -99t-108 -40q-69 0 -109.5 51zM241.5 380.5q21.5 21.5 21.5 54.5
q0 32 -21 54t-53 22h-3q-31 0 -53 -21.5t-22 -54.5t21 -54.5t52 -21.5h3q33 0 54.5 21.5z" />
    <glyph glyph-name="seven.numr" horiz-adv-x="302" 
d="M121 526.5q41 72.5 100 114.5h-207v59h273v-62q-58 -49 -97.5 -119.5t-39.5 -177.5v-36h-70v36q0 113 41 185.5z" />
    <glyph glyph-name="eight.numr" horiz-adv-x="358" 
d="M74.5 329.5q-40.5 29.5 -40.5 80.5q0 34 20.5 59.5t53.5 36.5q-29 12 -47 36.5t-18 56.5q0 51 40 78.5t97 27.5t96.5 -27.5t39.5 -78.5q0 -33 -19 -57t-50 -36q34 -11 55 -36.5t21 -59.5q0 -51 -40 -80.5t-104 -29.5t-104.5 29.5zM233 373.5q21 14.5 21 41.5
q0 26 -21.5 41t-50.5 15h-5q-31 0 -52.5 -15t-21.5 -41q0 -27 21 -41.5t52 -14.5h5q31 0 52 14.5zM228 549q19 16 19 41q0 26 -18.5 41t-46.5 15h-5q-27 0 -46 -15t-19 -41q0 -25 19 -41t46 -16h5q27 0 46 16z" />
    <glyph glyph-name="nine.numr" horiz-adv-x="365" 
d="M77 333.5q-34 33.5 -37 77.5h68q5 -23 22.5 -37t42.5 -14h6q38 0 61 35t28 96q-12 -25 -41 -40.5t-64 -15.5q-54 0 -91.5 36t-37.5 95t39.5 99t106.5 40q70 0 110.5 -50.5t40.5 -140.5q0 -100 -41.5 -157t-116.5 -57q-62 0 -96 33.5zM233 515.5q22 21.5 22 54.5t-21 54.5
t-52 21.5h-3q-33 0 -55 -21.5t-22 -54.5t21 -54.5t54 -21.5h3q31 0 53 21.5z" />
    <glyph glyph-name="zero.dnom.zero" horiz-adv-x="403" 
d="M79 50.5q-45 55.5 -45 147.5t45 147t122 55t122 -55t45 -147t-45 -147.5t-122 -55.5t-122 55.5zM272.5 97q24.5 43 24.5 101q0 27 -6 52l-153 -165q24 -31 61 -31h4q45 0 69.5 43zM111 145l153 166q-25 30 -61 30h-4q-45 0 -69.5 -42.5t-24.5 -100.5q0 -27 6 -53z" />
    <glyph glyph-name="zero.numr.zero" horiz-adv-x="400" 
d="M78 355.5q-45 55.5 -45 147.5t45 147t122 55t122 -55t45 -147t-45 -147.5t-122 -55.5t-122 55.5zM271.5 402q24.5 43 24.5 101q0 27 -6 52l-153 -165q24 -31 61 -31h4q45 0 69.5 43zM110 450l153 166q-25 30 -61 30h-4q-45 0 -69.5 -42.5t-24.5 -100.5q0 -27 6 -53z" />
    <glyph glyph-name="uni2080.zero" horiz-adv-x="400" 
d="M78 -64.5q-45 55.5 -45 147.5t45 147t122 55t122 -55t45 -147t-45 -147.5t-122 -55.5t-122 55.5zM271.5 -18q24.5 43 24.5 101q0 27 -6 52l-153 -165q24 -31 61 -31h4q45 0 69.5 43zM110 30l153 166q-25 30 -61 30h-4q-45 0 -69.5 -42.5t-24.5 -100.5q0 -27 6 -53z" />
    <glyph glyph-name="uni2070.zero" horiz-adv-x="400" 
d="M78 465.5q-45 55.5 -45 147.5t45 147t122 55t122 -55t45 -147t-45 -147.5t-122 -55.5t-122 55.5zM271.5 512q24.5 43 24.5 101q0 27 -6 52l-153 -165q24 -31 61 -31h4q45 0 69.5 43zM110 560l153 166q-25 30 -61 30h-4q-45 0 -69.5 -42.5t-24.5 -100.5q0 -27 6 -53z" />
    <glyph glyph-name="space.tf" 
 />
    <glyph glyph-name="exclamdown.case" horiz-adv-x="265" 
d="M178.5 692q18.5 -19 18.5 -45q0 -27 -18.5 -46t-45.5 -19t-45.5 19t-18.5 46q0 26 18.5 45t45.5 19t45.5 -19zM177 220v-220h-89v220l23 290h43z" />
    <glyph glyph-name="questiondown.case" horiz-adv-x="481" 
d="M313.5 354q-15.5 -23 -53.5 -38l-27 -11q-38 -15 -62 -29t-39 -37t-15 -58q0 -49 33 -80.5t92 -31.5q55 0 88 29t40 81h88q-3 -58 -33 -100.5t-79 -65t-107 -22.5q-59 0 -107 23t-75.5 65t-27.5 96q0 130 131 184l36 15q29 12 37 20t8 29v76h88v-84q0 -38 -15.5 -61z
M331.5 693q18.5 -19 18.5 -45q0 -27 -18.5 -46t-45.5 -19t-45.5 19t-18.5 46q0 26 18.5 45t45.5 19t45.5 -19z" />
    <glyph glyph-name="period.tf" 
d="M255 9q-19 19 -19 45q0 27 19 46t45 19q27 0 46 -19t19 -46q0 -26 -19 -45t-46 -19q-26 0 -45 19z" />
    <glyph glyph-name="comma.tf" 
d="M209 -75h33q60 0 60 60v15h-58v113h113v-133q0 -55 -29 -83.5t-82 -28.5h-37v57z" />
    <glyph glyph-name="colon.tf" 
d="M254 9q-19 19 -19 45q0 27 19 46t46 19q26 0 45 -19t19 -46q0 -26 -19 -45t-45 -19q-27 0 -46 19zM254 401q-19 19 -19 46q0 26 19 45t46 19q26 0 45 -19t19 -45q0 -27 -19 -46t-45 -19q-27 0 -46 19z" />
    <glyph glyph-name="semicolon.tf" 
d="M210 -75h34q60 0 60 60v15h-59v113h114v-133q0 -55 -29.5 -83.5t-82.5 -28.5h-37v57zM256.5 401q-18.5 19 -18.5 46q0 26 18.5 45t45.5 19t45.5 -19t18.5 -45q0 -27 -18.5 -46t-45.5 -19t-45.5 19z" />
    <glyph glyph-name="numbersign.tf" 
d="M117 180h-87v75h103l40 190h-123v75h139l39 180h79l-39 -180h143l37 180h79l-37 -180h80v-75h-96l-39 -190h115v-75h-131l-37 -180h-79l37 180h-144l-39 -180h-79zM356 255l39 190h-143l-40 -190h144z" />
    <glyph glyph-name="hyphen.case" horiz-adv-x="383" 
d="M60 388h263v-75h-263v75z" />
    <glyph glyph-name="endash.case" horiz-adv-x="563" 
d="M60 388h443v-75h-443v75z" />
    <glyph glyph-name="emdash.case" horiz-adv-x="883" 
d="M60 388h763v-75h-763v75z" />
    <glyph glyph-name="uni2015.case" horiz-adv-x="883" 
d="M60 388h763v-75h-763v75z" />
    <glyph glyph-name="parenleft.case" horiz-adv-x="347" 
d="M174.5 47q-57.5 47 -90 125.5t-32.5 177.5t32.5 177.5t90 125.5t130.5 57v-82q-77 -14 -121.5 -88.5t-44.5 -189.5t44.5 -189.5t121.5 -88.5v-82q-73 10 -130.5 57z" />
    <glyph glyph-name="parenright.case" horiz-adv-x="347" 
d="M172.5 653q57.5 -47 90 -125.5t32.5 -177.5t-32.5 -177.5t-90 -125.5t-130.5 -57v82q77 14 121.5 88.5t44.5 189.5t-44.5 189.5t-121.5 88.5v82q73 -10 130.5 -57z" />
    <glyph glyph-name="braceleft.case" horiz-adv-x="358" 
d="M149.5 37.5q-28.5 37.5 -28.5 117.5v60q0 38 -10 51.5t-40 13.5h-25v140h25q30 0 40 13.5t10 51.5v60q0 80 28.5 117.5t93.5 37.5h71v-78h-46q-39 0 -51.5 -16t-12.5 -59v-102q0 -85 -80 -85v-20q80 0 80 -85v-102q0 -43 12.5 -59t51.5 -16h46v-78h-71q-65 0 -93.5 37.5z
" />
    <glyph glyph-name="braceright.case" horiz-adv-x="357" 
d="M207.5 663.5q28.5 -37.5 28.5 -117.5v-60q0 -38 10 -51.5t40 -13.5h25v-140h-25q-30 0 -40 -13.5t-10 -51.5v-60q0 -80 -28.5 -117.5t-93.5 -37.5h-71v78h46q39 0 51.5 16t12.5 59v102q0 85 80 85v20q-80 0 -80 85v102q0 43 -12.5 59t-51.5 16h-46v78h71q65 0 93.5 -37.5
z" />
    <glyph glyph-name="bracketleft.case" horiz-adv-x="331" 
d="M92 700h193v-78h-107v-544h107v-78h-193v700z" />
    <glyph glyph-name="bracketright.case" horiz-adv-x="331" 
d="M239 0h-193v78h107v544h-107v78h193v-700z" />
    <glyph glyph-name="guillemotleft.case" horiz-adv-x="551" 
d="M247 350l145 215h98l-145 -214l145 -216h-98zM45 350l145 215h98l-145 -214l146 -216h-99z" />
    <glyph glyph-name="guillemotright.case" horiz-adv-x="551" 
d="M304 350l-145 -215h-98l145 214l-145 216h98zM506 350l-145 -215h-98l145 214l-146 216h99z" />
    <glyph glyph-name="guilsinglleft.case" horiz-adv-x="349" 
d="M45 350l145 215h98l-145 -214l146 -216h-99z" />
    <glyph glyph-name="guilsinglright.case" horiz-adv-x="349" 
d="M206 349l-145 216h98l145 -215l-145 -215h-98z" />
    <glyph glyph-name="florin.tf" 
d="M37 -122h42q53 0 74.5 24t30.5 83l59 390h-106v77h118l9 61q11 69 32 109.5t57.5 59t95.5 18.5h46v-78h-41q-52 0 -72.5 -24t-29.5 -83l-10 -63h125v-77h-136l-59 -385q-16 -103 -58.5 -146.5t-129.5 -43.5h-47v78z" />
    <glyph glyph-name="at.case" horiz-adv-x="916" 
d="M255 -46q-97 49 -152.5 147t-55.5 239q0 127 59 222.5t155 146.5t205 51q115 0 207 -49.5t144.5 -136.5t52.5 -193q0 -81 -28.5 -139t-74.5 -87.5t-97 -29.5h-98v69q-15 -33 -49.5 -56t-81.5 -23q-51 0 -93 26t-66.5 75t-24.5 114t24.5 112.5t66.5 72.5t93 25
q46 0 78.5 -22t49.5 -55v67h76v-337h20q28 0 55.5 19t46 61t18.5 108q0 90 -39 159t-111 107t-169 38q-91 0 -167.5 -42.5t-121.5 -121t-45 -181.5q0 -111 43.5 -192.5t122.5 -124.5t182 -43h245v-75h-250q-123 0 -220 49zM536 225.5q33 42.5 33 104.5t-31.5 102t-79.5 40
h-6q-49 0 -79.5 -38.5t-30.5 -103.5q0 -66 28.5 -106.5t77.5 -40.5h6q49 0 82 42.5z" />
    <glyph glyph-name="section.tf" 
d="M121 18h205q37 0 55.5 15.5t18.5 43.5q0 23 -19 38.5t-61 31.5l-139 52q-50 19 -75 51.5t-25 71.5t24.5 73.5t68.5 60.5q-58 43 -58 109q0 65 44 100t122 35h178v-78h-177q-39 0 -60.5 -14.5t-21.5 -42.5q0 -25 18 -40.5t60 -29.5l91 -30q75 -24 112.5 -56.5t37.5 -90.5
q0 -81 -93 -135q30 -23 44 -47t14 -59q0 -58 -41.5 -97.5t-126.5 -39.5h-196v78zM419 261q16 22 16 47q0 32 -27 50t-79 35l-88 28q-37 -15 -56 -40.5t-19 -50.5q0 -19 11.5 -31t31 -21t61.5 -25l88 -33q45 19 61 41z" />
    <glyph glyph-name="degree.tf" 
d="M205.5 364.5q-42.5 24.5 -66.5 66.5t-24 94t24 94t66.5 66.5t94.5 24.5t94 -24.5t66.5 -66.5t24.5 -94t-24.5 -94t-66.5 -66.5t-94 -24.5t-94.5 24.5zM374.5 447q30.5 32 30.5 78t-30.5 78t-74.5 32t-74.5 -32t-30.5 -78t30.5 -78t74.5 -32t74.5 32z" />
    <glyph glyph-name="plus.case" horiz-adv-x="602" 
d="M258 312h-204v77h204v204h87v-204h203v-77h-203v-204h-87v204z" />
    <glyph glyph-name="minus.case" horiz-adv-x="608" 
d="M57 390h494v-79h-494v79z" />
    <glyph glyph-name="multiply.case" horiz-adv-x="550" 
d="M62 194l156 157l-156 156l57 57l156 -156l157 156l57 -57l-157 -156l157 -157l-57 -57l-157 157l-156 -157z" />
    <glyph glyph-name="divide.case" horiz-adv-x="614" 
d="M60 390h494v-79h-494v79zM261.5 135.5q-18.5 18.5 -18.5 46.5q0 26 18.5 45t45.5 19t45.5 -19t18.5 -45q0 -28 -18.5 -46.5t-45.5 -18.5t-45.5 18.5zM261.5 474q-18.5 19 -18.5 45q0 27 18.5 46t45.5 19t45.5 -19t18.5 -46q0 -26 -18.5 -45t-45.5 -19t-45.5 19z" />
    <glyph glyph-name="equal.case" horiz-adv-x="619" 
d="M62 480h494v-79h-494v79zM62 299h494v-78h-494v78z" />
    <glyph glyph-name="notequal.case" horiz-adv-x="619" 
d="M227 221h-165v78h189l32 102h-221v79h245l35 113h85l-35 -113h164v-79h-188l-32 -102h220v-78h-244l-35 -113h-85z" />
    <glyph glyph-name="greater.case" horiz-adv-x="559" 
d="M79 226l304 121l-304 119v95l425 -176v-72l-425 -176v89z" />
    <glyph glyph-name="less.case" horiz-adv-x="559" 
d="M55 314v72l425 176v-89l-304 -121l304 -119v-95z" />
    <glyph glyph-name="greaterequal.case" horiz-adv-x="645" 
d="M80 307l378 104l-378 103v89l494 -144v-92l-494 -144v84zM80 190h494v-79h-494v79z" />
    <glyph glyph-name="lessequal.case" horiz-adv-x="645" 
d="M70 367v92l494 144v-84l-378 -104l378 -103v-89zM70 190h494v-79h-494v79z" />
    <glyph glyph-name="plusminus.case" horiz-adv-x="647" 
d="M280 380h-203v78h203v135h87v-135h204v-78h-204v-130h-87v130zM77 171h494v-78h-494v78z" />
    <glyph glyph-name="approxequal.case" horiz-adv-x="611" 
d="M366 381.5q-33 10.5 -77 27.5q-67 26 -86 26q-27 0 -40 -16t-13 -38h-77v25q0 50 32.5 82.5t87.5 32.5q25 0 57.5 -10t78.5 -28q26 -10 49.5 -18t35.5 -8q27 0 39.5 13.5t12.5 35.5h77v-25q0 -50 -31 -80t-89 -30q-24 0 -57 10.5zM366 191.5q-33 10.5 -77 27.5
q-67 26 -86 26q-27 0 -40 -16t-13 -38h-77v25q0 50 32.5 82.5t87.5 32.5q25 0 57.5 -10t78.5 -28q26 -10 49.5 -18t35.5 -8q27 0 39.5 13.5t12.5 35.5h77v-25q0 -50 -31 -80t-89 -30q-24 0 -57 10.5z" />
    <glyph glyph-name="logicalnot.case" horiz-adv-x="596" 
d="M431 361h-370v79h458v-220h-88v141z" />
    <glyph glyph-name="plus.tf" 
d="M257 312h-192v77h192v204h87v-204h191v-77h-191v-204h-87v204z" />
    <glyph glyph-name="minus.tf" 
d="M65 390h470v-78h-470v78z" />
    <glyph glyph-name="multiply.tf" 
d="M87 193l156 157l-156 156l57 57l156 -156l157 156l57 -57l-157 -156l157 -157l-57 -57l-157 157l-156 -157z" />
    <glyph glyph-name="divide.tf" 
d="M53 391h494v-79h-494v79zM254.5 136.5q-18.5 18.5 -18.5 46.5q0 26 18.5 45t45.5 19t45.5 -19t18.5 -45q0 -28 -18.5 -46.5t-45.5 -18.5t-45.5 18.5zM254.5 475q-18.5 19 -18.5 45q0 27 18.5 46t45.5 19t45.5 -19t18.5 -46q0 -26 -18.5 -45t-45.5 -19t-45.5 19z" />
    <glyph glyph-name="equal.tf" 
d="M65 481h470v-78h-470v78zM65 298h470v-78h-470v78z" />
    <glyph glyph-name="notequal.tf" 
d="M217 220h-152v78h176l34 105h-210v78h234l36 112h85l-36 -112h151v-78h-175l-34 -105h209v-78h-233l-36 -112h-85z" />
    <glyph glyph-name="greater.tf" 
d="M99 224l304 121l-304 119v95l425 -176v-72l-425 -176v89z" />
    <glyph glyph-name="less.tf" 
d="M76 311v72l425 176v-89l-304 -121l304 -119v-95z" />
    <glyph glyph-name="greaterequal.tf" 
d="M82 317l335 104l-335 103v89l445 -144v-92l-445 -144v84zM82 189h445v-78h-445v78z" />
    <glyph glyph-name="lessequal.tf" 
d="M73 375v92l445 144v-84l-335 -103l335 -104v-89zM73 189h445v-78h-445v78z" />
    <glyph glyph-name="plusminus.tf" 
d="M257 397h-187v78h187v133h86v-133h187v-78h-187v-129h-86v129zM70 190h460v-78h-460v78z" />
    <glyph glyph-name="approxequal.tf" 
d="M341 384.5q-23 9.5 -52 27.5q-21 13 -36 19.5t-30 6.5q-24 0 -35 -15t-11 -38h-74v25q0 49 32.5 80.5t79.5 31.5q29 0 52 -9.5t52 -27.5q22 -13 36 -19.5t29 -6.5q23 0 34 14t11 37h74v-25q0 -49 -32 -79.5t-79 -30.5q-28 0 -51 9.5zM341 194.5q-23 9.5 -52 27.5
q-21 13 -36 19.5t-30 6.5q-24 0 -35 -15t-11 -38h-74v25q0 49 32.5 80.5t79.5 31.5q29 0 52 -9.5t52 -27.5q22 -13 36 -19.5t29 -6.5q23 0 34 14t11 37h74v-25q0 -49 -32 -79.5t-79 -30.5q-28 0 -51 9.5z" />
    <glyph glyph-name="logicalnot.tf" 
d="M435 311h-370v79h458v-220h-88v141z" />
    <glyph glyph-name="percent.tf" 
d="M130 298l340 170v-67l-340 -169v66zM331.5 35q-34.5 42 -34.5 113t34.5 113t93.5 42t93.5 -42t34.5 -113t-34.5 -113t-93.5 -42t-93.5 42zM471.5 72q17.5 25 17.5 76t-17.5 76t-46.5 25t-46.5 -25t-17.5 -76t17.5 -76t46.5 -25t46.5 25zM81.5 439q-34.5 42 -34.5 113
t34.5 113t93.5 42t93.5 -42t34.5 -113t-34.5 -113t-93.5 -42t-93.5 42zM221.5 476q17.5 25 17.5 76t-17.5 76t-46.5 25t-46.5 -25t-17.5 -76t17.5 -76t46.5 -25t46.5 25z" />
    <glyph glyph-name="perthousand.tf" 
d="M184.5 35q-34.5 42 -34.5 113t34.5 112.5t93.5 41.5q61 0 96 -44q35 44 96 44q59 0 94 -41.5t35 -112.5t-35 -113t-94 -42q-60 0 -96 45q-35 -45 -96 -45q-59 0 -93.5 42zM324.5 72q17.5 25 17.5 76t-17.5 75.5t-46.5 24.5t-46 -24.5t-17 -75.5t17 -76t46 -25t46.5 25z
M31 299l340 169v-67l-340 -169v67zM516.5 72q17.5 25 17.5 76t-17.5 75.5t-46.5 24.5t-46 -24.5t-17 -75.5t17 -76t46 -25t46.5 25zM37 439.5q-35 41.5 -35 112.5t35 113t94 42t93.5 -42t34.5 -113t-34.5 -112.5t-93.5 -41.5t-94 41.5zM177 476.5q17 24.5 17 75.5t-17 76
t-46 25t-46.5 -25t-17.5 -76t17.5 -75.5t46.5 -24.5t46 24.5z" />
    <glyph glyph-name="multiply.case.tf" 
d="M87 193l156 157l-156 156l57 57l156 -156l157 156l57 -57l-157 -156l157 -157l-57 -57l-157 157l-156 -157z" />
    <glyph glyph-name="uni20BF.tf" 
d="M58 700h108v120h77v-120h90v120h76v-125q66 -14 106.5 -61t40.5 -118q0 -58 -32 -101t-81 -60q56 -9 92 -52t36 -112q0 -74 -45.5 -124.5t-116.5 -62.5v-124h-76v120h-90v-120h-77v120h-108v700zM445 112.5q36 30.5 36 85.5t-36 85.5t-96 30.5h-201v-232h201
q60 0 96 30.5zM433.5 425.5q32.5 29.5 32.5 81.5t-32.5 81.5t-87.5 29.5h-198v-222h198q55 0 87.5 29.5z" />
    <glyph glyph-name="cent.tf" 
d="M296 -10l-19 -110h-75l21 126q-69 27 -107 93t-38 151q0 72 28 131t80 94t122 35l19 110h75l-20 -120q61 -18 99 -62.5t45 -104.5h-87q-5 29 -23.5 54t-46.5 38l-61 -361h1h3q50 0 84 30t43 73h87q-13 -78 -70.5 -127.5t-145.5 -49.5h-14zM182 152q19 -44 55 -67l59 352
q-62 -6 -97.5 -59t-35.5 -128q0 -54 19 -98z" />
    <glyph glyph-name="currency.tf" 
d="M165 128l-78 -73l-48 48l77 74q-40 56 -40 128q0 68 37 123l-74 74l48 48l74 -71q60 46 138 46t139 -47l76 72l48 -48l-76 -76q36 -55 36 -121q0 -71 -39 -127l79 -75l-48 -48l-79 74q-60 -44 -136 -44q-75 0 -134 43zM396.5 203q37.5 40 37.5 102q0 63 -37 102.5
t-93 39.5h-10q-56 0 -93 -39.5t-37 -102.5q0 -62 38 -102t94 -40h8q55 0 92.5 40z" />
    <glyph glyph-name="dollar.tf" 
d="M275 -9l-19 -111h-77l21 123q-80 22 -123.5 78t-44.5 142h89q1 -49 25 -83.5t68 -51.5l39 231l-21 4q-174 34 -174 188q0 55 29.5 100.5t85 72t129.5 26.5h16l19 110h77l-20 -122q75 -21 117.5 -75t45.5 -131h-90q-2 42 -25.5 74.5t-61.5 48.5l-37 -218l25 -5
q91 -17 141 -67.5t50 -133.5q0 -61 -31.5 -106.5t-89.5 -70t-134 -24.5q-19 0 -29 1zM251 413l17 -3l37 219h-8q-67 0 -108.5 -33t-41.5 -83q0 -81 104 -100zM306 72h10q71 0 111.5 32.5t40.5 82.5q0 92 -119 114l-22 4l-39 -233h18z" />
    <glyph glyph-name="Euro.tf" 
d="M203 40q-57 50 -84 144l-89 -20v76l74 17q-6 41 -6 83l-68 -15v76l71 16q13 139 77.5 216t170.5 77q97 0 154.5 -57.5t66.5 -160.5h-88q-7 67 -39.5 103.5t-89.5 36.5h-10q-63 0 -102 -50.5t-51 -144.5l172 38v-76l-177 -39v-10q0 -42 4 -74l131 29v-76l-118 -26
q18 -65 52.5 -100t84.5 -35h10q58 0 92 36.5t41 103.5h88q-9 -103 -67.5 -160.5t-157.5 -57.5q-85 0 -142 50z" />
    <glyph glyph-name="uni20B4.tf" 
d="M173 16.5q-51 26.5 -76 69.5t-25 91q0 28 8 55l-49 -5v75l535 48v-74l-397 -36q-12 -24 -12 -54q0 -52 38 -85t101 -33h13q63 0 98.5 31t44.5 87h90q-9 -90 -71 -143t-172 -53q-75 0 -126 26.5zM11 442l419 36q9 21 9 43q0 52 -35 81.5t-92 29.5h-6q-65 0 -99 -33
t-39 -75h-90q3 39 27 82t75 73.5t130 30.5q66 0 114.5 -24t74 -66t25.5 -96q0 -22 -4 -39l68 6v-74l-577 -50v75z" />
    <glyph glyph-name="uni20BD.tf" 
d="M121 167h-104v76h104v67h-105v81h105v309h248q100 0 161 -49t61 -146t-61.5 -146t-161.5 -49h-157v-67h210v-76h-210v-167h-90v167zM463 417.5q38 26.5 38 87.5q0 60 -38 86.5t-109 26.5h-143v-227h143q71 0 109 26.5z" />
    <glyph glyph-name="sterling.tf" 
d="M64 78h27q69 0 74 77l9 127l-110 -26v80l117 27l9 127q8 104 58.5 157t150.5 53h103v-78h-106q-59 0 -86 -34.5t-33 -102.5l-8 -101l133 31v-80l-139 -33l-11 -138q-2 -32 -14 -52t-36 -34h350v-78h-488v78z" />
    <glyph glyph-name="uni20A9.tf" 
d="M75 308h-75v69h70l-24 323h83l19 -323h74l32 138h96l30 -138h69l21 323h85l-27 -323h72v-69h-77l-26 -308h-107l-66 308h-48l-73 -308h-106zM164 128l42 180h-53zM309 377l-7 37l-9 -37h16zM434 130l11 178h-50z" />
    <glyph glyph-name="yen.tf" 
d="M256 128l-142 -32v76l142 32v84l-172 -39v76l132 30l-209 345h101l194 -323l192 323h99l-183 -301l106 24v-76l-159 -36l-13 -21v-67l142 32v-76l-142 -32v-147h-88v128z" />
    <glyph glyph-name="uni0338.alt" horiz-adv-x="0" 
d="M30 7l70 92l14 18l245 321l14 18l63 82l58 -41l-70 -92l-340 -443z" />
    <glyph glyph-name="uni0308.cap" horiz-adv-x="0" 
d="M237 791q-15 15 -15 37t15 37.5t37 15.5t37.5 -15.5t15.5 -37.5t-15.5 -37t-37.5 -15t-37 15zM45.5 791q-15.5 15 -15.5 37t15.5 37.5t36.5 15.5q22 0 37.5 -15.5t15.5 -37.5t-15.5 -37t-37.5 -15q-21 0 -36.5 15z" />
    <glyph glyph-name="uni0307.cap" horiz-adv-x="0" 
d="M46 792q-16 16 -16 38q0 23 16 38.5t38 15.5q23 0 38.5 -15.5t15.5 -38.5q0 -22 -15.5 -38t-38.5 -16q-22 0 -38 16z" />
    <glyph glyph-name="gravecomb.cap" horiz-adv-x="0" 
d="M30 890h107l49 -128h-67z" />
    <glyph glyph-name="acutecomb.cap" horiz-adv-x="0" 
d="M79 890h107l-89 -128h-67z" />
    <glyph glyph-name="uni030B.cap" horiz-adv-x="0" 
d="M243 890h107l-89 -128h-67zM79 890h107l-89 -128h-67z" />
    <glyph glyph-name="uni0302.cap" horiz-adv-x="0" 
d="M141 890h110l111 -128h-76l-90 70l-90 -70h-76z" />
    <glyph glyph-name="uni030C.cap" horiz-adv-x="0" 
d="M30 890h76l90 -70l90 70h76l-111 -128h-110z" />
    <glyph glyph-name="uni0306.cap" horiz-adv-x="0" 
d="M72.5 788.5q-42.5 36.5 -42.5 101.5h68q2 -37 25.5 -55t58.5 -18q34 0 58 18t25 55h68q0 -65 -42 -101.5t-109 -36.5t-109.5 36.5z" />
    <glyph glyph-name="uni030A.cap" horiz-adv-x="0" 
d="M55.5 777.5q-25.5 24.5 -25.5 60.5t25.5 60.5t60.5 24.5t61 -24.5t26 -60.5t-26 -60.5t-61 -24.5t-60.5 24.5zM139.5 814q9.5 10 9.5 24t-9.5 24t-22.5 10t-23.5 -10t-10.5 -24q0 -13 10.5 -23.5t23.5 -10.5t22.5 10z" />
    <glyph glyph-name="tildecomb.cap" horiz-adv-x="0" 
d="M246 765.5q-20 8.5 -45 25.5l-27 18q-24 16 -45 16q-36 0 -36 -58h-63v25q0 43 26.5 72t67.5 29q37 0 80 -29l25 -18q32 -21 51 -21q36 0 36 58h63v-25q0 -43 -26 -72t-66 -29q-21 0 -41 8.5z" />
    <glyph glyph-name="uni0304.cap" horiz-adv-x="0" 
d="M30 848h289v-68h-289v68z" />
    <glyph glyph-name="edgeleft.case" horiz-adv-x="369" 
d="M129 35.5q-38 35.5 -38 88.5q0 29 10 52.5t29 36.5q-39 17 -61 54.5t-22 82.5t22 82.5t61 54.5q-19 13 -29 36.5t-10 52.5q0 53 38 88.5t96 35.5h95v-80h-90q-23 0 -38.5 -14.5t-15.5 -39.5q0 -26 15 -40t39 -14h30v-80h-50q-34 0 -56 -22.5t-22 -58.5q0 -38 21.5 -60.5
t56.5 -22.5h50v-80h-30q-23 0 -38.5 -14.5t-15.5 -39.5q0 -26 15 -40t39 -14h90v-80h-95q-58 0 -96 35.5z" />
    <glyph glyph-name="edgeright.case" horiz-adv-x="369" 
d="M240 664.5q38 -35.5 38 -88.5q0 -29 -10 -52.5t-29 -36.5q39 -17 61 -54.5t22 -82.5t-22 -82.5t-61 -54.5q19 -13 29 -36.5t10 -52.5q0 -53 -38 -88.5t-96 -35.5h-95v80h90q23 0 38.5 14.5t15.5 39.5q0 26 -15 40t-39 14h-30v80h50q34 0 56 22.5t22 58.5q0 38 -21.5 60.5
t-56.5 22.5h-50v80h30q23 0 38.5 14.5t15.5 39.5q0 26 -15 40t-39 14h-90v80h95q58 0 96 -35.5z" />
    <glyph glyph-name="ringacutecomb.cap" horiz-adv-x="233" 
d="M53 765q-23 22 -23 55t23 55t54 22t54 -22t23 -55t-23 -55t-54 -22t-54 22zM127.5 799q8.5 8 8.5 21t-8.5 21t-20.5 8t-20.5 -8t-8.5 -21t8.5 -21t20.5 -8t20.5 8zM116 1013h87l-67 -88h-54z" />
    </font>
</defs>
</svg>
