<?xml version="1.0" standalone="no"?>
<!DOCTYPE svg PUBLIC "-//W3C//DTD SVG 1.1//EN" "http://www.w3.org/Graphics/SVG/1.1/DTD/svg11.dtd" >
<svg xmlns="http://www.w3.org/2000/svg" xmlns:xlink="http://www.w3.org/1999/xlink" version="1.1">
<metadata>
Created by FontForge 20201107 at Fri Jan 24 12:21:21 2025
 By 
OpenAI OpCo. L.L.C.
</metadata>
<defs>
<font id="OpenAISans-MediumItalic" horiz-adv-x="600" vert-adv-y="1000" >
  <font-face 
    font-family="OpenAI Sans"
    font-weight="500"
    font-style="italic"
    font-stretch="normal"
    units-per-em="1000"
    panose-1="2 11 5 4 3 2 2 6 2 3"
    ascent="800"
    descent="-200"
    x-height="500"
    cap-height="700"
    bbox="-211 -262 2231 1016"
    underline-thickness="50"
    underline-position="-125"
    slope="-12"
    unicode-range="U+000D-FB02"
  />
<missing-glyph horiz-adv-x="709" vert-adv-y="1193" 
d="M125 700h500v-700h-500v700zM547 76v548h-345v-548h345z" />
    <glyph glyph-name="fi" unicode="fi" horiz-adv-x="629" vert-adv-y="1193" 
d="M164 420h-110l17 80h110l15 71q14 68 47 98.5t103 30.5h121l-17 -82h-93q-32 0 -47 -12.5t-22 -43.5l-12 -62h331l-106 -500h-95l90 420h-237l-89 -420h-95zM545 598q-16 16 -16 39q0 27 20 46.5t47 19.5q24 0 39.5 -16t15.5 -39q0 -27 -19.5 -46.5t-46.5 -19.5
q-24 0 -40 16z" />
    <glyph glyph-name="fl" unicode="fl" horiz-adv-x="630" vert-adv-y="1193" 
d="M164 420h-110l17 80h110l15 71q14 68 47 98.5t103 30.5h304l-149 -700h-95l132 618h-181q-32 0 -47 -12.5t-22 -43.5l-12 -62h124l-17 -80h-124l-89 -420h-95z" />
    <glyph glyph-name="f_f" unicode="ff" horiz-adv-x="696" vert-adv-y="1193" 
d="M164 420h-110l17 80h110l15 71q14 68 47 98.5t103 30.5h121l-17 -82h-93q-32 0 -47 -12.5t-22 -43.5l-12 -62h237l14 71q14 68 47 98.5t103 30.5h122l-17 -82h-93q-32 0 -47 -12.5t-22 -43.5l-12 -62h124l-17 -80h-125l-88 -420h-95l88 420h-236l-89 -420h-95z" />
    <glyph glyph-name="f_f_i" unicode="ffi" horiz-adv-x="962" vert-adv-y="1193" 
d="M164 420h-110l17 80h110l15 71q14 68 47 98.5t103 30.5h121l-17 -82h-93q-32 0 -47 -12.5t-22 -43.5l-12 -62h237l15 71q14 68 47 98.5t103 30.5h121l-17 -82h-93q-32 0 -47 -12.5t-22 -43.5l-12 -62h332l-106 -500h-95l89 420h-237l-89 -420h-95l89 420h-237l-89 -420
h-95zM878.5 597q-15.5 15 -15.5 38q0 27 19.5 47.5t46.5 20.5q24 0 39.5 -15t15.5 -39q0 -27 -20 -47t-46 -20q-24 0 -39.5 15z" />
    <glyph glyph-name="f_f_l" unicode="ffl" horiz-adv-x="962" vert-adv-y="1193" 
d="M164 420h-110l17 80h110l15 71q14 68 47 98.5t103 30.5h121l-17 -82h-93q-32 0 -47 -12.5t-22 -43.5l-12 -62h237l15 71q14 68 46.5 98.5t102.5 30.5h306l-149 -700h-95l131 618h-180q-32 0 -47 -12.5t-22 -43.5l-13 -62h125l-18 -80h-125l-88 -420h-95l88 420h-236
l-89 -420h-95z" />
    <glyph glyph-name="w_w_w.liga" unicode="www" horiz-adv-x="2063" vert-adv-y="1193" 
d="M67 500h94l28 -401l191 401h103l27 -401l195 401h101l28 -401l192 401h103l26 -401l195 401h102l28 -401l191 401h104l26 -401l195 401h102l-259 -500h-110l-25 390l-189 -390h-109l-32 347l-181 -347h-109l-25 390l-189 -390h-109l-33 347l-181 -347h-109l-25 390
l-188 -390h-110z" />
    <glyph glyph-name=".notdef" horiz-adv-x="709" vert-adv-y="1193" 
d="M125 700h500v-700h-500v700zM547 76v548h-345v-548h345z" />
    <glyph glyph-name=".null" horiz-adv-x="0" vert-adv-y="0" 
 />
    <glyph glyph-name="nonmarkingreturn" unicode="&#xd;" horiz-adv-x="240" vert-adv-y="1193" 
 />
    <glyph glyph-name="space" unicode=" " horiz-adv-x="240" vert-adv-y="1193" 
 />
    <glyph glyph-name="exclam" unicode="!" horiz-adv-x="270" vert-adv-y="1193" 
d="M45.5 5.5q-17.5 16.5 -17.5 42.5q0 32 23 55t53 23q27 0 44.5 -18.5t17.5 -44.5q0 -30 -23 -52t-53 -22q-27 0 -44.5 16.5zM132 476l48 224h99l-48 -224l-85 -283h-50z" />
    <glyph glyph-name="quotedbl" unicode="&#x22;" horiz-adv-x="359" vert-adv-y="1193" 
d="M289 614l19 86h91l-18 -86l-58 -133h-37zM129 614l18 86h91l-18 -86l-58 -133h-37z" />
    <glyph glyph-name="numbersign" unicode="#" horiz-adv-x="671" vert-adv-y="1193" 
d="M156 176h-105v83h123l39 182h-119v83h136l38 176h90l-38 -176h146l37 176h91l-37 -176h105v-83h-122l-38 -182h118v-83h-135l-37 -176h-91l37 176h-148l-38 -176h-90zM411 259l38 182h-146l-39 -182h147z" />
    <glyph glyph-name="dollar" unicode="$" horiz-adv-x="616" vert-adv-y="1193" 
d="M231 -5l-44 -115h-85l52 136q-59 25 -92 72.5t-33 112.5q0 16 1 24h98q-2 -41 14 -71.5t46 -48.5l82 217l-9 3q-74 24 -110.5 66t-36.5 107q0 61 33 109t90.5 75.5t129.5 27.5q28 0 50 -3l43 113h85l-51 -134q62 -27 96 -78t32 -118h-100q-1 37 -17 64.5t-45 43.5
l-79 -208l19 -6q156 -52 156 -183q0 -62 -31.5 -110t-90 -74.5t-136.5 -26.5q-34 0 -67 5zM234.5 453.5q20.5 -21.5 60.5 -34.5l11 -4l78 204q-8 1 -17 1h-10q-61 0 -102 -32t-41 -80q0 -33 20.5 -54.5zM294 80h10q67 0 109 30.5t42 81.5q0 35 -23.5 60.5t-85.5 45.5
l-82 -216q18 -2 30 -2z" />
    <glyph glyph-name="percent" unicode="%" horiz-adv-x="947" vert-adv-y="1193" 
d="M725 700h92l-560 -700h-92zM120.5 344.5q-40.5 44.5 -40.5 121.5q0 14 4 46q12 85 61 139t124 54q71 0 111.5 -45t40.5 -122q0 -21 -3 -44q-12 -88 -61 -141t-126 -53q-70 0 -110.5 44.5zM305.5 403.5q28.5 39.5 36.5 98.5q2 11 2 33q0 46 -19 76t-57 30h-4
q-41 0 -68.5 -39t-36.5 -99q-3 -18 -3 -34q0 -46 18.5 -75.5t56.5 -29.5h4q42 0 70.5 39.5zM607.5 39.5q-40.5 44.5 -40.5 121.5q0 14 4 46q12 85 61 139t124 54q71 0 112 -44t41 -121q0 -14 -4 -46q-12 -88 -61 -141t-126 -53q-70 0 -110.5 44.5zM792.5 98.5
q28.5 39.5 36.5 98.5q2 11 2 33q0 46 -19 76t-57 30h-4q-41 0 -68.5 -39t-36.5 -99q-3 -18 -3 -34q0 -46 18.5 -75.5t56.5 -29.5h4q42 0 70.5 39.5z" />
    <glyph glyph-name="ampersand" unicode="&#x26;" horiz-adv-x="690" vert-adv-y="1193" 
d="M153 9.5q-49 20.5 -79 62t-30 102.5q0 145 166 216q-25 38 -36.5 68t-11.5 65q0 9 2 29q4 45 30.5 81t68.5 57t93 21q54 0 95 -23t62.5 -62t17.5 -84q-6 -63 -50.5 -110t-123.5 -73l-13 -5l130 -170q48 66 67 154l5 24h93l-6 -28q-13 -61 -40 -117.5t-66 -101.5l88 -115
h-109l-43 56q-89 -67 -202 -67q-59 0 -108 20.5zM177 103q35 -28 93 -28q79 0 143 47l-155 202q-61 -25 -88.5 -60.5t-27.5 -81.5q0 -51 35 -79zM262 475q10 -24 33 -56l28 8q60 19 85.5 47.5t29.5 69.5q4 37 -21 61.5t-68 24.5q-45 0 -71 -28.5t-26 -77.5q0 -25 10 -49z
" />
    <glyph glyph-name="quotesingle" unicode="'" horiz-adv-x="198" vert-adv-y="1193" 
d="M129 614l18 86h91l-18 -86l-58 -133h-37z" />
    <glyph glyph-name="parenleft" unicode="(" horiz-adv-x="387" vert-adv-y="1193" 
d="M168.5 -73.5q-50.5 56.5 -79 144t-28.5 190.5q0 150 60.5 282t161 214t213.5 88l-18 -83q-87 -18 -161 -91t-117 -181t-43 -228q0 -117 36.5 -204.5t105.5 -122.5l-17 -80q-63 15 -113.5 71.5z" />
    <glyph glyph-name="parenright" unicode=")" horiz-adv-x="394" vert-adv-y="1193" 
d="M267.5 773.5q50.5 -56.5 79 -144t28.5 -190.5q0 -150 -60.5 -282t-161 -214t-213.5 -88l18 83q87 18 161 91t117 181t43 228q0 117 -36.5 204.5t-105.5 122.5l17 80q63 -15 113.5 -71.5z" />
    <glyph glyph-name="asterisk" unicode="*" horiz-adv-x="418" vert-adv-y="1193" 
d="M162 453l58 99h-113v64h113l-58 99l57 32l58 -98l57 98l57 -32l-57 -99h112v-64h-112l57 -99l-57 -32l-58 98l-57 -98z" />
    <glyph glyph-name="plus" unicode="+" horiz-adv-x="592" vert-adv-y="1193" 
d="M240 215h-198l18 85h198l43 200h97l-43 -200h198l-17 -85h-199l-43 -200h-97z" />
    <glyph glyph-name="comma" unicode="," horiz-adv-x="257" vert-adv-y="1193" 
d="M-33 -75h34q59 0 73 60l3 15h-60l26 120h120l-29 -139q-14 -63 -49.5 -90t-93.5 -27h-38z" />
    <glyph glyph-name="hyphen" unicode="-" horiz-adv-x="383" vert-adv-y="1193" 
d="M75 343h270l-17 -81h-270z" />
    <glyph glyph-name="period" unicode="." horiz-adv-x="244" vert-adv-y="1193" 
d="M33.5 7.5q-17.5 17.5 -17.5 43.5q0 31 23 53.5t52 22.5q27 0 44.5 -18t17.5 -44q0 -30 -22.5 -52.5t-53.5 -22.5q-26 0 -43.5 17.5z" />
    <glyph glyph-name="slash" unicode="/" horiz-adv-x="363" vert-adv-y="1193" 
d="M339 700h101l-374 -700h-102z" />
    <glyph glyph-name="zero" unicode="0" horiz-adv-x="666" vert-adv-y="1193" 
d="M180.5 25q-54.5 35 -83 99.5t-28.5 150.5q0 97 35.5 198t109.5 169t184 68q75 0 129 -35t83 -99t29 -149q0 -98 -35.5 -199t-109.5 -169.5t-184 -68.5q-75 0 -129.5 35zM431.5 122.5q50.5 46.5 80 126.5t29.5 175q0 85 -36 142.5t-107 57.5h-10q-60 0 -111 -46.5
t-80.5 -126.5t-29.5 -175q0 -85 36.5 -142.5t107.5 -57.5h10q60 0 110.5 46.5z" />
    <glyph glyph-name="one" unicode="1" horiz-adv-x="352" vert-adv-y="1193" 
d="M215 498h-141l14 67q65 0 116 36.5t73 98.5h76l-148 -700h-96z" />
    <glyph glyph-name="two" unicode="2" horiz-adv-x="572" vert-adv-y="1193" 
d="M33 100l286 226q74 58 107.5 100.5t33.5 92.5q0 47 -33 76t-86 29h-10q-55 0 -93.5 -38t-41.5 -96h-98q2 64 33.5 114t85 78t119.5 28q67 0 118 -24.5t78 -67t27 -95.5q0 -76 -42 -132.5t-132 -127.5l-222 -174h341l-17 -89h-475z" />
    <glyph glyph-name="three" unicode="3" horiz-adv-x="578" vert-adv-y="1193" 
d="M88 42.5q-62 52.5 -62 141.5h97q4 -51 37.5 -79.5t91.5 -28.5h9q65 0 107.5 36t42.5 93q0 50 -37 79t-96 29h-34l19 86h59q65 0 106 33.5t41 89.5q0 47 -33 74.5t-85 27.5h-10q-52 0 -89.5 -30.5t-44.5 -79.5h-97q5 56 37.5 100.5t86 70t119.5 25.5q62 0 110.5 -22
t76 -62.5t27.5 -94.5q0 -66 -39 -115.5t-107 -69.5q39 -20 63.5 -56.5t24.5 -85.5q0 -66 -32 -114t-89.5 -74t-130.5 -26q-107 0 -169 52.5z" />
    <glyph glyph-name="four" unicode="4" horiz-adv-x="618" vert-adv-y="1193" 
d="M362 158h-345l21 101l410 441h122l-97 -456h111l-17 -86h-112l-33 -158h-94zM380 244l71 339l-312 -339h241z" />
    <glyph glyph-name="five" unicode="5" horiz-adv-x="583" vert-adv-y="1193" 
d="M109 41.5q-64 51.5 -68 143.5h98q6 -51 41 -80t88 -29h10q45 0 81 21.5t56 59t20 83.5q0 56 -36 90.5t-92 34.5h-9q-41 0 -79.5 -21.5t-60.5 -57.5h-98l144 414h390l-19 -89h-315l-72 -209q54 47 135 47q62 0 110 -26.5t74.5 -73t26.5 -105.5q0 -76 -34 -133.5t-93.5 -89
t-134.5 -31.5q-99 0 -163 51.5z" />
    <glyph glyph-name="six" unicode="6" horiz-adv-x="616" vert-adv-y="1193" 
d="M130 57.5q-63 67.5 -63 196.5q0 52 12 115q26 150 106.5 245.5t204.5 95.5q60 0 109 -22.5t79 -63.5t35 -94h-100q-8 42 -41.5 68t-81.5 26h-7q-73 0 -125.5 -66t-79.5 -180q32 40 77.5 61t96.5 21q60 0 107.5 -25.5t75 -72.5t27.5 -107q0 -18 -1 -27q-7 -72 -43.5 -126
t-93.5 -83t-125 -29q-106 0 -169 67.5zM383.5 99q35.5 22 56.5 60.5t21 84.5q0 57 -34.5 93.5t-89.5 36.5h-9q-42 0 -78.5 -21.5t-58.5 -59t-22 -83.5q0 -58 36 -95.5t92 -37.5h9q42 0 77.5 22z" />
    <glyph glyph-name="seven" unicode="7" horiz-adv-x="526" vert-adv-y="1193" 
d="M226 392.5q82 142.5 219 217.5h-348l19 90h486l-19 -89q-112 -53 -186 -127t-119 -185.5t-65 -275.5l-3 -23h-98l6 44q26 206 108 348.5z" />
    <glyph glyph-name="eight" unicode="8" horiz-adv-x="597" vert-adv-y="1193" 
d="M150 14.5q-52 24.5 -79.5 67.5t-27.5 98q0 72 48 123t119 66q-38 20 -61 57t-23 84q0 55 30.5 100.5t85 72.5t123.5 27t120 -26t77 -69.5t22 -93.5q-6 -64 -47 -109.5t-102 -63.5q43 -20 70.5 -63.5t23.5 -96.5q-4 -59 -37 -103.5t-89.5 -69.5t-129.5 -25
q-71 0 -123 24.5zM389.5 111.5q40.5 35.5 40.5 91.5q0 49 -36 79t-96 30h-11q-65 0 -106 -35t-41 -90q0 -49 36.5 -80t97.5 -31h9q66 0 106.5 35.5zM446.5 435q37.5 35 37.5 88q0 44 -31.5 72.5t-86.5 28.5h-10q-40 0 -70.5 -16.5t-47 -44t-16.5 -59.5q0 -46 31 -75t86 -29
h9q61 0 98.5 35z" />
    <glyph glyph-name="nine" unicode="9" horiz-adv-x="619" vert-adv-y="1193" 
d="M115.5 40q-61.5 50 -69.5 131h98q7 -41 41 -67.5t82 -26.5h8q73 0 128 66t80 178q-31 -39 -76.5 -60t-97.5 -21q-61 0 -109 26t-75.5 73.5t-27.5 109.5q0 77 34.5 136.5t94 92t131.5 32.5q106 0 170.5 -69t64.5 -200q0 -52 -10 -108q-16 -98 -57.5 -175.5t-106.5 -122.5
t-149 -45q-92 0 -153.5 50zM410 347.5q37 21.5 59 59.5t22 84q0 57 -37 94.5t-93 37.5h-10q-41 0 -76.5 -22t-57 -60t-21.5 -83q0 -58 35 -95t90 -37h10q42 0 79 21.5z" />
    <glyph glyph-name="colon" unicode=":" horiz-adv-x="273" vert-adv-y="1193" 
d="M43.5 8.5q-17.5 18.5 -17.5 44.5q0 30 23 52t53 22q27 0 44.5 -18t17.5 -44q0 -31 -23 -53t-53 -22q-27 0 -44.5 18.5zM125.5 392q-17.5 18 -17.5 44q0 30 23 52.5t53 22.5q28 0 46 -20.5t16 -47.5q-4 -30 -26 -49.5t-50 -19.5q-27 0 -44.5 18z" />
    <glyph glyph-name="semicolon" unicode=";" horiz-adv-x="290" vert-adv-y="1193" 
d="M-20 -75h33q60 0 74 60l3 15h-60l26 120h121l-31 -139q-13 -62 -49 -89.5t-93 -27.5h-37zM133.5 392q-17.5 18 -17.5 44q0 30 23 52.5t52 22.5q27 0 44.5 -17.5t17.5 -43.5q0 -31 -22.5 -53.5t-53.5 -22.5q-26 0 -43.5 18z" />
    <glyph glyph-name="less" unicode="&#x3c;" horiz-adv-x="548" vert-adv-y="1193" 
d="M44 215l19 83l462 175l-23 -107l-318 -116l269 -114l-20 -95z" />
    <glyph glyph-name="equal" unicode="=" horiz-adv-x="618" vert-adv-y="1193" 
d="M92 393h494l-19 -87h-494zM53 208h494l-19 -86h-494z" />
    <glyph glyph-name="greater" unicode="&#x3e;" horiz-adv-x="548" vert-adv-y="1193" 
d="M48 146l320 116l-271 114l21 96l388 -174l-18 -83l-463 -175z" />
    <glyph glyph-name="question" unicode="?" horiz-adv-x="496" vert-adv-y="1193" 
d="M269 397l38 12q54 16 85 42.5t31 80.5q0 42 -30 68t-84 26q-48 0 -83.5 -29t-41.5 -78h-98q5 60 38.5 103.5t84.5 65.5t108 22t103.5 -21t73.5 -61.5t27 -94.5q0 -74 -45 -124t-122 -74l-41 -13q-27 -8 -36 -18t-15 -33l-16 -66h-96l21 95q16 73 98 97zM117.5 6.5
q-17.5 17.5 -17.5 43.5q0 31 23 53.5t53 22.5q26 0 43.5 -18.5t17.5 -44.5q0 -30 -23 -52t-53 -22q-26 0 -43.5 17.5z" />
    <glyph glyph-name="at" unicode="@" horiz-adv-x="921" vert-adv-y="700" 
d="M242.5 -83.5q-88.5 41.5 -139.5 122t-51 192.5q0 138 62 252t173 180.5t251 66.5q105 0 186.5 -41.5t127 -115t45.5 -166.5q0 -75 -28.5 -146.5t-87.5 -118.5t-147 -47h-105l13 59q-18 -29 -53 -49t-75 -20q-42 0 -75.5 23t-52.5 63.5t-19 90.5q0 58 23.5 115.5t71 95
t114.5 37.5q48 0 80.5 -24.5t43.5 -61.5l15 76h88l-70 -332h7q58 0 95.5 38.5t54.5 94.5t17 109q0 72 -33 125.5t-95.5 83t-147.5 29.5q-112 0 -200.5 -56t-137.5 -150t-49 -204q0 -87 37.5 -150t107 -96.5t164.5 -33.5h212l-18 -83h-205q-111 0 -199.5 41.5zM510 187.5
q30 27.5 46.5 69t16.5 80.5q0 45 -20.5 71.5t-56.5 26.5h-7q-44 0 -73.5 -28.5t-42.5 -68.5t-13 -76q0 -46 20.5 -74t55.5 -28h5q39 0 69 27.5z" />
    <glyph glyph-name="A" unicode="A" horiz-adv-x="687" vert-adv-y="1193" 
d="M377 700h125l123 -700h-96l-31 177h-335l-107 -177h-104zM482 268l-60 339l-205 -339h265z" />
    <glyph glyph-name="B" unicode="B" horiz-adv-x="674" vert-adv-y="1193" 
d="M185 700h272q91 0 147 -44t56 -124q0 -69 -42.5 -119.5t-110.5 -64.5q47 -17 73.5 -54t26.5 -89q0 -56 -28.5 -103t-79 -74.5t-113.5 -27.5h-350zM468 122q39 32 39 94q0 44 -28.5 69t-81.5 25h-195l-47 -220h219q55 0 94 32zM522 432.5q38 32.5 38 85.5q0 92 -121 92
h-173l-45 -210h208q55 0 93 32.5z" />
    <glyph glyph-name="C" unicode="C" horiz-adv-x="718" vert-adv-y="1193" 
d="M206 30q-67 40 -102.5 110.5t-35.5 161.5q0 24 3 48q11 103 59.5 185t126.5 128.5t176 46.5q80 0 141.5 -30.5t96.5 -85t36 -125.5h-101q-5 67 -51 108.5t-122 41.5h-9q-67 0 -121.5 -35t-88.5 -96.5t-43 -137.5q-3 -22 -3 -44q0 -65 23.5 -116t68 -80t105.5 -29h9
q75 0 128.5 41.5t74.5 109.5h104q-17 -72 -61.5 -127t-110 -85t-144.5 -30q-92 0 -159 40z" />
    <glyph glyph-name="D" unicode="D" horiz-adv-x="717" vert-adv-y="1193" 
d="M185 700h192q117 0 187 -42.5t98.5 -108t28.5 -140.5q0 -102 -41.5 -196.5t-121.5 -153.5t-189 -59h-303zM475 135q58 45 87 117.5t29 154.5q0 96 -55.5 149.5t-158.5 53.5h-112l-108 -520h177q83 0 141 45z" />
    <glyph glyph-name="E" unicode="E" horiz-adv-x="652" vert-adv-y="1193" 
d="M185 700h510l-20 -90h-409l-44 -205h350l-19 -90h-350l-47 -225h419l-19 -90h-520z" />
    <glyph glyph-name="F" unicode="F" horiz-adv-x="610" vert-adv-y="1193" 
d="M185 700h490l-20 -90h-389l-48 -225h340l-19 -90h-340l-63 -295h-100z" />
    <glyph glyph-name="G" unicode="G" horiz-adv-x="758" vert-adv-y="1193" 
d="M208.5 28.5q-66.5 38.5 -103.5 107t-37 156.5q0 116 46 211.5t131.5 151t198.5 55.5q78 0 141 -31t100 -85.5t39 -120.5h-101q-8 70 -60 108.5t-125 38.5h-10q-75 0 -134.5 -43.5t-92.5 -115.5t-33 -155q0 -105 54 -165.5t144 -60.5h8q86 0 152 50.5t90 142.5h-213l19 88
h210q39 0 59 -19t20 -54q0 -12 -3 -29l-55 -259h-89l20 93q-34 -46 -92.5 -74.5t-131.5 -28.5q-85 0 -151.5 38.5z" />
    <glyph glyph-name="H" unicode="H" horiz-adv-x="735" vert-adv-y="1193" 
d="M185 700h100l-64 -305h354l65 305h100l-149 -700h-100l65 305h-355l-65 -305h-100z" />
    <glyph glyph-name="I" unicode="I" horiz-adv-x="280" vert-adv-y="1193" 
d="M185 700h100l-149 -700h-100z" />
    <glyph glyph-name="J" unicode="J" horiz-adv-x="384" vert-adv-y="1193" 
d="M-20 95h100q46 0 70 22.5t35 72.5l109 510h100l-111 -520q-20 -96 -70.5 -138t-145.5 -42h-107z" />
    <glyph glyph-name="K" unicode="K" horiz-adv-x="650" vert-adv-y="1193" 
d="M185 700h100l-73 -344l409 344h139l-340 -286l198 -414h-110l-166 348l-160 -132l-45 -216h-100z" />
    <glyph glyph-name="L" unicode="L" horiz-adv-x="612" vert-adv-y="1193" 
d="M185 700h100l-129 -610h411l-19 -90h-512z" />
    <glyph glyph-name="M" unicode="M" horiz-adv-x="933" vert-adv-y="1193" 
d="M185 700h161l85 -614l344 614h163l-149 -700h-100l128 603l-337 -603h-130l-85 607l-129 -607h-100z" />
    <glyph glyph-name="N" unicode="N" horiz-adv-x="745" vert-adv-y="1193" 
d="M185 700h135l205 -586l125 586h100l-149 -700h-134l-207 585l-124 -585h-100z" />
    <glyph glyph-name="O" unicode="O" horiz-adv-x="772" vert-adv-y="1193" 
d="M216.5 28q-69.5 38 -109 108t-39.5 164q0 25 3 50q12 108 62.5 189.5t129.5 126t174 44.5q88 0 158 -38t110 -108.5t40 -164.5q0 -23 -3 -49q-12 -108 -63 -189.5t-130.5 -126t-174.5 -44.5q-88 0 -157.5 38zM503 113.5q55 32.5 91.5 93.5t46.5 143q3 23 3 43
q0 69 -26.5 120t-73.5 78.5t-107 27.5h-9q-65 0 -120 -32.5t-91.5 -93.5t-45.5 -143q-3 -24 -3 -45q0 -69 26 -119.5t72.5 -77.5t106.5 -27h10q65 0 120 32.5z" />
    <glyph glyph-name="P" unicode="P" horiz-adv-x="636" vert-adv-y="1193" 
d="M185 700h252q65 0 114 -24t76 -67t27 -100q0 -66 -29.5 -119.5t-83 -84t-122.5 -30.5h-224l-59 -275h-100zM515 403.5q38 37.5 38 98.5q0 51 -34.5 79.5t-102.5 28.5h-150l-52 -244h203q60 0 98 37.5z" />
    <glyph glyph-name="Q" unicode="Q" horiz-adv-x="772" vert-adv-y="1193" 
d="M503 113.5q55 32.5 91.5 93.5t46.5 143q3 23 3 43q0 69 -26.5 120t-73.5 78.5t-107 27.5h-9q-65 0 -120 -32.5t-91.5 -93.5t-45.5 -143q-3 -24 -3 -45q0 -69 26 -119.5t72.5 -77.5t106.5 -27h10q65 0 120 32.5zM266 -96q0 9 4 35l14 62q-98 26 -157 104.5t-59 193.5
q0 24 3 51q12 108 62.5 189.5t129.5 126t174 44.5q88 0 158 -38t110 -108.5t40 -164.5q0 -23 -3 -49q-12 -107 -62 -188.5t-129 -126t-174 -45.5l-8 -40q-2 -14 -2 -19q0 -17 10 -24t32 -7h143l-18 -88h-154q-114 0 -114 92z" />
    <glyph glyph-name="R" unicode="R" horiz-adv-x="685" vert-adv-y="1193" 
d="M185 700h272q95 0 151.5 -48t56.5 -130q0 -69 -35.5 -121t-99.5 -72q66 -20 66 -88q0 -21 -6 -47l-23 -105q-13 -56 -13 -89h-101q-1 23 9 70l29 135q3 14 3 25q0 51 -64 51h-234l-59 -281h-100zM522.5 409q39.5 38 39.5 99q0 50 -32.5 76t-95.5 26h-168l-50 -239h200
q67 0 106.5 38z" />
    <glyph glyph-name="S" unicode="S" horiz-adv-x="620" vert-adv-y="1193" 
d="M103.5 46q-73.5 56 -73.5 156q0 15 1 23h98q-4 -71 42 -108t124 -37h10q67 0 109 30.5t42 81.5q0 36 -25 61.5t-90 46.5l-79 25q-74 24 -110.5 66t-36.5 107q0 61 33 109t90.5 75.5t129.5 27.5q76 0 135 -27.5t90.5 -77.5t29.5 -115h-100q-1 62 -43.5 96t-111.5 34h-10
q-61 0 -102 -32t-41 -80q0 -33 20.5 -54.5t60.5 -34.5l105 -35q156 -52 156 -183q0 -62 -31.5 -110t-90 -74.5t-136.5 -26.5q-122 0 -195.5 56z" />
    <glyph glyph-name="T" unicode="T" horiz-adv-x="622" vert-adv-y="1193" 
d="M338 610h-249l18 90h597l-19 -90h-247l-130 -610h-100z" />
    <glyph glyph-name="U" unicode="U" horiz-adv-x="698" vert-adv-y="1193" 
d="M140.5 47.5q-61.5 57.5 -61.5 157.5q0 36 9 78l89 417h100l-90 -424q-8 -38 -8 -67q0 -63 33.5 -96t101.5 -33h10q152 0 188 165l97 455h100l-102 -479q-24 -111 -98.5 -171t-198.5 -60q-108 0 -169.5 57.5z" />
    <glyph glyph-name="V" unicode="V" horiz-adv-x="688" vert-adv-y="1193" 
d="M101 700h100l106 -609l359 609h109l-421 -700h-127z" />
    <glyph glyph-name="W" unicode="W" horiz-adv-x="940" vert-adv-y="1193" 
d="M116 700h101l10 -603l267 603h131l17 -599l259 599h105l-312 -700h-137l-19 593l-261 -593h-137z" />
    <glyph glyph-name="X" unicode="X" horiz-adv-x="641" vert-adv-y="1193" 
d="M286 364l-169 336h113l129 -256l234 256h121l-313 -342l180 -358h-113l-140 277l-253 -277h-121z" />
    <glyph glyph-name="Y" unicode="Y" horiz-adv-x="634" vert-adv-y="1193" 
d="M274 288l-175 412h109l133 -315l260 315h122l-349 -413l-62 -287h-100z" />
    <glyph glyph-name="Z" unicode="Z" horiz-adv-x="610" vert-adv-y="1193" 
d="M4 96l514 514h-395l19 90h514l-19 -96l-515 -514h414l-19 -90h-533z" />
    <glyph glyph-name="bracketleft" unicode="[" horiz-adv-x="338" vert-adv-y="1193" 
d="M217 845h219l-18 -82h-126l-176 -826h127l-18 -82h-219z" />
    <glyph glyph-name="backslash" unicode="\" horiz-adv-x="397" vert-adv-y="1193" 
d="M111 700h96l122 -700h-97z" />
    <glyph glyph-name="bracketright" unicode="]" horiz-adv-x="337" vert-adv-y="1193" 
d="M162 -145h-219l18 82h126l176 826h-127l18 82h219z" />
    <glyph glyph-name="asciicircum" unicode="^" horiz-adv-x="557" vert-adv-y="1193" 
d="M324 700h103l87 -415h-90l-63 322l-200 -322h-100z" />
    <glyph glyph-name="underscore" unicode="_" horiz-adv-x="561" vert-adv-y="1193" 
d="M5 0h450l-17 -82h-450z" />
    <glyph glyph-name="grave" unicode="`" horiz-adv-x="237" vert-adv-y="1193" 
d="M121 700h104l44 -137h-62z" />
    <glyph glyph-name="a" unicode="a" horiz-adv-x="553" vert-adv-y="1193" 
d="M71 28q-45 38 -45 105q0 76 59 122t161 46h158l4 21q2 14 2 21q0 42 -32.5 65t-79.5 23h-7q-45 0 -77.5 -20.5t-40.5 -55.5h-94q11 69 71 112t146 43t144 -42t58 -122q0 -23 -6 -50l-39 -186q-16 -73 -17 -110h-89q0 29 6 59q-61 -69 -163 -69q-74 0 -119 38zM285 85
q35 16 61 45.5t34 67.5l7 31h-138q-60 0 -95.5 -24.5t-35.5 -66.5q0 -32 23 -50.5t64 -18.5h9q36 0 71 16z" />
    <glyph glyph-name="b" unicode="b" horiz-adv-x="609" vert-adv-y="1193" 
d="M203.5 15q-46.5 25 -68.5 69l-18 -84h-94l149 700h95l-55 -252q25 29 63 45.5t82 16.5q60 0 107.5 -26.5t74.5 -76.5t27 -117q0 -85 -34 -153.5t-93 -107.5t-132 -39q-57 0 -103.5 25zM386 99q39 28 62 76.5t23 107.5q0 66 -35.5 106t-94.5 40h-9q-46 0 -83.5 -30.5
t-59 -81.5t-21.5 -109q0 -61 35.5 -99t90.5 -38h9q44 0 83 28z" />
    <glyph glyph-name="c" unicode="c" horiz-adv-x="540" vert-adv-y="1193" 
d="M140.5 19.5q-48.5 29.5 -73.5 80.5t-25 115q0 11 2 35q8 73 42 132t90 93.5t127 34.5q60 0 106 -23.5t71.5 -64.5t27.5 -92h-95q-4 43 -33.5 71.5t-77.5 28.5h-3q-65 0 -107.5 -51.5t-51.5 -128.5q-2 -22 -2 -33q0 -64 31.5 -105t88.5 -41h3q48 0 83.5 29t49.5 70h98
q-22 -80 -84.5 -130t-151.5 -50q-67 0 -115.5 29.5z" />
    <glyph glyph-name="d" unicode="d" horiz-adv-x="608" vert-adv-y="1193" 
d="M142 16.5q-46 26.5 -73 76.5t-27 117q0 85 34 153.5t93 107.5t132 39q57 0 104 -25.5t69 -68.5l60 284h95l-149 -700h-95l11 52q-25 -28 -64 -45t-88 -17q-56 0 -102 26.5zM360.5 101.5q37.5 30.5 58.5 82t21 109.5q0 61 -35.5 98.5t-90.5 37.5h-9q-44 0 -82.5 -27.5
t-61.5 -76.5t-23 -108q0 -66 35 -106t95 -40h9q46 0 83.5 30.5z" />
    <glyph glyph-name="e" unicode="e" horiz-adv-x="546" vert-adv-y="1193" 
d="M146.5 17.5q-48.5 27.5 -76 78.5t-27.5 120q0 13 2 39q9 77 45 135t90.5 89t118.5 31q95 0 150.5 -58t55.5 -153q0 -34 -6 -67h-364l-1 -19q0 -67 35 -105t88 -38h6q42 0 75 22t48 60h97q-25 -74 -84.5 -118t-142.5 -44q-61 0 -109.5 27.5zM382 397q-31 34 -82 34h-7
q-48 0 -86.5 -31t-57.5 -93h262q2 56 -29 90z" />
    <glyph glyph-name="f" unicode="f" horiz-adv-x="364" vert-adv-y="1193" 
d="M164 420h-110l17 80h110l15 71q14 68 47 98.5t103 30.5h121l-17 -82h-93q-32 0 -47 -12.5t-22 -43.5l-12 -62h124l-17 -80h-124l-89 -420h-95z" />
    <glyph glyph-name="g" unicode="g" horiz-adv-x="597" vert-adv-y="1193" 
d="M59 -179q-60 41 -66 118h94q5 -37 38 -58.5t82 -21.5h9q64 0 104.5 38.5t55.5 108.5l11 52q-26 -27 -63 -42.5t-80 -15.5q-51 0 -96 23t-73.5 72t-28.5 121q0 89 33 155.5t89 102.5t123 36q62 0 107 -27t65 -68l18 85h95l-109 -511q-44 -209 -260 -209q-88 0 -148 41z
M353 108q37 28 57 75t20 101q0 68 -34.5 107.5t-88.5 39.5h-10q-41 0 -77 -26.5t-57.5 -74t-21.5 -109.5q0 -68 33.5 -104.5t84.5 -36.5h9q48 0 85 28z" />
    <glyph glyph-name="h" unicode="h" horiz-adv-x="571" vert-adv-y="1193" 
d="M171 700h95l-54 -256q55 66 139 66q74 0 121 -42t47 -119q0 -21 -7 -58l-62 -291h-95l61 291q5 25 5 41q0 44 -24 69.5t-69 25.5h-8q-49 0 -90 -44t-58 -127l-54 -256h-95z" />
    <glyph glyph-name="i" unicode="i" horiz-adv-x="245" vert-adv-y="1193" 
d="M128 500h95l-106 -500h-95zM163 602.5q-16 16.5 -16 39.5q0 26 19.5 46t46.5 20q24 0 40 -16t16 -39q0 -27 -20 -47t-46 -20q-24 0 -40 16.5z" />
    <glyph glyph-name="j" unicode="j" horiz-adv-x="245" vert-adv-y="1193" 
d="M-147 -100h94q29 0 44 12.5t21 41.5l116 546h95l-118 -553q-14 -67 -49.5 -98.5t-104.5 -31.5h-116zM163 602.5q-16 16.5 -16 39.5q0 26 19.5 46t46.5 20q24 0 40 -16t16 -39q0 -27 -20 -47t-46 -20q-24 0 -40 16.5z" />
    <glyph glyph-name="k" unicode="k" horiz-adv-x="523" vert-adv-y="1193" 
d="M170 700h95l-87 -411l259 211h133l-246 -199l160 -301h-106l-128 243l-98 -80l-35 -163h-95z" />
    <glyph glyph-name="l" unicode="l" horiz-adv-x="245" vert-adv-y="1193" 
d="M172 700h95l-149 -700h-95z" />
    <glyph glyph-name="m" unicode="m" horiz-adv-x="892" vert-adv-y="1193" 
d="M128 500h95l-12 -57q55 67 137 67q53 0 93 -24t58 -69q66 93 168 93q76 0 124 -42t48 -118q0 -30 -7 -59l-62 -291h-95l62 291q4 19 4 40q0 44 -23.5 70t-66.5 26h-8q-47 0 -87 -43.5t-57 -122.5l-55 -261h-95l61 291q5 25 5 42q0 44 -23.5 69t-66.5 25h-8
q-48 0 -88.5 -44t-57.5 -127l-54 -256h-95z" />
    <glyph glyph-name="n" unicode="n" horiz-adv-x="571" vert-adv-y="1193" 
d="M128 500h95l-12 -56q55 66 140 66q73 0 120 -42t47 -119q0 -29 -7 -58l-61 -291h-95l61 291q4 19 4 39q0 45 -24 70.5t-69 25.5h-7q-49 0 -90.5 -44t-58.5 -127l-54 -255h-95z" />
    <glyph glyph-name="o" unicode="o" horiz-adv-x="576" vert-adv-y="1193" 
d="M152 18.5q-51 28.5 -80.5 80.5t-29.5 119q0 25 2 38q10 74 47.5 132t95 90t124.5 32q64 0 115 -28.5t80 -80t29 -118.5q0 -19 -3 -39q-9 -74 -46.5 -131.5t-94.5 -90t-125 -32.5q-63 0 -114 28.5zM381 120q45 49 56 130q2 22 2 32q0 66 -35.5 106.5t-92.5 40.5h-7
q-63 0 -108 -49t-56 -130q-2 -22 -2 -32q0 -66 35.5 -106.5t91.5 -40.5h8q63 0 108 49z" />
    <glyph glyph-name="p" unicode="p" horiz-adv-x="609" vert-adv-y="1193" 
d="M128 500h95l-11 -52q25 28 62.5 45t81.5 17q60 0 107.5 -26.5t75 -76.5t27.5 -117q0 -85 -34 -153.5t-93 -107.5t-132 -39q-57 0 -104 26t-68 71l-61 -287h-95zM385 98.5q39 27.5 62 76.5t23 108q0 66 -35.5 106t-94.5 40h-9q-46 0 -83.5 -30.5t-58.5 -82t-21 -109.5
q0 -61 35 -98.5t90 -37.5h9q44 0 83 27.5z" />
    <glyph glyph-name="q" unicode="q" horiz-adv-x="608" vert-adv-y="1193" 
d="M333.5 6.5q-37.5 -16.5 -83.5 -16.5q-59 0 -106.5 26.5t-74.5 76.5t-27 117q0 85 34 153.5t93 107.5t132 39q57 0 104 -25.5t69 -68.5l18 84h94l-149 -700h-95l54 252q-25 -29 -62.5 -45.5zM360.5 101.5q37.5 30.5 58.5 81.5t21 109q0 61 -35.5 99t-89.5 38h-9
q-44 0 -83 -28t-62 -77t-23 -108q0 -65 35.5 -105t94.5 -40h9q46 0 83.5 30.5z" />
    <glyph glyph-name="r" unicode="r" horiz-adv-x="377" vert-adv-y="1193" 
d="M128 500h91l-18 -88q26 46 68 69.5t111 23.5h28l-19 -89h-30q-154 0 -195 -188l-48 -228h-95z" />
    <glyph glyph-name="s" unicode="s" horiz-adv-x="482" vert-adv-y="1193" 
d="M72 33.5q-54 43.5 -57 121.5h97q3 -43 32.5 -65t73.5 -22h9q41 0 66.5 19.5t25.5 51.5q0 26 -16 41.5t-52 24.5l-52 14q-65 17 -95 50.5t-30 85.5q0 42 24 77.5t67 56.5t98 21q84 0 139 -43.5t55 -120.5h-95q-1 40 -30 63t-69 23h-9q-38 0 -62 -20t-24 -51q0 -44 61 -60
l57 -16q58 -15 93 -49t35 -89q0 -72 -54 -114.5t-138 -42.5q-96 0 -150 43.5z" />
    <glyph glyph-name="t" unicode="t" horiz-adv-x="394" vert-adv-y="1193" 
d="M129.5 25q-31.5 25 -31.5 72q0 16 5 39l60 284h-114l17 80h116l35 162h93l-35 -162h124l-17 -80h-125l-61 -285q-2 -10 -2 -15q0 -37 52 -37h90l-17 -83h-97q-61 0 -92.5 25z" />
    <glyph glyph-name="u" unicode="u" horiz-adv-x="566" vert-adv-y="1193" 
d="M94.5 32q-41.5 42 -41.5 112q0 27 6 55l63 301h96l-65 -305q-4 -16 -4 -34q0 -40 21 -63.5t58 -23.5h9q56 0 99 47.5t61 133.5l52 245h96l-106 -500h-95l11 54q-59 -64 -147 -64q-72 0 -113.5 42z" />
    <glyph glyph-name="v" unicode="v" horiz-adv-x="511" vert-adv-y="1193" 
d="M67 500h98l56 -405l227 405h102l-288 -500h-119z" />
    <glyph glyph-name="w" unicode="w" horiz-adv-x="776" vert-adv-y="1193" 
d="M69 500h94l27 -404l193 404h103l25 -401l196 401h102l-259 -500h-110l-25 391l-188 -391h-110z" />
    <glyph glyph-name="x" unicode="x" horiz-adv-x="509" vert-adv-y="1193" 
d="M203 257l-131 243h102l93 -173l162 173h115l-236 -251l134 -249h-102l-96 180l-169 -180h-114z" />
    <glyph glyph-name="y" unicode="y" horiz-adv-x="525" vert-adv-y="1193" 
d="M-54 -97h94q30 0 49.5 13t38.5 44l42 70l-117 470h96l89 -358l218 358h107l-351 -573q-38 -62 -77 -85t-97 -23h-110z" />
    <glyph glyph-name="z" unicode="z" horiz-adv-x="489" vert-adv-y="1193" 
d="M6 88l355 330h-279l17 82h394l-18 -87l-357 -331h301l-17 -82h-414z" />
    <glyph glyph-name="braceleft" unicode="{" horiz-adv-x="360" vert-adv-y="1193" 
d="M86 -117.5q-27 27.5 -27 73.5q0 20 4 39l48 229q2 7 2 20q0 38 -41 38h-28l29 136h35q23 0 35.5 12.5t18.5 41.5l50 239q16 74 48 104t93 30h105l-17 -82h-60q-38 0 -54.5 -17.5t-24.5 -57.5l-52 -252q-16 -76 -85 -76h-19l-5 -20h7q31 0 47.5 -19t16.5 -49q0 -14 -2 -22
l-53 -243q-4 -22 -4 -28q0 -21 12 -31.5t39 -10.5h62l-18 -82h-83q-52 0 -79 27.5z" />
    <glyph glyph-name="bar" unicode="|" horiz-adv-x="279" vert-adv-y="1193" 
d="M203 785h99l-184 -870h-99z" />
    <glyph glyph-name="braceright" unicode="}" horiz-adv-x="359" vert-adv-y="1193" 
d="M315 818.5q27 -27.5 27 -73.5q0 -20 -4 -39l-48 -229q-2 -7 -2 -20q0 -38 41 -38h28l-29 -136h-35q-23 0 -35.5 -12.5t-18.5 -41.5l-50 -239q-16 -74 -48 -104t-93 -30h-105l17 82h60q38 0 54.5 17.5t24.5 57.5l52 252q16 76 85 76h19l5 20h-7q-31 0 -47.5 19t-16.5 49
q0 14 2 22l53 243q4 22 4 28q0 21 -12 31.5t-39 10.5h-62l18 82h83q52 0 79 -27.5z" />
    <glyph glyph-name="asciitilde" unicode="~" horiz-adv-x="486" vert-adv-y="1193" 
d="M259 307l-19 15q-14 11 -25 16.5t-24 5.5q-36 0 -48 -54h-71l6 22q10 48 41 77t75 29t77 -25l19 -15q15 -12 26 -17t23 -5q36 0 48 54h70l-5 -22q-10 -47 -40.5 -76.5t-73.5 -29.5q-46 0 -79 25z" />
    <glyph glyph-name="uni00A0" unicode="&#xa0;" horiz-adv-x="240" vert-adv-y="1193" 
 />
    <glyph glyph-name="exclamdown" unicode="&#xa1;" horiz-adv-x="257" vert-adv-y="1193" 
d="M217.5 494.5q17.5 -16.5 17.5 -42.5q0 -32 -23 -55t-53 -23q-27 0 -44.5 18.5t-17.5 44.5q0 30 23 52t53 22q27 0 44.5 -16.5zM131 24l-48 -224h-99l48 224l85 283h50z" />
    <glyph glyph-name="cent" unicode="&#xa2;" horiz-adv-x="542" vert-adv-y="1193" 
d="M217 -7l-43 -113h-82l52 137q-49 28 -76 80t-27 118q0 11 2 35q8 73 42 132t90 93.5t127 34.5q12 0 30 -2l43 112h82l-51 -133q47 -23 73 -64.5t28 -92.5h-95q-5 47 -37 75l-128 -334h10h3q48 0 83.5 29t49.5 70h98q-22 -80 -84.5 -130t-151.5 -50q-18 0 -38 3zM137 219
q0 -36 10.5 -67t29.5 -50l125 328h-1h-3q-65 0 -107.5 -51.5t-51.5 -128.5q-2 -22 -2 -31z" />
    <glyph glyph-name="sterling" unicode="&#xa3;" horiz-adv-x="568" vert-adv-y="1193" 
d="M16 86h3q48 0 72.5 23.5t34.5 63.5l27 104l-99 -23l20 91l102 24l37 146q24 94 89 139.5t153 45.5h106l-18 -86h-80q-65 0 -103.5 -28.5t-54.5 -89.5l-26 -102l139 33l-20 -91l-143 -34l-33 -131q-8 -29 -25.5 -52t-39.5 -33h357l-18 -86h-499z" />
    <glyph glyph-name="currency" unicode="&#xa4;" horiz-adv-x="758" vert-adv-y="1193" 
d="M233 91l-87 -82l-63 62l89 86q-43 67 -43 148q0 80 40 143l-86 86l63 62l85 -82q69 51 158 51q45 0 86 -14t74 -39l88 84l62 -62l-89 -89q39 -62 39 -140q0 -80 -41 -145l91 -89l-62 -62l-89 85q-70 -54 -159 -54q-88 0 -156 51zM474 149q36 23 56.5 63.5t20.5 92.5
q0 51 -20.5 90.5t-56.5 61.5t-80 22h-10q-44 0 -80 -22t-56.5 -61.5t-20.5 -90.5t21.5 -92t58.5 -64t81 -23h6q44 0 80 23z" />
    <glyph glyph-name="yen" unicode="&#xa5;" horiz-adv-x="644" vert-adv-y="1193" 
d="M244 122l-149 -32l18 84l150 32l17 79l-181 -39l16 84l140 30l-141 340h102l129 -310l256 310h117l-245 -293l108 23l-17 -84l-172 -37l-12 -14l-14 -67l149 32l-18 -84l-149 -32l-31 -144h-99z" />
    <glyph glyph-name="brokenbar" unicode="&#xa6;" horiz-adv-x="279" vert-adv-y="1193" 
d="M98 286h99l-78 -371h-98zM205 785h98l-77 -361h-98z" />
    <glyph glyph-name="section" unicode="&#xa7;" horiz-adv-x="529" vert-adv-y="1193" 
d="M57 24h182q44 0 65.5 16t21.5 43q0 37 -60 61l-101 41q-56 23 -81 53t-25 78q0 39 29 79t88 68q-38 36 -38 91q0 66 47.5 106t135.5 40h196l-19 -84h-178q-40 0 -63.5 -15t-23.5 -42q0 -36 60 -62l89 -36q59 -23 88.5 -55t29.5 -83q0 -39 -28 -79t-86 -67q17 -16 27 -40
t10 -49q0 -37 -19.5 -71t-60 -55.5t-98.5 -21.5h-206zM382.5 263.5q19.5 23.5 19.5 45.5q0 24 -19 41.5t-63 35.5l-76 33q-46 -17 -66.5 -42t-20.5 -45q0 -24 14.5 -40t47.5 -30l99 -40q45 18 64.5 41.5z" />
    <glyph glyph-name="dieresis" unicode="&#xa8;" horiz-adv-x="348" vert-adv-y="1193" 
d="M311 596.5q-14 14.5 -14 35.5q0 24 18 41.5t42 17.5q21 0 35 -14.5t14 -35.5q0 -23 -18 -41t-42 -18q-21 0 -35 14.5zM119.5 596q-13.5 14 -13.5 35q0 23 18 41.5t42 18.5q21 0 34.5 -14t13.5 -35q0 -24 -18 -42t-42 -18q-21 0 -34.5 14z" />
    <glyph glyph-name="copyright" unicode="&#xa9;" horiz-adv-x="873" vert-adv-y="1193" 
d="M244 8q-81 48 -128 131t-47 182q0 115 55 211t152 152t217 56q97 0 178 -47.5t128 -130t47 -181.5q0 -114 -54 -210.5t-151 -153.5t-219 -57q-97 0 -178 48zM607 78.5q79 48.5 122.5 128.5t43.5 170q0 81 -37.5 148t-102.5 106t-146 39q-101 0 -180 -48.5t-122 -128
t-43 -169.5q0 -82 37.5 -149t102.5 -106t145 -39q101 0 180 48.5zM322 202.5q-43 46.5 -43 120.5q0 56 21.5 109t66.5 86.5t111 33.5q45 0 81 -17.5t55 -48t17 -69.5h-82q-2 27 -21.5 46.5t-51.5 19.5h-5q-39 0 -64 -27.5t-36 -65.5t-11 -70q0 -44 21 -69.5t56 -25.5h5
q29 0 52.5 18t31.5 49h82q-16 -65 -60 -100.5t-112 -35.5q-71 0 -114 46.5z" />
    <glyph glyph-name="ordfeminine" unicode="&#xaa;" horiz-adv-x="328" vert-adv-y="1193" 
d="M103.5 430q-24.5 21 -24.5 56q0 46 33.5 73.5t87.5 27.5h86l2 8l2 14q0 19 -14 28.5t-37 9.5h-3q-44 0 -57 -34h-70q12 41 47 66.5t87 25.5q53 0 84.5 -25.5t31.5 -68.5q0 -13 -3 -27l-23 -106q-5 -24 -9 -63h-66l-1 10l2 19q-33 -35 -90 -35q-41 0 -65.5 21zM245 481.5
q23 16.5 29 47.5l2 7h-70q-28 0 -42 -10.5t-14 -28.5q0 -14 11.5 -23t30.5 -9h2q28 0 51 16.5z" />
    <glyph glyph-name="guillemotleft" unicode="&#xab;" horiz-adv-x="555" vert-adv-y="1193" 
d="M264 285l190 215h119l-200 -225l95 -205h-105zM43 285l190 215h119l-201 -226l95 -204h-104z" />
    <glyph glyph-name="logicalnot" unicode="&#xac;" horiz-adv-x="602" vert-adv-y="1193" 
d="M432 264h-365l18 87h463l-48 -227h-98z" />
    <glyph glyph-name="registered" unicode="&#xae;" horiz-adv-x="873" vert-adv-y="1193" 
d="M244 8q-81 48 -128 131t-47 182q0 115 55 211t152 152t217 56q97 0 178 -47.5t128 -130t47 -181.5q0 -114 -54 -210.5t-151 -153.5t-219 -57q-97 0 -178 48zM607 79q79 49 122.5 129t43.5 169q0 81 -37.5 148t-102.5 106t-146 39q-101 0 -180 -48.5t-122 -128t-43 -169.5
q0 -81 37.5 -148.5t102.5 -106.5t145 -39q101 0 180 49zM361 544h152q57 0 89 -27.5t32 -72.5q0 -37 -21.5 -64.5t-54.5 -38.5q36 -14 36 -53q0 -12 -3 -26l-7 -35q-8 -38 -8 -61h-78q-1 11 1.5 25.5t5.5 26.5l9 44q1 5 1 13q0 31 -41 31h-86l-29 -140h-79zM532.5 386.5
q19.5 15.5 19.5 46.5q0 41 -59 41h-69l-21 -103h75q35 0 54.5 15.5z" />
    <glyph glyph-name="macron" unicode="&#xaf;" horiz-adv-x="349" vert-adv-y="1193" 
d="M117 661h289l-16 -77h-288z" />
    <glyph glyph-name="degree" unicode="&#xb0;" horiz-adv-x="465" vert-adv-y="1193" 
d="M193 364.5q-42 24.5 -66.5 66.5t-24.5 94t24.5 94t66.5 66.5t94 24.5t94 -24.5t66.5 -66.5t24.5 -94t-24.5 -94t-66.5 -66.5t-94 -24.5t-94 24.5zM356.5 452q28.5 30 28.5 73t-28.5 72.5t-69.5 29.5t-69 -29.5t-28 -72.5t28.5 -73t68.5 -30q41 0 69.5 30z" />
    <glyph glyph-name="plusminus" unicode="&#xb1;" horiz-adv-x="622" vert-adv-y="1193" 
d="M270 284h-199l19 87h199l27 129h97l-28 -129h199l-19 -87h-199l-26 -124h-97zM29 86h494l-18 -86h-494z" />
    <glyph glyph-name="uni00B2" unicode="&#xb2;" horiz-adv-x="345" vert-adv-y="1193" 
d="M91 494l161 119q41 31 55.5 48t14.5 42q0 21 -15.5 34t-38.5 13h-5q-23 0 -41.5 -15.5t-22.5 -43.5h-77q8 57 50.5 90.5t101.5 33.5q55 0 91.5 -30t36.5 -77q0 -42 -24.5 -72.5t-72.5 -65.5l-120 -89h183l-14 -66h-281z" />
    <glyph glyph-name="uni00B3" unicode="&#xb3;" horiz-adv-x="349" vert-adv-y="1193" 
d="M120.5 441.5q-38.5 31.5 -35.5 86.5h77q-1 -24 15 -39t42 -15h5q31 0 51 16t20 47q0 23 -14.5 34.5t-39.5 11.5h-32l13 64h36q32 0 51.5 15t19.5 42q0 21 -16 34t-41 13h-5q-24 0 -41.5 -14.5t-21.5 -35.5h-76q7 53 48 83.5t99 30.5q56 0 92.5 -26.5t36.5 -73.5
q0 -39 -21 -65.5t-57 -37.5q21 -11 33.5 -31t12.5 -48q0 -57 -45 -90t-108 -33q-60 0 -98.5 31.5z" />
    <glyph glyph-name="acute" unicode="&#xb4;" horiz-adv-x="191" vert-adv-y="1193" 
d="M156 700h106l-106 -137h-66z" />
    <glyph glyph-name="uni00B5" unicode="&#xb5;" horiz-adv-x="591" vert-adv-y="1193" 
d="M128 500h95l-64 -304q-5 -25 -5 -41q0 -40 20 -63t59 -23h8q54 0 96 45.5t59 125.5l55 260h95l-80 -373q-1 -8 -2 -17q0 -30 30 -30h36l-17 -80h-55q-33 0 -57 15.5t-31 43.5q-27 -33 -66 -51t-81 -18q-70 0 -101 38l-48 -228h-95z" />
    <glyph glyph-name="paragraph" unicode="&#xb6;" horiz-adv-x="633" vert-adv-y="1193" 
d="M245 299h-1q-45 5 -84.5 28t-63 62t-23.5 88q0 62 30.5 113t82.5 80.5t114 29.5h385l-18 -82h-62l-174 -818h-93l174 818h-107l-174 -818h-93z" />
    <glyph glyph-name="periodcentered" unicode="&#xb7;" horiz-adv-x="258" vert-adv-y="1193" 
d="M94.5 286.5q-17.5 17.5 -17.5 43.5q0 31 23 53.5t52 22.5q27 0 44.5 -18t17.5 -44q0 -30 -22.5 -52.5t-53.5 -22.5q-26 0 -43.5 17.5z" />
    <glyph glyph-name="cedilla" unicode="&#xb8;" horiz-adv-x="242" vert-adv-y="1193" 
d="M-59 -170h72q23 0 37 11t14 29q0 13 -11 21t-28 8h-32l25 118h56l-15 -69q33 -5 51.5 -25t18.5 -50q0 -49 -34.5 -78.5t-86.5 -29.5h-81z" />
    <glyph glyph-name="uni00B9" unicode="&#xb9;" horiz-adv-x="231" vert-adv-y="1193" 
d="M191 666h-87l10 51q89 1 126 93h56l-84 -395h-74z" />
    <glyph glyph-name="ordmasculine" unicode="&#xba;" horiz-adv-x="345" vert-adv-y="1193" 
d="M129 446.5q-37 36.5 -37 92.5q0 48 21 86t57.5 59t81.5 21q58 0 94.5 -35t36.5 -91q0 -49 -20.5 -87.5t-56.5 -60t-82 -21.5q-58 0 -95 36.5zM282.5 493.5q21.5 23.5 26.5 64.5q1 6 1 17q0 32 -17 50.5t-46 18.5h-3q-30 0 -51.5 -23t-26.5 -63q-1 -6 -1 -16
q0 -33 17 -52.5t46 -19.5h2q31 0 52.5 23.5z" />
    <glyph glyph-name="guillemotright" unicode="&#xbb;" horiz-adv-x="556" vert-adv-y="1193" 
d="M306 285l-190 -215h-119l200 225l-95 205h105zM527 285l-190 -215h-119l201 226l-95 204h104z" />
    <glyph glyph-name="onequarter" unicode="&#xbc;" horiz-adv-x="726" vert-adv-y="1193" 
d="M168 556h-87l10 51q89 1 126 93h56l-84 -395h-74zM574 700h90l-563 -700h-91zM538 87h-188l15 68l222 240h89l-53 -246h56l-13 -62h-56l-18 -87h-72zM552 149l33 158l-145 -158h112z" />
    <glyph glyph-name="onehalf" unicode="&#xbd;" horiz-adv-x="746" vert-adv-y="1193" 
d="M168 556h-87l10 51q89 1 126 93h56l-84 -395h-74zM574 700h90l-563 -700h-91zM401 79l161 119q41 31 55.5 48t14.5 42q0 21 -15.5 34t-38.5 13h-5q-23 0 -41.5 -15.5t-22.5 -43.5h-77q8 57 50.5 90.5t101.5 33.5q55 0 91.5 -30t36.5 -77q0 -42 -24.5 -72.5t-72.5 -65.5
l-120 -89h183l-14 -66h-281z" />
    <glyph glyph-name="threequarters" unicode="&#xbe;" horiz-adv-x="831" vert-adv-y="1193" 
d="M96.5 331.5q-38.5 31.5 -35.5 86.5h77q-1 -24 15 -39t42 -15h5q31 0 51 16t20 47q0 23 -14.5 34.5t-39.5 11.5h-32l13 64h36q32 0 51.5 15t19.5 42q0 21 -16 34t-41 13h-5q-24 0 -41.5 -14.5t-21.5 -35.5h-76q7 53 48 83.5t99 30.5q56 0 92.5 -26.5t36.5 -73.5
q0 -39 -21 -65.5t-57 -37.5q21 -11 33.5 -31t12.5 -48q0 -57 -45 -90t-108 -33q-60 0 -98.5 31.5zM679 700h90l-563 -700h-91zM643 87h-188l15 68l222 240h89l-53 -246h56l-13 -62h-56l-18 -87h-72zM657 149l33 158l-145 -158h112z" />
    <glyph glyph-name="questiondown" unicode="&#xbf;" horiz-adv-x="486" vert-adv-y="1193" 
d="M224 103l-38 -12q-54 -16 -85 -42.5t-31 -80.5q0 -42 30 -68t84 -26q48 0 83.5 29t41.5 78h98q-5 -60 -38.5 -103.5t-84.5 -65.5t-108 -22t-103.5 21t-73.5 61.5t-27 94.5q0 74 45 124t122 74l41 13q27 8 36 18t15 33l16 66h96l-21 -95q-16 -73 -98 -97zM375.5 493.5
q17.5 -17.5 17.5 -43.5q0 -31 -23 -53.5t-53 -22.5q-26 0 -43.5 18.5t-17.5 44.5q0 30 23 52t53 22q26 0 43.5 -17.5z" />
    <glyph glyph-name="Agrave" unicode="&#xc0;" horiz-adv-x="687" vert-adv-y="1193" 
d="M377 700h125l123 -700h-96l-31 177h-335l-107 -177h-104zM482 268l-60 339l-205 -339h265zM324 890h117l47 -132h-72z" />
    <glyph glyph-name="Aacute" unicode="&#xc1;" horiz-adv-x="687" vert-adv-y="1193" 
d="M377 700h125l123 -700h-96l-31 177h-335l-107 -177h-104zM482 268l-60 339l-205 -339h265zM463 890h118l-93 -132h-72z" />
    <glyph glyph-name="Acircumflex" unicode="&#xc2;" horiz-adv-x="687" vert-adv-y="1193" 
d="M377 700h125l123 -700h-96l-31 177h-335l-107 -177h-104zM482 268l-60 339l-205 -339h265zM416 890h115l92 -132h-70l-87 65l-115 -65h-83z" />
    <glyph glyph-name="Atilde" unicode="&#xc3;" horiz-adv-x="687" vert-adv-y="1193" 
d="M377 700h125l123 -700h-96l-31 177h-335l-107 -177h-104zM482 268l-60 339l-205 -339h265zM461 782l-25 18q-14 10 -23 14.5t-20 4.5q-31 0 -41 -54h-73l3 17q12 55 40 84t71 29q21 0 36.5 -7t33.5 -20l24 -18q28 -19 44 -19q34 0 42 54h75l-5 -23q-9 -52 -36 -79.5
t-70 -27.5q-41 0 -76 27z" />
    <glyph glyph-name="Adieresis" unicode="&#xc4;" horiz-adv-x="687" vert-adv-y="1193" 
d="M377 700h125l123 -700h-96l-31 177h-335l-107 -177h-104zM482 268l-60 339l-205 -339h265zM523 787.5q-14 14.5 -14 35.5q0 24 18.5 42.5t42.5 18.5q21 0 35.5 -15t14.5 -36q0 -23 -19 -41.5t-43 -18.5q-21 0 -35 14.5zM328.5 787.5q-14.5 14.5 -14.5 35.5
q0 24 18.5 42.5t42.5 18.5q21 0 35.5 -15t14.5 -36q0 -23 -18.5 -41.5t-42.5 -18.5q-21 0 -35.5 14.5z" />
    <glyph glyph-name="Aring" unicode="&#xc5;" horiz-adv-x="687" vert-adv-y="1193" 
d="M377 700h125l123 -700h-96l-31 177h-335l-107 -177h-104zM482 268l-60 339l-205 -339h265zM396.5 774q-27.5 26 -27.5 64t27.5 64.5t64.5 26.5t64.5 -26.5t27.5 -64.5t-27.5 -64t-64.5 -26t-64.5 26zM485.5 813.5q10.5 10.5 10.5 24.5t-10.5 25t-24.5 11t-24.5 -11
t-10.5 -25q0 -13 11 -24t24 -11q14 0 24.5 10.5z" />
    <glyph glyph-name="AE" unicode="&#xc6;" horiz-adv-x="985" vert-adv-y="1193" 
d="M482 700h504l-19 -90h-349l-16 -205h307l-19 -90h-295l-17 -225h354l-19 -90h-436l15 180h-304l-139 -180h-118zM498 270l29 347l-270 -347h241z" />
    <glyph glyph-name="Ccedilla" unicode="&#xc7;" horiz-adv-x="718" vert-adv-y="1193" 
d="M250 -170h72q23 0 37 11t14 29q0 13 -11 21t-28 8h-32l20 93q-79 9 -136.5 51t-87 109t-29.5 150q0 32 2 48q11 103 59.5 185t126.5 128.5t176 46.5q80 0 141.5 -30.5t96.5 -85t36 -125.5h-101q-5 67 -51 108.5t-122 41.5h-9q-67 0 -121.5 -35t-88.5 -96.5t-43 -137.5
q-3 -22 -3 -44q0 -65 23.5 -116t68 -80t105.5 -29h9q75 0 128.5 41.5t74.5 109.5h104q-26 -107 -107.5 -172.5t-196.5 -69.5l-9 -42q33 -5 51.5 -25t18.5 -50q0 -49 -34.5 -78.5t-86.5 -29.5h-81z" />
    <glyph glyph-name="Egrave" unicode="&#xc8;" horiz-adv-x="652" vert-adv-y="1193" 
d="M185 700h510l-20 -90h-409l-44 -205h350l-19 -90h-350l-47 -225h419l-19 -90h-520zM323 890h117l47 -132h-72z" />
    <glyph glyph-name="Eacute" unicode="&#xc9;" horiz-adv-x="652" vert-adv-y="1193" 
d="M185 700h510l-20 -90h-409l-44 -205h350l-19 -90h-350l-47 -225h419l-19 -90h-520zM462 890h118l-93 -132h-72z" />
    <glyph glyph-name="Ecircumflex" unicode="&#xca;" horiz-adv-x="652" vert-adv-y="1193" 
d="M185 700h510l-20 -90h-409l-44 -205h350l-19 -90h-350l-47 -225h419l-19 -90h-520zM415 890h115l92 -132h-70l-87 65l-115 -65h-83z" />
    <glyph glyph-name="Edieresis" unicode="&#xcb;" horiz-adv-x="652" vert-adv-y="1193" 
d="M185 700h510l-20 -90h-409l-44 -205h350l-19 -90h-350l-47 -225h419l-19 -90h-520zM522 787.5q-14 14.5 -14 35.5q0 24 18.5 42.5t42.5 18.5q21 0 35.5 -15t14.5 -36q0 -23 -19 -41.5t-43 -18.5q-21 0 -35 14.5zM327.5 787.5q-14.5 14.5 -14.5 35.5q0 24 18.5 42.5
t42.5 18.5q21 0 35.5 -15t14.5 -36q0 -23 -18.5 -41.5t-42.5 -18.5q-21 0 -35.5 14.5z" />
    <glyph glyph-name="Igrave" unicode="&#xcc;" horiz-adv-x="280" vert-adv-y="1193" 
d="M185 700h100l-149 -700h-100zM119 890h117l47 -132h-72z" />
    <glyph glyph-name="Iacute" unicode="&#xcd;" horiz-adv-x="280" vert-adv-y="1193" 
d="M185 700h100l-149 -700h-100zM258 890h118l-93 -132h-72z" />
    <glyph glyph-name="Icircumflex" unicode="&#xce;" horiz-adv-x="280" vert-adv-y="1193" 
d="M185 700h100l-149 -700h-100zM211 890h115l92 -132h-70l-87 65l-115 -65h-83z" />
    <glyph glyph-name="Idieresis" unicode="&#xcf;" horiz-adv-x="280" vert-adv-y="1193" 
d="M185 700h100l-149 -700h-100zM318 787.5q-14 14.5 -14 35.5q0 24 18.5 42.5t42.5 18.5q21 0 35.5 -15t14.5 -36q0 -23 -19 -41.5t-43 -18.5q-21 0 -35 14.5zM123.5 787.5q-14.5 14.5 -14.5 35.5q0 24 18.5 42.5t42.5 18.5q21 0 35.5 -15t14.5 -36q0 -23 -18.5 -41.5
t-42.5 -18.5q-21 0 -35.5 14.5z" />
    <glyph glyph-name="Eth" unicode="&#xd0;" horiz-adv-x="751" vert-adv-y="1193" 
d="M136 306h-88l20 88h87l65 306h192q117 0 187 -42.5t98.5 -108t28.5 -140.5q0 -102 -41.5 -196.5t-121.5 -153.5t-189 -59h-303zM510 135q58 45 87 117.5t29 154.5q0 96 -55.5 149.5t-158.5 53.5h-112l-45 -216h149l-20 -88h-147l-45 -216h177q83 0 141 45z" />
    <glyph glyph-name="Ntilde" unicode="&#xd1;" horiz-adv-x="745" vert-adv-y="1193" 
d="M185 700h135l205 -586l125 586h100l-149 -700h-134l-207 585l-124 -585h-100zM489 782l-25 18q-14 10 -23 14.5t-20 4.5q-31 0 -41 -54h-73l3 17q12 55 40 84t71 29q21 0 36.5 -7t33.5 -20l24 -18q28 -19 44 -19q34 0 42 54h75l-5 -23q-9 -52 -36 -79.5t-70 -27.5
q-41 0 -76 27z" />
    <glyph glyph-name="Ograve" unicode="&#xd2;" horiz-adv-x="772" vert-adv-y="1193" 
d="M216.5 28q-69.5 38 -109 108t-39.5 164q0 25 3 50q12 108 62.5 189.5t129.5 126t174 44.5q88 0 158 -38t110 -108.5t40 -164.5q0 -23 -3 -49q-12 -108 -63 -189.5t-130.5 -126t-174.5 -44.5q-88 0 -157.5 38zM503 113.5q55 32.5 91.5 93.5t46.5 143q3 23 3 43
q0 69 -26.5 120t-73.5 78.5t-107 27.5h-9q-65 0 -120 -32.5t-91.5 -93.5t-45.5 -143q-3 -24 -3 -45q0 -69 26 -119.5t72.5 -77.5t106.5 -27h10q65 0 120 32.5zM364 890h117l47 -132h-72z" />
    <glyph glyph-name="Oacute" unicode="&#xd3;" horiz-adv-x="772" vert-adv-y="1193" 
d="M216.5 28q-69.5 38 -109 108t-39.5 164q0 25 3 50q12 108 62.5 189.5t129.5 126t174 44.5q88 0 158 -38t110 -108.5t40 -164.5q0 -23 -3 -49q-12 -108 -63 -189.5t-130.5 -126t-174.5 -44.5q-88 0 -157.5 38zM503 113.5q55 32.5 91.5 93.5t46.5 143q3 23 3 43
q0 69 -26.5 120t-73.5 78.5t-107 27.5h-9q-65 0 -120 -32.5t-91.5 -93.5t-45.5 -143q-3 -24 -3 -45q0 -69 26 -119.5t72.5 -77.5t106.5 -27h10q65 0 120 32.5zM503 890h118l-93 -132h-72z" />
    <glyph glyph-name="Ocircumflex" unicode="&#xd4;" horiz-adv-x="772" vert-adv-y="1193" 
d="M216.5 28q-69.5 38 -109 108t-39.5 164q0 25 3 50q12 108 62.5 189.5t129.5 126t174 44.5q88 0 158 -38t110 -108.5t40 -164.5q0 -23 -3 -49q-12 -108 -63 -189.5t-130.5 -126t-174.5 -44.5q-88 0 -157.5 38zM503 113.5q55 32.5 91.5 93.5t46.5 143q3 23 3 43
q0 69 -26.5 120t-73.5 78.5t-107 27.5h-9q-65 0 -120 -32.5t-91.5 -93.5t-45.5 -143q-3 -24 -3 -45q0 -69 26 -119.5t72.5 -77.5t106.5 -27h10q65 0 120 32.5zM456 890h115l92 -132h-70l-87 65l-115 -65h-83z" />
    <glyph glyph-name="Otilde" unicode="&#xd5;" horiz-adv-x="772" vert-adv-y="1193" 
d="M216.5 28q-69.5 38 -109 108t-39.5 164q0 25 3 50q12 108 62.5 189.5t129.5 126t174 44.5q88 0 158 -38t110 -108.5t40 -164.5q0 -23 -3 -49q-12 -108 -63 -189.5t-130.5 -126t-174.5 -44.5q-88 0 -157.5 38zM503 113.5q55 32.5 91.5 93.5t46.5 143q3 23 3 43
q0 69 -26.5 120t-73.5 78.5t-107 27.5h-9q-65 0 -120 -32.5t-91.5 -93.5t-45.5 -143q-3 -24 -3 -45q0 -69 26 -119.5t72.5 -77.5t106.5 -27h10q65 0 120 32.5zM501 782l-25 18q-14 10 -23 14.5t-20 4.5q-31 0 -41 -54h-73l3 17q12 55 40 84t71 29q21 0 36.5 -7t33.5 -20
l24 -18q28 -19 44 -19q34 0 42 54h75l-5 -23q-9 -52 -36 -79.5t-70 -27.5q-41 0 -76 27z" />
    <glyph glyph-name="Odieresis" unicode="&#xd6;" horiz-adv-x="772" vert-adv-y="1193" 
d="M216.5 28q-69.5 38 -109 108t-39.5 164q0 25 3 50q12 108 62.5 189.5t129.5 126t174 44.5q88 0 158 -38t110 -108.5t40 -164.5q0 -23 -3 -49q-12 -108 -63 -189.5t-130.5 -126t-174.5 -44.5q-88 0 -157.5 38zM503 113.5q55 32.5 91.5 93.5t46.5 143q3 23 3 43
q0 69 -26.5 120t-73.5 78.5t-107 27.5h-9q-65 0 -120 -32.5t-91.5 -93.5t-45.5 -143q-3 -24 -3 -45q0 -69 26 -119.5t72.5 -77.5t106.5 -27h10q65 0 120 32.5zM563 787.5q-14 14.5 -14 35.5q0 24 18.5 42.5t42.5 18.5q21 0 35.5 -15t14.5 -36q0 -23 -19 -41.5t-43 -18.5
q-21 0 -35 14.5zM368.5 787.5q-14.5 14.5 -14.5 35.5q0 24 18.5 42.5t42.5 18.5q21 0 35.5 -15t14.5 -36q0 -23 -18.5 -41.5t-42.5 -18.5q-21 0 -35.5 14.5z" />
    <glyph glyph-name="multiply" unicode="&#xd7;" horiz-adv-x="548" vert-adv-y="1193" 
d="M26 108l188 156l-123 156l69 54l122 -156l189 156l54 -67l-189 -155l123 -156l-68 -55l-123 156l-188 -156z" />
    <glyph glyph-name="Oslash" unicode="&#xd8;" horiz-adv-x="773" vert-adv-y="1193" 
d="M261 9.5q-54 19.5 -94 55.5l-81 -75l-61 66l86 80q-40 72 -40 163q0 24 3 51q12 108 62.5 189.5t129.5 126t174 44.5q62 0 115.5 -19.5t94.5 -55.5l80 74l61 -65l-85 -78q42 -73 42 -169q0 -23 -3 -47q-12 -108 -63 -189.5t-130.5 -126t-174.5 -44.5q-62 0 -116 19.5z
M506 113.5q55 32.5 91.5 93.5t46.5 143q2 15 2 43q0 59 -17 101l-391 -363q55 -50 138 -50h10q65 0 120 32.5zM171 305q0 -55 17 -98l391 362q-56 50 -139 50h-9q-65 0 -120 -32.5t-91.5 -93.5t-45.5 -143q-3 -24 -3 -45z" />
    <glyph glyph-name="Ugrave" unicode="&#xd9;" horiz-adv-x="698" vert-adv-y="1193" 
d="M140.5 47.5q-61.5 57.5 -61.5 157.5q0 36 9 78l89 417h100l-90 -424q-8 -38 -8 -67q0 -63 33.5 -96t101.5 -33h10q152 0 188 165l97 455h100l-102 -479q-24 -111 -98.5 -171t-198.5 -60q-108 0 -169.5 57.5zM318 890h117l47 -132h-72z" />
    <glyph glyph-name="Uacute" unicode="&#xda;" horiz-adv-x="698" vert-adv-y="1193" 
d="M140.5 47.5q-61.5 57.5 -61.5 157.5q0 36 9 78l89 417h100l-90 -424q-8 -38 -8 -67q0 -63 33.5 -96t101.5 -33h10q152 0 188 165l97 455h100l-102 -479q-24 -111 -98.5 -171t-198.5 -60q-108 0 -169.5 57.5zM457 890h118l-93 -132h-72z" />
    <glyph glyph-name="Ucircumflex" unicode="&#xdb;" horiz-adv-x="698" vert-adv-y="1193" 
d="M140.5 47.5q-61.5 57.5 -61.5 157.5q0 36 9 78l89 417h100l-90 -424q-8 -38 -8 -67q0 -63 33.5 -96t101.5 -33h10q152 0 188 165l97 455h100l-102 -479q-24 -111 -98.5 -171t-198.5 -60q-108 0 -169.5 57.5zM410 890h115l92 -132h-70l-87 65l-115 -65h-83z" />
    <glyph glyph-name="Udieresis" unicode="&#xdc;" horiz-adv-x="698" vert-adv-y="1193" 
d="M140.5 47.5q-61.5 57.5 -61.5 157.5q0 36 9 78l89 417h100l-90 -424q-8 -38 -8 -67q0 -63 33.5 -96t101.5 -33h10q152 0 188 165l97 455h100l-102 -479q-24 -111 -98.5 -171t-198.5 -60q-108 0 -169.5 57.5zM517 787.5q-14 14.5 -14 35.5q0 24 18.5 42.5t42.5 18.5
q21 0 35.5 -15t14.5 -36q0 -23 -19 -41.5t-43 -18.5q-21 0 -35 14.5zM322.5 787.5q-14.5 14.5 -14.5 35.5q0 24 18.5 42.5t42.5 18.5q21 0 35.5 -15t14.5 -36q0 -23 -18.5 -41.5t-42.5 -18.5q-21 0 -35.5 14.5z" />
    <glyph glyph-name="Yacute" unicode="&#xdd;" horiz-adv-x="634" vert-adv-y="1193" 
d="M274 288l-175 412h109l133 -315l260 315h122l-349 -413l-62 -287h-100zM429 890h118l-93 -132h-72z" />
    <glyph glyph-name="Thorn" unicode="&#xde;" horiz-adv-x="655" vert-adv-y="1193" 
d="M185 700h100l-29 -138h161q65 0 114 -24t75.5 -67t26.5 -99q0 -66 -29 -119.5t-81.5 -84t-122.5 -30.5h-235l-29 -138h-100zM397 228q60 0 98 37.5t38 99.5q0 51 -34.5 79t-101.5 28h-161l-51 -244h212z" />
    <glyph glyph-name="germandbls" unicode="&#xdf;" horiz-adv-x="555" vert-adv-y="1193" 
d="M210 661.5q57 48.5 145 48.5q55 0 97.5 -21.5t66.5 -59.5t24 -87q0 -50 -22 -88t-56 -61t-69 -29q42 -11 72.5 -52t30.5 -100t-29 -107.5t-80.5 -76.5t-117.5 -28h-87l17 83h58q67 0 105 39t38 95q0 50 -30.5 81t-79.5 31h-37l17 79h45q37 0 66.5 17.5t46 47t16.5 62.5
q0 44 -27 70t-70 26q-97 0 -124 -124l-147 -692h-96l151 710q19 88 76 136.5z" />
    <glyph glyph-name="agrave" unicode="&#xe0;" horiz-adv-x="553" vert-adv-y="1193" 
d="M71 28q-45 38 -45 105q0 76 59 122t161 46h158l4 21q2 14 2 21q0 42 -32.5 65t-79.5 23h-7q-45 0 -77.5 -20.5t-40.5 -55.5h-94q11 69 71 112t146 43t144 -42t58 -122q0 -23 -6 -50l-39 -186q-16 -73 -17 -110h-89q0 29 6 59q-61 -69 -163 -69q-74 0 -119 38zM285 85
q35 16 61 45.5t34 67.5l7 31h-138q-60 0 -95.5 -24.5t-35.5 -66.5q0 -32 23 -50.5t64 -18.5h9q36 0 71 16zM220 700h104l44 -137h-62z" />
    <glyph glyph-name="aacute" unicode="&#xe1;" horiz-adv-x="553" vert-adv-y="1193" 
d="M71 28q-45 38 -45 105q0 76 59 122t161 46h158l4 21q2 14 2 21q0 42 -32.5 65t-79.5 23h-7q-45 0 -77.5 -20.5t-40.5 -55.5h-94q11 69 71 112t146 43t144 -42t58 -122q0 -23 -6 -50l-39 -186q-16 -73 -17 -110h-89q0 29 6 59q-61 -69 -163 -69q-74 0 -119 38zM285 85
q35 16 61 45.5t34 67.5l7 31h-138q-60 0 -95.5 -24.5t-35.5 -66.5q0 -32 23 -50.5t64 -18.5h9q36 0 71 16zM370 700h106l-106 -137h-66z" />
    <glyph glyph-name="acircumflex" unicode="&#xe2;" horiz-adv-x="553" vert-adv-y="1193" 
d="M71 28q-45 38 -45 105q0 76 59 122t161 46h158l4 21q2 14 2 21q0 42 -32.5 65t-79.5 23h-7q-45 0 -77.5 -20.5t-40.5 -55.5h-94q11 69 71 112t146 43t144 -42t58 -122q0 -23 -6 -50l-39 -186q-16 -73 -17 -110h-89q0 29 6 59q-61 -69 -163 -69q-74 0 -119 38zM285 85
q35 16 61 45.5t34 67.5l7 31h-138q-60 0 -95.5 -24.5t-35.5 -66.5q0 -32 23 -50.5t64 -18.5h9q36 0 71 16zM305 700h103l85 -137h-65l-79 76l-113 -76h-74z" />
    <glyph glyph-name="atilde" unicode="&#xe3;" horiz-adv-x="553" vert-adv-y="1193" 
d="M71 28q-45 38 -45 105q0 76 59 122t161 46h158l4 21q2 14 2 21q0 42 -32.5 65t-79.5 23h-7q-45 0 -77.5 -20.5t-40.5 -55.5h-94q11 69 71 112t146 43t144 -42t58 -122q0 -23 -6 -50l-39 -186q-16 -73 -17 -110h-89q0 29 6 59q-61 -69 -163 -69q-74 0 -119 38zM285 85
q35 16 61 45.5t34 67.5l7 31h-138q-60 0 -95.5 -24.5t-35.5 -66.5q0 -32 23 -50.5t64 -18.5h9q36 0 71 16zM379.5 564q-16.5 7 -39.5 21l-28 17q-18 11 -28 15t-21 4q-17 0 -26.5 -12t-16.5 -42h-71l4 20q22 109 104 109q18 0 35 -6.5t42 -21.5l28 -17q30 -19 50 -19
q18 0 27 12.5t15 41.5h70l-4 -21q-10 -50 -36 -79t-68 -29q-20 0 -36.5 7z" />
    <glyph glyph-name="adieresis" unicode="&#xe4;" horiz-adv-x="553" vert-adv-y="1193" 
d="M71 28q-45 38 -45 105q0 76 59 122t161 46h158l4 21q2 14 2 21q0 42 -32.5 65t-79.5 23h-7q-45 0 -77.5 -20.5t-40.5 -55.5h-94q11 69 71 112t146 43t144 -42t58 -122q0 -23 -6 -50l-39 -186q-16 -73 -17 -110h-89q0 29 6 59q-61 -69 -163 -69q-74 0 -119 38zM285 85
q35 16 61 45.5t34 67.5l7 31h-138q-60 0 -95.5 -24.5t-35.5 -66.5q0 -32 23 -50.5t64 -18.5h9q36 0 71 16zM405 596.5q-14 14.5 -14 35.5q0 24 18 41.5t42 17.5q21 0 35 -14.5t14 -35.5q0 -23 -18 -41t-42 -18q-21 0 -35 14.5zM213.5 596q-13.5 14 -13.5 35q0 23 18 41.5
t42 18.5q21 0 34.5 -14t13.5 -35q0 -24 -18 -42t-42 -18q-21 0 -34.5 14z" />
    <glyph glyph-name="aring" unicode="&#xe5;" horiz-adv-x="553" vert-adv-y="1193" 
d="M71 28q-45 38 -45 105q0 76 59 122t161 46h158l4 21q2 14 2 21q0 42 -32.5 65t-79.5 23h-7q-45 0 -77.5 -20.5t-40.5 -55.5h-94q11 69 71 112t146 43t144 -42t58 -122q0 -23 -6 -50l-39 -186q-16 -73 -17 -110h-89q0 29 6 59q-61 -69 -163 -69q-74 0 -119 38zM285 85
q35 16 61 45.5t34 67.5l7 31h-138q-60 0 -95.5 -24.5t-35.5 -66.5q0 -32 23 -50.5t64 -18.5h9q36 0 71 16zM282 581q-28 27 -28 67t28 67t66 27q39 0 66.5 -27t27.5 -67t-27.5 -67t-66.5 -27q-38 0 -66 27zM379.5 617q12.5 13 12.5 31t-12.5 31t-30.5 13t-31 -13t-13 -31
t13 -31t31 -13t30.5 13z" />
    <glyph glyph-name="ae" unicode="&#xe6;" horiz-adv-x="893" vert-adv-y="1193" 
d="M73 28q-47 38 -47 105q0 50 27 89t77 61t117 22h158l4 18q2 14 2 21q0 42 -32.5 65t-79.5 23h-7q-45 0 -78 -20.5t-41 -56.5h-94q11 70 71.5 112.5t146.5 42.5q58 0 104.5 -19.5t70.5 -59.5q34 38 78 58.5t94 20.5q91 0 147 -54.5t59 -143.5q1 -7 1 -21q0 -27 -5 -57
h-364q-1 -7 -1 -22q0 -68 34.5 -105.5t87.5 -37.5h6q42 0 74.5 22.5t47.5 60.5h99q-25 -74 -84.5 -118t-143.5 -44q-63 0 -111 30.5t-73 86.5q-74 -117 -223 -117q-75 0 -122 38zM286 84q35 16 61 46t34 68l7 33h-138q-61 0 -96.5 -25t-35.5 -67q0 -33 23 -52t65 -19h9
q36 0 71 16zM729 398.5q-31 33.5 -83 33.5h-7q-47 0 -86 -31t-58 -93h261q4 57 -27 90.5z" />
    <glyph glyph-name="ccedilla" unicode="&#xe7;" horiz-adv-x="540" vert-adv-y="1193" 
d="M139 -170h72q23 0 37 11t14 29q0 13 -11 21t-28 8h-32l20 95q-80 14 -124.5 74.5t-44.5 147.5q0 12 2 34q8 73 42 132t90 93.5t127 34.5q60 0 106 -23.5t71.5 -64.5t27.5 -92h-95q-4 43 -33.5 71.5t-77.5 28.5h-3q-65 0 -107.5 -51.5t-51.5 -128.5q-2 -22 -2 -33
q0 -64 31.5 -105t88.5 -41h3q48 0 83.5 29t49.5 70h98q-21 -77 -81 -127t-145 -53l-9 -42q33 -5 51.5 -25t18.5 -50q0 -49 -34.5 -78.5t-86.5 -29.5h-81z" />
    <glyph glyph-name="egrave" unicode="&#xe8;" horiz-adv-x="546" vert-adv-y="1193" 
d="M146.5 17.5q-48.5 27.5 -76 78.5t-27.5 120q0 13 2 39q9 77 45 135t90.5 89t118.5 31q95 0 150.5 -58t55.5 -153q0 -34 -6 -67h-364l-1 -19q0 -67 35 -105t88 -38h6q42 0 75 22t48 60h97q-25 -74 -84.5 -118t-142.5 -44q-61 0 -109.5 27.5zM382 397q-31 34 -82 34h-7
q-48 0 -86.5 -31t-57.5 -93h262q2 56 -29 90zM209 700h104l44 -137h-62z" />
    <glyph glyph-name="eacute" unicode="&#xe9;" horiz-adv-x="546" vert-adv-y="1193" 
d="M146.5 17.5q-48.5 27.5 -76 78.5t-27.5 120q0 13 2 39q9 77 45 135t90.5 89t118.5 31q95 0 150.5 -58t55.5 -153q0 -34 -6 -67h-364l-1 -19q0 -67 35 -105t88 -38h6q42 0 75 22t48 60h97q-25 -74 -84.5 -118t-142.5 -44q-61 0 -109.5 27.5zM382 397q-31 34 -82 34h-7
q-48 0 -86.5 -31t-57.5 -93h262q2 56 -29 90zM359 700h106l-106 -137h-66z" />
    <glyph glyph-name="ecircumflex" unicode="&#xea;" horiz-adv-x="546" vert-adv-y="1193" 
d="M146.5 17.5q-48.5 27.5 -76 78.5t-27.5 120q0 13 2 39q9 77 45 135t90.5 89t118.5 31q95 0 150.5 -58t55.5 -153q0 -34 -6 -67h-364l-1 -19q0 -67 35 -105t88 -38h6q42 0 75 22t48 60h97q-25 -74 -84.5 -118t-142.5 -44q-61 0 -109.5 27.5zM382 397q-31 34 -82 34h-7
q-48 0 -86.5 -31t-57.5 -93h262q2 56 -29 90zM294 700h103l85 -137h-65l-79 76l-113 -76h-74z" />
    <glyph glyph-name="edieresis" unicode="&#xeb;" horiz-adv-x="546" vert-adv-y="1193" 
d="M146.5 17.5q-48.5 27.5 -76 78.5t-27.5 120q0 13 2 39q9 77 45 135t90.5 89t118.5 31q95 0 150.5 -58t55.5 -153q0 -34 -6 -67h-364l-1 -19q0 -67 35 -105t88 -38h6q42 0 75 22t48 60h97q-25 -74 -84.5 -118t-142.5 -44q-61 0 -109.5 27.5zM382 397q-31 34 -82 34h-7
q-48 0 -86.5 -31t-57.5 -93h262q2 56 -29 90zM394 596.5q-14 14.5 -14 35.5q0 24 18 41.5t42 17.5q21 0 35 -14.5t14 -35.5q0 -23 -18 -41t-42 -18q-21 0 -35 14.5zM202.5 596q-13.5 14 -13.5 35q0 23 18 41.5t42 18.5q21 0 34.5 -14t13.5 -35q0 -24 -18 -42t-42 -18
q-21 0 -34.5 14z" />
    <glyph glyph-name="igrave" unicode="&#xec;" horiz-adv-x="245" vert-adv-y="1193" 
d="M128 500h95l-106 -500h-95zM75 700h104l44 -137h-62z" />
    <glyph glyph-name="iacute" unicode="&#xed;" horiz-adv-x="245" vert-adv-y="1193" 
d="M128 500h95l-106 -500h-95zM225 700h106l-106 -137h-66z" />
    <glyph glyph-name="icircumflex" unicode="&#xee;" horiz-adv-x="245" vert-adv-y="1193" 
d="M128 500h95l-106 -500h-95zM160 700h103l85 -137h-65l-79 76l-113 -76h-74z" />
    <glyph glyph-name="idieresis" unicode="&#xef;" horiz-adv-x="245" vert-adv-y="1193" 
d="M128 500h95l-106 -500h-95zM260 596.5q-14 14.5 -14 35.5q0 24 18 41.5t42 17.5q21 0 35 -14.5t14 -35.5q0 -23 -18 -41t-42 -18q-21 0 -35 14.5zM68.5 596q-13.5 14 -13.5 35q0 23 18 41.5t42 18.5q21 0 34.5 -14t13.5 -35q0 -24 -18 -42t-42 -18q-21 0 -34.5 14z" />
    <glyph glyph-name="eth" unicode="&#xf0;" horiz-adv-x="568" vert-adv-y="1193" 
d="M138.5 18q-47.5 28 -73 77.5t-25.5 112.5q0 11 2 33q7 65 40 118.5t86 84.5t118 31q48 0 87 -17.5t61 -48.5q-11 103 -84 161l-109 -48l-28 58l68 30q-42 18 -92 28l23 80q100 -19 168 -63l125 56l28 -59l-97 -43q93 -97 93 -258q0 -29 -3 -58q-15 -140 -86 -221.5
t-189 -81.5q-65 0 -112.5 28zM368 115q46 46 55 125q2 18 2 26q0 61 -34.5 96t-88.5 35h-10q-62 0 -104 -42t-51 -115q-2 -12 -2 -36q0 -64 31.5 -99.5t86.5 -35.5h8q61 0 107 46z" />
    <glyph glyph-name="ntilde" unicode="&#xf1;" horiz-adv-x="571" vert-adv-y="1193" 
d="M128 500h95l-12 -56q55 66 140 66q73 0 120 -42t47 -119q0 -29 -7 -58l-61 -291h-95l61 291q4 19 4 39q0 45 -24 70.5t-69 25.5h-7q-49 0 -90.5 -44t-58.5 -127l-54 -255h-95zM403.5 564q-16.5 7 -39.5 21l-28 17q-18 11 -28 15t-21 4q-17 0 -26.5 -12t-16.5 -42h-71
l4 20q22 109 104 109q18 0 35 -6.5t42 -21.5l28 -17q30 -19 50 -19q18 0 27 12.5t15 41.5h70l-4 -21q-10 -50 -36 -79t-68 -29q-20 0 -36.5 7z" />
    <glyph glyph-name="ograve" unicode="&#xf2;" horiz-adv-x="576" vert-adv-y="1193" 
d="M152 18.5q-51 28.5 -80.5 80.5t-29.5 119q0 25 2 38q10 74 47.5 132t95 90t124.5 32q64 0 115 -28.5t80 -80t29 -118.5q0 -19 -3 -39q-9 -74 -46.5 -131.5t-94.5 -90t-125 -32.5q-63 0 -114 28.5zM381 120q45 49 56 130q2 22 2 32q0 66 -35.5 106.5t-92.5 40.5h-7
q-63 0 -108 -49t-56 -130q-2 -22 -2 -32q0 -66 35.5 -106.5t91.5 -40.5h8q63 0 108 49zM240 700h104l44 -137h-62z" />
    <glyph glyph-name="oacute" unicode="&#xf3;" horiz-adv-x="576" vert-adv-y="1193" 
d="M152 18.5q-51 28.5 -80.5 80.5t-29.5 119q0 25 2 38q10 74 47.5 132t95 90t124.5 32q64 0 115 -28.5t80 -80t29 -118.5q0 -19 -3 -39q-9 -74 -46.5 -131.5t-94.5 -90t-125 -32.5q-63 0 -114 28.5zM381 120q45 49 56 130q2 22 2 32q0 66 -35.5 106.5t-92.5 40.5h-7
q-63 0 -108 -49t-56 -130q-2 -22 -2 -32q0 -66 35.5 -106.5t91.5 -40.5h8q63 0 108 49zM390 700h106l-106 -137h-66z" />
    <glyph glyph-name="ocircumflex" unicode="&#xf4;" horiz-adv-x="576" vert-adv-y="1193" 
d="M152 18.5q-51 28.5 -80.5 80.5t-29.5 119q0 25 2 38q10 74 47.5 132t95 90t124.5 32q64 0 115 -28.5t80 -80t29 -118.5q0 -19 -3 -39q-9 -74 -46.5 -131.5t-94.5 -90t-125 -32.5q-63 0 -114 28.5zM381 120q45 49 56 130q2 22 2 32q0 66 -35.5 106.5t-92.5 40.5h-7
q-63 0 -108 -49t-56 -130q-2 -22 -2 -32q0 -66 35.5 -106.5t91.5 -40.5h8q63 0 108 49zM325 700h103l85 -137h-65l-79 76l-113 -76h-74z" />
    <glyph glyph-name="otilde" unicode="&#xf5;" horiz-adv-x="576" vert-adv-y="1193" 
d="M152 18.5q-51 28.5 -80.5 80.5t-29.5 119q0 25 2 38q10 74 47.5 132t95 90t124.5 32q64 0 115 -28.5t80 -80t29 -118.5q0 -19 -3 -39q-9 -74 -46.5 -131.5t-94.5 -90t-125 -32.5q-63 0 -114 28.5zM381 120q45 49 56 130q2 22 2 32q0 66 -35.5 106.5t-92.5 40.5h-7
q-63 0 -108 -49t-56 -130q-2 -22 -2 -32q0 -66 35.5 -106.5t91.5 -40.5h8q63 0 108 49zM399.5 564q-16.5 7 -39.5 21l-28 17q-18 11 -28 15t-21 4q-17 0 -26.5 -12t-16.5 -42h-71l4 20q22 109 104 109q18 0 35 -6.5t42 -21.5l28 -17q30 -19 50 -19q18 0 27 12.5t15 41.5h70
l-4 -21q-10 -50 -36 -79t-68 -29q-20 0 -36.5 7z" />
    <glyph glyph-name="odieresis" unicode="&#xf6;" horiz-adv-x="576" vert-adv-y="1193" 
d="M152 18.5q-51 28.5 -80.5 80.5t-29.5 119q0 25 2 38q10 74 47.5 132t95 90t124.5 32q64 0 115 -28.5t80 -80t29 -118.5q0 -19 -3 -39q-9 -74 -46.5 -131.5t-94.5 -90t-125 -32.5q-63 0 -114 28.5zM381 120q45 49 56 130q2 22 2 32q0 66 -35.5 106.5t-92.5 40.5h-7
q-63 0 -108 -49t-56 -130q-2 -22 -2 -32q0 -66 35.5 -106.5t91.5 -40.5h8q63 0 108 49zM425 596.5q-14 14.5 -14 35.5q0 24 18 41.5t42 17.5q21 0 35 -14.5t14 -35.5q0 -23 -18 -41t-42 -18q-21 0 -35 14.5zM233.5 596q-13.5 14 -13.5 35q0 23 18 41.5t42 18.5
q21 0 34.5 -14t13.5 -35q0 -24 -18 -42t-42 -18q-21 0 -34.5 14z" />
    <glyph glyph-name="divide" unicode="&#xf7;" horiz-adv-x="606" vert-adv-y="1193" 
d="M66 301h494l-19 -87h-494zM211 37.5q-17 17.5 -17 43.5q0 30 22.5 52t51.5 22q26 0 43.5 -18t17.5 -43q0 -30 -22.5 -52t-52.5 -22q-26 0 -43 17.5zM284 378q-17 17 -17 43q0 30 22.5 52t51.5 22q26 0 43.5 -17t17.5 -43q0 -31 -22.5 -52.5t-52.5 -21.5q-26 0 -43 17z
" />
    <glyph glyph-name="oslash" unicode="&#xf8;" horiz-adv-x="578" vert-adv-y="1193" 
d="M121 41l-65 -62l-49 57l66 63q-30 54 -30 118q0 18 3 39q10 74 47.5 132t95 90t124.5 32q41 0 78 -12.5t65 -35.5l65 61l54 -52l-70 -66q31 -53 31 -123q0 -25 -2 -38q-9 -74 -46.5 -131.5t-94.5 -90t-125 -32.5q-85 0 -147 51zM383 120q45 49 56 130q2 22 2 32
q0 32 -7 54l-248 -235q33 -30 81 -30h8q63 0 108 49zM140 218q0 -27 6 -50l246 234q-33 27 -79 27h-7q-63 0 -108 -49t-56 -130q-2 -22 -2 -32z" />
    <glyph glyph-name="ugrave" unicode="&#xf9;" horiz-adv-x="566" vert-adv-y="1193" 
d="M94.5 32q-41.5 42 -41.5 112q0 27 6 55l63 301h96l-65 -305q-4 -16 -4 -34q0 -40 21 -63.5t58 -23.5h9q56 0 99 47.5t61 133.5l52 245h96l-106 -500h-95l11 54q-59 -64 -147 -64q-72 0 -113.5 42zM233 700h104l44 -137h-62z" />
    <glyph glyph-name="uacute" unicode="&#xfa;" horiz-adv-x="566" vert-adv-y="1193" 
d="M94.5 32q-41.5 42 -41.5 112q0 27 6 55l63 301h96l-65 -305q-4 -16 -4 -34q0 -40 21 -63.5t58 -23.5h9q56 0 99 47.5t61 133.5l52 245h96l-106 -500h-95l11 54q-59 -64 -147 -64q-72 0 -113.5 42zM383 700h106l-106 -137h-66z" />
    <glyph glyph-name="ucircumflex" unicode="&#xfb;" horiz-adv-x="566" vert-adv-y="1193" 
d="M94.5 32q-41.5 42 -41.5 112q0 27 6 55l63 301h96l-65 -305q-4 -16 -4 -34q0 -40 21 -63.5t58 -23.5h9q56 0 99 47.5t61 133.5l52 245h96l-106 -500h-95l11 54q-59 -64 -147 -64q-72 0 -113.5 42zM318 700h103l85 -137h-65l-79 76l-113 -76h-74z" />
    <glyph glyph-name="udieresis" unicode="&#xfc;" horiz-adv-x="566" vert-adv-y="1193" 
d="M94.5 32q-41.5 42 -41.5 112q0 27 6 55l63 301h96l-65 -305q-4 -16 -4 -34q0 -40 21 -63.5t58 -23.5h9q56 0 99 47.5t61 133.5l52 245h96l-106 -500h-95l11 54q-59 -64 -147 -64q-72 0 -113.5 42zM418 596.5q-14 14.5 -14 35.5q0 24 18 41.5t42 17.5q21 0 35 -14.5
t14 -35.5q0 -23 -18 -41t-42 -18q-21 0 -35 14.5zM226.5 596q-13.5 14 -13.5 35q0 23 18 41.5t42 18.5q21 0 34.5 -14t13.5 -35q0 -24 -18 -42t-42 -18q-21 0 -34.5 14z" />
    <glyph glyph-name="yacute" unicode="&#xfd;" horiz-adv-x="525" vert-adv-y="1193" 
d="M-54 -97h94q30 0 49.5 13t38.5 44l42 70l-117 470h96l89 -358l218 358h107l-351 -573q-38 -62 -77 -85t-97 -23h-110zM352 700h106l-106 -137h-66z" />
    <glyph glyph-name="thorn" unicode="&#xfe;" horiz-adv-x="609" vert-adv-y="1193" 
d="M172 700h95l-55 -252q25 28 63 45t82 17q60 0 107.5 -26.5t74.5 -76.5t27 -117q0 -85 -34 -153.5t-93 -107.5t-132 -39q-57 0 -103.5 26t-68.5 70l-60 -286h-95zM385 98.5q39 27.5 62 76.5t23 108q0 66 -35 106t-95 40h-9q-46 0 -83.5 -30.5t-58.5 -82t-21 -109.5
q0 -61 35.5 -98.5t89.5 -37.5h9q44 0 83 27.5z" />
    <glyph glyph-name="ydieresis" unicode="&#xff;" horiz-adv-x="525" vert-adv-y="1193" 
d="M-54 -97h94q30 0 49.5 13t38.5 44l42 70l-117 470h96l89 -358l218 358h107l-351 -573q-38 -62 -77 -85t-97 -23h-110zM387 596.5q-14 14.5 -14 35.5q0 24 18 41.5t42 17.5q21 0 35 -14.5t14 -35.5q0 -23 -18 -41t-42 -18q-21 0 -35 14.5zM195.5 596q-13.5 14 -13.5 35
q0 23 18 41.5t42 18.5q21 0 34.5 -14t13.5 -35q0 -24 -18 -42t-42 -18q-21 0 -34.5 14z" />
    <glyph glyph-name="Amacron" unicode="&#x100;" horiz-adv-x="687" vert-adv-y="1193" 
d="M377 700h125l123 -700h-96l-31 177h-335l-107 -177h-104zM482 268l-60 339l-205 -339h265zM321 854h296l-17 -77h-295z" />
    <glyph glyph-name="amacron" unicode="&#x101;" horiz-adv-x="553" vert-adv-y="1193" 
d="M71 28q-45 38 -45 105q0 76 59 122t161 46h158l4 21q2 14 2 21q0 42 -32.5 65t-79.5 23h-7q-45 0 -77.5 -20.5t-40.5 -55.5h-94q11 69 71 112t146 43t144 -42t58 -122q0 -23 -6 -50l-39 -186q-16 -73 -17 -110h-89q0 29 6 59q-61 -69 -163 -69q-74 0 -119 38zM285 85
q35 16 61 45.5t34 67.5l7 31h-138q-60 0 -95.5 -24.5t-35.5 -66.5q0 -32 23 -50.5t64 -18.5h9q36 0 71 16zM200 661h289l-16 -77h-288z" />
    <glyph glyph-name="Abreve" unicode="&#x102;" horiz-adv-x="687" vert-adv-y="1193" 
d="M377 700h125l123 -700h-96l-31 177h-335l-107 -177h-104zM482 268l-60 339l-205 -339h265zM360.5 781q-37.5 32 -37.5 86q0 7 2 23h77q-1 -4 -1 -12q0 -28 17.5 -42.5t49.5 -14.5t56 17.5t34 51.5h77q-12 -68 -59 -104.5t-116 -36.5q-62 0 -99.5 32z" />
    <glyph glyph-name="abreve" unicode="&#x103;" horiz-adv-x="553" vert-adv-y="1193" 
d="M71 28q-45 38 -45 105q0 76 59 122t161 46h158l4 21q2 14 2 21q0 42 -32.5 65t-79.5 23h-7q-45 0 -77.5 -20.5t-40.5 -55.5h-94q11 69 71 112t146 43t144 -42t58 -122q0 -23 -6 -50l-39 -186q-16 -73 -17 -110h-89q0 29 6 59q-61 -69 -163 -69q-74 0 -119 38zM285 85
q35 16 61 45.5t34 67.5l7 31h-138q-60 0 -95.5 -24.5t-35.5 -66.5q0 -32 23 -50.5t64 -18.5h9q36 0 71 16zM240.5 588q-36.5 32 -36.5 87q0 7 2 25h73q-1 -5 -1 -14q0 -31 17.5 -48t50.5 -17q31 0 54.5 19t35.5 60h73q-18 -70 -63 -107t-106 -37q-63 0 -99.5 32z" />
    <glyph glyph-name="Aogonek" unicode="&#x104;" horiz-adv-x="687" vert-adv-y="1193" 
d="M377 700h125l123 -700h-25q-44 -20 -72 -46.5t-28 -55.5q0 -20 11 -29t36 -9h34l-13 -66h-43q-97 0 -97 78q0 41 30 75.5t71 53.5l-31 176h-335l-107 -177h-104zM482 268l-60 339l-205 -339h265z" />
    <glyph glyph-name="aogonek" unicode="&#x105;" horiz-adv-x="553" vert-adv-y="1193" 
d="M71 28q-45 38 -45 105q0 76 59 122t161 46h158l4 21q2 14 2 21q0 42 -32.5 65t-79.5 23h-7q-45 0 -77.5 -20.5t-40.5 -55.5h-94q11 69 71 112t146 43t144 -42t58 -122q0 -23 -6 -50l-39 -186q-16 -73 -17 -110h-1q-44 -20 -72 -46.5t-28 -55.5q0 -20 11 -29t36 -9h34
l-13 -66h-43q-97 0 -97 78q0 40 29 74t69 54h-14q0 29 6 59q-61 -69 -163 -69q-74 0 -119 38zM285 85q35 16 61 45.5t34 67.5l7 31h-138q-60 0 -95.5 -24.5t-35.5 -66.5q0 -32 23 -50.5t64 -18.5h9q36 0 71 16z" />
    <glyph glyph-name="Cacute" unicode="&#x106;" horiz-adv-x="718" vert-adv-y="1193" 
d="M206 30q-67 40 -102.5 110.5t-35.5 161.5q0 24 3 48q11 103 59.5 185t126.5 128.5t176 46.5q80 0 141.5 -30.5t96.5 -85t36 -125.5h-101q-5 67 -51 108.5t-122 41.5h-9q-67 0 -121.5 -35t-88.5 -96.5t-43 -137.5q-3 -22 -3 -44q0 -65 23.5 -116t68 -80t105.5 -29h9
q75 0 128.5 41.5t74.5 109.5h104q-17 -72 -61.5 -127t-110 -85t-144.5 -30q-92 0 -159 40zM476 890h118l-93 -132h-72z" />
    <glyph glyph-name="cacute" unicode="&#x107;" horiz-adv-x="540" vert-adv-y="1193" 
d="M140.5 19.5q-48.5 29.5 -73.5 80.5t-25 115q0 11 2 35q8 73 42 132t90 93.5t127 34.5q60 0 106 -23.5t71.5 -64.5t27.5 -92h-95q-4 43 -33.5 71.5t-77.5 28.5h-3q-65 0 -107.5 -51.5t-51.5 -128.5q-2 -22 -2 -33q0 -64 31.5 -105t88.5 -41h3q48 0 83.5 29t49.5 70h98
q-22 -80 -84.5 -130t-151.5 -50q-67 0 -115.5 29.5zM364 700h106l-106 -137h-66z" />
    <glyph glyph-name="Ccircumflex" unicode="&#x108;" horiz-adv-x="718" vert-adv-y="1193" 
d="M206 30q-67 40 -102.5 110.5t-35.5 161.5q0 24 3 48q11 103 59.5 185t126.5 128.5t176 46.5q80 0 141.5 -30.5t96.5 -85t36 -125.5h-101q-5 67 -51 108.5t-122 41.5h-9q-67 0 -121.5 -35t-88.5 -96.5t-43 -137.5q-3 -22 -3 -44q0 -65 23.5 -116t68 -80t105.5 -29h9
q75 0 128.5 41.5t74.5 109.5h104q-17 -72 -61.5 -127t-110 -85t-144.5 -30q-92 0 -159 40zM429 890h115l92 -132h-70l-87 65l-115 -65h-83z" />
    <glyph glyph-name="ccircumflex" unicode="&#x109;" horiz-adv-x="540" vert-adv-y="1193" 
d="M140.5 19.5q-48.5 29.5 -73.5 80.5t-25 115q0 11 2 35q8 73 42 132t90 93.5t127 34.5q60 0 106 -23.5t71.5 -64.5t27.5 -92h-95q-4 43 -33.5 71.5t-77.5 28.5h-3q-65 0 -107.5 -51.5t-51.5 -128.5q-2 -22 -2 -33q0 -64 31.5 -105t88.5 -41h3q48 0 83.5 29t49.5 70h98
q-22 -80 -84.5 -130t-151.5 -50q-67 0 -115.5 29.5zM299 700h103l85 -137h-65l-79 76l-113 -76h-74z" />
    <glyph glyph-name="Cdotaccent" unicode="&#x10a;" horiz-adv-x="718" vert-adv-y="1193" 
d="M206 30q-67 40 -102.5 110.5t-35.5 161.5q0 24 3 48q11 103 59.5 185t126.5 128.5t176 46.5q80 0 141.5 -30.5t96.5 -85t36 -125.5h-101q-5 67 -51 108.5t-122 41.5h-9q-67 0 -121.5 -35t-88.5 -96.5t-43 -137.5q-3 -22 -3 -44q0 -65 23.5 -116t68 -80t105.5 -29h9
q75 0 128.5 41.5t74.5 109.5h104q-17 -72 -61.5 -127t-110 -85t-144.5 -30q-92 0 -159 40zM437 787q-15 15 -15 37q0 26 19.5 46.5t45.5 20.5q23 0 38 -15t15 -38q0 -25 -19.5 -45.5t-46.5 -20.5q-22 0 -37 15z" />
    <glyph glyph-name="cdotaccent" unicode="&#x10b;" horiz-adv-x="540" vert-adv-y="1193" 
d="M140.5 19.5q-48.5 29.5 -73.5 80.5t-25 115q0 11 2 35q8 73 42 132t90 93.5t127 34.5q60 0 106 -23.5t71.5 -64.5t27.5 -92h-95q-4 43 -33.5 71.5t-77.5 28.5h-3q-65 0 -107.5 -51.5t-51.5 -128.5q-2 -22 -2 -33q0 -64 31.5 -105t88.5 -41h3q48 0 83.5 29t49.5 70h98
q-22 -80 -84.5 -130t-151.5 -50q-67 0 -115.5 29.5zM302 602.5q-16 16.5 -16 39.5q0 26 19.5 46t46.5 20q24 0 40 -16t16 -39q0 -27 -20 -47t-46 -20q-24 0 -40 16.5z" />
    <glyph glyph-name="Ccaron" unicode="&#x10c;" horiz-adv-x="718" vert-adv-y="1193" 
d="M206 30q-67 40 -102.5 110.5t-35.5 161.5q0 24 3 48q11 103 59.5 185t126.5 128.5t176 46.5q80 0 141.5 -30.5t96.5 -85t36 -125.5h-101q-5 67 -51 108.5t-122 41.5h-9q-67 0 -121.5 -35t-88.5 -96.5t-43 -137.5q-3 -22 -3 -44q0 -65 23.5 -116t68 -80t105.5 -29h9
q75 0 128.5 41.5t74.5 109.5h104q-17 -72 -61.5 -127t-110 -85t-144.5 -30q-92 0 -159 40zM319 890h73l87 -65l116 65h78l-147 -132h-115z" />
    <glyph glyph-name="ccaron" unicode="&#x10d;" horiz-adv-x="540" vert-adv-y="1193" 
d="M140.5 19.5q-48.5 29.5 -73.5 80.5t-25 115q0 11 2 35q8 73 42 132t90 93.5t127 34.5q60 0 106 -23.5t71.5 -64.5t27.5 -92h-95q-4 43 -33.5 71.5t-77.5 28.5h-3q-65 0 -107.5 -51.5t-51.5 -128.5q-2 -22 -2 -33q0 -64 31.5 -105t88.5 -41h3q48 0 83.5 29t49.5 70h98
q-22 -80 -84.5 -130t-151.5 -50q-67 0 -115.5 29.5zM194 700h65l80 -75l112 75h74l-143 -137h-103z" />
    <glyph glyph-name="Dcaron" unicode="&#x10e;" horiz-adv-x="717" vert-adv-y="1193" 
d="M185 700h192q117 0 187 -42.5t98.5 -108t28.5 -140.5q0 -102 -41.5 -196.5t-121.5 -153.5t-189 -59h-303zM475 135q58 45 87 117.5t29 154.5q0 96 -55.5 149.5t-158.5 53.5h-112l-108 -520h177q83 0 141 45zM270 890h73l87 -65l116 65h78l-147 -132h-115z" />
    <glyph glyph-name="dcaron" unicode="&#x10f;" horiz-adv-x="633" vert-adv-y="1193" 
d="M142 16.5q-46 26.5 -73 76.5t-27 117q0 85 34 153.5t93 107.5t132 39q57 0 104 -25.5t69 -68.5l60 284h95l-149 -700h-95l11 52q-25 -28 -64 -45t-88 -17q-56 0 -102 26.5zM360.5 101.5q37.5 30.5 58.5 82t21 109.5q0 61 -35.5 98.5t-90.5 37.5h-9q-44 0 -82.5 -27.5
t-61.5 -76.5t-23 -108q0 -66 35 -106t95 -40h9q46 0 83.5 30.5zM648 557h11q51 0 60 40l1 5h-42l21 98h93l-22 -101q-11 -50 -40 -71t-77 -21h-15z" />
    <glyph glyph-name="Dcroat" unicode="&#x110;" horiz-adv-x="751" vert-adv-y="1193" 
d="M136 306h-88l20 88h87l65 306h192q117 0 187 -42.5t98.5 -108t28.5 -140.5q0 -102 -41.5 -196.5t-121.5 -153.5t-189 -59h-303zM510 135q58 45 87 117.5t29 154.5q0 96 -55.5 149.5t-158.5 53.5h-112l-45 -216h149l-20 -88h-147l-45 -216h177q83 0 141 45z" />
    <glyph glyph-name="dcroat" unicode="&#x111;" horiz-adv-x="608" vert-adv-y="1193" 
d="M142 16.5q-46 26.5 -73 76.5t-27 117q0 85 34 153.5t93 107.5t132 39q57 0 104 -25.5t69 -68.5l31 146h-161l16 73h160l14 65h95l-14 -65h77l-16 -73h-76l-120 -562h-95l11 52q-25 -28 -64 -45t-88 -17q-56 0 -102 26.5zM360.5 101.5q37.5 30.5 58.5 82t21 109.5
q0 61 -35.5 98.5t-90.5 37.5h-9q-44 0 -82.5 -27.5t-61.5 -76.5t-23 -108q0 -66 35 -106t95 -40h9q46 0 83.5 30.5z" />
    <glyph glyph-name="Emacron" unicode="&#x112;" horiz-adv-x="652" vert-adv-y="1193" 
d="M185 700h510l-20 -90h-409l-44 -205h350l-19 -90h-350l-47 -225h419l-19 -90h-520zM320 854h296l-17 -77h-295z" />
    <glyph glyph-name="emacron" unicode="&#x113;" horiz-adv-x="546" vert-adv-y="1193" 
d="M146.5 17.5q-48.5 27.5 -76 78.5t-27.5 120q0 13 2 39q9 77 45 135t90.5 89t118.5 31q95 0 150.5 -58t55.5 -153q0 -34 -6 -67h-364l-1 -19q0 -67 35 -105t88 -38h6q42 0 75 22t48 60h97q-25 -74 -84.5 -118t-142.5 -44q-61 0 -109.5 27.5zM382 397q-31 34 -82 34h-7
q-48 0 -86.5 -31t-57.5 -93h262q2 56 -29 90zM189 661h289l-16 -77h-288z" />
    <glyph glyph-name="Ebreve" unicode="&#x114;" horiz-adv-x="652" vert-adv-y="1193" 
d="M185 700h510l-20 -90h-409l-44 -205h350l-19 -90h-350l-47 -225h419l-19 -90h-520zM359.5 781q-37.5 32 -37.5 86q0 7 2 23h77q-1 -4 -1 -12q0 -28 17.5 -42.5t49.5 -14.5t56 17.5t34 51.5h77q-12 -68 -59 -104.5t-116 -36.5q-62 0 -99.5 32z" />
    <glyph glyph-name="ebreve" unicode="&#x115;" horiz-adv-x="546" vert-adv-y="1193" 
d="M146.5 17.5q-48.5 27.5 -76 78.5t-27.5 120q0 13 2 39q9 77 45 135t90.5 89t118.5 31q95 0 150.5 -58t55.5 -153q0 -34 -6 -67h-364l-1 -19q0 -67 35 -105t88 -38h6q42 0 75 22t48 60h97q-25 -74 -84.5 -118t-142.5 -44q-61 0 -109.5 27.5zM382 397q-31 34 -82 34h-7
q-48 0 -86.5 -31t-57.5 -93h262q2 56 -29 90zM229.5 588q-36.5 32 -36.5 87q0 7 2 25h73q-1 -5 -1 -14q0 -31 17.5 -48t50.5 -17q31 0 54.5 19t35.5 60h73q-18 -70 -63 -107t-106 -37q-63 0 -99.5 32z" />
    <glyph glyph-name="Edotaccent" unicode="&#x116;" horiz-adv-x="652" vert-adv-y="1193" 
d="M185 700h510l-20 -90h-409l-44 -205h350l-19 -90h-350l-47 -225h419l-19 -90h-520zM423 787q-15 15 -15 37q0 26 19.5 46.5t45.5 20.5q23 0 38 -15t15 -38q0 -25 -19.5 -45.5t-46.5 -20.5q-22 0 -37 15z" />
    <glyph glyph-name="edotaccent" unicode="&#x117;" horiz-adv-x="546" vert-adv-y="1193" 
d="M146.5 17.5q-48.5 27.5 -76 78.5t-27.5 120q0 13 2 39q9 77 45 135t90.5 89t118.5 31q95 0 150.5 -58t55.5 -153q0 -34 -6 -67h-364l-1 -19q0 -67 35 -105t88 -38h6q42 0 75 22t48 60h97q-25 -74 -84.5 -118t-142.5 -44q-61 0 -109.5 27.5zM382 397q-31 34 -82 34h-7
q-48 0 -86.5 -31t-57.5 -93h262q2 56 -29 90zM297 602.5q-16 16.5 -16 39.5q0 26 19.5 46t46.5 20q24 0 40 -16t16 -39q0 -27 -20 -47t-46 -20q-24 0 -40 16.5z" />
    <glyph glyph-name="Eogonek" unicode="&#x118;" horiz-adv-x="652" vert-adv-y="1193" 
d="M185 700h510l-20 -90h-409l-44 -205h350l-19 -90h-350l-47 -225h419l-19 -90h-1q-44 -20 -72 -46.5t-28 -55.5q0 -20 11 -29t36 -9h34l-13 -66h-43q-97 0 -97 78q0 40 29 74t69 54h-445z" />
    <glyph glyph-name="eogonek" unicode="&#x119;" horiz-adv-x="547" vert-adv-y="1193" 
d="M157 -128q0 36 23.5 67t57.5 52q-87 6 -141 65t-54 157q0 20 3 42q8 76 44 134t91 89.5t118 31.5q94 0 150 -58t56 -153q0 -34 -6 -67h-363q-1 -7 -1 -21q0 -66 34.5 -103.5t87.5 -37.5h6q42 0 75 22t48 60h98q-35 -105 -144 -152q-111 -47 -111 -102q0 -20 11 -29t36 -9
h34l-14 -66h-42q-97 0 -97 78zM382.5 397.5q-31.5 33.5 -82.5 33.5h-7q-47 0 -86 -31t-58 -93h262q3 57 -28.5 90.5z" />
    <glyph glyph-name="Ecaron" unicode="&#x11a;" horiz-adv-x="652" vert-adv-y="1193" 
d="M185 700h510l-20 -90h-409l-44 -205h350l-19 -90h-350l-47 -225h419l-19 -90h-520zM305 890h73l87 -65l116 65h78l-147 -132h-115z" />
    <glyph glyph-name="ecaron" unicode="&#x11b;" horiz-adv-x="546" vert-adv-y="1193" 
d="M146.5 17.5q-48.5 27.5 -76 78.5t-27.5 120q0 13 2 39q9 77 45 135t90.5 89t118.5 31q95 0 150.5 -58t55.5 -153q0 -34 -6 -67h-364l-1 -19q0 -67 35 -105t88 -38h6q42 0 75 22t48 60h97q-25 -74 -84.5 -118t-142.5 -44q-61 0 -109.5 27.5zM382 397q-31 34 -82 34h-7
q-48 0 -86.5 -31t-57.5 -93h262q2 56 -29 90zM189 700h65l80 -75l112 75h74l-143 -137h-103z" />
    <glyph glyph-name="Gcircumflex" unicode="&#x11c;" horiz-adv-x="758" vert-adv-y="1193" 
d="M208.5 28.5q-66.5 38.5 -103.5 107t-37 156.5q0 116 46 211.5t131.5 151t198.5 55.5q78 0 141 -31t100 -85.5t39 -120.5h-101q-8 70 -60 108.5t-125 38.5h-10q-75 0 -134.5 -43.5t-92.5 -115.5t-33 -155q0 -105 54 -165.5t144 -60.5h8q86 0 152 50.5t90 142.5h-213l19 88
h210q39 0 59 -19t20 -54q0 -12 -3 -29l-55 -259h-89l20 93q-34 -46 -92.5 -74.5t-131.5 -28.5q-85 0 -151.5 38.5zM446 890h115l92 -132h-70l-87 65l-115 -65h-83z" />
    <glyph glyph-name="gcircumflex" unicode="&#x11d;" horiz-adv-x="597" vert-adv-y="1193" 
d="M59 -179q-60 41 -66 118h94q5 -37 38 -58.5t82 -21.5h9q64 0 104.5 38.5t55.5 108.5l11 52q-26 -27 -63 -42.5t-80 -15.5q-51 0 -96 23t-73.5 72t-28.5 121q0 89 33 155.5t89 102.5t123 36q62 0 107 -27t65 -68l18 85h95l-109 -511q-44 -209 -260 -209q-88 0 -148 41z
M353 108q37 28 57 75t20 101q0 68 -34.5 107.5t-88.5 39.5h-10q-41 0 -77 -26.5t-57.5 -74t-21.5 -109.5q0 -68 33.5 -104.5t84.5 -36.5h9q48 0 85 28zM304 700h103l85 -137h-65l-79 76l-113 -76h-74z" />
    <glyph glyph-name="Gbreve" unicode="&#x11e;" horiz-adv-x="758" vert-adv-y="1193" 
d="M208.5 28.5q-66.5 38.5 -103.5 107t-37 156.5q0 116 46 211.5t131.5 151t198.5 55.5q78 0 141 -31t100 -85.5t39 -120.5h-101q-8 70 -60 108.5t-125 38.5h-10q-75 0 -134.5 -43.5t-92.5 -115.5t-33 -155q0 -105 54 -165.5t144 -60.5h8q86 0 152 50.5t90 142.5h-213l19 88
h210q39 0 59 -19t20 -54q0 -12 -3 -29l-55 -259h-89l20 93q-34 -46 -92.5 -74.5t-131.5 -28.5q-85 0 -151.5 38.5zM390.5 781q-37.5 32 -37.5 86q0 7 2 23h77q-1 -4 -1 -12q0 -28 17.5 -42.5t49.5 -14.5t56 17.5t34 51.5h77q-12 -68 -59 -104.5t-116 -36.5q-62 0 -99.5 32z
" />
    <glyph glyph-name="gbreve" unicode="&#x11f;" horiz-adv-x="597" vert-adv-y="1193" 
d="M59 -179q-60 41 -66 118h94q5 -37 38 -58.5t82 -21.5h9q64 0 104.5 38.5t55.5 108.5l11 52q-26 -27 -63 -42.5t-80 -15.5q-51 0 -96 23t-73.5 72t-28.5 121q0 89 33 155.5t89 102.5t123 36q62 0 107 -27t65 -68l18 85h95l-109 -511q-44 -209 -260 -209q-88 0 -148 41z
M353 108q37 28 57 75t20 101q0 68 -34.5 107.5t-88.5 39.5h-10q-41 0 -77 -26.5t-57.5 -74t-21.5 -109.5q0 -68 33.5 -104.5t84.5 -36.5h9q48 0 85 28zM239.5 588q-36.5 32 -36.5 87q0 7 2 25h73q-1 -5 -1 -14q0 -31 17.5 -48t50.5 -17q31 0 54.5 19t35.5 60h73
q-18 -70 -63 -107t-106 -37q-63 0 -99.5 32z" />
    <glyph glyph-name="Gdotaccent" unicode="&#x120;" horiz-adv-x="758" vert-adv-y="1193" 
d="M208.5 28.5q-66.5 38.5 -103.5 107t-37 156.5q0 116 46 211.5t131.5 151t198.5 55.5q78 0 141 -31t100 -85.5t39 -120.5h-101q-8 70 -60 108.5t-125 38.5h-10q-75 0 -134.5 -43.5t-92.5 -115.5t-33 -155q0 -105 54 -165.5t144 -60.5h8q86 0 152 50.5t90 142.5h-213l19 88
h210q39 0 59 -19t20 -54q0 -12 -3 -29l-55 -259h-89l20 93q-34 -46 -92.5 -74.5t-131.5 -28.5q-85 0 -151.5 38.5zM454 787q-15 15 -15 37q0 26 19.5 46.5t45.5 20.5q23 0 38 -15t15 -38q0 -25 -19.5 -45.5t-46.5 -20.5q-22 0 -37 15z" />
    <glyph glyph-name="gdotaccent" unicode="&#x121;" horiz-adv-x="597" vert-adv-y="1193" 
d="M59 -179q-60 41 -66 118h94q5 -37 38 -58.5t82 -21.5h9q64 0 104.5 38.5t55.5 108.5l11 52q-26 -27 -63 -42.5t-80 -15.5q-51 0 -96 23t-73.5 72t-28.5 121q0 89 33 155.5t89 102.5t123 36q62 0 107 -27t65 -68l18 85h95l-109 -511q-44 -209 -260 -209q-88 0 -148 41z
M353 108q37 28 57 75t20 101q0 68 -34.5 107.5t-88.5 39.5h-10q-41 0 -77 -26.5t-57.5 -74t-21.5 -109.5q0 -68 33.5 -104.5t84.5 -36.5h9q48 0 85 28zM307 602.5q-16 16.5 -16 39.5q0 26 19.5 46t46.5 20q24 0 40 -16t16 -39q0 -27 -20 -47t-46 -20q-24 0 -40 16.5z" />
    <glyph glyph-name="uni0122" unicode="&#x122;" horiz-adv-x="758" vert-adv-y="1193" 
d="M208.5 28.5q-66.5 38.5 -103.5 107t-37 156.5q0 116 46 211.5t131.5 151t198.5 55.5q78 0 141 -31t100 -85.5t39 -120.5h-101q-8 70 -60 108.5t-125 38.5h-10q-75 0 -134.5 -43.5t-92.5 -115.5t-33 -155q0 -105 54 -165.5t144 -60.5h8q86 0 152 50.5t90 142.5h-213l19 88
h210q39 0 59 -19t20 -54q0 -12 -3 -29l-55 -259h-89l20 93q-34 -46 -92.5 -74.5t-131.5 -28.5q-85 0 -151.5 38.5zM249 -213h10q25 0 37 9t16 28l1 2h-42l18 92h95l-21 -99q-8 -37 -35.5 -59t-70.5 -22h-18z" />
    <glyph glyph-name="uni0123" unicode="&#x123;" horiz-adv-x="597" vert-adv-y="1193" 
d="M59 -179q-60 41 -66 118h94q5 -37 38 -58.5t82 -21.5h9q64 0 104.5 38.5t55.5 108.5l11 52q-26 -27 -63 -42.5t-80 -15.5q-51 0 -96 23t-73.5 72t-28.5 121q0 89 33 155.5t89 102.5t123 36q62 0 107 -27t65 -68l18 85h95l-109 -511q-44 -209 -260 -209q-88 0 -148 41z
M353 108q37 28 57 75t20 101q0 68 -34.5 107.5t-88.5 39.5h-10q-41 0 -77 -26.5t-57.5 -74t-21.5 -109.5q0 -68 33.5 -104.5t84.5 -36.5h9q48 0 85 28zM351.5 764.5q27.5 23.5 77.5 23.5h19l-12 -52h-14q-25 0 -37.5 -9t-17.5 -31l-1 -5h43l-22 -100h-95l21 101
q11 49 38.5 72.5z" />
    <glyph glyph-name="Hcircumflex" unicode="&#x124;" horiz-adv-x="735" vert-adv-y="1193" 
d="M185 700h100l-64 -305h354l65 305h100l-149 -700h-100l65 305h-355l-65 -305h-100zM439 890h115l92 -132h-70l-87 65l-115 -65h-83z" />
    <glyph glyph-name="hcircumflex" unicode="&#x125;" horiz-adv-x="571" vert-adv-y="1193" 
d="M171 700h95l-54 -256q55 66 139 66q74 0 121 -42t47 -119q0 -21 -7 -58l-62 -291h-95l61 291q5 25 5 41q0 44 -24 69.5t-69 25.5h-8q-49 0 -90 -44t-58 -127l-54 -256h-95zM200 890h103l85 -137h-65l-79 76l-113 -76h-74z" />
    <glyph glyph-name="Hbar" unicode="&#x126;" horiz-adv-x="810" vert-adv-y="1193" 
d="M182 508h-68l18 83h68l23 109h100l-23 -109h355l23 109h100l-23 -109h66l-17 -83h-67l-108 -508h-100l65 305h-355l-65 -305h-100zM613 395l24 113h-354l-24 -113h354z" />
    <glyph glyph-name="hbar" unicode="&#x127;" horiz-adv-x="571" vert-adv-y="1193" 
d="M142 562h-77l16 73h76l14 65h95l-14 -65h161l-16 -73h-160l-25 -118q55 66 139 66q74 0 121 -42t47 -119q0 -21 -7 -58l-62 -291h-95l61 291q5 25 5 41q0 44 -24 69.5t-69 25.5h-8q-49 0 -90 -44t-58 -127l-54 -256h-95z" />
    <glyph glyph-name="Itilde" unicode="&#x128;" horiz-adv-x="280" vert-adv-y="1193" 
d="M185 700h100l-149 -700h-100zM256 782l-25 18q-14 10 -23 14.5t-20 4.5q-31 0 -41 -54h-73l3 17q12 55 40 84t71 29q21 0 36.5 -7t33.5 -20l24 -18q28 -19 44 -19q34 0 42 54h75l-5 -23q-9 -52 -36 -79.5t-70 -27.5q-41 0 -76 27z" />
    <glyph glyph-name="itilde" unicode="&#x129;" horiz-adv-x="245" vert-adv-y="1193" 
d="M128 500h95l-106 -500h-95zM234.5 564q-16.5 7 -39.5 21l-28 17q-18 11 -28 15t-21 4q-17 0 -26.5 -12t-16.5 -42h-71l4 20q22 109 104 109q18 0 35 -6.5t42 -21.5l28 -17q30 -19 50 -19q18 0 27 12.5t15 41.5h70l-4 -21q-10 -50 -36 -79t-68 -29q-20 0 -36.5 7z" />
    <glyph glyph-name="Imacron" unicode="&#x12a;" horiz-adv-x="280" vert-adv-y="1193" 
d="M185 700h100l-149 -700h-100zM116 854h296l-17 -77h-295z" />
    <glyph glyph-name="imacron" unicode="&#x12b;" horiz-adv-x="245" vert-adv-y="1193" 
d="M128 500h95l-106 -500h-95zM55 661h289l-16 -77h-288z" />
    <glyph glyph-name="Ibreve" unicode="&#x12c;" horiz-adv-x="280" vert-adv-y="1193" 
d="M185 700h100l-149 -700h-100zM155.5 781q-37.5 32 -37.5 86q0 7 2 23h77q-1 -4 -1 -12q0 -28 17.5 -42.5t49.5 -14.5t56 17.5t34 51.5h77q-12 -68 -59 -104.5t-116 -36.5q-62 0 -99.5 32z" />
    <glyph glyph-name="ibreve" unicode="&#x12d;" horiz-adv-x="245" vert-adv-y="1193" 
d="M128 500h95l-106 -500h-95zM95.5 588q-36.5 32 -36.5 87q0 7 2 25h73q-1 -5 -1 -14q0 -31 17.5 -48t50.5 -17q31 0 54.5 19t35.5 60h73q-18 -70 -63 -107t-106 -37q-63 0 -99.5 32z" />
    <glyph glyph-name="Iogonek" unicode="&#x12e;" horiz-adv-x="280" vert-adv-y="1193" 
d="M185 700h100l-149 -700h-1q-44 -20 -72 -46.5t-28 -55.5q0 -20 11 -29t36 -9h34l-13 -66h-43q-97 0 -97 78q0 40 29 74t69 54h-25z" />
    <glyph glyph-name="iogonek" unicode="&#x12f;" horiz-adv-x="245" vert-adv-y="1193" 
d="M128 500h95l-106 -500h-1q-44 -20 -72 -46.5t-28 -55.5q0 -20 11 -29t36 -9h34l-13 -66h-43q-97 0 -97 78q0 40 29 74t69 54h-20zM163 602.5q-16 16.5 -16 39.5q0 26 19.5 46t46.5 20q24 0 40 -16t16 -39q0 -27 -20 -47t-46 -20q-24 0 -40 16.5z" />
    <glyph glyph-name="Idotaccent" unicode="&#x130;" horiz-adv-x="280" vert-adv-y="1193" 
d="M185 700h100l-149 -700h-100zM219 787q-15 15 -15 37q0 26 19.5 46.5t45.5 20.5q23 0 38 -15t15 -38q0 -25 -19.5 -45.5t-46.5 -20.5q-22 0 -37 15z" />
    <glyph glyph-name="dotlessi" unicode="&#x131;" horiz-adv-x="245" vert-adv-y="1193" 
d="M128 500h95l-106 -500h-95z" />
    <glyph glyph-name="IJ" unicode="&#x132;" horiz-adv-x="574" vert-adv-y="1193" 
d="M57 95h208q48 0 73.5 23.5t36.5 73.5l108 508h100l-109 -515q-20 -95 -70.5 -140t-140.5 -45h-226zM185 700h100l-107 -505h-100z" />
    <glyph glyph-name="ij" unicode="&#x133;" horiz-adv-x="494" vert-adv-y="1193" 
d="M1 -100h199q28 0 41.5 11.5t18.5 38.5l116 550h95l-118 -562q-14 -63 -47 -92t-91 -29h-231zM128 500h95l-105 -500h-95zM160.5 597q-15.5 15 -15.5 38q0 26 20.5 47t46.5 21q23 0 38.5 -16.5t15.5 -39.5q0 -26 -20.5 -45.5t-46.5 -19.5q-23 0 -38.5 15zM409.5 598.5
q-15.5 16.5 -15.5 38.5q0 26 20.5 46t47.5 20q22 0 37 -15.5t15 -38.5q0 -25 -20 -46t-46 -21q-23 0 -38.5 16.5z" />
    <glyph glyph-name="Jcircumflex" unicode="&#x134;" horiz-adv-x="384" vert-adv-y="1193" 
d="M-20 95h100q46 0 70 22.5t35 72.5l109 510h100l-111 -520q-20 -96 -70.5 -138t-145.5 -42h-107zM320 890h115l92 -132h-70l-87 65l-115 -65h-83z" />
    <glyph glyph-name="jcircumflex" unicode="&#x135;" horiz-adv-x="245" vert-adv-y="1193" 
d="M-147 -100h94q29 0 44 12.5t21 41.5l116 546h95l-118 -553q-14 -67 -49.5 -98.5t-104.5 -31.5h-116zM160 700h103l85 -137h-65l-79 76l-113 -76h-74z" />
    <glyph glyph-name="uni0136" unicode="&#x136;" horiz-adv-x="650" vert-adv-y="1193" 
d="M185 700h100l-73 -344l409 344h139l-340 -286l198 -414h-110l-166 348l-160 -132l-45 -216h-100zM234 -213h10q25 0 37 9t16 28l1 2h-42l18 92h95l-21 -99q-8 -37 -35.5 -59t-70.5 -22h-18z" />
    <glyph glyph-name="uni0137" unicode="&#x137;" horiz-adv-x="523" vert-adv-y="1193" 
d="M170 700h95l-87 -411l259 211h133l-246 -199l160 -301h-106l-128 243l-98 -80l-35 -163h-95zM164 -213h10q25 0 37 9t16 28l1 2h-42l18 92h95l-21 -99q-8 -37 -35.5 -59t-70.5 -22h-18z" />
    <glyph glyph-name="Lacute" unicode="&#x139;" horiz-adv-x="612" vert-adv-y="1193" 
d="M185 700h100l-129 -610h411l-19 -90h-512zM258 890h118l-93 -132h-72z" />
    <glyph glyph-name="lacute" unicode="&#x13a;" horiz-adv-x="245" vert-adv-y="1193" 
d="M172 700h95l-149 -700h-95zM266 891h106l-106 -137h-66z" />
    <glyph glyph-name="uni013B" unicode="&#x13b;" horiz-adv-x="612" vert-adv-y="1193" 
d="M185 700h100l-129 -610h411l-19 -90h-512zM186 -213h10q25 0 37 9t16 28l1 2h-42l18 92h95l-21 -99q-8 -37 -35.5 -59t-70.5 -22h-18z" />
    <glyph glyph-name="uni013C" unicode="&#x13c;" horiz-adv-x="245" vert-adv-y="1193" 
d="M172 700h95l-149 -700h-95zM-36 -213h10q25 0 37 9t16 28l1 2h-42l18 92h95l-21 -99q-8 -37 -35.5 -59t-70.5 -22h-18z" />
    <glyph glyph-name="Lcaron" unicode="&#x13d;" horiz-adv-x="612" vert-adv-y="1193" 
d="M185 700h100l-129 -610h411l-19 -90h-512zM360 557h11q51 0 60 40l1 5h-42l21 98h93l-22 -101q-11 -50 -40 -71t-77 -21h-15z" />
    <glyph glyph-name="lcaron" unicode="&#x13e;" horiz-adv-x="270" vert-adv-y="1193" 
d="M172 700h95l-149 -700h-95zM286 557h11q51 0 60 40l1 5h-42l21 98h93l-22 -101q-11 -50 -40 -71t-77 -21h-15z" />
    <glyph glyph-name="Ldot" unicode="&#x13f;" horiz-adv-x="613" vert-adv-y="1193" 
d="M185 700h100l-129 -610h411l-19 -90h-512zM422.5 329.5q-17.5 17.5 -17.5 43.5q0 31 23 53.5t52 22.5q27 0 44.5 -18t17.5 -44q0 -30 -22.5 -52.5t-53.5 -22.5q-26 0 -43.5 17.5z" />
    <glyph glyph-name="ldot" unicode="&#x140;" horiz-adv-x="338" vert-adv-y="1193" 
d="M172 700h95l-149 -700h-95zM259.5 285.5q-17.5 17.5 -17.5 43.5q0 31 23 53.5t52 22.5q27 0 44.5 -18t17.5 -44q0 -30 -22.5 -52.5t-53.5 -22.5q-26 0 -43.5 17.5z" />
    <glyph glyph-name="Lslash" unicode="&#x141;" horiz-adv-x="658" vert-adv-y="1193" 
d="M135 252l-105 -53l22 106l105 53l73 342h100l-60 -286l207 104l-23 -104l-207 -105l-46 -219h411l-19 -90h-512z" />
    <glyph glyph-name="lslash" unicode="&#x142;" horiz-adv-x="328" vert-adv-y="1193" 
d="M130 305l-90 -43l20 94l90 44l64 300h95l-53 -249l91 44l-20 -95l-91 -44l-76 -356h-95z" />
    <glyph glyph-name="Nacute" unicode="&#x143;" horiz-adv-x="745" vert-adv-y="1193" 
d="M185 700h135l205 -586l125 586h100l-149 -700h-134l-207 585l-124 -585h-100zM491 890h118l-93 -132h-72z" />
    <glyph glyph-name="nacute" unicode="&#x144;" horiz-adv-x="571" vert-adv-y="1193" 
d="M128 500h95l-12 -56q55 66 140 66q73 0 120 -42t47 -119q0 -29 -7 -58l-61 -291h-95l61 291q4 19 4 39q0 45 -24 70.5t-69 25.5h-7q-49 0 -90.5 -44t-58.5 -127l-54 -255h-95zM394 700h106l-106 -137h-66z" />
    <glyph glyph-name="uni0145" unicode="&#x145;" horiz-adv-x="745" vert-adv-y="1193" 
d="M185 700h135l205 -586l125 586h100l-149 -700h-134l-207 585l-124 -585h-100zM213 -213h10q25 0 37 9t16 28l1 2h-42l18 92h95l-21 -99q-8 -37 -35.5 -59t-70.5 -22h-18z" />
    <glyph glyph-name="uni0146" unicode="&#x146;" horiz-adv-x="571" vert-adv-y="1193" 
d="M128 500h95l-12 -56q55 66 140 66q73 0 120 -42t47 -119q0 -29 -7 -58l-61 -291h-95l61 291q4 19 4 39q0 45 -24 70.5t-69 25.5h-7q-49 0 -90.5 -44t-58.5 -127l-54 -255h-95zM133 -213h10q25 0 37 9t16 28l1 2h-42l18 92h95l-21 -99q-8 -37 -35.5 -59t-70.5 -22h-18z
" />
    <glyph glyph-name="Ncaron" unicode="&#x147;" horiz-adv-x="745" vert-adv-y="1193" 
d="M185 700h135l205 -586l125 586h100l-149 -700h-134l-207 585l-124 -585h-100zM334 890h73l87 -65l116 65h78l-147 -132h-115z" />
    <glyph glyph-name="ncaron" unicode="&#x148;" horiz-adv-x="571" vert-adv-y="1193" 
d="M128 500h95l-12 -56q55 66 140 66q73 0 120 -42t47 -119q0 -29 -7 -58l-61 -291h-95l61 291q4 19 4 39q0 45 -24 70.5t-69 25.5h-7q-49 0 -90.5 -44t-58.5 -127l-54 -255h-95zM224 700h65l80 -75l112 75h74l-143 -137h-103z" />
    <glyph glyph-name="Eng" unicode="&#x14a;" horiz-adv-x="745" vert-adv-y="1193" 
d="M340 -100h77q63 0 76 63l9 37l-245 571l-121 -571h-100l149 700h120l230 -538l115 538h100l-160 -749q-15 -70 -54 -104.5t-111 -34.5h-105z" />
    <glyph glyph-name="eng" unicode="&#x14b;" horiz-adv-x="571" vert-adv-y="1193" 
d="M214 -99h69q28 0 41.5 11t19.5 40l72 339q4 19 4 39q0 45 -24 70.5t-69 25.5h-7q-49 0 -90.5 -44t-58.5 -126l-54 -256h-95l106 500h95l-12 -56q55 66 140 66q73 0 120 -42t47 -119q0 -29 -7 -58l-74 -351q-14 -64 -46.5 -93t-95.5 -29h-99z" />
    <glyph glyph-name="Omacron" unicode="&#x14c;" horiz-adv-x="772" vert-adv-y="1193" 
d="M216.5 28q-69.5 38 -109 108t-39.5 164q0 25 3 50q12 108 62.5 189.5t129.5 126t174 44.5q88 0 158 -38t110 -108.5t40 -164.5q0 -23 -3 -49q-12 -108 -63 -189.5t-130.5 -126t-174.5 -44.5q-88 0 -157.5 38zM503 113.5q55 32.5 91.5 93.5t46.5 143q3 23 3 43
q0 69 -26.5 120t-73.5 78.5t-107 27.5h-9q-65 0 -120 -32.5t-91.5 -93.5t-45.5 -143q-3 -24 -3 -45q0 -69 26 -119.5t72.5 -77.5t106.5 -27h10q65 0 120 32.5zM361 854h296l-17 -77h-295z" />
    <glyph glyph-name="omacron" unicode="&#x14d;" horiz-adv-x="576" vert-adv-y="1193" 
d="M152 18.5q-51 28.5 -80.5 80.5t-29.5 119q0 25 2 38q10 74 47.5 132t95 90t124.5 32q64 0 115 -28.5t80 -80t29 -118.5q0 -19 -3 -39q-9 -74 -46.5 -131.5t-94.5 -90t-125 -32.5q-63 0 -114 28.5zM381 120q45 49 56 130q2 22 2 32q0 66 -35.5 106.5t-92.5 40.5h-7
q-63 0 -108 -49t-56 -130q-2 -22 -2 -32q0 -66 35.5 -106.5t91.5 -40.5h8q63 0 108 49zM220 661h289l-16 -77h-288z" />
    <glyph glyph-name="Obreve" unicode="&#x14e;" horiz-adv-x="772" vert-adv-y="1193" 
d="M216.5 28q-69.5 38 -109 108t-39.5 164q0 25 3 50q12 108 62.5 189.5t129.5 126t174 44.5q88 0 158 -38t110 -108.5t40 -164.5q0 -23 -3 -49q-12 -108 -63 -189.5t-130.5 -126t-174.5 -44.5q-88 0 -157.5 38zM503 113.5q55 32.5 91.5 93.5t46.5 143q3 23 3 43
q0 69 -26.5 120t-73.5 78.5t-107 27.5h-9q-65 0 -120 -32.5t-91.5 -93.5t-45.5 -143q-3 -24 -3 -45q0 -69 26 -119.5t72.5 -77.5t106.5 -27h10q65 0 120 32.5zM400.5 781q-37.5 32 -37.5 86q0 7 2 23h77q-1 -4 -1 -12q0 -28 17.5 -42.5t49.5 -14.5t56 17.5t34 51.5h77
q-12 -68 -59 -104.5t-116 -36.5q-62 0 -99.5 32z" />
    <glyph glyph-name="obreve" unicode="&#x14f;" horiz-adv-x="576" vert-adv-y="1193" 
d="M152 18.5q-51 28.5 -80.5 80.5t-29.5 119q0 25 2 38q10 74 47.5 132t95 90t124.5 32q64 0 115 -28.5t80 -80t29 -118.5q0 -19 -3 -39q-9 -74 -46.5 -131.5t-94.5 -90t-125 -32.5q-63 0 -114 28.5zM381 120q45 49 56 130q2 22 2 32q0 66 -35.5 106.5t-92.5 40.5h-7
q-63 0 -108 -49t-56 -130q-2 -22 -2 -32q0 -66 35.5 -106.5t91.5 -40.5h8q63 0 108 49zM260.5 588q-36.5 32 -36.5 87q0 7 2 25h73q-1 -5 -1 -14q0 -31 17.5 -48t50.5 -17q31 0 54.5 19t35.5 60h73q-18 -70 -63 -107t-106 -37q-63 0 -99.5 32z" />
    <glyph glyph-name="Ohungarumlaut" unicode="&#x150;" horiz-adv-x="772" vert-adv-y="1193" 
d="M216.5 28q-69.5 38 -109 108t-39.5 164q0 25 3 50q12 108 62.5 189.5t129.5 126t174 44.5q88 0 158 -38t110 -108.5t40 -164.5q0 -23 -3 -49q-12 -108 -63 -189.5t-130.5 -126t-174.5 -44.5q-88 0 -157.5 38zM503 113.5q55 32.5 91.5 93.5t46.5 143q3 23 3 43
q0 69 -26.5 120t-73.5 78.5t-107 27.5h-9q-65 0 -120 -32.5t-91.5 -93.5t-45.5 -143q-3 -24 -3 -45q0 -69 26 -119.5t72.5 -77.5t106.5 -27h10q65 0 120 32.5zM585 890h117l-93 -132h-71zM415 890h117l-92 -132h-72z" />
    <glyph glyph-name="ohungarumlaut" unicode="&#x151;" horiz-adv-x="576" vert-adv-y="1193" 
d="M152 18.5q-51 28.5 -80.5 80.5t-29.5 119q0 25 2 38q10 74 47.5 132t95 90t124.5 32q64 0 115 -28.5t80 -80t29 -118.5q0 -19 -3 -39q-9 -74 -46.5 -131.5t-94.5 -90t-125 -32.5q-63 0 -114 28.5zM381 120q45 49 56 130q2 22 2 32q0 66 -35.5 106.5t-92.5 40.5h-7
q-63 0 -108 -49t-56 -130q-2 -22 -2 -32q0 -66 35.5 -106.5t91.5 -40.5h8q63 0 108 49zM287 700h106l-106 -137h-66zM448 700h106l-105 -137h-66z" />
    <glyph glyph-name="OE" unicode="&#x152;" horiz-adv-x="1181" vert-adv-y="1193" 
d="M215.5 28q-69.5 38 -108.5 108t-39 163q0 24 3 51q12 108 62.5 189.5t129 126t172.5 44.5q83 0 148.5 -36t102.5 -102l27 128h509l-19 -90h-409l-44 -205h350l-19 -90h-350l-48 -225h420l-20 -90h-519l14 63q-88 -73 -206 -73q-87 0 -156.5 38zM503.5 114q55.5 33 92 94
t45.5 142q3 23 3 43q0 69 -26.5 120t-73.5 78.5t-107 27.5h-9q-65 0 -120 -32.5t-91.5 -93.5t-45.5 -143q-3 -22 -3 -43q0 -69 26.5 -120t73 -78.5t106.5 -27.5h9q65 0 120.5 33z" />
    <glyph glyph-name="oe" unicode="&#x153;" horiz-adv-x="947" vert-adv-y="1193" 
d="M152 18.5q-51 28.5 -80.5 80.5t-29.5 119q0 25 2 38q10 74 47.5 132t95 90t124.5 32q62 0 112 -27t79 -75q35 49 86.5 75.5t110.5 26.5q95 0 150.5 -58t55.5 -153q0 -34 -6 -67h-364l-1 -19q0 -67 35 -105t88 -38h6q42 0 75 22t48 60h97q-25 -74 -84.5 -118t-142.5 -44
q-60 0 -108 26.5t-76 76.5q-37 -49 -90.5 -76t-115.5 -27q-63 0 -114 28.5zM381 120q45 49 56 130q2 22 2 32q0 66 -35.5 106.5t-92.5 40.5h-7q-63 0 -108 -49t-56 -130q-2 -22 -2 -32q0 -66 35.5 -106.5t91.5 -40.5h8q63 0 108 49zM782 397q-31 34 -82 34h-7
q-48 0 -86.5 -31t-57.5 -93h262q2 56 -29 90z" />
    <glyph glyph-name="Racute" unicode="&#x154;" horiz-adv-x="685" vert-adv-y="1193" 
d="M185 700h272q95 0 151.5 -48t56.5 -130q0 -69 -35.5 -121t-99.5 -72q66 -20 66 -88q0 -21 -6 -47l-23 -105q-13 -56 -13 -89h-101q-1 23 9 70l29 135q3 14 3 25q0 51 -64 51h-234l-59 -281h-100zM522.5 409q39.5 38 39.5 99q0 50 -32.5 76t-95.5 26h-168l-50 -239h200
q67 0 106.5 38zM419 890h118l-93 -132h-72z" />
    <glyph glyph-name="racute" unicode="&#x155;" horiz-adv-x="377" vert-adv-y="1193" 
d="M128 500h91l-18 -88q26 46 68 69.5t111 23.5h28l-19 -89h-30q-154 0 -195 -188l-48 -228h-95zM318 700h106l-106 -137h-66z" />
    <glyph glyph-name="uni0156" unicode="&#x156;" horiz-adv-x="685" vert-adv-y="1193" 
d="M185 700h272q95 0 151.5 -48t56.5 -130q0 -69 -35.5 -121t-99.5 -72q66 -20 66 -88q0 -21 -6 -47l-23 -105q-13 -56 -13 -89h-101q-1 23 9 70l29 135q3 14 3 25q0 51 -64 51h-234l-59 -281h-100zM522.5 409q39.5 38 39.5 99q0 50 -32.5 76t-95.5 26h-168l-50 -239h200
q67 0 106.5 38zM189 -213h10q25 0 37 9t16 28l1 2h-42l18 92h95l-21 -99q-8 -37 -35.5 -59t-70.5 -22h-18z" />
    <glyph glyph-name="uni0157" unicode="&#x157;" horiz-adv-x="377" vert-adv-y="1193" 
d="M128 500h91l-18 -88q26 46 68 69.5t111 23.5h28l-19 -89h-30q-154 0 -195 -188l-48 -228h-95zM-37 -213h10q25 0 37 9t16 28l1 2h-42l18 92h95l-21 -99q-8 -37 -35.5 -59t-70.5 -22h-18z" />
    <glyph glyph-name="Rcaron" unicode="&#x158;" horiz-adv-x="685" vert-adv-y="1193" 
d="M185 700h272q95 0 151.5 -48t56.5 -130q0 -69 -35.5 -121t-99.5 -72q66 -20 66 -88q0 -21 -6 -47l-23 -105q-13 -56 -13 -89h-101q-1 23 9 70l29 135q3 14 3 25q0 51 -64 51h-234l-59 -281h-100zM522.5 409q39.5 38 39.5 99q0 50 -32.5 76t-95.5 26h-168l-50 -239h200
q67 0 106.5 38zM262 890h73l87 -65l116 65h78l-147 -132h-115z" />
    <glyph glyph-name="rcaron" unicode="&#x159;" horiz-adv-x="377" vert-adv-y="1193" 
d="M128 500h91l-18 -88q26 46 68 69.5t111 23.5h28l-19 -89h-30q-154 0 -195 -188l-48 -228h-95zM148 700h65l80 -75l112 75h74l-143 -137h-103z" />
    <glyph glyph-name="Sacute" unicode="&#x15a;" horiz-adv-x="620" vert-adv-y="1193" 
d="M103.5 46q-73.5 56 -73.5 156q0 15 1 23h98q-4 -71 42 -108t124 -37h10q67 0 109 30.5t42 81.5q0 36 -25 61.5t-90 46.5l-79 25q-74 24 -110.5 66t-36.5 107q0 61 33 109t90.5 75.5t129.5 27.5q76 0 135 -27.5t90.5 -77.5t29.5 -115h-100q-1 62 -43.5 96t-111.5 34h-10
q-61 0 -102 -32t-41 -80q0 -33 20.5 -54.5t60.5 -34.5l105 -35q156 -52 156 -183q0 -62 -31.5 -110t-90 -74.5t-136.5 -26.5q-122 0 -195.5 56zM415 890h118l-93 -132h-72z" />
    <glyph glyph-name="sacute" unicode="&#x15b;" horiz-adv-x="482" vert-adv-y="1193" 
d="M72 33.5q-54 43.5 -57 121.5h97q3 -43 32.5 -65t73.5 -22h9q41 0 66.5 19.5t25.5 51.5q0 26 -16 41.5t-52 24.5l-52 14q-65 17 -95 50.5t-30 85.5q0 42 24 77.5t67 56.5t98 21q84 0 139 -43.5t55 -120.5h-95q-1 40 -30 63t-69 23h-9q-38 0 -62 -20t-24 -51q0 -44 61 -60
l57 -16q58 -15 93 -49t35 -89q0 -72 -54 -114.5t-138 -42.5q-96 0 -150 43.5zM341 700h106l-106 -137h-66z" />
    <glyph glyph-name="Scircumflex" unicode="&#x15c;" horiz-adv-x="620" vert-adv-y="1193" 
d="M103.5 46q-73.5 56 -73.5 156q0 15 1 23h98q-4 -71 42 -108t124 -37h10q67 0 109 30.5t42 81.5q0 36 -25 61.5t-90 46.5l-79 25q-74 24 -110.5 66t-36.5 107q0 61 33 109t90.5 75.5t129.5 27.5q76 0 135 -27.5t90.5 -77.5t29.5 -115h-100q-1 62 -43.5 96t-111.5 34h-10
q-61 0 -102 -32t-41 -80q0 -33 20.5 -54.5t60.5 -34.5l105 -35q156 -52 156 -183q0 -62 -31.5 -110t-90 -74.5t-136.5 -26.5q-122 0 -195.5 56zM368 890h115l92 -132h-70l-87 65l-115 -65h-83z" />
    <glyph glyph-name="scircumflex" unicode="&#x15d;" horiz-adv-x="482" vert-adv-y="1193" 
d="M72 33.5q-54 43.5 -57 121.5h97q3 -43 32.5 -65t73.5 -22h9q41 0 66.5 19.5t25.5 51.5q0 26 -16 41.5t-52 24.5l-52 14q-65 17 -95 50.5t-30 85.5q0 42 24 77.5t67 56.5t98 21q84 0 139 -43.5t55 -120.5h-95q-1 40 -30 63t-69 23h-9q-38 0 -62 -20t-24 -51q0 -44 61 -60
l57 -16q58 -15 93 -49t35 -89q0 -72 -54 -114.5t-138 -42.5q-96 0 -150 43.5zM276 700h103l85 -137h-65l-79 76l-113 -76h-74z" />
    <glyph glyph-name="Scedilla" unicode="&#x15e;" horiz-adv-x="620" vert-adv-y="1193" 
d="M179 -170h72q23 0 37 11t14 29q0 13 -11 21t-28 8h-32l20 93q-102 11 -161.5 65.5t-59.5 143.5q0 16 1 24h98q-4 -71 42 -108t124 -37h10q67 0 109 30.5t42 81.5q0 36 -25 61.5t-90 46.5l-79 25q-74 24 -110.5 66t-36.5 107q0 61 33 109t90.5 75.5t129.5 27.5
q76 0 135 -27.5t90.5 -77.5t29.5 -115h-100q-1 62 -43.5 96t-111.5 34h-10q-61 0 -102 -32t-41 -80q0 -33 20.5 -54.5t60.5 -34.5l105 -35q156 -52 156 -183q0 -61 -30.5 -108.5t-87.5 -74.5t-133 -28l-9 -42q33 -5 51.5 -25t18.5 -50q0 -49 -34.5 -78.5t-86.5 -29.5h-81z
" />
    <glyph glyph-name="scedilla" unicode="&#x15f;" horiz-adv-x="482" vert-adv-y="1193" 
d="M214 -10l-9 -42q33 -5 51.5 -25t18.5 -50q0 -49 -34.5 -78.5t-86.5 -29.5h-81l14 65h72q23 0 37 11t14 29q0 13 -11 21t-28 8h-32l20 97q-66 13 -104 54.5t-40 104.5h97q3 -43 32.5 -65t73.5 -22h9q41 0 66.5 19.5t25.5 51.5q0 26 -16 41.5t-52 24.5l-52 14
q-65 17 -95 50.5t-30 85.5q0 42 24 77.5t67 56.5t98 21q84 0 139 -43.5t55 -120.5h-95q-1 40 -30 63t-69 23h-9q-38 0 -62 -20t-24 -51q0 -44 61 -60l57 -16q58 -15 93 -49t35 -89q0 -72 -54 -114.5t-138 -42.5h-8z" />
    <glyph glyph-name="Scaron" unicode="&#x160;" horiz-adv-x="620" vert-adv-y="1193" 
d="M103.5 46q-73.5 56 -73.5 156q0 15 1 23h98q-4 -71 42 -108t124 -37h10q67 0 109 30.5t42 81.5q0 36 -25 61.5t-90 46.5l-79 25q-74 24 -110.5 66t-36.5 107q0 61 33 109t90.5 75.5t129.5 27.5q76 0 135 -27.5t90.5 -77.5t29.5 -115h-100q-1 62 -43.5 96t-111.5 34h-10
q-61 0 -102 -32t-41 -80q0 -33 20.5 -54.5t60.5 -34.5l105 -35q156 -52 156 -183q0 -62 -31.5 -110t-90 -74.5t-136.5 -26.5q-122 0 -195.5 56zM258 890h73l87 -65l116 65h78l-147 -132h-115z" />
    <glyph glyph-name="scaron" unicode="&#x161;" horiz-adv-x="482" vert-adv-y="1193" 
d="M72 33.5q-54 43.5 -57 121.5h97q3 -43 32.5 -65t73.5 -22h9q41 0 66.5 19.5t25.5 51.5q0 26 -16 41.5t-52 24.5l-52 14q-65 17 -95 50.5t-30 85.5q0 42 24 77.5t67 56.5t98 21q84 0 139 -43.5t55 -120.5h-95q-1 40 -30 63t-69 23h-9q-38 0 -62 -20t-24 -51q0 -44 61 -60
l57 -16q58 -15 93 -49t35 -89q0 -72 -54 -114.5t-138 -42.5q-96 0 -150 43.5zM171 700h65l80 -75l112 75h74l-143 -137h-103z" />
    <glyph glyph-name="uni0162" unicode="&#x162;" horiz-adv-x="622" vert-adv-y="1193" 
d="M338 610h-249l18 90h597l-19 -90h-247l-130 -610h-23l-11 -52q33 -5 51.5 -25t18.5 -50q0 -49 -34.5 -78.5t-86.5 -29.5h-81l14 65h72q23 0 37 11t14 29q0 13 -11 21t-28 8h-32l21 101h-21z" />
    <glyph glyph-name="uni0163" unicode="&#x163;" horiz-adv-x="394" vert-adv-y="1193" 
d="M217 0l-11 -52q33 -5 51.5 -25t18.5 -50q0 -49 -34.5 -78.5t-86.5 -29.5h-81l14 65h72q23 0 37 11t14 29q0 13 -11 21t-28 8h-32l23 109q-65 20 -65 89q0 16 5 39l60 284h-114l17 80h116l35 162h93l-35 -162h124l-17 -80h-125l-61 -285q-2 -10 -2 -15q0 -37 52 -37h90
l-17 -83h-97h-5z" />
    <glyph glyph-name="Tcaron" unicode="&#x164;" horiz-adv-x="622" vert-adv-y="1193" 
d="M338 610h-249l18 90h597l-19 -90h-247l-130 -610h-100zM271 890h73l87 -65l116 65h78l-147 -132h-115z" />
    <glyph glyph-name="tcaron" unicode="&#x165;" horiz-adv-x="394" vert-adv-y="1193" 
d="M129.5 25q-31.5 25 -31.5 72q0 16 5 39l60 284h-114l17 80h116l35 162h93l-35 -162h124l-17 -80h-125l-61 -285q-2 -10 -2 -15q0 -37 52 -37h90l-17 -83h-97q-61 0 -92.5 25zM358 597h11q51 0 60 40l1 5h-42l21 98h93l-22 -101q-11 -50 -40 -71t-77 -21h-15z" />
    <glyph glyph-name="Tbar" unicode="&#x166;" horiz-adv-x="643" vert-adv-y="1193" 
d="M285 314h-184l19 88h184l44 208h-249l18 90h597l-19 -90h-247l-44 -208h184l-19 -88h-184l-67 -314h-100z" />
    <glyph glyph-name="tbar" unicode="&#x167;" horiz-adv-x="406" vert-adv-y="1193" 
d="M139 25q-31 25 -31 72q0 16 5 39l23 107h-114l16 73h113l22 105h-113l16 79h115l35 162h93l-35 -162h124l-16 -79h-125l-22 -105h125l-16 -73h-124l-23 -108q-2 -12 -2 -16q0 -36 50 -36h91l-18 -83h-97q-61 0 -92 25z" />
    <glyph glyph-name="Utilde" unicode="&#x168;" horiz-adv-x="698" vert-adv-y="1193" 
d="M140.5 47.5q-61.5 57.5 -61.5 157.5q0 36 9 78l89 417h100l-90 -424q-8 -38 -8 -67q0 -63 33.5 -96t101.5 -33h10q152 0 188 165l97 455h100l-102 -479q-24 -111 -98.5 -171t-198.5 -60q-108 0 -169.5 57.5zM455 782l-25 18q-14 10 -23 14.5t-20 4.5q-31 0 -41 -54h-73
l3 17q12 55 40 84t71 29q21 0 36.5 -7t33.5 -20l24 -18q28 -19 44 -19q34 0 42 54h75l-5 -23q-9 -52 -36 -79.5t-70 -27.5q-41 0 -76 27z" />
    <glyph glyph-name="utilde" unicode="&#x169;" horiz-adv-x="566" vert-adv-y="1193" 
d="M94.5 32q-41.5 42 -41.5 112q0 27 6 55l63 301h96l-65 -305q-4 -16 -4 -34q0 -40 21 -63.5t58 -23.5h9q56 0 99 47.5t61 133.5l52 245h96l-106 -500h-95l11 54q-59 -64 -147 -64q-72 0 -113.5 42zM392.5 564q-16.5 7 -39.5 21l-28 17q-18 11 -28 15t-21 4
q-17 0 -26.5 -12t-16.5 -42h-71l4 20q22 109 104 109q18 0 35 -6.5t42 -21.5l28 -17q30 -19 50 -19q18 0 27 12.5t15 41.5h70l-4 -21q-10 -50 -36 -79t-68 -29q-20 0 -36.5 7z" />
    <glyph glyph-name="Umacron" unicode="&#x16a;" horiz-adv-x="698" vert-adv-y="1193" 
d="M140.5 47.5q-61.5 57.5 -61.5 157.5q0 36 9 78l89 417h100l-90 -424q-8 -38 -8 -67q0 -63 33.5 -96t101.5 -33h10q152 0 188 165l97 455h100l-102 -479q-24 -111 -98.5 -171t-198.5 -60q-108 0 -169.5 57.5zM315 854h296l-17 -77h-295z" />
    <glyph glyph-name="umacron" unicode="&#x16b;" horiz-adv-x="566" vert-adv-y="1193" 
d="M94.5 32q-41.5 42 -41.5 112q0 27 6 55l63 301h96l-65 -305q-4 -16 -4 -34q0 -40 21 -63.5t58 -23.5h9q56 0 99 47.5t61 133.5l52 245h96l-106 -500h-95l11 54q-59 -64 -147 -64q-72 0 -113.5 42zM213 661h289l-16 -77h-288z" />
    <glyph glyph-name="Ubreve" unicode="&#x16c;" horiz-adv-x="698" vert-adv-y="1193" 
d="M140.5 47.5q-61.5 57.5 -61.5 157.5q0 36 9 78l89 417h100l-90 -424q-8 -38 -8 -67q0 -63 33.5 -96t101.5 -33h10q152 0 188 165l97 455h100l-102 -479q-24 -111 -98.5 -171t-198.5 -60q-108 0 -169.5 57.5zM354.5 781q-37.5 32 -37.5 86q0 7 2 23h77q-1 -4 -1 -12
q0 -28 17.5 -42.5t49.5 -14.5t56 17.5t34 51.5h77q-12 -68 -59 -104.5t-116 -36.5q-62 0 -99.5 32z" />
    <glyph glyph-name="ubreve" unicode="&#x16d;" horiz-adv-x="566" vert-adv-y="1193" 
d="M94.5 32q-41.5 42 -41.5 112q0 27 6 55l63 301h96l-65 -305q-4 -16 -4 -34q0 -40 21 -63.5t58 -23.5h9q56 0 99 47.5t61 133.5l52 245h96l-106 -500h-95l11 54q-59 -64 -147 -64q-72 0 -113.5 42zM253.5 588q-36.5 32 -36.5 87q0 7 2 25h73q-1 -5 -1 -14q0 -31 17.5 -48
t50.5 -17q31 0 54.5 19t35.5 60h73q-18 -70 -63 -107t-106 -37q-63 0 -99.5 32z" />
    <glyph glyph-name="Uring" unicode="&#x16e;" horiz-adv-x="698" vert-adv-y="1193" 
d="M140.5 47.5q-61.5 57.5 -61.5 157.5q0 36 9 78l89 417h100l-90 -424q-8 -38 -8 -67q0 -63 33.5 -96t101.5 -33h10q152 0 188 165l97 455h100l-102 -479q-24 -111 -98.5 -171t-198.5 -60q-108 0 -169.5 57.5zM390.5 774q-27.5 26 -27.5 64t27.5 64.5t64.5 26.5t64.5 -26.5
t27.5 -64.5t-27.5 -64t-64.5 -26t-64.5 26zM479.5 813.5q10.5 10.5 10.5 24.5t-10.5 25t-24.5 11t-24.5 -11t-10.5 -25q0 -13 11 -24t24 -11q14 0 24.5 10.5z" />
    <glyph glyph-name="uring" unicode="&#x16f;" horiz-adv-x="566" vert-adv-y="1193" 
d="M94.5 32q-41.5 42 -41.5 112q0 27 6 55l63 301h96l-65 -305q-4 -16 -4 -34q0 -40 21 -63.5t58 -23.5h9q56 0 99 47.5t61 133.5l52 245h96l-106 -500h-95l11 54q-59 -64 -147 -64q-72 0 -113.5 42zM295 581q-28 27 -28 67t28 67t66 27q39 0 66.5 -27t27.5 -67t-27.5 -67
t-66.5 -27q-38 0 -66 27zM392.5 617q12.5 13 12.5 31t-12.5 31t-30.5 13t-31 -13t-13 -31t13 -31t31 -13t30.5 13z" />
    <glyph glyph-name="Uhungarumlaut" unicode="&#x170;" horiz-adv-x="698" vert-adv-y="1193" 
d="M140.5 47.5q-61.5 57.5 -61.5 157.5q0 36 9 78l89 417h100l-90 -424q-8 -38 -8 -67q0 -63 33.5 -96t101.5 -33h10q152 0 188 165l97 455h100l-102 -479q-24 -111 -98.5 -171t-198.5 -60q-108 0 -169.5 57.5zM539 890h117l-93 -132h-71zM369 890h117l-92 -132h-72z" />
    <glyph glyph-name="uhungarumlaut" unicode="&#x171;" horiz-adv-x="566" vert-adv-y="1193" 
d="M94.5 32q-41.5 42 -41.5 112q0 27 6 55l63 301h96l-65 -305q-4 -16 -4 -34q0 -40 21 -63.5t58 -23.5h9q56 0 99 47.5t61 133.5l52 245h96l-106 -500h-95l11 54q-59 -64 -147 -64q-72 0 -113.5 42zM280 700h106l-106 -137h-66zM441 700h106l-105 -137h-66z" />
    <glyph glyph-name="Uogonek" unicode="&#x172;" horiz-adv-x="698" vert-adv-y="1193" 
d="M226 -128q0 35 23.5 66t57.5 52q-108 1 -168 58t-60 156q0 37 9 79l89 417h100l-90 -424q-8 -38 -8 -67q0 -63 33.5 -96t101.5 -33h10q152 0 188 165l97 455h100l-102 -479q-17 -83 -61 -135t-124 -84q-64 -25 -94 -49.5t-30 -54.5q0 -20 11 -29t36 -9h34l-14 -66h-42
q-97 0 -97 78z" />
    <glyph glyph-name="uogonek" unicode="&#x173;" horiz-adv-x="566" vert-adv-y="1193" 
d="M94.5 32q-41.5 42 -41.5 112q0 27 6 55l63 301h96l-65 -305q-4 -16 -4 -34q0 -40 21 -63.5t58 -23.5h9q56 0 99 47.5t61 133.5l52 245h96l-106 -500h-1q-44 -20 -72 -46.5t-28 -55.5q0 -20 11 -29t36 -9h34l-13 -66h-43q-97 0 -97 78q0 40 29 74t69 54h-20l11 54
q-59 -64 -147 -64q-72 0 -113.5 42z" />
    <glyph glyph-name="Wcircumflex" unicode="&#x174;" horiz-adv-x="940" vert-adv-y="1193" 
d="M116 700h101l10 -603l267 603h131l17 -599l259 599h105l-312 -700h-137l-19 593l-261 -593h-137zM536 890h115l92 -132h-70l-87 65l-115 -65h-83z" />
    <glyph glyph-name="wcircumflex" unicode="&#x175;" horiz-adv-x="776" vert-adv-y="1193" 
d="M69 500h94l27 -404l193 404h103l25 -401l196 401h102l-259 -500h-110l-25 391l-188 -391h-110zM417 700h103l85 -137h-65l-79 76l-113 -76h-74z" />
    <glyph glyph-name="Ycircumflex" unicode="&#x176;" horiz-adv-x="634" vert-adv-y="1193" 
d="M274 288l-175 412h109l133 -315l260 315h122l-349 -413l-62 -287h-100zM382 890h115l92 -132h-70l-87 65l-115 -65h-83z" />
    <glyph glyph-name="ycircumflex" unicode="&#x177;" horiz-adv-x="525" vert-adv-y="1193" 
d="M-54 -97h94q30 0 49.5 13t38.5 44l42 70l-117 470h96l89 -358l218 358h107l-351 -573q-38 -62 -77 -85t-97 -23h-110zM287 700h103l85 -137h-65l-79 76l-113 -76h-74z" />
    <glyph glyph-name="Ydieresis" unicode="&#x178;" horiz-adv-x="634" vert-adv-y="1193" 
d="M274 288l-175 412h109l133 -315l260 315h122l-349 -413l-62 -287h-100zM489 787.5q-14 14.5 -14 35.5q0 24 18.5 42.5t42.5 18.5q21 0 35.5 -15t14.5 -36q0 -23 -19 -41.5t-43 -18.5q-21 0 -35 14.5zM294.5 787.5q-14.5 14.5 -14.5 35.5q0 24 18.5 42.5t42.5 18.5
q21 0 35.5 -15t14.5 -36q0 -23 -18.5 -41.5t-42.5 -18.5q-21 0 -35.5 14.5z" />
    <glyph glyph-name="Zacute" unicode="&#x179;" horiz-adv-x="610" vert-adv-y="1193" 
d="M4 96l514 514h-395l19 90h514l-19 -96l-515 -514h414l-19 -90h-533zM424 890h118l-93 -132h-72z" />
    <glyph glyph-name="zacute" unicode="&#x17a;" horiz-adv-x="489" vert-adv-y="1193" 
d="M6 88l355 330h-279l17 82h394l-18 -87l-357 -331h301l-17 -82h-414zM343 700h106l-106 -137h-66z" />
    <glyph glyph-name="Zdotaccent" unicode="&#x17b;" horiz-adv-x="610" vert-adv-y="1193" 
d="M4 96l514 514h-395l19 90h514l-19 -96l-515 -514h414l-19 -90h-533zM385 787q-15 15 -15 37q0 26 19.5 46.5t45.5 20.5q23 0 38 -15t15 -38q0 -25 -19.5 -45.5t-46.5 -20.5q-22 0 -37 15z" />
    <glyph glyph-name="zdotaccent" unicode="&#x17c;" horiz-adv-x="489" vert-adv-y="1193" 
d="M6 88l355 330h-279l17 82h394l-18 -87l-357 -331h301l-17 -82h-414zM281 602.5q-16 16.5 -16 39.5q0 26 19.5 46t46.5 20q24 0 40 -16t16 -39q0 -27 -20 -47t-46 -20q-24 0 -40 16.5z" />
    <glyph glyph-name="Zcaron" unicode="&#x17d;" horiz-adv-x="610" vert-adv-y="1193" 
d="M4 96l514 514h-395l19 90h514l-19 -96l-515 -514h414l-19 -90h-533zM267 890h73l87 -65l116 65h78l-147 -132h-115z" />
    <glyph glyph-name="zcaron" unicode="&#x17e;" horiz-adv-x="489" vert-adv-y="1193" 
d="M6 88l355 330h-279l17 82h394l-18 -87l-357 -331h301l-17 -82h-414zM173 700h65l80 -75l112 75h74l-143 -137h-103z" />
    <glyph glyph-name="florin" unicode="&#x192;" horiz-adv-x="411" vert-adv-y="1193" 
d="M-83 -114h43q49 0 77.5 25t40.5 74l100 386h-122l17 85h127l16 62q26 96 77 139t132 43h66l-20 -86h-43q-47 0 -74.5 -24t-39.5 -72l-16 -62h129l-18 -85h-133l-101 -388q-26 -99 -78 -141t-140 -42h-58z" />
    <glyph glyph-name="uni01E2" unicode="&#x1e2;" horiz-adv-x="985" vert-adv-y="1193" 
d="M482 700h504l-19 -90h-349l-16 -205h307l-19 -90h-295l-17 -225h354l-19 -90h-436l15 180h-304l-139 -180h-118zM498 270l29 347l-270 -347h241zM603 854h296l-17 -77h-295z" />
    <glyph glyph-name="uni01E3" unicode="&#x1e3;" horiz-adv-x="893" vert-adv-y="1193" 
d="M73 28q-47 38 -47 105q0 50 27 89t77 61t117 22h158l4 18q2 14 2 21q0 42 -32.5 65t-79.5 23h-7q-45 0 -78 -20.5t-41 -56.5h-94q11 70 71.5 112.5t146.5 42.5q58 0 104.5 -19.5t70.5 -59.5q34 38 78 58.5t94 20.5q91 0 147 -54.5t59 -143.5q1 -7 1 -21q0 -27 -5 -57
h-364q-1 -7 -1 -22q0 -68 34.5 -105.5t87.5 -37.5h6q42 0 74.5 22.5t47.5 60.5h99q-25 -74 -84.5 -118t-143.5 -44q-63 0 -111 30.5t-73 86.5q-74 -117 -223 -117q-75 0 -122 38zM286 84q35 16 61 46t34 68l7 33h-138q-61 0 -96.5 -25t-35.5 -67q0 -33 23 -52t65 -19h9
q36 0 71 16zM729 398.5q-31 33.5 -83 33.5h-7q-47 0 -86 -31t-58 -93h261q4 57 -27 90.5zM368 661h289l-16 -77h-288z" />
    <glyph glyph-name="Aringacute" unicode="&#x1fa;" horiz-adv-x="687" vert-adv-y="1193" 
d="M377 700h125l123 -700h-96l-31 177h-335l-107 -177h-104zM482 268l-60 339l-205 -339h265zM401.5 762.5q-23.5 22.5 -23.5 57.5q0 34 23.5 56.5t56.5 22.5t56 -22.5t23 -56.5q0 -35 -23 -57.5t-56 -22.5t-56.5 22.5zM479 798q9 9 9 22t-9 21.5t-21 8.5t-21 -8.5t-9 -21.5
t9 -22t21 -9t21 9zM485 1016h96l-71 -90h-59z" />
    <glyph glyph-name="aringacute" unicode="&#x1fb;" horiz-adv-x="553" vert-adv-y="1193" 
d="M71 28q-45 38 -45 105q0 76 59 122t161 46h158l4 21q2 14 2 21q0 42 -32.5 65t-79.5 23h-7q-45 0 -77.5 -20.5t-40.5 -55.5h-94q11 69 71 112t146 43t144 -42t58 -122q0 -23 -6 -50l-39 -186q-16 -73 -17 -110h-89q0 29 6 59q-61 -69 -163 -69q-74 0 -119 38zM285 85
q35 16 61 45.5t34 67.5l7 31h-138q-60 0 -95.5 -24.5t-35.5 -66.5q0 -32 23 -50.5t64 -18.5h9q36 0 71 16zM281.5 578q-28.5 27 -28.5 67q0 39 28.5 66t66.5 27t66 -27t28 -66q0 -40 -28 -67t-66 -27t-66.5 27zM379.5 613.5q12.5 12.5 12.5 31.5q0 18 -12.5 31t-30.5 13
t-31 -13t-13 -31q0 -19 13 -31.5t31 -12.5t30.5 12.5zM389 899h107l-91 -133h-64z" />
    <glyph glyph-name="AEacute" unicode="&#x1fc;" horiz-adv-x="985" vert-adv-y="1193" 
d="M482 700h504l-19 -90h-349l-16 -205h307l-19 -90h-295l-17 -225h354l-19 -90h-436l15 180h-304l-139 -180h-118zM498 270l29 347l-270 -347h241zM745 890h118l-93 -132h-72z" />
    <glyph glyph-name="aeacute" unicode="&#x1fd;" horiz-adv-x="893" vert-adv-y="1193" 
d="M73 28q-47 38 -47 105q0 50 27 89t77 61t117 22h158l4 18q2 14 2 21q0 42 -32.5 65t-79.5 23h-7q-45 0 -78 -20.5t-41 -56.5h-94q11 70 71.5 112.5t146.5 42.5q58 0 104.5 -19.5t70.5 -59.5q34 38 78 58.5t94 20.5q91 0 147 -54.5t59 -143.5q1 -7 1 -21q0 -27 -5 -57
h-364q-1 -7 -1 -22q0 -68 34.5 -105.5t87.5 -37.5h6q42 0 74.5 22.5t47.5 60.5h99q-25 -74 -84.5 -118t-143.5 -44q-63 0 -111 30.5t-73 86.5q-74 -117 -223 -117q-75 0 -122 38zM286 84q35 16 61 46t34 68l7 33h-138q-61 0 -96.5 -25t-35.5 -67q0 -33 23 -52t65 -19h9
q36 0 71 16zM729 398.5q-31 33.5 -83 33.5h-7q-47 0 -86 -31t-58 -93h261q4 57 -27 90.5zM538 700h106l-106 -137h-66z" />
    <glyph glyph-name="Oslashacute" unicode="&#x1fe;" horiz-adv-x="773" vert-adv-y="1193" 
d="M261 9.5q-54 19.5 -94 55.5l-81 -75l-61 66l86 80q-40 72 -40 163q0 24 3 51q12 108 62.5 189.5t129.5 126t174 44.5q62 0 115.5 -19.5t94.5 -55.5l80 74l61 -65l-85 -78q42 -73 42 -169q0 -23 -3 -47q-12 -108 -63 -189.5t-130.5 -126t-174.5 -44.5q-62 0 -116 19.5z
M506 113.5q55 32.5 91.5 93.5t46.5 143q2 15 2 43q0 59 -17 101l-391 -363q55 -50 138 -50h10q65 0 120 32.5zM171 305q0 -55 17 -98l391 362q-56 50 -139 50h-9q-65 0 -120 -32.5t-91.5 -93.5t-45.5 -143q-3 -24 -3 -45zM481 890h118l-93 -132h-72z" />
    <glyph glyph-name="oslashacute" unicode="&#x1ff;" horiz-adv-x="578" vert-adv-y="1193" 
d="M121 41l-65 -62l-49 57l66 63q-30 54 -30 118q0 18 3 39q10 74 47.5 132t95 90t124.5 32q41 0 78 -12.5t65 -35.5l65 61l54 -52l-70 -66q31 -53 31 -123q0 -25 -2 -38q-9 -74 -46.5 -131.5t-94.5 -90t-125 -32.5q-85 0 -147 51zM383 120q45 49 56 130q2 22 2 32
q0 32 -7 54l-248 -235q33 -30 81 -30h8q63 0 108 49zM140 218q0 -27 6 -50l246 234q-33 27 -79 27h-7q-63 0 -108 -49t-56 -130q-2 -22 -2 -32zM378 700h106l-106 -137h-66z" />
    <glyph glyph-name="uni0218" unicode="&#x218;" horiz-adv-x="620" vert-adv-y="1193" 
d="M103.5 46q-73.5 56 -73.5 156q0 15 1 23h98q-4 -71 42 -108t124 -37h10q67 0 109 30.5t42 81.5q0 36 -25 61.5t-90 46.5l-79 25q-74 24 -110.5 66t-36.5 107q0 61 33 109t90.5 75.5t129.5 27.5q76 0 135 -27.5t90.5 -77.5t29.5 -115h-100q-1 62 -43.5 96t-111.5 34h-10
q-61 0 -102 -32t-41 -80q0 -33 20.5 -54.5t60.5 -34.5l105 -35q156 -52 156 -183q0 -62 -31.5 -110t-90 -74.5t-136.5 -26.5q-122 0 -195.5 56zM175 -213h10q25 0 37 9t16 28l1 2h-42l18 92h95l-21 -99q-8 -37 -35.5 -59t-70.5 -22h-18z" />
    <glyph glyph-name="uni0219" unicode="&#x219;" horiz-adv-x="482" vert-adv-y="1193" 
d="M72 33.5q-54 43.5 -57 121.5h97q3 -43 32.5 -65t73.5 -22h9q41 0 66.5 19.5t25.5 51.5q0 26 -16 41.5t-52 24.5l-52 14q-65 17 -95 50.5t-30 85.5q0 42 24 77.5t67 56.5t98 21q84 0 139 -43.5t55 -120.5h-95q-1 40 -30 63t-69 23h-9q-38 0 -62 -20t-24 -51q0 -44 61 -60
l57 -16q58 -15 93 -49t35 -89q0 -72 -54 -114.5t-138 -42.5q-96 0 -150 43.5zM83 -213h10q25 0 37 9t16 28l1 2h-42l18 92h95l-21 -99q-8 -37 -35.5 -59t-70.5 -22h-18z" />
    <glyph glyph-name="uni021A" unicode="&#x21a;" horiz-adv-x="622" vert-adv-y="1193" 
d="M338 610h-249l18 90h597l-19 -90h-247l-130 -610h-100zM152 -213h10q25 0 37 9t16 28l1 2h-42l18 92h95l-21 -99q-8 -37 -35.5 -59t-70.5 -22h-18z" />
    <glyph glyph-name="uni021B" unicode="&#x21b;" horiz-adv-x="394" vert-adv-y="1193" 
d="M129.5 25q-31.5 25 -31.5 72q0 16 5 39l60 284h-114l17 80h116l35 162h93l-35 -162h124l-17 -80h-125l-61 -285q-2 -10 -2 -15q0 -37 52 -37h90l-17 -83h-97q-61 0 -92.5 25zM84 -213h10q25 0 37 9t16 28l1 2h-42l18 92h95l-21 -99q-8 -37 -35.5 -59t-70.5 -22h-18z" />
    <glyph glyph-name="uni0226" unicode="&#x226;" horiz-adv-x="687" vert-adv-y="1193" 
d="M377 700h125l123 -700h-96l-31 177h-335l-107 -177h-104zM482 268l-60 339l-205 -339h265zM424 787q-15 15 -15 37q0 26 19.5 46.5t45.5 20.5q23 0 38 -15t15 -38q0 -25 -19.5 -45.5t-46.5 -20.5q-22 0 -37 15z" />
    <glyph glyph-name="uni0227" unicode="&#x227;" horiz-adv-x="553" vert-adv-y="1193" 
d="M71 28q-45 38 -45 105q0 76 59 122t161 46h158l4 21q2 14 2 21q0 42 -32.5 65t-79.5 23h-7q-45 0 -77.5 -20.5t-40.5 -55.5h-94q11 69 71 112t146 43t144 -42t58 -122q0 -23 -6 -50l-39 -186q-16 -73 -17 -110h-89q0 29 6 59q-61 -69 -163 -69q-74 0 -119 38zM285 85
q35 16 61 45.5t34 67.5l7 31h-138q-60 0 -95.5 -24.5t-35.5 -66.5q0 -32 23 -50.5t64 -18.5h9q36 0 71 16zM308 602.5q-16 16.5 -16 39.5q0 26 19.5 46t46.5 20q24 0 40 -16t16 -39q0 -27 -20 -47t-46 -20q-24 0 -40 16.5z" />
    <glyph glyph-name="uni0232" unicode="&#x232;" horiz-adv-x="634" vert-adv-y="1193" 
d="M274 288l-175 412h109l133 -315l260 315h122l-349 -413l-62 -287h-100zM287 854h296l-17 -77h-295z" />
    <glyph glyph-name="uni0233" unicode="&#x233;" horiz-adv-x="525" vert-adv-y="1193" 
d="M-54 -97h94q30 0 49.5 13t38.5 44l42 70l-117 470h96l89 -358l218 358h107l-351 -573q-38 -62 -77 -85t-97 -23h-110zM182 661h289l-16 -77h-288z" />
    <glyph glyph-name="uni0237" unicode="&#x237;" horiz-adv-x="245" vert-adv-y="1193" 
d="M-147 -100h94q29 0 44 12.5t21 41.5l116 546h95l-118 -553q-14 -67 -49.5 -98.5t-104.5 -31.5h-116z" />
    <glyph glyph-name="uni02BC" unicode="&#x2bc;" horiz-adv-x="264" vert-adv-y="1193" 
d="M103 505h34q59 0 73 60l3 15h-60l26 120h120l-29 -139q-14 -63 -49.5 -90t-93.5 -27h-38z" />
    <glyph glyph-name="circumflex" unicode="&#x2c6;" horiz-adv-x="376" vert-adv-y="1193" 
d="M232 700h103l85 -137h-65l-79 76l-113 -76h-74z" />
    <glyph glyph-name="caron" unicode="&#x2c7;" horiz-adv-x="376" vert-adv-y="1193" 
d="M120 700h65l80 -75l112 75h74l-143 -137h-103z" />
    <glyph glyph-name="breve" unicode="&#x2d8;" horiz-adv-x="363" vert-adv-y="1193" 
d="M160.5 588q-36.5 32 -36.5 87q0 7 2 25h73q-1 -5 -1 -14q0 -31 17.5 -48t50.5 -17q31 0 54.5 19t35.5 60h73q-18 -70 -63 -107t-106 -37q-63 0 -99.5 32z" />
    <glyph glyph-name="dotaccent" unicode="&#x2d9;" horiz-adv-x="166" vert-adv-y="1193" 
d="M123 602.5q-16 16.5 -16 39.5q0 26 19.5 46t46.5 20q24 0 40 -16t16 -39q0 -27 -20 -47t-46 -20q-24 0 -40 16.5z" />
    <glyph glyph-name="ring" unicode="&#x2da;" horiz-adv-x="253" vert-adv-y="1193" 
d="M145 581q-28 27 -28 67t28 67t66 27q39 0 66.5 -27t27.5 -67t-27.5 -67t-66.5 -27q-38 0 -66 27zM242.5 617q12.5 13 12.5 31t-12.5 31t-30.5 13t-31 -13t-13 -31t13 -31t31 -13t30.5 13z" />
    <glyph glyph-name="ogonek" unicode="&#x2db;" horiz-adv-x="218" vert-adv-y="1193" 
d="M-48 -128q0 47 38.5 85t84.5 53l49 -10q-44 -20 -72 -46.5t-28 -55.5q0 -20 11 -29t36 -9h34l-13 -66h-43q-97 0 -97 78z" />
    <glyph glyph-name="tilde" unicode="&#x2dc;" horiz-adv-x="410" vert-adv-y="1193" 
d="M327.5 564q-16.5 7 -39.5 21l-28 17q-18 11 -28 15t-21 4q-17 0 -26.5 -12t-16.5 -42h-71l4 20q22 109 104 109q18 0 35 -6.5t42 -21.5l28 -17q30 -19 50 -19q18 0 27 12.5t15 41.5h70l-4 -21q-10 -50 -36 -79t-68 -29q-20 0 -36.5 7z" />
    <glyph glyph-name="hungarumlaut" unicode="&#x2dd;" horiz-adv-x="350" vert-adv-y="1193" 
d="M155 700h106l-106 -137h-66zM316 700h106l-105 -137h-66z" />
    <glyph glyph-name="gravecomb" unicode="&#x300;" horiz-adv-x="0" vert-adv-y="1193" 
d="M121 700h104l44 -137h-62z" />
    <glyph glyph-name="acutecomb" unicode="&#x301;" horiz-adv-x="0" vert-adv-y="1193" 
d="M156 700h106l-106 -137h-66z" />
    <glyph glyph-name="uni0302" unicode="&#x302;" horiz-adv-x="0" vert-adv-y="1193" 
d="M232 700h103l85 -137h-65l-79 76l-113 -76h-74z" />
    <glyph glyph-name="tildecomb" unicode="&#x303;" horiz-adv-x="0" vert-adv-y="1193" 
d="M327.5 564q-16.5 7 -39.5 21l-28 17q-18 11 -28 15t-21 4q-17 0 -26.5 -12t-16.5 -42h-71l4 20q22 109 104 109q18 0 35 -6.5t42 -21.5l28 -17q30 -19 50 -19q18 0 27 12.5t15 41.5h70l-4 -21q-10 -50 -36 -79t-68 -29q-20 0 -36.5 7z" />
    <glyph glyph-name="uni0304" unicode="&#x304;" horiz-adv-x="0" vert-adv-y="1193" 
d="M117 661h289l-16 -77h-288z" />
    <glyph glyph-name="uni0306" unicode="&#x306;" horiz-adv-x="0" vert-adv-y="1193" 
d="M160.5 588q-36.5 32 -36.5 87q0 7 2 25h73q-1 -5 -1 -14q0 -31 17.5 -48t50.5 -17q31 0 54.5 19t35.5 60h73q-18 -70 -63 -107t-106 -37q-63 0 -99.5 32z" />
    <glyph glyph-name="uni0307" unicode="&#x307;" horiz-adv-x="0" vert-adv-y="1193" 
d="M123 602.5q-16 16.5 -16 39.5q0 26 19.5 46t46.5 20q24 0 40 -16t16 -39q0 -27 -20 -47t-46 -20q-24 0 -40 16.5z" />
    <glyph glyph-name="uni0308" unicode="&#x308;" horiz-adv-x="0" vert-adv-y="1193" 
d="M311 596.5q-14 14.5 -14 35.5q0 24 18 41.5t42 17.5q21 0 35 -14.5t14 -35.5q0 -23 -18 -41t-42 -18q-21 0 -35 14.5zM119.5 596q-13.5 14 -13.5 35q0 23 18 41.5t42 18.5q21 0 34.5 -14t13.5 -35q0 -24 -18 -42t-42 -18q-21 0 -34.5 14z" />
    <glyph glyph-name="uni030A" unicode="&#x30a;" horiz-adv-x="0" vert-adv-y="1193" 
d="M145 581q-28 27 -28 67t28 67t66 27q39 0 66.5 -27t27.5 -67t-27.5 -67t-66.5 -27q-38 0 -66 27zM242.5 617q12.5 13 12.5 31t-12.5 31t-30.5 13t-31 -13t-13 -31t13 -31t31 -13t30.5 13z" />
    <glyph glyph-name="uni030B" unicode="&#x30b;" horiz-adv-x="0" vert-adv-y="1193" 
d="M155 700h106l-106 -137h-66zM316 700h106l-105 -137h-66z" />
    <glyph glyph-name="uni030C" unicode="&#x30c;" horiz-adv-x="0" vert-adv-y="1193" 
d="M120 700h65l80 -75l112 75h74l-143 -137h-103z" />
    <glyph glyph-name="uni0312" unicode="&#x312;" horiz-adv-x="0" vert-adv-y="1193" 
d="M174.5 764.5q27.5 23.5 77.5 23.5h19l-12 -52h-14q-25 0 -37.5 -9t-17.5 -31l-1 -5h43l-22 -100h-95l21 101q11 49 38.5 72.5z" />
    <glyph glyph-name="dotbelowcomb" unicode="&#x323;" horiz-adv-x="0" vert-adv-y="1193" 
d="M-45 -173q-14 14 -14 35q0 25 18.5 43.5t42.5 18.5q22 0 36 -14.5t14 -35.5q0 -26 -18 -43.5t-43 -17.5q-22 0 -36 14z" />
    <glyph glyph-name="uni0326" unicode="&#x326;" horiz-adv-x="0" vert-adv-y="1193" 
d="M-66 -213h10q25 0 37 9t16 28l1 2h-42l18 92h95l-21 -99q-8 -37 -35.5 -59t-70.5 -22h-18z" />
    <glyph glyph-name="uni0327" unicode="&#x327;" horiz-adv-x="0" vert-adv-y="1193" 
d="M-59 -170h72q23 0 37 11t14 29q0 13 -11 21t-28 8h-32l25 118h56l-15 -69q33 -5 51.5 -25t18.5 -50q0 -49 -34.5 -78.5t-86.5 -29.5h-81z" />
    <glyph glyph-name="uni0328" unicode="&#x328;" horiz-adv-x="0" vert-adv-y="1193" 
d="M-48 -128q0 47 38.5 85t84.5 53l49 -10q-44 -20 -72 -46.5t-28 -55.5q0 -20 11 -29t36 -9h34l-13 -66h-43q-97 0 -97 78z" />
    <glyph glyph-name="uni0335" unicode="&#x335;" horiz-adv-x="0" vert-adv-y="1193" 
d="M67 424h468l-19 -88h-468z" />
    <glyph glyph-name="uni0336" unicode="&#x336;" horiz-adv-x="0" vert-adv-y="1193" 
d="M103 591h689l-17 -83h-690z" />
    <glyph glyph-name="uni0337" unicode="&#x337;" horiz-adv-x="0" vert-adv-y="1193" 
d="M57 377l287 139l-20 -95l-287 -138z" />
    <glyph glyph-name="uni0338" unicode="&#x338;" horiz-adv-x="0" vert-adv-y="1193" 
d="M-10 56l705 653l61 -65l-705 -654z" />
    <glyph glyph-name="Wgrave" unicode="&#x1e80;" horiz-adv-x="940" vert-adv-y="1193" 
d="M116 700h101l10 -603l267 603h131l17 -599l259 599h105l-312 -700h-137l-19 593l-261 -593h-137zM444 890h117l47 -132h-72z" />
    <glyph glyph-name="wgrave" unicode="&#x1e81;" horiz-adv-x="776" vert-adv-y="1193" 
d="M69 500h94l27 -404l193 404h103l25 -401l196 401h102l-259 -500h-110l-25 391l-188 -391h-110zM332 700h104l44 -137h-62z" />
    <glyph glyph-name="Wacute" unicode="&#x1e82;" horiz-adv-x="940" vert-adv-y="1193" 
d="M116 700h101l10 -603l267 603h131l17 -599l259 599h105l-312 -700h-137l-19 593l-261 -593h-137zM583 890h118l-93 -132h-72z" />
    <glyph glyph-name="wacute" unicode="&#x1e83;" horiz-adv-x="776" vert-adv-y="1193" 
d="M69 500h94l27 -404l193 404h103l25 -401l196 401h102l-259 -500h-110l-25 391l-188 -391h-110zM482 700h106l-106 -137h-66z" />
    <glyph glyph-name="Wdieresis" unicode="&#x1e84;" horiz-adv-x="940" vert-adv-y="1193" 
d="M116 700h101l10 -603l267 603h131l17 -599l259 599h105l-312 -700h-137l-19 593l-261 -593h-137zM643 787.5q-14 14.5 -14 35.5q0 24 18.5 42.5t42.5 18.5q21 0 35.5 -15t14.5 -36q0 -23 -19 -41.5t-43 -18.5q-21 0 -35 14.5zM448.5 787.5q-14.5 14.5 -14.5 35.5
q0 24 18.5 42.5t42.5 18.5q21 0 35.5 -15t14.5 -36q0 -23 -18.5 -41.5t-42.5 -18.5q-21 0 -35.5 14.5z" />
    <glyph glyph-name="wdieresis" unicode="&#x1e85;" horiz-adv-x="776" vert-adv-y="1193" 
d="M69 500h94l27 -404l193 404h103l25 -401l196 401h102l-259 -500h-110l-25 391l-188 -391h-110zM517 596.5q-14 14.5 -14 35.5q0 24 18 41.5t42 17.5q21 0 35 -14.5t14 -35.5q0 -23 -18 -41t-42 -18q-21 0 -35 14.5zM325.5 596q-13.5 14 -13.5 35q0 23 18 41.5t42 18.5
q21 0 34.5 -14t13.5 -35q0 -24 -18 -42t-42 -18q-21 0 -34.5 14z" />
    <glyph glyph-name="uni1E9E" unicode="&#x1e9e;" horiz-adv-x="662" vert-adv-y="1193" 
d="M185 700h223q91 0 147 -43t56 -125q0 -62 -34.5 -109.5t-93.5 -65.5q55 -12 89 -53t34 -97q0 -55 -28.5 -102.5t-79 -76t-113.5 -28.5h-147l20 90h115q56 0 94.5 30.5t38.5 94.5q0 43 -30 68.5t-84 25.5h-89l19 90h60q56 0 92.5 32t36.5 85q0 47 -29 70.5t-89 23.5h-127
l-128 -610h-102z" />
    <glyph glyph-name="uni1EA0" unicode="&#x1ea0;" horiz-adv-x="687" vert-adv-y="1193" 
d="M377 700h125l123 -700h-96l-31 177h-335l-107 -177h-104zM482 268l-60 339l-205 -339h265zM223 -173q-14 14 -14 35q0 25 18.5 43.5t42.5 18.5q22 0 36 -14.5t14 -35.5q0 -26 -18 -43.5t-43 -17.5q-22 0 -36 14z" />
    <glyph glyph-name="uni1EA1" unicode="&#x1ea1;" horiz-adv-x="553" vert-adv-y="1193" 
d="M71 28q-45 38 -45 105q0 76 59 122t161 46h158l4 21q2 14 2 21q0 42 -32.5 65t-79.5 23h-7q-45 0 -77.5 -20.5t-40.5 -55.5h-94q11 69 71 112t146 43t144 -42t58 -122q0 -23 -6 -50l-39 -186q-16 -73 -17 -110h-89q0 29 6 59q-61 -69 -163 -69q-74 0 -119 38zM285 85
q35 16 61 45.5t34 67.5l7 31h-138q-60 0 -95.5 -24.5t-35.5 -66.5q0 -32 23 -50.5t64 -18.5h9q36 0 71 16zM143 -173q-14 14 -14 35q0 25 18.5 43.5t42.5 18.5q22 0 36 -14.5t14 -35.5q0 -26 -18 -43.5t-43 -17.5q-22 0 -36 14z" />
    <glyph glyph-name="uni1EB8" unicode="&#x1eb8;" horiz-adv-x="652" vert-adv-y="1193" 
d="M185 700h510l-20 -90h-409l-44 -205h350l-19 -90h-350l-47 -225h419l-19 -90h-520zM226 -173q-14 14 -14 35q0 25 18.5 43.5t42.5 18.5q22 0 36 -14.5t14 -35.5q0 -26 -18 -43.5t-43 -17.5q-22 0 -36 14z" />
    <glyph glyph-name="uni1EB9" unicode="&#x1eb9;" horiz-adv-x="546" vert-adv-y="1193" 
d="M146.5 17.5q-48.5 27.5 -76 78.5t-27.5 120q0 13 2 39q9 77 45 135t90.5 89t118.5 31q95 0 150.5 -58t55.5 -153q0 -34 -6 -67h-364l-1 -19q0 -67 35 -105t88 -38h6q42 0 75 22t48 60h97q-25 -74 -84.5 -118t-142.5 -44q-61 0 -109.5 27.5zM382 397q-31 34 -82 34h-7
q-48 0 -86.5 -31t-57.5 -93h262q2 56 -29 90zM175 -173q-14 14 -14 35q0 25 18.5 43.5t42.5 18.5q22 0 36 -14.5t14 -35.5q0 -26 -18 -43.5t-43 -17.5q-22 0 -36 14z" />
    <glyph glyph-name="uni1ECA" unicode="&#x1eca;" horiz-adv-x="280" vert-adv-y="1193" 
d="M185 700h100l-149 -700h-100zM16 -173q-14 14 -14 35q0 25 18.5 43.5t42.5 18.5q22 0 36 -14.5t14 -35.5q0 -26 -18 -43.5t-43 -17.5q-22 0 -36 14z" />
    <glyph glyph-name="uni1ECB" unicode="&#x1ecb;" horiz-adv-x="245" vert-adv-y="1193" 
d="M128 500h95l-106 -500h-95zM163 602.5q-16 16.5 -16 39.5q0 26 19.5 46t46.5 20q24 0 40 -16t16 -39q0 -27 -20 -47t-46 -20q-24 0 -40 16.5zM-1 -173q-14 14 -14 35q0 25 18.5 43.5t42.5 18.5q22 0 36 -14.5t14 -35.5q0 -26 -18 -43.5t-43 -17.5q-22 0 -36 14z" />
    <glyph glyph-name="uni1ECC" unicode="&#x1ecc;" horiz-adv-x="772" vert-adv-y="1193" 
d="M216.5 28q-69.5 38 -109 108t-39.5 164q0 25 3 50q12 108 62.5 189.5t129.5 126t174 44.5q88 0 158 -38t110 -108.5t40 -164.5q0 -23 -3 -49q-12 -108 -63 -189.5t-130.5 -126t-174.5 -44.5q-88 0 -157.5 38zM503 113.5q55 32.5 91.5 93.5t46.5 143q3 23 3 43
q0 69 -26.5 120t-73.5 78.5t-107 27.5h-9q-65 0 -120 -32.5t-91.5 -93.5t-45.5 -143q-3 -24 -3 -45q0 -69 26 -119.5t72.5 -77.5t106.5 -27h10q65 0 120 32.5zM262 -173q-14 14 -14 35q0 25 18.5 43.5t42.5 18.5q22 0 36 -14.5t14 -35.5q0 -26 -18 -43.5t-43 -17.5
q-22 0 -36 14z" />
    <glyph glyph-name="uni1ECD" unicode="&#x1ecd;" horiz-adv-x="576" vert-adv-y="1193" 
d="M152 18.5q-51 28.5 -80.5 80.5t-29.5 119q0 25 2 38q10 74 47.5 132t95 90t124.5 32q64 0 115 -28.5t80 -80t29 -118.5q0 -19 -3 -39q-9 -74 -46.5 -131.5t-94.5 -90t-125 -32.5q-63 0 -114 28.5zM381 120q45 49 56 130q2 22 2 32q0 66 -35.5 106.5t-92.5 40.5h-7
q-63 0 -108 -49t-56 -130q-2 -22 -2 -32q0 -66 35.5 -106.5t91.5 -40.5h8q63 0 108 49zM166 -173q-14 14 -14 35q0 25 18.5 43.5t42.5 18.5q22 0 36 -14.5t14 -35.5q0 -26 -18 -43.5t-43 -17.5q-22 0 -36 14z" />
    <glyph glyph-name="uni1EE4" unicode="&#x1ee4;" horiz-adv-x="698" vert-adv-y="1193" 
d="M140.5 47.5q-61.5 57.5 -61.5 157.5q0 36 9 78l89 417h100l-90 -424q-8 -38 -8 -67q0 -63 33.5 -96t101.5 -33h10q152 0 188 165l97 455h100l-102 -479q-24 -111 -98.5 -171t-198.5 -60q-108 0 -169.5 57.5zM231 -173q-14 14 -14 35q0 25 18.5 43.5t42.5 18.5
q22 0 36 -14.5t14 -35.5q0 -26 -18 -43.5t-43 -17.5q-22 0 -36 14z" />
    <glyph glyph-name="uni1EE5" unicode="&#x1ee5;" horiz-adv-x="566" vert-adv-y="1193" 
d="M94.5 32q-41.5 42 -41.5 112q0 27 6 55l63 301h96l-65 -305q-4 -16 -4 -34q0 -40 21 -63.5t58 -23.5h9q56 0 99 47.5t61 133.5l52 245h96l-106 -500h-95l11 54q-59 -64 -147 -64q-72 0 -113.5 42zM156 -173q-14 14 -14 35q0 25 18.5 43.5t42.5 18.5q22 0 36 -14.5
t14 -35.5q0 -26 -18 -43.5t-43 -17.5q-22 0 -36 14z" />
    <glyph glyph-name="Ygrave" unicode="&#x1ef2;" horiz-adv-x="634" vert-adv-y="1193" 
d="M274 288l-175 412h109l133 -315l260 315h122l-349 -413l-62 -287h-100zM290 890h117l47 -132h-72z" />
    <glyph glyph-name="ygrave" unicode="&#x1ef3;" horiz-adv-x="525" vert-adv-y="1193" 
d="M-54 -97h94q30 0 49.5 13t38.5 44l42 70l-117 470h96l89 -358l218 358h107l-351 -573q-38 -62 -77 -85t-97 -23h-110zM202 700h104l44 -137h-62z" />
    <glyph glyph-name="uni2002" unicode="&#x2002;" horiz-adv-x="500" vert-adv-y="1193" 
 />
    <glyph glyph-name="uni2003" unicode="&#x2003;" horiz-adv-x="1000" vert-adv-y="1193" 
 />
    <glyph glyph-name="uni2009" unicode="&#x2009;" horiz-adv-x="125" vert-adv-y="1193" 
 />
    <glyph glyph-name="uni200A" unicode="&#x200a;" horiz-adv-x="42" vert-adv-y="1193" 
 />
    <glyph glyph-name="endash" unicode="&#x2013;" horiz-adv-x="562" vert-adv-y="1193" 
d="M75 343h449l-18 -81h-448z" />
    <glyph glyph-name="emdash" unicode="&#x2014;" horiz-adv-x="883" vert-adv-y="1193" 
d="M75 343h770l-17 -81h-770z" />
    <glyph glyph-name="uni2015" unicode="&#x2015;" horiz-adv-x="883" vert-adv-y="1193" 
d="M75 343h770l-17 -81h-770z" />
    <glyph glyph-name="quoteleft" unicode="&#x2018;" horiz-adv-x="265" vert-adv-y="1193" 
d="M302 639h-34q-59 0 -73 -60l-3 -15h60l-26 -120h-120l29 139q14 63 49.5 90t93.5 27h38z" />
    <glyph glyph-name="quoteright" unicode="&#x2019;" horiz-adv-x="264" vert-adv-y="1193" 
d="M103 505h34q59 0 73 60l3 15h-60l26 120h120l-29 -139q-14 -63 -49.5 -90t-93.5 -27h-38z" />
    <glyph glyph-name="quotesinglbase" unicode="&#x201a;" horiz-adv-x="257" vert-adv-y="1193" 
d="M-33 -75h34q59 0 73 60l3 15h-60l26 120h120l-29 -139q-14 -63 -49.5 -90t-93.5 -27h-38z" />
    <glyph glyph-name="quotedblleft" unicode="&#x201c;" horiz-adv-x="470" vert-adv-y="1193" 
d="M302 639h-34q-59 0 -73 -60l-3 -15h59l-25 -120h-120l29 139q25 117 143 117h37zM507 639h-34q-59 0 -73 -60l-3 -15h59l-25 -120h-120l29 139q25 117 143 117h37z" />
    <glyph glyph-name="quotedblright" unicode="&#x201d;" horiz-adv-x="469" vert-adv-y="1193" 
d="M308 505h34q59 0 73 60l3 15h-59l25 120h120l-29 -139q-25 -117 -143 -117h-37zM103 505h34q59 0 73 60l3 15h-59l25 120h120l-29 -139q-25 -117 -143 -117h-37z" />
    <glyph glyph-name="quotedblbase" unicode="&#x201e;" horiz-adv-x="466" vert-adv-y="1193" 
d="M172 -75h34q59 0 73 60l3 15h-59l25 120h120l-29 -139q-25 -117 -143 -117h-37zM-33 -75h34q59 0 73 60l3 15h-59l25 120h120l-29 -139q-25 -117 -143 -117h-37z" />
    <glyph glyph-name="dagger" unicode="&#x2020;" horiz-adv-x="488" vert-adv-y="1193" 
d="M242 463h-170l18 83h169l51 239h95l-51 -239h170l-17 -83h-170l-116 -548h-95z" />
    <glyph glyph-name="daggerdbl" unicode="&#x2021;" horiz-adv-x="516" vert-adv-y="1193" 
d="M191 154h-171l17 83h171l48 226h-171l18 83h170l51 239h95l-51 -239h170l-18 -83h-169l-48 -226h169l-17 -83h-169l-51 -239h-95z" />
    <glyph glyph-name="bullet" unicode="&#x2022;" horiz-adv-x="331" vert-adv-y="1193" 
d="M119 282.5q-28 27.5 -28 67.5t28 67.5t67 27.5q40 0 68 -27.5t28 -67.5t-28 -67.5t-68 -27.5q-39 0 -67 27.5z" />
    <glyph glyph-name="ellipsis" unicode="&#x2026;" horiz-adv-x="753" vert-adv-y="1193" 
d="M32.5 7.5q-17.5 17.5 -17.5 43.5q0 32 22.5 54t53.5 22q27 0 44.5 -18.5t17.5 -44.5q0 -30 -23 -52t-53 -22q-27 0 -44.5 17.5zM287.5 7.5q-17.5 17.5 -17.5 43.5q0 32 22.5 54t53.5 22q27 0 44.5 -18.5t17.5 -44.5q0 -30 -23 -52t-53 -22q-27 0 -44.5 17.5zM542.5 7.5
q-17.5 17.5 -17.5 43.5q0 32 22.5 54t53.5 22q27 0 44.5 -18.5t17.5 -44.5q0 -30 -23 -52t-53 -22q-27 0 -44.5 17.5z" />
    <glyph glyph-name="perthousand" unicode="&#x2030;" horiz-adv-x="1212" vert-adv-y="1193" 
d="M120.5 345q-40.5 45 -40.5 122q0 22 3 44q12 87 61 140.5t125 53.5q71 0 111.5 -44.5t40.5 -120.5q0 -21 -3 -44q-12 -89 -61 -142.5t-126 -53.5q-70 0 -110.5 45zM305.5 403.5q28.5 39.5 36.5 98.5q2 11 2 33q0 46 -19 76t-57 30h-4q-41 0 -68.5 -39t-36.5 -99
q-3 -18 -3 -34q0 -46 18.5 -75.5t56.5 -29.5h4q42 0 70.5 39.5zM725 700h92l-560 -700h-92zM607.5 39q-40.5 44 -40.5 121q0 22 3 46q12 87 61 140.5t125 53.5q89 0 129 -68q52 68 137 68q71 0 111.5 -45t40.5 -122q0 -21 -3 -42q-12 -88 -61.5 -142t-126.5 -54
q-43 0 -75 17.5t-51 50.5q-25 -32 -60 -50t-79 -18q-70 0 -110.5 44zM792.5 98.5q28.5 39.5 36.5 98.5q2 11 2 33q0 46 -19 76t-57 30h-4q-41 0 -68.5 -39t-36.5 -99q-3 -18 -3 -34q0 -46 18.5 -75.5t56.5 -29.5h4q42 0 70.5 39.5zM1057.5 98.5q28.5 39.5 36.5 98.5
q3 18 3 34q0 46 -19.5 75.5t-57.5 29.5h-4q-41 0 -68 -39t-36 -99q-3 -18 -3 -34q0 -46 18.5 -75.5t55.5 -29.5h4q42 0 70.5 39.5z" />
    <glyph glyph-name="guilsinglleft" unicode="&#x2039;" horiz-adv-x="334" vert-adv-y="1193" 
d="M43 285l190 215h119l-201 -226l95 -204h-104z" />
    <glyph glyph-name="guilsinglright" unicode="&#x203a;" horiz-adv-x="334" vert-adv-y="1193" 
d="M197 295l-95 205h105l99 -215l-190 -215h-119z" />
    <glyph glyph-name="fraction" unicode="&#x2044;" horiz-adv-x="192" vert-adv-y="1193" 
d="M353 700h90l-563 -700h-91z" />
    <glyph glyph-name="uni2070" unicode="&#x2070;" horiz-adv-x="401" vert-adv-y="1193" 
d="M147 455q-40 45 -40 123q0 22 3 44q12 85 61 139t125 54q72 0 112 -44.5t40 -122.5q0 -21 -3 -44q-12 -88 -61.5 -141t-126.5 -53q-70 0 -110 45zM331.5 513.5q28.5 39.5 36.5 98.5q3 18 3 34q0 46 -19.5 75.5t-57.5 29.5h-4q-41 0 -68 -39t-36 -99q-3 -18 -3 -34
q0 -46 18.5 -75.5t55.5 -29.5h4q42 0 70.5 39.5z" />
    <glyph glyph-name="uni2074" unicode="&#x2074;" horiz-adv-x="364" vert-adv-y="1193" 
d="M264 502h-188l15 68l222 240h89l-53 -246h56l-13 -62h-56l-18 -87h-72zM278 564l33 158l-145 -158h112z" />
    <glyph glyph-name="uni2075" unicode="&#x2075;" horiz-adv-x="346" vert-adv-y="1193" 
d="M124.5 440.5q-37.5 30.5 -38.5 84.5h77q1 -25 17.5 -38t42.5 -13h4q32 0 53.5 22.5t21.5 56.5q0 25 -17 39.5t-43 14.5h-3q-37 0 -63 -32h-75l84 235h233l-14 -64h-176l-32 -93q28 16 63 16q52 0 85.5 -31t33.5 -81q0 -67 -44.5 -107t-111.5 -40q-60 0 -97.5 30.5z" />
    <glyph glyph-name="uni2076" unicode="&#x2076;" horiz-adv-x="369" vert-adv-y="1193" 
d="M140.5 449.5q-36.5 39.5 -36.5 112.5q0 19 3 40q12 98 64.5 155.5t128.5 57.5q40 0 69.5 -16t44.5 -42t15 -54h-75q-2 21 -18 34.5t-40 13.5h-5q-35 0 -63 -30.5t-42 -82.5q16 19 41 30t54 11q56 0 90.5 -36.5t29.5 -94.5q-6 -60 -48.5 -99t-112.5 -39q-63 0 -99.5 39.5z
M301.5 497q23.5 23 23.5 56q0 27 -17 45t-45 18h-3q-31 0 -55.5 -23t-24.5 -56q0 -28 17.5 -45.5t43.5 -17.5h4q33 0 56.5 23z" />
    <glyph glyph-name="uni2077" unicode="&#x2077;" horiz-adv-x="306" vert-adv-y="1193" 
d="M191.5 630q48.5 69 121.5 116h-193l14 64h278l-15 -65q-77 -50 -127 -119.5t-70 -177.5l-7 -33h-77l6 33q21 113 69.5 182z" />
    <glyph glyph-name="uni2078" unicode="&#x2078;" horiz-adv-x="358" vert-adv-y="1193" 
d="M127 437q-38 27 -38 73q0 39 27.5 69t67.5 40q-26 13 -38.5 37t-9.5 54q6 50 48 77.5t99 27.5q56 0 94 -26t38 -73q0 -39 -24 -66t-62 -38q26 -11 40.5 -32.5t14.5 -49.5q0 -55 -45 -87.5t-114 -32.5q-60 0 -98 27zM284 487q21 13 25 39q3 24 -15 38.5t-46 14.5h-5
q-31 0 -54 -15.5t-23 -42.5q0 -22 17.5 -34.5t44.5 -12.5h5q30 0 51 13zM315.5 662q20.5 17 20.5 44q0 21 -15.5 33t-39.5 12h-5q-28 0 -47.5 -16t-19.5 -43q0 -21 15 -34t39 -13h5q27 0 47.5 17z" />
    <glyph glyph-name="uni2079" unicode="&#x2079;" horiz-adv-x="370" vert-adv-y="1193" 
d="M157.5 426q-29.5 16 -45.5 42t-17 54h75q1 -21 18 -34.5t40 -13.5h6q35 0 62 30.5t42 84.5q-16 -20 -40.5 -31.5t-53.5 -11.5q-53 0 -88 32t-35 86q0 40 19 75t53.5 55.5t79.5 20.5q68 0 107 -40.5t39 -114.5q0 -24 -2 -37q-12 -100 -63 -156.5t-127 -56.5
q-40 0 -69.5 16zM318.5 630.5q23.5 21.5 23.5 56.5q0 27 -18 45.5t-45 18.5h-3q-34 0 -57 -23t-23 -57q0 -28 17.5 -45t46.5 -17h3q32 0 55.5 21.5z" />
    <glyph glyph-name="uni2080" unicode="&#x2080;" horiz-adv-x="402" vert-adv-y="1193" 
d="M34 -75q-40 45 -40 123q0 22 3 44q12 85 61 139t125 54q72 0 112 -44.5t40 -122.5q0 -21 -3 -44q-12 -88 -61.5 -141t-126.5 -53q-70 0 -110 45zM218.5 -16.5q28.5 39.5 36.5 98.5q3 18 3 34q0 46 -19.5 75.5t-57.5 29.5h-4q-41 0 -68 -39t-36 -99q-3 -18 -3 -34
q0 -46 18.5 -75.5t55.5 -29.5h4q42 0 70.5 39.5z" />
    <glyph glyph-name="uni2081" unicode="&#x2081;" horiz-adv-x="232" vert-adv-y="1193" 
d="M79 136h-87l10 51q89 1 126 93h56l-84 -395h-74z" />
    <glyph glyph-name="uni2082" unicode="&#x2082;" horiz-adv-x="345" vert-adv-y="1193" 
d="M-22 -36l161 119q41 31 55.5 48t14.5 42q0 21 -15.5 34t-38.5 13h-5q-23 0 -41.5 -15.5t-22.5 -43.5h-77q8 57 50.5 90.5t101.5 33.5q55 0 91.5 -30t36.5 -77q0 -42 -24.5 -72.5t-72.5 -65.5l-120 -89h183l-14 -66h-281z" />
    <glyph glyph-name="uni2083" unicode="&#x2083;" horiz-adv-x="349" vert-adv-y="1193" 
d="M7.5 -88.5q-38.5 31.5 -35.5 86.5h77q-1 -24 15 -39t42 -15h5q31 0 51 16t20 47q0 23 -14.5 34.5t-39.5 11.5h-32l13 64h36q32 0 51.5 15t19.5 42q0 21 -16 34t-41 13h-5q-24 0 -41.5 -14.5t-21.5 -35.5h-76q7 53 48 83.5t99 30.5q56 0 92.5 -26.5t36.5 -73.5
q0 -39 -21 -65.5t-57 -37.5q21 -11 33.5 -31t12.5 -48q0 -57 -45 -90t-108 -33q-60 0 -98.5 31.5z" />
    <glyph glyph-name="uni2084" unicode="&#x2084;" horiz-adv-x="364" vert-adv-y="1193" 
d="M151 -28h-188l15 68l222 240h89l-53 -246h56l-13 -62h-56l-18 -87h-72zM165 34l33 158l-145 -158h112z" />
    <glyph glyph-name="uni2085" unicode="&#x2085;" horiz-adv-x="345" vert-adv-y="1193" 
d="M11.5 -89.5q-37.5 30.5 -38.5 84.5h77q1 -25 17.5 -38t42.5 -13h4q32 0 53.5 22.5t21.5 56.5q0 25 -17 39.5t-43 14.5h-3q-37 0 -63 -32h-75l84 235h233l-14 -64h-176l-32 -93q28 16 63 16q52 0 85.5 -31t33.5 -81q0 -67 -44.5 -107t-111.5 -40q-60 0 -97.5 30.5z" />
    <glyph glyph-name="uni2086" unicode="&#x2086;" horiz-adv-x="370" vert-adv-y="1193" 
d="M27.5 -80.5q-36.5 39.5 -36.5 112.5q0 19 3 40q12 98 64.5 155.5t128.5 57.5q40 0 69.5 -16t44.5 -42t15 -54h-75q-2 21 -18 34.5t-40 13.5h-5q-35 0 -63 -30.5t-42 -82.5q16 19 41 30t54 11q56 0 90.5 -36.5t29.5 -94.5q-6 -60 -48.5 -99t-112.5 -39q-63 0 -99.5 39.5z
M188.5 -33q23.5 23 23.5 56q0 27 -17 45t-45 18h-3q-31 0 -55.5 -23t-24.5 -56q0 -28 17.5 -45.5t43.5 -17.5h4q33 0 56.5 23z" />
    <glyph glyph-name="uni2087" unicode="&#x2087;" horiz-adv-x="307" vert-adv-y="1193" 
d="M78.5 100q48.5 69 121.5 116h-193l14 64h278l-15 -65q-77 -50 -127 -119.5t-70 -177.5l-7 -33h-77l6 33q21 113 69.5 182z" />
    <glyph glyph-name="uni2088" unicode="&#x2088;" horiz-adv-x="359" vert-adv-y="1193" 
d="M15 -93q-38 27 -38 73q0 39 27.5 69t67.5 40q-26 13 -38.5 37t-9.5 54q6 50 48 77.5t99 27.5q56 0 94 -26t38 -73q0 -39 -24 -66t-62 -38q26 -11 40.5 -32.5t14.5 -49.5q0 -55 -45 -87.5t-114 -32.5q-60 0 -98 27zM172 -43q21 13 25 39q3 24 -15 38.5t-46 14.5h-5
q-31 0 -54 -15.5t-23 -42.5q0 -22 17.5 -34.5t44.5 -12.5h5q30 0 51 13zM203.5 132q20.5 17 20.5 44q0 21 -15.5 33t-39.5 12h-5q-28 0 -47.5 -16t-19.5 -43q0 -21 15 -34t39 -13h5q27 0 47.5 17z" />
    <glyph glyph-name="uni2089" unicode="&#x2089;" horiz-adv-x="370" vert-adv-y="1193" 
d="M44.5 -104q-29.5 16 -45.5 42t-17 54h75q1 -21 18 -34.5t40 -13.5h6q35 0 62 30.5t42 84.5q-16 -20 -40.5 -31.5t-53.5 -11.5q-53 0 -88 32t-35 86q0 40 19 75t53.5 55.5t79.5 20.5q68 0 107 -40.5t39 -114.5q0 -24 -2 -37q-12 -100 -63 -156.5t-127 -56.5
q-40 0 -69.5 16zM205.5 100.5q23.5 21.5 23.5 56.5q0 27 -18 45.5t-45 18.5h-3q-34 0 -57 -23t-23 -57q0 -28 17.5 -45t46.5 -17h3q32 0 55.5 21.5z" />
    <glyph glyph-name="uni20A9" unicode="&#x20a9;" horiz-adv-x="984" vert-adv-y="1193" 
d="M78 378h74l-12 322h102l6 -322h130l145 322h124l11 -322h128l139 322h107l-145 -322h74l-17 -76h-92l-136 -302h-131l-11 302h-141l-134 -302h-132l-12 302h-94zM253 102l90 200h-94zM571 378l-8 214l-96 -214h104zM668 103l86 199h-93z" />
    <glyph glyph-name="Euro" unicode="&#x20ac;" horiz-adv-x="674" vert-adv-y="1193" 
d="M220 40.5q-60 50.5 -81 141.5l-110 -24l19 88l82 18v7q0 41 4 74l-69 -16l17 88l71 16q25 83 73 145.5t111.5 97t133.5 34.5q60 0 106.5 -23.5t72 -66.5t25.5 -99q0 -10 -2 -32h-96q2 16 2 22q0 51 -30.5 82t-81.5 31h-10q-62 0 -115 -46t-84 -122l206 46l-18 -88
l-212 -47q-7 -38 -7 -81l159 35l-18 -88l-133 -29q13 -62 46.5 -95t82.5 -33h10q52 0 91.5 36t58.5 99h98q-24 -100 -88 -160.5t-171 -60.5q-83 0 -143 50.5z" />
    <glyph glyph-name="uni20B4" unicode="&#x20b4;" horiz-adv-x="667" vert-adv-y="1193" 
d="M192 11.5q-49 21.5 -75 60.5t-26 89q0 27 9 49l-51 -8l17 86l561 86l-17 -86l-418 -64q-9 -18 -9 -47q0 -45 36 -73.5t91 -28.5h10q57 0 99 29t56 86h102q-25 -101 -92.5 -150.5t-178.5 -49.5q-65 0 -114 21.5zM73 432l444 68q8 19 8 39q0 39 -31 62.5t-79 23.5h-8
q-64 0 -99.5 -30.5t-46.5 -74.5h-103q18 78 80.5 134t177.5 56q66 0 112 -21t69 -57t23 -79q0 -19 -6 -39l71 11l-17 -84l-613 -94z" />
    <glyph glyph-name="uni20BD" unicode="&#x20bd;" horiz-adv-x="650" vert-adv-y="1193" 
d="M125 158h-92l17 84h93l12 64h-93l19 89h94l64 305h220q94 0 153 -45t59 -132q0 -66 -30 -115t-83.5 -75.5t-121.5 -26.5h-181l-12 -64h225l-18 -84h-226l-33 -158h-100zM532 426.5q38 31.5 38 91.5q0 92 -131 92h-119l-45 -215h152q67 0 105 31.5z" />
    <glyph glyph-name="uni20BF" unicode="&#x20bf;" horiz-adv-x="664" vert-adv-y="1193" 
d="M186 700h108l26 120h82l-26 -120h81h9l26 120h83l-29 -133q53 -18 83.5 -57.5t30.5 -97.5q0 -69 -42.5 -119.5t-110.5 -64.5q47 -17 73.5 -54t26.5 -89q0 -53 -26 -98.5t-72 -73.5t-103 -32l-26 -121h-83l26 120h-90l-26 -120h-81l26 120h-115zM468.5 121.5
q38.5 31.5 38.5 94.5q0 44 -28 69t-81 25h-195l-48 -220h219q56 0 94.5 31.5zM522 432.5q38 32.5 38 85.5q0 92 -121 92h-172l-46 -210h209q54 0 92 32.5z" />
    <glyph glyph-name="uni2105" unicode="&#x2105;" horiz-adv-x="782" vert-adv-y="1193" 
d="M646 700h91l-560 -700h-91zM459 26q-37 36 -37 93q0 48 21 86t57.5 59t81.5 21q58 0 94.5 -35t36.5 -91q0 -74 -44.5 -121.5t-114.5 -47.5q-58 0 -95 36zM618 79.5q22 29.5 22 75.5q0 32 -17 50.5t-45 18.5h-3q-31 0 -52.5 -23t-26.5 -63q-1 -5 -1 -14q0 -33 17.5 -53.5
t45.5 -20.5h3q35 0 57 29.5zM148 449.5q-34 34.5 -34 92.5q0 72 43 120t112 48q55 0 88 -30t34 -77h-73q-2 20 -16 34t-37 14h-1q-35 0 -56.5 -30t-21.5 -74q0 -33 15 -52.5t43 -19.5h1q23 0 40 13.5t23 34.5h74q-12 -48 -49.5 -78t-91.5 -30q-59 0 -93 34.5z" />
    <glyph glyph-name="uni2113" unicode="&#x2113;" horiz-adv-x="429" vert-adv-y="1193" 
d="M116.5 25.5q-32.5 25.5 -32.5 74.5q0 19 4 38l11 53l-83 -43l21 102l84 43l57 266q32 151 158 151q67 0 102.5 -39t35.5 -100q0 -20 -5 -47q-15 -80 -65.5 -140t-149.5 -112l-46 -24l-20 -94q-4 -22 -4 -29q0 -22 13.5 -31t44.5 -9h70l-18 -85h-86q-59 0 -91.5 25.5z
M326 428q36 46 47 100q5 25 5 40q0 29 -12 43.5t-34 14.5q-44 0 -60 -75l-43 -202q61 33 97 79z" />
    <glyph glyph-name="uni2116" unicode="&#x2116;" horiz-adv-x="1078" vert-adv-y="1193" 
d="M193 700h135l205 -586l124 586h100l-149 -700h-133l-207 585l-124 -585h-100zM768 350h272l-13 -61h-273zM833.5 443q-36.5 33 -36.5 92q0 50 21 88.5t56.5 60t77.5 21.5q56 0 93 -32t37 -92q0 -50 -20.5 -89t-55.5 -60.5t-78 -21.5q-58 0 -94.5 33zM984 501q22 30 22 75
q0 31 -15 49.5t-41 18.5q-34 0 -55 -32t-21 -72q0 -31 14.5 -50t41.5 -19q32 0 54 30z" />
    <glyph glyph-name="uni2117" unicode="&#x2117;" horiz-adv-x="873" vert-adv-y="1193" 
d="M244 8q-81 48 -128 131t-47 182q0 115 55 211t152 152t217 56q97 0 178 -47.5t128 -130t47 -181.5q0 -114 -54 -210.5t-151 -153.5t-219 -57q-97 0 -178 48zM607 79q79 49 122.5 129t43.5 169q0 81 -37.5 148t-102.5 106t-146 39q-101 0 -180 -48.5t-122 -128t-43 -169.5
q0 -81 37.5 -148.5t102.5 -106.5t145 -39q101 0 180 49zM380 544h145q56 0 90 -30.5t34 -79.5q0 -15 -3 -30q-22 -102 -151 -102h-85l-29 -135h-82zM545 380.5q17 9.5 23 36.5l2 14q0 21 -15.5 32t-41.5 11h-66l-23 -103h73q31 0 48 9.5z" />
    <glyph glyph-name="trademark" unicode="&#x2122;" horiz-adv-x="979" vert-adv-y="1193" 
d="M561 700h120l34 -270l144 270h127l-80 -380h-85l56 266l-145 -266h-73l-36 271l-57 -271h-85zM254 623h-129l16 77h345l-17 -77h-129l-64 -303h-86z" />
    <glyph glyph-name="uni2126" unicode="&#x2126;" horiz-adv-x="792" vert-adv-y="1193" 
d="M52 90h131q-108 80 -108 233q0 110 50.5 198.5t135 138.5t184.5 50q89 0 156.5 -39t104 -109.5t36.5 -162.5q0 -201 -160 -309h121l-19 -90h-250l19 89q188 100 188 300q0 71 -25.5 123.5t-70 80t-100.5 27.5h-12q-66 0 -125.5 -36.5t-96 -104.5t-36.5 -159
q0 -158 130 -231l-17 -89h-256z" />
    <glyph glyph-name="uni2153" unicode="&#x2153;" horiz-adv-x="746" vert-adv-y="1193" 
d="M168 556h-87l10 51q89 1 126 93h56l-84 -395h-74zM574 700h90l-563 -700h-91zM427.5 26.5q-38.5 31.5 -35.5 86.5h77q-1 -24 15 -39t42 -15h5q31 0 51 16t20 47q0 23 -14.5 34.5t-39.5 11.5h-32l13 64h36q32 0 51.5 15t19.5 42q0 21 -16 34t-41 13h-5q-24 0 -41.5 -14.5
t-21.5 -35.5h-76q7 53 48 83.5t99 30.5q56 0 92.5 -26.5t36.5 -73.5q0 -39 -21 -65.5t-57 -37.5q21 -11 33.5 -31t12.5 -48q0 -57 -45 -90t-108 -33q-60 0 -98.5 31.5z" />
    <glyph glyph-name="uni2154" unicode="&#x2154;" horiz-adv-x="870" vert-adv-y="1193" 
d="M67 384l161 119q41 31 55.5 48t14.5 42q0 21 -15.5 34t-38.5 13h-5q-23 0 -41.5 -15.5t-22.5 -43.5h-77q8 57 50.5 90.5t101.5 33.5q55 0 91.5 -30t36.5 -77q0 -42 -24.5 -72.5t-72.5 -65.5l-120 -89h183l-14 -66h-281zM698 700h90l-563 -700h-91zM551.5 26.5
q-38.5 31.5 -35.5 86.5h77q-1 -24 15 -39t42 -15h5q31 0 51 16t20 47q0 23 -14.5 34.5t-39.5 11.5h-32l13 64h36q32 0 51.5 15t19.5 42q0 21 -16 34t-41 13h-5q-24 0 -41.5 -14.5t-21.5 -35.5h-76q7 53 48 83.5t99 30.5q56 0 92.5 -26.5t36.5 -73.5q0 -39 -21 -65.5
t-57 -37.5q21 -11 33.5 -31t12.5 -48q0 -57 -45 -90t-108 -33q-60 0 -98.5 31.5z" />
    <glyph glyph-name="uni2155" unicode="&#x2155;" horiz-adv-x="752" vert-adv-y="1193" 
d="M168 556h-87l10 51q89 1 126 93h56l-84 -395h-74zM574 700h90l-563 -700h-91zM439.5 26.5q-37.5 30.5 -38.5 84.5h77q1 -25 17.5 -38t42.5 -13h4q32 0 53.5 22.5t21.5 56.5q0 25 -17 39.5t-43 14.5h-3q-37 0 -63 -32h-75l84 235h233l-14 -64h-176l-32 -93q28 16 63 16
q52 0 85.5 -31t33.5 -81q0 -67 -44.5 -107t-111.5 -40q-60 0 -97.5 30.5z" />
    <glyph glyph-name="uni2156" unicode="&#x2156;" horiz-adv-x="876" vert-adv-y="1193" 
d="M67 384l161 119q41 31 55.5 48t14.5 42q0 21 -15.5 34t-38.5 13h-5q-23 0 -41.5 -15.5t-22.5 -43.5h-77q8 57 50.5 90.5t101.5 33.5q55 0 91.5 -30t36.5 -77q0 -42 -24.5 -72.5t-72.5 -65.5l-120 -89h183l-14 -66h-281zM698 700h90l-563 -700h-91zM563.5 26.5
q-37.5 30.5 -38.5 84.5h77q1 -25 17.5 -38t42.5 -13h4q32 0 53.5 22.5t21.5 56.5q0 25 -17 39.5t-43 14.5h-3q-37 0 -63 -32h-75l84 235h233l-14 -64h-176l-32 -93q28 16 63 16q52 0 85.5 -31t33.5 -81q0 -67 -44.5 -107t-111.5 -40q-60 0 -97.5 30.5z" />
    <glyph glyph-name="uni2157" unicode="&#x2157;" horiz-adv-x="857" vert-adv-y="1193" 
d="M96.5 331.5q-38.5 31.5 -35.5 86.5h77q-1 -24 15 -39t42 -15h5q31 0 51 16t20 47q0 23 -14.5 34.5t-39.5 11.5h-32l13 64h36q32 0 51.5 15t19.5 42q0 21 -16 34t-41 13h-5q-24 0 -41.5 -14.5t-21.5 -35.5h-76q7 53 48 83.5t99 30.5q56 0 92.5 -26.5t36.5 -73.5
q0 -39 -21 -65.5t-57 -37.5q21 -11 33.5 -31t12.5 -48q0 -57 -45 -90t-108 -33q-60 0 -98.5 31.5zM679 700h90l-563 -700h-91zM544.5 26.5q-37.5 30.5 -38.5 84.5h77q1 -25 17.5 -38t42.5 -13h4q32 0 53.5 22.5t21.5 56.5q0 25 -17 39.5t-43 14.5h-3q-37 0 -63 -32h-75
l84 235h233l-14 -64h-176l-32 -93q28 16 63 16q52 0 85.5 -31t33.5 -81q0 -67 -44.5 -107t-111.5 -40q-60 0 -97.5 30.5z" />
    <glyph glyph-name="uni2158" unicode="&#x2158;" horiz-adv-x="872" vert-adv-y="1193" 
d="M240 392h-188l15 68l222 240h89l-53 -246h56l-13 -62h-56l-18 -87h-72zM254 454l33 158l-145 -158h112zM694 700h90l-563 -700h-91zM559.5 26.5q-37.5 30.5 -38.5 84.5h77q1 -25 17.5 -38t42.5 -13h4q32 0 53.5 22.5t21.5 56.5q0 25 -17 39.5t-43 14.5h-3q-37 0 -63 -32
h-75l84 235h233l-14 -64h-176l-32 -93q28 16 63 16q52 0 85.5 -31t33.5 -81q0 -67 -44.5 -107t-111.5 -40q-60 0 -97.5 30.5z" />
    <glyph glyph-name="uni2159" unicode="&#x2159;" horiz-adv-x="764" vert-adv-y="1193" 
d="M168 556h-87l10 51q89 1 126 93h56l-84 -395h-74zM574 700h90l-563 -700h-91zM444.5 35.5q-36.5 39.5 -36.5 112.5q0 19 3 40q12 98 64.5 155.5t128.5 57.5q40 0 69.5 -16t44.5 -42t15 -54h-75q-2 21 -18 34.5t-40 13.5h-5q-35 0 -63 -30.5t-42 -82.5q16 19 41 30t54 11
q56 0 90.5 -36.5t29.5 -94.5q-6 -60 -48.5 -99t-112.5 -39q-63 0 -99.5 39.5zM605.5 83q23.5 23 23.5 56q0 27 -17 45t-45 18h-3q-31 0 -55.5 -23t-24.5 -56q0 -28 17.5 -45.5t43.5 -17.5h4q33 0 56.5 23z" />
    <glyph glyph-name="uni215A" unicode="&#x215a;" horiz-adv-x="875" vert-adv-y="1193" 
d="M101.5 330.5q-37.5 30.5 -38.5 84.5h77q1 -25 17.5 -38t42.5 -13h4q32 0 53.5 22.5t21.5 56.5q0 25 -17 39.5t-43 14.5h-3q-37 0 -63 -32h-75l84 235h233l-14 -64h-176l-32 -93q28 16 63 16q52 0 85.5 -31t33.5 -81q0 -67 -44.5 -107t-111.5 -40q-60 0 -97.5 30.5z
M685 700h90l-563 -700h-91zM555.5 35.5q-36.5 39.5 -36.5 112.5q0 19 3 40q12 98 64.5 155.5t128.5 57.5q40 0 69.5 -16t44.5 -42t15 -54h-75q-2 21 -18 34.5t-40 13.5h-5q-35 0 -63 -30.5t-42 -82.5q16 19 41 30t54 11q56 0 90.5 -36.5t29.5 -94.5q-6 -60 -48.5 -99
t-112.5 -39q-63 0 -99.5 39.5zM716.5 83q23.5 23 23.5 56q0 27 -17 45t-45 18h-3q-31 0 -55.5 -23t-24.5 -56q0 -28 17.5 -45.5t43.5 -17.5h4q33 0 56.5 23z" />
    <glyph glyph-name="oneeighth" unicode="&#x215b;" horiz-adv-x="753" vert-adv-y="1193" 
d="M168 556h-87l10 51q89 1 126 93h56l-84 -395h-74zM574 700h90l-563 -700h-91zM432 23q-38 27 -38 73q0 39 27.5 69t67.5 40q-26 13 -38.5 37t-9.5 54q6 50 48 77.5t99 27.5q56 0 94 -26t38 -73q0 -39 -24 -66t-62 -38q26 -11 40.5 -32.5t14.5 -49.5q0 -55 -45 -87.5
t-114 -32.5q-60 0 -98 27zM589 73q21 13 25 39q3 24 -15 38.5t-46 14.5h-5q-31 0 -54 -15.5t-23 -42.5q0 -22 17.5 -34.5t44.5 -12.5h5q30 0 51 13zM620.5 248q20.5 17 20.5 44q0 21 -15.5 33t-39.5 12h-5q-28 0 -47.5 -16t-19.5 -43q0 -21 15 -34t39 -13h5q27 0 47.5 17z
" />
    <glyph glyph-name="threeeighths" unicode="&#x215c;" horiz-adv-x="858" vert-adv-y="1193" 
d="M96.5 331.5q-38.5 31.5 -35.5 86.5h77q-1 -24 15 -39t42 -15h5q31 0 51 16t20 47q0 23 -14.5 34.5t-39.5 11.5h-32l13 64h36q32 0 51.5 15t19.5 42q0 21 -16 34t-41 13h-5q-24 0 -41.5 -14.5t-21.5 -35.5h-76q7 53 48 83.5t99 30.5q56 0 92.5 -26.5t36.5 -73.5
q0 -39 -21 -65.5t-57 -37.5q21 -11 33.5 -31t12.5 -48q0 -57 -45 -90t-108 -33q-60 0 -98.5 31.5zM679 700h90l-563 -700h-91zM537 23q-38 27 -38 73q0 39 27.5 69t67.5 40q-26 13 -38.5 37t-9.5 54q6 50 48 77.5t99 27.5q56 0 94 -26t38 -73q0 -39 -24 -66t-62 -38
q26 -11 40.5 -32.5t14.5 -49.5q0 -55 -45 -87.5t-114 -32.5q-60 0 -98 27zM694 73q21 13 25 39q3 24 -15 38.5t-46 14.5h-5q-31 0 -54 -15.5t-23 -42.5q0 -22 17.5 -34.5t44.5 -12.5h5q30 0 51 13zM725.5 248q20.5 17 20.5 44q0 21 -15.5 33t-39.5 12h-5q-28 0 -47.5 -16
t-19.5 -43q0 -21 15 -34t39 -13h5q27 0 47.5 17z" />
    <glyph glyph-name="fiveeighths" unicode="&#x215d;" horiz-adv-x="864" vert-adv-y="1193" 
d="M101.5 330.5q-37.5 30.5 -38.5 84.5h77q1 -25 17.5 -38t42.5 -13h4q32 0 53.5 22.5t21.5 56.5q0 25 -17 39.5t-43 14.5h-3q-37 0 -63 -32h-75l84 235h233l-14 -64h-176l-32 -93q28 16 63 16q52 0 85.5 -31t33.5 -81q0 -67 -44.5 -107t-111.5 -40q-60 0 -97.5 30.5z
M685 700h90l-563 -700h-91zM543 23q-38 27 -38 73q0 39 27.5 69t67.5 40q-26 13 -38.5 37t-9.5 54q6 50 48 77.5t99 27.5q56 0 94 -26t38 -73q0 -39 -24 -66t-62 -38q26 -11 40.5 -32.5t14.5 -49.5q0 -55 -45 -87.5t-114 -32.5q-60 0 -98 27zM700 73q21 13 25 39
q3 24 -15 38.5t-46 14.5h-5q-31 0 -54 -15.5t-23 -42.5q0 -22 17.5 -34.5t44.5 -12.5h5q30 0 51 13zM731.5 248q20.5 17 20.5 44q0 21 -15.5 33t-39.5 12h-5q-28 0 -47.5 -16t-19.5 -43q0 -21 15 -34t39 -13h5q27 0 47.5 17z" />
    <glyph glyph-name="seveneighths" unicode="&#x215e;" horiz-adv-x="787" vert-adv-y="1193" 
d="M168.5 520q48.5 69 121.5 116h-193l14 64h278l-15 -65q-77 -50 -127 -119.5t-70 -177.5l-7 -33h-77l6 33q21 113 69.5 182zM608 700h90l-563 -700h-91zM466 23q-38 27 -38 73q0 39 27.5 69t67.5 40q-26 13 -38.5 37t-9.5 54q6 50 48 77.5t99 27.5q56 0 94 -26t38 -73
q0 -39 -24 -66t-62 -38q26 -11 40.5 -32.5t14.5 -49.5q0 -55 -45 -87.5t-114 -32.5q-60 0 -98 27zM623 73q21 13 25 39q3 24 -15 38.5t-46 14.5h-5q-31 0 -54 -15.5t-23 -42.5q0 -22 17.5 -34.5t44.5 -12.5h5q30 0 51 13zM654.5 248q20.5 17 20.5 44q0 21 -15.5 33t-39.5 12
h-5q-28 0 -47.5 -16t-19.5 -43q0 -21 15 -34t39 -13h5q27 0 47.5 17z" />
    <glyph glyph-name="uni215F" unicode="&#x215f;" horiz-adv-x="413" vert-adv-y="1193" 
d="M168 556h-87l10 51q89 1 126 93h56l-84 -395h-74zM574 700h90l-563 -700h-91z" />
    <glyph glyph-name="uni2160" unicode="&#x2160;" horiz-adv-x="463" vert-adv-y="1193" 
d="M3 79h144l116 542h-144l16 79h384l-17 -79h-144l-116 -542h144l-16 -79h-384z" />
    <glyph glyph-name="uni2161" unicode="&#x2161;" horiz-adv-x="748" vert-adv-y="1193" 
d="M3 79h144l116 542h-144l16 79h668l-16 -79h-144l-116 -542h144l-17 -79h-668zM432 79l115 542h-189l-116 -542h190z" />
    <glyph glyph-name="uni2162" unicode="&#x2162;" horiz-adv-x="1032" vert-adv-y="1193" 
d="M3 79h144l116 542h-144l16 79h953l-17 -79h-144l-116 -542h144l-16 -79h-953zM432 79l115 542h-189l-116 -542h190zM716 79l116 542h-189l-116 -542h189z" />
    <glyph glyph-name="uni2163" unicode="&#x2163;" horiz-adv-x="1035" vert-adv-y="1193" 
d="M3 79h144l116 542h-144l16 79h546l-17 -79h-102l53 -527l281 527h-107l17 79h304l-17 -79h-95l-295 -542h147l-17 -79h-847zM526 79l-58 542h-110l-116 -542h284z" />
    <glyph glyph-name="uni2164" unicode="&#x2164;" horiz-adv-x="761" vert-adv-y="1193" 
d="M105 79h148l-58 542h-97l17 79h293l-17 -79h-102l53 -527l281 527h-107l17 79h304l-17 -79h-95l-295 -542h147l-17 -79h-473z" />
    <glyph glyph-name="uni2165" unicode="&#x2165;" horiz-adv-x="1031" vert-adv-y="1193" 
d="M104 79h149l-58 542h-97l17 79h293l-17 -79h-102l53 -527l281 527h-107l17 79h552l-17 -79h-144l-115 -542h144l-17 -79h-849zM713 79l115 542h-103l-295 -542h283z" />
    <glyph glyph-name="uni2166" unicode="&#x2166;" horiz-adv-x="1316" vert-adv-y="1193" 
d="M104 79h149l-58 542h-97l17 79h293l-17 -79h-102l53 -527l281 527h-107l17 79h836l-17 -79h-144l-115 -542h144l-17 -79h-1133zM713 79l116 542h-104l-295 -542h283zM997 79l116 542h-189l-116 -542h189z" />
    <glyph glyph-name="uni2167" unicode="&#x2167;" horiz-adv-x="1597" vert-adv-y="1193" 
d="M104 79h149l-58 542h-97l17 79h293l-17 -79h-102l53 -527l281 527h-107l17 79h1118l-18 -79h-144l-115 -542h144l-16 -79h-1415zM710 79l115 542h-100l-295 -542h280zM994 79l115 542h-189l-115 -542h189zM1279 79l115 542h-190l-114 -542h189z" />
    <glyph glyph-name="uni2168" unicode="&#x2168;" horiz-adv-x="1024" vert-adv-y="1193" 
d="M3 79h144l116 542h-144l16 79h938l-17 -79h-100l-241 -271l132 -271h105l-16 -79h-950zM365 79l246 278l-128 264h-125l-116 -542h123zM747 79l-97 199l-176 -199h273zM846 621h-262l93 -191z" />
    <glyph glyph-name="uni2169" unicode="&#x2169;" horiz-adv-x="764" vert-adv-y="1193" 
d="M-1 79h107l246 278l-128 264h-102l18 79h673l-16 -79h-101l-240 -271l132 -271h105l-17 -79h-693zM487 79l-96 199l-176 -199h272zM587 621h-262l92 -191z" />
    <glyph glyph-name="uni216C" unicode="&#x216c;" horiz-adv-x="686" vert-adv-y="1193" 
d="M4 79h144l113 542h-144l19 79h383l-18 -79h-144l-113 -542h275l40 181h95l-55 -260h-612z" />
    <glyph glyph-name="uni216D" unicode="&#x216d;" horiz-adv-x="741" vert-adv-y="1193" 
d="M198.5 27.5q-61.5 37.5 -96 105t-34.5 155.5q0 117 44.5 213.5t126.5 152.5t192 56q73 0 132 -29t91 -84l22 103h94l-48 -221h-87q-18 68 -73 110t-132 42h-10q-71 0 -129.5 -45t-92.5 -121.5t-34 -167.5q0 -104 49.5 -166t141.5 -62h10q64 0 122.5 42.5t87.5 109.5h94
l-46 -221h-95l17 77q-40 -45 -94.5 -66t-113.5 -21q-77 0 -138.5 37.5z" />
    <glyph glyph-name="uni216E" unicode="&#x216e;" horiz-adv-x="783" vert-adv-y="1193" 
d="M4 79h134l115 542h-134l17 79h301q104 0 176 -38.5t108 -105.5t36 -151q0 -121 -50 -213t-136 -142t-190 -50h-394zM528 124.5q66 45.5 99.5 121t33.5 161.5q0 61 -27.5 109.5t-79.5 76.5t-122 28h-84l-115 -542h138q91 0 157 45.5z" />
    <glyph glyph-name="uni216F" unicode="&#x216f;" horiz-adv-x="1020" vert-adv-y="1193" 
d="M4 79h120l116 542h-121l17 79h273l70 -597l318 597h277l-17 -79h-120l-114 -542h120l-16 -79h-284l15 79h71l111 524l-325 -603h-113l-71 607l-112 -528h70l-16 -79h-286z" />
    <glyph glyph-name="arrowleft" unicode="&#x2190;" horiz-adv-x="846" vert-adv-y="1193" 
d="M243 304l201 -200l-64 -64l-262 261q-23 23 -23 49t23 49l262 262l64 -65l-201 -199h566v-93h-566z" />
    <glyph glyph-name="arrowup" unicode="&#x2191;" horiz-adv-x="689" vert-adv-y="1193" 
d="M336 566l-200 -201l-64 64l261 262q23 23 49 23t49 -23l262 -262l-65 -64l-199 201v-566h-93v566z" />
    <glyph glyph-name="arrowright" unicode="&#x2192;" horiz-adv-x="847" vert-adv-y="1193" 
d="M645 396l-201 200l64 64l262 -261q23 -23 23 -49t-23 -49l-262 -262l-64 65l201 199h-566v93h566z" />
    <glyph glyph-name="arrowdown" unicode="&#x2193;" horiz-adv-x="689" vert-adv-y="1193" 
d="M394 134l200 201l64 -64l-261 -262q-23 -23 -49 -23q-12 0 -25.5 6.5t-23.5 16.5l-262 262l65 64l199 -201v566h93v-566z" />
    <glyph glyph-name="uni2196" unicode="&#x2196;" horiz-adv-x="752" vert-adv-y="1193" 
d="M235 545l1 -284h-90l-1 370q0 33 18 51q8 8 22 13t29 5h371l-1 -91l-283 2l400 -401l-65 -65z" />
    <glyph glyph-name="uni2197" unicode="&#x2197;" horiz-adv-x="658" vert-adv-y="1193" 
d="M447 611l-284 -1v90l370 1q33 0 51 -18t18 -51v-371l-91 1l2 283l-401 -400l-65 65z" />
    <glyph glyph-name="uni2198" unicode="&#x2198;" horiz-adv-x="754" vert-adv-y="1193" 
d="M556 155l-1 284h90l1 -370q0 -33 -18 -51q-8 -8 -22 -13t-29 -5h-371l1 91l283 -2l-400 401l65 65z" />
    <glyph glyph-name="uni2199" unicode="&#x2199;" horiz-adv-x="648" vert-adv-y="1193" 
d="M248 89l284 1v-90l-370 -1q-33 0 -51 18q-8 8 -13 22t-5 29v371l91 -1l-2 -283l401 400l65 -65z" />
    <glyph glyph-name="uni21A4" unicode="&#x21a4;" horiz-adv-x="901" vert-adv-y="1193" 
d="M97 351q0 23 25 48l261 261l64 -64l-201 -199h473v203h93v-500h-93v203h-473l201 -199l-64 -64l-261 261q-25 25 -25 50z" />
    <glyph glyph-name="uni21A5" unicode="&#x21a5;" horiz-adv-x="733" vert-adv-y="1193" 
d="M387 715q23 0 48 -25l261 -261l-64 -64l-199 201v-473h203v-93h-500v93h203v473l-199 -201l-64 64l261 261q25 25 50 25z" />
    <glyph glyph-name="uni21A6" unicode="&#x21a6;" horiz-adv-x="902" vert-adv-y="1193" 
d="M846 350q0 -23 -25 -48l-261 -261l-64 64l201 199h-473v-203h-93v500h93v-203h473l-201 199l64 64l261 -261q25 -25 25 -50z" />
    <glyph glyph-name="uni21A7" unicode="&#x21a7;" horiz-adv-x="733" vert-adv-y="1193" 
d="M388 -15q-23 0 -48 25l-261 261l64 64l199 -201v473h-203v93h500v-93h-203v-473l199 201l64 -64l-261 -261q-25 -25 -50 -25z" />
    <glyph glyph-name="uni21B0" unicode="&#x21b0;" horiz-adv-x="908" vert-adv-y="1193" 
d="M717 303h-472l200 -199l-63 -64l-262 261q-24 24 -24 50q0 24 24 48l262 261l63 -64l-201 -199h566v-397h-93v303z" />
    <glyph glyph-name="uni21B1" unicode="&#x21b1;" horiz-adv-x="847" vert-adv-y="1193" 
d="M79 397h566l-201 199l64 64l262 -261q23 -23 23 -48q0 -27 -23 -50l-262 -261l-64 64l201 199h-472v-303h-94v397z" />
    <glyph glyph-name="uni21B2" unicode="&#x21b2;" horiz-adv-x="845" vert-adv-y="1193" 
d="M809 303h-566l201 -199l-64 -64l-262 261q-23 23 -23 48q0 27 23 50l262 261l64 -64l-201 -199h472v303h94v-397z" />
    <glyph glyph-name="uni21B3" unicode="&#x21b3;" horiz-adv-x="908" vert-adv-y="1193" 
d="M233 397h472l-200 199l63 64l262 -261q24 -24 24 -50q0 -24 -24 -48l-262 -261l-63 64l201 199h-566v397h93v-303z" />
    <glyph glyph-name="partialdiff" unicode="&#x2202;" horiz-adv-x="595" vert-adv-y="1193" 
d="M144.5 19q-45.5 29 -68 77.5t-22.5 106.5q0 11 2 33q8 72 42 128.5t88.5 88.5t123.5 32q53 0 94.5 -22.5t56.5 -58.5q1 10 1 29q0 90 -40 140.5t-119 50.5q-26 0 -55.5 -5.5t-50.5 -12.5l19 88q50 16 104 16q114 0 174 -79.5t60 -208.5q0 -97 -28 -196t-95 -167.5
t-176 -68.5q-65 0 -110.5 29zM362.5 109q37.5 32 55 78.5t17.5 90.5q0 57 -32 91t-84 34h-9q-65 0 -105.5 -47t-51.5 -122q-2 -20 -2 -29q0 -55 29 -91.5t83 -36.5h5q57 0 94.5 32z" />
    <glyph glyph-name="uni2206" unicode="&#x2206;" horiz-adv-x="740" vert-adv-y="1193" 
d="M-2 44l408 656h119l129 -656l-10 -44h-656zM549 90l-100 513l-319 -513h419z" />
    <glyph glyph-name="product" unicode="&#x220f;" horiz-adv-x="738" vert-adv-y="1193" 
d="M228 614h-99l18 86h634l-18 -86h-99l-130 -614h-96l130 614h-244l-130 -614h-96z" />
    <glyph glyph-name="summation" unicode="&#x2211;" horiz-adv-x="651" vert-adv-y="1193" 
d="M26 98l292 272l-178 235l21 95h520l-19 -90h-404l187 -247l-293 -273h410l-20 -90h-537z" />
    <glyph glyph-name="minus" unicode="&#x2212;" horiz-adv-x="605" vert-adv-y="1193" 
d="M66 301h494l-18 -87h-494z" />
    <glyph glyph-name="uni2215" unicode="&#x2215;" horiz-adv-x="360" vert-adv-y="1193" 
d="M337 700h101l-374 -700h-102z" />
    <glyph glyph-name="uni2219" unicode="&#x2219;" horiz-adv-x="552" vert-adv-y="1193" 
d="M139 282.5q-28 27.5 -28 67.5t28 67.5t67 27.5q40 0 68 -27.5t28 -67.5t-28 -67.5t-68 -27.5q-39 0 -67 27.5z" />
    <glyph glyph-name="radical" unicode="&#x221a;" horiz-adv-x="725" vert-adv-y="1193" 
d="M106 500h93l44 -392l248 592h286l-18 -85h-208l-264 -615h-121z" />
    <glyph glyph-name="infinity" unicode="&#x221e;" horiz-adv-x="877" vert-adv-y="1193" 
d="M174 194q-42 24 -66 67t-24 99q0 55 24 98.5t66 67.5t94 24q65 0 108 -30.5t87 -91.5q41 61 83 91.5t108 30.5q52 0 94 -24t66 -67.5t24 -98.5q0 -56 -24 -99t-66 -67t-94 -24q-67 0 -108.5 29t-82.5 88q-44 -59 -86.5 -88t-108.5 -29q-52 0 -94 24zM342 279q29 27 62 81
q-33 55 -62 81.5t-68 26.5h-5q-41 0 -67 -29.5t-26 -78.5q0 -51 26 -79.5t67 -28.5h5q39 0 68 27zM719.5 280.5q26.5 28.5 26.5 79.5t-26.5 79.5t-70.5 28.5h-5q-37 0 -65.5 -27t-61.5 -81q35 -57 62.5 -82.5t64.5 -25.5h5q44 0 70.5 28.5z" />
    <glyph glyph-name="integral" unicode="&#x222b;" horiz-adv-x="457" vert-adv-y="1193" 
d="M-18 -14h45q53 0 79.5 23.5t37.5 77.5l93 436q21 97 74.5 137t147.5 40h55l-19 -86h-44q-53 0 -79.5 -23.5t-37.5 -77.5l-93 -436q-21 -97 -75 -137t-147 -40h-54z" />
    <glyph glyph-name="approxequal" unicode="&#x2248;" horiz-adv-x="616" vert-adv-y="1193" 
d="M379 287.5q-31 9.5 -70 25.5q-25 10 -48 17.5t-36 7.5q-24 0 -39 -13.5t-20 -36.5h-88l5 28q10 51 48 84t93 33q28 0 59 -9.5t73 -26.5q30 -12 48 -18t31 -6q47 0 57 46h89l-6 -28q-10 -51 -45.5 -82t-93.5 -31q-26 0 -57 9.5zM338 91q-30 9 -71 26q-33 13 -51.5 19
t-31.5 6q-24 0 -39 -13.5t-20 -36.5h-89l6 28q10 50 48 83.5t92 33.5q28 0 58.5 -9.5t74.5 -27.5q30 -12 48 -18t31 -6q46 0 57 47h89l-6 -28q-10 -52 -45.5 -82.5t-94.5 -30.5q-26 0 -56 9z" />
    <glyph glyph-name="notequal" unicode="&#x2260;" horiz-adv-x="618" vert-adv-y="1193" 
d="M191 122h-157l19 86h183l51 98h-214l19 87h241l56 107h97l-56 -107h156l-19 -87h-183l-51 -98h214l-19 -86h-240l-56 -107h-97z" />
    <glyph glyph-name="lessequal" unicode="&#x2264;" horiz-adv-x="623" vert-adv-y="1193" 
d="M66 268l22 107l524 138l-21 -98l-388 -96l347 -96l-20 -93zM32 101h494l-19 -87h-494z" />
    <glyph glyph-name="greaterequal" unicode="&#x2265;" horiz-adv-x="622" vert-adv-y="1193" 
d="M62 229l388 97l-347 94l20 93l465 -138l-23 -107l-523 -138zM35 101h494l-19 -87h-494z" />
    <glyph glyph-name="angleleft" unicode="&#x2329;" horiz-adv-x="371" vert-adv-y="1193" 
d="M47 350l320 435h107l-329 -448l131 -422h-93z" />
    <glyph glyph-name="angleright" unicode="&#x232a;" horiz-adv-x="371" vert-adv-y="1193" 
d="M377 541l-320 -435h-107l329 448l-131 422h93z" />
    <glyph glyph-name="uni2460" unicode="&#x2460;" horiz-adv-x="912" vert-adv-y="1193" 
d="M281.5 12.5q-89.5 52.5 -142 142.5t-52.5 195q0 106 52.5 195.5t142 142t195.5 52.5t195.5 -52.5t142 -142t52.5 -195.5q0 -105 -52.5 -195t-142 -142.5t-195.5 -52.5t-195.5 52.5zM635.5 75q72.5 43 115.5 116t43 159t-43 159.5t-115.5 116.5t-158.5 43t-159 -43
t-116 -116t-43 -160q0 -86 43 -159t116 -116t159 -43t158.5 43zM447 407h-88v50q86 4 106 94h56v-395h-74v251z" />
    <glyph glyph-name="uni2461" unicode="&#x2461;" horiz-adv-x="912" vert-adv-y="1193" 
d="M281.5 12.5q-89.5 52.5 -142 142.5t-52.5 195q0 106 52.5 195.5t142 142t195.5 52.5t195.5 -52.5t142 -142t52.5 -195.5q0 -105 -52.5 -195t-142 -142.5t-195.5 -52.5t-195.5 52.5zM635.5 75q72.5 43 115.5 116t43 159t-43 159.5t-115.5 116.5t-158.5 43t-159 -43
t-116 -116t-43 -160q0 -86 43 -159t116 -116t159 -43t158.5 43zM337 234l135 114q37 33 51 51t14 41q0 22 -16.5 36t-41.5 14h-4q-24 0 -41.5 -16t-18.5 -43h-77q1 56 41.5 90t99.5 34q58 0 96 -31t38 -83q0 -40 -21 -68.5t-61 -62.5l-107 -89h193v-66h-280v79z" />
    <glyph glyph-name="uni2462" unicode="&#x2462;" horiz-adv-x="912" vert-adv-y="1193" 
d="M281.5 12.5q-89.5 52.5 -142 142.5t-52.5 195q0 106 52.5 195.5t142 142t195.5 52.5t195.5 -52.5t142 -142t52.5 -195.5q0 -105 -52.5 -195t-142 -142.5t-195.5 -52.5t-195.5 52.5zM635.5 75q72.5 43 115.5 116t43 159t-43 159.5t-115.5 116.5t-158.5 43t-159 -43
t-116 -116t-43 -160q0 -86 43 -159t116 -116t159 -43t158.5 43zM373 181.5q-40 31.5 -41 86.5h76q1 -26 19 -40t45 -14h5q28 0 46.5 15t18.5 41q0 25 -17 39t-43 14h-40v64h40q25 0 41 14t16 38t-17 38t-43 14h-5q-25 0 -41.5 -14t-17.5 -36h-77q1 54 40.5 84t99.5 30
q58 0 97.5 -29t39.5 -80q0 -31 -16.5 -55t-44.5 -35q28 -11 46.5 -35t18.5 -58q0 -54 -42 -83.5t-104 -29.5q-60 0 -100 31.5z" />
    <glyph glyph-name="uni2463" unicode="&#x2463;" horiz-adv-x="912" vert-adv-y="1193" 
d="M281.5 12.5q-89.5 52.5 -142 142.5t-52.5 195q0 106 52.5 195.5t142 142t195.5 52.5t195.5 -52.5t142 -142t52.5 -195.5q0 -105 -52.5 -195t-142 -142.5t-195.5 -52.5t-195.5 52.5zM483 242h-187v68l180 240h80v-246h55v-62h-55v-87h-73v87zM483 304v158l-115 -158h115z
M635.5 75q72.5 43 115.5 116t43 159t-43 159.5t-115.5 116.5t-158.5 43t-159 -43t-116 -116t-43 -160q0 -86 43 -159t116 -116t159 -43t158.5 43z" />
    <glyph glyph-name="uni2464" unicode="&#x2464;" horiz-adv-x="912" vert-adv-y="1193" 
d="M281.5 12.5q-89.5 52.5 -142 142.5t-52.5 195q0 106 52.5 195.5t142 142t195.5 52.5t195.5 -52.5t142 -142t52.5 -195.5q0 -105 -52.5 -195t-142 -142.5t-195.5 -52.5t-195.5 52.5zM635.5 75q72.5 43 115.5 116t43 159t-43 159.5t-115.5 116.5t-158.5 43t-159 -43
t-116 -116t-43 -160q0 -86 43 -159t116 -116t159 -43t158.5 43zM369.5 180.5q-39.5 30.5 -43.5 84.5h77q4 -24 22 -37.5t44 -13.5h4q29 0 47.5 19t18.5 50q0 29 -18.5 46.5t-46.5 17.5h-3q-36 0 -60 -32h-76l33 235h233v-64h-176l-14 -104q13 12 33 19.5t43 7.5q55 0 92 -34
t37 -89q0 -62 -41.5 -99t-105.5 -37q-60 0 -99.5 30.5z" />
    <glyph glyph-name="uni2465" unicode="&#x2465;" horiz-adv-x="912" vert-adv-y="1193" 
d="M281.5 12.5q-89.5 52.5 -142 142.5t-52.5 195q0 106 52.5 195.5t142 142t195.5 52.5t195.5 -52.5t142 -142t52.5 -195.5q0 -105 -52.5 -195t-142 -142.5t-195.5 -52.5t-195.5 52.5zM635.5 75q72.5 43 115.5 116t43 159t-43 159.5t-115.5 116.5t-158.5 43t-159 -43
t-116 -116t-43 -160q0 -86 43 -159t116 -116t159 -43t158.5 43zM357.5 201q-41.5 51 -41.5 141q0 98 43.5 155.5t118.5 57.5q60 0 96 -32.5t41 -79.5h-76q-5 21 -21.5 34.5t-39.5 13.5h-6q-37 0 -59.5 -33.5t-25.5 -91.5q13 23 39 38t60 15q56 0 94 -36t38 -94
q0 -59 -40.5 -99t-108.5 -40q-70 0 -111.5 51zM522.5 234q20.5 20 20.5 51q0 30 -20 50.5t-50 20.5h-3q-30 0 -50.5 -20t-20.5 -51t20 -51t49 -20h3q31 0 51.5 20z" />
    <glyph glyph-name="uni2466" unicode="&#x2466;" horiz-adv-x="912" vert-adv-y="1193" 
d="M281.5 12.5q-89.5 52.5 -142 142.5t-52.5 195q0 106 52.5 195.5t142 142t195.5 52.5t195.5 -52.5t142 -142t52.5 -195.5q0 -105 -52.5 -195t-142 -142.5t-195.5 -52.5t-195.5 52.5zM635.5 75q72.5 43 115.5 116t43 159t-43 159.5t-115.5 116.5t-158.5 43t-159 -43
t-116 -116t-43 -160q0 -86 43 -159t116 -116t159 -43t158.5 43zM545 486h-203v64h278v-65q-135 -115 -135 -296v-34h-77v34q0 193 137 297z" />
    <glyph glyph-name="uni2467" unicode="&#x2467;" horiz-adv-x="911" vert-adv-y="1193" 
d="M281 12.5q-90 52.5 -142.5 142t-52.5 195.5q0 105 53 194.5t142.5 142.5t194.5 53q106 0 195.5 -52.5t142 -142.5t52.5 -195q0 -106 -52.5 -195.5t-142 -142t-195.5 -52.5q-105 0 -195 52.5zM635 75q73 43 116 116t43 159q0 87 -43 160t-116 116t-159 43t-159 -43
t-115.5 -116t-42.5 -160q0 -86 42.5 -159t115.5 -116t159 -43t159 43zM371.5 178.5q-41.5 29.5 -41.5 80.5q0 34 20.5 59.5t53.5 36.5q-30 12 -48 36.5t-18 56.5q0 50 40.5 78t98.5 28q59 0 99 -28t40 -78q0 -34 -18.5 -57.5t-51.5 -35.5q34 -11 55.5 -36.5t21.5 -59.5
q0 -51 -41 -80.5t-105 -29.5t-105.5 29.5zM527.5 227q19.5 14 19.5 39q0 24 -20 38.5t-47 14.5h-5q-29 0 -49.5 -14.5t-20.5 -38.5q0 -25 20 -39t49 -14h5q29 0 48.5 14zM522.5 399.5q17.5 15.5 17.5 38.5q0 24 -17.5 38t-42.5 14h-5q-26 0 -43.5 -14t-17.5 -38t18 -39
t43 -15h5q25 0 42.5 15.5z" />
    <glyph glyph-name="uni2468" unicode="&#x2468;" horiz-adv-x="912" vert-adv-y="1193" 
d="M281.5 12.5q-89.5 52.5 -142 142.5t-52.5 195q0 106 52.5 195.5t142 142t195.5 52.5t195.5 -52.5t142 -142t52.5 -195.5q0 -105 -52.5 -195t-142 -142.5t-195.5 -52.5t-195.5 52.5zM635.5 75q72.5 43 115.5 116t43 159t-43 159.5t-115.5 116.5t-158.5 43t-159 -43
t-116 -116t-43 -160q0 -86 43 -159t116 -116t159 -43t158.5 43zM374 183q-35 33 -38 79h75q5 -21 21 -34t40 -13h5q37 0 58.5 33t26.5 92q-13 -24 -40.5 -39t-61.5 -15q-54 0 -91.5 36t-37.5 94q0 59 40 99t107 40q72 0 113.5 -50.5t41.5 -139.5q0 -100 -42.5 -157.5
t-119.5 -57.5q-62 0 -97 33zM529.5 370q20.5 20 20.5 50q0 31 -20 51.5t-49 20.5h-3q-31 0 -51.5 -20t-20.5 -52q0 -30 19.5 -50t50.5 -20h3q30 0 50.5 20z" />
    <glyph glyph-name="uni24EA" unicode="&#x24ea;" horiz-adv-x="912" vert-adv-y="1193" 
d="M281.5 12.5q-89.5 52.5 -142 142.5t-52.5 195q0 106 52.5 195.5t142 142t195.5 52.5t195.5 -52.5t142 -142t52.5 -195.5q0 -105 -52.5 -195t-142 -142.5t-195.5 -52.5t-195.5 52.5zM635.5 75q72.5 43 115.5 116t43 159t-43 159.5t-115.5 116.5t-158.5 43t-159 -43
t-116 -116t-43 -160q0 -86 43 -159t116 -116t159 -43t158.5 43zM355 205q-45 56 -45 147t45 146.5t123 55.5q79 0 124 -55.5t45 -146.5q0 -92 -45 -147.5t-124 -55.5q-78 0 -123 56zM547 254q24 41 24 98t-24 97.5t-67 40.5h-4q-43 0 -66 -40.5t-23 -97.5q0 -58 23 -98.5
t66 -40.5h4q43 0 67 41z" />
    <glyph glyph-name="uni24FF" unicode="&#x24ff;" horiz-adv-x="912" vert-adv-y="1193" 
d="M282.5 13q-89.5 53 -142.5 142.5t-53 194.5q0 106 52.5 195.5t142.5 142t195 52.5q106 0 195.5 -52.5t142 -142t52.5 -195.5q0 -105 -52.5 -195t-142 -142.5t-195.5 -52.5q-105 0 -194.5 53zM602 204.5q45 55.5 45 147.5q0 91 -45 146.5t-124 55.5q-78 0 -123 -55.5
t-45 -146.5t45 -147t123 -56q79 0 124 55.5zM410 253.5q-23 40.5 -23 98.5q0 57 23 97.5t66 40.5h4q43 0 67 -40.5t24 -97.5t-24 -98t-67 -41h-4q-43 0 -66 40.5z" />
    <glyph glyph-name="triagup" unicode="&#x25b2;" horiz-adv-x="888" vert-adv-y="1193" 
d="M395 720l405 -720h-810z" />
    <glyph glyph-name="lozenge" unicode="&#x25ca;" horiz-adv-x="663" vert-adv-y="1193" 
d="M70 350l236 350h98l231 -350l-231 -350h-98zM530 349l-175 264l-176 -263l176 -259z" />
    <glyph glyph-name="uni2776" unicode="&#x2776;" horiz-adv-x="912" vert-adv-y="1193" 
d="M281.5 12.5q-89.5 52.5 -142 142.5t-52.5 195q0 106 52.5 195.5t142 142t195.5 52.5t195.5 -52.5t142 -142t52.5 -195.5q0 -105 -52.5 -195t-142 -142.5t-195.5 -52.5t-195.5 52.5zM521 156v395h-56q-20 -90 -106 -94v-50h88v-251h74z" />
    <glyph glyph-name="uni2777" unicode="&#x2777;" horiz-adv-x="912" vert-adv-y="1193" 
d="M282.5 13q-89.5 53 -142.5 142.5t-53 194.5q0 106 52.5 195.5t142.5 142t195 52.5q106 0 195.5 -52.5t142 -142t52.5 -195.5q0 -105 -52.5 -195t-142 -142.5t-195.5 -52.5q-105 0 -194.5 53zM617 155v66h-193l107 89q40 34 61 62.5t21 68.5q0 52 -38 83t-96 31
q-59 0 -99.5 -34t-41.5 -90h77q1 27 18.5 43t41.5 16h4q25 0 41.5 -14t16.5 -36q0 -23 -14 -41t-51 -51l-135 -114v-79h280z" />
    <glyph glyph-name="uni2778" unicode="&#x2778;" horiz-adv-x="912" vert-adv-y="1193" 
d="M281.5 12.5q-89.5 52.5 -142 142.5t-52.5 195q0 106 52.5 195.5t142 142t195.5 52.5t195.5 -52.5t142 -142t52.5 -195.5q0 -105 -52.5 -195t-142 -142.5t-195.5 -52.5t-195.5 52.5zM577 179.5q42 29.5 42 83.5q0 34 -18.5 58t-46.5 35q28 11 44.5 35t16.5 55
q0 51 -39.5 80t-97.5 29q-60 0 -99.5 -30t-40.5 -84h77q1 22 17.5 36t41.5 14h5q26 0 43 -14t17 -38t-16 -38t-41 -14h-40v-64h40q26 0 43 -14t17 -39q0 -26 -18.5 -41t-46.5 -15h-5q-27 0 -45 14t-19 40h-76q1 -55 41 -86.5t100 -31.5q62 0 104 29.5z" />
    <glyph glyph-name="uni2779" unicode="&#x2779;" horiz-adv-x="912" vert-adv-y="1193" 
d="M282.5 13q-89.5 53 -142.5 142.5t-53 194.5q0 106 52.5 195.5t142.5 142t195 52.5q106 0 195.5 -52.5t142 -142t52.5 -195.5q0 -105 -52.5 -195t-142 -142.5t-195.5 -52.5q-105 0 -194.5 53zM556 155v87h55v62h-55v246h-80l-180 -240v-68h187v-87h73zM483 462v-158h-115z
" />
    <glyph glyph-name="uni277A" unicode="&#x277a;" horiz-adv-x="912" vert-adv-y="1193" 
d="M281.5 12.5q-89.5 52.5 -142 142.5t-52.5 195q0 106 52.5 195.5t142 142t195.5 52.5t195.5 -52.5t142 -142t52.5 -195.5q0 -105 -52.5 -195t-142 -142.5t-195.5 -52.5t-195.5 52.5zM574.5 187q41.5 37 41.5 99q0 55 -37 89t-92 34q-23 0 -43 -7.5t-33 -19.5l14 104h176
v64h-233l-33 -235h76q24 32 60 32h3q28 0 46.5 -17.5t18.5 -46.5q0 -31 -18.5 -50t-47.5 -19h-4q-26 0 -44 13.5t-22 37.5h-77q4 -54 43.5 -84.5t99.5 -30.5q64 0 105.5 37z" />
    <glyph glyph-name="uni277B" unicode="&#x277b;" horiz-adv-x="912" vert-adv-y="1193" 
d="M281.5 12.5q-89.5 52.5 -142 142.5t-52.5 195q0 106 52.5 195.5t142 142t195.5 52.5t195.5 -52.5t142 -142t52.5 -195.5q0 -105 -52.5 -195t-142 -142.5t-195.5 -52.5t-195.5 52.5zM577.5 190q40.5 40 40.5 99q0 58 -38 94t-94 36q-34 0 -60 -15t-39 -38q3 58 25.5 91.5
t59.5 33.5h6q23 0 39.5 -13.5t21.5 -34.5h76q-5 47 -41 79.5t-96 32.5q-75 0 -118.5 -57.5t-43.5 -155.5q0 -90 41.5 -141t111.5 -51q68 0 108.5 40zM419 234q-20 20 -20 51t20.5 51t50.5 20h3q30 0 50 -20.5t20 -50.5q0 -31 -20.5 -51t-51.5 -20h-3q-29 0 -49 20z" />
    <glyph glyph-name="uni277C" unicode="&#x277c;" horiz-adv-x="912" vert-adv-y="1193" 
d="M282.5 13q-89.5 53 -142.5 142.5t-53 194.5q0 106 52.5 195.5t142.5 142t195 52.5q106 0 195.5 -52.5t142 -142t52.5 -195.5q0 -105 -52.5 -195t-142 -142.5t-195.5 -52.5q-105 0 -194.5 53zM485 155v34q0 181 135 296v65h-278v-64h203q-137 -104 -137 -297v-34h77z" />
    <glyph glyph-name="uni277D" unicode="&#x277d;" horiz-adv-x="911" vert-adv-y="1193" 
d="M281 12.5q-90 52.5 -142.5 142t-52.5 195.5q0 105 53 194.5t142.5 142.5t194.5 53q106 0 195.5 -52.5t142 -142.5t52.5 -195q0 -106 -52.5 -195.5t-142 -142t-195.5 -52.5q-105 0 -195 52.5zM582 178.5q41 29.5 41 80.5q0 34 -21.5 59.5t-55.5 36.5q33 12 51.5 35.5
t18.5 57.5q0 50 -40 78t-99 28q-58 0 -98.5 -28t-40.5 -78q0 -32 18 -56.5t48 -36.5q-33 -11 -53.5 -36.5t-20.5 -59.5q0 -51 41.5 -80.5t105.5 -29.5t105 29.5zM425 227q-20 14 -20 39q0 24 20.5 38.5t49.5 14.5h5q27 0 47 -14.5t20 -38.5q0 -25 -19.5 -39t-48.5 -14h-5
q-29 0 -49 14zM432 399q-18 15 -18 39t17.5 38t43.5 14h5q25 0 42.5 -14t17.5 -38q0 -23 -17.5 -38.5t-42.5 -15.5h-5q-25 0 -43 15z" />
    <glyph glyph-name="uni277E" unicode="&#x277e;" horiz-adv-x="912" vert-adv-y="1193" 
d="M281.5 12.5q-89.5 52.5 -142 142.5t-52.5 195q0 106 52.5 195.5t142 142t195.5 52.5t195.5 -52.5t142 -142t52.5 -195.5q0 -105 -52.5 -195t-142 -142.5t-195.5 -52.5t-195.5 52.5zM590.5 207.5q42.5 57.5 42.5 157.5q0 89 -41.5 139.5t-113.5 50.5q-67 0 -107 -40
t-40 -99q0 -58 37.5 -94t91.5 -36q34 0 61.5 15t40.5 39q-5 -59 -26.5 -92t-58.5 -33h-5q-24 0 -40 13t-21 34h-75q3 -46 38 -79t97 -33q77 0 119.5 57.5zM425.5 370q-19.5 20 -19.5 50q0 32 20.5 52t51.5 20h3q29 0 49 -20.5t20 -51.5q0 -30 -20.5 -50t-50.5 -20h-3
q-31 0 -50.5 20z" />
    <glyph glyph-name="uni300A" unicode="&#x300a;" horiz-adv-x="565" vert-adv-y="1193" 
d="M250 350l320 435h106l-327 -444l131 -426h-94zM47 350l320 435h105l-326 -444l130 -426h-93z" />
    <glyph glyph-name="uni300B" unicode="&#x300b;" horiz-adv-x="579" vert-adv-y="1193" 
d="M382 541l-320 -435h-106l327 444l-131 426h94zM585 541l-320 -435h-105l326 444l-130 426h93z" />
    <glyph glyph-name="uni300C" unicode="&#x300c;" horiz-adv-x="312" vert-adv-y="1193" 
d="M194 845h226l-18 -82h-134l-80 -375h-91z" />
    <glyph glyph-name="uni300D" unicode="&#x300d;" horiz-adv-x="314" vert-adv-y="1193" 
d="M158 -145h-226l18 82h134l80 375h91z" />
    <glyph glyph-name="uni300E" unicode="&#x300e;" horiz-adv-x="450" vert-adv-y="1193" 
d="M196 845h349l-39 -182h-137l-74 -347h-212zM235 380l73 347h137l12 55h-200l-85 -402h63z" />
    <glyph glyph-name="uni300F" unicode="&#x300f;" horiz-adv-x="463" vert-adv-y="1193" 
d="M301 -145h-349l39 182h137l74 347h212zM262 320l-73 -347h-137l-12 -55h200l85 402h-63z" />
    <glyph glyph-name="uni3010" unicode="&#x3010;" horiz-adv-x="377" vert-adv-y="1193" 
d="M217 845h290q-156 -136 -235.5 -296.5t-79.5 -325.5q0 -98 25.5 -196.5t76.5 -171.5h-288z" />
    <glyph glyph-name="uni3011" unicode="&#x3011;" horiz-adv-x="376" vert-adv-y="1193" 
d="M202 -144h-290q156 136 235.5 296.5t79.5 325.5q0 98 -25.5 196.5t-76.5 171.5h288z" />
    <glyph glyph-name="uni3014" unicode="&#x3014;" horiz-adv-x="323" vert-adv-y="1193" 
d="M17 17l141 666l179 162h121l-209 -191l-133 -626l117 -173h-107z" />
    <glyph glyph-name="uni3015" unicode="&#x3015;" horiz-adv-x="324" vert-adv-y="1193" 
d="M349 684l-141 -666l-179 -162h-121l209 191l133 626l-117 173h107z" />
    <glyph glyph-name="uniE000" unicode="&#xe000;" horiz-adv-x="574" vert-adv-y="1193" 
d="M107 550h400v-400h-400v400zM432 225v250h-250v-250h250z" />
    <glyph glyph-name="uniE001" unicode="&#xe001;" horiz-adv-x="745" vert-adv-y="1193" 
d="M118 625h550v-550h-550v550zM593 150v400h-400v-400h400z" />
    <glyph glyph-name="uniE002" unicode="&#xe002;" horiz-adv-x="909" vert-adv-y="1193" 
d="M125 700h700v-700h-700v700zM750 75v550h-550v-550h550z" />
    <glyph glyph-name="uniE003" unicode="&#xe003;" horiz-adv-x="574" vert-adv-y="1193" 
d="M107 550h400v-400h-400v400zM432 225v250h-250v-250h250zM257 400h100v-100h-100v100z" />
    <glyph glyph-name="uniE004" unicode="&#xe004;" horiz-adv-x="745" vert-adv-y="1193" 
d="M118 625h550v-550h-550v550zM593 150v400h-400v-400h400zM268 475h250v-250h-250v250zM443 300v100h-100v-100h100z" />
    <glyph glyph-name="uniE005" unicode="&#xe005;" horiz-adv-x="909" vert-adv-y="1193" 
d="M125 700h700v-700h-700v700zM750 75v550h-550v-550h550zM275 550h400v-400h-400v400zM600 225v250h-250v-250h250zM425 400h100v-100h-100v100z" />
    <glyph glyph-name="uniE006" unicode="&#xe006;" horiz-adv-x="574" vert-adv-y="1193" 
d="M107 550h400v-400h-400v400z" />
    <glyph glyph-name="uniE007" unicode="&#xe007;" horiz-adv-x="745" vert-adv-y="1193" 
d="M118 625h550v-550h-550v550z" />
    <glyph glyph-name="uniE008" unicode="&#xe008;" horiz-adv-x="909" vert-adv-y="1193" 
d="M125 700h700v-700h-700v700z" />
    <glyph glyph-name="uniE00A" unicode="&#xe00a;" horiz-adv-x="372" vert-adv-y="1193" 
d="M80.5 -113.5q-33.5 31.5 -33.5 81.5q0 32 15.5 60t43.5 46q-63 23 -63 86q0 17 5 42l72 341q10 47 35 71t75 28q-28 34 -28 71q0 39 20.5 69t54 46.5t71.5 16.5h117l-17 -82h-85q-29 0 -47 -15.5t-18 -43.5q0 -21 13.5 -33.5t35.5 -12.5h25l-17 -82h-67q-36 0 -53 -13
t-24 -48l-67 -315l-2 -20q0 -25 14.5 -40.5t40.5 -15.5h65l-18 -82h-35q-29 0 -47 -15.5t-18 -42.5q0 -21 13.5 -34t38.5 -13h80l-18 -82h-91q-53 0 -86.5 31.5z" />
    <glyph glyph-name="uniE00B" unicode="&#xe00b;" horiz-adv-x="372" vert-adv-y="1193" 
d="M333.5 813.5q33.5 -31.5 33.5 -81.5q0 -32 -15.5 -60t-43.5 -46q63 -23 63 -86q0 -17 -5 -42l-72 -341q-10 -47 -35 -71t-75 -28q28 -34 28 -71q0 -39 -20.5 -69t-54 -46.5t-71.5 -16.5h-117l17 82h85q29 0 47 15.5t18 43.5q0 21 -13.5 33.5t-35.5 12.5h-25l17 82h67
q36 0 53 13t24 48l67 315l2 20q0 25 -14.5 40.5t-40.5 15.5h-65l18 82h35q29 0 47 15.5t18 42.5q0 21 -13.5 34t-38.5 13h-80l18 82h91q53 0 86.5 -31.5z" />
    <glyph glyph-name="uniE010" unicode="&#xe010;" horiz-adv-x="593" vert-adv-y="1193" 
d="M198 142.5q-55 32.5 -87.5 87.5t-32.5 120t32.5 120t87.5 87.5t120 32.5t120 -32.5t87.5 -87.5t32.5 -120t-32.5 -120t-87.5 -87.5t-120 -32.5t-120 32.5zM401 207q38 22 60 60t22 83t-22 83t-60 60t-83 22t-83 -22t-60 -60t-22 -83t22 -83t60 -60t83 -22t83 22z" />
    <glyph glyph-name="uniE011" unicode="&#xe011;" horiz-adv-x="738" vert-adv-y="1193" 
d="M232.5 77.5q-72.5 42.5 -115 115t-42.5 157.5t42.5 157.5t115 115t157.5 42.5t157.5 -42.5t115 -115t42.5 -157.5t-42.5 -157.5t-115 -115t-157.5 -42.5t-157.5 42.5zM510 142.5q55 32.5 87.5 87.5t32.5 120t-32.5 120t-87.5 87.5t-120 32.5t-120 -32.5t-87.5 -87.5
t-32.5 -120t32.5 -120t87.5 -87.5t120 -32.5t120 32.5z" />
    <glyph glyph-name="uniE012" unicode="&#xe012;" horiz-adv-x="884" vert-adv-y="1193" 
d="M268.5 13q-89.5 53 -142.5 142.5t-53 194.5q0 106 52.5 195.5t142.5 142t195 52.5q106 0 195.5 -52.5t142 -142t52.5 -195.5q0 -105 -52.5 -195t-142 -142.5t-195.5 -52.5q-105 0 -194.5 53zM620.5 77.5q72.5 42.5 115 115t42.5 157.5t-42.5 157.5t-115 115t-157.5 42.5
t-157.5 -42.5t-115 -115t-42.5 -157.5t42.5 -157.5t115 -115t157.5 -42.5t157.5 42.5z" />
    <glyph glyph-name="uniE013" unicode="&#xe013;" horiz-adv-x="593" vert-adv-y="1193" 
d="M198 142.5q-55 32.5 -87.5 87.5t-32.5 120t32.5 120t87.5 87.5t120 32.5t120 -32.5t87.5 -87.5t32.5 -120t-32.5 -120t-87.5 -87.5t-120 -32.5t-120 32.5zM401 207q38 22 60 60t22 83t-22 83t-60 60t-83 22t-83 -22t-60 -60t-22 -83t22 -83t60 -60t83 -22t83 22z
M254.5 286.5q-26.5 26.5 -26.5 63.5t26.5 63.5t63.5 26.5q38 0 64 -26t26 -64q0 -37 -26.5 -63.5t-63.5 -26.5t-63.5 26.5z" />
    <glyph glyph-name="uniE014" unicode="&#xe014;" horiz-adv-x="738" vert-adv-y="1193" 
d="M232.5 77.5q-72.5 42.5 -115 115t-42.5 157.5t42.5 157.5t115 115t157.5 42.5t157.5 -42.5t115 -115t42.5 -157.5t-42.5 -157.5t-115 -115t-157.5 -42.5t-157.5 42.5zM510 142.5q55 32.5 87.5 87.5t32.5 120t-32.5 120t-87.5 87.5t-120 32.5t-120 -32.5t-87.5 -87.5
t-32.5 -120t32.5 -120t87.5 -87.5t120 -32.5t120 32.5zM307 207q-38 22 -60 60t-22 83t22 83t60 60t83 22t83 -22t60 -60t22 -83t-22 -83t-60 -60t-83 -22t-83 22zM453.5 286.5q26.5 26.5 26.5 63.5q0 38 -26 64t-64 26q-37 0 -63.5 -26.5t-26.5 -63.5t26.5 -63.5
t63.5 -26.5t63.5 26.5z" />
    <glyph glyph-name="uniE015" unicode="&#xe015;" horiz-adv-x="884" vert-adv-y="1193" 
d="M268.5 13q-89.5 53 -142.5 142.5t-53 194.5q0 106 52.5 195.5t142.5 142t195 52.5q106 0 195.5 -52.5t142 -142t52.5 -195.5q0 -105 -52.5 -195t-142 -142.5t-195.5 -52.5q-105 0 -194.5 53zM620.5 77.5q72.5 42.5 115 115t42.5 157.5t-42.5 157.5t-115 115t-157.5 42.5
t-157.5 -42.5t-115 -115t-42.5 -157.5t42.5 -157.5t115 -115t157.5 -42.5t157.5 42.5zM343 142.5q-55 32.5 -87.5 87.5t-32.5 120t32.5 120t87.5 87.5t120 32.5t120 -32.5t87.5 -87.5t32.5 -120t-32.5 -120t-87.5 -87.5t-120 -32.5t-120 32.5zM546 207q38 22 60 60t22 83
t-22 83t-60 60t-83 22t-83 -22t-60 -60t-22 -83t22 -83t60 -60t83 -22t83 22zM399.5 286.5q-26.5 26.5 -26.5 63.5t26.5 63.5t63.5 26.5q38 0 64 -26t26 -64q0 -37 -26.5 -63.5t-63.5 -26.5t-63.5 26.5z" />
    <glyph glyph-name="uniE016" unicode="&#xe016;" horiz-adv-x="593" vert-adv-y="1193" 
d="M198 142.5q-55 32.5 -87.5 87.5t-32.5 120t32.5 120t87.5 87.5t120 32.5t120 -32.5t87.5 -87.5t32.5 -120t-32.5 -120t-87.5 -87.5t-120 -32.5t-120 32.5z" />
    <glyph glyph-name="uniE017" unicode="&#xe017;" horiz-adv-x="707" vert-adv-y="1193" 
d="M225 90.5q-69 40.5 -109.5 109.5t-40.5 150t40.5 150t109.5 109.5t150 40.5t150 -40.5t109.5 -109.5t40.5 -150t-40.5 -150t-109.5 -109.5t-150 -40.5t-150 40.5z" />
    <glyph glyph-name="uniE018" unicode="&#xe018;" horiz-adv-x="825" vert-adv-y="1193" 
d="M253 38.5q-83 48.5 -131.5 131.5t-48.5 180t48.5 180t131.5 131.5t180 48.5t180 -48.5t131.5 -131.5t48.5 -180t-48.5 -180t-131.5 -131.5t-180 -48.5t-180 48.5z" />
    <glyph glyph-name="uniF8FF" unicode="&#xf8ff;" horiz-adv-x="616" vert-adv-y="1193" 
d="M169 24q-60 35 -95 95t-35 131t35 131t95 95t131 35t131 -35t95 -95t35 -131t-35 -131t-95 -95t-131 -35t-131 35z" />
    <glyph glyph-name="I_S_B_N" horiz-adv-x="2270" vert-adv-y="1193" 
d="M185 700h100l-129 -610h413q76 0 119 31.5t43 79.5q0 74 -104 100l-93 24q-63 17 -101.5 62t-38.5 113q0 57 29 102.5t83 71.5t127 26h708q92 0 147.5 -44.5t55.5 -123.5q0 -68 -42 -117.5t-112 -66.5q48 -16 74.5 -54t26.5 -89q0 -55 -28.5 -102t-79 -75t-113.5 -28
h-349l85 400h307q55 0 93 32.5t38 85.5q0 47 -30 69.5t-91 22.5h-670q-73 0 -115.5 -26t-42.5 -76q0 -35 23.5 -59t61.5 -33l98 -27q66 -17 110 -62.5t44 -113.5q0 -58 -27 -106t-83.5 -77.5t-140.5 -29.5h-545zM1352.5 122q38.5 32 38.5 94q0 44 -28 69t-82 25h-195
l-47 -220h220q55 0 93.5 32zM1803 650q75 60 200 60q108 0 168 -58t60 -157q0 -40 -8 -76l-89 -419h-100l90 424q8 40 8 68q0 128 -141 128h-2q-154 0 -190 -165l-97 -455h-100l102 479q24 111 99 171z" />
    <glyph glyph-name="i.loclTRK" horiz-adv-x="245" vert-adv-y="1193" 
d="M128 500h95l-106 -500h-95zM163 602.5q-16 16.5 -16 39.5q0 26 19.5 46t46.5 20q24 0 40 -16t16 -39q0 -27 -20 -47t-46 -20q-24 0 -40 16.5z" />
    <glyph glyph-name="a.sups" horiz-adv-x="328" vert-adv-y="1193" 
d="M103.5 430q-24.5 21 -24.5 56q0 46 33.5 73.5t87.5 27.5h86l2 8l2 14q0 19 -14 28.5t-37 9.5h-3q-44 0 -57 -34h-70q12 41 47 66.5t87 25.5q53 0 84.5 -25.5t31.5 -68.5q0 -13 -3 -27l-23 -106q-5 -24 -9 -63h-66l-1 10l2 19q-33 -35 -90 -35q-41 0 -65.5 21zM245 481.5
q23 16.5 29 47.5l2 7h-70q-28 0 -42 -10.5t-14 -28.5q0 -14 11.5 -23t30.5 -9h2q28 0 51 16.5z" />
    <glyph glyph-name="b.sups" horiz-adv-x="363" vert-adv-y="1193" 
d="M197.5 423q-23.5 13 -35.5 32l-9 -40h-73l84 395h75l-29 -135q26 28 77 28q50 0 82.5 -32t32.5 -88q0 -15 -3 -32q-11 -66 -50.5 -103.5t-95.5 -37.5q-32 0 -55.5 13zM303.5 499.5q24.5 30.5 24.5 78.5q0 31 -16 48.5t-43 17.5h-3q-30 0 -53 -23t-30 -63q-1 -7 -1 -19
q0 -32 16.5 -51t42.5 -19h4q34 0 58.5 30.5z" />
    <glyph glyph-name="c.sups" horiz-adv-x="325" vert-adv-y="1193" 
d="M126 444.5q-34 34.5 -34 92.5q0 72 43 120t112 48q55 0 88 -30t34 -77h-73q-2 20 -16 34t-36 14h-2q-35 0 -56.5 -30t-21.5 -74q0 -33 15 -52.5t43 -19.5h1q23 0 40 13.5t23 34.5h75q-12 -50 -49.5 -79t-92.5 -29q-59 0 -93 34.5z" />
    <glyph glyph-name="d.sups" horiz-adv-x="365" vert-adv-y="1193" 
d="M122.5 442.5q-30.5 32.5 -30.5 87.5q0 17 3 33q10 65 49.5 102.5t95.5 37.5q32 0 55.5 -12t35.5 -31l33 150h73l-84 -395h-73l6 28q-33 -33 -85 -33q-48 0 -78.5 32.5zM287 500q25 30 25 77q0 32 -16.5 49.5t-43.5 17.5h-3q-34 0 -59 -29.5t-25 -77.5q0 -31 16 -49
t44 -18h2q35 0 60 30z" />
    <glyph glyph-name="e.sups" horiz-adv-x="331" vert-adv-y="1193" 
d="M127 443.5q-35 34.5 -35 92.5q0 48 20.5 87t55 60.5t76.5 21.5q56 0 87.5 -30.5t36.5 -75.5q2 -16 2 -23q0 -19 -6 -39h-202q-1 -31 15 -50.5t43 -19.5h3q20 0 36 10.5t23 26.5h74q-15 -44 -51.5 -69.5t-87.5 -25.5q-55 0 -90 34.5zM282 632.5q-14 14.5 -39 14.5h-3
q-24 0 -43 -14.5t-26 -41.5h126q-1 27 -15 41.5z" />
    <glyph glyph-name="f.sups" horiz-adv-x="240" vert-adv-y="1193" 
d="M162 639h-59l14 61h58l8 36q8 36 28.5 55t64.5 19h76l-12 -60h-54q-17 0 -24.5 -7t-10.5 -23l-5 -20h69l-14 -61h-67l-47 -224h-72z" />
    <glyph glyph-name="g.sups" horiz-adv-x="361" vert-adv-y="1193" 
d="M98 319.5q-35 26.5 -35 68.5h72q1 -18 16.5 -27.5t42.5 -9.5h5q64 0 78 71l6 28q-32 -32 -82 -32q-46 0 -77 31t-31 86q0 16 3 34q10 64 48.5 100t90.5 36q32 0 56 -12.5t37 -33.5l9 41h73l-61 -282q-12 -57 -48.5 -91t-108.5 -34q-59 0 -94 26.5zM279 500q22 23 28 62
q1 7 1 19q0 31 -16 48.5t-41 17.5h-4q-29 0 -50.5 -22t-28.5 -63l-2 -20q0 -32 16.5 -48.5t41.5 -16.5h4q29 0 51 23z" />
    <glyph glyph-name="h.sups" horiz-adv-x="349" vert-adv-y="1193" 
d="M164 810h74l-30 -138q29 31 78 31q42 0 68 -23.5t26 -67.5q0 -19 -4 -36l-34 -161h-74l33 155q3 14 3 24q0 23 -12 35t-34 12h-2q-25 0 -43.5 -19.5t-26.5 -53.5l-32 -153h-74z" />
    <glyph glyph-name="i.sups" horiz-adv-x="166" vert-adv-y="1193" 
d="M141 700h75l-61 -285h-74zM162.5 749.5q-11.5 11.5 -11.5 27.5q0 20 15 34.5t34 14.5q17 0 28.5 -12t11.5 -28q0 -19 -14.5 -33.5t-34.5 -14.5q-17 0 -28.5 11.5z" />
    <glyph glyph-name="j.sups" horiz-adv-x="167" vert-adv-y="1193" 
d="M-20 364h60q16 0 24.5 7.5t12.5 23.5l64 305h74l-66 -314q-17 -84 -99 -84h-83zM161.5 749.5q-11.5 11.5 -11.5 27.5q0 21 15 35t34 14q17 0 28.5 -12t11.5 -29q0 -19 -15 -33t-34 -14q-17 0 -28.5 11.5z" />
    <glyph glyph-name="k.sups" horiz-adv-x="326" vert-adv-y="1193" 
d="M164 810h73l-45 -213l123 103h94l-135 -112l80 -173h-82l-55 124l-45 -36l-19 -88h-73z" />
    <glyph glyph-name="l.sups" horiz-adv-x="165" vert-adv-y="1193" 
d="M164 810h73l-84 -395h-73z" />
    <glyph glyph-name="m.sups" horiz-adv-x="531" vert-adv-y="1193" 
d="M141 700h74l-7 -28q29 34 77 34q28 0 49.5 -12t32.5 -34q37 46 94 46q44 0 72.5 -25t28.5 -70q0 -17 -4 -33l-34 -163h-74l33 157q3 14 3 24q0 23 -12 35t-33 12h-1q-25 0 -43 -20t-25 -53l-33 -155h-74l33 157q3 14 3 24q0 23 -12 35t-33 12h-1q-25 0 -43 -20.5
t-25 -53.5l-33 -154h-74z" />
    <glyph glyph-name="n.sups" horiz-adv-x="349" vert-adv-y="1193" 
d="M141 700h74l-7 -28q31 34 78 34q42 0 68 -24.5t26 -69.5q0 -19 -4 -36l-34 -161h-74l33 155q3 14 3 25q0 23 -12 35t-34 12h-2q-25 0 -43.5 -20.5t-25.5 -53.5l-33 -153h-74z" />
    <glyph glyph-name="o.sups" horiz-adv-x="345" vert-adv-y="1193" 
d="M129 446.5q-37 36.5 -37 92.5q0 48 21 86t57.5 59t81.5 21q58 0 94.5 -35t36.5 -91q0 -49 -20.5 -87.5t-56.5 -60t-82 -21.5q-58 0 -95 36.5zM282.5 493.5q21.5 23.5 26.5 64.5q1 6 1 17q0 32 -17 50.5t-46 18.5h-3q-30 0 -51.5 -23t-26.5 -63q-1 -6 -1 -16
q0 -33 17 -52.5t46 -19.5h2q31 0 52.5 23.5z" />
    <glyph glyph-name="p.sups" horiz-adv-x="365" vert-adv-y="1193" 
d="M141 700h74l-6 -28q31 33 81 33t81.5 -32.5t31.5 -88.5q0 -16 -3 -34q-10 -64 -49.5 -101.5t-95.5 -37.5q-32 0 -56.5 12.5t-35.5 30.5l-32 -150h-74zM304.5 502q24.5 31 24.5 78q0 31 -16 48t-43 17h-2q-31 0 -54 -23.5t-30 -63.5q-1 -7 -1 -19q0 -32 16 -50t43 -18h4
q34 0 58.5 31z" />
    <glyph glyph-name="q.sups" horiz-adv-x="364" vert-adv-y="1193" 
d="M250 419.5q-22 -8.5 -49 -8.5q-48 0 -78.5 31.5t-30.5 86.5q0 16 3 34q10 66 49.5 104t95.5 38q32 0 55.5 -13t35.5 -32l9 40h73l-83 -396h-73l29 138q-14 -14 -36 -22.5zM287 501q25 30 25 78q0 31 -16.5 48.5t-43.5 17.5h-3q-34 0 -59 -30t-25 -77q0 -31 16 -49t44 -18
h2q35 0 60 30z" />
    <glyph glyph-name="r.sups" horiz-adv-x="237" vert-adv-y="1193" 
d="M141 700h73l-8 -46q13 23 37.5 36t57.5 13h14l-14 -68h-20q-40 0 -65.5 -25.5t-34.5 -71.5l-27 -123h-74z" />
    <glyph glyph-name="s.sups" horiz-adv-x="303" vert-adv-y="1193" 
d="M111 436.5q-33 26.5 -32 69.5h73q0 -20 15 -30t37 -10h3q21 0 35 8.5t14 22.5q0 11 -7.5 17t-22.5 10l-44 10q-74 18 -74 75q0 44 36 70t86 26q53 0 85.5 -26t32.5 -70h-72q1 19 -12 30t-36 11h-3q-21 0 -33 -9t-12 -23q0 -10 8 -15.5t25 -10.5l40 -10q36 -9 56 -26.5
t20 -48.5q0 -46 -36.5 -71.5t-91.5 -25.5q-57 0 -90 26.5z" />
    <glyph glyph-name="t.sups" horiz-adv-x="246" vert-adv-y="1193" 
d="M144 431q-20 16 -20 46q0 11 3 23l28 140h-59l13 60h59l19 91h74l-19 -91h65l-13 -60h-65l-28 -131l-2 -14q0 -10 6.5 -14.5t20.5 -4.5h41l-13 -61h-53q-37 0 -57 16z" />
    <glyph glyph-name="u.sups" horiz-adv-x="345" vert-adv-y="1193" 
d="M120.5 433q-22.5 23 -22.5 64q0 18 4 34l36 169h74l-35 -165q-3 -13 -3 -24q0 -38 39 -38h1q27 0 47.5 21.5t30.5 67.5l29 138h73l-61 -285h-73l7 32q-35 -37 -84 -37q-40 0 -62.5 23z" />
    <glyph glyph-name="v.sups" horiz-adv-x="326" vert-adv-y="1193" 
d="M105 700h74l28 -226l123 226h79l-162 -285h-101z" />
    <glyph glyph-name="w.sups" horiz-adv-x="461" vert-adv-y="1193" 
d="M104 700h71l13 -209l95 209h76l10 -207l97 207h75l-146 -285h-79l-9 200l-94 -200h-80z" />
    <glyph glyph-name="x.sups" horiz-adv-x="308" vert-adv-y="1193" 
d="M180 559l-70 141h75l43 -85l79 85h83l-131 -140l73 -145h-76l-45 88l-83 -88h-82z" />
    <glyph glyph-name="y.sups" horiz-adv-x="329" vert-adv-y="1193" 
d="M48 364h51q17 0 27 6t19 21l27 44l-71 265h77l45 -183l109 183h84l-205 -333q-24 -38 -46.5 -52.5t-58.5 -14.5h-71z" />
    <glyph glyph-name="z.sups" horiz-adv-x="305" vert-adv-y="1193" 
d="M75 471l178 166h-140l14 63h237l-12 -57l-176 -165h151l-14 -63h-249z" />
    <glyph glyph-name="zero.zero" horiz-adv-x="666" vert-adv-y="1193" 
d="M180.5 25q-54.5 35 -83 99.5t-28.5 150.5q0 97 35.5 198t109.5 169t184 68q75 0 129 -35t83 -99t29 -149q0 -98 -35.5 -199t-109.5 -169.5t-184 -68.5q-75 0 -129.5 35zM431.5 122.5q50.5 46.5 80 126.5t29.5 175q0 30 -5 60l-330 -355q38 -53 105 -53h10
q60 0 110.5 46.5zM172 218l329 354q-37 52 -103 52h-10q-60 0 -111 -46.5t-80.5 -126.5t-29.5 -175q0 -28 5 -58z" />
    <glyph glyph-name="zero.osf" horiz-adv-x="612" vert-adv-y="1193" 
d="M162.5 21.5q-54.5 31.5 -84.5 86t-30 120.5q0 78 35.5 142.5t99 102t142.5 37.5q70 0 124 -31.5t84 -87t30 -123.5q0 -77 -35.5 -140.5t-98.5 -100.5t-142 -37q-70 0 -124.5 31.5zM384.5 94.5q39.5 25.5 61.5 71t22 102.5q0 72 -40 117.5t-108 45.5q-51 0 -91.5 -26
t-63 -72t-22.5 -103q0 -73 40.5 -117t110.5 -44h1q50 0 89.5 25.5z" />
    <glyph glyph-name="one.osf" horiz-adv-x="323" vert-adv-y="1193" 
d="M161 308h-121l14 67q58 0 100 33t64 92h76l-106 -500h-92z" />
    <glyph glyph-name="two.osf" horiz-adv-x="470" vert-adv-y="1193" 
d="M23 102l252 177q34 25 48.5 45t14.5 45q0 27 -20 44.5t-53 17.5h-8q-35 0 -60 -25.5t-30 -65.5h-95q8 73 57 121.5t137 48.5q75 0 121.5 -38t46.5 -99q0 -49 -27.5 -86.5t-80.5 -73.5l-196 -132h263l-18 -81h-374z" />
    <glyph glyph-name="three.osf" horiz-adv-x="559" vert-adv-y="1193" 
d="M86.5 -186q-53.5 24 -83.5 68t-30 102h96q0 -49 39.5 -82t103.5 -33q43 0 77 17.5t52.5 48t18.5 67.5q0 51 -34.5 82.5t-95.5 31.5h-37l17 79h65q58 0 100 33.5t42 89.5q0 53 -34 83t-90 30q-54 0 -92 -32t-46 -85h-96q5 51 35.5 96t83.5 72.5t123 27.5q62 0 110 -23.5
t74.5 -65.5t26.5 -96q0 -70 -43.5 -118t-107.5 -64q42 -20 68 -58t26 -90q0 -56 -30.5 -103t-86.5 -74.5t-130 -27.5q-68 0 -121.5 24z" />
    <glyph glyph-name="four.osf" horiz-adv-x="592" vert-adv-y="1193" 
d="M319 0h-342l22 103l399 397h118l-89 -419h107l-17 -81h-107l-42 -200h-92zM335 81l66 307l-309 -307h243z" />
    <glyph glyph-name="five.osf" horiz-adv-x="561" vert-adv-y="1193" 
d="M95.5 -187q-51.5 23 -81 67.5t-29.5 105.5h92q1 -56 37 -86t94 -30h10q63 0 108.5 41.5t53.5 109.5q1 7 1 20q0 55 -35.5 90t-92.5 35h-10q-40 0 -77 -20.5t-63 -59.5h-86l141 414h387l-17 -82h-312l-71 -208q53 37 124 37q62 0 108.5 -26.5t72 -72t25.5 -101.5
q0 -16 -1 -24q-7 -71 -43 -124t-93 -81t-127 -28q-64 0 -115.5 23z" />
    <glyph glyph-name="six.osf" horiz-adv-x="614" vert-adv-y="1193" 
d="M131.5 67.5q-63.5 77.5 -63.5 214.5q0 107 38.5 205.5t113.5 160.5t178 62q92 0 153.5 -49.5t68.5 -130.5h-95q-7 45 -43 71.5t-90 26.5h-1q-54 0 -100 -33.5t-77 -90.5t-43 -127q28 42 73 62.5t96 20.5q62 0 112.5 -27t79 -76t28.5 -113q0 -68 -30.5 -126.5t-87 -93
t-131.5 -34.5q-116 0 -179.5 77.5zM390.5 93.5q34.5 21.5 55 59t20.5 83.5q0 60 -38.5 101t-97.5 41h-9q-43 0 -78.5 -21t-56.5 -56.5t-21 -78.5q0 -40 18.5 -74.5t50.5 -55t71 -20.5h10q41 0 75.5 21.5z" />
    <glyph glyph-name="seven.osf" horiz-adv-x="518" vert-adv-y="1193" 
d="M140.5 80q40.5 113 110 202t164.5 136h-364l18 82h484l-20 -94q-158 -67 -243.5 -217t-107.5 -366l-2 -23h-96l4 44q12 123 52.5 236z" />
    <glyph glyph-name="eight.osf" horiz-adv-x="568" vert-adv-y="1193" 
d="M145.5 14q-50.5 24 -79 66t-28.5 96q0 71 47 124.5t122 69.5q-39 21 -61 58t-22 84q0 54 30 99.5t82.5 72t118.5 26.5q59 0 105 -23t72 -63.5t26 -91.5q0 -68 -42 -118t-111 -67q45 -20 71 -60t26 -92q0 -57 -31 -103.5t-86.5 -74t-125.5 -27.5q-63 0 -113.5 24z
M366.5 111q39.5 36 39.5 95q0 48 -35 77.5t-87 29.5h-10q-58 0 -99.5 -34.5t-41.5 -92.5q0 -51 35 -81t89 -30h9q61 0 100.5 36zM426 433.5q37 34.5 37 86.5q0 45 -31 75t-79 30h-10q-54 0 -89.5 -36t-35.5 -89q0 -44 30.5 -72.5t78.5 -28.5h8q54 0 91 34.5z" />
    <glyph glyph-name="nine.osf" horiz-adv-x="612" vert-adv-y="1193" 
d="M483.5 432.5q63.5 -77.5 63.5 -214.5q0 -107 -38.5 -205.5t-113.5 -160.5t-178 -62q-92 0 -153.5 49.5t-68.5 130.5h95q7 -45 43 -71.5t90 -26.5h1q54 0 100 33.5t77 90.5t43 127q-28 -42 -73 -62.5t-96 -20.5q-62 0 -112.5 27t-79 76t-28.5 113q0 68 30.5 126.5t87 93
t131.5 34.5q116 0 179.5 -77.5zM224.5 406.5q-34.5 -21.5 -55 -59t-20.5 -83.5q0 -60 38.5 -101t97.5 -41h9q43 0 78.5 21t56.5 56.5t21 78.5q0 40 -18.5 74.5t-50.5 55t-71 20.5h-10q-41 0 -75.5 -21.5z" />
    <glyph glyph-name="zero.tf" vert-adv-y="1193" 
d="M108.5 66q-59.5 76 -59.5 207q0 97 35 198.5t106.5 170t173.5 68.5q110 0 169.5 -76t59.5 -207q0 -97 -34.5 -198.5t-106 -170t-173.5 -68.5q-111 0 -170.5 76zM392.5 124.5q48.5 48.5 75.5 128.5t27 169t-34 145.5t-100 56.5q-62 0 -111 -48.5t-76 -128t-27 -168.5
q0 -91 33.5 -147t103.5 -56q60 0 108.5 48.5z" />
    <glyph glyph-name="one.tf" vert-adv-y="1193" 
d="M20 89h211l85 399h-162l14 67q80 -1 133 37t79 108h76l-130 -611h203l-19 -89h-509z" />
    <glyph glyph-name="two.tf" vert-adv-y="1193" 
d="M47 100l286 226q74 58 107.5 100.5t33.5 92.5q0 47 -33 76t-86 29h-10q-55 0 -93.5 -38t-41.5 -96h-98q2 64 33.5 114t85 78t119.5 28q67 0 118 -24.5t78 -67t27 -95.5q0 -76 -42 -132.5t-132 -127.5l-222 -174h341l-17 -89h-475z" />
    <glyph glyph-name="three.tf" vert-adv-y="1193" 
d="M99 42.5q-62 52.5 -62 141.5h97q4 -51 37.5 -79.5t91.5 -28.5h9q65 0 107.5 36t42.5 93q0 50 -37 79t-96 29h-34l19 86h59q65 0 106 33.5t41 89.5q0 47 -33 74.5t-85 27.5h-10q-52 0 -89.5 -30.5t-44.5 -79.5h-97q5 56 37.5 100.5t86 70t119.5 25.5q62 0 110.5 -22
t76 -62.5t27.5 -94.5q0 -66 -39 -115.5t-107 -69.5q39 -20 63.5 -56.5t24.5 -85.5q0 -66 -32 -114t-89.5 -74t-130.5 -26q-107 0 -169 52.5z" />
    <glyph glyph-name="four.tf" vert-adv-y="1193" 
d="M353 158h-340l20 92l421 450h108l-97 -456h101l-18 -86h-101l-34 -158h-94zM371 244l67 319l-300 -319h233z" />
    <glyph glyph-name="five.tf" vert-adv-y="1193" 
d="M117 41.5q-64 51.5 -68 143.5h98q6 -51 41 -80t88 -29h10q45 0 81 21.5t56 59t20 83.5q0 56 -36 90.5t-92 34.5h-9q-41 0 -79.5 -21.5t-60.5 -57.5h-98l144 414h390l-19 -89h-315l-72 -209q54 47 135 47q62 0 110 -26.5t74.5 -73t26.5 -105.5q0 -76 -34 -133.5t-93.5 -89
t-134.5 -31.5q-99 0 -163 51.5z" />
    <glyph glyph-name="six.tf" vert-adv-y="1193" 
d="M120.5 57.5q-63.5 67.5 -63.5 196.5q0 52 12 115q27 150 107.5 245.5t204.5 95.5q60 0 108.5 -22.5t78.5 -63.5t35 -94h-99q-8 42 -42 68t-81 26h-8q-71 0 -124 -66t-79 -178q32 39 76.5 59.5t95.5 20.5q60 0 107.5 -25.5t75 -72.5t27.5 -107q0 -78 -34.5 -138.5
t-94.5 -93.5t-133 -33q-106 0 -169.5 67.5zM374 98.5q36 21.5 57.5 59t21.5 83.5q0 58 -35.5 95.5t-90.5 37.5h-9q-42 0 -78 -22t-58 -60.5t-22 -85.5q0 -57 36 -93t91 -36h10q41 0 77 21.5z" />
    <glyph glyph-name="seven.tf" vert-adv-y="1193" 
d="M259 395.5q84 145.5 222 215.5h-349l17 89h494l-19 -89q-112 -48 -188.5 -122.5t-122.5 -188.5t-60 -277l-2 -23h-99l4 44q19 206 103 351.5z" />
    <glyph glyph-name="eight.tf" vert-adv-y="1193" 
d="M151 14.5q-52 24.5 -79.5 67.5t-27.5 98q0 72 48 123t119 66q-38 20 -61 57t-23 84q0 55 30.5 100.5t85 72.5t123.5 27t120 -26t77 -69.5t22 -93.5q-6 -64 -47 -109.5t-102 -63.5q43 -20 70.5 -63.5t23.5 -96.5q-4 -59 -37 -103.5t-89.5 -69.5t-129.5 -25
q-71 0 -123 24.5zM390.5 111.5q40.5 35.5 40.5 91.5q0 49 -36 79t-96 30h-11q-65 0 -106 -35t-41 -90q0 -49 36.5 -80t97.5 -31h9q66 0 106.5 35.5zM447.5 435q37.5 35 37.5 88q0 44 -31.5 72.5t-86.5 28.5h-10q-40 0 -70.5 -16.5t-47 -44t-16.5 -59.5q0 -46 31 -75t86 -29
h9q61 0 98.5 35z" />
    <glyph glyph-name="nine.tf" vert-adv-y="1193" 
d="M521.5 642.5q63.5 -67.5 63.5 -196.5q0 -52 -12 -115q-27 -150 -107.5 -245.5t-204.5 -95.5q-60 0 -108.5 22.5t-78.5 63.5t-35 94h99q8 -42 42 -68t81 -26h8q71 0 124 66t79 178q-32 -39 -76.5 -59.5t-95.5 -20.5q-60 0 -107.5 25.5t-75 72.5t-27.5 107q0 78 34.5 138.5
t94.5 93.5t133 33q106 0 169.5 -67.5zM268 601.5q-36 -21.5 -57.5 -59t-21.5 -83.5q0 -58 35.5 -95.5t90.5 -37.5h9q42 0 78 22t58 60.5t22 85.5q0 57 -36 93t-91 36h-10q-41 0 -77 -21.5z" />
    <glyph glyph-name="zero.osf.zero" horiz-adv-x="612" vert-adv-y="1193" 
d="M162.5 21.5q-54.5 31.5 -84.5 86t-30 120.5q0 78 35.5 142.5t99 102t142.5 37.5q70 0 124 -31.5t84 -87t30 -123.5q0 -77 -35.5 -140.5t-98.5 -100.5t-142 -37q-70 0 -124.5 31.5zM384.5 94.5q39.5 25.5 61.5 71t22 102.5q0 48 -19 86l-242 -261q36 -24 87 -24h1
q50 0 89.5 25.5zM228.5 405q-40.5 -26 -63 -72t-22.5 -103q0 -45 16 -80l242 259q-35 22 -81 22q-51 0 -91.5 -26z" />
    <glyph glyph-name="zero.tf.zero" vert-adv-y="1193" 
d="M108.5 66q-59.5 76 -59.5 207q0 97 35 198.5t106.5 170t173.5 68.5q110 0 169.5 -76t59.5 -207q0 -97 -34.5 -198.5t-106 -170t-173.5 -68.5q-111 0 -170.5 76zM392.5 124.5q48.5 48.5 75.5 128.5t27 169q0 28 -3 52l-314 -338q35 -60 105 -60h1q60 0 108.5 48.5z
M250 575.5q-49 -48.5 -76 -128t-27 -168.5q0 -29 3 -53l313 339q-35 59 -102 59q-62 0 -111 -48.5z" />
    <glyph glyph-name="zero.dnom" horiz-adv-x="404" vert-adv-y="1193" 
d="M60 41q-40 45 -40 123q0 22 3 44q12 85 61 139t125 54q72 0 112 -44.5t40 -122.5q0 -21 -3 -44q-12 -88 -61.5 -141t-126.5 -53q-70 0 -110 45zM244.5 99.5q28.5 39.5 36.5 98.5q3 18 3 34q0 46 -19.5 75.5t-57.5 29.5h-4q-41 0 -68 -39t-36 -99q-3 -18 -3 -34
q0 -46 18.5 -75.5t55.5 -29.5h4q42 0 70.5 39.5z" />
    <glyph glyph-name="one.dnom" horiz-adv-x="234" vert-adv-y="1193" 
d="M104 251h-87l10 51q89 1 126 93h56l-84 -395h-74z" />
    <glyph glyph-name="two.dnom" horiz-adv-x="350" vert-adv-y="1193" 
d="M5 79l161 119q41 31 55.5 48t14.5 42q0 21 -15.5 34t-38.5 13h-5q-23 0 -41.5 -15.5t-22.5 -43.5h-77q8 57 50.5 90.5t101.5 33.5q55 0 91.5 -30t36.5 -77q0 -42 -24.5 -72.5t-72.5 -65.5l-120 -89h183l-14 -66h-281z" />
    <glyph glyph-name="three.dnom" horiz-adv-x="351" vert-adv-y="1193" 
d="M32.5 26.5q-38.5 31.5 -35.5 86.5h77q-1 -24 15 -39t42 -15h5q31 0 51 16t20 47q0 23 -14.5 34.5t-39.5 11.5h-32l13 64h36q32 0 51.5 15t19.5 42q0 21 -16 34t-41 13h-5q-24 0 -41.5 -14.5t-21.5 -35.5h-76q7 53 48 83.5t99 30.5q56 0 92.5 -26.5t36.5 -73.5
q0 -39 -21 -65.5t-57 -37.5q21 -11 33.5 -31t12.5 -48q0 -57 -45 -90t-108 -33q-60 0 -98.5 31.5z" />
    <glyph glyph-name="four.dnom" horiz-adv-x="362" vert-adv-y="1193" 
d="M174 87h-188l15 68l222 240h89l-53 -246h56l-13 -62h-56l-18 -87h-72zM188 149l33 158l-145 -158h112z" />
    <glyph glyph-name="five.dnom" horiz-adv-x="351" vert-adv-y="1193" 
d="M38.5 26.5q-37.5 30.5 -38.5 84.5h77q1 -25 17.5 -38t42.5 -13h4q32 0 53.5 22.5t21.5 56.5q0 25 -17 39.5t-43 14.5h-3q-37 0 -63 -32h-75l84 235h233l-14 -64h-176l-32 -93q28 16 63 16q52 0 85.5 -31t33.5 -81q0 -67 -44.5 -107t-111.5 -40q-60 0 -97.5 30.5z" />
    <glyph glyph-name="six.dnom" horiz-adv-x="373" vert-adv-y="1193" 
d="M53.5 35.5q-36.5 39.5 -36.5 112.5q0 19 3 40q12 98 64.5 155.5t128.5 57.5q40 0 69.5 -16t44.5 -42t15 -54h-75q-2 21 -18 34.5t-40 13.5h-5q-35 0 -63 -30.5t-42 -82.5q16 19 41 30t54 11q56 0 90.5 -36.5t29.5 -94.5q-6 -60 -48.5 -99t-112.5 -39q-63 0 -99.5 39.5z
M214.5 83q23.5 23 23.5 56q0 27 -17 45t-45 18h-3q-31 0 -55.5 -23t-24.5 -56q0 -28 17.5 -45.5t43.5 -17.5h4q33 0 56.5 23z" />
    <glyph glyph-name="seven.dnom" horiz-adv-x="320" vert-adv-y="1193" 
d="M110.5 215q48.5 69 121.5 116h-193l14 64h278l-15 -65q-77 -50 -127 -119.5t-70 -177.5l-7 -33h-77l6 33q21 113 69.5 182z" />
    </font>
</defs>
</svg>
