<?xml version="1.0" standalone="no"?>
<!DOCTYPE svg PUBLIC "-//W3C//DTD SVG 1.1//EN" "http://www.w3.org/Graphics/SVG/1.1/DTD/svg11.dtd" >
<svg xmlns="http://www.w3.org/2000/svg" xmlns:xlink="http://www.w3.org/1999/xlink" version="1.1">
<metadata>
Created by FontForge 20201107 at Fri Jan 24 12:21:06 2025
 By 
OpenAI OpCo. L.L.C.
</metadata>
<defs>
<font id="OpenAISans-Bold" horiz-adv-x="600" >
  <font-face 
    font-family="OpenAI Sans"
    font-weight="700"
    font-stretch="normal"
    units-per-em="1000"
    panose-1="2 11 8 4 3 2 2 6 2 3"
    ascent="800"
    descent="-200"
    x-height="500"
    cap-height="700"
    bbox="-169 -274 2182 1026"
    underline-thickness="50"
    underline-position="-125"
    unicode-range="U+000D-FB02"
  />
<missing-glyph horiz-adv-x="664" 
d="M82 700h500v-700h-500v700zM477 105v490h-290v-490h290z" />
    <glyph glyph-name="fi" unicode="fi" horiz-adv-x="656" 
d="M123 395h-102v105h102v46q0 154 152 154h121v-108h-82q-35 0 -48 -12.5t-13 -46.5v-33h335v-500h-130v395h-205v-395h-130v395zM467.5 586.5q-23.5 23.5 -23.5 55.5q0 33 23.5 56t55.5 23t55.5 -23t23.5 -56q0 -32 -23.5 -55.5t-55.5 -23.5t-55.5 23.5z" />
    <glyph glyph-name="fl" unicode="fl" horiz-adv-x="656" 
d="M123 395h-102v105h102v46q0 154 152 154h313v-700h-130v592h-144q-35 0 -48 -12.5t-13 -46.5v-33h118v-105h-118v-395h-130v395z" />
    <glyph glyph-name="f_f" unicode="ff" horiz-adv-x="727" 
d="M123 395h-102v105h102v46q0 154 152 154h121v-108h-82q-35 0 -48 -12.5t-13 -46.5v-33h205v46q0 154 152 154h121v-108h-82q-35 0 -48 -12.5t-13 -46.5v-33h118v-105h-118v-395h-130v395h-205v-395h-130v395z" />
    <glyph glyph-name="f_f_i" unicode="ffi" horiz-adv-x="991" 
d="M123 395h-102v105h102v46q0 154 152 154h121v-108h-82q-35 0 -48 -12.5t-13 -46.5v-33h205v46q0 154 152 154h121v-108h-82q-35 0 -48 -12.5t-13 -46.5v-33h335v-500h-130v395h-205v-395h-130v395h-205v-395h-130v395zM802.5 586.5q-23.5 23.5 -23.5 55.5q0 33 23.5 56
t55.5 23t55.5 -23t23.5 -56q0 -32 -23.5 -55.5t-55.5 -23.5t-55.5 23.5z" />
    <glyph glyph-name="f_f_l" unicode="ffl" horiz-adv-x="991" 
d="M123 395h-102v105h102v46q0 154 152 154h121v-108h-82q-35 0 -48 -12.5t-13 -46.5v-33h205v46q0 154 152 154h313v-700h-130v592h-144q-35 0 -48 -12.5t-13 -46.5v-33h118v-105h-118v-395h-130v395h-205v-395h-130v395z" />
    <glyph glyph-name="w_w_w.liga" unicode="www" horiz-adv-x="2051" 
d="M11 500h131l100 -371l81 371h139l87 -368l95 368h131l100 -371l81 371h139l87 -368l95 368h131l100 -371l81 371h139l87 -368l95 368h126l-143 -500h-146l-88 350l-83 -350h-146l-88 287l-82 -287h-146l-88 350l-83 -350h-146l-88 287l-82 -287h-146l-88 350l-83 -350
h-146z" />
    <glyph glyph-name=".notdef" horiz-adv-x="664" 
d="M82 700h500v-700h-500v700zM477 105v490h-290v-490h290z" />
    <glyph glyph-name=".null" horiz-adv-x="0" 
 />
    <glyph glyph-name="nonmarkingreturn" unicode="&#xd;" horiz-adv-x="228" 
 />
    <glyph glyph-name="space" unicode=" " horiz-adv-x="228" 
 />
    <glyph glyph-name="exclam" unicode="!" horiz-adv-x="281" 
d="M82.5 14.5q-24.5 24.5 -24.5 58.5t24.5 58.5t58.5 24.5q35 0 59 -24t24 -59q0 -34 -24 -58.5t-59 -24.5q-34 0 -58.5 24.5zM75 460v240h133v-240l-31 -257h-71z" />
    <glyph glyph-name="quotedbl" unicode="&#x22;" horiz-adv-x="380" 
d="M217 595v105h115v-105l-32 -135h-51zM48 595v105h115v-105l-32 -135h-51z" />
    <glyph glyph-name="numbersign" unicode="#" horiz-adv-x="701" 
d="M134 160h-100v115h125l32 150h-114v115h139l34 160h120l-34 -160h110l34 160h120l-34 -160h99v-115h-124l-32 -150h113v-115h-138l-34 -160h-120l34 160h-110l-34 -160h-120zM389 275l32 150h-110l-32 -150h110z" />
    <glyph glyph-name="dollar" unicode="$" horiz-adv-x="632" 
d="M307 -10l-19 -110h-114l21 126q-79 24 -121 82.5t-44 145.5h134q2 -69 53 -101l28 167l-10 2q-183 35 -183 198q0 57 31.5 104.5t91 76.5t139.5 29l18 110h114l-21 -126q74 -24 116 -80.5t44 -132.5h-135q-6 55 -47 84l-26 -155l14 -3q95 -17 146.5 -70t51.5 -137
q0 -62 -33 -109.5t-95 -74t-145 -26.5h-9zM204.5 455q18.5 -17 61.5 -26l27 161q-48 -3 -77.5 -27t-29.5 -59q0 -32 18.5 -49zM416.5 134q33.5 23 33.5 61q0 32 -22 53t-73 31l-28 -169q56 1 89.5 24z" />
    <glyph glyph-name="percent" unicode="%" horiz-adv-x="933" 
d="M619 700h117l-420 -700h-117zM72.5 356.5q-45.5 56.5 -45.5 145.5t46 146t129 57q84 0 130 -57t46 -146t-46 -145.5t-130 -56.5t-129.5 56.5zM258.5 415q18.5 33 18.5 87q0 55 -18.5 88t-54.5 33h-4q-35 0 -53.5 -33t-18.5 -88q0 -54 18.5 -87t53.5 -33h4q36 0 54.5 33z
M600.5 51.5q-45.5 56.5 -45.5 145.5t46 146t129 57q84 0 130 -57t46 -146t-46 -145.5t-130 -56.5t-129.5 56.5zM786.5 110q18.5 33 18.5 87q0 55 -18.5 88t-54.5 33h-4q-35 0 -53.5 -33t-18.5 -88q0 -54 18.5 -87t53.5 -33h4q36 0 54.5 33z" />
    <glyph glyph-name="ampersand" unicode="&#x26;" horiz-adv-x="696" 
d="M167.5 12q-54.5 23 -87.5 69t-33 110q0 124 132 198q-34 42 -48.5 76t-14.5 75q0 50 26.5 89t71 60.5t97.5 21.5q56 0 100.5 -21t70 -58.5t25.5 -86.5q0 -126 -152 -189l126 -141q29 60 29 134v15h121v-26q0 -61 -17.5 -115.5t-50.5 -98.5l111 -124h-150l-41 46
q-41 -27 -91 -42t-105 -15q-65 0 -119.5 23zM210.5 126.5q33.5 -28.5 88.5 -28.5q61 0 109 32l-161 180q-70 -41 -70 -107q0 -48 33.5 -76.5zM244.5 488q11.5 -20 39.5 -52l18 7q42 17 60 38t18 54q0 29 -19.5 49t-54.5 20q-31 0 -52 -19.5t-21 -52.5q0 -24 11.5 -44z" />
    <glyph glyph-name="quotesingle" unicode="'" horiz-adv-x="211" 
d="M48 595v105h115v-105l-32 -135h-51z" />
    <glyph glyph-name="parenleft" unicode="(" horiz-adv-x="407" 
d="M220.5 -90q-78.5 55 -128 167t-49.5 273t49.5 273t128 167t162.5 55v-110q-49 -7 -97 -46t-80.5 -123t-32.5 -216t32.5 -216t80.5 -123t97 -46v-110q-84 0 -162.5 55z" />
    <glyph glyph-name="parenright" unicode=")" horiz-adv-x="407" 
d="M186.5 790q78.5 -55 128 -167t49.5 -273t-49.5 -273t-128 -167t-162.5 -55v110q49 7 97 46t80.5 123t32.5 216t-32.5 216t-80.5 123t-97 46v110q84 0 162.5 -55z" />
    <glyph glyph-name="asterisk" unicode="*" horiz-adv-x="429" 
d="M78 451l53 87h-95v92h95l-53 87l84 46l53 -87l52 87l84 -46l-53 -87h95v-92h-95l53 -87l-84 -46l-52 87l-53 -87z" />
    <glyph glyph-name="plus" unicode="+" horiz-adv-x="587" 
d="M227 200h-180v115h180v185h133v-185h180v-115h-180v-185h-133v185z" />
    <glyph glyph-name="comma" unicode="," horiz-adv-x="269" 
d="M29 -75h36q32 0 47 18t15 47v10h-65v145h145v-160q0 -35 -17.5 -66t-49 -50t-70.5 -19h-41v75z" />
    <glyph glyph-name="hyphen" unicode="-" horiz-adv-x="398" 
d="M54 355h290v-105h-290v105z" />
    <glyph glyph-name="period" unicode="." horiz-adv-x="260" 
d="M71.5 14.5q-24.5 24.5 -24.5 58.5t24.5 58.5t58.5 24.5q35 0 59 -24t24 -59q0 -34 -24 -58.5t-59 -24.5q-34 0 -58.5 24.5z" />
    <glyph glyph-name="slash" unicode="/" horiz-adv-x="435" 
d="M285 700h135l-265 -700h-140z" />
    <glyph glyph-name="zero" unicode="0" horiz-adv-x="666" 
d="M178 34.5q-64 44.5 -97 126t-33 189.5t34 189t98 126t153 45t153 -45t98 -126t34 -189t-33 -189.5t-97 -126t-155 -44.5t-155 44.5zM450 171q35 66 35 179t-35 179t-112 66h-10q-77 0 -112 -66t-35 -179t35 -179t112 -66h10q77 0 112 66z" />
    <glyph glyph-name="one" unicode="1" horiz-adv-x="382" 
d="M168 465h-147v84q67 4 113 46t57 105h106v-700h-129v465z" />
    <glyph glyph-name="two" unicode="2" horiz-adv-x="582" 
d="M43 121l238 224q66 62 89 94t23 68q0 38 -26 63t-67 25h-10q-46 0 -76 -30.5t-31 -83.5h-133q0 70 31.5 122t87 79.5t125.5 27.5q69 0 121.5 -25.5t81.5 -70.5t29 -102q0 -64 -30 -113.5t-103 -116.5l-182 -167h325v-115h-493v121z" />
    <glyph glyph-name="three" unicode="3" horiz-adv-x="591" 
d="M107 44.5q-67 54.5 -68 148.5h133q3 -40 30.5 -64t76.5 -24h10q60 0 89.5 29t29.5 68q0 47 -34.5 72t-95.5 25h-47v115h42q60 0 92.5 23.5t32.5 70.5q0 39 -28.5 63t-73.5 24h-10q-40 0 -69.5 -24.5t-31.5 -65.5h-133q0 60 29.5 106.5t83.5 72.5t125 26q73 0 127.5 -25
t83.5 -68.5t29 -96.5q0 -57 -32.5 -100t-85.5 -60q58 -17 94 -62t36 -105q0 -96 -70.5 -149.5t-186.5 -53.5q-111 0 -178 54.5z" />
    <glyph glyph-name="four" unicode="4" horiz-adv-x="639" 
d="M372 142h-338v131l334 427h131v-443h105v-115h-105v-142h-127v142zM372 257v265l-208 -265h208z" />
    <glyph glyph-name="five" unicode="5" horiz-adv-x="592" 
d="M120 44q-69 54 -78 150h132q10 -40 41.5 -64.5t75.5 -24.5h9q53 0 86 33.5t33 87.5q0 53 -34.5 84.5t-83.5 31.5h-9q-75 0 -112 -61h-125l50 419h416v-115h-314l-20 -179q49 48 137 48q66 0 117.5 -29t80.5 -80t29 -115q0 -72 -32 -126.5t-90 -84t-134 -29.5
q-106 0 -175 54z" />
    <glyph glyph-name="six" unicode="6" horiz-adv-x="625" 
d="M121 79q-72 89 -72 249q0 115 33.5 201t97 133.5t150.5 47.5q94 0 162 -50.5t81 -135.5h-135q-10 34 -40 54.5t-70 20.5h-7q-55 0 -93.5 -55t-47.5 -163q26 37 70.5 58t97.5 21q63 0 115 -28.5t82.5 -80.5t30.5 -120t-31.5 -123t-90 -86.5t-134.5 -31.5q-127 0 -199 89z
M407 139.5q33 34.5 33 85.5t-33 85.5t-83 34.5h-10q-53 0 -88 -34t-35 -86t34.5 -86t88.5 -34h10q50 0 83 34.5z" />
    <glyph glyph-name="seven" unicode="7" horiz-adv-x="541" 
d="M197.5 380.5q65.5 124.5 168.5 199.5h-348v120h505v-110q-118 -77 -185 -202.5t-67 -322.5v-65h-139v65q0 191 65.5 315.5z" />
    <glyph glyph-name="eight" unicode="8" horiz-adv-x="602" 
d="M165.5 17q-57.5 27 -87.5 72.5t-30 99.5q0 63 36 108t89 64q-49 19 -80 61t-31 100q0 50 28.5 93t82.5 69t128 26t128 -26t82.5 -69t28.5 -93q0 -58 -31 -100t-80 -61q53 -19 88.5 -64t35.5 -108q0 -54 -30 -99.5t-87 -72.5t-135 -27t-135.5 27zM388.5 132
q32.5 27 32.5 70t-32.5 70.5t-82.5 27.5h-10q-50 0 -82.5 -27.5t-32.5 -70.5t32.5 -70t82.5 -27h10q50 0 82.5 27zM379 439q28 25 28 66t-28 65.5t-73 24.5h-10q-45 0 -73 -24.5t-28 -65.5t28 -66t73 -25h10q45 0 73 25z" />
    <glyph glyph-name="nine" unicode="9" horiz-adv-x="624" 
d="M130.5 41q-65.5 51 -78.5 139h133q9 -35 35 -55t66 -20h10q61 0 101 54t49 161q-27 -38 -71.5 -59t-97.5 -21q-63 0 -115 28.5t-82.5 80.5t-30.5 120t31.5 123t90 86.5t134.5 31.5q127 0 199 -89t72 -249q0 -116 -35 -202.5t-99.5 -133t-151.5 -46.5q-94 0 -159.5 51z
M397 389q35 34 35 86t-34.5 86t-88.5 34h-10q-50 0 -83 -34.5t-33 -85.5t33 -85.5t83 -34.5h10q53 0 88 34z" />
    <glyph glyph-name="colon" unicode=":" horiz-adv-x="290" 
d="M86.5 14.5q-24.5 24.5 -24.5 58.5t24.5 58.5t58.5 24.5q35 0 59 -24t24 -59q0 -34 -24 -58.5t-59 -24.5q-34 0 -58.5 24.5zM86.5 369.5q-24.5 24.5 -24.5 58.5t24.5 58.5t58.5 24.5q35 0 59 -24t24 -59q0 -34 -24 -58.5t-59 -24.5q-34 0 -58.5 24.5z" />
    <glyph glyph-name="semicolon" unicode=";" horiz-adv-x="293" 
d="M40 -75h36q32 0 47 18t15 47v10h-65v145h146v-160q0 -35 -18 -66t-49.5 -50t-70.5 -19h-41v75zM87.5 369.5q-24.5 24.5 -24.5 58.5t24.5 58.5t58.5 24.5q35 0 59 -24t24 -59q0 -34 -24 -58.5t-59 -24.5q-34 0 -58.5 24.5z" />
    <glyph glyph-name="less" unicode="&#x3c;" horiz-adv-x="538" 
d="M50 196v120l425 170v-130l-261 -98l261 -99v-133z" />
    <glyph glyph-name="equal" unicode="=" horiz-adv-x="614" 
d="M60 415h494v-115h-494v115zM60 215h494v-115h-494v115z" />
    <glyph glyph-name="greater" unicode="&#x3e;" horiz-adv-x="539" 
d="M64 157l261 99l-261 98v133l425 -170v-120l-425 -170v130z" />
    <glyph glyph-name="question" unicode="?" horiz-adv-x="503" 
d="M161.5 351.5q17.5 27.5 63.5 46.5l27 11q47 19 71 40.5t24 64.5q0 39 -25.5 64.5t-72.5 25.5q-44 0 -71 -26t-32 -69h-128q3 61 35 106.5t84 70t114 24.5q64 0 115.5 -23.5t81 -67t29.5 -101.5q0 -74 -38.5 -119.5t-102.5 -73.5l-34 -15q-20 -9 -26.5 -18t-6.5 -28v-49
h-125v64q0 45 17.5 72.5zM154.5 14.5q-24.5 24.5 -24.5 58.5t24.5 58.5t58.5 24.5q35 0 59 -24t24 -59q0 -34 -24 -58.5t-59 -24.5q-34 0 -58.5 24.5z" />
    <glyph glyph-name="at" unicode="@" horiz-adv-x="935" 
d="M253.5 -77q-99.5 48 -156 144.5t-56.5 237.5q0 128 61.5 224.5t163 148.5t215.5 52q111 0 205 -49t149.5 -133.5t55.5 -187.5q0 -86 -29.5 -146t-77.5 -89.5t-103 -29.5h-128v55q-18 -30 -49.5 -47.5t-71.5 -17.5q-51 0 -91.5 29t-63 78t-22.5 106t22.5 105.5t63 77.5
t91.5 29q40 0 71.5 -17.5t49.5 -47.5v55h115v-315h4q42 0 70.5 42t28.5 133q0 76 -36 136t-102 94.5t-152 34.5q-88 0 -161 -39.5t-116 -112.5t-43 -168q0 -100 42 -172.5t116.5 -110t171.5 -37.5h255v-110h-265q-128 0 -227.5 48zM526.5 218q21.5 34 21.5 80
q0 44 -21.5 78.5t-58.5 34.5h-5q-35 0 -57.5 -31.5t-22.5 -81.5q0 -51 22 -82.5t58 -31.5h5q37 0 58.5 34z" />
    <glyph glyph-name="A" unicode="A" horiz-adv-x="712" 
d="M279 700h158l270 -700h-143l-59 153h-303l-58 -153h-142zM460 273l-106 277l-106 -277h212z" />
    <glyph glyph-name="B" unicode="B" horiz-adv-x="668" 
d="M82 700h310q66 0 114.5 -24t74.5 -65.5t26 -91.5q0 -62 -32.5 -105t-85.5 -59q58 -12 95.5 -56.5t37.5 -112.5q0 -52 -28 -94.5t-78 -67t-114 -24.5h-320v700zM459.5 142.5q27.5 22.5 27.5 66.5t-27.5 66t-77.5 22h-165v-177h165q50 0 77.5 22.5zM446.5 434.5
q25.5 21.5 25.5 62.5t-25.5 62t-74.5 21h-155v-167h155q49 0 74.5 21.5z" />
    <glyph glyph-name="C" unicode="C" horiz-adv-x="725" 
d="M202 36.5q-76 45.5 -117 127t-41 186.5q0 104 41.5 186t118 128t176.5 46q86 0 152.5 -31.5t106.5 -88t47 -130.5h-137q-12 61 -55.5 95t-108.5 34h-9q-57 0 -101 -30t-68.5 -84t-24.5 -125t24.5 -125t68.5 -83.5t101 -29.5h9q65 0 108 34t55 95h138q-7 -73 -47 -129.5
t-107 -88.5t-152 -32q-102 0 -178 45.5z" />
    <glyph glyph-name="D" unicode="D" horiz-adv-x="722" 
d="M82 700h240q106 0 186 -40t124.5 -118.5t44.5 -191.5t-43 -191.5t-122 -118.5t-185 -40h-245v700zM481.5 173q60.5 53 60.5 177t-60.5 177t-169.5 53h-95v-460h95q109 0 169.5 53z" />
    <glyph glyph-name="E" unicode="E" horiz-adv-x="665" 
d="M82 700h530v-120h-395v-161h335v-120h-335v-179h405v-120h-540v700z" />
    <glyph glyph-name="F" unicode="F" horiz-adv-x="620" 
d="M82 700h510v-120h-375v-180h325v-120h-325v-280h-135v700z" />
    <glyph glyph-name="G" unicode="G" horiz-adv-x="757" 
d="M193.5 37q-72.5 46 -111 127t-38.5 185q0 103 42.5 185.5t119 129t176.5 46.5q83 0 149 -29t107 -82t51 -123h-139q-15 56 -58.5 85t-104.5 29h-9q-57 0 -102 -29.5t-70.5 -84t-25.5 -127.5q0 -72 26 -126.5t72 -83.5t104 -29h8q72 0 121.5 42.5t58.5 109.5h-177v112h213
q43 0 66 -23t23 -66v-285h-116v91q-28 -43 -85.5 -71.5t-128.5 -28.5q-99 0 -171.5 46z" />
    <glyph glyph-name="H" unicode="H" horiz-adv-x="739" 
d="M82 700h135v-290h305v290h135v-700h-135v290h-305v-290h-135v700z" />
    <glyph glyph-name="I" unicode="I" horiz-adv-x="299" 
d="M82 700h135v-700h-135v700z" />
    <glyph glyph-name="J" unicode="J" horiz-adv-x="418" 
d="M17 130h110q43 0 60.5 17.5t17.5 60.5v492h135v-524q0 -85 -46.5 -130.5t-134.5 -45.5h-142v130z" />
    <glyph glyph-name="K" unicode="K" horiz-adv-x="687" 
d="M82 700h135v-314l297 314h167l-275 -290l281 -410h-167l-211 308l-92 -97v-211h-135v700z" />
    <glyph glyph-name="L" unicode="L" horiz-adv-x="627" 
d="M82 700h135v-580h395v-120h-530v700z" />
    <glyph glyph-name="M" unicode="M" horiz-adv-x="929" 
d="M82 700h210l176 -550l170 550h209v-700h-132v552l-174 -552h-148l-179 553v-553h-132v700z" />
    <glyph glyph-name="N" unicode="N" horiz-adv-x="749" 
d="M82 700h175l275 -513v513h135v-700h-175l-275 515v-515h-135v700z" />
    <glyph glyph-name="O" unicode="O" horiz-adv-x="774" 
d="M211.5 35.5q-78.5 45.5 -123.5 127.5t-45 187q0 106 45 187.5t123.5 127t175.5 45.5t175.5 -45.5t123.5 -127t45 -187.5q0 -105 -45 -187t-123.5 -127.5t-175.5 -45.5t-175.5 45.5zM497 141q46 29 71.5 83t25.5 126q0 73 -25.5 126.5t-71.5 82.5t-105 29h-10
q-59 0 -105 -29t-71.5 -82.5t-25.5 -126.5q0 -72 25.5 -126t71.5 -83t105 -29h10q59 0 105 29z" />
    <glyph glyph-name="P" unicode="P" horiz-adv-x="650" 
d="M82 700h315q103 0 164 -58t61 -162t-61 -162.5t-164 -58.5h-180v-259h-135v700zM460 406.5q27 27.5 27 73.5t-27 73t-78 27h-165v-201h165q51 0 78 27.5z" />
    <glyph glyph-name="Q" unicode="Q" horiz-adv-x="774" 
d="M497 141q46 29 71.5 83t25.5 126q0 73 -25.5 126.5t-71.5 82.5t-105 29h-10q-59 0 -105 -29t-71.5 -82.5t-25.5 -126.5q0 -72 25.5 -126t71.5 -83t105 -29h10q59 0 105 29zM358.5 -166.5q-36.5 33.5 -36.5 98.5v64q-81 14 -144.5 62t-99 123.5t-35.5 168.5
q0 106 45 187.5t123.5 127t175.5 45.5t175.5 -45.5t123.5 -127t45 -187.5q0 -93 -35.5 -169t-99.5 -124t-145 -62v-30q0 -32 12 -43.5t43 -11.5h133v-110h-171q-73 0 -109.5 33.5z" />
    <glyph glyph-name="R" unicode="R" horiz-adv-x="689" 
d="M82 700h324q64 0 114.5 -25.5t79.5 -69.5t29 -99q0 -66 -30.5 -110.5t-85.5 -65.5q106 -13 106 -133v-103q0 -59 6 -94h-136q-5 20 -5 66v120q0 42 -19 60.5t-62 18.5h-186v-265h-135v700zM460.5 409.5q30.5 26.5 30.5 73.5t-30 72t-88 25h-156v-197h156q57 0 87.5 26.5z
" />
    <glyph glyph-name="S" unicode="S" horiz-adv-x="640" 
d="M111.5 54q-72.5 64 -75.5 180h134q2 -58 39.5 -91t110.5 -33h9q58 0 92.5 23t34.5 62q0 32 -22 53t-73 31l-120 23q-183 35 -183 198q0 57 32 105t91.5 76.5t139.5 28.5q82 0 142.5 -29t93 -80.5t34.5 -119.5h-135q-6 52 -42 80.5t-96 28.5h-9q-51 0 -84 -25t-33 -61
q0 -33 20.5 -50.5t67.5 -25.5l117 -21q95 -17 146.5 -70t51.5 -137q0 -62 -33 -109.5t-95 -74t-145 -26.5q-138 0 -210.5 64z" />
    <glyph glyph-name="T" unicode="T" horiz-adv-x="652" 
d="M258 580h-242v120h620v-120h-243v-580h-135v580z" />
    <glyph glyph-name="U" unicode="U" horiz-adv-x="702" 
d="M144 56q-68 66 -68 189v455h135v-435q0 -81 33 -118t102 -37h10q69 0 102 37t33 118v435h135v-455q0 -123 -68 -189t-207 -66t-207 66z" />
    <glyph glyph-name="V" unicode="V" horiz-adv-x="716" 
d="M4 700h151l207 -558l199 558h148l-262 -700h-175z" />
    <glyph glyph-name="W" unicode="W" horiz-adv-x="954" 
d="M22 700h139l125 -555l110 555h165l110 -555l121 555h140l-173 -700h-175l-107 510l-108 -510h-175z" />
    <glyph glyph-name="X" unicode="X" horiz-adv-x="648" 
d="M246 359l-227 341h159l148 -223l151 223h152l-227 -336l242 -364h-159l-163 245l-166 -245h-152z" />
    <glyph glyph-name="Y" unicode="Y" horiz-adv-x="661" 
d="M263 280l-260 420h153l179 -294l176 294h148l-261 -420v-280h-135v280z" />
    <glyph glyph-name="Z" unicode="Z" horiz-adv-x="631" 
d="M38 115l388 465h-378v120h535v-115l-388 -465h398v-120h-555v115z" />
    <glyph glyph-name="bracketleft" unicode="[" horiz-adv-x="356" 
d="M82 845h240v-105h-110v-780h110v-105h-240v990z" />
    <glyph glyph-name="backslash" unicode="\" horiz-adv-x="435" 
d="M15 700h135l270 -700h-140z" />
    <glyph glyph-name="bracketright" unicode="]" horiz-adv-x="356" 
d="M274 -145h-240v105h110v780h-110v105h240v-990z" />
    <glyph glyph-name="asciicircum" unicode="^" horiz-adv-x="564" 
d="M220 700h124l175 -415h-139l-99 246l-99 -246h-137z" />
    <glyph glyph-name="underscore" unicode="_" horiz-adv-x="566" 
d="M48 0h470v-105h-470v105z" />
    <glyph glyph-name="grave" unicode="`" horiz-adv-x="235" 
d="M30 700h146l33 -150h-79z" />
    <glyph glyph-name="a" unicode="a" horiz-adv-x="552" 
d="M85.5 32q-47.5 42 -47.5 110q0 72 51 111t151 48l124 11v14q0 38 -26 59t-68 21h-3q-37 0 -61.5 -16t-30.5 -42h-126q6 45 34.5 82t76.5 59t110 22q104 0 161 -53t57 -142v-204q0 -64 7 -112h-120q-6 29 -6 62q-24 -31 -66 -51.5t-93 -20.5q-77 0 -124.5 42zM327.5 124
q36.5 30 36.5 84v11l-114 -9q-89 -7 -89 -62q0 -24 20.5 -39t55.5 -15h3q51 0 87.5 30z" />
    <glyph glyph-name="b" unicode="b" horiz-adv-x="613" 
d="M256.5 11q-40.5 21 -58.5 52v-63h-130v700h130v-258q20 30 58.5 50t88.5 20q66 0 118 -33t81.5 -92.5t29.5 -136.5q0 -76 -29 -135.5t-80.5 -92t-116.5 -32.5q-51 0 -91.5 21zM411 139q34 42 34 112t-33.5 112t-87.5 42h-5q-52 0 -87 -42.5t-35 -111.5t35 -111.5
t87 -42.5h5q53 0 87 42z" />
    <glyph glyph-name="c" unicode="c" horiz-adv-x="553" 
d="M157 21.5q-56 32.5 -87 92t-31 137.5q0 74 32 133t88.5 93t127.5 34q95 0 158.5 -52t72.5 -138h-131q-6 37 -33 60.5t-67 23.5h-3q-53 0 -84 -43t-31 -111t31 -111t84 -43h3q40 0 67 24t33 60h132q-12 -86 -75 -139t-158 -53q-73 0 -129 32.5z" />
    <glyph glyph-name="d" unicode="d" horiz-adv-x="613" 
d="M147.5 23q-51.5 33 -80.5 92t-29 135q0 77 30 136.5t82 92.5t118 33q49 0 88 -20.5t59 -49.5v258h130v-700h-130v63q-18 -31 -58.5 -52t-92.5 -21q-65 0 -116.5 33zM381 139.5q35 42.5 35 111.5t-35 111.5t-87 42.5h-5q-53 0 -87 -42.5t-34 -111.5q0 -70 34 -112t87 -42
h5q52 0 87 42.5z" />
    <glyph glyph-name="e" unicode="e" horiz-adv-x="557" 
d="M158.5 21.5q-55.5 32.5 -87.5 92t-32 136.5q0 76 31 135.5t86.5 92.5t124.5 33q63 0 114 -26.5t82.5 -76.5t37.5 -118q3 -38 2 -81h-352q3 -50 36 -82t79 -32h6q36 0 61.5 18t33.5 45h129q-18 -75 -78 -122t-151 -47q-67 0 -122.5 32.5zM355 379.5q-29 25.5 -72 25.5h-6
q-42 0 -72 -25t-37 -71h220q-4 45 -33 70.5z" />
    <glyph glyph-name="f" unicode="f" horiz-adv-x="392" 
d="M123 395h-102v105h102v46q0 154 154 154h119v-108h-83q-35 0 -47.5 -12.5t-12.5 -46.5v-33h118v-105h-118v-395h-130v395z" />
    <glyph glyph-name="g" unicode="g" horiz-adv-x="610" 
d="M158.5 -197.5q-53.5 21.5 -84.5 60t-35 88.5h131q6 -32 36 -49t77 -17h6q55 0 89.5 31t34.5 92v62q-21 -31 -60 -50t-90 -19q-60 0 -111 30t-81.5 88t-30.5 137q0 80 30.5 137.5t81.5 87.5t111 30q52 0 90.5 -20t59.5 -52v61h130v-501q0 -60 -30 -110t-89.5 -79
t-143.5 -29q-68 0 -121.5 21.5zM378.5 147q34.5 41 34.5 109t-33.5 109t-83.5 41h-6q-53 0 -86.5 -39t-33.5 -111t33 -111t85 -39h6q50 0 84.5 41z" />
    <glyph glyph-name="h" unicode="h" horiz-adv-x="586" 
d="M68 700h130v-262q21 34 59 53.5t89 19.5q82 0 129.5 -50.5t47.5 -137.5v-323h-130v301q0 48 -20.5 74t-61.5 26h-4q-47 0 -78 -36t-31 -92v-273h-130v700z" />
    <glyph glyph-name="i" unicode="i" horiz-adv-x="266" 
d="M68 500h130v-500h-130v500zM76.5 586.5q-23.5 23.5 -23.5 55.5q0 33 23.5 56t56.5 23q32 0 55.5 -23t23.5 -56q0 -32 -23.5 -55.5t-55.5 -23.5q-33 0 -56.5 23.5z" />
    <glyph glyph-name="j" unicode="j" horiz-adv-x="266" 
d="M-90 -90h108q23 0 36.5 14t13.5 41v535h130v-544q0 -75 -39 -115.5t-114 -40.5h-135v110zM76.5 586.5q-23.5 23.5 -23.5 55.5q0 33 23.5 56t56.5 23q32 0 55.5 -23t23.5 -56q0 -32 -23.5 -55.5t-55.5 -23.5q-33 0 -56.5 23.5z" />
    <glyph glyph-name="k" unicode="k" horiz-adv-x="548" 
d="M68 700h130v-386l181 186h159l-192 -199l202 -301h-153l-139 208l-58 -59v-149h-130v700z" />
    <glyph glyph-name="l" unicode="l" horiz-adv-x="266" 
d="M68 700h130v-700h-130v700z" />
    <glyph glyph-name="m" unicode="m" horiz-adv-x="907" 
d="M68 500h130v-62q21 34 57.5 53.5t83.5 19.5q52 0 92.5 -21t65.5 -62q27 40 69 61.5t93 21.5q85 0 135 -51.5t50 -137.5v-322h-130v301q0 47 -22.5 73.5t-63.5 26.5h-4q-44 0 -73.5 -36t-29.5 -92v-273h-130v299q0 48 -22.5 75t-63.5 27h-4q-44 0 -73.5 -36t-29.5 -92
v-273h-130v500z" />
    <glyph glyph-name="n" unicode="n" horiz-adv-x="586" 
d="M68 500h130v-59q21 33 58 51.5t86 18.5q82 0 131.5 -53.5t49.5 -141.5v-316h-130v291q0 52 -22.5 80t-65.5 28h-2q-45 0 -75 -36t-30 -93v-270h-130v500z" />
    <glyph glyph-name="o" unicode="o" horiz-adv-x="586" 
d="M162.5 23.5q-58.5 34.5 -91.5 94t-33 133.5q0 73 33 132.5t91.5 93.5t130.5 34q73 0 131 -34t91 -93.5t33 -132.5q0 -74 -33 -133.5t-91 -94t-131 -34.5q-72 0 -130.5 34.5zM383.5 139q33.5 42 33.5 112q0 69 -33.5 110.5t-88.5 41.5h-5q-54 0 -88 -41.5t-34 -110.5
q0 -70 34 -112t88 -42h5q55 0 88.5 42z" />
    <glyph glyph-name="p" unicode="p" horiz-adv-x="613" 
d="M68 500h130v-63q18 31 58.5 52t91.5 21q65 0 116.5 -32.5t80.5 -92t29 -135.5q0 -77 -29.5 -136.5t-81.5 -92.5t-118 -33q-50 0 -88.5 20t-58.5 50v-258h-130v700zM411.5 137q33.5 42 33.5 112t-34 112t-87 42h-5q-52 0 -87 -42.5t-35 -111.5t35 -111.5t87 -42.5h5
q54 0 87.5 42z" />
    <glyph glyph-name="q" unicode="q" horiz-adv-x="612" 
d="M355.5 8q-38.5 -20 -88.5 -20q-66 0 -118 33t-81.5 92.5t-29.5 136.5q0 76 29 135.5t80.5 92t116.5 32.5q51 0 91.5 -21t58.5 -52v63h130v-700h-130v258q-20 -30 -58.5 -50zM380 137.5q35 42.5 35 111.5t-35 111.5t-87 42.5h-5q-53 0 -87 -42t-34 -112t33.5 -112
t87.5 -42h5q52 0 87 42.5z" />
    <glyph glyph-name="r" unicode="r" horiz-adv-x="391" 
d="M68 500h129v-93q16 45 55 72t93 27h22v-120h-36q-64 0 -98.5 -39t-34.5 -110v-237h-130v500z" />
    <glyph glyph-name="s" unicode="s" horiz-adv-x="498" 
d="M91.5 36.5q-55.5 46.5 -57.5 125.5h123q2 -35 26.5 -53.5t63.5 -18.5h6q33 0 54 14t21 37q0 20 -13.5 31.5t-42.5 17.5l-73 15q-150 31 -150 151q0 70 55 112.5t141 42.5q98 0 153 -46t57 -123h-125q-4 32 -25.5 50t-58.5 18h-7q-32 0 -50 -13.5t-18 -35.5q0 -20 15 -31
t48 -18l82 -17q142 -29 142 -150q0 -45 -25.5 -80.5t-73.5 -55t-112 -19.5q-100 0 -155.5 46.5z" />
    <glyph glyph-name="t" unicode="t" horiz-adv-x="409" 
d="M158 37.5q-37 37.5 -37 108.5v249h-104v105h104v162h129v-162h114v-105h-114v-227q0 -33 12.5 -45.5t46.5 -12.5h69v-110h-111q-72 0 -109 37.5z" />
    <glyph glyph-name="u" unicode="u" horiz-adv-x="576" 
d="M110.5 41.5q-47.5 52.5 -47.5 141.5v317h130v-291q0 -108 82 -108h2q47 0 74 36t27 112v251h130v-500h-130v59q-21 -33 -56 -51.5t-83 -18.5q-81 0 -128.5 52.5z" />
    <glyph glyph-name="v" unicode="v" horiz-adv-x="555" 
d="M10 500h138l132 -404l131 404h134l-173 -500h-189z" />
    <glyph glyph-name="w" unicode="w" horiz-adv-x="785" 
d="M11 500h131l100 -371l81 371h139l87 -368l95 368h126l-143 -500h-146l-88 350l-83 -350h-146z" />
    <glyph glyph-name="x" unicode="x" horiz-adv-x="522" 
d="M189 252l-176 248h145l104 -146l105 146h141l-176 -245l181 -255h-145l-109 153l-110 -153h-141z" />
    <glyph glyph-name="y" unicode="y" horiz-adv-x="556" 
d="M19 -88h96q32 0 49.5 11t27.5 37l28 72l-231 468h146l148 -304l117 304h144l-232 -582q-26 -65 -67 -91.5t-107 -26.5h-119v112z" />
    <glyph glyph-name="z" unicode="z" horiz-adv-x="510" 
d="M40 100l258 285h-253v115h415v-100l-258 -285h273v-115h-435v100z" />
    <glyph glyph-name="braceleft" unicode="{" horiz-adv-x="372" 
d="M143.5 -106.5q-33.5 38.5 -33.5 116.5v205q0 38 -10 51.5t-40 13.5h-25v140h25q30 0 40 13.5t10 51.5v205q0 78 33.5 116.5t101.5 38.5h86v-105h-31q-36 0 -48 -16t-12 -59v-213q0 -46 -22 -68.5t-58 -22.5v-22q36 0 58 -22.5t22 -68.5v-213q0 -43 12 -59t48 -16h31v-105
h-86q-68 0 -101.5 38.5z" />
    <glyph glyph-name="bar" unicode="|" horiz-adv-x="297" 
d="M82 785h133v-870h-133v870z" />
    <glyph glyph-name="braceright" unicode="}" horiz-adv-x="371" 
d="M227.5 807.5q33.5 -38.5 33.5 -116.5v-205q0 -38 10 -51.5t40 -13.5h25v-140h-25q-30 0 -40 -13.5t-10 -51.5v-205q0 -78 -33.5 -116.5t-101.5 -38.5h-86v105h31q36 0 48 16t12 59v213q0 46 22 68.5t58 22.5v22q-36 0 -58 22.5t-22 68.5v213q0 43 -12 59t-48 16h-31v105
h86q68 0 101.5 -38.5z" />
    <glyph glyph-name="asciitilde" unicode="~" horiz-adv-x="502" 
d="M250 303l-17 11q-13 8 -23 12t-21 4q-15 0 -23 -11t-8 -29h-95v26q0 50 27.5 82t81.5 32q48 0 80 -21l17 -11q29 -18 48 -18q15 0 22.5 11t7.5 29h95v-26q0 -50 -27.5 -82t-82.5 -32q-47 0 -82 23z" />
    <glyph glyph-name="uni00A0" unicode="&#xa0;" horiz-adv-x="228" 
 />
    <glyph glyph-name="exclamdown" unicode="&#xa1;" horiz-adv-x="272" 
d="M194.5 485.5q24.5 -24.5 24.5 -58.5t-24.5 -58.5t-58.5 -24.5t-58.5 24.5t-24.5 58.5q0 35 24.5 59t58.5 24t58.5 -24.5zM202 40v-240h-133v240l31 257h71z" />
    <glyph glyph-name="cent" unicode="&#xa2;" horiz-adv-x="554" 
d="M184 8q-69 28 -107.5 91.5t-38.5 151.5q0 71 29.5 128.5t82 92t118.5 38.5l19 110h107l-21 -122q61 -20 99 -66.5t45 -110.5h-131q-6 37 -32 60l-48 -282q32 6 53.5 29t26.5 53h132q-12 -86 -74 -138.5t-157 -53.5l-18 -109h-107zM177.5 183.5q9.5 -30.5 27.5 -50.5
l45 267q-39 -13 -60.5 -53t-21.5 -96q0 -37 9.5 -67.5z" />
    <glyph glyph-name="sterling" unicode="&#xa3;" horiz-adv-x="583" 
d="M42 115h43q32 0 46.5 15t16.5 47l6 87l-112 -27v110l121 29l8 114q8 102 63.5 156t158.5 54h115v-115h-118q-44 0 -64 -21.5t-24 -78.5l-6 -77l111 26v-110l-119 -28l-8 -99q-2 -29 -11.5 -48t-32.5 -34h322v-115h-516v115z" />
    <glyph glyph-name="currency" unicode="&#xa4;" horiz-adv-x="731" 
d="M220 79l-87 -84l-90 90l87 83q-37 63 -37 137q0 72 34 131l-84 84l90 90l86 -83q65 38 144 38q81 0 147 -40l88 85l90 -90l-88 -88q33 -58 33 -127q0 -73 -35 -134l90 -86l-90 -90l-89 85q-66 -40 -146 -40q-77 0 -143 39zM463 196.5q37 41.5 37 108.5q0 65 -37 105
t-96 40h-8q-59 0 -96 -40t-37 -105q0 -67 37 -108.5t96 -41.5h8q59 0 96 41.5z" />
    <glyph glyph-name="yen" unicode="&#xa5;" horiz-adv-x="670" 
d="M268 105l-133 -30v110l133 30v62l-163 -36v110l110 24l-199 325h143l179 -293l176 293h140l-161 -263l73 16v-110l-151 -33l-14 -23v-43l135 30v-110l-135 -30v-134h-133v105z" />
    <glyph glyph-name="brokenbar" unicode="&#xa6;" horiz-adv-x="297" 
d="M83 295h133v-380h-133v380zM83 785h133v-370h-133v370z" />
    <glyph glyph-name="section" unicode="&#xa7;" horiz-adv-x="542" 
d="M79 45h205q52 0 52 41q0 16 -10.5 27t-34.5 20l-139 52q-59 22 -86 54.5t-27 82.5q0 37 24 69.5t67 55.5q-26 19 -39.5 47t-13.5 63q0 70 45.5 106.5t133.5 36.5h188v-105h-180q-27 0 -42 -10t-15 -30q0 -17 10 -28t33 -18l91 -30q83 -27 123 -59.5t40 -92.5
q0 -42 -25 -78t-68 -57q28 -22 43 -47.5t15 -60.5q0 -61 -44.5 -102.5t-136.5 -41.5h-209v105zM357.5 271q13.5 19 13.5 37q0 42 -62 61l-87 28q-26 -11 -38 -29t-12 -38q0 -21 14.5 -32t44.5 -22l88 -33q25 9 38.5 28z" />
    <glyph glyph-name="dieresis" unicode="&#xa8;" horiz-adv-x="391" 
d="M247.5 587.5q-19.5 19.5 -19.5 46.5q0 28 19.5 47t46.5 19q28 0 47.5 -19t19.5 -47q0 -27 -19.5 -46.5t-47.5 -19.5q-27 0 -46.5 19.5zM49.5 587.5q-19.5 19.5 -19.5 46.5q0 28 19.5 47t46.5 19t46.5 -19t19.5 -47q0 -27 -19.5 -46.5t-46.5 -19.5t-46.5 19.5z" />
    <glyph glyph-name="copyright" unicode="&#xa9;" horiz-adv-x="860" 
d="M235.5 14q-89.5 53 -142.5 142.5t-53 194.5q0 106 52.5 195.5t142.5 142t195 52.5q106 0 195.5 -52.5t142 -142t52.5 -195.5q0 -105 -52.5 -195t-142 -142.5t-195.5 -52.5q-105 0 -194.5 53zM579.5 89q68.5 41 108.5 110.5t40 151.5t-40 151.5t-108.5 110.5t-149.5 41
t-149.5 -41t-108.5 -110.5t-40 -151.5t40 -151.5t108.5 -110.5t149.5 -41t149.5 41zM299 207q-44 59 -44 144t44 144t131 59q83 0 125 -42t42 -107h-108q-8 57 -57 57h-4q-32 0 -48 -26t-16 -85t16 -85t48 -26h4q50 0 58 60h107q0 -66 -42 -109t-125 -43q-87 0 -131 59z" />
    <glyph glyph-name="ordfeminine" unicode="&#xaa;" horiz-adv-x="338" 
d="M50.5 431q-26.5 24 -26.5 64q0 41 30.5 63t83.5 27l70 6v9q0 19 -11.5 28.5t-30.5 9.5h-3q-17 0 -28.5 -7.5t-13.5 -20.5h-88q4 43 39.5 69t94.5 26q64 0 97.5 -29.5t33.5 -82.5v-116q0 -26 4 -64h-84q-3 13 -5 35q-14 -19 -39 -30t-54 -11q-43 0 -69.5 24zM192 488.5
q17 14.5 17 39.5v8l-57 -6q-38 -5 -38 -30q0 -12 9 -19t24 -7h3q25 0 42 14.5z" />
    <glyph glyph-name="guillemotleft" unicode="&#xab;" horiz-adv-x="602" 
d="M271 285l145 215h150l-145 -215l145 -215h-150zM32 285l145 215h150l-145 -215l145 -215h-150z" />
    <glyph glyph-name="logicalnot" unicode="&#xac;" horiz-adv-x="611" 
d="M408 250h-349v115h482v-250h-133v135z" />
    <glyph glyph-name="registered" unicode="&#xae;" horiz-adv-x="860" 
d="M235.5 14q-89.5 53 -142.5 142.5t-53 194.5q0 106 52.5 195.5t142.5 142t195 52.5q106 0 195.5 -52.5t142 -142t52.5 -195.5q0 -105 -52.5 -195t-142 -142.5t-195.5 -52.5q-105 0 -194.5 53zM579.5 89q68.5 41 108.5 110.5t40 151.5t-40 151.5t-108.5 110.5t-149.5 41
t-149.5 -41t-108.5 -110.5t-40 -151.5t40 -151.5t108.5 -110.5t149.5 -41t149.5 41zM283 544h181q61 0 96.5 -30t35.5 -78q0 -34 -17.5 -58t-47.5 -36q31 -6 45.5 -25.5t14.5 -54.5v-44q0 -36 5 -60h-105q-4 16 -4 47v45q0 22 -9.5 32t-32.5 10h-58v-134h-104v386zM480 388
q12 10 12 29t-12 28.5t-34 9.5h-59v-77h59q22 0 34 10z" />
    <glyph glyph-name="macron" unicode="&#xaf;" horiz-adv-x="365" 
d="M30 670h305v-105h-305v105z" />
    <glyph glyph-name="degree" unicode="&#xb0;" horiz-adv-x="450" 
d="M131 364.5q-42 24.5 -66.5 66.5t-24.5 94t24.5 94t66.5 66.5t94 24.5t94 -24.5t66.5 -66.5t24.5 -94t-24.5 -94t-66.5 -66.5t-94 -24.5t-94 24.5zM275.5 470q20.5 22 20.5 55q0 31 -20.5 51.5t-50.5 20.5t-50.5 -20.5t-20.5 -51.5q0 -33 20.5 -55t50.5 -22t50.5 22z" />
    <glyph glyph-name="plusminus" unicode="&#xb1;" horiz-adv-x="612" 
d="M239 275h-180v115h180v110h133v-110h181v-115h-181v-105h-133v105zM59 114h494v-114h-494v114z" />
    <glyph glyph-name="uni00B2" unicode="&#xb2;" horiz-adv-x="360" 
d="M30 500l144 123q26 21 38 37t12 35q0 17 -12.5 28t-31.5 11h-4q-19 0 -32 -13.5t-14 -35.5h-100q3 60 45.5 95t106.5 35t103.5 -34t39.5 -83q0 -36 -18 -62t-53 -56l-96 -81h170v-84h-298v85z" />
    <glyph glyph-name="uni00B3" unicode="&#xb3;" horiz-adv-x="362" 
d="M68 442q-43 32 -43 88h100q0 -18 14 -29t34 -11h5q22 0 36.5 11.5t14.5 31.5t-14.5 31t-35.5 11h-38v79h38q20 0 34 11t14 30q0 18 -13 29t-33 11h-5q-18 0 -31 -10.5t-13 -26.5h-101q0 56 42 86.5t106 30.5q63 0 105.5 -30t42.5 -81q0 -31 -16.5 -54.5t-44.5 -34.5
q29 -10 46.5 -32.5t17.5 -55.5q0 -55 -44.5 -86t-109.5 -31t-108 32z" />
    <glyph glyph-name="acute" unicode="&#xb4;" horiz-adv-x="235" 
d="M59 700h146l-100 -150h-79z" />
    <glyph glyph-name="uni00B5" unicode="&#xb5;" horiz-adv-x="608" 
d="M68 500h130v-305q0 -48 19.5 -74t54.5 -26h8q43 0 73 37t30 90v278h130v-335q0 -34 10.5 -44.5t44.5 -10.5h10v-110h-65q-89 0 -110 63q-23 -36 -61.5 -54.5t-73.5 -18.5q-45 0 -70 16v-206h-130v700z" />
    <glyph glyph-name="paragraph" unicode="&#xb6;" horiz-adv-x="687" 
d="M233 274h-4q-56 0 -104.5 29t-76.5 78t-28 106q0 58 29 106.5t77.5 77.5t106.5 29h415v-105h-70v-795h-130v795h-85v-795h-130v474z" />
    <glyph glyph-name="periodcentered" unicode="&#xb7;" horiz-adv-x="266" 
d="M74.5 289.5q-24.5 24.5 -24.5 58.5t24.5 58.5t58.5 24.5q35 0 59 -24t24 -59q0 -34 -24 -58.5t-59 -24.5q-34 0 -58.5 24.5z" />
    <glyph glyph-name="cedilla" unicode="&#xb8;" horiz-adv-x="260" 
d="M30 -170h85q19 0 29.5 7.5t10.5 22.5q0 12 -8.5 21t-26.5 9h-55v135h70v-70q40 0 67.5 -24.5t27.5 -70.5q0 -48 -33.5 -76.5t-86.5 -28.5h-80v75z" />
    <glyph glyph-name="uni00B9" unicode="&#xb9;" horiz-adv-x="263" 
d="M114 641h-97v64q50 2 80.5 30t39.5 75h75v-395h-98v226z" />
    <glyph glyph-name="ordmasculine" unicode="&#xba;" horiz-adv-x="357" 
d="M67.5 450q-42.5 42 -42.5 106t42.5 106.5t111.5 42.5t111 -42.5t42 -106.5t-42 -106t-111 -42t-111.5 42zM221.5 504.5q15.5 19.5 15.5 51.5t-15.5 52t-41.5 20h-3q-26 0 -42 -20t-16 -52t16 -51.5t42 -19.5h3q26 0 41.5 19.5z" />
    <glyph glyph-name="guillemotright" unicode="&#xbb;" horiz-adv-x="602" 
d="M331 285l-145 -215h-150l145 215l-145 215h150zM570 285l-145 -215h-150l145 215l-145 215h150z" />
    <glyph glyph-name="onequarter" unicode="&#xbc;" horiz-adv-x="780" 
d="M114 531h-97v64q50 2 80.5 30t39.5 75h75v-395h-98v226zM498 700h117l-420 -700h-117zM606 73h-192v91l178 231h105v-245h56v-77h-56v-73h-91v73zM606 150v137l-105 -137h105z" />
    <glyph glyph-name="onehalf" unicode="&#xbd;" horiz-adv-x="781" 
d="M114 531h-97v64q50 2 80.5 30t39.5 75h75v-395h-98v226zM498 700h117l-420 -700h-117zM449 85l144 123q26 21 38 37t12 35q0 17 -12.5 28t-31.5 11h-4q-19 0 -32 -13.5t-14 -35.5h-100q3 60 45.5 95t106.5 35t103.5 -34t39.5 -83q0 -36 -18 -62t-53 -56l-96 -81h170v-84
h-298v85z" />
    <glyph glyph-name="threequarters" unicode="&#xbe;" horiz-adv-x="868" 
d="M68 332q-43 32 -43 88h100q0 -18 14 -29t34 -11h5q22 0 36.5 11.5t14.5 31.5t-14.5 31t-35.5 11h-38v79h38q20 0 34 11t14 30q0 18 -13 29t-33 11h-5q-18 0 -31 -10.5t-13 -26.5h-101q0 56 42 86.5t106 30.5q63 0 105.5 -30t42.5 -81q0 -31 -16.5 -54.5t-44.5 -34.5
q29 -10 46.5 -32.5t17.5 -55.5q0 -55 -44.5 -86t-109.5 -31t-108 32zM586 700h117l-420 -700h-117zM694 73h-192v91l178 231h105v-245h56v-77h-56v-73h-91v73zM694 150v137l-105 -137h105z" />
    <glyph glyph-name="questiondown" unicode="&#xbf;" horiz-adv-x="499" 
d="M339.5 150.5q-17.5 -27.5 -63.5 -46.5l-27 -11q-47 -19 -71 -40.5t-24 -64.5q0 -39 25.5 -64.5t72.5 -25.5q44 0 71 26t32 69h128q-3 -61 -35 -106.5t-84 -70t-114 -24.5q-64 0 -115.5 23.5t-81 67t-29.5 101.5q0 74 38.5 119.5t102.5 73.5l34 15q20 9 26.5 18t6.5 28v49
h125v-64q0 -45 -17.5 -72.5zM346.5 487.5q24.5 -24.5 24.5 -58.5t-24.5 -58.5t-58.5 -24.5t-58.5 24.5t-24.5 58.5q0 35 24.5 59t58.5 24t58.5 -24.5z" />
    <glyph glyph-name="Agrave" unicode="&#xc0;" horiz-adv-x="712" 
d="M279 700h158l270 -700h-143l-59 153h-303l-58 -153h-142zM460 273l-106 277l-106 -277h212zM212 890h155l40 -145h-90z" />
    <glyph glyph-name="Aacute" unicode="&#xc1;" horiz-adv-x="712" 
d="M279 700h158l270 -700h-143l-59 153h-303l-58 -153h-142zM460 273l-106 277l-106 -277h212zM353 890h155l-105 -145h-90z" />
    <glyph glyph-name="Acircumflex" unicode="&#xc2;" horiz-adv-x="712" 
d="M279 700h158l270 -700h-143l-59 153h-303l-58 -153h-142zM460 273l-106 277l-106 -277h212zM288 890h140l120 -145h-110l-80 58l-80 -58h-110z" />
    <glyph glyph-name="Atilde" unicode="&#xc3;" horiz-adv-x="712" 
d="M279 700h158l270 -700h-143l-59 153h-303l-58 -153h-142zM460 273l-106 277l-106 -277h212zM357 774l-18 10q-27 16 -45 16q-15 0 -23 -11t-8 -29h-95v26q0 47 32.5 80.5t79.5 33.5q25 0 40.5 -5t34.5 -15l18 -10q34 -20 49 -20t22.5 11t7.5 29h95v-26q0 -50 -27.5 -82
t-82.5 -32q-38 0 -80 24z" />
    <glyph glyph-name="Adieresis" unicode="&#xc4;" horiz-adv-x="712" 
d="M279 700h158l270 -700h-143l-59 153h-303l-58 -153h-142zM460 273l-106 277l-106 -277h212zM413.5 783.5q-19.5 19.5 -19.5 46.5q0 28 19.5 47t47.5 19q27 0 46.5 -19t19.5 -47q0 -27 -19.5 -46.5t-46.5 -19.5q-28 0 -47.5 19.5zM209.5 783.5q-19.5 19.5 -19.5 46.5
q0 28 19.5 47t46.5 19q28 0 47.5 -19t19.5 -47q0 -27 -19.5 -46.5t-47.5 -19.5q-27 0 -46.5 19.5z" />
    <glyph glyph-name="Aring" unicode="&#xc5;" horiz-adv-x="712" 
d="M279 700h158l270 -700h-143l-59 153h-303l-58 -153h-142zM460 273l-106 277l-106 -277h212zM281 762q-33 32 -33 78q0 28 15.5 53.5t41 41t53.5 15.5q46 0 78 -33t32 -77q0 -47 -31.5 -78.5t-78.5 -31.5q-44 0 -77 32zM386.5 812q11.5 12 11.5 28t-11.5 28t-27.5 12
t-28 -12t-12 -28t12 -28t28 -12t27.5 12z" />
    <glyph glyph-name="AE" unicode="&#xc6;" horiz-adv-x="978" 
d="M346 700h548v-120h-343l24 -161h289v-120h-274l26 -179h338v-120h-455l-24 165h-264l-83 -165h-147zM458 285l-41 287l-145 -287h186z" />
    <glyph glyph-name="Ccedilla" unicode="&#xc7;" horiz-adv-x="725" 
d="M304 -170h85q19 0 29.5 7.5t10.5 22.5q0 12 -8.5 21t-26.5 9h-55v103q-90 9 -157 56.5t-102.5 125t-35.5 175.5q0 104 41.5 186t118 128t176.5 46q86 0 152.5 -31.5t106.5 -88t47 -130.5h-137q-12 61 -55.5 95t-108.5 34h-9q-57 0 -101 -30t-68.5 -84t-24.5 -125
t24.5 -125t68.5 -83.5t101 -29.5h9q65 0 108 34t55 95h138q-7 -69 -42.5 -123.5t-96 -87.5t-138.5 -38v-37q40 0 67.5 -24.5t27.5 -70.5q0 -48 -33.5 -76.5t-86.5 -28.5h-80v75z" />
    <glyph glyph-name="Egrave" unicode="&#xc8;" horiz-adv-x="665" 
d="M82 700h530v-120h-395v-161h335v-120h-335v-179h405v-120h-540v700zM201 890h155l40 -145h-90z" />
    <glyph glyph-name="Eacute" unicode="&#xc9;" horiz-adv-x="665" 
d="M82 700h530v-120h-395v-161h335v-120h-335v-179h405v-120h-540v700zM342 890h155l-105 -145h-90z" />
    <glyph glyph-name="Ecircumflex" unicode="&#xca;" horiz-adv-x="665" 
d="M82 700h530v-120h-395v-161h335v-120h-335v-179h405v-120h-540v700zM277 890h140l120 -145h-110l-80 58l-80 -58h-110z" />
    <glyph glyph-name="Edieresis" unicode="&#xcb;" horiz-adv-x="665" 
d="M82 700h530v-120h-395v-161h335v-120h-335v-179h405v-120h-540v700zM402.5 783.5q-19.5 19.5 -19.5 46.5q0 28 19.5 47t47.5 19q27 0 46.5 -19t19.5 -47q0 -27 -19.5 -46.5t-46.5 -19.5q-28 0 -47.5 19.5zM198.5 783.5q-19.5 19.5 -19.5 46.5q0 28 19.5 47t46.5 19
q28 0 47.5 -19t19.5 -47q0 -27 -19.5 -46.5t-47.5 -19.5q-27 0 -46.5 19.5z" />
    <glyph glyph-name="Igrave" unicode="&#xcc;" horiz-adv-x="299" 
d="M82 700h135v-700h-135v700zM4 890h155l40 -145h-90z" />
    <glyph glyph-name="Iacute" unicode="&#xcd;" horiz-adv-x="299" 
d="M82 700h135v-700h-135v700zM145 890h155l-105 -145h-90z" />
    <glyph glyph-name="Icircumflex" unicode="&#xce;" horiz-adv-x="299" 
d="M82 700h135v-700h-135v700zM80 890h140l120 -145h-110l-80 58l-80 -58h-110z" />
    <glyph glyph-name="Idieresis" unicode="&#xcf;" horiz-adv-x="299" 
d="M82 700h135v-700h-135v700zM205.5 783.5q-19.5 19.5 -19.5 46.5q0 28 19.5 47t47.5 19q27 0 46.5 -19t19.5 -47q0 -27 -19.5 -46.5t-46.5 -19.5q-28 0 -47.5 19.5zM1.5 783.5q-19.5 19.5 -19.5 46.5q0 28 19.5 47t46.5 19q28 0 47.5 -19t19.5 -47q0 -27 -19.5 -46.5
t-47.5 -19.5q-27 0 -46.5 19.5z" />
    <glyph glyph-name="Eth" unicode="&#xd0;" horiz-adv-x="765" 
d="M125 290h-88v120h88v290h240q106 0 186 -40t124.5 -118.5t44.5 -191.5t-43 -191.5t-122 -118.5t-185 -40h-245v290zM524.5 173q60.5 53 60.5 177t-60.5 177t-169.5 53h-95v-170h137v-120h-137v-170h95q109 0 169.5 53z" />
    <glyph glyph-name="Ntilde" unicode="&#xd1;" horiz-adv-x="749" 
d="M82 700h175l275 -513v513h135v-700h-175l-275 515v-515h-135v700zM375 774l-18 10q-27 16 -45 16q-15 0 -23 -11t-8 -29h-95v26q0 47 32.5 80.5t79.5 33.5q25 0 40.5 -5t34.5 -15l18 -10q34 -20 49 -20t22.5 11t7.5 29h95v-26q0 -50 -27.5 -82t-82.5 -32q-38 0 -80 24z
" />
    <glyph glyph-name="Ograve" unicode="&#xd2;" horiz-adv-x="774" 
d="M211.5 35.5q-78.5 45.5 -123.5 127.5t-45 187q0 106 45 187.5t123.5 127t175.5 45.5t175.5 -45.5t123.5 -127t45 -187.5q0 -105 -45 -187t-123.5 -127.5t-175.5 -45.5t-175.5 45.5zM497 141q46 29 71.5 83t25.5 126q0 73 -25.5 126.5t-71.5 82.5t-105 29h-10
q-59 0 -105 -29t-71.5 -82.5t-25.5 -126.5q0 -72 25.5 -126t71.5 -83t105 -29h10q59 0 105 29zM241 890h155l40 -145h-90z" />
    <glyph glyph-name="Oacute" unicode="&#xd3;" horiz-adv-x="774" 
d="M211.5 35.5q-78.5 45.5 -123.5 127.5t-45 187q0 106 45 187.5t123.5 127t175.5 45.5t175.5 -45.5t123.5 -127t45 -187.5q0 -105 -45 -187t-123.5 -127.5t-175.5 -45.5t-175.5 45.5zM497 141q46 29 71.5 83t25.5 126q0 73 -25.5 126.5t-71.5 82.5t-105 29h-10
q-59 0 -105 -29t-71.5 -82.5t-25.5 -126.5q0 -72 25.5 -126t71.5 -83t105 -29h10q59 0 105 29zM382 890h155l-105 -145h-90z" />
    <glyph glyph-name="Ocircumflex" unicode="&#xd4;" horiz-adv-x="774" 
d="M211.5 35.5q-78.5 45.5 -123.5 127.5t-45 187q0 106 45 187.5t123.5 127t175.5 45.5t175.5 -45.5t123.5 -127t45 -187.5q0 -105 -45 -187t-123.5 -127.5t-175.5 -45.5t-175.5 45.5zM497 141q46 29 71.5 83t25.5 126q0 73 -25.5 126.5t-71.5 82.5t-105 29h-10
q-59 0 -105 -29t-71.5 -82.5t-25.5 -126.5q0 -72 25.5 -126t71.5 -83t105 -29h10q59 0 105 29zM317 890h140l120 -145h-110l-80 58l-80 -58h-110z" />
    <glyph glyph-name="Otilde" unicode="&#xd5;" horiz-adv-x="774" 
d="M211.5 35.5q-78.5 45.5 -123.5 127.5t-45 187q0 106 45 187.5t123.5 127t175.5 45.5t175.5 -45.5t123.5 -127t45 -187.5q0 -105 -45 -187t-123.5 -127.5t-175.5 -45.5t-175.5 45.5zM497 141q46 29 71.5 83t25.5 126q0 73 -25.5 126.5t-71.5 82.5t-105 29h-10
q-59 0 -105 -29t-71.5 -82.5t-25.5 -126.5q0 -72 25.5 -126t71.5 -83t105 -29h10q59 0 105 29zM386 774l-18 10q-27 16 -45 16q-15 0 -23 -11t-8 -29h-95v26q0 47 32.5 80.5t79.5 33.5q25 0 40.5 -5t34.5 -15l18 -10q34 -20 49 -20t22.5 11t7.5 29h95v-26q0 -50 -27.5 -82
t-82.5 -32q-38 0 -80 24z" />
    <glyph glyph-name="Odieresis" unicode="&#xd6;" horiz-adv-x="774" 
d="M211.5 35.5q-78.5 45.5 -123.5 127.5t-45 187q0 106 45 187.5t123.5 127t175.5 45.5t175.5 -45.5t123.5 -127t45 -187.5q0 -105 -45 -187t-123.5 -127.5t-175.5 -45.5t-175.5 45.5zM497 141q46 29 71.5 83t25.5 126q0 73 -25.5 126.5t-71.5 82.5t-105 29h-10
q-59 0 -105 -29t-71.5 -82.5t-25.5 -126.5q0 -72 25.5 -126t71.5 -83t105 -29h10q59 0 105 29zM442.5 783.5q-19.5 19.5 -19.5 46.5q0 28 19.5 47t47.5 19q27 0 46.5 -19t19.5 -47q0 -27 -19.5 -46.5t-46.5 -19.5q-28 0 -47.5 19.5zM238.5 783.5q-19.5 19.5 -19.5 46.5
q0 28 19.5 47t46.5 19q28 0 47.5 -19t19.5 -47q0 -27 -19.5 -46.5t-47.5 -19.5q-27 0 -46.5 19.5z" />
    <glyph glyph-name="multiply" unicode="&#xd7;" horiz-adv-x="555" 
d="M51 113l144 144l-145 145l83 83l145 -145l144 144l81 -82l-143 -143l144 -145l-83 -83l-144 145l-145 -145z" />
    <glyph glyph-name="Oslash" unicode="&#xd8;" horiz-adv-x="778" 
d="M216 34l-62 -79l-95 74l66 83q-79 98 -79 238q0 106 45 187.5t123.5 127t175.5 45.5q95 0 172 -43l62 78l95 -74l-64 -82q38 -46 58.5 -107t20.5 -132q0 -105 -45 -187t-123.5 -127.5t-175.5 -45.5q-95 0 -174 44zM500 141q46 29 71.5 83t25.5 126q0 75 -28 131
l-275 -348q41 -21 91 -21h10q59 0 105 29zM210 221l274 347q-40 20 -89 20h-10q-59 0 -105 -29t-71.5 -82.5t-25.5 -126.5t27 -129z" />
    <glyph glyph-name="Ugrave" unicode="&#xd9;" horiz-adv-x="702" 
d="M144 56q-68 66 -68 189v455h135v-435q0 -81 33 -118t102 -37h10q69 0 102 37t33 118v435h135v-455q0 -123 -68 -189t-207 -66t-207 66zM205 890h155l40 -145h-90z" />
    <glyph glyph-name="Uacute" unicode="&#xda;" horiz-adv-x="702" 
d="M144 56q-68 66 -68 189v455h135v-435q0 -81 33 -118t102 -37h10q69 0 102 37t33 118v435h135v-455q0 -123 -68 -189t-207 -66t-207 66zM346 890h155l-105 -145h-90z" />
    <glyph glyph-name="Ucircumflex" unicode="&#xdb;" horiz-adv-x="702" 
d="M144 56q-68 66 -68 189v455h135v-435q0 -81 33 -118t102 -37h10q69 0 102 37t33 118v435h135v-455q0 -123 -68 -189t-207 -66t-207 66zM281 890h140l120 -145h-110l-80 58l-80 -58h-110z" />
    <glyph glyph-name="Udieresis" unicode="&#xdc;" horiz-adv-x="702" 
d="M144 56q-68 66 -68 189v455h135v-435q0 -81 33 -118t102 -37h10q69 0 102 37t33 118v435h135v-455q0 -123 -68 -189t-207 -66t-207 66zM406.5 783.5q-19.5 19.5 -19.5 46.5q0 28 19.5 47t47.5 19q27 0 46.5 -19t19.5 -47q0 -27 -19.5 -46.5t-46.5 -19.5q-28 0 -47.5 19.5
zM202.5 783.5q-19.5 19.5 -19.5 46.5q0 28 19.5 47t46.5 19q28 0 47.5 -19t19.5 -47q0 -27 -19.5 -46.5t-47.5 -19.5q-27 0 -46.5 19.5z" />
    <glyph glyph-name="Yacute" unicode="&#xdd;" horiz-adv-x="661" 
d="M263 280l-260 420h153l179 -294l176 294h148l-261 -420v-280h-135v280zM329 890h155l-105 -145h-90z" />
    <glyph glyph-name="Thorn" unicode="&#xde;" horiz-adv-x="661" 
d="M82 700h135v-129h180q103 0 164 -58t61 -162t-61 -162.5t-164 -58.5h-180v-130h-135v700zM382 250q51 0 78 27.5t27 73.5t-27 73t-78 27h-165v-201h165z" />
    <glyph glyph-name="germandbls" unicode="&#xdf;" horiz-adv-x="556" 
d="M126 654q58 56 158 56q61 0 108.5 -24t74 -65t26.5 -91q0 -115 -116 -162q58 -10 99.5 -57.5t41.5 -112.5q0 -61 -29.5 -106t-81 -68.5t-116.5 -23.5h-48v105h18q60 0 93.5 28t33.5 80q0 50 -35.5 74.5t-91.5 24.5h-18v105h18q44 0 75.5 26t31.5 72q0 43 -23 66.5
t-58 23.5h-6q-36 0 -59.5 -27t-23.5 -80v-683h-130v688q0 95 58 151z" />
    <glyph glyph-name="agrave" unicode="&#xe0;" horiz-adv-x="552" 
d="M85.5 32q-47.5 42 -47.5 110q0 72 51 111t151 48l124 11v14q0 38 -26 59t-68 21h-3q-37 0 -61.5 -16t-30.5 -42h-126q6 45 34.5 82t76.5 59t110 22q104 0 161 -53t57 -142v-204q0 -64 7 -112h-120q-6 29 -6 62q-24 -31 -66 -51.5t-93 -20.5q-77 0 -124.5 42zM327.5 124
q36.5 30 36.5 84v11l-114 -9q-89 -7 -89 -62q0 -24 20.5 -39t55.5 -15h3q51 0 87.5 30zM136 700h146l33 -150h-79z" />
    <glyph glyph-name="aacute" unicode="&#xe1;" horiz-adv-x="552" 
d="M85.5 32q-47.5 42 -47.5 110q0 72 51 111t151 48l124 11v14q0 38 -26 59t-68 21h-3q-37 0 -61.5 -16t-30.5 -42h-126q6 45 34.5 82t76.5 59t110 22q104 0 161 -53t57 -142v-204q0 -64 7 -112h-120q-6 29 -6 62q-24 -31 -66 -51.5t-93 -20.5q-77 0 -124.5 42zM327.5 124
q36.5 30 36.5 84v11l-114 -9q-89 -7 -89 -62q0 -24 20.5 -39t55.5 -15h3q51 0 87.5 30zM259 700h146l-100 -150h-79z" />
    <glyph glyph-name="acircumflex" unicode="&#xe2;" horiz-adv-x="552" 
d="M85.5 32q-47.5 42 -47.5 110q0 72 51 111t151 48l124 11v14q0 38 -26 59t-68 21h-3q-37 0 -61.5 -16t-30.5 -42h-126q6 45 34.5 82t76.5 59t110 22q104 0 161 -53t57 -142v-204q0 -64 7 -112h-120q-6 29 -6 62q-24 -31 -66 -51.5t-93 -20.5q-77 0 -124.5 42zM327.5 124
q36.5 30 36.5 84v11l-114 -9q-89 -7 -89 -62q0 -24 20.5 -39t55.5 -15h3q51 0 87.5 30zM191 700h160l100 -150h-80l-100 72l-100 -72h-80z" />
    <glyph glyph-name="atilde" unicode="&#xe3;" horiz-adv-x="552" 
d="M85.5 32q-47.5 42 -47.5 110q0 72 51 111t151 48l124 11v14q0 38 -26 59t-68 21h-3q-37 0 -61.5 -16t-30.5 -42h-126q6 45 34.5 82t76.5 59t110 22q104 0 161 -53t57 -142v-204q0 -64 7 -112h-120q-6 29 -6 62q-24 -31 -66 -51.5t-93 -20.5q-77 0 -124.5 42zM327.5 124
q36.5 30 36.5 84v11l-114 -9q-89 -7 -89 -62q0 -24 20.5 -39t55.5 -15h3q51 0 87.5 30zM270 579l-18 11q-13 8 -22 11.5t-20 3.5q-13 0 -23.5 -11.5t-10.5 -28.5h-95v26q0 47 32.5 80.5t79.5 33.5q44 0 75 -20l18 -11q32 -19 49 -19q13 0 21.5 11.5t8.5 28.5h95v-26
q0 -46 -33 -80t-77 -34q-40 0 -80 24z" />
    <glyph glyph-name="adieresis" unicode="&#xe4;" horiz-adv-x="552" 
d="M85.5 32q-47.5 42 -47.5 110q0 72 51 111t151 48l124 11v14q0 38 -26 59t-68 21h-3q-37 0 -61.5 -16t-30.5 -42h-126q6 45 34.5 82t76.5 59t110 22q104 0 161 -53t57 -142v-204q0 -64 7 -112h-120q-6 29 -6 62q-24 -31 -66 -51.5t-93 -20.5q-77 0 -124.5 42zM327.5 124
q36.5 30 36.5 84v11l-114 -9q-89 -7 -89 -62q0 -24 20.5 -39t55.5 -15h3q51 0 87.5 30zM323.5 587.5q-19.5 19.5 -19.5 46.5q0 28 19.5 47t46.5 19q28 0 47.5 -19t19.5 -47q0 -27 -19.5 -46.5t-47.5 -19.5q-27 0 -46.5 19.5zM125.5 587.5q-19.5 19.5 -19.5 46.5
q0 28 19.5 47t46.5 19t46.5 -19t19.5 -47q0 -27 -19.5 -46.5t-46.5 -19.5t-46.5 19.5z" />
    <glyph glyph-name="aring" unicode="&#xe5;" horiz-adv-x="552" 
d="M85.5 32q-47.5 42 -47.5 110q0 72 51 111t151 48l124 11v14q0 38 -26 59t-68 21h-3q-37 0 -61.5 -16t-30.5 -42h-126q6 45 34.5 82t76.5 59t110 22q104 0 161 -53t57 -142v-204q0 -64 7 -112h-120q-6 29 -6 62q-24 -31 -66 -51.5t-93 -20.5q-77 0 -124.5 42zM327.5 124
q36.5 30 36.5 84v11l-114 -9q-89 -7 -89 -62q0 -24 20.5 -39t55.5 -15h3q51 0 87.5 30zM197.5 570.5q-31.5 30.5 -31.5 74.5q0 41 32 73t73 32q44 0 74.5 -31.5t30.5 -73.5q0 -45 -30 -75t-75 -30q-42 0 -73.5 30.5zM302.5 614q12.5 13 12.5 31t-12.5 31t-30.5 13t-31 -13
t-13 -31t13 -31t31 -13t30.5 13z" />
    <glyph glyph-name="ae" unicode="&#xe6;" horiz-adv-x="882" 
d="M86 31q-48 42 -48 111q0 145 201 160l125 10v14q0 39 -26 61t-68 22h-3q-37 0 -61.5 -16.5t-30.5 -44.5h-126q6 45 34.5 82t76.5 59t110 22q56 0 98.5 -17.5t69.5 -48.5q33 32 75.5 49t92.5 17q63 0 114.5 -26.5t83 -77t37.5 -118.5q2 -26 2 -41l-1 -30h-352
q3 -57 36 -92t79 -35h6q36 0 61.5 19t33.5 48h129q-18 -75 -78 -122t-151 -47q-62 0 -111 23.5t-81 67.5q-29 -40 -79 -65.5t-122 -25.5q-79 0 -127 42zM327.5 122q36.5 31 36.5 86v14l-114 -9q-44 -4 -66.5 -21t-22.5 -44q0 -25 20.5 -41t55.5 -16h3q51 0 87.5 31z
M679.5 383q-29.5 27 -71.5 27h-6q-42 0 -72 -26.5t-37 -72.5h220q-4 45 -33.5 72z" />
    <glyph glyph-name="ccedilla" unicode="&#xe7;" horiz-adv-x="553" 
d="M215 -170h85q19 0 29.5 7.5t10.5 22.5q0 12 -8.5 21t-26.5 9h-55v101q-97 12 -154 81.5t-57 178.5q0 74 32 133t88.5 93t127.5 34q95 0 158.5 -52t72.5 -138h-131q-6 37 -33 60.5t-67 23.5h-3q-53 0 -84 -43t-31 -111t31 -111t84 -43h3q40 0 67 24t33 60h132
q-11 -78 -64 -129t-135 -61v-36q40 0 67.5 -24.5t27.5 -70.5q0 -48 -33.5 -76.5t-86.5 -28.5h-80v75z" />
    <glyph glyph-name="egrave" unicode="&#xe8;" horiz-adv-x="557" 
d="M158.5 21.5q-55.5 32.5 -87.5 92t-32 136.5q0 76 31 135.5t86.5 92.5t124.5 33q63 0 114 -26.5t82.5 -76.5t37.5 -118q3 -38 2 -81h-352q3 -50 36 -82t79 -32h6q36 0 61.5 18t33.5 45h129q-18 -75 -78 -122t-151 -47q-67 0 -122.5 32.5zM355 379.5q-29 25.5 -72 25.5h-6
q-42 0 -72 -25t-37 -71h220q-4 45 -33 70.5zM146 700h146l33 -150h-79z" />
    <glyph glyph-name="eacute" unicode="&#xe9;" horiz-adv-x="557" 
d="M158.5 21.5q-55.5 32.5 -87.5 92t-32 136.5q0 76 31 135.5t86.5 92.5t124.5 33q63 0 114 -26.5t82.5 -76.5t37.5 -118q3 -38 2 -81h-352q3 -50 36 -82t79 -32h6q36 0 61.5 18t33.5 45h129q-18 -75 -78 -122t-151 -47q-67 0 -122.5 32.5zM355 379.5q-29 25.5 -72 25.5h-6
q-42 0 -72 -25t-37 -71h220q-4 45 -33 70.5zM269 700h146l-100 -150h-79z" />
    <glyph glyph-name="ecircumflex" unicode="&#xea;" horiz-adv-x="557" 
d="M158.5 21.5q-55.5 32.5 -87.5 92t-32 136.5q0 76 31 135.5t86.5 92.5t124.5 33q63 0 114 -26.5t82.5 -76.5t37.5 -118q3 -38 2 -81h-352q3 -50 36 -82t79 -32h6q36 0 61.5 18t33.5 45h129q-18 -75 -78 -122t-151 -47q-67 0 -122.5 32.5zM355 379.5q-29 25.5 -72 25.5h-6
q-42 0 -72 -25t-37 -71h220q-4 45 -33 70.5zM201 700h160l100 -150h-80l-100 72l-100 -72h-80z" />
    <glyph glyph-name="edieresis" unicode="&#xeb;" horiz-adv-x="557" 
d="M158.5 21.5q-55.5 32.5 -87.5 92t-32 136.5q0 76 31 135.5t86.5 92.5t124.5 33q63 0 114 -26.5t82.5 -76.5t37.5 -118q3 -38 2 -81h-352q3 -50 36 -82t79 -32h6q36 0 61.5 18t33.5 45h129q-18 -75 -78 -122t-151 -47q-67 0 -122.5 32.5zM355 379.5q-29 25.5 -72 25.5h-6
q-42 0 -72 -25t-37 -71h220q-4 45 -33 70.5zM333.5 587.5q-19.5 19.5 -19.5 46.5q0 28 19.5 47t46.5 19q28 0 47.5 -19t19.5 -47q0 -27 -19.5 -46.5t-47.5 -19.5q-27 0 -46.5 19.5zM135.5 587.5q-19.5 19.5 -19.5 46.5q0 28 19.5 47t46.5 19t46.5 -19t19.5 -47
q0 -27 -19.5 -46.5t-46.5 -19.5t-46.5 19.5z" />
    <glyph glyph-name="igrave" unicode="&#xec;" horiz-adv-x="266" 
d="M68 500h130v-500h-130v500zM-2 700h146l33 -150h-79z" />
    <glyph glyph-name="iacute" unicode="&#xed;" horiz-adv-x="266" 
d="M68 500h130v-500h-130v500zM121 700h146l-100 -150h-79z" />
    <glyph glyph-name="icircumflex" unicode="&#xee;" horiz-adv-x="266" 
d="M68 500h130v-500h-130v500zM53 700h160l100 -150h-80l-100 72l-100 -72h-80z" />
    <glyph glyph-name="idieresis" unicode="&#xef;" horiz-adv-x="266" 
d="M68 500h130v-500h-130v500zM185.5 587.5q-19.5 19.5 -19.5 46.5q0 28 19.5 47t46.5 19q28 0 47.5 -19t19.5 -47q0 -27 -19.5 -46.5t-47.5 -19.5q-27 0 -46.5 19.5zM-12.5 587.5q-19.5 19.5 -19.5 46.5q0 28 19.5 47t46.5 19t46.5 -19t19.5 -47q0 -27 -19.5 -46.5
t-46.5 -19.5t-46.5 19.5z" />
    <glyph glyph-name="eth" unicode="&#xf0;" horiz-adv-x="593" 
d="M156.5 22.5q-56.5 32.5 -87.5 89.5t-31 128q0 66 28 119.5t78.5 84t116.5 30.5q50 0 89 -18t63 -51q-11 48 -37.5 84.5t-70.5 63.5l-111 -54l-37 73l51 25q-36 11 -78 20l27 106q107 -17 186 -60l112 54l37 -73l-71 -35q67 -59 96.5 -138t29.5 -164q0 -143 -67.5 -230
t-193.5 -87q-73 0 -129.5 32.5zM354.5 112.5q27.5 17.5 44 50.5t16.5 78q0 62 -35.5 99t-84.5 37h-10q-52 0 -84.5 -36t-32.5 -100q0 -69 32.5 -107.5t84.5 -38.5h10q32 0 59.5 17.5z" />
    <glyph glyph-name="ntilde" unicode="&#xf1;" horiz-adv-x="586" 
d="M68 500h130v-59q21 33 58 51.5t86 18.5q82 0 131.5 -53.5t49.5 -141.5v-316h-130v291q0 52 -22.5 80t-65.5 28h-2q-45 0 -75 -36t-30 -93v-270h-130v500zM295 579l-18 11q-13 8 -22 11.5t-20 3.5q-13 0 -23.5 -11.5t-10.5 -28.5h-95v26q0 47 32.5 80.5t79.5 33.5
q44 0 75 -20l18 -11q32 -19 49 -19q13 0 21.5 11.5t8.5 28.5h95v-26q0 -46 -33 -80t-77 -34q-40 0 -80 24z" />
    <glyph glyph-name="ograve" unicode="&#xf2;" horiz-adv-x="586" 
d="M162.5 23.5q-58.5 34.5 -91.5 94t-33 133.5q0 73 33 132.5t91.5 93.5t130.5 34q73 0 131 -34t91 -93.5t33 -132.5q0 -74 -33 -133.5t-91 -94t-131 -34.5q-72 0 -130.5 34.5zM383.5 139q33.5 42 33.5 112q0 69 -33.5 110.5t-88.5 41.5h-5q-54 0 -88 -41.5t-34 -110.5
q0 -70 34 -112t88 -42h5q55 0 88.5 42zM158 700h146l33 -150h-79z" />
    <glyph glyph-name="oacute" unicode="&#xf3;" horiz-adv-x="586" 
d="M162.5 23.5q-58.5 34.5 -91.5 94t-33 133.5q0 73 33 132.5t91.5 93.5t130.5 34q73 0 131 -34t91 -93.5t33 -132.5q0 -74 -33 -133.5t-91 -94t-131 -34.5q-72 0 -130.5 34.5zM383.5 139q33.5 42 33.5 112q0 69 -33.5 110.5t-88.5 41.5h-5q-54 0 -88 -41.5t-34 -110.5
q0 -70 34 -112t88 -42h5q55 0 88.5 42zM281 700h146l-100 -150h-79z" />
    <glyph glyph-name="ocircumflex" unicode="&#xf4;" horiz-adv-x="586" 
d="M162.5 23.5q-58.5 34.5 -91.5 94t-33 133.5q0 73 33 132.5t91.5 93.5t130.5 34q73 0 131 -34t91 -93.5t33 -132.5q0 -74 -33 -133.5t-91 -94t-131 -34.5q-72 0 -130.5 34.5zM383.5 139q33.5 42 33.5 112q0 69 -33.5 110.5t-88.5 41.5h-5q-54 0 -88 -41.5t-34 -110.5
q0 -70 34 -112t88 -42h5q55 0 88.5 42zM213 700h160l100 -150h-80l-100 72l-100 -72h-80z" />
    <glyph glyph-name="otilde" unicode="&#xf5;" horiz-adv-x="586" 
d="M162.5 23.5q-58.5 34.5 -91.5 94t-33 133.5q0 73 33 132.5t91.5 93.5t130.5 34q73 0 131 -34t91 -93.5t33 -132.5q0 -74 -33 -133.5t-91 -94t-131 -34.5q-72 0 -130.5 34.5zM383.5 139q33.5 42 33.5 112q0 69 -33.5 110.5t-88.5 41.5h-5q-54 0 -88 -41.5t-34 -110.5
q0 -70 34 -112t88 -42h5q55 0 88.5 42zM292 579l-18 11q-13 8 -22 11.5t-20 3.5q-13 0 -23.5 -11.5t-10.5 -28.5h-95v26q0 47 32.5 80.5t79.5 33.5q44 0 75 -20l18 -11q32 -19 49 -19q13 0 21.5 11.5t8.5 28.5h95v-26q0 -46 -33 -80t-77 -34q-40 0 -80 24z" />
    <glyph glyph-name="odieresis" unicode="&#xf6;" horiz-adv-x="586" 
d="M162.5 23.5q-58.5 34.5 -91.5 94t-33 133.5q0 73 33 132.5t91.5 93.5t130.5 34q73 0 131 -34t91 -93.5t33 -132.5q0 -74 -33 -133.5t-91 -94t-131 -34.5q-72 0 -130.5 34.5zM383.5 139q33.5 42 33.5 112q0 69 -33.5 110.5t-88.5 41.5h-5q-54 0 -88 -41.5t-34 -110.5
q0 -70 34 -112t88 -42h5q55 0 88.5 42zM345.5 587.5q-19.5 19.5 -19.5 46.5q0 28 19.5 47t46.5 19q28 0 47.5 -19t19.5 -47q0 -27 -19.5 -46.5t-47.5 -19.5q-27 0 -46.5 19.5zM147.5 587.5q-19.5 19.5 -19.5 46.5q0 28 19.5 47t46.5 19t46.5 -19t19.5 -47q0 -27 -19.5 -46.5
t-46.5 -19.5t-46.5 19.5z" />
    <glyph glyph-name="divide" unicode="&#xf7;" horiz-adv-x="590" 
d="M48 314h494v-112h-494v112zM240.5 29.5q-22.5 22.5 -22.5 54.5t22.5 55t54.5 23t55 -23t23 -55t-23 -54.5t-55 -22.5t-54.5 22.5zM240.5 378.5q-22.5 22.5 -22.5 54.5t22.5 55t54.5 23t55 -23t23 -55t-23 -54.5t-55 -22.5t-54.5 22.5z" />
    <glyph glyph-name="oslash" unicode="&#xf8;" horiz-adv-x="590" 
d="M181 15l-49 -64l-84 70l48 62q-56 72 -56 168q0 73 33 132.5t91.5 93.5t130.5 34q59 0 110 -23l49 63l89 -66l-50 -65q57 -71 57 -169q0 -74 -33 -133.5t-91 -94t-131 -34.5q-62 0 -114 26zM385.5 139q33.5 42 33.5 112q0 34 -8 61l-161 -207q21 -8 42 -8h5q55 0 88.5 42
zM178 191l158 206q-18 6 -39 6h-5q-54 0 -88 -41.5t-34 -110.5q0 -33 8 -60z" />
    <glyph glyph-name="ugrave" unicode="&#xf9;" horiz-adv-x="576" 
d="M110.5 41.5q-47.5 52.5 -47.5 141.5v317h130v-291q0 -108 82 -108h2q47 0 74 36t27 112v251h130v-500h-130v59q-21 -33 -56 -51.5t-83 -18.5q-81 0 -128.5 52.5zM151 700h146l33 -150h-79z" />
    <glyph glyph-name="uacute" unicode="&#xfa;" horiz-adv-x="576" 
d="M110.5 41.5q-47.5 52.5 -47.5 141.5v317h130v-291q0 -108 82 -108h2q47 0 74 36t27 112v251h130v-500h-130v59q-21 -33 -56 -51.5t-83 -18.5q-81 0 -128.5 52.5zM274 700h146l-100 -150h-79z" />
    <glyph glyph-name="ucircumflex" unicode="&#xfb;" horiz-adv-x="576" 
d="M110.5 41.5q-47.5 52.5 -47.5 141.5v317h130v-291q0 -108 82 -108h2q47 0 74 36t27 112v251h130v-500h-130v59q-21 -33 -56 -51.5t-83 -18.5q-81 0 -128.5 52.5zM206 700h160l100 -150h-80l-100 72l-100 -72h-80z" />
    <glyph glyph-name="udieresis" unicode="&#xfc;" horiz-adv-x="576" 
d="M110.5 41.5q-47.5 52.5 -47.5 141.5v317h130v-291q0 -108 82 -108h2q47 0 74 36t27 112v251h130v-500h-130v59q-21 -33 -56 -51.5t-83 -18.5q-81 0 -128.5 52.5zM338.5 587.5q-19.5 19.5 -19.5 46.5q0 28 19.5 47t46.5 19q28 0 47.5 -19t19.5 -47q0 -27 -19.5 -46.5
t-47.5 -19.5q-27 0 -46.5 19.5zM140.5 587.5q-19.5 19.5 -19.5 46.5q0 28 19.5 47t46.5 19t46.5 -19t19.5 -47q0 -27 -19.5 -46.5t-46.5 -19.5t-46.5 19.5z" />
    <glyph glyph-name="yacute" unicode="&#xfd;" horiz-adv-x="556" 
d="M19 -88h96q32 0 49.5 11t27.5 37l28 72l-231 468h146l148 -304l117 304h144l-232 -582q-26 -65 -67 -91.5t-107 -26.5h-119v112zM256 700h146l-100 -150h-79z" />
    <glyph glyph-name="thorn" unicode="&#xfe;" horiz-adv-x="613" 
d="M68 700h130v-263q18 31 58.5 52t91.5 21q65 0 116.5 -32.5t80.5 -92t29 -135.5q0 -77 -29.5 -136.5t-81.5 -92.5t-118 -33q-50 0 -88.5 20t-58.5 50v-258h-130v900zM411.5 137q33.5 42 33.5 112t-34 112t-87 42h-5q-52 0 -87 -42.5t-35 -111.5t35 -111.5t87 -42.5h5
q54 0 87.5 42z" />
    <glyph glyph-name="ydieresis" unicode="&#xff;" horiz-adv-x="556" 
d="M19 -88h96q32 0 49.5 11t27.5 37l28 72l-231 468h146l148 -304l117 304h144l-232 -582q-26 -65 -67 -91.5t-107 -26.5h-119v112zM320.5 587.5q-19.5 19.5 -19.5 46.5q0 28 19.5 47t46.5 19q28 0 47.5 -19t19.5 -47q0 -27 -19.5 -46.5t-47.5 -19.5q-27 0 -46.5 19.5z
M122.5 587.5q-19.5 19.5 -19.5 46.5q0 28 19.5 47t46.5 19t46.5 -19t19.5 -47q0 -27 -19.5 -46.5t-46.5 -19.5t-46.5 19.5z" />
    <glyph glyph-name="Amacron" unicode="&#x100;" horiz-adv-x="712" 
d="M279 700h158l270 -700h-143l-59 153h-303l-58 -153h-142zM460 273l-106 277l-106 -277h212zM190 875h335v-110h-335v110z" />
    <glyph glyph-name="amacron" unicode="&#x101;" horiz-adv-x="552" 
d="M85.5 32q-47.5 42 -47.5 110q0 72 51 111t151 48l124 11v14q0 38 -26 59t-68 21h-3q-37 0 -61.5 -16t-30.5 -42h-126q6 45 34.5 82t76.5 59t110 22q104 0 161 -53t57 -142v-204q0 -64 7 -112h-120q-6 29 -6 62q-24 -31 -66 -51.5t-93 -20.5q-77 0 -124.5 42zM327.5 124
q36.5 30 36.5 84v11l-114 -9q-89 -7 -89 -62q0 -24 20.5 -39t55.5 -15h3q51 0 87.5 30zM118 670h305v-105h-305v105z" />
    <glyph glyph-name="Abreve" unicode="&#x102;" horiz-adv-x="712" 
d="M279 700h158l270 -700h-143l-59 153h-303l-58 -153h-142zM460 273l-106 277l-106 -277h212zM236.5 781q-47.5 41 -48.5 109h110q3 -27 19.5 -41t40.5 -14t40.5 14t19.5 41h110q-1 -68 -48.5 -109t-121.5 -41t-121.5 41z" />
    <glyph glyph-name="abreve" unicode="&#x103;" horiz-adv-x="552" 
d="M85.5 32q-47.5 42 -47.5 110q0 72 51 111t151 48l124 11v14q0 38 -26 59t-68 21h-3q-37 0 -61.5 -16t-30.5 -42h-126q6 45 34.5 82t76.5 59t110 22q104 0 161 -53t57 -142v-204q0 -64 7 -112h-120q-6 29 -6 62q-24 -31 -66 -51.5t-93 -20.5q-77 0 -124.5 42zM327.5 124
q36.5 30 36.5 84v11l-114 -9q-89 -7 -89 -62q0 -24 20.5 -39t55.5 -15h3q51 0 87.5 30zM149 588.5q-45 36.5 -46 111.5h112q2 -31 15.5 -48t40.5 -17t41 17.5t16 47.5h111q-1 -75 -46 -111.5t-122 -36.5t-122 36.5z" />
    <glyph glyph-name="Aogonek" unicode="&#x104;" horiz-adv-x="712" 
d="M279 700h158l270 -700h-49q-34 -20 -57 -41.5t-23 -48.5q0 -25 14.5 -37.5t35.5 -12.5h30v-80h-50q-52 0 -86 28t-34 72q0 73 76 120l-59 153h-303l-58 -153h-142zM460 273l-106 277l-106 -277h212z" />
    <glyph glyph-name="aogonek" unicode="&#x105;" horiz-adv-x="552" 
d="M85.5 32q-47.5 42 -47.5 110q0 72 51 111t151 48l124 11v14q0 38 -26 59t-68 21h-3q-37 0 -61.5 -16t-30.5 -42h-126q6 45 34.5 82t76.5 59t110 22q104 0 161 -53t57 -142v-204q0 -64 7 -112q-34 -20 -57 -41.5t-23 -48.5q0 -25 14.5 -37.5t35.5 -12.5h30v-80h-50
q-52 0 -86 28t-34 72q0 73 76 120h-26q-6 29 -6 62q-24 -31 -66 -51.5t-93 -20.5q-77 0 -124.5 42zM327.5 124q36.5 30 36.5 84v11l-114 -9q-89 -7 -89 -62q0 -24 20.5 -39t55.5 -15h3q51 0 87.5 30z" />
    <glyph glyph-name="Cacute" unicode="&#x106;" horiz-adv-x="725" 
d="M202 36.5q-76 45.5 -117 127t-41 186.5q0 104 41.5 186t118 128t176.5 46q86 0 152.5 -31.5t106.5 -88t47 -130.5h-137q-12 61 -55.5 95t-108.5 34h-9q-57 0 -101 -30t-68.5 -84t-24.5 -125t24.5 -125t68.5 -83.5t101 -29.5h9q65 0 108 34t55 95h138q-7 -73 -47 -129.5
t-107 -88.5t-152 -32q-102 0 -178 45.5zM375 890h155l-105 -145h-90z" />
    <glyph glyph-name="cacute" unicode="&#x107;" horiz-adv-x="553" 
d="M157 21.5q-56 32.5 -87 92t-31 137.5q0 74 32 133t88.5 93t127.5 34q95 0 158.5 -52t72.5 -138h-131q-6 37 -33 60.5t-67 23.5h-3q-53 0 -84 -43t-31 -111t31 -111t84 -43h3q40 0 67 24t33 60h132q-12 -86 -75 -139t-158 -53q-73 0 -129 32.5zM273 700h146l-100 -150h-79
z" />
    <glyph glyph-name="Ccircumflex" unicode="&#x108;" horiz-adv-x="725" 
d="M202 36.5q-76 45.5 -117 127t-41 186.5q0 104 41.5 186t118 128t176.5 46q86 0 152.5 -31.5t106.5 -88t47 -130.5h-137q-12 61 -55.5 95t-108.5 34h-9q-57 0 -101 -30t-68.5 -84t-24.5 -125t24.5 -125t68.5 -83.5t101 -29.5h9q65 0 108 34t55 95h138q-7 -73 -47 -129.5
t-107 -88.5t-152 -32q-102 0 -178 45.5zM310 890h140l120 -145h-110l-80 58l-80 -58h-110z" />
    <glyph glyph-name="ccircumflex" unicode="&#x109;" horiz-adv-x="553" 
d="M157 21.5q-56 32.5 -87 92t-31 137.5q0 74 32 133t88.5 93t127.5 34q95 0 158.5 -52t72.5 -138h-131q-6 37 -33 60.5t-67 23.5h-3q-53 0 -84 -43t-31 -111t31 -111t84 -43h3q40 0 67 24t33 60h132q-12 -86 -75 -139t-158 -53q-73 0 -129 32.5zM205 700h160l100 -150h-80
l-100 72l-100 -72h-80z" />
    <glyph glyph-name="Cdotaccent" unicode="&#x10a;" horiz-adv-x="725" 
d="M202 36.5q-76 45.5 -117 127t-41 186.5q0 104 41.5 186t118 128t176.5 46q86 0 152.5 -31.5t106.5 -88t47 -130.5h-137q-12 61 -55.5 95t-108.5 34h-9q-57 0 -101 -30t-68.5 -84t-24.5 -125t24.5 -125t68.5 -83.5t101 -29.5h9q65 0 108 34t55 95h138q-7 -73 -47 -129.5
t-107 -88.5t-152 -32q-102 0 -178 45.5zM325 781q-23 23 -23 55t23 55.5t55 23.5t55.5 -23.5t23.5 -55.5t-23.5 -55t-55.5 -23t-55 23z" />
    <glyph glyph-name="cdotaccent" unicode="&#x10b;" horiz-adv-x="553" 
d="M157 21.5q-56 32.5 -87 92t-31 137.5q0 74 32 133t88.5 93t127.5 34q95 0 158.5 -52t72.5 -138h-131q-6 37 -33 60.5t-67 23.5h-3q-53 0 -84 -43t-31 -111t31 -111t84 -43h3q40 0 67 24t33 60h132q-12 -86 -75 -139t-158 -53q-73 0 -129 32.5zM228.5 586.5
q-23.5 23.5 -23.5 55.5q0 33 23.5 56t56.5 23q32 0 55.5 -23t23.5 -56q0 -32 -23.5 -55.5t-55.5 -23.5q-33 0 -56.5 23.5z" />
    <glyph glyph-name="Ccaron" unicode="&#x10c;" horiz-adv-x="725" 
d="M202 36.5q-76 45.5 -117 127t-41 186.5q0 104 41.5 186t118 128t176.5 46q86 0 152.5 -31.5t106.5 -88t47 -130.5h-137q-12 61 -55.5 95t-108.5 34h-9q-57 0 -101 -30t-68.5 -84t-24.5 -125t24.5 -125t68.5 -83.5t101 -29.5h9q65 0 108 34t55 95h138q-7 -73 -47 -129.5
t-107 -88.5t-152 -32q-102 0 -178 45.5zM190 890h110l80 -58l80 58h110l-120 -145h-140z" />
    <glyph glyph-name="ccaron" unicode="&#x10d;" horiz-adv-x="553" 
d="M157 21.5q-56 32.5 -87 92t-31 137.5q0 74 32 133t88.5 93t127.5 34q95 0 158.5 -52t72.5 -138h-131q-6 37 -33 60.5t-67 23.5h-3q-53 0 -84 -43t-31 -111t31 -111t84 -43h3q40 0 67 24t33 60h132q-12 -86 -75 -139t-158 -53q-73 0 -129 32.5zM105 700h80l100 -72l100 72
h80l-100 -150h-160z" />
    <glyph glyph-name="Dcaron" unicode="&#x10e;" horiz-adv-x="722" 
d="M82 700h240q106 0 186 -40t124.5 -118.5t44.5 -191.5t-43 -191.5t-122 -118.5t-185 -40h-245v700zM481.5 173q60.5 53 60.5 177t-60.5 177t-169.5 53h-95v-460h95q109 0 169.5 53zM139 890h110l80 -58l80 58h110l-120 -145h-140z" />
    <glyph glyph-name="dcaron" unicode="&#x10f;" horiz-adv-x="696" 
d="M147.5 23q-51.5 33 -80.5 92t-29 135q0 77 30 136.5t82 92.5t118 33q49 0 88 -20.5t59 -49.5v258h130v-700h-130v63q-18 -31 -58.5 -52t-92.5 -21q-65 0 -116.5 33zM381 139.5q35 42.5 35 111.5t-35 111.5t-87 42.5h-5q-53 0 -87 -42.5t-34 -111.5q0 -70 34 -112t87 -42
h5q52 0 87 42.5zM593 539h18q27 0 40.5 10.5t13.5 29.5v2h-50v119h121v-113q0 -53 -32 -84.5t-89 -31.5h-22v68z" />
    <glyph glyph-name="Dcroat" unicode="&#x110;" horiz-adv-x="765" 
d="M125 290h-88v120h88v290h240q106 0 186 -40t124.5 -118.5t44.5 -191.5t-43 -191.5t-122 -118.5t-185 -40h-245v290zM524.5 173q60.5 53 60.5 177t-60.5 177t-169.5 53h-95v-170h137v-120h-137v-170h95q109 0 169.5 53z" />
    <glyph glyph-name="dcroat" unicode="&#x111;" horiz-adv-x="613" 
d="M147.5 23q-51.5 33 -80.5 92t-29 135q0 77 30 136.5t82 92.5t118 33q49 0 88 -20.5t59 -49.5v114h-143v90h143v54h130v-54h72v-90h-72v-556h-130v63q-18 -31 -58.5 -52t-92.5 -21q-65 0 -116.5 33zM381 139.5q35 42.5 35 111.5t-35 111.5t-87 42.5h-5q-53 0 -87 -42.5
t-34 -111.5q0 -70 34 -112t87 -42h5q52 0 87 42.5z" />
    <glyph glyph-name="Emacron" unicode="&#x112;" horiz-adv-x="665" 
d="M82 700h530v-120h-395v-161h335v-120h-335v-179h405v-120h-540v700zM179 875h335v-110h-335v110z" />
    <glyph glyph-name="emacron" unicode="&#x113;" horiz-adv-x="557" 
d="M158.5 21.5q-55.5 32.5 -87.5 92t-32 136.5q0 76 31 135.5t86.5 92.5t124.5 33q63 0 114 -26.5t82.5 -76.5t37.5 -118q3 -38 2 -81h-352q3 -50 36 -82t79 -32h6q36 0 61.5 18t33.5 45h129q-18 -75 -78 -122t-151 -47q-67 0 -122.5 32.5zM355 379.5q-29 25.5 -72 25.5h-6
q-42 0 -72 -25t-37 -71h220q-4 45 -33 70.5zM128 670h305v-105h-305v105z" />
    <glyph glyph-name="Ebreve" unicode="&#x114;" horiz-adv-x="665" 
d="M82 700h530v-120h-395v-161h335v-120h-335v-179h405v-120h-540v700zM225.5 781q-47.5 41 -48.5 109h110q3 -27 19.5 -41t40.5 -14t40.5 14t19.5 41h110q-1 -68 -48.5 -109t-121.5 -41t-121.5 41z" />
    <glyph glyph-name="ebreve" unicode="&#x115;" horiz-adv-x="557" 
d="M158.5 21.5q-55.5 32.5 -87.5 92t-32 136.5q0 76 31 135.5t86.5 92.5t124.5 33q63 0 114 -26.5t82.5 -76.5t37.5 -118q3 -38 2 -81h-352q3 -50 36 -82t79 -32h6q36 0 61.5 18t33.5 45h129q-18 -75 -78 -122t-151 -47q-67 0 -122.5 32.5zM355 379.5q-29 25.5 -72 25.5h-6
q-42 0 -72 -25t-37 -71h220q-4 45 -33 70.5zM159 588.5q-45 36.5 -46 111.5h112q2 -31 15.5 -48t40.5 -17t41 17.5t16 47.5h111q-1 -75 -46 -111.5t-122 -36.5t-122 36.5z" />
    <glyph glyph-name="Edotaccent" unicode="&#x116;" horiz-adv-x="665" 
d="M82 700h530v-120h-395v-161h335v-120h-335v-179h405v-120h-540v700zM292 781q-23 23 -23 55t23 55.5t55 23.5t55.5 -23.5t23.5 -55.5t-23.5 -55t-55.5 -23t-55 23z" />
    <glyph glyph-name="edotaccent" unicode="&#x117;" horiz-adv-x="557" 
d="M158.5 21.5q-55.5 32.5 -87.5 92t-32 136.5q0 76 31 135.5t86.5 92.5t124.5 33q63 0 114 -26.5t82.5 -76.5t37.5 -118q3 -38 2 -81h-352q3 -50 36 -82t79 -32h6q36 0 61.5 18t33.5 45h129q-18 -75 -78 -122t-151 -47q-67 0 -122.5 32.5zM355 379.5q-29 25.5 -72 25.5h-6
q-42 0 -72 -25t-37 -71h220q-4 45 -33 70.5zM224.5 586.5q-23.5 23.5 -23.5 55.5q0 33 23.5 56t56.5 23q32 0 55.5 -23t23.5 -56q0 -32 -23.5 -55.5t-55.5 -23.5q-33 0 -56.5 23.5z" />
    <glyph glyph-name="Eogonek" unicode="&#x118;" horiz-adv-x="665" 
d="M82 700h530v-120h-395v-161h335v-120h-335v-179h405v-120q-34 -20 -57 -41.5t-23 -48.5q0 -25 14.5 -37.5t35.5 -12.5h30v-80h-50q-52 0 -86 28t-34 72q0 73 76 120h-446v700z" />
    <glyph glyph-name="eogonek" unicode="&#x119;" horiz-adv-x="557" 
d="M217 -192q-34 28 -34 72q0 67 63 111q-59 8 -106 42.5t-74 90.5t-27 126q0 76 31 135.5t86.5 92.5t124.5 33q63 0 114.5 -26.5t83 -76.5t37.5 -117q2 -28 2 -44l-1 -38h-352q3 -50 36 -82t79 -32h6q36 0 61.5 18t33.5 45h129q-13 -53 -49 -93.5t-91 -65.5
q-54 -25 -75.5 -43t-21.5 -46q0 -25 14.5 -37.5t35.5 -12.5h30v-80h-50q-52 0 -86 28zM355 379.5q-29 25.5 -72 25.5h-6q-42 0 -72 -25t-37 -71h220q-4 45 -33 70.5z" />
    <glyph glyph-name="Ecaron" unicode="&#x11a;" horiz-adv-x="665" 
d="M82 700h530v-120h-395v-161h335v-120h-335v-179h405v-120h-540v700zM157 890h110l80 -58l80 58h110l-120 -145h-140z" />
    <glyph glyph-name="ecaron" unicode="&#x11b;" horiz-adv-x="557" 
d="M158.5 21.5q-55.5 32.5 -87.5 92t-32 136.5q0 76 31 135.5t86.5 92.5t124.5 33q63 0 114 -26.5t82.5 -76.5t37.5 -118q3 -38 2 -81h-352q3 -50 36 -82t79 -32h6q36 0 61.5 18t33.5 45h129q-18 -75 -78 -122t-151 -47q-67 0 -122.5 32.5zM355 379.5q-29 25.5 -72 25.5h-6
q-42 0 -72 -25t-37 -71h220q-4 45 -33 70.5zM101 700h80l100 -72l100 72h80l-100 -150h-160z" />
    <glyph glyph-name="Gcircumflex" unicode="&#x11c;" horiz-adv-x="757" 
d="M193.5 37q-72.5 46 -111 127t-38.5 185q0 103 42.5 185.5t119 129t176.5 46.5q83 0 149 -29t107 -82t51 -123h-139q-15 56 -58.5 85t-104.5 29h-9q-57 0 -102 -29.5t-70.5 -84t-25.5 -127.5q0 -72 26 -126.5t72 -83.5t104 -29h8q72 0 121.5 42.5t58.5 109.5h-177v112h213
q43 0 66 -23t23 -66v-285h-116v91q-28 -43 -85.5 -71.5t-128.5 -28.5q-99 0 -171.5 46zM315 890h140l120 -145h-110l-80 58l-80 -58h-110z" />
    <glyph glyph-name="gcircumflex" unicode="&#x11d;" horiz-adv-x="610" 
d="M158.5 -197.5q-53.5 21.5 -84.5 60t-35 88.5h131q6 -32 36 -49t77 -17h6q55 0 89.5 31t34.5 92v62q-21 -31 -60 -50t-90 -19q-60 0 -111 30t-81.5 88t-30.5 137q0 80 30.5 137.5t81.5 87.5t111 30q52 0 90.5 -20t59.5 -52v61h130v-501q0 -60 -30 -110t-89.5 -79
t-143.5 -29q-68 0 -121.5 21.5zM378.5 147q34.5 41 34.5 109t-33.5 109t-83.5 41h-6q-53 0 -86.5 -39t-33.5 -111t33 -111t85 -39h6q50 0 84.5 41zM213 700h160l100 -150h-80l-100 72l-100 -72h-80z" />
    <glyph glyph-name="Gbreve" unicode="&#x11e;" horiz-adv-x="757" 
d="M193.5 37q-72.5 46 -111 127t-38.5 185q0 103 42.5 185.5t119 129t176.5 46.5q83 0 149 -29t107 -82t51 -123h-139q-15 56 -58.5 85t-104.5 29h-9q-57 0 -102 -29.5t-70.5 -84t-25.5 -127.5q0 -72 26 -126.5t72 -83.5t104 -29h8q72 0 121.5 42.5t58.5 109.5h-177v112h213
q43 0 66 -23t23 -66v-285h-116v91q-28 -43 -85.5 -71.5t-128.5 -28.5q-99 0 -171.5 46zM263.5 781q-47.5 41 -48.5 109h110q3 -27 19.5 -41t40.5 -14t40.5 14t19.5 41h110q-1 -68 -48.5 -109t-121.5 -41t-121.5 41z" />
    <glyph glyph-name="gbreve" unicode="&#x11f;" horiz-adv-x="610" 
d="M158.5 -197.5q-53.5 21.5 -84.5 60t-35 88.5h131q6 -32 36 -49t77 -17h6q55 0 89.5 31t34.5 92v62q-21 -31 -60 -50t-90 -19q-60 0 -111 30t-81.5 88t-30.5 137q0 80 30.5 137.5t81.5 87.5t111 30q52 0 90.5 -20t59.5 -52v61h130v-501q0 -60 -30 -110t-89.5 -79
t-143.5 -29q-68 0 -121.5 21.5zM378.5 147q34.5 41 34.5 109t-33.5 109t-83.5 41h-6q-53 0 -86.5 -39t-33.5 -111t33 -111t85 -39h6q50 0 84.5 41zM171 588.5q-45 36.5 -46 111.5h112q2 -31 15.5 -48t40.5 -17t41 17.5t16 47.5h111q-1 -75 -46 -111.5t-122 -36.5t-122 36.5z
" />
    <glyph glyph-name="Gdotaccent" unicode="&#x120;" horiz-adv-x="757" 
d="M193.5 37q-72.5 46 -111 127t-38.5 185q0 103 42.5 185.5t119 129t176.5 46.5q83 0 149 -29t107 -82t51 -123h-139q-15 56 -58.5 85t-104.5 29h-9q-57 0 -102 -29.5t-70.5 -84t-25.5 -127.5q0 -72 26 -126.5t72 -83.5t104 -29h8q72 0 121.5 42.5t58.5 109.5h-177v112h213
q43 0 66 -23t23 -66v-285h-116v91q-28 -43 -85.5 -71.5t-128.5 -28.5q-99 0 -171.5 46zM330 781q-23 23 -23 55t23 55.5t55 23.5t55.5 -23.5t23.5 -55.5t-23.5 -55t-55.5 -23t-55 23z" />
    <glyph glyph-name="gdotaccent" unicode="&#x121;" horiz-adv-x="610" 
d="M158.5 -197.5q-53.5 21.5 -84.5 60t-35 88.5h131q6 -32 36 -49t77 -17h6q55 0 89.5 31t34.5 92v62q-21 -31 -60 -50t-90 -19q-60 0 -111 30t-81.5 88t-30.5 137q0 80 30.5 137.5t81.5 87.5t111 30q52 0 90.5 -20t59.5 -52v61h130v-501q0 -60 -30 -110t-89.5 -79
t-143.5 -29q-68 0 -121.5 21.5zM378.5 147q34.5 41 34.5 109t-33.5 109t-83.5 41h-6q-53 0 -86.5 -39t-33.5 -111t33 -111t85 -39h6q50 0 84.5 41zM236.5 586.5q-23.5 23.5 -23.5 55.5q0 33 23.5 56t56.5 23q32 0 55.5 -23t23.5 -56q0 -32 -23.5 -55.5t-55.5 -23.5
q-33 0 -56.5 23.5z" />
    <glyph glyph-name="uni0122" unicode="&#x122;" horiz-adv-x="757" 
d="M193.5 37q-72.5 46 -111 127t-38.5 185q0 103 42.5 185.5t119 129t176.5 46.5q83 0 149 -29t107 -82t51 -123h-139q-15 56 -58.5 85t-104.5 29h-9q-57 0 -102 -29.5t-70.5 -84t-25.5 -127.5q0 -72 26 -126.5t72 -83.5t104 -29h8q72 0 121.5 42.5t58.5 109.5h-177v112h213
q43 0 66 -23t23 -66v-285h-116v91q-28 -43 -85.5 -71.5t-128.5 -28.5q-99 0 -171.5 46zM305 -212h13q54 0 54 37v3h-52v107h130v-107q0 -46 -35.5 -74t-91.5 -28h-18v62z" />
    <glyph glyph-name="uni0123" unicode="&#x123;" horiz-adv-x="610" 
d="M158.5 -197.5q-53.5 21.5 -84.5 60t-35 88.5h131q6 -32 36 -49t77 -17h6q55 0 89.5 31t34.5 92v62q-21 -31 -60 -50t-90 -19q-60 0 -111 30t-81.5 88t-30.5 137q0 80 30.5 137.5t81.5 87.5t111 30q52 0 90.5 -20t59.5 -52v61h130v-501q0 -60 -30 -110t-89.5 -79
t-143.5 -29q-68 0 -121.5 21.5zM378.5 147q34.5 41 34.5 109t-33.5 109t-83.5 41h-6q-53 0 -86.5 -39t-33.5 -111t33 -111t85 -39h6q50 0 84.5 41zM263.5 782.5q35.5 32.5 91.5 32.5h28v-75h-23q-27 0 -40.5 -10t-13.5 -28v-2h52v-130h-130v130q0 50 35.5 82.5z" />
    <glyph glyph-name="Hcircumflex" unicode="&#x124;" horiz-adv-x="739" 
d="M82 700h135v-290h305v290h135v-700h-135v290h-305v-290h-135v700zM300 890h140l120 -145h-110l-80 58l-80 -58h-110z" />
    <glyph glyph-name="hcircumflex" unicode="&#x125;" horiz-adv-x="586" 
d="M68 700h130v-262q21 34 59 53.5t89 19.5q82 0 129.5 -50.5t47.5 -137.5v-323h-130v301q0 48 -20.5 74t-61.5 26h-4q-47 0 -78 -36t-31 -92v-273h-130v700zM45 890h160l100 -150h-80l-100 72l-100 -72h-80z" />
    <glyph glyph-name="Hbar" unicode="&#x126;" horiz-adv-x="771" 
d="M98 492h-60v115h60v93h135v-93h305v93h135v-93h60v-115h-60v-492h-135v290h-305v-290h-135v492zM538 410v82h-305v-82h305z" />
    <glyph glyph-name="hbar" unicode="&#x127;" horiz-adv-x="586" 
d="M68 557h-72v90h72v53h130v-53h143v-90h-143v-119q21 34 59 53.5t89 19.5q82 0 129.5 -50.5t47.5 -137.5v-323h-130v301q0 48 -20.5 74t-61.5 26h-4q-47 0 -78 -36t-31 -92v-273h-130v557z" />
    <glyph glyph-name="Itilde" unicode="&#x128;" horiz-adv-x="299" 
d="M82 700h135v-700h-135v700zM149 774l-18 10q-27 16 -45 16q-15 0 -23 -11t-8 -29h-95v26q0 47 32.5 80.5t79.5 33.5q25 0 40.5 -5t34.5 -15l18 -10q34 -20 49 -20t22.5 11t7.5 29h95v-26q0 -50 -27.5 -82t-82.5 -32q-38 0 -80 24z" />
    <glyph glyph-name="itilde" unicode="&#x129;" horiz-adv-x="266" 
d="M68 500h130v-500h-130v500zM132 579l-18 11q-13 8 -22 11.5t-20 3.5q-13 0 -23.5 -11.5t-10.5 -28.5h-95v26q0 47 32.5 80.5t79.5 33.5q44 0 75 -20l18 -11q32 -19 49 -19q13 0 21.5 11.5t8.5 28.5h95v-26q0 -46 -33 -80t-77 -34q-40 0 -80 24z" />
    <glyph glyph-name="Imacron" unicode="&#x12a;" horiz-adv-x="299" 
d="M82 700h135v-700h-135v700zM-18 875h335v-110h-335v110z" />
    <glyph glyph-name="imacron" unicode="&#x12b;" horiz-adv-x="266" 
d="M68 500h130v-500h-130v500zM-20 670h305v-105h-305v105z" />
    <glyph glyph-name="Ibreve" unicode="&#x12c;" horiz-adv-x="299" 
d="M82 700h135v-700h-135v700zM28.5 781q-47.5 41 -48.5 109h110q3 -27 19.5 -41t40.5 -14t40.5 14t19.5 41h110q-1 -68 -48.5 -109t-121.5 -41t-121.5 41z" />
    <glyph glyph-name="ibreve" unicode="&#x12d;" horiz-adv-x="266" 
d="M68 500h130v-500h-130v500zM11 588.5q-45 36.5 -46 111.5h112q2 -31 15.5 -48t40.5 -17t41 17.5t16 47.5h111q-1 -75 -46 -111.5t-122 -36.5t-122 36.5z" />
    <glyph glyph-name="Iogonek" unicode="&#x12e;" horiz-adv-x="299" 
d="M82 700h135v-700q-34 -20 -57 -41.5t-23 -48.5q0 -25 14.5 -37.5t35.5 -12.5h30v-80h-50q-52 0 -86 28t-34 72q0 73 76 120h-41v700z" />
    <glyph glyph-name="iogonek" unicode="&#x12f;" horiz-adv-x="266" 
d="M68 500h130v-500q-34 -20 -57 -41.5t-23 -48.5q0 -25 14.5 -37.5t35.5 -12.5h30v-80h-50q-52 0 -86 28t-34 72q0 73 76 120h-36v500zM76.5 586.5q-23.5 23.5 -23.5 55.5q0 33 23.5 56t56.5 23q32 0 55.5 -23t23.5 -56q0 -32 -23.5 -55.5t-55.5 -23.5q-33 0 -56.5 23.5z
" />
    <glyph glyph-name="Idotaccent" unicode="&#x130;" horiz-adv-x="299" 
d="M82 700h135v-700h-135v700zM95 781q-23 23 -23 55t23 55.5t55 23.5t55.5 -23.5t23.5 -55.5t-23.5 -55t-55.5 -23t-55 23z" />
    <glyph glyph-name="dotlessi" unicode="&#x131;" horiz-adv-x="266" 
d="M68 500h130v-500h-130v500z" />
    <glyph glyph-name="IJ" unicode="&#x132;" horiz-adv-x="555" 
d="M82 130h175q48 0 66.5 21.5t18.5 73.5v475h135v-490q0 -109 -48.5 -159.5t-156.5 -50.5h-190v130zM82 700h135v-494h-135v494z" />
    <glyph glyph-name="ij" unicode="&#x133;" horiz-adv-x="509" 
d="M68 -90h186q30 0 43.5 13t13.5 43v534h130v-554q0 -73 -36 -109.5t-98 -36.5h-239v110zM68 500h130v-500h-130v500zM76.5 586.5q-23.5 23.5 -23.5 55.5q0 33 23.5 56t56.5 23q32 0 55.5 -23t23.5 -56q0 -32 -23.5 -55.5t-55.5 -23.5q-33 0 -56.5 23.5zM320.5 586.5
q-23.5 23.5 -23.5 55.5q0 33 23.5 56t55.5 23t55.5 -23t23.5 -56q0 -32 -23.5 -55.5t-55.5 -23.5t-55.5 23.5z" />
    <glyph glyph-name="Jcircumflex" unicode="&#x134;" horiz-adv-x="418" 
d="M17 130h110q43 0 60.5 17.5t17.5 60.5v492h135v-524q0 -85 -46.5 -130.5t-134.5 -45.5h-142v130zM203 890h140l120 -145h-110l-80 58l-80 -58h-110z" />
    <glyph glyph-name="jcircumflex" unicode="&#x135;" horiz-adv-x="266" 
d="M-90 -90h108q23 0 36.5 14t13.5 41v535h130v-544q0 -75 -39 -115.5t-114 -40.5h-135v110zM53 700h160l100 -150h-80l-100 72l-100 -72h-80z" />
    <glyph glyph-name="uni0136" unicode="&#x136;" horiz-adv-x="687" 
d="M82 700h135v-314l297 314h167l-275 -290l281 -410h-167l-211 308l-92 -97v-211h-135v700zM270 -212h13q54 0 54 37v3h-52v107h130v-107q0 -46 -35.5 -74t-91.5 -28h-18v62z" />
    <glyph glyph-name="uni0137" unicode="&#x137;" horiz-adv-x="548" 
d="M68 700h130v-386l181 186h159l-192 -199l202 -301h-153l-139 208l-58 -59v-149h-130v700zM208 -212h13q54 0 54 37v3h-52v107h130v-107q0 -46 -35.5 -74t-91.5 -28h-18v62z" />
    <glyph glyph-name="Lacute" unicode="&#x139;" horiz-adv-x="627" 
d="M82 700h135v-580h395v-120h-530v700zM145 890h155l-105 -145h-90z" />
    <glyph glyph-name="lacute" unicode="&#x13a;" horiz-adv-x="266" 
d="M68 700h130v-700h-130v700zM121 894h146l-100 -150h-79z" />
    <glyph glyph-name="uni013B" unicode="&#x13b;" horiz-adv-x="627" 
d="M82 700h135v-580h395v-120h-530v700zM267 -212h13q54 0 54 37v3h-52v107h130v-107q0 -46 -35.5 -74t-91.5 -28h-18v62z" />
    <glyph glyph-name="uni013C" unicode="&#x13c;" horiz-adv-x="266" 
d="M68 700h130v-700h-130v700zM53 -212h13q54 0 54 37v3h-52v107h130v-107q0 -46 -35.5 -74t-91.5 -28h-18v62z" />
    <glyph glyph-name="Lcaron" unicode="&#x13d;" horiz-adv-x="627" 
d="M82 700h135v-580h395v-120h-530v700zM341 539h18q27 0 40.5 10.5t13.5 29.5v2h-50v119h121v-113q0 -53 -32 -84.5t-89 -31.5h-22v68z" />
    <glyph glyph-name="lcaron" unicode="&#x13e;" horiz-adv-x="349" 
d="M68 700h130v-700h-130v700zM246 539h18q27 0 40.5 10.5t13.5 29.5v2h-50v119h121v-113q0 -53 -32 -84.5t-89 -31.5h-22v68z" />
    <glyph glyph-name="Ldot" unicode="&#x13f;" horiz-adv-x="629" 
d="M82 700h135v-580h395v-120h-530v700zM405.5 331.5q-24.5 24.5 -24.5 58.5t24.5 58.5t58.5 24.5q35 0 59 -24t24 -59q0 -34 -24 -58.5t-59 -24.5q-34 0 -58.5 24.5z" />
    <glyph glyph-name="ldot" unicode="&#x140;" horiz-adv-x="370" 
d="M68 700h130v-700h-130v700zM259.5 276.5q-24.5 24.5 -24.5 58.5t24.5 58.5t58.5 24.5q35 0 59 -24t24 -59q0 -34 -24 -58.5t-59 -24.5q-34 0 -58.5 24.5z" />
    <glyph glyph-name="Lslash" unicode="&#x141;" horiz-adv-x="677" 
d="M132 234l-93 -52v135l93 52v331h135v-255l172 96v-134l-172 -97v-190h395v-120h-530v234z" />
    <glyph glyph-name="lslash" unicode="&#x142;" horiz-adv-x="362" 
d="M117 300l-80 -45v120l80 45v280h130v-206l80 45v-120l-80 -45v-374h-130v300z" />
    <glyph glyph-name="Nacute" unicode="&#x143;" horiz-adv-x="749" 
d="M82 700h175l275 -513v513h135v-700h-175l-275 515v-515h-135v700zM371 890h155l-105 -145h-90z" />
    <glyph glyph-name="nacute" unicode="&#x144;" horiz-adv-x="586" 
d="M68 500h130v-59q21 33 58 51.5t86 18.5q82 0 131.5 -53.5t49.5 -141.5v-316h-130v291q0 52 -22.5 80t-65.5 28h-2q-45 0 -75 -36t-30 -93v-270h-130v500zM284 700h146l-100 -150h-79z" />
    <glyph glyph-name="uni0145" unicode="&#x145;" horiz-adv-x="749" 
d="M82 700h175l275 -513v513h135v-700h-175l-275 515v-515h-135v700zM295 -212h13q54 0 54 37v3h-52v107h130v-107q0 -46 -35.5 -74t-91.5 -28h-18v62z" />
    <glyph glyph-name="uni0146" unicode="&#x146;" horiz-adv-x="586" 
d="M68 500h130v-59q21 33 58 51.5t86 18.5q82 0 131.5 -53.5t49.5 -141.5v-316h-130v291q0 52 -22.5 80t-65.5 28h-2q-45 0 -75 -36t-30 -93v-270h-130v500zM216 -212h13q54 0 54 37v3h-52v107h130v-107q0 -46 -35.5 -74t-91.5 -28h-18v62z" />
    <glyph glyph-name="Ncaron" unicode="&#x147;" horiz-adv-x="749" 
d="M82 700h175l275 -513v513h135v-700h-175l-275 515v-515h-135v700zM186 890h110l80 -58l80 58h110l-120 -145h-140z" />
    <glyph glyph-name="ncaron" unicode="&#x148;" horiz-adv-x="586" 
d="M68 500h130v-59q21 33 58 51.5t86 18.5q82 0 131.5 -53.5t49.5 -141.5v-316h-130v291q0 52 -22.5 80t-65.5 28h-2q-45 0 -75 -36t-30 -93v-270h-130v500zM116 700h80l100 -72l100 72h80l-100 -150h-160z" />
    <glyph glyph-name="Eng" unicode="&#x14a;" horiz-adv-x="749" 
d="M403 -90h67q62 0 62 61v29l-315 477v-477h-135v700h140l310 -471v471h135v-739q0 -77 -40.5 -119t-112.5 -42h-111v110z" />
    <glyph glyph-name="eng" unicode="&#x14b;" horiz-adv-x="590" 
d="M289 -84h49q33 0 46 13.5t13 45.5v316q0 52 -23.5 80t-66.5 28h-2q-46 0 -76.5 -36.5t-30.5 -92.5v-270h-130v500h130v-59q21 32 59 51t87 19q82 0 132.5 -53.5t50.5 -141.5v-360q0 -74 -38.5 -112t-112.5 -38h-87v110z" />
    <glyph glyph-name="Omacron" unicode="&#x14c;" horiz-adv-x="774" 
d="M211.5 35.5q-78.5 45.5 -123.5 127.5t-45 187q0 106 45 187.5t123.5 127t175.5 45.5t175.5 -45.5t123.5 -127t45 -187.5q0 -105 -45 -187t-123.5 -127.5t-175.5 -45.5t-175.5 45.5zM497 141q46 29 71.5 83t25.5 126q0 73 -25.5 126.5t-71.5 82.5t-105 29h-10
q-59 0 -105 -29t-71.5 -82.5t-25.5 -126.5q0 -72 25.5 -126t71.5 -83t105 -29h10q59 0 105 29zM219 875h335v-110h-335v110z" />
    <glyph glyph-name="omacron" unicode="&#x14d;" horiz-adv-x="586" 
d="M162.5 23.5q-58.5 34.5 -91.5 94t-33 133.5q0 73 33 132.5t91.5 93.5t130.5 34q73 0 131 -34t91 -93.5t33 -132.5q0 -74 -33 -133.5t-91 -94t-131 -34.5q-72 0 -130.5 34.5zM383.5 139q33.5 42 33.5 112q0 69 -33.5 110.5t-88.5 41.5h-5q-54 0 -88 -41.5t-34 -110.5
q0 -70 34 -112t88 -42h5q55 0 88.5 42zM140 670h305v-105h-305v105z" />
    <glyph glyph-name="Obreve" unicode="&#x14e;" horiz-adv-x="774" 
d="M211.5 35.5q-78.5 45.5 -123.5 127.5t-45 187q0 106 45 187.5t123.5 127t175.5 45.5t175.5 -45.5t123.5 -127t45 -187.5q0 -105 -45 -187t-123.5 -127.5t-175.5 -45.5t-175.5 45.5zM497 141q46 29 71.5 83t25.5 126q0 73 -25.5 126.5t-71.5 82.5t-105 29h-10
q-59 0 -105 -29t-71.5 -82.5t-25.5 -126.5q0 -72 25.5 -126t71.5 -83t105 -29h10q59 0 105 29zM265.5 781q-47.5 41 -48.5 109h110q3 -27 19.5 -41t40.5 -14t40.5 14t19.5 41h110q-1 -68 -48.5 -109t-121.5 -41t-121.5 41z" />
    <glyph glyph-name="obreve" unicode="&#x14f;" horiz-adv-x="586" 
d="M162.5 23.5q-58.5 34.5 -91.5 94t-33 133.5q0 73 33 132.5t91.5 93.5t130.5 34q73 0 131 -34t91 -93.5t33 -132.5q0 -74 -33 -133.5t-91 -94t-131 -34.5q-72 0 -130.5 34.5zM383.5 139q33.5 42 33.5 112q0 69 -33.5 110.5t-88.5 41.5h-5q-54 0 -88 -41.5t-34 -110.5
q0 -70 34 -112t88 -42h5q55 0 88.5 42zM171 588.5q-45 36.5 -46 111.5h112q2 -31 15.5 -48t40.5 -17t41 17.5t16 47.5h111q-1 -75 -46 -111.5t-122 -36.5t-122 36.5z" />
    <glyph glyph-name="Ohungarumlaut" unicode="&#x150;" horiz-adv-x="774" 
d="M211.5 35.5q-78.5 45.5 -123.5 127.5t-45 187q0 106 45 187.5t123.5 127t175.5 45.5t175.5 -45.5t123.5 -127t45 -187.5q0 -105 -45 -187t-123.5 -127.5t-175.5 -45.5t-175.5 45.5zM497 141q46 29 71.5 83t25.5 126q0 73 -25.5 126.5t-71.5 82.5t-105 29h-10
q-59 0 -105 -29t-71.5 -82.5t-25.5 -126.5q0 -72 25.5 -126t71.5 -83t105 -29h10q59 0 105 29zM479 890h155l-105 -145h-90zM290 890h155l-105 -145h-90z" />
    <glyph glyph-name="ohungarumlaut" unicode="&#x151;" horiz-adv-x="586" 
d="M162.5 23.5q-58.5 34.5 -91.5 94t-33 133.5q0 73 33 132.5t91.5 93.5t130.5 34q73 0 131 -34t91 -93.5t33 -132.5q0 -74 -33 -133.5t-91 -94t-131 -34.5q-72 0 -130.5 34.5zM383.5 139q33.5 42 33.5 112q0 69 -33.5 110.5t-88.5 41.5h-5q-54 0 -88 -41.5t-34 -110.5
q0 -70 34 -112t88 -42h5q55 0 88.5 42zM196 700h146l-100 -150h-79zM375 700h146l-100 -150h-79z" />
    <glyph glyph-name="OE" unicode="&#x152;" horiz-adv-x="1174" 
d="M211.5 35.5q-78.5 45.5 -123.5 127.5t-45 187q0 106 45 187.5t123.5 127t175.5 45.5q118 0 204 -67v57h530v-120h-395v-161h335v-120h-335v-179h405v-120h-540v57q-86 -67 -204 -67q-97 0 -175.5 45.5zM497 141q46 29 71.5 83t25.5 126q0 73 -25.5 127t-71.5 83t-105 29
h-10q-59 0 -105 -29t-71.5 -83t-25.5 -127q0 -72 25.5 -126t71.5 -83t105 -29h10q59 0 105 29z" />
    <glyph glyph-name="oe" unicode="&#x153;" horiz-adv-x="940" 
d="M162.5 23.5q-58.5 34.5 -91.5 94t-33 133.5q0 73 33 132.5t91.5 93.5t130.5 34q57 0 106 -21.5t83 -59.5q33 39 80 60t102 21q63 0 114 -26.5t82.5 -76.5t37.5 -118q3 -38 2 -81h-352q3 -50 36 -82t79 -32h6q36 0 61.5 18t33.5 45h129q-18 -75 -78 -122t-151 -47
q-54 0 -101 21.5t-80 60.5q-35 -38 -84 -60t-106 -22q-72 0 -130.5 34.5zM383.5 139q33.5 42 33.5 112q0 69 -33.5 110.5t-88.5 41.5h-5q-54 0 -88 -41.5t-34 -110.5q0 -70 34 -112t88 -42h5q55 0 88.5 42zM738 379.5q-29 25.5 -72 25.5h-6q-42 0 -72 -25t-37 -71h220
q-4 45 -33 70.5z" />
    <glyph glyph-name="Racute" unicode="&#x154;" horiz-adv-x="689" 
d="M82 700h324q64 0 114.5 -25.5t79.5 -69.5t29 -99q0 -66 -30.5 -110.5t-85.5 -65.5q106 -13 106 -133v-103q0 -59 6 -94h-136q-5 20 -5 66v120q0 42 -19 60.5t-62 18.5h-186v-265h-135v700zM460.5 409.5q30.5 26.5 30.5 73.5t-30 72t-88 25h-156v-197h156q57 0 87.5 26.5z
M325 890h155l-105 -145h-90z" />
    <glyph glyph-name="racute" unicode="&#x155;" horiz-adv-x="391" 
d="M68 500h129v-93q16 45 55 72t93 27h22v-120h-36q-64 0 -98.5 -39t-34.5 -110v-237h-130v500zM198 700h146l-100 -150h-79z" />
    <glyph glyph-name="uni0156" unicode="&#x156;" horiz-adv-x="689" 
d="M82 700h324q64 0 114.5 -25.5t79.5 -69.5t29 -99q0 -66 -30.5 -110.5t-85.5 -65.5q106 -13 106 -133v-103q0 -59 6 -94h-136q-5 20 -5 66v120q0 42 -19 60.5t-62 18.5h-186v-265h-135v700zM460.5 409.5q30.5 26.5 30.5 73.5t-30 72t-88 25h-156v-197h156q57 0 87.5 26.5z
M264 -212h13q54 0 54 37v3h-52v107h130v-107q0 -46 -35.5 -74t-91.5 -28h-18v62z" />
    <glyph glyph-name="uni0157" unicode="&#x157;" horiz-adv-x="391" 
d="M68 500h129v-93q16 45 55 72t93 27h22v-120h-36q-64 0 -98.5 -39t-34.5 -110v-237h-130v500zM53 -212h13q54 0 54 37v3h-52v107h130v-107q0 -46 -35.5 -74t-91.5 -28h-18v62z" />
    <glyph glyph-name="Rcaron" unicode="&#x158;" horiz-adv-x="689" 
d="M82 700h324q64 0 114.5 -25.5t79.5 -69.5t29 -99q0 -66 -30.5 -110.5t-85.5 -65.5q106 -13 106 -133v-103q0 -59 6 -94h-136q-5 20 -5 66v120q0 42 -19 60.5t-62 18.5h-186v-265h-135v700zM460.5 409.5q30.5 26.5 30.5 73.5t-30 72t-88 25h-156v-197h156q57 0 87.5 26.5z
M140 890h110l80 -58l80 58h110l-120 -145h-140z" />
    <glyph glyph-name="rcaron" unicode="&#x159;" horiz-adv-x="391" 
d="M68 500h129v-93q16 45 55 72t93 27h22v-120h-36q-64 0 -98.5 -39t-34.5 -110v-237h-130v500zM30 700h80l100 -72l100 72h80l-100 -150h-160z" />
    <glyph glyph-name="Sacute" unicode="&#x15a;" horiz-adv-x="640" 
d="M111.5 54q-72.5 64 -75.5 180h134q2 -58 39.5 -91t110.5 -33h9q58 0 92.5 23t34.5 62q0 32 -22 53t-73 31l-120 23q-183 35 -183 198q0 57 32 105t91.5 76.5t139.5 28.5q82 0 142.5 -29t93 -80.5t34.5 -119.5h-135q-6 52 -42 80.5t-96 28.5h-9q-51 0 -84 -25t-33 -61
q0 -33 20.5 -50.5t67.5 -25.5l117 -21q95 -17 146.5 -70t51.5 -137q0 -62 -33 -109.5t-95 -74t-145 -26.5q-138 0 -210.5 64zM317 890h155l-105 -145h-90z" />
    <glyph glyph-name="sacute" unicode="&#x15b;" horiz-adv-x="498" 
d="M91.5 36.5q-55.5 46.5 -57.5 125.5h123q2 -35 26.5 -53.5t63.5 -18.5h6q33 0 54 14t21 37q0 20 -13.5 31.5t-42.5 17.5l-73 15q-150 31 -150 151q0 70 55 112.5t141 42.5q98 0 153 -46t57 -123h-125q-4 32 -25.5 50t-58.5 18h-7q-32 0 -50 -13.5t-18 -35.5q0 -20 15 -31
t48 -18l82 -17q142 -29 142 -150q0 -45 -25.5 -80.5t-73.5 -55t-112 -19.5q-100 0 -155.5 46.5zM235 700h146l-100 -150h-79z" />
    <glyph glyph-name="Scircumflex" unicode="&#x15c;" horiz-adv-x="640" 
d="M111.5 54q-72.5 64 -75.5 180h134q2 -58 39.5 -91t110.5 -33h9q58 0 92.5 23t34.5 62q0 32 -22 53t-73 31l-120 23q-183 35 -183 198q0 57 32 105t91.5 76.5t139.5 28.5q82 0 142.5 -29t93 -80.5t34.5 -119.5h-135q-6 52 -42 80.5t-96 28.5h-9q-51 0 -84 -25t-33 -61
q0 -33 20.5 -50.5t67.5 -25.5l117 -21q95 -17 146.5 -70t51.5 -137q0 -62 -33 -109.5t-95 -74t-145 -26.5q-138 0 -210.5 64zM252 890h140l120 -145h-110l-80 58l-80 -58h-110z" />
    <glyph glyph-name="scircumflex" unicode="&#x15d;" horiz-adv-x="498" 
d="M91.5 36.5q-55.5 46.5 -57.5 125.5h123q2 -35 26.5 -53.5t63.5 -18.5h6q33 0 54 14t21 37q0 20 -13.5 31.5t-42.5 17.5l-73 15q-150 31 -150 151q0 70 55 112.5t141 42.5q98 0 153 -46t57 -123h-125q-4 32 -25.5 50t-58.5 18h-7q-32 0 -50 -13.5t-18 -35.5q0 -20 15 -31
t48 -18l82 -17q142 -29 142 -150q0 -45 -25.5 -80.5t-73.5 -55t-112 -19.5q-100 0 -155.5 46.5zM167 700h160l100 -150h-80l-100 72l-100 -72h-80z" />
    <glyph glyph-name="Scedilla" unicode="&#x15e;" horiz-adv-x="640" 
d="M242 -170h85q19 0 29.5 7.5t10.5 22.5q0 12 -8.5 21t-26.5 9h-55v102q-116 10 -177 72.5t-64 169.5h134q2 -58 39.5 -91t110.5 -33h9q58 0 92.5 23t34.5 62q0 32 -22 53t-73 31l-120 23q-183 35 -183 198q0 57 32 105t91.5 76.5t139.5 28.5q82 0 142.5 -29t93 -80.5
t34.5 -119.5h-135q-6 52 -42 80.5t-96 28.5h-9q-51 0 -84 -25t-33 -61q0 -33 20.5 -50.5t67.5 -25.5l117 -21q95 -17 146.5 -70t51.5 -137q0 -90 -67 -146.5t-181 -62.5v-36q40 0 67.5 -24.5t27.5 -70.5q0 -48 -33.5 -76.5t-86.5 -28.5h-80v75z" />
    <glyph glyph-name="scedilla" unicode="&#x15f;" horiz-adv-x="498" 
d="M177 -170h85q19 0 29.5 7.5t10.5 22.5q0 12 -8.5 21t-26.5 9h-55v102q-84 8 -130 53t-48 117h123q2 -35 26.5 -53.5t63.5 -18.5h6q33 0 54 14t21 37q0 20 -13.5 31.5t-42.5 17.5l-73 15q-150 31 -150 151q0 70 55 112.5t141 42.5q98 0 153 -46t57 -123h-125
q-4 32 -25.5 50t-58.5 18h-7q-32 0 -50 -13.5t-18 -35.5q0 -20 15 -31t48 -18l82 -17q142 -29 142 -150q0 -63 -47.5 -104.5t-128.5 -48.5v-37q40 0 67.5 -24.5t27.5 -70.5q0 -48 -33.5 -76.5t-86.5 -28.5h-80v75z" />
    <glyph glyph-name="Scaron" unicode="&#x160;" horiz-adv-x="640" 
d="M111.5 54q-72.5 64 -75.5 180h134q2 -58 39.5 -91t110.5 -33h9q58 0 92.5 23t34.5 62q0 32 -22 53t-73 31l-120 23q-183 35 -183 198q0 57 32 105t91.5 76.5t139.5 28.5q82 0 142.5 -29t93 -80.5t34.5 -119.5h-135q-6 52 -42 80.5t-96 28.5h-9q-51 0 -84 -25t-33 -61
q0 -33 20.5 -50.5t67.5 -25.5l117 -21q95 -17 146.5 -70t51.5 -137q0 -62 -33 -109.5t-95 -74t-145 -26.5q-138 0 -210.5 64zM132 890h110l80 -58l80 58h110l-120 -145h-140z" />
    <glyph glyph-name="scaron" unicode="&#x161;" horiz-adv-x="498" 
d="M91.5 36.5q-55.5 46.5 -57.5 125.5h123q2 -35 26.5 -53.5t63.5 -18.5h6q33 0 54 14t21 37q0 20 -13.5 31.5t-42.5 17.5l-73 15q-150 31 -150 151q0 70 55 112.5t141 42.5q98 0 153 -46t57 -123h-125q-4 32 -25.5 50t-58.5 18h-7q-32 0 -50 -13.5t-18 -35.5q0 -20 15 -31
t48 -18l82 -17q142 -29 142 -150q0 -45 -25.5 -80.5t-73.5 -55t-112 -19.5q-100 0 -155.5 46.5zM67 700h80l100 -72l100 72h80l-100 -150h-160z" />
    <glyph glyph-name="uni0162" unicode="&#x162;" horiz-adv-x="652" 
d="M258 580h-242v120h620v-120h-243v-580h-32v-45q40 0 67.5 -24.5t27.5 -70.5q0 -48 -33.5 -76.5t-86.5 -28.5h-80v75h85q19 0 29.5 7.5t10.5 22.5q0 12 -8.5 21t-26.5 9h-55v110h-33v580z" />
    <glyph glyph-name="uni0163" unicode="&#x163;" horiz-adv-x="409" 
d="M256 0v-45q40 0 67.5 -24.5t27.5 -70.5q0 -48 -33.5 -76.5t-86.5 -28.5h-80v75h85q19 0 29.5 7.5t10.5 22.5q0 12 -8.5 21t-26.5 9h-55v127q-65 34 -65 129v249h-104v105h104v162h129v-162h114v-105h-114v-227q0 -33 12.5 -45.5t46.5 -12.5h69v-110h-111h-11z" />
    <glyph glyph-name="Tcaron" unicode="&#x164;" horiz-adv-x="652" 
d="M258 580h-242v120h620v-120h-243v-580h-135v580zM136 890h110l80 -58l80 58h110l-120 -145h-140z" />
    <glyph glyph-name="tcaron" unicode="&#x165;" horiz-adv-x="409" 
d="M158 37.5q-37 37.5 -37 108.5v249h-104v105h104v162h129v-162h114v-105h-114v-227q0 -33 12.5 -45.5t46.5 -12.5h69v-110h-111q-72 0 -109 37.5zM308 620h18q27 0 40.5 10.5t13.5 29.5v2h-50v119h121v-113q0 -53 -32 -84.5t-89 -31.5h-22v68z" />
    <glyph glyph-name="Tbar" unicode="&#x166;" horiz-adv-x="668" 
d="M266 300h-170v115h170v165h-242v120h620v-120h-243v-165h170v-115h-170v-300h-135v300z" />
    <glyph glyph-name="tbar" unicode="&#x167;" horiz-adv-x="419" 
d="M165 37.5q-37 37.5 -37 108.5v80h-104v91h104v84h-104v99h104v162h128v-162h115v-99h-115v-84h115v-91h-115v-58q0 -33 12.5 -45.5t45.5 -12.5h75v-110h-115q-72 0 -109 37.5z" />
    <glyph glyph-name="Utilde" unicode="&#x168;" horiz-adv-x="702" 
d="M144 56q-68 66 -68 189v455h135v-435q0 -81 33 -118t102 -37h10q69 0 102 37t33 118v435h135v-455q0 -123 -68 -189t-207 -66t-207 66zM350 774l-18 10q-27 16 -45 16q-15 0 -23 -11t-8 -29h-95v26q0 47 32.5 80.5t79.5 33.5q25 0 40.5 -5t34.5 -15l18 -10q34 -20 49 -20
t22.5 11t7.5 29h95v-26q0 -50 -27.5 -82t-82.5 -32q-38 0 -80 24z" />
    <glyph glyph-name="utilde" unicode="&#x169;" horiz-adv-x="576" 
d="M110.5 41.5q-47.5 52.5 -47.5 141.5v317h130v-291q0 -108 82 -108h2q47 0 74 36t27 112v251h130v-500h-130v59q-21 -33 -56 -51.5t-83 -18.5q-81 0 -128.5 52.5zM285 579l-18 11q-13 8 -22 11.5t-20 3.5q-13 0 -23.5 -11.5t-10.5 -28.5h-95v26q0 47 32.5 80.5t79.5 33.5
q44 0 75 -20l18 -11q32 -19 49 -19q13 0 21.5 11.5t8.5 28.5h95v-26q0 -46 -33 -80t-77 -34q-40 0 -80 24z" />
    <glyph glyph-name="Umacron" unicode="&#x16a;" horiz-adv-x="702" 
d="M144 56q-68 66 -68 189v455h135v-435q0 -81 33 -118t102 -37h10q69 0 102 37t33 118v435h135v-455q0 -123 -68 -189t-207 -66t-207 66zM183 875h335v-110h-335v110z" />
    <glyph glyph-name="umacron" unicode="&#x16b;" horiz-adv-x="576" 
d="M110.5 41.5q-47.5 52.5 -47.5 141.5v317h130v-291q0 -108 82 -108h2q47 0 74 36t27 112v251h130v-500h-130v59q-21 -33 -56 -51.5t-83 -18.5q-81 0 -128.5 52.5zM133 670h305v-105h-305v105z" />
    <glyph glyph-name="Ubreve" unicode="&#x16c;" horiz-adv-x="702" 
d="M144 56q-68 66 -68 189v455h135v-435q0 -81 33 -118t102 -37h10q69 0 102 37t33 118v435h135v-455q0 -123 -68 -189t-207 -66t-207 66zM229.5 781q-47.5 41 -48.5 109h110q3 -27 19.5 -41t40.5 -14t40.5 14t19.5 41h110q-1 -68 -48.5 -109t-121.5 -41t-121.5 41z" />
    <glyph glyph-name="ubreve" unicode="&#x16d;" horiz-adv-x="576" 
d="M110.5 41.5q-47.5 52.5 -47.5 141.5v317h130v-291q0 -108 82 -108h2q47 0 74 36t27 112v251h130v-500h-130v59q-21 -33 -56 -51.5t-83 -18.5q-81 0 -128.5 52.5zM164 588.5q-45 36.5 -46 111.5h112q2 -31 15.5 -48t40.5 -17t41 17.5t16 47.5h111q-1 -75 -46 -111.5
t-122 -36.5t-122 36.5z" />
    <glyph glyph-name="Uring" unicode="&#x16e;" horiz-adv-x="702" 
d="M144 56q-68 66 -68 189v455h135v-435q0 -81 33 -118t102 -37h10q69 0 102 37t33 118v435h135v-455q0 -123 -68 -189t-207 -66t-207 66zM274 762q-33 32 -33 78q0 28 15.5 53.5t41 41t53.5 15.5q46 0 78 -33t32 -77q0 -47 -31.5 -78.5t-78.5 -31.5q-44 0 -77 32z
M379.5 812q11.5 12 11.5 28t-11.5 28t-27.5 12t-28 -12t-12 -28t12 -28t28 -12t27.5 12z" />
    <glyph glyph-name="uring" unicode="&#x16f;" horiz-adv-x="576" 
d="M110.5 41.5q-47.5 52.5 -47.5 141.5v317h130v-291q0 -108 82 -108h2q47 0 74 36t27 112v251h130v-500h-130v59q-21 -33 -56 -51.5t-83 -18.5q-81 0 -128.5 52.5zM212.5 570.5q-31.5 30.5 -31.5 74.5q0 41 32 73t73 32q44 0 74.5 -31.5t30.5 -73.5q0 -45 -30 -75t-75 -30
q-42 0 -73.5 30.5zM317.5 614q12.5 13 12.5 31t-12.5 31t-30.5 13t-31 -13t-13 -31t13 -31t31 -13t30.5 13z" />
    <glyph glyph-name="Uhungarumlaut" unicode="&#x170;" horiz-adv-x="702" 
d="M144 56q-68 66 -68 189v455h135v-435q0 -81 33 -118t102 -37h10q69 0 102 37t33 118v435h135v-455q0 -123 -68 -189t-207 -66t-207 66zM443 890h155l-105 -145h-90zM254 890h155l-105 -145h-90z" />
    <glyph glyph-name="uhungarumlaut" unicode="&#x171;" horiz-adv-x="576" 
d="M110.5 41.5q-47.5 52.5 -47.5 141.5v317h130v-291q0 -108 82 -108h2q47 0 74 36t27 112v251h130v-500h-130v59q-21 -33 -56 -51.5t-83 -18.5q-81 0 -128.5 52.5zM189 700h146l-100 -150h-79zM368 700h146l-100 -150h-79z" />
    <glyph glyph-name="Uogonek" unicode="&#x172;" horiz-adv-x="702" 
d="M310 -192q-34 28 -34 72q0 65 62 110q-133 4 -197.5 69.5t-64.5 185.5v455h135v-435q0 -81 33 -118t102 -37h10q69 0 102 37t33 118v435h135v-455q0 -89 -34 -145.5t-111 -92.5q-62 -29 -88.5 -49t-26.5 -48q0 -25 14.5 -37.5t35.5 -12.5h30v-80h-50q-52 0 -86 28z" />
    <glyph glyph-name="uogonek" unicode="&#x173;" horiz-adv-x="576" 
d="M110.5 41.5q-47.5 52.5 -47.5 141.5v317h130v-291q0 -108 82 -108h2q47 0 74 36t27 112v251h130v-500q-34 -20 -57 -41.5t-23 -48.5q0 -25 14.5 -37.5t35.5 -12.5h30v-80h-50q-52 0 -86 28t-34 72q0 73 76 120h-36v59q-21 -33 -56 -51.5t-83 -18.5q-81 0 -128.5 52.5z
" />
    <glyph glyph-name="Wcircumflex" unicode="&#x174;" horiz-adv-x="954" 
d="M22 700h139l125 -555l110 555h165l110 -555l121 555h140l-173 -700h-175l-107 510l-108 -510h-175zM409 890h140l120 -145h-110l-80 58l-80 -58h-110z" />
    <glyph glyph-name="wcircumflex" unicode="&#x175;" horiz-adv-x="785" 
d="M11 500h131l100 -371l81 371h139l87 -368l95 368h126l-143 -500h-146l-88 350l-83 -350h-146zM313 700h160l100 -150h-80l-100 72l-100 -72h-80z" />
    <glyph glyph-name="Ycircumflex" unicode="&#x176;" horiz-adv-x="661" 
d="M263 280l-260 420h153l179 -294l176 294h148l-261 -420v-280h-135v280zM264 890h140l120 -145h-110l-80 58l-80 -58h-110z" />
    <glyph glyph-name="ycircumflex" unicode="&#x177;" horiz-adv-x="556" 
d="M19 -88h96q32 0 49.5 11t27.5 37l28 72l-231 468h146l148 -304l117 304h144l-232 -582q-26 -65 -67 -91.5t-107 -26.5h-119v112zM188 700h160l100 -150h-80l-100 72l-100 -72h-80z" />
    <glyph glyph-name="Ydieresis" unicode="&#x178;" horiz-adv-x="661" 
d="M263 280l-260 420h153l179 -294l176 294h148l-261 -420v-280h-135v280zM389.5 783.5q-19.5 19.5 -19.5 46.5q0 28 19.5 47t47.5 19q27 0 46.5 -19t19.5 -47q0 -27 -19.5 -46.5t-46.5 -19.5q-28 0 -47.5 19.5zM185.5 783.5q-19.5 19.5 -19.5 46.5q0 28 19.5 47t46.5 19
q28 0 47.5 -19t19.5 -47q0 -27 -19.5 -46.5t-47.5 -19.5q-27 0 -46.5 19.5z" />
    <glyph glyph-name="Zacute" unicode="&#x179;" horiz-adv-x="631" 
d="M38 115l388 465h-378v120h535v-115l-388 -465h398v-120h-555v115zM311 890h155l-105 -145h-90z" />
    <glyph glyph-name="zacute" unicode="&#x17a;" horiz-adv-x="510" 
d="M40 100l258 285h-253v115h415v-100l-258 -285h273v-115h-435v100zM241 700h146l-100 -150h-79z" />
    <glyph glyph-name="Zdotaccent" unicode="&#x17b;" horiz-adv-x="631" 
d="M38 115l388 465h-378v120h535v-115l-388 -465h398v-120h-555v115zM261 781q-23 23 -23 55t23 55.5t55 23.5t55.5 -23.5t23.5 -55.5t-23.5 -55t-55.5 -23t-55 23z" />
    <glyph glyph-name="zdotaccent" unicode="&#x17c;" horiz-adv-x="510" 
d="M40 100l258 285h-253v115h415v-100l-258 -285h273v-115h-435v100zM196.5 586.5q-23.5 23.5 -23.5 55.5q0 33 23.5 56t56.5 23q32 0 55.5 -23t23.5 -56q0 -32 -23.5 -55.5t-55.5 -23.5q-33 0 -56.5 23.5z" />
    <glyph glyph-name="Zcaron" unicode="&#x17d;" horiz-adv-x="631" 
d="M38 115l388 465h-378v120h535v-115l-388 -465h398v-120h-555v115zM126 890h110l80 -58l80 58h110l-120 -145h-140z" />
    <glyph glyph-name="zcaron" unicode="&#x17e;" horiz-adv-x="510" 
d="M40 100l258 285h-253v115h415v-100l-258 -285h273v-115h-435v100zM73 700h80l100 -72l100 72h80l-100 -150h-160z" />
    <glyph glyph-name="florin" unicode="&#x192;" horiz-adv-x="418" 
d="M-65 -85h60q41 0 59 16t23 54l57 371h-98v112h115l6 42q16 103 58.5 146.5t130.5 43.5h74v-115h-60q-39 0 -55 -15.5t-22 -54.5l-7 -47h116v-112h-133l-56 -366q-16 -102 -60.5 -146t-134.5 -44h-73v115z" />
    <glyph glyph-name="uni01E2" unicode="&#x1e2;" horiz-adv-x="978" 
d="M346 700h548v-120h-343l24 -161h289v-120h-274l26 -179h338v-120h-455l-24 165h-264l-83 -165h-147zM458 285l-41 287l-145 -287h186zM442 875h335v-110h-335v110z" />
    <glyph glyph-name="uni01E3" unicode="&#x1e3;" horiz-adv-x="882" 
d="M86 31q-48 42 -48 111q0 145 201 160l125 10v14q0 39 -26 61t-68 22h-3q-37 0 -61.5 -16.5t-30.5 -44.5h-126q6 45 34.5 82t76.5 59t110 22q56 0 98.5 -17.5t69.5 -48.5q33 32 75.5 49t92.5 17q63 0 114.5 -26.5t83 -77t37.5 -118.5q2 -26 2 -41l-1 -30h-352
q3 -57 36 -92t79 -35h6q36 0 61.5 19t33.5 48h129q-18 -75 -78 -122t-151 -47q-62 0 -111 23.5t-81 67.5q-29 -40 -79 -65.5t-122 -25.5q-79 0 -127 42zM327.5 122q36.5 31 36.5 86v14l-114 -9q-44 -4 -66.5 -21t-22.5 -44q0 -25 20.5 -41t55.5 -16h3q51 0 87.5 31z
M679.5 383q-29.5 27 -71.5 27h-6q-42 0 -72 -26.5t-37 -72.5h220q-4 45 -33.5 72zM286 670h305v-105h-305v105z" />
    <glyph glyph-name="Aringacute" unicode="&#x1fa;" horiz-adv-x="712" 
d="M279 700h158l270 -700h-143l-59 153h-303l-58 -153h-142zM460 273l-106 277l-106 -277h212zM294.5 754.5q-25.5 25.5 -25.5 63.5t25.5 63.5t63.5 25.5t63.5 -25.5t25.5 -63.5t-25.5 -63.5t-63.5 -25.5t-63.5 25.5zM381 794q10 10 10 24t-10 24t-23 10t-23.5 -10
t-10.5 -24q0 -13 10.5 -23.5t23.5 -10.5t23 10zM348 1026h125l-72 -98h-79z" />
    <glyph glyph-name="aringacute" unicode="&#x1fb;" horiz-adv-x="552" 
d="M85.5 32q-47.5 42 -47.5 110q0 72 51 111t151 48l124 11v14q0 38 -26 59t-68 21h-3q-37 0 -61.5 -16t-30.5 -42h-126q6 45 34.5 82t76.5 59t110 22q104 0 161 -53t57 -142v-204q0 -64 7 -112h-120q-6 29 -6 62q-24 -31 -66 -51.5t-93 -20.5q-77 0 -124.5 42zM327.5 124
q36.5 30 36.5 84v11l-114 -9q-89 -7 -89 -62q0 -24 20.5 -39t55.5 -15h3q51 0 87.5 30zM195.5 560.5q-31.5 30.5 -31.5 74.5q0 41 32 73t73 32q44 0 74.5 -31.5t30.5 -73.5q0 -45 -30 -75t-75 -30q-42 0 -73.5 30.5zM301.5 604q12.5 13 12.5 31t-12.5 31t-30.5 13t-31 -13
t-13 -31t13 -31t31 -13t30.5 13zM258 901h150l-96 -135h-79z" />
    <glyph glyph-name="AEacute" unicode="&#x1fc;" horiz-adv-x="978" 
d="M346 700h548v-120h-343l24 -161h289v-120h-274l26 -179h338v-120h-455l-24 165h-264l-83 -165h-147zM458 285l-41 287l-145 -287h186zM605 890h155l-105 -145h-90z" />
    <glyph glyph-name="aeacute" unicode="&#x1fd;" horiz-adv-x="882" 
d="M86 31q-48 42 -48 111q0 145 201 160l125 10v14q0 39 -26 61t-68 22h-3q-37 0 -61.5 -16.5t-30.5 -44.5h-126q6 45 34.5 82t76.5 59t110 22q56 0 98.5 -17.5t69.5 -48.5q33 32 75.5 49t92.5 17q63 0 114.5 -26.5t83 -77t37.5 -118.5q2 -26 2 -41l-1 -30h-352
q3 -57 36 -92t79 -35h6q36 0 61.5 19t33.5 48h129q-18 -75 -78 -122t-151 -47q-62 0 -111 23.5t-81 67.5q-29 -40 -79 -65.5t-122 -25.5q-79 0 -127 42zM327.5 122q36.5 31 36.5 86v14l-114 -9q-44 -4 -66.5 -21t-22.5 -44q0 -25 20.5 -41t55.5 -16h3q51 0 87.5 31z
M679.5 383q-29.5 27 -71.5 27h-6q-42 0 -72 -26.5t-37 -72.5h220q-4 45 -33.5 72zM427 700h146l-100 -150h-79z" />
    <glyph glyph-name="Oslashacute" unicode="&#x1fe;" horiz-adv-x="778" 
d="M216 34l-62 -79l-95 74l66 83q-79 98 -79 238q0 106 45 187.5t123.5 127t175.5 45.5q95 0 172 -43l62 78l95 -74l-64 -82q38 -46 58.5 -107t20.5 -132q0 -105 -45 -187t-123.5 -127.5t-175.5 -45.5q-95 0 -174 44zM500 141q46 29 71.5 83t25.5 126q0 75 -28 131
l-275 -348q41 -21 91 -21h10q59 0 105 29zM210 221l274 347q-40 20 -89 20h-10q-59 0 -105 -29t-71.5 -82.5t-25.5 -126.5t27 -129zM383 890h155l-105 -145h-90z" />
    <glyph glyph-name="oslashacute" unicode="&#x1ff;" horiz-adv-x="590" 
d="M181 15l-49 -64l-84 70l48 62q-56 72 -56 168q0 73 33 132.5t91.5 93.5t130.5 34q59 0 110 -23l49 63l89 -66l-50 -65q57 -71 57 -169q0 -74 -33 -133.5t-91 -94t-131 -34.5q-62 0 -114 26zM385.5 139q33.5 42 33.5 112q0 34 -8 61l-161 -207q21 -8 42 -8h5q55 0 88.5 42
zM178 191l158 206q-18 6 -39 6h-5q-54 0 -88 -41.5t-34 -110.5q0 -33 8 -60zM283 700h146l-100 -150h-79z" />
    <glyph glyph-name="uni0218" unicode="&#x218;" horiz-adv-x="640" 
d="M111.5 54q-72.5 64 -75.5 180h134q2 -58 39.5 -91t110.5 -33h9q58 0 92.5 23t34.5 62q0 32 -22 53t-73 31l-120 23q-183 35 -183 198q0 57 32 105t91.5 76.5t139.5 28.5q82 0 142.5 -29t93 -80.5t34.5 -119.5h-135q-6 52 -42 80.5t-96 28.5h-9q-51 0 -84 -25t-33 -61
q0 -33 20.5 -50.5t67.5 -25.5l117 -21q95 -17 146.5 -70t51.5 -137q0 -62 -33 -109.5t-95 -74t-145 -26.5q-138 0 -210.5 64zM232 -212h13q54 0 54 37v3h-52v107h130v-107q0 -46 -35.5 -74t-91.5 -28h-18v62z" />
    <glyph glyph-name="uni0219" unicode="&#x219;" horiz-adv-x="498" 
d="M91.5 36.5q-55.5 46.5 -57.5 125.5h123q2 -35 26.5 -53.5t63.5 -18.5h6q33 0 54 14t21 37q0 20 -13.5 31.5t-42.5 17.5l-73 15q-150 31 -150 151q0 70 55 112.5t141 42.5q98 0 153 -46t57 -123h-125q-4 32 -25.5 50t-58.5 18h-7q-32 0 -50 -13.5t-18 -35.5q0 -20 15 -31
t48 -18l82 -17q142 -29 142 -150q0 -45 -25.5 -80.5t-73.5 -55t-112 -19.5q-100 0 -155.5 46.5zM167 -212h13q54 0 54 37v3h-52v107h130v-107q0 -46 -35.5 -74t-91.5 -28h-18v62z" />
    <glyph glyph-name="uni021A" unicode="&#x21a;" horiz-adv-x="652" 
d="M258 580h-242v120h620v-120h-243v-580h-135v580zM246 -212h13q54 0 54 37v3h-52v107h130v-107q0 -46 -35.5 -74t-91.5 -28h-18v62z" />
    <glyph glyph-name="uni021B" unicode="&#x21b;" horiz-adv-x="409" 
d="M158 37.5q-37 37.5 -37 108.5v249h-104v105h104v162h129v-162h114v-105h-114v-227q0 -33 12.5 -45.5t46.5 -12.5h69v-110h-111q-72 0 -109 37.5zM141 -212h13q54 0 54 37v3h-52v107h130v-107q0 -46 -35.5 -74t-91.5 -28h-18v62z" />
    <glyph glyph-name="uni0226" unicode="&#x226;" horiz-adv-x="712" 
d="M279 700h158l270 -700h-143l-59 153h-303l-58 -153h-142zM460 273l-106 277l-106 -277h212zM303 781q-23 23 -23 55t23 55.5t55 23.5t55.5 -23.5t23.5 -55.5t-23.5 -55t-55.5 -23t-55 23z" />
    <glyph glyph-name="uni0227" unicode="&#x227;" horiz-adv-x="552" 
d="M85.5 32q-47.5 42 -47.5 110q0 72 51 111t151 48l124 11v14q0 38 -26 59t-68 21h-3q-37 0 -61.5 -16t-30.5 -42h-126q6 45 34.5 82t76.5 59t110 22q104 0 161 -53t57 -142v-204q0 -64 7 -112h-120q-6 29 -6 62q-24 -31 -66 -51.5t-93 -20.5q-77 0 -124.5 42zM327.5 124
q36.5 30 36.5 84v11l-114 -9q-89 -7 -89 -62q0 -24 20.5 -39t55.5 -15h3q51 0 87.5 30zM214.5 586.5q-23.5 23.5 -23.5 55.5q0 33 23.5 56t56.5 23q32 0 55.5 -23t23.5 -56q0 -32 -23.5 -55.5t-55.5 -23.5q-33 0 -56.5 23.5z" />
    <glyph glyph-name="uni0232" unicode="&#x232;" horiz-adv-x="661" 
d="M263 280l-260 420h153l179 -294l176 294h148l-261 -420v-280h-135v280zM166 875h335v-110h-335v110z" />
    <glyph glyph-name="uni0233" unicode="&#x233;" horiz-adv-x="556" 
d="M19 -88h96q32 0 49.5 11t27.5 37l28 72l-231 468h146l148 -304l117 304h144l-232 -582q-26 -65 -67 -91.5t-107 -26.5h-119v112zM115 670h305v-105h-305v105z" />
    <glyph glyph-name="uni0237" unicode="&#x237;" horiz-adv-x="266" 
d="M-90 -90h108q23 0 36.5 14t13.5 41v535h130v-544q0 -75 -39 -115.5t-114 -40.5h-135v110z" />
    <glyph glyph-name="uni02BC" unicode="&#x2bc;" horiz-adv-x="273" 
d="M47 480h36q32 0 47 18t15 47v10h-65v145h145v-160q0 -35 -17.5 -66t-49 -50t-70.5 -19h-41v75z" />
    <glyph glyph-name="circumflex" unicode="&#x2c6;" horiz-adv-x="420" 
d="M130 700h160l100 -150h-80l-100 72l-100 -72h-80z" />
    <glyph glyph-name="caron" unicode="&#x2c7;" horiz-adv-x="420" 
d="M30 700h80l100 -72l100 72h80l-100 -150h-160z" />
    <glyph glyph-name="breve" unicode="&#x2d8;" horiz-adv-x="400" 
d="M78 588.5q-45 36.5 -46 111.5h112q2 -31 15.5 -48t40.5 -17t41 17.5t16 47.5h111q-1 -75 -46 -111.5t-122 -36.5t-122 36.5z" />
    <glyph glyph-name="dotaccent" unicode="&#x2d9;" horiz-adv-x="237" 
d="M62.5 586.5q-23.5 23.5 -23.5 55.5q0 33 23.5 56t56.5 23q32 0 55.5 -23t23.5 -56q0 -32 -23.5 -55.5t-55.5 -23.5q-33 0 -56.5 23.5z" />
    <glyph glyph-name="ring" unicode="&#x2da;" horiz-adv-x="270" 
d="M61.5 570.5q-31.5 30.5 -31.5 74.5q0 41 32 73t73 32q44 0 74.5 -31.5t30.5 -73.5q0 -45 -30 -75t-75 -30q-42 0 -73.5 30.5zM166.5 614q12.5 13 12.5 31t-12.5 31t-30.5 13t-31 -13t-13 -31t13 -31t31 -13t30.5 13z" />
    <glyph glyph-name="ogonek" unicode="&#x2db;" horiz-adv-x="230" 
d="M64 -192q-34 28 -34 72q0 49 31 82.5t74 52.5l65 -15q-34 -20 -57 -41.5t-23 -48.5q0 -25 14.5 -37.5t35.5 -12.5h30v-80h-50q-52 0 -86 28z" />
    <glyph glyph-name="tilde" unicode="&#x2dc;" horiz-adv-x="439" 
d="M219 579l-18 11q-13 8 -22 11.5t-20 3.5q-13 0 -23.5 -11.5t-10.5 -28.5h-95v26q0 47 32.5 80.5t79.5 33.5q44 0 75 -20l18 -11q32 -19 49 -19q13 0 21.5 11.5t8.5 28.5h95v-26q0 -46 -33 -80t-77 -34q-40 0 -80 24z" />
    <glyph glyph-name="hungarumlaut" unicode="&#x2dd;" horiz-adv-x="394" 
d="M39 700h146l-100 -150h-79zM218 700h146l-100 -150h-79z" />
    <glyph glyph-name="gravecomb" unicode="&#x300;" horiz-adv-x="0" 
d="M30 700h146l33 -150h-79z" />
    <glyph glyph-name="acutecomb" unicode="&#x301;" horiz-adv-x="0" 
d="M59 700h146l-100 -150h-79z" />
    <glyph glyph-name="uni0302" unicode="&#x302;" horiz-adv-x="0" 
d="M130 700h160l100 -150h-80l-100 72l-100 -72h-80z" />
    <glyph glyph-name="tildecomb" unicode="&#x303;" horiz-adv-x="0" 
d="M219 579l-18 11q-13 8 -22 11.5t-20 3.5q-13 0 -23.5 -11.5t-10.5 -28.5h-95v26q0 47 32.5 80.5t79.5 33.5q44 0 75 -20l18 -11q32 -19 49 -19q13 0 21.5 11.5t8.5 28.5h95v-26q0 -46 -33 -80t-77 -34q-40 0 -80 24z" />
    <glyph glyph-name="uni0304" unicode="&#x304;" horiz-adv-x="0" 
d="M30 670h305v-105h-305v105z" />
    <glyph glyph-name="uni0306" unicode="&#x306;" horiz-adv-x="0" 
d="M78 588.5q-45 36.5 -46 111.5h112q2 -31 15.5 -48t40.5 -17t41 17.5t16 47.5h111q-1 -75 -46 -111.5t-122 -36.5t-122 36.5z" />
    <glyph glyph-name="uni0307" unicode="&#x307;" horiz-adv-x="0" 
d="M53.5 586.5q-23.5 23.5 -23.5 55.5q0 33 23.5 56t56.5 23q32 0 55.5 -23t23.5 -56q0 -32 -23.5 -55.5t-55.5 -23.5q-33 0 -56.5 23.5z" />
    <glyph glyph-name="uni0308" unicode="&#x308;" horiz-adv-x="0" 
d="M247.5 587.5q-19.5 19.5 -19.5 46.5q0 28 19.5 47t46.5 19q28 0 47.5 -19t19.5 -47q0 -27 -19.5 -46.5t-47.5 -19.5q-27 0 -46.5 19.5zM49.5 587.5q-19.5 19.5 -19.5 46.5q0 28 19.5 47t46.5 19t46.5 -19t19.5 -47q0 -27 -19.5 -46.5t-46.5 -19.5t-46.5 19.5z" />
    <glyph glyph-name="uni030A" unicode="&#x30a;" horiz-adv-x="0" 
d="M61.5 570.5q-31.5 30.5 -31.5 74.5q0 41 32 73t73 32q44 0 74.5 -31.5t30.5 -73.5q0 -45 -30 -75t-75 -30q-42 0 -73.5 30.5zM166.5 614q12.5 13 12.5 31t-12.5 31t-30.5 13t-31 -13t-13 -31t13 -31t31 -13t30.5 13z" />
    <glyph glyph-name="uni030B" unicode="&#x30b;" horiz-adv-x="0" 
d="M39 700h146l-100 -150h-79zM218 700h146l-100 -150h-79z" />
    <glyph glyph-name="uni030C" unicode="&#x30c;" horiz-adv-x="0" 
d="M30 700h80l100 -72l100 72h80l-100 -150h-160z" />
    <glyph glyph-name="uni0312" unicode="&#x312;" horiz-adv-x="0" 
d="M60.5 782.5q35.5 32.5 91.5 32.5h28v-75h-23q-27 0 -40.5 -10t-13.5 -28v-2h52v-130h-130v130q0 50 35.5 82.5z" />
    <glyph glyph-name="dotbelowcomb" unicode="&#x323;" horiz-adv-x="0" 
d="M77 -187q-21 21 -21 50q0 30 21 50.5t50 20.5t50 -20.5t21 -50.5q0 -29 -21 -50t-50 -21t-50 21z" />
    <glyph glyph-name="uni0326" unicode="&#x326;" horiz-adv-x="0" 
d="M40 -212h13q54 0 54 37v3h-52v107h130v-107q0 -46 -35.5 -74t-91.5 -28h-18v62z" />
    <glyph glyph-name="uni0327" unicode="&#x327;" horiz-adv-x="0" 
d="M30 -170h85q19 0 29.5 7.5t10.5 22.5q0 12 -8.5 21t-26.5 9h-55v135h70v-70q40 0 67.5 -24.5t27.5 -70.5q0 -48 -33.5 -76.5t-86.5 -28.5h-80v75z" />
    <glyph glyph-name="uni0328" unicode="&#x328;" horiz-adv-x="0" 
d="M64 -192q-34 28 -34 72q0 49 31 82.5t74 52.5l65 -15q-34 -20 -57 -41.5t-23 -48.5q0 -25 14.5 -37.5t35.5 -12.5h30v-80h-50q-52 0 -86 28z" />
    <glyph glyph-name="uni0335" unicode="&#x335;" horiz-adv-x="0" 
d="M30 438h475v-115h-475v115z" />
    <glyph glyph-name="uni0336" unicode="&#x336;" horiz-adv-x="0" 
d="M30 607h695v-115h-695v115z" />
    <glyph glyph-name="uni0337" unicode="&#x337;" horiz-adv-x="0" 
d="M30 378l290 164v-120l-290 -164v120z" />
    <glyph glyph-name="uni0338" unicode="&#x338;" horiz-adv-x="0" 
d="M30 29l565 716l95 -74l-565 -716z" />
    <glyph glyph-name="Wgrave" unicode="&#x1e80;" horiz-adv-x="954" 
d="M22 700h139l125 -555l110 555h165l110 -555l121 555h140l-173 -700h-175l-107 510l-108 -510h-175zM333 890h155l40 -145h-90z" />
    <glyph glyph-name="wgrave" unicode="&#x1e81;" horiz-adv-x="785" 
d="M11 500h131l100 -371l81 371h139l87 -368l95 368h126l-143 -500h-146l-88 350l-83 -350h-146zM258 700h146l33 -150h-79z" />
    <glyph glyph-name="Wacute" unicode="&#x1e82;" horiz-adv-x="954" 
d="M22 700h139l125 -555l110 555h165l110 -555l121 555h140l-173 -700h-175l-107 510l-108 -510h-175zM474 890h155l-105 -145h-90z" />
    <glyph glyph-name="wacute" unicode="&#x1e83;" horiz-adv-x="785" 
d="M11 500h131l100 -371l81 371h139l87 -368l95 368h126l-143 -500h-146l-88 350l-83 -350h-146zM381 700h146l-100 -150h-79z" />
    <glyph glyph-name="Wdieresis" unicode="&#x1e84;" horiz-adv-x="954" 
d="M22 700h139l125 -555l110 555h165l110 -555l121 555h140l-173 -700h-175l-107 510l-108 -510h-175zM534.5 783.5q-19.5 19.5 -19.5 46.5q0 28 19.5 47t47.5 19q27 0 46.5 -19t19.5 -47q0 -27 -19.5 -46.5t-46.5 -19.5q-28 0 -47.5 19.5zM330.5 783.5
q-19.5 19.5 -19.5 46.5q0 28 19.5 47t46.5 19q28 0 47.5 -19t19.5 -47q0 -27 -19.5 -46.5t-47.5 -19.5q-27 0 -46.5 19.5z" />
    <glyph glyph-name="wdieresis" unicode="&#x1e85;" horiz-adv-x="785" 
d="M11 500h131l100 -371l81 371h139l87 -368l95 368h126l-143 -500h-146l-88 350l-83 -350h-146zM445.5 587.5q-19.5 19.5 -19.5 46.5q0 28 19.5 47t46.5 19q28 0 47.5 -19t19.5 -47q0 -27 -19.5 -46.5t-47.5 -19.5q-27 0 -46.5 19.5zM247.5 587.5q-19.5 19.5 -19.5 46.5
q0 28 19.5 47t46.5 19t46.5 -19t19.5 -47q0 -27 -19.5 -46.5t-46.5 -19.5t-46.5 19.5z" />
    <glyph glyph-name="uni1E9E" unicode="&#x1e9e;" horiz-adv-x="657" 
d="M82 700h275q98 0 156.5 -49t58.5 -131q0 -57 -33.5 -100t-79.5 -55q41 -3 77.5 -25t58.5 -59.5t22 -85.5q0 -90 -63 -142.5t-172 -52.5h-85v120h77q52 0 80 24t28 66q0 41 -28 61.5t-81 20.5h-76v116h20q61 0 90.5 23.5t29.5 63.5q0 39 -27 62t-78 23h-115v-580h-135v700
z" />
    <glyph glyph-name="uni1EA0" unicode="&#x1ea0;" horiz-adv-x="712" 
d="M279 700h158l270 -700h-143l-59 153h-303l-58 -153h-142zM460 273l-106 277l-106 -277h212zM304 -187q-21 21 -21 50q0 30 21 50.5t50 20.5t50 -20.5t21 -50.5q0 -29 -21 -50t-50 -21t-50 21z" />
    <glyph glyph-name="uni1EA1" unicode="&#x1ea1;" horiz-adv-x="552" 
d="M85.5 32q-47.5 42 -47.5 110q0 72 51 111t151 48l124 11v14q0 38 -26 59t-68 21h-3q-37 0 -61.5 -16t-30.5 -42h-126q6 45 34.5 82t76.5 59t110 22q104 0 161 -53t57 -142v-204q0 -64 7 -112h-120q-6 29 -6 62q-24 -31 -66 -51.5t-93 -20.5q-77 0 -124.5 42zM327.5 124
q36.5 30 36.5 84v11l-114 -9q-89 -7 -89 -62q0 -24 20.5 -39t55.5 -15h3q51 0 87.5 30zM210 -187q-21 21 -21 50q0 30 21 50.5t50 20.5t50 -20.5t21 -50.5q0 -29 -21 -50t-50 -21t-50 21z" />
    <glyph glyph-name="uni1EB8" unicode="&#x1eb8;" horiz-adv-x="665" 
d="M82 700h530v-120h-395v-161h335v-120h-335v-179h405v-120h-540v700zM302 -187q-21 21 -21 50q0 30 21 50.5t50 20.5t50 -20.5t21 -50.5q0 -29 -21 -50t-50 -21t-50 21z" />
    <glyph glyph-name="uni1EB9" unicode="&#x1eb9;" horiz-adv-x="557" 
d="M158.5 21.5q-55.5 32.5 -87.5 92t-32 136.5q0 76 31 135.5t86.5 92.5t124.5 33q63 0 114 -26.5t82.5 -76.5t37.5 -118q3 -38 2 -81h-352q3 -50 36 -82t79 -32h6q36 0 61.5 18t33.5 45h129q-18 -75 -78 -122t-151 -47q-67 0 -122.5 32.5zM355 379.5q-29 25.5 -72 25.5h-6
q-42 0 -72 -25t-37 -71h220q-4 45 -33 70.5zM231 -187q-21 21 -21 50q0 30 21 50.5t50 20.5t50 -20.5t21 -50.5q0 -29 -21 -50t-50 -21t-50 21z" />
    <glyph glyph-name="uni1ECA" unicode="&#x1eca;" horiz-adv-x="299" 
d="M82 700h135v-700h-135v700zM100 -187q-21 21 -21 50q0 30 21 50.5t50 20.5t50 -20.5t21 -50.5q0 -29 -21 -50t-50 -21t-50 21z" />
    <glyph glyph-name="uni1ECB" unicode="&#x1ecb;" horiz-adv-x="266" 
d="M68 500h130v-500h-130v500zM76.5 586.5q-23.5 23.5 -23.5 55.5q0 33 23.5 56t56.5 23q32 0 55.5 -23t23.5 -56q0 -32 -23.5 -55.5t-55.5 -23.5q-33 0 -56.5 23.5zM83 -187q-21 21 -21 50q0 30 21 50.5t50 20.5t50 -20.5t21 -50.5q0 -29 -21 -50t-50 -21t-50 21z" />
    <glyph glyph-name="uni1ECC" unicode="&#x1ecc;" horiz-adv-x="774" 
d="M211.5 35.5q-78.5 45.5 -123.5 127.5t-45 187q0 106 45 187.5t123.5 127t175.5 45.5t175.5 -45.5t123.5 -127t45 -187.5q0 -105 -45 -187t-123.5 -127.5t-175.5 -45.5t-175.5 45.5zM497 141q46 29 71.5 83t25.5 126q0 73 -25.5 126.5t-71.5 82.5t-105 29h-10
q-59 0 -105 -29t-71.5 -82.5t-25.5 -126.5q0 -72 25.5 -126t71.5 -83t105 -29h10q59 0 105 29zM337 -187q-21 21 -21 50q0 30 21 50.5t50 20.5t50 -20.5t21 -50.5q0 -29 -21 -50t-50 -21t-50 21z" />
    <glyph glyph-name="uni1ECD" unicode="&#x1ecd;" horiz-adv-x="586" 
d="M162.5 23.5q-58.5 34.5 -91.5 94t-33 133.5q0 73 33 132.5t91.5 93.5t130.5 34q73 0 131 -34t91 -93.5t33 -132.5q0 -74 -33 -133.5t-91 -94t-131 -34.5q-72 0 -130.5 34.5zM383.5 139q33.5 42 33.5 112q0 69 -33.5 110.5t-88.5 41.5h-5q-54 0 -88 -41.5t-34 -110.5
q0 -70 34 -112t88 -42h5q55 0 88.5 42zM243 -187q-21 21 -21 50q0 30 21 50.5t50 20.5t50 -20.5t21 -50.5q0 -29 -21 -50t-50 -21t-50 21z" />
    <glyph glyph-name="uni1EE4" unicode="&#x1ee4;" horiz-adv-x="702" 
d="M144 56q-68 66 -68 189v455h135v-435q0 -81 33 -118t102 -37h10q69 0 102 37t33 118v435h135v-455q0 -123 -68 -189t-207 -66t-207 66zM301 -187q-21 21 -21 50q0 30 21 50.5t50 20.5t50 -20.5t21 -50.5q0 -29 -21 -50t-50 -21t-50 21z" />
    <glyph glyph-name="uni1EE5" unicode="&#x1ee5;" horiz-adv-x="576" 
d="M110.5 41.5q-47.5 52.5 -47.5 141.5v317h130v-291q0 -108 82 -108h2q47 0 74 36t27 112v251h130v-500h-130v59q-21 -33 -56 -51.5t-83 -18.5q-81 0 -128.5 52.5zM236 -187q-21 21 -21 50q0 30 21 50.5t50 20.5t50 -20.5t21 -50.5q0 -29 -21 -50t-50 -21t-50 21z" />
    <glyph glyph-name="Ygrave" unicode="&#x1ef2;" horiz-adv-x="661" 
d="M263 280l-260 420h153l179 -294l176 294h148l-261 -420v-280h-135v280zM188 890h155l40 -145h-90z" />
    <glyph glyph-name="ygrave" unicode="&#x1ef3;" horiz-adv-x="556" 
d="M19 -88h96q32 0 49.5 11t27.5 37l28 72l-231 468h146l148 -304l117 304h144l-232 -582q-26 -65 -67 -91.5t-107 -26.5h-119v112zM133 700h146l33 -150h-79z" />
    <glyph glyph-name="uni2002" unicode="&#x2002;" horiz-adv-x="500" 
 />
    <glyph glyph-name="uni2003" unicode="&#x2003;" horiz-adv-x="1000" 
 />
    <glyph glyph-name="uni2009" unicode="&#x2009;" horiz-adv-x="125" 
 />
    <glyph glyph-name="uni200A" unicode="&#x200a;" horiz-adv-x="42" 
 />
    <glyph glyph-name="endash" unicode="&#x2013;" horiz-adv-x="578" 
d="M54 355h470v-105h-470v105z" />
    <glyph glyph-name="emdash" unicode="&#x2014;" horiz-adv-x="898" 
d="M54 355h790v-105h-790v105z" />
    <glyph glyph-name="uni2015" unicode="&#x2015;" horiz-adv-x="898" 
d="M54 355h790v-105h-790v105z" />
    <glyph glyph-name="quoteleft" unicode="&#x2018;" horiz-adv-x="275" 
d="M233 625h-36q-32 0 -47 -18t-15 -47v-10h65v-145h-145v160q0 35 17.5 66t49 50t70.5 19h41v-75z" />
    <glyph glyph-name="quoteright" unicode="&#x2019;" horiz-adv-x="273" 
d="M47 480h36q32 0 47 18t15 47v10h-65v145h145v-160q0 -35 -17.5 -66t-49 -50t-70.5 -19h-41v75z" />
    <glyph glyph-name="quotesinglbase" unicode="&#x201a;" horiz-adv-x="269" 
d="M29 -75h36q32 0 47 18t15 47v10h-65v145h145v-160q0 -35 -17.5 -66t-49 -50t-70.5 -19h-41v75z" />
    <glyph glyph-name="quotedblleft" unicode="&#x201c;" horiz-adv-x="480" 
d="M233 625h-36q-32 0 -47 -18t-15 -47v-10h65v-145h-145v160q0 35 17.5 66t49 50t70.5 19h41v-75zM438 625h-36q-32 0 -47 -18t-15 -47v-10h65v-145h-145v160q0 35 17.5 66t49 50t70.5 19h41v-75z" />
    <glyph glyph-name="quotedblright" unicode="&#x201d;" horiz-adv-x="478" 
d="M252 480h36q32 0 47 18t15 47v10h-65v145h145v-160q0 -35 -17.5 -66t-49 -50t-70.5 -19h-41v75zM47 480h36q32 0 47 18t15 47v10h-65v145h145v-160q0 -35 -17.5 -66t-49 -50t-70.5 -19h-41v75z" />
    <glyph glyph-name="quotedblbase" unicode="&#x201e;" horiz-adv-x="474" 
d="M234 -75h36q32 0 47 18t15 47v10h-65v145h145v-160q0 -35 -17.5 -66t-49 -50t-70.5 -19h-41v75zM29 -75h36q32 0 47 18t15 47v10h-65v145h145v-160q0 -35 -17.5 -66t-49 -50t-70.5 -19h-41v75z" />
    <glyph glyph-name="dagger" unicode="&#x2020;" horiz-adv-x="484" 
d="M177 455h-152v110h152v220h130v-220h152v-110h-152v-540h-130v540z" />
    <glyph glyph-name="daggerdbl" unicode="&#x2021;" horiz-adv-x="516" 
d="M193 135h-152v110h152v210h-152v110h152v220h130v-220h152v-110h-152v-210h152v-110h-152v-220h-130v220z" />
    <glyph glyph-name="bullet" unicode="&#x2022;" horiz-adv-x="358" 
d="M98.5 269.5q-33.5 33.5 -33.5 80.5t33.5 80.5t80.5 33.5t80.5 -33.5t33.5 -80.5t-33.5 -80.5t-80.5 -33.5t-80.5 33.5z" />
    <glyph glyph-name="ellipsis" unicode="&#x2026;" horiz-adv-x="770" 
d="M71.5 14.5q-24.5 24.5 -24.5 58.5t24.5 58.5t58.5 24.5q35 0 59 -24t24 -59q0 -34 -24 -58.5t-59 -24.5q-34 0 -58.5 24.5zM326.5 14.5q-24.5 24.5 -24.5 58.5t24.5 58.5t58.5 24.5q35 0 59 -24t24 -59q0 -34 -24 -58.5t-59 -24.5q-34 0 -58.5 24.5zM581.5 14.5
q-24.5 24.5 -24.5 58.5t24.5 58.5t58.5 24.5q35 0 59 -24t24 -59q0 -34 -24 -58.5t-59 -24.5q-34 0 -58.5 24.5z" />
    <glyph glyph-name="perthousand" unicode="&#x2030;" horiz-adv-x="1188" 
d="M72.5 356.5q-45.5 56.5 -45.5 145.5t46 146t129 57q84 0 130 -57t46 -146t-46 -145.5t-130 -56.5t-129.5 56.5zM258.5 415q18.5 33 18.5 87q0 55 -18.5 88t-54.5 33h-4q-35 0 -53.5 -33t-18.5 -88q0 -54 18.5 -87t53.5 -33h4q36 0 54.5 33zM619 700h117l-420 -700h-117z
M600.5 51.5q-45.5 56.5 -45.5 145.5t46 146t129 57q81 0 128 -55q47 55 127 55q84 0 130 -57t46 -146t-46 -145.5t-130 -56.5q-81 0 -127 54q-47 -54 -128 -54q-84 0 -129.5 56.5zM786.5 110q18.5 33 18.5 87q0 55 -18.5 88t-54.5 33h-4q-35 0 -53.5 -33t-18.5 -88
q0 -54 18.5 -87t53.5 -33h4q36 0 54.5 33zM1041.5 110q18.5 33 18.5 87q0 55 -18.5 88t-54.5 33h-4q-35 0 -53.5 -33t-18.5 -88q0 -54 18.5 -87t53.5 -33h4q36 0 54.5 33z" />
    <glyph glyph-name="guilsinglleft" unicode="&#x2039;" horiz-adv-x="363" 
d="M32 285l145 215h150l-145 -215l145 -215h-150z" />
    <glyph glyph-name="guilsinglright" unicode="&#x203a;" horiz-adv-x="363" 
d="M181 285l-145 215h150l145 -215l-145 -215h-150z" />
    <glyph glyph-name="fraction" unicode="&#x2044;" horiz-adv-x="200" 
d="M251 700h117l-420 -700h-117z" />
    <glyph glyph-name="uni2070" unicode="&#x2070;" horiz-adv-x="409" 
d="M74.5 466.5q-45.5 56.5 -45.5 145.5t46 146t129 57q84 0 130 -57t46 -146t-46 -145.5t-130 -56.5t-129.5 56.5zM260.5 525q18.5 33 18.5 87q0 55 -18.5 88t-54.5 33h-4q-35 0 -53.5 -33t-18.5 -88q0 -54 18.5 -87t53.5 -33h4q36 0 54.5 33z" />
    <glyph glyph-name="uni2074" unicode="&#x2074;" horiz-adv-x="382" 
d="M210 488h-192v91l178 231h105v-245h56v-77h-56v-73h-91v73zM210 565v137l-105 -137h105z" />
    <glyph glyph-name="uni2075" unicode="&#x2075;" horiz-adv-x="362" 
d="M71.5 443q-42.5 33 -46.5 89h100q4 -19 18.5 -30.5t34.5 -11.5h4q23 0 38 15.5t15 38.5t-14 37.5t-37 14.5h-3q-29 0 -46 -23h-103l36 237h250v-81h-176l-12 -81q28 25 75 25q53 0 91 -34t38 -90q0 -64 -43.5 -101.5t-113.5 -37.5q-63 0 -105.5 33z" />
    <glyph glyph-name="uni2076" unicode="&#x2076;" horiz-adv-x="377" 
d="M73.5 460.5q-43.5 50.5 -43.5 142.5q0 97 44.5 154.5t125.5 57.5q62 0 100.5 -33t43.5 -83h-98q-5 16 -18 26t-31 10h-5q-30 0 -48 -28t-21 -75q14 20 37.5 32t53.5 12q58 0 95.5 -35.5t37.5 -92.5q0 -60 -42.5 -99t-111.5 -39q-76 0 -119.5 50.5zM233.5 505.5
q15.5 15.5 15.5 38.5t-15.5 38t-40.5 15h-3q-23 0 -39.5 -15t-16.5 -38t16 -38.5t39 -15.5h4q25 0 40.5 15.5z" />
    <glyph glyph-name="uni2077" unicode="&#x2077;" horiz-adv-x="324" 
d="M203 727h-188v83h294v-76q-59 -52 -93 -125.5t-34 -166.5v-27h-102v25q0 176 123 287z" />
    <glyph glyph-name="uni2078" unicode="&#x2078;" horiz-adv-x="368" 
d="M74 440q-44 30 -44 79q0 35 21 60t56 38q-32 10 -50.5 34.5t-18.5 56.5q0 49 41 78t105 29t105.5 -29t41.5 -78q0 -33 -19 -57t-52 -34q36 -12 57 -37t21 -61q0 -49 -44 -79t-110 -30t-110 30zM224.5 501.5q15.5 11.5 15.5 30.5t-15.5 30.5t-37.5 11.5h-5
q-22 0 -38 -11.5t-16 -30.5t15.5 -30.5t38.5 -11.5h5q22 0 37.5 11.5zM219.5 665q13.5 12 13.5 30t-13.5 29t-32.5 11h-5q-20 0 -33 -11t-13 -29t13 -30t33 -12h5q19 0 32.5 12z" />
    <glyph glyph-name="uni2079" unicode="&#x2079;" horiz-adv-x="377" 
d="M76.5 443q-37.5 33 -43.5 83h98q4 -16 17 -26t31 -10h5q31 0 48.5 27.5t22.5 76.5q-15 -21 -39.5 -33t-55.5 -12q-55 0 -92.5 36t-37.5 92q0 60 42 99t111 39q76 0 120 -50t44 -138q0 -102 -43.5 -159.5t-126.5 -57.5q-63 0 -100.5 33zM226 643.5q17 15.5 17 37.5
q0 23 -16 38.5t-40 15.5h-3q-25 0 -40.5 -15t-15.5 -39q0 -23 15.5 -38t39.5 -15h3q23 0 40 15.5z" />
    <glyph glyph-name="uni2080" unicode="&#x2080;" horiz-adv-x="409" 
d="M74.5 -63.5q-45.5 56.5 -45.5 145.5t46 146t129 57q84 0 130 -57t46 -146t-46 -145.5t-130 -56.5t-129.5 56.5zM260.5 -5q18.5 33 18.5 87q0 55 -18.5 88t-54.5 33h-4q-35 0 -53.5 -33t-18.5 -88q0 -54 18.5 -87t53.5 -33h4q36 0 54.5 33z" />
    <glyph glyph-name="uni2081" unicode="&#x2081;" horiz-adv-x="263" 
d="M114 111h-97v64q50 2 80.5 30t39.5 75h75v-395h-98v226z" />
    <glyph glyph-name="uni2082" unicode="&#x2082;" horiz-adv-x="360" 
d="M30 -30l144 123q26 21 38 37t12 35q0 17 -12.5 28t-31.5 11h-4q-19 0 -32 -13.5t-14 -35.5h-100q3 60 45.5 95t106.5 35t103.5 -34t39.5 -83q0 -36 -18 -62t-53 -56l-96 -81h170v-84h-298v85z" />
    <glyph glyph-name="uni2083" unicode="&#x2083;" horiz-adv-x="362" 
d="M68 -88q-43 32 -43 88h100q0 -18 14 -29t34 -11h5q22 0 36.5 11.5t14.5 31.5t-14.5 31t-35.5 11h-38v79h38q20 0 34 11t14 30q0 18 -13 29t-33 11h-5q-18 0 -31 -10.5t-13 -26.5h-101q0 56 42 86.5t106 30.5q63 0 105.5 -30t42.5 -81q0 -31 -16.5 -54.5t-44.5 -34.5
q29 -10 46.5 -32.5t17.5 -55.5q0 -55 -44.5 -86t-109.5 -31t-108 32z" />
    <glyph glyph-name="uni2084" unicode="&#x2084;" horiz-adv-x="382" 
d="M210 -42h-192v91l178 231h105v-245h56v-77h-56v-73h-91v73zM210 35v137l-105 -137h105z" />
    <glyph glyph-name="uni2085" unicode="&#x2085;" horiz-adv-x="362" 
d="M71.5 -87q-42.5 33 -46.5 89h100q4 -19 18.5 -30.5t34.5 -11.5h4q23 0 38 15.5t15 38.5t-14 37.5t-37 14.5h-3q-29 0 -46 -23h-103l36 237h250v-81h-176l-12 -81q28 25 75 25q53 0 91 -34t38 -90q0 -64 -43.5 -101.5t-113.5 -37.5q-63 0 -105.5 33z" />
    <glyph glyph-name="uni2086" unicode="&#x2086;" horiz-adv-x="377" 
d="M73.5 -69.5q-43.5 50.5 -43.5 142.5q0 97 44.5 154.5t125.5 57.5q62 0 100.5 -33t43.5 -83h-98q-5 16 -18 26t-31 10h-5q-30 0 -48 -28t-21 -75q14 20 37.5 32t53.5 12q58 0 95.5 -35.5t37.5 -92.5q0 -60 -42.5 -99t-111.5 -39q-76 0 -119.5 50.5zM233.5 -24.5
q15.5 15.5 15.5 38.5t-15.5 38t-40.5 15h-3q-23 0 -39.5 -15t-16.5 -38t16 -38.5t39 -15.5h4q25 0 40.5 15.5z" />
    <glyph glyph-name="uni2087" unicode="&#x2087;" horiz-adv-x="324" 
d="M203 197h-188v83h294v-76q-59 -52 -93 -125.5t-34 -166.5v-27h-102v25q0 176 123 287z" />
    <glyph glyph-name="uni2088" unicode="&#x2088;" horiz-adv-x="368" 
d="M74 -90q-44 30 -44 79q0 35 21 60t56 38q-32 10 -50.5 34.5t-18.5 56.5q0 49 41 78t105 29t105.5 -29t41.5 -78q0 -33 -19 -57t-52 -34q36 -12 57 -37t21 -61q0 -49 -44 -79t-110 -30t-110 30zM224.5 -28.5q15.5 11.5 15.5 30.5t-15.5 30.5t-37.5 11.5h-5
q-22 0 -38 -11.5t-16 -30.5t15.5 -30.5t38.5 -11.5h5q22 0 37.5 11.5zM219.5 135q13.5 12 13.5 30t-13.5 29t-32.5 11h-5q-20 0 -33 -11t-13 -29t13 -30t33 -12h5q19 0 32.5 12z" />
    <glyph glyph-name="uni2089" unicode="&#x2089;" horiz-adv-x="377" 
d="M76.5 -87q-37.5 33 -43.5 83h98q4 -16 17 -26t31 -10h5q31 0 48.5 27.5t22.5 76.5q-15 -21 -39.5 -33t-55.5 -12q-55 0 -92.5 36t-37.5 92q0 60 42 99t111 39q76 0 120 -50t44 -138q0 -102 -43.5 -159.5t-126.5 -57.5q-63 0 -100.5 33zM226 113.5q17 15.5 17 37.5
q0 23 -16 38.5t-40 15.5h-3q-25 0 -40.5 -15t-15.5 -39q0 -23 15.5 -38t39.5 -15h3q23 0 40 15.5z" />
    <glyph glyph-name="uni20A9" unicode="&#x20a9;" horiz-adv-x="992" 
d="M51 381h68l-78 319h139l72 -319h100l63 319h165l63 -319h98l70 319h140l-79 -319h69v-100h-94l-69 -281h-175l-59 281h-96l-60 -281h-175l-69 281h-93v100zM305 145l27 136h-58zM523 381l-27 129l-27 -129h54zM690 145l30 136h-57z" />
    <glyph glyph-name="Euro" unicode="&#x20ac;" horiz-adv-x="698" 
d="M255 35.5q-62 45.5 -95 129.5l-114 -26v110l88 20q-3 21 -5 61l-83 -18v110l90 20q20 124 91 196t177 72q100 0 169.5 -63t84.5 -167h-133q-8 52 -39.5 83.5t-77.5 31.5h-8q-46 0 -78 -32t-47 -90l172 38v-110l-186 -41v-10l2 -53l142 32v-110l-118 -26q36 -88 113 -88h8
q46 0 77.5 31.5t39.5 83.5h133q-8 -69 -43 -121t-89.5 -80.5t-121.5 -28.5q-87 0 -149 45.5z" />
    <glyph glyph-name="uni20B4" unicode="&#x20b4;" horiz-adv-x="689" 
d="M220.5 14q-57.5 24 -89.5 69t-32 105q0 14 1 22l-49 -5v104l583 54v-104l-398 -37q-3 -10 -3 -27q0 -40 30.5 -67.5t86.5 -27.5h6q108 0 122 104h135q-7 -81 -65.5 -147.5t-195.5 -66.5q-74 0 -131.5 24zM36 455l426 39q2 10 2 20q0 35 -27 60.5t-80 25.5h-6
q-64 0 -89.5 -25.5t-30.5 -69.5h-135q5 84 65 144.5t192 60.5q84 0 139.5 -29.5t80.5 -73.5t25 -90v-11l54 5v-104l-616 -56v104z" />
    <glyph glyph-name="uni20BD" unicode="&#x20bd;" horiz-adv-x="658" 
d="M142 128h-90v112h90v51h-93v118h93v291h265q104 0 164.5 -51t60.5 -155q0 -103 -61.5 -153t-163.5 -50h-130v-51h147v-112h-147v-128h-135v128zM471.5 429q25.5 20 25.5 65t-26 65.5t-79 20.5h-115v-171h115q54 0 79.5 20z" />
    <glyph glyph-name="uni20BF" unicode="&#x20bf;" horiz-adv-x="661" 
d="M82 700h88v120h102v-120h90v120h102v-129q67 -17 105 -63.5t38 -108.5t-32.5 -105t-85.5 -59q58 -12 95.5 -56.5t37.5 -112.5q0 -65 -43.5 -114t-114.5 -65v-127h-102v120h-90v-120h-102v120h-88v700zM459.5 142.5q27.5 22.5 27.5 66.5t-27.5 66t-77.5 22h-165v-177h165
q50 0 77.5 22.5zM446.5 434.5q25.5 21.5 25.5 62.5t-25.5 62t-74.5 21h-155v-167h155q49 0 74.5 21.5z" />
    <glyph glyph-name="uni2105" unicode="&#x2105;" horiz-adv-x="757" 
d="M525 700h117l-420 -700h-117zM449.5 30q-42.5 42 -42.5 106t42.5 106.5t111.5 42.5t111 -42.5t42 -106.5t-42 -106t-111 -42t-111.5 42zM603.5 84.5q15.5 19.5 15.5 51.5t-15.5 52t-41.5 20h-3q-26 0 -42 -20t-16 -52t16 -51.5t42 -19.5h3q26 0 41.5 19.5zM84 452.5
q-41 39.5 -41 109.5q0 68 41 108t109 40q62 0 97.5 -31.5t40.5 -81.5h-94q-9 40 -46 40h-2q-26 0 -39 -21t-13 -54q0 -34 13 -54.5t39 -20.5h2q18 0 30 10t16 28h94q-6 -50 -41 -81t-97 -31q-68 0 -109 39.5z" />
    <glyph glyph-name="uni2113" unicode="&#x2113;" horiz-adv-x="462" 
d="M151 37q-38 37 -38 110v25l-75 -43v132l75 42v231q0 84 42.5 130t119.5 46q92 0 133.5 -51t41.5 -126q0 -167 -171 -265l-36 -21v-67q0 -37 13.5 -51t49.5 -14h82v-115h-125q-74 0 -112 37zM302 440.5q18 37.5 18 85.5q0 36 -11.5 54.5t-31.5 18.5q-34 0 -34 -55v-167
q41 26 59 63.5z" />
    <glyph glyph-name="uni2116" unicode="&#x2116;" horiz-adv-x="1108" 
d="M88 700h175l275 -513v513h135v-700h-175l-275 515v-515h-135v700zM763 350h288v-80h-288v80zM790 451.5q-42 41.5 -42 105.5t42 106t112 42t112 -42t42 -106t-42 -105.5t-112 -41.5t-112 41.5zM940.5 507.5q13.5 17.5 13.5 49.5t-13.5 50t-36.5 18h-4q-23 0 -36.5 -18
t-13.5 -50t13.5 -49.5t36.5 -17.5h4q23 0 36.5 17.5z" />
    <glyph glyph-name="uni2117" unicode="&#x2117;" horiz-adv-x="860" 
d="M235.5 14q-89.5 53 -142.5 142.5t-53 194.5q0 106 52.5 195.5t142.5 142t195 52.5q106 0 195.5 -52.5t142 -142t52.5 -195.5q0 -105 -52.5 -195t-142 -142.5t-195.5 -52.5q-105 0 -194.5 53zM579.5 89q68.5 41 108.5 110.5t40 151.5t-40 151.5t-108.5 110.5t-149.5 41
t-149.5 -41t-108.5 -110.5t-40 -151.5t40 -151.5t108.5 -110.5t149.5 -41t149.5 41zM302 544h183q62 0 96 -36t34 -93q0 -56 -34 -91t-96 -35h-78v-126h-105v381zM500.5 385.5q9.5 10.5 9.5 29.5q0 18 -10.5 29t-27.5 11h-65v-80h67q17 0 26.5 10.5z" />
    <glyph glyph-name="trademark" unicode="&#x2122;" horiz-adv-x="989" 
d="M464 700h152l72 -193l70 193h152v-380h-113v202l-76 -202h-64l-80 209v-209h-113v380zM170 600h-125v100h365v-100h-125v-280h-115v280z" />
    <glyph glyph-name="uni2126" unicode="&#x2126;" horiz-adv-x="794" 
d="M62 120h119q-55 43 -89.5 107t-34.5 145q0 94 42.5 171t120 122t177.5 45t177.5 -45t120 -122t42.5 -171q0 -81 -34.5 -145t-89.5 -107h119v-120h-275v115q64 40 104.5 104t40.5 141q0 104 -54.5 167t-145.5 63h-10q-91 0 -145.5 -63t-54.5 -167q0 -77 40.5 -141
t104.5 -104v-115h-275v120z" />
    <glyph glyph-name="uni2153" unicode="&#x2153;" horiz-adv-x="785" 
d="M114 531h-97v64q50 2 80.5 30t39.5 75h75v-395h-98v226zM498 700h117l-420 -700h-117zM489 27q-43 32 -43 88h100q0 -18 14 -29t34 -11h5q22 0 36.5 11.5t14.5 31.5t-14.5 31t-35.5 11h-38v79h38q20 0 34 11t14 30q0 18 -13 29t-33 11h-5q-18 0 -31 -10.5t-13 -26.5h-101
q0 56 42 86.5t106 30.5q63 0 105.5 -30t42.5 -81q0 -31 -16.5 -54.5t-44.5 -34.5q29 -10 46.5 -32.5t17.5 -55.5q0 -55 -44.5 -86t-109.5 -31t-108 32z" />
    <glyph glyph-name="uni2154" unicode="&#x2154;" horiz-adv-x="892" 
d="M30 390l144 123q26 21 38 37t12 35q0 17 -12.5 28t-31.5 11h-4q-19 0 -32 -13.5t-14 -35.5h-100q3 60 45.5 95t106.5 35t103.5 -34t39.5 -83q0 -36 -18 -62t-53 -56l-96 -81h170v-84h-298v85zM605 700h117l-420 -700h-117zM596 27q-43 32 -43 88h100q0 -18 14 -29t34 -11
h5q22 0 36.5 11.5t14.5 31.5t-14.5 31t-35.5 11h-38v79h38q20 0 34 11t14 30q0 18 -13 29t-33 11h-5q-18 0 -31 -10.5t-13 -26.5h-101q0 56 42 86.5t106 30.5q63 0 105.5 -30t42.5 -81q0 -31 -16.5 -54.5t-44.5 -34.5q29 -10 46.5 -32.5t17.5 -55.5q0 -55 -44.5 -86
t-109.5 -31t-108 32z" />
    <glyph glyph-name="uni2155" unicode="&#x2155;" horiz-adv-x="788" 
d="M114 531h-97v64q50 2 80.5 30t39.5 75h75v-395h-98v226zM498 700h117l-420 -700h-117zM494.5 28q-42.5 33 -46.5 89h100q4 -19 18.5 -30.5t34.5 -11.5h4q23 0 38 15.5t15 38.5t-14 37.5t-37 14.5h-3q-29 0 -46 -23h-103l36 237h250v-81h-176l-12 -81q28 25 75 25
q53 0 91 -34t38 -90q0 -64 -43.5 -101.5t-113.5 -37.5q-63 0 -105.5 33z" />
    <glyph glyph-name="uni2156" unicode="&#x2156;" horiz-adv-x="895" 
d="M30 390l144 123q26 21 38 37t12 35q0 17 -12.5 28t-31.5 11h-4q-19 0 -32 -13.5t-14 -35.5h-100q3 60 45.5 95t106.5 35t103.5 -34t39.5 -83q0 -36 -18 -62t-53 -56l-96 -81h170v-84h-298v85zM605 700h117l-420 -700h-117zM601.5 28q-42.5 33 -46.5 89h100
q4 -19 18.5 -30.5t34.5 -11.5h4q23 0 38 15.5t15 38.5t-14 37.5t-37 14.5h-3q-29 0 -46 -23h-103l36 237h250v-81h-176l-12 -81q28 25 75 25q53 0 91 -34t38 -90q0 -64 -43.5 -101.5t-113.5 -37.5q-63 0 -105.5 33z" />
    <glyph glyph-name="uni2157" unicode="&#x2157;" horiz-adv-x="876" 
d="M68 332q-43 32 -43 88h100q0 -18 14 -29t34 -11h5q22 0 36.5 11.5t14.5 31.5t-14.5 31t-35.5 11h-38v79h38q20 0 34 11t14 30q0 18 -13 29t-33 11h-5q-18 0 -31 -10.5t-13 -26.5h-101q0 56 42 86.5t106 30.5q63 0 105.5 -30t42.5 -81q0 -31 -16.5 -54.5t-44.5 -34.5
q29 -10 46.5 -32.5t17.5 -55.5q0 -55 -44.5 -86t-109.5 -31t-108 32zM586 700h117l-420 -700h-117zM582.5 28q-42.5 33 -46.5 89h100q4 -19 18.5 -30.5t34.5 -11.5h4q23 0 38 15.5t15 38.5t-14 37.5t-37 14.5h-3q-29 0 -46 -23h-103l36 237h250v-81h-176l-12 -81
q28 25 75 25q53 0 91 -34t38 -90q0 -64 -43.5 -101.5t-113.5 -37.5q-63 0 -105.5 33z" />
    <glyph glyph-name="uni2158" unicode="&#x2158;" horiz-adv-x="898" 
d="M210 378h-192v91l178 231h105v-245h56v-77h-56v-73h-91v73zM210 455v137l-105 -137h105zM608 700h117l-420 -700h-117zM604.5 28q-42.5 33 -46.5 89h100q4 -19 18.5 -30.5t34.5 -11.5h4q23 0 38 15.5t15 38.5t-14 37.5t-37 14.5h-3q-29 0 -46 -23h-103l36 237h250v-81
h-176l-12 -81q28 25 75 25q53 0 91 -34t38 -90q0 -64 -43.5 -101.5t-113.5 -37.5q-63 0 -105.5 33z" />
    <glyph glyph-name="uni2159" unicode="&#x2159;" horiz-adv-x="792" 
d="M114 531h-97v64q50 2 80.5 30t39.5 75h75v-395h-98v226zM498 700h117l-420 -700h-117zM486.5 45.5q-43.5 50.5 -43.5 142.5q0 97 44.5 154.5t125.5 57.5q62 0 100.5 -33t43.5 -83h-98q-5 16 -18 26t-31 10h-5q-30 0 -48 -28t-21 -75q14 20 37.5 32t53.5 12
q58 0 95.5 -35.5t37.5 -92.5q0 -60 -42.5 -99t-111.5 -39q-76 0 -119.5 50.5zM646.5 90.5q15.5 15.5 15.5 38.5t-15.5 38t-40.5 15h-3q-23 0 -39.5 -15t-16.5 -38t16 -38.5t39 -15.5h4q25 0 40.5 15.5z" />
    <glyph glyph-name="uni215A" unicode="&#x215a;" horiz-adv-x="879" 
d="M71.5 333q-42.5 33 -46.5 89h100q4 -19 18.5 -30.5t34.5 -11.5h4q23 0 38 15.5t15 38.5t-14 37.5t-37 14.5h-3q-29 0 -46 -23h-103l36 237h250v-81h-176l-12 -81q28 25 75 25q53 0 91 -34t38 -90q0 -64 -43.5 -101.5t-113.5 -37.5q-63 0 -105.5 33zM585 700h117
l-420 -700h-117zM573.5 45.5q-43.5 50.5 -43.5 142.5q0 97 44.5 154.5t125.5 57.5q62 0 100.5 -33t43.5 -83h-98q-5 16 -18 26t-31 10h-5q-30 0 -48 -28t-21 -75q14 20 37.5 32t53.5 12q58 0 95.5 -35.5t37.5 -92.5q0 -60 -42.5 -99t-111.5 -39q-76 0 -119.5 50.5z
M733.5 90.5q15.5 15.5 15.5 38.5t-15.5 38t-40.5 15h-3q-23 0 -39.5 -15t-16.5 -38t16 -38.5t39 -15.5h4q25 0 40.5 15.5z" />
    <glyph glyph-name="oneeighth" unicode="&#x215b;" horiz-adv-x="789" 
d="M114 531h-97v64q50 2 80.5 30t39.5 75h75v-395h-98v226zM498 700h117l-420 -700h-117zM493 25q-44 30 -44 79q0 35 21 60t56 38q-32 10 -50.5 34.5t-18.5 56.5q0 49 41 78t105 29t105.5 -29t41.5 -78q0 -33 -19 -57t-52 -34q36 -12 57 -37t21 -61q0 -49 -44 -79t-110 -30
t-110 30zM643.5 86.5q15.5 11.5 15.5 30.5t-15.5 30.5t-37.5 11.5h-5q-22 0 -38 -11.5t-16 -30.5t15.5 -30.5t38.5 -11.5h5q22 0 37.5 11.5zM638.5 250q13.5 12 13.5 30t-13.5 29t-32.5 11h-5q-20 0 -33 -11t-13 -29t13 -30t33 -12h5q19 0 32.5 12z" />
    <glyph glyph-name="threeeighths" unicode="&#x215c;" horiz-adv-x="877" 
d="M68 332q-43 32 -43 88h100q0 -18 14 -29t34 -11h5q22 0 36.5 11.5t14.5 31.5t-14.5 31t-35.5 11h-38v79h38q20 0 34 11t14 30q0 18 -13 29t-33 11h-5q-18 0 -31 -10.5t-13 -26.5h-101q0 56 42 86.5t106 30.5q63 0 105.5 -30t42.5 -81q0 -31 -16.5 -54.5t-44.5 -34.5
q29 -10 46.5 -32.5t17.5 -55.5q0 -55 -44.5 -86t-109.5 -31t-108 32zM586 700h117l-420 -700h-117zM581 25q-44 30 -44 79q0 35 21 60t56 38q-32 10 -50.5 34.5t-18.5 56.5q0 49 41 78t105 29t105.5 -29t41.5 -78q0 -33 -19 -57t-52 -34q36 -12 57 -37t21 -61q0 -49 -44 -79
t-110 -30t-110 30zM731.5 86.5q15.5 11.5 15.5 30.5t-15.5 30.5t-37.5 11.5h-5q-22 0 -38 -11.5t-16 -30.5t15.5 -30.5t38.5 -11.5h5q22 0 37.5 11.5zM726.5 250q13.5 12 13.5 30t-13.5 29t-32.5 11h-5q-20 0 -33 -11t-13 -29t13 -30t33 -12h5q19 0 32.5 12z" />
    <glyph glyph-name="fiveeighths" unicode="&#x215d;" horiz-adv-x="876" 
d="M71.5 333q-42.5 33 -46.5 89h100q4 -19 18.5 -30.5t34.5 -11.5h4q23 0 38 15.5t15 38.5t-14 37.5t-37 14.5h-3q-29 0 -46 -23h-103l36 237h250v-81h-176l-12 -81q28 25 75 25q53 0 91 -34t38 -90q0 -64 -43.5 -101.5t-113.5 -37.5q-63 0 -105.5 33zM585 700h117
l-420 -700h-117zM580 25q-44 30 -44 79q0 35 21 60t56 38q-32 10 -50.5 34.5t-18.5 56.5q0 49 41 78t105 29t105.5 -29t41.5 -78q0 -33 -19 -57t-52 -34q36 -12 57 -37t21 -61q0 -49 -44 -79t-110 -30t-110 30zM730.5 86.5q15.5 11.5 15.5 30.5t-15.5 30.5t-37.5 11.5h-5
q-22 0 -38 -11.5t-16 -30.5t15.5 -30.5t38.5 -11.5h5q22 0 37.5 11.5zM725.5 250q13.5 12 13.5 30t-13.5 29t-32.5 11h-5q-20 0 -33 -11t-13 -29t13 -30t33 -12h5q19 0 32.5 12z" />
    <glyph glyph-name="seveneighths" unicode="&#x215e;" horiz-adv-x="810" 
d="M203 617h-188v83h294v-76q-59 -52 -93 -125.5t-34 -166.5v-27h-102v25q0 176 123 287zM519 700h117l-420 -700h-117zM514 25q-44 30 -44 79q0 35 21 60t56 38q-32 10 -50.5 34.5t-18.5 56.5q0 49 41 78t105 29t105.5 -29t41.5 -78q0 -33 -19 -57t-52 -34q36 -12 57 -37
t21 -61q0 -49 -44 -79t-110 -30t-110 30zM664.5 86.5q15.5 11.5 15.5 30.5t-15.5 30.5t-37.5 11.5h-5q-22 0 -38 -11.5t-16 -30.5t15.5 -30.5t38.5 -11.5h5q22 0 37.5 11.5zM659.5 250q13.5 12 13.5 30t-13.5 29t-32.5 11h-5q-20 0 -33 -11t-13 -29t13 -30t33 -12h5
q19 0 32.5 12z" />
    <glyph glyph-name="uni215F" unicode="&#x215f;" horiz-adv-x="447" 
d="M114 531h-97v64q50 2 80.5 30t39.5 75h75v-395h-98v226zM498 700h117l-420 -700h-117z" />
    <glyph glyph-name="uni2160" unicode="&#x2160;" horiz-adv-x="488" 
d="M42 105h137v490h-137v105h404v-105h-137v-490h137v-105h-404v105z" />
    <glyph glyph-name="uni2161" unicode="&#x2161;" horiz-adv-x="773" 
d="M42 105h137v490h-137v105h689v-105h-137v-490h137v-105h-689v105zM464 105v490h-155v-490h155z" />
    <glyph glyph-name="uni2162" unicode="&#x2162;" horiz-adv-x="1058" 
d="M42 105h137v490h-137v105h974v-105h-137v-490h137v-105h-974v105zM464 105v490h-155v-490h155zM749 105v490h-155v-490h155z" />
    <glyph glyph-name="uni2163" unicode="&#x2163;" horiz-adv-x="1063" 
d="M42 105h137v490h-137v105h577v-105h-95l143 -485l154 485h-98v105h320v-105h-95l-159 -490h124v-105h-871v105zM542 105l-148 490h-85v-490h233z" />
    <glyph glyph-name="uni2164" unicode="&#x2164;" horiz-adv-x="786" 
d="M141 105h124l-148 490h-96v105h321v-105h-95l143 -485l154 485h-98v105h320v-105h-95l-159 -490h124v-105h-495v105z" />
    <glyph glyph-name="uni2165" unicode="&#x2165;" horiz-adv-x="1063" 
d="M141 105h124l-148 490h-96v105h321v-105h-95l143 -485l154 485h-98v105h575v-105h-137v-490h137v-105h-880v105zM754 105v490h-83l-159 -490h242z" />
    <glyph glyph-name="uni2166" unicode="&#x2166;" horiz-adv-x="1348" 
d="M141 105h124l-148 490h-96v105h321v-105h-95l143 -485l154 485h-98v105h860v-105h-137v-490h137v-105h-1165v105zM754 105v490h-83l-159 -490h242zM1039 105v490h-155v-490h155z" />
    <glyph glyph-name="uni2167" unicode="&#x2167;" horiz-adv-x="1633" 
d="M141 105h124l-148 490h-96v105h321v-105h-95l143 -485l154 485h-98v105h1145v-105h-137v-490h137v-105h-1450v105zM754 105v490h-83l-159 -490h242zM1039 105v490h-155v-490h155zM1324 105v490h-155v-490h155z" />
    <glyph glyph-name="uni2168" unicode="&#x2168;" horiz-adv-x="1019" 
d="M42 105h137v490h-137v105h930v-105h-90l-183 -240l191 -250h92v-105h-940v105zM369 105l189 247l-186 243h-63v-490h60zM747 105l-120 157l-120 -157h240zM744 595h-229l115 -150z" />
    <glyph glyph-name="uni2169" unicode="&#x2169;" horiz-adv-x="784" 
d="M37 105h97l189 247l-186 243h-90v105h690v-105h-90l-183 -240l191 -250h92v-105h-710v105zM512 105l-120 157l-120 -157h240zM509 595h-229l115 -150z" />
    <glyph glyph-name="uni216C" unicode="&#x216c;" horiz-adv-x="688" 
d="M42 105h137v490h-137v105h404v-105h-137v-490h215v165h130v-270h-612v105z" />
    <glyph glyph-name="uni216D" unicode="&#x216d;" horiz-adv-x="744" 
d="M193.5 33.5q-70.5 43.5 -110 125t-39.5 191.5t43 191.5t117.5 125t165.5 43.5q55 0 104.5 -18t84.5 -54v62h123v-230h-117q-17 64 -67.5 99.5t-105.5 35.5h-10q-96 0 -152 -67t-56 -184q0 -123 54.5 -191t151.5 -68h10q55 0 101 35t69 100h122v-230h-123v72
q-36 -41 -91 -61.5t-113 -20.5q-91 0 -161.5 43.5z" />
    <glyph glyph-name="uni216E" unicode="&#x216e;" horiz-adv-x="791" 
d="M42 105h137v490h-137v105h364q100 0 177.5 -41.5t120.5 -120t43 -185.5q0 -109 -43 -189t-120 -122t-178 -42h-364v105zM561 165q56 60 56 189q0 124 -56 182.5t-165 58.5h-87v-490h87q109 0 165 60z" />
    <glyph glyph-name="uni216F" unicode="&#x216f;" horiz-adv-x="1099" 
d="M42 105h137v490h-137v105h347l165 -529l163 529h340v-105h-137v-490h137v-105h-332v105h67v444l-177 -549h-132l-176 558v-453h67v-105h-332v105z" />
    <glyph glyph-name="arrowleft" unicode="&#x2190;" horiz-adv-x="834" 
d="M283 284l160 -156l-87 -88l-251 251q-30 30 -30 60q0 32 30 60l251 249l87 -88l-160 -156h501v-132h-501z" />
    <glyph glyph-name="arrowup" unicode="&#x2191;" horiz-adv-x="680" 
d="M274 501l-156 -160l-88 87l251 251q30 30 60 30q32 0 60 -30l249 -251l-88 -87l-156 160v-501h-132v501z" />
    <glyph glyph-name="arrowright" unicode="&#x2192;" horiz-adv-x="834" 
d="M551 416l-160 156l87 88l251 -251q30 -30 30 -60q0 -31 -30 -60l-251 -249l-87 88l160 156h-501v132h501z" />
    <glyph glyph-name="arrowdown" unicode="&#x2193;" horiz-adv-x="680" 
d="M406 199l156 160l88 -87l-251 -251q-30 -30 -60 -30q-31 0 -60 30l-249 251l88 87l156 -160v501h132v-501z" />
    <glyph glyph-name="uni2196" unicode="&#x2196;" horiz-adv-x="675" 
d="M184 484l3 -223l-123 -1v355q0 42 21 63q22 22 63 22l354 -2l-1 -123l-223 2l354 -354l-93 -93z" />
    <glyph glyph-name="uni2197" unicode="&#x2197;" horiz-adv-x="678" 
d="M398 579l-223 -3l-1 123h355q42 0 63 -21q22 -22 22 -63l-2 -354l-123 1l2 223l-354 -354l-93 93z" />
    <glyph glyph-name="uni2198" unicode="&#x2198;" horiz-adv-x="676" 
d="M492 215l-3 223l123 1v-355q0 -42 -21 -63q-22 -22 -63 -22l-354 2l1 123l223 -2l-354 354l93 93z" />
    <glyph glyph-name="uni2199" unicode="&#x2199;" horiz-adv-x="678" 
d="M280 121l223 3l1 -123h-355q-42 0 -63 21q-22 22 -22 63l2 354l123 -1l-2 -223l354 354l93 -93z" />
    <glyph glyph-name="uni21A4" unicode="&#x21a4;" horiz-adv-x="874" 
d="M86 349q0 15 8 31t21 29l251 251l87 -88l-160 -156h369v185h132v-502h-132v185h-369l160 -156l-87 -88l-250 249q-30 30 -30 60z" />
    <glyph glyph-name="uni21A5" unicode="&#x21a5;" horiz-adv-x="692" 
d="M345 708q31 0 60 -29l251 -251l-88 -87l-156 160v-369h185v-132h-502v132h185v369l-156 -160l-88 87l249 250q30 30 60 30z" />
    <glyph glyph-name="uni21A6" unicode="&#x21a6;" horiz-adv-x="874" 
d="M788 351q0 -31 -29 -60l-251 -251l-87 88l160 156h-369v-185h-132v502h132v-185h369l-160 156l87 88l250 -249q30 -30 30 -60z" />
    <glyph glyph-name="uni21A7" unicode="&#x21a7;" horiz-adv-x="693" 
d="M347 -8q-15 0 -31 8t-29 21l-251 251l88 87l156 -160v369h-185v132h502v-132h-185v-369l156 160l88 -87l-249 -250q-30 -30 -60 -30z" />
    <glyph glyph-name="uni21B0" unicode="&#x21b0;" horiz-adv-x="847" 
d="M656 284h-369l160 -156l-87 -88l-250 251q-30 30 -30 60q0 15 8 31t21 29l251 249l87 -88l-160 -156h501v-416h-132v284z" />
    <glyph glyph-name="uni21B1" unicode="&#x21b1;" horiz-adv-x="847" 
d="M59 416h501l-160 156l87 88l251 -249q29 -28 29 -60q0 -31 -29 -60l-251 -251l-87 88l160 156h-369v-284h-132v416z" />
    <glyph glyph-name="uni21B2" unicode="&#x21b2;" horiz-adv-x="848" 
d="M788 284h-501l160 -156l-87 -88l-251 249q-29 28 -29 60q0 31 29 60l251 251l87 -88l-160 -156h369v284h132v-416z" />
    <glyph glyph-name="uni21B3" unicode="&#x21b3;" horiz-adv-x="848" 
d="M192 416h369l-160 156l87 88l250 -251q30 -30 30 -60q0 -31 -29 -60l-251 -249l-87 88l160 156h-501v416h132v-284z" />
    <glyph glyph-name="partialdiff" unicode="&#x2202;" horiz-adv-x="603" 
d="M169 21q-56 31 -86.5 88t-30.5 132q0 69 31 125t83 87.5t111 31.5q42 0 74.5 -13.5t53.5 -36.5q-13 83 -62 121.5t-113 38.5q-29 0 -61.5 -5t-51.5 -12v115q18 7 51.5 12t69.5 5q102 0 171.5 -53t103.5 -145t34 -210q0 -99 -31 -169t-87 -106.5t-130 -36.5t-130 31z
M383.5 142q32.5 33 32.5 98q0 60 -32.5 95.5t-81.5 35.5h-10q-46 0 -76.5 -34.5t-30.5 -95.5q0 -63 32.5 -97.5t79.5 -34.5h5q49 0 81.5 33z" />
    <glyph glyph-name="uni2206" unicode="&#x2206;" horiz-adv-x="758" 
d="M39 57l264 643h158l258 -643v-57h-680v57zM554 120l-175 437l-180 -437h355z" />
    <glyph glyph-name="product" unicode="&#x220f;" horiz-adv-x="756" 
d="M143 585h-93v115h656v-115h-91v-585h-132v585h-208v-585h-132v585z" />
    <glyph glyph-name="summation" unicode="&#x2211;" horiz-adv-x="663" 
d="M55 115l219 248l-211 222v115h537v-120h-356l201 -210l-222 -250h387v-120h-555v115z" />
    <glyph glyph-name="minus" unicode="&#x2212;" horiz-adv-x="604" 
d="M55 315h494v-115h-494v115z" />
    <glyph glyph-name="uni2215" unicode="&#x2215;" horiz-adv-x="410" 
d="M272 700h135l-265 -700h-140z" />
    <glyph glyph-name="uni2219" unicode="&#x2219;" horiz-adv-x="580" 
d="M118.5 269.5q-33.5 33.5 -33.5 80.5t33.5 80.5t80.5 33.5t80.5 -33.5t33.5 -80.5t-33.5 -80.5t-80.5 -33.5t-80.5 33.5z" />
    <glyph glyph-name="radical" unicode="&#x221a;" horiz-adv-x="739" 
d="M47 500h132l108 -365l104 565h307v-115h-202l-118 -585h-171z" />
    <glyph glyph-name="infinity" unicode="&#x221e;" horiz-adv-x="877" 
d="M145.5 194.5q-44.5 24.5 -69.5 68t-25 97.5t25 97.5t69.5 68t98.5 24.5q66 0 110 -24.5t86 -76.5q39 52 83 76.5t110 24.5q54 0 98.5 -24.5t69.5 -68t25 -97.5t-25 -97.5t-69.5 -68t-98.5 -24.5q-67 0 -110.5 23.5t-82.5 74.5q-41 -51 -85 -74.5t-111 -23.5
q-54 0 -98.5 24.5zM364 359q-28 44 -55 65t-56 21h-5q-30 0 -51 -22.5t-21 -62.5t21 -62.5t51 -22.5h5q57 0 111 84zM678 298q23 23 23 62t-23 62t-54 23h-5q-29 0 -54 -20.5t-52 -62.5q30 -47 53.5 -67t52.5 -20h5q31 0 54 23z" />
    <glyph glyph-name="integral" unicode="&#x222b;" horiz-adv-x="473" 
d="M36 15h53q45 0 62.5 17.5t17.5 62.5v425q0 96 47.5 138t147.5 42h72v-115h-54q-45 0 -62.5 -17.5t-17.5 -62.5v-425q0 -96 -47.5 -138t-147.5 -42h-71v115z" />
    <glyph glyph-name="approxequal" unicode="&#x2248;" horiz-adv-x="619" 
d="M369 285.5q-27 7.5 -66 21.5q-20 7 -39.5 13t-30.5 6q-19 0 -29.5 -9.5t-10.5 -28.5h-130v40q0 52 40 87.5t97 35.5q31 0 60 -8t64 -22q45 -18 63 -18q19 0 29.5 9.5t10.5 28.5h130v-40q0 -52 -39 -87.5t-96 -35.5q-26 0 -53 7.5zM369 67.5q-27 7.5 -66 21.5
q-20 7 -39.5 13t-30.5 6q-19 0 -29.5 -9.5t-10.5 -28.5h-130v40q0 52 40 87.5t97 35.5q31 0 60 -8t64 -22q45 -18 63 -18q19 0 29.5 9.5t10.5 28.5h130v-40q0 -52 -39 -87.5t-96 -35.5q-26 0 -53 7.5z" />
    <glyph glyph-name="notequal" unicode="&#x2260;" horiz-adv-x="614" 
d="M192 100h-132v115h168l26 85h-194v115h230l26 85h123l-26 -85h141v-115h-177l-26 -85h203v-115h-239l-26 -85h-123z" />
    <glyph glyph-name="lessequal" unicode="&#x2264;" horiz-adv-x="613" 
d="M57 248v160l494 117v-125l-327 -71l327 -71v-127zM57 113h494v-113h-494v113z" />
    <glyph glyph-name="greaterequal" unicode="&#x2265;" horiz-adv-x="613" 
d="M62 256l327 71l-327 71v127l494 -117v-160l-494 -117v125zM62 113h494v-113h-494v113z" />
    <glyph glyph-name="angleleft" unicode="&#x2329;" horiz-adv-x="392" 
d="M22 350l228 435h135l-225 -433l225 -437h-135z" />
    <glyph glyph-name="angleright" unicode="&#x232a;" horiz-adv-x="392" 
d="M370 350l-228 -435h-135l225 433l-225 437h135z" />
    <glyph glyph-name="uni2460" unicode="&#x2460;" horiz-adv-x="884" 
d="M247.5 14q-89.5 53 -142.5 142.5t-53 194.5q0 106 52.5 195.5t142.5 142t195 52.5q106 0 195.5 -52.5t142 -142t52.5 -195.5q0 -105 -52.5 -195t-142 -142.5t-195.5 -52.5q-105 0 -194.5 53zM591.5 89q68.5 41 108.5 110.5t40 151.5t-40 151.5t-108.5 110.5t-149.5 41
t-149.5 -41t-108.5 -110.5t-40 -151.5t40 -151.5t108.5 -110.5t149.5 -41t149.5 41zM406 381h-97v64q50 2 80.5 30t39.5 75h75v-395h-98v226z" />
    <glyph glyph-name="uni2461" unicode="&#x2461;" horiz-adv-x="884" 
d="M247.5 14q-89.5 53 -142.5 142.5t-53 194.5q0 106 52.5 195.5t142.5 142t195 52.5q106 0 195.5 -52.5t142 -142t52.5 -195.5q0 -105 -52.5 -195t-142 -142.5t-195.5 -52.5q-105 0 -194.5 53zM591.5 89q68.5 41 108.5 110.5t40 151.5t-40 151.5t-108.5 110.5t-149.5 41
t-149.5 -41t-108.5 -110.5t-40 -151.5t40 -151.5t108.5 -110.5t149.5 -41t149.5 41zM289 241l144 123q25 22 37.5 38t12.5 34q0 17 -12.5 28t-31.5 11h-4q-19 0 -32 -13.5t-14 -35.5h-100q3 60 45.5 95t106.5 35t103.5 -34t39.5 -83q0 -36 -18 -62t-53 -56l-96 -81h170v-84
h-298v85z" />
    <glyph glyph-name="uni2462" unicode="&#x2462;" horiz-adv-x="884" 
d="M247.5 14q-89.5 53 -142.5 142.5t-53 194.5q0 106 52.5 195.5t142.5 142t195 52.5q106 0 195.5 -52.5t142 -142t52.5 -195.5q0 -105 -52.5 -195t-142 -142.5t-195.5 -52.5q-105 0 -194.5 53zM591.5 89q68.5 41 108.5 110.5t40 151.5t-40 151.5t-108.5 110.5t-149.5 41
t-149.5 -41t-108.5 -110.5t-40 -151.5t40 -151.5t108.5 -110.5t149.5 -41t149.5 41zM328 182q-43 32 -43 88h100q0 -18 14 -29t34 -11h5q22 0 36.5 11.5t14.5 31.5t-13 31t-34 11h-41v79h41q20 0 32.5 11t12.5 30q0 18 -13 29t-33 11h-5q-18 0 -31 -10.5t-13 -26.5h-101
q0 56 42 86.5t106 30.5q63 0 105.5 -30t42.5 -81q0 -31 -16 -54.5t-45 -34.5q29 -13 46.5 -37t17.5 -56q0 -54 -44.5 -83t-109.5 -29t-108 32z" />
    <glyph glyph-name="uni2463" unicode="&#x2463;" horiz-adv-x="884" 
d="M247.5 14q-89.5 53 -142.5 142.5t-53 194.5q0 106 52.5 195.5t142.5 142t195 52.5q106 0 195.5 -52.5t142 -142t52.5 -195.5q0 -105 -52.5 -195t-142 -142.5t-195.5 -52.5q-105 0 -194.5 53zM440 229h-192v91l178 231h105v-245h56v-77h-56v-73h-91v73zM440 306v137
l-105 -137h105zM591.5 89q68.5 41 108.5 110.5t40 151.5t-40 151.5t-108.5 110.5t-149.5 41t-149.5 -41t-108.5 -110.5t-40 -151.5t40 -151.5t108.5 -110.5t149.5 -41t149.5 41z" />
    <glyph glyph-name="uni2464" unicode="&#x2464;" horiz-adv-x="884" 
d="M247.5 14q-89.5 53 -142.5 142.5t-53 194.5q0 106 52.5 195.5t142.5 142t195 52.5q106 0 195.5 -52.5t142 -142t52.5 -195.5q0 -105 -52.5 -195t-142 -142.5t-195.5 -52.5q-105 0 -194.5 53zM591.5 89q68.5 41 108.5 110.5t40 151.5t-40 151.5t-108.5 110.5t-149.5 41
t-149.5 -41t-108.5 -110.5t-40 -151.5t40 -151.5t108.5 -110.5t149.5 -41t149.5 41zM327.5 183q-42.5 33 -46.5 89h100q4 -19 18.5 -30.5t34.5 -11.5h4q23 0 38 15.5t15 38.5t-14 37.5t-37 14.5h-3q-29 0 -46 -23h-103l36 237h250v-81h-176l-12 -81q28 25 75 25q53 0 91 -34
t38 -90q0 -64 -43.5 -101.5t-113.5 -37.5q-63 0 -105.5 33z" />
    <glyph glyph-name="uni2465" unicode="&#x2465;" horiz-adv-x="884" 
d="M247.5 14q-89.5 53 -142.5 142.5t-53 194.5q0 106 52.5 195.5t142.5 142t195 52.5q106 0 195.5 -52.5t142 -142t52.5 -195.5q0 -105 -52.5 -195t-142 -142.5t-195.5 -52.5q-105 0 -194.5 53zM591.5 89q68.5 41 108.5 110.5t40 151.5t-40 151.5t-108.5 110.5t-149.5 41
t-149.5 -41t-108.5 -110.5t-40 -151.5t40 -151.5t108.5 -110.5t149.5 -41t149.5 41zM318.5 200.5q-43.5 50.5 -43.5 142.5q0 97 44.5 154.5t125.5 57.5q62 0 100.5 -33t43.5 -83h-98q-5 16 -18 26t-31 10h-5q-30 0 -48 -28t-21 -75q14 20 37.5 32t53.5 12q58 0 95.5 -35.5
t37.5 -92.5q0 -60 -42.5 -99t-111.5 -39q-76 0 -119.5 50.5zM478.5 245.5q15.5 15.5 15.5 38.5t-15.5 38t-40.5 15h-3q-23 0 -39.5 -15t-16.5 -38t16 -38.5t39 -15.5h4q25 0 40.5 15.5z" />
    <glyph glyph-name="uni2466" unicode="&#x2466;" horiz-adv-x="884" 
d="M247.5 14q-89.5 53 -142.5 142.5t-53 194.5q0 106 52.5 195.5t142.5 142t195 52.5q106 0 195.5 -52.5t142 -142t52.5 -195.5q0 -105 -52.5 -195t-142 -142.5t-195.5 -52.5q-105 0 -194.5 53zM591.5 89q68.5 41 108.5 110.5t40 151.5t-40 151.5t-108.5 110.5t-149.5 41
t-149.5 -41t-108.5 -110.5t-40 -151.5t40 -151.5t108.5 -110.5t149.5 -41t149.5 41zM481 468h-188v83h294v-76q-59 -52 -93 -125.5t-34 -166.5v-27h-102v25q0 176 123 287z" />
    <glyph glyph-name="uni2467" unicode="&#x2467;" horiz-adv-x="884" 
d="M247 13.5q-90 52.5 -142.5 142t-52.5 195.5q0 105 53 194.5t142.5 142.5t194.5 53q106 0 195.5 -52.5t142 -142.5t52.5 -195q0 -106 -52.5 -195.5t-142 -142t-195.5 -52.5q-105 0 -195 52.5zM591.5 89q68.5 41 108.5 110.5t40 151.5t-40 151.5t-108.5 110.5t-149.5 41
t-149.5 -41t-108.5 -110.5t-40 -151.5t40 -151.5t108.5 -110.5t149.5 -41t149.5 41zM331 176q-44 30 -44 79q0 35 21 60t56 38q-32 10 -50.5 34.5t-18.5 56.5q0 49 41 78t105 29t105.5 -29t41.5 -78q0 -33 -19 -57t-52 -34q36 -12 57 -37t21 -61q0 -49 -44 -79t-110 -30
t-110 30zM481.5 237.5q15.5 11.5 15.5 30.5t-15.5 30.5t-37.5 11.5h-5q-22 0 -38 -11.5t-16 -30.5t15.5 -30.5t38.5 -11.5h5q22 0 37.5 11.5zM476.5 401q13.5 12 13.5 30t-13.5 29t-32.5 11h-5q-20 0 -33 -11t-13 -29t13 -30t33 -12h5q19 0 32.5 12z" />
    <glyph glyph-name="uni2468" unicode="&#x2468;" horiz-adv-x="884" 
d="M247.5 14q-89.5 53 -142.5 142.5t-53 194.5q0 106 52.5 195.5t142.5 142t195 52.5q106 0 195.5 -52.5t142 -142t52.5 -195.5q0 -105 -52.5 -195t-142 -142.5t-195.5 -52.5q-105 0 -194.5 53zM591.5 89q68.5 41 108.5 110.5t40 151.5t-40 151.5t-108.5 110.5t-149.5 41
t-149.5 -41t-108.5 -110.5t-40 -151.5t40 -151.5t108.5 -110.5t149.5 -41t149.5 41zM337.5 184q-37.5 33 -43.5 83h97q4 -16 17 -26t31 -10h5q31 0 48.5 27.5t22.5 76.5q-15 -21 -39 -33t-55 -12q-55 0 -92.5 36t-37.5 92q0 60 42 99t111 39q76 0 120 -50t44 -138
q0 -102 -43.5 -159.5t-126.5 -57.5q-63 0 -100.5 33zM487 384.5q17 15.5 17 37.5q0 23 -16 38.5t-40 15.5h-3q-25 0 -40.5 -15t-15.5 -39q0 -23 15.5 -38t39.5 -15h3q23 0 40 15.5z" />
    <glyph glyph-name="uni24EA" unicode="&#x24ea;" horiz-adv-x="884" 
d="M247.5 14q-89.5 53 -142.5 142.5t-53 194.5q0 106 52.5 195.5t142.5 142t195 52.5q106 0 195.5 -52.5t142 -142t52.5 -195.5q0 -105 -52.5 -195t-142 -142.5t-195.5 -52.5q-105 0 -194.5 53zM591.5 89q68.5 41 108.5 110.5t40 151.5t-40 151.5t-108.5 110.5t-149.5 41
t-149.5 -41t-108.5 -110.5t-40 -151.5t40 -151.5t108.5 -110.5t149.5 -41t149.5 41zM312.5 206.5q-45.5 56.5 -45.5 145.5t46 146t129 57q84 0 130 -57t46 -146t-46 -145.5t-130 -56.5t-129.5 56.5zM498.5 265q18.5 33 18.5 87q0 55 -18.5 88t-54.5 33h-4q-35 0 -53.5 -33
t-18.5 -88q0 -54 18.5 -87t53.5 -33h4q36 0 54.5 33z" />
    <glyph glyph-name="uni24FF" unicode="&#x24ff;" horiz-adv-x="884" 
d="M247.5 14q-89.5 53 -142.5 142.5t-53 194.5q0 106 52.5 195.5t142.5 142t195 52.5q106 0 195.5 -52.5t142 -142t52.5 -195.5q0 -105 -52.5 -195t-142 -142.5t-195.5 -52.5q-105 0 -194.5 53zM572 206.5q46 56.5 46 145.5t-46 146t-130 57q-83 0 -129 -57t-46 -146
t45.5 -145.5t129.5 -56.5t130 56.5zM386.5 265q-18.5 33 -18.5 87q0 55 18.5 88t53.5 33h4q36 0 54.5 -33t18.5 -88q0 -54 -18.5 -87t-54.5 -33h-4q-35 0 -53.5 33z" />
    <glyph glyph-name="triagup" unicode="&#x25b2;" horiz-adv-x="874" 
d="M437 720l405 -720h-810z" />
    <glyph glyph-name="lozenge" unicode="&#x25ca;" horiz-adv-x="677" 
d="M44 350l235 350h124l230 -350l-230 -350h-124zM493 346l-155 234l-152 -229l155 -230z" />
    <glyph glyph-name="uni2776" unicode="&#x2776;" horiz-adv-x="884" 
d="M247.5 14q-89.5 53 -142.5 142.5t-53 194.5q0 106 52.5 195.5t142.5 142t195 52.5q106 0 195.5 -52.5t142 -142t52.5 -195.5q0 -105 -52.5 -195t-142 -142.5t-195.5 -52.5q-105 0 -194.5 53zM504 155v395h-75q-9 -47 -39.5 -75t-80.5 -30v-64h97v-226h98z" />
    <glyph glyph-name="uni2777" unicode="&#x2777;" horiz-adv-x="884" 
d="M247.5 14q-89.5 53 -142.5 142.5t-53 194.5q0 106 52.5 195.5t142.5 142t195 52.5q106 0 195.5 -52.5t142 -142t52.5 -195.5q0 -105 -52.5 -195t-142 -142.5t-195.5 -52.5q-105 0 -194.5 53zM587 156v84h-170l96 81q35 30 53 56t18 62q0 49 -39.5 83t-103.5 34
t-106.5 -35t-45.5 -95h100q1 22 14 35.5t32 13.5h4q19 0 31.5 -11t12.5 -28q0 -19 -11 -33.5t-39 -38.5l-144 -123v-85h298z" />
    <glyph glyph-name="uni2778" unicode="&#x2778;" horiz-adv-x="884" 
d="M247.5 14q-89.5 53 -142.5 142.5t-53 194.5q0 106 52.5 195.5t142.5 142t195 52.5q106 0 195.5 -52.5t142 -142t52.5 -195.5q0 -105 -52.5 -195t-142 -142.5t-195.5 -52.5q-105 0 -194.5 53zM545.5 179q44.5 29 44.5 83q0 32 -17.5 56t-46.5 37q29 11 45 34.5t16 54.5
q0 51 -42.5 81t-105.5 30q-64 0 -106 -30.5t-42 -86.5h101q0 16 13 26.5t31 10.5h5q20 0 33 -11t13 -29q0 -19 -12.5 -30t-32.5 -11h-41v-79h41q21 0 34 -11t13 -31t-14.5 -31.5t-36.5 -11.5h-5q-20 0 -34 11t-14 29h-100q-1 -56 42.5 -88t108.5 -32t109.5 29z" />
    <glyph glyph-name="uni2779" unicode="&#x2779;" horiz-adv-x="884" 
d="M247.5 14q-89.5 53 -142.5 142.5t-53 194.5q0 106 52.5 195.5t142.5 142t195 52.5q106 0 195.5 -52.5t142 -142t52.5 -195.5q0 -105 -52.5 -195t-142 -142.5t-195.5 -52.5q-105 0 -194.5 53zM531 156v73h56v77h-56v245h-105l-178 -231v-91h192v-73h91zM440 443v-137h-105
z" />
    <glyph glyph-name="uni277A" unicode="&#x277a;" horiz-adv-x="884" 
d="M247.5 14q-89.5 53 -142.5 142.5t-53 194.5q0 106 52.5 195.5t142.5 142t195 52.5q106 0 195.5 -52.5t142 -142t52.5 -195.5q0 -105 -52.5 -195t-142 -142.5t-195.5 -52.5q-105 0 -194.5 53zM546.5 187.5q43.5 37.5 43.5 101.5q0 56 -38 90t-91 34q-47 0 -75 -25l12 81
h176v81h-250l-36 -237h103q17 23 46 23h3q23 0 37 -14.5t14 -37.5t-15 -38.5t-38 -15.5h-4q-20 0 -34.5 11.5t-18.5 30.5h-100q4 -56 46.5 -89t105.5 -33q70 0 113.5 37.5z" />
    <glyph glyph-name="uni277B" unicode="&#x277b;" horiz-adv-x="884" 
d="M247.5 14q-89.5 53 -142.5 142.5t-53 194.5q0 106 52.5 195.5t142.5 142t195 52.5q106 0 195.5 -52.5t142 -142t52.5 -195.5q0 -105 -52.5 -195t-142 -142.5t-195.5 -52.5q-105 0 -194.5 53zM549.5 189q42.5 39 42.5 99q0 57 -37.5 92.5t-95.5 35.5q-30 0 -53.5 -12
t-37.5 -32q3 47 21 75t48 28h5q18 0 31 -10t18 -26h98q-5 50 -43.5 83t-100.5 33q-81 0 -125.5 -57.5t-44.5 -154.5q0 -92 43.5 -142.5t119.5 -50.5q69 0 111.5 39zM395 245.5q-16 15.5 -16 38.5t16.5 38t39.5 15h3q25 0 40.5 -15t15.5 -38t-15.5 -38.5t-40.5 -15.5h-4
q-23 0 -39 15.5z" />
    <glyph glyph-name="uni277C" unicode="&#x277c;" horiz-adv-x="884" 
d="M247.5 14q-89.5 53 -142.5 142.5t-53 194.5q0 106 52.5 195.5t142.5 142t195 52.5q106 0 195.5 -52.5t142 -142t52.5 -195.5q0 -105 -52.5 -195t-142 -142.5t-195.5 -52.5q-105 0 -194.5 53zM460 156v27q0 93 34 166.5t93 125.5v76h-294v-83h188q-123 -111 -123 -287v-25
h102z" />
    <glyph glyph-name="uni277D" unicode="&#x277d;" horiz-adv-x="884" 
d="M247 13.5q-90 52.5 -142.5 142t-52.5 195.5q0 105 53 194.5t142.5 142.5t194.5 53q106 0 195.5 -52.5t142 -142.5t52.5 -195q0 -106 -52.5 -195.5t-142 -142t-195.5 -52.5q-105 0 -195 52.5zM551 176q44 30 44 79q0 36 -21 61t-57 37q33 10 52 34t19 57q0 49 -41.5 78
t-105.5 29t-105 -29t-41 -78q0 -32 18.5 -56.5t50.5 -34.5q-35 -13 -56 -38t-21 -60q0 -49 44 -79t110 -30t110 30zM400.5 237.5q-15.5 11.5 -15.5 30.5t16 30.5t38 11.5h5q22 0 37.5 -11.5t15.5 -30.5t-15.5 -30.5t-37.5 -11.5h-5q-23 0 -38.5 11.5zM406 401q-13 12 -13 30
t13 29t33 11h5q19 0 32.5 -11t13.5 -29t-13.5 -30t-32.5 -12h-5q-20 0 -33 12z" />
    <glyph glyph-name="uni277E" unicode="&#x277e;" horiz-adv-x="884" 
d="M247.5 14q-89.5 53 -142.5 142.5t-53 194.5q0 106 52.5 195.5t142.5 142t195 52.5q106 0 195.5 -52.5t142 -142t52.5 -195.5q0 -105 -52.5 -195t-142 -142.5t-195.5 -52.5q-105 0 -194.5 53zM564.5 208.5q43.5 57.5 43.5 159.5q0 88 -44 138t-120 50q-69 0 -111 -39
t-42 -99q0 -56 37.5 -92t92.5 -36q31 0 55 12t39 33q-5 -49 -22.5 -76.5t-48.5 -27.5h-5q-18 0 -31 10t-17 26h-97q6 -50 43.5 -83t100.5 -33q83 0 126.5 57.5zM404.5 384q-15.5 15 -15.5 38q0 24 15.5 39t40.5 15h3q24 0 40 -15.5t16 -38.5q0 -22 -17 -37.5t-40 -15.5h-3
q-24 0 -39.5 15z" />
    <glyph glyph-name="uni300A" unicode="&#x300a;" horiz-adv-x="623" 
d="M253 350l228 435h135l-225 -433l225 -437h-135zM22 350l228 435h135l-225 -433l225 -437h-135z" />
    <glyph glyph-name="uni300B" unicode="&#x300b;" horiz-adv-x="623" 
d="M370 350l-228 -435h-135l225 433l-225 437h135zM601 350l-228 -435h-135l225 433l-225 437h135z" />
    <glyph glyph-name="uni300C" unicode="&#x300c;" horiz-adv-x="341" 
d="M62 845h265v-105h-139v-352h-126v457z" />
    <glyph glyph-name="uni300D" unicode="&#x300d;" horiz-adv-x="353" 
d="M286 -145h-265v105h139v352h126v-457z" />
    <glyph glyph-name="uni300E" unicode="&#x300e;" horiz-adv-x="463" 
d="M65 845h370v-201h-137v-347h-233v548zM213 370v347h137v55h-200v-402h63z" />
    <glyph glyph-name="uni300F" unicode="&#x300f;" horiz-adv-x="476" 
d="M402 -145h-370v201h137v347h233v-548zM254 330v-347h-137v-55h200v402h-63z" />
    <glyph glyph-name="uni3010" unicode="&#x3010;" horiz-adv-x="398" 
d="M82 845h322q-96 -103 -144 -231.5t-48 -262.5q0 -133 47.5 -262t144.5 -234h-322v990z" />
    <glyph glyph-name="uni3011" unicode="&#x3011;" horiz-adv-x="397" 
d="M315 -144h-322q96 103 144 231.5t48 262.5q0 133 -47.5 262t-144.5 234h322v-990z" />
    <glyph glyph-name="uni3014" unicode="&#x3014;" horiz-adv-x="347" 
d="M62 15v670l142 160h149l-161 -182v-626l161 -182h-149z" />
    <glyph glyph-name="uni3015" unicode="&#x3015;" horiz-adv-x="347" 
d="M285 686v-670l-142 -160h-149l161 182v626l-161 182h149z" />
    <glyph glyph-name="uniE000" unicode="&#xe000;" horiz-adv-x="548" 
d="M74 550h400v-400h-400v400zM399 225v250h-250v-250h250z" />
    <glyph glyph-name="uniE001" unicode="&#xe001;" horiz-adv-x="714" 
d="M82 625h550v-550h-550v550zM557 150v400h-400v-400h400z" />
    <glyph glyph-name="uniE002" unicode="&#xe002;" horiz-adv-x="864" 
d="M82 700h700v-700h-700v700zM707 75v550h-550v-550h550z" />
    <glyph glyph-name="uniE003" unicode="&#xe003;" horiz-adv-x="548" 
d="M74 550h400v-400h-400v400zM399 225v250h-250v-250h250zM224 400h100v-100h-100v100z" />
    <glyph glyph-name="uniE004" unicode="&#xe004;" horiz-adv-x="714" 
d="M82 625h550v-550h-550v550zM557 150v400h-400v-400h400zM232 475h250v-250h-250v250zM407 300v100h-100v-100h100z" />
    <glyph glyph-name="uniE005" unicode="&#xe005;" horiz-adv-x="864" 
d="M82 700h700v-700h-700v700zM707 75v550h-550v-550h550zM232 550h400v-400h-400v400zM557 225v250h-250v-250h250zM382 400h100v-100h-100v100z" />
    <glyph glyph-name="uniE006" unicode="&#xe006;" horiz-adv-x="548" 
d="M74 550h400v-400h-400v400z" />
    <glyph glyph-name="uniE007" unicode="&#xe007;" horiz-adv-x="714" 
d="M82 625h550v-550h-550v550z" />
    <glyph glyph-name="uniE008" unicode="&#xe008;" horiz-adv-x="864" 
d="M82 700h700v-700h-700v700z" />
    <glyph glyph-name="uniE00A" unicode="&#xe00a;" horiz-adv-x="384" 
d="M138.5 -111.5q-40.5 33.5 -40.5 91.5q0 25 8 46.5t28 43.5q-81 17 -81 109v342q0 97 81 114q-20 21 -28 41.5t-8 43.5q0 58 40.5 91.5t99.5 33.5h115v-105h-82q-20 0 -31.5 -10t-11.5 -26v-8q0 -16 11.5 -26t31.5 -10h17v-105h-43q-62 0 -62 -58v-294q0 -58 62 -58h43
v-105h-18q-19 0 -30.5 -9.5t-11.5 -26.5v-8q0 -17 11.5 -26.5t30.5 -9.5h83v-105h-115q-59 0 -99.5 33.5z" />
    <glyph glyph-name="uniE00B" unicode="&#xe00b;" horiz-adv-x="384" 
d="M245.5 811.5q40.5 -33.5 40.5 -91.5q0 -25 -8 -46.5t-28 -43.5q81 -17 81 -109v-342q0 -97 -81 -114q20 -21 28 -41.5t8 -43.5q0 -58 -40.5 -91.5t-99.5 -33.5h-115v105h82q20 0 31.5 10t11.5 26v8q0 16 -11.5 26t-31.5 10h-17v105h43q62 0 62 58v294q0 58 -62 58h-43
v105h18q19 0 30.5 9.5t11.5 26.5v8q0 17 -11.5 26.5t-30.5 9.5h-83v105h115q59 0 99.5 -33.5z" />
    <glyph glyph-name="uniE010" unicode="&#xe010;" horiz-adv-x="574" 
d="M167 142.5q-55 32.5 -87.5 87.5t-32.5 120t32.5 120t87.5 87.5t120 32.5t120 -32.5t87.5 -87.5t32.5 -120t-32.5 -120t-87.5 -87.5t-120 -32.5t-120 32.5zM370 207q38 22 60 60t22 83t-22 83t-60 60t-83 22t-83 -22t-60 -60t-22 -83t22 -83t60 -60t83 -22t83 22z" />
    <glyph glyph-name="uniE011" unicode="&#xe011;" horiz-adv-x="716" 
d="M200.5 77.5q-72.5 42.5 -115 115t-42.5 157.5t42.5 157.5t115 115t157.5 42.5t157.5 -42.5t115 -115t42.5 -157.5t-42.5 -157.5t-115 -115t-157.5 -42.5t-157.5 42.5zM478 142.5q55 32.5 87.5 87.5t32.5 120t-32.5 120t-87.5 87.5t-120 32.5t-120 -32.5t-87.5 -87.5
t-32.5 -120t32.5 -120t87.5 -87.5t120 -32.5t120 32.5z" />
    <glyph glyph-name="uniE012" unicode="&#xe012;" horiz-adv-x="860" 
d="M235.5 13q-89.5 53 -142.5 142.5t-53 194.5q0 106 52.5 195.5t142.5 142t195 52.5q106 0 195.5 -52.5t142 -142t52.5 -195.5q0 -105 -52.5 -195t-142 -142.5t-195.5 -52.5q-105 0 -194.5 53zM587.5 77.5q72.5 42.5 115 115t42.5 157.5t-42.5 157.5t-115 115t-157.5 42.5
t-157.5 -42.5t-115 -115t-42.5 -157.5t42.5 -157.5t115 -115t157.5 -42.5t157.5 42.5z" />
    <glyph glyph-name="uniE013" unicode="&#xe013;" horiz-adv-x="574" 
d="M167 142.5q-55 32.5 -87.5 87.5t-32.5 120t32.5 120t87.5 87.5t120 32.5t120 -32.5t87.5 -87.5t32.5 -120t-32.5 -120t-87.5 -87.5t-120 -32.5t-120 32.5zM370 207q38 22 60 60t22 83t-22 83t-60 60t-83 22t-83 -22t-60 -60t-22 -83t22 -83t60 -60t83 -22t83 22z
M223.5 286.5q-26.5 26.5 -26.5 63.5t26.5 63.5t63.5 26.5q38 0 64 -26t26 -64q0 -37 -26.5 -63.5t-63.5 -26.5t-63.5 26.5z" />
    <glyph glyph-name="uniE014" unicode="&#xe014;" horiz-adv-x="716" 
d="M200.5 77.5q-72.5 42.5 -115 115t-42.5 157.5t42.5 157.5t115 115t157.5 42.5t157.5 -42.5t115 -115t42.5 -157.5t-42.5 -157.5t-115 -115t-157.5 -42.5t-157.5 42.5zM478 142.5q55 32.5 87.5 87.5t32.5 120t-32.5 120t-87.5 87.5t-120 32.5t-120 -32.5t-87.5 -87.5
t-32.5 -120t32.5 -120t87.5 -87.5t120 -32.5t120 32.5zM275 207q-38 22 -60 60t-22 83t22 83t60 60t83 22t83 -22t60 -60t22 -83t-22 -83t-60 -60t-83 -22t-83 22zM421.5 286.5q26.5 26.5 26.5 63.5q0 38 -26 64t-64 26q-37 0 -63.5 -26.5t-26.5 -63.5t26.5 -63.5
t63.5 -26.5t63.5 26.5z" />
    <glyph glyph-name="uniE015" unicode="&#xe015;" horiz-adv-x="860" 
d="M235.5 13q-89.5 53 -142.5 142.5t-53 194.5q0 106 52.5 195.5t142.5 142t195 52.5q106 0 195.5 -52.5t142 -142t52.5 -195.5q0 -105 -52.5 -195t-142 -142.5t-195.5 -52.5q-105 0 -194.5 53zM587.5 77.5q72.5 42.5 115 115t42.5 157.5t-42.5 157.5t-115 115t-157.5 42.5
t-157.5 -42.5t-115 -115t-42.5 -157.5t42.5 -157.5t115 -115t157.5 -42.5t157.5 42.5zM310 142.5q-55 32.5 -87.5 87.5t-32.5 120t32.5 120t87.5 87.5t120 32.5t120 -32.5t87.5 -87.5t32.5 -120t-32.5 -120t-87.5 -87.5t-120 -32.5t-120 32.5zM513 207q38 22 60 60t22 83
t-22 83t-60 60t-83 22t-83 -22t-60 -60t-22 -83t22 -83t60 -60t83 -22t83 22zM366.5 286.5q-26.5 26.5 -26.5 63.5t26.5 63.5t63.5 26.5q38 0 64 -26t26 -64q0 -37 -26.5 -63.5t-63.5 -26.5t-63.5 26.5z" />
    <glyph glyph-name="uniE016" unicode="&#xe016;" horiz-adv-x="574" 
d="M167 142.5q-55 32.5 -87.5 87.5t-32.5 120t32.5 120t87.5 87.5t120 32.5t120 -32.5t87.5 -87.5t32.5 -120t-32.5 -120t-87.5 -87.5t-120 -32.5t-120 32.5z" />
    <glyph glyph-name="uniE017" unicode="&#xe017;" horiz-adv-x="688" 
d="M194 90.5q-69 40.5 -109.5 109.5t-40.5 150t40.5 150t109.5 109.5t150 40.5t150 -40.5t109.5 -109.5t40.5 -150t-40.5 -150t-109.5 -109.5t-150 -40.5t-150 40.5z" />
    <glyph glyph-name="uniE018" unicode="&#xe018;" horiz-adv-x="802" 
d="M221 38.5q-83 48.5 -131.5 131.5t-48.5 180t48.5 180t131.5 131.5t180 48.5t180 -48.5t131.5 -131.5t48.5 -180t-48.5 -180t-131.5 -131.5t-180 -48.5t-180 48.5z" />
    <glyph glyph-name="uniF8FF" unicode="&#xf8ff;" horiz-adv-x="598" 
d="M168 24q-60 35 -95 95t-35 131t35 131t95 95t131 35t131 -35t95 -95t35 -131t-35 -131t-95 -95t-131 -35t-131 35z" />
    <glyph glyph-name="I_S_B_N" horiz-adv-x="2258" 
d="M82 700h135v-580h400q55 0 84.5 21.5t29.5 56.5q0 32 -17 49.5t-62 26.5l-125 26q-180 37 -180 200q0 52 27.5 98t84 74t138.5 28h680q66 0 114.5 -24t74.5 -65.5t26 -91.5q0 -62 -32.5 -105t-85.5 -59q58 -12 95.5 -56.5t37.5 -112.5q0 -52 -28 -94.5t-78 -67
t-114 -24.5h-320v413h290q49 0 74.5 21.5t25.5 62.5t-25.5 62t-74.5 21h-655q-56 0 -88 -20t-32 -57q0 -33 19.5 -49.5t65.5 -25.5l105 -21q194 -39 194 -202q0 -59 -28 -105t-85 -73t-141 -27h-530v700zM1344.5 142.5q27.5 22.5 27.5 66.5t-27.5 66t-77.5 22h-165v-177h165
q50 0 77.5 22.5zM1700 644q68 66 207 66t207 -66t68 -189v-455h-135v435q0 81 -33 118t-102 37h-10q-69 0 -102 -37t-33 -118v-435h-135v455q0 123 68 189z" />
    <glyph glyph-name="i.loclTRK" horiz-adv-x="266" 
d="M68 500h130v-500h-130v500zM76.5 586.5q-23.5 23.5 -23.5 55.5q0 33 23.5 56t56.5 23q32 0 55.5 -23t23.5 -56q0 -32 -23.5 -55.5t-55.5 -23.5q-33 0 -56.5 23.5z" />
    <glyph glyph-name="a.sups" horiz-adv-x="338" 
d="M50.5 431q-26.5 24 -26.5 64q0 41 30.5 63t83.5 27l70 6v9q0 19 -11.5 28.5t-30.5 9.5h-3q-17 0 -28.5 -7.5t-13.5 -20.5h-88q4 43 39.5 69t94.5 26q64 0 97.5 -29.5t33.5 -82.5v-116q0 -26 4 -64h-84q-3 13 -5 35q-14 -19 -39 -30t-54 -11q-43 0 -69.5 24zM192 488.5
q17 14.5 17 39.5v8l-57 -6q-38 -5 -38 -30q0 -12 9 -19t24 -7h3q25 0 42 14.5z" />
    <glyph glyph-name="b.sups" horiz-adv-x="376" 
d="M170 419q-22 11 -33 28v-34h-95v397h94v-144q13 17 34.5 28t50.5 11q56 0 92.5 -40.5t36.5 -109.5q0 -67 -36.5 -107t-92.5 -40q-29 0 -51 11zM239.5 502q16.5 21 16.5 54q0 35 -16 55.5t-44 20.5h-2q-26 0 -42.5 -21t-16.5 -55q0 -33 16.5 -54t42.5 -21h2q27 0 43.5 21z
" />
    <glyph glyph-name="c.sups" horiz-adv-x="337" 
d="M67 447.5q-41 39.5 -41 109.5q0 68 41 108t109 40q62 0 97.5 -31.5t40.5 -81.5h-94q-9 40 -46 40h-2q-26 0 -39 -21t-13 -54q0 -34 13 -54.5t39 -20.5h2q18 0 30 10t16 28h94q-6 -50 -41 -81t-97 -31q-68 0 -109 39.5z" />
    <glyph glyph-name="d.sups" horiz-adv-x="377" 
d="M63 448q-37 40 -37 108t37.5 108.5t93.5 40.5q28 0 50 -11t35 -28v144h93v-397h-94v35q-12 -18 -34 -29t-51 -11q-56 0 -93 40zM225.5 502.5q16.5 20.5 16.5 54.5t-16.5 54.5t-43.5 20.5h-2q-26 0 -42.5 -20.5t-16.5 -54.5t16.5 -54.5t42.5 -20.5h2q27 0 43.5 20.5z" />
    <glyph glyph-name="e.sups" horiz-adv-x="340" 
d="M67.5 448q-41.5 41 -41.5 107q0 67 40.5 108.5t104.5 41.5q59 0 97 -34t44 -88q3 -20 1 -51h-197q2 -26 17 -41t38 -15h3q17 0 29.5 8.5t17.5 21.5h89q-10 -44 -46.5 -71.5t-90.5 -27.5q-64 0 -105.5 41zM206 624q-14 12 -34 12h-3q-20 0 -34.5 -12t-16.5 -32h104
q-2 20 -16 32z" />
    <glyph glyph-name="f.sups" horiz-adv-x="251" 
d="M74 625h-57v75h57v21q0 89 89 89h86v-72h-54q-16 0 -22 -6.5t-6 -21.5v-10h67v-75h-67v-212h-93v212z" />
    <glyph glyph-name="g.sups" horiz-adv-x="375" 
d="M72.5 314q-40.5 26 -44.5 74h95q4 -15 17.5 -23t34.5 -8h5q28 0 44.5 16t16.5 45v39q-11 -18 -34.5 -29.5t-55.5 -11.5q-53 0 -89 39.5t-36 105.5t36 105t89 39q32 0 54 -12t33 -30v37h95v-280q0 -57 -40.5 -94.5t-116.5 -37.5q-63 0 -103.5 26zM222.5 509
q15.5 20 15.5 52t-15 52t-42 20h-2q-26 0 -42 -19t-16 -53t15.5 -53t41.5 -19h2q27 0 42.5 20z" />
    <glyph glyph-name="h.sups" horiz-adv-x="365" 
d="M42 810h95v-149q26 43 84 43q49 0 76.5 -30t27.5 -81v-180h-95v163q0 23 -10 35.5t-29 12.5h-3q-22 0 -36.5 -16.5t-14.5 -42.5v-152h-95v397z" />
    <glyph glyph-name="i.sups" horiz-adv-x="179" 
d="M42 700h95v-287h-95v287zM51.5 745.5q-16.5 16.5 -16.5 36.5q0 23 16.5 39t37.5 16q23 0 39 -16t16 -39q0 -21 -16.5 -37t-38.5 -16q-21 0 -37.5 16.5z" />
    <glyph glyph-name="j.sups" horiz-adv-x="180" 
d="M-47 372h55q19 0 26.5 7.5t7.5 27.5v293h96v-316q0 -44 -24 -67.5t-70 -23.5h-91v79zM51.5 745.5q-16.5 16.5 -16.5 36.5q0 23 16.5 39t37.5 16q23 0 39 -16t16 -39q0 -21 -16.5 -37t-38.5 -16q-21 0 -37.5 16.5z" />
    <glyph glyph-name="k.sups" horiz-adv-x="349" 
d="M42 810h94v-205l89 95h115l-111 -114l116 -173h-110l-70 108l-29 -30v-78h-94v397z" />
    <glyph glyph-name="l.sups" horiz-adv-x="179" 
d="M42 810h95v-397h-95v397z" />
    <glyph glyph-name="m.sups" horiz-adv-x="553" 
d="M42 700h95v-37q26 42 84 42q30 0 54 -12t38 -36q31 48 92 48q50 0 79 -29.5t29 -78.5v-184h-95v161q0 24 -11 37.5t-31 13.5h-2q-22 0 -35.5 -16.5t-13.5 -42.5v-153h-96v161q0 24 -10.5 37.5t-29.5 13.5h-4q-21 0 -34.5 -16.5t-13.5 -42.5v-153h-95v287z" />
    <glyph glyph-name="n.sups" horiz-adv-x="365" 
d="M42 700h96v-37q12 21 34 31.5t49 10.5q49 0 77 -31t28 -82v-179h-95v161q0 23 -10.5 37t-29.5 14h-3q-21 0 -35.5 -17t-14.5 -43v-152h-96v287z" />
    <glyph glyph-name="o.sups" horiz-adv-x="357" 
d="M67.5 450q-42.5 42 -42.5 106t42.5 106.5t111.5 42.5t111 -42.5t42 -106.5t-42 -106t-111 -42t-111.5 42zM221.5 504.5q15.5 19.5 15.5 51.5t-15.5 52t-41.5 20h-3q-26 0 -42 -20t-16 -52t16 -51.5t42 -19.5h3q26 0 41.5 19.5z" />
    <glyph glyph-name="p.sups" horiz-adv-x="377" 
d="M42 700h95v-35q12 18 34 29.5t51 11.5q56 0 92.5 -40t36.5 -108t-37 -109t-93 -41q-29 0 -51 11t-34 29v-147h-94v399zM240.5 502.5q15.5 20.5 15.5 55.5q0 34 -16 54t-43 20h-3q-26 0 -42.5 -20.5t-16.5 -53.5q0 -34 16.5 -55t42.5 -21h3q28 0 43.5 20.5z" />
    <glyph glyph-name="q.sups" horiz-adv-x="377" 
d="M206.5 419q-21.5 -11 -50.5 -11q-56 0 -93 40.5t-37 108.5t36.5 108t92.5 40q29 0 51 -11t34 -28v34h95v-399h-94v147q-13 -18 -34.5 -29zM224.5 502.5q16.5 20.5 16.5 54.5t-16.5 54.5t-43.5 20.5h-2q-26 0 -42 -20.5t-16 -54.5t16 -54.5t42 -20.5h2q27 0 43.5 20.5z
" />
    <glyph glyph-name="r.sups" horiz-adv-x="253" 
d="M42 700h97v-50q20 52 85 52h11v-83h-20q-43 0 -60.5 -22t-17.5 -61v-123h-95v287z" />
    <glyph glyph-name="s.sups" horiz-adv-x="315" 
d="M59.5 433.5q-33.5 25.5 -35.5 74.5h89q2 -17 13 -26.5t31 -9.5h3q15 0 25.5 7t10.5 17q0 9 -6 14.5t-19 8.5l-58 12q-83 18 -83 83q0 43 35 67t89 24q63 0 96.5 -26t35.5 -72h-89q-1 16 -12.5 25t-29.5 9h-3q-15 0 -23.5 -6t-8.5 -16q0 -9 6.5 -13.5t19.5 -6.5l54 -11
q46 -10 67 -30.5t21 -55.5q0 -44 -37 -69t-94 -25q-64 0 -97.5 25.5z" />
    <glyph glyph-name="t.sups" horiz-adv-x="266" 
d="M73 508v118h-57v74h57v90h94v-90h64v-74h-64v-101q0 -20 7 -27t28 -7h39v-78h-73q-95 0 -95 95z" />
    <glyph glyph-name="u.sups" horiz-adv-x="363" 
d="M65 438q-25 30 -25 83v179h95v-162q0 -48 39 -48h3q22 0 35.5 16.5t13.5 50.5v143h95v-287h-95v37q-13 -20 -36.5 -31t-48.5 -11q-51 0 -76 30z" />
    <glyph glyph-name="v.sups" horiz-adv-x="353" 
d="M9 700h101l69 -208l69 208h96l-104 -287h-127z" />
    <glyph glyph-name="w.sups" horiz-adv-x="480" 
d="M10 700h92l49 -177l46 177h92l47 -178l47 178h87l-92 -287h-87l-49 174l-46 -174h-93z" />
    <glyph glyph-name="x.sups" horiz-adv-x="332" 
d="M114 558l-103 142h103l52 -74l53 74h102l-103 -141l106 -146h-103l-56 78l-57 -78h-101z" />
    <glyph glyph-name="y.sups" horiz-adv-x="351" 
d="M26 376h56q17 0 26 6t14 21l9 24l-128 273h103l74 -165l66 165h101l-140 -328q-16 -37 -39 -55.5t-60 -18.5h-82v78z" />
    <glyph glyph-name="z.sups" horiz-adv-x="324" 
d="M29 478l137 145h-134v77h256v-66l-137 -144h146v-77h-268v65z" />
    <glyph glyph-name="zero.zero" horiz-adv-x="666" 
d="M178 34.5q-64 44.5 -97 126t-33 189.5t34 189t98 126t153 45t153 -45t98 -126t34 -189t-33 -189.5t-97 -126t-155 -44.5t-155 44.5zM450 171q35 66 35 179q0 45 -6 84l-254 -277q36 -52 103 -52h10q77 0 112 66zM187 265l254 278q-36 52 -103 52h-10q-77 0 -112 -66
t-35 -179q0 -44 6 -85z" />
    <glyph glyph-name="zero.osf" horiz-adv-x="594" 
d="M164 23.5q-58 33.5 -90 92.5t-32 134t32 134t90 92.5t133 33.5t133 -33.5t90 -92.5t32 -134t-32 -134t-90 -92.5t-133 -33.5t-133 33.5zM391 139.5q31 44.5 31 110.5t-31 110.5t-90 44.5h-8q-59 0 -90 -44.5t-31 -110.5t31 -110.5t90 -44.5h8q59 0 90 44.5z" />
    <glyph glyph-name="one.osf" horiz-adv-x="353" 
d="M154 275h-127v84q60 3 97 41.5t48 99.5h106v-500h-124v275z" />
    <glyph glyph-name="two.osf" horiz-adv-x="485" 
d="M48 123l229 181q31 25 31 51q0 21 -16.5 35.5t-41.5 14.5h-6q-30 0 -48 -19t-18 -55h-130q0 81 56.5 130t144.5 49q87 0 138 -40.5t51 -105.5q0 -46 -24 -82.5t-84 -80.5l-129 -96h227v-105h-380v123z" />
    <glyph glyph-name="three.osf" horiz-adv-x="574" 
d="M152 -185.5q-57 24.5 -89 70.5t-33 108h130q5 -44 34 -71t79 -27h10q57 0 86.5 31t29.5 74q0 50 -32 77t-95 27h-47v105h47q62 0 92.5 27.5t30.5 74.5q0 41 -30.5 67.5t-76.5 26.5h-10q-42 0 -71.5 -27t-33.5 -73h-130q1 59 32 106t85 73t122 26q77 0 131.5 -25t82 -68
t27.5 -96q0 -58 -33 -101.5t-88 -60.5q56 -15 92 -60t36 -104q0 -63 -31.5 -109.5t-87.5 -71t-129 -24.5t-130 24.5z" />
    <glyph glyph-name="four.osf" horiz-adv-x="619" 
d="M365 0h-337v127l320 373h144v-395h102v-105h-102v-200h-127v200zM365 105v237l-206 -237h206z" />
    <glyph glyph-name="five.osf" horiz-adv-x="581" 
d="M117.5 -155.5q-67.5 53.5 -77.5 151.5h127q9 -47 40 -73.5t77 -26.5h10q56 0 91 36t35 94q0 55 -36.5 88.5t-89.5 33.5h-9q-33 0 -62.5 -16.5t-48.5 -49.5h-124l50 418h418v-108h-317l-21 -186q24 23 61.5 35t79.5 12q66 0 117.5 -28.5t80 -79t28.5 -114.5
q0 -71 -32.5 -125.5t-91.5 -84.5t-134 -30q-104 0 -171.5 53.5z" />
    <glyph glyph-name="six.osf" horiz-adv-x="618" 
d="M118 79q-72 89 -72 249q0 115 33.5 201t97 133.5t150.5 47.5q92 0 160 -50.5t83 -135.5h-128q-9 37 -39.5 59t-73.5 22h-8q-65 0 -107 -60t-50 -179q26 45 74 69.5t107 24.5q63 0 115 -28.5t82.5 -80.5t30.5 -120t-31.5 -123t-90 -86.5t-134.5 -31.5q-127 0 -199 89z
M408.5 132q34.5 37 34.5 93q0 57 -34.5 93.5t-87.5 36.5h-8q-54 0 -91 -37t-37 -93t36.5 -93t91.5 -37h8q53 0 87.5 37z" />
    <glyph glyph-name="seven.osf" horiz-adv-x="537" 
d="M385 395h-370v105h505v-110q-118 -77 -186 -202.5t-68 -322.5v-65h-136v65q0 361 255 530z" />
    <glyph glyph-name="eight.osf" horiz-adv-x="576" 
d="M156 17q-55 27 -83 70.5t-28 92.5q0 67 37.5 114t94.5 67q-54 18 -86 58t-32 101q0 51 26.5 94.5t78.5 69.5t124 26t124 -26t78.5 -69.5t26.5 -94.5q0 -61 -32 -101t-86 -58q57 -20 94.5 -67t37.5 -114q0 -49 -28 -92.5t-83 -70.5t-132 -27t-132 27zM367.5 132.5
q30.5 27.5 30.5 69.5t-31 70t-74 28h-10q-43 0 -74 -28t-31 -70t30.5 -69.5t74.5 -27.5h10q44 0 74.5 27.5zM357.5 439.5q26.5 25.5 26.5 65.5t-26 65t-65 25h-10q-39 0 -65 -25t-26 -65t26.5 -65.5t64.5 -25.5h10q38 0 64.5 25.5z" />
    <glyph glyph-name="nine.osf" horiz-adv-x="612" 
d="M498 421q72 -89 72 -249q0 -115 -33.5 -201t-97 -133.5t-150.5 -47.5q-92 0 -160 50.5t-83 135.5h128q9 -37 39.5 -59t73.5 -22h8q65 0 107 60t50 179q-26 -45 -74 -69.5t-107 -24.5q-63 0 -115 28.5t-82.5 80.5t-30.5 120t31.5 123t90 86.5t134.5 31.5q127 0 199 -89z
M207.5 368q-34.5 -37 -34.5 -93q0 -57 34.5 -93.5t87.5 -36.5h8q54 0 91 37t37 93t-36.5 93t-91.5 37h-8q-53 0 -87.5 -37z" />
    <glyph glyph-name="zero.tf" 
d="M102.5 85q-70.5 95 -70.5 265t70.5 265t197.5 95t197.5 -95t70.5 -265t-70.5 -265t-197.5 -95t-197.5 95zM400 169q34 64 34 181t-34 181t-96 64h-8q-62 0 -96 -64t-34 -181t34 -181t96 -64h8q62 0 96 64z" />
    <glyph glyph-name="one.tf" 
d="M45 115h205v340h-169v84q81 3 130 47.5t60 113.5h106v-585h198v-115h-530v115z" />
    <glyph glyph-name="two.tf" 
d="M52 121l238 224q66 62 89 94t23 68q0 38 -26 63t-67 25h-10q-46 0 -76 -30.5t-31 -83.5h-133q0 70 31.5 122t87 79.5t125.5 27.5q69 0 121.5 -25.5t81.5 -70.5t29 -102q0 -64 -30 -113.5t-103 -116.5l-182 -167h325v-115h-493v121z" />
    <glyph glyph-name="three.tf" 
d="M111 44.5q-67 54.5 -68 148.5h133q3 -40 30.5 -64t76.5 -24h10q60 0 89.5 29t29.5 68q0 47 -34.5 72t-95.5 25h-47v115h42q60 0 92.5 23.5t32.5 70.5q0 39 -28.5 63t-73.5 24h-10q-40 0 -69.5 -24.5t-31.5 -65.5h-133q0 60 29.5 106.5t83.5 72.5t125 26q73 0 127.5 -25
t83.5 -68.5t29 -96.5q0 -57 -32.5 -100t-85.5 -60q58 -17 94 -62t36 -105q0 -96 -70.5 -149.5t-186.5 -53.5q-111 0 -178 54.5z" />
    <glyph glyph-name="four.tf" 
d="M357 142h-329v133l332 425h124v-443h85v-115h-85v-142h-127v142zM357 257v256l-201 -256h201z" />
    <glyph glyph-name="five.tf" 
d="M124 44q-69 54 -78 150h132q10 -40 41.5 -64.5t75.5 -24.5h9q53 0 86 33.5t33 87.5q0 53 -34.5 84.5t-83.5 31.5h-9q-75 0 -112 -61h-125l50 419h416v-115h-314l-20 -179q49 48 137 48q66 0 117.5 -29t80.5 -80t29 -115q0 -72 -32 -126.5t-90 -84t-134 -29.5
q-106 0 -175 54z" />
    <glyph glyph-name="six.tf" 
d="M108 79q-72 89 -72 249q0 115 33.5 201t97 133.5t150.5 47.5q94 0 162 -50.5t81 -135.5h-135q-10 34 -40 54.5t-70 20.5h-7q-55 0 -93.5 -55t-47.5 -163q26 37 70.5 58t97.5 21q63 0 115 -28.5t82.5 -80.5t30.5 -120t-31.5 -123t-90 -86.5t-134.5 -31.5q-127 0 -199 89z
M394 139.5q33 34.5 33 85.5t-33 85.5t-83 34.5h-10q-53 0 -88 -34t-35 -86t34.5 -86t88.5 -34h10q50 0 83 34.5z" />
    <glyph glyph-name="seven.tf" 
d="M208.5 307.5q38.5 101.5 93 163.5t123.5 114h-398v115h545v-110q-81 -65 -137 -132t-91 -164t-35 -229v-65h-139v65q0 141 38.5 242.5z" />
    <glyph glyph-name="eight.tf" 
d="M164.5 17q-57.5 27 -87.5 72.5t-30 99.5q0 63 36 108t89 64q-49 19 -80 61t-31 100q0 50 28.5 93t82.5 69t128 26t128 -26t82.5 -69t28.5 -93q0 -58 -31 -100t-80 -61q53 -19 88.5 -64t35.5 -108q0 -54 -30 -99.5t-87 -72.5t-135 -27t-135.5 27zM387.5 132
q32.5 27 32.5 70t-32.5 70.5t-82.5 27.5h-10q-50 0 -82.5 -27.5t-32.5 -70.5t32.5 -70t82.5 -27h10q50 0 82.5 27zM378 439q28 25 28 66t-28 65.5t-73 24.5h-10q-45 0 -73 -24.5t-28 -65.5t28 -66t73 -25h10q45 0 73 25z" />
    <glyph glyph-name="nine.tf" 
d="M492 621q72 -89 72 -249q0 -115 -33.5 -201t-97 -133.5t-150.5 -47.5q-94 0 -162 50.5t-81 135.5h135q10 -34 40 -54.5t70 -20.5h7q55 0 93.5 55t47.5 163q-26 -37 -70.5 -58t-97.5 -21q-63 0 -115 28.5t-82.5 80.5t-30.5 120t31.5 123t90 86.5t134.5 31.5q127 0 199 -89
zM206 560.5q-33 -34.5 -33 -85.5t33 -85.5t83 -34.5h10q53 0 88 34t35 86t-34.5 86t-88.5 34h-10q-50 0 -83 -34.5z" />
    <glyph glyph-name="zero.osf.zero" horiz-adv-x="594" 
d="M164 23.5q-58 33.5 -90 92.5t-32 134t32 134t90 92.5t133 33.5t133 -33.5t90 -92.5t32 -134t-32 -134t-90 -92.5t-133 -33.5t-133 33.5zM391 139.5q31 44.5 31 110.5q0 31 -8 60l-184 -197q27 -18 63 -18h8q59 0 90 44.5zM181 185l186 200q-28 20 -66 20h-8
q-59 0 -90 -44.5t-31 -110.5q0 -35 9 -65z" />
    <glyph glyph-name="zero.tf.zero" 
d="M102.5 85q-70.5 95 -70.5 265t70.5 265t197.5 95t197.5 -95t70.5 -265t-70.5 -265t-197.5 -95t-197.5 95zM400 169q34 64 34 181q0 38 -3 68l-230 -251q34 -62 95 -62h8q62 0 96 64zM169 282l230 251q-34 62 -95 62h-8q-62 0 -96 -64t-34 -181q0 -38 3 -68z" />
    <glyph glyph-name="zero.dnom" horiz-adv-x="411" 
d="M75.5 51.5q-45.5 56.5 -45.5 145.5t46 146t129 57q84 0 130 -57t46 -146t-46 -145.5t-130 -56.5t-129.5 56.5zM261.5 110q18.5 33 18.5 87q0 55 -18.5 88t-54.5 33h-4q-35 0 -53.5 -33t-18.5 -88q0 -54 18.5 -87t53.5 -33h4q36 0 54.5 33z" />
    <glyph glyph-name="one.dnom" horiz-adv-x="265" 
d="M114 226h-97v64q50 2 80.5 30t39.5 75h75v-395h-98v226z" />
    <glyph glyph-name="two.dnom" horiz-adv-x="363" 
d="M31 85l144 123q26 21 38 37t12 35q0 17 -12.5 28t-31.5 11h-4q-19 0 -32 -13.5t-14 -35.5h-100q3 60 45.5 95t106.5 35t103.5 -34t39.5 -83q0 -36 -18 -62t-53 -56l-96 -81h170v-84h-298v85z" />
    <glyph glyph-name="three.dnom" horiz-adv-x="365" 
d="M69 27q-43 32 -43 88h100q0 -18 14 -29t34 -11h5q22 0 36.5 11.5t14.5 31.5t-14.5 31t-35.5 11h-38v79h38q20 0 34 11t14 30q0 18 -13 29t-33 11h-5q-18 0 -31 -10.5t-13 -26.5h-101q0 56 42 86.5t106 30.5q63 0 105.5 -30t42.5 -81q0 -31 -16.5 -54.5t-44.5 -34.5
q29 -10 46.5 -32.5t17.5 -55.5q0 -55 -44.5 -86t-109.5 -31t-108 32z" />
    <glyph glyph-name="four.dnom" horiz-adv-x="386" 
d="M212 73h-192v91l178 231h105v-245h56v-77h-56v-73h-91v73zM212 150v137l-105 -137h105z" />
    <glyph glyph-name="five.dnom" horiz-adv-x="366" 
d="M72.5 28q-42.5 33 -46.5 89h100q4 -19 18.5 -30.5t34.5 -11.5h4q23 0 38 15.5t15 38.5t-14 37.5t-37 14.5h-3q-29 0 -46 -23h-103l36 237h250v-81h-176l-12 -81q28 25 75 25q53 0 91 -34t38 -90q0 -64 -43.5 -101.5t-113.5 -37.5q-63 0 -105.5 33z" />
    <glyph glyph-name="six.dnom" horiz-adv-x="380" 
d="M74.5 45.5q-43.5 50.5 -43.5 142.5q0 97 44.5 154.5t125.5 57.5q62 0 100.5 -33t43.5 -83h-98q-5 16 -18 26t-31 10h-5q-30 0 -48 -28t-21 -75q14 20 37.5 32t53.5 12q58 0 95.5 -35.5t37.5 -92.5q0 -60 -42.5 -99t-111.5 -39q-76 0 -119.5 50.5zM234.5 90.5
q15.5 15.5 15.5 38.5t-15.5 38t-40.5 15h-3q-23 0 -39.5 -15t-16.5 -38t16 -38.5t39 -15.5h4q25 0 40.5 15.5z" />
    <glyph glyph-name="seven.dnom" horiz-adv-x="334" 
d="M208 312h-188v83h294v-76q-59 -52 -93 -125.5t-34 -166.5v-27h-102v25q0 176 123 287z" />
    <glyph glyph-name="eight.dnom" horiz-adv-x="371" 
d="M75 25q-44 30 -44 79q0 35 21 60t56 38q-32 10 -50.5 34.5t-18.5 56.5q0 49 41 78t105 29t105.5 -29t41.5 -78q0 -33 -19 -57t-52 -34q36 -12 57 -37t21 -61q0 -49 -44 -79t-110 -30t-110 30zM225.5 86.5q15.5 11.5 15.5 30.5t-15.5 30.5t-37.5 11.5h-5q-22 0 -38 -11.5
t-16 -30.5t15.5 -30.5t38.5 -11.5h5q22 0 37.5 11.5zM220.5 250q13.5 12 13.5 30t-13.5 29t-32.5 11h-5q-20 0 -33 -11t-13 -29t13 -30t33 -12h5q19 0 32.5 12z" />
    <glyph glyph-name="nine.dnom" horiz-adv-x="380" 
d="M78.5 28q-37.5 33 -43.5 83h98q4 -16 17 -26t31 -10h5q31 0 48.5 27.5t22.5 76.5q-15 -21 -39.5 -33t-55.5 -12q-55 0 -92.5 36t-37.5 92q0 60 42 99t111 39q76 0 120 -50t44 -138q0 -102 -43.5 -159.5t-126.5 -57.5q-63 0 -100.5 33zM228 228.5q17 15.5 17 37.5
q0 23 -16 38.5t-40 15.5h-3q-25 0 -40.5 -15t-15.5 -39q0 -23 15.5 -38t39.5 -15h3q23 0 40 15.5z" />
    <glyph glyph-name="zero.numr" horiz-adv-x="409" 
d="M74.5 356.5q-45.5 56.5 -45.5 145.5t46 146t129 57q84 0 130 -57t46 -146t-46 -145.5t-130 -56.5t-129.5 56.5zM260.5 415q18.5 33 18.5 87q0 55 -18.5 88t-54.5 33h-4q-35 0 -53.5 -33t-18.5 -88q0 -54 18.5 -87t53.5 -33h4q36 0 54.5 33z" />
    <glyph glyph-name="one.numr" horiz-adv-x="263" 
d="M114 531h-97v64q50 2 80.5 30t39.5 75h75v-395h-98v226z" />
    <glyph glyph-name="two.numr" horiz-adv-x="360" 
d="M30 390l144 123q26 21 38 37t12 35q0 17 -12.5 28t-31.5 11h-4q-19 0 -32 -13.5t-14 -35.5h-100q3 60 45.5 95t106.5 35t103.5 -34t39.5 -83q0 -36 -18 -62t-53 -56l-96 -81h170v-84h-298v85z" />
    <glyph glyph-name="three.numr" horiz-adv-x="362" 
d="M68 332q-43 32 -43 88h100q0 -18 14 -29t34 -11h5q22 0 36.5 11.5t14.5 31.5t-14.5 31t-35.5 11h-38v79h38q20 0 34 11t14 30q0 18 -13 29t-33 11h-5q-18 0 -31 -10.5t-13 -26.5h-101q0 56 42 86.5t106 30.5q63 0 105.5 -30t42.5 -81q0 -31 -16.5 -54.5t-44.5 -34.5
q29 -10 46.5 -32.5t17.5 -55.5q0 -55 -44.5 -86t-109.5 -31t-108 32z" />
    <glyph glyph-name="four.numr" horiz-adv-x="382" 
d="M210 378h-192v91l178 231h105v-245h56v-77h-56v-73h-91v73zM210 455v137l-105 -137h105z" />
    <glyph glyph-name="five.numr" horiz-adv-x="362" 
d="M71.5 333q-42.5 33 -46.5 89h100q4 -19 18.5 -30.5t34.5 -11.5h4q23 0 38 15.5t15 38.5t-14 37.5t-37 14.5h-3q-29 0 -46 -23h-103l36 237h250v-81h-176l-12 -81q28 25 75 25q53 0 91 -34t38 -90q0 -64 -43.5 -101.5t-113.5 -37.5q-63 0 -105.5 33z" />
    <glyph glyph-name="six.numr" horiz-adv-x="377" 
d="M73.5 350.5q-43.5 50.5 -43.5 142.5q0 97 44.5 154.5t125.5 57.5q62 0 100.5 -33t43.5 -83h-98q-5 16 -18 26t-31 10h-5q-30 0 -48 -28t-21 -75q14 20 37.5 32t53.5 12q58 0 95.5 -35.5t37.5 -92.5q0 -60 -42.5 -99t-111.5 -39q-76 0 -119.5 50.5zM233.5 395.5
q15.5 15.5 15.5 38.5t-15.5 38t-40.5 15h-3q-23 0 -39.5 -15t-16.5 -38t16 -38.5t39 -15.5h4q25 0 40.5 15.5z" />
    <glyph glyph-name="seven.numr" horiz-adv-x="324" 
d="M203 617h-188v83h294v-76q-59 -52 -93 -125.5t-34 -166.5v-27h-102v25q0 176 123 287z" />
    <glyph glyph-name="eight.numr" horiz-adv-x="368" 
d="M74 330q-44 30 -44 79q0 35 21 60t56 38q-32 10 -50.5 34.5t-18.5 56.5q0 49 41 78t105 29t105.5 -29t41.5 -78q0 -33 -19 -57t-52 -34q36 -12 57 -37t21 -61q0 -49 -44 -79t-110 -30t-110 30zM224.5 391.5q15.5 11.5 15.5 30.5t-15.5 30.5t-37.5 11.5h-5
q-22 0 -38 -11.5t-16 -30.5t15.5 -30.5t38.5 -11.5h5q22 0 37.5 11.5zM219.5 555q13.5 12 13.5 30t-13.5 29t-32.5 11h-5q-20 0 -33 -11t-13 -29t13 -30t33 -12h5q19 0 32.5 12z" />
    <glyph glyph-name="nine.numr" horiz-adv-x="377" 
d="M76.5 333q-37.5 33 -43.5 83h98q4 -16 17 -26t31 -10h5q31 0 48.5 27.5t22.5 76.5q-15 -21 -39.5 -33t-55.5 -12q-55 0 -92.5 36t-37.5 92q0 60 42 99t111 39q76 0 120 -50t44 -138q0 -102 -43.5 -159.5t-126.5 -57.5q-63 0 -100.5 33zM226 533.5q17 15.5 17 37.5
q0 23 -16 38.5t-40 15.5h-3q-25 0 -40.5 -15t-15.5 -39q0 -23 15.5 -38t39.5 -15h3q23 0 40 15.5z" />
    <glyph glyph-name="zero.dnom.zero" horiz-adv-x="411" 
d="M75.5 51.5q-45.5 56.5 -45.5 145.5t46 146t129 57q84 0 130 -57t46 -146t-46 -145.5t-130 -56.5t-129.5 56.5zM262.5 110.5q19.5 33.5 19.5 86.5q0 14 -2 36l-124 -133q18 -23 47 -23h4q36 0 55.5 33.5zM131 163l123 133q-18 23 -47 23h-4q-35 0 -54.5 -34t-19.5 -88
q0 -14 2 -34z" />
    <glyph glyph-name="zero.numr.zero" horiz-adv-x="409" 
d="M74.5 356.5q-45.5 56.5 -45.5 145.5t46 146t129 57q84 0 130 -57t46 -146t-46 -145.5t-130 -56.5t-129.5 56.5zM261.5 415.5q19.5 33.5 19.5 86.5q0 14 -2 36l-124 -133q18 -23 47 -23h4q36 0 55.5 33.5zM130 468l123 133q-18 23 -47 23h-4q-35 0 -54.5 -34t-19.5 -88
q0 -14 2 -34z" />
    <glyph glyph-name="uni2080.zero" horiz-adv-x="409" 
d="M74.5 -63.5q-45.5 56.5 -45.5 145.5t46 146t129 57q84 0 130 -57t46 -146t-46 -145.5t-130 -56.5t-129.5 56.5zM261.5 -4.5q19.5 33.5 19.5 86.5q0 14 -2 36l-124 -133q18 -23 47 -23h4q36 0 55.5 33.5zM130 48l123 133q-18 23 -47 23h-4q-35 0 -54.5 -34t-19.5 -88
q0 -14 2 -34z" />
    <glyph glyph-name="uni2070.zero" horiz-adv-x="409" 
d="M74.5 466.5q-45.5 56.5 -45.5 145.5t46 146t129 57q84 0 130 -57t46 -146t-46 -145.5t-130 -56.5t-129.5 56.5zM261.5 525.5q19.5 33.5 19.5 86.5q0 14 -2 36l-124 -133q18 -23 47 -23h4q36 0 55.5 33.5zM130 578l123 133q-18 23 -47 23h-4q-35 0 -54.5 -34t-19.5 -88
q0 -14 2 -34z" />
    <glyph glyph-name="space.tf" 
 />
    <glyph glyph-name="exclamdown.case" horiz-adv-x="280" 
d="M198.5 685.5q24.5 -24.5 24.5 -58.5t-24.5 -58.5t-58.5 -24.5t-58.5 24.5t-24.5 58.5q0 35 24.5 59t58.5 24t58.5 -24.5zM206 240v-240h-133v240l31 257h71z" />
    <glyph glyph-name="questiondown.case" horiz-adv-x="502" 
d="M340.5 349.5q-17.5 -27.5 -63.5 -46.5l-27 -11q-47 -19 -71 -40.5t-24 -64.5q0 -39 25.5 -64.5t72.5 -25.5q44 0 71 26t32 69h128q-3 -61 -35 -106.5t-84 -70t-114 -24.5q-64 0 -115.5 23.5t-81 67t-29.5 101.5q0 74 38.5 119.5t102.5 73.5l34 15q20 9 26.5 18t6.5 28v49
h125v-64q0 -45 -17.5 -72.5zM347.5 686.5q24.5 -24.5 24.5 -58.5t-24.5 -58.5t-58.5 -24.5t-58.5 24.5t-24.5 58.5q0 35 24.5 59t58.5 24t58.5 -24.5z" />
    <glyph glyph-name="period.tf" 
d="M241.5 14.5q-24.5 24.5 -24.5 58.5t24.5 58.5t58.5 24.5q35 0 59 -24t24 -59q0 -34 -24 -58.5t-59 -24.5q-34 0 -58.5 24.5z" />
    <glyph glyph-name="comma.tf" 
d="M194 -75h36q32 0 47 18t15 47v10h-65v145h145v-160q0 -35 -17.5 -66t-49 -50t-70.5 -19h-41v75z" />
    <glyph glyph-name="colon.tf" 
d="M241.5 14.5q-24.5 24.5 -24.5 58.5t24.5 58.5t58.5 24.5q35 0 59 -24t24 -59q0 -34 -24 -58.5t-59 -24.5q-34 0 -58.5 24.5zM241.5 369.5q-24.5 24.5 -24.5 58.5t24.5 58.5t58.5 24.5q35 0 59 -24t24 -59q0 -34 -24 -58.5t-59 -24.5q-34 0 -58.5 24.5z" />
    <glyph glyph-name="semicolon.tf" 
d="M193 -75h36q32 0 47 18t15 47v10h-65v145h146v-160q0 -35 -18 -66t-49.5 -50t-70.5 -19h-41v75zM240.5 369.5q-24.5 24.5 -24.5 58.5t24.5 58.5t58.5 24.5q35 0 59 -24t24 -59q0 -34 -24 -58.5t-59 -24.5q-34 0 -58.5 24.5z" />
    <glyph glyph-name="numbersign.tf" 
d="M96 160h-66v115h90l31 150h-101v115h125l33 160h118l-33 -160h100l33 160h118l-33 -160h58v-115h-82l-31 -150h93v-115h-117l-33 -160h-118l33 160h-100l-33 -160h-118zM338 275l31 150h-100l-31 -150h100z" />
    <glyph glyph-name="hyphen.case" horiz-adv-x="406" 
d="M58 403h290v-105h-290v105z" />
    <glyph glyph-name="endash.case" horiz-adv-x="586" 
d="M58 403h470v-105h-470v105z" />
    <glyph glyph-name="emdash.case" horiz-adv-x="906" 
d="M58 403h790v-105h-790v105z" />
    <glyph glyph-name="uni2015.case" horiz-adv-x="906" 
d="M58 403h790v-105h-790v105z" />
    <glyph glyph-name="parenleft.case" horiz-adv-x="371" 
d="M181.5 43q-64.5 50 -101.5 131t-37 175t37 175.5t101.5 132t141.5 53.5v-125q-65 -20 -105 -78.5t-40 -156.5t40.5 -156.5t104.5 -78.5v-125q-77 3 -141.5 53z" />
    <glyph glyph-name="parenright.case" horiz-adv-x="371" 
d="M189.5 657q64.5 -50 101.5 -131t37 -175t-37 -175.5t-101.5 -132t-141.5 -53.5v125q65 20 105 78.5t40 156.5t-40.5 156.5t-104.5 78.5v125q77 -3 141.5 -53z" />
    <glyph glyph-name="braceleft.case" horiz-adv-x="387" 
d="M142 38q-33 38 -33 117v48q0 38 -10.5 51.5t-40.5 13.5h-15v164h15q30 0 40.5 13.5t10.5 51.5v48q0 79 33 117t101 38h95v-120h-40q-26 0 -38 -5t-16.5 -18t-4.5 -42v-70q0 -46 -21.5 -64.5t-59.5 -18.5v-24q38 0 59.5 -18.5t21.5 -64.5v-70q0 -29 4.5 -42t16.5 -18
t38 -5h40v-120h-95q-68 0 -101 38z" />
    <glyph glyph-name="braceright.case" horiz-adv-x="387" 
d="M245 663q33 -38 33 -117v-48q0 -38 10.5 -51.5t40.5 -13.5h15v-164h-15q-30 0 -40.5 -13.5t-10.5 -51.5v-48q0 -79 -33 -117t-101 -38h-95v120h40q26 0 38 5t16.5 18t4.5 42v70q0 46 21.5 64.5t59.5 18.5v24q-38 0 -59.5 18.5t-21.5 64.5v70q0 29 -4.5 42t-16.5 18t-38 5
h-40v120h95q68 0 101 -38z" />
    <glyph glyph-name="bracketleft.case" horiz-adv-x="354" 
d="M82 700h220v-120h-85v-460h85v-120h-220v700z" />
    <glyph glyph-name="bracketright.case" horiz-adv-x="354" 
d="M272 0h-220v120h85v460h-85v120h220v-700z" />
    <glyph glyph-name="guillemotleft.case" horiz-adv-x="622" 
d="M276 350l145 215h150l-145 -215l145 -215h-150zM37 350l145 215h150l-145 -215l145 -215h-150z" />
    <glyph glyph-name="guillemotright.case" horiz-adv-x="622" 
d="M346 350l-145 -215h-150l145 215l-145 215h150zM585 350l-145 -215h-150l145 215l-145 215h150z" />
    <glyph glyph-name="guilsinglleft.case" horiz-adv-x="383" 
d="M37 350l145 215h150l-145 -215l145 -215h-150z" />
    <glyph glyph-name="guilsinglright.case" horiz-adv-x="383" 
d="M196 350l-145 215h150l145 -215l-145 -215h-150z" />
    <glyph glyph-name="florin.tf" 
d="M26 -85h60q41 0 59 16t23 54l57 371h-98v112h115l6 42q16 103 58.5 146.5t130.5 43.5h74v-115h-60q-39 0 -55 -15.5t-22 -54.5l-7 -47h116v-112h-133l-56 -366q-16 -102 -60.5 -146t-134.5 -44h-73v115z" />
    <glyph glyph-name="at.case" horiz-adv-x="928" 
d="M253.5 -47q-99.5 48 -156 144.5t-56.5 237.5q0 128 61.5 224.5t163 148.5t215.5 52q111 0 205 -49t149.5 -133.5t55.5 -187.5q0 -86 -29.5 -146t-77.5 -89.5t-103 -29.5h-128v55q-18 -30 -49.5 -47.5t-71.5 -17.5q-51 0 -91.5 29t-63 78t-22.5 106t22.5 105.5t63 77.5
t91.5 29q40 0 71.5 -17.5t49.5 -47.5v55h115v-315h4q42 0 70.5 42t28.5 133q0 76 -36 136t-102 94.5t-152 34.5q-88 0 -161 -39.5t-116 -112.5t-43 -168q0 -100 42 -172.5t116.5 -110t171.5 -37.5h255v-110h-265q-128 0 -227.5 48zM526.5 248q21.5 34 21.5 80
q0 44 -21.5 78.5t-58.5 34.5h-5q-35 0 -57.5 -31.5t-22.5 -81.5q0 -51 22 -82.5t58 -31.5h5q37 0 58.5 34z" />
    <glyph glyph-name="section.tf" 
d="M108 45h205q52 0 52 41q0 16 -10.5 27t-34.5 20l-139 52q-59 22 -86 54.5t-27 82.5q0 37 24 69.5t67 55.5q-26 19 -39.5 47t-13.5 63q0 70 45.5 106.5t133.5 36.5h188v-105h-180q-27 0 -42 -10t-15 -30q0 -17 10 -28t33 -18l91 -30q83 -27 123 -59.5t40 -92.5
q0 -42 -25 -78t-68 -57q28 -22 43 -47.5t15 -60.5q0 -61 -44.5 -102.5t-136.5 -41.5h-209v105zM386.5 271q13.5 19 13.5 37q0 42 -62 61l-87 28q-26 -11 -38 -29t-12 -38q0 -21 14.5 -32t44.5 -22l88 -33q25 9 38.5 28z" />
    <glyph glyph-name="degree.tf" 
d="M206 364.5q-42 24.5 -66.5 66.5t-24.5 94t24.5 94t66.5 66.5t94 24.5t94 -24.5t66.5 -66.5t24.5 -94t-24.5 -94t-66.5 -66.5t-94 -24.5t-94 24.5zM350.5 470q20.5 22 20.5 55q0 31 -20.5 51.5t-50.5 20.5t-50.5 -20.5t-20.5 -51.5q0 -33 20.5 -55t50.5 -22t50.5 22z" />
    <glyph glyph-name="plus.case" horiz-adv-x="597" 
d="M232 293h-180v115h180v185h133v-185h180v-115h-180v-185h-133v185z" />
    <glyph glyph-name="minus.case" horiz-adv-x="606" 
d="M56 408h494v-115h-494v115z" />
    <glyph glyph-name="multiply.case" horiz-adv-x="566" 
d="M57 206l144 144l-145 145l83 83l145 -145l144 144l81 -82l-143 -143l144 -145l-83 -83l-144 145l-145 -145z" />
    <glyph glyph-name="divide.case" horiz-adv-x="598" 
d="M52 407h494v-112h-494v112zM244.5 122.5q-22.5 22.5 -22.5 54.5t22.5 55t54.5 23t55 -23t23 -55t-23 -54.5t-55 -22.5t-54.5 22.5zM244.5 471.5q-22.5 22.5 -22.5 54.5t22.5 55t54.5 23t55 -23t23 -55t-23 -54.5t-55 -22.5t-54.5 22.5z" />
    <glyph glyph-name="equal.case" horiz-adv-x="616" 
d="M61 508h494v-115h-494v115zM61 308h494v-115h-494v115z" />
    <glyph glyph-name="notequal.case" horiz-adv-x="616" 
d="M193 193h-132v115h168l26 85h-194v115h230l26 85h123l-26 -85h141v-115h-177l-26 -85h203v-115h-239l-26 -85h-123z" />
    <glyph glyph-name="greater.case" horiz-adv-x="554" 
d="M75 250l261 99l-261 98v133l425 -170v-120l-425 -170v130z" />
    <glyph glyph-name="less.case" horiz-adv-x="553" 
d="M54 289v120l425 170v-130l-261 -98l261 -99v-133z" />
    <glyph glyph-name="greaterequal.case" horiz-adv-x="629" 
d="M72 349l327 71l-327 71v127l494 -117v-160l-494 -117v125zM72 206h494v-113h-494v113z" />
    <glyph glyph-name="lessequal.case" horiz-adv-x="629" 
d="M63 341v160l494 117v-125l-327 -71l327 -71v-127zM63 206h494v-113h-494v113z" />
    <glyph glyph-name="plusminus.case" horiz-adv-x="628" 
d="M247 368h-180v115h180v110h133v-110h181v-115h-181v-105h-133v105zM67 207h494v-114h-494v114z" />
    <glyph glyph-name="approxequal.case" horiz-adv-x="619" 
d="M372 378.5q-27 7.5 -66 21.5q-20 7 -39.5 13t-30.5 6q-19 0 -29.5 -9.5t-10.5 -28.5h-130v40q0 52 40 87.5t97 35.5q31 0 60 -8t64 -22q45 -18 63 -18q19 0 29.5 9.5t10.5 28.5h130v-40q0 -52 -39 -87.5t-96 -35.5q-26 0 -53 7.5zM372 160.5q-27 7.5 -66 21.5
q-20 7 -39.5 13t-30.5 6q-19 0 -29.5 -9.5t-10.5 -28.5h-130v40q0 52 40 87.5t97 35.5q31 0 60 -8t64 -22q45 -18 63 -18q19 0 29.5 9.5t10.5 28.5h130v-40q0 -52 -39 -87.5t-96 -35.5q-26 0 -53 7.5z" />
    <glyph glyph-name="logicalnot.case" horiz-adv-x="609" 
d="M404 343h-349v115h482v-250h-133v135z" />
    <glyph glyph-name="plus.tf" 
d="M235 293h-170v115h170v185h131v-185h170v-115h-170v-185h-131v185z" />
    <glyph glyph-name="minus.tf" 
d="M65 409h470v-115h-470v115z" />
    <glyph glyph-name="multiply.tf" 
d="M74 205l144 144l-145 145l83 83l145 -145l144 144l81 -82l-143 -143l144 -145l-83 -83l-144 145l-145 -145z" />
    <glyph glyph-name="divide.tf" 
d="M53 408h494v-112h-494v112zM245.5 123.5q-22.5 22.5 -22.5 54.5t22.5 55t54.5 23t55 -23t23 -55t-23 -54.5t-55 -22.5t-54.5 22.5zM245.5 472.5q-22.5 22.5 -22.5 54.5t22.5 55t54.5 23t55 -23t23 -55t-23 -54.5t-55 -22.5t-54.5 22.5z" />
    <glyph glyph-name="equal.tf" 
d="M65 502h470v-115h-470v115zM65 312h470v-115h-470v115z" />
    <glyph glyph-name="notequal.tf" 
d="M191 197h-127v115h162l23 75h-185v115h221l28 91h123l-28 -91h126v-115h-162l-23 -75h185v-115h-220l-28 -89h-123z" />
    <glyph glyph-name="greater.tf" 
d="M98 248l261 99l-261 98v133l425 -170v-120l-425 -170v130z" />
    <glyph glyph-name="less.tf" 
d="M77 286v120l425 170v-130l-261 -98l261 -99v-133z" />
    <glyph glyph-name="greaterequal.tf" 
d="M82 354l300 72l-300 72v126l445 -122v-150l-445 -122v124zM82 214h445v-115h-445v115z" />
    <glyph glyph-name="lessequal.tf" 
d="M73 352v150l445 122v-124l-300 -72l300 -72v-126zM73 214h445v-115h-445v115z" />
    <glyph glyph-name="plusminus.tf" 
d="M234 383h-164v115h164v110h131v-110h164v-115h-164v-105h-131v105zM70 222h459v-114h-459v114z" />
    <glyph glyph-name="approxequal.tf" 
d="M362 381.5q-27 7.5 -66 21.5q-20 7 -39.5 13t-30.5 6q-19 0 -29.5 -9.5t-10.5 -28.5h-130v40q0 52 40 87.5t97 35.5q31 0 60 -8t64 -22q45 -18 63 -18q19 0 29.5 9.5t10.5 28.5h130v-40q0 -52 -39 -87.5t-96 -35.5q-26 0 -53 7.5zM362 163.5q-27 7.5 -66 21.5
q-20 7 -39.5 13t-30.5 6q-19 0 -29.5 -9.5t-10.5 -28.5h-130v40q0 52 40 87.5t97 35.5q31 0 60 -8t64 -22q45 -18 63 -18q19 0 29.5 9.5t10.5 28.5h130v-40q0 -52 -39 -87.5t-96 -35.5q-26 0 -53 7.5z" />
    <glyph glyph-name="logicalnot.tf" 
d="M402 293h-349v115h482v-250h-133v135z" />
    <glyph glyph-name="percent.tf" 
d="M130 308l340 170v-86l-340 -170v86zM330 37q-35 42 -35 113t35 113t95 42t95 -42t35 -113t-35 -113t-95 -42t-95 42zM470 150q0 80 -45 80t-45 -80t45 -80t45 80zM80 437q-35 42 -35 113t35 113t95 42t95 -42t35 -113t-35 -113t-95 -42t-95 42zM220 550q0 80 -45 80
t-45 -80t45 -80t45 80z" />
    <glyph glyph-name="perthousand.tf" 
d="M193 37q-35 42 -35 113t35 113t95 42q54 0 88 -34q32 34 87 34q60 0 95 -42t35 -113t-35 -113t-95 -42q-55 0 -87 34q-15 -15 -38.5 -24.5t-49.5 -9.5q-60 0 -95 42zM333 150q0 80 -45 80t-45 -80t45 -80t45 80zM44 305l340 170v-81l-340 -170v81zM508 150q0 80 -45 80
t-45 -80t45 -80t45 80zM48 437q-35 42 -35 113t35 113t95 42t95 -42t35 -113t-35 -113t-95 -42t-95 42zM188 550q0 80 -45 80t-45 -80t45 -80t45 80z" />
    <glyph glyph-name="multiply.case.tf" 
d="M74 205l144 144l-145 145l83 83l145 -145l144 144l81 -82l-143 -143l144 -145l-83 -83l-144 145l-145 -145z" />
    <glyph glyph-name="uni20BF.tf" 
d="M40 700h88v120h102v-120h90v120h102v-129q67 -17 105 -63.5t38 -108.5t-32.5 -105t-85.5 -59q58 -12 95.5 -56.5t37.5 -112.5q0 -65 -43.5 -114t-114.5 -65v-127h-102v120h-90v-120h-102v120h-88v700zM417.5 142.5q27.5 22.5 27.5 66.5t-27.5 66t-77.5 22h-165v-177h165
q50 0 77.5 22.5zM404.5 434.5q25.5 21.5 25.5 62.5t-25.5 62t-74.5 21h-155v-167h155q49 0 74.5 21.5z" />
    <glyph glyph-name="cent.tf" 
d="M207 8q-69 28 -107.5 91.5t-38.5 151.5q0 71 29.5 128.5t82 92t118.5 38.5l19 110h107l-21 -122q61 -20 99 -66.5t45 -110.5h-131q-6 37 -32 60l-48 -282q32 6 53.5 29t26.5 53h132q-12 -86 -74 -138.5t-157 -53.5l-18 -109h-107zM200.5 183.5q9.5 -30.5 27.5 -50.5
l45 267q-39 -13 -60.5 -53t-21.5 -96q0 -37 9.5 -67.5z" />
    <glyph glyph-name="currency.tf" 
d="M187 111l-80 -76l-90 90l80 77q-23 46 -23 103q0 53 20 98l-77 77l90 90l76 -73q51 28 115 28t116 -29l78 74l90 -90l-81 -81q19 -44 19 -94q0 -54 -22 -100l84 -80l-90 -90l-81 77q-49 -27 -113 -27q-61 0 -111 26zM366.5 230.5q24.5 30.5 24.5 74.5q0 45 -25 75t-65 30
h-8q-40 0 -65 -30t-25 -75q0 -44 24.5 -74.5t65.5 -30.5h8q41 0 65.5 30.5z" />
    <glyph glyph-name="dollar.tf" 
d="M294 -10l-19 -110h-114l21 126q-79 24 -121 82.5t-44 145.5h134q2 -69 53 -101l28 167l-10 2q-183 35 -183 198q0 57 31.5 104.5t91 76.5t139.5 29l18 110h114l-21 -126q74 -24 116 -80.5t44 -132.5h-135q-6 55 -47 84l-26 -155l14 -3q95 -17 146.5 -70t51.5 -137
q0 -62 -33 -109.5t-95 -74t-145 -26.5h-9zM191.5 455q18.5 -17 61.5 -26l27 161q-48 -3 -77.5 -27t-29.5 -59q0 -32 18.5 -49zM403.5 134q33.5 23 33.5 61q0 32 -22 53t-73 31l-28 -169q56 1 89.5 24z" />
    <glyph glyph-name="Euro.tf" 
d="M202 35q-59 45 -90 130l-91 -19v107l66 14q-3 24 -5 66l-61 -13v107l67 14q18 127 85 198t169 71q68 0 121.5 -27.5t84 -77.5t33.5 -115h-131q-5 48 -32.5 76.5t-71.5 28.5h-8q-44 0 -73.5 -31.5t-43.5 -93.5l149 32v-107l-160 -34v-8l2 -59l116 25v-107l-95 -20
q32 -87 105 -87h8q44 0 71.5 28.5t32.5 76.5h131q-1 -65 -31.5 -115t-84 -77.5t-123.5 -27.5q-81 0 -140 45z" />
    <glyph glyph-name="uni20B4.tf" 
d="M176.5 14q-57.5 24 -89.5 69t-32 105q0 14 1 22l-49 -5v104l583 54v-104l-398 -37q-3 -10 -3 -27q0 -40 30.5 -67.5t86.5 -27.5h6q108 0 122 104h135q-7 -81 -65.5 -147.5t-195.5 -66.5q-74 0 -131.5 24zM-8 455l426 39q2 10 2 20q0 35 -27 60.5t-80 25.5h-6
q-64 0 -89.5 -25.5t-30.5 -69.5h-135q5 84 65 144.5t192 60.5q84 0 139.5 -29.5t80.5 -73.5t25 -90v-11l54 5v-104l-616 -56v104z" />
    <glyph glyph-name="uni20BD.tf" 
d="M104 128h-90v112h90v51h-93v118h93v291h265q104 0 164.5 -51t60.5 -155q0 -103 -61.5 -153t-163.5 -50h-130v-51h147v-112h-147v-128h-135v128zM433.5 429q25.5 20 25.5 65t-26 65.5t-79 20.5h-115v-171h115q54 0 79.5 20z" />
    <glyph glyph-name="sterling.tf" 
d="M50 115h43q32 0 46.5 15t16.5 47l6 87l-112 -27v110l121 29l8 114q8 102 63.5 156t158.5 54h115v-115h-118q-44 0 -64 -21.5t-24 -78.5l-6 -77l111 26v-110l-119 -28l-8 -99q-2 -29 -11.5 -48t-32.5 -34h322v-115h-516v115z" />
    <glyph glyph-name="uni20A9.tf" 
d="M63 281h-63v100h55l-27 319h125l18 -319h38l33 169h119l33 -169h37l15 319h122l-26 -319h58v-100h-66l-22 -281h-152l-45 281h-31l-55 -281h-142zM179 225l11 56h-14zM423 228l3 53h-13z" />
    <glyph glyph-name="yen.tf" 
d="M233 105l-133 -30v110l133 30v62l-163 -36v110l110 24l-199 325h143l179 -293l176 293h140l-161 -263l73 16v-110l-151 -33l-14 -23v-43l135 30v-110l-135 -30v-134h-133v105z" />
    <glyph glyph-name="uni0338.alt" horiz-adv-x="0" 
d="M31 20l78 102l18 24l220 287l13 18l77 99l89 -66l-82 -107l-19 -25l-220 -285l-18 -23l-72 -94z" />
    <glyph glyph-name="uni0308.cap" horiz-adv-x="0" 
d="M253.5 783.5q-19.5 19.5 -19.5 46.5q0 28 19.5 47t47.5 19q27 0 46.5 -19t19.5 -47q0 -27 -19.5 -46.5t-46.5 -19.5q-28 0 -47.5 19.5zM49.5 783.5q-19.5 19.5 -19.5 46.5q0 28 19.5 47t46.5 19q28 0 47.5 -19t19.5 -47q0 -27 -19.5 -46.5t-47.5 -19.5q-27 0 -46.5 19.5z
" />
    <glyph glyph-name="uni0307.cap" horiz-adv-x="0" 
d="M53 781q-23 23 -23 55t23 55.5t55 23.5t55.5 -23.5t23.5 -55.5t-23.5 -55t-55.5 -23t-55 23z" />
    <glyph glyph-name="gravecomb.cap" horiz-adv-x="0" 
d="M30 890h155l40 -145h-90z" />
    <glyph glyph-name="acutecomb.cap" horiz-adv-x="0" 
d="M70 890h155l-105 -145h-90z" />
    <glyph glyph-name="uni030B.cap" horiz-adv-x="0" 
d="M269 890h155l-105 -145h-90zM80 890h155l-105 -145h-90z" />
    <glyph glyph-name="uni0302.cap" horiz-adv-x="0" 
d="M150 890h140l120 -145h-110l-80 58l-80 -58h-110z" />
    <glyph glyph-name="uni030C.cap" horiz-adv-x="0" 
d="M30 890h110l80 -58l80 58h110l-120 -145h-140z" />
    <glyph glyph-name="uni0306.cap" horiz-adv-x="0" 
d="M78.5 781q-47.5 41 -48.5 109h110q3 -27 19.5 -41t40.5 -14t40.5 14t19.5 41h110q-1 -68 -48.5 -109t-121.5 -41t-121.5 41z" />
    <glyph glyph-name="uni030A.cap" horiz-adv-x="0" 
d="M63 762q-33 32 -33 78q0 28 15.5 53.5t41 41t53.5 15.5q46 0 78 -33t32 -77q0 -47 -31.5 -78.5t-78.5 -31.5q-44 0 -77 32zM168.5 812q11.5 12 11.5 28t-11.5 28t-27.5 12t-28 -12t-12 -28t12 -28t28 -12t27.5 12z" />
    <glyph glyph-name="tildecomb.cap" horiz-adv-x="0" 
d="M219 774l-18 10q-27 16 -45 16q-15 0 -23 -11t-8 -29h-95v26q0 47 32.5 80.5t79.5 33.5q25 0 40.5 -5t34.5 -15l18 -10q34 -20 49 -20t22.5 11t7.5 29h95v-26q0 -50 -27.5 -82t-82.5 -32q-38 0 -80 24z" />
    <glyph glyph-name="uni0304.cap" horiz-adv-x="0" 
d="M30 875h335v-110h-335v110z" />
    </font>
</defs>
</svg>
