<?xml version="1.0" standalone="no"?>
<!DOCTYPE svg PUBLIC "-//W3C//DTD SVG 1.1//EN" "http://www.w3.org/Graphics/SVG/1.1/DTD/svg11.dtd" >
<svg xmlns="http://www.w3.org/2000/svg" xmlns:xlink="http://www.w3.org/1999/xlink" version="1.1">
<metadata>
Created by FontForge 20201107 at Fri Jan 24 12:21:16 2025
 By 
OpenAI OpCo. L.L.C.
</metadata>
<defs>
<font id="OpenAISans-RegularItalic" horiz-adv-x="600" >
  <font-face 
    font-family="OpenAI Sans Book"
    font-weight="400"
    font-style="italic"
    font-stretch="normal"
    units-per-em="1000"
    panose-1="2 11 4 4 3 2 2 6 2 3"
    ascent="800"
    descent="-200"
    x-height="500"
    cap-height="700"
    bbox="-208 -258 2227 1030"
    underline-thickness="50"
    underline-position="-125"
    slope="-12"
    unicode-range="U+000D-FB02"
  />
<missing-glyph horiz-adv-x="712" 
d="M126 700h500v-700h-500v700zM556 68v564h-360v-564h360z" />
    <glyph glyph-name="fi" unicode="fi" horiz-adv-x="625" 
d="M167 427h-112l16 73h112l16 78q13 64 44 93t98 29h120l-15 -74h-96q-31 0 -46 -12.5t-22 -43.5l-14 -70h333l-106 -500h-85l91 427h-249l-90 -427h-85zM547.5 602q-14.5 14 -14.5 35q0 25 18 43t43 18q22 0 36 -14.5t14 -35.5q0 -25 -17.5 -42.5t-42.5 -17.5
q-22 0 -36.5 14z" />
    <glyph glyph-name="fl" unicode="fl" horiz-adv-x="626" 
d="M167 427h-112l16 73h112l16 78q13 64 44 93t98 29h303l-149 -700h-85l133 626h-193q-31 0 -46 -12.5t-22 -43.5l-14 -70h126l-16 -73h-126l-90 -427h-85z" />
    <glyph glyph-name="f_f" unicode="ff" horiz-adv-x="691" 
d="M167 427h-112l16 73h112l16 78q13 64 44 93t98 29h120l-15 -74h-96q-31 0 -46 -12.5t-22 -43.5l-14 -70h249l16 78q13 64 44 93t98 29h120l-15 -74h-96q-31 0 -46 -12.5t-22 -43.5l-14 -70h126l-16 -73h-126l-90 -427h-85l90 427h-249l-90 -427h-85z" />
    <glyph glyph-name="f_f_i" unicode="ffi" horiz-adv-x="960" 
d="M167 427h-112l16 73h112l16 78q13 64 44 93t98 29h120l-15 -74h-96q-31 0 -46 -12.5t-22 -43.5l-14 -70h249l16 78q13 64 44 93t98 29h120l-15 -74h-96q-31 0 -46 -12.5t-22 -43.5l-14 -70h334l-106 -500h-85l91 427h-250l-90 -427h-85l90 427h-249l-90 -427h-85z
M883.5 602q-14.5 14 -14.5 35q0 25 17.5 43t42.5 18q22 0 36.5 -14.5t14.5 -35.5q0 -25 -18 -42.5t-42 -17.5q-22 0 -36.5 14z" />
    <glyph glyph-name="f_f_l" unicode="ffl" horiz-adv-x="960" 
d="M167 427h-112l16 73h112l16 78q13 64 44 93t98 29h120l-15 -74h-96q-31 0 -46 -12.5t-22 -43.5l-14 -70h249l17 78q14 64 44 93t97 29h304l-149 -700h-85l133 626h-193q-31 0 -46 -12.5t-22 -43.5l-15 -70h127l-16 -73h-127l-90 -427h-85l90 427h-249l-90 -427h-85z" />
    <glyph glyph-name="w_w_w.liga" unicode="www" horiz-adv-x="2067" 
d="M70 500h84l30 -410l200 410h93l32 -410l201 410h93l30 -410l201 410h93l31 -410l201 410h93l30 -410l201 410h93l31 -410l201 410h94l-262 -500h-99l-28 401l-198 -401h-99l-34 364l-191 -364h-99l-28 401l-198 -401h-99l-34 364l-192 -364h-99l-28 401l-197 -401h-99z
" />
    <glyph glyph-name=".notdef" horiz-adv-x="712" 
d="M126 700h500v-700h-500v700zM556 68v564h-360v-564h360z" />
    <glyph glyph-name=".null" horiz-adv-x="0" 
 />
    <glyph glyph-name="nonmarkingreturn" unicode="&#xd;" horiz-adv-x="244" 
 />
    <glyph glyph-name="space" unicode=" " horiz-adv-x="244" 
 />
    <glyph glyph-name="exclam" unicode="!" horiz-adv-x="266" 
d="M45.5 5q-16.5 16 -16.5 41q0 30 21.5 51t49.5 21q25 0 41.5 -17.5t16.5 -41.5q0 -29 -21.5 -49.5t-49.5 -20.5q-25 0 -41.5 16zM136 480l47 220h89l-47 -220l-84 -290h-44z" />
    <glyph glyph-name="quotedbl" unicode="&#x22;" horiz-adv-x="351" 
d="M287 620l17 80h85l-17 -80l-57 -133h-34zM132 620l17 80h85l-17 -80l-57 -133h-34z" />
    <glyph glyph-name="numbersign" unicode="#" horiz-adv-x="665" 
d="M157 180h-106v75h122l40 190h-119v75h135l39 180h82l-39 -180h157l37 180h82l-37 -180h106v-75h-122l-39 -190h119v-75h-135l-37 -180h-82l37 180h-158l-39 -180h-82zM413 255l39 190h-157l-40 -190h158z" />
    <glyph glyph-name="dollar" unicode="$" horiz-adv-x="611" 
d="M225 -5l-44 -115h-77l51 134q-59 25 -92.5 72.5t-33.5 113.5q0 15 1 23h88q-3 -45 15 -77.5t53 -51.5l88 232l-11 3q-76 24 -112.5 64.5t-36.5 105.5q0 60 32.5 108.5t90 75.5t127.5 27q30 0 55 -4l43 114h77l-51 -134q62 -27 96 -77.5t32 -116.5h-90q-1 40 -19 69.5
t-49 46.5l-84 -221l18 -6q82 -26 120 -72t38 -111q0 -61 -31.5 -108.5t-90 -73.5t-135.5 -26q-33 0 -68 5zM226 450.5q22 -22.5 65 -36.5l15 -5l83 219q-8 1 -23 1h-10q-65 0 -108.5 -34.5t-43.5 -86.5q0 -35 22 -57.5zM287 72h10q72 0 116.5 32.5t44.5 87.5q0 37 -25 64
t-91 48l-87 -230q18 -2 32 -2z" />
    <glyph glyph-name="percent" unicode="%" horiz-adv-x="938" 
d="M725 700h83l-560 -700h-83zM121 344.5q-40 44.5 -40 121.5q0 22 3 44q12 88 60.5 141.5t122.5 53.5q70 0 110.5 -44.5t40.5 -121.5q0 -21 -3 -44q-12 -89 -60.5 -142t-124.5 -53q-69 0 -109 44.5zM307 400q30 41 38 102q2 11 2 34q0 48 -20 79t-61 31h-4
q-43 0 -71.5 -40.5t-37.5 -102.5q-2 -12 -2 -35q0 -47 19 -78t59 -31h4q44 0 74 41zM602 39.5q-40 44.5 -40 121.5q0 22 3 44q12 88 60.5 141.5t122.5 53.5q70 0 110.5 -44.5t40.5 -121.5q0 -21 -3 -44q-12 -89 -60.5 -142t-124.5 -53q-69 0 -109 44.5zM788 95q30 41 38 102
q2 11 2 34q0 48 -20 79t-61 31h-4q-43 0 -71.5 -40.5t-37.5 -102.5q-2 -12 -2 -35q0 -47 19 -78t59 -31h4q44 0 74 41z" />
    <glyph glyph-name="ampersand" unicode="&#x26;" horiz-adv-x="685" 
d="M153.5 9.5q-49.5 20.5 -79 62.5t-29.5 103q0 73 40.5 126t126.5 88q-25 37 -36 68.5t-11 67.5l2 30q4 44 30 79.5t67 56t91 20.5q53 0 93.5 -23t61.5 -61.5t17 -82.5q-6 -62 -50.5 -109t-124.5 -73l-16 -5l137 -179q49 66 68 157l6 27h84l-6 -29q-12 -61 -38.5 -117
t-64.5 -101l89 -115h-101l-46 59q-91 -70 -203 -70q-58 0 -107.5 20.5zM170.5 97q36.5 -29 96.5 -29q85 0 151 52l-158 204l-4 6q-67 -27 -94.5 -64.5t-27.5 -84.5q0 -55 36.5 -84zM256.5 474q10.5 -26 33.5 -58l31 9q65 20 91.5 50t30.5 72q4 38 -23 64.5t-72 26.5
q-47 0 -74.5 -30.5t-27.5 -81.5q0 -26 10.5 -52z" />
    <glyph glyph-name="quotesingle" unicode="'" horiz-adv-x="196" 
d="M132 620l17 80h85l-17 -80l-57 -133h-34z" />
    <glyph glyph-name="parenleft" unicode="(" horiz-adv-x="379" 
d="M166 -74.5q-48 56.5 -75.5 144t-27.5 190.5q0 150 60 282.5t158.5 214.5t207.5 88l-16 -75q-85 -16 -160 -90t-120 -185.5t-45 -234.5q0 -119 35.5 -208.5t105.5 -124.5l-15 -72q-60 14 -108 70.5z" />
    <glyph glyph-name="parenright" unicode=")" horiz-adv-x="388" 
d="M264 774.5q48 -56.5 75.5 -144t27.5 -190.5q0 -150 -60 -282.5t-158.5 -214.5t-207.5 -88l16 75q85 16 160 90t120 185.5t45 234.5q0 119 -35.5 208.5t-105.5 124.5l15 72q60 -14 108 -70.5z" />
    <glyph glyph-name="asterisk" unicode="*" horiz-adv-x="413" 
d="M165 454l59 102h-118v56h118l-59 102l49 29l60 -102l58 102l49 -29l-58 -102h117v-56h-117l58 -102l-49 -29l-59 102l-59 -102z" />
    <glyph glyph-name="plus" unicode="+" horiz-adv-x="593" 
d="M246 219h-203l16 77h203l44 204h87l-44 -204h204l-16 -77h-204l-44 -204h-87z" />
    <glyph glyph-name="comma" unicode="," horiz-adv-x="255" 
d="M-31 -75h33q60 0 73 59l3 16h-58l24 113h113l-28 -133q-13 -60 -47 -86t-89 -26h-37z" />
    <glyph glyph-name="hyphen" unicode="-" horiz-adv-x="378" 
d="M75 340h264l-16 -75h-264z" />
    <glyph glyph-name="period" unicode="." horiz-adv-x="240" 
d="M33.5 7q-16.5 17 -16.5 41q0 29 21.5 50t49.5 21q26 0 42 -16t16 -42q0 -29 -21 -50t-50 -21q-25 0 -41.5 17z" />
    <glyph glyph-name="slash" unicode="/" horiz-adv-x="358" 
d="M344 700h91l-379 -700h-92z" />
    <glyph glyph-name="zero" unicode="0" horiz-adv-x="662" 
d="M179.5 24.5q-52.5 34.5 -81 98t-28.5 147.5q0 95 33.5 196.5t107.5 172.5t189 71q71 0 124 -34.5t81.5 -97.5t28.5 -147q0 -95 -33.5 -197t-108 -173t-188.5 -71q-72 0 -124.5 34.5zM431.5 116.5q52.5 48.5 83.5 131.5t31 181q0 84 -38 143.5t-110 59.5h-10
q-63 0 -115.5 -48.5t-83.5 -131t-31 -181.5q0 -84 38 -143.5t110 -59.5h10q63 0 115.5 48.5z" />
    <glyph glyph-name="one" unicode="1" horiz-adv-x="342" 
d="M215 508h-139l13 61q64 0 113.5 35.5t71.5 95.5h67l-148 -700h-86z" />
    <glyph glyph-name="two" unicode="2" horiz-adv-x="566" 
d="M32 93l288 228q76 60 110.5 104.5t34.5 95.5q0 49 -34.5 80t-91.5 31h-10q-57 0 -97.5 -39.5t-44.5 -99.5h-87q2 61 32.5 110.5t83.5 78t119 28.5q67 0 116.5 -24.5t76 -66t26.5 -92.5q0 -76 -42 -134t-132 -128l-232 -183h349l-16 -82h-469z" />
    <glyph glyph-name="three" unicode="3" horiz-adv-x="575" 
d="M89 41.5q-61 51.5 -62 139.5h87q4 -54 40 -83.5t95 -29.5h9q68 0 113 37t45 100q0 52 -39 82t-99 30h-32l17 78h60q66 0 108.5 35.5t42.5 92.5q0 50 -35 79.5t-90 29.5h-10q-55 0 -94.5 -32.5t-46.5 -82.5h-86q5 55 37.5 99t85 69t116.5 25q59 0 107 -22t75.5 -62.5
t27.5 -94.5q0 -68 -39 -117t-105 -68q39 -19 63 -56t24 -87q0 -64 -32 -112.5t-89 -74.5t-129 -26q-104 0 -165 51.5z" />
    <glyph glyph-name="four" unicode="4" horiz-adv-x="613" 
d="M367 162h-347l19 93l411 445h115l-98 -460h113l-16 -78h-114l-34 -162h-84zM383 240l76 360l-329 -360h253z" />
    <glyph glyph-name="five" unicode="5" horiz-adv-x="580" 
d="M110 41q-64 51 -68 142h88q6 -54 43 -84.5t93 -30.5h10q48 0 85 22.5t58 61.5t21 87q0 59 -37.5 95.5t-96.5 36.5h-10q-43 0 -83.5 -23t-61.5 -60h-89l145 412h382l-17 -82h-315l-77 -219q53 48 138 48q63 0 110.5 -26t74 -72.5t26.5 -105.5q0 -76 -33.5 -133t-92 -88.5
t-132.5 -31.5q-97 0 -161 51z" />
    <glyph glyph-name="six" unicode="6" horiz-adv-x="611" 
d="M130.5 57q-62.5 67 -62.5 195q0 63 14 129q30 143 107.5 236t199.5 93q57 0 105.5 -22t78.5 -62.5t35 -93.5h-90q-8 44 -44 71.5t-85 27.5h-8q-77 0 -130 -67.5t-83 -187.5q33 41 80 62.5t99 21.5q59 0 106.5 -25.5t74.5 -72t27 -106.5q0 -18 -1 -27q-7 -72 -43.5 -126
t-93 -83.5t-122.5 -29.5q-102 0 -164.5 67zM382.5 92q37.5 23 60 63.5t22.5 90.5q0 60 -36.5 98t-93.5 38h-9q-44 0 -82 -22.5t-61 -62.5t-23 -89q0 -62 37.5 -100.5t95.5 -38.5h9q43 0 80.5 23z" />
    <glyph glyph-name="seven" unicode="7" horiz-adv-x="520" 
d="M461 618h-362l17 82h480l-19 -87q-113 -54 -188 -128t-121 -185.5t-68 -276.5l-3 -23h-88l6 44q57 422 346 574z" />
    <glyph glyph-name="eight" unicode="8" horiz-adv-x="595" 
d="M150 14q-51 24 -78.5 66.5t-27.5 98.5q0 72 47.5 123.5t121.5 66.5q-38 21 -61.5 58.5t-23.5 84.5q0 55 30.5 100.5t85 71.5t121.5 26t117 -25.5t76 -68.5t22 -94q-5 -64 -46.5 -110.5t-104.5 -64.5q44 -19 71.5 -62.5t24.5 -95.5q-7 -92 -76 -145.5t-178 -53.5
q-70 0 -121 24zM392 105q43 37 43 96q0 51 -38.5 83t-100.5 32h-11q-68 0 -111 -37.5t-43 -95.5q0 -51 38.5 -83t101.5 -32h10q68 0 111 37zM451 433q40 37 40 92q0 46 -33.5 76.5t-91.5 30.5h-10q-42 0 -74.5 -17t-50 -46t-17.5 -63q0 -49 33 -79.5t91 -30.5h10
q63 0 103 37z" />
    <glyph glyph-name="nine" unicode="9" horiz-adv-x="614" 
d="M114.5 39q-61.5 49 -69.5 129h89q7 -44 43 -71.5t85 -27.5h8q78 0 133.5 68.5t83.5 187.5q-33 -41 -79.5 -63t-98.5 -22q-60 0 -108 26.5t-75.5 74t-27.5 108.5q0 78 35 137t94.5 91.5t128.5 32.5q67 0 119 -30t81.5 -90.5t29.5 -147.5q0 -54 -12 -120
q-18 -92 -58.5 -167.5t-104 -120t-146.5 -44.5q-89 0 -150.5 49zM409.5 341q38.5 23 61.5 63t23 89q0 59 -38.5 98.5t-95.5 39.5h-10q-42 0 -80 -23t-60.5 -63t-22.5 -89q0 -61 36.5 -99.5t93.5 -38.5h10q44 0 82.5 23z" />
    <glyph glyph-name="colon" unicode=":" horiz-adv-x="268" 
d="M43.5 7q-16.5 17 -16.5 41q0 29 21.5 50t49.5 21q26 0 42 -16t16 -42q0 -29 -21 -50t-50 -21q-25 0 -41.5 17zM127.5 398.5q-16.5 16.5 -16.5 41.5q0 29 21 50t50 21q25 0 41.5 -17t16.5 -41q0 -29 -21.5 -50t-49.5 -21q-25 0 -41.5 16.5z" />
    <glyph glyph-name="semicolon" unicode=";" horiz-adv-x="289" 
d="M-18 -75h33q60 0 73 59l3 16h-58l24 113h114l-29 -133q-13 -60 -46.5 -86t-89.5 -26h-36zM136.5 399.5q-16.5 17.5 -16.5 41.5q0 29 21.5 49.5t49.5 20.5q25 0 41.5 -16t16.5 -41q0 -30 -21 -51t-50 -21q-25 0 -41.5 17.5z" />
    <glyph glyph-name="less" unicode="&#x3c;" horiz-adv-x="550" 
d="M46 221l16 72l463 176l-21 -97l-329 -121l278 -119l-19 -87z" />
    <glyph glyph-name="equal" unicode="=" horiz-adv-x="619" 
d="M91 387h494l-17 -79h-494zM53 206h494l-17 -78h-494z" />
    <glyph glyph-name="greater" unicode="&#x3e;" horiz-adv-x="550" 
d="M48 140l330 121l-279 119l19 88l388 -176l-16 -72l-463 -176z" />
    <glyph glyph-name="question" unicode="?" horiz-adv-x="492" 
d="M267 393l40 12q57 17 89 44.5t32 83.5q0 43 -31.5 71t-88.5 28q-50 0 -87.5 -29.5t-44.5 -80.5h-88q5 60 38.5 102.5t84 64t105.5 21.5t101 -21.5t73 -62t27 -93.5q0 -72 -44.5 -121.5t-119.5 -72.5l-42 -13q-29 -9 -39 -19.5t-16 -34.5l-17 -70h-87l22 100q16 68 93 91z
M117.5 5q-16.5 16 -16.5 41q0 30 21 51t50 21q25 0 41.5 -17.5t16.5 -41.5q0 -29 -21.5 -49.5t-49.5 -20.5q-25 0 -41.5 16z" />
    <glyph glyph-name="at" unicode="@" horiz-adv-x="919" 
d="M242 -83.5q-88 41.5 -138.5 122t-50.5 192.5q0 138 61.5 252t172 180.5t250.5 66.5q104 0 185 -41t126 -114t45 -166q0 -75 -28.5 -147.5t-88 -119.5t-147.5 -47h-96l14 62q-19 -30 -54.5 -51t-77.5 -21t-75.5 23t-53 63t-19.5 91q0 59 23.5 116t72 94.5t117.5 37.5
q48 0 80 -26t43 -63l16 79h80l-71 -337h6q62 0 101.5 39t57.5 96.5t18 113.5q0 74 -33.5 128.5t-97.5 84.5t-151 30q-114 0 -203.5 -57.5t-139 -153.5t-49.5 -208q0 -89 38 -153.5t109 -98.5t167 -34h208l-16 -75h-203q-110 0 -198 41.5zM509.5 181.5q32.5 28.5 50.5 71.5
t18 86q0 48 -22.5 75.5t-59.5 27.5h-8q-47 0 -78 -29.5t-45 -71t-14 -80.5q0 -48 21.5 -78t58.5 -30h6q40 0 72.5 28.5z" />
    <glyph glyph-name="A" unicode="A" horiz-adv-x="684" 
d="M379 700h117l124 -700h-86l-33 184h-343l-111 -184h-94zM487 266l-64 357l-215 -357h279z" />
    <glyph glyph-name="B" unicode="B" horiz-adv-x="671" 
d="M187 700h265q92 0 148 -43.5t56 -124.5q0 -68 -42.5 -118t-109.5 -66q46 -17 72 -54.5t26 -87.5q0 -55 -28.5 -102.5t-78.5 -75.5t-113 -28h-344zM471 114.5q41 32.5 41 99.5q0 47 -30 73.5t-85 26.5h-202l-49 -232h227q57 0 98 32.5zM526 430.5q40 34.5 40 90.5
q0 50 -31.5 73.5t-96.5 23.5h-178l-48 -222h216q58 0 98 34.5z" />
    <glyph glyph-name="C" unicode="C" horiz-adv-x="716" 
d="M205 29.5q-66 39.5 -101 109.5t-35 160q0 26 3 51q11 102 59.5 184t127.5 129t176 47q77 0 137.5 -30t95.5 -84t36 -125h-91q-5 70 -52.5 113.5t-126.5 43.5h-8q-71 0 -127.5 -36.5t-91.5 -99.5t-45 -142q-3 -24 -3 -47q0 -67 24 -119t70 -82t109 -30h8q78 0 135 43.5
t78 113.5h94q-17 -72 -62 -126t-110.5 -83.5t-142.5 -29.5q-91 0 -157 39.5z" />
    <glyph glyph-name="D" unicode="D" horiz-adv-x="714" 
d="M187 700h189q170 0 240.5 -84t70.5 -204q0 -102 -41.5 -197t-121.5 -155t-188 -60h-298zM477 128.5q60 46.5 90 122t30 159.5q0 100 -57 154t-164 54h-117l-112 -536h185q85 0 145 46.5z" />
    <glyph glyph-name="E" unicode="E" horiz-adv-x="649" 
d="M187 700h504l-18 -82h-413l-46 -217h353l-17 -82h-354l-50 -237h423l-17 -82h-514z" />
    <glyph glyph-name="F" unicode="F" horiz-adv-x="607" 
d="M187 700h484l-18 -82h-393l-51 -237h344l-17 -82h-344l-64 -299h-90z" />
    <glyph glyph-name="G" unicode="G" horiz-adv-x="752" 
d="M206.5 28q-65.5 38 -101.5 105.5t-36 153.5q0 118 45.5 214.5t130 152.5t197.5 56q76 0 138 -31.5t98.5 -86t37.5 -120.5h-90q-8 76 -61 116t-129 40h-10q-78 0 -138.5 -45t-94.5 -120t-34 -161q0 -107 54.5 -168.5t146.5 -61.5h8q90 0 158.5 53.5t92.5 150.5h-214l17 81
h205q37 0 57 -19.5t20 -53.5q0 -12 -3 -27l-54 -257h-81l21 97q-35 -48 -94 -77.5t-135 -29.5q-86 0 -151.5 38z" />
    <glyph glyph-name="H" unicode="H" horiz-adv-x="734" 
d="M187 700h90l-65 -309h368l66 309h90l-149 -700h-90l66 309h-369l-66 -309h-90z" />
    <glyph glyph-name="I" unicode="I" horiz-adv-x="275" 
d="M187 700h90l-149 -700h-90z" />
    <glyph glyph-name="J" unicode="J" horiz-adv-x="375" 
d="M-23 85h95q49 0 74.5 24.5t37.5 80.5l109 510h90l-111 -520q-20 -96 -70 -138t-146 -42h-97z" />
    <glyph glyph-name="K" unicode="K" horiz-adv-x="646" 
d="M187 700h90l-75 -356l427 356h127l-342 -285l199 -415h-99l-170 356l-169 -139l-46 -217h-90z" />
    <glyph glyph-name="L" unicode="L" horiz-adv-x="606" 
d="M187 700h90l-131 -618h413l-17 -82h-504z" />
    <glyph glyph-name="M" unicode="M" horiz-adv-x="932" 
d="M187 700h148l93 -626l356 626h150l-149 -700h-90l132 622l-354 -622h-118l-93 625l-134 -625h-90z" />
    <glyph glyph-name="N" unicode="N" horiz-adv-x="744" 
d="M187 700h124l217 -600l128 600h90l-149 -700h-122l-218 603l-129 -603h-90z" />
    <glyph glyph-name="O" unicode="O" horiz-adv-x="770" 
d="M216.5 27.5q-68.5 37.5 -108 108t-39.5 163.5q0 24 3 51q12 108 63 190t130 126t172 44q87 0 156 -37.5t108.5 -108t39.5 -163.5q0 -25 -3 -51q-12 -108 -63 -189.5t-130.5 -126t-172.5 -44.5q-87 0 -155.5 37.5zM505 106q57 34 95 97t48 147q3 23 3 44q0 71 -27.5 124
t-75.5 81.5t-110 28.5h-9q-67 0 -124.5 -34t-95 -97t-47.5 -147q-3 -24 -3 -46q0 -71 27.5 -123.5t75.5 -80.5t109 -28h9q68 0 125 34z" />
    <glyph glyph-name="P" unicode="P" horiz-adv-x="633" 
d="M187 700h244q66 0 115.5 -24t76.5 -66.5t27 -96.5q0 -66 -29 -119t-82 -83.5t-123 -30.5h-228l-60 -280h-90zM519 401q40 39 40 104q0 53 -36 83t-110 30h-153l-55 -256h211q63 0 103 39z" />
    <glyph glyph-name="Q" unicode="Q" horiz-adv-x="770" 
d="M363 -54l-2 -18q0 -16 9.5 -23.5t31.5 -7.5h146l-17 -82h-152q-109 0 -109 88q0 18 4 35l14 62q-100 25 -159.5 104t-59.5 195q0 24 3 51q12 108 63 190t130 126t172 44q87 0 156 -37.5t108.5 -108t39.5 -163.5q0 -25 -3 -51q-12 -108 -63 -189.5t-130.5 -126
t-172.5 -44.5zM505 106q57 34 95 97t48 147q3 23 3 44q0 71 -27.5 124t-75.5 81.5t-110 28.5h-9q-67 0 -124.5 -34t-95 -97t-47.5 -147q-3 -24 -3 -46q0 -71 27.5 -123.5t75.5 -80.5t109 -28h9q68 0 125 34z" />
    <glyph glyph-name="R" unicode="R" horiz-adv-x="682" 
d="M187 700h267q94 0 150 -48.5t56 -129.5q0 -69 -36 -121.5t-100 -71.5q67 -20 67 -89q0 -21 -6 -47l-24 -105q-13 -54 -13 -88h-90q-1 24 9 71l30 140q3 14 3 24q0 50 -63 50h-248l-60 -285h-90zM526 408q42 41 42 103q0 52 -34 79.5t-99 27.5h-175l-53 -251h209
q68 0 110 41z" />
    <glyph glyph-name="S" unicode="S" horiz-adv-x="617" 
d="M103 45.5q-72 55.5 -72 154.5q0 15 1 23h88q-5 -74 43 -112.5t126 -38.5h10q72 0 116.5 32.5t44.5 87.5q0 38 -26.5 65.5t-95.5 48.5l-73 23q-76 24 -112.5 64.5t-36.5 105.5q0 60 32.5 108.5t90 75.5t127.5 27q75 0 133 -27.5t89.5 -77t29.5 -113.5h-90q-1 65 -45 101
t-115 36h-10q-65 0 -108.5 -34.5t-43.5 -86.5q0 -35 22 -57.5t65 -36.5l101 -33q82 -26 120 -72t38 -111q0 -61 -31.5 -108.5t-90 -73.5t-135.5 -26q-120 0 -192 55.5z" />
    <glyph glyph-name="T" unicode="T" horiz-adv-x="616" 
d="M341 618h-251l17 82h590l-17 -82h-249l-132 -618h-90z" />
    <glyph glyph-name="U" unicode="U" horiz-adv-x="696" 
d="M140 47q-58 57 -58 156q0 39 9 84l88 413h90l-90 -422q-8 -40 -8 -69q0 -66 34.5 -101.5t103.5 -35.5h10q82 0 131 43.5t68 130.5l97 454h90l-102 -477q-24 -112 -98.5 -172.5t-199.5 -60.5q-107 0 -165 57z" />
    <glyph glyph-name="V" unicode="V" horiz-adv-x="684" 
d="M101 700h90l113 -617l366 617h99l-424 -700h-113z" />
    <glyph glyph-name="W" unicode="W" horiz-adv-x="933" 
d="M117 700h91l11 -619l277 619h122l16 -618l272 618h95l-319 -700h-125l-16 615l-273 -615h-127z" />
    <glyph glyph-name="X" unicode="X" horiz-adv-x="635" 
d="M288 363l-170 337h102l134 -265l243 265h109l-314 -341l181 -359h-102l-145 286l-263 -286h-108z" />
    <glyph glyph-name="Y" unicode="Y" horiz-adv-x="630" 
d="M277 288l-177 412h98l139 -324l270 324h111l-351 -413l-62 -287h-90z" />
    <glyph glyph-name="Z" unicode="Z" horiz-adv-x="603" 
d="M3 90l525 528h-403l17 82h508l-17 -90l-526 -528h421l-17 -82h-527z" />
    <glyph glyph-name="bracketleft" unicode="[" horiz-adv-x="333" 
d="M219 845h214l-16 -75h-132l-179 -840h133l-16 -75h-215z" />
    <glyph glyph-name="backslash" unicode="\" horiz-adv-x="389" 
d="M111 700h86l122 -700h-86z" />
    <glyph glyph-name="bracketright" unicode="]" horiz-adv-x="332" 
d="M155 -145h-214l16 75h132l179 840h-133l16 75h215z" />
    <glyph glyph-name="asciicircum" unicode="^" horiz-adv-x="554" 
d="M326 700h96l88 -415h-79l-67 343l-214 -343h-88z" />
    <glyph glyph-name="underscore" unicode="_" horiz-adv-x="560" 
d="M8 0h444l-16 -75h-444z" />
    <glyph glyph-name="grave" unicode="`" horiz-adv-x="238" 
d="M127 700h92l45 -133h-57z" />
    <glyph glyph-name="a" unicode="a" horiz-adv-x="552" 
d="M73.5 28q-45.5 38 -45.5 105q0 75 58 121.5t161 46.5h165l4 22q2 14 2 21q0 45 -35 69.5t-85 24.5h-6q-48 0 -83.5 -22t-43.5 -59h-84q11 67 70 110t144 43q86 0 143.5 -42t57.5 -121q0 -22 -6 -49l-40 -188q-16 -74 -17 -110h-79q0 27 7 62q-33 -38 -77.5 -55t-90.5 -17
q-74 0 -119.5 38zM286.5 79.5q37.5 17.5 65 49t36.5 71.5l7 35h-145q-64 0 -102 -26.5t-38 -70.5q0 -35 24.5 -55.5t68.5 -20.5h9q37 0 74.5 17.5z" />
    <glyph glyph-name="b" unicode="b" horiz-adv-x="609" 
d="M199 16.5q-48 26.5 -71 72.5l-19 -89h-84l149 700h85l-55 -254q25 29 64 46t85 17q61 0 108.5 -27t75 -77t27.5 -117q0 -86 -34 -153.5t-93 -106t-132 -38.5q-58 0 -106 26.5zM390 92q40 29 64 79t24 111q0 69 -37.5 111.5t-99.5 42.5h-9q-50 0 -89 -32.5t-60.5 -85.5
t-21.5 -112q0 -63 38 -103t94 -40h10q47 0 87 29z" />
    <glyph glyph-name="c" unicode="c" horiz-adv-x="536" 
d="M139.5 19q-47.5 29 -71.5 80t-24 115q0 12 2 36q8 73 42 132t89.5 93.5t125.5 34.5q59 0 104 -23.5t69.5 -63.5t26.5 -90h-85q-4 44 -34.5 74t-81.5 30h-3q-68 0 -113 -54t-54 -133q-2 -22 -2 -33q0 -67 32.5 -110t93.5 -43h3q50 0 87.5 30.5t51.5 72.5h88
q-22 -79 -83 -128t-149 -49q-67 0 -114.5 29z" />
    <glyph glyph-name="d" unicode="d" horiz-adv-x="608" 
d="M144.5 17q-46.5 27 -73.5 77.5t-27 117.5q0 85 34 153t93.5 106t131.5 38q58 0 106 -26t71 -72l61 289h85l-149 -700h-84l11 54q-26 -30 -65.5 -47t-89.5 -17q-58 0 -104.5 27zM365 95.5q39 32.5 60.5 86t21.5 112.5q0 63 -38 102.5t-94 39.5h-10q-47 0 -87 -28.5
t-64 -78.5t-24 -111q0 -69 37.5 -112t99.5 -43h10q49 0 88 32.5z" />
    <glyph glyph-name="e" unicode="e" horiz-adv-x="542" 
d="M147 17q-48 27 -75 77.5t-27 119.5q0 27 2 41q9 78 45 136t90 88.5t116 30.5q87 0 142.5 -53t58.5 -141q2 -41 -5 -78h-366q-1 -8 -1 -24q0 -71 36.5 -111t91.5 -40h6q44 0 78 23t51 64h88q-24 -73 -83.5 -116.5t-139.5 -43.5q-60 0 -108 27zM385.5 402.5
q-32.5 35.5 -86.5 35.5h-7q-49 0 -90 -32.5t-61 -98.5h274q3 60 -29.5 95.5z" />
    <glyph glyph-name="f" unicode="f" horiz-adv-x="357" 
d="M167 427h-112l16 73h112l16 78q13 64 44 93t98 29h120l-15 -74h-96q-31 0 -46 -12.5t-22 -43.5l-14 -70h126l-16 -73h-126l-90 -427h-85z" />
    <glyph glyph-name="g" unicode="g" horiz-adv-x="593" 
d="M61.5 -180.5q-59.5 39.5 -66.5 115.5h85q7 -39 41 -61t83 -22h10q67 0 108.5 40.5t57.5 113.5l12 55q-26 -29 -63.5 -45t-82.5 -16q-49 0 -94.5 22.5t-75 71.5t-29.5 123q0 87 33 154t89.5 103t122.5 36q64 0 109 -28t65 -72l19 90h85l-110 -514q-21 -97 -83.5 -151.5
t-171.5 -54.5q-84 0 -143.5 39.5zM354 102q39 30 59.5 79t20.5 104q0 71 -36 112t-93 41h-10q-42 0 -79.5 -27.5t-60.5 -77t-23 -112.5q0 -72 35 -110.5t88 -38.5h9q51 0 90 30z" />
    <glyph glyph-name="h" unicode="h" horiz-adv-x="568" 
d="M173 700h85l-54 -258q56 68 140 68q74 0 121.5 -42.5t47.5 -119.5q0 -21 -7 -58l-62 -290h-85l61 291q5 27 5 44q0 46 -24.5 72.5t-71.5 26.5h-10q-51 0 -94 -45t-60 -129l-55 -260h-85z" />
    <glyph glyph-name="i" unicode="i" horiz-adv-x="240" 
d="M130 500h85l-106 -500h-85zM163.5 607.5q-14.5 14.5 -14.5 35.5q0 25 17.5 43t42.5 18q22 0 36.5 -14.5t14.5 -35.5q0 -25 -18 -43t-42 -18q-22 0 -36.5 14.5z" />
    <glyph glyph-name="j" unicode="j" horiz-adv-x="240" 
d="M-149 -103h97q30 0 44.5 12.5t20.5 41.5l117 549h85l-118 -556q-13 -62 -47 -92t-100 -30h-115zM163.5 607.5q-14.5 14.5 -14.5 35.5q0 25 17.5 43t42.5 18q22 0 36.5 -14.5t14.5 -35.5q0 -25 -18 -43t-42 -18q-22 0 -36.5 14.5z" />
    <glyph glyph-name="k" unicode="k" horiz-adv-x="518" 
d="M172 700h85l-89 -422l274 222h122l-250 -199l164 -301h-96l-134 250l-103 -84l-36 -166h-85z" />
    <glyph glyph-name="l" unicode="l" horiz-adv-x="240" 
d="M174 700h85l-149 -700h-85z" />
    <glyph glyph-name="m" unicode="m" horiz-adv-x="899" 
d="M130 500h85l-12 -59q27 33 63 51t77 18q55 0 96.5 -25.5t59.5 -71.5q33 48 77 72.5t95 24.5q75 0 123 -42.5t48 -120.5q0 -25 -6 -57l-62 -290h-85l62 291q5 25 5 42q0 47 -25 74t-71 27h-9q-50 0 -93 -44.5t-60 -126.5l-56 -263h-85l61 291q5 25 5 43q0 46 -24.5 73
t-70.5 27h-10q-51 0 -93.5 -44.5t-60.5 -129.5l-55 -260h-85z" />
    <glyph glyph-name="n" unicode="n" horiz-adv-x="568" 
d="M130 500h85l-12 -58q27 33 63.5 50.5t77.5 17.5q73 0 120.5 -42.5t47.5 -119.5q0 -21 -7 -58l-61 -290h-85l61 291q5 25 5 42q0 47 -25 74t-72 27h-9q-51 0 -94 -44.5t-61 -129.5l-55 -260h-85z" />
    <glyph glyph-name="o" unicode="o" horiz-adv-x="573" 
d="M152 18q-50 28 -79.5 80t-29.5 119q0 19 3 40q10 73 47 131t94 90t123 32q62 0 112 -28t79 -80t29 -119q0 -20 -3 -41q-9 -72 -46 -129.5t-93.5 -90t-123.5 -32.5q-62 0 -112 28zM383.5 115q47.5 51 58.5 135q2 12 2 34q0 69 -37.5 111t-96.5 42h-7q-65 0 -112.5 -51.5
t-58.5 -135.5q-2 -12 -2 -34q0 -69 37 -110.5t96 -41.5h8q65 0 112.5 51z" />
    <glyph glyph-name="p" unicode="p" horiz-adv-x="609" 
d="M130 500h85l-11 -54q26 29 64.5 46.5t83.5 17.5q61 0 109 -27t75.5 -77.5t27.5 -117.5q0 -85 -34 -153t-93.5 -106t-131.5 -38q-58 0 -106 26.5t-70 74.5l-63 -292h-85zM389 92.5q40 28.5 64 78.5t24 111q0 69 -37.5 112t-99.5 43h-9q-50 0 -88.5 -32.5t-60 -85.5
t-21.5 -113q0 -63 37.5 -102.5t93.5 -39.5h10q47 0 87 28.5z" />
    <glyph glyph-name="q" unicode="q" horiz-adv-x="608" 
d="M340 8q-39 -17 -85 -17q-61 0 -109 26.5t-75 76.5t-27 118q0 85 34 153t93.5 106.5t131.5 38.5q58 0 106 -26.5t71 -73.5l19 90h85l-149 -700h-85l54 254q-25 -29 -64 -46zM365 96.5q39 32.5 60.5 85.5t21.5 112q0 63 -38 103t-93 40h-10q-47 0 -87.5 -29t-64.5 -79
t-24 -111q0 -69 37.5 -111.5t99.5 -42.5h10q49 0 88 32.5z" />
    <glyph glyph-name="r" unicode="r" horiz-adv-x="374" 
d="M130 500h80l-18 -89q27 46 70 70t113 24h30l-18 -81h-28q-161 0 -203 -198l-48 -226h-85z" />
    <glyph glyph-name="s" unicode="s" horiz-adv-x="479" 
d="M73 32.5q-54 42.5 -57 120.5h87q3 -45 34 -68t79 -23h9q44 0 71.5 21t27.5 55q0 29 -18 45.5t-57 25.5l-47 12q-64 16 -94.5 48.5t-30.5 85.5q0 42 23.5 77.5t65.5 56.5t96 21q82 0 136 -43t55 -120h-86q-1 42 -31.5 66.5t-73.5 24.5h-9q-41 0 -67 -21.5t-26 -55.5
q0 -48 68 -65l48 -12q61 -14 97 -48.5t36 -90.5q0 -71 -53 -113t-136 -42q-93 0 -147 42.5z" />
    <glyph glyph-name="t" unicode="t" horiz-adv-x="388" 
d="M130 24q-30 24 -30 69q0 20 4 37l63 297h-116l15 73h118l35 162h83l-35 -162h126l-15 -73h-127l-64 -300l-2 -14q0 -38 52 -38h92l-16 -75h-96q-57 0 -87 24z" />
    <glyph glyph-name="u" unicode="u" horiz-adv-x="564" 
d="M96.5 32.5q-41.5 42.5 -41.5 112.5q0 27 6 55l63 300h86l-65 -305q-4 -17 -4 -37q0 -42 22 -67t62 -25h9q58 0 104 49t64 135l53 250h85l-106 -500h-85l12 56q-59 -66 -151 -66q-72 0 -113.5 42.5z" />
    <glyph glyph-name="v" unicode="v" horiz-adv-x="507" 
d="M69 500h87l63 -408l235 408h92l-296 -500h-99z" />
    <glyph glyph-name="w" unicode="w" horiz-adv-x="769" 
d="M70 500h84l30 -411l201 411h93l31 -410l201 410h94l-262 -500h-99l-29 401l-197 -401h-99z" />
    <glyph glyph-name="x" unicode="x" horiz-adv-x="504" 
d="M206 257l-132 243h92l97 -181l169 181h105l-237 -251l135 -249h-92l-100 188l-176 -188h-104z" />
    <glyph glyph-name="y" unicode="y" horiz-adv-x="519" 
d="M-51 -100h94q29 0 48.5 13.5t39.5 46.5l40 67l-114 473h84l90 -374l229 374h95l-350 -570q-37 -60 -74.5 -82.5t-93.5 -22.5h-104z" />
    <glyph glyph-name="z" unicode="z" horiz-adv-x="484" 
d="M6 84l368 343h-290l15 73h388l-17 -83l-370 -344h311l-15 -73h-408z" />
    <glyph glyph-name="braceleft" unicode="{" horiz-adv-x="353" 
d="M86.5 -117q-27.5 28 -27.5 74q0 18 5 41l47 225q3 12 3 22q0 19 -10.5 28t-32.5 9h-26l29 136h34q23 0 36 12.5t19 41.5l48 231q16 78 50 110t97 32h95l-16 -75h-60q-40 0 -57.5 -19t-26.5 -63l-53 -252q-8 -38 -29.5 -57t-54.5 -19h-19l-5 -20h8q30 0 46.5 -18.5
t16.5 -47.5q0 -15 -2 -22l-53 -244q-4 -15 -4 -31q0 -47 55 -47h60l-16 -75h-76q-53 0 -80.5 28z" />
    <glyph glyph-name="bar" unicode="|" horiz-adv-x="273" 
d="M205 785h89l-184 -870h-89z" />
    <glyph glyph-name="braceright" unicode="}" horiz-adv-x="352" 
d="M307.5 818q27.5 -28 27.5 -74q0 -18 -5 -41l-47 -225q-3 -12 -3 -22q0 -19 10.5 -28t32.5 -9h26l-29 -136h-34q-23 0 -36 -12.5t-19 -41.5l-48 -231q-16 -78 -50 -110t-97 -32h-95l16 75h60q40 0 57.5 19t26.5 63l53 252q8 38 29.5 57t54.5 19h19l5 20h-8
q-30 0 -46.5 18.5t-16.5 47.5q0 15 2 22l53 244q4 15 4 31q0 47 -55 47h-60l16 75h76q53 0 80.5 -28z" />
    <glyph glyph-name="asciitilde" unicode="~" horiz-adv-x="482" 
d="M259 308l-21 16q-15 12 -26.5 18t-24.5 6q-37 0 -50 -58h-64l5 21q10 47 40 75.5t72 28.5q43 0 75 -25l22 -17q16 -13 27.5 -18.5t22.5 -5.5q38 0 51 58h63l-4 -21q-10 -47 -39.5 -75.5t-70.5 -28.5q-45 0 -78 26z" />
    <glyph glyph-name="uni00A0" unicode="&#xa0;" horiz-adv-x="244" 
 />
    <glyph glyph-name="exclamdown" unicode="&#xa1;" horiz-adv-x="253" 
d="M212.5 495q16.5 -16 16.5 -41q0 -30 -21.5 -51t-49.5 -21q-25 0 -41.5 17.5t-16.5 41.5q0 29 21.5 49.5t49.5 20.5q25 0 41.5 -16zM122 20l-47 -220h-89l47 220l84 290h44z" />
    <glyph glyph-name="cent" unicode="&#xa2;" horiz-adv-x="538" 
d="M211 -7l-43 -113h-75l52 136q-50 27 -76 78.5t-26 118.5q0 11 2 37q8 73 42 132t89.5 93.5t125.5 34.5q13 0 31 -2l43 112h75l-50 -131q47 -22 73 -63.5t28 -92.5h-85q-5 53 -44 82l-134 -350q6 -1 16 -1h3q50 0 87.5 30.5t51.5 72.5h88q-22 -79 -83 -128t-149 -49
q-22 0 -42 3zM129 218q0 -39 12 -72t34 -53l131 344h-5h-3q-68 0 -113 -54t-54 -133q-2 -22 -2 -32z" />
    <glyph glyph-name="sterling" unicode="&#xa3;" horiz-adv-x="562" 
d="M15 78q86 0 110 93l28 108l-99 -23l19 85l102 24l38 150q24 94 89.5 139.5t153.5 45.5h99l-17 -78h-77q-66 0 -108 -32t-58 -94l-28 -109l143 34l-18 -85l-147 -35l-33 -130q-8 -33 -28 -58t-45 -35h367l-17 -78h-492z" />
    <glyph glyph-name="currency" unicode="&#xa4;" horiz-adv-x="753" 
d="M227 96l-87 -83l-55 54l89 87q-44 66 -44 151q0 81 42 146l-87 87l55 54l86 -82q33 27 74.5 41t86.5 14q47 0 89 -15t75 -42l88 84l54 -54l-90 -90q41 -63 41 -143q0 -82 -43 -149l92 -89l-54 -54l-90 85q-33 -28 -74.5 -43t-87.5 -15q-90 0 -160 56zM475.5 142
q37.5 24 59 67t21.5 96t-21.5 94.5t-59 64.5t-83.5 23h-10q-46 0 -83.5 -23t-59 -64.5t-21.5 -94.5t23 -96t61.5 -67t84.5 -24h5q46 0 83.5 24z" />
    <glyph glyph-name="yen" unicode="&#xa5;" horiz-adv-x="635" 
d="M246 127l-152 -33l16 77l153 33l18 83l-184 -40l15 77l147 32l-145 344h94l132 -315l261 315h108l-253 -301l117 25l-16 -77l-176 -38l-10 -12l-16 -73l152 32l-16 -77l-152 -33l-31 -146h-89z" />
    <glyph glyph-name="brokenbar" unicode="&#xa6;" horiz-adv-x="273" 
d="M100 283h89l-78 -368h-88zM207 785h88l-76 -358h-88z" />
    <glyph glyph-name="section" unicode="&#xa7;" horiz-adv-x="527" 
d="M63 18h175q49 0 71.5 17t22.5 46q0 21 -16 36.5t-50 29.5l-93 38q-60 24 -86 54t-26 81q0 39 28 79t89 71q-38 36 -38 89q0 67 46.5 104t132.5 37h192l-18 -78h-173q-44 0 -69.5 -15.5t-25.5 -44.5q0 -20 16 -36.5t49 -30.5l83 -36q62 -26 92 -57t30 -84
q0 -37 -26.5 -76.5t-85.5 -69.5q17 -17 26.5 -40.5t9.5 -49.5q0 -35 -18.5 -67.5t-57 -53.5t-94.5 -21h-203zM388 260.5q19 24.5 19 47.5q0 27 -21 45.5t-71 39.5l-77 33q-49 -21 -69 -47t-20 -47q0 -26 15 -43t50 -31l106 -43q49 21 68 45.5z" />
    <glyph glyph-name="dieresis" unicode="&#xa8;" horiz-adv-x="340" 
d="M309 599.5q-13 13.5 -13 32.5q0 23 17 39.5t39 16.5q20 0 33 -13.5t13 -33.5q0 -22 -16.5 -38.5t-39.5 -16.5q-20 0 -33 13.5zM120 598.5q-13 12.5 -13 31.5q0 23 17 40.5t39 17.5q19 0 32 -13t13 -33q0 -22 -16.5 -39t-39.5 -17q-19 0 -32 12.5z" />
    <glyph glyph-name="copyright" unicode="&#xa9;" horiz-adv-x="877" 
d="M246.5 8.5q-81.5 48.5 -129 131.5t-47.5 182q0 114 55 210t152 152t218 56q96 0 177.5 -48t129 -131t47.5 -181q0 -113 -54.5 -209.5t-151.5 -153.5t-219 -57q-96 0 -177.5 48.5zM612.5 74.5q80.5 49.5 124.5 130t44 171.5q0 82 -38.5 150.5t-105.5 108.5t-149 40
q-102 0 -182 -49t-124 -130t-44 -171q0 -83 38.5 -151.5t105 -108.5t148.5 -40q102 0 182.5 49.5zM324.5 204q-44.5 46 -44.5 121q0 57 22 109t67.5 85t111.5 33q43 0 78.5 -17.5t55 -48t17.5 -66.5h-75q-2 28 -23.5 48.5t-55.5 20.5h-5q-41 0 -67.5 -27.5t-39 -66
t-12.5 -71.5q0 -47 23.5 -75t61.5 -28h5q31 0 56.5 19t33.5 50h75q-17 -64 -61.5 -98t-109.5 -34q-69 0 -113.5 46z" />
    <glyph glyph-name="ordfeminine" unicode="&#xaa;" horiz-adv-x="326" 
d="M104.5 430q-24.5 21 -24.5 56q0 47 32.5 74t87.5 27h88l2 8q1 8 2 15q0 20 -15 30t-39 10h-2q-47 0 -61 -36h-65q12 41 46 66t86 25t82.5 -26t30.5 -69q0 -12 -3 -26l-23 -106q-5 -24 -9 -63h-62v7l2 22q-16 -16 -39.5 -25.5t-50.5 -9.5q-41 0 -65.5 21zM244.5 480.5
q24.5 17.5 31.5 50.5l1 7h-73q-29 0 -44 -11.5t-15 -31.5q0 -14 11.5 -23t31.5 -9h2q30 0 54.5 17.5z" />
    <glyph glyph-name="guillemotleft" unicode="&#xab;" horiz-adv-x="538" 
d="M257 285l190 215h107l-200 -225l95 -205h-93zM44 285l190 215h107l-200 -225l95 -205h-93z" />
    <glyph glyph-name="logicalnot" unicode="&#xac;" 
d="M439 268h-370l16 79h458l-46 -220h-88z" />
    <glyph glyph-name="registered" unicode="&#xae;" horiz-adv-x="877" 
d="M246.5 8.5q-81.5 48.5 -129 131.5t-47.5 182q0 114 55 210t152 152t218 56q96 0 177.5 -48t129 -131t47.5 -181q0 -113 -54.5 -209.5t-151.5 -153.5t-219 -57q-96 0 -177.5 48.5zM612.5 74.5q80.5 49.5 124.5 130.5t44 171q0 82 -38.5 150.5t-105.5 108.5t-149 40
q-102 0 -182 -49t-124 -130t-44 -171q0 -82 38.5 -151t105 -109t148.5 -40q102 0 182.5 49.5zM366 544h149q56 0 88 -27t32 -71q0 -38 -20.5 -65t-53.5 -39q34 -14 34 -52q0 -11 -3 -25l-8 -36q-8 -38 -8 -61h-70q-1 12 1.5 27t5.5 27l9 43q1 5 1 13q0 32 -42 32h-94
l-30 -142h-71zM559 425l1 9q0 46 -64 46h-73l-23 -111h80q70 0 79 56z" />
    <glyph glyph-name="macron" unicode="&#xaf;" horiz-adv-x="346" 
d="M117 658h285l-14 -68h-285z" />
    <glyph glyph-name="degree" unicode="&#xb0;" horiz-adv-x="469" 
d="M194.5 364.5q-42.5 24.5 -66.5 66.5t-24 94t24 94t66.5 66.5t94.5 24.5t94 -24.5t66.5 -66.5t24.5 -94t-24.5 -94t-66.5 -66.5t-94 -24.5t-94.5 24.5zM363.5 447q30.5 32 30.5 78t-30.5 78t-74.5 32t-74.5 -32t-30.5 -78t30.5 -78t74.5 -32t74.5 32z" />
    <glyph glyph-name="plusminus" unicode="&#xb1;" horiz-adv-x="624" 
d="M277 287h-204l17 78h204l28 135h87l-29 -135h204l-17 -78h-204l-27 -130h-87zM29 78h494l-17 -78h-494z" />
    <glyph glyph-name="uni00B2" unicode="&#xb2;" horiz-adv-x="341" 
d="M92 492l158 118q44 33 58.5 50t14.5 44q0 22 -16.5 36t-40.5 14h-5q-25 0 -44.5 -16t-23.5 -45h-71q8 56 49 89t99 33q54 0 90.5 -29.5t36.5 -77.5q0 -44 -23.5 -73t-74.5 -66l-125 -93h190l-13 -61h-276z" />
    <glyph glyph-name="uni00B3" unicode="&#xb3;" horiz-adv-x="346" 
d="M121 441q-37 31 -35 86h70q-1 -26 16 -42t45 -16h5q33 0 54.5 17.5t21.5 49.5q0 24 -16 36.5t-42 12.5h-31l12 60h34q35 0 55.5 16.5t20.5 45.5q0 23 -16.5 36t-43.5 13h-5q-26 0 -44.5 -15t-23.5 -39h-69q7 54 47 83.5t98 29.5q54 0 90.5 -26t36.5 -73q0 -39 -22 -66
t-58 -38q21 -10 34 -30.5t13 -48.5q0 -58 -44.5 -90.5t-106.5 -32.5q-59 0 -96 31z" />
    <glyph glyph-name="acute" unicode="&#xb4;" horiz-adv-x="180" 
d="M156 700h95l-99 -133h-62z" />
    <glyph glyph-name="uni00B5" unicode="&#xb5;" horiz-adv-x="589" 
d="M130 500h85l-64 -304q-5 -25 -5 -43q0 -42 22 -66.5t63 -24.5h8q58 0 100.5 47t60.5 131l56 260h85l-82 -380q-1 -8 -2 -17q0 -31 31 -31h37l-15 -72h-51q-34 0 -57 15.5t-29 44.5q-27 -32 -68 -51t-83 -19q-75 0 -106 44l-50 -234h-85z" />
    <glyph glyph-name="paragraph" unicode="&#xb6;" horiz-adv-x="617" 
d="M244 306h-1q-46 4 -84.5 27t-61.5 61.5t-23 86.5q0 61 29.5 111t80.5 79t113 29h371l-16 -75h-63l-176 -825h-82l176 825h-113l-176 -825h-82z" />
    <glyph glyph-name="periodcentered" unicode="&#xb7;" horiz-adv-x="257" 
d="M95.5 287q-16.5 17 -16.5 41q0 29 21.5 50t49.5 21q26 0 42 -16t16 -42q0 -29 -21 -50t-50 -21q-25 0 -41.5 17z" />
    <glyph glyph-name="cedilla" unicode="&#xb8;" horiz-adv-x="237" 
d="M-59 -170h69q23 0 37.5 11.5t14.5 30.5q0 14 -11 22t-30 8h-26l24 113h52l-15 -69q32 -5 50.5 -25.5t18.5 -48.5q0 -49 -35 -76.5t-84 -27.5h-78z" />
    <glyph glyph-name="uni00B9" unicode="&#xb9;" horiz-adv-x="222" 
d="M189 673h-84l9 47q45 1 74.5 24t46.5 66h51l-84 -395h-68z" />
    <glyph glyph-name="ordmasculine" unicode="&#xba;" horiz-adv-x="342" 
d="M129.5 446.5q-36.5 36.5 -36.5 92.5q0 12 1 19q7 66 50.5 106.5t105.5 40.5q56 0 92.5 -35.5t36.5 -90.5q0 -14 -1 -21q-8 -67 -51 -107.5t-105 -40.5q-56 0 -92.5 36.5zM283.5 491q22.5 25 27.5 67q1 6 1 17q0 34 -18 54t-48 20h-3q-35 0 -59 -30t-24 -78
q0 -34 18 -54.5t48 -20.5h2q33 0 55.5 25z" />
    <glyph glyph-name="guillemotright" unicode="&#xbb;" horiz-adv-x="539" 
d="M296 285l-190 -215h-107l200 225l-95 205h93zM509 285l-190 -215h-107l200 225l-95 205h93z" />
    <glyph glyph-name="onequarter" unicode="&#xbc;" horiz-adv-x="705" 
d="M166 563h-84l9 47q45 1 74.5 24t46.5 66h51l-84 -395h-68zM567 700h81l-562 -700h-82zM523 91h-187l14 61l224 243h81l-53 -246h56l-13 -58h-56l-18 -91h-67zM536 149l34 164l-150 -164h116z" />
    <glyph glyph-name="onehalf" unicode="&#xbd;" horiz-adv-x="731" 
d="M166 563h-84l9 47q45 1 74.5 24t46.5 66h51l-84 -395h-68zM567 700h81l-562 -700h-82zM391 77l158 118q44 33 58.5 50t14.5 44q0 22 -16.5 36t-40.5 14h-5q-25 0 -44.5 -16t-23.5 -45h-71q8 56 49 89t99 33q54 0 90.5 -29.5t36.5 -77.5q0 -44 -23.5 -73t-74.5 -66
l-125 -93h190l-13 -61h-276z" />
    <glyph glyph-name="threequarters" unicode="&#xbe;" horiz-adv-x="815" 
d="M97 331q-37 31 -35 86h70q-1 -26 16 -42t45 -16h5q33 0 54.5 17.5t21.5 49.5q0 24 -16 36.5t-42 12.5h-31l12 60h34q35 0 55.5 16.5t20.5 45.5q0 23 -16.5 36t-43.5 13h-5q-26 0 -44.5 -15t-23.5 -39h-69q7 54 47 83.5t98 29.5q54 0 90.5 -26t36.5 -73q0 -39 -22 -66
t-58 -38q21 -10 34 -30.5t13 -48.5q0 -58 -44.5 -90.5t-106.5 -32.5q-59 0 -96 31zM677 700h81l-562 -700h-82zM633 91h-187l14 61l224 243h81l-53 -246h56l-13 -58h-56l-18 -91h-67zM646 149l34 164l-150 -164h116z" />
    <glyph glyph-name="questiondown" unicode="&#xbf;" horiz-adv-x="482" 
d="M222 107l-40 -12q-57 -17 -89 -44.5t-32 -83.5q0 -43 31.5 -71t88.5 -28q50 0 87.5 29.5t44.5 80.5h88q-5 -60 -38.5 -102.5t-84 -64t-105.5 -21.5t-101 21.5t-73 62t-27 93.5q0 72 44.5 121.5t119.5 72.5l42 13q29 9 39 19.5t16 34.5l17 70h87l-22 -100q-16 -68 -93 -91
zM371.5 495q16.5 -16 16.5 -41q0 -30 -21 -51t-50 -21q-25 0 -41.5 17.5t-16.5 41.5q0 29 21.5 49.5t49.5 20.5q25 0 41.5 -16z" />
    <glyph glyph-name="Agrave" unicode="&#xc0;" horiz-adv-x="684" 
d="M379 700h117l124 -700h-86l-33 184h-343l-111 -184h-94zM487 266l-64 357l-215 -357h279zM328 890h107l49 -128h-67z" />
    <glyph glyph-name="Aacute" unicode="&#xc1;" horiz-adv-x="684" 
d="M379 700h117l124 -700h-86l-33 184h-343l-111 -184h-94zM487 266l-64 357l-215 -357h279zM467 890h107l-89 -128h-67z" />
    <glyph glyph-name="Acircumflex" unicode="&#xc2;" horiz-adv-x="684" 
d="M379 700h117l124 -700h-86l-33 184h-343l-111 -184h-94zM487 266l-64 357l-215 -357h279zM417 890h109l93 -128h-63l-91 64l-120 -64h-75z" />
    <glyph glyph-name="Atilde" unicode="&#xc3;" horiz-adv-x="684" 
d="M379 700h117l124 -700h-86l-33 184h-343l-111 -184h-94zM487 266l-64 357l-215 -357h279zM464 784l-27 21q-14 11 -23.5 15.5t-20.5 4.5q-30 0 -41 -58h-68l3 14q12 56 37.5 84t67.5 28q20 0 36.5 -8t33.5 -20l27 -20q27 -20 43 -20q35 0 43 58h69l-4 -21
q-8 -52 -34 -78.5t-66 -26.5q-43 0 -76 27z" />
    <glyph glyph-name="Adieresis" unicode="&#xc4;" horiz-adv-x="684" 
d="M379 700h117l124 -700h-86l-33 184h-343l-111 -184h-94zM487 266l-64 357l-215 -357h279zM522.5 789.5q-13.5 13.5 -13.5 33.5q0 23 17.5 40.5t40.5 17.5q20 0 33.5 -14t13.5 -34q0 -22 -18 -39.5t-41 -17.5q-19 0 -32.5 13.5zM330.5 789.5q-13.5 13.5 -13.5 33.5
q0 23 17.5 40.5t40.5 17.5q20 0 33.5 -14t13.5 -34q0 -22 -17.5 -39.5t-40.5 -17.5q-20 0 -33.5 13.5z" />
    <glyph glyph-name="Aring" unicode="&#xc5;" horiz-adv-x="684" 
d="M379 700h117l124 -700h-86l-33 184h-343l-111 -184h-94zM487 266l-64 357l-215 -357h279zM398.5 777.5q-25.5 24.5 -25.5 60.5t25.5 60.5t60.5 24.5t61 -24.5t26 -60.5t-26 -60.5t-61 -24.5t-60.5 24.5zM483 814q10 10 10 24t-10 24t-23 10t-23.5 -10t-10.5 -24
q0 -13 10.5 -23.5t23.5 -10.5t23 10z" />
    <glyph glyph-name="AE" unicode="&#xc6;" horiz-adv-x="979" 
d="M496 700h484l-17 -82h-348l-17 -217h304l-17 -82h-293l-18 -237h350l-17 -82h-422l15 184h-316l-146 -184h-107zM506 266l30 364l-288 -364h258z" />
    <glyph glyph-name="Ccedilla" unicode="&#xc7;" horiz-adv-x="716" 
d="M250 -170h69q23 0 37.5 11.5t14.5 30.5q0 14 -11 22t-30 8h-26l19 90q-80 8 -137 49t-87 107.5t-30 149.5q0 25 3 52q11 102 59.5 184t127.5 129t176 47q77 0 137.5 -30t95.5 -84t36 -125h-91q-5 70 -52.5 113.5t-126.5 43.5h-8q-71 0 -127.5 -36.5t-91.5 -99.5t-45 -142
q-3 -24 -3 -47q0 -67 24 -119t70 -82t109 -30h8q78 0 135 43.5t78 113.5h94q-25 -106 -107 -170.5t-195 -68.5l-10 -44q32 -5 50.5 -25.5t18.5 -48.5q0 -49 -35 -76.5t-84 -27.5h-78z" />
    <glyph glyph-name="Egrave" unicode="&#xc8;" horiz-adv-x="649" 
d="M187 700h504l-18 -82h-413l-46 -217h353l-17 -82h-354l-50 -237h423l-17 -82h-514zM328 890h107l49 -128h-67z" />
    <glyph glyph-name="Eacute" unicode="&#xc9;" horiz-adv-x="649" 
d="M187 700h504l-18 -82h-413l-46 -217h353l-17 -82h-354l-50 -237h423l-17 -82h-514zM467 890h107l-89 -128h-67z" />
    <glyph glyph-name="Ecircumflex" unicode="&#xca;" horiz-adv-x="649" 
d="M187 700h504l-18 -82h-413l-46 -217h353l-17 -82h-354l-50 -237h423l-17 -82h-514zM417 890h109l93 -128h-63l-91 64l-120 -64h-75z" />
    <glyph glyph-name="Edieresis" unicode="&#xcb;" horiz-adv-x="649" 
d="M187 700h504l-18 -82h-413l-46 -217h353l-17 -82h-354l-50 -237h423l-17 -82h-514zM522.5 789.5q-13.5 13.5 -13.5 33.5q0 23 17.5 40.5t40.5 17.5q20 0 33.5 -14t13.5 -34q0 -22 -18 -39.5t-41 -17.5q-19 0 -32.5 13.5zM330.5 789.5q-13.5 13.5 -13.5 33.5
q0 23 17.5 40.5t40.5 17.5q20 0 33.5 -14t13.5 -34q0 -22 -17.5 -39.5t-40.5 -17.5q-20 0 -33.5 13.5z" />
    <glyph glyph-name="Igrave" unicode="&#xcc;" horiz-adv-x="275" 
d="M187 700h90l-149 -700h-90zM122 890h107l49 -128h-67z" />
    <glyph glyph-name="Iacute" unicode="&#xcd;" horiz-adv-x="275" 
d="M187 700h90l-149 -700h-90zM261 890h107l-89 -128h-67z" />
    <glyph glyph-name="Icircumflex" unicode="&#xce;" horiz-adv-x="275" 
d="M187 700h90l-149 -700h-90zM211 890h109l93 -128h-63l-91 64l-120 -64h-75z" />
    <glyph glyph-name="Idieresis" unicode="&#xcf;" horiz-adv-x="275" 
d="M187 700h90l-149 -700h-90zM316.5 789.5q-13.5 13.5 -13.5 33.5q0 23 17.5 40.5t40.5 17.5q20 0 33.5 -14t13.5 -34q0 -22 -18 -39.5t-41 -17.5q-19 0 -32.5 13.5zM124.5 789.5q-13.5 13.5 -13.5 33.5q0 23 17.5 40.5t40.5 17.5q20 0 33.5 -14t13.5 -34
q0 -22 -17.5 -39.5t-40.5 -17.5q-20 0 -33.5 13.5z" />
    <glyph glyph-name="Eth" unicode="&#xd0;" horiz-adv-x="747" 
d="M137 310h-88l18 80h87l66 310h189q170 0 240.5 -84t70.5 -204q0 -102 -41.5 -197t-121.5 -155t-188 -60h-298zM510 128.5q60 46.5 90 122t30 159.5q0 100 -57 154t-164 54h-117l-48 -228h148l-18 -80h-146l-48 -228h185q85 0 145 46.5z" />
    <glyph glyph-name="Ntilde" unicode="&#xd1;" horiz-adv-x="744" 
d="M187 700h124l217 -600l128 600h90l-149 -700h-122l-218 603l-129 -603h-90zM493 784l-27 21q-14 11 -23.5 15.5t-20.5 4.5q-30 0 -41 -58h-68l3 14q12 56 37.5 84t67.5 28q20 0 36.5 -8t33.5 -20l27 -20q27 -20 43 -20q35 0 43 58h69l-4 -21q-8 -52 -34 -78.5t-66 -26.5
q-43 0 -76 27z" />
    <glyph glyph-name="Ograve" unicode="&#xd2;" horiz-adv-x="770" 
d="M216.5 27.5q-68.5 37.5 -108 108t-39.5 163.5q0 24 3 51q12 108 63 190t130 126t172 44q87 0 156 -37.5t108.5 -108t39.5 -163.5q0 -25 -3 -51q-12 -108 -63 -189.5t-130.5 -126t-172.5 -44.5q-87 0 -155.5 37.5zM505 106q57 34 95 97t48 147q3 23 3 44q0 71 -27.5 124
t-75.5 81.5t-110 28.5h-9q-67 0 -124.5 -34t-95 -97t-47.5 -147q-3 -24 -3 -46q0 -71 27.5 -123.5t75.5 -80.5t109 -28h9q68 0 125 34zM369 890h107l49 -128h-67z" />
    <glyph glyph-name="Oacute" unicode="&#xd3;" horiz-adv-x="770" 
d="M216.5 27.5q-68.5 37.5 -108 108t-39.5 163.5q0 24 3 51q12 108 63 190t130 126t172 44q87 0 156 -37.5t108.5 -108t39.5 -163.5q0 -25 -3 -51q-12 -108 -63 -189.5t-130.5 -126t-172.5 -44.5q-87 0 -155.5 37.5zM505 106q57 34 95 97t48 147q3 23 3 44q0 71 -27.5 124
t-75.5 81.5t-110 28.5h-9q-67 0 -124.5 -34t-95 -97t-47.5 -147q-3 -24 -3 -46q0 -71 27.5 -123.5t75.5 -80.5t109 -28h9q68 0 125 34zM508 890h107l-89 -128h-67z" />
    <glyph glyph-name="Ocircumflex" unicode="&#xd4;" horiz-adv-x="770" 
d="M216.5 27.5q-68.5 37.5 -108 108t-39.5 163.5q0 24 3 51q12 108 63 190t130 126t172 44q87 0 156 -37.5t108.5 -108t39.5 -163.5q0 -25 -3 -51q-12 -108 -63 -189.5t-130.5 -126t-172.5 -44.5q-87 0 -155.5 37.5zM505 106q57 34 95 97t48 147q3 23 3 44q0 71 -27.5 124
t-75.5 81.5t-110 28.5h-9q-67 0 -124.5 -34t-95 -97t-47.5 -147q-3 -24 -3 -46q0 -71 27.5 -123.5t75.5 -80.5t109 -28h9q68 0 125 34zM458 890h109l93 -128h-63l-91 64l-120 -64h-75z" />
    <glyph glyph-name="Otilde" unicode="&#xd5;" horiz-adv-x="770" 
d="M216.5 27.5q-68.5 37.5 -108 108t-39.5 163.5q0 24 3 51q12 108 63 190t130 126t172 44q87 0 156 -37.5t108.5 -108t39.5 -163.5q0 -25 -3 -51q-12 -108 -63 -189.5t-130.5 -126t-172.5 -44.5q-87 0 -155.5 37.5zM505 106q57 34 95 97t48 147q3 23 3 44q0 71 -27.5 124
t-75.5 81.5t-110 28.5h-9q-67 0 -124.5 -34t-95 -97t-47.5 -147q-3 -24 -3 -46q0 -71 27.5 -123.5t75.5 -80.5t109 -28h9q68 0 125 34zM505 784l-27 21q-14 11 -23.5 15.5t-20.5 4.5q-30 0 -41 -58h-68l3 14q12 56 37.5 84t67.5 28q20 0 36.5 -8t33.5 -20l27 -20
q27 -20 43 -20q35 0 43 58h69l-4 -21q-8 -52 -34 -78.5t-66 -26.5q-43 0 -76 27z" />
    <glyph glyph-name="Odieresis" unicode="&#xd6;" horiz-adv-x="770" 
d="M216.5 27.5q-68.5 37.5 -108 108t-39.5 163.5q0 24 3 51q12 108 63 190t130 126t172 44q87 0 156 -37.5t108.5 -108t39.5 -163.5q0 -25 -3 -51q-12 -108 -63 -189.5t-130.5 -126t-172.5 -44.5q-87 0 -155.5 37.5zM505 106q57 34 95 97t48 147q3 23 3 44q0 71 -27.5 124
t-75.5 81.5t-110 28.5h-9q-67 0 -124.5 -34t-95 -97t-47.5 -147q-3 -24 -3 -46q0 -71 27.5 -123.5t75.5 -80.5t109 -28h9q68 0 125 34zM563.5 789.5q-13.5 13.5 -13.5 33.5q0 23 17.5 40.5t40.5 17.5q20 0 33.5 -14t13.5 -34q0 -22 -18 -39.5t-41 -17.5q-19 0 -32.5 13.5z
M371.5 789.5q-13.5 13.5 -13.5 33.5q0 23 17.5 40.5t40.5 17.5q20 0 33.5 -14t13.5 -34q0 -22 -17.5 -39.5t-40.5 -17.5q-20 0 -33.5 13.5z" />
    <glyph glyph-name="multiply" unicode="&#xd7;" horiz-adv-x="545" 
d="M27 105l191 159l-125 158l62 49l125 -158l191 158l49 -61l-191 -158l125 -158l-62 -50l-125 159l-191 -159z" />
    <glyph glyph-name="Oslash" unicode="&#xd8;" horiz-adv-x="771" 
d="M258 10.5q-54 20.5 -95 58.5l-81 -75l-55 59l86 80q-41 73 -41 165q0 25 3 52q12 108 63 190t130 126t172 44q63 0 117 -20t95 -58l80 74l55 -59l-85 -79q42 -74 42 -168q0 -24 -3 -50q-12 -108 -63 -189.5t-130.5 -126t-172.5 -44.5q-63 0 -117 20.5zM508 106
q57 34 95 97t48 147q3 23 3 45q0 59 -21 109l-406 -376q58 -56 147 -56h9q68 0 125 34zM162 303q0 -59 20 -107l405 376q-28 27 -65.5 41.5t-80.5 14.5h-9q-67 0 -124.5 -34t-95 -97t-47.5 -147q-3 -24 -3 -47z" />
    <glyph glyph-name="Ugrave" unicode="&#xd9;" horiz-adv-x="696" 
d="M140 47q-58 57 -58 156q0 39 9 84l88 413h90l-90 -422q-8 -40 -8 -69q0 -66 34.5 -101.5t103.5 -35.5h10q82 0 131 43.5t68 130.5l97 454h90l-102 -477q-24 -112 -98.5 -172.5t-199.5 -60.5q-107 0 -165 57zM322 890h107l49 -128h-67z" />
    <glyph glyph-name="Uacute" unicode="&#xda;" horiz-adv-x="696" 
d="M140 47q-58 57 -58 156q0 39 9 84l88 413h90l-90 -422q-8 -40 -8 -69q0 -66 34.5 -101.5t103.5 -35.5h10q82 0 131 43.5t68 130.5l97 454h90l-102 -477q-24 -112 -98.5 -172.5t-199.5 -60.5q-107 0 -165 57zM461 890h107l-89 -128h-67z" />
    <glyph glyph-name="Ucircumflex" unicode="&#xdb;" horiz-adv-x="696" 
d="M140 47q-58 57 -58 156q0 39 9 84l88 413h90l-90 -422q-8 -40 -8 -69q0 -66 34.5 -101.5t103.5 -35.5h10q82 0 131 43.5t68 130.5l97 454h90l-102 -477q-24 -112 -98.5 -172.5t-199.5 -60.5q-107 0 -165 57zM411 890h109l93 -128h-63l-91 64l-120 -64h-75z" />
    <glyph glyph-name="Udieresis" unicode="&#xdc;" horiz-adv-x="696" 
d="M140 47q-58 57 -58 156q0 39 9 84l88 413h90l-90 -422q-8 -40 -8 -69q0 -66 34.5 -101.5t103.5 -35.5h10q82 0 131 43.5t68 130.5l97 454h90l-102 -477q-24 -112 -98.5 -172.5t-199.5 -60.5q-107 0 -165 57zM516.5 789.5q-13.5 13.5 -13.5 33.5q0 23 17.5 40.5t40.5 17.5
q20 0 33.5 -14t13.5 -34q0 -22 -18 -39.5t-41 -17.5q-19 0 -32.5 13.5zM324.5 789.5q-13.5 13.5 -13.5 33.5q0 23 17.5 40.5t40.5 17.5q20 0 33.5 -14t13.5 -34q0 -22 -17.5 -39.5t-40.5 -17.5q-20 0 -33.5 13.5z" />
    <glyph glyph-name="Yacute" unicode="&#xdd;" horiz-adv-x="630" 
d="M277 288l-177 412h98l139 -324l270 324h111l-351 -413l-62 -287h-90zM433 890h107l-89 -128h-67z" />
    <glyph glyph-name="Thorn" unicode="&#xde;" horiz-adv-x="652" 
d="M187 700h90l-30 -140h164q66 0 115.5 -24t76 -66.5t26.5 -96.5q0 -66 -28.5 -119t-81 -83.5t-123.5 -30.5h-238l-30 -140h-90zM395 222q63 0 103.5 39t40.5 104q0 52 -36.5 82.5t-109.5 30.5h-163l-55 -256h220z" />
    <glyph glyph-name="germandbls" unicode="&#xdf;" horiz-adv-x="553" 
d="M212 661.5q57 48.5 142 48.5q54 0 96 -21.5t65.5 -59.5t23.5 -87q0 -51 -23.5 -89.5t-57 -60.5t-65.5 -27q41 -11 71.5 -51t30.5 -102q0 -60 -28 -108t-79 -76t-116 -28h-89l16 77h61q70 0 109.5 40t39.5 99q0 52 -31.5 85t-82.5 33h-39l15 72h49q37 0 67.5 18t48 48.5
t17.5 65.5q0 47 -28 73.5t-74 26.5q-105 0 -133 -131l-147 -692h-86l151 710q19 88 76 136.5z" />
    <glyph glyph-name="agrave" unicode="&#xe0;" horiz-adv-x="552" 
d="M73.5 28q-45.5 38 -45.5 105q0 75 58 121.5t161 46.5h165l4 22q2 14 2 21q0 45 -35 69.5t-85 24.5h-6q-48 0 -83.5 -22t-43.5 -59h-84q11 67 70 110t144 43q86 0 143.5 -42t57.5 -121q0 -22 -6 -49l-40 -188q-16 -74 -17 -110h-79q0 27 7 62q-33 -38 -77.5 -55t-90.5 -17
q-74 0 -119.5 38zM286.5 79.5q37.5 17.5 65 49t36.5 71.5l7 35h-145q-64 0 -102 -26.5t-38 -70.5q0 -35 24.5 -55.5t68.5 -20.5h9q37 0 74.5 17.5zM228 700h92l45 -133h-57z" />
    <glyph glyph-name="aacute" unicode="&#xe1;" horiz-adv-x="552" 
d="M73.5 28q-45.5 38 -45.5 105q0 75 58 121.5t161 46.5h165l4 22q2 14 2 21q0 45 -35 69.5t-85 24.5h-6q-48 0 -83.5 -22t-43.5 -59h-84q11 67 70 110t144 43q86 0 143.5 -42t57.5 -121q0 -22 -6 -49l-40 -188q-16 -74 -17 -110h-79q0 27 7 62q-33 -38 -77.5 -55t-90.5 -17
q-74 0 -119.5 38zM286.5 79.5q37.5 17.5 65 49t36.5 71.5l7 35h-145q-64 0 -102 -26.5t-38 -70.5q0 -35 24.5 -55.5t68.5 -20.5h9q37 0 74.5 17.5zM373 700h95l-99 -133h-62z" />
    <glyph glyph-name="acircumflex" unicode="&#xe2;" horiz-adv-x="552" 
d="M73.5 28q-45.5 38 -45.5 105q0 75 58 121.5t161 46.5h165l4 22q2 14 2 21q0 45 -35 69.5t-85 24.5h-6q-48 0 -83.5 -22t-43.5 -59h-84q11 67 70 110t144 43q86 0 143.5 -42t57.5 -121q0 -22 -6 -49l-40 -188q-16 -74 -17 -110h-79q0 27 7 62q-33 -38 -77.5 -55t-90.5 -17
q-74 0 -119.5 38zM286.5 79.5q37.5 17.5 65 49t36.5 71.5l7 35h-145q-64 0 -102 -26.5t-38 -70.5q0 -35 24.5 -55.5t68.5 -20.5h9q37 0 74.5 17.5zM313 700h88l92 -133h-64l-79 74l-112 -74h-70z" />
    <glyph glyph-name="atilde" unicode="&#xe3;" horiz-adv-x="552" 
d="M73.5 28q-45.5 38 -45.5 105q0 75 58 121.5t161 46.5h165l4 22q2 14 2 21q0 45 -35 69.5t-85 24.5h-6q-48 0 -83.5 -22t-43.5 -59h-84q11 67 70 110t144 43q86 0 143.5 -42t57.5 -121q0 -22 -6 -49l-40 -188q-16 -74 -17 -110h-79q0 27 7 62q-33 -38 -77.5 -55t-90.5 -17
q-74 0 -119.5 38zM286.5 79.5q37.5 17.5 65 49t36.5 71.5l7 35h-145q-64 0 -102 -26.5t-38 -70.5q0 -35 24.5 -55.5t68.5 -20.5h9q37 0 74.5 17.5zM383 564q-15 7 -41 23l-32 19q-19 11 -29 15t-21 4q-18 0 -26 -12t-16 -46h-64l4 19q11 51 33 79t62 28q18 0 34 -7t43 -23
l32 -19q30 -19 50 -19q18 0 27.5 13t16.5 45h63l-4 -19q-22 -107 -97 -107q-20 0 -35 7z" />
    <glyph glyph-name="adieresis" unicode="&#xe4;" horiz-adv-x="552" 
d="M73.5 28q-45.5 38 -45.5 105q0 75 58 121.5t161 46.5h165l4 22q2 14 2 21q0 45 -35 69.5t-85 24.5h-6q-48 0 -83.5 -22t-43.5 -59h-84q11 67 70 110t144 43q86 0 143.5 -42t57.5 -121q0 -22 -6 -49l-40 -188q-16 -74 -17 -110h-79q0 27 7 62q-33 -38 -77.5 -55t-90.5 -17
q-74 0 -119.5 38zM286.5 79.5q37.5 17.5 65 49t36.5 71.5l7 35h-145q-64 0 -102 -26.5t-38 -70.5q0 -35 24.5 -55.5t68.5 -20.5h9q37 0 74.5 17.5zM407 599.5q-13 13.5 -13 32.5q0 23 17 39.5t39 16.5q20 0 33 -13.5t13 -33.5q0 -22 -16.5 -38.5t-39.5 -16.5q-20 0 -33 13.5
zM218 598.5q-13 12.5 -13 31.5q0 23 17 40.5t39 17.5q19 0 32 -13t13 -33q0 -22 -16.5 -39t-39.5 -17q-19 0 -32 12.5z" />
    <glyph glyph-name="aring" unicode="&#xe5;" horiz-adv-x="552" 
d="M73.5 28q-45.5 38 -45.5 105q0 75 58 121.5t161 46.5h165l4 22q2 14 2 21q0 45 -35 69.5t-85 24.5h-6q-48 0 -83.5 -22t-43.5 -59h-84q11 67 70 110t144 43q86 0 143.5 -42t57.5 -121q0 -22 -6 -49l-40 -188q-16 -74 -17 -110h-79q0 27 7 62q-33 -38 -77.5 -55t-90.5 -17
q-74 0 -119.5 38zM286.5 79.5q37.5 17.5 65 49t36.5 71.5l7 35h-145q-64 0 -102 -26.5t-38 -70.5q0 -35 24.5 -55.5t68.5 -20.5h9q37 0 74.5 17.5zM285 584q-27 26 -27 65t27 65t64 26t64 -26t27 -65t-27 -65t-64 -26t-64 26zM380.5 618q12.5 13 12.5 31t-12.5 31t-30.5 13
t-31 -13t-13 -31t13 -31t31 -13t30.5 13z" />
    <glyph glyph-name="ae" unicode="&#xe6;" horiz-adv-x="893" 
d="M74.5 28q-46.5 38 -46.5 105q0 49 25.5 87.5t75 60.5t118.5 22h165l4 20q2 16 2 22q0 44 -35 68.5t-85 24.5h-6q-48 0 -83.5 -22t-43.5 -59h-84q11 67 70 110t144 43q60 0 107.5 -21t70.5 -63q34 41 79 62.5t96 21.5q87 0 142.5 -53t58.5 -141q1 -7 1 -20q0 -25 -5 -58
h-366q-1 -8 -1 -24q0 -71 36.5 -111t91.5 -40h6q44 0 77.5 23t50.5 64h89q-24 -73 -83.5 -116.5t-140.5 -43.5q-63 0 -111.5 32t-71.5 90q-76 -122 -228 -122q-73 0 -119.5 38zM286.5 79.5q37.5 17.5 65 49t36.5 71.5l7 35h-145q-64 0 -102 -26.5t-38 -70.5
q0 -35 24.5 -55.5t68.5 -20.5h9q37 0 74.5 17.5zM736.5 402.5q-32.5 35.5 -86.5 35.5h-7q-49 0 -90 -32.5t-61 -98.5h273q4 60 -28.5 95.5z" />
    <glyph glyph-name="ccedilla" unicode="&#xe7;" horiz-adv-x="536" 
d="M139 -170h69q23 0 37.5 11.5t14.5 30.5q0 14 -11 22t-30 8h-26l19 91q-81 13 -124.5 72.5t-43.5 146.5q0 12 2 38q8 73 42 132t89.5 93.5t125.5 34.5q59 0 104 -23.5t69.5 -63.5t26.5 -90h-85q-4 44 -34.5 74t-81.5 30h-3q-68 0 -113 -54t-54 -133q-2 -22 -2 -33
q0 -67 32.5 -110t93.5 -43h3q50 0 87.5 30.5t51.5 72.5h88q-21 -77 -79 -125.5t-143 -51.5l-10 -44q32 -5 50.5 -25.5t18.5 -48.5q0 -49 -35 -76.5t-84 -27.5h-78z" />
    <glyph glyph-name="egrave" unicode="&#xe8;" horiz-adv-x="542" 
d="M147 17q-48 27 -75 77.5t-27 119.5q0 27 2 41q9 78 45 136t90 88.5t116 30.5q87 0 142.5 -53t58.5 -141q2 -41 -5 -78h-366q-1 -8 -1 -24q0 -71 36.5 -111t91.5 -40h6q44 0 78 23t51 64h88q-24 -73 -83.5 -116.5t-139.5 -43.5q-60 0 -108 27zM385.5 402.5
q-32.5 35.5 -86.5 35.5h-7q-49 0 -90 -32.5t-61 -98.5h274q3 60 -29.5 95.5zM216 700h92l45 -133h-57z" />
    <glyph glyph-name="eacute" unicode="&#xe9;" horiz-adv-x="542" 
d="M147 17q-48 27 -75 77.5t-27 119.5q0 27 2 41q9 78 45 136t90 88.5t116 30.5q87 0 142.5 -53t58.5 -141q2 -41 -5 -78h-366q-1 -8 -1 -24q0 -71 36.5 -111t91.5 -40h6q44 0 78 23t51 64h88q-24 -73 -83.5 -116.5t-139.5 -43.5q-60 0 -108 27zM385.5 402.5
q-32.5 35.5 -86.5 35.5h-7q-49 0 -90 -32.5t-61 -98.5h274q3 60 -29.5 95.5zM361 700h95l-99 -133h-62z" />
    <glyph glyph-name="ecircumflex" unicode="&#xea;" horiz-adv-x="542" 
d="M147 17q-48 27 -75 77.5t-27 119.5q0 27 2 41q9 78 45 136t90 88.5t116 30.5q87 0 142.5 -53t58.5 -141q2 -41 -5 -78h-366q-1 -8 -1 -24q0 -71 36.5 -111t91.5 -40h6q44 0 78 23t51 64h88q-24 -73 -83.5 -116.5t-139.5 -43.5q-60 0 -108 27zM385.5 402.5
q-32.5 35.5 -86.5 35.5h-7q-49 0 -90 -32.5t-61 -98.5h274q3 60 -29.5 95.5zM301 700h88l92 -133h-64l-79 74l-112 -74h-70z" />
    <glyph glyph-name="edieresis" unicode="&#xeb;" horiz-adv-x="542" 
d="M147 17q-48 27 -75 77.5t-27 119.5q0 27 2 41q9 78 45 136t90 88.5t116 30.5q87 0 142.5 -53t58.5 -141q2 -41 -5 -78h-366q-1 -8 -1 -24q0 -71 36.5 -111t91.5 -40h6q44 0 78 23t51 64h88q-24 -73 -83.5 -116.5t-139.5 -43.5q-60 0 -108 27zM385.5 402.5
q-32.5 35.5 -86.5 35.5h-7q-49 0 -90 -32.5t-61 -98.5h274q3 60 -29.5 95.5zM395 599.5q-13 13.5 -13 32.5q0 23 17 39.5t39 16.5q20 0 33 -13.5t13 -33.5q0 -22 -16.5 -38.5t-39.5 -16.5q-20 0 -33 13.5zM206 598.5q-13 12.5 -13 31.5q0 23 17 40.5t39 17.5q19 0 32 -13
t13 -33q0 -22 -16.5 -39t-39.5 -17q-19 0 -32 12.5z" />
    <glyph glyph-name="igrave" unicode="&#xec;" horiz-adv-x="240" 
d="M130 500h85l-106 -500h-85zM80 700h92l45 -133h-57z" />
    <glyph glyph-name="iacute" unicode="&#xed;" horiz-adv-x="240" 
d="M130 500h85l-106 -500h-85zM225 700h95l-99 -133h-62z" />
    <glyph glyph-name="icircumflex" unicode="&#xee;" horiz-adv-x="240" 
d="M130 500h85l-106 -500h-85zM165 700h88l92 -133h-64l-79 74l-112 -74h-70z" />
    <glyph glyph-name="idieresis" unicode="&#xef;" horiz-adv-x="240" 
d="M130 500h85l-106 -500h-85zM259 599.5q-13 13.5 -13 32.5q0 23 17 39.5t39 16.5q20 0 33 -13.5t13 -33.5q0 -22 -16.5 -38.5t-39.5 -16.5q-20 0 -33 13.5zM70 598.5q-13 12.5 -13 31.5q0 23 17 40.5t39 17.5q19 0 32 -13t13 -33q0 -22 -16.5 -39t-39.5 -17
q-19 0 -32 12.5z" />
    <glyph glyph-name="eth" unicode="&#xf0;" horiz-adv-x="563" 
d="M138.5 17.5q-46.5 27.5 -71.5 77t-25 112.5q0 10 2 34q7 65 39.5 118.5t85.5 84.5t118 31q49 0 87.5 -17t61.5 -48q-12 107 -84 166l-108 -48l-25 54l71 32q-40 18 -97 30l21 73q97 -18 165 -64l126 56l25 -55l-100 -44q92 -97 92 -260q0 -30 -3 -59
q-15 -140 -84.5 -220.5t-185.5 -80.5q-64 0 -110.5 27.5zM334.5 83.5q36.5 21.5 61 62t30.5 94.5q2 18 2 26q0 63 -36 100t-93 37h-10q-64 0 -108 -44t-53 -119q-2 -13 -2 -36q0 -67 33 -104.5t90 -37.5h8q41 0 77.5 21.5z" />
    <glyph glyph-name="ntilde" unicode="&#xf1;" horiz-adv-x="568" 
d="M130 500h85l-12 -58q27 33 63.5 50.5t77.5 17.5q73 0 120.5 -42.5t47.5 -119.5q0 -21 -7 -58l-61 -290h-85l61 291q5 25 5 42q0 47 -25 74t-72 27h-9q-51 0 -94 -44.5t-61 -129.5l-55 -260h-85zM406 564q-15 7 -41 23l-32 19q-19 11 -29 15t-21 4q-18 0 -26 -12t-16 -46
h-64l4 19q11 51 33 79t62 28q18 0 34 -7t43 -23l32 -19q30 -19 50 -19q18 0 27.5 13t16.5 45h63l-4 -19q-22 -107 -97 -107q-20 0 -35 7z" />
    <glyph glyph-name="ograve" unicode="&#xf2;" horiz-adv-x="573" 
d="M152 18q-50 28 -79.5 80t-29.5 119q0 19 3 40q10 73 47 131t94 90t123 32q62 0 112 -28t79 -80t29 -119q0 -20 -3 -41q-9 -72 -46 -129.5t-93.5 -90t-123.5 -32.5q-62 0 -112 28zM383.5 115q47.5 51 58.5 135q2 12 2 34q0 69 -37.5 111t-96.5 42h-7q-65 0 -112.5 -51.5
t-58.5 -135.5q-2 -12 -2 -34q0 -69 37 -110.5t96 -41.5h8q65 0 112.5 51zM246 700h92l45 -133h-57z" />
    <glyph glyph-name="oacute" unicode="&#xf3;" horiz-adv-x="573" 
d="M152 18q-50 28 -79.5 80t-29.5 119q0 19 3 40q10 73 47 131t94 90t123 32q62 0 112 -28t79 -80t29 -119q0 -20 -3 -41q-9 -72 -46 -129.5t-93.5 -90t-123.5 -32.5q-62 0 -112 28zM383.5 115q47.5 51 58.5 135q2 12 2 34q0 69 -37.5 111t-96.5 42h-7q-65 0 -112.5 -51.5
t-58.5 -135.5q-2 -12 -2 -34q0 -69 37 -110.5t96 -41.5h8q65 0 112.5 51zM391 700h95l-99 -133h-62z" />
    <glyph glyph-name="ocircumflex" unicode="&#xf4;" horiz-adv-x="573" 
d="M152 18q-50 28 -79.5 80t-29.5 119q0 19 3 40q10 73 47 131t94 90t123 32q62 0 112 -28t79 -80t29 -119q0 -20 -3 -41q-9 -72 -46 -129.5t-93.5 -90t-123.5 -32.5q-62 0 -112 28zM383.5 115q47.5 51 58.5 135q2 12 2 34q0 69 -37.5 111t-96.5 42h-7q-65 0 -112.5 -51.5
t-58.5 -135.5q-2 -12 -2 -34q0 -69 37 -110.5t96 -41.5h8q65 0 112.5 51zM331 700h88l92 -133h-64l-79 74l-112 -74h-70z" />
    <glyph glyph-name="otilde" unicode="&#xf5;" horiz-adv-x="573" 
d="M152 18q-50 28 -79.5 80t-29.5 119q0 19 3 40q10 73 47 131t94 90t123 32q62 0 112 -28t79 -80t29 -119q0 -20 -3 -41q-9 -72 -46 -129.5t-93.5 -90t-123.5 -32.5q-62 0 -112 28zM383.5 115q47.5 51 58.5 135q2 12 2 34q0 69 -37.5 111t-96.5 42h-7q-65 0 -112.5 -51.5
t-58.5 -135.5q-2 -12 -2 -34q0 -69 37 -110.5t96 -41.5h8q65 0 112.5 51zM401 564q-15 7 -41 23l-32 19q-19 11 -29 15t-21 4q-18 0 -26 -12t-16 -46h-64l4 19q11 51 33 79t62 28q18 0 34 -7t43 -23l32 -19q30 -19 50 -19q18 0 27.5 13t16.5 45h63l-4 -19q-22 -107 -97 -107
q-20 0 -35 7z" />
    <glyph glyph-name="odieresis" unicode="&#xf6;" horiz-adv-x="573" 
d="M152 18q-50 28 -79.5 80t-29.5 119q0 19 3 40q10 73 47 131t94 90t123 32q62 0 112 -28t79 -80t29 -119q0 -20 -3 -41q-9 -72 -46 -129.5t-93.5 -90t-123.5 -32.5q-62 0 -112 28zM383.5 115q47.5 51 58.5 135q2 12 2 34q0 69 -37.5 111t-96.5 42h-7q-65 0 -112.5 -51.5
t-58.5 -135.5q-2 -12 -2 -34q0 -69 37 -110.5t96 -41.5h8q65 0 112.5 51zM425 599.5q-13 13.5 -13 32.5q0 23 17 39.5t39 16.5q20 0 33 -13.5t13 -33.5q0 -22 -16.5 -38.5t-39.5 -16.5q-20 0 -33 13.5zM236 598.5q-13 12.5 -13 31.5q0 23 17 40.5t39 17.5q19 0 32 -13
t13 -33q0 -22 -16.5 -39t-39.5 -17q-19 0 -32 12.5z" />
    <glyph glyph-name="divide" unicode="&#xf7;" horiz-adv-x="610" 
d="M67 297h494l-17 -79h-494zM216.5 40.5q-16.5 16.5 -16.5 41.5q0 29 21 50t50 21q25 0 41.5 -17t16.5 -41q0 -29 -21.5 -50t-49.5 -21q-25 0 -41.5 16.5zM287.5 379q-16.5 17 -16.5 41q0 29 21.5 50t49.5 21q26 0 42 -16t16 -42q0 -29 -21 -50t-50 -21q-25 0 -41.5 17z
" />
    <glyph glyph-name="oslash" unicode="&#xf8;" horiz-adv-x="575" 
d="M117 44l-65 -61l-44 50l67 64q-30 52 -30 120q0 19 3 40q10 73 47 131t94 90t123 32q85 0 145 -51l65 61l48 -46l-70 -66q32 -56 32 -126q0 -19 -3 -40q-9 -72 -46 -129.5t-93.5 -90t-123.5 -32.5q-87 0 -149 54zM385.5 115q47.5 51 58.5 135q2 12 2 34q0 34 -10 63
l-261 -248q37 -35 90 -35h8q65 0 112.5 51zM132 217q0 -31 8 -58l259 245q-36 33 -87 33h-7q-65 0 -112.5 -51.5t-58.5 -135.5q-2 -12 -2 -33z" />
    <glyph glyph-name="ugrave" unicode="&#xf9;" horiz-adv-x="564" 
d="M96.5 32.5q-41.5 42.5 -41.5 112.5q0 27 6 55l63 300h86l-65 -305q-4 -17 -4 -37q0 -42 22 -67t62 -25h9q58 0 104 49t64 135l53 250h85l-106 -500h-85l12 56q-59 -66 -151 -66q-72 0 -113.5 42.5zM240 700h92l45 -133h-57z" />
    <glyph glyph-name="uacute" unicode="&#xfa;" horiz-adv-x="564" 
d="M96.5 32.5q-41.5 42.5 -41.5 112.5q0 27 6 55l63 300h86l-65 -305q-4 -17 -4 -37q0 -42 22 -67t62 -25h9q58 0 104 49t64 135l53 250h85l-106 -500h-85l12 56q-59 -66 -151 -66q-72 0 -113.5 42.5zM385 700h95l-99 -133h-62z" />
    <glyph glyph-name="ucircumflex" unicode="&#xfb;" horiz-adv-x="564" 
d="M96.5 32.5q-41.5 42.5 -41.5 112.5q0 27 6 55l63 300h86l-65 -305q-4 -17 -4 -37q0 -42 22 -67t62 -25h9q58 0 104 49t64 135l53 250h85l-106 -500h-85l12 56q-59 -66 -151 -66q-72 0 -113.5 42.5zM325 700h88l92 -133h-64l-79 74l-112 -74h-70z" />
    <glyph glyph-name="udieresis" unicode="&#xfc;" horiz-adv-x="564" 
d="M96.5 32.5q-41.5 42.5 -41.5 112.5q0 27 6 55l63 300h86l-65 -305q-4 -17 -4 -37q0 -42 22 -67t62 -25h9q58 0 104 49t64 135l53 250h85l-106 -500h-85l12 56q-59 -66 -151 -66q-72 0 -113.5 42.5zM419 599.5q-13 13.5 -13 32.5q0 23 17 39.5t39 16.5q20 0 33 -13.5
t13 -33.5q0 -22 -16.5 -38.5t-39.5 -16.5q-20 0 -33 13.5zM230 598.5q-13 12.5 -13 31.5q0 23 17 40.5t39 17.5q19 0 32 -13t13 -33q0 -22 -16.5 -39t-39.5 -17q-19 0 -32 12.5z" />
    <glyph glyph-name="yacute" unicode="&#xfd;" horiz-adv-x="519" 
d="M-51 -100h94q29 0 48.5 13.5t39.5 46.5l40 67l-114 473h84l90 -374l229 374h95l-350 -570q-37 -60 -74.5 -82.5t-93.5 -22.5h-104zM353 700h95l-99 -133h-62z" />
    <glyph glyph-name="thorn" unicode="&#xfe;" horiz-adv-x="609" 
d="M174 700h85l-55 -254q26 29 64.5 46.5t84.5 17.5q61 0 108.5 -27t75 -77.5t27.5 -117.5q0 -85 -34 -153t-93.5 -106t-131.5 -38q-58 0 -106 26.5t-70 74.5l-62 -292h-85zM389.5 93q40.5 29 64.5 78.5t24 110.5q0 69 -37.5 112t-99.5 43h-10q-49 0 -88 -32.5t-60.5 -86
t-21.5 -112.5q0 -63 38 -102.5t93 -39.5h10q47 0 87.5 29z" />
    <glyph glyph-name="ydieresis" unicode="&#xff;" horiz-adv-x="519" 
d="M-51 -100h94q29 0 48.5 13.5t39.5 46.5l40 67l-114 473h84l90 -374l229 374h95l-350 -570q-37 -60 -74.5 -82.5t-93.5 -22.5h-104zM387 599.5q-13 13.5 -13 32.5q0 23 17 39.5t39 16.5q20 0 33 -13.5t13 -33.5q0 -22 -16.5 -38.5t-39.5 -16.5q-20 0 -33 13.5zM198 598.5
q-13 12.5 -13 31.5q0 23 17 40.5t39 17.5q19 0 32 -13t13 -33q0 -22 -16.5 -39t-39.5 -17q-19 0 -32 12.5z" />
    <glyph glyph-name="Amacron" unicode="&#x100;" horiz-adv-x="684" 
d="M379 700h117l124 -700h-86l-33 184h-343l-111 -184h-94zM487 266l-64 357l-215 -357h279zM323 848h286l-15 -68h-285z" />
    <glyph glyph-name="amacron" unicode="&#x101;" horiz-adv-x="552" 
d="M73.5 28q-45.5 38 -45.5 105q0 75 58 121.5t161 46.5h165l4 22q2 14 2 21q0 45 -35 69.5t-85 24.5h-6q-48 0 -83.5 -22t-43.5 -59h-84q11 67 70 110t144 43q86 0 143.5 -42t57.5 -121q0 -22 -6 -49l-40 -188q-16 -74 -17 -110h-79q0 27 7 62q-33 -38 -77.5 -55t-90.5 -17
q-74 0 -119.5 38zM286.5 79.5q37.5 17.5 65 49t36.5 71.5l7 35h-145q-64 0 -102 -26.5t-38 -70.5q0 -35 24.5 -55.5t68.5 -20.5h9q37 0 74.5 17.5zM202 658h285l-14 -68h-285z" />
    <glyph glyph-name="Abreve" unicode="&#x102;" horiz-adv-x="684" 
d="M379 700h117l124 -700h-86l-33 184h-343l-111 -184h-94zM487 266l-64 357l-215 -357h279zM361.5 783q-36.5 31 -36.5 84q0 7 2 23h68q-1 -4 -1 -12q0 -30 19 -45.5t53 -15.5t60 18.5t36 54.5h68q-10 -68 -56.5 -103t-115.5 -35q-60 0 -96.5 31z" />
    <glyph glyph-name="abreve" unicode="&#x103;" horiz-adv-x="552" 
d="M73.5 28q-45.5 38 -45.5 105q0 75 58 121.5t161 46.5h165l4 22q2 14 2 21q0 45 -35 69.5t-85 24.5h-6q-48 0 -83.5 -22t-43.5 -59h-84q11 67 70 110t144 43q86 0 143.5 -42t57.5 -121q0 -22 -6 -49l-40 -188q-16 -74 -17 -110h-79q0 27 7 62q-33 -38 -77.5 -55t-90.5 -17
q-74 0 -119.5 38zM286.5 79.5q37.5 17.5 65 49t36.5 71.5l7 35h-145q-64 0 -102 -26.5t-38 -70.5q0 -35 24.5 -55.5t68.5 -20.5h9q37 0 74.5 17.5zM245 588q-35 31 -35 86q0 8 2 26h63q-1 -5 -1 -15q0 -32 18.5 -50t53.5 -18q32 0 57.5 20t38.5 63h63q-18 -71 -62 -107
t-103 -36q-60 0 -95 31z" />
    <glyph glyph-name="Aogonek" unicode="&#x104;" horiz-adv-x="684" 
d="M379 700h117l124 -700h-20q-43 -19 -72 -46t-29 -55q0 -20 11.5 -29.5t37.5 -9.5h36l-13 -62h-41q-49 0 -72.5 19t-23.5 58q0 41 29.5 74t70.5 52l-33 183h-343l-111 -184h-94zM487 266l-64 357l-215 -357h279z" />
    <glyph glyph-name="aogonek" unicode="&#x105;" horiz-adv-x="552" 
d="M73.5 28q-45.5 38 -45.5 105q0 75 58 121.5t161 46.5h165l4 22q2 14 2 21q0 45 -35 69.5t-85 24.5h-6q-48 0 -83.5 -22t-43.5 -59h-84q11 67 70 110t144 43q86 0 143.5 -42t57.5 -121q0 -22 -6 -49l-40 -188q-16 -74 -17 -110h-1q-43 -19 -72 -46t-29 -55
q0 -20 11.5 -29.5t37.5 -9.5h36l-13 -62h-41q-49 0 -72.5 19t-23.5 58q0 40 28.5 73t68.5 52h-9q0 27 7 62q-33 -38 -77.5 -55t-90.5 -17q-74 0 -119.5 38zM286.5 79.5q37.5 17.5 65 49t36.5 71.5l7 35h-145q-64 0 -102 -26.5t-38 -70.5q0 -35 24.5 -55.5t68.5 -20.5h9
q37 0 74.5 17.5z" />
    <glyph glyph-name="Cacute" unicode="&#x106;" horiz-adv-x="716" 
d="M205 29.5q-66 39.5 -101 109.5t-35 160q0 26 3 51q11 102 59.5 184t127.5 129t176 47q77 0 137.5 -30t95.5 -84t36 -125h-91q-5 70 -52.5 113.5t-126.5 43.5h-8q-71 0 -127.5 -36.5t-91.5 -99.5t-45 -142q-3 -24 -3 -47q0 -67 24 -119t70 -82t109 -30h8q78 0 135 43.5
t78 113.5h94q-17 -72 -62 -126t-110.5 -83.5t-142.5 -29.5q-91 0 -157 39.5zM482 890h107l-89 -128h-67z" />
    <glyph glyph-name="cacute" unicode="&#x107;" horiz-adv-x="536" 
d="M139.5 19q-47.5 29 -71.5 80t-24 115q0 12 2 36q8 73 42 132t89.5 93.5t125.5 34.5q59 0 104 -23.5t69.5 -63.5t26.5 -90h-85q-4 44 -34.5 74t-81.5 30h-3q-68 0 -113 -54t-54 -133q-2 -22 -2 -33q0 -67 32.5 -110t93.5 -43h3q50 0 87.5 30.5t51.5 72.5h88
q-22 -79 -83 -128t-149 -49q-67 0 -114.5 29zM369 700h95l-99 -133h-62z" />
    <glyph glyph-name="Ccircumflex" unicode="&#x108;" horiz-adv-x="716" 
d="M205 29.5q-66 39.5 -101 109.5t-35 160q0 26 3 51q11 102 59.5 184t127.5 129t176 47q77 0 137.5 -30t95.5 -84t36 -125h-91q-5 70 -52.5 113.5t-126.5 43.5h-8q-71 0 -127.5 -36.5t-91.5 -99.5t-45 -142q-3 -24 -3 -47q0 -67 24 -119t70 -82t109 -30h8q78 0 135 43.5
t78 113.5h94q-17 -72 -62 -126t-110.5 -83.5t-142.5 -29.5q-91 0 -157 39.5zM432 890h109l93 -128h-63l-91 64l-120 -64h-75z" />
    <glyph glyph-name="ccircumflex" unicode="&#x109;" horiz-adv-x="536" 
d="M139.5 19q-47.5 29 -71.5 80t-24 115q0 12 2 36q8 73 42 132t89.5 93.5t125.5 34.5q59 0 104 -23.5t69.5 -63.5t26.5 -90h-85q-4 44 -34.5 74t-81.5 30h-3q-68 0 -113 -54t-54 -133q-2 -22 -2 -33q0 -67 32.5 -110t93.5 -43h3q50 0 87.5 30.5t51.5 72.5h88
q-22 -79 -83 -128t-149 -49q-67 0 -114.5 29zM309 700h88l92 -133h-64l-79 74l-112 -74h-70z" />
    <glyph glyph-name="Cdotaccent" unicode="&#x10a;" horiz-adv-x="716" 
d="M205 29.5q-66 39.5 -101 109.5t-35 160q0 26 3 51q11 102 59.5 184t127.5 129t176 47q77 0 137.5 -30t95.5 -84t36 -125h-91q-5 70 -52.5 113.5t-126.5 43.5h-8q-71 0 -127.5 -36.5t-91.5 -99.5t-45 -142q-3 -24 -3 -47q0 -67 24 -119t70 -82t109 -30h8q78 0 135 43.5
t78 113.5h94q-17 -72 -62 -126t-110.5 -83.5t-142.5 -29.5q-91 0 -157 39.5zM440.5 790q-13.5 14 -13.5 35q0 24 18 41.5t41 17.5q21 0 35 -14t14 -35q0 -23 -18 -41t-42 -18q-21 0 -34.5 14z" />
    <glyph glyph-name="cdotaccent" unicode="&#x10b;" horiz-adv-x="536" 
d="M139.5 19q-47.5 29 -71.5 80t-24 115q0 12 2 36q8 73 42 132t89.5 93.5t125.5 34.5q59 0 104 -23.5t69.5 -63.5t26.5 -90h-85q-4 44 -34.5 74t-81.5 30h-3q-68 0 -113 -54t-54 -133q-2 -22 -2 -33q0 -67 32.5 -110t93.5 -43h3q50 0 87.5 30.5t51.5 72.5h88
q-22 -79 -83 -128t-149 -49q-67 0 -114.5 29zM307.5 607.5q-14.5 14.5 -14.5 35.5q0 25 17.5 43t42.5 18q22 0 36.5 -14.5t14.5 -35.5q0 -25 -18 -43t-42 -18q-22 0 -36.5 14.5z" />
    <glyph glyph-name="Ccaron" unicode="&#x10c;" horiz-adv-x="716" 
d="M205 29.5q-66 39.5 -101 109.5t-35 160q0 26 3 51q11 102 59.5 184t127.5 129t176 47q77 0 137.5 -30t95.5 -84t36 -125h-91q-5 70 -52.5 113.5t-126.5 43.5h-8q-71 0 -127.5 -36.5t-91.5 -99.5t-45 -142q-3 -24 -3 -47q0 -67 24 -119t70 -82t109 -30h8q78 0 135 43.5
t78 113.5h94q-17 -72 -62 -126t-110.5 -83.5t-142.5 -29.5q-91 0 -157 39.5zM320 890h68l91 -65l120 65h70l-147 -128h-108z" />
    <glyph glyph-name="ccaron" unicode="&#x10d;" horiz-adv-x="536" 
d="M139.5 19q-47.5 29 -71.5 80t-24 115q0 12 2 36q8 73 42 132t89.5 93.5t125.5 34.5q59 0 104 -23.5t69.5 -63.5t26.5 -90h-85q-4 44 -34.5 74t-81.5 30h-3q-68 0 -113 -54t-54 -133q-2 -22 -2 -33q0 -67 32.5 -110t93.5 -43h3q50 0 87.5 30.5t51.5 72.5h88
q-22 -79 -83 -128t-149 -49q-67 0 -114.5 29zM197 700h63l80 -74l111 74h71l-144 -133h-89z" />
    <glyph glyph-name="Dcaron" unicode="&#x10e;" horiz-adv-x="714" 
d="M187 700h189q170 0 240.5 -84t70.5 -204q0 -102 -41.5 -197t-121.5 -155t-188 -60h-298zM477 128.5q60 46.5 90 122t30 159.5q0 100 -57 154t-164 54h-117l-112 -536h185q85 0 145 46.5zM272 890h68l91 -65l120 65h70l-147 -128h-108z" />
    <glyph glyph-name="dcaron" unicode="&#x10f;" horiz-adv-x="608" 
d="M144.5 17q-46.5 27 -73.5 77.5t-27 117.5q0 85 34 153t93.5 106t131.5 38q58 0 106 -26t71 -72l61 289h85l-149 -700h-84l11 54q-26 -30 -65.5 -47t-89.5 -17q-58 0 -104.5 27zM365 95.5q39 32.5 60.5 86t21.5 112.5q0 63 -38 102.5t-94 39.5h-10q-47 0 -87 -28.5
t-64 -78.5t-24 -111q0 -69 37.5 -112t99.5 -43h10q49 0 88 32.5zM646 562h9q51 0 60 40l1 6h-40l20 92h85l-21 -98q-10 -47 -37.5 -66t-72.5 -19h-13z" />
    <glyph glyph-name="Dcroat" unicode="&#x110;" horiz-adv-x="747" 
d="M137 310h-88l18 80h87l66 310h189q170 0 240.5 -84t70.5 -204q0 -102 -41.5 -197t-121.5 -155t-188 -60h-298zM510 128.5q60 46.5 90 122t30 159.5q0 100 -57 154t-164 54h-117l-48 -228h148l-18 -80h-146l-48 -228h185q85 0 145 46.5z" />
    <glyph glyph-name="dcroat" unicode="&#x111;" horiz-adv-x="608" 
d="M144.5 17q-46.5 27 -73.5 77.5t-27 117.5q0 85 34 153t93.5 106t131.5 38q58 0 106 -26t71 -72l33 154h-165l14 68h165l14 67h85l-14 -67h76l-14 -68h-77l-120 -565h-84l11 54q-26 -30 -65.5 -47t-89.5 -17q-58 0 -104.5 27zM365 95.5q39 32.5 60.5 86t21.5 112.5
q0 63 -38 102.5t-94 39.5h-10q-47 0 -87 -28.5t-64 -78.5t-24 -111q0 -69 37.5 -112t99.5 -43h10q49 0 88 32.5z" />
    <glyph glyph-name="Emacron" unicode="&#x112;" horiz-adv-x="649" 
d="M187 700h504l-18 -82h-413l-46 -217h353l-17 -82h-354l-50 -237h423l-17 -82h-514zM323 848h286l-15 -68h-285z" />
    <glyph glyph-name="emacron" unicode="&#x113;" horiz-adv-x="542" 
d="M147 17q-48 27 -75 77.5t-27 119.5q0 27 2 41q9 78 45 136t90 88.5t116 30.5q87 0 142.5 -53t58.5 -141q2 -41 -5 -78h-366q-1 -8 -1 -24q0 -71 36.5 -111t91.5 -40h6q44 0 78 23t51 64h88q-24 -73 -83.5 -116.5t-139.5 -43.5q-60 0 -108 27zM385.5 402.5
q-32.5 35.5 -86.5 35.5h-7q-49 0 -90 -32.5t-61 -98.5h274q3 60 -29.5 95.5zM190 658h285l-14 -68h-285z" />
    <glyph glyph-name="Ebreve" unicode="&#x114;" horiz-adv-x="649" 
d="M187 700h504l-18 -82h-413l-46 -217h353l-17 -82h-354l-50 -237h423l-17 -82h-514zM361.5 783q-36.5 31 -36.5 84q0 7 2 23h68q-1 -4 -1 -12q0 -30 19 -45.5t53 -15.5t60 18.5t36 54.5h68q-10 -68 -56.5 -103t-115.5 -35q-60 0 -96.5 31z" />
    <glyph glyph-name="ebreve" unicode="&#x115;" horiz-adv-x="542" 
d="M147 17q-48 27 -75 77.5t-27 119.5q0 27 2 41q9 78 45 136t90 88.5t116 30.5q87 0 142.5 -53t58.5 -141q2 -41 -5 -78h-366q-1 -8 -1 -24q0 -71 36.5 -111t91.5 -40h6q44 0 78 23t51 64h88q-24 -73 -83.5 -116.5t-139.5 -43.5q-60 0 -108 27zM385.5 402.5
q-32.5 35.5 -86.5 35.5h-7q-49 0 -90 -32.5t-61 -98.5h274q3 60 -29.5 95.5zM233 588q-35 31 -35 86q0 8 2 26h63q-1 -5 -1 -15q0 -32 18.5 -50t53.5 -18q32 0 57.5 20t38.5 63h63q-18 -71 -62 -107t-103 -36q-60 0 -95 31z" />
    <glyph glyph-name="Edotaccent" unicode="&#x116;" horiz-adv-x="649" 
d="M187 700h504l-18 -82h-413l-46 -217h353l-17 -82h-354l-50 -237h423l-17 -82h-514zM425.5 790q-13.5 14 -13.5 35q0 24 18 41.5t41 17.5q21 0 35 -14t14 -35q0 -23 -18 -41t-42 -18q-21 0 -34.5 14z" />
    <glyph glyph-name="edotaccent" unicode="&#x117;" horiz-adv-x="542" 
d="M147 17q-48 27 -75 77.5t-27 119.5q0 27 2 41q9 78 45 136t90 88.5t116 30.5q87 0 142.5 -53t58.5 -141q2 -41 -5 -78h-366q-1 -8 -1 -24q0 -71 36.5 -111t91.5 -40h6q44 0 78 23t51 64h88q-24 -73 -83.5 -116.5t-139.5 -43.5q-60 0 -108 27zM385.5 402.5
q-32.5 35.5 -86.5 35.5h-7q-49 0 -90 -32.5t-61 -98.5h274q3 60 -29.5 95.5zM299.5 607.5q-14.5 14.5 -14.5 35.5q0 25 17.5 43t42.5 18q22 0 36.5 -14.5t14.5 -35.5q0 -25 -18 -43t-42 -18q-22 0 -36.5 14.5z" />
    <glyph glyph-name="Eogonek" unicode="&#x118;" horiz-adv-x="649" 
d="M187 700h504l-18 -82h-413l-46 -217h353l-17 -82h-354l-50 -237h423l-17 -82h-1q-43 -19 -72 -46t-29 -55q0 -20 11.5 -29.5t37.5 -9.5h36l-13 -62h-41q-49 0 -72.5 19t-23.5 58q0 40 28.5 73t68.5 52h-444z" />
    <glyph glyph-name="eogonek" unicode="&#x119;" horiz-adv-x="542" 
d="M160 -125q0 35 22.5 65t56.5 50q-56 4 -100.5 31.5t-69.5 77t-25 114.5q0 20 3 42q9 77 45 135t90 89t116 31q87 0 142.5 -53t58.5 -141q2 -41 -5 -78h-366q-1 -8 -1 -24q0 -71 36.5 -111t91.5 -40h6q44 0 78 23t51 64h88q-17 -52 -52 -89t-91 -61q-48 -21 -79 -47
t-31 -54q0 -20 11.5 -29.5t37.5 -9.5h36l-13 -62h-41q-96 0 -96 77zM385.5 402.5q-32.5 35.5 -86.5 35.5h-7q-49 0 -90 -32.5t-61 -98.5h274q3 60 -29.5 95.5z" />
    <glyph glyph-name="Ecaron" unicode="&#x11a;" horiz-adv-x="649" 
d="M187 700h504l-18 -82h-413l-46 -217h353l-17 -82h-354l-50 -237h423l-17 -82h-514zM305 890h68l91 -65l120 65h70l-147 -128h-108z" />
    <glyph glyph-name="ecaron" unicode="&#x11b;" horiz-adv-x="542" 
d="M147 17q-48 27 -75 77.5t-27 119.5q0 27 2 41q9 78 45 136t90 88.5t116 30.5q87 0 142.5 -53t58.5 -141q2 -41 -5 -78h-366q-1 -8 -1 -24q0 -71 36.5 -111t91.5 -40h6q44 0 78 23t51 64h88q-24 -73 -83.5 -116.5t-139.5 -43.5q-60 0 -108 27zM385.5 402.5
q-32.5 35.5 -86.5 35.5h-7q-49 0 -90 -32.5t-61 -98.5h274q3 60 -29.5 95.5zM189 700h63l80 -74l111 74h71l-144 -133h-89z" />
    <glyph glyph-name="Gcircumflex" unicode="&#x11c;" horiz-adv-x="752" 
d="M206.5 28q-65.5 38 -101.5 105.5t-36 153.5q0 118 45.5 214.5t130 152.5t197.5 56q76 0 138 -31.5t98.5 -86t37.5 -120.5h-90q-8 76 -61 116t-129 40h-10q-78 0 -138.5 -45t-94.5 -120t-34 -161q0 -107 54.5 -168.5t146.5 -61.5h8q90 0 158.5 53.5t92.5 150.5h-214l17 81
h205q37 0 57 -19.5t20 -53.5q0 -12 -3 -27l-54 -257h-81l21 97q-35 -48 -94 -77.5t-135 -29.5q-86 0 -151.5 38zM447 890h109l93 -128h-63l-91 64l-120 -64h-75z" />
    <glyph glyph-name="gcircumflex" unicode="&#x11d;" horiz-adv-x="593" 
d="M61.5 -180.5q-59.5 39.5 -66.5 115.5h85q7 -39 41 -61t83 -22h10q67 0 108.5 40.5t57.5 113.5l12 55q-26 -29 -63.5 -45t-82.5 -16q-49 0 -94.5 22.5t-75 71.5t-29.5 123q0 87 33 154t89.5 103t122.5 36q64 0 109 -28t65 -72l19 90h85l-110 -514q-21 -97 -83.5 -151.5
t-171.5 -54.5q-84 0 -143.5 39.5zM354 102q39 30 59.5 79t20.5 104q0 71 -36 112t-93 41h-10q-42 0 -79.5 -27.5t-60.5 -77t-23 -112.5q0 -72 35 -110.5t88 -38.5h9q51 0 90 30zM309 700h88l92 -133h-64l-79 74l-112 -74h-70z" />
    <glyph glyph-name="Gbreve" unicode="&#x11e;" horiz-adv-x="752" 
d="M206.5 28q-65.5 38 -101.5 105.5t-36 153.5q0 118 45.5 214.5t130 152.5t197.5 56q76 0 138 -31.5t98.5 -86t37.5 -120.5h-90q-8 76 -61 116t-129 40h-10q-78 0 -138.5 -45t-94.5 -120t-34 -161q0 -107 54.5 -168.5t146.5 -61.5h8q90 0 158.5 53.5t92.5 150.5h-214l17 81
h205q37 0 57 -19.5t20 -53.5q0 -12 -3 -27l-54 -257h-81l21 97q-35 -48 -94 -77.5t-135 -29.5q-86 0 -151.5 38zM391.5 783q-36.5 31 -36.5 84q0 7 2 23h68q-1 -4 -1 -12q0 -30 19 -45.5t53 -15.5t60 18.5t36 54.5h68q-10 -68 -56.5 -103t-115.5 -35q-60 0 -96.5 31z" />
    <glyph glyph-name="gbreve" unicode="&#x11f;" horiz-adv-x="593" 
d="M61.5 -180.5q-59.5 39.5 -66.5 115.5h85q7 -39 41 -61t83 -22h10q67 0 108.5 40.5t57.5 113.5l12 55q-26 -29 -63.5 -45t-82.5 -16q-49 0 -94.5 22.5t-75 71.5t-29.5 123q0 87 33 154t89.5 103t122.5 36q64 0 109 -28t65 -72l19 90h85l-110 -514q-21 -97 -83.5 -151.5
t-171.5 -54.5q-84 0 -143.5 39.5zM354 102q39 30 59.5 79t20.5 104q0 71 -36 112t-93 41h-10q-42 0 -79.5 -27.5t-60.5 -77t-23 -112.5q0 -72 35 -110.5t88 -38.5h9q51 0 90 30zM241 588q-35 31 -35 86q0 8 2 26h63q-1 -5 -1 -15q0 -32 18.5 -50t53.5 -18q32 0 57.5 20
t38.5 63h63q-18 -71 -62 -107t-103 -36q-60 0 -95 31z" />
    <glyph glyph-name="Gdotaccent" unicode="&#x120;" horiz-adv-x="752" 
d="M206.5 28q-65.5 38 -101.5 105.5t-36 153.5q0 118 45.5 214.5t130 152.5t197.5 56q76 0 138 -31.5t98.5 -86t37.5 -120.5h-90q-8 76 -61 116t-129 40h-10q-78 0 -138.5 -45t-94.5 -120t-34 -161q0 -107 54.5 -168.5t146.5 -61.5h8q90 0 158.5 53.5t92.5 150.5h-214l17 81
h205q37 0 57 -19.5t20 -53.5q0 -12 -3 -27l-54 -257h-81l21 97q-35 -48 -94 -77.5t-135 -29.5q-86 0 -151.5 38zM455.5 790q-13.5 14 -13.5 35q0 24 18 41.5t41 17.5q21 0 35 -14t14 -35q0 -23 -18 -41t-42 -18q-21 0 -34.5 14z" />
    <glyph glyph-name="gdotaccent" unicode="&#x121;" horiz-adv-x="593" 
d="M61.5 -180.5q-59.5 39.5 -66.5 115.5h85q7 -39 41 -61t83 -22h10q67 0 108.5 40.5t57.5 113.5l12 55q-26 -29 -63.5 -45t-82.5 -16q-49 0 -94.5 22.5t-75 71.5t-29.5 123q0 87 33 154t89.5 103t122.5 36q64 0 109 -28t65 -72l19 90h85l-110 -514q-21 -97 -83.5 -151.5
t-171.5 -54.5q-84 0 -143.5 39.5zM354 102q39 30 59.5 79t20.5 104q0 71 -36 112t-93 41h-10q-42 0 -79.5 -27.5t-60.5 -77t-23 -112.5q0 -72 35 -110.5t88 -38.5h9q51 0 90 30zM307.5 607.5q-14.5 14.5 -14.5 35.5q0 25 17.5 43t42.5 18q22 0 36.5 -14.5t14.5 -35.5
q0 -25 -18 -43t-42 -18q-22 0 -36.5 14.5z" />
    <glyph glyph-name="uni0122" unicode="&#x122;" horiz-adv-x="752" 
d="M206.5 28q-65.5 38 -101.5 105.5t-36 153.5q0 118 45.5 214.5t130 152.5t197.5 56q76 0 138 -31.5t98.5 -86t37.5 -120.5h-90q-8 76 -61 116t-129 40h-10q-78 0 -138.5 -45t-94.5 -120t-34 -161q0 -107 54.5 -168.5t146.5 -61.5h8q90 0 158.5 53.5t92.5 150.5h-214l17 81
h205q37 0 57 -19.5t20 -53.5q0 -12 -3 -27l-54 -257h-81l21 97q-35 -48 -94 -77.5t-135 -29.5q-86 0 -151.5 38zM250 -213h8q24 0 36 8.5t16 27.5l1 3h-40l18 87h85l-21 -96q-7 -33 -32 -54t-65 -21h-15z" />
    <glyph glyph-name="uni0123" unicode="&#x123;" horiz-adv-x="593" 
d="M61.5 -180.5q-59.5 39.5 -66.5 115.5h85q7 -39 41 -61t83 -22h10q67 0 108.5 40.5t57.5 113.5l12 55q-26 -29 -63.5 -45t-82.5 -16q-49 0 -94.5 22.5t-75 71.5t-29.5 123q0 87 33 154t89.5 103t122.5 36q64 0 109 -28t65 -72l19 90h85l-110 -514q-21 -97 -83.5 -151.5
t-171.5 -54.5q-84 0 -143.5 39.5zM354 102q39 30 59.5 79t20.5 104q0 71 -36 112t-93 41h-10q-42 0 -79.5 -27.5t-60.5 -77t-23 -112.5q0 -72 35 -110.5t88 -38.5h9q51 0 90 30zM350 758q25 22 73 22h14l-10 -45h-10q-25 0 -37 -9t-18 -33l-1 -4h39l-20 -92h-85l19 90
q11 49 36 71z" />
    <glyph glyph-name="Hcircumflex" unicode="&#x124;" horiz-adv-x="734" 
d="M187 700h90l-65 -309h368l66 309h90l-149 -700h-90l66 309h-369l-66 -309h-90zM441 890h109l93 -128h-63l-91 64l-120 -64h-75z" />
    <glyph glyph-name="hcircumflex" unicode="&#x125;" horiz-adv-x="568" 
d="M173 700h85l-54 -258q56 68 140 68q74 0 121.5 -42.5t47.5 -119.5q0 -21 -7 -58l-62 -290h-85l61 291q5 27 5 44q0 46 -24.5 72.5t-71.5 26.5h-10q-51 0 -94 -45t-60 -129l-55 -260h-85zM205 890h88l92 -133h-64l-79 74l-112 -74h-70z" />
    <glyph glyph-name="Hbar" unicode="&#x126;" horiz-adv-x="802" 
d="M181 513h-70l16 74h70l24 113h90l-24 -113h369l24 113h90l-24 -113h69l-16 -74h-69l-109 -513h-90l66 309h-369l-66 -309h-90zM614 391l26 122h-368l-26 -122h368z" />
    <glyph glyph-name="hbar" unicode="&#x127;" horiz-adv-x="568" 
d="M144 565h-76l14 68h77l14 67h85l-14 -67h164l-14 -68h-164l-26 -123q56 68 140 68q74 0 121.5 -42.5t47.5 -119.5q0 -21 -7 -58l-62 -290h-85l61 291q5 27 5 44q0 46 -24.5 72.5t-71.5 26.5h-10q-51 0 -94 -45t-60 -129l-55 -260h-85z" />
    <glyph glyph-name="Itilde" unicode="&#x128;" horiz-adv-x="275" 
d="M187 700h90l-149 -700h-90zM258 784l-27 21q-14 11 -23.5 15.5t-20.5 4.5q-30 0 -41 -58h-68l3 14q12 56 37.5 84t67.5 28q20 0 36.5 -8t33.5 -20l27 -20q27 -20 43 -20q35 0 43 58h69l-4 -21q-8 -52 -34 -78.5t-66 -26.5q-43 0 -76 27z" />
    <glyph glyph-name="itilde" unicode="&#x129;" horiz-adv-x="240" 
d="M130 500h85l-106 -500h-85zM235 564q-15 7 -41 23l-32 19q-19 11 -29 15t-21 4q-18 0 -26 -12t-16 -46h-64l4 19q11 51 33 79t62 28q18 0 34 -7t43 -23l32 -19q30 -19 50 -19q18 0 27.5 13t16.5 45h63l-4 -19q-22 -107 -97 -107q-20 0 -35 7z" />
    <glyph glyph-name="Imacron" unicode="&#x12a;" horiz-adv-x="275" 
d="M187 700h90l-149 -700h-90zM117 848h286l-15 -68h-285z" />
    <glyph glyph-name="imacron" unicode="&#x12b;" horiz-adv-x="240" 
d="M130 500h85l-106 -500h-85zM54 658h285l-14 -68h-285z" />
    <glyph glyph-name="Ibreve" unicode="&#x12c;" horiz-adv-x="275" 
d="M187 700h90l-149 -700h-90zM155.5 783q-36.5 31 -36.5 84q0 7 2 23h68q-1 -4 -1 -12q0 -30 19 -45.5t53 -15.5t60 18.5t36 54.5h68q-10 -68 -56.5 -103t-115.5 -35q-60 0 -96.5 31z" />
    <glyph glyph-name="ibreve" unicode="&#x12d;" horiz-adv-x="240" 
d="M130 500h85l-106 -500h-85zM97 588q-35 31 -35 86q0 8 2 26h63q-1 -5 -1 -15q0 -32 18.5 -50t53.5 -18q32 0 57.5 20t38.5 63h63q-18 -71 -62 -107t-103 -36q-60 0 -95 31z" />
    <glyph glyph-name="Iogonek" unicode="&#x12e;" horiz-adv-x="275" 
d="M187 700h90l-149 -700h-1q-43 -19 -72 -46t-29 -55q0 -20 11.5 -29.5t37.5 -9.5h36l-13 -62h-41q-49 0 -72.5 19t-23.5 58q0 40 28.5 73t68.5 52h-20z" />
    <glyph glyph-name="iogonek" unicode="&#x12f;" horiz-adv-x="240" 
d="M130 500h85l-106 -500h-1q-43 -19 -72 -46t-29 -55q0 -20 11.5 -29.5t37.5 -9.5h36l-13 -62h-41q-49 0 -72.5 19t-23.5 58q0 40 28.5 73t68.5 52h-15zM163.5 607.5q-14.5 14.5 -14.5 35.5q0 25 17.5 43t42.5 18q22 0 36.5 -14.5t14.5 -35.5q0 -25 -18 -43t-42 -18
q-22 0 -36.5 14.5z" />
    <glyph glyph-name="Idotaccent" unicode="&#x130;" horiz-adv-x="275" 
d="M187 700h90l-149 -700h-90zM219.5 790q-13.5 14 -13.5 35q0 24 18 41.5t41 17.5q21 0 35 -14t14 -35q0 -23 -18 -41t-42 -18q-21 0 -34.5 14z" />
    <glyph glyph-name="dotlessi" unicode="&#x131;" horiz-adv-x="240" 
d="M130 500h85l-106 -500h-85z" />
    <glyph glyph-name="IJ" unicode="&#x132;" horiz-adv-x="579" 
d="M57 85h218q48 0 74 24t37 74l110 517h90l-111 -522q-19 -91 -68 -134.5t-134 -43.5h-234zM187 700h90l-107 -508h-90z" />
    <glyph glyph-name="ij" unicode="&#x133;" horiz-adv-x="490" 
d="M3 -103h202q27 0 40 10.5t18 37.5l117 555h85l-119 -564q-13 -59 -43.5 -86.5t-86.5 -27.5h-229zM130 500h85l-105 -500h-85zM162 601.5q-14 13.5 -14 33.5q0 25 18.5 44t42.5 19q21 0 35 -15t14 -36q0 -24 -18.5 -41.5t-42.5 -17.5q-21 0 -35 13.5zM412.5 602.5
q-14.5 14.5 -14.5 34.5q0 24 18.5 42.5t43.5 18.5q20 0 34 -15t14 -36q0 -23 -18.5 -41t-41.5 -18q-21 0 -35.5 14.5z" />
    <glyph glyph-name="Jcircumflex" unicode="&#x134;" horiz-adv-x="375" 
d="M-23 85h95q49 0 74.5 24.5t37.5 80.5l109 510h90l-111 -520q-20 -96 -70 -138t-146 -42h-97zM317 890h109l93 -128h-63l-91 64l-120 -64h-75z" />
    <glyph glyph-name="jcircumflex" unicode="&#x135;" horiz-adv-x="240" 
d="M-149 -103h97q30 0 44.5 12.5t20.5 41.5l117 549h85l-118 -556q-13 -62 -47 -92t-100 -30h-115zM165 700h88l92 -133h-64l-79 74l-112 -74h-70z" />
    <glyph glyph-name="uni0136" unicode="&#x136;" horiz-adv-x="646" 
d="M187 700h90l-75 -356l427 356h127l-342 -285l199 -415h-99l-170 356l-169 -139l-46 -217h-90zM240 -213h8q24 0 36 8.5t16 27.5l1 3h-40l18 87h85l-21 -96q-7 -33 -32 -54t-65 -21h-15z" />
    <glyph glyph-name="uni0137" unicode="&#x137;" horiz-adv-x="518" 
d="M172 700h85l-89 -422l274 222h122l-250 -199l164 -301h-96l-134 250l-103 -84l-36 -166h-85zM170 -213h8q24 0 36 8.5t16 27.5l1 3h-40l18 87h85l-21 -96q-7 -33 -32 -54t-65 -21h-15z" />
    <glyph glyph-name="Lacute" unicode="&#x139;" horiz-adv-x="606" 
d="M187 700h90l-131 -618h413l-17 -82h-504zM261 890h107l-89 -128h-67z" />
    <glyph glyph-name="lacute" unicode="&#x13a;" horiz-adv-x="240" 
d="M174 700h85l-149 -700h-85zM266 890h95l-99 -133h-62z" />
    <glyph glyph-name="uni013B" unicode="&#x13b;" horiz-adv-x="606" 
d="M187 700h90l-131 -618h413l-17 -82h-504zM189 -213h8q24 0 36 8.5t16 27.5l1 3h-40l18 87h85l-21 -96q-7 -33 -32 -54t-65 -21h-15z" />
    <glyph glyph-name="uni013C" unicode="&#x13c;" horiz-adv-x="240" 
d="M174 700h85l-149 -700h-85zM-33 -213h8q24 0 36 8.5t16 27.5l1 3h-40l18 87h85l-21 -96q-7 -33 -32 -54t-65 -21h-15z" />
    <glyph glyph-name="Lcaron" unicode="&#x13d;" horiz-adv-x="606" 
d="M187 700h90l-131 -618h413l-17 -82h-504zM347 562h9q51 0 60 40l1 6h-40l20 92h85l-21 -98q-10 -47 -37.5 -66t-72.5 -19h-13z" />
    <glyph glyph-name="lcaron" unicode="&#x13e;" horiz-adv-x="240" 
d="M174 700h85l-149 -700h-85zM279 562h9q51 0 60 40l1 6h-40l20 92h85l-21 -98q-10 -47 -37.5 -66t-72.5 -19h-13z" />
    <glyph glyph-name="Ldot" unicode="&#x13f;" horiz-adv-x="607" 
d="M187 700h90l-131 -618h413l-17 -82h-504zM417.5 330q-16.5 17 -16.5 41q0 29 21.5 50t49.5 21q26 0 42 -16t16 -42q0 -29 -21 -50t-50 -21q-25 0 -41.5 17z" />
    <glyph glyph-name="ldot" unicode="&#x140;" horiz-adv-x="328" 
d="M174 700h85l-149 -700h-85zM254.5 289q-16.5 17 -16.5 41q0 29 21.5 50t49.5 21q26 0 42 -16t16 -42q0 -29 -21 -50t-50 -21q-25 0 -41.5 17z" />
    <glyph glyph-name="Lslash" unicode="&#x141;" horiz-adv-x="649" 
d="M135 260l-105 -54l20 95l105 53l74 346h90l-62 -295l211 107l-21 -94l-210 -107l-49 -229h413l-17 -82h-504z" />
    <glyph glyph-name="lslash" unicode="&#x142;" horiz-adv-x="320" 
d="M132 309l-90 -43l18 87l90 43l65 304h85l-55 -259l91 43l-19 -87l-91 -43l-75 -354h-85z" />
    <glyph glyph-name="Nacute" unicode="&#x143;" horiz-adv-x="744" 
d="M187 700h124l217 -600l128 600h90l-149 -700h-122l-218 603l-129 -603h-90zM496 890h107l-89 -128h-67z" />
    <glyph glyph-name="nacute" unicode="&#x144;" horiz-adv-x="568" 
d="M130 500h85l-12 -58q27 33 63.5 50.5t77.5 17.5q73 0 120.5 -42.5t47.5 -119.5q0 -21 -7 -58l-61 -290h-85l61 291q5 25 5 42q0 47 -25 74t-72 27h-9q-51 0 -94 -44.5t-61 -129.5l-55 -260h-85zM396 700h95l-99 -133h-62z" />
    <glyph glyph-name="uni0145" unicode="&#x145;" horiz-adv-x="744" 
d="M187 700h124l217 -600l128 600h90l-149 -700h-122l-218 603l-129 -603h-90zM217 -213h8q24 0 36 8.5t16 27.5l1 3h-40l18 87h85l-21 -96q-7 -33 -32 -54t-65 -21h-15z" />
    <glyph glyph-name="uni0146" unicode="&#x146;" horiz-adv-x="568" 
d="M130 500h85l-12 -58q27 33 63.5 50.5t77.5 17.5q73 0 120.5 -42.5t47.5 -119.5q0 -21 -7 -58l-61 -290h-85l61 291q5 25 5 42q0 47 -25 74t-72 27h-9q-51 0 -94 -44.5t-61 -129.5l-55 -260h-85zM137 -213h8q24 0 36 8.5t16 27.5l1 3h-40l18 87h85l-21 -96q-7 -33 -32 -54
t-65 -21h-15z" />
    <glyph glyph-name="Ncaron" unicode="&#x147;" horiz-adv-x="744" 
d="M187 700h124l217 -600l128 600h90l-149 -700h-122l-218 603l-129 -603h-90zM334 890h68l91 -65l120 65h70l-147 -128h-108z" />
    <glyph glyph-name="ncaron" unicode="&#x148;" horiz-adv-x="568" 
d="M130 500h85l-12 -58q27 33 63.5 50.5t77.5 17.5q73 0 120.5 -42.5t47.5 -119.5q0 -21 -7 -58l-61 -290h-85l61 291q5 25 5 42q0 47 -25 74t-72 27h-9q-51 0 -94 -44.5t-61 -129.5l-55 -260h-85zM224 700h63l80 -74l111 74h71l-144 -133h-89z" />
    <glyph glyph-name="Eng" unicode="&#x14a;" horiz-adv-x="744" 
d="M342 -103h81q62 0 76 64l9 39l-254 592l-126 -592h-90l149 700h113l238 -555l118 555h90l-160 -752q-14 -64 -52 -98.5t-108 -34.5h-102z" />
    <glyph glyph-name="eng" unicode="&#x14b;" horiz-adv-x="568" 
d="M214 -103h75q27 0 40 11t18 37l73 346q5 25 5 42q0 47 -25 74t-72 27h-9q-51 0 -94 -44.5t-61 -129.5l-55 -260h-85l106 500h85l-12 -58q27 33 63.5 50.5t77.5 17.5q73 0 120.5 -42.5t47.5 -119.5q0 -21 -7 -58l-75 -354q-13 -59 -44.5 -86.5t-89.5 -27.5h-98z" />
    <glyph glyph-name="Omacron" unicode="&#x14c;" horiz-adv-x="770" 
d="M216.5 27.5q-68.5 37.5 -108 108t-39.5 163.5q0 24 3 51q12 108 63 190t130 126t172 44q87 0 156 -37.5t108.5 -108t39.5 -163.5q0 -25 -3 -51q-12 -108 -63 -189.5t-130.5 -126t-172.5 -44.5q-87 0 -155.5 37.5zM505 106q57 34 95 97t48 147q3 23 3 44q0 71 -27.5 124
t-75.5 81.5t-110 28.5h-9q-67 0 -124.5 -34t-95 -97t-47.5 -147q-3 -24 -3 -46q0 -71 27.5 -123.5t75.5 -80.5t109 -28h9q68 0 125 34zM364 848h286l-15 -68h-285z" />
    <glyph glyph-name="omacron" unicode="&#x14d;" horiz-adv-x="573" 
d="M152 18q-50 28 -79.5 80t-29.5 119q0 19 3 40q10 73 47 131t94 90t123 32q62 0 112 -28t79 -80t29 -119q0 -20 -3 -41q-9 -72 -46 -129.5t-93.5 -90t-123.5 -32.5q-62 0 -112 28zM383.5 115q47.5 51 58.5 135q2 12 2 34q0 69 -37.5 111t-96.5 42h-7q-65 0 -112.5 -51.5
t-58.5 -135.5q-2 -12 -2 -34q0 -69 37 -110.5t96 -41.5h8q65 0 112.5 51zM220 658h285l-14 -68h-285z" />
    <glyph glyph-name="Obreve" unicode="&#x14e;" horiz-adv-x="770" 
d="M216.5 27.5q-68.5 37.5 -108 108t-39.5 163.5q0 24 3 51q12 108 63 190t130 126t172 44q87 0 156 -37.5t108.5 -108t39.5 -163.5q0 -25 -3 -51q-12 -108 -63 -189.5t-130.5 -126t-172.5 -44.5q-87 0 -155.5 37.5zM505 106q57 34 95 97t48 147q3 23 3 44q0 71 -27.5 124
t-75.5 81.5t-110 28.5h-9q-67 0 -124.5 -34t-95 -97t-47.5 -147q-3 -24 -3 -46q0 -71 27.5 -123.5t75.5 -80.5t109 -28h9q68 0 125 34zM402.5 783q-36.5 31 -36.5 84q0 7 2 23h68q-1 -4 -1 -12q0 -30 19 -45.5t53 -15.5t60 18.5t36 54.5h68q-10 -68 -56.5 -103t-115.5 -35
q-60 0 -96.5 31z" />
    <glyph glyph-name="obreve" unicode="&#x14f;" horiz-adv-x="573" 
d="M152 18q-50 28 -79.5 80t-29.5 119q0 19 3 40q10 73 47 131t94 90t123 32q62 0 112 -28t79 -80t29 -119q0 -20 -3 -41q-9 -72 -46 -129.5t-93.5 -90t-123.5 -32.5q-62 0 -112 28zM383.5 115q47.5 51 58.5 135q2 12 2 34q0 69 -37.5 111t-96.5 42h-7q-65 0 -112.5 -51.5
t-58.5 -135.5q-2 -12 -2 -34q0 -69 37 -110.5t96 -41.5h8q65 0 112.5 51zM263 588q-35 31 -35 86q0 8 2 26h63q-1 -5 -1 -15q0 -32 18.5 -50t53.5 -18q32 0 57.5 20t38.5 63h63q-18 -71 -62 -107t-103 -36q-60 0 -95 31z" />
    <glyph glyph-name="Ohungarumlaut" unicode="&#x150;" horiz-adv-x="770" 
d="M216.5 27.5q-68.5 37.5 -108 108t-39.5 163.5q0 24 3 51q12 108 63 190t130 126t172 44q87 0 156 -37.5t108.5 -108t39.5 -163.5q0 -25 -3 -51q-12 -108 -63 -189.5t-130.5 -126t-172.5 -44.5q-87 0 -155.5 37.5zM505 106q57 34 95 97t48 147q3 23 3 44q0 71 -27.5 124
t-75.5 81.5t-110 28.5h-9q-67 0 -124.5 -34t-95 -97t-47.5 -147q-3 -24 -3 -46q0 -71 27.5 -123.5t75.5 -80.5t109 -28h9q68 0 125 34zM588 890h106l-89 -128h-66zM424 890h106l-89 -128h-66z" />
    <glyph glyph-name="ohungarumlaut" unicode="&#x151;" horiz-adv-x="573" 
d="M152 18q-50 28 -79.5 80t-29.5 119q0 19 3 40q10 73 47 131t94 90t123 32q62 0 112 -28t79 -80t29 -119q0 -20 -3 -41q-9 -72 -46 -129.5t-93.5 -90t-123.5 -32.5q-62 0 -112 28zM383.5 115q47.5 51 58.5 135q2 12 2 34q0 69 -37.5 111t-96.5 42h-7q-65 0 -112.5 -51.5
t-58.5 -135.5q-2 -12 -2 -34q0 -69 37 -110.5t96 -41.5h8q65 0 112.5 51zM286 700h95l-99 -133h-62zM443 700h95l-99 -133h-62z" />
    <glyph glyph-name="OE" unicode="&#x152;" horiz-adv-x="1181" 
d="M216.5 27.5q-68.5 37.5 -108 108t-39.5 163.5q0 24 3 51q12 108 63 190t130 126t172 44q84 0 150.5 -38.5t102.5 -108.5l29 137h503l-17 -82h-413l-47 -217h354l-18 -82h-353l-51 -237h424l-18 -82h-513l15 69q-91 -79 -213 -79q-87 0 -155.5 37.5zM505 106q57 34 95 97
t48 147q3 23 3 44q0 71 -27.5 124t-75.5 81.5t-110 28.5h-9q-67 0 -124.5 -34t-95 -97t-47.5 -147q-3 -24 -3 -46q0 -71 27.5 -123.5t75.5 -80.5t109 -28h9q68 0 125 34z" />
    <glyph glyph-name="oe" unicode="&#x153;" horiz-adv-x="943" 
d="M152 18q-50 28 -79.5 80t-29.5 119q0 19 3 40q10 73 47 131t94 90t123 32q62 0 111.5 -28t78.5 -79q35 51 87 79t111 28q87 0 142.5 -53t58.5 -141q2 -41 -5 -78h-366q-1 -8 -1 -24q0 -71 36.5 -111t91.5 -40h6q44 0 78 23t51 64h88q-24 -73 -83.5 -116.5t-139.5 -43.5
q-61 0 -110 28t-75 79q-37 -51 -90.5 -79t-115.5 -28t-112 28zM383.5 115q47.5 51 58.5 135q2 12 2 34q0 69 -37.5 111t-96.5 42h-7q-65 0 -112.5 -51.5t-58.5 -135.5q-2 -12 -2 -34q0 -69 37 -110.5t96 -41.5h8q65 0 112.5 51zM785.5 402.5q-32.5 35.5 -86.5 35.5h-7
q-49 0 -90 -32.5t-61 -98.5h274q3 60 -29.5 95.5z" />
    <glyph glyph-name="Racute" unicode="&#x154;" horiz-adv-x="682" 
d="M187 700h267q94 0 150 -48.5t56 -129.5q0 -69 -36 -121.5t-100 -71.5q67 -20 67 -89q0 -21 -6 -47l-24 -105q-13 -54 -13 -88h-90q-1 24 9 71l30 140q3 14 3 24q0 50 -63 50h-248l-60 -285h-90zM526 408q42 41 42 103q0 52 -34 79.5t-99 27.5h-175l-53 -251h209
q68 0 110 41zM426 890h107l-89 -128h-67z" />
    <glyph glyph-name="racute" unicode="&#x155;" horiz-adv-x="374" 
d="M130 500h80l-18 -89q27 46 70 70t113 24h30l-18 -81h-28q-161 0 -203 -198l-48 -226h-85zM319 700h95l-99 -133h-62z" />
    <glyph glyph-name="uni0156" unicode="&#x156;" horiz-adv-x="682" 
d="M187 700h267q94 0 150 -48.5t56 -129.5q0 -69 -36 -121.5t-100 -71.5q67 -20 67 -89q0 -21 -6 -47l-24 -105q-13 -54 -13 -88h-90q-1 24 9 71l30 140q3 14 3 24q0 50 -63 50h-248l-60 -285h-90zM526 408q42 41 42 103q0 52 -34 79.5t-99 27.5h-175l-53 -251h209
q68 0 110 41zM192 -213h8q24 0 36 8.5t16 27.5l1 3h-40l18 87h85l-21 -96q-7 -33 -32 -54t-65 -21h-15z" />
    <glyph glyph-name="uni0157" unicode="&#x157;" horiz-adv-x="374" 
d="M130 500h80l-18 -89q27 46 70 70t113 24h30l-18 -81h-28q-161 0 -203 -198l-48 -226h-85zM-35 -213h8q24 0 36 8.5t16 27.5l1 3h-40l18 87h85l-21 -96q-7 -33 -32 -54t-65 -21h-15z" />
    <glyph glyph-name="Rcaron" unicode="&#x158;" horiz-adv-x="682" 
d="M187 700h267q94 0 150 -48.5t56 -129.5q0 -69 -36 -121.5t-100 -71.5q67 -20 67 -89q0 -21 -6 -47l-24 -105q-13 -54 -13 -88h-90q-1 24 9 71l30 140q3 14 3 24q0 50 -63 50h-248l-60 -285h-90zM526 408q42 41 42 103q0 52 -34 79.5t-99 27.5h-175l-53 -251h209
q68 0 110 41zM264 890h68l91 -65l120 65h70l-147 -128h-108z" />
    <glyph glyph-name="rcaron" unicode="&#x159;" horiz-adv-x="374" 
d="M130 500h80l-18 -89q27 46 70 70t113 24h30l-18 -81h-28q-161 0 -203 -198l-48 -226h-85zM147 700h63l80 -74l111 74h71l-144 -133h-89z" />
    <glyph glyph-name="Sacute" unicode="&#x15a;" horiz-adv-x="617" 
d="M103 45.5q-72 55.5 -72 154.5q0 15 1 23h88q-5 -74 43 -112.5t126 -38.5h10q72 0 116.5 32.5t44.5 87.5q0 38 -26.5 65.5t-95.5 48.5l-73 23q-76 24 -112.5 64.5t-36.5 105.5q0 60 32.5 108.5t90 75.5t127.5 27q75 0 133 -27.5t89.5 -77t29.5 -113.5h-90q-1 65 -45 101
t-115 36h-10q-65 0 -108.5 -34.5t-43.5 -86.5q0 -35 22 -57.5t65 -36.5l101 -33q82 -26 120 -72t38 -111q0 -61 -31.5 -108.5t-90 -73.5t-135.5 -26q-120 0 -192 55.5zM419 890h107l-89 -128h-67z" />
    <glyph glyph-name="sacute" unicode="&#x15b;" horiz-adv-x="479" 
d="M73 32.5q-54 42.5 -57 120.5h87q3 -45 34 -68t79 -23h9q44 0 71.5 21t27.5 55q0 29 -18 45.5t-57 25.5l-47 12q-64 16 -94.5 48.5t-30.5 85.5q0 42 23.5 77.5t65.5 56.5t96 21q82 0 136 -43t55 -120h-86q-1 42 -31.5 66.5t-73.5 24.5h-9q-41 0 -67 -21.5t-26 -55.5
q0 -48 68 -65l48 -12q61 -14 97 -48.5t36 -90.5q0 -71 -53 -113t-136 -42q-93 0 -147 42.5zM342 700h95l-99 -133h-62z" />
    <glyph glyph-name="Scircumflex" unicode="&#x15c;" horiz-adv-x="617" 
d="M103 45.5q-72 55.5 -72 154.5q0 15 1 23h88q-5 -74 43 -112.5t126 -38.5h10q72 0 116.5 32.5t44.5 87.5q0 38 -26.5 65.5t-95.5 48.5l-73 23q-76 24 -112.5 64.5t-36.5 105.5q0 60 32.5 108.5t90 75.5t127.5 27q75 0 133 -27.5t89.5 -77t29.5 -113.5h-90q-1 65 -45 101
t-115 36h-10q-65 0 -108.5 -34.5t-43.5 -86.5q0 -35 22 -57.5t65 -36.5l101 -33q82 -26 120 -72t38 -111q0 -61 -31.5 -108.5t-90 -73.5t-135.5 -26q-120 0 -192 55.5zM369 890h109l93 -128h-63l-91 64l-120 -64h-75z" />
    <glyph glyph-name="scircumflex" unicode="&#x15d;" horiz-adv-x="479" 
d="M73 32.5q-54 42.5 -57 120.5h87q3 -45 34 -68t79 -23h9q44 0 71.5 21t27.5 55q0 29 -18 45.5t-57 25.5l-47 12q-64 16 -94.5 48.5t-30.5 85.5q0 42 23.5 77.5t65.5 56.5t96 21q82 0 136 -43t55 -120h-86q-1 42 -31.5 66.5t-73.5 24.5h-9q-41 0 -67 -21.5t-26 -55.5
q0 -48 68 -65l48 -12q61 -14 97 -48.5t36 -90.5q0 -71 -53 -113t-136 -42q-93 0 -147 42.5zM282 700h88l92 -133h-64l-79 74l-112 -74h-70z" />
    <glyph glyph-name="Scedilla" unicode="&#x15e;" horiz-adv-x="617" 
d="M178 -170h69q23 0 37.5 11.5t14.5 30.5q0 14 -11 22t-30 8h-26l19 90q-102 10 -161 64t-59 143q0 16 1 24h88q-5 -74 43 -112.5t126 -38.5h10q72 0 116.5 32.5t44.5 87.5q0 38 -26.5 65.5t-95.5 48.5l-73 23q-76 24 -112.5 64.5t-36.5 105.5q0 60 32.5 108.5t90 75.5
t127.5 27q75 0 133 -27.5t89.5 -77t29.5 -113.5h-90q-1 65 -45 101t-115 36h-10q-65 0 -108.5 -34.5t-43.5 -86.5q0 -35 22 -57.5t65 -36.5l101 -33q82 -26 120 -72t38 -111q0 -60 -30.5 -106.5t-87 -73.5t-131.5 -28l-10 -44q32 -5 50.5 -25.5t18.5 -48.5q0 -49 -35 -76.5
t-84 -27.5h-78z" />
    <glyph glyph-name="scedilla" unicode="&#x15f;" horiz-adv-x="479" 
d="M212 -10l-10 -44q32 -5 50.5 -25.5t18.5 -48.5q0 -49 -35 -76.5t-84 -27.5h-78l13 62h69q23 0 37.5 11.5t14.5 30.5q0 14 -11 22t-30 8h-26l20 93q-67 13 -105 54t-40 104h87q3 -45 34 -68t79 -23h9q44 0 71.5 21t27.5 55q0 29 -18 45.5t-57 25.5l-47 12
q-64 16 -94.5 48.5t-30.5 85.5q0 42 23.5 77.5t65.5 56.5t96 21q82 0 136 -43t55 -120h-86q-1 42 -31.5 66.5t-73.5 24.5h-9q-41 0 -67 -21.5t-26 -55.5q0 -48 68 -65l48 -12q61 -14 97 -48.5t36 -90.5q0 -71 -53 -113t-136 -42h-8z" />
    <glyph glyph-name="Scaron" unicode="&#x160;" horiz-adv-x="617" 
d="M103 45.5q-72 55.5 -72 154.5q0 15 1 23h88q-5 -74 43 -112.5t126 -38.5h10q72 0 116.5 32.5t44.5 87.5q0 38 -26.5 65.5t-95.5 48.5l-73 23q-76 24 -112.5 64.5t-36.5 105.5q0 60 32.5 108.5t90 75.5t127.5 27q75 0 133 -27.5t89.5 -77t29.5 -113.5h-90q-1 65 -45 101
t-115 36h-10q-65 0 -108.5 -34.5t-43.5 -86.5q0 -35 22 -57.5t65 -36.5l101 -33q82 -26 120 -72t38 -111q0 -61 -31.5 -108.5t-90 -73.5t-135.5 -26q-120 0 -192 55.5zM257 890h68l91 -65l120 65h70l-147 -128h-108z" />
    <glyph glyph-name="scaron" unicode="&#x161;" horiz-adv-x="479" 
d="M73 32.5q-54 42.5 -57 120.5h87q3 -45 34 -68t79 -23h9q44 0 71.5 21t27.5 55q0 29 -18 45.5t-57 25.5l-47 12q-64 16 -94.5 48.5t-30.5 85.5q0 42 23.5 77.5t65.5 56.5t96 21q82 0 136 -43t55 -120h-86q-1 42 -31.5 66.5t-73.5 24.5h-9q-41 0 -67 -21.5t-26 -55.5
q0 -48 68 -65l48 -12q61 -14 97 -48.5t36 -90.5q0 -71 -53 -113t-136 -42q-93 0 -147 42.5zM170 700h63l80 -74l111 74h71l-144 -133h-89z" />
    <glyph glyph-name="uni0162" unicode="&#x162;" horiz-adv-x="616" 
d="M341 618h-251l17 82h590l-17 -82h-249l-132 -618h-19l-12 -54q32 -5 50.5 -25.5t18.5 -48.5q0 -49 -35 -76.5t-84 -27.5h-78l13 62h69q23 0 37.5 11.5t14.5 30.5q0 14 -11 22t-30 8h-26l21 98h-19z" />
    <glyph glyph-name="uni0163" unicode="&#x163;" horiz-adv-x="388" 
d="M216 0l-12 -54q32 -5 50.5 -25.5t18.5 -48.5q0 -49 -35 -76.5t-84 -27.5h-78l13 62h69q23 0 37.5 11.5t14.5 30.5q0 14 -11 22t-30 8h-26l22 104q-65 19 -65 87q0 20 4 37l63 297h-116l15 73h118l35 162h83l-35 -162h126l-15 -73h-127l-64 -300l-2 -14q0 -38 52 -38h92
l-16 -75h-96h-1z" />
    <glyph glyph-name="Tcaron" unicode="&#x164;" horiz-adv-x="616" 
d="M341 618h-251l17 82h590l-17 -82h-249l-132 -618h-90zM268 890h68l91 -65l120 65h70l-147 -128h-108z" />
    <glyph glyph-name="tcaron" unicode="&#x165;" horiz-adv-x="388" 
d="M130 24q-30 24 -30 69q0 20 4 37l63 297h-116l15 73h118l35 162h83l-35 -162h126l-15 -73h-127l-64 -300l-2 -14q0 -38 52 -38h92l-16 -75h-96q-57 0 -87 24zM350 589h9q51 0 60 40l1 6h-40l20 92h85l-21 -98q-10 -47 -37.5 -66t-72.5 -19h-13z" />
    <glyph glyph-name="Tbar" unicode="&#x166;" horiz-adv-x="637" 
d="M287 318h-185l18 80h184l47 220h-251l17 82h590l-17 -82h-249l-47 -220h185l-17 -80h-185l-68 -318h-90z" />
    <glyph glyph-name="tbar" unicode="&#x167;" horiz-adv-x="400" 
d="M140 24q-30 24 -30 69q0 20 4 37l25 118h-115l15 68h114l24 111h-115l15 73h117l35 162h83l-35 -162h126l-15 -73h-127l-23 -111h127l-15 -68h-127l-25 -121q-2 -10 -2 -15q0 -37 51 -37h92l-16 -75h-96q-57 0 -87 24z" />
    <glyph glyph-name="Utilde" unicode="&#x168;" horiz-adv-x="696" 
d="M140 47q-58 57 -58 156q0 39 9 84l88 413h90l-90 -422q-8 -40 -8 -69q0 -66 34.5 -101.5t103.5 -35.5h10q82 0 131 43.5t68 130.5l97 454h90l-102 -477q-24 -112 -98.5 -172.5t-199.5 -60.5q-107 0 -165 57zM458 784l-27 21q-14 11 -23.5 15.5t-20.5 4.5q-30 0 -41 -58
h-68l3 14q12 56 37.5 84t67.5 28q20 0 36.5 -8t33.5 -20l27 -20q27 -20 43 -20q35 0 43 58h69l-4 -21q-8 -52 -34 -78.5t-66 -26.5q-43 0 -76 27z" />
    <glyph glyph-name="utilde" unicode="&#x169;" horiz-adv-x="564" 
d="M96.5 32.5q-41.5 42.5 -41.5 112.5q0 27 6 55l63 300h86l-65 -305q-4 -17 -4 -37q0 -42 22 -67t62 -25h9q58 0 104 49t64 135l53 250h85l-106 -500h-85l12 56q-59 -66 -151 -66q-72 0 -113.5 42.5zM395 564q-15 7 -41 23l-32 19q-19 11 -29 15t-21 4q-18 0 -26 -12
t-16 -46h-64l4 19q11 51 33 79t62 28q18 0 34 -7t43 -23l32 -19q30 -19 50 -19q18 0 27.5 13t16.5 45h63l-4 -19q-22 -107 -97 -107q-20 0 -35 7z" />
    <glyph glyph-name="Umacron" unicode="&#x16a;" horiz-adv-x="696" 
d="M140 47q-58 57 -58 156q0 39 9 84l88 413h90l-90 -422q-8 -40 -8 -69q0 -66 34.5 -101.5t103.5 -35.5h10q82 0 131 43.5t68 130.5l97 454h90l-102 -477q-24 -112 -98.5 -172.5t-199.5 -60.5q-107 0 -165 57zM317 848h286l-15 -68h-285z" />
    <glyph glyph-name="umacron" unicode="&#x16b;" horiz-adv-x="564" 
d="M96.5 32.5q-41.5 42.5 -41.5 112.5q0 27 6 55l63 300h86l-65 -305q-4 -17 -4 -37q0 -42 22 -67t62 -25h9q58 0 104 49t64 135l53 250h85l-106 -500h-85l12 56q-59 -66 -151 -66q-72 0 -113.5 42.5zM214 658h285l-14 -68h-285z" />
    <glyph glyph-name="Ubreve" unicode="&#x16c;" horiz-adv-x="696" 
d="M140 47q-58 57 -58 156q0 39 9 84l88 413h90l-90 -422q-8 -40 -8 -69q0 -66 34.5 -101.5t103.5 -35.5h10q82 0 131 43.5t68 130.5l97 454h90l-102 -477q-24 -112 -98.5 -172.5t-199.5 -60.5q-107 0 -165 57zM355.5 783q-36.5 31 -36.5 84q0 7 2 23h68q-1 -4 -1 -12
q0 -30 19 -45.5t53 -15.5t60 18.5t36 54.5h68q-10 -68 -56.5 -103t-115.5 -35q-60 0 -96.5 31z" />
    <glyph glyph-name="ubreve" unicode="&#x16d;" horiz-adv-x="564" 
d="M96.5 32.5q-41.5 42.5 -41.5 112.5q0 27 6 55l63 300h86l-65 -305q-4 -17 -4 -37q0 -42 22 -67t62 -25h9q58 0 104 49t64 135l53 250h85l-106 -500h-85l12 56q-59 -66 -151 -66q-72 0 -113.5 42.5zM257 588q-35 31 -35 86q0 8 2 26h63q-1 -5 -1 -15q0 -32 18.5 -50
t53.5 -18q32 0 57.5 20t38.5 63h63q-18 -71 -62 -107t-103 -36q-60 0 -95 31z" />
    <glyph glyph-name="Uring" unicode="&#x16e;" horiz-adv-x="696" 
d="M140 47q-58 57 -58 156q0 39 9 84l88 413h90l-90 -422q-8 -40 -8 -69q0 -66 34.5 -101.5t103.5 -35.5h10q82 0 131 43.5t68 130.5l97 454h90l-102 -477q-24 -112 -98.5 -172.5t-199.5 -60.5q-107 0 -165 57zM392.5 777.5q-25.5 24.5 -25.5 60.5t25.5 60.5t60.5 24.5
t61 -24.5t26 -60.5t-26 -60.5t-61 -24.5t-60.5 24.5zM477 814q10 10 10 24t-10 24t-23 10t-23.5 -10t-10.5 -24q0 -13 10.5 -23.5t23.5 -10.5t23 10z" />
    <glyph glyph-name="uring" unicode="&#x16f;" horiz-adv-x="564" 
d="M96.5 32.5q-41.5 42.5 -41.5 112.5q0 27 6 55l63 300h86l-65 -305q-4 -17 -4 -37q0 -42 22 -67t62 -25h9q58 0 104 49t64 135l53 250h85l-106 -500h-85l12 56q-59 -66 -151 -66q-72 0 -113.5 42.5zM297 584q-27 26 -27 65t27 65t64 26t64 -26t27 -65t-27 -65t-64 -26
t-64 26zM392.5 618q12.5 13 12.5 31t-12.5 31t-30.5 13t-31 -13t-13 -31t13 -31t31 -13t30.5 13z" />
    <glyph glyph-name="Uhungarumlaut" unicode="&#x170;" horiz-adv-x="696" 
d="M140 47q-58 57 -58 156q0 39 9 84l88 413h90l-90 -422q-8 -40 -8 -69q0 -66 34.5 -101.5t103.5 -35.5h10q82 0 131 43.5t68 130.5l97 454h90l-102 -477q-24 -112 -98.5 -172.5t-199.5 -60.5q-107 0 -165 57zM541 890h106l-89 -128h-66zM377 890h106l-89 -128h-66z" />
    <glyph glyph-name="uhungarumlaut" unicode="&#x171;" horiz-adv-x="564" 
d="M96.5 32.5q-41.5 42.5 -41.5 112.5q0 27 6 55l63 300h86l-65 -305q-4 -17 -4 -37q0 -42 22 -67t62 -25h9q58 0 104 49t64 135l53 250h85l-106 -500h-85l12 56q-59 -66 -151 -66q-72 0 -113.5 42.5zM280 700h95l-99 -133h-62zM437 700h95l-99 -133h-62z" />
    <glyph glyph-name="Uogonek" unicode="&#x172;" horiz-adv-x="696" 
d="M227 -125q0 35 22 64.5t57 50.5h-1q-107 0 -165 57t-58 156q0 39 9 84l88 413h90l-90 -422q-8 -40 -8 -69q0 -66 34.5 -101.5t103.5 -35.5h10q82 0 131 43.5t68 130.5l97 454h90l-102 -477q-18 -83 -61.5 -136t-125.5 -85q-65 -25 -94.5 -49t-29.5 -54q0 -20 11.5 -29.5
t37.5 -9.5h36l-13 -62h-41q-96 0 -96 77z" />
    <glyph glyph-name="uogonek" unicode="&#x173;" horiz-adv-x="564" 
d="M96.5 32.5q-41.5 42.5 -41.5 112.5q0 27 6 55l63 300h86l-65 -305q-4 -17 -4 -37q0 -42 22 -67t62 -25h9q58 0 104 49t64 135l53 250h85l-106 -500h-1q-43 -19 -72 -46t-29 -55q0 -20 11.5 -29.5t37.5 -9.5h36l-13 -62h-41q-49 0 -72.5 19t-23.5 58q0 40 28.5 73t68.5 52
h-15l12 56q-59 -66 -151 -66q-72 0 -113.5 42.5z" />
    <glyph glyph-name="Wcircumflex" unicode="&#x174;" horiz-adv-x="933" 
d="M117 700h91l11 -619l277 619h122l16 -618l272 618h95l-319 -700h-125l-16 615l-273 -615h-127zM537 890h109l93 -128h-63l-91 64l-120 -64h-75z" />
    <glyph glyph-name="wcircumflex" unicode="&#x175;" horiz-adv-x="769" 
d="M70 500h84l30 -411l201 411h93l31 -410l201 410h94l-262 -500h-99l-29 401l-197 -401h-99zM423 700h88l92 -133h-64l-79 74l-112 -74h-70z" />
    <glyph glyph-name="Ycircumflex" unicode="&#x176;" horiz-adv-x="630" 
d="M277 288l-177 412h98l139 -324l270 324h111l-351 -413l-62 -287h-90zM383 890h109l93 -128h-63l-91 64l-120 -64h-75z" />
    <glyph glyph-name="ycircumflex" unicode="&#x177;" horiz-adv-x="519" 
d="M-51 -100h94q29 0 48.5 13.5t39.5 46.5l40 67l-114 473h84l90 -374l229 374h95l-350 -570q-37 -60 -74.5 -82.5t-93.5 -22.5h-104zM293 700h88l92 -133h-64l-79 74l-112 -74h-70z" />
    <glyph glyph-name="Ydieresis" unicode="&#x178;" horiz-adv-x="630" 
d="M277 288l-177 412h98l139 -324l270 324h111l-351 -413l-62 -287h-90zM488.5 789.5q-13.5 13.5 -13.5 33.5q0 23 17.5 40.5t40.5 17.5q20 0 33.5 -14t13.5 -34q0 -22 -18 -39.5t-41 -17.5q-19 0 -32.5 13.5zM296.5 789.5q-13.5 13.5 -13.5 33.5q0 23 17.5 40.5t40.5 17.5
q20 0 33.5 -14t13.5 -34q0 -22 -17.5 -39.5t-40.5 -17.5q-20 0 -33.5 13.5z" />
    <glyph glyph-name="Zacute" unicode="&#x179;" horiz-adv-x="603" 
d="M3 90l525 528h-403l17 82h508l-17 -90l-526 -528h421l-17 -82h-527zM423 890h107l-89 -128h-67z" />
    <glyph glyph-name="zacute" unicode="&#x17a;" horiz-adv-x="484" 
d="M6 84l368 343h-290l15 73h388l-17 -83l-370 -344h311l-15 -73h-408zM342 700h95l-99 -133h-62z" />
    <glyph glyph-name="Zdotaccent" unicode="&#x17b;" horiz-adv-x="603" 
d="M3 90l525 528h-403l17 82h508l-17 -90l-526 -528h421l-17 -82h-527zM381.5 790q-13.5 14 -13.5 35q0 24 18 41.5t41 17.5q21 0 35 -14t14 -35q0 -23 -18 -41t-42 -18q-21 0 -34.5 14z" />
    <glyph glyph-name="zdotaccent" unicode="&#x17c;" horiz-adv-x="484" 
d="M6 84l368 343h-290l15 73h388l-17 -83l-370 -344h311l-15 -73h-408zM280.5 607.5q-14.5 14.5 -14.5 35.5q0 25 17.5 43t42.5 18q22 0 36.5 -14.5t14.5 -35.5q0 -25 -18 -43t-42 -18q-22 0 -36.5 14.5z" />
    <glyph glyph-name="Zcaron" unicode="&#x17d;" horiz-adv-x="603" 
d="M3 90l525 528h-403l17 82h508l-17 -90l-526 -528h421l-17 -82h-527zM261 890h68l91 -65l120 65h70l-147 -128h-108z" />
    <glyph glyph-name="zcaron" unicode="&#x17e;" horiz-adv-x="484" 
d="M6 84l368 343h-290l15 73h388l-17 -83l-370 -344h311l-15 -73h-408zM170 700h63l80 -74l111 74h71l-144 -133h-89z" />
    <glyph glyph-name="florin" unicode="&#x192;" horiz-adv-x="409" 
d="M-67 -122h37q52 0 82.5 27t42.5 80l90 390h-130l16 77h131l16 68q21 91 73.5 135.5t131.5 44.5h61l-18 -78h-41q-97 0 -120 -103l-15 -67h134l-16 -77h-136l-91 -394q-23 -98 -75 -139.5t-140 -41.5h-50z" />
    <glyph glyph-name="uni01E2" unicode="&#x1e2;" horiz-adv-x="979" 
d="M496 700h484l-17 -82h-348l-17 -217h304l-17 -82h-293l-18 -237h350l-17 -82h-422l15 184h-316l-146 -184h-107zM506 266l30 364l-288 -364h258zM613 848h286l-15 -68h-285z" />
    <glyph glyph-name="uni01E3" unicode="&#x1e3;" horiz-adv-x="893" 
d="M74.5 28q-46.5 38 -46.5 105q0 49 25.5 87.5t75 60.5t118.5 22h165l4 20q2 16 2 22q0 44 -35 68.5t-85 24.5h-6q-48 0 -83.5 -22t-43.5 -59h-84q11 67 70 110t144 43q60 0 107.5 -21t70.5 -63q34 41 79 62.5t96 21.5q87 0 142.5 -53t58.5 -141q1 -7 1 -20q0 -25 -5 -58
h-366q-1 -8 -1 -24q0 -71 36.5 -111t91.5 -40h6q44 0 77.5 23t50.5 64h89q-24 -73 -83.5 -116.5t-140.5 -43.5q-63 0 -111.5 32t-71.5 90q-76 -122 -228 -122q-73 0 -119.5 38zM286.5 79.5q37.5 17.5 65 49t36.5 71.5l7 35h-145q-64 0 -102 -26.5t-38 -70.5
q0 -35 24.5 -55.5t68.5 -20.5h9q37 0 74.5 17.5zM736.5 402.5q-32.5 35.5 -86.5 35.5h-7q-49 0 -90 -32.5t-61 -98.5h273q4 60 -28.5 95.5zM373 658h285l-14 -68h-285z" />
    <glyph glyph-name="Aringacute" unicode="&#x1fa;" horiz-adv-x="684" 
d="M379 700h117l124 -700h-86l-33 184h-343l-111 -184h-94zM487 266l-64 357l-215 -357h279zM402 764.5q-23 21.5 -23 55.5q0 33 23 55t54 22t54 -22t23 -55t-23 -55t-54 -22t-54 21.5zM477.5 799q8.5 8 8.5 21t-9 21t-20 8q-12 0 -21 -8.5t-9 -20.5q0 -13 9 -21t21 -8
t20.5 8zM486 1013h87l-67 -88h-54z" />
    <glyph glyph-name="aringacute" unicode="&#x1fb;" horiz-adv-x="552" 
d="M73.5 28q-45.5 38 -45.5 105q0 75 58 121.5t161 46.5h165l4 22q2 14 2 21q0 45 -35 69.5t-85 24.5h-6q-48 0 -83.5 -22t-43.5 -59h-84q11 67 70 110t144 43q86 0 143.5 -42t57.5 -121q0 -22 -6 -49l-40 -188q-16 -74 -17 -110h-79q0 27 7 62q-33 -38 -77.5 -55t-90.5 -17
q-74 0 -119.5 38zM286.5 79.5q37.5 17.5 65 49t36.5 71.5l7 35h-145q-64 0 -102 -26.5t-38 -70.5q0 -35 24.5 -55.5t68.5 -20.5h9q37 0 74.5 17.5zM283.5 583q-27.5 26 -27.5 65q0 38 27.5 64t64.5 26t64 -26t27 -64q0 -39 -27 -65t-64 -26t-64.5 26zM379.5 616.5
q12.5 12.5 12.5 31.5q0 18 -12.5 31t-30.5 13t-31 -13t-13 -31q0 -19 13 -31.5t31 -12.5t30.5 12.5zM399 899h94l-90 -133h-59z" />
    <glyph glyph-name="AEacute" unicode="&#x1fc;" horiz-adv-x="979" 
d="M496 700h484l-17 -82h-348l-17 -217h304l-17 -82h-293l-18 -237h350l-17 -82h-422l15 184h-316l-146 -184h-107zM506 266l30 364l-288 -364h258zM757 890h107l-89 -128h-67z" />
    <glyph glyph-name="aeacute" unicode="&#x1fd;" horiz-adv-x="893" 
d="M74.5 28q-46.5 38 -46.5 105q0 49 25.5 87.5t75 60.5t118.5 22h165l4 20q2 16 2 22q0 44 -35 68.5t-85 24.5h-6q-48 0 -83.5 -22t-43.5 -59h-84q11 67 70 110t144 43q60 0 107.5 -21t70.5 -63q34 41 79 62.5t96 21.5q87 0 142.5 -53t58.5 -141q1 -7 1 -20q0 -25 -5 -58
h-366q-1 -8 -1 -24q0 -71 36.5 -111t91.5 -40h6q44 0 77.5 23t50.5 64h89q-24 -73 -83.5 -116.5t-140.5 -43.5q-63 0 -111.5 32t-71.5 90q-76 -122 -228 -122q-73 0 -119.5 38zM286.5 79.5q37.5 17.5 65 49t36.5 71.5l7 35h-145q-64 0 -102 -26.5t-38 -70.5
q0 -35 24.5 -55.5t68.5 -20.5h9q37 0 74.5 17.5zM736.5 402.5q-32.5 35.5 -86.5 35.5h-7q-49 0 -90 -32.5t-61 -98.5h273q4 60 -28.5 95.5zM544 700h95l-99 -133h-62z" />
    <glyph glyph-name="Oslashacute" unicode="&#x1fe;" horiz-adv-x="771" 
d="M258 10.5q-54 20.5 -95 58.5l-81 -75l-55 59l86 80q-41 73 -41 165q0 25 3 52q12 108 63 190t130 126t172 44q63 0 117 -20t95 -58l80 74l55 -59l-85 -79q42 -74 42 -168q0 -24 -3 -50q-12 -108 -63 -189.5t-130.5 -126t-172.5 -44.5q-63 0 -117 20.5zM508 106
q57 34 95 97t48 147q3 23 3 45q0 59 -21 109l-406 -376q58 -56 147 -56h9q68 0 125 34zM162 303q0 -59 20 -107l405 376q-28 27 -65.5 41.5t-80.5 14.5h-9q-67 0 -124.5 -34t-95 -97t-47.5 -147q-3 -24 -3 -47zM487 890h107l-89 -128h-67z" />
    <glyph glyph-name="oslashacute" unicode="&#x1ff;" horiz-adv-x="575" 
d="M117 44l-65 -61l-44 50l67 64q-30 52 -30 120q0 19 3 40q10 73 47 131t94 90t123 32q85 0 145 -51l65 61l48 -46l-70 -66q32 -56 32 -126q0 -19 -3 -40q-9 -72 -46 -129.5t-93.5 -90t-123.5 -32.5q-87 0 -149 54zM385.5 115q47.5 51 58.5 135q2 12 2 34q0 34 -10 63
l-261 -248q37 -35 90 -35h8q65 0 112.5 51zM132 217q0 -31 8 -58l259 245q-36 33 -87 33h-7q-65 0 -112.5 -51.5t-58.5 -135.5q-2 -12 -2 -33zM380 700h95l-99 -133h-62z" />
    <glyph glyph-name="uni0218" unicode="&#x218;" horiz-adv-x="617" 
d="M103 45.5q-72 55.5 -72 154.5q0 15 1 23h88q-5 -74 43 -112.5t126 -38.5h10q72 0 116.5 32.5t44.5 87.5q0 38 -26.5 65.5t-95.5 48.5l-73 23q-76 24 -112.5 64.5t-36.5 105.5q0 60 32.5 108.5t90 75.5t127.5 27q75 0 133 -27.5t89.5 -77t29.5 -113.5h-90q-1 65 -45 101
t-115 36h-10q-65 0 -108.5 -34.5t-43.5 -86.5q0 -35 22 -57.5t65 -36.5l101 -33q82 -26 120 -72t38 -111q0 -61 -31.5 -108.5t-90 -73.5t-135.5 -26q-120 0 -192 55.5zM178 -213h8q24 0 36 8.5t16 27.5l1 3h-40l18 87h85l-21 -96q-7 -33 -32 -54t-65 -21h-15z" />
    <glyph glyph-name="uni0219" unicode="&#x219;" horiz-adv-x="479" 
d="M73 32.5q-54 42.5 -57 120.5h87q3 -45 34 -68t79 -23h9q44 0 71.5 21t27.5 55q0 29 -18 45.5t-57 25.5l-47 12q-64 16 -94.5 48.5t-30.5 85.5q0 42 23.5 77.5t65.5 56.5t96 21q82 0 136 -43t55 -120h-86q-1 42 -31.5 66.5t-73.5 24.5h-9q-41 0 -67 -21.5t-26 -55.5
q0 -48 68 -65l48 -12q61 -14 97 -48.5t36 -90.5q0 -71 -53 -113t-136 -42q-93 0 -147 42.5zM87 -213h8q24 0 36 8.5t16 27.5l1 3h-40l18 87h85l-21 -96q-7 -33 -32 -54t-65 -21h-15z" />
    <glyph glyph-name="uni021A" unicode="&#x21a;" horiz-adv-x="616" 
d="M341 618h-251l17 82h590l-17 -82h-249l-132 -618h-90zM153 -213h8q24 0 36 8.5t16 27.5l1 3h-40l18 87h85l-21 -96q-7 -33 -32 -54t-65 -21h-15z" />
    <glyph glyph-name="uni021B" unicode="&#x21b;" horiz-adv-x="388" 
d="M130 24q-30 24 -30 69q0 20 4 37l63 297h-116l15 73h118l35 162h83l-35 -162h126l-15 -73h-127l-64 -300l-2 -14q0 -38 52 -38h92l-16 -75h-96q-57 0 -87 24zM89 -213h8q24 0 36 8.5t16 27.5l1 3h-40l18 87h85l-21 -96q-7 -33 -32 -54t-65 -21h-15z" />
    <glyph glyph-name="uni0226" unicode="&#x226;" horiz-adv-x="684" 
d="M379 700h117l124 -700h-86l-33 184h-343l-111 -184h-94zM487 266l-64 357l-215 -357h279zM425.5 790q-13.5 14 -13.5 35q0 24 18 41.5t41 17.5q21 0 35 -14t14 -35q0 -23 -18 -41t-42 -18q-21 0 -34.5 14z" />
    <glyph glyph-name="uni0227" unicode="&#x227;" horiz-adv-x="552" 
d="M73.5 28q-45.5 38 -45.5 105q0 75 58 121.5t161 46.5h165l4 22q2 14 2 21q0 45 -35 69.5t-85 24.5h-6q-48 0 -83.5 -22t-43.5 -59h-84q11 67 70 110t144 43q86 0 143.5 -42t57.5 -121q0 -22 -6 -49l-40 -188q-16 -74 -17 -110h-79q0 27 7 62q-33 -38 -77.5 -55t-90.5 -17
q-74 0 -119.5 38zM286.5 79.5q37.5 17.5 65 49t36.5 71.5l7 35h-145q-64 0 -102 -26.5t-38 -70.5q0 -35 24.5 -55.5t68.5 -20.5h9q37 0 74.5 17.5zM311.5 607.5q-14.5 14.5 -14.5 35.5q0 25 17.5 43t42.5 18q22 0 36.5 -14.5t14.5 -35.5q0 -25 -18 -43t-42 -18
q-22 0 -36.5 14.5z" />
    <glyph glyph-name="uni0232" unicode="&#x232;" horiz-adv-x="630" 
d="M277 288l-177 412h98l139 -324l270 324h111l-351 -413l-62 -287h-90zM289 848h286l-15 -68h-285z" />
    <glyph glyph-name="uni0233" unicode="&#x233;" horiz-adv-x="519" 
d="M-51 -100h94q29 0 48.5 13.5t39.5 46.5l40 67l-114 473h84l90 -374l229 374h95l-350 -570q-37 -60 -74.5 -82.5t-93.5 -22.5h-104zM182 658h285l-14 -68h-285z" />
    <glyph glyph-name="uni0237" unicode="&#x237;" horiz-adv-x="240" 
d="M-149 -103h97q30 0 44.5 12.5t20.5 41.5l117 549h85l-118 -556q-13 -62 -47 -92t-100 -30h-115z" />
    <glyph glyph-name="uni02BC" unicode="&#x2bc;" horiz-adv-x="261" 
d="M105 512h33q60 0 73 59l3 16h-58l24 113h113l-28 -133q-13 -60 -47 -86t-89 -26h-37z" />
    <glyph glyph-name="circumflex" unicode="&#x2c6;" horiz-adv-x="365" 
d="M232 700h88l92 -133h-64l-79 74l-112 -74h-70z" />
    <glyph glyph-name="caron" unicode="&#x2c7;" horiz-adv-x="365" 
d="M118 700h63l80 -74l111 74h71l-144 -133h-89z" />
    <glyph glyph-name="breve" unicode="&#x2d8;" horiz-adv-x="353" 
d="M159 588q-35 31 -35 86q0 8 2 26h63q-1 -5 -1 -15q0 -32 18.5 -50t53.5 -18q32 0 57.5 20t38.5 63h63q-18 -71 -62 -107t-103 -36q-60 0 -95 31z" />
    <glyph glyph-name="dotaccent" unicode="&#x2d9;" horiz-adv-x="157" 
d="M122.5 607.5q-14.5 14.5 -14.5 35.5q0 25 17.5 43t42.5 18q22 0 36.5 -14.5t14.5 -35.5q0 -25 -18 -43t-42 -18q-22 0 -36.5 14.5z" />
    <glyph glyph-name="ring" unicode="&#x2da;" horiz-adv-x="247" 
d="M144 584q-27 26 -27 65t27 65t64 26t64 -26t27 -65t-27 -65t-64 -26t-64 26zM239.5 618q12.5 13 12.5 31t-12.5 31t-30.5 13t-31 -13t-13 -31t13 -31t31 -13t30.5 13z" />
    <glyph glyph-name="ogonek" unicode="&#x2db;" horiz-adv-x="216" 
d="M-23.5 -183q-23.5 19 -23.5 58q0 46 37 82.5t83 51.5l46 -9q-43 -19 -72 -46t-29 -55q0 -20 11.5 -29.5t37.5 -9.5h36l-13 -62h-41q-49 0 -72.5 19z" />
    <glyph glyph-name="tilde" unicode="&#x2dc;" horiz-adv-x="400" 
d="M326 564q-15 7 -41 23l-32 19q-19 11 -29 15t-21 4q-18 0 -26 -12t-16 -46h-64l4 19q11 51 33 79t62 28q18 0 34 -7t43 -23l32 -19q30 -19 50 -19q18 0 27.5 13t16.5 45h63l-4 -19q-22 -107 -97 -107q-20 0 -35 7z" />
    <glyph glyph-name="hungarumlaut" unicode="&#x2dd;" horiz-adv-x="339" 
d="M157 700h95l-99 -133h-62zM314 700h95l-99 -133h-62z" />
    <glyph glyph-name="gravecomb" unicode="&#x300;" horiz-adv-x="0" 
d="M127 700h92l45 -133h-57z" />
    <glyph glyph-name="acutecomb" unicode="&#x301;" horiz-adv-x="0" 
d="M156 700h95l-99 -133h-62z" />
    <glyph glyph-name="uni0302" unicode="&#x302;" horiz-adv-x="0" 
d="M232 700h88l92 -133h-64l-79 74l-112 -74h-70z" />
    <glyph glyph-name="tildecomb" unicode="&#x303;" horiz-adv-x="0" 
d="M326 564q-15 7 -41 23l-32 19q-19 11 -29 15t-21 4q-18 0 -26 -12t-16 -46h-64l4 19q11 51 33 79t62 28q18 0 34 -7t43 -23l32 -19q30 -19 50 -19q18 0 27.5 13t16.5 45h63l-4 -19q-22 -107 -97 -107q-20 0 -35 7z" />
    <glyph glyph-name="uni0304" unicode="&#x304;" horiz-adv-x="0" 
d="M117 658h285l-14 -68h-285z" />
    <glyph glyph-name="uni0306" unicode="&#x306;" horiz-adv-x="0" 
d="M159 588q-35 31 -35 86q0 8 2 26h63q-1 -5 -1 -15q0 -32 18.5 -50t53.5 -18q32 0 57.5 20t38.5 63h63q-18 -71 -62 -107t-103 -36q-60 0 -95 31z" />
    <glyph glyph-name="uni0307" unicode="&#x307;" horiz-adv-x="0" 
d="M122.5 607.5q-14.5 14.5 -14.5 35.5q0 25 17.5 43t42.5 18q22 0 36.5 -14.5t14.5 -35.5q0 -25 -18 -43t-42 -18q-22 0 -36.5 14.5z" />
    <glyph glyph-name="uni0308" unicode="&#x308;" horiz-adv-x="0" 
d="M309 599.5q-13 13.5 -13 32.5q0 23 17 39.5t39 16.5q20 0 33 -13.5t13 -33.5q0 -22 -16.5 -38.5t-39.5 -16.5q-20 0 -33 13.5zM120 598.5q-13 12.5 -13 31.5q0 23 17 40.5t39 17.5q19 0 32 -13t13 -33q0 -22 -16.5 -39t-39.5 -17q-19 0 -32 12.5z" />
    <glyph glyph-name="uni030A" unicode="&#x30a;" horiz-adv-x="0" 
d="M144 584q-27 26 -27 65t27 65t64 26t64 -26t27 -65t-27 -65t-64 -26t-64 26zM239.5 618q12.5 13 12.5 31t-12.5 31t-30.5 13t-31 -13t-13 -31t13 -31t31 -13t30.5 13z" />
    <glyph glyph-name="uni030B" unicode="&#x30b;" horiz-adv-x="0" 
d="M157 700h95l-99 -133h-62zM314 700h95l-99 -133h-62z" />
    <glyph glyph-name="uni030C" unicode="&#x30c;" horiz-adv-x="0" 
d="M118 700h63l80 -74l111 74h71l-144 -133h-89z" />
    <glyph glyph-name="uni0312" unicode="&#x312;" horiz-adv-x="0" 
d="M172 758q25 22 73 22h14l-10 -45h-10q-25 0 -37 -9t-18 -33l-1 -4h39l-20 -92h-85l19 90q11 49 36 71z" />
    <glyph glyph-name="dotbelowcomb" unicode="&#x323;" horiz-adv-x="0" 
d="M-46.5 -168.5q-12.5 12.5 -12.5 31.5q0 23 17 40.5t39 17.5q20 0 32.5 -13t12.5 -33q0 -23 -16.5 -39.5t-39.5 -16.5q-20 0 -32.5 12.5z" />
    <glyph glyph-name="uni0326" unicode="&#x326;" horiz-adv-x="0" 
d="M-67 -213h8q24 0 36 8.5t16 27.5l1 3h-40l18 87h85l-21 -96q-7 -33 -32 -54t-65 -21h-15z" />
    <glyph glyph-name="uni0327" unicode="&#x327;" horiz-adv-x="0" 
d="M-59 -170h69q23 0 37.5 11.5t14.5 30.5q0 14 -11 22t-30 8h-26l24 113h52l-15 -69q32 -5 50.5 -25.5t18.5 -48.5q0 -49 -35 -76.5t-84 -27.5h-78z" />
    <glyph glyph-name="uni0328" unicode="&#x328;" horiz-adv-x="0" 
d="M-23.5 -183q-23.5 19 -23.5 58q0 46 37 82.5t83 51.5l46 -9q-43 -19 -72 -46t-29 -55q0 -20 11.5 -29.5t37.5 -9.5h36l-13 -62h-41q-49 0 -72.5 19z" />
    <glyph glyph-name="uni0335" unicode="&#x335;" horiz-adv-x="0" 
d="M67 420h459l-17 -80h-460z" />
    <glyph glyph-name="uni0336" unicode="&#x336;" horiz-adv-x="0" 
d="M102 587h688l-16 -74h-688z" />
    <glyph glyph-name="uni0337" unicode="&#x337;" horiz-adv-x="0" 
d="M57 377l276 131l-19 -87l-275 -131z" />
    <glyph glyph-name="uni0338" unicode="&#x338;" horiz-adv-x="0" 
d="M-11 53l705 653l55 -59l-705 -653z" />
    <glyph glyph-name="Wgrave" unicode="&#x1e80;" horiz-adv-x="933" 
d="M117 700h91l11 -619l277 619h122l16 -618l272 618h95l-319 -700h-125l-16 615l-273 -615h-127zM448 890h107l49 -128h-67z" />
    <glyph glyph-name="wgrave" unicode="&#x1e81;" horiz-adv-x="769" 
d="M70 500h84l30 -411l201 411h93l31 -410l201 410h94l-262 -500h-99l-29 401l-197 -401h-99zM338 700h92l45 -133h-57z" />
    <glyph glyph-name="Wacute" unicode="&#x1e82;" horiz-adv-x="933" 
d="M117 700h91l11 -619l277 619h122l16 -618l272 618h95l-319 -700h-125l-16 615l-273 -615h-127zM587 890h107l-89 -128h-67z" />
    <glyph glyph-name="wacute" unicode="&#x1e83;" horiz-adv-x="769" 
d="M70 500h84l30 -411l201 411h93l31 -410l201 410h94l-262 -500h-99l-29 401l-197 -401h-99zM483 700h95l-99 -133h-62z" />
    <glyph glyph-name="Wdieresis" unicode="&#x1e84;" horiz-adv-x="933" 
d="M117 700h91l11 -619l277 619h122l16 -618l272 618h95l-319 -700h-125l-16 615l-273 -615h-127zM642.5 789.5q-13.5 13.5 -13.5 33.5q0 23 17.5 40.5t40.5 17.5q20 0 33.5 -14t13.5 -34q0 -22 -18 -39.5t-41 -17.5q-19 0 -32.5 13.5zM450.5 789.5q-13.5 13.5 -13.5 33.5
q0 23 17.5 40.5t40.5 17.5q20 0 33.5 -14t13.5 -34q0 -22 -17.5 -39.5t-40.5 -17.5q-20 0 -33.5 13.5z" />
    <glyph glyph-name="wdieresis" unicode="&#x1e85;" horiz-adv-x="769" 
d="M70 500h84l30 -411l201 411h93l31 -410l201 410h94l-262 -500h-99l-29 401l-197 -401h-99zM517 599.5q-13 13.5 -13 32.5q0 23 17 39.5t39 16.5q20 0 33 -13.5t13 -33.5q0 -22 -16.5 -38.5t-39.5 -16.5q-20 0 -33 13.5zM328 598.5q-13 12.5 -13 31.5q0 23 17 40.5
t39 17.5q19 0 32 -13t13 -33q0 -22 -16.5 -39t-39.5 -17q-19 0 -32 12.5z" />
    <glyph glyph-name="uni1E9E" unicode="&#x1e9e;" horiz-adv-x="660" 
d="M187 700h217q92 0 148 -42.5t56 -125.5q0 -63 -35 -109.5t-95 -63.5q55 -11 89.5 -53t34.5 -98q0 -55 -28.5 -103t-79 -76.5t-113.5 -28.5h-142l18 82h116q58 0 98.5 31t40.5 100q0 46 -32 73.5t-88 27.5h-86l18 82h59q58 0 96.5 33.5t38.5 89.5q0 99 -125 99h-133
l-130 -618h-92z" />
    <glyph glyph-name="uni1EA0" unicode="&#x1ea0;" horiz-adv-x="684" 
d="M379 700h117l124 -700h-86l-33 184h-343l-111 -184h-94zM487 266l-64 357l-215 -357h279zM224.5 -168.5q-12.5 12.5 -12.5 31.5q0 23 17 40.5t39 17.5q20 0 32.5 -13t12.5 -33q0 -23 -16.5 -39.5t-39.5 -16.5q-20 0 -32.5 12.5z" />
    <glyph glyph-name="uni1EA1" unicode="&#x1ea1;" horiz-adv-x="552" 
d="M73.5 28q-45.5 38 -45.5 105q0 75 58 121.5t161 46.5h165l4 22q2 14 2 21q0 45 -35 69.5t-85 24.5h-6q-48 0 -83.5 -22t-43.5 -59h-84q11 67 70 110t144 43q86 0 143.5 -42t57.5 -121q0 -22 -6 -49l-40 -188q-16 -74 -17 -110h-79q0 27 7 62q-33 -38 -77.5 -55t-90.5 -17
q-74 0 -119.5 38zM286.5 79.5q37.5 17.5 65 49t36.5 71.5l7 35h-145q-64 0 -102 -26.5t-38 -70.5q0 -35 24.5 -55.5t68.5 -20.5h9q37 0 74.5 17.5zM146.5 -168.5q-12.5 12.5 -12.5 31.5q0 23 17 40.5t39 17.5q20 0 32.5 -13t12.5 -33q0 -23 -16.5 -39.5t-39.5 -16.5
q-20 0 -32.5 12.5z" />
    <glyph glyph-name="uni1EB8" unicode="&#x1eb8;" horiz-adv-x="649" 
d="M187 700h504l-18 -82h-413l-46 -217h353l-17 -82h-354l-50 -237h423l-17 -82h-514zM228.5 -168.5q-12.5 12.5 -12.5 31.5q0 23 17 40.5t39 17.5q20 0 32.5 -13t12.5 -33q0 -23 -16.5 -39.5t-39.5 -16.5q-20 0 -32.5 12.5z" />
    <glyph glyph-name="uni1EB9" unicode="&#x1eb9;" horiz-adv-x="542" 
d="M147 17q-48 27 -75 77.5t-27 119.5q0 27 2 41q9 78 45 136t90 88.5t116 30.5q87 0 142.5 -53t58.5 -141q2 -41 -5 -78h-366q-1 -8 -1 -24q0 -71 36.5 -111t91.5 -40h6q44 0 78 23t51 64h88q-24 -73 -83.5 -116.5t-139.5 -43.5q-60 0 -108 27zM385.5 402.5
q-32.5 35.5 -86.5 35.5h-7q-49 0 -90 -32.5t-61 -98.5h274q3 60 -29.5 95.5zM176.5 -168.5q-12.5 12.5 -12.5 31.5q0 23 17 40.5t39 17.5q20 0 32.5 -13t12.5 -33q0 -23 -16.5 -39.5t-39.5 -16.5q-20 0 -32.5 12.5z" />
    <glyph glyph-name="uni1ECA" unicode="&#x1eca;" horiz-adv-x="275" 
d="M187 700h90l-149 -700h-90zM16.5 -168.5q-12.5 12.5 -12.5 31.5q0 23 17 40.5t39 17.5q20 0 32.5 -13t12.5 -33q0 -23 -16.5 -39.5t-39.5 -16.5q-20 0 -32.5 12.5z" />
    <glyph glyph-name="uni1ECB" unicode="&#x1ecb;" horiz-adv-x="240" 
d="M130 500h85l-106 -500h-85zM163.5 607.5q-14.5 14.5 -14.5 35.5q0 25 17.5 43t42.5 18q22 0 36.5 -14.5t14.5 -35.5q0 -25 -18 -43t-42 -18q-22 0 -36.5 14.5zM-0.5 -168.5q-12.5 12.5 -12.5 31.5q0 23 17 40.5t39 17.5q20 0 32.5 -13t12.5 -33q0 -23 -16.5 -39.5
t-39.5 -16.5q-20 0 -32.5 12.5z" />
    <glyph glyph-name="uni1ECC" unicode="&#x1ecc;" horiz-adv-x="770" 
d="M216.5 27.5q-68.5 37.5 -108 108t-39.5 163.5q0 24 3 51q12 108 63 190t130 126t172 44q87 0 156 -37.5t108.5 -108t39.5 -163.5q0 -25 -3 -51q-12 -108 -63 -189.5t-130.5 -126t-172.5 -44.5q-87 0 -155.5 37.5zM505 106q57 34 95 97t48 147q3 23 3 44q0 71 -27.5 124
t-75.5 81.5t-110 28.5h-9q-67 0 -124.5 -34t-95 -97t-47.5 -147q-3 -24 -3 -46q0 -71 27.5 -123.5t75.5 -80.5t109 -28h9q68 0 125 34zM264.5 -168.5q-12.5 12.5 -12.5 31.5q0 23 17 40.5t39 17.5q20 0 32.5 -13t12.5 -33q0 -23 -16.5 -39.5t-39.5 -16.5q-20 0 -32.5 12.5z
" />
    <glyph glyph-name="uni1ECD" unicode="&#x1ecd;" horiz-adv-x="573" 
d="M152 18q-50 28 -79.5 80t-29.5 119q0 19 3 40q10 73 47 131t94 90t123 32q62 0 112 -28t79 -80t29 -119q0 -20 -3 -41q-9 -72 -46 -129.5t-93.5 -90t-123.5 -32.5q-62 0 -112 28zM383.5 115q47.5 51 58.5 135q2 12 2 34q0 69 -37.5 111t-96.5 42h-7q-65 0 -112.5 -51.5
t-58.5 -135.5q-2 -12 -2 -34q0 -69 37 -110.5t96 -41.5h8q65 0 112.5 51zM167.5 -168.5q-12.5 12.5 -12.5 31.5q0 23 17 40.5t39 17.5q20 0 32.5 -13t12.5 -33q0 -23 -16.5 -39.5t-39.5 -16.5q-20 0 -32.5 12.5z" />
    <glyph glyph-name="uni1EE4" unicode="&#x1ee4;" horiz-adv-x="696" 
d="M140 47q-58 57 -58 156q0 39 9 84l88 413h90l-90 -422q-8 -40 -8 -69q0 -66 34.5 -101.5t103.5 -35.5h10q82 0 131 43.5t68 130.5l97 454h90l-102 -477q-24 -112 -98.5 -172.5t-199.5 -60.5q-107 0 -165 57zM232.5 -168.5q-12.5 12.5 -12.5 31.5q0 23 17 40.5t39 17.5
q20 0 32.5 -13t12.5 -33q0 -23 -16.5 -39.5t-39.5 -16.5q-20 0 -32.5 12.5z" />
    <glyph glyph-name="uni1EE5" unicode="&#x1ee5;" horiz-adv-x="564" 
d="M96.5 32.5q-41.5 42.5 -41.5 112.5q0 27 6 55l63 300h86l-65 -305q-4 -17 -4 -37q0 -42 22 -67t62 -25h9q58 0 104 49t64 135l53 250h85l-106 -500h-85l12 56q-59 -66 -151 -66q-72 0 -113.5 42.5zM159.5 -168.5q-12.5 12.5 -12.5 31.5q0 23 17 40.5t39 17.5
q20 0 32.5 -13t12.5 -33q0 -23 -16.5 -39.5t-39.5 -16.5q-20 0 -32.5 12.5z" />
    <glyph glyph-name="Ygrave" unicode="&#x1ef2;" horiz-adv-x="630" 
d="M277 288l-177 412h98l139 -324l270 324h111l-351 -413l-62 -287h-90zM294 890h107l49 -128h-67z" />
    <glyph glyph-name="ygrave" unicode="&#x1ef3;" horiz-adv-x="519" 
d="M-51 -100h94q29 0 48.5 13.5t39.5 46.5l40 67l-114 473h84l90 -374l229 374h95l-350 -570q-37 -60 -74.5 -82.5t-93.5 -22.5h-104zM208 700h92l45 -133h-57z" />
    <glyph glyph-name="uni2002" unicode="&#x2002;" horiz-adv-x="500" 
 />
    <glyph glyph-name="uni2003" unicode="&#x2003;" horiz-adv-x="1000" 
 />
    <glyph glyph-name="uni2009" unicode="&#x2009;" horiz-adv-x="125" 
 />
    <glyph glyph-name="uni200A" unicode="&#x200a;" horiz-adv-x="42" 
 />
    <glyph glyph-name="endash" unicode="&#x2013;" horiz-adv-x="557" 
d="M75 340h442l-16 -75h-442z" />
    <glyph glyph-name="emdash" unicode="&#x2014;" horiz-adv-x="878" 
d="M75 340h764l-16 -75h-764z" />
    <glyph glyph-name="uni2015" unicode="&#x2015;" horiz-adv-x="878" 
d="M75 340h764l-16 -75h-764z" />
    <glyph glyph-name="quoteleft" unicode="&#x2018;" horiz-adv-x="262" 
d="M299 643h-33q-60 0 -73 -59l-3 -16h58l-24 -113h-113l28 133q13 60 47 86t89 26h37z" />
    <glyph glyph-name="quoteright" unicode="&#x2019;" horiz-adv-x="261" 
d="M105 512h33q60 0 73 59l3 16h-58l24 113h113l-28 -133q-13 -60 -47 -86t-89 -26h-37z" />
    <glyph glyph-name="quotesinglbase" unicode="&#x201a;" horiz-adv-x="255" 
d="M-31 -75h33q60 0 73 59l3 16h-58l24 113h113l-28 -133q-13 -60 -47 -86t-89 -26h-37z" />
    <glyph glyph-name="quotedblleft" unicode="&#x201c;" horiz-adv-x="467" 
d="M299 643h-33q-60 0 -73 -59l-3 -16h58l-24 -113h-113l28 133q13 60 47 86t89 26h37zM504 643h-33q-60 0 -73 -59l-3 -16h58l-24 -113h-113l28 133q13 60 47 86t89 26h37z" />
    <glyph glyph-name="quotedblright" unicode="&#x201d;" horiz-adv-x="466" 
d="M310 512h33q60 0 73 59l3 16h-58l24 113h113l-28 -133q-13 -60 -47 -86t-89 -26h-37zM105 512h33q60 0 73 59l3 16h-58l24 113h113l-28 -133q-13 -60 -47 -86t-89 -26h-37z" />
    <glyph glyph-name="quotedblbase" unicode="&#x201e;" horiz-adv-x="465" 
d="M174 -75h33q60 0 73 59l3 16h-58l24 113h113l-28 -133q-13 -60 -47 -86t-89 -26h-37zM-31 -75h33q60 0 73 59l3 16h-58l24 113h113l-28 -133q-13 -60 -47 -86t-89 -26h-37z" />
    <glyph glyph-name="dagger" unicode="&#x2020;" horiz-adv-x="489" 
d="M248 465h-175l16 75h174l52 245h85l-52 -245h175l-15 -75h-175l-117 -550h-85z" />
    <glyph glyph-name="daggerdbl" unicode="&#x2021;" horiz-adv-x="517" 
d="M197 160h-175l15 75h176l48 230h-175l16 75h175l52 245h85l-52 -245h175l-16 -75h-175l-48 -230h174l-15 -75h-175l-52 -245h-85z" />
    <glyph glyph-name="bullet" unicode="&#x2022;" horiz-adv-x="322" 
d="M117.5 286.5q-26.5 26.5 -26.5 63.5t26.5 63.5t63.5 26.5q38 0 64.5 -26.5t26.5 -63.5t-26.5 -63.5t-64.5 -26.5q-37 0 -63.5 26.5z" />
    <glyph glyph-name="ellipsis" unicode="&#x2026;" horiz-adv-x="749" 
d="M33.5 6q-16.5 16 -16.5 41q0 30 21 51t50 21q25 0 41.5 -17.5t16.5 -41.5q0 -29 -21.5 -49.5t-49.5 -20.5q-25 0 -41.5 16zM288.5 6q-16.5 16 -16.5 41q0 30 21 51t50 21q25 0 41.5 -17.5t16.5 -41.5q0 -29 -21.5 -49.5t-49.5 -20.5q-25 0 -41.5 16zM543.5 6
q-16.5 16 -16.5 41q0 30 21 51t50 21q25 0 41.5 -17.5t16.5 -41.5q0 -29 -21.5 -49.5t-49.5 -20.5q-25 0 -41.5 16z" />
    <glyph glyph-name="perthousand" unicode="&#x2030;" horiz-adv-x="1206" 
d="M120.5 345q-40.5 45 -40.5 123q0 20 3 41q12 89 61 142.5t123 53.5q71 0 111 -44.5t40 -122.5q0 -19 -3 -42q-12 -90 -60.5 -143t-124.5 -53q-69 0 -109.5 45zM307 400q30 41 38 102q2 11 2 34q0 48 -20 79t-61 31h-4q-43 0 -71.5 -40.5t-37.5 -102.5q-2 -12 -2 -35
q0 -47 19 -78t59 -31h4q44 0 74 41zM724 700h83l-560 -700h-83zM601.5 39.5q-40.5 44.5 -40.5 121.5q0 21 3 43q12 89 60.5 142.5t123.5 53.5q45 0 78.5 -19t51.5 -53q25 34 60 53t78 19q71 0 111 -44.5t40 -122.5q0 -19 -3 -42q-12 -90 -60.5 -143t-124.5 -53
q-44 0 -76.5 18.5t-51.5 53.5q-24 -34 -60 -53t-80 -19q-69 0 -109.5 44.5zM788 95q30 41 38 102q2 11 2 34q0 48 -20 79t-61 31h-4q-43 0 -71.5 -40.5t-37.5 -102.5q-2 -12 -2 -35q0 -47 19 -78t59 -31h4q44 0 74 41zM1056 95q30 41 38 102q2 11 2 34q0 48 -20 79t-61 31
h-4q-43 0 -71.5 -40.5t-37.5 -102.5q-2 -12 -2 -35q0 -47 19 -78t59 -31h4q44 0 74 41z" />
    <glyph glyph-name="guilsinglleft" unicode="&#x2039;" horiz-adv-x="325" 
d="M44 285l190 215h107l-200 -225l95 -205h-93z" />
    <glyph glyph-name="guilsinglright" unicode="&#x203a;" horiz-adv-x="326" 
d="M199 295l-95 205h93l99 -215l-190 -215h-107z" />
    <glyph glyph-name="fraction" unicode="&#x2044;" horiz-adv-x="188" 
d="M355 700h81l-562 -700h-82z" />
    <glyph glyph-name="uni2070" unicode="&#x2070;" horiz-adv-x="399" 
d="M148 454.5q-40 44.5 -40 121.5q0 22 3 44q12 88 60.5 141.5t122.5 53.5q70 0 110.5 -44.5t40.5 -121.5q0 -21 -3 -44q-12 -89 -60.5 -142t-124.5 -53q-69 0 -109 44.5zM334 510q30 41 38 102q2 11 2 34q0 48 -20 79t-61 31h-4q-43 0 -71.5 -40.5t-37.5 -102.5
q-2 -12 -2 -35q0 -47 19 -78t59 -31h4q44 0 74 41z" />
    <glyph glyph-name="uni2074" unicode="&#x2074;" horiz-adv-x="359" 
d="M265 506h-187l14 61l224 243h81l-53 -246h56l-13 -58h-56l-18 -91h-67zM278 564l34 164l-150 -164h116z" />
    <glyph glyph-name="uni2075" unicode="&#x2075;" horiz-adv-x="342" 
d="M123.5 440q-36.5 30 -37.5 83h71q1 -26 18.5 -40t44.5 -14h4q34 0 57 23.5t23 59.5q0 27 -18 42.5t-45 15.5h-3q-40 0 -68 -34h-67l83 234h228l-13 -59h-176l-34 -100q29 17 64 17q56 0 89.5 -34.5t29.5 -88.5q-6 -62 -49.5 -98.5t-105.5 -36.5q-59 0 -95.5 30z" />
    <glyph glyph-name="uni2076" unicode="&#x2076;" horiz-adv-x="367" 
d="M141 450q-35 40 -35 112q0 24 2 37q11 100 63.5 158t127.5 58q40 0 69 -16t43.5 -41.5t14.5 -53.5h-68q-2 23 -19.5 37t-42.5 14h-6q-37 0 -66.5 -32.5t-43.5 -87.5q17 21 43 33t56 12q52 0 86 -32t34 -85q0 -42 -19 -77t-55.5 -55.5t-86.5 -20.5q-62 0 -97 40z
M304.5 494q25.5 25 25.5 61q0 29 -18 47.5t-48 18.5h-3q-33 0 -59.5 -25t-26.5 -61q0 -29 18 -47.5t47 -18.5h3q36 0 61.5 25z" />
    <glyph glyph-name="uni2077" unicode="&#x2077;" horiz-adv-x="301" 
d="M192.5 636.5q49.5 69.5 122.5 114.5h-194l13 59h273l-14 -62q-78 -49 -129 -118t-71 -180l-7 -35h-70l6 35q21 117 70.5 186.5z" />
    <glyph glyph-name="uni2078" unicode="&#x2078;" horiz-adv-x="356" 
d="M126 437q-37 27 -37 73q0 39 27.5 69t67.5 40q-25 13 -37.5 36.5t-9.5 54.5q6 51 47 78t98 27q54 0 92 -26.5t38 -72.5q0 -38 -24 -65t-62 -39q25 -11 39.5 -32t14.5 -48q0 -57 -44 -89.5t-113 -32.5q-60 0 -97 27zM288 485q24 16 24 46q0 24 -19.5 37t-46.5 13h-5
q-32 0 -57 -17t-25 -47q0 -23 19 -35.5t47 -12.5h5q34 0 58 16zM316.5 661q21.5 18 21.5 46q0 23 -16.5 36t-41.5 13h-5q-29 0 -50.5 -17.5t-21.5 -45.5q0 -22 16.5 -36t41.5 -14h5q29 0 50.5 18z" />
    <glyph glyph-name="uni2079" unicode="&#x2079;" horiz-adv-x="368" 
d="M155 426q-29 16 -44 41.5t-16 53.5h69q2 -22 19 -36.5t42 -14.5h6q36 0 64.5 32t45.5 89q-17 -21 -42.5 -33.5t-55.5 -12.5q-52 0 -86.5 32t-34.5 85q0 41 19 76t53 56t78 21q68 0 106 -40.5t38 -113.5q0 -9 -2 -33q-11 -101 -63 -159.5t-127 -58.5q-40 0 -69 16z
M319 627.5q25 23.5 25 59.5q0 29 -18.5 49t-47.5 20h-3q-35 0 -60 -25t-25 -60q0 -30 18.5 -48.5t48.5 -18.5h3q34 0 59 23.5z" />
    <glyph glyph-name="uni2080" unicode="&#x2080;" horiz-adv-x="400" 
d="M35 -75.5q-40 44.5 -40 121.5q0 22 3 44q12 88 60.5 141.5t122.5 53.5q70 0 110.5 -44.5t40.5 -121.5q0 -21 -3 -44q-12 -89 -60.5 -142t-124.5 -53q-69 0 -109 44.5zM221 -20q30 41 38 102q2 11 2 34q0 48 -20 79t-61 31h-4q-43 0 -71.5 -40.5t-37.5 -102.5
q-2 -12 -2 -35q0 -47 19 -78t59 -31h4q44 0 74 41z" />
    <glyph glyph-name="uni2081" unicode="&#x2081;" horiz-adv-x="223" 
d="M77 143h-84l9 47q45 1 74.5 24t46.5 66h51l-84 -395h-68z" />
    <glyph glyph-name="uni2082" unicode="&#x2082;" horiz-adv-x="341" 
d="M-21 -38l158 118q44 33 58.5 50t14.5 44q0 22 -16.5 36t-40.5 14h-5q-25 0 -44.5 -16t-23.5 -45h-71q8 56 49 89t99 33q54 0 90.5 -29.5t36.5 -77.5q0 -44 -23.5 -73t-74.5 -66l-125 -93h190l-13 -61h-276z" />
    <glyph glyph-name="uni2083" unicode="&#x2083;" horiz-adv-x="346" 
d="M8 -89q-37 31 -35 86h70q-1 -26 16 -42t45 -16h5q33 0 54.5 17.5t21.5 49.5q0 24 -16 36.5t-42 12.5h-31l12 60h34q35 0 55.5 16.5t20.5 45.5q0 23 -16.5 36t-43.5 13h-5q-26 0 -44.5 -15t-23.5 -39h-69q7 54 47 83.5t98 29.5q54 0 90.5 -26t36.5 -73q0 -39 -22 -66
t-58 -38q21 -10 34 -30.5t13 -48.5q0 -58 -44.5 -90.5t-106.5 -32.5q-59 0 -96 31z" />
    <glyph glyph-name="uni2084" unicode="&#x2084;" horiz-adv-x="359" 
d="M152 -24h-187l14 61l224 243h81l-53 -246h56l-13 -58h-56l-18 -91h-67zM165 34l34 164l-150 -164h116z" />
    <glyph glyph-name="uni2085" unicode="&#x2085;" horiz-adv-x="341" 
d="M10.5 -90q-36.5 30 -37.5 83h71q1 -26 18.5 -40t44.5 -14h4q34 0 57 23.5t23 59.5q0 27 -18 42.5t-45 15.5h-3q-40 0 -68 -34h-67l83 234h228l-13 -59h-176l-34 -100q29 17 64 17q56 0 89.5 -34.5t29.5 -88.5q-6 -62 -49.5 -98.5t-105.5 -36.5q-59 0 -95.5 30z" />
    <glyph glyph-name="uni2086" unicode="&#x2086;" horiz-adv-x="368" 
d="M28 -80q-35 40 -35 112q0 24 2 37q11 100 63.5 158t127.5 58q40 0 69 -16t43.5 -41.5t14.5 -53.5h-68q-2 23 -19.5 37t-42.5 14h-6q-37 0 -66.5 -32.5t-43.5 -87.5q17 21 43 33t56 12q52 0 86 -32t34 -85q0 -42 -19 -77t-55.5 -55.5t-86.5 -20.5q-62 0 -97 40zM191.5 -36
q25.5 25 25.5 61q0 29 -18 47.5t-48 18.5h-3q-33 0 -59.5 -25t-26.5 -61q0 -29 18 -47.5t47 -18.5h3q36 0 61.5 25z" />
    <glyph glyph-name="uni2087" unicode="&#x2087;" horiz-adv-x="302" 
d="M79.5 106.5q49.5 69.5 122.5 114.5h-194l13 59h273l-14 -62q-78 -49 -129 -118t-71 -180l-7 -35h-70l6 35q21 117 70.5 186.5z" />
    <glyph glyph-name="uni2088" unicode="&#x2088;" horiz-adv-x="357" 
d="M15 -93q-37 27 -37 73q0 39 27.5 69t67.5 40q-25 13 -37.5 36.5t-9.5 54.5q6 51 47 78t98 27q54 0 92 -26.5t38 -72.5q0 -38 -24 -65t-62 -39q25 -11 39.5 -32t14.5 -48q0 -57 -44 -89.5t-113 -32.5q-60 0 -97 27zM177 -45q24 16 24 46q0 24 -19.5 37t-46.5 13h-5
q-32 0 -57 -17t-25 -47q0 -23 19 -35.5t47 -12.5h5q34 0 58 16zM205.5 131q21.5 18 21.5 46q0 23 -16.5 36t-41.5 13h-5q-29 0 -50.5 -17.5t-21.5 -45.5q0 -22 16.5 -36t41.5 -14h5q29 0 50.5 18z" />
    <glyph glyph-name="uni2089" unicode="&#x2089;" horiz-adv-x="368" 
d="M42 -104q-29 16 -44 41.5t-16 53.5h69q2 -22 19 -36.5t42 -14.5h6q36 0 64.5 32t45.5 89q-17 -21 -42.5 -33.5t-55.5 -12.5q-52 0 -86.5 32t-34.5 85q0 41 19 76t53 56t78 21q68 0 106 -40.5t38 -113.5q0 -9 -2 -33q-11 -101 -63 -159.5t-127 -58.5q-40 0 -69 16z
M206 97.5q25 23.5 25 59.5q0 29 -18.5 49t-47.5 20h-3q-35 0 -60 -25t-25 -60q0 -30 18.5 -48.5t48.5 -18.5h3q34 0 59 23.5z" />
    <glyph glyph-name="uni20A9" unicode="&#x20a9;" horiz-adv-x="980" 
d="M76 377h79l-13 323h92l6 -323h138l148 323h114l11 -323h137l143 323h97l-150 -323h79l-15 -69h-95l-143 -308h-118l-11 308h-147l-139 -308h-119l-12 308h-97zM246 89l101 219h-105zM573 377l-8 234l-106 -234h114zM661 88l97 220h-105z" />
    <glyph glyph-name="Euro" unicode="&#x20ac;" horiz-adv-x="672" 
d="M218.5 41.5q-59.5 51.5 -78.5 144.5l-110 -25l18 80l84 19v6q0 38 5 80l-72 -16l16 80l73 16q24 86 71.5 150t111 99t134.5 35q58 0 103.5 -23.5t71 -66t25.5 -98.5q0 -10 -2 -30h-86q2 14 2 22q0 52 -33 85t-85 33h-10q-67 0 -123.5 -50.5t-86.5 -134.5l214 48l-17 -81
l-218 -48q-7 -39 -7 -85v-2l164 37l-17 -80l-140 -31q14 -65 49.5 -101t87.5 -36h10q54 0 96 37t61 103h88q-25 -98 -88 -158t-170 -60q-82 0 -141.5 51.5z" />
    <glyph glyph-name="uni20B4" unicode="&#x20b4;" horiz-adv-x="659" 
d="M146 37q-56 47 -56 122q0 32 11 57l-52 -8l16 78l551 83l-16 -78l-413 -62q-14 -21 -14 -54q0 -49 36.5 -78t94.5 -29h9q60 0 102.5 29t58.5 89h91q-25 -100 -91 -148t-175 -48q-97 0 -153 47zM72 429l445 66q11 24 11 46q0 41 -32 66t-83 25h-8q-70 0 -106 -33t-46 -75
h-94q17 75 78 130.5t176 55.5q65 0 109.5 -21t67 -56t22.5 -78q0 -25 -6 -46l70 10l-16 -77l-604 -91z" />
    <glyph glyph-name="uni20BD" unicode="&#x20bd;" horiz-adv-x="648" 
d="M132 167h-97l16 76h97l13 67h-98l17 81h99l65 309h212q95 0 153.5 -44t58.5 -130q0 -66 -30 -115t-83 -75t-121 -26h-183l-13 -67h224l-16 -76h-225l-35 -167h-90zM537.5 424q40.5 33 40.5 96q0 98 -140 98h-121l-48 -227h157q71 0 111.5 33z" />
    <glyph glyph-name="uni20BF" unicode="&#x20bf;" horiz-adv-x="661" 
d="M188 700h112l26 120h76l-26 -120h76h14l26 120h77l-28 -132q55 -18 85 -57.5t30 -98.5q0 -68 -42.5 -118t-109.5 -66q46 -17 72 -54.5t26 -87.5q0 -52 -25.5 -98t-71.5 -74.5t-105 -32.5l-26 -121h-77l26 120h-90l-26 -120h-76l26 120h-118zM471.5 114.5
q40.5 32.5 40.5 99.5q0 47 -29.5 73.5t-84.5 26.5h-202l-50 -232h227q58 0 98.5 32.5zM526 430.5q40 34.5 40 90.5q0 50 -31.5 73.5t-96.5 23.5h-177l-48 -222h216q57 0 97 34.5z" />
    <glyph glyph-name="uni2105" unicode="&#x2105;" horiz-adv-x="777" 
d="M648 700h83l-560 -700h-83zM457.5 26.5q-36.5 36.5 -36.5 92.5q0 12 1 19q7 66 50.5 106.5t105.5 40.5q56 0 92.5 -35.5t36.5 -90.5q0 -14 -1 -21q-8 -67 -51 -107.5t-105 -40.5q-56 0 -92.5 36.5zM611.5 71q22.5 25 27.5 67q1 6 1 17q0 34 -18 54t-47 20h-3
q-36 0 -60 -30t-24 -78q0 -34 18 -54.5t47 -20.5h3q33 0 55.5 25zM148.5 451q-33.5 36 -33.5 93q0 45 19 83t53.5 60.5t79.5 22.5q53 0 86 -29.5t34 -75.5h-67q-2 21 -17 35.5t-39 14.5h-1q-37 0 -59.5 -31.5t-22.5 -76.5q0 -34 16.5 -55t45.5 -21h1q24 0 42 14.5t24 36.5
h69q-12 -49 -49 -78t-90 -29q-58 0 -91.5 36z" />
    <glyph glyph-name="uni2113" unicode="&#x2113;" horiz-adv-x="419" 
d="M114 24.5q-31 24.5 -31 72.5q0 16 5 39l13 61l-84 -44l19 92l85 44l59 277q14 67 51.5 105.5t100.5 38.5q64 0 97.5 -37.5t33.5 -98.5q0 -29 -5 -50q-15 -76 -64 -137.5t-148 -113.5l-48 -25l-21 -101q-4 -22 -4 -29q0 -22 13.5 -32t45.5 -10h67l-16 -76h-81
q-57 0 -88 24.5zM322 424q39 49 50 104q5 27 5 43q0 31 -12.5 47t-36.5 16t-40 -19.5t-25 -61.5l-45 -213q65 35 104 84z" />
    <glyph glyph-name="uni2116" unicode="&#x2116;" horiz-adv-x="1071" 
d="M195 700h123l218 -602l127 602h90l-149 -700h-121l-219 605l-128 -605h-90zM763 350h271l-12 -56h-272zM829.5 442.5q-35.5 32.5 -35.5 90.5q0 51 20.5 90t55 60.5t75.5 21.5q54 0 91 -31t37 -91q0 -51 -20.5 -90.5t-55 -61t-75.5 -21.5q-57 0 -92.5 32.5zM980.5 498.5
q23.5 32.5 23.5 80.5q0 31 -15.5 50.5t-43.5 19.5q-37 0 -59.5 -35t-22.5 -77q0 -31 15.5 -51t44.5 -20q34 0 57.5 32.5z" />
    <glyph glyph-name="uni2117" unicode="&#x2117;" horiz-adv-x="877" 
d="M246.5 8.5q-81.5 48.5 -129 131.5t-47.5 182q0 114 55 210t152 152t218 56q96 0 177.5 -48t129 -131t47.5 -181q0 -113 -54.5 -209.5t-151.5 -153.5t-219 -57q-96 0 -177.5 48.5zM612.5 74.5q80.5 49.5 124.5 130.5t44 171q0 82 -38.5 150.5t-105.5 108.5t-149 40
q-102 0 -182 -49t-124 -130t-44 -171q0 -82 38.5 -151t105 -109t148.5 -40q102 0 182.5 49.5zM385 544h141q55 0 89.5 -30.5t34.5 -78.5q0 -13 -3 -28q-12 -55 -51.5 -78t-100.5 -23h-86l-30 -138h-75zM549.5 380q19.5 10 25.5 39q2 10 2 15q0 23 -17 34.5t-46 11.5h-68
l-24 -110h74q34 0 53.5 10z" />
    <glyph glyph-name="trademark" unicode="&#x2122;" horiz-adv-x="976" 
d="M561 700h113l34 -294l154 294h118l-80 -380h-77l60 286l-152 -286h-76l-36 291l-61 -291h-77zM257 630h-130l14 70h339l-15 -70h-131l-65 -310h-77z" />
    <glyph glyph-name="uni2126" unicode="&#x2126;" horiz-adv-x="788" 
d="M50 82h133q-107 81 -107 237q0 112 51 201.5t136 139.5t182 50q88 0 154 -39t101.5 -109.5t35.5 -163.5q0 -204 -165 -316h125l-17 -82h-245l17 81q92 49 143 124t51 184q0 74 -26 128t-71 82.5t-102 28.5h-11q-68 0 -130 -38t-100.5 -108.5t-38.5 -164.5
q0 -166 131 -236l-16 -81h-249z" />
    <glyph glyph-name="uni2153" unicode="&#x2153;" horiz-adv-x="731" 
d="M166 563h-84l9 47q45 1 74.5 24t46.5 66h51l-84 -395h-68zM567 700h81l-562 -700h-82zM417 26q-37 31 -35 86h70q-1 -26 16 -42t45 -16h5q33 0 54.5 17.5t21.5 49.5q0 24 -16 36.5t-42 12.5h-31l12 60h34q35 0 55.5 16.5t20.5 45.5q0 23 -16.5 36t-43.5 13h-5
q-26 0 -44.5 -15t-23.5 -39h-69q7 54 47 83.5t98 29.5q54 0 90.5 -26t36.5 -73q0 -39 -22 -66t-58 -38q21 -10 34 -30.5t13 -48.5q0 -58 -44.5 -90.5t-106.5 -32.5q-59 0 -96 31z" />
    <glyph glyph-name="uni2154" unicode="&#x2154;" horiz-adv-x="860" 
d="M68 382l158 118q44 33 58.5 50t14.5 44q0 22 -16.5 36t-40.5 14h-5q-25 0 -44.5 -16t-23.5 -45h-71q8 56 49 89t99 33q54 0 90.5 -29.5t36.5 -77.5q0 -44 -23.5 -73t-74.5 -66l-125 -93h190l-13 -61h-276zM696 700h81l-562 -700h-82zM546 26q-37 31 -35 86h70
q-1 -26 16 -42t45 -16h5q33 0 54.5 17.5t21.5 49.5q0 24 -16 36.5t-42 12.5h-31l12 60h34q35 0 55.5 16.5t20.5 45.5q0 23 -16.5 36t-43.5 13h-5q-26 0 -44.5 -15t-23.5 -39h-69q7 54 47 83.5t98 29.5q54 0 90.5 -26t36.5 -73q0 -39 -22 -66t-58 -38q21 -10 34 -30.5
t13 -48.5q0 -58 -44.5 -90.5t-106.5 -32.5q-59 0 -96 31z" />
    <glyph glyph-name="uni2155" unicode="&#x2155;" horiz-adv-x="736" 
d="M166 563h-84l9 47q45 1 74.5 24t46.5 66h51l-84 -395h-68zM567 700h81l-562 -700h-82zM425.5 26q-36.5 30 -37.5 83h71q1 -26 18.5 -40t44.5 -14h4q34 0 57 23.5t23 59.5q0 27 -18 42.5t-45 15.5h-3q-40 0 -68 -34h-67l83 234h228l-13 -59h-176l-34 -100q29 17 64 17
q56 0 89.5 -34.5t29.5 -88.5q-6 -62 -49.5 -98.5t-105.5 -36.5q-59 0 -95.5 30z" />
    <glyph glyph-name="uni2156" unicode="&#x2156;" horiz-adv-x="865" 
d="M68 382l158 118q44 33 58.5 50t14.5 44q0 22 -16.5 36t-40.5 14h-5q-25 0 -44.5 -16t-23.5 -45h-71q8 56 49 89t99 33q54 0 90.5 -29.5t36.5 -77.5q0 -44 -23.5 -73t-74.5 -66l-125 -93h190l-13 -61h-276zM696 700h81l-562 -700h-82zM554.5 26q-36.5 30 -37.5 83h71
q1 -26 18.5 -40t44.5 -14h4q34 0 57 23.5t23 59.5q0 27 -18 42.5t-45 15.5h-3q-40 0 -68 -34h-67l83 234h228l-13 -59h-176l-34 -100q29 17 64 17q56 0 89.5 -34.5t29.5 -88.5q-6 -62 -49.5 -98.5t-105.5 -36.5q-59 0 -95.5 30z" />
    <glyph glyph-name="uni2157" unicode="&#x2157;" horiz-adv-x="846" 
d="M97 331q-37 31 -35 86h70q-1 -26 16 -42t45 -16h5q33 0 54.5 17.5t21.5 49.5q0 24 -16 36.5t-42 12.5h-31l12 60h34q35 0 55.5 16.5t20.5 45.5q0 23 -16.5 36t-43.5 13h-5q-26 0 -44.5 -15t-23.5 -39h-69q7 54 47 83.5t98 29.5q54 0 90.5 -26t36.5 -73q0 -39 -22 -66
t-58 -38q21 -10 34 -30.5t13 -48.5q0 -58 -44.5 -90.5t-106.5 -32.5q-59 0 -96 31zM677 700h81l-562 -700h-82zM535.5 26q-36.5 30 -37.5 83h71q1 -26 18.5 -40t44.5 -14h4q34 0 57 23.5t23 59.5q0 27 -18 42.5t-45 15.5h-3q-40 0 -68 -34h-67l83 234h228l-13 -59h-176
l-34 -100q29 17 64 17q56 0 89.5 -34.5t29.5 -88.5q-6 -62 -49.5 -98.5t-105.5 -36.5q-59 0 -95.5 30z" />
    <glyph glyph-name="uni2158" unicode="&#x2158;" horiz-adv-x="860" 
d="M241 396h-187l14 61l224 243h81l-53 -246h56l-13 -58h-56l-18 -91h-67zM254 454l34 164l-150 -164h116zM691 700h81l-562 -700h-82zM549.5 26q-36.5 30 -37.5 83h71q1 -26 18.5 -40t44.5 -14h4q34 0 57 23.5t23 59.5q0 27 -18 42.5t-45 15.5h-3q-40 0 -68 -34h-67l83 234
h228l-13 -59h-176l-34 -100q29 17 64 17q56 0 89.5 -34.5t29.5 -88.5q-6 -62 -49.5 -98.5t-105.5 -36.5q-59 0 -95.5 30z" />
    <glyph glyph-name="uni2159" unicode="&#x2159;" horiz-adv-x="750" 
d="M166 563h-84l9 47q45 1 74.5 24t46.5 66h51l-84 -395h-68zM567 700h81l-562 -700h-82zM433 36q-35 40 -35 112q0 24 2 37q11 100 63.5 158t127.5 58q40 0 69 -16t43.5 -41.5t14.5 -53.5h-68q-2 23 -19.5 37t-42.5 14h-6q-37 0 -66.5 -32.5t-43.5 -87.5q17 21 43 33t56 12
q52 0 86 -32t34 -85q0 -42 -19 -77t-55.5 -55.5t-86.5 -20.5q-62 0 -97 40zM596.5 80q25.5 25 25.5 61q0 29 -18 47.5t-48 18.5h-3q-33 0 -59.5 -25t-26.5 -61q0 -29 18 -47.5t47 -18.5h3q36 0 61.5 25z" />
    <glyph glyph-name="uni215A" unicode="&#x215a;" horiz-adv-x="866" 
d="M100.5 330q-36.5 30 -37.5 83h71q1 -26 18.5 -40t44.5 -14h4q34 0 57 23.5t23 59.5q0 27 -18 42.5t-45 15.5h-3q-40 0 -68 -34h-67l83 234h228l-13 -59h-176l-34 -100q29 17 64 17q56 0 89.5 -34.5t29.5 -88.5q-6 -62 -49.5 -98.5t-105.5 -36.5q-59 0 -95.5 30zM683 700
h81l-562 -700h-82zM549 36q-35 40 -35 112q0 24 2 37q11 100 63.5 158t127.5 58q40 0 69 -16t43.5 -41.5t14.5 -53.5h-68q-2 23 -19.5 37t-42.5 14h-6q-37 0 -66.5 -32.5t-43.5 -87.5q17 21 43 33t56 12q52 0 86 -32t34 -85q0 -42 -19 -77t-55.5 -55.5t-86.5 -20.5
q-62 0 -97 40zM712.5 80q25.5 25 25.5 61q0 29 -18 47.5t-48 18.5h-3q-33 0 -59.5 -25t-26.5 -61q0 -29 18 -47.5t47 -18.5h3q36 0 61.5 25z" />
    <glyph glyph-name="oneeighth" unicode="&#x215b;" horiz-adv-x="739" 
d="M166 563h-84l9 47q45 1 74.5 24t46.5 66h51l-84 -395h-68zM567 700h81l-562 -700h-82zM419 23q-37 27 -37 73q0 39 27.5 69t67.5 40q-25 13 -37.5 36.5t-9.5 54.5q6 51 47 78t98 27q54 0 92 -26.5t38 -72.5q0 -38 -24 -65t-62 -39q25 -11 39.5 -32t14.5 -48
q0 -57 -44 -89.5t-113 -32.5q-60 0 -97 27zM581 71q24 16 24 46q0 24 -19.5 37t-46.5 13h-5q-32 0 -57 -17t-25 -47q0 -23 19 -35.5t47 -12.5h5q34 0 58 16zM609.5 247q21.5 18 21.5 46q0 23 -16.5 36t-41.5 13h-5q-29 0 -50.5 -17.5t-21.5 -45.5q0 -22 16.5 -36t41.5 -14h5
q29 0 50.5 18z" />
    <glyph glyph-name="threeeighths" unicode="&#x215c;" horiz-adv-x="849" 
d="M97 331q-37 31 -35 86h70q-1 -26 16 -42t45 -16h5q33 0 54.5 17.5t21.5 49.5q0 24 -16 36.5t-42 12.5h-31l12 60h34q35 0 55.5 16.5t20.5 45.5q0 23 -16.5 36t-43.5 13h-5q-26 0 -44.5 -15t-23.5 -39h-69q7 54 47 83.5t98 29.5q54 0 90.5 -26t36.5 -73q0 -39 -22 -66
t-58 -38q21 -10 34 -30.5t13 -48.5q0 -58 -44.5 -90.5t-106.5 -32.5q-59 0 -96 31zM677 700h81l-562 -700h-82zM529 23q-37 27 -37 73q0 39 27.5 69t67.5 40q-25 13 -37.5 36.5t-9.5 54.5q6 51 47 78t98 27q54 0 92 -26.5t38 -72.5q0 -38 -24 -65t-62 -39q25 -11 39.5 -32
t14.5 -48q0 -57 -44 -89.5t-113 -32.5q-60 0 -97 27zM691 71q24 16 24 46q0 24 -19.5 37t-46.5 13h-5q-32 0 -57 -17t-25 -47q0 -23 19 -35.5t47 -12.5h5q34 0 58 16zM719.5 247q21.5 18 21.5 46q0 23 -16.5 36t-41.5 13h-5q-29 0 -50.5 -17.5t-21.5 -45.5q0 -22 16.5 -36
t41.5 -14h5q29 0 50.5 18z" />
    <glyph glyph-name="fiveeighths" unicode="&#x215d;" horiz-adv-x="855" 
d="M100.5 330q-36.5 30 -37.5 83h71q1 -26 18.5 -40t44.5 -14h4q34 0 57 23.5t23 59.5q0 27 -18 42.5t-45 15.5h-3q-40 0 -68 -34h-67l83 234h228l-13 -59h-176l-34 -100q29 17 64 17q56 0 89.5 -34.5t29.5 -88.5q-6 -62 -49.5 -98.5t-105.5 -36.5q-59 0 -95.5 30zM683 700
h81l-562 -700h-82zM535 23q-37 27 -37 73q0 39 27.5 69t67.5 40q-25 13 -37.5 36.5t-9.5 54.5q6 51 47 78t98 27q54 0 92 -26.5t38 -72.5q0 -38 -24 -65t-62 -39q25 -11 39.5 -32t14.5 -48q0 -57 -44 -89.5t-113 -32.5q-60 0 -97 27zM697 71q24 16 24 46q0 24 -19.5 37
t-46.5 13h-5q-32 0 -57 -17t-25 -47q0 -23 19 -35.5t47 -12.5h5q34 0 58 16zM725.5 247q21.5 18 21.5 46q0 23 -16.5 36t-41.5 13h-5q-29 0 -50.5 -17.5t-21.5 -45.5q0 -22 16.5 -36t41.5 -14h5q29 0 50.5 18z" />
    <glyph glyph-name="seveneighths" unicode="&#x215e;" horiz-adv-x="776" 
d="M169.5 526.5q49.5 69.5 122.5 114.5h-194l13 59h273l-14 -62q-78 -49 -129 -118t-71 -180l-7 -35h-70l6 35q21 117 70.5 186.5zM604 700h81l-562 -700h-82zM456 23q-37 27 -37 73q0 39 27.5 69t67.5 40q-25 13 -37.5 36.5t-9.5 54.5q6 51 47 78t98 27q54 0 92 -26.5
t38 -72.5q0 -38 -24 -65t-62 -39q25 -11 39.5 -32t14.5 -48q0 -57 -44 -89.5t-113 -32.5q-60 0 -97 27zM618 71q24 16 24 46q0 24 -19.5 37t-46.5 13h-5q-32 0 -57 -17t-25 -47q0 -23 19 -35.5t47 -12.5h5q34 0 58 16zM646.5 247q21.5 18 21.5 46q0 23 -16.5 36t-41.5 13h-5
q-29 0 -50.5 -17.5t-21.5 -45.5q0 -22 16.5 -36t41.5 -14h5q29 0 50.5 18z" />
    <glyph glyph-name="uni215F" unicode="&#x215f;" horiz-adv-x="400" 
d="M166 563h-84l9 47q45 1 74.5 24t46.5 66h51l-84 -395h-68zM567 700h81l-562 -700h-82z" />
    <glyph glyph-name="uni2160" unicode="&#x2160;" horiz-adv-x="457" 
d="M1 72h146l119 556h-146l15 72h378l-15 -72h-146l-119 -556h146l-15 -72h-378z" />
    <glyph glyph-name="uni2161" unicode="&#x2161;" horiz-adv-x="742" 
d="M1 72h146l119 556h-146l15 72h663l-15 -72h-146l-119 -556h146l-15 -72h-663zM432 72l119 556h-199l-119 -556h199z" />
    <glyph glyph-name="uni2162" unicode="&#x2162;" horiz-adv-x="1027" 
d="M1 72h146l119 556h-146l15 72h948l-15 -72h-146l-119 -556h146l-15 -72h-948zM432 72l119 556h-199l-119 -556h199zM717 72l119 556h-199l-119 -556h199z" />
    <glyph glyph-name="uni2163" unicode="&#x2163;" horiz-adv-x="1034" 
d="M1 72h146l119 556h-146l15 72h542l-16 -72h-104l56 -539l289 539h-109l15 72h301l-16 -72h-97l-306 -556h156l-15 -72h-845zM533 72l-61 556h-120l-119 -556h300z" />
    <glyph glyph-name="uni2164" unicode="&#x2164;" horiz-adv-x="758" 
d="M103 72h155l-61 556h-97l15 72h287l-16 -72h-104l56 -539l289 539h-109l15 72h301l-16 -72h-97l-306 -556h156l-15 -72h-469z" />
    <glyph glyph-name="uni2165" unicode="&#x2165;" horiz-adv-x="1025" 
d="M103 72h155l-61 556h-97l15 72h287l-16 -72h-104l56 -539l289 539h-109l15 72h546l-16 -72h-146l-118 -556h146l-15 -72h-843zM713 72l118 556h-110l-306 -556h298z" />
    <glyph glyph-name="uni2166" unicode="&#x2166;" horiz-adv-x="1310" 
d="M103 72h155l-61 556h-97l15 72h287l-16 -72h-104l56 -539l289 539h-109l15 72h830l-15 -72h-146l-119 -556h146l-15 -72h-1127zM712 72l119 556h-110l-306 -556h297zM997 72l119 556h-199l-119 -556h199z" />
    <glyph glyph-name="uni2167" unicode="&#x2167;" horiz-adv-x="1591" 
d="M103 72h155l-61 556h-97l15 72h287l-16 -72h-104l56 -539l289 539h-109l15 72h1112l-16 -72h-146l-118 -556h146l-15 -72h-1409zM709 72l118 556h-106l-306 -556h294zM994 72l118 556h-199l-118 -556h199zM1279 72l118 556h-199l-118 -556h199z" />
    <glyph glyph-name="uni2168" unicode="&#x2168;" horiz-adv-x="1019" 
d="M1 72h146l119 556h-146l15 72h934l-16 -72h-104l-242 -278l131 -278h108l-15 -72h-945zM363 72l249 287l-127 269h-133l-119 -556h130zM748 72l-100 211l-183 -211h283zM847 628h-271l95 -202z" />
    <glyph glyph-name="uni2169" unicode="&#x2169;" horiz-adv-x="762" 
d="M-3 72h110l249 287l-127 269h-105l16 72h672l-15 -72h-105l-241 -278l131 -278h108l-16 -72h-692zM491 72l-99 211l-183 -211h282zM591 628h-271l95 -202z" />
    <glyph glyph-name="uni216C" unicode="&#x216c;" horiz-adv-x="686" 
d="M2 72h146l117 556h-146l17 72h378l-17 -72h-146l-117 -556h292l41 185h85l-54 -257h-611z" />
    <glyph glyph-name="uni216D" unicode="&#x216d;" horiz-adv-x="741" 
d="M199 26.5q-61 36.5 -95.5 104t-34.5 156.5q0 117 44.5 213.5t127 153t191.5 56.5q75 0 135.5 -30.5t91.5 -88.5l23 109h86l-48 -218h-79q-19 70 -75 113t-136 43h-10q-72 0 -132.5 -46t-96.5 -125t-36 -174q0 -106 51 -168.5t146 -62.5h11q65 0 126.5 43.5t90.5 112.5h87
l-46 -218h-86l18 81q-41 -48 -98 -69.5t-119 -21.5q-76 0 -137 36.5z" />
    <glyph glyph-name="uni216E" unicode="&#x216e;" horiz-adv-x="778" 
d="M2 72h133l119 556h-134l16 72h294q107 0 179 -39t107 -105t35 -147q0 -124 -51.5 -217t-138.5 -142.5t-190 -49.5h-384zM525.5 119.5q68.5 47.5 103.5 124.5t35 166q0 62 -28.5 111.5t-82.5 78t-128 28.5h-86l-118 -556h140q96 0 164.5 47.5z" />
    <glyph glyph-name="uni216F" unicode="&#x216f;" horiz-adv-x="1003" 
d="M2 72h116l118 556h-115l15 72h254l76 -616l330 616h262l-16 -72h-115l-118 -556h115l-15 -72h-272l15 72h72l116 545l-335 -617h-108l-77 620l-116 -548h71l-15 -72h-273z" />
    <glyph glyph-name="arrowleft" unicode="&#x2190;" horiz-adv-x="847" 
d="M225 309l213 -212l-57 -57l-265 264q-22 22 -22 46t22 46l265 265l57 -58l-213 -211h585v-83h-585z" />
    <glyph glyph-name="arrowup" unicode="&#x2191;" horiz-adv-x="691" 
d="M342 585l-212 -213l-57 57l264 265q22 22 46 22t46 -22l265 -265l-58 -57l-211 213v-585h-83v585z" />
    <glyph glyph-name="arrowright" unicode="&#x2192;" horiz-adv-x="849" 
d="M664 391l-213 212l57 57l265 -264q22 -22 22 -46t-22 -46l-265 -265l-57 58l213 211h-585v83h585z" />
    <glyph glyph-name="arrowdown" unicode="&#x2193;" horiz-adv-x="691" 
d="M390 115l212 213l57 -57l-264 -265q-22 -22 -46 -22q-11 0 -23.5 6t-22.5 16l-265 265l58 57l211 -213v585h83v-585z" />
    <glyph glyph-name="uni2196" unicode="&#x2196;" horiz-adv-x="753" 
d="M228 561l1 -300h-81v374q0 32 17 48q15 17 48 17h374v-81l-300 1l414 -413l-59 -59z" />
    <glyph glyph-name="uni2197" unicode="&#x2197;" horiz-adv-x="659" 
d="M461 621l-300 -1v81h374q32 0 48 -17q17 -15 17 -48v-374h-81l1 300l-413 -414l-59 59z" />
    <glyph glyph-name="uni2198" unicode="&#x2198;" horiz-adv-x="756" 
d="M564 139l-1 300h81v-374q0 -32 -17 -48q-15 -17 -48 -17h-374v81l300 -1l-414 413l59 59z" />
    <glyph glyph-name="uni2199" unicode="&#x2199;" horiz-adv-x="647" 
d="M234 80l300 1v-81h-374q-32 0 -48 17q-17 15 -17 48v374h81l-1 -300l413 414l59 -59z" />
    <glyph glyph-name="uni21A4" unicode="&#x21a4;" horiz-adv-x="904" 
d="M97 351q0 22 23 45l264 264l57 -57l-212 -212h503v209h81v-500h-81v209h-503l212 -212l-57 -57l-264 264q-23 23 -23 47z" />
    <glyph glyph-name="uni21A5" unicode="&#x21a5;" horiz-adv-x="735" 
d="M388 716q22 0 45 -23l264 -264l-57 -57l-212 212v-503h209v-81h-500v81h209v503l-212 -212l-57 57l264 264q23 23 47 23z" />
    <glyph glyph-name="uni21A6" unicode="&#x21a6;" horiz-adv-x="905" 
d="M849 350q0 -22 -23 -45l-264 -264l-57 57l212 212h-503v-209h-81v500h81v-209h503l-212 212l57 57l264 -264q23 -23 23 -47z" />
    <glyph glyph-name="uni21A7" unicode="&#x21a7;" horiz-adv-x="735" 
d="M412.5 -9.5q-12.5 -6.5 -24.5 -6.5q-22 0 -45 23l-264 264l57 57l212 -212v503h-209v81h500v-81h-209v-503l212 212l57 -57l-264 -264q-10 -10 -22.5 -16.5z" />
    <glyph glyph-name="uni21B0" unicode="&#x21b0;" horiz-adv-x="911" 
d="M729 309h-501l212 -212l-57 -57l-265 264q-22 22 -22 47q0 23 22 45l265 264l57 -57l-213 -212h585v-391h-83v309z" />
    <glyph glyph-name="uni21B1" unicode="&#x21b1;" horiz-adv-x="849" 
d="M79 391h585l-213 212l57 57l265 -264q22 -22 22 -45q0 -25 -22 -47l-265 -264l-57 57l212 212h-501v-309h-83v391z" />
    <glyph glyph-name="uni21B2" unicode="&#x21b2;" horiz-adv-x="847" 
d="M811 309h-585l213 -212l-57 -57l-265 264q-22 22 -22 45q0 25 22 47l265 264l57 -57l-212 -212h501v309h83v-391z" />
    <glyph glyph-name="uni21B3" unicode="&#x21b3;" horiz-adv-x="911" 
d="M224 391h501l-212 212l57 57l265 -264q22 -22 22 -47q0 -23 -22 -45l-265 -264l-57 57l213 212h-585v391h83v-309z" />
    <glyph glyph-name="partialdiff" unicode="&#x2202;" horiz-adv-x="592" 
d="M142.5 19q-44.5 29 -66 77t-21.5 106q0 22 3 44q16 109 83.5 174t168.5 65q55 0 98 -24t57 -61q2 28 2 40q0 94 -43 143t-121 49q-25 0 -53.5 -5.5t-49.5 -12.5l17 80q20 6 47.5 11t53.5 5q114 0 173 -78.5t59 -206.5q0 -98 -27.5 -197.5t-94 -168.5t-175.5 -69
q-66 0 -110.5 29zM363.5 101.5q39.5 33.5 58.5 82.5t19 96q0 60 -34 96t-88 36h-9q-66 0 -108.5 -45.5t-56.5 -125.5q-3 -18 -3 -38q0 -57 29.5 -96t87.5 -39h5q60 0 99.5 33.5z" />
    <glyph glyph-name="uni2206" unicode="&#x2206;" horiz-adv-x="737" 
d="M-2 40l411 660h110l130 -660l-9 -40h-651zM554 82l-104 534l-332 -534h436z" />
    <glyph glyph-name="product" unicode="&#x220f;" horiz-adv-x="733" 
d="M232 622h-101l16 78h628l-16 -78h-101l-132 -622h-86l132 622h-254l-132 -622h-86z" />
    <glyph glyph-name="summation" unicode="&#x2211;" horiz-adv-x="646" 
d="M25 93l297 279l-181 239l20 89h515l-18 -82h-412l191 -251l-303 -285h421l-18 -82h-532z" />
    <glyph glyph-name="minus" unicode="&#x2212;" horiz-adv-x="605" 
d="M65 297h494l-17 -79h-494z" />
    <glyph glyph-name="uni2215" unicode="&#x2215;" horiz-adv-x="357" 
d="M343 700h91l-379 -700h-92z" />
    <glyph glyph-name="uni2219" unicode="&#x2219;" horiz-adv-x="542" 
d="M137.5 286.5q-26.5 26.5 -26.5 63.5t26.5 63.5t63.5 26.5q38 0 64.5 -26.5t26.5 -63.5t-26.5 -63.5t-64.5 -26.5q-37 0 -63.5 26.5z" />
    <glyph glyph-name="radical" unicode="&#x221a;" horiz-adv-x="720" 
d="M107 500h84l47 -400l255 600h279l-16 -77h-210l-270 -623h-107z" />
    <glyph glyph-name="infinity" unicode="&#x221e;" horiz-adv-x="874" 
d="M174.5 193.5q-41.5 23.5 -65.5 67t-24 99.5q0 55 24 98.5t65.5 67.5t92.5 24q65 0 107 -32t87 -96q42 64 83.5 96t107.5 32q51 0 92.5 -24t65 -67.5t23.5 -98.5q0 -56 -23.5 -99.5t-65 -67t-92.5 -23.5q-67 0 -108.5 30.5t-82.5 92.5q-44 -63 -86 -93t-108 -30
q-51 0 -92.5 23.5zM343.5 273.5q29.5 28.5 64.5 86.5q-35 58 -64.5 86.5t-71.5 28.5h-5q-44 0 -71.5 -31.5t-27.5 -83.5q0 -54 27 -84.5t72 -30.5h5q42 0 71.5 28.5zM723.5 275.5q27.5 30.5 27.5 84.5t-27.5 84.5t-75.5 30.5h-5q-40 0 -69 -28.5t-64 -86.5q37 -60 65 -87.5
t68 -27.5h5q48 0 75.5 30.5z" />
    <glyph glyph-name="integral" unicode="&#x222b;" horiz-adv-x="452" 
d="M-19 -22h42q55 0 83 25t40 82l93 436q21 98 74.5 138.5t145.5 40.5h49l-17 -78h-41q-55 0 -83 -25t-40 -82l-93 -436q-21 -97 -75 -138t-145 -41h-49z" />
    <glyph glyph-name="approxequal" unicode="&#x2248;" horiz-adv-x="614" 
d="M379 288q-31 10 -73 27q-35 14 -54.5 20.5t-33.5 6.5q-26 0 -41 -15t-21 -39h-77l5 25q10 51 46.5 83t89.5 32q27 0 59 -10t76 -28q63 -26 84 -26q25 0 40 13t20 36h77l-5 -25q-10 -51 -44 -80.5t-92 -29.5q-25 0 -56 10zM339 98q-31 10 -73 27q-35 14 -54.5 20.5
t-33.5 6.5q-26 0 -41.5 -15t-20.5 -39h-77l5 25q10 50 46.5 82.5t89.5 32.5q27 0 59 -10t76 -28q63 -26 84 -26q48 0 60 49h77l-5 -25q-10 -52 -44 -81t-92 -29q-25 0 -56 10z" />
    <glyph glyph-name="notequal" unicode="&#x2260;" horiz-adv-x="619" 
d="M199 128h-163l17 78h187l53 102h-219l17 79h244l59 113h88l-59 -113h162l-17 -79h-187l-53 -102h219l-17 -78h-243l-59 -113h-88z" />
    <glyph glyph-name="lessequal" unicode="&#x2264;" horiz-adv-x="625" 
d="M68 274l19 92l525 144l-19 -89l-399 -104l355 -102l-18 -85zM32 97h494l-17 -79h-494z" />
    <glyph glyph-name="greaterequal" unicode="&#x2265;" horiz-adv-x="625" 
d="M61 219l400 104l-356 102l19 85l463 -144l-20 -92l-524 -144zM35 97h494l-17 -79h-494z" />
    <glyph glyph-name="angleleft" unicode="&#x2329;" horiz-adv-x="365" 
d="M48 350l320 435h97l-329 -447l132 -423h-84z" />
    <glyph glyph-name="angleright" unicode="&#x232a;" horiz-adv-x="365" 
d="M373 595l-320 -435h-97l329 447l-132 423h84z" />
    <glyph glyph-name="uni2460" unicode="&#x2460;" horiz-adv-x="914" 
d="M282.5 12.5q-89.5 52.5 -142 142.5t-52.5 195q0 106 52.5 195.5t142 142t195.5 52.5t195.5 -52.5t142 -142t52.5 -195.5q0 -105 -52.5 -195t-142 -142.5t-195.5 -52.5t-195.5 52.5zM639 70.5q74 43.5 117.5 117.5t43.5 162t-43.5 162t-117.5 117.5t-161 43.5
q-88 0 -162 -43.5t-117.5 -117.5t-43.5 -162t43.5 -162t117.5 -117.5t162 -43.5q87 0 161 43.5zM450 414h-85v47q44 2 68 25t34 65h50v-395h-67v258z" />
    <glyph glyph-name="uni2461" unicode="&#x2461;" horiz-adv-x="914" 
d="M282.5 12.5q-89.5 52.5 -142 142.5t-52.5 195q0 106 52.5 195.5t142 142t195.5 52.5t195.5 -52.5t142 -142t52.5 -195.5q0 -105 -52.5 -195t-142 -142.5t-195.5 -52.5t-195.5 52.5zM639 70.5q74 43.5 117.5 117.5t43.5 162t-43.5 162t-117.5 117.5t-161 43.5
q-88 0 -162 -43.5t-117.5 -117.5t-43.5 -162t43.5 -162t117.5 -117.5t162 -43.5q87 0 161 43.5zM342 232l132 112q40 35 54.5 54t14.5 43t-17 38.5t-44 14.5h-5q-25 0 -44 -16.5t-20 -44.5h-70q1 55 41 88.5t97 33.5t94.5 -30.5t37.5 -82.5q0 -41 -22 -70.5t-64 -64.5
l-110 -91h200v-61h-275v77z" />
    <glyph glyph-name="uni2462" unicode="&#x2462;" horiz-adv-x="914" 
d="M282.5 12.5q-89.5 52.5 -142 142.5t-52.5 195q0 106 52.5 195.5t142 142t195.5 52.5t195.5 -52.5t142 -142t52.5 -195.5q0 -105 -52.5 -195t-142 -142.5t-195.5 -52.5t-195.5 52.5zM639 70.5q74 43.5 117.5 117.5t43.5 162t-43.5 162t-117.5 117.5t-161 43.5
q-88 0 -162 -43.5t-117.5 -117.5t-43.5 -162t43.5 -162t117.5 -117.5t162 -43.5q87 0 161 43.5zM377 181q-40 31 -41 86h70q1 -26 20.5 -42t47.5 -16h5q30 0 49.5 16t19.5 44q0 26 -18 41t-46 15h-39v60h39q26 0 43.5 15t17.5 40q0 26 -18 41t-46 15h-5q-27 0 -44 -15
t-19 -39h-70q1 53 40 83t97 30q57 0 95.5 -28.5t38.5 -80.5q0 -31 -16.5 -55t-44.5 -35q27 -10 46.5 -34.5t19.5 -58.5q0 -54 -42 -83.5t-102 -29.5q-58 0 -98 31z" />
    <glyph glyph-name="uni2463" unicode="&#x2463;" horiz-adv-x="914" 
d="M282.5 12.5q-89.5 52.5 -142 142.5t-52.5 195q0 106 52.5 195.5t142 142t195.5 52.5t195.5 -52.5t142 -142t52.5 -195.5q0 -105 -52.5 -195t-142 -142.5t-195.5 -52.5t-195.5 52.5zM487 246h-186v61l180 243h73v-246h55v-58h-55v-91h-67v91zM487 304v164l-119 -164h119z
M639 70.5q74 43.5 117.5 117.5t43.5 162t-43.5 162t-117.5 117.5t-161 43.5q-88 0 -162 -43.5t-117.5 -117.5t-43.5 -162t43.5 -162t117.5 -117.5t162 -43.5q87 0 161 43.5z" />
    <glyph glyph-name="uni2464" unicode="&#x2464;" horiz-adv-x="914" 
d="M282.5 12.5q-89.5 52.5 -142 142.5t-52.5 195q0 106 52.5 195.5t142 142t195.5 52.5t195.5 -52.5t142 -142t52.5 -195.5q0 -105 -52.5 -195t-142 -142.5t-195.5 -52.5t-195.5 52.5zM639 70.5q74 43.5 117.5 117.5t43.5 162t-43.5 162t-117.5 117.5t-161 43.5
q-88 0 -162 -43.5t-117.5 -117.5t-43.5 -162t43.5 -162t117.5 -117.5t162 -43.5q87 0 161 43.5zM373 180q-39 30 -43 83h71q4 -26 22.5 -40t46.5 -14h4q30 0 50 20.5t20 53.5q0 30 -20 48.5t-49 18.5h-3q-38 0 -64 -34h-69l33 234h228v-59h-176l-15 -111q30 28 76 28
q56 0 92.5 -34.5t36.5 -88.5q0 -62 -40.5 -98.5t-102.5 -36.5q-59 0 -98 30z" />
    <glyph glyph-name="uni2465" unicode="&#x2465;" horiz-adv-x="914" 
d="M282.5 12.5q-89.5 52.5 -142 142.5t-52.5 195q0 106 52.5 195.5t142 142t195.5 52.5t195.5 -52.5t142 -142t52.5 -195.5q0 -105 -52.5 -195t-142 -142.5t-195.5 -52.5t-195.5 52.5zM639 70.5q74 43.5 117.5 117.5t43.5 162t-43.5 162t-117.5 117.5t-161 43.5
q-88 0 -162 -43.5t-117.5 -117.5t-43.5 -162t43.5 -162t117.5 -117.5t162 -43.5q87 0 161 43.5zM359.5 201q-40.5 51 -40.5 141q0 98 43 155.5t117 57.5q59 0 94.5 -33t39.5 -78h-69q-5 23 -22.5 37t-42.5 14h-6q-39 0 -62.5 -35t-27.5 -96q12 25 39.5 40.5t62.5 15.5
q55 0 93.5 -36t38.5 -95t-40 -99t-108 -40q-69 0 -109.5 51zM526.5 230.5q21.5 21.5 21.5 54.5q0 32 -21 54t-53 22h-3q-31 0 -53 -21.5t-22 -54.5t21 -54.5t52 -21.5h3q33 0 54.5 21.5z" />
    <glyph glyph-name="uni2466" unicode="&#x2466;" horiz-adv-x="914" 
d="M282.5 12.5q-89.5 52.5 -142 142.5t-52.5 195q0 106 52.5 195.5t142 142t195.5 52.5t195.5 -52.5t142 -142t52.5 -195.5q0 -105 -52.5 -195t-142 -142.5t-195.5 -52.5t-195.5 52.5zM639 70.5q74 43.5 117.5 117.5t43.5 162t-43.5 162t-117.5 117.5t-161 43.5
q-88 0 -162 -43.5t-117.5 -117.5t-43.5 -162t43.5 -162t117.5 -117.5t162 -43.5q87 0 161 43.5zM454 376.5q41 72.5 100 114.5h-207v59h273v-62q-58 -49 -97.5 -119.5t-39.5 -177.5v-36h-70v36q0 113 41 185.5z" />
    <glyph glyph-name="uni2467" unicode="&#x2467;" horiz-adv-x="913" 
d="M282 12.5q-90 52.5 -142.5 142t-52.5 195.5q0 105 53 194.5t142.5 142.5t194.5 53q106 0 195.5 -52.5t142 -142.5t52.5 -195q0 -106 -52.5 -195.5t-142 -142t-195.5 -52.5q-105 0 -195 52.5zM639 70.5q74 43.5 117.5 117.5t43.5 162t-43.5 162t-117.5 117.5t-162 43.5
t-162 -43.5t-117.5 -117.5t-43.5 -162t43.5 -162t117.5 -117.5t162 -43.5t162 43.5zM373.5 179.5q-40.5 29.5 -40.5 80.5q0 34 20.5 59.5t53.5 36.5q-29 12 -47 36.5t-18 56.5q0 51 40 78.5t97 27.5t96.5 -27.5t39.5 -78.5q0 -33 -19 -57t-50 -36q34 -11 55 -36.5t21 -59.5
q0 -51 -40 -80.5t-104 -29.5t-104.5 29.5zM532 223.5q21 14.5 21 41.5q0 26 -21.5 41t-50.5 15h-5q-31 0 -52.5 -15t-21.5 -41q0 -27 21 -41.5t52 -14.5h5q31 0 52 14.5zM527 399q19 16 19 41q0 26 -18.5 41t-46.5 15h-5q-27 0 -46 -15t-19 -41q0 -25 19 -41t46 -16h5
q27 0 46 16z" />
    <glyph glyph-name="uni2468" unicode="&#x2468;" horiz-adv-x="914" 
d="M282.5 12.5q-89.5 52.5 -142 142.5t-52.5 195q0 106 52.5 195.5t142 142t195.5 52.5t195.5 -52.5t142 -142t52.5 -195.5q0 -105 -52.5 -195t-142 -142.5t-195.5 -52.5t-195.5 52.5zM639 70.5q74 43.5 117.5 117.5t43.5 162t-43.5 162t-117.5 117.5t-161 43.5
q-88 0 -162 -43.5t-117.5 -117.5t-43.5 -162t43.5 -162t117.5 -117.5t162 -43.5q87 0 161 43.5zM376 183.5q-34 33.5 -37 77.5h69q5 -23 22 -37t42 -14h6q38 0 61 34.5t28 96.5q-12 -25 -41 -40.5t-64 -15.5q-54 0 -91.5 36t-37.5 95t39.5 99t106.5 40q70 0 111 -51t41 -140
q0 -99 -42 -156.5t-117 -57.5q-62 0 -96 33.5zM532 365.5q22 21.5 22 54.5t-21 54.5t-52 21.5h-3q-33 0 -54.5 -21.5t-21.5 -54.5q0 -32 21 -54t53 -22h3q31 0 53 21.5z" />
    <glyph glyph-name="uni24EA" unicode="&#x24ea;" horiz-adv-x="914" 
d="M282.5 12.5q-89.5 52.5 -142 142.5t-52.5 195q0 106 52.5 195.5t142 142t195.5 52.5t195.5 -52.5t142 -142t52.5 -195.5q0 -105 -52.5 -195t-142 -142.5t-195.5 -52.5t-195.5 52.5zM639 70.5q74 43.5 117.5 117.5t43.5 162t-43.5 162t-117.5 117.5t-161 43.5
q-88 0 -162 -43.5t-117.5 -117.5t-43.5 -162t43.5 -162t117.5 -117.5t162 -43.5q87 0 161 43.5zM358.5 204.5q-44.5 55.5 -44.5 147.5t44.5 147t121.5 55t122 -55t45 -147t-45 -147.5t-122 -55.5t-121.5 55.5zM552 251q25 43 25 101q0 57 -25 100t-70 43h-4
q-45 0 -69.5 -42.5t-24.5 -100.5t24.5 -101t69.5 -43h4q45 0 70 43z" />
    <glyph glyph-name="uni24FF" unicode="&#x24ff;" horiz-adv-x="914" 
d="M283.5 13q-89.5 53 -142.5 142.5t-53 194.5q0 106 52.5 195.5t142.5 142t195 52.5q106 0 195.5 -52.5t142 -142t52.5 -195.5q0 -105 -52.5 -195t-142 -142.5t-195.5 -52.5q-105 0 -194.5 53zM602 204.5q45 55.5 45 147.5t-45 147t-122 55t-121.5 -55t-44.5 -147
t44.5 -147.5t121.5 -55.5t122 55.5zM408.5 251q-24.5 43 -24.5 101t24.5 100.5t69.5 42.5h4q45 0 70 -43t25 -100q0 -58 -25 -101t-70 -43h-4q-45 0 -69.5 43z" />
    <glyph glyph-name="triagup" unicode="&#x25b2;" horiz-adv-x="890" 
d="M396 720l405 -720h-810z" />
    <glyph glyph-name="lozenge" unicode="&#x25ca;" horiz-adv-x="659" 
d="M71 350l237 350h90l231 -350l-231 -350h-90zM534 350l-181 272l-182 -272l182 -267z" />
    <glyph glyph-name="uni2776" unicode="&#x2776;" horiz-adv-x="914" 
d="M282.5 12.5q-89.5 52.5 -142 142.5t-52.5 195q0 106 52.5 195.5t142 142t195.5 52.5t195.5 -52.5t142 -142t52.5 -195.5q0 -105 -52.5 -195t-142 -142.5t-195.5 -52.5t-195.5 52.5zM517 156v395h-50q-10 -42 -34 -65t-68 -25v-47h85v-258h67z" />
    <glyph glyph-name="uni2777" unicode="&#x2777;" horiz-adv-x="914" 
d="M283.5 13q-89.5 53 -142.5 142.5t-53 194.5q0 106 52.5 195.5t142.5 142t195 52.5q106 0 195.5 -52.5t142 -142t52.5 -195.5q0 -105 -52.5 -195t-142 -142.5t-195.5 -52.5q-105 0 -194.5 53zM617 155v61h-200l110 91q42 35 64 64.5t22 70.5q0 52 -37.5 82.5t-94.5 30.5
t-97 -33.5t-41 -88.5h70q1 28 20 44.5t44 16.5h5q27 0 44 -14.5t17 -38.5t-14.5 -43t-54.5 -54l-132 -112v-77h275z" />
    <glyph glyph-name="uni2778" unicode="&#x2778;" horiz-adv-x="914" 
d="M282.5 12.5q-89.5 52.5 -142 142.5t-52.5 195q0 106 52.5 195.5t142 142t195.5 52.5t195.5 -52.5t142 -142t52.5 -195.5q0 -105 -52.5 -195t-142 -142.5t-195.5 -52.5t-195.5 52.5zM577 179.5q42 29.5 42 83.5q0 34 -19.5 58.5t-46.5 34.5q28 11 44.5 35t16.5 55
q0 52 -38.5 80.5t-95.5 28.5q-58 0 -97 -30t-40 -83h70q2 24 19 39t44 15h5q28 0 46 -15t18 -41q0 -25 -17.5 -40t-43.5 -15h-39v-60h39q28 0 46 -15t18 -41q0 -28 -19.5 -44t-49.5 -16h-5q-28 0 -47.5 16t-20.5 42h-70q1 -55 41 -86t98 -31q60 0 102 29.5z" />
    <glyph glyph-name="uni2779" unicode="&#x2779;" horiz-adv-x="914" 
d="M283.5 13q-89.5 53 -142.5 142.5t-53 194.5q0 106 52.5 195.5t142.5 142t195 52.5q106 0 195.5 -52.5t142 -142t52.5 -195.5q0 -105 -52.5 -195t-142 -142.5t-195.5 -52.5q-105 0 -194.5 53zM554 155v91h55v58h-55v246h-73l-180 -243v-61h186v-91h67zM487 468v-164h-119z
" />
    <glyph glyph-name="uni277A" unicode="&#x277a;" horiz-adv-x="914" 
d="M282.5 12.5q-89.5 52.5 -142 142.5t-52.5 195q0 106 52.5 195.5t142 142t195.5 52.5t195.5 -52.5t142 -142t52.5 -195.5q0 -105 -52.5 -195t-142 -142.5t-195.5 -52.5t-195.5 52.5zM573.5 186.5q40.5 36.5 40.5 98.5q0 54 -36.5 88.5t-92.5 34.5q-46 0 -76 -28l15 111
h176v59h-228l-33 -234h69q26 34 64 34h3q29 0 49 -18.5t20 -48.5q0 -33 -20 -53.5t-50 -20.5h-4q-28 0 -46.5 14t-22.5 40h-71q4 -53 43 -83t98 -30q62 0 102.5 36.5z" />
    <glyph glyph-name="uni277B" unicode="&#x277b;" horiz-adv-x="914" 
d="M282.5 12.5q-89.5 52.5 -142 142.5t-52.5 195q0 106 52.5 195.5t142 142t195.5 52.5t195.5 -52.5t142 -142t52.5 -195.5q0 -105 -52.5 -195t-142 -142.5t-195.5 -52.5t-195.5 52.5zM577 190q40 40 40 99t-38.5 95t-93.5 36q-35 0 -62.5 -15.5t-39.5 -40.5q4 61 27.5 96
t62.5 35h6q25 0 42.5 -14t22.5 -37h69q-4 45 -39.5 78t-94.5 33q-74 0 -117 -57.5t-43 -155.5q0 -90 40.5 -141t109.5 -51q68 0 108 40zM417 230.5q-21 21.5 -21 54.5t22 54.5t53 21.5h3q32 0 53 -22t21 -54q0 -33 -21.5 -54.5t-54.5 -21.5h-3q-31 0 -52 21.5z" />
    <glyph glyph-name="uni277C" unicode="&#x277c;" horiz-adv-x="914" 
d="M283.5 13q-89.5 53 -142.5 142.5t-53 194.5q0 106 52.5 195.5t142.5 142t195 52.5q106 0 195.5 -52.5t142 -142t52.5 -195.5q0 -105 -52.5 -195t-142 -142.5t-195.5 -52.5q-105 0 -194.5 53zM483 155v36q0 107 39.5 177.5t97.5 119.5v62h-273v-59h207
q-59 -42 -100 -114.5t-41 -185.5v-36h70z" />
    <glyph glyph-name="uni277D" unicode="&#x277d;" horiz-adv-x="913" 
d="M282 12.5q-90 52.5 -142.5 142t-52.5 195.5q0 105 53 194.5t142.5 142.5t194.5 53q106 0 195.5 -52.5t142 -142.5t52.5 -195q0 -106 -52.5 -195.5t-142 -142t-195.5 -52.5q-105 0 -195 52.5zM582 179.5q40 29.5 40 80.5q0 34 -21 59.5t-55 36.5q31 12 50 36t19 57
q0 51 -39.5 78.5t-96.5 27.5t-97 -27.5t-40 -78.5q0 -32 18 -56.5t47 -36.5q-33 -11 -53.5 -36.5t-20.5 -59.5q0 -51 40.5 -80.5t104.5 -29.5t104 29.5zM423 223.5q-21 14.5 -21 41.5q0 26 21.5 41t52.5 15h5q29 0 50.5 -15t21.5 -41q0 -27 -21 -41.5t-52 -14.5h-5
q-31 0 -52 14.5zM430 399q-19 16 -19 41q0 26 19 41t46 15h5q28 0 46.5 -15t18.5 -41q0 -25 -19 -41t-46 -16h-5q-27 0 -46 16z" />
    <glyph glyph-name="uni277E" unicode="&#x277e;" horiz-adv-x="914" 
d="M282.5 12.5q-89.5 52.5 -142 142.5t-52.5 195q0 106 52.5 195.5t142 142t195.5 52.5t195.5 -52.5t142 -142t52.5 -195.5q0 -105 -52.5 -195t-142 -142.5t-195.5 -52.5t-195.5 52.5zM589 207.5q42 57.5 42 156.5q0 89 -41 140t-111 51q-67 0 -106.5 -40t-39.5 -99
t37.5 -95t91.5 -36q35 0 64 15.5t41 40.5q-5 -62 -28 -96.5t-61 -34.5h-6q-25 0 -42 14t-22 37h-69q3 -44 37 -77.5t96 -33.5q75 0 117 57.5zM423 366q-21 22 -21 54q0 33 21.5 54.5t54.5 21.5h3q31 0 52 -21.5t21 -54.5t-22 -54.5t-53 -21.5h-3q-32 0 -53 22z" />
    <glyph glyph-name="uni300A" unicode="&#x300a;" horiz-adv-x="549" 
d="M244 350l320 435h95l-326 -444l131 -426h-84zM48 350l320 435h95l-326 -444l131 -426h-84z" />
    <glyph glyph-name="uni300B" unicode="&#x300b;" horiz-adv-x="567" 
d="M379 595l-320 -435h-95l326 444l-131 426h84zM575 595l-320 -435h-95l326 444l-131 426h84z" />
    <glyph glyph-name="uni300C" unicode="&#x300c;" horiz-adv-x="302" 
d="M196 845h214l-16 -75h-133l-81 -382h-81z" />
    <glyph glyph-name="uni300D" unicode="&#x300d;" horiz-adv-x="312" 
d="M154 -145h-214l16 75h133l81 382h81z" />
    <glyph glyph-name="uni300E" unicode="&#x300e;" horiz-adv-x="445" 
d="M198 845h341l-37 -176h-137l-74 -347h-205zM233 383l74 347h137l11 55h-200l-85 -402h63z" />
    <glyph glyph-name="uni300F" unicode="&#x300f;" horiz-adv-x="458" 
d="M294 -145h-341l37 176h137l74 347h205zM259 317l-74 -347h-137l-11 -55h200l85 402h-63z" />
    <glyph glyph-name="uni3010" unicode="&#x3010;" horiz-adv-x="370" 
d="M219 845h280q-156 -136 -235.5 -296.5t-79.5 -325.5q0 -98 25.5 -196.5t76.5 -171.5h-278z" />
    <glyph glyph-name="uni3011" unicode="&#x3011;" horiz-adv-x="370" 
d="M193 -144h-280q156 136 235.5 296.5t79.5 325.5q0 98 -25.5 196.5t-76.5 171.5h278z" />
    <glyph glyph-name="uni3014" unicode="&#x3014;" horiz-adv-x="314" 
d="M18 17l142 666l178 162h110l-209 -191l-133 -627l116 -172h-94z" />
    <glyph glyph-name="uni3015" unicode="&#x3015;" horiz-adv-x="315" 
d="M339 684l-142 -666l-178 -162h-110l209 191l133 627l-116 172h94z" />
    <glyph glyph-name="uniE000" unicode="&#xe000;" horiz-adv-x="577" 
d="M109 550h400v-400h-400v400zM434 225v250h-250v-250h250z" />
    <glyph glyph-name="uniE001" unicode="&#xe001;" horiz-adv-x="749" 
d="M120 625h550v-550h-550v550zM595 150v400h-400v-400h400z" />
    <glyph glyph-name="uniE002" unicode="&#xe002;" horiz-adv-x="912" 
d="M126 700h700v-700h-700v700zM751 75v550h-550v-550h550z" />
    <glyph glyph-name="uniE003" unicode="&#xe003;" horiz-adv-x="577" 
d="M109 550h400v-400h-400v400zM434 225v250h-250v-250h250zM259 400h100v-100h-100v100z" />
    <glyph glyph-name="uniE004" unicode="&#xe004;" horiz-adv-x="749" 
d="M120 625h550v-550h-550v550zM595 150v400h-400v-400h400zM270 475h250v-250h-250v250zM445 300v100h-100v-100h100z" />
    <glyph glyph-name="uniE005" unicode="&#xe005;" horiz-adv-x="912" 
d="M126 700h700v-700h-700v700zM751 75v550h-550v-550h550zM276 550h400v-400h-400v400zM601 225v250h-250v-250h250zM426 400h100v-100h-100v100z" />
    <glyph glyph-name="uniE006" unicode="&#xe006;" horiz-adv-x="577" 
d="M109 550h400v-400h-400v400z" />
    <glyph glyph-name="uniE007" unicode="&#xe007;" horiz-adv-x="749" 
d="M120 625h550v-550h-550v550z" />
    <glyph glyph-name="uniE008" unicode="&#xe008;" horiz-adv-x="912" 
d="M126 700h700v-700h-700v700z" />
    <glyph glyph-name="uniE00A" unicode="&#xe00a;" horiz-adv-x="369" 
d="M80.5 -113q-32.5 32 -32.5 80q0 32 15 60t43 47q-61 26 -61 89q0 17 5 44l71 334q10 45 34.5 71.5t72.5 31.5q-25 30 -25 66q0 40 21 70.5t55 47.5t72 17h112l-16 -75h-90q-30 0 -48.5 -17t-18.5 -47q0 -22 14 -35.5t36 -13.5h25l-16 -75h-59q-42 0 -60.5 -14t-26.5 -52
l-67 -315q-2 -7 -2 -21q0 -28 16.5 -45t44.5 -17h60l-17 -75h-35q-30 0 -48.5 -17t-18.5 -45q0 -22 14 -36.5t41 -14.5h82l-17 -75h-93q-50 0 -82.5 32z" />
    <glyph glyph-name="uniE00B" unicode="&#xe00b;" horiz-adv-x="369" 
d="M329.5 813q32.5 -32 32.5 -80q0 -32 -15 -60t-43 -47q61 -26 61 -89q0 -17 -5 -44l-71 -334q-10 -45 -34.5 -71.5t-72.5 -31.5q25 -30 25 -66q0 -40 -21 -70.5t-55 -47.5t-72 -17h-112l16 75h90q30 0 48.5 17t18.5 47q0 22 -14 35.5t-36 13.5h-25l16 75h59q42 0 60.5 14
t26.5 52l67 315q2 7 2 21q0 28 -16.5 45t-44.5 17h-60l17 75h35q30 0 48.5 17t18.5 45q0 22 -14 36.5t-41 14.5h-82l17 75h93q50 0 82.5 -32z" />
    <glyph glyph-name="uniE010" unicode="&#xe010;" horiz-adv-x="596" 
d="M199 142.5q-55 32.5 -87.5 87.5t-32.5 120t32.5 120t87.5 87.5t120 32.5t120 -32.5t87.5 -87.5t32.5 -120t-32.5 -120t-87.5 -87.5t-120 -32.5t-120 32.5zM402 207q38 22 60 60t22 83t-22 83t-60 60t-83 22t-83 -22t-60 -60t-22 -83t22 -83t60 -60t83 -22t83 22z" />
    <glyph glyph-name="uniE011" unicode="&#xe011;" horiz-adv-x="741" 
d="M233.5 77.5q-72.5 42.5 -115 115t-42.5 157.5t42.5 157.5t115 115t157.5 42.5t157.5 -42.5t115 -115t42.5 -157.5t-42.5 -157.5t-115 -115t-157.5 -42.5t-157.5 42.5zM511 142.5q55 32.5 87.5 87.5t32.5 120t-32.5 120t-87.5 87.5t-120 32.5t-120 -32.5t-87.5 -87.5
t-32.5 -120t32.5 -120t87.5 -87.5t120 -32.5t120 32.5z" />
    <glyph glyph-name="uniE012" unicode="&#xe012;" horiz-adv-x="887" 
d="M269.5 13q-89.5 53 -142.5 142.5t-53 194.5q0 106 52.5 195.5t142.5 142t195 52.5q106 0 195.5 -52.5t142 -142t52.5 -195.5q0 -105 -52.5 -195t-142 -142.5t-195.5 -52.5q-105 0 -194.5 53zM621.5 77.5q72.5 42.5 115 115t42.5 157.5t-42.5 157.5t-115 115t-157.5 42.5
t-157.5 -42.5t-115 -115t-42.5 -157.5t42.5 -157.5t115 -115t157.5 -42.5t157.5 42.5z" />
    <glyph glyph-name="uniE013" unicode="&#xe013;" horiz-adv-x="596" 
d="M199 142.5q-55 32.5 -87.5 87.5t-32.5 120t32.5 120t87.5 87.5t120 32.5t120 -32.5t87.5 -87.5t32.5 -120t-32.5 -120t-87.5 -87.5t-120 -32.5t-120 32.5zM402 207q38 22 60 60t22 83t-22 83t-60 60t-83 22t-83 -22t-60 -60t-22 -83t22 -83t60 -60t83 -22t83 22z
M255.5 286.5q-26.5 26.5 -26.5 63.5t26.5 63.5t63.5 26.5q38 0 64 -26t26 -64q0 -37 -26.5 -63.5t-63.5 -26.5t-63.5 26.5z" />
    <glyph glyph-name="uniE014" unicode="&#xe014;" horiz-adv-x="741" 
d="M233.5 77.5q-72.5 42.5 -115 115t-42.5 157.5t42.5 157.5t115 115t157.5 42.5t157.5 -42.5t115 -115t42.5 -157.5t-42.5 -157.5t-115 -115t-157.5 -42.5t-157.5 42.5zM511 142.5q55 32.5 87.5 87.5t32.5 120t-32.5 120t-87.5 87.5t-120 32.5t-120 -32.5t-87.5 -87.5
t-32.5 -120t32.5 -120t87.5 -87.5t120 -32.5t120 32.5zM308 207q-38 22 -60 60t-22 83t22 83t60 60t83 22t83 -22t60 -60t22 -83t-22 -83t-60 -60t-83 -22t-83 22zM454.5 286.5q26.5 26.5 26.5 63.5q0 38 -26 64t-64 26q-37 0 -63.5 -26.5t-26.5 -63.5t26.5 -63.5
t63.5 -26.5t63.5 26.5z" />
    <glyph glyph-name="uniE015" unicode="&#xe015;" horiz-adv-x="887" 
d="M269.5 13q-89.5 53 -142.5 142.5t-53 194.5q0 106 52.5 195.5t142.5 142t195 52.5q106 0 195.5 -52.5t142 -142t52.5 -195.5q0 -105 -52.5 -195t-142 -142.5t-195.5 -52.5q-105 0 -194.5 53zM621.5 77.5q72.5 42.5 115 115t42.5 157.5t-42.5 157.5t-115 115t-157.5 42.5
t-157.5 -42.5t-115 -115t-42.5 -157.5t42.5 -157.5t115 -115t157.5 -42.5t157.5 42.5zM344 142.5q-55 32.5 -87.5 87.5t-32.5 120t32.5 120t87.5 87.5t120 32.5t120 -32.5t87.5 -87.5t32.5 -120t-32.5 -120t-87.5 -87.5t-120 -32.5t-120 32.5zM547 207q38 22 60 60t22 83
t-22 83t-60 60t-83 22t-83 -22t-60 -60t-22 -83t22 -83t60 -60t83 -22t83 22zM400.5 286.5q-26.5 26.5 -26.5 63.5t26.5 63.5t63.5 26.5q38 0 64 -26t26 -64q0 -37 -26.5 -63.5t-63.5 -26.5t-63.5 26.5z" />
    <glyph glyph-name="uniE016" unicode="&#xe016;" horiz-adv-x="596" 
d="M199 142.5q-55 32.5 -87.5 87.5t-32.5 120t32.5 120t87.5 87.5t120 32.5t120 -32.5t87.5 -87.5t32.5 -120t-32.5 -120t-87.5 -87.5t-120 -32.5t-120 32.5z" />
    <glyph glyph-name="uniE017" unicode="&#xe017;" horiz-adv-x="710" 
d="M226 90.5q-69 40.5 -109.5 109.5t-40.5 150t40.5 150t109.5 109.5t150 40.5t150 -40.5t109.5 -109.5t40.5 -150t-40.5 -150t-109.5 -109.5t-150 -40.5t-150 40.5z" />
    <glyph glyph-name="uniE018" unicode="&#xe018;" horiz-adv-x="828" 
d="M254 38.5q-83 48.5 -131.5 131.5t-48.5 180t48.5 180t131.5 131.5t180 48.5t180 -48.5t131.5 -131.5t48.5 -180t-48.5 -180t-131.5 -131.5t-180 -48.5t-180 48.5z" />
    <glyph glyph-name="uniF8FF" unicode="&#xf8ff;" horiz-adv-x="619" 
d="M171 24q-60 35 -95 95t-35 131t35 131t95 95t131 35t131 -35t95 -95t35 -131t-35 -131t-95 -95t-131 -35t-131 35z" />
    <glyph glyph-name="I_S_B_N" horiz-adv-x="2269" 
d="M187 700h90l-131 -618h415q56 0 95 17.5t59 45.5t20 61q0 79 -104 101l-94 20q-62 13 -101.5 58.5t-39.5 114.5q0 56 29.5 101.5t85 72t132.5 26.5h692q92 0 148 -43.5t56 -124.5q0 -68 -42.5 -118t-109.5 -66q46 -17 72 -54.5t26 -87.5q0 -55 -28 -102.5t-78.5 -75.5
t-113.5 -28h-343l84 396h305q58 0 98 34.5t40 90.5q0 50 -31.5 73.5t-96.5 23.5h-661q-81 0 -127 -28.5t-46 -82.5q0 -37 25 -63t67 -35l94 -20q64 -13 109 -57.5t45 -110.5q0 -58 -26.5 -108t-84.5 -81.5t-149 -31.5h-529zM1354 114.5q41 32.5 41 99.5q0 47 -29.5 73.5
t-85.5 26.5h-202l-49 -232h228q56 0 97 32.5zM1805.5 649.5q75.5 60.5 201.5 60.5q107 0 163.5 -57.5t56.5 -156.5q0 -39 -9 -83l-88 -413h-90l90 422q8 35 8 71q0 135 -145 135h-2q-83 0 -132 -43.5t-68 -130.5l-97 -454h-90l102 477q24 112 99.5 172.5z" />
    <glyph glyph-name="i.loclTRK" horiz-adv-x="240" 
d="M130 500h85l-106 -500h-85zM163.5 607.5q-14.5 14.5 -14.5 35.5q0 25 17.5 43t42.5 18q22 0 36.5 -14.5t14.5 -35.5q0 -25 -18 -43t-42 -18q-22 0 -36.5 14.5z" />
    <glyph glyph-name="a.sups" horiz-adv-x="326" 
d="M104.5 430q-24.5 21 -24.5 56q0 47 32.5 74t87.5 27h88l2 8q1 8 2 15q0 20 -15 30t-39 10h-2q-47 0 -61 -36h-65q12 41 46 66t86 25t82.5 -26t30.5 -69q0 -12 -3 -26l-23 -106q-5 -24 -9 -63h-62v7l2 22q-16 -16 -39.5 -25.5t-50.5 -9.5q-41 0 -65.5 21zM244.5 480.5
q24.5 17.5 31.5 50.5l1 7h-73q-29 0 -44 -11.5t-15 -31.5q0 -14 11.5 -23t31.5 -9h2q30 0 54.5 17.5z" />
    <glyph glyph-name="b.sups" horiz-adv-x="359" 
d="M193 423.5q-24 13.5 -36 33.5l-9 -42h-67l84 395h69l-29 -135q26 28 78 28q50 0 82 -32.5t32 -87.5q0 -19 -2 -29q-10 -66 -50 -105t-96 -39q-32 0 -56 13.5zM304 497.5q26 32.5 26 81.5q0 32 -17 50.5t-45 18.5h-3q-31 0 -55.5 -24.5t-31.5 -65.5q-1 -6 -1 -19
q0 -33 17.5 -53.5t44.5 -20.5h4q35 0 61 32.5z" />
    <glyph glyph-name="c.sups" horiz-adv-x="322" 
d="M126.5 446q-33.5 36 -33.5 93q0 45 19 83t53.5 60.5t79.5 22.5q53 0 86 -29.5t34 -75.5h-67q-2 21 -17 35.5t-39 14.5h-1q-37 0 -59.5 -31.5t-22.5 -76.5q0 -34 16.5 -55t45.5 -21h1q24 0 42 14.5t24 36.5h69q-12 -49 -49 -78t-90 -29q-58 0 -91.5 36z" />
    <glyph glyph-name="d.sups" horiz-adv-x="361" 
d="M122.5 442.5q-29.5 32.5 -29.5 87.5q0 10 2 30q10 65 50 104t96 39q32 0 55.5 -12.5t35.5 -31.5l32 151h68l-84 -394h-67l6 28q-15 -15 -37 -24.5t-48 -9.5q-50 0 -79.5 32.5zM286.5 497.5q26.5 31.5 26.5 79.5q0 33 -17.5 52t-45.5 19h-3q-31 0 -55 -24.5t-31 -66.5
q-1 -7 -1 -19q0 -33 17 -52.5t45 -19.5h3q35 0 61.5 31.5z" />
    <glyph glyph-name="e.sups" horiz-adv-x="328" 
d="M127.5 443.5q-34.5 34.5 -34.5 92.5q0 49 20 87.5t54.5 60t75.5 21.5q55 0 86 -30t36 -74q2 -16 2 -23q0 -19 -6 -39h-203q-2 -34 15 -54t45 -20h3q21 0 37.5 10.5t24.5 28.5h69q-15 -44 -51 -69.5t-86 -25.5q-53 0 -87.5 34.5zM283 634.5q-15 15.5 -41 15.5h-3
q-25 0 -44.5 -15t-27.5 -44h132q-1 28 -16 43.5z" />
    <glyph glyph-name="f.sups" horiz-adv-x="237" 
d="M165 643h-60l13 57h59l9 40q7 34 27 52t62 18h73l-12 -56h-54q-16 0 -24 -7.5t-11 -23.5l-5 -23h69l-13 -57h-67l-48 -228h-66z" />
    <glyph glyph-name="g.sups" horiz-adv-x="357" 
d="M96 320.5q-34 25.5 -33 67.5h68q0 -19 16.5 -29t44.5 -10h5q32 0 53 18.5t28 55.5l6 29q-32 -34 -82 -34q-46 0 -77 30.5t-31 87.5q0 16 3 35q11 64 49 99t90 35q32 0 56 -12.5t37 -34.5l9 42h67l-61 -282q-12 -57 -47.5 -90t-106.5 -33q-60 0 -94 25.5zM284 503
q25 30 25 78q0 32 -17 51t-43 19h-4q-30 0 -52.5 -22.5t-29.5 -66.5l-2 -20q0 -34 17.5 -51.5t43.5 -17.5h4q33 0 58 30z" />
    <glyph glyph-name="h.sups" horiz-adv-x="345" 
d="M165 810h67l-29 -137q28 30 77 30q42 0 68.5 -23.5t26.5 -67.5q0 -18 -4 -35l-34 -162h-68l33 157q3 14 3 25q0 49 -49 49h-1q-27 0 -46.5 -21t-27.5 -56l-32 -154h-68z" />
    <glyph glyph-name="i.sups" horiz-adv-x="163" 
d="M142 700h69l-61 -285h-68zM162 750.5q-10 10.5 -10 26.5q0 19 14 32.5t32 13.5q16 0 26.5 -11t10.5 -26q0 -19 -13.5 -32.5t-32.5 -13.5q-17 0 -27 10.5z" />
    <glyph glyph-name="j.sups" horiz-adv-x="163" 
d="M-20 362h62q29 0 36 30l64 308h68l-66 -313q-17 -83 -95 -83h-81zM162 750.5q-10 10.5 -10 26.5q0 19 13.5 32.5t31.5 13.5q16 0 27 -11t11 -26q0 -19 -14 -32.5t-32 -13.5q-17 0 -27 10.5z" />
    <glyph glyph-name="k.sups" horiz-adv-x="320" 
d="M165 810h67l-46 -216l129 106h87l-135 -112l80 -173h-75l-58 128l-46 -37l-20 -91h-67z" />
    <glyph glyph-name="l.sups" horiz-adv-x="161" 
d="M165 810h67l-84 -395h-67z" />
    <glyph glyph-name="m.sups" horiz-adv-x="531" 
d="M142 700h68l-7 -27q30 33 77 33q30 0 51.5 -12t32.5 -36q38 48 96 48q43 0 72 -25.5t29 -70.5q0 -9 -4 -33l-34 -162h-68l33 157q3 15 3 26q0 50 -48 50h-1q-27 0 -46 -21t-27 -57l-33 -155h-68l33 157q3 15 3 26q0 50 -48 50h-1q-27 0 -46 -21.5t-27 -57.5l-33 -154h-68
z" />
    <glyph glyph-name="n.sups" horiz-adv-x="345" 
d="M142 700h68l-7 -27q30 33 77 33q42 0 68.5 -24.5t26.5 -69.5q0 -18 -4 -35l-34 -162h-68l33 157q3 14 3 26q0 24 -13 36.5t-36 12.5h-1q-27 0 -46 -21t-27 -57l-33 -154h-68z" />
    <glyph glyph-name="o.sups" horiz-adv-x="342" 
d="M129.5 446.5q-36.5 36.5 -36.5 92.5q0 12 1 19q7 66 50.5 106.5t105.5 40.5q56 0 92.5 -35.5t36.5 -90.5q0 -14 -1 -21q-8 -67 -51 -107.5t-105 -40.5q-56 0 -92.5 36.5zM283.5 491q22.5 25 27.5 67q1 6 1 17q0 34 -18 54t-48 20h-3q-35 0 -59 -30t-24 -78
q0 -34 18 -54.5t48 -20.5h2q33 0 55.5 25z" />
    <glyph glyph-name="p.sups" horiz-adv-x="361" 
d="M142 700h68l-6 -29q14 15 35 24.5t45 9.5q51 0 82.5 -33.5t31.5 -88.5q0 -20 -2 -30q-10 -65 -50 -103t-96 -38q-32 0 -56 12.5t-35 31.5l-32 -151h-68zM305.5 499q25.5 31 25.5 80q0 33 -17 51.5t-45 18.5h-3q-31 0 -55.5 -25t-31.5 -66q-1 -6 -1 -18q0 -33 17.5 -52.5
t44.5 -19.5h4q36 0 61.5 31z" />
    <glyph glyph-name="q.sups" horiz-adv-x="361" 
d="M250.5 420.5q-22.5 -8.5 -48.5 -8.5q-49 0 -79 31.5t-30 86.5q0 20 2 31q10 66 50 105t96 39q32 0 56 -13t35 -33l9 41h67l-83 -395h-67l29 138q-14 -14 -36.5 -22.5zM286.5 499q26.5 31 26.5 80q0 32 -17.5 51t-45.5 19h-3q-31 0 -55 -24.5t-31 -66.5q-1 -7 -1 -19
q0 -33 16.5 -52t45.5 -19h3q35 0 61.5 31z" />
    <glyph glyph-name="r.sups" horiz-adv-x="233" 
d="M142 700h66l-8 -46q14 23 38.5 36t56.5 13h16l-14 -63h-20q-39 0 -65 -25.5t-35 -70.5l-28 -129h-68z" />
    <glyph glyph-name="s.sups" horiz-adv-x="301" 
d="M112 437q-33 26 -33 69h69q0 -22 16 -32t40 -10h2q23 0 37.5 9t14.5 24q0 11 -8 17.5t-24 10.5l-43 10q-74 17 -74 76q0 43 35 68.5t84 25.5q50 0 82.5 -25t33.5 -70h-66q0 19 -13.5 30.5t-38.5 11.5h-3q-22 0 -34.5 -9.5t-12.5 -24.5q0 -11 8.5 -17t26.5 -11l40 -10
q35 -9 55 -26t20 -49q0 -46 -35.5 -70t-90.5 -24t-88 26z" />
    <glyph glyph-name="t.sups" horiz-adv-x="241" 
d="M143.5 430.5q-19.5 15.5 -19.5 43.5q0 12 3 24l30 146h-60l12 56h60l19 91h68l-19 -91h65l-12 -56h-65l-30 -140l-2 -14q0 -10 6 -14t20 -4h42l-12 -57h-51q-35 0 -54.5 15.5z" />
    <glyph glyph-name="u.sups" horiz-adv-x="340" 
d="M122 433.5q-23 23.5 -23 63.5q0 18 4 34l36 169h68l-35 -166q-3 -13 -3 -25q0 -41 40 -41h1q28 0 50 23t32 70l29 139h67l-61 -284h-67l7 30q-34 -36 -83 -36q-39 0 -62 23.5z" />
    <glyph glyph-name="v.sups" horiz-adv-x="320" 
d="M106 700h67l30 -231l125 231h73l-161 -285h-93z" />
    <glyph glyph-name="w.sups" horiz-adv-x="457" 
d="M105 700h66l14 -218l98 218h71l10 -217l101 217h70l-144 -285h-76l-10 208l-96 -208h-76z" />
    <glyph glyph-name="x.sups" horiz-adv-x="303" 
d="M181 559l-70 141h69l45 -88l82 88h76l-130 -140l73 -145h-70l-47 92l-86 -92h-75z" />
    <glyph glyph-name="y.sups" horiz-adv-x="323" 
d="M47 361h51q17 0 27.5 5.5t19.5 20.5l29 48l-72 265h71l47 -188l112 188h76l-203 -335q-23 -37 -45 -50.5t-57 -13.5h-68z" />
    <glyph glyph-name="z.sups" horiz-adv-x="300" 
d="M75 469l183 172h-144l13 59h232l-11 -54l-182 -172h155l-13 -59h-244z" />
    <glyph glyph-name="zero.zero" horiz-adv-x="662" 
d="M179.5 24.5q-52.5 34.5 -81 98t-28.5 147.5q0 95 33.5 196.5t107.5 172.5t189 71q71 0 124 -34.5t81.5 -97.5t28.5 -147q0 -95 -33.5 -197t-108 -173t-188.5 -71q-72 0 -124.5 34.5zM431.5 116.5q52.5 48.5 83.5 131.5t31 181q0 35 -7 66l-342 -369q40 -58 109 -58h10
q63 0 115.5 48.5zM164 207l342 369q-40 56 -108 56h-10q-63 0 -115.5 -48.5t-83.5 -131t-31 -181.5q0 -34 6 -64z" />
    <glyph glyph-name="zero.osf" horiz-adv-x="610" 
d="M162.5 22q-54.5 32 -84 86.5t-29.5 118.5q0 77 35.5 142t98.5 103t141 38q69 0 123 -32t83.5 -87.5t29.5 -122.5q0 -76 -35 -139.5t-97 -101t-141 -37.5q-70 0 -124.5 32zM387 88.5q41 26.5 64.5 73.5t23.5 107q0 76 -42 122.5t-113 46.5q-53 0 -95.5 -27t-66.5 -75
t-24 -108q0 -77 43 -121.5t116 -44.5h1q52 0 93 26.5z" />
    <glyph glyph-name="one.osf" horiz-adv-x="315" 
d="M162 317h-120l13 62q57 0 98 31.5t63 89.5h67l-106 -500h-83z" />
    <glyph glyph-name="two.osf" horiz-adv-x="466" 
d="M23 96l247 176q39 28 55 49t16 49q0 29 -21.5 48.5t-57.5 19.5h-8q-36 0 -63 -26.5t-33 -68.5h-85q9 70 55 118.5t134 48.5q74 0 119 -37.5t45 -98.5q0 -48 -27 -84.5t-77 -72.5l-204 -143h273l-17 -74h-372z" />
    <glyph glyph-name="three.osf" horiz-adv-x="556" 
d="M86 -186.5q-53 23.5 -82.5 67t-29.5 100.5h86q0 -50 42 -84.5t108 -34.5q45 0 80.5 18.5t55 50t19.5 69.5q0 54 -35.5 86.5t-99.5 32.5h-35l16 72h64q60 0 103.5 34.5t43.5 93.5q0 56 -36 87.5t-95 31.5q-57 0 -96.5 -33t-48.5 -88h-86q5 51 35 95t82.5 71t122.5 27
q60 0 107 -23.5t73.5 -65.5t26.5 -96q0 -70 -43 -117.5t-106 -64.5q41 -21 66.5 -59t25.5 -90q0 -55 -30 -102t-85.5 -74.5t-128.5 -27.5q-67 0 -120 23.5z" />
    <glyph glyph-name="four.osf" horiz-adv-x="586" 
d="M320 0h-343l20 95l399 405h113l-91 -426h111l-15 -74h-111l-43 -200h-83zM335 74l71 329l-322 -329h251z" />
    <glyph glyph-name="five.osf" horiz-adv-x="555" 
d="M93 -187.5q-51 22.5 -80 66t-29 104.5h82q1 -58 38.5 -89.5t97.5 -31.5h10q48 0 87 23t61.5 64.5t22.5 93.5q0 57 -36 92.5t-96 35.5h-10q-41 0 -80 -22t-66 -62h-77l142 413h378l-15 -75h-311l-76 -218q55 38 126 38q62 0 109 -26t72 -71t25 -101q0 -16 -1 -24
q-7 -70 -42 -123t-91.5 -81.5t-125.5 -28.5q-64 0 -115 22.5z" />
    <glyph glyph-name="six.osf" horiz-adv-x="612" 
d="M131 68q-63 78 -63 212q0 105 39.5 204.5t115 162.5t177.5 63q91 0 151 -49t68 -129h-85q-7 46 -44.5 74t-95.5 28t-106.5 -34.5t-81 -94t-45.5 -133.5q29 43 75 65.5t98 22.5q62 0 112.5 -27t79.5 -76.5t29 -114.5q0 -67 -30.5 -124.5t-86.5 -92.5t-130 -35
q-114 0 -177 78zM391 88q36 22 57.5 61t21.5 88q0 64 -40 106t-102 42h-9q-44 0 -81.5 -21.5t-59.5 -59t-22 -82.5q0 -42 19.5 -78t53 -57t74.5 -21h10q42 0 78 22z" />
    <glyph glyph-name="seven.osf" horiz-adv-x="515" 
d="M141.5 83.5q42.5 116.5 116 207.5t171.5 135h-376l16 74h480l-18 -87q-161 -67 -250 -219.5t-108 -370.5l-2 -23h-86l4 44q10 123 52.5 239.5z" />
    <glyph glyph-name="eight.osf" horiz-adv-x="567" 
d="M146 14q-50 24 -78 66t-28 95q0 69 47 123.5t122 70.5q-39 21 -62 59t-23 86q0 54 30.5 99t83 71t116.5 26q59 0 105 -23t71.5 -63t25.5 -91q0 -70 -41.5 -119.5t-111.5 -67.5q45 -21 70.5 -60.5t25.5 -91.5q0 -56 -30.5 -103t-85.5 -74t-124 -27q-63 0 -113 24z
M370 104.5q42 37.5 42 98.5q0 51 -37.5 82.5t-90.5 31.5h-10q-38 0 -72 -16t-55 -46.5t-21 -70.5q0 -54 37 -85.5t94 -31.5h8q63 0 105 37.5zM430 432q39 37 39 92q0 46 -32.5 77.5t-83.5 31.5h-10q-57 0 -95 -37.5t-38 -93.5q0 -47 32.5 -77t83.5 -30h8q57 0 96 37z" />
    <glyph glyph-name="nine.osf" horiz-adv-x="608" 
d="M480 432q63 -78 63 -212q0 -105 -39.5 -204.5t-115 -162.5t-177.5 -63q-91 0 -151 49t-68 129h85q7 -46 44.5 -74t95.5 -28t106.5 34.5t81 94t45.5 133.5q-29 -43 -75 -65.5t-98 -22.5q-62 0 -112.5 27t-79.5 76.5t-29 114.5q0 67 30.5 124.5t86.5 92.5t130 35
q114 0 177 -78zM220 412q-36 -22 -57.5 -61t-21.5 -88q0 -64 40 -106t102 -42h9q44 0 81.5 21.5t59.5 59t22 82.5q0 42 -19.5 78t-53 57t-74.5 21h-10q-42 0 -78 -22z" />
    <glyph glyph-name="zero.tf" 
d="M109 66.5q-60 76.5 -60 208.5q0 92 34 193t105.5 171.5t175.5 70.5q109 0 169 -76.5t60 -208.5q0 -92 -34 -193t-104.5 -171.5t-175.5 -70.5q-110 0 -170 76.5zM398.5 119q50.5 51 78.5 133t28 169q0 91 -36.5 151t-106.5 60q-66 0 -117.5 -51t-79.5 -132t-28 -168
q0 -94 36 -153.5t110 -59.5q65 0 115.5 51z" />
    <glyph glyph-name="one.tf" 
d="M21 82h213l88 416h-159l13 61q155 0 208 141h67l-131 -618h204l-17 -82h-504z" />
    <glyph glyph-name="two.tf" 
d="M48 93l288 228q76 60 110.5 104.5t34.5 95.5q0 49 -34.5 80t-91.5 31h-10q-57 0 -97.5 -39.5t-44.5 -99.5h-87q2 61 32.5 110.5t83.5 78t119 28.5q67 0 116.5 -24.5t76 -66t26.5 -92.5q0 -76 -42 -134t-132 -128l-232 -183h349l-16 -82h-469z" />
    <glyph glyph-name="three.tf" 
d="M102 41.5q-61 51.5 -62 139.5h87q4 -54 40 -83.5t95 -29.5h9q68 0 113 37t45 100q0 52 -39 82t-99 30h-32l17 78h60q66 0 108.5 35.5t42.5 92.5q0 50 -35 79.5t-90 29.5h-10q-55 0 -94.5 -32.5t-46.5 -82.5h-86q5 55 37.5 99t85 69t116.5 25q59 0 107 -22t75.5 -62.5
t27.5 -94.5q0 -68 -39 -117t-105 -68q39 -19 63 -56t24 -87q0 -64 -32 -112.5t-89 -74.5t-129 -26q-104 0 -165 51.5z" />
    <glyph glyph-name="four.tf" 
d="M360 162h-340l18 86l424 452h96l-98 -460h101l-16 -78h-101l-35 -162h-84zM376 240l71 335l-317 -335h246z" />
    <glyph glyph-name="five.tf" 
d="M120 41q-64 51 -68 142h88q6 -54 43 -84.5t93 -30.5h10q48 0 85 22.5t58 61.5t21 87q0 59 -37.5 95.5t-96.5 36.5h-10q-43 0 -83.5 -23t-61.5 -60h-89l145 412h382l-17 -82h-315l-77 -219q53 48 138 48q63 0 110.5 -26t74 -72.5t26.5 -105.5q0 -76 -33.5 -133t-92 -88.5
t-132.5 -31.5q-97 0 -161 51z" />
    <glyph glyph-name="six.tf" 
d="M124 57.5q-63 67.5 -63 195.5q0 62 14 128q30 143 107.5 236t199.5 93q57 0 105.5 -22t78.5 -62.5t35 -93.5h-90q-8 44 -44 71.5t-85 27.5h-8q-77 0 -130 -68t-82 -187q33 41 80 62.5t98 21.5q59 0 106.5 -25.5t74.5 -72t27 -106.5q0 -18 -1 -27q-7 -72 -43 -126
t-92.5 -83.5t-122.5 -29.5q-102 0 -165 67.5zM375.5 91.5q37.5 22.5 60.5 62.5t23 90q0 61 -37 99.5t-94 38.5h-9q-43 0 -81 -23t-61 -63.5t-23 -90.5q0 -61 37.5 -98.5t94.5 -37.5h9q43 0 80.5 22.5z" />
    <glyph glyph-name="seven.tf" 
d="M264.5 400.5q89.5 147.5 234.5 217.5h-364l16 82h490l-19 -87q-172 -72 -265 -210t-114 -380l-2 -23h-89l4 44q19 209 108.5 356.5z" />
    <glyph glyph-name="eight.tf" 
d="M152 14q-51 24 -78.5 66.5t-27.5 98.5q0 72 47.5 123.5t121.5 66.5q-38 21 -61.5 58.5t-23.5 84.5q0 55 30.5 100.5t85 71.5t121.5 26t117 -25.5t76 -68.5t22 -94q-5 -64 -46.5 -110.5t-104.5 -64.5q44 -19 71.5 -62.5t24.5 -95.5q-7 -92 -76 -145.5t-178 -53.5
q-70 0 -121 24zM394 105q43 37 43 96q0 51 -38.5 83t-100.5 32h-11q-68 0 -111 -37.5t-43 -95.5q0 -51 38.5 -83t101.5 -32h10q68 0 111 37zM453 433q40 37 40 92q0 46 -33.5 76.5t-91.5 30.5h-10q-42 0 -74.5 -17t-50 -46t-17.5 -63q0 -49 33 -79.5t91 -30.5h10
q63 0 103 37z" />
    <glyph glyph-name="nine.tf" 
d="M518 642.5q63 -67.5 63 -195.5q0 -62 -14 -128q-30 -143 -107.5 -236t-199.5 -93q-57 0 -105.5 22t-78.5 62.5t-35 93.5h90q8 -44 44 -71.5t85 -27.5h8q77 0 130 68t82 187q-33 -41 -79.5 -62.5t-98.5 -21.5q-59 0 -106.5 25.5t-74.5 72t-27 106.5q0 18 1 27q7 72 43 126
t92.5 83.5t122.5 29.5q102 0 165 -67.5zM266.5 608.5q-37.5 -22.5 -60.5 -62.5t-23 -90q0 -61 37 -99.5t94 -38.5h9q43 0 81 23t61 63.5t23 90.5q0 61 -37.5 98.5t-94.5 37.5h-9q-43 0 -80.5 -22.5z" />
    <glyph glyph-name="zero.osf.zero" horiz-adv-x="610" 
d="M162.5 22q-54.5 32 -84 86.5t-29.5 118.5q0 77 35.5 142t98.5 103t141 38q69 0 123 -32t83.5 -87.5t29.5 -122.5q0 -76 -35 -139.5t-97 -101t-141 -37.5q-70 0 -124.5 32zM387 88.5q41 26.5 64.5 73.5t23.5 107q0 54 -21 93l-255 -274q38 -26 94 -26h1q52 0 93 26.5z
M224.5 411q-42.5 -27 -66.5 -75t-24 -108q0 -50 18 -86l254 272q-37 24 -86 24q-53 0 -95.5 -27z" />
    <glyph glyph-name="zero.tf.zero" 
d="M109 66.5q-60 76.5 -60 208.5q0 92 34 193t105.5 171.5t175.5 70.5q109 0 169 -76.5t60 -208.5q0 -92 -34 -193t-104.5 -171.5t-175.5 -70.5q-110 0 -170 76.5zM398.5 119q50.5 51 78.5 133t28 169q0 32 -5 64l-329 -354q38 -63 112 -63q65 0 115.5 51zM244.5 581
q-51.5 -51 -79.5 -132t-28 -168q0 -32 5 -65l328 354q-38 62 -108 62q-66 0 -117.5 -51z" />
    <glyph glyph-name="zero.dnom" horiz-adv-x="402" 
d="M61 40.5q-40 44.5 -40 121.5q0 22 3 44q12 88 60.5 141.5t122.5 53.5q70 0 110.5 -44.5t40.5 -121.5q0 -21 -3 -44q-12 -89 -60.5 -142t-124.5 -53q-69 0 -109 44.5zM247 96q30 41 38 102q2 11 2 34q0 48 -20 79t-61 31h-4q-43 0 -71.5 -40.5t-37.5 -102.5q-2 -12 -2 -35
q0 -47 19 -78t59 -31h4q44 0 74 41z" />
    <glyph glyph-name="one.dnom" horiz-adv-x="226" 
d="M103 258h-84l9 47q45 1 74.5 24t46.5 66h51l-84 -395h-68z" />
    <glyph glyph-name="two.dnom" horiz-adv-x="346" 
d="M6 77l158 118q44 33 58.5 50t14.5 44q0 22 -16.5 36t-40.5 14h-5q-25 0 -44.5 -16t-23.5 -45h-71q8 56 49 89t99 33q54 0 90.5 -29.5t36.5 -77.5q0 -44 -23.5 -73t-74.5 -66l-125 -93h190l-13 -61h-276z" />
    <glyph glyph-name="three.dnom" horiz-adv-x="347" 
d="M33 26q-37 31 -35 86h70q-1 -26 16 -42t45 -16h5q33 0 54.5 17.5t21.5 49.5q0 24 -16 36.5t-42 12.5h-31l12 60h34q35 0 55.5 16.5t20.5 45.5q0 23 -16.5 36t-43.5 13h-5q-26 0 -44.5 -15t-23.5 -39h-69q7 54 47 83.5t98 29.5q54 0 90.5 -26t36.5 -73q0 -39 -22 -66
t-58 -38q21 -10 34 -30.5t13 -48.5q0 -58 -44.5 -90.5t-106.5 -32.5q-59 0 -96 31z" />
    <glyph glyph-name="four.dnom" horiz-adv-x="356" 
d="M174 91h-187l14 61l224 243h81l-53 -246h56l-13 -58h-56l-18 -91h-67zM187 149l34 164l-150 -164h116z" />
    <glyph glyph-name="five.dnom" horiz-adv-x="348" 
d="M37.5 26q-36.5 30 -37.5 83h71q1 -26 18.5 -40t44.5 -14h4q34 0 57 23.5t23 59.5q0 27 -18 42.5t-45 15.5h-3q-40 0 -68 -34h-67l83 234h228l-13 -59h-176l-34 -100q29 17 64 17q56 0 89.5 -34.5t29.5 -88.5q-6 -62 -49.5 -98.5t-105.5 -36.5q-59 0 -95.5 30z" />
    <glyph glyph-name="six.dnom" horiz-adv-x="371" 
d="M54 36q-35 40 -35 112q0 24 2 37q11 100 63.5 158t127.5 58q40 0 69 -16t43.5 -41.5t14.5 -53.5h-68q-2 23 -19.5 37t-42.5 14h-6q-37 0 -66.5 -32.5t-43.5 -87.5q17 21 43 33t56 12q52 0 86 -32t34 -85q0 -42 -19 -77t-55.5 -55.5t-86.5 -20.5q-62 0 -97 40zM217.5 80
q25.5 25 25.5 61q0 29 -18 47.5t-48 18.5h-3q-33 0 -59.5 -25t-26.5 -61q0 -29 18 -47.5t47 -18.5h3q36 0 61.5 25z" />
    <glyph glyph-name="seven.dnom" horiz-adv-x="316" 
d="M111.5 221.5q49.5 69.5 122.5 114.5h-194l13 59h273l-14 -62q-78 -49 -129 -118t-71 -180l-7 -35h-70l6 35q21 117 70.5 186.5z" />
    <glyph glyph-name="eight.dnom" horiz-adv-x="360" 
d="M40 23q-37 27 -37 73q0 39 27.5 69t67.5 40q-25 13 -37.5 36.5t-9.5 54.5q6 51 47 78t98 27q54 0 92 -26.5t38 -72.5q0 -38 -24 -65t-62 -39q25 -11 39.5 -32t14.5 -48q0 -57 -44 -89.5t-113 -32.5q-60 0 -97 27zM202 71q24 16 24 46q0 24 -19.5 37t-46.5 13h-5
q-32 0 -57 -17t-25 -47q0 -23 19 -35.5t47 -12.5h5q34 0 58 16zM230.5 247q21.5 18 21.5 46q0 23 -16.5 36t-41.5 13h-5q-29 0 -50.5 -17.5t-21.5 -45.5q0 -22 16.5 -36t41.5 -14h5q29 0 50.5 18z" />
    <glyph glyph-name="nine.dnom" horiz-adv-x="372" 
d="M69 12q-29 16 -44 41.5t-16 53.5h69q2 -22 19 -36.5t42 -14.5h6q36 0 64.5 32t45.5 89q-17 -21 -42.5 -33.5t-55.5 -12.5q-52 0 -86.5 32t-34.5 85q0 41 19 76t53 56t78 21q68 0 106 -40.5t38 -113.5q0 -9 -2 -33q-11 -101 -63 -159.5t-127 -58.5q-40 0 -69 16z
M233 213.5q25 23.5 25 59.5q0 29 -18.5 49t-47.5 20h-3q-35 0 -60 -25t-25 -60q0 -30 18.5 -48.5t48.5 -18.5h3q34 0 59 23.5z" />
    <glyph glyph-name="zero.numr" horiz-adv-x="400" 
d="M125 344.5q-40 44.5 -40 121.5q0 22 3 44q12 88 60.5 141.5t122.5 53.5q70 0 110.5 -44.5t40.5 -121.5q0 -21 -3 -44q-12 -89 -60.5 -142t-124.5 -53q-69 0 -109 44.5zM311 400q30 41 38 102q2 11 2 34q0 48 -20 79t-61 31h-4q-43 0 -71.5 -40.5t-37.5 -102.5
q-2 -12 -2 -35q0 -47 19 -78t59 -31h4q44 0 74 41z" />
    <glyph glyph-name="one.numr" horiz-adv-x="223" 
d="M166 563h-84l9 47q45 1 74.5 24t46.5 66h51l-84 -395h-68z" />
    <glyph glyph-name="two.numr" horiz-adv-x="341" 
d="M68 382l158 118q44 33 58.5 50t14.5 44q0 22 -16.5 36t-40.5 14h-5q-25 0 -44.5 -16t-23.5 -45h-71q8 56 49 89t99 33q54 0 90.5 -29.5t36.5 -77.5q0 -44 -23.5 -73t-74.5 -66l-125 -93h190l-13 -61h-276z" />
    <glyph glyph-name="three.numr" horiz-adv-x="345" 
d="M97 331q-37 31 -35 86h70q-1 -26 16 -42t45 -16h5q33 0 54.5 17.5t21.5 49.5q0 24 -16 36.5t-42 12.5h-31l12 60h34q35 0 55.5 16.5t20.5 45.5q0 23 -16.5 36t-43.5 13h-5q-26 0 -44.5 -15t-23.5 -39h-69q7 54 47 83.5t98 29.5q54 0 90.5 -26t36.5 -73q0 -39 -22 -66
t-58 -38q21 -10 34 -30.5t13 -48.5q0 -58 -44.5 -90.5t-106.5 -32.5q-59 0 -96 31z" />
    <glyph glyph-name="four.numr" horiz-adv-x="359" 
d="M241 396h-187l14 61l224 243h81l-53 -246h56l-13 -58h-56l-18 -91h-67zM254 454l34 164l-150 -164h116z" />
    <glyph glyph-name="five.numr" horiz-adv-x="342" 
d="M100.5 330q-36.5 30 -37.5 83h71q1 -26 18.5 -40t44.5 -14h4q34 0 57 23.5t23 59.5q0 27 -18 42.5t-45 15.5h-3q-40 0 -68 -34h-67l83 234h228l-13 -59h-176l-34 -100q29 17 64 17q56 0 89.5 -34.5t29.5 -88.5q-6 -62 -49.5 -98.5t-105.5 -36.5q-59 0 -95.5 30z" />
    <glyph glyph-name="six.numr" horiz-adv-x="367" 
d="M118 340q-35 40 -35 112q0 24 2 37q11 100 63.5 158t127.5 58q40 0 69 -16t43.5 -41.5t14.5 -53.5h-68q-2 23 -19.5 37t-42.5 14h-6q-37 0 -66.5 -32.5t-43.5 -87.5q17 21 43 33t56 12q52 0 86 -32t34 -85q0 -42 -19 -77t-55.5 -55.5t-86.5 -20.5q-62 0 -97 40z
M281.5 384q25.5 25 25.5 61q0 29 -18 47.5t-48 18.5h-3q-33 0 -59.5 -25t-26.5 -61q0 -29 18 -47.5t47 -18.5h3q36 0 61.5 25z" />
    <glyph glyph-name="seven.numr" horiz-adv-x="302" 
d="M169.5 526.5q49.5 69.5 122.5 114.5h-194l13 59h273l-14 -62q-78 -49 -129 -118t-71 -180l-7 -35h-70l6 35q21 117 70.5 186.5z" />
    <glyph glyph-name="eight.numr" horiz-adv-x="357" 
d="M103 327q-37 27 -37 73q0 39 27.5 69t67.5 40q-25 13 -37.5 36.5t-9.5 54.5q6 51 47 78t98 27q54 0 92 -26.5t38 -72.5q0 -38 -24 -65t-62 -39q25 -11 39.5 -32t14.5 -48q0 -57 -44 -89.5t-113 -32.5q-60 0 -97 27zM265 375q24 16 24 46q0 24 -19.5 37t-46.5 13h-5
q-32 0 -57 -17t-25 -47q0 -23 19 -35.5t47 -12.5h5q34 0 58 16zM293.5 551q21.5 18 21.5 46q0 23 -16.5 36t-41.5 13h-5q-29 0 -50.5 -17.5t-21.5 -45.5q0 -22 16.5 -36t41.5 -14h5q29 0 50.5 18z" />
    <glyph glyph-name="nine.numr" horiz-adv-x="369" 
d="M132 316q-29 16 -44 41.5t-16 53.5h69q2 -22 19 -36.5t42 -14.5h6q36 0 64.5 32t45.5 89q-17 -21 -42.5 -33.5t-55.5 -12.5q-52 0 -86.5 32t-34.5 85q0 41 19 76t53 56t78 21q68 0 106 -40.5t38 -113.5q0 -9 -2 -33q-11 -101 -63 -159.5t-127 -58.5q-40 0 -69 16z
M296 517.5q25 23.5 25 59.5q0 29 -18.5 49t-47.5 20h-3q-35 0 -60 -25t-25 -60q0 -30 18.5 -48.5t48.5 -18.5h3q34 0 59 23.5z" />
    <glyph glyph-name="zero.dnom.zero" horiz-adv-x="402" 
d="M61 40.5q-40 44.5 -40 121.5q0 22 3 44q12 88 60.5 141.5t122.5 53.5q70 0 110.5 -44.5t40.5 -121.5q0 -21 -3 -44q-12 -89 -60.5 -142t-124.5 -53q-69 0 -109 44.5zM247 96q30 41 38 102q2 11 2 31q0 21 -2 31l-169 -182q20 -23 53 -23h4q44 0 74 41zM261 318
q-21 24 -55 24h-4q-43 0 -71.5 -40.5t-37.5 -102.5q-3 -18 -3 -37q0 -10 2 -26z" />
    <glyph glyph-name="zero.numr.zero" horiz-adv-x="400" 
d="M125 344.5q-40 44.5 -40 121.5q0 22 3 44q12 88 60.5 141.5t122.5 53.5q70 0 110.5 -44.5t40.5 -121.5q0 -21 -3 -44q-12 -89 -60.5 -142t-124.5 -53q-69 0 -109 44.5zM311 400q30 41 38 102q2 11 2 31q0 21 -2 31l-169 -182q20 -23 53 -23h4q44 0 74 41zM325 622
q-21 24 -55 24h-4q-43 0 -71.5 -40.5t-37.5 -102.5q-3 -18 -3 -37q0 -10 2 -26z" />
    <glyph glyph-name="uni2080.zero" horiz-adv-x="400" 
d="M35 -75.5q-40 44.5 -40 121.5q0 22 3 44q12 88 60.5 141.5t122.5 53.5q70 0 110.5 -44.5t40.5 -121.5q0 -21 -3 -44q-12 -89 -60.5 -142t-124.5 -53q-69 0 -109 44.5zM221 -20q30 41 38 102q2 11 2 31q0 21 -2 31l-169 -182q20 -23 53 -23h4q44 0 74 41zM235 202
q-21 24 -55 24h-4q-43 0 -71.5 -40.5t-37.5 -102.5q-3 -18 -3 -37q0 -10 2 -26z" />
    <glyph glyph-name="uni2070.zero" horiz-adv-x="399" 
d="M148 454.5q-40 44.5 -40 121.5q0 22 3 44q12 88 60.5 141.5t122.5 53.5q70 0 110.5 -44.5t40.5 -121.5q0 -21 -3 -44q-12 -89 -60.5 -142t-124.5 -53q-69 0 -109 44.5zM334 510q30 41 38 102q2 11 2 31q0 21 -2 31l-169 -182q20 -23 53 -23h4q44 0 74 41zM348 732
q-21 24 -55 24h-4q-43 0 -71.5 -40.5t-37.5 -102.5q-3 -18 -3 -37q0 -10 2 -26z" />
    <glyph glyph-name="space.tf" 
 />
    <glyph glyph-name="exclamdown.case" horiz-adv-x="266" 
d="M224.5 695q16.5 -16 16.5 -41q0 -30 -21.5 -51t-49.5 -21q-25 0 -41.5 17.5t-16.5 41.5q0 29 21.5 49.5t49.5 20.5q25 0 41.5 -16zM134 220l-47 -220h-89l47 220l84 290h44z" />
    <glyph glyph-name="questiondown.case" horiz-adv-x="488" 
d="M267 308l-40 -12q-57 -17 -89 -44.5t-32 -83.5q0 -43 31.5 -71t88.5 -28q50 0 87.5 29.5t44.5 80.5h88q-5 -60 -38.5 -102.5t-84 -64t-105.5 -21.5t-101 21.5t-73 62t-27 93.5q0 72 44.5 121.5t119.5 72.5l42 13q29 9 39 19.5t16 34.5l17 70h87l-22 -100q-16 -68 -93 -91
zM416.5 696q16.5 -16 16.5 -41q0 -30 -21 -51t-50 -21q-25 0 -41.5 17.5t-16.5 41.5q0 29 21.5 49.5t49.5 20.5q25 0 41.5 -16z" />
    <glyph glyph-name="period.tf" 
d="M214.5 7q-16.5 17 -16.5 41q0 29 21.5 50t49.5 21q26 0 42 -16t16 -42q0 -29 -21 -50t-50 -21q-25 0 -41.5 17z" />
    <glyph glyph-name="comma.tf" 
d="M139 -75h33q60 0 73 59l3 16h-58l24 113h113l-28 -133q-13 -60 -47 -86t-89 -26h-37z" />
    <glyph glyph-name="colon.tf" 
d="M209.5 7q-16.5 17 -16.5 41q0 29 21.5 50t49.5 21q26 0 42 -16t16 -42q0 -29 -21 -50t-50 -21q-25 0 -41.5 17zM293.5 398.5q-16.5 16.5 -16.5 41.5q0 29 21 50t50 21q25 0 41.5 -17t16.5 -41q0 -29 -21.5 -50t-49.5 -21q-25 0 -41.5 16.5z" />
    <glyph glyph-name="semicolon.tf" 
d="M139 -75h33q60 0 73 59l3 16h-58l24 113h114l-29 -133q-13 -60 -46.5 -86t-89.5 -26h-36zM293.5 399.5q-16.5 17.5 -16.5 41.5q0 29 21.5 49.5t49.5 20.5q25 0 41.5 -16t16.5 -41q0 -30 -21 -51t-50 -21q-25 0 -41.5 17.5z" />
    <glyph glyph-name="numbersign.tf" 
d="M138 180h-88v75h104l40 190h-124v75h140l39 180h78l-39 -180h144l37 180h78l-37 -180h80v-75h-96l-39 -190h115v-75h-131l-37 -180h-78l37 180h-145l-39 -180h-78zM377 255l39 190h-144l-40 -190h145z" />
    <glyph glyph-name="hyphen.case" horiz-adv-x="387" 
d="M89 388h264l-16 -75h-264z" />
    <glyph glyph-name="endash.case" horiz-adv-x="566" 
d="M89 388h442l-16 -75h-442z" />
    <glyph glyph-name="emdash.case" horiz-adv-x="887" 
d="M89 388h764l-16 -75h-764z" />
    <glyph glyph-name="uni2015.case" horiz-adv-x="887" 
d="M89 388h764l-16 -75h-764z" />
    <glyph glyph-name="parenleft.case" horiz-adv-x="348" 
d="M123 81.5q-54 70.5 -54 201.5q0 112 43 210.5t120 157.5t173 59l-17 -82q-58 -1 -111 -47t-85.5 -123.5t-32.5 -170.5q0 -86 26 -139t84 -76l-17 -82q-75 21 -129 91.5z" />
    <glyph glyph-name="parenright.case" horiz-adv-x="348" 
d="M267 618.5q54 -70.5 54 -201.5q0 -112 -43 -210.5t-120 -157.5t-173 -59l17 82q58 1 111 47t85.5 123.5t32.5 170.5q0 86 -26 139t-84 76l17 82q75 -21 129 -91.5z" />
    <glyph glyph-name="braceleft.case" horiz-adv-x="359" 
d="M125 26.5q-30 26.5 -30 77.5q0 22 6 47l16 72q3 17 3 27q0 16 -9 23t-29 7h-32l29 140h33q27 0 38.5 13t19.5 51l17 75q12 55 30 85.5t45.5 43t69.5 12.5h78l-17 -78h-46q-38 0 -54.5 -17t-26.5 -63l-21 -100q-9 -45 -32 -63.5t-62 -18.5h-8l-4 -20h2q31 0 49 -17.5
t18 -46.5q0 -10 -3 -22l-20 -96q-5 -23 -5 -37q0 -23 13.5 -33t43.5 -10h42l-17 -78h-49q-58 0 -88 26.5z" />
    <glyph glyph-name="braceright.case" horiz-adv-x="366" 
d="M283 674.5q30 -26.5 30 -77.5q0 -21 -6 -47l-16 -72q-3 -16 -3 -27q0 -16 9 -23t29 -7h32l-29 -140h-33q-27 0 -38.5 -13t-19.5 -51l-17 -75q-12 -55 -30 -85.5t-45.5 -43t-69.5 -12.5h-78l17 78h46q38 0 54.5 17t26.5 63l21 100q9 45 32 63.5t62 18.5h8l4 20h-2
q-31 0 -49 17.5t-18 46.5q0 10 3 22l20 96q5 23 5 37q0 23 -13.5 33t-43.5 10h-42l17 78h49q58 0 88 -26.5z" />
    <glyph glyph-name="bracketleft.case" horiz-adv-x="336" 
d="M188 700h198l-16 -78h-109l-115 -544h108l-17 -78h-198z" />
    <glyph glyph-name="bracketright.case" horiz-adv-x="336" 
d="M190 0h-198l16 78h109l115 544h-108l17 78h198z" />
    <glyph glyph-name="guillemotleft.case" horiz-adv-x="561" 
d="M277 350l190 215h107l-200 -225l95 -205h-93zM64 350l190 215h107l-200 -225l95 -205h-93z" />
    <glyph glyph-name="guillemotright.case" horiz-adv-x="561" 
d="M326 350l-190 -215h-107l200 225l-95 205h93zM539 350l-190 -215h-107l200 225l-95 205h93z" />
    <glyph glyph-name="guilsinglleft.case" horiz-adv-x="348" 
d="M64 350l190 215h107l-200 -225l95 -205h-93z" />
    <glyph glyph-name="guilsinglright.case" horiz-adv-x="348" 
d="M229 360l-95 205h93l99 -215l-190 -215h-107z" />
    <glyph glyph-name="florin.tf" 
d="M28 -122h37q52 0 82.5 27t42.5 80l90 390h-130l16 77h131l16 68q21 91 73.5 135.5t131.5 44.5h61l-18 -78h-41q-97 0 -120 -103l-15 -67h134l-16 -77h-136l-91 -394q-23 -98 -75 -139.5t-140 -41.5h-50z" />
    </font>
</defs>
</svg>
