<?xml version="1.0" standalone="no"?>
<!DOCTYPE svg PUBLIC "-//W3C//DTD SVG 1.1//EN" "http://www.w3.org/Graphics/SVG/1.1/DTD/svg11.dtd" >
<svg xmlns="http://www.w3.org/2000/svg" xmlns:xlink="http://www.w3.org/1999/xlink" version="1.1">
<metadata>
Created by FontForge 20201107 at Fri Jan 24 12:20:56 2025
 By 
OpenAI OpCo. L.L.C.
</metadata>
<defs>
<font id="OpenAISans-Medium" horiz-adv-x="600" >
  <font-face 
    font-family="OpenAI Sans Medium"
    font-weight="500"
    font-stretch="normal"
    units-per-em="1000"
    panose-1="2 11 5 4 3 2 2 6 2 3"
    ascent="800"
    descent="-200"
    x-height="500"
    cap-height="700"
    bbox="-159 -262 2153 1225"
    underline-thickness="50"
    underline-position="-125"
    unicode-range="U+000D-FB02"
  />
<missing-glyph horiz-adv-x="679" 
d="M90 700h500v-700h-500v700zM512 76v548h-344v-548h344z" />
    <glyph glyph-name="fi" unicode="fi" horiz-adv-x="634" 
d="M129 420h-110v80h110v75q0 125 126 125h118v-82h-96q-30 0 -41.5 -11t-11.5 -41v-66h335v-500h-95v420h-240v-420h-95v420zM468.5 600q-17.5 18 -17.5 42q0 25 17.5 43t42.5 18t43 -18t18 -43q0 -24 -18 -42t-43 -18t-42.5 18z" />
    <glyph glyph-name="fl" unicode="fl" horiz-adv-x="634" 
d="M129 420h-110v80h110v75q0 125 126 125h304v-700h-95v618h-187q-30 0 -41.5 -11t-11.5 -41v-66h124v-80h-124v-420h-95v420z" />
    <glyph glyph-name="f_f" unicode="ff" horiz-adv-x="703" 
d="M129 420h-110v80h110v75q0 125 126 125h118v-82h-96q-30 0 -41.5 -11t-11.5 -41v-66h240v75q0 125 126 125h118v-82h-96q-30 0 -41.5 -11t-11.5 -41v-66h124v-80h-124v-420h-95v420h-240v-420h-95v420z" />
    <glyph glyph-name="f_f_i" unicode="ffi" horiz-adv-x="969" 
d="M129 420h-110v80h110v75q0 125 126 125h118v-82h-96q-30 0 -41.5 -11t-11.5 -41v-66h240v75q0 125 126 125h118v-82h-96q-30 0 -41.5 -11t-11.5 -41v-66h335v-500h-95v420h-240v-420h-95v420h-240v-420h-95v420zM803.5 600q-17.5 18 -17.5 42q0 25 17.5 43t42.5 18
t43 -18t18 -43q0 -24 -18 -42t-43 -18t-42.5 18z" />
    <glyph glyph-name="f_f_l" unicode="ffl" horiz-adv-x="969" 
d="M129 420h-110v80h110v75q0 125 126 125h118v-82h-96q-30 0 -41.5 -11t-11.5 -41v-66h240v75q0 125 126 125h304v-700h-95v618h-187q-30 0 -41.5 -11t-11.5 -41v-66h124v-80h-124v-420h-95v420h-240v-420h-95v420z" />
    <glyph glyph-name="w_w_w.liga" unicode="www" horiz-adv-x="2060" 
d="M17 500h99l114 -402l105 402h104l110 -403l111 403h98l115 -402l105 402h104l109 -403l111 403h98l116 -402l104 402h104l110 -403l111 403h96l-153 -500h-110l-106 392l-105 -392h-109l-107 343l-106 -343h-109l-106 392l-105 -392h-109l-108 343l-106 -343h-109
l-106 392l-105 -392h-109z" />
    <glyph glyph-name=".notdef" horiz-adv-x="679" 
d="M90 700h500v-700h-500v700zM512 76v548h-344v-548h344z" />
    <glyph glyph-name=".null" horiz-adv-x="0" 
 />
    <glyph glyph-name="nonmarkingreturn" unicode="&#xd;" horiz-adv-x="240" 
 />
    <glyph glyph-name="space" unicode=" " horiz-adv-x="240" 
 />
    <glyph glyph-name="exclam" unicode="!" horiz-adv-x="269" 
d="M86 9q-20 20 -20 48q0 29 19.5 49t48.5 20t48.5 -20t19.5 -49q0 -28 -20 -48t-48 -20t-48 20zM85 476v224h99v-224l-25 -283h-49z" />
    <glyph glyph-name="quotedbl" unicode="&#x22;" horiz-adv-x="358" 
d="M212 614v86h92v-86l-29 -133h-38zM54 614v86h92v-86l-29 -133h-38z" />
    <glyph glyph-name="numbersign" unicode="#" horiz-adv-x="682" 
d="M140 176h-104v83h122l39 182h-118v83h135l38 176h90l-38 -176h146l37 176h90l-37 -176h106v-83h-123l-38 -182h118v-83h-135l-37 -176h-90l37 176h-148l-38 -176h-90zM395 259l38 182h-146l-39 -182h147z" />
    <glyph glyph-name="dollar" unicode="$" horiz-adv-x="620" 
d="M287 -9l-19 -111h-85l21 124q-79 23 -122 79.5t-44 141.5h99q1 -45 22.5 -78t60.5 -50l36 218l-17 3q-88 17 -132 64t-44 127q0 55 30 101t86.5 73t131.5 27h11l19 110h85l-21 -122q76 -22 119 -76t46 -132h-100q-4 41 -25 70.5t-55 44.5l-35 -206l24 -4
q91 -17 141.5 -68t50.5 -134q0 -61 -32 -107t-90.5 -71t-135.5 -25q-17 0 -26 1zM186.5 448q25.5 -23 75.5 -32l11 -2l34 206h-3q-63 0 -103 -31t-40 -78q0 -40 25.5 -63zM313 80h10q68 0 107.5 30.5t39.5 78.5q0 86 -114 107l-18 3l-36 -219h11z" />
    <glyph glyph-name="percent" unicode="%" horiz-adv-x="921" 
d="M628 700h87l-420 -700h-87zM75 355.5q-45 55.5 -45 147.5q0 91 45 146.5t124 55.5q78 0 123 -55.5t45 -146.5t-45 -147t-123 -56q-79 0 -124 55.5zM267 404.5q23 40.5 23 98.5q0 57 -23 97.5t-66 40.5h-4q-43 0 -66.5 -40.5t-23.5 -97.5q0 -58 23.5 -98.5t66.5 -40.5h4
q43 0 66 40.5zM598.5 51q-45.5 56 -45.5 147t45.5 146.5t123.5 55.5q79 0 124 -55.5t45 -146.5q0 -92 -45 -147.5t-124 -55.5q-78 0 -123.5 56zM790.5 100q23.5 41 23.5 98t-23.5 97.5t-66.5 40.5h-4q-43 0 -66 -40.5t-23 -97.5t23.5 -98t65.5 -41h4q43 0 66.5 41z" />
    <glyph glyph-name="ampersand" unicode="&#x26;" horiz-adv-x="681" 
d="M167.5 11q-52.5 22 -84.5 66.5t-32 109.5q0 68 33.5 116t102.5 83q-36 44 -50.5 79t-14.5 77q0 49 24 87.5t65 60t91 21.5q54 0 96.5 -21.5t66 -59t23.5 -82.5q0 -63 -40.5 -111t-116.5 -76l-4 -1l154 -168q35 65 35 148v22h92v-27q0 -58 -16.5 -111.5t-48.5 -98.5
l115 -125h-118l-56 60q-41 -34 -92 -52.5t-109 -18.5q-63 0 -115.5 22zM187.5 107q38.5 -32 100.5 -32q80 0 138 48l-186 203q-48 -25 -69.5 -57.5t-21.5 -74.5q0 -55 38.5 -87zM224 485q14 -26 48 -64l20 7q58 21 80.5 49t22.5 68q0 36 -25.5 60.5t-67.5 24.5
q-41 0 -66.5 -24t-25.5 -65q0 -30 14 -56z" />
    <glyph glyph-name="quotesingle" unicode="'" horiz-adv-x="200" 
d="M54 614v86h92v-86l-29 -133h-38z" />
    <glyph glyph-name="parenleft" unicode="(" horiz-adv-x="364" 
d="M182 -73q-66 66 -99.5 176t-33.5 247q0 136 33.5 245.5t99.5 175.5t160 74v-84q-98 -18 -147 -128.5t-49 -282.5t49 -282.5t147 -128.5v-84q-94 6 -160 72z" />
    <glyph glyph-name="parenright" unicode=")" horiz-adv-x="364" 
d="M182 773q66 -66 99.5 -176t33.5 -247q0 -136 -33.5 -245.5t-99.5 -175.5t-160 -74v84q98 18 147 128.5t49 282.5t-49 282.5t-147 128.5v84q94 -6 160 -72z" />
    <glyph glyph-name="asterisk" unicode="*" horiz-adv-x="413" 
d="M92 453l58 99h-112v64h112l-58 99l58 32l57 -98l58 98l56 -32l-57 -99h112v-64h-112l57 -99l-57 -32l-57 98l-58 -98z" />
    <glyph glyph-name="plus" unicode="+" horiz-adv-x="591" 
d="M247 215h-198v85h198v200h97v-200h198v-85h-198v-200h-97v200z" />
    <glyph glyph-name="comma" unicode="," horiz-adv-x="260" 
d="M35 -75h34q60 0 60 61v14h-59v120h120v-139q0 -55 -31.5 -86t-85.5 -31h-38v61z" />
    <glyph glyph-name="hyphen" unicode="-" horiz-adv-x="382" 
d="M56 343h269v-81h-269v81z" />
    <glyph glyph-name="period" unicode="." horiz-adv-x="247" 
d="M75 10q-20 20 -20 48t20 48.5t48 20.5q29 0 49 -20t20 -49q0 -28 -20.5 -48t-48.5 -20t-48 20z" />
    <glyph glyph-name="slash" unicode="/" horiz-adv-x="403" 
d="M287 700h100l-269 -700h-101z" />
    <glyph glyph-name="zero" unicode="0" horiz-adv-x="657" 
d="M126 83.5q-72 93.5 -72 266.5q0 172 72.5 266t202.5 94t202 -93.5t72 -266.5t-71.5 -266.5t-202.5 -93.5t-203 93.5zM418.5 103.5q38.5 27.5 62.5 89t24 157.5t-24 157.5t-62.5 89t-84.5 27.5h-10q-46 0 -85 -27.5t-63 -89t-24 -157.5t24 -157.5t63 -89t85 -27.5h10
q46 0 84.5 27.5z" />
    <glyph glyph-name="one" unicode="1" horiz-adv-x="349" 
d="M162 498h-141v67q62 1 105 37.5t55 97.5h76v-700h-95v498z" />
    <glyph glyph-name="two" unicode="2" horiz-adv-x="566" 
d="M46 100l243 233q49 47 71 70.5t36.5 52t14.5 61.5q0 47 -34 77t-85 30h-10q-57 0 -93 -37.5t-36 -96.5h-100q0 66 30.5 116t83 77t119.5 27q63 0 114 -23.5t80 -66.5t29 -99q0 -68 -35.5 -121t-106.5 -120l-204 -191h356v-89h-473v100z" />
    <glyph glyph-name="three" unicode="3" horiz-adv-x="579" 
d="M113 42.5q-64 52.5 -70 141.5h97q7 -50 43 -79t92 -29h9q63 0 103 32.5t40 84.5q0 56 -41 88t-104 32h-49v86h50q58 0 94.5 31.5t36.5 80.5q0 51 -36.5 82t-91.5 31h-9q-51 0 -87 -31t-38 -79h-96q0 55 30 100t82 70.5t117 25.5q64 0 115.5 -23.5t81 -66.5t29.5 -98
q0 -59 -31.5 -102t-83.5 -62q56 -16 92.5 -60t36.5 -109q0 -60 -31.5 -105t-87.5 -69.5t-126 -24.5q-103 0 -167 52.5z" />
    <glyph glyph-name="four" unicode="4" horiz-adv-x="617" 
d="M381 158h-345v98l341 444h99v-456h109v-86h-109v-158h-95v158zM381 244v326l-250 -326h250z" />
    <glyph glyph-name="five" unicode="5" horiz-adv-x="580" 
d="M123.5 42q-67.5 52 -77.5 143h98q10 -50 47.5 -79.5t90.5 -29.5h10q64 0 104 42.5t40 107.5q0 61 -41 100t-100 39h-10q-41 0 -77 -21.5t-54 -57.5h-95l56 414h390v-89h-315l-29 -217q54 55 147 55q65 0 116.5 -28.5t80.5 -79t29 -112.5q0 -71 -31 -125t-87 -84t-127 -30
q-98 0 -165.5 52z" />
    <glyph glyph-name="six" unicode="6" horiz-adv-x="611" 
d="M176 30q-59 40 -90.5 116.5t-31.5 182.5q0 113 32.5 199t93 134t141.5 48q91 0 154 -48.5t78 -131.5h-99q-11 42 -47.5 68t-83.5 26h-7q-74 0 -116.5 -69.5t-50.5 -192.5q28 47 77 72.5t106 25.5q63 0 115 -28.5t81.5 -80.5t29.5 -120q0 -71 -31.5 -125.5t-86.5 -85
t-125 -30.5q-80 0 -139 40zM390 96q32 19 50.5 53t18.5 76t-18 76t-50 53.5t-71 19.5h-10q-39 0 -72.5 -19.5t-53 -53t-19.5 -75.5t19.5 -76t52.5 -53.5t73 -19.5h10q38 0 70 19z" />
    <glyph glyph-name="seven" unicode="7" horiz-adv-x="523" 
d="M210.5 390.5q69.5 144.5 188.5 219.5h-380v90h484v-94q-130 -81 -196 -220.5t-66 -355.5v-30h-100v37q0 209 69.5 353.5z" />
    <glyph glyph-name="eight" unicode="8" horiz-adv-x="593" 
d="M168 15.5q-55 25.5 -84.5 70.5t-29.5 102q0 62 37.5 109t90.5 62q-49 18 -81.5 62t-32.5 103q0 50 29 93t81 68t119 25t119 -25t80.5 -67.5t28.5 -93.5q0 -59 -32 -102.5t-81 -62.5q52 -15 89.5 -62t37.5 -109q0 -57 -30 -102t-84.5 -70.5t-127.5 -25.5q-74 0 -129 25.5z
M402.5 109q38.5 33 38.5 85t-38.5 85t-100.5 33h-10q-62 0 -101 -33t-39 -85t38.5 -85t101.5 -33h10q62 0 100.5 33zM393.5 432q34.5 32 34.5 82q0 47 -34.5 78.5t-91.5 31.5h-10q-57 0 -92 -31.5t-35 -78.5q0 -50 34.5 -82t92.5 -32h10q57 0 91.5 32z" />
    <glyph glyph-name="nine" unicode="9" horiz-adv-x="612" 
d="M132.5 38.5q-60.5 48.5 -74.5 132.5h98q11 -43 43 -68.5t78 -25.5h11q75 0 120.5 69.5t53.5 190.5q-28 -47 -76.5 -72t-105.5 -25q-63 0 -115 28.5t-81.5 80.5t-29.5 120q0 71 31 125.5t86.5 85t125.5 30.5q80 0 138.5 -40t90.5 -116.5t32 -182.5q0 -114 -35 -200.5
t-97.5 -133.5t-142.5 -47q-90 0 -150.5 48.5zM374 345.5q33 19.5 52.5 53t19.5 75.5t-19.5 76t-52.5 53.5t-73 19.5h-10q-38 0 -70 -19t-50.5 -53t-18.5 -76t18 -76t50 -53.5t71 -19.5h10q40 0 73 19.5z" />
    <glyph glyph-name="colon" unicode=":" horiz-adv-x="272" 
d="M87.5 10q-20.5 20 -20.5 48q0 29 20.5 49t48.5 20q29 0 49 -20t20 -49q0 -28 -20.5 -48t-48.5 -20t-48.5 20zM87.5 394.5q-20.5 20.5 -20.5 48.5t20.5 48t48.5 20t48.5 -20t20.5 -48t-20 -48.5t-49 -20.5q-28 0 -48.5 20.5z" />
    <glyph glyph-name="semicolon" unicode=";" horiz-adv-x="288" 
d="M49 -75h35q60 0 60 61v14h-60v120h121v-139q0 -55 -32 -86t-86 -31h-38v61zM96 394q-20 20 -20 49q0 28 20 48t48 20q29 0 49 -20t20 -48q0 -29 -20 -49t-49 -20q-28 0 -48 20z" />
    <glyph glyph-name="less" unicode="&#x3c;" horiz-adv-x="547" 
d="M52 215v83l425 175v-98l-295 -117l295 -114v-103z" />
    <glyph glyph-name="equal" unicode="=" horiz-adv-x="616" 
d="M61 393h494v-87h-494v87zM61 208h494v-86h-494v86z" />
    <glyph glyph-name="greater" unicode="&#x3e;" horiz-adv-x="547" 
d="M69 138l296 117l-296 114v103l425 -174v-83l-425 -175v98z" />
    <glyph glyph-name="question" unicode="?" horiz-adv-x="486" 
d="M166.5 348q16.5 25 55.5 40l27 11q55 22 83 46.5t28 73.5q0 46 -31.5 76.5t-87.5 30.5q-52 0 -84 -28.5t-38 -78.5h-97q3 59 33.5 102t80 66t108.5 23q60 0 109 -23t77 -65.5t28 -97.5q0 -129 -134 -186l-35 -15q-27 -11 -35 -19.5t-8 -28.5v-70h-96v79q0 39 16.5 64z
M151 9q-20 20 -20 48q0 29 19.5 49t48.5 20t48.5 -20t19.5 -49q0 -28 -20 -48t-48 -20t-48 20z" />
    <glyph glyph-name="at" unicode="@" horiz-adv-x="924" 
d="M255 -76q-97 49 -153 146.5t-56 238.5q0 127 59.5 223t156.5 147t207 51q114 0 207 -49.5t146 -135.5t53 -192q0 -82 -29 -140.5t-75.5 -88t-98.5 -29.5h-104v66q-15 -32 -49.5 -54t-79.5 -22q-51 0 -92.5 26.5t-65.5 75.5t-24 113q0 63 24 111t65.5 73.5t92.5 25.5
q45 0 77 -20.5t49 -53.5v64h85v-332h17q28 0 54 18.5t43.5 60t17.5 106.5q0 87 -38.5 154t-109 104t-165.5 37q-90 0 -166 -42t-120.5 -119t-44.5 -178q0 -109 43.5 -188t121 -121t179.5 -42h248v-83h-254q-124 0 -221 49zM534 200.5q30 40.5 30 99.5q0 58 -29.5 96.5
t-74.5 38.5h-6q-46 0 -74.5 -36.5t-28.5 -98.5q0 -63 27.5 -101.5t72.5 -38.5h6q47 0 77 40.5z" />
    <glyph glyph-name="A" unicode="A" horiz-adv-x="696" 
d="M287 700h124l277 -700h-105l-70 177h-333l-69 -177h-104zM478 268l-132 334l-130 -334h262z" />
    <glyph glyph-name="B" unicode="B" horiz-adv-x="662" 
d="M90 700h302q58 0 104 -22.5t72 -64.5t26 -96q0 -59 -31.5 -102t-82.5 -60q57 -10 93 -53t36 -112q0 -56 -27.5 -99t-75.5 -67t-105 -24h-311v700zM474.5 119q34.5 29 34.5 81q0 53 -34 81.5t-92 28.5h-193v-220h193q57 0 91.5 29zM463 427.5q31 27.5 31 77.5q0 49 -31 77
t-85 28h-188v-210h188q54 0 85 27.5z" />
    <glyph glyph-name="C" unicode="C" horiz-adv-x="716" 
d="M203.5 36.5q-74.5 46.5 -114.5 128.5t-40 185t40.5 185t115.5 128.5t173 46.5q79 0 142.5 -30.5t103.5 -85t48 -125.5h-102q-12 67 -62 108.5t-126 41.5h-8q-68 0 -119 -35t-78 -96t-27 -138t27 -138t78 -96t119 -35h8q76 0 126.5 41.5t62.5 109.5h101q-9 -71 -48.5 -126
t-103.5 -85.5t-142 -30.5q-100 0 -174.5 46.5z" />
    <glyph glyph-name="D" unicode="D" horiz-adv-x="713" 
d="M90 700h244q99 0 173.5 -41.5t115.5 -121t41 -188.5t-40.5 -188t-114.5 -120t-173 -41h-246v700zM501.5 155.5q62.5 65.5 62.5 194.5t-62.5 194.5t-177.5 65.5h-134v-520h134q115 0 177.5 65.5z" />
    <glyph glyph-name="E" unicode="E" horiz-adv-x="653" 
d="M90 700h509v-90h-409v-205h349v-90h-349v-225h419v-90h-519v700z" />
    <glyph glyph-name="F" unicode="F" horiz-adv-x="606" 
d="M90 700h487v-90h-387v-225h337v-90h-337v-295h-100v700z" />
    <glyph glyph-name="G" unicode="G" horiz-adv-x="745" 
d="M199.5 36q-72.5 46 -111.5 127.5t-39 185.5t42 186t117 128.5t172 46.5q83 0 147 -30.5t102 -84t47 -122.5h-103q-13 67 -63.5 107t-125.5 40h-8q-65 0 -116.5 -33t-80.5 -94.5t-29 -143.5t28.5 -143t80 -93.5t118.5 -32.5h8q56 0 102 24.5t73 68.5t29 100h-198v88h210
q40 0 60.5 -20.5t20.5 -60.5v-280h-90v100q-28 -46 -88 -78t-135 -32q-97 0 -169.5 46z" />
    <glyph glyph-name="H" unicode="H" horiz-adv-x="734" 
d="M90 700h100v-305h354v305h100v-700h-100v305h-354v-305h-100v700z" />
    <glyph glyph-name="I" unicode="I" horiz-adv-x="279" 
d="M90 700h100v-700h-100v700z" />
    <glyph glyph-name="J" unicode="J" horiz-adv-x="394" 
d="M15 95h107q47 0 67 22.5t20 71.5v511h100v-522q0 -88 -44.5 -133t-127.5 -45h-122v95z" />
    <glyph glyph-name="K" unicode="K" horiz-adv-x="676" 
d="M90 700h100v-351l347 351h128l-281 -286l286 -414h-124l-234 340l-122 -124v-216h-100v700z" />
    <glyph glyph-name="L" unicode="L" horiz-adv-x="613" 
d="M90 700h100v-610h409v-90h-509v700z" />
    <glyph glyph-name="M" unicode="M" horiz-adv-x="924" 
d="M90 700h163l212 -604l206 604h163v-700h-100v607l-208 -607h-124l-214 610v-610h-98v700z" />
    <glyph glyph-name="N" unicode="N" horiz-adv-x="744" 
d="M90 700h134l330 -567v567h100v-700h-134l-330 571v-571h-100v700z" />
    <glyph glyph-name="O" unicode="O" horiz-adv-x="769" 
d="M212.5 34.5q-76.5 44.5 -120.5 126.5t-44 189q0 108 44 189.5t120.5 126t171.5 44.5t171.5 -44.5t120.5 -126t44 -189.5q0 -107 -44 -189t-120.5 -126.5t-171.5 -44.5t-171.5 44.5zM506.5 114q52.5 33 82.5 94t30 142q0 82 -30 143t-82.5 93.5t-118.5 32.5h-8
q-66 0 -118.5 -32.5t-82.5 -93.5t-30 -143q0 -81 30 -142t82.5 -94t118.5 -33h8q66 0 118.5 33z" />
    <glyph glyph-name="P" unicode="P" horiz-adv-x="638" 
d="M90 700h295q65 0 115.5 -25t79.5 -73t29 -114t-29 -114.5t-79.5 -73.5t-115.5 -25h-195v-275h-100v700zM472.5 397.5q36.5 31.5 36.5 90.5t-36.5 90.5t-102.5 31.5h-180v-244h180q66 0 102.5 31.5z" />
    <glyph glyph-name="Q" unicode="Q" horiz-adv-x="769" 
d="M506.5 114q52.5 33 82.5 94t30 142q0 82 -30 143t-82.5 93.5t-118.5 32.5h-8q-66 0 -118.5 -32.5t-82.5 -93.5t-30 -143q0 -81 30 -142t82.5 -94t118.5 -33h8q66 0 118.5 33zM366 -159q-31 29 -31 82v70q-83 11 -148 58t-102 124t-37 175q0 108 44 189.5t120.5 126
t171.5 44.5t171.5 -44.5t120.5 -126t44 -189.5q0 -98 -37 -175.5t-103 -124t-149 -57.5v-43q0 -27 11.5 -38.5t38.5 -11.5h144v-88h-171q-57 0 -88 29z" />
    <glyph glyph-name="R" unicode="R" horiz-adv-x="680" 
d="M90 700h301q63 0 113 -24.5t78 -68t28 -97.5q0 -64 -31.5 -111t-81.5 -64q103 -11 103 -120v-126q0 -55 6 -89h-101q-5 23 -5 70v135q0 40 -18.5 58t-58.5 18h-233v-281h-100v700zM472.5 405.5q37.5 34.5 37.5 89.5t-36 85t-100 30h-184v-239h184q61 0 98.5 34.5z" />
    <glyph glyph-name="S" unicode="S" horiz-adv-x="624" 
d="M114 51.5q-72 61.5 -74 173.5h99q1 -70 48 -107.5t128 -37.5h10q68 0 107.5 30.5t39.5 78.5q0 86 -114 107l-117 22q-88 17 -132 64t-44 127q0 55 30 101t86.5 73t131.5 27q77 0 134.5 -27.5t90 -77t34.5 -115.5h-100q-5 60 -47.5 95t-108.5 35h-10q-63 0 -103 -31
t-40 -78q0 -40 25.5 -63t75.5 -32l117 -21q91 -17 141.5 -68t50.5 -134q0 -61 -32 -107t-90.5 -71t-135.5 -25q-129 0 -201 61.5z" />
    <glyph glyph-name="T" unicode="T" horiz-adv-x="630" 
d="M265 610h-250v90h600v-90h-250v-610h-100v610z" />
    <glyph glyph-name="U" unicode="U" horiz-adv-x="696" 
d="M149.5 59q-66.5 69 -66.5 190v451h100v-439q0 -88 41 -134.5t119 -46.5h10q78 0 119 46.5t41 134.5v439h100v-451q0 -120 -67.5 -189.5t-197.5 -69.5q-132 0 -198.5 69z" />
    <glyph glyph-name="V" unicode="V" horiz-adv-x="700" 
d="M6 700h109l239 -602l230 602h106l-275 -700h-127z" />
    <glyph glyph-name="W" unicode="W" horiz-adv-x="940" 
d="M26 700h103l140 -597l139 597h131l137 -601l135 601h103l-171 -700h-136l-137 579l-137 -579h-136z" />
    <glyph glyph-name="X" unicode="X" horiz-adv-x="638" 
d="M262 358l-239 342h118l180 -257l181 257h115l-240 -339l251 -361h-117l-193 276l-195 -276h-114z" />
    <glyph glyph-name="Y" unicode="Y" horiz-adv-x="624" 
d="M262 288l-254 412h115l192 -315l190 315h110l-253 -412v-288h-100v288z" />
    <glyph glyph-name="Z" unicode="Z" horiz-adv-x="611" 
d="M38 91l409 519h-399v90h515v-89l-411 -521h421v-90h-535v91z" />
    <glyph glyph-name="bracketleft" unicode="[" horiz-adv-x="337" 
d="M90 845h219v-82h-124v-826h124v-82h-219v990z" />
    <glyph glyph-name="backslash" unicode="\" horiz-adv-x="403" 
d="M17 700h100l270 -700h-102z" />
    <glyph glyph-name="bracketright" unicode="]" horiz-adv-x="337" 
d="M247 -145h-219v82h124v826h-124v82h219v-990z" />
    <glyph glyph-name="asciicircum" unicode="^" horiz-adv-x="554" 
d="M225 700h103l176 -415h-98l-131 322l-131 -322h-94z" />
    <glyph glyph-name="underscore" unicode="_" horiz-adv-x="564" 
d="M57 0h449v-82h-449v82z" />
    <glyph glyph-name="grave" unicode="`" horiz-adv-x="215" 
d="M30 700h105l51 -137h-65z" />
    <glyph glyph-name="a" unicode="a" horiz-adv-x="551" 
d="M93 32q-48 42 -48 107q0 140 196 155l146 11v16q0 51 -33 80.5t-86 29.5h-4q-44 0 -75.5 -20.5t-39.5 -55.5h-93q10 68 67.5 111.5t144.5 43.5q103 0 158 -54t55 -139v-207q0 -75 5 -110h-88q-3 15 -4.5 37.5t-1.5 37.5q-22 -35 -68 -60t-104 -25q-79 0 -127 42zM309 85
q34 16 56 48t22 77v22l-134 -9q-57 -4 -86 -24.5t-29 -55.5q0 -32 26.5 -53t70.5 -21h4q36 0 70 16z" />
    <glyph glyph-name="b" unicode="b" horiz-adv-x="603" 
d="M235 13q-44 23 -64 56v-69h-95v700h95v-268q21 34 63 56t95 22q65 0 117 -32t82 -91t30 -137t-29 -137t-80.5 -91t-116.5 -32q-53 0 -97 23zM423.5 121q39.5 50 39.5 129t-39.5 129t-103.5 50h-6q-42 0 -75 -23t-51.5 -63.5t-18.5 -92.5t18.5 -92.5t51.5 -63.5t75 -23h6
q64 0 103.5 50z" />
    <glyph glyph-name="c" unicode="c" horiz-adv-x="541" 
d="M155.5 24q-53.5 34 -82.5 93.5t-29 132.5t29 132t82.5 93.5t124.5 34.5q60 0 107.5 -23t76.5 -64t35 -93h-96q-7 42 -40 71t-81 29h-4q-64 0 -101.5 -51.5t-37.5 -128.5q0 -76 37.5 -127.5t102.5 -51.5h3q48 0 80 28.5t41 70.5h97q-13 -80 -71.5 -130t-148.5 -50
q-71 0 -124.5 34z" />
    <glyph glyph-name="d" unicode="d" horiz-adv-x="602" 
d="M152.5 22q-51.5 32 -80.5 91t-29 137t30 137t82.5 91t117.5 32q53 0 95 -22t63 -56v268h95v-700h-95v69q-20 -33 -64 -56t-98 -23q-65 0 -116.5 32zM363 94q33 23 51.5 63.5t18.5 92.5t-18.5 92.5t-51.5 63.5t-75 23h-6q-64 0 -103.5 -50t-39.5 -129t39.5 -129t103.5 -50
h6q42 0 75 23z" />
    <glyph glyph-name="e" unicode="e" horiz-adv-x="545" 
d="M159.5 22q-53.5 32 -84.5 91t-31 138q0 78 31.5 136.5t84.5 90.5t117 32q89 0 149 -54t72 -147q4 -34 3 -77h-362q3 -76 42.5 -119t95.5 -43h6q42 0 73 22t42 60h96q-17 -72 -75.5 -117t-139.5 -45q-66 0 -119.5 32zM366 397.5q-34 33.5 -85 33.5h-7q-48 0 -84.5 -30.5
t-47.5 -93.5h262q-4 57 -38 90.5z" />
    <glyph glyph-name="f" unicode="f" horiz-adv-x="368" 
d="M129 420h-110v80h110v69q0 131 130 131h114v-82h-92q-32 0 -44.5 -12t-12.5 -44v-62h124v-80h-124v-420h-95v420z" />
    <glyph glyph-name="g" unicode="g" horiz-adv-x="597" 
d="M112 -176.5q-60 43.5 -67 115.5h95q7 -39 42.5 -59.5t91.5 -20.5h9q64 0 104 38t40 113v70q-22 -35 -63 -57.5t-95 -22.5q-61 0 -112 29t-81.5 86.5t-30.5 138.5q0 82 30 139.5t81 87t113 29.5q55 0 97 -23t61 -57v70h95v-499q0 -63 -29 -113t-84.5 -79t-131.5 -29
q-105 0 -165 43.5zM356 101q32 21 51.5 60.5t19.5 92.5t-19 93.5t-50.5 62t-68.5 21.5h-8q-61 0 -101 -46t-40 -131q0 -86 39 -130t99 -44h7q39 0 71 21z" />
    <glyph glyph-name="h" unicode="h" horiz-adv-x="580" 
d="M76 700h95v-267q23 35 63.5 56t92.5 21q83 0 133 -52.5t50 -139.5v-318h-95v297q0 62 -28 96t-83 34h-2q-58 0 -94.5 -44.5t-36.5 -115.5v-267h-95v700z" />
    <glyph glyph-name="i" unicode="i" horiz-adv-x="246" 
d="M76 500h95v-500h-95v500zM81 604q-18 18 -18 43q0 26 18 43.5t43 17.5t43 -18t18 -43t-18 -43t-43 -18t-43 18z" />
    <glyph glyph-name="j" unicode="j" horiz-adv-x="246" 
d="M-89 -100h112q28 0 40.5 13t12.5 41v546h95v-553q0 -64 -32.5 -97t-96.5 -33h-131v83zM81 604q-18 18 -18 43q0 26 18 43.5t43 17.5t43 -18t18 -43t-18 -43t-43 -18t-43 18z" />
    <glyph glyph-name="k" unicode="k" horiz-adv-x="532" 
d="M76 700h95v-420l223 220h123l-204 -199l214 -301h-116l-166 235l-74 -73v-162h-95v700z" />
    <glyph glyph-name="l" unicode="l" horiz-adv-x="246" 
d="M76 700h95v-700h-95v700z" />
    <glyph glyph-name="m" unicode="m" horiz-adv-x="900" 
d="M76 500h95v-67q23 35 62 56t90 21q54 0 94.5 -24.5t62.5 -69.5q57 94 167 94q84 0 133.5 -52.5t49.5 -140.5v-317h-95v297q0 62 -26.5 96t-79.5 34h-3q-56 0 -91 -45t-35 -115v-267h-95v297q0 62 -26.5 96t-79.5 34h-3q-55 0 -90 -44.5t-35 -115.5v-267h-95v500z" />
    <glyph glyph-name="n" unicode="n" horiz-adv-x="580" 
d="M76 500h95v-67q23 35 63 56t92 21q54 0 96 -24t65 -68t23 -101v-317h-95v295q0 62 -28.5 96.5t-83.5 34.5h-2q-58 0 -94 -44.5t-36 -115.5v-266h-95v500z" />
    <glyph glyph-name="o" unicode="o" horiz-adv-x="574" 
d="M163 23.5q-56 33.5 -88 93t-32 133.5t32 133.5t88 93t125 33.5t124.5 -33.5t87.5 -93t32 -133.5t-32 -133.5t-87.5 -93t-124.5 -33.5t-125 33.5zM365 93.5q33 22.5 52 63t19 93.5t-19 93.5t-52 63t-75 22.5h-6q-64 0 -104.5 -49.5t-40.5 -129.5t40.5 -129.5t104.5 -49.5
h6q42 0 75 22.5z" />
    <glyph glyph-name="p" unicode="p" horiz-adv-x="603" 
d="M76 500h95v-69q20 33 64 56t97 23q65 0 116.5 -32t80.5 -91t29 -137q0 -79 -30 -138t-82 -90.5t-117 -31.5q-53 0 -95 22t-63 56v-268h-95v700zM423.5 121q39.5 50 39.5 129t-39.5 129t-103.5 50h-6q-42 0 -75 -23t-51.5 -63.5t-18.5 -92.5t18.5 -92.5t51.5 -63.5t75 -23
h6q64 0 103.5 50z" />
    <glyph glyph-name="q" unicode="q" horiz-adv-x="602" 
d="M368 12q-42 -22 -96 -22q-65 0 -117 31.5t-82 90.5t-30 138q0 78 29.5 137t80.5 91t116 32q54 0 98 -23t64 -56v69h95v-700h-95v268q-21 -34 -63 -56zM363 94q33 23 51.5 63.5t18.5 92.5t-18.5 92.5t-51.5 63.5t-75 23h-6q-64 0 -103.5 -50t-39.5 -129t39.5 -129
t103.5 -50h6q42 0 75 23z" />
    <glyph glyph-name="r" unicode="r" horiz-adv-x="379" 
d="M76 500h91v-97q16 44 58.5 73t99.5 29h30v-89h-30q-154 0 -154 -187v-229h-95v500z" />
    <glyph glyph-name="s" unicode="s" horiz-adv-x="486" 
d="M94 36q-53 46 -55 119h93q4 -43 33.5 -65t76.5 -22h9q41 0 67 18.5t26 49.5q0 25 -17 41.5t-57 24.5l-73 13q-143 28 -143 143q0 70 53 111t131 41q95 0 146.5 -45t54.5 -119h-95q-4 37 -30.5 61.5t-72.5 24.5h-8q-40 0 -64 -19t-24 -47q0 -27 17 -42t58 -23l79 -15
q66 -13 103.5 -48.5t37.5 -97.5q0 -68 -54 -109t-142 -41q-97 0 -150 46z" />
    <glyph glyph-name="t" unicode="t" horiz-adv-x="388" 
d="M159 32.5q-32 32.5 -32 92.5v295h-109v80h109v162h95v-162h120v-80h-120v-282q0 -30 12 -42.5t43 -12.5h80v-83h-105q-61 0 -93 32.5z" />
    <glyph glyph-name="u" unicode="u" horiz-adv-x="570" 
d="M119 43q-49 53 -49 140v317h95v-295q0 -63 27 -97t79 -34h2q58 0 92.5 46t34.5 137v243h95v-500h-95v67q-23 -36 -62 -56.5t-90 -20.5q-80 0 -129 53z" />
    <glyph glyph-name="v" unicode="v" horiz-adv-x="522" 
d="M15 500h100l147 -416l147 416h97l-184 -500h-123z" />
    <glyph glyph-name="w" unicode="w" horiz-adv-x="774" 
d="M17 500h99l115 -403l104 403h104l109 -405l112 405h96l-153 -500h-110l-105 391l-105 -391h-110z" />
    <glyph glyph-name="x" unicode="x" horiz-adv-x="510" 
d="M201 253l-181 247h109l127 -172l127 172h106l-180 -245l186 -255h-110l-131 180l-133 -180h-107z" />
    <glyph glyph-name="y" unicode="y" horiz-adv-x="528" 
d="M29 -97h95q29 0 46 12.5t29 43.5l24 63l-222 478h104l165 -360l142 360h100l-230 -573q-25 -61 -60.5 -84.5t-94.5 -23.5h-98v84z" />
    <glyph glyph-name="z" unicode="z" horiz-adv-x="491" 
d="M41 82l287 336h-282v82h394v-81l-287 -337h302v-82h-414v82z" />
    <glyph glyph-name="braceleft" unicode="{" horiz-adv-x="347" 
d="M143.5 -107.5q-29.5 37.5 -29.5 117.5v205q0 39 -10 53t-40 14h-25v136h25q30 0 40 14t10 53v205q0 80 29.5 117.5t95.5 37.5h75v-82h-45q-36 0 -48 -16t-12 -60v-238q0 -46 -22 -67.5t-58 -21.5v-20q36 0 58 -21.5t22 -67.5v-238q0 -44 12 -60t48 -16h45v-82h-75
q-66 0 -95.5 37.5z" />
    <glyph glyph-name="bar" unicode="|" horiz-adv-x="278" 
d="M90 785h98v-870h-98v870z" />
    <glyph glyph-name="braceright" unicode="}" horiz-adv-x="346" 
d="M203.5 808.5q29.5 -37.5 29.5 -117.5v-205q0 -39 10 -53t40 -14h25v-136h-25q-30 0 -40 -14t-10 -53v-205q0 -80 -29.5 -117.5t-95.5 -37.5h-75v82h45q36 0 48 16t12 60v238q0 46 22 67.5t58 21.5v20q-36 0 -58 21.5t-22 67.5v238q0 44 -11.5 60t-48.5 16h-45v82h75
q66 0 95.5 -37.5z" />
    <glyph glyph-name="asciitilde" unicode="~" horiz-adv-x="487" 
d="M245 311l-27 16q-27 17 -46 17q-35 0 -35 -54h-71v22q0 47 27 76.5t72 29.5q37 0 82 -28l25 -15q29 -19 47 -19q17 0 26.5 13.5t9.5 40.5h70v-22q0 -47 -26 -76.5t-71 -29.5q-38 0 -83 29z" />
    <glyph glyph-name="uni00A0" unicode="&#xa0;" horiz-adv-x="240" 
 />
    <glyph glyph-name="exclamdown" unicode="&#xa1;" horiz-adv-x="256" 
d="M176 492q20 -20 20 -48q0 -29 -19.5 -49t-48.5 -20t-48.5 20t-19.5 49q0 28 20 48t48 20t48 -20zM177 25v-224h-99v224l25 283h49z" />
    <glyph glyph-name="cent" unicode="&#xa2;" horiz-adv-x="538" 
d="M268 -10l-19 -110h-82l21 127q-68 28 -106.5 92.5t-38.5 150.5q0 72 28 130.5t80.5 93.5t121.5 36l19 110h82l-20 -120q61 -19 99 -64t45 -106h-96q-5 27 -21 50t-41 36l-59 -345q47 0 79.5 29t41.5 70h97q-13 -80 -71.5 -130t-148.5 -50h-11zM155 159q17 -41 48 -64
l57 334q-57 -7 -89.5 -57.5t-32.5 -121.5q0 -50 17 -91z" />
    <glyph glyph-name="sterling" unicode="&#xa3;" horiz-adv-x="561" 
d="M42 86h31q66 0 71 74l9 118l-111 -26v86l118 28l9 124q8 104 59.5 157t152.5 53h105v-86h-108q-56 0 -82 -31.5t-31 -97.5l-7 -96l128 30v-86l-135 -32l-10 -130q-2 -31 -13 -50.5t-36 -34.5h344v-86h-494v86z" />
    <glyph glyph-name="currency" unicode="&#xa4;" horiz-adv-x="716" 
d="M200 92l-87 -83l-63 62l89 86q-43 67 -43 148q0 80 40 143l-86 86l63 62l85 -82q69 51 158 51q45 0 86 -14t74 -39l88 84l62 -62l-89 -89q39 -62 39 -140q0 -80 -41 -145l91 -89l-62 -62l-89 85q-70 -54 -159 -54q-87 0 -156 52zM441 149q36 23 56.5 63.5t20.5 92.5
q0 51 -20.5 90.5t-56.5 61.5t-80 22h-10q-44 0 -80 -22t-56.5 -61.5t-20.5 -90.5t21.5 -92t58.5 -64t81 -23h6q44 0 80 23z" />
    <glyph glyph-name="yen" unicode="&#xa5;" horiz-adv-x="633" 
d="M267 122l-140 -31v84l140 31v79l-170 -38v84l128 29l-207 340h111l190 -316l189 316h108l-178 -292l98 22v-84l-157 -35l-13 -22v-61l140 31v-83l-140 -31v-145h-99v122z" />
    <glyph glyph-name="brokenbar" unicode="&#xa6;" horiz-adv-x="278" 
d="M91 286h98v-371h-98v371zM91 785h98v-361h-98v361z" />
    <glyph glyph-name="section" unicode="&#xa7;" horiz-adv-x="530" 
d="M84 24h205q34 0 51.5 14.5t17.5 40.5q0 21 -17 36t-55 29l-139 52q-52 20 -77.5 52.5t-25.5 73.5q0 38 24 72.5t68 59.5q-57 42 -57 109t44.5 102t124.5 35h180v-84h-177q-36 0 -56.5 -13.5t-20.5 -39.5q0 -24 16.5 -38.5t54.5 -26.5l91 -30q77 -25 114.5 -57.5
t37.5 -90.5q0 -82 -93 -135q30 -23 44 -47t14 -59q0 -60 -41.5 -99.5t-128.5 -39.5h-199v84zM393 308q0 30 -25 47.5t-72 32.5l-87 28q-34 -14 -52 -38t-18 -48q0 -19 12 -31.5t27.5 -19.5t54.5 -22l88 -32q72 30 72 83z" />
    <glyph glyph-name="dieresis" unicode="&#xa8;" horiz-adv-x="360" 
d="M237.5 598q-15.5 16 -15.5 38q0 23 15.5 39t37.5 16q23 0 39 -16t16 -39q0 -22 -16.5 -38t-38.5 -16t-37.5 16zM46 598q-16 16 -16 38t16 38.5t38 16.5q23 0 39 -16t16 -39q0 -22 -16.5 -38t-38.5 -16t-38 16z" />
    <glyph glyph-name="copyright" unicode="&#xa9;" horiz-adv-x="869" 
d="M240.5 13q-89.5 53 -142.5 142.5t-53 194.5q0 106 52.5 195.5t142.5 142t195 52.5q106 0 195.5 -52.5t142 -142t52.5 -195.5q0 -105 -52.5 -195t-142 -142.5t-195.5 -52.5q-105 0 -194.5 53zM594 73q73 43 115.5 116.5t42.5 160.5t-42.5 160.5t-115.5 116.5t-159 43
t-159 -43t-116 -116.5t-43 -160.5t43 -160.5t116 -116.5t159 -43t159 43zM308 208.5q-48 52.5 -48 144.5q0 91 47.5 145t129.5 54q73 0 114.5 -36t45.5 -99h-79q-5 31 -26 48.5t-52 17.5h-7q-44 0 -68.5 -35.5t-24.5 -94.5t24.5 -93.5t68.5 -34.5h7q32 0 53.5 17.5
t25.5 49.5h80q-5 -64 -47 -100t-115 -36q-81 0 -129 52.5z" />
    <glyph glyph-name="ordfeminine" unicode="&#xaa;" horiz-adv-x="329" 
d="M54 432.5q-27 23.5 -27 62.5q0 42 30.5 64.5t83.5 25.5l73 6v8q0 23 -14.5 35.5t-39.5 12.5h-2q-22 0 -36 -9t-17 -25h-71q5 41 38.5 66.5t87.5 25.5q60 0 92.5 -30.5t32.5 -80.5v-116q0 -36 4 -63h-68q-1 9 -1.5 18.5t-1.5 17.5q-14 -18 -38.5 -30t-54.5 -12
q-44 0 -71 23.5zM192.5 483q21.5 18 21.5 50v7l-65 -5q-52 -4 -52 -37q0 -15 11.5 -24t32.5 -9h2q28 0 49.5 18z" />
    <glyph glyph-name="guillemotleft" unicode="&#xab;" horiz-adv-x="544" 
d="M248 285l145 215h109l-144 -214l144 -216h-109zM37 285l145 215h110l-145 -215l146 -215h-111z" />
    <glyph glyph-name="logicalnot" unicode="&#xac;" horiz-adv-x="605" 
d="M431 264h-365v87h463v-227h-98v140z" />
    <glyph glyph-name="registered" unicode="&#xae;" horiz-adv-x="869" 
d="M240.5 13q-89.5 53 -142.5 142.5t-53 194.5q0 106 52.5 195.5t142.5 142t195 52.5q106 0 195.5 -52.5t142 -142t52.5 -195.5q0 -105 -52.5 -195t-142 -142.5t-195.5 -52.5q-105 0 -194.5 53zM594 73q73 43 115.5 116.5t42.5 160.5t-42.5 160.5t-115.5 116.5t-159 43
t-159 -43t-116 -116.5t-43 -160.5t43 -160.5t116 -116.5t159 -43t159 43zM299 544h167q60 0 94 -30t34 -78q0 -32 -17 -56.5t-44 -34.5q31 -7 43.5 -24.5t12.5 -51.5v-42q0 -35 5 -61h-78q-5 20 -5 52v44q0 22 -11.5 33t-36.5 11h-86v-140h-78v378zM497.5 384.5
q17.5 13.5 17.5 38.5q0 28 -16.5 39.5t-50.5 11.5h-71v-103h71q32 0 49.5 13.5z" />
    <glyph glyph-name="macron" unicode="&#xaf;" horiz-adv-x="347" 
d="M30 661h287v-77h-287v77z" />
    <glyph glyph-name="degree" unicode="&#xb0;" horiz-adv-x="462" 
d="M136.5 364.5q-42.5 24.5 -66.5 66.5t-24 94t24 94t66.5 66.5t94.5 24.5t94 -24.5t66.5 -66.5t24.5 -94t-24.5 -94t-66.5 -66.5t-94 -24.5t-94.5 24.5zM300.5 452q28.5 30 28.5 73t-28.5 72.5t-69.5 29.5t-69 -29.5t-28 -72.5t28.5 -73t68.5 -30q41 0 69.5 30z" />
    <glyph glyph-name="plusminus" unicode="&#xb1;" horiz-adv-x="622" 
d="M262 284h-198v87h198v129h98v-129h198v-87h-198v-124h-98v124zM64 86h494v-86h-494v86z" />
    <glyph glyph-name="uni00B2" unicode="&#xb2;" horiz-adv-x="344" 
d="M32 494l137 114q33 28 48 47t15 42q0 25 -16 39t-41 14h-5q-24 0 -41.5 -15.5t-18.5 -43.5h-77q2 57 42 90.5t99 33.5q58 0 96.5 -31.5t38.5 -83.5q0 -39 -21 -68t-62 -62l-107 -89h193v-66h-280v79z" />
    <glyph glyph-name="uni00B3" unicode="&#xb3;" horiz-adv-x="350" 
d="M69.5 441.5q-40.5 31.5 -41.5 86.5h77q1 -25 18.5 -39.5t44.5 -14.5h5q28 0 46.5 15t18.5 41q0 25 -17.5 39t-43.5 14h-38v64h38q25 0 42 14.5t17 37.5q0 24 -17 38t-44 14h-5q-25 0 -41 -13.5t-18 -36.5h-77q1 55 40.5 84.5t99.5 29.5q58 0 97.5 -29t39.5 -80
q0 -31 -16.5 -55t-44.5 -35q27 -10 46 -34t19 -58q0 -54 -42.5 -84t-102.5 -30t-100.5 31.5z" />
    <glyph glyph-name="acute" unicode="&#xb4;" horiz-adv-x="215" 
d="M80 700h105l-92 -137h-64z" />
    <glyph glyph-name="uni00B5" unicode="&#xb5;" horiz-adv-x="595" 
d="M76 500h95v-308q0 -60 25 -91.5t74 -31.5h8q33 0 62 20t46.5 56t17.5 81v274h95v-370q0 -28 9.5 -39t36.5 -11h19v-80h-54q-86 0 -98 68q-23 -39 -61.5 -58.5t-83.5 -19.5q-29 0 -54.5 7.5t-41.5 21.5v-219h-95v700z" />
    <glyph glyph-name="paragraph" unicode="&#xb6;" horiz-adv-x="634" 
d="M234 299h-11q-56 0 -102 27t-73 73t-27 100t27 100.5t73 73.5t100 27h369v-82h-64v-818h-93v818h-107v-818h-92v499z" />
    <glyph glyph-name="periodcentered" unicode="&#xb7;" horiz-adv-x="259" 
d="M81 289q-20 20 -20 48t20 48.5t48 20.5q29 0 49 -20t20 -49q0 -28 -20.5 -48t-48.5 -20t-48 20z" />
    <glyph glyph-name="cedilla" unicode="&#xb8;" horiz-adv-x="238" 
d="M30 -170h69q22 0 33 9t11 26q0 16 -10.5 25t-30.5 9h-37v118h56v-66q38 -2 62.5 -25.5t24.5 -61.5q0 -45 -30.5 -72t-80.5 -27h-67v65z" />
    <glyph glyph-name="uni00B9" unicode="&#xb9;" horiz-adv-x="233" 
d="M103 666h-87v51q85 4 105 93h57v-395h-75v251z" />
    <glyph glyph-name="ordmasculine" unicode="&#xba;" horiz-adv-x="346" 
d="M69 452q-41 42 -41 106q0 63 41.5 105t104.5 42t103.5 -42t40.5 -105q0 -64 -40.5 -106t-103.5 -42q-64 0 -105 42zM226 494q19 24 19 64q0 39 -19 62.5t-51 23.5h-3q-31 0 -50.5 -23.5t-19.5 -62.5q0 -40 19.5 -64t50.5 -24h3q32 0 51 24z" />
    <glyph glyph-name="guillemotright" unicode="&#xbb;" horiz-adv-x="544" 
d="M296 285l-145 -215h-109l144 214l-144 216h109zM507 285l-145 -215h-110l145 215l-146 215h111z" />
    <glyph glyph-name="onequarter" unicode="&#xbc;" horiz-adv-x="711" 
d="M103 556h-87v51q85 4 105 93h57v-395h-75v251zM477 700h87l-420 -700h-87zM557 87h-189v68l181 240h79v-246h56v-62h-56v-87h-71v87zM557 149v158l-117 -158h117z" />
    <glyph glyph-name="onehalf" unicode="&#xbd;" horiz-adv-x="726" 
d="M103 556h-87v51q85 4 105 93h57v-395h-75v251zM477 700h87l-420 -700h-87zM412 79l137 114q33 28 48 47t15 42q0 25 -16 39t-41 14h-5q-24 0 -41.5 -15.5t-18.5 -43.5h-77q2 57 42 90.5t99 33.5q58 0 96.5 -31.5t38.5 -83.5q0 -39 -21 -68t-62 -62l-107 -89h193v-66h-280
v79z" />
    <glyph glyph-name="threequarters" unicode="&#xbe;" horiz-adv-x="817" 
d="M69.5 331.5q-40.5 31.5 -41.5 86.5h77q1 -25 18.5 -39.5t44.5 -14.5h5q28 0 46.5 15t18.5 41q0 25 -17.5 39t-43.5 14h-38v64h38q25 0 42 14.5t17 37.5q0 24 -17 38t-44 14h-5q-25 0 -41 -13.5t-18 -36.5h-77q1 55 40.5 84.5t99.5 29.5q58 0 97.5 -29t39.5 -80
q0 -31 -16.5 -55t-44.5 -35q27 -10 46 -34t19 -58q0 -54 -42.5 -84t-102.5 -30t-100.5 31.5zM583 700h87l-420 -700h-87zM663 87h-189v68l181 240h79v-246h56v-62h-56v-87h-71v87zM663 149v158l-117 -158h117z" />
    <glyph glyph-name="questiondown" unicode="&#xbf;" horiz-adv-x="478" 
d="M315.5 154q-16.5 -25 -55.5 -40l-27 -11q-55 -22 -83 -46.5t-28 -73.5q0 -46 31.5 -76.5t87.5 -30.5q52 0 84 28.5t38 78.5h97q-3 -59 -33.5 -102t-80 -66t-108.5 -23q-60 0 -109 23t-77 65.5t-28 97.5q0 129 134 186l35 15q27 11 35 19.5t8 28.5v70h96v-79
q0 -39 -16.5 -64zM331 493q20 -20 20 -48q0 -29 -19.5 -49t-48.5 -20t-48.5 20t-19.5 49q0 28 20 48t48 20t48 -20z" />
    <glyph glyph-name="Agrave" unicode="&#xc0;" horiz-adv-x="696" 
d="M287 700h124l277 -700h-105l-70 177h-333l-69 -177h-104zM478 268l-132 334l-130 -334h262zM226 890h118l47 -132h-72z" />
    <glyph glyph-name="Aacute" unicode="&#xc1;" horiz-adv-x="696" 
d="M287 700h124l277 -700h-105l-70 177h-333l-69 -177h-104zM478 268l-132 334l-130 -334h262zM360 890h118l-93 -132h-72z" />
    <glyph glyph-name="Acircumflex" unicode="&#xc2;" horiz-adv-x="696" 
d="M287 700h124l277 -700h-105l-70 177h-333l-69 -177h-104zM478 268l-132 334l-130 -334h262zM291 890h117l113 -132h-84l-87 67l-88 -67h-84z" />
    <glyph glyph-name="Atilde" unicode="&#xc3;" horiz-adv-x="696" 
d="M287 700h124l277 -700h-105l-70 177h-333l-69 -177h-104zM478 268l-132 334l-130 -334h262zM391 763q-20 8 -45 24l-25 16q-24 16 -45 16q-35 0 -35 -54h-70v26q0 44 27.5 74t70.5 30q37 0 79 -27l23 -17q31 -20 51 -20q17 0 26 13.5t9 40.5h70v-26q0 -45 -26.5 -74.5
t-69.5 -29.5q-20 0 -40 8z" />
    <glyph glyph-name="Adieresis" unicode="&#xc4;" horiz-adv-x="696" 
d="M287 700h124l277 -700h-105l-70 177h-333l-69 -177h-104zM478 268l-132 334l-130 -334h262zM408 789q-16 16 -16 39t16 39.5t39 16.5t39.5 -16.5t16.5 -39.5t-16.5 -39t-39.5 -16t-39 16zM213.5 789.5q-16.5 16.5 -16.5 38.5q0 23 16 39.5t39 16.5t39.5 -16.5t16.5 -39.5
t-16.5 -39t-39.5 -16q-22 0 -38.5 16.5z" />
    <glyph glyph-name="Aring" unicode="&#xc5;" horiz-adv-x="696" 
d="M287 700h124l277 -700h-105l-70 177h-333l-69 -177h-104zM478 268l-132 334l-130 -334h262zM285.5 774q-27.5 26 -27.5 64t27.5 64.5t63.5 26.5q37 0 64.5 -26.5t27.5 -64.5t-27.5 -64t-64.5 -26q-36 0 -63.5 26zM374 813.5q10 10.5 10 24.5t-10 25t-24 11t-24.5 -11
t-10.5 -25q0 -13 11 -24t24 -11q14 0 24 10.5z" />
    <glyph glyph-name="AE" unicode="&#xc6;" horiz-adv-x="979" 
d="M381 700h515v-90h-360l30 -205h300v-90h-290l31 -225h349v-90h-434l-26 180h-303l-101 -180h-109zM484 270l-48 342l-192 -342h240z" />
    <glyph glyph-name="Ccedilla" unicode="&#xc7;" horiz-adv-x="716" 
d="M312 -170h69q22 0 33 9t11 26q0 16 -10.5 25t-30.5 9h-37v92q-91 7 -158.5 55.5t-103.5 127t-36 176.5q0 103 40.5 185t115.5 128.5t173 46.5q79 0 142.5 -30.5t103.5 -85t48 -125.5h-102q-12 67 -62 108.5t-126 41.5h-8q-68 0 -119 -35t-78 -96t-27 -138t27 -138t78 -96
t119 -35h8q76 0 126.5 41.5t62.5 109.5h101q-8 -67 -44 -120t-94 -84.5t-131 -36.5v-40q38 -2 62.5 -25.5t24.5 -61.5q0 -45 -30.5 -72t-80.5 -27h-67v65z" />
    <glyph glyph-name="Egrave" unicode="&#xc8;" horiz-adv-x="653" 
d="M90 700h509v-90h-409v-205h349v-90h-349v-225h419v-90h-519v700zM221 890h118l47 -132h-72z" />
    <glyph glyph-name="Eacute" unicode="&#xc9;" horiz-adv-x="653" 
d="M90 700h509v-90h-409v-205h349v-90h-349v-225h419v-90h-519v700zM355 890h118l-93 -132h-72z" />
    <glyph glyph-name="Ecircumflex" unicode="&#xca;" horiz-adv-x="653" 
d="M90 700h509v-90h-409v-205h349v-90h-349v-225h419v-90h-519v700zM286 890h117l113 -132h-84l-87 67l-88 -67h-84z" />
    <glyph glyph-name="Edieresis" unicode="&#xcb;" horiz-adv-x="653" 
d="M90 700h509v-90h-409v-205h349v-90h-349v-225h419v-90h-519v700zM403 789q-16 16 -16 39t16 39.5t39 16.5t39.5 -16.5t16.5 -39.5t-16.5 -39t-39.5 -16t-39 16zM208.5 789.5q-16.5 16.5 -16.5 38.5q0 23 16 39.5t39 16.5t39.5 -16.5t16.5 -39.5t-16.5 -39t-39.5 -16
q-22 0 -38.5 16.5z" />
    <glyph glyph-name="Igrave" unicode="&#xcc;" horiz-adv-x="279" 
d="M90 700h100v-700h-100v700zM17 890h118l47 -132h-72z" />
    <glyph glyph-name="Iacute" unicode="&#xcd;" horiz-adv-x="279" 
d="M90 700h100v-700h-100v700zM151 890h118l-93 -132h-72z" />
    <glyph glyph-name="Icircumflex" unicode="&#xce;" horiz-adv-x="279" 
d="M90 700h100v-700h-100v700zM82 890h117l113 -132h-84l-87 67l-88 -67h-84z" />
    <glyph glyph-name="Idieresis" unicode="&#xcf;" horiz-adv-x="279" 
d="M90 700h100v-700h-100v700zM199 789q-16 16 -16 39t16 39.5t39 16.5t39.5 -16.5t16.5 -39.5t-16.5 -39t-39.5 -16t-39 16zM4.5 789.5q-16.5 16.5 -16.5 38.5q0 23 16 39.5t39 16.5t39.5 -16.5t16.5 -39.5t-16.5 -39t-39.5 -16q-22 0 -38.5 16.5z" />
    <glyph glyph-name="Eth" unicode="&#xd0;" horiz-adv-x="752" 
d="M128 306h-90v88h90v306h244q99 0 173.5 -41.5t115.5 -121t41 -188.5t-40.5 -188t-114.5 -120t-173 -41h-246v306zM539.5 155.5q62.5 65.5 62.5 194.5t-62.5 194.5t-177.5 65.5h-134v-216h149v-88h-149v-216h134q115 0 177.5 65.5z" />
    <glyph glyph-name="Ntilde" unicode="&#xd1;" horiz-adv-x="744" 
d="M90 700h134l330 -567v567h100v-700h-134l-330 571v-571h-100v700zM417 763q-20 8 -45 24l-25 16q-24 16 -45 16q-35 0 -35 -54h-70v26q0 44 27.5 74t70.5 30q37 0 79 -27l23 -17q31 -20 51 -20q17 0 26 13.5t9 40.5h70v-26q0 -45 -26.5 -74.5t-69.5 -29.5q-20 0 -40 8z
" />
    <glyph glyph-name="Ograve" unicode="&#xd2;" horiz-adv-x="769" 
d="M212.5 34.5q-76.5 44.5 -120.5 126.5t-44 189q0 108 44 189.5t120.5 126t171.5 44.5t171.5 -44.5t120.5 -126t44 -189.5q0 -107 -44 -189t-120.5 -126.5t-171.5 -44.5t-171.5 44.5zM506.5 114q52.5 33 82.5 94t30 142q0 82 -30 143t-82.5 93.5t-118.5 32.5h-8
q-66 0 -118.5 -32.5t-82.5 -93.5t-30 -143q0 -81 30 -142t82.5 -94t118.5 -33h8q66 0 118.5 33zM261 890h118l47 -132h-72z" />
    <glyph glyph-name="Oacute" unicode="&#xd3;" horiz-adv-x="769" 
d="M212.5 34.5q-76.5 44.5 -120.5 126.5t-44 189q0 108 44 189.5t120.5 126t171.5 44.5t171.5 -44.5t120.5 -126t44 -189.5q0 -107 -44 -189t-120.5 -126.5t-171.5 -44.5t-171.5 44.5zM506.5 114q52.5 33 82.5 94t30 142q0 82 -30 143t-82.5 93.5t-118.5 32.5h-8
q-66 0 -118.5 -32.5t-82.5 -93.5t-30 -143q0 -81 30 -142t82.5 -94t118.5 -33h8q66 0 118.5 33zM395 890h118l-93 -132h-72z" />
    <glyph glyph-name="Ocircumflex" unicode="&#xd4;" horiz-adv-x="769" 
d="M212.5 34.5q-76.5 44.5 -120.5 126.5t-44 189q0 108 44 189.5t120.5 126t171.5 44.5t171.5 -44.5t120.5 -126t44 -189.5q0 -107 -44 -189t-120.5 -126.5t-171.5 -44.5t-171.5 44.5zM506.5 114q52.5 33 82.5 94t30 142q0 82 -30 143t-82.5 93.5t-118.5 32.5h-8
q-66 0 -118.5 -32.5t-82.5 -93.5t-30 -143q0 -81 30 -142t82.5 -94t118.5 -33h8q66 0 118.5 33zM326 890h117l113 -132h-84l-87 67l-88 -67h-84z" />
    <glyph glyph-name="Otilde" unicode="&#xd5;" horiz-adv-x="769" 
d="M212.5 34.5q-76.5 44.5 -120.5 126.5t-44 189q0 108 44 189.5t120.5 126t171.5 44.5t171.5 -44.5t120.5 -126t44 -189.5q0 -107 -44 -189t-120.5 -126.5t-171.5 -44.5t-171.5 44.5zM506.5 114q52.5 33 82.5 94t30 142q0 82 -30 143t-82.5 93.5t-118.5 32.5h-8
q-66 0 -118.5 -32.5t-82.5 -93.5t-30 -143q0 -81 30 -142t82.5 -94t118.5 -33h8q66 0 118.5 33zM426 763q-20 8 -45 24l-25 16q-24 16 -45 16q-35 0 -35 -54h-70v26q0 44 27.5 74t70.5 30q37 0 79 -27l23 -17q31 -20 51 -20q17 0 26 13.5t9 40.5h70v-26q0 -45 -26.5 -74.5
t-69.5 -29.5q-20 0 -40 8z" />
    <glyph glyph-name="Odieresis" unicode="&#xd6;" horiz-adv-x="769" 
d="M212.5 34.5q-76.5 44.5 -120.5 126.5t-44 189q0 108 44 189.5t120.5 126t171.5 44.5t171.5 -44.5t120.5 -126t44 -189.5q0 -107 -44 -189t-120.5 -126.5t-171.5 -44.5t-171.5 44.5zM506.5 114q52.5 33 82.5 94t30 142q0 82 -30 143t-82.5 93.5t-118.5 32.5h-8
q-66 0 -118.5 -32.5t-82.5 -93.5t-30 -143q0 -81 30 -142t82.5 -94t118.5 -33h8q66 0 118.5 33zM443 789q-16 16 -16 39t16 39.5t39 16.5t39.5 -16.5t16.5 -39.5t-16.5 -39t-39.5 -16t-39 16zM248.5 789.5q-16.5 16.5 -16.5 38.5q0 23 16 39.5t39 16.5t39.5 -16.5
t16.5 -39.5t-16.5 -39t-39.5 -16q-22 0 -38.5 16.5z" />
    <glyph glyph-name="multiply" unicode="&#xd7;" horiz-adv-x="545" 
d="M56 104l154 154l-154 153l63 63l154 -153l154 153l62 -63l-154 -153l154 -154l-63 -63l-154 154l-153 -154z" />
    <glyph glyph-name="Oslash" unicode="&#xd8;" horiz-adv-x="773" 
d="M202 43l-63 -79l-71 56l66 83q-83 99 -83 247q0 108 44 189.5t120.5 126t171.5 44.5q104 0 184 -52l62 78l71 -56l-65 -82q40 -47 62 -110t22 -138q0 -107 -44 -189t-120.5 -126.5t-171.5 -44.5q-104 0 -185 53zM509.5 114q52.5 33 82.5 94t30 142q0 99 -45 169
l-317 -402q54 -36 123 -36h8q66 0 118.5 33zM196 182l317 402q-53 35 -122 35h-8q-66 0 -118.5 -32.5t-82.5 -93.5t-30 -143q0 -99 44 -168z" />
    <glyph glyph-name="Ugrave" unicode="&#xd9;" horiz-adv-x="696" 
d="M149.5 59q-66.5 69 -66.5 190v451h100v-439q0 -88 41 -134.5t119 -46.5h10q78 0 119 46.5t41 134.5v439h100v-451q0 -120 -67.5 -189.5t-197.5 -69.5q-132 0 -198.5 69zM225 890h118l47 -132h-72z" />
    <glyph glyph-name="Uacute" unicode="&#xda;" horiz-adv-x="696" 
d="M149.5 59q-66.5 69 -66.5 190v451h100v-439q0 -88 41 -134.5t119 -46.5h10q78 0 119 46.5t41 134.5v439h100v-451q0 -120 -67.5 -189.5t-197.5 -69.5q-132 0 -198.5 69zM359 890h118l-93 -132h-72z" />
    <glyph glyph-name="Ucircumflex" unicode="&#xdb;" horiz-adv-x="696" 
d="M149.5 59q-66.5 69 -66.5 190v451h100v-439q0 -88 41 -134.5t119 -46.5h10q78 0 119 46.5t41 134.5v439h100v-451q0 -120 -67.5 -189.5t-197.5 -69.5q-132 0 -198.5 69zM290 890h117l113 -132h-84l-87 67l-88 -67h-84z" />
    <glyph glyph-name="Udieresis" unicode="&#xdc;" horiz-adv-x="696" 
d="M149.5 59q-66.5 69 -66.5 190v451h100v-439q0 -88 41 -134.5t119 -46.5h10q78 0 119 46.5t41 134.5v439h100v-451q0 -120 -67.5 -189.5t-197.5 -69.5q-132 0 -198.5 69zM407 789q-16 16 -16 39t16 39.5t39 16.5t39.5 -16.5t16.5 -39.5t-16.5 -39t-39.5 -16t-39 16z
M212.5 789.5q-16.5 16.5 -16.5 38.5q0 23 16 39.5t39 16.5t39.5 -16.5t16.5 -39.5t-16.5 -39t-39.5 -16q-22 0 -38.5 16.5z" />
    <glyph glyph-name="Yacute" unicode="&#xdd;" horiz-adv-x="624" 
d="M262 288l-254 412h115l192 -315l190 315h110l-253 -412v-288h-100v288zM324 890h118l-93 -132h-72z" />
    <glyph glyph-name="Thorn" unicode="&#xde;" horiz-adv-x="652" 
d="M90 700h100v-138h195q65 0 115.5 -25t79.5 -73t29 -114t-29 -114t-79.5 -73t-115.5 -25h-195v-138h-100v700zM370 228q66 0 102.5 31.5t36.5 90.5t-36.5 90.5t-102.5 31.5h-180v-244h180z" />
    <glyph glyph-name="germandbls" unicode="&#xdf;" horiz-adv-x="549" 
d="M131.5 653q55.5 57 150.5 57q60 0 105 -24t69 -65t24 -90q0 -61 -32 -102t-77 -56q31 -4 62 -26t51.5 -59.5t20.5 -85.5q0 -94 -60 -148t-161 -54h-53v83h41q67 0 102.5 33.5t35.5 90.5q0 58 -39 90t-97 32h-43v79h38q52 0 85.5 34t33.5 81t-28 77.5t-73 30.5h-9
q-47 0 -77 -33.5t-30 -100.5v-682h-95v687q0 94 55.5 151z" />
    <glyph glyph-name="agrave" unicode="&#xe0;" horiz-adv-x="551" 
d="M93 32q-48 42 -48 107q0 140 196 155l146 11v16q0 51 -33 80.5t-86 29.5h-4q-44 0 -75.5 -20.5t-39.5 -55.5h-93q10 68 67.5 111.5t144.5 43.5q103 0 158 -54t55 -139v-207q0 -75 5 -110h-88q-3 15 -4.5 37.5t-1.5 37.5q-22 -35 -68 -60t-104 -25q-79 0 -127 42zM309 85
q34 16 56 48t22 77v22l-134 -9q-57 -4 -86 -24.5t-29 -55.5q0 -32 26.5 -53t70.5 -21h4q36 0 70 16zM146 700h105l51 -137h-65z" />
    <glyph glyph-name="aacute" unicode="&#xe1;" horiz-adv-x="551" 
d="M93 32q-48 42 -48 107q0 140 196 155l146 11v16q0 51 -33 80.5t-86 29.5h-4q-44 0 -75.5 -20.5t-39.5 -55.5h-93q10 68 67.5 111.5t144.5 43.5q103 0 158 -54t55 -139v-207q0 -75 5 -110h-88q-3 15 -4.5 37.5t-1.5 37.5q-22 -35 -68 -60t-104 -25q-79 0 -127 42zM309 85
q34 16 56 48t22 77v22l-134 -9q-57 -4 -86 -24.5t-29 -55.5q0 -32 26.5 -53t70.5 -21h4q36 0 70 16zM287 700h105l-92 -137h-64z" />
    <glyph glyph-name="acircumflex" unicode="&#xe2;" horiz-adv-x="551" 
d="M93 32q-48 42 -48 107q0 140 196 155l146 11v16q0 51 -33 80.5t-86 29.5h-4q-44 0 -75.5 -20.5t-39.5 -55.5h-93q10 68 67.5 111.5t144.5 43.5q103 0 158 -54t55 -139v-207q0 -75 5 -110h-88q-3 15 -4.5 37.5t-1.5 37.5q-22 -35 -68 -60t-104 -25q-79 0 -127 42zM309 85
q34 16 56 48t22 77v22l-134 -9q-57 -4 -86 -24.5t-29 -55.5q0 -32 26.5 -53t70.5 -21h4q36 0 70 16zM216 700h105l117 -137h-69l-100 75l-100 -75h-70z" />
    <glyph glyph-name="atilde" unicode="&#xe3;" horiz-adv-x="551" 
d="M93 32q-48 42 -48 107q0 140 196 155l146 11v16q0 51 -33 80.5t-86 29.5h-4q-44 0 -75.5 -20.5t-39.5 -55.5h-93q10 68 67.5 111.5t144.5 43.5q103 0 158 -54t55 -139v-207q0 -75 5 -110h-88q-3 15 -4.5 37.5t-1.5 37.5q-22 -35 -68 -60t-104 -25q-79 0 -127 42zM309 85
q34 16 56 48t22 77v22l-134 -9q-57 -4 -86 -24.5t-29 -55.5q0 -32 26.5 -53t70.5 -21h4q36 0 70 16zM266 588l-25 17q-12 8 -22 12t-22 4q-16 0 -26 -14t-10 -40h-70v25q0 44 27.5 74t70.5 30q40 0 80 -28l22 -16q31 -20 51 -20q17 0 26 13.5t9 40.5h70v-26
q0 -44 -27.5 -73.5t-68.5 -29.5q-39 0 -85 31z" />
    <glyph glyph-name="adieresis" unicode="&#xe4;" horiz-adv-x="551" 
d="M93 32q-48 42 -48 107q0 140 196 155l146 11v16q0 51 -33 80.5t-86 29.5h-4q-44 0 -75.5 -20.5t-39.5 -55.5h-93q10 68 67.5 111.5t144.5 43.5q103 0 158 -54t55 -139v-207q0 -75 5 -110h-88q-3 15 -4.5 37.5t-1.5 37.5q-22 -35 -68 -60t-104 -25q-79 0 -127 42zM309 85
q34 16 56 48t22 77v22l-134 -9q-57 -4 -86 -24.5t-29 -55.5q0 -32 26.5 -53t70.5 -21h4q36 0 70 16zM326.5 598q-15.5 16 -15.5 38q0 23 15.5 39t37.5 16q23 0 39 -16t16 -39q0 -22 -16.5 -38t-38.5 -16t-37.5 16zM135 598q-16 16 -16 38t16 38.5t38 16.5q23 0 39 -16
t16 -39q0 -22 -16.5 -38t-38.5 -16t-38 16z" />
    <glyph glyph-name="aring" unicode="&#xe5;" horiz-adv-x="551" 
d="M93 32q-48 42 -48 107q0 140 196 155l146 11v16q0 51 -33 80.5t-86 29.5h-4q-44 0 -75.5 -20.5t-39.5 -55.5h-93q10 68 67.5 111.5t144.5 43.5q103 0 158 -54t55 -139v-207q0 -75 5 -110h-88q-3 15 -4.5 37.5t-1.5 37.5q-22 -35 -68 -60t-104 -25q-79 0 -127 42zM309 85
q34 16 56 48t22 77v22l-134 -9q-57 -4 -86 -24.5t-29 -55.5q0 -32 26.5 -53t70.5 -21h4q36 0 70 16zM202 581q-28 27 -28 67q0 39 28.5 66.5t65.5 27.5q39 0 67 -27.5t28 -66.5q0 -40 -28 -67t-67 -27q-38 0 -66 27zM299.5 617q12.5 13 12.5 31t-12.5 31t-30.5 13t-31 -13
t-13 -31t13 -31t31 -13t30.5 13z" />
    <glyph glyph-name="ae" unicode="&#xe6;" horiz-adv-x="889" 
d="M93.5 32q-48.5 42 -48.5 107q0 140 196 155l146 11v16q0 52 -33 81.5t-86 29.5h-4q-43 0 -75 -21t-40 -56h-93q10 68 67.5 111.5t144.5 43.5q124 0 179 -82q32 40 77.5 61t98.5 21q58 0 106 -25.5t77.5 -73t34.5 -110.5q3 -22 3 -67h-360q3 -78 42 -121.5t96 -43.5h6
q43 0 73 21.5t41 61.5h96q-17 -74 -74.5 -118t-139.5 -44q-63 0 -113 27.5t-81 78.5q-28 -46 -80.5 -76t-127.5 -30q-80 0 -128.5 42zM309 84.5q34 16.5 56 48.5t22 77v23l-134 -9q-57 -4 -86 -25t-29 -56q0 -33 26.5 -54t70.5 -21h4q36 0 70 16.5zM710 398.5
q-33 33.5 -84 33.5h-7q-48 0 -84 -31.5t-47 -92.5h259q-4 57 -37 90.5z" />
    <glyph glyph-name="ccedilla" unicode="&#xe7;" horiz-adv-x="541" 
d="M217 -170h69q22 0 33 9t11 26q0 16 -10.5 25t-30.5 9h-37v92q-64 7 -111 42.5t-72 92t-25 124.5q0 73 29 132t82.5 93.5t124.5 34.5q60 0 107.5 -23t76.5 -64t35 -93h-96q-7 42 -40 71t-81 29h-4q-64 0 -101.5 -51.5t-37.5 -128.5q0 -76 37.5 -127.5t102.5 -51.5h3
q48 0 80 28.5t41 70.5h97q-12 -74 -62.5 -122.5t-129.5 -56.5v-40q38 -2 62.5 -25.5t24.5 -61.5q0 -45 -30.5 -72t-80.5 -27h-67v65z" />
    <glyph glyph-name="egrave" unicode="&#xe8;" horiz-adv-x="545" 
d="M159.5 22q-53.5 32 -84.5 91t-31 138q0 78 31.5 136.5t84.5 90.5t117 32q89 0 149 -54t72 -147q4 -34 3 -77h-362q3 -76 42.5 -119t95.5 -43h6q42 0 73 22t42 60h96q-17 -72 -75.5 -117t-139.5 -45q-66 0 -119.5 32zM366 397.5q-34 33.5 -85 33.5h-7q-48 0 -84.5 -30.5
t-47.5 -93.5h262q-4 57 -38 90.5zM154 700h105l51 -137h-65z" />
    <glyph glyph-name="eacute" unicode="&#xe9;" horiz-adv-x="545" 
d="M159.5 22q-53.5 32 -84.5 91t-31 138q0 78 31.5 136.5t84.5 90.5t117 32q89 0 149 -54t72 -147q4 -34 3 -77h-362q3 -76 42.5 -119t95.5 -43h6q42 0 73 22t42 60h96q-17 -72 -75.5 -117t-139.5 -45q-66 0 -119.5 32zM366 397.5q-34 33.5 -85 33.5h-7q-48 0 -84.5 -30.5
t-47.5 -93.5h262q-4 57 -38 90.5zM295 700h105l-92 -137h-64z" />
    <glyph glyph-name="ecircumflex" unicode="&#xea;" horiz-adv-x="545" 
d="M159.5 22q-53.5 32 -84.5 91t-31 138q0 78 31.5 136.5t84.5 90.5t117 32q89 0 149 -54t72 -147q4 -34 3 -77h-362q3 -76 42.5 -119t95.5 -43h6q42 0 73 22t42 60h96q-17 -72 -75.5 -117t-139.5 -45q-66 0 -119.5 32zM366 397.5q-34 33.5 -85 33.5h-7q-48 0 -84.5 -30.5
t-47.5 -93.5h262q-4 57 -38 90.5zM224 700h105l117 -137h-69l-100 75l-100 -75h-70z" />
    <glyph glyph-name="edieresis" unicode="&#xeb;" horiz-adv-x="545" 
d="M159.5 22q-53.5 32 -84.5 91t-31 138q0 78 31.5 136.5t84.5 90.5t117 32q89 0 149 -54t72 -147q4 -34 3 -77h-362q3 -76 42.5 -119t95.5 -43h6q42 0 73 22t42 60h96q-17 -72 -75.5 -117t-139.5 -45q-66 0 -119.5 32zM366 397.5q-34 33.5 -85 33.5h-7q-48 0 -84.5 -30.5
t-47.5 -93.5h262q-4 57 -38 90.5zM334.5 598q-15.5 16 -15.5 38q0 23 15.5 39t37.5 16q23 0 39 -16t16 -39q0 -22 -16.5 -38t-38.5 -16t-37.5 16zM143 598q-16 16 -16 38t16 38.5t38 16.5q23 0 39 -16t16 -39q0 -22 -16.5 -38t-38.5 -16t-38 16z" />
    <glyph glyph-name="igrave" unicode="&#xec;" horiz-adv-x="246" 
d="M76 500h95v-500h-95v500zM1 700h105l51 -137h-65z" />
    <glyph glyph-name="iacute" unicode="&#xed;" horiz-adv-x="246" 
d="M76 500h95v-500h-95v500zM142 700h105l-92 -137h-64z" />
    <glyph glyph-name="icircumflex" unicode="&#xee;" horiz-adv-x="246" 
d="M76 500h95v-500h-95v500zM71 700h105l117 -137h-69l-100 75l-100 -75h-70z" />
    <glyph glyph-name="idieresis" unicode="&#xef;" horiz-adv-x="246" 
d="M76 500h95v-500h-95v500zM181.5 598q-15.5 16 -15.5 38q0 23 15.5 39t37.5 16q23 0 39 -16t16 -39q0 -22 -16.5 -38t-38.5 -16t-37.5 16zM-10 598q-16 16 -16 38t16 38.5t38 16.5q23 0 39 -16t16 -39q0 -22 -16.5 -38t-38.5 -16t-38 16z" />
    <glyph glyph-name="eth" unicode="&#xf0;" horiz-adv-x="577" 
d="M153.5 22.5q-52.5 32.5 -81 89.5t-28.5 129q0 65 27 118.5t77 84.5t115 31q49 0 90 -17.5t66 -48.5q-23 102 -104 160l-108 -50l-30 61l63 29q-46 18 -96 28l20 81q103 -19 176 -62l116 54l30 -61l-84 -39q65 -60 93 -141t28 -171q0 -95 -29.5 -164.5t-85 -106.5
t-131.5 -37q-71 0 -123.5 32.5zM356 89.5q32 20.5 51 59.5t19 91q0 72 -40.5 114.5t-100.5 42.5h-10q-62 0 -99.5 -42t-37.5 -115q0 -79 38 -125t100 -46h9q39 0 71 20.5z" />
    <glyph glyph-name="ntilde" unicode="&#xf1;" horiz-adv-x="580" 
d="M76 500h95v-67q23 35 63 56t92 21q54 0 96 -24t65 -68t23 -101v-317h-95v295q0 62 -28.5 96.5t-83.5 34.5h-2q-58 0 -94 -44.5t-36 -115.5v-266h-95v500zM290 588l-25 17q-12 8 -22 12t-22 4q-16 0 -26 -14t-10 -40h-70v25q0 44 27.5 74t70.5 30q40 0 80 -28l22 -16
q31 -20 51 -20q17 0 26 13.5t9 40.5h70v-26q0 -44 -27.5 -73.5t-68.5 -29.5q-39 0 -85 31z" />
    <glyph glyph-name="ograve" unicode="&#xf2;" horiz-adv-x="574" 
d="M163 23.5q-56 33.5 -88 93t-32 133.5t32 133.5t88 93t125 33.5t124.5 -33.5t87.5 -93t32 -133.5t-32 -133.5t-87.5 -93t-124.5 -33.5t-125 33.5zM365 93.5q33 22.5 52 63t19 93.5t-19 93.5t-52 63t-75 22.5h-6q-64 0 -104.5 -49.5t-40.5 -129.5t40.5 -129.5t104.5 -49.5
h6q42 0 75 22.5zM165 700h105l51 -137h-65z" />
    <glyph glyph-name="oacute" unicode="&#xf3;" horiz-adv-x="574" 
d="M163 23.5q-56 33.5 -88 93t-32 133.5t32 133.5t88 93t125 33.5t124.5 -33.5t87.5 -93t32 -133.5t-32 -133.5t-87.5 -93t-124.5 -33.5t-125 33.5zM365 93.5q33 22.5 52 63t19 93.5t-19 93.5t-52 63t-75 22.5h-6q-64 0 -104.5 -49.5t-40.5 -129.5t40.5 -129.5t104.5 -49.5
h6q42 0 75 22.5zM306 700h105l-92 -137h-64z" />
    <glyph glyph-name="ocircumflex" unicode="&#xf4;" horiz-adv-x="574" 
d="M163 23.5q-56 33.5 -88 93t-32 133.5t32 133.5t88 93t125 33.5t124.5 -33.5t87.5 -93t32 -133.5t-32 -133.5t-87.5 -93t-124.5 -33.5t-125 33.5zM365 93.5q33 22.5 52 63t19 93.5t-19 93.5t-52 63t-75 22.5h-6q-64 0 -104.5 -49.5t-40.5 -129.5t40.5 -129.5t104.5 -49.5
h6q42 0 75 22.5zM235 700h105l117 -137h-69l-100 75l-100 -75h-70z" />
    <glyph glyph-name="otilde" unicode="&#xf5;" horiz-adv-x="574" 
d="M163 23.5q-56 33.5 -88 93t-32 133.5t32 133.5t88 93t125 33.5t124.5 -33.5t87.5 -93t32 -133.5t-32 -133.5t-87.5 -93t-124.5 -33.5t-125 33.5zM365 93.5q33 22.5 52 63t19 93.5t-19 93.5t-52 63t-75 22.5h-6q-64 0 -104.5 -49.5t-40.5 -129.5t40.5 -129.5t104.5 -49.5
h6q42 0 75 22.5zM285 588l-25 17q-12 8 -22 12t-22 4q-16 0 -26 -14t-10 -40h-70v25q0 44 27.5 74t70.5 30q40 0 80 -28l22 -16q31 -20 51 -20q17 0 26 13.5t9 40.5h70v-26q0 -44 -27.5 -73.5t-68.5 -29.5q-39 0 -85 31z" />
    <glyph glyph-name="odieresis" unicode="&#xf6;" horiz-adv-x="574" 
d="M163 23.5q-56 33.5 -88 93t-32 133.5t32 133.5t88 93t125 33.5t124.5 -33.5t87.5 -93t32 -133.5t-32 -133.5t-87.5 -93t-124.5 -33.5t-125 33.5zM365 93.5q33 22.5 52 63t19 93.5t-19 93.5t-52 63t-75 22.5h-6q-64 0 -104.5 -49.5t-40.5 -129.5t40.5 -129.5t104.5 -49.5
h6q42 0 75 22.5zM345.5 598q-15.5 16 -15.5 38q0 23 15.5 39t37.5 16q23 0 39 -16t16 -39q0 -22 -16.5 -38t-38.5 -16t-37.5 16zM154 598q-16 16 -16 38t16 38.5t38 16.5q23 0 39 -16t16 -39q0 -22 -16.5 -38t-38.5 -16t-38 16z" />
    <glyph glyph-name="divide" unicode="&#xf7;" horiz-adv-x="606" 
d="M56 301h494v-87h-494v87zM255.5 39.5q-19.5 19.5 -19.5 48.5q0 28 19.5 47.5t47.5 19.5t47.5 -19.5t19.5 -47.5t-19.5 -48t-47.5 -20t-47.5 19.5zM255.5 380.5q-19.5 19.5 -19.5 47.5t19.5 47.5t47.5 19.5t47.5 -19.5t19.5 -47.5t-19.5 -47.5t-47.5 -19.5t-47.5 19.5z
" />
    <glyph glyph-name="oslash" unicode="&#xf8;" horiz-adv-x="579" 
d="M165 24l-50 -65l-61 51l51 66q-28 34 -43.5 79t-15.5 95q0 74 32 133.5t88 93t125 33.5q67 0 121 -31l48 62l65 -47l-51 -67q61 -72 61 -177q0 -74 -32 -133.5t-87.5 -93t-124.5 -33.5q-70 0 -126 34zM368 93.5q33 22.5 52 63t19 93.5q0 58 -23 102l-200 -261
q32 -20 71 -20h6q42 0 75 22.5zM163 152l197 259q-31 18 -67 18h-6q-64 0 -104.5 -49.5t-40.5 -129.5q0 -56 21 -98z" />
    <glyph glyph-name="ugrave" unicode="&#xf9;" horiz-adv-x="570" 
d="M119 43q-49 53 -49 140v317h95v-295q0 -63 27 -97t79 -34h2q58 0 92.5 46t34.5 137v243h95v-500h-95v67q-23 -36 -62 -56.5t-90 -20.5q-80 0 -129 53zM160 700h105l51 -137h-65z" />
    <glyph glyph-name="uacute" unicode="&#xfa;" horiz-adv-x="570" 
d="M119 43q-49 53 -49 140v317h95v-295q0 -63 27 -97t79 -34h2q58 0 92.5 46t34.5 137v243h95v-500h-95v67q-23 -36 -62 -56.5t-90 -20.5q-80 0 -129 53zM301 700h105l-92 -137h-64z" />
    <glyph glyph-name="ucircumflex" unicode="&#xfb;" horiz-adv-x="570" 
d="M119 43q-49 53 -49 140v317h95v-295q0 -63 27 -97t79 -34h2q58 0 92.5 46t34.5 137v243h95v-500h-95v67q-23 -36 -62 -56.5t-90 -20.5q-80 0 -129 53zM230 700h105l117 -137h-69l-100 75l-100 -75h-70z" />
    <glyph glyph-name="udieresis" unicode="&#xfc;" horiz-adv-x="570" 
d="M119 43q-49 53 -49 140v317h95v-295q0 -63 27 -97t79 -34h2q58 0 92.5 46t34.5 137v243h95v-500h-95v67q-23 -36 -62 -56.5t-90 -20.5q-80 0 -129 53zM340.5 598q-15.5 16 -15.5 38q0 23 15.5 39t37.5 16q23 0 39 -16t16 -39q0 -22 -16.5 -38t-38.5 -16t-37.5 16z
M149 598q-16 16 -16 38t16 38.5t38 16.5q23 0 39 -16t16 -39q0 -22 -16.5 -38t-38.5 -16t-38 16z" />
    <glyph glyph-name="yacute" unicode="&#xfd;" horiz-adv-x="528" 
d="M29 -97h95q29 0 46 12.5t29 43.5l24 63l-222 478h104l165 -360l142 360h100l-230 -573q-25 -61 -60.5 -84.5t-94.5 -23.5h-98v84zM276 700h105l-92 -137h-64z" />
    <glyph glyph-name="thorn" unicode="&#xfe;" horiz-adv-x="601" 
d="M76 700h95v-269q19 33 63.5 56t97.5 23q64 0 115 -32t80 -91t29 -137q0 -79 -29.5 -138t-81 -90.5t-116.5 -31.5q-53 0 -95.5 22.5t-62.5 55.5v-268h-95v900zM422 121q39 50 39 129t-39 129t-103 50h-5q-42 0 -75 -23t-51.5 -63.5t-18.5 -92.5t18.5 -92.5t51.5 -63.5
t75 -23h5q64 0 103 50z" />
    <glyph glyph-name="ydieresis" unicode="&#xff;" horiz-adv-x="528" 
d="M29 -97h95q29 0 46 12.5t29 43.5l24 63l-222 478h104l165 -360l142 360h100l-230 -573q-25 -61 -60.5 -84.5t-94.5 -23.5h-98v84zM315.5 598q-15.5 16 -15.5 38q0 23 15.5 39t37.5 16q23 0 39 -16t16 -39q0 -22 -16.5 -38t-38.5 -16t-37.5 16zM124 598q-16 16 -16 38
t16 38.5t38 16.5q23 0 39 -16t16 -39q0 -22 -16.5 -38t-38.5 -16t-38 16z" />
    <glyph glyph-name="Amacron" unicode="&#x100;" horiz-adv-x="696" 
d="M287 700h124l277 -700h-105l-70 177h-333l-69 -177h-104zM478 268l-132 334l-130 -334h262zM199 854h299v-77h-299v77z" />
    <glyph glyph-name="amacron" unicode="&#x101;" horiz-adv-x="551" 
d="M93 32q-48 42 -48 107q0 140 196 155l146 11v16q0 51 -33 80.5t-86 29.5h-4q-44 0 -75.5 -20.5t-39.5 -55.5h-93q10 68 67.5 111.5t144.5 43.5q103 0 158 -54t55 -139v-207q0 -75 5 -110h-88q-3 15 -4.5 37.5t-1.5 37.5q-22 -35 -68 -60t-104 -25q-79 0 -127 42zM309 85
q34 16 56 48t22 77v22l-134 -9q-57 -4 -86 -24.5t-29 -55.5q0 -32 26.5 -53t70.5 -21h4q36 0 70 16zM125 661h287v-77h-287v77z" />
    <glyph glyph-name="Abreve" unicode="&#x102;" horiz-adv-x="696" 
d="M287 700h124l277 -700h-105l-70 177h-333l-69 -177h-104zM478 268l-132 334l-130 -334h262zM237 787q-44 38 -44 103h77q3 -35 25 -52t54 -17t54 17t24 52h77q0 -65 -43.5 -103t-111.5 -38t-112 38z" />
    <glyph glyph-name="abreve" unicode="&#x103;" horiz-adv-x="551" 
d="M93 32q-48 42 -48 107q0 140 196 155l146 11v16q0 51 -33 80.5t-86 29.5h-4q-44 0 -75.5 -20.5t-39.5 -55.5h-93q10 68 67.5 111.5t144.5 43.5q103 0 158 -54t55 -139v-207q0 -75 5 -110h-88q-3 15 -4.5 37.5t-1.5 37.5q-22 -35 -68 -60t-104 -25q-79 0 -127 42zM309 85
q34 16 56 48t22 77v22l-134 -9q-57 -4 -86 -24.5t-29 -55.5q0 -32 26.5 -53t70.5 -21h4q36 0 70 16zM161 592.5q-42 36.5 -44 107.5h74q4 -40 24.5 -59.5t53.5 -19.5t53.5 20t23.5 59h74q-2 -70 -44.5 -107t-106.5 -37q-66 0 -108 36.5z" />
    <glyph glyph-name="Aogonek" unicode="&#x104;" horiz-adv-x="696" 
d="M287 700h124l277 -700h-34q-39 -23 -62 -46t-23 -51q0 -23 16.5 -33t41.5 -10h22v-66h-40q-50 0 -80 24.5t-30 63.5q0 40 24.5 70t59.5 49l-70 176h-333l-69 -177h-104zM478 268l-132 334l-130 -334h262z" />
    <glyph glyph-name="aogonek" unicode="&#x105;" horiz-adv-x="551" 
d="M93 32q-48 42 -48 107q0 140 196 155l146 11v16q0 51 -33 80.5t-86 29.5h-4q-44 0 -75.5 -20.5t-39.5 -55.5h-93q10 68 67.5 111.5t144.5 43.5q103 0 158 -54t55 -139v-207q0 -75 5 -110q-39 -23 -62 -46t-23 -51q0 -23 16.5 -33t41.5 -10h22v-66h-40q-50 0 -80 24.5
t-30 63.5t23.5 68.5t57.5 49.5h-14q-3 15 -4.5 37.5t-1.5 37.5q-22 -35 -68 -60t-104 -25q-79 0 -127 42zM309 85q34 16 56 48t22 77v22l-134 -9q-57 -4 -86 -24.5t-29 -55.5q0 -32 26.5 -53t70.5 -21h4q36 0 70 16z" />
    <glyph glyph-name="Cacute" unicode="&#x106;" horiz-adv-x="716" 
d="M203.5 36.5q-74.5 46.5 -114.5 128.5t-40 185t40.5 185t115.5 128.5t173 46.5q79 0 142.5 -30.5t103.5 -85t48 -125.5h-102q-12 67 -62 108.5t-126 41.5h-8q-68 0 -119 -35t-78 -96t-27 -138t27 -138t78 -96t119 -35h8q76 0 126.5 41.5t62.5 109.5h101q-9 -71 -48.5 -126
t-103.5 -85.5t-142 -30.5q-100 0 -174.5 46.5zM389 890h118l-93 -132h-72z" />
    <glyph glyph-name="cacute" unicode="&#x107;" horiz-adv-x="541" 
d="M155.5 24q-53.5 34 -82.5 93.5t-29 132.5t29 132t82.5 93.5t124.5 34.5q60 0 107.5 -23t76.5 -64t35 -93h-96q-7 42 -40 71t-81 29h-4q-64 0 -101.5 -51.5t-37.5 -128.5q0 -76 37.5 -127.5t102.5 -51.5h3q48 0 80 28.5t41 70.5h97q-13 -80 -71.5 -130t-148.5 -50
q-71 0 -124.5 34zM298 700h105l-92 -137h-64z" />
    <glyph glyph-name="Ccircumflex" unicode="&#x108;" horiz-adv-x="716" 
d="M203.5 36.5q-74.5 46.5 -114.5 128.5t-40 185t40.5 185t115.5 128.5t173 46.5q79 0 142.5 -30.5t103.5 -85t48 -125.5h-102q-12 67 -62 108.5t-126 41.5h-8q-68 0 -119 -35t-78 -96t-27 -138t27 -138t78 -96t119 -35h8q76 0 126.5 41.5t62.5 109.5h101q-9 -71 -48.5 -126
t-103.5 -85.5t-142 -30.5q-100 0 -174.5 46.5zM320 890h117l113 -132h-84l-87 67l-88 -67h-84z" />
    <glyph glyph-name="ccircumflex" unicode="&#x109;" horiz-adv-x="541" 
d="M155.5 24q-53.5 34 -82.5 93.5t-29 132.5t29 132t82.5 93.5t124.5 34.5q60 0 107.5 -23t76.5 -64t35 -93h-96q-7 42 -40 71t-81 29h-4q-64 0 -101.5 -51.5t-37.5 -128.5q0 -76 37.5 -127.5t102.5 -51.5h3q48 0 80 28.5t41 70.5h97q-13 -80 -71.5 -130t-148.5 -50
q-71 0 -124.5 34zM227 700h105l117 -137h-69l-100 75l-100 -75h-70z" />
    <glyph glyph-name="Cdotaccent" unicode="&#x10a;" horiz-adv-x="716" 
d="M203.5 36.5q-74.5 46.5 -114.5 128.5t-40 185t40.5 185t115.5 128.5t173 46.5q79 0 142.5 -30.5t103.5 -85t48 -125.5h-102q-12 67 -62 108.5t-126 41.5h-8q-68 0 -119 -35t-78 -96t-27 -138t27 -138t78 -96t119 -35h8q76 0 126.5 41.5t62.5 109.5h101q-9 -71 -48.5 -126
t-103.5 -85.5t-142 -30.5q-100 0 -174.5 46.5zM335 789q-17 17 -17 42t17 42.5t42 17.5t42.5 -17.5t17.5 -42.5t-17.5 -42t-42.5 -17t-42 17z" />
    <glyph glyph-name="cdotaccent" unicode="&#x10b;" horiz-adv-x="541" 
d="M155.5 24q-53.5 34 -82.5 93.5t-29 132.5t29 132t82.5 93.5t124.5 34.5q60 0 107.5 -23t76.5 -64t35 -93h-96q-7 42 -40 71t-81 29h-4q-64 0 -101.5 -51.5t-37.5 -128.5q0 -76 37.5 -127.5t102.5 -51.5h3q48 0 80 28.5t41 70.5h97q-13 -80 -71.5 -130t-148.5 -50
q-71 0 -124.5 34zM237 604q-18 18 -18 43q0 26 18 43.5t43 17.5t43 -18t18 -43t-18 -43t-43 -18t-43 18z" />
    <glyph glyph-name="Ccaron" unicode="&#x10c;" horiz-adv-x="716" 
d="M203.5 36.5q-74.5 46.5 -114.5 128.5t-40 185t40.5 185t115.5 128.5t173 46.5q79 0 142.5 -30.5t103.5 -85t48 -125.5h-102q-12 67 -62 108.5t-126 41.5h-8q-68 0 -119 -35t-78 -96t-27 -138t27 -138t78 -96t119 -35h8q76 0 126.5 41.5t62.5 109.5h101q-9 -71 -48.5 -126
t-103.5 -85.5t-142 -30.5q-100 0 -174.5 46.5zM207 890h84l88 -67l87 67h84l-113 -132h-117z" />
    <glyph glyph-name="ccaron" unicode="&#x10d;" horiz-adv-x="541" 
d="M155.5 24q-53.5 34 -82.5 93.5t-29 132.5t29 132t82.5 93.5t124.5 34.5q60 0 107.5 -23t76.5 -64t35 -93h-96q-7 42 -40 71t-81 29h-4q-64 0 -101.5 -51.5t-37.5 -128.5q0 -76 37.5 -127.5t102.5 -51.5h3q48 0 80 28.5t41 70.5h97q-13 -80 -71.5 -130t-148.5 -50
q-71 0 -124.5 34zM110 700h70l100 -74l100 74h69l-117 -137h-105z" />
    <glyph glyph-name="Dcaron" unicode="&#x10e;" horiz-adv-x="713" 
d="M90 700h244q99 0 173.5 -41.5t115.5 -121t41 -188.5t-40.5 -188t-114.5 -120t-173 -41h-246v700zM501.5 155.5q62.5 65.5 62.5 194.5t-62.5 194.5t-177.5 65.5h-134v-520h134q115 0 177.5 65.5zM168 890h84l88 -67l87 67h84l-113 -132h-117z" />
    <glyph glyph-name="dcaron" unicode="&#x10f;" horiz-adv-x="621" 
d="M152.5 22q-51.5 32 -80.5 91t-29 137t30 137t82.5 91t117.5 32q53 0 95 -22t63 -56v268h95v-700h-95v69q-20 -33 -64 -56t-98 -23q-65 0 -116.5 32zM363 94q33 23 51.5 63.5t18.5 92.5t-18.5 92.5t-51.5 63.5t-75 23h-6q-64 0 -103.5 -50t-39.5 -129t39.5 -129t103.5 -50
h6q42 0 75 23zM576 557h11q52 0 52 40v5h-42v98h93v-101q0 -41 -26.5 -66.5t-72.5 -25.5h-15v50z" />
    <glyph glyph-name="Dcroat" unicode="&#x110;" horiz-adv-x="752" 
d="M128 306h-90v88h90v306h244q99 0 173.5 -41.5t115.5 -121t41 -188.5t-40.5 -188t-114.5 -120t-173 -41h-246v306zM539.5 155.5q62.5 65.5 62.5 194.5t-62.5 194.5t-177.5 65.5h-134v-216h149v-88h-149v-216h134q115 0 177.5 65.5z" />
    <glyph glyph-name="dcroat" unicode="&#x111;" horiz-adv-x="602" 
d="M152.5 22q-51.5 32 -80.5 91t-29 137t30 137t82.5 91t117.5 32q53 0 95 -22t63 -56v132h-158v73h158v63h95v-63h71v-73h-71v-564h-95v69q-20 -33 -64 -56t-98 -23q-65 0 -116.5 32zM363 94q33 23 51.5 63.5t18.5 92.5t-18.5 92.5t-51.5 63.5t-75 23h-6q-64 0 -103.5 -50
t-39.5 -129t39.5 -129t103.5 -50h6q42 0 75 23z" />
    <glyph glyph-name="Emacron" unicode="&#x112;" horiz-adv-x="653" 
d="M90 700h509v-90h-409v-205h349v-90h-349v-225h419v-90h-519v700zM194 854h299v-77h-299v77z" />
    <glyph glyph-name="emacron" unicode="&#x113;" horiz-adv-x="545" 
d="M159.5 22q-53.5 32 -84.5 91t-31 138q0 78 31.5 136.5t84.5 90.5t117 32q89 0 149 -54t72 -147q4 -34 3 -77h-362q3 -76 42.5 -119t95.5 -43h6q42 0 73 22t42 60h96q-17 -72 -75.5 -117t-139.5 -45q-66 0 -119.5 32zM366 397.5q-34 33.5 -85 33.5h-7q-48 0 -84.5 -30.5
t-47.5 -93.5h262q-4 57 -38 90.5zM133 661h287v-77h-287v77z" />
    <glyph glyph-name="Ebreve" unicode="&#x114;" horiz-adv-x="653" 
d="M90 700h509v-90h-409v-205h349v-90h-349v-225h419v-90h-519v700zM232 787q-44 38 -44 103h77q3 -35 25 -52t54 -17t54 17t24 52h77q0 -65 -43.5 -103t-111.5 -38t-112 38z" />
    <glyph glyph-name="ebreve" unicode="&#x115;" horiz-adv-x="545" 
d="M159.5 22q-53.5 32 -84.5 91t-31 138q0 78 31.5 136.5t84.5 90.5t117 32q89 0 149 -54t72 -147q4 -34 3 -77h-362q3 -76 42.5 -119t95.5 -43h6q42 0 73 22t42 60h96q-17 -72 -75.5 -117t-139.5 -45q-66 0 -119.5 32zM366 397.5q-34 33.5 -85 33.5h-7q-48 0 -84.5 -30.5
t-47.5 -93.5h262q-4 57 -38 90.5zM169 592.5q-42 36.5 -44 107.5h74q4 -40 24.5 -59.5t53.5 -19.5t53.5 20t23.5 59h74q-2 -70 -44.5 -107t-106.5 -37q-66 0 -108 36.5z" />
    <glyph glyph-name="Edotaccent" unicode="&#x116;" horiz-adv-x="653" 
d="M90 700h509v-90h-409v-205h349v-90h-349v-225h419v-90h-519v700zM301 789q-17 17 -17 42t17 42.5t42 17.5t42.5 -17.5t17.5 -42.5t-17.5 -42t-42.5 -17t-42 17z" />
    <glyph glyph-name="edotaccent" unicode="&#x117;" horiz-adv-x="545" 
d="M159.5 22q-53.5 32 -84.5 91t-31 138q0 78 31.5 136.5t84.5 90.5t117 32q89 0 149 -54t72 -147q4 -34 3 -77h-362q3 -76 42.5 -119t95.5 -43h6q42 0 73 22t42 60h96q-17 -72 -75.5 -117t-139.5 -45q-66 0 -119.5 32zM366 397.5q-34 33.5 -85 33.5h-7q-48 0 -84.5 -30.5
t-47.5 -93.5h262q-4 57 -38 90.5zM234 604q-18 18 -18 43q0 26 18 43.5t43 17.5t43 -18t18 -43t-18 -43t-43 -18t-43 18z" />
    <glyph glyph-name="Eogonek" unicode="&#x118;" horiz-adv-x="653" 
d="M90 700h509v-90h-409v-205h349v-90h-349v-225h419v-90q-39 -23 -62 -46t-23 -51q0 -23 16.5 -33t41.5 -10h22v-66h-40q-50 0 -80 24.5t-30 63.5t23.5 68.5t57.5 49.5h-445v700z" />
    <glyph glyph-name="eogonek" unicode="&#x119;" horiz-adv-x="545" 
d="M224 -181.5q-30 24.5 -30 63.5q0 63 66 109q-62 5 -111 38t-77 90t-28 132q0 78 31.5 136.5t84.5 90.5t117 32q89 0 149 -54.5t71 -145.5q6 -33 4 -78h-362q3 -76 42.5 -119t95.5 -43h6q42 0 73 22t42 60h96q-22 -97 -126 -148q-56 -27 -80 -49t-24 -52q0 -23 16.5 -33
t41.5 -10h22v-66h-39q-51 0 -81 24.5zM366 397.5q-34 33.5 -85 33.5h-7q-48 0 -84.5 -30.5t-47.5 -93.5h262q-4 57 -38 90.5z" />
    <glyph glyph-name="Ecaron" unicode="&#x11a;" horiz-adv-x="653" 
d="M90 700h509v-90h-409v-205h349v-90h-349v-225h419v-90h-519v700zM173 890h84l88 -67l87 67h84l-113 -132h-117z" />
    <glyph glyph-name="ecaron" unicode="&#x11b;" horiz-adv-x="545" 
d="M159.5 22q-53.5 32 -84.5 91t-31 138q0 78 31.5 136.5t84.5 90.5t117 32q89 0 149 -54t72 -147q4 -34 3 -77h-362q3 -76 42.5 -119t95.5 -43h6q42 0 73 22t42 60h96q-17 -72 -75.5 -117t-139.5 -45q-66 0 -119.5 32zM366 397.5q-34 33.5 -85 33.5h-7q-48 0 -84.5 -30.5
t-47.5 -93.5h262q-4 57 -38 90.5zM107 700h70l100 -74l100 74h69l-117 -137h-105z" />
    <glyph glyph-name="Gcircumflex" unicode="&#x11c;" horiz-adv-x="745" 
d="M199.5 36q-72.5 46 -111.5 127.5t-39 185.5t42 186t117 128.5t172 46.5q83 0 147 -30.5t102 -84t47 -122.5h-103q-13 67 -63.5 107t-125.5 40h-8q-65 0 -116.5 -33t-80.5 -94.5t-29 -143.5t28.5 -143t80 -93.5t118.5 -32.5h8q56 0 102 24.5t73 68.5t29 100h-198v88h210
q40 0 60.5 -20.5t20.5 -60.5v-280h-90v100q-28 -46 -88 -78t-135 -32q-97 0 -169.5 46zM323 890h117l113 -132h-84l-87 67l-88 -67h-84z" />
    <glyph glyph-name="gcircumflex" unicode="&#x11d;" horiz-adv-x="597" 
d="M112 -176.5q-60 43.5 -67 115.5h95q7 -39 42.5 -59.5t91.5 -20.5h9q64 0 104 38t40 113v70q-22 -35 -63 -57.5t-95 -22.5q-61 0 -112 29t-81.5 86.5t-30.5 138.5q0 82 30 139.5t81 87t113 29.5q55 0 97 -23t61 -57v70h95v-499q0 -63 -29 -113t-84.5 -79t-131.5 -29
q-105 0 -165 43.5zM356 101q32 21 51.5 60.5t19.5 92.5t-19 93.5t-50.5 62t-68.5 21.5h-8q-61 0 -101 -46t-40 -131q0 -86 39 -130t99 -44h7q39 0 71 21zM234 700h105l117 -137h-69l-100 75l-100 -75h-70z" />
    <glyph glyph-name="Gbreve" unicode="&#x11e;" horiz-adv-x="745" 
d="M199.5 36q-72.5 46 -111.5 127.5t-39 185.5t42 186t117 128.5t172 46.5q83 0 147 -30.5t102 -84t47 -122.5h-103q-13 67 -63.5 107t-125.5 40h-8q-65 0 -116.5 -33t-80.5 -94.5t-29 -143.5t28.5 -143t80 -93.5t118.5 -32.5h8q56 0 102 24.5t73 68.5t29 100h-198v88h210
q40 0 60.5 -20.5t20.5 -60.5v-280h-90v100q-28 -46 -88 -78t-135 -32q-97 0 -169.5 46zM269 787q-44 38 -44 103h77q3 -35 25 -52t54 -17t54 17t24 52h77q0 -65 -43.5 -103t-111.5 -38t-112 38z" />
    <glyph glyph-name="gbreve" unicode="&#x11f;" horiz-adv-x="597" 
d="M112 -176.5q-60 43.5 -67 115.5h95q7 -39 42.5 -59.5t91.5 -20.5h9q64 0 104 38t40 113v70q-22 -35 -63 -57.5t-95 -22.5q-61 0 -112 29t-81.5 86.5t-30.5 138.5q0 82 30 139.5t81 87t113 29.5q55 0 97 -23t61 -57v70h95v-499q0 -63 -29 -113t-84.5 -79t-131.5 -29
q-105 0 -165 43.5zM356 101q32 21 51.5 60.5t19.5 92.5t-19 93.5t-50.5 62t-68.5 21.5h-8q-61 0 -101 -46t-40 -131q0 -86 39 -130t99 -44h7q39 0 71 21zM179 592.5q-42 36.5 -44 107.5h74q4 -40 24.5 -59.5t53.5 -19.5t53.5 20t23.5 59h74q-2 -70 -44.5 -107t-106.5 -37
q-66 0 -108 36.5z" />
    <glyph glyph-name="Gdotaccent" unicode="&#x120;" horiz-adv-x="745" 
d="M199.5 36q-72.5 46 -111.5 127.5t-39 185.5t42 186t117 128.5t172 46.5q83 0 147 -30.5t102 -84t47 -122.5h-103q-13 67 -63.5 107t-125.5 40h-8q-65 0 -116.5 -33t-80.5 -94.5t-29 -143.5t28.5 -143t80 -93.5t118.5 -32.5h8q56 0 102 24.5t73 68.5t29 100h-198v88h210
q40 0 60.5 -20.5t20.5 -60.5v-280h-90v100q-28 -46 -88 -78t-135 -32q-97 0 -169.5 46zM338 789q-17 17 -17 42t17 42.5t42 17.5t42.5 -17.5t17.5 -42.5t-17.5 -42t-42.5 -17t-42 17z" />
    <glyph glyph-name="gdotaccent" unicode="&#x121;" horiz-adv-x="597" 
d="M112 -176.5q-60 43.5 -67 115.5h95q7 -39 42.5 -59.5t91.5 -20.5h9q64 0 104 38t40 113v70q-22 -35 -63 -57.5t-95 -22.5q-61 0 -112 29t-81.5 86.5t-30.5 138.5q0 82 30 139.5t81 87t113 29.5q55 0 97 -23t61 -57v70h95v-499q0 -63 -29 -113t-84.5 -79t-131.5 -29
q-105 0 -165 43.5zM356 101q32 21 51.5 60.5t19.5 92.5t-19 93.5t-50.5 62t-68.5 21.5h-8q-61 0 -101 -46t-40 -131q0 -86 39 -130t99 -44h7q39 0 71 21zM244 604q-18 18 -18 43q0 26 18 43.5t43 17.5t43 -18t18 -43t-18 -43t-43 -18t-43 18z" />
    <glyph glyph-name="uni0122" unicode="&#x122;" horiz-adv-x="745" 
d="M199.5 36q-72.5 46 -111.5 127.5t-39 185.5t42 186t117 128.5t172 46.5q83 0 147 -30.5t102 -84t47 -122.5h-103q-13 67 -63.5 107t-125.5 40h-8q-65 0 -116.5 -33t-80.5 -94.5t-29 -143.5t28.5 -143t80 -93.5t118.5 -32.5h8q56 0 102 24.5t73 68.5t29 100h-198v88h210
q40 0 60.5 -20.5t20.5 -60.5v-280h-90v100q-28 -46 -88 -78t-135 -32q-97 0 -169.5 46zM318 -213h7q49 0 49 34v5h-42v92h95v-96q0 -36 -26.5 -60t-70.5 -24h-12v49z" />
    <glyph glyph-name="uni0123" unicode="&#x123;" horiz-adv-x="597" 
d="M112 -176.5q-60 43.5 -67 115.5h95q7 -39 42.5 -59.5t91.5 -20.5h9q64 0 104 38t40 113v70q-22 -35 -63 -57.5t-95 -22.5q-61 0 -112 29t-81.5 86.5t-30.5 138.5q0 82 30 139.5t81 87t113 29.5q55 0 97 -23t61 -57v70h95v-499q0 -63 -29 -113t-84.5 -79t-131.5 -29
q-105 0 -165 43.5zM356 101q32 21 51.5 60.5t19.5 92.5t-19 93.5t-50.5 62t-68.5 21.5h-8q-61 0 -101 -46t-40 -131q0 -86 39 -130t99 -44h7q39 0 71 21zM266 762q27 26 72 26h18v-52h-13q-51 0 -51 -39v-6h42v-100h-95v105q0 40 27 66z" />
    <glyph glyph-name="Hcircumflex" unicode="&#x124;" horiz-adv-x="734" 
d="M90 700h100v-305h354v305h100v-700h-100v305h-354v-305h-100v700zM309 890h117l113 -132h-84l-87 67l-88 -67h-84z" />
    <glyph glyph-name="hcircumflex" unicode="&#x125;" horiz-adv-x="580" 
d="M76 700h95v-267q23 35 63.5 56t92.5 21q83 0 133 -52.5t50 -139.5v-318h-95v297q0 62 -28 96t-83 34h-2q-58 0 -94.5 -44.5t-36.5 -115.5v-267h-95v700zM69 890h105l117 -137h-69l-100 75l-100 -75h-70z" />
    <glyph glyph-name="Hbar" unicode="&#x126;" horiz-adv-x="765" 
d="M106 508h-69v83h69v109h100v-109h354v109h100v-109h67v-83h-67v-508h-100v305h-354v-305h-100v508zM560 395v113h-354v-113h354z" />
    <glyph glyph-name="hbar" unicode="&#x127;" horiz-adv-x="580" 
d="M76 564h-74v73h74v63h95v-63h155v-73h-155v-131q23 35 63.5 56t92.5 21q83 0 133 -52.5t50 -139.5v-318h-95v297q0 62 -28 96t-83 34h-2q-58 0 -94.5 -44.5t-36.5 -115.5v-267h-95v564z" />
    <glyph glyph-name="Itilde" unicode="&#x128;" horiz-adv-x="279" 
d="M90 700h100v-700h-100v700zM182 763q-20 8 -45 24l-25 16q-24 16 -45 16q-35 0 -35 -54h-70v26q0 44 27.5 74t70.5 30q37 0 79 -27l23 -17q31 -20 51 -20q17 0 26 13.5t9 40.5h70v-26q0 -45 -26.5 -74.5t-69.5 -29.5q-20 0 -40 8z" />
    <glyph glyph-name="itilde" unicode="&#x129;" horiz-adv-x="246" 
d="M76 500h95v-500h-95v500zM121 588l-25 17q-12 8 -22 12t-22 4q-16 0 -26 -14t-10 -40h-70v25q0 44 27.5 74t70.5 30q40 0 80 -28l22 -16q31 -20 51 -20q17 0 26 13.5t9 40.5h70v-26q0 -44 -27.5 -73.5t-68.5 -29.5q-39 0 -85 31z" />
    <glyph glyph-name="Imacron" unicode="&#x12a;" horiz-adv-x="279" 
d="M90 700h100v-700h-100v700zM-10 854h299v-77h-299v77z" />
    <glyph glyph-name="imacron" unicode="&#x12b;" horiz-adv-x="246" 
d="M76 500h95v-500h-95v500zM-20 661h287v-77h-287v77z" />
    <glyph glyph-name="Ibreve" unicode="&#x12c;" horiz-adv-x="279" 
d="M90 700h100v-700h-100v700zM28 787q-44 38 -44 103h77q3 -35 25 -52t54 -17t54 17t24 52h77q0 -65 -43.5 -103t-111.5 -38t-112 38z" />
    <glyph glyph-name="ibreve" unicode="&#x12d;" horiz-adv-x="246" 
d="M76 500h95v-500h-95v500zM16 592.5q-42 36.5 -44 107.5h74q4 -40 24.5 -59.5t53.5 -19.5t53.5 20t23.5 59h74q-2 -70 -44.5 -107t-106.5 -37q-66 0 -108 36.5z" />
    <glyph glyph-name="Iogonek" unicode="&#x12e;" horiz-adv-x="279" 
d="M90 700h100v-700q-39 -23 -62 -46t-23 -51q0 -23 16.5 -33t41.5 -10h22v-66h-40q-50 0 -80 24.5t-30 63.5t23.5 68.5t57.5 49.5h-26v700z" />
    <glyph glyph-name="iogonek" unicode="&#x12f;" horiz-adv-x="246" 
d="M76 500h95v-500q-39 -23 -62 -46t-23 -51q0 -23 16.5 -33t41.5 -10h22v-66h-40q-50 0 -80 24.5t-30 63.5t23.5 68.5t57.5 49.5h-21v500zM81 604q-18 18 -18 43q0 26 18 43.5t43 17.5t43 -18t18 -43t-18 -43t-43 -18t-43 18z" />
    <glyph glyph-name="Idotaccent" unicode="&#x130;" horiz-adv-x="279" 
d="M90 700h100v-700h-100v700zM97 789q-17 17 -17 42t17 42.5t42 17.5t42.5 -17.5t17.5 -42.5t-17.5 -42t-42.5 -17t-42 17z" />
    <glyph glyph-name="dotlessi" unicode="&#x131;" horiz-adv-x="246" 
d="M76 500h95v-500h-95v500z" />
    <glyph glyph-name="IJ" unicode="&#x132;" horiz-adv-x="572" 
d="M90 95h208q48 0 68.5 23t20.5 74v508h100v-515q0 -94 -43.5 -139.5t-134.5 -45.5h-219v95zM90 700h100v-505h-100v505z" />
    <glyph glyph-name="ij" unicode="&#x133;" horiz-adv-x="494" 
d="M76 -100h198q28 0 39 11t11 39v550h95v-562q0 -121 -121 -121h-222v83zM76 500h95v-500h-95v500zM80 600q-18 18 -18 42q0 25 18 43t43 18t42.5 -18t17.5 -43q0 -24 -17.5 -42t-42.5 -18t-43 18zM329 600q-18 18 -18 42q0 26 18 43.5t43 17.5q24 0 42 -18t18 -43
q0 -24 -18 -42t-42 -18q-25 0 -43 18z" />
    <glyph glyph-name="Jcircumflex" unicode="&#x134;" horiz-adv-x="394" 
d="M15 95h107q47 0 67 22.5t20 71.5v511h100v-522q0 -88 -44.5 -133t-127.5 -45h-122v95zM201 890h117l113 -132h-84l-87 67l-88 -67h-84z" />
    <glyph glyph-name="jcircumflex" unicode="&#x135;" horiz-adv-x="246" 
d="M-89 -100h112q28 0 40.5 13t12.5 41v546h95v-553q0 -64 -32.5 -97t-96.5 -33h-131v83zM71 700h105l117 -137h-69l-100 75l-100 -75h-70z" />
    <glyph glyph-name="uni0136" unicode="&#x136;" horiz-adv-x="676" 
d="M90 700h100v-351l347 351h128l-281 -286l286 -414h-124l-234 340l-122 -124v-216h-100v700zM279 -213h7q49 0 49 34v5h-42v92h95v-96q0 -36 -26.5 -60t-70.5 -24h-12v49z" />
    <glyph glyph-name="uni0137" unicode="&#x137;" horiz-adv-x="532" 
d="M76 700h95v-420l223 220h123l-204 -199l214 -301h-116l-166 235l-74 -73v-162h-95v700zM223 -213h7q49 0 49 34v5h-42v92h95v-96q0 -36 -26.5 -60t-70.5 -24h-12v49z" />
    <glyph glyph-name="Lacute" unicode="&#x139;" horiz-adv-x="613" 
d="M90 700h100v-610h409v-90h-509v700zM151 890h118l-93 -132h-72z" />
    <glyph glyph-name="lacute" unicode="&#x13a;" horiz-adv-x="246" 
d="M76 700h95v-700h-95v700zM142 891h105l-92 -137h-64z" />
    <glyph glyph-name="uni013B" unicode="&#x13b;" horiz-adv-x="613" 
d="M90 700h100v-610h409v-90h-509v700zM282 -213h7q49 0 49 34v5h-42v92h95v-96q0 -36 -26.5 -60t-70.5 -24h-12v49z" />
    <glyph glyph-name="uni013C" unicode="&#x13c;" horiz-adv-x="246" 
d="M76 700h95v-700h-95v700zM62 -213h7q49 0 49 34v5h-42v92h95v-96q0 -36 -26.5 -60t-70.5 -24h-12v49z" />
    <glyph glyph-name="Lcaron" unicode="&#x13d;" horiz-adv-x="613" 
d="M90 700h100v-610h409v-90h-509v700zM295 557h11q52 0 52 40v5h-42v98h93v-101q0 -41 -26.5 -66.5t-72.5 -25.5h-15v50z" />
    <glyph glyph-name="lcaron" unicode="&#x13e;" horiz-adv-x="264" 
d="M76 700h95v-700h-95v700zM220 557h11q52 0 52 40v5h-42v98h93v-101q0 -41 -26.5 -66.5t-72.5 -25.5h-15v50z" />
    <glyph glyph-name="Ldot" unicode="&#x13f;" horiz-adv-x="615" 
d="M90 700h100v-610h409v-90h-509v700zM399 332q-20 20 -20 48t20 48.5t48 20.5q29 0 49 -20t20 -49q0 -28 -20.5 -48t-48.5 -20t-48 20z" />
    <glyph glyph-name="ldot" unicode="&#x140;" horiz-adv-x="336" 
d="M76 700h95v-700h-95v700zM243 288q-20 20 -20 48t20 48.5t48 20.5q29 0 49 -20t20 -49q0 -28 -20.5 -48t-48.5 -20t-48 20z" />
    <glyph glyph-name="Lslash" unicode="&#x141;" horiz-adv-x="658" 
d="M135 258l-94 -53v100l94 53v342h100v-286l185 104v-99l-185 -104v-225h409v-90h-509v258z" />
    <glyph glyph-name="lslash" unicode="&#x142;" horiz-adv-x="331" 
d="M120 327l-82 -47v93l82 46v281h95v-227l80 45v-92l-80 -45v-381h-95v327z" />
    <glyph glyph-name="Nacute" unicode="&#x143;" horiz-adv-x="744" 
d="M90 700h134l330 -567v567h100v-700h-134l-330 571v-571h-100v700zM386 890h118l-93 -132h-72z" />
    <glyph glyph-name="nacute" unicode="&#x144;" horiz-adv-x="580" 
d="M76 500h95v-67q23 35 63 56t92 21q54 0 96 -24t65 -68t23 -101v-317h-95v295q0 62 -28.5 96.5t-83.5 34.5h-2q-58 0 -94 -44.5t-36 -115.5v-266h-95v500zM311 700h105l-92 -137h-64z" />
    <glyph glyph-name="uni0145" unicode="&#x145;" horiz-adv-x="744" 
d="M90 700h134l330 -567v567h100v-700h-134l-330 571v-571h-100v700zM310 -213h7q49 0 49 34v5h-42v92h95v-96q0 -36 -26.5 -60t-70.5 -24h-12v49z" />
    <glyph glyph-name="uni0146" unicode="&#x146;" horiz-adv-x="580" 
d="M76 500h95v-67q23 35 63 56t92 21q54 0 96 -24t65 -68t23 -101v-317h-95v295q0 62 -28.5 96.5t-83.5 34.5h-2q-58 0 -94 -44.5t-36 -115.5v-266h-95v500zM231 -213h7q49 0 49 34v5h-42v92h95v-96q0 -36 -26.5 -60t-70.5 -24h-12v49z" />
    <glyph glyph-name="Ncaron" unicode="&#x147;" horiz-adv-x="744" 
d="M90 700h134l330 -567v567h100v-700h-134l-330 571v-571h-100v700zM204 890h84l88 -67l87 67h84l-113 -132h-117z" />
    <glyph glyph-name="ncaron" unicode="&#x148;" horiz-adv-x="580" 
d="M76 500h95v-67q23 35 63 56t92 21q54 0 96 -24t65 -68t23 -101v-317h-95v295q0 62 -28.5 96.5t-83.5 34.5h-2q-58 0 -94 -44.5t-36 -115.5v-266h-95v500zM123 700h70l100 -74l100 74h69l-117 -137h-105z" />
    <glyph glyph-name="Eng" unicode="&#x14a;" horiz-adv-x="744" 
d="M414 -100h78q63 0 63 63v37l-365 542v-542h-100v700h109l355 -528v528h100v-749q0 -63 -37 -101t-100 -38h-103v88z" />
    <glyph glyph-name="eng" unicode="&#x14b;" horiz-adv-x="581" 
d="M296 -99h69q29 0 40 11t11 40v343q0 62 -29 96.5t-84 34.5h-2q-57 0 -93.5 -44.5t-36.5 -115.5v-266h-95v500h95v-67q23 36 63 56.5t93 20.5q54 0 96 -24t65 -68t23 -101v-377q0 -122 -124 -122h-91v83z" />
    <glyph glyph-name="Omacron" unicode="&#x14c;" horiz-adv-x="769" 
d="M212.5 34.5q-76.5 44.5 -120.5 126.5t-44 189q0 108 44 189.5t120.5 126t171.5 44.5t171.5 -44.5t120.5 -126t44 -189.5q0 -107 -44 -189t-120.5 -126.5t-171.5 -44.5t-171.5 44.5zM506.5 114q52.5 33 82.5 94t30 142q0 82 -30 143t-82.5 93.5t-118.5 32.5h-8
q-66 0 -118.5 -32.5t-82.5 -93.5t-30 -143q0 -81 30 -142t82.5 -94t118.5 -33h8q66 0 118.5 33zM234 854h299v-77h-299v77z" />
    <glyph glyph-name="omacron" unicode="&#x14d;" horiz-adv-x="574" 
d="M163 23.5q-56 33.5 -88 93t-32 133.5t32 133.5t88 93t125 33.5t124.5 -33.5t87.5 -93t32 -133.5t-32 -133.5t-87.5 -93t-124.5 -33.5t-125 33.5zM365 93.5q33 22.5 52 63t19 93.5t-19 93.5t-52 63t-75 22.5h-6q-64 0 -104.5 -49.5t-40.5 -129.5t40.5 -129.5t104.5 -49.5
h6q42 0 75 22.5zM144 661h287v-77h-287v77z" />
    <glyph glyph-name="Obreve" unicode="&#x14e;" horiz-adv-x="769" 
d="M212.5 34.5q-76.5 44.5 -120.5 126.5t-44 189q0 108 44 189.5t120.5 126t171.5 44.5t171.5 -44.5t120.5 -126t44 -189.5q0 -107 -44 -189t-120.5 -126.5t-171.5 -44.5t-171.5 44.5zM506.5 114q52.5 33 82.5 94t30 142q0 82 -30 143t-82.5 93.5t-118.5 32.5h-8
q-66 0 -118.5 -32.5t-82.5 -93.5t-30 -143q0 -81 30 -142t82.5 -94t118.5 -33h8q66 0 118.5 33zM272 787q-44 38 -44 103h77q3 -35 25 -52t54 -17t54 17t24 52h77q0 -65 -43.5 -103t-111.5 -38t-112 38z" />
    <glyph glyph-name="obreve" unicode="&#x14f;" horiz-adv-x="574" 
d="M163 23.5q-56 33.5 -88 93t-32 133.5t32 133.5t88 93t125 33.5t124.5 -33.5t87.5 -93t32 -133.5t-32 -133.5t-87.5 -93t-124.5 -33.5t-125 33.5zM365 93.5q33 22.5 52 63t19 93.5t-19 93.5t-52 63t-75 22.5h-6q-64 0 -104.5 -49.5t-40.5 -129.5t40.5 -129.5t104.5 -49.5
h6q42 0 75 22.5zM180 592.5q-42 36.5 -44 107.5h74q4 -40 24.5 -59.5t53.5 -19.5t53.5 20t23.5 59h74q-2 -70 -44.5 -107t-106.5 -37q-66 0 -108 36.5z" />
    <glyph glyph-name="Ohungarumlaut" unicode="&#x150;" horiz-adv-x="769" 
d="M212.5 34.5q-76.5 44.5 -120.5 126.5t-44 189q0 108 44 189.5t120.5 126t171.5 44.5t171.5 -44.5t120.5 -126t44 -189.5q0 -107 -44 -189t-120.5 -126.5t-171.5 -44.5t-171.5 44.5zM506.5 114q52.5 33 82.5 94t30 142q0 82 -30 143t-82.5 93.5t-118.5 32.5h-8
q-66 0 -118.5 -32.5t-82.5 -93.5t-30 -143q0 -81 30 -142t82.5 -94t118.5 -33h8q66 0 118.5 33zM483 890h117l-92 -132h-72zM313 890h118l-93 -132h-72z" />
    <glyph glyph-name="ohungarumlaut" unicode="&#x151;" horiz-adv-x="574" 
d="M163 23.5q-56 33.5 -88 93t-32 133.5t32 133.5t88 93t125 33.5t124.5 -33.5t87.5 -93t32 -133.5t-32 -133.5t-87.5 -93t-124.5 -33.5t-125 33.5zM365 93.5q33 22.5 52 63t19 93.5t-19 93.5t-52 63t-75 22.5h-6q-64 0 -104.5 -49.5t-40.5 -129.5t40.5 -129.5t104.5 -49.5
h6q42 0 75 22.5zM227 700h105l-92 -137h-64zM386 700h105l-92 -137h-63z" />
    <glyph glyph-name="OE" unicode="&#x152;" horiz-adv-x="1177" 
d="M211.5 34.5q-76.5 44.5 -120 126.5t-43.5 189q0 108 43.5 189.5t120 126t171.5 44.5q69 0 128.5 -25t102.5 -72v87h509v-90h-409v-205h349v-90h-349v-225h419v-90h-519v87q-43 -47 -102.5 -72t-128.5 -25q-95 0 -171.5 44.5zM505.5 114q52.5 33 82 94t29.5 142
q0 82 -29.5 143t-81.5 93.5t-119 32.5h-9q-66 0 -118 -32.5t-81.5 -93.5t-29.5 -143q0 -81 29.5 -142t81.5 -94t118 -33h9q66 0 118.5 33z" />
    <glyph glyph-name="oe" unicode="&#x153;" horiz-adv-x="940" 
d="M163 23.5q-56 33.5 -88 93t-32 133.5t32 133.5t88 93t125 33.5q61 0 111.5 -26t83.5 -73q32 48 81.5 73.5t106.5 25.5q89 0 149 -54t72 -147q4 -34 3 -77h-362q3 -76 42.5 -119t95.5 -43h6q42 0 73 22t42 60h96q-17 -72 -75.5 -117t-139.5 -45q-59 0 -108.5 26t-81.5 73
q-33 -47 -84 -73t-111 -26q-69 0 -125 33.5zM365 93.5q33 22.5 52 63t19 93.5t-19 93.5t-52 63t-75 22.5h-6q-64 0 -104.5 -49.5t-40.5 -129.5t40.5 -129.5t104.5 -49.5h6q42 0 75 22.5zM760 397.5q-34 33.5 -85 33.5h-7q-48 0 -84.5 -30.5t-47.5 -93.5h262q-4 57 -38 90.5z
" />
    <glyph glyph-name="Racute" unicode="&#x154;" horiz-adv-x="680" 
d="M90 700h301q63 0 113 -24.5t78 -68t28 -97.5q0 -64 -31.5 -111t-81.5 -64q103 -11 103 -120v-126q0 -55 6 -89h-101q-5 23 -5 70v135q0 40 -18.5 58t-58.5 18h-233v-281h-100v700zM472.5 405.5q37.5 34.5 37.5 89.5t-36 85t-100 30h-184v-239h184q61 0 98.5 34.5z
M337 890h118l-93 -132h-72z" />
    <glyph glyph-name="racute" unicode="&#x155;" horiz-adv-x="379" 
d="M76 500h91v-97q16 44 58.5 73t99.5 29h30v-89h-30q-154 0 -154 -187v-229h-95v500zM227 700h105l-92 -137h-64z" />
    <glyph glyph-name="uni0156" unicode="&#x156;" horiz-adv-x="680" 
d="M90 700h301q63 0 113 -24.5t78 -68t28 -97.5q0 -64 -31.5 -111t-81.5 -64q103 -11 103 -120v-126q0 -55 6 -89h-101q-5 23 -5 70v135q0 40 -18.5 58t-58.5 18h-233v-281h-100v700zM472.5 405.5q37.5 34.5 37.5 89.5t-36 85t-100 30h-184v-239h184q61 0 98.5 34.5z
M286 -213h7q49 0 49 34v5h-42v92h95v-96q0 -36 -26.5 -60t-70.5 -24h-12v49z" />
    <glyph glyph-name="uni0157" unicode="&#x157;" horiz-adv-x="379" 
d="M76 500h91v-97q16 44 58.5 73t99.5 29h30v-89h-30q-154 0 -154 -187v-229h-95v500zM62 -213h7q49 0 49 34v5h-42v92h95v-96q0 -36 -26.5 -60t-70.5 -24h-12v49z" />
    <glyph glyph-name="Rcaron" unicode="&#x158;" horiz-adv-x="680" 
d="M90 700h301q63 0 113 -24.5t78 -68t28 -97.5q0 -64 -31.5 -111t-81.5 -64q103 -11 103 -120v-126q0 -55 6 -89h-101q-5 23 -5 70v135q0 40 -18.5 58t-58.5 18h-233v-281h-100v700zM472.5 405.5q37.5 34.5 37.5 89.5t-36 85t-100 30h-184v-239h184q61 0 98.5 34.5z
M155 890h84l88 -67l87 67h84l-113 -132h-117z" />
    <glyph glyph-name="rcaron" unicode="&#x159;" horiz-adv-x="379" 
d="M76 500h91v-97q16 44 58.5 73t99.5 29h30v-89h-30q-154 0 -154 -187v-229h-95v500zM39 700h70l100 -74l100 74h69l-117 -137h-105z" />
    <glyph glyph-name="Sacute" unicode="&#x15a;" horiz-adv-x="624" 
d="M114 51.5q-72 61.5 -74 173.5h99q1 -70 48 -107.5t128 -37.5h10q68 0 107.5 30.5t39.5 78.5q0 86 -114 107l-117 22q-88 17 -132 64t-44 127q0 55 30 101t86.5 73t131.5 27q77 0 134.5 -27.5t90 -77t34.5 -115.5h-100q-5 60 -47.5 95t-108.5 35h-10q-63 0 -103 -31
t-40 -78q0 -40 25.5 -63t75.5 -32l117 -21q91 -17 141.5 -68t50.5 -134q0 -61 -32 -107t-90.5 -71t-135.5 -25q-129 0 -201 61.5zM329 890h118l-93 -132h-72z" />
    <glyph glyph-name="sacute" unicode="&#x15b;" horiz-adv-x="486" 
d="M94 36q-53 46 -55 119h93q4 -43 33.5 -65t76.5 -22h9q41 0 67 18.5t26 49.5q0 25 -17 41.5t-57 24.5l-73 13q-143 28 -143 143q0 70 53 111t131 41q95 0 146.5 -45t54.5 -119h-95q-4 37 -30.5 61.5t-72.5 24.5h-8q-40 0 -64 -19t-24 -47q0 -27 17 -42t58 -23l79 -15
q66 -13 103.5 -48.5t37.5 -97.5q0 -68 -54 -109t-142 -41q-97 0 -150 46zM260 700h105l-92 -137h-64z" />
    <glyph glyph-name="Scircumflex" unicode="&#x15c;" horiz-adv-x="624" 
d="M114 51.5q-72 61.5 -74 173.5h99q1 -70 48 -107.5t128 -37.5h10q68 0 107.5 30.5t39.5 78.5q0 86 -114 107l-117 22q-88 17 -132 64t-44 127q0 55 30 101t86.5 73t131.5 27q77 0 134.5 -27.5t90 -77t34.5 -115.5h-100q-5 60 -47.5 95t-108.5 35h-10q-63 0 -103 -31
t-40 -78q0 -40 25.5 -63t75.5 -32l117 -21q91 -17 141.5 -68t50.5 -134q0 -61 -32 -107t-90.5 -71t-135.5 -25q-129 0 -201 61.5zM260 890h117l113 -132h-84l-87 67l-88 -67h-84z" />
    <glyph glyph-name="scircumflex" unicode="&#x15d;" horiz-adv-x="486" 
d="M94 36q-53 46 -55 119h93q4 -43 33.5 -65t76.5 -22h9q41 0 67 18.5t26 49.5q0 25 -17 41.5t-57 24.5l-73 13q-143 28 -143 143q0 70 53 111t131 41q95 0 146.5 -45t54.5 -119h-95q-4 37 -30.5 61.5t-72.5 24.5h-8q-40 0 -64 -19t-24 -47q0 -27 17 -42t58 -23l79 -15
q66 -13 103.5 -48.5t37.5 -97.5q0 -68 -54 -109t-142 -41q-97 0 -150 46zM189 700h105l117 -137h-69l-100 75l-100 -75h-70z" />
    <glyph glyph-name="Scedilla" unicode="&#x15e;" horiz-adv-x="624" 
d="M248 -170h69q22 0 33 9t11 26q0 16 -10.5 25t-30.5 9h-37v92q-114 8 -177.5 68.5t-65.5 165.5h99q1 -70 48 -107.5t128 -37.5h10q68 0 107.5 30.5t39.5 78.5q0 86 -114 107l-117 22q-88 17 -132 64t-44 127q0 55 30 101t86.5 73t131.5 27q77 0 134.5 -27.5t90 -77
t34.5 -115.5h-100q-5 60 -47.5 95t-108.5 35h-10q-63 0 -103 -31t-40 -78q0 -40 25.5 -63t75.5 -32l117 -21q91 -17 141.5 -68t50.5 -134q0 -87 -63 -141.5t-171 -60.5v-40q38 -2 62.5 -25.5t24.5 -61.5q0 -45 -30.5 -72t-80.5 -27h-67v65z" />
    <glyph glyph-name="scedilla" unicode="&#x15f;" horiz-adv-x="486" 
d="M179 -170h69q22 0 33 9t11 26q0 16 -10.5 25t-30.5 9h-37v92q-83 7 -128 52t-47 112h93q4 -43 33.5 -65t76.5 -22h9q41 0 67 18.5t26 49.5q0 25 -17 41.5t-57 24.5l-73 13q-143 28 -143 143q0 70 53 111t131 41q95 0 146.5 -45t54.5 -119h-95q-4 37 -30.5 61.5
t-72.5 24.5h-8q-40 0 -64 -19t-24 -47q0 -27 17 -42t58 -23l79 -15q66 -13 103.5 -48.5t37.5 -97.5q0 -63 -46.5 -103t-123.5 -46v-40q38 -2 62.5 -25.5t24.5 -61.5q0 -45 -30.5 -72t-80.5 -27h-67v65z" />
    <glyph glyph-name="Scaron" unicode="&#x160;" horiz-adv-x="624" 
d="M114 51.5q-72 61.5 -74 173.5h99q1 -70 48 -107.5t128 -37.5h10q68 0 107.5 30.5t39.5 78.5q0 86 -114 107l-117 22q-88 17 -132 64t-44 127q0 55 30 101t86.5 73t131.5 27q77 0 134.5 -27.5t90 -77t34.5 -115.5h-100q-5 60 -47.5 95t-108.5 35h-10q-63 0 -103 -31
t-40 -78q0 -40 25.5 -63t75.5 -32l117 -21q91 -17 141.5 -68t50.5 -134q0 -61 -32 -107t-90.5 -71t-135.5 -25q-129 0 -201 61.5zM147 890h84l88 -67l87 67h84l-113 -132h-117z" />
    <glyph glyph-name="scaron" unicode="&#x161;" horiz-adv-x="486" 
d="M94 36q-53 46 -55 119h93q4 -43 33.5 -65t76.5 -22h9q41 0 67 18.5t26 49.5q0 25 -17 41.5t-57 24.5l-73 13q-143 28 -143 143q0 70 53 111t131 41q95 0 146.5 -45t54.5 -119h-95q-4 37 -30.5 61.5t-72.5 24.5h-8q-40 0 -64 -19t-24 -47q0 -27 17 -42t58 -23l79 -15
q66 -13 103.5 -48.5t37.5 -97.5q0 -68 -54 -109t-142 -41q-97 0 -150 46zM72 700h70l100 -74l100 74h69l-117 -137h-105z" />
    <glyph glyph-name="uni0162" unicode="&#x162;" horiz-adv-x="630" 
d="M265 610h-250v90h600v-90h-250v-610h-22v-49q38 -2 62.5 -25.5t24.5 -61.5q0 -45 -30.5 -72t-80.5 -27h-67v65h69q22 0 33 9t11 26q0 16 -10.5 25t-30.5 9h-37v101h-22v610z" />
    <glyph glyph-name="uni0163" unicode="&#x163;" horiz-adv-x="388" 
d="M246 0v-49q38 -2 62.5 -25.5t24.5 -61.5q0 -45 -30.5 -72t-80.5 -27h-67v65h69q22 0 33 9t11 26q0 16 -10.5 25t-30.5 9h-37v113q-31 14 -47 42.5t-16 70.5v295h-109v80h109v162h95v-162h120v-80h-120v-282q0 -30 12 -42.5t43 -12.5h80v-83h-105h-6z" />
    <glyph glyph-name="Tcaron" unicode="&#x164;" horiz-adv-x="630" 
d="M265 610h-250v90h600v-90h-250v-610h-100v610zM144 890h84l88 -67l87 67h84l-113 -132h-117z" />
    <glyph glyph-name="tcaron" unicode="&#x165;" horiz-adv-x="388" 
d="M159 32.5q-32 32.5 -32 92.5v295h-109v80h109v162h95v-162h120v-80h-120v-282q0 -30 12 -42.5t43 -12.5h80v-83h-105q-61 0 -93 32.5zM286 596h11q52 0 52 40v5h-42v98h93v-101q0 -41 -26.5 -66.5t-72.5 -25.5h-15v50z" />
    <glyph glyph-name="Tbar" unicode="&#x166;" horiz-adv-x="652" 
d="M275 314h-182v88h182v208h-250v90h600v-90h-250v-208h184v-88h-184v-314h-100v314z" />
    <glyph glyph-name="tbar" unicode="&#x167;" horiz-adv-x="400" 
d="M168 30.5q-31 30.5 -31 89.5v123h-109v73h109v105h-109v79h109v162h95v-162h120v-79h-120v-105h120v-73h-120v-110q0 -28 11 -39t39 -11h86v-83h-110q-59 0 -90 30.5z" />
    <glyph glyph-name="Utilde" unicode="&#x168;" horiz-adv-x="696" 
d="M149.5 59q-66.5 69 -66.5 190v451h100v-439q0 -88 41 -134.5t119 -46.5h10q78 0 119 46.5t41 134.5v439h100v-451q0 -120 -67.5 -189.5t-197.5 -69.5q-132 0 -198.5 69zM390 763q-20 8 -45 24l-25 16q-24 16 -45 16q-35 0 -35 -54h-70v26q0 44 27.5 74t70.5 30
q37 0 79 -27l23 -17q31 -20 51 -20q17 0 26 13.5t9 40.5h70v-26q0 -45 -26.5 -74.5t-69.5 -29.5q-20 0 -40 8z" />
    <glyph glyph-name="utilde" unicode="&#x169;" horiz-adv-x="570" 
d="M119 43q-49 53 -49 140v317h95v-295q0 -63 27 -97t79 -34h2q58 0 92.5 46t34.5 137v243h95v-500h-95v67q-23 -36 -62 -56.5t-90 -20.5q-80 0 -129 53zM280 588l-25 17q-12 8 -22 12t-22 4q-16 0 -26 -14t-10 -40h-70v25q0 44 27.5 74t70.5 30q40 0 80 -28l22 -16
q31 -20 51 -20q17 0 26 13.5t9 40.5h70v-26q0 -44 -27.5 -73.5t-68.5 -29.5q-39 0 -85 31z" />
    <glyph glyph-name="Umacron" unicode="&#x16a;" horiz-adv-x="696" 
d="M149.5 59q-66.5 69 -66.5 190v451h100v-439q0 -88 41 -134.5t119 -46.5h10q78 0 119 46.5t41 134.5v439h100v-451q0 -120 -67.5 -189.5t-197.5 -69.5q-132 0 -198.5 69zM198 854h299v-77h-299v77z" />
    <glyph glyph-name="umacron" unicode="&#x16b;" horiz-adv-x="570" 
d="M119 43q-49 53 -49 140v317h95v-295q0 -63 27 -97t79 -34h2q58 0 92.5 46t34.5 137v243h95v-500h-95v67q-23 -36 -62 -56.5t-90 -20.5q-80 0 -129 53zM139 661h287v-77h-287v77z" />
    <glyph glyph-name="Ubreve" unicode="&#x16c;" horiz-adv-x="696" 
d="M149.5 59q-66.5 69 -66.5 190v451h100v-439q0 -88 41 -134.5t119 -46.5h10q78 0 119 46.5t41 134.5v439h100v-451q0 -120 -67.5 -189.5t-197.5 -69.5q-132 0 -198.5 69zM236 787q-44 38 -44 103h77q3 -35 25 -52t54 -17t54 17t24 52h77q0 -65 -43.5 -103t-111.5 -38
t-112 38z" />
    <glyph glyph-name="ubreve" unicode="&#x16d;" horiz-adv-x="570" 
d="M119 43q-49 53 -49 140v317h95v-295q0 -63 27 -97t79 -34h2q58 0 92.5 46t34.5 137v243h95v-500h-95v67q-23 -36 -62 -56.5t-90 -20.5q-80 0 -129 53zM175 592.5q-42 36.5 -44 107.5h74q4 -40 24.5 -59.5t53.5 -19.5t53.5 20t23.5 59h74q-2 -70 -44.5 -107t-106.5 -37
q-66 0 -108 36.5z" />
    <glyph glyph-name="Uring" unicode="&#x16e;" horiz-adv-x="696" 
d="M149.5 59q-66.5 69 -66.5 190v451h100v-439q0 -88 41 -134.5t119 -46.5h10q78 0 119 46.5t41 134.5v439h100v-451q0 -120 -67.5 -189.5t-197.5 -69.5q-132 0 -198.5 69zM284.5 774q-27.5 26 -27.5 64t27.5 64.5t63.5 26.5q37 0 64.5 -26.5t27.5 -64.5t-27.5 -64
t-64.5 -26q-36 0 -63.5 26zM373 813.5q10 10.5 10 24.5t-10 25t-24 11t-24.5 -11t-10.5 -25q0 -13 11 -24t24 -11q14 0 24 10.5z" />
    <glyph glyph-name="uring" unicode="&#x16f;" horiz-adv-x="570" 
d="M119 43q-49 53 -49 140v317h95v-295q0 -63 27 -97t79 -34h2q58 0 92.5 46t34.5 137v243h95v-500h-95v67q-23 -36 -62 -56.5t-90 -20.5q-80 0 -129 53zM216 581q-28 27 -28 67q0 39 28.5 66.5t65.5 27.5q39 0 67 -27.5t28 -66.5q0 -40 -28 -67t-67 -27q-38 0 -66 27z
M313.5 617q12.5 13 12.5 31t-12.5 31t-30.5 13t-31 -13t-13 -31t13 -31t31 -13t30.5 13z" />
    <glyph glyph-name="Uhungarumlaut" unicode="&#x170;" horiz-adv-x="696" 
d="M149.5 59q-66.5 69 -66.5 190v451h100v-439q0 -88 41 -134.5t119 -46.5h10q78 0 119 46.5t41 134.5v439h100v-451q0 -120 -67.5 -189.5t-197.5 -69.5q-132 0 -198.5 69zM447 890h117l-92 -132h-72zM277 890h118l-93 -132h-72z" />
    <glyph glyph-name="uhungarumlaut" unicode="&#x171;" horiz-adv-x="570" 
d="M119 43q-49 53 -49 140v317h95v-295q0 -63 27 -97t79 -34h2q58 0 92.5 46t34.5 137v243h95v-500h-95v67q-23 -36 -62 -56.5t-90 -20.5q-80 0 -129 53zM222 700h105l-92 -137h-64zM381 700h105l-92 -137h-63z" />
    <glyph glyph-name="Uogonek" unicode="&#x172;" horiz-adv-x="696" 
d="M310 -181.5q-30 24.5 -30 63.5q0 34 18.5 61.5t46.5 46.5q-131 1 -196.5 70t-65.5 189v451h100v-439q0 -88 41 -134.5t119 -46.5h10q78 0 119 46.5t41 134.5v439h100v-451q0 -176 -147 -243q-62 -28 -89 -50.5t-27 -52.5q0 -23 16.5 -33t41.5 -10h22v-66h-39
q-51 0 -81 24.5z" />
    <glyph glyph-name="uogonek" unicode="&#x173;" horiz-adv-x="570" 
d="M119 43q-49 53 -49 140v317h95v-295q0 -63 27 -97t79 -34h2q58 0 92.5 46t34.5 137v243h95v-500q-39 -23 -62 -46t-23 -51q0 -23 16.5 -33t41.5 -10h22v-66h-40q-50 0 -80 24.5t-30 63.5t23.5 68.5t57.5 49.5h-21v67q-23 -36 -62 -56.5t-90 -20.5q-80 0 -129 53z" />
    <glyph glyph-name="Wcircumflex" unicode="&#x174;" horiz-adv-x="940" 
d="M26 700h103l140 -597l139 597h131l137 -601l135 601h103l-171 -700h-136l-137 579l-137 -579h-136zM416 890h117l113 -132h-84l-87 67l-88 -67h-84z" />
    <glyph glyph-name="wcircumflex" unicode="&#x175;" horiz-adv-x="774" 
d="M17 500h99l115 -403l104 403h104l109 -405l112 405h96l-153 -500h-110l-105 391l-105 -391h-110zM335 700h105l117 -137h-69l-100 75l-100 -75h-70z" />
    <glyph glyph-name="Ycircumflex" unicode="&#x176;" horiz-adv-x="624" 
d="M262 288l-254 412h115l192 -315l190 315h110l-253 -412v-288h-100v288zM255 890h117l113 -132h-84l-87 67l-88 -67h-84z" />
    <glyph glyph-name="ycircumflex" unicode="&#x177;" horiz-adv-x="528" 
d="M29 -97h95q29 0 46 12.5t29 43.5l24 63l-222 478h104l165 -360l142 360h100l-230 -573q-25 -61 -60.5 -84.5t-94.5 -23.5h-98v84zM205 700h105l117 -137h-69l-100 75l-100 -75h-70z" />
    <glyph glyph-name="Ydieresis" unicode="&#x178;" horiz-adv-x="624" 
d="M262 288l-254 412h115l192 -315l190 315h110l-253 -412v-288h-100v288zM372 789q-16 16 -16 39t16 39.5t39 16.5t39.5 -16.5t16.5 -39.5t-16.5 -39t-39.5 -16t-39 16zM177.5 789.5q-16.5 16.5 -16.5 38.5q0 23 16 39.5t39 16.5t39.5 -16.5t16.5 -39.5t-16.5 -39
t-39.5 -16q-22 0 -38.5 16.5z" />
    <glyph glyph-name="Zacute" unicode="&#x179;" horiz-adv-x="611" 
d="M38 91l409 519h-399v90h515v-89l-411 -521h421v-90h-535v91zM317 890h118l-93 -132h-72z" />
    <glyph glyph-name="zacute" unicode="&#x17a;" horiz-adv-x="491" 
d="M41 82l287 336h-282v82h394v-81l-287 -337h302v-82h-414v82zM262 700h105l-92 -137h-64z" />
    <glyph glyph-name="Zdotaccent" unicode="&#x17b;" horiz-adv-x="611" 
d="M38 91l409 519h-399v90h515v-89l-411 -521h421v-90h-535v91zM263 789q-17 17 -17 42t17 42.5t42 17.5t42.5 -17.5t17.5 -42.5t-17.5 -42t-42.5 -17t-42 17z" />
    <glyph glyph-name="zdotaccent" unicode="&#x17c;" horiz-adv-x="491" 
d="M41 82l287 336h-282v82h394v-81l-287 -337h302v-82h-414v82zM201 604q-18 18 -18 43q0 26 18 43.5t43 17.5t43 -18t18 -43t-18 -43t-43 -18t-43 18z" />
    <glyph glyph-name="Zcaron" unicode="&#x17d;" horiz-adv-x="611" 
d="M38 91l409 519h-399v90h515v-89l-411 -521h421v-90h-535v91zM135 890h84l88 -67l87 67h84l-113 -132h-117z" />
    <glyph glyph-name="zcaron" unicode="&#x17e;" horiz-adv-x="491" 
d="M41 82l287 336h-282v82h394v-81l-287 -337h302v-82h-414v82zM74 700h70l100 -74l100 74h69l-117 -137h-105z" />
    <glyph glyph-name="florin" unicode="&#x192;" horiz-adv-x="404" 
d="M-63 -114h46q50 0 70 22t29 77l59 386h-104v85h116l9 56q16 102 57.5 145t128.5 43h53v-86h-46q-49 0 -68.5 -22.5t-27.5 -76.5l-9 -59h123v-85h-136l-58 -381q-16 -103 -58.5 -146.5t-131.5 -43.5h-52v86z" />
    <glyph glyph-name="uni01E2" unicode="&#x1e2;" horiz-adv-x="979" 
d="M381 700h515v-90h-360l30 -205h300v-90h-290l31 -225h349v-90h-434l-26 180h-303l-101 -180h-109zM484 270l-48 342l-192 -342h240zM477 854h299v-77h-299v77z" />
    <glyph glyph-name="uni01E3" unicode="&#x1e3;" horiz-adv-x="889" 
d="M93.5 32q-48.5 42 -48.5 107q0 140 196 155l146 11v16q0 52 -33 81.5t-86 29.5h-4q-43 0 -75 -21t-40 -56h-93q10 68 67.5 111.5t144.5 43.5q124 0 179 -82q32 40 77.5 61t98.5 21q58 0 106 -25.5t77.5 -73t34.5 -110.5q3 -22 3 -67h-360q3 -78 42 -121.5t96 -43.5h6
q43 0 73 21.5t41 61.5h96q-17 -74 -74.5 -118t-139.5 -44q-63 0 -113 27.5t-81 78.5q-28 -46 -80.5 -76t-127.5 -30q-80 0 -128.5 42zM309 84.5q34 16.5 56 48.5t22 77v23l-134 -9q-57 -4 -86 -25t-29 -56q0 -33 26.5 -54t70.5 -21h4q36 0 70 16.5zM710 398.5
q-33 33.5 -84 33.5h-7q-48 0 -84 -31.5t-47 -92.5h259q-4 57 -37 90.5zM304 661h287v-77h-287v77z" />
    <glyph glyph-name="Aringacute" unicode="&#x1fa;" horiz-adv-x="696" 
d="M287 700h124l277 -700h-105l-70 177h-333l-69 -177h-104zM478 268l-132 334l-130 -334h262zM292 762.5q-23 22.5 -23 57.5q0 34 23.5 56.5t56.5 22.5t56 -22.5t23 -56.5q0 -35 -23 -57.5t-56 -22.5q-34 0 -57 22.5zM370 798q9 9 9 22t-9 21.5t-21 8.5t-21 -8.5t-9 -21.5
t9 -22t21 -9t21 9zM353 1016h96l-68 -90h-60z" />
    <glyph glyph-name="aringacute" unicode="&#x1fb;" horiz-adv-x="551" 
d="M93 32q-48 42 -48 107q0 140 196 155l146 11v16q0 51 -33 80.5t-86 29.5h-4q-44 0 -75.5 -20.5t-39.5 -55.5h-93q10 68 67.5 111.5t144.5 43.5q103 0 158 -54t55 -139v-207q0 -75 5 -110h-88q-3 15 -4.5 37.5t-1.5 37.5q-22 -35 -68 -60t-104 -25q-79 0 -127 42zM309 85
q34 16 56 48t22 77v22l-134 -9q-57 -4 -86 -24.5t-29 -55.5q0 -32 26.5 -53t70.5 -21h4q36 0 70 16zM203 578q-28 27 -28 67q0 39 28 66t66 27q39 0 67 -27t28 -66q0 -40 -28 -67t-67 -27q-38 0 -66 27zM300.5 614q12.5 13 12.5 31t-12.5 31t-30.5 13t-31 -13t-13 -31
t13 -31t31 -13t30.5 13zM286 899h106l-91 -133h-64z" />
    <glyph glyph-name="AEacute" unicode="&#x1fc;" horiz-adv-x="979" 
d="M381 700h515v-90h-360l30 -205h300v-90h-290l31 -225h349v-90h-434l-26 180h-303l-101 -180h-109zM484 270l-48 342l-192 -342h240zM638 890h118l-93 -132h-72z" />
    <glyph glyph-name="aeacute" unicode="&#x1fd;" horiz-adv-x="889" 
d="M93.5 32q-48.5 42 -48.5 107q0 140 196 155l146 11v16q0 52 -33 81.5t-86 29.5h-4q-43 0 -75 -21t-40 -56h-93q10 68 67.5 111.5t144.5 43.5q124 0 179 -82q32 40 77.5 61t98.5 21q58 0 106 -25.5t77.5 -73t34.5 -110.5q3 -22 3 -67h-360q3 -78 42 -121.5t96 -43.5h6
q43 0 73 21.5t41 61.5h96q-17 -74 -74.5 -118t-139.5 -44q-63 0 -113 27.5t-81 78.5q-28 -46 -80.5 -76t-127.5 -30q-80 0 -128.5 42zM309 84.5q34 16.5 56 48.5t22 77v23l-134 -9q-57 -4 -86 -25t-29 -56q0 -33 26.5 -54t70.5 -21h4q36 0 70 16.5zM710 398.5
q-33 33.5 -84 33.5h-7q-48 0 -84 -31.5t-47 -92.5h259q-4 57 -37 90.5zM466 700h105l-92 -137h-64z" />
    <glyph glyph-name="Oslashacute" unicode="&#x1fe;" horiz-adv-x="773" 
d="M202 43l-63 -79l-71 56l66 83q-83 99 -83 247q0 108 44 189.5t120.5 126t171.5 44.5q104 0 184 -52l62 78l71 -56l-65 -82q40 -47 62 -110t22 -138q0 -107 -44 -189t-120.5 -126.5t-171.5 -44.5q-104 0 -185 53zM509.5 114q52.5 33 82.5 94t30 142q0 99 -45 169
l-317 -402q54 -36 123 -36h8q66 0 118.5 33zM196 182l317 402q-53 35 -122 35h-8q-66 0 -118.5 -32.5t-82.5 -93.5t-30 -143q0 -99 44 -168zM398 890h118l-93 -132h-72z" />
    <glyph glyph-name="oslashacute" unicode="&#x1ff;" horiz-adv-x="579" 
d="M165 24l-50 -65l-61 51l51 66q-28 34 -43.5 79t-15.5 95q0 74 32 133.5t88 93t125 33.5q67 0 121 -31l48 62l65 -47l-51 -67q61 -72 61 -177q0 -74 -32 -133.5t-87.5 -93t-124.5 -33.5q-70 0 -126 34zM368 93.5q33 22.5 52 63t19 93.5q0 58 -23 102l-200 -261
q32 -20 71 -20h6q42 0 75 22.5zM163 152l197 259q-31 18 -67 18h-6q-64 0 -104.5 -49.5t-40.5 -129.5q0 -56 21 -98zM308 700h105l-92 -137h-64z" />
    <glyph glyph-name="uni0218" unicode="&#x218;" horiz-adv-x="624" 
d="M114 51.5q-72 61.5 -74 173.5h99q1 -70 48 -107.5t128 -37.5h10q68 0 107.5 30.5t39.5 78.5q0 86 -114 107l-117 22q-88 17 -132 64t-44 127q0 55 30 101t86.5 73t131.5 27q77 0 134.5 -27.5t90 -77t34.5 -115.5h-100q-5 60 -47.5 95t-108.5 35h-10q-63 0 -103 -31
t-40 -78q0 -40 25.5 -63t75.5 -32l117 -21q91 -17 141.5 -68t50.5 -134q0 -61 -32 -107t-90.5 -71t-135.5 -25q-129 0 -201 61.5zM249 -213h7q49 0 49 34v5h-42v92h95v-96q0 -36 -26.5 -60t-70.5 -24h-12v49z" />
    <glyph glyph-name="uni0219" unicode="&#x219;" horiz-adv-x="486" 
d="M94 36q-53 46 -55 119h93q4 -43 33.5 -65t76.5 -22h9q41 0 67 18.5t26 49.5q0 25 -17 41.5t-57 24.5l-73 13q-143 28 -143 143q0 70 53 111t131 41q95 0 146.5 -45t54.5 -119h-95q-4 37 -30.5 61.5t-72.5 24.5h-8q-40 0 -64 -19t-24 -47q0 -27 17 -42t58 -23l79 -15
q66 -13 103.5 -48.5t37.5 -97.5q0 -68 -54 -109t-142 -41q-97 0 -150 46zM180 -213h7q49 0 49 34v5h-42v92h95v-96q0 -36 -26.5 -60t-70.5 -24h-12v49z" />
    <glyph glyph-name="uni021A" unicode="&#x21a;" horiz-adv-x="630" 
d="M265 610h-250v90h600v-90h-250v-610h-100v610zM253 -213h7q49 0 49 34v5h-42v92h95v-96q0 -36 -26.5 -60t-70.5 -24h-12v49z" />
    <glyph glyph-name="uni021B" unicode="&#x21b;" horiz-adv-x="388" 
d="M159 32.5q-32 32.5 -32 92.5v295h-109v80h109v162h95v-162h120v-80h-120v-282q0 -30 12 -42.5t43 -12.5h80v-83h-105q-61 0 -93 32.5zM156 -213h7q49 0 49 34v5h-42v92h95v-96q0 -36 -26.5 -60t-70.5 -24h-12v49z" />
    <glyph glyph-name="uni0226" unicode="&#x226;" horiz-adv-x="696" 
d="M287 700h124l277 -700h-105l-70 177h-333l-69 -177h-104zM478 268l-132 334l-130 -334h262zM306 789q-17 17 -17 42t17 42.5t42 17.5t42.5 -17.5t17.5 -42.5t-17.5 -42t-42.5 -17t-42 17z" />
    <glyph glyph-name="uni0227" unicode="&#x227;" horiz-adv-x="551" 
d="M93 32q-48 42 -48 107q0 140 196 155l146 11v16q0 51 -33 80.5t-86 29.5h-4q-44 0 -75.5 -20.5t-39.5 -55.5h-93q10 68 67.5 111.5t144.5 43.5q103 0 158 -54t55 -139v-207q0 -75 5 -110h-88q-3 15 -4.5 37.5t-1.5 37.5q-22 -35 -68 -60t-104 -25q-79 0 -127 42zM309 85
q34 16 56 48t22 77v22l-134 -9q-57 -4 -86 -24.5t-29 -55.5q0 -32 26.5 -53t70.5 -21h4q36 0 70 16zM226 604q-18 18 -18 43q0 26 18 43.5t43 17.5t43 -18t18 -43t-18 -43t-43 -18t-43 18z" />
    <glyph glyph-name="uni0232" unicode="&#x232;" horiz-adv-x="624" 
d="M262 288l-254 412h115l192 -315l190 315h110l-253 -412v-288h-100v288zM163 854h299v-77h-299v77z" />
    <glyph glyph-name="uni0233" unicode="&#x233;" horiz-adv-x="528" 
d="M29 -97h95q29 0 46 12.5t29 43.5l24 63l-222 478h104l165 -360l142 360h100l-230 -573q-25 -61 -60.5 -84.5t-94.5 -23.5h-98v84zM114 661h287v-77h-287v77z" />
    <glyph glyph-name="uni0237" unicode="&#x237;" horiz-adv-x="246" 
d="M-89 -100h112q28 0 40.5 13t12.5 41v546h95v-553q0 -64 -32.5 -97t-96.5 -33h-131v83z" />
    <glyph glyph-name="uni02BC" unicode="&#x2bc;" horiz-adv-x="264" 
d="M54 505h34q60 0 60 61v14h-59v120h120v-139q0 -55 -31.5 -86t-85.5 -31h-38v61z" />
    <glyph glyph-name="circumflex" unicode="&#x2c6;" horiz-adv-x="399" 
d="M147 700h105l117 -137h-69l-100 75l-100 -75h-70z" />
    <glyph glyph-name="caron" unicode="&#x2c7;" horiz-adv-x="399" 
d="M30 700h70l100 -74l100 74h69l-117 -137h-105z" />
    <glyph glyph-name="breve" unicode="&#x2d8;" horiz-adv-x="363" 
d="M74 592.5q-42 36.5 -44 107.5h74q4 -40 24.5 -59.5t53.5 -19.5t53.5 20t23.5 59h74q-2 -70 -44.5 -107t-106.5 -37q-66 0 -108 36.5z" />
    <glyph glyph-name="dotaccent" unicode="&#x2d9;" horiz-adv-x="173" 
d="M44 604q-18 18 -18 43q0 26 18 43.5t43 17.5t43 -18t18 -43t-18 -43t-43 -18t-43 18z" />
    <glyph glyph-name="ring" unicode="&#x2da;" horiz-adv-x="249" 
d="M58 581q-28 27 -28 67q0 39 28.5 66.5t65.5 27.5q39 0 67 -27.5t28 -66.5q0 -40 -28 -67t-67 -27q-38 0 -66 27zM155.5 617q12.5 13 12.5 31t-12.5 31t-30.5 13t-31 -13t-13 -31t13 -31t31 -13t30.5 13z" />
    <glyph glyph-name="ogonek" unicode="&#x2db;" horiz-adv-x="211" 
d="M56 -181.5q-30 24.5 -30 63.5q0 47 32 79.5t73 50.5l50 -12q-39 -23 -62 -46t-23 -51q0 -23 16.5 -33t41.5 -10h22v-66h-40q-50 0 -80 24.5z" />
    <glyph glyph-name="tilde" unicode="&#x2dc;" horiz-adv-x="416" 
d="M205 588l-25 17q-12 8 -22 12t-22 4q-16 0 -26 -14t-10 -40h-70v25q0 44 27.5 74t70.5 30q40 0 80 -28l22 -16q31 -20 51 -20q17 0 26 13.5t9 40.5h70v-26q0 -44 -27.5 -73.5t-68.5 -29.5q-39 0 -85 31z" />
    <glyph glyph-name="hungarumlaut" unicode="&#x2dd;" horiz-adv-x="374" 
d="M81 700h105l-92 -137h-64zM240 700h105l-92 -137h-63z" />
    <glyph glyph-name="gravecomb" unicode="&#x300;" horiz-adv-x="0" 
d="M30 700h105l51 -137h-65z" />
    <glyph glyph-name="acutecomb" unicode="&#x301;" horiz-adv-x="0" 
d="M80 700h105l-92 -137h-64z" />
    <glyph glyph-name="uni0302" unicode="&#x302;" horiz-adv-x="0" 
d="M147 700h105l117 -137h-69l-100 75l-100 -75h-70z" />
    <glyph glyph-name="tildecomb" unicode="&#x303;" horiz-adv-x="0" 
d="M205 588l-25 17q-12 8 -22 12t-22 4q-16 0 -26 -14t-10 -40h-70v25q0 44 27.5 74t70.5 30q40 0 80 -28l22 -16q31 -20 51 -20q17 0 26 13.5t9 40.5h70v-26q0 -44 -27.5 -73.5t-68.5 -29.5q-39 0 -85 31z" />
    <glyph glyph-name="uni0304" unicode="&#x304;" horiz-adv-x="0" 
d="M30 661h287v-77h-287v77z" />
    <glyph glyph-name="uni0306" unicode="&#x306;" horiz-adv-x="0" 
d="M74 592.5q-42 36.5 -44 107.5h74q4 -40 24.5 -59.5t53.5 -19.5t53.5 20t23.5 59h74q-2 -70 -44.5 -107t-106.5 -37q-66 0 -108 36.5z" />
    <glyph glyph-name="uni0307" unicode="&#x307;" horiz-adv-x="0" 
d="M48 604q-18 18 -18 43q0 26 18 43.5t43 17.5t43 -18t18 -43t-18 -43t-43 -18t-43 18z" />
    <glyph glyph-name="uni0308" unicode="&#x308;" horiz-adv-x="0" 
d="M237.5 598q-15.5 16 -15.5 38q0 23 15.5 39t37.5 16q23 0 39 -16t16 -39q0 -22 -16.5 -38t-38.5 -16t-37.5 16zM46 598q-16 16 -16 38t16 38.5t38 16.5q23 0 39 -16t16 -39q0 -22 -16.5 -38t-38.5 -16t-38 16z" />
    <glyph glyph-name="uni030A" unicode="&#x30a;" horiz-adv-x="0" 
d="M58 581q-28 27 -28 67q0 39 28.5 66.5t65.5 27.5q39 0 67 -27.5t28 -66.5q0 -40 -28 -67t-67 -27q-38 0 -66 27zM155.5 617q12.5 13 12.5 31t-12.5 31t-30.5 13t-31 -13t-13 -31t13 -31t31 -13t30.5 13z" />
    <glyph glyph-name="uni030B" unicode="&#x30b;" horiz-adv-x="0" 
d="M81 700h105l-92 -137h-64zM240 700h105l-92 -137h-63z" />
    <glyph glyph-name="uni030C" unicode="&#x30c;" horiz-adv-x="0" 
d="M30 700h70l100 -74l100 74h69l-117 -137h-105z" />
    <glyph glyph-name="uni0312" unicode="&#x312;" horiz-adv-x="0" 
d="M71 762q27 26 72 26h18v-52h-13q-51 0 -51 -39v-6h42v-100h-95v105q0 40 27 66z" />
    <glyph glyph-name="dotbelowcomb" unicode="&#x323;" horiz-adv-x="0" 
d="M52 -171q-16 16 -16 39t16 39.5t39 16.5t39.5 -16.5t16.5 -39.5t-16.5 -39t-39.5 -16t-39 16z" />
    <glyph glyph-name="uni0326" unicode="&#x326;" horiz-adv-x="0" 
d="M35 -213h7q49 0 49 34v5h-42v92h95v-96q0 -36 -26.5 -60t-70.5 -24h-12v49z" />
    <glyph glyph-name="uni0327" unicode="&#x327;" horiz-adv-x="0" 
d="M30 -170h69q22 0 33 9t11 26q0 16 -10.5 25t-30.5 9h-37v118h56v-66q38 -2 62.5 -25.5t24.5 -61.5q0 -45 -30.5 -72t-80.5 -27h-67v65z" />
    <glyph glyph-name="uni0328" unicode="&#x328;" horiz-adv-x="0" 
d="M56 -181.5q-30 24.5 -30 63.5q0 47 32 79.5t73 50.5l50 -12q-39 -23 -62 -46t-23 -51q0 -23 16.5 -33t41.5 -10h22v-66h-40q-50 0 -80 24.5z" />
    <glyph glyph-name="uni0335" unicode="&#x335;" horiz-adv-x="0" 
d="M30 424h466v-88h-466v88z" />
    <glyph glyph-name="uni0336" unicode="&#x336;" horiz-adv-x="0" 
d="M30 591h690v-83h-690v83z" />
    <glyph glyph-name="uni0337" unicode="&#x337;" horiz-adv-x="0" 
d="M30 374l257 145v-92l-257 -146v93z" />
    <glyph glyph-name="uni0338" unicode="&#x338;" horiz-adv-x="0" 
d="M30 20l565 716l71 -56l-565 -716z" />
    <glyph glyph-name="Wgrave" unicode="&#x1e80;" horiz-adv-x="940" 
d="M26 700h103l140 -597l139 597h131l137 -601l135 601h103l-171 -700h-136l-137 579l-137 -579h-136zM351 890h118l47 -132h-72z" />
    <glyph glyph-name="wgrave" unicode="&#x1e81;" horiz-adv-x="774" 
d="M17 500h99l115 -403l104 403h104l109 -405l112 405h96l-153 -500h-110l-105 391l-105 -391h-110zM265 700h105l51 -137h-65z" />
    <glyph glyph-name="Wacute" unicode="&#x1e82;" horiz-adv-x="940" 
d="M26 700h103l140 -597l139 597h131l137 -601l135 601h103l-171 -700h-136l-137 579l-137 -579h-136zM485 890h118l-93 -132h-72z" />
    <glyph glyph-name="wacute" unicode="&#x1e83;" horiz-adv-x="774" 
d="M17 500h99l115 -403l104 403h104l109 -405l112 405h96l-153 -500h-110l-105 391l-105 -391h-110zM406 700h105l-92 -137h-64z" />
    <glyph glyph-name="Wdieresis" unicode="&#x1e84;" horiz-adv-x="940" 
d="M26 700h103l140 -597l139 597h131l137 -601l135 601h103l-171 -700h-136l-137 579l-137 -579h-136zM533 789q-16 16 -16 39t16 39.5t39 16.5t39.5 -16.5t16.5 -39.5t-16.5 -39t-39.5 -16t-39 16zM338.5 789.5q-16.5 16.5 -16.5 38.5q0 23 16 39.5t39 16.5t39.5 -16.5
t16.5 -39.5t-16.5 -39t-39.5 -16q-22 0 -38.5 16.5z" />
    <glyph glyph-name="wdieresis" unicode="&#x1e85;" horiz-adv-x="774" 
d="M17 500h99l115 -403l104 403h104l109 -405l112 405h96l-153 -500h-110l-105 391l-105 -391h-110zM445.5 598q-15.5 16 -15.5 38q0 23 15.5 39t37.5 16q23 0 39 -16t16 -39q0 -22 -16.5 -38t-38.5 -16t-37.5 16zM254 598q-16 16 -16 38t16 38.5t38 16.5q23 0 39 -16
t16 -39q0 -22 -16.5 -38t-38.5 -16t-38 16z" />
    <glyph glyph-name="uni1E9E" unicode="&#x1e9e;" horiz-adv-x="649" 
d="M90 700h269q56 0 101.5 -22t72 -63t26.5 -96q0 -53 -28.5 -93t-74.5 -60q66 -13 107 -60.5t41 -115.5q0 -58 -28 -101t-76.5 -66t-109.5 -23h-105v90h91q58 0 93 29t35 82q0 51 -34.5 79.5t-92.5 28.5h-92v90h52q56 0 89 29t33 79q0 48 -32 75.5t-83 27.5h-154v-610h-100
v700z" />
    <glyph glyph-name="uni1EA0" unicode="&#x1ea0;" horiz-adv-x="696" 
d="M287 700h124l277 -700h-105l-70 177h-333l-69 -177h-104zM478 268l-132 334l-130 -334h262zM309 -171q-16 16 -16 39t16 39.5t39 16.5t39.5 -16.5t16.5 -39.5t-16.5 -39t-39.5 -16t-39 16z" />
    <glyph glyph-name="uni1EA1" unicode="&#x1ea1;" horiz-adv-x="551" 
d="M93 32q-48 42 -48 107q0 140 196 155l146 11v16q0 51 -33 80.5t-86 29.5h-4q-44 0 -75.5 -20.5t-39.5 -55.5h-93q10 68 67.5 111.5t144.5 43.5q103 0 158 -54t55 -139v-207q0 -75 5 -110h-88q-3 15 -4.5 37.5t-1.5 37.5q-22 -35 -68 -60t-104 -25q-79 0 -127 42zM309 85
q34 16 56 48t22 77v22l-134 -9q-57 -4 -86 -24.5t-29 -55.5q0 -32 26.5 -53t70.5 -21h4q36 0 70 16zM223 -171q-16 16 -16 39t16 39.5t39 16.5t39.5 -16.5t16.5 -39.5t-16.5 -39t-39.5 -16t-39 16z" />
    <glyph glyph-name="uni1EB8" unicode="&#x1eb8;" horiz-adv-x="653" 
d="M90 700h509v-90h-409v-205h349v-90h-349v-225h419v-90h-519v700zM310 -171q-16 16 -16 39t16 39.5t39 16.5t39.5 -16.5t16.5 -39.5t-16.5 -39t-39.5 -16t-39 16z" />
    <glyph glyph-name="uni1EB9" unicode="&#x1eb9;" horiz-adv-x="545" 
d="M159.5 22q-53.5 32 -84.5 91t-31 138q0 78 31.5 136.5t84.5 90.5t117 32q89 0 149 -54t72 -147q4 -34 3 -77h-362q3 -76 42.5 -119t95.5 -43h6q42 0 73 22t42 60h96q-17 -72 -75.5 -117t-139.5 -45q-66 0 -119.5 32zM366 397.5q-34 33.5 -85 33.5h-7q-48 0 -84.5 -30.5
t-47.5 -93.5h262q-4 57 -38 90.5zM238 -171q-16 16 -16 39t16 39.5t39 16.5t39.5 -16.5t16.5 -39.5t-16.5 -39t-39.5 -16t-39 16z" />
    <glyph glyph-name="uni1ECA" unicode="&#x1eca;" horiz-adv-x="279" 
d="M90 700h100v-700h-100v700zM101 -171q-16 16 -16 39t16 39.5t39 16.5t39.5 -16.5t16.5 -39.5t-16.5 -39t-39.5 -16t-39 16z" />
    <glyph glyph-name="uni1ECB" unicode="&#x1ecb;" horiz-adv-x="246" 
d="M76 500h95v-500h-95v500zM81 604q-18 18 -18 43q0 26 18 43.5t43 17.5t43 -18t18 -43t-18 -43t-43 -18t-43 18zM85 -171q-16 16 -16 39t16 39.5t39 16.5t39.5 -16.5t16.5 -39.5t-16.5 -39t-39.5 -16t-39 16z" />
    <glyph glyph-name="uni1ECC" unicode="&#x1ecc;" horiz-adv-x="769" 
d="M212.5 34.5q-76.5 44.5 -120.5 126.5t-44 189q0 108 44 189.5t120.5 126t171.5 44.5t171.5 -44.5t120.5 -126t44 -189.5q0 -107 -44 -189t-120.5 -126.5t-171.5 -44.5t-171.5 44.5zM506.5 114q52.5 33 82.5 94t30 142q0 82 -30 143t-82.5 93.5t-118.5 32.5h-8
q-66 0 -118.5 -32.5t-82.5 -93.5t-30 -143q0 -81 30 -142t82.5 -94t118.5 -33h8q66 0 118.5 33zM344 -171q-16 16 -16 39t16 39.5t39 16.5t39.5 -16.5t16.5 -39.5t-16.5 -39t-39.5 -16t-39 16z" />
    <glyph glyph-name="uni1ECD" unicode="&#x1ecd;" horiz-adv-x="574" 
d="M163 23.5q-56 33.5 -88 93t-32 133.5t32 133.5t88 93t125 33.5t124.5 -33.5t87.5 -93t32 -133.5t-32 -133.5t-87.5 -93t-124.5 -33.5t-125 33.5zM365 93.5q33 22.5 52 63t19 93.5t-19 93.5t-52 63t-75 22.5h-6q-64 0 -104.5 -49.5t-40.5 -129.5t40.5 -129.5t104.5 -49.5
h6q42 0 75 22.5zM249 -171q-16 16 -16 39t16 39.5t39 16.5t39.5 -16.5t16.5 -39.5t-16.5 -39t-39.5 -16t-39 16z" />
    <glyph glyph-name="uni1EE4" unicode="&#x1ee4;" horiz-adv-x="696" 
d="M149.5 59q-66.5 69 -66.5 190v451h100v-439q0 -88 41 -134.5t119 -46.5h10q78 0 119 46.5t41 134.5v439h100v-451q0 -120 -67.5 -189.5t-197.5 -69.5q-132 0 -198.5 69zM309 -171q-16 16 -16 39t16 39.5t39 16.5t39.5 -16.5t16.5 -39.5t-16.5 -39t-39.5 -16t-39 16z" />
    <glyph glyph-name="uni1EE5" unicode="&#x1ee5;" horiz-adv-x="570" 
d="M119 43q-49 53 -49 140v317h95v-295q0 -63 27 -97t79 -34h2q58 0 92.5 46t34.5 137v243h95v-500h-95v67q-23 -36 -62 -56.5t-90 -20.5q-80 0 -129 53zM244 -171q-16 16 -16 39t16 39.5t39 16.5t39.5 -16.5t16.5 -39.5t-16.5 -39t-39.5 -16t-39 16z" />
    <glyph glyph-name="Ygrave" unicode="&#x1ef2;" horiz-adv-x="624" 
d="M262 288l-254 412h115l192 -315l190 315h110l-253 -412v-288h-100v288zM190 890h118l47 -132h-72z" />
    <glyph glyph-name="ygrave" unicode="&#x1ef3;" horiz-adv-x="528" 
d="M29 -97h95q29 0 46 12.5t29 43.5l24 63l-222 478h104l165 -360l142 360h100l-230 -573q-25 -61 -60.5 -84.5t-94.5 -23.5h-98v84zM135 700h105l51 -137h-65z" />
    <glyph glyph-name="uni2002" unicode="&#x2002;" horiz-adv-x="500" 
 />
    <glyph glyph-name="uni2003" unicode="&#x2003;" horiz-adv-x="1000" 
 />
    <glyph glyph-name="uni2009" unicode="&#x2009;" horiz-adv-x="125" 
 />
    <glyph glyph-name="uni200A" unicode="&#x200a;" horiz-adv-x="42" 
 />
    <glyph glyph-name="endash" unicode="&#x2013;" horiz-adv-x="562" 
d="M56 343h449v-81h-449v81z" />
    <glyph glyph-name="emdash" unicode="&#x2014;" horiz-adv-x="882" 
d="M56 343h769v-81h-769v81z" />
    <glyph glyph-name="uni2015" unicode="&#x2015;" horiz-adv-x="882" 
d="M56 343h769v-81h-769v81z" />
    <glyph glyph-name="quoteleft" unicode="&#x2018;" horiz-adv-x="264" 
d="M218 639h-34q-60 0 -60 -61v-14h59v-120h-120v139q0 55 31.5 86t85.5 31h38v-61z" />
    <glyph glyph-name="quoteright" unicode="&#x2019;" horiz-adv-x="264" 
d="M54 505h34q60 0 60 61v14h-59v120h120v-139q0 -55 -31.5 -86t-85.5 -31h-38v61z" />
    <glyph glyph-name="quotesinglbase" unicode="&#x201a;" horiz-adv-x="260" 
d="M35 -75h34q60 0 60 61v14h-59v120h120v-139q0 -55 -31.5 -86t-85.5 -31h-38v61z" />
    <glyph glyph-name="quotedblleft" unicode="&#x201c;" horiz-adv-x="469" 
d="M218 639h-34q-60 0 -60 -61v-14h59v-120h-120v139q0 55 31.5 86t85.5 31h38v-61zM423 639h-34q-60 0 -60 -61v-14h59v-120h-120v139q0 55 31.5 86t85.5 31h38v-61z" />
    <glyph glyph-name="quotedblright" unicode="&#x201d;" horiz-adv-x="469" 
d="M259 505h34q60 0 60 61v14h-59v120h120v-139q0 -55 -31.5 -86t-85.5 -31h-38v61zM54 505h34q60 0 60 61v14h-59v120h120v-139q0 -55 -31.5 -86t-85.5 -31h-38v61z" />
    <glyph glyph-name="quotedblbase" unicode="&#x201e;" horiz-adv-x="465" 
d="M240 -75h34q60 0 60 61v14h-59v120h120v-139q0 -55 -31.5 -86t-85.5 -31h-38v61zM35 -75h34q60 0 60 61v14h-59v120h120v-139q0 -55 -31.5 -86t-85.5 -31h-38v61z" />
    <glyph glyph-name="dagger" unicode="&#x2020;" horiz-adv-x="486" 
d="M196 463h-170v83h170v239h95v-239h170v-83h-170v-548h-95v548z" />
    <glyph glyph-name="daggerdbl" unicode="&#x2021;" horiz-adv-x="519" 
d="M212 154h-169v83h169v226h-169v83h169v239h95v-239h170v-83h-170v-226h170v-83h-170v-239h-95v239z" />
    <glyph glyph-name="bullet" unicode="&#x2022;" horiz-adv-x="328" 
d="M96.5 282.5q-27.5 27.5 -27.5 67.5t27.5 67.5t67.5 27.5t68 -27.5t28 -67.5t-28 -67.5t-68 -27.5t-67.5 27.5z" />
    <glyph glyph-name="ellipsis" unicode="&#x2026;" horiz-adv-x="756" 
d="M75 10q-20 20 -20 48q0 29 20 49t48 20t48 -20t20 -49q0 -28 -20 -48t-48 -20t-48 20zM330 10q-20 20 -20 48q0 29 20 49t48 20t48 -20t20 -49q0 -28 -20 -48t-48 -20t-48 20zM585 10q-20 20 -20 48q0 29 20 49t48 20t48 -20t20 -49q0 -28 -20 -48t-48 -20t-48 20z" />
    <glyph glyph-name="perthousand" unicode="&#x2030;" horiz-adv-x="1184" 
d="M75 355.5q-45 55.5 -45 147.5q0 91 45 146.5t124 55.5q78 0 123 -55.5t45 -146.5t-45 -147t-123 -56q-79 0 -124 55.5zM267 404.5q23 40.5 23 98.5q0 57 -23 97.5t-66 40.5h-4q-43 0 -66.5 -40.5t-23.5 -97.5q0 -58 23.5 -98.5t66.5 -40.5h4q43 0 66 40.5zM628 700h87
l-420 -700h-87zM598.5 51q-45.5 56 -45.5 147t45.5 146.5t123.5 55.5q43 0 76.5 -17t55.5 -49q22 32 55.5 49t76.5 17q78 0 123 -55.5t45 -146.5t-45 -147t-123 -56q-43 0 -76.5 17t-55.5 49q-22 -32 -55.5 -49t-76.5 -17q-78 0 -123.5 56zM790.5 100q23.5 41 23.5 98
t-23.5 97.5t-66.5 40.5h-4q-43 0 -66 -40.5t-23 -97.5t23.5 -98t65.5 -41h4q43 0 66.5 41zM1053.5 100q23.5 41 23.5 98t-23 97.5t-66 40.5h-4q-43 0 -66.5 -40.5t-23.5 -97.5t23.5 -98t66.5 -41h4q42 0 65.5 41z" />
    <glyph glyph-name="guilsinglleft" unicode="&#x2039;" horiz-adv-x="334" 
d="M37 285l145 215h110l-145 -215l146 -215h-111z" />
    <glyph glyph-name="guilsinglright" unicode="&#x203a;" horiz-adv-x="333" 
d="M186 284l-145 216h110l145 -215l-145 -215h-110z" />
    <glyph glyph-name="fraction" unicode="&#x2044;" horiz-adv-x="190" 
d="M261 700h87l-420 -700h-87z" />
    <glyph glyph-name="uni2070" unicode="&#x2070;" horiz-adv-x="402" 
d="M77 465.5q-45 55.5 -45 147.5q0 91 45 146.5t124 55.5t124 -55.5t45 -146.5q0 -92 -45 -147.5t-124 -55.5t-124 55.5zM269 514.5q23 40.5 23 98.5q0 57 -23 97.5t-66 40.5h-4q-43 0 -66 -40.5t-23 -97.5q0 -58 23 -98.5t66 -40.5h4q43 0 66 40.5z" />
    <glyph glyph-name="uni2074" unicode="&#x2074;" horiz-adv-x="366" 
d="M212 502h-189v68l181 240h79v-246h56v-62h-56v-87h-71v87zM212 564v158l-117 -158h117z" />
    <glyph glyph-name="uni2075" unicode="&#x2075;" horiz-adv-x="347" 
d="M71.5 440q-39.5 30 -44.5 85h78q4 -24 22 -37.5t43 -13.5h4q29 0 48 19t19 50q0 29 -18.5 46.5t-46.5 17.5h-3q-36 0 -60 -32h-77l34 235h232v-64h-176l-13 -104q29 27 76 27q55 0 92 -34t37 -89q0 -62 -41.5 -99t-105.5 -37q-60 0 -99.5 30z" />
    <glyph glyph-name="uni2076" unicode="&#x2076;" horiz-adv-x="368" 
d="M74.5 461q-41.5 51 -41.5 141q0 98 43.5 155.5t118.5 57.5q60 0 96 -32.5t41 -79.5h-76q-5 21 -21.5 34.5t-39.5 13.5h-6q-37 0 -59.5 -33.5t-25.5 -91.5q13 23 39 38t60 15q56 0 94 -36t38 -94q0 -59 -40.5 -99t-108.5 -40q-70 0 -111.5 51zM239.5 494q20.5 20 20.5 51
q0 30 -20 50.5t-50 20.5h-3q-30 0 -50.5 -20t-20.5 -51t20 -51t49 -20h3q31 0 51.5 20z" />
    <glyph glyph-name="uni2077" unicode="&#x2077;" horiz-adv-x="307" 
d="M217 746h-203v64h278v-65q-135 -115 -135 -296v-34h-77v34q0 193 137 297z" />
    <glyph glyph-name="uni2078" unicode="&#x2078;" horiz-adv-x="360" 
d="M74.5 439.5q-41.5 29.5 -41.5 80.5q0 33 21 59t54 37q-30 11 -48 35.5t-18 57.5q0 50 40 78t99 28t98.5 -28t39.5 -78q0 -33 -18.5 -57t-50.5 -36q34 -11 55 -36.5t21 -59.5q0 -51 -41 -80.5t-105 -29.5t-105.5 29.5zM231 488q20 14 20 39q0 24 -20.5 38t-47.5 14h-5
q-29 0 -49 -14t-20 -38q0 -25 19.5 -39t48.5 -14h5q29 0 49 14zM226 660q18 15 18 39t-17.5 38t-43.5 14h-5q-26 0 -43.5 -14t-17.5 -38t18 -39t43 -15h5q25 0 43 15z" />
    <glyph glyph-name="uni2079" unicode="&#x2079;" horiz-adv-x="368" 
d="M76.5 443q-35.5 33 -38.5 79h75q5 -22 21.5 -35t39.5 -13h6q36 0 58 33t27 92q-12 -23 -40.5 -38t-62.5 -15q-54 0 -91.5 36t-37.5 94q0 59 40 99t108 40q71 0 112.5 -50.5t41.5 -139.5q0 -101 -42 -158t-119 -57q-62 0 -97.5 33zM231 629.5q21 20.5 21 50.5q0 31 -20 51
t-49 20h-3q-31 0 -51.5 -20t-20.5 -51q0 -30 20 -50.5t50 -20.5h3q29 0 50 20.5z" />
    <glyph glyph-name="uni2080" unicode="&#x2080;" horiz-adv-x="402" 
d="M77 -64.5q-45 55.5 -45 147.5q0 91 45 146.5t124 55.5t124 -55.5t45 -146.5q0 -92 -45 -147.5t-124 -55.5t-124 55.5zM269 -15.5q23 40.5 23 98.5q0 57 -23 97.5t-66 40.5h-4q-43 0 -66 -40.5t-23 -97.5q0 -58 23 -98.5t66 -40.5h4q43 0 66 40.5z" />
    <glyph glyph-name="uni2081" unicode="&#x2081;" horiz-adv-x="233" 
d="M103 136h-87v51q85 4 105 93h57v-395h-75v251z" />
    <glyph glyph-name="uni2082" unicode="&#x2082;" horiz-adv-x="344" 
d="M32 -36l137 114q33 28 48 47t15 42q0 25 -16 39t-41 14h-5q-24 0 -41.5 -15.5t-18.5 -43.5h-77q2 57 42 90.5t99 33.5q58 0 96.5 -31.5t38.5 -83.5q0 -39 -21 -68t-62 -62l-107 -89h193v-66h-280v79z" />
    <glyph glyph-name="uni2083" unicode="&#x2083;" horiz-adv-x="350" 
d="M69.5 -88.5q-40.5 31.5 -41.5 86.5h77q1 -25 18.5 -39.5t44.5 -14.5h5q28 0 46.5 15t18.5 41q0 25 -17.5 39t-43.5 14h-38v64h38q25 0 42 14.5t17 37.5q0 24 -17 38t-44 14h-5q-25 0 -41 -13.5t-18 -36.5h-77q1 55 40.5 84.5t99.5 29.5q58 0 97.5 -29t39.5 -80
q0 -31 -16.5 -55t-44.5 -35q27 -10 46 -34t19 -58q0 -54 -42.5 -84t-102.5 -30t-100.5 31.5z" />
    <glyph glyph-name="uni2084" unicode="&#x2084;" horiz-adv-x="366" 
d="M212 -28h-189v68l181 240h79v-246h56v-62h-56v-87h-71v87zM212 34v158l-117 -158h117z" />
    <glyph glyph-name="uni2085" unicode="&#x2085;" horiz-adv-x="347" 
d="M71.5 -90q-39.5 30 -44.5 85h78q4 -24 22 -37.5t43 -13.5h4q29 0 48 19t19 50q0 29 -18.5 46.5t-46.5 17.5h-3q-36 0 -60 -32h-77l34 235h232v-64h-176l-13 -104q29 27 76 27q55 0 92 -34t37 -89q0 -62 -41.5 -99t-105.5 -37q-60 0 -99.5 30z" />
    <glyph glyph-name="uni2086" unicode="&#x2086;" horiz-adv-x="368" 
d="M74.5 -69q-41.5 51 -41.5 141q0 98 43.5 155.5t118.5 57.5q60 0 96 -32.5t41 -79.5h-76q-5 21 -21.5 34.5t-39.5 13.5h-6q-37 0 -59.5 -33.5t-25.5 -91.5q13 23 39 38t60 15q56 0 94 -36t38 -94q0 -59 -40.5 -99t-108.5 -40q-70 0 -111.5 51zM239.5 -36q20.5 20 20.5 51
q0 30 -20 50.5t-50 20.5h-3q-30 0 -50.5 -20t-20.5 -51t20 -51t49 -20h3q31 0 51.5 20z" />
    <glyph glyph-name="uni2087" unicode="&#x2087;" horiz-adv-x="307" 
d="M217 216h-203v64h278v-65q-135 -115 -135 -296v-34h-77v34q0 193 137 297z" />
    <glyph glyph-name="uni2088" unicode="&#x2088;" horiz-adv-x="360" 
d="M74.5 -90.5q-41.5 29.5 -41.5 80.5q0 33 21 59t54 37q-30 11 -48 35.5t-18 57.5q0 50 40 78t99 28t98.5 -28t39.5 -78q0 -33 -18.5 -57t-50.5 -36q34 -11 55 -36.5t21 -59.5q0 -51 -41 -80.5t-105 -29.5t-105.5 29.5zM231 -42q20 14 20 39q0 24 -20.5 38t-47.5 14h-5
q-29 0 -49 -14t-20 -38q0 -25 19.5 -39t48.5 -14h5q29 0 49 14zM226 130q18 15 18 39t-17.5 38t-43.5 14h-5q-26 0 -43.5 -14t-17.5 -38t18 -39t43 -15h5q25 0 43 15z" />
    <glyph glyph-name="uni2089" unicode="&#x2089;" horiz-adv-x="368" 
d="M76.5 -87q-35.5 33 -38.5 79h75q5 -22 21.5 -35t39.5 -13h6q36 0 58 33t27 92q-12 -23 -40.5 -38t-62.5 -15q-54 0 -91.5 36t-37.5 94q0 59 40 99t108 40q71 0 112.5 -50.5t41.5 -139.5q0 -101 -42 -158t-119 -57q-62 0 -97.5 33zM231 99.5q21 20.5 21 50.5q0 31 -20 51
t-49 20h-3q-31 0 -51.5 -20t-20.5 -51q0 -30 20 -50.5t50 -20.5h3q29 0 50 20.5z" />
    <glyph glyph-name="uni20A9" unicode="&#x20a9;" horiz-adv-x="980" 
d="M49 378h76l-79 322h103l76 -322h128l74 322h132l74 -322h125l73 322h104l-79 -322h76v-76h-95l-74 -302h-137l-70 302h-131l-71 -302h-137l-74 302h-94v76zM289 103l46 199h-93zM538 378l-47 201l-48 -201h95zM696 103l45 199h-90z" />
    <glyph glyph-name="Euro" unicode="&#x20ac;" horiz-adv-x="686" 
d="M249 39.5q-64 49.5 -94 140.5l-107 -23v83l88 20q-5 36 -6 79l-82 -18v83l86 19q16 135 86.5 211t181.5 76q101 0 163.5 -58.5t72.5 -162.5h-98q-8 64 -42.5 99.5t-91.5 35.5h-10q-62 0 -103.5 -46.5t-56.5 -131.5l191 42v-83l-199 -44v-11q0 -40 4 -69l153 34v-84
l-136 -30q20 -60 58 -92.5t89 -32.5h10q57 0 91.5 35.5t42.5 99.5h98q-10 -103 -73 -162t-163 -59q-89 0 -153 49.5z" />
    <glyph glyph-name="uni20B4" unicode="&#x20b4;" horiz-adv-x="661" 
d="M203.5 16q-52.5 26 -79 69t-26.5 94q0 25 6 47l-48 -4v82l545 49v-81l-397 -36q-10 -21 -10 -48q0 -49 36.5 -81t97.5 -32h12q60 0 94.5 30.5t43.5 84.5h100q-9 -87 -70.5 -143.5t-176.5 -56.5q-75 0 -127.5 26zM37 445l421 36q7 18 7 38q0 49 -33.5 77.5t-89.5 28.5h-6
q-64 0 -96.5 -32t-37.5 -73h-100q3 42 27 85.5t76.5 74t134.5 30.5q71 0 120.5 -25t75 -68t25.5 -95q0 -17 -3 -32l64 5v-80l-585 -52v82z" />
    <glyph glyph-name="uni20BD" unicode="&#x20bd;" horiz-adv-x="655" 
d="M152 158h-101v84h101v64h-102v89h102v305h252q101 0 162 -49.5t61 -147.5t-61.5 -147.5t-162.5 -49.5h-151v-64h196v-84h-196v-158h-100v158zM492 420q35 25 35 83q0 56 -35.5 81.5t-102.5 25.5h-137v-215h137q68 0 103 25z" />
    <glyph glyph-name="uni20BF" unicode="&#x20bf;" horiz-adv-x="653" 
d="M90 700h103v120h83v-120h90v120h82v-126q66 -15 106 -62t40 -115q0 -59 -31.5 -102t-82.5 -60q57 -10 93 -53t36 -112q0 -72 -45 -122t-116 -64v-124h-82v120h-90v-120h-83v120h-103v700zM474.5 119q34.5 29 34.5 81q0 53 -34 81.5t-92 28.5h-193v-220h193q57 0 91.5 29z
M463 427.5q31 27.5 31 77.5q0 49 -31 77t-85 28h-188v-210h188q54 0 85 27.5z" />
    <glyph glyph-name="uni2105" unicode="&#x2105;" horiz-adv-x="753" 
d="M538 700h87l-420 -700h-87zM458 32q-41 42 -41 106q0 63 41.5 105t104.5 42t103.5 -42t40.5 -105q0 -64 -40.5 -106t-103.5 -42q-64 0 -105 42zM615 74q19 24 19 64q0 39 -19 62.5t-51 23.5h-3q-31 0 -50.5 -23.5t-19.5 -62.5q0 -40 19.5 -64t50.5 -24h3q32 0 51 24z
M85.5 456.5q-38.5 41.5 -38.5 107.5q0 64 38.5 105t102.5 41q55 0 90.5 -29.5t40.5 -77.5h-74q-4 21 -19 34.5t-39 13.5h-1q-31 0 -49 -24.5t-18 -62.5q0 -39 18 -64t49 -25h1q23 0 38.5 14t19.5 34h74q-7 -49 -41.5 -78.5t-89.5 -29.5q-64 0 -102.5 41.5z" />
    <glyph glyph-name="uni2113" unicode="&#x2113;" horiz-adv-x="427" 
d="M147.5 35q-34.5 35 -34.5 103v56l-75 -44v99l75 43v254q0 78 38.5 121t107.5 43q77 0 115 -49.5t38 -119.5q0 -171 -163 -267l-40 -24v-96q0 -39 15 -54t54 -15h70v-85h-99q-67 0 -101.5 35zM316 539q0 40 -15.5 63.5t-41.5 23.5q-23 0 -36.5 -18t-13.5 -52v-208
q107 63 107 191z" />
    <glyph glyph-name="uni2116" unicode="&#x2116;" horiz-adv-x="1077" 
d="M96 700h134l330 -568v568h100v-700h-134l-330 571v-571h-100v700zM742 350h276v-61h-276v61zM777 450.5q-38 40.5 -38 106.5t38.5 107t101.5 41q64 0 102.5 -41t38.5 -107t-38.5 -106.5t-102.5 -40.5t-102 40.5zM927.5 494.5q16.5 23.5 16.5 62.5t-17 63t-45 24h-5
q-28 0 -45 -24.5t-17 -62.5t17 -62t45 -24h6q28 0 44.5 23.5z" />
    <glyph glyph-name="uni2117" unicode="&#x2117;" horiz-adv-x="869" 
d="M240.5 13q-89.5 53 -142.5 142.5t-53 194.5q0 106 52.5 195.5t142.5 142t195 52.5q106 0 195.5 -52.5t142 -142t52.5 -195.5q0 -105 -52.5 -195t-142 -142.5t-195.5 -52.5q-105 0 -194.5 53zM594 73q73 43 115.5 116.5t42.5 160.5t-42.5 160.5t-115.5 116.5t-159 43
t-159 -43t-116 -116.5t-43 -160.5t43 -160.5t116 -116.5t159 -43t159 43zM314 544h163q61 0 96.5 -31t35.5 -90t-35.5 -90t-97.5 -31h-84v-135h-78v377zM515 383q16 12 16 40q0 51 -64 51h-75v-103h76q31 0 47 12z" />
    <glyph glyph-name="trademark" unicode="&#x2122;" horiz-adv-x="978" 
d="M467 700h124l91 -270l87 270h123v-380h-85v264l-88 -264h-74l-93 270v-270h-85v380zM177 623h-130v77h345v-77h-130v-303h-85v303z" />
    <glyph glyph-name="uni2126" unicode="&#x2126;" horiz-adv-x="781" 
d="M66 90h128q-62 48 -97.5 117t-35.5 157q0 96 41 175t116 125t172 46t172 -46t116.5 -125t41.5 -175q0 -88 -35.5 -157t-97.5 -117h127v-90h-253v89q159 99 159 269q0 76 -28.5 135.5t-79.5 93t-117 33.5h-10q-66 0 -116.5 -33.5t-79 -93t-28.5 -135.5q0 -171 158 -269
v-89h-253v90z" />
    <glyph glyph-name="uni2153" unicode="&#x2153;" horiz-adv-x="732" 
d="M103 556h-87v51q85 4 105 93h57v-395h-75v251zM477 700h87l-420 -700h-87zM449.5 26.5q-40.5 31.5 -41.5 86.5h77q1 -25 18.5 -39.5t44.5 -14.5h5q28 0 46.5 15t18.5 41q0 25 -17.5 39t-43.5 14h-38v64h38q25 0 42 14.5t17 37.5q0 24 -17 38t-44 14h-5q-25 0 -41 -13.5
t-18 -36.5h-77q1 55 40.5 84.5t99.5 29.5q58 0 97.5 -29t39.5 -80q0 -31 -16.5 -55t-44.5 -35q27 -10 46 -34t19 -58q0 -54 -42.5 -84t-102.5 -30t-100.5 31.5z" />
    <glyph glyph-name="uni2154" unicode="&#x2154;" horiz-adv-x="854" 
d="M32 384l137 114q33 28 48 47t15 42q0 25 -16 39t-41 14h-5q-24 0 -41.5 -15.5t-18.5 -43.5h-77q2 57 42 90.5t99 33.5q58 0 96.5 -31.5t38.5 -83.5q0 -39 -21 -68t-62 -62l-107 -89h193v-66h-280v79zM599 700h87l-420 -700h-87zM571.5 26.5q-40.5 31.5 -41.5 86.5h77
q1 -25 18.5 -39.5t44.5 -14.5h5q28 0 46.5 15t18.5 41q0 25 -17.5 39t-43.5 14h-38v64h38q25 0 42 14.5t17 37.5q0 24 -17 38t-44 14h-5q-25 0 -41 -13.5t-18 -36.5h-77q1 55 40.5 84.5t99.5 29.5q58 0 97.5 -29t39.5 -80q0 -31 -16.5 -55t-44.5 -35q27 -10 46 -34t19 -58
q0 -54 -42.5 -84t-102.5 -30t-100.5 31.5z" />
    <glyph glyph-name="uni2155" unicode="&#x2155;" horiz-adv-x="736" 
d="M103 556h-87v51q85 4 105 93h57v-395h-75v251zM477 700h87l-420 -700h-87zM455.5 25q-39.5 30 -44.5 85h78q4 -24 22 -37.5t43 -13.5h4q29 0 48 19t19 50q0 29 -18.5 46.5t-46.5 17.5h-3q-36 0 -60 -32h-77l34 235h232v-64h-176l-13 -104q29 27 76 27q55 0 92 -34t37 -89
q0 -62 -41.5 -99t-105.5 -37q-60 0 -99.5 30z" />
    <glyph glyph-name="uni2156" unicode="&#x2156;" horiz-adv-x="858" 
d="M32 384l137 114q33 28 48 47t15 42q0 25 -16 39t-41 14h-5q-24 0 -41.5 -15.5t-18.5 -43.5h-77q2 57 42 90.5t99 33.5q58 0 96.5 -31.5t38.5 -83.5q0 -39 -21 -68t-62 -62l-107 -89h193v-66h-280v79zM599 700h87l-420 -700h-87zM577.5 25q-39.5 30 -44.5 85h78
q4 -24 22 -37.5t43 -13.5h4q29 0 48 19t19 50q0 29 -18.5 46.5t-46.5 17.5h-3q-36 0 -60 -32h-77l34 235h232v-64h-176l-13 -104q29 27 76 27q55 0 92 -34t37 -89q0 -62 -41.5 -99t-105.5 -37q-60 0 -99.5 30z" />
    <glyph glyph-name="uni2157" unicode="&#x2157;" horiz-adv-x="842" 
d="M69.5 331.5q-40.5 31.5 -41.5 86.5h77q1 -25 18.5 -39.5t44.5 -14.5h5q28 0 46.5 15t18.5 41q0 25 -17.5 39t-43.5 14h-38v64h38q25 0 42 14.5t17 37.5q0 24 -17 38t-44 14h-5q-25 0 -41 -13.5t-18 -36.5h-77q1 55 40.5 84.5t99.5 29.5q58 0 97.5 -29t39.5 -80
q0 -31 -16.5 -55t-44.5 -35q27 -10 46 -34t19 -58q0 -54 -42.5 -84t-102.5 -30t-100.5 31.5zM583 700h87l-420 -700h-87zM561.5 25q-39.5 30 -44.5 85h78q4 -24 22 -37.5t43 -13.5h4q29 0 48 19t19 50q0 29 -18.5 46.5t-46.5 17.5h-3q-36 0 -60 -32h-77l34 235h232v-64h-176
l-13 -104q29 27 76 27q55 0 92 -34t37 -89q0 -62 -41.5 -99t-105.5 -37q-60 0 -99.5 30z" />
    <glyph glyph-name="uni2158" unicode="&#x2158;" horiz-adv-x="860" 
d="M212 392h-189v68l181 240h79v-246h56v-62h-56v-87h-71v87zM212 454v158l-117 -158h117zM601 700h87l-420 -700h-87zM579.5 25q-39.5 30 -44.5 85h78q4 -24 22 -37.5t43 -13.5h4q29 0 48 19t19 50q0 29 -18.5 46.5t-46.5 17.5h-3q-36 0 -60 -32h-77l34 235h232v-64h-176
l-13 -104q29 27 76 27q55 0 92 -34t37 -89q0 -62 -41.5 -99t-105.5 -37q-60 0 -99.5 30z" />
    <glyph glyph-name="uni2159" unicode="&#x2159;" horiz-adv-x="742" 
d="M103 556h-87v51q85 4 105 93h57v-395h-75v251zM477 700h87l-420 -700h-87zM446.5 46q-41.5 51 -41.5 141q0 98 43.5 155.5t118.5 57.5q60 0 96 -32.5t41 -79.5h-76q-5 21 -21.5 34.5t-39.5 13.5h-6q-37 0 -59.5 -33.5t-25.5 -91.5q13 23 39 38t60 15q56 0 94 -36t38 -94
q0 -59 -40.5 -99t-108.5 -40q-70 0 -111.5 51zM611.5 79q20.5 20 20.5 51q0 30 -20 50.5t-50 20.5h-3q-30 0 -50.5 -20t-20.5 -51t20 -51t49 -20h3q31 0 51.5 20z" />
    <glyph glyph-name="uni215A" unicode="&#x215a;" horiz-adv-x="846" 
d="M71.5 330q-39.5 30 -44.5 85h78q4 -24 22 -37.5t43 -13.5h4q29 0 48 19t19 50q0 29 -18.5 46.5t-46.5 17.5h-3q-36 0 -60 -32h-77l34 235h232v-64h-176l-13 -104q29 27 76 27q55 0 92 -34t37 -89q0 -62 -41.5 -99t-105.5 -37q-60 0 -99.5 30zM581 700h87l-420 -700h-87z
M550.5 46q-41.5 51 -41.5 141q0 98 43.5 155.5t118.5 57.5q60 0 96 -32.5t41 -79.5h-76q-5 21 -21.5 34.5t-39.5 13.5h-6q-37 0 -59.5 -33.5t-25.5 -91.5q13 23 39 38t60 15q56 0 94 -36t38 -94q0 -59 -40.5 -99t-108.5 -40q-70 0 -111.5 51zM715.5 79q20.5 20 20.5 51
q0 30 -20 50.5t-50 20.5h-3q-30 0 -50.5 -20t-20.5 -51t20 -51t49 -20h3q31 0 51.5 20z" />
    <glyph glyph-name="oneeighth" unicode="&#x215b;" horiz-adv-x="739" 
d="M103 556h-87v51q85 4 105 93h57v-395h-75v251zM477 700h87l-420 -700h-87zM451.5 24.5q-41.5 29.5 -41.5 80.5q0 33 21 59t54 37q-30 11 -48 35.5t-18 57.5q0 50 40 78t99 28t98.5 -28t39.5 -78q0 -33 -18.5 -57t-50.5 -36q34 -11 55 -36.5t21 -59.5q0 -51 -41 -80.5
t-105 -29.5t-105.5 29.5zM608 73q20 14 20 39q0 24 -20.5 38t-47.5 14h-5q-29 0 -49 -14t-20 -38q0 -25 19.5 -39t48.5 -14h5q29 0 49 14zM603 245q18 15 18 39t-17.5 38t-43.5 14h-5q-26 0 -43.5 -14t-17.5 -38t18 -39t43 -15h5q25 0 43 15z" />
    <glyph glyph-name="threeeighths" unicode="&#x215c;" horiz-adv-x="845" 
d="M69.5 331.5q-40.5 31.5 -41.5 86.5h77q1 -25 18.5 -39.5t44.5 -14.5h5q28 0 46.5 15t18.5 41q0 25 -17.5 39t-43.5 14h-38v64h38q25 0 42 14.5t17 37.5q0 24 -17 38t-44 14h-5q-25 0 -41 -13.5t-18 -36.5h-77q1 55 40.5 84.5t99.5 29.5q58 0 97.5 -29t39.5 -80
q0 -31 -16.5 -55t-44.5 -35q27 -10 46 -34t19 -58q0 -54 -42.5 -84t-102.5 -30t-100.5 31.5zM583 700h87l-420 -700h-87zM557.5 24.5q-41.5 29.5 -41.5 80.5q0 33 21 59t54 37q-30 11 -48 35.5t-18 57.5q0 50 40 78t99 28t98.5 -28t39.5 -78q0 -33 -18.5 -57t-50.5 -36
q34 -11 55 -36.5t21 -59.5q0 -51 -41 -80.5t-105 -29.5t-105.5 29.5zM714 73q20 14 20 39q0 24 -20.5 38t-47.5 14h-5q-29 0 -49 -14t-20 -38q0 -25 19.5 -39t48.5 -14h5q29 0 49 14zM709 245q18 15 18 39t-17.5 38t-43.5 14h-5q-26 0 -43.5 -14t-17.5 -38t18 -39t43 -15h5
q25 0 43 15z" />
    <glyph glyph-name="fiveeighths" unicode="&#x215d;" horiz-adv-x="843" 
d="M71.5 330q-39.5 30 -44.5 85h78q4 -24 22 -37.5t43 -13.5h4q29 0 48 19t19 50q0 29 -18.5 46.5t-46.5 17.5h-3q-36 0 -60 -32h-77l34 235h232v-64h-176l-13 -104q29 27 76 27q55 0 92 -34t37 -89q0 -62 -41.5 -99t-105.5 -37q-60 0 -99.5 30zM581 700h87l-420 -700h-87z
M555.5 24.5q-41.5 29.5 -41.5 80.5q0 33 21 59t54 37q-30 11 -48 35.5t-18 57.5q0 50 40 78t99 28t98.5 -28t39.5 -78q0 -33 -18.5 -57t-50.5 -36q34 -11 55 -36.5t21 -59.5q0 -51 -41 -80.5t-105 -29.5t-105.5 29.5zM712 73q20 14 20 39q0 24 -20.5 38t-47.5 14h-5
q-29 0 -49 -14t-20 -38q0 -25 19.5 -39t48.5 -14h5q29 0 49 14zM707 245q18 15 18 39t-17.5 38t-43.5 14h-5q-26 0 -43.5 -14t-17.5 -38t18 -39t43 -15h5q25 0 43 15z" />
    <glyph glyph-name="seveneighths" unicode="&#x215e;" horiz-adv-x="770" 
d="M217 636h-203v64h278v-65q-135 -115 -135 -296v-34h-77v34q0 193 137 297zM508 700h87l-420 -700h-87zM482.5 24.5q-41.5 29.5 -41.5 80.5q0 33 21 59t54 37q-30 11 -48 35.5t-18 57.5q0 50 40 78t99 28t98.5 -28t39.5 -78q0 -33 -18.5 -57t-50.5 -36q34 -11 55 -36.5
t21 -59.5q0 -51 -41 -80.5t-105 -29.5t-105.5 29.5zM639 73q20 14 20 39q0 24 -20.5 38t-47.5 14h-5q-29 0 -49 -14t-20 -38q0 -25 19.5 -39t48.5 -14h5q29 0 49 14zM634 245q18 15 18 39t-17.5 38t-43.5 14h-5q-26 0 -43.5 -14t-17.5 -38t18 -39t43 -15h5q25 0 43 15z" />
    <glyph glyph-name="uni215F" unicode="&#x215f;" horiz-adv-x="406" 
d="M103 556h-87v51q85 4 105 93h57v-395h-75v251zM477 700h87l-420 -700h-87z" />
    <glyph glyph-name="uni2160" unicode="&#x2160;" horiz-adv-x="466" 
d="M41 79h144v542h-144v79h384v-79h-145v-542h145v-79h-384v79z" />
    <glyph glyph-name="uni2161" unicode="&#x2161;" horiz-adv-x="751" 
d="M41 79h144v542h-144v79h669v-79h-145v-542h145v-79h-669v79zM470 79v542h-190v-542h190z" />
    <glyph glyph-name="uni2162" unicode="&#x2162;" horiz-adv-x="1036" 
d="M41 79h144v542h-144v79h954v-79h-145v-542h145v-79h-954v79zM470 79v542h-190v-542h190zM755 79v542h-190v-542h190z" />
    <glyph glyph-name="uni2163" unicode="&#x2163;" horiz-adv-x="1048" 
d="M41 79h145v542h-145v79h562v-79h-104l166 -521l172 521h-108v79h299v-79h-97l-185 -542h152v-79h-857v79zM576 79l-174 542h-121v-542h295z" />
    <glyph glyph-name="uni2164" unicode="&#x2164;" horiz-adv-x="765" 
d="M141 79h152l-174 542h-98v79h299v-79h-104l165 -521l172 521h-107v79h299v-79h-97l-185 -542h152v-79h-474v79z" />
    <glyph glyph-name="uni2165" unicode="&#x2165;" horiz-adv-x="1041" 
d="M141 79h152l-174 542h-98v79h299v-79h-104l165 -521l172 521h-107v79h554v-79h-145v-542h145v-79h-859v79zM760 79v542h-112l-185 -542h297z" />
    <glyph glyph-name="uni2166" unicode="&#x2166;" horiz-adv-x="1326" 
d="M141 79h152l-174 542h-98v79h299v-79h-104l165 -521l172 521h-107v79h839v-79h-145v-542h145v-79h-1144v79zM760 79v542h-112l-185 -542h297zM1045 79v542h-190v-542h190z" />
    <glyph glyph-name="uni2167" unicode="&#x2167;" horiz-adv-x="1611" 
d="M141 79h152l-174 542h-98v79h299v-79h-104l165 -521l172 521h-107v79h1124v-79h-145v-542h145v-79h-1429v79zM760 79v542h-112l-185 -542h297zM1045 79v542h-190v-542h190zM1330 79v542h-190v-542h190z" />
    <glyph glyph-name="uni2168" unicode="&#x2168;" horiz-adv-x="1004" 
d="M41 79h144v542h-144v79h917v-79h-95l-186 -266l192 -276h99v-79h-927v79zM378 79l192 274l-186 268h-104v-542h98zM761 79l-139 199l-138 -199h277zM759 621h-267l133 -192z" />
    <glyph glyph-name="uni2169" unicode="&#x2169;" horiz-adv-x="762" 
d="M36 79h100l192 274l-187 268h-95v79h670v-79h-95l-186 -266l192 -276h99v-79h-690v79zM518 79l-138 199l-139 -199h277zM516 621h-266l133 -192z" />
    <glyph glyph-name="uni216C" unicode="&#x216c;" horiz-adv-x="683" 
d="M41 79h137v542h-137v79h368v-79h-136v-542h278v181h95v-260h-605v79z" />
    <glyph glyph-name="uni216D" unicode="&#x216d;" horiz-adv-x="730" 
d="M201 36.5q-72 46.5 -112 129t-40 184.5q0 103 40.5 185t114 128.5t166.5 46.5q70 0 123 -27.5t77 -61.5v79h93v-221h-92q-17 69 -68 110.5t-122 41.5h-10q-69 0 -120.5 -36t-79 -99.5t-27.5 -144.5q0 -82 27.5 -146t79 -100t120.5 -36h10q70 0 120.5 41t68.5 111h93v-221
h-93v82q-26 -36 -80 -64t-123 -28q-94 0 -166 46.5z" />
    <glyph glyph-name="uni216E" unicode="&#x216e;" horiz-adv-x="775" 
d="M41 79h137v542h-137v79h357q98 0 172 -42t114.5 -121t40.5 -186q0 -109 -40.5 -188.5t-114 -121t-171.5 -41.5h-358v79zM566 148.5q64 69.5 64 202.5q0 131 -63 200.5t-179 69.5h-115v-542h112q117 0 181 69.5z" />
    <glyph glyph-name="uni216F" unicode="&#x216f;" horiz-adv-x="1059" 
d="M41 79h137v542h-137v79h295l198 -595l192 595h292v-79h-137v-542h137v-79h-303v79h72v525l-200 -604h-112l-202 609v-530h71v-79h-303v79z" />
    <glyph glyph-name="arrowleft" unicode="&#x2190;" horiz-adv-x="839" 
d="M223 305l201 -200l-64 -64l-262 261q-23 23 -23 49t23 49l262 261l64 -64l-201 -199h566v-93h-566z" />
    <glyph glyph-name="arrowup" unicode="&#x2191;" horiz-adv-x="686" 
d="M297 566l-200 -201l-64 64l261 262q23 23 49 23t49 -23l261 -262l-64 -64l-199 201v-566h-93v566z" />
    <glyph glyph-name="arrowright" unicode="&#x2192;" horiz-adv-x="839" 
d="M617 396l-201 200l64 64l262 -261q23 -23 23 -49t-23 -49l-262 -261l-64 64l201 199h-566v93h566z" />
    <glyph glyph-name="arrowdown" unicode="&#x2193;" horiz-adv-x="687" 
d="M389 514l200 201l64 -64l-261 -262q-23 -23 -49 -23t-49 23l-261 262l64 64l199 -201v566h93v-566z" />
    <glyph glyph-name="uni2196" unicode="&#x2196;" horiz-adv-x="681" 
d="M164 544v-283h-90l-1 370q0 31 19 50t51 19l369 -1v-90l-282 1l400 -400l-66 -66z" />
    <glyph glyph-name="uni2197" unicode="&#x2197;" horiz-adv-x="681" 
d="M452 610h-283v90l370 1q31 0 50 -19t19 -51l-1 -369h-90l1 282l-400 -400l-66 66z" />
    <glyph glyph-name="uni2198" unicode="&#x2198;" horiz-adv-x="684" 
d="M514 155v283h90l1 -370q0 -31 -19 -50t-51 -19l-369 1v90l282 -1l-400 400l66 66z" />
    <glyph glyph-name="uni2199" unicode="&#x2199;" horiz-adv-x="684" 
d="M234 90h283v-90l-370 -1q-31 0 -50 19t-19 51l1 369h90l-1 -282l400 400l66 -66z" />
    <glyph glyph-name="uni21A4" unicode="&#x21a4;" horiz-adv-x="886" 
d="M86 351q0 24 24 48l261 261l64 -64l-201 -199h473v203h93v-500h-93v203h-472l200 -199l-64 -64l-261 261q-24 24 -24 50z" />
    <glyph glyph-name="uni21A5" unicode="&#x21a5;" horiz-adv-x="701" 
d="M352 714q24 0 48 -24l261 -261l-64 -64l-199 201v-473h203v-93h-500v93h203v472l-199 -200l-64 64l261 261q24 24 50 24z" />
    <glyph glyph-name="uni21A6" unicode="&#x21a6;" horiz-adv-x="886" 
d="M800 349q0 -24 -24 -48l-261 -261l-64 64l201 199h-473v-203h-93v500h93v-203h472l-200 199l64 64l261 -261q24 -24 24 -50z" />
    <glyph glyph-name="uni21A7" unicode="&#x21a7;" horiz-adv-x="701" 
d="M350 -14q-24 0 -48 24l-261 261l64 64l199 -201v473h-203v93h500v-93h-203v-472l199 200l64 -64l-261 -261q-24 -24 -50 -24z" />
    <glyph glyph-name="uni21B0" unicode="&#x21b0;" horiz-adv-x="856" 
d="M699 303h-472l200 -199l-63 -64l-262 261q-24 24 -24 50q0 24 24 48l262 261l63 -64l-201 -199h567v-397h-94v303z" />
    <glyph glyph-name="uni21B1" unicode="&#x21b1;" horiz-adv-x="856" 
d="M63 397h566l-201 199l64 64l262 -261q23 -23 23 -48q0 -27 -23 -50l-262 -261l-64 64l200 199h-471v-303h-94v397z" />
    <glyph glyph-name="uni21B2" unicode="&#x21b2;" horiz-adv-x="855" 
d="M793 494h-566l201 -199l-64 -64l-262 261q-23 23 -23 48q0 27 23 50l262 261l64 -64l-200 -199h471v303h94v-397z" />
    <glyph glyph-name="uni21B3" unicode="&#x21b3;" horiz-adv-x="855" 
d="M156 588h472l-200 199l63 64l262 -261q24 -24 24 -50q0 -24 -24 -48l-262 -261l-63 64l201 199h-567v397h94v-303z" />
    <glyph glyph-name="partialdiff" unicode="&#x2202;" horiz-adv-x="592" 
d="M166.5 21q-53.5 31 -82 88t-28.5 132q0 70 29 126t79.5 87t112.5 31q49 0 87.5 -17.5t60.5 -48.5q-11 101 -67 153t-134 52q-26 0 -55.5 -5t-47.5 -11v87q17 6 47.5 10.5t63.5 4.5q99 0 166 -53t100 -145t33 -210q0 -155 -64.5 -233.5t-173.5 -78.5q-73 0 -126.5 31z
M395.5 118.5q39.5 41.5 39.5 121.5q0 78 -38.5 120.5t-100.5 42.5h-10q-59 0 -96.5 -42t-37.5 -120q0 -79 39.5 -121.5t99.5 -42.5h5q60 0 99.5 41.5z" />
    <glyph glyph-name="uni2206" unicode="&#x2206;" horiz-adv-x="745" 
d="M41 44l273 656h121l268 -656v-44h-662v44zM579 90l-207 507l-210 -507h417z" />
    <glyph glyph-name="product" unicode="&#x220f;" horiz-adv-x="735" 
d="M150 614h-100v86h635v-86h-99v-614h-96v614h-244v-614h-96v614z" />
    <glyph glyph-name="summation" unicode="&#x2211;" horiz-adv-x="643" 
d="M56 93l235 272l-227 245v90h515v-90h-388l225 -241l-240 -279h413v-90h-533v93z" />
    <glyph glyph-name="minus" unicode="&#x2212;" horiz-adv-x="604" 
d="M55 301h494v-87h-494v87z" />
    <glyph glyph-name="uni2215" unicode="&#x2215;" horiz-adv-x="383" 
d="M277 700h100l-269 -700h-101z" />
    <glyph glyph-name="uni2219" unicode="&#x2219;" horiz-adv-x="549" 
d="M116.5 282.5q-27.5 27.5 -27.5 67.5t27.5 67.5t67.5 27.5t68 -27.5t28 -67.5t-28 -67.5t-68 -27.5t-67.5 27.5z" />
    <glyph glyph-name="radical" unicode="&#x221a;" horiz-adv-x="723" 
d="M52 500h98l127 -392l123 592h281v-85h-208l-135 -615h-120z" />
    <glyph glyph-name="infinity" unicode="&#x221e;" horiz-adv-x="867" 
d="M146 194q-42 24 -66 67t-24 99q0 55 24 98.5t66 67.5t94 24q66 0 108.5 -30.5t86.5 -91.5q41 60 83.5 91t107.5 31q52 0 94 -24t66 -67.5t24 -98.5q0 -56 -24 -99t-66 -67t-94 -24q-66 0 -108 29t-83 88q-43 -60 -85.5 -88.5t-109.5 -28.5q-52 0 -94 24zM314.5 278.5
q29.5 26.5 62.5 81.5q-33 55 -62.5 81.5t-68.5 26.5h-5q-41 0 -67 -29.5t-26 -78.5q0 -51 26 -79.5t67 -28.5h5q39 0 68.5 26.5zM691.5 280.5q26.5 28.5 26.5 79.5t-26.5 79.5t-69.5 28.5h-5q-37 0 -65.5 -27t-61.5 -81q35 -57 62.5 -82.5t64.5 -25.5h5q43 0 69.5 28.5z" />
    <glyph glyph-name="integral" unicode="&#x222b;" horiz-adv-x="454" 
d="M37 -14h44q53 0 74.5 23.5t21.5 77.5v425q0 98 47.5 143t139.5 45h53v-86h-45q-53 0 -74.5 -23.5t-21.5 -77.5v-425q0 -98 -47.5 -143t-139.5 -45h-52v86z" />
    <glyph glyph-name="approxequal" unicode="&#x2248;" horiz-adv-x="613" 
d="M364.5 287.5q-30.5 9.5 -75.5 26.5q-63 24 -82 24q-25 0 -37.5 -14.5t-12.5 -35.5h-89v28q0 50 34.5 83.5t89.5 33.5q26 0 58 -9.5t76 -26.5q61 -24 80 -24q49 0 49 46h89v-28q0 -51 -33 -82t-91 -31q-25 0 -55.5 9.5zM364.5 91.5q-30.5 9.5 -75.5 26.5q-63 24 -82 24
q-25 0 -37.5 -14.5t-12.5 -35.5h-89v28q0 50 34.5 83.5t89.5 33.5q26 0 56.5 -9.5t77.5 -27.5q61 -24 80 -24q25 0 37 13t12 34h89v-28q0 -51 -33 -82t-91 -31q-25 0 -55.5 9.5z" />
    <glyph glyph-name="notequal" unicode="&#x2260;" horiz-adv-x="616" 
d="M218 122h-157v86h184l30 98h-214v87h241l33 107h94l-33 -107h159v-87h-186l-30 -98h216v-86h-243l-33 -107h-94z" />
    <glyph glyph-name="lessequal" unicode="&#x2264;" horiz-adv-x="621" 
d="M61 268v107l494 138v-93l-367 -96l367 -96v-98zM61 101h494v-87h-494v87z" />
    <glyph glyph-name="greaterequal" unicode="&#x2265;" horiz-adv-x="621" 
d="M65 223l369 97l-369 96v97l494 -138v-107l-494 -138v93zM65 101h494v-87h-494v87z" />
    <glyph glyph-name="angleleft" unicode="&#x2329;" horiz-adv-x="367" 
d="M27 350l228 435h100l-226 -433l226 -437h-100z" />
    <glyph glyph-name="angleright" unicode="&#x232a;" horiz-adv-x="367" 
d="M340 350l-228 -435h-100l226 433l-226 437h100z" />
    <glyph glyph-name="uni2460" unicode="&#x2460;" horiz-adv-x="893" 
d="M251.5 12.5q-89.5 52.5 -142 142.5t-52.5 195q0 106 52.5 195.5t142 142t195.5 52.5t195.5 -52.5t142 -142t52.5 -195.5q0 -105 -52.5 -195t-142 -142.5t-195.5 -52.5t-195.5 52.5zM605.5 75q72.5 43 115 116t42.5 159q0 87 -42.5 160t-115 116t-158.5 43t-159 -43
t-116 -116t-43 -160q0 -86 43 -159t116 -116t159 -43t158.5 43zM417 407h-88v50q86 4 106 94h56v-395h-74v251z" />
    <glyph glyph-name="uni2461" unicode="&#x2461;" horiz-adv-x="893" 
d="M251.5 12.5q-89.5 52.5 -142 142.5t-52.5 195q0 106 52.5 195.5t142 142t195.5 52.5t195.5 -52.5t142 -142t52.5 -195.5q0 -105 -52.5 -195t-142 -142.5t-195.5 -52.5t-195.5 52.5zM605.5 75q72.5 43 115 116t42.5 159q0 87 -42.5 160t-115 116t-158.5 43t-159 -43
t-116 -116t-43 -160q0 -86 43 -159t116 -116t159 -43t158.5 43zM307 234l135 114q33 30 48.5 50t15.5 42t-16.5 36t-40.5 14h-5q-23 0 -41 -15.5t-19 -43.5h-76q1 56 41.5 90t99.5 34q58 0 96 -31.5t38 -83.5q0 -39 -21.5 -67.5t-63.5 -63.5l-104 -88h193v-66h-280v79z" />
    <glyph glyph-name="uni2462" unicode="&#x2462;" horiz-adv-x="893" 
d="M251.5 12.5q-89.5 52.5 -142 142.5t-52.5 195q0 106 52.5 195.5t142 142t195.5 52.5t195.5 -52.5t142 -142t52.5 -195.5q0 -105 -52.5 -195t-142 -142.5t-195.5 -52.5t-195.5 52.5zM605.5 75q72.5 43 115 116t42.5 159q0 87 -42.5 160t-115 116t-158.5 43t-159 -43
t-116 -116t-43 -160q0 -86 43 -159t116 -116t159 -43t158.5 43zM342.5 181q-40.5 31 -41.5 87h77q1 -26 19 -40t45 -14h5q28 0 46.5 15t18.5 41q0 25 -17.5 39t-43.5 14h-39v64h39q25 0 41.5 14t16.5 38t-17 38t-43 14h-5q-25 0 -41 -13.5t-18 -36.5h-77q1 54 40.5 84
t99.5 30q58 0 97.5 -29t39.5 -80q0 -31 -16.5 -55t-44.5 -35q28 -11 46.5 -35t18.5 -58q0 -54 -42.5 -83.5t-103.5 -29.5q-60 0 -100.5 31z" />
    <glyph glyph-name="uni2463" unicode="&#x2463;" horiz-adv-x="893" 
d="M251.5 12.5q-89.5 52.5 -142 142.5t-52.5 195q0 106 52.5 195.5t142 142t195.5 52.5t195.5 -52.5t142 -142t52.5 -195.5q0 -105 -52.5 -195t-142 -142.5t-195.5 -52.5t-195.5 52.5zM453 242h-187v68l179 240h81v-246h55v-62h-55v-87h-73v87zM453 304v158l-116 -158h116z
M605.5 75q72.5 43 115 116t42.5 159q0 87 -42.5 160t-115 116t-158.5 43t-159 -43t-116 -116t-43 -160q0 -86 43 -159t116 -116t159 -43t158.5 43z" />
    <glyph glyph-name="uni2464" unicode="&#x2464;" horiz-adv-x="893" 
d="M251.5 12.5q-89.5 52.5 -142 142.5t-52.5 195q0 106 52.5 195.5t142 142t195.5 52.5t195.5 -52.5t142 -142t52.5 -195.5q0 -105 -52.5 -195t-142 -142.5t-195.5 -52.5t-195.5 52.5zM605.5 75q72.5 43 115 116t42.5 159q0 87 -42.5 160t-115 116t-158.5 43t-159 -43
t-116 -116t-43 -160q0 -86 43 -159t116 -116t159 -43t158.5 43zM339.5 180.5q-39.5 30.5 -43.5 84.5h77q4 -24 22 -37.5t44 -13.5h4q29 0 47.5 19t18.5 50q0 29 -18.5 46.5t-46.5 17.5h-3q-36 0 -60 -32h-77l34 235h233v-64h-176l-14 -104q13 12 32.5 19.5t42.5 7.5
q56 0 92.5 -34t36.5 -89q0 -62 -41 -99t-105 -37q-60 0 -99.5 30.5z" />
    <glyph glyph-name="uni2465" unicode="&#x2465;" horiz-adv-x="893" 
d="M251.5 12.5q-89.5 52.5 -142 142.5t-52.5 195q0 106 52.5 195.5t142 142t195.5 52.5t195.5 -52.5t142 -142t52.5 -195.5q0 -105 -52.5 -195t-142 -142.5t-195.5 -52.5t-195.5 52.5zM605.5 75q72.5 43 115 116t42.5 159q0 87 -42.5 160t-115 116t-158.5 43t-159 -43
t-116 -116t-43 -160q0 -86 43 -159t116 -116t159 -43t158.5 43zM327.5 201q-41.5 51 -41.5 141q0 98 43.5 155.5t118.5 57.5q60 0 96 -33t40 -79h-75q-5 21 -21.5 34.5t-40.5 13.5h-5q-37 0 -59.5 -33.5t-26.5 -91.5q12 23 39 38t61 15q56 0 94 -36t38 -94q0 -59 -40.5 -99
t-108.5 -40q-70 0 -111.5 51zM492.5 234q20.5 20 20.5 51q0 30 -20 50.5t-50 20.5h-3q-30 0 -50.5 -20t-20.5 -51t20 -51t49 -20h3q31 0 51.5 20z" />
    <glyph glyph-name="uni2466" unicode="&#x2466;" horiz-adv-x="893" 
d="M251.5 12.5q-89.5 52.5 -142 142.5t-52.5 195q0 106 52.5 195.5t142 142t195.5 52.5t195.5 -52.5t142 -142t52.5 -195.5q0 -105 -52.5 -195t-142 -142.5t-195.5 -52.5t-195.5 52.5zM605.5 75q72.5 43 115 116t42.5 159q0 87 -42.5 160t-115 116t-158.5 43t-159 -43
t-116 -116t-43 -160q0 -86 43 -159t116 -116t159 -43t158.5 43zM514 486h-202v64h277v-65q-134 -115 -134 -296v-34h-78v34q0 192 137 297z" />
    <glyph glyph-name="uni2467" unicode="&#x2467;" horiz-adv-x="893" 
d="M251.5 12.5q-89.5 52.5 -142 142t-52.5 195.5q0 105 52.5 195t142 142.5t195.5 52.5t195.5 -52.5t142 -142.5t52.5 -195q0 -106 -52.5 -195.5t-142 -142t-195.5 -52.5t-195.5 52.5zM605.5 75q72.5 43 115 116t42.5 159q0 87 -42.5 160t-115 116t-158.5 43t-159 -43
t-116 -116t-43 -160q0 -86 43 -159t116 -116t159 -43t158.5 43zM341.5 178.5q-41.5 29.5 -41.5 80.5q0 34 20.5 59.5t53.5 36.5q-30 11 -48 35.5t-18 57.5q0 50 40.5 78t98.5 28q59 0 99 -28t40 -78q0 -34 -18.5 -57.5t-51.5 -35.5q35 -11 56 -36.5t21 -59.5
q0 -51 -41 -80.5t-105 -29.5t-105.5 29.5zM498 227q20 14 20 39q0 24 -20.5 38.5t-48.5 14.5h-5q-28 0 -48 -14.5t-20 -38.5q0 -25 19.5 -39t48.5 -14h5q29 0 49 14zM492 399q18 15 18 39t-17.5 38t-43.5 14h-5q-26 0 -43 -13.5t-17 -38.5q0 -24 17.5 -39t42.5 -15h5
q25 0 43 15z" />
    <glyph glyph-name="uni2468" unicode="&#x2468;" horiz-adv-x="893" 
d="M251.5 12.5q-89.5 52.5 -142 142.5t-52.5 195q0 106 52.5 195.5t142 142t195.5 52.5t195.5 -52.5t142 -142t52.5 -195.5q0 -105 -52.5 -195t-142 -142.5t-195.5 -52.5t-195.5 52.5zM605.5 75q72.5 43 115 116t42.5 159q0 87 -42.5 160t-115 116t-158.5 43t-159 -43
t-116 -116t-43 -160q0 -86 43 -159t116 -116t159 -43t158.5 43zM344 183q-35 33 -38 79h75q5 -21 21 -34t39 -13h6q37 0 58.5 33t26.5 92q-13 -24 -40.5 -39t-61.5 -15q-54 0 -92 36t-38 94q0 59 40.5 99t107.5 40q72 0 113.5 -50.5t41.5 -139.5q0 -100 -42.5 -157.5
t-119.5 -57.5q-62 0 -97 33zM499 370q21 20 21 50q0 31 -20 51.5t-50 20.5h-3q-31 0 -51 -20.5t-20 -51.5q0 -30 19.5 -50t50.5 -20h3q29 0 50 20z" />
    <glyph glyph-name="uni24EA" unicode="&#x24ea;" horiz-adv-x="893" 
d="M251.5 12.5q-89.5 52.5 -142 142.5t-52.5 195q0 106 52.5 195.5t142 142t195.5 52.5t195.5 -52.5t142 -142t52.5 -195.5q0 -105 -52.5 -195t-142 -142.5t-195.5 -52.5t-195.5 52.5zM605.5 75q72.5 43 115 116t42.5 159q0 87 -42.5 160t-115 116t-158.5 43t-159 -43
t-116 -116t-43 -160q0 -86 43 -159t116 -116t159 -43t158.5 43zM325 205q-45 56 -45 147t45 146.5t123 55.5q79 0 124 -55.5t45 -146.5q0 -92 -45 -147.5t-124 -55.5q-78 0 -123 56zM516.5 253.5q23.5 40.5 23.5 98.5q0 57 -23.5 97.5t-66.5 40.5h-4q-43 0 -66 -40.5
t-23 -97.5q0 -58 23 -98.5t66 -40.5h4q43 0 66.5 40.5z" />
    <glyph glyph-name="uni24FF" unicode="&#x24ff;" horiz-adv-x="893" 
d="M252.5 13q-89.5 53 -142.5 142.5t-53 194.5q0 106 52.5 195.5t142.5 142t195 52.5q106 0 195.5 -52.5t142 -142t52.5 -195.5q0 -105 -52.5 -195t-142 -142.5t-195.5 -52.5q-105 0 -194.5 53zM572 204.5q45 55.5 45 147.5q0 91 -45 146.5t-124 55.5q-78 0 -123 -55.5
t-45 -146.5t45 -147t123 -56q79 0 124 55.5zM380 253.5q-23 40.5 -23 98.5q0 57 23 97.5t66 40.5h4q43 0 66.5 -40.5t23.5 -97.5q0 -58 -23.5 -98.5t-66.5 -40.5h-4q-43 0 -66 40.5z" />
    <glyph glyph-name="triagup" unicode="&#x25b2;" horiz-adv-x="878" 
d="M439 720l405 -720h-810z" />
    <glyph glyph-name="lozenge" unicode="&#x25ca;" horiz-adv-x="662" 
d="M49 350l235 350h98l232 -350l-232 -350h-98zM509 349l-176 264l-175 -263l175 -259z" />
    <glyph glyph-name="uni2776" unicode="&#x2776;" horiz-adv-x="893" 
d="M251.5 12.5q-89.5 52.5 -142 142.5t-52.5 195q0 106 52.5 195.5t142 142t195.5 52.5t195.5 -52.5t142 -142t52.5 -195.5q0 -105 -52.5 -195t-142 -142.5t-195.5 -52.5t-195.5 52.5zM491 156v395h-56q-20 -90 -106 -94v-50h88v-251h74z" />
    <glyph glyph-name="uni2777" unicode="&#x2777;" horiz-adv-x="893" 
d="M252.5 13q-89.5 53 -142.5 142.5t-53 194.5q0 106 52.5 195.5t142.5 142t195 52.5q106 0 195.5 -52.5t142 -142t52.5 -195.5q0 -105 -52.5 -195t-142 -142.5t-195.5 -52.5q-105 0 -194.5 53zM587 155v66h-193l102 88q43 37 65 65t22 66q0 52 -38 83.5t-96 31.5
q-59 0 -99.5 -34t-41.5 -90h76q1 28 19 43.5t41 15.5h5q24 0 40.5 -14t16.5 -35q0 -22 -16 -42t-51 -51l-132 -114v-79h280z" />
    <glyph glyph-name="uni2778" unicode="&#x2778;" horiz-adv-x="893" 
d="M251.5 12.5q-89.5 52.5 -142 142.5t-52.5 195q0 106 52.5 195.5t142 142t195.5 52.5t195.5 -52.5t142 -142t52.5 -195.5q0 -105 -52.5 -195t-142 -142.5t-195.5 -52.5t-195.5 52.5zM546.5 179.5q42.5 29.5 42.5 83.5q0 34 -18.5 58t-46.5 35q28 11 44.5 35t16.5 55
q0 51 -39.5 80t-97.5 29q-60 0 -99.5 -30t-40.5 -84h77q2 23 18 36.5t41 13.5h5q26 0 43 -14t17 -38t-16.5 -38t-41.5 -14h-39v-64h39q26 0 43.5 -14t17.5 -39q0 -26 -18.5 -41t-46.5 -15h-5q-27 0 -45 14t-19 40h-77q1 -55 41.5 -86.5t100.5 -31.5q61 0 103.5 29.5z" />
    <glyph glyph-name="uni2779" unicode="&#x2779;" horiz-adv-x="893" 
d="M252.5 13q-89.5 53 -142.5 142.5t-53 194.5q0 106 52.5 195.5t142.5 142t195 52.5q106 0 195.5 -52.5t142 -142t52.5 -195.5q0 -105 -52.5 -195t-142 -142.5t-195.5 -52.5q-105 0 -194.5 53zM526 155v87h55v62h-55v246h-81l-179 -240v-68h187v-87h73zM453 462v-158h-116z
" />
    <glyph glyph-name="uni277A" unicode="&#x277a;" horiz-adv-x="893" 
d="M251.5 12.5q-89.5 52.5 -142 142.5t-52.5 195q0 106 52.5 195.5t142 142t195.5 52.5t195.5 -52.5t142 -142t52.5 -195.5q0 -105 -52.5 -195t-142 -142.5t-195.5 -52.5t-195.5 52.5zM544 187q41 37 41 99q0 55 -36.5 89t-92.5 34q-23 0 -42.5 -7.5t-32.5 -19.5l14 104h176
v64h-233l-34 -235h77q24 32 60 32h3q28 0 46.5 -17.5t18.5 -46.5q0 -31 -18.5 -50t-47.5 -19h-4q-26 0 -44 13.5t-22 37.5h-77q4 -54 43.5 -84.5t99.5 -30.5q64 0 105 37z" />
    <glyph glyph-name="uni277B" unicode="&#x277b;" horiz-adv-x="893" 
d="M251.5 12.5q-89.5 52.5 -142 142.5t-52.5 195q0 106 52.5 195.5t142 142t195.5 52.5t195.5 -52.5t142 -142t52.5 -195.5q0 -105 -52.5 -195t-142 -142.5t-195.5 -52.5t-195.5 52.5zM547.5 190q40.5 40 40.5 99t-38.5 94.5t-95.5 35.5q-33 0 -59.5 -15t-38.5 -38
q4 58 26.5 91.5t59.5 33.5h5q24 0 40.5 -13.5t21.5 -34.5h75q-4 46 -40 79t-96 33q-75 0 -118.5 -57.5t-43.5 -155.5q0 -90 41.5 -141t111.5 -51q68 0 108.5 40zM389 234q-20 20 -20 51t20.5 51t50.5 20h3q30 0 50 -20.5t20 -50.5q0 -31 -20.5 -51t-51.5 -20h-3
q-29 0 -49 20z" />
    <glyph glyph-name="uni277C" unicode="&#x277c;" horiz-adv-x="893" 
d="M252.5 13q-89.5 53 -142.5 142.5t-53 194.5q0 106 52.5 195.5t142.5 142t195 52.5q106 0 195.5 -52.5t142 -142t52.5 -195.5q0 -105 -52.5 -195t-142 -142.5t-195.5 -52.5q-105 0 -194.5 53zM455 155v34q0 181 134 296v65h-277v-64h202q-137 -105 -137 -297v-34h78z" />
    <glyph glyph-name="uni277D" unicode="&#x277d;" horiz-adv-x="893" 
d="M251.5 12.5q-89.5 52.5 -142 142t-52.5 195.5q0 105 52.5 195t142 142.5t195.5 52.5t195.5 -52.5t142 -142.5t52.5 -195q0 -106 -52.5 -195.5t-142 -142t-195.5 -52.5t-195.5 52.5zM552 178.5q41 29.5 41 80.5q0 34 -21 59.5t-56 36.5q33 12 51.5 35.5t18.5 57.5
q0 50 -40 78t-99 28q-58 0 -98.5 -28t-40.5 -78q0 -33 18 -57.5t48 -35.5q-33 -11 -53.5 -36.5t-20.5 -59.5q0 -51 41.5 -80.5t105.5 -29.5t105 29.5zM395.5 227q-19.5 14 -19.5 39q0 24 20 38.5t48 14.5h5q28 0 48.5 -14.5t20.5 -38.5q0 -25 -20 -39t-49 -14h-5
q-29 0 -48.5 14zM401.5 399q-17.5 15 -17.5 39q0 25 17 38.5t43 13.5h5q26 0 43.5 -14t17.5 -38t-18 -39t-43 -15h-5q-25 0 -42.5 15z" />
    <glyph glyph-name="uni277E" unicode="&#x277e;" horiz-adv-x="893" 
d="M251.5 12.5q-89.5 52.5 -142 142.5t-52.5 195q0 106 52.5 195.5t142 142t195.5 52.5t195.5 -52.5t142 -142t52.5 -195.5q0 -105 -52.5 -195t-142 -142.5t-195.5 -52.5t-195.5 52.5zM560.5 207.5q42.5 57.5 42.5 157.5q0 89 -41.5 139.5t-113.5 50.5q-67 0 -107.5 -40
t-40.5 -99q0 -58 38 -94t92 -36q34 0 61.5 15t40.5 39q-5 -59 -26.5 -92t-58.5 -33h-6q-23 0 -39 13t-21 34h-75q3 -45 38 -78.5t97 -33.5q77 0 119.5 57.5zM395.5 370q-19.5 20 -19.5 50q0 31 20 51.5t51 20.5h3q30 0 50 -20.5t20 -51.5q0 -30 -21 -50t-50 -20h-3
q-31 0 -50.5 20z" />
    <glyph glyph-name="uni300A" unicode="&#x300a;" horiz-adv-x="571" 
d="M230 350l228 435h100l-225 -433l225 -437h-100zM27 350l228 435h100l-226 -433l226 -437h-100z" />
    <glyph glyph-name="uni300B" unicode="&#x300b;" horiz-adv-x="571" 
d="M341 350l-228 -435h-100l225 433l-225 437h100zM544 350l-228 -435h-100l226 433l-226 437h100z" />
    <glyph glyph-name="uni300C" unicode="&#x300c;" horiz-adv-x="315" 
d="M69 845h230v-82h-137v-375h-93v457z" />
    <glyph glyph-name="uni300D" unicode="&#x300d;" horiz-adv-x="323" 
d="M250 -145h-230v82h137v375h93v-457z" />
    <glyph glyph-name="uni300E" unicode="&#x300e;" horiz-adv-x="447" 
d="M71 845h346v-182h-137v-347h-209v529zM207 380v347h137v55h-200v-402h63z" />
    <glyph glyph-name="uni300F" unicode="&#x300f;" horiz-adv-x="458" 
d="M380 -145h-346v182h137v347h209v-529zM244 320v-347h-137v-55h200v402h-63z" />
    <glyph glyph-name="uni3010" unicode="&#x3010;" horiz-adv-x="375" 
d="M90 845h287q-96 -103 -144 -231.5t-48 -262.5q0 -133 47.5 -262t144.5 -234h-287v990z" />
    <glyph glyph-name="uni3011" unicode="&#x3011;" horiz-adv-x="374" 
d="M284 -144h-287q96 103 144 231.5t48 262.5q0 133 -47.5 262t-144.5 234h287v-990z" />
    <glyph glyph-name="uni3014" unicode="&#x3014;" horiz-adv-x="321" 
d="M67 17v666l144 162h112l-161 -182v-625l161 -183h-112z" />
    <glyph glyph-name="uni3015" unicode="&#x3015;" horiz-adv-x="321" 
d="M254 684v-666l-144 -162h-112l161 182v625l-161 183h112z" />
    <glyph glyph-name="uniE000" unicode="&#xe000;" horiz-adv-x="563" 
d="M82 550h400v-400h-400v400zM407 225v250h-250v-250h250z" />
    <glyph glyph-name="uniE001" unicode="&#xe001;" horiz-adv-x="729" 
d="M90 625h550v-550h-550v550zM565 150v400h-400v-400h400z" />
    <glyph glyph-name="uniE002" unicode="&#xe002;" horiz-adv-x="879" 
d="M90 700h700v-700h-700v700zM715 75v550h-550v-550h550z" />
    <glyph glyph-name="uniE003" unicode="&#xe003;" horiz-adv-x="563" 
d="M82 550h400v-400h-400v400zM407 225v250h-250v-250h250zM232 400h100v-100h-100v100z" />
    <glyph glyph-name="uniE004" unicode="&#xe004;" horiz-adv-x="729" 
d="M90 625h550v-550h-550v550zM565 150v400h-400v-400h400zM240 475h250v-250h-250v250zM415 300v100h-100v-100h100z" />
    <glyph glyph-name="uniE005" unicode="&#xe005;" horiz-adv-x="879" 
d="M90 700h700v-700h-700v700zM715 75v550h-550v-550h550zM240 550h400v-400h-400v400zM565 225v250h-250v-250h250zM390 400h100v-100h-100v100z" />
    <glyph glyph-name="uniE006" unicode="&#xe006;" horiz-adv-x="563" 
d="M82 550h400v-400h-400v400z" />
    <glyph glyph-name="uniE007" unicode="&#xe007;" horiz-adv-x="729" 
d="M90 625h550v-550h-550v550z" />
    <glyph glyph-name="uniE008" unicode="&#xe008;" horiz-adv-x="879" 
d="M90 700h700v-700h-700v700z" />
    <glyph glyph-name="uniE00A" unicode="&#xe00a;" horiz-adv-x="370" 
d="M141.5 -110.5q-38.5 34.5 -38.5 88.5q0 25 8 46t28 42q-46 10 -63.5 39.5t-17.5 73.5v342q0 45 17.5 74.5t63.5 39.5q-20 21 -28 41.5t-8 45.5q0 54 38.5 88.5t94.5 34.5h103v-82h-88q-23 0 -38 -13.5t-15 -35.5v-8q0 -22 15 -35t38 -13h23v-82h-52q-69 0 -69 -71v-310
q0 -71 69 -71h52v-82h-23q-23 0 -38 -13t-15 -35v-8q0 -22 15 -35.5t38 -13.5h88v-82h-103q-56 0 -94.5 34.5z" />
    <glyph glyph-name="uniE00B" unicode="&#xe00b;" horiz-adv-x="370" 
d="M228.5 1190.5q38.5 -34.5 38.5 -88.5q0 -25 -8 -46t-28 -42q46 -10 63.5 -39t17.5 -74v-342q0 -45 -17.5 -74.5t-63.5 -39.5q20 -21 28 -41.5t8 -45.5q0 -54 -38.5 -88.5t-94.5 -34.5h-103v82h88q23 0 38 13.5t15 35.5v8q0 22 -15 35t-38 13h-23v82h52q69 0 69 71v310
q0 71 -69 71h-52v82h23q23 0 38 13t15 35v8q0 22 -15 35.5t-38 13.5h-88v82h103q56 0 94.5 -34.5z" />
    <glyph glyph-name="uniE010" unicode="&#xe010;" horiz-adv-x="586" 
d="M173 142.5q-55 32.5 -87.5 87.5t-32.5 120t32.5 120t87.5 87.5t120 32.5t120 -32.5t87.5 -87.5t32.5 -120t-32.5 -120t-87.5 -87.5t-120 -32.5t-120 32.5zM376 207q38 22 60 60t22 83t-22 83t-60 60t-83 22t-83 -22t-60 -60t-22 -83t22 -83t60 -60t83 -22t83 22z" />
    <glyph glyph-name="uniE011" unicode="&#xe011;" horiz-adv-x="727" 
d="M205.5 77.5q-72.5 42.5 -115 115t-42.5 157.5t42.5 157.5t115 115t157.5 42.5t157.5 -42.5t115 -115t42.5 -157.5t-42.5 -157.5t-115 -115t-157.5 -42.5t-157.5 42.5zM483 142.5q55 32.5 87.5 87.5t32.5 120t-32.5 120t-87.5 87.5t-120 32.5t-120 -32.5t-87.5 -87.5
t-32.5 -120t32.5 -120t87.5 -87.5t120 -32.5t120 32.5z" />
    <glyph glyph-name="uniE012" unicode="&#xe012;" horiz-adv-x="869" 
d="M240.5 13q-89.5 53 -142.5 142.5t-53 194.5q0 106 52.5 195.5t142.5 142t195 52.5q106 0 195.5 -52.5t142 -142t52.5 -195.5q0 -105 -52.5 -195t-142 -142.5t-195.5 -52.5q-105 0 -194.5 53zM592.5 77.5q72.5 42.5 115 115t42.5 157.5t-42.5 157.5t-115 115t-157.5 42.5
t-157.5 -42.5t-115 -115t-42.5 -157.5t42.5 -157.5t115 -115t157.5 -42.5t157.5 42.5z" />
    <glyph glyph-name="uniE013" unicode="&#xe013;" horiz-adv-x="586" 
d="M173 142.5q-55 32.5 -87.5 87.5t-32.5 120t32.5 120t87.5 87.5t120 32.5t120 -32.5t87.5 -87.5t32.5 -120t-32.5 -120t-87.5 -87.5t-120 -32.5t-120 32.5zM376 207q38 22 60 60t22 83t-22 83t-60 60t-83 22t-83 -22t-60 -60t-22 -83t22 -83t60 -60t83 -22t83 22z
M229.5 286.5q-26.5 26.5 -26.5 63.5t26.5 63.5t63.5 26.5q38 0 64 -26t26 -64q0 -37 -26.5 -63.5t-63.5 -26.5t-63.5 26.5z" />
    <glyph glyph-name="uniE014" unicode="&#xe014;" horiz-adv-x="727" 
d="M205.5 77.5q-72.5 42.5 -115 115t-42.5 157.5t42.5 157.5t115 115t157.5 42.5t157.5 -42.5t115 -115t42.5 -157.5t-42.5 -157.5t-115 -115t-157.5 -42.5t-157.5 42.5zM483 142.5q55 32.5 87.5 87.5t32.5 120t-32.5 120t-87.5 87.5t-120 32.5t-120 -32.5t-87.5 -87.5
t-32.5 -120t32.5 -120t87.5 -87.5t120 -32.5t120 32.5zM280 207q-38 22 -60 60t-22 83t22 83t60 60t83 22t83 -22t60 -60t22 -83t-22 -83t-60 -60t-83 -22t-83 22zM426.5 286.5q26.5 26.5 26.5 63.5q0 38 -26 64t-64 26q-37 0 -63.5 -26.5t-26.5 -63.5t26.5 -63.5
t63.5 -26.5t63.5 26.5z" />
    <glyph glyph-name="uniE015" unicode="&#xe015;" horiz-adv-x="869" 
d="M240.5 13q-89.5 53 -142.5 142.5t-53 194.5q0 106 52.5 195.5t142.5 142t195 52.5q106 0 195.5 -52.5t142 -142t52.5 -195.5q0 -105 -52.5 -195t-142 -142.5t-195.5 -52.5q-105 0 -194.5 53zM592.5 77.5q72.5 42.5 115 115t42.5 157.5t-42.5 157.5t-115 115t-157.5 42.5
t-157.5 -42.5t-115 -115t-42.5 -157.5t42.5 -157.5t115 -115t157.5 -42.5t157.5 42.5zM315 142.5q-55 32.5 -87.5 87.5t-32.5 120t32.5 120t87.5 87.5t120 32.5t120 -32.5t87.5 -87.5t32.5 -120t-32.5 -120t-87.5 -87.5t-120 -32.5t-120 32.5zM518 207q38 22 60 60t22 83
t-22 83t-60 60t-83 22t-83 -22t-60 -60t-22 -83t22 -83t60 -60t83 -22t83 22zM371.5 286.5q-26.5 26.5 -26.5 63.5t26.5 63.5t63.5 26.5q38 0 64 -26t26 -64q0 -37 -26.5 -63.5t-63.5 -26.5t-63.5 26.5z" />
    <glyph glyph-name="uniE016" unicode="&#xe016;" horiz-adv-x="586" 
d="M173 142.5q-55 32.5 -87.5 87.5t-32.5 120t32.5 120t87.5 87.5t120 32.5t120 -32.5t87.5 -87.5t32.5 -120t-32.5 -120t-87.5 -87.5t-120 -32.5t-120 32.5z" />
    <glyph glyph-name="uniE017" unicode="&#xe017;" horiz-adv-x="697" 
d="M199 90.5q-69 40.5 -109.5 109.5t-40.5 150t40.5 150t109.5 109.5t150 40.5t150 -40.5t109.5 -109.5t40.5 -150t-40.5 -150t-109.5 -109.5t-150 -40.5t-150 40.5z" />
    <glyph glyph-name="uniE018" unicode="&#xe018;" horiz-adv-x="812" 
d="M226 38.5q-83 48.5 -131.5 131.5t-48.5 180t48.5 180t131.5 131.5t180 48.5t180 -48.5t131.5 -131.5t48.5 -180t-48.5 -180t-131.5 -131.5t-180 -48.5t-180 48.5z" />
    <glyph glyph-name="uniF8FF" unicode="&#xf8ff;" horiz-adv-x="608" 
d="M173 24q-60 35 -95 95t-35 131t35 131t95 95t131 35t131 -35t95 -95t35 -131t-35 -131t-95 -95t-131 -35t-131 35z" />
    <glyph glyph-name="I_S_B_N" horiz-adv-x="2236" 
d="M90 700h100v-610h412q72 0 108 27.5t36 74.5q0 45 -30.5 70t-88.5 37l-105 22q-83 17 -129 60.5t-46 126.5q0 56 30 99.5t86 68t131 24.5h677q57 0 102.5 -22.5t71.5 -64.5t26 -96q0 -59 -31.5 -102t-82.5 -60q56 -9 92.5 -53t36.5 -112q0 -56 -27.5 -99t-75 -67
t-105.5 -24h-311v400h288q54 0 85 27.5t31 77.5q0 49 -31 77t-85 28h-664q-68 0 -106 -26t-38 -72q0 -43 25.5 -64.5t75.5 -31.5l101 -21q88 -17 142.5 -64.5t54.5 -129.5q0 -91 -64.5 -146t-192.5 -55h-499v700zM1351.5 119q34.5 29 34.5 81q0 53 -34 81.5t-92 28.5h-193
v-220h193q57 0 91.5 29zM1691.5 640.5q67.5 69.5 196.5 69.5q132 0 198.5 -69t66.5 -190v-451h-100v439q0 88 -40.5 134.5t-119.5 46.5h-10q-78 0 -118.5 -46.5t-40.5 -134.5v-439h-100v451q0 120 67.5 189.5z" />
    <glyph glyph-name="i.loclTRK" horiz-adv-x="246" 
d="M76 500h95v-500h-95v500zM81 604q-18 18 -18 43q0 26 18 43.5t43 17.5t43 -18t18 -43t-18 -43t-43 -18t-43 18z" />
    <glyph glyph-name="a.sups" horiz-adv-x="329" 
d="M54 432.5q-27 23.5 -27 62.5q0 42 30.5 64.5t83.5 25.5l73 6v8q0 23 -14.5 35.5t-39.5 12.5h-2q-22 0 -36 -9t-17 -25h-71q5 41 38.5 66.5t87.5 25.5q60 0 92.5 -30.5t32.5 -80.5v-116q0 -36 4 -63h-68q-1 9 -1.5 18.5t-1.5 17.5q-14 -18 -38.5 -30t-54.5 -12
q-44 0 -71 23.5zM192.5 483q21.5 18 21.5 50v7l-65 -5q-52 -4 -52 -37q0 -15 11.5 -24t32.5 -9h2q28 0 49.5 18z" />
    <glyph glyph-name="b.sups" horiz-adv-x="363" 
d="M153 421.5q-23 11.5 -33 29.5v-36h-73v395h73v-146q11 16 33.5 27.5t51.5 11.5q55 0 92 -40t37 -107q0 -66 -36 -106t-92 -40q-30 0 -53 11.5zM241.5 493q19.5 24 19.5 64q0 39 -19.5 63t-50.5 24h-2q-30 0 -50.5 -24t-20.5 -63q0 -40 20.5 -64t50.5 -24h2q31 0 50.5 24z
" />
    <glyph glyph-name="c.sups" horiz-adv-x="327" 
d="M68 451.5q-39 41.5 -39 107.5q0 64 39 105t102 41q55 0 90.5 -29.5t40.5 -77.5h-74q-4 21 -19 34.5t-39 13.5h-1q-31 0 -49 -24.5t-18 -62.5q0 -39 18 -64t49 -25h1q23 0 38.5 14t19.5 34h74q-7 -49 -41.5 -78.5t-89.5 -29.5q-63 0 -102 41.5z" />
    <glyph glyph-name="d.sups" horiz-adv-x="364" 
d="M65 450q-36 40 -36 107q0 66 37 106t93 40q29 0 51.5 -11t33.5 -28v146h73v-395h-73v36q-11 -18 -34 -29.5t-53 -11.5q-56 0 -92 40zM225 493.5q20 23.5 20 63.5q0 39 -20 63t-51 24h-2q-30 0 -50 -24t-20 -63q0 -40 19.5 -63.5t50.5 -23.5h2q31 0 51 23.5z" />
    <glyph glyph-name="e.sups" horiz-adv-x="331" 
d="M69 450q-40 41 -40 107t39 107t99 41q54 0 90.5 -32.5t42.5 -88.5q3 -18 1 -47h-201q2 -31 21 -50.5t46 -19.5h3q21 0 36 10t20 27h72q-10 -43 -44.5 -69t-85.5 -26q-59 0 -99 41zM209 632.5q-16 14.5 -41 14.5h-3q-24 0 -41.5 -15t-21.5 -41h126q-3 27 -19 41.5z" />
    <glyph glyph-name="f.sups" horiz-adv-x="232" 
d="M76 639h-59v61h59v26q0 84 83 84h71v-60h-50q-18 0 -25 -7t-7 -24v-19h68v-61h-68v-224h-72v224z" />
    <glyph glyph-name="g.sups" horiz-adv-x="360" 
d="M68.5 319q-37.5 26 -41.5 69h73q4 -18 21.5 -27.5t44.5 -9.5h5q32 0 51 18t19 53v37q-12 -19 -33.5 -30t-52.5 -11q-53 0 -89.5 38.5t-36.5 105.5t36.5 105t89.5 38q31 0 53 -11.5t32 -29.5v36h74v-282q0 -53 -38.5 -89t-108.5 -36q-61 0 -98.5 26zM220.5 500.5
q19.5 23.5 19.5 61.5t-18.5 61.5t-47.5 23.5h-4q-30 0 -49 -22t-19 -63q0 -42 19 -63.5t48 -21.5h3q29 0 48.5 23.5z" />
    <glyph glyph-name="h.sups" horiz-adv-x="350" 
d="M47 810h73v-148q27 41 85 41q47 0 74 -29.5t27 -78.5v-180h-72v166q0 28 -13 44t-37 16h-2q-27 0 -44.5 -20t-17.5 -53v-153h-73v395z" />
    <glyph glyph-name="i.sups" horiz-adv-x="167" 
d="M47 700h74v-285h-74v285zM53 751q-13 13 -13 30q0 19 13 32t31 13t31 -13t13 -32q0 -17 -13 -30t-31 -13t-31 13z" />
    <glyph glyph-name="j.sups" horiz-adv-x="168" 
d="M-44 364h61q30 0 30 31v305h74v-314q0 -41 -22 -62.5t-64 -21.5h-79v62zM51.5 751q-13.5 13 -13.5 30q0 19 13.5 32t31.5 13t31 -13t13 -32q0 -17 -13 -30t-31 -13t-31.5 13z" />
    <glyph glyph-name="k.sups" horiz-adv-x="329" 
d="M47 810h73v-217l105 107h89l-111 -112l117 -173h-87l-80 121l-33 -33v-88h-73v395z" />
    <glyph glyph-name="l.sups" horiz-adv-x="167" 
d="M47 810h73v-395h-73v395z" />
    <glyph glyph-name="m.sups" horiz-adv-x="536" 
d="M47 700h73v-35q26 41 83 41q30 0 53.5 -12.5t37.5 -36.5q15 23 38.5 36t53.5 13q50 0 78 -30t28 -79v-182h-73v167q0 29 -13.5 45t-38.5 16h-2q-25 0 -42 -20.5t-17 -53.5v-154h-74v166q0 29 -12.5 45.5t-37.5 16.5h-2q-26 0 -43 -20.5t-17 -53.5v-154h-73v285z" />
    <glyph glyph-name="n.sups" horiz-adv-x="352" 
d="M47 700h73v-35q12 19 34 30t51 11q47 0 75 -30.5t28 -81.5v-179h-73v164q0 30 -13 46.5t-39 16.5h-2q-26 0 -43.5 -20.5t-17.5 -53.5v-153h-73v285z" />
    <glyph glyph-name="o.sups" horiz-adv-x="346" 
d="M69 452q-41 42 -41 106q0 63 41.5 105t104.5 42t103.5 -42t40.5 -105q0 -64 -40.5 -106t-103.5 -42q-64 0 -105 42zM226 494q19 24 19 64q0 39 -19 62.5t-51 23.5h-3q-31 0 -50.5 -23.5t-19.5 -62.5q0 -40 19.5 -64t50.5 -24h3q32 0 51 24z" />
    <glyph glyph-name="p.sups" horiz-adv-x="364" 
d="M47 700h73v-36q11 19 33.5 30t52.5 11q56 0 92.5 -39.5t36.5 -105.5q0 -67 -37 -108t-93 -41q-29 0 -51.5 12t-33.5 28v-147h-73v396zM242 495q19 24 19 65q0 39 -19 62t-50 23h-3q-30 0 -50.5 -23t-20.5 -62q0 -40 20.5 -64.5t50.5 -24.5h3q31 0 50 24z" />
    <glyph glyph-name="q.sups" horiz-adv-x="364" 
d="M210.5 423q-22.5 -12 -51.5 -12q-56 0 -93 41t-37 107t36 106t92 40q30 0 53 -11.5t34 -29.5v36h73v-396h-73v147q-11 -16 -33.5 -28zM225 495q20 24 20 64q0 38 -20 62t-51 24h-3q-30 0 -49.5 -23.5t-19.5 -62.5q0 -40 19.5 -64t49.5 -24h3q31 0 51 24z" />
    <glyph glyph-name="r.sups" horiz-adv-x="238" 
d="M47 700h73v-52q9 24 31 39.5t54 15.5h14v-68h-19q-79 0 -79 -90v-130h-74v285z" />
    <glyph glyph-name="s.sups" horiz-adv-x="298" 
d="M59 436q-31 26 -33 70h70q1 -20 15 -30t37 -10h4q19 0 31.5 8t12.5 21q0 12 -7.5 18.5t-24.5 10.5l-46 9q-84 18 -84 84q0 40 32 64t80 24q57 0 88 -25.5t33 -70.5h-71q-2 19 -14.5 30t-34.5 11h-3q-19 0 -29.5 -8t-10.5 -21q0 -22 34 -28l49 -10q81 -17 81 -84
q0 -40 -33 -64.5t-87 -24.5q-58 0 -89 26z" />
    <glyph glyph-name="t.sups" horiz-adv-x="250" 
d="M97 436q-21 21 -21 61v143h-60v60h60v91h73v-91h66v-60h-66v-131q0 -19 7 -26t26 -7h41v-61h-65q-40 0 -61 21z" />
    <glyph glyph-name="u.sups" horiz-adv-x="347" 
d="M70.5 440q-26.5 30 -26.5 81v179h74v-164q0 -63 47 -63h3q27 0 43 21t16 65v141h73v-285h-73v35q-13 -18 -34.5 -29t-48.5 -11q-47 0 -73.5 30z" />
    <glyph glyph-name="v.sups" horiz-adv-x="330" 
d="M13 700h78l75 -226l76 226h76l-103 -285h-100z" />
    <glyph glyph-name="w.sups" horiz-adv-x="464" 
d="M14 700h74l57 -209l50 209h76l53 -208l54 208h72l-86 -285h-78l-53 200l-51 -200h-80z" />
    <glyph glyph-name="x.sups" horiz-adv-x="316" 
d="M116 559l-100 141h82l60 -85l62 85h80l-101 -140l104 -145h-83l-64 88l-64 -88h-80z" />
    <glyph glyph-name="y.sups" horiz-adv-x="333" 
d="M25 364h56q17 0 26 6t15 21l14 38l-129 271h81l85 -181l70 181h80l-135 -333q-15 -37 -37 -52t-59 -15h-67v64z" />
    <glyph glyph-name="z.sups" horiz-adv-x="308" 
d="M31 471l148 166h-145v63h237v-57l-149 -165h158v-63h-249v56z" />
    <glyph glyph-name="zero.zero" horiz-adv-x="657" 
d="M126 83.5q-72 93.5 -72 266.5q0 172 72.5 266t202.5 94t202 -93.5t72 -266.5t-71.5 -266.5t-202.5 -93.5t-203 93.5zM418.5 103.5q38.5 27.5 62.5 89t24 157.5q0 67 -12 116l-293 -320q24 -36 56 -53t68 -17h10q46 0 84.5 27.5zM164 234l294 320q-23 35 -55.5 52.5
t-68.5 17.5h-10q-46 0 -85 -27.5t-63 -89t-24 -157.5q0 -66 12 -116z" />
    <glyph glyph-name="zero.osf" horiz-adv-x="604" 
d="M173.5 23q-58.5 33 -92.5 92.5t-34 134.5t34 134.5t92.5 92.5t128.5 33t128.5 -33t92.5 -92.5t34 -134.5t-34 -134.5t-92.5 -92.5t-128.5 -33t-128.5 33zM384.5 91.5q35.5 22.5 56.5 63.5t21 95t-21 95t-56.5 63.5t-77.5 22.5h-9q-42 0 -77.5 -22.5t-57 -63.5t-21.5 -95
t22 -95t58 -63.5t78 -22.5h7q42 0 77.5 22.5z" />
    <glyph glyph-name="one.osf" horiz-adv-x="324" 
d="M150 308h-121v67q55 1 90.5 34.5t47.5 90.5h75v-500h-92v308z" />
    <glyph glyph-name="two.osf" horiz-adv-x="469" 
d="M52 104l213 165q31 24 45.5 45t14.5 46q0 31 -23.5 51t-58.5 20h-8q-37 0 -62 -24.5t-26 -66.5h-95q0 49 25 88t67.5 60.5t95.5 21.5t94 -19t63.5 -52t22.5 -75q0 -47 -23.5 -83t-75.5 -75l-164 -124h253v-82h-358v104z" />
    <glyph glyph-name="three.osf" horiz-adv-x="565" 
d="M107 -158.5q-66 51.5 -75 142.5h95q9 -55 47 -85t97 -30h10q61 0 100.5 34t39.5 92q0 55 -37.5 88t-98.5 33h-55v79h55q60 0 95.5 32t35.5 86q0 55 -38 86.5t-96 31.5h-10q-53 0 -90 -32.5t-42 -84.5h-94q2 55 33 99.5t83 70.5t115 26q68 0 121 -23.5t83 -67t30 -100.5
q0 -58 -31.5 -101t-85.5 -61q56 -18 89 -62t33 -105q0 -63 -32 -108.5t-86 -68.5t-121 -23q-104 0 -170 51.5z" />
    <glyph glyph-name="four.osf" horiz-adv-x="597" 
d="M373 0h-345v97l337 403h101v-419h109v-81h-109v-200h-93v200zM373 81v298l-250 -298h250z" />
    <glyph glyph-name="five.osf" horiz-adv-x="561" 
d="M112.5 -159q-67.5 51 -76.5 145h95q8 -54 47.5 -85t96.5 -31h10q64 0 104.5 43t40.5 110q0 62 -41 102.5t-104 40.5h-9q-40 0 -75 -20.5t-56 -59.5h-92l53 414h388v-82h-312l-29 -226q26 26 63.5 40.5t80.5 14.5q67 0 118.5 -29t80 -79.5t28.5 -111.5q0 -69 -31.5 -123
t-87 -84t-125.5 -30q-100 0 -167.5 51z" />
    <glyph glyph-name="six.osf" horiz-adv-x="605" 
d="M121.5 78.5q-69.5 88.5 -69.5 250.5q0 112 32.5 198.5t92.5 134.5t142 48q90 0 153 -48.5t79 -131.5h-97q-11 43 -48 70.5t-84 27.5h-8q-76 0 -119 -70.5t-50 -199.5q28 49 78 75.5t107 26.5q64 0 115.5 -29t81.5 -81t30 -119q0 -71 -31.5 -125.5t-87.5 -85t-126 -30.5
q-121 0 -190.5 88.5zM390 91.5q32 19.5 51 54.5t19 79q0 68 -40 110.5t-100 42.5h-9q-41 0 -75 -19.5t-54 -54t-20 -78.5q0 -43 19.5 -78.5t53 -55.5t74.5 -20h10q39 0 71 19.5z" />
    <glyph glyph-name="seven.osf" horiz-adv-x="518" 
d="M207 195q69 146 193 223h-385v82h484v-91q-133 -82 -199 -220.5t-66 -358.5v-30h-96v37q0 212 69 358z" />
    <glyph glyph-name="eight.osf" horiz-adv-x="567" 
d="M161 15q-53 25 -81.5 69.5t-28.5 100.5q0 63 38.5 110.5t93.5 63.5q-53 19 -85.5 61.5t-32.5 103.5q0 54 27 96t76.5 66t114.5 24t114.5 -24t77 -66t27.5 -96q0 -60 -33 -103.5t-85 -61.5q55 -16 93.5 -63.5t38.5 -110.5q0 -56 -29 -100.5t-81.5 -69.5t-122.5 -25
q-69 0 -122 25zM382 108.5q37 33.5 37 85.5q0 51 -37.5 85t-93.5 34h-10q-55 0 -92.5 -34t-37.5 -85q0 -52 37 -85.5t93 -33.5h10q57 0 94 33.5zM373 431.5q33 32.5 33 82.5q0 49 -33 80t-85 31h-10q-51 0 -83.5 -31t-32.5 -80q0 -50 32.5 -82.5t83.5 -32.5h10q52 0 85 32.5
z" />
    <glyph glyph-name="nine.osf" 
d="M482.5 421.5q69.5 -88.5 69.5 -250.5q0 -112 -32.5 -198.5t-92.5 -134.5t-142 -48q-90 0 -153 48.5t-79 131.5h97q11 -43 48 -70.5t84 -27.5h8q76 0 119 70.5t50 199.5q-28 -49 -78 -75.5t-107 -26.5q-64 0 -115.5 29t-81.5 81t-30 119q0 71 31.5 125.5t87.5 85t126 30.5
q121 0 190.5 -88.5zM214 408.5q-32 -19.5 -51 -54.5t-19 -79q0 -68 40 -110.5t100 -42.5h9q41 0 75 19.5t54 54t20 78.5q0 43 -19.5 78.5t-53 55.5t-74.5 20h-10q-39 0 -71 -19.5z" />
    <glyph glyph-name="zero.tf" 
d="M104.5 83q-69.5 93 -69.5 267t69.5 267t195.5 93t195.5 -93t69.5 -267t-69.5 -267t-195.5 -93t-195.5 93zM383.5 103.5q36.5 27.5 60 89t23.5 157.5t-23.5 157.5t-60 89t-78.5 27.5h-10q-42 0 -78.5 -27.5t-60 -89t-23.5 -157.5t23.5 -157.5t60 -89t78.5 -27.5h10
q42 0 78.5 27.5z" />
    <glyph glyph-name="one.tf" 
d="M53 89h212v399h-161v67q77 2 122 40t57 105h76v-611h203v-89h-509v89z" />
    <glyph glyph-name="two.tf" 
d="M63 100l243 233q49 47 71 70.5t36.5 52t14.5 61.5q0 47 -34 77t-85 30h-10q-57 0 -93 -37.5t-36 -96.5h-100q0 66 30.5 116t83 77t119.5 27q63 0 114 -23.5t80 -66.5t29 -99q0 -68 -35.5 -121t-106.5 -120l-204 -191h356v-89h-473v100z" />
    <glyph glyph-name="three.tf" 
d="M123 42.5q-64 52.5 -70 141.5h97q7 -50 43 -79t92 -29h9q63 0 103 32.5t40 84.5q0 56 -41 88t-104 32h-49v86h50q58 0 94.5 31.5t36.5 80.5q0 51 -36.5 82t-91.5 31h-9q-51 0 -87 -31t-38 -79h-96q0 55 30 100t82 70.5t117 25.5q64 0 115.5 -23.5t81 -66.5t29.5 -98
q0 -59 -31.5 -102t-83.5 -62q56 -16 92.5 -60t36.5 -109q0 -60 -31.5 -105t-87.5 -69.5t-126 -24.5q-103 0 -167 52.5z" />
    <glyph glyph-name="four.tf" 
d="M374 158h-341v96l341 446h95v-456h98v-86h-98v-158h-95v158zM374 244v320l-245 -320h245z" />
    <glyph glyph-name="five.tf" 
d="M133.5 42q-67.5 52 -77.5 143h98q10 -50 47.5 -79.5t90.5 -29.5h10q64 0 104 42.5t40 107.5q0 61 -41 100t-100 39h-10q-41 0 -77 -21.5t-54 -57.5h-95l56 414h390v-89h-315l-29 -217q54 55 147 55q65 0 116.5 -28.5t80.5 -79t29 -112.5q0 -71 -31 -125t-87 -84t-127 -30
q-98 0 -165.5 52z" />
    <glyph glyph-name="six.tf" 
d="M170.5 30q-58.5 40 -90.5 116.5t-32 182.5q0 112 32.5 198.5t93 134.5t141.5 48q90 0 153 -48.5t79 -131.5h-99q-11 42 -48 68t-84 26h-8q-75 0 -117.5 -70t-49.5 -196q27 49 77 75.5t108 26.5q63 0 115 -28.5t81.5 -80.5t29.5 -120q0 -71 -31 -125.5t-86.5 -85
t-125.5 -30.5q-80 0 -138.5 40zM384 96q32 19 50.5 53t18.5 76t-18 76t-50 53.5t-71 19.5h-10q-39 0 -72.5 -19.5t-53 -53t-19.5 -75.5t19.5 -76t52.5 -53.5t73 -19.5h10q38 0 70 19z" />
    <glyph glyph-name="seven.tf" 
d="M259 390.5q70 143.5 189 219.5h-403v90h508v-94q-132 -85 -198.5 -223t-66.5 -353v-30h-99v37q0 210 70 353.5z" />
    <glyph glyph-name="eight.tf" 
d="M171 15.5q-55 25.5 -84.5 70.5t-29.5 102q0 62 37.5 109t90.5 62q-49 18 -81.5 62t-32.5 103q0 50 29 93t81 68t119 25t119 -25t80.5 -67.5t28.5 -93.5q0 -59 -32 -102.5t-81 -62.5q52 -15 89.5 -62t37.5 -109q0 -57 -30 -102t-84.5 -70.5t-127.5 -25.5q-74 0 -129 25.5z
M405.5 109q38.5 33 38.5 85t-38.5 85t-100.5 33h-10q-62 0 -101 -33t-39 -85t38.5 -85t101.5 -33h10q62 0 100.5 33zM396.5 432q34.5 32 34.5 82q0 47 -34.5 78.5t-91.5 31.5h-10q-57 0 -92 -31.5t-35 -78.5q0 -50 34.5 -82t92.5 -32h10q57 0 91.5 32z" />
    <glyph glyph-name="nine.tf" 
d="M429.5 670q58.5 -40 90.5 -116.5t32 -182.5q0 -112 -32.5 -198.5t-93 -134.5t-141.5 -48q-90 0 -153 48.5t-79 131.5h99q11 -42 48 -68t84 -26h8q75 0 117.5 70t49.5 196q-27 -49 -77 -75.5t-108 -26.5q-63 0 -115 28.5t-81.5 80.5t-29.5 120q0 71 31 125.5t86.5 85
t125.5 30.5q80 0 138.5 -40zM216 604q-32 -19 -50.5 -53t-18.5 -76t18 -76t50 -53.5t71 -19.5h10q39 0 72.5 19.5t53 53t19.5 75.5t-19.5 76t-52.5 53.5t-73 19.5h-10q-38 0 -70 -19z" />
    <glyph glyph-name="zero.osf.zero" horiz-adv-x="604" 
d="M173.5 23q-58.5 33 -92.5 92.5t-34 134.5t34 134.5t92.5 92.5t128.5 33t128.5 -33t92.5 -92.5t34 -134.5t-34 -134.5t-92.5 -92.5t-128.5 -33t-128.5 33zM384.5 91.5q35.5 22.5 56.5 63.5t21 95q0 50 -20 92l-228 -245q39 -28 86 -28h7q42 0 77.5 22.5zM164 155l230 247
q-38 29 -87 29h-9q-42 0 -77.5 -22.5t-57 -63.5t-21.5 -95q0 -53 22 -95z" />
    <glyph glyph-name="zero.tf.zero" 
d="M104.5 83q-69.5 93 -69.5 267t69.5 267t195.5 93t195.5 -93t69.5 -267t-69.5 -267t-195.5 -93t-195.5 93zM383.5 103.5q36.5 27.5 60 89t23.5 157.5q0 57 -10 107l-281 -306q23 -38 54 -56.5t65 -18.5h10q42 0 78.5 27.5zM143 242l281 306q-23 39 -54 57.5t-65 18.5h-10
q-42 0 -78.5 -27.5t-60 -89t-23.5 -157.5q0 -58 10 -108z" />
    <glyph glyph-name="zero.dnom" horiz-adv-x="405" 
d="M78 50.5q-45 55.5 -45 147.5q0 91 45 146.5t124 55.5t124 -55.5t45 -146.5q0 -92 -45 -147.5t-124 -55.5t-124 55.5zM270 99.5q23 40.5 23 98.5q0 57 -23 97.5t-66 40.5h-4q-43 0 -66 -40.5t-23 -97.5q0 -58 23 -98.5t66 -40.5h4q43 0 66 40.5z" />
    <glyph glyph-name="one.dnom" horiz-adv-x="235" 
d="M105 251h-87v51q85 4 105 93h57v-395h-75v251z" />
    <glyph glyph-name="two.dnom" horiz-adv-x="348" 
d="M34 79l137 114q33 28 48 47t15 42q0 25 -16 39t-41 14h-5q-24 0 -41.5 -15.5t-18.5 -43.5h-77q2 57 42 90.5t99 33.5q58 0 96.5 -31.5t38.5 -83.5q0 -39 -21 -68t-62 -62l-107 -89h193v-66h-280v79z" />
    <glyph glyph-name="three.dnom" horiz-adv-x="353" 
d="M70.5 26.5q-40.5 31.5 -41.5 86.5h77q1 -25 18.5 -39.5t44.5 -14.5h5q28 0 46.5 15t18.5 41q0 25 -17.5 39t-43.5 14h-38v64h38q25 0 42 14.5t17 37.5q0 24 -17 38t-44 14h-5q-25 0 -41 -13.5t-18 -36.5h-77q1 55 40.5 84.5t99.5 29.5q58 0 97.5 -29t39.5 -80
q0 -31 -16.5 -55t-44.5 -35q27 -10 46 -34t19 -58q0 -54 -42.5 -84t-102.5 -30t-100.5 31.5z" />
    <glyph glyph-name="four.dnom" horiz-adv-x="363" 
d="M209 87h-189v68l181 240h79v-246h56v-62h-56v-87h-71v87zM209 149v158l-117 -158h117z" />
    <glyph glyph-name="five.dnom" horiz-adv-x="354" 
d="M73.5 25q-39.5 30 -44.5 85h78q4 -24 22 -37.5t43 -13.5h4q29 0 48 19t19 50q0 29 -18.5 46.5t-46.5 17.5h-3q-36 0 -60 -32h-77l34 235h232v-64h-176l-13 -104q29 27 76 27q55 0 92 -34t37 -89q0 -62 -41.5 -99t-105.5 -37q-60 0 -99.5 30z" />
    <glyph glyph-name="six.dnom" horiz-adv-x="371" 
d="M75.5 46q-41.5 51 -41.5 141q0 98 43.5 155.5t118.5 57.5q60 0 96 -32.5t41 -79.5h-76q-5 21 -21.5 34.5t-39.5 13.5h-6q-37 0 -59.5 -33.5t-25.5 -91.5q13 23 39 38t60 15q56 0 94 -36t38 -94q0 -59 -40.5 -99t-108.5 -40q-70 0 -111.5 51zM240.5 79q20.5 20 20.5 51
q0 30 -20 50.5t-50 20.5h-3q-30 0 -50.5 -20t-20.5 -51t20 -51t49 -20h3q31 0 51.5 20z" />
    <glyph glyph-name="seven.dnom" horiz-adv-x="320" 
d="M224 331h-203v64h278v-65q-135 -115 -135 -296v-34h-77v34q0 193 137 297z" />
    <glyph glyph-name="eight.dnom" horiz-adv-x="364" 
d="M76.5 24.5q-41.5 29.5 -41.5 80.5q0 33 21 59t54 37q-30 11 -48 35.5t-18 57.5q0 50 40 78t99 28t98.5 -28t39.5 -78q0 -33 -18.5 -57t-50.5 -36q34 -11 55 -36.5t21 -59.5q0 -51 -41 -80.5t-105 -29.5t-105.5 29.5zM233 73q20 14 20 39q0 24 -20.5 38t-47.5 14h-5
q-29 0 -49 -14t-20 -38q0 -25 19.5 -39t48.5 -14h5q29 0 49 14zM228 245q18 15 18 39t-17.5 38t-43.5 14h-5q-26 0 -43.5 -14t-17.5 -38t18 -39t43 -15h5q25 0 43 15z" />
    <glyph glyph-name="nine.dnom" horiz-adv-x="371" 
d="M77.5 28q-35.5 33 -38.5 79h75q5 -22 21.5 -35t39.5 -13h6q36 0 58 33t27 92q-12 -23 -40.5 -38t-62.5 -15q-54 0 -91.5 36t-37.5 94q0 59 40 99t108 40q71 0 112.5 -50.5t41.5 -139.5q0 -101 -42 -158t-119 -57q-62 0 -97.5 33zM232 214.5q21 20.5 21 50.5q0 31 -20 51
t-49 20h-3q-31 0 -51.5 -20t-20.5 -51q0 -30 20 -50.5t50 -20.5h3q29 0 50 20.5z" />
    <glyph glyph-name="zero.numr" horiz-adv-x="402" 
d="M77 355.5q-45 55.5 -45 147.5q0 91 45 146.5t124 55.5t124 -55.5t45 -146.5q0 -92 -45 -147.5t-124 -55.5t-124 55.5zM269 404.5q23 40.5 23 98.5q0 57 -23 97.5t-66 40.5h-4q-43 0 -66 -40.5t-23 -97.5q0 -58 23 -98.5t66 -40.5h4q43 0 66 40.5z" />
    <glyph glyph-name="one.numr" horiz-adv-x="233" 
d="M103 556h-87v51q85 4 105 93h57v-395h-75v251z" />
    <glyph glyph-name="two.numr" horiz-adv-x="344" 
d="M32 384l137 114q33 28 48 47t15 42q0 25 -16 39t-41 14h-5q-24 0 -41.5 -15.5t-18.5 -43.5h-77q2 57 42 90.5t99 33.5q58 0 96.5 -31.5t38.5 -83.5q0 -39 -21 -68t-62 -62l-107 -89h193v-66h-280v79z" />
    <glyph glyph-name="three.numr" horiz-adv-x="350" 
d="M69.5 331.5q-40.5 31.5 -41.5 86.5h77q1 -25 18.5 -39.5t44.5 -14.5h5q28 0 46.5 15t18.5 41q0 25 -17.5 39t-43.5 14h-38v64h38q25 0 42 14.5t17 37.5q0 24 -17 38t-44 14h-5q-25 0 -41 -13.5t-18 -36.5h-77q1 55 40.5 84.5t99.5 29.5q58 0 97.5 -29t39.5 -80
q0 -31 -16.5 -55t-44.5 -35q27 -10 46 -34t19 -58q0 -54 -42.5 -84t-102.5 -30t-100.5 31.5z" />
    <glyph glyph-name="four.numr" horiz-adv-x="366" 
d="M212 392h-189v68l181 240h79v-246h56v-62h-56v-87h-71v87zM212 454v158l-117 -158h117z" />
    <glyph glyph-name="five.numr" horiz-adv-x="347" 
d="M71.5 330q-39.5 30 -44.5 85h78q4 -24 22 -37.5t43 -13.5h4q29 0 48 19t19 50q0 29 -18.5 46.5t-46.5 17.5h-3q-36 0 -60 -32h-77l34 235h232v-64h-176l-13 -104q29 27 76 27q55 0 92 -34t37 -89q0 -62 -41.5 -99t-105.5 -37q-60 0 -99.5 30z" />
    <glyph glyph-name="six.numr" horiz-adv-x="368" 
d="M74.5 351q-41.5 51 -41.5 141q0 98 43.5 155.5t118.5 57.5q60 0 96 -32.5t41 -79.5h-76q-5 21 -21.5 34.5t-39.5 13.5h-6q-37 0 -59.5 -33.5t-25.5 -91.5q13 23 39 38t60 15q56 0 94 -36t38 -94q0 -59 -40.5 -99t-108.5 -40q-70 0 -111.5 51zM239.5 384q20.5 20 20.5 51
q0 30 -20 50.5t-50 20.5h-3q-30 0 -50.5 -20t-20.5 -51t20 -51t49 -20h3q31 0 51.5 20z" />
    <glyph glyph-name="seven.numr" horiz-adv-x="307" 
d="M217 636h-203v64h278v-65q-135 -115 -135 -296v-34h-77v34q0 193 137 297z" />
    <glyph glyph-name="eight.numr" horiz-adv-x="360" 
d="M74.5 329.5q-41.5 29.5 -41.5 80.5q0 33 21 59t54 37q-30 11 -48 35.5t-18 57.5q0 50 40 78t99 28t98.5 -28t39.5 -78q0 -33 -18.5 -57t-50.5 -36q34 -11 55 -36.5t21 -59.5q0 -51 -41 -80.5t-105 -29.5t-105.5 29.5zM231 378q20 14 20 39q0 24 -20.5 38t-47.5 14h-5
q-29 0 -49 -14t-20 -38q0 -25 19.5 -39t48.5 -14h5q29 0 49 14zM226 550q18 15 18 39t-17.5 38t-43.5 14h-5q-26 0 -43.5 -14t-17.5 -38t18 -39t43 -15h5q25 0 43 15z" />
    <glyph glyph-name="nine.numr" horiz-adv-x="368" 
d="M76.5 333q-35.5 33 -38.5 79h75q5 -22 21.5 -35t39.5 -13h6q36 0 58 33t27 92q-12 -23 -40.5 -38t-62.5 -15q-54 0 -91.5 36t-37.5 94q0 59 40 99t108 40q71 0 112.5 -50.5t41.5 -139.5q0 -101 -42 -158t-119 -57q-62 0 -97.5 33zM231 519.5q21 20.5 21 50.5q0 31 -20 51
t-49 20h-3q-31 0 -51.5 -20t-20.5 -51q0 -30 20 -50.5t50 -20.5h3q29 0 50 20.5z" />
    <glyph glyph-name="zero.dnom.zero" horiz-adv-x="405" 
d="M78 50.5q-45 55.5 -45 147.5q0 91 45 146.5t124 55.5t124 -55.5t45 -146.5q0 -92 -45 -147.5t-124 -55.5t-124 55.5zM270.5 99.5q23.5 40.5 23.5 98.5q0 24 -5 49l-147 -159q24 -29 58 -29h4q43 0 66.5 40.5zM115 149l147 159q-23 28 -58 28h-4q-43 0 -66.5 -40.5
t-23.5 -97.5q0 -24 5 -49z" />
    <glyph glyph-name="zero.numr.zero" horiz-adv-x="402" 
d="M77 355.5q-45 55.5 -45 147.5q0 91 45 146.5t124 55.5t124 -55.5t45 -146.5q0 -92 -45 -147.5t-124 -55.5t-124 55.5zM269.5 404.5q23.5 40.5 23.5 98.5q0 24 -5 49l-147 -159q24 -29 58 -29h4q43 0 66.5 40.5zM114 454l147 159q-23 28 -58 28h-4q-43 0 -66.5 -40.5
t-23.5 -97.5q0 -24 5 -49z" />
    <glyph glyph-name="uni2080.zero" horiz-adv-x="402" 
d="M77 -64.5q-45 55.5 -45 147.5q0 91 45 146.5t124 55.5t124 -55.5t45 -146.5q0 -92 -45 -147.5t-124 -55.5t-124 55.5zM269.5 -15.5q23.5 40.5 23.5 98.5q0 24 -5 49l-147 -159q24 -29 58 -29h4q43 0 66.5 40.5zM114 34l147 159q-23 28 -58 28h-4q-43 0 -66.5 -40.5
t-23.5 -97.5q0 -24 5 -49z" />
    <glyph glyph-name="uni2070.zero" horiz-adv-x="402" 
d="M77 465.5q-45 55.5 -45 147.5q0 91 45 146.5t124 55.5t124 -55.5t45 -146.5q0 -92 -45 -147.5t-124 -55.5t-124 55.5zM269.5 514.5q23.5 40.5 23.5 98.5q0 24 -5 49l-147 -159q24 -29 58 -29h4q43 0 66.5 40.5zM114 564l147 159q-23 28 -58 28h-4q-43 0 -66.5 -40.5
t-23.5 -97.5q0 -24 5 -49z" />
    <glyph glyph-name="space.tf" 
 />
    <glyph glyph-name="exclamdown.case" horiz-adv-x="268" 
d="M183 691q20 -20 20 -48q0 -29 -19.5 -49t-48.5 -20t-48.5 20t-19.5 49q0 28 20 48t48 20t48 -20zM184 224v-224h-99v224l25 283h49z" />
    <glyph glyph-name="questiondown.case" horiz-adv-x="486" 
d="M319.5 353q-16.5 -25 -55.5 -40l-27 -11q-55 -22 -83 -46.5t-28 -73.5q0 -46 31.5 -76.5t87.5 -30.5q52 0 84 28.5t38 78.5h97q-3 -59 -33.5 -102t-80 -66t-108.5 -23q-60 0 -109 23t-77 65.5t-28 97.5q0 129 134 186l35 15q27 11 35 19.5t8 28.5v70h96v-79
q0 -39 -16.5 -64zM335 692q20 -20 20 -48q0 -29 -19.5 -49t-48.5 -20t-48.5 20t-19.5 49q0 28 20 48t48 20t48 -20z" />
    <glyph glyph-name="period.tf" 
d="M252 10q-20 20 -20 48t20 48.5t48 20.5q29 0 49 -20t20 -49q0 -28 -20.5 -48t-48.5 -20t-48 20z" />
    <glyph glyph-name="comma.tf" 
d="M205 -75h34q60 0 60 61v14h-59v120h120v-139q0 -55 -31.5 -86t-85.5 -31h-38v61z" />
    <glyph glyph-name="colon.tf" 
d="M251.5 10q-20.5 20 -20.5 48q0 29 20.5 49t48.5 20q29 0 49 -20t20 -49q0 -28 -20.5 -48t-48.5 -20t-48.5 20zM251.5 394.5q-20.5 20.5 -20.5 48.5t20.5 48t48.5 20t48.5 -20t20.5 -48t-20 -48.5t-49 -20.5q-28 0 -48.5 20.5z" />
    <glyph glyph-name="semicolon.tf" 
d="M206 -75h35q60 0 60 61v14h-60v120h121v-139q0 -55 -32 -86t-86 -31h-38v61zM253 394q-20 20 -20 49q0 28 20 48t48 20q29 0 49 -20t20 -48q0 -29 -20 -49t-49 -20q-28 0 -48 20z" />
    <glyph glyph-name="numbersign.tf" 
d="M112 176h-82v83h100l39 182h-119v83h137l37 176h87l-37 -176h133l36 176h88l-36 -176h75v-83h-93l-37 -182h110v-83h-128l-36 -176h-88l36 176h-135l-37 -176h-87zM352 259l37 182h-133l-39 -182h135z" />
    <glyph glyph-name="hyphen.case" horiz-adv-x="388" 
d="M59 391h269v-81h-269v81z" />
    <glyph glyph-name="endash.case" horiz-adv-x="568" 
d="M59 391h449v-81h-449v81z" />
    <glyph glyph-name="emdash.case" horiz-adv-x="888" 
d="M59 391h769v-81h-769v81z" />
    <glyph glyph-name="uni2015.case" horiz-adv-x="888" 
d="M59 391h769v-81h-769v81z" />
    <glyph glyph-name="parenleft.case" horiz-adv-x="352" 
d="M176 46q-59 48 -92.5 127t-33.5 177t33.5 177t92.5 127t133 56v-92q-74 -15 -117.5 -86t-43.5 -182t44 -182t117 -86v-92q-74 8 -133 56z" />
    <glyph glyph-name="parenright.case" horiz-adv-x="352" 
d="M176 654q59 -48 92.5 -127t33.5 -177t-33.5 -177t-92.5 -127t-133 -56v92q74 15 117.5 86t43.5 182t-44 182t-117 86v92q74 -8 133 -56z" />
    <glyph glyph-name="braceleft.case" horiz-adv-x="364" 
d="M148 37.5q-30 37.5 -30 117.5v57q0 38 -10 51.5t-40 13.5h-23v146h23q30 0 40 13.5t10 51.5v57q0 80 30 117.5t95 37.5h76v-87h-44q-39 0 -51 -15t-12 -58v-95q0 -85 -80 -85v-20q80 0 80 -85v-95q0 -43 12 -58t51 -15h44v-87h-76q-65 0 -95 37.5z" />
    <glyph glyph-name="braceright.case" horiz-adv-x="364" 
d="M216 663.5q30 -37.5 30 -117.5v-57q0 -38 10 -51.5t40 -13.5h23v-146h-23q-30 0 -40 -13.5t-10 -51.5v-57q0 -80 -30 -117.5t-95 -37.5h-76v87h44q39 0 51 15t12 58v95q0 85 80 85v20q-80 0 -80 85v95q0 43 -12 58t-51 15h-44v87h76q65 0 95 -37.5z" />
    <glyph glyph-name="bracketleft.case" horiz-adv-x="336" 
d="M90 700h199v-87h-102v-526h102v-87h-199v700z" />
    <glyph glyph-name="bracketright.case" horiz-adv-x="336" 
d="M246 0h-199v87h102v526h-102v87h199v-700z" />
    <glyph glyph-name="guillemotleft.case" horiz-adv-x="567" 
d="M254 350l145 215h109l-144 -214l144 -216h-109zM43 350l145 215h110l-145 -215l146 -215h-111z" />
    <glyph glyph-name="guillemotright.case" horiz-adv-x="567" 
d="M313 350l-145 -215h-109l144 214l-144 216h109zM524 350l-145 -215h-110l145 215l-146 215h111z" />
    <glyph glyph-name="guilsinglleft.case" horiz-adv-x="357" 
d="M43 350l145 215h110l-145 -215l146 -215h-111z" />
    <glyph glyph-name="guilsinglright.case" horiz-adv-x="357" 
d="M203 349l-145 216h110l145 -215l-145 -215h-110z" />
    <glyph glyph-name="florin.tf" 
d="M35 -114h46q50 0 70 22t29 77l59 386h-104v85h116l9 56q16 102 57.5 145t128.5 43h53v-86h-46q-49 0 -68.5 -22.5t-27.5 -76.5l-9 -59h123v-85h-136l-58 -381q-16 -103 -58.5 -146.5t-131.5 -43.5h-52v86z" />
    <glyph glyph-name="at.case" horiz-adv-x="919" 
d="M255 -46q-97 49 -153 146.5t-56 238.5q0 127 59.5 223t156.5 147t207 51q114 0 207 -49.5t146 -135.5t53 -192q0 -82 -29 -140.5t-75.5 -88t-98.5 -29.5h-104v66q-15 -32 -49.5 -54t-79.5 -22q-51 0 -92.5 26.5t-65.5 75.5t-24 113q0 63 24 111t65.5 73.5t92.5 25.5
q45 0 77 -20.5t49 -53.5v64h85v-332h17q28 0 54 18.5t43.5 60t17.5 106.5q0 87 -38.5 154t-109 104t-165.5 37q-90 0 -166 -42t-120.5 -119t-44.5 -178q0 -109 43.5 -188t121 -121t179.5 -42h248v-83h-254q-124 0 -221 49zM534 230.5q30 40.5 30 99.5q0 58 -29.5 96.5
t-74.5 38.5h-6q-46 0 -74.5 -36.5t-28.5 -98.5q0 -63 27.5 -101.5t72.5 -38.5h6q47 0 77 40.5z" />
    <glyph glyph-name="section.tf" 
d="M118 24h205q69 0 69 55q0 21 -17 36t-55 29l-139 52q-52 20 -77.5 52.5t-25.5 73.5q0 38 24 72t69 60q-57 42 -57 109t44.5 102t124.5 35h180v-84h-178q-36 0 -56 -13.5t-20 -39.5q0 -24 16 -38.5t54 -26.5l91 -30q78 -25 115.5 -57t37.5 -91q0 -82 -93 -135
q29 -22 43.5 -47t14.5 -59q0 -60 -42 -99.5t-129 -39.5h-199v84zM427 308q0 30 -25 47.5t-71 32.5l-88 28q-34 -14 -51.5 -38t-17.5 -48q0 -25 20.5 -38.5t73.5 -33.5l88 -33q71 30 71 83z" />
    <glyph glyph-name="degree.tf" 
d="M205.5 364.5q-42.5 24.5 -66.5 66.5t-24 94t24 94t66.5 66.5t94.5 24.5t94 -24.5t66.5 -66.5t24.5 -94t-24.5 -94t-66.5 -66.5t-94 -24.5t-94.5 24.5zM368.5 452q28.5 30 28.5 73t-28 72.5t-69 29.5t-69 -29.5t-28 -72.5t28.5 -73t68.5 -30t68.5 30z" />
    <glyph glyph-name="plus.case" horiz-adv-x="601" 
d="M252 308h-198v85h198v200h97v-200h198v-85h-198v-200h-97v200z" />
    <glyph glyph-name="minus.case" horiz-adv-x="608" 
d="M57 394h494v-87h-494v87z" />
    <glyph glyph-name="multiply.case" horiz-adv-x="554" 
d="M60 197l154 154l-154 153l63 63l154 -153l154 153l62 -63l-154 -153l154 -154l-63 -63l-154 154l-153 -154z" />
    <glyph glyph-name="divide.case" horiz-adv-x="610" 
d="M58 394h494v-87h-494v87zM257.5 132.5q-19.5 19.5 -19.5 48.5q0 28 19.5 47.5t47.5 19.5t47.5 -19.5t19.5 -47.5t-19.5 -48t-47.5 -20t-47.5 19.5zM257.5 473.5q-19.5 19.5 -19.5 47.5t19.5 47.5t47.5 19.5t47.5 -19.5t19.5 -47.5t-19.5 -47.5t-47.5 -19.5t-47.5 19.5z
" />
    <glyph glyph-name="equal.case" horiz-adv-x="618" 
d="M62 486h494v-87h-494v87zM62 301h494v-86h-494v86z" />
    <glyph glyph-name="notequal.case" horiz-adv-x="618" 
d="M219 215h-157v86h184l30 98h-214v87h241l33 107h94l-33 -107h159v-87h-186l-30 -98h216v-86h-243l-33 -107h-94z" />
    <glyph glyph-name="greater.case" horiz-adv-x="558" 
d="M78 231l296 117l-296 114v103l425 -174v-83l-425 -175v98z" />
    <glyph glyph-name="less.case" horiz-adv-x="558" 
d="M54 308v83l425 175v-98l-295 -117l295 -114v-103z" />
    <glyph glyph-name="greaterequal.case" horiz-adv-x="641" 
d="M78 316l369 97l-369 96v97l494 -138v-107l-494 -138v93zM78 194h494v-87h-494v87z" />
    <glyph glyph-name="lessequal.case" horiz-adv-x="641" 
d="M69 361v107l494 138v-93l-367 -96l367 -96v-98zM69 194h494v-87h-494v87z" />
    <glyph glyph-name="plusminus.case" horiz-adv-x="643" 
d="M272 377h-198v87h198v129h98v-129h198v-87h-198v-124h-98v124zM74 179h494v-86h-494v86z" />
    <glyph glyph-name="approxequal.case" horiz-adv-x="613" 
d="M367.5 380.5q-30.5 9.5 -75.5 26.5q-63 24 -82 24q-25 0 -37.5 -14.5t-12.5 -35.5h-89v28q0 50 34.5 83.5t89.5 33.5q26 0 58 -9.5t76 -26.5q61 -24 80 -24q49 0 49 46h89v-28q0 -51 -33 -82t-91 -31q-25 0 -55.5 9.5zM367.5 184.5q-30.5 9.5 -75.5 26.5q-63 24 -82 24
q-25 0 -37.5 -14.5t-12.5 -35.5h-89v28q0 50 34.5 83.5t89.5 33.5q26 0 56.5 -9.5t77.5 -27.5q61 -24 80 -24q25 0 37 13t12 34h89v-28q0 -51 -33 -82t-91 -31q-25 0 -55.5 9.5z" />
    <glyph glyph-name="logicalnot.case" horiz-adv-x="599" 
d="M425 357h-365v87h463v-227h-98v140z" />
    <glyph glyph-name="plus.tf" 
d="M252 308h-187v85h187v200h97v-200h186v-85h-186v-200h-97v200z" />
    <glyph glyph-name="minus.tf" 
d="M65 394h470v-86h-470v86z" />
    <glyph glyph-name="multiply.tf" 
d="M84 196l154 154l-154 153l63 63l154 -153l154 153l62 -63l-154 -153l154 -154l-63 -63l-154 154l-153 -154z" />
    <glyph glyph-name="divide.tf" 
d="M53 395h494v-87h-494v87zM252.5 133.5q-19.5 19.5 -19.5 48.5q0 28 19.5 47.5t47.5 19.5t47.5 -19.5t19.5 -47.5t-19.5 -48t-47.5 -20t-47.5 19.5zM252.5 474.5q-19.5 19.5 -19.5 47.5t19.5 47.5t47.5 19.5t47.5 -19.5t19.5 -47.5t-19.5 -47.5t-47.5 -19.5t-47.5 19.5z
" />
    <glyph glyph-name="equal.tf" 
d="M65 486h470v-87h-470v87zM65 301h470v-86h-470v86z" />
    <glyph glyph-name="notequal.tf" 
d="M211 215h-146v86h173l31 98h-204v87h231l34 107h94l-34 -107h145v-87h-173l-31 -98h204v-86h-231l-34 -107h-93z" />
    <glyph glyph-name="greater.tf" 
d="M98 229l296 117l-296 114v103l425 -174v-83l-425 -175v98z" />
    <glyph glyph-name="less.tf" 
d="M76 305v83l425 175v-98l-295 -117l295 -114v-103z" />
    <glyph glyph-name="greaterequal.tf" 
d="M82 325l329 97l-329 96v97l445 -139v-105l-445 -139v93zM82 195h445v-87h-445v87z" />
    <glyph glyph-name="lessequal.tf" 
d="M73 370v105l445 139v-93l-330 -96l330 -97v-97zM73 195h445v-87h-445v87z" />
    <glyph glyph-name="plusminus.tf" 
d="M252 394h-182v86h182v128h96v-128h182v-86h-182v-124h-96v124zM70 197h460v-86h-460v86z" />
    <glyph glyph-name="approxequal.tf" 
d="M345 384q-24 9 -55 26q-28 14 -40 19t-26 5q-23 0 -34 -13.5t-11 -35.5h-86v28q0 50 34 82.5t83 32.5q29 0 53 -9.5t55 -26.5q23 -13 37 -18.5t28 -5.5q22 0 33 13t11 35h86v-28q0 -50 -33.5 -81.5t-82.5 -31.5q-28 0 -52 9zM345 188q-24 9 -55 26q-28 14 -40 19t-26 5
q-23 0 -34 -13.5t-11 -35.5h-86v28q0 49 34 81.5t83 32.5q29 0 52.5 -9t55.5 -26q23 -13 37 -18.5t28 -5.5q22 0 33 13t11 35h86v-29q0 -49 -33.5 -80.5t-82.5 -31.5q-28 0 -52 9z" />
    <glyph glyph-name="logicalnot.tf" 
d="M427 307h-365v87h463v-227h-98v140z" />
    <glyph glyph-name="percent.tf" 
d="M130 300l340 170v-71l-340 -169v70zM331.5 35q-34.5 42 -34.5 113t34.5 113t93.5 42t93.5 -42t34.5 -113t-34.5 -113t-93.5 -42t-93.5 42zM469 77q16 25 16 71q0 48 -16 72.5t-44 24.5t-44 -24.5t-16 -72.5q0 -46 16 -71t44 -25t44 25zM81.5 439q-34.5 42 -34.5 113
t34.5 113t93.5 42t93.5 -42t34.5 -113t-34.5 -113t-93.5 -42t-93.5 42zM219 479.5q16 24.5 16 72.5q0 46 -16 71t-44 25t-44 -25t-16 -71q0 -48 16 -72.5t44 -24.5t44 24.5z" />
    <glyph glyph-name="perthousand.tf" 
d="M186.5 35q-34.5 42 -34.5 113t34.5 113t93.5 42q60 0 94 -42q34 42 94 42t95 -42t35 -113t-35 -113t-95 -42q-29 0 -53 11t-41 32q-35 -43 -94 -43t-93.5 42zM324 76.5q16 24.5 16 71.5t-16 71.5t-44 24.5t-43.5 -24.5t-15.5 -71.5q0 -46 15.5 -71t43.5 -25t44 24.5z
M34 300l340 170v-71l-340 -169v70zM512 76.5q16 24.5 16 71.5t-16 71.5t-44 24.5t-43.5 -24.5t-15.5 -71.5q0 -46 15.5 -71t43.5 -25t44 24.5zM39 439q-35 42 -35 113t35 113t95 42q59 0 93.5 -42t34.5 -113t-34.5 -113t-93.5 -42q-60 0 -95 42zM177.5 480.5
q15.5 24.5 15.5 71.5q0 46 -15.5 71t-43.5 25t-44 -24.5t-16 -71.5t16 -71.5t44 -24.5t43.5 24.5z" />
    <glyph glyph-name="multiply.case.tf" 
d="M84 196l154 154l-154 153l63 63l154 -153l154 153l62 -63l-154 -153l154 -154l-63 -63l-154 154l-153 -154z" />
    <glyph glyph-name="uni20BF.tf" 
d="M54 700h103v120h83v-120h90v120h82v-126q66 -15 106 -62t40 -115q0 -59 -31.5 -102t-82.5 -60q57 -10 93 -53t36 -112q0 -72 -45 -122t-116 -64v-124h-82v120h-90v-120h-83v120h-103v700zM438.5 119q34.5 29 34.5 81q0 53 -34 81.5t-92 28.5h-193v-220h193q57 0 91.5 29z
M427 427.5q31 27.5 31 77.5q0 49 -31 77t-85 28h-188v-210h188q54 0 85 27.5z" />
    <glyph glyph-name="cent.tf" 
d="M299 -10l-19 -110h-82l21 127q-68 28 -106.5 92.5t-38.5 150.5q0 72 28 130.5t80.5 93.5t121.5 36l19 110h82l-20 -120q61 -19 99 -64t45 -106h-96q-5 27 -21 50t-41 36l-59 -345q47 0 79.5 29t41.5 70h97q-13 -80 -71.5 -130t-148.5 -50h-11zM186 159q17 -41 48 -64
l57 334q-57 -7 -89.5 -57.5t-32.5 -121.5q0 -50 17 -91z" />
    <glyph glyph-name="currency.tf" 
d="M169 124l-78 -73l-57 57l78 75q-36 55 -36 122q0 65 32 117l-74 75l57 57l75 -70q58 41 133 41q37 0 72 -11t62 -31l76 71l57 -57l-76 -76q32 -53 32 -116q0 -67 -35 -121l79 -76l-57 -57l-79 74q-58 -40 -131 -40q-74 0 -130 39zM390 209q34 38 34 96q0 59 -34.5 96.5
t-86.5 37.5h-9q-52 0 -86.5 -37.5t-34.5 -96.5q0 -58 34.5 -96t87.5 -38h8q53 0 87 38z" />
    <glyph glyph-name="dollar.tf" 
d="M279 -9l-19 -111h-85l21 124q-80 23 -123 79.5t-44 141.5h99q1 -46 22.5 -78.5t60.5 -49.5l37 218l-18 3q-88 17 -132 64t-44 127q0 55 30 101t86.5 73t131.5 27h12l19 110h85l-21 -123q75 -22 118 -76.5t45 -130.5h-100q-2 39 -22.5 68.5t-55.5 45.5l-35 -205l23 -4
q92 -17 142.5 -68t50.5 -134q0 -61 -32 -107t-91 -71t-136 -25q-16 0 -25 1zM178 448q25 -23 75 -32l12 -2l34 206h-4q-64 0 -103 -31t-39 -78q0 -40 25 -63zM305 80h10q67 0 106.5 30.5t39.5 78.5q0 86 -114 107l-17 3l-36 -219h11z" />
    <glyph glyph-name="Euro.tf" 
d="M202 39q-58 49 -86 141l-88 -20v83l72 16q-4 36 -6 80l-66 -15v83l69 15q14 137 79 212.5t171 75.5q99 0 158 -58t67 -160h-97q-7 63 -38 97.5t-86 34.5h-9q-59 0 -96 -47t-49 -133l167 37v-83l-173 -38v-9q0 -39 3 -71l128 28v-83l-113 -25q17 -61 50 -92.5t80 -31.5h9
q55 0 87.5 34.5t39.5 97.5h97q-8 -102 -68 -160t-160 -58q-84 0 -142 49z" />
    <glyph glyph-name="uni20B4.tf" 
d="M173.5 16q-52.5 26 -79 69t-26.5 94q0 25 6 47l-48 -4v82l545 49v-81l-397 -36q-10 -21 -10 -48q0 -49 36.5 -81t97.5 -32h12q60 0 94.5 30.5t43.5 84.5h100q-9 -87 -70.5 -143.5t-176.5 -56.5q-75 0 -127.5 26zM7 445l421 36q7 18 7 38q0 49 -33.5 77.5t-89.5 28.5h-6
q-64 0 -96.5 -32t-37.5 -73h-100q3 42 27 85.5t76.5 74t134.5 30.5q71 0 120.5 -25t75 -68t25.5 -95q0 -17 -3 -32l64 5v-80l-585 -52v82z" />
    <glyph glyph-name="uni20BD.tf" 
d="M117 158h-101v84h101v64h-102v89h102v305h252q101 0 162 -49.5t61 -147.5t-61.5 -147.5t-162.5 -49.5h-151v-64h196v-84h-196v-158h-100v158zM457 420q35 25 35 83q0 56 -35.5 81.5t-102.5 25.5h-137v-215h137q68 0 103 25z" />
    <glyph glyph-name="sterling.tf" 
d="M61 86h31q66 0 71 74l9 118l-111 -26v86l118 28l9 124q8 104 59.5 157t152.5 53h105v-86h-108q-56 0 -82 -31.5t-31 -97.5l-7 -96l128 30v-86l-135 -32l-10 -130q-2 -31 -13 -50.5t-36 -34.5h344v-86h-494v86z" />
    <glyph glyph-name="uni20A9.tf" 
d="M72 302h-72v76h66l-24 322h92l19 -322h65l33 145h101l31 -145h63l19 322h93l-27 -322h69v-76h-75l-25 -302h-117l-61 302h-44l-69 -302h-114zM167 149l34 153h-43zM307 378l-6 27l-6 -27h12zM432 148l9 154h-42z" />
    <glyph glyph-name="yen.tf" 
d="M251 122l-140 -31v84l140 31v79l-170 -38v84l127 29l-207 340h111l190 -316l189 316h108l-178 -292l98 22v-84l-157 -35l-13 -22v-61l140 31v-83l-140 -31v-145h-98v122z" />
    <glyph glyph-name="uni0338.alt" horiz-adv-x="0" 
d="M30 10l72 94l15 19l239 314l14 18l66 86l65 -47l-73 -95l-12 -16l-244 -318l-15 -19l-66 -87z" />
    <glyph glyph-name="uni0308.cap" horiz-adv-x="0" 
d="M241 789q-16 16 -16 39t16 39.5t39 16.5t39.5 -16.5t16.5 -39.5t-16.5 -39t-39.5 -16t-39 16zM46.5 789.5q-16.5 16.5 -16.5 38.5q0 23 16 39.5t39 16.5t39.5 -16.5t16.5 -39.5t-16.5 -39t-39.5 -16q-22 0 -38.5 16.5z" />
    <glyph glyph-name="uni0307.cap" horiz-adv-x="0" 
d="M47 789q-17 17 -17 42t17 42.5t42 17.5t42.5 -17.5t17.5 -42.5t-17.5 -42t-42.5 -17t-42 17z" />
    <glyph glyph-name="gravecomb.cap" horiz-adv-x="0" 
d="M30 890h118l47 -132h-72z" />
    <glyph glyph-name="acutecomb.cap" horiz-adv-x="0" 
d="M77 890h118l-93 -132h-72z" />
    <glyph glyph-name="uni030B.cap" horiz-adv-x="0" 
d="M249 890h117l-92 -132h-72zM79 890h118l-93 -132h-72z" />
    <glyph glyph-name="uni0302.cap" horiz-adv-x="0" 
d="M143 890h117l113 -132h-84l-87 67l-88 -67h-84z" />
    <glyph glyph-name="uni030C.cap" horiz-adv-x="0" 
d="M30 890h84l88 -67l87 67h84l-113 -132h-117z" />
    <glyph glyph-name="uni0306.cap" horiz-adv-x="0" 
d="M74 787q-44 38 -44 103h77q3 -35 25 -52t54 -17t54 17t24 52h77q0 -65 -43.5 -103t-111.5 -38t-112 38z" />
    <glyph glyph-name="uni030A.cap" horiz-adv-x="0" 
d="M57.5 774q-27.5 26 -27.5 64t27.5 64.5t63.5 26.5q37 0 64.5 -26.5t27.5 -64.5t-27.5 -64t-64.5 -26q-36 0 -63.5 26zM146 813.5q10 10.5 10 24.5t-10 25t-24 11t-24.5 -11t-10.5 -25q0 -13 11 -24t24 -11q14 0 24 10.5z" />
    <glyph glyph-name="tildecomb.cap" horiz-adv-x="0" 
d="M250 763q-20 8 -45 24l-25 16q-24 16 -45 16q-35 0 -35 -54h-70v26q0 44 27.5 74t70.5 30q37 0 79 -27l23 -17q31 -20 51 -20q17 0 26 13.5t9 40.5h70v-26q0 -45 -26.5 -74.5t-69.5 -29.5q-20 0 -40 8z" />
    <glyph glyph-name="uni0304.cap" horiz-adv-x="0" 
d="M30 854h299v-77h-299v77z" />
    <glyph glyph-name="edgeleft.case" horiz-adv-x="375" 
d="M128.5 36q-39.5 36 -39.5 90q0 31 11.5 54.5t31.5 37.5q-41 15 -64 51t-23 81q0 46 23 81t64 50q-19 13 -31 38t-12 55q0 54 39 90t98 36h100v-89h-92q-22 0 -36 -13t-14 -36q0 -24 13.5 -36.5t36.5 -12.5h34v-89h-55q-32 0 -52.5 -20t-20.5 -53q0 -34 20 -54.5t53 -20.5
h55v-89h-34q-22 0 -36 -13t-14 -36q0 -24 14 -36.5t36 -12.5h92v-89h-98q-60 0 -99.5 36z" />
    <glyph glyph-name="edgeright.case" horiz-adv-x="375" 
d="M246.5 664q39.5 -36 39.5 -90q0 -31 -11.5 -54.5t-31.5 -37.5q41 -15 64 -51t23 -81q0 -46 -23 -81t-64 -50q19 -13 31 -38t12 -55q0 -54 -39 -90t-98 -36h-100v89h92q22 0 36 13t14 36q0 24 -13.5 36.5t-36.5 12.5h-34v89h55q32 0 52.5 20t20.5 53q0 34 -20 54.5
t-53 20.5h-55v89h34q22 0 36 13t14 36q0 24 -14 36.5t-36 12.5h-92v89h98q60 0 99.5 -36z" />
    <glyph glyph-name="ringacutecomb.cap" horiz-adv-x="238" 
d="M53 762.5q-23 22.5 -23 57.5q0 34 23.5 56.5t56.5 22.5t56 -22.5t23 -56.5q0 -35 -23 -57.5t-56 -22.5q-34 0 -57 22.5zM131 798q9 9 9 22t-9 21.5t-21 8.5t-21 -8.5t-9 -21.5t9 -22t21 -9t21 9zM114 1016h96l-68 -90h-60z" />
    </font>
</defs>
</svg>
