<?xml version="1.0" standalone="no"?>
<!DOCTYPE svg PUBLIC "-//W3C//DTD SVG 1.1//EN" "http://www.w3.org/Graphics/SVG/1.1/DTD/svg11.dtd" >
<svg xmlns="http://www.w3.org/2000/svg" xmlns:xlink="http://www.w3.org/1999/xlink" version="1.1">
<metadata>
Created by FontForge 20201107 at Thu Jun  1 16:10:01 2023
 By www-data
TM &#38; C Turner Broadcasting System, Inc. A WarnerMedia Company. All Rights Reserved.
</metadata>
<defs>
<font id="TNTDigital-Bold" horiz-adv-x="568" >
  <font-face 
    font-family="TNT Digital"
    font-weight="700"
    font-stretch="normal"
    units-per-em="1000"
    panose-1="0 0 0 0 0 0 0 0 0 0"
    ascent="800"
    descent="-200"
    x-height="550"
    cap-height="750"
    bbox="-100 -259 1210 1137"
    underline-thickness="50"
    underline-position="-125"
    unicode-range="U+0020-F8FF"
  />
<missing-glyph horiz-adv-x="594" 
d="M162 692v-634h270v634h-270zM100 750h394v-750h-394v750zM202 317h190v-58h-64v-103h-62v103h-64v58zM202 491h64v103h62v-103h64v-58h-190v58z" />
    <glyph glyph-name=".notdef" horiz-adv-x="594" 
d="M162 692v-634h270v634h-270zM100 750h394v-750h-394v750zM202 317h190v-58h-64v-103h-62v103h-64v58zM202 491h64v103h62v-103h64v-58h-190v58z" />
    <glyph glyph-name=".null" horiz-adv-x="0" 
 />
    <glyph glyph-name="nonmarkingreturn" horiz-adv-x="333" 
 />
    <glyph glyph-name="space" unicode=" " horiz-adv-x="150" 
 />
    <glyph glyph-name="exclam" unicode="!" horiz-adv-x="244" 
d="M197 230h-150v520h150v-520zM57 19q-25 25 -25 65t25 65t65 25t65 -25t25 -65t-25 -65t-65 -25t-65 25z" />
    <glyph glyph-name="quotedbl" unicode="&#x22;" horiz-adv-x="398" 
d="M156 734q22 -22 22 -57q0 -28 -10 -64t-29 -95l-13 -39h-54l-16 50q-18 55 -27 89.5t-9 58.5q0 35 22 57t57 22t57 -22zM356 734q22 -22 22 -57q0 -28 -10 -64t-29 -95l-13 -39h-54l-16 50q-18 55 -27 89.5t-9 58.5q0 35 22 57t57 22t57 -22z" />
    <glyph glyph-name="numbersign" unicode="#" horiz-adv-x="705" 
d="M352 178h-117l-53 -178h-152l53 178h-70v140h112l34 114h-96v140h138l53 178h152l-53 -178h117l53 178h152l-53 -178h70v-140h-112l-34 -114h96v-140h-138l-53 -178h-152zM394 318l34 114h-117l-34 -114h117z" />
    <glyph glyph-name="dollar" unicode="$" horiz-adv-x="563" 
d="M349 860v-107q84 -17 132 -74t48 -141v-15l-150 -20v26q0 45 -29 69t-79 24q-43 0 -67 -20t-24 -55t24 -53.5t67 -30.5l72 -20q57 -16 99 -37.5t71.5 -66t29.5 -117.5q0 -101 -52.5 -158t-141.5 -70v-104h-135v107q-88 17 -141 72t-53 145v13l150 20v-17q0 -49 32 -75.5
t91 -26.5q50 0 75 21.5t25 58.5q0 36 -24 56.5t-66 32.5l-87 26q-57 17 -96 37.5t-64.5 62t-25.5 109.5q0 89 49.5 147t134.5 75v106h135z" />
    <glyph glyph-name="percent" unicode="%" horiz-adv-x="853" 
d="M580 750h126l-434 -750h-126zM68.5 386q-45.5 44 -45.5 117v97q0 72 45.5 116t119.5 44t120.5 -44t46.5 -116v-97q0 -72 -46.5 -116.5t-120.5 -44.5t-119.5 44zM230.5 458.5q17.5 17.5 17.5 44.5v97q0 27 -17.5 44t-42.5 17t-41.5 -17t-16.5 -44v-97q0 -27 16.5 -44.5
t41.5 -17.5t42.5 17.5zM543.5 34q-45.5 44 -45.5 117v97q0 72 45.5 116t119.5 44t120.5 -44t46.5 -116v-97q0 -72 -46.5 -116.5t-120.5 -44.5t-119.5 44zM705.5 106.5q17.5 17.5 17.5 44.5v97q0 27 -17.5 44t-42.5 17t-41.5 -17t-16.5 -44v-97q0 -27 16.5 -44.5t41.5 -17.5
t42.5 17.5z" />
    <glyph glyph-name="ampersand" unicode="&#x26;" horiz-adv-x="633" 
d="M136.5 15q-54.5 25 -87 75.5t-32.5 123.5v22q0 64 32 110.5t88 72.5q-22 33 -34 66t-12 74q0 63 29.5 108.5t80.5 69t114 23.5q105 0 159.5 -58.5t54.5 -151.5v-11l-150 -22v24q0 79 -64 79q-33 0 -49 -15.5t-16 -44.5q0 -32 33 -81l142 -204l25 111h148l-73 -254
l92 -132h-186l-21 30q-64 -40 -152 -40q-67 0 -121.5 25zM198 156q31 -26 82 -26q30 0 52 11l-121 172q-44 -27 -44 -83v-1q0 -47 31 -73z" />
    <glyph glyph-name="quotesingle" unicode="'" horiz-adv-x="198" 
d="M156 734q22 -22 22 -57q0 -28 -10 -64t-29 -95l-13 -39h-54l-16 50q-18 55 -27 89.5t-9 58.5q0 35 22 57t57 22t57 -22z" />
    <glyph glyph-name="parenleft" unicode="(" horiz-adv-x="288" 
d="M18 345q0 248 172 417l80 -70q-47 -58 -76.5 -154t-29.5 -193t29.5 -193t76.5 -154l-80 -70q-172 169 -172 417z" />
    <glyph glyph-name="parenright" unicode=")" horiz-adv-x="288" 
d="M270 345q0 -248 -172 -417l-80 70q47 58 76.5 154t29.5 193t-29.5 193t-76.5 154l80 70q172 -169 172 -417z" />
    <glyph glyph-name="asterisk" unicode="*" horiz-adv-x="400" 
d="M155 500l-75 -62l-60 104l90 35l-90 34l60 104l75 -61l-15 96h119l-15 -96l76 61l60 -104l-90 -34l90 -35l-60 -104l-76 62l15 -97h-119z" />
    <glyph glyph-name="plus" unicode="+" horiz-adv-x="478" 
d="M450 302h-136v-154h-150v154h-136v146h136v154h150v-154h136v-146z" />
    <glyph glyph-name="comma" unicode="," horiz-adv-x="223" 
d="M187 28l-70 -156l-64 28l42 94q-35 4 -55 28t-20 60q0 40 25.5 65t64.5 25t64.5 -25t25.5 -65q0 -25 -13 -54z" />
    <glyph glyph-name="hyphen" unicode="-" horiz-adv-x="358" 
d="M330 246h-302v146h302v-146z" />
    <glyph glyph-name="period" unicode="." horiz-adv-x="226" 
d="M48 19q-25 25 -25 65t25 65t65 25t65 -25t25 -65t-25 -65t-65 -25t-65 25z" />
    <glyph glyph-name="slash" unicode="/" horiz-adv-x="398" 
d="M164 0h-154l224 750h154z" />
    <glyph glyph-name="zero" unicode="0" 
d="M149.5 21q-58.5 31 -91.5 89t-33 137v256q0 79 33 137t91.5 89t134.5 31t134.5 -31t91.5 -89t33 -137v-256q0 -79 -33 -137t-91.5 -89t-134.5 -31t-134.5 31zM363 162q30 32 30 85v256q0 53 -30 85t-79 32t-79 -32t-30 -85v-256q0 -53 30 -85t79 -32t79 32z" />
    <glyph glyph-name="one" unicode="1" 
d="M68 140h153v470h-153v140h303v-610h155v-140h-458v140z" />
    <glyph glyph-name="two" unicode="2" 
d="M49.5 177q10.5 33 53 75.5t136.5 106.5q60 41 88 73t34.5 54t6.5 52q0 38 -21.5 60t-63.5 22q-43 0 -65 -21.5t-22 -59.5v-34l-150 15v19q0 102 64 161.5t173 59.5q108 0 171.5 -60t63.5 -163q0 -54 -12 -95t-52.5 -89t-121.5 -102q-60 -40 -89 -64t-39 -47h324v-140
h-489v91q0 53 10.5 86z" />
    <glyph glyph-name="three" unicode="3" 
d="M90.5 48.5q-67.5 58.5 -67.5 168.5v13l150 15v-21q0 -48 28.5 -72.5t80.5 -24.5q51 0 79.5 26t28.5 69v10q0 42 -28.5 68.5t-79.5 26.5h-111v124l154 159h-278v140h459v-131l-156 -160q85 -11 137.5 -72t52.5 -152v-5q0 -112 -67 -176t-188 -64q-127 0 -194.5 58.5z" />
    <glyph glyph-name="four" unicode="4" 
d="M331 134h-303v133l142 483h156l-139 -476h144v165h148v-165h76v-140h-76v-134h-148v134z" />
    <glyph glyph-name="five" unicode="5" 
d="M158.5 16.5q-55.5 26.5 -84 72t-28.5 102.5v9l150 16q0 -43 25.5 -66t67.5 -23q43 0 67 27t24 83v32q0 51 -25 80.5t-67 29.5q-39 0 -63.5 -22t-24.5 -60h-148v86l31 367h405v-140h-279l-11 -146q40 52 121 52q59 0 107 -27t76 -81t28 -132v-46q0 -118 -64.5 -179
t-175.5 -61q-76 0 -131.5 26.5z" />
    <glyph glyph-name="six" unicode="6" 
d="M154.5 19.5q-56.5 29.5 -87.5 84.5t-31 129v273q0 130 65.5 192t182.5 62q121 0 180 -56t59 -153v-14l-150 -15v7q0 43 -19.5 68.5t-71.5 25.5q-53 0 -74.5 -28.5t-21.5 -85.5v-82q40 53 129 53q100 0 158.5 -62.5t58.5 -177.5q0 -77 -30.5 -133.5t-86.5 -86.5t-130 -30
t-130.5 29.5zM211 155.5q25 -28.5 73 -28.5t73 28.5t25 79.5t-25 79.5t-72 28.5q-46 0 -72.5 -28.5t-26.5 -79.5t25 -79.5z" />
    <glyph glyph-name="seven" unicode="7" 
d="M344 610h-297v140h474v-131l-244 -619h-173z" />
    <glyph glyph-name="eight" unicode="8" 
d="M93 49.5q-67 59.5 -67 162.5q0 62 26 105t73 68q-41 25 -63.5 65t-22.5 94q0 65 30.5 114t86 75.5t128.5 26.5t128.5 -26.5t86 -75.5t30.5 -114q0 -54 -22.5 -94t-63.5 -65q47 -25 73 -68t26 -105q0 -103 -67 -162.5t-191 -59.5t-191 59.5zM364.5 152.5
q27.5 25.5 27.5 70.5q0 48 -29 71.5t-79 23.5t-79 -23.5t-29 -71.5q0 -45 27.5 -70.5t80.5 -25.5t80.5 25.5zM352.5 469.5q26.5 22.5 26.5 64.5q0 40 -25 63t-70 23t-70 -23t-25 -63q0 -42 26.5 -64.5t68.5 -22.5t68.5 22.5z" />
    <glyph glyph-name="nine" unicode="9" 
d="M106 46.5q-61 56.5 -61 152.5v14l150 15v-7q0 -43 19.5 -68.5t71.5 -25.5q53 0 74.5 28.5t21.5 85.5v82q-40 -53 -129 -53q-100 0 -158.5 62.5t-58.5 177.5q0 77 30.5 133.5t86.5 86.5t130 30t130.5 -29.5t87.5 -84.5t31 -129v-273q0 -130 -65.5 -192t-182.5 -62
t-178 56.5zM211 435.5q25 -28.5 72 -28.5q46 0 72.5 28.5t26.5 79.5t-25 79.5t-73 28.5t-73 -28.5t-25 -79.5t25 -79.5z" />
    <glyph glyph-name="colon" unicode=":" horiz-adv-x="240" 
d="M55 19q-25 25 -25 65t25 65t65 25t65 -25t25 -65t-25 -65t-65 -25t-65 25zM185 531q25 -25 25 -65t-25 -65t-65 -25t-65 25t-25 65t25 65t65 25t65 -25z" />
    <glyph glyph-name="semicolon" unicode=";" horiz-adv-x="240" 
d="M63 -100l42 94q-35 4 -55 28t-20 60q0 40 25.5 65t64.5 25t64.5 -25t25.5 -65q0 -25 -13 -54l-70 -156zM55 401q-25 25 -25 65t25 65t65 25t65 -25t25 -65t-25 -65t-65 -25t-65 25z" />
    <glyph glyph-name="less" unicode="&#x3c;" horiz-adv-x="390" 
d="M28 276v171l350 118v-146l-207 -56l207 -56v-149z" />
    <glyph glyph-name="equal" unicode="=" horiz-adv-x="458" 
d="M430 402h-402v146h402v-146zM430 202h-402v146h402v-146z" />
    <glyph glyph-name="greater" unicode="&#x3e;" horiz-adv-x="390" 
d="M362 447v-171l-350 -118v146l207 56l-207 56v149z" />
    <glyph glyph-name="question" unicode="?" horiz-adv-x="516" 
d="M171 419h71q48 0 73.5 25.5t25.5 73.5q0 51 -24 76.5t-65 25.5q-42 0 -65.5 -25.5t-23.5 -76.5v-29l-150 16v13q0 75 30.5 129.5t84.5 83.5t124 29t124 -29t84.5 -83.5t30.5 -129.5q0 -92 -46 -152.5t-124 -78.5v-67h-150v199zM184 19q-25 25 -25 65t25 65t65 25t65 -25
t25 -65t-25 -65t-65 -25t-65 25z" />
    <glyph glyph-name="at" unicode="@" horiz-adv-x="670" 
d="M170.5 37.5q-69.5 37.5 -106 105.5t-36.5 159v163q0 87 39.5 153t112 102.5t167.5 36.5q89 0 155.5 -34.5t103 -100t36.5 -157.5v-114q0 -81 -40.5 -127t-118.5 -46h-96v51h-3q-15 -32 -37 -46t-55 -14q-59 0 -92 40t-33 113v103q0 73 32.5 113t91.5 40q31 0 54 -15
t34 -46h3v54h115v-307h9q29 0 40.5 25t11.5 77v90q0 105 -57 162.5t-154 57.5q-70 0 -123 -27.5t-82.5 -77t-29.5 -115.5v-145q0 -106 59.5 -168t168.5 -62h164v-81h-168q-96 0 -165.5 37.5zM369 292.5q13 16.5 13 45.5v71q0 29 -13.5 45.5t-37.5 16.5q-50 0 -50 -62v-71
q0 -30 13 -46t39 -16q23 0 36 16.5z" />
    <glyph glyph-name="A" unicode="A" horiz-adv-x="565" 
d="M186 750h193l186 -750h-177l-20 101h-182l-20 -101h-166zM345 221l-67 340l-68 -340h135z" />
    <glyph glyph-name="B" unicode="B" horiz-adv-x="554" 
d="M32 750h281q99 0 150.5 -51t51.5 -140v-38q0 -48 -15 -81t-48 -55q41 -20 60.5 -56t19.5 -90v-48q0 -89 -51.5 -140t-150.5 -51h-298v750zM365.5 156.5q15.5 16.5 15.5 56.5v24q0 40 -15.5 56.5t-53.5 16.5h-130v-170h130q38 0 53.5 16.5zM348.5 466.5
q15.5 16.5 15.5 56.5v14q0 40 -15.5 56.5t-53.5 16.5h-113v-160h113q38 0 53.5 16.5z" />
    <glyph glyph-name="C" unicode="C" horiz-adv-x="565" 
d="M150.5 20.5q-59.5 30.5 -92.5 87.5t-33 135v264q0 78 33 135t92.5 87.5t135.5 30.5q75 0 133.5 -30.5t91 -87.5t32.5 -135v-36l-148 -16l-2 42q-3 59 -30 91t-76 32q-52 0 -82 -32.5t-30 -87.5v-250q0 -55 30 -87.5t82 -32.5q49 0 76 32t30 91l2 42l148 -16v-36
q0 -78 -32.5 -135t-91 -87.5t-133.5 -30.5q-76 0 -135.5 30.5z" />
    <glyph glyph-name="D" unicode="D" horiz-adv-x="559" 
d="M32 750h243q76 0 134.5 -31t91.5 -89t33 -137v-236q0 -79 -33 -137t-91.5 -89t-134.5 -31h-243v750zM354 172q30 32 30 85v236q0 53 -30 85t-79 32h-93v-470h93q49 0 79 32z" />
    <glyph glyph-name="E" unicode="E" horiz-adv-x="486" 
d="M32 750h430v-140h-280v-157h210v-138h-210v-175h282v-140h-432v750z" />
    <glyph glyph-name="F" unicode="F" horiz-adv-x="473" 
d="M32 750h424v-140h-274v-179h214v-140h-214v-291h-150v750z" />
    <glyph glyph-name="G" unicode="G" 
d="M149.5 23q-58.5 31 -91.5 89t-33 137v258q0 78 33 135t91.5 87.5t134.5 30.5q75 0 133.5 -30t91.5 -86.5t34 -133.5v-6l-150 -16v15q0 53 -30 85t-79 32t-79 -32t-30 -85v-254q0 -53 30 -85t79 -32t79 32t30 85v5h-96v140h246v-145q0 -79 -33 -137t-91.5 -89t-134.5 -31
t-134.5 31z" />
    <glyph glyph-name="H" unicode="H" horiz-adv-x="581" 
d="M32 750h150v-304h217v304h150v-750h-150v306h-217v-306h-150v750z" />
    <glyph glyph-name="I" unicode="I" horiz-adv-x="214" 
d="M32 750h150v-750h-150v750z" />
    <glyph glyph-name="J" unicode="J" horiz-adv-x="475" 
d="M74 47q-59 55 -59 158v26l150 26v-52q0 -69 66 -69t66 69v545h150v-545q0 -103 -59 -158t-157 -55t-157 55z" />
    <glyph glyph-name="K" unicode="K" horiz-adv-x="571" 
d="M32 750h150v-300l194 300h179l-234 -349l251 -401h-187l-203 341v-341h-150v750z" />
    <glyph glyph-name="L" unicode="L" horiz-adv-x="467" 
d="M32 750h150v-610h261v-140h-411v750z" />
    <glyph glyph-name="M" unicode="M" horiz-adv-x="708" 
d="M32 750h212l113 -410l113 410h206v-750h-151v469l-128 -469h-86l-128 469v-469h-151v750z" />
    <glyph glyph-name="N" unicode="N" horiz-adv-x="588" 
d="M32 750h148l230 -437v437h146v-750h-148l-230 437v-437h-146v750z" />
    <glyph glyph-name="O" unicode="O" 
d="M149.5 21q-58.5 31 -91.5 89t-33 137v256q0 79 33 137t91.5 89t134.5 31t134.5 -31t91.5 -89t33 -137v-256q0 -79 -33 -137t-91.5 -89t-134.5 -31t-134.5 31zM363 162q30 32 30 85v256q0 53 -30 85t-79 32t-79 -32t-30 -85v-256q0 -53 30 -85t79 -32t79 32z" />
    <glyph glyph-name="P" unicode="P" horiz-adv-x="553" 
d="M32 750h249q259 0 259 -255v-18q0 -85 -34.5 -142.5t-93 -85t-131.5 -27.5h-99v-222h-150v750zM361 393.5q28 31.5 28 83.5v18q0 53 -28 84t-77 31h-102v-248h102q49 0 77 31.5z" />
    <glyph glyph-name="Q" unicode="Q" horiz-adv-x="582" 
d="M149.5 31q-58.5 31 -91.5 89t-33 137v246q0 79 33 137t91.5 89t134.5 31t134.5 -31t91.5 -89t33 -137v-238q0 -31 -10.5 -54t-26.5 -39t-43 -38h125v-134h-304q-76 0 -134.5 31zM363 172q30 32 30 85v246q0 53 -30 85t-79 32t-79 -32t-30 -85v-246q0 -53 30 -85t79 -32
t79 32z" />
    <glyph glyph-name="R" unicode="R" horiz-adv-x="572" 
d="M32 750h249q123 0 191 -58.5t68 -192.5v-18q0 -141 -95 -207l116 -274h-166l-91 231q-8 -1 -23 -1h-99v-230h-150v750zM362.5 399.5q26.5 29.5 26.5 81.5v18q0 52 -26.5 81.5t-75.5 29.5h-105v-240h105q49 0 75.5 29.5z" />
    <glyph glyph-name="S" unicode="S" horiz-adv-x="563" 
d="M152.5 15q-61.5 25 -97 75.5t-35.5 123.5v13l150 20v-17q0 -49 32 -75.5t91 -26.5q50 0 75 21.5t25 58.5q0 36 -24 56.5t-66 32.5l-87 26q-57 17 -96 37.5t-64.5 62t-25.5 109.5q0 70 31 121.5t87.5 79t130.5 27.5q76 0 132.5 -27.5t87 -77.5t30.5 -117v-15l-150 -20v26
q0 45 -29 69t-79 24q-43 0 -67 -20t-24 -55t24 -53.5t67 -30.5l72 -20q57 -16 99 -37.5t71.5 -66t29.5 -117.5q0 -116 -69.5 -174t-182.5 -58q-77 0 -138.5 25z" />
    <glyph glyph-name="T" unicode="T" horiz-adv-x="512" 
d="M181 610h-175v140h500v-140h-175v-611h-150v611z" />
    <glyph glyph-name="U" unicode="U" horiz-adv-x="574" 
d="M152.5 21q-58.5 31 -91.5 89t-33 137v503h150v-503q0 -53 30 -85t79 -32t79 32t30 85v503h150v-503q0 -79 -33 -137t-91.5 -89t-134.5 -31t-134.5 31z" />
    <glyph glyph-name="V" unicode="V" horiz-adv-x="565" 
d="M0 750h177l110 -561l112 561h166l-186 -750h-193z" />
    <glyph glyph-name="W" unicode="W" horiz-adv-x="768" 
d="M8 750h171l58 -498l64 498h174l63 -490l57 490h165l-137 -750h-175l-64 450l-63 -450h-175z" />
    <glyph glyph-name="X" unicode="X" horiz-adv-x="570" 
d="M186 383l-176 367h178l103 -250l103 250h166l-176 -373l181 -377h-178l-108 260l-108 -260h-166z" />
    <glyph glyph-name="Y" unicode="Y" horiz-adv-x="547" 
d="M198 253l-202 497h172l108 -305l109 305h166l-203 -497v-253h-150v253z" />
    <glyph glyph-name="Z" unicode="Z" horiz-adv-x="508" 
d="M22 105l275 505h-275v140h464v-105l-275 -505h275v-140h-464v105z" />
    <glyph glyph-name="bracketleft" unicode="[" horiz-adv-x="286" 
d="M182 610v-470h80v-140h-230v750h230v-140h-80z" />
    <glyph glyph-name="backslash" unicode="\" horiz-adv-x="398" 
d="M164 750l224 -750h-154l-224 750h154z" />
    <glyph glyph-name="bracketright" unicode="]" horiz-adv-x="286" 
d="M24 140h80v470h-80v140h230v-750h-230v140z" />
    <glyph glyph-name="asciicircum" unicode="^" horiz-adv-x="434" 
d="M414 515h-129l-68 110l-68 -110h-129l131 235h132z" />
    <glyph glyph-name="underscore" unicode="_" horiz-adv-x="356" 
d="M328 -56v-116h-300v116h300z" />
    <glyph glyph-name="grave" unicode="`" horiz-adv-x="287" 
d="M166 615l-116 135h167l20 -135h-71z" />
    <glyph glyph-name="a" unicode="a" horiz-adv-x="486" 
d="M58 39q-42 44 -42 111v3q0 70 50 117.5t162 47.5h81v30q0 37 -16.5 57t-47.5 20q-34 0 -52.5 -20t-18.5 -57v-5l-148 25q0 51 25 94.5t76.5 70.5t125.5 27q100 0 153 -54.5t53 -151.5v-354h-130l-13 69h-5q-32 -37 -61 -55.5t-79 -18.5q-71 0 -113 44zM232 126
q34 0 55.5 17t21.5 47v33h-73q-34 0 -51.5 -12t-17.5 -35v-2q0 -48 65 -48z" />
    <glyph glyph-name="b" unicode="b" horiz-adv-x="513" 
d="M234.5 11q-33.5 21 -56.5 68h-3l-15 -79h-130v750h150v-279h3q19 47 51.5 68t80.5 21q84 0 129.5 -58.5t45.5 -165.5v-122q0 -107 -45.5 -165.5t-128.5 -58.5q-48 0 -81.5 21zM318.5 159.5q21.5 25.5 21.5 68.5v94q0 43 -22 68.5t-59 25.5t-58 -26t-21 -76v-78
q0 -49 21.5 -75.5t58.5 -26.5t58.5 25.5z" />
    <glyph glyph-name="c" unicode="c" horiz-adv-x="493" 
d="M129.5 19q-51.5 28 -80.5 77.5t-29 113.5v132q0 63 29 113t80.5 78t118.5 28q63 0 115 -28t81.5 -76t29.5 -105v-3l-148 -25v5q0 41 -21 66.5t-56 25.5q-36 0 -57.5 -25.5t-21.5 -68.5v-102q0 -43 21.5 -68.5t57.5 -25.5q35 0 56 25.5t21 66.5v5l148 -25v-3
q0 -57 -29.5 -105t-81.5 -76t-115 -28q-67 0 -118.5 28z" />
    <glyph glyph-name="d" unicode="d" horiz-adv-x="513" 
d="M68.5 48.5q-45.5 58.5 -45.5 165.5v122q0 107 47.5 165.5t134.5 58.5q49 0 78.5 -21t46.5 -68h3v279h150v-750h-130l-15 79h-3q-23 -47 -56.5 -68t-81.5 -21q-83 0 -128.5 58.5zM312.5 160q20.5 26 20.5 76v78q0 49 -21.5 75.5t-59.5 26.5q-37 0 -58 -25t-21 -69v-94
q0 -43 22.5 -68.5t59.5 -25.5t57.5 26z" />
    <glyph glyph-name="e" unicode="e" horiz-adv-x="500" 
d="M132 16.5q-53 26.5 -82.5 74t-29.5 107.5v138q0 64 30 115t82.5 80t117.5 29t117.5 -29t82.5 -80t30 -115v-87h-310v-49q0 -36 23 -58t61 -22q34 0 55 22.5t21 57.5v3l146 -11l-1 -20q-2 -51 -31 -92.5t-78 -65.5t-112 -24q-69 0 -122 26.5zM330 334v1q0 43 -22 68.5
t-58 25.5t-58 -25.5t-22 -68.5v-1h160z" />
    <glyph glyph-name="f" unicode="f" horiz-adv-x="398" 
d="M154 714q51 51 153 51q35 0 73 -7v-129q-31 6 -53 6q-39 0 -56.5 -18t-17.5 -45v-22h127v-140h-127v-410h-150v410h-85v140h85v21q0 92 51 143z" />
    <glyph glyph-name="g" unicode="g" horiz-adv-x="510" 
d="M91 -142.5q-54 47.5 -66 114.5l-1 6l143 24q4 -25 23 -43t54 -18q41 0 63.5 26.5t22.5 71.5v78h-3q-18 -45 -50 -62t-83 -17q-78 0 -126 55.5t-48 158.5v84q0 107 47.5 165.5t134.5 58.5q48 0 79 -20.5t56 -68.5h3v79h140v-516q0 -64 -28.5 -115t-80.5 -80t-119 -29
q-107 0 -161 47.5zM309.5 198q20.5 26 20.5 76v40q0 49 -21.5 75.5t-59.5 26.5q-37 0 -58 -25t-21 -69v-56q0 -43 22.5 -68.5t59.5 -25.5t57.5 26z" />
    <glyph glyph-name="h" unicode="h" horiz-adv-x="511" 
d="M30 750h150v-279h4q18 47 52 68t88 21q82 0 121 -50.5t39 -148.5v-361h-150v325q0 89 -72 89q-38 0 -60 -28t-22 -78v-308h-150v750z" />
    <glyph glyph-name="i" unicode="i" horiz-adv-x="210" 
d="M30 550h150v-550h-150v550zM44 614q-24 24 -24 61t24 61t61 24q38 0 61.5 -23.5t23.5 -61.5q0 -37 -24 -61t-61 -24t-61 24z" />
    <glyph glyph-name="j" unicode="j" horiz-adv-x="212" 
d="M-68 -181v137h36q33 0 48.5 13.5t15.5 43.5v537h150v-556q0 -182 -170 -182q-28 0 -80 7zM46 614q-24 24 -24 61t24 61t61 24q38 0 61.5 -23.5t23.5 -61.5q0 -37 -24 -61t-61 -24t-61 24z" />
    <glyph glyph-name="k" unicode="k" horiz-adv-x="486" 
d="M30 750h150v-413h7l130 213h168l-170 -267l171 -283h-174l-126 224h-6v-224h-150v750z" />
    <glyph glyph-name="l" unicode="l" horiz-adv-x="210" 
d="M30 750h150v-750h-150v750z" />
    <glyph glyph-name="m" unicode="m" horiz-adv-x="783" 
d="M30 550h143v-79h5q23 47 57 68t81 21q104 0 138 -89h5q22 46 59 67.5t84 21.5q154 0 154 -195v-365h-150v329q0 42 -17 63.5t-47 21.5q-33 0 -53.5 -25.5t-20.5 -72.5v-316h-150v329q0 42 -17 63.5t-47 21.5q-33 0 -53.5 -25.5t-20.5 -72.5v-316h-150v550z" />
    <glyph glyph-name="n" unicode="n" horiz-adv-x="511" 
d="M262 414q-39 0 -60.5 -26t-21.5 -76v-312h-150v550h143v-79h5q24 49 56 69t90 20q82 0 121 -50.5t39 -148.5v-361h-150v325q0 89 -72 89z" />
    <glyph glyph-name="o" unicode="o" horiz-adv-x="500" 
d="M132.5 19q-52.5 29 -82.5 80t-30 115v122q0 64 30 115t82.5 80t117.5 29t117.5 -29t82.5 -80t30 -115v-122q0 -64 -30 -115t-82.5 -80t-117.5 -29t-117.5 29zM192 155.5q22 -25.5 58 -25.5t58 25.5t22 68.5v102q0 43 -22 68.5t-58 25.5t-58 -25.5t-22 -68.5v-102
q0 -43 22 -68.5z" />
    <glyph glyph-name="p" unicode="p" horiz-adv-x="513" 
d="M30 550h140v-79h4q23 47 58 68t84 21q83 0 128.5 -58.5t45.5 -165.5v-122q0 -107 -47.5 -165.5t-134.5 -58.5q-48 0 -76 20t-48 67h-4v-257h-150v730zM319 159q21 25 21 69v94q0 43 -22.5 68.5t-59.5 25.5t-57.5 -26t-20.5 -76v-78q0 -49 21.5 -75.5t59.5 -26.5
q37 0 58 25z" />
    <glyph glyph-name="q" unicode="q" horiz-adv-x="510" 
d="M330 77h-4q-20 -47 -48 -67t-76 -20q-87 0 -134.5 58.5t-47.5 165.5v122q0 107 45.5 165.5t128.5 58.5q49 0 84 -21t58 -68h4v79h140v-730h-150v257zM308.5 160.5q21.5 26.5 21.5 75.5v78q0 50 -20.5 76t-57.5 26t-59.5 -25.5t-22.5 -68.5v-94q0 -44 21 -69t58 -25
q38 0 59.5 26.5z" />
    <glyph glyph-name="r" unicode="r" horiz-adv-x="355" 
d="M30 550h143v-101h3q11 62 41.5 84.5t75.5 22.5q32 0 52 -10v-150h-47q-68 0 -93 -27.5t-25 -82.5v-286h-150v550z" />
    <glyph glyph-name="s" unicode="s" horiz-adv-x="470" 
d="M77 36.5q-57 46.5 -57 121.5v4l148 24v-13q0 -29 18.5 -45.5t53.5 -16.5q60 0 60 44q0 16 -10 26t-33 16l-99 28q-65 18 -96 59t-31 99q0 85 59.5 131t148.5 46q58 0 102.5 -20.5t69 -56.5t24.5 -83v-4l-147 -23v13q0 24 -13 38.5t-41 14.5q-25 0 -38.5 -11.5
t-13.5 -31.5q0 -17 10 -27.5t32 -17.5l90 -27q68 -20 102.5 -56.5t34.5 -100.5q0 -81 -53 -129t-162 -48q-102 0 -159 46.5z" />
    <glyph glyph-name="t" unicode="t" horiz-adv-x="379" 
d="M98 410h-80v140h80v105l150 45v-150h113v-140h-113v-410h-150v410z" />
    <glyph glyph-name="u" unicode="u" horiz-adv-x="506" 
d="M65 40q-38 50 -38 149v361h150v-325q0 -89 70 -89q37 0 58 26t21 76v312h150v-550h-130l-15 79h-4q-24 -48 -55.5 -68.5t-86.5 -20.5q-82 0 -120 50z" />
    <glyph glyph-name="v" unicode="v" horiz-adv-x="520" 
d="M11 550h159l91 -370h4l91 370h153l-148 -550h-203z" />
    <glyph glyph-name="w" unicode="w" horiz-adv-x="782" 
d="M17 550h159l56 -370h4l81 370h154l81 -370h4l56 370h153l-113 -550h-192l-67 287h-4l-69 -287h-191z" />
    <glyph glyph-name="x" unicode="x" horiz-adv-x="531" 
d="M183 276l-162 274h169l81 -144h5l84 144h150l-159 -267l169 -283h-169l-91 153h-5l-94 -153h-150z" />
    <glyph glyph-name="y" unicode="y" horiz-adv-x="520" 
d="M185 45l-174 505h159l91 -296l89 296h159l-252 -730h-159z" />
    <glyph glyph-name="z" unicode="z" horiz-adv-x="462" 
d="M24 123l220 288h-216v139h402v-124l-221 -289h229v-137h-414v123z" />
    <glyph glyph-name="braceleft" unicode="{" horiz-adv-x="316" 
d="M138.5 46q-56.5 46 -56.5 137v72q0 28 -12 42t-44 14h-6v128h6q32 0 44 14t12 42v72q0 91 56.5 137t160.5 46v-126q-44 -4 -60.5 -20t-16.5 -57v-55q0 -33 -8 -53.5t-21 -33t-38 -30.5q25 -18 38 -30.5t21 -33t8 -53.5v-55q0 -40 16.5 -56.5t60.5 -20.5v-126
q-104 0 -160.5 46z" />
    <glyph glyph-name="bar" unicode="|" horiz-adv-x="214" 
d="M182 -100h-150v850h150v-850z" />
    <glyph glyph-name="braceright" unicode="}" horiz-adv-x="316" 
d="M77.5 146.5q16.5 16.5 16.5 56.5v55q0 33 8 53.5t21 33t38 30.5q-25 18 -38 30.5t-21 33t-8 53.5v55q0 41 -16.5 57t-60.5 20v126q104 0 160.5 -46t56.5 -137v-72q0 -28 12 -42t44 -14h6v-128h-6q-32 0 -44 -14t-12 -42v-72q0 -91 -56.5 -137t-160.5 -46v126
q44 4 60.5 20.5z" />
    <glyph glyph-name="asciitilde" unicode="~" horiz-adv-x="461" 
d="M277.5 280.5q-30.5 7.5 -70.5 19.5q-44 14 -55 14q-22 0 -30.5 -8.5t-8.5 -29.5h-85q-1 64 9 99.5t32 50t60 14.5q40 0 125 -27q44 -14 55 -14q22 0 30.5 8.5t8.5 29.5h85q1 -64 -8.5 -99.5t-31.5 -50t-60 -14.5q-25 0 -55.5 7.5z" />
    <glyph glyph-name="uni00A0" unicode="&#xa0;" horiz-adv-x="150" 
 />
    <glyph glyph-name="exclamdown" unicode="&#xa1;" horiz-adv-x="244" 
d="M47 -180v500h150v-500h-150zM187 533q25 -25 25 -65t-25 -65t-65 -25t-65 25t-25 65t25 65t65 25t65 -25z" />
    <glyph glyph-name="cent" unicode="&#xa2;" horiz-adv-x="493" 
d="M183 -1q-75 18 -119 74.5t-44 136.5v132q0 79 44 136t119 75v107h129v-107q72 -19 117 -74.5t45 -126.5v-3l-148 -25v5q0 41 -21 66.5t-56 25.5q-36 0 -57.5 -25.5t-21.5 -68.5v-102q0 -43 21.5 -68.5t57.5 -25.5q35 0 56 25.5t21 66.5v5l148 -25v-3q0 -71 -45 -126.5
t-117 -74.5v-109h-129v109z" />
    <glyph glyph-name="sterling" unicode="&#xa3;" horiz-adv-x="592" 
d="M24 139h70v135h-70v140h70v106q0 71 31 125.5t86 84.5t124 30q68 0 123 -29t86 -83t31 -125v-27l-149 -15v38q0 42 -26 69.5t-65 27.5t-65 -27.5t-26 -69.5v-105h171v-140h-171v-135h331v-140h-551v140z" />
    <glyph glyph-name="currency" unicode="&#xa4;" horiz-adv-x="410" 
d="M150 637l30 -80q8 1 25 1q23 0 48 -5l31 84l87 -31l-35 -94q48 -48 48 -128v-59q0 -83 -49 -129l36 -97l-87 -31l-32 86q-20 -4 -47 -4q-16 0 -24 1l-31 -83l-87 31l31 82q-33 21 -50.5 57.5t-17.5 86.5v59q0 97 67 143l-30 79zM163 280q16 -17 42 -17t42 16.5t16 45.5
v59q0 29 -16 45t-42 16t-42 -16.5t-16 -44.5v-59q0 -28 16 -45z" />
    <glyph glyph-name="yen" unicode="&#xa5;" horiz-adv-x="557" 
d="M52 411h86l-137 339h172l108 -305l109 305h166l-139 -339h87v-100h-452v100zM52 251h452v-100h-151v-151h-150v151h-151v100z" />
    <glyph glyph-name="brokenbar" unicode="&#xa6;" horiz-adv-x="214" 
d="M182 -100h-150v453h150v-453zM32 750h150v-247h-150v247z" />
    <glyph glyph-name="section" unicode="&#xa7;" horiz-adv-x="530" 
d="M146 -86q-55 24 -87 71t-32 114v18h130v-14q0 -40 30.5 -66t82.5 -26q48 0 71 12t23 38q0 18 -8 28t-34.5 21.5t-90.5 33.5q-75 25 -117 49t-63 57t-21 85q0 42 21 74.5t61 53.5q-39 23 -56 53.5t-17 75.5q0 79 59 123.5t155 44.5q108 0 169.5 -47.5t61.5 -138.5v-22
h-130v14q0 32 -27 52.5t-81 20.5q-33 0 -55 -13.5t-22 -30.5q0 -14 8 -24t35 -22t83 -30q92 -29 136.5 -57t58 -57t13.5 -73q0 -88 -77 -136q38 -23 53 -51.5t15 -69.5q0 -98 -61.5 -141.5t-164.5 -43.5q-67 0 -122 24zM170.5 312q10.5 -14 38.5 -27.5t85 -32.5q7 -2 12 -4
t10 -3q29 8 43 25.5t14 41.5q0 23 -10 37t-39 27.5t-90 34.5l-17 6q-30 -8 -43.5 -27.5t-13.5 -43.5q0 -20 10.5 -34z" />
    <glyph glyph-name="dieresis" unicode="&#xa8;" horiz-adv-x="468" 
d="M73.5 615.5q-23.5 23.5 -23.5 59.5q0 37 23.5 60t59.5 23q37 0 60 -23t23 -60q0 -36 -23 -59.5t-60 -23.5q-36 0 -59.5 23.5zM275.5 615.5q-23.5 23.5 -23.5 59.5q0 37 23.5 60t59.5 23q37 0 60 -23t23 -60q0 -36 -23 -59.5t-60 -23.5q-36 0 -59.5 23.5z" />
    <glyph glyph-name="copyright" unicode="&#xa9;" horiz-adv-x="823" 
d="M309 160.5q-43 23.5 -67 65t-24 94.5v110q0 53 24 94.5t67 65t99 23.5q52 0 95.5 -23.5t68 -63.5t24.5 -87v-3l-123 -21v4q0 34 -17.5 55.5t-46.5 21.5q-30 0 -48 -21.5t-18 -56.5v-85q0 -36 18 -57.5t48 -21.5q29 0 46.5 21.5t17.5 55.5v4l123 -21v-2q0 -47 -24.5 -87.5
t-68 -64t-95.5 -23.5q-56 0 -99 23.5zM216 40.5q-88 50.5 -138 138.5t-50 196t50 196t138 138.5t195 50.5q108 0 196 -50.5t138 -138.5t50 -196t-50 -196t-138 -138.5t-196 -50.5q-107 0 -195 50.5zM573 98.5q71 41.5 110 114t39 162.5t-39 162.5t-110 114t-162 41.5
t-161.5 -41.5t-109.5 -113.5t-39 -163t39 -163t109.5 -113.5t161.5 -41.5t162 41.5z" />
    <glyph glyph-name="ordfeminine" unicode="&#xaa;" horiz-adv-x="370" 
d="M51 371q-31 33 -31 83v2q0 54 37 90t121 36h60v22q0 27 -12.5 42t-35.5 15q-25 0 -38.5 -15t-13.5 -42v-4l-111 19l1 7q8 58 52 97t116 39q75 0 114.5 -40.5t39.5 -113.5v-263h-97l-10 51h-4q-16 -20 -27 -31t-30 -19t-47 -8q-53 0 -84 33zM327 197h-94v-87h-95v87h-94
v89h283v-89zM143.5 444.5q11.5 -9.5 31.5 -9.5q27 0 45 14t18 37v25h-51q-25 0 -40 -9.5t-15 -27.5v-2q0 -18 11.5 -27.5z" />
    <glyph glyph-name="guillemotleft" unicode="&#xab;" horiz-adv-x="529" 
d="M2 274l115 191h165l-115 -191l115 -191h-165zM232 274l115 191h165l-115 -191l115 -191h-165z" />
    <glyph glyph-name="logicalnot" unicode="&#xac;" horiz-adv-x="502" 
d="M324 308h-296v140h446v-258h-150v118z" />
    <glyph glyph-name="uni00AD" unicode="&#xad;" horiz-adv-x="358" 
d="M330 246h-302v146h302v-146z" />
    <glyph glyph-name="registered" unicode="&#xae;" horiz-adv-x="823" 
d="M408 285h-37v-143h-114v468h155q77 0 119.5 -36.5t42.5 -120.5v-11q0 -88 -59 -129l72 -171h-123zM448.5 402q11.5 14 11.5 40v11q0 26 -11.5 40.5t-32.5 14.5h-45v-120h45q21 0 32.5 14zM216 40.5q-88 50.5 -138 138.5t-50 196t50 196t138 138.5t195 50.5
q108 0 196 -50.5t138 -138.5t50 -196t-50 -196t-138 -138.5t-196 -50.5q-107 0 -195 50.5zM573 98.5q71 41.5 110 114t39 162.5t-39 162.5t-110 114t-162 41.5t-161.5 -41.5t-109.5 -113.5t-39 -163t39 -163t109.5 -113.5t161.5 -41.5t162 41.5z" />
    <glyph glyph-name="macron" unicode="&#xaf;" horiz-adv-x="392" 
d="M50 738h292v-110h-292v110z" />
    <glyph glyph-name="degree" unicode="&#xb0;" horiz-adv-x="398" 
d="M329 711q49 -46 49 -129v-59q0 -83 -49 -128.5t-130 -45.5t-130 45.5t-49 128.5v59q0 83 49 129t130 46t130 -46zM241 627q-16 17 -42 17t-42 -16.5t-16 -45.5v-59q0 -29 16 -45t42 -16t42 16.5t16 44.5v59q0 28 -16 45z" />
    <glyph glyph-name="plusminus" unicode="&#xb1;" horiz-adv-x="478" 
d="M450 382h-136v-114h-150v114h-136v146h136v114h150v-114h136v-146zM450 92h-422v146h422v-146z" />
    <glyph glyph-name="uni00B2" unicode="&#xb2;" horiz-adv-x="434" 
d="M44.5 574q5.5 21 34 50t95.5 71q65 40 84 63t19 46v2q0 21 -14.5 35t-42.5 14q-30 0 -46.5 -16.5t-16.5 -50.5v-25l-113 15v20q0 75 47 116.5t124 41.5q78 0 127 -40.5t49 -108.5v-2q0 -49 -28 -93t-115 -97q-59 -37 -74 -56h220v-105h-355v61q0 38 5.5 59z" />
    <glyph glyph-name="uni00B3" unicode="&#xb3;" horiz-adv-x="425" 
d="M72 489.5q-49 42.5 -49 116.5v4l108 15v-14q0 -29 20.5 -47t57.5 -18q35 0 54.5 15.5t19.5 44.5v5q0 56 -70 56h-71v92l81 90h-178v101h315v-89l-98 -103q60 -7 97.5 -47t37.5 -105v-2q0 -74 -49 -115.5t-138 -41.5t-138 42.5z" />
    <glyph glyph-name="acute" unicode="&#xb4;" horiz-adv-x="287" 
d="M70 750h167l-116 -135h-71z" />
    <glyph glyph-name="uni00B5" unicode="&#xb5;" horiz-adv-x="502" 
d="M30 550h150v-325q0 -89 70 -89q37 0 58 26t21 76v312h150v-550h-130l-15 79h-4q-24 -48 -55.5 -68.5t-86.5 -20.5h-8v-170h-150v730z" />
    <glyph glyph-name="paragraph" unicode="&#xb6;" horiz-adv-x="669" 
d="M233 0v389q-85 1 -136.5 40.5t-51.5 126.5v20q0 89 46.5 131.5t144.5 42.5h82v-750h-85zM619 663h-88v-663h-95v663h-88v87h271v-87z" />
    <glyph glyph-name="periodcentered" unicode="&#xb7;" horiz-adv-x="236" 
d="M53 239q-25 25 -25 65t25 65t65 25t65 -25t25 -65t-25 -65t-65 -25t-65 25z" />
    <glyph glyph-name="cedilla" unicode="&#xb8;" horiz-adv-x="287" 
d="M217 -195h-167l116 135h71z" />
    <glyph glyph-name="uni00B9" unicode="&#xb9;" horiz-adv-x="431" 
d="M201 840h-97v110h216v-496h-119v386z" />
    <glyph glyph-name="ordmasculine" unicode="&#xba;" horiz-adv-x="382" 
d="M104 358.5q-39 21.5 -61.5 59.5t-22.5 85v91q0 48 22.5 86t61.5 59.5t87 21.5t87.5 -21.5t61.5 -59.5t22 -86v-91q0 -47 -22.5 -85t-61.5 -59.5t-87 -21.5t-87 21.5zM147.5 460q16.5 -19 43.5 -19q26 0 42.5 19t16.5 51v76q0 32 -16.5 51t-42.5 19q-27 0 -43.5 -19
t-16.5 -51v-76q0 -32 16.5 -51zM333 197h-94v-87h-95v87h-94v89h283v-89z" />
    <glyph glyph-name="guillemotright" unicode="&#xbb;" horiz-adv-x="529" 
d="M527 274l-115 -191h-165l115 191l-115 191h165zM297 274l-115 -191h-165l115 191l-115 191h165z" />
    <glyph glyph-name="onequarter" unicode="&#xbc;" horiz-adv-x="860" 
d="M181 651h-87v99h194v-446h-107v347zM369 0h-124l254 750h124zM703 77h-196v86l83 283h104l-76 -278h85v95h97v-95h48v-91h-48v-77h-97v77z" />
    <glyph glyph-name="onehalf" unicode="&#xbd;" horiz-adv-x="887" 
d="M181 651h-87v99h194v-446h-107v347zM369 0h-124l254 750h124zM536 107.5q5 18.5 31 45t86 64.5q58 36 75 56.5t17 41.5v1q0 20 -13 32.5t-38 12.5q-27 0 -42 -15t-15 -46v-22l-101 13v18q0 68 42 105t112 37t114 -36.5t44 -97.5v-1q0 -45 -25.5 -84t-103.5 -87
q-50 -33 -66 -51h198v-94h-320v55q0 34 5 52.5z" />
    <glyph glyph-name="threequarters" unicode="&#xbe;" horiz-adv-x="882" 
d="M65 335q-44 38 -44 105v4l97 14v-13q0 -26 18.5 -42.5t51.5 -16.5q32 0 49.5 14t17.5 40v5q0 24 -16 37t-47 13h-64v83l73 81h-160v91h283v-80l-88 -93q54 -6 87.5 -42t33.5 -95v-1q0 -67 -44 -104.5t-124 -37.5t-124 38zM391 0h-124l254 750h124zM725 77h-196v86l83 283
h104l-76 -278h85v95h97v-95h48v-91h-48v-77h-97v77z" />
    <glyph glyph-name="questiondown" unicode="&#xbf;" horiz-adv-x="509" 
d="M140 -164q-54 29 -84.5 83.5t-30.5 129.5q0 92 46 152.5t124 78.5v55h150v-187h-71q-48 0 -73.5 -25.5t-25.5 -73.5q0 -51 24 -76.5t65 -25.5q42 0 65.5 25.5t23.5 76.5v19l150 -15v-17q0 -69 -30.5 -121t-85 -80t-123.5 -28q-70 0 -124 29zM202 538q25 25 65 25t65 -25
t25 -65t-25 -65t-65 -25t-65 25t-25 65t25 65z" />
    <glyph glyph-name="Agrave" unicode="&#xc0;" horiz-adv-x="565" 
d="M186 750h193l186 -750h-177l-20 101h-182l-20 -101h-166zM345 221l-67 340l-68 -340h135zM263 815l-116 135h167l20 -135h-71z" />
    <glyph glyph-name="Aacute" unicode="&#xc1;" horiz-adv-x="565" 
d="M186 750h193l186 -750h-177l-20 101h-182l-20 -101h-166zM345 221l-67 340l-68 -340h135zM236 950h167l-116 -135h-71z" />
    <glyph glyph-name="Acircumflex" unicode="&#xc2;" horiz-adv-x="565" 
d="M186 750h193l186 -750h-177l-20 101h-182l-20 -101h-166zM345 221l-67 340l-68 -340h135zM440 815h-102l-58 64l-58 -64h-102l91 135h138z" />
    <glyph glyph-name="Atilde" unicode="&#xc3;" horiz-adv-x="565" 
d="M186 750h193l186 -750h-177l-20 101h-182l-20 -101h-166zM345 221l-67 340l-68 -340h135zM313 823.5q-24 7.5 -51 19.5q-31 14 -42 14q-12 0 -17.5 -7.5t-5.5 -30.5h-85q-1 9 -1 26q0 58 21.5 83t65.5 25q25 0 49 -7.5t51 -19.5q32 -14 42 -14q12 0 17.5 7.5t5.5 30.5h85
q1 -9 1 -26q0 -58 -21.5 -83t-65.5 -25q-25 0 -49 7.5z" />
    <glyph glyph-name="Adieresis" unicode="&#xc4;" horiz-adv-x="565" 
d="M186 750h193l186 -750h-177l-20 101h-182l-20 -101h-166zM345 221l-67 340l-68 -340h135zM118.5 815.5q-23.5 23.5 -23.5 59.5q0 37 23.5 60t59.5 23q37 0 60 -23t23 -60q0 -36 -23 -59.5t-60 -23.5q-36 0 -59.5 23.5zM320.5 815.5q-23.5 23.5 -23.5 59.5q0 37 23.5 60
t59.5 23q37 0 60 -23t23 -60q0 -36 -23 -59.5t-60 -23.5q-36 0 -59.5 23.5z" />
    <glyph glyph-name="Aring" unicode="&#xc5;" horiz-adv-x="565" 
d="M186 750h193l186 -750h-177l-20 101h-182l-20 -101h-166zM345 221l-67 340l-68 -340h135zM206.5 831q-29.5 28 -29.5 70t29.5 70.5t73.5 28.5t73.5 -28.5t29.5 -70.5t-29.5 -70t-73.5 -28t-73.5 28zM307 873q11 11 11 28t-11 28.5t-27 11.5t-27 -11.5t-11 -28.5t11 -28
t27 -11t27 11z" />
    <glyph glyph-name="AE" unicode="&#xc6;" horiz-adv-x="843" 
d="M308 750h511v-140h-280v-157h210v-138h-210v-175h282v-140h-432v121h-172l-45 -121h-172zM389 241v339l-127 -339h127z" />
    <glyph glyph-name="Ccedilla" unicode="&#xc7;" horiz-adv-x="565" 
d="M150.5 20.5q-59.5 30.5 -92.5 87.5t-33 135v264q0 78 33 135t92.5 87.5t135.5 30.5q75 0 133.5 -30.5t91 -87.5t32.5 -135v-36l-148 -16l-2 42q-3 59 -30 91t-76 32q-52 0 -82 -32.5t-30 -87.5v-250q0 -55 30 -87.5t82 -32.5q49 0 76 32t30 91l2 42l148 -16v-36
q0 -78 -32.5 -135t-91 -87.5t-133.5 -30.5q-76 0 -135.5 30.5zM315 -195h-167l116 135h71z" />
    <glyph glyph-name="Egrave" unicode="&#xc8;" horiz-adv-x="486" 
d="M32 750h430v-140h-280v-157h210v-138h-210v-175h282v-140h-432v750zM232 815l-116 135h167l20 -135h-71z" />
    <glyph glyph-name="Eacute" unicode="&#xc9;" horiz-adv-x="486" 
d="M32 750h430v-140h-280v-157h210v-138h-210v-175h282v-140h-432v750zM205 950h167l-116 -135h-71z" />
    <glyph glyph-name="Ecircumflex" unicode="&#xca;" horiz-adv-x="486" 
d="M32 750h430v-140h-280v-157h210v-138h-210v-175h282v-140h-432v750zM409 815h-102l-58 64l-58 -64h-102l91 135h138z" />
    <glyph glyph-name="Edieresis" unicode="&#xcb;" horiz-adv-x="486" 
d="M32 750h430v-140h-280v-157h210v-138h-210v-175h282v-140h-432v750zM87.5 815.5q-23.5 23.5 -23.5 59.5q0 37 23.5 60t59.5 23q37 0 60 -23t23 -60q0 -36 -23 -59.5t-60 -23.5q-36 0 -59.5 23.5zM289.5 815.5q-23.5 23.5 -23.5 59.5q0 37 23.5 60t59.5 23q37 0 60 -23
t23 -60q0 -36 -23 -59.5t-60 -23.5q-36 0 -59.5 23.5z" />
    <glyph glyph-name="Igrave" unicode="&#xcc;" horiz-adv-x="214" 
d="M32 750h150v-750h-150v750zM90 815l-116 135h167l20 -135h-71z" />
    <glyph glyph-name="Iacute" unicode="&#xcd;" horiz-adv-x="214" 
d="M32 750h150v-750h-150v750zM63 950h167l-116 -135h-71z" />
    <glyph glyph-name="Icircumflex" unicode="&#xce;" horiz-adv-x="214" 
d="M32 750h150v-750h-150v750zM267 815h-102l-58 64l-58 -64h-102l91 135h138z" />
    <glyph glyph-name="Idieresis" unicode="&#xcf;" horiz-adv-x="214" 
d="M32 750h150v-750h-150v750zM-54.5 815.5q-23.5 23.5 -23.5 59.5q0 37 23.5 60t59.5 23q37 0 60 -23t23 -60q0 -36 -23 -59.5t-60 -23.5q-36 0 -59.5 23.5zM147.5 815.5q-23.5 23.5 -23.5 59.5q0 37 23.5 60t59.5 23q37 0 60 -23t23 -60q0 -36 -23 -59.5t-60 -23.5
q-36 0 -59.5 23.5z" />
    <glyph glyph-name="Eth" unicode="&#xd0;" horiz-adv-x="579" 
d="M52 320h-52v110h52v320h243q76 0 134.5 -31t91.5 -89t33 -137v-236q0 -79 -33 -137t-91.5 -89t-134.5 -31h-243v320zM374 172q30 32 30 85v236q0 53 -30 85t-79 32h-93v-180h90v-110h-90v-180h93q49 0 79 32z" />
    <glyph glyph-name="Ntilde" unicode="&#xd1;" horiz-adv-x="588" 
d="M32 750h148l230 -437v437h146v-750h-148l-230 437v-437h-146v750zM327 823.5q-24 7.5 -51 19.5q-31 14 -42 14q-12 0 -17.5 -7.5t-5.5 -30.5h-85q-1 9 -1 26q0 58 21.5 83t65.5 25q25 0 49 -7.5t51 -19.5q32 -14 42 -14q12 0 17.5 7.5t5.5 30.5h85q1 -9 1 -26
q0 -58 -21.5 -83t-65.5 -25q-25 0 -49 7.5z" />
    <glyph glyph-name="Ograve" unicode="&#xd2;" 
d="M149.5 21q-58.5 31 -91.5 89t-33 137v256q0 79 33 137t91.5 89t134.5 31t134.5 -31t91.5 -89t33 -137v-256q0 -79 -33 -137t-91.5 -89t-134.5 -31t-134.5 31zM363 162q30 32 30 85v256q0 53 -30 85t-79 32t-79 -32t-30 -85v-256q0 -53 30 -85t79 -32t79 32zM267 815
l-116 135h167l20 -135h-71z" />
    <glyph glyph-name="Oacute" unicode="&#xd3;" 
d="M149.5 21q-58.5 31 -91.5 89t-33 137v256q0 79 33 137t91.5 89t134.5 31t134.5 -31t91.5 -89t33 -137v-256q0 -79 -33 -137t-91.5 -89t-134.5 -31t-134.5 31zM363 162q30 32 30 85v256q0 53 -30 85t-79 32t-79 -32t-30 -85v-256q0 -53 30 -85t79 -32t79 32zM240 950h167
l-116 -135h-71z" />
    <glyph glyph-name="Ocircumflex" unicode="&#xd4;" 
d="M149.5 21q-58.5 31 -91.5 89t-33 137v256q0 79 33 137t91.5 89t134.5 31t134.5 -31t91.5 -89t33 -137v-256q0 -79 -33 -137t-91.5 -89t-134.5 -31t-134.5 31zM363 162q30 32 30 85v256q0 53 -30 85t-79 32t-79 -32t-30 -85v-256q0 -53 30 -85t79 -32t79 32zM444 815h-102
l-58 64l-58 -64h-102l91 135h138z" />
    <glyph glyph-name="Otilde" unicode="&#xd5;" 
d="M149.5 21q-58.5 31 -91.5 89t-33 137v256q0 79 33 137t91.5 89t134.5 31t134.5 -31t91.5 -89t33 -137v-256q0 -79 -33 -137t-91.5 -89t-134.5 -31t-134.5 31zM363 162q30 32 30 85v256q0 53 -30 85t-79 32t-79 -32t-30 -85v-256q0 -53 30 -85t79 -32t79 32zM317 823.5
q-24 7.5 -51 19.5q-31 14 -42 14q-12 0 -17.5 -7.5t-5.5 -30.5h-85q-1 9 -1 26q0 58 21.5 83t65.5 25q25 0 49 -7.5t51 -19.5q32 -14 42 -14q12 0 17.5 7.5t5.5 30.5h85q1 -9 1 -26q0 -58 -21.5 -83t-65.5 -25q-25 0 -49 7.5z" />
    <glyph glyph-name="Odieresis" unicode="&#xd6;" 
d="M149.5 21q-58.5 31 -91.5 89t-33 137v256q0 79 33 137t91.5 89t134.5 31t134.5 -31t91.5 -89t33 -137v-256q0 -79 -33 -137t-91.5 -89t-134.5 -31t-134.5 31zM363 162q30 32 30 85v256q0 53 -30 85t-79 32t-79 -32t-30 -85v-256q0 -53 30 -85t79 -32t79 32zM122.5 815.5
q-23.5 23.5 -23.5 59.5q0 37 23.5 60t59.5 23q37 0 60 -23t23 -60q0 -36 -23 -59.5t-60 -23.5q-36 0 -59.5 23.5zM324.5 815.5q-23.5 23.5 -23.5 59.5q0 37 23.5 60t59.5 23q37 0 60 -23t23 -60q0 -36 -23 -59.5t-60 -23.5q-36 0 -59.5 23.5z" />
    <glyph glyph-name="multiply" unicode="&#xd7;" horiz-adv-x="485" 
d="M354 174l-111 112l-112 -112l-103 103l112 112l-112 111l103 103l112 -111l111 111l103 -103l-111 -111l111 -112z" />
    <glyph glyph-name="Oslash" unicode="&#xd8;" 
d="M86 71q-61 67 -61 176v256q0 79 33 137t91.5 89t134.5 31q69 0 122 -25l20 37h109l-50 -95q58 -69 58 -174v-256q0 -79 -33 -137t-91.5 -89t-134.5 -31q-66 0 -118 23l-23 -39h-109zM363 162q30 32 30 85v242l-162 -347q23 -12 53 -12q49 0 79 32zM339 607q-26 13 -55 13
q-49 0 -79 -32t-30 -85v-247z" />
    <glyph glyph-name="Ugrave" unicode="&#xd9;" horiz-adv-x="574" 
d="M152.5 21q-58.5 31 -91.5 89t-33 137v503h150v-503q0 -53 30 -85t79 -32t79 32t30 85v503h150v-503q0 -79 -33 -137t-91.5 -89t-134.5 -31t-134.5 31zM270 815l-116 135h167l20 -135h-71z" />
    <glyph glyph-name="Uacute" unicode="&#xda;" horiz-adv-x="574" 
d="M152.5 21q-58.5 31 -91.5 89t-33 137v503h150v-503q0 -53 30 -85t79 -32t79 32t30 85v503h150v-503q0 -79 -33 -137t-91.5 -89t-134.5 -31t-134.5 31zM243 950h167l-116 -135h-71z" />
    <glyph glyph-name="Ucircumflex" unicode="&#xdb;" horiz-adv-x="574" 
d="M152.5 21q-58.5 31 -91.5 89t-33 137v503h150v-503q0 -53 30 -85t79 -32t79 32t30 85v503h150v-503q0 -79 -33 -137t-91.5 -89t-134.5 -31t-134.5 31zM447 815h-102l-58 64l-58 -64h-102l91 135h138z" />
    <glyph glyph-name="Udieresis" unicode="&#xdc;" horiz-adv-x="574" 
d="M152.5 21q-58.5 31 -91.5 89t-33 137v503h150v-503q0 -53 30 -85t79 -32t79 32t30 85v503h150v-503q0 -79 -33 -137t-91.5 -89t-134.5 -31t-134.5 31zM125.5 815.5q-23.5 23.5 -23.5 59.5q0 37 23.5 60t59.5 23q37 0 60 -23t23 -60q0 -36 -23 -59.5t-60 -23.5
q-36 0 -59.5 23.5zM327.5 815.5q-23.5 23.5 -23.5 59.5q0 37 23.5 60t59.5 23q37 0 60 -23t23 -60q0 -36 -23 -59.5t-60 -23.5q-36 0 -59.5 23.5z" />
    <glyph glyph-name="Yacute" unicode="&#xdd;" horiz-adv-x="547" 
d="M198 253l-202 497h172l108 -305l109 305h166l-203 -497v-253h-150v253zM229 950h167l-116 -135h-71z" />
    <glyph glyph-name="Thorn" unicode="&#xde;" horiz-adv-x="553" 
d="M32 750h150v-100h99q259 0 259 -255v-18q0 -85 -34.5 -142.5t-93 -85t-131.5 -27.5h-99v-122h-150v750zM361 293.5q28 31.5 28 83.5v18q0 53 -28 84t-77 31h-102v-248h102q49 0 77 31.5z" />
    <glyph glyph-name="germandbls" unicode="&#xdf;" horiz-adv-x="549" 
d="M350.5 145.5q26.5 15.5 26.5 49.5v2q0 26 -13.5 43.5t-40.5 39.5q-29 25 -43 43.5t-14 47.5t12.5 48.5t37.5 43.5q24 25 35 41.5t11 40.5v4q0 33 -24.5 54.5t-63.5 21.5q-45 0 -69.5 -28.5t-24.5 -74.5v-522h-150v528q0 108 67 170t180 62q63 0 114.5 -23t81.5 -64.5
t30 -94.5v-8q0 -40 -18.5 -66.5t-52.5 -55.5q-19 -15 -28 -25.5t-9 -21.5q0 -10 8.5 -19t27.5 -22q28 -21 47.5 -40.5t34 -52t14.5 -78.5v-8q0 -92 -67.5 -141.5t-190.5 -49.5v140q55 0 81.5 15.5z" />
    <glyph glyph-name="agrave" unicode="&#xe0;" horiz-adv-x="486" 
d="M58 39q-42 44 -42 111v3q0 70 50 117.5t162 47.5h81v30q0 37 -16.5 57t-47.5 20q-34 0 -52.5 -20t-18.5 -57v-5l-148 25q0 51 25 94.5t76.5 70.5t125.5 27q100 0 153 -54.5t53 -151.5v-354h-130l-13 69h-5q-32 -37 -61 -55.5t-79 -18.5q-71 0 -113 44zM232 126
q34 0 55.5 17t21.5 47v33h-73q-34 0 -51.5 -12t-17.5 -35v-2q0 -48 65 -48zM226 615l-116 135h167l20 -135h-71z" />
    <glyph glyph-name="aacute" unicode="&#xe1;" horiz-adv-x="486" 
d="M58 39q-42 44 -42 111v3q0 70 50 117.5t162 47.5h81v30q0 37 -16.5 57t-47.5 20q-34 0 -52.5 -20t-18.5 -57v-5l-148 25q0 51 25 94.5t76.5 70.5t125.5 27q100 0 153 -54.5t53 -151.5v-354h-130l-13 69h-5q-32 -37 -61 -55.5t-79 -18.5q-71 0 -113 44zM232 126
q34 0 55.5 17t21.5 47v33h-73q-34 0 -51.5 -12t-17.5 -35v-2q0 -48 65 -48zM199 750h167l-116 -135h-71z" />
    <glyph glyph-name="acircumflex" unicode="&#xe2;" horiz-adv-x="486" 
d="M58 39q-42 44 -42 111v3q0 70 50 117.5t162 47.5h81v30q0 37 -16.5 57t-47.5 20q-34 0 -52.5 -20t-18.5 -57v-5l-148 25q0 51 25 94.5t76.5 70.5t125.5 27q100 0 153 -54.5t53 -151.5v-354h-130l-13 69h-5q-32 -37 -61 -55.5t-79 -18.5q-71 0 -113 44zM232 126
q34 0 55.5 17t21.5 47v33h-73q-34 0 -51.5 -12t-17.5 -35v-2q0 -48 65 -48zM403 615h-102l-58 64l-58 -64h-102l91 135h138z" />
    <glyph glyph-name="atilde" unicode="&#xe3;" horiz-adv-x="486" 
d="M58 39q-42 44 -42 111v3q0 70 50 117.5t162 47.5h81v30q0 37 -16.5 57t-47.5 20q-34 0 -52.5 -20t-18.5 -57v-5l-148 25q0 51 25 94.5t76.5 70.5t125.5 27q100 0 153 -54.5t53 -151.5v-354h-130l-13 69h-5q-32 -37 -61 -55.5t-79 -18.5q-71 0 -113 44zM232 126
q34 0 55.5 17t21.5 47v33h-73q-34 0 -51.5 -12t-17.5 -35v-2q0 -48 65 -48zM276 623.5q-24 7.5 -51 19.5q-31 14 -42 14q-12 0 -17.5 -7.5t-5.5 -30.5h-85q-1 9 -1 26q0 58 21.5 83t65.5 25q25 0 49 -7.5t51 -19.5q32 -14 42 -14q12 0 17.5 7.5t5.5 30.5h85q1 -9 1 -26
q0 -58 -21.5 -83t-65.5 -25q-25 0 -49 7.5z" />
    <glyph glyph-name="adieresis" unicode="&#xe4;" horiz-adv-x="486" 
d="M58 39q-42 44 -42 111v3q0 70 50 117.5t162 47.5h81v30q0 37 -16.5 57t-47.5 20q-34 0 -52.5 -20t-18.5 -57v-5l-148 25q0 51 25 94.5t76.5 70.5t125.5 27q100 0 153 -54.5t53 -151.5v-354h-130l-13 69h-5q-32 -37 -61 -55.5t-79 -18.5q-71 0 -113 44zM232 126
q34 0 55.5 17t21.5 47v33h-73q-34 0 -51.5 -12t-17.5 -35v-2q0 -48 65 -48zM81.5 615.5q-23.5 23.5 -23.5 59.5q0 37 23.5 60t59.5 23q37 0 60 -23t23 -60q0 -36 -23 -59.5t-60 -23.5q-36 0 -59.5 23.5zM283.5 615.5q-23.5 23.5 -23.5 59.5q0 37 23.5 60t59.5 23
q37 0 60 -23t23 -60q0 -36 -23 -59.5t-60 -23.5q-36 0 -59.5 23.5z" />
    <glyph glyph-name="aring" unicode="&#xe5;" horiz-adv-x="486" 
d="M58 39q-42 44 -42 111v3q0 70 50 117.5t162 47.5h81v30q0 37 -16.5 57t-47.5 20q-34 0 -52.5 -20t-18.5 -57v-5l-148 25q0 51 25 94.5t76.5 70.5t125.5 27q100 0 153 -54.5t53 -151.5v-354h-130l-13 69h-5q-32 -37 -61 -55.5t-79 -18.5q-71 0 -113 44zM232 126
q34 0 55.5 17t21.5 47v33h-73q-34 0 -51.5 -12t-17.5 -35v-2q0 -48 65 -48zM169.5 631q-29.5 28 -29.5 70t29.5 70.5t73.5 28.5t73.5 -28.5t29.5 -70.5t-29.5 -70t-73.5 -28t-73.5 28zM270 673q11 11 11 28t-11 28.5t-27 11.5t-27 -11.5t-11 -28.5t11 -28t27 -11t27 11z" />
    <glyph glyph-name="ae" unicode="&#xe6;" horiz-adv-x="789" 
d="M61 39.5q-45 44.5 -45 111.5v3q0 70 49.5 117t162.5 47h81v30q0 37 -16.5 57t-47.5 20q-34 0 -52.5 -20t-18.5 -57v-5l-148 25l1 9q6 50 34 91.5t76 66.5t112 25q89 0 145 -47q61 47 145 47q65 0 117.5 -29t82.5 -80t30 -115v-87h-310v-49q0 -36 23 -58t61 -22
q34 0 55 22.5t21 57.5v3l146 -11l-1 -20q-2 -51 -31 -92.5t-78 -65.5t-112 -24q-59 0 -99 20.5t-76 61.5q-28 -28 -50.5 -43.5t-53.5 -24.5t-76 -9q-82 0 -127 44.5zM619 334v1q0 43 -22 68.5t-58 25.5t-58 -25.5t-22 -68.5v-1h160zM182.5 138q15.5 -12 42.5 -12
q36 0 60 17.5t24 46.5v33h-72q-33 0 -51.5 -12.5t-18.5 -34.5v-2q0 -24 15.5 -36z" />
    <glyph glyph-name="ccedilla" unicode="&#xe7;" horiz-adv-x="493" 
d="M129.5 19q-51.5 28 -80.5 77.5t-29 113.5v132q0 63 29 113t80.5 78t118.5 28q63 0 115 -28t81.5 -76t29.5 -105v-3l-148 -25v5q0 41 -21 66.5t-56 25.5q-36 0 -57.5 -25.5t-21.5 -68.5v-102q0 -43 21.5 -68.5t57.5 -25.5q35 0 56 25.5t21 66.5v5l148 -25v-3
q0 -57 -29.5 -105t-81.5 -76t-115 -28q-67 0 -118.5 28zM278 -195h-167l116 135h71z" />
    <glyph glyph-name="egrave" unicode="&#xe8;" horiz-adv-x="500" 
d="M132 16.5q-53 26.5 -82.5 74t-29.5 107.5v138q0 64 30 115t82.5 80t117.5 29t117.5 -29t82.5 -80t30 -115v-87h-310v-49q0 -36 23 -58t61 -22q34 0 55 22.5t21 57.5v3l146 -11l-1 -20q-2 -51 -31 -92.5t-78 -65.5t-112 -24q-69 0 -122 26.5zM330 334v1q0 43 -22 68.5
t-58 25.5t-58 -25.5t-22 -68.5v-1h160zM233 615l-116 135h167l20 -135h-71z" />
    <glyph glyph-name="eacute" unicode="&#xe9;" horiz-adv-x="500" 
d="M132 16.5q-53 26.5 -82.5 74t-29.5 107.5v138q0 64 30 115t82.5 80t117.5 29t117.5 -29t82.5 -80t30 -115v-87h-310v-49q0 -36 23 -58t61 -22q34 0 55 22.5t21 57.5v3l146 -11l-1 -20q-2 -51 -31 -92.5t-78 -65.5t-112 -24q-69 0 -122 26.5zM330 334v1q0 43 -22 68.5
t-58 25.5t-58 -25.5t-22 -68.5v-1h160zM206 750h167l-116 -135h-71z" />
    <glyph glyph-name="ecircumflex" unicode="&#xea;" horiz-adv-x="500" 
d="M132 16.5q-53 26.5 -82.5 74t-29.5 107.5v138q0 64 30 115t82.5 80t117.5 29t117.5 -29t82.5 -80t30 -115v-87h-310v-49q0 -36 23 -58t61 -22q34 0 55 22.5t21 57.5v3l146 -11l-1 -20q-2 -51 -31 -92.5t-78 -65.5t-112 -24q-69 0 -122 26.5zM330 334v1q0 43 -22 68.5
t-58 25.5t-58 -25.5t-22 -68.5v-1h160zM410 615h-102l-58 64l-58 -64h-102l91 135h138z" />
    <glyph glyph-name="edieresis" unicode="&#xeb;" horiz-adv-x="500" 
d="M132 16.5q-53 26.5 -82.5 74t-29.5 107.5v138q0 64 30 115t82.5 80t117.5 29t117.5 -29t82.5 -80t30 -115v-87h-310v-49q0 -36 23 -58t61 -22q34 0 55 22.5t21 57.5v3l146 -11l-1 -20q-2 -51 -31 -92.5t-78 -65.5t-112 -24q-69 0 -122 26.5zM330 334v1q0 43 -22 68.5
t-58 25.5t-58 -25.5t-22 -68.5v-1h160zM88.5 615.5q-23.5 23.5 -23.5 59.5q0 37 23.5 60t59.5 23q37 0 60 -23t23 -60q0 -36 -23 -59.5t-60 -23.5q-36 0 -59.5 23.5zM290.5 615.5q-23.5 23.5 -23.5 59.5q0 37 23.5 60t59.5 23q37 0 60 -23t23 -60q0 -36 -23 -59.5t-60 -23.5
q-36 0 -59.5 23.5z" />
    <glyph glyph-name="igrave" unicode="&#xec;" horiz-adv-x="210" 
d="M180 0h-150v550h150v-550zM88 615l-116 135h167l20 -135h-71z" />
    <glyph glyph-name="iacute" unicode="&#xed;" horiz-adv-x="210" 
d="M180 0h-150v550h150v-550zM61 750h167l-116 -135h-71z" />
    <glyph glyph-name="icircumflex" unicode="&#xee;" horiz-adv-x="210" 
d="M180 0h-150v550h150v-550zM36 750h138l61 -135h-92l-38 62l-38 -62h-92z" />
    <glyph glyph-name="idieresis" unicode="&#xef;" horiz-adv-x="210" 
d="M180 0h-150v550h150v-550zM134.5 621q-21.5 21 -21.5 55t21.5 55t54.5 21q34 0 55 -21t21 -55t-21 -55t-55 -21q-33 0 -54.5 21zM-34.5 621q-21.5 21 -21.5 55t21.5 55t54.5 21q34 0 55 -21t21 -55t-21 -55t-55 -21q-33 0 -54.5 21z" />
    <glyph glyph-name="eth" unicode="&#xf0;" horiz-adv-x="500" 
d="M132.5 19q-52.5 29 -82.5 80t-30 115v72q0 64 28.5 115t78 80t109.5 29q57 0 94 -37q-16 59 -53 121l-126 -48l-27 65l110 43q-41 51 -95 96h170q29 -25 48 -49l91 35l27 -65l-74 -29q47 -75 63 -158t16 -188v-72q0 -69 -30 -122t-82.5 -82.5t-117.5 -29.5t-117.5 29z
M308 155.5q22 25.5 22 68.5v52q0 43 -22 68.5t-58 25.5t-58 -25.5t-22 -68.5v-52q0 -43 22 -68.5t58 -25.5t58 25.5z" />
    <glyph glyph-name="ntilde" unicode="&#xf1;" horiz-adv-x="511" 
d="M262 414q-39 0 -60.5 -26t-21.5 -76v-312h-150v550h143v-79h5q24 49 56 69t90 20q82 0 121 -50.5t39 -148.5v-361h-150v325q0 89 -72 89zM289 623.5q-24 7.5 -51 19.5q-31 14 -42 14q-12 0 -17.5 -7.5t-5.5 -30.5h-85q-1 9 -1 26q0 58 21.5 83t65.5 25q25 0 49 -7.5
t51 -19.5q32 -14 42 -14q12 0 17.5 7.5t5.5 30.5h85q1 -9 1 -26q0 -58 -21.5 -83t-65.5 -25q-25 0 -49 7.5z" />
    <glyph glyph-name="ograve" unicode="&#xf2;" horiz-adv-x="500" 
d="M132.5 19q-52.5 29 -82.5 80t-30 115v122q0 64 30 115t82.5 80t117.5 29t117.5 -29t82.5 -80t30 -115v-122q0 -64 -30 -115t-82.5 -80t-117.5 -29t-117.5 29zM192 155.5q22 -25.5 58 -25.5t58 25.5t22 68.5v102q0 43 -22 68.5t-58 25.5t-58 -25.5t-22 -68.5v-102
q0 -43 22 -68.5zM233 615l-116 135h167l20 -135h-71z" />
    <glyph glyph-name="oacute" unicode="&#xf3;" horiz-adv-x="500" 
d="M132.5 19q-52.5 29 -82.5 80t-30 115v122q0 64 30 115t82.5 80t117.5 29t117.5 -29t82.5 -80t30 -115v-122q0 -64 -30 -115t-82.5 -80t-117.5 -29t-117.5 29zM192 155.5q22 -25.5 58 -25.5t58 25.5t22 68.5v102q0 43 -22 68.5t-58 25.5t-58 -25.5t-22 -68.5v-102
q0 -43 22 -68.5zM206 750h167l-116 -135h-71z" />
    <glyph glyph-name="ocircumflex" unicode="&#xf4;" horiz-adv-x="500" 
d="M132.5 19q-52.5 29 -82.5 80t-30 115v122q0 64 30 115t82.5 80t117.5 29t117.5 -29t82.5 -80t30 -115v-122q0 -64 -30 -115t-82.5 -80t-117.5 -29t-117.5 29zM192 155.5q22 -25.5 58 -25.5t58 25.5t22 68.5v102q0 43 -22 68.5t-58 25.5t-58 -25.5t-22 -68.5v-102
q0 -43 22 -68.5zM410 615h-102l-58 64l-58 -64h-102l91 135h138z" />
    <glyph glyph-name="otilde" unicode="&#xf5;" horiz-adv-x="500" 
d="M132.5 19q-52.5 29 -82.5 80t-30 115v122q0 64 30 115t82.5 80t117.5 29t117.5 -29t82.5 -80t30 -115v-122q0 -64 -30 -115t-82.5 -80t-117.5 -29t-117.5 29zM192 155.5q22 -25.5 58 -25.5t58 25.5t22 68.5v102q0 43 -22 68.5t-58 25.5t-58 -25.5t-22 -68.5v-102
q0 -43 22 -68.5zM283 623.5q-24 7.5 -51 19.5q-31 14 -42 14q-12 0 -17.5 -7.5t-5.5 -30.5h-85q-1 9 -1 26q0 58 21.5 83t65.5 25q25 0 49 -7.5t51 -19.5q32 -14 42 -14q12 0 17.5 7.5t5.5 30.5h85q1 -9 1 -26q0 -58 -21.5 -83t-65.5 -25q-25 0 -49 7.5z" />
    <glyph glyph-name="odieresis" unicode="&#xf6;" horiz-adv-x="500" 
d="M132.5 19q-52.5 29 -82.5 80t-30 115v122q0 64 30 115t82.5 80t117.5 29t117.5 -29t82.5 -80t30 -115v-122q0 -64 -30 -115t-82.5 -80t-117.5 -29t-117.5 29zM192 155.5q22 -25.5 58 -25.5t58 25.5t22 68.5v102q0 43 -22 68.5t-58 25.5t-58 -25.5t-22 -68.5v-102
q0 -43 22 -68.5zM88.5 615.5q-23.5 23.5 -23.5 59.5q0 37 23.5 60t59.5 23q37 0 60 -23t23 -60q0 -36 -23 -59.5t-60 -23.5q-36 0 -59.5 23.5zM290.5 615.5q-23.5 23.5 -23.5 59.5q0 37 23.5 60t59.5 23q37 0 60 -23t23 -60q0 -36 -23 -59.5t-60 -23.5q-36 0 -59.5 23.5z
" />
    <glyph glyph-name="divide" unicode="&#xf7;" horiz-adv-x="458" 
d="M430 302h-402v146h402v-146zM164 499q-25 25 -25 65t25 65t65 25t65 -25t25 -65t-25 -65t-65 -25t-65 25zM164 121q-25 25 -25 65t25 65t65 25t65 -25t25 -65t-25 -65t-65 -25t-65 25z" />
    <glyph glyph-name="oslash" unicode="&#xf8;" horiz-adv-x="500" 
d="M170 3l-16 -29h-109l42 78q-32 31 -49.5 72t-17.5 90v122q0 64 30 115t82.5 80t117.5 29q40 0 81 -13l16 29h109l-41 -80q31 -30 48 -71t17 -89v-122q0 -64 -30 -115t-82.5 -80t-117.5 -29q-44 0 -80 13zM308 155.5q22 25.5 22 68.5v102q0 43 -22 68.5t-58 25.5
t-58 -25.5t-22 -68.5v-102q0 -43 22 -68.5t58 -25.5t58 25.5z" />
    <glyph glyph-name="ugrave" unicode="&#xf9;" horiz-adv-x="506" 
d="M65 40q-38 50 -38 149v361h150v-325q0 -89 70 -89q37 0 58 26t21 76v312h150v-550h-130l-15 79h-4q-24 -48 -55.5 -68.5t-86.5 -20.5q-82 0 -120 50zM236 615l-116 135h167l20 -135h-71z" />
    <glyph glyph-name="uacute" unicode="&#xfa;" horiz-adv-x="506" 
d="M65 40q-38 50 -38 149v361h150v-325q0 -89 70 -89q37 0 58 26t21 76v312h150v-550h-130l-15 79h-4q-24 -48 -55.5 -68.5t-86.5 -20.5q-82 0 -120 50zM209 750h167l-116 -135h-71z" />
    <glyph glyph-name="ucircumflex" unicode="&#xfb;" horiz-adv-x="506" 
d="M65 40q-38 50 -38 149v361h150v-325q0 -89 70 -89q37 0 58 26t21 76v312h150v-550h-130l-15 79h-4q-24 -48 -55.5 -68.5t-86.5 -20.5q-82 0 -120 50zM413 615h-102l-58 64l-58 -64h-102l91 135h138z" />
    <glyph glyph-name="udieresis" unicode="&#xfc;" horiz-adv-x="506" 
d="M65 40q-38 50 -38 149v361h150v-325q0 -89 70 -89q37 0 58 26t21 76v312h150v-550h-130l-15 79h-4q-24 -48 -55.5 -68.5t-86.5 -20.5q-82 0 -120 50zM91.5 615.5q-23.5 23.5 -23.5 59.5q0 37 23.5 60t59.5 23q37 0 60 -23t23 -60q0 -36 -23 -59.5t-60 -23.5
q-36 0 -59.5 23.5zM293.5 615.5q-23.5 23.5 -23.5 59.5q0 37 23.5 60t59.5 23q37 0 60 -23t23 -60q0 -36 -23 -59.5t-60 -23.5q-36 0 -59.5 23.5z" />
    <glyph glyph-name="yacute" unicode="&#xfd;" horiz-adv-x="520" 
d="M185 45l-174 505h159l91 -296l89 296h159l-252 -730h-159zM216 750h167l-116 -135h-71z" />
    <glyph glyph-name="thorn" unicode="&#xfe;" horiz-adv-x="513" 
d="M232 10q-28 20 -48 67h-4v-257h-150v930h140v-279h4q23 47 58 68t84 21q83 0 128.5 -58.5t45.5 -165.5v-122q0 -107 -47.5 -165.5t-134.5 -58.5q-48 0 -76 20zM201.5 160.5q21.5 -26.5 59.5 -26.5q37 0 58 25t21 69v94q0 43 -22.5 68.5t-59.5 25.5t-57.5 -26t-20.5 -76
v-78q0 -49 21.5 -75.5z" />
    <glyph glyph-name="ydieresis" unicode="&#xff;" horiz-adv-x="520" 
d="M185 45l-174 505h159l91 -296l89 296h159l-252 -730h-159zM98.5 615.5q-23.5 23.5 -23.5 59.5q0 37 23.5 60t59.5 23q37 0 60 -23t23 -60q0 -36 -23 -59.5t-60 -23.5q-36 0 -59.5 23.5zM300.5 615.5q-23.5 23.5 -23.5 59.5q0 37 23.5 60t59.5 23q37 0 60 -23t23 -60
q0 -36 -23 -59.5t-60 -23.5q-36 0 -59.5 23.5z" />
    <glyph glyph-name="Amacron" unicode="&#x100;" horiz-adv-x="565" 
d="M186 750h193l186 -750h-177l-20 101h-182l-20 -101h-166zM345 221l-67 340l-68 -340h135zM134 938h292v-110h-292v110z" />
    <glyph glyph-name="amacron" unicode="&#x101;" horiz-adv-x="486" 
d="M58 39q-42 44 -42 111v3q0 70 50 117.5t162 47.5h81v30q0 37 -16.5 57t-47.5 20q-34 0 -52.5 -20t-18.5 -57v-5l-148 25q0 51 25 94.5t76.5 70.5t125.5 27q100 0 153 -54.5t53 -151.5v-354h-130l-13 69h-5q-32 -37 -61 -55.5t-79 -18.5q-71 0 -113 44zM232 126
q34 0 55.5 17t21.5 47v33h-73q-34 0 -51.5 -12t-17.5 -35v-2q0 -48 65 -48zM97 738h292v-110h-292v110z" />
    <glyph glyph-name="Abreve" unicode="&#x102;" horiz-adv-x="565" 
d="M186 750h193l186 -750h-177l-20 101h-182l-20 -101h-166zM345 221l-67 340l-68 -340h135zM167.5 852q-40.5 37 -35.5 98h88q-1 -25 16 -39t46 -14t45.5 14t15.5 39h84q5 -61 -35.5 -98t-111.5 -37q-72 0 -112.5 37z" />
    <glyph glyph-name="abreve" unicode="&#x103;" horiz-adv-x="486" 
d="M58 39q-42 44 -42 111v3q0 70 50 117.5t162 47.5h81v30q0 37 -16.5 57t-47.5 20q-34 0 -52.5 -20t-18.5 -57v-5l-148 25q0 51 25 94.5t76.5 70.5t125.5 27q100 0 153 -54.5t53 -151.5v-354h-130l-13 69h-5q-32 -37 -61 -55.5t-79 -18.5q-71 0 -113 44zM232 126
q34 0 55.5 17t21.5 47v33h-73q-34 0 -51.5 -12t-17.5 -35v-2q0 -48 65 -48zM130.5 652q-40.5 37 -35.5 98h86q-1 -25 16 -39t46 -14t45.5 14t15.5 39h86q5 -61 -35.5 -98t-111.5 -37q-72 0 -112.5 37z" />
    <glyph glyph-name="Aogonek" unicode="&#x104;" horiz-adv-x="565" 
d="M186 750h193l186 -750q-30 -24 -43 -41t-13 -31q0 -16 14 -26t42 -10v-79l-25 -1q-67 0 -100 21.5t-33 60.5q0 61 91 106h-110l-20 101h-182l-20 -101h-166zM345 221l-67 340l-68 -340h135z" />
    <glyph glyph-name="aogonek" unicode="&#x105;" horiz-adv-x="486" 
d="M58 39q-42 44 -42 111v3q0 70 50 117.5t162 47.5h81v30q0 37 -16.5 57t-47.5 20q-34 0 -52.5 -20t-18.5 -57v-5l-148 25q0 51 25 94.5t76.5 70.5t125.5 27q100 0 153 -54.5t53 -151.5v-354q-30 -24 -43 -41t-13 -31q0 -16 14 -26t42 -10v-79l-25 -1q-67 0 -100 21.5
t-33 60.5q0 61 91 106h-63l-13 69h-5q-32 -37 -61 -55.5t-79 -18.5q-71 0 -113 44zM232 126q34 0 55.5 17t21.5 47v33h-73q-34 0 -51.5 -12t-17.5 -35v-2q0 -48 65 -48z" />
    <glyph glyph-name="Cacute" unicode="&#x106;" horiz-adv-x="565" 
d="M150.5 20.5q-59.5 30.5 -92.5 87.5t-33 135v264q0 78 33 135t92.5 87.5t135.5 30.5q75 0 133.5 -30.5t91 -87.5t32.5 -135v-36l-148 -16l-2 42q-3 59 -30 91t-76 32q-52 0 -82 -32.5t-30 -87.5v-250q0 -55 30 -87.5t82 -32.5q49 0 76 32t30 91l2 42l148 -16v-36
q0 -78 -32.5 -135t-91 -87.5t-133.5 -30.5q-76 0 -135.5 30.5zM240 950h167l-116 -135h-71z" />
    <glyph glyph-name="cacute" unicode="&#x107;" horiz-adv-x="493" 
d="M129.5 19q-51.5 28 -80.5 77.5t-29 113.5v132q0 63 29 113t80.5 78t118.5 28q63 0 115 -28t81.5 -76t29.5 -105v-3l-148 -25v5q0 41 -21 66.5t-56 25.5q-36 0 -57.5 -25.5t-21.5 -68.5v-102q0 -43 21.5 -68.5t57.5 -25.5q35 0 56 25.5t21 66.5v5l148 -25v-3
q0 -57 -29.5 -105t-81.5 -76t-115 -28q-67 0 -118.5 28zM203 750h167l-116 -135h-71z" />
    <glyph glyph-name="Ccircumflex" unicode="&#x108;" horiz-adv-x="565" 
d="M150.5 20.5q-59.5 30.5 -92.5 87.5t-33 135v264q0 78 33 135t92.5 87.5t135.5 30.5q75 0 133.5 -30.5t91 -87.5t32.5 -135v-36l-148 -16l-2 42q-3 59 -30 91t-76 32q-52 0 -82 -32.5t-30 -87.5v-250q0 -55 30 -87.5t82 -32.5q49 0 76 32t30 91l2 42l148 -16v-36
q0 -78 -32.5 -135t-91 -87.5t-133.5 -30.5q-76 0 -135.5 30.5zM444 815h-102l-58 64l-58 -64h-102l91 135h138z" />
    <glyph glyph-name="ccircumflex" unicode="&#x109;" horiz-adv-x="493" 
d="M129.5 19q-51.5 28 -80.5 77.5t-29 113.5v132q0 63 29 113t80.5 78t118.5 28q63 0 115 -28t81.5 -76t29.5 -105v-3l-148 -25v5q0 41 -21 66.5t-56 25.5q-36 0 -57.5 -25.5t-21.5 -68.5v-102q0 -43 21.5 -68.5t57.5 -25.5q35 0 56 25.5t21 66.5v5l148 -25v-3
q0 -57 -29.5 -105t-81.5 -76t-115 -28q-67 0 -118.5 28zM407 615h-102l-58 64l-58 -64h-102l91 135h138z" />
    <glyph glyph-name="Cdotaccent" unicode="&#x10a;" horiz-adv-x="565" 
d="M150.5 20.5q-59.5 30.5 -92.5 87.5t-33 135v264q0 78 33 135t92.5 87.5t135.5 30.5q75 0 133.5 -30.5t91 -87.5t32.5 -135v-36l-148 -16l-2 42q-3 59 -30 91t-76 32q-52 0 -82 -32.5t-30 -87.5v-250q0 -55 30 -87.5t82 -32.5q49 0 76 32t30 91l2 42l148 -16v-36
q0 -78 -32.5 -135t-91 -87.5t-133.5 -30.5q-76 0 -135.5 30.5zM223 814q-24 24 -24 61t24 61t61 24q38 0 61.5 -23.5t23.5 -61.5q0 -37 -24 -61t-61 -24t-61 24z" />
    <glyph glyph-name="cdotaccent" unicode="&#x10b;" horiz-adv-x="493" 
d="M129.5 19q-51.5 28 -80.5 77.5t-29 113.5v132q0 63 29 113t80.5 78t118.5 28q63 0 115 -28t81.5 -76t29.5 -105v-3l-148 -25v5q0 41 -21 66.5t-56 25.5q-36 0 -57.5 -25.5t-21.5 -68.5v-102q0 -43 21.5 -68.5t57.5 -25.5q35 0 56 25.5t21 66.5v5l148 -25v-3
q0 -57 -29.5 -105t-81.5 -76t-115 -28q-67 0 -118.5 28zM186 614q-24 24 -24 61t24 61t61 24q38 0 61.5 -23.5t23.5 -61.5q0 -37 -24 -61t-61 -24t-61 24z" />
    <glyph glyph-name="Ccaron" unicode="&#x10c;" horiz-adv-x="565" 
d="M150.5 20.5q-59.5 30.5 -92.5 87.5t-33 135v264q0 78 33 135t92.5 87.5t135.5 30.5q75 0 133.5 -30.5t91 -87.5t32.5 -135v-36l-148 -16l-2 42q-3 59 -30 91t-76 32q-52 0 -82 -32.5t-30 -87.5v-250q0 -55 30 -87.5t82 -32.5q49 0 76 32t30 91l2 42l148 -16v-36
q0 -78 -32.5 -135t-91 -87.5t-133.5 -30.5q-76 0 -135.5 30.5zM124 950h102l58 -64l58 64h102l-91 -135h-138z" />
    <glyph glyph-name="ccaron" unicode="&#x10d;" horiz-adv-x="493" 
d="M129.5 19q-51.5 28 -80.5 77.5t-29 113.5v132q0 63 29 113t80.5 78t118.5 28q63 0 115 -28t81.5 -76t29.5 -105v-3l-148 -25v5q0 41 -21 66.5t-56 25.5q-36 0 -57.5 -25.5t-21.5 -68.5v-102q0 -43 21.5 -68.5t57.5 -25.5q35 0 56 25.5t21 66.5v5l148 -25v-3
q0 -57 -29.5 -105t-81.5 -76t-115 -28q-67 0 -118.5 28zM87 750h102l58 -64l58 64h102l-91 -135h-138z" />
    <glyph glyph-name="Dcaron" unicode="&#x10e;" horiz-adv-x="559" 
d="M32 750h243q76 0 134.5 -31t91.5 -89t33 -137v-236q0 -79 -33 -137t-91.5 -89t-134.5 -31h-243v750zM354 172q30 32 30 85v236q0 53 -30 85t-79 32h-93v-470h93q49 0 79 32zM100 950h102l58 -64l58 64h102l-91 -135h-138z" />
    <glyph glyph-name="dcaron" unicode="&#x10f;" horiz-adv-x="648" 
d="M68.5 48.5q-45.5 58.5 -45.5 165.5v122q0 107 47.5 165.5t134.5 58.5q49 0 78.5 -21t46.5 -68h3v279h150v-750h-130l-15 79h-3q-23 -47 -56.5 -68t-81.5 -21q-83 0 -128.5 58.5zM312.5 160q20.5 26 20.5 76v78q0 49 -21.5 75.5t-59.5 26.5q-37 0 -58 -25t-21 -69v-94
q0 -43 22.5 -68.5t59.5 -25.5t57.5 26zM522 750h133l-51 -215h-82v215z" />
    <glyph glyph-name="Dcroat" unicode="&#x110;" horiz-adv-x="579" 
d="M52 320h-52v110h52v320h243q76 0 134.5 -31t91.5 -89t33 -137v-236q0 -79 -33 -137t-91.5 -89t-134.5 -31h-243v320zM374 172q30 32 30 85v236q0 53 -30 85t-79 32h-93v-180h90v-110h-90v-180h93q49 0 79 32z" />
    <glyph glyph-name="dcroat" unicode="&#x111;" horiz-adv-x="513" 
d="M68.5 48.5q-45.5 58.5 -45.5 165.5v122q0 107 47.5 165.5t134.5 58.5q49 0 78.5 -21t46.5 -68h3v131h-102v110h102v38h150v-38h60v-110h-60v-602h-130l-15 79h-3q-23 -47 -56.5 -68t-81.5 -21q-83 0 -128.5 58.5zM312.5 160q20.5 26 20.5 76v78q0 49 -21.5 75.5
t-59.5 26.5q-37 0 -58 -25t-21 -69v-94q0 -43 22.5 -68.5t59.5 -25.5t57.5 26z" />
    <glyph glyph-name="Emacron" unicode="&#x112;" horiz-adv-x="486" 
d="M32 750h430v-140h-280v-157h210v-138h-210v-175h282v-140h-432v750zM103 938h292v-110h-292v110z" />
    <glyph glyph-name="emacron" unicode="&#x113;" horiz-adv-x="500" 
d="M132 16.5q-53 26.5 -82.5 74t-29.5 107.5v138q0 64 30 115t82.5 80t117.5 29t117.5 -29t82.5 -80t30 -115v-87h-310v-49q0 -36 23 -58t61 -22q34 0 55 22.5t21 57.5v3l146 -11l-1 -20q-2 -51 -31 -92.5t-78 -65.5t-112 -24q-69 0 -122 26.5zM330 334v1q0 43 -22 68.5
t-58 25.5t-58 -25.5t-22 -68.5v-1h160zM104 738h292v-110h-292v110z" />
    <glyph glyph-name="Edotaccent" unicode="&#x116;" horiz-adv-x="486" 
d="M32 750h430v-140h-280v-157h210v-138h-210v-175h282v-140h-432v750zM188 814q-24 24 -24 61t24 61t61 24q38 0 61.5 -23.5t23.5 -61.5q0 -37 -24 -61t-61 -24t-61 24z" />
    <glyph glyph-name="edotaccent" unicode="&#x117;" horiz-adv-x="500" 
d="M132 16.5q-53 26.5 -82.5 74t-29.5 107.5v138q0 64 30 115t82.5 80t117.5 29t117.5 -29t82.5 -80t30 -115v-87h-310v-49q0 -36 23 -58t61 -22q34 0 55 22.5t21 57.5v3l146 -11l-1 -20q-2 -51 -31 -92.5t-78 -65.5t-112 -24q-69 0 -122 26.5zM330 334v1q0 43 -22 68.5
t-58 25.5t-58 -25.5t-22 -68.5v-1h160zM189 614q-24 24 -24 61t24 61t61 24q38 0 61.5 -23.5t23.5 -61.5q0 -37 -24 -61t-61 -24t-61 24z" />
    <glyph glyph-name="Eogonek" unicode="&#x118;" horiz-adv-x="486" 
d="M32 750h430v-140h-280v-157h210v-138h-210v-175h282v-140h-50q-30 -24 -43 -41t-13 -31q0 -16 14 -26t42 -10v-79l-25 -1q-67 0 -100 21.5t-33 60.5q0 61 91 106h-315v750z" />
    <glyph glyph-name="eogonek" unicode="&#x119;" horiz-adv-x="500" 
d="M321 -182q-67 0 -100 21.5t-33 60.5q0 51 62 90q-68 0 -120 27t-81 74t-29 107v138q0 64 30 115t82.5 80t117.5 29t117.5 -29t82.5 -80t30 -115v-87h-310v-49q0 -36 23 -58t61 -22q34 0 55 22.5t21 57.5v3l146 -11l-1 -20q-3 -57 -37.5 -101.5t-92.5 -65.5
q-29 -24 -42 -40.5t-13 -30.5q0 -16 14 -26t42 -10v-79zM330 334v1q0 43 -22 68.5t-58 25.5t-58 -25.5t-22 -68.5v-1h160z" />
    <glyph glyph-name="Ecaron" unicode="&#x11a;" horiz-adv-x="486" 
d="M32 750h430v-140h-280v-157h210v-138h-210v-175h282v-140h-432v750zM89 950h102l58 -64l58 64h102l-91 -135h-138z" />
    <glyph glyph-name="ecaron" unicode="&#x11b;" horiz-adv-x="500" 
d="M132 16.5q-53 26.5 -82.5 74t-29.5 107.5v138q0 64 30 115t82.5 80t117.5 29t117.5 -29t82.5 -80t30 -115v-87h-310v-49q0 -36 23 -58t61 -22q34 0 55 22.5t21 57.5v3l146 -11l-1 -20q-2 -51 -31 -92.5t-78 -65.5t-112 -24q-69 0 -122 26.5zM330 334v1q0 43 -22 68.5
t-58 25.5t-58 -25.5t-22 -68.5v-1h160zM90 750h102l58 -64l58 64h102l-91 -135h-138z" />
    <glyph glyph-name="Gcircumflex" unicode="&#x11c;" 
d="M149.5 23q-58.5 31 -91.5 89t-33 137v258q0 78 33 135t91.5 87.5t134.5 30.5q75 0 133.5 -30t91.5 -86.5t34 -133.5v-6l-150 -16v15q0 53 -30 85t-79 32t-79 -32t-30 -85v-254q0 -53 30 -85t79 -32t79 32t30 85v5h-96v140h246v-145q0 -79 -33 -137t-91.5 -89t-134.5 -31
t-134.5 31zM449 815h-102l-58 64l-58 -64h-102l91 135h138z" />
    <glyph glyph-name="gcircumflex" unicode="&#x11d;" horiz-adv-x="510" 
d="M91 -142.5q-54 47.5 -66 114.5l-1 6l143 24q4 -25 23 -43t54 -18q41 0 63.5 26.5t22.5 71.5v78h-3q-18 -45 -50 -62t-83 -17q-78 0 -126 55.5t-48 158.5v84q0 107 47.5 165.5t134.5 58.5q48 0 79 -20.5t56 -68.5h3v79h140v-516q0 -64 -28.5 -115t-80.5 -80t-119 -29
q-107 0 -161 47.5zM309.5 198q20.5 26 20.5 76v40q0 49 -21.5 75.5t-59.5 26.5q-37 0 -58 -25t-21 -69v-56q0 -43 22.5 -68.5t59.5 -25.5t57.5 26zM415 615h-102l-58 64l-58 -64h-102l91 135h138z" />
    <glyph glyph-name="Gbreve" unicode="&#x11e;" 
d="M149.5 23q-58.5 31 -91.5 89t-33 137v258q0 78 33 135t91.5 87.5t134.5 30.5q75 0 133.5 -30t91.5 -86.5t34 -133.5v-6l-150 -16v15q0 53 -30 85t-79 32t-79 -32t-30 -85v-254q0 -53 30 -85t79 -32t79 32t30 85v5h-96v140h246v-145q0 -79 -33 -137t-91.5 -89t-134.5 -31
t-134.5 31zM176.5 852q-40.5 37 -35.5 98h88q-1 -25 16 -39t46 -14t45.5 14t15.5 39h84q5 -61 -35.5 -98t-111.5 -37q-72 0 -112.5 37z" />
    <glyph glyph-name="gbreve" unicode="&#x11f;" horiz-adv-x="510" 
d="M91 -142.5q-54 47.5 -66 114.5l-1 6l143 24q4 -25 23 -43t54 -18q41 0 63.5 26.5t22.5 71.5v78h-3q-18 -45 -50 -62t-83 -17q-78 0 -126 55.5t-48 158.5v84q0 107 47.5 165.5t134.5 58.5q48 0 79 -20.5t56 -68.5h3v79h140v-516q0 -64 -28.5 -115t-80.5 -80t-119 -29
q-107 0 -161 47.5zM309.5 198q20.5 26 20.5 76v40q0 49 -21.5 75.5t-59.5 26.5q-37 0 -58 -25t-21 -69v-56q0 -43 22.5 -68.5t59.5 -25.5t57.5 26zM142.5 652q-40.5 37 -35.5 98h86q-1 -25 16 -39t46 -14t45.5 14t15.5 39h86q5 -61 -35.5 -98t-111.5 -37q-72 0 -112.5 37z
" />
    <glyph glyph-name="Gdotaccent" unicode="&#x120;" 
d="M149.5 23q-58.5 31 -91.5 89t-33 137v258q0 78 33 135t91.5 87.5t134.5 30.5q75 0 133.5 -30t91.5 -86.5t34 -133.5v-6l-150 -16v15q0 53 -30 85t-79 32t-79 -32t-30 -85v-254q0 -53 30 -85t79 -32t79 32t30 85v5h-96v140h246v-145q0 -79 -33 -137t-91.5 -89t-134.5 -31
t-134.5 31zM228 814q-24 24 -24 61t24 61t61 24q38 0 61.5 -23.5t23.5 -61.5q0 -37 -24 -61t-61 -24t-61 24z" />
    <glyph glyph-name="gdotaccent" unicode="&#x121;" horiz-adv-x="510" 
d="M91 -142.5q-54 47.5 -66 114.5l-1 6l143 24q4 -25 23 -43t54 -18q41 0 63.5 26.5t22.5 71.5v78h-3q-18 -45 -50 -62t-83 -17q-78 0 -126 55.5t-48 158.5v84q0 107 47.5 165.5t134.5 58.5q48 0 79 -20.5t56 -68.5h3v79h140v-516q0 -64 -28.5 -115t-80.5 -80t-119 -29
q-107 0 -161 47.5zM309.5 198q20.5 26 20.5 76v40q0 49 -21.5 75.5t-59.5 26.5q-37 0 -58 -25t-21 -69v-56q0 -43 22.5 -68.5t59.5 -25.5t57.5 26zM194 614q-24 24 -24 61t24 61t61 24q38 0 61.5 -23.5t23.5 -61.5q0 -37 -24 -61t-61 -24t-61 24z" />
    <glyph glyph-name="uni0122" unicode="&#x122;" 
d="M149.5 23q-58.5 31 -91.5 89t-33 137v258q0 78 33 135t91.5 87.5t134.5 30.5q75 0 133.5 -30t91.5 -86.5t34 -133.5v-6l-150 -16v15q0 53 -30 85t-79 32t-79 -32t-30 -85v-254q0 -53 30 -85t79 -32t79 32t30 85v5h-96v140h246v-145q0 -79 -33 -137t-91.5 -89t-134.5 -31
t-134.5 31zM346 -143l-52 -116l-48 21l32 70q-26 3 -41 20.5t-15 44.5q0 29 19 48t48 19t48 -19t19 -48q0 -17 -10 -40z" />
    <glyph glyph-name="uni0123" unicode="&#x123;" horiz-adv-x="510" 
d="M91 -142.5q-54 47.5 -66 114.5l-1 6l143 24q4 -25 23 -43t54 -18q41 0 63.5 26.5t22.5 71.5v78h-3q-18 -45 -50 -62t-83 -17q-78 0 -126 55.5t-48 158.5v84q0 107 47.5 165.5t134.5 58.5q48 0 79 -20.5t56 -68.5h3v79h140v-516q0 -64 -28.5 -115t-80.5 -80t-119 -29
q-107 0 -161 47.5zM309.5 198q20.5 26 20.5 76v40q0 49 -21.5 75.5t-59.5 26.5q-37 0 -58 -25t-21 -69v-56q0 -43 22.5 -68.5t59.5 -25.5t57.5 26zM207 609q-19 19 -19 48q0 17 10 40l52 116l48 -21l-32 -70q26 -3 41 -20.5t15 -44.5q0 -29 -19 -48t-48 -19t-48 19z" />
    <glyph glyph-name="Hcircumflex" unicode="&#x124;" horiz-adv-x="581" 
d="M32 750h150v-304h217v304h150v-750h-150v306h-217v-306h-150v750zM451 815h-102l-58 64l-58 -64h-102l91 135h138z" />
    <glyph glyph-name="hcircumflex" unicode="&#x125;" horiz-adv-x="511" 
d="M30 750h150v-279h4q18 47 52 68t88 21q82 0 121 -50.5t39 -148.5v-361h-150v325q0 89 -72 89q-38 0 -60 -28t-22 -78v-308h-150v750zM274 750h138l61 -135h-92l-38 62l-38 -62h-92z" />
    <glyph glyph-name="Hbar" unicode="&#x126;" horiz-adv-x="581" 
d="M32 556h-32v110h32v84h150v-84h217v84h150v-84h32v-110h-32v-556h-150v306h-217v-306h-150v556zM399 446v110h-217v-110h217z" />
    <glyph glyph-name="hbar" unicode="&#x127;" horiz-adv-x="511" 
d="M30 602h-60v110h60v38h150v-38h102v-110h-102v-131h4q18 47 52 68t88 21q82 0 121 -50.5t39 -148.5v-361h-150v325q0 89 -72 89q-38 0 -60 -28t-22 -78v-308h-150v602z" />
    <glyph glyph-name="Itilde" unicode="&#x128;" horiz-adv-x="214" 
d="M32 750h150v-750h-150v750zM140 823.5q-24 7.5 -51 19.5q-31 14 -42 14q-12 0 -17.5 -7.5t-5.5 -30.5h-85q-1 9 -1 26q0 58 21.5 83t65.5 25q25 0 49 -7.5t51 -19.5q32 -14 42 -14q12 0 17.5 7.5t5.5 30.5h85q1 -9 1 -26q0 -58 -21.5 -83t-65.5 -25q-25 0 -49 7.5z" />
    <glyph glyph-name="itilde" unicode="&#x129;" horiz-adv-x="210" 
d="M180 0h-150v550h150v-550zM125 626q-15 8 -33 22q-3 2 -12.5 8.5t-15.5 6.5q-8 0 -15 -8t-7 -29h-75l-1 19q0 53 22.5 81.5t64.5 28.5q17 0 32 -8t33 -22q3 -2 12.5 -8.5t15.5 -6.5q8 0 15 8t7 29h75l1 -19q0 -53 -22.5 -81.5t-64.5 -28.5q-17 0 -32 8z" />
    <glyph glyph-name="Imacron" unicode="&#x12a;" horiz-adv-x="214" 
d="M32 750h150v-750h-150v750zM-39 938h292v-110h-292v110z" />
    <glyph glyph-name="imacron" unicode="&#x12b;" horiz-adv-x="210" 
d="M180 0h-150v550h150v-550zM-13 738h237v-110h-237v110z" />
    <glyph glyph-name="Iogonek" unicode="&#x12e;" horiz-adv-x="214" 
d="M32 750h150v-750q-30 -24 -43 -41t-13 -31q0 -16 14 -26t42 -10v-79l-25 -1q-67 0 -100 21.5t-33 60.5q0 61 91 106h-83v750z" />
    <glyph glyph-name="iogonek" unicode="&#x12f;" horiz-adv-x="210" 
d="M180 0q-30 -24 -43 -41t-13 -31q0 -16 14 -26t42 -10v-79l-25 -1q-67 0 -100 21.5t-33 60.5q0 61 91 106h-83v550h150v-550zM44 614q-24 24 -24 61t24 61t61 24q38 0 61.5 -23.5t23.5 -61.5q0 -37 -24 -61t-61 -24t-61 24z" />
    <glyph glyph-name="Idotaccent" unicode="&#x130;" horiz-adv-x="214" 
d="M32 750h150v-750h-150v750zM46 814q-24 24 -24 61t24 61t61 24q38 0 61.5 -23.5t23.5 -61.5q0 -37 -24 -61t-61 -24t-61 24z" />
    <glyph glyph-name="dotlessi" unicode="&#x131;" horiz-adv-x="210" 
d="M180 0h-150v550h150v-550z" />
    <glyph glyph-name="IJ" unicode="&#x132;" horiz-adv-x="689" 
d="M32 750h150v-750h-150v750zM288 47q-59 55 -59 158v26l150 26v-52q0 -69 66 -69t66 69v545h150v-545q0 -103 -59 -158t-157 -55t-157 55z" />
    <glyph glyph-name="ij" unicode="&#x133;" horiz-adv-x="422" 
d="M30 550h150v-550h-150v550zM44 614q-24 24 -24 61t24 61t61 24q38 0 61.5 -23.5t23.5 -61.5q0 -37 -24 -61t-61 -24t-61 24zM142 -181v137h36q33 0 48.5 13.5t15.5 43.5v537h150v-556q0 -182 -170 -182q-28 0 -80 7zM256 614q-24 24 -24 61t24 61t61 24q38 0 61.5 -23.5
t23.5 -61.5q0 -37 -24 -61t-61 -24t-61 24z" />
    <glyph glyph-name="Jcircumflex" unicode="&#x134;" horiz-adv-x="475" 
d="M74 47q-59 55 -59 158v26l150 26v-52q0 -69 66 -69t66 69v545h150v-545q0 -103 -59 -158t-157 -55t-157 55zM535 815h-102l-58 64l-58 -64h-102l91 135h138z" />
    <glyph glyph-name="jcircumflex" unicode="&#x135;" horiz-adv-x="212" 
d="M-68 -181v137h36q33 0 48.5 13.5t15.5 43.5v537h150v-556q0 -182 -170 -182q-28 0 -80 7zM37 750h138l61 -135h-92l-38 62l-38 -62h-92z" />
    <glyph glyph-name="uni0136" unicode="&#x136;" horiz-adv-x="571" 
d="M32 750h150v-300l194 300h179l-234 -349l251 -401h-187l-203 341v-341h-150v750zM343 -143l-52 -116l-48 21l32 70q-26 3 -41 20.5t-15 44.5q0 29 19 48t48 19t48 -19t19 -48q0 -17 -10 -40z" />
    <glyph glyph-name="uni0137" unicode="&#x137;" horiz-adv-x="486" 
d="M30 750h150v-413h7l130 213h168l-170 -267l171 -283h-174l-126 224h-6v-224h-150v750zM304 -143l-52 -116l-48 21l32 70q-26 3 -41 20.5t-15 44.5q0 29 19 48t48 19t48 -19t19 -48q0 -17 -10 -40z" />
    <glyph glyph-name="kgreenlandic" unicode="&#x138;" horiz-adv-x="486" 
d="M30 550h150v-213h7l130 213h168l-170 -267l171 -283h-174l-126 224h-6v-224h-150v550z" />
    <glyph glyph-name="Lacute" unicode="&#x139;" horiz-adv-x="467" 
d="M32 750h150v-610h261v-140h-411v750zM66 950h167l-116 -135h-71z" />
    <glyph glyph-name="lacute" unicode="&#x13a;" horiz-adv-x="210" 
d="M30 750h150v-750h-150v750zM61 950h167l-116 -135h-71z" />
    <glyph glyph-name="uni013B" unicode="&#x13b;" horiz-adv-x="467" 
d="M32 750h150v-610h261v-140h-411v750zM290 -143l-52 -116l-48 21l32 70q-26 3 -41 20.5t-15 44.5q0 29 19 48t48 19t48 -19t19 -48q0 -17 -10 -40z" />
    <glyph glyph-name="uni013C" unicode="&#x13c;" horiz-adv-x="210" 
d="M30 750h150v-750h-150v750zM162 -143l-52 -116l-48 21l32 70q-26 3 -41 20.5t-15 44.5q0 29 19 48t48 19t48 -19t19 -48q0 -17 -10 -40z" />
    <glyph glyph-name="Lcaron" unicode="&#x13d;" horiz-adv-x="467" 
d="M272 750h137l-55 -175h-82v175zM32 750h150v-610h261v-140h-411v750z" />
    <glyph glyph-name="lcaron" unicode="&#x13e;" horiz-adv-x="345" 
d="M219 750h133l-51 -215h-82v215zM30 750h150v-750h-150v750z" />
    <glyph glyph-name="Ldot" unicode="&#x13f;" horiz-adv-x="467" 
d="M32 750h150v-610h261v-140h-411v750zM271 317q-25 25 -25 65t25 65t65 25t65 -25t25 -65t-25 -65t-65 -25t-65 25z" />
    <glyph glyph-name="ldot" unicode="&#x140;" horiz-adv-x="379" 
d="M30 750h150v-750h-150v750zM227 309q-25 25 -25 65t25 65t65 25t65 -25t25 -65t-25 -65t-65 -25t-65 25z" />
    <glyph glyph-name="Lslash" unicode="&#x141;" horiz-adv-x="517" 
d="M24 397l58 20v333h150v-281l155 53v-147l-155 -53v-182h261v-140h-411v270l-58 -20v147z" />
    <glyph glyph-name="lslash" unicode="&#x142;" horiz-adv-x="314" 
d="M24 397l49 17v336h150v-285l72 25v-127l-72 -25v-338h-150v287l-49 -17v127z" />
    <glyph glyph-name="Nacute" unicode="&#x143;" horiz-adv-x="588" 
d="M32 750h148l230 -437v437h146v-750h-148l-230 437v-437h-146v750zM250 950h167l-116 -135h-71z" />
    <glyph glyph-name="nacute" unicode="&#x144;" horiz-adv-x="511" 
d="M262 414q-39 0 -60.5 -26t-21.5 -76v-312h-150v550h143v-79h5q24 49 56 69t90 20q82 0 121 -50.5t39 -148.5v-361h-150v325q0 89 -72 89zM212 750h167l-116 -135h-71z" />
    <glyph glyph-name="uni0145" unicode="&#x145;" horiz-adv-x="588" 
d="M32 750h148l230 -437v437h146v-750h-148l-230 437v-437h-146v750zM351 -143l-52 -116l-48 21l32 70q-26 3 -41 20.5t-15 44.5q0 29 19 48t48 19t48 -19t19 -48q0 -17 -10 -40z" />
    <glyph glyph-name="uni0146" unicode="&#x146;" horiz-adv-x="511" 
d="M262 414q-39 0 -60.5 -26t-21.5 -76v-312h-150v550h143v-79h5q24 49 56 69t90 20q82 0 121 -50.5t39 -148.5v-361h-150v325q0 89 -72 89zM313 -143l-52 -116l-48 21l32 70q-26 3 -41 20.5t-15 44.5q0 29 19 48t48 19t48 -19t19 -48q0 -17 -10 -40z" />
    <glyph glyph-name="Ncaron" unicode="&#x147;" horiz-adv-x="588" 
d="M32 750h148l230 -437v437h146v-750h-148l-230 437v-437h-146v750zM134 950h102l58 -64l58 64h102l-91 -135h-138z" />
    <glyph glyph-name="ncaron" unicode="&#x148;" horiz-adv-x="511" 
d="M262 414q-39 0 -60.5 -26t-21.5 -76v-312h-150v550h143v-79h5q24 49 56 69t90 20q82 0 121 -50.5t39 -148.5v-361h-150v325q0 89 -72 89zM96 750h102l58 -64l58 64h102l-91 -135h-138z" />
    <glyph glyph-name="napostrophe" unicode="&#x149;" horiz-adv-x="561" 
d="M312 414q-39 0 -60.5 -26t-21.5 -76v-312h-150v550h143v-79h5q24 49 56 69t90 20q82 0 121 -50.5t39 -148.5v-361h-150v325q0 89 -72 89zM128 679l-54 -119l-49 22l33 71q-27 4 -42.5 22t-15.5 46q0 30 19.5 49t49.5 19t49.5 -19t19.5 -49q0 -18 -10 -42z" />
    <glyph glyph-name="Eng" unicode="&#x14a;" horiz-adv-x="588" 
d="M306 -181v137h36q33 0 48.5 13.5t15.5 43.5v15l-224 399v-427h-150v750h134l240 -427v427h150v-756q0 -182 -170 -182q-28 0 -80 7z" />
    <glyph glyph-name="eng" unicode="&#x14b;" horiz-adv-x="511" 
d="M234 -181v137h36q33 0 48.5 13.5t15.5 43.5v312q0 89 -72 89q-39 0 -60.5 -26t-21.5 -76v-312h-150v550h143v-79h5q24 49 56 69t90 20q82 0 121 -50.5t39 -148.5v-367q0 -182 -170 -182q-28 0 -80 7z" />
    <glyph glyph-name="Omacron" unicode="&#x14c;" 
d="M149.5 21q-58.5 31 -91.5 89t-33 137v256q0 79 33 137t91.5 89t134.5 31t134.5 -31t91.5 -89t33 -137v-256q0 -79 -33 -137t-91.5 -89t-134.5 -31t-134.5 31zM363 162q30 32 30 85v256q0 53 -30 85t-79 32t-79 -32t-30 -85v-256q0 -53 30 -85t79 -32t79 32zM138 938h292
v-110h-292v110z" />
    <glyph glyph-name="omacron" unicode="&#x14d;" horiz-adv-x="500" 
d="M132.5 19q-52.5 29 -82.5 80t-30 115v122q0 64 30 115t82.5 80t117.5 29t117.5 -29t82.5 -80t30 -115v-122q0 -64 -30 -115t-82.5 -80t-117.5 -29t-117.5 29zM192 155.5q22 -25.5 58 -25.5t58 25.5t22 68.5v102q0 43 -22 68.5t-58 25.5t-58 -25.5t-22 -68.5v-102
q0 -43 22 -68.5zM104 738h292v-110h-292v110z" />
    <glyph glyph-name="Ohungarumlaut" unicode="&#x150;" 
d="M149.5 21q-58.5 31 -91.5 89t-33 137v256q0 79 33 137t91.5 89t134.5 31t134.5 -31t91.5 -89t33 -137v-256q0 -79 -33 -137t-91.5 -89t-134.5 -31t-134.5 31zM363 162q30 32 30 85v256q0 53 -30 85t-79 32t-79 -32t-30 -85v-256q0 -53 30 -85t79 -32t79 32zM338 950h167
l-116 -135h-71zM163 950h167l-116 -135h-71z" />
    <glyph glyph-name="ohungarumlaut" unicode="&#x151;" horiz-adv-x="500" 
d="M132.5 19q-52.5 29 -82.5 80t-30 115v122q0 64 30 115t82.5 80t117.5 29t117.5 -29t82.5 -80t30 -115v-122q0 -64 -30 -115t-82.5 -80t-117.5 -29t-117.5 29zM192 155.5q22 -25.5 58 -25.5t58 25.5t22 68.5v102q0 43 -22 68.5t-58 25.5t-58 -25.5t-22 -68.5v-102
q0 -43 22 -68.5zM304 750h167l-116 -135h-71zM129 750h167l-116 -135h-71z" />
    <glyph glyph-name="OE" unicode="&#x152;" horiz-adv-x="831" 
d="M149.5 31q-58.5 31 -91.5 89t-33 137v236q0 79 33 137t91.5 89t134.5 31h523v-140h-280v-157h210v-138h-210v-175h282v-140h-525q-76 0 -134.5 31zM377 140v470h-93q-49 0 -79 -32t-30 -85v-236q0 -53 30 -85t79 -32h93z" />
    <glyph glyph-name="oe" unicode="&#x153;" horiz-adv-x="810" 
d="M132.5 19q-52.5 29 -82.5 80t-30 115v122q0 64 30 115t82.5 80t117.5 29q45 0 85 -14t70 -41q30 27 70 41t85 14q65 0 117.5 -29t82.5 -80t30 -115v-87h-310v-49q0 -36 23 -58t61 -22q34 0 55 22.5t21 57.5v3l146 -11l-1 -20q-2 -51 -31 -92.5t-78 -65.5t-112 -24
q-99 0 -162 52q-30 -25 -69 -38.5t-83 -13.5q-65 0 -117.5 29zM308 155.5q22 25.5 22 68.5v102q0 43 -22 68.5t-58 25.5t-58 -25.5t-22 -68.5v-102q0 -43 22 -68.5t58 -25.5t58 25.5zM640 334v1q0 43 -22 68.5t-58 25.5t-58 -25.5t-22 -68.5v-1h160z" />
    <glyph glyph-name="Racute" unicode="&#x154;" horiz-adv-x="572" 
d="M32 750h249q123 0 191 -58.5t68 -192.5v-18q0 -141 -95 -207l116 -274h-166l-91 231q-8 -1 -23 -1h-99v-230h-150v750zM362.5 399.5q26.5 29.5 26.5 81.5v18q0 52 -26.5 81.5t-75.5 29.5h-105v-240h105q49 0 75.5 29.5zM213 950h167l-116 -135h-71z" />
    <glyph glyph-name="racute" unicode="&#x155;" horiz-adv-x="355" 
d="M30 550h143v-101h3q11 62 41.5 84.5t75.5 22.5q32 0 52 -10v-150h-47q-68 0 -93 -27.5t-25 -82.5v-286h-150v550zM144 750h167l-116 -135h-71z" />
    <glyph glyph-name="uni0156" unicode="&#x156;" horiz-adv-x="572" 
d="M32 750h249q123 0 191 -58.5t68 -192.5v-18q0 -141 -95 -207l116 -274h-166l-91 231q-8 -1 -23 -1h-99v-230h-150v750zM362.5 399.5q26.5 29.5 26.5 81.5v18q0 52 -26.5 81.5t-75.5 29.5h-105v-240h105q49 0 75.5 29.5zM344 -143l-52 -116l-48 21l32 70q-26 3 -41 20.5
t-15 44.5q0 29 19 48t48 19t48 -19t19 -48q0 -17 -10 -40z" />
    <glyph glyph-name="uni0157" unicode="&#x157;" horiz-adv-x="355" 
d="M30 550h143v-101h3q11 62 41.5 84.5t75.5 22.5q32 0 52 -10v-150h-47q-68 0 -93 -27.5t-25 -82.5v-286h-150v550zM167 -143l-52 -116l-48 21l32 70q-26 3 -41 20.5t-15 44.5q0 29 19 48t48 19t48 -19t19 -48q0 -17 -10 -40z" />
    <glyph glyph-name="Rcaron" unicode="&#x158;" horiz-adv-x="572" 
d="M32 750h249q123 0 191 -58.5t68 -192.5v-18q0 -141 -95 -207l116 -274h-166l-91 231q-8 -1 -23 -1h-99v-230h-150v750zM362.5 399.5q26.5 29.5 26.5 81.5v18q0 52 -26.5 81.5t-75.5 29.5h-105v-240h105q49 0 75.5 29.5zM97 950h102l58 -64l58 64h102l-91 -135h-138z" />
    <glyph glyph-name="rcaron" unicode="&#x159;" horiz-adv-x="355" 
d="M30 550h143v-101h3q11 62 41.5 84.5t75.5 22.5q32 0 52 -10v-150h-47q-68 0 -93 -27.5t-25 -82.5v-286h-150v550zM28 750h102l58 -64l58 64h102l-91 -135h-138z" />
    <glyph glyph-name="Sacute" unicode="&#x15a;" horiz-adv-x="563" 
d="M152.5 15q-61.5 25 -97 75.5t-35.5 123.5v13l150 20v-17q0 -49 32 -75.5t91 -26.5q50 0 75 21.5t25 58.5q0 36 -24 56.5t-66 32.5l-87 26q-57 17 -96 37.5t-64.5 62t-25.5 109.5q0 70 31 121.5t87.5 79t130.5 27.5q76 0 132.5 -27.5t87 -77.5t30.5 -117v-15l-150 -20v26
q0 45 -29 69t-79 24q-43 0 -67 -20t-24 -55t24 -53.5t67 -30.5l72 -20q57 -16 99 -37.5t71.5 -66t29.5 -117.5q0 -116 -69.5 -174t-182.5 -58q-77 0 -138.5 25zM238 950h167l-116 -135h-71z" />
    <glyph glyph-name="sacute" unicode="&#x15b;" horiz-adv-x="470" 
d="M77 36.5q-57 46.5 -57 121.5v4l148 24v-13q0 -29 18.5 -45.5t53.5 -16.5q60 0 60 44q0 16 -10 26t-33 16l-99 28q-65 18 -96 59t-31 99q0 85 59.5 131t148.5 46q58 0 102.5 -20.5t69 -56.5t24.5 -83v-4l-147 -23v13q0 24 -13 38.5t-41 14.5q-25 0 -38.5 -11.5
t-13.5 -31.5q0 -17 10 -27.5t32 -17.5l90 -27q68 -20 102.5 -56.5t34.5 -100.5q0 -81 -53 -129t-162 -48q-102 0 -159 46.5zM190 750h167l-116 -135h-71z" />
    <glyph glyph-name="Scircumflex" unicode="&#x15c;" horiz-adv-x="563" 
d="M152.5 15q-61.5 25 -97 75.5t-35.5 123.5v13l150 20v-17q0 -49 32 -75.5t91 -26.5q50 0 75 21.5t25 58.5q0 36 -24 56.5t-66 32.5l-87 26q-57 17 -96 37.5t-64.5 62t-25.5 109.5q0 70 31 121.5t87.5 79t130.5 27.5q76 0 132.5 -27.5t87 -77.5t30.5 -117v-15l-150 -20v26
q0 45 -29 69t-79 24q-43 0 -67 -20t-24 -55t24 -53.5t67 -30.5l72 -20q57 -16 99 -37.5t71.5 -66t29.5 -117.5q0 -116 -69.5 -174t-182.5 -58q-77 0 -138.5 25zM442 815h-102l-58 64l-58 -64h-102l91 135h138z" />
    <glyph glyph-name="scircumflex" unicode="&#x15d;" horiz-adv-x="470" 
d="M77 36.5q-57 46.5 -57 121.5v4l148 24v-13q0 -29 18.5 -45.5t53.5 -16.5q60 0 60 44q0 16 -10 26t-33 16l-99 28q-65 18 -96 59t-31 99q0 85 59.5 131t148.5 46q58 0 102.5 -20.5t69 -56.5t24.5 -83v-4l-147 -23v13q0 24 -13 38.5t-41 14.5q-25 0 -38.5 -11.5
t-13.5 -31.5q0 -17 10 -27.5t32 -17.5l90 -27q68 -20 102.5 -56.5t34.5 -100.5q0 -81 -53 -129t-162 -48q-102 0 -159 46.5zM394 615h-102l-58 64l-58 -64h-102l91 135h138z" />
    <glyph glyph-name="Scedilla" unicode="&#x15e;" horiz-adv-x="563" 
d="M152.5 15q-61.5 25 -97 75.5t-35.5 123.5v13l150 20v-17q0 -49 32 -75.5t91 -26.5q50 0 75 21.5t25 58.5q0 36 -24 56.5t-66 32.5l-87 26q-57 17 -96 37.5t-64.5 62t-25.5 109.5q0 70 31 121.5t87.5 79t130.5 27.5q76 0 132.5 -27.5t87 -77.5t30.5 -117v-15l-150 -20v26
q0 45 -29 69t-79 24q-43 0 -67 -20t-24 -55t24 -53.5t67 -30.5l72 -20q57 -16 99 -37.5t71.5 -66t29.5 -117.5q0 -116 -69.5 -174t-182.5 -58q-77 0 -138.5 25zM313 -195h-167l116 135h71z" />
    <glyph glyph-name="scedilla" unicode="&#x15f;" horiz-adv-x="470" 
d="M77 36.5q-57 46.5 -57 121.5v4l148 24v-13q0 -29 18.5 -45.5t53.5 -16.5q60 0 60 44q0 16 -10 26t-33 16l-99 28q-65 18 -96 59t-31 99q0 85 59.5 131t148.5 46q58 0 102.5 -20.5t69 -56.5t24.5 -83v-4l-147 -23v13q0 24 -13 38.5t-41 14.5q-25 0 -38.5 -11.5
t-13.5 -31.5q0 -17 10 -27.5t32 -17.5l90 -27q68 -20 102.5 -56.5t34.5 -100.5q0 -81 -53 -129t-162 -48q-102 0 -159 46.5zM265 -195h-167l116 135h71z" />
    <glyph glyph-name="Scaron" unicode="&#x160;" horiz-adv-x="563" 
d="M152.5 15q-61.5 25 -97 75.5t-35.5 123.5v13l150 20v-17q0 -49 32 -75.5t91 -26.5q50 0 75 21.5t25 58.5q0 36 -24 56.5t-66 32.5l-87 26q-57 17 -96 37.5t-64.5 62t-25.5 109.5q0 70 31 121.5t87.5 79t130.5 27.5q76 0 132.5 -27.5t87 -77.5t30.5 -117v-15l-150 -20v26
q0 45 -29 69t-79 24q-43 0 -67 -20t-24 -55t24 -53.5t67 -30.5l72 -20q57 -16 99 -37.5t71.5 -66t29.5 -117.5q0 -116 -69.5 -174t-182.5 -58q-77 0 -138.5 25zM122 950h102l58 -64l58 64h102l-91 -135h-138z" />
    <glyph glyph-name="scaron" unicode="&#x161;" horiz-adv-x="470" 
d="M77 36.5q-57 46.5 -57 121.5v4l148 24v-13q0 -29 18.5 -45.5t53.5 -16.5q60 0 60 44q0 16 -10 26t-33 16l-99 28q-65 18 -96 59t-31 99q0 85 59.5 131t148.5 46q58 0 102.5 -20.5t69 -56.5t24.5 -83v-4l-147 -23v13q0 24 -13 38.5t-41 14.5q-25 0 -38.5 -11.5
t-13.5 -31.5q0 -17 10 -27.5t32 -17.5l90 -27q68 -20 102.5 -56.5t34.5 -100.5q0 -81 -53 -129t-162 -48q-102 0 -159 46.5zM74 750h102l58 -64l58 64h102l-91 -135h-138z" />
    <glyph glyph-name="uni0162" unicode="&#x162;" horiz-adv-x="512" 
d="M181 610h-175v140h500v-140h-175v-611h-150v611zM287 -195h-167l116 135h71z" />
    <glyph glyph-name="uni0163" unicode="&#x163;" horiz-adv-x="379" 
d="M98 410h-80v140h80v105l150 45v-150h113v-140h-113v-410h-150v410zM202 -195h-167l116 135h71z" />
    <glyph glyph-name="Tcaron" unicode="&#x164;" horiz-adv-x="512" 
d="M181 610h-175v140h500v-140h-175v-611h-150v611zM96 950h102l58 -64l58 64h102l-91 -135h-138z" />
    <glyph glyph-name="tcaron" unicode="&#x165;" horiz-adv-x="401" 
d="M98 410h-80v140h80v105l150 45v-150h113v-140h-113v-410h-150v410zM287 750h131l-53 -162h-78v162z" />
    <glyph glyph-name="Tbar" unicode="&#x166;" horiz-adv-x="512" 
d="M181 316h-71v110h71v184h-175v140h500v-140h-175v-184h71v-110h-71v-317h-150v317z" />
    <glyph glyph-name="tbar" unicode="&#x167;" horiz-adv-x="379" 
d="M98 212h-64v110h64v88h-80v140h80v105l150 45v-150h113v-140h-113v-88h78v-110h-78v-212h-150v212z" />
    <glyph glyph-name="Utilde" unicode="&#x168;" horiz-adv-x="574" 
d="M152.5 21q-58.5 31 -91.5 89t-33 137v503h150v-503q0 -53 30 -85t79 -32t79 32t30 85v503h150v-503q0 -79 -33 -137t-91.5 -89t-134.5 -31t-134.5 31zM320 823.5q-24 7.5 -51 19.5q-31 14 -42 14q-12 0 -17.5 -7.5t-5.5 -30.5h-85q-1 9 -1 26q0 58 21.5 83t65.5 25
q25 0 49 -7.5t51 -19.5q32 -14 42 -14q12 0 17.5 7.5t5.5 30.5h85q1 -9 1 -26q0 -58 -21.5 -83t-65.5 -25q-25 0 -49 7.5z" />
    <glyph glyph-name="utilde" unicode="&#x169;" horiz-adv-x="506" 
d="M65 40q-38 50 -38 149v361h150v-325q0 -89 70 -89q37 0 58 26t21 76v312h150v-550h-130l-15 79h-4q-24 -48 -55.5 -68.5t-86.5 -20.5q-82 0 -120 50zM286 623.5q-24 7.5 -51 19.5q-31 14 -42 14q-12 0 -17.5 -7.5t-5.5 -30.5h-85q-1 9 -1 26q0 58 21.5 83t65.5 25
q25 0 49 -7.5t51 -19.5q32 -14 42 -14q12 0 17.5 7.5t5.5 30.5h85q1 -9 1 -26q0 -58 -21.5 -83t-65.5 -25q-25 0 -49 7.5z" />
    <glyph glyph-name="Umacron" unicode="&#x16a;" horiz-adv-x="574" 
d="M152.5 21q-58.5 31 -91.5 89t-33 137v503h150v-503q0 -53 30 -85t79 -32t79 32t30 85v503h150v-503q0 -79 -33 -137t-91.5 -89t-134.5 -31t-134.5 31zM141 938h292v-110h-292v110z" />
    <glyph glyph-name="umacron" unicode="&#x16b;" horiz-adv-x="506" 
d="M65 40q-38 50 -38 149v361h150v-325q0 -89 70 -89q37 0 58 26t21 76v312h150v-550h-130l-15 79h-4q-24 -48 -55.5 -68.5t-86.5 -20.5q-82 0 -120 50zM107 738h292v-110h-292v110z" />
    <glyph glyph-name="Ubreve" unicode="&#x16c;" horiz-adv-x="574" 
d="M152.5 21q-58.5 31 -91.5 89t-33 137v503h150v-503q0 -53 30 -85t79 -32t79 32t30 85v503h150v-503q0 -79 -33 -137t-91.5 -89t-134.5 -31t-134.5 31zM174.5 852q-40.5 37 -35.5 98h88q-1 -25 16 -39t46 -14t45.5 14t15.5 39h84q5 -61 -35.5 -98t-111.5 -37
q-72 0 -112.5 37z" />
    <glyph glyph-name="ubreve" unicode="&#x16d;" horiz-adv-x="506" 
d="M65 40q-38 50 -38 149v361h150v-325q0 -89 70 -89q37 0 58 26t21 76v312h150v-550h-130l-15 79h-4q-24 -48 -55.5 -68.5t-86.5 -20.5q-82 0 -120 50zM140.5 652q-40.5 37 -35.5 98h86q-1 -25 16 -39t46 -14t45.5 14t15.5 39h86q5 -61 -35.5 -98t-111.5 -37
q-72 0 -112.5 37z" />
    <glyph glyph-name="Uring" unicode="&#x16e;" horiz-adv-x="574" 
d="M152.5 21q-58.5 31 -91.5 89t-33 137v503h150v-503q0 -53 30 -85t79 -32t79 32t30 85v503h150v-503q0 -79 -33 -137t-91.5 -89t-134.5 -31t-134.5 31zM213.5 831q-29.5 28 -29.5 70t29.5 70.5t73.5 28.5t73.5 -28.5t29.5 -70.5t-29.5 -70t-73.5 -28t-73.5 28zM314 873
q11 11 11 28t-11 28.5t-27 11.5t-27 -11.5t-11 -28.5t11 -28t27 -11t27 11z" />
    <glyph glyph-name="uring" unicode="&#x16f;" horiz-adv-x="506" 
d="M65 40q-38 50 -38 149v361h150v-325q0 -89 70 -89q37 0 58 26t21 76v312h150v-550h-130l-15 79h-4q-24 -48 -55.5 -68.5t-86.5 -20.5q-82 0 -120 50zM179.5 631q-29.5 28 -29.5 70t29.5 70.5t73.5 28.5t73.5 -28.5t29.5 -70.5t-29.5 -70t-73.5 -28t-73.5 28zM280 673
q11 11 11 28t-11 28.5t-27 11.5t-27 -11.5t-11 -28.5t11 -28t27 -11t27 11z" />
    <glyph glyph-name="Uhungarumlaut" unicode="&#x170;" horiz-adv-x="574" 
d="M152.5 21q-58.5 31 -91.5 89t-33 137v503h150v-503q0 -53 30 -85t79 -32t79 32t30 85v503h150v-503q0 -79 -33 -137t-91.5 -89t-134.5 -31t-134.5 31zM341 950h167l-116 -135h-71zM166 950h167l-116 -135h-71z" />
    <glyph glyph-name="uhungarumlaut" unicode="&#x171;" horiz-adv-x="506" 
d="M65 40q-38 50 -38 149v361h150v-325q0 -89 70 -89q37 0 58 26t21 76v312h150v-550h-130l-15 79h-4q-24 -48 -55.5 -68.5t-86.5 -20.5q-82 0 -120 50zM307 750h167l-116 -135h-71zM132 750h167l-116 -135h-71z" />
    <glyph glyph-name="Uogonek" unicode="&#x172;" horiz-adv-x="574" 
d="M344 -187q-67 0 -100 21.5t-33 60.5q0 53 71 95q-75 1 -132.5 32t-89.5 89t-32 136v503h150v-503q0 -53 30 -85t79 -32t79 32t30 85v503h150v-503q0 -96 -47.5 -160.5t-130.5 -86.5q-29 -24 -42 -40.5t-13 -30.5q0 -16 14 -26t42 -10v-79z" />
    <glyph glyph-name="uogonek" unicode="&#x173;" horiz-adv-x="506" 
d="M65 40q-38 50 -38 149v361h150v-325q0 -89 70 -89q37 0 58 26t21 76v312h150v-550q-30 -24 -43 -41t-13 -31q0 -16 14 -26t42 -10v-79l-25 -1q-67 0 -100 21.5t-33 60.5q0 61 91 106h-63l-15 79h-4q-24 -48 -55.5 -68.5t-86.5 -20.5q-82 0 -120 50z" />
    <glyph glyph-name="Wcircumflex" unicode="&#x174;" horiz-adv-x="768" 
d="M8 750h171l58 -498l64 498h174l63 -490l57 490h165l-137 -750h-175l-64 450l-63 -450h-175zM544 815h-102l-58 64l-58 -64h-102l91 135h138z" />
    <glyph glyph-name="wcircumflex" unicode="&#x175;" horiz-adv-x="782" 
d="M17 550h159l56 -370h4l81 370h154l81 -370h4l56 370h153l-113 -550h-192l-67 287h-4l-69 -287h-191zM551 615h-102l-58 64l-58 -64h-102l91 135h138z" />
    <glyph glyph-name="Ycircumflex" unicode="&#x176;" horiz-adv-x="547" 
d="M198 253l-202 497h172l108 -305l109 305h166l-203 -497v-253h-150v253zM433 815h-102l-58 64l-58 -64h-102l91 135h138z" />
    <glyph glyph-name="ycircumflex" unicode="&#x177;" horiz-adv-x="520" 
d="M185 45l-174 505h159l91 -296l89 296h159l-252 -730h-159zM420 615h-102l-58 64l-58 -64h-102l91 135h138z" />
    <glyph glyph-name="Ydieresis" unicode="&#x178;" horiz-adv-x="547" 
d="M198 253l-202 497h172l108 -305l109 305h166l-203 -497v-253h-150v253zM111.5 815.5q-23.5 23.5 -23.5 59.5q0 37 23.5 60t59.5 23q37 0 60 -23t23 -60q0 -36 -23 -59.5t-60 -23.5q-36 0 -59.5 23.5zM313.5 815.5q-23.5 23.5 -23.5 59.5q0 37 23.5 60t59.5 23
q37 0 60 -23t23 -60q0 -36 -23 -59.5t-60 -23.5q-36 0 -59.5 23.5z" />
    <glyph glyph-name="Zacute" unicode="&#x179;" horiz-adv-x="508" 
d="M22 105l275 505h-275v140h464v-105l-275 -505h275v-140h-464v105zM210 950h167l-116 -135h-71z" />
    <glyph glyph-name="zacute" unicode="&#x17a;" horiz-adv-x="462" 
d="M24 123l220 288h-216v139h402v-124l-221 -289h229v-137h-414v123zM187 750h167l-116 -135h-71z" />
    <glyph glyph-name="Zdotaccent" unicode="&#x17b;" horiz-adv-x="508" 
d="M22 105l275 505h-275v140h464v-105l-275 -505h275v-140h-464v105zM193 814q-24 24 -24 61t24 61t61 24q38 0 61.5 -23.5t23.5 -61.5q0 -37 -24 -61t-61 -24t-61 24z" />
    <glyph glyph-name="zdotaccent" unicode="&#x17c;" horiz-adv-x="462" 
d="M24 123l220 288h-216v139h402v-124l-221 -289h229v-137h-414v123zM170 614q-24 24 -24 61t24 61t61 24q38 0 61.5 -23.5t23.5 -61.5q0 -37 -24 -61t-61 -24t-61 24z" />
    <glyph glyph-name="Zcaron" unicode="&#x17d;" horiz-adv-x="508" 
d="M22 105l275 505h-275v140h464v-105l-275 -505h275v-140h-464v105zM94 950h102l58 -64l58 64h102l-91 -135h-138z" />
    <glyph glyph-name="zcaron" unicode="&#x17e;" horiz-adv-x="462" 
d="M24 123l220 288h-216v139h402v-124l-221 -289h229v-137h-414v123zM71 750h102l58 -64l58 64h102l-91 -135h-138z" />
    <glyph glyph-name="uni018F" unicode="&#x18f;" 
d="M149.5 20.5q-58.5 30.5 -91.5 87.5t-33 135v125h368v135q0 53 -30 85t-79 32t-79 -32t-30 -85v-53l-150 15v38q0 79 33 137t91.5 89t134.5 31t134.5 -31t91.5 -89t33 -137v-260q0 -78 -33 -135t-91.5 -87.5t-134.5 -30.5t-134.5 30.5zM363 162q30 32 30 85v21h-218v-21
q0 -53 30 -85t79 -32t79 32z" />
    <glyph glyph-name="florin" unicode="&#x192;" horiz-adv-x="440" 
d="M6 140h30q49 0 79 32t30 85v49h-139v140h139v51q0 78 33 135t91.5 87.5t134.5 30.5h30v-140h-30q-49 0 -79 -32t-30 -85v-47h139v-140h-139v-53q0 -78 -33 -135t-91.5 -87.5t-134.5 -30.5h-30v140z" />
    <glyph glyph-name="uni019D" unicode="&#x19d;" horiz-adv-x="588" 
d="M-68 -181v137h36q33 0 48.5 13.5t15.5 43.5v737h134l240 -427v427h150v-750h-134l-240 427v-433q0 -182 -170 -182q-28 0 -80 7z" />
    <glyph glyph-name="Ohorn" unicode="&#x1a0;" 
d="M149.5 21q-58.5 31 -91.5 89t-33 137v256q0 79 33 137t91.5 89t134.5 31q22 0 60 -6q36 -6 52 -6q31 0 46.5 15t15.5 44q0 26 -11 62h112q13 -45 13 -79q0 -87 -94 -117q65 -56 65 -170v-256q0 -79 -33 -137t-91.5 -89t-134.5 -31t-134.5 31zM363 162q30 32 30 85v256
q0 53 -30 85t-79 32t-79 -32t-30 -85v-256q0 -53 30 -85t79 -32t79 32z" />
    <glyph glyph-name="ohorn" unicode="&#x1a1;" horiz-adv-x="510" 
d="M132.5 19q-52.5 29 -82.5 80t-30 115v122q0 64 30 115t82.5 80t117.5 29q26 0 60 -8q26 -6 38 -6q60 0 60 59q0 28 -11 64h112q13 -45 13 -79q0 -41 -22 -71.5t-64 -46.5q44 -58 44 -136v-122q0 -64 -30 -115t-82.5 -80t-117.5 -29t-117.5 29zM192 155.5
q22 -25.5 58 -25.5t58 25.5t22 68.5v102q0 43 -22 68.5t-58 25.5t-58 -25.5t-22 -68.5v-102q0 -43 22 -68.5z" />
    <glyph glyph-name="Uhorn" unicode="&#x1af;" horiz-adv-x="588" 
d="M152.5 21q-58.5 31 -91.5 89t-33 137v503h150v-503q0 -53 30 -85t79 -32t79 32t30 85v503h41q31 0 48 14.5t17 42.5q0 26 -11 62h112q13 -45 13 -79q0 -38 -18 -66.5t-52 -44.5v-432q0 -79 -33 -137t-91.5 -89t-134.5 -31t-134.5 31z" />
    <glyph glyph-name="uhorn" unicode="&#x1b0;" horiz-adv-x="538" 
d="M65 40q-38 50 -38 149v361h150v-325q0 -89 70 -89q37 0 58 26t21 76v312h36q31 0 48 14.5t17 42.5q0 26 -11 62h112q13 -45 13 -79q0 -36 -16.5 -64t-48.5 -44v-482h-130l-15 79h-4q-24 -48 -55.5 -68.5t-86.5 -20.5q-82 0 -120 50z" />
    <glyph glyph-name="Gcaron" unicode="&#x1e6;" 
d="M149.5 23q-58.5 31 -91.5 89t-33 137v258q0 78 33 135t91.5 87.5t134.5 30.5q75 0 133.5 -30t91.5 -86.5t34 -133.5v-6l-150 -16v15q0 53 -30 85t-79 32t-79 -32t-30 -85v-254q0 -53 30 -85t79 -32t79 32t30 85v5h-96v140h246v-145q0 -79 -33 -137t-91.5 -89t-134.5 -31
t-134.5 31zM129 950h102l58 -64l58 64h102l-91 -135h-138z" />
    <glyph glyph-name="gcaron" unicode="&#x1e7;" horiz-adv-x="510" 
d="M91 -142.5q-54 47.5 -66 114.5l-1 6l143 24q4 -25 23 -43t54 -18q41 0 63.5 26.5t22.5 71.5v78h-3q-18 -45 -50 -62t-83 -17q-78 0 -126 55.5t-48 158.5v84q0 107 47.5 165.5t134.5 58.5q48 0 79 -20.5t56 -68.5h3v79h140v-516q0 -64 -28.5 -115t-80.5 -80t-119 -29
q-107 0 -161 47.5zM309.5 198q20.5 26 20.5 76v40q0 49 -21.5 75.5t-59.5 26.5q-37 0 -58 -25t-21 -69v-56q0 -43 22.5 -68.5t59.5 -25.5t57.5 26zM95 750h102l58 -64l58 64h102l-91 -135h-138z" />
    <glyph glyph-name="uni0218" unicode="&#x218;" horiz-adv-x="563" 
d="M152.5 15q-61.5 25 -97 75.5t-35.5 123.5v13l150 20v-17q0 -49 32 -75.5t91 -26.5q50 0 75 21.5t25 58.5q0 36 -24 56.5t-66 32.5l-87 26q-57 17 -96 37.5t-64.5 62t-25.5 109.5q0 70 31 121.5t87.5 79t130.5 27.5q76 0 132.5 -27.5t87 -77.5t30.5 -117v-15l-150 -20v26
q0 45 -29 69t-79 24q-43 0 -67 -20t-24 -55t24 -53.5t67 -30.5l72 -20q57 -16 99 -37.5t71.5 -66t29.5 -117.5q0 -116 -69.5 -174t-182.5 -58q-77 0 -138.5 25zM339 -143l-52 -116l-48 21l32 70q-26 3 -41 20.5t-15 44.5q0 29 19 48t48 19t48 -19t19 -48q0 -17 -10 -40z" />
    <glyph glyph-name="uni0219" unicode="&#x219;" horiz-adv-x="470" 
d="M77 36.5q-57 46.5 -57 121.5v4l148 24v-13q0 -29 18.5 -45.5t53.5 -16.5q60 0 60 44q0 16 -10 26t-33 16l-99 28q-65 18 -96 59t-31 99q0 85 59.5 131t148.5 46q58 0 102.5 -20.5t69 -56.5t24.5 -83v-4l-147 -23v13q0 24 -13 38.5t-41 14.5q-25 0 -38.5 -11.5
t-13.5 -31.5q0 -17 10 -27.5t32 -17.5l90 -27q68 -20 102.5 -56.5t34.5 -100.5q0 -81 -53 -129t-162 -48q-102 0 -159 46.5zM291 -143l-52 -116l-48 21l32 70q-26 3 -41 20.5t-15 44.5q0 29 19 48t48 19t48 -19t19 -48q0 -17 -10 -40z" />
    <glyph glyph-name="uni021A" unicode="&#x21a;" horiz-adv-x="512" 
d="M181 610h-175v140h500v-140h-175v-611h-150v611zM313 -143l-52 -116l-48 21l32 70q-26 3 -41 20.5t-15 44.5q0 29 19 48t48 19t48 -19t19 -48q0 -17 -10 -40z" />
    <glyph glyph-name="uni021B" unicode="&#x21b;" horiz-adv-x="379" 
d="M98 410h-80v140h80v105l150 45v-150h113v-140h-113v-410h-150v410zM228 -143l-52 -116l-48 21l32 70q-26 3 -41 20.5t-15 44.5q0 29 19 48t48 19t48 -19t19 -48q0 -17 -10 -40z" />
    <glyph glyph-name="uni0232" unicode="&#x232;" horiz-adv-x="547" 
d="M198 253l-202 497h172l108 -305l109 305h166l-203 -497v-253h-150v253zM127 938h292v-110h-292v110z" />
    <glyph glyph-name="uni0233" unicode="&#x233;" horiz-adv-x="520" 
d="M185 45l-174 505h159l91 -296l89 296h159l-252 -730h-159zM114 738h292v-110h-292v110z" />
    <glyph glyph-name="uni0237" unicode="&#x237;" horiz-adv-x="212" 
d="M-68 -181v137h36q33 0 48.5 13.5t15.5 43.5v537h150v-556q0 -182 -170 -182q-28 0 -80 7z" />
    <glyph glyph-name="uni0259" unicode="&#x259;" horiz-adv-x="500" 
d="M368 533.5q53 -26.5 82.5 -74t29.5 -107.5v-138q0 -64 -30 -115t-82.5 -80t-117.5 -29t-117.5 29t-82.5 80t-30 115v87h310v49q0 36 -23 58t-61 22q-34 0 -55 -22.5t-21 -57.5v-3l-146 11l1 20q2 51 31 92.5t78 65.5t112 24q69 0 122 -26.5zM192 146.5q22 -25.5 58 -25.5
t58 25.5t22 68.5v1h-160v-1q0 -43 22 -68.5z" />
    <glyph glyph-name="uni0272" unicode="&#x272;" horiz-adv-x="513" 
d="M-68 -181v137h36q33 0 48.5 13.5t15.5 43.5v537h143v-79h5q24 49 56 69t90 20q82 0 121 -50.5t39 -148.5v-361h-150v325q0 89 -72 89q-39 0 -60.5 -26t-21.5 -76v-318q0 -182 -170 -182q-28 0 -80 7z" />
    <glyph glyph-name="circumflex" unicode="&#x2c6;" horiz-adv-x="420" 
d="M370 615h-102l-58 64l-58 -64h-102l91 135h138z" />
    <glyph glyph-name="caron" unicode="&#x2c7;" horiz-adv-x="420" 
d="M50 750h102l58 -64l58 64h102l-91 -135h-138z" />
    <glyph glyph-name="breve" unicode="&#x2d8;" horiz-adv-x="397" 
d="M86.5 652q-40.5 37 -35.5 98h86q-1 -25 16 -39t46 -14t45.5 14t15.5 39h86q5 -61 -35.5 -98t-111.5 -37q-72 0 -112.5 37z" />
    <glyph glyph-name="dotaccent" unicode="&#x2d9;" horiz-adv-x="270" 
d="M74 614q-24 24 -24 61t24 61t61 24q38 0 61.5 -23.5t23.5 -61.5q0 -37 -24 -61t-61 -24t-61 24z" />
    <glyph glyph-name="ring" unicode="&#x2da;" horiz-adv-x="306" 
d="M79.5 631q-29.5 28 -29.5 70t29.5 70.5t73.5 28.5t73.5 -28.5t29.5 -70.5t-29.5 -70t-73.5 -28t-73.5 28zM180 673q11 11 11 28t-11 28.5t-27 11.5t-27 -11.5t-11 -28.5t11 -28t27 -11t27 11z" />
    <glyph glyph-name="ogonek" unicode="&#x2db;" horiz-adv-x="258" 
d="M183 -187q-67 0 -100 21.5t-33 60.5q0 65 102 111l56 -5q-30 -24 -43 -41t-13 -31q0 -16 14 -26t42 -10v-79z" />
    <glyph glyph-name="tilde" unicode="&#x2dc;" horiz-adv-x="438" 
d="M252 623.5q-24 7.5 -51 19.5q-31 14 -42 14q-12 0 -17.5 -7.5t-5.5 -30.5h-85q-1 9 -1 26q0 58 21.5 83t65.5 25q25 0 49 -7.5t51 -19.5q32 -14 42 -14q12 0 17.5 7.5t5.5 30.5h85q1 -9 1 -26q0 -58 -21.5 -83t-65.5 -25q-25 0 -49 7.5z" />
    <glyph glyph-name="hungarumlaut" unicode="&#x2dd;" horiz-adv-x="462" 
d="M245 750h167l-116 -135h-71zM70 750h167l-116 -135h-71z" />
    <glyph glyph-name="gravecomb" unicode="&#x300;" horiz-adv-x="0" 
d="M166 615l-116 135h167l20 -135h-71z" />
    <glyph glyph-name="acutecomb" unicode="&#x301;" horiz-adv-x="0" 
d="M70 750h167l-116 -135h-71z" />
    <glyph glyph-name="uni0302" unicode="&#x302;" horiz-adv-x="0" 
d="M370 615h-102l-58 64l-58 -64h-102l91 135h138z" />
    <glyph glyph-name="tildecomb" unicode="&#x303;" horiz-adv-x="0" 
d="M252 623.5q-24 7.5 -51 19.5q-31 14 -42 14q-12 0 -17.5 -7.5t-5.5 -30.5h-85q-1 9 -1 26q0 58 21.5 83t65.5 25q25 0 49 -7.5t51 -19.5q32 -14 42 -14q12 0 17.5 7.5t5.5 30.5h85q1 -9 1 -26q0 -58 -21.5 -83t-65.5 -25q-25 0 -49 7.5z" />
    <glyph glyph-name="uni0304" unicode="&#x304;" horiz-adv-x="0" 
d="M50 738h292v-110h-292v110z" />
    <glyph glyph-name="uni0306" unicode="&#x306;" horiz-adv-x="0" 
d="M86.5 652q-40.5 37 -35.5 98h86q-1 -25 16 -39t46 -14t45.5 14t15.5 39h86q5 -61 -35.5 -98t-111.5 -37q-72 0 -112.5 37z" />
    <glyph glyph-name="uni0307" unicode="&#x307;" horiz-adv-x="0" 
d="M74 614q-24 24 -24 61t24 61t61 24q38 0 61.5 -23.5t23.5 -61.5q0 -37 -24 -61t-61 -24t-61 24z" />
    <glyph glyph-name="uni0308" unicode="&#x308;" horiz-adv-x="0" 
d="M73.5 615.5q-23.5 23.5 -23.5 59.5q0 37 23.5 60t59.5 23q37 0 60 -23t23 -60q0 -36 -23 -59.5t-60 -23.5q-36 0 -59.5 23.5zM275.5 615.5q-23.5 23.5 -23.5 59.5q0 37 23.5 60t59.5 23q37 0 60 -23t23 -60q0 -36 -23 -59.5t-60 -23.5q-36 0 -59.5 23.5z" />
    <glyph glyph-name="hookabovecomb" unicode="&#x309;" horiz-adv-x="0" 
d="M96.5 667.5q11.5 6.5 11.5 19.5t-13.5 19t-44.5 6v83h15q143 0 143 -85q0 -63 -79 -75v-19h-69v44q25 1 36.5 7.5z" />
    <glyph glyph-name="uni030A" unicode="&#x30a;" horiz-adv-x="0" 
d="M79.5 631q-29.5 28 -29.5 70t29.5 70.5t73.5 28.5t73.5 -28.5t29.5 -70.5t-29.5 -70t-73.5 -28t-73.5 28zM180 673q11 11 11 28t-11 28.5t-27 11.5t-27 -11.5t-11 -28.5t11 -28t27 -11t27 11z" />
    <glyph glyph-name="uni030B" unicode="&#x30b;" horiz-adv-x="0" 
d="M245 750h167l-116 -135h-71zM70 750h167l-116 -135h-71z" />
    <glyph glyph-name="uni030C" unicode="&#x30c;" horiz-adv-x="0" 
d="M50 750h102l58 -64l58 64h102l-91 -135h-138z" />
    <glyph glyph-name="uni0312" unicode="&#x312;" horiz-adv-x="0" 
d="M69 609q-19 19 -19 48q0 17 10 40l52 116l48 -21l-32 -70q26 -3 41 -20.5t15 -44.5q0 -29 -19 -48t-48 -19t-48 19z" />
    <glyph glyph-name="uni031B" unicode="&#x31b;" horiz-adv-x="0" 
d="M50 550h1q31 0 48 14.5t17 42.5q0 26 -11 62h112q13 -45 13 -79q0 -60 -45.5 -95.5t-128.5 -35.5h-6v91z" />
    <glyph glyph-name="dotbelowcomb" unicode="&#x323;" horiz-adv-x="0" 
d="M71.5 -168.5q-21.5 21.5 -21.5 55.5t21.5 55.5t55.5 21.5t55.5 -21.5t21.5 -55.5t-21.5 -55.5t-55.5 -21.5t-55.5 21.5z" />
    <glyph glyph-name="uni0326" unicode="&#x326;" horiz-adv-x="0" 
d="M174 -143l-52 -116l-48 21l32 70q-26 3 -41 20.5t-15 44.5q0 29 19 48t48 19t48 -19t19 -48q0 -17 -10 -40z" />
    <glyph glyph-name="uni0327" unicode="&#x327;" horiz-adv-x="0" 
d="M217 -195h-167l116 135h71z" />
    <glyph glyph-name="uni0328" unicode="&#x328;" horiz-adv-x="0" 
d="M183 -187q-67 0 -100 21.5t-33 60.5q0 65 102 111l56 -5q-30 -24 -43 -41t-13 -31q0 -16 14 -26t42 -10v-79z" />
    <glyph glyph-name="uni0394" unicode="&#x394;" horiz-adv-x="565" 
d="M379 750l186 -750h-565l186 750h193zM364 120l-86 441l-88 -441h174z" />
    <glyph glyph-name="uni03A9" unicode="&#x3a9;" horiz-adv-x="562" 
d="M415.5 729q58.5 -31 91.5 -89t33 -137v-216q0 -106 -67 -157h77v-130h-249v150q89 16 89 117v236q0 53 -30 85t-79 32t-79 -32t-30 -85v-236q0 -101 89 -117v-150h-249v130h77q-67 51 -67 157v216q0 79 33 137t91.5 89t134.5 31t134.5 -31z" />
    <glyph glyph-name="uni03BC" unicode="&#x3bc;" horiz-adv-x="502" 
d="M30 550h150v-325q0 -89 70 -89q37 0 58 26t21 76v312h150v-550h-130l-15 79h-4q-24 -48 -55.5 -68.5t-86.5 -20.5h-8v-170h-150v730z" />
    <glyph glyph-name="pi" unicode="&#x3c0;" horiz-adv-x="626" 
d="M397 40q-41 45 -41 150v220h-89l-36 -410h-153l36 410h-102v140h596v-140h-106v-193q0 -33 13.5 -52t51.5 -19q15 0 31 3v-148q-36 -6 -74 -6q-86 0 -127 45z" />
    <glyph glyph-name="uni1E20" unicode="&#x1e20;" 
d="M149.5 23q-58.5 31 -91.5 89t-33 137v258q0 78 33 135t91.5 87.5t134.5 30.5q75 0 133.5 -30t91.5 -86.5t34 -133.5v-6l-150 -16v15q0 53 -30 85t-79 32t-79 -32t-30 -85v-254q0 -53 30 -85t79 -32t79 32t30 85v5h-96v140h246v-145q0 -79 -33 -137t-91.5 -89t-134.5 -31
t-134.5 31zM143 938h292v-110h-292v110z" />
    <glyph glyph-name="uni1E21" unicode="&#x1e21;" horiz-adv-x="510" 
d="M91 -142.5q-54 47.5 -66 114.5l-1 6l143 24q4 -25 23 -43t54 -18q41 0 63.5 26.5t22.5 71.5v78h-3q-18 -45 -50 -62t-83 -17q-78 0 -126 55.5t-48 158.5v84q0 107 47.5 165.5t134.5 58.5q48 0 79 -20.5t56 -68.5h3v79h140v-516q0 -64 -28.5 -115t-80.5 -80t-119 -29
q-107 0 -161 47.5zM309.5 198q20.5 26 20.5 76v40q0 49 -21.5 75.5t-59.5 26.5q-37 0 -58 -25t-21 -69v-56q0 -43 22.5 -68.5t59.5 -25.5t57.5 26zM109 738h292v-110h-292v110z" />
    <glyph glyph-name="Wgrave" unicode="&#x1e80;" horiz-adv-x="768" 
d="M8 750h171l58 -498l64 498h174l63 -490l57 490h165l-137 -750h-175l-64 450l-63 -450h-175zM367 815l-116 135h167l20 -135h-71z" />
    <glyph glyph-name="wgrave" unicode="&#x1e81;" horiz-adv-x="782" 
d="M17 550h159l56 -370h4l81 370h154l81 -370h4l56 370h153l-113 -550h-192l-67 287h-4l-69 -287h-191zM374 615l-116 135h167l20 -135h-71z" />
    <glyph glyph-name="Wacute" unicode="&#x1e82;" horiz-adv-x="768" 
d="M8 750h171l58 -498l64 498h174l63 -490l57 490h165l-137 -750h-175l-64 450l-63 -450h-175zM340 950h167l-116 -135h-71z" />
    <glyph glyph-name="wacute" unicode="&#x1e83;" horiz-adv-x="782" 
d="M17 550h159l56 -370h4l81 370h154l81 -370h4l56 370h153l-113 -550h-192l-67 287h-4l-69 -287h-191zM347 750h167l-116 -135h-71z" />
    <glyph glyph-name="Wdieresis" unicode="&#x1e84;" horiz-adv-x="768" 
d="M8 750h171l58 -498l64 498h174l63 -490l57 490h165l-137 -750h-175l-64 450l-63 -450h-175zM222.5 815.5q-23.5 23.5 -23.5 59.5q0 37 23.5 60t59.5 23q37 0 60 -23t23 -60q0 -36 -23 -59.5t-60 -23.5q-36 0 -59.5 23.5zM424.5 815.5q-23.5 23.5 -23.5 59.5q0 37 23.5 60
t59.5 23q37 0 60 -23t23 -60q0 -36 -23 -59.5t-60 -23.5q-36 0 -59.5 23.5z" />
    <glyph glyph-name="wdieresis" unicode="&#x1e85;" horiz-adv-x="782" 
d="M17 550h159l56 -370h4l81 370h154l81 -370h4l56 370h153l-113 -550h-192l-67 287h-4l-69 -287h-191zM229.5 615.5q-23.5 23.5 -23.5 59.5q0 37 23.5 60t59.5 23q37 0 60 -23t23 -60q0 -36 -23 -59.5t-60 -23.5q-36 0 -59.5 23.5zM431.5 615.5q-23.5 23.5 -23.5 59.5
q0 37 23.5 60t59.5 23q37 0 60 -23t23 -60q0 -36 -23 -59.5t-60 -23.5q-36 0 -59.5 23.5z" />
    <glyph glyph-name="uni1E9E" unicode="&#x1e9e;" horiz-adv-x="603" 
d="M390 152q41 25 41 72v3q0 40 -32.5 63.5t-87.5 23.5h-35v129h33q46 0 70.5 22t24.5 62v2q0 44 -29.5 67.5t-79.5 23.5q-28 0 -58.5 -7t-54.5 -21v-592h-150v693q63 33 134 50t129 17q77 0 136 -26t91 -73.5t32 -110.5v-2q0 -54 -23 -96t-64 -69q53 -25 83.5 -67
t30.5 -111v-3q0 -212 -305 -212v137q73 0 114 25z" />
    <glyph glyph-name="uni1EA0" unicode="&#x1ea0;" horiz-adv-x="565" 
d="M186 750h193l186 -750h-177l-20 101h-182l-20 -101h-166zM345 221l-67 340l-68 -340h135zM224.5 -168.5q-21.5 21.5 -21.5 55.5t21.5 55.5t55.5 21.5t55.5 -21.5t21.5 -55.5t-21.5 -55.5t-55.5 -21.5t-55.5 21.5z" />
    <glyph glyph-name="uni1EA1" unicode="&#x1ea1;" horiz-adv-x="486" 
d="M58 39q-42 44 -42 111v3q0 70 50 117.5t162 47.5h81v30q0 37 -16.5 57t-47.5 20q-34 0 -52.5 -20t-18.5 -57v-5l-148 25q0 51 25 94.5t76.5 70.5t125.5 27q100 0 153 -54.5t53 -151.5v-354h-130l-13 69h-5q-32 -37 -61 -55.5t-79 -18.5q-71 0 -113 44zM232 126
q34 0 55.5 17t21.5 47v33h-73q-34 0 -51.5 -12t-17.5 -35v-2q0 -48 65 -48zM187.5 -168.5q-21.5 21.5 -21.5 55.5t21.5 55.5t55.5 21.5t55.5 -21.5t21.5 -55.5t-21.5 -55.5t-55.5 -21.5t-55.5 21.5z" />
    <glyph glyph-name="uni1EA2" unicode="&#x1ea2;" horiz-adv-x="565" 
d="M186 750h193l186 -750h-177l-20 101h-182l-20 -101h-166zM345 221l-67 340l-68 -340h135zM285.5 867.5q11.5 6.5 11.5 19.5t-13.5 19t-44.5 6v83h15q143 0 143 -85q0 -63 -79 -75v-19h-69v44q25 1 36.5 7.5z" />
    <glyph glyph-name="uni1EA3" unicode="&#x1ea3;" horiz-adv-x="486" 
d="M58 39q-42 44 -42 111v3q0 70 50 117.5t162 47.5h81v30q0 37 -16.5 57t-47.5 20q-34 0 -52.5 -20t-18.5 -57v-5l-148 25q0 51 25 94.5t76.5 70.5t125.5 27q100 0 153 -54.5t53 -151.5v-354h-130l-13 69h-5q-32 -37 -61 -55.5t-79 -18.5q-71 0 -113 44zM232 126
q34 0 55.5 17t21.5 47v33h-73q-34 0 -51.5 -12t-17.5 -35v-2q0 -48 65 -48zM248.5 667.5q11.5 6.5 11.5 19.5t-13.5 19t-44.5 6v83h15q143 0 143 -85q0 -63 -79 -75v-19h-69v44q25 1 36.5 7.5z" />
    <glyph glyph-name="uni1EA4" unicode="&#x1ea4;" horiz-adv-x="565" 
d="M186 750h193l186 -750h-177l-20 101h-182l-20 -101h-166zM345 221l-67 340l-68 -340h135zM440 815h-102l-58 64l-58 -64h-102l91 135h138zM402 1060h142l-99 -115h-60z" />
    <glyph glyph-name="uni1EA5" unicode="&#x1ea5;" horiz-adv-x="486" 
d="M58 39q-42 44 -42 111v3q0 70 50 117.5t162 47.5h81v30q0 37 -16.5 57t-47.5 20q-34 0 -52.5 -20t-18.5 -57v-5l-148 25q0 51 25 94.5t76.5 70.5t125.5 27q100 0 153 -54.5t53 -151.5v-354h-130l-13 69h-5q-32 -37 -61 -55.5t-79 -18.5q-71 0 -113 44zM232 126
q34 0 55.5 17t21.5 47v33h-73q-34 0 -51.5 -12t-17.5 -35v-2q0 -48 65 -48zM403 615h-102l-58 64l-58 -64h-102l91 135h138zM365 860h142l-99 -115h-60z" />
    <glyph glyph-name="uni1EA6" unicode="&#x1ea6;" horiz-adv-x="565" 
d="M186 750h193l186 -750h-177l-20 101h-182l-20 -101h-166zM345 221l-67 340l-68 -340h135zM211 950h138l91 -135h-102l-58 64l-58 -64h-102zM325 1060h142l17 -115h-61z" />
    <glyph glyph-name="uni1EA7" unicode="&#x1ea7;" horiz-adv-x="486" 
d="M58 39q-42 44 -42 111v3q0 70 50 117.5t162 47.5h81v30q0 37 -16.5 57t-47.5 20q-34 0 -52.5 -20t-18.5 -57v-5l-148 25q0 51 25 94.5t76.5 70.5t125.5 27q100 0 153 -54.5t53 -151.5v-354h-130l-13 69h-5q-32 -37 -61 -55.5t-79 -18.5q-71 0 -113 44zM232 126
q34 0 55.5 17t21.5 47v33h-73q-34 0 -51.5 -12t-17.5 -35v-2q0 -48 65 -48zM174 750h138l91 -135h-102l-58 64l-58 -64h-102zM288 860h142l17 -115h-61z" />
    <glyph glyph-name="uni1EA8" unicode="&#x1ea8;" horiz-adv-x="565" 
d="M186 750h193l186 -750h-177l-20 101h-182l-20 -101h-166zM345 221l-67 340l-68 -340h135zM211 950h138l91 -135h-102l-58 64l-58 -64h-102zM439 978q11 6 11 19t-13.5 18.5t-42.5 5.5v79h14q138 0 138 -81q0 -62 -76 -72v-19h-66v43q24 1 35 7z" />
    <glyph glyph-name="uni1EA9" unicode="&#x1ea9;" horiz-adv-x="486" 
d="M58 39q-42 44 -42 111v3q0 70 50 117.5t162 47.5h81v30q0 37 -16.5 57t-47.5 20q-34 0 -52.5 -20t-18.5 -57v-5l-148 25q0 51 25 94.5t76.5 70.5t125.5 27q100 0 153 -54.5t53 -151.5v-354h-130l-13 69h-5q-32 -37 -61 -55.5t-79 -18.5q-71 0 -113 44zM232 126
q34 0 55.5 17t21.5 47v33h-73q-34 0 -51.5 -12t-17.5 -35v-2q0 -48 65 -48zM174 750h138l91 -135h-102l-58 64l-58 -64h-102zM402 778q11 6 11 19t-13.5 18.5t-42.5 5.5v79h14q138 0 138 -81q0 -62 -76 -72v-19h-66v43q24 1 35 7z" />
    <glyph glyph-name="uni1EAA" unicode="&#x1eaa;" horiz-adv-x="565" 
d="M186 750h193l186 -750h-177l-20 101h-182l-20 -101h-166zM345 221l-67 340l-68 -340h135zM211 950h138l91 -135h-102l-58 64l-58 -64h-102zM310.5 996q-21.5 7 -47.5 18q-30 13 -37 13q-11 0 -16 -7t-5 -28h-78q-1 8 -1 23q0 53 19.5 76t60.5 23q22 0 41 -6t49 -18
q3 -1 17 -7t22 -6q11 0 16 6.5t5 27.5h77q1 -8 1 -23q0 -53 -19.5 -76t-59.5 -23q-23 0 -44.5 7z" />
    <glyph glyph-name="uni1EAB" unicode="&#x1eab;" horiz-adv-x="486" 
d="M58 39q-42 44 -42 111v3q0 70 50 117.5t162 47.5h81v30q0 37 -16.5 57t-47.5 20q-34 0 -52.5 -20t-18.5 -57v-5l-148 25q0 51 25 94.5t76.5 70.5t125.5 27q100 0 153 -54.5t53 -151.5v-354h-130l-13 69h-5q-32 -37 -61 -55.5t-79 -18.5q-71 0 -113 44zM232 126
q34 0 55.5 17t21.5 47v33h-73q-34 0 -51.5 -12t-17.5 -35v-2q0 -48 65 -48zM174 750h138l91 -135h-102l-58 64l-58 -64h-102zM273.5 796q-21.5 7 -47.5 18q-30 13 -37 13q-11 0 -16 -7t-5 -28h-78q-1 8 -1 23q0 53 19.5 76t60.5 23q22 0 41 -6t49 -18q3 -1 17 -7t22 -6
q11 0 16 6.5t5 27.5h77q1 -8 1 -23q0 -53 -19.5 -76t-59.5 -23q-23 0 -44.5 7z" />
    <glyph glyph-name="uni1EAC" unicode="&#x1eac;" horiz-adv-x="565" 
d="M186 750h193l186 -750h-177l-20 101h-182l-20 -101h-166zM345 221l-67 340l-68 -340h135zM224.5 -168.5q-21.5 21.5 -21.5 55.5t21.5 55.5t55.5 21.5t55.5 -21.5t21.5 -55.5t-21.5 -55.5t-55.5 -21.5t-55.5 21.5zM440 815h-102l-58 64l-58 -64h-102l91 135h138z" />
    <glyph glyph-name="uni1EAD" unicode="&#x1ead;" horiz-adv-x="486" 
d="M58 39q-42 44 -42 111v3q0 70 50 117.5t162 47.5h81v30q0 37 -16.5 57t-47.5 20q-34 0 -52.5 -20t-18.5 -57v-5l-148 25q0 51 25 94.5t76.5 70.5t125.5 27q100 0 153 -54.5t53 -151.5v-354h-130l-13 69h-5q-32 -37 -61 -55.5t-79 -18.5q-71 0 -113 44zM232 126
q34 0 55.5 17t21.5 47v33h-73q-34 0 -51.5 -12t-17.5 -35v-2q0 -48 65 -48zM187.5 -168.5q-21.5 21.5 -21.5 55.5t21.5 55.5t55.5 21.5t55.5 -21.5t21.5 -55.5t-21.5 -55.5t-55.5 -21.5t-55.5 21.5zM403 615h-102l-58 64l-58 -64h-102l91 135h138z" />
    <glyph glyph-name="uni1EAE" unicode="&#x1eae;" horiz-adv-x="565" 
d="M186 750h193l186 -750h-177l-20 101h-182l-20 -101h-166zM345 221l-67 340l-68 -340h135zM167.5 852q-40.5 37 -35.5 98h86q-1 -25 16 -39t46 -14t45.5 14t15.5 39h86q5 -61 -35.5 -98t-111.5 -37q-72 0 -112.5 37zM257 1087h142l-99 -115h-60z" />
    <glyph glyph-name="uni1EAF" unicode="&#x1eaf;" horiz-adv-x="486" 
d="M58 39q-42 44 -42 111v3q0 70 50 117.5t162 47.5h81v30q0 37 -16.5 57t-47.5 20q-34 0 -52.5 -20t-18.5 -57v-5l-148 25q0 51 25 94.5t76.5 70.5t125.5 27q100 0 153 -54.5t53 -151.5v-354h-130l-13 69h-5q-32 -37 -61 -55.5t-79 -18.5q-71 0 -113 44zM232 126
q34 0 55.5 17t21.5 47v33h-73q-34 0 -51.5 -12t-17.5 -35v-2q0 -48 65 -48zM130.5 652q-40.5 37 -35.5 98h86q-1 -25 16 -39t46 -14t45.5 14t15.5 39h86q5 -61 -35.5 -98t-111.5 -37q-72 0 -112.5 37zM220 887h142l-99 -115h-60z" />
    <glyph glyph-name="uni1EB0" unicode="&#x1eb0;" horiz-adv-x="565" 
d="M186 750h193l186 -750h-177l-20 101h-182l-20 -101h-166zM345 221l-67 340l-68 -340h135zM167.5 852q-40.5 37 -35.5 98h86q-1 -25 16 -39t46 -14t45.5 14t15.5 39h86q5 -61 -35.5 -98t-111.5 -37q-72 0 -112.5 37zM258 972l-98 115h142l17 -115h-61z" />
    <glyph glyph-name="uni1EB1" unicode="&#x1eb1;" horiz-adv-x="486" 
d="M58 39q-42 44 -42 111v3q0 70 50 117.5t162 47.5h81v30q0 37 -16.5 57t-47.5 20q-34 0 -52.5 -20t-18.5 -57v-5l-148 25q0 51 25 94.5t76.5 70.5t125.5 27q100 0 153 -54.5t53 -151.5v-354h-130l-13 69h-5q-32 -37 -61 -55.5t-79 -18.5q-71 0 -113 44zM232 126
q34 0 55.5 17t21.5 47v33h-73q-34 0 -51.5 -12t-17.5 -35v-2q0 -48 65 -48zM130.5 652q-40.5 37 -35.5 98h86q-1 -25 16 -39t46 -14t45.5 14t15.5 39h86q5 -61 -35.5 -98t-111.5 -37q-72 0 -112.5 37zM221 772l-98 115h142l17 -115h-61z" />
    <glyph glyph-name="uni1EB2" unicode="&#x1eb2;" horiz-adv-x="565" 
d="M186 750h193l186 -750h-177l-20 101h-182l-20 -101h-166zM345 221l-67 340l-68 -340h135zM167.5 852q-40.5 37 -35.5 98h86q-1 -25 16 -39t46 -14t45.5 14t15.5 39h86q5 -61 -35.5 -98t-111.5 -37q-72 0 -112.5 37zM285.5 1019.5q10.5 5.5 10.5 17.5q0 13 -12.5 18
t-41.5 5v77h14q132 0 132 -79q0 -30 -19 -47t-54 -22v-18h-64v41q24 2 34.5 7.5z" />
    <glyph glyph-name="uni1EB3" unicode="&#x1eb3;" horiz-adv-x="486" 
d="M58 39q-42 44 -42 111v3q0 70 50 117.5t162 47.5h81v30q0 37 -16.5 57t-47.5 20q-34 0 -52.5 -20t-18.5 -57v-5l-148 25q0 51 25 94.5t76.5 70.5t125.5 27q100 0 153 -54.5t53 -151.5v-354h-130l-13 69h-5q-32 -37 -61 -55.5t-79 -18.5q-71 0 -113 44zM232 126
q34 0 55.5 17t21.5 47v33h-73q-34 0 -51.5 -12t-17.5 -35v-2q0 -48 65 -48zM130.5 652q-40.5 37 -35.5 98h86q-1 -25 16 -39t46 -14t45.5 14t15.5 39h86q5 -61 -35.5 -98t-111.5 -37q-72 0 -112.5 37zM248.5 819.5q10.5 5.5 10.5 17.5q0 13 -12.5 18t-41.5 5v77h14
q132 0 132 -79q0 -30 -19 -47t-54 -22v-18h-64v41q24 2 34.5 7.5z" />
    <glyph glyph-name="uni1EB4" unicode="&#x1eb4;" horiz-adv-x="565" 
d="M186 750h193l186 -750h-177l-20 101h-182l-20 -101h-166zM345 221l-67 340l-68 -340h135zM161.5 852q-40.5 37 -35.5 98h86q-1 -25 16 -39t46 -14t45.5 14t15.5 39h86q5 -61 -35.5 -98t-111.5 -37q-72 0 -112.5 37zM309.5 994q-21.5 7 -47.5 18q-30 13 -37 13
q-11 0 -16 -7t-5 -28h-78q-1 8 -1 23q0 53 19.5 76t60.5 23q22 0 41 -6t49 -18q3 -1 17 -7t22 -6q11 0 16 6.5t5 27.5h77q1 -8 1 -23q0 -53 -19.5 -76t-59.5 -23q-23 0 -44.5 7z" />
    <glyph glyph-name="uni1EB5" unicode="&#x1eb5;" horiz-adv-x="486" 
d="M58 39q-42 44 -42 111v3q0 70 50 117.5t162 47.5h81v30q0 37 -16.5 57t-47.5 20q-34 0 -52.5 -20t-18.5 -57v-5l-148 25q0 51 25 94.5t76.5 70.5t125.5 27q100 0 153 -54.5t53 -151.5v-354h-130l-13 69h-5q-32 -37 -61 -55.5t-79 -18.5q-71 0 -113 44zM232 126
q34 0 55.5 17t21.5 47v33h-73q-34 0 -51.5 -12t-17.5 -35v-2q0 -48 65 -48zM124.5 652q-40.5 37 -35.5 98h86q-1 -25 16 -39t46 -14t45.5 14t15.5 39h86q5 -61 -35.5 -98t-111.5 -37q-72 0 -112.5 37zM272.5 794q-21.5 7 -47.5 18q-30 13 -37 13q-11 0 -16 -7t-5 -28h-78
q-1 8 -1 23q0 53 19.5 76t60.5 23q22 0 41 -6t49 -18q3 -1 17 -7t22 -6q11 0 16 6.5t5 27.5h77q1 -8 1 -23q0 -53 -19.5 -76t-59.5 -23q-23 0 -44.5 7z" />
    <glyph glyph-name="uni1EB6" unicode="&#x1eb6;" horiz-adv-x="565" 
d="M186 750h193l186 -750h-177l-20 101h-182l-20 -101h-166zM345 221l-67 340l-68 -340h135zM224.5 -168.5q-21.5 21.5 -21.5 55.5t21.5 55.5t55.5 21.5t55.5 -21.5t21.5 -55.5t-21.5 -55.5t-55.5 -21.5t-55.5 21.5zM167.5 852q-40.5 37 -35.5 98h88q-1 -25 16 -39t46 -14
t45.5 14t15.5 39h84q5 -61 -35.5 -98t-111.5 -37q-72 0 -112.5 37z" />
    <glyph glyph-name="uni1EB7" unicode="&#x1eb7;" horiz-adv-x="486" 
d="M58 39q-42 44 -42 111v3q0 70 50 117.5t162 47.5h81v30q0 37 -16.5 57t-47.5 20q-34 0 -52.5 -20t-18.5 -57v-5l-148 25q0 51 25 94.5t76.5 70.5t125.5 27q100 0 153 -54.5t53 -151.5v-354h-130l-13 69h-5q-32 -37 -61 -55.5t-79 -18.5q-71 0 -113 44zM232 126
q34 0 55.5 17t21.5 47v33h-73q-34 0 -51.5 -12t-17.5 -35v-2q0 -48 65 -48zM187.5 -168.5q-21.5 21.5 -21.5 55.5t21.5 55.5t55.5 21.5t55.5 -21.5t21.5 -55.5t-21.5 -55.5t-55.5 -21.5t-55.5 21.5zM130.5 652q-40.5 37 -35.5 98h86q-1 -25 16 -39t46 -14t45.5 14t15.5 39
h86q5 -61 -35.5 -98t-111.5 -37q-72 0 -112.5 37z" />
    <glyph glyph-name="uni1EB8" unicode="&#x1eb8;" horiz-adv-x="486" 
d="M32 750h430v-140h-280v-157h210v-138h-210v-175h282v-140h-432v750zM187.5 -168.5q-21.5 21.5 -21.5 55.5t21.5 55.5t55.5 21.5t55.5 -21.5t21.5 -55.5t-21.5 -55.5t-55.5 -21.5t-55.5 21.5z" />
    <glyph glyph-name="uni1EB9" unicode="&#x1eb9;" horiz-adv-x="500" 
d="M132 16.5q-53 26.5 -82.5 74t-29.5 107.5v138q0 64 30 115t82.5 80t117.5 29t117.5 -29t82.5 -80t30 -115v-87h-310v-49q0 -36 23 -58t61 -22q34 0 55 22.5t21 57.5v3l146 -11l-1 -20q-2 -51 -31 -92.5t-78 -65.5t-112 -24q-69 0 -122 26.5zM330 334v1q0 43 -22 68.5
t-58 25.5t-58 -25.5t-22 -68.5v-1h160zM194.5 -168.5q-21.5 21.5 -21.5 55.5t21.5 55.5t55.5 21.5t55.5 -21.5t21.5 -55.5t-21.5 -55.5t-55.5 -21.5t-55.5 21.5z" />
    <glyph glyph-name="uni1EBA" unicode="&#x1eba;" horiz-adv-x="486" 
d="M32 750h430v-140h-280v-157h210v-138h-210v-175h282v-140h-432v750zM254.5 867.5q11.5 6.5 11.5 19.5t-13.5 19t-44.5 6v83h15q143 0 143 -85q0 -63 -79 -75v-19h-69v44q25 1 36.5 7.5z" />
    <glyph glyph-name="uni1EBB" unicode="&#x1ebb;" horiz-adv-x="500" 
d="M132 16.5q-53 26.5 -82.5 74t-29.5 107.5v138q0 64 30 115t82.5 80t117.5 29t117.5 -29t82.5 -80t30 -115v-87h-310v-49q0 -36 23 -58t61 -22q34 0 55 22.5t21 57.5v3l146 -11l-1 -20q-2 -51 -31 -92.5t-78 -65.5t-112 -24q-69 0 -122 26.5zM330 334v1q0 43 -22 68.5
t-58 25.5t-58 -25.5t-22 -68.5v-1h160zM255.5 667.5q11.5 6.5 11.5 19.5t-13.5 19t-44.5 6v83h15q143 0 143 -85q0 -63 -79 -75v-19h-69v44q25 1 36.5 7.5z" />
    <glyph glyph-name="uni1EBC" unicode="&#x1ebc;" horiz-adv-x="486" 
d="M32 750h430v-140h-280v-157h210v-138h-210v-175h282v-140h-432v750zM282 823.5q-24 7.5 -51 19.5q-31 14 -42 14q-12 0 -17.5 -7.5t-5.5 -30.5h-85q-1 9 -1 26q0 58 21.5 83t65.5 25q25 0 49 -7.5t51 -19.5q32 -14 42 -14q12 0 17.5 7.5t5.5 30.5h85q1 -9 1 -26
q0 -58 -21.5 -83t-65.5 -25q-25 0 -49 7.5z" />
    <glyph glyph-name="uni1EBD" unicode="&#x1ebd;" horiz-adv-x="500" 
d="M132 16.5q-53 26.5 -82.5 74t-29.5 107.5v138q0 64 30 115t82.5 80t117.5 29t117.5 -29t82.5 -80t30 -115v-87h-310v-49q0 -36 23 -58t61 -22q34 0 55 22.5t21 57.5v3l146 -11l-1 -20q-2 -51 -31 -92.5t-78 -65.5t-112 -24q-69 0 -122 26.5zM330 334v1q0 43 -22 68.5
t-58 25.5t-58 -25.5t-22 -68.5v-1h160zM283 623.5q-24 7.5 -51 19.5q-31 14 -42 14q-12 0 -17.5 -7.5t-5.5 -30.5h-85q-1 9 -1 26q0 58 21.5 83t65.5 25q25 0 49 -7.5t51 -19.5q32 -14 42 -14q12 0 17.5 7.5t5.5 30.5h85q1 -9 1 -26q0 -58 -21.5 -83t-65.5 -25
q-25 0 -49 7.5z" />
    <glyph glyph-name="uni1EBE" unicode="&#x1ebe;" horiz-adv-x="486" 
d="M32 750h430v-140h-280v-157h210v-138h-210v-175h282v-140h-432v750zM409 815h-102l-58 64l-58 -64h-102l91 135h138zM371 1060h142l-99 -115h-60z" />
    <glyph glyph-name="uni1EBF" unicode="&#x1ebf;" horiz-adv-x="500" 
d="M132 16.5q-53 26.5 -82.5 74t-29.5 107.5v138q0 64 30 115t82.5 80t117.5 29t117.5 -29t82.5 -80t30 -115v-87h-310v-49q0 -36 23 -58t61 -22q34 0 55 22.5t21 57.5v3l146 -11l-1 -20q-2 -51 -31 -92.5t-78 -65.5t-112 -24q-69 0 -122 26.5zM330 334v1q0 43 -22 68.5
t-58 25.5t-58 -25.5t-22 -68.5v-1h160zM410 615h-102l-58 64l-58 -64h-102l91 135h138zM372 860h142l-99 -115h-60z" />
    <glyph glyph-name="uni1EC0" unicode="&#x1ec0;" horiz-adv-x="486" 
d="M32 750h430v-140h-280v-157h210v-138h-210v-175h282v-140h-432v750zM180 950h138l91 -135h-102l-58 64l-58 -64h-102zM294 1060h142l17 -115h-61z" />
    <glyph glyph-name="uni1EC1" unicode="&#x1ec1;" horiz-adv-x="500" 
d="M132 16.5q-53 26.5 -82.5 74t-29.5 107.5v138q0 64 30 115t82.5 80t117.5 29t117.5 -29t82.5 -80t30 -115v-87h-310v-49q0 -36 23 -58t61 -22q34 0 55 22.5t21 57.5v3l146 -11l-1 -20q-2 -51 -31 -92.5t-78 -65.5t-112 -24q-69 0 -122 26.5zM330 334v1q0 43 -22 68.5
t-58 25.5t-58 -25.5t-22 -68.5v-1h160zM181 750h138l91 -135h-102l-58 64l-58 -64h-102zM295 860h142l17 -115h-61z" />
    <glyph glyph-name="uni1EC2" unicode="&#x1ec2;" horiz-adv-x="486" 
d="M32 750h430v-140h-280v-157h210v-138h-210v-175h282v-140h-432v750zM180 950h138l91 -135h-102l-58 64l-58 -64h-102zM408 978q11 6 11 19t-13.5 18.5t-42.5 5.5v79h14q138 0 138 -81q0 -62 -76 -72v-19h-66v43q24 1 35 7z" />
    <glyph glyph-name="uni1EC3" unicode="&#x1ec3;" horiz-adv-x="500" 
d="M132 16.5q-53 26.5 -82.5 74t-29.5 107.5v138q0 64 30 115t82.5 80t117.5 29t117.5 -29t82.5 -80t30 -115v-87h-310v-49q0 -36 23 -58t61 -22q34 0 55 22.5t21 57.5v3l146 -11l-1 -20q-2 -51 -31 -92.5t-78 -65.5t-112 -24q-69 0 -122 26.5zM330 334v1q0 43 -22 68.5
t-58 25.5t-58 -25.5t-22 -68.5v-1h160zM181 750h138l91 -135h-102l-58 64l-58 -64h-102zM409 778q11 6 11 19t-13.5 18.5t-42.5 5.5v79h14q138 0 138 -81q0 -62 -76 -72v-19h-66v43q24 1 35 7z" />
    <glyph glyph-name="uni1EC4" unicode="&#x1ec4;" horiz-adv-x="486" 
d="M32 750h430v-140h-280v-157h210v-138h-210v-175h282v-140h-432v750zM180 950h138l91 -135h-102l-58 64l-58 -64h-102zM279.5 996q-21.5 7 -47.5 18q-30 13 -37 13q-11 0 -16 -7t-5 -28h-78q-1 8 -1 23q0 53 19.5 76t60.5 23q22 0 41 -6t49 -18q3 -1 17 -7t22 -6
q11 0 16 6.5t5 27.5h77q1 -8 1 -23q0 -53 -19.5 -76t-59.5 -23q-23 0 -44.5 7z" />
    <glyph glyph-name="uni1EC5" unicode="&#x1ec5;" horiz-adv-x="500" 
d="M132 16.5q-53 26.5 -82.5 74t-29.5 107.5v138q0 64 30 115t82.5 80t117.5 29t117.5 -29t82.5 -80t30 -115v-87h-310v-49q0 -36 23 -58t61 -22q34 0 55 22.5t21 57.5v3l146 -11l-1 -20q-2 -51 -31 -92.5t-78 -65.5t-112 -24q-69 0 -122 26.5zM330 334v1q0 43 -22 68.5
t-58 25.5t-58 -25.5t-22 -68.5v-1h160zM181 750h138l91 -135h-102l-58 64l-58 -64h-102zM280.5 796q-21.5 7 -47.5 18q-30 13 -37 13q-11 0 -16 -7t-5 -28h-78q-1 8 -1 23q0 53 19.5 76t60.5 23q22 0 41 -6t49 -18q3 -1 17 -7t22 -6q11 0 16 6.5t5 27.5h77q1 -8 1 -23
q0 -53 -19.5 -76t-59.5 -23q-23 0 -44.5 7z" />
    <glyph glyph-name="uni1EC6" unicode="&#x1ec6;" horiz-adv-x="486" 
d="M32 750h430v-140h-280v-157h210v-138h-210v-175h282v-140h-432v750zM187.5 -168.5q-21.5 21.5 -21.5 55.5t21.5 55.5t55.5 21.5t55.5 -21.5t21.5 -55.5t-21.5 -55.5t-55.5 -21.5t-55.5 21.5zM409 815h-102l-58 64l-58 -64h-102l91 135h138z" />
    <glyph glyph-name="uni1EC7" unicode="&#x1ec7;" horiz-adv-x="500" 
d="M132 16.5q-53 26.5 -82.5 74t-29.5 107.5v138q0 64 30 115t82.5 80t117.5 29t117.5 -29t82.5 -80t30 -115v-87h-310v-49q0 -36 23 -58t61 -22q34 0 55 22.5t21 57.5v3l146 -11l-1 -20q-2 -51 -31 -92.5t-78 -65.5t-112 -24q-69 0 -122 26.5zM330 334v1q0 43 -22 68.5
t-58 25.5t-58 -25.5t-22 -68.5v-1h160zM194.5 -168.5q-21.5 21.5 -21.5 55.5t21.5 55.5t55.5 21.5t55.5 -21.5t21.5 -55.5t-21.5 -55.5t-55.5 -21.5t-55.5 21.5zM410 615h-102l-58 64l-58 -64h-102l91 135h138z" />
    <glyph glyph-name="uni1EC8" unicode="&#x1ec8;" horiz-adv-x="214" 
d="M32 750h150v-750h-150v750zM112.5 867.5q11.5 6.5 11.5 19.5t-13.5 19t-44.5 6v83h15q143 0 143 -85q0 -63 -79 -75v-19h-69v44q25 1 36.5 7.5z" />
    <glyph glyph-name="uni1EC9" unicode="&#x1ec9;" horiz-adv-x="210" 
d="M180 0h-150v550h150v-550zM110.5 667.5q11.5 6.5 11.5 19.5t-13.5 19t-44.5 6v83h15q143 0 143 -85q0 -63 -79 -75v-19h-69v44q25 1 36.5 7.5z" />
    <glyph glyph-name="uni1ECA" unicode="&#x1eca;" horiz-adv-x="214" 
d="M32 750h150v-750h-150v750zM51.5 -168.5q-21.5 21.5 -21.5 55.5t21.5 55.5t55.5 21.5t55.5 -21.5t21.5 -55.5t-21.5 -55.5t-55.5 -21.5t-55.5 21.5z" />
    <glyph glyph-name="uni1ECB" unicode="&#x1ecb;" horiz-adv-x="210" 
d="M30 550h150v-550h-150v550zM44 614q-24 24 -24 61t24 61t61 24q38 0 61.5 -23.5t23.5 -61.5q0 -37 -24 -61t-61 -24t-61 24zM49.5 -168.5q-21.5 21.5 -21.5 55.5t21.5 55.5t55.5 21.5t55.5 -21.5t21.5 -55.5t-21.5 -55.5t-55.5 -21.5t-55.5 21.5z" />
    <glyph glyph-name="uni1ECC" unicode="&#x1ecc;" 
d="M149.5 21q-58.5 31 -91.5 89t-33 137v256q0 79 33 137t91.5 89t134.5 31t134.5 -31t91.5 -89t33 -137v-256q0 -79 -33 -137t-91.5 -89t-134.5 -31t-134.5 31zM363 162q30 32 30 85v256q0 53 -30 85t-79 32t-79 -32t-30 -85v-256q0 -53 30 -85t79 -32t79 32zM228.5 -168.5
q-21.5 21.5 -21.5 55.5t21.5 55.5t55.5 21.5t55.5 -21.5t21.5 -55.5t-21.5 -55.5t-55.5 -21.5t-55.5 21.5z" />
    <glyph glyph-name="uni1ECD" unicode="&#x1ecd;" horiz-adv-x="500" 
d="M132.5 19q-52.5 29 -82.5 80t-30 115v122q0 64 30 115t82.5 80t117.5 29t117.5 -29t82.5 -80t30 -115v-122q0 -64 -30 -115t-82.5 -80t-117.5 -29t-117.5 29zM192 155.5q22 -25.5 58 -25.5t58 25.5t22 68.5v102q0 43 -22 68.5t-58 25.5t-58 -25.5t-22 -68.5v-102
q0 -43 22 -68.5zM194.5 -168.5q-21.5 21.5 -21.5 55.5t21.5 55.5t55.5 21.5t55.5 -21.5t21.5 -55.5t-21.5 -55.5t-55.5 -21.5t-55.5 21.5z" />
    <glyph glyph-name="uni1ECE" unicode="&#x1ece;" 
d="M149.5 21q-58.5 31 -91.5 89t-33 137v256q0 79 33 137t91.5 89t134.5 31t134.5 -31t91.5 -89t33 -137v-256q0 -79 -33 -137t-91.5 -89t-134.5 -31t-134.5 31zM363 162q30 32 30 85v256q0 53 -30 85t-79 32t-79 -32t-30 -85v-256q0 -53 30 -85t79 -32t79 32zM289.5 867.5
q11.5 6.5 11.5 19.5t-13.5 19t-44.5 6v83h15q143 0 143 -85q0 -63 -79 -75v-19h-69v44q25 1 36.5 7.5z" />
    <glyph glyph-name="uni1ECF" unicode="&#x1ecf;" horiz-adv-x="500" 
d="M132.5 19q-52.5 29 -82.5 80t-30 115v122q0 64 30 115t82.5 80t117.5 29t117.5 -29t82.5 -80t30 -115v-122q0 -64 -30 -115t-82.5 -80t-117.5 -29t-117.5 29zM192 155.5q22 -25.5 58 -25.5t58 25.5t22 68.5v102q0 43 -22 68.5t-58 25.5t-58 -25.5t-22 -68.5v-102
q0 -43 22 -68.5zM255.5 667.5q11.5 6.5 11.5 19.5t-13.5 19t-44.5 6v83h15q143 0 143 -85q0 -63 -79 -75v-19h-69v44q25 1 36.5 7.5z" />
    <glyph glyph-name="uni1ED0" unicode="&#x1ed0;" 
d="M149.5 21q-58.5 31 -91.5 89t-33 137v256q0 79 33 137t91.5 89t134.5 31t134.5 -31t91.5 -89t33 -137v-256q0 -79 -33 -137t-91.5 -89t-134.5 -31t-134.5 31zM363 162q30 32 30 85v256q0 53 -30 85t-79 32t-79 -32t-30 -85v-256q0 -53 30 -85t79 -32t79 32zM444 815h-102
l-58 64l-58 -64h-102l91 135h138zM406 1060h142l-99 -115h-60z" />
    <glyph glyph-name="uni1ED1" unicode="&#x1ed1;" horiz-adv-x="500" 
d="M132.5 19q-52.5 29 -82.5 80t-30 115v122q0 64 30 115t82.5 80t117.5 29t117.5 -29t82.5 -80t30 -115v-122q0 -64 -30 -115t-82.5 -80t-117.5 -29t-117.5 29zM192 155.5q22 -25.5 58 -25.5t58 25.5t22 68.5v102q0 43 -22 68.5t-58 25.5t-58 -25.5t-22 -68.5v-102
q0 -43 22 -68.5zM410 615h-102l-58 64l-58 -64h-102l91 135h138zM372 860h142l-99 -115h-60z" />
    <glyph glyph-name="uni1ED2" unicode="&#x1ed2;" 
d="M149.5 21q-58.5 31 -91.5 89t-33 137v256q0 79 33 137t91.5 89t134.5 31t134.5 -31t91.5 -89t33 -137v-256q0 -79 -33 -137t-91.5 -89t-134.5 -31t-134.5 31zM363 162q30 32 30 85v256q0 53 -30 85t-79 32t-79 -32t-30 -85v-256q0 -53 30 -85t79 -32t79 32zM215 950h138
l91 -135h-102l-58 64l-58 -64h-102zM329 1060h142l17 -115h-61z" />
    <glyph glyph-name="uni1ED3" unicode="&#x1ed3;" horiz-adv-x="500" 
d="M132.5 19q-52.5 29 -82.5 80t-30 115v122q0 64 30 115t82.5 80t117.5 29t117.5 -29t82.5 -80t30 -115v-122q0 -64 -30 -115t-82.5 -80t-117.5 -29t-117.5 29zM192 155.5q22 -25.5 58 -25.5t58 25.5t22 68.5v102q0 43 -22 68.5t-58 25.5t-58 -25.5t-22 -68.5v-102
q0 -43 22 -68.5zM181 750h138l91 -135h-102l-58 64l-58 -64h-102zM295 860h142l17 -115h-61z" />
    <glyph glyph-name="uni1ED4" unicode="&#x1ed4;" 
d="M149.5 21q-58.5 31 -91.5 89t-33 137v256q0 79 33 137t91.5 89t134.5 31t134.5 -31t91.5 -89t33 -137v-256q0 -79 -33 -137t-91.5 -89t-134.5 -31t-134.5 31zM363 162q30 32 30 85v256q0 53 -30 85t-79 32t-79 -32t-30 -85v-256q0 -53 30 -85t79 -32t79 32zM215 950h138
l91 -135h-102l-58 64l-58 -64h-102zM443 978q11 6 11 19t-13.5 18.5t-42.5 5.5v79h14q138 0 138 -81q0 -62 -76 -72v-19h-66v43q24 1 35 7z" />
    <glyph glyph-name="uni1ED5" unicode="&#x1ed5;" horiz-adv-x="500" 
d="M132.5 19q-52.5 29 -82.5 80t-30 115v122q0 64 30 115t82.5 80t117.5 29t117.5 -29t82.5 -80t30 -115v-122q0 -64 -30 -115t-82.5 -80t-117.5 -29t-117.5 29zM192 155.5q22 -25.5 58 -25.5t58 25.5t22 68.5v102q0 43 -22 68.5t-58 25.5t-58 -25.5t-22 -68.5v-102
q0 -43 22 -68.5zM181 750h138l91 -135h-102l-58 64l-58 -64h-102zM409 778q11 6 11 19t-13.5 18.5t-42.5 5.5v79h14q138 0 138 -81q0 -62 -76 -72v-19h-66v43q24 1 35 7z" />
    <glyph glyph-name="uni1ED6" unicode="&#x1ed6;" 
d="M149.5 21q-58.5 31 -91.5 89t-33 137v256q0 79 33 137t91.5 89t134.5 31t134.5 -31t91.5 -89t33 -137v-256q0 -79 -33 -137t-91.5 -89t-134.5 -31t-134.5 31zM363 162q30 32 30 85v256q0 53 -30 85t-79 32t-79 -32t-30 -85v-256q0 -53 30 -85t79 -32t79 32zM215 950h138
l91 -135h-102l-58 64l-58 -64h-102zM314.5 996q-21.5 7 -47.5 18q-30 13 -37 13q-11 0 -16 -7t-5 -28h-78q-1 8 -1 23q0 53 19.5 76t60.5 23q22 0 41 -6t49 -18q3 -1 17 -7t22 -6q11 0 16 6.5t5 27.5h77q1 -8 1 -23q0 -53 -19.5 -76t-59.5 -23q-23 0 -44.5 7z" />
    <glyph glyph-name="uni1ED7" unicode="&#x1ed7;" horiz-adv-x="500" 
d="M132.5 19q-52.5 29 -82.5 80t-30 115v122q0 64 30 115t82.5 80t117.5 29t117.5 -29t82.5 -80t30 -115v-122q0 -64 -30 -115t-82.5 -80t-117.5 -29t-117.5 29zM192 155.5q22 -25.5 58 -25.5t58 25.5t22 68.5v102q0 43 -22 68.5t-58 25.5t-58 -25.5t-22 -68.5v-102
q0 -43 22 -68.5zM181 750h138l91 -135h-102l-58 64l-58 -64h-102zM280.5 796q-21.5 7 -47.5 18q-30 13 -37 13q-11 0 -16 -7t-5 -28h-78q-1 8 -1 23q0 53 19.5 76t60.5 23q22 0 41 -6t49 -18q3 -1 17 -7t22 -6q11 0 16 6.5t5 27.5h77q1 -8 1 -23q0 -53 -19.5 -76t-59.5 -23
q-23 0 -44.5 7z" />
    <glyph glyph-name="uni1ED8" unicode="&#x1ed8;" 
d="M149.5 21q-58.5 31 -91.5 89t-33 137v256q0 79 33 137t91.5 89t134.5 31t134.5 -31t91.5 -89t33 -137v-256q0 -79 -33 -137t-91.5 -89t-134.5 -31t-134.5 31zM363 162q30 32 30 85v256q0 53 -30 85t-79 32t-79 -32t-30 -85v-256q0 -53 30 -85t79 -32t79 32zM228.5 -168.5
q-21.5 21.5 -21.5 55.5t21.5 55.5t55.5 21.5t55.5 -21.5t21.5 -55.5t-21.5 -55.5t-55.5 -21.5t-55.5 21.5zM444 815h-102l-58 64l-58 -64h-102l91 135h138z" />
    <glyph glyph-name="uni1ED9" unicode="&#x1ed9;" horiz-adv-x="500" 
d="M132.5 19q-52.5 29 -82.5 80t-30 115v122q0 64 30 115t82.5 80t117.5 29t117.5 -29t82.5 -80t30 -115v-122q0 -64 -30 -115t-82.5 -80t-117.5 -29t-117.5 29zM192 155.5q22 -25.5 58 -25.5t58 25.5t22 68.5v102q0 43 -22 68.5t-58 25.5t-58 -25.5t-22 -68.5v-102
q0 -43 22 -68.5zM194.5 -168.5q-21.5 21.5 -21.5 55.5t21.5 55.5t55.5 21.5t55.5 -21.5t21.5 -55.5t-21.5 -55.5t-55.5 -21.5t-55.5 21.5zM410 615h-102l-58 64l-58 -64h-102l91 135h138z" />
    <glyph glyph-name="uni1EDA" unicode="&#x1eda;" 
d="M149.5 21q-58.5 31 -91.5 89t-33 137v256q0 79 33 137t91.5 89t134.5 31q22 0 60 -6q36 -6 52 -6q31 0 46.5 15t15.5 44q0 26 -11 62h112q13 -45 13 -79q0 -87 -94 -117q65 -56 65 -170v-256q0 -79 -33 -137t-91.5 -89t-134.5 -31t-134.5 31zM363 162q30 32 30 85v256
q0 53 -30 85t-79 32t-79 -32t-30 -85v-256q0 -53 30 -85t79 -32t79 32zM240 950h167l-116 -135h-71z" />
    <glyph glyph-name="uni1EDB" unicode="&#x1edb;" horiz-adv-x="510" 
d="M132.5 19q-52.5 29 -82.5 80t-30 115v122q0 64 30 115t82.5 80t117.5 29q26 0 60 -8q26 -6 38 -6q60 0 60 59q0 28 -11 64h112q13 -45 13 -79q0 -41 -22 -71.5t-64 -46.5q44 -58 44 -136v-122q0 -64 -30 -115t-82.5 -80t-117.5 -29t-117.5 29zM192 155.5
q22 -25.5 58 -25.5t58 25.5t22 68.5v102q0 43 -22 68.5t-58 25.5t-58 -25.5t-22 -68.5v-102q0 -43 22 -68.5zM208 750h167l-116 -135h-71z" />
    <glyph glyph-name="uni1EDC" unicode="&#x1edc;" 
d="M149.5 21q-58.5 31 -91.5 89t-33 137v256q0 79 33 137t91.5 89t134.5 31q22 0 60 -6q36 -6 52 -6q31 0 46.5 15t15.5 44q0 26 -11 62h112q13 -45 13 -79q0 -87 -94 -117q65 -56 65 -170v-256q0 -79 -33 -137t-91.5 -89t-134.5 -31t-134.5 31zM363 162q30 32 30 85v256
q0 53 -30 85t-79 32t-79 -32t-30 -85v-256q0 -53 30 -85t79 -32t79 32zM267 815l-116 135h167l20 -135h-71z" />
    <glyph glyph-name="uni1EDD" unicode="&#x1edd;" horiz-adv-x="510" 
d="M132.5 19q-52.5 29 -82.5 80t-30 115v122q0 64 30 115t82.5 80t117.5 29q26 0 60 -8q26 -6 38 -6q60 0 60 59q0 28 -11 64h112q13 -45 13 -79q0 -41 -22 -71.5t-64 -46.5q44 -58 44 -136v-122q0 -64 -30 -115t-82.5 -80t-117.5 -29t-117.5 29zM192 155.5
q22 -25.5 58 -25.5t58 25.5t22 68.5v102q0 43 -22 68.5t-58 25.5t-58 -25.5t-22 -68.5v-102q0 -43 22 -68.5zM235 615l-116 135h167l20 -135h-71z" />
    <glyph glyph-name="uni1EDE" unicode="&#x1ede;" 
d="M149.5 21q-58.5 31 -91.5 89t-33 137v256q0 79 33 137t91.5 89t134.5 31q22 0 60 -6q36 -6 52 -6q31 0 46.5 15t15.5 44q0 26 -11 62h112q13 -45 13 -79q0 -87 -94 -117q65 -56 65 -170v-256q0 -79 -33 -137t-91.5 -89t-134.5 -31t-134.5 31zM363 162q30 32 30 85v256
q0 53 -30 85t-79 32t-79 -32t-30 -85v-256q0 -53 30 -85t79 -32t79 32zM289.5 867.5q11.5 6.5 11.5 19.5t-13.5 19t-44.5 6v83h15q143 0 143 -85q0 -63 -79 -75v-19h-69v44q25 1 36.5 7.5z" />
    <glyph glyph-name="uni1EDF" unicode="&#x1edf;" horiz-adv-x="510" 
d="M132.5 19q-52.5 29 -82.5 80t-30 115v122q0 64 30 115t82.5 80t117.5 29q26 0 60 -8q26 -6 38 -6q60 0 60 59q0 28 -11 64h112q13 -45 13 -79q0 -41 -22 -71.5t-64 -46.5q44 -58 44 -136v-122q0 -64 -30 -115t-82.5 -80t-117.5 -29t-117.5 29zM192 155.5
q22 -25.5 58 -25.5t58 25.5t22 68.5v102q0 43 -22 68.5t-58 25.5t-58 -25.5t-22 -68.5v-102q0 -43 22 -68.5zM257.5 667.5q11.5 6.5 11.5 19.5t-13.5 19t-44.5 6v83h15q143 0 143 -85q0 -63 -79 -75v-19h-69v44q25 1 36.5 7.5z" />
    <glyph glyph-name="uni1EE0" unicode="&#x1ee0;" 
d="M149.5 21q-58.5 31 -91.5 89t-33 137v256q0 79 33 137t91.5 89t134.5 31q22 0 60 -6q36 -6 52 -6q31 0 46.5 15t15.5 44q0 26 -11 62h112q13 -45 13 -79q0 -87 -94 -117q65 -56 65 -170v-256q0 -79 -33 -137t-91.5 -89t-134.5 -31t-134.5 31zM363 162q30 32 30 85v256
q0 53 -30 85t-79 32t-79 -32t-30 -85v-256q0 -53 30 -85t79 -32t79 32zM317 823.5q-24 7.5 -51 19.5q-31 14 -42 14q-12 0 -17.5 -7.5t-5.5 -30.5h-85q-1 9 -1 26q0 58 21.5 83t65.5 25q25 0 49 -7.5t51 -19.5q32 -14 42 -14q12 0 17.5 7.5t5.5 30.5h85q1 -9 1 -26
q0 -58 -21.5 -83t-65.5 -25q-25 0 -49 7.5z" />
    <glyph glyph-name="uni1EE1" unicode="&#x1ee1;" horiz-adv-x="510" 
d="M132.5 19q-52.5 29 -82.5 80t-30 115v122q0 64 30 115t82.5 80t117.5 29q26 0 60 -8q26 -6 38 -6q60 0 60 59q0 28 -11 64h112q13 -45 13 -79q0 -41 -22 -71.5t-64 -46.5q44 -58 44 -136v-122q0 -64 -30 -115t-82.5 -80t-117.5 -29t-117.5 29zM192 155.5
q22 -25.5 58 -25.5t58 25.5t22 68.5v102q0 43 -22 68.5t-58 25.5t-58 -25.5t-22 -68.5v-102q0 -43 22 -68.5zM261 626q-15 8 -33 22q-3 2 -12.5 8.5t-15.5 6.5q-8 0 -15 -8t-7 -29h-75l-1 19q0 53 22.5 81.5t64.5 28.5q17 0 32 -8t33 -22q3 -2 12.5 -8.5t15.5 -6.5q8 0 15 8
t7 29h75l1 -19q0 -53 -22.5 -81.5t-64.5 -28.5q-17 0 -32 8z" />
    <glyph glyph-name="uni1EE2" unicode="&#x1ee2;" 
d="M149.5 21q-58.5 31 -91.5 89t-33 137v256q0 79 33 137t91.5 89t134.5 31q22 0 60 -6q36 -6 52 -6q31 0 46.5 15t15.5 44q0 26 -11 62h112q13 -45 13 -79q0 -87 -94 -117q65 -56 65 -170v-256q0 -79 -33 -137t-91.5 -89t-134.5 -31t-134.5 31zM363 162q30 32 30 85v256
q0 53 -30 85t-79 32t-79 -32t-30 -85v-256q0 -53 30 -85t79 -32t79 32zM228.5 -168.5q-21.5 21.5 -21.5 55.5t21.5 55.5t55.5 21.5t55.5 -21.5t21.5 -55.5t-21.5 -55.5t-55.5 -21.5t-55.5 21.5z" />
    <glyph glyph-name="uni1EE3" unicode="&#x1ee3;" horiz-adv-x="510" 
d="M132.5 19q-52.5 29 -82.5 80t-30 115v122q0 64 30 115t82.5 80t117.5 29q26 0 60 -8q26 -6 38 -6q60 0 60 59q0 28 -11 64h112q13 -45 13 -79q0 -41 -22 -71.5t-64 -46.5q44 -58 44 -136v-122q0 -64 -30 -115t-82.5 -80t-117.5 -29t-117.5 29zM192 155.5
q22 -25.5 58 -25.5t58 25.5t22 68.5v102q0 43 -22 68.5t-58 25.5t-58 -25.5t-22 -68.5v-102q0 -43 22 -68.5zM195.5 -168.5q-21.5 21.5 -21.5 55.5t21.5 55.5t55.5 21.5t55.5 -21.5t21.5 -55.5t-21.5 -55.5t-55.5 -21.5t-55.5 21.5z" />
    <glyph glyph-name="uni1EE4" unicode="&#x1ee4;" horiz-adv-x="574" 
d="M152.5 21q-58.5 31 -91.5 89t-33 137v503h150v-503q0 -53 30 -85t79 -32t79 32t30 85v503h150v-503q0 -79 -33 -137t-91.5 -89t-134.5 -31t-134.5 31zM231.5 -168.5q-21.5 21.5 -21.5 55.5t21.5 55.5t55.5 21.5t55.5 -21.5t21.5 -55.5t-21.5 -55.5t-55.5 -21.5
t-55.5 21.5z" />
    <glyph glyph-name="uni1EE5" unicode="&#x1ee5;" horiz-adv-x="506" 
d="M65 40q-38 50 -38 149v361h150v-325q0 -89 70 -89q37 0 58 26t21 76v312h150v-550h-130l-15 79h-4q-24 -48 -55.5 -68.5t-86.5 -20.5q-82 0 -120 50zM197.5 -168.5q-21.5 21.5 -21.5 55.5t21.5 55.5t55.5 21.5t55.5 -21.5t21.5 -55.5t-21.5 -55.5t-55.5 -21.5t-55.5 21.5
z" />
    <glyph glyph-name="uni1EE6" unicode="&#x1ee6;" horiz-adv-x="574" 
d="M152.5 21q-58.5 31 -91.5 89t-33 137v503h150v-503q0 -53 30 -85t79 -32t79 32t30 85v503h150v-503q0 -79 -33 -137t-91.5 -89t-134.5 -31t-134.5 31zM292.5 867.5q11.5 6.5 11.5 19.5t-13.5 19t-44.5 6v83h15q143 0 143 -85q0 -63 -79 -75v-19h-69v44q25 1 36.5 7.5z
" />
    <glyph glyph-name="uni1EE7" unicode="&#x1ee7;" horiz-adv-x="506" 
d="M65 40q-38 50 -38 149v361h150v-325q0 -89 70 -89q37 0 58 26t21 76v312h150v-550h-130l-15 79h-4q-24 -48 -55.5 -68.5t-86.5 -20.5q-82 0 -120 50zM258.5 667.5q11.5 6.5 11.5 19.5t-13.5 19t-44.5 6v83h15q143 0 143 -85q0 -63 -79 -75v-19h-69v44q25 1 36.5 7.5z" />
    <glyph glyph-name="uni1EE8" unicode="&#x1ee8;" horiz-adv-x="588" 
d="M152.5 21q-58.5 31 -91.5 89t-33 137v503h150v-503q0 -53 30 -85t79 -32t79 32t30 85v503h41q31 0 48 14.5t17 42.5q0 26 -11 62h112q13 -45 13 -79q0 -38 -18 -66.5t-52 -44.5v-432q0 -79 -33 -137t-91.5 -89t-134.5 -31t-134.5 31zM243 950h167l-116 -135h-71z" />
    <glyph glyph-name="uni1EE9" unicode="&#x1ee9;" horiz-adv-x="538" 
d="M65 40q-38 50 -38 149v361h150v-325q0 -89 70 -89q37 0 58 26t21 76v312h36q31 0 48 14.5t17 42.5q0 26 -11 62h112q13 -45 13 -79q0 -36 -16.5 -64t-48.5 -44v-482h-130l-15 79h-4q-24 -48 -55.5 -68.5t-86.5 -20.5q-82 0 -120 50zM209 750h167l-116 -135h-71z" />
    <glyph glyph-name="uni1EEA" unicode="&#x1eea;" horiz-adv-x="588" 
d="M152.5 21q-58.5 31 -91.5 89t-33 137v503h150v-503q0 -53 30 -85t79 -32t79 32t30 85v503h41q31 0 48 14.5t17 42.5q0 26 -11 62h112q13 -45 13 -79q0 -38 -18 -66.5t-52 -44.5v-432q0 -79 -33 -137t-91.5 -89t-134.5 -31t-134.5 31zM270 815l-116 135h167l20 -135h-71z
" />
    <glyph glyph-name="uni1EEB" unicode="&#x1eeb;" horiz-adv-x="538" 
d="M65 40q-38 50 -38 149v361h150v-325q0 -89 70 -89q37 0 58 26t21 76v312h36q31 0 48 14.5t17 42.5q0 26 -11 62h112q13 -45 13 -79q0 -36 -16.5 -64t-48.5 -44v-482h-130l-15 79h-4q-24 -48 -55.5 -68.5t-86.5 -20.5q-82 0 -120 50zM236 615l-116 135h167l20 -135h-71z
" />
    <glyph glyph-name="uni1EEC" unicode="&#x1eec;" horiz-adv-x="588" 
d="M152.5 21q-58.5 31 -91.5 89t-33 137v503h150v-503q0 -53 30 -85t79 -32t79 32t30 85v503h41q31 0 48 14.5t17 42.5q0 26 -11 62h112q13 -45 13 -79q0 -38 -18 -66.5t-52 -44.5v-432q0 -79 -33 -137t-91.5 -89t-134.5 -31t-134.5 31zM292.5 867.5q11.5 6.5 11.5 19.5
t-13.5 19t-44.5 6v83h15q143 0 143 -85q0 -63 -79 -75v-19h-69v44q25 1 36.5 7.5z" />
    <glyph glyph-name="uni1EED" unicode="&#x1eed;" horiz-adv-x="538" 
d="M65 40q-38 50 -38 149v361h150v-325q0 -89 70 -89q37 0 58 26t21 76v312h36q31 0 48 14.5t17 42.5q0 26 -11 62h112q13 -45 13 -79q0 -36 -16.5 -64t-48.5 -44v-482h-130l-15 79h-4q-24 -48 -55.5 -68.5t-86.5 -20.5q-82 0 -120 50zM258.5 637.5q11.5 6.5 11.5 19.5
t-13.5 19t-44.5 6v83h15q143 0 143 -85q0 -63 -79 -75v-19h-69v44q25 1 36.5 7.5z" />
    <glyph glyph-name="uni1EEE" unicode="&#x1eee;" horiz-adv-x="588" 
d="M152.5 21q-58.5 31 -91.5 89t-33 137v503h150v-503q0 -53 30 -85t79 -32t79 32t30 85v503h41q31 0 48 14.5t17 42.5q0 26 -11 62h112q13 -45 13 -79q0 -38 -18 -66.5t-52 -44.5v-432q0 -79 -33 -137t-91.5 -89t-134.5 -31t-134.5 31zM320 823.5q-24 7.5 -51 19.5
q-31 14 -42 14q-12 0 -17.5 -7.5t-5.5 -30.5h-85q-1 9 -1 26q0 58 21.5 83t65.5 25q25 0 49 -7.5t51 -19.5q32 -14 42 -14q12 0 17.5 7.5t5.5 30.5h85q1 -9 1 -26q0 -58 -21.5 -83t-65.5 -25q-25 0 -49 7.5z" />
    <glyph glyph-name="uni1EEF" unicode="&#x1eef;" horiz-adv-x="538" 
d="M65 40q-38 50 -38 149v361h150v-325q0 -89 70 -89q37 0 58 26t21 76v312h36q31 0 48 14.5t17 42.5q0 26 -11 62h112q13 -45 13 -79q0 -36 -16.5 -64t-48.5 -44v-482h-130l-15 79h-4q-24 -48 -55.5 -68.5t-86.5 -20.5q-82 0 -120 50zM273 626q-15 8 -33 22q-3 2 -12.5 8.5
t-15.5 6.5q-8 0 -15 -8t-7 -29h-75l-1 19q0 53 22.5 81.5t64.5 28.5q17 0 32 -8t33 -22q3 -2 12.5 -8.5t15.5 -6.5q8 0 15 8t7 29h75l1 -19q0 -53 -22.5 -81.5t-64.5 -28.5q-17 0 -32 8z" />
    <glyph glyph-name="uni1EF0" unicode="&#x1ef0;" horiz-adv-x="588" 
d="M152.5 21q-58.5 31 -91.5 89t-33 137v503h150v-503q0 -53 30 -85t79 -32t79 32t30 85v503h41q31 0 48 14.5t17 42.5q0 26 -11 62h112q13 -45 13 -79q0 -38 -18 -66.5t-52 -44.5v-432q0 -79 -33 -137t-91.5 -89t-134.5 -31t-134.5 31zM231.5 -168.5q-21.5 21.5 -21.5 55.5
t21.5 55.5t55.5 21.5t55.5 -21.5t21.5 -55.5t-21.5 -55.5t-55.5 -21.5t-55.5 21.5z" />
    <glyph glyph-name="uni1EF1" unicode="&#x1ef1;" horiz-adv-x="538" 
d="M65 40q-38 50 -38 149v361h150v-325q0 -89 70 -89q37 0 58 26t21 76v312h36q31 0 48 14.5t17 42.5q0 26 -11 62h112q13 -45 13 -79q0 -36 -16.5 -64t-48.5 -44v-482h-130l-15 79h-4q-24 -48 -55.5 -68.5t-86.5 -20.5q-82 0 -120 50zM197.5 -168.5q-21.5 21.5 -21.5 55.5
t21.5 55.5t55.5 21.5t55.5 -21.5t21.5 -55.5t-21.5 -55.5t-55.5 -21.5t-55.5 21.5z" />
    <glyph glyph-name="Ygrave" unicode="&#x1ef2;" horiz-adv-x="547" 
d="M198 253l-202 497h172l108 -305l109 305h166l-203 -497v-253h-150v253zM256 815l-116 135h167l20 -135h-71z" />
    <glyph glyph-name="ygrave" unicode="&#x1ef3;" horiz-adv-x="520" 
d="M185 45l-174 505h159l91 -296l89 296h159l-252 -730h-159zM243 615l-116 135h167l20 -135h-71z" />
    <glyph glyph-name="uni1EF4" unicode="&#x1ef4;" horiz-adv-x="547" 
d="M198 253l-202 497h172l108 -305l109 305h166l-203 -497v-253h-150v253zM217.5 -168.5q-21.5 21.5 -21.5 55.5t21.5 55.5t55.5 21.5t55.5 -21.5t21.5 -55.5t-21.5 -55.5t-55.5 -21.5t-55.5 21.5z" />
    <glyph glyph-name="uni1EF5" unicode="&#x1ef5;" horiz-adv-x="520" 
d="M185 45l-174 505h159l91 -296l89 296h159l-252 -730h-159zM404.5 -168.5q-21.5 21.5 -21.5 55.5t21.5 55.5t55.5 21.5t55.5 -21.5t21.5 -55.5t-21.5 -55.5t-55.5 -21.5t-55.5 21.5z" />
    <glyph glyph-name="uni1EF6" unicode="&#x1ef6;" horiz-adv-x="547" 
d="M198 253l-202 497h172l108 -305l109 305h166l-203 -497v-253h-150v253zM278.5 867.5q11.5 6.5 11.5 19.5t-13.5 19t-44.5 6v83h15q143 0 143 -85q0 -63 -79 -75v-19h-69v44q25 1 36.5 7.5z" />
    <glyph glyph-name="uni1EF7" unicode="&#x1ef7;" horiz-adv-x="520" 
d="M185 45l-174 505h159l91 -296l89 296h159l-252 -730h-159zM265.5 667.5q11.5 6.5 11.5 19.5t-13.5 19t-44.5 6v83h15q143 0 143 -85q0 -63 -79 -75v-19h-69v44q25 1 36.5 7.5z" />
    <glyph glyph-name="uni1EF8" unicode="&#x1ef8;" horiz-adv-x="547" 
d="M198 253l-202 497h172l108 -305l109 305h166l-203 -497v-253h-150v253zM306 823.5q-24 7.5 -51 19.5q-31 14 -42 14q-12 0 -17.5 -7.5t-5.5 -30.5h-85q-1 9 -1 26q0 58 21.5 83t65.5 25q25 0 49 -7.5t51 -19.5q32 -14 42 -14q12 0 17.5 7.5t5.5 30.5h85q1 -9 1 -26
q0 -58 -21.5 -83t-65.5 -25q-25 0 -49 7.5z" />
    <glyph glyph-name="uni1EF9" unicode="&#x1ef9;" horiz-adv-x="520" 
d="M185 45l-174 505h159l91 -296l89 296h159l-252 -730h-159zM293 623.5q-24 7.5 -51 19.5q-31 14 -42 14q-12 0 -17.5 -7.5t-5.5 -30.5h-85q-1 9 -1 26q0 58 21.5 83t65.5 25q25 0 49 -7.5t51 -19.5q32 -14 42 -14q12 0 17.5 7.5t5.5 30.5h85q1 -9 1 -26q0 -58 -21.5 -83
t-65.5 -25q-25 0 -49 7.5z" />
    <glyph glyph-name="uni2000" unicode="&#x2000;" horiz-adv-x="500" 
 />
    <glyph glyph-name="uni2001" unicode="&#x2001;" horiz-adv-x="1000" 
 />
    <glyph glyph-name="uni2002" unicode="&#x2002;" horiz-adv-x="500" 
 />
    <glyph glyph-name="uni2003" unicode="&#x2003;" horiz-adv-x="1000" 
 />
    <glyph glyph-name="uni2004" unicode="&#x2004;" horiz-adv-x="333" 
 />
    <glyph glyph-name="uni2005" unicode="&#x2005;" horiz-adv-x="250" 
 />
    <glyph glyph-name="uni2006" unicode="&#x2006;" horiz-adv-x="167" 
 />
    <glyph glyph-name="uni2007" unicode="&#x2007;" 
 />
    <glyph glyph-name="uni2008" unicode="&#x2008;" horiz-adv-x="226" 
 />
    <glyph glyph-name="uni2009" unicode="&#x2009;" horiz-adv-x="200" 
 />
    <glyph glyph-name="uni200A" unicode="&#x200a;" horiz-adv-x="143" 
 />
    <glyph glyph-name="uni200B" unicode="&#x200b;" horiz-adv-x="0" 
 />
    <glyph glyph-name="endash" unicode="&#x2013;" horiz-adv-x="386" 
d="M358 392v-136h-330v136h330z" />
    <glyph glyph-name="emdash" unicode="&#x2014;" horiz-adv-x="486" 
d="M458 392v-136h-430v136h430z" />
    <glyph glyph-name="quoteleft" unicode="&#x2018;" horiz-adv-x="215" 
d="M28 600l70 156l64 -28l-42 -94q35 -4 55 -28t20 -60q0 -40 -25.5 -65t-64.5 -25t-64.5 25t-25.5 65q0 25 13 54z" />
    <glyph glyph-name="quoteright" unicode="&#x2019;" horiz-adv-x="215" 
d="M187 612l-70 -156l-64 28l42 94q-35 4 -55 28t-20 60q0 40 25.5 65t64.5 25t64.5 -25t25.5 -65q0 -25 -13 -54z" />
    <glyph glyph-name="quotesinglbase" unicode="&#x201a;" horiz-adv-x="223" 
d="M187 31l-70 -156l-64 28l42 94q-35 4 -55 28t-20 60q0 40 25.5 65t64.5 25t64.5 -25t25.5 -65q0 -25 -13 -54z" />
    <glyph glyph-name="quotedblleft" unicode="&#x201c;" horiz-adv-x="415" 
d="M28 600l70 156l64 -28l-42 -94q35 -4 55 -28t20 -60q0 -40 -25.5 -65t-64.5 -25t-64.5 25t-25.5 65q0 25 13 54zM228 600l70 156l64 -28l-42 -94q35 -4 55 -28t20 -60q0 -40 -25.5 -65t-64.5 -25t-64.5 25t-25.5 65q0 25 13 54z" />
    <glyph glyph-name="quotedblright" unicode="&#x201d;" horiz-adv-x="415" 
d="M187 612l-70 -156l-64 28l42 94q-35 4 -55 28t-20 60q0 40 25.5 65t64.5 25t64.5 -25t25.5 -65q0 -25 -13 -54zM387 612l-70 -156l-64 28l42 94q-35 4 -55 28t-20 60q0 40 25.5 65t64.5 25t64.5 -25t25.5 -65q0 -25 -13 -54z" />
    <glyph glyph-name="quotedblbase" unicode="&#x201e;" horiz-adv-x="423" 
d="M387 31l-70 -156l-64 28l42 94q-35 4 -55 28t-20 60q0 40 25.5 65t64.5 25t64.5 -25t25.5 -65q0 -25 -13 -54zM187 31l-70 -156l-64 28l42 94q-35 4 -55 28t-20 60q0 40 25.5 65t64.5 25t64.5 -25t25.5 -65q0 -25 -13 -54z" />
    <glyph glyph-name="dagger" unicode="&#x2020;" horiz-adv-x="412" 
d="M406 409h-125v-310h-150v310h-125v140h125v200h150v-200h125v-140z" />
    <glyph glyph-name="daggerdbl" unicode="&#x2021;" horiz-adv-x="412" 
d="M281 610h125v-140h-400v140h125v140h150v-140zM6 380h400v-140h-125v-150h-150v150h-125v140z" />
    <glyph glyph-name="bullet" unicode="&#x2022;" horiz-adv-x="290" 
d="M60.5 222.5q-32.5 32.5 -32.5 84.5t32.5 84.5t84.5 32.5t84.5 -32.5t32.5 -84.5t-32.5 -84.5t-84.5 -32.5t-84.5 32.5z" />
    <glyph glyph-name="ellipsis" unicode="&#x2026;" horiz-adv-x="666" 
d="M48 19q-25 25 -25 65t25 65t65 25t65 -25t25 -65t-25 -65t-65 -25t-65 25zM268 19q-25 25 -25 65t25 65t65 25t65 -25t25 -65t-25 -65t-65 -25t-65 25zM488 19q-25 25 -25 65t25 65t65 25t65 -25t25 -65t-25 -65t-65 -25t-65 25z" />
    <glyph glyph-name="uni202F" unicode="&#x202f;" horiz-adv-x="120" 
 />
    <glyph glyph-name="perthousand" unicode="&#x2030;" horiz-adv-x="1233" 
d="M580 750h126l-434 -750h-126zM68.5 386q-45.5 44 -45.5 117v97q0 72 45.5 116t119.5 44t120.5 -44t46.5 -116v-97q0 -72 -46.5 -116.5t-120.5 -44.5t-119.5 44zM230.5 458.5q17.5 17.5 17.5 44.5v97q0 27 -17.5 44t-42.5 17t-41.5 -17t-16.5 -44v-97q0 -27 16.5 -44.5
t41.5 -17.5t42.5 17.5zM543.5 34q-45.5 44 -45.5 117v97q0 72 45.5 116t119.5 44t120.5 -44t46.5 -116v-97q0 -72 -46.5 -116.5t-120.5 -44.5t-119.5 44zM705.5 106.5q17.5 17.5 17.5 44.5v97q0 27 -17.5 44t-42.5 17t-41.5 -17t-16.5 -44v-97q0 -27 16.5 -44.5t41.5 -17.5
t42.5 17.5zM923.5 34q-45.5 44 -45.5 117v97q0 72 45.5 116t119.5 44t120.5 -44t46.5 -116v-97q0 -72 -46.5 -116.5t-120.5 -44.5t-119.5 44zM1085.5 106.5q17.5 17.5 17.5 44.5v97q0 27 -17.5 44t-42.5 17t-41.5 -17t-16.5 -44v-97q0 -27 16.5 -44.5t41.5 -17.5t42.5 17.5z
" />
    <glyph glyph-name="minute" unicode="&#x2032;" horiz-adv-x="198" 
d="M156 733q22 -22 22 -57q0 -20 -9 -45t-35 -64l-60 -89h-54v198q0 35 22 57t57 22t57 -22z" />
    <glyph glyph-name="second" unicode="&#x2033;" horiz-adv-x="388" 
d="M156 733q22 -22 22 -57q0 -20 -9 -45t-35 -64l-60 -89h-54v198q0 35 22 57t57 22t57 -22zM346 733q22 -22 22 -57q0 -20 -9 -45t-35 -64l-60 -89h-54v198q0 35 22 57t57 22t57 -22z" />
    <glyph glyph-name="guilsinglleft" unicode="&#x2039;" horiz-adv-x="299" 
d="M2 274l115 191h165l-115 -191l115 -191h-165z" />
    <glyph glyph-name="guilsinglright" unicode="&#x203a;" horiz-adv-x="299" 
d="M297 276l-115 -191h-165l115 191l-115 191h165z" />
    <glyph glyph-name="fraction" unicode="&#x2044;" horiz-adv-x="178" 
d="M24 0h-124l254 750h124z" />
    <glyph glyph-name="uni2053" unicode="&#x2053;" horiz-adv-x="461" 
d="M277.5 240.5q-30.5 7.5 -70.5 19.5q-44 14 -55 14q-22 0 -30.5 -8.5t-8.5 -29.5h-85q-1 64 9 99.5t32 50t60 14.5q40 0 125 -27q44 -14 55 -14q22 0 30.5 8.5t8.5 29.5h85q1 -64 -8.5 -99.5t-31.5 -50t-60 -14.5q-25 0 -55.5 7.5z" />
    <glyph glyph-name="uni205F" unicode="&#x205f;" horiz-adv-x="222" 
 />
    <glyph glyph-name="uni2070" unicode="&#x2070;" horiz-adv-x="419" 
d="M76 496q-51 49 -51 130v152q0 80 51 129t133 49t133.5 -49t51.5 -129v-152q0 -81 -51.5 -130t-133.5 -49t-133 49zM162.5 576q18.5 -19 46.5 -19t47 19t19 50v152q0 30 -19 49t-47 19t-46.5 -19t-18.5 -49v-152q0 -31 18.5 -50z" />
    <glyph glyph-name="uni2074" unicode="&#x2074;" horiz-adv-x="420" 
d="M246 540h-218v96l92 314h116l-85 -309h95v106h107v-106h54v-101h-54v-86h-107v86z" />
    <glyph glyph-name="uni2075" unicode="&#x2075;" horiz-adv-x="441" 
d="M96.5 488.5q-50.5 40.5 -50.5 109.5l119 15v-10q0 -27 16.5 -42t44.5 -15t44 16.5t16 48.5v22q0 33 -16.5 52.5t-44.5 19.5q-26 0 -42 -14.5t-16 -39.5v-3h-118v60l21 242h302v-97h-199l-9 -92q30 35 82 35q40 0 76 -18t58.5 -54t22.5 -87v-30q0 -76 -50.5 -117.5
t-125.5 -41.5q-80 0 -130.5 40.5z" />
    <glyph glyph-name="uni2076" unicode="&#x2076;" horiz-adv-x="435" 
d="M85 494.5q-49 47.5 -49 133.5v150q0 83 49.5 130.5t132.5 47.5q79 0 127.5 -40.5t48.5 -107.5v-9l-117 -12v18q0 23 -16.5 37.5t-44.5 14.5t-45.5 -18t-17.5 -47v-63q30 42 95 42q66 0 108.5 -44t42.5 -115q0 -74 -49.5 -119.5t-131.5 -45.5q-84 0 -133 47.5zM264.5 564
q17.5 18 17.5 48v2q0 30 -17.5 48t-46.5 18t-47 -18t-18 -48v-2q0 -30 18 -48t47 -18t46.5 18z" />
    <glyph glyph-name="uni2077" unicode="&#x2077;" horiz-adv-x="420" 
d="M248 843h-201v107h326v-86l-154 -410h-122z" />
    <glyph glyph-name="uni2078" unicode="&#x2078;" horiz-adv-x="424" 
d="M77 487q-51 40 -51 107q0 40 20 68.5t55 45.5q-67 36 -67 105q0 64 49 103.5t129 39.5t128.5 -39t48.5 -104q0 -69 -66 -105q35 -17 55 -45.5t20 -68.5q0 -67 -51 -107t-135 -40t-135 40zM263.5 559q19.5 17 19.5 44q0 30 -19 45.5t-52 15.5t-52 -15.5t-19 -45.5
q0 -27 19.5 -44t51.5 -17t51.5 17zM256.5 766.5q17.5 14.5 17.5 39.5q0 24 -17 39.5t-45 15.5t-45.5 -15.5t-17.5 -39.5q0 -25 18 -39.5t45 -14.5t44.5 14.5z" />
    <glyph glyph-name="uni2079" unicode="&#x2079;" horiz-adv-x="435" 
d="M350 908.5q49 -47.5 49 -133.5v-150q0 -83 -49.5 -130.5t-132.5 -47.5q-79 0 -127.5 40.5t-48.5 107.5v9l117 12v-18q0 -23 16.5 -37.5t44.5 -14.5t45.5 18t17.5 47v63q-30 -42 -95 -42q-66 0 -108.5 44t-42.5 115q0 74 49.5 119.5t131.5 45.5q84 0 133 -47.5zM170.5 839
q-17.5 -18 -17.5 -48v-2q0 -30 17.5 -48t46.5 -18t47 18t18 48v2q0 30 -18 48t-47 18t-46.5 -18z" />
    <glyph glyph-name="uni2080" unicode="&#x2080;" horiz-adv-x="419" 
d="M76 -146q-51 49 -51 130v152q0 80 51 129t133 49t133.5 -49t51.5 -129v-152q0 -81 -51.5 -130t-133.5 -49t-133 49zM162.5 -66q18.5 -19 46.5 -19t47 19t19 50v152q0 30 -19 49t-47 19t-46.5 -19t-18.5 -49v-152q0 -31 18.5 -50z" />
    <glyph glyph-name="uni2081" unicode="&#x2081;" horiz-adv-x="431" 
d="M201 198h-97v110h216v-496h-119v386z" />
    <glyph glyph-name="uni2082" unicode="&#x2082;" horiz-adv-x="434" 
d="M44.5 -68q5.5 21 34 50t95.5 71q65 40 84 63t19 46v2q0 21 -14.5 35t-42.5 14q-30 0 -46.5 -16.5t-16.5 -50.5v-25l-113 15v20q0 75 47 116.5t124 41.5q78 0 127 -40.5t49 -108.5v-2q0 -49 -28 -93t-115 -97q-59 -37 -74 -56h220v-105h-355v61q0 38 5.5 59z" />
    <glyph glyph-name="uni2083" unicode="&#x2083;" horiz-adv-x="425" 
d="M72 -152.5q-49 42.5 -49 116.5v4l108 15v-14q0 -29 20.5 -47t57.5 -18q35 0 54.5 15.5t19.5 44.5v5q0 56 -70 56h-71v92l81 90h-178v101h315v-89l-98 -103q60 -7 97.5 -47t37.5 -105v-2q0 -74 -49 -115.5t-138 -41.5t-138 42.5z" />
    <glyph glyph-name="uni2084" unicode="&#x2084;" horiz-adv-x="420" 
d="M246 -102h-218v96l92 314h116l-85 -309h95v106h107v-106h54v-101h-54v-86h-107v86z" />
    <glyph glyph-name="uni2085" unicode="&#x2085;" horiz-adv-x="441" 
d="M96.5 -153.5q-50.5 40.5 -50.5 109.5l119 15v-10q0 -27 16.5 -42t44.5 -15t44 16.5t16 48.5v22q0 33 -16.5 52.5t-44.5 19.5q-26 0 -42 -14.5t-16 -39.5v-3h-118v60l21 242h302v-97h-199l-9 -92q30 35 82 35q40 0 76 -18t58.5 -54t22.5 -87v-30q0 -76 -50.5 -117.5
t-125.5 -41.5q-80 0 -130.5 40.5z" />
    <glyph glyph-name="uni2086" unicode="&#x2086;" horiz-adv-x="435" 
d="M85 -147.5q-49 47.5 -49 133.5v150q0 83 49.5 130.5t132.5 47.5q79 0 127.5 -40.5t48.5 -107.5v-9l-117 -12v18q0 23 -16.5 37.5t-44.5 14.5t-45.5 -18t-17.5 -47v-63q30 42 95 42q66 0 108.5 -44t42.5 -115q0 -74 -49.5 -119.5t-131.5 -45.5q-84 0 -133 47.5zM264.5 -78
q17.5 18 17.5 48v2q0 30 -17.5 48t-46.5 18t-47 -18t-18 -48v-2q0 -30 18 -48t47 -18t46.5 18z" />
    <glyph glyph-name="uni2087" unicode="&#x2087;" horiz-adv-x="420" 
d="M248 201h-201v107h326v-86l-154 -410h-122z" />
    <glyph glyph-name="uni2088" unicode="&#x2088;" horiz-adv-x="424" 
d="M77 -155q-51 40 -51 107q0 40 20 68.5t55 45.5q-67 36 -67 105q0 64 49 103.5t129 39.5t128.5 -39t48.5 -104q0 -69 -66 -105q35 -17 55 -45.5t20 -68.5q0 -67 -51 -107t-135 -40t-135 40zM263.5 -83q19.5 17 19.5 44q0 30 -19 45.5t-52 15.5t-52 -15.5t-19 -45.5
q0 -27 19.5 -44t51.5 -17t51.5 17zM256.5 124.5q17.5 14.5 17.5 39.5q0 24 -17 39.5t-45 15.5t-45.5 -15.5t-17.5 -39.5q0 -25 18 -39.5t45 -14.5t44.5 14.5z" />
    <glyph glyph-name="uni2089" unicode="&#x2089;" horiz-adv-x="435" 
d="M350 266.5q49 -47.5 49 -133.5v-150q0 -83 -49.5 -130.5t-132.5 -47.5q-79 0 -127.5 40.5t-48.5 107.5v9l117 12v-18q0 -23 16.5 -37.5t44.5 -14.5t45.5 18t17.5 47v63q-30 -42 -95 -42q-66 0 -108.5 44t-42.5 115q0 74 49.5 119.5t131.5 45.5q84 0 133 -47.5zM170.5 197
q-17.5 -18 -17.5 -48v-2q0 -30 17.5 -48t46.5 -18t47 18t18 48v2q0 30 -18 48t-47 18t-46.5 -18z" />
    <glyph glyph-name="colonmonetary" unicode="&#x20a1;" horiz-adv-x="565" 
d="M415 775l-15 -37q22 -9 41 -22l25 61l69 -22l-38 -93q46 -63 46 -155v-25l-129 -22l-136 -330h6q49 0 79 32t30 85v58l150 -25v-33q0 -79 -33 -137t-91.5 -89t-134.5 -31q-32 0 -61 6l-20 -49l-69 22l20 49q-14 7 -40 25l-31 -76l-69 22l47 115q-36 61 -36 143v260
q0 78 33 135t91.5 87.5t134.5 30.5q24 0 46 -3l16 40zM273 620q-45 -4 -71.5 -35.5t-26.5 -81.5v-122zM211 156l168 409q-12 24 -35 38l-163 -398q9 -29 30 -49z" />
    <glyph glyph-name="dong" unicode="&#x20ab;" 
d="M124.5 163.5q-39.5 23.5 -62.5 70t-23 110.5v12q0 65 23.5 111t64.5 69.5t92 23.5q48 0 80 -23.5t47 -65.5h3v124h-112v110h112v45h150v-45h30v-110h-30v-445h-130l-14 69h-4q-20 -35 -56 -57t-84 -22q-47 0 -86.5 23.5zM39 110h490v-110h-490v110zM329 294.5
q20 20.5 20 57.5q0 35 -21.5 54.5t-59.5 19.5t-58.5 -18t-20.5 -51v-13q0 -33 21.5 -51.5t60.5 -18.5q38 0 58 20.5z" />
    <glyph glyph-name="Euro" unicode="&#x20ac;" horiz-adv-x="544" 
d="M410 734q53 -26 82.5 -73.5t29.5 -109.5v-11l-147 -14v22q0 38 -21.5 59t-64.5 21q-39 0 -60.5 -23t-21.5 -68v-40h171l-18 -105h-153v-34h147l-18 -105h-129v-40q0 -45 21.5 -68t60.5 -23q43 0 64.5 21t21.5 59v22l147 -14v-11q0 -62 -29.5 -109.5t-82.5 -73.5t-121 -26
q-106 0 -167.5 56t-61.5 167v40h-65v105h65v34h-65v105h65v40q0 111 61.5 167t167.5 56q68 0 121 -26z" />
    <glyph glyph-name="uni20B1" unicode="&#x20b1;" horiz-adv-x="600" 
d="M78 354h-71v100h71v80h-71v100h71v116h203q164 0 218 -116h94v-100h-69q1 -12 1 -37v-3q0 -14 -2 -40h70v-100h-95q-55 -114 -217 -114h-53v-240h-150v354zM352.5 406q21.5 26 21.5 88v2q0 55 -22.5 84.5t-64.5 29.5h-59v-230h59q44 0 65.5 26z" />
    <glyph glyph-name="uni20B2" unicode="&#x20b2;" 
d="M354 860v-107q86 -19 137 -82.5t52 -160.5v-6l-150 -16v15q0 53 -30 85t-79 32t-79 -32t-30 -85v-254q0 -53 30 -85t79 -32t79 32t30 85v5h-96v140h246v-145q0 -99 -51 -164.5t-138 -85.5v-109h-135v108q-89 18 -141.5 84t-52.5 167v258q0 99 52.5 164t141.5 83v106h135z
" />
    <glyph glyph-name="uni20BA" unicode="&#x20ba;" horiz-adv-x="550" 
d="M72 257l-48 -17v127l48 17v53l-48 -17v127l48 17v186h150v-135l165 57v-127l-165 -57v-53l165 57v-127l-165 -57v-168h26q49 0 79 32t30 85v63l150 -15v-48q0 -79 -33 -137t-91.5 -89t-134.5 -31h-176v257z" />
    <glyph glyph-name="uni20BD" unicode="&#x20bd;" horiz-adv-x="572" 
d="M6 220h322v-120h-86v-100h-150v100h-86v120zM6 420h86v330h223q114 0 179 -55t65 -178v-3q0 -123 -67 -178.5t-177 -55.5h-309v140zM321 420q87 0 87 94v2q0 45 -22.5 69.5t-64.5 24.5h-79v-190h79z" />
    <glyph glyph-name="uni20BF" unicode="&#x20bf;" horiz-adv-x="554" 
d="M32 750h80v110h115v-110h65v110h115v-126q53 -21 80.5 -66t27.5 -109v-38q0 -48 -15 -81t-48 -55q41 -20 60.5 -56t19.5 -90v-48q0 -69 -32 -116t-93 -65v-120h-115v110h-65v-110h-115v110h-80v750zM365.5 156.5q15.5 16.5 15.5 56.5v24q0 40 -15.5 56.5t-53.5 16.5h-130
v-170h130q38 0 53.5 16.5zM348.5 466.5q15.5 16.5 15.5 56.5v14q0 40 -15.5 56.5t-53.5 16.5h-113v-160h113q38 0 53.5 16.5z" />
    <glyph glyph-name="uni2116" unicode="&#x2116;" horiz-adv-x="970" 
d="M32 750h148l230 -437v437h146v-750h-148l-230 437v-437h-146v750zM692 358.5q-39 21.5 -61.5 59.5t-22.5 85v91q0 48 22.5 86t61.5 59.5t87 21.5t87.5 -21.5t61.5 -59.5t22 -86v-91q0 -47 -22.5 -85t-61.5 -59.5t-87 -21.5t-87 21.5zM735.5 460q16.5 -19 43.5 -19
q26 0 42.5 19t16.5 51v76q0 32 -16.5 51t-42.5 19q-27 0 -43.5 -19t-16.5 -51v-76q0 -32 16.5 -51zM921 197h-94v-87h-95v87h-94v89h283v-89z" />
    <glyph glyph-name="uni2117" unicode="&#x2117;" horiz-adv-x="823" 
d="M216 40.5q-88 50.5 -138 138.5t-50 196t50 196t138 138.5t195 50.5q108 0 196 -50.5t138 -138.5t50 -196t-50 -196t-138 -138.5t-196 -50.5q-107 0 -195 50.5zM573 98.5q71 41.5 110 114t39 162.5t-39 162.5t-110 114t-162 41.5t-161.5 -41.5t-109.5 -113.5t-39 -163
t39 -163t109.5 -113.5t161.5 -41.5t162 41.5zM268 610h155q77 0 119.5 -36.5t42.5 -120.5v-25q0 -79 -45 -118t-117 -39h-41v-129h-114v468zM459.5 388q11.5 14 11.5 40v25q0 26 -11.5 40.5t-32.5 14.5h-45v-134h45q21 0 32.5 14z" />
    <glyph glyph-name="trademark" unicode="&#x2122;" horiz-adv-x="856" 
d="M393 750h170l53 -218l54 218h166v-495h-123v267l-64 -267h-68l-66 267v-267h-122v495zM129 636h-109v113h343v-113h-113v-382h-121v382z" />
    <glyph glyph-name="estimated" unicode="&#x212e;" horiz-adv-x="898" 
d="M259 27q-83 41 -129.5 116.5t-46.5 176.5q0 98 46.5 174t130 118.5t189.5 42.5q108 0 188.5 -40t126.5 -117t51 -186h-582q-8 0 -11.5 -3t-3.5 -15v-164q0 -19 30.5 -47.5t83.5 -49.5t117 -21q67 0 129 29.5t102 77.5h68q-65 -73 -131 -103t-168 -30q-107 0 -190 41z
M676 334q3 3 3 12v162q0 25 -36 54t-90.5 48.5t-104.5 19.5q-61 0 -113.5 -21.5t-84.5 -50t-32 -44.5v-175q0 -8 15 -8h430q10 0 13 3z" />
    <glyph glyph-name="oneeighth" unicode="&#x215b;" horiz-adv-x="886" 
d="M181 651h-87v99h194v-446h-107v347zM369 0h-124l254 750h124zM573 29.5q-46 36.5 -46 96.5q0 70 68 102q-60 33 -60 95q0 58 44 93t116 35t115.5 -35t43.5 -93q0 -63 -59 -95q31 -15 49 -40.5t18 -61.5q0 -60 -45.5 -96.5t-121.5 -36.5t-122 36.5zM741.5 94
q17.5 15 17.5 40q0 28 -17 41.5t-47 13.5t-47 -13.5t-17 -41.5q0 -25 17.5 -40t46.5 -15t46.5 15zM735 281q16 13 16 35t-15.5 36t-40.5 14t-41 -14t-16 -36q0 -23 16 -35.5t41 -12.5q24 0 40 13z" />
    <glyph glyph-name="threeeighths" unicode="&#x215c;" horiz-adv-x="908" 
d="M65 335q-44 38 -44 105v4l97 14v-13q0 -26 18.5 -42.5t51.5 -16.5q32 0 49.5 14t17.5 40v5q0 24 -16 37t-47 13h-64v83l73 81h-160v91h283v-80l-88 -93q54 -6 87.5 -42t33.5 -95v-1q0 -67 -44 -104.5t-124 -37.5t-124 38zM391 0h-124l254 750h124zM595 29.5
q-46 36.5 -46 96.5q0 70 68 102q-60 33 -60 95q0 58 44 93t116 35t115.5 -35t43.5 -93q0 -63 -59 -95q31 -15 49 -40.5t18 -61.5q0 -60 -45.5 -96.5t-121.5 -36.5t-122 36.5zM763.5 94q17.5 15 17.5 40q0 28 -17 41.5t-47 13.5t-47 -13.5t-17 -41.5q0 -25 17.5 -40t46.5 -15
t46.5 15zM757 281q16 13 16 35t-15.5 36t-40.5 14t-41 -14t-16 -36q0 -23 16 -35.5t41 -12.5q24 0 40 13z" />
    <glyph glyph-name="fiveeighths" unicode="&#x215d;" horiz-adv-x="916" 
d="M87 334.5q-46 36.5 -46 98.5l108 14v-9q0 -25 14.5 -38.5t39.5 -13.5t39.5 15t14.5 44v20q0 29 -14.5 47t-39.5 18q-24 0 -38.5 -13t-14.5 -36v-3h-106v54l19 218h272v-87h-179l-8 -83q26 31 73 31q36 0 68.5 -16t53 -48.5t20.5 -78.5v-27q0 -69 -45.5 -106t-113.5 -37
q-71 0 -117 36.5zM399 0h-124l254 750h124zM603 29.5q-46 36.5 -46 96.5q0 70 68 102q-60 33 -60 95q0 58 44 93t116 35t115.5 -35t43.5 -93q0 -63 -59 -95q31 -15 49 -40.5t18 -61.5q0 -60 -45.5 -96.5t-121.5 -36.5t-122 36.5zM771.5 94q17.5 15 17.5 40q0 28 -17 41.5
t-47 13.5t-47 -13.5t-17 -41.5q0 -25 17.5 -40t46.5 -15t46.5 15zM765 281q16 13 16 35t-15.5 36t-40.5 14t-41 -14t-16 -36q0 -23 16 -35.5t41 -12.5q24 0 40 13z" />
    <glyph glyph-name="seveneighths" unicode="&#x215e;" horiz-adv-x="842" 
d="M223 654h-181v96h294v-77l-139 -369h-110zM325 0h-124l254 750h124zM529 29.5q-46 36.5 -46 96.5q0 70 68 102q-60 33 -60 95q0 58 44 93t116 35t115.5 -35t43.5 -93q0 -63 -59 -95q31 -15 49 -40.5t18 -61.5q0 -60 -45.5 -96.5t-121.5 -36.5t-122 36.5zM697.5 94
q17.5 15 17.5 40q0 28 -17 41.5t-47 13.5t-47 -13.5t-17 -41.5q0 -25 17.5 -40t46.5 -15t46.5 15zM691 281q16 13 16 35t-15.5 36t-40.5 14t-41 -14t-16 -36q0 -23 16 -35.5t41 -12.5q24 0 40 13z" />
    <glyph glyph-name="arrowleft" unicode="&#x2190;" horiz-adv-x="821" 
d="M262 322l141 -141h-175l-200 203l200 203h175l-141 -141h531v-124h-531z" />
    <glyph glyph-name="arrowup" unicode="&#x2191;" horiz-adv-x="496" 
d="M186 531l-141 -141v175l203 200l203 -200v-175l-141 141v-531h-124v531z" />
    <glyph glyph-name="arrowright" unicode="&#x2192;" horiz-adv-x="821" 
d="M559 436l-141 141h175l200 -203l-200 -203h-175l141 141h-531v124h531z" />
    <glyph glyph-name="arrowdown" unicode="&#x2193;" horiz-adv-x="496" 
d="M310 219l141 141v-175l-203 -200l-203 200v175l141 -141v531h124v-531z" />
    <glyph glyph-name="arrowboth" unicode="&#x2194;" horiz-adv-x="904" 
d="M28 362l200 203h175l-141 -141h380l-141 141h175l200 -203l-200 -203h-175l141 141h-380l141 -141h-175z" />
    <glyph glyph-name="arrowupdn" unicode="&#x2195;" horiz-adv-x="496" 
d="M45 185v175l141 -141v312l-141 -141v175l203 200l203 -200v-175l-141 141v-312l141 141v-175l-203 -200z" />
    <glyph glyph-name="uni2196" unicode="&#x2196;" horiz-adv-x="676" 
d="M185 444v-199l-124 123l2 285l285 2l124 -123h-199l375 -376l-87 -87z" />
    <glyph glyph-name="uni2197" unicode="&#x2197;" horiz-adv-x="675" 
d="M403 531h-199l123 124l285 -2l2 -285l-123 -124v199l-376 -375l-87 87z" />
    <glyph glyph-name="uni2198" unicode="&#x2198;" horiz-adv-x="676" 
d="M491 267v199l124 -123l-2 -285l-285 -2l-124 123h199l-375 376l87 87z" />
    <glyph glyph-name="uni2199" unicode="&#x2199;" horiz-adv-x="675" 
d="M272 180h199l-123 -124l-285 2l-2 285l123 124v-199l376 375l87 -87z" />
    <glyph glyph-name="partialdiff" unicode="&#x2202;" horiz-adv-x="540" 
d="M487.5 102q-30.5 -54 -87 -83t-131.5 -29q-74 0 -130 28.5t-86.5 80.5t-30.5 119v45q0 65 26.5 114.5t73.5 76.5t107 27q94 0 139 -61v55q0 52 -12.5 81.5t-43 43t-85.5 13.5h-195v137h195q141 0 216 -68.5t75 -209.5v-244q0 -72 -30.5 -126zM197.5 153.5
q25.5 -26.5 72.5 -26.5q52 0 75 30.5t23 76.5v16q0 41 -27 67.5t-72 26.5q-46 0 -71.5 -24.5t-25.5 -65.5v-29q0 -45 25.5 -71.5z" />
    <glyph glyph-name="emptyset" unicode="&#x2205;" horiz-adv-x="691" 
d="M160 48l-65 -77l-42 35l65 77q-44 44 -68.5 103.5t-24.5 127.5q0 90 42 163.5t115 116t163 42.5q105 0 187 -57l65 78l42 -35l-65 -78q44 -44 68 -103t24 -127q0 -91 -42 -164.5t-115.5 -115.5t-163.5 -42q-103 0 -185 56zM481 82.5q59 34.5 91.5 95t32.5 136.5
q0 55 -17.5 102.5t-50.5 83.5l-341 -409q64 -43 149 -43q77 0 136 34.5zM103.5 210.5q17.5 -47.5 50.5 -83.5l341 408q-64 44 -150 44q-76 0 -135 -34.5t-91.5 -94.5t-32.5 -136q0 -56 17.5 -103.5z" />
    <glyph glyph-name="minus" unicode="&#x2212;" horiz-adv-x="458" 
d="M430 302h-402v146h402v-146z" />
    <glyph glyph-name="radical" unicode="&#x221a;" horiz-adv-x="599" 
d="M295 180l151 570h153l-208 -750h-190l-90 331h-99v121h212l67 -272h4z" />
    <glyph glyph-name="infinity" unicode="&#x221e;" horiz-adv-x="618" 
d="M108 233.5q-37 19.5 -58.5 53.5t-21.5 77v1q0 44 21.5 79t58.5 54.5t83 19.5q36 0 67 -14t51 -40q20 26 51 40t68 14q46 0 83 -19.5t58 -54.5t21 -79v-1q0 -43 -21 -77t-58 -53.5t-83 -19.5q-37 0 -68 14t-51 40q-20 -26 -51 -40t-67 -14q-46 0 -83 19.5zM254 334.5
q18 11.5 18 29.5v1q0 19 -18.5 31t-45.5 12q-28 0 -46.5 -12t-18.5 -31v-1q0 -18 18.5 -29.5t46.5 -11.5t46 11.5zM457 334.5q18 11.5 18 29.5v1q0 19 -18.5 31t-45.5 12q-28 0 -46.5 -12t-18.5 -31v-1q0 -18 18.5 -29.5t46.5 -11.5t46 11.5z" />
    <glyph glyph-name="integral" unicode="&#x222b;" horiz-adv-x="454" 
d="M13 140h30q49 0 79 32t30 85v240q0 78 33 135t91.5 87.5t134.5 30.5h30v-140h-30q-49 0 -79 -32t-30 -85v-240q0 -78 -33 -135t-91.5 -87.5t-134.5 -30.5h-30v140z" />
    <glyph glyph-name="approxequal" unicode="&#x2248;" horiz-adv-x="461" 
d="M277.5 400.5q-30.5 7.5 -70.5 19.5q-44 14 -55 14q-22 0 -30.5 -8.5t-8.5 -29.5h-85q-1 64 9 99.5t32 50t60 14.5q40 0 125 -27q44 -14 55 -14q22 0 30.5 8.5t8.5 29.5h85q1 -64 -8.5 -99.5t-31.5 -50t-60 -14.5q-25 0 -55.5 7.5zM277.5 200.5q-30.5 7.5 -70.5 19.5
q-44 14 -55 14q-22 0 -30.5 -8.5t-8.5 -29.5h-85q-1 64 9 99.5t32 50t60 14.5q40 0 125 -27q44 -14 55 -14q22 0 30.5 8.5t8.5 29.5h85q1 -64 -8.5 -99.5t-31.5 -50t-60 -14.5q-25 0 -55.5 7.5z" />
    <glyph glyph-name="notequal" unicode="&#x2260;" horiz-adv-x="458" 
d="M127 202h-99v146h150l19 54h-169v146h220l25 72h67l-25 -72h115v-146h-166l-19 -54h185v-146h-236l-25 -72h-67z" />
    <glyph glyph-name="lessequal" unicode="&#x2264;" horiz-adv-x="543" 
d="M64 750h150v-302h301v-146h-301v-302h-150v750z" />
    <glyph glyph-name="greaterequal" unicode="&#x2265;" horiz-adv-x="543" 
d="M329 0v302h-301v146h301v302h150v-750h-150z" />
    <glyph glyph-name="uni2460" unicode="&#x2460;" horiz-adv-x="827" 
d="M218 40.5q-88 50.5 -138 138.5t-50 196t50 196t138 138.5t195 50.5q108 0 196 -50.5t138 -138.5t50 -196t-50 -196t-138 -138.5t-196 -50.5q-107 0 -195 50.5zM575 98.5q71 41.5 110 114t39 162.5t-39 162.5t-110 114t-162 41.5t-161.5 -41.5t-109.5 -113.5t-39 -163
t39 -163t109.5 -113.5t161.5 -41.5t162 41.5zM367 513h-97v110h216v-496h-119v386z" />
    <glyph glyph-name="uni2461" unicode="&#x2461;" horiz-adv-x="827" 
d="M218 40.5q-88 50.5 -138 138.5t-50 196t50 196t138 138.5t195 50.5q108 0 196 -50.5t138 -138.5t50 -196t-50 -196t-138 -138.5t-196 -50.5q-107 0 -195 50.5zM575 98.5q71 41.5 110 114t39 162.5t-39 162.5t-110 114t-162 41.5t-161.5 -41.5t-109.5 -113.5t-39 -163
t39 -163t109.5 -113.5t161.5 -41.5t162 41.5zM240.5 258q5.5 21 34 50t95.5 71q65 40 84 63t19 46v2q0 21 -14.5 35t-42.5 14q-30 0 -46.5 -16.5t-16.5 -50.5v-25l-113 15v20q0 75 47 116.5t124 41.5q78 0 127 -40.5t49 -108.5v-2q0 -49 -28 -93t-115 -97q-59 -37 -74 -56
h220v-105h-355v61q0 38 5.5 59z" />
    <glyph glyph-name="uni2462" unicode="&#x2462;" horiz-adv-x="827" 
d="M218 40.5q-88 50.5 -138 138.5t-50 196t50 196t138 138.5t195 50.5q108 0 196 -50.5t138 -138.5t50 -196t-50 -196t-138 -138.5t-196 -50.5q-107 0 -195 50.5zM575 98.5q71 41.5 110 114t39 162.5t-39 162.5t-110 114t-162 41.5t-161.5 -41.5t-109.5 -113.5t-39 -163
t39 -163t109.5 -113.5t161.5 -41.5t162 41.5zM268 158.5q-49 42.5 -49 116.5v4l108 15v-14q0 -29 20.5 -47t57.5 -18q35 0 54.5 15.5t19.5 44.5v5q0 56 -70 56h-71v92l81 90h-178v101h315v-89l-98 -103q60 -7 97.5 -47t37.5 -105v-2q0 -74 -49 -115.5t-138 -41.5t-138 42.5z
" />
    <glyph glyph-name="uni2463" unicode="&#x2463;" horiz-adv-x="827" 
d="M218 40.5q-88 50.5 -138 138.5t-50 196t50 196t138 138.5t195 50.5q108 0 196 -50.5t138 -138.5t50 -196t-50 -196t-138 -138.5t-196 -50.5q-107 0 -195 50.5zM575 98.5q71 41.5 110 114t39 162.5t-39 162.5t-110 114t-162 41.5t-161.5 -41.5t-109.5 -113.5t-39 -163
t39 -163t109.5 -113.5t161.5 -41.5t162 41.5zM440 213h-218v96l92 314h116l-85 -309h95v106h107v-106h54v-101h-54v-86h-107v86z" />
    <glyph glyph-name="uni2464" unicode="&#x2464;" horiz-adv-x="827" 
d="M218 40.5q-88 50.5 -138 138.5t-50 196t50 196t138 138.5t195 50.5q108 0 196 -50.5t138 -138.5t50 -196t-50 -196t-138 -138.5t-196 -50.5q-107 0 -195 50.5zM575 98.5q71 41.5 110 114t39 162.5t-39 162.5t-110 114t-162 41.5t-161.5 -41.5t-109.5 -113.5t-39 -163
t39 -163t109.5 -113.5t161.5 -41.5t162 41.5zM285.5 158.5q-50.5 40.5 -50.5 109.5l119 15v-10q0 -27 16.5 -42t44.5 -15t44 16.5t16 48.5v22q0 33 -16.5 52.5t-44.5 19.5q-26 0 -42 -14.5t-16 -39.5v-3h-118v60l21 242h302v-97h-199l-9 -92q30 35 82 35q40 0 76 -18
t58.5 -54t22.5 -87v-30q0 -76 -50.5 -117.5t-125.5 -41.5q-80 0 -130.5 40.5z" />
    <glyph glyph-name="uni2465" unicode="&#x2465;" horiz-adv-x="827" 
d="M218 40.5q-88 50.5 -138 138.5t-50 196t50 196t138 138.5t195 50.5q108 0 196 -50.5t138 -138.5t50 -196t-50 -196t-138 -138.5t-196 -50.5q-107 0 -195 50.5zM575 98.5q71 41.5 110 114t39 162.5t-39 162.5t-110 114t-162 41.5t-161.5 -41.5t-109.5 -113.5t-39 -163
t39 -163t109.5 -113.5t161.5 -41.5t162 41.5zM278 168.5q-49 47.5 -49 133.5v150q0 83 49.5 130.5t132.5 47.5q79 0 127.5 -40.5t48.5 -107.5v-9l-117 -12v18q0 23 -16.5 37.5t-44.5 14.5t-45.5 -18t-17.5 -47v-63q30 42 95 42q66 0 108.5 -44t42.5 -115q0 -74 -49.5 -119.5
t-131.5 -45.5q-84 0 -133 47.5zM457.5 238q17.5 18 17.5 48v2q0 30 -17.5 48t-46.5 18t-47 -18t-18 -48v-2q0 -30 18 -48t47 -18t46.5 18z" />
    <glyph glyph-name="uni2466" unicode="&#x2466;" horiz-adv-x="827" 
d="M218 40.5q-88 50.5 -138 138.5t-50 196t50 196t138 138.5t195 50.5q108 0 196 -50.5t138 -138.5t50 -196t-50 -196t-138 -138.5t-196 -50.5q-107 0 -195 50.5zM575 98.5q71 41.5 110 114t39 162.5t-39 162.5t-110 114t-162 41.5t-161.5 -41.5t-109.5 -113.5t-39 -163
t39 -163t109.5 -113.5t161.5 -41.5t162 41.5zM449 508h-201v107h326v-86l-154 -410h-122z" />
    <glyph glyph-name="uni2467" unicode="&#x2467;" horiz-adv-x="827" 
d="M218 40.5q-88 50.5 -138 138.5t-50 196t50 196t138 138.5t195 50.5q108 0 196 -50.5t138 -138.5t50 -196t-50 -196t-138 -138.5t-196 -50.5q-107 0 -195 50.5zM575 98.5q71 41.5 110 114t39 162.5t-39 162.5t-110 114t-162 41.5t-161.5 -41.5t-109.5 -113.5t-39 -163
t39 -163t109.5 -113.5t161.5 -41.5t162 41.5zM279 161q-51 40 -51 107q0 40 20 68.5t55 45.5q-67 36 -67 105q0 64 49 103.5t129 39.5t128.5 -39t48.5 -104q0 -69 -66 -105q35 -17 55 -45.5t20 -68.5q0 -67 -51 -107t-135 -40t-135 40zM465.5 233q19.5 17 19.5 44
q0 30 -19 45.5t-52 15.5t-52 -15.5t-19 -45.5q0 -27 19.5 -44t51.5 -17t51.5 17zM458.5 440.5q17.5 14.5 17.5 39.5q0 24 -17 39.5t-45 15.5t-45.5 -15.5t-17.5 -39.5q0 -25 18 -39.5t45 -14.5t44.5 14.5z" />
    <glyph glyph-name="uni2468" unicode="&#x2468;" horiz-adv-x="827" 
d="M218 40.5q-88 50.5 -138 138.5t-50 196t50 196t138 138.5t195 50.5q108 0 196 -50.5t138 -138.5t50 -196t-50 -196t-138 -138.5t-196 -50.5q-107 0 -195 50.5zM575 98.5q71 41.5 110 114t39 162.5t-39 162.5t-110 114t-162 41.5t-161.5 -41.5t-109.5 -113.5t-39 -163
t39 -163t109.5 -113.5t161.5 -41.5t162 41.5zM546 582.5q49 -47.5 49 -133.5v-150q0 -83 -49.5 -130.5t-132.5 -47.5q-79 0 -127.5 40.5t-48.5 107.5v9l117 12v-18q0 -23 16.5 -37.5t44.5 -14.5t45.5 18t17.5 47v63q-30 -42 -95 -42q-66 0 -108.5 44t-42.5 115
q0 74 49.5 119.5t131.5 45.5q84 0 133 -47.5zM366.5 513q-17.5 -18 -17.5 -48v-2q0 -30 17.5 -48t46.5 -18t47 18t18 48v2q0 30 -18 48t-47 18t-46.5 -18z" />
    <glyph glyph-name="uni24EA" unicode="&#x24ea;" horiz-adv-x="827" 
d="M218 40.5q-88 50.5 -138 138.5t-50 196t50 196t138 138.5t195 50.5q108 0 196 -50.5t138 -138.5t50 -196t-50 -196t-138 -138.5t-196 -50.5q-107 0 -195 50.5zM575 98.5q71 41.5 110 114t39 162.5t-39 162.5t-110 114t-162 41.5t-161.5 -41.5t-109.5 -113.5t-39 -163
t39 -163t109.5 -113.5t161.5 -41.5t162 41.5zM280 170q-51 49 -51 130v152q0 80 51 129t133 49t133.5 -49t51.5 -129v-152q0 -81 -51.5 -130t-133.5 -49t-133 49zM366.5 250q18.5 -19 46.5 -19t47 19t19 50v152q0 30 -19 49t-47 19t-46.5 -19t-18.5 -49v-152q0 -31 18.5 -50
z" />
    <glyph glyph-name="uni24FF" unicode="&#x24ff;" horiz-adv-x="827" 
d="M609 40.5q88 50.5 138 138.5t50 196t-50 196t-138 138.5t-196 50.5q-107 0 -195 -50.5t-138 -138.5t-50 -196t50 -196t138 -138.5t195 -50.5q108 0 196 50.5zM280 170q-51 49 -51 130v152q0 80 51 129t133 49t133.5 -49t51.5 -129v-152q0 -81 -51.5 -130t-133.5 -49
t-133 49zM366.5 250q18.5 -19 46.5 -19t47 19t19 50v152q0 30 -19 49t-47 19t-46.5 -19t-18.5 -49v-152q0 -31 18.5 -50z" />
    <glyph glyph-name="lozenge" unicode="&#x25ca;" horiz-adv-x="503" 
d="M346 0h-190l-133 373l134 377h190l133 -373zM325 353l-81 233l-66 -189l80 -233z" />
    <glyph glyph-name="uni2776" unicode="&#x2776;" horiz-adv-x="827" 
d="M609 40.5q88 50.5 138 138.5t50 196t-50 196t-138 138.5t-196 50.5q-107 0 -195 -50.5t-138 -138.5t-50 -196t50 -196t138 -138.5t195 -50.5q108 0 196 50.5zM375 513h-97v110h216v-496h-119v386z" />
    <glyph glyph-name="uni2777" unicode="&#x2777;" horiz-adv-x="827" 
d="M609 40.5q88 50.5 138 138.5t50 196t-50 196t-138 138.5t-196 50.5q-107 0 -195 -50.5t-138 -138.5t-50 -196t50 -196t138 -138.5t195 -50.5q108 0 196 50.5zM240.5 256q5.5 21 34 50t95.5 71q65 40 84 63t19 46v2q0 21 -14.5 35t-42.5 14q-30 0 -46.5 -16.5t-16.5 -50.5
v-25l-113 15v20q0 75 47 116.5t124 41.5q78 0 127 -40.5t49 -108.5v-2q0 -49 -28 -93t-115 -97q-59 -37 -74 -56h220v-105h-355v61q0 38 5.5 59zM362 241h8q-9 -10 -9 -21z" />
    <glyph glyph-name="uni2778" unicode="&#x2778;" horiz-adv-x="827" 
d="M609 40.5q88 50.5 138 138.5t50 196t-50 196t-138 138.5t-196 50.5q-107 0 -195 -50.5t-138 -138.5t-50 -196t50 -196t138 -138.5t195 -50.5q108 0 196 50.5zM270 158.5q-49 42.5 -49 116.5v4l108 15v-14q0 -29 20.5 -47t57.5 -18q35 0 54.5 15.5t19.5 44.5v5
q0 56 -70 56h-71v92l81 90h-178v101h315v-89l-98 -103q60 -7 97.5 -47t37.5 -105v-2q0 -74 -49 -115.5t-138 -41.5t-138 42.5z" />
    <glyph glyph-name="uni2779" unicode="&#x2779;" horiz-adv-x="827" 
d="M609 40.5q88 50.5 138 138.5t50 196t-50 196t-138 138.5t-196 50.5q-107 0 -195 -50.5t-138 -138.5t-50 -196t50 -196t138 -138.5t195 -50.5q108 0 196 50.5zM440 213h-218v96l92 314h116l-85 -309h95v106h107v-106h54v-101h-54v-86h-107v86z" />
    <glyph glyph-name="uni277A" unicode="&#x277a;" horiz-adv-x="827" 
d="M609 40.5q88 50.5 138 138.5t50 196t-50 196t-138 138.5t-196 50.5q-107 0 -195 -50.5t-138 -138.5t-50 -196t50 -196t138 -138.5t195 -50.5q108 0 196 50.5zM285.5 159.5q-50.5 40.5 -50.5 109.5l119 15v-10q0 -27 16.5 -42t44.5 -15t44 16.5t16 48.5v22
q0 33 -16.5 52.5t-44.5 19.5q-26 0 -42 -14.5t-16 -39.5v-3h-118v60l21 242h302v-97h-199l-9 -92q30 35 82 35q40 0 76 -18t58.5 -54t22.5 -87v-30q0 -76 -50.5 -117.5t-125.5 -41.5q-80 0 -130.5 40.5z" />
    <glyph glyph-name="uni277B" unicode="&#x277b;" horiz-adv-x="827" 
d="M609 40.5q88 50.5 138 138.5t50 196t-50 196t-138 138.5t-196 50.5q-107 0 -195 -50.5t-138 -138.5t-50 -196t50 -196t138 -138.5t195 -50.5q108 0 196 50.5zM278 168.5q-49 47.5 -49 133.5v150q0 83 49.5 130.5t132.5 47.5q79 0 127.5 -40.5t48.5 -107.5v-9l-117 -12v18
q0 23 -16.5 37.5t-44.5 14.5t-45.5 -18t-17.5 -47v-63q30 42 95 42q66 0 108.5 -44t42.5 -115q0 -74 -49.5 -119.5t-131.5 -45.5q-84 0 -133 47.5zM457.5 238q17.5 18 17.5 48v2q0 30 -17.5 48t-46.5 18t-47 -18t-18 -48v-2q0 -30 18 -48t47 -18t46.5 18z" />
    <glyph glyph-name="uni277C" unicode="&#x277c;" horiz-adv-x="827" 
d="M609 40.5q88 50.5 138 138.5t50 196t-50 196t-138 138.5t-196 50.5q-107 0 -195 -50.5t-138 -138.5t-50 -196t50 -196t138 -138.5t195 -50.5q108 0 196 50.5zM452 516h-201v107h326v-86l-154 -410h-122z" />
    <glyph glyph-name="uni277D" unicode="&#x277d;" horiz-adv-x="827" 
d="M609 40.5q88 50.5 138 138.5t50 196t-50 196t-138 138.5t-196 50.5q-107 0 -195 -50.5t-138 -138.5t-50 -196t50 -196t138 -138.5t195 -50.5q108 0 196 50.5zM279 161q-51 40 -51 107q0 40 20 68.5t55 45.5q-67 36 -67 105q0 64 49 103.5t129 39.5t128.5 -39t48.5 -104
q0 -69 -66 -105q35 -17 55 -45.5t20 -68.5q0 -67 -51 -107t-135 -40t-135 40zM465.5 233q19.5 17 19.5 44q0 30 -19 45.5t-52 15.5t-52 -15.5t-19 -45.5q0 -27 19.5 -44t51.5 -17t51.5 17zM458.5 440.5q17.5 14.5 17.5 39.5q0 24 -17 39.5t-45 15.5t-45.5 -15.5t-17.5 -39.5
q0 -25 18 -39.5t45 -14.5t44.5 14.5z" />
    <glyph glyph-name="uni277E" unicode="&#x277e;" horiz-adv-x="827" 
d="M609 40.5q88 50.5 138 138.5t50 196t-50 196t-138 138.5t-196 50.5q-107 0 -195 -50.5t-138 -138.5t-50 -196t50 -196t138 -138.5t195 -50.5q108 0 196 50.5zM546 582.5q49 -47.5 49 -133.5v-150q0 -83 -49.5 -130.5t-132.5 -47.5q-79 0 -127.5 40.5t-48.5 107.5v9
l117 12v-18q0 -23 16.5 -37.5t44.5 -14.5t45.5 18t17.5 47v63q-30 -42 -95 -42q-66 0 -108.5 44t-42.5 115q0 74 49.5 119.5t131.5 45.5q84 0 133 -47.5zM366.5 513q-17.5 -18 -17.5 -48v-2q0 -30 17.5 -48t46.5 -18t47 18t18 48v2q0 30 -18 48t-47 18t-46.5 -18z" />
    <glyph glyph-name="uniA78B" unicode="&#xa78b;" horiz-adv-x="214" 
d="M32 750h150v-498h-150v498z" />
    <glyph glyph-name="uniA78C" unicode="&#xa78c;" horiz-adv-x="210" 
d="M30 750h150v-498h-150v498z" />
    <glyph glyph-name="uniF8FF" unicode="&#xf8ff;" horiz-adv-x="764" 
d="M546 597h-246v-189q32 -11 63.5 -27t78.5 -42q81 -45 136 -67.5t114 -22.5q25 0 47 4q-10 -13 -35 -22.5t-62 -9.5q-75 0 -160 31.5t-182 81.5v-334h-126v386q-25 10 -52 10q-34 0 -56 -14.5t-22 -42.5q0 -19 10 -35t27 -22q-26 1 -41 18t-15 45q0 40 33.5 65t92.5 25
q14 0 23 -2v284h372v-120z" />
    <glyph glyph-name="uni004A0301" horiz-adv-x="475" 
d="M74 47q-59 55 -59 158v26l150 26v-52q0 -69 66 -69t66 69v545h150v-545q0 -103 -59 -158t-157 -55t-157 55zM331 950h167l-116 -135h-71z" />
    <glyph glyph-name="Cacute.loclPLK" horiz-adv-x="565" 
d="M150.5 20.5q-59.5 30.5 -92.5 87.5t-33 135v264q0 78 33 135t92.5 87.5t135.5 30.5q75 0 133.5 -30.5t91 -87.5t32.5 -135v-36l-148 -16l-2 42q-3 59 -30 91t-76 32q-52 0 -82 -32.5t-30 -87.5v-250q0 -55 30 -87.5t82 -32.5q49 0 76 32t30 91l2 42l148 -16v-36
q0 -78 -32.5 -135t-91 -87.5t-133.5 -30.5q-76 0 -135.5 30.5zM240 950h167l-96 -135h-71v135z" />
    <glyph glyph-name="Nacute.loclPLK" horiz-adv-x="588" 
d="M32 750h148l230 -437v437h146v-750h-148l-230 437v-437h-146v750zM250 950h167l-96 -135h-71v135z" />
    <glyph glyph-name="Oacute.loclPLK" 
d="M149.5 21q-58.5 31 -91.5 89t-33 137v256q0 79 33 137t91.5 89t134.5 31t134.5 -31t91.5 -89t33 -137v-256q0 -79 -33 -137t-91.5 -89t-134.5 -31t-134.5 31zM363 162q30 32 30 85v256q0 53 -30 85t-79 32t-79 -32t-30 -85v-256q0 -53 30 -85t79 -32t79 32zM240 950h167
l-96 -135h-71v135z" />
    <glyph glyph-name="Sacute.loclPLK" horiz-adv-x="563" 
d="M152.5 15q-61.5 25 -97 75.5t-35.5 123.5v13l150 20v-17q0 -49 32 -75.5t91 -26.5q50 0 75 21.5t25 58.5q0 36 -24 56.5t-66 32.5l-87 26q-57 17 -96 37.5t-64.5 62t-25.5 109.5q0 70 31 121.5t87.5 79t130.5 27.5q76 0 132.5 -27.5t87 -77.5t30.5 -117v-15l-150 -20v26
q0 45 -29 69t-79 24q-43 0 -67 -20t-24 -55t24 -53.5t67 -30.5l72 -20q57 -16 99 -37.5t71.5 -66t29.5 -117.5q0 -116 -69.5 -174t-182.5 -58q-77 0 -138.5 25zM238 950h167l-96 -135h-71v135z" />
    <glyph glyph-name="Zacute.loclPLK" horiz-adv-x="508" 
d="M22 105l275 505h-275v140h464v-105l-275 -505h275v-140h-464v105zM210 950h167l-96 -135h-71v135z" />
    <glyph glyph-name="G.ss01" 
d="M136 21q-51 29 -81 87t-30 141v258q0 78 33 135t91.5 87.5t134.5 30.5q75 0 133.5 -30t91.5 -86.5t34 -133.5v-6l-150 -16v15q0 53 -30 85t-79 32t-79 -32t-30 -85v-254q0 -59 29 -88t80 -29q49 0 79 32t30 85v5h-96v140h246v-394h-109l-13 99q-23 -56 -68 -81.5
t-103 -25.5q-63 0 -114 29z" />
    <glyph glyph-name="I.ss01" horiz-adv-x="400" 
d="M20 140h105v470h-105v140h360v-140h-105v-470h105v-140h-360v140z" />
    <glyph glyph-name="C.ss04" horiz-adv-x="789" 
d="M207.5 40.5q-88.5 50.5 -139 139t-50.5 195.5t50.5 195.5t139 139t195.5 50.5q94 0 170.5 -35.5t128 -99t72.5 -146.5l-146 -32q-20 79 -79.5 126t-145.5 47q-69 0 -122.5 -31.5t-82.5 -87.5t-29 -126t29 -126t82.5 -87.5t122.5 -31.5q86 0 145.5 47t79.5 126l146 -32
q-21 -83 -72.5 -146.5t-128 -99t-170.5 -35.5q-107 0 -195.5 50.5z" />
    <glyph glyph-name="Cacute.ss04" horiz-adv-x="789" 
d="M207.5 40.5q-88.5 50.5 -139 139t-50.5 195.5t50.5 195.5t139 139t195.5 50.5q94 0 170.5 -35.5t128 -99t72.5 -146.5l-146 -32q-20 79 -79.5 126t-145.5 47q-69 0 -122.5 -31.5t-82.5 -87.5t-29 -126t29 -126t82.5 -87.5t122.5 -31.5q86 0 145.5 47t79.5 126l146 -32
q-21 -83 -72.5 -146.5t-128 -99t-170.5 -35.5q-107 0 -195.5 50.5zM356 950h167l-116 -135h-71z" />
    <glyph glyph-name="Ccaron.ss04" horiz-adv-x="789" 
d="M207.5 40.5q-88.5 50.5 -139 139t-50.5 195.5t50.5 195.5t139 139t195.5 50.5q94 0 170.5 -35.5t128 -99t72.5 -146.5l-146 -32q-20 79 -79.5 126t-145.5 47q-69 0 -122.5 -31.5t-82.5 -87.5t-29 -126t29 -126t82.5 -87.5t122.5 -31.5q86 0 145.5 47t79.5 126l146 -32
q-21 -83 -72.5 -146.5t-128 -99t-170.5 -35.5q-107 0 -195.5 50.5zM240 950h102l58 -64l58 64h102l-91 -135h-138z" />
    <glyph glyph-name="Ccedilla.ss04" horiz-adv-x="789" 
d="M207.5 40.5q-88.5 50.5 -139 139t-50.5 195.5t50.5 195.5t139 139t195.5 50.5q94 0 170.5 -35.5t128 -99t72.5 -146.5l-146 -32q-20 79 -79.5 126t-145.5 47q-69 0 -122.5 -31.5t-82.5 -87.5t-29 -126t29 -126t82.5 -87.5t122.5 -31.5q86 0 145.5 47t79.5 126l146 -32
q-21 -83 -72.5 -146.5t-128 -99t-170.5 -35.5q-107 0 -195.5 50.5zM431 -195h-167l116 135h71z" />
    <glyph glyph-name="Ccircumflex.ss04" horiz-adv-x="789" 
d="M207.5 40.5q-88.5 50.5 -139 139t-50.5 195.5t50.5 195.5t139 139t195.5 50.5q94 0 170.5 -35.5t128 -99t72.5 -146.5l-146 -32q-20 79 -79.5 126t-145.5 47q-69 0 -122.5 -31.5t-82.5 -87.5t-29 -126t29 -126t82.5 -87.5t122.5 -31.5q86 0 145.5 47t79.5 126l146 -32
q-21 -83 -72.5 -146.5t-128 -99t-170.5 -35.5q-107 0 -195.5 50.5zM560 815h-102l-58 64l-58 -64h-102l91 135h138z" />
    <glyph glyph-name="Cdotaccent.ss04" horiz-adv-x="789" 
d="M207.5 40.5q-88.5 50.5 -139 139t-50.5 195.5t50.5 195.5t139 139t195.5 50.5q94 0 170.5 -35.5t128 -99t72.5 -146.5l-146 -32q-20 79 -79.5 126t-145.5 47q-69 0 -122.5 -31.5t-82.5 -87.5t-29 -126t29 -126t82.5 -87.5t122.5 -31.5q86 0 145.5 47t79.5 126l146 -32
q-21 -83 -72.5 -146.5t-128 -99t-170.5 -35.5q-107 0 -195.5 50.5zM339 814q-24 24 -24 61t24 61t61 24q38 0 61.5 -23.5t23.5 -61.5q0 -37 -24 -61t-61 -24t-61 24z" />
    <glyph glyph-name="D.ss04" horiz-adv-x="716" 
d="M32 0v750h282q108 0 196 -49t138 -135t50 -191t-50 -191t-138 -135t-196 -49h-282zM182 610v-470h132q66 0 119 30.5t83.5 84.5t30.5 120t-30.5 120t-83.5 84.5t-119 30.5h-132z" />
    <glyph glyph-name="Dcaron.ss04" horiz-adv-x="716" 
d="M32 0v750h282q108 0 196 -49t138 -135t50 -191t-50 -191t-138 -135t-196 -49h-282zM182 610v-470h132q66 0 119 30.5t83.5 84.5t30.5 120t-30.5 120t-83.5 84.5t-119 30.5h-132zM150 950h102l58 -64l58 64h102l-91 -135h-138z" />
    <glyph glyph-name="Dcroat.ss04" horiz-adv-x="736" 
d="M52 0v320h-52v110h52v320h282q108 0 196 -49t138 -135t50 -191t-50 -191t-138 -135t-196 -49h-282zM202 610v-180h166v-110h-166v-180h132q66 0 119 30.5t83.5 84.5t30.5 120t-30.5 120t-83.5 84.5t-119 30.5h-132z" />
    <glyph glyph-name="Eth.ss04" horiz-adv-x="736" 
d="M52 0v320h-52v110h52v320h282q108 0 196 -49t138 -135t50 -191t-50 -191t-138 -135t-196 -49h-282zM202 610v-180h166v-110h-166v-180h132q66 0 119 30.5t83.5 84.5t30.5 120t-30.5 120t-83.5 84.5t-119 30.5h-132z" />
    <glyph glyph-name="G.ss04" horiz-adv-x="808" 
d="M207.5 40.5q-88.5 50.5 -139 139t-50.5 195.5t50.5 195.5t139 139t195.5 50.5q134 0 231 -68.5t137 -184.5l-144 -41q-25 72 -83.5 114t-140.5 42q-69 0 -122.5 -32t-82.5 -88.5t-29 -126.5t29 -126.5t82.5 -88.5t122.5 -32q80 0 135 32.5t85 91.5h-156v123h323
q2 -109 -44 -197t-134.5 -138t-208.5 -50q-107 0 -195.5 50.5z" />
    <glyph glyph-name="Gbreve.ss04" horiz-adv-x="808" 
d="M207.5 40.5q-88.5 50.5 -139 139t-50.5 195.5t50.5 195.5t139 139t195.5 50.5q134 0 231 -68.5t137 -184.5l-144 -41q-25 72 -83.5 114t-140.5 42q-69 0 -122.5 -32t-82.5 -88.5t-29 -126.5t29 -126.5t82.5 -88.5t122.5 -32q80 0 135 32.5t85 91.5h-156v123h323
q2 -109 -44 -197t-134.5 -138t-208.5 -50q-107 0 -195.5 50.5zM287.5 852q-40.5 37 -35.5 98h88q-1 -25 16 -39t46 -14t45.5 14t15.5 39h84q5 -61 -35.5 -98t-111.5 -37q-72 0 -112.5 37z" />
    <glyph glyph-name="Gcaron.ss04" horiz-adv-x="808" 
d="M207.5 40.5q-88.5 50.5 -139 139t-50.5 195.5t50.5 195.5t139 139t195.5 50.5q134 0 231 -68.5t137 -184.5l-144 -41q-25 72 -83.5 114t-140.5 42q-69 0 -122.5 -32t-82.5 -88.5t-29 -126.5t29 -126.5t82.5 -88.5t122.5 -32q80 0 135 32.5t85 91.5h-156v123h323
q2 -109 -44 -197t-134.5 -138t-208.5 -50q-107 0 -195.5 50.5zM240 950h102l58 -64l58 64h102l-91 -135h-138z" />
    <glyph glyph-name="Gcircumflex.ss04" horiz-adv-x="808" 
d="M207.5 40.5q-88.5 50.5 -139 139t-50.5 195.5t50.5 195.5t139 139t195.5 50.5q134 0 231 -68.5t137 -184.5l-144 -41q-25 72 -83.5 114t-140.5 42q-69 0 -122.5 -32t-82.5 -88.5t-29 -126.5t29 -126.5t82.5 -88.5t122.5 -32q80 0 135 32.5t85 91.5h-156v123h323
q2 -109 -44 -197t-134.5 -138t-208.5 -50q-107 0 -195.5 50.5zM560 815h-102l-58 64l-58 -64h-102l91 135h138z" />
    <glyph glyph-name="uni0122.ss04" horiz-adv-x="808" 
d="M207.5 40.5q-88.5 50.5 -139 139t-50.5 195.5t50.5 195.5t139 139t195.5 50.5q134 0 231 -68.5t137 -184.5l-144 -41q-25 72 -83.5 114t-140.5 42q-69 0 -122.5 -32t-82.5 -88.5t-29 -126.5t29 -126.5t82.5 -88.5t122.5 -32q80 0 135 32.5t85 91.5h-156v123h323
q2 -109 -44 -197t-134.5 -138t-208.5 -50q-107 0 -195.5 50.5zM457 -143l-52 -116l-48 21l32 70q-26 3 -41 20.5t-15 44.5q0 29 19 48t48 19t48 -19t19 -48q0 -17 -10 -40z" />
    <glyph glyph-name="Gdotaccent.ss04" horiz-adv-x="808" 
d="M207.5 40.5q-88.5 50.5 -139 139t-50.5 195.5t50.5 195.5t139 139t195.5 50.5q134 0 231 -68.5t137 -184.5l-144 -41q-25 72 -83.5 114t-140.5 42q-69 0 -122.5 -32t-82.5 -88.5t-29 -126.5t29 -126.5t82.5 -88.5t122.5 -32q80 0 135 32.5t85 91.5h-156v123h323
q2 -109 -44 -197t-134.5 -138t-208.5 -50q-107 0 -195.5 50.5zM339 814q-24 24 -24 61t24 61t61 24q38 0 61.5 -23.5t23.5 -61.5q0 -37 -24 -61t-61 -24t-61 24z" />
    <glyph glyph-name="uni1E20.ss04" horiz-adv-x="808" 
d="M207.5 40.5q-88.5 50.5 -139 139t-50.5 195.5t50.5 195.5t139 139t195.5 50.5q134 0 231 -68.5t137 -184.5l-144 -41q-25 72 -83.5 114t-140.5 42q-69 0 -122.5 -32t-82.5 -88.5t-29 -126.5t29 -126.5t82.5 -88.5t122.5 -32q80 0 135 32.5t85 91.5h-156v123h323
q2 -109 -44 -197t-134.5 -138t-208.5 -50q-107 0 -195.5 50.5zM254 938h292v-110h-292v110z" />
    <glyph glyph-name="O.ss04" horiz-adv-x="806" 
d="M207.5 40.5q-88.5 50.5 -139 139t-50.5 195.5t50.5 195.5t139 139t195.5 50.5t195.5 -50.5t139 -139t50.5 -195.5t-50.5 -195.5t-139 -139t-195.5 -50.5t-195.5 50.5zM525.5 161.5q53.5 31.5 82.5 87.5t29 126t-29 126t-82.5 87.5t-122.5 31.5t-122.5 -31.5t-82.5 -87.5
t-29 -126t29 -126t82.5 -87.5t122.5 -31.5t122.5 31.5z" />
    <glyph glyph-name="Oacute.ss04" horiz-adv-x="806" 
d="M207.5 40.5q-88.5 50.5 -139 139t-50.5 195.5t50.5 195.5t139 139t195.5 50.5t195.5 -50.5t139 -139t50.5 -195.5t-50.5 -195.5t-139 -139t-195.5 -50.5t-195.5 50.5zM525.5 161.5q53.5 31.5 82.5 87.5t29 126t-29 126t-82.5 87.5t-122.5 31.5t-122.5 -31.5t-82.5 -87.5
t-29 -126t29 -126t82.5 -87.5t122.5 -31.5t122.5 31.5zM359 950h167l-116 -135h-71z" />
    <glyph glyph-name="Ocircumflex.ss04" horiz-adv-x="806" 
d="M207.5 40.5q-88.5 50.5 -139 139t-50.5 195.5t50.5 195.5t139 139t195.5 50.5t195.5 -50.5t139 -139t50.5 -195.5t-50.5 -195.5t-139 -139t-195.5 -50.5t-195.5 50.5zM525.5 161.5q53.5 31.5 82.5 87.5t29 126t-29 126t-82.5 87.5t-122.5 31.5t-122.5 -31.5t-82.5 -87.5
t-29 -126t29 -126t82.5 -87.5t122.5 -31.5t122.5 31.5zM563 815h-102l-58 64l-58 -64h-102l91 135h138z" />
    <glyph glyph-name="uni1ED0.ss04" horiz-adv-x="806" 
d="M207.5 40.5q-88.5 50.5 -139 139t-50.5 195.5t50.5 195.5t139 139t195.5 50.5t195.5 -50.5t139 -139t50.5 -195.5t-50.5 -195.5t-139 -139t-195.5 -50.5t-195.5 50.5zM525.5 161.5q53.5 31.5 82.5 87.5t29 126t-29 126t-82.5 87.5t-122.5 31.5t-122.5 -31.5t-82.5 -87.5
t-29 -126t29 -126t82.5 -87.5t122.5 -31.5t122.5 31.5zM563 815h-102l-58 64l-58 -64h-102l91 135h138zM525 1060h142l-99 -115h-60z" />
    <glyph glyph-name="uni1ED8.ss04" horiz-adv-x="806" 
d="M207.5 40.5q-88.5 50.5 -139 139t-50.5 195.5t50.5 195.5t139 139t195.5 50.5t195.5 -50.5t139 -139t50.5 -195.5t-50.5 -195.5t-139 -139t-195.5 -50.5t-195.5 50.5zM525.5 161.5q53.5 31.5 82.5 87.5t29 126t-29 126t-82.5 87.5t-122.5 31.5t-122.5 -31.5t-82.5 -87.5
t-29 -126t29 -126t82.5 -87.5t122.5 -31.5t122.5 31.5zM347.5 -168.5q-21.5 21.5 -21.5 55.5t21.5 55.5t55.5 21.5t55.5 -21.5t21.5 -55.5t-21.5 -55.5t-55.5 -21.5t-55.5 21.5zM563 815h-102l-58 64l-58 -64h-102l91 135h138z" />
    <glyph glyph-name="uni1ED2.ss04" horiz-adv-x="806" 
d="M207.5 40.5q-88.5 50.5 -139 139t-50.5 195.5t50.5 195.5t139 139t195.5 50.5t195.5 -50.5t139 -139t50.5 -195.5t-50.5 -195.5t-139 -139t-195.5 -50.5t-195.5 50.5zM525.5 161.5q53.5 31.5 82.5 87.5t29 126t-29 126t-82.5 87.5t-122.5 31.5t-122.5 -31.5t-82.5 -87.5
t-29 -126t29 -126t82.5 -87.5t122.5 -31.5t122.5 31.5zM334 950h138l91 -135h-102l-58 64l-58 -64h-102zM448 1060h142l17 -115h-61z" />
    <glyph glyph-name="uni1ED4.ss04" horiz-adv-x="806" 
d="M207.5 40.5q-88.5 50.5 -139 139t-50.5 195.5t50.5 195.5t139 139t195.5 50.5t195.5 -50.5t139 -139t50.5 -195.5t-50.5 -195.5t-139 -139t-195.5 -50.5t-195.5 50.5zM525.5 161.5q53.5 31.5 82.5 87.5t29 126t-29 126t-82.5 87.5t-122.5 31.5t-122.5 -31.5t-82.5 -87.5
t-29 -126t29 -126t82.5 -87.5t122.5 -31.5t122.5 31.5zM334 950h138l91 -135h-102l-58 64l-58 -64h-102zM562 978q11 6 11 19t-13.5 18.5t-42.5 5.5v79h14q138 0 138 -81q0 -62 -76 -72v-19h-66v43q24 1 35 7z" />
    <glyph glyph-name="uni1ED6.ss04" horiz-adv-x="806" 
d="M207.5 40.5q-88.5 50.5 -139 139t-50.5 195.5t50.5 195.5t139 139t195.5 50.5t195.5 -50.5t139 -139t50.5 -195.5t-50.5 -195.5t-139 -139t-195.5 -50.5t-195.5 50.5zM525.5 161.5q53.5 31.5 82.5 87.5t29 126t-29 126t-82.5 87.5t-122.5 31.5t-122.5 -31.5t-82.5 -87.5
t-29 -126t29 -126t82.5 -87.5t122.5 -31.5t122.5 31.5zM334 950h138l91 -135h-102l-58 64l-58 -64h-102zM433.5 996q-21.5 7 -47.5 18q-30 13 -37 13q-11 0 -16 -7t-5 -28h-78q-1 8 -1 23q0 53 19.5 76t60.5 23q22 0 41 -6t49 -18q3 -1 17 -7t22 -6q11 0 16 6.5t5 27.5h77
q1 -8 1 -23q0 -53 -19.5 -76t-59.5 -23q-23 0 -44.5 7z" />
    <glyph glyph-name="Odieresis.ss04" horiz-adv-x="806" 
d="M207.5 40.5q-88.5 50.5 -139 139t-50.5 195.5t50.5 195.5t139 139t195.5 50.5t195.5 -50.5t139 -139t50.5 -195.5t-50.5 -195.5t-139 -139t-195.5 -50.5t-195.5 50.5zM525.5 161.5q53.5 31.5 82.5 87.5t29 126t-29 126t-82.5 87.5t-122.5 31.5t-122.5 -31.5t-82.5 -87.5
t-29 -126t29 -126t82.5 -87.5t122.5 -31.5t122.5 31.5zM241.5 815.5q-23.5 23.5 -23.5 59.5q0 37 23.5 60t59.5 23q37 0 60 -23t23 -60q0 -36 -23 -59.5t-60 -23.5q-36 0 -59.5 23.5zM443.5 815.5q-23.5 23.5 -23.5 59.5q0 37 23.5 60t59.5 23q37 0 60 -23t23 -60
q0 -36 -23 -59.5t-60 -23.5q-36 0 -59.5 23.5z" />
    <glyph glyph-name="uni1ECC.ss04" horiz-adv-x="806" 
d="M207.5 40.5q-88.5 50.5 -139 139t-50.5 195.5t50.5 195.5t139 139t195.5 50.5t195.5 -50.5t139 -139t50.5 -195.5t-50.5 -195.5t-139 -139t-195.5 -50.5t-195.5 50.5zM525.5 161.5q53.5 31.5 82.5 87.5t29 126t-29 126t-82.5 87.5t-122.5 31.5t-122.5 -31.5t-82.5 -87.5
t-29 -126t29 -126t82.5 -87.5t122.5 -31.5t122.5 31.5zM347.5 -168.5q-21.5 21.5 -21.5 55.5t21.5 55.5t55.5 21.5t55.5 -21.5t21.5 -55.5t-21.5 -55.5t-55.5 -21.5t-55.5 21.5z" />
    <glyph glyph-name="Ograve.ss04" horiz-adv-x="806" 
d="M207.5 40.5q-88.5 50.5 -139 139t-50.5 195.5t50.5 195.5t139 139t195.5 50.5t195.5 -50.5t139 -139t50.5 -195.5t-50.5 -195.5t-139 -139t-195.5 -50.5t-195.5 50.5zM525.5 161.5q53.5 31.5 82.5 87.5t29 126t-29 126t-82.5 87.5t-122.5 31.5t-122.5 -31.5t-82.5 -87.5
t-29 -126t29 -126t82.5 -87.5t122.5 -31.5t122.5 31.5zM386 815l-116 135h167l20 -135h-71z" />
    <glyph glyph-name="uni1ECE.ss04" horiz-adv-x="806" 
d="M207.5 40.5q-88.5 50.5 -139 139t-50.5 195.5t50.5 195.5t139 139t195.5 50.5t195.5 -50.5t139 -139t50.5 -195.5t-50.5 -195.5t-139 -139t-195.5 -50.5t-195.5 50.5zM525.5 161.5q53.5 31.5 82.5 87.5t29 126t-29 126t-82.5 87.5t-122.5 31.5t-122.5 -31.5t-82.5 -87.5
t-29 -126t29 -126t82.5 -87.5t122.5 -31.5t122.5 31.5zM408.5 867.5q11.5 6.5 11.5 19.5t-13.5 19t-44.5 6v83h15q143 0 143 -85q0 -63 -79 -75v-19h-69v44q25 1 36.5 7.5z" />
    <glyph glyph-name="Ohorn.ss04" horiz-adv-x="806" 
d="M207.5 40.5q-88.5 50.5 -139 139t-50.5 195.5t50.5 195.5t139 139t195.5 50.5q57 0 117 -10q40 -7 69 -7q31 0 48.5 17.5t17.5 46.5q0 26 -11 62h112q13 -45 13 -79q0 -47 -28 -79.5t-81 -44.5q60 -54 94 -129t34 -162q0 -107 -50.5 -195.5t-139 -139t-195.5 -50.5
t-195.5 50.5zM525.5 161.5q53.5 31.5 82.5 87.5t29 126t-29 126t-82.5 87.5t-122.5 31.5t-122.5 -31.5t-82.5 -87.5t-29 -126t29 -126t82.5 -87.5t122.5 -31.5t122.5 31.5z" />
    <glyph glyph-name="uni1EDA.ss04" horiz-adv-x="806" 
d="M207.5 40.5q-88.5 50.5 -139 139t-50.5 195.5t50.5 195.5t139 139t195.5 50.5q57 0 117 -10q40 -7 69 -7q31 0 48.5 17.5t17.5 46.5q0 26 -11 62h112q13 -45 13 -79q0 -47 -28 -79.5t-81 -44.5q60 -54 94 -129t34 -162q0 -107 -50.5 -195.5t-139 -139t-195.5 -50.5
t-195.5 50.5zM525.5 161.5q53.5 31.5 82.5 87.5t29 126t-29 126t-82.5 87.5t-122.5 31.5t-122.5 -31.5t-82.5 -87.5t-29 -126t29 -126t82.5 -87.5t122.5 -31.5t122.5 31.5zM359 950h167l-116 -135h-71z" />
    <glyph glyph-name="uni1EE2.ss04" horiz-adv-x="806" 
d="M207.5 40.5q-88.5 50.5 -139 139t-50.5 195.5t50.5 195.5t139 139t195.5 50.5q57 0 117 -10q40 -7 69 -7q31 0 48.5 17.5t17.5 46.5q0 26 -11 62h112q13 -45 13 -79q0 -47 -28 -79.5t-81 -44.5q60 -54 94 -129t34 -162q0 -107 -50.5 -195.5t-139 -139t-195.5 -50.5
t-195.5 50.5zM525.5 161.5q53.5 31.5 82.5 87.5t29 126t-29 126t-82.5 87.5t-122.5 31.5t-122.5 -31.5t-82.5 -87.5t-29 -126t29 -126t82.5 -87.5t122.5 -31.5t122.5 31.5zM347.5 -168.5q-21.5 21.5 -21.5 55.5t21.5 55.5t55.5 21.5t55.5 -21.5t21.5 -55.5t-21.5 -55.5
t-55.5 -21.5t-55.5 21.5z" />
    <glyph glyph-name="uni1EDC.ss04" horiz-adv-x="806" 
d="M207.5 40.5q-88.5 50.5 -139 139t-50.5 195.5t50.5 195.5t139 139t195.5 50.5q57 0 117 -10q40 -7 69 -7q31 0 48.5 17.5t17.5 46.5q0 26 -11 62h112q13 -45 13 -79q0 -47 -28 -79.5t-81 -44.5q60 -54 94 -129t34 -162q0 -107 -50.5 -195.5t-139 -139t-195.5 -50.5
t-195.5 50.5zM525.5 161.5q53.5 31.5 82.5 87.5t29 126t-29 126t-82.5 87.5t-122.5 31.5t-122.5 -31.5t-82.5 -87.5t-29 -126t29 -126t82.5 -87.5t122.5 -31.5t122.5 31.5zM386 815l-116 135h167l20 -135h-71z" />
    <glyph glyph-name="uni1EDE.ss04" horiz-adv-x="806" 
d="M207.5 40.5q-88.5 50.5 -139 139t-50.5 195.5t50.5 195.5t139 139t195.5 50.5q57 0 117 -10q40 -7 69 -7q31 0 48.5 17.5t17.5 46.5q0 26 -11 62h112q13 -45 13 -79q0 -47 -28 -79.5t-81 -44.5q60 -54 94 -129t34 -162q0 -107 -50.5 -195.5t-139 -139t-195.5 -50.5
t-195.5 50.5zM525.5 161.5q53.5 31.5 82.5 87.5t29 126t-29 126t-82.5 87.5t-122.5 31.5t-122.5 -31.5t-82.5 -87.5t-29 -126t29 -126t82.5 -87.5t122.5 -31.5t122.5 31.5zM408.5 867.5q11.5 6.5 11.5 19.5t-13.5 19t-44.5 6v83h15q143 0 143 -85q0 -63 -79 -75v-19h-69v44
q25 1 36.5 7.5z" />
    <glyph glyph-name="uni1EE0.ss04" horiz-adv-x="806" 
d="M207.5 40.5q-88.5 50.5 -139 139t-50.5 195.5t50.5 195.5t139 139t195.5 50.5q57 0 117 -10q40 -7 69 -7q31 0 48.5 17.5t17.5 46.5q0 26 -11 62h112q13 -45 13 -79q0 -47 -28 -79.5t-81 -44.5q60 -54 94 -129t34 -162q0 -107 -50.5 -195.5t-139 -139t-195.5 -50.5
t-195.5 50.5zM525.5 161.5q53.5 31.5 82.5 87.5t29 126t-29 126t-82.5 87.5t-122.5 31.5t-122.5 -31.5t-82.5 -87.5t-29 -126t29 -126t82.5 -87.5t122.5 -31.5t122.5 31.5zM436 823.5q-24 7.5 -51 19.5q-31 14 -42 14q-12 0 -17.5 -7.5t-5.5 -30.5h-85q-1 9 -1 26
q0 58 21.5 83t65.5 25q25 0 49 -7.5t51 -19.5q32 -14 42 -14q12 0 17.5 7.5t5.5 30.5h85q1 -9 1 -26q0 -58 -21.5 -83t-65.5 -25q-25 0 -49 7.5z" />
    <glyph glyph-name="Ohungarumlaut.ss04" horiz-adv-x="806" 
d="M207.5 40.5q-88.5 50.5 -139 139t-50.5 195.5t50.5 195.5t139 139t195.5 50.5t195.5 -50.5t139 -139t50.5 -195.5t-50.5 -195.5t-139 -139t-195.5 -50.5t-195.5 50.5zM525.5 161.5q53.5 31.5 82.5 87.5t29 126t-29 126t-82.5 87.5t-122.5 31.5t-122.5 -31.5t-82.5 -87.5
t-29 -126t29 -126t82.5 -87.5t122.5 -31.5t122.5 31.5zM457 950h167l-116 -135h-71zM282 950h167l-116 -135h-71z" />
    <glyph glyph-name="Omacron.ss04" horiz-adv-x="806" 
d="M207.5 40.5q-88.5 50.5 -139 139t-50.5 195.5t50.5 195.5t139 139t195.5 50.5t195.5 -50.5t139 -139t50.5 -195.5t-50.5 -195.5t-139 -139t-195.5 -50.5t-195.5 50.5zM525.5 161.5q53.5 31.5 82.5 87.5t29 126t-29 126t-82.5 87.5t-122.5 31.5t-122.5 -31.5t-82.5 -87.5
t-29 -126t29 -126t82.5 -87.5t122.5 -31.5t122.5 31.5zM257 938h292v-110h-292v110z" />
    <glyph glyph-name="Oslash.ss04" horiz-adv-x="806" 
d="M124 105q-50 53 -78 122t-28 148q0 107 50.5 195.5t139 139t195.5 50.5q95 0 175 -40l21 30h162l-76 -109q49 -52 76 -120.5t27 -145.5q0 -107 -50.5 -195.5t-139 -139t-195.5 -50.5q-90 0 -171 38l-20 -28h-162zM525.5 161.5q53.5 31.5 82.5 87.5t29 126q0 87 -45 151
l-267 -384q36 -12 78 -12q69 0 122.5 31.5zM217 218l269 389q-41 13 -83 13q-69 0 -122.5 -31.5t-82.5 -87.5t-29 -126q0 -92 48 -157z" />
    <glyph glyph-name="Otilde.ss04" horiz-adv-x="806" 
d="M207.5 40.5q-88.5 50.5 -139 139t-50.5 195.5t50.5 195.5t139 139t195.5 50.5t195.5 -50.5t139 -139t50.5 -195.5t-50.5 -195.5t-139 -139t-195.5 -50.5t-195.5 50.5zM525.5 161.5q53.5 31.5 82.5 87.5t29 126t-29 126t-82.5 87.5t-122.5 31.5t-122.5 -31.5t-82.5 -87.5
t-29 -126t29 -126t82.5 -87.5t122.5 -31.5t122.5 31.5zM436 823.5q-24 7.5 -51 19.5q-31 14 -42 14q-12 0 -17.5 -7.5t-5.5 -30.5h-85q-1 9 -1 26q0 58 21.5 83t65.5 25q25 0 49 -7.5t51 -19.5q32 -14 42 -14q12 0 17.5 7.5t5.5 30.5h85q1 -9 1 -26q0 -58 -21.5 -83
t-65.5 -25q-25 0 -49 7.5z" />
    <glyph glyph-name="OE.ss04" horiz-adv-x="1032" 
d="M203 49.5q-86 49.5 -135.5 135.5t-49.5 190t49.5 190t135.5 135.5t190 49.5h615v-140h-280v-157h210v-138h-210v-175h282v-140h-617q-104 0 -190 49.5zM578 140v470h-185q-66 0 -117 -30.5t-79 -84t-28 -120.5t28 -120.5t79 -84t117 -30.5h185z" />
    <glyph glyph-name="Q.ss04" horiz-adv-x="809" 
d="M207.5 49.5q-88.5 49.5 -139 135.5t-50.5 190q0 107 50.5 195.5t139 139t195.5 50.5t195.5 -50.5t139 -139t50.5 -195.5q0 -81 -37 -139.5t-110 -102.5h160v-133h-398q-107 0 -195.5 49.5zM198 257q29 -55 82.5 -86t122.5 -31t122.5 31t82.5 86t29 124t-29 123t-82.5 85
t-122.5 31t-122.5 -31t-82.5 -85t-29 -123t29 -124z" />
    <glyph glyph-name="Aacute.ss05" horiz-adv-x="565" 
d="M186 750h39v-62h91l47 62h16l186 -750h-179l-20 101h-178l-20 -101h-168zM343 221l-65 332l-66 -332h131zM238 835h167l-96 -135h-71v135z" />
    <glyph glyph-name="Abreve.ss05" horiz-adv-x="565" 
d="M283 688q69 0 103 30l179 -718h-177l-20 101h-181l-21 -101h-166l179 720q33 -32 104 -32zM344 221l-66 340l-68 -340h134zM188.5 727.5q-32.5 27.5 -32.5 82.5q0 15 1 23h88q-5 -51 40 -51q44 0 39 51h84q1 -8 1 -23q0 -110 -126 -110q-62 0 -94.5 27.5z" />
    <glyph glyph-name="Acircumflex.ss05" horiz-adv-x="564" 
d="M170 688h79l33 45l33 -45h79l170 -688h-176l-21 101h-181l-21 -101h-165zM343 221l-66 341l-68 -341h134zM209 835h146l57 -135h-92l-38 52l-38 -52h-92z" />
    <glyph glyph-name="Adieresis.ss05" horiz-adv-x="566" 
d="M203 688q26 0 47.5 13t31.5 36h2q10 -23 31.5 -36t47.5 -13q14 0 32 5l171 -693h-178l-20 101h-182l-21 -101h-165l171 693q18 -5 32 -5zM344 221l-66 338l-68 -338h134zM147.5 721q-21.5 21 -21.5 55t21.5 55t54.5 21q34 0 55 -21t21 -55t-21 -55t-55 -21
q-33 0 -54.5 21zM309.5 721q-21.5 21 -21.5 55t21.5 55t54.5 21q34 0 55 -21t21 -55t-21 -55t-55 -21q-33 0 -54.5 21z" />
    <glyph glyph-name="Agrave.ss05" horiz-adv-x="565" 
d="M186 750h15l47 -62h91v62h40l186 -750h-177l-20 101h-182l-19 -101h-167zM344 221l-66 336l-68 -336h134zM159 835h167v-135h-71z" />
    <glyph glyph-name="Amacron.ss05" horiz-adv-x="565" 
d="M170 688h224l171 -688h-177l-20 101h-182l-20 -101h-166zM163 810h232v-110h-232v110zM345 221l-67 339l-68 -339h135z" />
    <glyph glyph-name="Aring.ss05" horiz-adv-x="565" 
d="M219.5 687q26.5 -18 62.5 -18q37 0 63 17.5t38 47.5l182 -734h-177l-20 101h-182l-19 -101h-167l181 734q12 -29 38.5 -47zM344 221l-66 340l-67 -340h133zM213 707q-26 26 -26 65t26 65t69 26t69 -26t26 -65t-26 -65t-69 -26t-69 26zM303 751.5q8 8.5 8 20.5t-8 20.5
t-21 8.5t-21 -8.5t-8 -20.5t8 -20.5t21 -8.5t21 8.5z" />
    <glyph glyph-name="Atilde.ss05" horiz-adv-x="564" 
d="M172 697h61v34h7q5 0 20 -10q22 -14 41.5 -22t45.5 -8q22 0 44 7l173 -698h-176l-20 101h-182l-20 -101h-166zM344 221l-66 340l-68 -340h134zM302.5 710.5q-18.5 7.5 -37.5 20.5q-20 13 -28 13q-16 0 -16 -33h-85q-1 9 -1 25q0 55 21.5 79.5t65.5 24.5q26 0 45 -8
t41 -22q2 -1 10 -6t13 -5q16 0 16 33h85q1 -9 1 -25q0 -55 -21.5 -79.5t-65.5 -24.5q-25 0 -43.5 7.5z" />
    <glyph glyph-name="Cacute.ss05" horiz-adv-x="565" 
d="M149.5 23q-58.5 31 -91.5 89t-33 137v258q0 102 54.5 167t146.5 81v-67h91l47 62q82 -21 130.5 -85t48.5 -158v-31l-150 -16v43q0 54 -29 85.5t-80 31.5q-49 0 -79 -32t-30 -85v-256q0 -53 30 -85t79 -32q51 0 80 31.5t29 85.5v55l150 -16v-39q0 -79 -33 -136.5
t-91.5 -88t-134.5 -30.5t-134.5 31zM239 835h167l-96 -135h-71v135z" />
    <glyph glyph-name="Ccaron.ss05" horiz-adv-x="565" 
d="M149.5 23q-58.5 31 -91.5 89t-33 137v258q0 85 39.5 145.5t108.5 88.5l21 -53h180l20 53q69 -28 109 -89t40 -145v-31l-150 -16v43q0 54 -29 85.5t-80 31.5q-49 0 -79 -32t-30 -85v-256q0 -53 30 -85t79 -32q51 0 80 31.5t29 85.5v55l150 -16v-39q0 -79 -33 -136.5
t-91.5 -88t-134.5 -30.5t-134.5 31zM154 835h92l38 -57l38 57h92l-52 -135h-156z" />
    <glyph glyph-name="Dcaron.ss05" horiz-adv-x="559" 
d="M32 750h116l24 -62h180l19 48q76 -25 119.5 -88.5t43.5 -154.5v-236q0 -79 -33 -137t-91.5 -89t-134.5 -31h-243v750zM354 172q30 32 30 85v236q0 53 -30 85t-79 32h-93v-470h93q49 0 79 32zM132 835h92l38 -57l38 57h92l-52 -135h-156z" />
    <glyph glyph-name="Eacute.ss05" horiz-adv-x="486" 
d="M32 750h171v-62h91l46 62h122v-140h-280v-157h210v-138h-210v-175h282v-140h-432v750zM216 835h167l-96 -135h-71v135z" />
    <glyph glyph-name="Ecaron.ss05" horiz-adv-x="486" 
d="M32 750h105l24 -62h180l24 62h97v-140h-280v-157h210v-138h-210v-175h282v-140h-432v750zM121 835h92l38 -57l38 57h92l-52 -135h-156z" />
    <glyph glyph-name="Ecircumflex.ss05" horiz-adv-x="486" 
d="M32 750h91l-28 -62h119l34 45l31 -45h120l-28 62h91v-140h-280v-157h210v-138h-210v-175h282v-140h-432v750zM174 835h146l57 -135h-92l-38 51l-38 -51h-92z" />
    <glyph glyph-name="Edieresis.ss05" horiz-adv-x="488" 
d="M32 750h51q8 -28 30.5 -45t54.5 -17q27 0 48 13.5t32 36.5q10 -23 31 -36.5t49 -13.5q31 0 53.5 16.5t30.5 45.5h51v-140h-281v-157h210v-138h-210v-175h282v-140h-432v750zM113 721q-21 21 -21 55t21 55t55 21q33 0 54 -21t21 -55t-21 -55t-54 -21q-34 0 -55 21z
M273 721q-21 21 -21 55t21 55t55 21q33 0 54 -21t21 -55t-21 -55t-54 -21q-34 0 -55 21z" />
    <glyph glyph-name="Edotaccent.ss05" horiz-adv-x="486" 
d="M32 750h133q8 -28 31.5 -45t54.5 -17t54 17t31 45h127v-140h-281v-157h210v-138h-210v-175h282v-140h-432v750zM198.5 724.5q-20.5 20.5 -20.5 52.5t20.5 52.5t52.5 20.5t52.5 -20.5t20.5 -52.5t-20.5 -52.5t-52.5 -20.5t-52.5 20.5z" />
    <glyph glyph-name="Egrave.ss05" horiz-adv-x="486" 
d="M32 750h146l46 -62h91v62h148v-140h-281v-157h210v-138h-210v-175h282v-140h-432v750zM135 835h167v-135h-71z" />
    <glyph glyph-name="Emacron.ss05" horiz-adv-x="486" 
d="M32 750h93v-62h257v62h81v-140h-281v-157h210v-138h-210v-175h282v-140h-432v750zM138 810h231v-110h-231v110z" />
    <glyph glyph-name="Gbreve.ss05" 
d="M149.5 23q-58.5 31 -91.5 89t-33 137v258q0 84 38.5 144t106.5 88q32 -51 121 -51q84 0 117 46q63 -29 99 -87t36 -138v-6l-150 -16v15q0 53 -30 85.5t-79 32.5t-79 -32t-30 -85v-254q0 -53 30 -85t79 -32t79 32t30 85v5h-96v140h246v-145q0 -79 -33 -137t-91.5 -89
t-134.5 -31t-134.5 31zM196.5 727.5q-32.5 27.5 -32.5 82.5q0 15 1 23h88q-5 -51 40 -51q44 0 39 51h84q1 -8 1 -23q0 -110 -126 -110q-62 0 -94.5 27.5z" />
    <glyph glyph-name="Iacute.ss05" horiz-adv-x="214" 
d="M32 750h17v-62h91l42 55v-743h-150v750zM62 835h167l-96 -135h-71v135z" />
    <glyph glyph-name="Icircumflex.ss05" horiz-adv-x="214" 
d="M32 688h41l34 47l34 -47h41v-688h-150v688zM34 835h146l57 -135h-92l-38 52l-38 -52h-92z" />
    <glyph glyph-name="Idieresis.ss05" horiz-adv-x="214" 
d="M80.5 706.5q19.5 16.5 26.5 43.5q7 -27 26.5 -43.5t48.5 -18.5v-688h-150v688q29 2 48.5 18.5zM-30 721q-21 21 -21 55t21 55t55 21t55 -21t21 -55t-21 -55t-55 -21t-55 21zM134 721q-21 21 -21 55t21 55t55 21t55 -21t21 -55t-21 -55t-55 -21t-55 21z" />
    <glyph glyph-name="Idotaccent.ss05" horiz-adv-x="214" 
d="M63 697q20 -11 44 -11t44 11t31 31v-728h-150v728q11 -20 31 -31zM52.5 719q-21.5 21 -21.5 55t21.5 55t54.5 21t54.5 -21t21.5 -55t-21.5 -55t-54.5 -21t-54.5 21z" />
    <glyph glyph-name="Igrave.ss05" horiz-adv-x="214" 
d="M32 743l42 -55h91v62h17v-750h-150v743zM-15 835h167v-135h-71z" />
    <glyph glyph-name="Imacron.ss05" horiz-adv-x="214" 
d="M32 688h150v-688h-150v688zM-9 810h232v-110h-232v110z" />
    <glyph glyph-name="Lacute.ss05" horiz-adv-x="477" 
d="M32 750h14v-62h91l45 60v-608h271v-140h-421v750zM59 835h167l-101 -135h-66v135z" />
    <glyph glyph-name="N.ss05" horiz-adv-x="588" 
d="M32 750h98q36 0 54 -31l222 -396v427h150v-750h-98q-36 0 -54 31l-222 396v-427h-150v750z" />
    <glyph glyph-name="Nacute.ss05" horiz-adv-x="588" 
d="M32 750h134l240 -427v427h150v-750h-134l-240 427v-427h-150v750zM253 835h167l-96 -135h-71v135z" />
    <glyph glyph-name="Ncaron.ss05" horiz-adv-x="588" 
d="M32 750h134l240 -427v427h150v-750h-134l-240 427v-427h-150v750zM164 834h92l38 -57l38 57h92l-52 -135h-156z" />
    </font>
</defs>
</svg>
