<?xml version="1.0" standalone="no"?>
<!DOCTYPE svg PUBLIC "-//W3C//DTD SVG 1.1//EN" "http://www.w3.org/Graphics/SVG/1.1/DTD/svg11.dtd" >
<svg xmlns="http://www.w3.org/2000/svg" xmlns:xlink="http://www.w3.org/1999/xlink" version="1.1">
<metadata>
Created by FontForge 20201107 at Thu Jun  1 16:10:02 2023
 By www-data
TM &#38; C Turner Broadcasting System, Inc. A WarnerMedia Company. All Rights Reserved.
</metadata>
<defs>
<font id="TNTDigital-Regular" horiz-adv-x="0" >
  <font-face 
    font-family="TNT Digital"
    font-weight="400"
    font-stretch="normal"
    units-per-em="1000"
    panose-1="0 0 0 0 0 0 0 0 0 0"
    ascent="800"
    descent="-200"
    x-height="550"
    cap-height="750"
    bbox="-100 -257 1169 1126"
    underline-thickness="50"
    underline-position="-125"
    unicode-range="U+0020-F8FF"
  />
<missing-glyph horiz-adv-x="594" 
d="M162 692v-634h270v634h-270zM100 750h394v-750h-394v750zM202 317h190v-58h-64v-103h-62v103h-64v58zM202 491h64v103h62v-103h64v-58h-190v58z" />
    <glyph glyph-name=".notdef" horiz-adv-x="594" 
d="M162 692v-634h270v634h-270zM100 750h394v-750h-394v750zM202 317h190v-58h-64v-103h-62v103h-64v58zM202 491h64v103h62v-103h64v-58h-190v58z" />
    <glyph glyph-name=".null" 
 />
    <glyph glyph-name="nonmarkingreturn" horiz-adv-x="333" 
 />
    <glyph glyph-name="space" unicode=" " horiz-adv-x="155" 
 />
    <glyph glyph-name="exclam" unicode="!" horiz-adv-x="221" 
d="M161 210h-100v540h100v-540zM67 11q-17 17 -17 44q0 26 17 43t44 17q26 0 43 -17t17 -43q0 -27 -17 -44t-43 -17q-27 0 -44 17z" />
    <glyph glyph-name="quotedbl" unicode="&#x22;" horiz-adv-x="319" 
d="M124.5 741q15.5 -15 15.5 -40q0 -21 -14 -78t-16 -65l-7 -28h-36l-8 33q-29 114 -29 138q0 25 15.5 40t39.5 15t39.5 -15zM274.5 741q15.5 -15 15.5 -40q0 -21 -14 -78t-16 -65l-7 -28h-36l-8 33q-29 114 -29 138q0 25 15.5 40t39.5 15t39.5 -15z" />
    <glyph glyph-name="numbersign" unicode="#" horiz-adv-x="685" 
d="M369 206h-153l-62 -206h-102l62 206h-98v93h125l46 153h-131v93h159l61 205h102l-61 -205h153l61 205h102l-61 -205h97v-93h-125l-46 -153h131v-93h-158l-62 -206h-102zM396 299l46 153h-153l-46 -153h153z" />
    <glyph glyph-name="dollar" unicode="$" horiz-adv-x="547" 
d="M325 860v-104q82 -14 129 -68.5t47 -139.5v-19l-100 -15v29q0 61 -36.5 93t-99.5 32q-56 0 -88.5 -28.5t-32.5 -77.5q0 -43 27 -71t82 -45l75 -23q87 -27 136.5 -75.5t49.5 -140.5q0 -91 -51.5 -146.5t-137.5 -67.5v-103h-93v103q-90 12 -144.5 68.5t-54.5 147.5v16
l100 15v-22q0 -63 39.5 -99.5t107.5 -36.5q63 0 98.5 32t35.5 86q0 47 -28 77t-86 49l-84 26q-83 26 -127.5 71t-44.5 129q0 86 51 140.5t137 65.5v102h93z" />
    <glyph glyph-name="percent" unicode="%" horiz-adv-x="842" 
d="M590 750h87l-425 -750h-88zM80.5 385q-42.5 43 -42.5 112v110q0 68 42.5 110.5t111.5 42.5q70 0 113 -42.5t43 -110.5v-110q0 -68 -43 -111.5t-113 -43.5q-69 0 -111.5 43zM250.5 436q22.5 24 22.5 61v110q0 37 -22.5 60.5t-58.5 23.5t-57.5 -23.5t-21.5 -60.5v-110
q0 -37 21.5 -61t57.5 -24t58.5 24zM537 33q-43 43 -43 112v110q0 68 43 110.5t112 42.5t112 -42.5t43 -110.5v-110q0 -69 -43 -112t-112 -43t-112 43zM707 84q22 24 22 61v110q0 37 -22 60.5t-58 23.5t-58 -23.5t-22 -60.5v-110q0 -37 22 -61t58 -24t58 24z" />
    <glyph glyph-name="ampersand" unicode="&#x26;" horiz-adv-x="602" 
d="M142.5 15.5q-52.5 25.5 -83 76t-30.5 122.5v22q0 70 35.5 120.5t96.5 74.5q-27 39 -42 73t-15 78q0 53 26 93t71.5 62.5t102.5 22.5q97 0 146.5 -54t49.5 -141v-23l-100 -16v34q0 51 -23.5 79t-72.5 28q-45 0 -70 -22.5t-25 -61.5q0 -29 14.5 -57.5t38.5 -61.5l166 -233
l35 161h99l-65 -258l95 -134h-125l-41 58q-64 -68 -167 -68q-64 0 -116.5 25.5zM168.5 119q39.5 -36 101.5 -36q67 0 104 48l-163 230q-39 -15 -60.5 -47t-21.5 -81v-11q0 -67 39.5 -103z" />
    <glyph glyph-name="quotesingle" unicode="'" horiz-adv-x="169" 
d="M124.5 741q15.5 -15 15.5 -40q0 -21 -14 -78t-16 -65l-7 -28h-36l-8 33q-29 114 -29 138q0 25 15.5 40t39.5 15t39.5 -15z" />
    <glyph glyph-name="parenleft" unicode="(" horiz-adv-x="259" 
d="M69 125.5q-37 105.5 -37 219.5q0 115 37 220.5t111 195.5l57 -46q-51 -73 -79 -169t-28 -201t28 -201t79 -169l-57 -46q-74 91 -111 196.5z" />
    <glyph glyph-name="parenright" unicode=")" horiz-adv-x="259" 
d="M190 564.5q37 -105.5 37 -219.5q0 -115 -37 -220.5t-111 -195.5l-57 46q51 73 79 169t28 201t-28 201t-79 169l57 46q74 -91 111 -196.5z" />
    <glyph glyph-name="asterisk" unicode="*" horiz-adv-x="377" 
d="M158 531l-93 -66l-41 70l103 49l-103 48l41 70l93 -65l-10 113h81l-10 -113l94 65l40 -70l-102 -48l102 -49l-40 -70l-94 66l10 -114h-81z" />
    <glyph glyph-name="plus" unicode="+" horiz-adv-x="449" 
d="M418 333h-143v-163h-100v163h-144v96h144v163h100v-163h143v-96z" />
    <glyph glyph-name="comma" unicode="," horiz-adv-x="201" 
d="M149 16l-53 -139l-44 17l36 100q-23 3 -37 19t-14 41q0 26 17 43t43 17t43.5 -17t17.5 -43q0 -15 -9 -38z" />
    <glyph glyph-name="hyphen" unicode="-" horiz-adv-x="344" 
d="M313 265h-282v96h282v-96z" />
    <glyph glyph-name="period" unicode="." horiz-adv-x="207" 
d="M60 11q-17 17 -17 44q0 26 17 43t44 17q26 0 43 -17t17 -43q0 -27 -17 -44t-43 -17q-27 0 -44 17z" />
    <glyph glyph-name="slash" unicode="/" horiz-adv-x="347" 
d="M113 0h-103l224 750h103z" />
    <glyph glyph-name="zero" unicode="0" horiz-adv-x="568" 
d="M160 20q-55 30 -85.5 84t-30.5 125v293q0 70 30.5 124.5t85.5 84t125 29.5t124.5 -29.5t85 -84t30.5 -124.5v-293q0 -71 -30.5 -125t-85 -84t-124.5 -30t-125 30zM386 123q39 40 39 106v293q0 66 -39 106t-101 40t-101.5 -40t-39.5 -106v-293q0 -66 39.5 -106t101.5 -40
t101 40z" />
    <glyph glyph-name="one" unicode="1" horiz-adv-x="568" 
d="M77 94h169v562h-169v94h269v-656h171v-94h-440v94z" />
    <glyph glyph-name="two" unicode="2" horiz-adv-x="568" 
d="M70 184q13 34 55.5 73t135.5 100q65 43 96.5 75.5t39.5 58t8 59.5q0 53 -31 85t-87 32q-58 0 -89 -32t-31 -84v-36l-100 13v23q0 95 59.5 152t160.5 57q100 0 159 -57.5t59 -153.5q0 -53 -13 -92.5t-53.5 -82t-120.5 -93.5q-66 -41 -97.5 -66t-45 -50.5t-13.5 -61.5v-10
h359v-93h-464v96q0 54 13 88z" />
    <glyph glyph-name="three" unicode="3" horiz-adv-x="568" 
d="M102 47q-64 57 -64 167v9l100 12v-18q0 -68 37.5 -101.5t107.5 -33.5q67 0 102 36t35 100v8q0 61 -36 96.5t-99 35.5h-99v81l191 217h-320v94h441v-88l-191 -214q62 -1 110 -27t75.5 -75.5t27.5 -117.5v-6q0 -108 -62.5 -170t-173.5 -62q-118 0 -182 57z" />
    <glyph glyph-name="four" unicode="4" horiz-adv-x="568" 
d="M358 152h-315v86l158 512h105l-156 -504h208v184h99v-184h85v-94h-85v-152h-99v152z" />
    <glyph glyph-name="five" unicode="5" horiz-adv-x="568" 
d="M121.5 45.5q-60.5 55.5 -60.5 146.5v8l100 13v-8q0 -59 33.5 -91.5t96.5 -32.5q59 0 91.5 37t32.5 108v45q0 69 -31.5 107t-92.5 38q-56 0 -90 -30.5t-34 -83.5h-99v66l34 382h374v-94h-289l-19 -216q42 67 140 67q95 0 151 -60t56 -172v-53q0 -112 -61 -172t-163 -60
q-109 0 -169.5 55.5z" />
    <glyph glyph-name="six" unicode="6" horiz-adv-x="568" 
d="M161 19q-53 29 -81.5 81.5t-28.5 122.5v283q0 125 62 189.5t172 64.5q113 0 169.5 -56t56.5 -156v-11l-100 -12v7q0 67 -29.5 102t-97.5 35t-100.5 -40.5t-32.5 -121.5v-110q45 74 149 74q101 0 159 -62t58 -170v-12q0 -108 -62.5 -172.5t-169.5 -64.5q-71 0 -124 29z
M185 119.5q34 -38.5 99 -38.5q66 0 99.5 38t33.5 105v13q0 66 -33.5 104.5t-98.5 38.5t-99.5 -38.5t-34.5 -104.5v-13q0 -66 34 -104.5z" />
    <glyph glyph-name="seven" unicode="7" horiz-adv-x="568" 
d="M382 656h-329v94h445v-89l-257 -661h-112z" />
    <glyph glyph-name="eight" unicode="8" horiz-adv-x="568" 
d="M106 47.5q-64 57.5 -64 159.5q0 64 30.5 110.5t79.5 68.5q-44 22 -70 66t-26 101q0 61 27.5 108t79.5 73t121 26t121 -26t80 -73t28 -108q0 -57 -26 -101t-71 -66q49 -21 79.5 -67.5t30.5 -111.5q0 -103 -64 -160t-178 -57t-178 57.5zM390 117q36 35 36 96t-37.5 94.5
t-104.5 33.5t-104.5 -33.5t-37.5 -94.5t36 -96t106 -35t106 35zM379 461.5q34 33.5 34 86.5q0 54 -33.5 86.5t-95.5 32.5q-61 0 -94.5 -32.5t-33.5 -86.5q0 -53 34 -86.5t94 -33.5q61 0 95 33.5z" />
    <glyph glyph-name="nine" unicode="9" horiz-adv-x="568" 
d="M115.5 47.5q-57.5 57.5 -57.5 156.5v9l100 13v-8q0 -66 29.5 -101.5t96.5 -35.5q69 0 101 40.5t32 121.5v110q-45 -73 -148 -73q-101 0 -159.5 62t-58.5 169v13q0 108 63 172t170 64q71 0 123.5 -29t81 -81.5t28.5 -122.5v-282q0 -125 -62 -190t-172 -65t-167.5 57.5z
M185 409.5q34 -38.5 99 -38.5t99 38.5t34 104.5v12q0 67 -33.5 105t-99.5 38q-65 0 -99 -38.5t-34 -104.5v-12q0 -66 34 -104.5z" />
    <glyph glyph-name="colon" unicode=":" horiz-adv-x="216" 
d="M65 11q-17 17 -17 44q0 26 17 43t43 17q27 0 44 -17t17 -43q0 -27 -17 -44t-44 -17q-26 0 -43 17zM152 539q17 -17 17 -43q0 -27 -17 -44t-44 -17q-26 0 -43 17t-17 44q0 26 17 43t43 17q27 0 44 -17z" />
    <glyph glyph-name="semicolon" unicode=";" horiz-adv-x="216" 
d="M63 -106l36 100q-23 3 -37 19t-14 41q0 26 17 43t43 17t43.5 -17t17.5 -43q0 -15 -9 -38l-53 -139zM65 452q-17 17 -17 44q0 26 17 43t43 17q27 0 44 -17t17 -43q0 -27 -17 -44t-44 -17q-26 0 -43 17z" />
    <glyph glyph-name="less" unicode="&#x3c;" horiz-adv-x="345" 
d="M31 311v114l305 110v-101l-209 -65l209 -65v-104z" />
    <glyph glyph-name="equal" unicode="=" horiz-adv-x="429" 
d="M398 423h-367v96h367v-96zM398 243h-367v96h367v-96z" />
    <glyph glyph-name="greater" unicode="&#x3e;" horiz-adv-x="345" 
d="M314 424v-114l-305 -110v101l209 65l-209 65v104z" />
    <glyph glyph-name="question" unicode="?" horiz-adv-x="509" 
d="M191 383h53q57 0 90 36.5t33 105.5q0 70 -32 106t-86 36q-55 0 -86.5 -36t-31.5 -107v-21l-100 13v8q0 73 27.5 126.5t77 81.5t113.5 28t113.5 -28t77 -81t27.5 -126q0 -97 -47.5 -157.5t-127.5 -72.5v-100h-101v188zM200 11q-17 17 -17 44q0 26 17 43t43 17q27 0 44 -17
t17 -43q0 -27 -17 -44t-44 -17q-26 0 -43 17z" />
    <glyph glyph-name="at" unicode="@" horiz-adv-x="689" 
d="M184 36q-69 36 -105 101.5t-36 153.5v182q0 85 38.5 149.5t109.5 100t166 35.5q135 0 212 -74.5t77 -210.5v-131q0 -80 -39 -124.5t-115 -44.5h-73v53h-3q-31 -61 -100 -61q-60 0 -97 41.5t-37 113.5v103q0 72 37 113.5t96 41.5q35 0 60 -15.5t39 -45.5h3v54h82v-335h9
q41 0 58 28t17 85v119q0 109 -60.5 169t-166.5 60q-76 0 -132 -28.5t-86 -80.5t-30 -120v-172q0 -108 64 -171.5t182 -63.5h161v-61h-166q-96 0 -165 36zM396 265q21 24 21 65v84q0 40 -21.5 63.5t-57.5 23.5q-35 0 -54.5 -23.5t-19.5 -63.5v-84q0 -41 20 -65t55 -24
q36 0 57 24z" />
    <glyph glyph-name="A" unicode="A" horiz-adv-x="550" 
d="M212 750h126l205 -750h-116l-33 135h-245l-33 -135h-108zM374 218l-102 417l-102 -417h204z" />
    <glyph glyph-name="B" unicode="B" horiz-adv-x="545" 
d="M50 750h252q92 0 140.5 -47.5t48.5 -129.5v-41q0 -96 -73 -140q91 -35 91 -146v-67q0 -85 -48 -132t-141 -47h-270v750zM384.5 116q23.5 23 23.5 74v55q0 51 -23 73t-74 22h-161v-247h161q50 0 73.5 23zM367 457.5q24 24.5 24 75.5v29q0 95 -98 95h-143v-224h143
q50 0 74 24.5z" />
    <glyph glyph-name="C" unicode="C" horiz-adv-x="562" 
d="M159 19.5q-55 29.5 -86 83.5t-31 124v297q0 70 31 123.5t86 83t125 29.5q69 0 123.5 -29.5t85 -83t30.5 -123.5v-51l-99 -13l-1 59q-2 68 -39.5 108.5t-99.5 40.5q-64 0 -103 -40t-39 -108v-290q0 -67 39 -107t103 -40q62 0 100 40t39 109l1 65l99 -13v-57
q0 -70 -30.5 -124t-85 -83.5t-123.5 -29.5q-70 0 -125 29.5z" />
    <glyph glyph-name="D" unicode="D" horiz-adv-x="555" 
d="M50 750h222q70 0 124.5 -29.5t85.5 -83.5t31 -124v-276q0 -70 -31 -124t-85.5 -83.5t-124.5 -29.5h-222v750zM373.5 133q39.5 40 39.5 106v273q0 65 -39.5 105t-101.5 40h-121v-564h121q62 0 101.5 40z" />
    <glyph glyph-name="E" unicode="E" horiz-adv-x="483" 
d="M50 750h396v-93h-295v-224h226v-92h-226v-248h297v-93h-398v750z" />
    <glyph glyph-name="F" unicode="F" horiz-adv-x="461" 
d="M50 750h390v-93h-289v-254h231v-93h-231v-310h-101v750z" />
    <glyph glyph-name="G" unicode="G" horiz-adv-x="565" 
d="M158 21q-55 30 -85.5 84t-30.5 125v294q0 70 31 123.5t85.5 83t124.5 29.5q69 0 124 -29.5t86 -83t31 -122.5v-35l-101 -13v45q0 65 -39 105t-101 40t-101.5 -40t-39.5 -105v-292q0 -66 39.5 -106t101.5 -40t101 40t39 106v52h-122v94h223v-146q0 -71 -31 -125t-85.5 -84
t-124.5 -30t-125 30z" />
    <glyph glyph-name="H" unicode="H" horiz-adv-x="575" 
d="M50 750h100v-324h275v324h100v-750h-100v333h-275v-333h-100v750z" />
    <glyph glyph-name="I" unicode="I" horiz-adv-x="200" 
d="M50 750h100v-750h-100v750z" />
    <glyph glyph-name="J" unicode="J" horiz-adv-x="482" 
d="M86.5 46q-56.5 54 -56.5 146v35l100 18v-53q0 -50 28.5 -77.5t74.5 -27.5t74 27.5t28 77.5v558h101v-558q0 -92 -56.5 -146t-146.5 -54t-146.5 54z" />
    <glyph glyph-name="K" unicode="K" horiz-adv-x="543" 
d="M50 750h100v-322l250 322h121l-276 -352l292 -398h-127l-260 359v-359h-100v750z" />
    <glyph glyph-name="L" unicode="L" horiz-adv-x="469" 
d="M50 750h101v-657h288v-93h-389v750z" />
    <glyph glyph-name="M" unicode="M" horiz-adv-x="705" 
d="M50 750h144l161 -534l161 534h139v-750h-100v573l-172 -573h-62l-170 571v-571h-101v750z" />
    <glyph glyph-name="N" unicode="N" horiz-adv-x="581" 
d="M50 750h99l285 -541v541h97v-750h-99l-285 541v-541h-97v750z" />
    <glyph glyph-name="O" unicode="O" horiz-adv-x="565" 
d="M158 20q-55 30 -85.5 84t-30.5 125v293q0 70 30.5 124.5t85.5 84t125 29.5t124.5 -29.5t85 -84t30.5 -124.5v-293q0 -71 -30.5 -125t-85 -84t-124.5 -30t-125 30zM384 123q39 40 39 106v293q0 66 -39 106t-101 40t-101.5 -40t-39.5 -106v-293q0 -66 39.5 -106t101.5 -40
t101 40z" />
    <glyph glyph-name="P" unicode="P" horiz-adv-x="549" 
d="M50 750h223q111 0 178.5 -59t67.5 -182v-24q0 -80 -32.5 -134t-88 -80.5t-125.5 -26.5h-123v-244h-100v750zM379 375q39 38 39 110v24q0 72 -39.5 110t-103.5 38h-125v-320h125q65 0 104 38z" />
    <glyph glyph-name="Q" unicode="Q" horiz-adv-x="576" 
d="M158 30q-55 30 -85.5 84t-30.5 125v283q0 70 30.5 124.5t85.5 84t125 29.5t124.5 -29.5t85 -84t30.5 -124.5v-279q0 -38 -10.5 -64t-27.5 -44t-50 -45h141v-90h-293q-70 0 -125 30zM384 133q39 40 39 106v283q0 66 -39 106t-101 40t-101.5 -40t-39.5 -106v-283
q0 -66 39.5 -106t101.5 -40t101 40z" />
    <glyph glyph-name="R" unicode="R" horiz-adv-x="566" 
d="M50 750h223q113 0 179 -56.5t66 -176.5v-26q0 -74 -28.5 -125t-80.5 -78l127 -288h-111l-110 260q-26 -2 -42 -2h-123v-258h-100v750zM379 386q38 35 38 105v26q0 70 -38 105t-103 35h-126v-306h126q65 0 103 35z" />
    <glyph glyph-name="S" unicode="S" horiz-adv-x="547" 
d="M151.5 16q-55.5 26 -87 75.5t-31.5 117.5v16l100 15v-22q0 -63 39.5 -99.5t107.5 -36.5q63 0 98.5 32t35.5 86q0 47 -28 77t-86 49l-84 26q-83 26 -127.5 71t-44.5 129q0 95 62 151.5t165 56.5q105 0 167.5 -56.5t62.5 -155.5v-19l-100 -15v29q0 61 -36.5 93t-99.5 32
q-56 0 -88.5 -28.5t-32.5 -77.5q0 -43 27 -71t82 -45l75 -23q87 -27 136.5 -75.5t49.5 -140.5q0 -104 -65 -160.5t-170 -56.5q-72 0 -127.5 26z" />
    <glyph glyph-name="T" unicode="T" horiz-adv-x="499" 
d="M200 657h-186v93h471v-93h-185v-657h-100v657z" />
    <glyph glyph-name="U" unicode="U" horiz-adv-x="574" 
d="M162.5 19.5q-54.5 29.5 -85.5 83.5t-31 124v523h101v-521q0 -66 39 -106t101 -40t101.5 40t39.5 106v521h100v-523q0 -70 -31 -124t-85.5 -83.5t-124.5 -29.5t-124.5 29.5z" />
    <glyph glyph-name="V" unicode="V" horiz-adv-x="550" 
d="M8 750h115l155 -628l156 628h109l-205 -750h-126z" />
    <glyph glyph-name="W" unicode="W" horiz-adv-x="739" 
d="M14 750h112l90 -604l99 604h115l98 -600l89 600h108l-140 -750h-117l-98 575l-99 -575h-116z" />
    <glyph glyph-name="X" unicode="X" horiz-adv-x="539" 
d="M203 382l-185 368h118l137 -290l137 290h111l-185 -369l192 -381h-118l-144 303l-144 -303h-111z" />
    <glyph glyph-name="Y" unicode="Y" horiz-adv-x="528" 
d="M215 279l-214 471h114l152 -346l150 346h111l-213 -469v-281h-100v279z" />
    <glyph glyph-name="Z" unicode="Z" horiz-adv-x="489" 
d="M31 72l303 585h-303v93h427v-71l-303 -586h303v-93h-427v72z" />
    <glyph glyph-name="bracketleft" unicode="[" horiz-adv-x="282" 
d="M150 657v-564h94v-93h-194v750h194v-93h-94z" />
    <glyph glyph-name="backslash" unicode="\" horiz-adv-x="347" 
d="M113 750l224 -750h-103l-224 750h103z" />
    <glyph glyph-name="bracketright" unicode="]" horiz-adv-x="282" 
d="M38 93h94v564h-94v93h194v-750h-194v93z" />
    <glyph glyph-name="asciicircum" unicode="^" horiz-adv-x="412" 
d="M388 529h-94l-88 137l-88 -137h-94l131 221h103z" />
    <glyph glyph-name="underscore" unicode="_" horiz-adv-x="361" 
d="M331 -63v-80h-300v80h300z" />
    <glyph glyph-name="grave" unicode="`" horiz-adv-x="241" 
d="M147 621l-97 129h121l20 -129h-44z" />
    <glyph glyph-name="a" unicode="a" horiz-adv-x="487" 
d="M71 37q-43 42 -43 109v9q0 73 49.5 120.5t155.5 47.5h112v39q0 50 -26.5 79t-73.5 29q-48 0 -77.5 -29t-29.5 -79v-4l-98 17v2q0 49 25 91t72.5 67t112.5 25q92 0 143 -52t51 -143v-365h-86l-9 78h-4q-24 -38 -64 -60.5t-95 -22.5q-72 0 -115 42zM153.5 102.5
q25.5 -19.5 66.5 -19.5q56 0 90.5 31.5t34.5 82.5v44h-109q-53 0 -80.5 -20.5t-27.5 -56.5v-8q0 -34 25.5 -53.5z" />
    <glyph glyph-name="b" unicode="b" horiz-adv-x="524" 
d="M148 81h-4l-10 -81h-86v750h99v-279h3q45 89 149 89q88 0 139.5 -61t51.5 -168v-112q0 -107 -51 -168t-139 -61q-103 0 -152 91zM358 123q33 38 33 103v98q0 65 -33 103t-87 38t-89 -37.5t-35 -101.5v-101q0 -64 35.5 -102t89.5 -38q53 0 86 38z" />
    <glyph glyph-name="c" unicode="c" horiz-adv-x="495" 
d="M138.5 19q-50.5 28 -78.5 78t-28 115v127q0 65 28 115.5t78.5 78.5t115.5 28q62 0 110.5 -27.5t75.5 -74t27 -101.5v-2l-98 -18v5q0 54 -31 89.5t-83 35.5q-56 0 -89.5 -37.5t-33.5 -98.5v-112q0 -62 33.5 -99.5t89.5 -37.5q52 0 83 35.5t31 90.5v4l98 -17v-3
q0 -54 -27 -100.5t-75.5 -74t-110.5 -27.5q-65 0 -115.5 28z" />
    <glyph glyph-name="d" unicode="d" horiz-adv-x="524" 
d="M85 51q-51 61 -51 168v112q0 107 52 168t142 61q53 0 88.5 -22.5t57.5 -66.5h3v279h99v-750h-86l-10 81h-4q-49 -91 -152 -91q-88 0 -139 61zM342 123q35 38 35 102v101q0 64 -35 101.5t-90 37.5q-54 0 -86.5 -38t-32.5 -103v-98q0 -64 33.5 -102.5t86.5 -38.5
q54 0 89 38z" />
    <glyph glyph-name="e" unicode="e" horiz-adv-x="506" 
d="M140 17.5q-51 27.5 -79.5 76.5t-28.5 112v130q0 65 28.5 116t79 79.5t113.5 28.5q64 0 114.5 -28.5t78.5 -79.5t28 -116v-87h-343v-42q0 -57 35 -93t92 -36q54 0 85.5 33t31.5 83v1l98 -7l-1 -11q-3 -51 -29.5 -94t-74 -68t-110.5 -25q-67 0 -118 27.5zM375 332v7
q0 59 -34 96t-88 37t-88 -37t-34 -96v-7h244z" />
    <glyph glyph-name="f" unicode="f" horiz-adv-x="368" 
d="M152 716q45 47 130 47q36 0 70 -10v-87q-27 9 -57 9q-46 0 -67.5 -23.5t-21.5 -64.5v-37h146v-92h-146v-458h-99v458h-95v92h95v39q0 80 45 127z" />
    <glyph glyph-name="g" unicode="g" horiz-adv-x="522" 
d="M96 -143.5q-54 46.5 -59 117.5l-1 4l96 17v-2q2 -43 32 -69t85 -26q63 0 94.5 35.5t31.5 101.5v80h-3q-22 -44 -58.5 -65t-90.5 -21q-85 0 -138 59t-53 165v78q0 107 52.5 168t142.5 61q53 0 89 -22.5t61 -66.5h3v79h95v-518q0 -101 -59.5 -161.5t-164.5 -60.5
q-101 0 -155 46.5zM340.5 157q34.5 38 34.5 102v67q0 64 -35 101.5t-90 37.5q-53 0 -85.5 -38t-32.5 -103v-64q0 -65 33 -103t87 -38t88.5 38z" />
    <glyph glyph-name="h" unicode="h" horiz-adv-x="522" 
d="M48 750h99v-282h4q44 92 156 92q84 0 128 -49.5t44 -142.5v-368h-100v343q0 58 -27.5 89.5t-77.5 31.5q-56 0 -91.5 -39t-35.5 -104v-321h-99v750z" />
    <glyph glyph-name="i" unicode="i" horiz-adv-x="194" 
d="M48 550h99v-550h-99v550zM53.5 641.5q-17.5 17.5 -17.5 43.5q0 27 17.5 44t43.5 17q27 0 44 -17t17 -44q0 -26 -17 -43.5t-44 -17.5q-26 0 -43.5 17.5z" />
    <glyph glyph-name="j" unicode="j" horiz-adv-x="195" 
d="M-70 -178v92q30 -6 48 -6q70 0 70 76v566h100v-577q0 -159 -147 -159q-28 0 -71 8zM54.5 641.5q-17.5 17.5 -17.5 43.5q0 27 17.5 44t43.5 17q27 0 44 -17t17 -44q0 -26 -17 -43.5t-44 -17.5q-26 0 -43.5 17.5z" />
    <glyph glyph-name="k" unicode="k" horiz-adv-x="478" 
d="M48 750h99v-432h6l199 232h120l-231 -268l238 -282h-123l-204 243h-5v-243h-99v750z" />
    <glyph glyph-name="l" unicode="l" horiz-adv-x="195" 
d="M48 750h99v-750h-99v750z" />
    <glyph glyph-name="m" unicode="m" horiz-adv-x="818" 
d="M48 550h96v-80h4q48 90 150 90q54 0 93 -25t58 -73h4q25 48 65.5 73t92.5 25q79 0 121 -49t42 -141v-370h-99v345q0 57 -25.5 88t-71.5 31q-51 0 -84 -37t-33 -100v-327h-100v345q0 57 -25.5 88t-70.5 31q-52 0 -85 -37t-33 -100v-327h-99v550z" />
    <glyph glyph-name="n" unicode="n" horiz-adv-x="522" 
d="M351.5 432.5q-27.5 31.5 -77.5 31.5q-56 0 -91.5 -37.5t-35.5 -101.5v-325h-99v550h96v-80h4q24 45 62 67.5t97 22.5q84 0 128 -49.5t44 -142.5v-368h-100v343q0 58 -27.5 89.5z" />
    <glyph glyph-name="o" unicode="o" horiz-adv-x="507" 
d="M139.5 18.5q-50.5 28.5 -79 79.5t-28.5 116v122q0 65 28.5 116t79 79.5t114.5 28.5t114 -28.5t78.5 -79.5t28.5 -116v-122q0 -65 -28.5 -116t-78.5 -79.5t-114 -28.5t-114.5 28.5zM165.5 120.5q33.5 -37.5 88.5 -37.5q54 0 87.5 37.5t33.5 98.5v112q0 61 -33.5 99
t-87.5 38q-55 0 -88.5 -38t-33.5 -99v-112q0 -61 33.5 -98.5z" />
    <glyph glyph-name="p" unicode="p" horiz-adv-x="524" 
d="M48 550h94v-80h4q48 90 154 90q88 0 139 -61t51 -168v-112q0 -107 -52 -168t-142 -61q-53 0 -87.5 22.5t-57.5 66.5h-4v-259h-99v730zM358.5 123q32.5 38 32.5 103v98q0 64 -33.5 102.5t-86.5 38.5q-54 0 -89 -37.5t-35 -101.5v-101q0 -64 35.5 -102t89.5 -38t86.5 38z
" />
    <glyph glyph-name="q" unicode="q" horiz-adv-x="522" 
d="M375 79h-3q-23 -44 -57.5 -66.5t-87.5 -22.5q-90 0 -142.5 61t-52.5 168v112q0 107 51.5 168t138.5 61q105 0 155 -90h3v80h95v-730h-100v259zM339.5 123q35.5 38 35.5 102v101q0 64 -35 101.5t-89 37.5q-53 0 -86 -38t-33 -103v-98q0 -65 32.5 -103t85.5 -38
q54 0 89.5 38z" />
    <glyph glyph-name="r" unicode="r" horiz-adv-x="339" 
d="M48 550h96v-93h3q28 99 139 99q26 0 44 -7v-97h-41q-72 0 -107 -38.5t-35 -98.5v-315h-99v550z" />
    <glyph glyph-name="s" unicode="s" horiz-adv-x="461" 
d="M82.5 36q-54.5 46 -54.5 121v4l99 17v-14q0 -41 28 -66t81 -25q47 0 72 19.5t25 55.5q0 28 -18 45.5t-55 28.5l-101 29q-60 17 -89.5 55t-29.5 92q0 78 53.5 120t135.5 42q83 0 134 -43.5t51 -115.5v-4l-98 -17v14q0 38 -24 60.5t-66 22.5q-38 0 -62 -18t-24 -52
q0 -54 62 -72l97 -28q66 -19 100 -55t34 -97q0 -77 -50.5 -121t-148.5 -44q-97 0 -151.5 46z" />
    <glyph glyph-name="t" unicode="t" horiz-adv-x="358" 
d="M114 458h-97v92h97v113l99 32v-145h128v-92h-128v-458h-99v458z" />
    <glyph glyph-name="u" unicode="u" horiz-adv-x="516" 
d="M87 39.5q-43 49.5 -43 142.5v368h99v-343q0 -59 26.5 -90t76.5 -31q54 0 88.5 38t34.5 102v324h99v-550h-86l-10 82h-3q-26 -46 -63 -69t-94 -23q-82 0 -125 49.5z" />
    <glyph glyph-name="v" unicode="v" horiz-adv-x="499" 
d="M12 550h106l131 -432h4l133 432h101l-172 -550h-131z" />
    <glyph glyph-name="w" unicode="w" horiz-adv-x="767" 
d="M19 550h105l92 -432h4l116 432h99l116 -432h4l92 432h101l-131 -550h-126l-106 377h-3l-106 -377h-126z" />
    <glyph glyph-name="x" unicode="x" horiz-adv-x="507" 
d="M198 280l-175 270h114l120 -186h4l121 186h103l-174 -269l183 -281h-114l-129 198h-4l-130 -198h-104z" />
    <glyph glyph-name="y" unicode="y" horiz-adv-x="499" 
d="M197 33l-185 517h106l129 -383l135 383h105l-270 -730h-104z" />
    <glyph glyph-name="z" unicode="z" horiz-adv-x="440" 
d="M23 78l263 381h-259v91h384v-78l-263 -381h269v-91h-394v78z" />
    <glyph glyph-name="braceleft" unicode="{" horiz-adv-x="295" 
d="M138 40.5q-46 40.5 -46 117.5v120q0 53 -47 53h-14v89h14q47 0 47 52v120q0 77 46 117.5t137 40.5v-86q-50 -1 -69 -19.5t-19 -61.5v-112q0 -29 -8 -47t-20 -27.5t-35 -21.5q23 -12 35 -21.5t20 -27t8 -46.5v-113q0 -43 19 -61t69 -20v-86q-91 0 -137 40.5z" />
    <glyph glyph-name="bar" unicode="|" horiz-adv-x="200" 
d="M150 -100h-100v850h100v-850z" />
    <glyph glyph-name="braceright" unicode="}" horiz-adv-x="295" 
d="M89 106q19 18 19 61v113q0 29 8 46.5t20 27t35 21.5q-23 12 -35 21.5t-20 27.5t-8 47v112q0 43 -19 61.5t-69 19.5v86q91 0 137 -40.5t46 -117.5v-120q0 -52 47 -52h14v-89h-14q-47 0 -47 -53v-120q0 -77 -46 -117.5t-137 -40.5v86q50 2 69 20z" />
    <glyph glyph-name="asciitilde" unicode="~" horiz-adv-x="460" 
d="M283.5 281.5q-29.5 8.5 -72.5 23.5q-23 8 -44.5 14.5t-32.5 6.5q-21 0 -31 -11.5t-10 -35.5h-62q-1 71 21.5 101t70.5 30q24 0 53.5 -8.5t72.5 -23.5q23 -8 44.5 -14.5t32.5 -6.5q41 0 41 48h62q1 -71 -21.5 -101.5t-70.5 -30.5q-24 0 -53.5 8.5z" />
    <glyph glyph-name="uni00A0" unicode="&#xa0;" horiz-adv-x="155" 
 />
    <glyph glyph-name="exclamdown" unicode="&#xa1;" horiz-adv-x="221" 
d="M61 -180v520h100v-520h-100zM154 540q17 -17 17 -43q0 -27 -17 -44t-43 -17q-27 0 -44 17t-17 44q0 26 17 43t44 17q26 0 43 -17z" />
    <glyph glyph-name="cent" unicode="&#xa2;" horiz-adv-x="495" 
d="M211 -6q-81 14 -130 72.5t-49 145.5v127q0 87 49 146t130 73v102h89v-103q75 -15 121 -71t46 -128v-2l-98 -18v5q0 54 -31 89.5t-83 35.5q-56 0 -89.5 -37.5t-33.5 -98.5v-112q0 -62 33.5 -99.5t89.5 -37.5q52 0 83 35.5t31 90.5v4l98 -17v-3q0 -72 -46 -127.5
t-121 -70.5v-105h-89v104z" />
    <glyph glyph-name="sterling" unicode="&#xa3;" horiz-adv-x="546" 
d="M17 93h80v205h-80v93h80v153q0 64 27.5 113t75.5 76t110 27t110 -26.5t75 -75.5t27 -113v-34l-99 -13v45q0 53 -31.5 87.5t-81.5 34.5q-49 0 -80.5 -34.5t-31.5 -87.5v-152h184v-93h-184v-205h329v-93h-510v93z" />
    <glyph glyph-name="currency" unicode="&#xa4;" horiz-adv-x="385" 
d="M126 636l30 -80q18 3 37 3q26 0 48 -6l31 83l69 -25l-34 -91q52 -45 52 -124v-82q0 -40 -14 -72t-40 -53l36 -95l-69 -25l-33 87q-23 -5 -46 -5q-18 0 -35 3l-32 -85l-69 25l33 87q-31 21 -47.5 55t-16.5 78v82q0 43 16.5 76.5t45.5 55.5l-31 83zM134.5 253
q22.5 -23 58.5 -23q35 0 57.5 23t22.5 61v82q0 38 -22.5 60.5t-57.5 22.5q-36 0 -58.5 -22.5t-22.5 -60.5v-82q0 -38 22.5 -61z" />
    <glyph glyph-name="yen" unicode="&#xa5;" horiz-adv-x="532" 
d="M48 387h120l-165 363h114l152 -346l150 346h111l-166 -363h119v-73h-435v73zM48 239h435v-72h-166v-167h-100v167h-169v72z" />
    <glyph glyph-name="brokenbar" unicode="&#xa6;" horiz-adv-x="200" 
d="M150 -100h-100v476h100v-476zM50 750h100v-274h-100v274z" />
    <glyph glyph-name="section" unicode="&#xa7;" horiz-adv-x="518" 
d="M99.5 -74q-61.5 48 -61.5 134v33h90v-30q0 -46 34.5 -73.5t97.5 -27.5q121 0 121 84q0 25 -8.5 39.5t-40 29.5t-100.5 36q-76 24 -117 47.5t-57.5 54t-16.5 76.5q0 43 24.5 77t69.5 54q-47 24 -66 54.5t-19 76.5q0 74 54.5 117.5t147.5 43.5q97 0 153 -44.5t56 -122.5
v-31h-90v27q0 39 -32 63.5t-91 24.5q-52 0 -80 -20.5t-28 -55.5q0 -23 10 -37t38.5 -27t88.5 -31q89 -27 132.5 -52.5t57 -53.5t13.5 -73q0 -49 -23 -83.5t-64 -53.5q46 -26 62 -55.5t16 -73.5q0 -89 -57 -132t-155 -43t-159.5 48zM143 291q12 -17 43 -31.5t91 -32.5l38 -12
q36 11 55.5 36t19.5 58q0 25 -9.5 41.5t-42.5 33.5t-103 38l-23 7q-39 -9 -60 -36t-21 -58q0 -27 12 -44z" />
    <glyph glyph-name="dieresis" unicode="&#xa8;" horiz-adv-x="411" 
d="M67.5 642.5q-17.5 17.5 -17.5 42.5q0 27 17 43.5t43 16.5q27 0 43.5 -16.5t16.5 -43.5q0 -26 -16.5 -43t-43.5 -17q-25 0 -42.5 17.5zM258.5 642.5q-17.5 17.5 -17.5 42.5q0 27 17 43.5t43 16.5q27 0 43.5 -16.5t16.5 -43.5q0 -26 -16.5 -43t-43.5 -17q-25 0 -42.5 17.5z
" />
    <glyph glyph-name="copyright" unicode="&#xa9;" horiz-adv-x="853" 
d="M293 189.5q-51 51.5 -51 133.5v105q0 82 51 133.5t134 51.5q52 0 92 -23t62.5 -61.5t22.5 -84.5v-2l-84 -14v3q0 45 -25.5 74.5t-67.5 29.5q-45 0 -72.5 -31t-27.5 -82v-93q0 -51 27.5 -82t72.5 -31q42 0 67.5 29.5t25.5 74.5v3l84 -14v-2q0 -45 -22.5 -84t-63 -62
t-91.5 -23q-83 0 -134 51.5zM231 40.5q-88 50.5 -138 138.5t-50 196t50 196t138 138.5t195 50.5q108 0 196 -50.5t138 -138.5t50 -196t-50 -196t-138 -138.5t-196 -50.5q-107 0 -195 50.5zM593.5 87q74.5 43 116 118.5t41.5 169.5t-41.5 170t-116 119t-167.5 43t-167 -43
t-115.5 -119t-41.5 -170t41.5 -169.5t115.5 -118.5t167 -43t167.5 43z" />
    <glyph glyph-name="ordfeminine" unicode="&#xaa;" horiz-adv-x="359" 
d="M56.5 369q-32.5 31 -32.5 80v10q0 53 38 87t120 34h73v34q0 36 -18 56t-51 20q-34 0 -54.5 -20.5t-20.5 -54.5v-4l-78 13v5q4 57 46 95t110 38q69 0 107.5 -39t38.5 -107v-271h-65l-7 58h-3q-39 -65 -118 -65q-53 0 -85.5 31zM321 215h-104v-93h-69v93h-105v66h278v-66z
M121 421.5q17 -13.5 44 -13.5q39 0 64.5 23t25.5 61v31h-69q-41 0 -61.5 -15t-20.5 -40v-10q0 -23 17 -36.5z" />
    <glyph glyph-name="guillemotleft" unicode="&#xab;" horiz-adv-x="471" 
d="M12 274l120 191h112l-120 -191l120 -191h-112zM212 274l120 191h112l-120 -191l120 -191h-112z" />
    <glyph glyph-name="logicalnot" unicode="&#xac;" horiz-adv-x="505" 
d="M374 336h-343v93h443v-234h-100v141z" />
    <glyph glyph-name="uni00AD" unicode="&#xad;" horiz-adv-x="344" 
d="M313 265h-282v96h282v-96z" />
    <glyph glyph-name="registered" unicode="&#xae;" horiz-adv-x="853" 
d="M437 303h-6h-72v-162h-79v470h151q73 0 113.5 -36t40.5 -110v-16q0 -48 -19 -80.5t-54 -48.5l79 -179h-86zM486.5 394q19.5 20 19.5 55v16q0 36 -19 55.5t-54 19.5h-74v-166h74q34 0 53.5 20zM231 40.5q-88 50.5 -138 138.5t-50 196t50 196t138 138.5t195 50.5
q108 0 196 -50.5t138 -138.5t50 -196t-50 -196t-138 -138.5t-196 -50.5q-107 0 -195 50.5zM593.5 87q74.5 43 116 118.5t41.5 169.5t-41.5 170t-116 119t-167.5 43t-167 -43t-115.5 -119t-41.5 -170t41.5 -169.5t115.5 -118.5t167 -43t167.5 43z" />
    <glyph glyph-name="macron" unicode="&#xaf;" horiz-adv-x="396" 
d="M50 721h296v-77h-296v77z" />
    <glyph glyph-name="degree" unicode="&#xb0;" horiz-adv-x="381" 
d="M310.5 712.5q46.5 -44.5 46.5 -119.5v-82q0 -74 -46.5 -118t-120.5 -44q-73 0 -119.5 44t-46.5 118v82q0 75 46.5 119.5t119.5 44.5q74 0 120.5 -44.5zM248.5 654q-22.5 23 -58.5 23q-35 0 -57.5 -23t-22.5 -61v-82q0 -38 22.5 -60.5t57.5 -22.5q36 0 58.5 22.5
t22.5 60.5v82q0 38 -22.5 61z" />
    <glyph glyph-name="plusminus" unicode="&#xb1;" horiz-adv-x="449" 
d="M418 388h-143v-133h-100v133h-144v96h144v138h100v-138h143v-96zM418 123h-387v96h387v-96z" />
    <glyph glyph-name="uni00B2" unicode="&#xb2;" horiz-adv-x="442" 
d="M63 573.5q6 20.5 36 48t99 67.5q50 29 74.5 50t30.5 37t6 36v4q0 29 -21.5 48t-60.5 19t-61.5 -20.5t-22.5 -55.5v-31l-80 11v25q0 66 44 105t118 39t119.5 -38.5t45.5 -101.5v-5q0 -33 -8.5 -59t-39 -56.5t-92.5 -65.5q-64 -35 -84.5 -56.5t-21.5 -47.5l1 3h250v-75
h-338v61q0 38 6 58.5z" />
    <glyph glyph-name="uni00B3" unicode="&#xb3;" horiz-adv-x="440" 
d="M85 485.5q-47 38.5 -47 107.5v12l78 11v-19q0 -37 25.5 -57.5t73.5 -20.5q47 0 71.5 20.5t24.5 59.5v9q0 74 -91 74h-62v63l112 133h-212v72h308v-65l-118 -136q70 -5 107 -43.5t37 -99.5v-8q0 -71 -46.5 -111t-129.5 -40q-84 0 -131 38.5z" />
    <glyph glyph-name="acute" unicode="&#xb4;" horiz-adv-x="241" 
d="M70 750h121l-96 -129h-45z" />
    <glyph glyph-name="uni00B5" unicode="&#xb5;" horiz-adv-x="506" 
d="M48 550h99v-343q0 -59 26.5 -90t76.5 -31q54 0 88.5 38t34.5 102v324h99v-550h-86l-10 82h-3q-26 -46 -63 -69t-94 -23q-36 0 -69 11v-181h-99v730z" />
    <glyph glyph-name="paragraph" unicode="&#xb6;" horiz-adv-x="655" 
d="M243 0v389h-9q-86 0 -136 39.5t-50 127.5v20q0 89 45 131.5t141 42.5h77v-750h-68zM602 684h-93v-684h-73v684h-95v66h261v-66z" />
    <glyph glyph-name="periodcentered" unicode="&#xb7;" horiz-adv-x="182" 
d="M47 251q-17 17 -17 44q0 26 17 43t44 17q26 0 43 -17t17 -43q0 -27 -17 -44t-43 -17q-27 0 -44 17z" />
    <glyph glyph-name="cedilla" unicode="&#xb8;" horiz-adv-x="241" 
d="M171 -199h-121l97 129h44z" />
    <glyph glyph-name="uni00B9" unicode="&#xb9;" horiz-adv-x="437" 
d="M226 873h-106v77h190v-496h-84v419z" />
    <glyph glyph-name="ordmasculine" unicode="&#xba;" horiz-adv-x="377" 
d="M104 358q-38 21 -59 59t-21 86v91q0 48 21 86t59 59.5t85 21.5q72 0 118 -47t46 -120v-91q0 -73 -46 -119.5t-118 -46.5q-47 0 -85 21zM127 437.5q24 -26.5 62 -26.5t61.5 26.5t23.5 69.5v84q0 44 -23.5 70.5t-61.5 26.5t-62 -27t-24 -70v-84q0 -43 24 -69.5zM328 215
h-105v-93h-69v93h-104v66h278v-66z" />
    <glyph glyph-name="guillemotright" unicode="&#xbb;" horiz-adv-x="471" 
d="M459 274l-120 -191h-112l120 191l-120 191h112zM259 274l-120 -191h-112l120 191l-120 191h112z" />
    <glyph glyph-name="onequarter" unicode="&#xbc;" horiz-adv-x="858" 
d="M203 681h-95v69h171v-446h-76v377zM337 0h-87l276 750h86zM714 85h-201v60l88 301h75l-84 -295h122v105h71v-105h50v-66h-50v-85h-71v85z" />
    <glyph glyph-name="onehalf" unicode="&#xbd;" horiz-adv-x="883" 
d="M203 681h-95v69h171v-446h-76v377zM337 0h-87l276 750h86zM541.5 107.5q5.5 18.5 32.5 43t89 60.5q46 26 67.5 45t27 33t5.5 33v3q0 27 -19.5 44t-54.5 17t-55 -18.5t-20 -50.5v-28l-72 10v23q0 60 39.5 94.5t106.5 34.5t107.5 -34.5t40.5 -91.5v-4q0 -30 -7.5 -53
t-35 -51t-83.5 -59q-58 -31 -76 -50.5t-19 -43.5l1 3h225v-67h-305v55q0 34 5.5 52.5z" />
    <glyph glyph-name="threequarters" unicode="&#xbe;" horiz-adv-x="887" 
d="M76.5 332q-42.5 35 -42.5 97v11l70 9v-17q0 -33 23 -51.5t67 -18.5q41 0 63.5 18.5t22.5 53.5v8q0 67 -82 67h-56v57l101 119h-191v65h277v-58l-106 -123q64 -4 97 -38.5t33 -90.5v-7q0 -64 -42 -100t-117 -36t-117.5 35zM366 0h-87l276 750h86zM743 85h-201v60l88 301
h75l-84 -295h122v105h71v-105h50v-66h-50v-85h-71v85z" />
    <glyph glyph-name="questiondown" unicode="&#xbf;" horiz-adv-x="490" 
d="M146.5 -161q-49.5 28 -77 81.5t-27.5 126.5q0 97 47.5 157.5t127.5 72.5v83h101v-172h-53q-57 0 -90 -36.5t-33 -104.5q0 -70 32 -106.5t86 -36.5q55 0 86.5 36.5t31.5 106.5v17l100 -12v-11q0 -70 -27.5 -122t-77 -80t-113.5 -28t-113.5 28zM222 545q17 17 44 17
q26 0 43 -17t17 -43q0 -27 -17 -44t-43 -17q-27 0 -44 17t-17 44q0 26 17 43z" />
    <glyph glyph-name="Agrave" unicode="&#xc0;" horiz-adv-x="550" 
d="M212 750h126l205 -750h-116l-33 135h-245l-33 -135h-108zM374 218l-102 417l-102 -417h204zM266 821l-97 129h121l20 -129h-44z" />
    <glyph glyph-name="Aacute" unicode="&#xc1;" horiz-adv-x="550" 
d="M212 750h126l205 -750h-116l-33 135h-245l-33 -135h-108zM374 218l-102 417l-102 -417h204zM250 950h121l-96 -129h-45z" />
    <glyph glyph-name="Acircumflex" unicode="&#xc2;" horiz-adv-x="550" 
d="M212 750h126l205 -750h-116l-33 135h-245l-33 -135h-108zM374 218l-102 417l-102 -417h204zM419 821h-76l-69 77l-69 -77h-76l100 129h91z" />
    <glyph glyph-name="Atilde" unicode="&#xc3;" horiz-adv-x="550" 
d="M212 750h126l205 -750h-116l-33 135h-245l-33 -135h-108zM374 218l-102 417l-102 -417h204zM306 832.5q-20 8.5 -48 24.5q-14 8 -26.5 14t-21.5 6q-31 0 -31 -47h-62q-6 116 82 116q22 0 43.5 -8.5t45.5 -23.5q4 -2 15.5 -8.5t19.5 -9.5t15 -3q14 0 22.5 12t8.5 36h62
q4 -117 -83 -117q-22 0 -42 8.5z" />
    <glyph glyph-name="Adieresis" unicode="&#xc4;" horiz-adv-x="550" 
d="M212 750h126l205 -750h-116l-33 135h-245l-33 -135h-108zM374 218l-102 417l-102 -417h204zM135.5 842.5q-17.5 17.5 -17.5 42.5q0 27 17 43.5t43 16.5q27 0 43.5 -16.5t16.5 -43.5q0 -26 -16.5 -43t-43.5 -17q-25 0 -42.5 17.5zM326.5 842.5q-17.5 17.5 -17.5 42.5
q0 27 17 43.5t43 16.5q27 0 43.5 -16.5t16.5 -43.5q0 -26 -16.5 -43t-43.5 -17q-25 0 -42.5 17.5z" />
    <glyph glyph-name="Aring" unicode="&#xc5;" horiz-adv-x="550" 
d="M212 750h126l205 -750h-116l-33 135h-245l-33 -135h-108zM374 218l-102 417l-102 -417h204zM205.5 833.5q-27.5 26.5 -27.5 65.5t27.5 65.5t68.5 26.5q40 0 67.5 -26.5t27.5 -65.5t-27.5 -65.5t-67.5 -26.5q-41 0 -68.5 26.5zM304.5 867.5q12.5 12.5 12.5 31.5
t-12.5 31.5t-30.5 12.5q-19 0 -31.5 -12.5t-12.5 -31.5t12.5 -31.5t31.5 -12.5q18 0 30.5 12.5z" />
    <glyph glyph-name="AE" unicode="&#xc6;" horiz-adv-x="820" 
d="M330 750h453v-93h-295v-224h226v-92h-226v-248h297v-93h-398v150h-204l-62 -150h-113zM387 233v413l-171 -413h171z" />
    <glyph glyph-name="Ccedilla" unicode="&#xc7;" horiz-adv-x="562" 
d="M159 19.5q-55 29.5 -86 83.5t-31 124v297q0 70 31 123.5t86 83t125 29.5q69 0 123.5 -29.5t85 -83t30.5 -123.5v-51l-99 -13l-1 59q-2 68 -39.5 108.5t-99.5 40.5q-64 0 -103 -40t-39 -108v-290q0 -67 39 -107t103 -40q62 0 100 40t39 109l1 65l99 -13v-57
q0 -70 -30.5 -124t-85 -83.5t-123.5 -29.5q-70 0 -125 29.5zM299 -199h-121l97 129h44z" />
    <glyph glyph-name="Egrave" unicode="&#xc8;" horiz-adv-x="483" 
d="M50 750h396v-93h-295v-224h226v-92h-226v-248h297v-93h-398v750zM243 821l-97 129h121l20 -129h-44z" />
    <glyph glyph-name="Eacute" unicode="&#xc9;" horiz-adv-x="483" 
d="M50 750h396v-93h-295v-224h226v-92h-226v-248h297v-93h-398v750zM227 950h121l-96 -129h-45z" />
    <glyph glyph-name="Ecircumflex" unicode="&#xca;" horiz-adv-x="483" 
d="M50 750h396v-93h-295v-224h226v-92h-226v-248h297v-93h-398v750zM396 821h-76l-69 77l-69 -77h-76l100 129h91z" />
    <glyph glyph-name="Edieresis" unicode="&#xcb;" horiz-adv-x="483" 
d="M50 750h396v-93h-295v-224h226v-92h-226v-248h297v-93h-398v750zM112.5 842.5q-17.5 17.5 -17.5 42.5q0 27 17 43.5t43 16.5q27 0 43.5 -16.5t16.5 -43.5q0 -26 -16.5 -43t-43.5 -17q-25 0 -42.5 17.5zM303.5 842.5q-17.5 17.5 -17.5 42.5q0 27 17 43.5t43 16.5
q27 0 43.5 -16.5t16.5 -43.5q0 -26 -16.5 -43t-43.5 -17q-25 0 -42.5 17.5z" />
    <glyph glyph-name="Igrave" unicode="&#xcc;" horiz-adv-x="200" 
d="M50 750h100v-750h-100v750zM92 821l-97 129h121l20 -129h-44z" />
    <glyph glyph-name="Iacute" unicode="&#xcd;" horiz-adv-x="200" 
d="M50 750h100v-750h-100v750zM77 950h121l-96 -129h-45z" />
    <glyph glyph-name="Icircumflex" unicode="&#xce;" horiz-adv-x="200" 
d="M50 750h100v-750h-100v750zM245 821h-76l-69 77l-69 -77h-76l100 129h91z" />
    <glyph glyph-name="Idieresis" unicode="&#xcf;" horiz-adv-x="200" 
d="M50 750h100v-750h-100v750zM-38.5 842.5q-17.5 17.5 -17.5 42.5q0 27 17 43.5t43 16.5q27 0 43.5 -16.5t16.5 -43.5q0 -26 -16.5 -43t-43.5 -17q-25 0 -42.5 17.5zM152.5 842.5q-17.5 17.5 -17.5 42.5q0 27 17 43.5t43 16.5q27 0 43.5 -16.5t16.5 -43.5q0 -26 -16.5 -43
t-43.5 -17q-25 0 -42.5 17.5z" />
    <glyph glyph-name="Eth" unicode="&#xd0;" horiz-adv-x="575" 
d="M70 337h-70v77h70v336h222q70 0 124.5 -29.5t85.5 -83.5t31 -124v-276q0 -70 -31 -124t-85.5 -83.5t-124.5 -29.5h-222v337zM393.5 133q39.5 40 39.5 106v273q0 65 -39.5 105t-101.5 40h-121v-243h125v-77h-125v-244h121q62 0 101.5 40z" />
    <glyph glyph-name="Ntilde" unicode="&#xd1;" horiz-adv-x="581" 
d="M50 750h99l285 -541v541h97v-750h-99l-285 541v-541h-97v750zM323 832.5q-20 8.5 -48 24.5q-14 8 -26.5 14t-21.5 6q-31 0 -31 -47h-62q-6 116 82 116q22 0 43.5 -8.5t45.5 -23.5q4 -2 15.5 -8.5t19.5 -9.5t15 -3q14 0 22.5 12t8.5 36h62q4 -117 -83 -117q-22 0 -42 8.5z
" />
    <glyph glyph-name="Ograve" unicode="&#xd2;" horiz-adv-x="565" 
d="M158 20q-55 30 -85.5 84t-30.5 125v293q0 70 30.5 124.5t85.5 84t125 29.5t124.5 -29.5t85 -84t30.5 -124.5v-293q0 -71 -30.5 -125t-85 -84t-124.5 -30t-125 30zM384 123q39 40 39 106v293q0 66 -39 106t-101 40t-101.5 -40t-39.5 -106v-293q0 -66 39.5 -106t101.5 -40
t101 40zM275 821l-97 129h121l20 -129h-44z" />
    <glyph glyph-name="Oacute" unicode="&#xd3;" horiz-adv-x="565" 
d="M158 20q-55 30 -85.5 84t-30.5 125v293q0 70 30.5 124.5t85.5 84t125 29.5t124.5 -29.5t85 -84t30.5 -124.5v-293q0 -71 -30.5 -125t-85 -84t-124.5 -30t-125 30zM384 123q39 40 39 106v293q0 66 -39 106t-101 40t-101.5 -40t-39.5 -106v-293q0 -66 39.5 -106t101.5 -40
t101 40zM259 950h121l-96 -129h-45z" />
    <glyph glyph-name="Ocircumflex" unicode="&#xd4;" horiz-adv-x="565" 
d="M158 20q-55 30 -85.5 84t-30.5 125v293q0 70 30.5 124.5t85.5 84t125 29.5t124.5 -29.5t85 -84t30.5 -124.5v-293q0 -71 -30.5 -125t-85 -84t-124.5 -30t-125 30zM384 123q39 40 39 106v293q0 66 -39 106t-101 40t-101.5 -40t-39.5 -106v-293q0 -66 39.5 -106t101.5 -40
t101 40zM428 821h-76l-69 77l-69 -77h-76l100 129h91z" />
    <glyph glyph-name="Otilde" unicode="&#xd5;" horiz-adv-x="565" 
d="M158 20q-55 30 -85.5 84t-30.5 125v293q0 70 30.5 124.5t85.5 84t125 29.5t124.5 -29.5t85 -84t30.5 -124.5v-293q0 -71 -30.5 -125t-85 -84t-124.5 -30t-125 30zM384 123q39 40 39 106v293q0 66 -39 106t-101 40t-101.5 -40t-39.5 -106v-293q0 -66 39.5 -106t101.5 -40
t101 40zM315 832.5q-20 8.5 -48 24.5q-14 8 -26.5 14t-21.5 6q-31 0 -31 -47h-62q-6 116 82 116q22 0 43.5 -8.5t45.5 -23.5q4 -2 15.5 -8.5t19.5 -9.5t15 -3q14 0 22.5 12t8.5 36h62q4 -117 -83 -117q-22 0 -42 8.5z" />
    <glyph glyph-name="Odieresis" unicode="&#xd6;" horiz-adv-x="565" 
d="M158 20q-55 30 -85.5 84t-30.5 125v293q0 70 30.5 124.5t85.5 84t125 29.5t124.5 -29.5t85 -84t30.5 -124.5v-293q0 -71 -30.5 -125t-85 -84t-124.5 -30t-125 30zM384 123q39 40 39 106v293q0 66 -39 106t-101 40t-101.5 -40t-39.5 -106v-293q0 -66 39.5 -106t101.5 -40
t101 40zM144.5 842.5q-17.5 17.5 -17.5 42.5q0 27 17 43.5t43 16.5q27 0 43.5 -16.5t16.5 -43.5q0 -26 -16.5 -43t-43.5 -17q-25 0 -42.5 17.5zM335.5 842.5q-17.5 17.5 -17.5 42.5q0 27 17 43.5t43 16.5q27 0 43.5 -16.5t16.5 -43.5q0 -26 -16.5 -43t-43.5 -17
q-25 0 -42.5 17.5z" />
    <glyph glyph-name="multiply" unicode="&#xd7;" horiz-adv-x="427" 
d="M328 210l-114 115l-115 -115l-68 68l115 115l-115 115l67 67l116 -115l115 115l68 -67l-116 -116l115 -114z" />
    <glyph glyph-name="Oslash" unicode="&#xd8;" horiz-adv-x="563" 
d="M98 68q-56 66 -56 161v293q0 70 30.5 124.5t85.5 84t125 29.5q72 0 126 -31l23 44h82l-47 -91q56 -64 56 -160v-293q0 -71 -30.5 -125t-85 -84t-124.5 -30q-71 0 -127 31l-25 -48h-81zM384 123q39 40 39 106v293q0 27 -8 53l-217 -466q35 -26 85 -26q62 0 101 40z
M150 176l217 467q-36 25 -84 25q-62 0 -101.5 -40t-39.5 -106v-293q0 -27 8 -53z" />
    <glyph glyph-name="Ugrave" unicode="&#xd9;" horiz-adv-x="574" 
d="M162.5 19.5q-54.5 29.5 -85.5 83.5t-31 124v523h101v-521q0 -66 39 -106t101 -40t101.5 40t39.5 106v521h100v-523q0 -70 -31 -124t-85.5 -83.5t-124.5 -29.5t-124.5 29.5zM279 821l-97 129h121l20 -129h-44z" />
    <glyph glyph-name="Uacute" unicode="&#xda;" horiz-adv-x="574" 
d="M162.5 19.5q-54.5 29.5 -85.5 83.5t-31 124v523h101v-521q0 -66 39 -106t101 -40t101.5 40t39.5 106v521h100v-523q0 -70 -31 -124t-85.5 -83.5t-124.5 -29.5t-124.5 29.5zM264 950h121l-96 -129h-45z" />
    <glyph glyph-name="Ucircumflex" unicode="&#xdb;" horiz-adv-x="574" 
d="M162.5 19.5q-54.5 29.5 -85.5 83.5t-31 124v523h101v-521q0 -66 39 -106t101 -40t101.5 40t39.5 106v521h100v-523q0 -70 -31 -124t-85.5 -83.5t-124.5 -29.5t-124.5 29.5zM432 821h-76l-69 77l-69 -77h-76l100 129h91z" />
    <glyph glyph-name="Udieresis" unicode="&#xdc;" horiz-adv-x="574" 
d="M162.5 19.5q-54.5 29.5 -85.5 83.5t-31 124v523h101v-521q0 -66 39 -106t101 -40t101.5 40t39.5 106v521h100v-523q0 -70 -31 -124t-85.5 -83.5t-124.5 -29.5t-124.5 29.5zM148.5 842.5q-17.5 17.5 -17.5 42.5q0 27 17 43.5t43 16.5q27 0 43.5 -16.5t16.5 -43.5
q0 -26 -16.5 -43t-43.5 -17q-25 0 -42.5 17.5zM339.5 842.5q-17.5 17.5 -17.5 42.5q0 27 17 43.5t43 16.5q27 0 43.5 -16.5t16.5 -43.5q0 -26 -16.5 -43t-43.5 -17q-25 0 -42.5 17.5z" />
    <glyph glyph-name="Yacute" unicode="&#xdd;" horiz-adv-x="528" 
d="M215 279l-214 471h114l152 -346l150 346h111l-213 -469v-281h-100v279zM241 950h121l-96 -129h-45z" />
    <glyph glyph-name="Thorn" unicode="&#xde;" horiz-adv-x="549" 
d="M50 750h100v-106h123q111 0 178.5 -59t67.5 -182v-24q0 -80 -32.5 -134t-88 -80.5t-125.5 -26.5h-123v-138h-100v750zM379 269q39 38 39 110v24q0 72 -39.5 110t-103.5 38h-125v-320h125q65 0 104 38z" />
    <glyph glyph-name="germandbls" unicode="&#xdf;" horiz-adv-x="539" 
d="M409 181v3q0 33 -16 54.5t-49 50.5q-31 27 -46.5 48t-15.5 50q0 28 11.5 46.5t35.5 43.5q24 23 36.5 43t12.5 50v5q0 42 -30.5 68.5t-79.5 26.5q-57 0 -89 -36t-32 -98v-536h-99v539q0 103 60 162t162 59q58 0 104.5 -21.5t72.5 -60t26 -88.5v-6q0 -39 -16.5 -65
t-46.5 -55q-20 -19 -29.5 -31.5t-9.5 -27.5t10.5 -27t35.5 -33q43 -35 67.5 -71t24.5 -94v-6q0 -90 -64.5 -137t-184.5 -47v93q149 0 149 98z" />
    <glyph glyph-name="agrave" unicode="&#xe0;" horiz-adv-x="487" 
d="M71 37q-43 42 -43 109v9q0 73 49.5 120.5t155.5 47.5h112v39q0 50 -26.5 79t-73.5 29q-48 0 -77.5 -29t-29.5 -79v-4l-98 17v2q0 49 25 91t72.5 67t112.5 25q92 0 143 -52t51 -143v-365h-86l-9 78h-4q-24 -38 -64 -60.5t-95 -22.5q-72 0 -115 42zM153.5 102.5
q25.5 -19.5 66.5 -19.5q56 0 90.5 31.5t34.5 82.5v44h-109q-53 0 -80.5 -20.5t-27.5 -56.5v-8q0 -34 25.5 -53.5zM235 621l-97 129h121l20 -129h-44z" />
    <glyph glyph-name="aacute" unicode="&#xe1;" horiz-adv-x="487" 
d="M71 37q-43 42 -43 109v9q0 73 49.5 120.5t155.5 47.5h112v39q0 50 -26.5 79t-73.5 29q-48 0 -77.5 -29t-29.5 -79v-4l-98 17v2q0 49 25 91t72.5 67t112.5 25q92 0 143 -52t51 -143v-365h-86l-9 78h-4q-24 -38 -64 -60.5t-95 -22.5q-72 0 -115 42zM153.5 102.5
q25.5 -19.5 66.5 -19.5q56 0 90.5 31.5t34.5 82.5v44h-109q-53 0 -80.5 -20.5t-27.5 -56.5v-8q0 -34 25.5 -53.5zM220 750h121l-96 -129h-45z" />
    <glyph glyph-name="acircumflex" unicode="&#xe2;" horiz-adv-x="487" 
d="M71 37q-43 42 -43 109v9q0 73 49.5 120.5t155.5 47.5h112v39q0 50 -26.5 79t-73.5 29q-48 0 -77.5 -29t-29.5 -79v-4l-98 17v2q0 49 25 91t72.5 67t112.5 25q92 0 143 -52t51 -143v-365h-86l-9 78h-4q-24 -38 -64 -60.5t-95 -22.5q-72 0 -115 42zM153.5 102.5
q25.5 -19.5 66.5 -19.5q56 0 90.5 31.5t34.5 82.5v44h-109q-53 0 -80.5 -20.5t-27.5 -56.5v-8q0 -34 25.5 -53.5zM388 621h-76l-69 77l-69 -77h-76l100 129h91z" />
    <glyph glyph-name="atilde" unicode="&#xe3;" horiz-adv-x="487" 
d="M71 37q-43 42 -43 109v9q0 73 49.5 120.5t155.5 47.5h112v39q0 50 -26.5 79t-73.5 29q-48 0 -77.5 -29t-29.5 -79v-4l-98 17v2q0 49 25 91t72.5 67t112.5 25q92 0 143 -52t51 -143v-365h-86l-9 78h-4q-24 -38 -64 -60.5t-95 -22.5q-72 0 -115 42zM153.5 102.5
q25.5 -19.5 66.5 -19.5q56 0 90.5 31.5t34.5 82.5v44h-109q-53 0 -80.5 -20.5t-27.5 -56.5v-8q0 -34 25.5 -53.5zM276 632.5q-20 8.5 -48 24.5q-14 8 -26.5 14t-21.5 6q-31 0 -31 -47h-62q-6 116 82 116q22 0 43.5 -8.5t45.5 -23.5q4 -2 15.5 -8.5t19.5 -9.5t15 -3
q14 0 22.5 12t8.5 36h62q4 -117 -83 -117q-22 0 -42 8.5z" />
    <glyph glyph-name="adieresis" unicode="&#xe4;" horiz-adv-x="487" 
d="M71 37q-43 42 -43 109v9q0 73 49.5 120.5t155.5 47.5h112v39q0 50 -26.5 79t-73.5 29q-48 0 -77.5 -29t-29.5 -79v-4l-98 17v2q0 49 25 91t72.5 67t112.5 25q92 0 143 -52t51 -143v-365h-86l-9 78h-4q-24 -38 -64 -60.5t-95 -22.5q-72 0 -115 42zM153.5 102.5
q25.5 -19.5 66.5 -19.5q56 0 90.5 31.5t34.5 82.5v44h-109q-53 0 -80.5 -20.5t-27.5 -56.5v-8q0 -34 25.5 -53.5zM104.5 642.5q-17.5 17.5 -17.5 42.5q0 27 17 43.5t43 16.5q27 0 43.5 -16.5t16.5 -43.5q0 -26 -16.5 -43t-43.5 -17q-25 0 -42.5 17.5zM295.5 642.5
q-17.5 17.5 -17.5 42.5q0 27 17 43.5t43 16.5q27 0 43.5 -16.5t16.5 -43.5q0 -26 -16.5 -43t-43.5 -17q-25 0 -42.5 17.5z" />
    <glyph glyph-name="aring" unicode="&#xe5;" horiz-adv-x="487" 
d="M71 37q-43 42 -43 109v9q0 73 49.5 120.5t155.5 47.5h112v39q0 50 -26.5 79t-73.5 29q-48 0 -77.5 -29t-29.5 -79v-4l-98 17v2q0 49 25 91t72.5 67t112.5 25q92 0 143 -52t51 -143v-365h-86l-9 78h-4q-24 -38 -64 -60.5t-95 -22.5q-72 0 -115 42zM153.5 102.5
q25.5 -19.5 66.5 -19.5q56 0 90.5 31.5t34.5 82.5v44h-109q-53 0 -80.5 -20.5t-27.5 -56.5v-8q0 -34 25.5 -53.5zM175.5 633.5q-27.5 26.5 -27.5 65.5t27.5 65.5t68.5 26.5q40 0 67.5 -26.5t27.5 -65.5t-27.5 -65.5t-67.5 -26.5q-41 0 -68.5 26.5zM274.5 667.5
q12.5 12.5 12.5 31.5t-12.5 31.5t-30.5 12.5q-19 0 -31.5 -12.5t-12.5 -31.5t12.5 -31.5t31.5 -12.5q18 0 30.5 12.5z" />
    <glyph glyph-name="ae" unicode="&#xe6;" horiz-adv-x="820" 
d="M72.5 36.5q-44.5 41.5 -44.5 107.5v12q0 69 49.5 114.5t155.5 45.5h112v46q0 50 -26.5 79t-72.5 29q-49 0 -78.5 -29t-29.5 -79v-4l-98 17l1 6q3 50 29 90.5t72 64.5t106 24q52 0 92 -18.5t64 -53.5q28 34 70 53t93 19q64 0 114 -28.5t78.5 -79.5t28.5 -116v-80h-343v-49
q0 -57 34.5 -93t91.5 -36q54 0 86 34t32 85v4l97 -8l-1 -13q-1 -52 -27.5 -95t-75 -69t-111.5 -26q-125 0 -187 104q-60 -99 -189 -99q-78 0 -122.5 41.5zM688 320v16q0 61 -33.5 98.5t-87.5 37.5q-55 0 -88.5 -37.5t-33.5 -98.5v-16h243zM153 102.5q25 -19.5 64 -19.5
q57 0 92.5 31.5t35.5 82.5v49h-108q-53 0 -81 -22t-28 -58v-10q0 -34 25 -53.5z" />
    <glyph glyph-name="ccedilla" unicode="&#xe7;" horiz-adv-x="495" 
d="M138.5 19q-50.5 28 -78.5 78t-28 115v127q0 65 28 115.5t78.5 78.5t115.5 28q62 0 110.5 -27.5t75.5 -74t27 -101.5v-2l-98 -18v5q0 54 -31 89.5t-83 35.5q-56 0 -89.5 -37.5t-33.5 -98.5v-112q0 -62 33.5 -99.5t89.5 -37.5q52 0 83 35.5t31 90.5v4l98 -17v-3
q0 -54 -27 -100.5t-75.5 -74t-110.5 -27.5q-65 0 -115.5 28zM264 -199h-121l97 129h44z" />
    <glyph glyph-name="egrave" unicode="&#xe8;" horiz-adv-x="506" 
d="M140 17.5q-51 27.5 -79.5 76.5t-28.5 112v130q0 65 28.5 116t79 79.5t113.5 28.5q64 0 114.5 -28.5t78.5 -79.5t28 -116v-87h-343v-42q0 -57 35 -93t92 -36q54 0 85.5 33t31.5 83v1l98 -7l-1 -11q-3 -51 -29.5 -94t-74 -68t-110.5 -25q-67 0 -118 27.5zM375 332v7
q0 59 -34 96t-88 37t-88 -37t-34 -96v-7h244zM245 621l-97 129h121l20 -129h-44z" />
    <glyph glyph-name="eacute" unicode="&#xe9;" horiz-adv-x="506" 
d="M140 17.5q-51 27.5 -79.5 76.5t-28.5 112v130q0 65 28.5 116t79 79.5t113.5 28.5q64 0 114.5 -28.5t78.5 -79.5t28 -116v-87h-343v-42q0 -57 35 -93t92 -36q54 0 85.5 33t31.5 83v1l98 -7l-1 -11q-3 -51 -29.5 -94t-74 -68t-110.5 -25q-67 0 -118 27.5zM375 332v7
q0 59 -34 96t-88 37t-88 -37t-34 -96v-7h244zM230 750h121l-96 -129h-45z" />
    <glyph glyph-name="ecircumflex" unicode="&#xea;" horiz-adv-x="506" 
d="M140 17.5q-51 27.5 -79.5 76.5t-28.5 112v130q0 65 28.5 116t79 79.5t113.5 28.5q64 0 114.5 -28.5t78.5 -79.5t28 -116v-87h-343v-42q0 -57 35 -93t92 -36q54 0 85.5 33t31.5 83v1l98 -7l-1 -11q-3 -51 -29.5 -94t-74 -68t-110.5 -25q-67 0 -118 27.5zM375 332v7
q0 59 -34 96t-88 37t-88 -37t-34 -96v-7h244zM398 621h-76l-69 77l-69 -77h-76l100 129h91z" />
    <glyph glyph-name="edieresis" unicode="&#xeb;" horiz-adv-x="506" 
d="M140 17.5q-51 27.5 -79.5 76.5t-28.5 112v130q0 65 28.5 116t79 79.5t113.5 28.5q64 0 114.5 -28.5t78.5 -79.5t28 -116v-87h-343v-42q0 -57 35 -93t92 -36q54 0 85.5 33t31.5 83v1l98 -7l-1 -11q-3 -51 -29.5 -94t-74 -68t-110.5 -25q-67 0 -118 27.5zM375 332v7
q0 59 -34 96t-88 37t-88 -37t-34 -96v-7h244zM114.5 642.5q-17.5 17.5 -17.5 42.5q0 27 17 43.5t43 16.5q27 0 43.5 -16.5t16.5 -43.5q0 -26 -16.5 -43t-43.5 -17q-25 0 -42.5 17.5zM305.5 642.5q-17.5 17.5 -17.5 42.5q0 27 17 43.5t43 16.5q27 0 43.5 -16.5t16.5 -43.5
q0 -26 -16.5 -43t-43.5 -17q-25 0 -42.5 17.5z" />
    <glyph glyph-name="igrave" unicode="&#xec;" horiz-adv-x="195" 
d="M147 0h-99v550h99v-550zM90 621l-97 129h121l20 -129h-44z" />
    <glyph glyph-name="iacute" unicode="&#xed;" horiz-adv-x="195" 
d="M147 0h-99v550h99v-550zM74 750h121l-96 -129h-45z" />
    <glyph glyph-name="icircumflex" unicode="&#xee;" horiz-adv-x="195" 
d="M147 0h-99v550h99v-550zM50 750h95l72 -129h-68l-52 78l-52 -78h-67z" />
    <glyph glyph-name="idieresis" unicode="&#xef;" horiz-adv-x="195" 
d="M147 0h-99v550h99v-550zM135 635q-16 16 -16 41t16 40.5t40 15.5q25 0 41 -15.5t16 -40.5t-16 -41t-41 -16q-24 0 -40 16zM-20 635q-16 16 -16 41t16 40.5t41 15.5t40.5 -15.5t15.5 -40.5t-15.5 -41t-40.5 -16t-41 16z" />
    <glyph glyph-name="eth" unicode="&#xf0;" horiz-adv-x="507" 
d="M139.5 18.5q-50.5 28.5 -79 79.5t-28.5 116v72q0 65 28 116t77 79.5t110 28.5q72 0 119 -48q-26 79 -78 144l-151 -58l-23 53l134 52q-43 44 -108 97h123q35 -28 70 -65l105 41l23 -53l-89 -34q56 -74 79.5 -159t23.5 -189v-72q0 -67 -28.5 -119t-78.5 -81t-114 -29
t-114.5 28.5zM341.5 120.5q33.5 37.5 33.5 98.5v62q0 61 -33.5 99t-87.5 38q-55 0 -88.5 -38t-33.5 -99v-62q0 -61 33.5 -98.5t88.5 -37.5q54 0 87.5 37.5z" />
    <glyph glyph-name="ntilde" unicode="&#xf1;" horiz-adv-x="522" 
d="M351.5 432.5q-27.5 31.5 -77.5 31.5q-56 0 -91.5 -37.5t-35.5 -101.5v-325h-99v550h96v-80h4q24 45 62 67.5t97 22.5q84 0 128 -49.5t44 -142.5v-368h-100v343q0 58 -27.5 89.5zM294 632.5q-20 8.5 -48 24.5q-14 8 -26.5 14t-21.5 6q-31 0 -31 -47h-62q-6 116 82 116
q22 0 43.5 -8.5t45.5 -23.5q4 -2 15.5 -8.5t19.5 -9.5t15 -3q14 0 22.5 12t8.5 36h62q4 -117 -83 -117q-22 0 -42 8.5z" />
    <glyph glyph-name="ograve" unicode="&#xf2;" horiz-adv-x="507" 
d="M139.5 18.5q-50.5 28.5 -79 79.5t-28.5 116v122q0 65 28.5 116t79 79.5t114.5 28.5t114 -28.5t78.5 -79.5t28.5 -116v-122q0 -65 -28.5 -116t-78.5 -79.5t-114 -28.5t-114.5 28.5zM165.5 120.5q33.5 -37.5 88.5 -37.5q54 0 87.5 37.5t33.5 98.5v112q0 61 -33.5 99
t-87.5 38q-55 0 -88.5 -38t-33.5 -99v-112q0 -61 33.5 -98.5zM246 621l-97 129h121l20 -129h-44z" />
    <glyph glyph-name="oacute" unicode="&#xf3;" horiz-adv-x="507" 
d="M139.5 18.5q-50.5 28.5 -79 79.5t-28.5 116v122q0 65 28.5 116t79 79.5t114.5 28.5t114 -28.5t78.5 -79.5t28.5 -116v-122q0 -65 -28.5 -116t-78.5 -79.5t-114 -28.5t-114.5 28.5zM165.5 120.5q33.5 -37.5 88.5 -37.5q54 0 87.5 37.5t33.5 98.5v112q0 61 -33.5 99
t-87.5 38q-55 0 -88.5 -38t-33.5 -99v-112q0 -61 33.5 -98.5zM230 750h121l-96 -129h-45z" />
    <glyph glyph-name="ocircumflex" unicode="&#xf4;" horiz-adv-x="507" 
d="M139.5 18.5q-50.5 28.5 -79 79.5t-28.5 116v122q0 65 28.5 116t79 79.5t114.5 28.5t114 -28.5t78.5 -79.5t28.5 -116v-122q0 -65 -28.5 -116t-78.5 -79.5t-114 -28.5t-114.5 28.5zM165.5 120.5q33.5 -37.5 88.5 -37.5q54 0 87.5 37.5t33.5 98.5v112q0 61 -33.5 99
t-87.5 38q-55 0 -88.5 -38t-33.5 -99v-112q0 -61 33.5 -98.5zM399 621h-76l-69 77l-69 -77h-76l100 129h91z" />
    <glyph glyph-name="otilde" unicode="&#xf5;" horiz-adv-x="507" 
d="M139.5 18.5q-50.5 28.5 -79 79.5t-28.5 116v122q0 65 28.5 116t79 79.5t114.5 28.5t114 -28.5t78.5 -79.5t28.5 -116v-122q0 -65 -28.5 -116t-78.5 -79.5t-114 -28.5t-114.5 28.5zM165.5 120.5q33.5 -37.5 88.5 -37.5q54 0 87.5 37.5t33.5 98.5v112q0 61 -33.5 99
t-87.5 38q-55 0 -88.5 -38t-33.5 -99v-112q0 -61 33.5 -98.5zM286 632.5q-20 8.5 -48 24.5q-14 8 -26.5 14t-21.5 6q-31 0 -31 -47h-62q-6 116 82 116q22 0 43.5 -8.5t45.5 -23.5q4 -2 15.5 -8.5t19.5 -9.5t15 -3q14 0 22.5 12t8.5 36h62q4 -117 -83 -117q-22 0 -42 8.5z
" />
    <glyph glyph-name="odieresis" unicode="&#xf6;" horiz-adv-x="507" 
d="M139.5 18.5q-50.5 28.5 -79 79.5t-28.5 116v122q0 65 28.5 116t79 79.5t114.5 28.5t114 -28.5t78.5 -79.5t28.5 -116v-122q0 -65 -28.5 -116t-78.5 -79.5t-114 -28.5t-114.5 28.5zM165.5 120.5q33.5 -37.5 88.5 -37.5q54 0 87.5 37.5t33.5 98.5v112q0 61 -33.5 99
t-87.5 38q-55 0 -88.5 -38t-33.5 -99v-112q0 -61 33.5 -98.5zM115.5 642.5q-17.5 17.5 -17.5 42.5q0 27 17 43.5t43 16.5q27 0 43.5 -16.5t16.5 -43.5q0 -26 -16.5 -43t-43.5 -17q-25 0 -42.5 17.5zM306.5 642.5q-17.5 17.5 -17.5 42.5q0 27 17 43.5t43 16.5
q27 0 43.5 -16.5t16.5 -43.5q0 -26 -16.5 -43t-43.5 -17q-25 0 -42.5 17.5z" />
    <glyph glyph-name="divide" unicode="&#xf7;" horiz-adv-x="429" 
d="M398 333h-367v96h367v-96zM171 509q-17 17 -17 44q0 26 17 43t44 17q26 0 43 -17t17 -43q0 -27 -17 -44t-43 -17q-27 0 -44 17zM171 165q-17 17 -17 44q0 26 17 43t44 17q26 0 43 -17t17 -43q0 -27 -17 -44t-43 -17q-27 0 -44 17z" />
    <glyph glyph-name="oslash" unicode="&#xf8;" horiz-adv-x="507" 
d="M165 7l-18 -34h-80l37 71q-34 30 -53 74t-19 96v122q0 65 28.5 116t79 79.5t114.5 28.5q46 0 88 -16l18 33h80l-37 -71q34 -30 53 -73.5t19 -96.5v-122q0 -65 -28.5 -116t-78.5 -79.5t-114 -28.5q-47 0 -89 17zM156 132l152 324q-24 12 -54 12q-55 0 -88.5 -38t-33.5 -99
v-112q0 -50 24 -87zM254 83q54 0 87.5 37.5t33.5 98.5v112q0 52 -25 88l-151 -324q24 -12 55 -12z" />
    <glyph glyph-name="ugrave" unicode="&#xf9;" horiz-adv-x="516" 
d="M87 39.5q-43 49.5 -43 142.5v368h99v-343q0 -59 26.5 -90t76.5 -31q54 0 88.5 38t34.5 102v324h99v-550h-86l-10 82h-3q-26 -46 -63 -69t-94 -23q-82 0 -125 49.5zM250 621l-97 129h121l20 -129h-44z" />
    <glyph glyph-name="uacute" unicode="&#xfa;" horiz-adv-x="516" 
d="M87 39.5q-43 49.5 -43 142.5v368h99v-343q0 -59 26.5 -90t76.5 -31q54 0 88.5 38t34.5 102v324h99v-550h-86l-10 82h-3q-26 -46 -63 -69t-94 -23q-82 0 -125 49.5zM235 750h121l-96 -129h-45z" />
    <glyph glyph-name="ucircumflex" unicode="&#xfb;" horiz-adv-x="516" 
d="M87 39.5q-43 49.5 -43 142.5v368h99v-343q0 -59 26.5 -90t76.5 -31q54 0 88.5 38t34.5 102v324h99v-550h-86l-10 82h-3q-26 -46 -63 -69t-94 -23q-82 0 -125 49.5zM403 621h-76l-69 77l-69 -77h-76l100 129h91z" />
    <glyph glyph-name="udieresis" unicode="&#xfc;" horiz-adv-x="516" 
d="M87 39.5q-43 49.5 -43 142.5v368h99v-343q0 -59 26.5 -90t76.5 -31q54 0 88.5 38t34.5 102v324h99v-550h-86l-10 82h-3q-26 -46 -63 -69t-94 -23q-82 0 -125 49.5zM119.5 642.5q-17.5 17.5 -17.5 42.5q0 27 17 43.5t43 16.5q27 0 43.5 -16.5t16.5 -43.5q0 -26 -16.5 -43
t-43.5 -17q-25 0 -42.5 17.5zM310.5 642.5q-17.5 17.5 -17.5 42.5q0 27 17 43.5t43 16.5q27 0 43.5 -16.5t16.5 -43.5q0 -26 -16.5 -43t-43.5 -17q-25 0 -42.5 17.5z" />
    <glyph glyph-name="yacute" unicode="&#xfd;" horiz-adv-x="499" 
d="M197 33l-185 517h106l129 -383l135 383h105l-270 -730h-104zM226 750h121l-96 -129h-45z" />
    <glyph glyph-name="thorn" unicode="&#xfe;" horiz-adv-x="524" 
d="M208.5 12.5q-34.5 22.5 -57.5 66.5h-4v-259h-99v930h94v-280h4q48 90 154 90q88 0 139 -61t51 -168v-112q0 -107 -52 -168t-142 -61q-53 0 -87.5 22.5zM182.5 123q35.5 -38 89.5 -38t86.5 38t32.5 103v98q0 64 -33.5 102.5t-86.5 38.5q-54 0 -89 -37.5t-35 -101.5v-101
q0 -64 35.5 -102z" />
    <glyph glyph-name="ydieresis" unicode="&#xff;" horiz-adv-x="499" 
d="M197 33l-185 517h106l129 -383l135 383h105l-270 -730h-104zM111.5 642.5q-17.5 17.5 -17.5 42.5q0 27 17 43.5t43 16.5q27 0 43.5 -16.5t16.5 -43.5q0 -26 -16.5 -43t-43.5 -17q-25 0 -42.5 17.5zM302.5 642.5q-17.5 17.5 -17.5 42.5q0 27 17 43.5t43 16.5
q27 0 43.5 -16.5t16.5 -43.5q0 -26 -16.5 -43t-43.5 -17q-25 0 -42.5 17.5z" />
    <glyph glyph-name="Amacron" unicode="&#x100;" horiz-adv-x="550" 
d="M212 750h126l205 -750h-116l-33 135h-245l-33 -135h-108zM374 218l-102 417l-102 -417h204zM126 921h296v-77h-296v77z" />
    <glyph glyph-name="amacron" unicode="&#x101;" horiz-adv-x="487" 
d="M71 37q-43 42 -43 109v9q0 73 49.5 120.5t155.5 47.5h112v39q0 50 -26.5 79t-73.5 29q-48 0 -77.5 -29t-29.5 -79v-4l-98 17v2q0 49 25 91t72.5 67t112.5 25q92 0 143 -52t51 -143v-365h-86l-9 78h-4q-24 -38 -64 -60.5t-95 -22.5q-72 0 -115 42zM153.5 102.5
q25.5 -19.5 66.5 -19.5q56 0 90.5 31.5t34.5 82.5v44h-109q-53 0 -80.5 -20.5t-27.5 -56.5v-8q0 -34 25.5 -53.5zM95 721h296v-77h-296v77z" />
    <glyph glyph-name="Abreve" unicode="&#x102;" horiz-adv-x="550" 
d="M212 750h126l205 -750h-116l-33 135h-245l-33 -135h-108zM374 218l-102 417l-102 -417h204zM167 855.5q-38 34.5 -36 94.5h65q2 -33 22 -51t57 -18t57 18t22 51h63q2 -59 -36.5 -94t-106.5 -35q-69 0 -107 34.5z" />
    <glyph glyph-name="abreve" unicode="&#x103;" horiz-adv-x="487" 
d="M71 37q-43 42 -43 109v9q0 73 49.5 120.5t155.5 47.5h112v39q0 50 -26.5 79t-73.5 29q-48 0 -77.5 -29t-29.5 -79v-4l-98 17v2q0 49 25 91t72.5 67t112.5 25q92 0 143 -52t51 -143v-365h-86l-9 78h-4q-24 -38 -64 -60.5t-95 -22.5q-72 0 -115 42zM153.5 102.5
q25.5 -19.5 66.5 -19.5q56 0 90.5 31.5t34.5 82.5v44h-109q-53 0 -80.5 -20.5t-27.5 -56.5v-8q0 -34 25.5 -53.5zM136 655.5q-38 34.5 -36 94.5h64q2 -33 22 -51t57 -18t57 18t22 51h64q2 -59 -36.5 -94t-106.5 -35q-69 0 -107 34.5z" />
    <glyph glyph-name="Aogonek" unicode="&#x104;" horiz-adv-x="550" 
d="M212 750h126l205 -750q-35 -25 -48.5 -43t-13.5 -34q0 -20 18 -29.5t44 -9.5v-59q-64 -2 -99 16.5t-35 58.5q0 30 21 54t64 46h-67l-33 135h-245l-33 -135h-108zM374 218l-102 417l-102 -417h204z" />
    <glyph glyph-name="aogonek" unicode="&#x105;" horiz-adv-x="487" 
d="M71 37q-43 42 -43 109v9q0 73 49.5 120.5t155.5 47.5h112v39q0 50 -26.5 79t-73.5 29q-48 0 -77.5 -29t-29.5 -79v-4l-98 17v2q0 49 25 91t72.5 67t112.5 25q92 0 143 -52t51 -143v-365h1q-35 -25 -48.5 -43t-13.5 -34q0 -20 18 -29.5t44 -9.5v-59q-64 -2 -99 16.5
t-35 58.5q0 30 21 54t64 46h-38l-9 78h-4q-24 -38 -64 -60.5t-95 -22.5q-72 0 -115 42zM153.5 102.5q25.5 -19.5 66.5 -19.5q56 0 90.5 31.5t34.5 82.5v44h-109q-53 0 -80.5 -20.5t-27.5 -56.5v-8q0 -34 25.5 -53.5z" />
    <glyph glyph-name="Cacute" unicode="&#x106;" horiz-adv-x="562" 
d="M159 19.5q-55 29.5 -86 83.5t-31 124v297q0 70 31 123.5t86 83t125 29.5q69 0 123.5 -29.5t85 -83t30.5 -123.5v-51l-99 -13l-1 59q-2 68 -39.5 108.5t-99.5 40.5q-64 0 -103 -40t-39 -108v-290q0 -67 39 -107t103 -40q62 0 100 40t39 109l1 65l99 -13v-57
q0 -70 -30.5 -124t-85 -83.5t-123.5 -29.5q-70 0 -125 29.5zM259 950h121l-96 -129h-45z" />
    <glyph glyph-name="cacute" unicode="&#x107;" horiz-adv-x="495" 
d="M138.5 19q-50.5 28 -78.5 78t-28 115v127q0 65 28 115.5t78.5 78.5t115.5 28q62 0 110.5 -27.5t75.5 -74t27 -101.5v-2l-98 -18v5q0 54 -31 89.5t-83 35.5q-56 0 -89.5 -37.5t-33.5 -98.5v-112q0 -62 33.5 -99.5t89.5 -37.5q52 0 83 35.5t31 90.5v4l98 -17v-3
q0 -54 -27 -100.5t-75.5 -74t-110.5 -27.5q-65 0 -115.5 28zM224 750h121l-96 -129h-45z" />
    <glyph glyph-name="Ccircumflex" unicode="&#x108;" horiz-adv-x="562" 
d="M159 19.5q-55 29.5 -86 83.5t-31 124v297q0 70 31 123.5t86 83t125 29.5q69 0 123.5 -29.5t85 -83t30.5 -123.5v-51l-99 -13l-1 59q-2 68 -39.5 108.5t-99.5 40.5q-64 0 -103 -40t-39 -108v-290q0 -67 39 -107t103 -40q62 0 100 40t39 109l1 65l99 -13v-57
q0 -70 -30.5 -124t-85 -83.5t-123.5 -29.5q-70 0 -125 29.5zM428 821h-76l-69 77l-69 -77h-76l100 129h91z" />
    <glyph glyph-name="ccircumflex" unicode="&#x109;" horiz-adv-x="495" 
d="M138.5 19q-50.5 28 -78.5 78t-28 115v127q0 65 28 115.5t78.5 78.5t115.5 28q62 0 110.5 -27.5t75.5 -74t27 -101.5v-2l-98 -18v5q0 54 -31 89.5t-83 35.5q-56 0 -89.5 -37.5t-33.5 -98.5v-112q0 -62 33.5 -99.5t89.5 -37.5q52 0 83 35.5t31 90.5v4l98 -17v-3
q0 -54 -27 -100.5t-75.5 -74t-110.5 -27.5q-65 0 -115.5 28zM393 621h-76l-69 77l-69 -77h-76l100 129h91z" />
    <glyph glyph-name="Cdotaccent" unicode="&#x10a;" horiz-adv-x="562" 
d="M159 19.5q-55 29.5 -86 83.5t-31 124v297q0 70 31 123.5t86 83t125 29.5q69 0 123.5 -29.5t85 -83t30.5 -123.5v-51l-99 -13l-1 59q-2 68 -39.5 108.5t-99.5 40.5q-64 0 -103 -40t-39 -108v-290q0 -67 39 -107t103 -40q62 0 100 40t39 109l1 65l99 -13v-57
q0 -70 -30.5 -124t-85 -83.5t-123.5 -29.5q-70 0 -125 29.5zM239.5 841.5q-17.5 17.5 -17.5 43.5q0 27 17.5 44t43.5 17q27 0 44 -17t17 -44q0 -26 -17 -43.5t-44 -17.5q-26 0 -43.5 17.5z" />
    <glyph glyph-name="cdotaccent" unicode="&#x10b;" horiz-adv-x="495" 
d="M138.5 19q-50.5 28 -78.5 78t-28 115v127q0 65 28 115.5t78.5 78.5t115.5 28q62 0 110.5 -27.5t75.5 -74t27 -101.5v-2l-98 -18v5q0 54 -31 89.5t-83 35.5q-56 0 -89.5 -37.5t-33.5 -98.5v-112q0 -62 33.5 -99.5t89.5 -37.5q52 0 83 35.5t31 90.5v4l98 -17v-3
q0 -54 -27 -100.5t-75.5 -74t-110.5 -27.5q-65 0 -115.5 28zM204.5 641.5q-17.5 17.5 -17.5 43.5q0 27 17.5 44t43.5 17q27 0 44 -17t17 -44q0 -26 -17 -43.5t-44 -17.5q-26 0 -43.5 17.5z" />
    <glyph glyph-name="Ccaron" unicode="&#x10c;" horiz-adv-x="562" 
d="M159 19.5q-55 29.5 -86 83.5t-31 124v297q0 70 31 123.5t86 83t125 29.5q69 0 123.5 -29.5t85 -83t30.5 -123.5v-51l-99 -13l-1 59q-2 68 -39.5 108.5t-99.5 40.5q-64 0 -103 -40t-39 -108v-290q0 -67 39 -107t103 -40q62 0 100 40t39 109l1 65l99 -13v-57
q0 -70 -30.5 -124t-85 -83.5t-123.5 -29.5q-70 0 -125 29.5zM138 950h76l70 -77l69 77h75l-99 -129h-91z" />
    <glyph glyph-name="ccaron" unicode="&#x10d;" horiz-adv-x="495" 
d="M138.5 19q-50.5 28 -78.5 78t-28 115v127q0 65 28 115.5t78.5 78.5t115.5 28q62 0 110.5 -27.5t75.5 -74t27 -101.5v-2l-98 -18v5q0 54 -31 89.5t-83 35.5q-56 0 -89.5 -37.5t-33.5 -98.5v-112q0 -62 33.5 -99.5t89.5 -37.5q52 0 83 35.5t31 90.5v4l98 -17v-3
q0 -54 -27 -100.5t-75.5 -74t-110.5 -27.5q-65 0 -115.5 28zM103 750h76l70 -77l69 77h75l-99 -129h-91z" />
    <glyph glyph-name="Dcaron" unicode="&#x10e;" horiz-adv-x="555" 
d="M50 750h222q70 0 124.5 -29.5t85.5 -83.5t31 -124v-276q0 -70 -31 -124t-85.5 -83.5t-124.5 -29.5h-222v750zM373.5 133q39.5 40 39.5 106v273q0 65 -39.5 105t-101.5 40h-121v-564h121q62 0 101.5 40zM122 950h76l70 -77l69 77h75l-99 -129h-91z" />
    <glyph glyph-name="dcaron" unicode="&#x10f;" horiz-adv-x="600" 
d="M85 51q-51 61 -51 168v112q0 107 52 168t142 61q53 0 88.5 -22.5t57.5 -66.5h3v279h99v-750h-86l-10 81h-4q-49 -91 -152 -91q-88 0 -139 61zM342 123q35 38 35 102v101q0 64 -35 101.5t-90 37.5q-54 0 -86.5 -38t-32.5 -103v-98q0 -64 33.5 -102.5t86.5 -38.5
q54 0 89 38zM521 750h92l-39 -195h-53v195z" />
    <glyph glyph-name="Dcroat" unicode="&#x110;" horiz-adv-x="575" 
d="M70 337h-70v77h70v336h222q70 0 124.5 -29.5t85.5 -83.5t31 -124v-276q0 -70 -31 -124t-85.5 -83.5t-124.5 -29.5h-222v337zM393.5 133q39.5 40 39.5 106v273q0 65 -39.5 105t-101.5 40h-121v-243h125v-77h-125v-244h121q62 0 101.5 40z" />
    <glyph glyph-name="dcroat" unicode="&#x111;" horiz-adv-x="524" 
d="M85 51q-51 61 -51 168v112q0 107 52 168t142 61q53 0 88.5 -22.5t57.5 -66.5h3v152h-154v77h154v50h99v-50h53v-77h-53v-623h-86l-10 81h-4q-49 -91 -152 -91q-88 0 -139 61zM342 123q35 38 35 102v101q0 64 -35 101.5t-90 37.5q-54 0 -86.5 -38t-32.5 -103v-98
q0 -64 33.5 -102.5t86.5 -38.5q54 0 89 38z" />
    <glyph glyph-name="Emacron" unicode="&#x112;" horiz-adv-x="483" 
d="M50 750h396v-93h-295v-224h226v-92h-226v-248h297v-93h-398v750zM103 921h296v-77h-296v77z" />
    <glyph glyph-name="emacron" unicode="&#x113;" horiz-adv-x="506" 
d="M140 17.5q-51 27.5 -79.5 76.5t-28.5 112v130q0 65 28.5 116t79 79.5t113.5 28.5q64 0 114.5 -28.5t78.5 -79.5t28 -116v-87h-343v-42q0 -57 35 -93t92 -36q54 0 85.5 33t31.5 83v1l98 -7l-1 -11q-3 -51 -29.5 -94t-74 -68t-110.5 -25q-67 0 -118 27.5zM375 332v7
q0 59 -34 96t-88 37t-88 -37t-34 -96v-7h244zM105 721h296v-77h-296v77z" />
    <glyph glyph-name="Edotaccent" unicode="&#x116;" horiz-adv-x="483" 
d="M50 750h396v-93h-295v-224h226v-92h-226v-248h297v-93h-398v750zM207.5 841.5q-17.5 17.5 -17.5 43.5q0 27 17.5 44t43.5 17q27 0 44 -17t17 -44q0 -26 -17 -43.5t-44 -17.5q-26 0 -43.5 17.5z" />
    <glyph glyph-name="edotaccent" unicode="&#x117;" horiz-adv-x="506" 
d="M140 17.5q-51 27.5 -79.5 76.5t-28.5 112v130q0 65 28.5 116t79 79.5t113.5 28.5q64 0 114.5 -28.5t78.5 -79.5t28 -116v-87h-343v-42q0 -57 35 -93t92 -36q54 0 85.5 33t31.5 83v1l98 -7l-1 -11q-3 -51 -29.5 -94t-74 -68t-110.5 -25q-67 0 -118 27.5zM375 332v7
q0 59 -34 96t-88 37t-88 -37t-34 -96v-7h244zM209.5 641.5q-17.5 17.5 -17.5 43.5q0 27 17.5 44t43.5 17q27 0 44 -17t17 -44q0 -26 -17 -43.5t-44 -17.5q-26 0 -43.5 17.5z" />
    <glyph glyph-name="Eogonek" unicode="&#x118;" horiz-adv-x="483" 
d="M50 750h396v-93h-295v-224h226v-92h-226v-248h297v-93h-49q-35 -25 -48.5 -43t-13.5 -34q0 -20 18 -29.5t44 -9.5v-59q-64 -2 -99 16.5t-35 58.5q0 30 21 54t64 46h-300v750z" />
    <glyph glyph-name="eogonek" unicode="&#x119;" horiz-adv-x="506" 
d="M140 17.5q-51 27.5 -79.5 76.5t-28.5 112v130q0 65 28.5 116t79 79.5t113.5 28.5q64 0 114.5 -28.5t78.5 -79.5t28 -116v-87h-343v-42q0 -57 35 -93t92 -36q54 0 85.5 33t31.5 83v1l98 -7l-1 -11q-4 -60 -38.5 -106.5t-93.5 -67.5h1q-35 -25 -48.5 -43t-13.5 -34
q0 -20 18 -29.5t44 -9.5v-59q-64 -2 -99 16.5t-35 58.5q0 50 62 87h-11q-67 0 -118 27.5zM375 332v7q0 59 -34 96t-88 37t-88 -37t-34 -96v-7h244z" />
    <glyph glyph-name="Ecaron" unicode="&#x11a;" horiz-adv-x="483" 
d="M50 750h396v-93h-295v-224h226v-92h-226v-248h297v-93h-398v750zM106 950h76l70 -77l69 77h75l-99 -129h-91z" />
    <glyph glyph-name="ecaron" unicode="&#x11b;" horiz-adv-x="506" 
d="M140 17.5q-51 27.5 -79.5 76.5t-28.5 112v130q0 65 28.5 116t79 79.5t113.5 28.5q64 0 114.5 -28.5t78.5 -79.5t28 -116v-87h-343v-42q0 -57 35 -93t92 -36q54 0 85.5 33t31.5 83v1l98 -7l-1 -11q-3 -51 -29.5 -94t-74 -68t-110.5 -25q-67 0 -118 27.5zM375 332v7
q0 59 -34 96t-88 37t-88 -37t-34 -96v-7h244zM108 750h76l70 -77l69 77h75l-99 -129h-91z" />
    <glyph glyph-name="Gcircumflex" unicode="&#x11c;" horiz-adv-x="565" 
d="M158 21q-55 30 -85.5 84t-30.5 125v294q0 70 31 123.5t85.5 83t124.5 29.5q69 0 124 -29.5t86 -83t31 -122.5v-35l-101 -13v45q0 65 -39 105t-101 40t-101.5 -40t-39.5 -105v-292q0 -66 39.5 -106t101.5 -40t101 40t39 106v52h-122v94h223v-146q0 -71 -31 -125t-85.5 -84
t-124.5 -30t-125 30zM430 821h-76l-69 77l-69 -77h-76l100 129h91z" />
    <glyph glyph-name="gcircumflex" unicode="&#x11d;" horiz-adv-x="522" 
d="M96 -143.5q-54 46.5 -59 117.5l-1 4l96 17v-2q2 -43 32 -69t85 -26q63 0 94.5 35.5t31.5 101.5v80h-3q-22 -44 -58.5 -65t-90.5 -21q-85 0 -138 59t-53 165v78q0 107 52.5 168t142.5 61q53 0 89 -22.5t61 -66.5h3v79h95v-518q0 -101 -59.5 -161.5t-164.5 -60.5
q-101 0 -155 46.5zM340.5 157q34.5 38 34.5 102v67q0 64 -35 101.5t-90 37.5q-53 0 -85.5 -38t-32.5 -103v-64q0 -65 33 -103t87 -38t88.5 38zM406 621h-76l-69 77l-69 -77h-76l100 129h91z" />
    <glyph glyph-name="Gbreve" unicode="&#x11e;" horiz-adv-x="565" 
d="M158 21q-55 30 -85.5 84t-30.5 125v294q0 70 31 123.5t85.5 83t124.5 29.5q69 0 124 -29.5t86 -83t31 -122.5v-35l-101 -13v45q0 65 -39 105t-101 40t-101.5 -40t-39.5 -105v-292q0 -66 39.5 -106t101.5 -40t101 40t39 106v52h-122v94h223v-146q0 -71 -31 -125t-85.5 -84
t-124.5 -30t-125 30zM178 855.5q-38 34.5 -36 94.5h65q2 -33 22 -51t57 -18t57 18t22 51h63q2 -59 -36.5 -94t-106.5 -35q-69 0 -107 34.5z" />
    <glyph glyph-name="gbreve" unicode="&#x11f;" horiz-adv-x="522" 
d="M96 -143.5q-54 46.5 -59 117.5l-1 4l96 17v-2q2 -43 32 -69t85 -26q63 0 94.5 35.5t31.5 101.5v80h-3q-22 -44 -58.5 -65t-90.5 -21q-85 0 -138 59t-53 165v78q0 107 52.5 168t142.5 61q53 0 89 -22.5t61 -66.5h3v79h95v-518q0 -101 -59.5 -161.5t-164.5 -60.5
q-101 0 -155 46.5zM340.5 157q34.5 38 34.5 102v67q0 64 -35 101.5t-90 37.5q-53 0 -85.5 -38t-32.5 -103v-64q0 -65 33 -103t87 -38t88.5 38zM154 655.5q-38 34.5 -36 94.5h64q2 -33 22 -51t57 -18t57 18t22 51h64q2 -59 -36.5 -94t-106.5 -35q-69 0 -107 34.5z" />
    <glyph glyph-name="Gdotaccent" unicode="&#x120;" horiz-adv-x="565" 
d="M158 21q-55 30 -85.5 84t-30.5 125v294q0 70 31 123.5t85.5 83t124.5 29.5q69 0 124 -29.5t86 -83t31 -122.5v-35l-101 -13v45q0 65 -39 105t-101 40t-101.5 -40t-39.5 -105v-292q0 -66 39.5 -106t101.5 -40t101 40t39 106v52h-122v94h223v-146q0 -71 -31 -125t-85.5 -84
t-124.5 -30t-125 30zM241.5 841.5q-17.5 17.5 -17.5 43.5q0 27 17.5 44t43.5 17q27 0 44 -17t17 -44q0 -26 -17 -43.5t-44 -17.5q-26 0 -43.5 17.5z" />
    <glyph glyph-name="gdotaccent" unicode="&#x121;" horiz-adv-x="522" 
d="M96 -143.5q-54 46.5 -59 117.5l-1 4l96 17v-2q2 -43 32 -69t85 -26q63 0 94.5 35.5t31.5 101.5v80h-3q-22 -44 -58.5 -65t-90.5 -21q-85 0 -138 59t-53 165v78q0 107 52.5 168t142.5 61q53 0 89 -22.5t61 -66.5h3v79h95v-518q0 -101 -59.5 -161.5t-164.5 -60.5
q-101 0 -155 46.5zM340.5 157q34.5 38 34.5 102v67q0 64 -35 101.5t-90 37.5q-53 0 -85.5 -38t-32.5 -103v-64q0 -65 33 -103t87 -38t88.5 38zM217.5 641.5q-17.5 17.5 -17.5 43.5q0 27 17.5 44t43.5 17q27 0 44 -17t17 -44q0 -26 -17 -43.5t-44 -17.5q-26 0 -43.5 17.5z
" />
    <glyph glyph-name="uni0122" unicode="&#x122;" horiz-adv-x="565" 
d="M158 21q-55 30 -85.5 84t-30.5 125v294q0 70 31 123.5t85.5 83t124.5 29.5q69 0 124 -29.5t86 -83t31 -122.5v-35l-101 -13v45q0 65 -39 105t-101 40t-101.5 -40t-39.5 -105v-292q0 -66 39.5 -106t101.5 -40t101 40t39 106v52h-122v94h223v-146q0 -71 -31 -125t-85.5 -84
t-124.5 -30t-125 30zM328 -137l-44 -120l-37 14l32 88q-19 2 -30.5 15t-11.5 33q0 22 13.5 35.5t35.5 13.5q21 0 35 -13.5t14 -35.5q0 -10 -7 -30z" />
    <glyph glyph-name="uni0123" unicode="&#x123;" horiz-adv-x="522" 
d="M96 -143.5q-54 46.5 -59 117.5l-1 4l96 17v-2q2 -43 32 -69t85 -26q63 0 94.5 35.5t31.5 101.5v80h-3q-22 -44 -58.5 -65t-90.5 -21q-85 0 -138 59t-53 165v78q0 107 52.5 168t142.5 61q53 0 89 -22.5t61 -66.5h3v79h95v-518q0 -101 -59.5 -161.5t-164.5 -60.5
q-101 0 -155 46.5zM340.5 157q34.5 38 34.5 102v67q0 64 -35 101.5t-90 37.5q-53 0 -85.5 -38t-32.5 -103v-64q0 -65 33 -103t87 -38t88.5 38zM225 634.5q-14 13.5 -14 35.5q0 10 7 30l40 108l37 -14l-28 -76q19 -2 30.5 -15t11.5 -33q0 -22 -13.5 -35.5t-35.5 -13.5
q-21 0 -35 13.5z" />
    <glyph glyph-name="Hcircumflex" unicode="&#x124;" horiz-adv-x="575" 
d="M50 750h100v-324h275v324h100v-750h-100v333h-275v-333h-100v750zM433 821h-76l-69 77l-69 -77h-76l100 129h91z" />
    <glyph glyph-name="hcircumflex" unicode="&#x125;" horiz-adv-x="522" 
d="M48 750h99v-282h4q44 92 156 92q84 0 128 -49.5t44 -142.5v-368h-100v343q0 58 -27.5 89.5t-77.5 31.5q-56 0 -91.5 -39t-35.5 -104v-321h-99v750zM276 750h95l72 -129h-68l-52 78l-52 -78h-67z" />
    <glyph glyph-name="Hbar" unicode="&#x126;" horiz-adv-x="575" 
d="M50 563h-50v78h50v109h100v-109h275v109h100v-109h50v-78h-50v-563h-100v333h-275v-333h-100v563zM425 426v137h-275v-137h275z" />
    <glyph glyph-name="hbar" unicode="&#x127;" horiz-adv-x="522" 
d="M48 623h-63v77h63v50h99v-50h144v-77h-144v-155h4q44 92 156 92q84 0 128 -49.5t44 -142.5v-368h-100v343q0 58 -27.5 89.5t-77.5 31.5q-56 0 -91.5 -39t-35.5 -104v-321h-99v623z" />
    <glyph glyph-name="Itilde" unicode="&#x128;" horiz-adv-x="200" 
d="M50 750h100v-750h-100v750zM133 832.5q-20 8.5 -48 24.5q-14 8 -26.5 14t-21.5 6q-31 0 -31 -47h-62q-6 116 82 116q22 0 43.5 -8.5t45.5 -23.5q4 -2 15.5 -8.5t19.5 -9.5t15 -3q14 0 22.5 12t8.5 36h62q4 -117 -83 -117q-22 0 -42 8.5z" />
    <glyph glyph-name="itilde" unicode="&#x129;" horiz-adv-x="195" 
d="M147 0h-99v550h99v-550zM114.5 634q-13.5 9 -28.5 25q-11 11 -17.5 16t-13.5 5q-11 0 -18 -11.5t-7 -35.5h-56q-2 56 17.5 85t59.5 29q17 0 30.5 -9t29.5 -25q8 -8 15.5 -14.5t14.5 -6.5q11 0 18 11.5t7 35.5h57q2 -56 -17.5 -85t-60.5 -29q-17 0 -30.5 9z" />
    <glyph glyph-name="Imacron" unicode="&#x12a;" horiz-adv-x="200" 
d="M50 750h100v-750h-100v750zM-48 921h296v-77h-296v77z" />
    <glyph glyph-name="imacron" unicode="&#x12b;" horiz-adv-x="195" 
d="M147 0h-99v550h99v-550zM-23 721h240v-77h-240v77z" />
    <glyph glyph-name="Iogonek" unicode="&#x12e;" horiz-adv-x="200" 
d="M50 750h100v-750h1q-35 -25 -48.5 -43t-13.5 -34q0 -20 18 -29.5t44 -9.5v-59q-64 -2 -99 16.5t-35 58.5q0 30 21 54t64 46h-52v750z" />
    <glyph glyph-name="iogonek" unicode="&#x12f;" horiz-adv-x="195" 
d="M147 0h1q-35 -25 -48.5 -43t-13.5 -34q0 -20 18 -29.5t44 -9.5v-59q-64 -2 -99 16.5t-35 58.5q0 30 21 54t64 46h-51v550h99v-550zM54.5 641.5q-17.5 17.5 -17.5 43.5q0 27 17.5 44t43.5 17q27 0 44 -17t17 -44q0 -26 -17 -43.5t-44 -17.5q-26 0 -43.5 17.5z" />
    <glyph glyph-name="Idotaccent" unicode="&#x130;" horiz-adv-x="200" 
d="M50 750h100v-750h-100v750zM56.5 841.5q-17.5 17.5 -17.5 43.5q0 27 17.5 44t43.5 17q27 0 44 -17t17 -44q0 -26 -17 -43.5t-44 -17.5q-26 0 -43.5 17.5z" />
    <glyph glyph-name="dotlessi" unicode="&#x131;" horiz-adv-x="195" 
d="M147 0h-99v550h99v-550z" />
    <glyph glyph-name="IJ" unicode="&#x132;" horiz-adv-x="682" 
d="M50 750h100v-750h-100v750zM286.5 46q-56.5 54 -56.5 146v35l100 18v-53q0 -50 28.5 -77.5t74.5 -27.5t74 27.5t28 77.5v558h101v-558q0 -92 -56.5 -146t-146.5 -54t-146.5 54z" />
    <glyph glyph-name="ij" unicode="&#x133;" horiz-adv-x="391" 
d="M48 550h99v-550h-99v550zM53.5 641.5q-17.5 17.5 -17.5 43.5q0 27 17.5 44t43.5 17q27 0 44 -17t17 -44q0 -26 -17 -43.5t-44 -17.5q-26 0 -43.5 17.5zM126 -178v92q30 -6 48 -6q70 0 70 76v566h100v-577q0 -159 -147 -159q-28 0 -71 8zM250.5 641.5
q-17.5 17.5 -17.5 43.5q0 27 17.5 44t43.5 17q27 0 44 -17t17 -44q0 -26 -17 -43.5t-44 -17.5q-26 0 -43.5 17.5z" />
    <glyph glyph-name="Jcircumflex" unicode="&#x134;" horiz-adv-x="482" 
d="M86.5 46q-56.5 54 -56.5 146v35l100 18v-53q0 -50 28.5 -77.5t74.5 -27.5t74 27.5t28 77.5v558h101v-558q0 -92 -56.5 -146t-146.5 -54t-146.5 54zM532 821h-76l-69 77l-69 -77h-76l100 129h91z" />
    <glyph glyph-name="jcircumflex" unicode="&#x135;" horiz-adv-x="195" 
d="M-70 -176v92q25 -5 48 -5q70 0 70 76v563h100v-575q0 -159 -147 -159q-28 0 -71 8zM50 750h95l72 -129h-68l-52 78l-52 -78h-67z" />
    <glyph glyph-name="uni0136" unicode="&#x136;" horiz-adv-x="543" 
d="M50 750h100v-322l250 322h121l-276 -352l292 -398h-127l-260 359v-359h-100v750zM315 -137l-44 -120l-37 14l32 88q-19 2 -30.5 15t-11.5 33q0 22 13.5 35.5t35.5 13.5q21 0 35 -13.5t14 -35.5q0 -10 -7 -30z" />
    <glyph glyph-name="uni0137" unicode="&#x137;" horiz-adv-x="478" 
d="M48 750h99v-432h6l199 232h120l-231 -268l238 -282h-123l-204 243h-5v-243h-99v750zM288 -137l-44 -120l-37 14l32 88q-19 2 -30.5 15t-11.5 33q0 22 13.5 35.5t35.5 13.5q21 0 35 -13.5t14 -35.5q0 -10 -7 -30z" />
    <glyph glyph-name="kgreenlandic" unicode="&#x138;" horiz-adv-x="478" 
d="M48 550h99v-232h6l199 232h120l-231 -268l238 -282h-123l-204 243h-5v-243h-99v550z" />
    <glyph glyph-name="Lacute" unicode="&#x139;" horiz-adv-x="469" 
d="M50 750h101v-657h288v-93h-389v750zM78 950h121l-96 -129h-45z" />
    <glyph glyph-name="lacute" unicode="&#x13a;" horiz-adv-x="195" 
d="M48 750h99v-750h-99v750zM74 950h121l-96 -129h-45z" />
    <glyph glyph-name="uni013B" unicode="&#x13b;" horiz-adv-x="469" 
d="M50 750h101v-657h288v-93h-389v750zM275 -137l-44 -120l-37 14l32 88q-19 2 -30.5 15t-11.5 33q0 22 13.5 35.5t35.5 13.5q21 0 35 -13.5t14 -35.5q0 -10 -7 -30z" />
    <glyph glyph-name="uni013C" unicode="&#x13c;" horiz-adv-x="195" 
d="M48 750h99v-750h-99v750zM141 -137l-44 -120l-37 14l32 88q-19 2 -30.5 15t-11.5 33q0 22 13.5 35.5t35.5 13.5q21 0 35 -13.5t14 -35.5q0 -10 -7 -30z" />
    <glyph glyph-name="Lcaron" unicode="&#x13d;" horiz-adv-x="469" 
d="M278 750h93l-41 -155h-52v155zM50 750h101v-657h288v-93h-389v750z" />
    <glyph glyph-name="lcaron" unicode="&#x13e;" horiz-adv-x="271" 
d="M192 750h92l-39 -195h-53v195zM48 750h99v-750h-99v750z" />
    <glyph glyph-name="Ldot" unicode="&#x13f;" horiz-adv-x="469" 
d="M50 750h101v-657h288v-93h-389v750zM277 335q-17 17 -17 44q0 26 17 43t43 17q27 0 44 -17t17 -43q0 -27 -17 -44t-44 -17q-26 0 -43 17z" />
    <glyph glyph-name="ldot" unicode="&#x140;" horiz-adv-x="299" 
d="M48 750h99v-750h-99v750zM204 336q-17 17 -17 44q0 26 17 43t44 17q26 0 43 -17t17 -43q0 -27 -17 -44t-43 -17q-27 0 -44 17z" />
    <glyph glyph-name="Lslash" unicode="&#x141;" horiz-adv-x="494" 
d="M14 372l61 21v357h101v-322l152 52v-97l-152 -52v-238h288v-93h-389v296l-61 -21v97z" />
    <glyph glyph-name="lslash" unicode="&#x142;" horiz-adv-x="326" 
d="M28 372l76 26v352h100v-318l92 32v-88l-92 -32v-344h-100v310l-76 -26v88z" />
    <glyph glyph-name="Nacute" unicode="&#x143;" horiz-adv-x="581" 
d="M50 750h99l285 -541v541h97v-750h-99l-285 541v-541h-97v750zM267 950h121l-96 -129h-45z" />
    <glyph glyph-name="nacute" unicode="&#x144;" horiz-adv-x="522" 
d="M351.5 432.5q-27.5 31.5 -77.5 31.5q-56 0 -91.5 -37.5t-35.5 -101.5v-325h-99v550h96v-80h4q24 45 62 67.5t97 22.5q84 0 128 -49.5t44 -142.5v-368h-100v343q0 58 -27.5 89.5zM238 750h121l-96 -129h-45z" />
    <glyph glyph-name="uni0145" unicode="&#x145;" horiz-adv-x="581" 
d="M50 750h99l285 -541v541h97v-750h-99l-285 541v-541h-97v750zM334 -137l-44 -120l-37 14l32 88q-19 2 -30.5 15t-11.5 33q0 22 13.5 35.5t35.5 13.5q21 0 35 -13.5t14 -35.5q0 -10 -7 -30z" />
    <glyph glyph-name="uni0146" unicode="&#x146;" horiz-adv-x="522" 
d="M351.5 432.5q-27.5 31.5 -77.5 31.5q-56 0 -91.5 -37.5t-35.5 -101.5v-325h-99v550h96v-80h4q24 45 62 67.5t97 22.5q84 0 128 -49.5t44 -142.5v-368h-100v343q0 58 -27.5 89.5zM305 -137l-44 -120l-37 14l32 88q-19 2 -30.5 15t-11.5 33q0 22 13.5 35.5t35.5 13.5
q21 0 35 -13.5t14 -35.5q0 -10 -7 -30z" />
    <glyph glyph-name="Ncaron" unicode="&#x147;" horiz-adv-x="581" 
d="M50 750h99l285 -541v541h97v-750h-99l-285 541v-541h-97v750zM146 950h76l70 -77l69 77h75l-99 -129h-91z" />
    <glyph glyph-name="ncaron" unicode="&#x148;" horiz-adv-x="522" 
d="M351.5 432.5q-27.5 31.5 -77.5 31.5q-56 0 -91.5 -37.5t-35.5 -101.5v-325h-99v550h96v-80h4q24 45 62 67.5t97 22.5q84 0 128 -49.5t44 -142.5v-368h-100v343q0 58 -27.5 89.5zM117 750h76l70 -77l69 77h75l-99 -129h-91z" />
    <glyph glyph-name="napostrophe" unicode="&#x149;" horiz-adv-x="547" 
d="M376.5 432.5q-27.5 31.5 -77.5 31.5q-56 0 -91.5 -37.5t-35.5 -101.5v-325h-99v550h96v-80h4q24 45 62 67.5t97 22.5q84 0 128 -49.5t44 -142.5v-368h-100v343q0 58 -27.5 89.5zM122 694l-45 -121l-37 14l32 89q-20 2 -31.5 15.5t-11.5 33.5q0 22 14 36t36 14t36 -14
t14 -36q0 -13 -7 -31z" />
    <glyph glyph-name="Eng" unicode="&#x14a;" horiz-adv-x="581" 
d="M314 -176v92q23 -5 47 -5q71 0 71 76v28l-282 521v-536h-100v750h91l290 -536v536h100v-775q0 -74 -34.5 -116.5t-111.5 -42.5q-28 0 -71 8z" />
    <glyph glyph-name="eng" unicode="&#x14b;" horiz-adv-x="522" 
d="M261 -178v92q30 -6 48 -6q70 0 70 76v359q0 58 -27.5 89.5t-77.5 31.5q-56 0 -91.5 -37.5t-35.5 -101.5v-325h-99v550h96v-80h4q24 45 62 67.5t97 22.5q84 0 128 -49.5t44 -142.5v-395q0 -159 -147 -159q-28 0 -71 8z" />
    <glyph glyph-name="Omacron" unicode="&#x14c;" horiz-adv-x="565" 
d="M158 20q-55 30 -85.5 84t-30.5 125v293q0 70 30.5 124.5t85.5 84t125 29.5t124.5 -29.5t85 -84t30.5 -124.5v-293q0 -71 -30.5 -125t-85 -84t-124.5 -30t-125 30zM384 123q39 40 39 106v293q0 66 -39 106t-101 40t-101.5 -40t-39.5 -106v-293q0 -66 39.5 -106t101.5 -40
t101 40zM135 921h296v-77h-296v77z" />
    <glyph glyph-name="omacron" unicode="&#x14d;" horiz-adv-x="507" 
d="M139.5 18.5q-50.5 28.5 -79 79.5t-28.5 116v122q0 65 28.5 116t79 79.5t114.5 28.5t114 -28.5t78.5 -79.5t28.5 -116v-122q0 -65 -28.5 -116t-78.5 -79.5t-114 -28.5t-114.5 28.5zM165.5 120.5q33.5 -37.5 88.5 -37.5q54 0 87.5 37.5t33.5 98.5v112q0 61 -33.5 99
t-87.5 38q-55 0 -88.5 -38t-33.5 -99v-112q0 -61 33.5 -98.5zM106 721h296v-77h-296v77z" />
    <glyph glyph-name="Ohungarumlaut" unicode="&#x150;" horiz-adv-x="565" 
d="M158 20q-55 30 -85.5 84t-30.5 125v293q0 70 30.5 124.5t85.5 84t125 29.5t124.5 -29.5t85 -84t30.5 -124.5v-293q0 -71 -30.5 -125t-85 -84t-124.5 -30t-125 30zM384 123q39 40 39 106v293q0 66 -39 106t-101 40t-101.5 -40t-39.5 -106v-293q0 -66 39.5 -106t101.5 -40
t101 40zM336 950h121l-97 -129h-44zM198 950h121l-96 -129h-45z" />
    <glyph glyph-name="ohungarumlaut" unicode="&#x151;" horiz-adv-x="507" 
d="M139.5 18.5q-50.5 28.5 -79 79.5t-28.5 116v122q0 65 28.5 116t79 79.5t114.5 28.5t114 -28.5t78.5 -79.5t28.5 -116v-122q0 -65 -28.5 -116t-78.5 -79.5t-114 -28.5t-114.5 28.5zM165.5 120.5q33.5 -37.5 88.5 -37.5q54 0 87.5 37.5t33.5 98.5v112q0 61 -33.5 99
t-87.5 38q-55 0 -88.5 -38t-33.5 -99v-112q0 -61 33.5 -98.5zM307 750h121l-97 -129h-44zM169 750h121l-96 -129h-45z" />
    <glyph glyph-name="OE" unicode="&#x152;" horiz-adv-x="837" 
d="M158.5 29.5q-54.5 29.5 -85.5 84t-31 124.5v275q0 70 31 124t85.5 83.5t124.5 29.5h517v-93h-295v-224h226v-92h-226v-248h297v-93h-519q-70 0 -124.5 29.5zM404 93v564h-121q-62 0 -101.5 -40t-39.5 -105v-273q0 -66 39.5 -106t101.5 -40h121z" />
    <glyph glyph-name="oe" unicode="&#x153;" horiz-adv-x="850" 
d="M139.5 18.5q-50.5 28.5 -79 79.5t-28.5 116v122q0 65 28.5 116t79 79.5t114.5 28.5q55 0 99 -21.5t72 -61.5q28 39 72.5 61t99.5 22q64 0 114 -28.5t78.5 -79.5t28.5 -116v-80h-343v-49q0 -57 34.5 -93t91.5 -36q54 0 86 34t32 85v4l97 -8l-1 -13q-1 -52 -27.5 -95
t-75 -69t-111.5 -26q-58 0 -103.5 21.5t-73.5 60.5q-28 -39 -72 -60.5t-98 -21.5q-64 0 -114.5 28.5zM341.5 120.5q33.5 37.5 33.5 98.5v112q0 61 -33.5 99t-87.5 38q-55 0 -88.5 -38t-33.5 -99v-112q0 -61 33.5 -98.5t88.5 -37.5q54 0 87.5 37.5zM718 320v16
q0 61 -33.5 98.5t-87.5 37.5q-55 0 -88.5 -37.5t-33.5 -98.5v-16h243z" />
    <glyph glyph-name="Racute" unicode="&#x154;" horiz-adv-x="566" 
d="M50 750h223q113 0 179 -56.5t66 -176.5v-26q0 -74 -28.5 -125t-80.5 -78l127 -288h-111l-110 260q-26 -2 -42 -2h-123v-258h-100v750zM379 386q38 35 38 105v26q0 70 -38 105t-103 35h-126v-306h126q65 0 103 35zM231 950h121l-96 -129h-45z" />
    <glyph glyph-name="racute" unicode="&#x155;" horiz-adv-x="339" 
d="M48 550h96v-93h3q28 99 139 99q26 0 44 -7v-97h-41q-72 0 -107 -38.5t-35 -98.5v-315h-99v550zM151 750h121l-96 -129h-45z" />
    <glyph glyph-name="uni0156" unicode="&#x156;" horiz-adv-x="566" 
d="M50 750h223q113 0 179 -56.5t66 -176.5v-26q0 -74 -28.5 -125t-80.5 -78l127 -288h-111l-110 260q-26 -2 -42 -2h-123v-258h-100v750zM379 386q38 35 38 105v26q0 70 -38 105t-103 35h-126v-306h126q65 0 103 35zM327 -137l-44 -120l-37 14l32 88q-19 2 -30.5 15
t-11.5 33q0 22 13.5 35.5t35.5 13.5q21 0 35 -13.5t14 -35.5q0 -10 -7 -30z" />
    <glyph glyph-name="uni0157" unicode="&#x157;" horiz-adv-x="339" 
d="M48 550h96v-93h3q28 99 139 99q26 0 44 -7v-97h-41q-72 0 -107 -38.5t-35 -98.5v-315h-99v550zM144 -137l-44 -120l-37 14l32 88q-19 2 -30.5 15t-11.5 33q0 22 13.5 35.5t35.5 13.5q21 0 35 -13.5t14 -35.5q0 -10 -7 -30z" />
    <glyph glyph-name="Rcaron" unicode="&#x158;" horiz-adv-x="566" 
d="M50 750h223q113 0 179 -56.5t66 -176.5v-26q0 -74 -28.5 -125t-80.5 -78l127 -288h-111l-110 260q-26 -2 -42 -2h-123v-258h-100v750zM379 386q38 35 38 105v26q0 70 -38 105t-103 35h-126v-306h126q65 0 103 35zM109 950h76l70 -77l69 77h75l-99 -129h-91z" />
    <glyph glyph-name="rcaron" unicode="&#x159;" horiz-adv-x="339" 
d="M48 550h96v-93h3q28 99 139 99q26 0 44 -7v-97h-41q-72 0 -107 -38.5t-35 -98.5v-315h-99v550zM30 750h76l70 -77l69 77h75l-99 -129h-91z" />
    <glyph glyph-name="Sacute" unicode="&#x15a;" horiz-adv-x="547" 
d="M151.5 16q-55.5 26 -87 75.5t-31.5 117.5v16l100 15v-22q0 -63 39.5 -99.5t107.5 -36.5q63 0 98.5 32t35.5 86q0 47 -28 77t-86 49l-84 26q-83 26 -127.5 71t-44.5 129q0 95 62 151.5t165 56.5q105 0 167.5 -56.5t62.5 -155.5v-19l-100 -15v29q0 61 -36.5 93t-99.5 32
q-56 0 -88.5 -28.5t-32.5 -77.5q0 -43 27 -71t82 -45l75 -23q87 -27 136.5 -75.5t49.5 -140.5q0 -104 -65 -160.5t-170 -56.5q-72 0 -127.5 26zM250 950h121l-96 -129h-45z" />
    <glyph glyph-name="sacute" unicode="&#x15b;" horiz-adv-x="461" 
d="M82.5 36q-54.5 46 -54.5 121v4l99 17v-14q0 -41 28 -66t81 -25q47 0 72 19.5t25 55.5q0 28 -18 45.5t-55 28.5l-101 29q-60 17 -89.5 55t-29.5 92q0 78 53.5 120t135.5 42q83 0 134 -43.5t51 -115.5v-4l-98 -17v14q0 38 -24 60.5t-66 22.5q-38 0 -62 -18t-24 -52
q0 -54 62 -72l97 -28q66 -19 100 -55t34 -97q0 -77 -50.5 -121t-148.5 -44q-97 0 -151.5 46zM207 750h121l-96 -129h-45z" />
    <glyph glyph-name="Scircumflex" unicode="&#x15c;" horiz-adv-x="547" 
d="M151.5 16q-55.5 26 -87 75.5t-31.5 117.5v16l100 15v-22q0 -63 39.5 -99.5t107.5 -36.5q63 0 98.5 32t35.5 86q0 47 -28 77t-86 49l-84 26q-83 26 -127.5 71t-44.5 129q0 95 62 151.5t165 56.5q105 0 167.5 -56.5t62.5 -155.5v-19l-100 -15v29q0 61 -36.5 93t-99.5 32
q-56 0 -88.5 -28.5t-32.5 -77.5q0 -43 27 -71t82 -45l75 -23q87 -27 136.5 -75.5t49.5 -140.5q0 -104 -65 -160.5t-170 -56.5q-72 0 -127.5 26zM419 821h-76l-69 77l-69 -77h-76l100 129h91z" />
    <glyph glyph-name="scircumflex" unicode="&#x15d;" horiz-adv-x="461" 
d="M82.5 36q-54.5 46 -54.5 121v4l99 17v-14q0 -41 28 -66t81 -25q47 0 72 19.5t25 55.5q0 28 -18 45.5t-55 28.5l-101 29q-60 17 -89.5 55t-29.5 92q0 78 53.5 120t135.5 42q83 0 134 -43.5t51 -115.5v-4l-98 -17v14q0 38 -24 60.5t-66 22.5q-38 0 -62 -18t-24 -52
q0 -54 62 -72l97 -28q66 -19 100 -55t34 -97q0 -77 -50.5 -121t-148.5 -44q-97 0 -151.5 46zM375 621h-76l-69 77l-69 -77h-76l100 129h91z" />
    <glyph glyph-name="Scedilla" unicode="&#x15e;" horiz-adv-x="547" 
d="M151.5 16q-55.5 26 -87 75.5t-31.5 117.5v16l100 15v-22q0 -63 39.5 -99.5t107.5 -36.5q63 0 98.5 32t35.5 86q0 47 -28 77t-86 49l-84 26q-83 26 -127.5 71t-44.5 129q0 95 62 151.5t165 56.5q105 0 167.5 -56.5t62.5 -155.5v-19l-100 -15v29q0 61 -36.5 93t-99.5 32
q-56 0 -88.5 -28.5t-32.5 -77.5q0 -43 27 -71t82 -45l75 -23q87 -27 136.5 -75.5t49.5 -140.5q0 -104 -65 -160.5t-170 -56.5q-72 0 -127.5 26zM290 -199h-121l97 129h44z" />
    <glyph glyph-name="scedilla" unicode="&#x15f;" horiz-adv-x="461" 
d="M82.5 36q-54.5 46 -54.5 121v4l99 17v-14q0 -41 28 -66t81 -25q47 0 72 19.5t25 55.5q0 28 -18 45.5t-55 28.5l-101 29q-60 17 -89.5 55t-29.5 92q0 78 53.5 120t135.5 42q83 0 134 -43.5t51 -115.5v-4l-98 -17v14q0 38 -24 60.5t-66 22.5q-38 0 -62 -18t-24 -52
q0 -54 62 -72l97 -28q66 -19 100 -55t34 -97q0 -77 -50.5 -121t-148.5 -44q-97 0 -151.5 46zM246 -199h-121l97 129h44z" />
    <glyph glyph-name="Scaron" unicode="&#x160;" horiz-adv-x="547" 
d="M151.5 16q-55.5 26 -87 75.5t-31.5 117.5v16l100 15v-22q0 -63 39.5 -99.5t107.5 -36.5q63 0 98.5 32t35.5 86q0 47 -28 77t-86 49l-84 26q-83 26 -127.5 71t-44.5 129q0 95 62 151.5t165 56.5q105 0 167.5 -56.5t62.5 -155.5v-19l-100 -15v29q0 61 -36.5 93t-99.5 32
q-56 0 -88.5 -28.5t-32.5 -77.5q0 -43 27 -71t82 -45l75 -23q87 -27 136.5 -75.5t49.5 -140.5q0 -104 -65 -160.5t-170 -56.5q-72 0 -127.5 26zM129 950h76l70 -77l69 77h75l-99 -129h-91z" />
    <glyph glyph-name="scaron" unicode="&#x161;" horiz-adv-x="461" 
d="M82.5 36q-54.5 46 -54.5 121v4l99 17v-14q0 -41 28 -66t81 -25q47 0 72 19.5t25 55.5q0 28 -18 45.5t-55 28.5l-101 29q-60 17 -89.5 55t-29.5 92q0 78 53.5 120t135.5 42q83 0 134 -43.5t51 -115.5v-4l-98 -17v14q0 38 -24 60.5t-66 22.5q-38 0 -62 -18t-24 -52
q0 -54 62 -72l97 -28q66 -19 100 -55t34 -97q0 -77 -50.5 -121t-148.5 -44q-97 0 -151.5 46zM85 750h76l70 -77l69 77h75l-99 -129h-91z" />
    <glyph glyph-name="uni0162" unicode="&#x162;" horiz-adv-x="499" 
d="M200 657h-186v93h471v-93h-185v-657h-100v657zM266 -199h-121l97 129h44z" />
    <glyph glyph-name="uni0163" unicode="&#x163;" horiz-adv-x="358" 
d="M114 458h-97v92h97v113l99 32v-145h128v-92h-128v-458h-99v458zM176 -199h-121l97 129h44z" />
    <glyph glyph-name="Tcaron" unicode="&#x164;" horiz-adv-x="499" 
d="M200 657h-186v93h471v-93h-185v-657h-100v657zM105 950h76l70 -77l69 77h75l-99 -129h-91z" />
    <glyph glyph-name="tcaron" unicode="&#x165;" horiz-adv-x="366" 
d="M114 458h-97v92h97v113l99 32v-145h128v-92h-128v-458h-99v458zM278 750h91l-40 -158h-51v158z" />
    <glyph glyph-name="Tbar" unicode="&#x166;" horiz-adv-x="499" 
d="M200 332h-98v77h98v248h-186v93h471v-93h-185v-248h98v-77h-98v-332h-100v332z" />
    <glyph glyph-name="tbar" unicode="&#x167;" horiz-adv-x="358" 
d="M114 244h-84v77h84v137h-97v92h97v113l99 32v-145h128v-92h-128v-137h95v-77h-95v-244h-99v244z" />
    <glyph glyph-name="Utilde" unicode="&#x168;" horiz-adv-x="574" 
d="M162.5 19.5q-54.5 29.5 -85.5 83.5t-31 124v523h101v-521q0 -66 39 -106t101 -40t101.5 40t39.5 106v521h100v-523q0 -70 -31 -124t-85.5 -83.5t-124.5 -29.5t-124.5 29.5zM320 832.5q-20 8.5 -48 24.5q-14 8 -26.5 14t-21.5 6q-31 0 -31 -47h-62q-6 116 82 116
q22 0 43.5 -8.5t45.5 -23.5q4 -2 15.5 -8.5t19.5 -9.5t15 -3q14 0 22.5 12t8.5 36h62q4 -117 -83 -117q-22 0 -42 8.5z" />
    <glyph glyph-name="utilde" unicode="&#x169;" horiz-adv-x="516" 
d="M87 39.5q-43 49.5 -43 142.5v368h99v-343q0 -59 26.5 -90t76.5 -31q54 0 88.5 38t34.5 102v324h99v-550h-86l-10 82h-3q-26 -46 -63 -69t-94 -23q-82 0 -125 49.5zM291 632.5q-20 8.5 -48 24.5q-14 8 -26.5 14t-21.5 6q-31 0 -31 -47h-62q-6 116 82 116q22 0 43.5 -8.5
t45.5 -23.5q4 -2 15.5 -8.5t19.5 -9.5t15 -3q14 0 22.5 12t8.5 36h62q4 -117 -83 -117q-22 0 -42 8.5z" />
    <glyph glyph-name="Umacron" unicode="&#x16a;" horiz-adv-x="574" 
d="M162.5 19.5q-54.5 29.5 -85.5 83.5t-31 124v523h101v-521q0 -66 39 -106t101 -40t101.5 40t39.5 106v521h100v-523q0 -70 -31 -124t-85.5 -83.5t-124.5 -29.5t-124.5 29.5zM139 921h296v-77h-296v77z" />
    <glyph glyph-name="umacron" unicode="&#x16b;" horiz-adv-x="516" 
d="M87 39.5q-43 49.5 -43 142.5v368h99v-343q0 -59 26.5 -90t76.5 -31q54 0 88.5 38t34.5 102v324h99v-550h-86l-10 82h-3q-26 -46 -63 -69t-94 -23q-82 0 -125 49.5zM110 721h296v-77h-296v77z" />
    <glyph glyph-name="Ubreve" unicode="&#x16c;" horiz-adv-x="574" 
d="M162.5 19.5q-54.5 29.5 -85.5 83.5t-31 124v523h101v-521q0 -66 39 -106t101 -40t101.5 40t39.5 106v521h100v-523q0 -70 -31 -124t-85.5 -83.5t-124.5 -29.5t-124.5 29.5zM180 855.5q-38 34.5 -36 94.5h65q2 -33 22 -51t57 -18t57 18t22 51h63q2 -59 -36.5 -94
t-106.5 -35q-69 0 -107 34.5z" />
    <glyph glyph-name="ubreve" unicode="&#x16d;" horiz-adv-x="516" 
d="M87 39.5q-43 49.5 -43 142.5v368h99v-343q0 -59 26.5 -90t76.5 -31q54 0 88.5 38t34.5 102v324h99v-550h-86l-10 82h-3q-26 -46 -63 -69t-94 -23q-82 0 -125 49.5zM151 655.5q-38 34.5 -36 94.5h64q2 -33 22 -51t57 -18t57 18t22 51h64q2 -59 -36.5 -94t-106.5 -35
q-69 0 -107 34.5z" />
    <glyph glyph-name="Uring" unicode="&#x16e;" horiz-adv-x="574" 
d="M162.5 19.5q-54.5 29.5 -85.5 83.5t-31 124v523h101v-521q0 -66 39 -106t101 -40t101.5 40t39.5 106v521h100v-523q0 -70 -31 -124t-85.5 -83.5t-124.5 -29.5t-124.5 29.5zM219.5 833.5q-27.5 26.5 -27.5 65.5t27.5 65.5t68.5 26.5q40 0 67.5 -26.5t27.5 -65.5
t-27.5 -65.5t-67.5 -26.5q-41 0 -68.5 26.5zM318.5 867.5q12.5 12.5 12.5 31.5t-12.5 31.5t-30.5 12.5q-19 0 -31.5 -12.5t-12.5 -31.5t12.5 -31.5t31.5 -12.5q18 0 30.5 12.5z" />
    <glyph glyph-name="uring" unicode="&#x16f;" horiz-adv-x="516" 
d="M87 39.5q-43 49.5 -43 142.5v368h99v-343q0 -59 26.5 -90t76.5 -31q54 0 88.5 38t34.5 102v324h99v-550h-86l-10 82h-3q-26 -46 -63 -69t-94 -23q-82 0 -125 49.5zM190.5 633.5q-27.5 26.5 -27.5 65.5t27.5 65.5t68.5 26.5q40 0 67.5 -26.5t27.5 -65.5t-27.5 -65.5
t-67.5 -26.5q-41 0 -68.5 26.5zM289.5 667.5q12.5 12.5 12.5 31.5t-12.5 31.5t-30.5 12.5q-19 0 -31.5 -12.5t-12.5 -31.5t12.5 -31.5t31.5 -12.5q18 0 30.5 12.5z" />
    <glyph glyph-name="Uhungarumlaut" unicode="&#x170;" horiz-adv-x="574" 
d="M162.5 19.5q-54.5 29.5 -85.5 83.5t-31 124v523h101v-521q0 -66 39 -106t101 -40t101.5 40t39.5 106v521h100v-523q0 -70 -31 -124t-85.5 -83.5t-124.5 -29.5t-124.5 29.5zM341 950h121l-97 -129h-44zM203 950h121l-96 -129h-45z" />
    <glyph glyph-name="uhungarumlaut" unicode="&#x171;" horiz-adv-x="516" 
d="M87 39.5q-43 49.5 -43 142.5v368h99v-343q0 -59 26.5 -90t76.5 -31q54 0 88.5 38t34.5 102v324h99v-550h-86l-10 82h-3q-26 -46 -63 -69t-94 -23q-82 0 -125 49.5zM312 750h121l-97 -129h-44zM174 750h121l-96 -129h-45z" />
    <glyph glyph-name="Uogonek" unicode="&#x172;" horiz-adv-x="574" 
d="M162.5 19.5q-54.5 29.5 -85.5 83.5t-31 124v523h101v-521q0 -66 39 -106t101 -40t101.5 40t39.5 106v521h100v-523q0 -85 -45 -145.5t-120 -81.5q-34 -24 -47.5 -42t-13.5 -34q0 -20 18 -29.5t44 -9.5v-59q-64 -2 -99 16.5t-35 58.5q0 26 16 47.5t49 41.5h-8
q-70 0 -124.5 29.5z" />
    <glyph glyph-name="uogonek" unicode="&#x173;" horiz-adv-x="516" 
d="M87 39.5q-43 49.5 -43 142.5v368h99v-343q0 -59 26.5 -90t76.5 -31q54 0 88.5 38t34.5 102v324h99v-550h1q-35 -25 -48.5 -43t-13.5 -34q0 -20 18 -29.5t44 -9.5v-59q-64 -2 -99 16.5t-35 58.5q0 30 21 54t64 46h-38l-10 82h-3q-26 -46 -63 -69t-94 -23q-82 0 -125 49.5z
" />
    <glyph glyph-name="Wcircumflex" unicode="&#x174;" horiz-adv-x="739" 
d="M14 750h112l90 -604l99 604h115l98 -600l89 600h108l-140 -750h-117l-98 575l-99 -575h-116zM515 821h-76l-69 77l-69 -77h-76l100 129h91z" />
    <glyph glyph-name="wcircumflex" unicode="&#x175;" horiz-adv-x="767" 
d="M19 550h105l92 -432h4l116 432h99l116 -432h4l92 432h101l-131 -550h-126l-106 377h-3l-106 -377h-126zM529 621h-76l-69 77l-69 -77h-76l100 129h91z" />
    <glyph glyph-name="Ycircumflex" unicode="&#x176;" horiz-adv-x="528" 
d="M215 279l-214 471h114l152 -346l150 346h111l-213 -469v-281h-100v279zM409 821h-76l-69 77l-69 -77h-76l100 129h91z" />
    <glyph glyph-name="ycircumflex" unicode="&#x177;" horiz-adv-x="499" 
d="M197 33l-185 517h106l129 -383l135 383h105l-270 -730h-104zM395 621h-76l-69 77l-69 -77h-76l100 129h91z" />
    <glyph glyph-name="Ydieresis" unicode="&#x178;" horiz-adv-x="528" 
d="M215 279l-214 471h114l152 -346l150 346h111l-213 -469v-281h-100v279zM125.5 842.5q-17.5 17.5 -17.5 42.5q0 27 17 43.5t43 16.5q27 0 43.5 -16.5t16.5 -43.5q0 -26 -16.5 -43t-43.5 -17q-25 0 -42.5 17.5zM316.5 842.5q-17.5 17.5 -17.5 42.5q0 27 17 43.5t43 16.5
q27 0 43.5 -16.5t16.5 -43.5q0 -26 -16.5 -43t-43.5 -17q-25 0 -42.5 17.5z" />
    <glyph glyph-name="Zacute" unicode="&#x179;" horiz-adv-x="489" 
d="M31 72l303 585h-303v93h427v-71l-303 -586h303v-93h-427v72zM221 950h121l-96 -129h-45z" />
    <glyph glyph-name="zacute" unicode="&#x17a;" horiz-adv-x="440" 
d="M23 78l263 381h-259v91h384v-78l-263 -381h269v-91h-394v78zM197 750h121l-96 -129h-45z" />
    <glyph glyph-name="Zdotaccent" unicode="&#x17b;" horiz-adv-x="489" 
d="M31 72l303 585h-303v93h427v-71l-303 -586h303v-93h-427v72zM201.5 841.5q-17.5 17.5 -17.5 43.5q0 27 17.5 44t43.5 17q27 0 44 -17t17 -44q0 -26 -17 -43.5t-44 -17.5q-26 0 -43.5 17.5z" />
    <glyph glyph-name="zdotaccent" unicode="&#x17c;" horiz-adv-x="440" 
d="M23 78l263 381h-259v91h384v-78l-263 -381h269v-91h-394v78zM176.5 641.5q-17.5 17.5 -17.5 43.5q0 27 17.5 44t43.5 17q27 0 44 -17t17 -44q0 -26 -17 -43.5t-44 -17.5q-26 0 -43.5 17.5z" />
    <glyph glyph-name="Zcaron" unicode="&#x17d;" horiz-adv-x="489" 
d="M31 72l303 585h-303v93h427v-71l-303 -586h303v-93h-427v72zM100 950h76l70 -77l69 77h75l-99 -129h-91z" />
    <glyph glyph-name="zcaron" unicode="&#x17e;" horiz-adv-x="440" 
d="M23 78l263 381h-259v91h384v-78l-263 -381h269v-91h-394v78zM75 750h76l70 -77l69 77h75l-99 -129h-91z" />
    <glyph glyph-name="uni018F" unicode="&#x18f;" horiz-adv-x="565" 
d="M158.5 19.5q-54.5 29.5 -85.5 83.5t-31 124v131h381v164q0 66 -39.5 106t-101.5 40t-101 -40t-39 -106v-71l-100 13v58q0 70 30.5 124.5t85 84t124.5 29.5t125 -29.5t85.5 -84t30.5 -124.5v-295q0 -70 -31 -124t-85.5 -83.5t-124.5 -29.5q-69 0 -123.5 29.5zM383.5 123
q39.5 40 39.5 106v57h-281v-57q0 -66 39 -106t101 -40t101.5 40z" />
    <glyph glyph-name="florin" unicode="&#x192;" horiz-adv-x="401" 
d="M14 88h57q36 0 57.5 23t21.5 63v165h-136v93h136v147q0 81 49.5 128.5t130.5 47.5h57v-93h-57q-36 0 -57.5 -22.5t-21.5 -62.5v-145h136v-93h-136v-167q0 -82 -49.5 -129.5t-130.5 -47.5h-57v93z" />
    <glyph glyph-name="uni019D" unicode="&#x19d;" horiz-adv-x="581" 
d="M-68 -176v92q25 -5 48 -5q70 0 70 76v763h91l290 -536v536h100v-750h-91l-290 536v-561q0 -159 -147 -159q-28 0 -71 8z" />
    <glyph glyph-name="Ohorn" unicode="&#x1a0;" horiz-adv-x="564" 
d="M158 20q-55 30 -85.5 84t-30.5 125v293q0 70 30.5 124.5t85.5 84t125 29.5q22 0 66 -7q32 -6 46 -6q69 0 69 62q0 29 -10 60h81q11 -40 11 -69q0 -42 -23.5 -69.5t-70.5 -38.5q71 -60 71 -170v-293q0 -71 -30.5 -125t-85 -84t-124.5 -30t-125 30zM384 123q39 40 39 106
v293q0 66 -39 106t-101 40t-101.5 -40t-39.5 -106v-293q0 -66 39.5 -106t101.5 -40t101 40z" />
    <glyph glyph-name="ohorn" unicode="&#x1a1;" horiz-adv-x="512" 
d="M139.5 18.5q-50.5 28.5 -79 79.5t-28.5 116v122q0 65 28.5 116t79 79.5t114.5 28.5q29 0 60 -7q7 -1 20.5 -3t24.5 -2q65 0 65 60q0 25 -10 61h80q11 -40 11 -69q0 -41 -22.5 -69t-65.5 -40q58 -60 58 -155v-122q0 -65 -28.5 -116t-78.5 -79.5t-114 -28.5t-114.5 28.5z
M165.5 120.5q33.5 -37.5 88.5 -37.5q54 0 87.5 37.5t33.5 98.5v112q0 61 -33.5 99t-87.5 38q-55 0 -88.5 -38t-33.5 -99v-112q0 -61 33.5 -98.5z" />
    <glyph glyph-name="Uhorn" unicode="&#x1af;" horiz-adv-x="581" 
d="M162.5 19.5q-54.5 29.5 -85.5 83.5t-31 124v523h101v-521q0 -66 39 -106t101 -40t101.5 40t39.5 106v521h36q71 0 71 59q0 24 -10 60h80q11 -40 11 -69q0 -41 -22.5 -69t-65.5 -40v-464q0 -70 -31 -124t-85.5 -83.5t-124.5 -29.5t-124.5 29.5z" />
    <glyph glyph-name="uhorn" unicode="&#x1b0;" horiz-adv-x="542" 
d="M87 39.5q-43 49.5 -43 142.5v368h99v-343q0 -59 26.5 -90t76.5 -31q54 0 88.5 38t34.5 102v324h31q71 0 71 59q0 24 -10 60h80q11 -40 11 -69q0 -40 -21.5 -67.5t-62.5 -40.5v-492h-86l-10 82h-3q-26 -46 -63 -69t-94 -23q-82 0 -125 49.5z" />
    <glyph glyph-name="Gcaron" unicode="&#x1e6;" horiz-adv-x="565" 
d="M158 21q-55 30 -85.5 84t-30.5 125v294q0 70 31 123.5t85.5 83t124.5 29.5q69 0 124 -29.5t86 -83t31 -122.5v-35l-101 -13v45q0 65 -39 105t-101 40t-101.5 -40t-39.5 -105v-292q0 -66 39.5 -106t101.5 -40t101 40t39 106v52h-122v94h223v-146q0 -71 -31 -125t-85.5 -84
t-124.5 -30t-125 30zM140 950h76l70 -77l69 77h75l-99 -129h-91z" />
    <glyph glyph-name="gcaron" unicode="&#x1e7;" horiz-adv-x="522" 
d="M96 -143.5q-54 46.5 -59 117.5l-1 4l96 17v-2q2 -43 32 -69t85 -26q63 0 94.5 35.5t31.5 101.5v80h-3q-22 -44 -58.5 -65t-90.5 -21q-85 0 -138 59t-53 165v78q0 107 52.5 168t142.5 61q53 0 89 -22.5t61 -66.5h3v79h95v-518q0 -101 -59.5 -161.5t-164.5 -60.5
q-101 0 -155 46.5zM340.5 157q34.5 38 34.5 102v67q0 64 -35 101.5t-90 37.5q-53 0 -85.5 -38t-32.5 -103v-64q0 -65 33 -103t87 -38t88.5 38zM116 750h76l70 -77l69 77h75l-99 -129h-91z" />
    <glyph glyph-name="uni0218" unicode="&#x218;" horiz-adv-x="547" 
d="M151.5 16q-55.5 26 -87 75.5t-31.5 117.5v16l100 15v-22q0 -63 39.5 -99.5t107.5 -36.5q63 0 98.5 32t35.5 86q0 47 -28 77t-86 49l-84 26q-83 26 -127.5 71t-44.5 129q0 95 62 151.5t165 56.5q105 0 167.5 -56.5t62.5 -155.5v-19l-100 -15v29q0 61 -36.5 93t-99.5 32
q-56 0 -88.5 -28.5t-32.5 -77.5q0 -43 27 -71t82 -45l75 -23q87 -27 136.5 -75.5t49.5 -140.5q0 -104 -65 -160.5t-170 -56.5q-72 0 -127.5 26zM317 -137l-44 -120l-37 14l32 88q-19 2 -30.5 15t-11.5 33q0 22 13.5 35.5t35.5 13.5q21 0 35 -13.5t14 -35.5q0 -10 -7 -30z
" />
    <glyph glyph-name="uni0219" unicode="&#x219;" horiz-adv-x="461" 
d="M82.5 36q-54.5 46 -54.5 121v4l99 17v-14q0 -41 28 -66t81 -25q47 0 72 19.5t25 55.5q0 28 -18 45.5t-55 28.5l-101 29q-60 17 -89.5 55t-29.5 92q0 78 53.5 120t135.5 42q83 0 134 -43.5t51 -115.5v-4l-98 -17v14q0 38 -24 60.5t-66 22.5q-38 0 -62 -18t-24 -52
q0 -54 62 -72l97 -28q66 -19 100 -55t34 -97q0 -77 -50.5 -121t-148.5 -44q-97 0 -151.5 46zM273 -137l-44 -120l-37 14l32 88q-19 2 -30.5 15t-11.5 33q0 22 13.5 35.5t35.5 13.5q21 0 35 -13.5t14 -35.5q0 -10 -7 -30z" />
    <glyph glyph-name="uni021A" unicode="&#x21a;" horiz-adv-x="499" 
d="M200 657h-186v93h471v-93h-185v-657h-100v657zM293 -137l-44 -120l-37 14l32 88q-19 2 -30.5 15t-11.5 33q0 22 13.5 35.5t35.5 13.5q21 0 35 -13.5t14 -35.5q0 -10 -7 -30z" />
    <glyph glyph-name="uni021B" unicode="&#x21b;" horiz-adv-x="358" 
d="M114 458h-97v92h97v113l99 32v-145h128v-92h-128v-458h-99v458zM203 -137l-44 -120l-37 14l32 88q-19 2 -30.5 15t-11.5 33q0 22 13.5 35.5t35.5 13.5q21 0 35 -13.5t14 -35.5q0 -10 -7 -30z" />
    <glyph glyph-name="uni0232" unicode="&#x232;" horiz-adv-x="528" 
d="M215 279l-214 471h114l152 -346l150 346h111l-213 -469v-281h-100v279zM116 921h296v-77h-296v77z" />
    <glyph glyph-name="uni0233" unicode="&#x233;" horiz-adv-x="499" 
d="M197 33l-185 517h106l129 -383l135 383h105l-270 -730h-104zM102 721h296v-77h-296v77z" />
    <glyph glyph-name="uni0237" unicode="&#x237;" horiz-adv-x="195" 
d="M-70 -176v92q25 -5 48 -5q70 0 70 76v563h100v-575q0 -159 -147 -159q-28 0 -71 8z" />
    <glyph glyph-name="uni0259" unicode="&#x259;" horiz-adv-x="506" 
d="M366 532.5q51 -27.5 79.5 -76.5t28.5 -112v-130q0 -65 -28.5 -116t-79 -79.5t-113.5 -28.5q-64 0 -114.5 28.5t-78.5 79.5t-28 116v87h343v42q0 57 -35 93t-92 36q-54 0 -85.5 -33t-31.5 -83v-1l-98 7l1 11q3 51 29.5 94t74 68t110.5 25q67 0 118 -27.5zM165 115
q34 -37 88 -37t88 37t34 96v7h-244v-7q0 -59 34 -96z" />
    <glyph glyph-name="uni0272" unicode="&#x272;" horiz-adv-x="523" 
d="M-70 -178v92q30 -6 48 -6q70 0 70 76v566h96v-80h4q25 45 63 67.5t97 22.5q83 0 127 -49.5t44 -142.5v-368h-99v343q0 58 -28 89.5t-78 31.5q-56 0 -91 -37.5t-35 -101.5v-352q0 -159 -147 -159q-28 0 -71 8z" />
    <glyph glyph-name="circumflex" unicode="&#x2c6;" horiz-adv-x="390" 
d="M340 621h-76l-69 77l-69 -77h-76l100 129h91z" />
    <glyph glyph-name="caron" unicode="&#x2c7;" horiz-adv-x="390" 
d="M50 750h76l70 -77l69 77h75l-99 -129h-91z" />
    <glyph glyph-name="breve" unicode="&#x2d8;" horiz-adv-x="388" 
d="M87 655.5q-38 34.5 -36 94.5h64q2 -33 22 -51t57 -18t57 18t22 51h64q2 -59 -36.5 -94t-106.5 -35q-69 0 -107 34.5z" />
    <glyph glyph-name="dotaccent" unicode="&#x2d9;" horiz-adv-x="222" 
d="M67.5 641.5q-17.5 17.5 -17.5 43.5q0 27 17.5 44t43.5 17q27 0 44 -17t17 -44q0 -26 -17 -43.5t-44 -17.5q-26 0 -43.5 17.5z" />
    <glyph glyph-name="ring" unicode="&#x2da;" horiz-adv-x="291" 
d="M77.5 633.5q-27.5 26.5 -27.5 65.5t27.5 65.5t68.5 26.5q40 0 67.5 -26.5t27.5 -65.5t-27.5 -65.5t-67.5 -26.5q-41 0 -68.5 26.5zM176.5 667.5q12.5 12.5 12.5 31.5t-12.5 31.5t-30.5 12.5q-19 0 -31.5 -12.5t-12.5 -31.5t12.5 -31.5t31.5 -12.5q18 0 30.5 12.5z" />
    <glyph glyph-name="ogonek" unicode="&#x2db;" horiz-adv-x="234" 
d="M85 -157.5q-35 18.5 -35 58.5q0 31 23 56t72 49l39 -5q-35 -25 -48.5 -43t-13.5 -34q0 -20 18 -29.5t44 -9.5v-59q-64 -2 -99 16.5z" />
    <glyph glyph-name="tilde" unicode="&#x2dc;" horiz-adv-x="415" 
d="M240 632.5q-20 8.5 -48 24.5q-14 8 -26.5 14t-21.5 6q-31 0 -31 -47h-62q-6 116 82 116q22 0 43.5 -8.5t45.5 -23.5q4 -2 15.5 -8.5t19.5 -9.5t15 -3q14 0 22.5 12t8.5 36h62q4 -117 -83 -117q-22 0 -42 8.5z" />
    <glyph glyph-name="hungarumlaut" unicode="&#x2dd;" horiz-adv-x="379" 
d="M208 750h121l-97 -129h-44zM70 750h121l-96 -129h-45z" />
    <glyph glyph-name="gravecomb" unicode="&#x300;" 
d="M147 621l-97 129h121l20 -129h-44z" />
    <glyph glyph-name="acutecomb" unicode="&#x301;" 
d="M70 750h121l-96 -129h-45z" />
    <glyph glyph-name="uni0302" unicode="&#x302;" 
d="M340 621h-76l-69 77l-69 -77h-76l100 129h91z" />
    <glyph glyph-name="tildecomb" unicode="&#x303;" 
d="M240 632.5q-20 8.5 -48 24.5q-14 8 -26.5 14t-21.5 6q-31 0 -31 -47h-62q-6 116 82 116q22 0 43.5 -8.5t45.5 -23.5q4 -2 15.5 -8.5t19.5 -9.5t15 -3q14 0 22.5 12t8.5 36h62q4 -117 -83 -117q-22 0 -42 8.5z" />
    <glyph glyph-name="uni0304" unicode="&#x304;" 
d="M50 721h296v-77h-296v77z" />
    <glyph glyph-name="uni0306" unicode="&#x306;" 
d="M87 655.5q-38 34.5 -36 94.5h64q2 -33 22 -51t57 -18t57 18t22 51h64q2 -59 -36.5 -94t-106.5 -35q-69 0 -107 34.5z" />
    <glyph glyph-name="uni0307" unicode="&#x307;" 
d="M67.5 641.5q-17.5 17.5 -17.5 43.5q0 27 17.5 44t43.5 17q27 0 44 -17t17 -44q0 -26 -17 -43.5t-44 -17.5q-26 0 -43.5 17.5z" />
    <glyph glyph-name="uni0308" unicode="&#x308;" 
d="M67.5 642.5q-17.5 17.5 -17.5 42.5q0 27 17 43.5t43 16.5q27 0 43.5 -16.5t16.5 -43.5q0 -26 -16.5 -43t-43.5 -17q-25 0 -42.5 17.5zM258.5 642.5q-17.5 17.5 -17.5 42.5q0 27 17 43.5t43 16.5q27 0 43.5 -16.5t16.5 -43.5q0 -26 -16.5 -43t-43.5 -17q-25 0 -42.5 17.5z
" />
    <glyph glyph-name="hookabovecomb" unicode="&#x309;" 
d="M106 675q14 8 14 23q0 16 -16 24t-54 8v60h12q66 0 97.5 -20t31.5 -56q0 -59 -75 -70v-23h-54v45q30 1 44 9z" />
    <glyph glyph-name="uni030A" unicode="&#x30a;" 
d="M77.5 633.5q-27.5 26.5 -27.5 65.5t27.5 65.5t68.5 26.5q40 0 67.5 -26.5t27.5 -65.5t-27.5 -65.5t-67.5 -26.5q-41 0 -68.5 26.5zM176.5 667.5q12.5 12.5 12.5 31.5t-12.5 31.5t-30.5 12.5q-19 0 -31.5 -12.5t-12.5 -31.5t12.5 -31.5t31.5 -12.5q18 0 30.5 12.5z" />
    <glyph glyph-name="uni030B" unicode="&#x30b;" 
d="M208 750h121l-97 -129h-44zM70 750h121l-96 -129h-45z" />
    <glyph glyph-name="uni030C" unicode="&#x30c;" 
d="M50 750h76l70 -77l69 77h75l-99 -129h-91z" />
    <glyph glyph-name="uni0312" unicode="&#x312;" 
d="M64 634.5q-14 13.5 -14 35.5q0 10 7 30l40 108l37 -14l-28 -76q19 -2 30.5 -15t11.5 -33q0 -22 -13.5 -35.5t-35.5 -13.5q-21 0 -35 13.5z" />
    <glyph glyph-name="uni031B" unicode="&#x31b;" 
d="M50 550h11q71 0 71 59q0 24 -10 60h80q11 -40 11 -69q0 -55 -39.5 -86t-112.5 -31h-11v67z" />
    <glyph glyph-name="dotbelowcomb" unicode="&#x323;" 
d="M65 -150.5q-15 15.5 -15 38.5q0 24 15 39t39 15t39 -15t15 -39q0 -23 -15 -38.5t-39 -15.5t-39 15.5z" />
    <glyph glyph-name="uni0326" unicode="&#x326;" 
d="M143 -137l-44 -120l-37 14l32 88q-19 2 -30.5 15t-11.5 33q0 22 13.5 35.5t35.5 13.5q21 0 35 -13.5t14 -35.5q0 -10 -7 -30z" />
    <glyph glyph-name="uni0327" unicode="&#x327;" 
d="M171 -199h-121l97 129h44z" />
    <glyph glyph-name="uni0328" unicode="&#x328;" 
d="M85 -157.5q-35 18.5 -35 58.5q0 31 23 56t72 49l39 -5q-35 -25 -48.5 -43t-13.5 -34q0 -20 18 -29.5t44 -9.5v-59q-64 -2 -99 16.5z" />
    <glyph glyph-name="uni0394" unicode="&#x394;" horiz-adv-x="550" 
d="M338 750l205 -750h-535l204 750h126zM409 83l-137 545l-137 -545h274z" />
    <glyph glyph-name="uni03A9" unicode="&#x3a9;" horiz-adv-x="552" 
d="M401 730.5q55 -29.5 85.5 -84t30.5 -124.5v-268q0 -58 -20.5 -99.5t-58.5 -66.5h89v-88h-226v98q52 4 84 42.5t32 103.5v278q0 65 -39.5 105t-101.5 40t-101 -40t-39 -105v-278q0 -65 31.5 -103.5t83.5 -42.5v-98h-226v88h89q-37 25 -58 67t-21 99v268q0 70 31 124.5
t85.5 84t124.5 29.5t125 -29.5z" />
    <glyph glyph-name="uni03BC" unicode="&#x3bc;" horiz-adv-x="506" 
d="M48 550h99v-343q0 -59 26.5 -90t76.5 -31q54 0 88.5 38t34.5 102v324h99v-550h-86l-10 82h-3q-26 -46 -63 -69t-94 -23q-36 0 -69 11v-181h-99v730z" />
    <glyph glyph-name="pi" unicode="&#x3c0;" horiz-adv-x="613" 
d="M410 35q-37 39 -37 124v299h-143l-42 -458h-101l42 458h-115v92h582v-92h-126v-284q0 -39 17 -59.5t57 -20.5q19 0 37 3v-96q-25 -5 -60 -5q-74 0 -111 39z" />
    <glyph glyph-name="uni1E20" unicode="&#x1e20;" horiz-adv-x="565" 
d="M158 21q-55 30 -85.5 84t-30.5 125v294q0 70 31 123.5t85.5 83t124.5 29.5q69 0 124 -29.5t86 -83t31 -122.5v-35l-101 -13v45q0 65 -39 105t-101 40t-101.5 -40t-39.5 -105v-292q0 -66 39.5 -106t101.5 -40t101 40t39 106v52h-122v94h223v-146q0 -71 -31 -125t-85.5 -84
t-124.5 -30t-125 30zM137 921h296v-77h-296v77z" />
    <glyph glyph-name="uni1E21" unicode="&#x1e21;" horiz-adv-x="522" 
d="M96 -143.5q-54 46.5 -59 117.5l-1 4l96 17v-2q2 -43 32 -69t85 -26q63 0 94.5 35.5t31.5 101.5v80h-3q-22 -44 -58.5 -65t-90.5 -21q-85 0 -138 59t-53 165v78q0 107 52.5 168t142.5 61q53 0 89 -22.5t61 -66.5h3v79h95v-518q0 -101 -59.5 -161.5t-164.5 -60.5
q-101 0 -155 46.5zM340.5 157q34.5 38 34.5 102v67q0 64 -35 101.5t-90 37.5q-53 0 -85.5 -38t-32.5 -103v-64q0 -65 33 -103t87 -38t88.5 38zM113 721h296v-77h-296v77z" />
    <glyph glyph-name="Wgrave" unicode="&#x1e80;" horiz-adv-x="739" 
d="M14 750h112l90 -604l99 604h115l98 -600l89 600h108l-140 -750h-117l-98 575l-99 -575h-116zM362 821l-97 129h121l20 -129h-44z" />
    <glyph glyph-name="wgrave" unicode="&#x1e81;" horiz-adv-x="767" 
d="M19 550h105l92 -432h4l116 432h99l116 -432h4l92 432h101l-131 -550h-126l-106 377h-3l-106 -377h-126zM376 621l-97 129h121l20 -129h-44z" />
    <glyph glyph-name="Wacute" unicode="&#x1e82;" horiz-adv-x="739" 
d="M14 750h112l90 -604l99 604h115l98 -600l89 600h108l-140 -750h-117l-98 575l-99 -575h-116zM346 950h121l-96 -129h-45z" />
    <glyph glyph-name="wacute" unicode="&#x1e83;" horiz-adv-x="767" 
d="M19 550h105l92 -432h4l116 432h99l116 -432h4l92 432h101l-131 -550h-126l-106 377h-3l-106 -377h-126zM360 750h121l-96 -129h-45z" />
    <glyph glyph-name="Wdieresis" unicode="&#x1e84;" horiz-adv-x="739" 
d="M14 750h112l90 -604l99 604h115l98 -600l89 600h108l-140 -750h-117l-98 575l-99 -575h-116zM231.5 842.5q-17.5 17.5 -17.5 42.5q0 27 17 43.5t43 16.5q27 0 43.5 -16.5t16.5 -43.5q0 -26 -16.5 -43t-43.5 -17q-25 0 -42.5 17.5zM422.5 842.5q-17.5 17.5 -17.5 42.5
q0 27 17 43.5t43 16.5q27 0 43.5 -16.5t16.5 -43.5q0 -26 -16.5 -43t-43.5 -17q-25 0 -42.5 17.5z" />
    <glyph glyph-name="wdieresis" unicode="&#x1e85;" horiz-adv-x="767" 
d="M19 550h105l92 -432h4l116 432h99l116 -432h4l92 432h101l-131 -550h-126l-106 377h-3l-106 -377h-126zM245.5 642.5q-17.5 17.5 -17.5 42.5q0 27 17 43.5t43 16.5q27 0 43.5 -16.5t16.5 -43.5q0 -26 -16.5 -43t-43.5 -17q-25 0 -42.5 17.5zM436.5 642.5
q-17.5 17.5 -17.5 42.5q0 27 17 43.5t43 16.5q27 0 43.5 -16.5t16.5 -43.5q0 -26 -16.5 -43t-43.5 -17q-25 0 -42.5 17.5z" />
    <glyph glyph-name="uni1E9E" unicode="&#x1e9e;" horiz-adv-x="594" 
d="M407 116.5q51 34.5 51 99.5v3q0 56 -39 89.5t-103 33.5h-58v87h50q57 0 87.5 31t30.5 83v2q0 58 -36.5 90t-101.5 32q-68 0 -138 -32v-635h-100v700q61 30 123 45t115 15q109 0 173.5 -55t64.5 -149v-3q0 -56 -25 -99t-68 -65q56 -22 90.5 -66t34.5 -115v-4
q0 -104 -74.5 -159t-225.5 -55v92q98 0 149 34.5z" />
    <glyph glyph-name="uni1EA0" unicode="&#x1ea0;" horiz-adv-x="550" 
d="M212 750h126l205 -750h-116l-33 135h-245l-33 -135h-108zM374 218l-102 417l-102 -417h204zM232 -150.5q-15 15.5 -15 38.5q0 24 15 39t39 15t39 -15t15 -39q0 -23 -15 -38.5t-39 -15.5t-39 15.5z" />
    <glyph glyph-name="uni1EA1" unicode="&#x1ea1;" horiz-adv-x="487" 
d="M71 37q-43 42 -43 109v9q0 73 49.5 120.5t155.5 47.5h112v39q0 50 -26.5 79t-73.5 29q-48 0 -77.5 -29t-29.5 -79v-4l-98 17v2q0 49 25 91t72.5 67t112.5 25q92 0 143 -52t51 -143v-365h-86l-9 78h-4q-24 -38 -64 -60.5t-95 -22.5q-72 0 -115 42zM153.5 102.5
q25.5 -19.5 66.5 -19.5q56 0 90.5 31.5t34.5 82.5v44h-109q-53 0 -80.5 -20.5t-27.5 -56.5v-8q0 -34 25.5 -53.5zM204 -150.5q-15 15.5 -15 38.5q0 24 15 39t39 15t39 -15t15 -39q0 -23 -15 -38.5t-39 -15.5t-39 15.5z" />
    <glyph glyph-name="uni1EA2" unicode="&#x1ea2;" horiz-adv-x="550" 
d="M212 750h126l205 -750h-116l-33 135h-245l-33 -135h-108zM374 218l-102 417l-102 -417h204zM287 875q14 8 14 23q0 16 -16 24t-54 8v60h12q66 0 97.5 -20t31.5 -56q0 -59 -75 -70v-23h-54v45q30 1 44 9z" />
    <glyph glyph-name="uni1EA3" unicode="&#x1ea3;" horiz-adv-x="487" 
d="M71 37q-43 42 -43 109v9q0 73 49.5 120.5t155.5 47.5h112v39q0 50 -26.5 79t-73.5 29q-48 0 -77.5 -29t-29.5 -79v-4l-98 17v2q0 49 25 91t72.5 67t112.5 25q92 0 143 -52t51 -143v-365h-86l-9 78h-4q-24 -38 -64 -60.5t-95 -22.5q-72 0 -115 42zM153.5 102.5
q25.5 -19.5 66.5 -19.5q56 0 90.5 31.5t34.5 82.5v44h-109q-53 0 -80.5 -20.5t-27.5 -56.5v-8q0 -34 25.5 -53.5zM256 675q14 8 14 23q0 16 -16 24t-54 8v60h12q66 0 97.5 -20t31.5 -56q0 -59 -75 -70v-23h-54v45q30 1 44 9z" />
    <glyph glyph-name="uni1EA4" unicode="&#x1ea4;" horiz-adv-x="550" 
d="M212 750h126l205 -750h-116l-33 135h-245l-33 -135h-108zM374 218l-102 417l-102 -417h204zM419 821h-76l-69 77l-69 -77h-76l100 129h91zM391 1047h109l-88 -115h-39z" />
    <glyph glyph-name="uni1EA5" unicode="&#x1ea5;" horiz-adv-x="487" 
d="M71 37q-43 42 -43 109v9q0 73 49.5 120.5t155.5 47.5h112v39q0 50 -26.5 79t-73.5 29q-48 0 -77.5 -29t-29.5 -79v-4l-98 17v2q0 49 25 91t72.5 67t112.5 25q92 0 143 -52t51 -143v-365h-86l-9 78h-4q-24 -38 -64 -60.5t-95 -22.5q-72 0 -115 42zM153.5 102.5
q25.5 -19.5 66.5 -19.5q56 0 90.5 31.5t34.5 82.5v44h-109q-53 0 -80.5 -20.5t-27.5 -56.5v-8q0 -34 25.5 -53.5zM388 621h-76l-69 77l-69 -77h-76l100 129h91zM360 847h109l-88 -115h-39z" />
    <glyph glyph-name="uni1EA6" unicode="&#x1ea6;" horiz-adv-x="550" 
d="M212 750h126l205 -750h-116l-33 135h-245l-33 -135h-108zM374 218l-102 417l-102 -417h204zM229 950h91l99 -129h-76l-69 77l-69 -77h-76zM328 1047h109l18 -115h-39z" />
    <glyph glyph-name="uni1EA7" unicode="&#x1ea7;" horiz-adv-x="487" 
d="M71 37q-43 42 -43 109v9q0 73 49.5 120.5t155.5 47.5h112v39q0 50 -26.5 79t-73.5 29q-48 0 -77.5 -29t-29.5 -79v-4l-98 17v2q0 49 25 91t72.5 67t112.5 25q92 0 143 -52t51 -143v-365h-86l-9 78h-4q-24 -38 -64 -60.5t-95 -22.5q-72 0 -115 42zM153.5 102.5
q25.5 -19.5 66.5 -19.5q56 0 90.5 31.5t34.5 82.5v44h-109q-53 0 -80.5 -20.5t-27.5 -56.5v-8q0 -34 25.5 -53.5zM198 750h91l99 -129h-76l-69 77l-69 -77h-76zM297 847h109l18 -115h-39z" />
    <glyph glyph-name="uni1EA8" unicode="&#x1ea8;" horiz-adv-x="550" 
d="M212 750h126l205 -750h-116l-33 135h-245l-33 -135h-108zM374 218l-102 417l-102 -417h204zM229 950h91l99 -129h-76l-69 77l-69 -77h-76zM437 998q0 31 -68 31v58h11q65 0 95.5 -19.5t30.5 -54.5q0 -29 -19 -46t-54 -22v-23h-52v44q56 3 56 32z" />
    <glyph glyph-name="uni1EA9" unicode="&#x1ea9;" horiz-adv-x="487" 
d="M71 37q-43 42 -43 109v9q0 73 49.5 120.5t155.5 47.5h112v39q0 50 -26.5 79t-73.5 29q-48 0 -77.5 -29t-29.5 -79v-4l-98 17v2q0 49 25 91t72.5 67t112.5 25q92 0 143 -52t51 -143v-365h-86l-9 78h-4q-24 -38 -64 -60.5t-95 -22.5q-72 0 -115 42zM153.5 102.5
q25.5 -19.5 66.5 -19.5q56 0 90.5 31.5t34.5 82.5v44h-109q-53 0 -80.5 -20.5t-27.5 -56.5v-8q0 -34 25.5 -53.5zM198 750h91l99 -129h-76l-69 77l-69 -77h-76zM406 798q0 31 -68 31v58h11q65 0 95.5 -19.5t30.5 -54.5q0 -29 -19 -46t-54 -22v-23h-52v44q56 3 56 32z" />
    <glyph glyph-name="uni1EAA" unicode="&#x1eaa;" horiz-adv-x="550" 
d="M212 750h126l205 -750h-116l-33 135h-245l-33 -135h-108zM374 218l-102 417l-102 -417h204zM228 950h91l100 -129h-76l-69 77l-70 -77h-75zM303 990q-19 8 -43 22q-32 19 -45 19q-28 0 -28 -44h-57q-4 107 76 107q20 0 39 -8t43 -22q32 -19 45 -19t20.5 10.5t7.5 32.5h57
q4 -106 -76 -106q-20 0 -39 8z" />
    <glyph glyph-name="uni1EAB" unicode="&#x1eab;" horiz-adv-x="487" 
d="M71 37q-43 42 -43 109v9q0 73 49.5 120.5t155.5 47.5h112v39q0 50 -26.5 79t-73.5 29q-48 0 -77.5 -29t-29.5 -79v-4l-98 17v2q0 49 25 91t72.5 67t112.5 25q92 0 143 -52t51 -143v-365h-86l-9 78h-4q-24 -38 -64 -60.5t-95 -22.5q-72 0 -115 42zM153.5 102.5
q25.5 -19.5 66.5 -19.5q56 0 90.5 31.5t34.5 82.5v44h-109q-53 0 -80.5 -20.5t-27.5 -56.5v-8q0 -34 25.5 -53.5zM198 750h91l100 -129h-76l-69 77l-70 -77h-75zM273 790q-19 8 -43 22q-32 19 -45 19q-28 0 -28 -44h-57q-4 107 76 107q20 0 39 -8t43 -22q32 -19 45 -19
t20.5 10.5t7.5 32.5h57q4 -106 -76 -106q-20 0 -39 8z" />
    <glyph glyph-name="uni1EAC" unicode="&#x1eac;" horiz-adv-x="550" 
d="M212 750h126l205 -750h-116l-33 135h-245l-33 -135h-108zM374 218l-102 417l-102 -417h204zM232 -150.5q-15 15.5 -15 38.5q0 24 15 39t39 15t39 -15t15 -39q0 -23 -15 -38.5t-39 -15.5t-39 15.5zM419 821h-76l-69 77l-69 -77h-76l100 129h91z" />
    <glyph glyph-name="uni1EAD" unicode="&#x1ead;" horiz-adv-x="487" 
d="M71 37q-43 42 -43 109v9q0 73 49.5 120.5t155.5 47.5h112v39q0 50 -26.5 79t-73.5 29q-48 0 -77.5 -29t-29.5 -79v-4l-98 17v2q0 49 25 91t72.5 67t112.5 25q92 0 143 -52t51 -143v-365h-86l-9 78h-4q-24 -38 -64 -60.5t-95 -22.5q-72 0 -115 42zM153.5 102.5
q25.5 -19.5 66.5 -19.5q56 0 90.5 31.5t34.5 82.5v44h-109q-53 0 -80.5 -20.5t-27.5 -56.5v-8q0 -34 25.5 -53.5zM204 -150.5q-15 15.5 -15 38.5q0 24 15 39t39 15t39 -15t15 -39q0 -23 -15 -38.5t-39 -15.5t-39 15.5zM388 621h-76l-69 77l-69 -77h-76l100 129h91z" />
    <glyph glyph-name="uni1EAE" unicode="&#x1eae;" horiz-adv-x="550" 
d="M212 750h126l205 -750h-116l-33 135h-245l-33 -135h-108zM374 218l-102 417l-102 -417h204zM167 855.5q-38 34.5 -36 94.5h64q2 -33 22 -51t57 -18t57 18t22 51h64q2 -59 -36.5 -94t-106.5 -35q-69 0 -107 34.5zM263 1075h108l-88 -115h-39z" />
    <glyph glyph-name="uni1EAF" unicode="&#x1eaf;" horiz-adv-x="487" 
d="M71 37q-43 42 -43 109v9q0 73 49.5 120.5t155.5 47.5h112v39q0 50 -26.5 79t-73.5 29q-48 0 -77.5 -29t-29.5 -79v-4l-98 17v2q0 49 25 91t72.5 67t112.5 25q92 0 143 -52t51 -143v-365h-86l-9 78h-4q-24 -38 -64 -60.5t-95 -22.5q-72 0 -115 42zM153.5 102.5
q25.5 -19.5 66.5 -19.5q56 0 90.5 31.5t34.5 82.5v44h-109q-53 0 -80.5 -20.5t-27.5 -56.5v-8q0 -34 25.5 -53.5zM136 655.5q-38 34.5 -36 94.5h64q2 -33 22 -51t57 -18t57 18t22 51h64q2 -59 -36.5 -94t-106.5 -35q-69 0 -107 34.5zM232 875h108l-88 -115h-39z" />
    <glyph glyph-name="uni1EB0" unicode="&#x1eb0;" horiz-adv-x="550" 
d="M212 750h126l205 -750h-116l-33 135h-245l-33 -135h-108zM374 218l-102 417l-102 -417h204zM167 855.5q-38 34.5 -36 94.5h64q2 -33 22 -51t57 -18t57 18t22 51h64q2 -59 -36.5 -94t-106.5 -35q-69 0 -107 34.5zM265 960l-87 115h108l19 -115h-40z" />
    <glyph glyph-name="uni1EB1" unicode="&#x1eb1;" horiz-adv-x="487" 
d="M71 37q-43 42 -43 109v9q0 73 49.5 120.5t155.5 47.5h112v39q0 50 -26.5 79t-73.5 29q-48 0 -77.5 -29t-29.5 -79v-4l-98 17v2q0 49 25 91t72.5 67t112.5 25q92 0 143 -52t51 -143v-365h-86l-9 78h-4q-24 -38 -64 -60.5t-95 -22.5q-72 0 -115 42zM153.5 102.5
q25.5 -19.5 66.5 -19.5q56 0 90.5 31.5t34.5 82.5v44h-109q-53 0 -80.5 -20.5t-27.5 -56.5v-8q0 -34 25.5 -53.5zM136 655.5q-38 34.5 -36 94.5h64q2 -33 22 -51t57 -18t57 18t22 51h64q2 -59 -36.5 -94t-106.5 -35q-69 0 -107 34.5zM234 760l-87 115h108l19 -115h-40z" />
    <glyph glyph-name="uni1EB2" unicode="&#x1eb2;" horiz-adv-x="550" 
d="M212 750h126l205 -750h-116l-33 135h-245l-33 -135h-108zM374 218l-102 417l-102 -417h204zM167 855.5q-38 34.5 -36 94.5h64q2 -33 22 -51t57 -18t57 18t22 51h64q2 -59 -36.5 -94t-106.5 -35q-69 0 -107 34.5zM304 1038q0 15 -15.5 23t-51.5 8v57h11q63 0 93 -19.5
t30 -53.5q0 -29 -18.5 -45.5t-52.5 -21.5v-22h-52v43q56 3 56 31z" />
    <glyph glyph-name="uni1EB3" unicode="&#x1eb3;" horiz-adv-x="487" 
d="M71 37q-43 42 -43 109v9q0 73 49.5 120.5t155.5 47.5h112v39q0 50 -26.5 79t-73.5 29q-48 0 -77.5 -29t-29.5 -79v-4l-98 17v2q0 49 25 91t72.5 67t112.5 25q92 0 143 -52t51 -143v-365h-86l-9 78h-4q-24 -38 -64 -60.5t-95 -22.5q-72 0 -115 42zM153.5 102.5
q25.5 -19.5 66.5 -19.5q56 0 90.5 31.5t34.5 82.5v44h-109q-53 0 -80.5 -20.5t-27.5 -56.5v-8q0 -34 25.5 -53.5zM136 655.5q-38 34.5 -36 94.5h64q2 -33 22 -51t57 -18t57 18t22 51h64q2 -59 -36.5 -94t-106.5 -35q-69 0 -107 34.5zM273 838q0 15 -15.5 23t-51.5 8v57h11
q63 0 93 -19.5t30 -53.5q0 -29 -18.5 -45.5t-52.5 -21.5v-22h-52v43q56 3 56 31z" />
    <glyph glyph-name="uni1EB4" unicode="&#x1eb4;" horiz-adv-x="550" 
d="M212 750h126l205 -750h-116l-33 135h-245l-33 -135h-108zM374 218l-102 417l-102 -417h204zM164.5 855.5q-38.5 34.5 -37.5 94.5h65q1 -33 21.5 -51t57.5 -18t57 18t21 51h65q1 -60 -37 -94.5t-106 -34.5t-106.5 34.5zM303 991.5q-20 8.5 -44 23.5q-33 20 -47 20
q-30 0 -30 -46h-58q-4 110 79 110q20 0 39.5 -8t44.5 -23q14 -8 26.5 -14t21.5 -6q13 0 21.5 11.5t8.5 34.5h58q4 -111 -79 -111q-21 0 -41 8.5z" />
    <glyph glyph-name="uni1EB5" unicode="&#x1eb5;" horiz-adv-x="487" 
d="M71 37q-43 42 -43 109v9q0 73 49.5 120.5t155.5 47.5h112v39q0 50 -26.5 79t-73.5 29q-48 0 -77.5 -29t-29.5 -79v-4l-98 17v2q0 49 25 91t72.5 67t112.5 25q92 0 143 -52t51 -143v-365h-86l-9 78h-4q-24 -38 -64 -60.5t-95 -22.5q-72 0 -115 42zM153.5 102.5
q25.5 -19.5 66.5 -19.5q56 0 90.5 31.5t34.5 82.5v44h-109q-53 0 -80.5 -20.5t-27.5 -56.5v-8q0 -34 25.5 -53.5zM134.5 655.5q-38.5 34.5 -37.5 94.5h65q1 -33 21.5 -51t57.5 -18t57 18t21 51h65q1 -60 -37 -94.5t-106 -34.5t-106.5 34.5zM273 791.5q-20 8.5 -44 23.5
q-33 20 -47 20q-30 0 -30 -46h-58q-4 110 79 110q20 0 39.5 -8t44.5 -23q14 -8 26.5 -14t21.5 -6q13 0 21.5 11.5t8.5 34.5h58q4 -111 -79 -111q-21 0 -41 8.5z" />
    <glyph glyph-name="uni1EB6" unicode="&#x1eb6;" horiz-adv-x="550" 
d="M212 750h126l205 -750h-116l-33 135h-245l-33 -135h-108zM374 218l-102 417l-102 -417h204zM232 -150.5q-15 15.5 -15 38.5q0 24 15 39t39 15t39 -15t15 -39q0 -23 -15 -38.5t-39 -15.5t-39 15.5zM167 855.5q-38 34.5 -36 94.5h65q2 -33 22 -51t57 -18t57 18t22 51h63
q2 -59 -36.5 -94t-106.5 -35q-69 0 -107 34.5z" />
    <glyph glyph-name="uni1EB7" unicode="&#x1eb7;" horiz-adv-x="487" 
d="M71 37q-43 42 -43 109v9q0 73 49.5 120.5t155.5 47.5h112v39q0 50 -26.5 79t-73.5 29q-48 0 -77.5 -29t-29.5 -79v-4l-98 17v2q0 49 25 91t72.5 67t112.5 25q92 0 143 -52t51 -143v-365h-86l-9 78h-4q-24 -38 -64 -60.5t-95 -22.5q-72 0 -115 42zM153.5 102.5
q25.5 -19.5 66.5 -19.5q56 0 90.5 31.5t34.5 82.5v44h-109q-53 0 -80.5 -20.5t-27.5 -56.5v-8q0 -34 25.5 -53.5zM204 -150.5q-15 15.5 -15 38.5q0 24 15 39t39 15t39 -15t15 -39q0 -23 -15 -38.5t-39 -15.5t-39 15.5zM136 655.5q-38 34.5 -36 94.5h64q2 -33 22 -51t57 -18
t57 18t22 51h64q2 -59 -36.5 -94t-106.5 -35q-69 0 -107 34.5z" />
    <glyph glyph-name="uni1EB8" unicode="&#x1eb8;" horiz-adv-x="483" 
d="M50 750h396v-93h-295v-224h226v-92h-226v-248h297v-93h-398v750zM202 -150.5q-15 15.5 -15 38.5q0 24 15 39t39 15t39 -15t15 -39q0 -23 -15 -38.5t-39 -15.5t-39 15.5z" />
    <glyph glyph-name="uni1EB9" unicode="&#x1eb9;" horiz-adv-x="506" 
d="M140 17.5q-51 27.5 -79.5 76.5t-28.5 112v130q0 65 28.5 116t79 79.5t113.5 28.5q64 0 114.5 -28.5t78.5 -79.5t28 -116v-87h-343v-42q0 -57 35 -93t92 -36q54 0 85.5 33t31.5 83v1l98 -7l-1 -11q-3 -51 -29.5 -94t-74 -68t-110.5 -25q-67 0 -118 27.5zM375 332v7
q0 59 -34 96t-88 37t-88 -37t-34 -96v-7h244zM214 -150.5q-15 15.5 -15 38.5q0 24 15 39t39 15t39 -15t15 -39q0 -23 -15 -38.5t-39 -15.5t-39 15.5z" />
    <glyph glyph-name="uni1EBA" unicode="&#x1eba;" horiz-adv-x="483" 
d="M50 750h396v-93h-295v-224h226v-92h-226v-248h297v-93h-398v750zM264 875q14 8 14 23q0 16 -16 24t-54 8v60h12q66 0 97.5 -20t31.5 -56q0 -59 -75 -70v-23h-54v45q30 1 44 9z" />
    <glyph glyph-name="uni1EBB" unicode="&#x1ebb;" horiz-adv-x="506" 
d="M140 17.5q-51 27.5 -79.5 76.5t-28.5 112v130q0 65 28.5 116t79 79.5t113.5 28.5q64 0 114.5 -28.5t78.5 -79.5t28 -116v-87h-343v-42q0 -57 35 -93t92 -36q54 0 85.5 33t31.5 83v1l98 -7l-1 -11q-3 -51 -29.5 -94t-74 -68t-110.5 -25q-67 0 -118 27.5zM375 332v7
q0 59 -34 96t-88 37t-88 -37t-34 -96v-7h244zM266 675q14 8 14 23q0 16 -16 24t-54 8v60h12q66 0 97.5 -20t31.5 -56q0 -59 -75 -70v-23h-54v45q30 1 44 9z" />
    <glyph glyph-name="uni1EBC" unicode="&#x1ebc;" horiz-adv-x="483" 
d="M50 750h396v-93h-295v-224h226v-92h-226v-248h297v-93h-398v750zM283 832.5q-20 8.5 -48 24.5q-14 8 -26.5 14t-21.5 6q-31 0 -31 -47h-62q-6 116 82 116q22 0 43.5 -8.5t45.5 -23.5q4 -2 15.5 -8.5t19.5 -9.5t15 -3q14 0 22.5 12t8.5 36h62q4 -117 -83 -117
q-22 0 -42 8.5z" />
    <glyph glyph-name="uni1EBD" unicode="&#x1ebd;" horiz-adv-x="506" 
d="M140 17.5q-51 27.5 -79.5 76.5t-28.5 112v130q0 65 28.5 116t79 79.5t113.5 28.5q64 0 114.5 -28.5t78.5 -79.5t28 -116v-87h-343v-42q0 -57 35 -93t92 -36q54 0 85.5 33t31.5 83v1l98 -7l-1 -11q-3 -51 -29.5 -94t-74 -68t-110.5 -25q-67 0 -118 27.5zM375 332v7
q0 59 -34 96t-88 37t-88 -37t-34 -96v-7h244zM286 632.5q-20 8.5 -48 24.5q-14 8 -26.5 14t-21.5 6q-31 0 -31 -47h-62q-6 116 82 116q22 0 43.5 -8.5t45.5 -23.5q4 -2 15.5 -8.5t19.5 -9.5t15 -3q14 0 22.5 12t8.5 36h62q4 -117 -83 -117q-22 0 -42 8.5z" />
    <glyph glyph-name="uni1EBE" unicode="&#x1ebe;" horiz-adv-x="483" 
d="M50 750h396v-93h-295v-224h226v-92h-226v-248h297v-93h-398v750zM396 821h-76l-69 77l-69 -77h-76l100 129h91zM368 1047h109l-88 -115h-39z" />
    <glyph glyph-name="uni1EBF" unicode="&#x1ebf;" horiz-adv-x="506" 
d="M140 17.5q-51 27.5 -79.5 76.5t-28.5 112v130q0 65 28.5 116t79 79.5t113.5 28.5q64 0 114.5 -28.5t78.5 -79.5t28 -116v-87h-343v-42q0 -57 35 -93t92 -36q54 0 85.5 33t31.5 83v1l98 -7l-1 -11q-3 -51 -29.5 -94t-74 -68t-110.5 -25q-67 0 -118 27.5zM375 332v7
q0 59 -34 96t-88 37t-88 -37t-34 -96v-7h244zM398 621h-76l-69 77l-69 -77h-76l100 129h91zM370 847h109l-88 -115h-39z" />
    <glyph glyph-name="uni1EC0" unicode="&#x1ec0;" horiz-adv-x="483" 
d="M50 750h396v-93h-295v-224h226v-92h-226v-248h297v-93h-398v750zM206 950h91l99 -129h-76l-69 77l-69 -77h-76zM305 1047h109l18 -115h-39z" />
    <glyph glyph-name="uni1EC1" unicode="&#x1ec1;" horiz-adv-x="506" 
d="M140 17.5q-51 27.5 -79.5 76.5t-28.5 112v130q0 65 28.5 116t79 79.5t113.5 28.5q64 0 114.5 -28.5t78.5 -79.5t28 -116v-87h-343v-42q0 -57 35 -93t92 -36q54 0 85.5 33t31.5 83v1l98 -7l-1 -11q-3 -51 -29.5 -94t-74 -68t-110.5 -25q-67 0 -118 27.5zM375 332v7
q0 59 -34 96t-88 37t-88 -37t-34 -96v-7h244zM208 750h91l99 -129h-76l-69 77l-69 -77h-76zM307 847h109l18 -115h-39z" />
    <glyph glyph-name="uni1EC2" unicode="&#x1ec2;" horiz-adv-x="483" 
d="M50 750h396v-93h-295v-224h226v-92h-226v-248h297v-93h-398v750zM206 950h91l99 -129h-76l-69 77l-69 -77h-76zM414 998q0 31 -68 31v58h11q65 0 95.5 -19.5t30.5 -54.5q0 -29 -19 -46t-54 -22v-23h-52v44q56 3 56 32z" />
    <glyph glyph-name="uni1EC3" unicode="&#x1ec3;" horiz-adv-x="506" 
d="M140 17.5q-51 27.5 -79.5 76.5t-28.5 112v130q0 65 28.5 116t79 79.5t113.5 28.5q64 0 114.5 -28.5t78.5 -79.5t28 -116v-87h-343v-42q0 -57 35 -93t92 -36q54 0 85.5 33t31.5 83v1l98 -7l-1 -11q-3 -51 -29.5 -94t-74 -68t-110.5 -25q-67 0 -118 27.5zM375 332v7
q0 59 -34 96t-88 37t-88 -37t-34 -96v-7h244zM208 750h91l99 -129h-76l-69 77l-69 -77h-76zM416 798q0 31 -68 31v58h11q65 0 95.5 -19.5t30.5 -54.5q0 -29 -19 -46t-54 -22v-23h-52v44q56 3 56 32z" />
    <glyph glyph-name="uni1EC4" unicode="&#x1ec4;" horiz-adv-x="483" 
d="M50 750h396v-93h-295v-224h226v-92h-226v-248h297v-93h-398v750zM205 950h91l100 -129h-76l-69 77l-70 -77h-75zM280 990q-19 8 -43 22q-32 19 -45 19q-28 0 -28 -44h-57q-4 107 76 107q20 0 39 -8t43 -22q32 -19 45 -19t20.5 10.5t7.5 32.5h57q4 -106 -76 -106
q-20 0 -39 8z" />
    <glyph glyph-name="uni1EC5" unicode="&#x1ec5;" horiz-adv-x="506" 
d="M140 17.5q-51 27.5 -79.5 76.5t-28.5 112v130q0 65 28.5 116t79 79.5t113.5 28.5q64 0 114.5 -28.5t78.5 -79.5t28 -116v-87h-343v-42q0 -57 35 -93t92 -36q54 0 85.5 33t31.5 83v1l98 -7l-1 -11q-3 -51 -29.5 -94t-74 -68t-110.5 -25q-67 0 -118 27.5zM375 332v7
q0 59 -34 96t-88 37t-88 -37t-34 -96v-7h244zM208 750h91l100 -129h-76l-69 77l-70 -77h-75zM283 790q-19 8 -43 22q-32 19 -45 19q-28 0 -28 -44h-57q-4 107 76 107q20 0 39 -8t43 -22q32 -19 45 -19t20.5 10.5t7.5 32.5h57q4 -106 -76 -106q-20 0 -39 8z" />
    <glyph glyph-name="uni1EC6" unicode="&#x1ec6;" horiz-adv-x="483" 
d="M50 750h396v-93h-295v-224h226v-92h-226v-248h297v-93h-398v750zM202 -150.5q-15 15.5 -15 38.5q0 24 15 39t39 15t39 -15t15 -39q0 -23 -15 -38.5t-39 -15.5t-39 15.5zM396 821h-76l-69 77l-69 -77h-76l100 129h91z" />
    <glyph glyph-name="uni1EC7" unicode="&#x1ec7;" horiz-adv-x="506" 
d="M140 17.5q-51 27.5 -79.5 76.5t-28.5 112v130q0 65 28.5 116t79 79.5t113.5 28.5q64 0 114.5 -28.5t78.5 -79.5t28 -116v-87h-343v-42q0 -57 35 -93t92 -36q54 0 85.5 33t31.5 83v1l98 -7l-1 -11q-3 -51 -29.5 -94t-74 -68t-110.5 -25q-67 0 -118 27.5zM375 332v7
q0 59 -34 96t-88 37t-88 -37t-34 -96v-7h244zM214 -150.5q-15 15.5 -15 38.5q0 24 15 39t39 15t39 -15t15 -39q0 -23 -15 -38.5t-39 -15.5t-39 15.5zM398 621h-76l-69 77l-69 -77h-76l100 129h91z" />
    <glyph glyph-name="uni1EC8" unicode="&#x1ec8;" horiz-adv-x="200" 
d="M50 750h100v-750h-100v750zM113 875q14 8 14 23q0 16 -16 24t-54 8v60h12q66 0 97.5 -20t31.5 -56q0 -59 -75 -70v-23h-54v45q30 1 44 9z" />
    <glyph glyph-name="uni1EC9" unicode="&#x1ec9;" horiz-adv-x="195" 
d="M147 0h-99v550h99v-550zM111 675q14 8 14 23q0 16 -16 24t-54 8v60h12q66 0 97.5 -20t31.5 -56q0 -59 -75 -70v-23h-54v45q30 1 44 9z" />
    <glyph glyph-name="uni1ECA" unicode="&#x1eca;" horiz-adv-x="200" 
d="M50 750h100v-750h-100v750zM61 -150.5q-15 15.5 -15 38.5q0 24 15 39t39 15t39 -15t15 -39q0 -23 -15 -38.5t-39 -15.5t-39 15.5z" />
    <glyph glyph-name="uni1ECB" unicode="&#x1ecb;" horiz-adv-x="194" 
d="M48 550h99v-550h-99v550zM53.5 641.5q-17.5 17.5 -17.5 43.5q0 27 17.5 44t43.5 17q27 0 44 -17t17 -44q0 -26 -17 -43.5t-44 -17.5q-26 0 -43.5 17.5zM58 -150.5q-15 15.5 -15 38.5q0 24 15 39t39 15t39 -15t15 -39q0 -23 -15 -38.5t-39 -15.5t-39 15.5z" />
    <glyph glyph-name="uni1ECC" unicode="&#x1ecc;" horiz-adv-x="565" 
d="M158 20q-55 30 -85.5 84t-30.5 125v293q0 70 30.5 124.5t85.5 84t125 29.5t124.5 -29.5t85 -84t30.5 -124.5v-293q0 -71 -30.5 -125t-85 -84t-124.5 -30t-125 30zM384 123q39 40 39 106v293q0 66 -39 106t-101 40t-101.5 -40t-39.5 -106v-293q0 -66 39.5 -106t101.5 -40
t101 40zM244 -150.5q-15 15.5 -15 38.5q0 24 15 39t39 15t39 -15t15 -39q0 -23 -15 -38.5t-39 -15.5t-39 15.5z" />
    <glyph glyph-name="uni1ECD" unicode="&#x1ecd;" horiz-adv-x="507" 
d="M139.5 18.5q-50.5 28.5 -79 79.5t-28.5 116v122q0 65 28.5 116t79 79.5t114.5 28.5t114 -28.5t78.5 -79.5t28.5 -116v-122q0 -65 -28.5 -116t-78.5 -79.5t-114 -28.5t-114.5 28.5zM165.5 120.5q33.5 -37.5 88.5 -37.5q54 0 87.5 37.5t33.5 98.5v112q0 61 -33.5 99
t-87.5 38q-55 0 -88.5 -38t-33.5 -99v-112q0 -61 33.5 -98.5zM215 -150.5q-15 15.5 -15 38.5q0 24 15 39t39 15t39 -15t15 -39q0 -23 -15 -38.5t-39 -15.5t-39 15.5z" />
    <glyph glyph-name="uni1ECE" unicode="&#x1ece;" horiz-adv-x="565" 
d="M158 20q-55 30 -85.5 84t-30.5 125v293q0 70 30.5 124.5t85.5 84t125 29.5t124.5 -29.5t85 -84t30.5 -124.5v-293q0 -71 -30.5 -125t-85 -84t-124.5 -30t-125 30zM384 123q39 40 39 106v293q0 66 -39 106t-101 40t-101.5 -40t-39.5 -106v-293q0 -66 39.5 -106t101.5 -40
t101 40zM296 875q14 8 14 23q0 16 -16 24t-54 8v60h12q66 0 97.5 -20t31.5 -56q0 -59 -75 -70v-23h-54v45q30 1 44 9z" />
    <glyph glyph-name="uni1ECF" unicode="&#x1ecf;" horiz-adv-x="507" 
d="M139.5 18.5q-50.5 28.5 -79 79.5t-28.5 116v122q0 65 28.5 116t79 79.5t114.5 28.5t114 -28.5t78.5 -79.5t28.5 -116v-122q0 -65 -28.5 -116t-78.5 -79.5t-114 -28.5t-114.5 28.5zM165.5 120.5q33.5 -37.5 88.5 -37.5q54 0 87.5 37.5t33.5 98.5v112q0 61 -33.5 99
t-87.5 38q-55 0 -88.5 -38t-33.5 -99v-112q0 -61 33.5 -98.5zM267 675q14 8 14 23q0 16 -16 24t-54 8v60h12q66 0 97.5 -20t31.5 -56q0 -59 -75 -70v-23h-54v45q30 1 44 9z" />
    <glyph glyph-name="uni1ED0" unicode="&#x1ed0;" horiz-adv-x="565" 
d="M158 20q-55 30 -85.5 84t-30.5 125v293q0 70 30.5 124.5t85.5 84t125 29.5t124.5 -29.5t85 -84t30.5 -124.5v-293q0 -71 -30.5 -125t-85 -84t-124.5 -30t-125 30zM384 123q39 40 39 106v293q0 66 -39 106t-101 40t-101.5 -40t-39.5 -106v-293q0 -66 39.5 -106t101.5 -40
t101 40zM428 821h-76l-69 77l-69 -77h-76l100 129h91zM400 1047h109l-88 -115h-39z" />
    <glyph glyph-name="uni1ED1" unicode="&#x1ed1;" horiz-adv-x="507" 
d="M139.5 18.5q-50.5 28.5 -79 79.5t-28.5 116v122q0 65 28.5 116t79 79.5t114.5 28.5t114 -28.5t78.5 -79.5t28.5 -116v-122q0 -65 -28.5 -116t-78.5 -79.5t-114 -28.5t-114.5 28.5zM165.5 120.5q33.5 -37.5 88.5 -37.5q54 0 87.5 37.5t33.5 98.5v112q0 61 -33.5 99
t-87.5 38q-55 0 -88.5 -38t-33.5 -99v-112q0 -61 33.5 -98.5zM399 621h-76l-69 77l-69 -77h-76l100 129h91zM371 847h109l-88 -115h-39z" />
    <glyph glyph-name="uni1ED2" unicode="&#x1ed2;" horiz-adv-x="565" 
d="M158 20q-55 30 -85.5 84t-30.5 125v293q0 70 30.5 124.5t85.5 84t125 29.5t124.5 -29.5t85 -84t30.5 -124.5v-293q0 -71 -30.5 -125t-85 -84t-124.5 -30t-125 30zM384 123q39 40 39 106v293q0 66 -39 106t-101 40t-101.5 -40t-39.5 -106v-293q0 -66 39.5 -106t101.5 -40
t101 40zM238 950h91l99 -129h-76l-69 77l-69 -77h-76zM337 1047h109l18 -115h-39z" />
    <glyph glyph-name="uni1ED3" unicode="&#x1ed3;" horiz-adv-x="507" 
d="M139.5 18.5q-50.5 28.5 -79 79.5t-28.5 116v122q0 65 28.5 116t79 79.5t114.5 28.5t114 -28.5t78.5 -79.5t28.5 -116v-122q0 -65 -28.5 -116t-78.5 -79.5t-114 -28.5t-114.5 28.5zM165.5 120.5q33.5 -37.5 88.5 -37.5q54 0 87.5 37.5t33.5 98.5v112q0 61 -33.5 99
t-87.5 38q-55 0 -88.5 -38t-33.5 -99v-112q0 -61 33.5 -98.5zM209 750h91l99 -129h-76l-69 77l-69 -77h-76zM308 847h109l18 -115h-39z" />
    <glyph glyph-name="uni1ED4" unicode="&#x1ed4;" horiz-adv-x="565" 
d="M158 20q-55 30 -85.5 84t-30.5 125v293q0 70 30.5 124.5t85.5 84t125 29.5t124.5 -29.5t85 -84t30.5 -124.5v-293q0 -71 -30.5 -125t-85 -84t-124.5 -30t-125 30zM384 123q39 40 39 106v293q0 66 -39 106t-101 40t-101.5 -40t-39.5 -106v-293q0 -66 39.5 -106t101.5 -40
t101 40zM238 950h91l99 -129h-76l-69 77l-69 -77h-76zM446 998q0 31 -68 31v58h11q65 0 95.5 -19.5t30.5 -54.5q0 -29 -19 -46t-54 -22v-23h-52v44q56 3 56 32z" />
    <glyph glyph-name="uni1ED5" unicode="&#x1ed5;" horiz-adv-x="507" 
d="M139.5 18.5q-50.5 28.5 -79 79.5t-28.5 116v122q0 65 28.5 116t79 79.5t114.5 28.5t114 -28.5t78.5 -79.5t28.5 -116v-122q0 -65 -28.5 -116t-78.5 -79.5t-114 -28.5t-114.5 28.5zM165.5 120.5q33.5 -37.5 88.5 -37.5q54 0 87.5 37.5t33.5 98.5v112q0 61 -33.5 99
t-87.5 38q-55 0 -88.5 -38t-33.5 -99v-112q0 -61 33.5 -98.5zM209 750h91l99 -129h-76l-69 77l-69 -77h-76zM417 798q0 31 -68 31v58h11q65 0 95.5 -19.5t30.5 -54.5q0 -29 -19 -46t-54 -22v-23h-52v44q56 3 56 32z" />
    <glyph glyph-name="uni1ED6" unicode="&#x1ed6;" horiz-adv-x="565" 
d="M158 20q-55 30 -85.5 84t-30.5 125v293q0 70 30.5 124.5t85.5 84t125 29.5t124.5 -29.5t85 -84t30.5 -124.5v-293q0 -71 -30.5 -125t-85 -84t-124.5 -30t-125 30zM384 123q39 40 39 106v293q0 66 -39 106t-101 40t-101.5 -40t-39.5 -106v-293q0 -66 39.5 -106t101.5 -40
t101 40zM237 950h91l100 -129h-76l-69 77l-70 -77h-75zM312 990q-19 8 -43 22q-32 19 -45 19q-28 0 -28 -44h-57q-4 107 76 107q20 0 39 -8t43 -22q32 -19 45 -19t20.5 10.5t7.5 32.5h57q4 -106 -76 -106q-20 0 -39 8z" />
    <glyph glyph-name="uni1ED7" unicode="&#x1ed7;" horiz-adv-x="507" 
d="M139.5 18.5q-50.5 28.5 -79 79.5t-28.5 116v122q0 65 28.5 116t79 79.5t114.5 28.5t114 -28.5t78.5 -79.5t28.5 -116v-122q0 -65 -28.5 -116t-78.5 -79.5t-114 -28.5t-114.5 28.5zM165.5 120.5q33.5 -37.5 88.5 -37.5q54 0 87.5 37.5t33.5 98.5v112q0 61 -33.5 99
t-87.5 38q-55 0 -88.5 -38t-33.5 -99v-112q0 -61 33.5 -98.5zM208 750h91l100 -129h-76l-69 77l-70 -77h-75zM283 790q-19 8 -43 22q-32 19 -45 19q-28 0 -28 -44h-57q-4 107 76 107q20 0 39 -8t43 -22q32 -19 45 -19t20.5 10.5t7.5 32.5h57q4 -106 -76 -106q-20 0 -39 8z
" />
    <glyph glyph-name="uni1ED8" unicode="&#x1ed8;" horiz-adv-x="565" 
d="M158 20q-55 30 -85.5 84t-30.5 125v293q0 70 30.5 124.5t85.5 84t125 29.5t124.5 -29.5t85 -84t30.5 -124.5v-293q0 -71 -30.5 -125t-85 -84t-124.5 -30t-125 30zM384 123q39 40 39 106v293q0 66 -39 106t-101 40t-101.5 -40t-39.5 -106v-293q0 -66 39.5 -106t101.5 -40
t101 40zM244 -150.5q-15 15.5 -15 38.5q0 24 15 39t39 15t39 -15t15 -39q0 -23 -15 -38.5t-39 -15.5t-39 15.5zM428 821h-76l-69 77l-69 -77h-76l100 129h91z" />
    <glyph glyph-name="uni1ED9" unicode="&#x1ed9;" horiz-adv-x="507" 
d="M139.5 18.5q-50.5 28.5 -79 79.5t-28.5 116v122q0 65 28.5 116t79 79.5t114.5 28.5t114 -28.5t78.5 -79.5t28.5 -116v-122q0 -65 -28.5 -116t-78.5 -79.5t-114 -28.5t-114.5 28.5zM165.5 120.5q33.5 -37.5 88.5 -37.5q54 0 87.5 37.5t33.5 98.5v112q0 61 -33.5 99
t-87.5 38q-55 0 -88.5 -38t-33.5 -99v-112q0 -61 33.5 -98.5zM215 -150.5q-15 15.5 -15 38.5q0 24 15 39t39 15t39 -15t15 -39q0 -23 -15 -38.5t-39 -15.5t-39 15.5zM399 621h-76l-69 77l-69 -77h-76l100 129h91z" />
    <glyph glyph-name="uni1EDA" unicode="&#x1eda;" horiz-adv-x="564" 
d="M158 20q-55 30 -85.5 84t-30.5 125v293q0 70 30.5 124.5t85.5 84t125 29.5q22 0 66 -7q32 -6 46 -6q69 0 69 62q0 29 -10 60h81q11 -40 11 -69q0 -42 -23.5 -69.5t-70.5 -38.5q71 -60 71 -170v-293q0 -71 -30.5 -125t-85 -84t-124.5 -30t-125 30zM384 123q39 40 39 106
v293q0 66 -39 106t-101 40t-101.5 -40t-39.5 -106v-293q0 -66 39.5 -106t101.5 -40t101 40zM259 950h121l-96 -129h-45z" />
    <glyph glyph-name="uni1EDB" unicode="&#x1edb;" horiz-adv-x="512" 
d="M139.5 18.5q-50.5 28.5 -79 79.5t-28.5 116v122q0 65 28.5 116t79 79.5t114.5 28.5q29 0 60 -7q7 -1 20.5 -3t24.5 -2q65 0 65 60q0 25 -10 61h80q11 -40 11 -69q0 -41 -22.5 -69t-65.5 -40q58 -60 58 -155v-122q0 -65 -28.5 -116t-78.5 -79.5t-114 -28.5t-114.5 28.5z
M165.5 120.5q33.5 -37.5 88.5 -37.5q54 0 87.5 37.5t33.5 98.5v112q0 61 -33.5 99t-87.5 38q-55 0 -88.5 -38t-33.5 -99v-112q0 -61 33.5 -98.5zM231 750h121l-96 -129h-45z" />
    <glyph glyph-name="uni1EDC" unicode="&#x1edc;" horiz-adv-x="564" 
d="M158 20q-55 30 -85.5 84t-30.5 125v293q0 70 30.5 124.5t85.5 84t125 29.5q22 0 66 -7q32 -6 46 -6q69 0 69 62q0 29 -10 60h81q11 -40 11 -69q0 -42 -23.5 -69.5t-70.5 -38.5q71 -60 71 -170v-293q0 -71 -30.5 -125t-85 -84t-124.5 -30t-125 30zM384 123q39 40 39 106
v293q0 66 -39 106t-101 40t-101.5 -40t-39.5 -106v-293q0 -66 39.5 -106t101.5 -40t101 40zM275 821l-97 129h121l20 -129h-44z" />
    <glyph glyph-name="uni1EDD" unicode="&#x1edd;" horiz-adv-x="512" 
d="M139.5 18.5q-50.5 28.5 -79 79.5t-28.5 116v122q0 65 28.5 116t79 79.5t114.5 28.5q29 0 60 -7q7 -1 20.5 -3t24.5 -2q65 0 65 60q0 25 -10 61h80q11 -40 11 -69q0 -41 -22.5 -69t-65.5 -40q58 -60 58 -155v-122q0 -65 -28.5 -116t-78.5 -79.5t-114 -28.5t-114.5 28.5z
M165.5 120.5q33.5 -37.5 88.5 -37.5q54 0 87.5 37.5t33.5 98.5v112q0 61 -33.5 99t-87.5 38q-55 0 -88.5 -38t-33.5 -99v-112q0 -61 33.5 -98.5zM247 621l-97 129h121l20 -129h-44z" />
    <glyph glyph-name="uni1EDE" unicode="&#x1ede;" horiz-adv-x="564" 
d="M158 20q-55 30 -85.5 84t-30.5 125v293q0 70 30.5 124.5t85.5 84t125 29.5q22 0 66 -7q32 -6 46 -6q69 0 69 62q0 29 -10 60h81q11 -40 11 -69q0 -42 -23.5 -69.5t-70.5 -38.5q71 -60 71 -170v-293q0 -71 -30.5 -125t-85 -84t-124.5 -30t-125 30zM384 123q39 40 39 106
v293q0 66 -39 106t-101 40t-101.5 -40t-39.5 -106v-293q0 -66 39.5 -106t101.5 -40t101 40zM296 875q14 8 14 23q0 16 -16 24t-54 8v60h12q66 0 97.5 -20t31.5 -56q0 -59 -75 -70v-23h-54v45q30 1 44 9z" />
    <glyph glyph-name="uni1EDF" unicode="&#x1edf;" horiz-adv-x="512" 
d="M139.5 18.5q-50.5 28.5 -79 79.5t-28.5 116v122q0 65 28.5 116t79 79.5t114.5 28.5q29 0 60 -7q7 -1 20.5 -3t24.5 -2q65 0 65 60q0 25 -10 61h80q11 -40 11 -69q0 -41 -22.5 -69t-65.5 -40q58 -60 58 -155v-122q0 -65 -28.5 -116t-78.5 -79.5t-114 -28.5t-114.5 28.5z
M165.5 120.5q33.5 -37.5 88.5 -37.5q54 0 87.5 37.5t33.5 98.5v112q0 61 -33.5 99t-87.5 38q-55 0 -88.5 -38t-33.5 -99v-112q0 -61 33.5 -98.5zM268 675q14 8 14 23q0 16 -16 24t-54 8v60h12q66 0 97.5 -20t31.5 -56q0 -59 -75 -70v-23h-54v45q30 1 44 9z" />
    <glyph glyph-name="uni1EE0" unicode="&#x1ee0;" horiz-adv-x="564" 
d="M158 20q-55 30 -85.5 84t-30.5 125v293q0 70 30.5 124.5t85.5 84t125 29.5q22 0 66 -7q32 -6 46 -6q69 0 69 62q0 29 -10 60h81q11 -40 11 -69q0 -42 -23.5 -69.5t-70.5 -38.5q71 -60 71 -170v-293q0 -71 -30.5 -125t-85 -84t-124.5 -30t-125 30zM384 123q39 40 39 106
v293q0 66 -39 106t-101 40t-101.5 -40t-39.5 -106v-293q0 -66 39.5 -106t101.5 -40t101 40zM315 832.5q-20 8.5 -48 24.5q-14 8 -26.5 14t-21.5 6q-31 0 -31 -47h-62q-6 116 82 116q22 0 43.5 -8.5t45.5 -23.5q4 -2 15.5 -8.5t19.5 -9.5t15 -3q14 0 22.5 12t8.5 36h62
q4 -117 -83 -117q-22 0 -42 8.5z" />
    <glyph glyph-name="uni1EE1" unicode="&#x1ee1;" horiz-adv-x="512" 
d="M139.5 18.5q-50.5 28.5 -79 79.5t-28.5 116v122q0 65 28.5 116t79 79.5t114.5 28.5q29 0 60 -7q7 -1 20.5 -3t24.5 -2q65 0 65 60q0 25 -10 61h80q11 -40 11 -69q0 -41 -22.5 -69t-65.5 -40q58 -60 58 -155v-122q0 -65 -28.5 -116t-78.5 -79.5t-114 -28.5t-114.5 28.5z
M165.5 120.5q33.5 -37.5 88.5 -37.5q54 0 87.5 37.5t33.5 98.5v112q0 61 -33.5 99t-87.5 38q-55 0 -88.5 -38t-33.5 -99v-112q0 -61 33.5 -98.5zM265.5 634q-13.5 9 -28.5 25q-11 11 -17.5 16t-13.5 5q-11 0 -18 -11.5t-7 -35.5h-56q-2 56 17.5 85t59.5 29q17 0 30.5 -9
t29.5 -25q8 -8 15.5 -14.5t14.5 -6.5q11 0 18 11.5t7 35.5h57q2 -56 -17.5 -85t-60.5 -29q-17 0 -30.5 9z" />
    <glyph glyph-name="uni1EE2" unicode="&#x1ee2;" horiz-adv-x="564" 
d="M158 20q-55 30 -85.5 84t-30.5 125v293q0 70 30.5 124.5t85.5 84t125 29.5q22 0 66 -7q32 -6 46 -6q69 0 69 62q0 29 -10 60h81q11 -40 11 -69q0 -42 -23.5 -69.5t-70.5 -38.5q71 -60 71 -170v-293q0 -71 -30.5 -125t-85 -84t-124.5 -30t-125 30zM384 123q39 40 39 106
v293q0 66 -39 106t-101 40t-101.5 -40t-39.5 -106v-293q0 -66 39.5 -106t101.5 -40t101 40zM244 -150.5q-15 15.5 -15 38.5q0 24 15 39t39 15t39 -15t15 -39q0 -23 -15 -38.5t-39 -15.5t-39 15.5z" />
    <glyph glyph-name="uni1EE3" unicode="&#x1ee3;" horiz-adv-x="512" 
d="M139.5 18.5q-50.5 28.5 -79 79.5t-28.5 116v122q0 65 28.5 116t79 79.5t114.5 28.5q29 0 60 -7q7 -1 20.5 -3t24.5 -2q65 0 65 60q0 25 -10 61h80q11 -40 11 -69q0 -41 -22.5 -69t-65.5 -40q58 -60 58 -155v-122q0 -65 -28.5 -116t-78.5 -79.5t-114 -28.5t-114.5 28.5z
M165.5 120.5q33.5 -37.5 88.5 -37.5q54 0 87.5 37.5t33.5 98.5v112q0 61 -33.5 99t-87.5 38q-55 0 -88.5 -38t-33.5 -99v-112q0 -61 33.5 -98.5zM215 -150.5q-15 15.5 -15 38.5q0 24 15 39t39 15t39 -15t15 -39q0 -23 -15 -38.5t-39 -15.5t-39 15.5z" />
    <glyph glyph-name="uni1EE4" unicode="&#x1ee4;" horiz-adv-x="574" 
d="M162.5 19.5q-54.5 29.5 -85.5 83.5t-31 124v523h101v-521q0 -66 39 -106t101 -40t101.5 40t39.5 106v521h100v-523q0 -70 -31 -124t-85.5 -83.5t-124.5 -29.5t-124.5 29.5zM248 -150.5q-15 15.5 -15 38.5q0 24 15 39t39 15t39 -15t15 -39q0 -23 -15 -38.5t-39 -15.5
t-39 15.5z" />
    <glyph glyph-name="uni1EE5" unicode="&#x1ee5;" horiz-adv-x="516" 
d="M87 39.5q-43 49.5 -43 142.5v368h99v-343q0 -59 26.5 -90t76.5 -31q54 0 88.5 38t34.5 102v324h99v-550h-86l-10 82h-3q-26 -46 -63 -69t-94 -23q-82 0 -125 49.5zM219 -150.5q-15 15.5 -15 38.5q0 24 15 39t39 15t39 -15t15 -39q0 -23 -15 -38.5t-39 -15.5t-39 15.5z
" />
    <glyph glyph-name="uni1EE6" unicode="&#x1ee6;" horiz-adv-x="574" 
d="M162.5 19.5q-54.5 29.5 -85.5 83.5t-31 124v523h101v-521q0 -66 39 -106t101 -40t101.5 40t39.5 106v521h100v-523q0 -70 -31 -124t-85.5 -83.5t-124.5 -29.5t-124.5 29.5zM300 875q14 8 14 23q0 16 -16 24t-54 8v60h12q66 0 97.5 -20t31.5 -56q0 -59 -75 -70v-23h-54v45
q30 1 44 9z" />
    <glyph glyph-name="uni1EE7" unicode="&#x1ee7;" horiz-adv-x="516" 
d="M87 39.5q-43 49.5 -43 142.5v368h99v-343q0 -59 26.5 -90t76.5 -31q54 0 88.5 38t34.5 102v324h99v-550h-86l-10 82h-3q-26 -46 -63 -69t-94 -23q-82 0 -125 49.5zM271 675q14 8 14 23q0 16 -16 24t-54 8v60h12q66 0 97.5 -20t31.5 -56q0 -59 -75 -70v-23h-54v45
q30 1 44 9z" />
    <glyph glyph-name="uni1EE8" unicode="&#x1ee8;" horiz-adv-x="581" 
d="M162.5 19.5q-54.5 29.5 -85.5 83.5t-31 124v523h101v-521q0 -66 39 -106t101 -40t101.5 40t39.5 106v521h36q71 0 71 59q0 24 -10 60h80q11 -40 11 -69q0 -41 -22.5 -69t-65.5 -40v-464q0 -70 -31 -124t-85.5 -83.5t-124.5 -29.5t-124.5 29.5zM264 950h121l-96 -129h-45z
" />
    <glyph glyph-name="uni1EE9" unicode="&#x1ee9;" horiz-adv-x="542" 
d="M87 39.5q-43 49.5 -43 142.5v368h99v-343q0 -59 26.5 -90t76.5 -31q54 0 88.5 38t34.5 102v324h31q71 0 71 59q0 24 -10 60h80q11 -40 11 -69q0 -40 -21.5 -67.5t-62.5 -40.5v-492h-86l-10 82h-3q-26 -46 -63 -69t-94 -23q-82 0 -125 49.5zM235 750h121l-96 -129h-45z
" />
    <glyph glyph-name="uni1EEA" unicode="&#x1eea;" horiz-adv-x="581" 
d="M162.5 19.5q-54.5 29.5 -85.5 83.5t-31 124v523h101v-521q0 -66 39 -106t101 -40t101.5 40t39.5 106v521h36q71 0 71 59q0 24 -10 60h80q11 -40 11 -69q0 -41 -22.5 -69t-65.5 -40v-464q0 -70 -31 -124t-85.5 -83.5t-124.5 -29.5t-124.5 29.5zM279 821l-97 129h121
l20 -129h-44z" />
    <glyph glyph-name="uni1EEB" unicode="&#x1eeb;" horiz-adv-x="542" 
d="M87 39.5q-43 49.5 -43 142.5v368h99v-343q0 -59 26.5 -90t76.5 -31q54 0 88.5 38t34.5 102v324h31q71 0 71 59q0 24 -10 60h80q11 -40 11 -69q0 -40 -21.5 -67.5t-62.5 -40.5v-492h-86l-10 82h-3q-26 -46 -63 -69t-94 -23q-82 0 -125 49.5zM250 621l-97 129h121l20 -129
h-44z" />
    <glyph glyph-name="uni1EEC" unicode="&#x1eec;" horiz-adv-x="581" 
d="M162.5 19.5q-54.5 29.5 -85.5 83.5t-31 124v523h101v-521q0 -66 39 -106t101 -40t101.5 40t39.5 106v521h36q71 0 71 59q0 24 -10 60h80q11 -40 11 -69q0 -41 -22.5 -69t-65.5 -40v-464q0 -70 -31 -124t-85.5 -83.5t-124.5 -29.5t-124.5 29.5zM300 875q14 8 14 23
q0 16 -16 24t-54 8v60h12q66 0 97.5 -20t31.5 -56q0 -59 -75 -70v-23h-54v45q30 1 44 9z" />
    <glyph glyph-name="uni1EED" unicode="&#x1eed;" horiz-adv-x="542" 
d="M87 39.5q-43 49.5 -43 142.5v368h99v-343q0 -59 26.5 -90t76.5 -31q54 0 88.5 38t34.5 102v324h31q70 0 70 59q0 29 -10 60h81q11 -40 11 -69q0 -39 -22 -66.5t-62 -37.5v-496h-86l-10 82h-3q-26 -46 -63 -69t-94 -23q-82 0 -125 49.5zM271 640q14 8 14 23q0 16 -16 24
t-54 8v60h12q66 0 97.5 -20t31.5 -56q0 -59 -75 -70v-23h-54v45q30 1 44 9z" />
    <glyph glyph-name="uni1EEE" unicode="&#x1eee;" horiz-adv-x="581" 
d="M162.5 19.5q-54.5 29.5 -85.5 83.5t-31 124v523h101v-521q0 -66 39 -106t101 -40t101.5 40t39.5 106v521h36q71 0 71 59q0 24 -10 60h80q11 -40 11 -69q0 -41 -22.5 -69t-65.5 -40v-464q0 -70 -31 -124t-85.5 -83.5t-124.5 -29.5t-124.5 29.5zM320 832.5
q-20 8.5 -48 24.5q-14 8 -26.5 14t-21.5 6q-31 0 -31 -47h-62q-6 116 82 116q22 0 43.5 -8.5t45.5 -23.5q4 -2 15.5 -8.5t19.5 -9.5t15 -3q14 0 22.5 12t8.5 36h62q4 -117 -83 -117q-22 0 -42 8.5z" />
    <glyph glyph-name="uni1EEF" unicode="&#x1eef;" horiz-adv-x="542" 
d="M87 39.5q-43 49.5 -43 142.5v368h99v-343q0 -59 26.5 -90t76.5 -31q54 0 88.5 38t34.5 102v324h31q71 0 71 59q0 24 -10 60h80q11 -40 11 -69q0 -40 -21.5 -67.5t-62.5 -40.5v-492h-86l-10 82h-3q-26 -46 -63 -69t-94 -23q-82 0 -125 49.5zM274.5 634q-13.5 9 -28.5 25
q-11 11 -17.5 16t-13.5 5q-11 0 -18 -11.5t-7 -35.5h-56q-2 56 17.5 85t59.5 29q17 0 30.5 -9t29.5 -25q8 -8 15.5 -14.5t14.5 -6.5q11 0 18 11.5t7 35.5h57q2 -56 -17.5 -85t-60.5 -29q-17 0 -30.5 9z" />
    <glyph glyph-name="uni1EF0" unicode="&#x1ef0;" horiz-adv-x="581" 
d="M162.5 19.5q-54.5 29.5 -85.5 83.5t-31 124v523h101v-521q0 -66 39 -106t101 -40t101.5 40t39.5 106v521h36q71 0 71 59q0 24 -10 60h80q11 -40 11 -69q0 -41 -22.5 -69t-65.5 -40v-464q0 -70 -31 -124t-85.5 -83.5t-124.5 -29.5t-124.5 29.5zM248 -150.5
q-15 15.5 -15 38.5q0 24 15 39t39 15t39 -15t15 -39q0 -23 -15 -38.5t-39 -15.5t-39 15.5z" />
    <glyph glyph-name="uni1EF1" unicode="&#x1ef1;" horiz-adv-x="542" 
d="M87 39.5q-43 49.5 -43 142.5v368h99v-343q0 -59 26.5 -90t76.5 -31q54 0 88.5 38t34.5 102v324h31q71 0 71 59q0 24 -10 60h80q11 -40 11 -69q0 -40 -21.5 -67.5t-62.5 -40.5v-492h-86l-10 82h-3q-26 -46 -63 -69t-94 -23q-82 0 -125 49.5zM219 -150.5q-15 15.5 -15 38.5
q0 24 15 39t39 15t39 -15t15 -39q0 -23 -15 -38.5t-39 -15.5t-39 15.5z" />
    <glyph glyph-name="Ygrave" unicode="&#x1ef2;" horiz-adv-x="528" 
d="M215 279l-214 471h114l152 -346l150 346h111l-213 -469v-281h-100v279zM256 821l-97 129h121l20 -129h-44z" />
    <glyph glyph-name="ygrave" unicode="&#x1ef3;" horiz-adv-x="499" 
d="M197 33l-185 517h106l129 -383l135 383h105l-270 -730h-104zM242 621l-97 129h121l20 -129h-44z" />
    <glyph glyph-name="uni1EF4" unicode="&#x1ef4;" horiz-adv-x="528" 
d="M215 279l-214 471h114l152 -346l150 346h111l-213 -469v-281h-100v279zM225 -150.5q-15 15.5 -15 38.5q0 24 15 39t39 15t39 -15t15 -39q0 -23 -15 -38.5t-39 -15.5t-39 15.5z" />
    <glyph glyph-name="uni1EF5" unicode="&#x1ef5;" horiz-adv-x="499" 
d="M197 33l-185 517h106l129 -383l135 383h105l-270 -730h-104zM383 -150.5q-15 15.5 -15 38.5q0 24 15 39t39 15t39 -15t15 -39q0 -23 -15 -38.5t-39 -15.5t-39 15.5z" />
    <glyph glyph-name="uni1EF6" unicode="&#x1ef6;" horiz-adv-x="528" 
d="M215 279l-214 471h114l152 -346l150 346h111l-213 -469v-281h-100v279zM277 875q14 8 14 23q0 16 -16 24t-54 8v60h12q66 0 97.5 -20t31.5 -56q0 -59 -75 -70v-23h-54v45q30 1 44 9z" />
    <glyph glyph-name="uni1EF7" unicode="&#x1ef7;" horiz-adv-x="499" 
d="M197 33l-185 517h106l129 -383l135 383h105l-270 -730h-104zM263 675q14 8 14 23q0 16 -16 24t-54 8v60h12q66 0 97.5 -20t31.5 -56q0 -59 -75 -70v-23h-54v45q30 1 44 9z" />
    <glyph glyph-name="uni1EF8" unicode="&#x1ef8;" horiz-adv-x="528" 
d="M215 279l-214 471h114l152 -346l150 346h111l-213 -469v-281h-100v279zM297 832.5q-20 8.5 -48 24.5q-14 8 -26.5 14t-21.5 6q-31 0 -31 -47h-62q-6 116 82 116q22 0 43.5 -8.5t45.5 -23.5q4 -2 15.5 -8.5t19.5 -9.5t15 -3q14 0 22.5 12t8.5 36h62q4 -117 -83 -117
q-22 0 -42 8.5z" />
    <glyph glyph-name="uni1EF9" unicode="&#x1ef9;" horiz-adv-x="499" 
d="M197 33l-185 517h106l129 -383l135 383h105l-270 -730h-104zM282 632.5q-20 8.5 -48 24.5q-14 8 -26.5 14t-21.5 6q-31 0 -31 -47h-62q-6 116 82 116q22 0 43.5 -8.5t45.5 -23.5q4 -2 15.5 -8.5t19.5 -9.5t15 -3q14 0 22.5 12t8.5 36h62q4 -117 -83 -117q-22 0 -42 8.5z
" />
    <glyph glyph-name="uni2000" unicode="&#x2000;" horiz-adv-x="500" 
 />
    <glyph glyph-name="uni2001" unicode="&#x2001;" horiz-adv-x="1000" 
 />
    <glyph glyph-name="uni2002" unicode="&#x2002;" horiz-adv-x="500" 
 />
    <glyph glyph-name="uni2003" unicode="&#x2003;" horiz-adv-x="1000" 
 />
    <glyph glyph-name="uni2004" unicode="&#x2004;" horiz-adv-x="333" 
 />
    <glyph glyph-name="uni2005" unicode="&#x2005;" horiz-adv-x="250" 
 />
    <glyph glyph-name="uni2006" unicode="&#x2006;" horiz-adv-x="167" 
 />
    <glyph glyph-name="uni2007" unicode="&#x2007;" horiz-adv-x="568" 
 />
    <glyph glyph-name="uni2008" unicode="&#x2008;" horiz-adv-x="207" 
 />
    <glyph glyph-name="uni2009" unicode="&#x2009;" horiz-adv-x="200" 
 />
    <glyph glyph-name="uni200A" unicode="&#x200a;" horiz-adv-x="143" 
 />
    <glyph glyph-name="uni200B" unicode="&#x200b;" 
 />
    <glyph glyph-name="endash" unicode="&#x2013;" horiz-adv-x="376" 
d="M346 361v-89h-315v89h315z" />
    <glyph glyph-name="emdash" unicode="&#x2014;" horiz-adv-x="476" 
d="M446 361v-89h-415v89h415z" />
    <glyph glyph-name="quoteleft" unicode="&#x2018;" horiz-adv-x="176" 
d="M27 617l53 139l45 -17l-37 -100q24 -3 38 -19t14 -41q0 -26 -17.5 -43t-43.5 -17t-43 17t-17 43q0 17 8 38z" />
    <glyph glyph-name="quoteright" unicode="&#x2019;" horiz-adv-x="176" 
d="M149 658l-53 -139l-44 17l36 100q-23 3 -37 19t-14 41q0 26 17 43t43 17t43.5 -17t17.5 -43q0 -15 -9 -38z" />
    <glyph glyph-name="quotesinglbase" unicode="&#x201a;" horiz-adv-x="201" 
d="M149 20l-53 -139l-44 17l36 100q-23 3 -37 19t-14 41q0 26 17 43t43 17t43.5 -17t17.5 -43q0 -15 -9 -38z" />
    <glyph glyph-name="quotedblleft" unicode="&#x201c;" horiz-adv-x="346" 
d="M27 617l53 139l45 -17l-37 -100q24 -3 38 -19t14 -41q0 -26 -17.5 -43t-43.5 -17t-43 17t-17 43q0 17 8 38zM197 617l53 139l45 -17l-37 -100q24 -3 38 -19t14 -41q0 -26 -17.5 -43t-43.5 -17t-43 17t-17 43q0 17 8 38z" />
    <glyph glyph-name="quotedblright" unicode="&#x201d;" horiz-adv-x="346" 
d="M149 658l-53 -139l-44 17l36 100q-23 3 -37 19t-14 41q0 26 17 43t43 17t43.5 -17t17.5 -43q0 -15 -9 -38zM319 658l-53 -139l-44 17l36 100q-23 3 -37 19t-14 41q0 26 17 43t43 17t43.5 -17t17.5 -43q0 -15 -9 -38z" />
    <glyph glyph-name="quotedblbase" unicode="&#x201e;" horiz-adv-x="371" 
d="M319 19l-53 -139l-45 17l37 100q-24 3 -38 19t-14 41q0 26 17.5 43t43.5 17t43 -17t17 -43q0 -17 -8 -38zM149 19l-53 -139l-45 17l37 100q-24 3 -38 19t-14 41q0 26 17.5 43t43.5 17t43 -17t17 -43q0 -17 -8 -38z" />
    <glyph glyph-name="dagger" unicode="&#x2020;" horiz-adv-x="359" 
d="M345 449h-115v-350h-100v350h-116v93h116v207h100v-207h115v-93z" />
    <glyph glyph-name="daggerdbl" unicode="&#x2021;" horiz-adv-x="359" 
d="M230 573h115v-93h-331v93h116v177h100v-177zM14 370h331v-93h-115v-182h-100v182h-116v93z" />
    <glyph glyph-name="bullet" unicode="&#x2022;" horiz-adv-x="218" 
d="M52.5 237.5q-22.5 22.5 -22.5 57.5q0 34 22.5 56t57.5 22q34 0 56 -22t22 -56q0 -35 -22 -57.5t-56 -22.5q-35 0 -57.5 22.5z" />
    <glyph glyph-name="ellipsis" unicode="&#x2026;" horiz-adv-x="597" 
d="M60 11q-17 17 -17 44q0 26 17 43t44 17q26 0 43 -17t17 -43q0 -27 -17 -44t-43 -17q-27 0 -44 17zM255 11q-17 17 -17 44q0 26 17 43t44 17q26 0 43 -17t17 -43q0 -27 -17 -44t-43 -17q-27 0 -44 17zM450 11q-17 17 -17 44q0 26 17 43t44 17q26 0 43 -17t17 -43
q0 -27 -17 -44t-43 -17q-27 0 -44 17z" />
    <glyph glyph-name="uni202F" unicode="&#x202f;" horiz-adv-x="124" 
 />
    <glyph glyph-name="perthousand" unicode="&#x2030;" horiz-adv-x="1207" 
d="M590 750h87l-425 -750h-88zM80.5 385q-42.5 43 -42.5 112v110q0 68 42.5 110.5t111.5 42.5q70 0 113 -42.5t43 -110.5v-110q0 -68 -43 -111.5t-113 -43.5q-69 0 -111.5 43zM250.5 436q22.5 24 22.5 61v110q0 37 -22.5 60.5t-58.5 23.5t-57.5 -23.5t-21.5 -60.5v-110
q0 -37 21.5 -61t57.5 -24t58.5 24zM537 33q-43 43 -43 112v110q0 68 43 110.5t112 42.5t112 -42.5t43 -110.5v-110q0 -69 -43 -112t-112 -43t-112 43zM707 84q22 24 22 61v110q0 37 -22 60.5t-58 23.5t-58 -23.5t-22 -60.5v-110q0 -37 22 -61t58 -24t58 24zM902 33
q-43 43 -43 112v110q0 68 43 110.5t112 42.5t112 -42.5t43 -110.5v-110q0 -69 -43 -112t-112 -43t-112 43zM1072 84q22 24 22 61v110q0 37 -22 60.5t-58 23.5t-58 -23.5t-22 -60.5v-110q0 -37 22 -61t58 -24t58 24z" />
    <glyph glyph-name="minute" unicode="&#x2032;" horiz-adv-x="169" 
d="M124.5 740q15.5 -15 15.5 -40q0 -15 -6.5 -33t-22.5 -47l-45 -91h-36v171q0 25 15.5 40t39.5 15t39.5 -15z" />
    <glyph glyph-name="second" unicode="&#x2033;" horiz-adv-x="324" 
d="M124.5 740q15.5 -15 15.5 -40q0 -15 -6.5 -33t-22.5 -47l-45 -91h-36v171q0 25 15.5 40t39.5 15t39.5 -15zM279.5 740q15.5 -15 15.5 -40q0 -15 -6.5 -33t-22.5 -47l-45 -91h-36v171q0 25 15.5 40t39.5 15t39.5 -15z" />
    <glyph glyph-name="guilsinglleft" unicode="&#x2039;" horiz-adv-x="271" 
d="M12 274l120 191h112l-120 -191l120 -191h-112z" />
    <glyph glyph-name="guilsinglright" unicode="&#x203a;" horiz-adv-x="271" 
d="M259 276l-120 -191h-112l120 191l-120 191h112z" />
    <glyph glyph-name="fraction" unicode="&#x2044;" horiz-adv-x="162" 
d="M-13 0h-87l276 750h86z" />
    <glyph glyph-name="uni2053" unicode="&#x2053;" horiz-adv-x="460" 
d="M283.5 241.5q-29.5 8.5 -72.5 23.5q-23 8 -44.5 14.5t-32.5 6.5q-21 0 -31 -11.5t-10 -35.5h-62q-1 71 21.5 101t70.5 30q24 0 53.5 -8.5t72.5 -23.5q23 -8 44.5 -14.5t32.5 -6.5q41 0 41 48h62q1 -71 -21.5 -101.5t-70.5 -30.5q-24 0 -53.5 8.5z" />
    <glyph glyph-name="uni205F" unicode="&#x205f;" horiz-adv-x="222" 
 />
    <glyph glyph-name="uni2070" unicode="&#x2070;" horiz-adv-x="431" 
d="M91.5 495q-47.5 48 -47.5 124v166q0 76 47.5 123.5t124.5 47.5t124.5 -48t47.5 -123v-166q0 -76 -47.5 -124t-124.5 -48t-124.5 48zM151.5 551q24.5 -26 64.5 -26t64.5 26.5t24.5 67.5v166q0 41 -24.5 67.5t-64.5 26.5t-64.5 -26t-24.5 -68v-166q0 -42 24.5 -68z" />
    <glyph glyph-name="uni2074" unicode="&#x2074;" horiz-adv-x="427" 
d="M267 549h-224v67l98 334h83l-93 -328h136v117h78v-117h56v-73h-56v-95h-78v95z" />
    <glyph glyph-name="uni2075" unicode="&#x2075;" horiz-adv-x="453" 
d="M108 487.5q-47 39.5 -47 107.5v5l83 11v-12q0 -38 23 -58.5t64 -20.5q38 0 62 23t24 63v26q0 42 -24 68t-62 26q-37 0 -60 -19t-23 -53v-3h-81v47l22 252h276v-71h-203l-11 -121q34 36 94 36q41 0 76 -19t56.5 -55t21.5 -85v-31q0 -73 -47.5 -114.5t-120.5 -41.5
q-76 0 -123 39.5z" />
    <glyph glyph-name="uni2076" unicode="&#x2076;" horiz-adv-x="445" 
d="M99 492.5q-48 45.5 -48 121.5v169q0 79 47 126t125 47q76 0 121.5 -40.5t45.5 -107.5v-7l-84 -10v15q0 35 -23 56.5t-61 21.5q-40 0 -64 -25.5t-24 -68.5v-75q34 51 109 51q66 0 108.5 -43t42.5 -112v-4q0 -71 -48 -115.5t-123 -44.5q-76 0 -124 45.5zM286 543.5
q25 24.5 25 63.5v5q0 40 -24 64t-64 24q-41 0 -65 -24t-24 -65v-5q0 -38 25 -62.5t64 -24.5q38 0 63 24.5z" />
    <glyph glyph-name="uni2077" unicode="&#x2077;" horiz-adv-x="439" 
d="M277 873h-224v77h316v-59l-172 -437h-88z" />
    <glyph glyph-name="uni2078" unicode="&#x2078;" horiz-adv-x="436" 
d="M90 486.5q-48 39.5 -48 104.5q0 43 22 73.5t61 44.5q-34 15 -54 43.5t-20 66.5q0 62 45.5 99.5t121.5 37.5t121.5 -37.5t45.5 -99.5q0 -38 -19.5 -66.5t-54.5 -43.5q38 -13 60.5 -44t22.5 -74q0 -65 -48 -104.5t-128 -39.5t-128 39.5zM287 538.5q26 21.5 26 56.5
q0 38 -26 59.5t-69 21.5t-68.5 -21.5t-25.5 -59.5q0 -35 26 -56.5t68 -21.5q43 0 69 21.5zM280.5 762q23.5 20 23.5 53q0 32 -23.5 52t-62.5 20t-62.5 -20t-23.5 -52q0 -33 24 -53t62 -20q39 0 62.5 20z" />
    <glyph glyph-name="uni2079" unicode="&#x2079;" horiz-adv-x="445" 
d="M346 910.5q48 -45.5 48 -121.5v-169q0 -79 -47 -126t-125 -47q-76 0 -121.5 40.5t-45.5 107.5v7l84 10v-15q0 -35 23 -56.5t61 -21.5q40 0 64 25.5t24 68.5v75q-34 -51 -109 -51q-66 0 -108.5 43t-42.5 112v4q0 71 48 115.5t123 44.5q76 0 124 -45.5zM159 859.5
q-25 -24.5 -25 -63.5v-5q0 -40 24 -64t64 -24q41 0 65 24t24 65v5q0 38 -25 62.5t-64 24.5q-38 0 -63 -24.5z" />
    <glyph glyph-name="uni2080" unicode="&#x2080;" horiz-adv-x="431" 
d="M91.5 -147q-47.5 48 -47.5 124v166q0 76 47.5 123.5t124.5 47.5t124.5 -48t47.5 -123v-166q0 -76 -47.5 -124t-124.5 -48t-124.5 48zM151.5 -91q24.5 -26 64.5 -26t64.5 26.5t24.5 67.5v166q0 41 -24.5 67.5t-64.5 26.5t-64.5 -26t-24.5 -68v-166q0 -42 24.5 -68z" />
    <glyph glyph-name="uni2081" unicode="&#x2081;" horiz-adv-x="437" 
d="M226 231h-106v77h190v-496h-84v419z" />
    <glyph glyph-name="uni2082" unicode="&#x2082;" horiz-adv-x="442" 
d="M63 -68.5q6 20.5 36 48t99 67.5q50 29 74.5 50t30.5 37t6 36v4q0 29 -21.5 48t-60.5 19t-61.5 -20.5t-22.5 -55.5v-31l-80 11v25q0 66 44 105t118 39t119.5 -38.5t45.5 -101.5v-5q0 -33 -8.5 -59t-39 -56.5t-92.5 -65.5q-64 -35 -84.5 -56.5t-21.5 -47.5l1 3h250v-75
h-338v61q0 38 6 58.5z" />
    <glyph glyph-name="uni2083" unicode="&#x2083;" horiz-adv-x="440" 
d="M85 -156.5q-47 38.5 -47 107.5v12l78 11v-19q0 -37 25.5 -57.5t73.5 -20.5q47 0 71.5 20.5t24.5 59.5v9q0 74 -91 74h-62v63l112 133h-212v72h308v-65l-118 -136q70 -5 107 -43.5t37 -99.5v-8q0 -71 -46.5 -111t-129.5 -40q-84 0 -131 38.5z" />
    <glyph glyph-name="uni2084" unicode="&#x2084;" horiz-adv-x="427" 
d="M267 -93h-224v67l98 334h83l-93 -328h136v117h78v-117h56v-73h-56v-95h-78v95z" />
    <glyph glyph-name="uni2085" unicode="&#x2085;" horiz-adv-x="453" 
d="M108 -154.5q-47 39.5 -47 107.5v5l83 11v-12q0 -38 23 -58.5t64 -20.5q38 0 62 23t24 63v26q0 42 -24 68t-62 26q-37 0 -60 -19t-23 -53v-3h-81v47l22 252h276v-71h-203l-11 -121q34 36 94 36q41 0 76 -19t56.5 -55t21.5 -85v-31q0 -73 -47.5 -114.5t-120.5 -41.5
q-76 0 -123 39.5z" />
    <glyph glyph-name="uni2086" unicode="&#x2086;" horiz-adv-x="445" 
d="M99 -149.5q-48 45.5 -48 121.5v169q0 79 47 126t125 47q76 0 121.5 -40.5t45.5 -107.5v-7l-84 -10v15q0 35 -23 56.5t-61 21.5q-40 0 -64 -25.5t-24 -68.5v-75q34 51 109 51q66 0 108.5 -43t42.5 -112v-4q0 -71 -48 -115.5t-123 -44.5q-76 0 -124 45.5zM286 -98.5
q25 24.5 25 63.5v5q0 40 -24 64t-64 24q-41 0 -65 -24t-24 -65v-5q0 -38 25 -62.5t64 -24.5q38 0 63 24.5z" />
    <glyph glyph-name="uni2087" unicode="&#x2087;" horiz-adv-x="439" 
d="M277 231h-224v77h316v-59l-172 -437h-88z" />
    <glyph glyph-name="uni2088" unicode="&#x2088;" horiz-adv-x="436" 
d="M90 -155.5q-48 39.5 -48 104.5q0 43 22 73.5t61 44.5q-34 15 -54 43.5t-20 66.5q0 62 45.5 99.5t121.5 37.5t121.5 -37.5t45.5 -99.5q0 -38 -19.5 -66.5t-54.5 -43.5q38 -13 60.5 -44t22.5 -74q0 -65 -48 -104.5t-128 -39.5t-128 39.5zM287 -103.5q26 21.5 26 56.5
q0 38 -26 59.5t-69 21.5t-68.5 -21.5t-25.5 -59.5q0 -35 26 -56.5t68 -21.5q43 0 69 21.5zM280.5 120q23.5 20 23.5 53q0 32 -23.5 52t-62.5 20t-62.5 -20t-23.5 -52q0 -33 24 -53t62 -20q39 0 62.5 20z" />
    <glyph glyph-name="uni2089" unicode="&#x2089;" horiz-adv-x="445" 
d="M346 268.5q48 -45.5 48 -121.5v-169q0 -79 -47 -126t-125 -47q-76 0 -121.5 40.5t-45.5 107.5v7l84 10v-15q0 -35 23 -56.5t61 -21.5q40 0 64 25.5t24 68.5v75q-34 -51 -109 -51q-66 0 -108.5 43t-42.5 112v4q0 71 48 115.5t123 44.5q76 0 124 -45.5zM159 217.5
q-25 -24.5 -25 -63.5v-5q0 -40 24 -64t64 -24q41 0 65 24t24 65v5q0 38 -25 62.5t-64 24.5q-38 0 -63 -24.5z" />
    <glyph glyph-name="colonmonetary" unicode="&#x20a1;" horiz-adv-x="566" 
d="M403 778l-15 -38q31 -14 51 -31l27 68l57 -19l-39 -98q39 -58 39 -136v-45l-100 -18v46l-168 -422q18 -2 28 -2q62 0 101 40t39 106v73l100 -18v-55q0 -71 -30.5 -125t-85 -84t-124.5 -30q-35 0 -63 7l-19 -47l-57 19l19 48q-28 14 -49 35l-33 -82l-57 19l47 118
q-29 53 -29 122v295q0 70 31 123.5t85.5 83t124.5 29.5q27 0 47 -4l16 41zM294 668h-11q-62 0 -101.5 -40t-39.5 -106v-237zM199 108l200 501q-17 26 -46 42l-197 -492q14 -30 43 -51z" />
    <glyph glyph-name="dong" unicode="&#x20ab;" horiz-adv-x="573" 
d="M135 165.5q-43 25.5 -68 71.5t-25 107v12q0 61 25.5 107.5t69 71.5t98.5 25q53 0 89.5 -24t57.5 -65h3v146h-159v78h159v55h99v-55h48v-78h-48v-467h-86l-10 76h-4q-23 -39 -61.5 -62.5t-91.5 -23.5t-96 25.5zM42 78h490v-78h-490v78zM349.5 262.5q35.5 32.5 35.5 80.5
v17q0 49 -35.5 79.5t-89.5 30.5q-53 0 -86 -31.5t-33 -81.5v-13q0 -50 33.5 -82t87.5 -32q52 0 87.5 32.5z" />
    <glyph glyph-name="Euro" unicode="&#x20ac;" horiz-adv-x="547" 
d="M400 734q51 -26 79.5 -74t28.5 -112v-8l-99 -12v20q0 60 -33 91.5t-91 31.5t-92 -33t-34 -97v-57h225l-12 -76h-213v-64h204l-13 -75h-191v-61q0 -64 33.5 -96t89.5 -32q59 0 93 32t34 92v19l99 -12v-10q0 -64 -28 -111.5t-78.5 -73.5t-116.5 -26q-65 0 -116 25.5t-80 75
t-29 118.5v60h-69v75h69v64h-69v76h69v58q0 69 29 118t79 74.5t114 25.5q67 0 118 -26z" />
    <glyph glyph-name="uni20B1" unicode="&#x20b1;" horiz-adv-x="590" 
d="M88 387h-81v72h81v102h-81v71h81v118h192q157 0 203 -118h100v-71h-84q2 -26 2 -42v-16q0 -16 -2 -44h84v-72h-101q-47 -117 -202 -117h-92v-270h-100v387zM371 397q29 34 29 106v16q0 68 -29.5 103t-87.5 35h-95v-294h95q59 0 88 34z" />
    <glyph glyph-name="uni20B2" unicode="&#x20b2;" horiz-adv-x="565" 
d="M333 860v-104q86 -15 138 -77t53 -154v-35l-101 -13v45q0 65 -39 105t-101 40t-101.5 -40t-39.5 -105v-292q0 -66 39.5 -106t101.5 -40t101 40t39 106v52h-122v94h223v-146q0 -93 -52.5 -156.5t-138.5 -78.5v-105h-92v104q-90 13 -144.5 76.5t-54.5 159.5v294
q0 94 54.5 157t144.5 76v103h92z" />
    <glyph glyph-name="uni20BA" unicode="&#x20ba;" horiz-adv-x="540" 
d="M70 284l-56 -20v88l56 20v67l-56 -20v88l56 20v223h101v-188l177 63v-88l-177 -63v-67l177 63v-88l-177 -63v-226h78q66 0 105.5 40.5t39.5 110.5v75l100 -12v-63q0 -74 -30.5 -129t-86 -85t-128.5 -30h-179v284z" />
    <glyph glyph-name="uni20BD" unicode="&#x20bd;" horiz-adv-x="572" 
d="M6 228h327v-83h-119v-145h-100v145h-108v83zM6 396h108v354h207q100 0 160.5 -53.5t60.5 -164.5v-12q0 -110 -61.5 -163.5t-159.5 -53.5h-315v93zM324 396q117 0 117 124v11q0 64 -31 95t-86 31h-110v-261h110z" />
    <glyph glyph-name="uni20BF" unicode="&#x20bf;" horiz-adv-x="545" 
d="M50 750h84v110h83v-110h80v110h82v-121q55 -18 83.5 -61t28.5 -105v-41q0 -96 -73 -140q91 -35 91 -146v-67q0 -70 -33 -115t-97 -58v-116h-82v110h-80v-110h-83v110h-84v750zM384.5 116q23.5 23 23.5 74v55q0 51 -23 73t-74 22h-161v-247h161q50 0 73.5 23zM367 457.5
q24 24.5 24 75.5v29q0 95 -98 95h-143v-224h143q50 0 74 24.5z" />
    <glyph glyph-name="uni2116" unicode="&#x2116;" horiz-adv-x="958" 
d="M50 750h99l285 -541v541h97v-750h-99l-285 541v-541h-97v750zM685 358q-38 21 -59 59t-21 86v91q0 48 21 86t59 59.5t85 21.5q72 0 118 -47t46 -120v-91q0 -73 -46 -119.5t-118 -46.5q-47 0 -85 21zM708 437.5q24 -26.5 62 -26.5t61.5 26.5t23.5 69.5v84q0 44 -23.5 70.5
t-61.5 26.5t-62 -27t-24 -70v-84q0 -43 24 -69.5zM909 215h-105v-93h-69v93h-104v66h278v-66z" />
    <glyph glyph-name="uni2117" unicode="&#x2117;" horiz-adv-x="853" 
d="M231 40.5q-88 50.5 -138 138.5t-50 196t50 196t138 138.5t195 50.5q108 0 196 -50.5t138 -138.5t50 -196t-50 -196t-138 -138.5t-196 -50.5q-107 0 -195 50.5zM593.5 87q74.5 43 116 118.5t41.5 169.5t-41.5 170t-116 119t-167.5 43t-167 -43t-115.5 -119t-41.5 -170
t41.5 -169.5t115.5 -118.5t167 -43t167.5 43zM287 611h151q74 0 114.5 -36t40.5 -112v-28q0 -72 -42 -110t-113 -38h-72v-146h-79v470zM494.5 378.5q19.5 20.5 19.5 56.5v28q0 37 -19.5 57t-54.5 20h-74v-182h74q35 0 54.5 20.5z" />
    <glyph glyph-name="trademark" unicode="&#x2122;" horiz-adv-x="825" 
d="M386 750h121l87 -304l89 304h118v-495h-87v337l-96 -337h-50l-97 336v-336h-85v495zM141 670h-117v79h322v-79h-120v-416h-85v416z" />
    <glyph glyph-name="estimated" unicode="&#x212e;" horiz-adv-x="898" 
d="M259 27q-83 41 -129.5 116.5t-46.5 176.5q0 98 46.5 174t130 118.5t189.5 42.5q108 0 188.5 -40t126.5 -117t51 -186h-582q-8 0 -11.5 -3t-3.5 -15v-164q0 -19 30.5 -47.5t83.5 -49.5t117 -21q67 0 129 29.5t102 77.5h68q-65 -73 -131 -103t-168 -30q-107 0 -190 41z
M676 334q3 3 3 12v162q0 25 -36 54t-90.5 48.5t-104.5 19.5q-61 0 -113.5 -21.5t-84.5 -50t-32 -44.5v-175q0 -8 15 -8h430q10 0 13 3z" />
    <glyph glyph-name="oneeighth" unicode="&#x215b;" horiz-adv-x="887" 
d="M203 681h-95v69h171v-446h-76v377zM337 0h-87l276 750h86zM576.5 28.5q-43.5 35.5 -43.5 94.5q0 39 20 66.5t55 39.5q-31 13 -49 38.5t-18 60.5q0 56 41 89.5t109 33.5t109.5 -33.5t41.5 -89.5q0 -34 -18 -59.5t-49 -39.5q35 -12 55 -39.5t20 -66.5q0 -59 -43.5 -94.5
t-115.5 -35.5q-71 0 -114.5 35.5zM753.5 75.5q23.5 19.5 23.5 51.5q0 33 -23.5 52.5t-62.5 19.5q-38 0 -61 -19.5t-23 -52.5q0 -32 23 -51.5t61 -19.5q39 0 62.5 19.5zM747.5 277q21.5 18 21.5 48q0 28 -21.5 46t-56.5 18t-56 -18t-21 -46q0 -30 21.5 -48t55.5 -18
q35 0 56.5 18z" />
    <glyph glyph-name="threeeighths" unicode="&#x215c;" horiz-adv-x="916" 
d="M76.5 332q-42.5 35 -42.5 97v11l70 9v-17q0 -33 23 -51.5t67 -18.5q41 0 63.5 18.5t22.5 53.5v8q0 67 -82 67h-56v57l101 119h-191v65h277v-58l-106 -123q64 -4 97 -38.5t33 -90.5v-7q0 -64 -42 -100t-117 -36t-117.5 35zM366 0h-87l276 750h86zM605.5 28.5
q-43.5 35.5 -43.5 94.5q0 39 20 66.5t55 39.5q-31 13 -49 38.5t-18 60.5q0 56 41 89.5t109 33.5t109.5 -33.5t41.5 -89.5q0 -34 -18 -59.5t-49 -39.5q35 -12 55 -39.5t20 -66.5q0 -59 -43.5 -94.5t-115.5 -35.5q-71 0 -114.5 35.5zM782.5 75.5q23.5 19.5 23.5 51.5
q0 33 -23.5 52.5t-62.5 19.5q-38 0 -61 -19.5t-23 -52.5q0 -32 23 -51.5t61 -19.5q39 0 62.5 19.5zM776.5 277q21.5 18 21.5 48q0 28 -21.5 46t-56.5 18t-56 -18t-21 -46q0 -30 21.5 -48t55.5 -18q35 0 56.5 18z" />
    <glyph glyph-name="fiveeighths" unicode="&#x215d;" horiz-adv-x="924" 
d="M97.5 334q-42.5 36 -42.5 97v4l75 10v-11q0 -35 20.5 -53t57.5 -18q34 0 55.5 20.5t21.5 56.5v24q0 38 -21.5 61t-55.5 23q-33 0 -54 -17t-21 -47v-3h-73v42l20 227h249v-64h-183l-10 -109q31 33 85 33q37 0 68.5 -17t50.5 -49.5t19 -76.5v-28q0 -66 -42.5 -103.5
t-108.5 -37.5q-68 0 -110.5 36zM374 0h-87l276 750h86zM613.5 28.5q-43.5 35.5 -43.5 94.5q0 39 20 66.5t55 39.5q-31 13 -49 38.5t-18 60.5q0 56 41 89.5t109 33.5t109.5 -33.5t41.5 -89.5q0 -34 -18 -59.5t-49 -39.5q35 -12 55 -39.5t20 -66.5q0 -59 -43.5 -94.5
t-115.5 -35.5q-71 0 -114.5 35.5zM790.5 75.5q23.5 19.5 23.5 51.5q0 33 -23.5 52.5t-62.5 19.5q-38 0 -61 -19.5t-23 -52.5q0 -32 23 -51.5t61 -19.5q39 0 62.5 19.5zM784.5 277q21.5 18 21.5 48q0 28 -21.5 46t-56.5 18t-56 -18t-21 -46q0 -30 21.5 -48t55.5 -18
q35 0 56.5 18z" />
    <glyph glyph-name="seveneighths" unicode="&#x215e;" horiz-adv-x="857" 
d="M249 681h-201v69h284v-53l-155 -393h-79zM307 0h-87l276 750h86zM546.5 28.5q-43.5 35.5 -43.5 94.5q0 39 20 66.5t55 39.5q-31 13 -49 38.5t-18 60.5q0 56 41 89.5t109 33.5t109.5 -33.5t41.5 -89.5q0 -34 -18 -59.5t-49 -39.5q35 -12 55 -39.5t20 -66.5
q0 -59 -43.5 -94.5t-115.5 -35.5q-71 0 -114.5 35.5zM723.5 75.5q23.5 19.5 23.5 51.5q0 33 -23.5 52.5t-62.5 19.5q-38 0 -61 -19.5t-23 -52.5q0 -32 23 -51.5t61 -19.5q39 0 62.5 19.5zM717.5 277q21.5 18 21.5 48q0 28 -21.5 46t-56.5 18t-56 -18t-21 -46q0 -30 21.5 -48
t55.5 -18q35 0 56.5 18z" />
    <glyph glyph-name="arrowleft" unicode="&#x2190;" horiz-adv-x="826" 
d="M187 342l161 -161h-117l-200 203l200 203h117l-161 -161h609v-84h-609z" />
    <glyph glyph-name="arrowup" unicode="&#x2191;" horiz-adv-x="496" 
d="M206 609l-161 -161v117l203 200l203 -200v-117l-161 161v-609h-84v609z" />
    <glyph glyph-name="arrowright" unicode="&#x2192;" horiz-adv-x="826" 
d="M640 421l-161 161h117l200 -203l-200 -203h-117l161 161h-609v84h609z" />
    <glyph glyph-name="arrowdown" unicode="&#x2193;" horiz-adv-x="496" 
d="M290 141l161 161v-117l-203 -200l-203 200v117l161 -161v609h84v-609z" />
    <glyph glyph-name="arrowboth" unicode="&#x2194;" horiz-adv-x="902" 
d="M31 362l200 203h117l-161 -161h528l-160 161h117l200 -203l-200 -203h-117l160 161h-528l161 -161h-117z" />
    <glyph glyph-name="arrowupdn" unicode="&#x2195;" horiz-adv-x="496" 
d="M45 185v117l161 -160v467l-161 -161v117l203 200l203 -200v-117l-161 161v-467l161 160v-117l-203 -200z" />
    <glyph glyph-name="uni2196" unicode="&#x2196;" horiz-adv-x="651" 
d="M137 513v-227l-83 82l2 285l285 2l83 -82h-228l431 -431l-60 -59z" />
    <glyph glyph-name="uni2197" unicode="&#x2197;" horiz-adv-x="650" 
d="M454 572h-227l82 83l285 -2l2 -285l-82 -83v228l-431 -431l-59 59z" />
    <glyph glyph-name="uni2198" unicode="&#x2198;" horiz-adv-x="651" 
d="M514 198v228l83 -83l-2 -285l-285 -2l-83 83h228l-431 430l59 60z" />
    <glyph glyph-name="uni2199" unicode="&#x2199;" horiz-adv-x="650" 
d="M195 139h228l-83 -83l-285 2l-2 285l83 83v-228l430 431l60 -59z" />
    <glyph glyph-name="partialdiff" unicode="&#x2202;" horiz-adv-x="531" 
d="M468 97q-28 -51 -80.5 -79t-122.5 -28q-69 0 -121 28t-80.5 78t-28.5 115v46q0 63 26 111t72.5 75t106.5 27q110 0 156 -79v105q0 85 -36 124t-117 39h-199v91h199q121 0 187 -64.5t66 -190.5v-280q0 -67 -28 -118zM169 118.5q34 -36.5 97 -36.5q65 0 97.5 38.5
t32.5 98.5v30q0 57 -35 93t-96 36q-62 0 -96 -34.5t-34 -91.5v-37q0 -60 34 -96.5z" />
    <glyph glyph-name="emptyset" unicode="&#x2205;" horiz-adv-x="710" 
d="M163 52l-64 -76l-37 30l65 77q-44 43 -68.5 102.5t-24.5 128.5q0 90 42 163.5t115 116t163 42.5q108 0 192 -60l65 76l37 -30l-65 -77q44 -44 68.5 -103.5t24.5 -127.5q0 -91 -42 -164.5t-115.5 -115.5t-164.5 -42q-107 0 -191 60zM493.5 75q61.5 36 96 98.5t34.5 140.5
q0 57 -19 107t-54 86l-356 -418q67 -50 159 -50q78 0 139.5 36zM105 207q19 -50 54 -87l356 419q-70 49 -161 49q-77 0 -138 -35.5t-95.5 -98t-34.5 -140.5q0 -57 19 -107z" />
    <glyph glyph-name="minus" unicode="&#x2212;" horiz-adv-x="429" 
d="M398 333h-367v96h367v-96z" />
    <glyph glyph-name="radical" unicode="&#x221a;" horiz-adv-x="551" 
d="M267 118l176 632h101l-215 -750h-123l-113 352h-91v81h165l96 -315h4z" />
    <glyph glyph-name="infinity" unicode="&#x221e;" horiz-adv-x="602" 
d="M73.5 267q-42.5 39 -42.5 100v1q0 62 42.5 101t110.5 39q39 0 70.5 -17t46.5 -46q16 29 47.5 46t71.5 17q67 0 109.5 -39t42.5 -101v-1q0 -61 -42.5 -100t-109.5 -39q-40 0 -71.5 17t-47.5 47q-15 -29 -46.5 -46.5t-70.5 -17.5q-68 0 -110.5 39zM249 324q22 16 22 43v1
q0 27 -22 43.5t-57 16.5q-34 0 -55 -16.5t-21 -43.5v-1q0 -27 21 -43t55 -16q35 0 57 16zM465 324q21 16 21 43v1q0 27 -21 43.5t-54 16.5q-35 0 -57 -16.5t-22 -43.5v-1q0 -27 22 -43t57 -16q33 0 54 16z" />
    <glyph glyph-name="integral" unicode="&#x222b;" horiz-adv-x="406" 
d="M17 88h57q36 0 57.5 23t21.5 63v405q0 81 49.5 128.5t129.5 47.5h58v-93h-58q-36 0 -57.5 -22.5t-21.5 -62.5v-405q0 -82 -49.5 -129.5t-129.5 -47.5h-57v93z" />
    <glyph glyph-name="approxequal" unicode="&#x2248;" horiz-adv-x="460" 
d="M283.5 411.5q-29.5 8.5 -72.5 23.5q-23 8 -44.5 14.5t-32.5 6.5q-21 0 -31 -11.5t-10 -35.5h-62q-1 71 21.5 101t70.5 30q24 0 53.5 -8.5t72.5 -23.5q23 -8 44.5 -14.5t32.5 -6.5q41 0 41 48h62q1 -71 -21.5 -101.5t-70.5 -30.5q-24 0 -53.5 8.5zM283.5 211.5
q-29.5 8.5 -72.5 23.5q-23 8 -44.5 14.5t-32.5 6.5q-21 0 -31 -11.5t-10 -35.5h-62q-1 71 21.5 101t70.5 30q24 0 53.5 -8.5t72.5 -23.5q23 -8 44.5 -14.5t32.5 -6.5q41 0 41 48h62q1 -71 -21.5 -101.5t-70.5 -30.5q-24 0 -53.5 8.5z" />
    <glyph glyph-name="notequal" unicode="&#x2260;" horiz-adv-x="429" 
d="M129 243h-98v96h133l31 84h-164v96h199l33 90h55l-33 -90h113v-96h-148l-31 -84h179v-96h-214l-34 -94h-55z" />
    <glyph glyph-name="lessequal" unicode="&#x2264;" horiz-adv-x="548" 
d="M100 750h100v-325h318v-98h-318v-327h-100v750z" />
    <glyph glyph-name="greaterequal" unicode="&#x2265;" horiz-adv-x="548" 
d="M348 0v327h-317v98h317v325h100v-750h-100z" />
    <glyph glyph-name="uni2460" unicode="&#x2460;" horiz-adv-x="857" 
d="M233 40.5q-88 50.5 -138 138.5t-50 196t50 196t138 138.5t195 50.5q108 0 196 -50.5t138 -138.5t50 -196t-50 -196t-138 -138.5t-196 -50.5q-107 0 -195 50.5zM594 90q74 43 115.5 117.5t41.5 167.5t-41.5 168t-115 118t-166.5 43q-92 0 -165.5 -43t-114.5 -118t-41 -168
t41 -167.5t114.5 -117.5t165.5 -43t166 43zM404 546h-106v77h190v-496h-84v419z" />
    <glyph glyph-name="uni2461" unicode="&#x2461;" horiz-adv-x="857" 
d="M233 40.5q-88 50.5 -138 138.5t-50 196t50 196t138 138.5t195 50.5q108 0 196 -50.5t138 -138.5t50 -196t-50 -196t-138 -138.5t-196 -50.5q-107 0 -195 50.5zM594 90q74 43 115.5 117.5t41.5 167.5t-41.5 168t-115 118t-166.5 43q-92 0 -165.5 -43t-114.5 -118t-41 -168
t41 -167.5t114.5 -117.5t165.5 -43t166 43zM265 253.5q6 20.5 36 48t99 67.5q50 29 74.5 50t30.5 37t6 36v4q0 29 -21.5 48t-60.5 19t-61.5 -20.5t-22.5 -55.5v-31l-80 11v25q0 66 44 105t118 39t119.5 -38.5t45.5 -101.5v-5q0 -33 -8.5 -59t-39 -56.5t-92.5 -65.5
q-64 -35 -84.5 -56.5t-21.5 -47.5l1 3h250v-75h-338v61q0 38 6 58.5z" />
    <glyph glyph-name="uni2462" unicode="&#x2462;" horiz-adv-x="857" 
d="M233 40.5q-88 50.5 -138 138.5t-50 196t50 196t138 138.5t195 50.5q108 0 196 -50.5t138 -138.5t50 -196t-50 -196t-138 -138.5t-196 -50.5q-107 0 -195 50.5zM594 90q74 43 115.5 117.5t41.5 167.5t-41.5 168t-115 118t-166.5 43q-92 0 -165.5 -43t-114.5 -118t-41 -168
t41 -167.5t114.5 -117.5t165.5 -43t166 43zM299 155.5q-47 38.5 -47 107.5v12l78 11v-19q0 -37 25.5 -57.5t73.5 -20.5q47 0 71.5 20.5t24.5 59.5v9q0 74 -91 74h-62v63l112 133h-212v72h308v-65l-118 -136q70 -5 107 -43.5t37 -99.5v-8q0 -71 -46.5 -111t-129.5 -40
q-84 0 -131 38.5z" />
    <glyph glyph-name="uni2463" unicode="&#x2463;" horiz-adv-x="857" 
d="M233 40.5q-88 50.5 -138 138.5t-50 196t50 196t138 138.5t195 50.5q108 0 196 -50.5t138 -138.5t50 -196t-50 -196t-138 -138.5t-196 -50.5q-107 0 -195 50.5zM594 90q74 43 115.5 117.5t41.5 167.5t-41.5 168t-115 118t-166.5 43q-92 0 -165.5 -43t-114.5 -118t-41 -168
t41 -167.5t114.5 -117.5t165.5 -43t166 43zM474 223h-224v67l98 334h83l-93 -328h136v117h78v-117h56v-73h-56v-95h-78v95z" />
    <glyph glyph-name="uni2464" unicode="&#x2464;" horiz-adv-x="857" 
d="M233 40.5q-88 50.5 -138 138.5t-50 196t50 196t138 138.5t195 50.5q108 0 196 -50.5t138 -138.5t50 -196t-50 -196t-138 -138.5t-196 -50.5q-107 0 -195 50.5zM594 90q74 43 115.5 117.5t41.5 167.5t-41.5 168t-115 118t-166.5 43q-92 0 -165.5 -43t-114.5 -118t-41 -168
t41 -167.5t114.5 -117.5t165.5 -43t166 43zM308 157.5q-47 39.5 -47 107.5v5l83 11v-12q0 -38 23 -58.5t64 -20.5q38 0 62 23t24 63v26q0 42 -24 68t-62 26q-37 0 -60 -19t-23 -53v-3h-81v47l22 252h276v-71h-203l-11 -121q34 36 94 36q41 0 76 -19t56.5 -55t21.5 -85v-31
q0 -73 -47.5 -114.5t-120.5 -41.5q-76 0 -123 39.5z" />
    <glyph glyph-name="uni2465" unicode="&#x2465;" horiz-adv-x="857" 
d="M233 40.5q-88 50.5 -138 138.5t-50 196t50 196t138 138.5t195 50.5q108 0 196 -50.5t138 -138.5t50 -196t-50 -196t-138 -138.5t-196 -50.5q-107 0 -195 50.5zM594 90q74 43 115.5 117.5t41.5 167.5t-41.5 168t-115 118t-166.5 43q-92 0 -165.5 -43t-114.5 -118t-41 -168
t41 -167.5t114.5 -117.5t165.5 -43t166 43zM306 166.5q-48 45.5 -48 121.5v169q0 79 47 126t125 47q76 0 121.5 -40.5t45.5 -107.5v-7l-84 -10v15q0 35 -23 56.5t-61 21.5q-40 0 -64 -25.5t-24 -68.5v-75q34 51 109 51q66 0 108.5 -43t42.5 -112v-4q0 -71 -48 -115.5
t-123 -44.5q-76 0 -124 45.5zM493 217.5q25 24.5 25 63.5v5q0 40 -24 64t-64 24q-41 0 -65 -24t-24 -65v-5q0 -38 25 -62.5t64 -24.5q38 0 63 24.5z" />
    <glyph glyph-name="uni2466" unicode="&#x2466;" horiz-adv-x="857" 
d="M233 40.5q-88 50.5 -138 138.5t-50 196t50 196t138 138.5t195 50.5q108 0 196 -50.5t138 -138.5t50 -196t-50 -196t-138 -138.5t-196 -50.5q-107 0 -195 50.5zM594 90q74 43 115.5 117.5t41.5 167.5t-41.5 168t-115 118t-166.5 43q-92 0 -165.5 -43t-114.5 -118t-41 -168
t41 -167.5t114.5 -117.5t165.5 -43t166 43zM495 539h-224v77h316v-59l-172 -437h-88z" />
    <glyph glyph-name="uni2467" unicode="&#x2467;" horiz-adv-x="857" 
d="M233 40.5q-88 50.5 -138 138.5t-50 196t50 196t138 138.5t195 50.5q108 0 196 -50.5t138 -138.5t50 -196t-50 -196t-138 -138.5t-196 -50.5q-107 0 -195 50.5zM594 90q74 43 115.5 117.5t41.5 167.5t-41.5 168t-115 118t-166.5 43q-92 0 -165.5 -43t-114.5 -118t-41 -168
t41 -167.5t114.5 -117.5t165.5 -43t166 43zM301 160.5q-48 39.5 -48 104.5q0 43 22 73.5t61 44.5q-34 15 -54 43.5t-20 66.5q0 62 45.5 99.5t121.5 37.5t121.5 -37.5t45.5 -99.5q0 -38 -19.5 -66.5t-54.5 -43.5q38 -13 60.5 -44t22.5 -74q0 -65 -48 -104.5t-128 -39.5
t-128 39.5zM498 212.5q26 21.5 26 56.5q0 38 -26 59.5t-69 21.5t-68.5 -21.5t-25.5 -59.5q0 -35 26 -56.5t68 -21.5q43 0 69 21.5zM491.5 436q23.5 20 23.5 53q0 32 -23.5 52t-62.5 20t-62.5 -20t-23.5 -52q0 -33 24 -53t62 -20q39 0 62.5 20z" />
    <glyph glyph-name="uni2468" unicode="&#x2468;" horiz-adv-x="857" 
d="M233 40.5q-88 50.5 -138 138.5t-50 196t50 196t138 138.5t195 50.5q108 0 196 -50.5t138 -138.5t50 -196t-50 -196t-138 -138.5t-196 -50.5q-107 0 -195 50.5zM594 90q74 43 115.5 117.5t41.5 167.5t-41.5 168t-115 118t-166.5 43q-92 0 -165.5 -43t-114.5 -118t-41 -168
t41 -167.5t114.5 -117.5t165.5 -43t166 43zM554 584.5q48 -45.5 48 -121.5v-169q0 -79 -47 -126t-125 -47q-76 0 -121.5 40.5t-45.5 107.5v7l84 10v-15q0 -35 23 -56.5t61 -21.5q40 0 64 25.5t24 68.5v75q-34 -51 -109 -51q-66 0 -108.5 43t-42.5 112v4q0 71 48 115.5
t123 44.5q76 0 124 -45.5zM367 533.5q-25 -24.5 -25 -63.5v-5q0 -40 24 -64t64 -24q41 0 65 24t24 65v5q0 38 -25 62.5t-64 24.5q-38 0 -63 -24.5z" />
    <glyph glyph-name="uni24EA" unicode="&#x24ea;" horiz-adv-x="857" 
d="M233 40.5q-88 50.5 -138 138.5t-50 196t50 196t138 138.5t195 50.5q108 0 196 -50.5t138 -138.5t50 -196t-50 -196t-138 -138.5t-196 -50.5q-107 0 -195 50.5zM594 90q74 43 115.5 117.5t41.5 167.5t-41.5 168t-115 118t-166.5 43q-92 0 -165.5 -43t-114.5 -118t-41 -168
t41 -167.5t114.5 -117.5t165.5 -43t166 43zM304.5 169q-47.5 48 -47.5 124v166q0 76 47.5 123.5t124.5 47.5t124.5 -48t47.5 -123v-166q0 -76 -47.5 -124t-124.5 -48t-124.5 48zM364.5 225q24.5 -26 64.5 -26t64.5 26.5t24.5 67.5v166q0 41 -24.5 67.5t-64.5 26.5t-64.5 -26
t-24.5 -68v-166q0 -42 24.5 -68z" />
    <glyph glyph-name="uni24FF" unicode="&#x24ff;" horiz-adv-x="857" 
d="M624 40.5q88 50.5 138 138.5t50 196t-50 196t-138 138.5t-196 50.5q-107 0 -195 -50.5t-138 -138.5t-50 -196t50 -196t138 -138.5t195 -50.5q108 0 196 50.5zM304.5 169q-47.5 48 -47.5 124v166q0 76 47.5 123.5t124.5 47.5t124.5 -48t47.5 -123v-166q0 -76 -47.5 -124
t-124.5 -48t-124.5 48zM364.5 225q24.5 -26 64.5 -26t64.5 26.5t24.5 67.5v166q0 41 -24.5 67.5t-64.5 26.5t-64.5 -26t-24.5 -68v-166q0 -42 24.5 -68z" />
    <glyph glyph-name="lozenge" unicode="&#x25ca;" horiz-adv-x="476" 
d="M299 0h-123l-143 373l144 377h123l143 -373zM338 366l-104 270l-95 -252l103 -270z" />
    <glyph glyph-name="uni2776" unicode="&#x2776;" horiz-adv-x="857" 
d="M624 40.5q88 50.5 138 138.5t50 196t-50 196t-138 138.5t-196 50.5q-107 0 -195 -50.5t-138 -138.5t-50 -196t50 -196t138 -138.5t195 -50.5q108 0 196 50.5zM414 546h-106v77h190v-496h-84v419z" />
    <glyph glyph-name="uni2777" unicode="&#x2777;" horiz-adv-x="857" 
d="M624 40.5q88 50.5 138 138.5t50 196t-50 196t-138 138.5t-196 50.5q-107 0 -195 -50.5t-138 -138.5t-50 -196t50 -196t138 -138.5t195 -50.5q108 0 196 50.5zM268 252.5q6 20.5 36 48t99 67.5q50 29 74.5 50t30.5 37t6 36v4q0 29 -21.5 48t-60.5 19t-61.5 -20.5
t-22.5 -55.5v-31l-80 11v25q0 66 44 105t118 39t119.5 -38.5t45.5 -101.5v-5q0 -33 -8.5 -59t-39 -56.5t-92.5 -65.5q-64 -35 -84.5 -56.5t-21.5 -47.5l1 3h250v-75h-338v61q0 38 6 58.5z" />
    <glyph glyph-name="uni2778" unicode="&#x2778;" horiz-adv-x="857" 
d="M624 40.5q88 50.5 138 138.5t50 196t-50 196t-138 138.5t-196 50.5q-107 0 -195 -50.5t-138 -138.5t-50 -196t50 -196t138 -138.5t195 -50.5q108 0 196 50.5zM298 156.5q-47 38.5 -47 107.5v12l78 11v-19q0 -37 25.5 -57.5t73.5 -20.5q47 0 71.5 20.5t24.5 59.5v9
q0 74 -91 74h-62v63l112 133h-212v72h308v-65l-118 -136q70 -5 107 -43.5t37 -99.5v-8q0 -71 -46.5 -111t-129.5 -40q-84 0 -131 38.5z" />
    <glyph glyph-name="uni2779" unicode="&#x2779;" horiz-adv-x="857" 
d="M624 40.5q88 50.5 138 138.5t50 196t-50 196t-138 138.5t-196 50.5q-107 0 -195 -50.5t-138 -138.5t-50 -196t50 -196t138 -138.5t195 -50.5q108 0 196 50.5zM474 223h-224v67l98 334h83l-93 -328h136v117h78v-117h56v-73h-56v-95h-78v95z" />
    <glyph glyph-name="uni277A" unicode="&#x277a;" horiz-adv-x="857" 
d="M624 40.5q88 50.5 138 138.5t50 196t-50 196t-138 138.5t-196 50.5q-107 0 -195 -50.5t-138 -138.5t-50 -196t50 -196t138 -138.5t195 -50.5q108 0 196 50.5zM308 159.5q-47 39.5 -47 107.5v5l83 11v-12q0 -38 23 -58.5t64 -20.5q38 0 62 23t24 63v26q0 42 -24 68t-62 26
q-37 0 -60 -19t-23 -53v-3h-81v47l22 252h276v-71h-203l-11 -121q34 36 94 36q41 0 76 -19t56.5 -55t21.5 -85v-31q0 -73 -47.5 -114.5t-120.5 -41.5q-76 0 -123 39.5z" />
    <glyph glyph-name="uni277B" unicode="&#x277b;" horiz-adv-x="857" 
d="M624 40.5q88 50.5 138 138.5t50 196t-50 196t-138 138.5t-196 50.5q-107 0 -195 -50.5t-138 -138.5t-50 -196t50 -196t138 -138.5t195 -50.5q108 0 196 50.5zM306 166.5q-48 45.5 -48 121.5v169q0 79 47 126t125 47q76 0 121.5 -40.5t45.5 -107.5v-7l-84 -10v15
q0 35 -23 56.5t-61 21.5q-40 0 -64 -25.5t-24 -68.5v-75q34 51 109 51q66 0 108.5 -43t42.5 -112v-4q0 -71 -48 -115.5t-123 -44.5q-76 0 -124 45.5zM493 217.5q25 24.5 25 63.5v5q0 40 -24 64t-64 24q-41 0 -65 -24t-24 -65v-5q0 -38 25 -62.5t64 -24.5q38 0 63 24.5z" />
    <glyph glyph-name="uni277C" unicode="&#x277c;" horiz-adv-x="857" 
d="M624 40.5q88 50.5 138 138.5t50 196t-50 196t-138 138.5t-196 50.5q-107 0 -195 -50.5t-138 -138.5t-50 -196t50 -196t138 -138.5t195 -50.5q108 0 196 50.5zM497 546h-224v77h316v-59l-172 -437h-88z" />
    <glyph glyph-name="uni277D" unicode="&#x277d;" horiz-adv-x="857" 
d="M624 40.5q88 50.5 138 138.5t50 196t-50 196t-138 138.5t-196 50.5q-107 0 -195 -50.5t-138 -138.5t-50 -196t50 -196t138 -138.5t195 -50.5q108 0 196 50.5zM301 160.5q-48 39.5 -48 104.5q0 43 22 73.5t61 44.5q-34 15 -54 43.5t-20 66.5q0 62 45.5 99.5t121.5 37.5
t121.5 -37.5t45.5 -99.5q0 -38 -19.5 -66.5t-54.5 -43.5q38 -13 60.5 -44t22.5 -74q0 -65 -48 -104.5t-128 -39.5t-128 39.5zM498 212.5q26 21.5 26 56.5q0 38 -26 59.5t-69 21.5t-68.5 -21.5t-25.5 -59.5q0 -35 26 -56.5t68 -21.5q43 0 69 21.5zM491.5 436q23.5 20 23.5 53
q0 32 -23.5 52t-62.5 20t-62.5 -20t-23.5 -52q0 -33 24 -53t62 -20q39 0 62.5 20z" />
    <glyph glyph-name="uni277E" unicode="&#x277e;" horiz-adv-x="857" 
d="M624 40.5q88 50.5 138 138.5t50 196t-50 196t-138 138.5t-196 50.5q-107 0 -195 -50.5t-138 -138.5t-50 -196t50 -196t138 -138.5t195 -50.5q108 0 196 50.5zM554 584.5q48 -45.5 48 -121.5v-169q0 -79 -47 -126t-125 -47q-76 0 -121.5 40.5t-45.5 107.5v7l84 10v-15
q0 -35 23 -56.5t61 -21.5q40 0 64 25.5t24 68.5v75q-34 -51 -109 -51q-66 0 -108.5 43t-42.5 112v4q0 71 48 115.5t123 44.5q76 0 124 -45.5zM367 533.5q-25 -24.5 -25 -63.5v-5q0 -40 24 -64t64 -24q41 0 65 24t24 65v5q0 38 -25 62.5t-64 24.5q-38 0 -63 -24.5z" />
    <glyph glyph-name="uniA78B" unicode="&#xa78b;" horiz-adv-x="200" 
d="M50 751h100v-499h-100v499z" />
    <glyph glyph-name="uniA78C" unicode="&#xa78c;" horiz-adv-x="195" 
d="M48 751h99v-499h-99v499z" />
    <glyph glyph-name="uniF8FF" unicode="&#xf8ff;" horiz-adv-x="764" 
d="M546 597h-246v-189q32 -11 63.5 -27t78.5 -42q81 -45 136 -67.5t114 -22.5q25 0 47 4q-10 -13 -35 -22.5t-62 -9.5q-75 0 -160 31.5t-182 81.5v-334h-126v386q-25 10 -52 10q-34 0 -56 -14.5t-22 -42.5q0 -19 10 -35t27 -22q-26 1 -41 18t-15 45q0 40 33.5 65t92.5 25
q14 0 23 -2v284h372v-120z" />
    <glyph glyph-name="uni004A0301" horiz-adv-x="482" 
d="M86.5 46q-56.5 54 -56.5 146v35l100 18v-53q0 -50 28.5 -77.5t74.5 -27.5t74 27.5t28 77.5v558h101v-558q0 -92 -56.5 -146t-146.5 -54t-146.5 54zM364 950h121l-96 -129h-45z" />
    <glyph glyph-name="Cacute.loclPLK" horiz-adv-x="562" 
d="M159 19.5q-55 29.5 -86 83.5t-31 124v297q0 70 31 123.5t86 83t125 29.5q69 0 123.5 -29.5t85 -83t30.5 -123.5v-51l-99 -13l-1 59q-2 68 -39.5 108.5t-99.5 40.5q-64 0 -103 -40t-39 -108v-290q0 -67 39 -107t103 -40q62 0 100 40t39 109l1 65l99 -13v-57
q0 -70 -30.5 -124t-85 -83.5t-123.5 -29.5q-70 0 -125 29.5zM254 950h121l-76 -129h-45v129z" />
    <glyph glyph-name="Nacute.loclPLK" horiz-adv-x="581" 
d="M50 750h99l285 -541v541h97v-750h-99l-285 541v-541h-97v750zM262 950h121l-76 -129h-45v129z" />
    <glyph glyph-name="Oacute.loclPLK" horiz-adv-x="565" 
d="M158 20q-55 30 -85.5 84t-30.5 125v293q0 70 30.5 124.5t85.5 84t125 29.5t124.5 -29.5t85 -84t30.5 -124.5v-293q0 -71 -30.5 -125t-85 -84t-124.5 -30t-125 30zM384 123q39 40 39 106v293q0 66 -39 106t-101 40t-101.5 -40t-39.5 -106v-293q0 -66 39.5 -106t101.5 -40
t101 40zM254 950h121l-76 -129h-45v129z" />
    <glyph glyph-name="Sacute.loclPLK" horiz-adv-x="547" 
d="M151.5 16q-55.5 26 -87 75.5t-31.5 117.5v16l100 15v-22q0 -63 39.5 -99.5t107.5 -36.5q63 0 98.5 32t35.5 86q0 47 -28 77t-86 49l-84 26q-83 26 -127.5 71t-44.5 129q0 95 62 151.5t165 56.5q105 0 167.5 -56.5t62.5 -155.5v-19l-100 -15v29q0 61 -36.5 93t-99.5 32
q-56 0 -88.5 -28.5t-32.5 -77.5q0 -43 27 -71t82 -45l75 -23q87 -27 136.5 -75.5t49.5 -140.5q0 -104 -65 -160.5t-170 -56.5q-72 0 -127.5 26zM245 950h121l-76 -129h-45v129z" />
    <glyph glyph-name="Zacute.loclPLK" horiz-adv-x="489" 
d="M31 72l303 585h-303v93h427v-71l-303 -586h303v-93h-427v72zM216 950h121l-76 -129h-45v129z" />
    <glyph glyph-name="G.ss01" horiz-adv-x="565" 
d="M149 20q-50 29 -78.5 83t-28.5 127v294q0 70 31 123.5t85.5 83t124.5 29.5q69 0 124 -29.5t86 -83t31 -122.5v-35l-101 -13v45q0 65 -39 105t-101 40t-101.5 -40t-39.5 -105v-292q0 -69 39 -107.5t102 -38.5q64 0 102 42.5t38 123.5v32h-122v94h223v-376h-74l-11 102
q-22 -56 -69.5 -83.5t-107.5 -27.5q-63 0 -113 29z" />
    <glyph glyph-name="I.ss01" horiz-adv-x="375" 
d="M27 93h111v564h-111v93h321v-93h-110v-564h110v-93h-321v93z" />
    <glyph glyph-name="C.ss04" horiz-adv-x="800" 
d="M213.5 40.5q-87.5 50.5 -138.5 139t-51 195.5q0 108 50.5 196t138.5 138.5t194 50.5q92 0 169.5 -36.5t130 -101t71.5 -147.5l-97 -21q-20 96 -95 154.5t-179 58.5q-81 0 -145.5 -37.5t-100.5 -104t-36 -150.5t36 -150.5t100.5 -104t145.5 -37.5q69 0 126.5 27t96 75.5
t51.5 111.5l97 -22q-19 -82 -71.5 -147t-130 -101.5t-169.5 -36.5q-106 0 -193.5 50.5z" />
    <glyph glyph-name="Cacute.ss04" horiz-adv-x="800" 
d="M213.5 40.5q-87.5 50.5 -138.5 139t-51 195.5q0 108 50.5 196t138.5 138.5t194 50.5q92 0 169.5 -36.5t130 -101t71.5 -147.5l-97 -21q-20 96 -95 154.5t-179 58.5q-81 0 -145.5 -37.5t-100.5 -104t-36 -150.5t36 -150.5t100.5 -104t145.5 -37.5q69 0 126.5 27t96 75.5
t51.5 111.5l97 -22q-19 -82 -71.5 -147t-130 -101.5t-169.5 -36.5q-106 0 -193.5 50.5zM382 950h121l-96 -129h-45z" />
    <glyph glyph-name="Ccaron.ss04" horiz-adv-x="800" 
d="M213.5 40.5q-87.5 50.5 -138.5 139t-51 195.5q0 108 50.5 196t138.5 138.5t194 50.5q92 0 169.5 -36.5t130 -101t71.5 -147.5l-97 -21q-20 96 -95 154.5t-179 58.5q-81 0 -145.5 -37.5t-100.5 -104t-36 -150.5t36 -150.5t100.5 -104t145.5 -37.5q69 0 126.5 27t96 75.5
t51.5 111.5l97 -22q-19 -82 -71.5 -147t-130 -101.5t-169.5 -36.5q-106 0 -193.5 50.5zM260 950h76l70 -77l69 77h75l-99 -129h-91z" />
    <glyph glyph-name="Ccedilla.ss04" horiz-adv-x="800" 
d="M213.5 40.5q-87.5 50.5 -138.5 139t-51 195.5q0 108 50.5 196t138.5 138.5t194 50.5q92 0 169.5 -36.5t130 -101t71.5 -147.5l-97 -21q-20 96 -95 154.5t-179 58.5q-81 0 -145.5 -37.5t-100.5 -104t-36 -150.5t36 -150.5t100.5 -104t145.5 -37.5q69 0 126.5 27t96 75.5
t51.5 111.5l97 -22q-19 -82 -71.5 -147t-130 -101.5t-169.5 -36.5q-106 0 -193.5 50.5zM421 -199h-121l97 129h44z" />
    <glyph glyph-name="Ccircumflex.ss04" horiz-adv-x="800" 
d="M213.5 40.5q-87.5 50.5 -138.5 139t-51 195.5q0 108 50.5 196t138.5 138.5t194 50.5q92 0 169.5 -36.5t130 -101t71.5 -147.5l-97 -21q-20 96 -95 154.5t-179 58.5q-81 0 -145.5 -37.5t-100.5 -104t-36 -150.5t36 -150.5t100.5 -104t145.5 -37.5q69 0 126.5 27t96 75.5
t51.5 111.5l97 -22q-19 -82 -71.5 -147t-130 -101.5t-169.5 -36.5q-106 0 -193.5 50.5zM550 821h-76l-69 77l-69 -77h-76l100 129h91z" />
    <glyph glyph-name="Cdotaccent.ss04" horiz-adv-x="800" 
d="M213.5 40.5q-87.5 50.5 -138.5 139t-51 195.5q0 108 50.5 196t138.5 138.5t194 50.5q92 0 169.5 -36.5t130 -101t71.5 -147.5l-97 -21q-20 96 -95 154.5t-179 58.5q-81 0 -145.5 -37.5t-100.5 -104t-36 -150.5t36 -150.5t100.5 -104t145.5 -37.5q69 0 126.5 27t96 75.5
t51.5 111.5l97 -22q-19 -82 -71.5 -147t-130 -101.5t-169.5 -36.5q-106 0 -193.5 50.5zM361.5 841.5q-17.5 17.5 -17.5 43.5q0 27 17.5 44t43.5 17q27 0 44 -17t17 -44q0 -26 -17 -43.5t-44 -17.5q-26 0 -43.5 17.5z" />
    <glyph glyph-name="D.ss04" horiz-adv-x="713" 
d="M50 0v750h255q108 0 196 -49t138 -135t50 -191t-50 -191t-138 -135t-196 -49h-255zM151 657v-564h154q79 0 144 37t102 101.5t37 143.5t-37 143.5t-102 101.5t-144 37h-154z" />
    <glyph glyph-name="Dcaron.ss04" horiz-adv-x="713" 
d="M50 0v750h255q108 0 196 -49t138 -135t50 -191t-50 -191t-138 -135t-196 -49h-255zM151 657v-564h154q79 0 144 37t102 101.5t37 143.5t-37 143.5t-102 101.5t-144 37h-154zM162 950h76l70 -77l69 77h75l-99 -129h-91z" />
    <glyph glyph-name="Dcroat.ss04" horiz-adv-x="733" 
d="M70 0v336h-70v78h70v336h255q108 0 196 -49t138 -135t50 -191t-50 -191t-138 -135t-196 -49h-255zM171 657v-243h179v-78h-179v-243h154q79 0 144 37t102 101.5t37 143.5t-37 143.5t-102 101.5t-144 37h-154z" />
    <glyph glyph-name="Eth.ss04" horiz-adv-x="733" 
d="M70 0v336h-70v78h70v336h255q108 0 196 -49t138 -135t50 -191t-50 -191t-138 -135t-196 -49h-255zM171 657v-243h179v-78h-179v-243h154q79 0 144 37t102 101.5t37 143.5t-37 143.5t-102 101.5t-144 37h-154z" />
    <glyph glyph-name="G.ss04" horiz-adv-x="817" 
d="M213.5 40.5q-87.5 50.5 -138.5 139t-51 195.5q0 108 50.5 196t138.5 138.5t194 50.5q88 0 162.5 -32.5t127.5 -91t78 -135.5l-94 -27q-30 89 -103 141.5t-171 52.5q-81 0 -145.5 -37.5t-100.5 -104.5t-36 -151t36 -151t100.5 -104.5t145.5 -37.5q102 0 174.5 51.5
t99.5 138.5h-210v83h322q-3 -103 -52.5 -186.5t-136.5 -131t-197 -47.5q-106 0 -193.5 50.5z" />
    <glyph glyph-name="Gbreve.ss04" horiz-adv-x="817" 
d="M213.5 40.5q-87.5 50.5 -138.5 139t-51 195.5q0 108 50.5 196t138.5 138.5t194 50.5q88 0 162.5 -32.5t127.5 -91t78 -135.5l-94 -27q-30 89 -103 141.5t-171 52.5q-81 0 -145.5 -37.5t-100.5 -104.5t-36 -151t36 -151t100.5 -104.5t145.5 -37.5q102 0 174.5 51.5
t99.5 138.5h-210v83h322q-3 -103 -52.5 -186.5t-136.5 -131t-197 -47.5q-106 0 -193.5 50.5zM293 855.5q-38 34.5 -36 94.5h65q2 -33 22 -51t57 -18t57 18t22 51h63q2 -59 -36.5 -94t-106.5 -35q-69 0 -107 34.5z" />
    <glyph glyph-name="Gcaron.ss04" horiz-adv-x="817" 
d="M213.5 40.5q-87.5 50.5 -138.5 139t-51 195.5q0 108 50.5 196t138.5 138.5t194 50.5q88 0 162.5 -32.5t127.5 -91t78 -135.5l-94 -27q-30 89 -103 141.5t-171 52.5q-81 0 -145.5 -37.5t-100.5 -104.5t-36 -151t36 -151t100.5 -104.5t145.5 -37.5q102 0 174.5 51.5
t99.5 138.5h-210v83h322q-3 -103 -52.5 -186.5t-136.5 -131t-197 -47.5q-106 0 -193.5 50.5zM255 950h76l70 -77l69 77h75l-99 -129h-91z" />
    <glyph glyph-name="Gcircumflex.ss04" horiz-adv-x="817" 
d="M213.5 40.5q-87.5 50.5 -138.5 139t-51 195.5q0 108 50.5 196t138.5 138.5t194 50.5q88 0 162.5 -32.5t127.5 -91t78 -135.5l-94 -27q-30 89 -103 141.5t-171 52.5q-81 0 -145.5 -37.5t-100.5 -104.5t-36 -151t36 -151t100.5 -104.5t145.5 -37.5q102 0 174.5 51.5
t99.5 138.5h-210v83h322q-3 -103 -52.5 -186.5t-136.5 -131t-197 -47.5q-106 0 -193.5 50.5zM545 821h-76l-69 77l-69 -77h-76l100 129h91z" />
    <glyph glyph-name="uni0122.ss04" horiz-adv-x="817" 
d="M213.5 40.5q-87.5 50.5 -138.5 139t-51 195.5q0 108 50.5 196t138.5 138.5t194 50.5q88 0 162.5 -32.5t127.5 -91t78 -135.5l-94 -27q-30 89 -103 141.5t-171 52.5q-81 0 -145.5 -37.5t-100.5 -104.5t-36 -151t36 -151t100.5 -104.5t145.5 -37.5q102 0 174.5 51.5
t99.5 138.5h-210v83h322q-3 -103 -52.5 -186.5t-136.5 -131t-197 -47.5q-106 0 -193.5 50.5zM443 -137l-44 -120l-37 14l32 88q-19 2 -30.5 15t-11.5 33q0 22 13.5 35.5t35.5 13.5q21 0 35 -13.5t14 -35.5q0 -10 -7 -30z" />
    <glyph glyph-name="Gdotaccent.ss04" horiz-adv-x="817" 
d="M213.5 40.5q-87.5 50.5 -138.5 139t-51 195.5q0 108 50.5 196t138.5 138.5t194 50.5q88 0 162.5 -32.5t127.5 -91t78 -135.5l-94 -27q-30 89 -103 141.5t-171 52.5q-81 0 -145.5 -37.5t-100.5 -104.5t-36 -151t36 -151t100.5 -104.5t145.5 -37.5q102 0 174.5 51.5
t99.5 138.5h-210v83h322q-3 -103 -52.5 -186.5t-136.5 -131t-197 -47.5q-106 0 -193.5 50.5zM356.5 841.5q-17.5 17.5 -17.5 43.5q0 27 17.5 44t43.5 17q27 0 44 -17t17 -44q0 -26 -17 -43.5t-44 -17.5q-26 0 -43.5 17.5z" />
    <glyph glyph-name="uni1E20.ss04" horiz-adv-x="817" 
d="M213.5 40.5q-87.5 50.5 -138.5 139t-51 195.5q0 108 50.5 196t138.5 138.5t194 50.5q88 0 162.5 -32.5t127.5 -91t78 -135.5l-94 -27q-30 89 -103 141.5t-171 52.5q-81 0 -145.5 -37.5t-100.5 -104.5t-36 -151t36 -151t100.5 -104.5t145.5 -37.5q102 0 174.5 51.5
t99.5 138.5h-210v83h322q-3 -103 -52.5 -186.5t-136.5 -131t-197 -47.5q-106 0 -193.5 50.5zM252 921h296v-77h-296v77z" />
    <glyph glyph-name="O.ss04" horiz-adv-x="818" 
d="M214.5 41q-88.5 51 -139.5 139t-51 195q0 108 51 196t139.5 138.5t194.5 50.5q107 0 195 -50.5t139 -138.5t51 -196q0 -107 -51 -195.5t-139 -139t-195 -50.5q-106 0 -194.5 51zM555.5 120.5q64.5 37.5 101 104t36.5 150.5t-36.5 150.5t-101 104t-146.5 37.5
t-146.5 -37.5t-101 -104t-36.5 -150.5t36.5 -150.5t101 -104t146.5 -37.5t146.5 37.5z" />
    <glyph glyph-name="Oacute.ss04" horiz-adv-x="818" 
d="M214.5 41q-88.5 51 -139.5 139t-51 195q0 108 51 196t139.5 138.5t194.5 50.5q107 0 195 -50.5t139 -138.5t51 -196q0 -107 -51 -195.5t-139 -139t-195 -50.5q-106 0 -194.5 51zM555.5 120.5q64.5 37.5 101 104t36.5 150.5t-36.5 150.5t-101 104t-146.5 37.5
t-146.5 -37.5t-101 -104t-36.5 -150.5t36.5 -150.5t101 -104t146.5 -37.5t146.5 37.5zM386 950h121l-96 -129h-45z" />
    <glyph glyph-name="Ocircumflex.ss04" horiz-adv-x="818" 
d="M214.5 41q-88.5 51 -139.5 139t-51 195q0 108 51 196t139.5 138.5t194.5 50.5q107 0 195 -50.5t139 -138.5t51 -196q0 -107 -51 -195.5t-139 -139t-195 -50.5q-106 0 -194.5 51zM555.5 120.5q64.5 37.5 101 104t36.5 150.5t-36.5 150.5t-101 104t-146.5 37.5
t-146.5 -37.5t-101 -104t-36.5 -150.5t36.5 -150.5t101 -104t146.5 -37.5t146.5 37.5zM554 821h-76l-69 77l-69 -77h-76l100 129h91z" />
    <glyph glyph-name="uni1ED0.ss04" horiz-adv-x="818" 
d="M214.5 41q-88.5 51 -139.5 139t-51 195q0 108 51 196t139.5 138.5t194.5 50.5q107 0 195 -50.5t139 -138.5t51 -196q0 -107 -51 -195.5t-139 -139t-195 -50.5q-106 0 -194.5 51zM555.5 120.5q64.5 37.5 101 104t36.5 150.5t-36.5 150.5t-101 104t-146.5 37.5
t-146.5 -37.5t-101 -104t-36.5 -150.5t36.5 -150.5t101 -104t146.5 -37.5t146.5 37.5zM554 821h-76l-69 77l-69 -77h-76l100 129h91zM526 1047h109l-88 -115h-39z" />
    <glyph glyph-name="uni1ED8.ss04" horiz-adv-x="818" 
d="M214.5 41q-88.5 51 -139.5 139t-51 195q0 108 51 196t139.5 138.5t194.5 50.5q107 0 195 -50.5t139 -138.5t51 -196q0 -107 -51 -195.5t-139 -139t-195 -50.5q-106 0 -194.5 51zM555.5 120.5q64.5 37.5 101 104t36.5 150.5t-36.5 150.5t-101 104t-146.5 37.5
t-146.5 -37.5t-101 -104t-36.5 -150.5t36.5 -150.5t101 -104t146.5 -37.5t146.5 37.5zM370 -150.5q-15 15.5 -15 38.5q0 24 15 39t39 15t39 -15t15 -39q0 -23 -15 -38.5t-39 -15.5t-39 15.5zM554 821h-76l-69 77l-69 -77h-76l100 129h91z" />
    <glyph glyph-name="uni1ED2.ss04" horiz-adv-x="818" 
d="M214.5 41q-88.5 51 -139.5 139t-51 195q0 108 51 196t139.5 138.5t194.5 50.5q107 0 195 -50.5t139 -138.5t51 -196q0 -107 -51 -195.5t-139 -139t-195 -50.5q-106 0 -194.5 51zM555.5 120.5q64.5 37.5 101 104t36.5 150.5t-36.5 150.5t-101 104t-146.5 37.5
t-146.5 -37.5t-101 -104t-36.5 -150.5t36.5 -150.5t101 -104t146.5 -37.5t146.5 37.5zM364 950h91l99 -129h-76l-69 77l-69 -77h-76zM463 1047h109l18 -115h-39z" />
    <glyph glyph-name="uni1ED4.ss04" horiz-adv-x="818" 
d="M214.5 41q-88.5 51 -139.5 139t-51 195q0 108 51 196t139.5 138.5t194.5 50.5q107 0 195 -50.5t139 -138.5t51 -196q0 -107 -51 -195.5t-139 -139t-195 -50.5q-106 0 -194.5 51zM555.5 120.5q64.5 37.5 101 104t36.5 150.5t-36.5 150.5t-101 104t-146.5 37.5
t-146.5 -37.5t-101 -104t-36.5 -150.5t36.5 -150.5t101 -104t146.5 -37.5t146.5 37.5zM364 950h91l99 -129h-76l-69 77l-69 -77h-76zM572 998q0 31 -68 31v58h11q65 0 95.5 -19.5t30.5 -54.5q0 -29 -19 -46t-54 -22v-23h-52v44q56 3 56 32z" />
    <glyph glyph-name="uni1ED6.ss04" horiz-adv-x="818" 
d="M214.5 41q-88.5 51 -139.5 139t-51 195q0 108 51 196t139.5 138.5t194.5 50.5q107 0 195 -50.5t139 -138.5t51 -196q0 -107 -51 -195.5t-139 -139t-195 -50.5q-106 0 -194.5 51zM555.5 120.5q64.5 37.5 101 104t36.5 150.5t-36.5 150.5t-101 104t-146.5 37.5
t-146.5 -37.5t-101 -104t-36.5 -150.5t36.5 -150.5t101 -104t146.5 -37.5t146.5 37.5zM364 950h91l100 -129h-76l-69 77l-70 -77h-75zM439 990q-19 8 -43 22q-32 19 -45 19q-28 0 -28 -44h-57q-4 107 76 107q20 0 39 -8t43 -22q32 -19 45 -19t20.5 10.5t7.5 32.5h57
q4 -106 -76 -106q-20 0 -39 8z" />
    <glyph glyph-name="Odieresis.ss04" horiz-adv-x="818" 
d="M214.5 41q-88.5 51 -139.5 139t-51 195q0 108 51 196t139.5 138.5t194.5 50.5q107 0 195 -50.5t139 -138.5t51 -196q0 -107 -51 -195.5t-139 -139t-195 -50.5q-106 0 -194.5 51zM555.5 120.5q64.5 37.5 101 104t36.5 150.5t-36.5 150.5t-101 104t-146.5 37.5
t-146.5 -37.5t-101 -104t-36.5 -150.5t36.5 -150.5t101 -104t146.5 -37.5t146.5 37.5zM270.5 842.5q-17.5 17.5 -17.5 42.5q0 27 17 43.5t43 16.5q27 0 43.5 -16.5t16.5 -43.5q0 -26 -16.5 -43t-43.5 -17q-25 0 -42.5 17.5zM461.5 842.5q-17.5 17.5 -17.5 42.5q0 27 17 43.5
t43 16.5q27 0 43.5 -16.5t16.5 -43.5q0 -26 -16.5 -43t-43.5 -17q-25 0 -42.5 17.5z" />
    <glyph glyph-name="uni1ECC.ss04" horiz-adv-x="818" 
d="M214.5 41q-88.5 51 -139.5 139t-51 195q0 108 51 196t139.5 138.5t194.5 50.5q107 0 195 -50.5t139 -138.5t51 -196q0 -107 -51 -195.5t-139 -139t-195 -50.5q-106 0 -194.5 51zM555.5 120.5q64.5 37.5 101 104t36.5 150.5t-36.5 150.5t-101 104t-146.5 37.5
t-146.5 -37.5t-101 -104t-36.5 -150.5t36.5 -150.5t101 -104t146.5 -37.5t146.5 37.5zM370 -150.5q-15 15.5 -15 38.5q0 24 15 39t39 15t39 -15t15 -39q0 -23 -15 -38.5t-39 -15.5t-39 15.5z" />
    <glyph glyph-name="Ograve.ss04" horiz-adv-x="818" 
d="M214.5 41q-88.5 51 -139.5 139t-51 195q0 108 51 196t139.5 138.5t194.5 50.5q107 0 195 -50.5t139 -138.5t51 -196q0 -107 -51 -195.5t-139 -139t-195 -50.5q-106 0 -194.5 51zM555.5 120.5q64.5 37.5 101 104t36.5 150.5t-36.5 150.5t-101 104t-146.5 37.5
t-146.5 -37.5t-101 -104t-36.5 -150.5t36.5 -150.5t101 -104t146.5 -37.5t146.5 37.5zM401 821l-97 129h121l20 -129h-44z" />
    <glyph glyph-name="uni1ECE.ss04" horiz-adv-x="818" 
d="M214.5 41q-88.5 51 -139.5 139t-51 195q0 108 51 196t139.5 138.5t194.5 50.5q107 0 195 -50.5t139 -138.5t51 -196q0 -107 -51 -195.5t-139 -139t-195 -50.5q-106 0 -194.5 51zM555.5 120.5q64.5 37.5 101 104t36.5 150.5t-36.5 150.5t-101 104t-146.5 37.5
t-146.5 -37.5t-101 -104t-36.5 -150.5t36.5 -150.5t101 -104t146.5 -37.5t146.5 37.5zM422 875q14 8 14 23q0 16 -16 24t-54 8v60h12q66 0 97.5 -20t31.5 -56q0 -59 -75 -70v-23h-54v45q30 1 44 9z" />
    <glyph glyph-name="Ohorn.ss04" horiz-adv-x="818" 
d="M214.5 41q-88.5 51 -139.5 139t-51 195q0 108 51 196t139.5 138.5t194.5 50.5q48 0 108 -8q46 -7 79 -7q34 0 52.5 16.5t18.5 47.5q0 24 -10 60h80q11 -40 11 -69q0 -47 -29 -77t-82 -36q73 -52 115 -133.5t42 -178.5q0 -107 -51 -195.5t-139 -139t-195 -50.5
q-106 0 -194.5 51zM555.5 120.5q64.5 37.5 101 104t36.5 150.5t-36.5 150.5t-101 104t-146.5 37.5t-146.5 -37.5t-101 -104t-36.5 -150.5t36.5 -150.5t101 -104t146.5 -37.5t146.5 37.5z" />
    <glyph glyph-name="uni1EDA.ss04" horiz-adv-x="818" 
d="M214.5 41q-88.5 51 -139.5 139t-51 195q0 108 51 196t139.5 138.5t194.5 50.5q48 0 108 -8q46 -7 79 -7q34 0 52.5 16.5t18.5 47.5q0 24 -10 60h80q11 -40 11 -69q0 -47 -29 -77t-82 -36q73 -52 115 -133.5t42 -178.5q0 -107 -51 -195.5t-139 -139t-195 -50.5
q-106 0 -194.5 51zM555.5 120.5q64.5 37.5 101 104t36.5 150.5t-36.5 150.5t-101 104t-146.5 37.5t-146.5 -37.5t-101 -104t-36.5 -150.5t36.5 -150.5t101 -104t146.5 -37.5t146.5 37.5zM386 950h121l-96 -129h-45z" />
    <glyph glyph-name="uni1EE2.ss04" horiz-adv-x="818" 
d="M214.5 41q-88.5 51 -139.5 139t-51 195q0 108 51 196t139.5 138.5t194.5 50.5q48 0 108 -8q46 -7 79 -7q34 0 52.5 16.5t18.5 47.5q0 24 -10 60h80q11 -40 11 -69q0 -47 -29 -77t-82 -36q73 -52 115 -133.5t42 -178.5q0 -107 -51 -195.5t-139 -139t-195 -50.5
q-106 0 -194.5 51zM555.5 120.5q64.5 37.5 101 104t36.5 150.5t-36.5 150.5t-101 104t-146.5 37.5t-146.5 -37.5t-101 -104t-36.5 -150.5t36.5 -150.5t101 -104t146.5 -37.5t146.5 37.5zM370 -150.5q-15 15.5 -15 38.5q0 24 15 39t39 15t39 -15t15 -39q0 -23 -15 -38.5
t-39 -15.5t-39 15.5z" />
    <glyph glyph-name="uni1EDC.ss04" horiz-adv-x="818" 
d="M214.5 41q-88.5 51 -139.5 139t-51 195q0 108 51 196t139.5 138.5t194.5 50.5q48 0 108 -8q46 -7 79 -7q34 0 52.5 16.5t18.5 47.5q0 24 -10 60h80q11 -40 11 -69q0 -47 -29 -77t-82 -36q73 -52 115 -133.5t42 -178.5q0 -107 -51 -195.5t-139 -139t-195 -50.5
q-106 0 -194.5 51zM555.5 120.5q64.5 37.5 101 104t36.5 150.5t-36.5 150.5t-101 104t-146.5 37.5t-146.5 -37.5t-101 -104t-36.5 -150.5t36.5 -150.5t101 -104t146.5 -37.5t146.5 37.5zM401 821l-97 129h121l20 -129h-44z" />
    <glyph glyph-name="uni1EDE.ss04" horiz-adv-x="818" 
d="M214.5 41q-88.5 51 -139.5 139t-51 195q0 108 51 196t139.5 138.5t194.5 50.5q48 0 108 -8q46 -7 79 -7q34 0 52.5 16.5t18.5 47.5q0 24 -10 60h80q11 -40 11 -69q0 -47 -29 -77t-82 -36q73 -52 115 -133.5t42 -178.5q0 -107 -51 -195.5t-139 -139t-195 -50.5
q-106 0 -194.5 51zM555.5 120.5q64.5 37.5 101 104t36.5 150.5t-36.5 150.5t-101 104t-146.5 37.5t-146.5 -37.5t-101 -104t-36.5 -150.5t36.5 -150.5t101 -104t146.5 -37.5t146.5 37.5zM422 875q14 8 14 23q0 16 -16 24t-54 8v60h12q66 0 97.5 -20t31.5 -56q0 -59 -75 -70
v-23h-54v45q30 1 44 9z" />
    <glyph glyph-name="uni1EE0.ss04" horiz-adv-x="818" 
d="M214.5 41q-88.5 51 -139.5 139t-51 195q0 108 51 196t139.5 138.5t194.5 50.5q48 0 108 -8q46 -7 79 -7q34 0 52.5 16.5t18.5 47.5q0 24 -10 60h80q11 -40 11 -69q0 -47 -29 -77t-82 -36q73 -52 115 -133.5t42 -178.5q0 -107 -51 -195.5t-139 -139t-195 -50.5
q-106 0 -194.5 51zM555.5 120.5q64.5 37.5 101 104t36.5 150.5t-36.5 150.5t-101 104t-146.5 37.5t-146.5 -37.5t-101 -104t-36.5 -150.5t36.5 -150.5t101 -104t146.5 -37.5t146.5 37.5zM442 832.5q-20 8.5 -48 24.5q-14 8 -26.5 14t-21.5 6q-31 0 -31 -47h-62
q-6 116 82 116q22 0 43.5 -8.5t45.5 -23.5q4 -2 15.5 -8.5t19.5 -9.5t15 -3q14 0 22.5 12t8.5 36h62q4 -117 -83 -117q-22 0 -42 8.5z" />
    <glyph glyph-name="Ohungarumlaut.ss04" horiz-adv-x="818" 
d="M214.5 41q-88.5 51 -139.5 139t-51 195q0 108 51 196t139.5 138.5t194.5 50.5q107 0 195 -50.5t139 -138.5t51 -196q0 -107 -51 -195.5t-139 -139t-195 -50.5q-106 0 -194.5 51zM555.5 120.5q64.5 37.5 101 104t36.5 150.5t-36.5 150.5t-101 104t-146.5 37.5
t-146.5 -37.5t-101 -104t-36.5 -150.5t36.5 -150.5t101 -104t146.5 -37.5t146.5 37.5zM463 950h121l-97 -129h-44zM325 950h121l-96 -129h-45z" />
    <glyph glyph-name="Omacron.ss04" horiz-adv-x="818" 
d="M214.5 41q-88.5 51 -139.5 139t-51 195q0 108 51 196t139.5 138.5t194.5 50.5q107 0 195 -50.5t139 -138.5t51 -196q0 -107 -51 -195.5t-139 -139t-195 -50.5q-106 0 -194.5 51zM555.5 120.5q64.5 37.5 101 104t36.5 150.5t-36.5 150.5t-101 104t-146.5 37.5
t-146.5 -37.5t-101 -104t-36.5 -150.5t36.5 -150.5t101 -104t146.5 -37.5t146.5 37.5zM261 921h296v-77h-296v77z" />
    <glyph glyph-name="Oslash.ss04" horiz-adv-x="818" 
d="M139 98q-54 53 -84.5 124.5t-30.5 152.5q0 108 51 196t139.5 138.5t194.5 50.5q107 0 197 -52l31 42h107l-68 -94q56 -53 87 -125.5t31 -155.5q0 -107 -51 -195.5t-139 -139t-195 -50.5q-109 0 -202 55l-33 -45h-107zM555.5 120.5q64.5 37.5 101 104t36.5 150.5
q0 62 -20.5 115.5t-57.5 92.5l-347 -466q63 -34 141 -34q82 0 146.5 37.5zM144.5 262q19.5 -52 55.5 -92l343 466q-60 31 -134 31q-82 0 -146.5 -37.5t-101 -104t-36.5 -150.5q0 -61 19.5 -113z" />
    <glyph glyph-name="Otilde.ss04" horiz-adv-x="818" 
d="M214.5 41q-88.5 51 -139.5 139t-51 195q0 108 51 196t139.5 138.5t194.5 50.5q107 0 195 -50.5t139 -138.5t51 -196q0 -107 -51 -195.5t-139 -139t-195 -50.5q-106 0 -194.5 51zM555.5 120.5q64.5 37.5 101 104t36.5 150.5t-36.5 150.5t-101 104t-146.5 37.5
t-146.5 -37.5t-101 -104t-36.5 -150.5t36.5 -150.5t101 -104t146.5 -37.5t146.5 37.5zM442 832.5q-20 8.5 -48 24.5q-14 8 -26.5 14t-21.5 6q-31 0 -31 -47h-62q-6 116 82 116q22 0 43.5 -8.5t45.5 -23.5q4 -2 15.5 -8.5t19.5 -9.5t15 -3q14 0 22.5 12t8.5 36h62
q4 -117 -83 -117q-22 0 -42 8.5z" />
    <glyph glyph-name="OE.ss04" horiz-adv-x="975" 
d="M205.5 49.5q-84.5 49.5 -133 135t-48.5 190.5t48.5 190.5t133 135t188.5 49.5h544v-93h-295v-224h226v-92h-226v-248h297v-93h-546q-104 0 -188.5 49.5zM542 93v564h-148q-80 0 -141 -36.5t-94.5 -100.5t-33.5 -145t33.5 -145t94.5 -100.5t141 -36.5h148z" />
    <glyph glyph-name="Q.ss04" horiz-adv-x="820" 
d="M214.5 50q-88.5 50 -139.5 136.5t-51 191.5q0 107 51 194.5t139.5 137.5t194.5 50q107 0 195 -50t139 -137.5t51 -194.5q0 -98 -47 -170t-132 -119h195v-89h-401q-106 0 -194.5 50zM161.5 232q36.5 -66 101 -102.5t146.5 -36.5t146.5 36.5t101 102.5t36.5 149t-36.5 148
t-101 101.5t-146.5 36.5t-146.5 -36.5t-101 -101.5t-36.5 -148t36.5 -149z" />
    <glyph glyph-name="Aacute.ss05" horiz-adv-x="550" 
d="M212 750h23v-40h64l28 40h11l205 -750h-117l-34 135h-241l-34 -135h-109zM374 218l-102 406l-102 -406h204zM246 840h121l-74 -120h-47v120z" />
    <glyph glyph-name="Abreve.ss05" horiz-adv-x="550" 
d="M277 710q44 0 67 16l199 -726h-116l-34 135h-242l-35 -135h-108l199 728q26 -18 70 -18zM375 218l-103 410l-103 -410h206zM188 752.5q-30 32.5 -26 92.5h66q-2 -31 10.5 -48t39.5 -17t39.5 17t10.5 48h64q5 -60 -25 -92.5t-90 -32.5q-59 0 -89 32.5z" />
    <glyph glyph-name="Acircumflex.ss05" horiz-adv-x="550" 
d="M201 710h46l20 32h16l20 -32h46l193 -710h-114l-35 135h-240l-34 -135h-111zM374 218l-100 406l-102 -406h202zM223 840h105l45 -120h-64l-34 66l-34 -66h-63z" />
    <glyph glyph-name="Adieresis.ss05" horiz-adv-x="551" 
d="M217 712q16 0 30 8.5t21 23.5h16q7 -16 20.5 -24t30.5 -8q4 0 14 2l194 -714h-116l-34 135h-243l-34 -135h-108l195 714q10 -2 14 -2zM375 218l-103 409l-103 -409h206zM172.5 735q-14.5 15 -14.5 38t14.5 37.5t37.5 14.5t38 -14.5t15 -37.5t-15 -38t-38 -15t-37.5 15z
M303.5 735q-14.5 15 -14.5 38t14.5 37.5t37.5 14.5t38 -14.5t15 -37.5t-15 -38t-38 -15t-37.5 15z" />
    <glyph glyph-name="Agrave.ss05" horiz-adv-x="550" 
d="M212 750h11l28 -40h64v40h23l205 -750h-116l-34 135h-243l-33 -135h-109zM374 218l-102 408l-103 -408h205zM183 840h121v-120h-47z" />
    <glyph glyph-name="Amacron.ss05" horiz-adv-x="550" 
d="M200 710h149l194 -710h-116l-33 135h-244l-34 -135h-108zM168 798h212v-78h-212v78zM373 218l-101 410l-102 -410h203z" />
    <glyph glyph-name="Aring.ss05" horiz-adv-x="550" 
d="M234 693q20 -8 42 -8q47 0 72 28l195 -713h-116l-34 135h-242l-34 -135h-109l194 715q12 -14 32 -22zM375 218l-103 410l-102 -410h205zM213.5 718.5q-23.5 23.5 -23.5 59.5t23.5 59.5t62.5 23.5t63 -23.5t24 -59.5t-24 -59.5t-63 -23.5t-62.5 23.5zM300.5 754
q9.5 10 9.5 24q0 15 -9.5 24.5t-24.5 9.5t-24.5 -9.5t-9.5 -24.5q0 -14 9.5 -24t24.5 -10t24.5 10z" />
    <glyph glyph-name="Atilde.ss05" horiz-adv-x="549" 
d="M203 715h14v26h40q32 -34 75 -34q11 0 17 1l193 -708h-115l-34 135h-243l-34 -135h-108zM374 218l-102 410l-103 -410h205zM292.5 726.5q-16.5 9.5 -32.5 25.5q-10 9 -16.5 13.5t-13.5 4.5q-22 0 -22 -45h-62q-3 59 16 86.5t61 27.5q24 0 40.5 -9.5t34.5 -26.5
q19 -17 27 -17q23 0 23 45h62q2 -59 -17 -86.5t-61 -27.5q-23 0 -39.5 9.5z" />
    </font>
</defs>
</svg>
