<?xml version="1.0" standalone="no"?>
<!DOCTYPE svg PUBLIC "-//W3C//DTD SVG 1.1//EN" "http://www.w3.org/Graphics/SVG/1.1/DTD/svg11.dtd" >
<svg xmlns="http://www.w3.org/2000/svg" xmlns:xlink="http://www.w3.org/1999/xlink" version="1.1">
<metadata>
Created by FontForge 20201107 at Wed Jun  4 17:23:04 2025
 By www-data
TM &#38; C Turner Broadcasting System, Inc. A WarnerMedia Company. All Rights Reserved.
</metadata>
<defs>
<font id="TNTDigitalCompressed-Medium" horiz-adv-x="0" vert-adv-y="1000" >
  <font-face 
    font-family="TNT Digital Compressed Medium"
    font-weight="500"
    font-stretch="ultra-condensed"
    units-per-em="1000"
    panose-1="0 0 0 0 0 0 0 0 0 0"
    ascent="800"
    descent="-200"
    x-height="550"
    cap-height="750"
    bbox="-52.375 -241 822 1131"
    underline-thickness="50"
    underline-position="-150"
    unicode-range="U+0020-A78C"
  />
<missing-glyph horiz-adv-x="607" vert-adv-y="1170" 
d="M169 58h270v634h-270v-634zM501 750v-750h-394v750h394zM399 317v-58h-64v-103h-62v103h-64v58h190zM273 491v103h62v-103h64v-58h-190v58h64z" />
    <glyph glyph-name=".notdef" horiz-adv-x="607" vert-adv-y="1170" 
d="M169 58h270v634h-270v-634zM501 750v-750h-394v750h394zM399 317v-58h-64v-103h-62v103h-64v58h190zM273 491v103h62v-103h64v-58h-190v58h64z" />
    <glyph glyph-name=".null" vert-adv-y="0" 
 />
    <glyph glyph-name="nonmarkingreturn" horiz-adv-x="333" 
 />
    <glyph glyph-name="space" unicode=" " horiz-adv-x="116" vert-adv-y="1170" 
 />
    <glyph glyph-name="exclam" unicode="!" horiz-adv-x="163" vert-adv-y="1170" 
d="M34 750h95v-548h-95v548zM43 8.5q-15 15.5 -15 38.5t15 38t38 15q25 0 39.5 -14.5t14.5 -38.5t-14.5 -39t-39.5 -15q-23 0 -38 15.5z" />
    <glyph glyph-name="quotedbl" unicode="&#x22;" horiz-adv-x="283" vert-adv-y="1170" 
d="M118.5 745q15.5 -15 15.5 -38q0 -17 -8.5 -56t-17.5 -75l-10 -41h-36l-9 36q-27 104 -27 136q0 23 15.5 38t38.5 15t38.5 -15zM255.5 745q15.5 -15 15.5 -38q0 -17 -8.5 -56t-17.5 -75l-10 -41h-36l-9 36q-27 104 -27 136q0 23 15.5 38t38.5 15t38.5 -15z" />
    <glyph glyph-name="numbersign" unicode="#" horiz-adv-x="393" vert-adv-y="1170" 
d="M64 224h-44v93h56l16 116h-49v93h60l31 224h95l-30 -224h34l30 224h96l-30 -224h44v-93h-56l-16 -116h48v-93h-59l-31 -224h-96l30 224h-33l-31 -224h-95zM206 317l15 116h-34l-15 -116h34z" />
    <glyph glyph-name="dollar" unicode="$" horiz-adv-x="282" vert-adv-y="1170" 
d="M41.5 38.5q-18.5 30.5 -18.5 75.5v121l95 9v-135q0 -15 6.5 -22.5t16.5 -7.5q11 0 17 8t6 21v126q0 28 -6.5 45.5t-24.5 41.5l-63 81q-27 35 -37.5 62.5t-10.5 68.5v108q0 41 20 70.5t54 40.5v108h90v-108q34 -11 53.5 -40.5t19.5 -72.5v-115l-96 -9v130q0 12 -6 19
t-16 7t-16.5 -7t-6.5 -18v-101q0 -28 6 -44t23 -38l58 -74q31 -41 42.5 -71t11.5 -75v-129q0 -45 -19 -75.5t-54 -41.5v-107h-90v107q-36 11 -54.5 41.5z" />
    <glyph glyph-name="percent" unicode="%" horiz-adv-x="515" vert-adv-y="1170" 
d="M427 750h61l-400 -750h-61zM317.5 13q-26.5 24 -26.5 60v240q0 36 26.5 60t68.5 24q41 0 68 -25.5t27 -58.5v-240q0 -36 -26.5 -60t-68.5 -24t-68.5 24zM396.5 67.5q3.5 4.5 3.5 11.5v228q0 15 -14 15q-6 0 -9.5 -4.5t-3.5 -10.5v-228q0 -16 13 -16q7 0 10.5 4.5z
M57.5 373q-26.5 24 -26.5 60v240q0 36 26.5 60t68.5 24t68.5 -24t26.5 -60v-240q0 -36 -26.5 -60t-68.5 -24t-68.5 24zM139 439v228q0 15 -13 15t-13 -15v-228q0 -16 13 -16t13 16z" />
    <glyph glyph-name="ampersand" unicode="&#x26;" horiz-adv-x="300" vert-adv-y="1170" 
d="M46.5 22q-27.5 32 -27.5 87v243q0 37 15 64.5t42 41.5l-20 66q-12 40 -15.5 57t-3.5 44v22q0 50 30.5 81.5t79.5 31.5t78.5 -31.5t29.5 -83.5v-76l-86 -8v88q0 32 -23 32q-11 0 -17 -8t-6 -21v-16q0 -31 1 -44t11 -44l63 -210l4 113h73l-21 -300l46 -151h-88l-10 35
q-22 -45 -79 -45q-49 0 -76.5 32zM159 107l4 58l-54 179q-4 -4 -4 -13v-223q0 -32 25 -32q26 0 29 31z" />
    <glyph glyph-name="quotesingle" unicode="'" horiz-adv-x="160" vert-adv-y="1170" 
d="M118.5 745q15.5 -15 15.5 -38q0 -17 -8.5 -56t-17.5 -75l-10 -41h-36l-9 36q-27 104 -27 136q0 23 15.5 38t38.5 15t38.5 -15z" />
    <glyph glyph-name="parenleft" unicode="(" horiz-adv-x="174" vert-adv-y="1170" 
d="M43 173.5q-21 99.5 -21 201.5q0 103 21 202t60 185l62 -19q-25 -94 -36 -180t-11 -188t11 -188.5t36 -179.5l-62 -19q-39 86 -60 185.5z" />
    <glyph glyph-name="parenright" unicode=")" horiz-adv-x="174" vert-adv-y="1170" 
d="M45.5 186q10.5 87 10.5 189t-10.5 189t-35.5 179l61 19q39 -86 60.5 -185.5t21.5 -201.5t-21.5 -201t-60.5 -186l-61 19q25 92 35.5 179z" />
    <glyph glyph-name="asterisk" unicode="*" horiz-adv-x="320" vert-adv-y="1170" 
d="M134 566l-76 -59l-39 66l90 37l-90 37l39 66l76 -59l-13 96h78l-13 -96l76 59l39 -66l-90 -37l90 -37l-39 -66l-76 59l13 -96h-78z" />
    <glyph glyph-name="plus" unicode="+" horiz-adv-x="293" vert-adv-y="1170" 
d="M99 343h-77v89h77v91h96v-91h76v-89h-76v-90h-96v90z" />
    <glyph glyph-name="comma" unicode="," horiz-adv-x="157" vert-adv-y="1170" 
d="M125 13l-51 -137l-40 15l37 103q-22 3 -34 17.5t-12 35.5q0 23 15.5 38t38.5 15t38.5 -15t15.5 -38q0 -13 -8 -34z" />
    <glyph glyph-name="hyphen" unicode="-" horiz-adv-x="203" vert-adv-y="1170" 
d="M22 361h160v-92h-160v92z" />
    <glyph glyph-name="period" unicode="." horiz-adv-x="157" vert-adv-y="1170" 
d="M40.5 8.5q-15.5 15.5 -15.5 38.5t15.5 38t38.5 15q24 0 39 -15t15 -38q0 -24 -15 -39t-39 -15q-23 0 -38.5 15.5z" />
    <glyph glyph-name="slash" unicode="/" horiz-adv-x="229" vert-adv-y="1170" 
d="M117 750h95l-100 -750h-95z" />
    <glyph glyph-name="zero" unicode="0" horiz-adv-x="300" vert-adv-y="1170" 
d="M63.5 22q-33.5 32 -33.5 83v540q0 51 33.5 83t87.5 32q53 0 86 -32t33 -83v-540q0 -51 -33 -83t-86 -32q-54 0 -87.5 32zM168.5 85q6.5 7 6.5 20v540q0 13 -6.5 20t-17.5 7q-12 0 -18.5 -7t-6.5 -20v-540q0 -27 25 -27q11 0 17.5 7z" />
    <glyph glyph-name="one" unicode="1" horiz-adv-x="300" vert-adv-y="1170" 
d="M37 90h63v570h-63v90h159v-660h58v-90h-217v90z" />
    <glyph glyph-name="two" unicode="2" horiz-adv-x="300" vert-adv-y="1170" 
d="M48.5 296.5q17.5 34.5 63.5 91.5q37 47 50 73t13 56v128q0 26 -24 26t-24 -26v-130l-97 9v121q0 51 33.5 83t87.5 32t87 -32t33 -83v-144q0 -46 -16.5 -79t-59.5 -88q-39 -51 -52.5 -78.5t-13.5 -61.5v-103h142v-91h-240v217q0 45 17.5 79.5z" />
    <glyph glyph-name="three" unicode="3" horiz-adv-x="300" vert-adv-y="1170" 
d="M59 27q-35 37 -35 91v108l98 9v-120q0 -17 8 -26t21 -9t21.5 9t8.5 25v201q0 16 -9 26t-25 10h-69v77l94 232h-134v90h232v-86l-93 -222q53 -6 77 -38.5t24 -91.5v-195q0 -56 -36 -91.5t-93 -35.5q-55 0 -90 37z" />
    <glyph glyph-name="four" unicode="4" horiz-adv-x="300" vert-adv-y="1170" 
d="M161 148h-143v82l60 520h98l-58 -512h43v135h94v-135h34v-90h-34v-149h-94v149z" />
    <glyph glyph-name="five" unicode="5" horiz-adv-x="300" vert-adv-y="1170" 
d="M62 23.5q-35 32.5 -35 81.5v122h98v-121q0 -14 6.5 -21t17.5 -7t18 7t7 21v272q0 13 -7 20t-19 7q-11 0 -17.5 -7.5t-6.5 -19.5v-54h-96v63l13 363h225v-90h-141l-7 -182q10 9 24 14t26 5q48 0 75.5 -30t27.5 -84v-277q0 -51 -34 -83t-89 -32q-51 0 -86 32.5z" />
    <glyph glyph-name="six" unicode="6" horiz-adv-x="300" vert-adv-y="1170" 
d="M62 20.5q-34 30.5 -34 84.5v533q0 53 34 87.5t89 34.5q53 0 87.5 -35.5t34.5 -90.5v-103l-97 -8v121q0 13 -7.5 20t-17.5 7q-12 0 -19 -6.5t-7 -18.5v-212q10 9 23.5 13.5t26.5 4.5q45 0 71 -28.5t26 -83.5v-235q0 -54 -33.5 -84.5t-88.5 -30.5q-54 0 -88 30.5z
M167.5 85.5q6.5 6.5 6.5 18.5v230q0 13 -7 19.5t-17 6.5q-11 0 -18 -7t-7 -19v-230q0 -12 7 -18.5t18 -6.5t17.5 6.5z" />
    <glyph glyph-name="seven" unicode="7" horiz-adv-x="300" vert-adv-y="1170" 
d="M162 660h-127v90h219v-86l-112 -664h-92z" />
    <glyph glyph-name="eight" unicode="8" horiz-adv-x="300" vert-adv-y="1170" 
d="M61 22.5q-34 32.5 -34 83.5v195q0 29 8.5 51t29.5 39q-36 28 -36 87v167q0 51 34 83t88 32t87.5 -32.5t33.5 -82.5v-167q0 -59 -36 -87q21 -17 29.5 -39t8.5 -51v-195q0 -51 -34 -83.5t-89 -32.5q-56 0 -90 32.5zM170 87q7 7 7 20v204q0 29 -26 29t-26 -29v-204
q0 -27 26 -27q12 0 19 7zM175 464v180q0 26 -24 26q-25 0 -25 -26v-180q0 -29 25 -29q24 0 24 29z" />
    <glyph glyph-name="nine" unicode="9" horiz-adv-x="300" vert-adv-y="1170" 
d="M238 729.5q34 -30.5 34 -84.5v-533q0 -53 -34 -87.5t-89 -34.5q-53 0 -87.5 35.5t-34.5 90.5v103l97 8v-121q0 -13 7.5 -20t17.5 -7q12 0 19 6.5t7 18.5v212q-10 -9 -23.5 -13.5t-26.5 -4.5q-45 0 -71 28.5t-26 83.5v235q0 54 33.5 84.5t88.5 30.5q54 0 88 -30.5z
M132.5 664.5q-6.5 -6.5 -6.5 -18.5v-230q0 -13 7 -19.5t17 -6.5q11 0 18 7t7 19v230q0 12 -7 18.5t-18 6.5t-17.5 -6.5z" />
    <glyph glyph-name="colon" unicode=":" horiz-adv-x="182" vert-adv-y="1170" 
d="M52.5 462q-15.5 15 -15.5 39q0 23 15.5 38t38.5 15q24 0 39 -15t15 -38q0 -24 -15 -39t-39 -15q-23 0 -38.5 15zM52.5 8q-15.5 15 -15.5 39q0 23 15.5 38t38.5 15q24 0 39 -15t15 -38q0 -24 -15 -39t-39 -15q-23 0 -38.5 15z" />
    <glyph glyph-name="semicolon" unicode=";" horiz-adv-x="182" vert-adv-y="1170" 
d="M46 -109l37 103q-22 3 -34 17.5t-12 35.5q0 23 15.5 38t38.5 15t38.5 -15t15.5 -38q0 -13 -8 -34l-51 -137zM52.5 462q-15.5 15 -15.5 39q0 23 15.5 38t38.5 15q24 0 39 -15t15 -38q0 -24 -15 -39t-39 -15q-23 0 -38.5 15z" />
    <glyph glyph-name="less" unicode="&#x3c;" horiz-adv-x="293" vert-adv-y="1170" 
d="M29 332v104l235 88v-96l-133 -44l133 -44v-97z" />
    <glyph glyph-name="equal" unicode="=" horiz-adv-x="293" vert-adv-y="1170" 
d="M36 517h221v-89h-221v89zM36 347h221v-89h-221v89z" />
    <glyph glyph-name="greater" unicode="&#x3e;" horiz-adv-x="293" vert-adv-y="1170" 
d="M29 339l133 44l-133 43v98l235 -89v-104l-235 -88v96z" />
    <glyph glyph-name="question" unicode="?" horiz-adv-x="293" vert-adv-y="1170" 
d="M94 409h51q24 0 24 26v210q0 26 -24 26t-24 -26v-148l-97 9v139q0 51 33.5 83t87.5 32t87.5 -32t33.5 -83v-210q0 -39 -20 -67t-56 -40v-126h-96v207zM103 8.5q-15 15.5 -15 38.5t15.5 38t38.5 15q24 0 38.5 -15t14.5 -38q0 -24 -14.5 -39t-38.5 -15t-39 15.5z" />
    <glyph glyph-name="at" unicode="@" horiz-adv-x="401" vert-adv-y="1170" 
d="M70 44q-42 44 -42 118v423q0 78 43.5 125t116.5 47t117 -47.5t44 -124.5v-351q0 -44 -19.5 -66t-61.5 -22h-54v48h-3q-8 -30 -21.5 -43.5t-34.5 -13.5q-26 0 -41 23.5t-15 63.5v285q0 40 14.5 63.5t39.5 23.5q19 0 33 -14.5t20 -43.5h3v51h63v-387h6q11 0 15.5 8t4.5 24
v352q0 53 -30 87.5t-80 34.5q-51 0 -80 -35t-29 -87v-417q0 -55 29 -87.5t85 -32.5h135v-49h-138q-78 0 -120 44zM200 219.5q5 10.5 5 27.5v238q0 18 -5.5 28.5t-14.5 10.5q-10 0 -15 -10.5t-5 -28.5v-238q0 -38 22 -38q8 0 13 10.5z" />
    <glyph glyph-name="A" unicode="A" horiz-adv-x="282" vert-adv-y="1170" 
d="M79 750h125l69 -750h-98l-7 123h-58l-8 -123h-93zM164 202l-23 409l-27 -409h50z" />
    <glyph glyph-name="B" unicode="B" horiz-adv-x="299" vert-adv-y="1170" 
d="M28 750h124q55 0 88 -33.5t33 -88.5v-164q0 -55 -34 -84q35 -29 35 -84v-174q0 -55 -33 -88.5t-87 -33.5h-126v750zM171 95.5q6 6.5 6 19.5v195q0 25 -23 25h-31v-246h31q11 0 17 6.5zM176 450v185q0 26 -24 26h-29v-236h29q24 0 24 25z" />
    <glyph glyph-name="C" unicode="C" horiz-adv-x="295" vert-adv-y="1170" 
d="M61 22q-33 32 -33 83v540q0 51 33 83t87 32t87 -32t33 -83v-186l-96 -9v195q0 13 -6.5 20t-17.5 7t-18 -7t-7 -20v-540q0 -13 6.5 -20t18.5 -7q11 0 17.5 7t6.5 20v211l96 -9v-202q0 -51 -33 -83t-87 -32t-87 32z" />
    <glyph glyph-name="D" unicode="D" horiz-adv-x="295" vert-adv-y="1170" 
d="M28 750h119q54 0 87 -32t33 -83v-520q0 -51 -33 -83t-87 -32h-119v750zM164 95.5q6 6.5 6 19.5v520q0 26 -23 26h-24v-572h24q11 0 17 6.5z" />
    <glyph glyph-name="E" unicode="E" horiz-adv-x="241" vert-adv-y="1170" 
d="M28 750h193v-89h-98v-226h73v-90h-73v-256h98v-89h-193v750z" />
    <glyph glyph-name="F" unicode="F" horiz-adv-x="227" vert-adv-y="1170" 
d="M28 750h180v-89h-85v-266h74v-90h-74v-305h-95v750z" />
    <glyph glyph-name="G" unicode="G" horiz-adv-x="294" vert-adv-y="1170" 
d="M61 22q-33 32 -33 83v540q0 51 33 83t87 32t87.5 -32t33.5 -83v-157l-97 -8v165q0 26 -24 26q-11 0 -17.5 -7t-6.5 -19v-540q0 -26 24 -26t24 26v194h-19v90h116v-284q0 -51 -33.5 -83t-87.5 -32t-87 32z" />
    <glyph glyph-name="H" unicode="H" horiz-adv-x="295" vert-adv-y="1170" 
d="M28 750h95v-321h48v321h96v-750h-96v336h-48v-336h-95v750z" />
    <glyph glyph-name="I" unicode="I" horiz-adv-x="151" vert-adv-y="1170" 
d="M28 750h95v-750h-95v750z" />
    <glyph glyph-name="J" unicode="J" horiz-adv-x="293" vert-adv-y="1170" 
d="M58.5 24q-33.5 32 -33.5 83v180l97 9v-189q0 -26 24 -26q10 0 16.5 7t6.5 19v643h96v-643q0 -51 -33 -83t-86 -32q-54 0 -87.5 32z" />
    <glyph glyph-name="K" unicode="K" horiz-adv-x="297" vert-adv-y="1170" 
d="M28 750h95v-298l71 298h94l-83 -349l85 -401h-99l-68 321v-321h-95v750z" />
    <glyph glyph-name="L" unicode="L" horiz-adv-x="233" vert-adv-y="1170" 
d="M28 750h95v-661h95v-89h-190v750z" />
    <glyph glyph-name="M" unicode="M" horiz-adv-x="372" vert-adv-y="1170" 
d="M28 750h97l61 -457l59 457h99v-750h-82v422l-55 -422h-41l-55 414v-414h-83v750z" />
    <glyph glyph-name="N" unicode="N" horiz-adv-x="304" vert-adv-y="1170" 
d="M28 750h76l91 -420v420h81v-750h-76l-91 421v-421h-81v750z" />
    <glyph glyph-name="O" unicode="O" horiz-adv-x="295" vert-adv-y="1170" 
d="M61 22q-33 32 -33 83v540q0 51 33 83t87 32t87 -32t33 -83v-540q0 -51 -33 -83t-87 -32t-87 32zM165.5 85q6.5 7 6.5 20v540q0 13 -6.5 20t-17.5 7t-18 -7t-7 -20v-540q0 -13 6.5 -20t18.5 -7q11 0 17.5 7z" />
    <glyph glyph-name="P" unicode="P" horiz-adv-x="294" vert-adv-y="1170" 
d="M28 750h104q55 0 85 -16t42.5 -51t12.5 -96v-156q0 -88 -32 -125.5t-106 -37.5h-11v-268h-95v750zM166 371q9 14 9 44v181q0 35 -8.5 50t-28.5 15h-15v-304h15q19 0 28 14z" />
    <glyph glyph-name="Q" unicode="Q" horiz-adv-x="295" vert-adv-y="1170" 
d="M61 32q-33 32 -33 83v530q0 51 33 83t87 32t87 -32t33 -83v-490q0 -41 -22 -67h37v-88h-135q-54 0 -87 32zM165.5 95q6.5 7 6.5 20v530q0 13 -6.5 20t-17.5 7t-18 -7t-7 -20v-530q0 -13 6.5 -20t18.5 -7q11 0 17.5 7z" />
    <glyph glyph-name="R" unicode="R" horiz-adv-x="300" vert-adv-y="1170" 
d="M28 750h109q63 0 98 -35t35 -101v-206q0 -62 -34 -97l54 -311h-100l-43 275h-10h-14v-275h-95v750zM166 373q7 10 7 37v203q0 28 -7.5 38t-26.5 10h-16v-298h16q20 0 27 10z" />
    <glyph glyph-name="S" unicode="S" horiz-adv-x="282" vert-adv-y="1170" 
d="M53.5 23q-30.5 33 -30.5 91v121l95 9v-135q0 -15 6.5 -22.5t16.5 -7.5q11 0 17 8t6 21v126q0 28 -6.5 45.5t-24.5 41.5l-63 81q-27 35 -37.5 62.5t-10.5 68.5v108q0 54 32.5 86.5t87.5 32.5q54 0 85.5 -32.5t31.5 -88.5v-115l-96 -9v130q0 12 -6 19t-16 7t-16.5 -7
t-6.5 -18v-101q0 -28 6 -44t23 -38l58 -74q31 -41 42.5 -71t11.5 -75v-129q0 -58 -30.5 -91t-87.5 -33t-87.5 33z" />
    <glyph glyph-name="T" unicode="T" horiz-adv-x="255" vert-adv-y="1170" 
d="M79 661h-64v89h224v-89h-64v-661h-96v661z" />
    <glyph glyph-name="U" unicode="U" horiz-adv-x="296" vert-adv-y="1170" 
d="M61 24q-33 32 -33 82v644h96v-644q0 -26 24 -26q11 0 17 6.5t6 19.5v644h97v-644q0 -50 -33 -82t-87 -32t-87 32z" />
    <glyph glyph-name="V" unicode="V" horiz-adv-x="282" vert-adv-y="1170" 
d="M9 750h99l34 -611l39 611h92l-69 -750h-125z" />
    <glyph glyph-name="W" unicode="W" horiz-adv-x="433" vert-adv-y="1170" 
d="M14 750h90l38 -520l30 520h92l32 -517l37 517h86l-75 -750h-97l-30 515l-33 -515h-96z" />
    <glyph glyph-name="X" unicode="X" horiz-adv-x="289" vert-adv-y="1170" 
d="M78 395l-61 355h92l37 -263l36 263h90l-62 -361l68 -389h-92l-44 291l-41 -291h-90z" />
    <glyph glyph-name="Y" unicode="Y" horiz-adv-x="271" vert-adv-y="1170" 
d="M87 250l-80 500h96l34 -323l33 323h94l-81 -501v-249h-96v250z" />
    <glyph glyph-name="Z" unicode="Z" horiz-adv-x="244" vert-adv-y="1170" 
d="M18 79l110 580h-110v91h208v-81l-110 -578h110v-91h-208v79z" />
    <glyph glyph-name="bracketleft" unicode="[" horiz-adv-x="191" vert-adv-y="1170" 
d="M28 750h142v-93h-47v-564h47v-93h-142v750z" />
    <glyph glyph-name="backslash" unicode="\" horiz-adv-x="229" vert-adv-y="1170" 
d="M17 750h95l100 -750h-95z" />
    <glyph glyph-name="bracketright" unicode="]" horiz-adv-x="191" vert-adv-y="1170" 
d="M21 93h46v564h-46v93h142v-750h-142v93z" />
    <glyph glyph-name="asciicircum" unicode="^" horiz-adv-x="304" vert-adv-y="1170" 
d="M112 750h80l92 -220h-65l-67 135l-68 -135h-65z" />
    <glyph glyph-name="underscore" unicode="_" horiz-adv-x="243" vert-adv-y="1170" 
d="M22 -46h200v-92h-200v92z" />
    <glyph glyph-name="grave" unicode="`" horiz-adv-x="230" vert-adv-y="1170" 
d="M57 750h110l20 -135h-32z" />
    <glyph glyph-name="a" unicode="a" horiz-adv-x="285" vert-adv-y="1170" 
d="M39.5 26q-19.5 36 -19.5 97v73q0 64 29 94t91 30h24v123q0 14 -6 21.5t-17 7.5t-17.5 -7.5t-6.5 -20.5v-87l-96 9v71q0 56 33 89.5t87 33.5t86 -34t32 -90v-436h-78l-10 49h-1q-10 -31 -25.5 -45t-41.5 -14q-44 0 -63.5 36zM164 123v124h-18q-16 0 -23.5 -10.5
t-7.5 -31.5v-89q0 -33 24 -33q25 0 25 40z" />
    <glyph glyph-name="b" unicode="b" horiz-adv-x="292" vert-adv-y="1170" 
d="M143.5 5.5q-12.5 15.5 -23.5 51.5h-3l-11 -57h-79v750h96v-253h2q10 32 23.5 47.5t44.5 15.5q38 0 56 -33.5t18 -89.5v-332q0 -54 -19.5 -84.5t-60.5 -30.5q-31 0 -43.5 15.5zM171 138v274q0 39 -23 39q-11 0 -18 -11t-7 -30v-270q0 -20 6.5 -30.5t18.5 -10.5q23 0 23 39
z" />
    <glyph glyph-name="c" unicode="c" horiz-adv-x="288" vert-adv-y="1170" 
d="M57.5 24q-32.5 34 -32.5 90v322q0 57 32.5 90.5t87.5 33.5q54 0 86.5 -33.5t32.5 -89.5v-125l-95 -9v141q0 14 -6.5 21t-17.5 7q-12 0 -18.5 -7.5t-6.5 -21.5v-336q0 -14 6.5 -21.5t18.5 -7.5q11 0 17.5 7.5t6.5 20.5v141l95 -9v-125q0 -56 -32.5 -89.5t-86.5 -33.5
q-55 0 -87.5 34z" />
    <glyph glyph-name="d" unicode="d" horiz-adv-x="292" vert-adv-y="1170" 
d="M44.5 20.5q-19.5 30.5 -19.5 84.5v332q0 57 18 90t56 33q31 0 44 -15t24 -47h3v252h95v-750h-79l-11 57h-3q-10 -35 -23 -51t-44 -16q-41 0 -60.5 30.5zM163 110q7 11 7 30v270q0 20 -7 30.5t-18 10.5q-24 0 -24 -39v-274q0 -39 24 -39q11 0 18 11z" />
    <glyph glyph-name="e" unicode="e" horiz-adv-x="289" vert-adv-y="1170" 
d="M57.5 24q-32.5 34 -32.5 90v322q0 57 32.5 90.5t87.5 33.5q54 0 86.5 -33.5t32.5 -89.5v-180h-144v-152q0 -13 7 -20.5t18 -7.5t17.5 7t6.5 20v114l95 -8v-97q0 -56 -32.5 -89.5t-86.5 -33.5q-55 0 -87.5 34zM169 321v125q0 13 -6.5 20t-17.5 7q-25 0 -25 -28v-124h49z
" />
    <glyph glyph-name="f" unicode="f" horiz-adv-x="225" vert-adv-y="1170" 
d="M48 463h-36v87h36v77q0 66 35 99.5t95 33.5q20 0 33 -3v-91q-13 5 -22 5q-22 0 -33.5 -15t-11.5 -39v-67h67v-87h-67v-463h-96v463z" />
    <glyph glyph-name="g" unicode="g" horiz-adv-x="292" vert-adv-y="1170" 
d="M58 -156.5q-33 33.5 -33 89.5v54l96 9v-75q0 -14 6.5 -21t17.5 -7t17.5 8t6.5 22v171h-2q-5 -30 -18.5 -46t-43.5 -16q-41 0 -60.5 30.5t-19.5 84.5v290q0 56 19.5 89.5t58.5 33.5q31 0 45 -15.5t26 -47.5h3v53h88v-616q0 -57 -33 -90.5t-87 -33.5t-87 33.5zM169 172v243
q-1 17 -7.5 26.5t-16.5 9.5q-24 0 -24 -39v-237q0 -39 24 -39q23 0 24 36z" />
    <glyph glyph-name="h" unicode="h" horiz-adv-x="292" vert-adv-y="1170" 
d="M27 750h96v-256h2q9 32 24 49t48 17q70 0 70 -104v-456h-96v420q0 36 -22 36q-12 0 -19 -11t-7 -31v-414h-96v750z" />
    <glyph glyph-name="i" unicode="i" horiz-adv-x="150" vert-adv-y="1170" 
d="M27 550h96v-550h-96v550zM33 641q-17 17 -17 42q0 26 17 42.5t42 16.5q26 0 42.5 -16.5t16.5 -42.5t-16.5 -42.5t-42.5 -16.5q-25 0 -42 17z" />
    <glyph glyph-name="j" unicode="j" horiz-adv-x="151" vert-adv-y="1170" 
d="M-26 -183v90h19q35 0 35 41v602h96v-606q0 -68 -28.5 -99t-90.5 -31q-15 0 -31 3zM34 641q-17 17 -17 42q0 26 17 42.5t42 16.5q26 0 42.5 -16.5t16.5 -42.5t-16.5 -42.5t-42.5 -16.5q-25 0 -42 17z" />
    <glyph glyph-name="k" unicode="k" horiz-adv-x="291" vert-adv-y="1170" 
d="M27 750h96v-411h2l58 211h98l-79 -263l79 -287h-99l-57 233h-2v-233h-96v750z" />
    <glyph glyph-name="l" unicode="l" horiz-adv-x="150" vert-adv-y="1170" 
d="M27 750h96v-750h-96v750z" />
    <glyph glyph-name="m" unicode="m" horiz-adv-x="434" vert-adv-y="1170" 
d="M27 550h88v-55h3q9 30 25 47.5t49 17.5q60 0 69 -66h2q7 31 22.5 48.5t49.5 17.5q39 0 56.5 -26t17.5 -77v-457h-95v422q0 34 -22 34q-12 0 -19 -10t-7 -29v-417h-95v422q0 34 -23 34q-11 0 -18 -10.5t-7 -28.5v-417h-96v550z" />
    <glyph glyph-name="n" unicode="n" horiz-adv-x="292" vert-adv-y="1170" 
d="M27 550h88v-55h3q9 30 25.5 47.5t48.5 17.5q39 0 57 -26.5t18 -77.5v-456h-96v421q0 35 -22 35q-12 0 -19 -10t-7 -29v-417h-96v550z" />
    <glyph glyph-name="o" unicode="o" horiz-adv-x="289" vert-adv-y="1170" 
d="M57.5 23.5q-32.5 33.5 -32.5 89.5v324q0 56 32.5 89.5t87.5 33.5q54 0 86.5 -33.5t32.5 -89.5v-324q0 -56 -32.5 -89.5t-86.5 -33.5q-55 0 -87.5 33.5zM126.5 85q6.5 -7 18.5 -7q11 0 17.5 7.5t6.5 20.5v338q0 14 -6.5 21t-17.5 7q-25 0 -25 -28v-338q0 -14 6.5 -21z" />
    <glyph glyph-name="p" unicode="p" horiz-adv-x="290" vert-adv-y="1170" 
d="M26 550h88v-57h2q10 33 24.5 50t45.5 17q41 0 60.5 -30.5t19.5 -84.5v-332q0 -56 -18.5 -89.5t-55.5 -33.5q-30 0 -43.5 14t-24.5 45h-2v-229h-96v730zM170 138v274q0 39 -24 39q-11 0 -17.5 -11t-6.5 -30v-270q0 -20 6.5 -30.5t17.5 -10.5q24 0 24 39z" />
    <glyph glyph-name="q" unicode="q" horiz-adv-x="292" vert-adv-y="1170" 
d="M170 49h-3q-11 -31 -24.5 -45t-43.5 -14q-38 0 -56 33.5t-18 89.5v332q0 54 19.5 84.5t60.5 30.5q31 0 45.5 -17t24.5 -50h2v57h88v-730h-95v229zM163 110q7 11 7 30v270q0 20 -7 30.5t-18 10.5q-24 0 -24 -39v-274q0 -39 24 -39q11 0 18 11z" />
    <glyph glyph-name="r" unicode="r" horiz-adv-x="225" vert-adv-y="1170" 
d="M27 550h88v-80h2q10 49 27 69.5t47 20.5q6 0 22 -2v-110h-20q-42 0 -57 -22.5t-15 -75.5v-350h-94v550z" />
    <glyph glyph-name="s" unicode="s" horiz-adv-x="278" vert-adv-y="1170" 
d="M52 24q-33 34 -33 89v53l96 9v-69q0 -28 23 -28q12 0 18.5 7.5t6.5 21.5v39q0 32 -5.5 47t-28.5 30l-53 37q-32 22 -44 56t-12 99q0 71 32 108t87 37q53 0 85.5 -33.5t32.5 -89.5v-53l-95 -9v69q0 14 -6.5 21t-16.5 7q-11 0 -17 -8t-6 -21v-32q0 -31 6 -48t27 -32l54 -36
q33 -24 44 -56t11 -103q0 -72 -32 -109t-88 -37q-53 0 -86 34z" />
    <glyph glyph-name="t" unicode="t" horiz-adv-x="200" vert-adv-y="1170" 
d="M48 463h-36v87h36v117l96 18v-135h45v-87h-45v-463h-96v463z" />
    <glyph glyph-name="u" unicode="u" horiz-adv-x="291" vert-adv-y="1170" 
d="M25 98v452h96v-421q0 -35 22 -35q12 0 19 10t7 29v417h95v-550h-79l-11 56h-2q-8 -31 -24 -48.5t-48 -17.5q-75 0 -75 108z" />
    <glyph glyph-name="v" unicode="v" horiz-adv-x="278" vert-adv-y="1170" 
d="M10 550h103l28 -421h2l27 421h98l-62 -550h-134z" />
    <glyph glyph-name="w" unicode="w" horiz-adv-x="444" vert-adv-y="1170" 
d="M12 550h97l27 -418h2l33 418h105l34 -418h2l27 418h92l-58 -550h-117l-33 359h-2l-34 -359h-117z" />
    <glyph glyph-name="x" unicode="x" horiz-adv-x="316" vert-adv-y="1170" 
d="M104 290l-86 260h98l46 -159h2l45 159h88l-86 -265l95 -285h-98l-55 186h-2l-53 -186h-88z" />
    <glyph glyph-name="y" unicode="y" horiz-adv-x="276" vert-adv-y="1170" 
d="M91 18l-81 532h103l24 -320h2l29 320h97l-104 -730h-95z" />
    <glyph glyph-name="z" unicode="z" horiz-adv-x="231" vert-adv-y="1170" 
d="M14 85l113 379h-109v86h195v-85l-113 -379h116v-86h-202v85z" />
    <glyph glyph-name="braceleft" unicode="{" horiz-adv-x="188" vert-adv-y="1170" 
d="M75.5 26.5q-28.5 26.5 -28.5 85.5v186q0 18 -7.5 25.5t-23.5 7.5h-4v87h4q17 0 24 7.5t7 25.5v187q0 60 28.5 86t94.5 26v-93q-15 0 -21 -6t-6 -19v-176q0 -59 -32 -81q32 -21 32 -81v-176q0 -13 6.5 -19t20.5 -6v-93q-66 0 -94.5 26.5z" />
    <glyph glyph-name="bar" unicode="|" horiz-adv-x="151" vert-adv-y="1170" 
d="M28 750h95v-850h-95v850z" />
    <glyph glyph-name="braceright" unicode="}" horiz-adv-x="188" vert-adv-y="1170" 
d="M39 99q6 6 6 19v176q0 60 32 81q-32 22 -32 81v176q0 14 -6 19.5t-21 5.5v93q66 0 94.5 -26.5t28.5 -85.5v-187q0 -18 7.5 -25.5t24.5 -7.5h4v-87h-4q-17 0 -24.5 -7.5t-7.5 -25.5v-186q0 -60 -28.5 -86t-94.5 -26v93q15 0 21 6z" />
    <glyph glyph-name="asciitilde" unicode="~" horiz-adv-x="305" vert-adv-y="1170" 
d="M179.5 279q-14.5 8 -32.5 23q-12 10 -19.5 14.5t-14.5 4.5q-11 0 -18 -11.5t-7 -30.5h-66q-3 68 19 102t66 34q18 0 32.5 -8t32.5 -23q9 -7 18 -13t16 -6q11 0 18 11.5t7 30.5h65q7 -136 -85 -136q-17 0 -31.5 8z" />
    <glyph glyph-name="uni00A0" unicode="&#xa0;" horiz-adv-x="116" vert-adv-y="1170" 
 />
    <glyph glyph-name="exclamdown" unicode="&#xa1;" horiz-adv-x="163" vert-adv-y="1170" 
d="M34 348h95v-528h-95v528zM43 465q-15 15 -15 38q0 24 15 39t38 15q24 0 39 -15t15 -39q0 -23 -14.5 -38t-39.5 -15q-23 0 -38 15z" />
    <glyph glyph-name="cent" unicode="&#xa2;" horiz-adv-x="288" vert-adv-y="1170" 
d="M43.5 42q-18.5 30 -18.5 72v322q0 42 18.5 72t50.5 43v79h96v-78q34 -11 54 -42t20 -73v-125l-95 -9v141q0 14 -6.5 21t-17.5 7q-12 0 -18.5 -7.5t-6.5 -21.5v-336q0 -14 6.5 -21.5t18.5 -7.5q11 0 17.5 7.5t6.5 20.5v141l95 -9v-125q0 -43 -20 -73.5t-54 -41.5v-78h-96
v79q-32 13 -50.5 43z" />
    <glyph glyph-name="sterling" unicode="&#xa3;" horiz-adv-x="293" vert-adv-y="1170" 
d="M7 92h36v184h-36v92h36v276q0 53 31.5 84.5t84.5 31.5t84 -31.5t31 -84.5v-120l-96 -8v133q0 10 -6 16.5t-14 6.5q-9 0 -14.5 -6.5t-5.5 -16.5v-281h105v-92h-105v-184h135v-93h-266v93z" />
    <glyph glyph-name="currency" unicode="&#xa4;" horiz-adv-x="278" vert-adv-y="1170" 
d="M29 98l31 86q-15 21 -15 49v240q0 29 15 48l-31 87l60 21l28 -75q7 2 23 2q13 0 21 -2l27 75l61 -21l-32 -86q17 -22 17 -49v-240q0 -28 -17 -50l32 -85l-61 -22l-27 74q-12 -2 -22 -2q-8 0 -22 2l-28 -74zM153 239v228q0 7 -3.5 11t-9.5 4q-14 0 -14 -15v-228
q0 -16 14 -16q13 0 13 16z" />
    <glyph glyph-name="yen" unicode="&#xa5;" horiz-adv-x="279" vert-adv-y="1170" 
d="M23 350h53l-65 400h96l34 -322l33 322h94l-65 -400h53v-82h-233v82zM91 145h-68v82h233v-82h-69v-145h-96v145z" />
    <glyph glyph-name="brokenbar" unicode="&#xa6;" horiz-adv-x="151" vert-adv-y="1170" 
d="M28 378h95v-478h-95v478zM28 750h95v-276h-95v276z" />
    <glyph glyph-name="section" unicode="&#xa7;" horiz-adv-x="266" vert-adv-y="1170" 
d="M49 -76q-32 34 -32 90v50l96 9v-68q0 -26 19 -26q20 0 20 25v18q0 37 -9.5 54.5t-46.5 51.5q-53 51 -70 84t-17 82v115q0 33 12.5 59t34.5 41q-21 27 -29 52t-8 58v21q0 55 31.5 87.5t83.5 32.5q51 0 81 -32.5t30 -88.5v-39l-96 -9v55q0 25 -17 25t-17 -23v-8
q0 -35 9 -53t42 -50q55 -50 73 -82t18 -80v-115q0 -73 -52 -101q28 -34 35 -58.5t7 -65.5v-21q0 -57 -31.5 -90.5t-83.5 -33.5q-51 0 -83 34zM157 225.5q5 6.5 5 17.5v123q0 21 -8 36t-35 45q-6 -1 -10 -7t-4 -16v-112q0 -29 7.5 -47.5t32.5 -46.5q7 1 12 7.5z" />
    <glyph glyph-name="dieresis" unicode="&#xa8;" horiz-adv-x="335" vert-adv-y="1170" 
d="M198 643q-16 16 -16 40q0 25 16 40.5t39 15.5q24 0 39.5 -15.5t15.5 -40.5t-15.5 -40.5t-39.5 -15.5q-23 0 -39 16zM72.5 642.5q-15.5 15.5 -15.5 40.5t15.5 40.5t38.5 15.5q24 0 39.5 -15.5t15.5 -40.5t-15.5 -40.5t-39.5 -15.5q-23 0 -38.5 15.5z" />
    <glyph glyph-name="copyright" unicode="&#xa9;" horiz-adv-x="408" vert-adv-y="1170" 
d="M112 12.5q-40 22.5 -62 62t-22 89.5v422q0 77 48.5 125.5t127.5 48.5q52 0 92 -22.5t62 -62t22 -89.5v-422q0 -50 -22 -89.5t-62 -62t-92 -22.5t-92 22.5zM305 65q37 39 37 101v417q0 63 -37.5 102t-100.5 39q-64 0 -101.5 -39t-37.5 -102v-417q0 -62 37.5 -101
t101.5 -39t101 39zM119 108.5q-32 33.5 -32 88.5v357q0 55 32 87.5t85 32.5t84.5 -32.5t31.5 -87.5v-144l-93 -8v159q0 13 -6 20t-17 7q-23 0 -23 -28v-371q0 -13 6 -20.5t17 -7.5t17 7t6 20v160l93 -9v-143q0 -55 -31.5 -88t-84.5 -33t-85 33.5z" />
    <glyph glyph-name="ordfeminine" unicode="&#xaa;" horiz-adv-x="217" vert-adv-y="1170" 
d="M34 364.5q-15 26.5 -15 71.5v55q0 48 22 70t68 22h18v91q0 11 -5 16.5t-13 5.5t-12.5 -5.5t-4.5 -15.5v-64l-71 6v53q0 42 24.5 67t63.5 25q40 0 64.5 -25.5t24.5 -67.5v-324h-59l-7 36h-1q-8 -23 -19 -33t-30 -10q-33 0 -48 26.5zM86 262h-52v44h150v-44h-51v-48h-47v48
zM122 414.5q5 7.5 5 21.5v94h-13q-23 0 -23 -32v-67q0 -24 17 -24q9 0 14 7.5z" />
    <glyph glyph-name="guillemotleft" unicode="&#xab;" horiz-adv-x="371" vert-adv-y="1170" 
d="M161 274l85 191h107l-86 -191l86 -191h-107zM14 274l85 191h107l-86 -191l86 -191h-107z" />
    <glyph glyph-name="logicalnot" unicode="&#xac;" horiz-adv-x="293" vert-adv-y="1170" 
d="M148 341h-99v93h195v-169h-96v76z" />
    <glyph glyph-name="registered" unicode="&#xae;" horiz-adv-x="408" vert-adv-y="1170" 
d="M112 12.5q-40 22.5 -62 62t-22 89.5v422q0 77 48.5 125.5t127.5 48.5q52 0 92 -22.5t62 -62t22 -89.5v-422q0 -50 -22 -89.5t-62 -62t-92 -22.5t-92 22.5zM305 65q37 39 37 101v417q0 63 -37.5 102t-100.5 39q-64 0 -101.5 -39t-37.5 -102v-417q0 -62 37.5 -101
t101.5 -39t101 39zM106 672h86q42 0 66.5 -11t36 -38.5t11.5 -78.5v-124q0 -78 -32 -105l36 -243h-82l-31 220h-10v-220h-81v600zM224 407v145q0 22 -6 33.5t-21 11.5h-10v-230h10q27 0 27 40z" />
    <glyph glyph-name="macron" unicode="&#xaf;" horiz-adv-x="288" vert-adv-y="1170" 
d="M244 723v-83h-187v83h187z" />
    <glyph glyph-name="degree" unicode="&#xb0;" horiz-adv-x="228" vert-adv-y="1170" 
d="M182.5 733q26.5 -24 26.5 -60v-240q0 -36 -26.5 -60t-68.5 -24t-68.5 24t-26.5 60v240q0 36 26.5 60t68.5 24t68.5 -24zM114 682q-6 0 -9.5 -4.5t-3.5 -10.5v-228q0 -7 4 -11.5t9 -4.5q7 0 10.5 4.5t3.5 11.5v228q0 15 -14 15z" />
    <glyph glyph-name="plusminus" unicode="&#xb1;" horiz-adv-x="293" vert-adv-y="1170" 
d="M99 343h-77v89h77v91h96v-91h76v-89h-76v-87h-96v87zM22 231h249v-89h-249v89z" />
    <glyph glyph-name="uni00B2" unicode="&#xb2;" horiz-adv-x="241" vert-adv-y="1170" 
d="M39.5 644.5q8.5 19.5 16 28.5t33.5 36q12 12 23 24t17 24t6 28v88q0 6 -4 9.5t-10 3.5t-10 -3.5t-4 -9.5v-82l-77 6v79q0 34 25.5 57t63.5 23q40 0 66.5 -23t26.5 -57v-98q0 -33 -10.5 -52t-32.5 -43l-14 -15q-29 -34 -37.5 -48t-8.5 -39v-57h103v-70h-181v144
q0 27 8.5 46.5z" />
    <glyph glyph-name="uni00B3" unicode="&#xb3;" horiz-adv-x="235" vert-adv-y="1170" 
d="M50 472q-26 25 -26 63v71l77 6v-76q0 -8 4.5 -13t12.5 -5t13 5t5 13v127q0 7 -6 12.5t-14 5.5h-52v54l61 144h-95v71h175v-58l-64 -148q36 -2 54 -25t18 -58v-126q0 -38 -26 -63t-69 -25q-42 0 -68 25z" />
    <glyph glyph-name="acute" unicode="&#xb4;" horiz-adv-x="230" vert-adv-y="1170" 
d="M77 750h110l-98 -135h-32z" />
    <glyph glyph-name="uni00B5" unicode="&#xb5;" horiz-adv-x="292" vert-adv-y="1170" 
d="M27 550h96v-421q0 -35 22 -35q12 0 19 10t7 29v417h95v-550h-79l-11 56h-2q-13 -52 -51 -58v-178h-96v730z" />
    <glyph glyph-name="paragraph" unicode="&#xb6;" horiz-adv-x="362" vert-adv-y="1170" 
d="M121 400q-43 0 -68 24t-25 69v164q0 45 25 69t68 24h75v-750h-75v400zM245 674h-28v76h130v-76h-27v-674h-75v674z" />
    <glyph glyph-name="periodcentered" unicode="&#xb7;" horiz-adv-x="152" vert-adv-y="1170" 
d="M37 254q-15 15 -15 38q0 24 15.5 39t38.5 15q24 0 39 -15.5t15 -38.5q0 -24 -15 -38.5t-39 -14.5t-39 15z" />
    <glyph glyph-name="cedilla" unicode="&#xb8;" horiz-adv-x="230" vert-adv-y="1170" 
d="M155 -75h32l-20 -135h-110z" />
    <glyph glyph-name="uni00B9" unicode="&#xb9;" horiz-adv-x="206" vert-adv-y="1170" 
d="M84 881h-47v69h123v-496h-76v427z" />
    <glyph glyph-name="ordmasculine" unicode="&#xba;" horiz-adv-x="218" vert-adv-y="1170" 
d="M44.5 362q-24.5 25 -24.5 66v241q0 43 24.5 67.5t65.5 24.5q39 0 63.5 -25t24.5 -67v-241q0 -42 -24.5 -66.5t-63.5 -24.5q-41 0 -65.5 25zM85 262h-51v44h150v-44h-52v-48h-47v48zM122.5 407.5q4.5 5.5 4.5 15.5v251q0 10 -5 15.5t-12 5.5q-9 0 -14 -5.5t-5 -15.5v-251
q0 -21 19 -21q8 0 12.5 5.5z" />
    <glyph glyph-name="guillemotright" unicode="&#xbb;" horiz-adv-x="371" vert-adv-y="1170" 
d="M251 274l-86 191h106l85 -191l-85 -191h-106zM104 274l-86 191h106l85 -191l-85 -191h-106z" />
    <glyph glyph-name="onequarter" unicode="&#xbc;" horiz-adv-x="497" vert-adv-y="1170" 
d="M76 688h-43v62h111v-446h-68v384zM245 750h84l-100 -750h-84zM399 85h-95v57l37 303h69l-36 -298h25v73h67v-73h21v-62h-21v-85h-67v85z" />
    <glyph glyph-name="onehalf" unicode="&#xbd;" horiz-adv-x="510" vert-adv-y="1170" 
d="M76 688h-43v62h111v-446h-68v384zM245 750h84l-100 -750h-84zM328.5 171q7.5 18 20 32t24.5 26q11 11 21 21.5t15.5 21.5t5.5 26v79q0 6 -4 8.5t-9 2.5t-9 -3t-4 -8v-74l-69 5v71q0 31 23 51.5t57 20.5q36 0 60 -20.5t24 -51.5v-88q0 -24 -7 -40.5t-19.5 -31t-24.5 -27.5
q-27 -30 -34.5 -43t-7.5 -35v-51h93v-63h-163v129q0 24 7.5 42z" />
    <glyph glyph-name="threequarters" unicode="&#xbe;" horiz-adv-x="532" vert-adv-y="1170" 
d="M45 320q-23 23 -23 57v63l69 6v-69q0 -7 4 -11.5t11 -4.5t11.5 4.5t4.5 11.5v115q0 6 -5.5 11t-12.5 5h-46v49l55 129h-86v64h158v-52l-58 -133q33 -2 49 -22.5t16 -52.5v-113q0 -34 -24 -57t-62 -23t-61 23zM280 750h84l-100 -750h-84zM434 85h-95v57l37 303h69
l-36 -298h25v73h67v-73h21v-62h-21v-85h-67v85z" />
    <glyph glyph-name="questiondown" unicode="&#xbf;" horiz-adv-x="293" vert-adv-y="1170" 
d="M61 -153q-33 32 -33 83v210q0 39 19.5 67t54.5 40v106h97v-187h-51q-11 0 -17.5 -7t-6.5 -19v-210q0 -26 24 -26t24 26v156l97 -8v-148q0 -51 -33.5 -83t-87.5 -32t-87 32zM113 470q-15 15 -15 38q0 24 15.5 39t38.5 15t38.5 -15.5t15.5 -38.5t-15.5 -38t-38.5 -15
q-24 0 -39 15z" />
    <glyph glyph-name="Agrave" unicode="&#xc0;" horiz-adv-x="282" vert-adv-y="1170" 
d="M79 750h125l69 -750h-98l-7 123h-58l-8 -123h-93zM164 202l-23 409l-27 -409h50zM30 950h110l20 -135h-32z" />
    <glyph glyph-name="Aacute" unicode="&#xc1;" horiz-adv-x="282" vert-adv-y="1170" 
d="M79 750h125l69 -750h-98l-7 123h-58l-8 -123h-93zM164 202l-23 409l-27 -409h50zM139 950h110l-98 -135h-32z" />
    <glyph glyph-name="Acircumflex" unicode="&#xc2;" horiz-adv-x="282" vert-adv-y="1170" 
d="M79 750h125l69 -750h-98l-7 123h-58l-8 -123h-93zM164 202l-23 409l-27 -409h50zM103 950h76l54 -135h-54l-38 66l-39 -66h-53z" />
    <glyph glyph-name="Atilde" unicode="&#xc3;" horiz-adv-x="282" vert-adv-y="1170" 
d="M79 750h125l69 -750h-98l-7 123h-58l-8 -123h-93zM164 202l-23 409l-27 -409h50zM157.5 830.5q-13.5 8.5 -28.5 23.5q-18 18 -28 18t-16 -11t-6 -31h-66q-3 58 18 89.5t64 31.5q17 0 30.5 -8.5t28.5 -23.5q18 -18 28 -18t16 11t6 31h65q4 -59 -17 -90t-64 -31
q-17 0 -30.5 8.5z" />
    <glyph glyph-name="Adieresis" unicode="&#xc4;" horiz-adv-x="282" vert-adv-y="1170" 
d="M79 750h125l69 -750h-98l-7 123h-58l-8 -123h-93zM164 202l-23 409l-27 -409h50zM165 843q-16 16 -16 40q0 25 16 40.5t39 15.5q24 0 39.5 -15.5t15.5 -40.5t-15.5 -40.5t-39.5 -15.5q-23 0 -39 16zM39.5 842.5q-15.5 15.5 -15.5 40.5t15.5 40.5t38.5 15.5
q24 0 39.5 -15.5t15.5 -40.5t-15.5 -40.5t-39.5 -15.5q-23 0 -38.5 15.5z" />
    <glyph glyph-name="Aring" unicode="&#xc5;" horiz-adv-x="282" vert-adv-y="1170" 
d="M79 750h125l69 -750h-98l-7 123h-58l-8 -123h-93zM164 202l-23 409l-27 -409h50zM79.5 828q-24.5 25 -24.5 62t24.5 62t61.5 25t61.5 -25t24.5 -62t-24.5 -62t-61.5 -25t-61.5 25zM160 868q8 9 8 22q0 14 -8 23t-19 9q-12 0 -19.5 -9t-7.5 -23t7.5 -22.5t19.5 -8.5
q11 0 19 9z" />
    <glyph glyph-name="AE" unicode="&#xc6;" horiz-adv-x="410" vert-adv-y="1170" 
d="M126 750h265v-89h-97v-226h72v-90h-72v-256h97v-89h-193v123h-71l-16 -123h-102zM198 202v441l-60 -441h60z" />
    <glyph glyph-name="Ccedilla" unicode="&#xc7;" horiz-adv-x="295" vert-adv-y="1170" 
d="M61 22q-33 32 -33 83v540q0 51 33 83t87 32t87 -32t33 -83v-186l-96 -9v195q0 13 -6.5 20t-17.5 7t-18 -7t-7 -20v-540q0 -13 6.5 -20t18.5 -7q11 0 17.5 7t6.5 20v211l96 -9v-202q0 -51 -33 -83t-87 -32t-87 32zM138 -65h32l-20 -135h-110z" />
    <glyph glyph-name="Egrave" unicode="&#xc8;" horiz-adv-x="241" vert-adv-y="1170" 
d="M28 750h193v-89h-98v-226h73v-90h-73v-256h98v-89h-193v750zM15 950h110l20 -135h-32z" />
    <glyph glyph-name="Eacute" unicode="&#xc9;" horiz-adv-x="241" vert-adv-y="1170" 
d="M28 750h193v-89h-98v-226h73v-90h-73v-256h98v-89h-193v750zM124 950h110l-98 -135h-32z" />
    <glyph glyph-name="Ecircumflex" unicode="&#xca;" horiz-adv-x="241" vert-adv-y="1170" 
d="M28 750h193v-89h-98v-226h73v-90h-73v-256h98v-89h-193v750zM88 950h76l54 -135h-54l-38 66l-39 -66h-53z" />
    <glyph glyph-name="Edieresis" unicode="&#xcb;" horiz-adv-x="241" vert-adv-y="1170" 
d="M28 750h193v-89h-98v-226h73v-90h-73v-256h98v-89h-193v750zM150 843q-16 16 -16 40q0 25 16 40.5t39 15.5q24 0 39.5 -15.5t15.5 -40.5t-15.5 -40.5t-39.5 -15.5q-23 0 -39 16zM24.5 842.5q-15.5 15.5 -15.5 40.5t15.5 40.5t38.5 15.5q24 0 39.5 -15.5t15.5 -40.5
t-15.5 -40.5t-39.5 -15.5q-23 0 -38.5 15.5z" />
    <glyph glyph-name="Igrave" unicode="&#xcc;" horiz-adv-x="151" vert-adv-y="1170" 
d="M28 750h95v-750h-95v750zM-35 950h110l20 -135h-32z" />
    <glyph glyph-name="Iacute" unicode="&#xcd;" horiz-adv-x="151" vert-adv-y="1170" 
d="M28 750h95v-750h-95v750zM74 950h110l-98 -135h-32z" />
    <glyph glyph-name="Icircumflex" unicode="&#xce;" horiz-adv-x="151" vert-adv-y="1170" 
d="M28 750h95v-750h-95v750zM38 950h76l54 -135h-54l-38 66l-39 -66h-53z" />
    <glyph glyph-name="Idieresis" unicode="&#xcf;" horiz-adv-x="151" vert-adv-y="1170" 
d="M28 750h95v-750h-95v750zM100 843q-16 16 -16 40q0 25 16 40.5t39 15.5q24 0 39.5 -15.5t15.5 -40.5t-15.5 -40.5t-39.5 -15.5q-23 0 -39 16zM-25.5 842.5q-15.5 15.5 -15.5 40.5t15.5 40.5t38.5 15.5q24 0 39.5 -15.5t15.5 -40.5t-15.5 -40.5t-39.5 -15.5
q-23 0 -38.5 15.5z" />
    <glyph glyph-name="Eth" unicode="&#xd0;" horiz-adv-x="315" vert-adv-y="1170" 
d="M48 334h-41v83h41v333h119q54 0 87 -32t33 -83v-520q0 -51 -33 -83t-87 -32h-119v334zM184 95.5q6 6.5 6 19.5v520q0 26 -23 26h-24v-244h28v-83h-28v-245h24q11 0 17 6.5z" />
    <glyph glyph-name="Ntilde" unicode="&#xd1;" horiz-adv-x="304" vert-adv-y="1170" 
d="M28 750h76l91 -420v420h81v-750h-76l-91 421v-421h-81v750zM168.5 830.5q-13.5 8.5 -28.5 23.5q-18 18 -28 18t-16 -11t-6 -31h-66q-3 58 18 89.5t64 31.5q17 0 30.5 -8.5t28.5 -23.5q18 -18 28 -18t16 11t6 31h65q4 -59 -17 -90t-64 -31q-17 0 -30.5 8.5z" />
    <glyph glyph-name="Ograve" unicode="&#xd2;" horiz-adv-x="295" vert-adv-y="1170" 
d="M61 22q-33 32 -33 83v540q0 51 33 83t87 32t87 -32t33 -83v-540q0 -51 -33 -83t-87 -32t-87 32zM165.5 85q6.5 7 6.5 20v540q0 13 -6.5 20t-17.5 7t-18 -7t-7 -20v-540q0 -13 6.5 -20t18.5 -7q11 0 17.5 7zM37 950h110l20 -135h-32z" />
    <glyph glyph-name="Oacute" unicode="&#xd3;" horiz-adv-x="295" vert-adv-y="1170" 
d="M61 22q-33 32 -33 83v540q0 51 33 83t87 32t87 -32t33 -83v-540q0 -51 -33 -83t-87 -32t-87 32zM165.5 85q6.5 7 6.5 20v540q0 13 -6.5 20t-17.5 7t-18 -7t-7 -20v-540q0 -13 6.5 -20t18.5 -7q11 0 17.5 7zM146 950h110l-98 -135h-32z" />
    <glyph glyph-name="Ocircumflex" unicode="&#xd4;" horiz-adv-x="295" vert-adv-y="1170" 
d="M61 22q-33 32 -33 83v540q0 51 33 83t87 32t87 -32t33 -83v-540q0 -51 -33 -83t-87 -32t-87 32zM165.5 85q6.5 7 6.5 20v540q0 13 -6.5 20t-17.5 7t-18 -7t-7 -20v-540q0 -13 6.5 -20t18.5 -7q11 0 17.5 7zM110 950h76l54 -135h-54l-38 66l-39 -66h-53z" />
    <glyph glyph-name="Otilde" unicode="&#xd5;" horiz-adv-x="295" vert-adv-y="1170" 
d="M61 22q-33 32 -33 83v540q0 51 33 83t87 32t87 -32t33 -83v-540q0 -51 -33 -83t-87 -32t-87 32zM165.5 85q6.5 7 6.5 20v540q0 13 -6.5 20t-17.5 7t-18 -7t-7 -20v-540q0 -13 6.5 -20t18.5 -7q11 0 17.5 7zM164.5 830.5q-13.5 8.5 -28.5 23.5q-18 18 -28 18t-16 -11
t-6 -31h-66q-3 58 18 89.5t64 31.5q17 0 30.5 -8.5t28.5 -23.5q18 -18 28 -18t16 11t6 31h65q4 -59 -17 -90t-64 -31q-17 0 -30.5 8.5z" />
    <glyph glyph-name="Odieresis" unicode="&#xd6;" horiz-adv-x="295" vert-adv-y="1170" 
d="M61 22q-33 32 -33 83v540q0 51 33 83t87 32t87 -32t33 -83v-540q0 -51 -33 -83t-87 -32t-87 32zM165.5 85q6.5 7 6.5 20v540q0 13 -6.5 20t-17.5 7t-18 -7t-7 -20v-540q0 -13 6.5 -20t18.5 -7q11 0 17.5 7zM172 843q-16 16 -16 40q0 25 16 40.5t39 15.5q24 0 39.5 -15.5
t15.5 -40.5t-15.5 -40.5t-39.5 -15.5q-23 0 -39 16zM46.5 842.5q-15.5 15.5 -15.5 40.5t15.5 40.5t38.5 15.5q24 0 39.5 -15.5t15.5 -40.5t-15.5 -40.5t-39.5 -15.5q-23 0 -38.5 15.5z" />
    <glyph glyph-name="multiply" unicode="&#xd7;" horiz-adv-x="293" vert-adv-y="1170" 
d="M27 331l57 57l-57 56l62 63l57 -57l57 57l63 -63l-57 -56l57 -57l-63 -63l-57 57l-57 -57z" />
    <glyph glyph-name="Oslash" unicode="&#xd8;" horiz-adv-x="295" vert-adv-y="1170" 
d="M38 55q-10 21 -10 50v540q0 51 33 83t87 32q44 0 75 -22l6 33h44l-15 -76q10 -23 10 -50v-540q0 -51 -33 -83t-87 -32q-44 0 -74 22l-7 -35h-44zM165.5 85q6.5 7 6.5 20v278l-49 -249v-29q0 -13 6.5 -20t18.5 -7q11 0 17.5 7zM172 604v41q0 13 -6.5 20t-17.5 7t-18 -7
t-7 -20v-290z" />
    <glyph glyph-name="Ugrave" unicode="&#xd9;" horiz-adv-x="296" vert-adv-y="1170" 
d="M61 24q-33 32 -33 82v644h96v-644q0 -26 24 -26q11 0 17 6.5t6 19.5v644h97v-644q0 -50 -33 -82t-87 -32t-87 32zM37 950h110l20 -135h-32z" />
    <glyph glyph-name="Uacute" unicode="&#xda;" horiz-adv-x="296" vert-adv-y="1170" 
d="M61 24q-33 32 -33 82v644h96v-644q0 -26 24 -26q11 0 17 6.5t6 19.5v644h97v-644q0 -50 -33 -82t-87 -32t-87 32zM146 950h110l-98 -135h-32z" />
    <glyph glyph-name="Ucircumflex" unicode="&#xdb;" horiz-adv-x="296" vert-adv-y="1170" 
d="M61 24q-33 32 -33 82v644h96v-644q0 -26 24 -26q11 0 17 6.5t6 19.5v644h97v-644q0 -50 -33 -82t-87 -32t-87 32zM110 950h76l54 -135h-54l-38 66l-39 -66h-53z" />
    <glyph glyph-name="Udieresis" unicode="&#xdc;" horiz-adv-x="296" vert-adv-y="1170" 
d="M61 24q-33 32 -33 82v644h96v-644q0 -26 24 -26q11 0 17 6.5t6 19.5v644h97v-644q0 -50 -33 -82t-87 -32t-87 32zM172 843q-16 16 -16 40q0 25 16 40.5t39 15.5q24 0 39.5 -15.5t15.5 -40.5t-15.5 -40.5t-39.5 -15.5q-23 0 -39 16zM46.5 842.5q-15.5 15.5 -15.5 40.5
t15.5 40.5t38.5 15.5q24 0 39.5 -15.5t15.5 -40.5t-15.5 -40.5t-39.5 -15.5q-23 0 -38.5 15.5z" />
    <glyph glyph-name="Yacute" unicode="&#xdd;" horiz-adv-x="271" vert-adv-y="1170" 
d="M87 250l-80 500h96l34 -323l33 323h94l-81 -501v-249h-96v250zM133 950h110l-98 -135h-32z" />
    <glyph glyph-name="Thorn" unicode="&#xde;" horiz-adv-x="294" vert-adv-y="1170" 
d="M28 750h95v-132h11q54 0 83.5 -16t42 -50.5t12.5 -95.5v-122q0 -89 -31.5 -125.5t-106.5 -36.5h-11v-172h-95v750zM166 275q9 14 9 43v147q0 35 -8.5 49.5t-28.5 14.5h-15v-268h15q19 0 28 14z" />
    <glyph glyph-name="germandbls" unicode="&#xdf;" horiz-adv-x="330" vert-adv-y="1170" 
d="M196 103q16 15 16 42v47q0 24 -8.5 46t-24.5 49q-16 30 -24 49.5t-8 42.5q0 26 6 43t17 37t16.5 36.5t5.5 41.5v70q0 66 -33 66q-18 0 -27 -15.5t-9 -50.5v-607h-96v609q0 68 35.5 109.5t94.5 41.5q56 0 90 -41.5t34 -109.5v-53q0 -32 -8.5 -54t-24.5 -46
q-11 -17 -16 -28t-5 -24q0 -16 7.5 -33t23.5 -43q24 -41 37 -73.5t13 -72.5v-38q0 -78 -38.5 -116t-118.5 -38v98q29 0 45 15z" />
    <glyph glyph-name="agrave" unicode="&#xe0;" horiz-adv-x="285" vert-adv-y="1170" 
d="M39.5 26q-19.5 36 -19.5 97v73q0 64 29 94t91 30h24v123q0 14 -6 21.5t-17 7.5t-17.5 -7.5t-6.5 -20.5v-87l-96 9v71q0 56 33 89.5t87 33.5t86 -34t32 -90v-436h-78l-10 49h-1q-10 -31 -25.5 -45t-41.5 -14q-44 0 -63.5 36zM164 123v124h-18q-16 0 -23.5 -10.5
t-7.5 -31.5v-89q0 -33 24 -33q25 0 25 40zM30 750h110l20 -135h-32z" />
    <glyph glyph-name="aacute" unicode="&#xe1;" horiz-adv-x="285" vert-adv-y="1170" 
d="M39.5 26q-19.5 36 -19.5 97v73q0 64 29 94t91 30h24v123q0 14 -6 21.5t-17 7.5t-17.5 -7.5t-6.5 -20.5v-87l-96 9v71q0 56 33 89.5t87 33.5t86 -34t32 -90v-436h-78l-10 49h-1q-10 -31 -25.5 -45t-41.5 -14q-44 0 -63.5 36zM164 123v124h-18q-16 0 -23.5 -10.5
t-7.5 -31.5v-89q0 -33 24 -33q25 0 25 40zM139 750h110l-98 -135h-32z" />
    <glyph glyph-name="acircumflex" unicode="&#xe2;" horiz-adv-x="285" vert-adv-y="1170" 
d="M39.5 26q-19.5 36 -19.5 97v73q0 64 29 94t91 30h24v123q0 14 -6 21.5t-17 7.5t-17.5 -7.5t-6.5 -20.5v-87l-96 9v71q0 56 33 89.5t87 33.5t86 -34t32 -90v-436h-78l-10 49h-1q-10 -31 -25.5 -45t-41.5 -14q-44 0 -63.5 36zM164 123v124h-18q-16 0 -23.5 -10.5
t-7.5 -31.5v-89q0 -33 24 -33q25 0 25 40zM103 750h76l54 -135h-54l-38 66l-39 -66h-53z" />
    <glyph glyph-name="atilde" unicode="&#xe3;" horiz-adv-x="285" vert-adv-y="1170" 
d="M39.5 26q-19.5 36 -19.5 97v73q0 64 29 94t91 30h24v123q0 14 -6 21.5t-17 7.5t-17.5 -7.5t-6.5 -20.5v-87l-96 9v71q0 56 33 89.5t87 33.5t86 -34t32 -90v-436h-78l-10 49h-1q-10 -31 -25.5 -45t-41.5 -14q-44 0 -63.5 36zM164 123v124h-18q-16 0 -23.5 -10.5
t-7.5 -31.5v-89q0 -33 24 -33q25 0 25 40zM157.5 630.5q-13.5 8.5 -28.5 23.5q-18 18 -28 18t-16 -11t-6 -31h-66q-3 58 18 89.5t64 31.5q17 0 30.5 -8.5t28.5 -23.5q18 -18 28 -18t16 11t6 31h65q4 -59 -17 -90t-64 -31q-17 0 -30.5 8.5z" />
    <glyph glyph-name="adieresis" unicode="&#xe4;" horiz-adv-x="285" vert-adv-y="1170" 
d="M39.5 26q-19.5 36 -19.5 97v73q0 64 29 94t91 30h24v123q0 14 -6 21.5t-17 7.5t-17.5 -7.5t-6.5 -20.5v-87l-96 9v71q0 56 33 89.5t87 33.5t86 -34t32 -90v-436h-78l-10 49h-1q-10 -31 -25.5 -45t-41.5 -14q-44 0 -63.5 36zM164 123v124h-18q-16 0 -23.5 -10.5
t-7.5 -31.5v-89q0 -33 24 -33q25 0 25 40zM165 643q-16 16 -16 40q0 25 16 40.5t39 15.5q24 0 39.5 -15.5t15.5 -40.5t-15.5 -40.5t-39.5 -15.5q-23 0 -39 16zM39.5 642.5q-15.5 15.5 -15.5 40.5t15.5 40.5t38.5 15.5q24 0 39.5 -15.5t15.5 -40.5t-15.5 -40.5t-39.5 -15.5
q-23 0 -38.5 15.5z" />
    <glyph glyph-name="aring" unicode="&#xe5;" horiz-adv-x="285" vert-adv-y="1170" 
d="M39.5 26q-19.5 36 -19.5 97v73q0 64 29 94t91 30h24v123q0 14 -6 21.5t-17 7.5t-17.5 -7.5t-6.5 -20.5v-87l-96 9v71q0 56 33 89.5t87 33.5t86 -34t32 -90v-436h-78l-10 49h-1q-10 -31 -25.5 -45t-41.5 -14q-44 0 -63.5 36zM164 123v124h-18q-16 0 -23.5 -10.5
t-7.5 -31.5v-89q0 -33 24 -33q25 0 25 40zM79.5 628q-24.5 25 -24.5 62t24.5 62t61.5 25t61.5 -25t24.5 -62t-24.5 -62t-61.5 -25t-61.5 25zM160 668q8 9 8 22q0 14 -8 23t-19 9q-12 0 -19.5 -9t-7.5 -23t7.5 -22.5t19.5 -8.5q11 0 19 9z" />
    <glyph glyph-name="ae" unicode="&#xe6;" horiz-adv-x="427" vert-adv-y="1170" 
d="M20 123v73q0 64 29 94t91 30h24v123q0 14 -6 21.5t-17 7.5t-17.5 -7.5t-6.5 -20.5v-87l-96 9v71q0 56 31 89.5t81 33.5q49 0 79 -31q17 17 36 24t43 7q51 0 81.5 -33.5t30.5 -89.5v-180h-144v-152q0 -13 7 -20.5t18 -7.5t17.5 7t6.5 20v114l95 -8v-97q0 -56 -32.5 -89.5
t-86.5 -33.5q-74 0 -99 62q-14 -31 -33 -46.5t-47 -15.5q-85 0 -85 133zM164 123v124h-18q-31 0 -31 -42v-89q0 -33 24 -33q25 0 25 40zM308 321v125q0 13 -6.5 20t-17.5 7t-18 -7.5t-7 -20.5v-124h49z" />
    <glyph glyph-name="ccedilla" unicode="&#xe7;" horiz-adv-x="288" vert-adv-y="1170" 
d="M57.5 24q-32.5 34 -32.5 90v322q0 57 32.5 90.5t87.5 33.5q54 0 86.5 -33.5t32.5 -89.5v-125l-95 -9v141q0 14 -6.5 21t-17.5 7q-12 0 -18.5 -7.5t-6.5 -21.5v-336q0 -14 6.5 -21.5t18.5 -7.5q11 0 17.5 7.5t6.5 20.5v141l95 -9v-125q0 -56 -32.5 -89.5t-86.5 -33.5
q-55 0 -87.5 34zM134 -65h32l-20 -135h-110z" />
    <glyph glyph-name="egrave" unicode="&#xe8;" horiz-adv-x="289" vert-adv-y="1170" 
d="M57.5 24q-32.5 34 -32.5 90v322q0 57 32.5 90.5t87.5 33.5q54 0 86.5 -33.5t32.5 -89.5v-180h-144v-152q0 -13 7 -20.5t18 -7.5t17.5 7t6.5 20v114l95 -8v-97q0 -56 -32.5 -89.5t-86.5 -33.5q-55 0 -87.5 34zM169 321v125q0 13 -6.5 20t-17.5 7q-25 0 -25 -28v-124h49z
M34 750h110l20 -135h-32z" />
    <glyph glyph-name="eacute" unicode="&#xe9;" horiz-adv-x="289" vert-adv-y="1170" 
d="M57.5 24q-32.5 34 -32.5 90v322q0 57 32.5 90.5t87.5 33.5q54 0 86.5 -33.5t32.5 -89.5v-180h-144v-152q0 -13 7 -20.5t18 -7.5t17.5 7t6.5 20v114l95 -8v-97q0 -56 -32.5 -89.5t-86.5 -33.5q-55 0 -87.5 34zM169 321v125q0 13 -6.5 20t-17.5 7q-25 0 -25 -28v-124h49z
M143 750h110l-98 -135h-32z" />
    <glyph glyph-name="ecircumflex" unicode="&#xea;" horiz-adv-x="289" vert-adv-y="1170" 
d="M57.5 24q-32.5 34 -32.5 90v322q0 57 32.5 90.5t87.5 33.5q54 0 86.5 -33.5t32.5 -89.5v-180h-144v-152q0 -13 7 -20.5t18 -7.5t17.5 7t6.5 20v114l95 -8v-97q0 -56 -32.5 -89.5t-86.5 -33.5q-55 0 -87.5 34zM169 321v125q0 13 -6.5 20t-17.5 7q-25 0 -25 -28v-124h49z
M107 750h76l54 -135h-54l-38 66l-39 -66h-53z" />
    <glyph glyph-name="edieresis" unicode="&#xeb;" horiz-adv-x="289" vert-adv-y="1170" 
d="M57.5 24q-32.5 34 -32.5 90v322q0 57 32.5 90.5t87.5 33.5q54 0 86.5 -33.5t32.5 -89.5v-180h-144v-152q0 -13 7 -20.5t18 -7.5t17.5 7t6.5 20v114l95 -8v-97q0 -56 -32.5 -89.5t-86.5 -33.5q-55 0 -87.5 34zM169 321v125q0 13 -6.5 20t-17.5 7q-25 0 -25 -28v-124h49z
M169 643q-16 16 -16 40q0 25 16 40.5t39 15.5q24 0 39.5 -15.5t15.5 -40.5t-15.5 -40.5t-39.5 -15.5q-23 0 -39 16zM43.5 642.5q-15.5 15.5 -15.5 40.5t15.5 40.5t38.5 15.5q24 0 39.5 -15.5t15.5 -40.5t-15.5 -40.5t-39.5 -15.5q-23 0 -38.5 15.5z" />
    <glyph glyph-name="igrave" unicode="&#xec;" horiz-adv-x="150" vert-adv-y="1170" 
d="M27 550h96v-550h-96v550zM-36 750h110l20 -135h-32z" />
    <glyph glyph-name="iacute" unicode="&#xed;" horiz-adv-x="150" vert-adv-y="1170" 
d="M27 550h96v-550h-96v550zM73 750h110l-98 -135h-32z" />
    <glyph glyph-name="icircumflex" unicode="&#xee;" horiz-adv-x="150" vert-adv-y="1170" 
d="M27 550h96v-550h-96v550zM37 750h76l54 -135h-54l-38 66l-39 -66h-53z" />
    <glyph glyph-name="idieresis" unicode="&#xef;" horiz-adv-x="150" vert-adv-y="1170" 
d="M27 550h96v-550h-96v550zM96 647q-13 15 -13 37t13 36.5t33 14.5q21 0 34 -14.5t13 -36.5q0 -23 -13 -37.5t-34 -14.5q-20 0 -33 15zM-13 647q-13 15 -13 37t13 36.5t33 14.5q21 0 34 -14.5t13 -36.5q0 -23 -13 -37.5t-34 -14.5q-20 0 -33 15z" />
    <glyph glyph-name="eth" unicode="&#xf0;" horiz-adv-x="289" vert-adv-y="1170" 
d="M57.5 23.5q-32.5 33.5 -32.5 89.5v274q0 57 23 90t64 33q15 0 28 -6t21 -15q-10 62 -35 116l-73 -29l-25 59l71 27q-24 41 -62 88h101q25 -31 40 -58l61 24l25 -58l-57 -22q30 -67 43.5 -140.5t13.5 -139.5v-243q0 -56 -32.5 -89.5t-86.5 -33.5q-55 0 -87.5 33.5z
M162.5 85.5q6.5 7.5 6.5 20.5v288q0 13 -6.5 20.5t-17.5 7.5q-12 0 -18.5 -7.5t-6.5 -20.5v-288q0 -28 25 -28q11 0 17.5 7.5z" />
    <glyph glyph-name="ntilde" unicode="&#xf1;" horiz-adv-x="292" vert-adv-y="1170" 
d="M27 550h88v-55h3q9 30 25.5 47.5t48.5 17.5q39 0 57 -26.5t18 -77.5v-456h-96v421q0 35 -22 35q-12 0 -19 -10t-7 -29v-417h-96v550zM162.5 630.5q-13.5 8.5 -28.5 23.5q-18 18 -28 18t-16 -11t-6 -31h-66q-3 58 18 89.5t64 31.5q17 0 30.5 -8.5t28.5 -23.5
q18 -18 28 -18t16 11t6 31h65q4 -59 -17 -90t-64 -31q-17 0 -30.5 8.5z" />
    <glyph glyph-name="ograve" unicode="&#xf2;" horiz-adv-x="289" vert-adv-y="1170" 
d="M57.5 23.5q-32.5 33.5 -32.5 89.5v324q0 56 32.5 89.5t87.5 33.5q54 0 86.5 -33.5t32.5 -89.5v-324q0 -56 -32.5 -89.5t-86.5 -33.5q-55 0 -87.5 33.5zM126.5 85q6.5 -7 18.5 -7q11 0 17.5 7.5t6.5 20.5v338q0 14 -6.5 21t-17.5 7q-25 0 -25 -28v-338q0 -14 6.5 -21z
M34 750h110l20 -135h-32z" />
    <glyph glyph-name="oacute" unicode="&#xf3;" horiz-adv-x="289" vert-adv-y="1170" 
d="M57.5 23.5q-32.5 33.5 -32.5 89.5v324q0 56 32.5 89.5t87.5 33.5q54 0 86.5 -33.5t32.5 -89.5v-324q0 -56 -32.5 -89.5t-86.5 -33.5q-55 0 -87.5 33.5zM126.5 85q6.5 -7 18.5 -7q11 0 17.5 7.5t6.5 20.5v338q0 14 -6.5 21t-17.5 7q-25 0 -25 -28v-338q0 -14 6.5 -21z
M143 750h110l-98 -135h-32z" />
    <glyph glyph-name="ocircumflex" unicode="&#xf4;" horiz-adv-x="289" vert-adv-y="1170" 
d="M57.5 23.5q-32.5 33.5 -32.5 89.5v324q0 56 32.5 89.5t87.5 33.5q54 0 86.5 -33.5t32.5 -89.5v-324q0 -56 -32.5 -89.5t-86.5 -33.5q-55 0 -87.5 33.5zM126.5 85q6.5 -7 18.5 -7q11 0 17.5 7.5t6.5 20.5v338q0 14 -6.5 21t-17.5 7q-25 0 -25 -28v-338q0 -14 6.5 -21z
M107 750h76l54 -135h-54l-38 66l-39 -66h-53z" />
    <glyph glyph-name="otilde" unicode="&#xf5;" horiz-adv-x="289" vert-adv-y="1170" 
d="M57.5 23.5q-32.5 33.5 -32.5 89.5v324q0 56 32.5 89.5t87.5 33.5q54 0 86.5 -33.5t32.5 -89.5v-324q0 -56 -32.5 -89.5t-86.5 -33.5q-55 0 -87.5 33.5zM126.5 85q6.5 -7 18.5 -7q11 0 17.5 7.5t6.5 20.5v338q0 14 -6.5 21t-17.5 7q-25 0 -25 -28v-338q0 -14 6.5 -21z
M161.5 630.5q-13.5 8.5 -28.5 23.5q-18 18 -28 18t-16 -11t-6 -31h-66q-3 58 18 89.5t64 31.5q17 0 30.5 -8.5t28.5 -23.5q18 -18 28 -18t16 11t6 31h65q4 -59 -17 -90t-64 -31q-17 0 -30.5 8.5z" />
    <glyph glyph-name="odieresis" unicode="&#xf6;" horiz-adv-x="289" vert-adv-y="1170" 
d="M57.5 23.5q-32.5 33.5 -32.5 89.5v324q0 56 32.5 89.5t87.5 33.5q54 0 86.5 -33.5t32.5 -89.5v-324q0 -56 -32.5 -89.5t-86.5 -33.5q-55 0 -87.5 33.5zM126.5 85q6.5 -7 18.5 -7q11 0 17.5 7.5t6.5 20.5v338q0 14 -6.5 21t-17.5 7q-25 0 -25 -28v-338q0 -14 6.5 -21z
M169 643q-16 16 -16 40q0 25 16 40.5t39 15.5q24 0 39.5 -15.5t15.5 -40.5t-15.5 -40.5t-39.5 -15.5q-23 0 -39 16zM43.5 642.5q-15.5 15.5 -15.5 40.5t15.5 40.5t38.5 15.5q24 0 39.5 -15.5t15.5 -40.5t-15.5 -40.5t-39.5 -15.5q-23 0 -38.5 15.5z" />
    <glyph glyph-name="divide" unicode="&#xf7;" horiz-adv-x="293" vert-adv-y="1170" 
d="M36 432h221v-89h-221v89zM108 219.5q-15 15.5 -15 39.5q0 23 15 38t38 15q24 0 39.5 -15t15.5 -38q0 -24 -15 -39.5t-40 -15.5q-23 0 -38 15.5zM108 478.5q-15 15.5 -15 38.5t15 38t38 15q25 0 40 -15t15 -38q0 -24 -15 -39t-40 -15q-23 0 -38 15.5z" />
    <glyph glyph-name="oslash" unicode="&#xf8;" horiz-adv-x="292" vert-adv-y="1170" 
d="M44 43q-18 29 -18 70v324q0 56 33 89.5t88 33.5q23 0 43 -7l13 33h75l-30 -79q18 -30 18 -70v-324q0 -56 -32.5 -89.5t-86.5 -33.5q-24 0 -44 7l-13 -34h-76zM164 85.5q6 7.5 6 20.5v198l-48 -204q3 -22 25 -22q11 0 17 7.5zM170 434v10q0 14 -6.5 21t-16.5 7
q-25 0 -25 -28v-211z" />
    <glyph glyph-name="ugrave" unicode="&#xf9;" horiz-adv-x="291" vert-adv-y="1170" 
d="M25 98v452h96v-421q0 -35 22 -35q12 0 19 10t7 29v417h95v-550h-79l-11 56h-2q-8 -31 -24 -48.5t-48 -17.5q-75 0 -75 108zM35 750h110l20 -135h-32z" />
    <glyph glyph-name="uacute" unicode="&#xfa;" horiz-adv-x="291" vert-adv-y="1170" 
d="M25 98v452h96v-421q0 -35 22 -35q12 0 19 10t7 29v417h95v-550h-79l-11 56h-2q-8 -31 -24 -48.5t-48 -17.5q-75 0 -75 108zM144 750h110l-98 -135h-32z" />
    <glyph glyph-name="ucircumflex" unicode="&#xfb;" horiz-adv-x="291" vert-adv-y="1170" 
d="M25 98v452h96v-421q0 -35 22 -35q12 0 19 10t7 29v417h95v-550h-79l-11 56h-2q-8 -31 -24 -48.5t-48 -17.5q-75 0 -75 108zM108 750h76l54 -135h-54l-38 66l-39 -66h-53z" />
    <glyph glyph-name="udieresis" unicode="&#xfc;" horiz-adv-x="291" vert-adv-y="1170" 
d="M25 98v452h96v-421q0 -35 22 -35q12 0 19 10t7 29v417h95v-550h-79l-11 56h-2q-8 -31 -24 -48.5t-48 -17.5q-75 0 -75 108zM170 643q-16 16 -16 40q0 25 16 40.5t39 15.5q24 0 39.5 -15.5t15.5 -40.5t-15.5 -40.5t-39.5 -15.5q-23 0 -39 16zM44.5 642.5
q-15.5 15.5 -15.5 40.5t15.5 40.5t38.5 15.5q24 0 39.5 -15.5t15.5 -40.5t-15.5 -40.5t-39.5 -15.5q-23 0 -38.5 15.5z" />
    <glyph glyph-name="yacute" unicode="&#xfd;" horiz-adv-x="276" vert-adv-y="1170" 
d="M91 18l-81 532h103l24 -320h2l29 320h97l-104 -730h-95zM137 750h110l-98 -135h-32z" />
    <glyph glyph-name="thorn" unicode="&#xfe;" horiz-adv-x="292" vert-adv-y="1170" 
d="M149.5 4.5q-13.5 14.5 -24.5 44.5h-2v-229h-96v930h88v-257h2q10 33 24.5 50t45.5 17q41 0 60.5 -30.5t19.5 -84.5v-332q0 -57 -18 -90t-56 -33q-30 0 -43.5 14.5zM129.5 109.5q6.5 -10.5 18.5 -10.5q23 0 23 39v274q0 39 -23 39q-11 0 -18 -11t-7 -30v-270
q0 -20 6.5 -30.5z" />
    <glyph glyph-name="ydieresis" unicode="&#xff;" horiz-adv-x="276" vert-adv-y="1170" 
d="M91 18l-81 532h103l24 -320h2l29 320h97l-104 -730h-95zM163 643q-16 16 -16 40q0 25 16 40.5t39 15.5q24 0 39.5 -15.5t15.5 -40.5t-15.5 -40.5t-39.5 -15.5q-23 0 -39 16zM37.5 642.5q-15.5 15.5 -15.5 40.5t15.5 40.5t38.5 15.5q24 0 39.5 -15.5t15.5 -40.5
t-15.5 -40.5t-39.5 -15.5q-23 0 -38.5 15.5z" />
    <glyph glyph-name="Amacron" unicode="&#x100;" horiz-adv-x="282" vert-adv-y="1170" 
d="M79 750h125l69 -750h-98l-7 123h-58l-8 -123h-93zM164 202l-23 409l-27 -409h50zM234 923v-83h-187v83h187z" />
    <glyph glyph-name="amacron" unicode="&#x101;" horiz-adv-x="285" vert-adv-y="1170" 
d="M39.5 26q-19.5 36 -19.5 97v73q0 64 29 94t91 30h24v123q0 14 -6 21.5t-17 7.5t-17.5 -7.5t-6.5 -20.5v-87l-96 9v71q0 56 33 89.5t87 33.5t86 -34t32 -90v-436h-78l-10 49h-1q-10 -31 -25.5 -45t-41.5 -14q-44 0 -63.5 36zM164 123v124h-18q-16 0 -23.5 -10.5
t-7.5 -31.5v-89q0 -33 24 -33q25 0 25 40zM234 723v-83h-187v83h187z" />
    <glyph glyph-name="Abreve" unicode="&#x102;" horiz-adv-x="282" vert-adv-y="1170" 
d="M79 750h125l69 -750h-98l-7 123h-58l-8 -123h-93zM164 202l-23 409l-27 -409h50zM54.5 851.5q-28.5 34.5 -23.5 98.5h77q-2 -31 7 -47t27 -16q38 0 35 63h73q1 -6 1 -18q0 -55 -29 -85t-81 -30q-58 0 -86.5 34.5z" />
    <glyph glyph-name="abreve" unicode="&#x103;" horiz-adv-x="285" vert-adv-y="1170" 
d="M39.5 26q-19.5 36 -19.5 97v73q0 64 29 94t91 30h24v123q0 14 -6 21.5t-17 7.5t-17.5 -7.5t-6.5 -20.5v-87l-96 9v71q0 56 33 89.5t87 33.5t86 -34t32 -90v-436h-78l-10 49h-1q-10 -31 -25.5 -45t-41.5 -14q-44 0 -63.5 36zM164 123v124h-18q-16 0 -23.5 -10.5
t-7.5 -31.5v-89q0 -33 24 -33q25 0 25 40zM54.5 651.5q-28.5 34.5 -23.5 98.5h77q-2 -31 7 -47t27 -16q38 0 35 63h73q1 -6 1 -18q0 -55 -29 -85t-81 -30q-58 0 -86.5 34.5z" />
    <glyph glyph-name="Aogonek" unicode="&#x104;" horiz-adv-x="282" vert-adv-y="1170" 
d="M79 750h125l69 -750q-22 -24 -32 -43.5t-10 -30.5q0 -15 11 -24.5t31 -9.5v-69q-65 -2 -97.5 18.5t-32.5 57.5q0 60 73 101h-41l-7 123h-58l-8 -123h-93zM164 202l-23 409l-27 -409h50z" />
    <glyph glyph-name="aogonek" unicode="&#x105;" horiz-adv-x="285" vert-adv-y="1170" 
d="M39.5 26q-19.5 36 -19.5 97v73q0 64 29 94t91 30h24v123q0 14 -6 21.5t-17 7.5t-17.5 -7.5t-6.5 -20.5v-87l-96 9v71q0 56 33 89.5t87 33.5t86 -34t32 -90v-436q-22 -24 -32 -43.5t-10 -30.5q0 -15 11 -24.5t31 -9.5v-69q-65 -2 -97.5 18.5t-32.5 57.5q0 60 73 101h-21
l-10 49h-1q-10 -31 -25.5 -45t-41.5 -14q-44 0 -63.5 36zM164 123v124h-18q-16 0 -23.5 -10.5t-7.5 -31.5v-89q0 -33 24 -33q25 0 25 40z" />
    <glyph glyph-name="Cacute" unicode="&#x106;" horiz-adv-x="295" vert-adv-y="1170" 
d="M61 22q-33 32 -33 83v540q0 51 33 83t87 32t87 -32t33 -83v-186l-96 -9v195q0 13 -6.5 20t-17.5 7t-18 -7t-7 -20v-540q0 -13 6.5 -20t18.5 -7q11 0 17.5 7t6.5 20v211l96 -9v-202q0 -51 -33 -83t-87 -32t-87 32zM146 950h110l-98 -135h-32z" />
    <glyph glyph-name="cacute" unicode="&#x107;" horiz-adv-x="288" vert-adv-y="1170" 
d="M57.5 24q-32.5 34 -32.5 90v322q0 57 32.5 90.5t87.5 33.5q54 0 86.5 -33.5t32.5 -89.5v-125l-95 -9v141q0 14 -6.5 21t-17.5 7q-12 0 -18.5 -7.5t-6.5 -21.5v-336q0 -14 6.5 -21.5t18.5 -7.5q11 0 17.5 7.5t6.5 20.5v141l95 -9v-125q0 -56 -32.5 -89.5t-86.5 -33.5
q-55 0 -87.5 34zM142 750h110l-98 -135h-32z" />
    <glyph glyph-name="Ccircumflex" unicode="&#x108;" horiz-adv-x="295" vert-adv-y="1170" 
d="M61 22q-33 32 -33 83v540q0 51 33 83t87 32t87 -32t33 -83v-186l-96 -9v195q0 13 -6.5 20t-17.5 7t-18 -7t-7 -20v-540q0 -13 6.5 -20t18.5 -7q11 0 17.5 7t6.5 20v211l96 -9v-202q0 -51 -33 -83t-87 -32t-87 32zM110 950h76l54 -135h-54l-38 66l-39 -66h-53z" />
    <glyph glyph-name="ccircumflex" unicode="&#x109;" horiz-adv-x="288" vert-adv-y="1170" 
d="M57.5 24q-32.5 34 -32.5 90v322q0 57 32.5 90.5t87.5 33.5q54 0 86.5 -33.5t32.5 -89.5v-125l-95 -9v141q0 14 -6.5 21t-17.5 7q-12 0 -18.5 -7.5t-6.5 -21.5v-336q0 -14 6.5 -21.5t18.5 -7.5q11 0 17.5 7.5t6.5 20.5v141l95 -9v-125q0 -56 -32.5 -89.5t-86.5 -33.5
q-55 0 -87.5 34zM106 750h76l54 -135h-54l-38 66l-39 -66h-53z" />
    <glyph glyph-name="Cdotaccent" unicode="&#x10a;" horiz-adv-x="295" vert-adv-y="1170" 
d="M61 22q-33 32 -33 83v540q0 51 33 83t87 32t87 -32t33 -83v-186l-96 -9v195q0 13 -6.5 20t-17.5 7t-18 -7t-7 -20v-540q0 -13 6.5 -20t18.5 -7q11 0 17.5 7t6.5 20v211l96 -9v-202q0 -51 -33 -83t-87 -32t-87 32zM106 841q-17 17 -17 42q0 26 17 42.5t42 16.5
q26 0 42.5 -16.5t16.5 -42.5t-16.5 -42.5t-42.5 -16.5q-25 0 -42 17z" />
    <glyph glyph-name="cdotaccent" unicode="&#x10b;" horiz-adv-x="288" vert-adv-y="1170" 
d="M57.5 24q-32.5 34 -32.5 90v322q0 57 32.5 90.5t87.5 33.5q54 0 86.5 -33.5t32.5 -89.5v-125l-95 -9v141q0 14 -6.5 21t-17.5 7q-12 0 -18.5 -7.5t-6.5 -21.5v-336q0 -14 6.5 -21.5t18.5 -7.5q11 0 17.5 7.5t6.5 20.5v141l95 -9v-125q0 -56 -32.5 -89.5t-86.5 -33.5
q-55 0 -87.5 34zM102 641q-17 17 -17 42q0 26 17 42.5t42 16.5q26 0 42.5 -16.5t16.5 -42.5t-16.5 -42.5t-42.5 -16.5q-25 0 -42 17z" />
    <glyph glyph-name="Ccaron" unicode="&#x10c;" horiz-adv-x="295" vert-adv-y="1170" 
d="M61 22q-33 32 -33 83v540q0 51 33 83t87 32t87 -32t33 -83v-186l-96 -9v195q0 13 -6.5 20t-17.5 7t-18 -7t-7 -20v-540q0 -13 6.5 -20t18.5 -7q11 0 17.5 7t6.5 20v211l96 -9v-202q0 -51 -33 -83t-87 -32t-87 32zM56 950h53l39 -66l38 66h54l-54 -135h-76z" />
    <glyph glyph-name="ccaron" unicode="&#x10d;" horiz-adv-x="288" vert-adv-y="1170" 
d="M57.5 24q-32.5 34 -32.5 90v322q0 57 32.5 90.5t87.5 33.5q54 0 86.5 -33.5t32.5 -89.5v-125l-95 -9v141q0 14 -6.5 21t-17.5 7q-12 0 -18.5 -7.5t-6.5 -21.5v-336q0 -14 6.5 -21.5t18.5 -7.5q11 0 17.5 7.5t6.5 20.5v141l95 -9v-125q0 -56 -32.5 -89.5t-86.5 -33.5
q-55 0 -87.5 34zM52 750h53l39 -66l38 66h54l-54 -135h-76z" />
    <glyph glyph-name="Dcaron" unicode="&#x10e;" horiz-adv-x="295" vert-adv-y="1170" 
d="M28 750h119q54 0 87 -32t33 -83v-520q0 -51 -33 -83t-87 -32h-119v750zM164 95.5q6 6.5 6 19.5v520q0 26 -23 26h-24v-572h24q11 0 17 6.5zM51 950h53l39 -66l38 66h54l-54 -135h-76z" />
    <glyph glyph-name="dcaron" unicode="&#x10f;" horiz-adv-x="363" vert-adv-y="1170" 
d="M44.5 20.5q-19.5 30.5 -19.5 84.5v332q0 57 18 90t56 33q31 0 44 -15t24 -47h3v252h95v-750h-79l-11 57h-3q-10 -35 -23 -51t-44 -16q-41 0 -60.5 30.5zM163 110q7 11 7 30v270q0 20 -7 30.5t-18 10.5q-24 0 -24 -39v-274q0 -39 24 -39q11 0 18 11zM288 750h74l-33 -165
h-41v165z" />
    <glyph glyph-name="Dcroat" unicode="&#x110;" horiz-adv-x="315" vert-adv-y="1170" 
d="M48 334h-41v83h41v333h119q54 0 87 -32t33 -83v-520q0 -51 -33 -83t-87 -32h-119v334zM184 95.5q6 6.5 6 19.5v520q0 26 -23 26h-24v-244h28v-83h-28v-245h24q11 0 17 6.5z" />
    <glyph glyph-name="dcroat" unicode="&#x111;" horiz-adv-x="292" vert-adv-y="1170" 
d="M44.5 20.5q-19.5 30.5 -19.5 84.5v332q0 57 18 90t56 33q31 0 44 -15t24 -47h3v106h-72v83h72v63h95v-63h20v-83h-20v-604h-79l-11 57h-3q-10 -35 -23 -51t-44 -16q-41 0 -60.5 30.5zM163 110q7 11 7 30v270q0 20 -7 30.5t-18 10.5q-24 0 -24 -39v-274q0 -39 24 -39
q11 0 18 11z" />
    <glyph glyph-name="Emacron" unicode="&#x112;" horiz-adv-x="241" vert-adv-y="1170" 
d="M28 750h193v-89h-98v-226h73v-90h-73v-256h98v-89h-193v750zM219 923v-83h-187v83h187z" />
    <glyph glyph-name="emacron" unicode="&#x113;" horiz-adv-x="289" vert-adv-y="1170" 
d="M57.5 24q-32.5 34 -32.5 90v322q0 57 32.5 90.5t87.5 33.5q54 0 86.5 -33.5t32.5 -89.5v-180h-144v-152q0 -13 7 -20.5t18 -7.5t17.5 7t6.5 20v114l95 -8v-97q0 -56 -32.5 -89.5t-86.5 -33.5q-55 0 -87.5 34zM169 321v125q0 13 -6.5 20t-17.5 7q-25 0 -25 -28v-124h49z
M238 723v-83h-187v83h187z" />
    <glyph glyph-name="Edotaccent" unicode="&#x116;" horiz-adv-x="241" vert-adv-y="1170" 
d="M28 750h193v-89h-98v-226h73v-90h-73v-256h98v-89h-193v750zM84 841q-17 17 -17 42q0 26 17 42.5t42 16.5q26 0 42.5 -16.5t16.5 -42.5t-16.5 -42.5t-42.5 -16.5q-25 0 -42 17z" />
    <glyph glyph-name="edotaccent" unicode="&#x117;" horiz-adv-x="289" vert-adv-y="1170" 
d="M57.5 24q-32.5 34 -32.5 90v322q0 57 32.5 90.5t87.5 33.5q54 0 86.5 -33.5t32.5 -89.5v-180h-144v-152q0 -13 7 -20.5t18 -7.5t17.5 7t6.5 20v114l95 -8v-97q0 -56 -32.5 -89.5t-86.5 -33.5q-55 0 -87.5 34zM169 321v125q0 13 -6.5 20t-17.5 7q-25 0 -25 -28v-124h49z
M103 641q-17 17 -17 42q0 26 17 42.5t42 16.5q26 0 42.5 -16.5t16.5 -42.5t-16.5 -42.5t-42.5 -16.5q-25 0 -42 17z" />
    <glyph glyph-name="Eogonek" unicode="&#x118;" horiz-adv-x="241" vert-adv-y="1170" 
d="M28 750h193v-89h-98v-226h73v-90h-73v-256h98v-89q-22 -24 -32 -43.5t-10 -30.5q0 -15 11 -24.5t31 -9.5v-69q-65 -2 -97.5 18.5t-32.5 57.5q0 60 73 101h-136v750z" />
    <glyph glyph-name="eogonek" unicode="&#x119;" horiz-adv-x="289" vert-adv-y="1170" 
d="M169 321v125q0 13 -6.5 20t-17.5 7q-25 0 -25 -28v-124h49zM116.5 -148.5q-32.5 20.5 -32.5 57.5q0 47 44 82q-47 5 -75 38.5t-28 84.5v322q0 57 32.5 90.5t87.5 33.5q54 0 86.5 -33.5t32.5 -89.5v-180h-144v-152q0 -13 7 -20.5t18 -7.5t17.5 7t6.5 20v114l95 -8v-97
q0 -36 -13.5 -63t-38.5 -42q-40 -45 -40 -72q0 -15 11 -24.5t31 -9.5v-69q-65 -2 -97.5 18.5z" />
    <glyph glyph-name="Ecaron" unicode="&#x11a;" horiz-adv-x="241" vert-adv-y="1170" 
d="M28 750h193v-89h-98v-226h73v-90h-73v-256h98v-89h-193v750zM34 950h53l39 -66l38 66h54l-54 -135h-76z" />
    <glyph glyph-name="ecaron" unicode="&#x11b;" horiz-adv-x="289" vert-adv-y="1170" 
d="M57.5 24q-32.5 34 -32.5 90v322q0 57 32.5 90.5t87.5 33.5q54 0 86.5 -33.5t32.5 -89.5v-180h-144v-152q0 -13 7 -20.5t18 -7.5t17.5 7t6.5 20v114l95 -8v-97q0 -56 -32.5 -89.5t-86.5 -33.5q-55 0 -87.5 34zM169 321v125q0 13 -6.5 20t-17.5 7q-25 0 -25 -28v-124h49z
M53 750h53l39 -66l38 66h54l-54 -135h-76z" />
    <glyph glyph-name="Gcircumflex" unicode="&#x11c;" horiz-adv-x="294" vert-adv-y="1170" 
d="M61 22q-33 32 -33 83v540q0 51 33 83t87 32t87.5 -32t33.5 -83v-157l-97 -8v165q0 26 -24 26q-11 0 -17.5 -7t-6.5 -19v-540q0 -26 24 -26t24 26v194h-19v90h116v-284q0 -51 -33.5 -83t-87.5 -32t-87 32zM109 950h76l54 -135h-54l-38 66l-39 -66h-53z" />
    <glyph glyph-name="gcircumflex" unicode="&#x11d;" horiz-adv-x="292" vert-adv-y="1170" 
d="M58 -156.5q-33 33.5 -33 89.5v54l96 9v-75q0 -14 6.5 -21t17.5 -7t17.5 8t6.5 22v171h-2q-5 -30 -18.5 -46t-43.5 -16q-41 0 -60.5 30.5t-19.5 84.5v290q0 56 19.5 89.5t58.5 33.5q31 0 45 -15.5t26 -47.5h3v53h88v-616q0 -57 -33 -90.5t-87 -33.5t-87 33.5zM169 172v243
q-1 17 -7.5 26.5t-16.5 9.5q-24 0 -24 -39v-237q0 -39 24 -39q23 0 24 36zM109 750h76l54 -135h-54l-38 66l-39 -66h-53z" />
    <glyph glyph-name="Gbreve" unicode="&#x11e;" horiz-adv-x="294" vert-adv-y="1170" 
d="M61 22q-33 32 -33 83v540q0 51 33 83t87 32t87.5 -32t33.5 -83v-157l-97 -8v165q0 26 -24 26q-11 0 -17.5 -7t-6.5 -19v-540q0 -26 24 -26t24 26v194h-19v90h116v-284q0 -51 -33.5 -83t-87.5 -32t-87 32zM60.5 851.5q-28.5 34.5 -23.5 98.5h77q-2 -31 7 -47t27 -16
q38 0 35 63h73q1 -6 1 -18q0 -55 -29 -85t-81 -30q-58 0 -86.5 34.5z" />
    <glyph glyph-name="gbreve" unicode="&#x11f;" horiz-adv-x="292" vert-adv-y="1170" 
d="M58 -156.5q-33 33.5 -33 89.5v54l96 9v-75q0 -14 6.5 -21t17.5 -7t17.5 8t6.5 22v171h-2q-5 -30 -18.5 -46t-43.5 -16q-41 0 -60.5 30.5t-19.5 84.5v290q0 56 19.5 89.5t58.5 33.5q31 0 45 -15.5t26 -47.5h3v53h88v-616q0 -57 -33 -90.5t-87 -33.5t-87 33.5zM169 172v243
q-1 17 -7.5 26.5t-16.5 9.5q-24 0 -24 -39v-237q0 -39 24 -39q23 0 24 36zM60.5 651.5q-28.5 34.5 -23.5 98.5h77q-2 -31 7 -47t27 -16q38 0 35 63h73q1 -6 1 -18q0 -55 -29 -85t-81 -30q-58 0 -86.5 34.5z" />
    <glyph glyph-name="Gdotaccent" unicode="&#x120;" horiz-adv-x="294" vert-adv-y="1170" 
d="M61 22q-33 32 -33 83v540q0 51 33 83t87 32t87.5 -32t33.5 -83v-157l-97 -8v165q0 26 -24 26q-11 0 -17.5 -7t-6.5 -19v-540q0 -26 24 -26t24 26v194h-19v90h116v-284q0 -51 -33.5 -83t-87.5 -32t-87 32zM105 841q-17 17 -17 42q0 26 17 42.5t42 16.5q26 0 42.5 -16.5
t16.5 -42.5t-16.5 -42.5t-42.5 -16.5q-25 0 -42 17z" />
    <glyph glyph-name="gdotaccent" unicode="&#x121;" horiz-adv-x="292" vert-adv-y="1170" 
d="M58 -156.5q-33 33.5 -33 89.5v54l96 9v-75q0 -14 6.5 -21t17.5 -7t17.5 8t6.5 22v171h-2q-5 -30 -18.5 -46t-43.5 -16q-41 0 -60.5 30.5t-19.5 84.5v290q0 56 19.5 89.5t58.5 33.5q31 0 45 -15.5t26 -47.5h3v53h88v-616q0 -57 -33 -90.5t-87 -33.5t-87 33.5zM169 172v243
q-1 17 -7.5 26.5t-16.5 9.5q-24 0 -24 -39v-237q0 -39 24 -39q23 0 24 36zM105 641q-17 17 -17 42q0 26 17 42.5t42 16.5q26 0 42.5 -16.5t16.5 -42.5t-16.5 -42.5t-42.5 -16.5q-25 0 -42 17z" />
    <glyph glyph-name="uni0122" unicode="&#x122;" horiz-adv-x="294" vert-adv-y="1170" 
d="M61 22q-33 32 -33 83v540q0 51 33 83t87 32t87.5 -32t33.5 -83v-157l-97 -8v165q0 26 -24 26q-11 0 -17.5 -7t-6.5 -19v-540q0 -26 24 -26t24 26v194h-19v90h116v-284q0 -51 -33.5 -83t-87.5 -32t-87 32zM184 -130l-41 -111l-31 13l29 83q-16 2 -25.5 13.5t-9.5 28.5
q0 18 12 29.5t30 11.5t30 -11.5t12 -29.5q0 -9 -6 -27z" />
    <glyph glyph-name="uni0123" unicode="&#x123;" horiz-adv-x="292" vert-adv-y="1170" 
d="M58 -156.5q-33 33.5 -33 89.5v54l96 9v-75q0 -14 6.5 -21t17.5 -7t17.5 8t6.5 22v171h-2q-5 -30 -18.5 -46t-43.5 -16q-41 0 -60.5 30.5t-19.5 84.5v290q0 56 19.5 89.5t58.5 33.5q31 0 45 -15.5t26 -47.5h3v53h88v-616q0 -57 -33 -90.5t-87 -33.5t-87 33.5zM169 172v243
q-1 17 -7.5 26.5t-16.5 9.5q-24 0 -24 -39v-237q0 -39 24 -39q23 0 24 36zM117 636.5q-12 11.5 -12 29.5q0 11 6 27l41 110l31 -12l-29 -84q16 -1 25.5 -12.5t9.5 -28.5q0 -18 -12 -29.5t-30 -11.5t-30 11.5z" />
    <glyph glyph-name="Hcircumflex" unicode="&#x124;" horiz-adv-x="295" vert-adv-y="1170" 
d="M28 750h95v-321h48v321h96v-750h-96v336h-48v-336h-95v750zM110 950h76l54 -135h-54l-38 66l-39 -66h-53z" />
    <glyph glyph-name="hcircumflex" unicode="&#x125;" horiz-adv-x="292" vert-adv-y="1170" 
d="M22 750h96l1 -105l41 105h76l55 -135h-54l-38 66l-39 -66h-41l1 -121h2q9 33 23.5 49.5t47.5 16.5q71 0 71 -104l3 -456h-96l-3 420q0 36 -22 36q-12 0 -19 -11t-7 -31l3 -414h-96z" />
    <glyph glyph-name="Hbar" unicode="&#x126;" horiz-adv-x="303" vert-adv-y="1170" 
d="M32 565h-25v83h25v102h96v-102h48v102h96v-102h24v-83h-24v-565h-96v336h-48v-336h-96v565zM176 429v136h-48v-136h48z" />
    <glyph glyph-name="hbar" unicode="&#x127;" horiz-adv-x="292" vert-adv-y="1170" 
d="M27 604h-20v83h20v63h96v-63h71v-83h-71v-110h2q9 32 24 49t48 17q70 0 70 -104v-456h-96v420q0 36 -22 36q-12 0 -19 -11t-7 -31v-414h-96v604z" />
    <glyph glyph-name="Itilde" unicode="&#x128;" horiz-adv-x="151" vert-adv-y="1170" 
d="M28 750h95v-750h-95v750zM92.5 830.5q-13.5 8.5 -28.5 23.5q-18 18 -28 18t-16 -11t-6 -31h-66q-3 58 18 89.5t64 31.5q17 0 30.5 -8.5t28.5 -23.5q18 -18 28 -18t16 11t6 31h65q4 -59 -17 -90t-64 -31q-17 0 -30.5 8.5z" />
    <glyph glyph-name="itilde" unicode="&#x129;" horiz-adv-x="150" vert-adv-y="1170" 
d="M27 550h96v-550h-96v550zM86.5 630q-9.5 8 -18.5 23q-6 9 -10.5 14t-10.5 5q-16 0 -16 -42h-51q-1 9 -1 25q0 96 57 96q16 0 25.5 -8t18.5 -23q7 -10 11.5 -14.5t10.5 -4.5q16 0 16 42h50q1 -10 1 -30q0 -45 -13.5 -68t-43.5 -23q-16 0 -25.5 8z" />
    <glyph glyph-name="Imacron" unicode="&#x12a;" horiz-adv-x="151" vert-adv-y="1170" 
d="M28 750h95v-750h-95v750zM169 923v-83h-187v83h187z" />
    <glyph glyph-name="imacron" unicode="&#x12b;" horiz-adv-x="150" vert-adv-y="1170" 
d="M27 550h96v-550h-96v550zM150 723v-83h-152v83h152z" />
    <glyph glyph-name="Iogonek" unicode="&#x12e;" horiz-adv-x="151" vert-adv-y="1170" 
d="M28 750h95v-750q-22 -24 -32 -43.5t-10 -30.5q0 -15 11 -24.5t31 -9.5v-69q-65 -2 -97.5 18.5t-32.5 57.5q0 60 73 101h-38v750z" />
    <glyph glyph-name="iogonek" unicode="&#x12f;" horiz-adv-x="150" vert-adv-y="1170" 
d="M27 550h96v-550q-22 -24 -32 -43.5t-10 -30.5q0 -15 11 -24.5t31 -9.5v-69q-65 -2 -97.5 18.5t-32.5 57.5q0 60 73 101h-39v550zM33 641q-17 17 -17 42q0 26 17 42.5t42 16.5q26 0 42.5 -16.5t16.5 -42.5t-16.5 -42.5t-42.5 -16.5q-25 0 -42 17z" />
    <glyph glyph-name="Idotaccent" unicode="&#x130;" horiz-adv-x="151" vert-adv-y="1170" 
d="M28 750h95v-750h-95v750zM34 841q-17 17 -17 42q0 26 17 42.5t42 16.5q26 0 42.5 -16.5t16.5 -42.5t-16.5 -42.5t-42.5 -16.5q-25 0 -42 17z" />
    <glyph glyph-name="dotlessi" unicode="&#x131;" horiz-adv-x="150" vert-adv-y="1170" 
d="M27 550h96v-550h-96v550z" />
    <glyph glyph-name="IJ" unicode="&#x132;" horiz-adv-x="440" vert-adv-y="1170" 
d="M28 750h95v-750h-95v750zM205.5 24q-33.5 32 -33.5 83v180l97 9v-189q0 -26 24 -26q10 0 16.5 7t6.5 19v643h96v-643q0 -51 -33 -83t-86 -32q-54 0 -87.5 32z" />
    <glyph glyph-name="ij" unicode="&#x133;" horiz-adv-x="302" vert-adv-y="1170" 
d="M27 550h96v-550h-96v550zM33 641q-17 17 -17 42q0 26 17 42.5t42 16.5q26 0 42.5 -16.5t16.5 -42.5t-16.5 -42.5t-42.5 -16.5q-25 0 -42 17zM125 -183v90h19q35 0 35 41v602h96v-606q0 -68 -28.5 -99t-90.5 -31q-15 0 -31 3zM185 641q-17 17 -17 42q0 26 17 42.5t42 16.5
q26 0 42.5 -16.5t16.5 -42.5t-16.5 -42.5t-42.5 -16.5q-25 0 -42 17z" />
    <glyph glyph-name="Jcircumflex" unicode="&#x134;" horiz-adv-x="293" vert-adv-y="1170" 
d="M58.5 24q-33.5 32 -33.5 83v180l97 9v-189q0 -26 24 -26q10 0 16.5 7t6.5 19v643h96v-643q0 -51 -33 -83t-86 -32q-54 0 -87.5 32zM180 950h76l54 -135h-54l-38 66l-39 -66h-53z" />
    <glyph glyph-name="jcircumflex" unicode="&#x135;" horiz-adv-x="151" vert-adv-y="1170" 
d="M-27 -183v90h20q35 0 35 41v602h95v-606q0 -68 -28 -99t-90 -31q-16 0 -32 3zM38 750h76l54 -135h-54l-38 66l-39 -66h-53z" />
    <glyph glyph-name="uni0136" unicode="&#x136;" horiz-adv-x="297" vert-adv-y="1170" 
d="M28 750h95v-298l71 298h94l-83 -349l85 -401h-99l-68 321v-321h-95v750zM186 -130l-41 -111l-31 13l29 83q-16 2 -25.5 13.5t-9.5 28.5q0 18 12 29.5t30 11.5t30 -11.5t12 -29.5q0 -9 -6 -27z" />
    <glyph glyph-name="uni0137" unicode="&#x137;" horiz-adv-x="291" vert-adv-y="1170" 
d="M27 750h96v-411h2l58 211h98l-79 -263l79 -287h-99l-57 233h-2v-233h-96v750zM183 -130l-41 -111l-31 13l29 83q-16 2 -25.5 13.5t-9.5 28.5q0 18 12 29.5t30 11.5t30 -11.5t12 -29.5q0 -9 -6 -27z" />
    <glyph glyph-name="kgreenlandic" unicode="&#x138;" horiz-adv-x="291" vert-adv-y="1170" 
d="M27 550h96v-211h2l58 211h98l-79 -263l79 -287h-99l-57 233h-2v-233h-96v550z" />
    <glyph glyph-name="Lacute" unicode="&#x139;" horiz-adv-x="233" vert-adv-y="1170" 
d="M28 750h95v-661h95v-89h-190v750zM78 950h110l-98 -135h-32z" />
    <glyph glyph-name="lacute" unicode="&#x13a;" horiz-adv-x="150" vert-adv-y="1170" 
d="M27 750h96v-750h-96v750zM73 950h110l-98 -135h-32z" />
    <glyph glyph-name="uni013B" unicode="&#x13b;" horiz-adv-x="233" vert-adv-y="1170" 
d="M28 750h95v-661h95v-89h-190v750zM154 -130l-41 -111l-31 13l29 83q-16 2 -25.5 13.5t-9.5 28.5q0 18 12 29.5t30 11.5t30 -11.5t12 -29.5q0 -9 -6 -27z" />
    <glyph glyph-name="uni013C" unicode="&#x13c;" horiz-adv-x="150" vert-adv-y="1170" 
d="M27 750h96v-750h-96v750zM112 -130l-41 -111l-31 13l29 83q-16 2 -25.5 13.5t-9.5 28.5q0 18 12 29.5t30 11.5t30 -11.5t12 -29.5q0 -9 -6 -27z" />
    <glyph glyph-name="Lcaron" unicode="&#x13d;" horiz-adv-x="255" vert-adv-y="1170" 
d="M28 750h95v-661h95v-89h-190v750zM156 750h82l-34 -165h-48v165z" />
    <glyph glyph-name="lcaron" unicode="&#x13e;" horiz-adv-x="234" vert-adv-y="1170" 
d="M27 750h96v-750h-96v750zM151 750h82l-33 -165h-49v165z" />
    <glyph glyph-name="Ldot" unicode="&#x13f;" horiz-adv-x="240" vert-adv-y="1170" 
d="M28 750h95v-661h95v-89h-190v750zM159.5 348.5q-10.5 10.5 -10.5 26.5t10.5 26t26.5 10t26.5 -10.5t10.5 -25.5q0 -17 -10 -27t-27 -10q-16 0 -26.5 10.5z" />
    <glyph glyph-name="ldot" unicode="&#x140;" horiz-adv-x="264" vert-adv-y="1170" 
d="M27 750h96v-750h-96v750zM162.5 331.5q-15.5 15.5 -15.5 38.5t15.5 38t38.5 15q24 0 39 -15t15 -38q0 -24 -15 -39t-39 -15q-23 0 -38.5 15.5z" />
    <glyph glyph-name="Lslash" unicode="&#x141;" horiz-adv-x="248" vert-adv-y="1170" 
d="M42 287l-31 -10v99l31 11v363h96v-330l67 23v-100l-67 -22v-232h95v-89h-191v287z" />
    <glyph glyph-name="lslash" unicode="&#x142;" horiz-adv-x="237" vert-adv-y="1170" 
d="M64 294l-42 -14v96l42 14v360h96v-326l55 19v-96l-55 -19v-328h-96v294z" />
    <glyph glyph-name="Nacute" unicode="&#x143;" horiz-adv-x="304" vert-adv-y="1170" 
d="M28 750h76l91 -420v420h81v-750h-76l-91 421v-421h-81v750zM150 950h110l-98 -135h-32z" />
    <glyph glyph-name="nacute" unicode="&#x144;" horiz-adv-x="292" vert-adv-y="1170" 
d="M27 550h88v-55h3q9 30 25.5 47.5t48.5 17.5q39 0 57 -26.5t18 -77.5v-456h-96v421q0 35 -22 35q-12 0 -19 -10t-7 -29v-417h-96v550zM144 750h110l-98 -135h-32z" />
    <glyph glyph-name="uni0145" unicode="&#x145;" horiz-adv-x="304" vert-adv-y="1170" 
d="M28 750h76l91 -420v420h81v-750h-76l-91 421v-421h-81v750zM189 -130l-41 -111l-31 13l29 83q-16 2 -25.5 13.5t-9.5 28.5q0 18 12 29.5t30 11.5t30 -11.5t12 -29.5q0 -9 -6 -27z" />
    <glyph glyph-name="uni0146" unicode="&#x146;" horiz-adv-x="292" vert-adv-y="1170" 
d="M27 550h88v-55h3q9 30 25.5 47.5t48.5 17.5q39 0 57 -26.5t18 -77.5v-456h-96v421q0 35 -22 35q-12 0 -19 -10t-7 -29v-417h-96v550zM183 -130l-41 -111l-31 13l29 83q-16 2 -25.5 13.5t-9.5 28.5q0 18 12 29.5t30 11.5t30 -11.5t12 -29.5q0 -9 -6 -27z" />
    <glyph glyph-name="Ncaron" unicode="&#x147;" horiz-adv-x="304" vert-adv-y="1170" 
d="M28 750h76l91 -420v420h81v-750h-76l-91 421v-421h-81v750zM60 950h53l39 -66l38 66h54l-54 -135h-76z" />
    <glyph glyph-name="ncaron" unicode="&#x148;" horiz-adv-x="292" vert-adv-y="1170" 
d="M27 550h88v-55h3q9 30 25.5 47.5t48.5 17.5q39 0 57 -26.5t18 -77.5v-456h-96v421q0 35 -22 35q-12 0 -19 -10t-7 -29v-417h-96v550zM54 750h53l39 -66l38 66h54l-54 -135h-76z" />
    <glyph glyph-name="Eng" unicode="&#x14a;" horiz-adv-x="304" vert-adv-y="1170" 
d="M133 -183v90h20q35 0 35 41v109l-79 364v-421h-81v750h76l91 -420v420h81v-806q0 -68 -27 -99t-84 -31q-15 0 -32 3z" />
    <glyph glyph-name="eng" unicode="&#x14b;" horiz-adv-x="292" vert-adv-y="1170" 
d="M117 -183v90h19q35 0 35 41v473q0 35 -22 35q-12 0 -19 -10t-7 -29v-417h-96v550h88v-55h3q9 30 25.5 47.5t48.5 17.5q39 0 57 -26.5t18 -77.5v-512q0 -68 -28.5 -99t-90.5 -31q-14 0 -31 3z" />
    <glyph glyph-name="Omacron" unicode="&#x14c;" horiz-adv-x="295" vert-adv-y="1170" 
d="M61 22q-33 32 -33 83v540q0 51 33 83t87 32t87 -32t33 -83v-540q0 -51 -33 -83t-87 -32t-87 32zM165.5 85q6.5 7 6.5 20v540q0 13 -6.5 20t-17.5 7t-18 -7t-7 -20v-540q0 -13 6.5 -20t18.5 -7q11 0 17.5 7zM241 923v-83h-187v83h187z" />
    <glyph glyph-name="omacron" unicode="&#x14d;" horiz-adv-x="289" vert-adv-y="1170" 
d="M57.5 23.5q-32.5 33.5 -32.5 89.5v324q0 56 32.5 89.5t87.5 33.5q54 0 86.5 -33.5t32.5 -89.5v-324q0 -56 -32.5 -89.5t-86.5 -33.5q-55 0 -87.5 33.5zM126.5 85q6.5 -7 18.5 -7q11 0 17.5 7.5t6.5 20.5v338q0 14 -6.5 21t-17.5 7q-25 0 -25 -28v-338q0 -14 6.5 -21z
M238 723v-83h-187v83h187z" />
    <glyph glyph-name="Ohungarumlaut" unicode="&#x150;" horiz-adv-x="295" vert-adv-y="1170" 
d="M61 22q-33 32 -33 83v540q0 51 33 83t87 32t87 -32t33 -83v-540q0 -51 -33 -83t-87 -32t-87 32zM165.5 85q6.5 7 6.5 20v540q0 13 -6.5 20t-17.5 7t-18 -7t-7 -20v-540q0 -13 6.5 -20t18.5 -7q11 0 17.5 7zM192 950h111l-99 -135h-32zM74 950h110l-98 -135h-32z" />
    <glyph glyph-name="ohungarumlaut" unicode="&#x151;" horiz-adv-x="289" vert-adv-y="1170" 
d="M57.5 23.5q-32.5 33.5 -32.5 89.5v324q0 56 32.5 89.5t87.5 33.5q54 0 86.5 -33.5t32.5 -89.5v-324q0 -56 -32.5 -89.5t-86.5 -33.5q-55 0 -87.5 33.5zM126.5 85q6.5 -7 18.5 -7q11 0 17.5 7.5t6.5 20.5v338q0 14 -6.5 21t-17.5 7q-25 0 -25 -28v-338q0 -14 6.5 -21z
M189 750h111l-99 -135h-32zM71 750h110l-98 -135h-32z" />
    <glyph glyph-name="OE" unicode="&#x152;" horiz-adv-x="384" vert-adv-y="1170" 
d="M61 32q-33 32 -33 83v520q0 51 33 83t87 32h217v-89h-98v-226h73v-90h-73v-256h98v-89h-217q-54 0 -87 32zM171 89v572h-23q-11 0 -17.5 -7t-6.5 -19v-520q0 -26 24 -26h23z" />
    <glyph glyph-name="oe" unicode="&#x153;" horiz-adv-x="432" vert-adv-y="1170" 
d="M57.5 23.5q-32.5 33.5 -32.5 89.5v324q0 56 32.5 89.5t87.5 33.5q43 0 71 -25q29 25 73 25q54 0 86.5 -33.5t32.5 -89.5v-180h-144v-152q0 -13 7 -20.5t18 -7.5t17 7t6 20v115l96 -8v-98q0 -56 -32.5 -89.5t-86.5 -33.5q-44 0 -73 25q-28 -25 -71 -25q-55 0 -87.5 33.5z
M162.5 85.5q6.5 7.5 6.5 20.5v338q0 14 -6.5 21t-17.5 7q-25 0 -25 -28v-338q0 -28 25 -28q11 0 17.5 7.5zM312 321v125q0 13 -6 20t-17 7q-25 0 -25 -28v-124h48z" />
    <glyph glyph-name="Racute" unicode="&#x154;" horiz-adv-x="300" vert-adv-y="1170" 
d="M28 750h109q63 0 98 -35t35 -101v-206q0 -62 -34 -97l54 -311h-100l-43 275h-10h-14v-275h-95v750zM166 373q7 10 7 37v203q0 28 -7.5 38t-26.5 10h-16v-298h16q20 0 27 10zM149 950h110l-98 -135h-32z" />
    <glyph glyph-name="racute" unicode="&#x155;" horiz-adv-x="225" vert-adv-y="1170" 
d="M27 550h88v-80h2q10 49 27 69.5t47 20.5q6 0 22 -2v-110h-20q-42 0 -57 -22.5t-15 -75.5v-350h-94v550zM111 750h110l-98 -135h-32z" />
    <glyph glyph-name="uni0156" unicode="&#x156;" horiz-adv-x="300" vert-adv-y="1170" 
d="M28 750h109q63 0 98 -35t35 -101v-206q0 -62 -34 -97l54 -311h-100l-43 275h-10h-14v-275h-95v750zM166 373q7 10 7 37v203q0 28 -7.5 38t-26.5 10h-16v-298h16q20 0 27 10zM188 -130l-41 -111l-31 13l29 83q-16 2 -25.5 13.5t-9.5 28.5q0 18 12 29.5t30 11.5t30 -11.5
t12 -29.5q0 -9 -6 -27z" />
    <glyph glyph-name="uni0157" unicode="&#x157;" horiz-adv-x="225" vert-adv-y="1170" 
d="M27 550h88v-80h2q10 49 27 69.5t47 20.5q6 0 22 -2v-110h-20q-42 0 -57 -22.5t-15 -75.5v-350h-94v550zM112 -130l-41 -111l-31 13l29 83q-16 2 -25.5 13.5t-9.5 28.5q0 18 12 29.5t30 11.5t30 -11.5t12 -29.5q0 -9 -6 -27z" />
    <glyph glyph-name="Rcaron" unicode="&#x158;" horiz-adv-x="300" vert-adv-y="1170" 
d="M28 750h109q63 0 98 -35t35 -101v-206q0 -62 -34 -97l54 -311h-100l-43 275h-10h-14v-275h-95v750zM166 373q7 10 7 37v203q0 28 -7.5 38t-26.5 10h-16v-298h16q20 0 27 10zM59 950h53l39 -66l38 66h54l-54 -135h-76z" />
    <glyph glyph-name="rcaron" unicode="&#x159;" horiz-adv-x="225" vert-adv-y="1170" 
d="M27 550h88v-80h2q10 49 27 69.5t47 20.5q6 0 22 -2v-110h-20q-42 0 -57 -22.5t-15 -75.5v-350h-94v550zM21 750h53l39 -66l38 66h54l-54 -135h-76z" />
    <glyph glyph-name="Sacute" unicode="&#x15a;" horiz-adv-x="282" vert-adv-y="1170" 
d="M53.5 23q-30.5 33 -30.5 91v121l95 9v-135q0 -15 6.5 -22.5t16.5 -7.5q11 0 17 8t6 21v126q0 28 -6.5 45.5t-24.5 41.5l-63 81q-27 35 -37.5 62.5t-10.5 68.5v108q0 54 32.5 86.5t87.5 32.5q54 0 85.5 -32.5t31.5 -88.5v-115l-96 -9v130q0 12 -6 19t-16 7t-16.5 -7
t-6.5 -18v-101q0 -28 6 -44t23 -38l58 -74q31 -41 42.5 -71t11.5 -75v-129q0 -58 -30.5 -91t-87.5 -33t-87.5 33zM140 950h110l-98 -135h-32z" />
    <glyph glyph-name="sacute" unicode="&#x15b;" horiz-adv-x="278" vert-adv-y="1170" 
d="M52 24q-33 34 -33 89v53l96 9v-69q0 -28 23 -28q12 0 18.5 7.5t6.5 21.5v39q0 32 -5.5 47t-28.5 30l-53 37q-32 22 -44 56t-12 99q0 71 32 108t87 37q53 0 85.5 -33.5t32.5 -89.5v-53l-95 -9v69q0 14 -6.5 21t-16.5 7q-11 0 -17 -8t-6 -21v-32q0 -31 6 -48t27 -32l54 -36
q33 -24 44 -56t11 -103q0 -72 -32 -109t-88 -37q-53 0 -86 34zM137 750h110l-98 -135h-32z" />
    <glyph glyph-name="Scircumflex" unicode="&#x15c;" horiz-adv-x="282" vert-adv-y="1170" 
d="M53.5 23q-30.5 33 -30.5 91v121l95 9v-135q0 -15 6.5 -22.5t16.5 -7.5q11 0 17 8t6 21v126q0 28 -6.5 45.5t-24.5 41.5l-63 81q-27 35 -37.5 62.5t-10.5 68.5v108q0 54 32.5 86.5t87.5 32.5q54 0 85.5 -32.5t31.5 -88.5v-115l-96 -9v130q0 12 -6 19t-16 7t-16.5 -7
t-6.5 -18v-101q0 -28 6 -44t23 -38l58 -74q31 -41 42.5 -71t11.5 -75v-129q0 -58 -30.5 -91t-87.5 -33t-87.5 33zM104 950h76l54 -135h-54l-38 66l-39 -66h-53z" />
    <glyph glyph-name="scircumflex" unicode="&#x15d;" horiz-adv-x="278" vert-adv-y="1170" 
d="M52 24q-33 34 -33 89v53l96 9v-69q0 -28 23 -28q12 0 18.5 7.5t6.5 21.5v39q0 32 -5.5 47t-28.5 30l-53 37q-32 22 -44 56t-12 99q0 71 32 108t87 37q53 0 85.5 -33.5t32.5 -89.5v-53l-95 -9v69q0 14 -6.5 21t-16.5 7q-11 0 -17 -8t-6 -21v-32q0 -31 6 -48t27 -32l54 -36
q33 -24 44 -56t11 -103q0 -72 -32 -109t-88 -37q-53 0 -86 34zM101 750h76l54 -135h-54l-38 66l-39 -66h-53z" />
    <glyph glyph-name="Scedilla" unicode="&#x15e;" horiz-adv-x="282" vert-adv-y="1170" 
d="M53.5 23q-30.5 33 -30.5 91v121l95 9v-135q0 -15 6.5 -22.5t16.5 -7.5q11 0 17 8t6 21v126q0 28 -6.5 45.5t-24.5 41.5l-63 81q-27 35 -37.5 62.5t-10.5 68.5v108q0 54 32.5 86.5t87.5 32.5q54 0 85.5 -32.5t31.5 -88.5v-115l-96 -9v130q0 12 -6 19t-16 7t-16.5 -7
t-6.5 -18v-101q0 -28 6 -44t23 -38l58 -74q31 -41 42.5 -71t11.5 -75v-129q0 -58 -30.5 -91t-87.5 -33t-87.5 33zM132 -65h32l-20 -135h-110z" />
    <glyph glyph-name="scedilla" unicode="&#x15f;" horiz-adv-x="278" vert-adv-y="1170" 
d="M52 24q-33 34 -33 89v53l96 9v-69q0 -28 23 -28q12 0 18.5 7.5t6.5 21.5v39q0 32 -5.5 47t-28.5 30l-53 37q-32 22 -44 56t-12 99q0 71 32 108t87 37q53 0 85.5 -33.5t32.5 -89.5v-53l-95 -9v69q0 14 -6.5 21t-16.5 7q-11 0 -17 -8t-6 -21v-32q0 -31 6 -48t27 -32l54 -36
q33 -24 44 -56t11 -103q0 -72 -32 -109t-88 -37q-53 0 -86 34zM129 -65h32l-20 -135h-110z" />
    <glyph glyph-name="Scaron" unicode="&#x160;" horiz-adv-x="282" vert-adv-y="1170" 
d="M53.5 23q-30.5 33 -30.5 91v121l95 9v-135q0 -15 6.5 -22.5t16.5 -7.5q11 0 17 8t6 21v126q0 28 -6.5 45.5t-24.5 41.5l-63 81q-27 35 -37.5 62.5t-10.5 68.5v108q0 54 32.5 86.5t87.5 32.5q54 0 85.5 -32.5t31.5 -88.5v-115l-96 -9v130q0 12 -6 19t-16 7t-16.5 -7
t-6.5 -18v-101q0 -28 6 -44t23 -38l58 -74q31 -41 42.5 -71t11.5 -75v-129q0 -58 -30.5 -91t-87.5 -33t-87.5 33zM50 950h53l39 -66l38 66h54l-54 -135h-76z" />
    <glyph glyph-name="scaron" unicode="&#x161;" horiz-adv-x="278" vert-adv-y="1170" 
d="M52 24q-33 34 -33 89v53l96 9v-69q0 -28 23 -28q12 0 18.5 7.5t6.5 21.5v39q0 32 -5.5 47t-28.5 30l-53 37q-32 22 -44 56t-12 99q0 71 32 108t87 37q53 0 85.5 -33.5t32.5 -89.5v-53l-95 -9v69q0 14 -6.5 21t-16.5 7q-11 0 -17 -8t-6 -21v-32q0 -31 6 -48t27 -32l54 -36
q33 -24 44 -56t11 -103q0 -72 -32 -109t-88 -37q-53 0 -86 34zM47 750h53l39 -66l38 66h54l-54 -135h-76z" />
    <glyph glyph-name="uni0162" unicode="&#x162;" horiz-adv-x="255" vert-adv-y="1170" 
d="M79 661h-64v89h224v-89h-64v-661h-96v661zM117 -65h32l-20 -135h-110z" />
    <glyph glyph-name="uni0163" unicode="&#x163;" horiz-adv-x="200" vert-adv-y="1170" 
d="M48 463h-36v87h36v117l96 18v-135h45v-87h-45v-463h-96v463zM131 -65h32l-20 -135h-110z" />
    <glyph glyph-name="Tcaron" unicode="&#x164;" horiz-adv-x="255" vert-adv-y="1170" 
d="M79 661h-64v89h224v-89h-64v-661h-96v661zM35 950h53l39 -66l38 66h54l-54 -135h-76z" />
    <glyph glyph-name="tcaron" unicode="&#x165;" horiz-adv-x="243" vert-adv-y="1170" 
d="M48 463h-36v87h36v117l96 18v-135h45v-87h-45v-463h-96v463zM171 750h75l-33 -150h-42v150z" />
    <glyph glyph-name="Tbar" unicode="&#x166;" horiz-adv-x="255" vert-adv-y="1170" 
d="M79 328h-46v83h46v250h-64v89h224v-89h-64v-250h46v-83h-46v-328h-96v328z" />
    <glyph glyph-name="tbar" unicode="&#x167;" horiz-adv-x="200" vert-adv-y="1170" 
d="M48 253h-33v83h33v127h-36v87h36v117l96 18v-135h45v-87h-45v-127h39v-83h-39v-253h-96v253z" />
    <glyph glyph-name="Utilde" unicode="&#x168;" horiz-adv-x="296" vert-adv-y="1170" 
d="M61 24q-33 32 -33 82v644h96v-644q0 -26 24 -26q11 0 17 6.5t6 19.5v644h97v-644q0 -50 -33 -82t-87 -32t-87 32zM164.5 830.5q-13.5 8.5 -28.5 23.5q-18 18 -28 18t-16 -11t-6 -31h-66q-3 58 18 89.5t64 31.5q17 0 30.5 -8.5t28.5 -23.5q18 -18 28 -18t16 11t6 31h65
q4 -59 -17 -90t-64 -31q-17 0 -30.5 8.5z" />
    <glyph glyph-name="utilde" unicode="&#x169;" horiz-adv-x="291" vert-adv-y="1170" 
d="M25 98v452h96v-421q0 -35 22 -35q12 0 19 10t7 29v417h95v-550h-79l-11 56h-2q-8 -31 -24 -48.5t-48 -17.5q-75 0 -75 108zM162.5 630.5q-13.5 8.5 -28.5 23.5q-18 18 -28 18t-16 -11t-6 -31h-66q-3 58 18 89.5t64 31.5q17 0 30.5 -8.5t28.5 -23.5q18 -18 28 -18t16 11
t6 31h65q4 -59 -17 -90t-64 -31q-17 0 -30.5 8.5z" />
    <glyph glyph-name="Umacron" unicode="&#x16a;" horiz-adv-x="296" vert-adv-y="1170" 
d="M61 24q-33 32 -33 82v644h96v-644q0 -26 24 -26q11 0 17 6.5t6 19.5v644h97v-644q0 -50 -33 -82t-87 -32t-87 32zM241 923v-83h-187v83h187z" />
    <glyph glyph-name="umacron" unicode="&#x16b;" horiz-adv-x="291" vert-adv-y="1170" 
d="M25 98v452h96v-421q0 -35 22 -35q12 0 19 10t7 29v417h95v-550h-79l-11 56h-2q-8 -31 -24 -48.5t-48 -17.5q-75 0 -75 108zM239 723v-83h-187v83h187z" />
    <glyph glyph-name="Ubreve" unicode="&#x16c;" horiz-adv-x="296" vert-adv-y="1170" 
d="M61 24q-33 32 -33 82v644h96v-644q0 -26 24 -26q11 0 17 6.5t6 19.5v644h97v-644q0 -50 -33 -82t-87 -32t-87 32zM61.5 851.5q-28.5 34.5 -23.5 98.5h77q-2 -31 7 -47t27 -16q38 0 35 63h73q1 -6 1 -18q0 -55 -29 -85t-81 -30q-58 0 -86.5 34.5z" />
    <glyph glyph-name="ubreve" unicode="&#x16d;" horiz-adv-x="291" vert-adv-y="1170" 
d="M25 98v452h96v-421q0 -35 22 -35q12 0 19 10t7 29v417h95v-550h-79l-11 56h-2q-8 -31 -24 -48.5t-48 -17.5q-75 0 -75 108zM59.5 651.5q-28.5 34.5 -23.5 98.5h77q-2 -31 7 -47t27 -16q38 0 35 63h73q1 -6 1 -18q0 -55 -29 -85t-81 -30q-58 0 -86.5 34.5z" />
    <glyph glyph-name="Uring" unicode="&#x16e;" horiz-adv-x="296" vert-adv-y="1170" 
d="M61 24q-33 32 -33 82v644h96v-644q0 -26 24 -26q11 0 17 6.5t6 19.5v644h97v-644q0 -50 -33 -82t-87 -32t-87 32zM86.5 828q-24.5 25 -24.5 62t24.5 62t61.5 25t61.5 -25t24.5 -62t-24.5 -62t-61.5 -25t-61.5 25zM167 868q8 9 8 22q0 14 -8 23t-19 9q-12 0 -19.5 -9
t-7.5 -23t7.5 -22.5t19.5 -8.5q11 0 19 9z" />
    <glyph glyph-name="uring" unicode="&#x16f;" horiz-adv-x="291" vert-adv-y="1170" 
d="M25 98v452h96v-421q0 -35 22 -35q12 0 19 10t7 29v417h95v-550h-79l-11 56h-2q-8 -31 -24 -48.5t-48 -17.5q-75 0 -75 108zM84.5 628q-24.5 25 -24.5 62t24.5 62t61.5 25t61.5 -25t24.5 -62t-24.5 -62t-61.5 -25t-61.5 25zM165 668q8 9 8 22q0 14 -8 23t-19 9
q-12 0 -19.5 -9t-7.5 -23t7.5 -22.5t19.5 -8.5q11 0 19 9z" />
    <glyph glyph-name="Uhungarumlaut" unicode="&#x170;" horiz-adv-x="296" vert-adv-y="1170" 
d="M61 24q-33 32 -33 82v644h96v-644q0 -26 24 -26q11 0 17 6.5t6 19.5v644h97v-644q0 -50 -33 -82t-87 -32t-87 32zM192 950h111l-99 -135h-32zM74 950h110l-98 -135h-32z" />
    <glyph glyph-name="uhungarumlaut" unicode="&#x171;" horiz-adv-x="291" vert-adv-y="1170" 
d="M25 98v452h96v-421q0 -35 22 -35q12 0 19 10t7 29v417h95v-550h-79l-11 56h-2q-8 -31 -24 -48.5t-48 -17.5q-75 0 -75 108zM190 750h111l-99 -135h-32zM72 750h110l-98 -135h-32z" />
    <glyph glyph-name="Uogonek" unicode="&#x172;" horiz-adv-x="296" vert-adv-y="1170" 
d="M118.5 -148.5q-32.5 20.5 -32.5 57.5q0 48 46 84q-46 4 -75 35.5t-29 77.5v644h96v-644q0 -26 24 -26q11 0 17 6.5t6 19.5v644h97v-644q0 -32 -14 -57.5t-39 -39.5q-21 -23 -31 -42.5t-10 -30.5q0 -15 11 -24.5t31 -9.5v-69q-65 -2 -97.5 18.5z" />
    <glyph glyph-name="uogonek" unicode="&#x173;" horiz-adv-x="291" vert-adv-y="1170" 
d="M25 98v452h96v-421q0 -35 22 -35q12 0 19 10t7 29v417h95v-550q-22 -24 -32 -43.5t-10 -30.5q0 -15 11 -24.5t31 -9.5v-69q-65 -2 -97.5 18.5t-32.5 57.5q0 60 73 101h-22l-11 56h-2q-8 -31 -24 -48.5t-48 -17.5q-75 0 -75 108z" />
    <glyph glyph-name="Wcircumflex" unicode="&#x174;" horiz-adv-x="433" vert-adv-y="1170" 
d="M14 750h90l38 -520l30 520h92l32 -517l37 517h86l-75 -750h-97l-30 515l-33 -515h-96zM179 950h76l54 -135h-54l-38 66l-39 -66h-53z" />
    <glyph glyph-name="wcircumflex" unicode="&#x175;" horiz-adv-x="444" vert-adv-y="1170" 
d="M12 550h97l27 -418h2l33 418h105l34 -418h2l27 418h92l-58 -550h-117l-33 359h-2l-34 -359h-117zM184 750h76l54 -135h-54l-38 66l-39 -66h-53z" />
    <glyph glyph-name="Ycircumflex" unicode="&#x176;" horiz-adv-x="271" vert-adv-y="1170" 
d="M87 250l-80 500h96l34 -323l33 323h94l-81 -501v-249h-96v250zM97 950h76l54 -135h-54l-38 66l-39 -66h-53z" />
    <glyph glyph-name="ycircumflex" unicode="&#x177;" horiz-adv-x="276" vert-adv-y="1170" 
d="M91 18l-81 532h103l24 -320h2l29 320h97l-104 -730h-95zM101 750h76l54 -135h-54l-38 66l-39 -66h-53z" />
    <glyph glyph-name="Ydieresis" unicode="&#x178;" horiz-adv-x="271" vert-adv-y="1170" 
d="M87 250l-80 500h96l34 -323l33 323h94l-81 -501v-249h-96v250zM159 843q-16 16 -16 40q0 25 16 40.5t39 15.5q24 0 39.5 -15.5t15.5 -40.5t-15.5 -40.5t-39.5 -15.5q-23 0 -39 16zM33.5 842.5q-15.5 15.5 -15.5 40.5t15.5 40.5t38.5 15.5q24 0 39.5 -15.5t15.5 -40.5
t-15.5 -40.5t-39.5 -15.5q-23 0 -38.5 15.5z" />
    <glyph glyph-name="Zacute" unicode="&#x179;" horiz-adv-x="244" vert-adv-y="1170" 
d="M18 79l110 580h-110v91h208v-81l-110 -578h110v-91h-208v79zM120 950h110l-98 -135h-32z" />
    <glyph glyph-name="zacute" unicode="&#x17a;" horiz-adv-x="231" vert-adv-y="1170" 
d="M14 85l113 379h-109v86h195v-85l-113 -379h116v-86h-202v85zM114 750h110l-98 -135h-32z" />
    <glyph glyph-name="Zdotaccent" unicode="&#x17b;" horiz-adv-x="244" vert-adv-y="1170" 
d="M18 79l110 580h-110v91h208v-81l-110 -578h110v-91h-208v79zM80 841q-17 17 -17 42q0 26 17 42.5t42 16.5q26 0 42.5 -16.5t16.5 -42.5t-16.5 -42.5t-42.5 -16.5q-25 0 -42 17z" />
    <glyph glyph-name="zdotaccent" unicode="&#x17c;" horiz-adv-x="231" vert-adv-y="1170" 
d="M14 85l113 379h-109v86h195v-85l-113 -379h116v-86h-202v85zM74 641q-17 17 -17 42q0 26 17 42.5t42 16.5q26 0 42.5 -16.5t16.5 -42.5t-16.5 -42.5t-42.5 -16.5q-25 0 -42 17z" />
    <glyph glyph-name="Zcaron" unicode="&#x17d;" horiz-adv-x="244" vert-adv-y="1170" 
d="M18 79l110 580h-110v91h208v-81l-110 -578h110v-91h-208v79zM30 950h53l39 -66l38 66h54l-54 -135h-76z" />
    <glyph glyph-name="zcaron" unicode="&#x17e;" horiz-adv-x="231" vert-adv-y="1170" 
d="M14 85l113 379h-109v86h195v-85l-113 -379h116v-86h-202v85zM24 750h53l39 -66l38 66h54l-54 -135h-76z" />
    <glyph glyph-name="uni018F" unicode="&#x18f;" horiz-adv-x="295" vert-adv-y="1170" 
d="M61 22q-33 32 -33 83v258h144v282q0 13 -6.5 20t-18.5 7q-11 0 -17.5 -7t-6.5 -20v-211h-95v211q0 51 33 83t86 32q54 0 87.5 -32t33.5 -83v-540q0 -51 -33.5 -83t-87.5 -32q-53 0 -86 32zM165.5 85q6.5 7 6.5 20v172h-49v-172q0 -13 6.5 -20t17.5 -7q12 0 18.5 7z" />
    <glyph glyph-name="florin" unicode="&#x192;" horiz-adv-x="264" vert-adv-y="1170" 
d="M15 86h45q11 0 17.5 7t6.5 19v230h-69v89h69v207q0 50 33.5 82.5t86.5 32.5h45v-89h-45q-11 0 -17.5 -7t-6.5 -19v-207h69v-89h-69v-230q0 -51 -33 -83t-87 -32h-45v89z" />
    <glyph glyph-name="uni019D" unicode="&#x19d;" horiz-adv-x="304" vert-adv-y="1170" 
d="M-27 -183v90h20q35 0 35 41v802h76l91 -420v420h81v-750h-76l-91 421v-477q0 -71 -22.5 -100.5t-82.5 -29.5q-15 0 -31 3z" />
    <glyph glyph-name="Ohorn" unicode="&#x1a0;" horiz-adv-x="310" vert-adv-y="1170" 
d="M61 22q-33 32 -33 83v540q0 50 32.5 82.5t83.5 32.5q16 0 36 -4q12 -3 21 -3q18 0 26 12.5t8 38.5q0 28 -12 65h83q15 -40 15 -71q0 -38 -17.5 -63.5t-50.5 -35.5q15 -23 15 -54v-540q0 -51 -33 -83t-87 -32t-87 32zM165.5 85q6.5 7 6.5 20v540q0 13 -6.5 20t-17.5 7
t-18 -7t-7 -20v-540q0 -13 6.5 -20t18.5 -7q11 0 17.5 7z" />
    <glyph glyph-name="ohorn" unicode="&#x1a1;" horiz-adv-x="318" vert-adv-y="1170" 
d="M57.5 23.5q-32.5 33.5 -32.5 89.5v324q0 56 31 89.5t84 33.5q16 0 36 -4q11 -3 21 -3q16 0 27 11t11 32q0 32 -13 73h81q12 -36 12 -71q0 -37 -16.5 -62.5t-47.5 -36.5q13 -26 13 -62v-324q0 -56 -32.5 -89.5t-86.5 -33.5q-55 0 -87.5 33.5zM126.5 85q6.5 -7 18.5 -7
q11 0 17.5 7.5t6.5 20.5v338q0 14 -6.5 21t-17.5 7q-25 0 -25 -28v-338q0 -14 6.5 -21z" />
    <glyph glyph-name="Uhorn" unicode="&#x1af;" horiz-adv-x="333" vert-adv-y="1170" 
d="M61 24q-33 32 -33 82v644h96v-644q0 -26 24 -26q11 0 17 6.5t6 19.5v644h31q29 0 43.5 13t14.5 41t-12 65h85q15 -40 15 -71q0 -41 -21 -68t-59 -37v-587q0 -50 -33 -82t-87 -32t-87 32z" />
    <glyph glyph-name="uhorn" unicode="&#x1b0;" horiz-adv-x="329" vert-adv-y="1170" 
d="M25 98v452h96v-421q0 -35 22 -35q12 0 19 10t7 29v417h11q29 0 43 13t14 41q0 30 -12 65h86q14 -38 14 -71q0 -35 -16 -60.5t-45 -37.5v-500h-79l-11 56h-2q-8 -31 -24 -48.5t-48 -17.5q-75 0 -75 108z" />
    <glyph glyph-name="Gcaron" unicode="&#x1e6;" horiz-adv-x="294" vert-adv-y="1170" 
d="M61 22q-33 32 -33 83v540q0 51 33 83t87 32t87.5 -32t33.5 -83v-157l-97 -8v165q0 26 -24 26q-11 0 -17.5 -7t-6.5 -19v-540q0 -26 24 -26t24 26v194h-19v90h116v-284q0 -51 -33.5 -83t-87.5 -32t-87 32zM55 950h53l39 -66l38 66h54l-54 -135h-76z" />
    <glyph glyph-name="gcaron" unicode="&#x1e7;" horiz-adv-x="292" vert-adv-y="1170" 
d="M58 -156.5q-33 33.5 -33 89.5v54l96 9v-75q0 -14 6.5 -21t17.5 -7t17.5 8t6.5 22v171h-2q-5 -30 -18.5 -46t-43.5 -16q-41 0 -60.5 30.5t-19.5 84.5v290q0 56 19.5 89.5t58.5 33.5q31 0 45 -15.5t26 -47.5h3v53h88v-616q0 -57 -33 -90.5t-87 -33.5t-87 33.5zM169 172v243
q-1 17 -7.5 26.5t-16.5 9.5q-24 0 -24 -39v-237q0 -39 24 -39q23 0 24 36zM55 750h53l39 -66l38 66h54l-54 -135h-76z" />
    <glyph glyph-name="uni0218" unicode="&#x218;" horiz-adv-x="282" vert-adv-y="1170" 
d="M53.5 23q-30.5 33 -30.5 91v121l95 9v-135q0 -15 6.5 -22.5t16.5 -7.5q11 0 17 8t6 21v126q0 28 -6.5 45.5t-24.5 41.5l-63 81q-27 35 -37.5 62.5t-10.5 68.5v108q0 54 32.5 86.5t87.5 32.5q54 0 85.5 -32.5t31.5 -88.5v-115l-96 -9v130q0 12 -6 19t-16 7t-16.5 -7
t-6.5 -18v-101q0 -28 6 -44t23 -38l58 -74q31 -41 42.5 -71t11.5 -75v-129q0 -58 -30.5 -91t-87.5 -33t-87.5 33zM179 -130l-41 -111l-31 13l29 83q-16 2 -25.5 13.5t-9.5 28.5q0 18 12 29.5t30 11.5t30 -11.5t12 -29.5q0 -9 -6 -27z" />
    <glyph glyph-name="uni0219" unicode="&#x219;" horiz-adv-x="278" vert-adv-y="1170" 
d="M52 24q-33 34 -33 89v53l96 9v-69q0 -28 23 -28q12 0 18.5 7.5t6.5 21.5v39q0 32 -5.5 47t-28.5 30l-53 37q-32 22 -44 56t-12 99q0 71 32 108t87 37q53 0 85.5 -33.5t32.5 -89.5v-53l-95 -9v69q0 14 -6.5 21t-16.5 7q-11 0 -17 -8t-6 -21v-32q0 -31 6 -48t27 -32l54 -36
q33 -24 44 -56t11 -103q0 -72 -32 -109t-88 -37q-53 0 -86 34zM176 -130l-41 -111l-31 13l29 83q-16 2 -25.5 13.5t-9.5 28.5q0 18 12 29.5t30 11.5t30 -11.5t12 -29.5q0 -9 -6 -27z" />
    <glyph glyph-name="uni021A" unicode="&#x21a;" horiz-adv-x="255" vert-adv-y="1170" 
d="M79 661h-64v89h224v-89h-64v-661h-96v661zM164 -130l-41 -111l-31 13l29 83q-16 2 -25.5 13.5t-9.5 28.5q0 18 12 29.5t30 11.5t30 -11.5t12 -29.5q0 -9 -6 -27z" />
    <glyph glyph-name="uni021B" unicode="&#x21b;" horiz-adv-x="200" vert-adv-y="1170" 
d="M48 463h-36v87h36v117l96 18v-135h45v-87h-45v-463h-96v463zM178 -130l-41 -111l-31 13l29 83q-16 2 -25.5 13.5t-9.5 28.5q0 18 12 29.5t30 11.5t30 -11.5t12 -29.5q0 -9 -6 -27z" />
    <glyph glyph-name="uni0232" unicode="&#x232;" horiz-adv-x="271" vert-adv-y="1170" 
d="M87 250l-80 500h96l34 -323l33 323h94l-81 -501v-249h-96v250zM228 923v-83h-187v83h187z" />
    <glyph glyph-name="uni0233" unicode="&#x233;" horiz-adv-x="276" vert-adv-y="1170" 
d="M91 18l-81 532h103l24 -320h2l29 320h97l-104 -730h-95zM232 723v-83h-187v83h187z" />
    <glyph glyph-name="uni0237" unicode="&#x237;" horiz-adv-x="151" vert-adv-y="1170" 
d="M-27 -183v90h20q35 0 35 41v602h95v-606q0 -68 -28 -99t-90 -31q-16 0 -32 3z" />
    <glyph glyph-name="uni0259" unicode="&#x259;" horiz-adv-x="289" vert-adv-y="1170" 
d="M231.5 526q32.5 -34 32.5 -90v-322q0 -57 -32.5 -90.5t-87.5 -33.5q-54 0 -86.5 33.5t-32.5 89.5v180h144v152q0 13 -7 20.5t-18 7.5t-17.5 -7t-6.5 -20v-114l-95 8v97q0 56 32.5 89.5t86.5 33.5q55 0 87.5 -34zM120 229v-125q0 -13 6.5 -20t17.5 -7q25 0 25 28v124h-49z
" />
    <glyph glyph-name="uni0272" unicode="&#x272;" horiz-adv-x="293" vert-adv-y="1170" 
d="M-26 -183v90h19q35 0 35 41v602h88v-55h3q9 30 25.5 47.5t48.5 17.5q39 0 57 -26.5t18 -77.5v-456h-96v421q0 35 -22 35q-12 0 -19 -10t-7 -29v-473q0 -68 -28.5 -99t-90.5 -31q-15 0 -31 3z" />
    <glyph glyph-name="circumflex" unicode="&#x2c6;" horiz-adv-x="284" vert-adv-y="1170" 
d="M111 750h76l54 -135h-54l-38 66l-39 -66h-53z" />
    <glyph glyph-name="caron" unicode="&#x2c7;" horiz-adv-x="284" vert-adv-y="1170" 
d="M57 750h53l39 -66l38 66h54l-54 -135h-76z" />
    <glyph glyph-name="breve" unicode="&#x2d8;" horiz-adv-x="320" vert-adv-y="1170" 
d="M80.5 651.5q-28.5 34.5 -23.5 98.5h77q-2 -31 7 -47t27 -16q38 0 35 63h73q1 -6 1 -18q0 -55 -29 -85t-81 -30q-58 0 -86.5 34.5z" />
    <glyph glyph-name="dotaccent" unicode="&#x2d9;" horiz-adv-x="218" vert-adv-y="1170" 
d="M74 641q-17 17 -17 42q0 26 17 42.5t42 16.5q26 0 42.5 -16.5t16.5 -42.5t-16.5 -42.5t-42.5 -16.5q-25 0 -42 17z" />
    <glyph glyph-name="ring" unicode="&#x2da;" horiz-adv-x="272" vert-adv-y="1170" 
d="M81.5 628q-24.5 25 -24.5 62t24.5 62t61.5 25t61.5 -25t24.5 -62t-24.5 -62t-61.5 -25t-61.5 25zM162 668q8 9 8 22q0 14 -8 23t-19 9q-12 0 -19.5 -9t-7.5 -23t7.5 -22.5t19.5 -8.5q11 0 19 9z" />
    <glyph glyph-name="ogonek" unicode="&#x2db;" horiz-adv-x="230" vert-adv-y="1170" 
d="M89.5 -157.5q-32.5 20.5 -32.5 57.5q0 64 82 106l48 -5q-22 -24 -32 -43.5t-10 -30.5q0 -15 11 -24.5t31 -9.5v-69q-65 -2 -97.5 18.5z" />
    <glyph glyph-name="tilde" unicode="&#x2dc;" horiz-adv-x="357" vert-adv-y="1170" 
d="M201.5 630.5q-13.5 8.5 -28.5 23.5q-18 18 -28 18t-16 -11t-6 -31h-66q-3 58 18 89.5t64 31.5q17 0 30.5 -8.5t28.5 -23.5q18 -18 28 -18t16 11t6 31h65q4 -59 -17 -90t-64 -31q-17 0 -30.5 8.5z" />
    <glyph glyph-name="hungarumlaut" unicode="&#x2dd;" horiz-adv-x="349" vert-adv-y="1170" 
d="M195 750h111l-99 -135h-32zM77 750h110l-98 -135h-32z" />
    <glyph glyph-name="gravecomb" unicode="&#x300;" vert-adv-y="1170" 
d="M57 750h110l20 -135h-32z" />
    <glyph glyph-name="acutecomb" unicode="&#x301;" vert-adv-y="1170" 
d="M77 750h110l-98 -135h-32z" />
    <glyph glyph-name="uni0302" unicode="&#x302;" vert-adv-y="1170" 
d="M111 750h76l54 -135h-54l-38 66l-39 -66h-53z" />
    <glyph glyph-name="tildecomb" unicode="&#x303;" vert-adv-y="1170" 
d="M201.5 630.5q-13.5 8.5 -28.5 23.5q-18 18 -28 18t-16 -11t-6 -31h-66q-3 58 18 89.5t64 31.5q17 0 30.5 -8.5t28.5 -23.5q18 -18 28 -18t16 11t6 31h65q4 -59 -17 -90t-64 -31q-17 0 -30.5 8.5z" />
    <glyph glyph-name="uni0304" unicode="&#x304;" vert-adv-y="1170" 
d="M244 723v-83h-187v83h187z" />
    <glyph glyph-name="uni0306" unicode="&#x306;" vert-adv-y="1170" 
d="M80.5 651.5q-28.5 34.5 -23.5 98.5h77q-2 -31 7 -47t27 -16q38 0 35 63h73q1 -6 1 -18q0 -55 -29 -85t-81 -30q-58 0 -86.5 34.5z" />
    <glyph glyph-name="uni0307" unicode="&#x307;" vert-adv-y="1170" 
d="M74 641q-17 17 -17 42q0 26 17 42.5t42 16.5q26 0 42.5 -16.5t16.5 -42.5t-16.5 -42.5t-42.5 -16.5q-25 0 -42 17z" />
    <glyph glyph-name="uni0308" unicode="&#x308;" vert-adv-y="1170" 
d="M198 643q-16 16 -16 40q0 25 16 40.5t39 15.5q24 0 39.5 -15.5t15.5 -40.5t-15.5 -40.5t-39.5 -15.5q-23 0 -39 16zM72.5 642.5q-15.5 15.5 -15.5 40.5t15.5 40.5t38.5 15.5q24 0 39.5 -15.5t15.5 -40.5t-15.5 -40.5t-39.5 -15.5q-23 0 -38.5 15.5z" />
    <glyph glyph-name="hookabovecomb" unicode="&#x309;" vert-adv-y="1170" 
d="M87 668.5q11 8.5 11 20.5q0 14 -12 21t-29 7v72h4q56 0 84.5 -23t28.5 -60q0 -51 -56 -70v-21h-61v42q19 3 30 11.5z" />
    <glyph glyph-name="uni030A" unicode="&#x30a;" vert-adv-y="1170" 
d="M81.5 628q-24.5 25 -24.5 62t24.5 62t61.5 25t61.5 -25t24.5 -62t-24.5 -62t-61.5 -25t-61.5 25zM162 668q8 9 8 22q0 14 -8 23t-19 9q-12 0 -19.5 -9t-7.5 -23t7.5 -22.5t19.5 -8.5q11 0 19 9z" />
    <glyph glyph-name="uni030B" unicode="&#x30b;" vert-adv-y="1170" 
d="M195 750h111l-99 -135h-32zM77 750h110l-98 -135h-32z" />
    <glyph glyph-name="uni030C" unicode="&#x30c;" vert-adv-y="1170" 
d="M57 750h53l39 -66l38 66h54l-54 -135h-76z" />
    <glyph glyph-name="uni0312" unicode="&#x312;" vert-adv-y="1170" 
d="M69 636.5q-12 11.5 -12 29.5q0 11 6 27l41 110l31 -12l-29 -84q16 -1 25.5 -12.5t9.5 -28.5q0 -18 -12 -29.5t-30 -11.5t-30 11.5z" />
    <glyph glyph-name="uni031B" unicode="&#x31b;" vert-adv-y="1170" 
d="M57 550h4q29 0 43.5 13t14.5 41t-12 65h85q14 -38 14 -71q0 -53 -33.5 -81.5t-92.5 -28.5h-8z" />
    <glyph glyph-name="dotbelowcomb" unicode="&#x323;" vert-adv-y="1170" 
d="M72 -124.5q-15 15.5 -15 38.5t15.5 38t38.5 15q24 0 39 -15t15 -38q0 -24 -15 -39t-39 -15t-39 15.5z" />
    <glyph glyph-name="uni0326" unicode="&#x326;" vert-adv-y="1170" 
d="M135 -130l-41 -111l-31 13l29 83q-16 2 -25.5 13.5t-9.5 28.5q0 18 12 29.5t30 11.5t30 -11.5t12 -29.5q0 -9 -6 -27z" />
    <glyph glyph-name="uni0327" unicode="&#x327;" vert-adv-y="688" 
d="M155 -75h32l-20 -135h-110z" />
    <glyph glyph-name="uni0328" unicode="&#x328;" vert-adv-y="1170" 
d="M89.5 -157.5q-32.5 20.5 -32.5 57.5q0 64 82 106l48 -5q-22 -24 -32 -43.5t-10 -30.5q0 -15 11 -24.5t31 -9.5v-69q-65 -2 -97.5 18.5z" />
    <glyph glyph-name="uni0394" unicode="&#x394;" horiz-adv-x="282" vert-adv-y="1170" 
d="M79 750h125l69 -750h-264zM171 80l-30 531l-35 -531h65z" />
    <glyph glyph-name="uni03A9" unicode="&#x3a9;" horiz-adv-x="283" vert-adv-y="1170" 
d="M229 728q33 -32 33 -83v-503q0 -32 -14 -54l24 1v-89h-120v96q6 0 10 6.5t4 17.5v525q0 26 -24 26t-24 -26v-525q0 -11 4 -17.5t10 -6.5v-96h-121v89l24 -1q-14 23 -14 54v503q0 51 33.5 83t87.5 32t87 -32z" />
    <glyph glyph-name="uni03BC" unicode="&#x3bc;" horiz-adv-x="292" vert-adv-y="1170" 
d="M27 550h96v-421q0 -35 22 -35q12 0 19 10t7 29v417h95v-550h-79l-11 56h-2q-13 -52 -51 -58v-178h-96v730z" />
    <glyph glyph-name="pi" unicode="&#x3c0;" horiz-adv-x="397" vert-adv-y="1170" 
d="M218 128v335h-45l-23 -463h-96l23 463h-63v87h364v-87h-65v-328q0 -47 42 -47q11 0 23 3v-88q-24 -7 -48 -7q-112 0 -112 132z" />
    <glyph glyph-name="uni1E20" unicode="&#x1e20;" horiz-adv-x="294" vert-adv-y="1170" 
d="M61 22q-33 32 -33 83v540q0 51 33 83t87 32t87.5 -32t33.5 -83v-157l-97 -8v165q0 26 -24 26q-11 0 -17.5 -7t-6.5 -19v-540q0 -26 24 -26t24 26v194h-19v90h116v-284q0 -51 -33.5 -83t-87.5 -32t-87 32zM240 923v-83h-187v83h187z" />
    <glyph glyph-name="uni1E21" unicode="&#x1e21;" horiz-adv-x="292" vert-adv-y="1170" 
d="M58 -156.5q-33 33.5 -33 89.5v54l96 9v-75q0 -14 6.5 -21t17.5 -7t17.5 8t6.5 22v171h-2q-5 -30 -18.5 -46t-43.5 -16q-41 0 -60.5 30.5t-19.5 84.5v290q0 56 19.5 89.5t58.5 33.5q31 0 45 -15.5t26 -47.5h3v53h88v-616q0 -57 -33 -90.5t-87 -33.5t-87 33.5zM169 172v243
q-1 17 -7.5 26.5t-16.5 9.5q-24 0 -24 -39v-237q0 -39 24 -39q23 0 24 36zM240 723v-83h-187v83h187z" />
    <glyph glyph-name="Wgrave" unicode="&#x1e80;" horiz-adv-x="433" vert-adv-y="1170" 
d="M14 750h90l38 -520l30 520h92l32 -517l37 517h86l-75 -750h-97l-30 515l-33 -515h-96zM106 950h110l20 -135h-32z" />
    <glyph glyph-name="wgrave" unicode="&#x1e81;" horiz-adv-x="444" vert-adv-y="1170" 
d="M12 550h97l27 -418h2l33 418h105l34 -418h2l27 418h92l-58 -550h-117l-33 359h-2l-34 -359h-117zM111 750h110l20 -135h-32z" />
    <glyph glyph-name="Wacute" unicode="&#x1e82;" horiz-adv-x="433" vert-adv-y="1170" 
d="M14 750h90l38 -520l30 520h92l32 -517l37 517h86l-75 -750h-97l-30 515l-33 -515h-96zM215 950h110l-98 -135h-32z" />
    <glyph glyph-name="wacute" unicode="&#x1e83;" horiz-adv-x="444" vert-adv-y="1170" 
d="M12 550h97l27 -418h2l33 418h105l34 -418h2l27 418h92l-58 -550h-117l-33 359h-2l-34 -359h-117zM220 750h110l-98 -135h-32z" />
    <glyph glyph-name="Wdieresis" unicode="&#x1e84;" horiz-adv-x="433" vert-adv-y="1170" 
d="M14 750h90l38 -520l30 520h92l32 -517l37 517h86l-75 -750h-97l-30 515l-33 -515h-96zM241 843q-16 16 -16 40q0 25 16 40.5t39 15.5q24 0 39.5 -15.5t15.5 -40.5t-15.5 -40.5t-39.5 -15.5q-23 0 -39 16zM115.5 842.5q-15.5 15.5 -15.5 40.5t15.5 40.5t38.5 15.5
q24 0 39.5 -15.5t15.5 -40.5t-15.5 -40.5t-39.5 -15.5q-23 0 -38.5 15.5z" />
    <glyph glyph-name="wdieresis" unicode="&#x1e85;" horiz-adv-x="444" vert-adv-y="1170" 
d="M12 550h97l27 -418h2l33 418h105l34 -418h2l27 418h92l-58 -550h-117l-33 359h-2l-34 -359h-117zM246 643q-16 16 -16 40q0 25 16 40.5t39 15.5q24 0 39.5 -15.5t15.5 -40.5t-15.5 -40.5t-39.5 -15.5q-23 0 -39 16zM120.5 642.5q-15.5 15.5 -15.5 40.5t15.5 40.5
t38.5 15.5q24 0 39.5 -15.5t15.5 -40.5t-15.5 -40.5t-39.5 -15.5q-23 0 -38.5 15.5z" />
    <glyph glyph-name="uni1E9E" unicode="&#x1e9e;" horiz-adv-x="304" vert-adv-y="1170" 
d="M172 90q10 10 10 32v193q0 16 -9.5 26t-23.5 10h-8v93h4q16 0 26 10.5t10 27.5v153q0 14 -7 23.5t-21 9.5q-15 0 -30 -10v-658h-95v719q63 41 124 41q56 0 91 -36t35 -95v-146q0 -53 -38 -85q19 -16 29 -38t10 -48v-188q0 -61 -37 -97.5t-101 -36.5v90q21 0 31 10z" />
    <glyph glyph-name="uni1EA0" unicode="&#x1ea0;" horiz-adv-x="282" vert-adv-y="1170" 
d="M79 750h125l69 -750h-98l-7 123h-58l-8 -123h-93zM164 202l-23 409l-27 -409h50zM102 -124.5q-15 15.5 -15 38.5t15.5 38t38.5 15q24 0 39 -15t15 -38q0 -24 -15 -39t-39 -15t-39 15.5z" />
    <glyph glyph-name="uni1EA1" unicode="&#x1ea1;" horiz-adv-x="285" vert-adv-y="1170" 
d="M39.5 26q-19.5 36 -19.5 97v73q0 64 29 94t91 30h24v123q0 14 -6 21.5t-17 7.5t-17.5 -7.5t-6.5 -20.5v-87l-96 9v71q0 56 33 89.5t87 33.5t86 -34t32 -90v-436h-78l-10 49h-1q-10 -31 -25.5 -45t-41.5 -14q-44 0 -63.5 36zM164 123v124h-18q-16 0 -23.5 -10.5
t-7.5 -31.5v-89q0 -33 24 -33q25 0 25 40zM104 -124.5q-15 15.5 -15 38.5t15.5 38t38.5 15q24 0 39 -15t15 -38q0 -24 -15 -39t-39 -15t-39 15.5z" />
    <glyph glyph-name="uni1EA2" unicode="&#x1ea2;" horiz-adv-x="282" vert-adv-y="1170" 
d="M79 750h125l69 -750h-98l-7 123h-58l-8 -123h-93zM164 202l-23 409l-27 -409h50zM144 868.5q11 8.5 11 20.5q0 14 -12 21t-29 7v72h4q56 0 84.5 -23t28.5 -60q0 -51 -56 -70v-21h-61v42q19 3 30 11.5z" />
    <glyph glyph-name="uni1EA3" unicode="&#x1ea3;" horiz-adv-x="285" vert-adv-y="1170" 
d="M39.5 26q-19.5 36 -19.5 97v73q0 64 29 94t91 30h24v123q0 14 -6 21.5t-17 7.5t-17.5 -7.5t-6.5 -20.5v-87l-96 9v71q0 56 33 89.5t87 33.5t86 -34t32 -90v-436h-78l-10 49h-1q-10 -31 -25.5 -45t-41.5 -14q-44 0 -63.5 36zM164 123v124h-18q-16 0 -23.5 -10.5
t-7.5 -31.5v-89q0 -33 24 -33q25 0 25 40zM144 668.5q11 8.5 11 20.5q0 14 -12 21t-29 7v72h4q56 0 84.5 -23t28.5 -60q0 -51 -56 -70v-21h-61v42q19 3 30 11.5z" />
    <glyph glyph-name="uni1EA4" unicode="&#x1ea4;" horiz-adv-x="282" vert-adv-y="1170" 
d="M79 750h125l69 -750h-98l-7 123h-58l-8 -123h-93zM164 202l-23 409l-27 -409h50zM103 950h76l54 -135h-54l-38 66l-39 -66h-53zM222 1052h96l-86 -115h-28z" />
    <glyph glyph-name="uni1EA5" unicode="&#x1ea5;" horiz-adv-x="285" vert-adv-y="1170" 
d="M39.5 26q-19.5 36 -19.5 97v73q0 64 29 94t91 30h24v123q0 14 -6 21.5t-17 7.5t-17.5 -7.5t-6.5 -20.5v-87l-96 9v71q0 56 33 89.5t87 33.5t86 -34t32 -90v-436h-78l-10 49h-1q-10 -31 -25.5 -45t-41.5 -14q-44 0 -63.5 36zM164 123v124h-18q-16 0 -23.5 -10.5
t-7.5 -31.5v-89q0 -33 24 -33q25 0 25 40zM103 750h76l54 -135h-54l-38 66l-39 -66h-53zM222 852h96l-86 -115h-28z" />
    <glyph glyph-name="uni1EA6" unicode="&#x1ea6;" horiz-adv-x="282" vert-adv-y="1170" 
d="M79 750h125l69 -750h-98l-7 123h-58l-8 -123h-93zM164 202l-23 409l-27 -409h50zM103 950h76l54 -135h-54l-38 66l-39 -66h-53zM153 1052h96l18 -115h-27z" />
    <glyph glyph-name="uni1EA7" unicode="&#x1ea7;" horiz-adv-x="285" vert-adv-y="1170" 
d="M39.5 26q-19.5 36 -19.5 97v73q0 64 29 94t91 30h24v123q0 14 -6 21.5t-17 7.5t-17.5 -7.5t-6.5 -20.5v-87l-96 9v71q0 56 33 89.5t87 33.5t86 -34t32 -90v-436h-78l-10 49h-1q-10 -31 -25.5 -45t-41.5 -14q-44 0 -63.5 36zM164 123v124h-18q-16 0 -23.5 -10.5
t-7.5 -31.5v-89q0 -33 24 -33q25 0 25 40zM103 750h76l54 -135h-54l-38 66l-39 -66h-53zM153 852h96l18 -115h-27z" />
    <glyph glyph-name="uni1EA8" unicode="&#x1ea8;" horiz-adv-x="282" vert-adv-y="1170" 
d="M79 750h125l69 -750h-98l-7 123h-58l-8 -123h-93zM164 202l-23 409l-27 -409h50zM103 950h76l54 -135h-54l-38 66l-39 -66h-53zM235.5 974.5q11.5 8.5 11.5 20.5q0 13 -12 20t-29 7v69h4q55 0 82.5 -22t27.5 -59q0 -26 -15.5 -42.5t-39.5 -24.5v-21h-59v42
q18 2 29.5 10.5z" />
    <glyph glyph-name="uni1EA9" unicode="&#x1ea9;" horiz-adv-x="285" vert-adv-y="1170" 
d="M39.5 26q-19.5 36 -19.5 97v73q0 64 29 94t91 30h24v123q0 14 -6 21.5t-17 7.5t-17.5 -7.5t-6.5 -20.5v-87l-96 9v71q0 56 33 89.5t87 33.5t86 -34t32 -90v-436h-78l-10 49h-1q-10 -31 -25.5 -45t-41.5 -14q-44 0 -63.5 36zM164 123v124h-18q-16 0 -23.5 -10.5
t-7.5 -31.5v-89q0 -33 24 -33q25 0 25 40zM103 750h76l54 -135h-54l-38 66l-39 -66h-53zM235.5 774.5q11.5 8.5 11.5 20.5q0 13 -12 20t-29 7v69h4q55 0 82.5 -22t27.5 -59q0 -26 -15.5 -42.5t-39.5 -24.5v-21h-59v42q18 2 29.5 10.5z" />
    <glyph glyph-name="uni1EAA" unicode="&#x1eaa;" horiz-adv-x="282" vert-adv-y="1170" 
d="M79 750h125l69 -750h-98l-7 123h-58l-8 -123h-93zM164 202l-23 409l-27 -409h50zM103 945h77l51 -130h-54l-36 61l-35 -61h-54zM153.5 988q-12.5 8 -25.5 21q-7 7 -14 12t-12 5q-10 0 -15 -10.5t-5 -28.5h-61q-2 53 17.5 81.5t58.5 28.5q15 0 26 -7.5t27 -21.5
q17 -17 26 -17q10 0 15 10.5t5 28.5h59q4 -54 -15.5 -82t-58.5 -28q-15 0 -27.5 8z" />
    <glyph glyph-name="uni1EAB" unicode="&#x1eab;" horiz-adv-x="285" vert-adv-y="1170" 
d="M39.5 26q-19.5 36 -19.5 97v73q0 64 29 94t91 30h24v123q0 14 -6 21.5t-17 7.5t-17.5 -7.5t-6.5 -20.5v-87l-96 9v71q0 56 33 89.5t87 33.5t86 -34t32 -90v-436h-78l-10 49h-1q-10 -31 -25.5 -45t-41.5 -14q-44 0 -63.5 36zM164 123v124h-18q-16 0 -23.5 -10.5
t-7.5 -31.5v-89q0 -33 24 -33q25 0 25 40zM103 745h77l51 -130h-54l-36 61l-35 -61h-54zM153.5 788q-12.5 8 -25.5 21q-7 7 -14 12t-12 5q-10 0 -15 -10.5t-5 -28.5h-61q-2 53 17.5 81.5t58.5 28.5q15 0 26 -7.5t27 -21.5q17 -17 26 -17q10 0 15 10.5t5 28.5h59
q4 -54 -15.5 -82t-58.5 -28q-15 0 -27.5 8z" />
    <glyph glyph-name="uni1EAC" unicode="&#x1eac;" horiz-adv-x="282" vert-adv-y="1170" 
d="M79 750h125l69 -750h-98l-7 123h-58l-8 -123h-93zM164 202l-23 409l-27 -409h50zM102 -124.5q-15 15.5 -15 38.5t15.5 38t38.5 15q24 0 39 -15t15 -38q0 -24 -15 -39t-39 -15t-39 15.5zM103 950h76l54 -135h-54l-38 66l-39 -66h-53z" />
    <glyph glyph-name="uni1EAD" unicode="&#x1ead;" horiz-adv-x="285" vert-adv-y="1170" 
d="M39.5 26q-19.5 36 -19.5 97v73q0 64 29 94t91 30h24v123q0 14 -6 21.5t-17 7.5t-17.5 -7.5t-6.5 -20.5v-87l-96 9v71q0 56 33 89.5t87 33.5t86 -34t32 -90v-436h-78l-10 49h-1q-10 -31 -25.5 -45t-41.5 -14q-44 0 -63.5 36zM164 123v124h-18q-16 0 -23.5 -10.5
t-7.5 -31.5v-89q0 -33 24 -33q25 0 25 40zM104 -124.5q-15 15.5 -15 38.5t15.5 38t38.5 15q24 0 39 -15t15 -38q0 -24 -15 -39t-39 -15t-39 15.5zM103 750h76l54 -135h-54l-38 66l-39 -66h-53z" />
    <glyph glyph-name="uni1EAE" unicode="&#x1eae;" horiz-adv-x="282" vert-adv-y="1170" 
d="M79 750h125l69 -750h-98l-7 123h-58l-8 -123h-93zM164 202l-23 409l-27 -409h50zM54.5 851.5q-28.5 34.5 -23.5 98.5h77q-2 -31 7 -47t27 -16q38 0 35 63h73q1 -6 1 -18q0 -55 -29 -85t-81 -30q-58 0 -86.5 34.5zM145 1082h96l-87 -115h-27z" />
    <glyph glyph-name="uni1EAF" unicode="&#x1eaf;" horiz-adv-x="285" vert-adv-y="1170" 
d="M39.5 26q-19.5 36 -19.5 97v73q0 64 29 94t91 30h24v123q0 14 -6 21.5t-17 7.5t-17.5 -7.5t-6.5 -20.5v-87l-96 9v71q0 56 33 89.5t87 33.5t86 -34t32 -90v-436h-78l-10 49h-1q-10 -31 -25.5 -45t-41.5 -14q-44 0 -63.5 36zM164 123v124h-18q-16 0 -23.5 -10.5
t-7.5 -31.5v-89q0 -33 24 -33q25 0 25 40zM54.5 651.5q-28.5 34.5 -23.5 98.5h77q-2 -31 7 -47t27 -16q38 0 35 63h73q1 -6 1 -18q0 -55 -29 -85t-81 -30q-58 0 -86.5 34.5zM145 882h96l-87 -115h-27z" />
    <glyph glyph-name="uni1EB0" unicode="&#x1eb0;" horiz-adv-x="282" vert-adv-y="1170" 
d="M79 750h125l69 -750h-98l-7 123h-58l-8 -123h-93zM164 202l-23 409l-27 -409h50zM54.5 851.5q-28.5 34.5 -23.5 98.5h77q-2 -31 7 -47t27 -16q38 0 35 63h73q1 -6 1 -18q0 -55 -29 -85t-81 -30q-58 0 -86.5 34.5zM46 1082h97l17 -115h-27z" />
    <glyph glyph-name="uni1EB1" unicode="&#x1eb1;" horiz-adv-x="285" vert-adv-y="1170" 
d="M39.5 26q-19.5 36 -19.5 97v73q0 64 29 94t91 30h24v123q0 14 -6 21.5t-17 7.5t-17.5 -7.5t-6.5 -20.5v-87l-96 9v71q0 56 33 89.5t87 33.5t86 -34t32 -90v-436h-78l-10 49h-1q-10 -31 -25.5 -45t-41.5 -14q-44 0 -63.5 36zM164 123v124h-18q-16 0 -23.5 -10.5
t-7.5 -31.5v-89q0 -33 24 -33q25 0 25 40zM54.5 651.5q-28.5 34.5 -23.5 98.5h77q-2 -31 7 -47t27 -16q38 0 35 63h73q1 -6 1 -18q0 -55 -29 -85t-81 -30q-58 0 -86.5 34.5zM46 882h97l17 -115h-27z" />
    <glyph glyph-name="uni1EB2" unicode="&#x1eb2;" horiz-adv-x="282" vert-adv-y="1170" 
d="M79 750h125l69 -750h-98l-7 123h-58l-8 -123h-93zM164 202l-23 409l-27 -409h50zM54.5 851.5q-28.5 34.5 -23.5 98.5h77q-2 -31 7 -47t27 -16q38 0 35 63h73q1 -6 1 -18q0 -55 -29 -85t-81 -30q-58 0 -86.5 34.5zM153 1037q0 13 -11 19.5t-27 6.5v68h4q53 0 80 -22
t27 -57q0 -25 -15 -41t-39 -24v-20h-57v40q38 7 38 30z" />
    <glyph glyph-name="uni1EB3" unicode="&#x1eb3;" horiz-adv-x="285" vert-adv-y="1170" 
d="M39.5 26q-19.5 36 -19.5 97v73q0 64 29 94t91 30h24v123q0 14 -6 21.5t-17 7.5t-17.5 -7.5t-6.5 -20.5v-87l-96 9v71q0 56 33 89.5t87 33.5t86 -34t32 -90v-436h-78l-10 49h-1q-10 -31 -25.5 -45t-41.5 -14q-44 0 -63.5 36zM164 123v124h-18q-16 0 -23.5 -10.5
t-7.5 -31.5v-89q0 -33 24 -33q25 0 25 40zM54.5 651.5q-28.5 34.5 -23.5 98.5h77q-2 -31 7 -47t27 -16q38 0 35 63h73q1 -6 1 -18q0 -55 -29 -85t-81 -30q-58 0 -86.5 34.5zM153 837q0 13 -11 19.5t-27 6.5v68h4q53 0 80 -22t27 -57q0 -25 -15 -41t-39 -24v-20h-57v40
q38 7 38 30z" />
    <glyph glyph-name="uni1EB4" unicode="&#x1eb4;" horiz-adv-x="282" vert-adv-y="1170" 
d="M79 750h125l69 -750h-98l-7 123h-58l-8 -123h-93zM164 202l-23 409l-27 -409h50zM55.5 851q-28.5 34 -23.5 95h76q-2 -29 7 -44t28 -15q37 0 34 59h73q1 -6 1 -18q0 -53 -28.5 -82t-81.5 -29q-57 0 -85.5 34zM157 989.5q-12 7.5 -27 21.5q-18 18 -27 18q-10 0 -15 -11
t-5 -29h-62q-2 54 17.5 83t59.5 29q15 0 27 -7.5t27 -21.5q18 -18 27 -18q10 0 15.5 11t5.5 29h60q3 -54 -16.5 -83t-59.5 -29q-15 0 -27 7.5z" />
    <glyph glyph-name="uni1EB5" unicode="&#x1eb5;" horiz-adv-x="285" vert-adv-y="1170" 
d="M39.5 26q-19.5 36 -19.5 97v73q0 64 29 94t91 30h24v123q0 14 -6 21.5t-17 7.5t-17.5 -7.5t-6.5 -20.5v-87l-96 9v71q0 56 33 89.5t87 33.5t86 -34t32 -90v-436h-78l-10 49h-1q-10 -31 -25.5 -45t-41.5 -14q-44 0 -63.5 36zM164 123v124h-18q-16 0 -23.5 -10.5
t-7.5 -31.5v-89q0 -33 24 -33q25 0 25 40zM55.5 651q-28.5 34 -23.5 95h76q-2 -29 7 -44t28 -15q37 0 34 59h73q1 -6 1 -18q0 -53 -28.5 -82t-81.5 -29q-57 0 -85.5 34zM157 789.5q-12 7.5 -27 21.5q-18 18 -27 18q-10 0 -15 -11t-5 -29h-62q-2 54 17.5 83t59.5 29
q15 0 27 -7.5t27 -21.5q18 -18 27 -18q10 0 15.5 11t5.5 29h60q3 -54 -16.5 -83t-59.5 -29q-15 0 -27 7.5z" />
    <glyph glyph-name="uni1EB6" unicode="&#x1eb6;" horiz-adv-x="282" vert-adv-y="1170" 
d="M79 750h125l69 -750h-98l-7 123h-58l-8 -123h-93zM164 202l-23 409l-27 -409h50zM102 -124.5q-15 15.5 -15 38.5t15.5 38t38.5 15q24 0 39 -15t15 -38q0 -24 -15 -39t-39 -15t-39 15.5zM54.5 851.5q-28.5 34.5 -23.5 98.5h77q-2 -31 7 -47t27 -16q38 0 35 63h73
q1 -6 1 -18q0 -55 -29 -85t-81 -30q-58 0 -86.5 34.5z" />
    <glyph glyph-name="uni1EB7" unicode="&#x1eb7;" horiz-adv-x="285" vert-adv-y="1170" 
d="M39.5 26q-19.5 36 -19.5 97v73q0 64 29 94t91 30h24v123q0 14 -6 21.5t-17 7.5t-17.5 -7.5t-6.5 -20.5v-87l-96 9v71q0 56 33 89.5t87 33.5t86 -34t32 -90v-436h-78l-10 49h-1q-10 -31 -25.5 -45t-41.5 -14q-44 0 -63.5 36zM164 123v124h-18q-16 0 -23.5 -10.5
t-7.5 -31.5v-89q0 -33 24 -33q25 0 25 40zM104 -124.5q-15 15.5 -15 38.5t15.5 38t38.5 15q24 0 39 -15t15 -38q0 -24 -15 -39t-39 -15t-39 15.5zM54.5 651.5q-28.5 34.5 -23.5 98.5h77q-2 -31 7 -47t27 -16q38 0 35 63h73q1 -6 1 -18q0 -55 -29 -85t-81 -30
q-58 0 -86.5 34.5z" />
    <glyph glyph-name="uni1EB8" unicode="&#x1eb8;" horiz-adv-x="241" vert-adv-y="1170" 
d="M28 750h193v-89h-98v-226h73v-90h-73v-256h98v-89h-193v750zM78 -124.5q-15 15.5 -15 38.5t15.5 38t38.5 15q24 0 39 -15t15 -38q0 -24 -15 -39t-39 -15t-39 15.5z" />
    <glyph glyph-name="uni1EB9" unicode="&#x1eb9;" horiz-adv-x="289" vert-adv-y="1170" 
d="M57.5 24q-32.5 34 -32.5 90v322q0 57 32.5 90.5t87.5 33.5q54 0 86.5 -33.5t32.5 -89.5v-180h-144v-152q0 -13 7 -20.5t18 -7.5t17.5 7t6.5 20v114l95 -8v-97q0 -56 -32.5 -89.5t-86.5 -33.5q-55 0 -87.5 34zM169 321v125q0 13 -6.5 20t-17.5 7q-25 0 -25 -28v-124h49z
M106 -124.5q-15 15.5 -15 38.5t15.5 38t38.5 15q24 0 39 -15t15 -38q0 -24 -15 -39t-39 -15t-39 15.5z" />
    <glyph glyph-name="uni1EBA" unicode="&#x1eba;" horiz-adv-x="241" vert-adv-y="1170" 
d="M28 750h193v-89h-98v-226h73v-90h-73v-256h98v-89h-193v750zM129 868.5q11 8.5 11 20.5q0 14 -12 21t-29 7v72h4q56 0 84.5 -23t28.5 -60q0 -51 -56 -70v-21h-61v42q19 3 30 11.5z" />
    <glyph glyph-name="uni1EBB" unicode="&#x1ebb;" horiz-adv-x="289" vert-adv-y="1170" 
d="M57.5 24q-32.5 34 -32.5 90v322q0 57 32.5 90.5t87.5 33.5q54 0 86.5 -33.5t32.5 -89.5v-180h-144v-152q0 -13 7 -20.5t18 -7.5t17.5 7t6.5 20v114l95 -8v-97q0 -56 -32.5 -89.5t-86.5 -33.5q-55 0 -87.5 34zM169 321v125q0 13 -6.5 20t-17.5 7q-25 0 -25 -28v-124h49z
M148 668.5q11 8.5 11 20.5q0 14 -12 21t-29 7v72h4q56 0 84.5 -23t28.5 -60q0 -51 -56 -70v-21h-61v42q19 3 30 11.5z" />
    <glyph glyph-name="uni1EBC" unicode="&#x1ebc;" horiz-adv-x="241" vert-adv-y="1170" 
d="M28 750h193v-89h-98v-226h73v-90h-73v-256h98v-89h-193v750zM142.5 830.5q-13.5 8.5 -28.5 23.5q-18 18 -28 18t-16 -11t-6 -31h-66q-3 58 18 89.5t64 31.5q17 0 30.5 -8.5t28.5 -23.5q18 -18 28 -18t16 11t6 31h65q4 -59 -17 -90t-64 -31q-17 0 -30.5 8.5z" />
    <glyph glyph-name="uni1EBD" unicode="&#x1ebd;" horiz-adv-x="289" vert-adv-y="1170" 
d="M57.5 24q-32.5 34 -32.5 90v322q0 57 32.5 90.5t87.5 33.5q54 0 86.5 -33.5t32.5 -89.5v-180h-144v-152q0 -13 7 -20.5t18 -7.5t17.5 7t6.5 20v114l95 -8v-97q0 -56 -32.5 -89.5t-86.5 -33.5q-55 0 -87.5 34zM169 321v125q0 13 -6.5 20t-17.5 7q-25 0 -25 -28v-124h49z
M161.5 630.5q-13.5 8.5 -28.5 23.5q-18 18 -28 18t-16 -11t-6 -31h-66q-3 58 18 89.5t64 31.5q17 0 30.5 -8.5t28.5 -23.5q18 -18 28 -18t16 11t6 31h65q4 -59 -17 -90t-64 -31q-17 0 -30.5 8.5z" />
    <glyph glyph-name="uni1EBE" unicode="&#x1ebe;" horiz-adv-x="241" vert-adv-y="1170" 
d="M28 750h193v-89h-98v-226h73v-90h-73v-256h98v-89h-193v750zM88 950h76l54 -135h-54l-38 66l-39 -66h-53zM207 1052h96l-86 -115h-28z" />
    <glyph glyph-name="uni1EBF" unicode="&#x1ebf;" horiz-adv-x="289" vert-adv-y="1170" 
d="M57.5 24q-32.5 34 -32.5 90v322q0 57 32.5 90.5t87.5 33.5q54 0 86.5 -33.5t32.5 -89.5v-180h-144v-152q0 -13 7 -20.5t18 -7.5t17.5 7t6.5 20v114l95 -8v-97q0 -56 -32.5 -89.5t-86.5 -33.5q-55 0 -87.5 34zM169 321v125q0 13 -6.5 20t-17.5 7q-25 0 -25 -28v-124h49z
M107 750h76l54 -135h-54l-38 66l-39 -66h-53zM226 852h96l-86 -115h-28z" />
    <glyph glyph-name="uni1EC0" unicode="&#x1ec0;" horiz-adv-x="241" vert-adv-y="1170" 
d="M28 750h193v-89h-98v-226h73v-90h-73v-256h98v-89h-193v750zM88 950h76l54 -135h-54l-38 66l-39 -66h-53zM138 1052h96l18 -115h-27z" />
    <glyph glyph-name="uni1EC1" unicode="&#x1ec1;" horiz-adv-x="289" vert-adv-y="1170" 
d="M57.5 24q-32.5 34 -32.5 90v322q0 57 32.5 90.5t87.5 33.5q54 0 86.5 -33.5t32.5 -89.5v-180h-144v-152q0 -13 7 -20.5t18 -7.5t17.5 7t6.5 20v114l95 -8v-97q0 -56 -32.5 -89.5t-86.5 -33.5q-55 0 -87.5 34zM169 321v125q0 13 -6.5 20t-17.5 7q-25 0 -25 -28v-124h49z
M107 750h76l54 -135h-54l-38 66l-39 -66h-53zM157 852h96l18 -115h-27z" />
    <glyph glyph-name="uni1EC2" unicode="&#x1ec2;" horiz-adv-x="241" vert-adv-y="1170" 
d="M28 750h193v-89h-98v-226h73v-90h-73v-256h98v-89h-193v750zM88 950h76l54 -135h-54l-38 66l-39 -66h-53zM220.5 974.5q11.5 8.5 11.5 20.5q0 13 -12 20t-29 7v69h4q55 0 82.5 -22t27.5 -59q0 -26 -15.5 -42.5t-39.5 -24.5v-21h-59v42q18 2 29.5 10.5z" />
    <glyph glyph-name="uni1EC3" unicode="&#x1ec3;" horiz-adv-x="289" vert-adv-y="1170" 
d="M57.5 24q-32.5 34 -32.5 90v322q0 57 32.5 90.5t87.5 33.5q54 0 86.5 -33.5t32.5 -89.5v-180h-144v-152q0 -13 7 -20.5t18 -7.5t17.5 7t6.5 20v114l95 -8v-97q0 -56 -32.5 -89.5t-86.5 -33.5q-55 0 -87.5 34zM169 321v125q0 13 -6.5 20t-17.5 7q-25 0 -25 -28v-124h49z
M107 750h76l54 -135h-54l-38 66l-39 -66h-53zM239.5 774.5q11.5 8.5 11.5 20.5q0 13 -12 20t-29 7v69h4q55 0 82.5 -22t27.5 -59q0 -26 -15.5 -42.5t-39.5 -24.5v-21h-59v42q18 2 29.5 10.5z" />
    <glyph glyph-name="uni1EC4" unicode="&#x1ec4;" horiz-adv-x="241" vert-adv-y="1170" 
d="M28 750h193v-89h-98v-226h73v-90h-73v-256h98v-89h-193v750zM88 945h77l51 -130h-54l-36 61l-35 -61h-54zM138.5 988q-12.5 8 -25.5 21q-7 7 -14 12t-12 5q-10 0 -15 -10.5t-5 -28.5h-61q-2 53 17.5 81.5t58.5 28.5q15 0 26 -7.5t27 -21.5q17 -17 26 -17q10 0 15 10.5
t5 28.5h59q4 -54 -15.5 -82t-58.5 -28q-15 0 -27.5 8z" />
    <glyph glyph-name="uni1EC5" unicode="&#x1ec5;" horiz-adv-x="289" vert-adv-y="1170" 
d="M57.5 24q-32.5 34 -32.5 90v322q0 57 32.5 90.5t87.5 33.5q54 0 86.5 -33.5t32.5 -89.5v-180h-144v-152q0 -13 7 -20.5t18 -7.5t17.5 7t6.5 20v114l95 -8v-97q0 -56 -32.5 -89.5t-86.5 -33.5q-55 0 -87.5 34zM169 321v125q0 13 -6.5 20t-17.5 7q-25 0 -25 -28v-124h49z
M107 745h77l51 -130h-54l-36 61l-35 -61h-54zM157.5 788q-12.5 8 -25.5 21q-7 7 -14 12t-12 5q-10 0 -15 -10.5t-5 -28.5h-61q-2 53 17.5 81.5t58.5 28.5q15 0 26 -7.5t27 -21.5q17 -17 26 -17q10 0 15 10.5t5 28.5h59q4 -54 -15.5 -82t-58.5 -28q-15 0 -27.5 8z" />
    <glyph glyph-name="uni1EC6" unicode="&#x1ec6;" horiz-adv-x="241" vert-adv-y="1170" 
d="M28 750h193v-89h-98v-226h73v-90h-73v-256h98v-89h-193v750zM78 -124.5q-15 15.5 -15 38.5t15.5 38t38.5 15q24 0 39 -15t15 -38q0 -24 -15 -39t-39 -15t-39 15.5zM88 950h76l54 -135h-54l-38 66l-39 -66h-53z" />
    <glyph glyph-name="uni1EC7" unicode="&#x1ec7;" horiz-adv-x="289" vert-adv-y="1170" 
d="M57.5 24q-32.5 34 -32.5 90v322q0 57 32.5 90.5t87.5 33.5q54 0 86.5 -33.5t32.5 -89.5v-180h-144v-152q0 -13 7 -20.5t18 -7.5t17.5 7t6.5 20v114l95 -8v-97q0 -56 -32.5 -89.5t-86.5 -33.5q-55 0 -87.5 34zM169 321v125q0 13 -6.5 20t-17.5 7q-25 0 -25 -28v-124h49z
M106 -124.5q-15 15.5 -15 38.5t15.5 38t38.5 15q24 0 39 -15t15 -38q0 -24 -15 -39t-39 -15t-39 15.5zM107 750h76l54 -135h-54l-38 66l-39 -66h-53z" />
    <glyph glyph-name="uni1EC8" unicode="&#x1ec8;" horiz-adv-x="151" vert-adv-y="1170" 
d="M28 750h95v-750h-95v750zM79 868.5q11 8.5 11 20.5q0 14 -12 21t-29 7v72h4q56 0 84.5 -23t28.5 -60q0 -51 -56 -70v-21h-61v42q19 3 30 11.5z" />
    <glyph glyph-name="uni1EC9" unicode="&#x1ec9;" horiz-adv-x="150" vert-adv-y="1170" 
d="M27 550h96v-550h-96v550zM78 668.5q11 8.5 11 20.5q0 14 -12 21t-29 7v72h4q56 0 84.5 -23t28.5 -60q0 -51 -56 -70v-21h-61v42q19 3 30 11.5z" />
    <glyph glyph-name="uni1ECA" unicode="&#x1eca;" horiz-adv-x="151" vert-adv-y="1170" 
d="M28 750h95v-750h-95v750zM37 -124.5q-15 15.5 -15 38.5t15.5 38t38.5 15q24 0 39 -15t15 -38q0 -24 -15 -39t-39 -15t-39 15.5z" />
    <glyph glyph-name="uni1ECB" unicode="&#x1ecb;" horiz-adv-x="150" vert-adv-y="1170" 
d="M27 550h96v-550h-96v550zM33 641q-17 17 -17 42q0 26 17 42.5t42 16.5q26 0 42.5 -16.5t16.5 -42.5t-16.5 -42.5t-42.5 -16.5q-25 0 -42 17zM36 -124.5q-15 15.5 -15 38.5t15.5 38t38.5 15q24 0 39 -15t15 -38q0 -24 -15 -39t-39 -15t-39 15.5z" />
    <glyph glyph-name="uni1ECC" unicode="&#x1ecc;" horiz-adv-x="295" vert-adv-y="1170" 
d="M61 22q-33 32 -33 83v540q0 51 33 83t87 32t87 -32t33 -83v-540q0 -51 -33 -83t-87 -32t-87 32zM165.5 85q6.5 7 6.5 20v540q0 13 -6.5 20t-17.5 7t-18 -7t-7 -20v-540q0 -13 6.5 -20t18.5 -7q11 0 17.5 7zM109 -124.5q-15 15.5 -15 38.5t15.5 38t38.5 15q24 0 39 -15
t15 -38q0 -24 -15 -39t-39 -15t-39 15.5z" />
    <glyph glyph-name="uni1ECD" unicode="&#x1ecd;" horiz-adv-x="289" vert-adv-y="1170" 
d="M57.5 23.5q-32.5 33.5 -32.5 89.5v324q0 56 32.5 89.5t87.5 33.5q54 0 86.5 -33.5t32.5 -89.5v-324q0 -56 -32.5 -89.5t-86.5 -33.5q-55 0 -87.5 33.5zM126.5 85q6.5 -7 18.5 -7q11 0 17.5 7.5t6.5 20.5v338q0 14 -6.5 21t-17.5 7q-25 0 -25 -28v-338q0 -14 6.5 -21z
M106 -124.5q-15 15.5 -15 38.5t15.5 38t38.5 15q24 0 39 -15t15 -38q0 -24 -15 -39t-39 -15t-39 15.5z" />
    <glyph glyph-name="uni1ECE" unicode="&#x1ece;" horiz-adv-x="295" vert-adv-y="1170" 
d="M61 22q-33 32 -33 83v540q0 51 33 83t87 32t87 -32t33 -83v-540q0 -51 -33 -83t-87 -32t-87 32zM165.5 85q6.5 7 6.5 20v540q0 13 -6.5 20t-17.5 7t-18 -7t-7 -20v-540q0 -13 6.5 -20t18.5 -7q11 0 17.5 7zM151 868.5q11 8.5 11 20.5q0 14 -12 21t-29 7v72h4
q56 0 84.5 -23t28.5 -60q0 -51 -56 -70v-21h-61v42q19 3 30 11.5z" />
    <glyph glyph-name="uni1ECF" unicode="&#x1ecf;" horiz-adv-x="289" vert-adv-y="1170" 
d="M57.5 23.5q-32.5 33.5 -32.5 89.5v324q0 56 32.5 89.5t87.5 33.5q54 0 86.5 -33.5t32.5 -89.5v-324q0 -56 -32.5 -89.5t-86.5 -33.5q-55 0 -87.5 33.5zM126.5 85q6.5 -7 18.5 -7q11 0 17.5 7.5t6.5 20.5v338q0 14 -6.5 21t-17.5 7q-25 0 -25 -28v-338q0 -14 6.5 -21z
M148 668.5q11 8.5 11 20.5q0 14 -12 21t-29 7v72h4q56 0 84.5 -23t28.5 -60q0 -51 -56 -70v-21h-61v42q19 3 30 11.5z" />
    <glyph glyph-name="uni1ED0" unicode="&#x1ed0;" horiz-adv-x="295" vert-adv-y="1170" 
d="M61 22q-33 32 -33 83v540q0 51 33 83t87 32t87 -32t33 -83v-540q0 -51 -33 -83t-87 -32t-87 32zM165.5 85q6.5 7 6.5 20v540q0 13 -6.5 20t-17.5 7t-18 -7t-7 -20v-540q0 -13 6.5 -20t18.5 -7q11 0 17.5 7zM110 950h76l54 -135h-54l-38 66l-39 -66h-53zM229 1052h96
l-86 -115h-28z" />
    <glyph glyph-name="uni1ED1" unicode="&#x1ed1;" horiz-adv-x="289" vert-adv-y="1170" 
d="M57.5 23.5q-32.5 33.5 -32.5 89.5v324q0 56 32.5 89.5t87.5 33.5q54 0 86.5 -33.5t32.5 -89.5v-324q0 -56 -32.5 -89.5t-86.5 -33.5q-55 0 -87.5 33.5zM126.5 85q6.5 -7 18.5 -7q11 0 17.5 7.5t6.5 20.5v338q0 14 -6.5 21t-17.5 7q-25 0 -25 -28v-338q0 -14 6.5 -21z
M107 750h76l54 -135h-54l-38 66l-39 -66h-53zM226 852h96l-86 -115h-28z" />
    <glyph glyph-name="uni1ED2" unicode="&#x1ed2;" horiz-adv-x="295" vert-adv-y="1170" 
d="M61 22q-33 32 -33 83v540q0 51 33 83t87 32t87 -32t33 -83v-540q0 -51 -33 -83t-87 -32t-87 32zM165.5 85q6.5 7 6.5 20v540q0 13 -6.5 20t-17.5 7t-18 -7t-7 -20v-540q0 -13 6.5 -20t18.5 -7q11 0 17.5 7zM110 950h76l54 -135h-54l-38 66l-39 -66h-53zM160 1052h96
l18 -115h-27z" />
    <glyph glyph-name="uni1ED3" unicode="&#x1ed3;" horiz-adv-x="289" vert-adv-y="1170" 
d="M57.5 23.5q-32.5 33.5 -32.5 89.5v324q0 56 32.5 89.5t87.5 33.5q54 0 86.5 -33.5t32.5 -89.5v-324q0 -56 -32.5 -89.5t-86.5 -33.5q-55 0 -87.5 33.5zM126.5 85q6.5 -7 18.5 -7q11 0 17.5 7.5t6.5 20.5v338q0 14 -6.5 21t-17.5 7q-25 0 -25 -28v-338q0 -14 6.5 -21z
M107 750h76l54 -135h-54l-38 66l-39 -66h-53zM157 852h96l18 -115h-27z" />
    <glyph glyph-name="uni1ED4" unicode="&#x1ed4;" horiz-adv-x="295" vert-adv-y="1170" 
d="M61 22q-33 32 -33 83v540q0 51 33 83t87 32t87 -32t33 -83v-540q0 -51 -33 -83t-87 -32t-87 32zM165.5 85q6.5 7 6.5 20v540q0 13 -6.5 20t-17.5 7t-18 -7t-7 -20v-540q0 -13 6.5 -20t18.5 -7q11 0 17.5 7zM110 950h76l54 -135h-54l-38 66l-39 -66h-53zM242.5 974.5
q11.5 8.5 11.5 20.5q0 13 -12 20t-29 7v69h4q55 0 82.5 -22t27.5 -59q0 -26 -15.5 -42.5t-39.5 -24.5v-21h-59v42q18 2 29.5 10.5z" />
    <glyph glyph-name="uni1ED5" unicode="&#x1ed5;" horiz-adv-x="289" vert-adv-y="1170" 
d="M57.5 23.5q-32.5 33.5 -32.5 89.5v324q0 56 32.5 89.5t87.5 33.5q54 0 86.5 -33.5t32.5 -89.5v-324q0 -56 -32.5 -89.5t-86.5 -33.5q-55 0 -87.5 33.5zM126.5 85q6.5 -7 18.5 -7q11 0 17.5 7.5t6.5 20.5v338q0 14 -6.5 21t-17.5 7q-25 0 -25 -28v-338q0 -14 6.5 -21z
M107 750h76l54 -135h-54l-38 66l-39 -66h-53zM239.5 774.5q11.5 8.5 11.5 20.5q0 13 -12 20t-29 7v69h4q55 0 82.5 -22t27.5 -59q0 -26 -15.5 -42.5t-39.5 -24.5v-21h-59v42q18 2 29.5 10.5z" />
    <glyph glyph-name="uni1ED6" unicode="&#x1ed6;" horiz-adv-x="295" vert-adv-y="1170" 
d="M61 22q-33 32 -33 83v540q0 51 33 83t87 32t87 -32t33 -83v-540q0 -51 -33 -83t-87 -32t-87 32zM165.5 85q6.5 7 6.5 20v540q0 13 -6.5 20t-17.5 7t-18 -7t-7 -20v-540q0 -13 6.5 -20t18.5 -7q11 0 17.5 7zM110 945h77l51 -130h-54l-36 61l-35 -61h-54zM160.5 988
q-12.5 8 -25.5 21q-7 7 -14 12t-12 5q-10 0 -15 -10.5t-5 -28.5h-61q-2 53 17.5 81.5t58.5 28.5q15 0 26 -7.5t27 -21.5q17 -17 26 -17q10 0 15 10.5t5 28.5h59q4 -54 -15.5 -82t-58.5 -28q-15 0 -27.5 8z" />
    <glyph glyph-name="uni1ED7" unicode="&#x1ed7;" horiz-adv-x="289" vert-adv-y="1170" 
d="M57.5 23.5q-32.5 33.5 -32.5 89.5v324q0 56 32.5 89.5t87.5 33.5q54 0 86.5 -33.5t32.5 -89.5v-324q0 -56 -32.5 -89.5t-86.5 -33.5q-55 0 -87.5 33.5zM126.5 85q6.5 -7 18.5 -7q11 0 17.5 7.5t6.5 20.5v338q0 14 -6.5 21t-17.5 7q-25 0 -25 -28v-338q0 -14 6.5 -21z
M107 745h77l51 -130h-54l-36 61l-35 -61h-54zM157.5 788q-12.5 8 -25.5 21q-7 7 -14 12t-12 5q-10 0 -15 -10.5t-5 -28.5h-61q-2 53 17.5 81.5t58.5 28.5q15 0 26 -7.5t27 -21.5q17 -17 26 -17q10 0 15 10.5t5 28.5h59q4 -54 -15.5 -82t-58.5 -28q-15 0 -27.5 8z" />
    <glyph glyph-name="uni1ED8" unicode="&#x1ed8;" horiz-adv-x="295" vert-adv-y="1170" 
d="M61 22q-33 32 -33 83v540q0 51 33 83t87 32t87 -32t33 -83v-540q0 -51 -33 -83t-87 -32t-87 32zM165.5 85q6.5 7 6.5 20v540q0 13 -6.5 20t-17.5 7t-18 -7t-7 -20v-540q0 -13 6.5 -20t18.5 -7q11 0 17.5 7zM109 -124.5q-15 15.5 -15 38.5t15.5 38t38.5 15q24 0 39 -15
t15 -38q0 -24 -15 -39t-39 -15t-39 15.5zM110 950h76l54 -135h-54l-38 66l-39 -66h-53z" />
    <glyph glyph-name="uni1ED9" unicode="&#x1ed9;" horiz-adv-x="289" vert-adv-y="1170" 
d="M57.5 23.5q-32.5 33.5 -32.5 89.5v324q0 56 32.5 89.5t87.5 33.5q54 0 86.5 -33.5t32.5 -89.5v-324q0 -56 -32.5 -89.5t-86.5 -33.5q-55 0 -87.5 33.5zM126.5 85q6.5 -7 18.5 -7q11 0 17.5 7.5t6.5 20.5v338q0 14 -6.5 21t-17.5 7q-25 0 -25 -28v-338q0 -14 6.5 -21z
M106 -124.5q-15 15.5 -15 38.5t15.5 38t38.5 15q24 0 39 -15t15 -38q0 -24 -15 -39t-39 -15t-39 15.5zM107 750h76l54 -135h-54l-38 66l-39 -66h-53z" />
    <glyph glyph-name="uni1EDA" unicode="&#x1eda;" horiz-adv-x="310" vert-adv-y="1170" 
d="M61 22q-33 32 -33 83v540q0 50 32.5 82.5t83.5 32.5q16 0 36 -4q12 -3 21 -3q18 0 26 12.5t8 38.5q0 28 -12 65h83q15 -40 15 -71q0 -38 -17.5 -63.5t-50.5 -35.5q15 -23 15 -54v-540q0 -51 -33 -83t-87 -32t-87 32zM165.5 85q6.5 7 6.5 20v540q0 13 -6.5 20t-17.5 7
t-18 -7t-7 -20v-540q0 -13 6.5 -20t18.5 -7q11 0 17.5 7zM139 950h110l-98 -135h-32z" />
    <glyph glyph-name="uni1EDB" unicode="&#x1edb;" horiz-adv-x="318" vert-adv-y="1170" 
d="M57.5 23.5q-32.5 33.5 -32.5 89.5v324q0 56 31 89.5t84 33.5q16 0 36 -4q11 -3 21 -3q16 0 27 11t11 32q0 32 -13 73h81q12 -36 12 -71q0 -37 -16.5 -62.5t-47.5 -36.5q13 -26 13 -62v-324q0 -56 -32.5 -89.5t-86.5 -33.5q-55 0 -87.5 33.5zM126.5 85q6.5 -7 18.5 -7
q11 0 17.5 7.5t6.5 20.5v338q0 14 -6.5 21t-17.5 7q-25 0 -25 -28v-338q0 -14 6.5 -21zM139 750h110l-98 -135h-32z" />
    <glyph glyph-name="uni1EDC" unicode="&#x1edc;" horiz-adv-x="310" vert-adv-y="1170" 
d="M61 22q-33 32 -33 83v540q0 50 32.5 82.5t83.5 32.5q16 0 36 -4q12 -3 21 -3q18 0 26 12.5t8 38.5q0 28 -12 65h83q15 -40 15 -71q0 -38 -17.5 -63.5t-50.5 -35.5q15 -23 15 -54v-540q0 -51 -33 -83t-87 -32t-87 32zM165.5 85q6.5 7 6.5 20v540q0 13 -6.5 20t-17.5 7
t-18 -7t-7 -20v-540q0 -13 6.5 -20t18.5 -7q11 0 17.5 7zM30 950h110l20 -135h-32z" />
    <glyph glyph-name="uni1EDD" unicode="&#x1edd;" horiz-adv-x="318" vert-adv-y="1170" 
d="M57.5 23.5q-32.5 33.5 -32.5 89.5v324q0 56 31 89.5t84 33.5q16 0 36 -4q11 -3 21 -3q16 0 27 11t11 32q0 32 -13 73h81q12 -36 12 -71q0 -37 -16.5 -62.5t-47.5 -36.5q13 -26 13 -62v-324q0 -56 -32.5 -89.5t-86.5 -33.5q-55 0 -87.5 33.5zM126.5 85q6.5 -7 18.5 -7
q11 0 17.5 7.5t6.5 20.5v338q0 14 -6.5 21t-17.5 7q-25 0 -25 -28v-338q0 -14 6.5 -21zM30 750h110l20 -135h-32z" />
    <glyph glyph-name="uni1EDE" unicode="&#x1ede;" horiz-adv-x="310" vert-adv-y="1170" 
d="M61 22q-33 32 -34 83l-3 540q-1 50 31.5 82.5t83.5 32.5q16 0 36 -4q12 -3 21 -3q18 0 26 12.5t8 38.5q0 29 -13 65h83q16 -39 16 -71q0 -38 -17.5 -63.5t-50.5 -35.5q16 -23 16 -54l3 -540q1 -51 -32 -83t-87 -32t-87 32zM164.5 85q6.5 7 6.5 20l-3 540q0 13 -6.5 20
t-17.5 7t-18 -7t-7 -20l3 -540q0 -13 6.5 -20t18.5 -7q11 0 17.5 7zM138 868.5q11 8.5 11 20.5q0 14 -12 21t-29 7v72h4q56 0 84.5 -23t28.5 -60q0 -51 -55 -70v-21h-61l-1 42q19 3 30 11.5z" />
    <glyph glyph-name="uni1EDF" unicode="&#x1edf;" horiz-adv-x="318" vert-adv-y="1170" 
d="M57.5 23.5q-32.5 33.5 -32.5 89.5v324q0 56 31 89.5t84 33.5q16 0 36 -4q11 -3 21 -3q16 0 27 11t11 32q0 32 -13 73h81q12 -36 12 -71q0 -37 -16.5 -62.5t-47.5 -36.5q13 -26 13 -62v-324q0 -56 -32.5 -89.5t-86.5 -33.5q-55 0 -87.5 33.5zM126.5 85q6.5 -7 18.5 -7
q11 0 17.5 7.5t6.5 20.5v338q0 14 -6.5 21t-17.5 7q-25 0 -25 -28v-338q0 -14 6.5 -21zM116 668.5q11 8.5 11 20.5q0 14 -12 21t-29 7v72h4q56 0 84.5 -23t28.5 -60q0 -51 -56 -70v-21h-61v42q19 3 30 11.5z" />
    <glyph glyph-name="uni1EE0" unicode="&#x1ee0;" horiz-adv-x="310" vert-adv-y="1170" 
d="M61 22q-33 32 -33 83v540q0 50 32.5 82.5t83.5 32.5q16 0 36 -4q12 -3 21 -3q18 0 26 12.5t8 38.5q0 13 -3 29q-18 -11 -44 -11q-17 0 -30.5 8.5t-28.5 23.5q-18 18 -28 18t-16 -11t-6 -31h-66q-3 58 18 89.5t64 31.5q17 0 30.5 -8.5t28.5 -23.5q18 -18 28 -18t16 11
t6 31h65q3 -46 -9 -74h46q15 -40 15 -71q0 -38 -17.5 -63.5t-50.5 -35.5q15 -23 15 -54v-540q0 -51 -33 -83t-87 -32t-87 32zM165.5 85q6.5 7 6.5 20v540q0 13 -6.5 20t-17.5 7t-18 -7t-7 -20v-540q0 -13 6.5 -20t18.5 -7q11 0 17.5 7z" />
    <glyph glyph-name="uni1EE1" unicode="&#x1ee1;" horiz-adv-x="318" vert-adv-y="1170" 
d="M57.5 23.5q-32.5 33.5 -32.5 89.5v324q0 56 31 89.5t84 33.5q16 0 36 -4q11 -3 21 -3q16 0 27 11t11 32q0 32 -13 73h81q12 -36 12 -71q0 -37 -16.5 -62.5t-47.5 -36.5q13 -26 13 -62v-324q0 -56 -32.5 -89.5t-86.5 -33.5q-55 0 -87.5 33.5zM126.5 85q6.5 -7 18.5 -7
q11 0 17.5 7.5t6.5 20.5v338q0 14 -6.5 21t-17.5 7q-25 0 -25 -28v-338q0 -14 6.5 -21zM127.5 630q-9.5 8 -18.5 23q-6 9 -10.5 14t-10.5 5q-16 0 -16 -42h-51q-1 9 -1 25q0 96 57 96q16 0 25.5 -8t18.5 -23q7 -10 11.5 -14.5t10.5 -4.5q16 0 16 42h50q1 -10 1 -30
q0 -45 -13.5 -68t-43.5 -23q-16 0 -25.5 8z" />
    <glyph glyph-name="uni1EE2" unicode="&#x1ee2;" horiz-adv-x="310" vert-adv-y="1170" 
d="M61 22q-33 32 -33 83v540q0 50 32.5 82.5t83.5 32.5q16 0 36 -4q12 -3 21 -3q18 0 26 12.5t8 38.5q0 28 -12 65h83q15 -40 15 -71q0 -38 -17.5 -63.5t-50.5 -35.5q15 -23 15 -54v-540q0 -51 -33 -83t-87 -32t-87 32zM165.5 85q6.5 7 6.5 20v540q0 13 -6.5 20t-17.5 7
t-18 -7t-7 -20v-540q0 -13 6.5 -20t18.5 -7q11 0 17.5 7zM117 -124.5q-15 15.5 -15 38.5t15.5 38t38.5 15q24 0 39 -15t15 -38q0 -24 -15 -39t-39 -15t-39 15.5z" />
    <glyph glyph-name="uni1EE3" unicode="&#x1ee3;" horiz-adv-x="318" vert-adv-y="1170" 
d="M57.5 23.5q-32.5 33.5 -32.5 89.5v324q0 56 31 89.5t84 33.5q16 0 36 -4q11 -3 21 -3q16 0 27 11t11 32q0 32 -13 73h81q12 -36 12 -71q0 -37 -16.5 -62.5t-47.5 -36.5q13 -26 13 -62v-324q0 -56 -32.5 -89.5t-86.5 -33.5q-55 0 -87.5 33.5zM126.5 85q6.5 -7 18.5 -7
q11 0 17.5 7.5t6.5 20.5v338q0 14 -6.5 21t-17.5 7q-25 0 -25 -28v-338q0 -14 6.5 -21zM103 -124.5q-15 15.5 -15 38.5t15.5 38t38.5 15q24 0 39 -15t15 -38q0 -24 -15 -39t-39 -15t-39 15.5z" />
    <glyph glyph-name="uni1EE4" unicode="&#x1ee4;" horiz-adv-x="296" vert-adv-y="1170" 
d="M61 24q-33 32 -33 82v644h96v-644q0 -26 24 -26q11 0 17 6.5t6 19.5v644h97v-644q0 -50 -33 -82t-87 -32t-87 32zM109 -124.5q-15 15.5 -15 38.5t15.5 38t38.5 15q24 0 39 -15t15 -38q0 -24 -15 -39t-39 -15t-39 15.5z" />
    <glyph glyph-name="uni1EE5" unicode="&#x1ee5;" horiz-adv-x="291" vert-adv-y="1170" 
d="M25 98v452h96v-421q0 -35 22 -35q12 0 19 10t7 29v417h95v-550h-79l-11 56h-2q-8 -31 -24 -48.5t-48 -17.5q-75 0 -75 108zM107 -124.5q-15 15.5 -15 38.5t15.5 38t38.5 15q24 0 39 -15t15 -38q0 -24 -15 -39t-39 -15t-39 15.5z" />
    <glyph glyph-name="uni1EE6" unicode="&#x1ee6;" horiz-adv-x="296" vert-adv-y="1170" 
d="M61 24q-33 32 -33 82v644h96v-644q0 -26 24 -26q11 0 17 6.5t6 19.5v644h97v-644q0 -50 -33 -82t-87 -32t-87 32zM151 868.5q11 8.5 11 20.5q0 14 -12 21t-29 7v72h4q56 0 84.5 -23t28.5 -60q0 -51 -56 -70v-21h-61v42q19 3 30 11.5z" />
    <glyph glyph-name="uni1EE7" unicode="&#x1ee7;" horiz-adv-x="291" vert-adv-y="1170" 
d="M25 98v452h96v-421q0 -35 22 -35q12 0 19 10t7 29v417h95v-550h-79l-11 56h-2q-8 -31 -24 -48.5t-48 -17.5q-75 0 -75 108zM149 668.5q11 8.5 11 20.5q0 14 -12 21t-29 7v72h4q56 0 84.5 -23t28.5 -60q0 -51 -56 -70v-21h-61v42q19 3 30 11.5z" />
    <glyph glyph-name="uni1EE8" unicode="&#x1ee8;" horiz-adv-x="333" vert-adv-y="1170" 
d="M61 24q-33 32 -33 82v644h96v-644q0 -26 24 -26q11 0 17 6.5t6 19.5v644h31q29 0 43.5 13t14.5 41t-12 65h85q15 -40 15 -71q0 -41 -21 -68t-59 -37v-587q0 -50 -33 -82t-87 -32t-87 32zM146 950h110l-98 -135h-32z" />
    <glyph glyph-name="uni1EE9" unicode="&#x1ee9;" horiz-adv-x="329" vert-adv-y="1170" 
d="M25 98v452h96v-421q0 -35 22 -35q12 0 19 10t7 29v417h11q29 0 43 13t14 41q0 30 -12 65h86q14 -38 14 -71q0 -35 -16 -60.5t-45 -37.5v-500h-79l-11 56h-2q-8 -31 -24 -48.5t-48 -17.5q-75 0 -75 108zM136 750h110l-98 -135h-32z" />
    <glyph glyph-name="uni1EEA" unicode="&#x1eea;" horiz-adv-x="333" vert-adv-y="1170" 
d="M61 24q-33 32 -33 82v644h96v-644q0 -26 24 -26q11 0 17 6.5t6 19.5v644h31q29 0 43.5 13t14.5 41t-12 65h85q15 -40 15 -71q0 -41 -21 -68t-59 -37v-587q0 -50 -33 -82t-87 -32t-87 32zM37 950h110l20 -135h-32z" />
    <glyph glyph-name="uni1EEB" unicode="&#x1eeb;" horiz-adv-x="329" vert-adv-y="1170" 
d="M25 98v452h96v-421q0 -35 22 -35q12 0 19 10t7 29v417h11q29 0 43 13t14 41q0 30 -12 65h86q14 -38 14 -71q0 -35 -16 -60.5t-45 -37.5v-500h-79l-11 56h-2q-8 -31 -24 -48.5t-48 -17.5q-75 0 -75 108zM27 750h110l20 -135h-32z" />
    <glyph glyph-name="uni1EEC" unicode="&#x1eec;" horiz-adv-x="333" vert-adv-y="1170" 
d="M61 24q-33 32 -33 82v644h96v-644q0 -26 24 -26q11 0 17 6.5t6 19.5v644h31q29 0 43.5 13t14.5 41t-12 65h85q15 -40 15 -71q0 -41 -21 -68t-59 -37v-587q0 -50 -33 -82t-87 -32t-87 32zM151 868.5q11 8.5 11 20.5q0 14 -12 21t-29 7v72h4q56 0 84.5 -23t28.5 -60
q0 -51 -56 -70v-21h-61v42q19 3 30 11.5z" />
    <glyph glyph-name="uni1EED" unicode="&#x1eed;" horiz-adv-x="329" vert-adv-y="1170" 
d="M25 98v452h96v-421q0 -35 22 -35q12 0 19 10t7 29v417h11q29 0 43 13t14 41q0 30 -12 65h86q14 -38 14 -71q0 -35 -16 -60.5t-45 -37.5v-500h-79l-11 56h-2q-8 -31 -24 -48.5t-48 -17.5q-75 0 -75 108zM141 668.5q11 8.5 11 20.5q0 14 -12 21t-29 7v72h4q56 0 84.5 -23
t28.5 -60q0 -51 -56 -70v-21h-61v42q19 3 30 11.5z" />
    <glyph glyph-name="uni1EEE" unicode="&#x1eee;" horiz-adv-x="333" vert-adv-y="1170" 
d="M61 24q-33 32 -33 82v644h96v-644q0 -26 24 -26q11 0 17 6.5t6 19.5v644h31q29 0 43.5 13t14.5 41q0 20 -6 42q-21 -24 -59 -24q-17 0 -30.5 8.5t-28.5 23.5q-18 18 -28 18t-16 -11t-6 -31h-66q-3 58 18 89.5t64 31.5q17 0 30.5 -8.5t28.5 -23.5q18 -18 28 -18t16 11
t6 31h65q3 -46 -9 -74h66q15 -40 15 -71q0 -41 -21 -68t-59 -37v-587q0 -50 -33 -82t-87 -32t-87 32z" />
    <glyph glyph-name="uni1EEF" unicode="&#x1eef;" horiz-adv-x="329" vert-adv-y="1170" 
d="M25 98v452h96v-421q0 -35 22 -35q12 0 19 10t7 29v417h11q29 0 43 13t14 41q0 27 -10 60q-12 -42 -52 -42q-16 0 -25.5 8t-18.5 23q-6 9 -10.5 14t-10.5 5q-16 0 -16 -42h-51q-1 9 -1 25q0 96 57 96q16 0 25.5 -8t18.5 -23q7 -10 11.5 -14.5t10.5 -4.5q16 0 16 42h50
q1 -10 1 -29q0 -28 -4 -45h83q14 -38 14 -71q0 -35 -16 -60.5t-45 -37.5v-500h-79l-11 56h-2q-8 -31 -24 -48.5t-48 -17.5q-75 0 -75 108z" />
    <glyph glyph-name="uni1EF0" unicode="&#x1ef0;" horiz-adv-x="333" vert-adv-y="1170" 
d="M61 24q-33 32 -33 82v644h96v-644q0 -26 24 -26q11 0 17 6.5t6 19.5v644h31q29 0 43.5 13t14.5 41t-12 65h85q15 -40 15 -71q0 -41 -21 -68t-59 -37v-587q0 -50 -33 -82t-87 -32t-87 32zM109 -124.5q-15 15.5 -15 38.5t15.5 38t38.5 15q24 0 39 -15t15 -38q0 -24 -15 -39
t-39 -15t-39 15.5z" />
    <glyph glyph-name="uni1EF1" unicode="&#x1ef1;" horiz-adv-x="329" vert-adv-y="1170" 
d="M25 98v452h96v-421q0 -35 22 -35q12 0 19 10t7 29v417h11q29 0 43 13t14 41q0 30 -12 65h86q14 -38 14 -71q0 -35 -16 -60.5t-45 -37.5v-500h-79l-11 56h-2q-8 -31 -24 -48.5t-48 -17.5q-75 0 -75 108zM107 -124.5q-15 15.5 -15 38.5t15.5 38t38.5 15q24 0 39 -15t15 -38
q0 -24 -15 -39t-39 -15t-39 15.5z" />
    <glyph glyph-name="Ygrave" unicode="&#x1ef2;" horiz-adv-x="271" vert-adv-y="1170" 
d="M87 250l-80 500h96l34 -323l33 323h94l-81 -501v-249h-96v250zM24 950h110l20 -135h-32z" />
    <glyph glyph-name="ygrave" unicode="&#x1ef3;" horiz-adv-x="276" vert-adv-y="1170" 
d="M91 18l-81 532h103l24 -320h2l29 320h97l-104 -730h-95zM28 750h110l20 -135h-32z" />
    <glyph glyph-name="uni1EF4" unicode="&#x1ef4;" horiz-adv-x="271" vert-adv-y="1170" 
d="M87 250l-80 500h96l34 -323l33 323h94l-81 -501v-249h-96v250zM96 -124.5q-15 15.5 -15 38.5t15.5 38t38.5 15q24 0 39 -15t15 -38q0 -24 -15 -39t-39 -15t-39 15.5z" />
    <glyph glyph-name="uni1EF5" unicode="&#x1ef5;" horiz-adv-x="276" vert-adv-y="1170" 
d="M91 18l-81 532h103l24 -320h2l29 320h97l-104 -730h-95zM224 -124.5q-15 15.5 -15 38.5t15.5 38t38.5 15q24 0 39 -15t15 -38q0 -24 -15 -39t-39 -15t-39 15.5z" />
    <glyph glyph-name="uni1EF6" unicode="&#x1ef6;" horiz-adv-x="271" vert-adv-y="1170" 
d="M87 250l-80 500h96l34 -323l33 323h94l-81 -501v-249h-96v250zM138 868.5q11 8.5 11 20.5q0 14 -12 21t-29 7v72h4q56 0 84.5 -23t28.5 -60q0 -51 -56 -70v-21h-61v42q19 3 30 11.5z" />
    <glyph glyph-name="uni1EF7" unicode="&#x1ef7;" horiz-adv-x="276" vert-adv-y="1170" 
d="M91 18l-81 532h103l24 -320h2l29 320h97l-104 -730h-95zM142 668.5q11 8.5 11 20.5q0 14 -12 21t-29 7v72h4q56 0 84.5 -23t28.5 -60q0 -51 -56 -70v-21h-61v42q19 3 30 11.5z" />
    <glyph glyph-name="uni1EF8" unicode="&#x1ef8;" horiz-adv-x="271" vert-adv-y="1170" 
d="M87 250l-80 500h96l34 -323l33 323h94l-81 -501v-249h-96v250zM151.5 830.5q-13.5 8.5 -28.5 23.5q-18 18 -28 18t-16 -11t-6 -31h-66q-3 58 18 89.5t64 31.5q17 0 30.5 -8.5t28.5 -23.5q18 -18 28 -18t16 11t6 31h65q4 -59 -17 -90t-64 -31q-17 0 -30.5 8.5z" />
    <glyph glyph-name="uni1EF9" unicode="&#x1ef9;" horiz-adv-x="276" vert-adv-y="1170" 
d="M91 18l-81 532h103l24 -320h2l29 320h97l-104 -730h-95zM155.5 630.5q-13.5 8.5 -28.5 23.5q-18 18 -28 18t-16 -11t-6 -31h-66q-3 58 18 89.5t64 31.5q17 0 30.5 -8.5t28.5 -23.5q18 -18 28 -18t16 11t6 31h65q4 -59 -17 -90t-64 -31q-17 0 -30.5 8.5z" />
    <glyph glyph-name="uni2000" unicode="&#x2000;" horiz-adv-x="513" vert-adv-y="1170" 
 />
    <glyph glyph-name="uni2001" unicode="&#x2001;" horiz-adv-x="1013" vert-adv-y="1170" 
 />
    <glyph glyph-name="uni2002" unicode="&#x2002;" horiz-adv-x="513" vert-adv-y="1170" 
 />
    <glyph glyph-name="uni2003" unicode="&#x2003;" horiz-adv-x="1013" vert-adv-y="1170" 
 />
    <glyph glyph-name="uni2004" unicode="&#x2004;" horiz-adv-x="346" vert-adv-y="1170" 
 />
    <glyph glyph-name="uni2005" unicode="&#x2005;" horiz-adv-x="263" vert-adv-y="1170" 
 />
    <glyph glyph-name="uni2006" unicode="&#x2006;" horiz-adv-x="180" vert-adv-y="1170" 
 />
    <glyph glyph-name="uni2007" unicode="&#x2007;" horiz-adv-x="295" vert-adv-y="1170" 
 />
    <glyph glyph-name="uni2008" unicode="&#x2008;" horiz-adv-x="157" vert-adv-y="1170" 
 />
    <glyph glyph-name="uni2009" unicode="&#x2009;" horiz-adv-x="213" vert-adv-y="1170" 
 />
    <glyph glyph-name="uni200A" unicode="&#x200a;" horiz-adv-x="156" vert-adv-y="1170" 
 />
    <glyph glyph-name="uni200B" unicode="&#x200b;" horiz-adv-x="13" vert-adv-y="1170" 
 />
    <glyph glyph-name="uni2011" unicode="&#x2011;" horiz-adv-x="190" vert-adv-y="1170" 
d="M22 361h160v-92h-160v92z" />
    <glyph glyph-name="endash" unicode="&#x2013;" horiz-adv-x="243" vert-adv-y="1170" 
d="M22 361h200v-92h-200v92z" />
    <glyph glyph-name="emdash" unicode="&#x2014;" horiz-adv-x="343" vert-adv-y="1170" 
d="M22 361h300v-92h-300v92z" />
    <glyph glyph-name="quoteleft" unicode="&#x2018;" horiz-adv-x="158" vert-adv-y="1170" 
d="M32 624l51 137l40 -15l-37 -104q20 -2 33 -17t13 -36q0 -23 -15.5 -38t-38.5 -15t-38.5 15t-15.5 38q0 14 8 35z" />
    <glyph glyph-name="quoteright" unicode="&#x2019;" horiz-adv-x="158" vert-adv-y="1170" 
d="M126 673l-51 -138l-40 15l37 104q-20 2 -33 17t-13 36q0 23 15.5 38t38.5 15t38.5 -15t15.5 -38q0 -14 -8 -34z" />
    <glyph glyph-name="quotesinglbase" unicode="&#x201a;" horiz-adv-x="144" vert-adv-y="1170" 
d="M125 13l-51 -137l-40 15l37 103q-22 3 -34 17.5t-12 35.5q0 23 15.5 38t38.5 15t38.5 -15t15.5 -38q0 -13 -8 -34z" />
    <glyph glyph-name="quotedblleft" unicode="&#x201c;" horiz-adv-x="277" vert-adv-y="1170" 
d="M32 624l51 137l40 -15l-37 -104q20 -2 33 -17t13 -36q0 -23 -15.5 -38t-38.5 -15t-38.5 15t-15.5 38q0 14 8 35zM164 624l51 137l40 -15l-37 -104q20 -2 33 -17t13 -36q0 -23 -15.5 -38t-38.5 -15t-38.5 15t-15.5 38q0 14 8 35z" />
    <glyph glyph-name="quotedblright" unicode="&#x201d;" horiz-adv-x="277" vert-adv-y="1170" 
d="M258 673l-51 -138l-40 15l37 104q-20 2 -33 17t-13 36q0 23 15.5 38t38.5 15t38.5 -15t15.5 -38q0 -14 -8 -34zM126 673l-51 -138l-40 15l37 104q-20 2 -33 17t-13 36q0 23 15.5 38t38.5 15t38.5 -15t15.5 -38q0 -14 -8 -34z" />
    <glyph glyph-name="quotedblbase" unicode="&#x201e;" horiz-adv-x="276" vert-adv-y="1170" 
d="M257 13l-51 -137l-40 15l37 103q-22 3 -34 17.5t-12 35.5q0 23 15.5 38t38.5 15t38.5 -15t15.5 -38q0 -13 -8 -34zM125 13l-51 -137l-40 15l37 103q-22 3 -34 17.5t-12 35.5q0 23 15.5 38t38.5 15t38.5 -15t15.5 -38q0 -13 -8 -34z" />
    <glyph glyph-name="dagger" unicode="&#x2020;" horiz-adv-x="292" vert-adv-y="1170" 
d="M98 472h-83v89h83v189h96v-189h83v-89h-83v-372h-96v372z" />
    <glyph glyph-name="daggerdbl" unicode="&#x2021;" horiz-adv-x="322" vert-adv-y="1170" 
d="M113 288h-98v89h292v-89h-98v-196h-96v196zM15 559h98v191h96v-191h98v-89h-292v89z" />
    <glyph glyph-name="bullet" unicode="&#x2022;" horiz-adv-x="184" vert-adv-y="1170" 
d="M41.5 244.5q-19.5 19.5 -19.5 50.5q0 30 20 49.5t50 19.5q31 0 50.5 -19.5t19.5 -49.5q0 -32 -19 -51t-51 -19q-31 0 -50.5 19.5z" />
    <glyph glyph-name="ellipsis" unicode="&#x2026;" horiz-adv-x="403" vert-adv-y="1170" 
d="M299.5 8.5q-15.5 15.5 -15.5 38.5t15.5 38t38.5 15q24 0 39 -15t15 -38q0 -24 -15 -39t-39 -15q-23 0 -38.5 15.5zM170.5 8.5q-15.5 15.5 -15.5 38.5t15.5 38t38.5 15q24 0 39 -15t15 -38q0 -24 -15 -39t-39 -15q-23 0 -38.5 15.5zM40.5 8.5q-15.5 15.5 -15.5 38.5
t15.5 38t38.5 15q24 0 39 -15t15 -38q0 -24 -15 -39t-39 -15q-23 0 -38.5 15.5z" />
    <glyph glyph-name="uni202F" unicode="&#x202f;" horiz-adv-x="96" vert-adv-y="1170" 
 />
    <glyph glyph-name="perthousand" unicode="&#x2030;" horiz-adv-x="724" vert-adv-y="1170" 
d="M427 750h61l-400 -750h-61zM317.5 13q-26.5 24 -26.5 60v240q0 36 26.5 60t68.5 24t68.5 -24t26.5 -60v-240q0 -36 -26.5 -60t-68.5 -24t-68.5 24zM396.5 67.5q3.5 4.5 3.5 11.5v228q0 15 -14 15q-6 0 -9.5 -4.5t-3.5 -10.5v-228q0 -16 13 -16q7 0 10.5 4.5zM57.5 373
q-26.5 24 -26.5 60v240q0 36 26.5 60t68.5 24t68.5 -24t26.5 -60v-240q0 -36 -26.5 -60t-68.5 -24t-68.5 24zM139 439v228q0 15 -13 15t-13 -15v-228q0 -16 13 -16t13 16zM534.5 13q-26.5 24 -26.5 60v240q0 36 26.5 60t68.5 24t68.5 -24t26.5 -60v-240q0 -36 -26.5 -60
t-68.5 -24t-68.5 24zM613.5 67.5q3.5 4.5 3.5 11.5v228q0 15 -14 15q-6 0 -9.5 -4.5t-3.5 -10.5v-228q0 -16 13 -16q7 0 10.5 4.5z" />
    <glyph glyph-name="minute" unicode="&#x2032;" horiz-adv-x="175" vert-adv-y="1170" 
d="M126.5 746q14.5 -15 14.5 -39q0 -16 -5.5 -31t-20.5 -44l-42 -90h-39v161q0 25 16 41.5t39 16.5t37.5 -15z" />
    <glyph glyph-name="second" unicode="&#x2033;" horiz-adv-x="296" vert-adv-y="1170" 
d="M126.5 746q14.5 -15 14.5 -39q0 -16 -5.5 -31t-20.5 -44l-42 -90h-39v161q0 25 16 41.5t39 16.5t37.5 -15zM260.5 746q14.5 -15 14.5 -39q0 -16 -5.5 -31t-20.5 -44l-42 -90h-39v161q0 25 16 41.5t39 16.5t37.5 -15z" />
    <glyph glyph-name="guilsinglleft" unicode="&#x2039;" horiz-adv-x="224" vert-adv-y="1170" 
d="M14 274l85 191h107l-86 -191l86 -191h-107z" />
    <glyph glyph-name="guilsinglright" unicode="&#x203a;" horiz-adv-x="224" vert-adv-y="1170" 
d="M104 276l-86 191h106l85 -191l-85 -191h-106z" />
    <glyph glyph-name="fraction" unicode="&#x2044;" horiz-adv-x="137" vert-adv-y="1170" 
d="M77 750h84l-100 -750h-84z" />
    <glyph glyph-name="uni2053" unicode="&#x2053;" horiz-adv-x="319" vert-adv-y="1170" 
d="M179.5 239q-14.5 8 -32.5 23q-12 10 -19.5 14.5t-14.5 4.5q-11 0 -18 -11.5t-7 -30.5h-66q-3 68 19 102t66 34q18 0 32.5 -8t32.5 -23q9 -7 18 -13t16 -6q11 0 18 11.5t7 30.5h65q7 -136 -85 -136q-17 0 -31.5 8z" />
    <glyph glyph-name="uni205F" unicode="&#x205f;" horiz-adv-x="235" vert-adv-y="1170" 
 />
    <glyph glyph-name="uni2070" unicode="&#x2070;" horiz-adv-x="244" vert-adv-y="1170" 
d="M55 471.5q-25 24.5 -25 64.5v331q0 40 25 64.5t67 24.5q41 0 66 -24.5t25 -64.5v-331q0 -40 -25 -64.5t-66 -24.5q-42 0 -67 24.5zM109.5 523q4.5 -5 12.5 -5q7 0 11.5 5.5t4.5 13.5v329q0 9 -5 14t-11 5q-17 0 -17 -19v-329q0 -9 4.5 -14z" />
    <glyph glyph-name="uni2074" unicode="&#x2074;" horiz-adv-x="232" vert-adv-y="1170" 
d="M123 549h-105v63l41 337h76l-39 -331h27v81h75v-81h23v-69h-23v-95h-75v95z" />
    <glyph glyph-name="uni2075" unicode="&#x2075;" horiz-adv-x="242" vert-adv-y="1170" 
d="M54.5 472q-27.5 23 -27.5 56v76l77 7v-74q0 -17 15 -17q8 0 12.5 4.5t4.5 12.5v165q0 7 -5 11.5t-11 4.5q-7 0 -12 -4.5t-5 -11.5v-33h-75v42l9 239h159v-71h-93l-4 -109q16 14 36 14q32 0 55 -21t23 -57v-178q0 -34 -27.5 -56.5t-66.5 -22.5q-37 0 -64.5 23z" />
    <glyph glyph-name="uni2076" unicode="&#x2076;" horiz-adv-x="242" vert-adv-y="1170" 
d="M54.5 469.5q-26.5 22.5 -26.5 57.5v344q0 37 26.5 61t67.5 24q40 0 66.5 -25t26.5 -62v-64l-77 -7v70q0 7 -4.5 12t-11.5 5t-12 -5t-5 -12v-129q16 13 35 13q31 0 53 -20.5t22 -56.5v-148q0 -35 -26.5 -57.5t-67.5 -22.5q-40 0 -66.5 22.5zM132.5 522.5q4.5 4.5 4.5 12.5
v128q0 8 -4.5 12.5t-11.5 4.5t-11.5 -4.5t-4.5 -12.5v-128q0 -8 4.5 -12.5t11.5 -4.5t11.5 4.5z" />
    <glyph glyph-name="uni2077" unicode="&#x2077;" horiz-adv-x="239" vert-adv-y="1170" 
d="M117 879h-82v71h158v-56l-74 -440h-74z" />
    <glyph glyph-name="uni2078" unicode="&#x2078;" horiz-adv-x="241" vert-adv-y="1170" 
d="M54 471.5q-27 24.5 -27 64.5v106q0 25 7.5 40.5t28.5 29.5q-22 14 -28.5 30.5t-6.5 38.5v86q0 40 27 64.5t66 24.5t66 -24.5t27 -64.5v-86q0 -23 -7 -39.5t-28 -30.5q20 -13 28 -29t8 -40v-106q0 -40 -27 -64.5t-67 -24.5t-67 24.5zM133.5 522.5q4.5 5.5 4.5 13.5v119
q0 10 -4.5 16t-12.5 6t-12.5 -6t-4.5 -16v-119q0 -8 4.5 -13.5t12.5 -5.5t12.5 5.5zM137 764v104q0 8 -4.5 13t-11.5 5t-11.5 -5t-4.5 -13v-104q0 -21 16 -21t16 21z" />
    <glyph glyph-name="uni2079" unicode="&#x2079;" horiz-adv-x="242" vert-adv-y="1170" 
d="M187.5 933.5q26.5 -22.5 26.5 -57.5v-344q0 -37 -26.5 -61t-67.5 -24q-40 0 -66.5 25t-26.5 62v64l77 7v-70q0 -7 4.5 -12t11.5 -5t12 5t5 12v129q-16 -13 -35 -13q-31 0 -53 20.5t-22 56.5v148q0 35 26.5 57.5t67.5 22.5q40 0 66.5 -22.5zM109.5 880.5
q-4.5 -4.5 -4.5 -12.5v-128q0 -8 4.5 -12.5t11.5 -4.5t11.5 4.5t4.5 12.5v128q0 8 -4.5 12.5t-11.5 4.5t-11.5 -4.5z" />
    <glyph glyph-name="uni2080" unicode="&#x2080;" horiz-adv-x="244" vert-adv-y="1170" 
d="M55 -170.5q-25 24.5 -25 64.5v331q0 40 25 64.5t67 24.5q41 0 66 -24.5t25 -64.5v-331q0 -40 -25 -64.5t-66 -24.5q-42 0 -67 24.5zM109.5 -119q4.5 -5 12.5 -5q7 0 11.5 5.5t4.5 13.5v329q0 9 -5 14t-11 5q-17 0 -17 -19v-329q0 -9 4.5 -14z" />
    <glyph glyph-name="uni2081" unicode="&#x2081;" horiz-adv-x="206" vert-adv-y="1170" 
d="M84 239h-47v69h123v-496h-76v427z" />
    <glyph glyph-name="uni2082" unicode="&#x2082;" horiz-adv-x="241" vert-adv-y="1170" 
d="M39.5 2.5q8.5 19.5 16 28.5t33.5 36q12 12 23 24t17 24t6 28v88q0 6 -4 9.5t-10 3.5t-10 -3.5t-4 -9.5v-82l-77 6v79q0 34 25.5 57t63.5 23q40 0 66.5 -23t26.5 -57v-98q0 -33 -10.5 -52t-32.5 -43l-14 -15q-29 -34 -37.5 -48t-8.5 -39v-57h103v-70h-181v144
q0 27 8.5 46.5z" />
    <glyph glyph-name="uni2083" unicode="&#x2083;" horiz-adv-x="235" vert-adv-y="1170" 
d="M50 -170q-26 25 -26 63v71l77 6v-76q0 -8 4.5 -13t12.5 -5t13 5t5 13v127q0 7 -6 12.5t-14 5.5h-52v54l61 144h-95v71h175v-58l-64 -148q36 -2 54 -25t18 -58v-126q0 -38 -26 -63t-69 -25q-42 0 -68 25z" />
    <glyph glyph-name="uni2084" unicode="&#x2084;" horiz-adv-x="232" vert-adv-y="1170" 
d="M123 -93h-105v63l41 337h76l-39 -331h27v81h75v-81h23v-69h-23v-95h-75v95z" />
    <glyph glyph-name="uni2085" unicode="&#x2085;" horiz-adv-x="242" vert-adv-y="1170" 
d="M54.5 -170q-27.5 23 -27.5 56v76l77 7v-74q0 -17 15 -17q8 0 12.5 4.5t4.5 12.5v165q0 7 -5 11.5t-11 4.5q-7 0 -12 -4.5t-5 -11.5v-33h-75v42l9 239h159v-71h-93l-4 -109q16 14 36 14q32 0 55 -21t23 -57v-178q0 -34 -27.5 -56.5t-66.5 -22.5q-37 0 -64.5 23z" />
    <glyph glyph-name="uni2086" unicode="&#x2086;" horiz-adv-x="242" vert-adv-y="1170" 
d="M54.5 -172.5q-26.5 22.5 -26.5 57.5v344q0 37 26.5 61t67.5 24q40 0 66.5 -25t26.5 -62v-64l-77 -7v70q0 7 -4.5 12t-11.5 5t-12 -5t-5 -12v-129q16 13 35 13q31 0 53 -20.5t22 -56.5v-148q0 -35 -26.5 -57.5t-67.5 -22.5q-40 0 -66.5 22.5zM132.5 -119.5
q4.5 4.5 4.5 12.5v128q0 8 -4.5 12.5t-11.5 4.5t-11.5 -4.5t-4.5 -12.5v-128q0 -8 4.5 -12.5t11.5 -4.5t11.5 4.5z" />
    <glyph glyph-name="uni2087" unicode="&#x2087;" horiz-adv-x="239" vert-adv-y="1170" 
d="M117 237h-82v71h158v-56l-74 -440h-74z" />
    <glyph glyph-name="uni2088" unicode="&#x2088;" horiz-adv-x="241" vert-adv-y="1170" 
d="M54 -170.5q-27 24.5 -27 64.5v106q0 25 7.5 40.5t28.5 29.5q-22 14 -28.5 30.5t-6.5 38.5v86q0 40 27 64.5t66 24.5t66 -24.5t27 -64.5v-86q0 -23 -7 -39.5t-28 -30.5q20 -13 28 -29t8 -40v-106q0 -40 -27 -64.5t-67 -24.5t-67 24.5zM133.5 -119.5q4.5 5.5 4.5 13.5v119
q0 10 -4.5 16t-12.5 6t-12.5 -6t-4.5 -16v-119q0 -8 4.5 -13.5t12.5 -5.5t12.5 5.5zM137 122v104q0 8 -4.5 13t-11.5 5t-11.5 -5t-4.5 -13v-104q0 -21 16 -21t16 21z" />
    <glyph glyph-name="uni2089" unicode="&#x2089;" horiz-adv-x="242" vert-adv-y="1170" 
d="M187.5 291.5q26.5 -22.5 26.5 -57.5v-344q0 -37 -26.5 -61t-67.5 -24q-40 0 -66.5 25t-26.5 62v64l77 7v-70q0 -7 4.5 -12t11.5 -5t12 5t5 12v129q-16 -13 -35 -13q-31 0 -53 20.5t-22 56.5v148q0 35 26.5 57.5t67.5 22.5q40 0 66.5 -22.5zM109.5 238.5
q-4.5 -4.5 -4.5 -12.5v-128q0 -8 4.5 -12.5t11.5 -4.5t11.5 4.5t4.5 12.5v128q0 8 -4.5 12.5t-11.5 4.5t-11.5 -4.5z" />
    <glyph glyph-name="colonmonetary" unicode="&#x20a1;" horiz-adv-x="364" vert-adv-y="1170" 
d="M137 -6l-9 -36l-47 11l12 46q-12 10 -20 21l-15 -58l-47 11l41 159v497q0 51 33.5 83t87.5 32q19 0 36 -5l11 42l47 -11l-14 -53q13 -11 20 -21l17 65l47 -11l-44 -170v-146h-38l-34 -134h72v-211q0 -50 -33.5 -82.5t-86.5 -32.5q-20 0 -36 4zM173 78q11 0 17.5 7t6.5 20
v120l-37 -144q6 -3 13 -3zM205 450h-8v65l-49 -189v-98zM187 668q-6 4 -14 4q-12 0 -18.5 -7t-6.5 -20v-126z" />
    <glyph glyph-name="dong" unicode="&#x20ab;" horiz-adv-x="310" vert-adv-y="1170" 
d="M44.5 172.5q-19.5 30.5 -19.5 84.5v180q0 56 18 89.5t55 33.5q31 0 44 -14.5t24 -47.5h3v106h-72v83h72v63h95v-63h21v-83h-21v-452h-78l-12 56h-2q-11 -35 -24 -50.5t-43 -15.5q-41 0 -60.5 30.5zM25 83h260v-83h-260v83zM162 261.5q7 10.5 7 29.5v119q0 20 -7 30.5
t-18 10.5q-24 0 -24 -39v-123q0 -38 24 -38q11 0 18 10.5z" />
    <glyph glyph-name="Euro" unicode="&#x20ac;" horiz-adv-x="297" vert-adv-y="1170" 
d="M60.5 22q-33.5 32 -33.5 83v170h-20v92h20v36h-20v93h20v149q0 51 33.5 83t87.5 32t87.5 -32t33.5 -83v-96l-97 -9v105q0 26 -24 26t-24 -26v-149h128v-93h-128v-36h128v-92h-128v-170q0 -26 24 -26t24 26v123l97 -9v-114q0 -51 -33.5 -83t-87.5 -32t-87.5 32z" />
    <glyph glyph-name="uni20B1" unicode="&#x20b1;" horiz-adv-x="363" vert-adv-y="1170" 
d="M62 366h-51v78h51v119h-51v77h51v110h105q68 0 99.5 -25t38.5 -85h47v-77h-45v-119h45v-78h-50q-10 -51 -42.5 -74.5t-91.5 -23.5h-10v-268h-96v366zM201.5 371q8.5 14 8.5 44v181q0 35 -8.5 50t-28.5 15h-15v-304h15q20 0 28.5 14z" />
    <glyph glyph-name="uni20B2" unicode="&#x20b2;" horiz-adv-x="294" vert-adv-y="1170" 
d="M47.5 38.5q-19.5 28.5 -19.5 66.5v540q0 39 19 67t54 40v108h91v-107q35 -11 56 -40t21 -68v-157l-97 -8v165q0 26 -24 26q-11 0 -17.5 -7t-6.5 -19v-540q0 -26 24 -26t24 26v194h-19v90h116v-284q0 -39 -21 -68t-56 -40v-107h-91v108q-34 12 -53.5 40.5z" />
    <glyph glyph-name="uni20BA" unicode="&#x20ba;" horiz-adv-x="318" vert-adv-y="1170" 
d="M57 301l-46 -17v92l46 16v61l-46 -16v91l46 17v205h96v-172l72 25v-91l-72 -26v-60l72 25v-92l-72 -25v-245h24q11 0 17.5 7t6.5 20v182l96 -9v-174q0 -51 -33 -83t-87 -32h-120v301z" />
    <glyph glyph-name="uni20BD" unicode="&#x20bd;" horiz-adv-x="335" vert-adv-y="1170" 
d="M10 357h56v393h104q55 0 85 -16t42.5 -51t12.5 -96v-156q0 -89 -31.5 -126t-106.5 -37h-162v89zM66 138h-56v89h249v-89h-97v-138h-96v138zM205 371q9 14 9 44v181q0 35 -9 50t-29 15h-14v-304h14q20 0 29 14z" />
    <glyph glyph-name="uni20BF" unicode="&#x20bf;" horiz-adv-x="299" vert-adv-y="1170" 
d="M69 0h-41v750h41v110h52v-110h35v110h52v-121q30 -14 47.5 -43t17.5 -68v-141q0 -54 -34 -83q17 -14 26 -35.5t9 -48.5v-198q0 -40 -17.5 -69t-48.5 -42v-121h-52v110h-35v-110h-52v110zM171 95.5q6 6.5 6 19.5v218q0 26 -23 26h-31v-270h31q11 0 17 6.5zM170 454
q6 6 6 20v161q0 26 -24 26h-29v-213h29q12 0 18 6z" />
    <glyph glyph-name="uni2116" unicode="&#x2116;" horiz-adv-x="505" vert-adv-y="1170" 
d="M28 750h76l91 -420v420h81v-750h-76l-91 421v-421h-81v750zM372 262h-52v44h150v-44h-52v-48h-46v48zM330.5 362q-24.5 25 -24.5 66v241q0 43 24.5 67.5t65.5 24.5q39 0 63.5 -25t24.5 -67v-241q0 -42 -24.5 -66.5t-63.5 -24.5q-41 0 -65.5 25zM408.5 407.5
q4.5 5.5 4.5 15.5v251q0 10 -4.5 15.5t-12.5 5.5q-9 0 -14 -5.5t-5 -15.5v-251q0 -21 19 -21q8 0 12.5 5.5z" />
    <glyph glyph-name="uni2117" unicode="&#x2117;" horiz-adv-x="408" vert-adv-y="1170" 
d="M112 12.5q-40 22.5 -62 62t-22 89.5v422q0 77 48.5 125.5t127.5 48.5q52 0 92 -22.5t62 -62t22 -89.5v-422q0 -50 -22 -89.5t-62 -62t-92 -22.5t-92 22.5zM305 65q37 39 37 101v417q0 63 -37.5 102t-100.5 39q-64 0 -101.5 -39t-37.5 -102v-417q0 -62 37.5 -101
t101.5 -39t101 39zM106 672h86q42 0 66.5 -11t36 -38.5t11.5 -78.5v-126q0 -65 -23.5 -96.5t-87.5 -31.5h-8v-218h-81v600zM217.5 374q6.5 9 6.5 30v148q0 22 -6 33.5t-21 11.5h-10v-232h10q14 0 20.5 9z" />
    <glyph glyph-name="trademark" unicode="&#x2122;" horiz-adv-x="455" vert-adv-y="1170" 
d="M191 750h77l46 -267l45 267h77v-495h-69v210l-36 -210h-34l-38 209v-209h-68v495zM57 676h-38v74h153v-74h-36v-421h-79v421z" />
    <glyph glyph-name="estimated" unicode="&#x212e;" horiz-adv-x="911" vert-adv-y="1170" 
d="M266 27q-83 41 -129.5 117t-46.5 176q0 98 46.5 174t130 118.5t189.5 42.5q107 0 188 -40.5t127 -117.5t51 -185h-582q-8 0 -11.5 -3.5t-3.5 -14.5v-164q0 -19 30.5 -47.5t83.5 -49.5t117 -21q67 0 128.5 29.5t102.5 77.5h68q-65 -73 -131 -103t-168 -30q-107 0 -190 41z
M683 334.5q3 3.5 3 11.5v162q0 25 -36 54t-90.5 48.5t-104.5 19.5q-61 0 -113.5 -21.5t-84.5 -50t-32 -44.5v-175q0 -8 15 -8h430q10 0 13 3.5z" />
    <glyph glyph-name="oneeighth" unicode="&#x215b;" horiz-adv-x="511" vert-adv-y="1170" 
d="M76 688h-43v62h111v-446h-68v384zM245 750h84l-100 -750h-84zM342.5 15.5q-24.5 22.5 -24.5 57.5v96q0 22 7 36.5t26 26.5q-20 12 -26 27t-6 35v77q0 36 24.5 58t59.5 22t59.5 -22t24.5 -58v-77q0 -20 -6.5 -35.5t-25.5 -27.5q18 -12 25.5 -26t7.5 -36v-96
q0 -36 -24.5 -58t-60.5 -22t-60.5 22.5zM414 61q4 5 4 12v108q0 9 -4 14t-11 5t-11 -5t-4 -14v-108q0 -7 4 -12t11 -5t11 5zM417 279v93q0 7 -4 11.5t-10 4.5q-7 0 -10.5 -4.5t-3.5 -11.5v-93q0 -19 14 -19t14 19z" />
    <glyph glyph-name="threeeighths" unicode="&#x215c;" horiz-adv-x="546" vert-adv-y="1170" 
d="M45 320q-23 23 -23 57v63l69 6v-69q0 -7 4 -11.5t11 -4.5t11.5 4.5t4.5 11.5v115q0 6 -5.5 11t-12.5 5h-46v49l55 129h-86v64h158v-52l-58 -133q33 -2 49 -22.5t16 -52.5v-113q0 -34 -24 -57t-62 -23t-61 23zM280 750h84l-100 -750h-84zM377.5 15.5
q-24.5 22.5 -24.5 57.5v96q0 22 7 36.5t26 26.5q-20 12 -26 27t-6 35v77q0 36 24.5 58t59.5 22t59.5 -22t24.5 -58v-77q0 -20 -6.5 -35.5t-25.5 -27.5q18 -12 25.5 -26t7.5 -36v-96q0 -36 -24.5 -58t-60.5 -22t-60.5 22.5zM449 61q4 5 4 12v108q0 9 -4 14t-11 5t-11 -5
t-4 -14v-108q0 -7 4 -12t11 -5t11 5zM452 279v93q0 7 -4 11.5t-10 4.5q-7 0 -10.5 -4.5t-3.5 -11.5v-93q0 -19 14 -19t14 19z" />
    <glyph glyph-name="fiveeighths" unicode="&#x215d;" horiz-adv-x="549" vert-adv-y="1170" 
d="M49 319.5q-25 20.5 -25 50.5v69l70 6v-67q0 -15 13 -15q15 0 15 15v149q0 6 -4.5 10t-9.5 4q-7 0 -11 -4t-4 -10v-30h-68v38l8 215h143v-64h-83l-4 -98q15 13 33 13q29 0 49.5 -19.5t20.5 -51.5v-160q0 -30 -25 -50.5t-60 -20.5q-33 0 -58 20.5zM283 750h84l-100 -750
h-84zM380.5 15.5q-24.5 22.5 -24.5 57.5v96q0 22 7 36.5t26 26.5q-20 12 -26 27t-6 35v77q0 36 24.5 58t59.5 22t59.5 -22t24.5 -58v-77q0 -20 -6.5 -35.5t-25.5 -27.5q18 -12 25.5 -26t7.5 -36v-96q0 -36 -24.5 -58t-60.5 -22t-60.5 22.5zM452 61q4 5 4 12v108q0 9 -4 14
t-11 5t-11 -5t-4 -14v-108q0 -7 4 -12t11 -5t11 5zM455 279v93q0 7 -4 11.5t-10 4.5q-7 0 -10.5 -4.5t-3.5 -11.5v-93q0 -19 14 -19t14 19z" />
    <glyph glyph-name="seveneighths" unicode="&#x215e;" horiz-adv-x="509" vert-adv-y="1170" 
d="M105 686h-73v64h142v-50l-67 -396h-66zM243 750h84l-100 -750h-84zM340.5 15.5q-24.5 22.5 -24.5 57.5v96q0 22 7 36.5t26 26.5q-20 12 -26 27t-6 35v77q0 36 24.5 58t59.5 22t59.5 -22t24.5 -58v-77q0 -20 -6.5 -35.5t-25.5 -27.5q18 -12 25.5 -26t7.5 -36v-96
q0 -36 -24.5 -58t-60.5 -22t-60.5 22.5zM412 61q4 5 4 12v108q0 9 -4 14t-11 5t-11 -5t-4 -14v-108q0 -7 4 -12t11 -5t11 5zM415 279v93q0 7 -4 11.5t-10 4.5q-7 0 -10.5 -4.5t-3.5 -11.5v-93q0 -19 14 -19t14 19z" />
    <glyph glyph-name="arrowleft" unicode="&#x2190;" horiz-adv-x="808" vert-adv-y="1170" 
d="M22 359l123 126h112l-80 -81h610v-89h-610l80 -81h-112z" />
    <glyph glyph-name="arrowup" unicode="&#x2191;" horiz-adv-x="304" vert-adv-y="1170" 
d="M108 609l-81 -80v112l125 124l125 -124v-112l-81 80v-609h-88v609z" />
    <glyph glyph-name="arrowright" unicode="&#x2192;" horiz-adv-x="808" vert-adv-y="1170" 
d="M631 315h-609v89h609l-80 81h112l124 -126l-124 -125h-112z" />
    <glyph glyph-name="arrowdown" unicode="&#x2193;" horiz-adv-x="304" vert-adv-y="1170" 
d="M27 109v112l81 -80v609h88v-609l81 80v-112l-125 -124z" />
    <glyph glyph-name="arrowboth" unicode="&#x2194;" horiz-adv-x="671" vert-adv-y="1170" 
d="M22 359l123 126h112l-80 -81h317l-80 81h112l124 -126l-124 -125h-112l80 81h-317l80 -81h-112z" />
    <glyph glyph-name="arrowupdn" unicode="&#x2195;" horiz-adv-x="304" vert-adv-y="1170" 
d="M27 109v112l81 -80v468l-81 -80v112l125 124l125 -124v-112l-81 80v-468l81 80v-112l-125 -124z" />
    <glyph glyph-name="uni2196" unicode="&#x2196;" horiz-adv-x="616" vert-adv-y="1170" 
d="M104 513l-1 -114l-80 79l2 177l176 1l79 -80h-114l432 -431l-63 -63z" />
    <glyph glyph-name="uni2197" unicode="&#x2197;" horiz-adv-x="615" vert-adv-y="1170" 
d="M18 142l431 431h-114l79 80l177 -2l1 -175l-80 -79v114l-431 -432z" />
    <glyph glyph-name="uni2198" unicode="&#x2198;" horiz-adv-x="615" vert-adv-y="1170" 
d="M335 159l114 1l-431 431l63 62l431 -431v114l80 -79l-1 -176l-177 -2z" />
    <glyph glyph-name="uni2199" unicode="&#x2199;" horiz-adv-x="615" vert-adv-y="1170" 
d="M24 81l-1 176l80 79v-114l431 431l63 -62l-431 -431l114 -1l-80 -80z" />
    <glyph glyph-name="partialdiff" unicode="&#x2202;" horiz-adv-x="288" vert-adv-y="1170" 
d="M55.5 21q-33.5 31 -33.5 85v234q0 54 29.5 83.5t70.5 29.5q25 0 47 -20v183q0 26 -10 35t-36 9h-89v90h89q70 0 106.5 -37t36.5 -105v-502q0 -55 -34 -85.5t-89 -30.5q-54 0 -87.5 31zM162 86.5q7 6.5 7 18.5v229q0 13 -7 19.5t-18 6.5t-17.5 -7t-6.5 -19v-229
q0 -25 24 -25q11 0 18 6.5z" />
    <glyph glyph-name="emptyset" unicode="&#x2205;" horiz-adv-x="723" vert-adv-y="1170" 
d="M170 52l-64 -76l-37 30l65 77q-44 43 -68.5 103t-24.5 128q0 90 42 163.5t115 116t163 42.5q108 0 192 -60l65 76l37 -30l-65 -77q44 -44 68.5 -104t24.5 -127q0 -91 -42 -164.5t-115.5 -115.5t-164.5 -42q-107 0 -191 60zM500.5 75q61.5 36 96 99t34.5 140
q0 57 -19.5 107t-53.5 86l-356 -418q67 -50 159 -50q78 0 139.5 36zM112 207.5q19 -49.5 54 -87.5l356 419q-70 49 -161 49q-77 0 -138 -35.5t-95.5 -98t-34.5 -140.5q0 -57 19 -106.5z" />
    <glyph glyph-name="minus" unicode="&#x2212;" horiz-adv-x="293" vert-adv-y="1170" 
d="M36 432h221v-89h-221v89z" />
    <glyph glyph-name="radical" unicode="&#x221a;" horiz-adv-x="356" vert-adv-y="1170" 
d="M78 358h-63v85h146l27 -314h2l59 621h98l-94 -750h-127z" />
    <glyph glyph-name="infinity" unicode="&#x221e;" horiz-adv-x="520" vert-adv-y="1170" 
d="M46.5 297q-24.5 27 -24.5 66q0 40 24.5 66.5t64.5 26.5h86q20 0 35.5 -5.5t27.5 -22.5q13 17 28.5 22.5t35.5 5.5h86q40 0 64.5 -26.5t24.5 -66.5t-24.5 -66.5t-64.5 -26.5h-86q-21 0 -36 5.5t-28 23.5q-13 -18 -28 -23.5t-35 -5.5h-86q-40 0 -64.5 27zM229 350q6 5 6 13
q0 9 -6 13.5t-16 4.5h-96q-17 0 -17 -18t17 -18h96q10 0 16 5zM416 350q5 5 5 13t-5 13t-13 5h-95q-10 0 -16 -5t-6 -13q0 -18 22 -18h95q8 0 13 5z" />
    <glyph glyph-name="integral" unicode="&#x222b;" horiz-adv-x="262" vert-adv-y="1170" 
d="M14 86h44q24 0 24 26v526q0 51 33.5 83t87.5 32h45v-89h-45q-24 0 -24 -26v-526q0 -51 -33.5 -83t-87.5 -32h-44v89z" />
    <glyph glyph-name="approxequal" unicode="&#x2248;" horiz-adv-x="319" vert-adv-y="1170" 
d="M179.5 404q-14.5 8 -32.5 23q-12 10 -19.5 14.5t-14.5 4.5q-11 0 -18 -11.5t-7 -30.5h-66q-3 68 19 102t66 34q18 0 32.5 -8t32.5 -23q9 -7 18 -13t16 -6q11 0 18 11.5t7 30.5h65q7 -136 -85 -136q-17 0 -31.5 8zM179.5 204q-14.5 8 -32.5 23q-12 10 -19.5 14.5
t-14.5 4.5q-11 0 -18 -11.5t-7 -30.5h-66q-3 68 19 102t66 34q18 0 32.5 -8t32.5 -23q9 -7 18 -13t16 -6q11 0 18 11.5t7 30.5h65q7 -136 -85 -136q-17 0 -31.5 8z" />
    <glyph glyph-name="notequal" unicode="&#x2260;" horiz-adv-x="293" vert-adv-y="1170" 
d="M113 258h-77v89h86l8 81h-94v89h103l10 89h40l-10 -89h78v-89h-88l-7 -81h95v-89h-105l-9 -89h-40z" />
    <glyph glyph-name="lessequal" unicode="&#x2264;" horiz-adv-x="479" vert-adv-y="1170" 
d="M28 750h124v-315h305v-120h-305v-315h-124v750z" />
    <glyph glyph-name="greaterequal" unicode="&#x2265;" horiz-adv-x="479" vert-adv-y="1170" 
d="M327 315h-305v120h305v315h124v-750h-124v315z" />
    <glyph glyph-name="uni2460" unicode="&#x2460;" horiz-adv-x="553" vert-adv-y="1170" 
d="M154 23.5q-55 33.5 -86 92.5t-31 132v251q0 74 31 133.5t86 93.5t124 34t124 -34t86.5 -93.5t31.5 -133.5v-251q0 -74 -31.5 -132.5t-86.5 -92t-124 -33.5t-124 33.5zM366.5 81q39.5 25 62 69t22.5 98v251q0 56 -22.5 100.5t-62 70t-88.5 25.5t-88.5 -25.5t-62 -70.5
t-22.5 -100v-251q0 -55 22.5 -98.5t62 -68.5t88.5 -25t88.5 25zM262 554h-47v69h123v-496h-76v427z" />
    <glyph glyph-name="uni2461" unicode="&#x2461;" horiz-adv-x="528" vert-adv-y="1170" 
d="M147 23.5q-55 33.5 -86 92.5t-31 132v251q0 74 31 133.5t86 93.5t124 34t124 -34t86.5 -93.5t31.5 -133.5v-251q0 -74 -31.5 -132.5t-86.5 -92t-124 -33.5t-124 33.5zM359.5 81q39.5 25 62 69t22.5 98v251q0 56 -22.5 100.5t-62 70t-88.5 25.5t-88.5 -25.5t-62 -70.5
t-22.5 -100v-251q0 -55 22.5 -98.5t62 -68.5t88.5 -25t88.5 25zM192.5 314.5q8.5 19.5 16 28.5t33.5 36q12 12 23 24t17 24t6 28v88q0 6 -4 9.5t-10 3.5t-10 -3.5t-4 -9.5v-82l-77 6v79q0 34 25.5 57t63.5 23q40 0 66.5 -23t26.5 -57v-98q0 -33 -10.5 -52t-32.5 -43l-14 -15
q-29 -34 -37.5 -48t-8.5 -39v-57h103v-70h-181v144q0 27 8.5 46.5z" />
    <glyph glyph-name="uni2462" unicode="&#x2462;" horiz-adv-x="515" vert-adv-y="1170" 
d="M141 23.5q-55 33.5 -86 92.5t-31 132v251q0 74 31 133.5t86 93.5t124 34t124 -34t86.5 -93.5t31.5 -133.5v-251q0 -74 -31.5 -132.5t-86.5 -92t-124 -33.5t-124 33.5zM353.5 81q39.5 25 62 69t22.5 98v251q0 56 -22.5 100.5t-62 70t-88.5 25.5t-88.5 -25.5t-62 -70.5
t-22.5 -100v-251q0 -55 22.5 -98.5t62 -68.5t88.5 -25t88.5 25zM195 147q-26 25 -26 63v71l77 6v-76q0 -8 4.5 -13t12.5 -5t13 5t5 13v127q0 7 -6 12.5t-14 5.5h-52v54l61 144h-95v71h175v-58l-64 -148q36 -2 54 -25t18 -58v-126q0 -38 -26 -63t-69 -25q-42 0 -68 25z" />
    <glyph glyph-name="uni2463" unicode="&#x2463;" horiz-adv-x="498" vert-adv-y="1170" 
d="M135 23.5q-55 33.5 -86 92.5t-31 132v251q0 74 31 133.5t86 93.5t124 34t124 -34t86.5 -93.5t31.5 -133.5v-251q0 -74 -31.5 -132.5t-86.5 -92t-124 -33.5t-124 33.5zM347.5 81q39.5 25 62 69t22.5 98v251q0 56 -22.5 100.5t-62 70t-88.5 25.5t-88.5 -25.5t-62 -70.5
t-22.5 -100v-251q0 -55 22.5 -98.5t62 -68.5t88.5 -25t88.5 25zM261 223h-105v63l41 337h76l-39 -331h27v81h75v-81h23v-69h-23v-95h-75v95z" />
    <glyph glyph-name="uni2464" unicode="&#x2464;" horiz-adv-x="526" vert-adv-y="1170" 
d="M145 23.5q-55 33.5 -86 92.5t-31 132v251q0 74 31 133.5t86 93.5t124 34t124 -34t86.5 -93.5t31.5 -133.5v-251q0 -74 -31.5 -132.5t-86.5 -92t-124 -33.5t-124 33.5zM357.5 81q39.5 25 62 69t22.5 98v251q0 56 -22.5 100.5t-62 70t-88.5 25.5t-88.5 -25.5t-62 -70.5
t-22.5 -100v-251q0 -55 22.5 -98.5t62 -68.5t88.5 -25t88.5 25zM204.5 148q-27.5 23 -27.5 56v76l77 7v-74q0 -17 15 -17q8 0 12.5 4.5t4.5 12.5v165q0 7 -5 11.5t-11 4.5q-7 0 -12 -4.5t-5 -11.5v-33h-75v42l9 239h159v-71h-93l-4 -109q16 14 36 14q32 0 55 -21t23 -57
v-178q0 -34 -27.5 -56.5t-66.5 -22.5q-37 0 -64.5 23z" />
    <glyph glyph-name="uni2465" unicode="&#x2465;" horiz-adv-x="524" vert-adv-y="1170" 
d="M145 23.5q-55 33.5 -86 92.5t-31 132v251q0 74 31 133.5t86 93.5t124 34t124 -34t86.5 -93.5t31.5 -133.5v-251q0 -74 -31.5 -132.5t-86.5 -92t-124 -33.5t-124 33.5zM357.5 81q39.5 25 62 69t22.5 98v251q0 56 -22.5 100.5t-62 70t-88.5 25.5t-88.5 -25.5t-62 -70.5
t-22.5 -100v-251q0 -55 22.5 -98.5t62 -68.5t88.5 -25t88.5 25zM201.5 143.5q-26.5 22.5 -26.5 57.5v344q0 37 26.5 61t67.5 24q40 0 66.5 -25t26.5 -62v-64l-77 -7v70q0 7 -4.5 12t-11.5 5t-12 -5t-5 -12v-129q16 13 35 13q31 0 53 -20.5t22 -56.5v-148q0 -35 -26.5 -57.5
t-67.5 -22.5q-40 0 -66.5 22.5zM279.5 196.5q4.5 4.5 4.5 12.5v128q0 8 -4.5 12.5t-11.5 4.5t-11.5 -4.5t-4.5 -12.5v-128q0 -8 4.5 -12.5t11.5 -4.5t11.5 4.5z" />
    <glyph glyph-name="uni2466" unicode="&#x2466;" horiz-adv-x="551" vert-adv-y="1170" 
d="M152 23.5q-55 33.5 -86 92.5t-31 132v251q0 74 31 133.5t86 93.5t124 34t124 -34t86.5 -93.5t31.5 -133.5v-251q0 -74 -31.5 -132.5t-86.5 -92t-124 -33.5t-124 33.5zM364.5 81q39.5 25 62 69t22.5 98v251q0 56 -22.5 100.5t-62 70t-88.5 25.5t-88.5 -25.5t-62 -70.5
t-22.5 -100v-251q0 -55 22.5 -98.5t62 -68.5t88.5 -25t88.5 25zM293 552h-82v71h158v-56l-74 -440h-74z" />
    <glyph glyph-name="uni2467" unicode="&#x2467;" horiz-adv-x="523" vert-adv-y="1170" 
d="M145 23.5q-55 33.5 -86 92.5t-31 132v251q0 74 31 133.5t86 93.5t124 34t124 -34t86.5 -93.5t31.5 -133.5v-251q0 -74 -31.5 -132.5t-86.5 -92t-124 -33.5t-124 33.5zM357.5 81q39.5 25 62 69t22.5 98v251q0 56 -22.5 100.5t-62 70t-88.5 25.5t-88.5 -25.5t-62 -70.5
t-22.5 -100v-251q0 -55 22.5 -98.5t62 -68.5t88.5 -25t88.5 25zM201 145.5q-27 24.5 -27 64.5v106q0 25 7.5 40.5t28.5 29.5q-22 14 -28.5 30.5t-6.5 38.5v86q0 40 27 64.5t66 24.5t66 -24.5t27 -64.5v-86q0 -23 -7 -39.5t-28 -30.5q20 -13 28 -29t8 -40v-106
q0 -40 -27 -64.5t-67 -24.5t-67 24.5zM280.5 196.5q4.5 5.5 4.5 13.5v119q0 10 -4.5 16t-12.5 6t-12.5 -6t-4.5 -16v-119q0 -8 4.5 -13.5t12.5 -5.5t12.5 5.5zM284 438v104q0 8 -4.5 13t-11.5 5t-11.5 -5t-4.5 -13v-104q0 -21 16 -21t16 21z" />
    <glyph glyph-name="uni2468" unicode="&#x2468;" horiz-adv-x="524" vert-adv-y="1170" 
d="M144 23.5q-55 33.5 -86 92.5t-31 132v251q0 74 31 133.5t86 93.5t124 34t124 -34t86.5 -93.5t31.5 -133.5v-251q0 -74 -31.5 -132.5t-86.5 -92t-124 -33.5t-124 33.5zM356.5 81q39.5 25 62 69t22.5 98v251q0 56 -22.5 100.5t-62 70t-88.5 25.5t-88.5 -25.5t-62 -70.5
t-22.5 -100v-251q0 -55 22.5 -98.5t62 -68.5t88.5 -25t88.5 25zM334.5 607.5q26.5 -22.5 26.5 -57.5v-344q0 -37 -26.5 -61t-67.5 -24q-40 0 -66.5 25t-26.5 62v64l77 7v-70q0 -7 4.5 -12t11.5 -5t12 5t5 12v129q-16 -13 -35 -13q-31 0 -53 20.5t-22 56.5v148
q0 35 26.5 57.5t67.5 22.5q40 0 66.5 -22.5zM256.5 554.5q-4.5 -4.5 -4.5 -12.5v-128q0 -8 4.5 -12.5t11.5 -4.5t11.5 4.5t4.5 12.5v128q0 8 -4.5 12.5t-11.5 4.5t-11.5 -4.5z" />
    <glyph glyph-name="uni24EA" unicode="&#x24ea;" horiz-adv-x="530" vert-adv-y="1170" 
d="M147 23.5q-55 33.5 -86 92.5t-31 132v251q0 74 31 133.5t86 93.5t124 34t124 -34t86.5 -93.5t31.5 -133.5v-251q0 -74 -31.5 -132.5t-86.5 -92t-124 -33.5t-124 33.5zM359.5 81q39.5 25 62 69t22.5 98v251q0 56 -22.5 100.5t-62 70t-88.5 25.5t-88.5 -25.5t-62 -70.5
t-22.5 -100v-251q0 -55 22.5 -98.5t62 -68.5t88.5 -25t88.5 25zM205 145.5q-25 24.5 -25 64.5v331q0 40 25 64.5t67 24.5q41 0 66 -24.5t25 -64.5v-331q0 -40 -25 -64.5t-66 -24.5q-42 0 -67 24.5zM259.5 197q4.5 -5 12.5 -5q7 0 11.5 5.5t4.5 13.5v329q0 9 -5 14t-11 5
q-17 0 -17 -19v-329q0 -9 4.5 -14z" />
    <glyph glyph-name="uni24FF" unicode="&#x24ff;" horiz-adv-x="583" vert-adv-y="1170" 
d="M422 23.5q55 33.5 86.5 92.5t31.5 132v251q0 74 -31.5 133.5t-86.5 93.5t-124 34t-124 -34t-86 -93.5t-31 -133.5v-251q0 -74 31 -132.5t86 -92t124 -33.5t124 33.5zM231 145.5q-25 24.5 -25 64.5v331q0 40 25 64.5t67 24.5q41 0 66 -24.5t25 -64.5v-331q0 -40 -25 -64.5
t-66 -24.5q-42 0 -67 24.5zM285.5 197q4.5 -5 12.5 -5q7 0 11.5 5.5t4.5 13.5v329q0 9 -5 14t-11 5q-17 0 -17 -19v-329q0 -9 4.5 -14z" />
    <glyph glyph-name="lozenge" unicode="&#x25ca;" horiz-adv-x="283" vert-adv-y="1170" 
d="M33 369l48 381h121l47 -370l-48 -380h-120zM165 367l-22 211l-26 -194l24 -211z" />
    <glyph glyph-name="circle" unicode="&#x25cb;" horiz-adv-x="616" vert-adv-y="1170" 
d="M184 23.5q-55 33.5 -86 92.5t-31 132v251q0 74 31 133.5t86 93.5t124 34t124 -34t86.5 -93.5t31.5 -133.5v-251q0 -74 -31.5 -132.5t-86.5 -92t-124 -33.5t-124 33.5zM396.5 81q39.5 25 62 69t22.5 98v251q0 56 -22.5 100.5t-62 70t-88.5 25.5t-88.5 -25.5t-62 -70.5
t-22.5 -100v-251q0 -55 22.5 -98.5t62 -68.5t88.5 -25t88.5 25z" />
    <glyph glyph-name="uni25CF" unicode="&#x25cf;" horiz-adv-x="616" vert-adv-y="1170" 
d="M432 23.5q55 33.5 86.5 92.5t31.5 132v251q0 74 -31.5 133.5t-86.5 93.5t-124 34t-124 -34t-86 -93.5t-31 -133.5v-251q0 -74 31 -132.5t86 -92t124 -33.5t124 33.5z" />
    <glyph glyph-name="uni2776" unicode="&#x2776;" horiz-adv-x="583" vert-adv-y="1170" 
d="M422 23.5q55 33.5 86.5 92.5t31.5 132v251q0 74 -31.5 133.5t-86.5 93.5t-124 34t-124 -34t-86 -93.5t-31 -133.5v-251q0 -74 31 -132.5t86 -92t124 -33.5t124 33.5zM280 554h-47v69h123v-496h-76v427z" />
    <glyph glyph-name="uni2777" unicode="&#x2777;" horiz-adv-x="583" vert-adv-y="1170" 
d="M422 23.5q55 33.5 86.5 92.5t31.5 132v251q0 74 -31.5 133.5t-86.5 93.5t-124 34t-124 -34t-86 -93.5t-31 -133.5v-251q0 -74 31 -132.5t86 -92t124 -33.5t124 33.5zM218.5 314.5q8.5 19.5 16 28.5t33.5 36q12 12 23 24t17 24t6 28v88q0 6 -4 9.5t-10 3.5t-10 -3.5
t-4 -9.5v-82l-77 6v79q0 34 25.5 57t63.5 23q40 0 66.5 -23t26.5 -57v-98q0 -33 -10.5 -52t-32.5 -43l-14 -15q-29 -34 -37.5 -48t-8.5 -39v-57h103v-70h-181v144q0 27 8.5 46.5z" />
    <glyph glyph-name="uni2778" unicode="&#x2778;" horiz-adv-x="583" vert-adv-y="1170" 
d="M422 23.5q55 33.5 86.5 92.5t31.5 132v251q0 74 -31.5 133.5t-86.5 93.5t-124 34t-124 -34t-86 -93.5t-31 -133.5v-251q0 -74 31 -132.5t86 -92t124 -33.5t124 33.5zM228 147q-26 25 -26 63v71l77 6v-76q0 -8 4.5 -13t12.5 -5t13 5t5 13v127q0 7 -6 12.5t-14 5.5h-52v54
l61 144h-95v71h175v-58l-64 -148q36 -2 54 -25t18 -58v-126q0 -38 -26 -63t-69 -25q-42 0 -68 25z" />
    <glyph glyph-name="uni2779" unicode="&#x2779;" horiz-adv-x="583" vert-adv-y="1170" 
d="M422 23.5q55 33.5 86.5 92.5t31.5 132v251q0 74 -31.5 133.5t-86.5 93.5t-124 34t-124 -34t-86 -93.5t-31 -133.5v-251q0 -74 31 -132.5t86 -92t124 -33.5t124 33.5zM300 223h-105v63l41 337h76l-39 -331h27v81h75v-81h23v-69h-23v-95h-75v95z" />
    <glyph glyph-name="uni277A" unicode="&#x277a;" horiz-adv-x="583" vert-adv-y="1170" 
d="M422 23.5q55 33.5 86.5 92.5t31.5 132v251q0 74 -31.5 133.5t-86.5 93.5t-124 34t-124 -34t-86 -93.5t-31 -133.5v-251q0 -74 31 -132.5t86 -92t124 -33.5t124 33.5zM233.5 148q-27.5 23 -27.5 56v76l77 7v-74q0 -17 15 -17q8 0 12.5 4.5t4.5 12.5v165q0 7 -5 11.5
t-11 4.5q-7 0 -12 -4.5t-5 -11.5v-33h-75v42l9 239h159v-71h-93l-4 -109q16 14 36 14q32 0 55 -21t23 -57v-178q0 -34 -27.5 -56.5t-66.5 -22.5q-37 0 -64.5 23z" />
    <glyph glyph-name="uni277B" unicode="&#x277b;" horiz-adv-x="583" vert-adv-y="1170" 
d="M422 23.5q55 33.5 86.5 92.5t31.5 132v251q0 74 -31.5 133.5t-86.5 93.5t-124 34t-124 -34t-86 -93.5t-31 -133.5v-251q0 -74 31 -132.5t86 -92t124 -33.5t124 33.5zM230.5 143.5q-26.5 22.5 -26.5 57.5v344q0 37 26.5 61t67.5 24q40 0 66.5 -25t26.5 -62v-64l-77 -7v70
q0 7 -4.5 12t-11.5 5t-12 -5t-5 -12v-129q16 13 35 13q31 0 53 -20.5t22 -56.5v-148q0 -35 -26.5 -57.5t-67.5 -22.5q-40 0 -66.5 22.5zM308.5 196.5q4.5 4.5 4.5 12.5v128q0 8 -4.5 12.5t-11.5 4.5t-11.5 -4.5t-4.5 -12.5v-128q0 -8 4.5 -12.5t11.5 -4.5t11.5 4.5z" />
    <glyph glyph-name="uni277C" unicode="&#x277c;" horiz-adv-x="583" vert-adv-y="1170" 
d="M422 23.5q55 33.5 86.5 92.5t31.5 132v251q0 74 -31.5 133.5t-86.5 93.5t-124 34t-124 -34t-86 -93.5t-31 -133.5v-251q0 -74 31 -132.5t86 -92t124 -33.5t124 33.5zM314 552h-82v71h158v-56l-74 -440h-74z" />
    <glyph glyph-name="uni277D" unicode="&#x277d;" horiz-adv-x="583" vert-adv-y="1170" 
d="M422 23.5q55 33.5 86.5 92.5t31.5 132v251q0 74 -31.5 133.5t-86.5 93.5t-124 34t-124 -34t-86 -93.5t-31 -133.5v-251q0 -74 31 -132.5t86 -92t124 -33.5t124 33.5zM230 145.5q-27 24.5 -27 64.5v106q0 25 7.5 40.5t28.5 29.5q-22 14 -28.5 30.5t-6.5 38.5v86
q0 40 27 64.5t66 24.5t66 -24.5t27 -64.5v-86q0 -23 -7 -39.5t-28 -30.5q20 -13 28 -29t8 -40v-106q0 -40 -27 -64.5t-67 -24.5t-67 24.5zM309.5 196.5q4.5 5.5 4.5 13.5v119q0 10 -4.5 16t-12.5 6t-12.5 -6t-4.5 -16v-119q0 -8 4.5 -13.5t12.5 -5.5t12.5 5.5zM313 438v104
q0 8 -4.5 13t-11.5 5t-11.5 -5t-4.5 -13v-104q0 -21 16 -21t16 21z" />
    <glyph glyph-name="uni277E" unicode="&#x277e;" horiz-adv-x="583" vert-adv-y="1170" 
d="M422 23.5q55 33.5 86.5 92.5t31.5 132v251q0 74 -31.5 133.5t-86.5 93.5t-124 34t-124 -34t-86 -93.5t-31 -133.5v-251q0 -74 31 -132.5t86 -92t124 -33.5t124 33.5zM363.5 607.5q26.5 -22.5 26.5 -57.5v-344q0 -37 -26.5 -61t-67.5 -24q-40 0 -66.5 25t-26.5 62v64l77 7
v-70q0 -7 4.5 -12t11.5 -5t12 5t5 12v129q-16 -13 -35 -13q-31 0 -53 20.5t-22 56.5v148q0 35 26.5 57.5t67.5 22.5q40 0 66.5 -22.5zM285.5 554.5q-4.5 -4.5 -4.5 -12.5v-128q0 -8 4.5 -12.5t11.5 -4.5t11.5 4.5t4.5 12.5v128q0 8 -4.5 12.5t-11.5 4.5t-11.5 -4.5z" />
    <glyph glyph-name="uniA78B" unicode="&#xa78b;" horiz-adv-x="151" vert-adv-y="1170" 
d="M28 752h95v-507h-95v507z" />
    <glyph glyph-name="uniA78C" unicode="&#xa78c;" horiz-adv-x="150" vert-adv-y="1170" 
d="M27 752h96v-507h-96v507z" />
    <glyph glyph-name="uni004A0301" horiz-adv-x="293" vert-adv-y="1170" 
d="M58.5 24q-33.5 32 -33.5 83v180l97 9v-189q0 -26 24 -26q10 0 16.5 7t6.5 19v643h96v-643q0 -51 -33 -83t-86 -32q-54 0 -87.5 32zM216 950h110l-98 -135h-32z" />
    <glyph glyph-name="Cacute.loclPLK" horiz-adv-x="295" vert-adv-y="1170" 
d="M61 22q-33 32 -33 83v540q0 51 33 83t87 32t87 -32t33 -83v-186l-96 -9v195q0 13 -6.5 20t-17.5 7t-18 -7t-7 -20v-540q0 -13 6.5 -20t18.5 -7q11 0 17.5 7t6.5 20v211l96 -9v-202q0 -51 -33 -83t-87 -32t-87 32zM126 950h110l-78 -135h-32v135z" />
    <glyph glyph-name="Nacute.loclPLK" horiz-adv-x="304" vert-adv-y="1170" 
d="M28 750h76l91 -420v420h81v-750h-76l-91 421v-421h-81v750zM130 950h110l-78 -135h-32v135z" />
    <glyph glyph-name="Oacute.loclPLK" horiz-adv-x="295" vert-adv-y="1170" 
d="M61 22q-33 32 -33 83v540q0 51 33 83t87 32t87 -32t33 -83v-540q0 -51 -33 -83t-87 -32t-87 32zM165.5 85q6.5 7 6.5 20v540q0 13 -6.5 20t-17.5 7t-18 -7t-7 -20v-540q0 -13 6.5 -20t18.5 -7q11 0 17.5 7zM126 950h110l-78 -135h-32v135z" />
    <glyph glyph-name="Sacute.loclPLK" horiz-adv-x="282" vert-adv-y="1170" 
d="M53.5 23q-30.5 33 -30.5 91v121l95 9v-135q0 -15 6.5 -22.5t16.5 -7.5q11 0 17 8t6 21v126q0 28 -6.5 45.5t-24.5 41.5l-63 81q-27 35 -37.5 62.5t-10.5 68.5v108q0 54 32.5 86.5t87.5 32.5q54 0 85.5 -32.5t31.5 -88.5v-115l-96 -9v130q0 12 -6 19t-16 7t-16.5 -7
t-6.5 -18v-101q0 -28 6 -44t23 -38l58 -74q31 -41 42.5 -71t11.5 -75v-129q0 -58 -30.5 -91t-87.5 -33t-87.5 33zM120 950h110l-78 -135h-32v135z" />
    <glyph glyph-name="Zacute.loclPLK" horiz-adv-x="244" vert-adv-y="1170" 
d="M18 79l110 580h-110v91h208v-81l-110 -578h110v-91h-208v79zM100 950h110l-78 -135h-32v135z" />
    <glyph glyph-name="G.ss01" horiz-adv-x="295" vert-adv-y="1170" 
d="M55 22q-27 32 -27 83v540q0 51 33 83t87 32t87.5 -32t33.5 -83v-157l-97 -8v165q0 26 -24 26q-11 0 -17.5 -7t-6.5 -19v-540q0 -26 24 -26t24 26v194h-19v90h116v-389h-42l-13 33q-34 -43 -86 -43q-46 0 -73 32z" />
    <glyph glyph-name="I.ss01" horiz-adv-x="243" vert-adv-y="1170" 
d="M14 89h59v572h-59v89h214v-89h-59v-572h59v-89h-214v89z" />
    <glyph glyph-name="C.ss04" horiz-adv-x="790" vert-adv-y="1170" 
d="M204.5 40q-87.5 50 -138.5 138t-51 197t50.5 197t138.5 138t195 50q94 0 174.5 -39.5t134 -111t69.5 -162.5l-94 -17q-11 72 -50 126.5t-99.5 84.5t-134.5 30q-84 0 -149 -37.5t-101.5 -105t-36.5 -153.5q0 -87 36.5 -154t102 -104.5t148.5 -37.5q113 0 190 65t94 175
l94 -17q-16 -91 -69.5 -162t-134 -110.5t-174.5 -39.5q-107 0 -194.5 50z" />
    <glyph glyph-name="Cacute.ss04" horiz-adv-x="790" vert-adv-y="1170" 
d="M204.5 40q-87.5 50 -138.5 138t-51 197t50.5 197t138.5 138t195 50q94 0 174.5 -39.5t134 -111t69.5 -162.5l-94 -17q-11 72 -50 126.5t-99.5 84.5t-134.5 30q-84 0 -149 -37.5t-101.5 -105t-36.5 -153.5q0 -87 36.5 -154t102 -104.5t148.5 -37.5q113 0 190 65t94 175
l94 -17q-16 -91 -69.5 -162t-134 -110.5t-174.5 -39.5q-107 0 -194.5 50zM395 950h110l-98 -135h-32z" />
    <glyph glyph-name="Ccaron.ss04" horiz-adv-x="790" vert-adv-y="1170" 
d="M204.5 40q-87.5 50 -138.5 138t-51 197t50.5 197t138.5 138t195 50q94 0 174.5 -39.5t134 -111t69.5 -162.5l-94 -17q-11 72 -50 126.5t-99.5 84.5t-134.5 30q-84 0 -149 -37.5t-101.5 -105t-36.5 -153.5q0 -87 36.5 -154t102 -104.5t148.5 -37.5q113 0 190 65t94 175
l94 -17q-16 -91 -69.5 -162t-134 -110.5t-174.5 -39.5q-107 0 -194.5 50zM305 950h53l39 -66l38 66h54l-54 -135h-76z" />
    <glyph glyph-name="Ccedilla.ss04" horiz-adv-x="790" vert-adv-y="1170" 
d="M204.5 40q-87.5 50 -138.5 138t-51 197t50.5 197t138.5 138t195 50q94 0 174.5 -39.5t134 -111t69.5 -162.5l-94 -17q-11 72 -50 126.5t-99.5 84.5t-134.5 30q-84 0 -149 -37.5t-101.5 -105t-36.5 -153.5q0 -87 36.5 -154t102 -104.5t148.5 -37.5q113 0 190 65t94 175
l94 -17q-16 -91 -69.5 -162t-134 -110.5t-174.5 -39.5q-107 0 -194.5 50zM387 -65h32l-20 -135h-110z" />
    <glyph glyph-name="Ccircumflex.ss04" horiz-adv-x="790" vert-adv-y="1170" 
d="M204.5 40q-87.5 50 -138.5 138t-51 197t50.5 197t138.5 138t195 50q94 0 174.5 -39.5t134 -111t69.5 -162.5l-94 -17q-11 72 -50 126.5t-99.5 84.5t-134.5 30q-84 0 -149 -37.5t-101.5 -105t-36.5 -153.5q0 -87 36.5 -154t102 -104.5t148.5 -37.5q113 0 190 65t94 175
l94 -17q-16 -91 -69.5 -162t-134 -110.5t-174.5 -39.5q-107 0 -194.5 50zM359 950h76l54 -135h-54l-38 66l-39 -66h-53z" />
    <glyph glyph-name="Cdotaccent.ss04" horiz-adv-x="790" vert-adv-y="1170" 
d="M204.5 40q-87.5 50 -138.5 138t-51 197t50.5 197t138.5 138t195 50q94 0 174.5 -39.5t134 -111t69.5 -162.5l-94 -17q-11 72 -50 126.5t-99.5 84.5t-134.5 30q-84 0 -149 -37.5t-101.5 -105t-36.5 -153.5q0 -87 36.5 -154t102 -104.5t148.5 -37.5q113 0 190 65t94 175
l94 -17q-16 -91 -69.5 -162t-134 -110.5t-174.5 -39.5q-107 0 -194.5 50zM355 841q-17 17 -17 42q0 26 17 42.5t42 16.5q26 0 42.5 -16.5t16.5 -42.5t-16.5 -42.5t-42.5 -16.5q-25 0 -42 17z" />
    <glyph glyph-name="D.ss04" horiz-adv-x="691" vert-adv-y="1170" 
d="M28 750h266q107 0 195 -49t138 -135t50 -191t-50 -191t-137.5 -135t-195.5 -49h-266v750zM439.5 126.5q65.5 37.5 103 103t37.5 145.5t-38 145.5t-103.5 103t-144.5 37.5h-170v-572h170q80 0 145.5 37.5z" />
    <glyph glyph-name="Dcaron.ss04" horiz-adv-x="691" vert-adv-y="1170" 
d="M28 750h266q107 0 195 -49t138 -135t50 -191t-50 -191t-137.5 -135t-195.5 -49h-266v750zM439.5 126.5q65.5 37.5 103 103t37.5 145.5t-38 145.5t-103.5 103t-144.5 37.5h-170v-572h170q80 0 145.5 37.5zM202 950h53l39 -66l38 66h54l-54 -135h-76z" />
    <glyph glyph-name="Dcroat.ss04" horiz-adv-x="711" vert-adv-y="1170" 
d="M48 334h-41v83h41v333h266q107 0 195 -49t138 -135t50 -191t-50 -191t-137.5 -135t-195.5 -49h-266v334zM459.5 126.5q65.5 37.5 103 103t37.5 145.5t-38 145.5t-103.5 103t-144.5 37.5h-170v-244h143v-83h-143v-245h170q80 0 145.5 37.5z" />
    <glyph glyph-name="Eth.ss04" horiz-adv-x="711" vert-adv-y="1170" 
d="M48 334h-41v83h41v333h266q107 0 195 -49t138 -135t50 -191t-50 -191t-137.5 -135t-195.5 -49h-266v334zM459.5 126.5q65.5 37.5 103 103t37.5 145.5t-38 145.5t-103.5 103t-144.5 37.5h-170v-244h143v-83h-143v-245h170q80 0 145.5 37.5z" />
    <glyph glyph-name="G.ss04" horiz-adv-x="794" vert-adv-y="1170" 
d="M204.5 40q-87.5 50 -138.5 138t-51 197t50.5 197t138.5 138t195 50q88 0 164.5 -35t129.5 -98.5t74 -145.5l-92 -16q-25 94 -99.5 150t-176.5 56q-84 0 -149 -37.5t-101.5 -105t-36.5 -153.5q0 -87 36.5 -154t102 -104.5t148.5 -37.5q98 0 171 52t100 139h-214v80h326
q-5 -103 -57 -185t-137.5 -128.5t-188.5 -46.5q-107 0 -194.5 50z" />
    <glyph glyph-name="Gbreve.ss04" horiz-adv-x="794" vert-adv-y="1170" 
d="M204.5 40q-87.5 50 -138.5 138t-51 197t50.5 197t138.5 138t195 50q88 0 164.5 -35t129.5 -98.5t74 -145.5l-92 -16q-25 94 -99.5 150t-176.5 56q-84 0 -149 -37.5t-101.5 -105t-36.5 -153.5q0 -87 36.5 -154t102 -104.5t148.5 -37.5q98 0 171 52t100 139h-214v80h326
q-5 -103 -57 -185t-137.5 -128.5t-188.5 -46.5q-107 0 -194.5 50zM310.5 851.5q-28.5 34.5 -23.5 98.5h77q-2 -31 7 -47t27 -16q38 0 35 63h73q1 -6 1 -18q0 -55 -29 -85t-81 -30q-58 0 -86.5 34.5z" />
    <glyph glyph-name="Gcaron.ss04" horiz-adv-x="794" vert-adv-y="1170" 
d="M204.5 40q-87.5 50 -138.5 138t-51 197t50.5 197t138.5 138t195 50q88 0 164.5 -35t129.5 -98.5t74 -145.5l-92 -16q-25 94 -99.5 150t-176.5 56q-84 0 -149 -37.5t-101.5 -105t-36.5 -153.5q0 -87 36.5 -154t102 -104.5t148.5 -37.5q98 0 171 52t100 139h-214v80h326
q-5 -103 -57 -185t-137.5 -128.5t-188.5 -46.5q-107 0 -194.5 50zM305 950h53l39 -66l38 66h54l-54 -135h-76z" />
    <glyph glyph-name="Gcircumflex.ss04" horiz-adv-x="794" vert-adv-y="1170" 
d="M204.5 40q-87.5 50 -138.5 138t-51 197t50.5 197t138.5 138t195 50q88 0 164.5 -35t129.5 -98.5t74 -145.5l-92 -16q-25 94 -99.5 150t-176.5 56q-84 0 -149 -37.5t-101.5 -105t-36.5 -153.5q0 -87 36.5 -154t102 -104.5t148.5 -37.5q98 0 171 52t100 139h-214v80h326
q-5 -103 -57 -185t-137.5 -128.5t-188.5 -46.5q-107 0 -194.5 50zM359 950h76l54 -135h-54l-38 66l-39 -66h-53z" />
    <glyph glyph-name="uni0122.ss04" horiz-adv-x="794" vert-adv-y="1170" 
d="M204.5 40q-87.5 50 -138.5 138t-51 197t50.5 197t138.5 138t195 50q88 0 164.5 -35t129.5 -98.5t74 -145.5l-92 -16q-25 94 -99.5 150t-176.5 56q-84 0 -149 -37.5t-101.5 -105t-36.5 -153.5q0 -87 36.5 -154t102 -104.5t148.5 -37.5q98 0 171 52t100 139h-214v80h326
q-5 -103 -57 -185t-137.5 -128.5t-188.5 -46.5q-107 0 -194.5 50zM434 -130l-41 -111l-31 13l29 83q-16 2 -25.5 13.5t-9.5 28.5q0 18 12 29.5t30 11.5t30 -11.5t12 -29.5q0 -9 -6 -27z" />
    <glyph glyph-name="Gdotaccent.ss04" horiz-adv-x="794" vert-adv-y="1170" 
d="M204.5 40q-87.5 50 -138.5 138t-51 197t50.5 197t138.5 138t195 50q88 0 164.5 -35t129.5 -98.5t74 -145.5l-92 -16q-25 94 -99.5 150t-176.5 56q-84 0 -149 -37.5t-101.5 -105t-36.5 -153.5q0 -87 36.5 -154t102 -104.5t148.5 -37.5q98 0 171 52t100 139h-214v80h326
q-5 -103 -57 -185t-137.5 -128.5t-188.5 -46.5q-107 0 -194.5 50zM355 841q-17 17 -17 42q0 26 17 42.5t42 16.5q26 0 42.5 -16.5t16.5 -42.5t-16.5 -42.5t-42.5 -16.5q-25 0 -42 17z" />
    <glyph glyph-name="uni1E20.ss04" horiz-adv-x="794" vert-adv-y="1170" 
d="M204.5 40q-87.5 50 -138.5 138t-51 197t50.5 197t138.5 138t195 50q88 0 164.5 -35t129.5 -98.5t74 -145.5l-92 -16q-25 94 -99.5 150t-176.5 56q-84 0 -149 -37.5t-101.5 -105t-36.5 -153.5q0 -87 36.5 -154t102 -104.5t148.5 -37.5q98 0 171 52t100 139h-214v80h326
q-5 -103 -57 -185t-137.5 -128.5t-188.5 -46.5q-107 0 -194.5 50zM490 923v-83h-187v83h187z" />
    <glyph glyph-name="O.ss04" horiz-adv-x="800" vert-adv-y="1170" 
d="M205 40q-88 50 -139 138t-51 197t51 197t139 138t195 50t195 -50t139 -138t51 -197t-51 -197t-139 -138t-195 -50t-195 50zM549.5 116.5q65.5 37.5 102 105t36.5 153.5q0 87 -37 154t-102.5 104.5t-148.5 37.5q-84 0 -149.5 -37.5t-102 -105t-36.5 -153.5
q0 -87 36.5 -154t102 -104.5t149.5 -37.5t149.5 37.5z" />
    <glyph glyph-name="Oacute.ss04" horiz-adv-x="800" vert-adv-y="1170" 
d="M205 40q-88 50 -139 138t-51 197t51 197t139 138t195 50t195 -50t139 -138t51 -197t-51 -197t-139 -138t-195 -50t-195 50zM549.5 116.5q65.5 37.5 102 105t36.5 153.5q0 87 -37 154t-102.5 104.5t-148.5 37.5q-84 0 -149.5 -37.5t-102 -105t-36.5 -153.5
q0 -87 36.5 -154t102 -104.5t149.5 -37.5t149.5 37.5zM398 950h110l-98 -135h-32z" />
    <glyph glyph-name="Ocircumflex.ss04" horiz-adv-x="800" vert-adv-y="1170" 
d="M205 40q-88 50 -139 138t-51 197t51 197t139 138t195 50t195 -50t139 -138t51 -197t-51 -197t-139 -138t-195 -50t-195 50zM549.5 116.5q65.5 37.5 102 105t36.5 153.5q0 87 -37 154t-102.5 104.5t-148.5 37.5q-84 0 -149.5 -37.5t-102 -105t-36.5 -153.5
q0 -87 36.5 -154t102 -104.5t149.5 -37.5t149.5 37.5zM362 950h76l54 -135h-54l-38 66l-39 -66h-53z" />
    <glyph glyph-name="uni1ED0.ss04" horiz-adv-x="800" vert-adv-y="1170" 
d="M205 40q-88 50 -139 138t-51 197t51 197t139 138t195 50t195 -50t139 -138t51 -197t-51 -197t-139 -138t-195 -50t-195 50zM549.5 116.5q65.5 37.5 102 105t36.5 153.5q0 87 -37 154t-102.5 104.5t-148.5 37.5q-84 0 -149.5 -37.5t-102 -105t-36.5 -153.5
q0 -87 36.5 -154t102 -104.5t149.5 -37.5t149.5 37.5zM362 950h76l54 -135h-54l-38 66l-39 -66h-53zM481 1052h96l-86 -115h-28z" />
    <glyph glyph-name="uni1ED8.ss04" horiz-adv-x="800" vert-adv-y="1170" 
d="M205 40q-88 50 -139 138t-51 197t51 197t139 138t195 50t195 -50t139 -138t51 -197t-51 -197t-139 -138t-195 -50t-195 50zM549.5 116.5q65.5 37.5 102 105t36.5 153.5q0 87 -37 154t-102.5 104.5t-148.5 37.5q-84 0 -149.5 -37.5t-102 -105t-36.5 -153.5
q0 -87 36.5 -154t102 -104.5t149.5 -37.5t149.5 37.5zM361 -124.5q-15 15.5 -15 38.5t15.5 38t38.5 15q24 0 39 -15t15 -38q0 -24 -15 -39t-39 -15t-39 15.5zM362 950h76l54 -135h-54l-38 66l-39 -66h-53z" />
    <glyph glyph-name="uni1ED2.ss04" horiz-adv-x="800" vert-adv-y="1170" 
d="M205 40q-88 50 -139 138t-51 197t51 197t139 138t195 50t195 -50t139 -138t51 -197t-51 -197t-139 -138t-195 -50t-195 50zM549.5 116.5q65.5 37.5 102 105t36.5 153.5q0 87 -37 154t-102.5 104.5t-148.5 37.5q-84 0 -149.5 -37.5t-102 -105t-36.5 -153.5
q0 -87 36.5 -154t102 -104.5t149.5 -37.5t149.5 37.5zM362 950h76l54 -135h-54l-38 66l-39 -66h-53zM412 1052h96l18 -115h-27z" />
    <glyph glyph-name="uni1ED4.ss04" horiz-adv-x="800" vert-adv-y="1170" 
d="M205 40q-88 50 -139 138t-51 197t51 197t139 138t195 50t195 -50t139 -138t51 -197t-51 -197t-139 -138t-195 -50t-195 50zM549.5 116.5q65.5 37.5 102 105t36.5 153.5q0 87 -37 154t-102.5 104.5t-148.5 37.5q-84 0 -149.5 -37.5t-102 -105t-36.5 -153.5
q0 -87 36.5 -154t102 -104.5t149.5 -37.5t149.5 37.5zM362 950h76l54 -135h-54l-38 66l-39 -66h-53zM494.5 974.5q11.5 8.5 11.5 20.5q0 13 -12 20t-29 7v69h4q55 0 82.5 -22t27.5 -59q0 -26 -15.5 -42.5t-39.5 -24.5v-21h-59v42q18 2 29.5 10.5z" />
    <glyph glyph-name="uni1ED6.ss04" horiz-adv-x="800" vert-adv-y="1170" 
d="M205 40q-88 50 -139 138t-51 197t51 197t139 138t195 50t195 -50t139 -138t51 -197t-51 -197t-139 -138t-195 -50t-195 50zM549.5 116.5q65.5 37.5 102 105t36.5 153.5q0 87 -37 154t-102.5 104.5t-148.5 37.5q-84 0 -149.5 -37.5t-102 -105t-36.5 -153.5
q0 -87 36.5 -154t102 -104.5t149.5 -37.5t149.5 37.5zM362 945h77l51 -130h-54l-36 61l-35 -61h-54zM412.5 988q-12.5 8 -25.5 21q-7 7 -14 12t-12 5q-10 0 -15 -10.5t-5 -28.5h-61q-2 53 17.5 81.5t58.5 28.5q15 0 26 -7.5t27 -21.5q17 -17 26 -17q10 0 15 10.5t5 28.5h59
q4 -54 -15.5 -82t-58.5 -28q-15 0 -27.5 8z" />
    <glyph glyph-name="Odieresis.ss04" horiz-adv-x="800" vert-adv-y="1170" 
d="M205 40q-88 50 -139 138t-51 197t51 197t139 138t195 50t195 -50t139 -138t51 -197t-51 -197t-139 -138t-195 -50t-195 50zM549.5 116.5q65.5 37.5 102 105t36.5 153.5q0 87 -37 154t-102.5 104.5t-148.5 37.5q-84 0 -149.5 -37.5t-102 -105t-36.5 -153.5
q0 -87 36.5 -154t102 -104.5t149.5 -37.5t149.5 37.5zM424 843q-16 16 -16 40q0 25 16 40.5t39 15.5q24 0 39.5 -15.5t15.5 -40.5t-15.5 -40.5t-39.5 -15.5q-23 0 -39 16zM298.5 842.5q-15.5 15.5 -15.5 40.5t15.5 40.5t38.5 15.5q24 0 39.5 -15.5t15.5 -40.5t-15.5 -40.5
t-39.5 -15.5q-23 0 -38.5 15.5z" />
    <glyph glyph-name="uni1ECC.ss04" horiz-adv-x="800" vert-adv-y="1170" 
d="M205 40q-88 50 -139 138t-51 197t51 197t139 138t195 50t195 -50t139 -138t51 -197t-51 -197t-139 -138t-195 -50t-195 50zM549.5 116.5q65.5 37.5 102 105t36.5 153.5q0 87 -37 154t-102.5 104.5t-148.5 37.5q-84 0 -149.5 -37.5t-102 -105t-36.5 -153.5
q0 -87 36.5 -154t102 -104.5t149.5 -37.5t149.5 37.5zM361 -124.5q-15 15.5 -15 38.5t15.5 38t38.5 15q24 0 39 -15t15 -38q0 -24 -15 -39t-39 -15t-39 15.5z" />
    <glyph glyph-name="Ograve.ss04" horiz-adv-x="800" vert-adv-y="1170" 
d="M205 40q-88 50 -139 138t-51 197t51 197t139 138t195 50t195 -50t139 -138t51 -197t-51 -197t-139 -138t-195 -50t-195 50zM549.5 116.5q65.5 37.5 102 105t36.5 153.5q0 87 -37 154t-102.5 104.5t-148.5 37.5q-84 0 -149.5 -37.5t-102 -105t-36.5 -153.5
q0 -87 36.5 -154t102 -104.5t149.5 -37.5t149.5 37.5zM289 950h110l20 -135h-32z" />
    <glyph glyph-name="uni1ECE.ss04" horiz-adv-x="800" vert-adv-y="1170" 
d="M205 40q-88 50 -139 138t-51 197t51 197t139 138t195 50t195 -50t139 -138t51 -197t-51 -197t-139 -138t-195 -50t-195 50zM549.5 116.5q65.5 37.5 102 105t36.5 153.5q0 87 -37 154t-102.5 104.5t-148.5 37.5q-84 0 -149.5 -37.5t-102 -105t-36.5 -153.5
q0 -87 36.5 -154t102 -104.5t149.5 -37.5t149.5 37.5zM403 868.5q11 8.5 11 20.5q0 14 -12 21t-29 7v72h4q56 0 84.5 -23t28.5 -60q0 -51 -56 -70v-21h-61v42q19 3 30 11.5z" />
    <glyph glyph-name="Ohorn.ss04" horiz-adv-x="800" vert-adv-y="1170" 
d="M205 40q-88 50 -139 138t-51 197t51 197t139 138t195 50q41 0 120 -7q50 -4 67 -4q32 0 47.5 13.5t15.5 42.5t-12 64h86q14 -41 14 -70q0 -50 -28.5 -78t-81.5 -32q73 -52 115 -134t42 -180q0 -109 -51 -197t-139 -138t-195 -50t-195 50zM549.5 116.5q65.5 37.5 102 105
t36.5 153.5q0 87 -37 154t-102.5 104.5t-148.5 37.5q-84 0 -149.5 -37.5t-102 -105t-36.5 -153.5q0 -87 36.5 -154t102 -104.5t149.5 -37.5t149.5 37.5z" />
    <glyph glyph-name="uni1EDA.ss04" horiz-adv-x="800" vert-adv-y="1170" 
d="M205 40q-88 50 -139 138t-51 197t51 197t139 138t195 50q41 0 120 -7q50 -4 67 -4q32 0 47.5 13.5t15.5 42.5t-12 64h86q14 -41 14 -70q0 -50 -28.5 -78t-81.5 -32q73 -52 115 -134t42 -180q0 -109 -51 -197t-139 -138t-195 -50t-195 50zM549.5 116.5q65.5 37.5 102 105
t36.5 153.5q0 87 -37 154t-102.5 104.5t-148.5 37.5q-84 0 -149.5 -37.5t-102 -105t-36.5 -153.5q0 -87 36.5 -154t102 -104.5t149.5 -37.5t149.5 37.5zM398 950h110l-98 -135h-32z" />
    <glyph glyph-name="uni1EE2.ss04" horiz-adv-x="800" vert-adv-y="1170" 
d="M205 40q-88 50 -139 138t-51 197t51 197t139 138t195 50q41 0 120 -7q50 -4 67 -4q32 0 47.5 13.5t15.5 42.5t-12 64h86q14 -41 14 -70q0 -50 -28.5 -78t-81.5 -32q73 -52 115 -134t42 -180q0 -109 -51 -197t-139 -138t-195 -50t-195 50zM549.5 116.5q65.5 37.5 102 105
t36.5 153.5q0 87 -37 154t-102.5 104.5t-148.5 37.5q-84 0 -149.5 -37.5t-102 -105t-36.5 -153.5q0 -87 36.5 -154t102 -104.5t149.5 -37.5t149.5 37.5zM361 -124.5q-15 15.5 -15 38.5t15.5 38t38.5 15q24 0 39 -15t15 -38q0 -24 -15 -39t-39 -15t-39 15.5z" />
    <glyph glyph-name="uni1EDC.ss04" horiz-adv-x="800" vert-adv-y="1170" 
d="M205 40q-88 50 -139 138t-51 197t51 197t139 138t195 50q41 0 120 -7q50 -4 67 -4q32 0 47.5 13.5t15.5 42.5t-12 64h86q14 -41 14 -70q0 -50 -28.5 -78t-81.5 -32q73 -52 115 -134t42 -180q0 -109 -51 -197t-139 -138t-195 -50t-195 50zM549.5 116.5q65.5 37.5 102 105
t36.5 153.5q0 87 -37 154t-102.5 104.5t-148.5 37.5q-84 0 -149.5 -37.5t-102 -105t-36.5 -153.5q0 -87 36.5 -154t102 -104.5t149.5 -37.5t149.5 37.5zM289 950h110l20 -135h-32z" />
    <glyph glyph-name="uni1EDE.ss04" horiz-adv-x="800" vert-adv-y="1170" 
d="M205 40q-88 50 -139 138t-51 197t51 197t139 138t195 50q41 0 120 -7q50 -4 67 -4q32 0 47.5 13.5t15.5 42.5t-12 64h86q14 -41 14 -70q0 -50 -28.5 -78t-81.5 -32q73 -52 115 -134t42 -180q0 -109 -51 -197t-139 -138t-195 -50t-195 50zM549.5 116.5q65.5 37.5 102 105
t36.5 153.5q0 87 -37 154t-102.5 104.5t-148.5 37.5q-84 0 -149.5 -37.5t-102 -105t-36.5 -153.5q0 -87 36.5 -154t102 -104.5t149.5 -37.5t149.5 37.5zM403 868.5q11 8.5 11 20.5q0 14 -12 21t-29 7v72h4q56 0 84.5 -23t28.5 -60q0 -51 -56 -70v-21h-61v42q19 3 30 11.5z
" />
    <glyph glyph-name="uni1EE0.ss04" horiz-adv-x="800" vert-adv-y="1170" 
d="M205 40q-88 50 -139 138t-51 197t51 197t139 138t195 50q41 0 120 -7q50 -4 67 -4q32 0 47.5 13.5t15.5 42.5t-12 64h86q14 -41 14 -70q0 -50 -28.5 -78t-81.5 -32q73 -52 115 -134t42 -180q0 -109 -51 -197t-139 -138t-195 -50t-195 50zM549.5 116.5q65.5 37.5 102 105
t36.5 153.5q0 87 -37 154t-102.5 104.5t-148.5 37.5q-84 0 -149.5 -37.5t-102 -105t-36.5 -153.5q0 -87 36.5 -154t102 -104.5t149.5 -37.5t149.5 37.5zM416.5 830.5q-13.5 8.5 -28.5 23.5q-18 18 -28 18t-16 -11t-6 -31h-66q-3 58 18 89.5t64 31.5q17 0 30.5 -8.5
t28.5 -23.5q18 -18 28 -18t16 11t6 31h65q4 -59 -17 -90t-64 -31q-17 0 -30.5 8.5z" />
    <glyph glyph-name="Ohungarumlaut.ss04" horiz-adv-x="800" vert-adv-y="1170" 
d="M205 40q-88 50 -139 138t-51 197t51 197t139 138t195 50t195 -50t139 -138t51 -197t-51 -197t-139 -138t-195 -50t-195 50zM549.5 116.5q65.5 37.5 102 105t36.5 153.5q0 87 -37 154t-102.5 104.5t-148.5 37.5q-84 0 -149.5 -37.5t-102 -105t-36.5 -153.5
q0 -87 36.5 -154t102 -104.5t149.5 -37.5t149.5 37.5zM444 950h111l-99 -135h-32zM326 950h110l-98 -135h-32z" />
    <glyph glyph-name="Omacron.ss04" horiz-adv-x="800" vert-adv-y="1170" 
d="M205 40q-88 50 -139 138t-51 197t51 197t139 138t195 50t195 -50t139 -138t51 -197t-51 -197t-139 -138t-195 -50t-195 50zM549.5 116.5q65.5 37.5 102 105t36.5 153.5q0 87 -37 154t-102.5 104.5t-148.5 37.5q-84 0 -149.5 -37.5t-102 -105t-36.5 -153.5
q0 -87 36.5 -154t102 -104.5t149.5 -37.5t149.5 37.5zM493 923v-83h-187v83h187z" />
    <glyph glyph-name="Oslash.ss04" horiz-adv-x="800" vert-adv-y="1170" 
d="M203 41l-30 -41h-104l66 91q-57 53 -88.5 126t-31.5 158q0 109 51 197t139 138t195 50q108 0 197 -51l30 41h103l-65 -92q57 -53 88.5 -125.5t31.5 -157.5q0 -109 -51 -197t-139 -138t-195 -50q-108 0 -197 51zM549.5 116.5q65.5 37.5 102 105t36.5 153.5q0 65 -21 119.5
t-60 94.5l-345 -479q62 -31 138 -31q84 0 149.5 37.5zM133 255q21 -55 60 -95l344 480q-62 31 -137 31q-84 0 -149.5 -37.5t-102 -105t-36.5 -153.5q0 -65 21 -120z" />
    <glyph glyph-name="Otilde.ss04" horiz-adv-x="800" vert-adv-y="1170" 
d="M205 40q-88 50 -139 138t-51 197t51 197t139 138t195 50t195 -50t139 -138t51 -197t-51 -197t-139 -138t-195 -50t-195 50zM549.5 116.5q65.5 37.5 102 105t36.5 153.5q0 87 -37 154t-102.5 104.5t-148.5 37.5q-84 0 -149.5 -37.5t-102 -105t-36.5 -153.5
q0 -87 36.5 -154t102 -104.5t149.5 -37.5t149.5 37.5zM416.5 830.5q-13.5 8.5 -28.5 23.5q-18 18 -28 18t-16 -11t-6 -31h-66q-3 58 18 89.5t64 31.5q17 0 30.5 -8.5t28.5 -23.5q18 -18 28 -18t16 11t6 31h65q4 -59 -17 -90t-64 -31q-17 0 -30.5 8.5z" />
    <glyph glyph-name="OE.ss04" horiz-adv-x="711" vert-adv-y="1170" 
d="M198 49.5q-85 49.5 -134 135.5t-49 190q0 105 48.5 190.5t134 135t189.5 49.5h304v-89h-98v-226h73v-90h-73v-256h98v-89h-304q-104 0 -189 49.5zM498 89v572h-111q-80 0 -142 -37t-96 -102t-34 -147t34 -147t95.5 -102t142.5 -37h111z" />
    <glyph glyph-name="Q.ss04" horiz-adv-x="800" vert-adv-y="1170" 
d="M205 49.5q-88 49.5 -139 136.5t-51 194q0 108 51 194.5t139 136t195 49.5t195 -49.5t139 -136.5t51 -194q0 -89 -36.5 -165t-100.5 -126h143v-89h-391q-107 0 -195 49.5zM549.5 126q65.5 37 102 103t36.5 151t-37 151.5t-102.5 103t-148.5 36.5q-84 0 -149.5 -37
t-102 -103t-36.5 -151t36.5 -151.5t102 -103t149.5 -36.5t149.5 37z" />
    <glyph glyph-name="N.ss06" horiz-adv-x="583" vert-adv-y="1170" 
d="M387.5 6.5q-12.5 6.5 -19.5 17.5l-173 256v-280h-158v550h133q29 0 45 -24l174 -255v279h158v-550h-133q-14 0 -26.5 6.5z" />
    <glyph glyph-name="V.ss06" horiz-adv-x="545" vert-adv-y="1170" 
d="M173.5 541q11.5 -9 15.5 -23l85 -301l86 301q4 14 16 23t26 9h126l-175 -550h-160l-175 550h129q15 0 26.5 -9z" />
    <glyph glyph-name="N.ss07" horiz-adv-x="303" vert-adv-y="1170" 
d="M28 750h59q8 0 13.5 -4.5t7.5 -12.5l87 -403v420h81v-750h-59q-17 0 -20 17l-88 404v-421h-81v750z" />
    <glyph glyph-name="i.loclTRK" horiz-adv-x="150" vert-adv-y="1170" 
d="M27 550h96v-550h-96v550zM33 641q-17 17 -17 42q0 26 17 42.5t42 16.5q26 0 42.5 -16.5t16.5 -42.5t-16.5 -42.5t-42.5 -16.5q-25 0 -42 17z" />
    <glyph glyph-name="uni006A0301" horiz-adv-x="151" vert-adv-y="1170" 
d="M-27 -183v90h20q35 0 35 41v602h95v-606q0 -68 -28 -99t-90 -31q-16 0 -32 3zM74 750h110l-98 -135h-32z" />
    <glyph glyph-name="f.001" horiz-adv-x="223" vert-adv-y="1170" 
d="M48 463h-36v87h36v77q0 66 33 99.5t90 33.5q17 0 35 -4v-88q-13 3 -20 3q-20 0 -31 -15t-11 -39v-67h115v-87h-115v-463h-96v463z" />
    <glyph glyph-name="cacute.loclPLK" horiz-adv-x="288" vert-adv-y="1170" 
d="M57.5 24q-32.5 34 -32.5 90v322q0 57 32.5 90.5t87.5 33.5q54 0 86.5 -33.5t32.5 -89.5v-125l-95 -9v141q0 14 -6.5 21t-17.5 7q-12 0 -18.5 -7.5t-6.5 -21.5v-336q0 -14 6.5 -21.5t18.5 -7.5q11 0 17.5 7.5t6.5 20.5v141l95 -9v-125q0 -56 -32.5 -89.5t-86.5 -33.5
q-55 0 -87.5 34zM122 750h110l-78 -135h-32v135z" />
    <glyph glyph-name="nacute.loclPLK" horiz-adv-x="292" vert-adv-y="1170" 
d="M27 550h88v-55h3q9 30 25.5 47.5t48.5 17.5q39 0 57 -26.5t18 -77.5v-456h-96v421q0 35 -22 35q-12 0 -19 -10t-7 -29v-417h-96v550zM124 750h110l-78 -135h-32v135z" />
    <glyph glyph-name="oacute.loclPLK" horiz-adv-x="289" vert-adv-y="1170" 
d="M57.5 23.5q-32.5 33.5 -32.5 89.5v324q0 56 32.5 89.5t87.5 33.5q54 0 86.5 -33.5t32.5 -89.5v-324q0 -56 -32.5 -89.5t-86.5 -33.5q-55 0 -87.5 33.5zM126.5 85q6.5 -7 18.5 -7q11 0 17.5 7.5t6.5 20.5v338q0 14 -6.5 21t-17.5 7q-25 0 -25 -28v-338q0 -14 6.5 -21z
M123 750h110l-78 -135h-32v135z" />
    <glyph glyph-name="sacute.loclPLK" horiz-adv-x="278" vert-adv-y="1170" 
d="M52 24q-33 34 -33 89v53l96 9v-69q0 -28 23 -28q12 0 18.5 7.5t6.5 21.5v39q0 32 -5.5 47t-28.5 30l-53 37q-32 22 -44 56t-12 99q0 71 32 108t87 37q53 0 85.5 -33.5t32.5 -89.5v-53l-95 -9v69q0 14 -6.5 21t-16.5 7q-11 0 -17 -8t-6 -21v-32q0 -31 6 -48t27 -32l54 -36
q33 -24 44 -56t11 -103q0 -72 -32 -109t-88 -37q-53 0 -86 34zM117 750h110l-78 -135h-32v135z" />
    <glyph glyph-name="zacute.loclPLK" horiz-adv-x="231" vert-adv-y="1170" 
d="M14 85l113 379h-109v86h195v-85l-113 -379h116v-86h-202v85zM94 750h110l-78 -135h-32v135z" />
    <glyph glyph-name="g.ss01" horiz-adv-x="276" vert-adv-y="1170" 
d="M45 -155q-29 32 -29 80v75q0 28 13.5 49.5t36.5 28.5q-15 7 -20.5 19.5t-5.5 32.5v38q0 36 33 50q-25 15 -38.5 44t-13.5 68v91q0 61 30.5 95t85.5 34h130v-84h-38q12 -12 19.5 -31t7.5 -40v-65q0 -61 -31 -94.5t-86 -33.5q-8 0 -11 1v-57h22q46 0 74 -30.5t28 -80.5
v-110q0 -49 -29 -80.5t-89 -31.5t-89 32zM149 -92q6 10 6 26v85q0 15 -6 24t-17 9t-16.5 -9t-5.5 -24v-85q0 -36 22 -36q11 0 17 10zM154.5 298q6.5 9 6.5 23v108q0 16 -6.5 25.5t-16.5 9.5t-16 -10t-6 -25v-108q0 -14 6 -23t16 -9t16.5 9z" />
    <glyph glyph-name="t.ss01" horiz-adv-x="227" vert-adv-y="1170" 
d="M48 128v335h-36v87h36v117l96 18v-135h65v-87h-65v-328q0 -47 41 -47q11 0 24 3v-88q-24 -7 -49 -7q-112 0 -112 132z" />
    <glyph glyph-name="y.ss01" horiz-adv-x="278" vert-adv-y="1170" 
d="M15 -183v94q10 -3 25 -3q34 0 50 16t23 58l7 40h-48l-62 528h103l28 -421h2l27 421h98l-64 -553q-11 -100 -46.5 -142t-106.5 -42q-20 0 -36 4z" />
    <glyph glyph-name="zero.lf" horiz-adv-x="282" vert-adv-y="1170" 
d="M60.5 22q-33.5 32 -33.5 83v540q0 51 33.5 83t87.5 32q53 0 86 -32t33 -83v-540q0 -51 -33 -83t-86 -32q-54 0 -87.5 32zM165.5 85q6.5 7 6.5 20v540q0 13 -6.5 20t-17.5 7q-12 0 -18.5 -7t-6.5 -20v-540q0 -27 25 -27q11 0 17.5 7z" />
    <glyph glyph-name="one.lf" horiz-adv-x="201" vert-adv-y="1170" 
d="M78 660h-63v90h158v-750h-95v660z" />
    <glyph glyph-name="two.lf" horiz-adv-x="274" vert-adv-y="1170" 
d="M41.5 296.5q17.5 34.5 63.5 91.5q37 47 50 73t13 56v128q0 26 -24 26t-24 -26v-130l-97 9v121q0 51 33.5 83t87.5 32t87 -32t33 -83v-144q0 -46 -16.5 -79t-59.5 -88q-39 -51 -52.5 -78.5t-13.5 -61.5v-103h142v-91h-240v217q0 45 17.5 79.5z" />
    <glyph glyph-name="three.lf" horiz-adv-x="285" vert-adv-y="1170" 
d="M54 27q-35 37 -35 91v108l98 9v-120q0 -17 8 -26t21 -9t21.5 9t8.5 25v201q0 16 -9 26t-25 10h-69v77l94 232h-134v90h232v-86l-93 -222q53 -6 77 -38.5t24 -91.5v-195q0 -56 -36 -91.5t-93 -35.5q-55 0 -90 37z" />
    <glyph glyph-name="four.lf" horiz-adv-x="285" vert-adv-y="1170" 
d="M157 148h-143v82l60 520h98l-58 -512h43v135h94v-135h34v-90h-34v-149h-94v149z" />
    <glyph glyph-name="five.lf" horiz-adv-x="282" vert-adv-y="1170" 
d="M61 23.5q-35 32.5 -35 81.5v122h98v-121q0 -14 6.5 -21t17.5 -7t18 7t7 21v272q0 13 -7 20t-19 7q-11 0 -17.5 -7.5t-6.5 -19.5v-54h-96v63l13 363h225v-90h-141l-7 -182q10 9 24 14t26 5q48 0 75.5 -30t27.5 -84v-277q0 -51 -34 -83t-89 -32q-51 0 -86 32.5z" />
    <glyph glyph-name="six.lf" horiz-adv-x="285" vert-adv-y="1170" 
d="M62 20.5q-34 30.5 -34 84.5v533q0 53 34 87.5t89 34.5q53 0 87.5 -35.5t34.5 -90.5v-103l-97 -8v121q0 13 -7.5 20t-17.5 7q-12 0 -19 -6.5t-7 -18.5v-212q10 9 23.5 13.5t26.5 4.5q45 0 71 -28.5t26 -83.5v-235q0 -54 -33.5 -84.5t-88.5 -30.5q-54 0 -88 30.5z
M167.5 85.5q6.5 6.5 6.5 18.5v230q0 13 -7 19.5t-17 6.5q-11 0 -18 -7t-7 -19v-230q0 -12 7 -18.5t18 -6.5t17.5 6.5z" />
    <glyph glyph-name="seven.lf" horiz-adv-x="228" vert-adv-y="1170" 
d="M138 660h-127v90h219v-86l-112 -664h-92z" />
    <glyph glyph-name="eight.lf" horiz-adv-x="286" vert-adv-y="1170" 
d="M60 22.5q-34 32.5 -34 83.5v195q0 29 8.5 51t29.5 39q-36 28 -36 87v167q0 51 34 83t88 32t87.5 -32.5t33.5 -82.5v-167q0 -59 -36 -87q21 -17 29.5 -39t8.5 -51v-195q0 -51 -34 -83.5t-89 -32.5q-56 0 -90 32.5zM169 87q7 7 7 20v204q0 29 -26 29t-26 -29v-204
q0 -27 26 -27q12 0 19 7zM174 464v180q0 26 -24 26q-25 0 -25 -26v-180q0 -29 25 -29q24 0 24 29z" />
    </font>
</defs>
</svg>
